<?xml version="1.0" encoding="UTF-8"?>
<!--Generator: Apple Native CoreSVG 175.5-->
<!DOCTYPE svg
PUBLIC "-//W3C//DTD SVG 1.1//EN"
       "http://www.w3.org/Graphics/SVG/1.1/DTD/svg11.dtd">
<svg version="1.1" xmlns="http://www.w3.org/2000/svg" xmlns:xlink="http://www.w3.org/1999/xlink" width="43.2983" height="31.5766">
 <g>
  <rect height="31.5766" opacity="0" width="43.2983" x="0" y="0"/>
  <path d="M25.708 18.7973C26.0986 19.4321 25.8057 20.0546 25.0488 20.0546L18.9819 20.0546C18.2251 20.0546 17.9199 19.4321 18.3105 18.7973L21.2891 13.9633C21.6675 13.3408 22.3755 13.353 22.7417 13.9633ZM25.708 26.2802C26.0986 25.6577 25.8057 25.0229 25.0488 25.0229L18.9819 25.0229C18.2251 25.0229 17.9199 25.6577 18.3105 26.2802L21.2891 31.1142C21.6675 31.7368 22.3755 31.7246 22.7417 31.1142ZM3.18604 23.1552L5.09033 23.1552C5.01709 22.789 4.95605 22.4106 4.95605 22.0078C4.95605 19.3833 7.03125 17.3203 9.64355 17.3203C12.2681 17.3203 14.3311 19.3833 14.3311 22.0078C14.3311 22.4106 14.2822 22.789 14.1968 23.1552L29.7485 23.1552C29.6753 22.789 29.6143 22.4106 29.6143 22.0078C29.6143 19.3833 31.6895 17.3203 34.3018 17.3203C36.9263 17.3203 38.9893 19.3833 38.9893 22.0078C38.9893 22.4106 38.9404 22.789 38.855 23.1552L40.4663 23.1552C42.2241 23.1552 43.2983 22.0444 43.2983 20.2377L43.2983 15.3305C43.2983 13.6215 42.7856 12.1689 40.5151 11.4609L38.0005 10.6918C36.4136 8.79975 33.6426 6.102 28.6011 6.102L25.7324 6.102C20.7031 6.102 18.7012 6.59028 15.6982 8.47017L10.7788 11.5585L5.35889 12.2177C1.98975 12.6328 0 14.5737 0 17.479L0 19.8959C0 21.9711 1.15967 23.1552 3.18604 23.1552ZM9.64355 25.267C11.4746 25.267 12.915 23.8266 12.915 22.0078C12.915 20.1889 11.4624 18.7363 9.64355 18.7363C7.83691 18.7363 6.38428 20.1889 6.38428 22.0078C6.38428 23.8144 7.83691 25.267 9.64355 25.267ZM34.3018 25.267C36.1206 25.267 37.5732 23.8144 37.5732 22.0078C37.5732 20.1889 36.1206 18.7363 34.3018 18.7363C32.5073 18.7363 31.0425 20.2011 31.0425 22.0078C31.0425 23.8144 32.4951 25.267 34.3018 25.267Z" fill="#5ac8f5"/>
 </g>
</svg>
