<?xml version="1.0" encoding="UTF-8"?>
<!--Generator: Apple Native CoreSVG 175.5-->
<!DOCTYPE svg
PUBLIC "-//W3C//DTD SVG 1.1//EN"
       "http://www.w3.org/Graphics/SVG/1.1/DTD/svg11.dtd">
<svg version="1.1" xmlns="http://www.w3.org/2000/svg" xmlns:xlink="http://www.w3.org/1999/xlink" width="24.9023" height="24.9146">
 <g>
  <rect height="24.9146" opacity="0" width="24.9023" x="0" y="0"/>
  <path d="M12.4512 24.9023C19.2627 24.9023 24.9023 19.2505 24.9023 12.4512C24.9023 5.63965 19.2505 0 12.439 0C5.63965 0 0 5.63965 0 12.4512C0 19.2505 5.65186 24.9023 12.4512 24.9023ZM12.4512 22.8271C6.68945 22.8271 2.0874 18.2129 2.0874 12.4512C2.0874 6.68945 6.67725 2.0752 12.439 2.0752C18.2007 2.0752 22.8271 6.68945 22.8271 12.4512C22.8271 18.2129 18.2129 22.8271 12.4512 22.8271ZM11.853 18.1641C14.2456 18.1641 15.5396 16.8823 15.5396 14.563L15.5396 7.72705C15.5396 7.05566 15.1855 6.62842 14.5508 6.62842C13.9282 6.62842 13.5864 7.08008 13.5864 7.72705L13.5864 14.5386C13.5864 15.7593 12.9639 16.4917 11.9507 16.4917C11.0352 16.4917 10.4126 16.04 10.1196 15.2466C9.91211 14.7827 9.64355 14.5874 9.22852 14.5874C8.69141 14.5874 8.3252 14.9658 8.3252 15.4907C8.3252 15.6982 8.36182 15.8813 8.42285 16.0645C8.8501 17.334 10.1685 18.1641 11.853 18.1641Z" fill="#5ac8f5"/>
 </g>
</svg>
