<?xml version="1.0" encoding="UTF-8"?>
<!--Generator: Apple Native CoreSVG 175.5-->
<!DOCTYPE svg
PUBLIC "-//W3C//DTD SVG 1.1//EN"
       "http://www.w3.org/Graphics/SVG/1.1/DTD/svg11.dtd">
<svg version="1.1" xmlns="http://www.w3.org/2000/svg" xmlns:xlink="http://www.w3.org/1999/xlink" width="22.2656" height="28.0884">
 <g>
  <rect height="28.0884" opacity="0" width="22.2656" x="0" y="0"/>
  <path d="M3.83301 19.7021L18.4326 19.7021C20.9839 19.7021 22.2656 18.4326 22.2656 15.9302L22.2656 5.2124C22.2656 2.69775 20.9839 1.42822 18.4326 1.42822L3.83301 1.42822C1.26953 1.42822 0 2.69775 0 5.2124L0 15.9302C0 18.4326 1.26953 19.7021 3.83301 19.7021ZM3.85742 17.7368C2.66113 17.7368 1.96533 17.0898 1.96533 15.8203L1.96533 5.32227C1.96533 4.05273 2.66113 3.39355 3.85742 3.39355L18.396 3.39355C19.6045 3.39355 20.3003 4.05273 20.3003 5.32227L20.3003 15.8203C20.3003 17.0898 19.6045 17.7368 18.396 17.7368ZM10.144 25.3174L12.1094 25.3174L12.1094 18.4448L10.144 18.4448ZM0.976562 26.2939L21.2769 26.2939C21.814 26.2939 22.2656 25.8545 22.2656 25.3174C22.2656 24.7681 21.814 24.3286 21.2769 24.3286L0.976562 24.3286C0.439453 24.3286 0 24.7681 0 25.3174C0 25.8545 0.439453 26.2939 0.976562 26.2939ZM11.1328 28.0884C12.6465 28.0884 13.8916 26.8433 13.8916 25.3296C13.8916 23.8159 12.6465 22.5708 11.1328 22.5708C9.61914 22.5708 8.37402 23.8159 8.37402 25.3296C8.37402 26.8433 9.61914 28.0884 11.1328 28.0884Z" fill="#5ac8f5"/>
 </g>
</svg>
