<?xml version="1.0" encoding="UTF-8"?>
<!--Generator: Apple Native CoreSVG 175.5-->
<!DOCTYPE svg
PUBLIC "-//W3C//DTD SVG 1.1//EN"
       "http://www.w3.org/Graphics/SVG/1.1/DTD/svg11.dtd">
<svg version="1.1" xmlns="http://www.w3.org/2000/svg" xmlns:xlink="http://www.w3.org/1999/xlink" width="13.9404" height="28.6011">
 <g>
  <rect height="28.6011" opacity="0" width="13.9404" x="0" y="0"/>
  <path d="M3.18604 28.6011L10.7544 28.6011C12.7075 28.6011 13.9404 27.4048 13.9404 25.5615L13.9404 3.02734C13.9404 1.18408 12.7075 0 10.7544 0L3.18604 0C1.23291 0 0 1.18408 0 3.02734L0 25.5615C0 27.4048 1.23291 28.6011 3.18604 28.6011ZM7.73926 4.40674C7.2998 4.40674 6.9458 4.06494 6.9458 3.62549C6.9458 3.18604 7.2998 2.83203 7.73926 2.83203L10.4248 2.83203C10.8643 2.83203 11.2061 3.18604 11.2061 3.62549C11.2061 4.06494 10.8643 4.40674 10.4248 4.40674ZM3.89404 9.09424C3.22266 9.09424 2.67334 8.55713 2.67334 7.86133C2.67334 7.20215 3.22266 6.64062 3.89404 6.64062C4.57764 6.64062 5.12695 7.20215 5.12695 7.86133C5.12695 8.55713 4.57764 9.09424 3.89404 9.09424ZM6.97021 9.09424C6.28662 9.09424 5.74951 8.55713 5.74951 7.86133C5.74951 7.20215 6.28662 6.64062 6.97021 6.64062C7.65381 6.64062 8.19092 7.20215 8.19092 7.86133C8.19092 8.55713 7.65381 9.09424 6.97021 9.09424ZM10.0586 9.09424C9.375 9.09424 8.83789 8.55713 8.83789 7.86133C8.83789 7.20215 9.375 6.64062 10.0586 6.64062C10.73 6.64062 11.2793 7.20215 11.2793 7.86133C11.2793 8.55713 10.73 9.09424 10.0586 9.09424ZM3.89404 12.6099C3.22266 12.6099 2.67334 12.0728 2.67334 11.3892C2.67334 10.73 3.22266 10.1685 3.89404 10.1685C4.57764 10.1685 5.12695 10.73 5.12695 11.3892C5.12695 12.0728 4.57764 12.6099 3.89404 12.6099ZM6.97021 12.6099C6.28662 12.6099 5.74951 12.0728 5.74951 11.3892C5.74951 10.73 6.28662 10.1685 6.97021 10.1685C7.65381 10.1685 8.19092 10.73 8.19092 11.3892C8.19092 12.0728 7.65381 12.6099 6.97021 12.6099ZM10.0586 12.6099C9.375 12.6099 8.83789 12.0728 8.83789 11.3892C8.83789 10.73 9.375 10.1685 10.0586 10.1685C10.73 10.1685 11.2793 10.73 11.2793 11.3892C11.2793 12.0728 10.73 12.6099 10.0586 12.6099ZM3.89404 16.1255C3.22266 16.1255 2.67334 15.6006 2.67334 14.9048C2.67334 14.2334 3.22266 13.6841 3.89404 13.6841C4.57764 13.6841 5.12695 14.2334 5.12695 14.9048C5.12695 15.6006 4.57764 16.1255 3.89404 16.1255ZM6.97021 16.1255C6.28662 16.1255 5.74951 15.5762 5.74951 14.9048C5.74951 14.2212 6.28662 13.6841 6.97021 13.6841C7.65381 13.6841 8.19092 14.2212 8.19092 14.9048C8.19092 15.5762 7.65381 16.1255 6.97021 16.1255ZM10.0586 16.1255C9.375 16.1255 8.83789 15.5762 8.83789 14.9048C8.83789 14.2212 9.375 13.6841 10.0586 13.6841C10.73 13.6841 11.2793 14.2212 11.2793 14.9048C11.2793 15.5762 10.73 16.1255 10.0586 16.1255ZM3.62549 24.4873C3.10059 24.4873 2.67334 24.0601 2.67334 23.5352L2.67334 19.0796C2.67334 18.5547 3.10059 18.1396 3.62549 18.1396C4.15039 18.1396 4.56543 18.5547 4.56543 19.0796L4.56543 23.5352C4.56543 24.0601 4.15039 24.4873 3.62549 24.4873ZM6.34766 20.8374C5.94482 20.8374 5.70068 20.5811 5.70068 20.1782L5.70068 19.3604C5.70068 18.9453 5.94482 18.689 6.34766 18.689L7.58057 18.689C8.00781 18.689 8.23975 18.9453 8.23975 19.3604L8.23975 20.1782C8.23975 20.5811 8.00781 20.8374 7.58057 20.8374ZM6.34766 23.9136C5.94482 23.9136 5.70068 23.6816 5.70068 23.2666L5.70068 22.4487C5.70068 22.0337 5.94482 21.7896 6.34766 21.7896L7.58057 21.7896C8.00781 21.7896 8.23975 22.0337 8.23975 22.4487L8.23975 23.2666C8.23975 23.6816 8.00781 23.9136 7.58057 23.9136ZM10.3271 24.4873C9.80225 24.4873 9.38721 24.0601 9.38721 23.5352L9.38721 19.0796C9.38721 18.5547 9.80225 18.1396 10.3271 18.1396C10.8521 18.1396 11.2793 18.5547 11.2793 19.0796L11.2793 23.5352C11.2793 24.0601 10.8521 24.4873 10.3271 24.4873Z" fill="#5ac8f5"/>
 </g>
</svg>
