<?xml version="1.0" encoding="UTF-8"?>
<!--Generator: Apple Native CoreSVG 175.5-->
<!DOCTYPE svg
PUBLIC "-//W3C//DTD SVG 1.1//EN"
       "http://www.w3.org/Graphics/SVG/1.1/DTD/svg11.dtd">
<svg version="1.1" xmlns="http://www.w3.org/2000/svg" xmlns:xlink="http://www.w3.org/1999/xlink" width="20.7627" height="27.8687">
 <g>
  <rect height="27.8687" opacity="0" width="20.7627" x="0" y="0"/>
  <path d="M1.46179 12.9028C1.46179 17.688 4.62341 21.0449 9.27429 21.4355L9.27429 24.2798L4.74548 24.2798C4.23279 24.2798 3.81775 24.6948 3.81775 25.2075C3.81775 25.7202 4.23279 26.123 4.74548 26.123L15.6464 26.123C16.1591 26.123 16.5741 25.7202 16.5741 25.2075C16.5741 24.6948 16.1591 24.2798 15.6464 24.2798L11.1176 24.2798L11.1176 21.4355C12.4969 21.3257 13.7299 20.9473 14.8041 20.3491L13.4857 19.043C12.5458 19.4946 11.4471 19.751 10.202 19.751C6.01501 19.751 3.30505 16.9922 3.30505 12.8296L3.30505 10.4248C3.30505 9.91211 2.90222 9.50928 2.37732 9.50928C1.86462 9.50928 1.46179 9.91211 1.46179 10.4248ZM16.6595 15.4175L18.0878 16.8457C18.6371 15.6982 18.9301 14.3677 18.9301 12.9028L18.9301 10.4248C18.9301 9.91211 18.5272 9.50928 18.0145 9.50928C17.5018 9.50928 17.0868 9.91211 17.0868 10.4248L17.0868 12.8296C17.0868 13.7695 16.9403 14.6362 16.6595 15.4175ZM10.202 17.2485C10.6659 17.2485 11.0931 17.1753 11.4838 17.041L9.61609 15.1611C9.51843 15.21 9.40857 15.2222 9.29871 15.2222C8.57849 15.0635 8.0658 14.4897 7.8949 13.7451L7.88269 13.4399L5.75867 11.3159L5.75867 12.4634C5.75867 15.271 7.56531 17.2485 10.202 17.2485ZM14.6332 4.78516C14.6332 1.96533 12.8265 0 10.202 0C7.78503 0 6.07605 1.66016 5.8075 4.10156L5.8075 4.58984L7.60193 6.37207L7.60193 4.78516C7.60193 2.97852 8.63953 1.81885 10.202 1.81885C11.7645 1.81885 12.7899 2.97852 12.7899 4.78516L12.7899 11.2671C12.7899 11.3647 12.7899 11.4624 12.7777 11.5479L14.5599 13.3301C14.6088 13.0493 14.6332 12.7563 14.6332 12.4634ZM19.162 22.644C19.5282 23.0103 20.1263 23.0103 20.4926 22.644C20.8466 22.2656 20.8588 21.6797 20.4926 21.3135L1.60828 2.44141C1.24207 2.0874 0.631714 2.0752 0.265503 2.44141C-0.088501 2.80762-0.088501 3.41797 0.265503 3.77197Z" fill="#5ac8f5"/>
 </g>
</svg>
