<?xml version="1.0" encoding="UTF-8"?>
<!--Generator: Apple Native CoreSVG 175.5-->
<!DOCTYPE svg
PUBLIC "-//W3C//DTD SVG 1.1//EN"
       "http://www.w3.org/Graphics/SVG/1.1/DTD/svg11.dtd">
<svg version="1.1" xmlns="http://www.w3.org/2000/svg" xmlns:xlink="http://www.w3.org/1999/xlink" width="26.4038" height="26.5015">
 <g>
  <rect height="26.5015" opacity="0" width="26.4038" x="0" y="0"/>
  <path d="M13.1958 19.4702C16.5894 19.4702 19.4092 16.6504 19.4092 13.2446C19.4092 9.82666 16.5894 7.00684 13.1958 7.00684C9.80225 7.00684 6.98242 9.82666 6.98242 13.2446C6.98242 16.6504 9.80225 19.4702 13.1958 19.4702ZM13.1958 17.6025C10.8154 17.6025 8.83789 15.625 8.83789 13.2446C8.83789 10.8521 10.8154 8.87451 13.1958 8.87451C15.5762 8.87451 17.5537 10.8521 17.5537 13.2446C17.5537 15.625 15.5762 17.6025 13.1958 17.6025ZM13.208 4.74854C13.7817 4.74854 14.2578 4.27246 14.2578 3.68652L14.2578 1.06201C14.2578 0.476074 13.7817 0 13.208 0C12.6221 0 12.146 0.476074 12.146 1.06201L12.146 3.68652C12.146 4.27246 12.6221 4.74854 13.208 4.74854ZM19.1895 7.25098C19.6045 7.65381 20.2759 7.66602 20.6909 7.25098L22.5586 5.3833C22.9614 4.98047 22.9614 4.29688 22.5586 3.88184C22.1558 3.479 21.4844 3.479 21.0693 3.88184L19.1895 5.76172C18.7866 6.17676 18.7866 6.84814 19.1895 7.25098ZM21.6675 13.2446C21.6675 13.8184 22.1558 14.2944 22.7295 14.2944L25.354 14.2944C25.9277 14.2944 26.4038 13.8184 26.4038 13.2446C26.4038 12.6709 25.9277 12.1826 25.354 12.1826L22.7295 12.1826C22.1558 12.1826 21.6675 12.6709 21.6675 13.2446ZM19.1895 19.2383C18.7866 19.6533 18.7866 20.3247 19.1895 20.7275L21.0693 22.6196C21.4844 23.0103 22.1558 22.998 22.5586 22.6074C22.9614 22.1924 22.9614 21.521 22.5586 21.1182L20.6787 19.2383C20.2759 18.8477 19.6045 18.8477 19.1895 19.2383ZM13.208 21.7407C12.6221 21.7407 12.146 22.2168 12.146 22.7905L12.146 25.4272C12.146 26.001 12.6221 26.4771 13.208 26.4771C13.7817 26.4771 14.2578 26.001 14.2578 25.4272L14.2578 22.7905C14.2578 22.2168 13.7817 21.7407 13.208 21.7407ZM7.21436 19.2383C6.79932 18.8477 6.11572 18.8477 5.71289 19.2383L3.84521 21.106C3.44238 21.5088 3.44238 22.1802 3.83301 22.5952C4.23584 22.9858 4.91943 22.998 5.33447 22.6074L7.20215 20.7275C7.60498 20.3247 7.60498 19.6533 7.21436 19.2383ZM4.73633 13.2446C4.73633 12.6709 4.24805 12.1826 3.67432 12.1826L1.0498 12.1826C0.476074 12.1826 0 12.6709 0 13.2446C0 13.8184 0.476074 14.2944 1.0498 14.2944L3.67432 14.2944C4.24805 14.2944 4.73633 13.8184 4.73633 13.2446ZM7.20215 7.25098C7.60498 6.86035 7.60498 6.16455 7.21436 5.76172L5.34668 3.88184C4.94385 3.49121 4.26025 3.479 3.85742 3.88184C3.45459 4.29688 3.45459 4.98047 3.84521 5.37109L5.71289 7.25098C6.11572 7.65381 6.78711 7.65381 7.20215 7.25098Z" fill="#5ac8f5"/>
 </g>
</svg>
