<?xml version="1.0" encoding="UTF-8"?>
<!--Generator: Apple Native CoreSVG 175.5-->
<!DOCTYPE svg
PUBLIC "-//W3C//DTD SVG 1.1//EN"
       "http://www.w3.org/Graphics/SVG/1.1/DTD/svg11.dtd">
<svg version="1.1" xmlns="http://www.w3.org/2000/svg" xmlns:xlink="http://www.w3.org/1999/xlink" width="24.9023" height="24.9146">
 <g>
  <rect height="24.9146" opacity="0" width="24.9023" x="0" y="0"/>
  <path d="M12.4512 24.9023C19.2627 24.9023 24.9023 19.2505 24.9023 12.4512C24.9023 5.63965 19.2505 0 12.439 0C5.63965 0 0 5.63965 0 12.4512C0 19.2505 5.65186 24.9023 12.4512 24.9023ZM12.4512 22.8271C6.68945 22.8271 2.0874 18.2129 2.0874 12.4512C2.0874 6.68945 6.67725 2.0752 12.439 2.0752C18.2007 2.0752 22.8271 6.68945 22.8271 12.4512C22.8271 18.2129 18.2129 22.8271 12.4512 22.8271ZM9.21631 7.10449L17.0898 14.9902C18.1519 13.7207 18.9331 12.3047 18.9331 10.791C18.9331 8.63037 17.4316 7.06787 15.3687 7.06787C14.0747 7.06787 13.0371 7.8125 12.439 8.92334C11.8286 7.8125 10.8154 7.06787 9.50928 7.06787C9.41162 7.06787 9.31396 7.08008 9.21631 7.10449ZM14.9658 17.0654L6.54297 8.65479C6.16455 9.24072 5.94482 9.97314 5.94482 10.791C5.94482 14.0015 9.28955 17.0044 11.8286 18.5425C12.0361 18.6646 12.3047 18.8354 12.4634 18.8354C12.6099 18.8354 12.854 18.6768 13.0371 18.5425C13.623 18.1274 14.3066 17.627 14.9658 17.0654ZM18.1885 18.9819C18.4082 19.1895 18.7622 19.1895 18.9697 18.9819C19.2017 18.7622 19.2017 18.4204 18.9697 18.2007L6.67725 5.896C6.45752 5.67627 6.10352 5.67627 5.88379 5.896C5.67627 6.11572 5.67627 6.46973 5.88379 6.67725Z" fill="#5ac8f5"/>
 </g>
</svg>
