<?xml version="1.0" encoding="UTF-8"?>
<!--Generator: Apple Native CoreSVG 175.5-->
<!DOCTYPE svg
PUBLIC "-//W3C//DTD SVG 1.1//EN"
       "http://www.w3.org/Graphics/SVG/1.1/DTD/svg11.dtd">
<svg version="1.1" xmlns="http://www.w3.org/2000/svg" xmlns:xlink="http://www.w3.org/1999/xlink" width="22.4731" height="22.4976">
 <g>
  <rect height="22.4976" opacity="0" width="22.4731" x="0" y="0"/>
  <path d="M3.83301 22.4976L18.6401 22.4976C21.2036 22.4976 22.4731 21.228 22.4731 18.7134L22.4731 3.80859C22.4731 1.29395 21.2036 0.0244141 18.6401 0.0244141L3.83301 0.0244141C1.28174 0.0244141 0 1.28174 0 3.80859L0 18.7134C0 21.2402 1.28174 22.4976 3.83301 22.4976ZM3.85742 20.5322C2.63672 20.5322 1.96533 19.8853 1.96533 18.6157L1.96533 3.90625C1.96533 2.63672 2.63672 1.98975 3.85742 1.98975L18.6157 1.98975C19.8242 1.98975 20.5078 2.63672 20.5078 3.90625L20.5078 18.6157C20.5078 19.8853 19.8242 20.5322 18.6157 20.5322ZM11.1572 17.0532C13.7817 17.0532 15.3931 15.6738 15.3931 13.7573C15.3931 12.3169 14.3188 11.1694 12.8296 11.0352L12.8296 10.9375C14.0503 10.7544 15.0024 9.63135 15.0024 8.34961C15.0024 6.65283 13.4521 5.43213 11.2671 5.43213C9.27734 5.43213 7.77588 6.35986 7.44629 7.80029C7.40967 7.97119 7.39746 8.10547 7.39746 8.28857C7.39746 8.76465 7.73926 9.09424 8.22754 9.09424C8.66699 9.09424 8.92334 8.88672 9.05762 8.45947C9.33838 7.54395 10.0952 6.97021 11.2305 6.97021C12.4512 6.97021 13.1958 7.58057 13.1958 8.56934C13.1958 9.57031 12.3535 10.3149 11.1816 10.3149L10.4248 10.3149C9.97314 10.3149 9.65576 10.6201 9.65576 11.0718C9.65576 11.499 9.97314 11.8164 10.4248 11.8164L11.2549 11.8164C12.6343 11.8164 13.5742 12.5732 13.5742 13.6841C13.5742 14.7827 12.6221 15.5029 11.1938 15.5029C9.87549 15.5029 9.13086 14.856 8.83789 14.0137C8.66699 13.5864 8.41064 13.3911 7.99561 13.3911C7.50732 13.3911 7.15332 13.7329 7.15332 14.2212C7.15332 14.4043 7.16553 14.5142 7.21436 14.6851C7.58057 16.0889 9.16748 17.0532 11.1572 17.0532Z" fill="#5ac8f5"/>
 </g>
</svg>
