<?xml version="1.0" encoding="UTF-8"?>
<!--Generator: Apple Native CoreSVG 175.5-->
<!DOCTYPE svg
PUBLIC "-//W3C//DTD SVG 1.1//EN"
       "http://www.w3.org/Graphics/SVG/1.1/DTD/svg11.dtd">
<svg version="1.1" xmlns="http://www.w3.org/2000/svg" xmlns:xlink="http://www.w3.org/1999/xlink" width="23.8647" height="25.2075">
 <g>
  <rect height="25.2075" opacity="0" width="23.8647" x="0" y="0"/>
  <path d="M11.9263 12.4634C17.4316 12.4634 21.6797 13.8184 23.8647 16.1743L23.8647 6.604C23.8647 2.62451 19.1528 0 11.9263 0C4.71191 0 0 2.62451 0 6.604L0 16.1743C2.18506 13.8184 6.4209 12.4634 11.9263 12.4634ZM11.9263 25.1953C18.7622 25.1953 23.8159 23.0225 23.8159 19.6655C23.8159 16.3086 18.7622 14.1357 11.9263 14.1357C5.10254 14.1357 0.0488281 16.3086 0.0488281 19.6655C0.0488281 23.0225 5.10254 25.1953 11.9263 25.1953ZM11.9263 19.2749C9.24072 19.2749 7.01904 17.8955 6.86035 16.1865C8.3252 15.8691 10.0464 15.686 11.9263 15.686C13.8184 15.686 15.5273 15.8691 17.0044 16.1865C16.8457 17.8955 14.6118 19.2749 11.9263 19.2749Z" fill="#5ac8f5"/>
 </g>
</svg>
