<?xml version="1.0" encoding="UTF-8"?>
<!--Generator: Apple Native CoreSVG 175.5-->
<!DOCTYPE svg
PUBLIC "-//W3C//DTD SVG 1.1//EN"
       "http://www.w3.org/Graphics/SVG/1.1/DTD/svg11.dtd">
<svg version="1.1" xmlns="http://www.w3.org/2000/svg" xmlns:xlink="http://www.w3.org/1999/xlink" width="24.2798" height="21.4478">
 <g>
  <rect height="21.4478" opacity="0" width="24.2798" x="0" y="0"/>
  <path d="M3.60107 7.17773L5.65186 7.17773L5.65186 3.05176C5.65186 2.44141 6.05469 2.05078 6.64062 2.05078L17.627 2.05078C18.2251 2.05078 18.6157 2.44141 18.6157 3.05176L18.6157 7.17773L20.6665 7.17773L20.6665 3.03955C20.6665 1.2085 19.4824 0 17.7368 0L6.54297 0C4.78516 0 3.60107 1.2085 3.60107 3.03955ZM0 16.0156C0 17.7734 1.15967 18.9331 2.89307 18.9331L21.3867 18.9331C23.1079 18.9331 24.2798 17.7734 24.2798 16.0156L24.2798 8.59375C24.2798 6.84814 23.1079 5.67627 21.3867 5.67627L19.9585 5.67627C18.2251 5.67627 17.0654 6.84814 17.0654 8.59375L17.0654 11.7798L7.21436 11.7798L7.21436 8.59375C7.21436 6.84814 6.04248 5.67627 4.32129 5.67627L2.89307 5.67627C1.15967 5.67627 0 6.84814 0 8.59375ZM2.0752 15.9912L2.0752 8.61816C2.0752 8.08105 2.44141 7.72705 2.99072 7.72705L4.22363 7.72705C4.77295 7.72705 5.13916 8.08105 5.13916 8.61816L5.13916 13.8306L19.1406 13.8306L19.1406 8.61816C19.1406 8.08105 19.5068 7.72705 20.0562 7.72705L21.2891 7.72705C21.8384 7.72705 22.2046 8.08105 22.2046 8.61816L22.2046 15.9912C22.2046 16.5283 21.8384 16.8823 21.2891 16.8823L2.99072 16.8823C2.44141 16.8823 2.0752 16.5283 2.0752 15.9912ZM4.44336 21.4233L5.2002 21.4233C5.85938 21.4233 6.28662 21.0083 6.28662 20.3491L6.28662 17.7612L3.35693 17.7612L3.35693 20.3491C3.35693 21.0083 3.78418 21.4233 4.44336 21.4233ZM19.0796 21.4233L19.8242 21.4233C20.4834 21.4233 20.9106 21.0083 20.9106 20.3491L20.9106 17.7612L17.9932 17.7612L17.9932 20.3491C17.9932 21.0083 18.4204 21.4233 19.0796 21.4233Z" fill="#5ac8f5"/>
 </g>
</svg>
