<?xml version="1.0" encoding="UTF-8"?>
<!--Generator: Apple Native CoreSVG 175.5-->
<!DOCTYPE svg
PUBLIC "-//W3C//DTD SVG 1.1//EN"
       "http://www.w3.org/Graphics/SVG/1.1/DTD/svg11.dtd">
<svg version="1.1" xmlns="http://www.w3.org/2000/svg" xmlns:xlink="http://www.w3.org/1999/xlink" width="19.9219" height="19.4214">
 <g>
  <rect height="19.4214" opacity="0" width="19.9219" x="0" y="0"/>
  <path d="M1.47705 19.4214C1.96533 19.4214 2.35596 19.2139 2.86865 18.9575L18.5547 11.3525C19.5923 10.8398 19.9219 10.3638 19.9219 9.7168C19.9219 9.06982 19.5923 8.60596 18.5547 8.09326L2.86865 0.476074C2.34375 0.219727 1.95312 0.012207 1.46484 0.012207C0.561523 0.012207 0 0.695801 0 1.75781L0.012207 17.6758C0.012207 18.7378 0.57373 19.4214 1.47705 19.4214ZM2.0874 17.1021C2.01416 17.1021 1.96533 17.0532 1.96533 16.9556L1.96533 2.47803C1.96533 2.38037 2.01416 2.33154 2.0874 2.33154C2.13623 2.33154 2.18506 2.35596 2.23389 2.39258L17.1875 9.58252C17.2485 9.60693 17.2974 9.65576 17.2974 9.7168C17.2974 9.77783 17.2485 9.82666 17.1875 9.85107L2.23389 17.0532C2.18506 17.0776 2.13623 17.1021 2.0874 17.1021Z" fill="#5ac8f5"/>
 </g>
</svg>
