<?xml version="1.0" encoding="UTF-8"?>
<!--Generator: Apple Native CoreSVG 175.5-->
<!DOCTYPE svg
PUBLIC "-//W3C//DTD SVG 1.1//EN"
       "http://www.w3.org/Graphics/SVG/1.1/DTD/svg11.dtd">
<svg version="1.1" xmlns="http://www.w3.org/2000/svg" xmlns:xlink="http://www.w3.org/1999/xlink" width="22.4731" height="22.4976">
 <g>
  <rect height="22.4976" opacity="0" width="22.4731" x="0" y="0"/>
  <path d="M3.83301 22.4976L18.6401 22.4976C21.2036 22.4976 22.4731 21.228 22.4731 18.7134L22.4731 3.80859C22.4731 1.29395 21.2036 0.0244141 18.6401 0.0244141L3.83301 0.0244141C1.28174 0.0244141 0 1.28174 0 3.80859L0 18.7134C0 21.2402 1.28174 22.4976 3.83301 22.4976Z" fill="#5ac8f5" fill-opacity="0.25"/>
  <path d="M11.2427 13.5132C10.6079 13.5132 10.2661 13.1592 10.2539 12.5122L10.083 5.85938C10.0708 5.2124 10.5469 4.74854 11.2305 4.74854C11.9019 4.74854 12.4023 5.22461 12.3901 5.87158L12.2192 12.5122C12.207 13.1714 11.853 13.5132 11.2427 13.5132ZM11.2427 17.6025C10.5103 17.6025 9.87549 17.0166 9.87549 16.2964C9.87549 15.5762 10.498 14.978 11.2427 14.978C11.9873 14.978 12.6099 15.564 12.6099 16.2964C12.6099 17.0288 11.9751 17.6025 11.2427 17.6025Z" fill="#5ac8f5"/>
 </g>
</svg>
