<?xml version="1.0" encoding="UTF-8"?>
<!--Generator: Apple Native CoreSVG 175.5-->
<!DOCTYPE svg
PUBLIC "-//W3C//DTD SVG 1.1//EN"
       "http://www.w3.org/Graphics/SVG/1.1/DTD/svg11.dtd">
<svg version="1.1" xmlns="http://www.w3.org/2000/svg" xmlns:xlink="http://www.w3.org/1999/xlink" width="22.4731" height="22.4976">
 <g>
  <rect height="22.4976" opacity="0" width="22.4731" x="0" y="0"/>
  <path d="M7.25098 17.0044C6.88477 17.0044 6.53076 16.8945 6.26221 16.6382C4.87061 15.3198 3.91846 13.3301 3.91846 11.2549C3.91846 9.16748 4.88281 7.16553 6.28662 5.84717C6.54297 5.61523 6.88477 5.51758 7.25098 5.51758L15.2222 5.51758C15.5884 5.51758 15.9424 5.62744 16.2109 5.88379C17.6025 7.18994 18.5547 9.17969 18.5547 11.2549C18.5547 13.3301 17.6025 15.3198 16.2109 16.6382C15.9424 16.8945 15.5884 17.0044 15.2222 17.0044ZM8.1665 14.1968C8.56934 14.1968 8.88672 13.8794 8.88672 13.4766L8.88672 9.021C8.88672 8.61816 8.56934 8.31299 8.1665 8.31299C7.77588 8.31299 7.4585 8.61816 7.4585 9.021L7.4585 13.4766C7.4585 13.8794 7.77588 14.1968 8.1665 14.1968ZM14.3066 14.1968C14.7095 14.1968 15.0146 13.8794 15.0146 13.4766L15.0146 9.021C15.0146 8.61816 14.7095 8.31299 14.3066 8.31299C13.9038 8.31299 13.5986 8.61816 13.5986 9.021L13.5986 13.4766C13.5986 13.8794 13.9038 14.1968 14.3066 14.1968ZM3.83301 22.4976L18.6401 22.4976C21.2036 22.4976 22.4731 21.228 22.4731 18.7134L22.4731 3.80859C22.4731 1.29395 21.2036 0.0244141 18.6401 0.0244141L3.83301 0.0244141C1.28174 0.0244141 0 1.28174 0 3.80859L0 18.7134C0 21.2402 1.28174 22.4976 3.83301 22.4976Z" fill="#5ac8f5"/>
 </g>
</svg>
