<?xml version="1.0" encoding="UTF-8"?>
<!--Generator: Apple Native CoreSVG 175.5-->
<!DOCTYPE svg
PUBLIC "-//W3C//DTD SVG 1.1//EN"
       "http://www.w3.org/Graphics/SVG/1.1/DTD/svg11.dtd">
<svg version="1.1" xmlns="http://www.w3.org/2000/svg" xmlns:xlink="http://www.w3.org/1999/xlink" width="26.7822" height="18.0542">
 <g>
  <rect height="18.0542" opacity="0" width="26.7822" x="0" y="0"/>
  <path d="M1.11084 18.0054C1.80664 18.0054 2.2583 17.5659 2.2583 16.8701L2.2583 10.1929L9.42383 10.1929C10.0098 10.1929 10.4492 9.81445 10.4492 9.21631C10.4492 8.60596 10.0098 8.22754 9.42383 8.22754L2.2583 8.22754L2.2583 2.27051L10.1196 2.27051C10.73 2.27051 11.1694 1.89209 11.1694 1.26953C11.1694 0.646973 10.73 0.256348 10.1196 0.256348L1.09863 0.256348C0.427246 0.256348 0 0.695801 0 1.37939L0 16.8701C0 17.5659 0.427246 18.0054 1.11084 18.0054ZM13.7817 18.0542C14.1968 18.0542 14.4287 17.9199 14.7339 17.4805L19.6167 10.8154L19.6899 10.8154L24.5239 17.4927C24.8169 17.9077 25.0854 18.0542 25.5249 18.0542C26.1719 18.0542 26.6357 17.6025 26.6357 16.98C26.6357 16.7114 26.5503 16.4185 26.3672 16.1987L21.0815 9.05762L26.5137 1.78223C26.6846 1.55029 26.7822 1.29395 26.7822 1.0376C26.7822 0.463867 26.3062 0 25.7324 0C25.2808 0 25.0244 0.146484 24.7192 0.585938L19.8486 7.33643L19.7754 7.33643L14.9292 0.585938C14.6118 0.134277 14.3799 0 13.9038 0C13.2568 0 12.7808 0.439453 12.7808 1.0498C12.7808 1.31836 12.8784 1.58691 13.0493 1.83105L18.2983 8.98438L12.9639 16.2598C12.7808 16.5039 12.6831 16.7603 12.6831 17.0166C12.6831 17.6025 13.1714 18.0542 13.7817 18.0542Z" fill="#5ac8f5"/>
 </g>
</svg>
