<?xml version="1.0" encoding="UTF-8"?>
<!--Generator: Apple Native CoreSVG 175.5-->
<!DOCTYPE svg
PUBLIC "-//W3C//DTD SVG 1.1//EN"
       "http://www.w3.org/Graphics/SVG/1.1/DTD/svg11.dtd">
<svg version="1.1" xmlns="http://www.w3.org/2000/svg" xmlns:xlink="http://www.w3.org/1999/xlink" width="14.0991" height="21.228">
 <g>
  <rect height="21.228" opacity="0" width="14.0991" x="0" y="0"/>
  <path d="M14.0991 20.0928C14.0991 19.7876 13.9893 19.519 13.7695 19.2993L4.11377 9.85107L4.11377 11.3525L13.7695 1.9165C13.9893 1.70898 14.0991 1.42822 14.0991 1.12305C14.0991 0.476074 13.6108 0 12.9883 0C12.6587 0 12.4146 0.12207 12.1826 0.32959L2.50244 9.79004C2.28271 10.0098 2.14844 10.2905 2.14844 10.6079C2.14844 10.9253 2.28271 11.1938 2.51465 11.4258L12.1826 20.874C12.4023 21.106 12.6587 21.2158 12.9761 21.2158C13.6108 21.2158 14.0991 20.7275 14.0991 20.0928ZM2.18506 20.1538L2.18506 1.08643C2.18506 0.45166 1.7334 0 1.08643 0C0.45166 0 0 0.45166 0 1.08643L0 20.1538C0 20.7764 0.45166 21.2158 1.08643 21.2158C1.7334 21.2158 2.18506 20.7764 2.18506 20.1538Z" fill="#5ac8f5"/>
 </g>
</svg>
