<?xml version="1.0" encoding="UTF-8"?>
<!--Generator: Apple Native CoreSVG 175.5-->
<!DOCTYPE svg
PUBLIC "-//W3C//DTD SVG 1.1//EN"
       "http://www.w3.org/Graphics/SVG/1.1/DTD/svg11.dtd">
<svg version="1.1" xmlns="http://www.w3.org/2000/svg" xmlns:xlink="http://www.w3.org/1999/xlink" width="25.0977" height="19.2017">
 <g>
  <rect height="19.2017" opacity="0" width="25.0977" x="0" y="0"/>
  <path d="M12.5366 19.1895C19.6289 19.1895 25.0977 16.0156 25.0977 12.1216L25.0977 5.71289L23.1323 7.42188L23.1323 12.1216C23.1323 14.9414 19.0674 17.2241 12.5366 17.2241C6.01807 17.2241 1.95312 14.9414 1.95312 12.1216L1.95312 7.42188L0 5.71289L0 12.1216C0 16.0156 5.45654 19.1895 12.5366 19.1895ZM12.5366 11.377C19.5801 11.377 25.0977 8.83789 25.0977 5.60303C25.0977 2.47803 19.5801 0 12.5366 0C5.50537 0 0 2.47803 0 5.60303C0 8.83789 5.50537 11.377 12.5366 11.377ZM12.5366 9.41162C6.57959 9.41162 1.95312 7.73926 1.95312 5.60303C1.95312 3.55225 6.57959 1.96533 12.5366 1.96533C18.5059 1.96533 23.1323 3.55225 23.1323 5.60303C23.1323 7.73926 18.5059 9.41162 12.5366 9.41162Z" fill="#5ac8f5"/>
 </g>
</svg>
