<?xml version="1.0" encoding="UTF-8"?>
<!--Generator: Apple Native CoreSVG 175.5-->
<!DOCTYPE svg
PUBLIC "-//W3C//DTD SVG 1.1//EN"
       "http://www.w3.org/Graphics/SVG/1.1/DTD/svg11.dtd">
<svg version="1.1" xmlns="http://www.w3.org/2000/svg" xmlns:xlink="http://www.w3.org/1999/xlink" width="26.0986" height="21.3013">
 <g>
  <rect height="21.3013" opacity="0" width="26.0986" x="0" y="0"/>
  <path d="M9.92432 5.10254C10.4736 5.10254 10.9497 4.63867 10.9497 4.06494C10.9497 3.51562 10.4736 3.03955 9.92432 3.03955C9.35059 3.03955 8.88672 3.51562 8.88672 4.06494C8.88672 4.63867 9.35059 5.10254 9.92432 5.10254ZM13.0249 5.10254C13.5986 5.10254 14.0625 4.63867 14.0625 4.06494C14.0625 3.51562 13.5986 3.03955 13.0249 3.03955C12.4756 3.03955 11.9995 3.51562 11.9995 4.06494C11.9995 4.63867 12.4756 5.10254 13.0249 5.10254ZM16.1621 5.10254C16.7236 5.10254 17.1997 4.63867 17.1997 4.06494C17.1997 3.51562 16.7236 3.03955 16.1621 3.03955C15.6006 3.03955 15.1367 3.51562 15.1367 4.06494C15.1367 4.63867 15.6006 5.10254 16.1621 5.10254ZM19.0186 10.5469C19.5923 10.5469 20.0562 10.0708 20.0562 9.50928C20.0562 8.94775 19.5923 8.48389 19.0186 8.48389C18.4692 8.48389 18.0054 8.94775 18.0054 9.50928C18.0054 10.0708 18.4692 10.5469 19.0186 10.5469ZM16.748 13.0493C17.3218 13.0493 17.7856 12.5854 17.7856 12.0117C17.7856 11.4624 17.3218 10.9863 16.748 10.9863C16.1987 10.9863 15.7227 11.4624 15.7227 12.0117C15.7227 12.5854 16.1987 13.0493 16.748 13.0493ZM9.32617 13.0493C9.8877 13.0493 10.3516 12.5854 10.3516 12.0117C10.3516 11.4624 9.8877 10.9863 9.32617 10.9863C8.76465 10.9863 8.28857 11.4624 8.28857 12.0117C8.28857 12.5854 8.76465 13.0493 9.32617 13.0493ZM7.05566 10.5469C7.61719 10.5469 8.08105 10.0708 8.08105 9.50928C8.08105 8.94775 7.61719 8.48389 7.05566 8.48389C6.48193 8.48389 6.01807 8.94775 6.01807 9.50928C6.01807 10.0708 6.48193 10.5469 7.05566 10.5469ZM3.93066 7.89795C6.10352 7.89795 7.86133 6.14014 7.86133 3.95508C7.86133 1.79443 6.10352 0.0244141 3.93066 0.0244141C1.75781 0.0244141 0 1.79443 0 3.95508C0 6.14014 1.75781 7.89795 3.93066 7.89795ZM3.93066 5.98145C2.80762 5.98145 1.9165 5.09033 1.9165 3.95508C1.9165 2.81982 2.80762 1.94092 3.93066 1.94092C5.06592 1.94092 5.94482 2.81982 5.94482 3.95508C5.94482 5.09033 5.07812 5.98145 3.93066 5.98145ZM22.1558 7.89795C24.3408 7.89795 26.0986 6.14014 26.0986 3.95508C26.0986 1.79443 24.3408 0.0244141 22.1558 0.0244141C19.9951 0.0244141 18.2251 1.79443 18.2251 3.95508C18.2251 6.14014 19.9951 7.89795 22.1558 7.89795ZM22.1558 5.98145C21.0327 5.98145 20.1416 5.09033 20.1416 3.95508C20.1416 2.81982 21.0449 1.94092 22.1558 1.94092C23.3032 1.94092 24.1821 2.81982 24.1821 3.95508C24.1821 5.09033 23.3032 5.98145 22.1558 5.98145ZM13.0493 21.3013C15.2222 21.3013 16.98 19.5312 16.98 17.3584C16.98 15.1855 15.2222 13.4277 13.0493 13.4277C10.8765 13.4277 9.11865 15.1855 9.11865 17.3584C9.11865 19.5312 10.8765 21.3013 13.0493 21.3013ZM13.0493 19.3848C11.9263 19.3848 11.0352 18.4937 11.0352 17.3584C11.0352 16.2231 11.9263 15.3442 13.0493 15.3442C14.1846 15.3442 15.0635 16.2231 15.0635 17.3584C15.0635 18.4937 14.1846 19.3848 13.0493 19.3848Z" fill="#5ac8f5"/>
 </g>
</svg>
