<?xml version="1.0" encoding="UTF-8"?>
<!--Generator: Apple Native CoreSVG 175.5-->
<!DOCTYPE svg
PUBLIC "-//W3C//DTD SVG 1.1//EN"
       "http://www.w3.org/Graphics/SVG/1.1/DTD/svg11.dtd">
<svg version="1.1" xmlns="http://www.w3.org/2000/svg" xmlns:xlink="http://www.w3.org/1999/xlink" width="24.9023" height="24.9146">
 <g>
  <rect height="24.9146" opacity="0" width="24.9023" x="0" y="0"/>
  <path d="M12.4512 24.9023C19.2627 24.9023 24.9023 19.2505 24.9023 12.4512C24.9023 5.63965 19.2505 0 12.439 0C5.63965 0 0 5.63965 0 12.4512C0 19.2505 5.65186 24.9023 12.4512 24.9023ZM12.4512 22.8271C6.68945 22.8271 2.0874 18.2129 2.0874 12.4512C2.0874 6.68945 6.67725 2.0752 12.439 2.0752C18.2007 2.0752 22.8271 6.68945 22.8271 12.4512C22.8271 18.2129 18.2129 22.8271 12.4512 22.8271Z" fill="#5ac8f5" fill-opacity="0.5"/>
  <path d="M12.2681 12.5366L14.27 10.5591C15.4663 9.38721 15.4785 7.83691 14.3311 6.72607C13.1836 5.57861 11.6577 5.60303 10.4858 6.78711L8.5083 8.76465ZM11.5723 13.2446L7.80029 9.47266L5.81055 11.4746C4.63867 12.6709 4.60205 14.1968 5.7251 15.332C6.87256 16.4551 8.39844 16.4185 9.57031 15.2466ZM19.5557 14.856C19.3359 13.2568 17.9443 12.0117 16.2476 12.0117C14.5752 12.0117 13.1836 13.2568 12.9517 14.856ZM19.5557 15.8447L12.9517 15.8447C13.1836 17.4316 14.5752 18.6768 16.2476 18.6768C17.9565 18.6768 19.3359 17.4316 19.5557 15.8447Z" fill="#5ac8f5"/>
 </g>
</svg>
