<?xml version="1.0" encoding="UTF-8"?>
<!--Generator: Apple Native CoreSVG 175.5-->
<!DOCTYPE svg
PUBLIC "-//W3C//DTD SVG 1.1//EN"
       "http://www.w3.org/Graphics/SVG/1.1/DTD/svg11.dtd">
<svg version="1.1" xmlns="http://www.w3.org/2000/svg" xmlns:xlink="http://www.w3.org/1999/xlink" width="22.4731" height="22.4976">
 <g>
  <rect height="22.4976" opacity="0" width="22.4731" x="0" y="0"/>
  <path d="M3.83301 22.4976L18.6401 22.4976C21.2036 22.4976 22.4731 21.228 22.4731 18.7134L22.4731 3.80859C22.4731 1.29395 21.2036 0.0244141 18.6401 0.0244141L3.83301 0.0244141C1.28174 0.0244141 0 1.28174 0 3.80859L0 18.7134C0 21.2402 1.28174 22.4976 3.83301 22.4976Z" fill="#5ac8f5" fill-opacity="0.25"/>
  <path d="M6.75049 8.54492C6.75049 8.11768 7.03125 7.82471 7.48291 7.82471L15.0024 7.82471C15.4541 7.82471 15.7349 8.11768 15.7349 8.54492C15.7349 8.99658 15.4541 9.28955 15.0024 9.28955L12.0605 9.28955L12.0605 16.7603C12.0605 17.2729 11.731 17.5903 11.2549 17.5903C10.7788 17.5903 10.4248 17.2729 10.4248 16.7603L10.4248 9.28955L7.48291 9.28955C7.03125 9.28955 6.75049 8.99658 6.75049 8.54492ZM6.72607 6.12793C6.72607 5.76172 6.98242 5.51758 7.32422 5.51758L15.1489 5.51758C15.5029 5.51758 15.7471 5.76172 15.7471 6.12793C15.7471 6.48193 15.5029 6.7627 15.1489 6.7627L7.32422 6.7627C6.98242 6.7627 6.72607 6.48193 6.72607 6.12793Z" fill="#5ac8f5"/>
 </g>
</svg>
