<?xml version="1.0" encoding="UTF-8"?>
<!--Generator: Apple Native CoreSVG 175.5-->
<!DOCTYPE svg
PUBLIC "-//W3C//DTD SVG 1.1//EN"
       "http://www.w3.org/Graphics/SVG/1.1/DTD/svg11.dtd">
<svg version="1.1" xmlns="http://www.w3.org/2000/svg" xmlns:xlink="http://www.w3.org/1999/xlink" width="24.9023" height="24.9146">
 <g>
  <rect height="24.9146" opacity="0" width="24.9023" x="0" y="0"/>
  <path d="M12.4512 24.9023C19.2627 24.9023 24.9023 19.2505 24.9023 12.4512C24.9023 5.63965 19.2505 0 12.439 0C5.63965 0 0 5.63965 0 12.4512C0 19.2505 5.65186 24.9023 12.4512 24.9023ZM12.4512 22.8271C6.68945 22.8271 2.0874 18.2129 2.0874 12.4512C2.0874 6.68945 6.67725 2.0752 12.439 2.0752C18.2007 2.0752 22.8271 6.68945 22.8271 12.4512C22.8271 18.2129 18.2129 22.8271 12.4512 22.8271Z" fill="#5ac8f5" fill-opacity="0.5"/>
  <path d="M17.4683 17.8589C17.688 18.0786 18.0298 18.0908 18.2373 17.8589C18.457 17.6514 18.457 17.2974 18.2373 17.0776L7.67822 6.50635C7.44629 6.28662 7.10449 6.28662 6.89697 6.50635C6.66504 6.72607 6.66504 7.08008 6.89697 7.2876ZM13.9648 15.6982C13.5376 15.918 13.0249 16.04 12.439 16.04C10.4248 16.04 9.021 14.6362 9.021 12.6343L9.021 11.0596C9.021 10.7178 8.72803 10.4248 8.37402 10.4248C8.02002 10.4248 7.72705 10.7178 7.72705 11.0596L7.72705 12.6343C7.72705 15.1123 9.36279 16.9678 11.792 17.2363L11.792 18.4692L9.33838 18.4692C8.98438 18.4692 8.6792 18.7744 8.6792 19.1284C8.6792 19.4824 8.98438 19.7876 9.33838 19.7876L15.5518 19.7876C15.8936 19.7876 16.2109 19.4702 16.2109 19.1284C16.2109 18.7744 15.9058 18.4692 15.5518 18.4692L13.1104 18.4692L13.1104 17.2363C13.7817 17.1631 14.3921 16.9556 14.917 16.6504ZM10.4126 12.146L10.4126 12.6343C10.4126 13.8794 11.2427 14.8071 12.439 14.8071C12.6465 14.8071 12.8174 14.7583 12.9761 14.6973ZM14.4653 11.9751L14.4653 7.39746C14.4653 6.16455 13.6353 5.24902 12.439 5.24902C11.2427 5.24902 10.4126 6.16455 10.4126 7.39746L10.4126 7.91016ZM16.8579 14.3677C17.0532 13.8306 17.1631 13.2568 17.1631 12.6343L17.1631 11.0596C17.1631 10.7178 16.8579 10.4248 16.5161 10.4248C16.1621 10.4248 15.8691 10.7178 15.8691 11.0596L15.8691 12.6343C15.8691 12.8662 15.8325 13.0859 15.7837 13.2935Z" fill="#5ac8f5"/>
 </g>
</svg>
