<?xml version="1.0" encoding="UTF-8"?>
<!--Generator: Apple Native CoreSVG 175.5-->
<!DOCTYPE svg
PUBLIC "-//W3C//DTD SVG 1.1//EN"
       "http://www.w3.org/Graphics/SVG/1.1/DTD/svg11.dtd">
<svg version="1.1" xmlns="http://www.w3.org/2000/svg" xmlns:xlink="http://www.w3.org/1999/xlink" width="25.5249" height="23.2056">
 <g>
  <rect height="23.2056" opacity="0" width="25.5249" x="0" y="0"/>
  <path d="M0 19.7632C0 21.6431 1.29395 23.1323 3.36914 23.1323L22.1558 23.1323C24.231 23.1323 25.5249 21.6431 25.5249 19.7632C25.5249 19.2017 25.3784 18.6401 25.0732 18.1152L15.6616 1.70898C15.0269 0.598145 13.9038 0 12.7563 0C11.6211 0 10.498 0.598145 9.86328 1.70898L0.45166 18.103C0.158691 18.6279 0 19.2017 0 19.7632ZM1.97754 19.7632C1.97754 19.5435 2.02637 19.2871 2.16064 19.043L11.5479 2.63672C11.8164 2.16064 12.2803 1.95312 12.7563 1.95312L12.7563 21.2158L3.39355 21.2158C2.55127 21.2158 1.97754 20.52 1.97754 19.7632Z" fill="#5ac8f5"/>
 </g>
</svg>
