<?xml version="1.0" encoding="UTF-8"?>
<!--Generator: Apple Native CoreSVG 175.5-->
<!DOCTYPE svg
PUBLIC "-//W3C//DTD SVG 1.1//EN"
       "http://www.w3.org/Graphics/SVG/1.1/DTD/svg11.dtd">
<svg version="1.1" xmlns="http://www.w3.org/2000/svg" xmlns:xlink="http://www.w3.org/1999/xlink" width="22.4731" height="22.4976">
 <g>
  <rect height="22.4976" opacity="0" width="22.4731" x="0" y="0"/>
  <path d="M3.83301 22.4976L18.6401 22.4976C21.2036 22.4976 22.4731 21.228 22.4731 18.7134L22.4731 3.80859C22.4731 1.29395 21.2036 0.0244141 18.6401 0.0244141L3.83301 0.0244141C1.28174 0.0244141 0 1.28174 0 3.80859L0 18.7134C0 21.2402 1.28174 22.4976 3.83301 22.4976ZM6.98242 16.6748C4.82178 16.6748 3.38135 14.5996 3.38135 11.2427C3.38135 7.88574 4.82178 5.81055 6.98242 5.81055C9.15527 5.81055 10.5835 7.88574 10.5835 11.2427C10.5835 14.5996 9.15527 16.6748 6.98242 16.6748ZM6.98242 15.1367C8.20312 15.1367 8.92334 13.6597 8.92334 11.2427C8.92334 8.82568 8.19092 7.34863 6.98242 7.34863C5.79834 7.34863 5.0415 8.82568 5.0415 11.2427C5.0415 13.6597 5.79834 15.1367 6.98242 15.1367ZM15.5151 16.6748C13.9404 16.6748 12.6953 15.8447 12.3169 14.7949C12.2437 14.624 12.207 14.4287 12.207 14.2212C12.207 13.8062 12.5 13.4888 12.915 13.4888C13.208 13.4888 13.4644 13.6719 13.6475 14.0381C14.0137 14.7949 14.7461 15.2466 15.6006 15.2466C16.8091 15.2466 17.6392 14.4531 17.6392 13.1348C17.6392 11.9751 16.8945 11.0962 15.7837 11.0962C15.2344 11.0962 14.8315 11.2793 14.3188 11.731C13.916 12.0605 13.6841 12.1704 13.2935 12.1704C12.7075 12.1704 12.3535 11.731 12.4023 11.0718L12.7075 7.15332C12.7441 6.48193 13.1958 6.0791 13.8672 6.0791L18.1763 6.0791C18.5547 6.0791 18.811 6.38428 18.811 6.78711C18.811 7.20215 18.5425 7.49512 18.1763 7.49512L14.0259 7.49512L13.7817 10.73L13.8428 10.73C14.209 10.1562 15.1245 9.74121 15.9546 9.74121C17.9077 9.74121 19.2139 11.1572 19.2139 13.0981C19.2139 15.3076 17.7368 16.6748 15.5151 16.6748Z" fill="#5ac8f5"/>
 </g>
</svg>
