<?xml version="1.0" encoding="UTF-8"?>
<!--Generator: Apple Native CoreSVG 175.5-->
<!DOCTYPE svg
PUBLIC "-//W3C//DTD SVG 1.1//EN"
       "http://www.w3.org/Graphics/SVG/1.1/DTD/svg11.dtd">
<svg version="1.1" xmlns="http://www.w3.org/2000/svg" xmlns:xlink="http://www.w3.org/1999/xlink" width="22.4731" height="22.4976">
 <g>
  <rect height="22.4976" opacity="0" width="22.4731" x="0" y="0"/>
  <path d="M3.83301 22.4976L18.6401 22.4976C21.2036 22.4976 22.4731 21.228 22.4731 18.7134L22.4731 3.80859C22.4731 1.29395 21.2036 0.0244141 18.6401 0.0244141L3.83301 0.0244141C1.28174 0.0244141 0 1.28174 0 3.80859L0 18.7134C0 21.2402 1.28174 22.4976 3.83301 22.4976ZM3.85742 20.5322C2.63672 20.5322 1.96533 19.8853 1.96533 18.6157L1.96533 3.90625C1.96533 2.63672 2.63672 1.98975 3.85742 1.98975L18.6157 1.98975C19.8242 1.98975 20.5078 2.63672 20.5078 3.90625L20.5078 18.6157C20.5078 19.8853 19.8242 20.5322 18.6157 20.5322ZM8.43506 16.687L14.209 16.687C14.6851 16.687 15.0146 16.3818 15.0146 15.8936C15.0146 15.3931 14.6851 15.0879 14.209 15.0879L9.42383 15.0879L9.42383 11.8042L13.8916 11.8042C14.3677 11.8042 14.6973 11.5356 14.6973 11.0596C14.6973 10.5591 14.3677 10.2783 13.8916 10.2783L9.42383 10.2783L9.42383 7.16553L14.209 7.16553C14.6851 7.16553 15.0146 6.84814 15.0146 6.35986C15.0146 5.85938 14.6851 5.56641 14.209 5.56641L8.43506 5.56641C7.80029 5.56641 7.48291 6.00586 7.48291 6.66504L7.48291 15.5884C7.48291 16.2476 7.80029 16.687 8.43506 16.687Z" fill="#5ac8f5"/>
 </g>
</svg>
