<?xml version="1.0" encoding="UTF-8"?>
<!--Generator: Apple Native CoreSVG 175.5-->
<!DOCTYPE svg
PUBLIC "-//W3C//DTD SVG 1.1//EN"
       "http://www.w3.org/Graphics/SVG/1.1/DTD/svg11.dtd">
<svg version="1.1" xmlns="http://www.w3.org/2000/svg" xmlns:xlink="http://www.w3.org/1999/xlink" width="29.9683" height="19.8364">
 <g>
  <rect height="19.8364" opacity="0" width="29.9683" x="0" y="0"/>
  <path d="M3.91846 19.8242L17.0288 19.8242C19.4824 19.8242 20.9473 18.4082 20.9473 15.9546L20.9473 3.85742C20.9473 1.41602 19.6045 0 17.1509 0L3.91846 0C1.57471 0 0 1.41602 0 3.85742L0 15.9546C0 18.4082 1.46484 19.8242 3.91846 19.8242ZM22.6074 13.5132L27.0508 17.3584C27.4658 17.7246 27.9541 17.9565 28.3936 17.9565C29.3457 17.9565 29.9683 17.2607 29.9683 16.2598L29.9683 3.56445C29.9683 2.56348 29.3457 1.86768 28.3936 1.86768C27.9541 1.86768 27.4658 2.09961 27.0508 2.46582L22.6074 6.29883ZM10.144 12.3291C9.5459 12.3291 9.22852 12.0239 9.22852 11.4136C9.22852 11.377 9.22852 11.3159 9.22852 11.2671C9.22852 10.1562 9.83887 9.55811 10.6567 8.97217C11.6455 8.28857 12.1338 7.91016 12.1338 7.12891C12.1338 6.26221 11.4624 5.68848 10.4248 5.68848C9.66797 5.68848 9.11865 6.05469 8.74023 6.66504C8.37402 7.10449 8.26416 7.4585 7.61719 7.4585C7.23877 7.4585 6.82373 7.17773 6.82373 6.66504C6.82373 6.46973 6.86035 6.27441 6.92139 6.09131C7.26318 5.0415 8.52051 4.12598 10.4858 4.12598C12.439 4.12598 14.1357 5.13916 14.1357 7.04346C14.1357 8.41064 13.3423 9.08203 12.2437 9.81445C11.438 10.3394 11.0718 10.73 11.0718 11.377C11.0718 11.4258 11.0718 11.4746 11.0718 11.5112C11.0718 11.9751 10.7178 12.3291 10.144 12.3291ZM10.1074 15.7349C9.44824 15.7349 8.88672 15.1978 8.88672 14.5508C8.88672 13.8916 9.43604 13.3545 10.1074 13.3545C10.7788 13.3545 11.3403 13.8916 11.3403 14.5508C11.3403 15.21 10.7666 15.7349 10.1074 15.7349Z" fill="#5ac8f5"/>
 </g>
</svg>
