<?xml version="1.0" encoding="UTF-8"?>
<!--Generator: Apple Native CoreSVG 175.5-->
<!DOCTYPE svg
PUBLIC "-//W3C//DTD SVG 1.1//EN"
       "http://www.w3.org/Graphics/SVG/1.1/DTD/svg11.dtd">
<svg version="1.1" xmlns="http://www.w3.org/2000/svg" xmlns:xlink="http://www.w3.org/1999/xlink" width="37.3169" height="18.7622">
 <g>
  <rect height="18.7622" opacity="0" width="37.3169" x="0" y="0"/>
  <path d="M18.6646 18.7256C25.9033 18.7256 31.0547 15.9058 31.0547 11.7676L31.0547 5.66406C31.0547 2.00195 26.6724 0 18.6646 0C10.6445 0 6.26221 2.00195 6.26221 5.66406L6.26221 11.7676C6.26221 15.9058 11.4136 18.7256 18.6646 18.7256ZM18.6646 16.7603C12.6221 16.7603 8.23975 14.624 8.23975 11.7676L8.23975 5.66406C8.23975 3.28369 11.9385 1.96533 18.6646 1.96533C25.3784 1.96533 29.0894 3.28369 29.0894 5.66406L29.0894 11.7676C29.0894 14.624 24.6948 16.7603 18.6646 16.7603ZM12.2559 6.81152C12.2559 7.34863 12.6953 7.80029 13.2324 7.80029L24.1089 7.80029C24.646 7.80029 25.0854 7.34863 25.0854 6.81152C25.0854 6.28662 24.646 5.83496 24.1089 5.83496L13.2324 5.83496C12.6953 5.83496 12.2559 6.28662 12.2559 6.81152ZM12.2559 11.377C12.2559 11.9141 12.6953 12.3535 13.2324 12.3535L24.1089 12.3535C24.646 12.3535 25.0854 11.9141 25.0854 11.377C25.0854 10.8398 24.646 10.3882 24.1089 10.3882L13.2324 10.3882C12.6953 10.3882 12.2559 10.8398 12.2559 11.377ZM0 8.02002C0 11.9507 2.85645 14.6973 7.14111 14.6973L7.93457 14.6973L7.93457 12.7319L6.9458 12.7319C3.97949 12.7319 1.96533 10.7544 1.96533 8.02002C1.96533 6.66504 2.68555 5.83496 3.9917 5.83496L7.43408 5.83496L7.43408 3.86963L3.9917 3.86963C1.46484 3.86963 0 5.43213 0 8.02002ZM37.3169 8.02002C37.3169 5.43213 35.8643 3.86963 33.3252 3.86963L29.8828 3.86963L29.8828 5.83496L33.3252 5.83496C34.6313 5.83496 35.3516 6.66504 35.3516 8.02002C35.3516 10.7544 33.3374 12.7319 30.3711 12.7319L29.3823 12.7319L29.3823 14.6973L30.188 14.6973C34.4604 14.6973 37.3169 11.9507 37.3169 8.02002Z" fill="#5ac8f5"/>
 </g>
</svg>
