<?xml version="1.0" encoding="UTF-8"?>
<!--Generator: Apple Native CoreSVG 175.5-->
<!DOCTYPE svg
PUBLIC "-//W3C//DTD SVG 1.1//EN"
       "http://www.w3.org/Graphics/SVG/1.1/DTD/svg11.dtd">
<svg version="1.1" xmlns="http://www.w3.org/2000/svg" xmlns:xlink="http://www.w3.org/1999/xlink" width="22.4731" height="22.4976">
 <g>
  <rect height="22.4976" opacity="0" width="22.4731" x="0" y="0"/>
  <path d="M3.83301 22.4976L18.6401 22.4976C21.2036 22.4976 22.4731 21.228 22.4731 18.7134L22.4731 3.80859C22.4731 1.29395 21.2036 0.0244141 18.6401 0.0244141L3.83301 0.0244141C1.28174 0.0244141 0 1.28174 0 3.80859L0 18.7134C0 21.2402 1.28174 22.4976 3.83301 22.4976Z" fill="#5ac8f5" fill-opacity="0.25"/>
  <path d="M6.17676 11.2671C6.17676 7.87354 7.88574 5.61523 10.5591 5.27344L10.5591 4.27246C10.5591 3.89404 10.8276 3.6499 11.1938 3.6499C11.5479 3.6499 11.8042 3.89404 11.8042 4.27246L11.8042 5.26123C13.5986 5.43213 15.0269 6.50635 15.5762 8.00781C15.6494 8.21533 15.6982 8.43506 15.6982 8.64258C15.6982 9.10645 15.3931 9.41162 14.9292 9.41162C14.4897 9.41162 14.2578 9.24072 14.1113 8.75244C13.8306 7.76367 12.9395 6.99463 11.8042 6.79932L11.8042 15.7715C13.0127 15.6128 13.916 14.8682 14.1968 13.8428C14.3311 13.4033 14.5874 13.1714 15.0146 13.1714C15.4907 13.1714 15.7837 13.4888 15.7837 13.9404C15.7837 14.1724 15.7349 14.3799 15.6616 14.5874C15.1245 16.0889 13.7329 17.1509 11.8042 17.2974L11.8042 18.2983C11.8042 18.6768 11.5479 18.9331 11.1938 18.9331C10.8398 18.9331 10.5591 18.6768 10.5591 18.2983L10.5591 17.2852C7.87354 16.9556 6.17676 14.7095 6.17676 11.2671ZM7.87354 11.2671C7.87354 13.7085 8.88672 15.3687 10.5591 15.7349L10.5591 6.83594C8.89893 7.18994 7.87354 8.8623 7.87354 11.2671Z" fill="#5ac8f5"/>
 </g>
</svg>
