<?xml version="1.0" encoding="UTF-8"?>
<!--Generator: Apple Native CoreSVG 175.5-->
<!DOCTYPE svg
PUBLIC "-//W3C//DTD SVG 1.1//EN"
       "http://www.w3.org/Graphics/SVG/1.1/DTD/svg11.dtd">
<svg version="1.1" xmlns="http://www.w3.org/2000/svg" xmlns:xlink="http://www.w3.org/1999/xlink" width="24.6826" height="30.3101">
 <g>
  <rect height="30.3101" opacity="0" width="24.6826" x="0" y="0"/>
  <path d="M12.3413 28.4302C20.0195 28.4302 24.6826 26.2817 24.6826 21.1792L24.6826 19.7876C23.7793 20.8252 22.4609 21.6675 20.7886 22.29L20.7886 23.9502C20.7886 24.3896 20.4224 24.7437 19.9829 24.7437C19.5435 24.7437 19.1895 24.3896 19.1895 23.9502L19.1895 22.8149C18.4814 22.998 17.7246 23.1445 17.041 23.2544L17.041 24.7803C17.041 25.2197 16.687 25.5737 16.2476 25.5737C15.8081 25.5737 15.4419 25.2197 15.4419 24.7803L15.4419 23.4619C14.6484 23.5352 13.7451 23.5962 12.9883 23.6084L12.9883 25.0854C12.9883 25.5249 12.6343 25.8911 12.1948 25.8911C11.7554 25.8911 11.3892 25.5249 11.3892 25.0854L11.3892 23.5962C10.5835 23.584 9.74121 23.5229 8.94775 23.4375L8.94775 24.7803C8.94775 25.2197 8.58154 25.5737 8.14209 25.5737C7.70264 25.5737 7.34863 25.2197 7.34863 24.7803L7.34863 23.2056C6.5918 23.0835 5.88379 22.9248 5.2002 22.7295L5.2002 23.9502C5.2002 24.3896 4.84619 24.7437 4.40674 24.7437C3.96729 24.7437 3.60107 24.3896 3.60107 23.9502L3.60107 22.1802C2.06299 21.5698 0.842285 20.7642 0 19.7876L0 21.1792C0 26.2817 4.65088 28.4302 12.3413 28.4302ZM13.0859 13.0859L16.3574 9.39941C17.0044 8.6792 16.6382 7.6416 15.6006 7.6416L13.3911 7.6416L13.3911 1.0376C13.3911 0.45166 12.9272 0 12.3535 0C11.7554 0 11.3037 0.45166 11.3037 1.0376L11.3037 7.6416L9.06982 7.6416C8.06885 7.6416 7.6416 8.64258 8.30078 9.39941L11.5845 13.0859C12.0239 13.5986 12.6343 13.5986 13.0859 13.0859ZM10.3394 14.1968L7.56836 11.084C3.07617 11.8652 0.317383 13.7817 0.317383 16.3086C0.317383 19.6533 5.12695 21.936 12.3413 21.936C19.5557 21.936 24.3652 19.6533 24.3652 16.3086C24.3652 13.7817 21.5942 11.8652 17.1143 11.084L14.3311 14.1968C13.2324 15.4541 11.4502 15.4541 10.3394 14.1968Z" fill="#5ac8f5"/>
 </g>
</svg>
