<?xml version="1.0" encoding="UTF-8"?>
<!--Generator: Apple Native CoreSVG 175.5-->
<!DOCTYPE svg
PUBLIC "-//W3C//DTD SVG 1.1//EN"
       "http://www.w3.org/Graphics/SVG/1.1/DTD/svg11.dtd">
<svg version="1.1" xmlns="http://www.w3.org/2000/svg" xmlns:xlink="http://www.w3.org/1999/xlink" width="28.4071" height="29.083">
 <g>
  <rect height="29.083" opacity="0" width="28.4071" x="0" y="0"/>
  <path d="M1.5011 27.5969C3.51526 29.6111 6.44494 29.6355 8.49573 27.3162C10.693 24.8015 13.2565 20.0164 16.7599 16.513C19.4821 13.7786 22.5704 16.4397 26.318 12.8508C27.8195 11.4226 28.6495 9.37185 28.3444 7.88259L23.6569 9.16433C22.8634 9.37185 22.3141 8.87136 22.0699 8.02907L21.7159 6.79616C21.4718 5.95388 21.7648 5.24587 22.546 5.03835L27.2213 3.76882C27.087 3.34157 26.6842 2.75563 26.1837 2.24294C23.3639-0.650127 18.6398-0.601299 15.9176 1.97438C11.8405 5.84401 14.9288 9.93337 12.2555 12.6067C9.05725 15.7927 4.27209 18.405 1.76965 20.6023C-0.561891 22.6409-0.52527 25.5706 1.5011 27.5969ZM2.66077 26.4251C1.34241 25.0823 1.35461 23.0925 2.8927 21.7376C5.41955 19.5281 10.5343 16.6594 13.4274 13.7664C16.5768 10.617 13.2443 6.6863 17.1017 3.13405C19.2135 1.19313 22.9489 1.19313 25.1827 3.40261L25.5856 2.67019L22.2164 3.54909C20.4342 4.02517 19.653 5.39235 20.1901 7.24782L20.5319 8.4319C21.1178 10.4949 22.3263 11.0686 23.962 10.6292L27.441 9.68923L26.7086 9.2986C26.4523 10.1775 25.9884 11.0686 25.2194 11.8377C22.1798 14.804 18.7008 12.2527 15.588 15.3411C12.4142 18.5149 9.56994 23.6541 7.36047 26.1931C5.98108 27.78 3.97912 27.78 2.66077 26.4251ZM17.2604 12.033L19.9093 11.325C20.129 11.2639 20.2633 11.0198 20.2023 10.7879C20.1534 10.5681 19.9215 10.4216 19.6774 10.4949L17.0406 11.2029C16.8087 11.2639 16.6866 11.4959 16.7355 11.7156C16.7721 11.9841 17.0284 12.094 17.2604 12.033ZM16.943 10.6902L19.5553 9.9944C19.7872 9.93337 19.9337 9.70144 19.8605 9.44509C19.7994 9.21315 19.5553 9.09108 19.3356 9.13991L16.6989 9.86013C16.4669 9.90895 16.3326 10.1531 16.3937 10.3728C16.4669 10.6292 16.6866 10.7634 16.943 10.6902ZM16.6134 9.34743L19.2379 8.65163C19.4698 8.5906 19.6041 8.35866 19.5309 8.10231C19.4821 7.87038 19.2379 7.7361 19.0182 7.79714L16.3693 8.50515C16.1373 8.56618 16.0153 8.81032 16.0763 9.03005C16.1373 9.2864 16.3571 9.42067 16.6134 9.34743ZM22.0577 13.9983L23.1564 13.7542L21.6305 8.21218L20.5319 8.4319ZM4.95569 25.656C5.78577 25.656 6.45715 24.9846 6.45715 24.1546C6.45715 23.3245 5.78577 22.6409 4.95569 22.6409C4.12561 22.6409 3.44202 23.3245 3.44202 24.1546C3.44202 24.9846 4.12561 25.656 4.95569 25.656Z" fill="#5ac8f5"/>
 </g>
</svg>
