<?xml version="1.0" encoding="UTF-8"?>
<!--Generator: Apple Native CoreSVG 175.5-->
<!DOCTYPE svg
PUBLIC "-//W3C//DTD SVG 1.1//EN"
       "http://www.w3.org/Graphics/SVG/1.1/DTD/svg11.dtd">
<svg version="1.1" xmlns="http://www.w3.org/2000/svg" xmlns:xlink="http://www.w3.org/1999/xlink" width="22.4731" height="22.4976">
 <g>
  <rect height="22.4976" opacity="0" width="22.4731" x="0" y="0"/>
  <path d="M3.83301 22.4976L18.6401 22.4976C21.2036 22.4976 22.4731 21.228 22.4731 18.7134L22.4731 3.80859C22.4731 1.29395 21.2036 0.0244141 18.6401 0.0244141L3.83301 0.0244141C1.28174 0.0244141 0 1.28174 0 3.80859L0 18.7134C0 21.2402 1.28174 22.4976 3.83301 22.4976ZM3.85742 20.5322C2.63672 20.5322 1.96533 19.8853 1.96533 18.6157L1.96533 3.90625C1.96533 2.63672 2.63672 1.98975 3.85742 1.98975L18.6157 1.98975C19.8242 1.98975 20.5078 2.63672 20.5078 3.90625L20.5078 18.6157C20.5078 19.8853 19.8242 20.5322 18.6157 20.5322Z" fill="#5ac8f5" fill-opacity="0.5"/>
  <path d="M7.72705 16.687L14.8804 16.687C15.3564 16.687 15.6982 16.3818 15.6982 15.8936C15.6982 15.3931 15.3564 15.0879 14.8804 15.0879L9.39941 15.0879L9.39941 14.9902L15.0024 7.21436C15.2466 6.88477 15.2954 6.71387 15.2954 6.43311C15.2954 5.92041 14.9292 5.56641 14.4043 5.56641L7.62939 5.56641C7.15332 5.56641 6.81152 5.87158 6.81152 6.35986C6.81152 6.86035 7.15332 7.16553 7.62939 7.16553L12.793 7.16553L12.793 7.26318L7.17773 15.0391C6.92139 15.4175 6.84814 15.5884 6.84814 15.8569C6.84814 16.3452 7.21436 16.687 7.72705 16.687Z" fill="#5ac8f5"/>
 </g>
</svg>
