<?xml version="1.0" encoding="UTF-8"?>
<!--Generator: Apple Native CoreSVG 175.5-->
<!DOCTYPE svg
PUBLIC "-//W3C//DTD SVG 1.1//EN"
       "http://www.w3.org/Graphics/SVG/1.1/DTD/svg11.dtd">
<svg version="1.1" xmlns="http://www.w3.org/2000/svg" xmlns:xlink="http://www.w3.org/1999/xlink" width="24.9023" height="24.9146">
 <g>
  <rect height="24.9146" opacity="0" width="24.9023" x="0" y="0"/>
  <path d="M12.4512 24.9023C19.2627 24.9023 24.9023 19.2505 24.9023 12.4512C24.9023 5.63965 19.2505 0 12.439 0C5.63965 0 0 5.63965 0 12.4512C0 19.2505 5.65186 24.9023 12.4512 24.9023ZM4.67529 15.8203C4.67529 15.4053 5.0293 15.0757 5.48096 15.0757L6.99463 15.0757C7.61719 15.0757 8.00781 14.8804 8.53271 14.2456L10.0708 12.4512L8.53271 10.6567C8.02002 10.0342 7.61719 9.82666 6.99463 9.82666L5.48096 9.82666C5.0293 9.82666 4.67529 9.49707 4.67529 9.08203C4.67529 8.64258 5.00488 8.3374 5.48096 8.3374L6.97021 8.3374C8.09326 8.3374 8.80127 8.65479 9.63135 9.61914L11.0596 11.2915L12.4878 9.61914C13.3301 8.65479 14.0259 8.3374 15.1611 8.3374L16.333 8.3374L16.333 6.9458C16.333 6.56738 16.5649 6.33545 16.9434 6.33545C17.1143 6.33545 17.2852 6.39648 17.4072 6.49414L19.9097 8.55713C20.2026 8.81348 20.1904 9.25293 19.8975 9.49707L17.4194 11.5234C17.3218 11.6455 17.1265 11.7065 16.9434 11.7065C16.5771 11.7065 16.333 11.4624 16.333 11.084L16.333 9.82666L15.21 9.82666C14.5142 9.82666 14.1235 10.0342 13.5986 10.6567L12.0605 12.4512L13.5986 14.2456C14.1235 14.8682 14.5142 15.0757 15.21 15.0757L16.333 15.0757L16.333 13.855C16.333 13.4766 16.5771 13.2324 16.9434 13.2324C17.1265 13.2324 17.3218 13.2935 17.4194 13.4155L19.9097 15.4663C20.2026 15.7104 20.2026 16.1377 19.8975 16.394L17.4072 18.4448C17.2852 18.5425 17.1143 18.6035 16.9434 18.6035C16.5649 18.6035 16.333 18.3716 16.333 17.9932L16.333 16.5649L15.1611 16.5649C14.0259 16.5649 13.3301 16.2476 12.4878 15.2832L11.0596 13.6108L9.63135 15.2832C8.80127 16.2476 8.09326 16.5649 6.97021 16.5649L5.48096 16.5649C5.00488 16.5649 4.67529 16.2476 4.67529 15.8203Z" fill="#5ac8f5"/>
 </g>
</svg>
