<?xml version="1.0" encoding="UTF-8"?>
<!--Generator: Apple Native CoreSVG 175.5-->
<!DOCTYPE svg
PUBLIC "-//W3C//DTD SVG 1.1//EN"
       "http://www.w3.org/Graphics/SVG/1.1/DTD/svg11.dtd">
<svg version="1.1" xmlns="http://www.w3.org/2000/svg" xmlns:xlink="http://www.w3.org/1999/xlink" width="24.9023" height="24.9146">
 <g>
  <rect height="24.9146" opacity="0" width="24.9023" x="0" y="0"/>
  <path d="M12.4512 24.9023C19.2627 24.9023 24.9023 19.2505 24.9023 12.4512C24.9023 5.63965 19.2505 0 12.439 0C5.63965 0 0 5.63965 0 12.4512C0 19.2505 5.65186 24.9023 12.4512 24.9023ZM12.4512 22.8271C6.68945 22.8271 2.0874 18.2129 2.0874 12.4512C2.0874 6.68945 6.67725 2.0752 12.439 2.0752C18.2007 2.0752 22.8271 6.68945 22.8271 12.4512C22.8271 18.2129 18.2129 22.8271 12.4512 22.8271Z" fill="#5ac8f5" fill-opacity="0.5"/>
  <path d="M15.5884 17.4438C16.1743 17.4438 16.6016 17.0288 16.6016 16.4673C16.6016 16.0034 16.4062 15.7349 15.8936 15.4907L9.70459 12.4512L9.70459 12.3779L15.8936 9.26514C16.394 9.021 16.6016 8.72803 16.6016 8.27637C16.6016 7.72705 16.1865 7.31201 15.6128 7.31201C15.3442 7.31201 15.1978 7.36084 15.0024 7.4585L7.72705 11.377C7.23877 11.6455 7.00684 11.9873 7.00684 12.4512C7.00684 12.9517 7.21436 13.2568 7.72705 13.5254L15.0024 17.3096C15.1855 17.395 15.3442 17.4438 15.5884 17.4438Z" fill="#5ac8f5"/>
 </g>
</svg>
