<?xml version="1.0" encoding="UTF-8"?>
<!--Generator: Apple Native CoreSVG 175.5-->
<!DOCTYPE svg
PUBLIC "-//W3C//DTD SVG 1.1//EN"
       "http://www.w3.org/Graphics/SVG/1.1/DTD/svg11.dtd">
<svg version="1.1" xmlns="http://www.w3.org/2000/svg" xmlns:xlink="http://www.w3.org/1999/xlink" width="35.1698" height="18.2983">
 <g>
  <rect height="18.2983" opacity="0" width="35.1698" x="0" y="0"/>
  <path d="M8.05629 3.27148L8.9352 3.27148C9.48451 3.27148 9.71645 3.06396 9.89955 2.6001L10.6198 0.78125C10.7907 0.378418 10.6076 0.0244141 10.1803 0.0244141L9.37465 0.0244141C8.95961 0.0244141 8.70326 0.231934 8.50795 0.598145L7.5436 2.45361C7.34828 2.81982 7.5436 3.27148 8.05629 3.27148ZM4.71156 10.0586L6.06654 10.0586C6.62807 10.0586 6.95766 9.86328 7.16518 9.33838L8.22719 6.72607C8.39809 6.29883 8.12953 5.88379 7.65346 5.88379L6.44496 5.88379C6.02992 5.88379 5.68813 6.09131 5.49281 6.46973L4.13783 9.10645C3.89369 9.57031 4.18666 10.0586 4.71156 10.0586ZM0.98842 18.2983L2.58754 18.2983C3.31996 18.2983 3.68617 17.9443 3.88149 17.4194L5.37074 13.7695C5.59047 13.2324 5.24867 12.7075 4.66274 12.7075L3.28334 12.7075C2.5143 12.7075 2.13588 13.0005 1.86733 13.5132L0.133928 16.9434C-0.183455 17.5659 0.0484786 18.2983 0.98842 18.2983ZM26.2326 3.27148L27.1115 3.27148C27.6242 3.27148 27.8195 2.81982 27.6242 2.45361L26.6598 0.598145C26.4767 0.231934 26.2081 0.0244141 25.7931 0.0244141L24.9874 0.0244141C24.5602 0.0244141 24.3771 0.378418 24.548 0.78125L25.2682 2.6001C25.4513 3.06396 25.6832 3.27148 26.2326 3.27148ZM29.1134 10.0586L30.4562 10.0586C30.9811 10.0586 31.2741 9.57031 31.0421 9.10645L29.6872 6.46973C29.4796 6.09131 29.1378 5.88379 28.7228 5.88379L27.5143 5.88379C27.0382 5.88379 26.7697 6.29883 26.9406 6.72607L28.0026 9.33838C28.2223 9.86328 28.5397 10.0586 29.1134 10.0586ZM32.5802 18.2983L34.1793 18.2983C35.1315 18.2983 35.3512 17.5659 35.0338 16.9434L33.3004 13.5132C33.0319 13.0005 32.6535 12.7075 31.8844 12.7075L30.5172 12.7075C29.9191 12.7075 29.5773 13.2324 29.797 13.7695L31.2863 17.4194C31.4938 17.9443 31.8478 18.2983 32.5802 18.2983Z" fill="#5ac8f5" fill-opacity="0.5"/>
  <path d="M17.59 17.395C17.9806 17.395 18.2492 17.1143 18.2492 16.6992L18.2492 15.3564L19.299 15.9546C19.6652 16.1621 20.0314 16.0767 20.2145 15.7471C20.3976 15.4419 20.2755 15.0635 19.9337 14.856L18.2492 13.916L18.2492 13.0615L18.1149 10.7056L20.129 11.9873L20.8371 12.4146L20.8371 14.3555C20.8371 14.7461 21.0812 15.0391 21.4474 15.0391C21.8258 15.0391 22.07 14.7705 22.07 14.3555L22.0822 13.1226L23.254 13.8062C23.5958 14.0137 23.9743 13.9282 24.1818 13.5864C24.3771 13.2324 24.2794 12.854 23.9254 12.6465L22.7536 11.9751L23.7912 11.3647C24.1452 11.145 24.2794 10.8032 24.0963 10.4858C23.901 10.1685 23.5104 10.083 23.1686 10.2783L21.5084 11.2549L20.776 10.8276L18.6398 9.76562L20.776 8.70361L21.5084 8.26416L23.1686 9.25293C23.5104 9.43604 23.9132 9.36279 24.0963 9.05762C24.2794 8.71582 24.1452 8.38623 23.7912 8.1543L22.7536 7.54395L23.9254 6.88477C24.2794 6.67725 24.3771 6.31104 24.1818 5.94482C23.9987 5.60303 23.5958 5.51758 23.254 5.71289L22.0822 6.39648L22.07 5.17578C22.07 4.77295 21.8258 4.47998 21.4596 4.47998C21.0812 4.47998 20.8371 4.78516 20.8371 5.17578L20.8371 7.10449L20.129 7.53174L18.1149 8.82568L18.2492 6.46973L18.2492 5.61523L19.9337 4.67529C20.2755 4.46777 20.3976 4.08936 20.2145 3.78418C20.0314 3.45459 19.6652 3.36914 19.299 3.57666L18.2492 4.1748L18.2492 2.83203C18.2492 2.40479 17.9806 2.13623 17.59 2.13623C17.1994 2.13623 16.9186 2.41699 16.9186 2.83203L16.9186 4.18701L15.8566 3.57666C15.4904 3.38135 15.1364 3.45459 14.9533 3.78418C14.7702 4.08936 14.8922 4.46777 15.234 4.66309L16.9186 5.61523L16.9186 6.46973L17.0529 8.82568L15.0631 7.54395L14.3307 7.10449L14.3429 5.17578C14.3429 4.78516 14.0866 4.47998 13.7204 4.47998C13.3419 4.47998 13.0978 4.76074 13.0978 5.17578L13.0856 6.39648L11.9137 5.71289C11.5597 5.50537 11.1691 5.61523 10.986 5.94482C10.7785 6.29883 10.9005 6.67725 11.2423 6.88477L12.4142 7.54395L11.3766 8.1543C11.0226 8.37402 10.9005 8.70361 11.0714 9.05762C11.2545 9.36279 11.6574 9.44824 12.0114 9.25293L13.6593 8.27637L14.4039 8.70361L16.528 9.76562L14.4039 10.8276L13.6593 11.2549L12.0114 10.2783C11.6574 10.083 11.2545 10.1562 11.0836 10.4614C10.9127 10.8032 11.0104 11.1572 11.3766 11.3647L12.4142 11.9751L11.2423 12.6465C10.9005 12.854 10.7907 13.2324 10.986 13.5864C11.1813 13.9282 11.5597 14.0137 11.9137 13.8062L13.0856 13.1348L13.0978 14.3555C13.0978 14.7705 13.3419 15.0391 13.7204 15.0391C14.0866 15.0391 14.3429 14.7461 14.3429 14.3555L14.3307 12.4146L15.0631 11.9873L17.0529 10.7056L16.9186 13.0615L16.9186 13.916L15.234 14.8682C14.8922 15.0635 14.7702 15.4419 14.9533 15.7471C15.1364 16.0767 15.4904 16.1499 15.8566 15.9546L16.9186 15.3442L16.9186 16.6992C16.9186 17.1021 17.1994 17.395 17.59 17.395Z" fill="#5ac8f5"/>
 </g>
</svg>
