<?xml version="1.0" encoding="UTF-8"?>
<!--Generator: Apple Native CoreSVG 175.5-->
<!DOCTYPE svg
PUBLIC "-//W3C//DTD SVG 1.1//EN"
       "http://www.w3.org/Graphics/SVG/1.1/DTD/svg11.dtd">
<svg version="1.1" xmlns="http://www.w3.org/2000/svg" xmlns:xlink="http://www.w3.org/1999/xlink" width="24.9023" height="24.9146">
 <g>
  <rect height="24.9146" opacity="0" width="24.9023" x="0" y="0"/>
  <path d="M12.4512 24.9023C19.2627 24.9023 24.9023 19.2505 24.9023 12.4512C24.9023 5.63965 19.2505 0 12.439 0C5.63965 0 0 5.63965 0 12.4512C0 19.2505 5.65186 24.9023 12.4512 24.9023ZM12.4512 22.8271C6.68945 22.8271 2.0874 18.2129 2.0874 12.4512C2.0874 6.68945 6.67725 2.0752 12.439 2.0752C18.2007 2.0752 22.8271 6.68945 22.8271 12.4512C22.8271 18.2129 18.2129 22.8271 12.4512 22.8271Z" fill="#5ac8f5" fill-opacity="0.5"/>
  <path d="M7.06787 17.9688C7.53174 17.9688 7.86133 17.6392 7.86133 17.1631L7.86133 13.2324L8.82568 13.2324C8.91113 13.2324 8.98438 13.2324 9.08203 13.2324L10.7056 17.4561C10.8398 17.8223 11.1328 17.9688 11.438 17.9688C11.9629 17.9688 12.4756 17.5659 12.207 16.8701L10.6201 12.9272C11.6577 12.5244 12.1948 11.2305 12.1948 9.94873C12.1948 7.99561 11.2305 6.87256 9.16748 6.87256L7.18994 6.87256C6.5918 6.87256 6.26221 7.32422 6.26221 7.9834L6.26221 17.1631C6.26221 17.6392 6.5918 17.9688 7.06787 17.9688ZM7.86133 11.9873L7.86133 8.1665L8.98438 8.1665C10.0708 8.1665 10.5713 8.8623 10.5713 10.0098C10.5713 11.1694 10.0952 11.9873 8.99658 11.9873ZM16.2109 17.4683C17.9688 17.4683 19.1772 16.4551 19.1772 14.7827C19.1772 13.5986 18.5425 12.7563 17.1021 11.9995L16.0156 11.4258C15.3687 11.0962 14.7217 10.6812 14.7217 9.87549C14.7217 9.11865 15.2832 8.63037 16.1255 8.63037C17.0532 8.63037 17.5171 9.21631 17.5781 10.0464C17.6147 10.437 17.9199 10.6689 18.2495 10.6689C18.6646 10.6689 19.0796 10.3516 18.9819 9.68018C18.811 8.34961 17.7979 7.33643 16.1255 7.33643C14.4531 7.33643 13.2202 8.36182 13.2202 9.93652C13.2202 11.2671 13.9771 12.1216 15.2588 12.7563L16.3208 13.2812C17.0166 13.623 17.688 14.1602 17.688 14.8926C17.688 15.6616 17.1509 16.1743 16.2109 16.1743C15.1489 16.1743 14.6851 15.6372 14.5996 14.7461C14.5508 14.3311 14.27 14.1235 13.9404 14.1235C13.5132 14.1235 13.1226 14.4775 13.2202 15.1123C13.4155 16.5161 14.4897 17.4683 16.2109 17.4683ZM16.1987 18.7744C16.4673 18.7744 16.6992 18.5425 16.6992 18.2739L16.6992 6.56738C16.6992 6.28662 16.4673 6.05469 16.1987 6.05469C15.918 6.05469 15.686 6.28662 15.686 6.56738L15.686 18.2739C15.686 18.5425 15.918 18.7744 16.1987 18.7744Z" fill="#5ac8f5"/>
 </g>
</svg>
