<?xml version="1.0" encoding="UTF-8"?>
<!--Generator: Apple Native CoreSVG 175.5-->
<!DOCTYPE svg
PUBLIC "-//W3C//DTD SVG 1.1//EN"
       "http://www.w3.org/Graphics/SVG/1.1/DTD/svg11.dtd">
<svg version="1.1" xmlns="http://www.w3.org/2000/svg" xmlns:xlink="http://www.w3.org/1999/xlink" width="24.9023" height="24.9146">
 <g>
  <rect height="24.9146" opacity="0" width="24.9023" x="0" y="0"/>
  <path d="M12.4512 24.9023C19.2627 24.9023 24.9023 19.2505 24.9023 12.4512C24.9023 5.63965 19.2505 0 12.439 0C5.63965 0 0 5.63965 0 12.4512C0 19.2505 5.65186 24.9023 12.4512 24.9023ZM12.4512 22.8271C6.68945 22.8271 2.0874 18.2129 2.0874 12.4512C2.0874 6.68945 6.67725 2.0752 12.439 2.0752C18.2007 2.0752 22.8271 6.68945 22.8271 12.4512C22.8271 18.2129 18.2129 22.8271 12.4512 22.8271Z" fill="#5ac8f5" fill-opacity="0.5"/>
  <path d="M11.3037 17.7002C11.7432 17.7002 12.0728 17.3706 12.0728 16.9312L12.0728 14.4165L12.2681 14.4165C14.8071 14.4165 16.4185 15.0635 17.5537 17.2119C17.7856 17.627 18.0786 17.7002 18.3594 17.7002C18.7012 17.7002 19.043 17.395 19.043 16.8213C19.043 11.9629 16.9678 8.95996 12.2681 8.95996L12.0728 8.95996L12.0728 6.46973C12.0728 6.03027 11.7432 5.66406 11.2915 5.66406C10.9741 5.66406 10.7666 5.81055 10.4248 6.12793L5.22461 10.9741C4.98047 11.2061 4.89502 11.4624 4.89502 11.6821C4.89502 11.9019 4.98047 12.1582 5.22461 12.3901L10.4248 17.2729C10.73 17.5537 10.9863 17.7002 11.3037 17.7002Z" fill="#5ac8f5"/>
 </g>
</svg>
