<?xml version="1.0" encoding="UTF-8"?>
<!--Generator: Apple Native CoreSVG 175.5-->
<!DOCTYPE svg
PUBLIC "-//W3C//DTD SVG 1.1//EN"
       "http://www.w3.org/Graphics/SVG/1.1/DTD/svg11.dtd">
<svg version="1.1" xmlns="http://www.w3.org/2000/svg" xmlns:xlink="http://www.w3.org/1999/xlink" width="24.9023" height="24.9146">
 <g>
  <rect height="24.9146" opacity="0" width="24.9023" x="0" y="0"/>
  <path d="M12.4512 24.9023C19.2627 24.9023 24.9023 19.2505 24.9023 12.4512C24.9023 5.63965 19.2505 0 12.439 0C5.63965 0 0 5.63965 0 12.4512C0 19.2505 5.65186 24.9023 12.4512 24.9023ZM12.4512 22.8271C6.68945 22.8271 2.0874 18.2129 2.0874 12.4512C2.0874 6.68945 6.67725 2.0752 12.439 2.0752C18.2007 2.0752 22.8271 6.68945 22.8271 12.4512C22.8271 18.2129 18.2129 22.8271 12.4512 22.8271ZM6.9458 17.4316L11.9873 17.4316C12.3779 17.4316 12.6709 17.1387 12.6709 16.6992C12.6709 16.2476 12.3779 15.9912 11.9873 15.9912L8.44727 15.9912L8.44727 15.9058L10.8398 13.1226C11.7432 12.0728 12.4146 11.1938 12.4146 9.97314C12.4146 8.27637 11.1694 7.18994 9.25293 7.18994C7.80029 7.18994 6.50635 8.11768 6.18896 9.36279C6.16455 9.52148 6.14014 9.65576 6.14014 9.80225C6.14014 10.2417 6.39648 10.5347 6.81152 10.5347C7.16553 10.5347 7.34863 10.3271 7.50732 9.96094C7.82471 9.04541 8.43506 8.59375 9.31396 8.59375C10.3027 8.59375 10.9375 9.2041 10.9375 10.1074C10.9375 10.9009 10.3027 11.5845 9.7168 12.2681L6.49414 16.0522C6.31104 16.2598 6.22559 16.4673 6.22559 16.7114C6.22559 17.1509 6.50635 17.4316 6.9458 17.4316ZM17.5659 17.5659C18.042 17.5659 18.3472 17.2607 18.3472 16.7847L18.3472 8.14209C18.3472 7.62939 17.9932 7.26318 17.4805 7.26318C17.0898 7.26318 16.8457 7.38525 16.4185 7.67822L14.563 8.94775C14.3066 9.13086 14.1479 9.35059 14.1479 9.66797C14.1479 10.083 14.4897 10.4004 14.8438 10.4004C15.0391 10.4004 15.1611 10.3882 15.4419 10.1685L16.748 9.2041L16.8213 9.2041L16.8213 16.7847C16.8213 17.2607 17.1143 17.5659 17.5659 17.5659Z" fill="#5ac8f5"/>
 </g>
</svg>
