<?xml version="1.0" encoding="UTF-8"?>
<!--Generator: Apple Native CoreSVG 175.5-->
<!DOCTYPE svg
PUBLIC "-//W3C//DTD SVG 1.1//EN"
       "http://www.w3.org/Graphics/SVG/1.1/DTD/svg11.dtd">
<svg version="1.1" xmlns="http://www.w3.org/2000/svg" xmlns:xlink="http://www.w3.org/1999/xlink" width="13.1797" height="24.3561">
 <g>
  <rect height="24.3561" opacity="0" width="13.1797" x="0" y="0"/>
  <path d="M3.67596 23.5855C4.35956 23.5855 4.73798 23.1827 4.73798 22.4869L4.73798 13.0509L3.83465 13.0509C4.84784 15.9805 7.75311 18.3975 11.6349 19.6915C12.3307 19.9478 12.8923 19.5938 13.0876 19.1177C13.3073 18.6417 13.1486 18.0435 12.4528 17.7261C7.92401 15.8707 4.73798 12.9898 4.73798 8.55867L4.73798 4.00544L2.60174 4.00544L2.60174 22.4869C2.60174 23.1827 2.98016 23.5855 3.67596 23.5855ZM0.868346 5.58015L6.47137 5.58015C7.33807 5.58015 7.5578 4.98201 7.09393 4.31062L4.35956 0.416578C3.96893-0.132739 3.38299-0.144946 2.98016 0.416578L0.245788 4.29841C-0.230287 4.98201-0.01056 5.58015 0.868346 5.58015Z" fill="#5ac8f5"/>
 </g>
</svg>
