<?xml version="1.0" encoding="UTF-8"?>
<!--Generator: Apple Native CoreSVG 175.5-->
<!DOCTYPE svg
PUBLIC "-//W3C//DTD SVG 1.1//EN"
       "http://www.w3.org/Graphics/SVG/1.1/DTD/svg11.dtd">
<svg version="1.1" xmlns="http://www.w3.org/2000/svg" xmlns:xlink="http://www.w3.org/1999/xlink" width="22.11" height="25.8667">
 <g>
  <rect height="25.8667" opacity="0" width="22.11" x="0" y="0"/>
  <path d="M16.9403 15.4663L18.9056 17.4316L18.9056 3.17383C18.9056 1.26953 17.5751 0 15.5853 0L6.53992 0C5.08728 0 4.00085 0.634766 3.59802 1.80664L3.51257 2.02637L5.18494 3.69873L5.18494 3.4668C5.18494 2.49023 5.75867 1.96533 6.78406 1.96533L15.329 1.96533C16.3544 1.96533 16.9403 2.51465 16.9403 3.49121ZM9.59167 4.65088L12.5458 4.65088C13.0219 4.65088 13.4003 4.27246 13.4003 3.78418C13.4003 3.30811 13.0219 2.92969 12.5458 2.92969L9.59167 2.92969C9.10339 2.92969 8.71277 3.30811 8.71277 3.78418C8.71277 4.27246 9.10339 4.65088 9.59167 4.65088ZM6.53992 25.8423L15.5853 25.8423C16.9891 25.8423 18.0145 25.2197 18.4784 24.1089C18.5028 24.0479 18.5394 23.9624 18.5638 23.9014L16.9403 22.229C16.9403 22.3145 16.9403 22.3877 16.9403 22.4609C16.8915 23.3765 16.3055 23.877 15.329 23.877L6.78406 23.877C5.75867 23.877 5.18494 23.3276 5.18494 22.3511L5.18494 10.5103L3.2196 8.54492L3.2196 22.6685C3.2196 24.5728 4.55017 25.8423 6.53992 25.8423ZM8.46863 22.9858L13.6566 22.9858C13.9862 22.9858 14.2303 22.7539 14.2303 22.4121C14.2303 22.0703 13.9862 21.8506 13.6566 21.8506L8.46863 21.8506C8.13904 21.8506 7.9071 22.0703 7.9071 22.4121C7.9071 22.7539 8.13904 22.9858 8.46863 22.9858ZM20.5048 23.7549C20.871 24.1333 21.4813 24.1211 21.8353 23.7549C22.2015 23.4009 22.2015 22.8027 21.8353 22.4243L1.60828 2.20947C1.24207 1.84326 0.643921 1.83105 0.265503 2.20947C-0.088501 2.56348-0.088501 3.18604 0.265503 3.54004Z" fill="#5ac8f5"/>
 </g>
</svg>
