<?xml version="1.0" encoding="UTF-8"?>
<!--Generator: Apple Native CoreSVG 175.5-->
<!DOCTYPE svg
PUBLIC "-//W3C//DTD SVG 1.1//EN"
       "http://www.w3.org/Graphics/SVG/1.1/DTD/svg11.dtd">
<svg version="1.1" xmlns="http://www.w3.org/2000/svg" xmlns:xlink="http://www.w3.org/1999/xlink" width="17.6274" height="29.0275">
 <g>
  <rect height="29.0275" opacity="0" width="17.6274" x="0" y="0"/>
  <path d="M4.34617 14.5199C4.34617 12.0052 3.47947 9.66146 1.94138 7.8304C0.928198 6.63411-0.548853 7.98909 0.207983 8.96565C1.68503 10.8211 2.24656 12.3714 2.24656 14.5199C2.24656 16.6683 1.68503 18.2186 0.207983 20.0741C-0.536646 21.0384 0.940405 22.3812 1.94138 21.1971C3.47947 19.3783 4.34617 17.0345 4.34617 14.5199ZM10.9746 14.5199C10.9746 10.6868 9.76609 7.08577 7.59324 4.16829C6.61667 2.86214 4.9199 4.11946 5.83542 5.31575C7.82517 7.92806 8.88718 11.1141 8.88718 14.5199C8.88718 17.9256 7.82517 21.1117 5.83542 23.724C4.9199 24.9202 6.61667 26.1776 7.59324 24.8592C9.76609 21.9417 10.9746 18.3529 10.9746 14.5199ZM17.6274 14.5199C17.6274 9.35628 16.0161 4.54671 13.1474 0.567217C12.2685-0.665693 10.4741 0.408525 11.4262 1.69026C14.0996 5.36458 15.5278 9.79573 15.5278 14.5199C15.5278 19.244 14.0874 23.6629 11.4262 27.3372C10.4985 28.6068 12.2319 29.742 13.1474 28.4725C16.0161 24.4808 17.6274 19.6712 17.6274 14.5199Z" fill="#5ac8f5"/>
 </g>
</svg>
