<?xml version="1.0" encoding="UTF-8"?>
<!--Generator: Apple Native CoreSVG 175.5-->
<!DOCTYPE svg
PUBLIC "-//W3C//DTD SVG 1.1//EN"
       "http://www.w3.org/Graphics/SVG/1.1/DTD/svg11.dtd">
<svg version="1.1" xmlns="http://www.w3.org/2000/svg" xmlns:xlink="http://www.w3.org/1999/xlink" width="29.5776" height="28.6011">
 <g>
  <rect height="28.6011" opacity="0" width="29.5776" x="0" y="0"/>
  <path d="M19.751 28.479C26.4893 28.479 29.5776 26.0864 29.5776 20.6421L29.5776 11.3525C29.5776 9.05762 29.0283 7.50732 28.1616 6.40869C27.8687 6.04248 27.4048 6.01807 27.0386 6.31104C25.8667 7.33643 22.8149 8.21533 19.751 8.21533C16.6992 8.21533 13.6475 7.33643 12.4756 6.31104C12.1094 6.01807 11.6455 6.04248 11.3525 6.40869C10.4858 7.50732 9.93652 9.05762 9.93652 11.3525L9.93652 20.6421C9.93652 26.0864 13.0249 28.479 19.751 28.479ZM19.751 26.5137C14.1113 26.5137 11.9019 24.6216 11.9019 20.4468L11.9019 11.4624C11.9019 10.3882 12.085 9.38721 12.5366 8.52051C13.9893 9.65576 16.7358 10.1807 19.751 10.1807C22.7783 10.1807 25.5249 9.65576 26.9775 8.52051C27.4292 9.38721 27.6123 10.3882 27.6123 11.4624L27.6123 20.4468C27.6123 24.6216 25.4028 26.5137 19.751 26.5137Z" fill="#5ac8f5" fill-opacity="0.5"/>
  <path d="M3.41797 21.3501L8.27637 21.3501L8.27637 19.4946L3.51562 19.4946C2.44141 19.4946 1.85547 18.8965 1.85547 17.8589L1.85547 3.49121C1.85547 2.45361 2.44141 1.85547 3.51562 1.85547L13.0615 1.85547C13.4033 1.85547 13.6597 2.00195 13.7695 2.24609C13.8428 2.29492 13.8428 2.38037 13.8794 2.51465C14.5752 2.24609 15.332 2.03857 16.1743 1.87988C16.1377 1.69678 16.0889 1.55029 16.04 1.46484C15.564 0.524902 14.5752 0 13.1592 0L3.41797 0C1.15967 0 0 1.18408 0 3.45459L0 17.8955C0 20.1782 1.15967 21.3501 3.41797 21.3501ZM3.84521 13.6597C3.84521 16.1499 5.85938 18.103 8.27637 18.1152L8.27637 15.5273C7.31201 15.5151 6.40869 14.7705 6.40869 13.6475C6.40869 12.6587 7.18994 11.8042 8.27637 11.7676C8.27637 10.6445 8.31299 9.96094 8.43506 9.21631C5.9082 9.14307 3.84521 11.1572 3.84521 13.6597ZM5.87158 5.71289C5.87158 7.20215 7.09229 8.34961 8.63037 8.26416C8.76465 7.76367 8.92334 7.27539 9.10645 6.83594C8.91113 6.97021 8.6792 7.04346 8.41064 7.04346C7.67822 7.04346 7.08008 6.44531 7.08008 5.71289C7.08008 4.99268 7.69043 4.38232 8.41064 4.38232C9.17969 4.38232 9.76562 5.05371 9.69238 5.77393C9.96094 5.33447 10.2661 4.94385 10.6079 4.57764C10.2539 3.73535 9.41162 3.14941 8.41064 3.16162C6.99463 3.17383 5.87158 4.28467 5.87158 5.71289ZM19.751 6.54297C22.8882 6.54297 25.4028 5.85938 25.4028 4.98047C25.4028 4.07715 22.8882 3.40576 19.751 3.40576C16.626 3.40576 14.1113 4.07715 14.1113 4.98047C14.1113 5.85938 16.626 6.54297 19.751 6.54297Z" fill="#5ac8f5"/>
 </g>
</svg>
