<?xml version="1.0" encoding="UTF-8"?>
<!--Generator: Apple Native CoreSVG 175.5-->
<!DOCTYPE svg
PUBLIC "-//W3C//DTD SVG 1.1//EN"
       "http://www.w3.org/Graphics/SVG/1.1/DTD/svg11.dtd">
<svg version="1.1" xmlns="http://www.w3.org/2000/svg" xmlns:xlink="http://www.w3.org/1999/xlink" width="29.5166" height="22.4976">
 <g>
  <rect height="22.4976" opacity="0" width="29.5166" x="0" y="0"/>
  <path d="M10.498 22.4976L19.0308 22.4976C26.2939 22.4976 29.5166 19.165 29.5166 12.3169L29.5166 3.80859C29.5166 1.29395 28.2349 0.0244141 25.6836 0.0244141L3.83301 0.0244141C1.28174 0.0244141 0 1.28174 0 3.80859L0 12.3169C0 19.165 3.22266 22.4976 10.498 22.4976ZM10.498 20.5078C4.56543 20.5078 1.96533 17.9077 1.96533 12.439L1.96533 3.90625C1.96533 2.63672 2.63672 1.98975 3.85742 1.98975L25.6592 1.98975C26.8677 1.98975 27.5513 2.63672 27.5513 3.90625L27.5513 12.439C27.5513 17.9077 24.9512 20.5078 19.0186 20.5078ZM11.6333 16.8701C12.2803 16.8701 12.6221 16.4673 12.6221 15.7837L12.6221 12.7563L14.8926 12.7563L17.0166 16.2354C17.3096 16.6992 17.5537 16.8701 17.981 16.8701C18.5059 16.8701 18.8721 16.5283 18.8721 16.04C18.8721 15.7715 18.811 15.5762 18.6523 15.332L16.8213 12.4756C18.2495 11.9995 19.1895 10.7178 19.1895 9.19189C19.1895 7.00684 17.6147 5.60303 15.1367 5.60303L11.6333 5.60303C11.0107 5.60303 10.6812 6.05469 10.6812 6.70166L10.6812 15.7837C10.6812 16.4429 11.0107 16.8701 11.6333 16.8701ZM12.6221 11.3281L12.6221 7.09229L14.9048 7.09229C16.3086 7.09229 17.2485 7.87354 17.2485 9.24072C17.2485 10.5835 16.333 11.3281 14.856 11.3281Z" fill="#5ac8f5"/>
 </g>
</svg>
