<?xml version="1.0" encoding="UTF-8"?>
<!--Generator: Apple Native CoreSVG 175.5-->
<!DOCTYPE svg
PUBLIC "-//W3C//DTD SVG 1.1//EN"
       "http://www.w3.org/Graphics/SVG/1.1/DTD/svg11.dtd">
<svg version="1.1" xmlns="http://www.w3.org/2000/svg" xmlns:xlink="http://www.w3.org/1999/xlink" width="24.9023" height="24.9146">
 <g>
  <rect height="24.9146" opacity="0" width="24.9023" x="0" y="0"/>
  <path d="M12.4512 24.9023C19.2627 24.9023 24.9023 19.2505 24.9023 12.4512C24.9023 5.63965 19.2505 0 12.439 0C5.63965 0 0 5.63965 0 12.4512C0 19.2505 5.65186 24.9023 12.4512 24.9023ZM12.4512 22.8271C6.68945 22.8271 2.0874 18.2129 2.0874 12.4512C2.0874 6.68945 6.67725 2.0752 12.439 2.0752C18.2007 2.0752 22.8271 6.68945 22.8271 12.4512C22.8271 18.2129 18.2129 22.8271 12.4512 22.8271ZM15.2588 17.3584L13.623 15.7349C13.2568 15.8813 12.8662 15.9668 12.439 15.9668C10.4858 15.9668 8.92334 14.3677 8.92334 12.4634C8.92334 12.0361 8.99658 11.6211 9.14307 11.2671L6.82373 8.92334C4.99268 10.1807 3.89404 11.7554 3.89404 12.4634C3.89404 13.7329 7.4585 17.8101 12.439 17.8101C13.4399 17.8101 14.3921 17.6392 15.2588 17.3584ZM12.1704 14.2822L10.5957 12.7075C10.5713 13.5254 11.2915 14.2944 12.1704 14.2822ZM15.7227 13.6353L18.0664 15.9912C19.8853 14.7339 20.9717 13.1592 20.9717 12.4634C20.9717 11.1816 17.4683 7.10449 12.439 7.10449C11.438 7.10449 10.5103 7.27539 9.64355 7.55615L11.2549 9.16748C11.6211 9.0332 12.0239 8.94775 12.439 8.94775C14.3799 8.94775 15.9546 10.498 15.9546 12.4634C15.9546 12.8662 15.8691 13.269 15.7227 13.6353ZM12.7075 10.6201L14.2578 12.1704C14.2578 11.3647 13.5742 10.6201 12.7075 10.6201ZM18.1885 18.9819C18.396 19.1895 18.7622 19.1895 18.9697 18.9819C19.1895 18.7622 19.1895 18.4204 18.9697 18.2007L6.66504 5.896C6.44531 5.67627 6.10352 5.67627 5.87158 5.896C5.66406 6.11572 5.66406 6.46973 5.87158 6.67725Z" fill="#5ac8f5"/>
 </g>
</svg>
