<?xml version="1.0" encoding="UTF-8"?>
<!--Generator: Apple Native CoreSVG 175.5-->
<!DOCTYPE svg
PUBLIC "-//W3C//DTD SVG 1.1//EN"
       "http://www.w3.org/Graphics/SVG/1.1/DTD/svg11.dtd">
<svg version="1.1" xmlns="http://www.w3.org/2000/svg" xmlns:xlink="http://www.w3.org/1999/xlink" width="24.9023" height="24.9146">
 <g>
  <rect height="24.9146" opacity="0" width="24.9023" x="0" y="0"/>
  <path d="M12.4512 24.9023C19.2627 24.9023 24.9023 19.2505 24.9023 12.4512C24.9023 5.63965 19.2505 0 12.439 0C5.63965 0 0 5.63965 0 12.4512C0 19.2505 5.65186 24.9023 12.4512 24.9023Z" fill="#5ac8f5" fill-opacity="0.25"/>
  <path d="M9.16748 17.8833C7.4585 17.8833 6.11572 16.8335 5.78613 15.6738C5.74951 15.5151 5.7251 15.3809 5.7251 15.21C5.7251 14.7705 6.03027 14.4531 6.45752 14.4531C6.81152 14.4531 7.01904 14.6484 7.17773 15.0513C7.50732 15.9302 8.19092 16.4185 9.17969 16.4185C10.3882 16.4185 11.2305 15.686 11.2305 14.7095C11.2305 13.6841 10.4614 13.0127 9.26514 13.0127L8.53271 13.0127C8.12988 13.0127 7.84912 12.6953 7.84912 12.2925C7.84912 11.8286 8.12988 11.5356 8.53271 11.5356L9.2041 11.5356C10.2173 11.5356 10.9131 10.8765 10.9131 9.96094C10.9131 9.08203 10.2295 8.48389 9.21631 8.48389C8.23975 8.48389 7.6416 8.97217 7.36084 9.85107C7.23877 10.2539 7.03125 10.4492 6.65283 10.4492C6.22559 10.4492 5.93262 10.1318 5.93262 9.68018C5.93262 9.52148 5.93262 9.38721 5.96924 9.22852C6.29883 7.99561 7.55615 7.01904 9.26514 7.01904C11.145 7.01904 12.4756 8.14209 12.4756 9.75342C12.4756 10.9375 11.6577 11.9873 10.6079 12.1582L10.6079 12.2314C11.8774 12.3657 12.8052 13.4399 12.8052 14.7827C12.8052 16.5894 11.3159 17.8833 9.16748 17.8833ZM17.9321 17.7246C17.4683 17.7246 17.1509 17.4072 17.1509 16.9189L17.1509 9.10645L17.0776 9.10645L15.7471 10.0952C15.4419 10.3271 15.332 10.3394 15.1245 10.3394C14.7583 10.3394 14.4043 10.0098 14.4043 9.58252C14.4043 9.25293 14.563 9.021 14.8193 8.83789L16.7358 7.53174C17.1875 7.22656 17.4316 7.10449 17.8467 7.10449C18.3716 7.10449 18.7256 7.48291 18.7256 8.00781L18.7256 16.9189C18.7256 17.4072 18.4204 17.7246 17.9321 17.7246Z" fill="#5ac8f5"/>
 </g>
</svg>
