<?xml version="1.0" encoding="UTF-8"?>
<!--Generator: Apple Native CoreSVG 175.5-->
<!DOCTYPE svg
PUBLIC "-//W3C//DTD SVG 1.1//EN"
       "http://www.w3.org/Graphics/SVG/1.1/DTD/svg11.dtd">
<svg version="1.1" xmlns="http://www.w3.org/2000/svg" xmlns:xlink="http://www.w3.org/1999/xlink" width="24.9023" height="24.9146">
 <g>
  <rect height="24.9146" opacity="0" width="24.9023" x="0" y="0"/>
  <path d="M12.4512 24.9023C19.2627 24.9023 24.9023 19.2505 24.9023 12.4512C24.9023 5.63965 19.2505 0 12.439 0C5.63965 0 0 5.63965 0 12.4512C0 19.2505 5.65186 24.9023 12.4512 24.9023ZM12.4512 22.8271C6.68945 22.8271 2.0874 18.2129 2.0874 12.4512C2.0874 6.68945 6.67725 2.0752 12.439 2.0752C18.2007 2.0752 22.8271 6.68945 22.8271 12.4512C22.8271 18.2129 18.2129 22.8271 12.4512 22.8271ZM4.77295 12.4634C4.77295 12.9517 5.11475 13.2812 5.57861 13.2812L11.1816 13.2812L13.4277 13.147L10.9497 15.3442L10.1685 16.0645C9.99756 16.2109 9.92432 16.4062 9.92432 16.6504C9.92432 17.1265 10.2661 17.4438 10.73 17.4438C10.9253 17.4438 11.1816 17.334 11.3525 17.1753L15.5518 13.0737C15.7349 12.9028 15.8203 12.6831 15.8203 12.4634C15.8203 12.2314 15.7227 12.0239 15.5518 11.8408L11.3403 7.70264C11.1572 7.51953 10.9497 7.44629 10.73 7.44629C10.2905 7.44629 9.92432 7.76367 9.92432 8.22754C9.92432 8.44727 9.99756 8.66699 10.1685 8.82568L10.9375 9.58252L13.4155 11.7798L11.1816 11.6455L5.57861 11.6455C5.11475 11.6455 4.77295 11.9873 4.77295 12.4634ZM17.5659 17.8345C18.0542 17.8345 18.396 17.5049 18.396 17.0288L18.396 7.86133C18.396 7.38525 18.0542 7.05566 17.5659 7.05566C17.1021 7.05566 16.7603 7.38525 16.7603 7.86133L16.7603 17.0288C16.7603 17.5049 17.1021 17.8345 17.5659 17.8345Z" fill="#5ac8f5"/>
 </g>
</svg>
