<?xml version="1.0" encoding="UTF-8"?>
<!--Generator: Apple Native CoreSVG 175.5-->
<!DOCTYPE svg
PUBLIC "-//W3C//DTD SVG 1.1//EN"
       "http://www.w3.org/Graphics/SVG/1.1/DTD/svg11.dtd">
<svg version="1.1" xmlns="http://www.w3.org/2000/svg" xmlns:xlink="http://www.w3.org/1999/xlink" width="24.9023" height="24.9146">
 <g>
  <rect height="24.9146" opacity="0" width="24.9023" x="0" y="0"/>
  <path d="M12.4512 24.9023C19.2627 24.9023 24.9023 19.2505 24.9023 12.4512C24.9023 5.63965 19.2505 0 12.439 0C5.63965 0 0 5.63965 0 12.4512C0 19.2505 5.65186 24.9023 12.4512 24.9023ZM12.4512 22.8271C6.68945 22.8271 2.0874 18.2129 2.0874 12.4512C2.0874 6.68945 6.67725 2.0752 12.439 2.0752C18.2007 2.0752 22.8271 6.68945 22.8271 12.4512C22.8271 18.2129 18.2129 22.8271 12.4512 22.8271ZM13.6597 16.3818L18.4448 11.3037C18.811 10.9131 18.8232 10.3516 18.4814 10.0098C18.103 9.63135 17.5171 9.61914 17.1753 9.98535L12.4512 14.9902L7.72705 9.98535C7.37305 9.61914 6.7749 9.61914 6.40869 10.0098C6.0791 10.3638 6.09131 10.9131 6.44531 11.3037L11.2427 16.3818C11.9995 17.1997 12.8906 17.1997 13.6597 16.3818Z" fill="#5ac8f5"/>
 </g>
</svg>
