<?xml version="1.0" encoding="UTF-8"?>
<!--Generator: Apple Native CoreSVG 175.5-->
<!DOCTYPE svg
PUBLIC "-//W3C//DTD SVG 1.1//EN"
       "http://www.w3.org/Graphics/SVG/1.1/DTD/svg11.dtd">
<svg version="1.1" xmlns="http://www.w3.org/2000/svg" xmlns:xlink="http://www.w3.org/1999/xlink" width="22.4731" height="22.4976">
 <g>
  <rect height="22.4976" opacity="0" width="22.4731" x="0" y="0"/>
  <path d="M3.83301 22.4976L18.6401 22.4976C21.2036 22.4976 22.4731 21.228 22.4731 18.7134L22.4731 3.80859C22.4731 1.29395 21.2036 0.0244141 18.6401 0.0244141L3.83301 0.0244141C1.28174 0.0244141 0 1.28174 0 3.80859L0 18.7134C0 21.2402 1.28174 22.4976 3.83301 22.4976ZM7.51953 17.9199C7.10449 17.9199 6.83594 17.6147 6.83594 17.1021L6.83594 6.50635C6.83594 5.28564 7.4707 4.63867 8.69141 4.63867L13.7939 4.63867C15.0269 4.63867 15.6616 5.28564 15.6616 6.50635L15.6616 17.1021C15.6616 17.6147 15.3931 17.9199 14.9658 17.9199C14.6362 17.9199 14.4531 17.7246 13.8794 17.1509L11.3037 14.6362C11.2671 14.5996 11.2183 14.5996 11.1816 14.6362L8.61816 17.1509C8.03223 17.7246 7.84912 17.9199 7.51953 17.9199Z" fill="#5ac8f5"/>
 </g>
</svg>
