<?xml version="1.0" encoding="UTF-8"?>
<!--Generator: Apple Native CoreSVG 175.5-->
<!DOCTYPE svg
PUBLIC "-//W3C//DTD SVG 1.1//EN"
       "http://www.w3.org/Graphics/SVG/1.1/DTD/svg11.dtd">
<svg version="1.1" xmlns="http://www.w3.org/2000/svg" xmlns:xlink="http://www.w3.org/1999/xlink" width="22.4731" height="22.4976">
 <g>
  <rect height="22.4976" opacity="0" width="22.4731" x="0" y="0"/>
  <path d="M3.83301 22.4976L18.6401 22.4976C21.2036 22.4976 22.4731 21.228 22.4731 18.7134L22.4731 3.80859C22.4731 1.29395 21.2036 0.0244141 18.6401 0.0244141L3.83301 0.0244141C1.28174 0.0244141 0 1.28174 0 3.80859L0 18.7134C0 21.2402 1.28174 22.4976 3.83301 22.4976ZM3.85742 20.5322C2.63672 20.5322 1.96533 19.8853 1.96533 18.6157L1.96533 3.90625C1.96533 2.63672 2.63672 1.98975 3.85742 1.98975L18.6157 1.98975C19.8242 1.98975 20.5078 2.63672 20.5078 3.90625L20.5078 18.6157C20.5078 19.8853 19.8242 20.5322 18.6157 20.5322Z" fill="#5ac8f5" fill-opacity="0.5"/>
  <path d="M8.3252 16.7114L11.8896 16.7114C14.4165 16.7114 16.04 15.4907 16.04 13.5742C16.04 12.085 15.0391 11.0352 13.4155 10.8398L13.4155 10.7666C14.624 10.4736 15.3687 9.52148 15.3687 8.30078C15.3687 6.62842 14.0137 5.54199 11.9141 5.54199L8.3252 5.54199C7.65381 5.54199 7.25098 5.94482 7.25098 6.64062L7.25098 15.625C7.25098 16.2964 7.65381 16.7114 8.3252 16.7114ZM9.13086 10.2905L9.13086 6.98242L11.5234 6.98242C12.7563 6.98242 13.501 7.60498 13.501 8.60596C13.501 9.68018 12.6099 10.2905 10.9741 10.2905ZM9.13086 15.271L9.13086 11.6333L11.731 11.6333C13.2202 11.6333 14.0869 12.3169 14.0869 13.4888C14.0869 14.7095 13.147 15.271 11.1206 15.271Z" fill="#5ac8f5"/>
 </g>
</svg>
