<?xml version="1.0" encoding="UTF-8"?>
<!--Generator: Apple Native CoreSVG 175.5-->
<!DOCTYPE svg
PUBLIC "-//W3C//DTD SVG 1.1//EN"
       "http://www.w3.org/Graphics/SVG/1.1/DTD/svg11.dtd">
<svg version="1.1" xmlns="http://www.w3.org/2000/svg" xmlns:xlink="http://www.w3.org/1999/xlink" width="29.8462" height="25.9155">
 <g>
  <rect height="25.9155" opacity="0" width="29.8462" x="0" y="0"/>
  <path d="M0.976562 25.9033C1.52588 25.9033 1.96533 25.4639 1.96533 24.9268L1.96533 2.6123C1.96533 2.22168 2.22168 1.96533 2.58789 1.96533L27.2583 1.96533C27.6245 1.96533 27.8809 2.22168 27.8809 2.6123L27.8809 24.9268C27.8809 25.4639 28.3203 25.9033 28.8574 25.9033C29.4067 25.9033 29.8462 25.4639 29.8462 24.9268L29.8462 2.49023C29.8462 1.00098 28.8208 0 27.2827 0L2.55127 0C1.02539 0 0 1.00098 0 2.49023L0 24.9268C0 25.4639 0.439453 25.9033 0.976562 25.9033ZM3.80859 25.4761L13.7939 25.4761C14.0259 25.4761 14.209 25.2808 14.209 25.061L14.209 3.79639C14.209 3.56445 14.0259 3.38135 13.7939 3.38135L3.80859 3.38135C3.57666 3.38135 3.39355 3.56445 3.39355 3.79639L3.39355 25.061C3.39355 25.2808 3.57666 25.4761 3.80859 25.4761ZM6.15234 16.3452C5.81055 16.3452 5.56641 16.1011 5.56641 15.7471L5.56641 13.6108C5.56641 13.2568 5.81055 13.0249 6.15234 13.0249C6.50635 13.0249 6.75049 13.2568 6.75049 13.6108L6.75049 15.7471C6.75049 16.1011 6.50635 16.3452 6.15234 16.3452ZM16.04 25.4761L26.0376 25.4761C26.2695 25.4761 26.4526 25.2808 26.4526 25.061L26.4526 3.79639C26.4526 3.56445 26.2695 3.38135 26.0376 3.38135L16.04 3.38135C15.8203 3.38135 15.6372 3.56445 15.6372 3.79639L15.6372 25.061C15.6372 25.2808 15.8203 25.4761 16.04 25.4761Z" fill="#5ac8f5"/>
 </g>
</svg>
