<?xml version="1.0" encoding="UTF-8"?>
<!--Generator: Apple Native CoreSVG 175.5-->
<!DOCTYPE svg
PUBLIC "-//W3C//DTD SVG 1.1//EN"
       "http://www.w3.org/Graphics/SVG/1.1/DTD/svg11.dtd">
<svg version="1.1" xmlns="http://www.w3.org/2000/svg" xmlns:xlink="http://www.w3.org/1999/xlink" width="26.062" height="21.7896">
 <g>
  <rect height="21.7896" opacity="0" width="26.062" x="0" y="0"/>
  <path d="M1.0376 11.3403C1.62354 11.3403 2.0752 10.8887 2.0752 10.3027L2.0752 9.14307C2.0752 7.04346 3.50342 5.67627 5.71289 5.67627L15.2344 5.67627L15.2344 8.54492C15.2344 9.0332 15.5273 9.31396 16.0278 9.31396C16.2476 9.31396 16.4795 9.22852 16.6504 9.08203L21.2646 5.26123C21.6553 4.94385 21.6797 4.44336 21.2646 4.10156L16.6504 0.268555C16.4795 0.12207 16.2476 0.0488281 16.0278 0.0488281C15.5273 0.0488281 15.2344 0.317383 15.2344 0.817871L15.2344 3.6499L5.9082 3.6499C2.33154 3.6499 0 5.68848 0 8.99658L0 10.3027C0 10.8887 0.439453 11.3403 1.0376 11.3403ZM25.0244 10.4736C24.4263 10.4736 23.9868 10.9131 23.9868 11.5112L23.9868 12.6709C23.9868 14.7705 22.5586 16.1255 20.3369 16.1255L10.8154 16.1255L10.8154 13.2935C10.8154 12.793 10.5347 12.5244 10.0342 12.5244C9.80225 12.5244 9.58252 12.5977 9.39941 12.7441L4.78516 16.5649C4.39453 16.9067 4.38232 17.395 4.78516 17.7246L9.39941 21.5576C9.58252 21.7041 9.80225 21.7896 10.0342 21.7896C10.5347 21.7896 10.8154 21.5088 10.8154 21.0205L10.8154 18.1641L20.1416 18.1641C23.7305 18.1641 26.062 16.1255 26.062 12.8174L26.062 11.5112C26.062 10.9131 25.6104 10.4736 25.0244 10.4736Z" fill="#5ac8f5"/>
 </g>
</svg>
