<?xml version="1.0" encoding="UTF-8"?>
<!--Generator: Apple Native CoreSVG 175.5-->
<!DOCTYPE svg
PUBLIC "-//W3C//DTD SVG 1.1//EN"
       "http://www.w3.org/Graphics/SVG/1.1/DTD/svg11.dtd">
<svg version="1.1" xmlns="http://www.w3.org/2000/svg" xmlns:xlink="http://www.w3.org/1999/xlink" width="22.4731" height="22.4976">
 <g>
  <rect height="22.4976" opacity="0" width="22.4731" x="0" y="0"/>
  <path d="M3.83301 22.4976L18.6401 22.4976C21.2036 22.4976 22.4731 21.228 22.4731 18.7134L22.4731 3.80859C22.4731 1.29395 21.2036 0.0244141 18.6401 0.0244141L3.83301 0.0244141C1.28174 0.0244141 0 1.28174 0 3.80859L0 18.7134C0 21.2402 1.28174 22.4976 3.83301 22.4976Z" fill="#5ac8f5" fill-opacity="0.25"/>
  <path d="M7.23877 15.7959C6.7749 15.7959 6.44531 15.4785 6.44531 15.0269L6.44531 7.88574C6.44531 7.40967 6.7627 7.09229 7.20215 7.09229C7.62939 7.09229 7.94678 7.37305 7.94678 7.92236L7.94678 8.06885C8.3252 7.37305 8.91113 7.05566 9.63135 7.05566C10.4248 7.05566 11.0596 7.39746 11.4014 8.11768L12.9395 4.37012C13.0615 4.08936 13.2446 3.91846 13.5376 3.91846C13.8794 3.91846 14.1479 4.1626 14.1479 4.49219C14.1479 4.61426 14.1113 4.73633 14.0747 4.83398L13.1104 7.15332C13.2812 7.09229 13.4644 7.05566 13.6597 7.05566C15.1245 7.05566 16.0645 8.08105 16.0645 9.76562L16.0645 14.9902C16.0645 15.4785 15.7349 15.7959 15.2832 15.7959C14.8315 15.7959 14.5142 15.4785 14.5142 14.9902L14.5142 9.8877C14.5142 9.021 14.0625 8.47168 13.2935 8.47168C12.5122 8.47168 12.0361 9.04541 12.0361 9.93652L12.0361 14.9902C12.0361 15.4785 11.7188 15.7959 11.2671 15.7959C10.8154 15.7959 10.4858 15.4785 10.4858 14.9902L10.4858 13.8916L8.95996 18.1152C8.8501 18.4082 8.64258 18.5791 8.36182 18.5791C8.02002 18.5791 7.76367 18.3228 7.76367 17.9932C7.76367 17.8711 7.78809 17.749 7.83691 17.6392L10.4858 10.3149L10.4858 9.80225C10.4858 9.021 9.99756 8.45947 9.30176 8.45947C8.49609 8.45947 8.02002 9.08203 8.02002 9.99756L8.02002 14.9902C8.02002 15.4785 7.69043 15.7959 7.23877 15.7959Z" fill="#5ac8f5"/>
 </g>
</svg>
