<?xml version="1.0" encoding="UTF-8"?>
<!--Generator: Apple Native CoreSVG 175.5-->
<!DOCTYPE svg
PUBLIC "-//W3C//DTD SVG 1.1//EN"
       "http://www.w3.org/Graphics/SVG/1.1/DTD/svg11.dtd">
<svg version="1.1" xmlns="http://www.w3.org/2000/svg" xmlns:xlink="http://www.w3.org/1999/xlink" width="23.0103" height="22.9614">
 <g>
  <rect height="22.9614" opacity="0" width="23.0103" x="0" y="0"/>
  <path d="M0 13.7573C0 16.6748 2.30713 18.9331 5.2124 18.9331C6.83594 18.9331 8.5083 18.396 9.21631 16.9678L9.33838 16.9678C9.35059 18.5913 7.56836 19.9341 6.83594 20.6909C5.95703 21.6064 6.49414 22.876 7.62939 22.876L15.3809 22.876C16.5161 22.876 17.041 21.6064 16.1743 20.6909C15.4419 19.9341 13.6597 18.5913 13.6719 16.9678L13.7939 16.9678C14.502 18.396 16.1743 18.9331 17.7856 18.9331C20.7031 18.9331 23.0103 16.6748 23.0103 13.7573C23.0103 10.8276 20.8008 8.34961 17.8833 8.34961C16.7603 8.34961 15.6128 8.72803 14.7217 9.43604C16.2354 8.20312 16.7603 6.65283 16.7603 5.26123C16.7603 2.34375 14.4043 0 11.499 0C8.60596 0 6.25 2.34375 6.25 5.26123C6.25 6.65283 6.7749 8.20312 8.28857 9.43604C7.39746 8.72803 6.25 8.34961 5.12695 8.34961C2.20947 8.34961 0 10.8276 0 13.7573Z" fill="#5ac8f5"/>
 </g>
</svg>
