<?xml version="1.0" encoding="UTF-8"?>
<!--Generator: Apple Native CoreSVG 175.5-->
<!DOCTYPE svg
PUBLIC "-//W3C//DTD SVG 1.1//EN"
       "http://www.w3.org/Graphics/SVG/1.1/DTD/svg11.dtd">
<svg version="1.1" xmlns="http://www.w3.org/2000/svg" xmlns:xlink="http://www.w3.org/1999/xlink" width="27.6733" height="28.9429">
 <g>
  <rect height="28.9429" opacity="0" width="27.6733" x="0" y="0"/>
  <path d="M13.8306 28.9429C20.2759 28.9429 24.5605 24.5483 24.5605 17.9199C24.5605 14.2578 22.937 10.5103 20.3491 8.23975C20.3247 4.8584 17.749 2.81982 13.8306 2.81982C9.91211 2.81982 7.34863 4.87061 7.32422 8.25195C4.73633 10.5225 3.11279 14.209 3.11279 17.9199C3.11279 24.5483 7.39746 28.9429 13.8306 28.9429ZM13.8306 11.145C15.9912 11.145 18.1274 10.73 19.519 10.1074C21.0327 11.6821 22.644 14.4531 22.644 17.9199C22.644 23.3887 19.1162 27.0386 13.8306 27.0386C8.54492 27.0386 5.01709 23.3887 5.01709 17.9199C5.01709 14.4653 6.61621 11.7065 8.1543 10.1074C9.5459 10.73 11.6821 11.145 13.8306 11.145ZM12.9883 27.5757L14.5874 27.5757L14.5874 13.4399C14.5874 13.0005 14.2212 12.6465 13.7817 12.6465C13.3423 12.6465 12.9883 13.0005 12.9883 13.4399ZM9.93652 15.4175C10.791 15.4175 11.4746 14.7095 11.4746 13.8672C11.4746 13.0249 10.791 12.3291 9.93652 12.3291C9.09424 12.3291 8.41064 13.0249 8.41064 13.8672C8.41064 14.7095 9.09424 15.4175 9.93652 15.4175ZM8.48389 20.2515C9.46045 20.2515 10.2661 19.4458 10.2661 18.457C10.2661 17.4683 9.46045 16.6626 8.48389 16.6626C7.48291 16.6626 6.67725 17.4683 6.67725 18.457C6.67725 19.4458 7.48291 20.2515 8.48389 20.2515ZM9.93652 24.4263C10.73 24.4263 11.3647 23.7915 11.3647 23.0103C11.3647 22.2168 10.73 21.582 9.93652 21.582C9.15527 21.582 8.52051 22.2168 8.52051 23.0103C8.52051 23.7915 9.15527 24.4263 9.93652 24.4263ZM17.7368 15.4175C18.5791 15.4175 19.2627 14.7095 19.2627 13.8672C19.2627 13.0249 18.5791 12.3291 17.7368 12.3291C16.8823 12.3291 16.1987 13.0249 16.1987 13.8672C16.1987 14.7095 16.8823 15.4175 17.7368 15.4175ZM19.1895 20.2515C20.1782 20.2515 20.9961 19.4458 20.9961 18.457C20.9961 17.4683 20.1782 16.6626 19.1895 16.6626C18.2129 16.6626 17.395 17.4683 17.395 18.457C17.395 19.4458 18.2129 20.2515 19.1895 20.2515ZM17.7368 24.4263C18.5181 24.4263 19.1528 23.7915 19.1528 23.0103C19.1528 22.2168 18.5181 21.582 17.7368 21.582C16.9434 21.582 16.3086 22.2168 16.3086 23.0103C16.3086 23.7915 16.9434 24.4263 17.7368 24.4263ZM8.45947 2.02637L9.28955 2.33154C9.81445 2.51465 10.022 2.79541 9.92432 3.23486L9.77783 3.84521L11.5723 3.83301L11.6577 3.21045C11.792 2.02637 11.2427 1.14746 10.0342 0.720215L9.06982 0.32959C7.86133-0.0854492 7.2876 1.68457 8.45947 2.02637ZM19.2139 2.02637C20.3857 1.68457 19.812-0.0854492 18.6035 0.32959L17.6392 0.720215C16.4307 1.14746 15.8813 2.02637 16.0156 3.21045L16.1011 3.83301L17.8955 3.84521L17.749 3.23486C17.6514 2.79541 17.8589 2.51465 18.3838 2.33154ZM6.22559 10.5103L3.95508 8.58154C3.50342 8.20312 2.91748 8.1543 2.53906 8.60596C2.17285 9.04541 2.30713 9.64355 2.75879 10.0098L5.06592 11.9507ZM4.00391 16.272L1.00098 16.2842C0.390625 16.2842 0 16.6626 0 17.2119C0 17.7734 0.390625 18.1519 1.01318 18.1519L4.00391 18.1396ZM4.99268 23.4131L2.70996 25.3296C2.27051 25.6958 2.13623 26.2817 2.50244 26.7334C2.88086 27.1851 3.45459 27.1362 3.91846 26.7578L6.16455 24.8535ZM21.4355 10.5103L22.6074 11.9507L24.9146 10.0098C25.354 9.64355 25.5005 9.04541 25.1343 8.60596C24.7559 8.1543 24.1699 8.20312 23.7183 8.58154ZM23.6694 16.272L23.6694 18.1396L26.6602 18.1519C27.2705 18.1519 27.6733 17.7734 27.6733 17.2119C27.6733 16.6626 27.2705 16.2842 26.6724 16.2842ZM22.6685 23.4131L21.4966 24.8413L23.7549 26.7578C24.2065 27.1362 24.7925 27.1851 25.1709 26.7334C25.5371 26.2817 25.4028 25.6958 24.9512 25.3296Z" fill="#5ac8f5"/>
 </g>
</svg>
