<?xml version="1.0" encoding="UTF-8"?>
<!--Generator: Apple Native CoreSVG 175.5-->
<!DOCTYPE svg
PUBLIC "-//W3C//DTD SVG 1.1//EN"
       "http://www.w3.org/Graphics/SVG/1.1/DTD/svg11.dtd">
<svg version="1.1" xmlns="http://www.w3.org/2000/svg" xmlns:xlink="http://www.w3.org/1999/xlink" width="23.6328" height="29.3579">
 <g>
  <rect height="29.3579" opacity="0" width="23.6328" x="0" y="0"/>
  <path d="M6.45752 5.57861L8.39844 5.57861L8.39844 2.96631C8.39844 2.27051 8.88672 1.81885 9.61914 1.81885L13.9893 1.81885C14.7217 1.81885 15.21 2.27051 15.21 2.96631L15.21 5.57861L17.1509 5.57861L17.1509 2.84424C17.1509 1.07422 16.0034 0 14.1235 0L9.48486 0C7.60498 0 6.45752 1.07422 6.45752 2.84424ZM0.915527 6.55518L22.7295 6.55518C23.23 6.55518 23.6328 6.12793 23.6328 5.62744C23.6328 5.12695 23.23 4.71191 22.7295 4.71191L0.915527 4.71191C0.427246 4.71191 0 5.12695 0 5.62744C0 6.14014 0.427246 6.55518 0.915527 6.55518ZM6.22559 27.1851L17.4194 27.1851C19.165 27.1851 20.3369 26.0498 20.4224 24.3042L21.2769 6.32324L19.3115 6.32324L18.4937 24.0967C18.4692 24.8291 17.9443 25.3418 17.2241 25.3418L6.39648 25.3418C5.70068 25.3418 5.17578 24.8169 5.13916 24.0967L4.27246 6.32324L2.35596 6.32324L3.22266 24.3164C3.30811 26.062 4.45557 27.1851 6.22559 27.1851ZM8.20312 23.2544C8.66699 23.2544 8.97217 22.9614 8.95996 22.5342L8.58154 9.47266C8.56934 9.04541 8.26416 8.76465 7.82471 8.76465C7.36084 8.76465 7.05566 9.05762 7.06787 9.48486L7.43408 22.5342C7.44629 22.9736 7.75146 23.2544 8.20312 23.2544ZM11.8164 23.2544C12.2803 23.2544 12.6099 22.9614 12.6099 22.5342L12.6099 9.48486C12.6099 9.05762 12.2803 8.76465 11.8164 8.76465C11.3525 8.76465 11.0352 9.05762 11.0352 9.48486L11.0352 22.5342C11.0352 22.9614 11.3525 23.2544 11.8164 23.2544ZM15.4419 23.2544C15.8813 23.2544 16.1865 22.9736 16.1987 22.5342L16.5649 9.48486C16.5771 9.05762 16.272 8.76465 15.8081 8.76465C15.3687 8.76465 15.0635 9.04541 15.0513 9.48486L14.6851 22.5342C14.6729 22.9614 14.978 23.2544 15.4419 23.2544Z" fill="#5ac8f5"/>
 </g>
</svg>
