<?xml version="1.0" encoding="UTF-8"?>
<!--Generator: Apple Native CoreSVG 175.5-->
<!DOCTYPE svg
PUBLIC "-//W3C//DTD SVG 1.1//EN"
       "http://www.w3.org/Graphics/SVG/1.1/DTD/svg11.dtd">
<svg version="1.1" xmlns="http://www.w3.org/2000/svg" xmlns:xlink="http://www.w3.org/1999/xlink" width="12.2559" height="27.0386">
 <g>
  <rect height="27.0386" opacity="0" width="12.2559" x="0" y="0"/>
  <path d="M0 24.3286C0 25.9399 1.07422 26.9653 2.7832 26.9653L9.47266 26.9653C11.1694 26.9653 12.2559 25.9399 12.2559 24.3286L12.2559 2.63672C12.2559 1.0376 11.1694 0 9.47266 0L2.7832 0C1.07422 0 0 1.0376 0 2.63672ZM1.80664 24.0723L1.80664 2.89307C1.80664 2.20947 2.2583 1.78223 2.99072 1.78223L9.26514 1.78223C9.99756 1.78223 10.4492 2.20947 10.4492 2.89307L10.4492 24.0723C10.4492 24.7559 9.99756 25.1831 9.26514 25.1831L2.99072 25.1831C2.2583 25.1831 1.80664 24.7559 1.80664 24.0723ZM4.1748 14.4775C4.95605 14.4775 5.59082 13.8306 5.59082 13.0493C5.59082 12.2681 4.95605 11.6211 4.1748 11.6211C3.38135 11.6211 2.73438 12.2681 2.73438 13.0493C2.73438 13.8306 3.38135 14.4775 4.1748 14.4775ZM8.10547 14.4775C8.88672 14.4775 9.52148 13.8306 9.52148 13.0493C9.52148 12.2681 8.88672 11.6211 8.10547 11.6211C7.31201 11.6211 6.66504 12.2681 6.66504 13.0493C6.66504 13.8306 7.31201 14.4775 8.10547 14.4775ZM6.12793 10.0952C8.00781 10.0952 9.52148 8.58154 9.52148 6.70166C9.52148 4.82178 8.00781 3.30811 6.12793 3.30811C4.26025 3.30811 2.73438 4.82178 2.73438 6.70166C2.73438 8.58154 4.26025 10.0952 6.12793 10.0952ZM6.14014 8.06885C5.3833 8.06885 4.76074 7.4585 4.76074 6.70166C4.76074 5.94482 5.3833 5.33447 6.14014 5.33447C6.89697 5.33447 7.50732 5.94482 7.50732 6.70166C7.50732 7.4585 6.89697 8.06885 6.14014 8.06885Z" fill="#5ac8f5"/>
 </g>
</svg>
