<?xml version="1.0" encoding="UTF-8"?>
<!--Generator: Apple Native CoreSVG 175.5-->
<!DOCTYPE svg
PUBLIC "-//W3C//DTD SVG 1.1//EN"
       "http://www.w3.org/Graphics/SVG/1.1/DTD/svg11.dtd">
<svg version="1.1" xmlns="http://www.w3.org/2000/svg" xmlns:xlink="http://www.w3.org/1999/xlink" width="24.9023" height="24.9146">
 <g>
  <rect height="24.9146" opacity="0" width="24.9023" x="0" y="0"/>
  <path d="M12.4512 24.9023C19.2627 24.9023 24.9023 19.2505 24.9023 12.4512C24.9023 5.63965 19.2505 0 12.439 0C5.63965 0 0 5.63965 0 12.4512C0 19.2505 5.65186 24.9023 12.4512 24.9023ZM12.4512 22.8271C6.68945 22.8271 2.0874 18.2129 2.0874 12.4512C2.0874 6.68945 6.67725 2.0752 12.439 2.0752C18.2007 2.0752 22.8271 6.68945 22.8271 12.4512C22.8271 18.2129 18.2129 22.8271 12.4512 22.8271Z" fill="#5ac8f5" fill-opacity="0.5"/>
  <path d="M6.4209 15.2832C6.78711 15.6738 7.38525 15.6738 7.72705 15.3076L12.4512 10.3027L17.1753 15.3076C17.5293 15.6738 18.1274 15.6738 18.4814 15.2832C18.8232 14.9536 18.811 14.3799 18.4448 14.0015L13.6597 8.91113C12.8906 8.10547 12.0117 8.10547 11.2549 8.91113L6.45752 14.0015C6.09131 14.3799 6.0791 14.9536 6.4209 15.2832Z" fill="#5ac8f5"/>
 </g>
</svg>
