<?xml version="1.0" encoding="UTF-8"?>
<!--Generator: Apple Native CoreSVG 175.5-->
<!DOCTYPE svg
PUBLIC "-//W3C//DTD SVG 1.1//EN"
       "http://www.w3.org/Graphics/SVG/1.1/DTD/svg11.dtd">
<svg version="1.1" xmlns="http://www.w3.org/2000/svg" xmlns:xlink="http://www.w3.org/1999/xlink" width="32.6538" height="25.5737">
 <g>
  <rect height="25.5737" opacity="0" width="32.6538" x="0" y="0"/>
  <path d="M19.165 25.5737L31.9336 25.5737C32.3242 25.5737 32.6538 25.2686 32.6538 24.8535C32.6538 24.4385 32.3242 24.1211 31.9336 24.1211L19.165 24.1211C18.7744 24.1211 18.4448 24.4385 18.4448 24.8535C18.4448 25.2686 18.7744 25.5737 19.165 25.5737Z" fill="#5ac8f5"/>
  <path d="M2.06299 21.5088L8.42285 21.5088C12.1582 21.5088 14.5142 19.5435 14.5142 16.5283C14.5142 14.1479 12.793 12.4268 10.3149 12.2925L10.3149 12.1948C12.3413 11.9141 13.7207 10.3882 13.7207 8.44727C13.7207 5.7251 11.6333 4.05273 8.25195 4.05273L2.06299 4.05273C0.756836 4.05273 0 4.82178 0 6.16455L0 19.4092C0 20.7397 0.756836 21.5088 2.06299 21.5088ZM4.02832 18.689L4.02832 13.8428L7.09229 13.8428C9.22852 13.8428 10.4248 14.6729 10.4248 16.2354C10.4248 17.8345 9.27734 18.689 7.17773 18.689ZM4.02832 11.3037L4.02832 6.92139L7.03125 6.92139C8.74023 6.92139 9.75342 7.70264 9.75342 9.04541C9.75342 10.4614 8.63037 11.3037 6.72607 11.3037ZM25.5493 21.8262C29.9438 21.8262 32.6538 19.1895 32.6538 15.3564L32.6538 4.89502C32.6538 4.21143 32.2021 3.77197 31.5186 3.77197C30.835 3.77197 30.3955 4.21143 30.3955 4.89502L30.3955 15.1733C30.3955 17.8955 28.6011 19.7388 25.5493 19.7388C22.4976 19.7388 20.7031 17.8955 20.7031 15.1733L20.7031 4.89502C20.7031 4.21143 20.2393 3.77197 19.5557 3.77197C18.8721 3.77197 18.4448 4.21143 18.4448 4.89502L18.4448 15.3564C18.4448 19.1895 21.1548 21.8262 25.5493 21.8262Z" fill="#5ac8f5" fill-opacity="0.5"/>
 </g>
</svg>
