<?xml version="1.0" encoding="UTF-8"?>
<!--Generator: Apple Native CoreSVG 175.5-->
<!DOCTYPE svg
PUBLIC "-//W3C//DTD SVG 1.1//EN"
       "http://www.w3.org/Graphics/SVG/1.1/DTD/svg11.dtd">
<svg version="1.1" xmlns="http://www.w3.org/2000/svg" xmlns:xlink="http://www.w3.org/1999/xlink" width="24.9023" height="24.8901">
 <g>
  <rect height="24.8901" opacity="0" width="24.9023" x="0" y="0"/>
  <path d="M0.012207 12.2925C1.08643 10.8154 2.44141 9.44824 3.91846 8.3252C3.90625 8.27637 3.90625 8.21533 3.89404 8.1543C3.84521 7.26318 3.27148 5.52979 2.23389 5.3833C0.90332 7.2876 0.0854492 9.57031 0 12.0239C0 12.1216 0 12.207 0.012207 12.2925ZM5.2002 7.42188C5.59082 7.16553 5.99365 6.92139 6.39648 6.70166C6.14014 4.49219 6.23779 2.69775 6.61621 1.46484C5.26123 2.19727 4.06494 3.16162 3.05176 4.30908C4.27246 4.63867 4.95605 6.20117 5.2002 7.42188ZM7.69043 6.05469C8.28857 5.77393 8.91113 5.52979 9.5459 5.32227C9.52148 5.06592 9.49707 4.82178 9.49707 4.56543C9.49707 2.6123 10.5469 0.98877 12.1826 0C12.0972 0 12.0361 0 11.9507 0C10.5835 0.0488281 9.25293 0.32959 8.03223 0.805664C7.70264 1.89209 7.4585 3.62549 7.69043 6.05469ZM10.9253 4.90723C12.4512 4.5166 14.0503 4.30908 15.7104 4.30908C18.1885 4.30908 20.6543 4.79736 22.8638 5.70068C21.0938 2.97852 18.2983 0.976562 15.0391 0.268555C12.4634 1.01318 10.8398 2.39258 10.9009 4.56543C10.9009 4.67529 10.9131 4.79736 10.9253 4.90723ZM3.89404 10.144C2.49023 11.3892 1.18408 12.8784 0.170898 14.502C0.646973 17.2852 2.0874 19.7876 4.12598 21.6431C2.64893 18.1763 3.71094 13.855 3.89404 10.144ZM5.33447 9.00879C5.37109 14.5874 2.85645 20.9839 8.25195 24.0845C9.5459 24.5972 10.9741 24.8901 12.4512 24.8901C13.1348 24.8901 13.8062 24.8413 14.4531 24.7314C9.79004 19.043 7.44629 12.915 6.61621 8.17871C6.17676 8.43506 5.74951 8.70361 5.33447 9.00879ZM9.92432 6.65283C9.22852 6.89697 8.53271 7.17773 7.87354 7.50732C8.61816 12.1094 10.9619 18.4692 15.979 24.3652C18.6401 23.5718 20.9473 21.8872 22.5464 19.6533C22.3633 13.6475 12.146 11.853 9.92432 6.65283ZM23.645 17.8345C24.4507 16.1865 24.9023 14.3677 24.9023 12.439C24.9023 10.7788 24.5728 9.17969 23.9502 7.73926C21.3501 6.38428 18.6646 5.71289 15.7104 5.71289C14.1846 5.71289 12.7075 5.896 11.3037 6.25C13.2446 10.2661 21.8384 12.0728 23.645 17.8345Z" fill="#5ac8f5"/>
 </g>
</svg>
