<?xml version="1.0" encoding="UTF-8"?>
<!--Generator: Apple Native CoreSVG 175.5-->
<!DOCTYPE svg
PUBLIC "-//W3C//DTD SVG 1.1//EN"
       "http://www.w3.org/Graphics/SVG/1.1/DTD/svg11.dtd">
<svg version="1.1" xmlns="http://www.w3.org/2000/svg" xmlns:xlink="http://www.w3.org/1999/xlink" width="20.5322" height="26.1841">
 <g>
  <rect height="26.1841" opacity="0" width="20.5322" x="0" y="0"/>
  <path d="M3.78418 26.1719L16.748 26.1719C19.2627 26.1719 20.5322 24.8901 20.5322 22.3511L20.5322 3.83301C20.5322 1.28174 19.2749 0 16.748 0L13.6475 0C13.2324 0 12.9517 0.292969 12.9517 0.732422C12.9517 0.793457 12.9517 0.854492 12.9517 0.90332C12.9517 2.49023 11.8774 3.44238 10.2661 3.44238C8.65479 3.44238 7.58057 2.49023 7.58057 0.90332C7.58057 0.854492 7.58057 0.793457 7.58057 0.732422C7.58057 0.292969 7.2998 0 6.88477 0L3.78418 0C1.25732 0 0 1.28174 0 3.83301L0 22.3511C0 24.8901 1.26953 26.1719 3.78418 26.1719ZM5.63965 9.09424C5.2002 9.09424 4.88281 8.76465 4.88281 8.3252C4.88281 7.91016 5.2002 7.58057 5.63965 7.58057L14.9048 7.58057C15.332 7.58057 15.6494 7.91016 15.6494 8.3252C15.6494 8.76465 15.332 9.09424 14.9048 9.09424ZM5.63965 13.4277C5.2002 13.4277 4.88281 13.0981 4.88281 12.6831C4.88281 12.2559 5.2002 11.9263 5.63965 11.9263L10.022 11.9263C10.4614 11.9263 10.7788 12.2559 10.7788 12.6831C10.7788 13.0981 10.4614 13.4277 10.022 13.4277Z" fill="#5ac8f5"/>
 </g>
</svg>
