<?xml version="1.0" encoding="UTF-8"?>
<!--Generator: Apple Native CoreSVG 175.5-->
<!DOCTYPE svg
PUBLIC "-//W3C//DTD SVG 1.1//EN"
       "http://www.w3.org/Graphics/SVG/1.1/DTD/svg11.dtd">
<svg version="1.1" xmlns="http://www.w3.org/2000/svg" xmlns:xlink="http://www.w3.org/1999/xlink" width="28.7842" height="22.4976">
 <g>
  <rect height="22.4976" opacity="0" width="28.7842" x="0" y="0"/>
  <path d="M3.83301 22.4976L24.9512 22.4976C27.5146 22.4976 28.7842 21.228 28.7842 18.7134L28.7842 3.80859C28.7842 1.29395 27.5146 0.0244141 24.9512 0.0244141L3.83301 0.0244141C1.28174 0.0244141 0 1.28174 0 3.80859L0 18.7134C0 21.2402 1.28174 22.4976 3.83301 22.4976ZM3.85742 20.5322C2.63672 20.5322 1.96533 19.8853 1.96533 18.6157L1.96533 3.90625C1.96533 2.63672 2.63672 1.98975 3.85742 1.98975L24.9268 1.98975C26.1353 1.98975 26.8188 2.63672 26.8188 3.90625L26.8188 18.6157C26.8188 19.8853 26.1353 20.5322 24.9268 20.5322ZM4.98047 6.72607L6.18896 6.72607C6.54297 6.72607 6.82373 6.48193 6.82373 6.14014L6.82373 4.89502C6.82373 4.54102 6.54297 4.30908 6.18896 4.30908L4.98047 4.30908C4.65088 4.30908 4.39453 4.55322 4.39453 4.89502L4.39453 6.14014C4.39453 6.46973 4.65088 6.72607 4.98047 6.72607ZM9.375 6.72607L10.5835 6.72607C10.9497 6.72607 11.2183 6.48193 11.2183 6.14014L11.2183 4.89502C11.2183 4.54102 10.9497 4.30908 10.5835 4.30908L9.375 4.30908C9.04541 4.30908 8.78906 4.55322 8.78906 4.89502L8.78906 6.14014C8.78906 6.46973 9.04541 6.72607 9.375 6.72607ZM13.7695 6.72607L14.978 6.72607C15.332 6.72607 15.6006 6.48193 15.6006 6.14014L15.6006 4.89502C15.6006 4.54102 15.332 4.30908 14.978 4.30908L13.7695 4.30908C13.4277 4.30908 13.1836 4.55322 13.1836 4.89502L13.1836 6.14014C13.1836 6.46973 13.4277 6.72607 13.7695 6.72607ZM18.1519 6.72607L19.3604 6.72607C19.7266 6.72607 19.9951 6.48193 19.9951 6.14014L19.9951 4.89502C19.9951 4.54102 19.7266 4.30908 19.3604 4.30908L18.1519 4.30908C17.8223 4.30908 17.5659 4.55322 17.5659 4.89502L17.5659 6.14014C17.5659 6.46973 17.8223 6.72607 18.1519 6.72607ZM22.5464 6.72607L23.7549 6.72607C24.1089 6.72607 24.3774 6.48193 24.3774 6.14014L24.3774 4.89502C24.3774 4.54102 24.1089 4.30908 23.7549 4.30908L22.5464 4.30908C22.2046 4.30908 21.9604 4.55322 21.9604 4.89502L21.9604 6.14014C21.9604 6.46973 22.2046 6.72607 22.5464 6.72607ZM4.98047 10.7544L6.18896 10.7544C6.54297 10.7544 6.82373 10.5103 6.82373 10.1685L6.82373 8.92334C6.82373 8.56934 6.54297 8.3374 6.18896 8.3374L4.98047 8.3374C4.65088 8.3374 4.39453 8.58154 4.39453 8.92334L4.39453 10.1685C4.39453 10.498 4.65088 10.7544 4.98047 10.7544ZM9.375 10.7544L10.5835 10.7544C10.9497 10.7544 11.2183 10.5103 11.2183 10.1685L11.2183 8.92334C11.2183 8.56934 10.9497 8.3374 10.5835 8.3374L9.375 8.3374C9.04541 8.3374 8.78906 8.58154 8.78906 8.92334L8.78906 10.1685C8.78906 10.498 9.04541 10.7544 9.375 10.7544ZM13.7695 10.7544L14.978 10.7544C15.332 10.7544 15.6006 10.5103 15.6006 10.1685L15.6006 8.92334C15.6006 8.56934 15.332 8.3374 14.978 8.3374L13.7695 8.3374C13.4277 8.3374 13.1836 8.58154 13.1836 8.92334L13.1836 10.1685C13.1836 10.498 13.4277 10.7544 13.7695 10.7544ZM18.1519 10.7544L19.3604 10.7544C19.7266 10.7544 19.9951 10.5103 19.9951 10.1685L19.9951 8.92334C19.9951 8.56934 19.7266 8.3374 19.3604 8.3374L18.1519 8.3374C17.8223 8.3374 17.5659 8.58154 17.5659 8.92334L17.5659 10.1685C17.5659 10.498 17.8223 10.7544 18.1519 10.7544ZM4.98047 18.2129L6.18896 18.2129C6.54297 18.2129 6.82373 17.9688 6.82373 17.627L6.82373 16.3818C6.82373 16.0278 6.54297 15.7837 6.18896 15.7837L4.98047 15.7837C4.65088 15.7837 4.39453 16.04 4.39453 16.3818L4.39453 17.627C4.39453 17.9565 4.65088 18.2129 4.98047 18.2129ZM9.375 18.2129L10.5835 18.2129C10.9497 18.2129 11.2183 17.9688 11.2183 17.627L11.2183 16.3818C11.2183 16.0278 10.9497 15.7837 10.5835 15.7837L9.375 15.7837C9.04541 15.7837 8.78906 16.04 8.78906 16.3818L8.78906 17.627C8.78906 17.9565 9.04541 18.2129 9.375 18.2129ZM13.7695 18.2129L14.978 18.2129C15.332 18.2129 15.6006 17.9688 15.6006 17.627L15.6006 16.3818C15.6006 16.0278 15.332 15.7837 14.978 15.7837L13.7695 15.7837C13.4277 15.7837 13.1836 16.04 13.1836 16.3818L13.1836 17.627C13.1836 17.9565 13.4277 18.2129 13.7695 18.2129ZM18.1519 18.2129L19.3604 18.2129C19.7266 18.2129 19.9951 17.9688 19.9951 17.627L19.9951 16.3818C19.9951 16.0278 19.7266 15.7837 19.3604 15.7837L18.1519 15.7837C17.8223 15.7837 17.5659 16.04 17.5659 16.3818L17.5659 17.627C17.5659 17.9565 17.8223 18.2129 18.1519 18.2129ZM22.5464 18.2129L23.7549 18.2129C24.1089 18.2129 24.3774 17.9688 24.3774 17.627L24.3774 16.3818C24.3774 16.0278 24.1089 15.7837 23.7549 15.7837L22.5464 15.7837C22.2046 15.7837 21.9604 16.04 21.9604 16.3818L21.9604 17.627C21.9604 17.9565 22.2046 18.2129 22.5464 18.2129Z" fill="#5ac8f5"/>
 </g>
</svg>
