<?xml version="1.0" encoding="UTF-8"?>
<!--Generator: Apple Native CoreSVG 175.5-->
<!DOCTYPE svg
PUBLIC "-//W3C//DTD SVG 1.1//EN"
       "http://www.w3.org/Graphics/SVG/1.1/DTD/svg11.dtd">
<svg version="1.1" xmlns="http://www.w3.org/2000/svg" xmlns:xlink="http://www.w3.org/1999/xlink" width="28.894" height="27.7466">
 <g>
  <rect height="27.7466" opacity="0" width="28.894" x="0" y="0"/>
  <path d="M23.8159 24.6948C24.3652 24.6948 24.8169 24.2554 24.8169 23.7183C24.8169 23.1689 24.3652 22.7173 23.8159 22.7173L22.3267 22.7173L22.3267 14.624C22.3267 10.1685 18.8965 6.72607 14.4409 6.72607C9.99756 6.72607 6.56738 10.1685 6.56738 14.624L6.56738 22.7173L5.05371 22.7173C4.5166 22.7173 4.08936 23.1689 4.08936 23.7183C4.08936 24.2554 4.5166 24.6948 5.05371 24.6948Z" fill="#5ac8f5"/>
  <path d="M15.4663 14.6606L15.4663 22.7173L13.4399 22.7173L13.4399 14.6606C13.4399 14.0991 13.8794 13.6353 14.4409 13.6353C15.0024 13.6353 15.4663 14.0991 15.4663 14.6606Z" fill="#1e1e1e"/>
  <path d="M3.38135 15.5029C3.95508 15.5029 4.45557 15.0269 4.45557 14.4653C4.45557 13.8794 3.95508 13.4033 3.38135 13.4033L1.0376 13.4033C0.476074 13.4033 0 13.8916 0 14.4653C0 15.0146 0.476074 15.5029 1.0376 15.5029ZM5.88379 7.38525C6.28662 7.78809 6.95801 7.80029 7.36084 7.38525C7.77588 6.97021 7.76367 6.31104 7.36084 5.9082L5.71289 4.24805C5.32227 3.83301 4.63867 3.83301 4.22363 4.24805C3.8208 4.66309 3.8208 5.31006 4.22363 5.7251ZM13.3911 3.40576C13.3911 3.97949 13.8672 4.46777 14.4409 4.46777C15.0269 4.46777 15.5029 3.97949 15.5029 3.40576L15.5029 1.06201C15.5029 0.488281 15.0146 0 14.4409 0C13.8672 0 13.3911 0.488281 13.3911 1.06201ZM21.5088 5.9082C21.106 6.31104 21.0938 6.97021 21.5088 7.38525C21.936 7.80029 22.583 7.78809 22.9858 7.38525L24.6582 5.7251C25.061 5.31006 25.061 4.66309 24.6582 4.24805C24.231 3.83301 23.584 3.83301 23.1812 4.24805ZM27.832 15.5029C28.4058 15.5029 28.894 15.0146 28.894 14.4653C28.894 13.8916 28.4058 13.4033 27.832 13.4033L25.4883 13.4033C24.9268 13.4033 24.4385 13.8794 24.4385 14.4653C24.4385 15.0269 24.9268 15.5029 25.4883 15.5029Z" fill="#5ac8f5" fill-opacity="0.5"/>
 </g>
</svg>
