<?xml version="1.0" encoding="UTF-8"?>
<!--Generator: Apple Native CoreSVG 175.5-->
<!DOCTYPE svg
PUBLIC "-//W3C//DTD SVG 1.1//EN"
       "http://www.w3.org/Graphics/SVG/1.1/DTD/svg11.dtd">
<svg version="1.1" xmlns="http://www.w3.org/2000/svg" xmlns:xlink="http://www.w3.org/1999/xlink" width="26.431" height="26.1108">
 <g>
  <rect height="26.1108" opacity="0" width="26.431" x="0" y="0"/>
  <path d="M26.1955 12.2803C26.7571 10.5103 26.3176 9.09424 24.8406 8.02002L15.49 1.14746C13.9641 0.012207 12.4626 0.012207 10.9245 1.14746L1.57395 8.02002C0.109109 9.09424-0.330344 10.5225 0.243386 12.3291L3.82005 23.4741C4.36936 25.2197 5.59007 26.1108 7.44553 26.1108L18.9812 26.1108C20.8366 26.1108 22.0451 25.2197 22.6067 23.4741ZM13.2195 2.27051L13.2195 24.1455L7.44553 24.1455C6.45677 24.1455 5.96848 23.8037 5.66331 22.876L2.09886 11.7188C1.78147 10.7666 1.96458 10.1929 2.77024 9.59473L12.1086 2.70996C12.5115 2.40479 12.8777 2.27051 13.2195 2.27051Z" fill="#5ac8f5"/>
 </g>
</svg>
