<?xml version="1.0" encoding="UTF-8"?>
<!--Generator: Apple Native CoreSVG 175.5-->
<!DOCTYPE svg
PUBLIC "-//W3C//DTD SVG 1.1//EN"
       "http://www.w3.org/Graphics/SVG/1.1/DTD/svg11.dtd">
<svg version="1.1" xmlns="http://www.w3.org/2000/svg" xmlns:xlink="http://www.w3.org/1999/xlink" width="24.9023" height="24.9146">
 <g>
  <rect height="24.9146" opacity="0" width="24.9023" x="0" y="0"/>
  <path d="M12.4512 24.9023C19.2627 24.9023 24.9023 19.2505 24.9023 12.4512C24.9023 5.63965 19.2505 0 12.439 0C5.63965 0 0 5.63965 0 12.4512C0 19.2505 5.65186 24.9023 12.4512 24.9023ZM12.4512 22.8271C6.68945 22.8271 2.0874 18.2129 2.0874 12.4512C2.0874 6.68945 6.67725 2.0752 12.439 2.0752C18.2007 2.0752 22.8271 6.68945 22.8271 12.4512C22.8271 18.2129 18.2129 22.8271 12.4512 22.8271Z" fill="#5ac8f5" fill-opacity="0.5"/>
  <path d="M6.17676 17.4316L11.2183 17.4316C11.6089 17.4316 11.9019 17.1387 11.9019 16.6992C11.9019 16.2476 11.6089 15.9912 11.2183 15.9912L7.67822 15.9912L7.67822 15.9058L10.0708 13.1226C10.9741 12.0728 11.6455 11.1938 11.6455 9.97314C11.6455 8.27637 10.4004 7.18994 8.48389 7.18994C7.03125 7.18994 5.7373 8.11768 5.41992 9.36279C5.39551 9.52148 5.35889 9.65576 5.35889 9.80225C5.35889 10.2417 5.62744 10.5347 6.04248 10.5347C6.39648 10.5347 6.57959 10.3271 6.73828 9.96094C7.05566 9.04541 7.66602 8.59375 8.54492 8.59375C9.53369 8.59375 10.1685 9.2041 10.1685 10.1074C10.1685 10.9009 9.52148 11.5845 8.94775 12.2681L5.7251 16.0522C5.54199 16.2598 5.45654 16.4673 5.45654 16.7114C5.45654 17.1509 5.7373 17.4316 6.17676 17.4316ZM16.5039 17.7124C18.6035 17.7124 19.9951 15.6982 19.9951 12.4512C19.9951 9.2041 18.6035 7.18994 16.5039 7.18994C14.4043 7.18994 13.0127 9.2041 13.0127 12.4512C13.0127 15.6982 14.4043 17.7124 16.5039 17.7124ZM16.5039 16.2354C15.3442 16.2354 14.6118 14.7949 14.6118 12.4512C14.6118 10.1074 15.3442 8.66699 16.5039 8.66699C17.6758 8.66699 18.396 10.1074 18.396 12.4512C18.396 14.7949 17.688 16.2354 16.5039 16.2354Z" fill="#5ac8f5"/>
 </g>
</svg>
