<?xml version="1.0" encoding="UTF-8"?>
<!--Generator: Apple Native CoreSVG 175.5-->
<!DOCTYPE svg
PUBLIC "-//W3C//DTD SVG 1.1//EN"
       "http://www.w3.org/Graphics/SVG/1.1/DTD/svg11.dtd">
<svg version="1.1" xmlns="http://www.w3.org/2000/svg" xmlns:xlink="http://www.w3.org/1999/xlink" width="24.9023" height="24.9146">
 <g>
  <rect height="24.9146" opacity="0" width="24.9023" x="0" y="0"/>
  <path d="M12.4512 24.9023C19.2627 24.9023 24.9023 19.2505 24.9023 12.4512C24.9023 5.63965 19.2505 0 12.439 0C5.63965 0 0 5.63965 0 12.4512C0 19.2505 5.65186 24.9023 12.4512 24.9023ZM12.4512 22.8271C6.68945 22.8271 2.0874 18.2129 2.0874 12.4512C2.0874 6.68945 6.67725 2.0752 12.439 2.0752C18.2007 2.0752 22.8271 6.68945 22.8271 12.4512C22.8271 18.2129 18.2129 22.8271 12.4512 22.8271Z" fill="#5ac8f5" fill-opacity="0.5"/>
  <path d="M7.32422 17.3828L13.7817 17.3828C15.0024 17.3828 15.7227 16.6748 15.7227 15.4663L15.7227 9.46045C15.7227 8.25195 15.0635 7.55615 13.8428 7.55615L7.32422 7.55615C6.16455 7.55615 5.3833 8.25195 5.3833 9.46045L5.3833 15.4663C5.3833 16.6748 6.11572 17.3828 7.32422 17.3828ZM16.4062 14.1357L18.7866 16.1499C19.0063 16.333 19.2383 16.4551 19.458 16.4551C19.9341 16.4551 20.2393 16.1133 20.2393 15.6006L20.2393 9.31396C20.2393 8.81348 19.9341 8.47168 19.458 8.47168C19.2383 8.47168 18.9941 8.59375 18.7866 8.76465L16.4062 10.791Z" fill="#5ac8f5"/>
 </g>
</svg>
