<?xml version="1.0" encoding="UTF-8"?>
<!--Generator: Apple Native CoreSVG 175.5-->
<!DOCTYPE svg
PUBLIC "-//W3C//DTD SVG 1.1//EN"
       "http://www.w3.org/Graphics/SVG/1.1/DTD/svg11.dtd">
<svg version="1.1" xmlns="http://www.w3.org/2000/svg" xmlns:xlink="http://www.w3.org/1999/xlink" width="31.8726" height="28.772">
 <g>
  <rect height="28.772" opacity="0" width="31.8726" x="0" y="0"/>
  <path d="M9.81445 3.13721C12.9517 3.13721 15.4663 2.45361 15.4663 1.5625C15.4663 0.671387 12.9517 0 9.81445 0C6.68945 0 4.1748 0.671387 4.1748 1.5625C4.1748 2.45361 6.68945 3.13721 9.81445 3.13721ZM0 17.2241C0 23.1323 3.61328 25.0732 9.99756 25.0732C8.82568 23.0713 8.1665 20.7642 8.1665 18.4082C8.1665 11.4624 12.3413 7.39746 19.6045 7.03125C19.4946 5.22461 18.9575 3.94287 18.2251 3.00293C17.9321 2.62451 17.4561 2.6001 17.1021 2.90527C15.9302 3.93066 12.8662 4.79736 9.81445 4.79736C6.7627 4.79736 3.69873 3.93066 2.53906 2.90527C2.17285 2.6001 1.70898 2.62451 1.41602 3.00293C0.549316 4.08936 0 5.65186 0 7.94678ZM20.9351 11.5723C23.9868 11.5723 26.1475 10.9497 26.1475 10.1562C26.1475 9.33838 23.9868 8.72803 20.9351 8.72803C17.8711 8.72803 15.7104 9.33838 15.7104 10.1562C15.7104 10.9497 17.8711 11.5723 20.9351 11.5723ZM20.9351 28.7109C24.9756 28.7109 26.6724 28.1982 28.2837 26.6968C30.542 24.6338 31.8726 21.6431 31.8726 18.4692C31.8726 15.8569 30.9814 13.4155 29.248 11.4258C28.833 10.9253 28.4058 10.8887 27.9541 11.2061C26.3184 12.4512 24.5117 13.0981 20.9351 13.0981C17.3462 13.0981 15.5396 12.4512 13.9038 11.2061C13.4644 10.8887 13.0249 10.9253 12.6099 11.4258C10.8887 13.4155 9.98535 15.8569 9.98535 18.4692C9.98535 21.6431 11.3159 24.6338 13.5742 26.6968C15.1855 28.1982 16.8945 28.7109 20.9351 28.7109Z" fill="#5ac8f5"/>
 </g>
</svg>
