<?xml version="1.0" encoding="UTF-8"?>
<!--Generator: Apple Native CoreSVG 175.5-->
<!DOCTYPE svg
PUBLIC "-//W3C//DTD SVG 1.1//EN"
       "http://www.w3.org/Graphics/SVG/1.1/DTD/svg11.dtd">
<svg version="1.1" xmlns="http://www.w3.org/2000/svg" xmlns:xlink="http://www.w3.org/1999/xlink" width="29.1016" height="25.4517">
 <g>
  <rect height="25.4517" opacity="0" width="29.1016" x="0" y="0"/>
  <path d="M2.80762 21.1182L26.2817 21.1182C28.0396 21.1182 29.1016 20.0562 29.1016 18.2983L29.1016 3.66211C29.1016 1.9043 28.0396 0.854492 26.2817 0.854492L2.80762 0.854492C1.06201 0.854492 0 1.9043 0 3.66211L0 18.2983C0 20.0562 1.06201 21.1182 2.80762 21.1182ZM2.84424 19.1528C2.30713 19.1528 1.96533 18.811 1.96533 18.2739L1.96533 3.69873C1.96533 3.14941 2.30713 2.81982 2.84424 2.81982L26.2573 2.81982C26.7944 2.81982 27.1362 3.14941 27.1362 3.69873L27.1362 18.2739C27.1362 18.811 26.7944 19.1528 26.2573 19.1528ZM10.6934 24.0234L18.4082 24.0234L18.4082 20.9595L10.6934 20.9595ZM10.6201 25.4517L18.4814 25.4517C19.0186 25.4517 19.458 25.0122 19.458 24.4629C19.458 23.9136 19.0186 23.4741 18.4814 23.4741L10.6201 23.4741C10.083 23.4741 9.63135 23.9136 9.63135 24.4629C9.63135 25.0122 10.083 25.4517 10.6201 25.4517ZM12.4878 15.1245L16.626 15.1245C17.2852 15.1245 17.6147 14.7705 17.6147 14.0747L17.6147 10.9009C17.6147 10.3638 17.4072 10.0464 17.0166 9.8999L17.0166 9.08203C17.0166 7.43408 16.0156 6.31104 14.563 6.31104C13.0981 6.31104 12.1094 7.43408 12.1094 9.08203L12.1094 9.92432C11.7065 10.0464 11.499 10.3638 11.499 10.9009L11.499 14.0747C11.499 14.7705 11.8286 15.1245 12.4878 15.1245ZM13.3179 9.86328L13.3179 8.97217C13.3179 8.05664 13.7939 7.48291 14.563 7.48291C15.3076 7.48291 15.8081 8.05664 15.8081 8.97217L15.8081 9.86328Z" fill="#5ac8f5"/>
 </g>
</svg>
