<?xml version="1.0" encoding="UTF-8"?>
<!--Generator: Apple Native CoreSVG 175.5-->
<!DOCTYPE svg
PUBLIC "-//W3C//DTD SVG 1.1//EN"
       "http://www.w3.org/Graphics/SVG/1.1/DTD/svg11.dtd">
<svg version="1.1" xmlns="http://www.w3.org/2000/svg" xmlns:xlink="http://www.w3.org/1999/xlink" width="22.9126" height="19.2993">
 <g>
  <rect height="19.2993" opacity="0" width="22.9126" x="0" y="0"/>
  <path d="M21.7651 19.2993C22.4121 19.2993 22.7051 18.8843 22.8149 18.3838C22.8882 18.0176 22.9126 17.4072 22.9126 16.6992C22.9126 10.791 20.5566 8.25195 14.7583 8.25195L6.22559 8.25195L3.23486 8.42285L7.34863 4.66309L10.0586 1.9043C10.2539 1.70898 10.3516 1.42822 10.3516 1.13525C10.3516 0.524902 9.8877 0.0854492 9.28955 0.0854492C8.99658 0.0854492 8.72803 0.183105 8.45947 0.45166L0.378418 8.52051C0.134277 8.75244 0 9.04541 0 9.33838C0 9.64355 0.134277 9.92432 0.378418 10.1685L8.48389 18.2617C8.74023 18.4937 8.99658 18.6035 9.28955 18.6035C9.8877 18.6035 10.3516 18.1641 10.3516 17.5537C10.3516 17.2607 10.2539 16.9678 10.0586 16.7725L7.34863 14.0137L3.22266 10.2539L6.22559 10.437L14.6484 10.437C19.1284 10.437 20.7031 12.2803 20.7031 16.8091C20.7031 17.3828 20.6787 17.7856 20.6787 18.2129C20.6787 18.8599 21.1304 19.2993 21.7651 19.2993Z" fill="#5ac8f5"/>
 </g>
</svg>
