<?xml version="1.0" encoding="UTF-8"?>
<!--Generator: Apple Native CoreSVG 175.5-->
<!DOCTYPE svg
PUBLIC "-//W3C//DTD SVG 1.1//EN"
       "http://www.w3.org/Graphics/SVG/1.1/DTD/svg11.dtd">
<svg version="1.1" xmlns="http://www.w3.org/2000/svg" xmlns:xlink="http://www.w3.org/1999/xlink" width="43.2983" height="30.4565">
 <g>
  <rect height="30.4565" opacity="0" width="43.2983" x="0" y="0"/>
  <path d="M3.11279 22.3511L6.90918 22.3511L6.90918 20.3857L3.22266 20.3857C2.4292 20.3857 1.96533 19.8486 1.96533 18.9209L1.96533 17.0654C1.96533 14.8804 3.43018 13.6475 6.48193 13.2568L11.4502 12.6343L16.748 9.33838C18.4692 8.26416 19.7632 7.71484 21.7163 7.4585L21.6431 5.48096C19.2871 5.74951 17.7124 6.38428 15.6982 7.65381L10.7788 10.7422L6.22559 11.3037C2.06299 11.8164 0 13.7207 0 17.0654L0 19.165C0 21.1548 1.17188 22.3511 3.11279 22.3511ZM36.9629 22.3511L40.1978 22.3511C42.334 22.3511 43.2983 21.2524 43.2983 18.8354L43.2983 13.623C43.2983 12.0972 42.7368 10.3516 41.7725 8.95996L41.2231 8.1543C39.8193 6.11572 38.0981 5.29785 35.2661 5.29785L26.8555 5.29785L26.7944 7.26318L35.2661 7.26318C37.3779 7.26318 38.5986 7.84912 39.5996 9.27734L40.1489 10.0708C40.8936 11.145 41.333 12.4634 41.333 13.623L41.333 18.9575C41.333 19.9341 40.9546 20.3857 40.0879 20.3857L36.9629 20.3857ZM12.6343 22.3511L31.3477 22.3511L31.3477 20.3857L12.6343 20.3857ZM9.70459 25.1343C12.0483 25.1343 13.8794 23.3032 13.8794 20.9595C13.8794 18.6157 12.0483 16.7847 9.70459 16.7847C7.36084 16.7847 5.52979 18.6157 5.52979 20.9595C5.52979 23.3032 7.36084 25.1343 9.70459 25.1343ZM9.70459 23.1689C8.45947 23.1689 7.49512 22.2046 7.49512 20.9595C7.49512 19.7144 8.45947 18.75 9.70459 18.75C10.9497 18.75 11.9141 19.7144 11.9141 20.9595C11.9141 22.2046 10.9497 23.1689 9.70459 23.1689ZM34.2407 25.1343C36.5845 25.1343 38.4155 23.3032 38.4155 20.9595C38.4155 18.6157 36.5845 16.7847 34.2407 16.7847C31.897 16.7847 30.0659 18.6157 30.0659 20.9595C30.0659 23.3032 31.897 25.1343 34.2407 25.1343ZM34.2407 23.1689C32.9956 23.1689 32.0312 22.2046 32.0312 20.9595C32.0312 19.7144 32.9956 18.75 34.2407 18.75C35.4858 18.75 36.4502 19.7144 36.4502 20.9595C36.4502 22.2046 35.4858 23.1689 34.2407 23.1689Z" fill="#5ac8f5" fill-opacity="0.5"/>
  <path d="M24.2432 16.4062C25.1221 16.4062 25.8423 15.686 25.8423 14.856C25.8423 14.0137 25.1343 13.3179 24.2432 13.3179C23.3643 13.3179 22.644 14.0137 22.644 14.856C22.644 15.686 23.3765 16.4062 24.2432 16.4062ZM24.2432 10.9863C24.8413 10.9863 25.2686 10.5591 25.293 9.93652L25.5493 1.29395C25.5737 0.512695 25.0488 0 24.2432 0C23.4375 0 22.9248 0.512695 22.9492 1.29395L23.2056 9.93652C23.23 10.5591 23.645 10.9863 24.2432 10.9863Z" fill="#5ac8f5"/>
 </g>
</svg>
