<?xml version="1.0" encoding="UTF-8"?>
<!--Generator: Apple Native CoreSVG 175.5-->
<!DOCTYPE svg
PUBLIC "-//W3C//DTD SVG 1.1//EN"
       "http://www.w3.org/Graphics/SVG/1.1/DTD/svg11.dtd">
<svg version="1.1" xmlns="http://www.w3.org/2000/svg" xmlns:xlink="http://www.w3.org/1999/xlink" width="24.9023" height="24.9146">
 <g>
  <rect height="24.9146" opacity="0" width="24.9023" x="0" y="0"/>
  <path d="M12.4512 24.9023C19.2627 24.9023 24.9023 19.2505 24.9023 12.4512C24.9023 5.63965 19.2505 0 12.439 0C5.63965 0 0 5.63965 0 12.4512C0 19.2505 5.65186 24.9023 12.4512 24.9023ZM12.4512 22.8271C6.68945 22.8271 2.0874 18.2129 2.0874 12.4512C2.0874 6.68945 6.67725 2.0752 12.439 2.0752C18.2007 2.0752 22.8271 6.68945 22.8271 12.4512C22.8271 18.2129 18.2129 22.8271 12.4512 22.8271Z" fill="#5ac8f5" fill-opacity="0.5"/>
  <path d="M6.49414 7.8125C6.38428 8.37402 6.31104 9.10645 6.31104 9.59473C6.31104 13.7207 8.76465 16.4673 12.5122 16.4673C14.9292 16.4673 16.0645 15.0513 16.333 14.563L15.6372 14.563C16.3574 15.3076 16.6748 16.1011 17.041 17.2607C17.1143 17.5171 17.3096 17.6147 17.4927 17.6147C17.8955 17.6147 18.2373 17.2607 18.2373 16.7725C18.2373 16.0156 17.1509 14.6851 16.5649 14.1602C14.1357 11.9385 10.4736 13.2446 9.52148 10.7788C9.44824 10.5957 9.64355 10.437 9.85107 10.6079C11.8164 12.3291 14.1724 10.9375 16.5649 13.0981C16.7603 13.2812 16.9678 13.1836 17.0166 13.0005C17.041 12.8296 17.0532 12.5732 17.0532 12.3291C17.0532 9.64355 15.1733 8.34961 12.5366 8.34961C11.6455 8.34961 10.6323 8.56934 9.81445 8.56934C8.92334 8.56934 7.93457 8.45947 7.12891 7.6416C6.89697 7.40967 6.56738 7.43408 6.49414 7.8125Z" fill="#5ac8f5"/>
 </g>
</svg>
