<?xml version="1.0" encoding="UTF-8"?>
<!--Generator: Apple Native CoreSVG 175.5-->
<!DOCTYPE svg
PUBLIC "-//W3C//DTD SVG 1.1//EN"
       "http://www.w3.org/Graphics/SVG/1.1/DTD/svg11.dtd">
<svg version="1.1" xmlns="http://www.w3.org/2000/svg" xmlns:xlink="http://www.w3.org/1999/xlink" width="27.6733" height="28.9224">
 <g>
  <rect height="28.9224" opacity="0" width="27.6733" x="0" y="0"/>
  <path d="M7.34863 7.14309C7.34863 7.80227 7.60498 8.31497 8.38623 8.66897C9.729 9.29153 11.7554 9.66995 13.8306 9.66995C15.918 9.66995 17.9443 9.29153 19.2871 8.66897C20.0684 8.31497 20.3247 7.80227 20.3247 7.14309C20.3247 4.45754 17.749 2.32131 13.8306 2.32131C9.92432 2.32131 7.34863 4.45754 7.34863 7.14309ZM3.11279 17.9097C3.11279 23.8057 6.54297 28.0904 11.792 28.7617C12.6221 28.8594 13.0371 28.5664 13.0371 27.9317L13.0371 14.0401C13.0371 13.6006 13.3911 13.2466 13.8306 13.2466C14.27 13.2466 14.6362 13.6006 14.6362 14.0401L14.6362 27.9317C14.6362 28.5664 15.0513 28.8594 15.8813 28.7617C21.1304 28.0904 24.5605 23.8057 24.5605 17.9097C24.5605 15.273 23.5474 11.7696 21.9971 10.3047C21.2036 9.5845 20.7397 9.57229 20.2759 9.7676C18.4692 10.5733 16.1865 11.086 13.8306 11.086C11.4868 11.086 9.2041 10.5733 7.39746 9.7676C6.93359 9.57229 6.46973 9.5845 5.67627 10.3047C4.12598 11.7696 3.11279 15.273 3.11279 17.9097ZM9.08203 15.5904C8.21533 15.5904 7.51953 14.8579 7.51953 14.0156C7.51953 13.1489 8.21533 12.4409 9.08203 12.4409C9.94873 12.4409 10.6567 13.1489 10.6567 14.0156C10.6567 14.8701 9.94873 15.5904 9.08203 15.5904ZM7.77588 20.8394C6.7627 20.8394 5.94482 20.0215 5.94482 18.9961C5.94482 17.9951 6.7627 17.1773 7.77588 17.1773C8.77686 17.1773 9.60693 17.9951 9.60693 18.9961C9.60693 20.0215 8.77686 20.8394 7.77588 20.8394ZM9.32617 25.3072C8.58154 25.3072 7.9834 24.709 7.9834 23.9644C7.9834 23.2198 8.58154 22.6216 9.32617 22.6216C10.083 22.6216 10.6812 23.2198 10.6812 23.9644C10.6812 24.709 10.083 25.3072 9.32617 25.3072ZM18.5913 15.5904C17.7246 15.5904 17.0166 14.8701 17.0166 14.0156C17.0166 13.1489 17.7246 12.4409 18.5913 12.4409C19.458 12.4409 20.1538 13.1489 20.1538 14.0156C20.1538 14.8579 19.458 15.5904 18.5913 15.5904ZM19.8975 20.8394C18.8965 20.8394 18.0664 20.0215 18.0664 18.9961C18.0664 17.9951 18.8965 17.1773 19.8975 17.1773C20.9106 17.1773 21.7285 17.9951 21.7285 18.9961C21.7285 20.0215 20.9106 20.8394 19.8975 20.8394ZM18.3472 25.3072C17.5903 25.3072 16.9922 24.709 16.9922 23.9644C16.9922 23.2198 17.5903 22.6216 18.3472 22.6216C19.0918 22.6216 19.6899 23.2198 19.6899 23.9644C19.6899 24.709 19.0918 25.3072 18.3472 25.3072ZM8.45947 1.75979L9.28955 2.06497C9.81445 2.24807 10.022 2.52883 9.92432 2.95608L9.77783 3.57864L11.5723 3.56643L11.6577 2.94387C11.792 1.75979 11.2427 0.880883 10.0342 0.453637L9.06982 0.0630121C7.86133-0.352027 7.2876 1.40579 8.45947 1.75979ZM19.2139 1.75979C20.3857 1.40579 19.812-0.352027 18.6035 0.0630121L17.6392 0.453637C16.4307 0.880883 15.8813 1.75979 16.0156 2.94387L16.1011 3.56643L17.8955 3.57864L17.749 2.95608C17.6514 2.52883 17.8589 2.24807 18.3838 2.06497ZM6.22559 10.5489L3.95508 8.63235C3.50342 8.24172 2.91748 8.19289 2.53906 8.64456C2.17285 9.09622 2.31934 9.68215 2.75879 10.0606L5.05371 11.9893ZM4.00391 16.3228L1.00098 16.3228C0.390625 16.3228 0 16.7012 0 17.2627C0 17.8242 0.390625 18.1905 1.01318 18.1905L4.00391 18.1782ZM4.99268 23.4639L2.70996 25.3682C2.27051 25.7466 2.13623 26.3325 2.50244 26.772C2.88086 27.2237 3.45459 27.1748 3.91846 26.7964L6.16455 24.8921ZM21.4478 10.5489L22.6196 11.9893L24.9146 10.0606C25.354 9.68215 25.5005 9.09622 25.1343 8.64456C24.7559 8.19289 24.1699 8.24172 23.7183 8.63235ZM23.6694 16.3228L23.6694 18.1782L26.6602 18.1905C27.2705 18.1905 27.6733 17.8242 27.6733 17.2627C27.6733 16.7012 27.2705 16.3228 26.6724 16.3228ZM22.6807 23.4639L21.4966 24.8921L23.7549 26.7964C24.2065 27.1748 24.7925 27.2237 25.1709 26.772C25.5371 26.3325 25.4028 25.7466 24.9512 25.3682Z" fill="#5ac8f5"/>
 </g>
</svg>
