<?xml version="1.0" encoding="UTF-8"?>
<!--Generator: Apple Native CoreSVG 175.5-->
<!DOCTYPE svg
PUBLIC "-//W3C//DTD SVG 1.1//EN"
       "http://www.w3.org/Graphics/SVG/1.1/DTD/svg11.dtd">
<svg version="1.1" xmlns="http://www.w3.org/2000/svg" xmlns:xlink="http://www.w3.org/1999/xlink" width="27.1151" height="28.8696">
 <g>
  <rect height="28.8696" opacity="0" width="27.1151" x="0" y="0"/>
  <path d="M1.58855 28.6987L1.64958 28.6987C5.45817 28.6987 5.77556 26.2207 7.7653 26.2207C9.69401 26.2207 10.2311 28.6987 13.5636 28.6987C16.884 28.6987 17.4211 26.2207 19.3498 26.2207C21.3395 26.2207 21.6569 28.6987 25.4655 28.6987L25.5265 28.6987C26.0026 28.6987 26.381 28.3203 26.381 27.8442C26.381 27.3682 26.0026 26.9775 25.5265 26.9775L25.4655 26.9775C24.1471 26.9775 23.4147 26.4404 22.487 25.7812C21.6935 25.2075 20.7048 24.4995 19.3498 24.4995C17.9582 24.4995 16.9572 25.2563 16.1637 25.8423C15.3215 26.4893 14.6501 26.9775 13.5636 26.9775C12.465 26.9775 11.8058 26.4893 10.9635 25.8423C10.1701 25.2563 9.1569 24.4995 7.7653 24.4995C6.41032 24.4995 5.42155 25.2075 4.6281 25.7812C3.70036 26.4404 2.96794 26.9775 1.64958 26.9775L1.58855 26.9775C1.11247 26.9775 0.734053 27.3682 0.734053 27.8442C0.734053 28.3203 1.11247 28.6987 1.58855 28.6987ZM0.538741 21.1914L3.21208 24.7437C3.34636 24.6582 3.49284 24.5483 3.65153 24.4385C5.04314 23.4253 6.23942 22.8394 7.7653 22.8394C9.34001 22.8394 10.5241 23.4619 11.9645 24.5117C12.819 25.1709 13.0632 25.3174 13.5636 25.3174C14.0275 25.3174 14.2717 25.1709 15.0041 24.6338C16.5055 23.4863 17.7262 22.8394 19.3498 22.8394C20.8879 22.8394 22.0719 23.4253 23.4635 24.4385C23.6222 24.5483 23.7687 24.6582 23.9152 24.7437L26.5763 21.1914C27.6994 19.7266 27.0036 18.042 25.0749 18.042L2.04021 18.042C0.111495 18.042-0.584306 19.7266 0.538741 21.1914ZM6.67888 5.10254C6.8986 4.11377 7.32585 2.84424 7.61882 2.33154C7.86296 1.9165 8.13151 1.72119 8.60759 1.66016C9.29118 1.5625 10.8049 1.51367 13.5636 1.51367C16.3102 1.51367 17.8361 1.55029 18.5075 1.66016C18.9958 1.7334 19.2521 1.9165 19.4963 2.33154C19.8014 2.83203 20.2043 4.11377 20.4362 5.10254C20.5217 5.43213 20.3752 5.5542 20.0334 5.54199C18.5563 5.44434 16.7863 5.34668 13.5636 5.34668C10.3288 5.34668 8.57097 5.44434 7.08171 5.54199C6.73991 5.5542 6.60564 5.43213 6.67888 5.10254ZM7.11833 11.6821C6.31267 11.6821 5.69011 11.0718 5.69011 10.2539C5.69011 9.43604 6.31267 8.82568 7.11833 8.82568C7.9362 8.82568 8.54655 9.43604 8.54655 10.2539C8.54655 11.0718 7.9362 11.6821 7.11833 11.6821ZM11.1955 11.3403C10.5973 11.3403 10.1701 10.9131 10.1701 10.3027C10.1701 9.69238 10.5973 9.27734 11.1955 9.27734L15.9196 9.27734C16.53 9.27734 16.945 9.69238 16.945 10.3027C16.945 10.9131 16.53 11.3403 15.9196 11.3403ZM19.9967 11.6821C19.1789 11.6821 18.5685 11.0718 18.5685 10.2539C18.5685 9.43604 19.1789 8.82568 19.9967 8.82568C20.8146 8.82568 21.425 9.43604 21.425 10.2539C21.425 11.0718 20.8146 11.6821 19.9967 11.6821ZM13.5636 14.0991C16.5544 14.0991 20.5461 13.9404 22.2306 13.7573C23.4391 13.6108 24.1105 12.9517 24.1105 11.8042L24.1105 10.2295C24.1105 8.72803 23.8053 7.88574 22.9875 6.82373L22.2306 5.84717C21.901 4.23584 21.3029 2.55127 20.9977 1.89209C20.5217 0.878906 19.5939 0.292969 18.4098 0.134277C17.8239 0.0488281 15.8586 0 13.5636 0C11.2565 0 9.30339 0.0610352 8.70524 0.134277C7.52116 0.268555 6.59343 0.878906 6.11735 1.89209C5.81218 2.55127 5.21403 4.23584 4.88444 5.84717L4.13982 6.82373C3.30974 7.88574 3.00456 8.72803 3.00456 10.2295L3.00456 11.8042C3.00456 12.9517 3.67595 13.6108 4.88444 13.7573C6.58122 13.9404 10.5607 14.0991 13.5636 14.0991ZM4.18864 16.5527L5.23845 16.5527C5.90983 16.5527 6.42253 16.04 6.42253 15.3809L6.42253 13.1592L3.00456 11.5234L3.00456 15.3809C3.00456 16.04 3.51726 16.5527 4.18864 16.5527ZM21.8766 16.5527L22.9264 16.5527C23.5978 16.5527 24.1105 16.04 24.1105 15.3809L24.1105 11.5234L20.7048 13.1592L20.7048 15.3809C20.7048 16.04 21.2175 16.5527 21.8766 16.5527Z" fill="#5ac8f5"/>
 </g>
</svg>
