<?xml version="1.0" encoding="UTF-8"?>
<!--Generator: Apple Native CoreSVG 175.5-->
<!DOCTYPE svg
PUBLIC "-//W3C//DTD SVG 1.1//EN"
       "http://www.w3.org/Graphics/SVG/1.1/DTD/svg11.dtd">
<svg version="1.1" xmlns="http://www.w3.org/2000/svg" xmlns:xlink="http://www.w3.org/1999/xlink" width="24.9023" height="24.9146">
 <g>
  <rect height="24.9146" opacity="0" width="24.9023" x="0" y="0"/>
  <path d="M12.4512 24.9023C19.2627 24.9023 24.9023 19.2505 24.9023 12.4512C24.9023 5.63965 19.2505 0 12.439 0C5.63965 0 0 5.63965 0 12.4512C0 19.2505 5.65186 24.9023 12.4512 24.9023ZM12.4512 22.8271C6.68945 22.8271 2.0874 18.2129 2.0874 12.4512C2.0874 6.68945 6.67725 2.0752 12.439 2.0752C18.2007 2.0752 22.8271 6.68945 22.8271 12.4512C22.8271 18.2129 18.2129 22.8271 12.4512 22.8271ZM20.0195 12.4634C20.0195 12.1826 19.9097 11.9751 19.6777 11.7432L16.1499 8.21533C15.9912 8.04443 15.7715 7.95898 15.5151 7.95898C15.0146 7.95898 14.6362 8.34961 14.6362 8.8501C14.6362 9.10645 14.7339 9.33838 14.9048 9.49707L15.8325 10.4004L17.3096 11.6455L14.7217 11.5479L10.1318 11.5479L7.54395 11.6455L9.0332 10.4004L9.96094 9.49707C10.1318 9.33838 10.2295 9.10645 10.2295 8.8501C10.2295 8.34961 9.85107 7.95898 9.35059 7.95898C9.09424 7.95898 8.87451 8.04443 8.71582 8.21533L5.18799 11.7432C4.95605 11.9751 4.84619 12.1826 4.84619 12.4634C4.84619 12.7197 4.95605 12.915 5.18799 13.1592L8.71582 16.7114C8.87451 16.8701 9.09424 16.9556 9.35059 16.9556C9.85107 16.9556 10.2295 16.5649 10.2295 16.0767C10.2295 15.8081 10.1196 15.5884 9.96094 15.4175L9.0332 14.502L7.55615 13.2812L10.1318 13.3667L14.7217 13.3667L17.2974 13.2812L15.8325 14.502L14.9048 15.4175C14.7461 15.5884 14.6362 15.8081 14.6362 16.0767C14.6362 16.5649 15.0146 16.9556 15.5151 16.9556C15.7715 16.9556 15.9912 16.8701 16.1499 16.7114L19.6777 13.1592C19.9097 12.915 20.0195 12.7197 20.0195 12.4634Z" fill="#5ac8f5"/>
 </g>
</svg>
