<?xml version="1.0" encoding="UTF-8"?>
<!--Generator: Apple Native CoreSVG 175.5-->
<!DOCTYPE svg
PUBLIC "-//W3C//DTD SVG 1.1//EN"
       "http://www.w3.org/Graphics/SVG/1.1/DTD/svg11.dtd">
<svg version="1.1" xmlns="http://www.w3.org/2000/svg" xmlns:xlink="http://www.w3.org/1999/xlink" width="22.4731" height="22.4976">
 <g>
  <rect height="22.4976" opacity="0" width="22.4731" x="0" y="0"/>
  <path d="M3.83301 22.4976L18.6401 22.4976C21.2036 22.4976 22.4731 21.228 22.4731 18.7134L22.4731 3.80859C22.4731 1.29395 21.2036 0.0244141 18.6401 0.0244141L3.83301 0.0244141C1.28174 0.0244141 0 1.28174 0 3.80859L0 18.7134C0 21.2402 1.28174 22.4976 3.83301 22.4976Z" fill="#5ac8f5" fill-opacity="0.25"/>
  <path d="M8.23975 16.8823C7.54395 16.8823 7.1167 16.4551 7.1167 15.7593L7.1167 6.50635C7.1167 5.78613 7.54395 5.37109 8.23975 5.37109L11.9385 5.37109C14.0991 5.37109 15.5029 6.48193 15.5029 8.21533C15.5029 9.47266 14.7339 10.4492 13.4888 10.7544L13.4888 10.8276C15.1611 11.0352 16.1987 12.1094 16.1987 13.6475C16.1987 15.625 14.5142 16.8823 11.9141 16.8823ZM9.06982 10.2661L10.9619 10.2661C12.6465 10.2661 13.562 9.63135 13.562 8.53271C13.562 7.49512 12.8052 6.86035 11.5356 6.86035L9.06982 6.86035ZM9.06982 15.3931L11.1084 15.3931C13.208 15.3931 14.1724 14.8193 14.1724 13.562C14.1724 12.3535 13.2812 11.6577 11.7432 11.6577L9.06982 11.6577Z" fill="#5ac8f5"/>
 </g>
</svg>
