<?xml version="1.0" encoding="UTF-8"?>
<!--Generator: Apple Native CoreSVG 175.5-->
<!DOCTYPE svg
PUBLIC "-//W3C//DTD SVG 1.1//EN"
       "http://www.w3.org/Graphics/SVG/1.1/DTD/svg11.dtd">
<svg version="1.1" xmlns="http://www.w3.org/2000/svg" xmlns:xlink="http://www.w3.org/1999/xlink" width="19.8364" height="28.479">
 <g>
  <rect height="28.479" opacity="0" width="19.8364" x="0" y="0"/>
  <path d="M2.81982 26.2085L9.08203 26.2085L9.08203 0L2.81982 0C1.13525 0 0 1.15967 0 2.91748L0 23.291C0 25.0488 1.13525 26.2085 2.81982 26.2085ZM6.10352 14.8438C5.39551 14.8438 4.80957 14.27 4.80957 13.562C4.80957 12.8418 5.39551 12.2681 6.10352 12.2681C6.81152 12.2681 7.39746 12.8418 7.39746 13.562C7.39746 14.27 6.81152 14.8438 6.10352 14.8438ZM17.0166 26.2085C18.7012 26.2085 19.8364 25.0488 19.8364 23.291L19.8364 2.91748C19.8364 1.15967 18.7012 0 17.0166 0L10.7544 0L10.7544 26.2085ZM13.7207 14.8438C13.0127 14.8438 12.4268 14.27 12.4268 13.562C12.4268 12.8418 13.0127 12.2681 13.7207 12.2681C14.4287 12.2681 15.0146 12.8418 15.0146 13.562C15.0146 14.27 14.4287 14.8438 13.7207 14.8438ZM3.57666 28.4668C4.18701 28.4668 4.58984 28.0518 4.58984 27.4414L4.58984 24.9878L2.56348 24.9878L2.56348 27.4414C2.56348 28.0518 2.96631 28.4668 3.57666 28.4668ZM16.2598 28.4668C16.8701 28.4668 17.2729 28.0518 17.2729 27.4414L17.2729 24.9878L15.2466 24.9878L15.2466 27.4414C15.2466 28.0518 15.6494 28.4668 16.2598 28.4668Z" fill="#5ac8f5"/>
 </g>
</svg>
