<?xml version="1.0" encoding="UTF-8"?>
<!--Generator: Apple Native CoreSVG 175.5-->
<!DOCTYPE svg
PUBLIC "-//W3C//DTD SVG 1.1//EN"
       "http://www.w3.org/Graphics/SVG/1.1/DTD/svg11.dtd">
<svg version="1.1" xmlns="http://www.w3.org/2000/svg" xmlns:xlink="http://www.w3.org/1999/xlink" width="24.9023" height="24.9146">
 <g>
  <rect height="24.9146" opacity="0" width="24.9023" x="0" y="0"/>
  <path d="M12.4512 24.9023C19.2627 24.9023 24.9023 19.2505 24.9023 12.4512C24.9023 5.63965 19.2505 0 12.439 0C5.63965 0 0 5.63965 0 12.4512C0 19.2505 5.65186 24.9023 12.4512 24.9023ZM12.4512 22.8271C6.68945 22.8271 2.0874 18.2129 2.0874 12.4512C2.0874 6.68945 6.67725 2.0752 12.439 2.0752C18.2007 2.0752 22.8271 6.68945 22.8271 12.4512C22.8271 18.2129 18.2129 22.8271 12.4512 22.8271ZM9.92432 12.439C9.92432 11.1938 9.5459 9.93652 8.89893 9.0332C8.61816 8.66699 8.11768 8.55713 7.73926 8.80127C7.31201 9.09424 7.23877 9.63135 7.56836 10.0708C8.00781 10.6323 8.26416 11.5234 8.26416 12.439C8.26416 13.3301 8.00781 14.2212 7.56836 14.8193C7.25098 15.2588 7.32422 15.7715 7.73926 16.0767C8.11768 16.333 8.63037 16.2231 8.89893 15.8447C9.5459 14.9902 9.92432 13.7207 9.92432 12.439ZM13.7451 12.439C13.7451 10.3638 13.147 8.39844 12.0605 6.90918C11.7676 6.51855 11.2793 6.4209 10.8887 6.70166C10.5225 6.95801 10.437 7.4707 10.73 7.89795C11.5967 9.09424 12.085 10.7422 12.085 12.439C12.085 14.1479 11.5967 15.7959 10.73 16.9922C10.437 17.4194 10.5225 17.9321 10.8887 18.1885C11.2793 18.457 11.7676 18.3716 12.0605 17.9688C13.147 16.4551 13.7451 14.4775 13.7451 12.439ZM17.5659 12.439C17.5659 9.65576 16.7358 6.9458 15.2466 4.78516C14.9536 4.37012 14.4531 4.27246 14.0625 4.54102C13.6719 4.82178 13.6108 5.33447 13.9038 5.7373C15.1978 7.58057 15.9302 9.96094 15.9302 12.439C15.9302 14.8926 15.1855 17.3096 13.9038 19.1406C13.6108 19.5557 13.6719 20.0562 14.0625 20.3369C14.4409 20.6055 14.9414 20.4956 15.2466 20.105C16.7358 17.9565 17.5659 15.2466 17.5659 12.439Z" fill="#5ac8f5"/>
 </g>
</svg>
