<?xml version="1.0" encoding="UTF-8"?>
<!--Generator: Apple Native CoreSVG 175.5-->
<!DOCTYPE svg
PUBLIC "-//W3C//DTD SVG 1.1//EN"
       "http://www.w3.org/Graphics/SVG/1.1/DTD/svg11.dtd">
<svg version="1.1" xmlns="http://www.w3.org/2000/svg" xmlns:xlink="http://www.w3.org/1999/xlink" width="23.3154" height="25.5737">
 <g>
  <rect height="25.5737" opacity="0" width="23.3154" x="0" y="0"/>
  <path d="M11.5601 25.5737L11.7188 25.5737C13.4155 25.5737 14.0625 25.0366 14.0625 23.3521L14.0625 15.1245L12.4756 15.9912L19.6289 20.1294C20.166 20.4102 20.5933 20.5933 20.9839 20.5933C21.6553 20.5933 22.1191 20.1294 22.6807 19.2871L22.7661 19.1528C23.1323 18.6035 23.3154 18.103 23.3154 17.688C23.3154 17.0044 22.8394 16.4917 21.9971 16.0278L14.7095 11.8164L14.7095 13.562L21.9849 9.5459C22.8394 9.09424 23.2788 8.59375 23.2788 7.91016C23.2788 7.49512 23.0957 7.01904 22.7905 6.46973L22.7051 6.31104C22.1558 5.41992 21.6553 4.96826 20.9961 4.96826C20.6055 4.96826 20.1538 5.15137 19.6167 5.43213L12.4878 9.57031L14.0625 10.437L14.0625 2.22168C14.0625 0.537109 13.4155 0 11.7188 0L11.5601 0C9.86328 0 9.21631 0.537109 9.21631 2.22168L9.21631 10.437L10.8276 9.57031L3.67432 5.43213C3.13721 5.12695 2.63672 4.93164 2.22168 4.93164C1.55029 4.93164 1.00098 5.39551 0.57373 6.33545L0.500488 6.46973C0.231934 7.03125 0.0610352 7.51953 0.0610352 7.93457C0.0610352 8.58154 0.463867 9.08203 1.31836 9.55811L8.60596 13.562L8.60596 11.8164L1.30615 16.0278C0.463867 16.4917 0 16.9922 0 17.6636C0 18.0786 0.195312 18.5791 0.512695 19.1406L0.585938 19.2505C1.09863 20.1416 1.58691 20.6055 2.28271 20.6055C2.67334 20.6055 3.13721 20.4102 3.66211 20.1294L10.8276 15.9912L9.21631 15.1245L9.21631 23.3521C9.21631 25.0366 9.86328 25.5737 11.5601 25.5737Z" fill="#5ac8f5"/>
 </g>
</svg>
