<?xml version="1.0" encoding="UTF-8"?>
<!--Generator: Apple Native CoreSVG 175.5-->
<!DOCTYPE svg
PUBLIC "-//W3C//DTD SVG 1.1//EN"
       "http://www.w3.org/Graphics/SVG/1.1/DTD/svg11.dtd">
<svg version="1.1" xmlns="http://www.w3.org/2000/svg" xmlns:xlink="http://www.w3.org/1999/xlink" width="10.1562" height="20.1782">
 <g>
  <rect height="20.1782" opacity="0" width="10.1562" x="0" y="0"/>
  <path d="M1.0376 20.1782C1.62354 20.1782 2.0874 19.7388 2.0874 19.165L2.0874 1.0376C2.0874 0.463867 1.62354 0.012207 1.0376 0.012207C0.463867 0.012207 0 0.463867 0 1.0376L0 19.165C0 19.7388 0.463867 20.1782 1.0376 20.1782ZM9.10645 20.1782C9.68018 20.1782 10.1562 19.7388 10.1562 19.165L10.1562 1.0376C10.1562 0.463867 9.68018 0.012207 9.10645 0.012207C8.53271 0.012207 8.06885 0.463867 8.06885 1.0376L8.06885 19.165C8.06885 19.7388 8.53271 20.1782 9.10645 20.1782Z" fill="#5ac8f5"/>
 </g>
</svg>
