<?xml version="1.0" encoding="UTF-8"?>
<!--Generator: Apple Native CoreSVG 175.5-->
<!DOCTYPE svg
PUBLIC "-//W3C//DTD SVG 1.1//EN"
       "http://www.w3.org/Graphics/SVG/1.1/DTD/svg11.dtd">
<svg version="1.1" xmlns="http://www.w3.org/2000/svg" xmlns:xlink="http://www.w3.org/1999/xlink" width="21.46" height="32.4829">
 <g>
  <rect height="32.4829" opacity="0" width="21.46" x="0" y="0"/>
  <path d="M3.83301 26.8433L9.76562 26.8433L9.76562 5.61523L3.83301 5.61523C1.28174 5.61523 0 6.88477 0 9.39941L0 23.0713C0 25.5859 1.28174 26.8433 3.83301 26.8433ZM17.627 26.8433C20.1904 26.8433 21.46 25.5737 21.46 23.0713L21.46 9.39941C21.46 6.88477 20.1904 5.61523 17.627 5.61523L11.6699 5.61523L11.6699 26.8433ZM10.7178 0C10.1807 0 9.76562 0.427246 9.76562 0.952148L9.76562 5.61523L11.6699 5.61523L11.6699 0.952148C11.6699 0.427246 11.2549 0 10.7178 0ZM10.7178 32.4585C11.2549 32.4585 11.6699 32.0435 11.6699 31.5063L11.6699 26.8433L9.76562 26.8433L9.76562 31.5063C9.76562 32.0435 10.1807 32.4585 10.7178 32.4585Z" fill="#5ac8f5"/>
 </g>
</svg>
