<?xml version="1.0" encoding="UTF-8"?>
<!--Generator: Apple Native CoreSVG 175.5-->
<!DOCTYPE svg
PUBLIC "-//W3C//DTD SVG 1.1//EN"
       "http://www.w3.org/Graphics/SVG/1.1/DTD/svg11.dtd">
<svg version="1.1" xmlns="http://www.w3.org/2000/svg" xmlns:xlink="http://www.w3.org/1999/xlink" width="18.8599" height="20.1782">
 <g>
  <rect height="20.1782" opacity="0" width="18.8599" x="0" y="0"/>
  <path d="M1.0376 20.1782C1.62354 20.1782 2.0874 19.7388 2.0874 19.165L2.0874 1.0376C2.0874 0.463867 1.62354 0.012207 1.0376 0.012207C0.463867 0.012207 0 0.463867 0 1.0376L0 19.165C0 19.7388 0.463867 20.1782 1.0376 20.1782ZM17.1021 19.6899C18.0664 19.6899 18.8599 18.9575 18.8599 17.5903L18.8599 2.6001C18.8599 1.23291 18.0664 0.500488 17.1021 0.500488C16.6016 0.500488 16.1987 0.65918 15.6982 0.952148L3.25928 8.27637C2.39258 8.78906 2.02637 9.39941 2.02637 10.0952C2.02637 10.791 2.39258 11.4014 3.25928 11.9141L15.6982 19.2383C16.1987 19.5312 16.6016 19.6899 17.1021 19.6899ZM16.5771 17.4316C16.4917 17.4316 16.394 17.395 16.272 17.3218L4.67529 10.437C4.50439 10.3394 4.40674 10.2539 4.40674 10.0952C4.40674 9.92432 4.49219 9.85107 4.67529 9.75342L16.272 2.86865C16.394 2.79541 16.4917 2.75879 16.5771 2.75879C16.748 2.75879 16.9067 2.88086 16.9067 3.125L16.9067 17.0654C16.9067 17.3096 16.748 17.4316 16.5771 17.4316Z" fill="#5ac8f5"/>
 </g>
</svg>
