<?xml version="1.0" encoding="UTF-8"?>
<!--Generator: Apple Native CoreSVG 175.5-->
<!DOCTYPE svg
PUBLIC "-//W3C//DTD SVG 1.1//EN"
       "http://www.w3.org/Graphics/SVG/1.1/DTD/svg11.dtd">
<svg version="1.1" xmlns="http://www.w3.org/2000/svg" xmlns:xlink="http://www.w3.org/1999/xlink" width="28.7842" height="22.4731">
 <g>
  <rect height="22.4731" opacity="0" width="28.7842" x="0" y="0"/>
  <path d="M4.99268 16.5283C3.79639 16.5283 3.19824 15.9302 3.19824 14.7583L3.19824 7.73926C3.19824 6.55518 3.79639 5.96924 4.99268 5.96924L11.9507 5.96924C13.1714 5.96924 13.7573 6.56738 13.7573 7.73926L13.7573 14.7583C13.7573 15.9302 13.1714 16.5283 11.9507 16.5283ZM5.12695 15.1245L11.8286 15.1245C12.1704 15.1245 12.3535 14.9658 12.3535 14.6362L12.3535 7.86133C12.3535 7.53174 12.1704 7.37305 11.8286 7.37305L5.12695 7.37305C4.77295 7.37305 4.60205 7.51953 4.60205 7.86133L4.60205 14.6362C4.60205 14.9658 4.77295 15.1245 5.12695 15.1245ZM20.8984 16.394C17.8223 16.394 15.7593 14.3433 15.7593 11.2549C15.7593 8.17871 17.8345 6.0791 20.8618 6.0791C23.7915 6.0791 25.8301 7.9834 25.8301 10.73C25.8301 12.7319 24.9023 14.0381 23.4863 14.0381C22.8638 14.0381 22.3267 13.7695 22.0581 13.2935C21.7041 13.7695 21.167 14.0381 20.5688 14.0381C19.1895 14.0381 18.2495 12.915 18.2495 11.2671C18.2495 9.66797 19.1895 8.5083 20.5322 8.5083C21.1182 8.5083 21.5454 8.71582 21.8384 9.05762L21.8384 8.95996C21.9116 8.71582 22.168 8.5083 22.4487 8.5083C22.8149 8.5083 23.0835 8.80127 23.0835 9.17969L23.0835 12.3047C23.0835 12.6587 23.23 12.8174 23.6084 12.8174C24.2065 12.8174 24.585 12.0483 24.585 10.8032C24.585 8.71582 23.0835 7.31201 20.8618 7.31201C18.6279 7.31201 17.0898 8.92334 17.0898 11.2671C17.0898 13.6597 18.6035 15.1245 21.0449 15.1245C21.8262 15.1245 22.1924 14.978 22.5586 14.917C22.7417 14.8926 22.8394 14.856 22.9736 14.856C23.291 14.856 23.5352 15.1123 23.5352 15.4297C23.5352 15.7593 23.3154 15.9668 22.9736 16.1133C22.4854 16.3086 21.7163 16.394 20.8984 16.394ZM20.7642 12.7563C21.4478 12.7563 21.875 12.1704 21.875 11.2061C21.875 10.3027 21.4478 9.75342 20.7764 9.75342C20.0806 9.75342 19.6533 10.3027 19.6533 11.2427C19.6533 12.1948 20.0806 12.7563 20.7642 12.7563ZM3.83301 22.4731L24.9512 22.4731C27.5146 22.4731 28.7842 21.2158 28.7842 18.7012L28.7842 3.78418C28.7842 1.26953 27.5146 0 24.9512 0L3.83301 0C1.28174 0 0 1.26953 0 3.78418L0 18.7012C0 21.2158 1.28174 22.4731 3.83301 22.4731Z" fill="#5ac8f5"/>
 </g>
</svg>
