<?xml version="1.0" encoding="UTF-8"?>
<!--Generator: Apple Native CoreSVG 175.5-->
<!DOCTYPE svg
PUBLIC "-//W3C//DTD SVG 1.1//EN"
       "http://www.w3.org/Graphics/SVG/1.1/DTD/svg11.dtd">
<svg version="1.1" xmlns="http://www.w3.org/2000/svg" xmlns:xlink="http://www.w3.org/1999/xlink" width="21.4722" height="26.4526">
 <g>
  <rect height="26.4526" opacity="0" width="21.4722" x="0" y="0"/>
  <path d="M2.94189 8.36182C2.94189 10.8032 4.46777 12.5122 7.37305 13.3179L13.5132 15.0513C15.5273 15.625 16.5527 16.6626 16.5527 18.1274L16.5527 18.9819L18.5181 18.9819L18.5181 18.1274C18.5181 15.6982 17.0044 13.9893 14.0991 13.1836L7.95898 11.4502C5.95703 10.8887 4.90723 9.82666 4.90723 8.36182L4.90723 7.51953L2.94189 7.51953Z" fill="#5ac8f5" fill-opacity="0.5"/>
  <path d="M17.5415 18.5913C15.3687 18.5913 13.5986 20.3491 13.5986 22.5342C13.5986 24.6948 15.3687 26.4526 17.5415 26.4526C19.7144 26.4526 21.4722 24.6948 21.4722 22.5342C21.4722 20.3491 19.7144 18.5913 17.5415 18.5913ZM3.93066 7.91016C6.10352 7.91016 7.86133 6.14014 7.86133 3.96729C7.86133 1.80664 6.10352 0.0366211 3.93066 0.0366211C1.75781 0.0366211 0 1.80664 0 3.96729C0 6.14014 1.75781 7.91016 3.93066 7.91016Z" fill="#5ac8f5"/>
 </g>
</svg>
