<?xml version="1.0" encoding="UTF-8"?>
<!--Generator: Apple Native CoreSVG 175.5-->
<!DOCTYPE svg
PUBLIC "-//W3C//DTD SVG 1.1//EN"
       "http://www.w3.org/Graphics/SVG/1.1/DTD/svg11.dtd">
<svg version="1.1" xmlns="http://www.w3.org/2000/svg" xmlns:xlink="http://www.w3.org/1999/xlink" width="28.7589" height="25.0366">
 <g>
  <rect height="25.0366" opacity="0" width="28.7589" x="0" y="0"/>
  <path d="M14.0983 13.3057L17.9313 9.47266C20.214 7.20215 20.2506 4.26025 18.0778 2.09961C15.8927-0.0732422 12.963-0.012207 10.7047 2.24609L6.87174 6.0791ZM12.8166 14.5996L5.57779 7.36084L1.74479 11.2061C-0.53793 13.4766-0.574551 16.4185 1.5983 18.5791C3.78336 20.752 6.71305 20.7031 8.97135 18.4448ZM28.7589 17.7368C28.3317 14.6362 25.6584 12.2314 22.4235 12.2314C19.1886 12.2314 16.5275 14.6362 16.1003 17.7368ZM28.7589 19.519L16.1003 19.519C16.5397 22.6318 19.1886 25.0366 22.4235 25.0366C25.6828 25.0366 28.3317 22.6318 28.7589 19.519Z" fill="#5ac8f5"/>
 </g>
</svg>
