<?xml version="1.0" encoding="UTF-8"?>
<!--Generator: Apple Native CoreSVG 175.5-->
<!DOCTYPE svg
PUBLIC "-//W3C//DTD SVG 1.1//EN"
       "http://www.w3.org/Graphics/SVG/1.1/DTD/svg11.dtd">
<svg version="1.1" xmlns="http://www.w3.org/2000/svg" xmlns:xlink="http://www.w3.org/1999/xlink" width="30.9326" height="23.2788">
 <g>
  <rect height="23.2788" opacity="0" width="30.9326" x="0" y="0"/>
  <path d="M3.83301 22.0703L13.7573 22.0703L13.7573 20.105L3.86963 20.105C2.64893 20.105 1.96533 19.458 1.96533 18.1885L1.96533 5.11475C1.96533 3.84521 2.64893 3.18604 3.86963 3.18604L24.8291 3.18604C26.0376 3.18604 26.7212 3.84521 26.7212 5.11475L26.7212 12.9517C27.0508 12.8906 27.3804 12.854 27.7222 12.854C28.0518 12.854 28.3813 12.8784 28.6865 12.9395L28.6865 5.00488C28.6865 2.49023 27.417 1.2207 24.8535 1.2207L3.83301 1.2207C1.29395 1.2207 0 2.49023 0 5.00488L0 18.2983C0 20.813 1.29395 22.0703 3.83301 22.0703ZM1.00098 8.8501L27.71 8.8501L27.71 6.0791L1.00098 6.0791ZM16.1987 23.2666C16.687 23.2666 17.0044 22.9492 17.0044 22.4731L17.0044 15.4053C17.0044 14.9048 16.6626 14.563 16.1377 14.563C15.8691 14.563 15.6738 14.6362 15.3687 14.8438L13.5254 16.04C13.2324 16.2231 13.0981 16.4551 13.0981 16.7358C13.0981 17.1265 13.4033 17.4072 13.8062 17.4072C13.9648 17.4072 14.1113 17.3584 14.27 17.2485L15.3564 16.5649L15.4297 16.5649L15.4297 22.4731C15.4297 22.9492 15.7471 23.2666 16.1987 23.2666ZM18.8599 23.1567L23.4497 23.1567C23.877 23.1567 24.1943 22.8516 24.1943 22.4365C24.1943 21.9971 23.877 21.6797 23.4497 21.6797L20.5444 21.6797L20.5444 21.6187L22.1436 20.0317C23.4985 18.7012 23.9258 17.9688 23.9258 17.041C23.9258 15.6006 22.6807 14.5142 21.0083 14.5142C19.7021 14.5142 18.5913 15.2588 18.2251 16.333C18.1641 16.5161 18.1152 16.6992 18.1152 16.9067C18.1152 17.3462 18.4204 17.6392 18.8354 17.6392C19.2139 17.6392 19.4458 17.4561 19.5557 17.041C19.5801 16.9434 19.6045 16.8579 19.6411 16.7725C19.8853 16.2598 20.3857 15.9668 21.0083 15.9668C21.7407 15.9668 22.3389 16.4917 22.3389 17.1021C22.3389 17.6514 22.0947 18.0298 21.0571 19.0552L18.4692 21.6309C18.1885 21.8994 18.0786 22.1313 18.0786 22.4121C18.0786 22.8516 18.396 23.1567 18.8599 23.1567ZM27.7344 23.2788C29.5776 23.2788 30.9326 22.168 30.9326 20.6543C30.9326 19.4946 30.127 18.6035 29.0161 18.4937L29.0161 18.9209C30.0049 18.6279 30.5908 17.8589 30.5908 16.8701C30.5908 15.5029 29.3823 14.5142 27.7222 14.5142C26.4648 14.5142 25.4272 15.0879 25 16.0034C24.8901 16.2354 24.8291 16.4917 24.8291 16.7358C24.8291 17.1631 25.1221 17.4561 25.5493 17.4561C25.9277 17.4561 26.1475 17.2852 26.2573 16.9189C26.4648 16.3086 26.9531 15.9668 27.6855 15.9668C28.5156 15.9668 29.0161 16.3696 29.0161 17.0044C29.0161 17.6636 28.479 18.0786 27.6367 18.0786L27.0264 18.0786C26.6113 18.0786 26.3184 18.3838 26.3184 18.7866C26.3184 19.1895 26.6113 19.4824 27.0264 19.4824L27.6489 19.4824C28.7231 19.4824 29.3091 19.8975 29.3091 20.6543C29.3091 21.3501 28.6865 21.814 27.7466 21.814C26.9043 21.814 26.3184 21.46 26.123 20.8618C26.0132 20.4956 25.769 20.3247 25.4028 20.3247C24.9634 20.3247 24.646 20.6299 24.646 21.0693C24.646 21.3013 24.707 21.5576 24.8291 21.7773C25.3418 22.7295 26.3794 23.2788 27.7344 23.2788Z" fill="#5ac8f5"/>
 </g>
</svg>
