<?xml version="1.0" encoding="UTF-8"?>
<!--Generator: Apple Native CoreSVG 175.5-->
<!DOCTYPE svg
PUBLIC "-//W3C//DTD SVG 1.1//EN"
       "http://www.w3.org/Graphics/SVG/1.1/DTD/svg11.dtd">
<svg version="1.1" xmlns="http://www.w3.org/2000/svg" xmlns:xlink="http://www.w3.org/1999/xlink" width="14.4897" height="21.2067">
 <g>
  <rect height="21.2067" opacity="0" width="14.4897" x="0" y="0"/>
  <path d="M1.02539 19.6915C1.34277 19.6915 1.67236 19.5816 1.96533 19.3863L2.6001 18.9591C4.29688 17.8116 6.79932 15.2237 7.22656 13.9298L7.26318 13.9298C7.67822 15.2115 10.1807 17.8116 11.8896 18.9591L12.5244 19.3863C12.8174 19.5816 13.147 19.6915 13.4521 19.6915C14.0747 19.6915 14.4897 19.2642 14.4897 18.6661C14.4897 18.2999 14.2944 17.9337 13.9648 17.7261L13.0005 17.1036C11.3037 15.9805 8.31299 13.1485 8.31299 10.1578L8.31299 3.9322L6.17676 3.9322L6.17676 10.1578C6.17676 13.1485 3.17383 15.9683 1.48926 17.1036L0.524902 17.7261C0.183105 17.9337 0 18.3121 0 18.6783C0 19.2276 0.402832 19.6915 1.02539 19.6915ZM4.44336 5.58015L10.0464 5.58015C10.9009 5.58015 11.1328 4.98201 10.6567 4.31062L7.93457 0.416578C7.54395-0.132739 6.95801-0.144946 6.55518 0.416578L3.8208 4.29841C3.34473 4.98201 3.56445 5.58015 4.44336 5.58015Z" fill="#5ac8f5"/>
 </g>
</svg>
