<?xml version="1.0" encoding="UTF-8"?>
<!--Generator: Apple Native CoreSVG 175.5-->
<!DOCTYPE svg
PUBLIC "-//W3C//DTD SVG 1.1//EN"
       "http://www.w3.org/Graphics/SVG/1.1/DTD/svg11.dtd">
<svg version="1.1" xmlns="http://www.w3.org/2000/svg" xmlns:xlink="http://www.w3.org/1999/xlink" width="26.1861" height="24.939">
 <g>
  <rect height="24.939" opacity="0" width="26.1861" x="0" y="0"/>
  <path d="M7.47277 5.33447C8.94982 5.33447 10.1339 4.13818 10.1339 2.64893C10.1339 1.18408 8.94982 0 7.47277 0C6.00793 0 4.79943 1.18408 4.79943 2.64893C4.79943 4.13818 6.00793 5.33447 7.47277 5.33447ZM25.527 22.3511L17.4825 18.0054L12.8317 14.7705C12.4899 14.5386 12.1603 14.2334 11.8917 13.8916C12.3678 13.5986 12.5631 13.0615 12.4288 12.5366L11.5133 8.82568C11.1837 7.51953 9.99963 6.61621 8.65686 6.61621L5.75158 6.61621C4.86047 6.61621 4.23791 6.83594 3.66418 7.40967L0.356075 10.7178C-0.0467573 11.1206-0.107792 11.7432 0.172969 12.2314L2.49231 16.2964L2.49231 23.4497C2.49231 24.1211 3.05383 24.6948 3.73742 24.6948C4.42102 24.6948 4.98254 24.1211 4.98254 23.4497L4.98254 17.3096L12.0992 17.8223L16.4083 20.2637L24.3551 24.5361C25.0875 24.9268 25.7955 24.5605 26.0519 24.0479C26.3571 23.4375 26.1251 22.6685 25.527 22.3511ZM2.80969 11.8164L4.95813 9.65576L6.63049 13.9648L5.31213 14.7217L4.46984 14.7217Z" fill="#5ac8f5"/>
 </g>
</svg>
