<?xml version="1.0" encoding="UTF-8"?>
<!--Generator: Apple Native CoreSVG 175.5-->
<!DOCTYPE svg
PUBLIC "-//W3C//DTD SVG 1.1//EN"
       "http://www.w3.org/Graphics/SVG/1.1/DTD/svg11.dtd">
<svg version="1.1" xmlns="http://www.w3.org/2000/svg" xmlns:xlink="http://www.w3.org/1999/xlink" width="24.9023" height="24.9146">
 <g>
  <rect height="24.9146" opacity="0" width="24.9023" x="0" y="0"/>
  <path d="M12.4512 24.9023C19.2627 24.9023 24.9023 19.2505 24.9023 12.4512C24.9023 5.63965 19.2505 0 12.439 0C5.63965 0 0 5.63965 0 12.4512C0 19.2505 5.65186 24.9023 12.4512 24.9023ZM12.439 18.2251C11.7798 18.2251 11.438 17.749 11.438 17.0776L11.438 7.59277C11.438 6.92139 11.7798 6.44531 12.439 6.44531C13.0981 6.44531 13.4644 6.88477 13.4644 7.59277L13.4644 17.0776C13.4644 17.7856 13.0981 18.2251 12.439 18.2251Z" fill="#5ac8f5"/>
 </g>
</svg>
