<?xml version="1.0" encoding="UTF-8"?>
<!--Generator: Apple Native CoreSVG 175.5-->
<!DOCTYPE svg
PUBLIC "-//W3C//DTD SVG 1.1//EN"
       "http://www.w3.org/Graphics/SVG/1.1/DTD/svg11.dtd">
<svg version="1.1" xmlns="http://www.w3.org/2000/svg" xmlns:xlink="http://www.w3.org/1999/xlink" width="23.9471" height="26.9653">
 <g>
  <rect height="26.9653" opacity="0" width="23.9471" x="0" y="0"/>
  <path d="M12.8632 26.0986C15.0482 26.0986 16.7816 25.5737 18.1488 24.5361L4.48914 10.8765L4.48914 17.5293C4.48914 22.9126 8.01697 26.0986 12.8632 26.0986ZM21.1273 20.6299C21.2738 20.3247 21.4081 20.0073 21.5179 19.6655C22.1039 18.1641 22.6288 16.5161 23.1781 14.7217C23.4955 13.6963 23.9471 12.3901 23.9471 11.8042C23.9471 11.145 23.4711 10.7056 22.7753 10.7056C22.0062 10.7056 21.5546 11.1938 20.9808 12.3535L19.2841 15.918C19.1132 16.3086 18.9178 16.4551 18.7225 16.4551C18.4662 16.4551 18.2953 16.3086 18.2953 15.8813L18.2953 3.07617C18.2953 2.35596 17.7094 1.77002 16.9891 1.77002C16.2689 1.77002 15.683 2.35596 15.683 3.07617L15.683 12.2314C15.3534 12.1094 14.9872 12.0117 14.5966 11.9385L14.5966 1.31836C14.5966 0.598145 14.0106 0 13.2904 0C12.5702 0 11.972 0.598145 11.972 1.31836L11.972 11.0596C11.7889 11.0718 11.7279 11.0718 11.5936 11.1084ZM8.21228 7.71484L10.8246 10.3394L10.8246 2.35596C10.8246 1.63574 10.2386 1.0498 9.51843 1.0498C8.79822 1.0498 8.21228 1.63574 8.21228 2.35596ZM5.4657 4.99268L7.11365 6.62842L7.11365 6.15234C7.11365 5.43213 6.52771 4.84619 5.8075 4.84619C5.66101 4.84619 5.55115 4.90723 5.4657 4.99268Z" fill="#5ac8f5" fill-opacity="0.5"/>
  <path d="M21.9696 26.2451C22.3236 26.5991 22.9462 26.6113 23.3002 26.2451C23.6542 25.8667 23.6664 25.2808 23.3002 24.9146L1.60828 3.23486C1.24207 2.86865 0.643921 2.86865 0.265503 3.23486C-0.088501 3.60107-0.088501 4.21143 0.265503 4.56543Z" fill="#5ac8f5"/>
 </g>
</svg>
