<?xml version="1.0" encoding="UTF-8"?>
<!--Generator: Apple Native CoreSVG 175.5-->
<!DOCTYPE svg
PUBLIC "-//W3C//DTD SVG 1.1//EN"
       "http://www.w3.org/Graphics/SVG/1.1/DTD/svg11.dtd">
<svg version="1.1" xmlns="http://www.w3.org/2000/svg" xmlns:xlink="http://www.w3.org/1999/xlink" width="22.4731" height="18.4204">
 <g>
  <rect height="18.4204" opacity="0" width="22.4731" x="0" y="0"/>
  <path d="M0 17.4316C0 17.9688 0.439453 18.4204 0.976562 18.4204C1.52588 18.4204 1.96533 17.9688 1.96533 17.4316L1.96533 1.00098C1.96533 0.463867 1.52588 0.0244141 0.976562 0.0244141C0.439453 0.0244141 0 0.463867 0 1.00098ZM20.5078 17.4316C20.5078 17.9688 20.9595 18.4204 21.4966 18.4204C22.0337 18.4204 22.4731 17.9688 22.4731 17.4316L22.4731 1.00098C22.4731 0.463867 22.0337 0.0244141 21.4966 0.0244141C20.9595 0.0244141 20.5078 0.463867 20.5078 1.00098Z" fill="#5ac8f5" fill-opacity="0.5"/>
  <path d="M8.47168 14.7339L14.7461 14.7339C15.21 14.7339 15.564 14.4287 15.564 13.9404C15.564 13.4277 15.21 13.1348 14.7461 13.1348L10.2905 13.1348L10.2905 13.0493L13.1836 9.96094C14.27 8.80127 15.0269 7.83691 15.0269 6.48193C15.0269 4.62646 13.5376 3.39355 11.2793 3.39355C9.5459 3.39355 8.00781 4.44336 7.61719 5.81055C7.56836 5.99365 7.55615 6.14014 7.55615 6.29883C7.55615 6.7749 7.87354 7.08008 8.3374 7.08008C8.77686 7.08008 8.99658 6.81152 9.2041 6.46973C9.53369 5.7251 10.1685 4.94385 11.3647 4.94385C12.5244 4.94385 13.2935 5.61523 13.2935 6.62842C13.2935 7.51953 12.5488 8.26416 11.8286 9.021L7.92236 13.208C7.71484 13.4399 7.60498 13.6841 7.60498 13.9404C7.60498 14.4287 7.92236 14.7339 8.47168 14.7339Z" fill="#5ac8f5"/>
 </g>
</svg>
