<?xml version="1.0" encoding="UTF-8"?>
<!--Generator: Apple Native CoreSVG 175.5-->
<!DOCTYPE svg
PUBLIC "-//W3C//DTD SVG 1.1//EN"
       "http://www.w3.org/Graphics/SVG/1.1/DTD/svg11.dtd">
<svg version="1.1" xmlns="http://www.w3.org/2000/svg" xmlns:xlink="http://www.w3.org/1999/xlink" width="24.9023" height="24.9146">
 <g>
  <rect height="24.9146" opacity="0" width="24.9023" x="0" y="0"/>
  <path d="M1.29395 13.3057C4.61426 8.77686 9.70459 5.92041 15.5884 5.92041C17.9565 5.92041 20.1782 6.37207 22.29 7.27539L22.0215 5.70068C20.0317 4.96826 17.8223 4.56543 15.5884 4.56543C9.33838 4.56543 3.78418 7.66602 0.280762 12.4023ZM22.0459 18.2251L23.3398 17.8467C21.4966 11.3892 10.9253 9.98535 10.9253 4.80957C10.9253 3.25928 11.7188 2.12402 13.1714 1.35498L12.3291 0.268555C10.6567 1.23291 9.57031 2.85645 9.57031 4.80957C9.57031 11.0718 20.4346 12.6831 22.0459 18.2251ZM4.26025 21.106L5.82275 21.2524C3.97949 17.7368 5.79834 12.5977 5.49316 8.17871C5.40771 7.00684 4.67529 4.89502 3.35693 4.57764L3.01514 5.896C3.60107 5.96924 4.08936 7.4707 4.13818 8.28857C4.40674 12.1704 2.74658 17.1631 4.26025 21.106ZM14.0991 24.0112L15.1855 23.1934C8.03223 14.3066 6.97021 4.61426 8.14209 1.97754L6.66504 2.18506C5.74951 5.98145 7.26318 15.4663 14.0991 24.0112ZM12.4512 24.9023C19.2627 24.9023 24.9023 19.2505 24.9023 12.4512C24.9023 5.63965 19.2505 0 12.439 0C5.63965 0 0 5.63965 0 12.4512C0 19.2505 5.65186 24.9023 12.4512 24.9023ZM12.4512 23.2422C6.55518 23.2422 1.66016 18.3472 1.66016 12.4512C1.66016 6.55518 6.54297 1.66016 12.439 1.66016C18.335 1.66016 23.2422 6.55518 23.2422 12.4512C23.2422 18.3472 18.3472 23.2422 12.4512 23.2422Z" fill="#5ac8f5"/>
 </g>
</svg>
