<?xml version="1.0" encoding="UTF-8"?>
<!--Generator: Apple Native CoreSVG 175.5-->
<!DOCTYPE svg
PUBLIC "-//W3C//DTD SVG 1.1//EN"
       "http://www.w3.org/Graphics/SVG/1.1/DTD/svg11.dtd">
<svg version="1.1" xmlns="http://www.w3.org/2000/svg" xmlns:xlink="http://www.w3.org/1999/xlink" width="26.1337" height="27.6489">
 <g>
  <rect height="27.6489" opacity="0" width="26.1337" x="0" y="0"/>
  <path d="M8.71277 13.5376L2.09656 6.92139C1.42517 7.38525 1.16882 7.76367 1.16882 8.31299C1.16882 8.94775 1.52283 9.375 2.46277 9.92432ZM16.8427 14.563L24.7528 9.97314C25.7416 9.39941 26.12 8.94775 26.12 8.27637C26.12 7.61719 25.7416 7.16553 24.7528 6.5918L15.2069 1.0498C14.621 0.708008 14.1449 0.549316 13.6566 0.549316C13.1561 0.549316 12.6923 0.708008 12.0941 1.0498L6.55212 4.26025ZM13.6566 22.0337C14.0961 22.0337 14.4745 21.8262 14.9872 21.521L16.2567 20.7642L14.8163 19.3237L14.1205 19.7266C13.9374 19.8242 13.7909 19.8975 13.6566 19.8975C13.5101 19.8975 13.3636 19.8242 13.1805 19.7266L1.87683 13.1958C1.53503 13.3545 1.16882 13.7695 1.16882 14.27C1.16882 14.6484 1.38855 15.0635 1.84021 15.332L12.3138 21.521C12.8387 21.8262 13.205 22.0337 13.6566 22.0337ZM20.517 18.2495L25.473 15.332C25.9247 15.0513 26.1322 14.6484 26.1322 14.27C26.1322 13.7695 25.766 13.3545 25.4242 13.1958L19.1132 16.8335ZM13.6566 27.6489C14.0961 27.6489 14.4745 27.4414 14.9872 27.1362L19.7968 24.3042L18.3685 22.8882L14.1205 25.354C13.9374 25.4517 13.7909 25.5249 13.6566 25.5249C13.5101 25.5249 13.3636 25.4517 13.1805 25.354L1.87683 18.811C1.53503 18.9819 1.16882 19.3848 1.16882 19.8853C1.16882 20.2637 1.38855 20.6909 1.84021 20.9473L12.3138 27.1362C12.8387 27.4414 13.205 27.6489 13.6566 27.6489ZM24.057 21.7896L25.473 20.9473C25.9125 20.6909 26.1322 20.2637 26.1322 19.8853C26.1322 19.3848 25.766 18.9819 25.4242 18.811L22.6776 20.4102Z" fill="#5ac8f5" fill-opacity="0.5"/>
  <path d="M24.5331 26.9653C24.8871 27.3193 25.4974 27.3315 25.8636 26.9653C26.2177 26.5869 26.2299 26.001 25.8636 25.6348L1.60828 1.3916C1.24207 1.02539 0.631714 1.02539 0.265503 1.3916C-0.088501 1.74561-0.088501 2.36816 0.265503 2.72217Z" fill="#5ac8f5"/>
 </g>
</svg>
