<?xml version="1.0" encoding="UTF-8"?>
<!--Generator: Apple Native CoreSVG 175.5-->
<!DOCTYPE svg
PUBLIC "-//W3C//DTD SVG 1.1//EN"
       "http://www.w3.org/Graphics/SVG/1.1/DTD/svg11.dtd">
<svg version="1.1" xmlns="http://www.w3.org/2000/svg" xmlns:xlink="http://www.w3.org/1999/xlink" width="18.8599" height="20.1782">
 <g>
  <rect height="20.1782" opacity="0" width="18.8599" x="0" y="0"/>
  <path d="M17.8223 20.1782C18.396 20.1782 18.8599 19.7388 18.8599 19.165L18.8599 1.0376C18.8599 0.463867 18.396 0.012207 17.8223 0.012207C17.2485 0.012207 16.7725 0.463867 16.7725 1.0376L16.7725 19.165C16.7725 19.7388 17.2485 20.1782 17.8223 20.1782ZM1.75781 19.6899C2.2583 19.6899 2.66113 19.5312 3.16162 19.2383L15.6006 11.9141C16.4673 11.4014 16.8335 10.791 16.8335 10.0952C16.8335 9.39941 16.4673 8.78906 15.6006 8.27637L3.16162 0.952148C2.66113 0.65918 2.2583 0.500488 1.75781 0.500488C0.793457 0.500488 0 1.23291 0 2.6001L0 17.5903C0 18.9575 0.793457 19.6899 1.75781 19.6899ZM2.29492 17.4316C2.11182 17.4316 1.95312 17.3096 1.95312 17.0654L1.95312 3.125C1.95312 2.88086 2.11182 2.75879 2.29492 2.75879C2.36816 2.75879 2.46582 2.79541 2.58789 2.86865L14.1968 9.75342C14.3677 9.85107 14.4531 9.92432 14.4531 10.0952C14.4531 10.2539 14.3555 10.3394 14.1968 10.437L2.58789 17.3218C2.46582 17.395 2.36816 17.4316 2.29492 17.4316Z" fill="#5ac8f5"/>
 </g>
</svg>
