<?xml version="1.0" encoding="UTF-8"?>
<!--Generator: Apple Native CoreSVG 175.5-->
<!DOCTYPE svg
PUBLIC "-//W3C//DTD SVG 1.1//EN"
       "http://www.w3.org/Graphics/SVG/1.1/DTD/svg11.dtd">
<svg version="1.1" xmlns="http://www.w3.org/2000/svg" xmlns:xlink="http://www.w3.org/1999/xlink" width="32.1289" height="27.063">
 <g>
  <rect height="27.063" opacity="0" width="32.1289" x="0" y="0"/>
  <path d="M0 12.6343C0 17.0898 3.05176 20.0439 7.62939 20.0439C12.1338 20.0439 15.1489 17.395 15.1489 13.4033C15.1489 11.731 14.563 10.3882 13.5864 9.55811C13.1348 9.17969 12.8784 9.05762 12.4512 9.05762C11.8896 9.05762 11.499 9.39941 11.499 9.8999C11.499 10.5103 11.853 10.6689 12.4146 11.1816C12.9272 11.6821 13.2202 12.439 13.2202 13.3667C13.2202 16.1987 10.9985 18.0908 7.66602 18.0908C4.24805 18.0908 1.96533 15.9058 1.96533 12.6221C1.96533 10.7422 2.91748 8.95996 4.47998 7.95898L3.50342 6.26221C1.33057 7.61719 0 10.0464 0 12.6343ZM3.2959 6.27441C3.2959 8.99658 5.18799 10.9375 8.17871 10.9375C8.70361 10.9375 9.15527 10.4858 9.15527 9.96094C9.15527 9.42383 8.70361 8.97217 8.17871 8.97217C6.37207 8.97217 5.26123 7.83691 5.26123 6.27441C5.26123 4.54102 6.68945 3.32031 8.60596 3.32031C9.49707 3.32031 10.4492 3.60107 11.3281 4.19922L12.4756 2.6001C11.2549 1.74561 9.8999 1.35498 8.61816 1.35498C5.66406 1.35498 3.2959 3.38135 3.2959 6.27441ZM9.80225 5.94482C9.77783 6.57959 10.2051 7.00684 10.7666 7.00684C11.3037 7.00684 11.7188 6.65283 11.7432 6.03027C11.8286 3.71094 13.5132 2.01416 15.8813 2.01416C17.3096 2.01416 18.5547 2.771 19.0552 3.89404C19.1528 4.06494 19.2871 4.07715 19.519 4.01611C19.9219 3.90625 20.3735 3.84521 20.813 3.84521C22.998 3.86963 25.0732 5.50537 25.0732 8.14209C25.0732 13.8672 17.0166 13.0859 17.0166 18.6768C17.0166 21.3379 19.1284 22.998 21.8628 22.998C22.1558 22.998 22.4731 22.9858 22.7905 22.9736C23.0713 25.0488 24.3774 27.063 26.4893 27.063C29.541 27.063 31.0303 23.3521 31.0303 19.7388C31.0303 18.1641 30.9448 17.1021 30.835 16.1011L28.8696 16.6504C28.9795 17.627 29.0771 18.5425 29.0771 19.7144C29.0771 22.6807 27.9541 25.0977 26.4893 25.0977C24.9756 25.0977 24.3652 23.0835 24.3652 21.4722C24.3652 21.3501 24.292 21.2646 24.1211 21.2769C23.7793 21.2769 23.3154 21.2769 23.0103 21.2769C20.5811 21.2769 18.9819 20.5322 18.9819 18.6401C18.9819 14.1724 27.0386 15.1855 27.0386 8.14209C27.0386 4.38232 24.2554 1.87988 21.0693 1.87988C20.8252 1.87988 20.4834 1.9165 20.1416 2.00195C19.165 0.793457 17.6025 0.0610352 15.8936 0.0610352C12.4268 0.0610352 9.94873 2.49023 9.80225 5.94482ZM24.1577 17.9199C24.1577 18.4692 24.5972 18.8599 25.1465 18.8965C29.3335 19.165 32.1289 16.6992 32.1289 12.7319C32.1289 9.49707 29.8218 7.01904 26.355 6.55518L26.0498 8.5083C28.5156 8.54492 30.1636 10.2295 30.1636 12.7319C30.1636 15.4907 28.1494 17.1753 25.1465 16.9434C24.5972 16.8945 24.1577 17.3828 24.1577 17.9199ZM17.8833 19.5068C17.1631 19.7632 16.3208 19.8853 15.5273 19.8853C13.4644 19.8853 11.3647 19.0796 10.5591 17.8345L8.93555 19.1528C10.2173 20.752 12.5366 21.8506 15.3198 21.8506C16.3208 21.8506 17.4438 21.7041 18.5547 21.3745ZM13.9648 10.8887L14.624 12.7441C17.7002 12.146 19.0796 10.2173 19.0796 7.36084C19.0796 6.82373 18.6279 6.38428 18.0908 6.38428C17.5537 6.38428 17.1143 6.82373 17.1143 7.36084C17.1143 9.36279 16.2598 10.5591 13.9648 10.8887Z" fill="#5ac8f5"/>
 </g>
</svg>
