<?xml version="1.0" encoding="UTF-8"?>
<!--Generator: Apple Native CoreSVG 175.5-->
<!DOCTYPE svg
PUBLIC "-//W3C//DTD SVG 1.1//EN"
       "http://www.w3.org/Graphics/SVG/1.1/DTD/svg11.dtd">
<svg version="1.1" xmlns="http://www.w3.org/2000/svg" xmlns:xlink="http://www.w3.org/1999/xlink" width="22.4731" height="22.4976">
 <g>
  <rect height="22.4976" opacity="0" width="22.4731" x="0" y="0"/>
  <path d="M3.83301 22.4976L18.6401 22.4976C21.2036 22.4976 22.4731 21.228 22.4731 18.7134L22.4731 3.80859C22.4731 1.29395 21.2036 0.0244141 18.6401 0.0244141L3.83301 0.0244141C1.28174 0.0244141 0 1.28174 0 3.80859L0 18.7134C0 21.2402 1.28174 22.4976 3.83301 22.4976ZM12.5122 15.271C11.7188 16.1133 10.8032 16.1133 10.0098 15.271L5.07812 10.0342C4.6875 9.63135 4.6875 9.05762 5.0293 8.69141C5.41992 8.28857 6.03027 8.28857 6.38428 8.66699L11.2671 13.8306L16.1377 8.66699C16.4917 8.28857 17.0898 8.30078 17.4927 8.69141C17.8467 9.04541 17.8345 9.63135 17.4438 10.0342Z" fill="#5ac8f5"/>
 </g>
</svg>
