<?xml version="1.0" encoding="UTF-8"?>
<!--Generator: Apple Native CoreSVG 175.5-->
<!DOCTYPE svg
PUBLIC "-//W3C//DTD SVG 1.1//EN"
       "http://www.w3.org/Graphics/SVG/1.1/DTD/svg11.dtd">
<svg version="1.1" xmlns="http://www.w3.org/2000/svg" xmlns:xlink="http://www.w3.org/1999/xlink" width="26.244" height="27.0325">
 <g>
  <rect height="27.0325" opacity="0" width="26.244" x="0" y="0"/>
  <path d="M24.234 2.84119C21.2433-0.149536 16.0431 0.241089 12.5641 3.70789C10.5499 5.73425 9.70764 8.2489 9.68323 10.7269C9.6344 14.4012 9.2804 16.5253 5.89905 19.9066L7.16858 21.1639C10.5377 17.807 12.6495 17.514 16.3239 17.392C18.8385 17.3187 21.3165 16.5375 23.3551 14.4989C26.8341 11.0199 27.2247 5.8197 24.234 2.84119ZM22.9279 4.13513C25.3326 6.55212 25.0519 10.2142 22.0612 13.1927C19.046 16.1957 15.3839 16.4886 12.9913 14.0839C10.5743 11.6913 10.8551 8.01697 13.8702 5.01404C16.861 2.02332 20.5353 1.74255 22.9279 4.13513ZM11.6852 15.39C12.027 15.7562 12.442 16.0492 12.8693 16.3177C11.673 16.5253 10.5499 16.9281 9.34143 17.7338C10.1471 16.5375 10.5499 15.4022 10.7452 14.2059C11.0016 14.6332 11.319 15.036 11.6852 15.39ZM0.430298 25.8026L1.23596 26.6205C1.80969 27.1698 2.63977 27.1698 3.20129 26.6205L7.92542 21.8842C8.49915 21.3104 8.49915 20.4803 7.92542 19.9188L7.11975 19.101C6.55823 18.5394 5.71594 18.5394 5.15442 19.101L0.430298 23.8495C-0.143433 24.3988-0.143433 25.2289 0.430298 25.8026ZM10.6354 10.5804L11.2457 11.1908L20.047 2.38953L19.4366 1.76697ZM11.319 13.3881L11.9171 13.9984L22.8424 3.08533L22.2565 2.46277ZM13.0646 15.1459L13.6871 15.7562L24.6124 4.83093L24.0021 4.20837ZM15.8844 15.8295L16.4825 16.452L25.296 7.63855L24.6735 7.0282ZM18.5333 2.10876L24.881 8.44421L25.4913 7.83386L19.1437 1.49841ZM15.7745 2.6825L24.3683 11.3007L25.0031 10.6781L16.3849 2.07214ZM13.9923 4.19617L22.8424 13.0707L23.4772 12.4481L14.6027 3.57361ZM12.442 5.74646L21.2921 14.621L21.9147 13.9984L13.0524 5.1239ZM10.9283 7.52869L19.5343 16.1469L20.1447 15.5365L11.5265 6.93054ZM10.3302 10.2631L16.7145 16.6595L17.337 16.037L10.9406 9.65271Z" fill="#5ac8f5"/>
 </g>
</svg>
