<?xml version="1.0" encoding="UTF-8"?>
<!--Generator: Apple Native CoreSVG 175.5-->
<!DOCTYPE svg
PUBLIC "-//W3C//DTD SVG 1.1//EN"
       "http://www.w3.org/Graphics/SVG/1.1/DTD/svg11.dtd">
<svg version="1.1" xmlns="http://www.w3.org/2000/svg" xmlns:xlink="http://www.w3.org/1999/xlink" width="29.8462" height="25.9155">
 <g>
  <rect height="25.9155" opacity="0" width="29.8462" x="0" y="0"/>
  <path d="M0.976562 25.9033C1.52588 25.9033 1.96533 25.4639 1.96533 24.9268L1.96533 2.6123C1.96533 2.22168 2.22168 1.96533 2.58789 1.96533L27.2583 1.96533C27.6245 1.96533 27.8809 2.22168 27.8809 2.6123L27.8809 24.9268C27.8809 25.4639 28.3203 25.9033 28.8574 25.9033C29.4067 25.9033 29.8462 25.4639 29.8462 24.9268L29.8462 2.49023C29.8462 1.00098 28.8208 0 27.2827 0L2.55127 0C1.02539 0 0 1.00098 0 2.49023L0 24.9268C0 25.4639 0.439453 25.9033 0.976562 25.9033ZM3.80859 8.56934L26.0376 8.56934C26.2695 8.56934 26.4526 8.38623 26.4526 8.1665L26.4526 3.79639C26.4526 3.56445 26.2695 3.38135 26.0376 3.38135L3.80859 3.38135C3.57666 3.38135 3.39355 3.56445 3.39355 3.79639L3.39355 8.1665C3.39355 8.38623 3.57666 8.56934 3.80859 8.56934ZM12.5366 6.56738C12.1826 6.56738 11.9507 6.32324 11.9507 5.98145C11.9507 5.62744 12.1826 5.3833 12.5366 5.3833L17.3096 5.3833C17.6636 5.3833 17.8955 5.62744 17.8955 5.98145C17.8955 6.32324 17.6636 6.56738 17.3096 6.56738Z" fill="#5ac8f5"/>
 </g>
</svg>
