<?xml version="1.0" encoding="UTF-8"?>
<!--Generator: Apple Native CoreSVG 175.5-->
<!DOCTYPE svg
PUBLIC "-//W3C//DTD SVG 1.1//EN"
       "http://www.w3.org/Graphics/SVG/1.1/DTD/svg11.dtd">
<svg version="1.1" xmlns="http://www.w3.org/2000/svg" xmlns:xlink="http://www.w3.org/1999/xlink" width="27.5757" height="26.6968">
 <g>
  <rect height="26.6968" opacity="0" width="27.5757" x="0" y="0"/>
  <path d="M4.83398 5.59082L6.72607 5.59082L6.72607 3.71094C6.72607 2.68555 7.25098 2.18506 8.26416 2.18506L19.3115 2.18506C20.3369 2.18506 20.8496 2.68555 20.8496 3.71094L20.8496 5.56641L22.7417 5.56641L22.7417 3.84521C22.7417 1.46484 21.5576 0.402832 19.2871 0.402832L8.28857 0.402832C6.14014 0.402832 4.83398 1.46484 4.83398 3.84521ZM3.6377 23.0713L6.05469 23.0713L6.05469 21.228L3.61328 21.228C2.52686 21.228 1.97754 20.6665 1.97754 19.5923L1.97754 7.97119C1.97754 6.89697 2.52686 6.33545 3.61328 6.33545L23.9746 6.33545C25.0488 6.33545 25.6104 6.89697 25.6104 7.97119L25.6104 19.5923C25.6104 20.6665 25.0488 21.228 23.9746 21.228L21.6919 21.228L21.6919 23.0713L23.9502 23.0713C26.3184 23.0713 27.5757 21.875 27.5757 19.4946L27.5757 8.06885C27.5757 5.70068 26.3184 4.49219 23.9502 4.49219L3.6377 4.49219C1.37939 4.49219 0 5.70068 0 8.06885L0 19.4946C0 21.875 1.25732 23.0713 3.6377 23.0713ZM7.25098 26.6968L20.3247 26.6968C21.875 26.6968 22.6562 25.9888 22.6562 24.3652L22.6562 19.2261C22.6562 17.6147 21.875 16.8945 20.3247 16.8945L7.25098 16.8945C5.77393 16.8945 4.91943 17.6147 4.91943 19.2261L4.91943 24.3652C4.91943 25.9888 5.70068 26.6968 7.25098 26.6968ZM7.86133 24.8535C7.21436 24.8535 6.88477 24.5361 6.88477 23.877L6.88477 19.7021C6.88477 19.0552 7.21436 18.7378 7.86133 18.7378L19.7266 18.7378C20.3857 18.7378 20.6909 19.0552 20.6909 19.7021L20.6909 23.877C20.6909 24.5361 20.3857 24.8535 19.7266 24.8535ZM8.70361 21.7773C8.70361 22.3022 9.10645 22.7173 9.63135 22.7173L17.9565 22.7173C18.4692 22.7173 18.8721 22.3022 18.8721 21.7773C18.8721 21.2769 18.4692 20.8618 17.9565 20.8618L9.63135 20.8618C9.10645 20.8618 8.70361 21.2769 8.70361 21.7773ZM7.21436 10.6689L8.3374 10.6689C8.6792 10.6689 8.88672 10.4614 8.88672 10.1196L8.88672 9.00879C8.88672 8.66699 8.6792 8.45947 8.3374 8.45947L7.21436 8.45947C6.88477 8.45947 6.67725 8.66699 6.67725 9.00879L6.67725 10.1196C6.67725 10.4614 6.88477 10.6689 7.21436 10.6689ZM11.2305 10.6689L12.3413 10.6689C12.6831 10.6689 12.8906 10.4614 12.8906 10.1196L12.8906 9.00879C12.8906 8.66699 12.6831 8.45947 12.3413 8.45947L11.2305 8.45947C10.8887 8.45947 10.6812 8.66699 10.6812 9.00879L10.6812 10.1196C10.6812 10.4614 10.8887 10.6689 11.2305 10.6689ZM15.2344 10.6689L16.3574 10.6689C16.687 10.6689 16.8945 10.4614 16.8945 10.1196L16.8945 9.00879C16.8945 8.66699 16.687 8.45947 16.3574 8.45947L15.2344 8.45947C14.8926 8.45947 14.6851 8.66699 14.6851 9.00879L14.6851 10.1196C14.6851 10.4614 14.8926 10.6689 15.2344 10.6689ZM19.2383 10.6689L20.3613 10.6689C20.7031 10.6689 20.9106 10.4614 20.9106 10.1196L20.9106 9.00879C20.9106 8.66699 20.7031 8.45947 20.3613 8.45947L19.2383 8.45947C18.9087 8.45947 18.7012 8.66699 18.7012 9.00879L18.7012 10.1196C18.7012 10.4614 18.9087 10.6689 19.2383 10.6689ZM7.21436 14.7827L8.3374 14.7827C8.6792 14.7827 8.88672 14.5752 8.88672 14.2334L8.88672 13.1104C8.88672 12.7686 8.6792 12.561 8.3374 12.561L7.21436 12.561C6.88477 12.561 6.67725 12.7686 6.67725 13.1104L6.67725 14.2334C6.67725 14.5752 6.88477 14.7827 7.21436 14.7827ZM11.2305 14.7827L12.3413 14.7827C12.6831 14.7827 12.8906 14.5752 12.8906 14.2334L12.8906 13.1104C12.8906 12.7686 12.6831 12.561 12.3413 12.561L11.2305 12.561C10.8887 12.561 10.6812 12.7686 10.6812 13.1104L10.6812 14.2334C10.6812 14.5752 10.8887 14.7827 11.2305 14.7827ZM15.2344 14.7827L16.3574 14.7827C16.687 14.7827 16.8945 14.5752 16.8945 14.2334L16.8945 13.1104C16.8945 12.7686 16.687 12.561 16.3574 12.561L15.2344 12.561C14.8926 12.561 14.6851 12.7686 14.6851 13.1104L14.6851 14.2334C14.6851 14.5752 14.8926 14.7827 15.2344 14.7827ZM19.2383 14.7827L20.3613 14.7827C20.7031 14.7827 20.9106 14.5752 20.9106 14.2334L20.9106 13.1104C20.9106 12.7686 20.7031 12.561 20.3613 12.561L19.2383 12.561C18.9087 12.561 18.7012 12.7686 18.7012 13.1104L18.7012 14.2334C18.7012 14.5752 18.9087 14.7827 19.2383 14.7827Z" fill="#5ac8f5"/>
 </g>
</svg>
