<?xml version="1.0" encoding="UTF-8"?>
<!--Generator: Apple Native CoreSVG 175.5-->
<!DOCTYPE svg
PUBLIC "-//W3C//DTD SVG 1.1//EN"
       "http://www.w3.org/Graphics/SVG/1.1/DTD/svg11.dtd">
<svg version="1.1" xmlns="http://www.w3.org/2000/svg" xmlns:xlink="http://www.w3.org/1999/xlink" width="28.7842" height="22.4731">
 <g>
  <rect height="22.4731" opacity="0" width="28.7842" x="0" y="0"/>
  <path d="M3.83301 22.4731L24.9512 22.4731C27.5146 22.4731 28.7842 21.2158 28.7842 18.7012L28.7842 3.78418C28.7842 1.26953 27.5146 0 24.9512 0L3.83301 0C1.28174 0 0 1.26953 0 3.78418L0 18.7012C0 21.2158 1.28174 22.4731 3.83301 22.4731ZM3.85742 20.5078C2.63672 20.5078 1.96533 19.8608 1.96533 18.5913L1.96533 3.89404C1.96533 2.62451 2.63672 1.96533 3.85742 1.96533L24.9268 1.96533C26.1353 1.96533 26.8188 2.62451 26.8188 3.89404L26.8188 18.5913C26.8188 19.8608 26.1353 20.5078 24.9268 20.5078Z" fill="#5ac8f5" fill-opacity="0.5"/>
  <path d="M14.3433 18.042C18.0908 18.042 21.1304 15.0024 21.1304 11.2427C21.1304 7.49512 18.0908 4.45557 14.3433 4.45557C10.5835 4.45557 7.54395 7.49512 7.54395 11.2427C7.54395 15.0024 10.5835 18.042 14.3433 18.042ZM14.3433 16.4673C11.438 16.4673 9.11865 14.1479 9.11865 11.2427C9.11865 8.3374 11.438 6.03027 14.3433 6.03027C17.2485 6.03027 19.5557 8.3374 19.5557 11.2427C19.5557 14.1479 17.2485 16.4673 14.3433 16.4673ZM9.50928 14.2822L17.1753 6.61621L15.7837 5.41992L8.99658 12.207ZM12.9761 17.1387L19.7388 10.376L19.2139 8.3252L11.5967 15.9302Z" fill="#5ac8f5"/>
 </g>
</svg>
