<?xml version="1.0" encoding="UTF-8"?>
<!--Generator: Apple Native CoreSVG 175.5-->
<!DOCTYPE svg
PUBLIC "-//W3C//DTD SVG 1.1//EN"
       "http://www.w3.org/Graphics/SVG/1.1/DTD/svg11.dtd">
<svg version="1.1" xmlns="http://www.w3.org/2000/svg" xmlns:xlink="http://www.w3.org/1999/xlink" width="27.8687" height="28.1445">
 <g>
  <rect height="28.1445" opacity="0" width="27.8687" x="0" y="0"/>
  <path d="M6.05469 24.2956L7.6416 21.5368C7.87354 21.1706 7.75146 20.7434 7.38525 20.5236C7.01904 20.3161 6.604 20.426 6.37207 20.8044L4.77295 23.5876C4.56543 23.9294 4.67529 24.3566 5.05371 24.5764C5.40771 24.7839 5.84717 24.6496 6.05469 24.2956ZM8.89893 27.7746L12.5 21.5246C12.7075 21.1584 12.6099 20.7434 12.2559 20.5358C11.9019 20.3161 11.4502 20.426 11.2427 20.8044L7.66602 27.03C7.4585 27.3962 7.55615 27.8234 7.92236 28.0432C8.27637 28.2507 8.69141 28.1286 8.89893 27.7746ZM15.7715 24.2834L17.3584 21.5246C17.5781 21.1584 17.4561 20.7312 17.0898 20.5114C16.7236 20.3039 16.3086 20.4138 16.0889 20.7922L14.4897 23.5754C14.2822 23.9172 14.3799 24.3444 14.7583 24.5642C15.1245 24.7717 15.564 24.6374 15.7715 24.2834ZM18.6035 27.7624L22.2168 21.5124C22.4243 21.1462 22.3145 20.7312 21.9604 20.5236C21.6187 20.3039 21.1792 20.4138 20.9595 20.7922L17.3706 27.0178C17.1631 27.384 17.2729 27.8112 17.627 28.031C17.981 28.2385 18.396 28.1286 18.6035 27.7624Z" fill="#5ac8f5" fill-opacity="0.5"/>
  <path d="M5.7373 18.5827L20.8862 18.5827C24.8901 18.5827 27.8687 15.5432 27.8687 11.7834C27.8687 7.88936 24.6948 5.04513 20.5566 5.04513C19.0308 2.02999 16.1987 0.0890708 12.6709 0.0890708C8.08105 0.0890708 4.29688 3.69014 3.89404 8.21895C1.68457 8.86593 0 10.7824 0 13.3581C0 16.2512 2.09961 18.5827 5.7373 18.5827ZM5.71289 16.6296C3.21045 16.6296 1.95312 15.2258 1.95312 13.4191C1.95312 11.9543 2.80762 10.6359 4.88281 10.0866C5.5542 9.90352 5.79834 9.58614 5.85938 8.90255C6.14014 4.91085 9.13086 2.0422 12.6709 2.0422C15.4175 2.0422 17.5781 3.55587 18.8965 6.25362C19.1772 6.85177 19.5435 7.05929 20.2637 7.05929C23.877 7.05929 25.9155 9.23214 25.9155 11.8322C25.9155 14.4934 23.7915 16.6296 21.0083 16.6296Z" fill="#5ac8f5"/>
 </g>
</svg>
