<?xml version="1.0" encoding="UTF-8"?>
<!--Generator: Apple Native CoreSVG 175.5-->
<!DOCTYPE svg
PUBLIC "-//W3C//DTD SVG 1.1//EN"
       "http://www.w3.org/Graphics/SVG/1.1/DTD/svg11.dtd">
<svg version="1.1" xmlns="http://www.w3.org/2000/svg" xmlns:xlink="http://www.w3.org/1999/xlink" width="30.3711" height="28.8574">
 <g>
  <rect height="28.8574" opacity="0" width="30.3711" x="0" y="0"/>
  <path d="M20.3735 2.05688L6.70166 2.05688L8.66699 4.02222L20.3369 4.02222C21.5454 4.02222 22.2412 4.6814 22.2412 5.95093L22.2412 7.70874L12.3535 7.70874L14.3066 9.67407L26.5015 9.67407C27.71 9.67407 28.4058 10.3333 28.4058 11.6028L28.4058 22.9065C28.4058 23.175 28.2837 23.3582 28.0884 23.4436L29.7729 25.1282C30.1636 24.6033 30.3711 23.9075 30.3711 23.0042L30.3711 11.4929C30.3711 8.97827 29.0771 7.70874 26.5381 7.70874L24.2065 7.70874L24.2065 5.84106C24.2065 3.32642 22.9126 2.05688 20.3735 2.05688ZM9.86328 26.7883L24.7437 26.7883L22.7783 24.823L9.8877 24.823C8.66699 24.823 7.99561 24.176 7.99561 22.9065L7.99561 11.6028C7.99561 11.0901 8.12988 10.675 8.37402 10.4187L6.83594 8.88062C6.29883 9.47876 6.03027 10.3577 6.03027 11.4929L6.03027 19.1711L3.85742 19.1711C2.63672 19.1711 1.96533 18.5242 1.96533 17.2546L1.96533 5.95093C1.96533 5.30396 2.16064 4.82788 2.52686 4.55933L1.01318 3.05786C0.341797 3.6438 0 4.57153 0 5.84106L0 17.3523C0 19.8792 1.26953 21.1365 3.83301 21.1365L6.03027 21.1365L6.03027 23.0042C6.03027 25.531 7.2998 26.7883 9.86328 26.7883Z" fill="#5ac8f5" fill-opacity="0.5"/>
  <path d="M28.54 28.5828C28.9062 28.949 29.5166 28.949 29.8706 28.5828C30.2368 28.2043 30.2368 27.6184 29.8706 27.2522L2.94189 0.299072C2.57568-0.0549316 1.97754-0.0671387 1.59912 0.299072C1.24512 0.665283 1.24512 1.27563 1.59912 1.62964Z" fill="#5ac8f5"/>
 </g>
</svg>
