<?xml version="1.0" encoding="UTF-8"?>
<!--Generator: Apple Native CoreSVG 175.5-->
<!DOCTYPE svg
PUBLIC "-//W3C//DTD SVG 1.1//EN"
       "http://www.w3.org/Graphics/SVG/1.1/DTD/svg11.dtd">
<svg version="1.1" xmlns="http://www.w3.org/2000/svg" xmlns:xlink="http://www.w3.org/1999/xlink" width="24.3286" height="22.4976">
 <g>
  <rect height="22.4976" opacity="0" width="24.3286" x="0" y="0"/>
  <path d="M3.83301 22.4976L20.5078 22.4976C23.0591 22.4976 24.3286 21.228 24.3286 18.7134L24.3286 3.80859C24.3286 1.29395 23.0591 0.0244141 20.5078 0.0244141L3.83301 0.0244141C1.28174 0.0244141 0 1.28174 0 3.80859L0 18.7134C0 21.2402 1.28174 22.4976 3.83301 22.4976ZM3.6499 20.5322C2.56348 20.5322 1.96533 19.9585 1.96533 18.8232L1.96533 7.31201C1.96533 6.18896 2.56348 5.60303 3.6499 5.60303L20.6665 5.60303C21.7529 5.60303 22.3633 6.18896 22.3633 7.31201L22.3633 18.8232C22.3633 19.9585 21.7529 20.5322 20.6665 20.5322Z" fill="#5ac8f5"/>
 </g>
</svg>
