<?xml version="1.0" encoding="UTF-8"?>
<!--Generator: Apple Native CoreSVG 175.5-->
<!DOCTYPE svg
PUBLIC "-//W3C//DTD SVG 1.1//EN"
       "http://www.w3.org/Graphics/SVG/1.1/DTD/svg11.dtd">
<svg version="1.1" xmlns="http://www.w3.org/2000/svg" xmlns:xlink="http://www.w3.org/1999/xlink" width="30.3711" height="24.7437">
 <g>
  <rect height="24.7437" opacity="0" width="30.3711" x="0" y="0"/>
  <path d="M9.86328 24.7314L26.5381 24.7314C29.0771 24.7314 30.3711 23.4619 30.3711 20.9473L30.3711 9.43604C30.3711 6.92139 29.0771 5.65186 26.5381 5.65186L9.86328 5.65186C7.2998 5.65186 6.03027 6.92139 6.03027 9.43604L6.03027 20.9473C6.03027 23.4741 7.2998 24.7314 9.86328 24.7314ZM9.86328 3.9917L24.2065 3.9917L24.2065 3.78418C24.2065 1.26953 22.9126 0 20.3735 0L3.83301 0C1.26953 0 0 1.26953 0 3.78418L0 15.2954C0 17.8223 1.26953 19.0796 3.83301 19.0796L4.35791 19.0796L4.35791 9.43604C4.35791 5.99365 6.38428 3.9917 9.86328 3.9917ZM14.7461 19.6045L14.7461 10.7788C14.7461 10.2051 15.3442 9.99756 15.8081 10.2661L23.2056 14.6362C23.645 14.8804 23.6572 15.4907 23.2178 15.7593L15.8081 20.1172C15.3442 20.3979 14.7461 20.1782 14.7461 19.6045Z" fill="#5ac8f5"/>
 </g>
</svg>
