<?xml version="1.0" encoding="UTF-8"?>
<!--Generator: Apple Native CoreSVG 175.5-->
<!DOCTYPE svg
PUBLIC "-//W3C//DTD SVG 1.1//EN"
       "http://www.w3.org/Graphics/SVG/1.1/DTD/svg11.dtd">
<svg version="1.1" xmlns="http://www.w3.org/2000/svg" xmlns:xlink="http://www.w3.org/1999/xlink" width="28.7842" height="22.4731">
 <g>
  <rect height="22.4731" opacity="0" width="28.7842" x="0" y="0"/>
  <path d="M3.85742 20.52C2.67334 20.52 1.96533 19.812 1.96533 18.6157L1.96533 17.8711L5.71289 14.5996C6.25 14.1235 6.83594 13.8794 7.37305 13.8794C7.97119 13.8794 8.59375 14.1235 9.13086 14.624L11.4624 16.7236L17.2974 11.5479C17.8955 11.0107 18.5669 10.7666 19.2627 10.7666C19.9341 10.7666 20.6299 11.0229 21.2036 11.5601L26.8188 16.7603L26.8188 18.6401C26.8188 19.812 26.0986 20.52 24.939 20.52ZM9.15527 11.5479C7.49512 11.5479 6.14014 10.1929 6.14014 8.53271C6.14014 6.88477 7.49512 5.51758 9.15527 5.51758C10.8032 5.51758 12.1582 6.88477 12.1582 8.53271C12.1582 10.1929 10.8032 11.5479 9.15527 11.5479ZM3.83301 22.4731L24.9512 22.4731C27.5146 22.4731 28.7842 21.2158 28.7842 18.7012L28.7842 3.78418C28.7842 1.26953 27.5146 0 24.9512 0L3.83301 0C1.28174 0 0 1.26953 0 3.78418L0 18.7012C0 21.2158 1.28174 22.4731 3.83301 22.4731Z" fill="#5ac8f5"/>
 </g>
</svg>
