<?xml version="1.0" encoding="UTF-8"?>
<!--Generator: Apple Native CoreSVG 175.5-->
<!DOCTYPE svg
PUBLIC "-//W3C//DTD SVG 1.1//EN"
       "http://www.w3.org/Graphics/SVG/1.1/DTD/svg11.dtd">
<svg version="1.1" xmlns="http://www.w3.org/2000/svg" xmlns:xlink="http://www.w3.org/1999/xlink" width="27.6855" height="25.5737">
 <g>
  <rect height="25.5737" opacity="0" width="27.6855" x="0" y="0"/>
  <path d="M5.29785 25.5737C6.9458 25.5737 10.3149 23.9136 12.793 22.1436C21.3013 22.3755 27.6855 17.4927 27.6855 11.0962C27.6855 4.95605 21.5332 0 13.8428 0C6.15234 0 0 4.95605 0 11.0962C0 15.1001 2.56348 18.6523 6.4209 20.4346C5.87158 21.4966 4.84619 22.937 4.29688 23.6572C3.6499 24.5117 4.04053 25.5737 5.29785 25.5737ZM6.57959 23.5474C6.48193 23.584 6.44531 23.5107 6.50635 23.4253C7.18994 22.583 8.1665 21.3135 8.58154 20.5322C8.92334 19.8975 8.83789 19.3359 8.05664 18.9697C4.22363 17.1875 2.02637 14.3433 2.02637 11.0962C2.02637 6.09131 7.26318 2.01416 13.8428 2.01416C20.4346 2.01416 25.6714 6.09131 25.6714 11.0962C25.6714 16.0889 20.4346 20.166 13.8428 20.166C13.5986 20.166 13.2202 20.1538 12.7319 20.1416C12.2192 20.1416 11.8286 20.3003 11.3647 20.6665C9.86328 21.7529 7.69043 23.0957 6.57959 23.5474ZM8.19092 11.2183C8.19092 11.8042 8.60596 12.2192 9.22852 12.2192L12.8174 12.2192L12.8174 15.8203C12.8174 16.4307 13.2324 16.8579 13.8306 16.8579C14.4409 16.8579 14.8682 16.4307 14.8682 15.8203L14.8682 12.2192L18.4692 12.2192C19.0796 12.2192 19.5068 11.8042 19.5068 11.2183C19.5068 10.5957 19.0796 10.1685 18.4692 10.1685L14.8682 10.1685L14.8682 6.5918C14.8682 5.95703 14.4409 5.54199 13.8306 5.54199C13.2324 5.54199 12.8174 5.95703 12.8174 6.5918L12.8174 10.1685L9.22852 10.1685C8.60596 10.1685 8.19092 10.5957 8.19092 11.2183Z" fill="#5ac8f5"/>
 </g>
</svg>
