<?xml version="1.0" encoding="UTF-8"?>
<!--Generator: Apple Native CoreSVG 175.5-->
<!DOCTYPE svg
PUBLIC "-//W3C//DTD SVG 1.1//EN"
       "http://www.w3.org/Graphics/SVG/1.1/DTD/svg11.dtd">
<svg version="1.1" xmlns="http://www.w3.org/2000/svg" xmlns:xlink="http://www.w3.org/1999/xlink" width="39.5752" height="24.5239">
 <g>
  <rect height="24.5239" opacity="0" width="39.5752" x="0" y="0"/>
  <path d="M7.77588 24.5239C12.0605 24.5239 15.5396 21.0449 15.5396 16.7603C15.5396 12.4634 12.0728 8.99658 7.77588 8.99658C3.479 8.99658 0 12.4634 0 16.7603C0 21.0571 3.479 24.5239 7.77588 24.5239ZM7.77588 22.6074C4.52881 22.6074 1.92871 20.0073 1.92871 16.7603C1.92871 13.5254 4.54102 10.9131 7.77588 10.9131C11.0107 10.9131 13.623 13.5254 13.623 16.7603C13.623 19.9951 11.0107 22.6074 7.77588 22.6074ZM31.8115 24.5239C36.0962 24.5239 39.5752 21.0449 39.5752 16.7603C39.5752 12.4634 36.0962 8.99658 31.8115 8.99658C27.5146 8.99658 24.0234 12.4634 24.0234 16.7603C24.0234 21.0571 27.5146 24.5239 31.8115 24.5239ZM31.8115 22.6074C28.5645 22.6074 25.9521 20.0073 25.9521 16.7603C25.9521 13.5254 28.5645 10.9131 31.8115 10.9131C35.0342 10.9131 37.6587 13.5498 37.6587 16.7603C37.6587 19.9951 35.0342 22.6074 31.8115 22.6074ZM20.813 0.952148C20.813 1.47705 21.2402 1.89209 21.7651 1.89209L24.9268 1.89209C25.0244 1.89209 25.0488 1.9165 25.0854 1.97754L30.896 17.1143L32.666 16.5039L26.5869 0.817871C26.3672 0.231934 25.9644 0 25.2563 0L21.7651 0C21.2402 0 20.813 0.427246 20.813 0.952148ZM28.4424 8.36182L28.4424 6.604L15.4907 8.5083L15.4907 10.2661ZM18.4326 17.8711L18.4326 16.1133L7.89795 16.1133L7.89795 17.8711ZM19.7754 19.3604C21.1914 19.3604 22.3389 18.2129 22.3389 16.8091C22.3389 15.3931 21.1914 14.2578 19.7754 14.2578C18.3472 14.2578 17.2241 15.3809 17.2119 16.8091C17.1875 18.2007 18.335 19.3604 19.7754 19.3604ZM19.7876 17.688C19.2871 17.688 18.8965 17.2852 18.8965 16.8213C18.8965 16.333 19.2871 15.9302 19.7876 15.9302C20.2759 15.9302 20.6543 16.3208 20.6543 16.8213C20.6543 17.2974 20.2759 17.688 19.7876 17.688ZM7.77588 18.3472C8.65479 18.3472 9.375 17.6392 9.375 16.7603C9.375 15.8691 8.66699 15.1611 7.77588 15.1611C6.88477 15.1611 6.20117 15.8569 6.18896 16.7603C6.17676 17.6392 6.87256 18.3472 7.77588 18.3472ZM31.8115 18.3594C32.7026 18.3594 33.3984 17.6392 33.3984 16.7603C33.3984 15.8691 32.7148 15.1733 31.8115 15.1733C30.9204 15.1733 30.2246 15.8569 30.2124 16.7603C30.2002 17.6392 30.9082 18.3594 31.8115 18.3594ZM19.3604 14.8926L20.9351 15.7837L28.5278 7.6416L26.3184 7.56836ZM7.05566 16.1499L8.61816 17.041L15.8813 9.61914L14.3799 8.54492ZM18.0786 16.0278L19.6411 14.9048L14.2578 4.69971L12.4268 5.09033ZM10.144 4.45557C10.144 4.98047 10.5713 5.39551 11.0962 5.39551L15.8936 5.39551C16.4185 5.39551 16.8457 4.98047 16.8457 4.45557C16.8457 3.94287 16.4062 3.50342 15.8936 3.50342L11.0962 3.50342C10.5835 3.50342 10.144 3.94287 10.144 4.45557Z" fill="#5ac8f5"/>
 </g>
</svg>
