<?xml version="1.0" encoding="UTF-8"?>
<!--Generator: Apple Native CoreSVG 175.5-->
<!DOCTYPE svg
PUBLIC "-//W3C//DTD SVG 1.1//EN"
       "http://www.w3.org/Graphics/SVG/1.1/DTD/svg11.dtd">
<svg version="1.1" xmlns="http://www.w3.org/2000/svg" xmlns:xlink="http://www.w3.org/1999/xlink" width="27.6842" height="27.701">
 <g>
  <rect height="27.701" opacity="0" width="27.6842" x="0" y="0"/>
  <path d="M1.36881 16.5422L11.1466 26.32C12.9533 28.1266 14.7355 28.1388 16.5299 26.3566L26.3566 16.5177C28.1388 14.7355 28.1266 12.9411 26.32 11.1344L16.5544 1.36881C14.7477-0.43783 12.9655-0.462244 11.1711 1.33219L1.33219 11.1588C-0.462244 12.9533-0.43783 14.7355 1.36881 16.5422ZM2.78483 15.1872C1.91813 14.3083 1.89371 13.3927 2.79703 12.4894L12.4894 2.79703C13.3927 1.89371 14.3083 1.90592 15.1872 2.78483L24.904 12.5016C25.7707 13.3683 25.7951 14.2961 24.8918 15.1994L15.1994 24.8918C14.2961 25.7951 13.3561 25.7707 12.5016 24.9162ZM9.6818 19.008C9.95035 19.008 10.1945 18.8981 10.3776 18.7028L13.8444 15.236L17.3112 18.7028C17.4943 18.8859 17.7384 19.008 18.0192 19.008C18.5563 19.008 18.9958 18.5685 18.9958 18.0192C18.9958 17.7384 18.8859 17.5187 18.7028 17.3234L15.236 13.8566L18.715 10.3654C18.9103 10.1579 19.008 9.95035 19.008 9.6818C19.008 9.14469 18.5685 8.70524 18.0314 8.70524C17.7751 8.70524 17.5553 8.80289 17.3478 9.01041L13.8444 12.4894L10.3532 9.02262C10.1701 8.82731 9.95035 8.72965 9.6818 8.72965C9.13248 8.72965 8.70524 9.1569 8.70524 9.69401C8.70524 9.96256 8.80289 10.1945 8.9982 10.3776L12.465 13.8566L8.9982 17.3356C8.80289 17.5187 8.70524 17.7506 8.70524 18.0192C8.70524 18.5685 9.13248 19.008 9.6818 19.008Z" fill="#5ac8f5"/>
 </g>
</svg>
