<?xml version="1.0" encoding="UTF-8"?>
<!--Generator: Apple Native CoreSVG 175.5-->
<!DOCTYPE svg
PUBLIC "-//W3C//DTD SVG 1.1//EN"
       "http://www.w3.org/Graphics/SVG/1.1/DTD/svg11.dtd">
<svg version="1.1" xmlns="http://www.w3.org/2000/svg" xmlns:xlink="http://www.w3.org/1999/xlink" width="24.5972" height="17.8589">
 <g>
  <rect height="17.8589" opacity="0" width="24.5972" x="0" y="0"/>
  <path d="M6.93359 2.53906L23.6084 2.53906C24.1577 2.53906 24.5972 2.11182 24.5972 1.5625C24.5972 1.00098 24.1577 0.57373 23.6084 0.57373L6.93359 0.57373C6.37207 0.57373 5.94482 1.00098 5.94482 1.5625C5.94482 2.11182 6.37207 2.53906 6.93359 2.53906ZM6.93359 9.92432L23.6084 9.92432C24.1577 9.92432 24.5972 9.48486 24.5972 8.93555C24.5972 8.38623 24.1577 7.95898 23.6084 7.95898L6.93359 7.95898C6.37207 7.95898 5.94482 8.38623 5.94482 8.93555C5.94482 9.48486 6.37207 9.92432 6.93359 9.92432ZM6.93359 17.2974L23.6084 17.2974C24.1577 17.2974 24.5972 16.8701 24.5972 16.3208C24.5972 15.7593 24.1577 15.332 23.6084 15.332L6.93359 15.332C6.37207 15.332 5.94482 15.7593 5.94482 16.3208C5.94482 16.8701 6.37207 17.2974 6.93359 17.2974ZM1.53809 3.08838C2.39258 3.08838 3.07617 2.40479 3.07617 1.5625C3.07617 0.708008 2.39258 0.0244141 1.53809 0.0244141C0.683594 0.0244141 0 0.708008 0 1.5625C0 2.40479 0.683594 3.08838 1.53809 3.08838ZM1.53809 10.4736C2.39258 10.4736 3.07617 9.79004 3.07617 8.93555C3.07617 8.08105 2.39258 7.39746 1.53809 7.39746C0.683594 7.39746 0 8.08105 0 8.93555C0 9.79004 0.683594 10.4736 1.53809 10.4736ZM1.53809 17.8589C2.39258 17.8589 3.07617 17.1631 3.07617 16.3208C3.07617 15.4663 2.39258 14.7827 1.53809 14.7827C0.683594 14.7827 0 15.4663 0 16.3208C0 17.1631 0.683594 17.8589 1.53809 17.8589Z" fill="#5ac8f5"/>
 </g>
</svg>
