<?xml version="1.0" encoding="UTF-8"?>
<!--Generator: Apple Native CoreSVG 175.5-->
<!DOCTYPE svg
PUBLIC "-//W3C//DTD SVG 1.1//EN"
       "http://www.w3.org/Graphics/SVG/1.1/DTD/svg11.dtd">
<svg version="1.1" xmlns="http://www.w3.org/2000/svg" xmlns:xlink="http://www.w3.org/1999/xlink" width="24.9023" height="24.9146">
 <g>
  <rect height="24.9146" opacity="0" width="24.9023" x="0" y="0"/>
  <path d="M0 12.4512C0 19.2505 5.65186 24.9023 12.4512 24.9023C19.2627 24.9023 24.9023 19.2505 24.9023 12.4512C24.9023 5.63965 19.2505 0 12.439 0C5.63965 0 0 5.63965 0 12.4512ZM2.0874 12.4512C2.0874 6.68945 6.67725 2.0752 12.439 2.0752C18.2007 2.0752 22.8149 6.68945 22.8271 12.4512C22.8394 16.1499 20.9229 19.3848 18.0298 21.2158L16.5039 14.0503C16.394 13.4644 15.9302 13.0371 15.3687 13.0005L15.2832 13.0005L13.2568 6.90918C12.9883 6.11572 11.9263 6.11572 11.6577 6.90918L9.63135 13.0005L9.5459 13.0005C8.99658 13.0371 8.52051 13.4644 8.41064 14.0381L6.89697 21.2158C3.9917 19.3848 2.0874 16.1621 2.0874 12.4512ZM8.34961 21.9849L9.91211 14.5752L15.0146 14.5752L16.5771 21.9849C15.3076 22.522 13.916 22.8271 12.4512 22.8271C10.9863 22.8271 9.59473 22.5342 8.34961 21.9849Z" fill="#5ac8f5"/>
 </g>
</svg>
