<?xml version="1.0" encoding="UTF-8"?>
<!--Generator: Apple Native CoreSVG 175.5-->
<!DOCTYPE svg
PUBLIC "-//W3C//DTD SVG 1.1//EN"
       "http://www.w3.org/Graphics/SVG/1.1/DTD/svg11.dtd">
<svg version="1.1" xmlns="http://www.w3.org/2000/svg" xmlns:xlink="http://www.w3.org/1999/xlink" width="30.7251" height="19.2993">
 <g>
  <rect height="19.2993" opacity="0" width="30.7251" x="0" y="0"/>
  <path d="M3.83301 19.2871L26.8921 19.2871C29.4312 19.2871 30.7251 18.0176 30.7251 15.5029L30.7251 3.77197C30.7251 1.26953 29.4312 0 26.8921 0L3.83301 0C1.26953 0 0 1.25732 0 3.77197L0 15.5029C0 18.0176 1.26953 19.2871 3.83301 19.2871ZM3.85742 17.3218C2.63672 17.3218 1.96533 16.6626 1.96533 15.3931L1.96533 3.88184C1.96533 2.6123 2.63672 1.96533 3.85742 1.96533L26.8555 1.96533C28.064 1.96533 28.7598 2.6123 28.7598 3.88184L28.7598 15.3931C28.7598 16.6626 28.064 17.3218 26.8555 17.3218Z" fill="#5ac8f5" fill-opacity="0.5"/>
  <path d="M4.80957 6.7749L5.71289 6.7749C5.92041 6.7749 6.05469 6.62842 6.05469 6.38428L6.05469 5.01709C6.05469 4.77295 5.92041 4.62646 5.71289 4.62646L4.80957 4.62646C4.58984 4.62646 4.44336 4.77295 4.44336 5.01709L4.44336 6.38428C4.44336 6.62842 4.58984 6.7749 4.80957 6.7749ZM7.49512 6.7749L8.38623 6.7749C8.60596 6.7749 8.74023 6.62842 8.74023 6.38428L8.74023 5.01709C8.74023 4.77295 8.60596 4.62646 8.38623 4.62646L7.49512 4.62646C7.26318 4.62646 7.12891 4.77295 7.12891 5.01709L7.12891 6.38428C7.12891 6.62842 7.26318 6.7749 7.49512 6.7749ZM10.1685 6.7749L11.0718 6.7749C11.2793 6.7749 11.4136 6.62842 11.4136 6.38428L11.4136 5.01709C11.4136 4.77295 11.2793 4.62646 11.0718 4.62646L10.1685 4.62646C9.94873 4.62646 9.80225 4.77295 9.80225 5.01709L9.80225 6.38428C9.80225 6.62842 9.94873 6.7749 10.1685 6.7749ZM12.8418 6.7749L13.7329 6.7749C13.9526 6.7749 14.0991 6.62842 14.0991 6.38428L14.0991 5.01709C14.0991 4.77295 13.9526 4.62646 13.7329 4.62646L12.8418 4.62646C12.6221 4.62646 12.4878 4.77295 12.4878 5.01709L12.4878 6.38428C12.4878 6.62842 12.6221 6.7749 12.8418 6.7749ZM15.5151 6.7749L16.4307 6.7749C16.6382 6.7749 16.7725 6.62842 16.7725 6.38428L16.7725 5.01709C16.7725 4.77295 16.6382 4.62646 16.4307 4.62646L15.5151 4.62646C15.2954 4.62646 15.1611 4.77295 15.1611 5.01709L15.1611 6.38428C15.1611 6.62842 15.2954 6.7749 15.5151 6.7749ZM18.2129 6.7749L19.0918 6.7749C19.3115 6.7749 19.458 6.62842 19.458 6.38428L19.458 5.01709C19.458 4.77295 19.3115 4.62646 19.0918 4.62646L18.2129 4.62646C17.981 4.62646 17.8467 4.77295 17.8467 5.01709L17.8467 6.38428C17.8467 6.62842 17.981 6.7749 18.2129 6.7749ZM4.80957 10.6934L5.71289 10.6934C5.92041 10.6934 6.05469 10.5591 6.05469 10.3027L6.05469 8.94775C6.05469 8.69141 5.92041 8.55713 5.71289 8.55713L4.80957 8.55713C4.58984 8.55713 4.44336 8.69141 4.44336 8.94775L4.44336 10.3027C4.44336 10.5591 4.58984 10.6934 4.80957 10.6934ZM7.49512 10.6934L8.38623 10.6934C8.60596 10.6934 8.74023 10.5591 8.74023 10.3027L8.74023 8.94775C8.74023 8.69141 8.60596 8.55713 8.38623 8.55713L7.49512 8.55713C7.26318 8.55713 7.12891 8.69141 7.12891 8.94775L7.12891 10.3027C7.12891 10.5591 7.26318 10.6934 7.49512 10.6934ZM10.1685 10.6934L11.0718 10.6934C11.2793 10.6934 11.4136 10.5591 11.4136 10.3027L11.4136 8.94775C11.4136 8.69141 11.2793 8.55713 11.0718 8.55713L10.1685 8.55713C9.94873 8.55713 9.80225 8.69141 9.80225 8.94775L9.80225 10.3027C9.80225 10.5591 9.94873 10.6934 10.1685 10.6934ZM12.8418 10.6934L13.7329 10.6934C13.9526 10.6934 14.0991 10.5591 14.0991 10.3027L14.0991 8.94775C14.0991 8.69141 13.9526 8.55713 13.7329 8.55713L12.8418 8.55713C12.6221 8.55713 12.4878 8.69141 12.4878 8.94775L12.4878 10.3027C12.4878 10.5591 12.6221 10.6934 12.8418 10.6934ZM15.5151 10.6934L16.4307 10.6934C16.6382 10.6934 16.7725 10.5591 16.7725 10.3027L16.7725 8.94775C16.7725 8.69141 16.6382 8.55713 16.4307 8.55713L15.5151 8.55713C15.2954 8.55713 15.1611 8.69141 15.1611 8.94775L15.1611 10.3027C15.1611 10.5591 15.2954 10.6934 15.5151 10.6934ZM18.2129 10.6934L19.0918 10.6934C19.3115 10.6934 19.458 10.5591 19.458 10.3027L19.458 8.94775C19.458 8.69141 19.3115 8.55713 19.0918 8.55713L18.2129 8.55713C17.981 8.55713 17.8467 8.69141 17.8467 8.94775L17.8467 10.3027C17.8467 10.5591 17.981 10.6934 18.2129 10.6934ZM4.80957 14.624L5.71289 14.624C5.92041 14.624 6.05469 14.4775 6.05469 14.2334L6.05469 12.8662C6.05469 12.6221 5.92041 12.4756 5.71289 12.4756L4.80957 12.4756C4.58984 12.4756 4.44336 12.6221 4.44336 12.8662L4.44336 14.2334C4.44336 14.4775 4.58984 14.624 4.80957 14.624ZM7.49512 14.624L16.4307 14.624C16.6382 14.624 16.7725 14.4775 16.7725 14.2334L16.7725 12.8662C16.7725 12.6221 16.6382 12.4756 16.4307 12.4756L7.49512 12.4756C7.26318 12.4756 7.12891 12.6221 7.12891 12.8662L7.12891 14.2334C7.12891 14.4775 7.26318 14.624 7.49512 14.624ZM18.2129 14.624L19.0918 14.624C19.3115 14.624 19.458 14.4775 19.458 14.2334L19.458 12.8662C19.458 12.6221 19.3115 12.4756 19.0918 12.4756L18.2129 12.4756C17.981 12.4756 17.8467 12.6221 17.8467 12.8662L17.8467 14.2334C17.8467 14.4775 17.981 14.624 18.2129 14.624ZM21.521 8.95996C21.0693 9.38721 21.0693 9.8877 21.521 10.3149L25.0977 13.7329C25.5127 14.1235 26.2207 13.9648 26.2207 13.3057L26.2207 5.96924C26.2207 5.32227 25.5127 5.16357 25.0977 5.5542Z" fill="#5ac8f5"/>
 </g>
</svg>
