<?xml version="1.0" encoding="UTF-8"?>
<!--Generator: Apple Native CoreSVG 175.5-->
<!DOCTYPE svg
PUBLIC "-//W3C//DTD SVG 1.1//EN"
       "http://www.w3.org/Graphics/SVG/1.1/DTD/svg11.dtd">
<svg version="1.1" xmlns="http://www.w3.org/2000/svg" xmlns:xlink="http://www.w3.org/1999/xlink" width="24.9023" height="24.9146">
 <g>
  <rect height="24.9146" opacity="0" width="24.9023" x="0" y="0"/>
  <path d="M12.4512 24.9023C19.2627 24.9023 24.9023 19.2505 24.9023 12.4512C24.9023 5.63965 19.2505 0 12.439 0C5.63965 0 0 5.63965 0 12.4512C0 19.2505 5.65186 24.9023 12.4512 24.9023ZM12.4512 22.8271C6.68945 22.8271 2.0874 18.2129 2.0874 12.4512C2.0874 6.68945 6.67725 2.0752 12.439 2.0752C18.2007 2.0752 22.8271 6.68945 22.8271 12.4512C22.8271 18.2129 18.2129 22.8271 12.4512 22.8271Z" fill="#5ac8f5" fill-opacity="0.5"/>
  <path d="M4.22363 12.4512C4.22363 14.7705 5.68848 16.3086 7.87354 16.3086C9.0332 16.3086 10.0098 15.8203 11.0718 14.8071L12.4512 13.4888L13.8428 14.8071C14.9292 15.8447 15.8936 16.3086 17.0288 16.3086C19.2261 16.3086 20.6909 14.7705 20.6909 12.4512C20.6909 10.1318 19.2261 8.58154 17.0288 8.58154C15.8813 8.58154 14.917 9.04541 13.8428 10.083L12.4512 11.4136L11.0718 10.083C10.022 9.08203 9.04541 8.58154 7.87354 8.58154C5.68848 8.58154 4.22363 10.1318 4.22363 12.4512ZM5.7373 12.4512C5.7373 11.0229 6.57959 10.083 7.87354 10.083C8.56934 10.083 9.17969 10.4004 10.0098 11.1816L11.377 12.4512L10.0098 13.7207C9.2041 14.4775 8.58154 14.8071 7.87354 14.8071C6.57959 14.8071 5.7373 13.8794 5.7373 12.4512ZM13.5376 12.4512L14.8926 11.1816C15.7227 10.4004 16.3452 10.083 17.0288 10.083C18.3228 10.083 19.1772 11.0229 19.1772 12.4512C19.1772 13.8794 18.3228 14.8071 17.0288 14.8071C16.3208 14.8071 15.6982 14.4775 14.8926 13.7207Z" fill="#5ac8f5"/>
 </g>
</svg>
