<?xml version="1.0" encoding="UTF-8"?>
<!--Generator: Apple Native CoreSVG 175.5-->
<!DOCTYPE svg
PUBLIC "-//W3C//DTD SVG 1.1//EN"
       "http://www.w3.org/Graphics/SVG/1.1/DTD/svg11.dtd">
<svg version="1.1" xmlns="http://www.w3.org/2000/svg" xmlns:xlink="http://www.w3.org/1999/xlink" width="22.4731" height="22.4976">
 <g>
  <rect height="22.4976" opacity="0" width="22.4731" x="0" y="0"/>
  <path d="M3.83301 22.4976L18.6401 22.4976C21.2036 22.4976 22.4731 21.228 22.4731 18.7134L22.4731 3.80859C22.4731 1.29395 21.2036 0.0244141 18.6401 0.0244141L3.83301 0.0244141C1.28174 0.0244141 0 1.28174 0 3.80859L0 18.7134C0 21.2402 1.28174 22.4976 3.83301 22.4976ZM3.85742 20.5322C2.63672 20.5322 1.96533 19.8853 1.96533 18.6157L1.96533 3.90625C1.96533 2.63672 2.63672 1.98975 3.85742 1.98975L18.6157 1.98975C19.8242 1.98975 20.5078 2.63672 20.5078 3.90625L20.5078 18.6157C20.5078 19.8853 19.8242 20.5322 18.6157 20.5322Z" fill="#5ac8f5" fill-opacity="0.5"/>
  <path d="M11.2427 17.6514C14.7949 17.6514 17.6392 14.7949 17.6392 11.2427C17.6392 7.69043 14.7949 4.83398 11.2427 4.83398C7.67822 4.83398 4.83398 7.69043 4.83398 11.2427C4.83398 14.7949 7.67822 17.6514 11.2427 17.6514ZM11.2427 8.94775C10.7178 8.94775 10.3149 8.53271 10.3149 8.02002C10.3149 7.49512 10.7178 7.08008 11.2427 7.08008C11.7554 7.08008 12.1704 7.49512 12.1704 8.02002C12.1704 8.53271 11.7554 8.94775 11.2427 8.94775ZM8.02002 12.6953C7.23877 12.6953 6.57959 12.0483 6.57959 11.2671C6.57959 10.4858 7.23877 9.83887 8.02002 9.83887C8.80127 9.83887 9.44824 10.4858 9.44824 11.2671C9.44824 12.0483 8.80127 12.6953 8.02002 12.6953ZM14.4653 12.6709C13.6841 12.6709 13.0249 12.0239 13.0249 11.2427C13.0249 10.4614 13.6841 9.81445 14.4653 9.81445C15.2344 9.81445 15.8936 10.4614 15.8936 11.2427C15.8936 12.0239 15.2344 12.6709 14.4653 12.6709Z" fill="#5ac8f5"/>
 </g>
</svg>
