<?xml version="1.0" encoding="UTF-8"?>
<!--Generator: Apple Native CoreSVG 175.5-->
<!DOCTYPE svg
PUBLIC "-//W3C//DTD SVG 1.1//EN"
       "http://www.w3.org/Graphics/SVG/1.1/DTD/svg11.dtd">
<svg version="1.1" xmlns="http://www.w3.org/2000/svg" xmlns:xlink="http://www.w3.org/1999/xlink" width="30.6885" height="23.2056">
 <g>
  <rect height="23.2056" opacity="0" width="30.6885" x="0" y="0"/>
  <path d="M24.1211 21.2158C27.8076 21.2158 30.6885 18.5181 30.6885 15.1611C30.6885 12.5977 29.2114 10.376 26.8311 9.375C26.8555 3.93066 22.937 0 17.9443 0C14.6362 0 12.2803 1.77002 10.8154 3.90625C7.8125 3.02734 4.54102 5.31006 4.47998 8.72803C1.72119 9.16748 0 11.6333 0 14.6118C0 18.2007 3.13721 21.2158 7.31201 21.2158ZM10.8521 12.1338C10.8521 9.33838 13.147 7.16553 15.6982 7.16553C15.7959 7.16553 15.9058 7.17773 15.9912 7.18994L15.21 6.37207C15.0879 6.25 15.0146 6.04248 15.0146 5.85938C15.0146 5.45654 15.332 5.11475 15.7349 5.11475C15.9302 5.11475 16.1377 5.2002 16.2598 5.34668L18.4326 7.56836C18.7012 7.83691 18.7134 8.34961 18.4326 8.63037L16.2354 10.8276C16.1133 10.9497 15.918 11.0352 15.7349 11.0352C15.332 11.0352 15.0146 10.7178 15.0146 10.3027C15.0146 10.1074 15.1001 9.92432 15.2344 9.79004L16.3086 8.71582C16.2109 8.69141 16.0645 8.6792 15.918 8.6792C13.9771 8.6792 12.4268 10.2417 12.4268 12.1704C12.4268 14.1235 13.9771 15.6982 15.918 15.6982C17.8711 15.6982 19.4214 14.1235 19.4214 12.1704C19.4214 11.7554 19.7754 11.4014 20.2148 11.4014C20.6299 11.4014 20.9961 11.7554 20.9961 12.1704C20.9961 14.9902 18.7378 17.2607 15.918 17.2607C13.1104 17.2607 10.8521 14.9902 10.8521 12.1338Z" fill="#5ac8f5"/>
 </g>
</svg>
