<?xml version="1.0" encoding="UTF-8"?>
<!--Generator: Apple Native CoreSVG 175.5-->
<!DOCTYPE svg
PUBLIC "-//W3C//DTD SVG 1.1//EN"
       "http://www.w3.org/Graphics/SVG/1.1/DTD/svg11.dtd">
<svg version="1.1" xmlns="http://www.w3.org/2000/svg" xmlns:xlink="http://www.w3.org/1999/xlink" width="24.9023" height="24.9146">
 <g>
  <rect height="24.9146" opacity="0" width="24.9023" x="0" y="0"/>
  <path d="M12.4512 24.9023C19.2627 24.9023 24.9023 19.2505 24.9023 12.4512C24.9023 5.63965 19.2505 0 12.439 0C5.63965 0 0 5.63965 0 12.4512C0 19.2505 5.65186 24.9023 12.4512 24.9023ZM12.4512 22.8271C6.68945 22.8271 2.0874 18.2129 2.0874 12.4512C2.0874 6.68945 6.67725 2.0752 12.439 2.0752C18.2007 2.0752 22.8271 6.68945 22.8271 12.4512C22.8271 18.2129 18.2129 22.8271 12.4512 22.8271Z" fill="#5ac8f5" fill-opacity="0.5"/>
  <path d="M17.8833 13.0127C17.8833 10.0098 15.4175 7.65381 12.6709 7.65381C12.561 7.65381 12.4268 7.67822 12.3413 7.67822L13.208 6.79932C13.3301 6.66504 13.4155 6.45752 13.4155 6.25C13.4155 5.81055 13.0859 5.46875 12.6465 5.46875C12.4268 5.46875 12.2314 5.56641 12.085 5.71289L9.74121 8.09326C9.46045 8.38623 9.44824 8.93555 9.74121 9.22852L12.1094 11.5967C12.2437 11.7188 12.4512 11.8164 12.6465 11.8164C13.0859 11.8164 13.4155 11.4868 13.4155 11.0596C13.4155 10.8276 13.3301 10.6445 13.1836 10.4858L11.9995 9.32617C12.1216 9.30176 12.2803 9.28955 12.439 9.28955C14.5386 9.28955 16.1987 10.9619 16.1987 13.0493C16.1987 15.1489 14.5386 16.8213 12.439 16.8213C10.3516 16.8213 8.6792 15.1367 8.6792 13.0493C8.6792 12.5977 8.30078 12.2192 7.83691 12.2192C7.38525 12.2192 6.99463 12.5977 6.99463 13.0493C6.99463 16.0645 9.42383 18.5059 12.439 18.5059C15.4541 18.5059 17.8833 16.0645 17.8833 13.0127Z" fill="#5ac8f5"/>
 </g>
</svg>
