<?xml version="1.0" encoding="UTF-8"?>
<!--Generator: Apple Native CoreSVG 175.5-->
<!DOCTYPE svg
PUBLIC "-//W3C//DTD SVG 1.1//EN"
       "http://www.w3.org/Graphics/SVG/1.1/DTD/svg11.dtd">
<svg version="1.1" xmlns="http://www.w3.org/2000/svg" xmlns:xlink="http://www.w3.org/1999/xlink" width="24.9023" height="24.9146">
 <g>
  <rect height="24.9146" opacity="0" width="24.9023" x="0" y="0"/>
  <path d="M12.4512 24.9023C19.2627 24.9023 24.9023 19.2505 24.9023 12.4512C24.9023 5.63965 19.2505 0 12.439 0C5.63965 0 0 5.63965 0 12.4512C0 19.2505 5.65186 24.9023 12.4512 24.9023ZM12.4512 22.8271C6.68945 22.8271 2.0874 18.2129 2.0874 12.4512C2.0874 6.68945 6.67725 2.0752 12.439 2.0752C18.2007 2.0752 22.8271 6.68945 22.8271 12.4512C22.8271 18.2129 18.2129 22.8271 12.4512 22.8271ZM12.4512 19.3848C16.2476 19.3848 19.3848 16.2476 19.3848 12.4512C19.3848 8.65479 16.2476 5.51758 12.4634 5.51758C11.9507 5.51758 11.6943 5.84717 11.6943 6.29883L11.6943 8.22754C11.6943 8.64258 11.9873 8.98438 12.4268 8.98438C12.854 8.98438 13.1592 8.64258 13.1592 8.22754L13.1592 7.16553C15.8081 7.49512 17.7734 9.69238 17.7734 12.4512C17.7734 15.4419 15.4541 17.7856 12.4512 17.7856C9.46045 17.7856 7.1167 15.4419 7.1167 12.4512C7.1167 11.1084 7.59277 9.93652 8.38623 8.99658C8.65479 8.66699 8.69141 8.20312 8.37402 7.88574C8.04443 7.54395 7.51953 7.58057 7.18994 7.97119C6.15234 9.16748 5.51758 10.7544 5.51758 12.4512C5.51758 16.2476 8.65479 19.3848 12.4512 19.3848ZM13.6108 13.501C14.1968 12.8784 14.0869 12.0483 13.3789 11.5601L10.1929 9.42383C9.7168 9.11865 9.21631 9.59473 9.53369 10.0708L11.6821 13.2568C12.1582 13.9771 13.0005 14.0869 13.6108 13.501Z" fill="#5ac8f5"/>
 </g>
</svg>
