<?xml version="1.0" encoding="UTF-8"?>
<!--Generator: Apple Native CoreSVG 175.5-->
<!DOCTYPE svg
PUBLIC "-//W3C//DTD SVG 1.1//EN"
       "http://www.w3.org/Graphics/SVG/1.1/DTD/svg11.dtd">
<svg version="1.1" xmlns="http://www.w3.org/2000/svg" xmlns:xlink="http://www.w3.org/1999/xlink" width="22.4731" height="22.4976">
 <g>
  <rect height="22.4976" opacity="0" width="22.4731" x="0" y="0"/>
  <path d="M3.83301 22.4976L18.6401 22.4976C21.2036 22.4976 22.4731 21.228 22.4731 18.7134L22.4731 3.80859C22.4731 1.29395 21.2036 0.0244141 18.6401 0.0244141L3.83301 0.0244141C1.28174 0.0244141 0 1.28174 0 3.80859L0 18.7134C0 21.2402 1.28174 22.4976 3.83301 22.4976Z" fill="#5ac8f5" fill-opacity="0.25"/>
  <path d="M6.32324 17.1509C5.63965 17.1509 5.13916 16.6504 5.13916 15.9668L5.13916 6.51855C5.13916 5.83496 5.63965 5.33447 6.32324 5.33447L16.1499 5.33447C16.8335 5.33447 17.334 5.83496 17.334 6.51855L17.334 15.9668C17.334 16.6504 16.8335 17.1509 16.1499 17.1509ZM11.2549 10.3271C12.085 10.3271 12.7686 9.64355 12.7686 8.80127C12.7686 7.95898 12.085 7.27539 11.2549 7.27539C10.4126 7.27539 9.729 7.95898 9.729 8.80127C9.729 9.64355 10.4126 10.3271 11.2549 10.3271ZM8.49609 15.1855C9.2041 15.1855 9.77783 14.624 9.77783 13.916C9.77783 13.208 9.2041 12.6343 8.49609 12.6343C7.80029 12.6343 7.22656 13.208 7.22656 13.916C7.22656 14.624 7.80029 15.1855 8.49609 15.1855ZM14.0015 15.1855C14.7095 15.1855 15.271 14.624 15.271 13.916C15.271 13.208 14.7095 12.6343 14.0015 12.6343C13.2935 12.6343 12.7197 13.208 12.7197 13.916C12.7197 14.624 13.2935 15.1855 14.0015 15.1855Z" fill="#5ac8f5"/>
 </g>
</svg>
