<?xml version="1.0" encoding="UTF-8"?>
<!--Generator: Apple Native CoreSVG 175.5-->
<!DOCTYPE svg
PUBLIC "-//W3C//DTD SVG 1.1//EN"
       "http://www.w3.org/Graphics/SVG/1.1/DTD/svg11.dtd">
<svg version="1.1" xmlns="http://www.w3.org/2000/svg" xmlns:xlink="http://www.w3.org/1999/xlink" width="25.7568" height="24.8169">
 <g>
  <rect height="24.8169" opacity="0" width="25.7568" x="0" y="0"/>
  <path d="M6.18896 17.9321C9.7168 21.46 14.0137 24.1821 17.5171 24.1821C19.0918 24.1821 20.4712 23.6328 21.582 22.4121C22.229 21.6919 22.6318 20.8496 22.6318 20.0195C22.6318 19.4092 22.3999 18.8232 21.814 18.4082L18.0786 15.7471C17.5049 15.3564 17.0288 15.1611 16.5894 15.1611C16.0278 15.1611 15.5396 15.4785 14.978 16.0278L14.1113 16.8823C13.9771 17.0166 13.8062 17.0776 13.6475 17.0776C13.4521 17.0776 13.2812 17.0044 13.147 16.9434C12.4023 16.5405 11.1084 15.4297 9.8999 14.2334C8.70361 13.0371 7.59277 11.7432 7.20215 10.9863C7.12891 10.8521 7.06787 10.6812 7.06787 10.498C7.06787 10.3394 7.1167 10.1807 7.25098 10.0464L8.10547 9.15527C8.65479 8.59375 8.97217 8.10547 8.97217 7.54395C8.97217 7.10449 8.77686 6.62842 8.37402 6.05469L5.74951 2.35596C5.32227 1.77002 4.72412 1.51367 4.06494 1.51367C3.25928 1.51367 2.41699 1.87988 1.70898 2.57568C0.524902 3.71094 0 5.11475 0 6.66504C0 10.1685 2.67334 14.4165 6.18896 17.9321Z" fill="#5ac8f5" fill-opacity="0.5"/>
  <path d="M13.6108 7.37305C14.0137 7.37305 14.3066 7.06787 14.3066 6.70166L14.3066 4.83398C14.3066 4.45557 14.0137 4.15039 13.6108 4.15039C13.2324 4.15039 12.9395 4.45557 12.9395 4.83398L12.9395 6.70166C12.9395 7.06787 13.2324 7.37305 13.6108 7.37305Z" fill="#5ac8f5"/>
  <path d="M16.4795 9.42383C16.8701 9.42383 17.1753 9.11865 17.1753 8.72803L17.1753 2.79541C17.1753 2.41699 16.8701 2.11182 16.4795 2.11182C16.1011 2.11182 15.7959 2.41699 15.7959 2.79541L15.7959 8.72803C15.7959 9.11865 16.1011 9.42383 16.4795 9.42383Z" fill="#5ac8f5"/>
  <path d="M19.3481 11.5356C19.7388 11.5356 20.0317 11.2305 20.0317 10.8521L20.0317 0.708008C20.0317 0.305176 19.7388 0 19.3481 0C18.9575 0 18.6646 0.305176 18.6646 0.708008L18.6646 10.8521C18.6646 11.2427 18.9453 11.5356 19.3481 11.5356Z" fill="#5ac8f5"/>
  <path d="M22.1924 10.3149C22.5952 10.3149 22.9004 10.022 22.9004 9.63135L22.9004 1.89209C22.9004 1.51367 22.5952 1.2207 22.1924 1.2207C21.8262 1.2207 21.521 1.51367 21.521 1.89209L21.521 9.63135C21.521 10.022 21.8262 10.3149 22.1924 10.3149Z" fill="#5ac8f5"/>
  <path d="M25.0732 8.02002C25.4761 8.02002 25.7568 7.72705 25.7568 7.32422L25.7568 4.19922C25.7568 3.80859 25.4761 3.50342 25.0732 3.50342C24.6826 3.50342 24.3896 3.8208 24.3896 4.19922L24.3896 7.32422C24.3896 7.71484 24.6826 8.02002 25.0732 8.02002Z" fill="#5ac8f5"/>
 </g>
</svg>
