<?xml version="1.0" encoding="UTF-8"?>
<!--Generator: Apple Native CoreSVG 175.5-->
<!DOCTYPE svg
PUBLIC "-//W3C//DTD SVG 1.1//EN"
       "http://www.w3.org/Graphics/SVG/1.1/DTD/svg11.dtd">
<svg version="1.1" xmlns="http://www.w3.org/2000/svg" xmlns:xlink="http://www.w3.org/1999/xlink" width="24.9023" height="24.9146">
 <g>
  <rect height="24.9146" opacity="0" width="24.9023" x="0" y="0"/>
  <path d="M12.4512 24.9023C19.2627 24.9023 24.9023 19.2505 24.9023 12.4512C24.9023 5.63965 19.2505 0 12.439 0C5.63965 0 0 5.63965 0 12.4512C0 19.2505 5.65186 24.9023 12.4512 24.9023Z" fill="#5ac8f5" fill-opacity="0.25"/>
  <path d="M12.5122 18.4204C9.17969 18.4204 7.06787 16.0645 7.06787 12.3413C7.06787 8.63037 9.17969 6.25 12.4634 6.25C14.8438 6.25 16.5161 7.43408 17.1265 9.0332C17.1997 9.24072 17.2485 9.39941 17.2485 9.61914C17.2485 10.1562 16.9067 10.498 16.3696 10.498C15.979 10.498 15.7349 10.3027 15.5273 9.87549C15.0024 8.61816 13.9404 7.93457 12.5 7.93457C10.4736 7.93457 9.11865 9.70459 9.11865 12.3413C9.11865 14.9902 10.4858 16.748 12.5366 16.748C14.4531 16.748 15.4419 15.7471 15.4419 14.2578L15.4419 13.4277L13.1104 13.4277C12.6465 13.4277 12.3657 13.0859 12.3657 12.6953C12.3657 12.2681 12.6465 11.9629 13.1104 11.9629L16.3818 11.9629C17.0532 11.9629 17.4561 12.3657 17.4561 13.0615L17.4561 13.9893C17.4561 16.6016 15.625 18.4204 12.5122 18.4204Z" fill="#5ac8f5"/>
 </g>
</svg>
