<?xml version="1.0" encoding="UTF-8"?>
<!--Generator: Apple Native CoreSVG 175.5-->
<!DOCTYPE svg
PUBLIC "-//W3C//DTD SVG 1.1//EN"
       "http://www.w3.org/Graphics/SVG/1.1/DTD/svg11.dtd">
<svg version="1.1" xmlns="http://www.w3.org/2000/svg" xmlns:xlink="http://www.w3.org/1999/xlink" width="24.9023" height="24.9146">
 <g>
  <rect height="24.9146" opacity="0" width="24.9023" x="0" y="0"/>
  <path d="M12.4512 24.9023C19.2627 24.9023 24.9023 19.2505 24.9023 12.4512C24.9023 5.63965 19.2505 0 12.439 0C5.63965 0 0 5.63965 0 12.4512C0 19.2505 5.65186 24.9023 12.4512 24.9023ZM12.4512 22.8271C6.68945 22.8271 2.0874 18.2129 2.0874 12.4512C2.0874 6.68945 6.67725 2.0752 12.439 2.0752C18.2007 2.0752 22.8271 6.68945 22.8271 12.4512C22.8271 18.2129 18.2129 22.8271 12.4512 22.8271Z" fill="#5ac8f5" fill-opacity="0.5"/>
  <path d="M7.97119 18.4814L16.9067 18.4814C18.2739 18.4814 18.9575 17.7979 18.9575 16.4551L18.9575 8.44727C18.9575 7.10449 18.2739 6.4209 16.9067 6.4209L7.97119 6.4209C6.604 6.4209 5.92041 7.09229 5.92041 8.44727L5.92041 16.4551C5.92041 17.7979 6.604 18.4814 7.97119 18.4814ZM7.88574 17.3584C7.33643 17.3584 7.04346 17.0898 7.04346 16.5039L7.04346 10.3271C7.04346 9.729 7.36084 9.42383 7.94678 9.42383L16.9312 9.42383C17.5049 9.42383 17.8345 9.729 17.8345 10.3271L17.8345 16.5039C17.8345 17.0898 17.5537 17.3584 16.98 17.3584ZM11.1206 11.8652L11.5723 11.8652C11.853 11.8652 11.9507 11.792 11.9507 11.5112L11.9507 11.0596C11.9507 10.7788 11.853 10.6812 11.5723 10.6812L11.1206 10.6812C10.8398 10.6812 10.7544 10.7788 10.7544 11.0596L10.7544 11.5112C10.7544 11.792 10.8398 11.8652 11.1206 11.8652ZM13.3057 11.8652L13.7573 11.8652C14.0381 11.8652 14.1235 11.792 14.1235 11.5112L14.1235 11.0596C14.1235 10.7788 14.0381 10.6812 13.7573 10.6812L13.3057 10.6812C13.0249 10.6812 12.9395 10.7788 12.9395 11.0596L12.9395 11.5112C12.9395 11.792 13.0249 11.8652 13.3057 11.8652ZM15.4785 11.8652L15.918 11.8652C16.1987 11.8652 16.2964 11.792 16.2964 11.5112L16.2964 11.0596C16.2964 10.7788 16.1987 10.6812 15.918 10.6812L15.4785 10.6812C15.1855 10.6812 15.1001 10.7788 15.1001 11.0596L15.1001 11.5112C15.1001 11.792 15.1855 11.8652 15.4785 11.8652ZM8.95996 14.0015L9.41162 14.0015C9.69238 14.0015 9.77783 13.9282 9.77783 13.6475L9.77783 13.1958C9.77783 12.915 9.69238 12.8174 9.41162 12.8174L8.95996 12.8174C8.6792 12.8174 8.58154 12.915 8.58154 13.1958L8.58154 13.6475C8.58154 13.9282 8.6792 14.0015 8.95996 14.0015ZM11.1206 14.0015L11.5723 14.0015C11.853 14.0015 11.9507 13.9282 11.9507 13.6475L11.9507 13.1958C11.9507 12.915 11.853 12.8174 11.5723 12.8174L11.1206 12.8174C10.8398 12.8174 10.7544 12.915 10.7544 13.1958L10.7544 13.6475C10.7544 13.9282 10.8398 14.0015 11.1206 14.0015ZM13.3057 14.0015L13.7573 14.0015C14.0381 14.0015 14.1235 13.9282 14.1235 13.6475L14.1235 13.1958C14.1235 12.915 14.0381 12.8174 13.7573 12.8174L13.3057 12.8174C13.0249 12.8174 12.9395 12.915 12.9395 13.1958L12.9395 13.6475C12.9395 13.9282 13.0249 14.0015 13.3057 14.0015ZM15.4785 14.0015L15.918 14.0015C16.1987 14.0015 16.2964 13.9282 16.2964 13.6475L16.2964 13.1958C16.2964 12.915 16.1987 12.8174 15.918 12.8174L15.4785 12.8174C15.1855 12.8174 15.1001 12.915 15.1001 13.1958L15.1001 13.6475C15.1001 13.9282 15.1855 14.0015 15.4785 14.0015ZM8.95996 16.1499L9.41162 16.1499C9.69238 16.1499 9.77783 16.0645 9.77783 15.7837L9.77783 15.3198C9.77783 15.0513 9.69238 14.9658 9.41162 14.9658L8.95996 14.9658C8.6792 14.9658 8.58154 15.0513 8.58154 15.3198L8.58154 15.7837C8.58154 16.0645 8.6792 16.1499 8.95996 16.1499ZM11.1206 16.1499L11.5723 16.1499C11.853 16.1499 11.9507 16.0645 11.9507 15.7837L11.9507 15.3198C11.9507 15.0513 11.853 14.9658 11.5723 14.9658L11.1206 14.9658C10.8398 14.9658 10.7544 15.0513 10.7544 15.3198L10.7544 15.7837C10.7544 16.0645 10.8398 16.1499 11.1206 16.1499ZM13.3057 16.1499L13.7573 16.1499C14.0381 16.1499 14.1235 16.0645 14.1235 15.7837L14.1235 15.3198C14.1235 15.0513 14.0381 14.9658 13.7573 14.9658L13.3057 14.9658C13.0249 14.9658 12.9395 15.0513 12.9395 15.3198L12.9395 15.7837C12.9395 16.0645 13.0249 16.1499 13.3057 16.1499Z" fill="#5ac8f5"/>
 </g>
</svg>
