<?xml version="1.0" encoding="UTF-8"?>
<!--Generator: Apple Native CoreSVG 175.5-->
<!DOCTYPE svg
PUBLIC "-//W3C//DTD SVG 1.1//EN"
       "http://www.w3.org/Graphics/SVG/1.1/DTD/svg11.dtd">
<svg version="1.1" xmlns="http://www.w3.org/2000/svg" xmlns:xlink="http://www.w3.org/1999/xlink" width="24.9023" height="24.9146">
 <g>
  <rect height="24.9146" opacity="0" width="24.9023" x="0" y="0"/>
  <path d="M12.4512 24.9023C19.2627 24.9023 24.9023 19.2505 24.9023 12.4512C24.9023 5.63965 19.2505 0 12.439 0C5.63965 0 0 5.63965 0 12.4512C0 19.2505 5.65186 24.9023 12.4512 24.9023Z" fill="#5ac8f5" fill-opacity="0.25"/>
  <path d="M8.12988 17.8833C6.40869 17.8833 5.06592 16.8335 4.73633 15.6738C4.6875 15.5151 4.67529 15.3809 4.67529 15.21C4.67529 14.7705 4.98047 14.4531 5.40771 14.4531C5.76172 14.4531 5.98145 14.6484 6.12793 15.0513C6.45752 15.9302 7.14111 16.4185 8.14209 16.4185C9.33838 16.4185 10.1685 15.686 10.1685 14.7095C10.1685 13.6841 9.42383 13.0127 8.21533 13.0127L7.48291 13.0127C7.06787 13.0127 6.78711 12.6953 6.78711 12.2925C6.78711 11.8286 7.06787 11.5356 7.48291 11.5356L8.1665 11.5356C9.15527 11.5356 9.86328 10.8765 9.86328 9.96094C9.86328 9.08203 9.16748 8.48389 8.17871 8.48389C7.20215 8.48389 6.57959 8.97217 6.31104 9.85107C6.17676 10.2539 5.99365 10.4492 5.60303 10.4492C5.16357 10.4492 4.87061 10.1318 4.87061 9.68018C4.87061 9.52148 4.88281 9.38721 4.91943 9.22852C5.23682 7.99561 6.50635 7.01904 8.21533 7.01904C10.0952 7.01904 11.4136 8.14209 11.4136 9.75342C11.4136 10.9375 10.5957 11.9873 9.57031 12.1582L9.57031 12.2314C10.8398 12.3657 11.7554 13.4399 11.7554 14.7827C11.7554 16.5894 10.2661 17.8833 8.12988 17.8833ZM18.5059 17.8589C18.0054 17.8589 17.7368 17.4927 17.7368 17.0044L17.7368 15.5273L14.0747 15.5273C13.4399 15.5273 13.0005 15.1245 13.0005 14.4531C13.0005 14.1113 13.0737 13.8306 13.2812 13.4399C14.1235 11.9141 15.3809 9.76562 16.4429 7.99561C16.8457 7.2998 17.2974 7.01904 18.0298 7.01904C18.7622 7.01904 19.2749 7.49512 19.2749 8.22754L19.2749 14.1113L19.9585 14.1113C20.3857 14.1113 20.6665 14.3799 20.6665 14.8315C20.6665 15.271 20.3857 15.5273 19.9585 15.5273L19.2749 15.5273L19.2749 17.0044C19.2749 17.5049 19.0063 17.8589 18.5059 17.8589ZM17.7368 14.1113L17.7368 8.72803L17.6758 8.72803C16.6748 10.437 15.3809 12.6343 14.6362 14.0625L14.6362 14.1113Z" fill="#5ac8f5"/>
 </g>
</svg>
