<?xml version="1.0" encoding="UTF-8"?>
<!--Generator: Apple Native CoreSVG 175.5-->
<!DOCTYPE svg
PUBLIC "-//W3C//DTD SVG 1.1//EN"
       "http://www.w3.org/Graphics/SVG/1.1/DTD/svg11.dtd">
<svg version="1.1" xmlns="http://www.w3.org/2000/svg" xmlns:xlink="http://www.w3.org/1999/xlink" width="23.7915" height="29.3091">
 <g>
  <rect height="29.3091" opacity="0" width="23.7915" x="0" y="0"/>
  <path d="M11.8896 26.6846C15.2954 26.6846 19.6899 26.5137 21.5454 26.2939C22.9736 26.1353 23.7915 25.3418 23.7915 23.9746L23.7915 22.1436C23.7915 20.459 23.4375 19.458 22.5098 18.2739L21.7041 17.2485C21.3379 15.4785 20.6909 13.6353 20.3491 12.915C19.7998 11.7432 18.7134 11.0474 17.3584 10.8765C16.6992 10.7788 14.5386 10.73 11.8896 10.73C9.24072 10.73 7.09229 10.791 6.43311 10.8765C5.07812 11.0352 3.9917 11.7432 3.44238 12.915C3.08838 13.6353 2.45361 15.4785 2.0752 17.2485L1.28174 18.2739C0.341797 19.458 0 20.459 0 22.1436L0 23.9746C0 25.3418 0.817871 26.1353 2.24609 26.2939C4.10156 26.5137 8.49609 26.6846 11.8896 26.6846ZM11.8896 25.0244C8.45947 25.0244 4.18701 24.8779 2.62451 24.6826C1.87988 24.585 1.66016 24.2798 1.66016 23.584L1.66016 22.1436C1.66016 20.8374 1.84326 20.2515 2.58789 19.2871L3.61328 17.9443C3.86963 16.5405 4.52881 14.5508 4.93164 13.6597C5.23682 13.0127 5.77393 12.6465 6.61621 12.5488C7.25098 12.4756 9.21631 12.3779 11.8896 12.3779C14.5752 12.3779 16.5894 12.4756 17.1387 12.5488C18.0176 12.6587 18.5547 13.0249 18.8599 13.6597C19.2749 14.5508 19.9097 16.5405 20.166 17.9443L21.2036 19.2871C21.9482 20.2515 22.1313 20.8374 22.1313 22.1436L22.1313 23.584C22.1313 24.2798 21.9116 24.5972 21.167 24.6826C19.6045 24.8657 15.332 25.0244 11.8896 25.0244ZM4.78516 17.0776C4.71191 17.4194 4.84619 17.5659 5.22461 17.5293C6.78711 17.4194 8.65479 17.334 11.8896 17.334C15.1245 17.334 17.0044 17.4194 18.5669 17.5293C18.9331 17.5659 19.0796 17.4194 19.0063 17.0776C18.7622 16.0278 18.3228 14.6973 18.0054 14.1357C17.749 13.6963 17.4683 13.5132 16.9556 13.4399C16.2354 13.3423 14.6362 13.269 11.8896 13.269C9.15527 13.269 7.54395 13.3423 6.82373 13.4399C6.32324 13.5132 6.03027 13.6963 5.78613 14.1357C5.48096 14.6973 5.0293 16.0278 4.78516 17.0776ZM4.71191 23.7549C5.61523 23.7549 6.28662 23.0591 6.28662 22.168C6.28662 21.2646 5.61523 20.5933 4.71191 20.5933C3.8208 20.5933 3.13721 21.2646 3.13721 22.168C3.13721 23.0591 3.8208 23.7549 4.71191 23.7549ZM9.19189 23.3643L14.5874 23.3643C15.271 23.3643 15.7349 22.9004 15.7349 22.2168C15.7349 21.5576 15.271 21.0938 14.5874 21.0938L9.19189 21.0938C8.52051 21.0938 8.05664 21.5576 8.05664 22.2168C8.05664 22.9004 8.52051 23.3643 9.19189 23.3643ZM19.0674 23.7549C19.9707 23.7549 20.6543 23.0591 20.6543 22.168C20.6543 21.2646 19.9707 20.5933 19.0674 20.5933C18.1763 20.5933 17.5049 21.2646 17.5049 22.168C17.5049 23.0591 18.1763 23.7549 19.0674 23.7549ZM1.98975 29.3091L3.17383 29.3091C3.90625 29.3091 4.47998 28.7354 4.47998 28.0151L4.47998 25.6592L0.708008 25.1099L0.708008 28.0151C0.708008 28.7354 1.26953 29.3091 1.98975 29.3091ZM20.5933 29.3091L21.7773 29.3091C22.5098 29.3091 23.0591 28.7354 23.0591 28.0151L23.0591 25.1099L19.2871 25.6592L19.2871 28.0151C19.2871 28.7354 19.8608 29.3091 20.5933 29.3091Z" fill="#5ac8f5"/>
  <path d="M11.8652 6.92139C13.1348 6.92139 14.3066 7.2876 15.2222 8.02002C15.7471 8.39844 16.2964 8.56934 16.7358 8.17871C17.1875 7.77588 17.1997 7.04346 16.6504 6.604C15.332 5.54199 13.6597 4.93164 11.8652 4.93164C10.0708 4.93164 8.39844 5.54199 7.08008 6.604C6.51855 7.04346 6.53076 7.77588 6.99463 8.17871C7.43408 8.56934 7.97119 8.39844 8.5083 8.02002C9.44824 7.31201 10.5957 6.92139 11.8652 6.92139Z" fill="#5ac8f5" fill-opacity="0.5"/>
  <path d="M11.8408 2.02637C14.4775 2.02637 16.8579 2.94189 18.6768 4.57764C19.1772 5.0293 19.751 5.13916 20.1904 4.76074C20.6543 4.35791 20.6543 3.68652 20.1294 3.21045C17.9321 1.18408 15.0024 0.0366211 11.8408 0.0366211C8.6792 0.0366211 5.74951 1.18408 3.55225 3.21045C3.03955 3.68652 3.03955 4.35791 3.49121 4.76074C3.94287 5.13916 4.50439 5.0293 5.00488 4.57764C6.82373 2.94189 9.21631 2.02637 11.8408 2.02637Z" fill="#5ac8f5" fill-opacity="0.5"/>
 </g>
</svg>
