<?xml version="1.0" encoding="UTF-8"?>
<!--Generator: Apple Native CoreSVG 175.5-->
<!DOCTYPE svg
PUBLIC "-//W3C//DTD SVG 1.1//EN"
       "http://www.w3.org/Graphics/SVG/1.1/DTD/svg11.dtd">
<svg version="1.1" xmlns="http://www.w3.org/2000/svg" xmlns:xlink="http://www.w3.org/1999/xlink" width="24.9023" height="24.9146">
 <g>
  <rect height="24.9146" opacity="0" width="24.9023" x="0" y="0"/>
  <path d="M12.4146 2.0752C16.0156 2.0752 19.1772 3.91846 20.9839 6.68945C21.4844 7.38525 21.2402 8.1665 20.4224 8.1665L11.8286 8.1665L18.8232 15.1611C19.6289 14.6118 20.5688 14.2578 21.582 14.1602C22.2168 14.0747 22.644 14.4165 22.4243 15.1733C22.1924 16.0645 21.8262 16.9189 21.3501 17.688L22.8638 19.1895C24.1455 17.2485 24.9023 14.9292 24.9023 12.4512C24.9023 5.63965 19.2505 0 12.439 0C9.96094 0 7.6416 0.756836 5.71289 2.03857L7.18994 3.51562C8.71582 2.6001 10.498 2.0752 12.4146 2.0752ZM12.4512 24.9023C14.917 24.9023 17.2241 24.1455 19.1772 22.876L17.6636 21.3623C17.3462 21.6064 17.0044 21.7896 16.626 21.936C15.979 22.2534 15.5029 21.8384 15.4907 21.2158C15.4541 20.6055 15.5518 19.9951 15.7471 19.4458L2.02637 5.7251C0.744629 7.66602 0 9.98535 0 12.4512C0 19.2505 5.65186 24.9023 12.4512 24.9023ZM2.4292 15.1733C2.20947 14.4165 2.63672 14.0747 3.27148 14.1602C6.7627 14.563 9.47266 17.627 9.36279 21.2158C9.35059 21.8384 8.88672 22.2534 8.22754 21.936C5.34668 20.6421 3.22266 18.1763 2.4292 15.1733Z" fill="#5ac8f5" fill-opacity="0.5"/>
  <path d="M22.9858 24.3286C23.3521 24.6948 23.9502 24.6826 24.3164 24.3164C24.6704 23.9502 24.6826 23.3521 24.3164 22.9858L1.9165 0.598145C1.55029 0.231934 0.952148 0.219727 0.57373 0.598145C0.219727 0.952148 0.219727 1.5625 0.57373 1.92871Z" fill="#5ac8f5"/>
 </g>
</svg>
