<?xml version="1.0" encoding="UTF-8"?>
<!--Generator: Apple Native CoreSVG 175.5-->
<!DOCTYPE svg
PUBLIC "-//W3C//DTD SVG 1.1//EN"
       "http://www.w3.org/Graphics/SVG/1.1/DTD/svg11.dtd">
<svg version="1.1" xmlns="http://www.w3.org/2000/svg" xmlns:xlink="http://www.w3.org/1999/xlink" width="23.239" height="27.5513">
 <g>
  <rect height="27.5513" opacity="0" width="23.239" x="0" y="0"/>
  <path d="M11.6125 27.5391C15.9094 27.5391 19.3761 24.0723 19.3761 19.7876C19.3761 15.4907 15.9094 12.0239 11.6125 12.0239C7.32781 12.0239 3.86101 15.4907 3.86101 19.7876C3.86101 24.0723 7.32781 27.5391 11.6125 27.5391ZM9.403 23.7793C8.93914 24.1211 8.45086 23.7671 8.63396 23.23L9.51287 20.6055L7.26677 19.0063C6.83953 18.689 6.97381 18.0908 7.55974 18.0908L10.3185 18.1152L11.1608 15.4785C11.3317 14.9414 11.9177 14.9414 12.0886 15.4785L12.9308 18.1152L15.6896 18.0908C16.2756 18.0908 16.3976 18.7012 15.9826 18.9941L13.7365 20.6055L14.6154 23.23C14.7985 23.7671 14.3102 24.1211 13.8464 23.7793L11.6247 22.1558ZM4.17839 13.9771C5.37468 12.4634 7.02263 11.3159 8.91472 10.7544L3.38494 0.817871L0.174489 5.71289C-0.0452378 6.03027-0.0574449 6.38428 0.137868 6.70166ZM8.8781 6.5918L14.3591 6.5918L18.0822 0L5.15496 0ZM14.3224 10.7544C16.2267 11.3159 17.8625 12.4634 19.0588 13.9771L23.1115 6.70166C23.2946 6.38428 23.2824 6.03027 23.0627 5.71289L19.8522 0.817871Z" fill="#5ac8f5"/>
 </g>
</svg>
