<?xml version="1.0" encoding="UTF-8"?>
<!--Generator: Apple Native CoreSVG 175.5-->
<!DOCTYPE svg
PUBLIC "-//W3C//DTD SVG 1.1//EN"
       "http://www.w3.org/Graphics/SVG/1.1/DTD/svg11.dtd">
<svg version="1.1" xmlns="http://www.w3.org/2000/svg" xmlns:xlink="http://www.w3.org/1999/xlink" width="24.9023" height="24.9146">
 <g>
  <rect height="24.9146" opacity="0" width="24.9023" x="0" y="0"/>
  <path d="M12.4512 24.9023C19.2627 24.9023 24.9023 19.2505 24.9023 12.4512C24.9023 5.63965 19.2505 0 12.439 0C5.63965 0 0 5.63965 0 12.4512C0 19.2505 5.65186 24.9023 12.4512 24.9023ZM12.4512 22.8271C6.68945 22.8271 2.0874 18.2129 2.0874 12.4512C2.0874 6.68945 6.67725 2.0752 12.439 2.0752C18.2007 2.0752 22.8271 6.68945 22.8271 12.4512C22.8271 18.2129 18.2129 22.8271 12.4512 22.8271ZM7.32422 18.3594C7.32422 19.0308 8.03223 19.3726 9.38721 19.3726C11.3281 19.3726 12.5366 18.2373 12.8296 16.1255L13.2935 12.7808L16.5283 12.7808C17.0532 12.7808 17.4316 12.4146 17.4316 11.9263C17.4316 11.4136 17.041 11.0474 16.5161 11.0474L13.5498 11.0474L13.8184 9.05762C13.9893 7.77588 14.4775 7.25098 15.4175 7.25098C16.1743 7.25098 16.4062 7.33643 16.7603 7.33643C17.2485 7.33643 17.5781 7.00684 17.5781 6.53076C17.5781 5.85938 16.8457 5.51758 15.5151 5.51758C13.5742 5.51758 12.3657 6.66504 12.085 8.75244L11.7676 11.0474L8.98438 11.0474C8.48389 11.0474 8.09326 11.4136 8.09326 11.9263C8.09326 12.4146 8.48389 12.7808 8.99658 12.7808L11.5234 12.7808L11.0962 15.8325C10.9253 17.1021 10.437 17.627 9.48486 17.627C8.75244 17.627 8.53271 17.5293 8.14209 17.5293C7.65381 17.5293 7.32422 17.8711 7.32422 18.3594Z" fill="#5ac8f5"/>
 </g>
</svg>
