<?xml version="1.0" encoding="UTF-8"?>
<!--Generator: Apple Native CoreSVG 175.5-->
<!DOCTYPE svg
PUBLIC "-//W3C//DTD SVG 1.1//EN"
       "http://www.w3.org/Graphics/SVG/1.1/DTD/svg11.dtd">
<svg version="1.1" xmlns="http://www.w3.org/2000/svg" xmlns:xlink="http://www.w3.org/1999/xlink" width="22.4731" height="22.4976">
 <g>
  <rect height="22.4976" opacity="0" width="22.4731" x="0" y="0"/>
  <path d="M3.83301 22.4976L18.6401 22.4976C21.2036 22.4976 22.4731 21.228 22.4731 18.7134L22.4731 3.80859C22.4731 1.29395 21.2036 0.0244141 18.6401 0.0244141L3.83301 0.0244141C1.28174 0.0244141 0 1.28174 0 3.80859L0 18.7134C0 21.2402 1.28174 22.4976 3.83301 22.4976ZM16.9067 7.6416C15.7715 7.61719 14.8315 6.72607 14.8315 5.57861C14.8315 4.45557 15.7715 3.55225 16.9067 3.55225C18.0176 3.55225 18.9331 4.45557 18.9331 5.57861C18.9331 6.72607 18.0176 7.66602 16.9067 7.6416ZM5.59082 18.9697C4.45557 18.9697 3.55225 18.0542 3.55225 16.9189C3.55225 15.7837 4.45557 14.8804 5.59082 14.8804C6.70166 14.8804 7.62939 15.7837 7.62939 16.9189C7.62939 18.0542 6.70166 18.9697 5.59082 18.9697Z" fill="#5ac8f5"/>
 </g>
</svg>
