<?xml version="1.0" encoding="UTF-8"?>
<!--Generator: Apple Native CoreSVG 175.5-->
<!DOCTYPE svg
PUBLIC "-//W3C//DTD SVG 1.1//EN"
       "http://www.w3.org/Graphics/SVG/1.1/DTD/svg11.dtd">
<svg version="1.1" xmlns="http://www.w3.org/2000/svg" xmlns:xlink="http://www.w3.org/1999/xlink" width="22.4731" height="22.4976">
 <g>
  <rect height="22.4976" opacity="0" width="22.4731" x="0" y="0"/>
  <path d="M3.83301 22.4976L18.6401 22.4976C21.2036 22.4976 22.4731 21.228 22.4731 18.7134L22.4731 3.80859C22.4731 1.29395 21.2036 0.0244141 18.6401 0.0244141L3.83301 0.0244141C1.28174 0.0244141 0 1.28174 0 3.80859L0 18.7134C0 21.2402 1.28174 22.4976 3.83301 22.4976ZM3.85742 20.5322C2.63672 20.5322 1.96533 19.8853 1.96533 18.6157L1.96533 3.90625C1.96533 2.63672 2.63672 1.98975 3.85742 1.98975L18.6157 1.98975C19.8242 1.98975 20.5078 2.63672 20.5078 3.90625L20.5078 18.6157C20.5078 19.8853 19.8242 20.5322 18.6157 20.5322ZM8.78906 16.4795C9.28955 16.4795 9.53369 16.1377 9.53369 15.6616L9.53369 14.2212L10.2051 14.2212C10.6201 14.2212 10.8887 13.9771 10.8887 13.5498C10.8887 13.1104 10.6201 12.854 10.2051 12.854L9.53369 12.854L9.53369 7.14111C9.53369 6.43311 9.04541 5.98145 8.3374 5.98145C7.62939 5.98145 7.18994 6.25 6.79932 6.92139C5.77393 8.63037 4.54102 10.73 3.72314 12.207C3.52783 12.5854 3.45459 12.854 3.45459 13.1836C3.45459 13.8306 3.88184 14.2212 4.50439 14.2212L8.05664 14.2212L8.05664 15.6616C8.05664 16.1255 8.31299 16.4795 8.78906 16.4795ZM8.05664 12.854L5.05371 12.854L5.05371 12.8052C5.76172 11.4258 7.01904 9.27734 7.99561 7.62939L8.05664 7.62939ZM15.5762 16.5039C17.6758 16.5039 19.0674 14.4897 19.0674 11.2427C19.0674 7.99561 17.6758 5.98145 15.5762 5.98145C13.4766 5.98145 12.085 7.99561 12.085 11.2427C12.085 14.4897 13.4766 16.5039 15.5762 16.5039ZM15.5762 15.0269C14.4165 15.0269 13.6841 13.5864 13.6841 11.2427C13.6841 8.89893 14.4165 7.4585 15.5762 7.4585C16.7358 7.4585 17.4683 8.89893 17.4683 11.2427C17.4683 13.5864 16.748 15.0269 15.5762 15.0269Z" fill="#5ac8f5"/>
 </g>
</svg>
