<?xml version="1.0" encoding="UTF-8"?>
<!--Generator: Apple Native CoreSVG 175.5-->
<!DOCTYPE svg
PUBLIC "-//W3C//DTD SVG 1.1//EN"
       "http://www.w3.org/Graphics/SVG/1.1/DTD/svg11.dtd">
<svg version="1.1" xmlns="http://www.w3.org/2000/svg" xmlns:xlink="http://www.w3.org/1999/xlink" width="22.4731" height="22.4976">
 <g>
  <rect height="22.4976" opacity="0" width="22.4731" x="0" y="0"/>
  <path d="M0 18.7134C0 21.228 1.26953 22.4976 3.83301 22.4976L18.6401 22.4976C21.1914 22.4976 22.4731 21.2402 22.4731 18.7134L22.4731 3.80859C22.4731 1.28174 21.1914 0.0244141 18.6401 0.0244141L3.83301 0.0244141C1.26953 0.0244141 0 1.29395 0 3.80859ZM1.96533 18.6157L1.96533 3.90625C1.96533 2.63672 2.66113 1.98975 3.85742 1.98975L11.2427 1.98975L11.2427 20.5322L3.85742 20.5322C2.66113 20.5322 1.96533 19.8853 1.96533 18.6157Z" fill="#5ac8f5"/>
 </g>
</svg>
