<?xml version="1.0" encoding="UTF-8"?>
<!--Generator: Apple Native CoreSVG 175.5-->
<!DOCTYPE svg
PUBLIC "-//W3C//DTD SVG 1.1//EN"
       "http://www.w3.org/Graphics/SVG/1.1/DTD/svg11.dtd">
<svg version="1.1" xmlns="http://www.w3.org/2000/svg" xmlns:xlink="http://www.w3.org/1999/xlink" width="22.4731" height="22.4976">
 <g>
  <rect height="22.4976" opacity="0" width="22.4731" x="0" y="0"/>
  <path d="M11.2427 17.8589C7.56836 17.8589 4.62646 14.9048 4.62646 11.2427C4.62646 7.58057 7.56836 4.62646 11.2427 4.62646C14.9048 4.62646 17.8467 7.58057 17.8467 11.2427C17.8467 14.9048 14.9048 17.8589 11.2427 17.8589ZM11.2427 8.8623C11.7676 8.8623 12.1948 8.42285 12.1948 7.89795C12.1948 7.36084 11.7676 6.93359 11.2427 6.93359C10.7056 6.93359 10.2783 7.36084 10.2783 7.89795C10.2783 8.42285 10.7056 8.8623 11.2427 8.8623ZM7.91016 12.7441C8.72803 12.7441 9.38721 12.0728 9.38721 11.2671C9.38721 10.4614 8.72803 9.79004 7.91016 9.79004C7.10449 9.79004 6.43311 10.4614 6.43311 11.2671C6.43311 12.0728 7.10449 12.7441 7.91016 12.7441ZM14.563 12.7197C15.3687 12.7197 16.04 12.0483 16.04 11.2427C16.04 10.437 15.3687 9.76562 14.563 9.76562C13.7573 9.76562 13.0859 10.437 13.0859 11.2427C13.0859 12.0483 13.7573 12.7197 14.563 12.7197ZM3.83301 22.4976L18.6401 22.4976C21.2036 22.4976 22.4731 21.228 22.4731 18.7134L22.4731 3.80859C22.4731 1.29395 21.2036 0.0244141 18.6401 0.0244141L3.83301 0.0244141C1.28174 0.0244141 0 1.28174 0 3.80859L0 18.7134C0 21.2402 1.28174 22.4976 3.83301 22.4976Z" fill="#5ac8f5"/>
 </g>
</svg>
