<?xml version="1.0" encoding="UTF-8"?>
<!--Generator: Apple Native CoreSVG 175.5-->
<!DOCTYPE svg
PUBLIC "-//W3C//DTD SVG 1.1//EN"
       "http://www.w3.org/Graphics/SVG/1.1/DTD/svg11.dtd">
<svg version="1.1" xmlns="http://www.w3.org/2000/svg" xmlns:xlink="http://www.w3.org/1999/xlink" width="24.9023" height="24.9146">
 <g>
  <rect height="24.9146" opacity="0" width="24.9023" x="0" y="0"/>
  <path d="M12.4512 24.9023C19.2627 24.9023 24.9023 19.2505 24.9023 12.4512C24.9023 5.63965 19.2505 0 12.439 0C5.63965 0 0 5.63965 0 12.4512C0 19.2505 5.65186 24.9023 12.4512 24.9023ZM12.4512 22.8271C6.68945 22.8271 2.0874 18.2129 2.0874 12.4512C2.0874 6.68945 6.67725 2.0752 12.439 2.0752C18.2007 2.0752 22.8271 6.68945 22.8271 12.4512C22.8271 18.2129 18.2129 22.8271 12.4512 22.8271Z" fill="#5ac8f5" fill-opacity="0.5"/>
  <path d="M5.99365 9.13086C5.99365 9.39941 6.20117 9.65576 6.54297 9.65576L18.3472 9.65576C18.689 9.65576 18.8965 9.39941 18.8965 9.13086C18.8965 8.94775 18.7988 8.77686 18.5547 8.64258L13.2202 5.57861C12.9639 5.41992 12.7075 5.34668 12.439 5.34668C12.1704 5.34668 11.9263 5.41992 11.6699 5.57861L6.32324 8.64258C6.09131 8.77686 5.99365 8.94775 5.99365 9.13086ZM6.79932 16.2109C6.79932 16.4673 6.95801 16.626 7.22656 16.626L8.82568 16.626C9.08203 16.626 9.24072 16.4673 9.24072 16.2109L9.24072 16.0522C9.24072 15.8203 9.08203 15.6372 8.82568 15.6372L8.52051 15.6372L8.52051 11.377L8.82568 11.377C9.08203 11.377 9.24072 11.2305 9.24072 10.9741L9.24072 10.8154C9.24072 10.5591 9.08203 10.4004 8.82568 10.4004L7.22656 10.4004C6.95801 10.4004 6.79932 10.5591 6.79932 10.8154L6.79932 10.9741C6.79932 11.2305 6.95801 11.377 7.22656 11.377L7.53174 11.377L7.53174 15.6372L7.22656 15.6372C6.95801 15.6372 6.79932 15.8203 6.79932 16.0522ZM9.77783 16.2109C9.77783 16.4673 9.92432 16.626 10.1807 16.626L11.792 16.626C12.0605 16.626 12.2192 16.4673 12.2192 16.2109L12.2192 16.0522C12.2192 15.8203 12.0483 15.6372 11.792 15.6372L11.4868 15.6372L11.4868 11.377L11.792 11.377C12.0605 11.377 12.2192 11.2305 12.2192 10.9741L12.2192 10.8154C12.2192 10.5591 12.0483 10.4004 11.792 10.4004L10.1807 10.4004C9.92432 10.4004 9.77783 10.5591 9.77783 10.8154L9.77783 10.9741C9.77783 11.2305 9.92432 11.377 10.1807 11.377L10.498 11.377L10.498 15.6372L10.1807 15.6372C9.92432 15.6372 9.77783 15.8203 9.77783 16.0522ZM12.7441 16.2109C12.7441 16.4673 12.9028 16.626 13.1714 16.626L14.7705 16.626C15.0146 16.626 15.1978 16.4673 15.1978 16.2109L15.1978 16.0522C15.1978 15.8203 15.0146 15.6372 14.7705 15.6372L14.4531 15.6372L14.4531 11.377L14.7705 11.377C15.0146 11.377 15.1978 11.2305 15.1978 10.9741L15.1978 10.8154C15.1978 10.5591 15.0146 10.4004 14.7705 10.4004L13.1714 10.4004C12.9028 10.4004 12.7441 10.5591 12.7441 10.8154L12.7441 10.9741C12.7441 11.2305 12.9028 11.377 13.1714 11.377L13.4766 11.377L13.4766 15.6372L13.1714 15.6372C12.9028 15.6372 12.7441 15.8203 12.7441 16.0522ZM15.7104 16.2109C15.7104 16.4673 15.8691 16.626 16.1377 16.626L17.7368 16.626C17.9932 16.626 18.1641 16.4673 18.1641 16.2109L18.1641 16.0522C18.1641 15.8203 17.981 15.6372 17.7368 15.6372L17.4316 15.6372L17.4316 11.377L17.7368 11.377C17.9932 11.377 18.1641 11.2305 18.1641 10.9741L18.1641 10.8154C18.1641 10.5591 17.981 10.4004 17.7368 10.4004L16.1377 10.4004C15.8691 10.4004 15.7104 10.5591 15.7104 10.8154L15.7104 10.9741C15.7104 11.2305 15.8691 11.377 16.1377 11.377L16.4551 11.377L16.4551 15.6372L16.1377 15.6372C15.8691 15.6372 15.7104 15.8203 15.7104 16.0522ZM5.7251 17.8955C5.7251 18.1763 5.95703 18.4082 6.23779 18.4082L18.6523 18.4082C18.9331 18.4082 19.165 18.1763 19.165 17.8955C19.165 17.6025 18.9453 17.3706 18.6523 17.3706L6.23779 17.3706C5.95703 17.3706 5.7251 17.6025 5.7251 17.8955Z" fill="#5ac8f5"/>
 </g>
</svg>
