<?xml version="1.0" encoding="UTF-8"?>
<!--Generator: Apple Native CoreSVG 175.5-->
<!DOCTYPE svg
PUBLIC "-//W3C//DTD SVG 1.1//EN"
       "http://www.w3.org/Graphics/SVG/1.1/DTD/svg11.dtd">
<svg version="1.1" xmlns="http://www.w3.org/2000/svg" xmlns:xlink="http://www.w3.org/1999/xlink" width="22.4731" height="22.4976">
 <g>
  <rect height="22.4976" opacity="0" width="22.4731" x="0" y="0"/>
  <path d="M3.83301 22.4976L18.6401 22.4976C21.2036 22.4976 22.4731 21.228 22.4731 18.7134L22.4731 3.80859C22.4731 1.29395 21.2036 0.0244141 18.6401 0.0244141L3.83301 0.0244141C1.28174 0.0244141 0 1.28174 0 3.80859L0 18.7134C0 21.2402 1.28174 22.4976 3.83301 22.4976ZM3.85742 20.5322C2.63672 20.5322 1.96533 19.8853 1.96533 18.6157L1.96533 3.90625C1.96533 2.63672 2.63672 1.98975 3.85742 1.98975L18.6157 1.98975C19.8242 1.98975 20.5078 2.63672 20.5078 3.90625L20.5078 18.6157C20.5078 19.8853 19.8242 20.5322 18.6157 20.5322ZM8.69141 16.4795C9.19189 16.4795 9.44824 16.1377 9.44824 15.6616L9.44824 14.2212L10.1074 14.2212C10.5347 14.2212 10.8032 13.9771 10.8032 13.5498C10.8032 13.1104 10.5225 12.854 10.1074 12.854L9.44824 12.854L9.44824 7.14111C9.44824 6.43311 8.94775 5.98145 8.23975 5.98145C7.53174 5.98145 7.10449 6.25 6.70166 6.92139C5.68848 8.63037 4.45557 10.73 3.62549 12.207C3.43018 12.5854 3.35693 12.854 3.35693 13.1836C3.35693 13.8306 3.78418 14.2212 4.40674 14.2212L7.97119 14.2212L7.97119 15.6616C7.97119 16.1255 8.21533 16.4795 8.69141 16.4795ZM7.97119 12.854L4.95605 12.854L4.95605 12.8052C5.67627 11.4258 6.93359 9.27734 7.89795 7.62939L7.97119 7.62939ZM15.2222 16.5039C17.3706 16.5039 18.811 15.1855 18.811 13.0371C18.811 11.1572 17.5293 9.79004 15.6494 9.79004C14.8315 9.79004 13.9526 10.1929 13.5864 10.7422L13.5376 10.7422L13.7695 7.60498L17.8101 7.60498C18.1519 7.60498 18.4082 7.32422 18.4082 6.92139C18.4082 6.53076 18.1641 6.23779 17.8101 6.23779L13.6108 6.23779C12.9639 6.23779 12.5488 6.62842 12.5 7.27539L12.207 11.084C12.1582 11.7188 12.5 12.1338 13.0615 12.1338C13.4399 12.1338 13.6597 12.0361 14.0503 11.7188C14.563 11.2793 14.9414 11.0962 15.4907 11.0962C16.5527 11.0962 17.2974 11.9507 17.2974 13.0737C17.2974 14.3555 16.4795 15.1245 15.2954 15.1245C14.4653 15.1245 13.7573 14.6851 13.4033 13.9526C13.2202 13.5986 12.9883 13.4277 12.7075 13.4277C12.2925 13.4277 12.0117 13.7329 12.0117 14.1357C12.0117 14.3311 12.0605 14.5142 12.1216 14.6851C12.4878 15.6982 13.6963 16.5039 15.2222 16.5039Z" fill="#5ac8f5"/>
 </g>
</svg>
