<?xml version="1.0" encoding="UTF-8"?>
<!--Generator: Apple Native CoreSVG 175.5-->
<!DOCTYPE svg
PUBLIC "-//W3C//DTD SVG 1.1//EN"
       "http://www.w3.org/Graphics/SVG/1.1/DTD/svg11.dtd">
<svg version="1.1" xmlns="http://www.w3.org/2000/svg" xmlns:xlink="http://www.w3.org/1999/xlink" width="41.2156" height="28.1585">
 <g>
  <rect height="28.1585" opacity="0" width="41.2156" x="0" y="0"/>
  <path d="M38.4155 6.56581L26.3306 3.33094C24.1821 2.75721 22.6684 3.39198 22.0459 5.29628L21.8994 5.82118L23.2422 10.8261C24.5849 15.8187 23.4863 20.0424 20.3613 22.7767C21.5576 24.7543 23.6816 26.2313 26.4892 26.976C32.4829 28.5751 37.0361 25.7919 38.7207 19.5175L41.0278 10.997C41.6382 8.68983 40.7593 7.18837 38.4155 6.56581ZM26.1108 13.9633C25.2685 13.7557 24.7681 12.9013 25 12.0346C25.2319 11.1923 26.0864 10.6918 26.9287 10.9237C27.771 11.1557 28.2715 12.0223 28.0517 12.8646C27.8198 13.7069 26.9653 14.1952 26.1108 13.9633ZM33.2764 15.8798C32.4463 15.66 31.9458 14.7933 32.1777 13.9389C32.3974 13.0966 33.2519 12.6083 34.0942 12.8402C34.9487 13.0477 35.437 13.9144 35.2173 14.7689C34.9853 15.6112 34.1308 16.1117 33.2764 15.8798ZM28.1372 20.5673C26.8677 20.2133 25.647 20.2011 24.0845 20.5429C23.5962 20.6527 23.3032 20.2499 23.5596 19.8471C24.6094 18.1991 26.7334 17.5155 28.7964 18.0892C30.9326 18.6264 32.3852 20.2621 32.4585 22.2152C32.4829 22.7035 32.0312 22.911 31.665 22.5814C30.4565 21.4828 29.4189 20.8969 28.1372 20.5673Z" fill="#5ac8f5" fill-opacity="0.5"/>
  <path d="M14.7339 23.8265C20.7519 22.203 23.3276 17.5399 21.6308 11.2533L19.3481 2.70838C18.7256 0.413463 17.2119-0.416615 14.8804 0.193736L2.78319 3.40419C0.43944 4.03895-0.42726 5.50379 0.195299 7.84754L2.46581 16.3803C4.13817 22.6547 8.71581 25.4379 14.7339 23.8265ZM13.5864 19.4564C11.0351 20.1156 8.55712 19.2489 7.25096 17.1737C6.99462 16.7953 7.21434 16.4169 7.70262 16.4535C9.32616 16.5878 11.2549 16.307 12.6465 15.9286C14.0137 15.5746 15.7959 14.8666 17.1509 13.9266C17.5537 13.6337 17.9565 13.8412 17.9321 14.3417C17.8467 16.7831 16.1499 18.7484 13.5864 19.4564ZM7.43407 11.4364C6.51854 11.6928 6.39647 12.3031 6.00585 12.3641C5.82274 12.4008 5.60301 12.1932 5.49315 11.8392C5.20018 10.8016 5.85936 9.69081 6.90917 9.43446C7.97118 9.17811 9.0576 9.80067 9.32616 10.8016C9.43602 11.1679 9.33837 11.4486 9.14305 11.5219C8.69139 11.6806 8.26415 11.2167 7.43407 11.4364ZM14.8804 9.42225C13.9648 9.69081 13.8428 10.289 13.4521 10.3378C13.269 10.3744 13.0493 10.1669 12.9394 9.82508C12.6465 8.79969 13.3057 7.67665 14.3555 7.4203C15.4297 7.13954 16.5039 7.7743 16.7724 8.78749C16.8823 9.1659 16.7847 9.43446 16.5893 9.5077C16.1499 9.66639 15.7104 9.19032 14.8804 9.42225Z" fill="#5ac8f5"/>
 </g>
</svg>
