<?xml version="1.0" encoding="UTF-8"?>
<!--Generator: Apple Native CoreSVG 175.5-->
<!DOCTYPE svg
PUBLIC "-//W3C//DTD SVG 1.1//EN"
       "http://www.w3.org/Graphics/SVG/1.1/DTD/svg11.dtd">
<svg version="1.1" xmlns="http://www.w3.org/2000/svg" xmlns:xlink="http://www.w3.org/1999/xlink" width="23.1812" height="26.8188">
 <g>
  <rect height="26.8188" opacity="0" width="23.1812" x="0" y="0"/>
  <path d="M7.00684 4.60205C7.00684 6.75049 8.45947 8.54492 10.4492 9.04541L10.4492 16.7725C10.4492 20.3735 11.0962 22.3389 11.5845 22.3389C12.085 22.3389 12.7197 20.3857 12.7197 16.7725L12.7197 9.04541C14.7095 8.55713 16.1743 6.75049 16.1743 4.60205C16.1743 2.0752 14.1357 0 11.5845 0C9.04541 0 7.00684 2.0752 7.00684 4.60205ZM10.2783 4.8584C9.44824 4.8584 8.71582 4.12598 8.71582 3.27148C8.71582 2.4292 9.44824 1.70898 10.2783 1.70898C11.145 1.70898 11.853 2.4292 11.853 3.27148C11.853 4.12598 11.145 4.8584 10.2783 4.8584ZM11.5967 26.8066C18.9575 26.8066 23.1812 24.2676 23.1812 21.582C23.1812 18.3594 18.0664 16.394 14.7095 16.3574L14.7095 18.1396C17.0654 18.1763 20.7153 19.458 20.7153 21.2891C20.7153 23.3887 16.8457 24.8779 11.5967 24.8779C6.32324 24.8779 2.47803 23.4131 2.47803 21.2891C2.47803 19.458 6.11572 18.1763 8.47168 18.1396L8.47168 16.3574C5.11475 16.394 0 18.3594 0 21.582C0 24.2676 4.23584 26.8066 11.5967 26.8066Z" fill="#5ac8f5"/>
 </g>
</svg>
