<?xml version="1.0" encoding="UTF-8"?>
<!--Generator: Apple Native CoreSVG 175.5-->
<!DOCTYPE svg
PUBLIC "-//W3C//DTD SVG 1.1//EN"
       "http://www.w3.org/Graphics/SVG/1.1/DTD/svg11.dtd">
<svg version="1.1" xmlns="http://www.w3.org/2000/svg" xmlns:xlink="http://www.w3.org/1999/xlink" width="24.9023" height="24.9146">
 <g>
  <rect height="24.9146" opacity="0" width="24.9023" x="0" y="0"/>
  <path d="M12.4512 24.9023C19.2627 24.9023 24.9023 19.2505 24.9023 12.4512C24.9023 5.63965 19.2505 0 12.439 0C5.63965 0 0 5.63965 0 12.4512C0 19.2505 5.65186 24.9023 12.4512 24.9023Z" fill="#5ac8f5" fill-opacity="0.25"/>
  <path d="M9.44824 18.0908C8.74023 18.0908 8.31299 17.6636 8.31299 16.9678L8.31299 7.71484C8.31299 6.99463 8.74023 6.57959 9.44824 6.57959L13.147 6.57959C15.3076 6.57959 16.7114 7.69043 16.7114 9.42383C16.7114 10.6812 15.9424 11.6577 14.6973 11.9629L14.6973 12.0361C16.3696 12.2437 17.4072 13.3179 17.4072 14.856C17.4072 16.8335 15.7227 18.0908 13.1226 18.0908ZM10.2783 11.4746L12.1704 11.4746C13.855 11.4746 14.7705 10.8398 14.7705 9.74121C14.7705 8.70361 14.0137 8.06885 12.7441 8.06885L10.2783 8.06885ZM10.2783 16.6016L12.3169 16.6016C14.4165 16.6016 15.3809 16.0278 15.3809 14.7705C15.3809 13.562 14.4897 12.8662 12.9517 12.8662L10.2783 12.8662Z" fill="#5ac8f5"/>
 </g>
</svg>
