<?xml version="1.0" encoding="UTF-8"?>
<!--Generator: Apple Native CoreSVG 175.5-->
<!DOCTYPE svg
PUBLIC "-//W3C//DTD SVG 1.1//EN"
       "http://www.w3.org/Graphics/SVG/1.1/DTD/svg11.dtd">
<svg version="1.1" xmlns="http://www.w3.org/2000/svg" xmlns:xlink="http://www.w3.org/1999/xlink" width="24.9023" height="25.0122">
 <g>
  <rect height="25.0122" opacity="0" width="24.9023" x="0" y="0"/>
  <path d="M12.4512 24.9023C19.2627 24.9023 24.9023 19.2505 24.9023 12.4512C24.9023 5.63965 19.2505 0 12.439 0C5.63965 0 0 5.63965 0 12.4512C0 19.2505 5.65186 24.9023 12.4512 24.9023ZM12.4512 22.8271C6.68945 22.8271 2.0874 18.2129 2.0874 12.4512C2.0874 6.68945 6.67725 2.0752 12.439 2.0752C18.2007 2.0752 22.8271 6.68945 22.8271 12.4512C22.8271 18.2129 18.2129 22.8271 12.4512 22.8271ZM10.0342 19.4336L14.8682 19.4336C15.9546 19.4336 16.687 18.7378 16.687 17.688L16.687 7.20215C16.687 6.15234 15.9546 5.45654 14.8682 5.45654L10.0342 5.45654C8.94775 5.45654 8.21533 6.15234 8.21533 7.20215L8.21533 17.688C8.21533 18.7378 8.94775 19.4336 10.0342 19.4336ZM10.1685 18.3472C9.60693 18.3472 9.30176 18.0542 9.30176 17.5293L9.30176 7.36084C9.30176 6.83594 9.60693 6.54297 10.1685 6.54297L14.7339 6.54297C15.2954 6.54297 15.6006 6.83594 15.6006 7.36084L15.6006 17.5293C15.6006 18.0542 15.2954 18.3472 14.7339 18.3472ZM11.6333 8.02002L13.2446 8.02002C13.5132 8.02002 13.7207 7.80029 13.7207 7.54395C13.7207 7.2876 13.5132 7.06787 13.2446 7.06787L11.6333 7.06787C11.3647 7.06787 11.1694 7.2876 11.1694 7.54395C11.1694 7.80029 11.3647 8.02002 11.6333 8.02002ZM11.0718 17.8833L13.8428 17.8833C14.0381 17.8833 14.1602 17.749 14.1602 17.5659C14.1602 17.3584 14.0381 17.2241 13.8428 17.2241L11.0718 17.2241C10.8765 17.2241 10.7422 17.3584 10.7422 17.5659C10.7422 17.749 10.8765 17.8833 11.0718 17.8833ZM5.33447 16.0767C5.50537 15.8691 5.45654 15.625 5.26123 15.3931C4.54102 14.5874 4.1626 13.562 4.1626 12.4512C4.1626 11.3403 4.54102 10.3149 5.26123 9.50928C5.45654 9.27734 5.50537 9.021 5.33447 8.82568C5.17578 8.60596 4.8584 8.60596 4.62646 8.83789C3.73535 9.80225 3.25928 11.084 3.25928 12.4512C3.25928 13.8062 3.73535 15.0879 4.62646 16.0645C4.8584 16.2964 5.17578 16.2964 5.33447 16.0767ZM7.09229 14.5752C7.26318 14.3677 7.20215 14.1357 7.01904 13.8916C6.71387 13.501 6.56738 13.0005 6.56738 12.4512C6.56738 11.9019 6.71387 11.3892 7.01904 11.0107C7.20215 10.7666 7.26318 10.5347 7.09229 10.3271C6.90918 10.1074 6.57959 10.1074 6.37207 10.3516C5.9082 10.9375 5.63965 11.6577 5.63965 12.4512C5.63965 13.2324 5.9082 13.9648 6.37207 14.5386C6.57959 14.7827 6.90918 14.7949 7.09229 14.5752ZM17.7734 14.5752C17.9565 14.7949 18.2983 14.7827 18.4937 14.5386C18.9575 13.9648 19.2383 13.2324 19.2383 12.4512C19.2383 11.6577 18.9575 10.9375 18.4937 10.3516C18.2983 10.1074 17.9565 10.1074 17.7734 10.3271C17.6025 10.5347 17.6636 10.7666 17.8467 11.0107C18.1519 11.3892 18.3105 11.9019 18.3105 12.4512C18.3105 13.0005 18.1519 13.501 17.8467 13.8916C17.6636 14.1357 17.6025 14.3677 17.7734 14.5752ZM19.5312 16.0767C19.7021 16.2964 20.0195 16.2964 20.2393 16.0645C21.1304 15.0879 21.6187 13.8062 21.6187 12.4512C21.6187 11.084 21.1304 9.80225 20.2393 8.83789C20.0195 8.60596 19.7021 8.60596 19.5312 8.82568C19.3604 9.021 19.4092 9.27734 19.6167 9.50928C20.3247 10.3149 20.7153 11.3403 20.7153 12.4512C20.7153 13.562 20.3247 14.5874 19.6167 15.3931C19.4092 15.625 19.3604 15.8691 19.5312 16.0767Z" fill="#5ac8f5"/>
 </g>
</svg>
