<?xml version="1.0" encoding="UTF-8"?>
<!--Generator: Apple Native CoreSVG 175.5-->
<!DOCTYPE svg
PUBLIC "-//W3C//DTD SVG 1.1//EN"
       "http://www.w3.org/Graphics/SVG/1.1/DTD/svg11.dtd">
<svg version="1.1" xmlns="http://www.w3.org/2000/svg" xmlns:xlink="http://www.w3.org/1999/xlink" width="30.6885" height="29.2603">
 <g>
  <rect height="29.2603" opacity="0" width="30.6885" x="0" y="0"/>
  <path d="M6.62842 22.0093L14.209 22.0093L14.209 14.5264C14.209 13.8794 14.7705 13.3301 15.4297 13.3301C16.0889 13.3301 16.6382 13.8794 16.6382 14.5264L16.6382 22.0093L24.8169 22.0093C28.3325 22.0093 30.6885 19.812 30.6885 16.9189C30.6885 14.5264 29.2114 12.3291 26.8311 11.3403C26.8555 5.896 22.937 1.96533 17.9443 1.96533C14.6362 1.96533 12.2803 3.73535 10.8154 5.87158C8.04443 5.12695 4.54102 7.27539 4.47998 10.7056C1.72119 11.145 0 13.5742 0 16.394C0 19.5068 2.62451 22.0093 6.62842 22.0093ZM15.4297 29.2603C15.6738 29.2603 15.8813 29.1748 16.1255 28.9307L20.2515 24.9512C20.4346 24.7681 20.5444 24.5728 20.5444 24.3042C20.5444 23.8159 20.1538 23.4497 19.6533 23.4497C19.4214 23.4497 19.165 23.5474 18.9941 23.7427L17.1387 25.7202L16.3208 26.5747L16.394 24.7559L16.394 21.9971C16.394 21.4844 15.9546 21.0449 15.4297 21.0449C14.9048 21.0449 14.4531 21.4844 14.4531 21.9971L14.4531 24.7559L14.5264 26.5869L13.7085 25.7202L11.853 23.7427C11.6821 23.5474 11.4136 23.4497 11.1816 23.4497C10.6689 23.4497 10.3027 23.8159 10.3027 24.3042C10.3027 24.5728 10.4126 24.7681 10.5957 24.9512L14.7217 28.9307C14.9658 29.1748 15.1733 29.2603 15.4297 29.2603Z" fill="#5ac8f5"/>
 </g>
</svg>
