<?xml version="1.0" encoding="UTF-8"?>
<!--Generator: Apple Native CoreSVG 175.5-->
<!DOCTYPE svg
PUBLIC "-//W3C//DTD SVG 1.1//EN"
       "http://www.w3.org/Graphics/SVG/1.1/DTD/svg11.dtd">
<svg version="1.1" xmlns="http://www.w3.org/2000/svg" xmlns:xlink="http://www.w3.org/1999/xlink" width="28.5767" height="26.1841">
 <g>
  <rect height="26.1841" opacity="0" width="28.5767" x="0" y="0"/>
  <path d="M3.78418 26.1841L16.748 26.1841C19.2749 26.1841 20.5322 24.9023 20.5322 22.3511L20.5322 14.2944L11.5112 14.2944C10.8643 14.2944 10.3149 13.7451 10.3149 13.0859C10.3149 12.4268 10.8643 11.8652 11.5112 11.8652L20.5322 11.8652L20.5322 3.83301C20.5322 1.29395 19.2749 0.012207 16.748 0.012207L3.78418 0.012207C1.25732 0.012207 0 1.29395 0 3.83301L0 22.3511C0 24.9023 1.25732 26.1841 3.78418 26.1841ZM19.5801 13.0859C19.5801 13.6108 20.0073 14.0503 20.52 14.0503L24.0723 14.0503L25.9033 13.9771L25.0366 14.8071L23.0713 16.6504C22.876 16.8213 22.7783 17.0776 22.7783 17.3096C22.7783 17.8223 23.1323 18.2007 23.6328 18.2007C23.8892 18.2007 24.0845 18.103 24.2798 17.9199L28.2593 13.7939C28.5034 13.5498 28.5767 13.3301 28.5767 13.0859C28.5767 12.8296 28.5034 12.6221 28.2593 12.3779L24.2798 8.25195C24.0845 8.06885 23.8892 7.95898 23.6328 7.95898C23.1323 7.95898 22.7783 8.3252 22.7783 8.83789C22.7783 9.08203 22.876 9.33838 23.0713 9.50928L25.0366 11.3647L25.9033 12.1948L24.0723 12.1094L20.52 12.1094C20.0073 12.1094 19.5801 12.561 19.5801 13.0859Z" fill="#5ac8f5"/>
 </g>
</svg>
