<?xml version="1.0" encoding="UTF-8"?>
<!--Generator: Apple Native CoreSVG 175.5-->
<!DOCTYPE svg
PUBLIC "-//W3C//DTD SVG 1.1//EN"
       "http://www.w3.org/Graphics/SVG/1.1/DTD/svg11.dtd">
<svg version="1.1" xmlns="http://www.w3.org/2000/svg" xmlns:xlink="http://www.w3.org/1999/xlink" width="24.9023" height="24.9146">
 <g>
  <rect height="24.9146" opacity="0" width="24.9023" x="0" y="0"/>
  <path d="M12.4512 24.9023C19.2627 24.9023 24.9023 19.2505 24.9023 12.4512C24.9023 5.63965 19.2505 0 12.439 0C5.63965 0 0 5.63965 0 12.4512C0 19.2505 5.65186 24.9023 12.4512 24.9023ZM12.1338 18.4448C10.0098 18.4448 8.82568 17.395 8.53271 16.5161C8.48389 16.3696 8.44727 16.2231 8.44727 16.0889C8.44727 15.6006 8.80127 15.271 9.28955 15.271C9.68018 15.271 9.93652 15.4785 10.1562 15.7715C10.6689 16.4795 11.2549 16.8335 12.1094 16.8335C13.855 16.8335 15.0269 15.1855 15.0024 12.4268L14.9048 12.4268C14.502 13.3545 13.5132 14.1846 11.8408 14.1846C9.87549 14.1846 8.08105 12.8418 8.08105 10.4736C8.08105 8.03223 9.75342 6.45752 12.3657 6.45752C15.1855 6.45752 16.8335 8.42285 16.8335 12.0483C16.8335 16.272 15.1855 18.4448 12.1338 18.4448ZM12.439 12.7563C13.8428 12.7563 14.8438 11.7676 14.8438 10.4126C14.8438 8.99658 13.8184 7.95898 12.439 7.95898C10.9985 7.95898 10.022 8.92334 10.022 10.3882C10.022 11.7676 11.0229 12.7563 12.439 12.7563Z" fill="#5ac8f5"/>
 </g>
</svg>
