<?xml version="1.0" encoding="UTF-8"?>
<!--Generator: Apple Native CoreSVG 175.5-->
<!DOCTYPE svg
PUBLIC "-//W3C//DTD SVG 1.1//EN"
       "http://www.w3.org/Graphics/SVG/1.1/DTD/svg11.dtd">
<svg version="1.1" xmlns="http://www.w3.org/2000/svg" xmlns:xlink="http://www.w3.org/1999/xlink" width="18.5059" height="23.0591">
 <g>
  <rect height="23.0591" opacity="0" width="18.5059" x="0" y="0"/>
  <path d="M9.25293 23.0591C9.8877 23.0591 10.3394 22.6196 10.3394 21.9849L10.3394 5.9082L10.2173 2.27051L9.52148 2.51465L13.9038 7.31201L16.687 10.0464C16.8823 10.2417 17.1631 10.3394 17.4561 10.3394C18.0664 10.3394 18.5059 9.87549 18.5059 9.27734C18.5059 8.98438 18.4082 8.72803 18.1763 8.48389L10.0708 0.366211C9.83887 0.12207 9.55811 0 9.25293 0C8.94775 0 8.66699 0.12207 8.43506 0.366211L0.341797 8.48389C0.109863 8.72803 0 8.98438 0 9.27734C0 9.87549 0.439453 10.3394 1.0498 10.3394C1.34277 10.3394 1.63574 10.2417 1.81885 10.0464L4.60205 7.31201L8.97217 2.51465L8.28857 2.27051L8.1665 5.9082L8.1665 21.9849C8.1665 22.6196 8.61816 23.0591 9.25293 23.0591Z" fill="#5ac8f5"/>
 </g>
</svg>
