<?xml version="1.0" encoding="UTF-8"?>
<!--Generator: Apple Native CoreSVG 175.5-->
<!DOCTYPE svg
PUBLIC "-//W3C//DTD SVG 1.1//EN"
       "http://www.w3.org/Graphics/SVG/1.1/DTD/svg11.dtd">
<svg version="1.1" xmlns="http://www.w3.org/2000/svg" xmlns:xlink="http://www.w3.org/1999/xlink" width="16.333" height="29.1626">
 <g>
  <rect height="29.1626" opacity="0" width="16.333" x="0" y="0"/>
  <path d="M0 7.51953C0 12.207 3.08838 13.3667 3.58887 21.5088C3.61328 21.9482 3.88184 22.229 4.3457 22.229L11.9873 22.229C12.4634 22.229 12.7197 21.9482 12.7563 21.5088C13.2568 13.3667 16.333 12.207 16.333 7.51953C16.333 3.30811 12.7319 0 8.1665 0C3.60107 0 0 3.30811 0 7.51953ZM4.30908 24.8657L12.0361 24.8657C12.439 24.8657 12.7441 24.5483 12.7441 24.1455C12.7441 23.7549 12.439 23.4375 12.0361 23.4375L4.30908 23.4375C3.90625 23.4375 3.58887 23.7549 3.58887 24.1455C3.58887 24.5483 3.90625 24.8657 4.30908 24.8657ZM8.1665 28.4058C10.0586 28.4058 11.6333 27.478 11.7554 26.0742L4.58984 26.0742C4.67529 27.478 6.26221 28.4058 8.1665 28.4058Z" fill="#5ac8f5"/>
 </g>
</svg>
