<?xml version="1.0" encoding="UTF-8"?>
<!--Generator: Apple Native CoreSVG 175.5-->
<!DOCTYPE svg
PUBLIC "-//W3C//DTD SVG 1.1//EN"
       "http://www.w3.org/Graphics/SVG/1.1/DTD/svg11.dtd">
<svg version="1.1" xmlns="http://www.w3.org/2000/svg" xmlns:xlink="http://www.w3.org/1999/xlink" width="10.6449" height="23.8159">
 <g>
  <rect height="23.8159" opacity="0" width="10.6449" x="0" y="0"/>
  <path d="M5.27384 9.8999C7.89835 9.86328 9.5463 8.27637 10.2787 7.14111C10.5229 6.75049 10.6449 6.32324 10.6449 5.84717L10.6449 4.05273C10.6449 3.57666 10.5351 3.14941 10.2787 2.75879C9.52189 1.62354 7.89835 0 5.27384 0C2.4174 0 0.0370258 2.22168 0.000404743 4.93164C-0.0362164 7.67822 2.4174 9.92432 5.27384 9.8999ZM8.42326 6.88477C8.09367 6.88477 7.83732 6.62842 7.83732 6.29883L7.83732 3.58887C7.83732 3.25928 8.09367 3.00293 8.42326 3.00293C8.75285 3.00293 8.99699 3.25928 8.99699 3.58887L8.99699 6.29883C8.99699 6.62842 8.75285 6.88477 8.42326 6.88477ZM4.65128 19.751L4.65128 11.0474C3.36955 10.9497 2.17326 10.4614 1.2089 9.7168L1.2089 19.751ZM3.45499 23.7793C4.18742 23.7793 4.65128 23.4131 4.65128 22.6929L4.65128 20.9717L1.2089 20.9717L1.2089 22.6929C1.2089 23.4131 1.67277 23.7793 2.4174 23.7793Z" fill="#5ac8f5"/>
 </g>
</svg>
