<?xml version="1.0" encoding="UTF-8"?>
<!--Generator: Apple Native CoreSVG 175.5-->
<!DOCTYPE svg
PUBLIC "-//W3C//DTD SVG 1.1//EN"
       "http://www.w3.org/Graphics/SVG/1.1/DTD/svg11.dtd">
<svg version="1.1" xmlns="http://www.w3.org/2000/svg" xmlns:xlink="http://www.w3.org/1999/xlink" width="24.9756" height="23.8892">
 <g>
  <rect height="23.8892" opacity="0" width="24.9756" x="0" y="0"/>
  <path d="M12.4878 18.3472C20.2881 18.3472 24.9756 14.8315 24.9756 10.4736C24.9756 6.12793 20.2881 2.6123 12.4756 2.6123C4.6875 2.6123 0 6.12793 0 10.4736C0 14.8315 4.6875 18.3472 12.4878 18.3472ZM12.4878 23.8892C15.4541 23.8892 17.2119 22.4976 17.2119 20.1538L17.2119 19.5435C15.7349 19.8364 14.1602 20.0073 12.4878 20.0073C10.8154 20.0073 9.24072 19.8364 7.77588 19.5435L7.77588 20.1538C7.77588 22.4976 9.53369 23.8892 12.4878 23.8892ZM10.8154 14.4287C10.2539 14.4287 9.8877 14.0137 9.8877 13.4033L9.8877 7.1167C9.8877 6.50635 10.2661 6.10352 10.8154 6.10352C11.3892 6.10352 11.7554 6.49414 11.7554 7.1167L11.7554 12.793L14.6973 12.793C15.1855 12.793 15.5273 13.1226 15.5273 13.6108C15.5273 14.0869 15.1855 14.4287 14.6973 14.4287Z" fill="#5ac8f5"/>
 </g>
</svg>
