<?xml version="1.0" encoding="UTF-8"?>
<!--Generator: Apple Native CoreSVG 175.5-->
<!DOCTYPE svg
PUBLIC "-//W3C//DTD SVG 1.1//EN"
       "http://www.w3.org/Graphics/SVG/1.1/DTD/svg11.dtd">
<svg version="1.1" xmlns="http://www.w3.org/2000/svg" xmlns:xlink="http://www.w3.org/1999/xlink" width="23.7549" height="27.478">
 <g>
  <rect height="27.478" opacity="0" width="23.7549" x="0" y="0"/>
  <path d="M6.0791 5.51758L7.4707 4.12598L3.6499 0.317383C3.27148-0.0732422 2.63672-0.0732422 2.2583 0.317383C1.87988 0.695801 1.87988 1.31836 2.2583 1.70898ZM21.7407 19.7754L20.3735 18.3716C18.4326 20.3369 15.7349 21.521 12.7197 21.521C6.70166 21.521 1.96533 16.7847 1.96533 10.7666C1.96533 7.76367 3.14941 5.06592 5.09033 3.13721L3.66211 1.79443C1.3916 4.07715 0 7.23877 0 10.7666C0 17.8589 5.62744 23.4863 12.7197 23.4863C16.272 23.4863 19.4458 22.0703 21.7407 19.7754ZM19.2383 15.9058L17.7856 17.2241L22.0825 21.521C22.4609 21.8994 23.0835 21.8994 23.4619 21.521C23.8525 21.1426 23.8525 20.5078 23.4619 20.1294ZM11.731 22.9736L11.731 26.2207L13.6963 26.2207L13.6963 22.9736ZM8.3374 27.478L17.1265 27.478C17.6636 27.478 18.103 27.0386 18.103 26.5015C18.103 25.9644 17.6636 25.5127 17.1265 25.5127L8.3374 25.5127C7.80029 25.5127 7.34863 25.9644 7.34863 26.5015C7.34863 27.0386 7.80029 27.478 8.3374 27.478ZM12.7197 19.7388C17.6636 19.7388 21.6797 15.7227 21.6797 10.7666C21.6797 5.82275 17.6636 1.80664 12.7197 1.80664C7.76367 1.80664 3.74756 5.82275 3.74756 10.7666C3.74756 15.7227 7.76367 19.7388 12.7197 19.7388ZM12.7197 17.8955C8.53271 17.8955 5.59082 14.9536 5.59082 10.7666C5.59082 6.57959 8.53271 3.6499 12.7197 3.6499C16.9067 3.6499 19.8364 6.57959 19.8364 10.7666C19.8364 14.9536 16.9067 17.8955 12.7197 17.8955Z" fill="#5ac8f5"/>
 </g>
</svg>
