<?xml version="1.0" encoding="UTF-8"?>
<!--Generator: Apple Native CoreSVG 175.5-->
<!DOCTYPE svg
PUBLIC "-//W3C//DTD SVG 1.1//EN"
       "http://www.w3.org/Graphics/SVG/1.1/DTD/svg11.dtd">
<svg version="1.1" xmlns="http://www.w3.org/2000/svg" xmlns:xlink="http://www.w3.org/1999/xlink" width="23.7305" height="24.3286">
 <g>
  <rect height="24.3286" opacity="0" width="23.7305" x="0" y="0"/>
  <path d="M3.41797 23.645L20.3125 23.645C22.4609 23.645 23.7305 22.1313 23.7305 20.3613C23.7305 19.7388 23.5718 19.0796 23.2544 18.4448L22.876 17.7246L0.854492 17.7246L0.476074 18.457C0.158691 19.0674 0 19.7388 0 20.3613C0 22.1313 1.26953 23.645 3.41797 23.645ZM1.69678 16.0645L8.02002 16.0645L3.83301 11.8774ZM9.83887 16.0645L12.6099 16.0645L2.0874 5.54199C1.67236 5.13916 1.13525 5.12695 0.708008 5.54199C0.268555 5.96924 0.292969 6.53076 0.708008 6.9458ZM14.5142 16.0645L22.0337 16.0645L14.7705 1.81885C14.209 0.708008 13.0127 0 11.8652 0C10.73 0 9.52148 0.708008 8.95996 1.81885L6.01807 7.58057L10.9497 12.5L10.9497 5.87158C10.9497 5.26123 11.3159 4.87061 11.9141 4.87061C12.5244 4.87061 12.8906 5.26123 12.8906 5.87158L12.8906 14.4287Z" fill="#5ac8f5"/>
 </g>
</svg>
