<?xml version="1.0" encoding="UTF-8"?>
<!--Generator: Apple Native CoreSVG 175.5-->
<!DOCTYPE svg
PUBLIC "-//W3C//DTD SVG 1.1//EN"
       "http://www.w3.org/Graphics/SVG/1.1/DTD/svg11.dtd">
<svg version="1.1" xmlns="http://www.w3.org/2000/svg" xmlns:xlink="http://www.w3.org/1999/xlink" width="15.3687" height="27.6489">
 <g>
  <rect height="27.6489" opacity="0" width="15.3687" x="0" y="0"/>
  <path d="M7.75146 24.707C11.8774 24.707 15.3687 22.5586 15.3687 18.6401C15.3687 15.625 13.4399 13.8306 9.13086 12.793L6.81152 12.2437C4.08936 11.5967 2.83203 10.4614 2.83203 8.6792C2.83203 6.7627 4.65088 5.11475 7.73926 5.11475C10.2661 5.11475 11.9995 6.29883 12.6709 8.48389C12.8662 9.11865 13.2812 9.44824 13.8916 9.44824C14.6118 9.44824 15.0146 8.98438 15.0146 8.27637C15.0146 8.08105 14.9902 7.87354 14.9292 7.65381C14.1968 4.83398 11.3403 2.9541 7.73926 2.9541C3.49121 2.9541 0.45166 5.34668 0.45166 8.82568C0.45166 11.7065 2.35596 13.5132 6.44531 14.502L8.76465 15.0513C11.8042 15.7837 12.9883 16.8335 12.9883 18.811C12.9883 21.167 11.0596 22.5464 7.77588 22.5464C4.84619 22.5464 2.92969 21.3135 2.34375 19.0308C2.13623 18.3838 1.7334 18.0542 1.12305 18.0542C0.415039 18.0542 0 18.5303 0 19.2505C0 19.4336 0.0244141 19.6411 0.0854492 19.8608C0.854492 22.9248 4.08936 24.707 7.75146 24.707ZM7.69043 27.6489C8.20312 27.6489 8.61816 27.2339 8.61816 26.7212L8.61816 1.01318C8.61816 0.500488 8.20312 0.0976562 7.69043 0.0976562C7.17773 0.0976562 6.7749 0.500488 6.7749 1.01318L6.7749 26.7212C6.7749 27.2339 7.17773 27.6489 7.69043 27.6489Z" fill="#5ac8f5"/>
 </g>
</svg>
