<?xml version="1.0" encoding="UTF-8"?>
<!--Generator: Apple Native CoreSVG 175.5-->
<!DOCTYPE svg
PUBLIC "-//W3C//DTD SVG 1.1//EN"
       "http://www.w3.org/Graphics/SVG/1.1/DTD/svg11.dtd">
<svg version="1.1" xmlns="http://www.w3.org/2000/svg" xmlns:xlink="http://www.w3.org/1999/xlink" width="24.9023" height="24.9146">
 <g>
  <rect height="24.9146" opacity="0" width="24.9023" x="0" y="0"/>
  <path d="M12.4512 24.9146C19.2627 24.9146 24.9023 19.2749 24.9023 12.4634C24.9023 5.66406 19.2505 0.012207 12.439 0.012207C5.63965 0.012207 0 5.66406 0 12.4634C0 19.2749 5.65186 24.9146 12.4512 24.9146Z" fill="#5ac8f5" fill-opacity="0.25"/>
  <path d="M7.56836 18.2129C6.23779 18.2129 5.17578 17.1387 5.17578 15.8081C5.17578 14.4897 6.23779 13.4277 7.56836 13.4277C8.66699 13.4277 8.8501 13.8794 9.35059 13.8794C9.44824 13.8794 9.53369 13.855 9.66797 13.7939L10.5957 13.2935C11.0474 13.0493 11.1938 12.915 11.2671 12.6099L11.3892 12.1826C11.5601 11.5356 11.9019 11.1816 12.5977 10.9131L17.6392 9.10645C19.1528 8.55713 20.0928 8.75244 20.3247 9.64355L10.3271 14.9414C9.98535 15.1245 9.96094 15.3076 9.96094 15.8081C9.96094 17.1509 8.89893 18.2129 7.56836 18.2129ZM7.56836 17.2241C8.34961 17.2241 8.98438 16.6016 8.98438 15.8081C8.98438 15.0269 8.34961 14.4043 7.56836 14.4043C6.79932 14.4043 6.16455 15.0269 6.16455 15.8081C6.16455 16.6016 6.79932 17.2241 7.56836 17.2241ZM12.7319 12.6221C12.9883 12.6221 13.2202 12.4146 13.2202 12.146C13.2202 11.8774 12.9883 11.6821 12.7319 11.6821C12.4756 11.6821 12.2559 11.8774 12.2559 12.146C12.2559 12.4146 12.4756 12.6221 12.7319 12.6221ZM11.5234 10.6323C11.1694 10.9009 10.9131 11.2427 10.7422 11.7065L9.66797 11.1572C9.53369 11.084 9.44824 11.0596 9.35059 11.0596C8.8501 11.0596 8.66699 11.499 7.56836 11.499C6.23779 11.499 5.17578 10.4492 5.17578 9.11865C5.17578 7.78809 6.23779 6.71387 7.56836 6.71387C8.89893 6.71387 9.96094 7.77588 9.96094 9.11865C9.96094 9.64355 9.99756 9.80225 10.4004 10.0342ZM7.56836 10.5225C8.34961 10.5225 8.98438 9.8999 8.98438 9.11865C8.98438 8.3252 8.34961 7.70264 7.56836 7.70264C6.79932 7.70264 6.16455 8.3252 6.16455 9.11865C6.16455 9.8999 6.79932 10.5225 7.56836 10.5225ZM13.3301 14.2212L15.8081 12.915L20.3247 15.2954C20.0928 16.1987 19.1406 16.4062 17.6392 15.8325Z" fill="#5ac8f5"/>
 </g>
</svg>
