<?xml version="1.0" encoding="UTF-8"?>
<!--Generator: Apple Native CoreSVG 175.5-->
<!DOCTYPE svg
PUBLIC "-//W3C//DTD SVG 1.1//EN"
       "http://www.w3.org/Graphics/SVG/1.1/DTD/svg11.dtd">
<svg version="1.1" xmlns="http://www.w3.org/2000/svg" xmlns:xlink="http://www.w3.org/1999/xlink" width="27.1095" height="27.6489">
 <g>
  <rect height="27.6489" opacity="0" width="27.1095" x="0" y="0"/>
  <path d="M5.20137 25.6836C5.70186 26.0742 6.33662 25.9399 7.09346 25.3906L13.551 20.6421L20.0207 25.3906C20.7775 25.9399 21.4001 26.0742 21.9128 25.6836C22.4133 25.3052 22.5231 24.6826 22.218 23.7915L19.6667 16.1987L26.1853 11.5112C26.9421 10.9741 27.2473 10.4126 27.052 9.80225C26.8566 9.21631 26.2829 8.92334 25.343 8.93555L17.3474 8.98438L14.9182 1.35498C14.6252 0.45166 14.1857 0 13.551 0C12.9284 0 12.489 0.45166 12.196 1.35498L9.7668 8.98438L1.77119 8.93555C0.831251 8.92334 0.257521 9.21631 0.0622084 9.80225C-0.145311 10.4126 0.172072 10.9741 0.928908 11.5112L7.44746 16.1987L4.89619 23.7915C4.59102 24.6826 4.70088 25.3052 5.20137 25.6836ZM13.551 18.5425L13.551 2.96631C13.5876 2.96631 13.612 2.99072 13.6242 3.06396L15.7482 10.1318C15.9069 10.6323 16.2243 10.8398 16.7248 10.8276L24.1101 10.6934C24.1833 10.6934 24.2077 10.6934 24.2199 10.73C24.2321 10.7666 24.2077 10.791 24.1589 10.8276L18.0798 15.0269C17.6525 15.3198 17.5549 15.6982 17.7258 16.1743L20.155 23.1567C20.1672 23.23 20.1794 23.2422 20.155 23.2666C20.1306 23.3032 20.0939 23.2788 20.0451 23.2422L14.1735 18.7622C13.9782 18.6157 13.7707 18.5303 13.551 18.5425Z" fill="#5ac8f5"/>
 </g>
</svg>
