<?xml version="1.0" encoding="UTF-8"?>
<!--Generator: Apple Native CoreSVG 175.5-->
<!DOCTYPE svg
PUBLIC "-//W3C//DTD SVG 1.1//EN"
       "http://www.w3.org/Graphics/SVG/1.1/DTD/svg11.dtd">
<svg version="1.1" xmlns="http://www.w3.org/2000/svg" xmlns:xlink="http://www.w3.org/1999/xlink" width="24.6216" height="26.7456">
 <g>
  <rect height="26.7456" opacity="0" width="24.6216" x="0" y="0"/>
  <path d="M12.3169 2.90527C13.1226 2.90527 13.7573 2.2583 13.7573 1.45264C13.7573 0.646973 13.1226 0 12.3169 0C11.499 0 10.8643 0.646973 10.8643 1.45264C10.8643 2.2583 11.499 2.90527 12.3169 2.90527ZM12.3169 8.56934C13.1226 8.56934 13.7573 7.93457 13.7573 7.12891C13.7573 6.31104 13.1226 5.67627 12.3169 5.67627C11.499 5.67627 10.8643 6.31104 10.8643 7.12891C10.8643 7.93457 11.499 8.56934 12.3169 8.56934ZM12.3169 14.2578C13.1226 14.2578 13.7573 13.6108 13.7573 12.8052C13.7573 11.9995 13.1226 11.3525 12.3169 11.3525C11.499 11.3525 10.8643 11.9995 10.8643 12.8052C10.8643 13.6108 11.499 14.2578 12.3169 14.2578ZM3.78418 7.92236C4.58984 7.92236 5.23682 7.2876 5.23682 6.46973C5.23682 5.66406 4.58984 5.0293 3.78418 5.0293C2.97852 5.0293 2.33154 5.66406 2.33154 6.46973C2.33154 7.2876 2.97852 7.92236 3.78418 7.92236ZM1.45264 13.5132C2.2583 13.5132 2.89307 12.8784 2.89307 12.0728C2.89307 11.2671 2.2583 10.6201 1.45264 10.6201C0.646973 10.6201 0 11.2671 0 12.0728C0 12.8784 0.634766 13.5132 1.45264 13.5132ZM2.38037 19.2017C3.18604 19.2017 3.83301 18.5669 3.83301 17.7612C3.83301 16.9556 3.18604 16.3086 2.38037 16.3086C1.57471 16.3086 0.927734 16.9556 0.927734 17.7612C0.927734 18.5669 1.57471 19.2017 2.38037 19.2017ZM6.28662 23.9014C7.09229 23.9014 7.73926 23.2666 7.73926 22.4609C7.73926 21.6553 7.09229 21.0083 6.28662 21.0083C5.48096 21.0083 4.83398 21.6553 4.83398 22.4609C4.83398 23.2666 5.48096 23.9014 6.28662 23.9014ZM12.3169 25.6958C13.1226 25.6958 13.7573 25.0488 13.7573 24.2432C13.7573 23.4375 13.1226 22.7905 12.3169 22.7905C11.499 22.7905 10.8643 23.4375 10.8643 24.2432C10.8643 25.0488 11.499 25.6958 12.3169 25.6958ZM18.335 23.9014C19.1406 23.9014 19.7876 23.2666 19.7876 22.4609C19.7876 21.6553 19.1406 21.0083 18.335 21.0083C17.5293 21.0083 16.8945 21.6553 16.8945 22.4609C16.8945 23.2666 17.5293 23.9014 18.335 23.9014ZM22.2412 19.2017C23.0469 19.2017 23.6938 18.5669 23.6938 17.7612C23.6938 16.9556 23.0469 16.3086 22.2412 16.3086C21.4355 16.3086 20.7886 16.9556 20.7886 17.7612C20.7886 18.5669 21.4355 19.2017 22.2412 19.2017ZM23.1812 13.5132C23.9868 13.5132 24.6216 12.8784 24.6216 12.0728C24.6216 11.2671 23.9746 10.6201 23.1689 10.6201C22.3633 10.6201 21.7285 11.2671 21.7285 12.0728C21.7285 12.8784 22.3633 13.5132 23.1812 13.5132ZM20.8374 7.92236C21.6431 7.92236 22.29 7.2876 22.29 6.46973C22.29 5.66406 21.6431 5.0293 20.8374 5.0293C20.0317 5.0293 19.3848 5.66406 19.3848 6.46973C19.3848 7.2876 20.0317 7.92236 20.8374 7.92236Z" fill="#5ac8f5"/>
 </g>
</svg>
