<?xml version="1.0" encoding="UTF-8"?>
<!--Generator: Apple Native CoreSVG 175.5-->
<!DOCTYPE svg
PUBLIC "-//W3C//DTD SVG 1.1//EN"
       "http://www.w3.org/Graphics/SVG/1.1/DTD/svg11.dtd">
<svg version="1.1" xmlns="http://www.w3.org/2000/svg" xmlns:xlink="http://www.w3.org/1999/xlink" width="24.9023" height="24.9146">
 <g>
  <rect height="24.9146" opacity="0" width="24.9023" x="0" y="0"/>
  <path d="M12.4512 24.9023C19.2627 24.9023 24.9023 19.2505 24.9023 12.4512C24.9023 5.63965 19.2505 0 12.439 0C5.63965 0 0 5.63965 0 12.4512C0 19.2505 5.65186 24.9023 12.4512 24.9023ZM12.4512 22.8271C6.68945 22.8271 2.0874 18.2129 2.0874 12.4512C2.0874 6.68945 6.67725 2.0752 12.439 2.0752C18.2007 2.0752 22.8271 6.68945 22.8271 12.4512C22.8271 18.2129 18.2129 22.8271 12.4512 22.8271ZM15.3198 19.8975C15.7104 19.8975 16.0767 19.6411 16.0767 19.1772C16.0767 18.9941 16.04 18.8354 15.9424 18.6401L14.502 15.6982C14.3433 15.3931 14.1968 15.1855 14.0747 15.0146L13.208 13.7817L13.2812 13.5742C13.5376 12.8296 13.6597 12.3413 13.7085 11.6089L13.8428 9.65576C13.916 8.60596 13.3301 7.75146 12.1704 7.75146C11.4014 7.75146 10.7178 8.12988 9.97314 8.8501L8.8501 9.93652C8.47168 10.3027 8.37402 10.5957 8.3252 11.0596L8.19092 12.6953C8.14209 13.1836 8.42285 13.501 8.87451 13.5376C9.27734 13.562 9.58252 13.3179 9.63135 12.793L9.77783 11.0352L10.376 10.5103C10.5591 10.3516 10.7788 10.4492 10.7544 10.7178L10.6445 12.207C10.5835 13.0249 10.9741 13.6108 11.377 14.1113L12.793 15.8813C12.915 16.04 12.9395 16.1011 13.0127 16.2354L14.5752 19.397C14.7339 19.7388 14.9902 19.8975 15.3198 19.8975ZM8.6792 19.8975C8.91113 19.8975 9.13086 19.812 9.26514 19.6411L11.499 16.98C11.7432 16.687 11.7798 16.6748 11.8408 16.4062L11.9629 15.8813L10.73 14.3433L10.376 16.0645L8.31299 18.5059C8.14209 18.7012 7.9834 18.8965 7.9834 19.1895C7.9834 19.6289 8.27637 19.8975 8.6792 19.8975ZM15.7227 12.0361L17.4561 12.0361C17.9688 12.0361 18.2617 11.7554 18.2617 11.3037C18.2617 10.8765 17.9688 10.5835 17.4561 10.5835L15.625 10.5835L14.4775 9.31396L14.3433 11.2183L14.8438 11.7188C15.1001 11.9751 15.3076 12.0361 15.7227 12.0361ZM13.0859 7.17773C13.9648 7.17773 14.6851 6.45752 14.6851 5.60303C14.6851 4.71191 13.9648 4.01611 13.0859 4.01611C12.207 4.01611 11.5112 4.71191 11.5112 5.60303C11.5112 6.45752 12.207 7.17773 13.0859 7.17773Z" fill="#5ac8f5"/>
 </g>
</svg>
