<?xml version="1.0" encoding="UTF-8"?>
<!--Generator: Apple Native CoreSVG 175.5-->
<!DOCTYPE svg
PUBLIC "-//W3C//DTD SVG 1.1//EN"
       "http://www.w3.org/Graphics/SVG/1.1/DTD/svg11.dtd">
<svg version="1.1" xmlns="http://www.w3.org/2000/svg" xmlns:xlink="http://www.w3.org/1999/xlink" width="24.9023" height="24.9146">
 <g>
  <rect height="24.9146" opacity="0" width="24.9023" x="0" y="0"/>
  <path d="M12.4512 24.9146C19.2627 24.9146 24.9023 19.2749 24.9023 12.4634C24.9023 5.66406 19.2505 0.012207 12.439 0.012207C5.63965 0.012207 0 5.66406 0 12.4634C0 19.2749 5.65186 24.9146 12.4512 24.9146ZM8.72803 19.1406C8.31299 19.1406 8.04443 18.8354 8.04443 18.335L8.04443 7.72705C8.04443 6.50635 8.6792 5.85938 9.8999 5.85938L15.0024 5.85938C16.2231 5.85938 16.8579 6.50635 16.8579 7.72705L16.8579 18.335C16.8579 18.8354 16.5894 19.1406 16.1743 19.1406C15.8447 19.1406 15.6616 18.9453 15.0879 18.3838L12.5122 15.8569C12.4756 15.8203 12.4268 15.8203 12.3901 15.8569L9.82666 18.3838C9.24072 18.9453 9.05762 19.1406 8.72803 19.1406Z" fill="#5ac8f5"/>
 </g>
</svg>
