<?xml version="1.0" encoding="UTF-8"?>
<!--Generator: Apple Native CoreSVG 175.5-->
<!DOCTYPE svg
PUBLIC "-//W3C//DTD SVG 1.1//EN"
       "http://www.w3.org/Graphics/SVG/1.1/DTD/svg11.dtd">
<svg version="1.1" xmlns="http://www.w3.org/2000/svg" xmlns:xlink="http://www.w3.org/1999/xlink" width="24.9023" height="24.9146">
 <g>
  <rect height="24.9146" opacity="0" width="24.9023" x="0" y="0"/>
  <path d="M12.4512 24.9023C19.2627 24.9023 24.9023 19.2505 24.9023 12.4512C24.9023 5.63965 19.2505 0 12.439 0C5.63965 0 0 5.63965 0 12.4512C0 19.2505 5.65186 24.9023 12.4512 24.9023ZM12.4512 22.8271C6.68945 22.8271 2.0874 18.2129 2.0874 12.4512C2.0874 6.68945 6.67725 2.0752 12.439 2.0752C18.2007 2.0752 22.8271 6.68945 22.8271 12.4512C22.8271 18.2129 18.2129 22.8271 12.4512 22.8271ZM9.65576 7.88574C9.65576 9.11865 10.4736 10.1685 11.5967 10.5225L11.5967 16.6626C11.5967 18.4448 11.8896 20.0317 12.439 20.0317C13.0005 20.0317 13.269 18.4692 13.269 16.6626L13.269 10.5225C14.4043 10.1807 15.2222 9.13086 15.2222 7.88574C15.2222 6.34766 13.9771 5.10254 12.439 5.10254C10.9131 5.10254 9.65576 6.34766 9.65576 7.88574ZM10.8398 7.16553C10.8276 6.68945 11.2549 6.27441 11.7188 6.27441C12.207 6.27441 12.6099 6.68945 12.6099 7.16553C12.6099 7.6416 12.207 8.05664 11.7188 8.05664C11.2549 8.05664 10.8398 7.6416 10.8398 7.16553Z" fill="#5ac8f5"/>
 </g>
</svg>
