<?xml version="1.0" encoding="UTF-8"?>
<!--Generator: Apple Native CoreSVG 175.5-->
<!DOCTYPE svg
PUBLIC "-//W3C//DTD SVG 1.1//EN"
       "http://www.w3.org/Graphics/SVG/1.1/DTD/svg11.dtd">
<svg version="1.1" xmlns="http://www.w3.org/2000/svg" xmlns:xlink="http://www.w3.org/1999/xlink" width="25.5859" height="23.3276">
 <g>
  <rect height="23.3276" opacity="0" width="25.5859" x="0" y="0"/>
  <path d="M3.33252 23.1934L22.2534 23.1934C24.3286 23.1934 25.5859 21.7529 25.5859 19.8853C25.5859 19.3115 25.415 18.7134 25.1099 18.1763L15.6372 1.67236C15.0024 0.561523 13.916 0 12.793 0C11.6699 0 10.5713 0.561523 9.94873 1.67236L0.476074 18.1763C0.146484 18.7256 0 19.3115 0 19.8853C0 21.7529 1.25732 23.1934 3.33252 23.1934Z" fill="#5ac8f5" fill-opacity="0.25"/>
  <path d="M12.8052 15.0391C12.1704 15.0391 11.8164 14.6729 11.8042 14.0259L11.6455 7.38525C11.6333 6.73828 12.1094 6.27441 12.793 6.27441C13.4521 6.27441 13.9648 6.75049 13.9526 7.39746L13.7695 14.0259C13.7573 14.6851 13.4033 15.0391 12.8052 15.0391ZM12.8052 19.1284C12.0728 19.1284 11.438 18.5425 11.438 17.8223C11.438 17.0898 12.0605 16.5039 12.8052 16.5039C13.5376 16.5039 14.1602 17.0776 14.1602 17.8223C14.1602 18.5547 13.5254 19.1284 12.8052 19.1284Z" fill="#5ac8f5"/>
 </g>
</svg>
