<?xml version="1.0" encoding="UTF-8"?>
<!--Generator: Apple Native CoreSVG 175.5-->
<!DOCTYPE svg
PUBLIC "-//W3C//DTD SVG 1.1//EN"
       "http://www.w3.org/Graphics/SVG/1.1/DTD/svg11.dtd">
<svg version="1.1" xmlns="http://www.w3.org/2000/svg" xmlns:xlink="http://www.w3.org/1999/xlink" width="28.5034" height="23.1567">
 <g>
  <rect height="23.1567" opacity="0" width="28.5034" x="0" y="0"/>
  <path d="M19.2627 16.6138L20.9961 18.5791L25.8667 18.5791C27.5635 18.5791 28.5034 17.6392 28.5034 15.9668L28.5034 2.62451C28.5034 0.964355 27.5635 0 25.8667 0L2.62451 0C0.976562 0 0 1.00098 0 2.62451L0 15.9668C0 17.6392 0.927734 18.5791 2.62451 18.5791L7.61719 18.5791L9.35059 16.6138L2.92969 16.6138C2.35596 16.6138 2.0752 16.3208 2.0752 15.7471L2.0752 2.84424C2.0752 2.27051 2.35596 1.96533 2.92969 1.96533L25.5615 1.96533C26.1353 1.96533 26.4282 2.27051 26.4282 2.84424L26.4282 15.7471C26.4282 16.3208 26.1353 16.6138 25.5615 16.6138ZM21.7041 23.1323C22.2778 23.1323 22.4976 22.5464 22.1313 22.1313L14.7705 13.7939C14.4897 13.4766 14.0015 13.4766 13.7207 13.7939L6.35986 22.1313C5.99365 22.5464 6.21338 23.1323 6.78711 23.1323Z" fill="#5ac8f5"/>
 </g>
</svg>
