<?xml version="1.0" encoding="UTF-8"?>
<!--Generator: Apple Native CoreSVG 175.5-->
<!DOCTYPE svg
PUBLIC "-//W3C//DTD SVG 1.1//EN"
       "http://www.w3.org/Graphics/SVG/1.1/DTD/svg11.dtd">
<svg version="1.1" xmlns="http://www.w3.org/2000/svg" xmlns:xlink="http://www.w3.org/1999/xlink" width="24.9023" height="24.9146">
 <g>
  <rect height="24.9146" opacity="0" width="24.9023" x="0" y="0"/>
  <path d="M12.4512 8.27637C11.5723 8.27637 10.8398 7.54395 10.8398 6.66504C10.8398 5.78613 11.5723 5.05371 12.4512 5.05371C13.3301 5.05371 14.0625 5.78613 14.0625 6.66504C14.0625 7.54395 13.3301 8.27637 12.4512 8.27637ZM6.93359 14.917C5.62744 14.917 4.56543 13.8428 4.56543 12.5366C4.56543 11.2305 5.62744 10.1562 6.93359 10.1562C8.26416 10.1562 9.31396 11.2305 9.31396 12.5366C9.31396 13.8428 8.26416 14.917 6.93359 14.917ZM17.9688 14.917C16.6382 14.917 15.5884 13.8428 15.5884 12.5366C15.5884 11.2305 16.6382 10.1562 17.9688 10.1562C19.2749 10.1562 20.3369 11.2305 20.3369 12.5366C20.3369 13.8428 19.2749 14.917 17.9688 14.917ZM12.4512 24.9023C19.2627 24.9023 24.9023 19.2505 24.9023 12.4512C24.9023 5.63965 19.2505 0 12.439 0C5.63965 0 0 5.63965 0 12.4512C0 19.2505 5.65186 24.9023 12.4512 24.9023Z" fill="#5ac8f5"/>
 </g>
</svg>
