<?xml version="1.0" encoding="UTF-8"?>
<!--Generator: Apple Native CoreSVG 175.5-->
<!DOCTYPE svg
PUBLIC "-//W3C//DTD SVG 1.1//EN"
       "http://www.w3.org/Graphics/SVG/1.1/DTD/svg11.dtd">
<svg version="1.1" xmlns="http://www.w3.org/2000/svg" xmlns:xlink="http://www.w3.org/1999/xlink" width="24.9023" height="24.9146">
 <g>
  <rect height="24.9146" opacity="0" width="24.9023" x="0" y="0"/>
  <path d="M12.4512 24.9146C19.2627 24.9146 24.9023 19.2749 24.9023 12.4634C24.9023 5.66406 19.2505 0.012207 12.439 0.012207C5.63965 0.012207 0 5.66406 0 12.4634C0 19.2749 5.65186 24.9146 12.4512 24.9146ZM15.3564 17.5293C14.4653 17.8101 13.4766 17.9932 12.4512 17.9932C7.31201 17.9932 3.6377 13.7817 3.6377 12.4756C3.6377 11.7432 4.77295 10.1318 6.65283 8.82568L9.04541 11.2427C8.89893 11.6211 8.82568 12.0361 8.82568 12.4756C8.82568 14.4409 10.437 16.0889 12.4512 16.0889C12.8906 16.0889 13.2935 16.0034 13.6719 15.8569ZM12.1704 14.3555C11.2671 14.3677 10.5225 13.5742 10.5469 12.7441ZM15.8447 13.6963C15.9912 13.3057 16.0767 12.9028 16.0767 12.4756C16.0767 10.4614 14.4531 8.8623 12.4512 8.8623C12.0239 8.8623 11.6089 8.93555 11.2305 9.06982L9.57031 7.40967C10.4614 7.12891 11.4258 6.95801 12.4512 6.95801C17.6392 6.95801 21.2524 11.1572 21.2524 12.4756C21.2524 13.1958 20.1294 14.8193 18.2617 16.1133ZM12.7319 10.5713C13.623 10.5713 14.3311 11.3403 14.3311 12.1704ZM18.3716 19.2017L5.67627 6.53076C5.46875 6.29883 5.46875 5.93262 5.67627 5.71289C5.92041 5.48096 6.27441 5.48096 6.50635 5.71289L19.1895 18.3838C19.4092 18.6157 19.4092 18.9697 19.1895 19.2017C18.9697 19.4214 18.5913 19.4092 18.3716 19.2017Z" fill="#5ac8f5"/>
 </g>
</svg>
