<?xml version="1.0" encoding="UTF-8"?>
<!--Generator: Apple Native CoreSVG 175.5-->
<!DOCTYPE svg
PUBLIC "-//W3C//DTD SVG 1.1//EN"
       "http://www.w3.org/Graphics/SVG/1.1/DTD/svg11.dtd">
<svg version="1.1" xmlns="http://www.w3.org/2000/svg" xmlns:xlink="http://www.w3.org/1999/xlink" width="31.2866" height="23.1567">
 <g>
  <rect height="23.1567" opacity="0" width="31.2866" x="0" y="0"/>
  <path d="M20.6421 5.33447C22.1191 5.33447 23.3154 4.13818 23.3154 2.66113C23.3154 1.18408 22.1191 0 20.6421 0C19.165 0 17.981 1.18408 17.981 2.66113C17.981 4.13818 19.165 5.33447 20.6421 5.33447ZM11.6699 22.8516C12.146 23.1201 12.9517 23.0103 13.3057 22.3022L16.3696 16.2109C16.6016 15.7349 16.5283 15.1733 16.1377 14.7949L12.4512 11.0962L17.1021 8.76465C17.334 8.64258 17.5903 8.70361 17.7612 8.87451L20.1538 11.2793L20.1538 16.272C20.1538 16.9434 20.7153 17.4927 21.3867 17.4927C22.0581 17.4927 22.6074 16.9434 22.6074 16.272L22.6074 10.7788C22.6074 10.4492 22.5342 10.1562 22.2534 9.8999L16.7358 4.40674C16.1133 3.78418 15.2954 3.45459 14.4165 3.45459L9.729 3.45459C8.5083 3.45459 8.1543 4.78516 8.89893 5.51758L10.3638 6.97021L9.76562 7.21436C7.54395 8.12988 6.89697 11.0474 8.99658 12.5732L13.7207 16.04L11.1328 21.2158C10.8276 21.814 11.0718 22.5342 11.6699 22.8516ZM1.2207 18.1152L7.33643 18.1152C7.82471 18.1152 8.21533 17.8101 8.41064 17.4316L9.80225 14.6362L8.30078 13.5254C7.95898 13.2812 7.66602 13.0005 7.43408 12.7075L6.44531 15.6616L1.2207 15.6616C0.549316 15.6616 0 16.2109 0 16.8945C0 17.5659 0.549316 18.1152 1.2207 18.1152ZM26.9531 22.4487L30.6274 22.4487C30.9814 22.4487 31.2866 22.1436 31.2866 21.7773L31.2866 21.167C31.2866 20.7886 30.9814 20.4834 30.6274 20.4834L26.5625 20.4834L14.7095 8.64258L13.501 9.33838L26.355 22.1924C26.5747 22.4121 26.7212 22.4487 26.9531 22.4487Z" fill="#5ac8f5"/>
 </g>
</svg>
