<?xml version="1.0" encoding="UTF-8"?>
<!--Generator: Apple Native CoreSVG 175.5-->
<!DOCTYPE svg
PUBLIC "-//W3C//DTD SVG 1.1//EN"
       "http://www.w3.org/Graphics/SVG/1.1/DTD/svg11.dtd">
<svg version="1.1" xmlns="http://www.w3.org/2000/svg" xmlns:xlink="http://www.w3.org/1999/xlink" width="24.9023" height="24.9146">
 <g>
  <rect height="24.9146" opacity="0" width="24.9023" x="0" y="0"/>
  <path d="M12.4512 24.9146C19.2627 24.9146 24.9023 19.2749 24.9023 12.4634C24.9023 5.66406 19.2505 0.012207 12.439 0.012207C5.63965 0.012207 0 5.66406 0 12.4634C0 19.2749 5.65186 24.9146 12.4512 24.9146ZM6.51855 15.8447C5.0293 15.8447 4.02832 14.8804 4.02832 13.5498C4.02832 12.4878 4.69971 11.6577 5.63965 11.3281C5.85938 9.43604 7.4707 7.94678 9.375 7.94678C10.8276 7.94678 12.0239 8.74023 12.6953 9.99756C14.4531 10.0342 15.7593 11.2793 15.7593 12.9028C15.7593 14.563 14.4653 15.8447 12.7686 15.8447ZM11.5479 7.44629L10.6567 6.54297C10.4492 6.31104 10.4492 5.93262 10.6567 5.7251C10.8887 5.52979 11.2427 5.51758 11.4746 5.7373L12.3779 6.62842C12.5977 6.84814 12.5732 7.21436 12.3779 7.43408C12.1582 7.6416 11.7798 7.66602 11.5479 7.44629ZM14.9414 6.35986C14.6362 6.35986 14.3677 6.09131 14.3677 5.78613L14.3677 4.52881C14.3677 4.21143 14.6362 3.95508 14.9414 3.95508C15.271 3.95508 15.5273 4.21143 15.5273 4.52881L15.5273 5.78613C15.5273 6.09131 15.271 6.35986 14.9414 6.35986ZM17.5293 7.43408C17.334 7.21436 17.3096 6.83594 17.5293 6.62842L18.4326 5.7373C18.6646 5.50537 19.0186 5.52979 19.2383 5.7373C19.4458 5.94482 19.458 6.32324 19.2383 6.54297L18.3594 7.44629C18.1396 7.66602 17.749 7.6416 17.5293 7.43408ZM19.1772 10.5835C18.8843 10.5835 18.6157 10.3271 18.6157 10.022C18.6157 9.69238 18.8843 9.43604 19.1772 9.43604L20.4224 9.43604C20.752 9.43604 21.0083 9.69238 21.0083 10.022C21.0083 10.3271 20.752 10.5835 20.4224 10.5835ZM18.4326 14.3188L17.5293 13.4277C17.3096 13.2202 17.334 12.8296 17.5293 12.6099C17.7612 12.4023 18.1396 12.4023 18.3594 12.6099L19.2383 13.4888C19.458 13.7085 19.4458 14.0869 19.2383 14.3066C19.0186 14.5142 18.6646 14.5508 18.4326 14.3188ZM17.8955 10.022C17.8955 10.9985 17.4072 11.8896 16.6016 12.4634C16.4185 10.7056 15.0269 9.39941 13.2202 9.16748C13.0127 8.8623 12.8052 8.59375 12.5366 8.34961C13.0493 7.58057 13.9526 7.08008 14.9414 7.08008C16.5894 7.08008 17.8955 8.37402 17.8955 10.022ZM8.11768 18.6401L8.95996 16.7114C9.021 16.5771 9.09424 16.5283 9.28955 16.5283L10.6567 16.5283C10.8032 16.5283 10.8643 16.6382 10.791 16.7847L10.1807 17.9321L11.4624 17.9321C11.6455 17.9321 11.7065 18.103 11.5723 18.2617L8.77686 21.0938C8.65479 21.2158 8.47168 21.1182 8.53271 20.9595L9.375 18.9087L8.28857 18.9087C8.11768 18.9087 8.05664 18.7988 8.11768 18.6401Z" fill="#5ac8f5"/>
 </g>
</svg>
