<?xml version="1.0" encoding="UTF-8"?>
<!--Generator: Apple Native CoreSVG 175.5-->
<!DOCTYPE svg
PUBLIC "-//W3C//DTD SVG 1.1//EN"
       "http://www.w3.org/Graphics/SVG/1.1/DTD/svg11.dtd">
<svg version="1.1" xmlns="http://www.w3.org/2000/svg" xmlns:xlink="http://www.w3.org/1999/xlink" width="16.748" height="22.6196">
 <g>
  <rect height="22.6196" opacity="0" width="16.748" x="0" y="0"/>
  <path d="M8.37402 22.6074C9.05762 22.6074 9.52148 22.1191 9.52148 21.4233L9.52148 13.0493L16.5039 1.79443C16.687 1.51367 16.748 1.29395 16.748 1.02539C16.748 0.439453 16.2598 0 15.6128 0C15.1733 0 14.8315 0.183105 14.5874 0.610352L8.42285 10.9375L8.3374 10.9375L2.17285 0.610352C1.9165 0.183105 1.57471 0 1.13525 0C0.500488 0 0 0.439453 0 1.02539C0 1.29395 0.0732422 1.51367 0.244141 1.79443L7.23877 13.0493L7.23877 21.4233C7.23877 22.1191 7.70264 22.6074 8.37402 22.6074ZM2.51465 13.3301L14.3433 13.3301C14.8071 13.3301 15.1123 12.9883 15.1123 12.5366C15.1123 12.085 14.8071 11.7432 14.3433 11.7432L2.51465 11.7432C2.05078 11.7432 1.74561 12.085 1.74561 12.5366C1.74561 12.9883 2.05078 13.3301 2.51465 13.3301ZM2.51465 17.5171L14.3433 17.5171C14.8071 17.5171 15.1123 17.1753 15.1123 16.7236C15.1123 16.272 14.8193 15.918 14.3433 15.918L2.51465 15.918C2.05078 15.918 1.74561 16.272 1.74561 16.7236C1.74561 17.1631 2.05078 17.5171 2.51465 17.5171Z" fill="#5ac8f5"/>
 </g>
</svg>
