<?xml version="1.0" encoding="UTF-8"?>
<!--Generator: Apple Native CoreSVG 175.5-->
<!DOCTYPE svg
PUBLIC "-//W3C//DTD SVG 1.1//EN"
       "http://www.w3.org/Graphics/SVG/1.1/DTD/svg11.dtd">
<svg version="1.1" xmlns="http://www.w3.org/2000/svg" xmlns:xlink="http://www.w3.org/1999/xlink" width="24.9023" height="24.9146">
 <g>
  <rect height="24.9146" opacity="0" width="24.9023" x="0" y="0"/>
  <path d="M12.4512 24.9146C19.2627 24.9146 24.9023 19.2749 24.9023 12.4634C24.9023 5.66406 19.2505 0.012207 12.439 0.012207C5.63965 0.012207 0 5.66406 0 12.4634C0 19.2749 5.65186 24.9146 12.4512 24.9146ZM12.4512 22.4731C6.89697 22.4731 2.44141 18.0176 2.44141 12.4512C2.44141 6.87256 6.88477 2.4292 12.439 2.4292C18.0054 2.4292 22.4609 6.87256 22.4731 12.4512C22.4854 18.0054 18.0176 22.4731 12.4512 22.4731ZM12.4512 21.3623C17.4072 21.3623 21.3745 17.3828 21.3623 12.4512C21.3501 7.48291 17.3828 3.54004 12.439 3.54004C7.49512 3.54004 3.55225 7.49512 3.55225 12.4512C3.55225 17.395 7.50732 21.3623 12.4512 21.3623ZM12.561 15.8447C11.8652 15.8447 11.6211 16.2231 11.0596 16.2231C10.4736 16.2231 10.0952 15.7104 9.63135 15.0757C9.11865 14.3188 8.6792 13.1592 8.6792 12.0483C8.6792 10.2905 9.83887 9.33838 10.9741 9.33838C11.5723 9.33838 12.0728 9.74121 12.439 9.74121C12.8052 9.74121 13.3667 9.32617 14.0503 9.32617C14.3188 9.32617 15.2466 9.33838 15.8569 10.2173C15.8081 10.2783 14.8804 10.791 14.8804 11.9629C14.8804 13.3179 16.0645 13.7939 16.1011 13.8062C16.1011 13.8306 15.918 14.4653 15.4785 15.1001C15.0879 15.6494 14.6606 16.2109 14.0503 16.2109C13.4277 16.2109 13.2812 15.8447 12.561 15.8447ZM13.7329 8.56934C13.4277 8.94775 12.915 9.22852 12.5 9.22852C12.439 9.22852 12.4023 9.21631 12.3657 9.21631C12.3657 9.19189 12.3535 9.11865 12.3535 9.05762C12.3535 8.56934 12.6099 8.11768 12.854 7.8125C13.1958 7.42188 13.7329 7.14111 14.1968 7.12891C14.209 7.17773 14.209 7.23877 14.209 7.2998C14.209 7.77588 14.0137 8.22754 13.7329 8.56934Z" fill="#5ac8f5"/>
 </g>
</svg>
