<?xml version="1.0" encoding="UTF-8"?>
<!--Generator: Apple Native CoreSVG 175.5-->
<!DOCTYPE svg
PUBLIC "-//W3C//DTD SVG 1.1//EN"
       "http://www.w3.org/Graphics/SVG/1.1/DTD/svg11.dtd">
<svg version="1.1" xmlns="http://www.w3.org/2000/svg" xmlns:xlink="http://www.w3.org/1999/xlink" width="22.0215" height="25.7202">
 <g>
  <rect height="25.7202" opacity="0" width="22.0215" x="0" y="0"/>
  <path d="M10.022 4.35791L11.9873 4.35791L11.9873 0.98877C11.9873 0.45166 11.5479 0 11.0107 0C10.4736 0 10.022 0.45166 10.022 0.98877ZM0 13.0127C0 14.6484 0.927734 15.564 2.58789 15.564L19.4336 15.564C21.0938 15.564 22.0215 14.6484 22.0215 13.0127L22.0215 5.48096C22.0215 3.84521 21.0938 2.94189 19.4336 2.94189L2.58789 2.94189C0.927734 2.94189 0 3.84521 0 5.48096ZM2.63672 4.90723L19.3848 4.90723C19.7632 4.90723 20.0073 5.15137 20.0073 5.54199L20.0073 12.9517C20.0073 13.3423 19.7632 13.5986 19.3848 13.5986L2.63672 13.5986C2.2583 13.5986 2.01416 13.3423 2.01416 12.9517L2.01416 5.54199C2.01416 5.15137 2.2583 4.90723 2.63672 4.90723ZM10.022 14.8682L10.022 25.6348L11.9873 25.6348L11.9873 14.8682ZM5.32227 24.7192C5.32227 25.2563 5.77393 25.6958 6.31104 25.6958L15.7104 25.6958C16.2598 25.6958 16.6992 25.2563 16.6992 24.7192C16.6992 24.1821 16.2598 23.7305 15.7104 23.7305L6.31104 23.7305C5.77393 23.7305 5.32227 24.1821 5.32227 24.7192Z" fill="#5ac8f5" fill-opacity="0.5"/>
  <path d="M8.1665 11.9019L13.8794 11.9019C14.7339 11.9019 14.978 11.2915 14.502 10.6201L11.7188 6.64062C11.3159 6.0791 10.7178 6.0791 10.3271 6.64062L7.54395 10.6079C7.04346 11.3037 7.27539 11.9019 8.1665 11.9019Z" fill="#5ac8f5"/>
 </g>
</svg>
