<?xml version="1.0" encoding="UTF-8"?>
<!--Generator: Apple Native CoreSVG 175.5-->
<!DOCTYPE svg
PUBLIC "-//W3C//DTD SVG 1.1//EN"
       "http://www.w3.org/Graphics/SVG/1.1/DTD/svg11.dtd">
<svg version="1.1" xmlns="http://www.w3.org/2000/svg" xmlns:xlink="http://www.w3.org/1999/xlink" width="24.9023" height="24.9146">
 <g>
  <rect height="24.9146" opacity="0" width="24.9023" x="0" y="0"/>
  <path d="M13.562 20.0195C14.624 20.0195 15.271 19.043 15.271 16.748C15.271 14.8315 17.3828 13.147 18.1763 13.147C19.2749 13.147 19.519 16.6748 23.1079 16.8213C23.584 15.3931 23.9258 13.916 23.9014 12.4512C23.7915 5.60303 18.0786 0.793457 12.4268 0.866699C10.2051 0.891113 8.05664 1.61133 6.12793 3.02734C6.81152 4.00391 6.9458 4.08936 6.9458 4.45557C6.9458 4.90723 6.06689 5.05371 5.92041 5.84717C5.82275 6.33545 5.48096 6.68945 5.06592 6.68945C4.60205 6.68945 3.96729 6.21338 3.8208 5.00488C1.9165 6.84814 0.976562 9.48486 0.976562 12.4268C0.976562 14.4775 1.51367 16.5161 2.79541 18.4937C4.78516 18.1519 5.43213 17.3706 5.43213 15.8447C5.43213 14.3433 6.61621 14.2944 6.61621 13.0615C6.61621 12.5366 6.09131 12.146 5.07812 11.2915L4.27246 10.6201C4.12598 10.498 4.06494 10.3394 4.06494 10.1685C4.06494 9.85107 4.29688 9.5459 4.65088 9.5459C4.88281 9.5459 5.0293 9.69238 5.63965 10.2173C6.50635 10.9497 6.90918 11.3037 7.39746 11.3037C7.91016 11.3037 8.12988 10.9619 8.47168 10.9619C8.75244 10.9619 8.92334 11.1328 9.04541 11.4624L9.46045 12.5854C9.93652 13.9648 11.0474 13.7817 11.3037 15.2588C11.9019 18.8721 12.439 20.0195 13.562 20.0195ZM12.4512 24.9023C19.2627 24.9023 24.9023 19.2505 24.9023 12.4512C24.9023 5.63965 19.2505 0 12.439 0C5.63965 0 0 5.63965 0 12.4512C0 19.2505 5.65186 24.9023 12.4512 24.9023ZM12.4512 23.2422C6.55518 23.2422 1.66016 18.3472 1.66016 12.4512C1.66016 6.55518 6.54297 1.66016 12.439 1.66016C18.335 1.66016 23.2422 6.55518 23.2422 12.4512C23.2422 18.3472 18.3472 23.2422 12.4512 23.2422Z" fill="#5ac8f5"/>
 </g>
</svg>
