<?xml version="1.0" encoding="UTF-8"?>
<!--Generator: Apple Native CoreSVG 175.5-->
<!DOCTYPE svg
PUBLIC "-//W3C//DTD SVG 1.1//EN"
       "http://www.w3.org/Graphics/SVG/1.1/DTD/svg11.dtd">
<svg version="1.1" xmlns="http://www.w3.org/2000/svg" xmlns:xlink="http://www.w3.org/1999/xlink" width="19.0063" height="25.0122">
 <g>
  <rect height="25.0122" opacity="0" width="19.0063" x="0" y="0"/>
  <path d="M9.49707 25C10.1685 25 10.498 24.5483 11.1938 23.6206L18.4814 13.8916C18.811 13.4399 19.0063 12.9883 19.0063 12.5C19.0063 11.9995 18.811 11.5601 18.4814 11.1084L11.1938 1.36719C10.498 0.45166 10.1685 0 9.49707 0C8.82568 0 8.49609 0.45166 7.8125 1.36719L0.524902 11.1084C0.183105 11.5601 0 11.9995 0 12.5C0 12.9883 0.183105 13.4399 0.524902 13.8916L7.8125 23.6206C8.49609 24.5483 8.82568 25 9.49707 25Z" fill="#5ac8f5"/>
 </g>
</svg>
