<?xml version="1.0" encoding="UTF-8"?>
<!--Generator: Apple Native CoreSVG 175.5-->
<!DOCTYPE svg
PUBLIC "-//W3C//DTD SVG 1.1//EN"
       "http://www.w3.org/Graphics/SVG/1.1/DTD/svg11.dtd">
<svg version="1.1" xmlns="http://www.w3.org/2000/svg" xmlns:xlink="http://www.w3.org/1999/xlink" width="24.9023" height="24.9146">
 <g>
  <rect height="24.9146" opacity="0" width="24.9023" x="0" y="0"/>
  <path d="M12.4512 24.9023C19.2627 24.9023 24.9023 19.2505 24.9023 12.4512C24.9023 5.63965 19.2505 0 12.439 0C5.63965 0 0 5.63965 0 12.4512C0 19.2505 5.65186 24.9023 12.4512 24.9023ZM12.4512 22.8271C6.68945 22.8271 2.0874 18.2129 2.0874 12.4512C2.0874 6.68945 6.67725 2.0752 12.439 2.0752C18.2007 2.0752 22.8271 6.68945 22.8271 12.4512C22.8271 18.2129 18.2129 22.8271 12.4512 22.8271Z" fill="#5ac8f5" fill-opacity="0.5"/>
  <path d="M9.13086 17.5659C9.59473 17.5659 9.8999 17.2607 9.8999 16.7847L9.8999 8.14209C9.8999 7.62939 9.5459 7.26318 9.04541 7.26318C8.64258 7.26318 8.39844 7.38525 7.97119 7.67822L6.11572 8.94775C5.85938 9.13086 5.70068 9.35059 5.70068 9.66797C5.70068 10.083 6.05469 10.4004 6.40869 10.4004C6.604 10.4004 6.71387 10.3882 6.99463 10.1685L8.30078 9.2041L8.37402 9.2041L8.37402 16.7847C8.37402 17.2607 8.6792 17.5659 9.13086 17.5659ZM13.0981 17.4316L18.1519 17.4316C18.5425 17.4316 18.8354 17.1387 18.8354 16.6992C18.8354 16.2476 18.5425 15.9912 18.1519 15.9912L14.5996 15.9912L14.5996 15.9058L17.0044 13.1226C17.8955 12.0728 18.5669 11.1938 18.5669 9.97314C18.5669 8.27637 17.334 7.18994 15.4175 7.18994C13.9648 7.18994 12.6709 8.11768 12.3535 9.36279C12.3291 9.52148 12.2925 9.65576 12.2925 9.80225C12.2925 10.2417 12.561 10.5347 12.9761 10.5347C13.3301 10.5347 13.5132 10.3271 13.6719 9.96094C13.9893 9.04541 14.5996 8.59375 15.4785 8.59375C16.4551 8.59375 17.1021 9.2041 17.1021 10.1074C17.1021 10.9009 16.4551 11.5845 15.8813 12.2681L12.6587 16.0522C12.4634 16.2598 12.3901 16.4673 12.3901 16.7114C12.3901 17.1509 12.6709 17.4316 13.0981 17.4316Z" fill="#5ac8f5"/>
 </g>
</svg>
