<?xml version="1.0" encoding="UTF-8"?>
<!--Generator: Apple Native CoreSVG 175.5-->
<!DOCTYPE svg
PUBLIC "-//W3C//DTD SVG 1.1//EN"
       "http://www.w3.org/Graphics/SVG/1.1/DTD/svg11.dtd">
<svg version="1.1" xmlns="http://www.w3.org/2000/svg" xmlns:xlink="http://www.w3.org/1999/xlink" width="25.8301" height="25.5737">
 <g>
  <rect height="25.5737" opacity="0" width="25.8301" x="0" y="0"/>
  <path d="M9.75342 25.5737L22.0093 25.5737C24.5605 25.5737 25.8301 24.3164 25.8301 21.7896L25.8301 9.43604C25.8301 6.92139 24.5605 5.66406 22.0093 5.66406L18.9087 5.66406L18.9087 7.62939L21.9727 7.62939C23.1934 7.62939 23.8647 8.27637 23.8647 9.5459L23.8647 21.6919C23.8647 22.9614 23.1934 23.6084 21.9727 23.6084L9.77783 23.6084C8.58154 23.6084 7.88574 22.9614 7.88574 21.6919L7.88574 19.0063L5.92041 19.0063L5.92041 21.7896C5.92041 24.3042 7.20215 25.5737 9.75342 25.5737Z" fill="#5ac8f5" fill-opacity="0.5"/>
  <path d="M3.83301 19.9219L16.0889 19.9219C18.6401 19.9219 19.9097 18.6646 19.9097 16.1377L19.9097 3.79639C19.9097 1.26953 18.6401 0.012207 16.0889 0.012207L3.83301 0.012207C1.28174 0.012207 0 1.28174 0 3.79639L0 16.1377C0 18.6523 1.28174 19.9219 3.83301 19.9219ZM3.85742 17.9565C2.66113 17.9565 1.96533 17.3096 1.96533 16.04L1.96533 3.89404C1.96533 2.62451 2.66113 1.97754 3.85742 1.97754L16.0522 1.97754C17.2729 1.97754 17.9443 2.62451 17.9443 3.89404L17.9443 16.04C17.9443 17.3096 17.2729 17.9565 16.0522 17.9565ZM6.11572 15.5518C6.73828 15.5518 7.09229 15.1611 7.09229 14.4775L7.09229 10.437L12.8052 10.437L12.8052 14.4775C12.8052 15.1489 13.1714 15.5518 13.7695 15.5518C14.4043 15.5518 14.7583 15.1611 14.7583 14.4775L14.7583 5.23682C14.7583 4.54102 14.4043 4.15039 13.7695 4.15039C13.1714 4.15039 12.8052 4.55322 12.8052 5.23682L12.8052 8.92334L7.09229 8.92334L7.09229 5.23682C7.09229 4.54102 6.73828 4.15039 6.11572 4.15039C5.50537 4.15039 5.15137 4.55322 5.15137 5.23682L5.15137 14.4775C5.15137 15.1489 5.50537 15.5518 6.11572 15.5518Z" fill="#5ac8f5"/>
 </g>
</svg>
