<?xml version="1.0" encoding="UTF-8"?>
<!--Generator: Apple Native CoreSVG 175.5-->
<!DOCTYPE svg
PUBLIC "-//W3C//DTD SVG 1.1//EN"
       "http://www.w3.org/Graphics/SVG/1.1/DTD/svg11.dtd">
<svg version="1.1" xmlns="http://www.w3.org/2000/svg" xmlns:xlink="http://www.w3.org/1999/xlink" width="24.9023" height="24.9146">
 <g>
  <rect height="24.9146" opacity="0" width="24.9023" x="0" y="0"/>
  <path d="M12.4512 24.9023C19.2627 24.9023 24.9023 19.2505 24.9023 12.4512C24.9023 5.63965 19.2505 0 12.439 0C5.63965 0 0 5.63965 0 12.4512C0 19.2505 5.65186 24.9023 12.4512 24.9023ZM12.4512 22.8271C6.68945 22.8271 2.0874 18.2129 2.0874 12.4512C2.0874 6.68945 6.67725 2.0752 12.439 2.0752C18.2007 2.0752 22.8271 6.68945 22.8271 12.4512C22.8271 18.2129 18.2129 22.8271 12.4512 22.8271Z" fill="#5ac8f5" fill-opacity="0.5"/>
  <path d="M9.15527 18.1641C9.81445 18.1641 10.2539 17.8345 10.4004 17.2241L12.3779 9.52148L12.4634 9.52148L14.4531 17.2241C14.5996 17.8345 15.0391 18.1641 15.686 18.1641C16.333 18.1641 16.748 17.8223 16.9067 17.1997L19.3237 7.93457C19.3726 7.80029 19.3848 7.67822 19.3848 7.56836C19.3848 7.01904 19.0063 6.64062 18.4448 6.64062C17.8711 6.64062 17.6025 6.90918 17.4438 7.60498L15.625 15.3687L15.5396 15.3687L13.4888 7.4707C13.3423 6.92139 13.0005 6.66504 12.4268 6.66504C11.853 6.66504 11.4868 6.92139 11.3525 7.4707L9.31396 15.3687L9.22852 15.3687L7.40967 7.60498C7.25098 6.90918 6.99463 6.64062 6.4209 6.64062C5.84717 6.64062 5.48096 7.01904 5.48096 7.56836C5.48096 7.67822 5.49316 7.80029 5.52979 7.93457L7.94678 17.1997C8.10547 17.8223 8.52051 18.1641 9.15527 18.1641Z" fill="#5ac8f5"/>
 </g>
</svg>
