<?xml version="1.0" encoding="UTF-8"?>
<!--Generator: Apple Native CoreSVG 175.5-->
<!DOCTYPE svg
PUBLIC "-//W3C//DTD SVG 1.1//EN"
       "http://www.w3.org/Graphics/SVG/1.1/DTD/svg11.dtd">
<svg version="1.1" xmlns="http://www.w3.org/2000/svg" xmlns:xlink="http://www.w3.org/1999/xlink" width="24.9023" height="25.5493">
 <g>
  <rect height="25.5493" opacity="0" width="24.9023" x="0" y="0"/>
  <path d="M12.4512 25.5493C19.2627 25.5493 24.9023 19.8975 24.9023 13.0981C24.9023 6.28662 19.2505 0.646973 12.439 0.646973C5.63965 0.646973 0 6.28662 0 13.0981C0 19.8975 5.65186 25.5493 12.4512 25.5493Z" fill="#5ac8f5" fill-opacity="0.25"/>
  <path d="M12.7319 21.0205C12.085 21.0205 11.8896 20.5078 11.6699 19.7998L10.5347 16.1011C10.4126 15.6128 10.437 15.3809 10.7178 15.1001L17.8833 7.37305C17.9688 7.27539 17.9688 7.16553 17.8833 7.09229C17.8101 7.04346 17.7124 7.01904 17.6147 7.10449L9.92432 14.3188C9.61914 14.5874 9.375 14.5874 8.92334 14.4531L5.11475 13.3057C4.43115 13.0981 3.95508 12.8784 3.95508 12.2437C3.95508 11.731 4.40674 11.3647 4.99268 11.1572L17.0898 6.51855C17.4194 6.39648 17.688 6.32324 17.9321 6.32324C18.3838 6.32324 18.6523 6.604 18.6523 7.05566C18.6523 7.2998 18.5913 7.56836 18.4692 7.89795L13.8672 19.9341C13.6108 20.6055 13.2446 21.0205 12.7319 21.0205Z" fill="#5ac8f5"/>
 </g>
</svg>
