<?xml version="1.0" encoding="UTF-8"?>
<!--Generator: Apple Native CoreSVG 175.5-->
<!DOCTYPE svg
PUBLIC "-//W3C//DTD SVG 1.1//EN"
       "http://www.w3.org/Graphics/SVG/1.1/DTD/svg11.dtd">
<svg version="1.1" xmlns="http://www.w3.org/2000/svg" xmlns:xlink="http://www.w3.org/1999/xlink" width="25.3754" height="25.1221">
 <g>
  <rect height="25.1221" opacity="0" width="25.3754" x="0" y="0"/>
  <path d="M21.3104 17.9626C23.8983 15.1184 25.3754 12.1155 25.3754 9.10034C25.3754 4.77905 22.4091 1.72729 18.454 1.72729C16.1957 1.72729 14.3646 2.80151 13.2538 4.44946C12.1674 2.81372 10.3119 1.72729 8.05359 1.72729C7.16248 1.72729 6.32019 1.88599 5.55115 2.17896L7.18689 3.8147C7.44324 3.72925 7.73621 3.69263 8.02917 3.69263C10.3241 3.69263 11.6425 5.12085 12.4237 6.34155C12.7533 6.82983 12.9608 6.96411 13.2538 6.96411C13.5468 6.96411 13.7299 6.81763 14.0839 6.34155C14.9261 5.14526 16.1957 3.69263 18.4784 3.69263C21.3104 3.69263 23.41 5.85327 23.41 9.10034C23.41 11.5662 21.994 14.1418 19.87 16.5222ZM17.8192 21.1975L16.4154 19.7937C15.4999 20.5383 14.4989 21.2708 13.5101 21.9299C13.3881 22.0154 13.3026 22.0764 13.2538 22.0764C13.205 22.0764 13.1195 22.0154 13.0096 21.9299C7.8949 18.5364 3.09753 13.6414 3.09753 9.10034C3.09753 8.28247 3.25623 7.53784 3.53699 6.91528L2.02332 5.3894C1.44958 6.45142 1.1322 7.70874 1.1322 9.10034C1.1322 14.3005 5.49011 19.4153 12.3749 23.8098C12.6312 23.9685 12.9974 24.1394 13.2538 24.1394C13.5101 24.1394 13.8763 23.9685 14.1449 23.8098C15.451 22.9675 16.6962 22.0886 17.8192 21.1975ZM22.2992 23.6145C22.6654 23.9929 23.2758 23.9929 23.6298 23.6145C23.9838 23.2483 23.996 22.6624 23.6298 22.2839L1.60828 0.274658C1.24207-0.0915527 0.631714-0.0915527 0.265503 0.274658C-0.088501 0.628662-0.088501 1.25122 0.265503 1.60522Z" fill="#5ac8f5"/>
 </g>
</svg>
