<?xml version="1.0" encoding="UTF-8"?>
<!--Generator: Apple Native CoreSVG 175.5-->
<!DOCTYPE svg
PUBLIC "-//W3C//DTD SVG 1.1//EN"
       "http://www.w3.org/Graphics/SVG/1.1/DTD/svg11.dtd">
<svg version="1.1" xmlns="http://www.w3.org/2000/svg" xmlns:xlink="http://www.w3.org/1999/xlink" width="21.46" height="32.4829">
 <g>
  <rect height="32.4829" opacity="0" width="21.46" x="0" y="0"/>
  <path d="M3.83301 26.8433L9.76562 26.8433L9.76562 5.61523L3.83301 5.61523C1.28174 5.61523 0 6.88477 0 9.39941L0 23.0713C0 25.5859 1.28174 26.8433 3.83301 26.8433ZM3.85742 24.8779C2.63672 24.8779 1.96533 24.231 1.96533 22.9614L1.96533 9.50928C1.96533 8.23975 2.63672 7.58057 3.85742 7.58057L7.80029 7.58057L7.80029 24.8779ZM17.627 26.8433C20.1904 26.8433 21.46 25.5737 21.46 23.0713L21.46 9.39941C21.46 6.88477 20.1904 5.61523 17.627 5.61523L11.6699 5.61523L11.6699 26.8433ZM17.6025 24.8779L13.6353 24.8779L13.6353 7.58057L17.6025 7.58057C18.7988 7.58057 19.4946 8.23975 19.4946 9.50928L19.4946 22.9614C19.4946 24.231 18.7988 24.8779 17.6025 24.8779ZM10.7178 0C10.1807 0 9.76562 0.427246 9.76562 0.952148L9.76562 5.61523L11.6699 5.61523L11.6699 0.952148C11.6699 0.427246 11.2549 0 10.7178 0ZM10.7178 32.4585C11.2549 32.4585 11.6699 32.0435 11.6699 31.5063L11.6699 26.8433L9.76562 26.8433L9.76562 31.5063C9.76562 32.0435 10.1807 32.4585 10.7178 32.4585Z" fill="#5ac8f5"/>
 </g>
</svg>
