<?xml version="1.0" encoding="UTF-8"?>
<!--Generator: Apple Native CoreSVG 175.5-->
<!DOCTYPE svg
PUBLIC "-//W3C//DTD SVG 1.1//EN"
       "http://www.w3.org/Graphics/SVG/1.1/DTD/svg11.dtd">
<svg version="1.1" xmlns="http://www.w3.org/2000/svg" xmlns:xlink="http://www.w3.org/1999/xlink" width="35.0708" height="19.9829">
 <g>
  <rect height="19.9829" opacity="0" width="35.0708" x="0" y="0"/>
  <path d="M7.09229 14.3066L8.08105 14.3066C8.00781 13.6719 7.94678 12.9761 8.03223 12.3413L7.22656 12.3413C4.22363 12.3413 2.0874 10.2295 2.0874 7.20215C2.0874 4.19922 4.23584 2.0752 7.22656 2.0752L18.0542 2.0752C21.0449 2.0752 23.1934 4.19922 23.1934 7.20215C23.1934 10.2295 21.0449 12.3413 18.0542 12.3413L13.7695 12.3413C13.5986 12.8174 13.6597 13.7451 14.0381 14.3066L18.1885 14.3066C22.3267 14.3066 25.2808 11.4014 25.2808 7.20215C25.2808 3.01514 22.3267 0.109863 18.1885 0.109863L7.09229 0.109863C2.9541 0.109863 0 3.01514 0 7.20215C0 11.4014 2.9541 14.3066 7.09229 14.3066ZM16.8823 19.9829L27.9785 19.9829C32.1167 19.9829 35.0708 17.0776 35.0708 12.8784C35.0708 8.69141 32.1167 5.78613 27.9785 5.78613L26.9775 5.78613C27.0508 6.40869 27.1118 7.1167 27.0386 7.75146L27.832 7.75146C30.835 7.75146 32.9834 9.86328 32.9834 12.8784C32.9834 15.8936 30.835 18.0176 27.832 18.0176L17.0166 18.0176C14.0259 18.0176 11.8774 15.8936 11.8774 12.8784C11.8774 9.86328 14.0137 7.75146 17.0166 7.75146L21.3013 7.75146C21.4722 7.27539 21.4111 6.34766 21.0205 5.78613L16.8823 5.78613C12.7319 5.78613 9.79004 8.69141 9.79004 12.8784C9.79004 17.0776 12.7319 19.9829 16.8823 19.9829Z" fill="#5ac8f5"/>
 </g>
</svg>
