<?xml version="1.0" encoding="UTF-8"?>
<!--Generator: Apple Native CoreSVG 175.5-->
<!DOCTYPE svg
PUBLIC "-//W3C//DTD SVG 1.1//EN"
       "http://www.w3.org/Graphics/SVG/1.1/DTD/svg11.dtd">
<svg version="1.1" xmlns="http://www.w3.org/2000/svg" xmlns:xlink="http://www.w3.org/1999/xlink" width="24.9023" height="24.9146">
 <g>
  <rect height="24.9146" opacity="0" width="24.9023" x="0" y="0"/>
  <path d="M12.4512 24.9023C19.2627 24.9023 24.9023 19.2505 24.9023 12.4512C24.9023 5.63965 19.2505 0 12.439 0C5.63965 0 0 5.63965 0 12.4512C0 19.2505 5.65186 24.9023 12.4512 24.9023ZM12.4512 22.8271C6.68945 22.8271 2.0874 18.2129 2.0874 12.4512C2.0874 6.68945 6.67725 2.0752 12.439 2.0752C18.2007 2.0752 22.8271 6.68945 22.8271 12.4512C22.8271 18.2129 18.2129 22.8271 12.4512 22.8271ZM6.06689 14.978L7.55615 14.978C7.93457 14.978 8.23975 14.7095 8.23975 14.3433C8.23975 13.9893 7.93457 13.7207 7.55615 13.7207L6.06689 13.7207C5.67627 13.7207 5.3833 14.0015 5.3833 14.3433C5.3833 14.6851 5.67627 14.978 6.06689 14.978ZM8.54492 11.4868C8.81348 11.7554 9.22852 11.7798 9.47266 11.5234C9.729 11.2671 9.69238 10.8643 9.43604 10.5957L8.37402 9.53369C8.09326 9.25293 7.69043 9.27734 7.44629 9.50928C7.20215 9.76562 7.20215 10.144 7.48291 10.4248ZM12.439 4.74854C12.085 4.74854 11.8042 5.05371 11.8042 5.41992L11.8042 7.65381L11.8408 8.06885L11.7798 8.00781L10.9497 7.18994C10.8276 7.08008 10.6567 7.00684 10.5103 7.00684C10.1929 7.00684 9.96094 7.25098 9.96094 7.55615C9.96094 7.70264 10.0098 7.84912 10.1562 7.9834L12.0117 9.729C12.1582 9.86328 12.2925 9.92432 12.439 9.92432C12.5854 9.92432 12.7197 9.86328 12.8662 9.729L14.7217 7.9834C14.8804 7.84912 14.917 7.70264 14.917 7.55615C14.917 7.25098 14.6851 7.00684 14.3677 7.00684C14.2212 7.00684 14.0381 7.08008 13.9404 7.18994L13.1958 7.95898L13.0371 8.10547L13.0737 7.65381L13.0737 5.41992C13.0737 5.05371 12.793 4.74854 12.439 4.74854ZM15.4297 11.5234C15.6738 11.7676 16.0645 11.7676 16.3452 11.4868L17.395 10.4248C17.6636 10.144 17.6758 9.76562 17.4316 9.50928C17.1875 9.25293 16.7847 9.26514 16.5039 9.53369L15.4541 10.5957C15.1733 10.8765 15.1611 11.2671 15.4297 11.5234ZM17.334 14.978L18.811 14.978C19.2139 14.978 19.4946 14.6973 19.4946 14.3433C19.4946 14.0015 19.2139 13.7207 18.811 13.7207L17.334 13.7207C16.9556 13.7207 16.6382 13.9893 16.6382 14.3433C16.6382 14.7095 16.9556 14.978 17.334 14.978ZM15.8325 14.4897C15.8325 12.6343 14.2944 11.084 12.439 11.084C10.5957 11.084 9.04541 12.6343 9.04541 14.4897C9.04541 14.856 9.11865 15.21 9.24072 15.564L15.6372 15.564C15.7593 15.21 15.8325 14.856 15.8325 14.4897ZM6.05469 17.5537L18.8232 17.5537C19.1772 17.5537 19.4946 17.2852 19.4946 16.9312C19.4946 16.5771 19.1895 16.3086 18.8232 16.3086L6.05469 16.3086C5.70068 16.3086 5.3833 16.5771 5.3833 16.9312C5.3833 17.2852 5.71289 17.5537 6.05469 17.5537Z" fill="#5ac8f5"/>
 </g>
</svg>
