<?xml version="1.0" encoding="UTF-8"?>
<!--Generator: Apple Native CoreSVG 175.5-->
<!DOCTYPE svg
PUBLIC "-//W3C//DTD SVG 1.1//EN"
       "http://www.w3.org/Graphics/SVG/1.1/DTD/svg11.dtd">
<svg version="1.1" xmlns="http://www.w3.org/2000/svg" xmlns:xlink="http://www.w3.org/1999/xlink" width="22.4731" height="22.4976">
 <g>
  <rect height="22.4976" opacity="0" width="22.4731" x="0" y="0"/>
  <path d="M3.83301 22.4976L18.6401 22.4976C21.2036 22.4976 22.4731 21.228 22.4731 18.7134L22.4731 3.80859C22.4731 1.29395 21.2036 0.0244141 18.6401 0.0244141L3.83301 0.0244141C1.28174 0.0244141 0 1.28174 0 3.80859L0 18.7134C0 21.2402 1.28174 22.4976 3.83301 22.4976ZM3.85742 20.5322C2.63672 20.5322 1.96533 19.8853 1.96533 18.6157L1.96533 3.90625C1.96533 2.63672 2.63672 1.98975 3.85742 1.98975L18.6157 1.98975C19.8242 1.98975 20.5078 2.63672 20.5078 3.90625L20.5078 18.6157C20.5078 19.8853 19.8242 20.5322 18.6157 20.5322Z" fill="#5ac8f5" fill-opacity="0.5"/>
  <path d="M8.47168 16.7725L14.7461 16.7725C15.21 16.7725 15.564 16.4673 15.564 15.979C15.564 15.4663 15.21 15.1733 14.7461 15.1733L10.2905 15.1733L10.2905 15.0879L13.1836 11.9995C14.27 10.8398 15.0269 9.87549 15.0269 8.52051C15.0269 6.66504 13.5376 5.43213 11.2793 5.43213C9.5459 5.43213 8.00781 6.48193 7.61719 7.84912C7.56836 8.03223 7.55615 8.17871 7.55615 8.3374C7.55615 8.81348 7.87354 9.11865 8.3374 9.11865C8.77686 9.11865 8.99658 8.8501 9.2041 8.5083C9.53369 7.76367 10.1685 6.98242 11.3647 6.98242C12.5244 6.98242 13.2935 7.65381 13.2935 8.66699C13.2935 9.55811 12.5488 10.3027 11.8286 11.0596L7.92236 15.2466C7.71484 15.4785 7.60498 15.7227 7.60498 15.979C7.60498 16.4673 7.92236 16.7725 8.47168 16.7725Z" fill="#5ac8f5"/>
 </g>
</svg>
