<?xml version="1.0" encoding="UTF-8"?>
<!--Generator: Apple Native CoreSVG 175.5-->
<!DOCTYPE svg
PUBLIC "-//W3C//DTD SVG 1.1//EN"
       "http://www.w3.org/Graphics/SVG/1.1/DTD/svg11.dtd">
<svg version="1.1" xmlns="http://www.w3.org/2000/svg" xmlns:xlink="http://www.w3.org/1999/xlink" width="23.6313" height="29.3579">
 <g>
  <rect height="29.3579" opacity="0" width="23.6313" x="0" y="0"/>
  <path d="M20.6635 19.1406L21.2616 6.55518L22.7264 6.55518C23.2269 6.55518 23.6298 6.12793 23.6298 5.62744C23.6298 5.12695 23.2269 4.71191 22.7264 4.71191L17.1478 4.71191L17.1478 2.88086C17.1478 1.12305 15.9637 0 14.0839 0L9.51843 0C7.63855 0 6.46667 1.12305 6.46667 2.88086L6.46667 4.45557L5.9906 4.45557L8.09021 6.55518L19.3085 6.55518L18.808 17.2852ZM8.4198 4.71191L8.4198 3.00293C8.4198 2.30713 8.92029 1.81885 9.66492 1.81885L13.9496 1.81885C14.6942 1.81885 15.2069 2.30713 15.2069 3.00293L15.2069 4.71191ZM6.22253 27.1851L17.4164 27.1851C18.7225 27.1851 19.6503 26.5503 20.1019 25.5493L20.1141 25.2808L18.515 23.6816L18.5028 24.0845C18.4906 24.7925 17.9535 25.3418 17.2211 25.3418L6.39343 25.3418C5.69763 25.3418 5.17273 24.8169 5.13611 24.0967L4.4281 9.58252L2.42615 7.58057L3.2196 24.3164C3.30505 26.062 4.45251 27.1851 6.22253 27.1851ZM12.6068 11.0718L12.6068 9.48486C12.6068 9.05762 12.2772 8.76465 11.8134 8.76465C11.5936 8.76465 11.3617 8.8501 11.2152 9.021L11.2152 9.68018ZM16.4154 14.8804L16.5741 9.48486C16.5863 9.05762 16.2689 8.76465 15.8051 8.76465C15.3778 8.76465 15.0604 9.04541 15.0482 9.48486L14.9384 13.4033ZM8.20007 23.2544C8.66394 23.2544 8.96912 22.9614 8.95691 22.5342L8.70056 13.8794L7.15027 12.3169L7.43103 22.5342C7.44324 22.9736 7.74841 23.2544 8.20007 23.2544ZM11.8134 23.2544C12.2772 23.2544 12.6068 22.9614 12.6068 22.5342L12.6068 17.7734L11.0321 16.2109L11.0321 22.5342C11.0321 22.9736 11.3495 23.2544 11.8134 23.2544ZM15.4388 23.2544C15.8783 23.2544 16.1835 22.9736 16.1957 22.5342L16.2323 21.4111L14.7552 19.9341L14.682 22.5342C14.6698 22.9614 14.975 23.2544 15.4388 23.2544ZM22.0306 25.1831C22.3969 25.5493 22.995 25.5493 23.3612 25.1831C23.7152 24.8047 23.7274 24.2188 23.3612 23.8525L1.60828 2.0874C1.24207 1.72119 0.631714 1.72119 0.265503 2.0874C-0.088501 2.44141-0.088501 3.06396 0.265503 3.41797Z" fill="#5ac8f5"/>
 </g>
</svg>
