<?xml version="1.0" encoding="UTF-8"?>
<!--Generator: Apple Native CoreSVG 175.5-->
<!DOCTYPE svg
PUBLIC "-//W3C//DTD SVG 1.1//EN"
       "http://www.w3.org/Graphics/SVG/1.1/DTD/svg11.dtd">
<svg version="1.1" xmlns="http://www.w3.org/2000/svg" xmlns:xlink="http://www.w3.org/1999/xlink" width="24.9023" height="24.9146">
 <g>
  <rect height="24.9146" opacity="0" width="24.9023" x="0" y="0"/>
  <path d="M12.4512 24.9023C19.2627 24.9023 24.9023 19.2505 24.9023 12.4512C24.9023 5.63965 19.2505 0 12.439 0C5.63965 0 0 5.63965 0 12.4512C0 19.2505 5.65186 24.9023 12.4512 24.9023ZM9.06982 19.7998C8.26416 19.7998 7.76367 19.3359 7.76367 18.4937L7.76367 18.3228C7.76367 16.4062 9.80225 14.3555 10.9253 13.2324C11.4746 12.6953 11.438 12.1338 10.9253 11.6455C9.80225 10.5347 7.76367 8.48389 7.76367 6.54297L7.76367 6.40869C7.76367 5.5542 8.26416 5.09033 9.06982 5.09033L15.8325 5.09033C16.6382 5.09033 17.1387 5.5542 17.1387 6.40869L17.1387 6.54297C17.1387 8.48389 15.1001 10.5347 13.9771 11.6455C13.4644 12.1338 13.4277 12.6953 13.9771 13.2324C15.1001 14.3555 17.1387 16.4062 17.1387 18.3228L17.1387 18.4937C17.1387 19.3359 16.6382 19.7998 15.8325 19.7998ZM9.68018 18.7134L15.2222 18.7134C15.5762 18.7134 15.6372 18.3105 15.4053 18.103L13.0127 15.6616C12.9272 15.5762 12.8906 15.5396 12.8906 15.4053L12.8906 11.8652C12.8906 11.5112 12.9639 11.3403 13.2202 11.0962C13.7695 10.5469 14.3555 9.98535 14.856 9.46045C15.0635 9.24072 14.9536 8.99658 14.6973 8.99658L10.2173 8.99658C9.96094 8.99658 9.83887 9.24072 10.0586 9.46045C10.5469 9.98535 11.1328 10.5469 11.6821 11.0962C11.9385 11.3403 12.0117 11.5112 12.0117 11.8652L12.0117 15.4053C12.0117 15.5396 11.9751 15.5762 11.8896 15.6616L9.49707 18.103C9.26514 18.3105 9.32617 18.7134 9.68018 18.7134Z" fill="#5ac8f5"/>
 </g>
</svg>
