<?xml version="1.0" encoding="UTF-8"?>
<!--Generator: Apple Native CoreSVG 175.5-->
<!DOCTYPE svg
PUBLIC "-//W3C//DTD SVG 1.1//EN"
       "http://www.w3.org/Graphics/SVG/1.1/DTD/svg11.dtd">
<svg version="1.1" xmlns="http://www.w3.org/2000/svg" xmlns:xlink="http://www.w3.org/1999/xlink" width="19.4946" height="28.4302">
 <g>
  <rect height="28.4302" opacity="0" width="19.4946" x="0" y="0"/>
  <path d="M4.26025 28.4302L15.2344 28.4302C15.686 28.4302 15.979 28.1006 15.979 27.6245C15.979 26.709 15.2344 26.062 14.0747 26.062L10.7422 26.062L10.7422 19.4336C15.6494 18.9453 19.4946 14.7827 19.4946 9.75342C19.4946 4.38232 15.1123 0 9.74121 0C4.37012 0 0 4.38232 0 9.75342C0 14.8071 3.85742 18.9575 8.77686 19.4458L8.77686 26.062L5.40771 26.062C4.24805 26.062 3.50342 26.709 3.50342 27.6245C3.50342 28.1006 3.79639 28.4302 4.26025 28.4302ZM6.65283 15.9424C4.95605 15.9424 3.14941 13.9526 3.14941 11.9385C3.14941 10.8643 3.75977 10.2905 4.87061 10.2905L7.04346 10.2905C7.00684 10.1318 6.99463 9.8999 6.99463 9.7168C4.80957 8.89893 3.60107 8.14209 3.60107 6.68945C3.60107 5.00488 5.61523 3.18604 7.62939 3.18604C8.70361 3.18604 9.27734 3.80859 9.27734 4.90723L9.27734 7.01904C9.46045 6.97021 9.69238 6.97021 9.87549 6.97021C10.6689 4.83398 11.4502 3.66211 12.8662 3.66211C14.563 3.66211 16.3574 5.66406 16.3574 7.65381C16.3574 8.74023 15.7471 9.31396 14.6484 9.31396L12.5122 9.31396C12.5244 9.52148 12.5366 9.70459 12.5244 9.8999C14.6973 10.7056 15.9058 11.4624 15.9058 12.9272C15.9058 14.6118 13.9038 16.4185 11.8896 16.4185C10.8154 16.4185 10.2417 15.8081 10.2417 14.7095L10.2417 12.4634C10.0708 12.5122 9.8999 12.5122 9.70459 12.5C8.87451 14.7217 8.10547 15.9424 6.65283 15.9424ZM9.75342 11.1938C10.5347 11.1938 11.145 10.5835 11.145 9.81445C11.145 9.021 10.5347 8.41064 9.75342 8.41064C8.97217 8.41064 8.36182 9.021 8.36182 9.81445C8.36182 10.5835 8.97217 11.1938 9.75342 11.1938Z" fill="#5ac8f5"/>
 </g>
</svg>
