<?xml version="1.0" encoding="UTF-8"?>
<!--Generator: Apple Native CoreSVG 175.5-->
<!DOCTYPE svg
PUBLIC "-//W3C//DTD SVG 1.1//EN"
       "http://www.w3.org/Graphics/SVG/1.1/DTD/svg11.dtd">
<svg version="1.1" xmlns="http://www.w3.org/2000/svg" xmlns:xlink="http://www.w3.org/1999/xlink" width="28.8818" height="22.6929">
 <g>
  <rect height="22.6929" opacity="0" width="28.8818" x="0" y="0"/>
  <path d="M0 21.0327C0 21.936 0.708008 22.644 1.62354 22.644L3.05176 22.644C3.96729 22.644 4.67529 21.936 4.67529 21.0327L4.67529 19.2627L24.2188 19.2627L24.2188 21.0327C24.2188 21.936 24.9146 22.644 25.8301 22.644L27.2705 22.644C28.186 22.644 28.8818 21.936 28.8818 21.0327L28.8818 12.8784C28.8818 10.8276 28.6011 9.59473 27.3438 8.21533L26.1108 6.88477L24.8291 3.21045C24.1333 1.2085 22.7783 0.366211 21.0938 0.170898C20.2759 0.0732422 17.6025 0 14.4409 0C11.2915 0 8.61816 0.0732422 7.80029 0.170898C6.10352 0.366211 4.74854 1.2085 4.05273 3.21045L2.771 6.88477L1.55029 8.21533C0.280762 9.59473 0 10.8276 0 12.8784ZM6.12793 6.9458C5.52979 6.9458 5.33447 6.51855 5.51758 5.98145L6.27441 3.69873C6.55518 2.85645 7.00684 2.58789 7.73926 2.49023C8.59375 2.36816 10.9619 2.28271 14.4409 2.28271C17.9321 2.28271 20.2881 2.36816 21.1304 2.49023C21.875 2.58789 22.3145 2.85645 22.5952 3.69873L23.3643 5.98145C23.5474 6.51855 23.3398 6.9458 22.7539 6.9458ZM4.41895 14.5752C3.66211 14.5752 3.11279 14.0259 3.11279 13.2812L3.11279 11.377C3.11279 10.6323 3.66211 10.0952 4.41895 10.0952C5.16357 10.0952 5.71289 10.6201 5.71289 11.377L5.71289 13.2812C5.71289 14.0381 5.16357 14.5752 4.41895 14.5752ZM11.6699 13.9893C11.0718 13.9893 10.6689 13.5986 10.6689 12.9395L10.6689 11.7065C10.6689 11.0718 11.0718 10.6812 11.6699 10.6812L17.1753 10.6812C17.7856 10.6812 18.1885 11.0718 18.1885 11.7065L18.1885 12.9395C18.1885 13.5986 17.7856 13.9893 17.1753 13.9893ZM24.585 14.5752C23.8525 14.5752 23.291 14.0259 23.291 13.2812L23.291 11.377C23.291 10.6323 23.8525 10.0952 24.585 10.0952C25.3418 10.0952 25.8911 10.6201 25.8911 11.377L25.8911 13.2812C25.8911 14.0381 25.3418 14.5752 24.585 14.5752Z" fill="#5ac8f5"/>
 </g>
</svg>
