<?xml version="1.0" encoding="UTF-8"?>
<!--Generator: Apple Native CoreSVG 175.5-->
<!DOCTYPE svg
PUBLIC "-//W3C//DTD SVG 1.1//EN"
       "http://www.w3.org/Graphics/SVG/1.1/DTD/svg11.dtd">
<svg version="1.1" xmlns="http://www.w3.org/2000/svg" xmlns:xlink="http://www.w3.org/1999/xlink" width="24.9023" height="24.9146">
 <g>
  <rect height="24.9146" opacity="0" width="24.9023" x="0" y="0"/>
  <path d="M12.4512 24.9146C19.2627 24.9146 24.9023 19.2749 24.9023 12.4634C24.9023 5.66406 19.2505 0.012207 12.439 0.012207C5.63965 0.012207 0 5.66406 0 12.4634C0 19.2749 5.65186 24.9146 12.4512 24.9146ZM6.51855 16.0156C5.0293 16.0156 4.02832 15.0513 4.02832 13.7329C4.02832 12.6587 4.69971 11.8286 5.63965 11.499C5.85938 9.60693 7.4707 8.11768 9.375 8.11768C10.8276 8.11768 12.0239 8.91113 12.6953 10.1685C14.4531 10.2051 15.7593 11.4502 15.7593 13.0615C15.7593 14.7217 14.4653 16.0156 12.7686 16.0156ZM11.5479 7.61719L10.6567 6.71387C10.4492 6.48193 10.4492 6.10352 10.6567 5.9082C10.8887 5.68848 11.2427 5.68848 11.4746 5.9082L12.3779 6.79932C12.5977 7.00684 12.5732 7.38525 12.3779 7.60498C12.1582 7.8125 11.7798 7.83691 11.5479 7.61719ZM14.9414 6.51855C14.6362 6.51855 14.3677 6.26221 14.3677 5.95703L14.3677 4.69971C14.3677 4.38232 14.6362 4.12598 14.9414 4.12598C15.271 4.12598 15.5273 4.38232 15.5273 4.69971L15.5273 5.95703C15.5273 6.26221 15.271 6.51855 14.9414 6.51855ZM17.5293 7.60498C17.334 7.38525 17.3096 7.00684 17.5293 6.79932L18.4326 5.9082C18.6646 5.67627 19.0186 5.68848 19.2383 5.9082C19.4458 6.10352 19.458 6.48193 19.2383 6.71387L18.3594 7.61719C18.1396 7.83691 17.749 7.8125 17.5293 7.60498ZM19.1772 10.7544C18.8843 10.7544 18.6157 10.498 18.6157 10.1807C18.6157 9.85107 18.8843 9.60693 19.1772 9.60693L20.4224 9.60693C20.752 9.60693 21.0083 9.85107 21.0083 10.1807C21.0083 10.498 20.752 10.7544 20.4224 10.7544ZM18.4326 14.502L17.5293 13.6108C17.3096 13.3789 17.334 13.0005 17.5293 12.7808C17.7612 12.5732 18.1396 12.5732 18.3594 12.7808L19.2383 13.6597C19.458 13.8672 19.4458 14.2456 19.2383 14.4897C19.0186 14.6851 18.6646 14.7095 18.4326 14.502ZM17.8955 10.1807C17.8955 11.1694 17.4072 12.0605 16.6016 12.6343C16.4185 10.8887 15.0269 9.57031 13.2202 9.35059C13.0127 9.0332 12.8052 8.76465 12.5366 8.52051C13.0493 7.75146 13.9526 7.25098 14.9414 7.25098C16.5894 7.25098 17.8955 8.54492 17.8955 10.1807ZM7.01904 18.689C6.89697 18.8965 6.61621 18.9697 6.39648 18.8477C6.17676 18.7378 6.10352 18.4448 6.22559 18.2251L6.93359 17.0044C7.06787 16.7847 7.33643 16.6992 7.55615 16.8335C7.80029 16.9556 7.87354 17.2363 7.72705 17.4561ZM8.63037 20.0195C8.5083 20.2393 8.21533 20.3247 7.99561 20.2026C7.77588 20.0684 7.67822 19.7876 7.8125 19.5679L8.48389 18.4082C8.63037 18.1885 8.88672 18.1152 9.11865 18.2373C9.36279 18.3594 9.41162 18.6523 9.28955 18.8599ZM11.084 18.6768C10.9619 18.8965 10.6934 18.9575 10.4492 18.8477C10.2295 18.7256 10.1807 18.4326 10.2905 18.2129L10.9863 16.98C11.1206 16.7725 11.4014 16.7114 11.6211 16.8335C11.8408 16.9678 11.9263 17.2363 11.8042 17.4683ZM12.6831 20.0317C12.561 20.2393 12.2803 20.3247 12.0605 20.2026C11.8286 20.0684 11.7432 19.7876 11.8774 19.5679L12.5488 18.4082C12.6953 18.2007 12.9639 18.1152 13.1714 18.2373C13.4033 18.3472 13.4766 18.6523 13.3667 18.8599Z" fill="#5ac8f5"/>
 </g>
</svg>
