<?xml version="1.0" encoding="UTF-8"?>
<!--Generator: Apple Native CoreSVG 175.5-->
<!DOCTYPE svg
PUBLIC "-//W3C//DTD SVG 1.1//EN"
       "http://www.w3.org/Graphics/SVG/1.1/DTD/svg11.dtd">
<svg version="1.1" xmlns="http://www.w3.org/2000/svg" xmlns:xlink="http://www.w3.org/1999/xlink" width="25.8667" height="27.6245">
 <g>
  <rect height="27.6245" opacity="0" width="25.8667" x="0" y="0"/>
  <path d="M8.39844 12.7808C8.39844 17.5659 11.5601 20.9229 16.2109 21.3135L16.2109 24.1577L11.6821 24.1577C11.1694 24.1577 10.7544 24.5728 10.7544 25.0854C10.7544 25.5981 11.1694 26.001 11.6821 26.001L22.583 26.001C23.0957 26.001 23.5107 25.5981 23.5107 25.0854C23.5107 24.5728 23.0957 24.1577 22.583 24.1577L18.0542 24.1577L18.0542 21.3135C22.7051 20.9229 25.8667 17.5659 25.8667 12.7808L25.8667 10.3027C25.8667 9.79004 25.4639 9.38721 24.9512 9.38721C24.4385 9.38721 24.0234 9.79004 24.0234 10.3027L24.0234 12.7075C24.0234 16.8701 21.3135 19.6289 17.1265 19.6289C12.9517 19.6289 10.2417 16.8701 10.2417 12.7075L10.2417 10.3027C10.2417 9.79004 9.82666 9.38721 9.31396 9.38721C8.80127 9.38721 8.39844 9.79004 8.39844 10.3027ZM17.1265 17.0044C19.5679 17.0044 21.2036 15.1855 21.2036 12.5854L21.2036 4.41895C21.2036 1.80664 19.5679 0 17.1265 0C14.6973 0 13.0615 1.80664 13.0615 4.41895L13.0615 12.5854C13.0615 15.1855 14.6973 17.0044 17.1265 17.0044Z" fill="#5ac8f5" fill-opacity="0.5"/>
  <path d="M2.24609 25.4395C3.4668 25.4395 4.45557 24.4507 4.45557 23.23C4.45557 21.9849 3.4668 21.0083 2.24609 21.0083C0.98877 21.0083 0 21.9849 0 23.23C0 24.4507 1.00098 25.4395 2.24609 25.4395Z" fill="#5ac8f5"/>
  <path d="M2.24609 19.0918C3.4668 19.0918 4.45557 18.0908 4.45557 16.8457C4.45557 15.625 3.4668 14.6362 2.24609 14.6362C1.00098 14.6362 0 15.625 0 16.8457C0 18.103 0.98877 19.0918 2.24609 19.0918Z" fill="#5ac8f5"/>
  <path d="M2.24609 12.7075C3.4668 12.7075 4.45557 11.731 4.45557 10.4858C4.45557 9.24072 3.4668 8.25195 2.24609 8.25195C0.98877 8.25195 0 9.24072 0 10.4858C0 11.731 0.98877 12.7075 2.24609 12.7075Z" fill="#5ac8f5"/>
  <path d="M2.24609 6.33545C3.4668 6.33545 4.45557 5.35889 4.45557 4.11377C4.45557 2.89307 3.4668 1.9043 2.24609 1.9043C1.00098 1.9043 0 2.89307 0 4.11377C0 5.35889 0.98877 6.33545 2.24609 6.33545Z" fill="#5ac8f5"/>
 </g>
</svg>
