<?xml version="1.0" encoding="UTF-8"?>
<!--Generator: Apple Native CoreSVG 175.5-->
<!DOCTYPE svg
PUBLIC "-//W3C//DTD SVG 1.1//EN"
       "http://www.w3.org/Graphics/SVG/1.1/DTD/svg11.dtd">
<svg version="1.1" xmlns="http://www.w3.org/2000/svg" xmlns:xlink="http://www.w3.org/1999/xlink" width="37.1582" height="23.2056">
 <g>
  <rect height="23.2056" opacity="0" width="37.1582" x="0" y="0"/>
  <path d="M0 11.377C0 12.0117 0.439453 12.4634 1.07422 12.4634L9.39941 12.4634L11.8286 12.3901L7.80029 16.272C7.59277 16.4795 7.49512 16.7603 7.49512 17.0532C7.49512 17.6758 7.95898 18.1152 8.56934 18.1152C8.87451 18.1152 9.14307 18.0054 9.38721 17.7612L14.9658 12.1948C15.1978 11.9629 15.3442 11.6699 15.3442 11.377C15.3442 11.0718 15.1978 10.791 14.9658 10.5469L9.38721 4.98047C9.14307 4.73633 8.87451 4.62646 8.56934 4.62646C7.95898 4.62646 7.49512 5.06592 7.49512 5.68848C7.49512 5.96924 7.59277 6.26221 7.80029 6.46973L11.8286 10.3638L9.39941 10.2783L1.07422 10.2783C0.439453 10.2783 0 10.73 0 11.377ZM18.5791 23.2056C19.2139 23.2056 19.6655 22.7539 19.6655 22.1191L19.6655 1.06201C19.6655 0.439453 19.2139 0 18.5791 0C17.9443 0 17.4805 0.439453 17.4805 1.06201L17.4805 22.1191C17.4805 22.7539 17.9443 23.2056 18.5791 23.2056ZM37.1582 11.377C37.1582 10.73 36.7065 10.2783 36.0718 10.2783L27.7588 10.2783L25.3174 10.3638L29.3457 6.46973C29.5532 6.26221 29.6509 5.96924 29.6509 5.68848C29.6509 5.06592 29.187 4.62646 28.5889 4.62646C28.2837 4.62646 28.0029 4.73633 27.7588 4.98047L22.1802 10.5469C21.9482 10.791 21.814 11.0718 21.814 11.377C21.814 11.6699 21.9482 11.9629 22.1802 12.1948L27.7588 17.7612C28.0029 18.0054 28.2837 18.1152 28.5889 18.1152C29.187 18.1152 29.6509 17.6758 29.6509 17.0532C29.6509 16.7603 29.5532 16.4795 29.3457 16.272L25.3174 12.3901L27.7588 12.4634L36.0718 12.4634C36.7065 12.4634 37.1582 12.0117 37.1582 11.377Z" fill="#5ac8f5"/>
 </g>
</svg>
