<?xml version="1.0" encoding="UTF-8"?>
<!--Generator: Apple Native CoreSVG 175.5-->
<!DOCTYPE svg
PUBLIC "-//W3C//DTD SVG 1.1//EN"
       "http://www.w3.org/Graphics/SVG/1.1/DTD/svg11.dtd">
<svg version="1.1" xmlns="http://www.w3.org/2000/svg" xmlns:xlink="http://www.w3.org/1999/xlink" width="26.001" height="26.0132">
 <g>
  <rect height="26.0132" opacity="0" width="26.001" x="0" y="0"/>
  <path d="M13.0005 2.9541C13.8184 2.9541 14.4775 2.29492 14.4775 1.47705C14.4775 0.65918 13.8184 0 13.0005 0C12.1826 0 11.5234 0.65918 11.5234 1.47705C11.5234 2.29492 12.1826 2.9541 13.0005 2.9541ZM18.0298 4.29688C18.7256 4.71191 19.6289 4.47998 20.0439 3.75977C20.4468 3.05176 20.2148 2.14844 19.5068 1.74561C18.7988 1.33057 17.8955 1.57471 17.4805 2.28271C17.0776 2.99072 17.3096 3.89404 18.0298 4.29688ZM21.7041 7.97119C22.1069 8.69141 23.0103 8.92334 23.7183 8.52051C24.4263 8.11768 24.6704 7.20215 24.2554 6.49414C23.8525 5.78613 22.9614 5.5542 22.2412 5.95703C21.521 6.37207 21.2891 7.26318 21.7041 7.97119ZM23.0469 13.0005C23.0469 13.8184 23.7061 14.4775 24.5239 14.4775C25.3296 14.4775 26.001 13.8184 26.001 13.0005C26.001 12.1826 25.3418 11.5356 24.5239 11.5234C23.7061 11.5234 23.0469 12.1826 23.0469 13.0005ZM21.7041 18.0176C21.2891 18.7256 21.521 19.6289 22.2412 20.0439C22.9492 20.4468 23.8525 20.2026 24.2554 19.4946C24.6704 18.7866 24.4263 17.9077 23.7183 17.4805C23.0103 17.0654 22.1069 17.3096 21.7041 18.0176ZM18.0298 21.7041C17.3096 22.1069 17.0776 22.998 17.4805 23.7183C17.8833 24.4263 18.7988 24.6704 19.5068 24.2554C20.2148 23.8525 20.4346 22.9614 20.0439 22.229C19.6289 21.521 18.7378 21.2891 18.0298 21.7041ZM13.0005 23.0469C12.1826 23.0469 11.5234 23.6938 11.5234 24.5239C11.5234 25.3418 12.1826 26.001 13.0005 26.001C13.8184 26.001 14.4775 25.3418 14.4775 24.5239C14.4775 23.6938 13.8184 23.0469 13.0005 23.0469ZM7.9834 21.7041C7.27539 21.2891 6.37207 21.521 5.95703 22.229C5.5542 22.9492 5.78613 23.8525 6.50635 24.2554C7.21436 24.6704 8.10547 24.4263 8.52051 23.7183C8.92334 22.998 8.69141 22.1069 7.9834 21.7041ZM4.29688 18.0176C3.89404 17.3096 3.00293 17.0654 2.28271 17.4805C1.57471 17.8833 1.33057 18.7866 1.74561 19.5068C2.14844 20.2026 3.03955 20.4468 3.77197 20.0439C4.47998 19.6289 4.71191 18.7378 4.29688 18.0176ZM2.9541 13.0005C2.9541 12.1826 2.29492 11.5234 1.47705 11.5234C0.671387 11.5234 0 12.1826 0 13.0005C0 13.8184 0.65918 14.4653 1.47705 14.4775C2.29492 14.4775 2.9541 13.8184 2.9541 13.0005ZM4.29688 7.9834C4.71191 7.26318 4.47998 6.37207 3.77197 5.95703C3.05176 5.5542 2.14844 5.78613 1.74561 6.49414C1.33057 7.20215 1.57471 8.09326 2.28271 8.52051C3.00293 8.92334 3.89404 8.69141 4.29688 7.9834ZM7.9834 4.29688C8.69141 3.89404 8.92334 2.99072 8.52051 2.28271C8.11768 1.57471 7.21436 1.33057 6.50635 1.74561C5.78613 2.14844 5.56641 3.03955 5.95703 3.75977C6.37207 4.47998 7.26318 4.71191 7.9834 4.29688ZM12.9761 20.7275C17.2852 20.7275 20.7153 17.2852 20.7031 12.9883C20.7031 8.70361 17.2607 5.26123 12.9639 5.26123C8.66699 5.26123 5.24902 8.69141 5.24902 12.9883C5.24902 17.2974 8.6792 20.7275 12.9761 20.7275ZM12.9761 18.689C9.80225 18.689 7.2876 16.1743 7.2876 12.9883C7.2876 9.81445 9.79004 7.2876 12.9639 7.2876C16.1255 7.2876 18.6768 9.82666 18.6768 12.9883C18.689 16.1621 16.1499 18.689 12.9761 18.689Z" fill="#5ac8f5"/>
 </g>
</svg>
