<?xml version="1.0" encoding="UTF-8"?>
<!--Generator: Apple Native CoreSVG 175.5-->
<!DOCTYPE svg
PUBLIC "-//W3C//DTD SVG 1.1//EN"
       "http://www.w3.org/Graphics/SVG/1.1/DTD/svg11.dtd">
<svg version="1.1" xmlns="http://www.w3.org/2000/svg" xmlns:xlink="http://www.w3.org/1999/xlink" width="24.9634" height="27.6489">
 <g>
  <rect height="27.6489" opacity="0" width="24.9634" x="0" y="0"/>
  <path d="M12.4878 16.0156C12.9761 16.0156 13.4521 15.8569 14.0381 15.5151L23.584 9.97314C24.5728 9.39941 24.9512 8.94775 24.9512 8.27637C24.9512 7.61719 24.5728 7.16553 23.584 6.5918L14.0381 1.0498C13.4521 0.708008 12.9761 0.549316 12.4878 0.549316C11.9873 0.549316 11.5234 0.708008 10.9253 1.0498L1.37939 6.5918C0.390625 7.16553 0.012207 7.61719 0.012207 8.27637C0.012207 8.94775 0.390625 9.39941 1.37939 9.97314L10.9253 15.5151C11.5234 15.8569 11.9873 16.0156 12.4878 16.0156ZM12.4878 22.0337C12.9272 22.0337 13.3057 21.8262 13.8184 21.521L24.3042 15.332C24.7559 15.0513 24.9634 14.6484 24.9634 14.27C24.9634 13.7695 24.5972 13.3545 24.2554 13.1958L12.9517 19.7266C12.7686 19.8242 12.6221 19.8975 12.4878 19.8975C12.3413 19.8975 12.1948 19.8242 12.0117 19.7266L0.708008 13.1958C0.366211 13.3545 0 13.7695 0 14.27C0 14.6484 0.219727 15.0635 0.671387 15.332L11.145 21.521C11.6699 21.8262 12.0361 22.0337 12.4878 22.0337ZM12.4878 27.6489C12.9272 27.6489 13.3057 27.4414 13.8184 27.1362L24.3042 20.9473C24.7437 20.6909 24.9634 20.2637 24.9634 19.8853C24.9634 19.3848 24.5972 18.9819 24.2554 18.811L12.9517 25.354C12.7686 25.4517 12.6221 25.5249 12.4878 25.5249C12.3413 25.5249 12.1948 25.4517 12.0117 25.354L0.708008 18.811C0.366211 18.9819 0 19.3848 0 19.8853C0 20.2637 0.219727 20.6909 0.671387 20.9473L11.145 27.1362C11.6699 27.4414 12.0361 27.6489 12.4878 27.6489Z" fill="#5ac8f5"/>
 </g>
</svg>
