<?xml version="1.0" encoding="UTF-8"?>
<!--Generator: Apple Native CoreSVG 175.5-->
<!DOCTYPE svg
PUBLIC "-//W3C//DTD SVG 1.1//EN"
       "http://www.w3.org/Graphics/SVG/1.1/DTD/svg11.dtd">
<svg version="1.1" xmlns="http://www.w3.org/2000/svg" xmlns:xlink="http://www.w3.org/1999/xlink" width="17.5049" height="25.1587">
 <g>
  <rect height="25.1587" opacity="0" width="17.5049" x="0" y="0"/>
  <path d="M8.09326 25.1221C12.6221 25.1221 16.1987 21.5454 16.1987 17.0166C16.1987 12.4756 12.6221 8.91113 8.08105 8.91113C3.55225 8.91113 0 12.4756 0 17.0166C0 21.5454 3.56445 25.1221 8.09326 25.1221ZM8.09326 23.0591C4.69971 23.0591 2.06299 20.4224 2.06299 17.0166C2.06299 13.623 4.69971 10.9741 8.08105 10.9741C11.4868 10.9741 14.1357 13.623 14.1357 17.0166C14.1357 20.4224 11.499 23.0591 8.09326 23.0591ZM14.1357 17.0166L16.1987 17.0166L16.1987 3.34473L14.1357 3.34473ZM15.1611 4.6875C16.4673 4.6875 17.5049 3.6377 17.5049 2.34375C17.5049 1.0498 16.4673 0 15.1611 0C13.8672 0 12.8174 1.0498 12.8174 2.34375C12.8174 3.6377 13.8672 4.6875 15.1611 4.6875Z" fill="#5ac8f5"/>
 </g>
</svg>
