<?xml version="1.0" encoding="UTF-8"?>
<!--Generator: Apple Native CoreSVG 175.5-->
<!DOCTYPE svg
PUBLIC "-//W3C//DTD SVG 1.1//EN"
       "http://www.w3.org/Graphics/SVG/1.1/DTD/svg11.dtd">
<svg version="1.1" xmlns="http://www.w3.org/2000/svg" xmlns:xlink="http://www.w3.org/1999/xlink" width="28.7842" height="22.4731">
 <g>
  <rect height="22.4731" opacity="0" width="28.7842" x="0" y="0"/>
  <path d="M5.40771 16.3696L12.1582 16.3696C13.3423 16.3696 13.9038 15.7959 13.9038 14.6606L13.9038 7.83691C13.9038 6.70166 13.3423 6.12793 12.1582 6.12793L5.40771 6.12793C4.24805 6.12793 3.66211 6.68945 3.66211 7.83691L3.66211 14.6606C3.66211 15.7959 4.24805 16.3696 5.40771 16.3696ZM5.07812 15.2222C5.44434 14.1235 6.82373 13.0981 8.78906 13.0981C10.7544 13.0981 12.1338 14.1235 12.5 15.2222ZM8.78906 12.2314C7.71484 12.2314 6.87256 11.3281 6.87256 10.144C6.87256 9.00879 7.71484 8.10547 8.78906 8.10547C9.85107 8.10547 10.6934 9.00879 10.6934 10.144C10.6934 11.3281 9.85107 12.2314 8.78906 12.2314ZM20.3857 16.2354C21.1792 16.2354 21.9238 16.1621 22.3999 15.9668C22.7295 15.8325 22.9248 15.625 22.9248 15.3076C22.9248 15.0024 22.7051 14.7583 22.3877 14.7583C22.2656 14.7583 22.1558 14.7949 21.9971 14.8193C21.6309 14.8682 21.2769 15.0146 20.52 15.0146C18.1519 15.0146 16.687 13.5864 16.687 11.2671C16.687 8.98438 18.1763 7.42188 20.3491 7.42188C22.5098 7.42188 23.9624 8.78906 23.9624 10.8154C23.9624 12.0239 23.5962 12.7808 23.0103 12.7808C22.644 12.7808 22.4976 12.6221 22.4976 12.2681L22.4976 9.24072C22.4976 8.87451 22.2412 8.59375 21.8872 8.59375C21.6187 8.59375 21.3745 8.78906 21.3013 9.0332L21.3013 9.13086C21.0083 8.78906 20.6055 8.59375 20.0195 8.59375C18.7256 8.59375 17.8223 9.7168 17.8223 11.2671C17.8223 12.8662 18.7256 13.9526 20.0562 13.9526C20.6421 13.9526 21.1548 13.6963 21.5088 13.2324C21.7773 13.6963 22.29 13.9526 22.9004 13.9526C24.2676 13.9526 25.1709 12.6831 25.1709 10.7422C25.1709 8.08105 23.1934 6.23779 20.3491 6.23779C17.4072 6.23779 15.3931 8.27637 15.3931 11.2549C15.3931 14.2456 17.395 16.2354 20.3857 16.2354ZM20.2393 12.7197C19.5801 12.7197 19.1772 12.1704 19.1772 11.2427C19.1772 10.3271 19.5923 9.79004 20.2515 9.79004C20.9229 9.79004 21.3379 10.3271 21.3379 11.2061C21.3379 12.146 20.9229 12.7197 20.2393 12.7197ZM3.83301 22.4731L24.9512 22.4731C27.5146 22.4731 28.7842 21.2158 28.7842 18.7012L28.7842 3.78418C28.7842 1.26953 27.5146 0 24.9512 0L3.83301 0C1.28174 0 0 1.26953 0 3.78418L0 18.7012C0 21.2158 1.28174 22.4731 3.83301 22.4731ZM3.85742 20.5078C2.63672 20.5078 1.96533 19.8608 1.96533 18.5913L1.96533 3.89404C1.96533 2.62451 2.63672 1.96533 3.85742 1.96533L24.9268 1.96533C26.1353 1.96533 26.8188 2.62451 26.8188 3.89404L26.8188 18.5913C26.8188 19.8608 26.1353 20.5078 24.9268 20.5078Z" fill="#5ac8f5"/>
 </g>
</svg>
