<?xml version="1.0" encoding="UTF-8"?>
<!--Generator: Apple Native CoreSVG 175.5-->
<!DOCTYPE svg
PUBLIC "-//W3C//DTD SVG 1.1//EN"
       "http://www.w3.org/Graphics/SVG/1.1/DTD/svg11.dtd">
<svg version="1.1" xmlns="http://www.w3.org/2000/svg" xmlns:xlink="http://www.w3.org/1999/xlink" width="32.3242" height="19.397">
 <g>
  <rect height="19.397" opacity="0" width="32.3242" x="0" y="0"/>
  <path d="M0 2.49023C0 3.89404 1.08643 4.96826 2.47803 4.96826L29.8462 4.96826C31.2378 4.96826 32.3242 3.89404 32.3242 2.49023C32.3242 1.06201 31.2378 0 29.8462 0L2.47803 0C1.08643 0 0 1.06201 0 2.49023ZM1.94092 2.49023C1.94092 2.14844 2.19727 1.9043 2.56348 1.9043L29.7607 1.9043C30.127 1.9043 30.3833 2.14844 30.3833 2.49023C30.3833 2.81982 30.127 3.06396 29.7607 3.06396L2.56348 3.06396C2.19727 3.06396 1.94092 2.81982 1.94092 2.49023ZM9.11865 16.4673L23.2178 16.4673C27.8076 16.4673 30.188 14.2212 30.188 9.85107L30.188 4.05273L28.2227 4.05273L28.2227 9.85107C28.2227 12.915 26.5137 14.502 23.2178 14.502L9.11865 14.502C5.81055 14.502 4.10156 12.915 4.10156 9.85107L4.10156 4.05273L2.13623 4.05273L2.13623 9.85107C2.13623 14.2212 4.5166 16.4673 9.11865 16.4673ZM5.71289 19.1895C6.21338 19.3848 6.78711 19.104 6.97021 18.6035L8.00781 15.7349L6.16455 15.0635L5.12695 17.9321C4.94385 18.4326 5.2124 19.0186 5.71289 19.1895ZM26.6235 19.1895C27.124 19.0186 27.3804 18.4326 27.1973 17.9321L26.1597 15.0635L24.3164 15.7349L25.354 18.6035C25.5371 19.104 26.1108 19.3848 26.6235 19.1895Z" fill="#5ac8f5"/>
 </g>
</svg>
