<?xml version="1.0" encoding="UTF-8"?>
<!--Generator: Apple Native CoreSVG 175.5-->
<!DOCTYPE svg
PUBLIC "-//W3C//DTD SVG 1.1//EN"
       "http://www.w3.org/Graphics/SVG/1.1/DTD/svg11.dtd">
<svg version="1.1" xmlns="http://www.w3.org/2000/svg" xmlns:xlink="http://www.w3.org/1999/xlink" width="25.5859" height="23.3276">
 <g>
  <rect height="23.3276" opacity="0" width="25.5859" x="0" y="0"/>
  <path d="M3.33252 23.1934L22.2534 23.1934C24.3286 23.1934 25.5859 21.7529 25.5859 19.8853C25.5859 19.3115 25.415 18.7134 25.1099 18.1763L15.6372 1.67236C15.0024 0.561523 13.916 0 12.793 0C11.6699 0 10.5713 0.561523 9.94873 1.67236L0.476074 18.1763C0.146484 18.7256 0 19.3115 0 19.8853C0 21.7529 1.25732 23.1934 3.33252 23.1934ZM3.34473 21.2769C2.49023 21.2769 1.97754 20.6177 1.97754 19.873C1.97754 19.6411 2.02637 19.3481 2.16064 19.0918L11.6211 2.6001C11.8774 2.14844 12.3413 1.95312 12.793 1.95312C13.2446 1.95312 13.6963 2.14844 13.9526 2.6001L23.4131 19.104C23.5474 19.3604 23.6084 19.6411 23.6084 19.873C23.6084 20.6177 23.0713 21.2769 22.229 21.2769Z" fill="#5ac8f5" fill-opacity="0.5"/>
  <path d="M12.8052 18.4814C14.856 18.4814 16.2231 17.1509 16.2231 15.1611C16.2231 14.1724 15.8203 13.2935 15.5151 12.6343C14.9658 11.4502 14.0747 9.99756 13.3179 8.81348C13.1592 8.59375 13.0005 8.48389 12.8052 8.48389C12.5977 8.48389 12.439 8.59375 12.2925 8.81348C11.5234 9.99756 10.6323 11.4502 10.083 12.6343C9.77783 13.2935 9.375 14.1724 9.375 15.1611C9.375 17.1509 10.7422 18.4814 12.8052 18.4814Z" fill="#5ac8f5"/>
 </g>
</svg>
