<?xml version="1.0" encoding="UTF-8"?>
<!--Generator: Apple Native CoreSVG 175.5-->
<!DOCTYPE svg
PUBLIC "-//W3C//DTD SVG 1.1//EN"
       "http://www.w3.org/Graphics/SVG/1.1/DTD/svg11.dtd">
<svg version="1.1" xmlns="http://www.w3.org/2000/svg" xmlns:xlink="http://www.w3.org/1999/xlink" width="31.7017" height="20.3003">
 <g>
  <rect height="20.3003" opacity="0" width="31.7017" x="0" y="0"/>
  <path d="M11.7188 10.144C11.6943 12.439 11.8774 14.6606 12.5122 16.9189C13.2446 19.3848 14.6362 20.2637 17.5537 20.2637L18.2251 20.2637C25.3662 20.2637 31.7017 15.6128 31.7017 10.144C31.7017 4.67529 25.3662 0 18.2251 0L17.5537 0C14.6484 0 13.2568 0.891113 12.5122 3.35693C11.8774 5.62744 11.6943 7.84912 11.7188 10.144ZM0 3.33252C0 3.88184 0.439453 4.30908 0.976562 4.30908L10.0586 4.30908C10.2783 3.35693 10.3882 2.85645 10.5713 2.35596L0.976562 2.35596C0.439453 2.35596 0 2.80762 0 3.33252ZM0 7.86133C0 8.39844 0.45166 8.83789 0.976562 8.83789L9.5459 8.8501C9.57031 8.17871 9.61914 7.53174 9.68018 6.88477L0.976562 6.88477C0.439453 6.88477 0 7.33643 0 7.86133ZM0 12.4146C0 12.9395 0.439453 13.3667 0.976562 13.3667L9.68018 13.3667C9.61914 12.7319 9.58252 12.085 9.5459 11.4258L0.976562 11.4258C0.439453 11.4258 0 11.8774 0 12.4146ZM0 16.9434C0 17.4683 0.439453 17.8955 0.976562 17.8955L10.5591 17.9077C10.4004 17.4438 10.1807 16.5283 10.0586 15.9668L0.976562 15.9546C0.439453 15.9546 0 16.4062 0 16.9434Z" fill="#5ac8f5" fill-opacity="0.25"/>
  <path d="M16.9922 14.8926C16.4673 14.8926 16.1377 14.5752 16.1377 14.0869C16.1377 13.916 16.1743 13.7451 16.272 13.501L19.4336 4.95605C19.6655 4.35791 20.0806 4.05273 20.7031 4.05273C21.3257 4.05273 21.7773 4.35791 21.9971 4.95605L25.1709 13.501C25.2563 13.7451 25.293 13.916 25.293 14.0869C25.293 14.5752 24.9512 14.8926 24.4385 14.8926C24.0234 14.8926 23.7305 14.6851 23.5596 14.1602L22.7417 11.7554L18.7012 11.7554L17.8711 14.1602C17.7002 14.6851 17.4072 14.8926 16.9922 14.8926ZM19.1528 10.376L22.2778 10.376L20.7764 6.01807L20.6665 6.01807Z" fill="#5ac8f5"/>
 </g>
</svg>
