<?xml version="1.0" encoding="UTF-8"?>
<!--Generator: Apple Native CoreSVG 175.5-->
<!DOCTYPE svg
PUBLIC "-//W3C//DTD SVG 1.1//EN"
       "http://www.w3.org/Graphics/SVG/1.1/DTD/svg11.dtd">
<svg version="1.1" xmlns="http://www.w3.org/2000/svg" xmlns:xlink="http://www.w3.org/1999/xlink" width="25.8301" height="25.5737">
 <g>
  <rect height="25.5737" opacity="0" width="25.8301" x="0" y="0"/>
  <path d="M9.75342 25.5737L22.0093 25.5737C24.5605 25.5737 25.8301 24.3164 25.8301 21.7896L25.8301 9.43604C25.8301 6.92139 24.5605 5.66406 22.0093 5.66406L18.9087 5.66406L18.9087 7.62939L21.9727 7.62939C23.1934 7.62939 23.8647 8.27637 23.8647 9.5459L23.8647 21.6919C23.8647 22.9614 23.1934 23.6084 21.9727 23.6084L9.77783 23.6084C8.58154 23.6084 7.88574 22.9614 7.88574 21.6919L7.88574 19.0063L5.92041 19.0063L5.92041 21.7896C5.92041 24.3042 7.20215 25.5737 9.75342 25.5737Z" fill="#5ac8f5" fill-opacity="0.5"/>
  <path d="M3.83301 19.9219L16.0889 19.9219C18.6401 19.9219 19.9097 18.6646 19.9097 16.1377L19.9097 3.79639C19.9097 1.26953 18.6401 0.012207 16.0889 0.012207L3.83301 0.012207C1.28174 0.012207 0 1.28174 0 3.79639L0 16.1377C0 18.6523 1.28174 19.9219 3.83301 19.9219ZM3.85742 17.9565C2.66113 17.9565 1.96533 17.3096 1.96533 16.04L1.96533 3.89404C1.96533 2.62451 2.66113 1.97754 3.85742 1.97754L16.0522 1.97754C17.2729 1.97754 17.9443 2.62451 17.9443 3.89404L17.9443 16.04C17.9443 17.3096 17.2729 17.9565 16.0522 17.9565ZM6.83594 15.5518C7.48291 15.5518 7.82471 15.1489 7.82471 14.4775L7.82471 11.438L10.0952 11.438L12.2192 14.917C12.5122 15.3809 12.7563 15.5518 13.1836 15.5518C13.7085 15.5518 14.0747 15.2222 14.0747 14.7217C14.0747 14.4653 14.0015 14.2578 13.855 14.0259L12.0239 11.1572C13.4521 10.6812 14.3799 9.39941 14.3799 7.88574C14.3799 5.68848 12.8174 4.28467 10.3394 4.28467L6.83594 4.28467C6.20117 4.28467 5.87158 4.73633 5.87158 5.39551L5.87158 14.4775C5.87158 15.1245 6.21338 15.5518 6.83594 15.5518ZM7.82471 10.0098L7.82471 5.77393L10.0952 5.77393C11.499 5.77393 12.4512 6.55518 12.4512 7.93457C12.4512 9.26514 11.5234 10.0098 10.0464 10.0098Z" fill="#5ac8f5"/>
 </g>
</svg>
