<?xml version="1.0" encoding="UTF-8"?>
<!--Generator: Apple Native CoreSVG 175.5-->
<!DOCTYPE svg
PUBLIC "-//W3C//DTD SVG 1.1//EN"
       "http://www.w3.org/Graphics/SVG/1.1/DTD/svg11.dtd">
<svg version="1.1" xmlns="http://www.w3.org/2000/svg" xmlns:xlink="http://www.w3.org/1999/xlink" width="19.4092" height="27.478">
 <g>
  <rect height="27.478" opacity="0" width="19.4092" x="0" y="0"/>
  <path d="M0 9.75342C0 12.6221 1.26953 15.2222 3.27148 17.0044L3.28369 26.2207C3.28369 26.9531 3.66211 27.2583 4.1626 27.2583C4.58984 27.2583 4.90723 27.0142 5.23682 26.6846L9.2041 22.7295C9.42383 22.5342 9.57031 22.4609 9.7168 22.4609C9.86328 22.4609 10.022 22.5342 10.2295 22.7295L14.1968 26.6846C14.5386 27.0264 14.8682 27.2583 15.271 27.2583C15.7959 27.2583 16.1621 26.9531 16.1621 26.2207L16.1621 16.9678C18.1396 15.1978 19.397 12.6099 19.4092 9.75342C19.4214 4.38232 15.0269 0 9.70459 0C4.37012 0 0 4.38232 0 9.75342ZM1.98975 9.75342C1.98975 5.41992 5.37109 1.94092 9.7168 1.94092C14.0503 1.94092 17.4316 5.41992 17.4438 9.75342C17.4561 14.0747 14.0503 17.5537 9.7168 17.5415C5.37109 17.5293 1.98975 14.0747 1.98975 9.75342Z" fill="#5ac8f5"/>
 </g>
</svg>
