<?xml version="1.0" encoding="UTF-8"?>
<!--Generator: Apple Native CoreSVG 175.5-->
<!DOCTYPE svg
PUBLIC "-//W3C//DTD SVG 1.1//EN"
       "http://www.w3.org/Graphics/SVG/1.1/DTD/svg11.dtd">
<svg version="1.1" xmlns="http://www.w3.org/2000/svg" xmlns:xlink="http://www.w3.org/1999/xlink" width="24.9023" height="24.9146">
 <g>
  <rect height="24.9146" opacity="0" width="24.9023" x="0" y="0"/>
  <path d="M12.4512 24.9023C19.2627 24.9023 24.9023 19.2505 24.9023 12.4512C24.9023 5.63965 19.2505 0 12.439 0C5.63965 0 0 5.63965 0 12.4512C0 19.2505 5.65186 24.9023 12.4512 24.9023ZM12.4512 22.8271C6.68945 22.8271 2.0874 18.2129 2.0874 12.4512C2.0874 6.68945 6.67725 2.0752 12.439 2.0752C18.2007 2.0752 22.8271 6.68945 22.8271 12.4512C22.8271 18.2129 18.2129 22.8271 12.4512 22.8271ZM7.49512 12.4634C7.49512 16.0767 9.46045 18.3228 12.439 18.3228C14.5996 18.3228 16.1377 17.2485 16.6992 15.625C16.7725 15.4419 16.8091 15.2466 16.8213 15.0391C16.8213 14.5996 16.5161 14.3066 16.0645 14.3066C15.6494 14.3066 15.4175 14.5264 15.2832 14.9414C14.978 15.9912 14.0137 16.7358 12.7808 16.8457L12.7808 15.0757C12.7808 13.9038 13.501 13.0859 14.5386 13.0859C14.7827 13.0859 14.9536 13.1348 15.1001 13.1348C15.4541 13.1348 15.6982 12.915 15.6982 12.5977C15.6982 12.1582 15.2466 11.8652 14.5874 11.8652C13.855 11.8652 13.147 12.2437 12.7686 12.9639L12.7686 12.4512C12.7686 12.0605 12.5122 11.8286 12.1704 11.8286C11.8164 11.8286 11.5723 12.085 11.5723 12.4512L11.5723 16.7358C10.0464 16.3086 9.13086 14.7217 9.13086 12.4512C9.13086 9.80225 10.4248 8.08105 12.4268 8.08105C13.7573 8.08105 14.8193 8.89893 15.1978 10.0342C15.332 10.4126 15.5396 10.6689 15.979 10.6689C16.4429 10.6689 16.7236 10.376 16.7236 9.92432C16.7236 9.7168 16.687 9.49707 16.6138 9.30176C16.0522 7.70264 14.3921 6.604 12.439 6.604C9.46045 6.604 7.49512 8.88672 7.49512 12.4634Z" fill="#5ac8f5"/>
 </g>
</svg>
