<?xml version="1.0" encoding="UTF-8"?>
<!--Generator: Apple Native CoreSVG 175.5-->
<!DOCTYPE svg
PUBLIC "-//W3C//DTD SVG 1.1//EN"
       "http://www.w3.org/Graphics/SVG/1.1/DTD/svg11.dtd">
<svg version="1.1" xmlns="http://www.w3.org/2000/svg" xmlns:xlink="http://www.w3.org/1999/xlink" width="24.6489" height="28.9548">
 <g>
  <rect height="28.9548" opacity="0" width="24.6489" x="0" y="0"/>
  <path d="M13.8691 6.24377L15.81 6.95177L17.7875 1.49523C18.0073 0.897085 17.7631 0.335562 17.1894 0.115835C16.6157-0.0916841 16.0785 0.176871 15.8588 0.787222ZM14.0766 2.23986C6.93548 0.775015 1.64983 5.57238 0.0873311 9.91808C-0.169017 10.6017 0.17278 11.1754 0.673269 11.3707C1.0761 11.5172 1.4301 11.3463 1.74749 11.09C2.88274 10.2477 3.94475 9.89367 5.20208 10.3575C6.04436 10.6627 6.53264 11.2364 6.82561 11.8102C7.00872 12.1642 7.36272 12.1764 7.46038 11.7858C8.49798 7.72082 10.9882 4.31505 14.0766 2.23986ZM16.5302 1.80041C13.0512 4.15636 10.0116 8.28234 8.96184 12.628C8.86419 13.0431 9.18157 13.3238 9.66985 13.1407C10.6464 12.7379 11.5864 12.6036 12.4775 12.9332C13.3686 13.2506 14.0033 13.9586 14.5038 14.8986C14.748 15.338 15.1508 15.3502 15.3583 14.9596C17.3481 10.9679 17.6777 5.82873 16.5302 1.80041ZM18.1904 3.72912C19.2157 7.29357 18.9228 11.4928 17.1283 15.3136C16.9574 15.6676 17.2138 15.8995 17.5922 15.7286C18.2026 15.4723 18.935 15.3502 19.7651 15.6554C21.0346 16.1193 21.6205 17.0836 21.9501 18.4386C22.0234 18.8414 22.2065 19.2076 22.5849 19.3419C23.0976 19.525 23.7324 19.3053 23.9765 18.6095C25.5634 14.276 24.6113 7.20812 18.1904 3.72912ZM6.1054 27.5817C5.91008 28.1188 6.17864 28.7047 6.71575 28.9C7.24065 29.0831 7.851 28.7902 8.03411 28.2775L13.6738 12.8111L11.745 12.1031Z" fill="#5ac8f5"/>
 </g>
</svg>
