<?xml version="1.0" encoding="UTF-8"?>
<!--Generator: Apple Native CoreSVG 175.5-->
<!DOCTYPE svg
PUBLIC "-//W3C//DTD SVG 1.1//EN"
       "http://www.w3.org/Graphics/SVG/1.1/DTD/svg11.dtd">
<svg version="1.1" xmlns="http://www.w3.org/2000/svg" xmlns:xlink="http://www.w3.org/1999/xlink" width="40.3931" height="28.5045">
 <g>
  <rect height="28.5045" opacity="0" width="40.3931" x="0" y="0"/>
  <path d="M15.332 25.4278L30.6763 25.4278C32.5928 25.4278 33.2764 24.8785 33.2764 23.8043C33.2764 20.6549 29.3335 16.3092 22.998 16.3092C16.6748 16.3092 12.7319 20.6549 12.7319 23.8043C12.7319 24.8785 13.4155 25.4278 15.332 25.4278ZM23.0103 14.1241C25.6348 14.1241 27.8931 11.7803 27.8931 8.72859C27.8931 5.71345 25.6226 3.47956 23.0103 3.47956C20.3979 3.47956 18.1274 5.76228 18.1274 8.753C18.1274 11.7803 20.3857 14.1241 23.0103 14.1241ZM2.14844 25.4278L11.4258 25.4278C10.1562 23.5845 11.7065 19.8736 14.3311 17.8472C12.9761 16.9439 11.2305 16.2725 8.94775 16.2725C3.44238 16.2725 0 20.3375 0 23.7188C0 24.8175 0.610352 25.4278 2.14844 25.4278ZM8.95996 14.4049C11.2305 14.4049 13.208 12.3541 13.208 9.70515C13.208 7.08064 11.2183 5.13972 8.95996 5.13972C6.68945 5.13972 4.6875 7.12947 4.69971 9.72956C4.69971 12.3541 6.67725 14.4049 8.95996 14.4049Z" fill="#5ac8f5"/>
  <path d="M32.0435 13.7579C32.4585 14.0386 33.0322 13.9532 33.3618 13.4771C34.3018 12.2442 34.8633 10.4254 34.8633 8.55769C34.8633 6.69001 34.3018 4.88337 33.3618 3.63826C33.0322 3.16218 32.4585 3.07673 32.0435 3.35749C31.5552 3.69929 31.4697 4.30964 31.8604 4.81013C32.5684 5.78669 32.9712 7.14167 32.9712 8.55769C32.9712 9.9737 32.5562 11.3165 31.8604 12.3052C31.4819 12.8179 31.5552 13.4039 32.0435 13.7579Z" fill="#5ac8f5" fill-opacity="0.5"/>
  <path d="M36.5723 16.9439C37.0239 17.2491 37.5854 17.1392 37.915 16.6754C39.4775 14.5269 40.3931 11.5728 40.3931 8.55769C40.3931 5.54255 39.4897 2.56404 37.915 0.440013C37.5854-0.0238539 37.0239-0.133717 36.5723 0.171459C36.1206 0.476634 36.0474 1.05036 36.4014 1.55085C37.7319 3.43074 38.501 5.95759 38.501 8.55769C38.501 11.1578 37.7075 13.6724 36.4014 15.5645C36.0596 16.065 36.1206 16.6387 36.5723 16.9439Z" fill="#5ac8f5" fill-opacity="0.5"/>
 </g>
</svg>
