<?xml version="1.0" encoding="UTF-8"?>
<!--Generator: Apple Native CoreSVG 175.5-->
<!DOCTYPE svg
PUBLIC "-//W3C//DTD SVG 1.1//EN"
       "http://www.w3.org/Graphics/SVG/1.1/DTD/svg11.dtd">
<svg version="1.1" xmlns="http://www.w3.org/2000/svg" xmlns:xlink="http://www.w3.org/1999/xlink" width="17.5781" height="27.6489">
 <g>
  <rect height="27.6489" opacity="0" width="17.5781" x="0" y="0"/>
  <path d="M2.81982 27.6245L14.7461 27.6245C16.4429 27.6245 17.5781 26.4648 17.5781 24.707L17.5781 2.91748C17.5781 1.15967 16.4429 0 14.7461 0L2.81982 0C1.13525 0 0 1.15967 0 2.91748L0 24.707C0 26.4648 1.13525 27.6245 2.81982 27.6245ZM2.91748 25.6592C2.34375 25.6592 1.96533 25.2808 1.96533 24.6948L1.96533 2.94189C1.96533 2.35596 2.34375 1.96533 2.91748 1.96533L14.6606 1.96533C15.2222 1.96533 15.6128 2.35596 15.6128 2.94189L15.6128 24.6948C15.6128 25.2808 15.2222 25.6592 14.6606 25.6592ZM4.23584 7.33643C4.60205 7.33643 4.84619 7.08008 4.84619 6.71387L4.84619 4.01611C4.84619 3.6499 4.60205 3.39355 4.23584 3.39355C3.86963 3.39355 3.61328 3.6499 3.61328 4.01611L3.61328 6.71387C3.61328 7.08008 3.86963 7.33643 4.23584 7.33643ZM1.45264 10.8154L16.1377 10.8154L16.1377 9.21631L1.45264 9.21631ZM4.23584 15.918C4.60205 15.918 4.84619 15.6738 4.84619 15.3076L4.84619 12.5977C4.84619 12.2314 4.60205 11.9873 4.23584 11.9873C3.86963 11.9873 3.61328 12.2314 3.61328 12.5977L3.61328 15.3076C3.61328 15.6738 3.86963 15.918 4.23584 15.918ZM1.45264 23.877L16.1377 23.877L16.1377 22.2778L1.45264 22.2778Z" fill="#5ac8f5"/>
 </g>
</svg>
