<?xml version="1.0" encoding="UTF-8"?>
<!--Generator: Apple Native CoreSVG 175.5-->
<!DOCTYPE svg
PUBLIC "-//W3C//DTD SVG 1.1//EN"
       "http://www.w3.org/Graphics/SVG/1.1/DTD/svg11.dtd">
<svg version="1.1" xmlns="http://www.w3.org/2000/svg" xmlns:xlink="http://www.w3.org/1999/xlink" width="30.6885" height="27.2339">
 <g>
  <rect height="27.2339" opacity="0" width="30.6885" x="0" y="0"/>
  <path d="M0 15.3809C0 18.4937 2.62451 20.9961 6.62842 20.9961L14.4531 20.9961L14.4531 26.2939C14.4531 26.8066 14.9048 27.2339 15.4297 27.2339C15.9546 27.2339 16.394 26.8066 16.394 26.2939L16.394 20.9961L24.8169 20.9961C28.3325 20.9961 30.6885 18.7988 30.6885 15.9058C30.6885 13.5132 29.2114 11.3159 26.8311 10.3271C26.8555 4.88281 22.937 0.952148 17.9443 0.952148C14.6362 0.952148 12.2803 2.72217 10.8154 4.8584C8.04443 4.11377 4.54102 6.26221 4.47998 9.69238C1.72119 10.1318 0 12.561 0 15.3809ZM14.4531 20.4956L14.4531 14.209L14.5264 12.3901L13.9038 13.0493L11.853 15.2222C11.6821 15.4175 11.4136 15.5151 11.1816 15.5151C10.6689 15.5151 10.3027 15.1489 10.3027 14.6606C10.3027 14.3921 10.4126 14.1968 10.5957 14.0137L14.7217 10.0342C14.9658 9.79004 15.1733 9.70459 15.4297 9.70459C15.6738 9.70459 15.8813 9.79004 16.1255 10.0342L20.2515 14.0137C20.4346 14.1968 20.5444 14.3921 20.5444 14.6606C20.5444 15.1489 20.1538 15.5151 19.6533 15.5151C19.4214 15.5151 19.165 15.4175 18.9941 15.2222L16.9434 13.0493L16.3208 12.3901L16.394 14.209L16.394 20.4956C16.394 21.0327 15.9546 21.46 15.4297 21.46C14.8926 21.46 14.4531 21.0327 14.4531 20.4956Z" fill="#5ac8f5"/>
 </g>
</svg>
