<?xml version="1.0" encoding="UTF-8"?>
<!--Generator: Apple Native CoreSVG 175.5-->
<!DOCTYPE svg
PUBLIC "-//W3C//DTD SVG 1.1//EN"
       "http://www.w3.org/Graphics/SVG/1.1/DTD/svg11.dtd">
<svg version="1.1" xmlns="http://www.w3.org/2000/svg" xmlns:xlink="http://www.w3.org/1999/xlink" width="39.3341" height="19.2993">
 <g>
  <rect height="19.2993" opacity="0" width="39.3341" x="0" y="0"/>
  <path d="M3.76282 15.3442C4.64172 16.5649 6.1554 15.4175 5.43518 14.4043L2.04163 9.63135L5.43518 4.88281C6.1554 3.88184 4.64172 2.72217 3.76282 3.94287L0.283813 8.77686C-0.0946045 9.31396-0.0946045 9.97314 0.283813 10.498ZM12.442 19.2871L35.5011 19.2871C38.0402 19.2871 39.3341 18.0176 39.3341 15.5029L39.3341 3.77197C39.3341 1.26953 38.0402 0 35.5011 0L12.442 0C9.87854 0 8.60901 1.25732 8.60901 3.77197L8.60901 15.5029C8.60901 18.0176 9.87854 19.2871 12.442 19.2871ZM13.2477 6.71387C12.8937 6.71387 12.6862 6.49414 12.6862 6.15234L12.6862 4.99268C12.6862 4.65088 12.8937 4.43115 13.2477 4.43115L14.3951 4.43115C14.7491 4.43115 14.9689 4.65088 14.9689 4.99268L14.9689 6.15234C14.9689 6.49414 14.7491 6.71387 14.3951 6.71387ZM17.2882 6.71387C16.9342 6.71387 16.7267 6.49414 16.7267 6.15234L16.7267 4.99268C16.7267 4.65088 16.9342 4.43115 17.2882 4.43115L18.4479 4.43115C18.8019 4.43115 19.0216 4.65088 19.0216 4.99268L19.0216 6.15234C19.0216 6.49414 18.8019 6.71387 18.4479 6.71387ZM21.3409 6.71387C20.9991 6.71387 20.7794 6.49414 20.7794 6.15234L20.7794 4.99268C20.7794 4.65088 20.9991 4.43115 21.3409 4.43115L22.4884 4.43115C22.8424 4.43115 23.0621 4.65088 23.0621 4.99268L23.0621 6.15234C23.0621 6.49414 22.8424 6.71387 22.4884 6.71387ZM25.4059 6.71387C25.0519 6.71387 24.8322 6.49414 24.8322 6.15234L24.8322 4.99268C24.8322 4.65088 25.0519 4.43115 25.4059 4.43115L26.5533 4.43115C26.8951 4.43115 27.1149 4.65088 27.1149 4.99268L27.1149 6.15234C27.1149 6.49414 26.8951 6.71387 26.5533 6.71387ZM29.4464 6.71387C29.0924 6.71387 28.8727 6.49414 28.8727 6.15234L28.8727 4.99268C28.8727 4.65088 29.0924 4.43115 29.4464 4.43115L30.6061 4.43115C30.9479 4.43115 31.1676 4.65088 31.1676 4.99268L31.1676 6.15234C31.1676 6.49414 30.9479 6.71387 30.6061 6.71387ZM33.4991 6.71387C33.1451 6.71387 32.9254 6.49414 32.9254 6.15234L32.9254 4.99268C32.9254 4.65088 33.1451 4.43115 33.4991 4.43115L34.6466 4.43115C35.0006 4.43115 35.2081 4.65088 35.2081 4.99268L35.2081 6.15234C35.2081 6.49414 35.0006 6.71387 34.6466 6.71387ZM13.2477 10.7666C12.8937 10.7666 12.6862 10.5469 12.6862 10.2051L12.6862 9.04541C12.6862 8.70361 12.8937 8.48389 13.2477 8.48389L14.3951 8.48389C14.7491 8.48389 14.9689 8.70361 14.9689 9.04541L14.9689 10.2051C14.9689 10.5469 14.7491 10.7666 14.3951 10.7666ZM17.2882 10.7666C16.9342 10.7666 16.7267 10.5469 16.7267 10.2051L16.7267 9.04541C16.7267 8.70361 16.9342 8.48389 17.2882 8.48389L18.4479 8.48389C18.8019 8.48389 19.0216 8.70361 19.0216 9.04541L19.0216 10.2051C19.0216 10.5469 18.8019 10.7666 18.4479 10.7666ZM21.3409 10.7666C20.9991 10.7666 20.7794 10.5469 20.7794 10.2051L20.7794 9.04541C20.7794 8.70361 20.9991 8.48389 21.3409 8.48389L22.4884 8.48389C22.8424 8.48389 23.0621 8.70361 23.0621 9.04541L23.0621 10.2051C23.0621 10.5469 22.8424 10.7666 22.4884 10.7666ZM25.4059 10.7666C25.0519 10.7666 24.8322 10.5469 24.8322 10.2051L24.8322 9.04541C24.8322 8.70361 25.0519 8.48389 25.4059 8.48389L26.5533 8.48389C26.8951 8.48389 27.1149 8.70361 27.1149 9.04541L27.1149 10.2051C27.1149 10.5469 26.8951 10.7666 26.5533 10.7666ZM29.4464 10.7666C29.0924 10.7666 28.8727 10.5469 28.8727 10.2051L28.8727 9.04541C28.8727 8.70361 29.0924 8.48389 29.4464 8.48389L30.6061 8.48389C30.9479 8.48389 31.1676 8.70361 31.1676 9.04541L31.1676 10.2051C31.1676 10.5469 30.9479 10.7666 30.6061 10.7666ZM33.4991 10.7666C33.1451 10.7666 32.9254 10.5469 32.9254 10.2051L32.9254 9.04541C32.9254 8.70361 33.1451 8.48389 33.4991 8.48389L34.6466 8.48389C35.0006 8.48389 35.2081 8.70361 35.2081 9.04541L35.2081 10.2051C35.2081 10.5469 35.0006 10.7666 34.6466 10.7666ZM13.2477 14.8193C12.8937 14.8193 12.6862 14.5996 12.6862 14.2578L12.6862 13.0981C12.6862 12.7563 12.8937 12.5366 13.2477 12.5366L14.3951 12.5366C14.7491 12.5366 14.9689 12.7563 14.9689 13.0981L14.9689 14.2578C14.9689 14.5996 14.7491 14.8193 14.3951 14.8193ZM17.4225 14.8193C16.983 14.8193 16.7267 14.563 16.7267 14.1235L16.7267 13.2202C16.7267 12.793 16.983 12.5366 17.4225 12.5366L30.4718 12.5366C30.899 12.5366 31.1676 12.793 31.1676 13.2202L31.1676 14.1235C31.1676 14.563 30.899 14.8193 30.4718 14.8193ZM33.4991 14.8193C33.1451 14.8193 32.9254 14.5996 32.9254 14.2578L32.9254 13.0981C32.9254 12.7563 33.1451 12.5366 33.4991 12.5366L34.6466 12.5366C35.0006 12.5366 35.2081 12.7563 35.2081 13.0981L35.2081 14.2578C35.2081 14.5996 35.0006 14.8193 34.6466 14.8193Z" fill="#5ac8f5"/>
 </g>
</svg>
