<?xml version="1.0" encoding="UTF-8"?>
<!--Generator: Apple Native CoreSVG 175.5-->
<!DOCTYPE svg
PUBLIC "-//W3C//DTD SVG 1.1//EN"
       "http://www.w3.org/Graphics/SVG/1.1/DTD/svg11.dtd">
<svg version="1.1" xmlns="http://www.w3.org/2000/svg" xmlns:xlink="http://www.w3.org/1999/xlink" width="24.9023" height="24.9146">
 <g>
  <rect height="24.9146" opacity="0" width="24.9023" x="0" y="0"/>
  <path d="M12.4512 24.9023C19.2627 24.9023 24.9023 19.2505 24.9023 12.4512C24.9023 5.63965 19.2505 0 12.439 0C5.63965 0 0 5.63965 0 12.4512C0 19.2505 5.65186 24.9023 12.4512 24.9023ZM12.4512 22.8271C6.68945 22.8271 2.0874 18.2129 2.0874 12.4512C2.0874 6.68945 6.67725 2.0752 12.439 2.0752C18.2007 2.0752 22.8271 6.68945 22.8271 12.4512C22.8271 18.2129 18.2129 22.8271 12.4512 22.8271ZM12.4512 18.1763C14.6118 18.1763 16.333 17.1509 16.9189 15.5029C17.0044 15.2832 17.0288 15.1245 17.0288 14.9414C17.0288 14.4287 16.6992 14.1113 16.1865 14.1113C15.8203 14.1113 15.5762 14.2944 15.3809 14.7095C14.8804 15.9058 13.855 16.5649 12.4756 16.5649C10.5347 16.5649 9.22852 14.8682 9.22852 12.3413C9.22852 9.81445 10.5347 8.10547 12.4756 8.10547C13.855 8.10547 14.8804 8.76465 15.3809 9.97314C15.5762 10.3882 15.8203 10.5591 16.1865 10.5591C16.6992 10.5591 17.0288 10.2417 17.0288 9.729C17.0288 9.53369 17.0044 9.38721 16.9189 9.16748C16.3208 7.53174 14.6118 6.49414 12.4512 6.49414C9.28955 6.49414 7.26318 8.77686 7.26318 12.3413C7.26318 15.9058 9.27734 18.1763 12.4512 18.1763Z" fill="#5ac8f5"/>
 </g>
</svg>
