<?xml version="1.0" encoding="UTF-8"?>
<!--Generator: Apple Native CoreSVG 175.5-->
<!DOCTYPE svg
PUBLIC "-//W3C//DTD SVG 1.1//EN"
       "http://www.w3.org/Graphics/SVG/1.1/DTD/svg11.dtd">
<svg version="1.1" xmlns="http://www.w3.org/2000/svg" xmlns:xlink="http://www.w3.org/1999/xlink" width="28.7842" height="22.4731">
 <g>
  <rect height="22.4731" opacity="0" width="28.7842" x="0" y="0"/>
  <path d="M21.1548 12.085L19.5557 12.085C19.1406 14.563 16.9922 16.4673 14.4165 16.4673C11.8286 16.4673 9.65576 14.563 9.25293 12.085L7.65381 12.085C8.06885 15.4419 10.9619 18.042 14.4165 18.042C17.8467 18.042 20.7153 15.4297 21.1548 12.085ZM19.5679 10.4126L21.1548 10.4126C20.752 7.08008 17.8467 4.45557 14.4165 4.45557C10.9619 4.45557 8.05664 7.08008 7.65381 10.4126L9.24072 10.4126C9.64355 7.94678 11.8286 6.03027 14.4165 6.03027C16.9922 6.03027 19.1772 7.94678 19.5679 10.4126ZM3.83301 22.4731L13.5742 22.4731L13.5742 20.5078L3.85742 20.5078C2.63672 20.5078 1.96533 19.8608 1.96533 18.5913L1.96533 12.0728L0 12.0728L0 18.7012C0 21.2158 1.28174 22.4731 3.83301 22.4731ZM15.2466 22.4731L24.9512 22.4731C27.5146 22.4731 28.7842 21.2158 28.7842 18.7012L28.7842 12.0728L26.8188 12.0728L26.8188 18.5913C26.8188 19.8608 26.1353 20.5078 24.9268 20.5078L15.2466 20.5078ZM26.8188 10.4126L28.7842 10.4126L28.7842 3.78418C28.7842 1.26953 27.5146 0 24.9512 0L15.2466 0L15.2466 1.96533L24.9268 1.96533C26.1353 1.96533 26.8188 2.62451 26.8188 3.89404ZM0 10.4126L1.96533 10.4126L1.96533 3.89404C1.96533 2.62451 2.63672 1.96533 3.85742 1.96533L13.5742 1.96533L13.5742 0L3.83301 0C1.28174 0 0 1.26953 0 3.78418Z" fill="#5ac8f5"/>
 </g>
</svg>
