<?xml version="1.0" encoding="UTF-8"?>
<!--Generator: Apple Native CoreSVG 175.5-->
<!DOCTYPE svg
PUBLIC "-//W3C//DTD SVG 1.1//EN"
       "http://www.w3.org/Graphics/SVG/1.1/DTD/svg11.dtd">
<svg version="1.1" xmlns="http://www.w3.org/2000/svg" xmlns:xlink="http://www.w3.org/1999/xlink" width="24.9023" height="24.9146">
 <g>
  <rect height="24.9146" opacity="0" width="24.9023" x="0" y="0"/>
  <path d="M12.4512 24.9023C19.2627 24.9023 24.9023 19.2505 24.9023 12.4512C24.9023 5.63965 19.2505 0 12.439 0C5.63965 0 0 5.63965 0 12.4512C0 19.2505 5.65186 24.9023 12.4512 24.9023ZM12.4512 22.8271C6.68945 22.8271 2.0874 18.2129 2.0874 12.4512C2.0874 6.68945 6.67725 2.0752 12.439 2.0752C18.2007 2.0752 22.8271 6.68945 22.8271 12.4512C22.8271 18.2129 18.2129 22.8271 12.4512 22.8271Z" fill="#5ac8f5" fill-opacity="0.5"/>
  <path d="M7.18994 15.3931L13.2446 15.3931C14.8926 15.3931 16.1499 14.1357 16.1499 12.5244C16.1499 10.9497 14.8804 9.75342 13.1958 9.7168C12.5366 8.48389 11.3647 7.72705 9.96094 7.72705C8.10547 7.72705 6.54297 9.16748 6.34766 11.0107C5.41992 11.3281 4.77295 12.1338 4.77295 13.1714C4.77295 14.4531 5.74951 15.3931 7.18994 15.3931ZM20.166 9.41162C20.166 9.19189 20.0684 9.04541 19.8853 9.04541C19.6167 9.04541 19.165 9.38721 18.3838 9.38721C16.9556 9.38721 16.0522 8.55713 16.0522 7.23877C16.0522 6.48193 16.4795 5.93262 16.4795 5.61523C16.4795 5.44434 16.333 5.32227 16.1133 5.33447C14.9536 5.3833 13.5132 6.75049 13.3179 8.43506C13.4521 8.58154 13.562 8.74023 13.6841 8.89893C15.4907 9.11865 16.8213 10.4614 16.9922 12.1948C18.9575 11.9873 20.166 10.437 20.166 9.41162ZM8.75244 18.103C8.6792 18.2495 8.75244 18.3716 8.91113 18.3716L9.96094 18.3716L9.14307 20.3491C9.08203 20.5078 9.26514 20.6055 9.39941 20.4712L12.0972 17.7246C12.2192 17.5903 12.1582 17.4072 11.9751 17.4072L10.7422 17.4072L11.3281 16.2964C11.4014 16.1621 11.3525 16.04 11.1938 16.04L9.87549 16.04C9.70459 16.04 9.61914 16.1011 9.55811 16.2354Z" fill="#5ac8f5"/>
 </g>
</svg>
