<?xml version="1.0" encoding="UTF-8"?>
<!--Generator: Apple Native CoreSVG 175.5-->
<!DOCTYPE svg
PUBLIC "-//W3C//DTD SVG 1.1//EN"
       "http://www.w3.org/Graphics/SVG/1.1/DTD/svg11.dtd">
<svg version="1.1" xmlns="http://www.w3.org/2000/svg" xmlns:xlink="http://www.w3.org/1999/xlink" width="28.7842" height="20.8618">
 <g>
  <rect height="20.8618" opacity="0" width="28.7842" x="0" y="0"/>
  <path d="M3.83301 20.8618L24.9512 20.8618C27.5146 20.8618 28.7842 19.5923 28.7842 17.0776L28.7842 9.85107C28.7842 8.75244 28.6377 8.20312 28.0884 7.53174L23.877 2.31934C22.4487 0.561523 21.814 0.0244141 19.6411 0.0244141L9.14307 0.0244141C6.97021 0.0244141 6.34766 0.561523 4.91943 2.31934L0.695801 7.53174C0.158691 8.20312 0 8.75244 0 9.85107L0 17.0776C0 19.6045 1.28174 20.8618 3.83301 20.8618ZM3.85742 18.8965C2.63672 18.8965 1.96533 18.2495 1.96533 16.98L1.96533 10.9009L9.70459 10.9009C9.99756 13.1836 11.9141 14.8682 14.3921 14.8682C16.8701 14.8682 18.7866 13.1714 19.0796 10.9009L26.8188 10.9009L26.8188 16.98C26.8188 18.2495 26.1353 18.8965 24.9268 18.8965ZM14.3921 13.0615C12.6709 13.0615 11.5601 11.5601 11.5601 10.144L11.5601 10.1074C11.5601 9.59473 11.2549 9.11865 10.6201 9.11865L2.57568 9.11865C2.17285 9.11865 2.0874 8.76465 2.29492 8.5083L6.82373 2.79541C7.42188 2.03857 8.10547 1.7334 8.99658 1.7334L19.7876 1.7334C20.6787 1.7334 21.3623 2.03857 21.9604 2.79541L26.5015 8.5083C26.6968 8.76465 26.6235 9.11865 26.2207 9.11865L18.1641 9.11865C17.5293 9.11865 17.2363 9.59473 17.2363 10.1074L17.2363 10.144C17.2363 11.5601 16.1255 13.0615 14.3921 13.0615Z" fill="#5ac8f5"/>
 </g>
</svg>
