<?xml version="1.0" encoding="UTF-8"?>
<!--Generator: Apple Native CoreSVG 175.5-->
<!DOCTYPE svg
PUBLIC "-//W3C//DTD SVG 1.1//EN"
       "http://www.w3.org/Graphics/SVG/1.1/DTD/svg11.dtd">
<svg version="1.1" xmlns="http://www.w3.org/2000/svg" xmlns:xlink="http://www.w3.org/1999/xlink" width="21.936" height="20.6177">
 <g>
  <rect height="20.6177" opacity="0" width="21.936" x="0" y="0"/>
  <path d="M0 2.6001L0 17.9443C0 19.8608 0.549316 20.5444 1.62354 20.5444C4.77295 20.5444 9.11865 16.6016 9.11865 10.2783C9.11865 3.94287 4.77295 0 1.62354 0C0.549316 0 0 0.683594 0 2.6001ZM11.3037 10.2783C11.3037 12.9028 13.6475 15.1611 16.6992 15.1611C19.7021 15.1611 21.936 12.8906 21.936 10.2783C21.936 7.66602 19.6533 5.39551 16.6748 5.39551C13.6475 5.39551 11.3037 7.66602 11.3037 10.2783Z" fill="#5ac8f5"/>
 </g>
</svg>
