<?xml version="1.0" encoding="UTF-8"?>
<!--Generator: Apple Native CoreSVG 175.5-->
<!DOCTYPE svg
PUBLIC "-//W3C//DTD SVG 1.1//EN"
       "http://www.w3.org/Graphics/SVG/1.1/DTD/svg11.dtd">
<svg version="1.1" xmlns="http://www.w3.org/2000/svg" xmlns:xlink="http://www.w3.org/1999/xlink" width="22.4731" height="22.4976">
 <g>
  <rect height="22.4976" opacity="0" width="22.4731" x="0" y="0"/>
  <path d="M6.46973 16.9678L16.0034 16.9678C16.6626 16.9678 17.1509 16.4795 17.1509 15.8203L17.1509 6.66504C17.1509 6.00586 16.6626 5.51758 16.0034 5.51758L6.46973 5.51758C5.81055 5.51758 5.32227 6.00586 5.32227 6.66504L5.32227 15.8203C5.32227 16.4795 5.81055 16.9678 6.46973 16.9678ZM8.91113 11.2793C8.55713 11.2793 8.27637 11.0107 8.27637 10.6323L8.27637 8.54492C8.27637 8.17871 8.55713 7.88574 8.91113 7.88574C9.27734 7.88574 9.57031 8.17871 9.57031 8.54492L9.57031 10.6323C9.57031 11.0107 9.27734 11.2793 8.91113 11.2793ZM13.5498 11.2793C13.1836 11.2793 12.9028 11.0107 12.9028 10.6323L12.9028 8.54492C12.9028 8.17871 13.1836 7.88574 13.5498 7.88574C13.9038 7.88574 14.1968 8.17871 14.1968 8.54492L14.1968 10.6323C14.1968 11.0107 13.9038 11.2793 13.5498 11.2793ZM10.4614 14.9902C10.2295 14.9902 10.1196 14.8804 10.1196 14.6484L10.1196 13.916C10.1196 13.2812 10.5957 12.793 11.2427 12.793C11.8652 12.793 12.3535 13.2812 12.3535 13.916L12.3535 14.6484C12.3535 14.8804 12.2437 14.9902 12.0117 14.9902ZM3.83301 22.4976L18.6401 22.4976C21.2036 22.4976 22.4731 21.228 22.4731 18.7134L22.4731 3.80859C22.4731 1.29395 21.2036 0.0244141 18.6401 0.0244141L3.83301 0.0244141C1.28174 0.0244141 0 1.28174 0 3.80859L0 18.7134C0 21.2402 1.28174 22.4976 3.83301 22.4976ZM3.85742 20.5322C2.63672 20.5322 1.96533 19.8853 1.96533 18.6157L1.96533 3.90625C1.96533 2.63672 2.63672 1.98975 3.85742 1.98975L18.6157 1.98975C19.8242 1.98975 20.5078 2.63672 20.5078 3.90625L20.5078 18.6157C20.5078 19.8853 19.8242 20.5322 18.6157 20.5322Z" fill="#5ac8f5"/>
 </g>
</svg>
