<?xml version="1.0" encoding="UTF-8"?>
<!--Generator: Apple Native CoreSVG 175.5-->
<!DOCTYPE svg
PUBLIC "-//W3C//DTD SVG 1.1//EN"
       "http://www.w3.org/Graphics/SVG/1.1/DTD/svg11.dtd">
<svg version="1.1" xmlns="http://www.w3.org/2000/svg" xmlns:xlink="http://www.w3.org/1999/xlink" width="22.3389" height="22.6685">
 <g>
  <rect height="22.6685" opacity="0" width="22.3389" x="0" y="0"/>
  <path d="M0 14.1724C0 15.7837 1.31836 17.1021 2.92969 17.1021C4.54102 17.1021 5.87158 15.7837 5.87158 14.1724C5.87158 12.561 4.54102 11.2427 2.92969 11.2427C1.31836 11.2427 0 12.561 0 14.1724ZM1.50146 14.1724C1.50146 13.3667 2.13623 12.7441 2.94189 12.7441C3.74756 12.7441 4.37012 13.3667 4.37012 14.1724C4.37012 14.978 3.74756 15.6006 2.94189 15.6006C2.13623 15.6006 1.50146 14.978 1.50146 14.1724ZM2.94189 0C2.39258 0 1.95312 0.439453 1.95312 0.98877L1.95312 12.2314L3.91846 12.2314L3.91846 0.98877C3.91846 0.439453 3.49121 0 2.94189 0ZM2.94189 21.4844C3.49121 21.4844 3.91846 21.0449 3.91846 20.5444L3.91846 16.2964L1.95312 16.2964L1.95312 20.5444C1.95312 21.0449 2.39258 21.4844 2.94189 21.4844ZM8.22754 7.1167C8.22754 8.72803 9.55811 10.0464 11.1694 10.0464C12.7808 10.0464 14.0991 8.72803 14.0991 7.1167C14.0991 5.50537 12.7808 4.18701 11.1694 4.18701C9.55811 4.18701 8.22754 5.50537 8.22754 7.1167ZM9.74121 7.1167C9.74121 6.32324 10.376 5.68848 11.1694 5.68848C11.9751 5.68848 12.5977 6.32324 12.5977 7.1167C12.5977 7.92236 11.9751 8.54492 11.1694 8.54492C10.376 8.54492 9.74121 7.92236 9.74121 7.1167ZM11.1694 0C10.6201 0 10.1929 0.439453 10.1929 0.939941L10.1929 5.01709L12.1582 5.01709L12.1582 0.939941C12.1582 0.439453 11.7188 0 11.1694 0ZM11.1694 21.4844C11.7188 21.4844 12.1582 21.0449 12.1582 20.4956L12.1582 9.05762L10.1929 9.05762L10.1929 20.4956C10.1929 21.0449 10.6201 21.4844 11.1694 21.4844ZM16.4795 14.1724C16.4795 15.7837 17.7979 17.1021 19.4092 17.1021C21.0205 17.1021 22.3389 15.7837 22.3389 14.1724C22.3389 12.561 21.0205 11.2427 19.4092 11.2427C17.7979 11.2427 16.4795 12.561 16.4795 14.1724ZM17.981 14.1724C17.981 13.3667 18.6157 12.7441 19.4092 12.7441C20.2271 12.7441 20.8374 13.3667 20.8374 14.1724C20.8374 14.978 20.2271 15.6006 19.4092 15.6006C18.6157 15.6006 17.981 14.978 17.981 14.1724ZM19.4092 0C18.8599 0 18.4204 0.439453 18.4204 0.98877L18.4204 12.2925L20.3857 12.2925L20.3857 0.98877C20.3857 0.439453 19.9585 0 19.4092 0ZM19.4092 21.4844C19.9585 21.4844 20.3857 21.0449 20.3857 20.5444L20.3857 16.1255L18.4204 16.1255L18.4204 20.5444C18.4204 21.0449 18.8599 21.4844 19.4092 21.4844Z" fill="#5ac8f5"/>
 </g>
</svg>
