<?xml version="1.0" encoding="UTF-8"?>
<!--Generator: Apple Native CoreSVG 175.5-->
<!DOCTYPE svg
PUBLIC "-//W3C//DTD SVG 1.1//EN"
       "http://www.w3.org/Graphics/SVG/1.1/DTD/svg11.dtd">
<svg version="1.1" xmlns="http://www.w3.org/2000/svg" xmlns:xlink="http://www.w3.org/1999/xlink" width="31.4209" height="31.7749">
 <g>
  <rect height="31.7749" opacity="0" width="31.4209" x="0" y="0"/>
  <path d="M20.166 2.9541C20.9839 2.9541 21.6431 2.29492 21.6431 1.47705C21.6431 0.65918 20.9839 0 20.166 0C19.3481 0 18.689 0.65918 18.689 1.47705C18.689 2.29492 19.3481 2.9541 20.166 2.9541ZM27.3438 5.896C28.1616 5.896 28.8208 5.23682 28.8208 4.41895C28.8208 3.60107 28.1616 2.94189 27.3438 2.94189C26.5137 2.94189 25.8545 3.60107 25.8545 4.41895C25.8545 5.23682 26.5137 5.896 27.3438 5.896ZM29.9438 12.7686C30.7617 12.7686 31.4209 12.1094 31.4209 11.2793C31.4209 10.4614 30.7617 9.80225 29.9438 9.80225C29.126 9.80225 28.4668 10.4614 28.4668 11.2793C28.4668 12.1094 29.126 12.7686 29.9438 12.7686ZM26.9775 19.9219C27.8076 19.9219 28.4668 19.2627 28.4668 18.4448C28.4668 17.6147 27.8076 16.9556 26.9775 16.9556C26.1597 16.9556 25.5005 17.6147 25.5005 18.4448C25.5005 19.2627 26.1597 19.9219 26.9775 19.9219ZM20.166 22.2168C20.9839 22.2168 21.6431 21.5576 21.6431 20.7397C21.6431 19.9097 20.9839 19.2627 20.166 19.2627C19.3481 19.2627 18.689 19.9097 18.689 20.7397C18.689 21.5576 19.3481 22.2168 20.166 22.2168ZM17.3462 28.5034C18.1641 28.5034 18.8232 27.8442 18.8232 27.0264C18.8232 26.2085 18.1641 25.5493 17.3462 25.5493C16.5283 25.5493 15.8691 26.2085 15.8691 27.0264C15.8691 27.8442 16.5283 28.5034 17.3462 28.5034ZM10.7056 31.4697C11.5234 31.4697 12.1826 30.8105 12.1826 29.9927C12.1826 29.1626 11.5234 28.5034 10.7056 28.5034C9.87549 28.5034 9.22852 29.1626 9.22852 29.9927C9.22852 30.8105 9.87549 31.4697 10.7056 31.4697ZM4.44336 28.833C5.26123 28.833 5.92041 28.1738 5.92041 27.356C5.92041 26.5259 5.26123 25.8667 4.44336 25.8667C3.61328 25.8667 2.96631 26.5259 2.96631 27.356C2.96631 28.1738 3.61328 28.833 4.44336 28.833ZM1.47705 22.2412C2.29492 22.2412 2.9541 21.582 2.9541 20.7642C2.9541 19.9463 2.29492 19.2871 1.47705 19.2871C0.65918 19.2871 0 19.9463 0 20.7642C0 21.582 0.65918 22.2412 1.47705 22.2412ZM4.44336 15.6494C5.26123 15.6494 5.92041 14.9902 5.92041 14.1724C5.92041 13.3423 5.26123 12.6831 4.44336 12.6831C3.61328 12.6831 2.96631 13.3423 2.96631 14.1724C2.96631 14.9902 3.61328 15.6494 4.44336 15.6494ZM10.7056 12.7197C11.5234 12.7197 12.1826 12.0605 12.1826 11.2427C12.1826 10.4126 11.5234 9.75342 10.7056 9.75342C9.87549 9.75342 9.22852 10.4126 9.22852 11.2427C9.22852 12.0605 9.87549 12.7197 10.7056 12.7197ZM13.3545 5.56641C14.1724 5.56641 14.8315 4.90723 14.8315 4.07715C14.8315 3.25928 14.1724 2.6001 13.3545 2.6001C12.5244 2.6001 11.8774 3.25928 11.8774 4.07715C11.8774 4.90723 12.5244 5.56641 13.3545 5.56641ZM10.7056 26.062C13.6353 26.062 16.0034 23.6938 16.0034 20.7397C16.0034 17.8345 13.623 15.4663 10.7056 15.4663C7.78809 15.4663 5.40771 17.8345 5.40771 20.7397C5.40771 23.6816 7.78809 26.062 10.7056 26.062ZM10.7056 24.0356C8.89893 24.0356 7.43408 22.5586 7.43408 20.7397C7.43408 18.9575 8.91113 17.4927 10.7056 17.4927C12.5 17.4927 13.9771 18.9575 13.9771 20.7397C13.9771 22.5586 12.5122 24.0356 10.7056 24.0356ZM20.166 17.3584C23.5229 17.3584 26.2695 14.5996 26.2695 11.2427C26.2695 7.88574 23.5229 5.15137 20.166 5.15137C16.8213 5.15137 14.0625 7.88574 14.0625 11.2427C14.0625 14.5996 16.8213 17.3584 20.166 17.3584ZM20.166 15.332C17.9443 15.332 16.0889 13.4766 16.0889 11.2427C16.0889 9.00879 17.9321 7.18994 20.166 7.18994C22.4121 7.18994 24.2432 9.00879 24.2432 11.2427C24.2432 13.4766 22.3999 15.332 20.166 15.332Z" fill="#5ac8f5"/>
 </g>
</svg>
