<?xml version="1.0" encoding="UTF-8"?>
<!--Generator: Apple Native CoreSVG 175.5-->
<!DOCTYPE svg
PUBLIC "-//W3C//DTD SVG 1.1//EN"
       "http://www.w3.org/Graphics/SVG/1.1/DTD/svg11.dtd">
<svg version="1.1" xmlns="http://www.w3.org/2000/svg" xmlns:xlink="http://www.w3.org/1999/xlink" width="25.5737" height="26.9897">
 <g>
  <rect height="26.9897" opacity="0" width="25.5737" x="0" y="0"/>
  <path d="M15.2832 26.9897C16.1621 26.9897 16.7847 26.2329 17.2363 25.061L25.2319 4.1748C25.4517 3.61328 25.5737 3.11279 25.5737 2.69775C25.5737 1.9043 25.0854 1.41602 24.292 1.41602C23.877 1.41602 23.3765 1.53809 22.8149 1.75781L1.81885 9.80225C0.793457 10.1929 0 10.8154 0 11.7065C0 12.8296 0.854492 13.208 2.02637 13.562L10.8398 16.1499L13.4033 24.8535C13.7695 26.0864 14.1479 26.9897 15.2832 26.9897ZM11.3892 14.2944L2.96631 11.7188C2.771 11.6577 2.70996 11.6089 2.70996 11.5234C2.70996 11.438 2.75879 11.377 2.94189 11.3037L19.4458 5.05371C20.4224 4.6875 21.3623 4.19922 22.2656 3.78418C21.46 4.44336 20.459 5.22461 19.7876 5.896ZM15.4785 24.3042C15.3809 24.3042 15.332 24.2188 15.271 24.0234L12.6953 15.6006L21.0938 7.20215C21.7529 6.54297 22.5708 5.51758 23.2178 4.6875C22.8027 5.61523 22.3022 6.55518 21.936 7.54395L15.686 24.0479C15.6128 24.231 15.564 24.3042 15.4785 24.3042Z" fill="#5ac8f5"/>
 </g>
</svg>
