<?xml version="1.0" encoding="UTF-8"?>
<!--Generator: Apple Native CoreSVG 175.5-->
<!DOCTYPE svg
PUBLIC "-//W3C//DTD SVG 1.1//EN"
       "http://www.w3.org/Graphics/SVG/1.1/DTD/svg11.dtd">
<svg version="1.1" xmlns="http://www.w3.org/2000/svg" xmlns:xlink="http://www.w3.org/1999/xlink" width="24.9023" height="24.9146">
 <g>
  <rect height="24.9146" opacity="0" width="24.9023" x="0" y="0"/>
  <path d="M2.17285 5.50537C0.793457 7.48291 0 9.8877 0 12.4512C0 19.2505 5.65186 24.9023 12.4512 24.9023C15.0146 24.9023 17.3828 24.0967 19.3848 22.7417ZM22.7295 19.4092C24.0967 17.4194 24.9023 15.0146 24.9023 12.4512C24.9023 5.63965 19.2505 0 12.439 0C9.87549 0 7.49512 0.805664 5.50537 2.16064Z" fill="#5ac8f5" fill-opacity="0.5"/>
  <path d="M22.9736 24.3286C23.3398 24.6948 23.9502 24.6826 24.3042 24.3164C24.6704 23.938 24.6704 23.3521 24.3042 22.9858L1.9165 0.585938C1.55029 0.219727 0.952148 0.219727 0.57373 0.585938C0.219727 0.939941 0.219727 1.5625 0.57373 1.9165Z" fill="#5ac8f5"/>
 </g>
</svg>
