<?xml version="1.0" encoding="UTF-8"?>
<!--Generator: Apple Native CoreSVG 175.5-->
<!DOCTYPE svg
PUBLIC "-//W3C//DTD SVG 1.1//EN"
       "http://www.w3.org/Graphics/SVG/1.1/DTD/svg11.dtd">
<svg version="1.1" xmlns="http://www.w3.org/2000/svg" xmlns:xlink="http://www.w3.org/1999/xlink" width="22.0963" height="27.7954">
 <g>
  <rect height="27.7954" opacity="0" width="22.0963" x="0" y="0"/>
  <path d="M10.3802 26.5747C14.6648 26.5747 17.3992 24.1333 19.3157 19.6777L21.867 13.6597C22.4529 12.3047 21.8426 11.1206 20.866 10.6079C19.9139 10.1196 18.6199 10.2905 17.8143 11.5967L16.6546 13.6719C16.618 13.7207 16.5936 13.7573 16.5447 13.7573C16.4837 13.7573 16.4349 13.7085 16.4593 13.6353L18.0462 4.41895C18.3147 2.90527 17.5457 1.84326 16.2151 1.59912C14.7747 1.35498 13.6517 2.02637 13.3465 3.61328L12.9803 5.74951L13.1268 5.74951L13.1268 2.46582C13.1268 1.02539 12.1258 0 10.7342 0C9.28154 0 8.31719 1.06201 8.31719 2.55127L8.31719 4.11377L8.62236 4.05273L8.47588 3.07617C8.12187 1.7334 6.99883 1.15967 5.82695 1.36719C4.41094 1.61133 3.69072 2.79541 3.86162 4.19922L4.09355 6.20117L4.54521 6.10352C4.13017 4.77295 3.09258 4.3457 1.95732 4.55322C0.492479 4.80957-0.178907 5.85938 0.0408192 7.36084L1.66435 18.2495C2.4334 23.4253 5.2166 26.5747 10.3802 26.5747ZM10.3191 24.8901C5.99785 24.8901 3.97148 22.4243 3.28789 18.0542L1.53008 7.09229C1.45683 6.5918 1.7376 6.18896 2.21367 6.10352C2.65312 6.03027 3.05596 6.32324 3.16582 6.7749L4.93584 13.4033C5.05791 13.8672 5.42412 14.0503 5.80254 13.9771C6.21758 13.916 6.49834 13.5498 6.44951 13.1348L5.39971 3.94287C5.33867 3.40576 5.58281 3.01514 6.0833 2.92969C6.58379 2.84424 6.98662 3.16162 7.05986 3.6499L8.32939 12.8662C8.37822 13.2568 8.73223 13.5132 9.15947 13.4521C9.68437 13.3667 9.86748 13.0493 9.86748 12.6099L9.86748 2.46582C9.86748 1.95312 10.2215 1.58691 10.7342 1.58691C11.2225 1.58691 11.5765 1.95312 11.5765 2.46582L11.5765 12.7197C11.5765 13.1348 11.9305 13.4521 12.3333 13.4521C12.7483 13.4521 13.0413 13.1836 13.1145 12.7686L14.8479 3.88184C14.9578 3.2959 15.3729 3.05176 15.8367 3.13721C16.3128 3.21045 16.5936 3.61328 16.5081 4.15039L14.7747 15.5762C14.616 16.6138 15.1897 16.9678 15.7024 16.9678C16.1419 16.9678 16.4471 16.748 16.7889 16.1621L18.9617 12.3047C19.2181 11.8164 19.6819 11.6821 20.0604 11.8408C20.4754 11.9873 20.6951 12.4268 20.4632 12.9761L17.8265 19.1528C16.0809 23.1934 13.7249 24.8901 10.3191 24.8901Z" fill="#5ac8f5"/>
 </g>
</svg>
