<?xml version="1.0" encoding="UTF-8"?>
<!--Generator: Apple Native CoreSVG 175.5-->
<!DOCTYPE svg
PUBLIC "-//W3C//DTD SVG 1.1//EN"
       "http://www.w3.org/Graphics/SVG/1.1/DTD/svg11.dtd">
<svg version="1.1" xmlns="http://www.w3.org/2000/svg" xmlns:xlink="http://www.w3.org/1999/xlink" width="21.9238" height="32.2632">
 <g>
  <rect height="32.2632" opacity="0" width="21.9238" x="0" y="0"/>
  <path d="M11.7065 31.5796C16.8701 31.5796 20.3247 28.1128 20.3247 22.3999L20.3247 19.7388C20.3247 16.9189 18.9941 15.271 16.7236 15.2466C16.4429 14.3555 15.7104 13.8062 14.6851 13.8062C14.3188 13.8062 13.9648 13.8672 13.623 13.9893C13.3057 13.0005 12.5 12.4023 11.438 12.4023C11.1572 12.4023 10.8643 12.439 10.5713 12.5244L10.5713 8.45947C10.5713 6.92139 9.5459 5.896 8.10547 5.896C6.65283 5.896 5.62744 6.92139 5.62744 8.45947L5.62744 18.6523C5.62744 18.7134 5.59082 18.7622 5.52979 18.7622C5.48096 18.7622 5.44434 18.7256 5.43213 18.6768L4.61426 16.7236C4.21143 15.7715 3.49121 15.2588 2.62451 15.2588C1.44043 15.2588 0.390625 16.0156 0.390625 17.3584C0.390625 17.7246 0.463867 18.2129 0.610352 18.6401L2.75879 24.6826C4.38232 29.2603 7.39746 31.5796 11.7065 31.5796ZM11.7676 29.895C8.34961 29.895 5.7373 28.3203 4.24805 24.1577L2.09961 18.1274C2.02637 17.9443 1.98975 17.7856 1.98975 17.5781C1.98975 17.1509 2.30713 16.7969 2.79541 16.7969C3.21045 16.7969 3.45459 17.041 3.6377 17.4561L5.29785 21.167C5.56641 21.7773 5.94482 21.9727 6.37207 21.9727C6.88477 21.9727 7.25098 21.5698 7.25098 21.0083L7.25098 8.34961C7.25098 7.83691 7.60498 7.4707 8.10547 7.4707C8.60596 7.4707 8.94775 7.83691 8.94775 8.34961L8.94775 17.3828C8.94775 17.8101 9.31396 18.1396 9.74121 18.1396C10.1562 18.1396 10.498 17.8101 10.498 17.3828L10.498 14.1357C10.7056 14.0381 10.9863 13.9771 11.2305 13.9771C11.8408 13.9771 12.207 14.3677 12.207 15.0146L12.207 17.8467C12.207 18.2983 12.5732 18.6035 12.9883 18.6035C13.3911 18.6035 13.7573 18.2983 13.7573 17.8467L13.7573 15.5396C13.9648 15.4419 14.2456 15.3809 14.4775 15.3809C15.1001 15.3809 15.4541 15.7837 15.4541 16.4185L15.4541 18.3228C15.4541 18.7744 15.8325 19.0674 16.2476 19.0674C16.6504 19.0674 17.0044 18.7744 17.0044 18.3228L17.0044 16.9189C18.0908 16.9189 18.7134 18.042 18.7134 19.9829L18.7134 22.2046C18.7134 27.1118 16.0767 29.895 11.7676 29.895Z" fill="#5ac8f5"/>
  <path d="M1.87988 9.375C2.96631 9.375 3.79639 8.52051 3.79639 7.4585C3.79639 6.40869 2.96631 5.5542 1.87988 5.5542C0.842285 5.5542 0 6.40869 0 7.4585C0 8.52051 0.842285 9.375 1.87988 9.375ZM8.10547 3.8208C9.16748 3.8208 10.022 2.96631 10.022 1.9043C10.022 0.866699 9.16748 0 8.10547 0C7.06787 0 6.20117 0.866699 6.20117 1.9043C6.20117 2.96631 7.06787 3.8208 8.10547 3.8208ZM14.3921 9.375C15.4541 9.375 16.3086 8.52051 16.3086 7.4585C16.3086 6.40869 15.4541 5.5542 14.3921 5.5542C13.3423 5.5542 12.4878 6.40869 12.4878 7.4585C12.4878 8.52051 13.3423 9.375 14.3921 9.375ZM20.0073 9.375C21.0693 9.375 21.9238 8.52051 21.9238 7.4585C21.9238 6.40869 21.0693 5.5542 20.0073 5.5542C18.9697 5.5542 18.1152 6.40869 18.1152 7.4585C18.1152 8.52051 18.9697 9.375 20.0073 9.375ZM20.0073 3.8208C21.0693 3.8208 21.9238 2.96631 21.9238 1.9043C21.9238 0.866699 21.0693 0 20.0073 0C18.9697 0 18.1152 0.866699 18.1152 1.9043C18.1152 2.96631 18.9697 3.8208 20.0073 3.8208Z" fill="#5ac8f5" fill-opacity="0.5"/>
 </g>
</svg>
