<?xml version="1.0" encoding="UTF-8"?>
<!--Generator: Apple Native CoreSVG 175.5-->
<!DOCTYPE svg
PUBLIC "-//W3C//DTD SVG 1.1//EN"
       "http://www.w3.org/Graphics/SVG/1.1/DTD/svg11.dtd">
<svg version="1.1" xmlns="http://www.w3.org/2000/svg" xmlns:xlink="http://www.w3.org/1999/xlink" width="28.0884" height="20.4468">
 <g>
  <rect height="20.4468" opacity="0" width="28.0884" x="0" y="0"/>
  <path d="M4.83398 20.4468L23.2544 20.4468C26.1108 20.4468 28.0884 18.4814 28.0884 15.6494C28.0884 12.8174 26.1108 10.8398 23.2544 10.8398L4.83398 10.8398C1.97754 10.8398 0 12.8174 0 15.6494C0 18.4814 1.97754 20.4468 4.83398 20.4468ZM4.83398 9.16748L23.2544 9.16748C24.4019 9.16748 25.4517 9.42383 26.355 9.8877L23.4375 2.84424C22.6807 1.00098 21.0815 0.012207 18.9697 0.012207L9.11865 0.012207C7.00684 0.012207 5.40771 1.00098 4.65088 2.84424L1.72119 9.8877C2.63672 9.42383 3.68652 9.16748 4.83398 9.16748ZM21.4966 15.6494C21.4966 14.8071 22.2168 14.0869 23.0835 14.0869C23.9136 14.0869 24.646 14.8071 24.646 15.6494C24.646 16.5161 23.9136 17.2119 23.0835 17.2119C22.2168 17.2241 21.4966 16.5283 21.4966 15.6494Z" fill="#5ac8f5"/>
 </g>
</svg>
