<?xml version="1.0" encoding="UTF-8"?>
<!--Generator: Apple Native CoreSVG 175.5-->
<!DOCTYPE svg
PUBLIC "-//W3C//DTD SVG 1.1//EN"
       "http://www.w3.org/Graphics/SVG/1.1/DTD/svg11.dtd">
<svg version="1.1" xmlns="http://www.w3.org/2000/svg" xmlns:xlink="http://www.w3.org/1999/xlink" width="32.6416" height="21.5698">
 <g>
  <rect height="21.5698" opacity="0" width="32.6416" x="0" y="0"/>
  <path d="M10.7788 21.5576C16.6626 21.5576 21.5576 16.6626 21.5576 10.7788C21.5576 4.89502 16.6748 0 10.791 0C4.90723 0 0 4.89502 0 10.7788C0 16.6626 4.89502 21.5576 10.7788 21.5576ZM10.791 19.6045C5.896 19.6045 1.96533 15.6738 1.97754 10.7788C1.97754 5.88379 5.9082 1.96533 10.8032 1.96533C15.6738 1.96533 19.5923 5.88379 19.5923 10.7788C19.5923 15.6738 15.686 19.6045 10.791 19.6045ZM24.5117 15.6494C24.9146 16.1011 25.647 16.1133 26.0742 15.564C27.1362 14.2456 27.7588 12.5732 27.7588 10.7788C27.7588 8.98438 27.1362 7.31201 26.0742 5.99365C25.647 5.44434 24.9146 5.44434 24.5117 5.9082C24.1211 6.34766 24.2798 6.89697 24.6704 7.42188C25.4028 8.3252 25.769 9.50928 25.769 10.7788C25.769 12.0483 25.4028 13.2202 24.6704 14.1357C24.2798 14.6606 24.1211 15.21 24.5117 15.6494ZM27.9297 19.1284C28.3203 19.5801 29.0039 19.5801 29.4678 19.0674C31.5063 16.8579 32.6416 13.9404 32.6416 10.7788C32.6416 7.61719 31.5063 4.6875 29.4678 2.49023C29.0039 1.97754 28.3203 1.96533 27.9297 2.4292C27.5391 2.86865 27.6611 3.44238 28.1006 3.94287C29.7363 5.76172 30.6519 8.1543 30.6519 10.7788C30.6519 13.4033 29.7363 15.7959 28.1006 17.6147C27.6611 18.1152 27.5391 18.689 27.9297 19.1284ZM10.8765 14.2944C11.6089 14.2944 11.7676 14.6606 12.3901 14.6606C13.0127 14.6606 13.4399 14.0869 13.8306 13.5254C14.2822 12.8784 14.4653 12.2437 14.4653 12.2192C14.4287 12.207 13.2324 11.7188 13.2324 10.3516C13.2324 9.15527 14.1724 8.63037 14.2212 8.58154C13.6108 7.69043 12.6587 7.67822 12.3901 7.67822C11.6943 7.67822 11.1328 8.09326 10.7666 8.09326C10.3882 8.09326 9.8877 7.69043 9.26514 7.69043C8.11768 7.69043 6.95801 8.65479 6.95801 10.437C6.95801 11.5601 7.38525 12.7441 7.91016 13.501C8.37402 14.1479 8.77686 14.6729 9.36279 14.6729C9.92432 14.6729 10.1807 14.2944 10.8765 14.2944ZM12.0728 6.90918C12.3535 6.56738 12.561 6.10352 12.561 5.61523C12.561 5.5542 12.561 5.49316 12.5488 5.44434C12.0728 5.45654 11.5234 5.74951 11.1938 6.14014C10.9375 6.44531 10.6812 6.90918 10.6812 7.39746C10.6812 7.4585 10.6934 7.53174 10.6934 7.55615C10.73 7.55615 10.7666 7.56836 10.8154 7.56836C11.2427 7.56836 11.7676 7.2876 12.0728 6.90918Z" fill="#5ac8f5"/>
 </g>
</svg>
