<?xml version="1.0" encoding="UTF-8"?>
<!--Generator: Apple Native CoreSVG 175.5-->
<!DOCTYPE svg
PUBLIC "-//W3C//DTD SVG 1.1//EN"
       "http://www.w3.org/Graphics/SVG/1.1/DTD/svg11.dtd">
<svg version="1.1" xmlns="http://www.w3.org/2000/svg" xmlns:xlink="http://www.w3.org/1999/xlink" width="13.269" height="23.3765">
 <g>
  <rect height="23.3765" opacity="0" width="13.269" x="0" y="0"/>
  <path d="M6.04248 16.6992C6.89697 16.6992 7.2876 16.1133 7.2876 15.332C7.2876 15.1978 7.2876 15.0513 7.2876 14.917C7.31201 13.3057 7.88574 12.6343 9.83887 11.2915C11.9385 9.87549 13.269 8.23975 13.269 5.88379C13.269 2.22168 10.2905 0.12207 6.57959 0.12207C3.8208 0.12207 1.40381 1.42822 0.366211 3.78418C0.109863 4.35791 0 4.91943 0 5.3833C0 6.0791 0.402832 6.56738 1.14746 6.56738C1.77002 6.56738 2.18506 6.20117 2.36816 5.60303C2.99072 3.28369 4.52881 2.40479 6.49414 2.40479C8.87451 2.40479 10.7422 3.74756 10.7422 5.87158C10.7422 7.61719 9.65576 8.59375 8.09326 9.69238C6.17676 11.0229 4.77295 12.4512 4.77295 14.5996C4.77295 14.856 4.77295 15.1123 4.77295 15.3687C4.77295 16.1499 5.2002 16.6992 6.04248 16.6992ZM6.04248 23.3765C7.01904 23.3765 7.78809 22.5952 7.78809 21.6431C7.78809 20.6787 7.01904 19.9097 6.04248 19.9097C5.09033 19.9097 4.30908 20.6787 4.30908 21.6431C4.30908 22.5952 5.09033 23.3765 6.04248 23.3765Z" fill="#5ac8f5"/>
 </g>
</svg>
