<?xml version="1.0" encoding="UTF-8"?>
<!--Generator: Apple Native CoreSVG 175.5-->
<!DOCTYPE svg
PUBLIC "-//W3C//DTD SVG 1.1//EN"
       "http://www.w3.org/Graphics/SVG/1.1/DTD/svg11.dtd">
<svg version="1.1" xmlns="http://www.w3.org/2000/svg" xmlns:xlink="http://www.w3.org/1999/xlink" width="28.3447" height="21.9116">
 <g>
  <rect height="21.9116" opacity="0" width="28.3447" x="0" y="0"/>
  <path d="M6.54297 21.9116C10.2051 21.9116 13.1226 17.4683 13.1226 10.9497C13.1226 4.43115 10.2051 0 6.54297 0C3.11279 0 0.32959 3.91846 0 9.80225C0.57373 8.6792 1.67236 8.00781 3.11279 8.00781C5.23682 8.00781 6.64062 9.49707 6.64062 11.6943C6.64062 13.9282 5.23682 15.4053 3.11279 15.4053C1.81885 15.4053 0.793457 14.8682 0.183105 13.9404C0.927734 18.7866 3.479 21.9116 6.54297 21.9116ZM2.11182 11.2549C2.55127 11.3403 2.9541 10.9375 3.07617 10.3882C3.18604 9.83887 2.91748 9.31396 2.45361 9.22852C2.02637 9.14307 1.57471 9.5459 1.47705 10.0952C1.37939 10.6567 1.67236 11.1816 2.11182 11.2549ZM21.7651 21.9116C25.4272 21.9116 28.3447 17.4683 28.3447 10.9497C28.3447 4.43115 25.4272 0 21.7651 0C18.335 0 15.5518 3.91846 15.2222 9.80225C15.7959 8.6792 16.8945 8.00781 18.3228 8.00781C20.459 8.00781 21.8628 9.49707 21.8628 11.6943C21.8628 13.9282 20.459 15.4053 18.3228 15.4053C17.041 15.4053 16.0156 14.8682 15.4053 13.9404C16.1499 18.7866 18.7012 21.9116 21.7651 21.9116ZM17.334 11.2549C17.7612 11.3403 18.1885 10.9375 18.2983 10.3882C18.396 9.83887 18.1274 9.30176 17.6758 9.22852C17.2485 9.14307 16.7969 9.5459 16.6992 10.0952C16.6016 10.6567 16.8823 11.1694 17.334 11.2549Z" fill="#5ac8f5"/>
 </g>
</svg>
