<?xml version="1.0" encoding="UTF-8"?>
<!--Generator: Apple Native CoreSVG 175.5-->
<!DOCTYPE svg
PUBLIC "-//W3C//DTD SVG 1.1//EN"
       "http://www.w3.org/Graphics/SVG/1.1/DTD/svg11.dtd">
<svg version="1.1" xmlns="http://www.w3.org/2000/svg" xmlns:xlink="http://www.w3.org/1999/xlink" width="25.9562" height="30.6763">
 <g>
  <rect height="30.6763" opacity="0" width="25.9562" x="0" y="0"/>
  <path d="M12.9659 17.5781C17.6412 17.5781 21.462 13.7573 21.462 9.08203C21.462 8.94775 21.4498 8.75244 21.4376 8.58154C23.4761 8.3374 25.002 6.57959 25.002 4.47998C25.002 2.17285 23.1099 0.280762 20.7906 0.280762C19.4844 0.280762 18.2637 0.891113 17.4947 1.9043C16.1397 1.0498 14.565 0.585938 12.9659 0.585938C11.3668 0.585938 9.79207 1.0498 8.43709 1.9043C7.66804 0.891113 6.44734 0.280762 5.14119 0.280762C2.82185 0.280762 0.929761 2.17285 0.929761 4.47998C0.929761 6.57959 2.45564 8.3374 4.49421 8.58154C4.48201 8.75244 4.4698 8.94775 4.4698 9.08203C4.4698 13.7573 8.2906 17.5781 12.9659 17.5781ZM12.9659 15.8203C9.25496 15.8203 6.22761 12.793 6.22761 9.08203C6.22761 8.66699 6.25203 8.04443 6.545 6.99463L6.41072 6.87256C5.98347 6.98242 5.54402 7.01904 5.14119 7.01904C3.76179 7.01904 2.65095 5.896 2.65095 4.5166C2.65095 3.14941 3.76179 2.03857 5.14119 2.03857C6.43513 2.03857 7.50935 3.05176 7.5948 4.30908C7.60701 4.41895 7.5948 4.55322 7.58259 4.66309L7.83894 4.73633C9.16951 3.18604 10.9761 2.33154 12.9659 2.33154C14.9556 2.33154 16.7623 3.18604 18.0928 4.73633L18.3492 4.66309C18.337 4.55322 18.3248 4.41895 18.337 4.30908C18.4224 3.05176 19.4967 2.03857 20.7906 2.03857C22.17 2.03857 23.2808 3.14941 23.2808 4.5166C23.2808 5.896 22.17 7.01904 20.7906 7.01904C20.3878 7.01904 19.9483 6.98242 19.5211 6.87256L19.3868 6.99463C19.6798 8.04443 19.7042 8.66699 19.7042 9.08203C19.7042 12.793 16.6768 15.8203 12.9659 15.8203ZM12.9903 17.2363C15.2608 17.2363 17.1407 15.3809 17.1407 13.0859C17.1407 10.8032 15.273 8.93555 12.9903 8.93555C10.7076 8.93555 8.83992 10.8154 8.83992 13.0859C8.83992 15.3931 10.6954 17.2363 12.9903 17.2363ZM12.9903 15.7227C11.5377 15.7227 10.3536 14.5386 10.3536 13.0859C10.3536 11.6455 11.5377 10.4614 12.9903 10.4614C14.4307 10.4614 15.6148 11.6455 15.6148 13.0859C15.6148 14.5386 14.4307 15.7227 12.9903 15.7227ZM10.024 8.53271C10.6099 8.53271 11.086 8.05664 11.086 7.4707C11.086 6.88477 10.6099 6.40869 10.024 6.40869C9.46248 6.40869 8.9742 6.88477 8.9742 7.4707C8.9742 8.05664 9.46248 8.53271 10.024 8.53271ZM15.92 8.53271C16.4815 8.53271 16.9698 8.05664 16.9698 7.4707C16.9698 6.88477 16.4815 6.40869 15.92 6.40869C15.3341 6.40869 14.858 6.88477 14.858 7.4707C14.858 8.05664 15.3341 8.53271 15.92 8.53271ZM12.9659 13.4644C13.6373 13.4644 14.7359 12.4512 14.7359 12.1826C14.7359 11.7188 13.9791 11.0718 12.9659 11.0718C11.9405 11.0718 11.1593 11.7188 11.1593 12.1826C11.1593 12.4512 12.2945 13.4644 12.9659 13.4644ZM7.52156 30.6763C10.0606 30.6763 12.0748 28.0396 12.0748 24.7437C12.0748 21.4844 10.0606 18.8354 7.52156 18.8354C4.97029 18.8354 2.96834 21.4844 2.96834 24.7437C2.96834 28.0396 4.97029 30.6763 7.52156 30.6763ZM7.52156 28.833C6.05671 28.833 4.8116 26.9897 4.8116 24.7437C4.8116 22.5098 6.05671 20.6787 7.52156 20.6787C8.9864 20.6787 10.2315 22.5098 10.2315 24.7437C10.2315 26.9897 8.9864 28.833 7.52156 28.833ZM18.4346 30.6763C20.9859 30.6763 22.9879 28.0396 22.9879 24.7437C22.9879 21.4844 20.9859 18.8354 18.4346 18.8354C15.8956 18.8354 13.8814 21.4844 13.8814 24.7437C13.8814 28.0396 15.8956 30.6763 18.4346 30.6763ZM18.4346 28.833C16.9698 28.833 15.7247 26.9897 15.7247 24.7437C15.7247 22.5098 16.9698 20.6787 18.4346 20.6787C19.8995 20.6787 21.1446 22.5098 21.1446 24.7437C21.1446 26.9897 19.8995 28.833 18.4346 28.833ZM4.27449 23.6572L4.32332 21.936C3.34675 21.9604 2.39461 21.4233 1.97957 20.4956C1.41804 19.2383 1.91853 17.7979 3.20027 17.2119L7.66804 15.1611L6.93562 13.5864L2.45564 15.6128C0.31941 16.5771-0.58391 19.1284 0.392652 21.2402C1.11287 22.7783 2.63875 23.6816 4.27449 23.6572ZM21.6817 23.6572C23.3175 23.6816 24.8433 22.7783 25.5636 21.2402C26.5401 19.1284 25.6368 16.5771 23.5006 15.6128L19.0206 13.5864L18.2882 15.1611L22.7559 17.2119C24.0377 17.7979 24.5382 19.2383 23.9766 20.4956C23.5616 21.4233 22.6094 21.9604 21.6329 21.936ZM9.67 29.0649C11.9283 29.5654 13.9425 29.5776 16.2252 29.0649L15.8834 27.3315C13.9425 27.8198 11.9527 27.8198 10.0118 27.3315Z" fill="#5ac8f5"/>
 </g>
</svg>
