<?xml version="1.0" encoding="UTF-8"?>
<!--Generator: Apple Native CoreSVG 175.5-->
<!DOCTYPE svg
PUBLIC "-//W3C//DTD SVG 1.1//EN"
       "http://www.w3.org/Graphics/SVG/1.1/DTD/svg11.dtd">
<svg version="1.1" xmlns="http://www.w3.org/2000/svg" xmlns:xlink="http://www.w3.org/1999/xlink" width="27.4292" height="25.769">
 <g>
  <rect height="25.769" opacity="0" width="27.4292" x="0" y="0"/>
  <path d="M0 6.62842C0 10.7666 5.0293 15.0024 13.4033 15.0024C17.4194 15.0024 20.9839 14.0015 23.4863 12.1704C22.7661 11.853 22.1558 11.3159 21.7529 10.6323C19.9219 12.4023 16.9922 13.3545 13.4033 13.3545C6.12793 13.3545 3.39355 9.50928 3.39355 7.22656C3.39355 6.66504 3.479 6.16455 3.66211 5.7373C2.51465 5.09033 1.75781 3.84521 1.7334 2.50244C0.585938 3.57666 0 4.96826 0 6.62842ZM20.105 17.688C20.105 12.4756 15.0269 4.65088 9.36279 2.0874C9.375 2.19727 9.375 2.29492 9.375 2.39258C9.375 3.06396 9.2041 3.71094 8.88672 4.27246C13.3179 5.62744 17.5049 11.5234 17.5049 16.4795C17.5049 19.3359 15.8325 21.3135 13.623 21.3135C13.7085 21.6675 13.7573 22.0337 13.7573 22.3877C13.7573 23.23 13.4888 24.0356 12.9883 24.6948C13.0981 24.707 13.2446 24.707 13.3789 24.707C17.2852 24.707 20.105 21.7651 20.105 17.688ZM20.9595 1.26953C14.1235 1.26953 6.67725 11.3892 6.67725 17.688C6.67725 18.4326 6.7749 19.1895 6.99463 19.9341C7.55615 19.1162 8.69141 18.5913 9.59473 18.5669C9.38721 17.9443 9.26514 17.2241 9.26514 16.4795C9.26514 11.0352 14.5874 3.96729 19.8364 3.96729C21.2769 3.96729 22.3877 4.49219 22.9614 5.45654C23.584 5.05371 24.292 4.84619 25.0366 4.84619C25.5981 4.84619 26.1475 4.98047 26.6479 5.2002C26.0742 2.75879 23.9502 1.26953 20.9595 1.26953ZM5.5542 4.78516C6.87256 4.78516 7.94678 3.72314 7.94678 2.39258C7.94678 1.07422 6.87256 0 5.5542 0C4.22363 0 3.14941 1.07422 3.14941 2.39258C3.14941 3.72314 4.22363 4.78516 5.5542 4.78516ZM25.0366 11.0718C26.3672 11.0718 27.4292 9.99756 27.4292 8.6792C27.4292 7.34863 26.3672 6.27441 25.0366 6.27441C23.7183 6.27441 22.644 7.34863 22.644 8.6792C22.644 9.99756 23.7183 11.0718 25.0366 11.0718ZM9.93652 24.7803C11.2671 24.7803 12.3291 23.7183 12.3291 22.3877C12.3291 21.0571 11.2549 19.9951 9.93652 19.9951C8.60596 19.9951 7.54395 21.0571 7.54395 22.3877C7.54395 23.7183 8.60596 24.7803 9.93652 24.7803Z" fill="#5ac8f5"/>
 </g>
</svg>
