<?xml version="1.0" encoding="UTF-8"?>
<!--Generator: Apple Native CoreSVG 175.5-->
<!DOCTYPE svg
PUBLIC "-//W3C//DTD SVG 1.1//EN"
       "http://www.w3.org/Graphics/SVG/1.1/DTD/svg11.dtd">
<svg version="1.1" xmlns="http://www.w3.org/2000/svg" xmlns:xlink="http://www.w3.org/1999/xlink" width="12.4878" height="23.3765">
 <g>
  <rect height="23.3765" opacity="0" width="12.4878" x="0" y="0"/>
  <path d="M1.74561 16.6504C2.39258 16.6504 2.83203 16.2231 2.84424 15.564L2.9541 1.34277C2.9541 1.34277 2.9541 1.34277 2.9541 1.34277C2.9541 0.646973 2.39258 0.170898 1.7334 0.170898C1.07422 0.170898 0.512695 0.646973 0.512695 1.34277C0.512695 1.34277 0.512695 1.34277 0.512695 1.34277L0.646973 15.564C0.65918 16.2231 1.09863 16.6504 1.74561 16.6504ZM1.7334 23.3765C2.69775 23.3765 3.4668 22.5952 3.4668 21.6431C3.4668 20.6787 2.69775 19.9097 1.7334 19.9097C0.78125 19.9097 0 20.6787 0 21.6431C0 22.5952 0.78125 23.3765 1.7334 23.3765ZM10.7544 16.6504C11.4014 16.6504 11.8408 16.2231 11.853 15.564L11.9629 1.34277C11.9629 1.34277 11.9629 1.34277 11.9629 1.34277C11.9629 0.646973 11.4014 0.170898 10.7422 0.170898C10.0952 0.170898 9.52148 0.646973 9.52148 1.34277C9.52148 1.34277 9.52148 1.34277 9.52148 1.34277L9.65576 15.564C9.66797 16.2231 10.1196 16.6504 10.7544 16.6504ZM10.7422 23.3765C11.7188 23.3765 12.4878 22.5952 12.4878 21.6431C12.4878 20.6787 11.7188 19.9097 10.7422 19.9097C9.79004 19.9097 9.00879 20.6787 9.00879 21.6431C9.00879 22.5952 9.79004 23.3765 10.7422 23.3765Z" fill="#5ac8f5"/>
 </g>
</svg>
