<?xml version="1.0" encoding="UTF-8"?>
<!--Generator: Apple Native CoreSVG 175.5-->
<!DOCTYPE svg
PUBLIC "-//W3C//DTD SVG 1.1//EN"
       "http://www.w3.org/Graphics/SVG/1.1/DTD/svg11.dtd">
<svg version="1.1" xmlns="http://www.w3.org/2000/svg" xmlns:xlink="http://www.w3.org/1999/xlink" width="24.5239" height="24.4019">
 <g>
  <rect height="24.4019" opacity="0" width="24.5239" x="0" y="0"/>
  <path d="M7.65381 17.8467C7.00684 17.8467 6.68945 17.5415 6.68945 16.8701L6.68945 7.54395C6.68945 6.88477 7.00684 6.57959 7.65381 6.57959L17.0044 6.57959C17.6514 6.57959 17.9688 6.88477 17.9688 7.54395L17.9688 16.8701C17.9688 17.5415 17.6514 17.8467 17.0044 17.8467ZM8.65479 16.1865L15.9912 16.1865C16.1865 16.1865 16.3086 16.0645 16.3086 15.8813L16.3086 8.54492C16.3086 8.34961 16.1865 8.23975 15.9912 8.23975L8.65479 8.23975C8.47168 8.23975 8.34961 8.34961 8.34961 8.54492L8.34961 15.8813C8.34961 16.0645 8.47168 16.1865 8.65479 16.1865ZM3.25928 22.2534L21.3989 22.2534C21.9849 22.2534 22.3755 21.875 22.3755 21.2891L22.3755 3.13721C22.3755 2.55127 21.9849 2.16064 21.3989 2.16064L3.25928 2.16064C2.66113 2.16064 2.28271 2.55127 2.28271 3.13721L2.28271 21.2891C2.28271 21.875 2.66113 22.2534 3.25928 22.2534ZM9.26514 20.5322L7.2998 20.5322L7.2998 23.4253C7.2998 24.0112 7.69043 24.4019 8.27637 24.4019C8.8623 24.4019 9.26514 24.0112 9.26514 23.4253ZM13.3057 20.5322L11.3403 20.5322L11.3403 23.4253C11.3403 24.0112 11.7432 24.4019 12.3291 24.4019C12.915 24.4019 13.3057 24.0112 13.3057 23.4253ZM17.395 20.5322L15.4297 20.5322L15.4297 23.4253C15.4297 24.0112 15.8203 24.4019 16.4062 24.4019C16.9922 24.4019 17.395 24.0112 17.395 23.4253ZM20.6543 15.2588L20.6543 17.2241L23.5352 17.2241C24.1211 17.2241 24.5239 16.8213 24.5239 16.2354C24.5239 15.6494 24.1211 15.2588 23.5352 15.2588ZM20.6543 11.2061L20.6543 13.1714L23.5352 13.1714C24.1211 13.1714 24.5239 12.7808 24.5239 12.1948C24.5239 11.6089 24.1211 11.2061 23.5352 11.2061ZM20.6543 7.16553L20.6543 9.13086L23.5352 9.13086C24.1211 9.13086 24.5239 8.72803 24.5239 8.14209C24.5239 7.55615 24.1211 7.16553 23.5352 7.16553ZM15.3931 3.88184L17.3584 3.88184L17.3584 1.00098C17.3584 0.415039 16.9556 0.0244141 16.3696 0.0244141C15.7837 0.0244141 15.3931 0.415039 15.3931 1.00098ZM11.3403 3.88184L13.3057 3.88184L13.3057 1.00098C13.3057 0.415039 12.915 0.0244141 12.3291 0.0244141C11.7432 0.0244141 11.3403 0.415039 11.3403 1.00098ZM7.2998 3.88184L9.26514 3.88184L9.26514 1.00098C9.26514 0.415039 8.8623 0.0244141 8.27637 0.0244141C7.69043 0.0244141 7.2998 0.415039 7.2998 1.00098ZM4.00391 9.14307L4.00391 7.17773L0.976562 7.17773C0.390625 7.17773 0 7.56836 0 8.1543C0 8.74023 0.390625 9.14307 0.976562 9.14307ZM4.00391 13.1836L4.00391 11.2183L0.976562 11.2183C0.390625 11.2183 0 11.6211 0 12.207C0 12.793 0.390625 13.1836 0.976562 13.1836ZM4.00391 17.2363L4.00391 15.271L0.976562 15.271C0.390625 15.271 0 15.6616 0 16.2476C0 16.8335 0.390625 17.2363 0.976562 17.2363Z" fill="#5ac8f5"/>
 </g>
</svg>
