<?xml version="1.0" encoding="UTF-8"?>
<!--Generator: Apple Native CoreSVG 175.5-->
<!DOCTYPE svg
PUBLIC "-//W3C//DTD SVG 1.1//EN"
       "http://www.w3.org/Graphics/SVG/1.1/DTD/svg11.dtd">
<svg version="1.1" xmlns="http://www.w3.org/2000/svg" xmlns:xlink="http://www.w3.org/1999/xlink" width="25.8667" height="27.8687">
 <g>
  <rect height="27.8687" opacity="0" width="25.8667" x="0" y="0"/>
  <path d="M2.24609 6.45752C3.4668 6.45752 4.45557 5.48096 4.45557 4.23584C4.45557 3.01514 3.4668 2.02637 2.24609 2.02637C1.00098 2.02637 0 3.01514 0 4.23584C0 5.48096 0.98877 6.45752 2.24609 6.45752ZM2.24609 12.8296C3.4668 12.8296 4.45557 11.853 4.45557 10.6079C4.45557 9.36279 3.4668 8.37402 2.24609 8.37402C0.98877 8.37402 0 9.36279 0 10.6079C0 11.853 0.98877 12.8296 2.24609 12.8296ZM2.24609 19.2139C3.4668 19.2139 4.45557 18.2129 4.45557 16.9678C4.45557 15.7471 3.4668 14.7583 2.24609 14.7583C1.00098 14.7583 0 15.7471 0 16.9678C0 18.2251 0.98877 19.2139 2.24609 19.2139ZM2.24609 25.5615C3.4668 25.5615 4.45557 24.5728 4.45557 23.3521C4.45557 22.1069 3.4668 21.1304 2.24609 21.1304C0.98877 21.1304 0 22.1069 0 23.3521C0 24.5728 1.00098 25.5615 2.24609 25.5615ZM8.39844 12.9028C8.39844 17.688 11.5601 21.0449 16.2109 21.4355L16.2109 24.2798L11.6821 24.2798C11.1694 24.2798 10.7544 24.6948 10.7544 25.2075C10.7544 25.7202 11.1694 26.123 11.6821 26.123L22.583 26.123C23.0957 26.123 23.5107 25.7202 23.5107 25.2075C23.5107 24.6948 23.0957 24.2798 22.583 24.2798L18.0542 24.2798L18.0542 21.4355C22.7051 21.0449 25.8667 17.688 25.8667 12.9028L25.8667 10.4248C25.8667 9.91211 25.4639 9.50928 24.9512 9.50928C24.4385 9.50928 24.0234 9.91211 24.0234 10.4248L24.0234 12.8296C24.0234 16.9922 21.3135 19.751 17.1265 19.751C12.9517 19.751 10.2417 16.9922 10.2417 12.8296L10.2417 10.4248C10.2417 9.91211 9.82666 9.50928 9.31396 9.50928C8.80127 9.50928 8.39844 9.91211 8.39844 10.4248ZM12.6953 12.4634C12.6953 15.271 14.502 17.2485 17.1265 17.2485C19.7632 17.2485 21.5698 15.271 21.5698 12.4634L21.5698 4.78516C21.5698 1.96533 19.7632 0 17.1265 0C14.502 0 12.6953 1.96533 12.6953 4.78516ZM14.5386 12.4634L14.5386 4.78516C14.5386 2.97852 15.564 1.81885 17.1265 1.81885C18.689 1.81885 19.7266 2.97852 19.7266 4.78516L19.7266 12.4634C19.7266 14.27 18.689 15.4297 17.1265 15.4297C15.564 15.4297 14.5386 14.27 14.5386 12.4634Z" fill="#5ac8f5"/>
 </g>
</svg>
