<?xml version="1.0" encoding="UTF-8"?>
<!--Generator: Apple Native CoreSVG 175.5-->
<!DOCTYPE svg
PUBLIC "-//W3C//DTD SVG 1.1//EN"
       "http://www.w3.org/Graphics/SVG/1.1/DTD/svg11.dtd">
<svg version="1.1" xmlns="http://www.w3.org/2000/svg" xmlns:xlink="http://www.w3.org/1999/xlink" width="21.4722" height="26.1597">
 <g>
  <rect height="26.1597" opacity="0" width="21.4722" x="0" y="0"/>
  <path d="M10.73 8.8501C13.0493 8.8501 14.8682 6.87256 14.8682 4.35791C14.8682 1.92871 13.0371 0 10.73 0C8.42285 0 6.5918 1.94092 6.604 4.38232C6.604 6.88477 8.41064 8.8501 10.73 8.8501ZM10.73 7.12891C9.39941 7.12891 8.42285 5.98145 8.42285 4.38232C8.42285 2.84424 9.41162 1.72119 10.73 1.72119C12.0483 1.72119 13.0493 2.84424 13.0493 4.35791C13.0493 5.96924 12.0605 7.12891 10.73 7.12891ZM3.9917 17.7002L17.4683 17.7002C18.4814 17.7002 19.0674 17.1143 19.0674 16.1743C19.0674 13.6719 15.8936 10.0342 10.73 10.0342C5.5542 10.0342 2.39258 13.6719 2.39258 16.1743C2.39258 17.1143 2.96631 17.7002 3.9917 17.7002ZM4.57764 15.979C4.32129 15.979 4.21143 15.8936 4.23584 15.7104C4.46777 14.27 6.72607 11.7554 10.73 11.7554C14.7217 11.7554 16.9922 14.27 17.2241 15.7104C17.2485 15.8936 17.1265 15.979 16.8823 15.979ZM0.976562 26.1597L20.4956 26.1597C21.0327 26.1597 21.4722 25.7202 21.4722 25.1831C21.4722 24.646 21.0327 24.1943 20.4956 24.1943L19.7388 24.1943L19.7388 21.3501C19.7388 20.0684 19.1406 19.3726 17.7612 19.3726L3.71094 19.3726C2.34375 19.3726 1.7334 20.0684 1.7334 21.3501L1.7334 24.1943L0.976562 24.1943C0.439453 24.1943 0 24.646 0 25.1831C0 25.7202 0.439453 26.1597 0.976562 26.1597ZM8.3374 23.5107C7.92236 23.5107 7.62939 23.1934 7.62939 22.7783C7.62939 22.3755 7.92236 22.0703 8.3374 22.0703L13.1592 22.0703C13.562 22.0703 13.8672 22.3755 13.8672 22.7783C13.8672 23.1934 13.562 23.5107 13.1592 23.5107Z" fill="#5ac8f5"/>
 </g>
</svg>
