<?xml version="1.0" encoding="UTF-8"?>
<!--Generator: Apple Native CoreSVG 175.5-->
<!DOCTYPE svg
PUBLIC "-//W3C//DTD SVG 1.1//EN"
       "http://www.w3.org/Graphics/SVG/1.1/DTD/svg11.dtd">
<svg version="1.1" xmlns="http://www.w3.org/2000/svg" xmlns:xlink="http://www.w3.org/1999/xlink" width="20.2881" height="28.1761">
 <g>
  <rect height="28.1761" opacity="0" width="20.2881" x="0" y="0"/>
  <path d="M2.40479 25.642L16.2842 28.0956C18.7744 28.5351 20.2881 27.1557 20.2881 24.4335L20.2881 9.33342C20.2881 6.84319 19.0063 5.93987 16.5283 5.51262L3.06396 3.13225C1.2085 2.80266 0 3.81584 0 5.6469L0 22.871C0 24.4457 0.805664 25.3613 2.40479 25.642ZM2.88086 23.7011C2.2583 23.6034 1.96533 23.2372 1.96533 22.5903L1.96533 5.97649C1.96533 5.31731 2.40479 4.98772 3.125 5.10979L16.4307 7.44133C17.6636 7.67327 18.3228 8.17375 18.3228 9.30901L18.3228 24.226C18.3228 25.6054 17.5171 26.3012 16.1987 26.0571ZM17.2363 7.01409L19.2017 7.01409L19.2017 4.15764C19.2017 1.59416 17.4805 0.361254 14.5874 0.873949L1.83105 3.13225L2.56348 4.82903L15.2832 2.71721C16.5039 2.50969 17.2363 3.02239 17.2363 4.0844ZM5.01709 10.4809L14.4287 12.141C15.0024 12.2387 15.3564 11.8847 15.3564 11.372C15.3564 10.9081 15.1245 10.664 14.6973 10.5785L5.33447 8.9428C4.77295 8.84514 4.38232 9.17473 4.38232 9.67522C4.38232 10.1025 4.61426 10.4076 5.01709 10.4809ZM5.01709 15.2416L14.4287 16.9018C15.0024 16.9994 15.3564 16.6454 15.3564 16.1327C15.3564 15.6689 15.1245 15.4247 14.6973 15.3393L5.33447 13.7035C4.77295 13.6059 4.38232 13.9355 4.38232 14.436C4.38232 14.8632 4.61426 15.1684 5.01709 15.2416Z" fill="#5ac8f5"/>
 </g>
</svg>
