<?xml version="1.0" encoding="UTF-8"?>
<!--Generator: Apple Native CoreSVG 175.5-->
<!DOCTYPE svg
PUBLIC "-//W3C//DTD SVG 1.1//EN"
       "http://www.w3.org/Graphics/SVG/1.1/DTD/svg11.dtd">
<svg version="1.1" xmlns="http://www.w3.org/2000/svg" xmlns:xlink="http://www.w3.org/1999/xlink" width="31.311" height="25.4272">
 <g>
  <rect height="25.4272" opacity="0" width="31.311" x="0" y="0"/>
  <path d="M5.22461 19.5312L5.59082 20.9961C6.05469 22.9004 7.06787 23.877 9.08203 23.877L22.229 23.877C24.2554 23.877 25.2563 22.9248 25.7324 20.9961L26.0986 19.5312ZM4.82178 17.8589L26.5137 17.8589L28.8086 8.45947L27.8076 7.88574L22.1802 11.9873C21.7651 12.2803 21.4844 12.1704 21.2524 11.8408L15.9546 3.83301L15.3687 3.80859L10.022 11.8774C9.81445 12.1948 9.57031 12.2925 9.15527 11.9995L3.6377 7.97119L2.46582 8.27637ZM2.91748 10.9009C4.52881 10.9009 5.82275 9.59473 5.82275 7.97119C5.82275 6.38428 4.52881 5.06592 2.91748 5.06592C1.30615 5.06592 0 6.37207 0 7.97119C0 9.59473 1.31836 10.9009 2.91748 10.9009ZM15.6616 5.82275C17.2607 5.82275 18.5669 4.5166 18.5669 2.90527C18.5669 1.31836 17.2607 0 15.6616 0C14.0381 0 12.7441 1.30615 12.7441 2.90527C12.7441 4.5166 14.0503 5.82275 15.6616 5.82275ZM28.3936 10.9009C29.9927 10.9009 31.311 9.59473 31.311 7.97119C31.311 6.37207 30.0049 5.06592 28.3936 5.06592C26.7944 5.06592 25.4883 6.38428 25.4883 7.97119C25.4883 9.59473 26.7944 10.9009 28.3936 10.9009Z" fill="#5ac8f5"/>
 </g>
</svg>
