<?xml version="1.0" encoding="UTF-8"?>
<!--Generator: Apple Native CoreSVG 175.5-->
<!DOCTYPE svg
PUBLIC "-//W3C//DTD SVG 1.1//EN"
       "http://www.w3.org/Graphics/SVG/1.1/DTD/svg11.dtd">
<svg version="1.1" xmlns="http://www.w3.org/2000/svg" xmlns:xlink="http://www.w3.org/1999/xlink" width="23.4586" height="31.0425">
 <g>
  <rect height="31.0425" opacity="0" width="23.4586" x="0" y="0"/>
  <path d="M6.10352 0C2.73438 0 0 2.73438 0 6.10352C0 7.55615 0.512695 8.89893 1.35498 9.94873C1.5625 10.2051 1.80664 10.3027 2.03857 10.3027C2.63672 10.3027 3.14941 9.59473 2.63672 8.98438C1.97754 8.20312 1.59912 7.20215 1.59912 6.10352C1.59912 3.61328 3.61328 1.59912 6.10352 1.59912C8.59375 1.59912 10.5957 3.61328 10.5957 6.10352C10.5957 6.17676 10.5957 6.25 10.5957 6.35986C10.6079 6.90918 10.9863 7.15332 11.377 7.15332C11.7554 7.15332 12.146 6.88477 12.1826 6.45752C12.1948 6.37207 12.1948 6.26221 12.1948 6.10352C12.1948 2.73438 9.47266 0 6.10352 0ZM17.9688 26.3062C22.9492 24.4995 24.6094 20.3613 22.6685 15.0269L21.875 12.8296C21.1426 10.8154 19.7266 9.93652 18.6279 10.3271C18.3716 10.4248 18.2861 10.6079 18.3716 10.8398L18.7378 11.8164C18.8965 12.2803 18.75 12.5854 18.4692 12.6953C18.1763 12.793 17.8589 12.6587 17.688 12.1948L17.4561 11.5601C17.0288 10.3638 15.979 9.86328 14.9536 10.2417C14.4897 10.4126 14.3555 10.6812 14.4897 11.0718L14.978 12.4023C15.1489 12.8662 14.9902 13.1714 14.7217 13.2812C14.4165 13.3911 14.0991 13.2446 13.9282 12.7808L13.4888 11.5601C13.0005 10.2173 11.9995 9.87549 10.9985 10.2417C10.5591 10.4004 10.4004 10.6934 10.5469 11.0718L11.4868 13.6719C11.6577 14.1357 11.499 14.4409 11.2305 14.5508C10.9253 14.6606 10.6079 14.5142 10.4492 14.0503L7.27539 5.34668C6.97021 4.49219 6.21338 4.15039 5.49316 4.40674C4.72412 4.6875 4.39453 5.43213 4.69971 6.28662L9.33838 19.0308C9.46045 19.3481 9.31396 19.5801 9.11865 19.6533C8.92334 19.7266 8.71582 19.6655 8.47168 19.397L5.33447 16.0278C4.87061 15.5396 4.39453 15.4175 3.86963 15.6128C3.08838 15.8936 2.7832 16.6138 3.01514 17.2729C3.11279 17.5293 3.24707 17.7246 3.38135 17.8833L7.25098 22.7539C10.5225 26.8555 14.3066 27.6367 17.9688 26.3062Z" fill="#5ac8f5"/>
 </g>
</svg>
