<?xml version="1.0" encoding="UTF-8"?>
<!--Generator: Apple Native CoreSVG 175.5-->
<!DOCTYPE svg
PUBLIC "-//W3C//DTD SVG 1.1//EN"
       "http://www.w3.org/Graphics/SVG/1.1/DTD/svg11.dtd">
<svg version="1.1" xmlns="http://www.w3.org/2000/svg" xmlns:xlink="http://www.w3.org/1999/xlink" width="22.8516" height="21.228">
 <g>
  <rect height="21.228" opacity="0" width="22.8516" x="0" y="0"/>
  <path d="M10.0342 20.874C10.2417 21.0815 10.5103 21.2036 10.8276 21.2036C11.4624 21.2036 11.9385 20.7275 11.9385 20.0928C11.9385 19.7876 11.8164 19.5068 11.6211 19.2993L2.06299 9.94873L2.06299 11.2549L11.6211 1.9165C11.8164 1.70898 11.9385 1.41602 11.9385 1.12305C11.9385 0.488281 11.4624 0 10.8276 0C10.5103 0 10.2417 0.12207 10.0342 0.32959L0.366211 9.79004C0.134277 9.98535 0 10.2905 0 10.6079C0 10.9131 0.12207 11.1938 0.354004 11.4258ZM20.9351 20.874C21.1426 21.0815 21.4233 21.2036 21.7285 21.2036C22.3633 21.2036 22.8516 20.7275 22.8516 20.0928C22.8516 19.7876 22.7173 19.5068 22.522 19.2993L12.9761 9.94873L12.9761 11.2549L22.522 1.9165C22.7173 1.70898 22.8516 1.41602 22.8516 1.12305C22.8516 0.488281 22.3633 0 21.7285 0C21.4233 0 21.1548 0.12207 20.9351 0.32959L11.2671 9.79004C11.0352 9.98535 10.9009 10.2905 10.9009 10.6079C10.9009 10.9131 11.0352 11.1938 11.2671 11.4258Z" fill="#5ac8f5"/>
 </g>
</svg>
