<?xml version="1.0" encoding="UTF-8"?>
<!--Generator: Apple Native CoreSVG 175.5-->
<!DOCTYPE svg
PUBLIC "-//W3C//DTD SVG 1.1//EN"
       "http://www.w3.org/Graphics/SVG/1.1/DTD/svg11.dtd">
<svg version="1.1" xmlns="http://www.w3.org/2000/svg" xmlns:xlink="http://www.w3.org/1999/xlink" width="24.9023" height="24.9146">
 <g>
  <rect height="24.9146" opacity="0" width="24.9023" x="0" y="0"/>
  <path d="M12.4512 24.9146C19.2627 24.9146 24.9023 19.2749 24.9023 12.4634C24.9023 5.66406 19.2505 0.012207 12.439 0.012207C5.63965 0.012207 0 5.66406 0 12.4634C0 19.2749 5.65186 24.9146 12.4512 24.9146ZM6.32324 18.3838C5.49316 18.3838 5.24902 17.6147 5.56641 16.9678L11.4014 5.27344C11.8652 4.3457 13.0249 4.32129 13.5132 5.29785L19.3237 16.9678C19.6533 17.6147 19.4092 18.3838 18.5547 18.3838ZM9.00879 17.2974L11.3403 17.2974L12.439 12.4756L13.5498 17.2974L15.8813 17.2974L12.8784 10.9863C12.7808 10.8032 12.6099 10.6934 12.439 10.6934C12.2925 10.6934 12.1094 10.8032 12.0117 10.9863Z" fill="#5ac8f5"/>
 </g>
</svg>
