<?xml version="1.0" encoding="UTF-8"?>
<!--Generator: Apple Native CoreSVG 175.5-->
<!DOCTYPE svg
PUBLIC "-//W3C//DTD SVG 1.1//EN"
       "http://www.w3.org/Graphics/SVG/1.1/DTD/svg11.dtd">
<svg version="1.1" xmlns="http://www.w3.org/2000/svg" xmlns:xlink="http://www.w3.org/1999/xlink" width="24.9023" height="24.9146">
 <g>
  <rect height="24.9146" opacity="0" width="24.9023" x="0" y="0"/>
  <path d="M12.4512 24.9023C19.2627 24.9023 24.9023 19.2505 24.9023 12.4512C24.9023 5.63965 19.2505 0 12.439 0C5.63965 0 0 5.63965 0 12.4512C0 19.2505 5.65186 24.9023 12.4512 24.9023ZM12.4512 22.8271C6.68945 22.8271 2.0874 18.2129 2.0874 12.4512C2.0874 6.68945 6.67725 2.0752 12.439 2.0752C18.2007 2.0752 22.8271 6.68945 22.8271 12.4512C22.8271 18.2129 18.2129 22.8271 12.4512 22.8271ZM8.21533 17.7002C8.21533 18.7378 8.93555 19.4458 10.022 19.4458L14.8804 19.4458C15.9668 19.4458 16.687 18.7378 16.687 17.7002L16.687 7.20215C16.687 6.16455 15.9668 5.45654 14.8804 5.45654L10.022 5.45654C8.93555 5.45654 8.21533 6.16455 8.21533 7.20215ZM9.31396 17.1875L9.31396 7.71484L15.5884 7.71484L15.5884 17.1875ZM12.4634 18.7622C12.1582 18.7622 11.9019 18.5059 11.9019 18.2007C11.9019 17.8955 12.1582 17.6392 12.4634 17.6392C12.7686 17.6392 13.0005 17.8955 13.0005 18.2007C13.0005 18.5059 12.7686 18.7622 12.4634 18.7622ZM11.1938 6.64062C11.1938 6.48193 11.3159 6.37207 11.4502 6.37207L13.4521 6.37207C13.5986 6.37207 13.7085 6.48193 13.7085 6.64062C13.7085 6.79932 13.5986 6.89697 13.4521 6.89697L11.4502 6.89697C11.3159 6.89697 11.1938 6.79932 11.1938 6.64062ZM5.41992 16.0767C5.59082 15.8691 5.54199 15.625 5.34668 15.3931C4.62646 14.5874 4.24805 13.562 4.24805 12.4512C4.24805 11.3403 4.62646 10.3149 5.34668 9.50928C5.54199 9.27734 5.59082 9.021 5.41992 8.82568C5.26123 8.60596 4.94385 8.60596 4.71191 8.83789C3.8208 9.80225 3.34473 11.084 3.34473 12.4512C3.34473 13.8062 3.8208 15.0879 4.71191 16.0645C4.94385 16.2964 5.26123 16.2964 5.41992 16.0767ZM7.17773 14.5752C7.34863 14.3677 7.2876 14.1357 7.10449 13.8916C6.79932 13.501 6.65283 13.0005 6.65283 12.4512C6.65283 11.9019 6.79932 11.3892 7.10449 11.0107C7.2876 10.7666 7.34863 10.5347 7.17773 10.3271C6.99463 10.1074 6.65283 10.1074 6.45752 10.3516C5.99365 10.9375 5.7251 11.6577 5.7251 12.4512C5.7251 13.2324 5.99365 13.9648 6.45752 14.5386C6.65283 14.7827 6.99463 14.7949 7.17773 14.5752ZM17.7368 14.5752C17.9199 14.7949 18.2617 14.7827 18.457 14.5386C18.9209 13.9648 19.2017 13.2324 19.2017 12.4512C19.2017 11.6577 18.9209 10.9375 18.457 10.3516C18.2617 10.1074 17.9199 10.1074 17.7368 10.3271C17.5659 10.5347 17.627 10.7666 17.8101 11.0107C18.1152 11.3892 18.2739 11.9019 18.2739 12.4512C18.2739 13.0005 18.1152 13.501 17.8101 13.8916C17.627 14.1357 17.5659 14.3677 17.7368 14.5752ZM19.4946 16.0767C19.6655 16.2964 19.9829 16.2964 20.2026 16.0645C21.0938 15.0879 21.582 13.8062 21.582 12.4512C21.582 11.084 21.0938 9.80225 20.2026 8.83789C19.9829 8.60596 19.6655 8.60596 19.4946 8.82568C19.3237 9.021 19.3726 9.27734 19.5801 9.50928C20.2881 10.3149 20.6787 11.3403 20.6787 12.4512C20.6787 13.562 20.2881 14.5874 19.5801 15.3931C19.3726 15.625 19.3237 15.8691 19.4946 16.0767Z" fill="#5ac8f5"/>
 </g>
</svg>
