<?xml version="1.0" encoding="UTF-8"?>
<!--Generator: Apple Native CoreSVG 175.5-->
<!DOCTYPE svg
PUBLIC "-//W3C//DTD SVG 1.1//EN"
       "http://www.w3.org/Graphics/SVG/1.1/DTD/svg11.dtd">
<svg version="1.1" xmlns="http://www.w3.org/2000/svg" xmlns:xlink="http://www.w3.org/1999/xlink" width="18.75" height="28.3813">
 <g>
  <rect height="28.3813" opacity="0" width="18.75" x="0" y="0"/>
  <path d="M0 20.5078C0 23.877 2.09961 26.0254 5.3833 26.0254C7.83691 26.0254 9.66797 24.9512 10.8276 22.876L11.9263 20.9106C14.502 16.1987 18.75 15.5884 18.75 9.53369C18.75 3.8208 15.0513 0 9.50928 0C3.83301 0 0 3.84521 0 9.58252ZM1.84326 20.3857L1.84326 9.58252C1.84326 4.93164 4.90723 1.84326 9.50928 1.84326C13.9526 1.84326 16.9067 4.93164 16.9067 9.53369C16.9067 14.5996 12.9395 15.4785 10.2783 20.0806L9.21631 21.8994C8.34961 23.4131 7.14111 24.1333 5.46875 24.1333C3.21045 24.1333 1.84326 22.7173 1.84326 20.3857ZM4.44336 15.7959C4.94385 15.7959 5.37109 15.3687 5.37109 14.8682L5.37109 9.50928C5.37109 7.16553 7.00684 5.61523 9.49707 5.61523C11.8652 5.61523 13.3911 7.15332 13.3911 9.50928C13.3911 10.0098 13.8062 10.437 14.3066 10.437C14.8071 10.437 15.2344 10.0098 15.2344 9.50928C15.2344 6.0791 12.9395 3.77197 9.49707 3.77197C5.93262 3.77197 3.52783 6.0791 3.52783 9.50928L3.52783 14.8682C3.52783 15.3687 3.94287 15.7959 4.44336 15.7959ZM4.3457 12.1704L8.47168 12.1704C9.30176 12.1704 9.82666 12.6709 9.82666 13.4033C9.82666 13.7817 9.63135 14.2944 9.33838 14.6484L7.87354 16.4917C7.71484 16.6992 7.62939 16.9189 7.62939 17.1509C7.62939 17.6514 8.05664 18.0664 8.55713 18.0664C8.83789 18.0664 9.10645 17.9199 9.31396 17.6636L10.9009 15.6494C11.4014 15.0146 11.731 14.0869 11.731 13.3301C11.731 11.5356 10.4248 10.3271 8.44727 10.3271L4.3457 10.3271Z" fill="#5ac8f5"/>
 </g>
</svg>
