<?xml version="1.0" encoding="UTF-8"?>
<!--Generator: Apple Native CoreSVG 175.5-->
<!DOCTYPE svg
PUBLIC "-//W3C//DTD SVG 1.1//EN"
       "http://www.w3.org/Graphics/SVG/1.1/DTD/svg11.dtd">
<svg version="1.1" xmlns="http://www.w3.org/2000/svg" xmlns:xlink="http://www.w3.org/1999/xlink" width="38.9153" height="26.9165">
 <g>
  <rect height="26.9165" opacity="0" width="38.9153" x="0" y="0"/>
  <path d="M1.56176 13.7939L13.1218 7.88574C13.3782 7.75146 13.6955 7.75146 13.9763 7.88574L25.5364 13.7939C26.9402 14.502 27.6726 12.8174 26.5251 12.2192L14.9285 6.12793C13.9397 5.61523 13.1462 5.61523 12.1697 6.12793L0.548572 12.2192C-0.574475 12.8174 0.157947 14.502 1.56176 13.7939ZM5.78539 26.8677L21.3127 26.8677C22.9729 26.8677 23.9495 25.9155 23.9495 24.2676L23.9495 12.3047L22.0696 11.2793L22.0696 23.7915C22.0696 24.5605 21.6545 24.9878 20.8977 24.9878L6.18822 24.9878C5.44359 24.9878 5.02855 24.5605 5.02855 23.7915L5.02855 11.2915L3.14867 12.2314L3.14867 24.2676C3.14867 25.9155 4.12523 26.8677 5.78539 26.8677ZM9.98461 25.9033L17.1013 25.9033L17.1013 17.2241C17.1013 16.687 16.7473 16.333 16.2102 16.333L10.8757 16.333C10.3386 16.333 9.98461 16.687 9.98461 17.2241ZM30.1262 26.8677C30.6511 26.8677 31.0662 26.4282 31.0662 25.9155L31.0662 7.15332C31.1882 7.12891 31.3347 7.1167 31.53 7.1167C33.5076 7.1167 34.7405 8.08105 36.6326 8.08105C37.4748 8.08105 37.8288 7.99561 38.2439 7.80029C38.7078 7.58057 38.9153 7.26318 38.9153 6.73828L38.9153 1.31836C38.9153 0.98877 38.7444 0.756836 38.2927 0.756836C37.9631 0.756836 37.487 0.98877 36.5837 0.98877C34.7161 0.98877 33.4587 0 31.4812 0C30.6267 0 30.2849 0.109863 29.8821 0.280762C29.4304 0.476074 29.1985 0.830078 29.1985 1.31836L29.1985 25.9155C29.1985 26.4282 29.6135 26.8677 30.1262 26.8677ZM1.07347 26.8677L35.0945 26.8677C35.6072 26.8677 36.0222 26.4282 36.0222 25.9155C36.0222 25.4028 35.6072 24.9878 35.0945 24.9878L1.07347 24.9878C0.560779 24.9878 0.133533 25.4028 0.133533 25.9155C0.133533 26.4282 0.560779 26.8677 1.07347 26.8677Z" fill="#5ac8f5"/>
 </g>
</svg>
