<?xml version="1.0" encoding="UTF-8"?>
<!--Generator: Apple Native CoreSVG 175.5-->
<!DOCTYPE svg
PUBLIC "-//W3C//DTD SVG 1.1//EN"
       "http://www.w3.org/Graphics/SVG/1.1/DTD/svg11.dtd">
<svg version="1.1" xmlns="http://www.w3.org/2000/svg" xmlns:xlink="http://www.w3.org/1999/xlink" width="20.5322" height="30.5054">
 <g>
  <rect height="30.5054" opacity="0" width="20.5322" x="0" y="0"/>
  <path d="M3.41797 25.1343L17.1143 25.1343C19.2871 25.1343 20.5322 23.645 20.5322 21.5576L20.5322 12.8052C20.5322 9.55811 20.1172 6.38428 19.6167 4.37012C19.1162 2.29492 17.7124 0.744629 15.5518 0.512695C14.7705 0.427246 12.7319 0.268555 10.2661 0.268555C7.80029 0.268555 5.74951 0.427246 4.98047 0.512695C2.80762 0.744629 1.41602 2.29492 0.915527 4.37012C0.415039 6.38428 0 9.55811 0 12.8052L0 21.5576C0 23.645 1.24512 25.1343 3.41797 25.1343ZM7.14111 4.06494C6.68945 4.06494 6.39648 3.75977 6.39648 3.30811C6.39648 2.85645 6.68945 2.57568 7.14111 2.57568L13.3789 2.57568C13.8428 2.57568 14.1357 2.85645 14.1357 3.30811C14.1357 3.75977 13.8428 4.06494 13.3789 4.06494ZM10.2661 17.0776C7.43408 17.0532 4.83398 16.9312 3.51562 16.7725C2.7832 16.6748 2.50244 16.1987 2.50244 15.5151L2.50244 12.7075C2.50244 10.2417 2.771 8.25195 2.96631 7.38525C3.08838 6.84814 3.41797 6.45752 3.94287 6.39648C5.32227 6.22559 7.01904 6.14014 10.2661 6.12793C13.501 6.11572 15.1978 6.22559 16.5405 6.39648C17.0898 6.45752 17.4316 6.84814 17.5537 7.38525C17.749 8.25195 18.0176 10.2417 18.0176 12.7075L18.0176 15.5151C18.0176 16.2109 17.7368 16.687 17.0044 16.7725C15.0391 16.98 12.439 17.0776 10.2661 17.0776ZM4.58984 22.5708C3.62549 22.5708 2.92969 21.875 2.92969 20.8984C2.92969 19.9341 3.62549 19.2261 4.58984 19.2261C5.56641 19.2261 6.27441 19.9341 6.27441 20.8984C6.27441 21.875 5.54199 22.5708 4.58984 22.5708ZM15.918 22.583C14.9536 22.583 14.2212 21.8628 14.2212 20.8984C14.2212 19.9463 14.9536 19.2139 15.918 19.2139C16.8701 19.2139 17.6025 19.9463 17.6025 20.8984C17.6025 21.8628 16.8579 22.583 15.918 22.583ZM1.85547 30.5054L2.53906 30.5054C2.88086 30.5054 3.06396 30.3833 3.24707 30.0903L6.71387 24.4995L4.38232 24.4995L1.30615 29.4434C0.98877 29.9561 1.28174 30.5054 1.85547 30.5054ZM2.92969 28.9673L17.6392 28.9673L17.6392 27.1362L2.92969 27.1362ZM18.042 30.5054L18.7256 30.5054C19.2871 30.5054 19.5435 29.9438 19.2383 29.4434L16.1865 24.4995L13.855 24.4995L17.3218 30.0903C17.5049 30.3833 17.7002 30.5054 18.042 30.5054Z" fill="#5ac8f5"/>
 </g>
</svg>
