<?xml version="1.0" encoding="UTF-8"?>
<!--Generator: Apple Native CoreSVG 175.5-->
<!DOCTYPE svg
PUBLIC "-//W3C//DTD SVG 1.1//EN"
       "http://www.w3.org/Graphics/SVG/1.1/DTD/svg11.dtd">
<svg version="1.1" xmlns="http://www.w3.org/2000/svg" xmlns:xlink="http://www.w3.org/1999/xlink" width="24.9023" height="24.9146">
 <g>
  <rect height="24.9146" opacity="0" width="24.9023" x="0" y="0"/>
  <path d="M12.4512 24.9023C19.2627 24.9023 24.9023 19.2505 24.9023 12.4512C24.9023 5.63965 19.2505 0 12.439 0C5.63965 0 0 5.63965 0 12.4512C0 19.2505 5.65186 24.9023 12.4512 24.9023Z" fill="#5ac8f5" fill-opacity="0.25"/>
  <path d="M8.41064 17.8833C6.70166 17.8833 5.37109 16.8335 5.0293 15.6738C4.99268 15.5151 4.96826 15.3809 4.96826 15.21C4.96826 14.7705 5.27344 14.4531 5.70068 14.4531C6.05469 14.4531 6.26221 14.6484 6.4209 15.0513C6.7627 15.9302 7.43408 16.4185 8.43506 16.4185C9.63135 16.4185 10.4736 15.686 10.4736 14.7095C10.4736 13.6841 9.70459 13.0127 8.52051 13.0127L7.77588 13.0127C7.36084 13.0127 7.08008 12.6953 7.08008 12.2925C7.08008 11.8286 7.37305 11.5356 7.77588 11.5356L8.45947 11.5356C9.46045 11.5356 10.1562 10.8765 10.1562 9.96094C10.1562 9.08203 9.46045 8.48389 8.47168 8.48389C7.48291 8.48389 6.88477 8.97217 6.604 9.85107C6.48193 10.2539 6.27441 10.4492 5.896 10.4492C5.45654 10.4492 5.17578 10.1318 5.17578 9.68018C5.17578 9.52148 5.17578 9.38721 5.2124 9.22852C5.54199 7.99561 6.79932 7.01904 8.5083 7.01904C10.3882 7.01904 11.7188 8.14209 11.7188 9.75342C11.7188 10.9375 10.9009 11.9873 9.85107 12.1582L9.85107 12.2314C11.1206 12.3657 12.0605 13.4399 12.0605 14.7827C12.0605 16.5894 10.5591 17.8833 8.41064 17.8833ZM15.2832 17.7368C14.8071 17.7368 14.4287 17.395 14.4287 16.9189C14.4287 16.6748 14.4653 16.5283 14.5752 16.333L18.4692 8.78906L18.4692 8.69141L14.0503 8.69141C13.623 8.69141 13.3179 8.41064 13.3179 7.99561C13.3179 7.56836 13.623 7.27539 14.0503 7.27539L19.1284 7.27539C19.812 7.27539 20.2515 7.76367 20.2515 8.37402C20.2515 8.64258 20.2026 8.87451 20.0195 9.27734L16.0767 17.1143C15.8691 17.5537 15.6128 17.7368 15.2832 17.7368Z" fill="#5ac8f5"/>
 </g>
</svg>
