<?xml version="1.0" encoding="UTF-8"?>
<!--Generator: Apple Native CoreSVG 175.5-->
<!DOCTYPE svg
PUBLIC "-//W3C//DTD SVG 1.1//EN"
       "http://www.w3.org/Graphics/SVG/1.1/DTD/svg11.dtd">
<svg version="1.1" xmlns="http://www.w3.org/2000/svg" xmlns:xlink="http://www.w3.org/1999/xlink" width="28.1128" height="22.4243">
 <g>
  <rect height="22.4243" opacity="0" width="28.1128" x="0" y="0"/>
  <path d="M6.88477 0C4.19922 0 1.40381 1.24512 0.146484 3.40576C0.012207 3.6499 0 3.80859 0 4.26025L0 21.4844C0 22.0459 0.354004 22.3877 0.964355 22.3877C1.25732 22.3877 1.53809 22.3022 1.75781 22.0947C3.2959 20.7764 5.33447 20.0928 7.37305 20.0928C9.27734 20.0928 11.0474 20.7642 12.3413 21.875C12.4756 21.9849 12.6343 22.0459 12.7686 22.0459C13.0371 22.0459 13.2568 21.8506 13.2568 21.5332L13.2568 3.479C13.2568 3.16162 13.2324 3.08838 13.0005 2.75879C11.8042 1.0376 9.46045 0 6.88477 0ZM21.228 0C18.6523 0 16.3086 1.0376 15.1123 2.75879C14.8804 3.08838 14.856 3.16162 14.856 3.479L14.856 21.5332C14.856 21.8506 15.0757 22.0459 15.3442 22.0459C15.4785 22.0459 15.6494 21.9849 15.7715 21.875C17.0654 20.7642 18.8354 20.0928 20.7397 20.0928C22.7783 20.0928 24.8169 20.7764 26.355 22.0947C26.5747 22.3022 26.8555 22.3877 27.1484 22.3877C27.7588 22.3877 28.1128 22.0459 28.1128 21.4844L28.1128 4.26025C28.1128 3.80859 28.1006 3.6377 27.9663 3.40576C26.709 1.24512 23.9136 0 21.228 0Z" fill="#5ac8f5"/>
 </g>
</svg>
