<?xml version="1.0" encoding="UTF-8"?>
<!--Generator: Apple Native CoreSVG 175.5-->
<!DOCTYPE svg
PUBLIC "-//W3C//DTD SVG 1.1//EN"
       "http://www.w3.org/Graphics/SVG/1.1/DTD/svg11.dtd">
<svg version="1.1" xmlns="http://www.w3.org/2000/svg" xmlns:xlink="http://www.w3.org/1999/xlink" width="24.9023" height="24.9146">
 <g>
  <rect height="24.9146" opacity="0" width="24.9023" x="0" y="0"/>
  <path d="M12.4512 24.9023C19.2627 24.9023 24.9023 19.2505 24.9023 12.4512C24.9023 5.63965 19.2505 0 12.439 0C5.63965 0 0 5.63965 0 12.4512C0 19.2505 5.65186 24.9023 12.4512 24.9023ZM12.4512 22.8271C6.68945 22.8271 2.0874 18.2129 2.0874 12.4512C2.0874 6.68945 6.67725 2.0752 12.439 2.0752C18.2007 2.0752 22.8271 6.68945 22.8271 12.4512C22.8271 18.2129 18.2129 22.8271 12.4512 22.8271Z" fill="#5ac8f5" fill-opacity="0.5"/>
  <path d="M12.0483 17.9443C12.4512 17.9443 12.7441 17.6514 12.7441 17.2485L12.7441 7.67822C12.7441 7.27539 12.4512 6.9458 12.0361 6.9458C11.7432 6.9458 11.5479 7.08008 11.2305 7.37305L8.56934 9.8877C8.53271 9.92432 8.47168 9.93652 8.41064 9.93652L6.61621 9.93652C5.78613 9.93652 5.32227 10.4004 5.32227 11.2915L5.32227 13.623C5.32227 14.502 5.78613 14.9658 6.61621 14.9658L8.41064 14.9658C8.47168 14.9658 8.53271 14.9902 8.56934 15.0269L11.2305 17.5659C11.5112 17.8223 11.7554 17.9443 12.0483 17.9443Z" fill="#5ac8f5"/>
  <path d="M14.8193 15.1978C15.0879 15.4053 15.4785 15.3198 15.6982 15.0391C16.1987 14.3921 16.4795 13.4277 16.4795 12.439C16.4795 11.4746 16.1865 10.5103 15.6982 9.85107C15.4907 9.55811 15.0879 9.48486 14.8193 9.69238C14.5142 9.92432 14.4531 10.3027 14.6851 10.6201C15.0024 11.0474 15.21 11.731 15.21 12.439C15.21 13.1226 15.0024 13.8062 14.6729 14.27C14.4531 14.5996 14.502 14.9536 14.8193 15.1978Z" fill="#5ac8f5"/>
  <path d="M16.98 16.8091C17.2974 17.0044 17.6514 16.9434 17.8589 16.6504C18.6768 15.4907 19.1406 14.0015 19.1406 12.439C19.1406 10.9131 18.7012 9.42383 17.8589 8.23975C17.6392 7.93457 17.2729 7.86133 16.98 8.05664C16.687 8.27637 16.6382 8.65479 16.8579 8.97217C17.5171 9.8999 17.8833 11.1328 17.8833 12.439C17.8833 13.7329 17.5171 15.0146 16.8579 15.9058C16.626 16.2231 16.6626 16.6138 16.98 16.8091Z" fill="#5ac8f5"/>
 </g>
</svg>
