<?xml version="1.0" encoding="UTF-8"?>
<!--Generator: Apple Native CoreSVG 175.5-->
<!DOCTYPE svg
PUBLIC "-//W3C//DTD SVG 1.1//EN"
       "http://www.w3.org/Graphics/SVG/1.1/DTD/svg11.dtd">
<svg version="1.1" xmlns="http://www.w3.org/2000/svg" xmlns:xlink="http://www.w3.org/1999/xlink" width="29.2847" height="22.4976">
 <g>
  <rect height="22.4976" opacity="0" width="29.2847" x="0" y="0"/>
  <path d="M8.22754 22.4976L21.0449 22.4976C23.4497 22.4976 24.5117 21.3745 24.8779 18.9819L26.8433 5.70068L24.8779 5.82275L22.9248 18.9575C22.7417 20.166 22.0947 20.6543 21.0205 20.6543L8.26416 20.6543C7.16553 20.6543 6.53076 20.166 6.35986 18.9575L4.40674 5.82275L2.44141 5.70068L4.40674 18.9819C4.76074 21.3867 5.83496 22.4976 8.22754 22.4976ZM2.31934 6.73828L26.9653 6.73828C28.4668 6.73828 29.2847 5.79834 29.2847 4.30908L29.2847 2.45361C29.2847 0.964355 28.4668 0.0244141 26.9653 0.0244141L2.31934 0.0244141C0.891113 0.0244141 0 0.964355 0 2.45361L0 4.30908C0 5.79834 0.817871 6.73828 2.31934 6.73828ZM2.81982 4.89502C2.20947 4.89502 1.96533 4.63867 1.96533 4.02832L1.96533 2.73438C1.96533 2.12402 2.20947 1.86768 2.81982 1.86768L26.4771 1.86768C27.0874 1.86768 27.3193 2.12402 27.3193 2.73438L27.3193 4.02832C27.3193 4.63867 27.0874 4.89502 26.4771 4.89502Z" fill="#5ac8f5" fill-opacity="0.5"/>
  <path d="M15.6128 17.5415L15.6128 13.147L15.5273 11.1694L16.5649 12.2314L17.6392 13.3301C17.8101 13.501 18.042 13.5986 18.2861 13.5986C18.7744 13.5986 19.1528 13.2568 19.1528 12.7686C19.1528 12.4878 19.0308 12.2803 18.8354 12.1094L15.3564 8.89893C15.1001 8.66699 14.917 8.58154 14.6729 8.58154C14.4409 8.58154 14.2456 8.66699 13.9893 8.89893L10.5103 12.1094C10.3149 12.2803 10.2051 12.4878 10.2051 12.7686C10.2051 13.2568 10.5713 13.5986 11.0718 13.5986C11.2915 13.5986 11.5479 13.501 11.7188 13.3301L12.7808 12.2314L13.8184 11.1694L13.7451 13.147L13.7451 17.5415C13.7451 18.042 14.1724 18.457 14.6729 18.457C15.1733 18.457 15.6128 18.042 15.6128 17.5415Z" fill="#5ac8f5"/>
 </g>
</svg>
