<?xml version="1.0" encoding="UTF-8"?>
<!--Generator: Apple Native CoreSVG 175.5-->
<!DOCTYPE svg
PUBLIC "-//W3C//DTD SVG 1.1//EN"
       "http://www.w3.org/Graphics/SVG/1.1/DTD/svg11.dtd">
<svg version="1.1" xmlns="http://www.w3.org/2000/svg" xmlns:xlink="http://www.w3.org/1999/xlink" width="24.9023" height="24.9146">
 <g>
  <rect height="24.9146" opacity="0" width="24.9023" x="0" y="0"/>
  <path d="M12.4512 24.9146C19.2627 24.9146 24.9023 19.2749 24.9023 12.4634C24.9023 5.66406 19.2505 0.012207 12.439 0.012207C5.63965 0.012207 0 5.66406 0 12.4634C0 19.2749 5.65186 24.9146 12.4512 24.9146ZM6.67725 17.9077L11.5356 5.52979C11.8774 4.67529 13.0127 4.65088 13.3545 5.50537L18.2129 17.9077C18.5425 18.7256 17.6392 19.4336 16.8701 18.6646L12.7686 14.563C12.5732 14.3555 12.3291 14.3555 12.1338 14.563L8.03223 18.6646C7.25098 19.4336 6.34766 18.7256 6.67725 17.9077Z" fill="#5ac8f5"/>
 </g>
</svg>
