<?xml version="1.0" encoding="UTF-8"?>
<!--Generator: Apple Native CoreSVG 175.5-->
<!DOCTYPE svg
PUBLIC "-//W3C//DTD SVG 1.1//EN"
       "http://www.w3.org/Graphics/SVG/1.1/DTD/svg11.dtd">
<svg version="1.1" xmlns="http://www.w3.org/2000/svg" xmlns:xlink="http://www.w3.org/1999/xlink" width="24.9023" height="25.0122">
 <g>
  <rect height="25.0122" opacity="0" width="24.9023" x="0" y="0"/>
  <path d="M12.4512 22.937C6.68945 22.937 2.06299 18.3228 2.0752 12.561C2.0874 6.79932 6.70166 2.18506 12.4512 2.18506Z" fill="#5ac8f5" fill-opacity="0.25"/>
  <path d="M12.4512 25.0122C19.2627 25.0122 24.9023 19.3604 24.9023 12.561C24.9023 5.74951 19.2749 0.109863 12.4512 0.109863C5.66406 0.109863 0 5.74951 0 12.561C0 19.3604 5.65186 25.0122 12.4512 25.0122ZM12.4512 22.937C6.68945 22.937 2.06299 18.3228 2.0752 12.561C2.0874 6.79932 6.70166 2.18506 12.4512 2.18506Z" fill="#5ac8f5"/>
 </g>
</svg>
