<?xml version="1.0" encoding="UTF-8"?>
<!--Generator: Apple Native CoreSVG 175.5-->
<!DOCTYPE svg
PUBLIC "-//W3C//DTD SVG 1.1//EN"
       "http://www.w3.org/Graphics/SVG/1.1/DTD/svg11.dtd">
<svg version="1.1" xmlns="http://www.w3.org/2000/svg" xmlns:xlink="http://www.w3.org/1999/xlink" width="13.4766" height="21.4722">
 <g>
  <rect height="21.4722" opacity="0" width="13.4766" x="0" y="0"/>
  <path d="M5.24902 0.0854492C2.4292 0.109863 0 2.4292 0 5.59082C0 8.8623 4.65088 12.7808 8.03223 12.793C10.4736 12.8052 13.4766 10.437 13.4766 7.43408C13.4766 3.80859 8.99658 0.0610352 5.24902 0.0854492ZM9.19189 11.1084C8.53271 11.1084 8.49609 10.2539 9.15527 9.19189C9.80225 8.10547 10.8643 7.26318 11.5356 7.26318C12.207 7.26318 12.2437 8.10547 11.5845 9.19189C10.9375 10.2539 9.87549 11.1084 9.19189 11.1084ZM5.79834 5.66406C5.41992 6.20117 4.6875 6.32324 4.12598 5.92041L2.4292 4.71191C1.87988 4.30908 1.77002 3.60107 2.18506 3.06396C2.55127 2.51465 3.28369 2.38037 3.8208 2.771L5.51758 4.00391C6.05469 4.38232 6.17676 5.11475 5.79834 5.66406ZM4.66309 21.4722C5.41992 21.4722 5.92041 21.0815 5.92041 20.3369L5.92041 13.5986C4.49219 13.147 3.07617 12.2925 1.87988 11.2183L1.87988 20.3369C1.87988 21.0815 2.36816 21.4722 3.125 21.4722Z" fill="#5ac8f5"/>
 </g>
</svg>
