<?xml version="1.0" encoding="UTF-8"?>
<!--Generator: Apple Native CoreSVG 175.5-->
<!DOCTYPE svg
PUBLIC "-//W3C//DTD SVG 1.1//EN"
       "http://www.w3.org/Graphics/SVG/1.1/DTD/svg11.dtd">
<svg version="1.1" xmlns="http://www.w3.org/2000/svg" xmlns:xlink="http://www.w3.org/1999/xlink" width="23.0347" height="25.2319">
 <g>
  <rect height="25.2319" opacity="0" width="23.0347" x="0" y="0"/>
  <path d="M0 19.3237C0 20.2148 0.683594 20.8008 1.84326 20.8008L6.99463 20.8008C7.09229 23.1567 8.93555 25.2197 11.5112 25.2197C14.0991 25.2197 15.9424 23.1689 16.04 20.8008L21.1914 20.8008C22.3389 20.8008 23.0347 20.2148 23.0347 19.3237C23.0347 18.103 21.7896 17.0044 20.7397 15.918C19.9341 15.0757 19.7144 13.3423 19.6167 11.9385C19.5312 7.12891 18.2861 4.02832 15.0391 2.85645C14.624 1.25732 13.3179 0 11.5112 0C9.7168 0 8.39844 1.25732 7.99561 2.85645C4.74854 4.02832 3.50342 7.12891 3.41797 11.9385C3.32031 13.3423 3.10059 15.0757 2.29492 15.918C1.23291 17.0044 0 18.103 0 19.3237ZM2.36816 18.9575L2.36816 18.811C2.58789 18.457 3.32031 17.7368 3.95508 17.0288C4.83398 16.0522 5.24902 14.4775 5.35889 12.0972C5.45654 6.7627 7.04346 5.06592 9.13086 4.49219C9.43604 4.41895 9.60693 4.27246 9.61914 3.95508C9.65576 2.68555 10.3882 1.79443 11.5112 1.79443C12.6465 1.79443 13.3667 2.68555 13.4155 3.95508C13.4277 4.27246 13.5864 4.41895 13.8916 4.49219C15.9912 5.06592 17.5781 6.7627 17.6758 12.0972C17.7856 14.4775 18.2007 16.0522 19.0674 17.0288C19.7144 17.7368 20.4346 18.457 20.6543 18.811L20.6543 18.9575ZM8.89893 20.8008L14.1357 20.8008C14.0381 22.4609 12.9883 23.4985 11.5112 23.4985C10.0464 23.4985 8.98438 22.4609 8.89893 20.8008Z" fill="#5ac8f5"/>
 </g>
</svg>
