<?xml version="1.0" encoding="UTF-8"?>
<!--Generator: Apple Native CoreSVG 175.5-->
<!DOCTYPE svg
PUBLIC "-//W3C//DTD SVG 1.1//EN"
       "http://www.w3.org/Graphics/SVG/1.1/DTD/svg11.dtd">
<svg version="1.1" xmlns="http://www.w3.org/2000/svg" xmlns:xlink="http://www.w3.org/1999/xlink" width="20.2881" height="27.4427">
 <g>
  <rect height="27.4427" opacity="0" width="20.2881" x="0" y="0"/>
  <path d="M2.40479 24.9091L16.2842 27.3627C18.7744 27.8022 20.2881 26.4106 20.2881 23.7006L20.2881 8.60052C20.2881 6.11028 19.0063 5.20696 16.5283 4.76751L3.06396 2.39935C1.2085 2.06976 0 3.08294 0 4.90179L0 22.1381C0 23.7006 0.805664 24.6284 2.40479 24.9091ZM2.88086 22.9682C2.2583 22.8583 1.96533 22.5043 1.96533 21.8574L1.96533 5.23138C1.96533 4.58441 2.40479 4.25482 3.125 4.36468L16.4307 6.70843C17.6636 6.92816 18.3228 7.44085 18.3228 8.5761L18.3228 23.4809C18.3228 24.8725 17.5171 25.5683 16.1987 25.3242ZM17.2363 6.28118L19.2017 6.28118L19.2017 3.42474C19.2017 0.849054 17.4805-0.37165 14.5874 0.141046L1.83105 2.38714L2.56348 4.09612L15.2832 1.98431C16.5039 1.77679 17.2363 2.28948 17.2363 3.35149ZM3.58887 10.0532C3.58887 11.0785 5.18799 11.0785 5.18799 10.1142L5.18799 8.47845C5.18799 8.14886 5.3833 8.00237 5.76172 8.06341L7.37305 8.35638C8.41064 8.53948 8.61816 6.97698 7.69043 6.80608L5.07812 6.34222C4.15039 6.18353 3.58887 6.58636 3.58887 7.47747ZM15.1001 12.0429C15.1001 13.0683 16.6992 13.1659 16.6992 12.0429L16.6992 10.0043C16.6992 8.86907 16.1499 8.29534 14.7949 8.0512L13.5254 7.83148C12.4146 7.63616 12.146 9.18646 13.2568 9.38177L14.27 9.56487C14.9902 9.68694 15.1001 10.1264 15.1001 10.4926ZM5.18799 17.829C5.18799 16.8036 3.58887 16.706 3.58887 17.829L3.58887 19.8676C3.58887 21.0029 4.13818 21.5766 5.49316 21.8207L6.7627 22.0405C7.87354 22.2358 8.14209 20.6733 7.03125 20.4902L6.01807 20.3071C5.29785 20.185 5.18799 19.7455 5.18799 19.3793ZM16.6992 19.8188C16.6992 18.7934 15.1001 18.7934 15.1001 19.7577L15.1001 21.3935C15.1001 21.7231 14.9048 21.8696 14.5264 21.8085L12.915 21.5156C11.8774 21.3325 11.6699 22.895 12.5977 23.0659L15.21 23.5297C16.1377 23.6884 16.6992 23.2856 16.6992 22.3945Z" fill="#5ac8f5"/>
 </g>
</svg>
