<?xml version="1.0" encoding="UTF-8"?>
<!--Generator: Apple Native CoreSVG 175.5-->
<!DOCTYPE svg
PUBLIC "-//W3C//DTD SVG 1.1//EN"
       "http://www.w3.org/Graphics/SVG/1.1/DTD/svg11.dtd">
<svg version="1.1" xmlns="http://www.w3.org/2000/svg" xmlns:xlink="http://www.w3.org/1999/xlink" width="22.4731" height="22.4976">
 <g>
  <rect height="22.4976" opacity="0" width="22.4731" x="0" y="0"/>
  <path d="M3.83301 22.4976L18.6401 22.4976C21.2036 22.4976 22.4731 21.228 22.4731 18.7134L22.4731 3.80859C22.4731 1.29395 21.2036 0.0244141 18.6401 0.0244141L3.83301 0.0244141C1.28174 0.0244141 0 1.28174 0 3.80859L0 18.7134C0 21.2402 1.28174 22.4976 3.83301 22.4976ZM3.85742 20.5322C2.63672 20.5322 1.96533 19.8853 1.96533 18.6157L1.96533 3.90625C1.96533 2.63672 2.63672 1.98975 3.85742 1.98975L18.6157 1.98975C19.8242 1.98975 20.5078 2.63672 20.5078 3.90625L20.5078 18.6157C20.5078 19.8853 19.8242 20.5322 18.6157 20.5322Z" fill="#5ac8f5" fill-opacity="0.5"/>
  <path d="M11.1572 17.0532C13.6475 17.0532 15.3442 15.5029 15.3442 13.147C15.3442 10.9863 13.7939 9.48486 11.5601 9.48486C10.5713 9.48486 9.5459 9.92432 9.10645 10.5347L9.021 10.5347L9.30176 7.21436L14.1724 7.21436C14.5996 7.21436 14.9048 6.89697 14.9048 6.45752C14.9048 6.01807 14.6118 5.71289 14.1724 5.71289L9.13086 5.71289C8.3374 5.71289 7.8125 6.15234 7.75146 6.86035L7.42188 10.9253C7.37305 11.6211 7.77588 12.085 8.45947 12.085C8.91113 12.085 9.17969 11.9873 9.65576 11.6211C10.2417 11.1206 10.7056 10.9375 11.3403 10.9375C12.6343 10.9375 13.501 11.8408 13.501 13.1836C13.501 14.5264 12.4878 15.5273 11.1328 15.5273C10.1318 15.5273 9.27734 15.0269 8.87451 14.2212C8.65479 13.8306 8.36182 13.6353 8.00781 13.6353C7.51953 13.6353 7.18994 13.9771 7.18994 14.4409C7.18994 14.6484 7.23877 14.8438 7.31201 15.0269C7.80029 16.272 9.21631 17.0532 11.1572 17.0532Z" fill="#5ac8f5"/>
 </g>
</svg>
