<?xml version="1.0" encoding="UTF-8"?>
<!--Generator: Apple Native CoreSVG 175.5-->
<!DOCTYPE svg
PUBLIC "-//W3C//DTD SVG 1.1//EN"
       "http://www.w3.org/Graphics/SVG/1.1/DTD/svg11.dtd">
<svg version="1.1" xmlns="http://www.w3.org/2000/svg" xmlns:xlink="http://www.w3.org/1999/xlink" width="28.7842" height="22.4731">
 <g>
  <rect height="22.4731" opacity="0" width="28.7842" x="0" y="0"/>
  <path d="M6.92139 6.5918L11.9263 6.5918L11.9263 1.96533L6.92139 1.96533ZM16.8579 6.5918L21.8628 6.5918L21.8628 1.96533L16.8579 1.96533ZM1.96533 11.2427L6.92139 11.2427L6.92139 6.5918L1.96533 6.5918ZM11.9263 11.2427L16.8579 11.2427L16.8579 6.5918L11.9263 6.5918ZM21.8628 11.2427L26.8311 11.2427L26.8311 6.5918L21.8628 6.5918ZM6.92139 15.8691L11.9263 15.8691L11.9263 11.2427L6.92139 11.2427ZM16.8579 15.8691L21.8628 15.8691L21.8628 11.2427L16.8579 11.2427ZM1.96533 19.9829L2.55127 20.5078L6.92139 20.5078L6.92139 15.8691L1.96533 15.8691ZM11.9263 20.5078L16.8579 20.5078L16.8579 15.8691L11.9263 15.8691ZM21.8628 20.5078L26.1841 20.5078L26.8311 19.9463L26.8311 15.8691L21.8628 15.8691ZM3.83301 22.4731L24.9512 22.4731C27.5146 22.4731 28.7842 21.2158 28.7842 18.7012L28.7842 3.78418C28.7842 1.26953 27.5146 0 24.9512 0L3.83301 0C1.28174 0 0 1.26953 0 3.78418L0 18.7012C0 21.2158 1.28174 22.4731 3.83301 22.4731ZM3.85742 20.5078C2.63672 20.5078 1.96533 19.8608 1.96533 18.5913L1.96533 3.89404C1.96533 2.62451 2.63672 1.96533 3.85742 1.96533L24.9268 1.96533C26.1353 1.96533 26.8188 2.62451 26.8188 3.89404L26.8188 18.5913C26.8188 19.8608 26.1353 20.5078 24.9268 20.5078Z" fill="#5ac8f5"/>
 </g>
</svg>
