<?xml version="1.0" encoding="UTF-8"?>
<!--Generator: Apple Native CoreSVG 175.5-->
<!DOCTYPE svg
PUBLIC "-//W3C//DTD SVG 1.1//EN"
       "http://www.w3.org/Graphics/SVG/1.1/DTD/svg11.dtd">
<svg version="1.1" xmlns="http://www.w3.org/2000/svg" xmlns:xlink="http://www.w3.org/1999/xlink" width="24.9023" height="24.9146">
 <g>
  <rect height="24.9146" opacity="0" width="24.9023" x="0" y="0"/>
  <path d="M12.4512 24.9023C19.2627 24.9023 24.9023 19.2505 24.9023 12.4512C24.9023 5.63965 19.2505 0 12.439 0C5.63965 0 0 5.63965 0 12.4512C0 19.2505 5.65186 24.9023 12.4512 24.9023ZM12.4512 22.8271C6.68945 22.8271 2.0874 18.2129 2.0874 12.4512C2.0874 6.68945 6.67725 2.0752 12.439 2.0752C18.2007 2.0752 22.8271 6.68945 22.8271 12.4512C22.8271 18.2129 18.2129 22.8271 12.4512 22.8271Z" fill="#5ac8f5" fill-opacity="0.5"/>
  <path d="M12.439 17.1143C14.9902 17.1143 17.1021 15.0269 17.1021 12.439C17.1021 9.8877 14.9902 7.80029 12.439 7.80029C9.87549 7.80029 7.76367 9.8877 7.76367 12.439C7.76367 15.0269 9.87549 17.1143 12.439 17.1143ZM12.4512 15.1978C10.9497 15.1978 9.7168 13.9526 9.7168 12.439C9.7168 10.9619 10.9619 9.729 12.4512 9.729C13.9282 9.729 15.1611 10.9619 15.1611 12.439C15.1611 13.9526 13.9282 15.1978 12.4512 15.1978Z" fill="#5ac8f5"/>
 </g>
</svg>
