<?xml version="1.0" encoding="UTF-8"?>
<!--Generator: Apple Native CoreSVG 175.5-->
<!DOCTYPE svg
PUBLIC "-//W3C//DTD SVG 1.1//EN"
       "http://www.w3.org/Graphics/SVG/1.1/DTD/svg11.dtd">
<svg version="1.1" xmlns="http://www.w3.org/2000/svg" xmlns:xlink="http://www.w3.org/1999/xlink" width="24.9023" height="29.8462">
 <g>
  <rect height="29.8462" opacity="0" width="24.9023" x="0" y="0"/>
  <path d="M12.4512 27.3682C19.2627 27.3682 24.9023 21.7163 24.9023 14.917C24.9023 8.10547 19.2505 2.46582 12.439 2.46582C5.63965 2.46582 0 8.10547 0 14.917C0 21.7163 5.65186 27.3682 12.4512 27.3682ZM12.4512 25.293C6.68945 25.293 2.0874 20.6787 2.0874 14.917C2.0874 9.15527 6.67725 4.54102 12.439 4.54102C18.2007 4.54102 22.8149 9.15527 22.8271 14.917C22.8394 20.6787 18.2129 25.293 12.4512 25.293ZM11.1328 3.22266L13.7451 3.22266L13.7451 1.34277C13.7451 0.610352 13.1714 0 12.439 0C11.731 0 11.1328 0.610352 11.1328 1.34277ZM20.0562 5.85938L21.875 7.72705L23.2178 6.35986C23.4985 6.0791 23.6572 5.70068 23.6572 5.37109C23.6572 4.6875 23.1079 4.13818 22.3999 4.13818C21.9849 4.13818 21.6919 4.26025 21.3989 4.54102Z" fill="#5ac8f5" fill-opacity="0.5"/>
  <path d="M12.4512 16.8945C13.5376 16.8945 14.4165 16.0156 14.4165 14.9292C14.4165 14.1602 13.9771 13.4888 13.2935 13.1592L13.2935 7.09229C13.2935 6.61621 12.915 6.25 12.439 6.25C11.9629 6.25 11.5967 6.61621 11.5967 7.09229L11.5967 13.147C10.9253 13.501 10.4858 14.1602 10.4858 14.9292C10.4858 16.0156 11.3525 16.8945 12.4512 16.8945Z" fill="#5ac8f5"/>
 </g>
</svg>
