<?xml version="1.0" encoding="UTF-8"?>
<!--Generator: Apple Native CoreSVG 175.5-->
<!DOCTYPE svg
PUBLIC "-//W3C//DTD SVG 1.1//EN"
       "http://www.w3.org/Graphics/SVG/1.1/DTD/svg11.dtd">
<svg version="1.1" xmlns="http://www.w3.org/2000/svg" xmlns:xlink="http://www.w3.org/1999/xlink" width="30.6885" height="23.2056">
 <g>
  <rect height="23.2056" opacity="0" width="30.6885" x="0" y="0"/>
  <path d="M24.1211 21.2158C27.8076 21.2158 30.6885 18.5181 30.6885 15.1611C30.6885 12.5977 29.2114 10.376 26.8311 9.375C26.8555 3.93066 22.937 0 17.9443 0C14.6362 0 12.2803 1.77002 10.8154 3.90625C7.8125 3.02734 4.54102 5.31006 4.47998 8.72803C1.72119 9.16748 0 11.6333 0 14.6118C0 18.2007 3.13721 21.2158 7.31201 21.2158Z" fill="#5ac8f5" fill-opacity="0.25"/>
  <path d="M11.2793 16.0645L11.2793 11.5601C11.2793 10.7788 11.6089 10.376 12.2559 10.3394L12.2559 9.00879C12.2559 6.92139 13.5132 5.52979 15.3442 5.52979C17.1997 5.52979 18.4448 6.92139 18.4448 9.00879L18.4448 10.3394C19.104 10.376 19.4336 10.7788 19.4336 11.5601L19.4336 16.0645C19.4336 16.9067 19.0552 17.2852 18.2739 17.2852L12.4268 17.2852C11.6455 17.2852 11.2793 16.9067 11.2793 16.0645ZM13.4399 10.3271L17.2485 10.3271L17.2485 8.87451C17.2485 7.55615 16.4917 6.66504 15.3442 6.66504C14.2212 6.66504 13.4399 7.55615 13.4399 8.87451Z" fill="#5ac8f5"/>
 </g>
</svg>
