<?xml version="1.0" encoding="UTF-8"?>
<!--Generator: Apple Native CoreSVG 175.5-->
<!DOCTYPE svg
PUBLIC "-//W3C//DTD SVG 1.1//EN"
       "http://www.w3.org/Graphics/SVG/1.1/DTD/svg11.dtd">
<svg version="1.1" xmlns="http://www.w3.org/2000/svg" xmlns:xlink="http://www.w3.org/1999/xlink" width="24.9023" height="24.9146">
 <g>
  <rect height="24.9146" opacity="0" width="24.9023" x="0" y="0"/>
  <path d="M12.4512 24.9023C19.2627 24.9023 24.9023 19.2505 24.9023 12.4512C24.9023 5.63965 19.2505 0 12.439 0C5.63965 0 0 5.63965 0 12.4512C0 19.2505 5.65186 24.9023 12.4512 24.9023ZM12.4512 22.8271C6.68945 22.8271 2.0874 18.2129 2.0874 12.4512C2.0874 6.68945 6.67725 2.0752 12.439 2.0752C18.2007 2.0752 22.8271 6.68945 22.8271 12.4512C22.8271 18.2129 18.2129 22.8271 12.4512 22.8271Z" fill="#5ac8f5" fill-opacity="0.5"/>
  <path d="M12.439 8.92334C14.5142 8.92334 15.1978 9.11865 15.1978 9.69238L15.1978 9.86328C15.1978 10.5225 15.3687 10.9619 16.2109 11.0474L18.5059 11.2915C19.3726 11.377 19.8486 11.1572 19.8486 10.2295L19.8486 10.2295C19.8486 7.6416 16.6748 6.34766 12.439 6.34766C8.21533 6.34766 5.0415 7.6416 5.0415 10.2295C5.0415 10.2417 5.0415 10.2295 5.0415 10.2295C5.0415 11.1572 5.52979 11.377 6.40869 11.2915L8.6792 11.0474C9.52148 10.9619 9.70459 10.5225 9.70459 9.86328L9.70459 9.68018C9.70459 9.16748 10.5469 8.92334 12.439 8.92334ZM6.86035 14.8438L7.9834 14.8438C8.42285 14.8438 8.6792 14.6118 8.6792 14.1479L8.6792 12.9883C8.6792 12.561 8.42285 12.3047 7.9834 12.3047L6.86035 12.3047C6.39648 12.3047 6.12793 12.561 6.12793 12.9883L6.12793 14.1479C6.12793 14.6118 6.39648 14.8438 6.86035 14.8438ZM10.1929 14.8438L11.3403 14.8438C11.7798 14.8438 12.0483 14.6118 12.0483 14.1479L12.0483 12.9883C12.0483 12.561 11.7798 12.3047 11.3403 12.3047L10.1929 12.3047C9.729 12.3047 9.49707 12.561 9.49707 12.9883L9.49707 14.1479C9.49707 14.6118 9.729 14.8438 10.1929 14.8438ZM13.5376 14.8438L14.6606 14.8438C15.1245 14.8438 15.3809 14.6118 15.3809 14.1479L15.3809 12.9883C15.3809 12.561 15.1245 12.3047 14.6606 12.3047L13.5376 12.3047C13.0981 12.3047 12.8296 12.561 12.8296 12.9883L12.8296 14.1479C12.8296 14.6118 13.0981 14.8438 13.5376 14.8438ZM16.8823 14.8438L18.0176 14.8438C18.457 14.8438 18.7256 14.6118 18.7256 14.1479L18.7256 12.9883C18.7256 12.561 18.457 12.3047 18.0176 12.3047L16.8823 12.3047C16.4185 12.3047 16.1743 12.561 16.1743 12.9883L16.1743 14.1479C16.1743 14.6118 16.4185 14.8438 16.8823 14.8438ZM6.83594 18.2007L7.97119 18.2007C8.42285 18.2007 8.6792 17.9443 8.6792 17.4927L8.6792 16.3452C8.6792 15.9058 8.42285 15.6372 7.97119 15.6372L6.83594 15.6372C6.39648 15.6372 6.12793 15.9058 6.12793 16.3452L6.12793 17.4927C6.12793 17.9443 6.39648 18.2007 6.83594 18.2007ZM10.1807 18.2007L14.6973 18.2007C15.1367 18.2007 15.3809 17.9443 15.3809 17.4927L15.3809 16.3452C15.3809 15.9058 15.1367 15.6372 14.6973 15.6372L10.1807 15.6372C9.729 15.6372 9.49707 15.9058 9.49707 16.3452L9.49707 17.4927C9.49707 17.9443 9.729 18.2007 10.1807 18.2007ZM16.8945 18.2007L18.0298 18.2007C18.4814 18.2007 18.7256 17.9443 18.7256 17.4927L18.7256 16.3452C18.7256 15.9058 18.4814 15.6372 18.0298 15.6372L16.8945 15.6372C16.4429 15.6372 16.1743 15.9058 16.1743 16.3452L16.1743 17.4927C16.1743 17.9443 16.4429 18.2007 16.8945 18.2007Z" fill="#5ac8f5"/>
 </g>
</svg>
