<?xml version="1.0" encoding="UTF-8"?>
<!--Generator: Apple Native CoreSVG 175.5-->
<!DOCTYPE svg
PUBLIC "-//W3C//DTD SVG 1.1//EN"
       "http://www.w3.org/Graphics/SVG/1.1/DTD/svg11.dtd">
<svg version="1.1" xmlns="http://www.w3.org/2000/svg" xmlns:xlink="http://www.w3.org/1999/xlink" width="24.7681" height="26.4374">
 <g>
  <rect height="26.4374" opacity="0" width="24.7681" x="0" y="0"/>
  <path d="M1.74561 21.0007L10.2295 25.8103C11.6699 26.6403 13.0737 26.6525 14.5386 25.8103L23.0225 21.0007C24.1577 20.3537 24.7681 19.6945 24.7681 17.9245L24.7681 8.42744C24.7681 6.70625 24.1455 6.08369 23.1079 5.48554L14.5996 0.651559C13.0859-0.215141 11.6455-0.202934 10.1685 0.651559L1.67236 5.48554C0.622559 6.08369 0 6.70625 0 8.42744L0 17.9245C0 19.6945 0.622559 20.3537 1.74561 21.0007ZM12.3901 2.1042C12.8296 2.1042 13.269 2.23847 13.7451 2.50703L21.936 7.20673C22.5586 7.56074 22.7905 7.91474 22.7905 8.52509L22.7905 17.8757C22.7905 18.5349 22.5586 18.9133 21.875 19.3039L13.7451 23.9304C13.2568 24.1989 12.8174 24.3454 12.3901 24.3454Z" fill="#5ac8f5"/>
 </g>
</svg>
