<?xml version="1.0" encoding="UTF-8"?>
<!--Generator: Apple Native CoreSVG 175.5-->
<!DOCTYPE svg
PUBLIC "-//W3C//DTD SVG 1.1//EN"
       "http://www.w3.org/Graphics/SVG/1.1/DTD/svg11.dtd">
<svg version="1.1" xmlns="http://www.w3.org/2000/svg" xmlns:xlink="http://www.w3.org/1999/xlink" width="27.4902" height="28.3325">
 <g>
  <rect height="28.3325" opacity="0" width="27.4902" x="0" y="0"/>
  <path d="M26.5991 28.2959C27.0752 28.2959 27.4902 27.9297 27.4902 27.4536L27.4902 0.842285C27.4902 0.366211 27.0752 0 26.5991 0C26.123 0 25.6958 0.366211 25.6958 0.842285L25.6958 27.4536C25.6958 27.9297 26.123 28.2959 26.5991 28.2959ZM20.6543 12.9761C22.4609 12.9761 23.4497 12.0117 23.4497 10.2295L23.4497 5.98145C23.4497 4.19922 22.4609 3.23486 20.6543 3.23486L11.438 3.23486C9.61914 3.23486 8.64258 4.19922 8.64258 5.98145L8.64258 10.2295C8.64258 12.0117 9.61914 12.9761 11.438 12.9761ZM20.6543 25.0732C22.4609 25.0732 23.4497 24.1089 23.4497 22.3267L23.4497 18.0786C23.4497 16.3086 22.4609 15.332 20.6543 15.332L2.79541 15.332C0.976562 15.332 0 16.3086 0 18.0786L0 22.3267C0 24.1089 0.976562 25.0732 2.79541 25.0732Z" fill="#5ac8f5"/>
 </g>
</svg>
