<?xml version="1.0" encoding="UTF-8"?>
<!--Generator: Apple Native CoreSVG 175.5-->
<!DOCTYPE svg
PUBLIC "-//W3C//DTD SVG 1.1//EN"
       "http://www.w3.org/Graphics/SVG/1.1/DTD/svg11.dtd">
<svg version="1.1" xmlns="http://www.w3.org/2000/svg" xmlns:xlink="http://www.w3.org/1999/xlink" width="21.7651" height="6.18896">
 <g>
  <rect height="6.18896" opacity="0" width="21.7651" x="0" y="0"/>
  <path d="M0.769043 3.74756C0.305176 3.93066 0 4.3457 0 4.78516C0 5.50537 0.524902 6.05469 1.23291 6.05469C1.61133 6.05469 2.0874 5.84717 2.39258 5.7251L11.7432 2.06299L10.022 2.06299L19.3726 5.7251C19.6777 5.84717 20.166 6.05469 20.5322 6.05469C21.2402 6.05469 21.7651 5.50537 21.7651 4.78516C21.7651 4.3457 21.46 3.93066 20.9961 3.74756L12.6709 0.488281C12.1094 0.268555 11.4258 0 10.8887 0C10.3394 0 9.66797 0.268555 9.10645 0.488281Z" fill="#5ac8f5"/>
 </g>
</svg>
