<?xml version="1.0" encoding="UTF-8"?>
<!--Generator: Apple Native CoreSVG 175.5-->
<!DOCTYPE svg
PUBLIC "-//W3C//DTD SVG 1.1//EN"
       "http://www.w3.org/Graphics/SVG/1.1/DTD/svg11.dtd">
<svg version="1.1" xmlns="http://www.w3.org/2000/svg" xmlns:xlink="http://www.w3.org/1999/xlink" width="22.4731" height="22.4976">
 <g>
  <rect height="22.4976" opacity="0" width="22.4731" x="0" y="0"/>
  <path d="M0 21.521C0 22.1069 0.390625 22.4976 0.976562 22.4976L21.5088 22.4976C22.0947 22.4976 22.4731 22.1069 22.4731 21.521L22.4731 0.98877C22.4731 0.402832 22.0947 0.0244141 21.5088 0.0244141L0.976562 0.0244141C0.390625 0.0244141 0 0.402832 0 0.98877Z" fill="#5ac8f5" fill-opacity="0.25"/>
  <path d="M11.2671 15.1855C9.11865 15.1855 7.33643 13.4155 7.33643 11.2427C7.33643 9.09424 9.11865 7.33643 11.2671 7.33643C13.4155 7.33643 15.1978 9.09424 15.1978 11.2427C15.1978 13.4155 13.4155 15.1855 11.2671 15.1855Z" fill="#5ac8f5"/>
 </g>
</svg>
