<?xml version="1.0" encoding="UTF-8"?>
<!--Generator: Apple Native CoreSVG 175.5-->
<!DOCTYPE svg
PUBLIC "-//W3C//DTD SVG 1.1//EN"
       "http://www.w3.org/Graphics/SVG/1.1/DTD/svg11.dtd">
<svg version="1.1" xmlns="http://www.w3.org/2000/svg" xmlns:xlink="http://www.w3.org/1999/xlink" width="22.4731" height="22.4976">
 <g>
  <rect height="22.4976" opacity="0" width="22.4731" x="0" y="0"/>
  <path d="M3.83301 22.4976L18.6401 22.4976C21.2036 22.4976 22.4731 21.228 22.4731 18.7134L22.4731 3.80859C22.4731 1.29395 21.2036 0.0244141 18.6401 0.0244141L3.83301 0.0244141C1.28174 0.0244141 0 1.28174 0 3.80859L0 18.7134C0 21.2402 1.28174 22.4976 3.83301 22.4976Z" fill="#5ac8f5" fill-opacity="0.25"/>
  <path d="M8.61816 16.6504C8.11768 16.6504 7.87354 16.2842 7.87354 15.7959L7.87354 14.3188L4.19922 14.3188C3.55225 14.3188 3.11279 13.916 3.11279 13.2446C3.11279 12.9028 3.18604 12.6221 3.39355 12.2314C4.24805 10.7056 5.50537 8.55713 6.55518 6.78711C6.97021 6.09131 7.40967 5.81055 8.14209 5.81055C8.88672 5.81055 9.39941 6.28662 9.39941 7.01904L9.39941 12.9028L10.0708 12.9028C10.5103 12.9028 10.791 13.1714 10.791 13.623C10.791 14.0625 10.5225 14.3188 10.0708 14.3188L9.39941 14.3188L9.39941 15.7959C9.39941 16.2964 9.13086 16.6504 8.61816 16.6504ZM7.87354 12.9028L7.87354 7.51953L7.78809 7.51953C6.79932 9.22852 5.51758 11.4258 4.77295 12.854L4.77295 12.9028ZM15.3564 16.6748C13.7817 16.6748 12.5366 15.8447 12.1582 14.7949C12.085 14.624 12.0361 14.4287 12.0361 14.2212C12.0361 13.8062 12.3291 13.4888 12.7563 13.4888C13.0493 13.4888 13.2935 13.6719 13.4766 14.0381C13.8428 14.7949 14.5752 15.2466 15.4297 15.2466C16.6504 15.2466 17.4805 14.4531 17.4805 13.1348C17.4805 11.9751 16.7236 11.0962 15.625 11.0962C15.0635 11.0962 14.6729 11.2793 14.1479 11.731C13.7451 12.0605 13.5132 12.1704 13.1226 12.1704C12.5488 12.1704 12.1948 11.731 12.2437 11.0718L12.5366 7.15332C12.5977 6.48193 13.0249 6.0791 13.6963 6.0791L18.0176 6.0791C18.3838 6.0791 18.6401 6.38428 18.6401 6.78711C18.6401 7.20215 18.3716 7.49512 18.0176 7.49512L13.855 7.49512L13.623 10.73L13.6719 10.73C14.0503 10.1562 14.9536 9.74121 15.7959 9.74121C17.7368 9.74121 19.0552 11.1572 19.0552 13.0981C19.0552 15.3076 17.5659 16.6748 15.3564 16.6748Z" fill="#5ac8f5"/>
 </g>
</svg>
