<?xml version="1.0" encoding="UTF-8"?>
<!--Generator: Apple Native CoreSVG 175.5-->
<!DOCTYPE svg
PUBLIC "-//W3C//DTD SVG 1.1//EN"
       "http://www.w3.org/Graphics/SVG/1.1/DTD/svg11.dtd">
<svg version="1.1" xmlns="http://www.w3.org/2000/svg" xmlns:xlink="http://www.w3.org/1999/xlink" width="24.9023" height="24.9146">
 <g>
  <rect height="24.9146" opacity="0" width="24.9023" x="0" y="0"/>
  <path d="M12.4512 24.9023C19.2627 24.9023 24.9023 19.2505 24.9023 12.4512C24.9023 5.63965 19.2505 0 12.439 0C5.63965 0 0 5.63965 0 12.4512C0 19.2505 5.65186 24.9023 12.4512 24.9023ZM12.4512 22.8271C6.68945 22.8271 2.0874 18.2129 2.0874 12.4512C2.0874 6.68945 6.67725 2.0752 12.439 2.0752C18.2007 2.0752 22.8271 6.68945 22.8271 12.4512C22.8271 18.2129 18.2129 22.8271 12.4512 22.8271ZM7.54395 18.4692C8.69141 18.811 9.96094 18.8354 11.2427 18.5791L6.31104 13.6597C6.05469 14.9292 6.09131 16.2109 6.43311 17.3584C6.64062 18.042 6.84814 18.2495 7.54395 18.4692ZM15.9912 15.9912C17.0288 14.9658 17.7612 13.7817 18.2129 12.5244L12.3657 6.68945C11.1206 7.12891 9.92432 7.87354 8.89893 8.91113C7.86133 9.93652 7.12891 11.1328 6.67725 12.3779L12.5122 18.2129C13.7695 17.7734 14.9536 17.0288 15.9912 15.9912ZM11.5967 15.0146C11.4624 15.1245 11.2915 15.1123 11.1572 15.0024L9.87549 13.7329C9.76562 13.623 9.76562 13.4399 9.87549 13.3057C10.0098 13.1958 10.1929 13.1958 10.3027 13.3057L10.73 13.7329L11.1694 13.2935L10.7422 12.8784C10.6201 12.7686 10.6201 12.561 10.7422 12.4512C10.8521 12.3169 11.0474 12.3169 11.1694 12.439L11.5967 12.8784L12.0239 12.4268L11.6089 11.9995C11.4868 11.8896 11.4746 11.6943 11.6089 11.5967C11.7188 11.4624 11.9019 11.4624 12.0117 11.5845L12.4512 12.0239L12.9028 11.5723L12.4634 11.145C12.3413 11.0352 12.3413 10.8398 12.4634 10.7178C12.5977 10.6079 12.7808 10.6079 12.8784 10.7178L13.3057 11.145L13.7573 10.7178L13.3179 10.2905C13.2202 10.1685 13.208 9.97314 13.3179 9.85107C13.4521 9.75342 13.623 9.74121 13.7451 9.85107L15.0391 11.1328C15.1489 11.2549 15.1367 11.4502 15.0391 11.5723C14.917 11.6821 14.7339 11.6821 14.5996 11.5601L14.1724 11.1328L13.7329 11.5723L14.1724 12.0117C14.2822 12.1094 14.2822 12.3047 14.1724 12.4268C14.0503 12.5488 13.8672 12.5366 13.7451 12.4146L13.3057 11.9873L12.8662 12.4268L13.3057 12.8662C13.4155 12.9761 13.4277 13.1836 13.3057 13.2812C13.1958 13.4155 13.0005 13.4033 12.8906 13.2812L12.4512 12.8662L11.9995 13.2935L12.439 13.7207C12.5732 13.8428 12.5732 14.0381 12.439 14.1479C12.3291 14.27 12.146 14.2822 12.0117 14.1479L11.5967 13.7207L11.1572 14.1479L11.5967 14.5996C11.6943 14.7095 11.6943 14.8926 11.5967 15.0146ZM18.457 7.54395C18.2373 6.86035 18.0298 6.65283 17.3462 6.43311C16.1987 6.09131 14.9292 6.06689 13.6475 6.32324L18.5669 11.2427C18.8354 9.96094 18.7988 8.69141 18.457 7.54395Z" fill="#5ac8f5"/>
 </g>
</svg>
