<?xml version="1.0" encoding="UTF-8"?>
<!--Generator: Apple Native CoreSVG 175.5-->
<!DOCTYPE svg
PUBLIC "-//W3C//DTD SVG 1.1//EN"
       "http://www.w3.org/Graphics/SVG/1.1/DTD/svg11.dtd">
<svg version="1.1" xmlns="http://www.w3.org/2000/svg" xmlns:xlink="http://www.w3.org/1999/xlink" width="24.9023" height="24.9146">
 <g>
  <rect height="24.9146" opacity="0" width="24.9023" x="0" y="0"/>
  <path d="M12.4512 24.9023C19.2627 24.9023 24.9023 19.2505 24.9023 12.4512C24.9023 5.63965 19.2505 0 12.439 0C5.63965 0 0 5.63965 0 12.4512C0 19.2505 5.65186 24.9023 12.4512 24.9023ZM12.4512 22.8271C6.68945 22.8271 2.0874 18.2129 2.0874 12.4512C2.0874 6.68945 6.67725 2.0752 12.439 2.0752C18.2007 2.0752 22.8271 6.68945 22.8271 12.4512C22.8271 18.2129 18.2129 22.8271 12.4512 22.8271ZM11.8286 17.3096L19.2871 17.3096C20.2271 17.3096 20.5566 17.041 20.5566 16.5161C20.5566 14.9902 18.6401 12.8784 15.564 12.8784C12.4756 12.8784 10.5469 14.9902 10.5469 16.5161C10.5469 17.041 10.8887 17.3096 11.8286 17.3096ZM15.564 11.8286C16.8457 11.8286 17.9321 10.6689 17.9321 9.17969C17.9321 7.71484 16.8335 6.64062 15.564 6.64062C14.2822 6.64062 13.1836 7.75146 13.1836 9.19189C13.1958 10.6689 14.2822 11.8286 15.564 11.8286ZM5.39551 17.3096L9.92432 17.3096C9.30176 16.4307 10.0586 14.6118 11.3403 13.6353C10.6689 13.1958 9.81445 12.8662 8.71582 12.8662C6.03027 12.8662 4.35791 14.8438 4.35791 16.4795C4.35791 17.0166 4.65088 17.3096 5.39551 17.3096ZM8.71582 11.9507C9.82666 11.9507 10.7788 10.9497 10.7788 9.65576C10.7788 8.38623 9.82666 7.43408 8.71582 7.43408C7.61719 7.43408 6.64062 8.41064 6.64062 9.66797C6.65283 10.9497 7.60498 11.9507 8.71582 11.9507Z" fill="#5ac8f5"/>
 </g>
</svg>
