<?xml version="1.0" encoding="UTF-8"?>
<!--Generator: Apple Native CoreSVG 175.5-->
<!DOCTYPE svg
PUBLIC "-//W3C//DTD SVG 1.1//EN"
       "http://www.w3.org/Graphics/SVG/1.1/DTD/svg11.dtd">
<svg version="1.1" xmlns="http://www.w3.org/2000/svg" xmlns:xlink="http://www.w3.org/1999/xlink" width="24.9023" height="24.9146">
 <g>
  <rect height="24.9146" opacity="0" width="24.9023" x="0" y="0"/>
  <path d="M12.4512 24.9023C19.2627 24.9023 24.9023 19.2505 24.9023 12.4512C24.9023 5.63965 19.2505 0 12.439 0C5.63965 0 0 5.63965 0 12.4512C0 19.2505 5.65186 24.9023 12.4512 24.9023Z" fill="#5ac8f5" fill-opacity="0.25"/>
  <path d="M5.61523 11.731C5.05371 11.731 4.65088 11.3647 4.65088 10.8398C4.65088 10.3027 5.05371 9.94873 5.61523 9.94873L19.3359 9.94873C19.8853 9.94873 20.3003 10.3027 20.3003 10.8398C20.3003 11.3647 19.8853 11.731 19.3359 11.731ZM7.48291 15.9058C6.90918 15.9058 6.51855 15.5396 6.51855 15.0024C6.51855 14.4775 6.90918 14.1235 7.48291 14.1235L17.4683 14.1235C18.0298 14.1235 18.4204 14.4775 18.4204 15.0024C18.4204 15.5396 18.0298 15.9058 17.4683 15.9058Z" fill="#5ac8f5"/>
 </g>
</svg>
