<?xml version="1.0" encoding="UTF-8"?>
<!--Generator: Apple Native CoreSVG 175.5-->
<!DOCTYPE svg
PUBLIC "-//W3C//DTD SVG 1.1//EN"
       "http://www.w3.org/Graphics/SVG/1.1/DTD/svg11.dtd">
<svg version="1.1" xmlns="http://www.w3.org/2000/svg" xmlns:xlink="http://www.w3.org/1999/xlink" width="17.1021" height="26.7944">
 <g>
  <rect height="26.7944" opacity="0" width="17.1021" x="0" y="0"/>
  <path d="M8.54492 26.7944C14.1602 26.7944 17.1021 23.4619 17.1021 17.1143C17.1021 13.2202 16.9434 9.75342 16.7236 7.39746C16.2598 2.19727 13.855 0.0366211 8.54492 0.0366211C3.24707 0.0366211 0.842285 2.19727 0.366211 7.39746C0.146484 9.75342 0 13.2202 0 17.1143C0 23.4619 2.92969 26.7944 8.54492 26.7944ZM8.54492 24.8291C4.21143 24.8291 1.96533 22.1924 1.96533 17.1143C1.96533 13.4521 2.09961 10.0098 2.33154 7.58057C2.69775 3.41797 4.24805 2.00195 8.54492 2.00195C12.8418 2.00195 14.4043 3.41797 14.7705 7.58057C14.9902 10.0098 15.1367 13.4521 15.1367 17.1143C15.1367 22.1924 12.8784 24.8291 8.54492 24.8291ZM1.47705 9.16748L15.6372 9.16748L15.6372 7.56836L1.47705 7.56836ZM7.76367 8.36182L9.36279 8.37402L9.36279 1.29395L7.76367 1.28174Z" fill="#5ac8f5"/>
 </g>
</svg>
