<?xml version="1.0" encoding="UTF-8"?>
<!--Generator: Apple Native CoreSVG 175.5-->
<!DOCTYPE svg
PUBLIC "-//W3C//DTD SVG 1.1//EN"
       "http://www.w3.org/Graphics/SVG/1.1/DTD/svg11.dtd">
<svg version="1.1" xmlns="http://www.w3.org/2000/svg" xmlns:xlink="http://www.w3.org/1999/xlink" width="23.2422" height="22.4976">
 <g>
  <rect height="22.4976" opacity="0" width="23.2422" x="0" y="0"/>
  <path d="M3.83301 22.4976L19.4092 22.4976C21.9604 22.4976 23.2422 21.228 23.2422 18.7134L23.2422 3.80859C23.2422 1.29395 21.9604 0.0244141 19.4092 0.0244141L3.83301 0.0244141C1.28174 0.0244141 0 1.28174 0 3.80859L0 18.7134C0 21.2402 1.28174 22.4976 3.83301 22.4976Z" fill="#5ac8f5" fill-opacity="0.25"/>
  <path d="M11.1084 17.5415C10.6812 17.5415 10.4004 17.2607 10.4004 16.8335L10.4004 13.1592C10.4004 12.7319 10.6934 12.439 11.1084 12.439L12.1216 12.439C12.5488 12.439 12.8296 12.7319 12.8296 13.1592L12.8296 16.8335C12.8296 17.2729 12.5488 17.5415 12.1216 17.5415ZM5.12695 10.1074C4.83398 9.80225 4.83398 9.39941 5.13916 9.09424L8.09326 6.15234C8.41064 5.84717 8.78906 5.84717 9.09424 6.14014L9.81445 6.87256C10.1196 7.17773 10.1196 7.56836 9.81445 7.88574L6.86035 10.8276C6.55518 11.1328 6.15234 11.1328 5.85938 10.8276ZM17.3828 10.8276C17.0776 11.1328 16.687 11.1328 16.3818 10.8276L13.4277 7.88574C13.1226 7.56836 13.1226 7.17773 13.4277 6.87256L14.1479 6.14014C14.4531 5.84717 14.8438 5.84717 15.1489 6.15234L18.0908 9.09424C18.4082 9.41162 18.4082 9.80225 18.1152 10.0952Z" fill="#5ac8f5"/>
 </g>
</svg>
