<?xml version="1.0" encoding="UTF-8"?>
<!--Generator: Apple Native CoreSVG 175.5-->
<!DOCTYPE svg
PUBLIC "-//W3C//DTD SVG 1.1//EN"
       "http://www.w3.org/Graphics/SVG/1.1/DTD/svg11.dtd">
<svg version="1.1" xmlns="http://www.w3.org/2000/svg" xmlns:xlink="http://www.w3.org/1999/xlink" width="22.4731" height="22.4976">
 <g>
  <rect height="22.4976" opacity="0" width="22.4731" x="0" y="0"/>
  <path d="M3.83301 22.4976L18.6401 22.4976C21.2036 22.4976 22.4731 21.228 22.4731 18.7134L22.4731 3.80859C22.4731 1.29395 21.2036 0.0244141 18.6401 0.0244141L3.83301 0.0244141C1.28174 0.0244141 0 1.28174 0 3.80859L0 18.7134C0 21.2402 1.28174 22.4976 3.83301 22.4976Z" fill="#5ac8f5" fill-opacity="0.25"/>
  <path d="M11.2793 18.4326C7.38525 18.4326 4.11377 15.1611 4.11377 11.2549C4.11377 7.33643 7.36084 4.07715 11.2793 4.07715C15.1855 4.07715 18.457 7.34863 18.457 11.2549C18.457 15.1733 15.21 18.4326 11.2793 18.4326ZM11.2793 16.6504C14.2212 16.6504 16.687 14.1968 16.687 11.2549C16.687 8.3252 14.209 5.85938 11.2793 5.85938C8.34961 5.85938 5.88379 8.31299 5.88379 11.2549C5.88379 14.1846 8.36182 16.6504 11.2793 16.6504ZM11.2793 15.3564C9.06982 15.3564 7.18994 13.4644 7.18994 11.2549C7.18994 9.0332 9.05762 7.15332 11.2793 7.15332C13.501 7.15332 15.3809 9.04541 15.3809 11.2549C15.3809 13.4766 13.5132 15.3564 11.2793 15.3564Z" fill="#5ac8f5"/>
 </g>
</svg>
