<?xml version="1.0" encoding="UTF-8"?>
<!--Generator: Apple Native CoreSVG 175.5-->
<!DOCTYPE svg
PUBLIC "-//W3C//DTD SVG 1.1//EN"
       "http://www.w3.org/Graphics/SVG/1.1/DTD/svg11.dtd">
<svg version="1.1" xmlns="http://www.w3.org/2000/svg" xmlns:xlink="http://www.w3.org/1999/xlink" width="20.5322" height="26.1841">
 <g>
  <rect height="26.1841" opacity="0" width="20.5322" x="0" y="0"/>
  <path d="M0 22.3511C0 24.9023 1.25732 26.1719 3.78418 26.1719L16.748 26.1719C19.2749 26.1719 20.5322 24.9023 20.5322 22.3511L20.5322 3.83301C20.5322 1.29395 19.2749 0 16.748 0L3.78418 0C1.25732 0 0 1.29395 0 3.83301ZM1.96533 22.3145L1.96533 3.86963C1.96533 2.64893 2.6123 1.96533 3.88184 1.96533L16.6504 1.96533C17.9199 1.96533 18.5669 2.64893 18.5669 3.86963L18.5669 22.3145C18.5669 23.5352 17.9199 24.2065 16.6504 24.2065L3.88184 24.2065C2.6123 24.2065 1.96533 23.5352 1.96533 22.3145ZM8.94775 18.8843C9.35059 18.8843 9.69238 18.689 9.92432 18.3105L15.5029 9.53369C15.6494 9.28955 15.8081 9.021 15.8081 8.75244C15.8081 8.20312 15.3198 7.84912 14.8071 7.84912C14.4897 7.84912 14.1846 8.04443 13.9648 8.39844L8.88672 16.5283L6.48193 13.4155C6.20117 13.0249 5.92041 12.9272 5.59082 12.9272C5.05371 12.9272 4.65088 13.3545 4.65088 13.8916C4.65088 14.1602 4.74854 14.4165 4.91943 14.6484L7.89795 18.3105C8.21533 18.7134 8.53271 18.8843 8.94775 18.8843Z" fill="#5ac8f5"/>
 </g>
</svg>
