<?xml version="1.0" encoding="UTF-8"?>
<!--Generator: Apple Native CoreSVG 175.5-->
<!DOCTYPE svg
PUBLIC "-//W3C//DTD SVG 1.1//EN"
       "http://www.w3.org/Graphics/SVG/1.1/DTD/svg11.dtd">
<svg version="1.1" xmlns="http://www.w3.org/2000/svg" xmlns:xlink="http://www.w3.org/1999/xlink" width="33.9337" height="26.7448">
 <g>
  <rect height="26.7448" opacity="0" width="33.9337" x="0" y="0"/>
  <path d="M0.0347966 20.8492C0.0714177 21.3741 0.413215 21.6427 0.938117 21.6305C3.8678 21.5816 6.33362 20.2022 8.49427 17.6998C10.7648 19.9581 13.3893 21.3253 16.1481 21.9479L15.7208 25.4513C15.611 26.3668 16.1115 26.8917 17.1735 26.7086C20.2008 26.2447 23.6188 24.0108 25.401 21.4352C29.8444 20.0436 33.9337 17.2726 33.9337 13.9034C33.9337 10.6686 30.1495 7.98301 25.8893 6.53037C24.3756 1.33018 17.4909-1.07461 12.6325 1.62315C12.1076 1.8917 12.0465 2.31895 12.4738 2.89268C13.5968 4.36973 13.963 5.24864 14.1827 6.44493C12.132 7.20176 10.2277 8.39805 8.49427 10.1314C6.33362 7.6168 3.8678 6.23741 0.938117 6.18858C0.413215 6.17637 0.0714177 6.44493 0.0347966 6.96983C-0.221551 9.5333 0.962531 12.2799 2.79359 13.9034C0.962531 15.5392-0.221551 18.298 0.0347966 20.8492ZM27.4152 14.6481C26.7194 14.6481 26.1334 14.0621 26.1334 13.3663C26.1334 12.6705 26.7194 12.0846 27.4152 12.0846C28.1232 12.0846 28.7091 12.6705 28.7091 13.3663C28.7091 14.0621 28.1232 14.6481 27.4152 14.6481Z" fill="#5ac8f5"/>
 </g>
</svg>
