<?xml version="1.0" encoding="UTF-8"?>
<!--Generator: Apple Native CoreSVG 175.5-->
<!DOCTYPE svg
PUBLIC "-//W3C//DTD SVG 1.1//EN"
       "http://www.w3.org/Graphics/SVG/1.1/DTD/svg11.dtd">
<svg version="1.1" xmlns="http://www.w3.org/2000/svg" xmlns:xlink="http://www.w3.org/1999/xlink" width="24.9023" height="24.9146">
 <g>
  <rect height="24.9146" opacity="0" width="24.9023" x="0" y="0"/>
  <path d="M12.4512 24.9023C19.2627 24.9023 24.9023 19.2505 24.9023 12.4512C24.9023 5.63965 19.2505 0 12.439 0C5.63965 0 0 5.63965 0 12.4512C0 19.2505 5.65186 24.9023 12.4512 24.9023ZM12.4512 22.8271C6.68945 22.8271 2.0874 18.2129 2.0874 12.4512C2.0874 6.68945 6.67725 2.0752 12.439 2.0752C18.2007 2.0752 22.8271 6.68945 22.8271 12.4512C22.8271 18.2129 18.2129 22.8271 12.4512 22.8271ZM12.6221 19.751C12.9639 19.751 13.2202 19.5068 13.2202 19.1406L13.2202 18.3228C15.7471 18.1152 17.1265 16.333 17.1265 13.562L17.1265 12.9517C17.1265 12.4268 16.8091 12.1216 16.3208 12.1216L13.2202 12.1216L13.2202 8.14209C14.2944 8.31299 15.1489 9.04541 15.4175 10.0098C15.5762 10.4858 15.7837 10.6567 16.2109 10.6567C16.6626 10.6567 16.9556 10.3516 16.9556 9.91211C16.9556 9.69238 16.9067 9.50928 16.8457 9.31396C16.3208 7.84912 14.9414 6.82373 13.2202 6.64062L13.2202 5.84717C13.2202 5.48096 12.9639 5.24902 12.6221 5.24902C12.2681 5.24902 12.0117 5.48096 12.0117 5.84717L12.0117 6.66504C9.42383 6.98242 7.75146 9.17969 7.75146 12.4634C7.75146 15.8203 9.39941 17.9932 12.0117 18.3105L12.0117 19.1406C12.0117 19.5068 12.2803 19.751 12.6221 19.751ZM12.0117 16.7969C10.3882 16.4551 9.38721 14.8438 9.38721 12.4634C9.38721 10.1196 10.3882 8.5083 12.0117 8.1665ZM13.2202 16.8457L13.2202 13.562L15.5518 13.562L15.5518 13.8306C15.5518 15.4785 14.6851 16.626 13.2202 16.8457Z" fill="#5ac8f5"/>
 </g>
</svg>
