<?xml version="1.0" encoding="UTF-8"?>
<!--Generator: Apple Native CoreSVG 175.5-->
<!DOCTYPE svg
PUBLIC "-//W3C//DTD SVG 1.1//EN"
       "http://www.w3.org/Graphics/SVG/1.1/DTD/svg11.dtd">
<svg version="1.1" xmlns="http://www.w3.org/2000/svg" xmlns:xlink="http://www.w3.org/1999/xlink" width="28.029" height="19.0063">
 <g>
  <rect height="19.0063" opacity="0" width="28.029" x="0" y="0"/>
  <path d="M23.0852 5.33447C24.5622 5.33447 25.7463 4.15039 25.7463 2.67334C25.7463 1.19629 24.5622 0 23.0852 0C21.6081 0 20.4118 1.19629 20.4118 2.67334C20.4118 4.15039 21.6081 5.33447 23.0852 5.33447ZM1.63741 17.8589L8.81515 16.0645L8.81515 17.749C8.81515 18.4326 9.37667 18.9819 10.0481 18.9819C10.7317 18.9819 11.2932 18.4326 11.2932 17.749L11.2932 15.6128L16.5056 14.8315C17.4699 14.6973 18.4099 14.27 19.2033 13.6719L23.7199 10.2905C23.8908 10.1685 24.135 10.1929 24.2204 10.4004L25.551 13.0859L25.551 17.749C25.551 18.4692 26.0637 18.9819 26.7961 18.9819C27.5285 18.9819 28.029 18.4692 28.029 17.749L28.029 12.793C28.029 12.5977 27.9924 12.3901 27.8947 12.2192L25.7585 7.95898C25.3313 7.10449 24.5012 6.57959 23.549 6.57959L22.4504 6.57959C21.3884 6.57959 20.3386 6.93359 19.4841 7.58057L15.9441 10.2173L10.7439 9.17969C9.65743 8.95996 8.81515 9.43604 8.81515 10.5835L8.81515 13.501L1.03927 15.4785C0.233605 15.6738-0.0715707 16.2964 0.0138785 16.8701C0.123742 17.5171 0.721886 18.0908 1.63741 17.8589ZM11.2932 12.9028L11.2932 11.9629L12.99 12.4878ZM17.177 18.9819L22.133 18.9819C23.1584 18.9819 23.9885 18.1519 23.9885 17.1143C23.9885 16.1011 23.1584 15.2588 22.133 15.2588L17.177 15.2588C16.1394 15.2588 15.3215 16.1011 15.3215 17.1143C15.3215 18.1519 16.1394 18.9819 17.177 18.9819ZM22.133 18.103C21.5959 18.103 21.1565 17.6514 21.1565 17.1021C21.1565 16.5771 21.5959 16.1377 22.133 16.1377C22.6823 16.1377 23.1096 16.5771 23.1096 17.1021C23.1096 17.6514 22.6823 18.103 22.133 18.103Z" fill="#5ac8f5"/>
 </g>
</svg>
