<?xml version="1.0" encoding="UTF-8"?>
<!--Generator: Apple Native CoreSVG 175.5-->
<!DOCTYPE svg
PUBLIC "-//W3C//DTD SVG 1.1//EN"
       "http://www.w3.org/Graphics/SVG/1.1/DTD/svg11.dtd">
<svg version="1.1" xmlns="http://www.w3.org/2000/svg" xmlns:xlink="http://www.w3.org/1999/xlink" width="24.0845" height="27.8487">
 <g>
  <rect height="27.8487" opacity="0" width="24.0845" x="0" y="0"/>
  <path d="M18.2373 19.6922L21.1426 21.3645C22.8638 22.3533 24.0845 21.6941 24.0845 19.6434L24.0845 8.58378C24.0845 7.31425 23.6694 6.59404 22.583 5.95927L12.8052 0.307418C11.5967-0.376176 10.0586 0.063277 10.0586 1.79668L10.0586 5.6541L12.0483 6.64287L12.0483 2.46806C12.0483 2.34599 12.1338 2.28496 12.2559 2.3582L21.5576 7.72929C21.9482 7.96123 22.0947 8.13212 22.0947 8.65703L22.0947 19.3504C22.0947 19.4725 22.0215 19.5091 21.9116 19.448L18.2373 17.324Z" fill="#5ac8f5" fill-opacity="0.5"/>
  <path d="M12.9517 22.2557L16.272 24.1844C17.9932 25.1609 19.2139 24.5018 19.2139 22.4632L19.2139 11.3914C19.2139 10.1341 18.811 9.41386 17.7124 8.76689L7.93457 3.12724C6.72607 2.43144 5.18799 2.8831 5.18799 4.60429L5.18799 8.81572L7.17773 9.85332L7.17773 5.27568C7.17773 5.16582 7.27539 5.09257 7.38525 5.16582L16.687 10.5369C17.0776 10.7688 17.2241 10.9397 17.2241 11.4646L17.2241 22.158C17.2241 22.2801 17.1509 22.3167 17.041 22.2557L12.9517 19.8997Z" fill="#5ac8f5" fill-opacity="0.5"/>
  <path d="M14.0259 14.4432C14.0259 13.1858 13.6108 12.4656 12.5244 11.8309L2.74658 6.179C1.53809 5.49541 0 5.93486 0 7.65605L0 19.033C0 20.3269 0.32959 21.0227 1.52588 21.7063L11.084 27.2361C12.8052 28.2249 14.0259 27.5535 14.0259 25.5149ZM11.499 13.5887C11.8896 13.8206 12.0361 13.9915 12.0361 14.5164L12.0361 25.2098C12.0361 25.3318 11.9629 25.3807 11.853 25.3196L2.51465 19.9241C2.09961 19.68 1.98975 19.4847 1.98975 18.9964L1.98975 8.32744C1.98975 8.21757 2.0752 8.15654 2.19727 8.21757Z" fill="#5ac8f5"/>
 </g>
</svg>
