<?xml version="1.0" encoding="UTF-8"?>
<!--Generator: Apple Native CoreSVG 175.5-->
<!DOCTYPE svg
PUBLIC "-//W3C//DTD SVG 1.1//EN"
       "http://www.w3.org/Graphics/SVG/1.1/DTD/svg11.dtd">
<svg version="1.1" xmlns="http://www.w3.org/2000/svg" xmlns:xlink="http://www.w3.org/1999/xlink" width="28.1128" height="27.7466">
 <g>
  <rect height="27.7466" opacity="0" width="28.1128" x="0" y="0"/>
  <path d="M14.0625 4.71191C14.9536 4.71191 15.6616 3.91846 15.6616 2.89307C15.6616 1.84326 15.332 1.15967 14.7461 0.476074C14.3555-0.012207 13.8306-0.0244141 13.4277 0.402832C12.8418 1.11084 12.4634 1.80664 12.4634 2.89307C12.4634 3.91846 13.1836 4.71191 14.0625 4.71191ZM13.3667 10.3394L14.7217 10.3394L14.7217 3.40576L13.3667 3.40576ZM6.09131 16.3086L8.05664 16.3086L8.05664 13.3545C8.05664 12.1948 8.70361 11.5723 9.81445 11.5723L18.2983 11.5723C19.4092 11.5723 20.0684 12.1948 20.0684 13.3545L20.0684 16.3086L22.0337 16.3086L22.0337 13.2568C22.0337 10.8398 20.7886 9.60693 18.335 9.60693L9.79004 9.60693C7.34863 9.60693 6.09131 10.8398 6.09131 13.2568ZM1.92871 26.8921L3.89404 26.8921L3.89404 19.5312C3.89404 18.3716 4.54102 17.7368 5.65186 17.7368L22.4609 17.7368C23.5718 17.7368 24.2188 18.3716 24.2188 19.5312L24.2188 26.8921L26.1841 26.8921L26.1841 19.4214C26.1841 17.0044 24.939 15.7715 22.4976 15.7715L5.62744 15.7715C3.18604 15.7715 1.92871 17.0044 1.92871 19.4214ZM14.0503 21.9116C15.1123 21.9116 15.9546 23.2788 17.749 23.2788C19.4824 23.2788 20.2515 21.9116 21.2524 21.9116C22.2534 21.9116 23.0347 23.2788 24.9268 23.2788L25.2563 23.2788L25.2563 21.3745L24.9268 21.3745C23.7671 21.3745 22.937 20.0073 21.2524 20.0073C19.5557 20.0073 18.9209 21.3745 17.749 21.3745C16.3452 21.3745 15.7715 20.0073 14.0503 20.0073C12.3169 20.0073 11.7554 21.3745 10.3516 21.3745C9.17969 21.3745 8.54492 20.0073 6.84814 20.0073C5.15137 20.0073 4.3335 21.3745 3.17383 21.3745L2.771 21.3745L2.771 23.2788L3.17383 23.2788C5.06592 23.2788 5.84717 21.9116 6.84814 21.9116C7.83691 21.9116 8.61816 23.2788 10.3516 23.2788C12.146 23.2788 12.9761 21.9116 14.0503 21.9116ZM0.976562 27.7466L27.1362 27.7466C27.6733 27.7466 28.1128 27.2949 28.1128 26.7578C28.1128 26.2207 27.6733 25.7812 27.1362 25.7812L0.976562 25.7812C0.439453 25.7812 0 26.2207 0 26.7578C0 27.2949 0.439453 27.7466 0.976562 27.7466Z" fill="#5ac8f5"/>
 </g>
</svg>
