<?xml version="1.0" encoding="UTF-8"?>
<!--Generator: Apple Native CoreSVG 175.5-->
<!DOCTYPE svg
PUBLIC "-//W3C//DTD SVG 1.1//EN"
       "http://www.w3.org/Graphics/SVG/1.1/DTD/svg11.dtd">
<svg version="1.1" xmlns="http://www.w3.org/2000/svg" xmlns:xlink="http://www.w3.org/1999/xlink" width="25.3174" height="28.9673">
 <g>
  <rect height="28.9673" opacity="0" width="25.3174" x="0" y="0"/>
  <path d="M11.5234 27.3315C13.5864 27.3315 15.1001 25.8179 15.271 24.1089L7.77588 24.1089C7.93457 25.8179 9.44824 27.3315 11.5234 27.3315ZM1.84326 22.4365L21.1914 22.4365C22.3511 22.4365 23.0347 21.8506 23.0347 20.9595C23.0347 19.7388 21.8018 18.6401 20.7397 17.5537C19.9951 16.7969 19.7144 15.2832 19.6655 14.0381C19.6655 13.7939 19.6655 13.5742 19.6533 13.3545C19.4336 13.4644 19.1772 13.5132 18.8965 13.5132C17.6636 13.5132 16.6626 12.7197 16.3574 11.6089L16.3208 11.3525C16.2354 11.3892 16.1377 11.4136 16.04 11.4136C14.8438 11.4136 13.7939 10.5957 13.4888 9.49707L13.4644 9.28955C13.3667 9.32617 13.269 9.35059 13.1592 9.35059C11.6943 9.35059 10.5103 8.1665 10.5103 6.70166L10.5103 4.84619C10.5103 3.36914 11.6943 2.17285 13.1592 2.17285C13.208 2.17285 13.2812 2.17285 13.3301 2.18506L13.3423 2.13623C12.8296 1.83105 12.207 1.63574 11.5234 1.63574C9.7168 1.63574 8.45947 2.89307 7.99561 4.49219C4.74854 5.66406 3.50342 8.88672 3.41797 13.5742C3.32031 14.978 3.11279 16.7114 2.30713 17.5537C1.24512 18.6401 0 19.7388 0 20.9595C0 21.8506 0.695801 22.4365 1.84326 22.4365Z" fill="#5ac8f5" fill-opacity="0.5"/>
  <path d="M13.1592 7.37305C13.562 7.37305 13.8672 7.06787 13.8672 6.70166L13.8672 4.84619C13.8672 4.45557 13.562 4.15039 13.1592 4.15039C12.793 4.15039 12.4878 4.45557 12.4878 4.84619L12.4878 6.70166C12.4878 7.06787 12.793 7.37305 13.1592 7.37305Z" fill="#5ac8f5"/>
  <path d="M16.04 9.42383C16.4185 9.42383 16.7236 9.13086 16.7236 8.72803L16.7236 2.79541C16.7236 2.41699 16.4185 2.11182 16.04 2.11182C15.6494 2.11182 15.3564 2.41699 15.3564 2.79541L15.3564 8.72803C15.3564 9.13086 15.6494 9.42383 16.04 9.42383Z" fill="#5ac8f5"/>
  <path d="M18.8965 11.5356C19.2871 11.5356 19.5923 11.2427 19.5923 10.8521L19.5923 0.708008C19.5923 0.305176 19.2871 0 18.8965 0C18.5181 0 18.2129 0.305176 18.2129 0.708008L18.2129 10.8521C18.2129 11.2549 18.5059 11.5356 18.8965 11.5356Z" fill="#5ac8f5"/>
  <path d="M21.7529 10.3271C22.1436 10.3271 22.4487 10.022 22.4487 9.63135L22.4487 1.89209C22.4487 1.52588 22.1436 1.2207 21.7529 1.2207C21.3745 1.2207 21.0815 1.52588 21.0815 1.89209L21.0815 9.63135C21.0815 10.022 21.3745 10.3271 21.7529 10.3271Z" fill="#5ac8f5"/>
  <path d="M24.6216 8.02002C25.0244 8.02002 25.3174 7.72705 25.3174 7.33643L25.3174 4.19922C25.3174 3.80859 25.0244 3.51562 24.6216 3.51562C24.2432 3.51562 23.938 3.8208 23.938 4.19922L23.938 7.33643C23.938 7.71484 24.2432 8.02002 24.6216 8.02002Z" fill="#5ac8f5"/>
 </g>
</svg>
