<?xml version="1.0" encoding="UTF-8"?>
<!--Generator: Apple Native CoreSVG 175.5-->
<!DOCTYPE svg
PUBLIC "-//W3C//DTD SVG 1.1//EN"
       "http://www.w3.org/Graphics/SVG/1.1/DTD/svg11.dtd">
<svg version="1.1" xmlns="http://www.w3.org/2000/svg" xmlns:xlink="http://www.w3.org/1999/xlink" width="24.0845" height="24.231">
 <g>
  <rect height="24.231" opacity="0" width="24.0845" x="0" y="0"/>
  <path d="M18.8843 16.3574C12.2803 16.3574 8.05664 12.2192 8.05664 5.60303C8.05664 4.23584 8.38623 2.28271 8.82568 1.26953C8.93555 0.98877 8.95996 0.817871 8.95996 0.695801C8.95996 0.366211 8.71582 0 8.23975 0C8.10547 0 7.8125 0.0366211 7.54395 0.134277C3.02734 1.94092 0 6.79932 0 11.9141C0 19.0918 5.46875 24.2188 12.6221 24.2188C17.8833 24.2188 22.4365 21.0327 23.9502 17.0532C24.0601 16.7725 24.0845 16.4795 24.0845 16.3696C24.0845 15.918 23.7061 15.6128 23.3643 15.6128C23.2056 15.6128 23.0713 15.6494 22.8394 15.7227C21.8994 16.0278 20.3857 16.3574 18.8843 16.3574Z" fill="#5ac8f5"/>
 </g>
</svg>
