<?xml version="1.0" encoding="UTF-8"?>
<!--Generator: Apple Native CoreSVG 175.5-->
<!DOCTYPE svg
PUBLIC "-//W3C//DTD SVG 1.1//EN"
       "http://www.w3.org/Graphics/SVG/1.1/DTD/svg11.dtd">
<svg version="1.1" xmlns="http://www.w3.org/2000/svg" xmlns:xlink="http://www.w3.org/1999/xlink" width="35.1161" height="25.2808">
 <g>
  <rect height="25.2808" opacity="0" width="35.1161" x="0" y="0"/>
  <path d="M11.768 25.2808L33.5088 25.2808C35.0224 25.2808 35.4497 23.9014 34.8637 22.7417L24.268 1.48926C23.9262 0.805664 23.3037 0.402832 22.6445 0.402832C21.9731 0.402832 21.3506 0.805664 21.021 1.48926L10.4131 22.7417C9.82711 23.9014 10.2544 25.2808 11.768 25.2808ZM12.5737 23.4131C12.3173 23.4131 12.2685 23.2178 12.3784 22.9858L22.4736 2.74658C22.5468 2.6001 22.7299 2.6001 22.8032 2.74658L32.8984 22.9858C33.0205 23.23 32.9716 23.4131 32.7397 23.4131ZM16.0527 24.3164L20.435 24.3164L22.6445 14.7583L24.8418 24.3164L29.2241 24.3164L23.4135 12.1094C23.2426 11.7554 22.9497 11.5845 22.6445 11.5845C22.3271 11.5845 22.0341 11.7554 21.8632 12.1094ZM1.41647 21.1914L11.9389 21.1914L12.8911 19.3237L2.29538 19.3237C2.18551 19.3237 2.1611 19.2383 2.20993 19.1528L9.24118 5.01709C9.2778 4.93164 9.39987 4.93164 9.43649 5.01709L14.7465 15.6738L15.8086 13.623L10.7426 3.49121C10.4497 2.92969 9.92477 2.55127 9.33883 2.55127C8.7529 2.55127 8.22799 2.92969 7.93502 3.49121L0.207973 18.9819C-0.292515 19.9707 0.110317 21.1914 1.41647 21.1914ZM4.54147 20.0195L7.7275 20.0195L9.33883 13.0493L10.9502 20.0195L12.5493 20.0195L13.3672 18.396L9.91256 11.1206C9.79049 10.8521 9.57077 10.73 9.33883 10.73C9.11911 10.73 8.91159 10.8521 8.78952 11.1206Z" fill="#5ac8f5"/>
 </g>
</svg>
