<?xml version="1.0" encoding="UTF-8"?>
<!--Generator: Apple Native CoreSVG 175.5-->
<!DOCTYPE svg
PUBLIC "-//W3C//DTD SVG 1.1//EN"
       "http://www.w3.org/Graphics/SVG/1.1/DTD/svg11.dtd">
<svg version="1.1" xmlns="http://www.w3.org/2000/svg" xmlns:xlink="http://www.w3.org/1999/xlink" width="37.8174" height="25.769">
 <g>
  <rect height="25.769" opacity="0" width="37.8174" x="0" y="0"/>
  <path d="M4.3457 18.0176C6.21338 18.0176 7.95898 17.0044 8.70361 15.4297L8.74023 15.4297L8.74023 17.0166C8.74023 17.627 9.15527 18.0298 9.729 18.0298C10.3271 18.0298 10.73 17.627 10.73 16.9678L10.73 8.88672C10.73 6.25 8.78906 4.55322 5.7251 4.55322C3.43018 4.55322 1.55029 5.5542 0.842285 7.10449C0.708008 7.40967 0.622559 7.70264 0.622559 7.95898C0.622559 8.49609 1.01318 8.8501 1.53809 8.8501C1.9165 8.8501 2.20947 8.70361 2.39258 8.36182C3.07617 6.95801 4.10156 6.31104 5.66406 6.31104C7.55615 6.31104 8.66699 7.36084 8.66699 9.05762L8.66699 10.0952L4.77295 10.3149C1.70898 10.4736 0 11.9019 0 14.1479C0 16.4673 1.78223 18.0176 4.3457 18.0176ZM4.84619 16.3208C3.21045 16.3208 2.11182 15.4297 2.11182 14.0991C2.11182 12.8296 3.13721 11.9751 5.0293 11.853L8.66699 11.6089L8.66699 12.8906C8.66699 14.8193 6.97021 16.3208 4.84619 16.3208ZM14.1357 18.0176C14.7217 18.0176 15.1489 17.6147 15.1489 16.98L15.1489 15.2344L15.1855 15.2344C15.979 16.9556 17.5781 18.0176 19.5923 18.0176C22.9248 18.0176 25.1221 15.3687 25.1221 11.2915C25.1221 7.20215 22.9126 4.55322 19.6167 4.55322C17.6392 4.55322 16.0278 5.62744 15.271 7.33643L15.21 7.33643L15.21 1.09863C15.21 0.427246 14.7949 0 14.1846 0C13.562 0 13.147 0.427246 13.147 1.09863L13.147 16.98C13.147 17.627 13.5498 18.0176 14.1357 18.0176ZM19.1406 16.2476C16.8335 16.2476 15.21 14.2822 15.21 11.2915C15.21 8.31299 16.8457 6.34766 19.1406 6.34766C21.5088 6.34766 22.998 8.26416 22.998 11.2915C22.998 14.3311 21.4966 16.2476 19.1406 16.2476ZM32.5439 18.0176C34.9365 18.0176 36.9995 16.6992 37.6953 14.8438C37.7563 14.6362 37.8052 14.4409 37.8052 14.2578C37.8052 13.7451 37.4268 13.3789 36.9141 13.3789C36.4502 13.3789 36.2183 13.5498 35.9375 14.0869C35.3027 15.4785 34.2041 16.2476 32.5562 16.2476C30.1636 16.2476 28.6011 14.3555 28.6011 11.2915C28.6011 8.26416 30.1758 6.33545 32.5562 6.33545C34.1309 6.33545 35.2661 7.06787 35.9131 8.5083C36.1816 9.021 36.4258 9.2041 36.8774 9.2041C37.4023 9.2041 37.7686 8.8623 37.7686 8.3252C37.7686 8.17871 37.7197 7.99561 37.6831 7.82471C37.0728 5.95703 34.9854 4.55322 32.5073 4.55322C28.8696 4.55322 26.4893 7.22656 26.4893 11.3159C26.4893 15.4175 28.894 18.0176 32.5439 18.0176ZM1.47705 25.6958C2.29492 25.6958 2.9541 25.0366 2.9541 24.231C2.9541 23.4131 2.29492 22.7661 1.47705 22.7661C0.671387 22.7661 0.012207 23.4131 0.012207 24.231C0.012207 25.0366 0.671387 25.6958 1.47705 25.6958ZM7.2998 25.6958C8.11768 25.6958 8.77686 25.0366 8.77686 24.231C8.77686 23.4131 8.11768 22.7661 7.2998 22.7661C6.49414 22.7661 5.83496 23.4131 5.83496 24.231C5.83496 25.0366 6.49414 25.6958 7.2998 25.6958ZM13.1104 25.6958C13.9282 25.6958 14.5752 25.0366 14.5752 24.231C14.5752 23.4131 13.9282 22.7661 13.1104 22.7661C12.3047 22.7661 11.6455 23.4131 11.6455 24.231C11.6455 25.0366 12.3047 25.6958 13.1104 25.6958ZM18.9209 25.6958C19.7388 25.6958 20.3857 25.0366 20.3857 24.231C20.3857 23.4131 19.7388 22.7661 18.9209 22.7661C18.1152 22.7661 17.4561 23.4131 17.4561 24.231C17.4561 25.0366 18.1152 25.6958 18.9209 25.6958ZM24.7314 25.6958C25.5493 25.6958 26.1963 25.0366 26.1963 24.231C26.1963 23.4131 25.5493 22.7661 24.7314 22.7661C23.9258 22.7661 23.2666 23.4131 23.2666 24.231C23.2666 25.0366 23.9258 25.6958 24.7314 25.6958ZM30.542 25.6958C31.3477 25.6958 32.0068 25.0366 32.0068 24.231C32.0068 23.4131 31.3477 22.7661 30.542 22.7661C29.7363 22.7661 29.0771 23.4131 29.0771 24.231C29.0771 25.0366 29.7363 25.6958 30.542 25.6958ZM36.3525 25.6958C37.1704 25.6958 37.8174 25.0366 37.8174 24.231C37.8174 23.4131 37.1704 22.7661 36.3525 22.7661C35.5469 22.7661 34.8877 23.4131 34.8877 24.231C34.8877 25.0366 35.5469 25.6958 36.3525 25.6958Z" fill="#5ac8f5"/>
 </g>
</svg>
