<?xml version="1.0" encoding="UTF-8"?>
<!--Generator: Apple Native CoreSVG 175.5-->
<!DOCTYPE svg
PUBLIC "-//W3C//DTD SVG 1.1//EN"
       "http://www.w3.org/Graphics/SVG/1.1/DTD/svg11.dtd">
<svg version="1.1" xmlns="http://www.w3.org/2000/svg" xmlns:xlink="http://www.w3.org/1999/xlink" width="22.4731" height="22.4976">
 <g>
  <rect height="22.4976" opacity="0" width="22.4731" x="0" y="0"/>
  <path d="M3.83301 22.4976L18.6401 22.4976C21.2036 22.4976 22.4731 21.228 22.4731 18.7134L22.4731 3.80859C22.4731 1.29395 21.2036 0.0244141 18.6401 0.0244141L3.83301 0.0244141C1.28174 0.0244141 0 1.28174 0 3.80859L0 18.7134C0 21.2402 1.28174 22.4976 3.83301 22.4976ZM3.85742 20.5322C2.63672 20.5322 1.96533 19.8853 1.96533 18.6157L1.96533 3.90625C1.96533 2.63672 2.63672 1.98975 3.85742 1.98975L18.6157 1.98975C19.8242 1.98975 20.5078 2.63672 20.5078 3.90625L20.5078 18.6157C20.5078 19.8853 19.8242 20.5322 18.6157 20.5322ZM17.5293 11.2305C17.5293 10.9619 17.4194 10.7666 17.1753 10.5225L13.0493 6.37207C12.8906 6.21338 12.6709 6.12793 12.4146 6.12793C11.9141 6.12793 11.5356 6.50635 11.5356 7.00684C11.5356 7.27539 11.6455 7.49512 11.8042 7.66602L13.3423 9.17969L14.8071 10.4126L12.2314 10.3149L5.85938 10.3149C5.33447 10.3149 4.95605 10.6934 4.95605 11.2305C4.95605 11.7554 5.33447 12.1338 5.85938 12.1338L12.2314 12.1338L14.8071 12.0483L13.3423 13.2812L11.8042 14.7949C11.6333 14.9536 11.5356 15.1733 11.5356 15.4419C11.5356 15.9424 11.9141 16.333 12.4146 16.333C12.6709 16.333 12.8906 16.2354 13.0493 16.0767L17.1753 11.9385C17.4072 11.7188 17.5293 11.499 17.5293 11.2305Z" fill="#5ac8f5"/>
 </g>
</svg>
