<?xml version="1.0" encoding="UTF-8"?>
<!--Generator: Apple Native CoreSVG 175.5-->
<!DOCTYPE svg
PUBLIC "-//W3C//DTD SVG 1.1//EN"
       "http://www.w3.org/Graphics/SVG/1.1/DTD/svg11.dtd">
<svg version="1.1" xmlns="http://www.w3.org/2000/svg" xmlns:xlink="http://www.w3.org/1999/xlink" width="24.9023" height="24.9146">
 <g>
  <rect height="24.9146" opacity="0" width="24.9023" x="0" y="0"/>
  <path d="M12.4512 24.9023C19.2627 24.9023 24.9023 19.2505 24.9023 12.4512C24.9023 5.63965 19.2505 0 12.439 0C5.63965 0 0 5.63965 0 12.4512C0 19.2505 5.65186 24.9023 12.4512 24.9023ZM12.4512 22.8271C6.68945 22.8271 2.0874 18.2129 2.0874 12.4512C2.0874 6.68945 6.67725 2.0752 12.439 2.0752C18.2007 2.0752 22.8271 6.68945 22.8271 12.4512C22.8271 18.2129 18.2129 22.8271 12.4512 22.8271Z" fill="#5ac8f5" fill-opacity="0.5"/>
  <path d="M7.34863 17.8833L17.5293 17.8833C18.75 17.8833 19.3604 17.2607 19.3604 16.0645L19.3604 8.88672C19.3604 7.67822 18.75 7.08008 17.5293 7.08008L7.34863 7.08008C6.14014 7.08008 5.51758 7.67822 5.51758 8.88672L5.51758 16.0645C5.51758 17.2729 6.14014 17.8833 7.34863 17.8833ZM7.39746 16.7725C6.90918 16.7725 6.62842 16.4795 6.62842 16.0034L6.62842 15.4663L8.26416 14.0869C8.52051 13.8672 8.80127 13.7451 9.06982 13.7451C9.35059 13.7451 9.64355 13.8672 9.91211 14.0991L11.0352 15.1123L13.8428 12.6221C14.1235 12.3779 14.4409 12.2437 14.7827 12.2437C15.1001 12.2437 15.4419 12.3779 15.7104 12.6343L18.2495 14.9414L18.2495 16.0034C18.2495 16.4795 17.9688 16.7725 17.4805 16.7725ZM9.92432 12.6221C9.11865 12.6221 8.45947 11.9751 8.45947 11.1694C8.45947 10.3882 9.11865 9.729 9.92432 9.729C10.7056 9.729 11.3525 10.3882 11.3525 11.1694C11.3525 11.9751 10.7056 12.6221 9.92432 12.6221Z" fill="#5ac8f5"/>
 </g>
</svg>
