<?xml version="1.0" encoding="UTF-8"?>
<!--Generator: Apple Native CoreSVG 175.5-->
<!DOCTYPE svg
PUBLIC "-//W3C//DTD SVG 1.1//EN"
       "http://www.w3.org/Graphics/SVG/1.1/DTD/svg11.dtd">
<svg version="1.1" xmlns="http://www.w3.org/2000/svg" xmlns:xlink="http://www.w3.org/1999/xlink" width="31.0181" height="23.0103">
 <g>
  <rect height="23.0103" opacity="0" width="31.0181" x="0" y="0"/>
  <path d="M2.88086 22.9858L6.16455 22.9858C8.06885 22.9858 9.05762 22.0703 9.05762 20.2637L9.05762 9.85107C9.05762 8.04443 8.06885 7.1167 6.16455 7.1167L2.88086 7.1167C0.976562 7.1167 0 8.04443 0 9.85107L0 20.2637C0 22.0703 0.976562 22.9858 2.88086 22.9858ZM3.19824 21.1426C2.27051 21.1426 1.94092 20.8252 1.94092 19.9097L1.94092 10.2051C1.94092 9.27734 2.27051 8.95996 3.19824 8.95996L5.84717 8.95996C6.78711 8.95996 7.1167 9.27734 7.1167 10.2051L7.1167 19.9097C7.1167 20.8252 6.78711 21.1426 5.84717 21.1426ZM13.855 22.9858L17.1509 22.9858C19.0552 22.9858 20.0317 22.0703 20.0317 20.2637L20.0317 6.29883C20.0317 4.49219 19.0552 3.56445 17.1509 3.56445L13.855 3.56445C11.9507 3.56445 10.9741 4.49219 10.9741 6.29883L10.9741 20.2637C10.9741 22.0703 11.9507 22.9858 13.855 22.9858ZM14.1846 21.1426C13.2446 21.1426 12.915 20.8252 12.915 19.9097L12.915 6.65283C12.915 5.7373 13.2446 5.40771 14.1846 5.40771L16.8335 5.40771C17.7734 5.40771 18.0908 5.7373 18.0908 6.65283L18.0908 19.9097C18.0908 20.8252 17.7734 21.1426 16.8335 21.1426ZM24.8291 22.9858L28.125 22.9858C30.0293 22.9858 31.0181 22.0703 31.0181 20.2637L31.0181 2.73438C31.0181 0.927734 30.0293 0 28.125 0L24.8291 0C22.937 0 21.9604 0.927734 21.9604 2.73438L21.9604 20.2637C21.9604 22.0703 22.937 22.9858 24.8291 22.9858ZM25.1587 21.1426C24.231 21.1426 23.9014 20.8252 23.9014 19.9097L23.9014 3.08838C23.9014 2.17285 24.231 1.84326 25.1587 1.84326L27.8076 1.84326C28.7476 1.84326 29.0771 2.17285 29.0771 3.08838L29.0771 19.9097C29.0771 20.8252 28.7476 21.1426 27.8076 21.1426Z" fill="#5ac8f5"/>
 </g>
</svg>
