<?xml version="1.0" encoding="UTF-8"?>
<!--Generator: Apple Native CoreSVG 175.5-->
<!DOCTYPE svg
PUBLIC "-//W3C//DTD SVG 1.1//EN"
       "http://www.w3.org/Graphics/SVG/1.1/DTD/svg11.dtd">
<svg version="1.1" xmlns="http://www.w3.org/2000/svg" xmlns:xlink="http://www.w3.org/1999/xlink" width="22.4731" height="22.4976">
 <g>
  <rect height="22.4976" opacity="0" width="22.4731" x="0" y="0"/>
  <path d="M3.83301 22.4976L18.6401 22.4976C21.2036 22.4976 22.4731 21.228 22.4731 18.7134L22.4731 3.80859C22.4731 1.29395 21.2036 0.0244141 18.6401 0.0244141L3.83301 0.0244141C1.28174 0.0244141 0 1.28174 0 3.80859L0 18.7134C0 21.2402 1.28174 22.4976 3.83301 22.4976Z" fill="#5ac8f5" fill-opacity="0.25"/>
  <path d="M5.99365 16.3208C4.74854 16.3208 3.9917 15.5884 3.9917 14.3433L3.9917 8.1543C3.9917 6.89697 4.79736 6.17676 5.99365 6.17676L12.7075 6.17676C13.9771 6.17676 14.6484 6.89697 14.6484 8.1543L14.6484 14.3433C14.6484 15.5884 13.9038 16.3208 12.6465 16.3208ZM15.3564 12.9639L15.3564 9.53369L17.8101 7.42188C18.0176 7.26318 18.2861 7.14111 18.5059 7.14111C18.9819 7.14111 19.3115 7.48291 19.3115 7.99561L19.3115 14.4897C19.3115 15.0146 18.9819 15.3687 18.5059 15.3687C18.2861 15.3687 18.0298 15.2466 17.8101 15.0635Z" fill="#5ac8f5"/>
 </g>
</svg>
