<?xml version="1.0" encoding="UTF-8"?>
<!--Generator: Apple Native CoreSVG 175.5-->
<!DOCTYPE svg
PUBLIC "-//W3C//DTD SVG 1.1//EN"
       "http://www.w3.org/Graphics/SVG/1.1/DTD/svg11.dtd">
<svg version="1.1" xmlns="http://www.w3.org/2000/svg" xmlns:xlink="http://www.w3.org/1999/xlink" width="24.9023" height="24.9146">
 <g>
  <rect height="24.9146" opacity="0" width="24.9023" x="0" y="0"/>
  <path d="M12.4512 24.9023C19.2627 24.9023 24.9023 19.2505 24.9023 12.4512C24.9023 5.63965 19.2505 0 12.439 0C5.63965 0 0 5.63965 0 12.4512C0 19.2505 5.65186 24.9023 12.4512 24.9023ZM12.4512 22.8271C6.68945 22.8271 2.0874 18.2129 2.0874 12.4512C2.0874 6.68945 6.67725 2.0752 12.439 2.0752C18.2007 2.0752 22.8271 6.68945 22.8271 12.4512C22.8271 18.2129 18.2129 22.8271 12.4512 22.8271Z" fill="#5ac8f5" fill-opacity="0.5"/>
  <path d="M10.6323 17.688C11.1328 17.688 11.3892 17.3462 11.3892 16.8701L11.3892 15.4297L12.0483 15.4297C12.4756 15.4297 12.7441 15.1855 12.7441 14.7583C12.7441 14.3188 12.4634 14.0625 12.0483 14.0625L11.3892 14.0625L11.3892 8.34961C11.3892 7.6416 10.8887 7.18994 10.1807 7.18994C9.47266 7.18994 9.04541 7.4585 8.64258 8.12988C7.62939 9.83887 6.39648 11.9385 5.56641 13.4155C5.37109 13.7939 5.29785 14.0625 5.29785 14.3921C5.29785 15.0391 5.7251 15.4297 6.34766 15.4297L9.91211 15.4297L9.91211 16.8701C9.91211 17.334 10.1562 17.688 10.6323 17.688ZM9.91211 14.0625L6.89697 14.0625L6.89697 14.0137C7.61719 12.6343 8.87451 10.4858 9.83887 8.83789L9.91211 8.83789ZM17.3584 17.5659C17.8223 17.5659 18.1274 17.2607 18.1274 16.7847L18.1274 8.14209C18.1274 7.62939 17.7734 7.26318 17.2729 7.26318C16.8701 7.26318 16.6382 7.38525 16.1987 7.67822L14.3433 8.94775C14.0869 9.13086 13.9404 9.35059 13.9404 9.66797C13.9404 10.083 14.2822 10.4004 14.6362 10.4004C14.8315 10.4004 14.9414 10.3882 15.2344 10.1685L16.5283 9.2041L16.6016 9.2041L16.6016 16.7847C16.6016 17.2607 16.9067 17.5659 17.3584 17.5659Z" fill="#5ac8f5"/>
 </g>
</svg>
