<?xml version="1.0" encoding="UTF-8"?>
<!--Generator: Apple Native CoreSVG 175.5-->
<!DOCTYPE svg
PUBLIC "-//W3C//DTD SVG 1.1//EN"
       "http://www.w3.org/Graphics/SVG/1.1/DTD/svg11.dtd">
<svg version="1.1" xmlns="http://www.w3.org/2000/svg" xmlns:xlink="http://www.w3.org/1999/xlink" width="19.3612" height="30.7739">
 <g>
  <rect height="30.7739" opacity="0" width="19.3612" x="0" y="0"/>
  <path d="M10.0662 5.33447C11.5311 5.33447 12.7152 4.13818 12.7152 2.64893C12.7152 1.18408 11.5311 0 10.0662 0C8.57698 0 7.38069 1.18408 7.38069 2.64893C7.38069 4.13818 8.57698 5.33447 10.0662 5.33447ZM14.6195 30.481C15.2786 30.2856 15.6204 29.5532 15.4007 28.894L13.4598 23.0469C13.3988 22.8638 13.3377 22.7905 13.2279 22.6318L9.96858 18.8965L10.6522 11.4624C10.6644 11.2183 10.9574 11.145 11.0916 11.3525L12.6663 13.7817C12.8983 14.1235 13.2401 14.4287 13.5819 14.624L17.5247 16.748C18.1351 17.0654 18.8797 16.8457 19.2215 16.2476C19.5267 15.6372 19.3192 14.8804 18.721 14.5508L14.7659 12.439L12.1414 8.38623C11.4212 7.27539 10.3714 6.61621 8.91878 6.61621L6.31868 6.61621L5.3055 16.2476C5.17122 17.4927 5.40315 18.2983 6.41634 19.3359L11.1771 24.1211L13.0448 29.6753C13.3133 30.481 14.0335 30.6396 14.6195 30.481ZM3.76741 16.2476L5.76936 16.2476C6.84358 16.2476 7.67366 15.4541 7.67366 14.4287L7.67366 7.14111C7.67366 6.11572 6.84358 5.31006 5.76936 5.31006L4.40218 5.31006C2.85188 5.31006 1.94856 6.22559 1.94856 7.80029L1.94856 14.4287C1.94856 15.5029 2.69319 16.2476 3.76741 16.2476ZM0.361648 30.1514C0.862136 30.6641 1.61897 30.6396 2.10725 30.1514L6.67268 25.6104C6.75813 25.5127 6.85579 25.4272 6.90462 25.3174L8.16194 22.7661L5.97688 20.5811L4.70735 24.0601L0.361648 28.4302C-0.114426 28.9185-0.126633 29.6753 0.361648 30.1514ZM18.0374 9.96094C17.659 9.96094 17.366 10.2539 17.366 10.6323L17.366 12.4878L18.721 13.2202L18.721 10.6323C18.721 10.2539 18.4158 9.96094 18.0374 9.96094ZM18.0374 30.5176C18.4158 30.5176 18.721 30.2124 18.721 29.834L18.721 17.9932C18.2816 18.1152 17.8177 18.103 17.366 17.9565L17.366 29.834C17.366 30.2124 17.659 30.5176 18.0374 30.5176Z" fill="#5ac8f5"/>
 </g>
</svg>
