<?xml version="1.0" encoding="UTF-8"?>
<!--Generator: Apple Native CoreSVG 175.5-->
<!DOCTYPE svg
PUBLIC "-//W3C//DTD SVG 1.1//EN"
       "http://www.w3.org/Graphics/SVG/1.1/DTD/svg11.dtd">
<svg version="1.1" xmlns="http://www.w3.org/2000/svg" xmlns:xlink="http://www.w3.org/1999/xlink" width="24.7192" height="23.5962">
 <g>
  <rect height="23.5962" opacity="0" width="24.7192" x="0" y="0"/>
  <path d="M3.50342 7.03125C5.43213 7.03125 7.00684 5.44434 7.00684 3.54004C7.00684 1.61133 5.43213 0.012207 3.50342 0.012207C1.57471 0.012207 0 1.61133 0 3.54004C0 5.44434 1.57471 7.03125 3.50342 7.03125ZM12.3657 7.04346C14.2822 7.04346 15.8813 5.44434 15.8813 3.52783C15.8813 1.58691 14.2822 0 12.3657 0.012207C10.437 0.0244141 8.83789 1.58691 8.83789 3.52783C8.83789 5.44434 10.437 7.04346 12.3657 7.04346ZM21.2158 7.04346C23.1445 7.04346 24.7192 5.44434 24.7192 3.52783C24.7192 1.58691 23.1445 0 21.2158 0.012207C19.2749 0.0244141 17.7124 1.57471 17.7124 3.52783C17.7124 5.44434 19.2871 7.04346 21.2158 7.04346ZM3.50342 15.3198C5.43213 15.3198 7.00684 13.7207 7.00684 11.8042C7.00684 9.87549 5.41992 8.28857 3.50342 8.30078C1.57471 8.31299 0 9.87549 0 11.8042C0 13.7207 1.57471 15.3198 3.50342 15.3198ZM12.3657 15.3198C14.2822 15.3198 15.8813 13.7207 15.8813 11.8042C15.8813 9.87549 14.2822 8.28857 12.3657 8.30078C10.437 8.31299 8.83789 9.87549 8.83789 11.8042C8.83789 13.7207 10.437 15.3198 12.3657 15.3198ZM21.2158 15.3198C23.1445 15.3198 24.7192 13.7207 24.7192 11.8042C24.7192 9.87549 23.1445 8.28857 21.2158 8.30078C19.2871 8.31299 17.7124 9.87549 17.7124 11.8042C17.7124 13.7207 19.2871 15.3198 21.2158 15.3198ZM3.50342 23.5962C5.43213 23.5962 7.00684 22.0215 7.00684 20.0806C7.00684 18.1641 5.41992 16.5771 3.50342 16.5771C1.57471 16.5771 0 18.1519 0 20.0806C0 21.9971 1.57471 23.5962 3.50342 23.5962ZM12.3657 23.5962C14.2822 23.5962 15.8813 21.9971 15.8813 20.0806C15.8813 18.1519 14.2822 16.5771 12.3657 16.5771C10.437 16.5771 8.83789 18.1519 8.83789 20.0806C8.83789 21.9971 10.437 23.5962 12.3657 23.5962ZM21.2158 23.5962C23.1445 23.5962 24.7192 21.9971 24.7192 20.0806C24.7192 18.1519 23.1445 16.5771 21.2158 16.5771C19.2871 16.5771 17.7124 18.1519 17.7124 20.0806C17.7124 21.9971 19.2871 23.5962 21.2158 23.5962Z" fill="#5ac8f5"/>
 </g>
</svg>
