<?xml version="1.0" encoding="UTF-8"?>
<!--Generator: Apple Native CoreSVG 175.5-->
<!DOCTYPE svg
PUBLIC "-//W3C//DTD SVG 1.1//EN"
       "http://www.w3.org/Graphics/SVG/1.1/DTD/svg11.dtd">
<svg version="1.1" xmlns="http://www.w3.org/2000/svg" xmlns:xlink="http://www.w3.org/1999/xlink" width="46.0205" height="22.3511">
 <g>
  <rect height="22.3511" opacity="0" width="46.0205" x="0" y="0"/>
  <path d="M15.3564 22.3511L30.6885 22.3511C32.605 22.3511 33.2886 21.8018 33.2886 20.7275C33.2886 17.5781 29.3457 13.2324 23.0225 13.2324C16.687 13.2324 12.7441 17.5781 12.7441 20.7275C12.7441 21.8018 13.4277 22.3511 15.3564 22.3511ZM23.0225 11.0474C25.647 11.0474 27.9053 8.70361 27.9053 5.65186C27.9053 2.63672 25.6348 0.402832 23.0225 0.402832C20.4224 0.402832 18.1396 2.68555 18.1519 5.67627C18.1519 8.70361 20.4102 11.0474 23.0225 11.0474Z" fill="#5ac8f5"/>
  <path d="M2.14844 22.3511L11.4136 22.3511C10.144 20.5078 11.6943 16.7969 14.3311 14.7705C12.9639 13.8672 11.2183 13.1958 8.94775 13.1958C3.44238 13.1958 0 17.2607 0 20.6421C0 21.7407 0.598145 22.3511 2.14844 22.3511ZM8.94775 11.3281C11.2305 11.3281 13.1958 9.27734 13.1958 6.62842C13.1958 4.00391 11.2183 2.06299 8.94775 2.06299C6.68945 2.06299 4.6875 4.05273 4.69971 6.65283C4.69971 9.27734 6.67725 11.3281 8.94775 11.3281ZM43.8721 22.3511C45.4224 22.3511 46.0205 21.7407 46.0205 20.6421C46.0205 17.2607 42.5781 13.1958 37.0728 13.1958C34.79 13.1958 33.0444 13.8672 31.6895 14.7705C34.314 16.7969 35.8643 20.5078 34.5947 22.3511ZM37.0605 11.3281C39.3433 11.3281 41.3208 9.27734 41.3208 6.65283C41.3208 4.05273 39.3311 2.06299 37.0605 2.06299C34.8022 2.06299 32.8125 4.00391 32.8125 6.62842C32.8125 9.27734 34.79 11.3281 37.0605 11.3281Z" fill="#5ac8f5" fill-opacity="0.5"/>
 </g>
</svg>
