<?xml version="1.0" encoding="UTF-8"?>
<!--Generator: Apple Native CoreSVG 175.5-->
<!DOCTYPE svg
PUBLIC "-//W3C//DTD SVG 1.1//EN"
       "http://www.w3.org/Graphics/SVG/1.1/DTD/svg11.dtd">
<svg version="1.1" xmlns="http://www.w3.org/2000/svg" xmlns:xlink="http://www.w3.org/1999/xlink" width="22.1191" height="30.896">
 <g>
  <rect height="30.896" opacity="0" width="22.1191" x="0" y="0"/>
  <path d="M0.537109 8.91113C1.24512 8.52051 2.06299 8.31299 2.89307 8.31299C4.1748 8.31299 5.45654 8.81348 6.29883 9.85107C7.16553 8.59375 8.6792 7.89795 10.2051 7.89795C11.731 7.89795 13.2446 8.59375 14.1113 9.85107C14.9536 8.81348 16.2476 8.31299 17.5537 8.31299C18.335 8.31299 19.1406 8.5083 19.8364 8.88672C20.2637 8.27637 20.52 7.55615 20.52 6.75049C20.52 4.65088 19.165 3.17383 17.2363 3.125C16.7236 1.94092 15.7715 1.14746 14.4531 1.14746C13.6108 1.14746 12.8418 1.44043 12.2559 1.97754C11.9507 1.89209 11.5356 1.86768 11.1938 1.94092C10.6567 0.756836 9.50928 0 8.20312 0C6.46973 0 5.32227 1.06201 5.11475 2.12402C4.1748 2.03857 3.39355 2.89307 3.39355 3.72314C1.53809 3.66211 0 5.2002 0 7.06787C0 7.71484 0.158691 8.31299 0.537109 8.91113ZM5.41992 28.9185L7.10449 28.9185L5.61523 12.5122C5.46875 10.791 4.15039 9.96094 2.83203 9.96094C1.24512 9.96094-0.354004 11.1694 0.0854492 13.5132L2.49023 26.1719C2.81982 27.9053 3.67432 28.9185 5.41992 28.9185ZM8.70361 28.9185L10.7422 28.9185L10.7422 28.8574C10.1807 28.1128 9.86328 27.1851 9.86328 26.1963C9.86328 24.4507 10.791 22.876 12.3291 22.0703L13.1714 12.6221C13.3667 10.4248 11.5234 9.55811 10.2051 9.55811C8.88672 9.55811 7.04346 10.4248 7.23877 12.6221ZM16.8701 18.9697C17.7246 18.9697 18.5059 19.1895 19.1772 19.5801L20.3247 13.5132C20.7764 11.1694 19.165 9.96094 17.5781 9.96094C16.272 9.96094 14.9536 10.791 14.7949 12.5122L14.1113 19.9951C14.8193 19.3604 15.7959 18.9697 16.8701 18.9697ZM16.8701 30.8716C18.0542 30.8716 19.1528 30.2002 19.6655 29.1748C21.3013 28.8086 22.1191 27.5269 22.1191 26.2085C22.1191 24.8535 21.2524 23.5718 19.6655 23.3154C19.6167 21.7651 18.4448 20.6421 16.8701 20.6421C15.3198 20.6421 14.1602 21.7285 14.0869 23.23C12.4512 23.4863 11.5234 24.8169 11.5234 26.1963C11.5234 27.5635 12.4268 28.8574 14.0869 29.1992C14.563 30.2002 15.6616 30.8716 16.8701 30.8716Z" fill="#5ac8f5"/>
 </g>
</svg>
