<?xml version="1.0" encoding="UTF-8"?>
<!--Generator: Apple Native CoreSVG 175.5-->
<!DOCTYPE svg
PUBLIC "-//W3C//DTD SVG 1.1//EN"
       "http://www.w3.org/Graphics/SVG/1.1/DTD/svg11.dtd">
<svg version="1.1" xmlns="http://www.w3.org/2000/svg" xmlns:xlink="http://www.w3.org/1999/xlink" width="22.4731" height="22.4976">
 <g>
  <rect height="22.4976" opacity="0" width="22.4731" x="0" y="0"/>
  <path d="M3.83301 22.4976L18.6401 22.4976C21.2036 22.4976 22.4731 21.228 22.4731 18.7134L22.4731 3.80859C22.4731 1.29395 21.2036 0.0244141 18.6401 0.0244141L3.83301 0.0244141C1.28174 0.0244141 0 1.28174 0 3.80859L0 18.7134C0 21.2402 1.28174 22.4976 3.83301 22.4976ZM3.85742 20.5322C2.63672 20.5322 1.96533 19.8853 1.96533 18.6157L1.96533 3.90625C1.96533 2.63672 2.63672 1.98975 3.85742 1.98975L18.6157 1.98975C19.8242 1.98975 20.5078 2.63672 20.5078 3.90625L20.5078 18.6157C20.5078 19.8853 19.8242 20.5322 18.6157 20.5322ZM8.61816 16.8335C9.26514 16.8335 9.60693 16.4062 9.60693 15.7349L9.60693 13.0615L12.0117 13.0615C14.4043 13.0615 15.9912 11.5723 15.9912 9.32617C15.9912 7.08008 14.3799 5.56641 12.0239 5.56641L8.61816 5.56641C7.9834 5.56641 7.65381 6.00586 7.65381 6.66504L7.65381 15.7349C7.65381 16.3818 7.99561 16.8335 8.61816 16.8335ZM9.60693 11.5723L9.60693 7.05566L11.7432 7.05566C13.1714 7.05566 14.0625 7.92236 14.0625 9.32617C14.0625 10.7056 13.1836 11.5723 11.7432 11.5723Z" fill="#5ac8f5"/>
 </g>
</svg>
