<?xml version="1.0" encoding="UTF-8"?>
<!--Generator: Apple Native CoreSVG 175.5-->
<!DOCTYPE svg
PUBLIC "-//W3C//DTD SVG 1.1//EN"
       "http://www.w3.org/Graphics/SVG/1.1/DTD/svg11.dtd">
<svg version="1.1" xmlns="http://www.w3.org/2000/svg" xmlns:xlink="http://www.w3.org/1999/xlink" width="24.9023" height="24.9146">
 <g>
  <rect height="24.9146" opacity="0" width="24.9023" x="0" y="0"/>
  <path d="M12.4512 24.9146C19.2627 24.9146 24.9023 19.2749 24.9023 12.4634C24.9023 5.66406 19.2505 0.012207 12.439 0.012207C5.63965 0.012207 0 5.66406 0 12.4634C0 19.2749 5.65186 24.9146 12.4512 24.9146Z" fill="#5ac8f5" fill-opacity="0.25"/>
  <path d="M20.6299 12.4756C20.6299 13.3179 19.519 13.9526 18.1519 13.9526L15.4541 13.9526C15.1245 13.9526 15.0269 14.0015 14.8193 14.2212L10.3271 19.1162C10.1685 19.2871 9.96094 19.397 9.74121 19.397L8.95996 19.397C8.69141 19.397 8.54492 19.1406 8.65479 18.8721L10.9009 13.9282L7.76367 13.5742L6.5918 15.7104C6.48193 15.918 6.29883 16.0156 6.03027 16.0156L5.7373 16.0156C5.49316 16.0156 5.33447 15.8447 5.33447 15.6006L5.33447 9.33838C5.33447 9.09424 5.49316 8.93555 5.7373 8.93555L6.03027 8.93555C6.29883 8.93555 6.48193 9.0332 6.5918 9.24072L7.76367 11.377L10.9009 11.0229L8.65479 6.0791C8.54492 5.81055 8.69141 5.5542 8.95996 5.5542L9.74121 5.5542C9.96094 5.5542 10.1685 5.65186 10.3271 5.83496L14.8193 10.73C15.0269 10.9497 15.1245 10.9985 15.4541 10.9985L18.1519 10.9985C19.519 10.9985 20.6299 11.6333 20.6299 12.4756Z" fill="#5ac8f5"/>
 </g>
</svg>
