<?xml version="1.0" encoding="UTF-8"?>
<!--Generator: Apple Native CoreSVG 175.5-->
<!DOCTYPE svg
PUBLIC "-//W3C//DTD SVG 1.1//EN"
       "http://www.w3.org/Graphics/SVG/1.1/DTD/svg11.dtd">
<svg version="1.1" xmlns="http://www.w3.org/2000/svg" xmlns:xlink="http://www.w3.org/1999/xlink" width="26.5717" height="24.5239">
 <g>
  <rect height="24.5239" opacity="0" width="26.5717" x="0" y="0"/>
  <path d="M24.3164 24.0723C24.8291 24.5972 25.708 24.5972 26.1963 24.0723C26.6968 23.5352 26.6968 22.7051 26.1963 22.1924L14.5874 10.5469C14.0747 10.0342 13.1958 10.0342 12.7075 10.5469C12.1948 11.084 12.207 11.9263 12.7075 12.439ZM24.7437 23.23L17.2119 15.686L17.8223 15.1001L25.354 22.644C25.5737 22.8516 25.6226 23.0957 25.4272 23.3154C25.2075 23.4985 24.9756 23.4619 24.7437 23.23Z" fill="#5ac8f5"/>
  <path d="M9.26514 24.2676C9.48486 24.2676 9.64355 24.1089 9.68018 23.877C10.0708 20.6177 10.2295 20.5322 13.5498 19.9951C13.8062 19.9463 13.9648 19.8242 13.9648 19.5801C13.9648 19.3481 13.8062 19.2017 13.5986 19.165C10.2539 18.5303 10.0708 18.5425 9.68018 15.2832C9.64355 15.0513 9.48486 14.8926 9.26514 14.8926C9.0332 14.8926 8.87451 15.0513 8.8501 15.271C8.42285 18.5791 8.31299 18.689 4.93164 19.165C4.72412 19.1895 4.56543 19.3481 4.56543 19.5801C4.56543 19.812 4.72412 19.9463 4.93164 19.9951C8.31299 20.6421 8.41064 20.6421 8.8501 23.9014C8.87451 24.1089 9.0332 24.2676 9.26514 24.2676ZM3.4668 13.6353C3.6377 13.6353 3.73535 13.5132 3.77197 13.3545C4.18701 11.0352 4.19922 10.8887 6.65283 10.4736C6.81152 10.437 6.93359 10.3394 6.93359 10.1685C6.93359 9.99756 6.81152 9.8877 6.65283 9.86328C4.19922 9.43604 4.18701 9.28955 3.77197 6.97021C3.73535 6.81152 3.6377 6.70166 3.4668 6.70166C3.2959 6.70166 3.19824 6.81152 3.16162 6.97021C2.74658 9.28955 2.73438 9.43604 0.280762 9.86328C0.12207 9.8877 0 9.99756 0 10.1685C0 10.3394 0.12207 10.437 0.280762 10.4736C2.73438 10.8887 2.74658 11.0352 3.16162 13.3545C3.19824 13.5132 3.2959 13.6353 3.4668 13.6353ZM10.1562 5.82275C10.3027 5.82275 10.376 5.7373 10.4004 5.60303C10.8154 3.6499 10.791 3.57666 12.8418 3.16162C12.9761 3.13721 13.0737 3.05176 13.0737 2.91748C13.0737 2.771 12.9761 2.68555 12.8418 2.66113C10.791 2.24609 10.8154 2.17285 10.4004 0.231934C10.376 0.0976562 10.3027 0 10.1562 0C10.0098 0 9.93652 0.0976562 9.91211 0.231934C9.49707 2.17285 9.52148 2.24609 7.4707 2.66113C7.33643 2.68555 7.23877 2.771 7.23877 2.91748C7.23877 3.05176 7.33643 3.13721 7.4707 3.16162C9.52148 3.57666 9.49707 3.6499 9.91211 5.60303C9.93652 5.7373 10.0098 5.82275 10.1562 5.82275ZM20.2393 10.1318C20.4102 10.1318 20.5078 10.022 20.5444 9.86328C20.9595 7.54395 20.9717 7.39746 23.4253 6.97021C23.5962 6.9458 23.7061 6.83594 23.7061 6.66504C23.7061 6.49414 23.5962 6.39648 23.4253 6.35986C20.9717 5.94482 20.9595 5.79834 20.5444 3.479C20.5078 3.32031 20.4102 3.19824 20.2393 3.19824C20.0684 3.19824 19.9707 3.32031 19.9341 3.479C19.519 5.79834 19.5068 5.94482 17.0532 6.35986C16.8945 6.39648 16.7725 6.49414 16.7725 6.66504C16.7725 6.83594 16.8945 6.9458 17.0532 6.97021C19.5068 7.39746 19.519 7.54395 19.9341 9.86328C19.9707 10.022 20.0684 10.1318 20.2393 10.1318Z" fill="#5ac8f5" fill-opacity="0.5"/>
 </g>
</svg>
