<?xml version="1.0" encoding="UTF-8"?>
<!--Generator: Apple Native CoreSVG 175.5-->
<!DOCTYPE svg
PUBLIC "-//W3C//DTD SVG 1.1//EN"
       "http://www.w3.org/Graphics/SVG/1.1/DTD/svg11.dtd">
<svg version="1.1" xmlns="http://www.w3.org/2000/svg" xmlns:xlink="http://www.w3.org/1999/xlink" width="32.019" height="30.7315">
 <g>
  <rect height="30.7315" opacity="0" width="32.019" x="0" y="0"/>
  <path d="M4.80957 26.9075L6.40869 24.1609C6.62842 23.7825 6.50635 23.3552 6.14014 23.1477C5.77393 22.928 5.35889 23.0501 5.12695 23.4285L3.52783 26.1995C3.32031 26.5535 3.43018 26.9807 3.80859 27.2004C4.1626 27.3958 4.60205 27.2737 4.80957 26.9075ZM8.63037 30.3499L10.2173 27.5911C10.4492 27.2249 10.3271 26.7976 9.96094 26.5779C9.59473 26.3704 9.17969 26.4924 8.94775 26.8587L7.34863 29.6419C7.14111 29.9837 7.25098 30.4109 7.62939 30.6306C7.9834 30.8381 8.42285 30.7161 8.63037 30.3499ZM14.5264 26.8953L16.1133 24.1487C16.333 23.7703 16.2109 23.343 15.8569 23.1355C15.4785 22.9158 15.0635 23.0379 14.8438 23.4163L13.2446 26.1873C13.0371 26.5413 13.1348 26.9685 13.5132 27.1882C13.8794 27.3836 14.3188 27.2615 14.5264 26.8953ZM18.3472 30.3377L19.9341 27.5789C20.1538 27.2127 20.0317 26.7854 19.6655 26.5657C19.2993 26.3582 18.8843 26.4802 18.6646 26.8464L17.0654 29.6296C16.8579 29.9714 16.9556 30.3987 17.334 30.6184C17.7002 30.8259 18.1396 30.7039 18.3472 30.3377Z" fill="#5ac8f5" fill-opacity="0.25"/>
  <path d="M25.9399 14.8591C29.7485 14.1878 32.019 11.0994 32.019 9.09742C32.019 8.62135 31.7993 8.26734 31.4087 8.26734C30.8228 8.26734 29.9316 9.04859 28.2471 9.04859C25.2563 9.04859 23.3765 7.25416 23.3765 4.51978C23.3765 2.90846 24.2432 1.73658 24.2432 1.0774C24.2432 0.698984 23.9868 0.454843 23.4985 0.46705C21.2402 0.564707 18.3716 3.07935 17.7368 6.32643C18.1152 6.68043 18.4814 7.1565 18.7744 7.80348C22.8882 8.12086 25.8667 11.2214 25.9399 14.8591Z" fill="#5ac8f5" fill-opacity="0.5"/>
  <path d="M5.06592 21.0603L18.2739 21.0603C21.7285 21.0603 24.4141 18.448 24.4141 15.0667C24.4141 11.6975 21.6797 9.15846 18.0298 9.13404C16.6016 6.41187 14.0625 4.82496 11.1084 4.82496C7.14111 4.82496 3.77197 7.91334 3.40576 11.9172C1.33057 12.5398 0 14.2976 0 16.4461C0 19.1804 2.06299 21.0603 5.06592 21.0603Z" fill="#5ac8f5"/>
 </g>
</svg>
