<?xml version="1.0" encoding="UTF-8"?>
<!--Generator: Apple Native CoreSVG 175.5-->
<!DOCTYPE svg
PUBLIC "-//W3C//DTD SVG 1.1//EN"
       "http://www.w3.org/Graphics/SVG/1.1/DTD/svg11.dtd">
<svg version="1.1" xmlns="http://www.w3.org/2000/svg" xmlns:xlink="http://www.w3.org/1999/xlink" width="24.9023" height="24.9146">
 <g>
  <rect height="24.9146" opacity="0" width="24.9023" x="0" y="0"/>
  <path d="M12.4512 24.9023C19.2627 24.9023 24.9023 19.2505 24.9023 12.4512C24.9023 5.63965 19.2505 0 12.439 0C5.63965 0 0 5.63965 0 12.4512C0 19.2505 5.65186 24.9023 12.4512 24.9023ZM12.4512 22.8271C6.68945 22.8271 2.0874 18.2129 2.0874 12.4512C2.0874 6.68945 6.67725 2.0752 12.439 2.0752C18.2007 2.0752 22.8271 6.68945 22.8271 12.4512C22.8271 18.2129 18.2129 22.8271 12.4512 22.8271Z" fill="#5ac8f5" fill-opacity="0.5"/>
  <path d="M18.1763 6.67725C16.6016 5.11475 13.8916 5.32227 12.085 7.1167C11.0474 8.17871 10.5957 9.50928 10.5957 10.7788C10.5713 12.6709 10.376 13.7451 8.61816 15.4785L9.375 16.2354C11.1206 14.4775 12.1582 14.3188 14.0625 14.27C15.3564 14.2334 16.6626 13.8184 17.7246 12.7686C19.5312 10.9497 19.751 8.23975 18.1763 6.67725ZM17.4072 7.43408C18.5791 8.60596 18.396 10.5835 16.9678 11.9995C15.5273 13.4277 13.562 13.623 12.4023 12.4512C11.2183 11.2915 11.4136 9.31396 12.8662 7.88574C14.2822 6.45752 16.2476 6.26221 17.4072 7.43408ZM5.93262 18.4814L6.34766 18.9087C6.64062 19.2017 7.06787 19.2017 7.36084 18.9087L9.77783 16.4795C10.0708 16.1743 10.0708 15.7715 9.77783 15.4663L9.36279 15.0513C9.08203 14.7583 8.65479 14.7583 8.36182 15.0513L5.93262 17.4927C5.65186 17.7856 5.63965 18.1885 5.93262 18.4814ZM17.7979 11.7188L18.396 11.084L13.8306 6.50635L13.208 7.12891ZM16.0645 13.4155L16.7114 12.8174L12.1216 8.22754L11.499 8.83789ZM11.4502 11.2305L11.8286 12.0972L16.98 6.9458L16.2354 6.45752ZM12.9395 13.0615L13.7329 13.4766L18.4692 8.75244L17.9688 7.99561Z" fill="#5ac8f5"/>
 </g>
</svg>
