<?xml version="1.0" encoding="UTF-8"?>
<!--Generator: Apple Native CoreSVG 175.5-->
<!DOCTYPE svg
PUBLIC "-//W3C//DTD SVG 1.1//EN"
       "http://www.w3.org/Graphics/SVG/1.1/DTD/svg11.dtd">
<svg version="1.1" xmlns="http://www.w3.org/2000/svg" xmlns:xlink="http://www.w3.org/1999/xlink" width="25.5127" height="30.0415">
 <g>
  <rect height="30.0415" opacity="0" width="25.5127" x="0" y="0"/>
  <path d="M1.70898 28.0029C1.70898 28.9062 2.40479 29.6143 3.32031 29.6143L4.76074 29.6143C5.67627 29.6143 6.38428 28.9062 6.38428 28.0029L6.38428 25.9766C8.78906 26.1353 10.7788 26.2329 12.7563 26.2329C14.7339 26.2329 16.7114 26.1475 19.1284 25.9766L19.1284 28.0029C19.1284 28.9062 19.8242 29.6143 20.7397 29.6143L22.1802 29.6143C23.0957 29.6143 23.8037 28.9062 23.8037 28.0029L23.8037 3.11279C23.8037 1.55029 22.876 0.634766 21.2158 0.45166C18.6401 0.146484 15.686 0 12.7563 0C9.83887 0 6.89697 0.146484 4.28467 0.45166C2.62451 0.634766 1.70898 1.55029 1.70898 3.11279ZM3.94287 9.82666L3.94287 4.10156C3.94287 3.27148 4.39453 2.74658 5.15137 2.64893C7.69043 2.36816 10.2173 2.22168 12.7563 2.22168C15.2832 2.22168 17.8345 2.38037 20.3613 2.64893C21.1182 2.74658 21.5698 3.27148 21.5698 4.10156L21.5698 9.82666ZM3.94287 11.6089L21.5698 11.6089L21.5698 17.0776C21.5698 17.9077 21.1182 18.4326 20.3613 18.5181C17.9077 18.7988 15.3198 18.9453 12.7563 18.9453C10.1807 18.9453 7.60498 18.811 5.15137 18.5181C4.39453 18.4326 3.94287 17.9077 3.94287 17.0776ZM6.21338 23.6938C5.39551 23.6938 4.74854 23.0469 4.74854 22.229C4.74854 21.3989 5.39551 20.7642 6.21338 20.7642C7.04346 20.7642 7.67822 21.3989 7.67822 22.229C7.67822 23.0469 7.04346 23.6938 6.21338 23.6938ZM10.6323 23.2422C10.0464 23.2422 9.60693 22.8027 9.60693 22.2168C9.60693 21.6187 10.0342 21.1914 10.6323 21.1914L14.8682 21.1914C15.4785 21.1914 15.9058 21.6187 15.9058 22.2168C15.9058 22.8027 15.4663 23.2422 14.8682 23.2422ZM19.2993 23.6938C18.4692 23.6938 17.8345 23.0469 17.8345 22.229C17.8345 21.3989 18.4692 20.7642 19.2993 20.7642C20.1172 20.7642 20.7642 21.3989 20.7642 22.229C20.7642 23.0469 20.1172 23.6938 19.2993 23.6938ZM2.50244 14.4409L2.50244 8.14209L1.15967 8.14209C0.476074 8.14209 0 8.56934 0 9.21631L0 13.3789C0 14.0137 0.476074 14.4409 1.15967 14.4409ZM23.0103 14.4409L24.353 14.4409C25.0366 14.4409 25.5127 14.0137 25.5127 13.3789L25.5127 9.21631C25.5127 8.56934 25.0366 8.14209 24.353 8.14209L23.0103 8.14209Z" fill="#5ac8f5"/>
 </g>
</svg>
