<?xml version="1.0" encoding="UTF-8"?>
<!--Generator: Apple Native CoreSVG 175.5-->
<!DOCTYPE svg
PUBLIC "-//W3C//DTD SVG 1.1//EN"
       "http://www.w3.org/Graphics/SVG/1.1/DTD/svg11.dtd">
<svg version="1.1" xmlns="http://www.w3.org/2000/svg" xmlns:xlink="http://www.w3.org/1999/xlink" width="31.7139" height="20.3003">
 <g>
  <rect height="20.3003" opacity="0" width="31.7139" x="0" y="0"/>
  <path d="M11.7188 10.144C11.7188 12.439 11.8896 14.6606 12.5244 16.9189C13.2568 19.3848 14.6484 20.2637 17.5659 20.2637L18.2373 20.2637C25.3784 20.2637 31.7139 15.6128 31.7139 10.144C31.7139 4.67529 25.3784 0 18.2373 0L17.5659 0C14.6606 0 13.269 0.891113 12.5244 3.35693C11.8896 5.62744 11.7188 7.84912 11.7188 10.144ZM13.6841 10.144C13.6841 7.58057 13.8794 5.7251 14.4043 3.90625C14.8315 2.47803 15.6982 1.94092 17.5659 1.94092L18.2373 1.94092C24.2554 1.94092 29.7607 5.78613 29.7607 10.144C29.7607 14.4897 24.2554 18.3228 18.2373 18.3228L17.5659 18.3228C15.6738 18.3228 14.8193 17.7979 14.4043 16.3818C13.8794 14.5508 13.6841 12.7075 13.6841 10.144ZM0 3.33252C0 3.88184 0.439453 4.30908 0.976562 4.30908L10.0586 4.30908C10.2783 3.35693 10.3882 2.85645 10.5713 2.35596L0.976562 2.35596C0.439453 2.35596 0 2.80762 0 3.33252ZM0 7.86133C0 8.39844 0.45166 8.83789 0.976562 8.83789L9.5459 8.8501C9.57031 8.17871 9.61914 7.53174 9.68018 6.88477L0.976562 6.88477C0.439453 6.88477 0 7.33643 0 7.86133ZM0 12.4146C0 12.9395 0.439453 13.3667 0.976562 13.3667L9.68018 13.3667C9.61914 12.7319 9.58252 12.085 9.5459 11.4258L0.976562 11.4258C0.439453 11.4258 0 11.8774 0 12.4146ZM0 16.9434C0 17.4683 0.439453 17.8955 0.976562 17.8955L10.5591 17.9077C10.4004 17.4438 10.1807 16.5283 10.0586 15.9668L0.976562 15.9546C0.439453 15.9546 0 16.4062 0 16.9434Z" fill="#5ac8f5"/>
 </g>
</svg>
