<?xml version="1.0" encoding="UTF-8"?>
<!--Generator: Apple Native CoreSVG 175.5-->
<!DOCTYPE svg
PUBLIC "-//W3C//DTD SVG 1.1//EN"
       "http://www.w3.org/Graphics/SVG/1.1/DTD/svg11.dtd">
<svg version="1.1" xmlns="http://www.w3.org/2000/svg" xmlns:xlink="http://www.w3.org/1999/xlink" width="22.4731" height="22.4976">
 <g>
  <rect height="22.4976" opacity="0" width="22.4731" x="0" y="0"/>
  <path d="M3.83301 22.4976L18.6401 22.4976C21.2036 22.4976 22.4731 21.228 22.4731 18.7134L22.4731 3.80859C22.4731 1.29395 21.2036 0.0244141 18.6401 0.0244141L3.83301 0.0244141C1.28174 0.0244141 0 1.28174 0 3.80859L0 18.7134C0 21.2402 1.28174 22.4976 3.83301 22.4976ZM11.2671 3.40576C11.5356 3.40576 11.7432 3.52783 11.9995 3.77197L15.6494 7.39746C15.8203 7.55615 15.9058 7.78809 15.9058 8.05664C15.9058 8.56934 15.5151 8.95996 14.9902 8.95996C14.7095 8.95996 14.4897 8.8501 14.3188 8.69141L13.3789 7.73926L12.1094 6.22559L12.2192 8.88672L12.2192 13.5986L12.1094 16.2598L13.3789 14.7461L14.3188 13.7939C14.4897 13.623 14.7095 13.5254 14.9902 13.5254C15.5151 13.5254 15.9058 13.916 15.9058 14.4287C15.9058 14.6851 15.8203 14.9292 15.6494 15.0879L11.9995 18.7134C11.7432 18.9575 11.5356 19.0796 11.2671 19.0796C10.9863 19.0796 10.7666 18.9575 10.5225 18.7134L6.88477 15.0879C6.71387 14.9292 6.61621 14.6851 6.61621 14.4287C6.61621 13.916 7.01904 13.5254 7.54395 13.5254C7.82471 13.5254 8.04443 13.6108 8.22754 13.7939L9.15527 14.7461L10.4248 16.272L10.3149 13.5986L10.3149 8.88672L10.4248 6.21338L9.15527 7.73926L8.22754 8.69141C8.04443 8.8623 7.82471 8.95996 7.54395 8.95996C7.01904 8.95996 6.61621 8.56934 6.61621 8.05664C6.61621 7.78809 6.71387 7.55615 6.88477 7.39746L10.5225 3.77197C10.7666 3.52783 10.9863 3.40576 11.2671 3.40576Z" fill="#5ac8f5"/>
 </g>
</svg>
