<?xml version="1.0" encoding="UTF-8"?>
<!--Generator: Apple Native CoreSVG 175.5-->
<!DOCTYPE svg
PUBLIC "-//W3C//DTD SVG 1.1//EN"
       "http://www.w3.org/Graphics/SVG/1.1/DTD/svg11.dtd">
<svg version="1.1" xmlns="http://www.w3.org/2000/svg" xmlns:xlink="http://www.w3.org/1999/xlink" width="22.4731" height="22.4976">
 <g>
  <rect height="22.4976" opacity="0" width="22.4731" x="0" y="0"/>
  <path d="M3.83301 22.4976L18.6401 22.4976C21.2036 22.4976 22.4731 21.228 22.4731 18.7134L22.4731 3.80859C22.4731 1.29395 21.2036 0.0244141 18.6401 0.0244141L3.83301 0.0244141C1.28174 0.0244141 0 1.28174 0 3.80859L0 18.7134C0 21.2402 1.28174 22.4976 3.83301 22.4976ZM6.45752 18.0054C6.15234 18.0054 5.87158 17.7246 5.87158 17.4194L5.87158 6.86035C5.87158 6.32324 6.12793 5.92041 6.64062 5.68848C7.09229 5.48096 7.49512 5.37109 8.47168 5.37109C10.73 5.37109 12.1704 6.49414 14.2944 6.49414C15.332 6.49414 15.8813 6.22559 16.2476 6.22559C16.7603 6.22559 16.9556 6.49414 16.9556 6.86035L16.9556 13.0615C16.9556 13.6353 16.7114 14.0015 16.1865 14.2456C15.7227 14.4653 15.3198 14.563 14.3555 14.563C12.1826 14.563 10.7666 13.4644 8.53271 13.4644C7.76367 13.4644 7.26318 13.6108 7.03125 13.7085L7.03125 17.4194C7.03125 17.7368 6.79932 18.0054 6.45752 18.0054Z" fill="#5ac8f5"/>
 </g>
</svg>
