<?xml version="1.0" encoding="UTF-8"?>
<!--Generator: Apple Native CoreSVG 175.5-->
<!DOCTYPE svg
PUBLIC "-//W3C//DTD SVG 1.1//EN"
       "http://www.w3.org/Graphics/SVG/1.1/DTD/svg11.dtd">
<svg version="1.1" xmlns="http://www.w3.org/2000/svg" xmlns:xlink="http://www.w3.org/1999/xlink" width="31.1161" height="26.504">
 <g>
  <rect height="26.504" opacity="0" width="31.1161" x="0" y="0"/>
  <path d="M10.6205 25.6116L27.2953 25.6116C29.8344 25.6116 31.1161 24.3421 31.1161 21.8274L31.1161 10.3162C31.1161 7.80155 29.8344 6.53202 27.2953 6.53202L10.6205 6.53202C8.05704 6.53202 6.78751 7.80155 6.78751 10.3162L6.78751 21.8274C6.78751 24.3543 8.05704 25.6116 10.6205 25.6116ZM5.11515 10.3162C5.11515 6.87382 7.14152 4.87187 10.6205 4.87187L24.2314 4.87187L23.9262 3.16288C23.4867 0.684856 22.0219-0.340535 19.5072 0.0989182L3.21085 2.96757C0.696204 3.41923-0.341393 4.88407 0.0980598 7.3621L2.10001 18.7024C2.45402 20.68 3.45499 21.7176 5.11515 21.8396C5.11515 21.803 5.11515 21.7542 5.11515 21.7176Z" fill="#5ac8f5"/>
 </g>
</svg>
