<?xml version="1.0" encoding="UTF-8"?>
<!--Generator: Apple Native CoreSVG 175.5-->
<!DOCTYPE svg
PUBLIC "-//W3C//DTD SVG 1.1//EN"
       "http://www.w3.org/Graphics/SVG/1.1/DTD/svg11.dtd">
<svg version="1.1" xmlns="http://www.w3.org/2000/svg" xmlns:xlink="http://www.w3.org/1999/xlink" width="31.543" height="20.3247">
 <g>
  <rect height="20.3247" opacity="0" width="31.543" x="0" y="0"/>
  <path d="M3.61328 9.35059L3.61328 2.30713C3.61328 2.11182 3.73535 1.96533 3.91846 1.96533L14.9536 1.96533L14.9536 9.35059ZM16.5527 9.35059L16.5527 1.96533L27.6001 1.96533C27.7832 1.96533 27.9053 2.11182 27.9053 2.30713L27.9053 9.35059ZM3.61328 18.2739L3.61328 10.9497L14.9536 10.9497L14.9536 18.2739ZM16.5527 18.2739L16.5527 10.9497L27.9053 10.9497L27.9053 18.2739Z" fill="#5ac8f5" fill-opacity="0.25"/>
  <path d="M0 19.2871C0 19.8486 0.463867 20.3003 1.01318 20.3003L30.5298 20.3003C31.0913 20.3003 31.543 19.8486 31.543 19.2871C31.543 18.7256 31.0913 18.2739 30.5298 18.2739L29.8706 18.2739L29.8706 1.81885C29.8706 0.732422 29.126 0 27.9907 0L3.51562 0C2.39258 0 1.63574 0.732422 1.63574 1.81885L1.63574 18.2739L1.01318 18.2739C0.463867 18.2739 0 18.7256 0 19.2871ZM3.61328 9.35059L3.61328 2.30713C3.61328 2.11182 3.73535 1.96533 3.91846 1.96533L14.9536 1.96533L14.9536 9.35059ZM16.5527 9.35059L16.5527 1.96533L27.6001 1.96533C27.7832 1.96533 27.9053 2.11182 27.9053 2.30713L27.9053 9.35059ZM3.61328 18.2739L3.61328 10.9497L14.9536 10.9497L14.9536 18.2739ZM16.5527 18.2739L16.5527 10.9497L27.9053 10.9497L27.9053 18.2739Z" fill="#5ac8f5"/>
 </g>
</svg>
