<?xml version="1.0" encoding="UTF-8"?>
<!--Generator: Apple Native CoreSVG 175.5-->
<!DOCTYPE svg
PUBLIC "-//W3C//DTD SVG 1.1//EN"
       "http://www.w3.org/Graphics/SVG/1.1/DTD/svg11.dtd">
<svg version="1.1" xmlns="http://www.w3.org/2000/svg" xmlns:xlink="http://www.w3.org/1999/xlink" width="20.5322" height="26.1841">
 <g>
  <rect height="26.1841" opacity="0" width="20.5322" x="0" y="0"/>
  <path d="M0 22.3511C0 24.9023 1.25732 26.1719 3.78418 26.1719L16.748 26.1719C19.2749 26.1719 20.5322 24.9023 20.5322 22.3511L20.5322 3.83301C20.5322 1.29395 19.2749 0 16.748 0L3.78418 0C1.25732 0 0 1.29395 0 3.83301ZM6.16455 18.2251C5.61523 18.2251 5.16357 17.7734 5.16357 17.1997C5.16357 16.9312 5.27344 16.687 5.45654 16.4917L8.8501 13.1104L5.45654 9.7168C5.27344 9.52148 5.16357 9.27734 5.16357 9.00879C5.16357 8.44727 5.61523 8.00781 6.16455 8.00781C6.45752 8.00781 6.67725 8.11768 6.87256 8.30078L10.2783 11.6943L13.7085 8.28857C13.916 8.08105 14.1357 7.9834 14.4043 7.9834C14.9536 7.9834 15.4053 8.43506 15.4053 8.98438C15.4053 9.26514 15.332 9.48486 15.1123 9.70459L11.7065 13.1104L15.1001 16.4795C15.3076 16.6748 15.3931 16.9189 15.3931 17.1997C15.3931 17.7734 14.9414 18.2251 14.3799 18.2251C14.0991 18.2251 13.8428 18.1152 13.6597 17.9321L10.2783 14.5264L6.90918 17.9321C6.71387 18.1152 6.45752 18.2251 6.16455 18.2251Z" fill="#5ac8f5"/>
 </g>
</svg>
