<?xml version="1.0" encoding="UTF-8"?>
<!--Generator: Apple Native CoreSVG 175.5-->
<!DOCTYPE svg
PUBLIC "-//W3C//DTD SVG 1.1//EN"
       "http://www.w3.org/Graphics/SVG/1.1/DTD/svg11.dtd">
<svg version="1.1" xmlns="http://www.w3.org/2000/svg" xmlns:xlink="http://www.w3.org/1999/xlink" width="21.5088" height="19.0552">
 <g>
  <rect height="19.0552" opacity="0" width="21.5088" x="0" y="0"/>
  <path d="M0 9.30176C0 9.93652 0.439453 10.3882 1.07422 10.3882L13.4155 10.3882L16.0278 10.3027L12.0117 13.9648L9.31396 16.6992C9.10645 16.9067 9.00879 17.1997 9.00879 17.4927C9.00879 18.103 9.47266 18.5425 10.0708 18.5425C10.376 18.5425 10.6445 18.4326 10.8887 18.1885L18.9819 10.1196C19.2261 9.8877 19.3604 9.59473 19.3604 9.30176C19.3604 8.99658 19.2261 8.71582 18.9819 8.47168L10.8887 0.402832C10.6445 0.158691 10.376 0.0366211 10.0708 0.0366211C9.47266 0.0366211 9.00879 0.488281 9.00879 1.09863C9.00879 1.3916 9.10645 1.68457 9.31396 1.87988L12.0117 4.62646L16.0156 8.30078L13.4155 8.20312L1.07422 8.20312C0.439453 8.20312 0 8.65479 0 9.30176ZM19.3237 17.5415C19.3237 18.1641 19.7754 18.5913 20.4224 18.5913C21.0571 18.5913 21.5088 18.1641 21.5088 17.5415L21.5088 1.07422C21.5088 0.439453 21.0571 0 20.4224 0C19.7754 0 19.3237 0.439453 19.3237 1.07422Z" fill="#5ac8f5"/>
 </g>
</svg>
