<?xml version="1.0" encoding="UTF-8"?>
<!--Generator: Apple Native CoreSVG 175.5-->
<!DOCTYPE svg
PUBLIC "-//W3C//DTD SVG 1.1//EN"
       "http://www.w3.org/Graphics/SVG/1.1/DTD/svg11.dtd">
<svg version="1.1" xmlns="http://www.w3.org/2000/svg" xmlns:xlink="http://www.w3.org/1999/xlink" width="22.4731" height="22.4976">
 <g>
  <rect height="22.4976" opacity="0" width="22.4731" x="0" y="0"/>
  <path d="M3.83301 22.4976L18.6401 22.4976C21.2036 22.4976 22.4731 21.228 22.4731 18.7134L22.4731 3.80859C22.4731 1.29395 21.2036 0.0244141 18.6401 0.0244141L3.83301 0.0244141C1.28174 0.0244141 0 1.28174 0 3.80859L0 18.7134C0 21.2402 1.28174 22.4976 3.83301 22.4976ZM3.85742 20.5322C2.63672 20.5322 1.96533 19.8853 1.96533 18.6157L1.96533 3.90625C1.96533 2.63672 2.63672 1.98975 3.85742 1.98975L18.6157 1.98975C19.8242 1.98975 20.5078 2.63672 20.5078 3.90625L20.5078 18.6157C20.5078 19.8853 19.8242 20.5322 18.6157 20.5322Z" fill="#5ac8f5" fill-opacity="0.5"/>
  <path d="M11.2427 17.7979C14.8071 17.7979 17.7856 14.8193 17.7856 11.2549C17.7856 7.70264 14.7949 4.71191 11.2427 4.71191C7.67822 4.71191 4.71191 7.69043 4.71191 11.2549C4.71191 14.8071 7.69043 17.7979 11.2427 17.7979ZM11.2427 15.8936C8.72803 15.8936 6.61621 13.7817 6.61621 11.2549C6.61621 8.71582 8.71582 6.61621 11.2427 6.61621C13.7695 6.61621 15.8691 8.72803 15.8691 11.2549C15.8691 13.7939 13.7817 15.8936 11.2427 15.8936Z" fill="#5ac8f5"/>
 </g>
</svg>
