<?xml version="1.0" encoding="UTF-8"?>
<!--Generator: Apple Native CoreSVG 175.5-->
<!DOCTYPE svg
PUBLIC "-//W3C//DTD SVG 1.1//EN"
       "http://www.w3.org/Graphics/SVG/1.1/DTD/svg11.dtd">
<svg version="1.1" xmlns="http://www.w3.org/2000/svg" xmlns:xlink="http://www.w3.org/1999/xlink" width="24.9023" height="24.9146">
 <g>
  <rect height="24.9146" opacity="0" width="24.9023" x="0" y="0"/>
  <path d="M12.4512 24.9023C19.2627 24.9023 24.9023 19.2505 24.9023 12.4512C24.9023 5.63965 19.2505 0 12.439 0C5.63965 0 0 5.63965 0 12.4512C0 19.2505 5.65186 24.9023 12.4512 24.9023ZM12.4512 22.8271C6.68945 22.8271 2.0874 18.2129 2.0874 12.4512C2.0874 6.68945 6.67725 2.0752 12.439 2.0752C18.2007 2.0752 22.8271 6.68945 22.8271 12.4512C22.8271 18.2129 18.2129 22.8271 12.4512 22.8271Z" fill="#5ac8f5" fill-opacity="0.5"/>
  <path d="M7.33643 18.6035L14.3433 15.1855C14.7339 14.9902 15.0024 14.7217 15.1978 14.3433L18.6035 7.34863C18.9941 6.51855 18.396 5.87158 17.5415 6.29883L10.5591 9.70459C10.1807 9.87549 9.92432 10.1318 9.7168 10.5469L6.28662 17.5537C5.896 18.3594 6.53076 18.9941 7.33643 18.6035ZM12.4512 13.9526C11.6211 13.9526 10.9619 13.2812 10.9619 12.4634C10.9619 11.6333 11.6211 10.9619 12.4512 10.9619C13.2812 10.9619 13.9526 11.6333 13.9526 12.4634C13.9526 13.2812 13.2812 13.9526 12.4512 13.9526Z" fill="#5ac8f5"/>
 </g>
</svg>
