<?xml version="1.0" encoding="UTF-8"?>
<!--Generator: Apple Native CoreSVG 175.5-->
<!DOCTYPE svg
PUBLIC "-//W3C//DTD SVG 1.1//EN"
       "http://www.w3.org/Graphics/SVG/1.1/DTD/svg11.dtd">
<svg version="1.1" xmlns="http://www.w3.org/2000/svg" xmlns:xlink="http://www.w3.org/1999/xlink" width="31.9092" height="26.5991">
 <g>
  <rect height="26.5991" opacity="0" width="31.9092" x="0" y="0"/>
  <path d="M0 9.80225C0 12.9639 1.33057 15.9424 3.58887 18.0176C4.5166 18.8843 5.46875 19.4092 6.89697 19.7144C6.44531 18.3105 6.20117 16.8457 6.20117 15.3564C6.20117 12.0117 7.38525 8.92334 9.48486 6.56738C10.3027 5.67627 11.1206 4.95605 11.9873 4.39453C11.6699 4.43115 11.3159 4.44336 10.9131 4.44336C7.34863 4.44336 5.54199 3.78418 3.90625 2.55127C3.45459 2.22168 3.02734 2.27051 2.6123 2.7832C0.891113 4.76074 0 7.18994 0 9.80225ZM19.8853 26.5991C24.3164 26.5991 26.1963 26.0376 27.9663 24.3896C30.4443 22.1191 31.9092 18.8354 31.9092 15.3564C31.9092 12.5366 30.957 9.83887 29.0283 7.62939C28.5767 7.06787 28.1006 7.03125 27.6123 7.37305C25.8057 8.74023 23.7183 9.43604 19.8853 9.43604C16.0522 9.43604 13.9648 8.74023 12.1582 7.37305C11.6699 7.03125 11.2061 7.06787 10.7544 7.62939C8.81348 9.83887 7.87354 12.5366 7.87354 15.3564C7.87354 18.8354 9.32617 22.1191 11.8164 24.3896C13.5864 26.0376 15.4541 26.5991 19.8853 26.5991Z" fill="#5ac8f5" fill-opacity="0.5"/>
  <path d="M10.9131 2.91748C13.9771 2.91748 16.1377 2.29492 16.1377 1.48926C16.1377 0.683594 13.9771 0.0854492 10.9131 0.0854492C7.87354 0.0854492 5.71289 0.683594 5.71289 1.48926C5.71289 2.29492 7.87354 2.91748 10.9131 2.91748ZM19.8853 7.76367C23.2788 7.76367 25.6592 7.08008 25.6592 6.20117C25.6592 5.32227 23.2788 4.65088 19.8853 4.65088C16.4917 4.65088 14.1113 5.32227 14.1113 6.20117C14.1113 7.08008 16.4917 7.76367 19.8853 7.76367Z" fill="#5ac8f5"/>
 </g>
</svg>
