<?xml version="1.0" encoding="UTF-8"?>
<!--Generator: Apple Native CoreSVG 175.5-->
<!DOCTYPE svg
PUBLIC "-//W3C//DTD SVG 1.1//EN"
       "http://www.w3.org/Graphics/SVG/1.1/DTD/svg11.dtd">
<svg version="1.1" xmlns="http://www.w3.org/2000/svg" xmlns:xlink="http://www.w3.org/1999/xlink" width="22.4731" height="22.4976">
 <g>
  <rect height="22.4976" opacity="0" width="22.4731" x="0" y="0"/>
  <path d="M3.83301 22.4976L18.6401 22.4976C21.2036 22.4976 22.4731 21.228 22.4731 18.7134L22.4731 3.80859C22.4731 1.29395 21.2036 0.0244141 18.6401 0.0244141L3.83301 0.0244141C1.28174 0.0244141 0 1.28174 0 3.80859L0 18.7134C0 21.2402 1.28174 22.4976 3.83301 22.4976ZM3.85742 20.5322C2.63672 20.5322 1.96533 19.8853 1.96533 18.6157L1.96533 3.90625C1.96533 2.63672 2.63672 1.98975 3.85742 1.98975L18.6157 1.98975C19.8242 1.98975 20.5078 2.63672 20.5078 3.90625L20.5078 18.6157C20.5078 19.8853 19.8242 20.5322 18.6157 20.5322ZM10.9375 17.0532C13.8916 17.0532 15.4907 14.9414 15.4907 10.8521C15.4907 7.33643 13.9038 5.43213 11.1572 5.43213C8.63037 5.43213 7.00684 6.95801 7.00684 9.32617C7.00684 11.6211 8.75244 12.9272 10.6567 12.9272C12.2803 12.9272 13.2324 12.1216 13.623 11.2183L13.7207 11.2183C13.7451 13.9038 12.6099 15.5029 10.9131 15.5029C10.083 15.5029 9.50928 15.1489 9.00879 14.4653C8.80127 14.1846 8.55713 13.9771 8.17871 13.9771C7.70264 13.9771 7.36084 14.2944 7.36084 14.7705C7.36084 14.9048 7.39746 15.0391 7.44629 15.1855C7.72705 16.0278 8.88672 17.0532 10.9375 17.0532ZM11.2305 11.5479C9.85107 11.5479 8.88672 10.5835 8.88672 9.24072C8.88672 7.82471 9.82666 6.88477 11.2305 6.88477C12.5732 6.88477 13.5742 7.88574 13.5742 9.26514C13.5742 10.5835 12.5977 11.5479 11.2305 11.5479Z" fill="#5ac8f5"/>
 </g>
</svg>
