<?xml version="1.0" encoding="UTF-8"?>
<!--Generator: Apple Native CoreSVG 175.5-->
<!DOCTYPE svg
PUBLIC "-//W3C//DTD SVG 1.1//EN"
       "http://www.w3.org/Graphics/SVG/1.1/DTD/svg11.dtd">
<svg version="1.1" xmlns="http://www.w3.org/2000/svg" xmlns:xlink="http://www.w3.org/1999/xlink" width="24.9023" height="24.9146">
 <g>
  <rect height="24.9146" opacity="0" width="24.9023" x="0" y="0"/>
  <path d="M12.4512 24.9023C19.2627 24.9023 24.9023 19.2505 24.9023 12.4512C24.9023 5.63965 19.2505 0 12.439 0C5.63965 0 0 5.63965 0 12.4512C0 19.2505 5.65186 24.9023 12.4512 24.9023ZM12.4512 22.8271C6.68945 22.8271 2.0874 18.2129 2.0874 12.4512C2.0874 6.68945 6.67725 2.0752 12.439 2.0752C18.2007 2.0752 22.8271 6.68945 22.8271 12.4512C22.8271 18.2129 18.2129 22.8271 12.4512 22.8271ZM5.23682 11.0474C6.27441 10.7056 7.34863 10.5347 8.39844 10.5347C9.75342 10.5347 10.7544 10.7544 12.0605 10.7544C13.4521 10.7544 14.3555 9.79004 14.3555 8.54492C14.3555 7.26318 13.3545 6.34766 12.1582 6.34766C11.2427 6.34766 10.4492 6.90918 10.1318 7.66602C9.99756 7.95898 10.0586 8.34961 10.4004 8.5083C10.6934 8.65479 11.0596 8.54492 11.2427 8.17871C11.4014 7.83691 11.731 7.58057 12.1582 7.58057C12.6953 7.58057 13.1104 7.92236 13.1104 8.54492C13.1104 9.15527 12.7197 9.52148 12.0605 9.52148C10.8276 9.52148 9.82666 9.28955 8.39844 9.28955C7.18994 9.28955 5.95703 9.52148 4.8584 9.87549C4.45557 9.98535 4.30908 10.3271 4.41895 10.6567C4.50439 10.9863 4.84619 11.1816 5.23682 11.0474ZM16.7358 14.5142C18.5425 14.5142 19.8242 13.3545 19.8242 11.7432C19.8242 10.1685 18.6035 9.00879 17.0898 9.00879C15.686 9.00879 14.624 9.98535 14.4531 11.2793C14.3799 11.6699 14.624 11.9873 14.9536 12.0239C15.2954 12.0728 15.6006 11.8652 15.686 11.438C15.7959 10.73 16.3574 10.2539 17.0898 10.2539C17.9321 10.2539 18.5791 10.8398 18.5791 11.7432C18.5791 12.6709 17.8833 13.2568 16.7358 13.2568C14.5264 13.2568 12.0972 11.9751 9.10645 11.9751C7.58057 11.9751 6.16455 12.2437 4.84619 12.6953C4.46777 12.8296 4.30908 13.1714 4.41895 13.4888C4.50439 13.8184 4.84619 14.0137 5.24902 13.8794C6.43311 13.4277 7.65381 13.2202 9.10645 13.2202C12.0239 13.2202 14.2212 14.5142 16.7358 14.5142ZM12.0605 19.7021C13.269 19.7021 14.2212 18.7988 14.2212 17.5171C14.2212 15.6738 12.3535 14.6606 9.021 14.6606C7.6416 14.6606 6.11572 14.9292 4.83398 15.3687C4.47998 15.5151 4.29688 15.8447 4.41895 16.1499C4.50439 16.4795 4.84619 16.6992 5.24902 16.5649C6.40869 16.1377 7.69043 15.8936 9.021 15.8936C11.6699 15.8936 12.9761 16.5283 12.9761 17.5171C12.9761 18.1274 12.5854 18.457 12.0605 18.457C11.5356 18.457 11.2549 18.1519 11.1572 17.5659C11.1084 17.2485 10.8521 16.9434 10.4614 16.98C10.022 17.0044 9.85107 17.395 9.8999 17.749C10.0342 18.8232 10.8521 19.7021 12.0605 19.7021ZM17.0898 8.10547C17.2852 8.10547 17.4194 7.92236 17.4072 7.72705L17.3706 6.99463L17.9688 7.40967C18.1274 7.51953 18.3594 7.4707 18.457 7.31201C18.5791 7.16553 18.5181 6.90918 18.2983 6.81152L17.6514 6.49414L18.2983 6.15234C18.5059 6.04248 18.5547 5.84717 18.4692 5.67627C18.3838 5.50537 18.1274 5.46875 17.9688 5.56641L17.3706 5.99365L17.4072 5.27344C17.4194 5.05371 17.2852 4.88281 17.0898 4.88281C16.8701 4.88281 16.7236 5.05371 16.7358 5.26123L16.7847 5.99365L16.1621 5.56641C16.0034 5.46875 15.7837 5.49316 15.6982 5.67627C15.6006 5.82275 15.6372 6.04248 15.8447 6.16455L16.4917 6.49414L15.8447 6.81152C15.625 6.90918 15.6006 7.14111 15.6738 7.2998C15.7593 7.48291 16.0034 7.51953 16.1621 7.40967L16.7847 6.99463L16.748 7.72705C16.7358 7.92236 16.8701 8.10547 17.0898 8.10547ZM16.8457 18.0176C16.9678 18.0176 17.0654 17.8955 17.0532 17.7734L17.0288 17.4438L17.2974 17.6514C17.3828 17.7246 17.5659 17.6758 17.6147 17.5903C17.7002 17.4927 17.6758 17.2974 17.5293 17.2363L17.2119 17.1021L17.5293 16.9434C17.6636 16.8701 17.6758 16.7358 17.627 16.6382C17.5781 16.5161 17.395 16.4795 17.2974 16.5405L17.0288 16.7725L17.0532 16.4307C17.0654 16.2842 16.9678 16.1865 16.8457 16.1865C16.6992 16.1865 16.5894 16.2842 16.6016 16.4185L16.6382 16.7725L16.3452 16.5405C16.2598 16.4795 16.1011 16.5039 16.04 16.6382C15.9912 16.7114 15.979 16.8701 16.1377 16.9556L16.4429 17.1021L16.1377 17.2363C15.979 17.3096 15.9912 17.4683 16.0278 17.5659C16.0645 17.688 16.2598 17.7246 16.3452 17.6514L16.6382 17.4438L16.6138 17.7734C16.6016 17.8955 16.6992 18.0176 16.8457 18.0176Z" fill="#5ac8f5"/>
 </g>
</svg>
