<?xml version="1.0" encoding="UTF-8"?>
<!--Generator: Apple Native CoreSVG 175.5-->
<!DOCTYPE svg
PUBLIC "-//W3C//DTD SVG 1.1//EN"
       "http://www.w3.org/Graphics/SVG/1.1/DTD/svg11.dtd">
<svg version="1.1" xmlns="http://www.w3.org/2000/svg" xmlns:xlink="http://www.w3.org/1999/xlink" width="22.4731" height="22.4976">
 <g>
  <rect height="22.4976" opacity="0" width="22.4731" x="0" y="0"/>
  <path d="M3.83301 22.4976L18.6401 22.4976C21.2036 22.4976 22.4731 21.228 22.4731 18.7134L22.4731 3.80859C22.4731 1.29395 21.2036 0.0244141 18.6401 0.0244141L3.83301 0.0244141C1.28174 0.0244141 0 1.28174 0 3.80859L0 18.7134C0 21.2402 1.28174 22.4976 3.83301 22.4976ZM4.66309 16.3818C4.21143 16.3818 3.91846 16.0889 3.91846 15.6372C3.91846 15.3809 4.00391 15.1611 4.19922 14.9536L7.51953 11.0474C8.11768 10.3516 8.77686 9.64355 8.77686 8.82568C8.77686 7.89795 8.11768 7.27539 7.10449 7.27539C6.21338 7.27539 5.57861 7.72705 5.26123 8.6792C5.09033 9.05762 4.90723 9.26514 4.54102 9.26514C4.10156 9.26514 3.83301 8.95996 3.83301 8.5083C3.83301 8.36182 3.85742 8.21533 3.88184 8.05664C4.21143 6.7749 5.54199 5.81055 7.04346 5.81055C9.021 5.81055 10.3027 6.93359 10.3027 8.69141C10.3027 9.94873 9.60693 10.8521 8.6792 11.9385L6.22559 14.7949L6.22559 14.8926L9.87549 14.8926C10.2661 14.8926 10.5713 15.1489 10.5713 15.625C10.5713 16.0767 10.2661 16.3818 9.87549 16.3818ZM15.4053 16.6748C13.8306 16.6748 12.5854 15.8447 12.207 14.7949C12.1338 14.624 12.085 14.4287 12.085 14.2212C12.085 13.8062 12.3779 13.4888 12.8052 13.4888C13.0981 13.4888 13.3423 13.6719 13.5254 14.0381C13.8916 14.7949 14.624 15.2466 15.4907 15.2466C16.6992 15.2466 17.5293 14.4531 17.5293 13.1348C17.5293 11.9751 16.7725 11.0962 15.6738 11.0962C15.1123 11.0962 14.7217 11.2793 14.1968 11.731C13.8062 12.0605 13.562 12.1704 13.1714 12.1704C12.5977 12.1704 12.2437 11.731 12.2925 11.0718L12.5977 7.15332C12.6465 6.48193 13.0737 6.0791 13.7451 6.0791L18.0664 6.0791C18.4326 6.0791 18.689 6.38428 18.689 6.78711C18.689 7.20215 18.4204 7.49512 18.0664 7.49512L13.9038 7.49512L13.6719 10.73L13.7207 10.73C14.0991 10.1562 15.0024 9.74121 15.8447 9.74121C17.7856 9.74121 19.104 11.1572 19.104 13.0981C19.104 15.3076 17.6147 16.6748 15.4053 16.6748Z" fill="#5ac8f5"/>
 </g>
</svg>
