<?xml version="1.0" encoding="UTF-8"?>
<!--Generator: Apple Native CoreSVG 175.5-->
<!DOCTYPE svg
PUBLIC "-//W3C//DTD SVG 1.1//EN"
       "http://www.w3.org/Graphics/SVG/1.1/DTD/svg11.dtd">
<svg version="1.1" xmlns="http://www.w3.org/2000/svg" xmlns:xlink="http://www.w3.org/1999/xlink" width="26.6113" height="25.4487">
 <g>
  <rect height="25.4487" opacity="0" width="26.6113" x="0" y="0"/>
  <path d="M12.4512 25.1694C15.21 25.1694 17.7856 24.2295 19.8608 22.667L19.8608 20.5185C19.8608 20.3232 19.8608 20.1279 19.8608 19.9326C18.9697 20.8603 17.8711 21.6416 16.6382 22.2031C15.979 22.5205 15.5151 22.1055 15.5029 21.4829C15.4419 19.4199 16.3208 17.5278 17.7368 16.2095C17.5781 15.7456 17.4927 15.2573 17.4927 14.7446C17.4927 11.7783 19.8975 9.37353 22.8882 9.37353C23.4619 9.37353 23.999 9.47118 24.4995 9.6787C23.1201 4.31982 18.1885 0.267083 12.439 0.267083C5.62744 0.267083 0 5.90673 0 12.7183C0 19.5176 5.63965 25.1694 12.4512 25.1694ZM3.85742 6.96874C5.65186 4.18554 8.81348 2.34228 12.4268 2.34228C16.0278 2.34228 19.1895 4.18554 20.9961 6.95654C21.4844 7.65234 21.2524 8.43359 20.4224 8.43359L4.43115 8.43359C3.61328 8.43359 3.36914 7.65234 3.85742 6.96874ZM12.4268 16.0386C10.9253 16.0386 9.7168 14.8301 9.7168 13.3164C9.7168 11.8271 10.9253 10.6186 12.4268 10.6186C13.9282 10.6186 15.1367 11.8271 15.1367 13.3164C15.1367 14.8301 13.9282 16.0386 12.4268 16.0386ZM2.4292 15.4404C2.22168 14.6836 2.64893 14.3418 3.28369 14.4272C6.7749 14.8301 9.48486 17.894 9.36279 21.4829C9.36279 22.1055 8.88672 22.5205 8.23975 22.2031C5.34668 20.9092 3.23486 18.4434 2.4292 15.4404Z" fill="#5ac8f5" fill-opacity="0.5"/>
  <path d="M22.8882 11.0337C20.813 11.0337 19.165 12.6938 19.165 14.7446C19.165 16.3315 20.0928 17.6743 21.5332 18.2358L21.5332 23.9976C21.5332 24.1562 21.5942 24.2539 21.7041 24.376L22.6807 25.3525C22.7905 25.4746 22.9614 25.4868 23.0835 25.3525L24.939 23.5093C25.061 23.3872 25.061 23.2163 24.939 23.0942L23.7915 21.9468L25.3906 20.3843C25.4883 20.2744 25.4883 20.1035 25.354 19.9692L23.7915 18.4067C25.5859 17.6865 26.6113 16.3682 26.6113 14.7446C26.6113 12.706 24.939 11.0337 22.8882 11.0337ZM22.876 12.4497C23.5107 12.4497 24.0234 12.9746 24.0234 13.5972C24.0234 14.2441 23.5107 14.7568 22.876 14.7568C22.2412 14.7568 21.7285 14.2441 21.7285 13.5972C21.7285 12.9746 22.229 12.4497 22.876 12.4497Z" fill="#5ac8f5"/>
 </g>
</svg>
