<?xml version="1.0" encoding="UTF-8"?>
<!--Generator: Apple Native CoreSVG 175.5-->
<!DOCTYPE svg
PUBLIC "-//W3C//DTD SVG 1.1//EN"
       "http://www.w3.org/Graphics/SVG/1.1/DTD/svg11.dtd">
<svg version="1.1" xmlns="http://www.w3.org/2000/svg" xmlns:xlink="http://www.w3.org/1999/xlink" width="22.4731" height="22.4976">
 <g>
  <rect height="22.4976" opacity="0" width="22.4731" x="0" y="0"/>
  <path d="M3.83301 22.4976L18.6401 22.4976C21.2036 22.4976 22.4731 21.228 22.4731 18.7134L22.4731 3.80859C22.4731 1.29395 21.2036 0.0244141 18.6401 0.0244141L3.83301 0.0244141C1.28174 0.0244141 0 1.28174 0 3.80859L0 18.7134C0 21.2402 1.28174 22.4976 3.83301 22.4976ZM3.85742 20.5322C2.63672 20.5322 1.96533 19.8853 1.96533 18.6157L1.96533 3.90625C1.96533 2.63672 2.63672 1.98975 3.85742 1.98975L18.6157 1.98975C19.8242 1.98975 20.5078 2.63672 20.5078 3.90625L20.5078 18.6157C20.5078 19.8853 19.8242 20.5322 18.6157 20.5322ZM6.604 17.8101C6.93359 17.8101 7.16553 17.5537 7.16553 17.2485L7.16553 13.6475C7.38525 13.5498 7.87354 13.4033 8.61816 13.4033C10.791 13.4033 12.1582 14.4775 14.27 14.4775C15.1978 14.4775 15.5884 14.3799 16.04 14.1602C16.5527 13.9282 16.7847 13.5742 16.7847 13.0249L16.7847 7.00684C16.7847 6.65283 16.6016 6.39648 16.1011 6.39648C15.7471 6.39648 15.21 6.65283 14.209 6.65283C12.146 6.65283 10.7544 5.56641 8.55713 5.56641C7.61719 5.56641 7.22656 5.67627 6.78711 5.87158C6.28662 6.09131 6.04248 6.48193 6.04248 7.00684L6.04248 17.2485C6.04248 17.5415 6.29883 17.8101 6.604 17.8101Z" fill="#5ac8f5"/>
 </g>
</svg>
