<?xml version="1.0" encoding="UTF-8"?>
<!--Generator: Apple Native CoreSVG 175.5-->
<!DOCTYPE svg
PUBLIC "-//W3C//DTD SVG 1.1//EN"
       "http://www.w3.org/Graphics/SVG/1.1/DTD/svg11.dtd">
<svg version="1.1" xmlns="http://www.w3.org/2000/svg" xmlns:xlink="http://www.w3.org/1999/xlink" width="24.9023" height="24.9146">
 <g>
  <rect height="24.9146" opacity="0" width="24.9023" x="0" y="0"/>
  <path d="M12.4512 24.9146C19.2627 24.9146 24.9023 19.2749 24.9023 12.4634C24.9023 5.66406 19.2505 0.012207 12.439 0.012207C5.63965 0.012207 0 5.66406 0 12.4634C0 19.2749 5.65186 24.9146 12.4512 24.9146Z" fill="#5ac8f5" fill-opacity="0.25"/>
  <path d="M7.12891 15.5762C7.12891 13.1226 8.30078 12.2192 8.30078 10.6934C8.30078 10.376 8.25195 9.96094 8.25195 9.79004C8.25195 9.48486 8.43506 9.27734 8.71582 9.27734C9.32617 9.27734 10.0342 9.79004 10.4126 10.5591C10.4614 10.4004 10.4858 10.2539 10.4858 10.083C10.4736 8.74023 9.64355 7.59277 8.8501 6.62842C8.71582 6.46973 8.64258 6.28662 8.64258 6.11572C8.64258 5.67627 9.04541 5.44434 9.68018 5.44434C13.2935 5.44434 18.5059 7.99561 18.5059 14.1235C18.5059 17.7856 16.1011 20.2393 12.4878 20.2393C9.25293 20.2393 7.12891 18.3838 7.12891 15.5762ZM10.5103 16.394C10.5103 17.5415 11.377 18.3228 12.6587 18.3228C14.2822 18.3228 15.0635 17.1265 15.0635 15.7593C15.0635 14.4409 14.3066 12.9395 12.793 12.2437C12.7319 12.2192 12.6953 12.2437 12.7075 12.3413C12.8174 13.4277 12.6587 14.4775 12.2925 14.9658C12.0972 14.563 11.9141 14.209 11.5967 13.9526C11.5479 13.8916 11.499 13.916 11.499 14.0015C11.377 14.7583 10.5103 15.1855 10.5103 16.394Z" fill="#5ac8f5"/>
 </g>
</svg>
