<?xml version="1.0" encoding="UTF-8"?>
<!--Generator: Apple Native CoreSVG 175.5-->
<!DOCTYPE svg
PUBLIC "-//W3C//DTD SVG 1.1//EN"
       "http://www.w3.org/Graphics/SVG/1.1/DTD/svg11.dtd">
<svg version="1.1" xmlns="http://www.w3.org/2000/svg" xmlns:xlink="http://www.w3.org/1999/xlink" width="22.4731" height="22.4976">
 <g>
  <rect height="22.4976" opacity="0" width="22.4731" x="0" y="0"/>
  <path d="M3.83301 22.4976L18.6401 22.4976C21.2036 22.4976 22.4731 21.228 22.4731 18.7134L22.4731 3.80859C22.4731 1.29395 21.2036 0.0244141 18.6401 0.0244141L3.83301 0.0244141C1.28174 0.0244141 0 1.28174 0 3.80859L0 18.7134C0 21.2402 1.28174 22.4976 3.83301 22.4976Z" fill="#5ac8f5" fill-opacity="0.25"/>
  <path d="M11.2549 17.1021C11.0596 17.1021 10.9131 17.0288 10.6323 16.7358L8.94775 15.1123C8.81348 14.978 8.77686 14.7949 8.87451 14.6484C9.39941 13.9282 10.3271 13.4521 11.2549 13.4521C12.1704 13.4521 13.0981 13.916 13.5986 14.5874C13.7329 14.7461 13.7085 14.978 13.562 15.1123L11.8896 16.7358C11.5845 17.041 11.4502 17.1021 11.2549 17.1021Z" fill="#5ac8f5"/>
  <path d="M7.14111 13.3057L6.0791 12.2314C5.93262 12.0728 5.9082 11.8652 6.04248 11.7065C7.18994 10.3149 9.19189 9.42383 11.2549 9.42383C13.3057 9.42383 15.3198 10.3149 16.4551 11.7065C16.6016 11.853 16.5894 12.085 16.4307 12.2314L15.3687 13.3057C15.1733 13.501 14.9292 13.501 14.7339 13.2935C13.8672 12.3291 12.5244 11.7188 11.2549 11.7432C9.96094 11.7188 8.64258 12.3291 7.78809 13.2812C7.58057 13.5132 7.33643 13.501 7.14111 13.3057Z" fill="#5ac8f5"/>
  <path d="M4.27246 10.4248L3.33252 9.46045C3.17383 9.30176 3.14941 9.09424 3.28369 8.91113C4.99268 6.81152 8.14209 5.41992 11.2549 5.41992C14.3555 5.41992 17.5049 6.81152 19.2139 8.91113C19.3604 9.09424 19.3359 9.30176 19.1772 9.46045L18.2373 10.4126C18.0542 10.5957 17.7979 10.6079 17.6147 10.4248C15.979 8.64258 13.7451 7.71484 11.2549 7.71484C8.76465 7.71484 6.55518 8.65479 4.90723 10.4126C4.71191 10.6201 4.43115 10.6201 4.27246 10.4248Z" fill="#5ac8f5"/>
 </g>
</svg>
