<?xml version="1.0" encoding="UTF-8"?>
<!--Generator: Apple Native CoreSVG 175.5-->
<!DOCTYPE svg
PUBLIC "-//W3C//DTD SVG 1.1//EN"
       "http://www.w3.org/Graphics/SVG/1.1/DTD/svg11.dtd">
<svg version="1.1" xmlns="http://www.w3.org/2000/svg" xmlns:xlink="http://www.w3.org/1999/xlink" width="24.9023" height="24.9146">
 <g>
  <rect height="24.9146" opacity="0" width="24.9023" x="0" y="0"/>
  <path d="M12.4512 24.9146C19.2627 24.9146 24.9023 19.2749 24.9023 12.4634C24.9023 5.66406 19.2505 0.012207 12.439 0.012207C5.63965 0.012207 0 5.66406 0 12.4634C0 19.2749 5.65186 24.9146 12.4512 24.9146Z" fill="#5ac8f5" fill-opacity="0.25"/>
  <path d="M9.14307 19.1162C7.87354 19.1162 7.22656 18.4692 7.22656 17.1753L7.22656 7.80029C7.22656 6.46973 7.87354 5.82275 9.15527 5.82275L15.7227 5.82275C17.0166 5.82275 17.6636 6.48193 17.6636 7.80029L17.6636 14.8804C17.6636 15.4785 17.3828 15.8081 17.1387 16.0522C16.394 16.7847 16.5405 17.7734 17.3096 18.0908C17.5049 18.1519 17.6636 18.3716 17.6636 18.5913C17.6636 18.8843 17.4194 19.1162 17.1387 19.1162ZM9.2041 18.0664L15.8203 18.0664C15.5396 17.5293 15.5029 16.8945 15.7471 16.272C15.6982 16.2842 15.6494 16.2842 15.5884 16.2842L9.25293 16.2842C8.66699 16.2842 8.27637 16.6382 8.27637 17.1631C8.27637 17.7368 8.60596 18.0664 9.2041 18.0664ZM9.00879 15.2466C9.22852 15.2466 9.41162 15.0879 9.41162 14.8682L9.41162 7.26318C9.41162 7.05566 9.22852 6.87256 9.00879 6.87256C8.80127 6.87256 8.64258 7.04346 8.64258 7.26318L8.64258 14.8682C8.64258 15.0879 8.80127 15.2466 9.00879 15.2466Z" fill="#5ac8f5"/>
 </g>
</svg>
