<?xml version="1.0" encoding="UTF-8"?>
<!--Generator: Apple Native CoreSVG 175.5-->
<!DOCTYPE svg
PUBLIC "-//W3C//DTD SVG 1.1//EN"
       "http://www.w3.org/Graphics/SVG/1.1/DTD/svg11.dtd">
<svg version="1.1" xmlns="http://www.w3.org/2000/svg" xmlns:xlink="http://www.w3.org/1999/xlink" width="24.9023" height="24.9146">
 <g>
  <rect height="24.9146" opacity="0" width="24.9023" x="0" y="0"/>
  <path d="M12.4512 24.9023C19.2627 24.9023 24.9023 19.2505 24.9023 12.4512C24.9023 5.63965 19.2505 0 12.439 0C5.63965 0 0 5.63965 0 12.4512C0 19.2505 5.65186 24.9023 12.4512 24.9023ZM12.4512 22.8271C6.68945 22.8271 2.0874 18.2129 2.0874 12.4512C2.0874 6.68945 6.67725 2.0752 12.439 2.0752C18.2007 2.0752 22.8271 6.68945 22.8271 12.4512C22.8271 18.2129 18.2129 22.8271 12.4512 22.8271Z" fill="#5ac8f5" fill-opacity="0.5"/>
  <path d="M10.5347 19.873L14.3433 19.873C16.4917 19.873 17.5537 18.7866 17.5415 16.6016C17.5049 14.0991 17.4927 12.2803 17.4316 10.9375C17.2607 6.93359 16.1377 5.77393 12.439 5.77393C8.74023 5.77393 7.62939 6.93359 7.44629 10.9375C7.38525 12.2803 7.37305 14.0991 7.33643 16.6016C7.32422 18.7866 8.38623 19.873 10.5347 19.873ZM10.376 17.4072C9.83887 17.4072 9.49707 17.0654 9.49707 16.5405L9.49707 13.3423C9.49707 12.8174 9.83887 12.4634 10.376 12.4634L14.5142 12.4634C15.0513 12.4634 15.3809 12.8174 15.3809 13.3423L15.3809 16.5405C15.3809 17.0654 15.0513 17.4072 14.5142 17.4072ZM9.49707 14.9048L15.3809 14.9048L15.3809 14.1357L9.49707 14.1357ZM12.439 4.29688C11.2427 4.29688 10.4004 5.12695 10.4004 6.23779L11.3159 6.23779C11.3159 5.65186 11.8042 5.2124 12.439 5.2124C13.0737 5.2124 13.562 5.65186 13.562 6.23779L14.4653 6.23779C14.4653 5.12695 13.6353 4.29688 12.439 4.29688Z" fill="#5ac8f5"/>
 </g>
</svg>
