<?xml version="1.0" encoding="UTF-8"?>
<!--Generator: Apple Native CoreSVG 175.5-->
<!DOCTYPE svg
PUBLIC "-//W3C//DTD SVG 1.1//EN"
       "http://www.w3.org/Graphics/SVG/1.1/DTD/svg11.dtd">
<svg version="1.1" xmlns="http://www.w3.org/2000/svg" xmlns:xlink="http://www.w3.org/1999/xlink" width="26.7349" height="24.231">
 <g>
  <rect height="24.231" opacity="0" width="26.7349" x="0" y="0"/>
  <path d="M17.7522 5.33447C19.2292 5.33447 20.4133 4.15039 20.4133 2.67334C20.4133 1.19629 19.2292 0 17.7522 0C16.2751 0 15.0788 1.19629 15.0788 2.67334C15.0788 4.15039 16.2751 5.33447 17.7522 5.33447ZM8.19405 21.3257C8.76779 21.6797 9.59786 21.4966 9.96407 20.9106L12.967 16.1011L16.2263 16.2842L14.1877 19.5435C13.7971 20.1538 13.968 20.9717 14.5905 21.3257C15.2009 21.6797 15.9821 21.5088 16.3484 20.9106L19.51 15.8569C20.0227 15.0146 19.5954 13.9526 18.4358 13.8306L13.1013 13.2324C12.5886 13.1714 12.3811 12.6221 12.6496 12.2437L14.8591 8.92334C14.9934 8.70361 15.2619 8.65479 15.4817 8.77686L23.5749 13.6475C24.1731 14.0015 24.9909 13.8184 25.3327 13.2202C25.6745 12.5977 25.4914 11.8164 24.8811 11.4502L8.88986 1.84326C8.68234 1.7334 8.46261 1.68457 8.24288 1.68457L3.11593 1.68457C2.39571 1.68457 1.82198 2.24609 1.82198 2.94189C1.82198 3.6499 2.39571 4.22363 3.11593 4.22363L7.87667 4.22363L10.1106 5.56641C10.3547 5.70068 10.4157 5.99365 10.2692 6.23779L7.49825 10.3882C5.99679 12.6099 7.2297 15.6006 10.0373 15.9424L7.77902 19.5435C7.4006 20.1538 7.5715 20.9473 8.19405 21.3257ZM3.64083 24.1943L23.0988 24.1943C24.466 24.1943 25.5769 23.9136 26.4436 23.1689C26.8098 22.8638 26.7976 22.4731 26.5901 22.2046C26.3825 21.9238 25.9553 21.814 25.5769 22.1069C24.9177 22.6318 24.2463 22.8394 23.0988 22.8394L3.64083 22.8394C2.49337 22.8394 1.82198 22.6318 1.1628 22.1069C0.808801 21.8384 0.430383 21.8994 0.210656 22.1313C-0.0578985 22.3999-0.106727 22.8271 0.283898 23.1689C1.1628 23.9136 2.27364 24.1943 3.64083 24.1943Z" fill="#5ac8f5"/>
 </g>
</svg>
