<?xml version="1.0" encoding="UTF-8"?>
<!--Generator: Apple Native CoreSVG 175.5-->
<!DOCTYPE svg
PUBLIC "-//W3C//DTD SVG 1.1//EN"
       "http://www.w3.org/Graphics/SVG/1.1/DTD/svg11.dtd">
<svg version="1.1" xmlns="http://www.w3.org/2000/svg" xmlns:xlink="http://www.w3.org/1999/xlink" width="21.4111" height="28.3569">
 <g>
  <rect height="28.3569" opacity="0" width="21.4111" x="0" y="0"/>
  <path d="M3.83301 28.3569L17.9443 28.3569C20.1294 28.3569 21.4111 27.0874 21.4111 24.5728L21.4111 10.73C21.4111 8.21533 20.1172 6.9458 17.5781 6.9458L3.83301 6.9458C1.28174 6.9458 0 8.20312 0 10.73L0 24.5728C0 27.0874 1.28174 28.3569 3.83301 28.3569ZM2.66113 4.98047L18.7378 4.98047C18.5547 3.86963 18.0298 3.25928 16.8091 3.25928L4.58984 3.25928C3.36914 3.25928 2.84424 3.86963 2.66113 4.98047ZM4.78516 1.59912L16.626 1.59912C16.5527 0.561523 15.9546 0.0244141 14.8315 0.0244141L6.56738 0.0244141C5.44434 0.0244141 4.8584 0.561523 4.78516 1.59912Z" fill="#5ac8f5" fill-opacity="0.25"/>
  <path d="M5.49316 25.5371C5.07812 25.5371 4.80957 25.2075 4.80957 24.8413C4.80957 24.646 4.88281 24.4751 5.06592 24.2798L7.38525 21.9727L9.26514 15.3564C9.32617 15.1123 9.2041 14.978 8.97217 14.9902L7.92236 15.0513L7.6416 17.0532C7.58057 17.5049 7.2876 17.7246 6.90918 17.688C6.45752 17.6636 6.23779 17.334 6.29883 16.8945L6.62842 14.3555C6.68945 13.9282 6.98242 13.6841 7.36084 13.6597L10.1318 13.4399C11.3037 13.3545 12.1094 13.7085 12.7075 14.563L13.9526 16.3208L15.7349 15.5273C16.1499 15.3564 16.4795 15.4785 16.6626 15.8325C16.8335 16.1865 16.687 16.5405 16.272 16.7114L13.9526 17.749C13.6353 17.8711 13.2935 17.7979 13.1226 17.5171L12.439 16.5405C12.2803 16.3208 12.0483 16.3574 11.9873 16.5894L11.499 18.335L14.0259 19.9829C14.3188 20.1904 14.4287 20.3735 14.4287 20.5933C14.4287 20.8252 14.3677 20.9839 14.1479 21.1548L11.792 23.1934C11.5601 23.3765 11.3525 23.4863 11.1084 23.4863C10.73 23.4863 10.4492 23.1445 10.4492 22.7905C10.4492 22.5708 10.5713 22.3633 10.7422 22.2168L12.4756 20.7397L10.6079 19.6411C10.2173 19.397 9.8877 19.5068 9.74121 19.873L8.75244 22.4609C8.64258 22.7417 8.59375 22.8149 8.38623 22.998L6.17676 25.1953C5.94482 25.4028 5.7373 25.5371 5.49316 25.5371ZM12.3413 13.1592C11.4746 13.1592 10.791 12.4634 10.791 11.6333C10.791 10.7544 11.4746 10.0708 12.3413 10.0708C13.1958 10.0708 13.9038 10.7544 13.9038 11.6333C13.9038 12.4634 13.1958 13.1592 12.3413 13.1592Z" fill="#5ac8f5"/>
 </g>
</svg>
