<?xml version="1.0" encoding="UTF-8"?>
<!--Generator: Apple Native CoreSVG 175.5-->
<!DOCTYPE svg
PUBLIC "-//W3C//DTD SVG 1.1//EN"
       "http://www.w3.org/Graphics/SVG/1.1/DTD/svg11.dtd">
<svg version="1.1" xmlns="http://www.w3.org/2000/svg" xmlns:xlink="http://www.w3.org/1999/xlink" width="27.9515" height="26.6724">
 <g>
  <rect height="26.6724" opacity="0" width="27.9515" x="0" y="0"/>
  <path d="M17.2852 0.756836L12.6099 13.6353C12.439 14.0869 12.6709 14.5874 13.1348 14.7583C13.5864 14.9292 14.0869 14.6851 14.2578 14.2456L18.9453 1.36719C19.104 0.90332 18.8721 0.402832 18.4204 0.231934C17.9565 0.0610352 17.4438 0.305176 17.2852 0.756836ZM2.44141 21.4722C3.68652 21.9238 4.90723 21.3379 5.34668 20.1294L9.26514 9.43604L8.61816 9.83887C9.33838 11.5112 10.8032 12.9272 12.8296 13.5498L13.3545 12.0728C10.9131 11.1938 9.48486 9.43604 9.42383 7.17773L8.94775 7.00684C8.74023 6.92139 8.49609 7.03125 8.42285 7.25098L3.96729 19.4702C3.78418 19.9707 3.32031 20.105 2.92969 19.9585C2.57568 19.812 2.34375 19.458 2.51465 19.0063L7.80029 4.50439C8.10547 3.6377 9.0332 3.21045 9.8877 3.51562L10.5957 3.77197C12.0972 2.01416 14.3799 1.53809 16.8701 2.44141L17.395 0.976562C14.6851-0.012207 12.0605 0.390625 10.1929 2.03857L9.97314 1.95312C8.47168 1.41602 7.01904 2.23389 6.37207 3.9917L1.07422 18.5547C0.634766 19.7754 1.2207 21.0205 2.44141 21.4722ZM3.36914 20.9106L2.09961 20.4468L0 26.2207L1.26953 26.6724ZM18.0542 13.2935C18.4448 12.9517 18.4692 12.4023 18.1396 12.0117C17.7856 11.6211 17.2363 11.6211 16.8457 11.9507C16.4795 12.3291 16.4551 12.8662 16.8091 13.2324C17.1509 13.5864 17.7002 13.6353 18.0542 13.2935ZM20.3247 15.7593C20.7031 15.4053 20.7153 14.8315 20.3613 14.4531C20.0439 14.1113 19.4824 14.0991 19.104 14.4287C18.75 14.7705 18.7256 15.332 19.043 15.6738C19.4092 16.0522 19.9585 16.0889 20.3247 15.7593ZM22.5708 18.2007C22.9126 17.8589 22.9614 17.334 22.6318 16.9434C22.29 16.5649 21.7163 16.5649 21.3623 16.9189C21.0205 17.2485 20.9595 17.7979 21.2891 18.1763C21.6309 18.5547 22.2168 18.5425 22.5708 18.2007ZM19.7998 8.81348C19.9707 8.36182 19.7144 7.84912 19.2505 7.67822C18.7866 7.50732 18.2617 7.72705 18.0908 8.20312C17.9199 8.69141 18.1519 9.22852 18.6279 9.39941C19.104 9.57031 19.6167 9.31396 19.7998 8.81348ZM22.9248 9.99756C23.0957 9.53369 22.8516 9.00879 22.3755 8.8501C21.9116 8.66699 21.4233 8.88672 21.2524 9.375C21.0815 9.83887 21.3013 10.3394 21.7773 10.5103C22.2534 10.6812 22.7539 10.4492 22.9248 9.99756ZM26.0742 11.1084C26.2451 10.6445 26.001 10.144 25.5371 9.96094C25.061 9.79004 24.5361 10.022 24.3652 10.4858C24.1943 10.9619 24.4263 11.5112 24.9023 11.6821C25.3784 11.853 25.9033 11.5845 26.0742 11.1084ZM21.3379 4.3457C21.2402 3.84521 20.8252 3.54004 20.3125 3.60107C19.7998 3.68652 19.458 4.07715 19.5312 4.57764C19.5923 5.07812 20.0317 5.40771 20.5444 5.35889C21.0571 5.28564 21.3867 4.84619 21.3379 4.3457ZM24.6338 3.90625C24.585 3.40576 24.1089 3.06396 23.6206 3.125C23.1445 3.21045 22.7783 3.6499 22.8394 4.1626C22.9126 4.61426 23.3643 4.96826 23.8647 4.91943C24.353 4.84619 24.707 4.39453 24.6338 3.90625ZM27.9419 3.479C27.8564 2.97852 27.4292 2.62451 26.9409 2.68555C26.4404 2.73438 26.0986 3.22266 26.1719 3.68652C26.2329 4.18701 26.6724 4.52881 27.1606 4.46777C27.6611 4.41895 28.0151 3.94287 27.9419 3.479Z" fill="#5ac8f5"/>
 </g>
</svg>
