<?xml version="1.0" encoding="UTF-8"?>
<!--Generator: Apple Native CoreSVG 175.5-->
<!DOCTYPE svg
PUBLIC "-//W3C//DTD SVG 1.1//EN"
       "http://www.w3.org/Graphics/SVG/1.1/DTD/svg11.dtd">
<svg version="1.1" xmlns="http://www.w3.org/2000/svg" xmlns:xlink="http://www.w3.org/1999/xlink" width="19.8853" height="27.6489">
 <g>
  <rect height="27.6489" opacity="0" width="19.8853" x="0" y="0"/>
  <path d="M0 4.88281C0 9.13086 6.54297 12.6343 6.54297 19.8242L6.54297 20.874C6.54297 21.3013 6.7749 21.5332 7.21436 21.5332L12.6709 21.5332C13.1104 21.5332 13.3423 21.3013 13.3423 20.874L13.3423 19.8242C13.3423 12.5977 19.8853 9.22852 19.8853 4.88281C19.8853 1.74561 16.2354 0 9.94873 0C3.6499 0 0 1.74561 0 4.88281ZM1.84326 4.88281C1.84326 3.18604 4.60205 1.84326 9.94873 1.84326C15.2832 1.84326 18.042 3.18604 18.042 4.88281C18.042 7.77588 11.5112 12.2803 11.5112 19.2505L11.5112 20.4834L12.5244 19.6899L7.36084 19.6899L8.37402 20.4834L8.37402 19.2505C8.37402 12.2925 1.84326 7.75146 1.84326 4.88281ZM1.2085 7.31201L18.689 7.31201L18.689 5.71289L1.2085 5.71289ZM6.9458 24.1699L12.9517 24.1699C13.3423 24.1699 13.6597 23.8647 13.6597 23.4619C13.6597 23.0591 13.3423 22.7539 12.9517 22.7539L6.9458 22.7539C6.54297 22.7539 6.22559 23.0591 6.22559 23.4619C6.22559 23.8647 6.54297 24.1699 6.9458 24.1699ZM9.94873 27.6489C11.5967 27.6489 12.7686 26.77 13.0249 25.3784L6.86035 25.3784C7.09229 26.77 8.26416 27.6489 9.94873 27.6489Z" fill="#5ac8f5"/>
 </g>
</svg>
