<?xml version="1.0" encoding="UTF-8"?>
<!--Generator: Apple Native CoreSVG 175.5-->
<!DOCTYPE svg
PUBLIC "-//W3C//DTD SVG 1.1//EN"
       "http://www.w3.org/Graphics/SVG/1.1/DTD/svg11.dtd">
<svg version="1.1" xmlns="http://www.w3.org/2000/svg" xmlns:xlink="http://www.w3.org/1999/xlink" width="12.8306" height="27.2162">
 <g>
  <rect height="27.2162" opacity="0" width="12.8306" x="0" y="0"/>
  <path d="M0.00096912 1.15083L0.232903 5.4355C0.269524 6.21675 0.5747 6.66841 1.12402 7.07124L3.77294 9.01216C4.10253 9.24409 4.28564 9.41499 4.28564 9.98872L4.28564 25.9189C4.28564 26.5781 4.82275 27.103 5.48193 27.103C6.14111 27.103 6.66601 26.5781 6.66601 25.9189L6.66601 17.3496C6.66601 17.1298 6.86132 16.9345 7.08105 16.9345C7.30077 16.9345 7.48388 17.1298 7.48388 17.3496L7.48388 25.9189C7.48388 26.5781 8.02099 27.103 8.68017 27.103C9.33935 27.103 9.86425 26.5781 9.86425 25.9189L9.86425 11.7709C9.86425 11.5512 10.0474 11.3803 10.2671 11.3803C10.4868 11.3803 10.6577 11.5512 10.6577 11.7709L10.6577 16.4707C10.6577 17.081 11.146 17.5571 11.7441 17.5571C12.3423 17.5571 12.8306 17.081 12.8306 16.4707L12.8306 11.2216C12.8306 8.52388 10.853 6.72944 7.97216 6.72944L5.4331 6.72944C4.70068 6.72944 4.24902 6.58296 3.66308 6.16792L2.39355 5.2646L2.16161 1.04097C2.1372 0.442824 1.6245-0.0454577 1.02636 0.00337044C0.416008 0.0521986-0.0234449 0.552687 0.00096912 1.15083ZM7.08105 5.36226C8.5581 5.36226 9.74218 4.17818 9.74218 2.70112C9.74218 1.22407 8.5581 0.0399915 7.08105 0.0399915C5.604 0.0399915 4.41991 1.22407 4.41991 2.70112C4.41991 4.17818 5.604 5.36226 7.08105 5.36226Z" fill="#5ac8f5"/>
 </g>
</svg>
