<?xml version="1.0" encoding="UTF-8"?>
<!--Generator: Apple Native CoreSVG 175.5-->
<!DOCTYPE svg
PUBLIC "-//W3C//DTD SVG 1.1//EN"
       "http://www.w3.org/Graphics/SVG/1.1/DTD/svg11.dtd">
<svg version="1.1" xmlns="http://www.w3.org/2000/svg" xmlns:xlink="http://www.w3.org/1999/xlink" width="24.9023" height="24.9146">
 <g>
  <rect height="24.9146" opacity="0" width="24.9023" x="0" y="0"/>
  <path d="M12.4512 24.9023C19.2627 24.9023 24.9023 19.2505 24.9023 12.4512C24.9023 5.63965 19.2505 0 12.439 0C5.63965 0 0 5.63965 0 12.4512C0 19.2505 5.65186 24.9023 12.4512 24.9023ZM3.97949 12.4512C3.97949 10.0586 5.49316 8.45947 7.73926 8.45947C8.94775 8.45947 9.96094 8.97217 11.0474 10.0098L12.4634 11.377L13.8916 10.0098C15.0024 8.93555 16.0034 8.45947 17.1875 8.45947C19.4458 8.45947 20.9595 10.0586 20.9595 12.4512C20.9595 14.8315 19.4458 16.4307 17.1875 16.4307C16.0156 16.4307 15.0146 15.9546 13.8916 14.8804L12.4634 13.5254L11.0474 14.8804C9.94873 15.9302 8.93555 16.4307 7.73926 16.4307C5.49316 16.4307 3.97949 14.8315 3.97949 12.4512ZM5.54199 12.4512C5.54199 13.9282 6.40869 14.8804 7.73926 14.8804C8.47168 14.8804 9.10645 14.5386 9.93652 13.7573L11.3525 12.4512L9.93652 11.145C9.08203 10.3394 8.45947 10.0098 7.73926 10.0098C6.40869 10.0098 5.54199 10.9741 5.54199 12.4512ZM13.5864 12.4512L14.9902 13.7573C15.8203 14.5386 16.4551 14.8804 17.1875 14.8804C18.5181 14.8804 19.397 13.9282 19.397 12.4512C19.397 10.9741 18.5181 10.0098 17.1875 10.0098C16.4795 10.0098 15.8447 10.3394 14.9902 11.145Z" fill="#5ac8f5"/>
 </g>
</svg>
