<?xml version="1.0" encoding="UTF-8"?>
<!--Generator: Apple Native CoreSVG 175.5-->
<!DOCTYPE svg
PUBLIC "-//W3C//DTD SVG 1.1//EN"
       "http://www.w3.org/Graphics/SVG/1.1/DTD/svg11.dtd">
<svg version="1.1" xmlns="http://www.w3.org/2000/svg" xmlns:xlink="http://www.w3.org/1999/xlink" width="22.4731" height="22.4976">
 <g>
  <rect height="22.4976" opacity="0" width="22.4731" x="0" y="0"/>
  <path d="M3.83301 22.4976L18.6401 22.4976C21.2036 22.4976 22.4731 21.228 22.4731 18.7134L22.4731 3.80859C22.4731 1.29395 21.2036 0.0244141 18.6401 0.0244141L3.83301 0.0244141C1.28174 0.0244141 0 1.28174 0 3.80859L0 18.7134C0 21.2402 1.28174 22.4976 3.83301 22.4976Z" fill="#5ac8f5" fill-opacity="0.25"/>
  <path d="M7.26318 17.0166C6.64062 17.0166 6.27441 16.5894 6.27441 15.8813L6.27441 6.37207C6.27441 5.66406 6.64062 5.23682 7.26318 5.23682C7.92236 5.23682 8.28857 5.65186 8.28857 6.37207L8.28857 10.1562L14.1724 10.1562L14.1724 6.37207C14.1724 5.66406 14.5508 5.23682 15.1733 5.23682C15.8325 5.23682 16.1987 5.65186 16.1987 6.37207L16.1987 15.8813C16.1987 16.6016 15.8325 17.0166 15.1733 17.0166C14.5508 17.0166 14.1724 16.5894 14.1724 15.8813L14.1724 11.7432L8.28857 11.7432L8.28857 15.8813C8.28857 16.6016 7.92236 17.0166 7.26318 17.0166Z" fill="#5ac8f5"/>
 </g>
</svg>
