<?xml version="1.0" encoding="UTF-8"?>
<!--Generator: Apple Native CoreSVG 175.5-->
<!DOCTYPE svg
PUBLIC "-//W3C//DTD SVG 1.1//EN"
       "http://www.w3.org/Graphics/SVG/1.1/DTD/svg11.dtd">
<svg version="1.1" xmlns="http://www.w3.org/2000/svg" xmlns:xlink="http://www.w3.org/1999/xlink" width="24.9023" height="24.9146">
 <g>
  <rect height="24.9146" opacity="0" width="24.9023" x="0" y="0"/>
  <path d="M12.4512 24.9023C19.2627 24.9023 24.9023 19.2505 24.9023 12.4512C24.9023 5.63965 19.2505 0 12.439 0C5.63965 0 0 5.63965 0 12.4512C0 19.2505 5.65186 24.9023 12.4512 24.9023ZM12.4512 22.8271C6.68945 22.8271 2.0874 18.2129 2.0874 12.4512C2.0874 6.68945 6.67725 2.0752 12.439 2.0752C18.2007 2.0752 22.8271 6.68945 22.8271 12.4512C22.8271 18.2129 18.2129 22.8271 12.4512 22.8271ZM10.3149 19.2871L15.2832 19.2871C15.7837 19.2871 16.1743 18.9209 16.1743 18.4204C16.1743 17.9443 15.7837 17.5659 15.2832 17.5659L13.7695 17.5659L13.7695 11.3525C13.7695 10.6934 13.4399 10.2539 12.8174 10.2539L10.5225 10.2539C10.022 10.2539 9.63135 10.6323 9.63135 11.1084C9.63135 11.6089 10.022 11.9751 10.5225 11.9751L11.8286 11.9751L11.8286 17.5659L10.3149 17.5659C9.81445 17.5659 9.42383 17.9443 9.42383 18.4204C9.42383 18.9209 9.81445 19.2871 10.3149 19.2871ZM12.3413 8.22754C13.2324 8.22754 13.9282 7.51953 13.9282 6.62842C13.9282 5.7373 13.2324 5.0293 12.3413 5.0293C11.4624 5.0293 10.7544 5.7373 10.7544 6.62842C10.7544 7.51953 11.4624 8.22754 12.3413 8.22754Z" fill="#5ac8f5"/>
 </g>
</svg>
