<?xml version="1.0" encoding="UTF-8"?>
<!--Generator: Apple Native CoreSVG 175.5-->
<!DOCTYPE svg
PUBLIC "-//W3C//DTD SVG 1.1//EN"
       "http://www.w3.org/Graphics/SVG/1.1/DTD/svg11.dtd">
<svg version="1.1" xmlns="http://www.w3.org/2000/svg" xmlns:xlink="http://www.w3.org/1999/xlink" width="22.4731" height="22.7661">
 <g>
  <rect height="22.7661" opacity="0" width="22.4731" x="0" y="0"/>
  <path d="M6.0791 13.8062C6.0791 16.9189 8.09326 18.811 10.9619 18.811C13.1226 18.811 14.5996 17.9443 15.5884 15.918C16.1255 14.8682 16.5405 13.6108 16.98 12.1582C17.1631 11.5601 17.4194 10.8154 17.4194 10.4858C17.4194 10.0952 17.1265 9.82666 16.7236 9.82666C16.2598 9.82666 15.9912 10.1074 15.6616 10.7788L14.6729 12.8662C14.5752 13.0859 14.4775 13.1592 14.3677 13.1592C14.2212 13.1592 14.1357 13.0615 14.1357 12.854L14.1357 5.41992C14.1357 4.99268 13.7817 4.63867 13.3545 4.63867C12.9272 4.63867 12.5854 4.99268 12.5854 5.41992L12.5854 10.6934C12.3901 10.6445 12.1948 10.5713 11.9873 10.5347L11.9873 4.38232C11.9873 3.96729 11.6455 3.60107 11.2061 3.60107C10.7788 3.60107 10.4248 3.96729 10.4248 4.38232L10.4248 10.4492C10.2173 10.4736 10.0098 10.498 9.80225 10.5347L9.80225 4.99268C9.80225 4.56543 9.44824 4.22363 9.021 4.22363C8.59375 4.22363 8.23975 4.56543 8.23975 4.99268L8.23975 11.0352C8.02002 11.1328 7.83691 11.2549 7.6416 11.3647L7.6416 7.21436C7.6416 6.78711 7.2876 6.4209 6.87256 6.4209C6.43311 6.4209 6.0791 6.78711 6.0791 7.21436ZM3.83301 22.7661L18.6401 22.7661C21.2036 22.7661 22.4731 21.5088 22.4731 18.9941L22.4731 4.07715C22.4731 1.5625 21.2036 0.292969 18.6401 0.292969L3.83301 0.292969C1.28174 0.292969 0 1.5625 0 4.07715L0 18.9941C0 21.5088 1.28174 22.7661 3.83301 22.7661ZM3.85742 20.8008C2.63672 20.8008 1.96533 20.1538 1.96533 18.8843L1.96533 4.18701C1.96533 2.91748 2.63672 2.2583 3.85742 2.2583L18.6157 2.2583C19.8242 2.2583 20.5078 2.91748 20.5078 4.18701L20.5078 18.8843C20.5078 20.1538 19.8242 20.8008 18.6157 20.8008Z" fill="#5ac8f5"/>
 </g>
</svg>
