<?xml version="1.0" encoding="UTF-8"?>
<!--Generator: Apple Native CoreSVG 175.5-->
<!DOCTYPE svg
PUBLIC "-//W3C//DTD SVG 1.1//EN"
       "http://www.w3.org/Graphics/SVG/1.1/DTD/svg11.dtd">
<svg version="1.1" xmlns="http://www.w3.org/2000/svg" xmlns:xlink="http://www.w3.org/1999/xlink" width="24.9023" height="24.9146">
 <g>
  <rect height="24.9146" opacity="0" width="24.9023" x="0" y="0"/>
  <path d="M12.4512 24.9023C19.2627 24.9023 24.9023 19.2505 24.9023 12.4512C24.9023 5.63965 19.2505 0 12.439 0C5.63965 0 0 5.63965 0 12.4512C0 19.2505 5.65186 24.9023 12.4512 24.9023ZM6.84814 16.8213C5.71289 16.8213 5.05371 16.1865 5.05371 15.0391L5.05371 8.63037C5.05371 7.4707 5.70068 6.82373 6.84814 6.82373L18.042 6.82373C19.2017 6.82373 19.8364 7.4707 19.8364 8.63037L19.8364 15.0391C19.8364 16.1865 19.1895 16.8213 18.042 16.8213ZM6.99463 15.2344L17.8955 15.2344C18.1641 15.2344 18.2495 15.1489 18.2495 14.8926L18.2495 8.76465C18.2495 8.5083 18.1641 8.42285 17.8955 8.42285L6.99463 8.42285C6.72607 8.42285 6.65283 8.49609 6.65283 8.76465L6.65283 14.8926C6.65283 15.1611 6.72607 15.2344 6.99463 15.2344ZM9.19189 19.3848C8.75244 19.3848 8.38623 19.0186 8.38623 18.5669C8.38623 18.1519 8.76465 17.7856 9.19189 17.7856L15.7349 17.7856C16.1499 17.7856 16.5161 18.1519 16.5161 18.5669C16.5161 19.0186 16.1621 19.3848 15.7349 19.3848Z" fill="#5ac8f5"/>
 </g>
</svg>
