<?xml version="1.0" encoding="UTF-8"?>
<!--Generator: Apple Native CoreSVG 175.5-->
<!DOCTYPE svg
PUBLIC "-//W3C//DTD SVG 1.1//EN"
       "http://www.w3.org/Graphics/SVG/1.1/DTD/svg11.dtd">
<svg version="1.1" xmlns="http://www.w3.org/2000/svg" xmlns:xlink="http://www.w3.org/1999/xlink" width="27.7832" height="28.1128">
 <g>
  <rect height="28.1128" opacity="0" width="27.7832" x="0" y="0"/>
  <path d="M2.74658 20.3857L8.27637 20.3857L8.27637 17.749C8.11768 17.7734 7.99561 17.7856 7.78809 17.7856C5.51758 17.7856 3.6377 15.9424 3.6377 13.6353C3.6377 11.3525 5.50537 9.48486 7.78809 9.48486C7.99561 9.48486 8.12988 9.50928 8.27637 9.52148L8.27637 7.50732C8.14209 7.53174 7.99561 7.54395 7.78809 7.54395C6.54297 7.54395 5.5542 6.55518 5.5542 5.31006C5.5542 4.02832 6.57959 3.08838 7.78809 3.10059C8.48389 3.11279 9.09424 3.40576 9.46045 3.84521C10.2417 3.00293 11.4136 2.38037 13.208 2.38037L15.0757 2.38037C15.0757 2.31934 15.0635 2.20947 15.0513 2.11182C14.856 0.732422 13.9404 0 12.3657 0L2.74658 0C0.939941 0 0 0.939941 0 2.74658L0 17.6147C0 19.4458 0.939941 20.3857 2.74658 20.3857ZM6.64062 5.31006C6.64062 5.96924 7.14111 6.46973 7.78809 6.46973C8.06885 6.46973 8.31299 6.35986 8.38623 6.28662C8.44727 5.7251 8.53271 5.37109 8.81348 4.8584C8.6792 4.45557 8.31299 4.15039 7.78809 4.15039C7.15332 4.15039 6.64062 4.61426 6.64062 5.31006ZM6.01807 13.6353C6.01807 14.6118 6.79932 15.4175 7.78809 15.4175C7.99561 15.4175 8.19092 15.3809 8.27637 15.3564L8.27637 11.9263C8.19092 11.9019 8.00781 11.8652 7.8125 11.8652C6.81152 11.8652 6.01807 12.6465 6.01807 13.6353ZM9.94873 7.34863L9.94873 24.8047C9.94873 27.002 11.0474 28.1006 13.208 28.1006L24.5117 28.1006C26.6968 28.1006 27.7832 27.002 27.7832 24.8047L27.7832 7.34863C27.7832 5.13916 26.6968 4.04053 24.5117 4.04053L13.208 4.04053C11.0352 4.04053 9.94873 5.13916 9.94873 7.34863ZM18.8599 24.7314C16.1621 24.7314 13.9771 22.5708 13.9771 19.8486C13.9771 17.1143 16.1621 14.9414 18.8599 14.9536C21.5698 14.9658 23.7549 17.1143 23.7549 19.8486C23.7549 22.5708 21.5698 24.7314 18.8599 24.7314ZM18.8599 12.8418C17.3584 12.8418 16.1377 11.6455 16.1377 10.1196C16.1377 8.60596 17.3584 7.40967 18.8599 7.40967C20.3735 7.42188 21.5698 8.60596 21.582 10.1196C21.6064 11.6333 20.3735 12.8418 18.8599 12.8418ZM18.8599 21.9238C20.0439 21.9238 20.9351 20.9961 20.9351 19.8486C20.9351 18.6646 20.0439 17.7612 18.8599 17.7612C17.7002 17.7612 16.7847 18.6646 16.7847 19.8486C16.7847 20.9961 17.7246 21.9238 18.8599 21.9238ZM18.8599 11.5112C19.6411 11.5112 20.2515 10.8765 20.2515 10.1196C20.2515 9.35059 19.6167 8.74023 18.8599 8.74023C18.0786 8.74023 17.4805 9.32617 17.4805 10.1196C17.4805 10.8765 18.0908 11.5112 18.8599 11.5112Z" fill="#5ac8f5"/>
 </g>
</svg>
