<?xml version="1.0" encoding="UTF-8"?>
<!--Generator: Apple Native CoreSVG 175.5-->
<!DOCTYPE svg
PUBLIC "-//W3C//DTD SVG 1.1//EN"
       "http://www.w3.org/Graphics/SVG/1.1/DTD/svg11.dtd">
<svg version="1.1" xmlns="http://www.w3.org/2000/svg" xmlns:xlink="http://www.w3.org/1999/xlink" width="22.4731" height="22.4976">
 <g>
  <rect height="22.4976" opacity="0" width="22.4731" x="0" y="0"/>
  <path d="M3.83301 22.4976L18.6401 22.4976C21.2036 22.4976 22.4731 21.228 22.4731 18.7134L22.4731 3.80859C22.4731 1.29395 21.2036 0.0244141 18.6401 0.0244141L3.83301 0.0244141C1.28174 0.0244141 0 1.28174 0 3.80859L0 18.7134C0 21.2402 1.28174 22.4976 3.83301 22.4976ZM7.10449 17.1387C6.54297 17.1387 6.16455 16.7847 6.16455 16.272C6.16455 16.0767 6.20117 15.8936 6.29883 15.6128L9.82666 6.11572C10.083 5.45654 10.5469 5.11475 11.2305 5.11475C11.9263 5.11475 12.4023 5.45654 12.6587 6.11572L16.1865 15.6128C16.2842 15.8936 16.3208 16.0767 16.3208 16.272C16.3208 16.7847 15.9424 17.1387 15.3809 17.1387C14.9292 17.1387 14.5996 16.9189 14.4043 16.333L13.4888 13.6597L8.99658 13.6597L8.08105 16.333C7.88574 16.9312 7.55615 17.1387 7.10449 17.1387ZM9.49707 12.1338L12.9883 12.1338L11.3037 7.27539L11.1816 7.27539Z" fill="#5ac8f5"/>
 </g>
</svg>
