<?xml version="1.0" encoding="UTF-8"?>
<!--Generator: Apple Native CoreSVG 175.5-->
<!DOCTYPE svg
PUBLIC "-//W3C//DTD SVG 1.1//EN"
       "http://www.w3.org/Graphics/SVG/1.1/DTD/svg11.dtd">
<svg version="1.1" xmlns="http://www.w3.org/2000/svg" xmlns:xlink="http://www.w3.org/1999/xlink" width="22.2168" height="22.229">
 <g>
  <rect height="22.229" opacity="0" width="22.2168" x="0" y="0"/>
  <path d="M20.7886 1.44043C19.5435 0.195312 17.7856 0 15.6982 0L6.48193 0C4.43115 0 2.67334 0.195312 1.42822 1.44043C0.183105 2.68555 0 4.43115 0 6.46973L0 15.6982C0 17.7856 0.183105 19.519 1.42822 20.7642C2.67334 22.0093 4.43115 22.2046 6.50635 22.2046L15.6982 22.2046C17.7856 22.2046 19.5435 22.0093 20.7886 20.7642C22.0337 19.519 22.2168 17.7856 22.2168 15.6982L22.2168 6.50635C22.2168 4.41895 22.0337 2.67334 20.7886 1.44043Z" fill="#5ac8f5" fill-opacity="0.25"/>
  <path d="M5.15137 11.1206C5.15137 10.4858 5.59082 10.0464 6.23779 10.0464L10.0586 10.0464L10.0586 6.22559C10.0586 5.59082 10.4736 5.13916 11.0962 5.13916C11.731 5.13916 12.1704 5.59082 12.1704 6.22559L12.1704 10.0464L16.0034 10.0464C16.626 10.0464 17.0776 10.4858 17.0776 11.1206C17.0776 11.7432 16.626 12.1582 16.0034 12.1582L12.1704 12.1582L12.1704 15.9912C12.1704 16.626 11.731 17.0654 11.0962 17.0654C10.4736 17.0654 10.0586 16.6138 10.0586 15.9912L10.0586 12.1582L6.23779 12.1582C5.60303 12.1582 5.15137 11.7432 5.15137 11.1206Z" fill="#5ac8f5"/>
 </g>
</svg>
