<?xml version="1.0" encoding="UTF-8"?>
<!--Generator: Apple Native CoreSVG 175.5-->
<!DOCTYPE svg
PUBLIC "-//W3C//DTD SVG 1.1//EN"
       "http://www.w3.org/Graphics/SVG/1.1/DTD/svg11.dtd">
<svg version="1.1" xmlns="http://www.w3.org/2000/svg" xmlns:xlink="http://www.w3.org/1999/xlink" width="28.8116" height="30.3833">
 <g>
  <rect height="30.3833" opacity="0" width="28.8116" x="0" y="0"/>
  <path d="M23.8739 28.0518C23.6542 28.2715 23.3246 28.4058 22.8851 28.4058L11.5692 28.4058C10.2997 28.4058 9.65271 27.71 9.65271 26.5137L9.65271 13.8428L7.68738 11.8774L7.68738 26.5381C7.68738 29.0894 8.95691 30.3711 11.4716 30.3711L22.9828 30.3711C24.0448 30.3711 24.8627 30.127 25.4364 29.6387ZM2.03552 6.22559L2.03552 20.3735C2.03552 22.9248 3.30505 24.2065 5.8197 24.2065L8.48083 24.2065L8.48083 22.2412L5.91736 22.2412C4.64783 22.2412 4.00085 21.5454 4.00085 20.3491L4.00085 8.19092ZM4.90417 2.33154C5.1239 2.09961 5.4657 1.96533 5.91736 1.96533L17.2333 1.96533C18.5028 1.96533 19.1498 2.64893 19.1498 3.86963L19.1498 6.86035L21.1151 6.86035L21.1151 3.83301C21.1151 1.28174 19.8578 0 17.3309 0L5.8197 0C4.74548 0 3.91541 0.256348 3.32947 0.756836ZM26.767 24.1699L26.767 9.86328C26.767 7.31201 25.5096 6.03027 22.9828 6.03027L11.4716 6.03027C10.5194 6.03027 9.76257 6.22559 9.20105 6.61621L10.8124 8.22754C10.9833 8.08105 11.2396 7.99561 11.5692 7.99561L22.8851 7.99561C24.1547 7.99561 24.8016 8.6792 24.8016 9.8999L24.8016 22.2168ZM27.2064 29.3457C27.5726 29.7119 28.183 29.7119 28.537 29.3457C28.9032 28.9673 28.9032 28.3813 28.537 28.0151L1.60828 1.06201C1.24207 0.708008 0.643921 0.695801 0.265503 1.06201C-0.088501 1.42822-0.088501 2.03857 0.265503 2.39258Z" fill="#5ac8f5"/>
 </g>
</svg>
