<?xml version="1.0" encoding="UTF-8"?>
<!--Generator: Apple Native CoreSVG 175.5-->
<!DOCTYPE svg
PUBLIC "-//W3C//DTD SVG 1.1//EN"
       "http://www.w3.org/Graphics/SVG/1.1/DTD/svg11.dtd">
<svg version="1.1" xmlns="http://www.w3.org/2000/svg" xmlns:xlink="http://www.w3.org/1999/xlink" width="24.9023" height="24.9146">
 <g>
  <rect height="24.9146" opacity="0" width="24.9023" x="0" y="0"/>
  <path d="M12.4512 24.9023C19.2627 24.9023 24.9023 19.2505 24.9023 12.4512C24.9023 5.63965 19.2505 0 12.439 0C5.63965 0 0 5.63965 0 12.4512C0 19.2505 5.65186 24.9023 12.4512 24.9023ZM12.4512 22.8271C6.68945 22.8271 2.0874 18.2129 2.0874 12.4512C2.0874 6.68945 6.67725 2.0752 12.439 2.0752C18.2007 2.0752 22.8271 6.68945 22.8271 12.4512C22.8271 18.2129 18.2129 22.8271 12.4512 22.8271Z" fill="#5ac8f5" fill-opacity="0.5"/>
  <path d="M9.28955 19.6411L15.6006 19.6411C16.4185 19.6411 16.9189 19.1772 16.9556 18.3594L17.3706 8.70361L18.335 8.70361C18.6279 8.70361 18.8477 8.47168 18.8599 8.19092C18.8721 7.89795 18.6279 7.66602 18.335 7.66602L15.4053 7.66602L15.4053 6.67725C15.4053 5.66406 14.7339 5.0293 13.6597 5.0293L11.1938 5.0293C10.1318 5.0293 9.47266 5.66406 9.47266 6.67725L9.47266 7.66602L6.53076 7.66602C6.25 7.66602 6.00586 7.89795 6.00586 8.19092C6.00586 8.47168 6.25 8.70361 6.53076 8.70361L7.53174 8.70361L7.95898 18.3594C7.9834 19.1772 8.45947 19.6411 9.28955 19.6411ZM10.3394 17.749C10.0952 17.749 9.8999 17.5781 9.8999 17.334L9.64355 10.2051C9.64355 9.94873 9.80225 9.77783 10.0952 9.77783C10.3394 9.77783 10.5347 9.93652 10.5347 10.2051L10.7666 17.334C10.7666 17.5781 10.6079 17.749 10.3394 17.749ZM12.4268 17.749C12.1582 17.749 11.9751 17.5781 11.9751 17.334L11.9751 10.2051C11.9751 9.94873 12.146 9.77783 12.4268 9.77783C12.6953 9.77783 12.8784 9.94873 12.8784 10.2051L12.8784 17.334C12.8784 17.5781 12.6953 17.749 12.4268 17.749ZM14.502 17.749C14.2334 17.749 14.0747 17.5781 14.0747 17.334L14.3066 10.2051C14.3188 9.93652 14.502 9.77783 14.7583 9.77783C15.0391 9.77783 15.1978 9.94873 15.1978 10.2051L14.9414 17.334C14.9414 17.5781 14.7461 17.749 14.502 17.749ZM10.7056 7.66602L10.7056 6.73828C10.7056 6.4209 10.9375 6.21338 11.2671 6.21338L13.5864 6.21338C13.916 6.21338 14.1479 6.4209 14.1479 6.73828L14.1479 7.66602Z" fill="#5ac8f5"/>
 </g>
</svg>
