<?xml version="1.0" encoding="UTF-8"?>
<!--Generator: Apple Native CoreSVG 175.5-->
<!DOCTYPE svg
PUBLIC "-//W3C//DTD SVG 1.1//EN"
       "http://www.w3.org/Graphics/SVG/1.1/DTD/svg11.dtd">
<svg version="1.1" xmlns="http://www.w3.org/2000/svg" xmlns:xlink="http://www.w3.org/1999/xlink" width="25.5127" height="25.5249">
 <g>
  <rect height="25.5249" opacity="0" width="25.5127" x="0" y="0"/>
  <path d="M11.6333 25.5127L13.8794 25.5127C14.5142 25.5127 14.978 25.1343 15.1123 24.5117L15.7471 21.8262C16.2231 21.6675 16.687 21.4844 17.0898 21.2891L19.4458 22.7295C19.9707 23.0591 20.5688 23.0103 21.0083 22.5708L22.583 21.0083C23.0225 20.5688 23.0835 19.9341 22.7295 19.4092L21.2891 17.0776C21.4966 16.6504 21.6797 16.2109 21.814 15.7715L24.5239 15.1245C25.1465 14.9902 25.5127 14.5264 25.5127 13.8916L25.5127 11.6821C25.5127 11.0596 25.1465 10.5957 24.5239 10.4614L21.8384 9.81445C21.6797 9.31396 21.4844 8.8623 21.3135 8.48389L22.7539 6.11572C23.0957 5.59082 23.0591 4.99268 22.6074 4.55322L21.0083 2.97852C20.5566 2.56348 20.0195 2.49023 19.4824 2.79541L17.0898 4.27246C16.6992 4.06494 16.2476 3.88184 15.7471 3.72314L15.1123 1.00098C14.978 0.378418 14.5142 0 13.8794 0L11.6333 0C10.9985 0 10.5347 0.378418 10.3882 1.00098L9.75342 3.69873C9.27734 3.85742 8.81348 4.04053 8.39844 4.26025L6.03027 2.79541C5.49316 2.49023 4.94385 2.55127 4.49219 2.97852L2.90527 4.55322C2.45361 4.99268 2.40479 5.59082 2.75879 6.11572L4.18701 8.48389C4.02832 8.8623 3.83301 9.31396 3.67432 9.81445L0.98877 10.4614C0.366211 10.5957 0 11.0596 0 11.6821L0 13.8916C0 14.5264 0.366211 14.9902 0.98877 15.1245L3.69873 15.7715C3.83301 16.2109 4.01611 16.6504 4.21143 17.0776L2.7832 19.4092C2.41699 19.9341 2.49023 20.5688 2.92969 21.0083L4.49219 22.5708C4.93164 23.0103 5.54199 23.0591 6.06689 22.7295L8.41064 21.2891C8.82568 21.4844 9.27734 21.6675 9.75342 21.8262L10.3882 24.5117C10.5347 25.1343 10.9985 25.5127 11.6333 25.5127ZM12.7563 17.0654C10.3882 17.0654 8.44727 15.1123 8.44727 12.7441C8.44727 10.3882 10.3882 8.44727 12.7563 8.44727C15.1245 8.44727 17.0654 10.3882 17.0654 12.7441C17.0654 15.1123 15.1245 17.0654 12.7563 17.0654Z" fill="#5ac8f5"/>
 </g>
</svg>
