<?xml version="1.0" encoding="UTF-8"?>
<!--Generator: Apple Native CoreSVG 175.5-->
<!DOCTYPE svg
PUBLIC "-//W3C//DTD SVG 1.1//EN"
       "http://www.w3.org/Graphics/SVG/1.1/DTD/svg11.dtd">
<svg version="1.1" xmlns="http://www.w3.org/2000/svg" xmlns:xlink="http://www.w3.org/1999/xlink" width="24.9023" height="24.9146">
 <g>
  <rect height="24.9146" opacity="0" width="24.9023" x="0" y="0"/>
  <path d="M12.4512 24.9023C19.2627 24.9023 24.9023 19.2505 24.9023 12.4512C24.9023 5.63965 19.2505 0 12.439 0C5.63965 0 0 5.63965 0 12.4512C0 19.2505 5.65186 24.9023 12.4512 24.9023ZM5.71289 12.4512C5.71289 11.8164 5.81055 11.1816 5.98145 10.5957C6.45752 10.7056 6.92139 10.8521 7.37305 11.084L7.25098 11.3159C7.1167 11.5479 7.20215 11.8164 7.42188 11.9141C7.61719 12.0239 7.87354 11.9629 7.99561 11.7432L8.12988 11.499C8.36182 11.6333 8.58154 11.8042 8.78906 11.9751L8.65479 12.0972C8.49609 12.2681 8.5083 12.5488 8.66699 12.7075C8.8501 12.8662 9.10645 12.8784 9.27734 12.7197L9.41162 12.5854C9.64355 12.8174 9.82666 13.0737 10.022 13.3301L9.83887 13.4399C9.63135 13.5498 9.55811 13.8306 9.68018 14.0259C9.80225 14.2456 10.0586 14.3066 10.2539 14.1968L10.437 14.0869C10.5835 14.3677 10.6934 14.6484 10.8032 14.9414L10.5469 15.0024C10.3271 15.0635 10.1929 15.3076 10.2539 15.5518C10.3027 15.7593 10.5347 15.918 10.7666 15.8569L11.0229 15.7837C11.0596 16.0889 11.0962 16.3696 11.1084 16.6504L10.8643 16.6382C10.6079 16.6382 10.437 16.8579 10.4248 17.0898C10.4248 17.3096 10.5957 17.5171 10.8398 17.5293L11.0962 17.5415C11.0352 18.0298 10.9497 18.5059 10.791 18.9819C7.89795 18.2129 5.71289 15.5518 5.71289 12.4512ZM12.4634 19.2139C12.1582 19.2139 11.8652 19.1895 11.5601 19.1406C11.731 18.6279 11.8286 18.0908 11.9019 17.5537L12.207 17.5659C12.4512 17.5659 12.6343 17.3706 12.6343 17.1387C12.6343 16.9067 12.4634 16.687 12.2192 16.6748L11.9263 16.6748C11.9141 16.3208 11.8774 15.9424 11.8164 15.5884L12.0972 15.5151C12.3169 15.4541 12.4512 15.21 12.4023 14.9658C12.3413 14.7461 12.1094 14.5996 11.8774 14.6606L11.6089 14.7461C11.4868 14.3799 11.3525 14.0259 11.1816 13.6841L11.4624 13.5254C11.6821 13.4033 11.7432 13.1226 11.6211 12.9272C11.499 12.7197 11.2549 12.6221 11.0352 12.7563L10.7422 12.915C10.5225 12.5732 10.2661 12.2803 9.99756 11.9873L10.2417 11.731C10.4126 11.5723 10.4126 11.3037 10.2295 11.145C10.0342 10.9741 9.80225 10.9619 9.63135 11.1328L9.36279 11.377C9.10645 11.1694 8.82568 10.9497 8.52051 10.7788L8.65479 10.5469C8.77686 10.3394 8.69141 10.0586 8.48389 9.96094C8.27637 9.85107 8.02002 9.91211 7.89795 10.1318L7.76367 10.3638C7.27539 10.1318 6.7749 9.96094 6.25 9.83887C7.27539 7.43408 9.69238 5.68848 12.4512 5.68848C12.7319 5.68848 13.0249 5.71289 13.3057 5.74951C13.147 6.28662 13.0249 6.81152 12.9761 7.34863L12.7197 7.33643C12.4634 7.33643 12.2681 7.54395 12.2681 7.76367C12.2681 8.00781 12.439 8.21533 12.6831 8.22754L12.9639 8.22754C12.9761 8.56934 13.0005 8.92334 13.0737 9.26514L12.7197 9.35059C12.4634 9.41162 12.3535 9.65576 12.4146 9.87549C12.4756 10.1074 12.6953 10.2539 12.9272 10.1807L13.269 10.0952C13.3789 10.4736 13.5376 10.8398 13.7085 11.2061L13.4277 11.3647C13.2324 11.4624 13.1836 11.731 13.2812 11.9507C13.3911 12.146 13.6475 12.2314 13.8672 12.1094L14.1357 11.9507C14.3555 12.2681 14.5874 12.5732 14.856 12.8662L14.6484 13.0615C14.4897 13.2324 14.5142 13.501 14.6851 13.6597C14.856 13.8062 15.1245 13.8306 15.2832 13.6719L15.4907 13.4644C15.7715 13.6963 16.0767 13.9282 16.394 14.1113L16.2476 14.3555C16.1377 14.563 16.2109 14.8315 16.4185 14.9536C16.626 15.0757 16.8945 14.978 17.0044 14.7705L17.1509 14.5142C17.6392 14.7461 18.1519 14.917 18.7012 15.0269C17.6636 17.4683 15.2344 19.2139 12.4634 19.2139ZM19.2261 12.4512C19.2261 13.0859 19.1406 13.6963 18.9575 14.27C18.4692 14.1846 17.9932 14.0381 17.5293 13.8184L17.6514 13.5864C17.7734 13.3667 17.7002 13.1226 17.4805 13.0005C17.2974 12.8784 17.0166 12.9761 16.9067 13.1836L16.7847 13.4033C16.5283 13.2568 16.2964 13.0737 16.0645 12.8784L16.2476 12.6953C16.4307 12.5122 16.394 12.2314 16.2476 12.085C16.0522 11.9141 15.8203 11.8896 15.625 12.085L15.4419 12.2681C15.2344 12.0361 15.0513 11.792 14.8682 11.5356L15.0513 11.4258C15.2588 11.3159 15.3198 11.084 15.21 10.8521C15.1001 10.6445 14.8315 10.5591 14.624 10.6812L14.4531 10.7788C14.2944 10.4858 14.1846 10.1929 14.0747 9.8999L14.2578 9.83887C14.4775 9.77783 14.624 9.55811 14.5508 9.32617C14.4897 9.08203 14.27 8.94775 14.0259 9.00879L13.8672 9.04541C13.8184 8.77686 13.7939 8.5083 13.7695 8.25195L14.0503 8.26416C14.2944 8.26416 14.4775 8.06885 14.4775 7.8125C14.4897 7.59277 14.3066 7.38525 14.0747 7.37305L13.7817 7.36084C13.8428 6.87256 13.9404 6.38428 14.0991 5.896C17.0044 6.66504 19.2261 9.33838 19.2261 12.4512Z" fill="#5ac8f5"/>
 </g>
</svg>
