<?xml version="1.0" encoding="UTF-8"?>
<!--Generator: Apple Native CoreSVG 175.5-->
<!DOCTYPE svg
PUBLIC "-//W3C//DTD SVG 1.1//EN"
       "http://www.w3.org/Graphics/SVG/1.1/DTD/svg11.dtd">
<svg version="1.1" xmlns="http://www.w3.org/2000/svg" xmlns:xlink="http://www.w3.org/1999/xlink" width="17.8467" height="29.0894">
 <g>
  <rect height="29.0894" opacity="0" width="17.8467" x="0" y="0"/>
  <path d="M8.91113 17.9443C14.27 17.9443 17.8467 14.7583 17.8467 9.92432C17.8467 7.40967 16.7847 4.10156 15.2466 1.74561C14.5264 0.622559 12.1948 0 8.92334 0C5.62744 0 3.30811 0.622559 2.57568 1.74561C1.0376 4.10156 0 7.40967 0 9.92432C0 14.7583 3.55225 17.9443 8.91113 17.9443ZM8.91113 16.1011C4.55322 16.1011 1.84326 13.7207 1.84326 9.92432C1.84326 8.10547 2.47803 5.74951 3.52783 3.77197C4.58984 4.3457 6.51855 4.67529 8.92334 4.67529C11.3037 4.67529 13.2324 4.3457 14.2944 3.77197C15.3564 5.74951 16.0034 8.10547 16.0034 9.92432C16.0034 13.7207 13.269 16.1011 8.91113 16.1011ZM8.92334 2.9541C6.46973 2.9541 4.27246 2.6123 4.27246 2.33154C4.27246 2.0752 6.50635 1.7334 8.92334 1.7334C11.3281 1.7334 13.5742 2.0752 13.5742 2.33154C13.5742 2.6123 11.3525 2.9541 8.92334 2.9541ZM8.91113 26.123C9.41162 26.123 9.83887 25.6958 9.83887 25.2075L9.83887 16.98L8.00781 16.98L8.00781 25.2075C8.00781 25.708 8.42285 26.123 8.91113 26.123ZM8.91113 29.0771C13.3301 29.0649 16.0034 27.9785 16.0034 26.0986C16.0034 24.231 13.3301 23.1323 8.91113 23.1323C4.50439 23.1323 1.84326 24.231 1.84326 26.0986C1.84326 27.9785 4.49219 29.0649 8.91113 29.0771ZM8.91113 27.2827C5.79834 27.2827 3.80859 26.7822 3.80859 26.0986C3.80859 25.4272 5.81055 24.9146 8.91113 24.9146C12.0239 24.9146 14.0381 25.4272 14.0381 26.0986C14.0381 26.7822 12.0239 27.2827 8.91113 27.2827Z" fill="#5ac8f5"/>
 </g>
</svg>
