<?xml version="1.0" encoding="UTF-8"?>
<!--Generator: Apple Native CoreSVG 175.5-->
<!DOCTYPE svg
PUBLIC "-//W3C//DTD SVG 1.1//EN"
       "http://www.w3.org/Graphics/SVG/1.1/DTD/svg11.dtd">
<svg version="1.1" xmlns="http://www.w3.org/2000/svg" xmlns:xlink="http://www.w3.org/1999/xlink" width="28.0959" height="28.4774">
 <g>
  <rect height="28.4774" opacity="0" width="28.0959" x="0" y="0"/>
  <path d="M19.9711 7.81172C21.8998 6.57881 23.8774 1.02461 21.7045 0.487504C19.4706-0.0251911 18.7748 5.84639 19.9711 7.81172ZM20.2641 8.2878C23.0961 8.3 28.8822 3.67354 26.8803 1.65938C24.8783-0.342574 20.2519 5.44356 20.2641 8.2878ZM20.7402 8.56856C22.6933 9.78926 28.5771 9.06905 28.0644 6.87178C27.5395 4.66231 21.9731 6.65205 20.7402 8.56856ZM0.708414 27.7824C1.33097 28.4172 2.28312 28.82 3.4672 28.0754L9.59513 24.2424L8.13029 22.7898C7.8007 22.4602 7.8007 21.9719 8.11808 21.6545C8.43546 21.3371 8.92375 21.3249 9.25334 21.6545L10.9867 23.3635L12.3539 22.4968L10.3031 20.5192C9.97355 20.1897 9.98576 19.7014 10.2909 19.384C10.6205 19.0666 11.1088 19.0544 11.4262 19.3718L13.7455 21.6423L19.7026 17.8825C23.8652 15.2702 24.6098 11.1931 21.497 8.03145L20.4472 6.96944C17.7372 4.22286 14.246 4.467 11.6703 7.37227L14.9174 10.5705C15.247 10.9001 15.247 11.3762 14.9418 11.6936C14.6244 12.0231 14.1361 12.0354 13.8066 11.7058L10.6816 8.65401L9.82707 9.99678L12.1586 12.2795C12.4882 12.6091 12.4882 13.1096 12.1708 13.4148C11.8412 13.7321 11.3652 13.7443 11.0356 13.4148L8.96037 11.4006L0.391031 24.987C-0.292563 26.0856-0.0118012 27.0622 0.708414 27.7824Z" fill="#5ac8f5"/>
 </g>
</svg>
