<?xml version="1.0" encoding="UTF-8"?>
<!--Generator: Apple Native CoreSVG 175.5-->
<!DOCTYPE svg
PUBLIC "-//W3C//DTD SVG 1.1//EN"
       "http://www.w3.org/Graphics/SVG/1.1/DTD/svg11.dtd">
<svg version="1.1" xmlns="http://www.w3.org/2000/svg" xmlns:xlink="http://www.w3.org/1999/xlink" width="24.7482" height="28.0884">
 <g>
  <rect height="28.0884" opacity="0" width="24.7482" x="0" y="0"/>
  <path d="M19.5435 5.32227C21.0083 5.32227 22.1924 4.13818 22.1924 2.64893C22.1924 1.18408 21.0083 0 19.5435 0C18.0542 0 16.8701 1.18408 16.8701 2.64893C16.8701 4.13818 18.0542 5.32227 19.5435 5.32227ZM10.1074 15.6128L16.3208 20.3491L14.3921 26.3062C14.1113 27.1606 14.6484 27.771 15.2954 27.9297C15.8691 28.064 16.5405 27.8198 16.7969 27.0142L18.9575 20.3369C19.1162 19.8486 19.0308 19.3237 18.689 18.9941L14.5142 14.8193L19.3115 10.0098C19.519 9.80225 19.8364 9.80225 20.0439 10.0098L21.7041 11.6577L19.4336 13.9282C18.9331 14.4409 18.9453 15.2344 19.4336 15.7227C19.8975 16.1743 20.7153 16.2231 21.2158 15.7227L24.3774 12.561C24.8779 12.0605 24.8657 11.2793 24.3774 10.7788L21.3257 7.70264C20.5933 6.97021 19.7144 6.604 18.6646 6.604L4.00391 6.604C3.32031 6.604 2.74658 7.16553 2.74658 7.86133C2.74658 8.55713 3.32031 9.13086 4.00391 9.13086L12.4268 9.13086C12.854 9.13086 13.0493 9.57031 12.7441 9.87549L10.3027 12.3169C9.2041 13.4155 9.36279 15.0513 10.1074 15.6128ZM9.74121 16.8091L9.13086 20.52L3.28369 20.52C2.56348 20.52 2.00195 21.0815 2.00195 21.7896C2.00195 22.4854 2.56348 23.0469 3.28369 23.0469L10.144 23.0469C10.8032 23.0469 11.2427 22.7173 11.4136 22.1313L12.4023 18.8477ZM2.74658 13.3545C4.24805 13.3545 5.49316 12.1216 5.49316 10.6079C5.49316 9.10645 4.24805 7.86133 2.74658 7.86133C1.23291 7.86133 0 9.10645 0 10.6079C0 12.1216 1.23291 13.3545 2.74658 13.3545Z" fill="#5ac8f5"/>
 </g>
</svg>
