<?xml version="1.0" encoding="UTF-8"?>
<!--Generator: Apple Native CoreSVG 175.5-->
<!DOCTYPE svg
PUBLIC "-//W3C//DTD SVG 1.1//EN"
       "http://www.w3.org/Graphics/SVG/1.1/DTD/svg11.dtd">
<svg version="1.1" xmlns="http://www.w3.org/2000/svg" xmlns:xlink="http://www.w3.org/1999/xlink" width="26.2555" height="22.9858">
 <g>
  <rect height="22.9858" opacity="0" width="26.2555" x="0" y="0"/>
  <path d="M4.95427 8.22754C10.3864 8.22754 13.3283 3.62549 18.443 3.62549C19.6393 3.62549 20.7013 3.89404 21.9465 4.60205C22.4714 4.89502 22.9596 4.69971 23.216 4.3335C23.5212 3.89404 23.4845 3.23486 22.8009 2.83203C21.4216 2.03857 20.0055 1.66016 18.443 1.66016C12.901 1.66016 9.98356 6.26221 4.95427 6.26221C3.74577 6.26221 2.68376 5.99365 1.43864 5.28564C0.913741 4.99268 0.425459 5.18799 0.169112 5.56641C-0.11165 6.00586-0.087236 6.66504 0.584151 7.05566C1.96355 7.84912 3.37956 8.22754 4.95427 8.22754ZM4.96647 14.7827C9.80046 14.7827 12.6813 11.084 16.9172 10.3516C17.2956 9.63135 17.6862 8.93555 18.0646 8.21533C12.6447 8.47168 9.89812 12.8174 4.96647 12.8174C3.75798 12.8174 2.69597 12.5366 1.45085 11.8286C0.938155 11.5356 0.437666 11.731 0.193526 12.1094C-0.0994431 12.5488-0.075029 13.208 0.596358 13.5986C1.97575 14.3921 3.40397 14.7827 4.96647 14.7827ZM4.95427 21.3257C8.64079 21.3257 11.2043 19.1528 14.0973 17.8223C14.0363 17.2852 14.1828 16.3208 14.4025 15.6006C11.1554 16.9067 8.61638 19.3604 4.95427 19.3604C3.74577 19.3604 2.68376 19.0918 1.43864 18.3716C0.913741 18.0786 0.425459 18.2739 0.169112 18.6523C-0.11165 19.0918-0.087236 19.7632 0.584151 20.1416C1.96355 20.9473 3.37956 21.3257 4.95427 21.3257Z" fill="#5ac8f5" fill-opacity="0.5"/>
  <path d="M20.9821 22.9858C23.9118 22.9858 26.2555 20.7031 26.2555 17.8345C26.2555 16.2476 25.4621 14.6851 24.7663 13.3911L21.9953 8.22754C21.7633 7.78809 21.4216 7.59277 20.9821 7.59277C20.5304 7.59277 20.1886 7.78809 19.9567 8.22754L17.1979 13.3911C16.5021 14.6851 15.7209 16.2476 15.7209 17.8345C15.7209 20.7031 18.0524 22.9858 20.9821 22.9858Z" fill="#5ac8f5"/>
 </g>
</svg>
