<?xml version="1.0" encoding="UTF-8"?>
<!--Generator: Apple Native CoreSVG 175.5-->
<!DOCTYPE svg
PUBLIC "-//W3C//DTD SVG 1.1//EN"
       "http://www.w3.org/Graphics/SVG/1.1/DTD/svg11.dtd">
<svg version="1.1" xmlns="http://www.w3.org/2000/svg" xmlns:xlink="http://www.w3.org/1999/xlink" width="32.7637" height="23.5935">
 <g>
  <rect height="23.5935" opacity="0" width="32.7637" x="0" y="0"/>
  <path d="M13.1592 22.5694C13.9648 22.5694 14.5386 21.9957 14.5386 21.2022L14.5386 2.47666C14.5386 1.6832 13.9648 1.03623 13.1348 1.03623C12.561 1.03623 12.1704 1.28037 11.5601 1.87851L6.34766 6.76133C6.27441 6.83457 6.16455 6.87119 6.04248 6.87119L2.55127 6.87119C0.891113 6.87119 0 7.78672 0 9.54453L0 14.0855C0 15.8556 0.891113 16.7589 2.55127 16.7589L6.04248 16.7589C6.16455 16.7589 6.27441 16.7955 6.34766 16.8687L11.5601 21.8004C12.1094 22.3375 12.5854 22.5694 13.1592 22.5694ZM18.8965 16.9908C19.2993 17.2716 19.873 17.1861 20.2026 16.7101C21.1426 15.4771 21.7041 13.6583 21.7041 11.7906C21.7041 9.92295 21.1426 8.11631 20.2026 6.87119C19.873 6.39511 19.2993 6.29746 18.8965 6.59043C18.396 6.93222 18.3228 7.54258 18.7012 8.04306C19.4092 9.01963 19.812 10.3746 19.812 11.7906C19.812 13.2066 19.397 14.5494 18.7012 15.5382C18.335 16.0509 18.396 16.6368 18.8965 16.9908ZM23.4253 20.1769C23.877 20.482 24.4385 20.3722 24.7681 19.9083C26.3306 17.7599 27.2461 14.8058 27.2461 11.7906C27.2461 8.77549 26.3428 5.79697 24.7681 3.67295C24.4385 3.20908 23.877 3.09922 23.4253 3.40439C22.9736 3.70957 22.9004 4.2833 23.2544 4.78379C24.585 6.66367 25.354 9.19052 25.354 11.7906C25.354 14.3907 24.5605 16.8932 23.2544 18.7975C22.9126 19.2979 22.9736 19.8717 23.4253 20.1769ZM28.0029 23.4117C28.418 23.7169 29.0161 23.5948 29.3457 23.1065C31.4819 20.0182 32.7637 16.0997 32.7637 11.7906C32.7637 7.46933 31.4453 3.57529 29.3457 0.474705C29.0161-0.0257837 28.418-0.135647 28.0029 0.169529C27.5391 0.486912 27.478 1.06064 27.8076 1.56113C29.6997 4.35654 30.896 7.87217 30.896 11.7906C30.896 15.6969 29.6997 19.2369 27.8076 22.0201C27.478 22.5206 27.5391 23.0943 28.0029 23.4117Z" fill="#5ac8f5"/>
 </g>
</svg>
