<?xml version="1.0" encoding="UTF-8"?>
<!--Generator: Apple Native CoreSVG 175.5-->
<!DOCTYPE svg
PUBLIC "-//W3C//DTD SVG 1.1//EN"
       "http://www.w3.org/Graphics/SVG/1.1/DTD/svg11.dtd">
<svg version="1.1" xmlns="http://www.w3.org/2000/svg" xmlns:xlink="http://www.w3.org/1999/xlink" width="35.4736" height="35.5516">
 <g>
  <rect height="35.5516" opacity="0" width="35.4736" x="0" y="0"/>
  <path d="M5.17578 25.2892L18.3838 25.2892C21.9116 25.2892 24.6582 22.6159 24.6582 19.1735C24.6582 15.7555 21.8872 13.1798 18.2251 13.131C16.7969 10.4577 14.2456 8.80971 11.2305 8.80971C7.18994 8.80971 3.80859 11.9347 3.40576 15.9386C1.37939 16.5856 0 18.3434 0 20.5651C0 23.3117 2.0752 25.2892 5.17578 25.2892ZM5.12695 23.3361C3.05176 23.3361 1.95312 22.1398 1.95312 20.6139C1.95312 19.32 2.70996 18.1725 4.50439 17.6964C5.09033 17.5377 5.31006 17.2692 5.35889 16.6588C5.63965 13.2409 8.17871 10.775 11.2305 10.775C13.5986 10.775 15.4419 12.069 16.5771 14.3517C16.8457 14.8766 17.1387 15.0597 17.7612 15.0597C20.9229 15.0597 22.6929 16.9518 22.6929 19.2345C22.6929 21.505 20.8374 23.3361 18.4204 23.3361ZM22.8394 7.2228C19.4824 7.2228 16.7969 9.92055 16.7969 13.2775C16.7969 13.424 16.8091 13.5705 16.8213 13.7047L18.6646 13.8878C18.6157 13.6803 18.5913 13.485 18.5913 13.2775C18.5913 10.8849 20.459 9.01723 22.8394 9.01723C25.2197 9.01723 27.0874 10.8849 27.0874 13.2775C27.0874 15.2062 25.8545 16.8297 24.0967 17.3913L24.1089 19.2345C26.8555 18.612 28.8696 16.1706 28.8696 13.2775C28.8696 9.92055 26.1963 7.2228 22.8394 7.2228ZM15.7593 7.63784C16.1621 8.04067 16.8213 8.02846 17.1997 7.63784C17.5781 7.24721 17.5903 6.61245 17.1997 6.22182L15.3198 4.32973C14.9292 3.93911 14.2944 3.93911 13.9038 4.32973C13.5132 4.72036 13.501 5.36733 13.9038 5.77016ZM22.8394 5.28188C23.4009 5.28188 23.8525 4.81801 23.8525 4.2687L23.8525 1.63198C23.8525 1.07045 23.4009 0.618795 22.8394 0.618795C22.2778 0.618795 21.8262 1.07045 21.8262 1.63198L21.8262 4.2687C21.8262 4.81801 22.2778 5.28188 22.8394 5.28188ZM28.479 7.63784C28.8574 8.02846 29.5166 8.04067 29.9194 7.63784L31.7871 5.77016C32.1777 5.36733 32.1777 4.72036 31.7871 4.32973C31.3965 3.93911 30.7617 3.93911 30.3711 4.32973L28.479 6.22182C28.0884 6.61245 28.1006 7.24721 28.479 7.63784ZM31.8237 14.2907L34.4727 14.2907C35.022 14.2907 35.4736 13.839 35.4736 13.2775C35.4736 12.716 35.022 12.2643 34.4727 12.2643L31.8237 12.2643C31.2866 12.2643 30.8105 12.716 30.8105 13.2775C30.8105 13.839 31.2866 14.2907 31.8237 14.2907ZM30.3711 22.2374C30.7617 22.6281 31.3965 22.6159 31.7871 22.2252C32.1777 21.8346 32.1777 21.1876 31.7871 20.8092L29.895 18.9293C29.5044 18.5509 28.8696 18.5387 28.479 18.9293C28.0884 19.32 28.0884 19.9669 28.479 20.3576ZM15.2832 29.5983L12.6099 29.5983L12.5854 30.1232L13.9771 27.4743C14.1113 27.2179 14.0015 27.0226 13.7329 27.0226L11.1816 27.0226C10.8521 27.0226 10.7422 27.1447 10.6323 27.3888L9.06982 30.9411C8.94775 31.2218 9.06982 31.4049 9.38721 31.4049L11.5723 31.4049L11.7188 30.6969L9.86328 35.1891C9.79004 35.3478 9.82666 35.4821 9.93652 35.5309C10.0464 35.5797 10.1807 35.5431 10.3027 35.4088L15.4663 30.1842C15.7104 29.9279 15.625 29.5983 15.2832 29.5983Z" fill="#5ac8f5"/>
 </g>
</svg>
