<?xml version="1.0" encoding="UTF-8"?>
<!--Generator: Apple Native CoreSVG 175.5-->
<!DOCTYPE svg
PUBLIC "-//W3C//DTD SVG 1.1//EN"
       "http://www.w3.org/Graphics/SVG/1.1/DTD/svg11.dtd">
<svg version="1.1" xmlns="http://www.w3.org/2000/svg" xmlns:xlink="http://www.w3.org/1999/xlink" width="23.2052" height="30.481">
 <g>
  <rect height="30.481" opacity="0" width="23.2052" x="0" y="0"/>
  <path d="M16.4548 5.33447C17.9318 5.33447 19.1281 4.13818 19.1281 2.66113C19.1281 1.18408 17.9318 0 16.4548 0C14.9777 0 13.7936 1.18408 13.7936 2.66113C13.7936 4.13818 14.9777 5.33447 16.4548 5.33447ZM7.99529 14.9902L12.5485 19.5679L12.5485 26.7334L15.051 26.7334L15.051 19.2017C15.051 18.8354 14.9655 18.4937 14.7214 18.1763L11.6574 14.2822L14.2697 10.2783C14.4406 10.022 14.8068 10.022 14.9411 10.3149L15.8078 12.0605C16.0275 12.4756 16.4548 12.7563 16.9308 12.7563L21.9601 12.7563C22.6437 12.7563 23.2052 12.1948 23.2052 11.499C23.2052 10.8154 22.6437 10.2539 21.9601 10.2539L17.6999 10.2539L16.3815 7.58057C15.8566 6.53076 14.7824 5.85938 13.5861 5.85938L6.89665 5.85938C6.48162 5.85938 6.07878 6.06689 5.84685 6.4209L3.34441 10.1929C2.96599 10.7544 3.12468 11.5356 3.69841 11.9141C4.25994 12.3047 5.04119 12.146 5.43181 11.5601L7.56804 8.36182L9.63103 8.36182C9.78972 8.36182 9.88738 8.5083 9.78972 8.66699L7.6779 11.8408C7.01872 12.8174 7.153 14.1479 7.99529 14.9902ZM0.439135 16.8335L5.35857 21.1426C6.13982 21.8384 7.00652 21.4722 7.38494 20.874L9.27703 17.9565L7.20183 15.8813C7.17742 15.8447 7.153 15.8203 7.11638 15.7837L5.88347 18.2617L2.07488 14.9414C1.56218 14.502 0.768725 14.5386 0.317065 15.0635C-0.146803 15.5884-0.0979745 16.3818 0.439135 16.8335ZM6.65251 27.6733L15.173 27.6733C16.528 27.6733 17.6388 27.3926 18.5055 26.6479C18.8595 26.355 18.8473 25.9766 18.6764 25.7202C18.4811 25.4272 18.0417 25.2808 17.6388 25.5859C16.9919 26.0986 16.3083 26.3184 15.173 26.3184L6.65251 26.3184C5.50505 26.3184 4.83367 26.0986 4.17449 25.5859C3.80828 25.3052 3.41765 25.4028 3.21013 25.647C2.96599 25.9033 2.92937 26.3184 3.30779 26.6479C4.17449 27.3926 5.28533 27.6733 6.65251 27.6733ZM6.65251 30.481C7.22624 30.481 7.71453 30.0049 7.71453 29.4312C7.71453 28.8574 7.22624 28.3691 6.65251 28.3691C6.07878 28.3691 5.5905 28.8574 5.5905 29.4312C5.5905 30.0049 6.07878 30.481 6.65251 30.481ZM15.173 30.481C15.7468 30.481 16.2228 30.0049 16.2228 29.4312C16.2228 28.8574 15.7468 28.3691 15.173 28.3691C14.5993 28.3691 14.111 28.8574 14.111 29.4312C14.111 30.0049 14.5993 30.481 15.173 30.481Z" fill="#5ac8f5"/>
 </g>
</svg>
