<?xml version="1.0" encoding="UTF-8"?>
<!--Generator: Apple Native CoreSVG 175.5-->
<!DOCTYPE svg
PUBLIC "-//W3C//DTD SVG 1.1//EN"
       "http://www.w3.org/Graphics/SVG/1.1/DTD/svg11.dtd">
<svg version="1.1" xmlns="http://www.w3.org/2000/svg" xmlns:xlink="http://www.w3.org/1999/xlink" width="29.0791" height="25.6171">
 <g>
  <rect height="25.6171" opacity="0" width="29.0791" x="0" y="0"/>
  <path d="M15.2222 1.58418L15.2222 3.54951L17.6636 3.54951L19.6289 1.58418ZM8.05664 3.54951L13.562 3.54951L13.562 1.58418L8.05664 1.58418ZM0 8.01728L1.96533 8.01728L1.96533 5.46601C1.96533 4.19648 2.63672 3.54951 3.85742 3.54951L6.38428 3.54951L6.38428 1.58418L3.83301 1.58418C1.28174 1.58418 0 2.8415 0 5.36836ZM0 15.9519L1.96533 15.9519L1.96533 9.68964L0 9.68964ZM3.83301 24.0573L6.38428 24.0573L6.38428 22.092L3.85742 22.092C2.63672 22.092 1.96533 21.445 1.96533 20.1755L1.96533 17.6242L0 17.6242L0 20.2731C0 22.8 1.28174 24.0573 3.83301 24.0573ZM8.05664 24.0573L13.562 24.0573L13.562 22.092L8.05664 22.092ZM15.2222 24.0573L20.7275 24.0573L20.7275 22.092L15.2222 22.092ZM24.9512 24.0573C27.5024 24.0573 28.7842 22.8 28.7842 20.2731L28.7842 17.6242L26.8188 17.6242L26.8188 20.1755C26.8188 21.445 26.1475 22.092 24.9268 22.092L22.3999 22.092L22.3999 24.0573ZM28.7842 15.9519L28.7842 11.8381L26.8188 13.8034L26.8188 15.9519Z" fill="#5ac8f5" fill-opacity="0.5"/>
  <path d="M15.5396 15.4147C17.4316 17.3068 20.3003 17.3557 22.2778 15.3781L28.2715 9.38447C28.5767 9.07929 28.5522 8.60322 28.2593 8.33466C27.9541 8.0539 27.5391 8.0539 27.2339 8.35908L21.3013 14.3039C19.8853 15.7077 17.9077 15.7077 16.6138 14.3649C15.271 12.9977 15.2466 11.0568 16.6504 9.65302L24.1455 2.18232C25.0732 1.25459 26.3306 1.24238 27.1118 1.99921C27.8809 2.75605 27.8564 4.00117 26.9287 4.95332L19.6411 12.2897C19.3359 12.5949 18.9453 12.5827 18.6768 12.2897C18.3716 11.9968 18.3838 11.6184 18.689 11.3132L23.8525 6.14961C24.1577 5.84443 24.1455 5.42939 23.8892 5.14863C23.6084 4.88007 23.2056 4.86787 22.9004 5.18525L17.688 10.3854C16.8457 11.2277 16.8335 12.5461 17.627 13.3273C18.457 14.1574 19.7021 14.1574 20.5811 13.2785L27.9175 5.94209C29.4556 4.404 29.4312 2.40205 28.0518 1.01044C26.6968-0.344536 24.6216-0.36895 23.1201 1.13252L15.5884 8.66425C13.6108 10.6418 13.6719 13.5471 15.5396 15.4147Z" fill="#5ac8f5"/>
 </g>
</svg>
