<?xml version="1.0" encoding="UTF-8"?>
<!--Generator: Apple Native CoreSVG 175.5-->
<!DOCTYPE svg
PUBLIC "-//W3C//DTD SVG 1.1//EN"
       "http://www.w3.org/Graphics/SVG/1.1/DTD/svg11.dtd">
<svg version="1.1" xmlns="http://www.w3.org/2000/svg" xmlns:xlink="http://www.w3.org/1999/xlink" width="24.646" height="26.8677">
 <g>
  <rect height="26.8677" opacity="0" width="24.646" x="0" y="0"/>
  <path d="M11.4868 4.41895L13.1592 4.41895L13.1592 1.50146L11.4868 1.50146ZM11.4868 8.88672L13.1592 8.88672L13.1592 5.65186L11.4868 5.65186ZM11.4868 13.0005L13.1592 13.0005L13.1592 10.1318L11.4868 10.1318ZM9.33838 16.2231L11.9507 14.917L11.1938 13.4155L8.59375 14.7217ZM5.33447 18.2129L8.21533 16.7725L7.4707 15.271L4.58984 16.7114ZM1.64795 20.0439L4.22363 18.75L3.4668 17.2485L0.891113 18.5425ZM12.6953 14.917L15.3076 16.2231L16.0522 14.7217L13.4521 13.4155ZM16.4307 16.7725L19.3237 18.2129L20.0684 16.7114L17.1753 15.271ZM20.4224 18.75L22.998 20.0439L23.7549 18.5425L21.1914 17.2485ZM1.70898 21.1304L11.3159 26.5747C11.9995 26.9653 12.6465 26.9653 13.3423 26.5747L22.937 21.1304C24.0601 20.4956 24.646 19.8486 24.646 18.103L24.646 8.43506C24.646 7.16553 24.1821 6.37207 23.1567 5.78613L14.5142 0.878906C13.0371 0.0244141 11.6089 0.0244141 10.1318 0.878906L1.50146 5.78613C0.463867 6.37207 0 7.16553 0 8.43506L0 18.103C0 19.8486 0.598145 20.4956 1.70898 21.1304ZM2.80762 19.519C2.09961 19.1284 1.85547 18.7134 1.85547 18.042L1.85547 8.82568L11.3647 14.2578L11.3647 24.3896ZM21.8506 19.519L13.2812 24.3896L13.2812 14.2578L22.7905 8.82568L22.7905 18.042C22.7905 18.7134 22.5464 19.1284 21.8506 19.519ZM12.3291 12.5488L2.90527 7.21436L10.9497 2.62451C11.8896 2.0874 12.7563 2.0752 13.7085 2.62451L21.7529 7.21436Z" fill="#5ac8f5"/>
 </g>
</svg>
