<?xml version="1.0" encoding="UTF-8"?>
<!--Generator: Apple Native CoreSVG 175.5-->
<!DOCTYPE svg
PUBLIC "-//W3C//DTD SVG 1.1//EN"
       "http://www.w3.org/Graphics/SVG/1.1/DTD/svg11.dtd">
<svg version="1.1" xmlns="http://www.w3.org/2000/svg" xmlns:xlink="http://www.w3.org/1999/xlink" width="43.2983" height="19.8608">
 <g>
  <rect height="19.8608" opacity="0" width="43.2983" x="0" y="0"/>
  <path d="M9.70459 19.4092C11.5356 19.4092 12.9761 17.9688 12.9761 16.1499C12.9761 14.3311 11.5234 12.8784 9.70459 12.8784C7.89795 12.8784 6.44531 14.3311 6.44531 16.1499C6.44531 17.9565 7.89795 19.4092 9.70459 19.4092ZM34.2407 19.4092C36.0596 19.4092 37.5122 17.9565 37.5122 16.1499C37.5122 14.3311 36.0596 12.8784 34.2407 12.8784C32.4463 12.8784 30.9814 14.3433 30.9814 16.1499C30.9814 17.9565 32.4341 19.4092 34.2407 19.4092ZM41.7725 3.66211L41.2231 2.85645C39.8193 0.817871 38.0981 0 35.2661 0L25.7324 0C20.7031 0 18.689 0.488281 15.6982 2.35596L10.7788 5.44434L6.22559 6.00586C2.06299 6.51855 0 8.42285 0 11.7676L0 13.8672C0 15.8569 1.17188 17.0532 3.11279 17.0532L5.10254 17.0532C5.05371 16.7603 5.01709 16.4673 5.01709 16.1499C5.01709 13.5498 7.1167 11.4624 9.70459 11.4624C12.3047 11.4624 14.3921 13.5498 14.3921 16.1499C14.3921 16.4673 14.3677 16.7603 14.3066 17.0532L29.6387 17.0532C29.5898 16.7603 29.5532 16.4673 29.5532 16.1499C29.5532 13.562 31.665 11.4624 34.2407 11.4624C36.8408 11.4624 38.9282 13.5498 38.9282 16.1499C38.9282 16.4673 38.9038 16.7603 38.8428 17.0532L40.1978 17.0532C42.334 17.0532 43.2983 15.9546 43.2983 13.5376L43.2983 8.3252C43.2983 6.79932 42.7368 5.05371 41.7725 3.66211Z" fill="#5ac8f5" fill-opacity="0.25"/>
  <path d="M16.3696 9.47266C14.6606 9.47266 13.4888 8.87451 12.439 7.49512L9.15527 3.16162C8.47168 2.27051 7.95898 2.03857 6.604 2.03857L3.60107 2.03857C3.06396 2.03857 2.62451 1.58691 2.62451 1.0498C2.62451 0.512695 3.06396 0.0732422 3.60107 0.0732422L6.604 0.0732422C8.45947 0.0732422 9.66797 0.610352 10.6934 1.96533L14.0015 6.27441C14.7583 7.25098 15.2222 7.50732 16.3696 7.50732L19.2139 7.50732L19.2139 6.46973C19.2139 5.60303 19.9707 5.34668 20.6177 5.77393L23.6694 7.73926C24.2798 8.12988 24.2676 8.8623 23.6694 9.24072L20.6055 11.2183C19.9707 11.6333 19.2139 11.377 19.2139 10.5225L19.2139 9.47266Z" fill="#5ac8f5"/>
 </g>
</svg>
