<?xml version="1.0" encoding="UTF-8"?>
<!--Generator: Apple Native CoreSVG 175.5-->
<!DOCTYPE svg
PUBLIC "-//W3C//DTD SVG 1.1//EN"
       "http://www.w3.org/Graphics/SVG/1.1/DTD/svg11.dtd">
<svg version="1.1" xmlns="http://www.w3.org/2000/svg" xmlns:xlink="http://www.w3.org/1999/xlink" width="24.9023" height="24.9146">
 <g>
  <rect height="24.9146" opacity="0" width="24.9023" x="0" y="0"/>
  <path d="M12.4512 24.9146C19.2627 24.9146 24.9023 19.2749 24.9023 12.4634C24.9023 5.66406 19.2505 0.012207 12.439 0.012207C5.63965 0.012207 0 5.66406 0 12.4634C0 19.2749 5.65186 24.9146 12.4512 24.9146ZM6.34766 17.7612C4.77295 17.7612 3.69873 16.7358 3.69873 15.3442C3.69873 14.2334 4.41895 13.3301 5.41992 13.0005C5.63965 10.9985 7.33643 9.42383 9.36279 9.42383C10.9009 9.42383 12.1582 10.2539 12.8662 11.5845C14.7217 11.6211 16.0889 12.9272 16.0889 14.6484C16.0889 16.4062 14.7339 17.7612 12.9395 17.7612ZM11.6577 8.88672L10.7178 7.93457C10.5103 7.69043 10.5103 7.2998 10.7178 7.08008C10.9497 6.86035 11.3281 6.86035 11.5723 7.08008L12.5366 8.03223C12.7441 8.25195 12.7319 8.64258 12.5366 8.87451C12.2925 9.09424 11.8896 9.11865 11.6577 8.88672ZM15.2466 7.73926C14.917 7.73926 14.6362 7.4585 14.6362 7.14111L14.6362 5.79834C14.6362 5.45654 14.917 5.2002 15.2466 5.2002C15.5884 5.2002 15.8569 5.45654 15.8569 5.79834L15.8569 7.14111C15.8569 7.4585 15.5884 7.73926 15.2466 7.73926ZM17.981 8.87451C17.7612 8.64258 17.749 8.25195 17.981 8.03223L18.9209 7.08008C19.165 6.84814 19.5557 6.86035 19.7876 7.08008C20.0073 7.31201 20.0073 7.69043 19.7876 7.93457L18.8477 8.88672C18.6279 9.11865 18.2129 9.09424 17.981 8.87451ZM19.7266 12.207C19.3848 12.207 19.1162 11.9385 19.1162 11.6089C19.1162 11.2671 19.3848 11.0107 19.7266 11.0107L21.0327 11.0107C21.3745 11.0107 21.6431 11.2671 21.6431 11.6089C21.6431 11.9385 21.3745 12.207 21.0327 12.207ZM18.9209 16.1499L17.981 15.21C17.749 14.9658 17.7612 14.5874 17.981 14.3555C18.2251 14.1235 18.6157 14.1235 18.8477 14.3555L19.7876 15.2832C20.0195 15.5029 20.0073 15.9058 19.7876 16.1377C19.5557 16.3696 19.165 16.394 18.9209 16.1499ZM18.3594 11.6089C18.3594 12.6465 17.8467 13.5864 16.9922 14.1724C16.7969 12.3413 15.332 10.9497 13.4155 10.7056C13.208 10.376 12.9761 10.0952 12.6953 9.85107C13.2446 9.0332 14.1846 8.5083 15.2466 8.5083C16.9678 8.5083 18.3594 9.86328 18.3594 11.6089Z" fill="#5ac8f5"/>
 </g>
</svg>
