<?xml version="1.0" encoding="UTF-8"?>
<!--Generator: Apple Native CoreSVG 175.5-->
<!DOCTYPE svg
PUBLIC "-//W3C//DTD SVG 1.1//EN"
       "http://www.w3.org/Graphics/SVG/1.1/DTD/svg11.dtd">
<svg version="1.1" xmlns="http://www.w3.org/2000/svg" xmlns:xlink="http://www.w3.org/1999/xlink" width="24.9023" height="24.9146">
 <g>
  <rect height="24.9146" opacity="0" width="24.9023" x="0" y="0"/>
  <path d="M12.4512 24.9023C19.2627 24.9023 24.9023 19.2505 24.9023 12.4512C24.9023 5.63965 19.2505 0 12.439 0C5.63965 0 0 5.63965 0 12.4512C0 19.2505 5.65186 24.9023 12.4512 24.9023ZM12.4512 22.8271C6.68945 22.8271 2.0874 18.2129 2.0874 12.4512C2.0874 6.68945 6.67725 2.0752 12.439 2.0752C18.2007 2.0752 22.8271 6.68945 22.8271 12.4512C22.8271 18.2129 18.2129 22.8271 12.4512 22.8271ZM8.64258 17.7124C10.7422 17.7124 12.1338 15.6982 12.1338 12.4512C12.1338 9.2041 10.7422 7.18994 8.64258 7.18994C6.54297 7.18994 5.15137 9.2041 5.15137 12.4512C5.15137 15.6982 6.54297 17.7124 8.64258 17.7124ZM8.64258 16.2354C7.48291 16.2354 6.75049 14.7949 6.75049 12.4512C6.75049 10.1074 7.48291 8.66699 8.64258 8.66699C9.80225 8.66699 10.5347 10.1074 10.5347 12.4512C10.5347 14.7949 9.81445 16.2354 8.64258 16.2354ZM15.1611 17.5781C15.4907 17.5781 15.7227 17.395 15.9424 16.98L19.751 9.36279C19.9341 8.97217 19.9829 8.75244 19.9829 8.49609C19.9829 7.89795 19.5557 7.43408 18.8965 7.43408L13.9771 7.43408C13.5498 7.43408 13.269 7.71484 13.269 8.12988C13.269 8.53271 13.5498 8.80127 13.9771 8.80127L18.2617 8.80127L18.2617 8.89893L14.4775 16.2231C14.3799 16.4062 14.3433 16.5527 14.3433 16.7847C14.3433 17.2485 14.6973 17.5781 15.1611 17.5781Z" fill="#5ac8f5"/>
 </g>
</svg>
