<?xml version="1.0" encoding="UTF-8"?>
<!--Generator: Apple Native CoreSVG 175.5-->
<!DOCTYPE svg
PUBLIC "-//W3C//DTD SVG 1.1//EN"
       "http://www.w3.org/Graphics/SVG/1.1/DTD/svg11.dtd">
<svg version="1.1" xmlns="http://www.w3.org/2000/svg" xmlns:xlink="http://www.w3.org/1999/xlink" width="23.8358" height="28.3325">
 <g>
  <rect height="28.3325" opacity="0" width="23.8358" x="0" y="0"/>
  <path d="M20.5933 10.8887L20.5933 27.3926C20.5933 27.9175 20.9961 28.3325 21.5088 28.3325C22.0337 28.3325 22.4365 27.9175 22.4365 27.3926L22.4365 10.8887C22.4365 10.376 22.0337 9.97314 21.5088 9.97314C20.9961 9.97314 20.5933 10.376 20.5933 10.8887ZM14.1968 10.8887L14.1968 27.3926C14.1968 27.9175 14.5996 28.3325 15.1123 28.3325C15.6372 28.3325 16.04 27.9175 16.04 27.3926L16.04 10.8887C16.04 10.376 15.6372 9.97314 15.1123 9.97314C14.5996 9.97314 14.1968 10.376 14.1968 10.8887ZM7.80029 10.8887L7.80029 27.3926C7.80029 27.9175 8.20312 28.3325 8.72803 28.3325C9.24072 28.3325 9.64355 27.9175 9.64355 27.3926L9.64355 10.8887C9.64355 10.376 9.24072 9.97314 8.72803 9.97314C8.20312 9.97314 7.80029 10.376 7.80029 10.8887ZM1.40381 10.8887L1.40381 19.5679C1.40381 20.0928 1.80664 20.5078 2.33154 20.5078C2.84424 20.5078 3.24707 20.0928 3.24707 19.5679L3.24707 10.8887C3.24707 10.376 2.84424 9.97314 2.33154 9.97314C1.80664 9.97314 1.40381 10.376 1.40381 10.8887Z" fill="#5ac8f5" fill-opacity="0.5"/>
  <path d="M0.32959 4.21143L3.60107 6.65283C4.26025 7.14111 5.09033 6.88477 5.09033 6.00586L5.09033 4.28467L18.75 4.28467L18.75 6.00586C18.75 6.86035 19.5557 7.16553 20.2393 6.65283L23.5107 4.21143C23.9502 3.86963 23.938 3.23486 23.5107 2.91748L20.2393 0.488281C19.5557-0.0244141 18.75 0.280762 18.75 1.12305L18.75 2.86865L5.09033 2.86865L5.09033 1.12305C5.09033 0.280762 4.28467-0.0244141 3.60107 0.488281L0.32959 2.91748C-0.109863 3.24707-0.109863 3.86963 0.32959 4.21143Z" fill="#5ac8f5"/>
 </g>
</svg>
