<?xml version="1.0" encoding="UTF-8"?>
<!--Generator: Apple Native CoreSVG 175.5-->
<!DOCTYPE svg
PUBLIC "-//W3C//DTD SVG 1.1//EN"
       "http://www.w3.org/Graphics/SVG/1.1/DTD/svg11.dtd">
<svg version="1.1" xmlns="http://www.w3.org/2000/svg" xmlns:xlink="http://www.w3.org/1999/xlink" width="27.9419" height="28.2349">
 <g>
  <rect height="28.2349" opacity="0" width="27.9419" x="0" y="0"/>
  <path d="M3.2959 20.4224L8.34961 20.4224L8.34961 18.5669L3.39355 18.5669C2.39258 18.5669 1.85547 18.042 1.85547 17.0654L1.85547 3.38135C1.85547 2.40479 2.39258 1.85547 3.39355 1.85547L11.7554 1.85547C12.1826 1.85547 12.5732 2.02637 12.793 2.35596L12.8174 2.46582C13.147 2.40479 13.562 2.38037 13.855 2.38037L15.0391 2.38037L15.0024 2.16064C14.6118 0.830078 13.6597 0 11.8652 0L3.2959 0C1.12305 0 0 1.13525 0 3.33252L0 17.1021C0 19.2993 1.11084 20.4224 3.2959 20.4224ZM5.54199 5.49316C5.54199 6.81152 6.604 7.89795 7.94678 7.89795C8.14209 7.89795 8.23975 7.88574 8.34961 7.86133C8.34961 7.72705 8.34961 7.61719 8.34961 7.50732C8.34961 7.16553 8.37402 6.81152 8.41064 6.56738C8.36182 6.604 8.17871 6.65283 7.94678 6.65283C7.2876 6.65283 6.7749 6.14014 6.7749 5.49316C6.7749 4.84619 7.2876 4.30908 7.94678 4.30908C8.34961 4.30908 8.77686 4.57764 8.92334 4.77295C9.08203 4.43115 9.39941 3.97949 9.61914 3.77197C9.26514 3.36914 8.63037 3.08838 7.94678 3.07617C6.604 3.07617 5.54199 4.1626 5.54199 5.49316ZM3.6499 13.0371C3.6499 15.4175 5.54199 17.3218 7.93457 17.3218C8.11768 17.3218 8.23975 17.3218 8.34961 17.3096L8.34961 14.7583C8.25195 14.7705 8.09326 14.7827 7.92236 14.7827C6.9458 14.7827 6.18896 14.0137 6.18896 13.0615C6.18896 12.085 6.95801 11.3159 7.97119 11.3159C8.09326 11.3159 8.25195 11.3403 8.34961 11.3647L8.34961 9.32617C8.34961 9.16748 8.34961 8.97217 8.34961 8.78906C8.26416 8.78906 8.12988 8.76465 7.93457 8.76465C5.5542 8.76465 3.6499 10.6812 3.6499 13.0371ZM10.0098 7.40967L10.0098 24.8657C10.0098 27.0752 11.1084 28.2104 13.3179 28.2104L24.6216 28.2104C26.8311 28.2104 27.9419 27.0752 27.9419 24.8657L27.9419 7.40967C27.9419 5.18799 26.8311 4.05273 24.6216 4.05273L13.3179 4.05273C11.1084 4.05273 10.0098 5.18799 10.0098 7.40967ZM11.9751 7.42188C11.9751 6.49414 12.439 6.01807 13.3911 6.01807L24.5483 6.01807C25.4883 6.01807 25.9766 6.49414 25.9766 7.42188L25.9766 24.8413C25.9766 25.769 25.4883 26.2451 24.5483 26.2451L13.3911 26.2451C12.4512 26.2451 11.9751 25.769 11.9751 24.8413ZM18.9697 24.4751C21.6309 24.4751 23.7671 22.3511 23.7671 19.6777C23.7671 17.0166 21.6309 14.9048 18.9697 14.8926C16.3208 14.8682 14.1846 17.0288 14.1846 19.6777C14.1846 22.3389 16.3208 24.4751 18.9697 24.4751ZM18.9697 21.6431C17.8833 21.6431 17.0044 20.7886 17.0044 19.6777C17.0044 18.5547 17.8589 17.688 18.9697 17.688C20.0806 17.688 20.9473 18.5547 20.9473 19.6777C20.9473 20.7886 20.0806 21.6431 18.9697 21.6431ZM18.9697 13.147C20.459 13.147 21.6797 11.9507 21.6553 10.4614C21.6431 8.98438 20.459 7.82471 18.9697 7.8125C17.4927 7.77588 16.2964 8.97217 16.2964 10.4614C16.2964 11.9629 17.4805 13.147 18.9697 13.147ZM18.9697 11.7798C18.2373 11.7798 17.6758 11.1938 17.6758 10.4614C17.6758 9.729 18.2373 9.15527 18.9697 9.15527C19.6899 9.15527 20.2759 9.75342 20.2759 10.4614C20.2759 11.1938 19.6899 11.7798 18.9697 11.7798Z" fill="#5ac8f5"/>
 </g>
</svg>
