<?xml version="1.0" encoding="UTF-8"?>
<!--Generator: Apple Native CoreSVG 175.5-->
<!DOCTYPE svg
PUBLIC "-//W3C//DTD SVG 1.1//EN"
       "http://www.w3.org/Graphics/SVG/1.1/DTD/svg11.dtd">
<svg version="1.1" xmlns="http://www.w3.org/2000/svg" xmlns:xlink="http://www.w3.org/1999/xlink" width="31.7993" height="21.9179">
 <g>
  <rect height="21.9179" opacity="0" width="31.7993" x="0" y="0"/>
  <path d="M0 10.965C0 15.0544 1.53809 18.8019 4.19922 21.5851C4.63867 22.049 5.23682 22.0002 5.57861 21.6096C5.93262 21.2311 5.85938 20.6696 5.44434 20.2424C3.10059 17.801 1.83105 14.5295 1.83105 10.965C1.83105 7.40058 3.10059 4.12909 5.44434 1.68769C5.85938 1.24823 5.93262 0.698918 5.57861 0.308293C5.23682-0.0701251 4.63867-0.118953 4.19922 0.344914C1.53809 3.12812 0 6.87568 0 10.965ZM4.37012 10.965C4.37012 13.8581 5.40771 16.5559 7.27539 18.57C7.70264 19.0461 8.3252 19.0583 8.69141 18.631C9.04541 18.2282 8.94775 17.7033 8.53271 17.2517C7.01904 15.5549 6.18896 13.3576 6.18896 10.965C6.18896 8.57245 7.01904 6.37519 8.53271 4.67841C8.94775 4.22675 9.04541 3.70185 8.69141 3.28681C8.3252 2.87177 7.70264 2.87177 7.27539 3.34784C5.40771 5.37421 4.37012 8.05976 4.37012 10.965ZM8.72803 10.965C8.72803 12.6008 9.28955 14.1389 10.2661 15.3474C10.6689 15.8601 11.3403 15.8601 11.7065 15.445C12.0728 15.03 11.9141 14.5417 11.5601 14.0412C10.9009 13.2111 10.5591 12.1369 10.5591 10.965C10.5591 9.79316 10.9009 8.71894 11.5601 7.87665C11.9141 7.38837 12.0728 6.90009 11.7065 6.48505C11.3403 6.07001 10.6689 6.07001 10.2661 6.5705C9.28955 7.779 8.72803 9.31708 8.72803 10.965ZM23.0713 10.965C23.0713 9.31708 22.5098 7.779 21.5332 6.5705C21.1304 6.07001 20.459 6.07001 20.0928 6.48505C19.7266 6.90009 19.873 7.38837 20.2393 7.87665C20.8984 8.71894 21.2402 9.79316 21.2402 10.965C21.2402 12.1369 20.8984 13.2111 20.2393 14.0412C19.873 14.5417 19.7266 15.03 20.0928 15.445C20.459 15.8601 21.1304 15.8601 21.5332 15.3474C22.5098 14.1389 23.0713 12.6008 23.0713 10.965ZM27.4292 10.965C27.4292 8.05976 26.3916 5.37421 24.5239 3.34784C24.0967 2.87177 23.4741 2.87177 23.1079 3.28681C22.7417 3.70185 22.8516 4.22675 23.2544 4.67841C24.7803 6.37519 25.6104 8.57245 25.6104 10.965C25.6104 13.3576 24.7803 15.5549 23.2544 17.2517C22.8516 17.7033 22.7417 18.2282 23.1079 18.631C23.4741 19.0583 24.0967 19.0461 24.5239 18.57C26.3916 16.5559 27.4292 13.8581 27.4292 10.965ZM31.7993 10.965C31.7993 6.87568 30.2612 3.12812 27.6001 0.344914C27.1606-0.118953 26.5625-0.0701251 26.2207 0.308293C25.8667 0.698918 25.9399 1.24823 26.355 1.68769C28.6865 4.12909 29.9683 7.40058 29.9683 10.965C29.9683 14.5295 28.6865 17.801 26.355 20.2424C25.9399 20.6696 25.8667 21.2311 26.2207 21.6096C26.5625 22.0002 27.1606 22.049 27.6001 21.5851C30.2612 18.8019 31.7993 15.0544 31.7993 10.965ZM13.6719 10.9894C13.6719 12.1735 14.7095 13.1745 15.918 13.1745C17.1265 13.1745 18.1152 12.1735 18.1152 10.965C18.1152 9.74433 17.1387 8.74335 15.918 8.74335C14.6851 8.74335 13.6719 9.76874 13.6719 10.9894Z" fill="#5ac8f5"/>
 </g>
</svg>
