<?xml version="1.0" encoding="UTF-8"?>
<!--Generator: Apple Native CoreSVG 175.5-->
<!DOCTYPE svg
PUBLIC "-//W3C//DTD SVG 1.1//EN"
       "http://www.w3.org/Graphics/SVG/1.1/DTD/svg11.dtd">
<svg version="1.1" xmlns="http://www.w3.org/2000/svg" xmlns:xlink="http://www.w3.org/1999/xlink" width="32.019" height="28.8208">
 <g>
  <rect height="28.8208" opacity="0" width="32.019" x="0" y="0"/>
  <path d="M0 17.2485C0 23.1567 3.62549 25.0977 9.99756 25.0977C9.63135 24.4629 9.33838 23.7915 9.09424 23.1201C3.9917 22.9492 1.96533 21.0449 1.96533 17.0654L1.96533 8.08105C1.96533 7.00684 2.14844 6.00586 2.6001 5.13916C4.05273 6.27441 6.79932 6.78711 9.81445 6.78711C12.8418 6.78711 15.5884 6.27441 17.0288 5.13916C17.3828 5.63965 17.6392 6.55518 17.6392 7.23877L17.6392 7.25098C18.2617 7.15332 18.9209 7.09229 19.6045 7.05566C19.4946 5.24902 18.9575 3.96729 18.2251 3.02734C17.9321 2.64893 17.4561 2.62451 17.1021 2.92969C15.9302 3.95508 12.8662 4.82178 9.81445 4.82178C6.7627 4.82178 3.69873 3.95508 2.53906 2.92969C2.17285 2.62451 1.70898 2.64893 1.41602 3.02734C0.549316 4.11377 0 5.67627 0 7.97119ZM20.9351 28.8208C25.0488 28.8208 26.7578 28.2837 28.3813 26.77C30.6763 24.6826 32.019 21.6431 32.019 18.4326C32.019 15.8325 31.1401 13.3423 29.541 11.5356C29.0527 10.9375 28.2349 10.8032 27.5391 11.2305C26.1963 12.2192 24.4995 12.915 20.9351 12.915C17.3706 12.915 15.6738 12.2192 14.3188 11.2305C13.623 10.8032 12.8174 10.9253 12.3291 11.5356C10.73 13.3423 9.83887 15.8203 9.83887 18.4326C9.83887 21.6431 11.1816 24.6826 13.4766 26.77C15.1001 28.2837 16.8213 28.8208 20.9351 28.8208ZM20.9351 26.7334C17.4683 26.7334 16.1255 26.4038 14.9048 25.2441C13.0005 23.4985 11.9385 21.0449 11.9385 18.4326C11.9385 16.2231 12.6953 14.0869 14.3066 12.3901L12.7441 12.8174C14.4165 14.2212 17.1509 15.0024 20.9351 15.0024C24.7192 15.0024 27.4536 14.2212 29.126 12.8052L27.5513 12.3901C29.1748 14.0747 29.9316 16.2109 29.9316 18.4326C29.9316 21.0449 28.8574 23.4985 26.9653 25.2441C25.7202 26.4038 24.4019 26.7334 20.9351 26.7334Z" fill="#5ac8f5" fill-opacity="0.5"/>
  <path d="M9.81445 3.16162C12.9517 3.16162 15.4663 2.47803 15.4663 1.58691C15.4663 0.695801 12.9517 0.0244141 9.81445 0.0244141C6.68945 0.0244141 4.1748 0.695801 4.1748 1.58691C4.1748 2.47803 6.68945 3.16162 9.81445 3.16162ZM20.9351 11.5356C23.9868 11.5356 26.1475 10.9131 26.1475 10.1196C26.1475 9.30176 23.9868 8.69141 20.9351 8.69141C17.8711 8.69141 15.7104 9.30176 15.7104 10.1196C15.7104 10.9131 17.8711 11.5356 20.9351 11.5356Z" fill="#5ac8f5"/>
 </g>
</svg>
