<?xml version="1.0" encoding="UTF-8"?>
<!--Generator: Apple Native CoreSVG 175.5-->
<!DOCTYPE svg
PUBLIC "-//W3C//DTD SVG 1.1//EN"
       "http://www.w3.org/Graphics/SVG/1.1/DTD/svg11.dtd">
<svg version="1.1" xmlns="http://www.w3.org/2000/svg" xmlns:xlink="http://www.w3.org/1999/xlink" width="26.2451" height="28.9124">
 <g>
  <rect height="28.9124" opacity="0" width="26.2451" x="0" y="0"/>
  <path d="M2.91748 10.2631L23.3276 10.2631C25.1587 10.2631 26.2451 9.18884 26.2451 7.39441L26.2451 3.26843C26.2451 1.474 25.1587 0.39978 23.3276 0.39978L2.91748 0.39978C1.08643 0.39978 0 1.474 0 3.26843L0 7.39441C0 9.18884 1.08643 10.2631 2.91748 10.2631ZM2.9541 8.4198C2.2583 8.4198 1.84326 7.99255 1.84326 7.28455L1.84326 3.36609C1.84326 2.67029 2.2583 2.24304 2.9541 2.24304L23.291 2.24304C23.9868 2.24304 24.4019 2.67029 24.4019 3.36609L24.4019 7.28455C24.4019 7.99255 23.9868 8.4198 23.291 8.4198ZM12.2437 13.1683L14.0259 13.1683L14.0259 9.31091L12.2437 9.31091ZM2.91748 21.8842L23.3276 21.8842C25.1587 21.8842 26.2451 20.8099 26.2451 19.0155L26.2451 14.8895C26.2451 13.0951 25.1587 12.0209 23.3276 12.0209L2.91748 12.0209C1.08643 12.0209 0 13.0951 0 14.8895L0 19.0155C0 20.8099 1.08643 21.8842 2.91748 21.8842ZM2.9541 20.0409C2.2583 20.0409 1.84326 19.6136 1.84326 18.9178L1.84326 14.9994C1.84326 14.2914 2.2583 13.8641 2.9541 13.8641L23.291 13.8641C23.9868 13.8641 24.4019 14.2914 24.4019 14.9994L24.4019 18.9178C24.4019 19.6136 23.9868 20.0409 23.291 20.0409ZM12.2314 24.4354L14.0259 24.4354L14.0259 20.5902L12.2314 20.5902ZM12.4756 28.5736C12.8418 29.0253 13.4521 29.0253 13.8184 28.5736L16.6138 25.119C17.1509 24.4476 16.8213 23.5687 15.9546 23.5687L10.3271 23.5687C9.43604 23.5687 9.09424 24.4354 9.65576 25.119Z" fill="#5ac8f5"/>
 </g>
</svg>
