<?xml version="1.0" encoding="UTF-8"?>
<!--Generator: Apple Native CoreSVG 175.5-->
<!DOCTYPE svg
PUBLIC "-//W3C//DTD SVG 1.1//EN"
       "http://www.w3.org/Graphics/SVG/1.1/DTD/svg11.dtd">
<svg version="1.1" xmlns="http://www.w3.org/2000/svg" xmlns:xlink="http://www.w3.org/1999/xlink" width="18.75" height="28.3813">
 <g>
  <rect height="28.3813" opacity="0" width="18.75" x="0" y="0"/>
  <path d="M0 20.5078C0 23.877 2.09961 26.0254 5.3833 26.0254C7.83691 26.0254 9.66797 24.9512 10.8276 22.876L11.9263 20.9106C14.502 16.1987 18.75 15.5884 18.75 9.53369C18.75 3.8208 15.0513 0 9.50928 0C3.83301 0 0 3.84521 0 9.58252ZM3.28369 15.2344L3.28369 9.14307C3.28369 5.71289 5.68848 3.40576 9.49707 3.40576C13.1836 3.40576 15.4785 5.71289 15.4785 9.14307C15.4785 9.64355 15.0513 10.0708 14.5508 10.0708C14.0503 10.0708 13.6353 9.64355 13.6353 9.14307C13.6353 6.78711 12.1094 5.24902 9.49707 5.24902C6.7627 5.24902 5.12695 6.79932 5.12695 9.14307L5.12695 10.6934L8.81348 10.6934C10.791 10.6934 12.0972 11.9019 12.0972 13.6963C12.0972 14.4531 11.7676 15.3809 11.2671 16.0156L9.68018 18.0298C9.47266 18.2861 9.2041 18.4326 8.92334 18.4326C8.42285 18.4326 7.99561 18.0176 7.99561 17.5171C7.99561 17.2852 8.08105 17.0654 8.23975 16.8579L9.70459 15.0146C9.99756 14.6606 10.1929 14.1479 10.1929 13.7695C10.1929 13.0371 9.66797 12.5366 8.83789 12.5366L5.12695 12.5366L5.12695 15.2344C5.12695 15.7349 4.69971 16.1621 4.19922 16.1621C3.69873 16.1621 3.28369 15.7349 3.28369 15.2344Z" fill="#5ac8f5"/>
 </g>
</svg>
