<?xml version="1.0" encoding="UTF-8"?>
<!--Generator: Apple Native CoreSVG 175.5-->
<!DOCTYPE svg
PUBLIC "-//W3C//DTD SVG 1.1//EN"
       "http://www.w3.org/Graphics/SVG/1.1/DTD/svg11.dtd">
<svg version="1.1" xmlns="http://www.w3.org/2000/svg" xmlns:xlink="http://www.w3.org/1999/xlink" width="20.5322" height="28.5522">
 <g>
  <rect height="28.5522" opacity="0" width="20.5322" x="0" y="0"/>
  <path d="M0 23.5352C0 26.0864 1.25732 27.356 3.78418 27.356L16.748 27.356C19.2749 27.356 20.5322 26.0864 20.5322 23.5352L20.5322 5.01709C20.5322 2.47803 19.2749 1.18408 16.748 1.18408L3.78418 1.18408C1.25732 1.18408 0 2.47803 0 5.01709ZM1.96533 23.4985L1.96533 5.05371C1.96533 3.83301 2.6123 3.14941 3.88184 3.14941L16.6504 3.14941C17.9199 3.14941 18.5669 3.83301 18.5669 5.05371L18.5669 23.4985C18.5669 24.7192 17.9199 25.3906 16.6504 25.3906L3.88184 25.3906C2.6123 25.3906 1.96533 24.7192 1.96533 23.4985ZM9.50928 26.4526L11.0229 26.4526L11.0229 9.11865L9.50928 9.11865ZM10.2661 9.58252C12.1216 9.58252 13.2202 8.5083 13.2202 6.73828C13.2202 6.39648 13.1836 6.05469 13.1104 5.71289L11.9629 0.708008C11.853 0.280762 11.4868 0 11.0352 0L9.49707 0C9.04541 0 8.6792 0.280762 8.56934 0.708008L7.42188 5.71289C7.34863 6.05469 7.31201 6.39648 7.31201 6.73828C7.31201 8.5083 8.41064 9.58252 10.2661 9.58252ZM10.2661 7.95898C9.50928 7.95898 8.93555 7.37305 8.93555 6.61621C8.93555 5.87158 9.52148 5.28564 10.2661 5.28564C11.0107 5.28564 11.5967 5.87158 11.5967 6.61621C11.5967 7.37305 11.0352 7.95898 10.2661 7.95898ZM10.2661 12.4146L13.147 12.4146C13.5742 12.4146 13.9038 12.085 13.9038 11.6577C13.9038 11.2427 13.5742 10.9131 13.147 10.9131L10.2661 10.9131ZM7.38525 14.0747L10.2661 14.0747L10.2661 12.5732L7.38525 12.5732C6.95801 12.5732 6.62842 12.8906 6.62842 13.3057C6.62842 13.7329 6.95801 14.0747 7.38525 14.0747ZM10.2661 15.7227L13.147 15.7227C13.5742 15.7227 13.9038 15.3931 13.9038 14.9658C13.9038 14.5508 13.5742 14.2212 13.147 14.2212L10.2661 14.2212ZM7.38525 17.3828L10.2661 17.3828L10.2661 15.8813L7.38525 15.8813C6.95801 15.8813 6.62842 16.1987 6.62842 16.6138C6.62842 17.041 6.95801 17.3828 7.38525 17.3828ZM10.2661 19.0308L13.147 19.0308C13.5742 19.0308 13.9038 18.7012 13.9038 18.2739C13.9038 17.8589 13.5742 17.5293 13.147 17.5293L10.2661 17.5293ZM7.38525 20.6909L10.2661 20.6909L10.2661 19.1895L7.38525 19.1895C6.95801 19.1895 6.62842 19.5068 6.62842 19.9219C6.62842 20.3491 6.95801 20.6909 7.38525 20.6909ZM10.2661 22.3389L13.147 22.3389C13.5742 22.3389 13.9038 22.0093 13.9038 21.582C13.9038 21.167 13.5742 20.8374 13.147 20.8374L10.2661 20.8374ZM7.38525 23.999L10.2661 23.999L10.2661 22.4976L7.38525 22.4976C6.95801 22.4976 6.62842 22.8271 6.62842 23.2422C6.62842 23.6694 6.95801 23.999 7.38525 23.999Z" fill="#5ac8f5"/>
 </g>
</svg>
