<?xml version="1.0" encoding="UTF-8"?>
<!--Generator: Apple Native CoreSVG 175.5-->
<!DOCTYPE svg
PUBLIC "-//W3C//DTD SVG 1.1//EN"
       "http://www.w3.org/Graphics/SVG/1.1/DTD/svg11.dtd">
<svg version="1.1" xmlns="http://www.w3.org/2000/svg" xmlns:xlink="http://www.w3.org/1999/xlink" width="28.8818" height="22.6929">
 <g>
  <rect height="22.6929" opacity="0" width="28.8818" x="0" y="0"/>
  <path d="M14.4409 19.2871C18.5425 19.2871 23.999 19.0796 26.3062 18.811C27.9663 18.6279 28.8818 17.7124 28.8818 16.1499L28.8818 14.0015C28.8818 11.9385 28.4668 10.791 27.3438 9.32617L26.3062 7.99561C25.8667 5.79834 25.0488 3.49121 24.6338 2.58789C23.9746 1.2085 22.7173 0.390625 21.0938 0.170898C20.2759 0.0610352 17.6025 0 14.4409 0C11.2915 0 8.61816 0.0732422 7.80029 0.170898C6.17676 0.366211 4.90723 1.2085 4.26025 2.58789C3.83301 3.49121 3.02734 5.79834 2.57568 7.99561L1.55029 9.32617C0.415039 10.791 0 11.9385 0 14.0015L0 16.1499C0 17.7124 0.927734 18.6279 2.57568 18.811C4.89502 19.0796 10.3394 19.2871 14.4409 19.2871ZM14.4409 17.688C10.2905 17.688 4.96826 17.4927 3.00293 17.2485C1.96533 17.1265 1.59912 16.5894 1.59912 15.6616L1.59912 14.0015C1.59912 12.3291 1.86768 11.5479 2.81982 10.3027L4.06494 8.66699C4.39453 6.89697 5.18799 4.43115 5.71289 3.30811C6.10352 2.46582 6.87256 1.94092 7.9834 1.80664C8.76465 1.70898 11.2427 1.59912 14.4409 1.59912C17.6514 1.59912 20.166 1.70898 20.874 1.80664C22.0215 1.95312 22.7783 2.47803 23.1812 3.30811C23.7061 4.43115 24.4995 6.89697 24.8169 8.66699L26.0742 10.3027C27.0142 11.5479 27.2827 12.3291 27.2827 14.0015L27.2827 15.6616C27.2827 16.5894 26.9165 17.1265 25.8789 17.2485C23.9258 17.4927 18.5913 17.688 14.4409 17.688ZM2.24609 22.644L3.67432 22.644C4.58984 22.644 5.29785 21.936 5.29785 21.0327L5.29785 18.1274L0.622559 17.4561L0.622559 21.0327C0.622559 21.936 1.33057 22.644 2.24609 22.644ZM25.2075 22.644L26.6479 22.644C27.5635 22.644 28.2593 21.936 28.2593 21.0327L28.2593 17.4561L23.5962 18.1274L23.5962 21.0327C23.5962 21.936 24.292 22.644 25.2075 22.644Z" fill="#5ac8f5" fill-opacity="0.5"/>
  <path d="M10.5835 10.376C10.5835 10.5957 10.7666 10.7544 10.9985 10.7544L14.0259 10.7544L12.4023 15.0879C12.1826 15.6616 12.8052 15.979 13.1836 15.5151L18.0542 9.375C18.1641 9.26514 18.2251 9.13086 18.2251 9.021C18.2251 8.80127 18.0298 8.63037 17.7979 8.63037L14.7827 8.63037L16.394 4.30908C16.6016 3.72314 15.9912 3.41797 15.625 3.88184L10.73 10.022C10.6445 10.144 10.5835 10.2539 10.5835 10.376Z" fill="#5ac8f5"/>
 </g>
</svg>
