<?xml version="1.0" encoding="UTF-8"?>
<!--Generator: Apple Native CoreSVG 175.5-->
<!DOCTYPE svg
PUBLIC "-//W3C//DTD SVG 1.1//EN"
       "http://www.w3.org/Graphics/SVG/1.1/DTD/svg11.dtd">
<svg version="1.1" xmlns="http://www.w3.org/2000/svg" xmlns:xlink="http://www.w3.org/1999/xlink" width="30.3711" height="24.7437">
 <g>
  <rect height="24.7437" opacity="0" width="30.3711" x="0" y="0"/>
  <path d="M3.83301 19.0796L6.38428 19.0796L6.38428 17.1143L3.85742 17.1143C2.63672 17.1143 1.96533 16.4673 1.96533 15.1978L1.96533 3.89404C1.96533 2.62451 2.63672 1.96533 3.85742 1.96533L20.3369 1.96533C21.5454 1.96533 22.2412 2.62451 22.2412 3.89404L22.2412 6.54297L24.2065 6.54297L24.2065 3.78418C24.2065 1.26953 22.9126 0 20.3735 0L3.83301 0C1.26953 0 0 1.26953 0 3.78418L0 15.2954C0 17.8223 1.26953 19.0796 3.83301 19.0796Z" fill="#5ac8f5" fill-opacity="0.5"/>
  <path d="M9.86328 24.7314L26.5381 24.7314C29.0771 24.7314 30.3711 23.4619 30.3711 20.9473L30.3711 9.43604C30.3711 6.92139 29.0771 5.65186 26.5381 5.65186L9.86328 5.65186C7.2998 5.65186 6.03027 6.92139 6.03027 9.43604L6.03027 20.9473C6.03027 23.4741 7.2998 24.7314 9.86328 24.7314ZM7.99561 11.8164L28.4058 11.8164L28.4058 20.8496C28.4058 22.1191 27.71 22.7661 26.5015 22.7661L9.8877 22.7661C8.66699 22.7661 7.99561 22.1191 7.99561 20.8496ZM9.8999 9.82666C9.30176 9.82666 8.81348 9.30176 8.81348 8.74023C8.81348 8.1543 9.30176 7.6416 9.8999 7.6416C10.498 7.6416 10.9863 8.1543 10.9863 8.74023C10.9863 9.30176 10.498 9.82666 9.8999 9.82666ZM13.4033 9.82666C12.8052 9.82666 12.3169 9.31396 12.3169 8.74023C12.3169 8.1543 12.8052 7.6416 13.4033 7.6416C14.0015 7.6416 14.4897 8.1543 14.4897 8.74023C14.4897 9.31396 14.0015 9.82666 13.4033 9.82666ZM16.9067 9.82666C16.3086 9.82666 15.8203 9.31396 15.8203 8.74023C15.8203 8.1543 16.3086 7.6416 16.9067 7.6416C17.5049 7.6416 17.9932 8.1543 17.9932 8.74023C17.9932 9.31396 17.5049 9.82666 16.9067 9.82666Z" fill="#5ac8f5"/>
 </g>
</svg>
