<?xml version="1.0" encoding="UTF-8"?>
<!--Generator: Apple Native CoreSVG 175.5-->
<!DOCTYPE svg
PUBLIC "-//W3C//DTD SVG 1.1//EN"
       "http://www.w3.org/Graphics/SVG/1.1/DTD/svg11.dtd">
<svg version="1.1" xmlns="http://www.w3.org/2000/svg" xmlns:xlink="http://www.w3.org/1999/xlink" width="24.2554" height="22.7905">
 <g>
  <rect height="22.7905" opacity="0" width="24.2554" x="0" y="0"/>
  <path d="M7.67822 12.3657C7.67822 10.2539 9.26514 8.43506 11.2427 8.14209L11.2427 7.1167C11.2427 6.64062 11.7554 6.46973 12.1094 6.7749L14.1479 8.5083C14.4897 8.80127 14.4897 9.2041 14.1479 9.50928L12.1094 11.2671C11.7554 11.5723 11.2427 11.3892 11.2427 10.9253L11.2427 9.7168C10.083 10.0586 9.22852 11.1206 9.22852 12.3901C9.22852 13.9404 10.4736 15.1855 12.0239 15.1855C13.5742 15.1855 14.8193 13.9404 14.8193 12.3901C14.8193 11.9629 15.1733 11.6089 15.6006 11.6089C16.0156 11.6089 16.3696 11.9629 16.3696 12.3901C16.3696 14.8071 14.4409 16.7603 12.0239 16.7603C9.60693 16.7603 7.67822 14.8071 7.67822 12.3657ZM12.1216 22.7905C12.3779 22.7905 12.7441 22.6196 13.0127 22.4609C19.8975 18.0664 24.2554 12.9517 24.2554 7.75146C24.2554 3.43018 21.2891 0.378418 17.4438 0.378418C15.0635 0.378418 13.2324 1.69678 12.1216 3.71094C11.0352 1.70898 9.19189 0.378418 6.79932 0.378418C2.96631 0.378418 0 3.43018 0 7.75146C0 12.9517 4.35791 18.0664 11.2427 22.4609C11.499 22.6196 11.8774 22.7905 12.1216 22.7905Z" fill="#5ac8f5"/>
 </g>
</svg>
