<?xml version="1.0" encoding="UTF-8"?>
<!--Generator: Apple Native CoreSVG 175.5-->
<!DOCTYPE svg
PUBLIC "-//W3C//DTD SVG 1.1//EN"
       "http://www.w3.org/Graphics/SVG/1.1/DTD/svg11.dtd">
<svg version="1.1" xmlns="http://www.w3.org/2000/svg" xmlns:xlink="http://www.w3.org/1999/xlink" width="22.4731" height="22.4976">
 <g>
  <rect height="22.4976" opacity="0" width="22.4731" x="0" y="0"/>
  <path d="M3.83301 22.4976L18.6401 22.4976C21.2036 22.4976 22.4731 21.228 22.4731 18.7134L22.4731 3.80859C22.4731 1.29395 21.2036 0.0244141 18.6401 0.0244141L3.83301 0.0244141C1.28174 0.0244141 0 1.28174 0 3.80859L0 18.7134C0 21.2402 1.28174 22.4976 3.83301 22.4976ZM3.85742 20.5322C2.63672 20.5322 1.96533 19.8853 1.96533 18.6157L1.96533 3.90625C1.96533 2.63672 2.63672 1.98975 3.85742 1.98975L18.6157 1.98975C19.8242 1.98975 20.5078 2.63672 20.5078 3.90625L20.5078 18.6157C20.5078 19.8853 19.8242 20.5322 18.6157 20.5322Z" fill="#5ac8f5" fill-opacity="0.5"/>
  <path d="M11.2427 16.9678C11.9507 16.9678 12.6221 16.8457 13.1958 16.6138L14.0503 17.7612C14.2822 18.0908 14.5142 18.2007 14.8193 18.2007C15.2466 18.2007 15.5518 17.9077 15.5518 17.4805C15.5518 17.2607 15.4785 17.1143 15.2466 16.8091L14.5142 15.8325C15.7715 14.8193 16.5283 13.1592 16.5283 11.1328C16.5283 7.69043 14.3677 5.28564 11.2427 5.28564C8.11768 5.28564 5.95703 7.69043 5.95703 11.1328C5.95703 14.563 8.11768 16.9678 11.2427 16.9678ZM11.2427 15.4297C9.22852 15.4297 7.91016 13.7329 7.91016 11.1328C7.91016 8.52051 9.22852 6.82373 11.2427 6.82373C13.269 6.82373 14.5874 8.52051 14.5874 11.1328C14.5874 12.5488 14.1846 13.7085 13.4766 14.4409L12.7808 13.501C12.5854 13.2446 12.4023 13.1592 12.1216 13.1592C11.7188 13.1592 11.3892 13.4644 11.3892 13.855C11.3892 14.0625 11.4624 14.2334 11.6211 14.4653L12.2192 15.2832C11.9263 15.3809 11.6089 15.4297 11.2427 15.4297Z" fill="#5ac8f5"/>
 </g>
</svg>
