<?xml version="1.0" encoding="UTF-8"?>
<!--Generator: Apple Native CoreSVG 175.5-->
<!DOCTYPE svg
PUBLIC "-//W3C//DTD SVG 1.1//EN"
       "http://www.w3.org/Graphics/SVG/1.1/DTD/svg11.dtd">
<svg version="1.1" xmlns="http://www.w3.org/2000/svg" xmlns:xlink="http://www.w3.org/1999/xlink" width="29.126" height="19.3726">
 <g>
  <rect height="19.3726" opacity="0" width="29.126" x="0" y="0"/>
  <path d="M7.53174 19.3726L21.5942 19.3726C26.6724 19.3726 29.126 16.98 29.126 12.0361L29.126 7.38525C29.126 2.41699 26.7212 0.012207 21.7285 0.012207L7.39746 0.012207C2.41699 0.012207 0 2.41699 0 7.38525L0 12.0361C0 16.98 2.45361 19.3726 7.53174 19.3726ZM7.53174 17.4072C3.69873 17.4072 1.96533 15.7471 1.96533 12.0361L1.96533 7.38525C1.96533 3.6499 3.6499 1.97754 7.39746 1.97754L21.7285 1.97754C25.4883 1.97754 27.1606 3.6499 27.1606 7.38525L27.1606 12.0361C27.1606 15.7471 25.4395 17.4072 21.5942 17.4072ZM0.98877 8.20312L28.1372 8.20312L28.1372 6.97021L0.98877 6.97021ZM14.563 12.7441C15.21 12.7441 15.7471 12.207 15.7471 11.5601C15.7471 10.9131 15.21 10.3882 14.563 10.3882C13.916 10.3882 13.3911 10.9131 13.3911 11.5601C13.3911 12.207 13.916 12.7441 14.563 12.7441Z" fill="#5ac8f5"/>
 </g>
</svg>
