<?xml version="1.0" encoding="UTF-8"?>
<!--Generator: Apple Native CoreSVG 175.5-->
<!DOCTYPE svg
PUBLIC "-//W3C//DTD SVG 1.1//EN"
       "http://www.w3.org/Graphics/SVG/1.1/DTD/svg11.dtd">
<svg version="1.1" xmlns="http://www.w3.org/2000/svg" xmlns:xlink="http://www.w3.org/1999/xlink" width="27.6367" height="21.3013">
 <g>
  <rect height="21.3013" opacity="0" width="27.6367" x="0" y="0"/>
  <path d="M7.39746 21.2891L20.2393 21.2891C25.2319 21.2891 27.6367 18.8965 27.6367 13.9282L27.6367 7.36084C27.6367 2.39258 25.2319 0 20.2393 0L7.39746 0C2.41699 0 0 2.39258 0 7.36084L0 13.9282C0 18.8965 2.41699 21.2891 7.39746 21.2891ZM7.39746 19.3237C3.6499 19.3237 1.96533 17.6514 1.96533 13.9282L1.96533 7.36084C1.96533 3.6377 3.6499 1.96533 7.39746 1.96533L20.2393 1.96533C23.999 1.96533 25.6714 3.6377 25.6714 7.36084L25.6714 13.9282C25.6714 17.6514 23.999 19.3237 20.2393 19.3237ZM0.98877 8.19092L26.6479 8.19092L26.6479 6.95801L0.98877 6.95801ZM8.93555 9.0332L18.7134 9.0332C19.5679 9.0332 20.1782 8.43506 20.1782 7.56836C20.1782 6.71387 19.5679 6.11572 18.7134 6.11572L8.93555 6.11572C8.10547 6.11572 7.4585 6.71387 7.4585 7.56836C7.4585 8.43506 8.10547 9.0332 8.93555 9.0332ZM13.8184 13.1958C14.4653 13.1836 15.0024 12.6465 15.0024 12.0361C15.0024 11.3892 14.4653 10.8521 13.8184 10.8521C13.1714 10.8521 12.6465 11.3892 12.6465 12.0361C12.6465 12.6709 13.1714 13.208 13.8184 13.1958Z" fill="#5ac8f5"/>
 </g>
</svg>
