<?xml version="1.0" encoding="UTF-8"?>
<!--Generator: Apple Native CoreSVG 175.5-->
<!DOCTYPE svg
PUBLIC "-//W3C//DTD SVG 1.1//EN"
       "http://www.w3.org/Graphics/SVG/1.1/DTD/svg11.dtd">
<svg version="1.1" xmlns="http://www.w3.org/2000/svg" xmlns:xlink="http://www.w3.org/1999/xlink" width="31.8115" height="30.3101">
 <g>
  <rect height="30.3101" opacity="0" width="31.8115" x="0" y="0"/>
  <path d="M13.2568 17.4927C14.563 17.4927 15.6128 16.4551 15.6128 15.1489C15.6128 13.855 14.5508 12.8052 13.2568 12.8052C11.9873 12.8052 10.9131 13.8672 10.9131 15.1489C10.9131 16.4429 11.9751 17.4927 13.2568 17.4927Z" fill="#5ac8f5" fill-opacity="0.5"/>
  <path d="M13.2568 10.437C14.4043 10.437 15.3198 9.52148 15.3198 8.37402C15.3198 7.25098 14.3921 6.32324 13.2568 6.32324C12.146 6.32324 11.2061 7.26318 11.2061 8.37402C11.2061 9.50928 12.1338 10.437 13.2568 10.437ZM7.43408 13.8062C8.58154 13.8062 9.48486 12.9028 9.48486 11.7554C9.48486 10.6201 8.55713 9.70459 7.43408 9.70459C6.32324 9.70459 5.3833 10.6445 5.3833 11.7554C5.3833 12.8906 6.29883 13.8062 7.43408 13.8062ZM19.0918 13.8062C20.2393 13.8062 21.1426 12.9028 21.1426 11.7554C21.1426 10.6201 20.2148 9.70459 19.0918 9.70459C17.981 9.70459 17.041 10.6445 17.041 11.7554C17.041 12.8906 17.9565 13.8062 19.0918 13.8062ZM7.43408 20.5933C8.56934 20.5933 9.48486 19.6899 9.48486 18.5425C9.48486 17.4072 8.55713 16.4795 7.43408 16.4795C6.32324 16.4795 5.3833 17.4194 5.3833 18.5425C5.3833 19.6655 6.31104 20.5933 7.43408 20.5933ZM19.0918 20.5933C19.4214 20.5933 19.7266 20.5078 19.9951 20.3735L21.1182 18.3472L21.1182 18.2861C20.9961 17.2729 20.1416 16.4795 19.0918 16.4795C17.981 16.4795 17.041 17.4194 17.041 18.5425C17.041 19.6655 17.9688 20.5933 19.0918 20.5933ZM13.2568 23.9746C14.4043 23.9746 15.3198 23.0591 15.3198 21.9116C15.3198 20.7886 14.3921 19.8608 13.2568 19.8608C12.146 19.8608 11.2061 20.8008 11.2061 21.9116C11.2061 23.0469 12.1338 23.9746 13.2568 23.9746Z" fill="#5ac8f5" fill-opacity="0.5"/>
  <path d="M13.2568 3.21045C14.1724 3.21045 14.8682 2.51465 14.8682 1.61133C14.8682 0.720215 14.1479 0 13.2568 0C12.3901 0 11.6577 0.732422 11.6577 1.61133C11.6577 2.50244 12.3779 3.21045 13.2568 3.21045ZM7.43408 6.57959C8.3374 6.57959 9.0332 5.87158 9.0332 4.96826C9.0332 4.07715 8.3252 3.36914 7.43408 3.36914C6.55518 3.36914 5.83496 4.08936 5.83496 4.96826C5.83496 5.85938 6.54297 6.57959 7.43408 6.57959ZM19.0918 6.57959C19.9951 6.57959 20.6909 5.87158 20.6909 4.96826C20.6909 4.07715 19.9829 3.36914 19.0918 3.36914C18.2129 3.36914 17.4927 4.08936 17.4927 4.96826C17.4927 5.85938 18.2007 6.57959 19.0918 6.57959ZM1.61133 9.98535C2.51465 9.98535 3.21045 9.27734 3.21045 8.37402C3.21045 7.48291 2.49023 6.7749 1.61133 6.7749C0.732422 6.7749 0 7.49512 0 8.37402C0 9.26514 0.720215 9.98535 1.61133 9.98535ZM24.8779 9.98535C25.7812 9.98535 26.4771 9.27734 26.4771 8.37402C26.4771 7.48291 25.769 6.7749 24.8779 6.7749C23.999 6.7749 23.2666 7.50732 23.2666 8.37402C23.2666 9.26514 23.9868 9.98535 24.8779 9.98535ZM1.61133 16.748C2.51465 16.748 3.21045 16.0522 3.21045 15.1489C3.21045 14.2578 2.49023 13.5498 1.61133 13.5498C0.732422 13.5498 0 14.27 0 15.1489C0 16.04 0.720215 16.748 1.61133 16.748ZM26.3428 15.7837C26.4282 15.5884 26.4771 15.3687 26.4771 15.1489C26.4771 14.2578 25.769 13.5498 24.8779 13.5498C23.999 13.5498 23.2666 14.27 23.2666 15.1489C23.2666 15.3442 23.3154 15.5518 23.4009 15.7715C23.8525 15.564 24.353 15.4297 24.8779 15.4297C25.3906 15.4297 25.9033 15.564 26.3428 15.7837ZM1.61133 23.5229C2.51465 23.5229 3.21045 22.8271 3.21045 21.9116C3.21045 21.0327 2.49023 20.3125 1.61133 20.3125C0.732422 20.3125 0 21.0449 0 21.9116C0 22.8149 0.708008 23.5229 1.61133 23.5229ZM7.43408 26.9287C8.3374 26.9287 9.0332 26.2329 9.0332 25.3296C9.0332 24.4385 8.3252 23.7183 7.43408 23.7183C6.55518 23.7183 5.83496 24.4507 5.83496 25.3296C5.83496 26.2207 6.54297 26.9287 7.43408 26.9287ZM13.2568 30.2856C14.1724 30.2856 14.8682 29.5898 14.8682 28.6865C14.8682 27.7954 14.1479 27.0874 13.2568 27.0874C12.3901 27.0874 11.6577 27.8076 11.6577 28.6865C11.6577 29.5776 12.3779 30.2856 13.2568 30.2856Z" fill="#5ac8f5" fill-opacity="0.5"/>
  <path d="M19.5801 29.834L30.1514 29.834C31.1646 29.834 31.8115 29.126 31.8115 28.1982C31.8115 27.9175 31.7383 27.6489 31.5796 27.3804L26.2817 17.9321C25.9644 17.3706 25.415 17.1021 24.8779 17.1021C24.3164 17.1021 23.7549 17.3706 23.4497 17.9321L18.1641 27.3926C18.0054 27.6489 17.9321 27.9175 17.9321 28.1982C17.9321 29.126 18.5669 29.834 19.5801 29.834Z" fill="#5ac8f5"/>
  <path d="M24.8657 27.9785C24.3042 27.9785 23.8403 27.5146 23.8403 26.9409C23.8403 26.3794 24.3164 25.9155 24.8657 25.9155C25.4395 25.9155 25.9033 26.3916 25.9033 26.9409C25.9033 27.5146 25.4395 27.9785 24.8657 27.9785ZM24.8779 25.061C24.4507 25.061 24.1455 24.7681 24.1333 24.353L24.0356 20.874C24.0234 20.3735 24.3652 20.0317 24.8779 20.0317C25.3784 20.0317 25.7202 20.3735 25.708 20.874L25.6104 24.353C25.5981 24.7681 25.3052 25.061 24.8779 25.061Z" fill="#1e1e1e"/>
 </g>
</svg>
