<?xml version="1.0" encoding="UTF-8"?>
<!--Generator: Apple Native CoreSVG 175.5-->
<!DOCTYPE svg
PUBLIC "-//W3C//DTD SVG 1.1//EN"
       "http://www.w3.org/Graphics/SVG/1.1/DTD/svg11.dtd">
<svg version="1.1" xmlns="http://www.w3.org/2000/svg" xmlns:xlink="http://www.w3.org/1999/xlink" width="24.9023" height="24.9146">
 <g>
  <rect height="24.9146" opacity="0" width="24.9023" x="0" y="0"/>
  <path d="M12.4512 24.9023C19.2627 24.9023 24.9023 19.2505 24.9023 12.4512C24.9023 5.63965 19.2505 0 12.439 0C5.63965 0 0 5.63965 0 12.4512C0 19.2505 5.65186 24.9023 12.4512 24.9023ZM12.4512 22.8271C6.68945 22.8271 2.0874 18.2129 2.0874 12.4512C2.0874 6.68945 6.67725 2.0752 12.439 2.0752C18.2007 2.0752 22.8271 6.68945 22.8271 12.4512C22.8271 18.2129 18.2129 22.8271 12.4512 22.8271ZM4.57764 16.1743C5.01709 16.1743 5.22461 15.9058 5.22461 15.4663L5.22461 10.9863L5.28564 10.9863L6.20117 15.332C6.28662 15.7715 6.50635 16.04 6.92139 16.04C7.33643 16.04 7.58057 15.7349 7.65381 15.332L8.55713 10.9863L8.59375 10.9863L8.59375 15.4663C8.59375 15.8813 8.78906 16.1743 9.26514 16.1743C9.74121 16.1743 9.93652 15.8813 9.93652 15.4663L9.93652 9.76562C9.93652 9.24072 9.63135 8.72803 8.8501 8.72803C8.30078 8.72803 7.92236 8.94775 7.80029 9.57031L6.92139 13.9404L6.90918 13.9404L6.01807 9.57031C5.9082 8.94775 5.54199 8.72803 4.98047 8.72803C4.26025 8.72803 3.90625 9.13086 3.90625 9.76562L3.90625 15.4663C3.90625 15.8813 4.10156 16.1743 4.57764 16.1743ZM11.8774 16.1499C12.3779 16.1499 12.6343 15.8691 12.6343 15.3687L12.6343 13.7817L13.3179 13.7817C14.7095 13.7817 15.4053 12.6221 15.4053 11.3159C15.4053 9.93652 14.7095 8.83789 13.4277 8.83789L11.8774 8.83789C11.377 8.83789 11.1084 9.13086 11.1084 9.64355L11.1084 15.3687C11.1084 15.9058 11.4258 16.1499 11.8774 16.1499ZM12.6343 12.6099L12.6343 10.022L13.0127 10.022C13.6719 10.022 13.9038 10.5347 13.9038 11.3159C13.9038 12.0239 13.7207 12.6099 13.0005 12.6099ZM17.1509 16.1743C17.6758 16.1743 17.9077 15.8203 17.9077 15.3687L17.9077 13.0249L19.458 13.0249L19.458 15.3687C19.458 15.8691 19.7144 16.1743 20.2148 16.1743C20.6909 16.1743 20.9717 15.918 20.9717 15.3687L20.9717 9.53369C20.9717 9.00879 20.7275 8.72803 20.2148 8.72803C19.7266 8.72803 19.458 9.021 19.458 9.53369L19.458 11.7798L17.9077 11.7798L17.9077 9.53369C17.9077 9.0332 17.6514 8.72803 17.1509 8.72803C16.626 8.72803 16.3818 9.021 16.3818 9.53369L16.3818 15.3687C16.3818 15.8813 16.626 16.1743 17.1509 16.1743Z" fill="#5ac8f5"/>
 </g>
</svg>
