<?xml version="1.0" encoding="UTF-8"?>
<!--Generator: Apple Native CoreSVG 175.5-->
<!DOCTYPE svg
PUBLIC "-//W3C//DTD SVG 1.1//EN"
       "http://www.w3.org/Graphics/SVG/1.1/DTD/svg11.dtd">
<svg version="1.1" xmlns="http://www.w3.org/2000/svg" xmlns:xlink="http://www.w3.org/1999/xlink" width="16.4551" height="26.2329">
 <g>
  <rect height="26.2329" opacity="0" width="16.4551" x="0" y="0"/>
  <path d="M1.29395 26.1841C1.89209 26.1841 2.24609 25.8423 3.34473 24.7803L8.11768 20.0806C8.17871 20.0195 8.28857 20.0195 8.3374 20.0806L13.1104 24.7803C14.209 25.8423 14.563 26.1841 15.1611 26.1841C15.979 26.1841 16.4551 25.647 16.4551 24.6948L16.4551 3.50342C16.4551 1.18408 15.2954 0 13.0005 0L3.45459 0C1.15967 0 0 1.18408 0 3.50342L0 24.6948C0 25.647 0.476074 26.1841 1.29395 26.1841Z" fill="#5ac8f5"/>
 </g>
</svg>
