<?xml version="1.0" encoding="UTF-8"?>
<!--Generator: Apple Native CoreSVG 175.5-->
<!DOCTYPE svg
PUBLIC "-//W3C//DTD SVG 1.1//EN"
       "http://www.w3.org/Graphics/SVG/1.1/DTD/svg11.dtd">
<svg version="1.1" xmlns="http://www.w3.org/2000/svg" xmlns:xlink="http://www.w3.org/1999/xlink" width="28.2593" height="23.6694">
 <g>
  <rect height="23.6694" opacity="0" width="28.2593" x="0" y="0"/>
  <path d="M3.77197 23.6572L24.4873 23.6572C27.0142 23.6572 28.2593 22.4365 28.2593 19.9341L28.2593 8.05664C28.2593 5.5542 27.0142 4.3335 24.4873 4.3335L3.77197 4.3335C1.25732 4.3335 0 5.5542 0 8.05664L0 19.9341C0 22.4365 1.25732 23.6572 3.77197 23.6572ZM3.79639 21.7041C2.6001 21.7041 1.96533 21.0938 1.96533 19.8364L1.96533 8.1543C1.96533 6.90918 2.6001 6.28662 3.79639 6.28662L24.4629 6.28662C25.6592 6.28662 26.2939 6.90918 26.2939 8.1543L26.2939 19.8364C26.2939 21.0938 25.6592 21.7041 24.4629 21.7041ZM7.93457 5.39551L9.82666 5.39551L9.82666 3.23486C9.82666 2.30713 10.376 1.78223 11.3281 1.78223L16.9312 1.78223C17.8833 1.78223 18.4204 2.30713 18.4204 3.23486L18.4204 5.37109L20.3125 5.37109L20.3125 3.36914C20.3125 1.07422 19.104 0 16.8945 0L11.3525 0C9.26514 0 7.93457 1.07422 7.93457 3.36914Z" fill="#5ac8f5" fill-opacity="0.5"/>
  <path d="M8.44727 15.0757C8.44727 15.6982 8.87451 16.1255 9.49707 16.1255L11.9873 16.1255L11.9873 18.6035C11.9873 19.2505 12.4023 19.6655 13.0371 19.6655L15.2222 19.6655C15.8569 19.6655 16.272 19.2505 16.272 18.6035L16.272 16.1255L18.7622 16.1255C19.397 16.1255 19.8242 15.6982 19.8242 15.0757L19.8242 12.8906C19.8242 12.2559 19.397 11.8286 18.7622 11.8286L16.272 11.8286L16.272 9.36279C16.272 8.71582 15.8569 8.30078 15.2222 8.30078L13.0371 8.30078C12.4023 8.30078 11.9873 8.71582 11.9873 9.36279L11.9873 11.8286L9.49707 11.8286C8.8623 11.8286 8.44727 12.2559 8.44727 12.8906Z" fill="#5ac8f5"/>
 </g>
</svg>
