<?xml version="1.0" encoding="UTF-8"?>
<!--Generator: Apple Native CoreSVG 175.5-->
<!DOCTYPE svg
PUBLIC "-//W3C//DTD SVG 1.1//EN"
       "http://www.w3.org/Graphics/SVG/1.1/DTD/svg11.dtd">
<svg version="1.1" xmlns="http://www.w3.org/2000/svg" xmlns:xlink="http://www.w3.org/1999/xlink" width="37.8052" height="28.8208">
 <g>
  <rect height="28.8208" opacity="0" width="37.8052" x="0" y="0"/>
  <path d="M26.0376 26.1353C28.5522 26.1353 29.4312 24.8413 29.4312 23.4131C29.4312 20.7886 27.1606 19.3604 22.6196 19.3604C21.5942 19.3604 21.0083 19.4214 20.5566 19.4824L19.6655 17.334C17.8223 12.9028 14.8804 11.3892 11.8774 11.3892C11.3892 11.3892 10.8276 11.4014 10.3271 11.5112C9.729 11.6455 9.49707 11.9629 9.49707 12.3657C9.49707 12.8296 9.83887 13.1348 10.3394 13.1226C10.8643 13.0981 11.1938 13.0371 11.792 13.0371C14.563 13.0371 16.5283 14.5386 18.2983 18.5425L19.4702 21.2646C20.3979 21.0693 21.2769 20.9229 22.6685 20.9229C25.1465 20.9229 27.6245 21.582 27.6245 23.2666C27.6245 23.9136 27.0508 24.353 26.0376 24.353C24.8413 24.353 23.9868 24.0479 22.9248 24.0479C21.3867 24.0479 20.4346 24.292 19.751 24.292C19.1895 24.292 18.5791 24.2065 17.9565 23.7061L12.5 19.104C8.59375 19.2749 5.7373 18.2495 4.07715 15.8569C2.83203 16.0034 1.92871 15.5273 1.92871 14.502C1.92871 13.5742 2.74658 12.9272 4.08936 13.0005C5.34668 8.87451 8.09326 6.95801 11.8896 6.95801C15.8691 6.95801 19.9707 10.1685 22.9614 11.853C23.7671 12.3413 24.6582 12.5 25.2686 12.5C26.5991 12.5 27.6611 11.6577 28.6133 9.94873L20.4834 4.94385C19.6167 4.41895 18.396 3.479 18.396 3.14941C18.396 2.4292 20.0806 1.89209 21.3135 1.89209C23.2422 1.89209 24.8535 3.06396 26.3428 4.84619L30.0903 9.32617C33.5327 9.16748 36.145 11.8042 36.145 15.1733C36.145 17.334 35.1318 17.9932 32.5684 17.9932C30.9692 17.9932 29.2114 17.3462 27.6855 16.3818C25.3662 16.9678 22.937 18.0908 21.0083 19.5557L22.3877 20.3613C24.2676 19.2749 26.1963 18.4692 27.3682 18.042C28.833 19.0186 30.9448 19.6045 32.5073 19.5923C35.8032 19.5679 37.8052 18.5425 37.8052 15.1611C37.8052 11.0107 34.6436 7.88574 30.9326 7.84912L28.2837 4.24805C26.2451 1.52588 24.0723 0 21.2891 0C19.1284 0 16.1865 1.19629 16.1865 2.89307C16.1865 4.30908 17.7979 5.32227 19.3726 6.31104C21.2036 7.4585 23.6694 8.88672 25.9644 10.2173C25.6592 10.498 25.4272 10.6201 25.1221 10.6201C24.7437 10.6201 24.2432 10.437 23.5962 10.0586C18.6646 7.27539 15.7104 5.01709 11.9141 5.01709C7.37305 5.01709 4.10156 7.34863 2.55127 11.8164C1.0376 12.1338 0 13.1226 0 14.6484C0 16.5405 1.53809 17.5171 3.11279 17.6025C4.27246 19.4946 7.50732 21.167 11.6699 20.8252L17.0044 25.2319C17.7124 25.8179 18.4814 26.1353 19.7021 26.1353C20.7275 26.1353 21.5332 25.7935 22.9858 25.7935C24.3042 25.7935 24.9756 26.1353 26.0376 26.1353ZM11.1206 27.4536C13.6963 27.4536 16.0034 26.7944 17.8345 24.7559L16.3208 23.7305C15.2222 25.0977 13.3667 25.7935 11.0596 25.7935C9.35059 25.7935 8.25195 25.1831 8.25195 24.2065C8.25195 23.7183 8.56934 23.3398 9.27734 23.3398C9.97314 23.3398 10.7422 23.5352 11.5845 23.5352C13.0249 23.5352 13.9038 23.3765 14.8438 22.4121L13.5254 21.2524C12.8906 21.875 12.4634 21.9971 11.8896 21.9971C11.084 21.9849 10.3027 21.7285 9.375 21.7285C7.67822 21.7285 6.49414 22.7173 6.49414 24.1943C6.49414 26.2817 8.3374 27.4536 11.1206 27.4536ZM31.7505 14.4043C32.3608 14.4043 32.8613 13.9038 32.8613 13.3057C32.8613 12.7075 32.3608 12.207 31.7505 12.207C31.1523 12.207 30.6519 12.7075 30.6519 13.3057C30.6519 13.9038 31.1523 14.4043 31.7505 14.4043Z" fill="#5ac8f5"/>
 </g>
</svg>
