<?xml version="1.0" encoding="UTF-8"?>
<!--Generator: Apple Native CoreSVG 175.5-->
<!DOCTYPE svg
PUBLIC "-//W3C//DTD SVG 1.1//EN"
       "http://www.w3.org/Graphics/SVG/1.1/DTD/svg11.dtd">
<svg version="1.1" xmlns="http://www.w3.org/2000/svg" xmlns:xlink="http://www.w3.org/1999/xlink" width="29.8462" height="25.9155">
 <g>
  <rect height="25.9155" opacity="0" width="29.8462" x="0" y="0"/>
  <path d="M28.8574 25.9033C29.4067 25.9033 29.8462 25.4639 29.8462 24.9268L29.8462 2.49023C29.8462 1.00098 28.8208 0 27.2827 0L2.55127 0C1.02539 0 0 1.00098 0 2.49023L0 24.9268C0 25.4639 0.439453 25.9033 0.976562 25.9033C1.52588 25.9033 1.96533 25.4639 1.96533 24.9268L1.96533 2.6123C1.96533 2.22168 2.22168 1.96533 2.58789 1.96533L27.2583 1.96533C27.6245 1.96533 27.8809 2.22168 27.8809 2.6123L27.8809 24.9268C27.8809 25.4639 28.3203 25.9033 28.8574 25.9033ZM14.4043 25.4761C14.6362 25.4761 14.8193 25.2808 14.8193 25.061L14.8193 3.79639C14.8193 3.56445 14.6362 3.38135 14.4043 3.38135L3.80859 3.38135C3.57666 3.38135 3.39355 3.56445 3.39355 3.79639L3.39355 25.061C3.39355 25.2808 3.57666 25.4761 3.80859 25.4761ZM12.0605 16.3452C11.7065 16.3452 11.4624 16.1011 11.4624 15.7471L11.4624 13.6108C11.4624 13.2568 11.7065 13.0249 12.0605 13.0249C12.4023 13.0249 12.6465 13.2568 12.6465 13.6108L12.6465 15.7471C12.6465 16.1011 12.4023 16.3452 12.0605 16.3452Z" fill="#5ac8f5"/>
 </g>
</svg>
