<?xml version="1.0" encoding="UTF-8"?>
<!--Generator: Apple Native CoreSVG 175.5-->
<!DOCTYPE svg
PUBLIC "-//W3C//DTD SVG 1.1//EN"
       "http://www.w3.org/Graphics/SVG/1.1/DTD/svg11.dtd">
<svg version="1.1" xmlns="http://www.w3.org/2000/svg" xmlns:xlink="http://www.w3.org/1999/xlink" width="26.9043" height="26.9653">
 <g>
  <rect height="26.9653" opacity="0" width="26.9043" x="0" y="0"/>
  <path d="M7.25098 26.9653C7.72705 26.9653 8.08105 26.7212 8.65479 26.1841L13.0615 22.1558L21.3135 22.1558C24.9512 22.1558 26.9043 20.1538 26.9043 16.5771L26.9043 7.22656C26.9043 3.6499 24.9512 1.63574 21.3135 1.63574L5.59082 1.63574C1.95312 1.63574 0 3.6377 0 7.22656L0 16.5771C0 20.166 1.95312 22.1558 5.59082 22.1558L6.16455 22.1558L6.16455 25.708C6.16455 26.4648 6.55518 26.9653 7.25098 26.9653Z" fill="#5ac8f5" fill-opacity="0.25"/>
  <path d="M13.0615 17.5537C12.7441 17.5537 12.5 17.4438 12.207 17.1631L9.47266 14.5508C9.42383 14.5142 9.36279 14.502 9.30176 14.502L7.4585 14.502C6.5918 14.502 6.10352 14.0137 6.10352 13.0981L6.10352 10.6934C6.10352 9.77783 6.5918 9.28955 7.4585 9.28955L9.30176 9.28955C9.36279 9.28955 9.42383 9.27734 9.47266 9.24072L12.207 6.65283C12.5366 6.34766 12.7319 6.21338 13.0371 6.21338C13.4644 6.21338 13.7817 6.55518 13.7817 6.97021L13.7817 16.8335C13.7817 17.2485 13.4644 17.5537 13.0615 17.5537Z" fill="#5ac8f5"/>
  <path d="M15.9058 14.7217C15.5884 14.4775 15.5273 14.0991 15.7593 13.7573C16.0889 13.2812 16.2964 12.5854 16.2964 11.8774C16.2964 11.145 16.1011 10.4492 15.7593 10.0098C15.5273 9.68018 15.5884 9.28955 15.9058 9.04541C16.1865 8.82568 16.5894 8.91113 16.8091 9.2041C17.3096 9.8999 17.6147 10.8887 17.6147 11.8774C17.6147 12.915 17.3218 13.8916 16.8091 14.563C16.5771 14.8438 16.1865 14.9414 15.9058 14.7217Z" fill="#5ac8f5"/>
  <path d="M18.1396 16.3818C17.8101 16.1865 17.7612 15.7715 17.9932 15.4419C18.689 14.5264 19.0674 13.208 19.0674 11.8774C19.0674 10.5347 18.689 9.26514 18.0054 8.30078C17.7734 7.9834 17.8345 7.59277 18.1396 7.36084C18.4326 7.15332 18.8232 7.22656 19.043 7.54395C19.9097 8.76465 20.3735 10.3027 20.3735 11.8774C20.3735 13.4888 19.8853 15.0269 19.0308 16.2231C18.8354 16.5161 18.457 16.5894 18.1396 16.3818Z" fill="#5ac8f5"/>
 </g>
</svg>
