<?xml version="1.0" encoding="UTF-8"?>
<!--Generator: Apple Native CoreSVG 175.5-->
<!DOCTYPE svg
PUBLIC "-//W3C//DTD SVG 1.1//EN"
       "http://www.w3.org/Graphics/SVG/1.1/DTD/svg11.dtd">
<svg version="1.1" xmlns="http://www.w3.org/2000/svg" xmlns:xlink="http://www.w3.org/1999/xlink" width="28.8818" height="22.6929">
 <g>
  <rect height="22.6929" opacity="0" width="28.8818" x="0" y="0"/>
  <path d="M5.7251 7.67822C5.62744 8.10547 5.81055 8.27637 6.27441 8.25195C8.22754 8.11768 10.5469 8.00781 14.4409 8.00781C18.3472 8.00781 20.6665 8.11768 22.6196 8.25195C23.0713 8.27637 23.2544 8.10547 23.1567 7.67822C22.8638 6.38428 22.3022 4.69971 21.9116 4.02832C21.5942 3.479 21.2402 3.23486 20.6055 3.14941C19.7266 3.02734 17.7246 2.94189 14.4409 2.94189C11.1694 2.94189 9.16748 3.02734 8.27637 3.14941C7.6416 3.23486 7.2876 3.479 6.97021 4.02832C6.57959 4.69971 6.03027 6.38428 5.7251 7.67822ZM5.63965 15.9912C6.75049 15.9912 7.60498 15.1367 7.60498 14.0259C7.60498 12.9028 6.75049 12.0605 5.63965 12.0605C4.52881 12.0605 3.67432 12.9028 3.67432 14.0259C3.67432 15.1367 4.52881 15.9912 5.63965 15.9912ZM11.2183 15.5029L17.6758 15.5029C18.5059 15.5029 19.0796 14.9292 19.0796 14.0869C19.0796 13.2568 18.5059 12.6831 17.6758 12.6831L11.2183 12.6831C10.376 12.6831 9.80225 13.2568 9.80225 14.0869C9.80225 14.9292 10.376 15.5029 11.2183 15.5029ZM23.2422 15.9912C24.3652 15.9912 25.2075 15.1367 25.2075 14.0259C25.2075 12.9028 24.3652 12.0605 23.2422 12.0605C22.1313 12.0605 21.2891 12.9028 21.2891 14.0259C21.2891 15.1367 22.1313 15.9912 23.2422 15.9912ZM14.4409 19.2871C18.5425 19.2871 23.999 19.0796 26.3062 18.811C27.9663 18.6279 28.8818 17.7124 28.8818 16.1499L28.8818 14.0015C28.8818 11.9385 28.4668 10.791 27.3438 9.32617L26.3062 7.99561C25.8667 5.79834 25.0488 3.49121 24.6338 2.58789C23.9746 1.2085 22.7173 0.390625 21.0938 0.170898C20.2759 0.0610352 17.6025 0 14.4409 0C11.2915 0 8.61816 0.0732422 7.80029 0.170898C6.17676 0.366211 4.90723 1.2085 4.26025 2.58789C3.83301 3.49121 3.02734 5.79834 2.57568 7.99561L1.55029 9.32617C0.415039 10.791 0 11.9385 0 14.0015L0 16.1499C0 17.7124 0.927734 18.6279 2.57568 18.811C4.89502 19.0796 10.3394 19.2871 14.4409 19.2871ZM14.4409 17.688C10.2905 17.688 4.96826 17.4927 3.00293 17.2485C1.96533 17.1265 1.59912 16.5894 1.59912 15.6616L1.59912 14.0015C1.59912 12.3291 1.86768 11.5479 2.81982 10.3027L4.06494 8.66699C4.39453 6.89697 5.18799 4.43115 5.71289 3.30811C6.10352 2.46582 6.87256 1.94092 7.9834 1.80664C8.76465 1.70898 11.2427 1.59912 14.4409 1.59912C17.6514 1.59912 20.166 1.70898 20.874 1.80664C22.0215 1.95312 22.7783 2.47803 23.1812 3.30811C23.7061 4.43115 24.4995 6.89697 24.8169 8.66699L26.0742 10.3027C27.0142 11.5479 27.2827 12.3291 27.2827 14.0015L27.2827 15.6616C27.2827 16.5894 26.9165 17.1265 25.8789 17.2485C23.9258 17.4927 18.5913 17.688 14.4409 17.688ZM2.24609 22.644L3.67432 22.644C4.58984 22.644 5.29785 21.936 5.29785 21.0327L5.29785 18.1274L0.622559 17.4561L0.622559 21.0327C0.622559 21.936 1.33057 22.644 2.24609 22.644ZM25.2075 22.644L26.6479 22.644C27.5635 22.644 28.2593 21.936 28.2593 21.0327L28.2593 17.4561L23.5962 18.1274L23.5962 21.0327C23.5962 21.936 24.292 22.644 25.2075 22.644Z" fill="#5ac8f5"/>
 </g>
</svg>
