<?xml version="1.0" encoding="UTF-8"?>
<!--Generator: Apple Native CoreSVG 175.5-->
<!DOCTYPE svg
PUBLIC "-//W3C//DTD SVG 1.1//EN"
       "http://www.w3.org/Graphics/SVG/1.1/DTD/svg11.dtd">
<svg version="1.1" xmlns="http://www.w3.org/2000/svg" xmlns:xlink="http://www.w3.org/1999/xlink" width="20.0343" height="21.6431">
 <g>
  <rect height="21.6431" opacity="0" width="20.0343" x="0" y="0"/>
  <path d="M15.5762 15.7471C17.1753 15.7471 18.9087 14.7949 19.2871 12.7441L19.9341 9.24072C20.6055 5.59082 17.8467 2.86865 13.4033 1.33057C10.7666 0.415039 8.19092 0 5.59082 0C4.80957 0 4.54102 0.280762 4.54102 0.793457C4.54102 2.05078 5.2002 2.99072 6.45752 3.17383C8.52051 3.49121 10.083 3.90625 11.731 4.6875C12.3901 4.99268 12.6465 5.44434 12.5244 6.11572L11.731 10.9131C11.2793 13.6353 13.1104 15.7471 15.5762 15.7471ZM15.5762 13.8794C14.4409 13.8794 13.5376 12.9761 13.5376 11.8408C13.5376 10.7056 14.4409 9.80225 15.5762 9.80225C16.7114 9.80225 17.6147 10.6934 17.6147 11.8408C17.6147 12.9883 16.7114 13.8794 15.5762 13.8794ZM15.5762 13.0127C16.2354 13.0127 16.748 12.5 16.748 11.8408C16.748 11.1938 16.2354 10.6689 15.5762 10.6689C14.917 10.6689 14.4043 11.1938 14.4043 11.8408C14.4043 12.5 14.917 13.0127 15.5762 13.0127ZM15.5762 16.9312C12.3047 16.9312 9.99756 14.0869 10.5713 10.7178L11.0474 7.83691C8.43506 8.5083 6.54297 9.61914 5.74951 11.3159C6.44531 14.4165 7.56836 17.2852 9.14307 20.0317C9.91211 20.4224 10.7178 20.5688 11.8042 20.5688C15.979 20.5688 19.6533 18.5425 19.9097 14.4775C19.0552 15.979 17.4438 16.9312 15.5762 16.9312Z" fill="#5ac8f5"/>
  <path d="M0 16.4185C0 19.5312 2.06299 21.6187 5.16357 21.6187C6.39648 21.6187 7.51953 21.2158 8.19092 20.7397C6.50635 17.8467 5.31006 14.7461 4.55322 11.4502C2.24609 11.6821 0 13.5742 0 16.4185Z" fill="#5ac8f5" fill-opacity="0.5"/>
  <path d="M15.5762 13.8794C14.4409 13.8794 13.5376 12.9761 13.5376 11.8408C13.5376 10.7056 14.4409 9.80225 15.5762 9.80225C16.7114 9.80225 17.6147 10.6934 17.6147 11.8408C17.6147 12.9883 16.7114 13.8794 15.5762 13.8794ZM15.5762 13.0127C16.2354 13.0127 16.748 12.5 16.748 11.8408C16.748 11.1938 16.2354 10.6689 15.5762 10.6689C14.917 10.6689 14.4043 11.1938 14.4043 11.8408C14.4043 12.5 14.917 13.0127 15.5762 13.0127Z" fill="#5ac8f5" fill-opacity="0.25"/>
 </g>
</svg>
