<?xml version="1.0" encoding="UTF-8"?>
<!--Generator: Apple Native CoreSVG 175.5-->
<!DOCTYPE svg
PUBLIC "-//W3C//DTD SVG 1.1//EN"
       "http://www.w3.org/Graphics/SVG/1.1/DTD/svg11.dtd">
<svg version="1.1" xmlns="http://www.w3.org/2000/svg" xmlns:xlink="http://www.w3.org/1999/xlink" width="21.6246" height="24.6948">
 <g>
  <rect height="24.6948" opacity="0" width="21.6246" x="0" y="0"/>
  <path d="M10.815 24.6826C11.3521 24.6826 11.6695 24.3042 11.6695 23.7793L11.6695 21.1304L13.7691 22.3267C14.2208 22.5708 14.6846 22.5342 14.941 22.0825C15.1607 21.7041 15.0264 21.228 14.5626 20.9717L11.6695 19.3237L11.6695 17.7734L11.4253 13.4155L15.0997 15.7959L16.4546 16.5649L16.4302 19.8975C16.418 20.4224 16.7598 20.8008 17.1871 20.8008C17.712 20.8008 17.9805 20.4102 17.9805 19.8975L17.9927 17.4561L20.2999 18.7988C20.7759 19.0796 21.2276 18.9575 21.4839 18.5181C21.7403 18.0542 21.606 17.5781 21.1543 17.3218L18.8472 15.9912L20.9468 14.7583C21.3863 14.4897 21.5816 14.0747 21.3252 13.6353C21.0811 13.2446 20.6172 13.1348 20.1656 13.4033L17.2969 15.0879L15.9419 14.3188L11.9991 12.3413L15.9542 10.3638L17.2847 9.58252L20.1534 11.2671C20.605 11.5356 21.1055 11.4258 21.3375 11.0474C21.5816 10.6079 21.3863 10.1807 20.9468 9.91211L18.8472 8.69141L21.1543 7.36084C21.6182 7.09229 21.7525 6.62842 21.4961 6.16455C21.2398 5.7251 20.7637 5.60303 20.3121 5.88379L17.9927 7.20215L17.9683 4.77295C17.9683 4.24805 17.712 3.88184 17.1993 3.88184C16.7476 3.88184 16.418 4.24805 16.4302 4.77295L16.4424 8.09326L15.0997 8.87451L11.4253 11.2671L11.6695 6.89697L11.6695 5.34668L14.5626 3.71094C15.0264 3.44238 15.1607 2.97852 14.941 2.58789C14.6846 2.14844 14.2208 2.09961 13.7691 2.35596L11.6695 3.55225L11.6695 0.891113C11.6695 0.366211 11.3521 0 10.815 0C10.3023 0 9.97271 0.366211 9.97271 0.891113L9.97271 3.55225L7.83648 2.35596C7.38482 2.09961 6.94536 2.14844 6.67681 2.58789C6.45708 2.97852 6.60357 3.44238 7.06743 3.69873L9.97271 5.34668L9.97271 6.89697L10.2046 11.2671L6.53032 8.87451L5.17534 8.09326L5.19976 4.77295C5.21196 4.24805 4.88237 3.88184 4.44292 3.88184C3.91802 3.88184 3.64946 4.26025 3.64946 4.77295L3.63726 7.20215L1.31792 5.88379C0.878469 5.61523 0.37798 5.7251 0.13384 6.16455C-0.134715 6.62842 0.0117694 7.10449 0.475637 7.36084L2.77056 8.69141L0.683156 9.91211C0.243703 10.1807 0.0483904 10.5713 0.292531 11.0474C0.512258 11.438 1.01275 11.5356 1.47661 11.2671L4.33306 9.59473L5.67583 10.3638L9.6187 12.3413L5.67583 14.3188L4.33306 15.1001L1.46441 13.4033C1.01275 13.1348 0.524465 13.2446 0.316945 13.623C0.0605975 14.0991 0.243703 14.4897 0.683156 14.7583L2.78277 15.9912L0.475637 17.3218C0.0239764 17.5781-0.122508 18.0664 0.13384 18.5059C0.402394 18.9697 0.878469 19.0674 1.31792 18.7988L3.63726 17.4805L3.64946 19.8975C3.64946 20.4102 3.91802 20.8008 4.43071 20.8008C4.87017 20.8008 5.21196 20.4224 5.19976 19.8975L5.18755 16.5649L6.53032 15.8081L10.2046 13.4155L9.97271 17.7734L9.97271 19.3237L7.06743 20.9717C6.60357 21.228 6.45708 21.7041 6.67681 22.0825C6.94536 22.5342 7.38482 22.5708 7.83648 22.3267L9.97271 21.1182L9.97271 23.7793C9.97271 24.3042 10.3023 24.6826 10.815 24.6826Z" fill="#5ac8f5"/>
 </g>
</svg>
