<?xml version="1.0" encoding="UTF-8"?>
<!--Generator: Apple Native CoreSVG 175.5-->
<!DOCTYPE svg
PUBLIC "-//W3C//DTD SVG 1.1//EN"
       "http://www.w3.org/Graphics/SVG/1.1/DTD/svg11.dtd">
<svg version="1.1" xmlns="http://www.w3.org/2000/svg" xmlns:xlink="http://www.w3.org/1999/xlink" width="17.2684" height="32.9224">
 <g>
  <rect height="32.9224" opacity="0" width="17.2684" x="0" y="0"/>
  <path d="M13.5617 8.61816C15.0266 8.61816 16.2107 7.42187 16.2107 5.93262C16.2107 4.47998 15.0266 3.28369 13.5617 3.28369C12.0725 3.28369 10.8762 4.47998 10.8762 5.93262C10.8762 7.42187 12.0725 8.61816 13.5617 8.61816ZM7.4094 32.7881C8.08079 32.7881 8.64231 32.2388 8.64231 31.5552L8.64231 25.4639L11.4988 21.2524C11.6086 21.0815 11.8528 21.1304 11.8772 21.3501L12.3166 25.1099C12.341 25.3174 12.3777 25.4272 12.4753 25.6592L14.8801 31.9946C15.1731 32.7637 15.8811 32.9224 16.4548 32.7148C17.0285 32.4951 17.468 31.9092 17.175 31.1279L14.8069 24.8291L14.8069 13.208C14.8069 11.9019 14.2575 10.5469 13.0002 10.0342L12.2312 9.7168C10.8152 9.13086 9.4846 9.30176 8.28831 10.1562L5.39524 12.2437L2.16038 10.8765L8.58128 1.97754L10.7175 1.97754C11.2668 1.97754 11.7185 1.52588 11.7185 0.98877C11.7185 0.427246 11.2668-3.55271e-15 10.7175-3.55271e-15L8.69114-3.55271e-15C8.47141-3.55271e-15 8.25169 0.0976562 8.11741 0.280762L0.256081 11.1694C-0.171165 11.7554-0.073509 12.6099 0.622292 12.9028L5.06565 14.8071C5.26096 14.8804 5.39524 14.8926 5.676 14.8926L8.6179 14.8926C9.08176 14.8926 9.24046 15.1978 9.24046 15.5396L9.24046 18.9209L6.29856 24.4995C6.1887 24.707 6.16428 24.8657 6.16428 25.0977L6.16428 31.5552C6.16428 32.2388 6.7136 32.7881 7.4094 32.7881Z" fill="#5ac8f5"/>
 </g>
</svg>
