<?xml version="1.0" encoding="UTF-8"?>
<!--Generator: Apple Native CoreSVG 175.5-->
<!DOCTYPE svg
PUBLIC "-//W3C//DTD SVG 1.1//EN"
       "http://www.w3.org/Graphics/SVG/1.1/DTD/svg11.dtd">
<svg version="1.1" xmlns="http://www.w3.org/2000/svg" xmlns:xlink="http://www.w3.org/1999/xlink" width="24.9023" height="24.9146">
 <g>
  <rect height="24.9146" opacity="0" width="24.9023" x="0" y="0"/>
  <path d="M12.4512 24.9023C19.2627 24.9023 24.9023 19.2505 24.9023 12.4512C24.9023 5.63965 19.2505 0 12.439 0C5.63965 0 0 5.63965 0 12.4512C0 19.2505 5.65186 24.9023 12.4512 24.9023ZM5.99365 17.5903C5.54199 17.5903 5.24902 17.2974 5.24902 16.8457C5.24902 16.5894 5.34668 16.3696 5.52979 16.1621L8.8501 12.2559C9.43604 11.5601 10.1074 10.8521 10.1074 10.0342C10.1074 9.10645 9.46045 8.48389 8.43506 8.48389C7.54395 8.48389 6.90918 8.93555 6.57959 9.8877C6.4209 10.2661 6.22559 10.4736 5.85938 10.4736C5.43213 10.4736 5.15137 10.1685 5.15137 9.7168C5.15137 9.57031 5.18799 9.42383 5.2124 9.26514C5.54199 7.9834 6.88477 7.01904 8.37402 7.01904C10.3516 7.01904 11.6455 8.14209 11.6455 9.8999C11.6455 11.1572 10.9497 12.0605 10.0098 13.147L7.55615 16.0034L7.55615 16.1011L11.1938 16.1011C11.5967 16.1011 11.9019 16.3574 11.9019 16.8335C11.9019 17.2852 11.5967 17.5903 11.1938 17.5903ZM16.6504 17.8833C14.4775 17.8833 13.0493 15.8081 13.0493 12.4512C13.0493 9.09424 14.4775 7.01904 16.6504 7.01904C18.811 7.01904 20.2515 9.09424 20.2515 12.4512C20.2515 15.8081 18.811 17.8833 16.6504 17.8833ZM16.6504 16.3452C17.8589 16.3452 18.5913 14.8682 18.5913 12.4512C18.5913 10.0342 17.8467 8.55713 16.6504 8.55713C15.4541 8.55713 14.7095 10.0342 14.7095 12.4512C14.7095 14.8682 15.4541 16.3452 16.6504 16.3452Z" fill="#5ac8f5"/>
 </g>
</svg>
