<?xml version="1.0" encoding="UTF-8"?>
<!--Generator: Apple Native CoreSVG 175.5-->
<!DOCTYPE svg
PUBLIC "-//W3C//DTD SVG 1.1//EN"
       "http://www.w3.org/Graphics/SVG/1.1/DTD/svg11.dtd">
<svg version="1.1" xmlns="http://www.w3.org/2000/svg" xmlns:xlink="http://www.w3.org/1999/xlink" width="20.5322" height="26.1841">
 <g>
  <rect height="26.1841" opacity="0" width="20.5322" x="0" y="0"/>
  <path d="M0 22.3511C0 24.9023 1.25732 26.1719 3.78418 26.1719L16.748 26.1719C19.2749 26.1719 20.5322 24.9023 20.5322 22.3511L20.5322 3.83301C20.5322 1.29395 19.2749 0 16.748 0L3.78418 0C1.25732 0 0 1.29395 0 3.83301ZM1.96533 22.3145L1.96533 3.86963C1.96533 2.64893 2.6123 1.96533 3.88184 1.96533L16.6504 1.96533C17.9199 1.96533 18.5669 2.64893 18.5669 3.86963L18.5669 22.3145C18.5669 23.5352 17.9199 24.2065 16.6504 24.2065L3.88184 24.2065C2.6123 24.2065 1.96533 23.5352 1.96533 22.3145Z" fill="#5ac8f5" fill-opacity="0.5"/>
  <path d="M4.95605 6.68945C5.59082 6.68945 6.09131 6.18896 6.09131 5.5542C6.09131 4.93164 5.59082 4.41895 4.95605 4.41895C4.3457 4.41895 3.8208 4.94385 3.8208 5.5542C3.8208 6.17676 4.3457 6.68945 4.95605 6.68945ZM4.95605 10.4248C5.59082 10.4248 6.09131 9.91211 6.09131 9.28955C6.09131 8.65479 5.59082 8.1665 4.95605 8.1665C4.3335 8.1665 3.8208 8.66699 3.8208 9.28955C3.8208 9.91211 4.3335 10.4248 4.95605 10.4248ZM4.95605 14.3311C5.59082 14.3311 6.09131 13.8184 6.09131 13.1958C6.09131 12.561 5.59082 12.0605 4.95605 12.0605C4.3457 12.0605 3.8208 12.5732 3.8208 13.1958C3.8208 13.8062 4.3457 14.3311 4.95605 14.3311ZM8.39844 6.32324L15.9546 6.32324C16.3696 6.32324 16.7114 5.98145 16.7114 5.5542C16.7114 5.13916 16.3696 4.79736 15.9546 4.79736L8.39844 4.79736C7.9834 4.79736 7.6416 5.13916 7.6416 5.5542C7.6416 5.98145 7.9834 6.32324 8.39844 6.32324ZM8.39844 10.0464L15.9546 10.0464C16.3818 10.0464 16.7114 9.7168 16.7114 9.28955C16.7114 8.8623 16.3818 8.53271 15.9546 8.53271L8.39844 8.53271C7.97119 8.53271 7.6416 8.8623 7.6416 9.28955C7.6416 9.7168 7.97119 10.0464 8.39844 10.0464ZM8.39844 13.9526L15.9546 13.9526C16.3696 13.9526 16.7114 13.6108 16.7114 13.1958C16.7114 12.7808 16.3818 12.439 15.9546 12.439L8.39844 12.439C7.97119 12.439 7.6416 12.7808 7.6416 13.1958C7.6416 13.6108 7.9834 13.9526 8.39844 13.9526Z" fill="#5ac8f5"/>
 </g>
</svg>
