<?xml version="1.0" encoding="UTF-8"?>
<!--Generator: Apple Native CoreSVG 175.5-->
<!DOCTYPE svg
PUBLIC "-//W3C//DTD SVG 1.1//EN"
       "http://www.w3.org/Graphics/SVG/1.1/DTD/svg11.dtd">
<svg version="1.1" xmlns="http://www.w3.org/2000/svg" xmlns:xlink="http://www.w3.org/1999/xlink" width="24.9023" height="24.9146">
 <g>
  <rect height="24.9146" opacity="0" width="24.9023" x="0" y="0"/>
  <path d="M12.4512 24.9023C19.2627 24.9023 24.9023 19.2505 24.9023 12.4512C24.9023 5.63965 19.2505 0 12.439 0C5.63965 0 0 5.63965 0 12.4512C0 19.2505 5.65186 24.9023 12.4512 24.9023Z" fill="#5ac8f5" fill-opacity="0.25"/>
  <path d="M12.4512 18.4448C9.77783 18.4448 7.99561 16.04 7.99561 12.4512C7.99561 8.8623 9.77783 6.45752 12.4512 6.45752C15.1123 6.45752 16.8945 8.8623 16.8945 12.4512C16.8945 16.04 15.1123 18.4448 12.4512 18.4448ZM12.4512 16.8213C13.9404 16.8213 14.9658 15.0757 14.9658 12.4512C14.9658 9.82666 13.9404 8.08105 12.4512 8.08105C10.9497 8.08105 9.93652 9.82666 9.93652 12.4512C9.93652 15.0757 10.9497 16.8213 12.4512 16.8213Z" fill="#5ac8f5"/>
 </g>
</svg>
