<?xml version="1.0" encoding="UTF-8"?>
<!--Generator: Apple Native CoreSVG 175.5-->
<!DOCTYPE svg
PUBLIC "-//W3C//DTD SVG 1.1//EN"
       "http://www.w3.org/Graphics/SVG/1.1/DTD/svg11.dtd">
<svg version="1.1" xmlns="http://www.w3.org/2000/svg" xmlns:xlink="http://www.w3.org/1999/xlink" width="22.4731" height="22.4976">
 <g>
  <rect height="22.4976" opacity="0" width="22.4731" x="0" y="0"/>
  <path d="M3.83301 22.4976L18.6401 22.4976C21.2036 22.4976 22.4731 21.228 22.4731 18.7134L22.4731 3.80859C22.4731 1.29395 21.2036 0.0244141 18.6401 0.0244141L3.83301 0.0244141C1.28174 0.0244141 0 1.28174 0 3.80859L0 18.7134C0 21.2402 1.28174 22.4976 3.83301 22.4976Z" fill="#5ac8f5" fill-opacity="0.25"/>
  <path d="M8.89893 16.8579C8.25195 16.8579 7.89795 16.394 7.89795 15.7227L7.89795 6.37207C7.89795 5.70068 8.25195 5.22461 8.89893 5.22461C9.57031 5.22461 9.92432 5.67627 9.92432 6.37207L9.92432 15.1978L14.6973 15.1978C15.1855 15.1978 15.5396 15.5151 15.5396 16.0278C15.5396 16.5405 15.1855 16.8579 14.6973 16.8579Z" fill="#5ac8f5"/>
 </g>
</svg>
