<?xml version="1.0" encoding="UTF-8"?>
<!--Generator: Apple Native CoreSVG 175.5-->
<!DOCTYPE svg
PUBLIC "-//W3C//DTD SVG 1.1//EN"
       "http://www.w3.org/Graphics/SVG/1.1/DTD/svg11.dtd">
<svg version="1.1" xmlns="http://www.w3.org/2000/svg" xmlns:xlink="http://www.w3.org/1999/xlink" width="21.875" height="23.3521">
 <g>
  <rect height="23.3521" opacity="0" width="21.875" x="0" y="0"/>
  <path d="M3.58887 18.0176C3.58887 19.0918 4.21143 19.751 5.23682 19.751L15.0391 19.751C16.0522 19.751 16.6748 19.0918 16.6748 18.0176L16.6748 15.8691C16.6748 14.7949 16.0522 14.1235 15.0391 14.1235L5.23682 14.1235C4.21143 14.1235 3.58887 14.7949 3.58887 15.8691ZM4.94385 17.9443L4.94385 15.9424C4.94385 15.6616 5.11475 15.4785 5.39551 15.4785L14.8804 15.4785C15.1611 15.4785 15.3198 15.6616 15.3198 15.9424L15.3198 17.9443C15.3198 18.2251 15.1611 18.396 14.8804 18.396L5.39551 18.396C5.11475 18.396 4.94385 18.2251 4.94385 17.9443ZM5.48096 23.3521L14.7827 23.3521C18.2129 23.3521 20.2637 21.2646 20.2637 17.7734L20.2637 5.60303C20.2637 2.11182 18.2129 0.0366211 14.7827 0.0366211L5.48096 0.0366211C2.05078 0.0366211 0 2.11182 0 5.60303L0 17.7734C0 21.2646 2.05078 23.3521 5.48096 23.3521ZM5.39551 21.3867C3.24707 21.3867 1.96533 20.0806 1.96533 17.8589L1.96533 5.57861C1.96533 3.36914 3.24707 2.06299 5.39551 2.06299L14.8682 2.06299C17.0288 2.06299 18.2983 3.36914 18.2983 5.57861L18.2983 17.8589C18.2983 20.0806 17.0288 21.3867 14.8682 21.3867ZM20.0439 10.4126L20.5933 10.4126C21.3745 10.4126 21.875 9.87549 21.875 9.0332L21.875 6.99463C21.875 6.12793 21.3745 5.59082 20.5933 5.59082L20.0439 5.59082Z" fill="#5ac8f5"/>
 </g>
</svg>
