<?xml version="1.0" encoding="UTF-8"?>
<!--Generator: Apple Native CoreSVG 175.5-->
<!DOCTYPE svg
PUBLIC "-//W3C//DTD SVG 1.1//EN"
       "http://www.w3.org/Graphics/SVG/1.1/DTD/svg11.dtd">
<svg version="1.1" xmlns="http://www.w3.org/2000/svg" xmlns:xlink="http://www.w3.org/1999/xlink" width="25.5249" height="23.2056">
 <g>
  <rect height="23.2056" opacity="0" width="25.5249" x="0" y="0"/>
  <path d="M0 19.7632C0 21.6431 1.29395 23.1323 3.36914 23.1323L22.1558 23.1323C24.231 23.1323 25.5249 21.6431 25.5249 19.7632C25.5249 19.2017 25.3784 18.6279 25.0732 18.103L15.6616 1.70898C15.0269 0.598145 13.9038 0 12.7686 0C11.6211 0 10.498 0.598145 9.86328 1.70898L0.45166 18.1152C0.146484 18.6401 0 19.2017 0 19.7632ZM1.97754 19.7632C1.97754 19.5435 2.01416 19.2871 2.13623 19.0308L5.76172 12.6953L19.7266 12.6953L23.3643 19.043C23.4985 19.2871 23.5596 19.5435 23.5596 19.7632C23.5596 20.52 22.9736 21.2158 22.1313 21.2158L3.38135 21.2158C2.53906 21.2158 1.97754 20.52 1.97754 19.7632Z" fill="#5ac8f5"/>
 </g>
</svg>
