<?xml version="1.0" encoding="UTF-8"?>
<!--Generator: Apple Native CoreSVG 175.5-->
<!DOCTYPE svg
PUBLIC "-//W3C//DTD SVG 1.1//EN"
       "http://www.w3.org/Graphics/SVG/1.1/DTD/svg11.dtd">
<svg version="1.1" xmlns="http://www.w3.org/2000/svg" xmlns:xlink="http://www.w3.org/1999/xlink" width="27.1095" height="27.6489">
 <g>
  <rect height="27.6489" opacity="0" width="27.1095" x="0" y="0"/>
  <path d="M5.20137 25.6836C5.70186 26.0742 6.33662 25.9399 7.09346 25.3906L13.551 20.6421L20.0207 25.3906C20.7775 25.9399 21.3879 26.062 21.9128 25.6836C22.0593 25.5737 22.1691 25.4272 22.3522 25.1587L14.1735 18.7622C13.7829 18.457 13.3313 18.457 12.9406 18.7622L7.06904 23.2422C7.02022 23.2788 6.9836 23.3032 6.95918 23.2666C6.93477 23.2422 6.94697 23.23 6.95918 23.1567L9.38838 16.1743C9.55928 15.6982 9.46162 15.3198 9.03438 15.0269L2.95527 10.8276C2.89424 10.791 2.88203 10.7666 2.89424 10.73C2.90645 10.6934 2.93086 10.6934 3.0041 10.6934L8.00899 10.7788L6.17793 8.95996L1.77119 8.93555C0.831251 8.92334 0.257521 9.21631 0.0622084 9.80225C-0.145311 10.4126 0.172072 10.9741 0.928908 11.5112L7.44746 16.1987L4.89619 23.7915C4.59102 24.6826 4.70088 25.3052 5.20137 25.6836ZM20.0085 15.9546L26.1853 11.5112C26.9421 10.9741 27.2473 10.4126 27.052 9.80225C26.8566 9.21631 26.2829 8.92334 25.343 8.93555L17.3474 8.98438L14.9182 1.35498C14.6252 0.45166 14.1857 0 13.551 0C12.9284 0 12.489 0.45166 12.196 1.35498L10.548 6.53076L12.0007 7.9834L13.4899 3.06396C13.5021 2.99072 13.5266 2.96631 13.551 2.96631C13.5876 2.96631 13.612 2.99072 13.6242 3.06396L15.7482 10.1318C15.9069 10.6323 16.2243 10.8398 16.7248 10.8276L24.1101 10.6934C24.1833 10.6934 24.2077 10.6934 24.2199 10.73C24.2321 10.7666 24.2077 10.791 24.1589 10.8276L18.6657 14.624ZM24.1101 24.7681C24.4763 25.1343 25.0866 25.1343 25.4406 24.7681C25.7946 24.3896 25.8068 23.8037 25.4406 23.4375L5.67744 3.73535C5.31123 3.36914 4.70088 3.35693 4.33467 3.73535C3.98067 4.08936 3.98067 4.69971 4.33467 5.06592Z" fill="#5ac8f5"/>
 </g>
</svg>
