<?xml version="1.0" encoding="UTF-8"?>
<!--Generator: Apple Native CoreSVG 175.5-->
<!DOCTYPE svg
PUBLIC "-//W3C//DTD SVG 1.1//EN"
       "http://www.w3.org/Graphics/SVG/1.1/DTD/svg11.dtd">
<svg version="1.1" xmlns="http://www.w3.org/2000/svg" xmlns:xlink="http://www.w3.org/1999/xlink" width="24.6781" height="24.6841">
 <g>
  <rect height="24.6841" opacity="0" width="24.6781" x="0" y="0"/>
  <path d="M2.73515 24.1158C4.96904 24.7749 7.47148 24.8482 9.98613 24.3477L0.330365 14.6919C-0.170124 17.2066-0.109088 19.709 0.562298 21.9429C0.96513 23.2857 1.39238 23.7129 2.73515 24.1158ZM19.2879 19.2818C21.302 17.292 22.7547 14.9361 23.6336 12.4947L12.1834 1.04446C9.74199 1.92337 7.39824 3.37601 5.38408 5.39017C3.36992 7.37991 1.92949 9.73587 1.03837 12.1773L12.4886 23.6275C14.9422 22.7486 17.2859 21.2959 19.2879 19.2818ZM10.6331 17.3286C10.4134 17.5362 10.0716 17.5362 9.85185 17.3164L7.34941 14.814C7.14189 14.6065 7.14189 14.2647 7.34941 14.045C7.56913 13.813 7.92314 13.813 8.13066 14.0327L8.99736 14.8994L9.90068 13.9839L9.03398 13.1294C8.82646 12.9219 8.82646 12.5679 9.03398 12.3482C9.2537 12.1284 9.60771 12.1284 9.82744 12.336L10.6819 13.2149L11.5852 12.2993L10.7185 11.4449C10.511 11.2373 10.4988 10.8833 10.7185 10.6636C10.9383 10.4439 11.3045 10.4439 11.4998 10.6514L12.3665 11.5181L13.282 10.6148L12.4031 9.76028C12.1956 9.55276 12.1834 9.19876 12.4031 8.97903C12.6228 8.75931 12.9768 8.75931 13.1844 8.96683L14.0511 9.83353L14.9666 8.93021L14.0999 8.06351C13.8802 7.85599 13.868 7.51419 14.0999 7.29446C14.3074 7.08694 14.6614 7.08694 14.8689 7.28226L17.3836 9.79691C17.5911 10.0166 17.5911 10.3584 17.3836 10.5782C17.1639 10.7979 16.8099 10.7857 16.5901 10.5659L15.7356 9.71146L14.8323 10.6148L15.699 11.4815C15.9187 11.7012 15.9187 12.043 15.699 12.2749C15.4671 12.4825 15.1253 12.4702 14.9178 12.2627L14.0511 11.4082L13.1477 12.2993L14.0144 13.166C14.2342 13.3736 14.2342 13.7276 14.0144 13.9595C13.7825 14.1792 13.4407 14.167 13.2332 13.9473L12.3665 13.0928L11.4632 13.9839L12.3177 14.8506C12.5374 15.0581 12.5374 15.4243 12.3177 15.6441C12.0979 15.8516 11.7561 15.8516 11.5486 15.6319L10.6819 14.7774L9.77861 15.6807L10.6331 16.5352C10.8528 16.7549 10.8528 17.1089 10.6331 17.3286ZM24.1219 2.72903C23.7068 1.38626 23.2918 0.971222 21.949 0.556183C19.7151-0.102997 17.2127-0.176239 14.698 0.336456L24.3416 9.98001C24.8543 7.46536 24.781 4.96292 24.1219 2.72903Z" fill="#5ac8f5"/>
 </g>
</svg>
