<?xml version="1.0" encoding="UTF-8"?>
<!--Generator: Apple Native CoreSVG 175.5-->
<!DOCTYPE svg
PUBLIC "-//W3C//DTD SVG 1.1//EN"
       "http://www.w3.org/Graphics/SVG/1.1/DTD/svg11.dtd">
<svg version="1.1" xmlns="http://www.w3.org/2000/svg" xmlns:xlink="http://www.w3.org/1999/xlink" width="23.999" height="23.9868">
 <g>
  <rect height="23.9868" opacity="0" width="23.999" x="0" y="0"/>
  <path d="M17.749 23.9624C19.8853 23.9624 21.2891 23.3887 22.522 21.9971C22.6196 21.8994 22.7173 21.7896 22.8027 21.6919C23.5352 20.874 23.877 20.0684 23.877 19.2993C23.877 18.4204 23.3643 17.6025 22.2778 16.8457L18.7256 14.3799C17.627 13.623 16.3452 13.5376 15.3198 14.5508L14.3799 15.4907C14.0991 15.7715 13.855 15.7837 13.5864 15.6128C12.9272 15.1978 11.5967 14.0381 10.6934 13.1348C9.74121 12.1948 8.82568 11.145 8.3374 10.376C8.17871 10.0952 8.19092 9.86328 8.47168 9.58252L9.39941 8.64258C10.4248 7.61719 10.3394 6.32324 9.58252 5.23682L7.1167 1.68457C6.35986 0.598145 5.54199 0.0976562 4.66309 0.0854492C3.89404 0.0732422 3.08838 0.427246 2.27051 1.15967C2.16064 1.25732 2.06299 1.34277 1.96533 1.42822C0.57373 2.67334 0 4.07715 0 6.18896C0 9.68018 2.14844 13.9282 6.09131 17.8711C10.0098 21.7896 14.27 23.9624 17.749 23.9624ZM17.7612 22.0825C14.6484 22.1436 10.6567 19.751 7.49512 16.6016C4.30908 13.4277 1.80664 9.30176 1.86768 6.18896C1.89209 4.84619 2.36816 3.68652 3.32031 2.85645C3.40576 2.7832 3.4668 2.72217 3.55225 2.66113C3.91846 2.34375 4.30908 2.17285 4.66309 2.17285C5.01709 2.17285 5.33447 2.30713 5.56641 2.67334L7.93457 6.22559C8.19092 6.604 8.21533 7.03125 7.83691 7.40967L6.7627 8.48389C5.92041 9.32617 5.98145 10.3516 6.5918 11.1694C7.2876 12.1094 8.49609 13.4766 9.43604 14.4043C10.3638 15.3442 11.8408 16.6626 12.793 17.3706C13.6108 17.981 14.6362 18.042 15.4785 17.1997L16.5527 16.1255C16.9312 15.7471 17.3462 15.7715 17.7368 16.0156L21.2891 18.3838C21.6553 18.6279 21.7896 18.9331 21.7896 19.2993C21.7896 19.6533 21.6187 20.0439 21.3013 20.4102C21.228 20.4956 21.1792 20.5566 21.106 20.6421C20.2759 21.5942 19.1162 22.0581 17.7612 22.0825Z" fill="#5ac8f5" fill-opacity="0.5"/>
  <path d="M14.6973 10.2173C14.9414 10.2173 15.1489 10.1318 15.332 9.94873L20.5933 4.67529L22.4609 2.64893L22.2534 6.22559L22.2534 8.04443C22.2534 8.52051 22.6196 8.88672 23.0957 8.91113C23.584 8.93555 23.999 8.54492 23.999 8.04443L23.999 0.976562C23.999 0.32959 23.6816 0 23.0469 0L15.9546 0C15.4419 0 15.0513 0.415039 15.0757 0.915527C15.1001 1.3916 15.4663 1.74561 15.9546 1.74561L17.7979 1.74561L21.3867 1.55029L19.3359 3.41797L14.0747 8.69141C13.8794 8.88672 13.7817 9.10645 13.7817 9.36279C13.7817 9.83887 14.1846 10.2173 14.6973 10.2173Z" fill="#5ac8f5"/>
 </g>
</svg>
