<?xml version="1.0" encoding="UTF-8"?>
<!--Generator: Apple Native CoreSVG 175.5-->
<!DOCTYPE svg
PUBLIC "-//W3C//DTD SVG 1.1//EN"
       "http://www.w3.org/Graphics/SVG/1.1/DTD/svg11.dtd">
<svg version="1.1" xmlns="http://www.w3.org/2000/svg" xmlns:xlink="http://www.w3.org/1999/xlink" width="22.4731" height="22.4976">
 <g>
  <rect height="22.4976" opacity="0" width="22.4731" x="0" y="0"/>
  <path d="M3.83301 22.4976L18.6401 22.4976C21.2036 22.4976 22.4731 21.228 22.4731 18.7134L22.4731 3.80859C22.4731 1.29395 21.2036 0.0244141 18.6401 0.0244141L3.83301 0.0244141C1.28174 0.0244141 0 1.28174 0 3.80859L0 18.7134C0 21.2402 1.28174 22.4976 3.83301 22.4976ZM3.85742 20.5322C2.63672 20.5322 1.96533 19.8853 1.96533 18.6157L1.96533 3.90625C1.96533 2.63672 2.63672 1.98975 3.85742 1.98975L18.6157 1.98975C19.8242 1.98975 20.5078 2.63672 20.5078 3.90625L20.5078 18.6157C20.5078 19.8853 19.8242 20.5322 18.6157 20.5322Z" fill="#5ac8f5" fill-opacity="0.5"/>
  <path d="M8.14209 18.5791L14.3555 18.5791C14.6973 18.5791 15.0146 18.2617 15.0146 17.9199C15.0146 17.5659 14.7095 17.2607 14.3555 17.2607L11.9141 17.2607L11.9141 16.0278C14.3433 15.7471 15.9668 13.9038 15.9668 11.4258L15.9668 9.85107C15.9668 9.50928 15.6616 9.21631 15.3198 9.21631C14.9658 9.21631 14.6729 9.50928 14.6729 9.85107L14.6729 11.4258C14.6729 13.4277 13.269 14.8315 11.2427 14.8315C9.22852 14.8315 7.82471 13.4277 7.82471 11.4258L7.82471 9.85107C7.82471 9.50928 7.53174 9.21631 7.17773 9.21631C6.82373 9.21631 6.53076 9.50928 6.53076 9.85107L6.53076 11.4258C6.53076 13.9038 8.1665 15.7593 10.5957 16.0278L10.5957 17.2607L8.14209 17.2607C7.78809 17.2607 7.48291 17.5659 7.48291 17.9199C7.48291 18.2739 7.78809 18.5791 8.14209 18.5791ZM11.2427 13.5986C12.439 13.5986 13.269 12.6709 13.269 11.4258L13.269 6.18896C13.269 4.95605 12.439 4.04053 11.2427 4.04053C10.0464 4.04053 9.21631 4.95605 9.21631 6.18896L9.21631 11.4258C9.21631 12.6709 10.0464 13.5986 11.2427 13.5986Z" fill="#5ac8f5"/>
 </g>
</svg>
