<?xml version="1.0" encoding="UTF-8"?>
<!--Generator: Apple Native CoreSVG 175.5-->
<!DOCTYPE svg
PUBLIC "-//W3C//DTD SVG 1.1//EN"
       "http://www.w3.org/Graphics/SVG/1.1/DTD/svg11.dtd">
<svg version="1.1" xmlns="http://www.w3.org/2000/svg" xmlns:xlink="http://www.w3.org/1999/xlink" width="22.4731" height="22.4976">
 <g>
  <rect height="22.4976" opacity="0" width="22.4731" x="0" y="0"/>
  <path d="M3.83301 22.4976L18.6401 22.4976C21.2036 22.4976 22.4731 21.228 22.4731 18.7134L22.4731 3.80859C22.4731 1.29395 21.2036 0.0244141 18.6401 0.0244141L3.83301 0.0244141C1.28174 0.0244141 0 1.28174 0 3.80859L0 18.7134C0 21.2402 1.28174 22.4976 3.83301 22.4976Z" fill="#5ac8f5" fill-opacity="0.25"/>
  <path d="M9.04541 18.3105C8.52051 18.3105 8.11768 17.9321 8.11768 17.4072C8.11768 16.9189 8.52051 16.5161 9.04541 16.5161L10.5957 16.5161L10.5957 10.7788L9.25293 10.7788C8.74023 10.7788 8.3374 10.4004 8.3374 9.87549C8.3374 9.38721 8.74023 8.98438 9.25293 8.98438L11.6211 8.98438C12.2681 8.98438 12.6099 9.44824 12.6099 10.1318L12.6099 16.5161L14.1602 16.5161C14.6851 16.5161 15.0879 16.9189 15.0879 17.4072C15.0879 17.9321 14.6851 18.3105 14.1602 18.3105ZM11.1328 6.90918C10.2173 6.90918 9.48486 6.17676 9.48486 5.24902C9.48486 4.32129 10.2173 3.58887 11.1328 3.58887C12.0483 3.58887 12.7686 4.32129 12.7686 5.24902C12.7686 6.17676 12.0483 6.90918 11.1328 6.90918Z" fill="#5ac8f5"/>
 </g>
</svg>
