<?xml version="1.0" encoding="UTF-8"?>
<!--Generator: Apple Native CoreSVG 175.5-->
<!DOCTYPE svg
PUBLIC "-//W3C//DTD SVG 1.1//EN"
       "http://www.w3.org/Graphics/SVG/1.1/DTD/svg11.dtd">
<svg version="1.1" xmlns="http://www.w3.org/2000/svg" xmlns:xlink="http://www.w3.org/1999/xlink" width="27.7466" height="24.9146">
 <g>
  <rect height="24.9146" opacity="0" width="27.7466" x="0" y="0"/>
  <path d="M12.2192 16.4551C12.2192 17.0166 12.8418 17.2607 13.3667 16.9434L19.9097 13.0859C20.3857 12.793 20.3735 12.1216 19.9097 11.853L13.3667 7.97119C12.8784 7.67822 12.2192 7.91016 12.2192 8.45947ZM0 9.69238C0 9.93652 0.0732422 10.1685 0.219727 10.3516L2.79541 13.5132C3.17383 14.0015 3.49121 14.1724 3.97949 14.1724C4.29688 14.1724 4.54102 14.0869 4.84619 13.8672L8.03223 11.5112C8.30078 11.3159 8.44727 11.0229 8.44727 10.7056C8.44727 10.1318 7.99561 9.7168 7.48291 9.7168C7.25098 9.7168 7.04346 9.77783 6.86035 9.92432L4.98047 11.4014C5.49316 6.14014 9.87549 2.0752 15.2832 2.0752C21.0449 2.0752 25.6592 6.68945 25.6714 12.4512C25.6836 18.2129 21.0571 22.8271 15.2954 22.8271C11.4868 22.8271 8.77686 20.813 7.44629 19.2627C7.18994 18.9453 6.86035 18.8232 6.56738 18.8232C6.05469 18.8232 5.59082 19.2139 5.59082 19.7754C5.59082 20.0562 5.70068 20.3613 5.96924 20.6787C7.31201 22.2168 10.6201 24.9023 15.2954 24.9023C22.1069 24.9023 27.7466 19.2505 27.7466 12.4512C27.7466 5.63965 22.0825 0 15.2832 0C9.05762 0 3.80859 4.72412 2.97852 10.7422L1.84326 9.19189C1.64795 8.91113 1.36719 8.72803 1.00098 8.72803C0.439453 8.72803 0 9.13086 0 9.69238Z" fill="#5ac8f5"/>
 </g>
</svg>
