<?xml version="1.0" encoding="UTF-8"?>
<!--Generator: Apple Native CoreSVG 175.5-->
<!DOCTYPE svg
PUBLIC "-//W3C//DTD SVG 1.1//EN"
       "http://www.w3.org/Graphics/SVG/1.1/DTD/svg11.dtd">
<svg version="1.1" xmlns="http://www.w3.org/2000/svg" xmlns:xlink="http://www.w3.org/1999/xlink" width="22.4731" height="22.4976">
 <g>
  <rect height="22.4976" opacity="0" width="22.4731" x="0" y="0"/>
  <path d="M3.83301 22.4976L18.6401 22.4976C21.2036 22.4976 22.4731 21.228 22.4731 18.7134L22.4731 3.80859C22.4731 1.29395 21.2036 0.0244141 18.6401 0.0244141L3.83301 0.0244141C1.28174 0.0244141 0 1.28174 0 3.80859L0 18.7134C0 21.2402 1.28174 22.4976 3.83301 22.4976Z" fill="#5ac8f5" fill-opacity="0.25"/>
  <path d="M7.44629 17.0166C6.86035 17.0166 6.51855 16.626 6.51855 16.0034L6.51855 6.29883C6.51855 5.65186 6.87256 5.23682 7.49512 5.23682C7.91016 5.23682 8.19092 5.39551 8.5083 5.84717L13.9893 13.6963L14.0747 13.6963L14.0747 6.25C14.0747 5.63965 14.4287 5.23682 15.0024 5.23682C15.6128 5.23682 15.9668 5.61523 15.9668 6.25L15.9668 15.9668C15.9668 16.6382 15.5884 17.0166 14.9658 17.0166C14.5508 17.0166 14.2944 16.8701 13.9648 16.4062L8.48389 8.69141L8.39844 8.69141L8.39844 16.0034C8.39844 16.6504 8.04443 17.0166 7.44629 17.0166Z" fill="#5ac8f5"/>
 </g>
</svg>
