<?xml version="1.0" encoding="UTF-8"?>
<!--Generator: Apple Native CoreSVG 175.5-->
<!DOCTYPE svg
PUBLIC "-//W3C//DTD SVG 1.1//EN"
       "http://www.w3.org/Graphics/SVG/1.1/DTD/svg11.dtd">
<svg version="1.1" xmlns="http://www.w3.org/2000/svg" xmlns:xlink="http://www.w3.org/1999/xlink" width="24.9023" height="24.9146">
 <g>
  <rect height="24.9146" opacity="0" width="24.9023" x="0" y="0"/>
  <path d="M12.4512 24.9023C19.2627 24.9023 24.9023 19.2505 24.9023 12.4512C24.9023 5.63965 19.2505 0 12.439 0C5.63965 0 0 5.63965 0 12.4512C0 19.2505 5.65186 24.9023 12.4512 24.9023Z" fill="#5ac8f5" fill-opacity="0.25"/>
  <path d="M8.19092 17.8833C6.03027 17.8833 4.58984 15.8081 4.58984 12.4512C4.58984 9.09424 6.03027 7.01904 8.19092 7.01904C10.3638 7.01904 11.792 9.09424 11.792 12.4512C11.792 15.8081 10.3638 17.8833 8.19092 17.8833ZM8.19092 16.3452C9.39941 16.3452 10.1318 14.8682 10.1318 12.4512C10.1318 10.0342 9.38721 8.55713 8.19092 8.55713C7.00684 8.55713 6.25 10.0342 6.25 12.4512C6.25 14.8682 7.00684 16.3452 8.19092 16.3452ZM16.7236 17.8833C15.1489 17.8833 13.8916 17.0532 13.5254 16.0034C13.4521 15.8325 13.4155 15.6372 13.4155 15.4297C13.4155 15.0146 13.7085 14.6973 14.1235 14.6973C14.4165 14.6973 14.6729 14.8804 14.856 15.2466C15.21 16.0034 15.9546 16.4551 16.8091 16.4551C18.0176 16.4551 18.8477 15.6616 18.8477 14.3433C18.8477 13.1836 18.103 12.3047 16.9922 12.3047C16.4429 12.3047 16.04 12.4878 15.5273 12.9395C15.1245 13.269 14.8804 13.3789 14.502 13.3789C13.916 13.3789 13.562 12.9395 13.6108 12.2803L13.916 8.36182C13.9526 7.69043 14.4043 7.2876 15.0757 7.2876L19.3848 7.2876C19.751 7.2876 20.0195 7.59277 20.0195 7.99561C20.0195 8.41064 19.7388 8.70361 19.3848 8.70361L15.2222 8.70361L14.9902 11.9385L15.0513 11.9385C15.4175 11.3647 16.3208 10.9497 17.1631 10.9497C19.1162 10.9497 20.4224 12.3657 20.4224 14.3066C20.4224 16.5161 18.9453 17.8833 16.7236 17.8833Z" fill="#5ac8f5"/>
 </g>
</svg>
