<?xml version="1.0" encoding="UTF-8"?>
<!--Generator: Apple Native CoreSVG 175.5-->
<!DOCTYPE svg
PUBLIC "-//W3C//DTD SVG 1.1//EN"
       "http://www.w3.org/Graphics/SVG/1.1/DTD/svg11.dtd">
<svg version="1.1" xmlns="http://www.w3.org/2000/svg" xmlns:xlink="http://www.w3.org/1999/xlink" width="24.9023" height="24.9146">
 <g>
  <rect height="24.9146" opacity="0" width="24.9023" x="0" y="0"/>
  <path d="M12.4512 24.9023C19.2627 24.9023 24.9023 19.2505 24.9023 12.4512C24.9023 5.63965 19.2505 0 12.439 0C5.63965 0 0 5.63965 0 12.4512C0 19.2505 5.65186 24.9023 12.4512 24.9023ZM12.4512 22.8271C6.68945 22.8271 2.0874 18.2129 2.0874 12.4512C2.0874 6.68945 6.67725 2.0752 12.439 2.0752C18.2007 2.0752 22.8271 6.68945 22.8271 12.4512C22.8271 18.2129 18.2129 22.8271 12.4512 22.8271ZM8.3374 17.7124C10.437 17.7124 11.8286 15.6982 11.8286 12.4512C11.8286 9.2041 10.437 7.18994 8.3374 7.18994C6.23779 7.18994 4.84619 9.2041 4.84619 12.4512C4.84619 15.6982 6.23779 17.7124 8.3374 17.7124ZM8.3374 16.2354C7.17773 16.2354 6.44531 14.7949 6.44531 12.4512C6.44531 10.1074 7.17773 8.66699 8.3374 8.66699C9.49707 8.66699 10.2295 10.1074 10.2295 12.4512C10.2295 14.7949 9.50928 16.2354 8.3374 16.2354ZM16.5527 17.7124C18.6279 17.7124 20.0806 16.4673 20.0806 14.7095C20.0806 13.4155 19.1772 12.3657 17.9443 12.2437L17.9443 12.1704C18.9575 11.9995 19.751 10.9863 19.751 9.83887C19.751 8.27637 18.457 7.18994 16.6382 7.18994C14.9902 7.18994 13.7695 8.12988 13.4521 9.32617C13.4155 9.48486 13.4155 9.60693 13.4155 9.76562C13.4155 10.2051 13.6963 10.5103 14.1113 10.5103C14.4775 10.5103 14.6729 10.3149 14.7949 9.92432C15.0635 9.06982 15.6494 8.59375 16.6016 8.59375C17.5659 8.59375 18.2495 9.17969 18.2495 10.0342C18.2495 10.9253 17.5659 11.5723 16.5894 11.5723L15.9302 11.5723C15.5396 11.5723 15.271 11.853 15.271 12.2925C15.271 12.6831 15.5273 12.9883 15.9302 12.9883L16.6504 12.9883C17.8101 12.9883 18.5547 13.6475 18.5547 14.6362C18.5547 15.5884 17.7368 16.3086 16.5649 16.3086C15.6006 16.3086 14.9414 15.8325 14.6118 14.978C14.4653 14.5874 14.2578 14.3921 13.916 14.3921C13.501 14.3921 13.208 14.6973 13.208 15.1245C13.208 15.2954 13.2324 15.4175 13.269 15.5762C13.5986 16.6992 14.8926 17.7124 16.5527 17.7124Z" fill="#5ac8f5"/>
 </g>
</svg>
