<?xml version="1.0" encoding="UTF-8"?>
<!--Generator: Apple Native CoreSVG 175.5-->
<!DOCTYPE svg
PUBLIC "-//W3C//DTD SVG 1.1//EN"
       "http://www.w3.org/Graphics/SVG/1.1/DTD/svg11.dtd">
<svg version="1.1" xmlns="http://www.w3.org/2000/svg" xmlns:xlink="http://www.w3.org/1999/xlink" width="22.7295" height="25.2319">
 <g>
  <rect height="25.2319" opacity="0" width="22.7295" x="0" y="0"/>
  <path d="M0 12.6099C0 13.3179 0.402832 13.8184 1.24512 13.9526C2.75879 14.1846 3.35693 14.9536 3.35693 16.9189L3.35693 20.3491C3.35693 23.6694 4.87061 25.2319 8.1665 25.2319C8.36182 25.2319 8.56934 25.1953 8.71582 25.1465C9.09424 24.9878 9.30176 24.6826 9.30176 24.2798C9.30176 23.8037 9.09424 23.5596 8.66699 23.4497C8.54492 23.4253 8.42285 23.4009 8.27637 23.3887C6.22559 23.2422 5.48096 22.3633 5.48096 20.105L5.48096 16.0522C5.48096 13.9893 4.39453 12.8418 2.49023 12.6587C2.45361 12.6587 2.45361 12.6099 2.49023 12.6099C4.39453 12.4268 5.48096 11.2793 5.48096 9.21631L5.48096 5.15137C5.48096 2.88086 6.22559 2.02637 8.27637 1.87988C8.47168 1.86768 8.64258 1.84326 8.76465 1.79443C9.11865 1.67236 9.30176 1.40381 9.30176 0.976562C9.30176 0.549316 9.08203 0.256348 8.66699 0.109863C8.48389 0.0488281 8.28857 0.0244141 8.04443 0.0244141C4.8584 0.0244141 3.35693 1.61133 3.35693 4.90723L3.35693 8.34961C3.35693 10.2905 2.75879 11.0718 1.24512 11.3037C0.402832 11.438 0 11.9141 0 12.6099ZM22.7295 12.6099C22.7295 11.9141 22.3145 11.438 21.4722 11.3037C19.9707 11.0718 19.3604 10.2905 19.3604 8.34961L19.3604 4.90723C19.3604 1.61133 17.8589 0.0244141 14.6729 0.0244141C14.4287 0.0244141 14.2456 0.0488281 14.0625 0.109863C13.623 0.256348 13.4155 0.549316 13.4155 0.976562C13.4155 1.40381 13.623 1.66016 13.9648 1.79443C14.0869 1.84326 14.2456 1.86768 14.4409 1.87988C16.4795 1.97754 17.2485 2.88086 17.2485 5.15137L17.2485 9.21631C17.2485 11.2915 18.335 12.6099 20.2271 12.6099C20.2637 12.6099 20.2637 12.6587 20.2271 12.6587C18.335 12.6587 17.2485 13.9771 17.2485 16.0522L17.2485 20.105C17.2485 22.3633 16.4917 23.2422 14.4409 23.3887C14.2944 23.4009 14.1846 23.4253 14.0625 23.4497C13.6353 23.5352 13.4155 23.8037 13.4155 24.2798C13.4155 24.707 13.6475 25.0244 14.0137 25.1465C14.1602 25.1953 14.3555 25.2319 14.5508 25.2319C17.8467 25.2319 19.3604 23.6694 19.3604 20.3491L19.3604 16.9189C19.3604 14.9536 19.9707 14.1846 21.4722 13.9526C22.3145 13.8184 22.7295 13.3179 22.7295 12.6099Z" fill="#5ac8f5"/>
 </g>
</svg>
