<?xml version="1.0" encoding="UTF-8"?>
<!--Generator: Apple Native CoreSVG 175.5-->
<!DOCTYPE svg
PUBLIC "-//W3C//DTD SVG 1.1//EN"
       "http://www.w3.org/Graphics/SVG/1.1/DTD/svg11.dtd">
<svg version="1.1" xmlns="http://www.w3.org/2000/svg" xmlns:xlink="http://www.w3.org/1999/xlink" width="24.9023" height="24.9146">
 <g>
  <rect height="24.9146" opacity="0" width="24.9023" x="0" y="0"/>
  <path d="M12.4512 24.9023C19.2627 24.9023 24.9023 19.2505 24.9023 12.4512C24.9023 5.63965 19.2505 0 12.439 0C5.63965 0 0 5.63965 0 12.4512C0 19.2505 5.65186 24.9023 12.4512 24.9023ZM12.4512 22.8271C6.68945 22.8271 2.0874 18.2129 2.0874 12.4512C2.0874 6.68945 6.67725 2.0752 12.439 2.0752C18.2007 2.0752 22.8271 6.68945 22.8271 12.4512C22.8271 18.2129 18.2129 22.8271 12.4512 22.8271ZM12.4512 18.8232C15.9424 18.8232 18.8477 15.918 18.8477 12.439C18.8477 10.6934 18.0664 8.94775 16.7603 7.75146C15.918 6.97021 14.7827 8.1665 15.6372 8.97217C16.6016 9.86328 17.1509 11.0962 17.1631 12.439C17.1631 15.0635 15.0757 17.1509 12.4512 17.1509C9.82666 17.1509 7.75146 15.0635 7.75146 12.439C7.75146 11.0962 8.28857 9.86328 9.26514 8.95996C10.1196 8.1543 8.98438 6.95801 8.1543 7.75146C6.83594 8.93555 6.05469 10.6689 6.05469 12.439C6.05469 15.918 8.95996 18.8232 12.4512 18.8232ZM12.4512 12.7197C12.9272 12.7197 13.269 12.3657 13.269 11.8774L13.269 6.54297C13.269 6.05469 12.9272 5.71289 12.4512 5.71289C11.9751 5.71289 11.6455 6.05469 11.6455 6.54297L11.6455 11.8774C11.6455 12.3657 11.9751 12.7197 12.4512 12.7197Z" fill="#5ac8f5"/>
 </g>
</svg>
