<?xml version="1.0" encoding="UTF-8"?>
<!--Generator: Apple Native CoreSVG 175.5-->
<!DOCTYPE svg
PUBLIC "-//W3C//DTD SVG 1.1//EN"
       "http://www.w3.org/Graphics/SVG/1.1/DTD/svg11.dtd">
<svg version="1.1" xmlns="http://www.w3.org/2000/svg" xmlns:xlink="http://www.w3.org/1999/xlink" width="24.9023" height="24.9146">
 <g>
  <rect height="24.9146" opacity="0" width="24.9023" x="0" y="0"/>
  <path d="M12.4512 24.9023C19.2627 24.9023 24.9023 19.2505 24.9023 12.4512C24.9023 5.63965 19.2505 0 12.439 0C5.63965 0 0 5.63965 0 12.4512C0 19.2505 5.65186 24.9023 12.4512 24.9023ZM12.4512 22.8271C6.68945 22.8271 2.0874 18.2129 2.0874 12.4512C2.0874 6.68945 6.67725 2.0752 12.439 2.0752C18.2007 2.0752 22.8271 6.68945 22.8271 12.4512C22.8271 18.2129 18.2129 22.8271 12.4512 22.8271Z" fill="#5ac8f5" fill-opacity="0.5"/>
  <path d="M7.93457 12.207C7.93457 11.8286 7.60498 11.5356 7.18994 11.5356L5.61523 11.5356C5.2002 11.5356 4.88281 11.8408 4.88281 12.207C4.88281 12.5732 5.2002 12.8906 5.61523 12.8906L7.18994 12.8906C7.61719 12.8906 7.93457 12.5977 7.93457 12.207ZM9.25293 9.17969C9.53369 8.91113 9.50928 8.47168 9.21631 8.19092L8.08105 7.05566C7.77588 6.73828 7.34863 6.7627 7.09229 7.01904C6.82373 7.2876 6.83594 7.70264 7.14111 8.02002L8.26416 9.14307C8.55713 9.42383 8.98438 9.46045 9.25293 9.17969ZM12.439 7.4707C12.8174 7.4707 13.1226 7.12891 13.1226 6.72607L13.1226 5.15137C13.1226 4.72412 12.8052 4.41895 12.439 4.41895C12.0728 4.41895 11.7676 4.72412 11.7676 5.15137L11.7676 6.72607C11.7676 7.14111 12.0605 7.4707 12.439 7.4707ZM15.6372 9.17969C15.9058 9.44824 16.333 9.43604 16.626 9.14307L17.7368 8.02002C18.042 7.70264 18.0542 7.2998 17.7979 7.01904C17.5293 6.75049 17.0898 6.75049 16.7969 7.05566L15.6616 8.19092C15.3564 8.48389 15.3564 8.91113 15.6372 9.17969ZM16.9434 12.207C16.9434 12.5854 17.2729 12.8906 17.688 12.8906L19.2749 12.8906C19.6899 12.8906 19.9951 12.5854 19.9951 12.207C19.9951 11.8408 19.6899 11.5356 19.2749 11.5356L17.688 11.5356C17.2729 11.5356 16.9434 11.8286 16.9434 12.207ZM9.00879 13.4888L15.8691 13.4888C15.9912 13.1348 16.0767 12.7441 16.0767 12.3657C16.0767 10.376 14.4287 8.71582 12.439 8.71582C10.4614 8.71582 8.80127 10.376 8.80127 12.3657C8.80127 12.7441 8.88672 13.1348 9.00879 13.4888ZM5.60303 15.7104L19.2871 15.7104C19.6533 15.7104 19.9951 15.4175 19.9951 15.0391C19.9951 14.6484 19.6655 14.3799 19.2871 14.3799L5.60303 14.3799C5.22461 14.3799 4.88281 14.6606 4.88281 15.0391C4.88281 15.4175 5.23682 15.7104 5.60303 15.7104ZM6.45752 17.8833C6.78711 17.8833 7.04346 17.6147 7.04346 17.2974C7.04346 16.98 6.78711 16.7114 6.45752 16.7114C6.14014 16.7114 5.88379 16.98 5.88379 17.2974C5.88379 17.6147 6.14014 17.8833 6.45752 17.8833ZM9.46045 17.8833C9.77783 17.8833 10.0464 17.6147 10.0464 17.2974C10.0464 16.98 9.77783 16.7114 9.46045 16.7114C9.14307 16.7114 8.87451 16.98 8.87451 17.2974C8.87451 17.6147 9.14307 17.8833 9.46045 17.8833ZM12.4512 17.8833C12.7808 17.8833 13.0371 17.6147 13.0371 17.2974C13.0371 16.98 12.7808 16.7114 12.4512 16.7114C12.1338 16.7114 11.8774 16.98 11.8774 17.2974C11.8774 17.6147 12.1338 17.8833 12.4512 17.8833ZM15.4541 17.8833C15.7715 17.8833 16.0278 17.6147 16.0278 17.2974C16.0278 16.98 15.7715 16.7114 15.4541 16.7114C15.1367 16.7114 14.8682 16.98 14.8682 17.2974C14.8682 17.6147 15.1367 17.8833 15.4541 17.8833ZM18.4448 17.8833C18.7622 17.8833 19.0308 17.6147 19.0308 17.2974C19.0308 16.98 18.7622 16.7114 18.4448 16.7114C18.1274 16.7114 17.8589 16.98 17.8589 17.2974C17.8589 17.6147 18.1274 17.8833 18.4448 17.8833ZM7.94678 19.519C8.27637 19.519 8.53271 19.2627 8.53271 18.9453C8.53271 18.6279 8.27637 18.3594 7.94678 18.3594C7.62939 18.3594 7.37305 18.6279 7.37305 18.9453C7.37305 19.2627 7.62939 19.519 7.94678 19.519ZM10.9497 19.519C11.2671 19.519 11.5356 19.2627 11.5356 18.9453C11.5356 18.6279 11.2671 18.3594 10.9497 18.3594C10.6323 18.3594 10.3638 18.6279 10.3638 18.9453C10.3638 19.2627 10.6323 19.519 10.9497 19.519ZM13.9404 19.519C14.27 19.519 14.5264 19.2627 14.5264 18.9453C14.5264 18.6279 14.27 18.3594 13.9404 18.3594C13.623 18.3594 13.3667 18.6279 13.3667 18.9453C13.3667 19.2627 13.623 19.519 13.9404 19.519ZM16.9434 19.519C17.2607 19.519 17.5171 19.2627 17.5171 18.9453C17.5171 18.6279 17.2607 18.3594 16.9434 18.3594C16.6138 18.3594 16.3574 18.6279 16.3574 18.9453C16.3574 19.2627 16.6138 19.519 16.9434 19.519Z" fill="#5ac8f5"/>
 </g>
</svg>
