<?xml version="1.0" encoding="UTF-8"?>
<!--Generator: Apple Native CoreSVG 175.5-->
<!DOCTYPE svg
PUBLIC "-//W3C//DTD SVG 1.1//EN"
       "http://www.w3.org/Graphics/SVG/1.1/DTD/svg11.dtd">
<svg version="1.1" xmlns="http://www.w3.org/2000/svg" xmlns:xlink="http://www.w3.org/1999/xlink" width="27.3794" height="24.6948">
 <g>
  <rect height="24.6948" opacity="0" width="27.3794" x="0" y="0"/>
  <path d="M15.5019 12.3413C15.5019 19.7388 17.8701 24.6826 21.4345 24.6826C24.999 24.6826 27.3794 19.7388 27.3794 12.3413C27.3794 4.93164 24.999 0 21.4345 0C17.8701 0 15.5019 4.93164 15.5019 12.3413ZM17.4673 12.3413C17.4673 6.11572 19.0664 1.96533 21.4345 1.96533C23.8027 1.96533 25.414 6.11572 25.414 12.3413C25.414 18.5547 23.8027 22.7173 21.4345 22.7173C19.0664 22.7173 17.4673 18.5547 17.4673 12.3413ZM9.32516 12.3413C9.32516 20.0195 11.4614 24.6826 16.5761 24.6826L21.4345 24.6826L21.4345 22.7173L16.5761 22.7173C12.6943 22.7173 11.2905 18.7988 11.2905 12.3413C11.2905 5.88379 12.6943 1.96533 16.5761 1.96533L21.4345 1.96533L21.4345 0L16.5761 0C11.4614 0 9.32516 4.65088 9.32516 12.3413ZM15.1235 5.2002L17.4062 5.2002L17.4062 3.60107L15.1235 3.60107C14.684 3.60107 14.3178 3.96729 14.3178 4.40674C14.3178 4.84619 14.684 5.2002 15.1235 5.2002ZM14.2934 8.94775L16.5761 8.94775L16.5761 7.34863L14.2934 7.34863C13.854 7.34863 13.4878 7.70264 13.4878 8.14209C13.4878 8.58154 13.854 8.94775 14.2934 8.94775ZM13.976 12.9883L16.2588 12.9883L16.2588 11.3892L13.976 11.3892C13.5366 11.3892 13.1826 11.7554 13.1826 12.1948C13.1826 12.6343 13.5366 12.9883 13.976 12.9883ZM14.2934 17.041L16.5761 17.041L16.5761 15.4419L14.2934 15.4419C13.854 15.4419 13.4878 15.8081 13.4878 16.2476C13.4878 16.687 13.854 17.041 14.2934 17.041ZM15.1235 20.7886L17.4062 20.7886L17.4062 19.1895L15.1235 19.1895C14.684 19.1895 14.3178 19.5435 14.3178 19.9829C14.3178 20.4224 14.684 20.7886 15.1235 20.7886Z" fill="#5ac8f5" fill-opacity="0.5"/>
  <path d="M3.68551 22.0459C4.24704 22.0459 4.79635 21.5698 4.5278 20.8374C3.77096 18.6035 3.35592 16.0767 3.35592 13.4521C3.35592 10.8276 3.77096 8.30078 4.5278 6.06689L2.78219 5.46875C1.96432 7.89795 1.51266 10.6323 1.51266 13.4521C1.51266 16.272 1.97653 19.0063 2.78219 21.4355C2.92868 21.8872 3.3193 22.0459 3.68551 22.0459ZM0.584929 6.48193L5.83395 8.38623C6.62741 8.6792 7.21335 7.89795 6.99362 7.23877L5.5654 2.96631C5.38229 2.39258 4.79635 2.18506 4.27145 2.50244L0.426237 4.87061C-0.171907 5.24902-0.1597 6.20117 0.584929 6.48193Z" fill="#5ac8f5"/>
 </g>
</svg>
