<?xml version="1.0" encoding="UTF-8"?>
<!--Generator: Apple Native CoreSVG 175.5-->
<!DOCTYPE svg
PUBLIC "-//W3C//DTD SVG 1.1//EN"
       "http://www.w3.org/Graphics/SVG/1.1/DTD/svg11.dtd">
<svg version="1.1" xmlns="http://www.w3.org/2000/svg" xmlns:xlink="http://www.w3.org/1999/xlink" width="26.3184" height="22.3999">
 <g>
  <rect height="22.3999" opacity="0" width="26.3184" x="0" y="0"/>
  <path d="M0 11.1938C0 11.5967 0.158691 12.0605 0.622559 12.5L10.2539 21.5942C10.8398 22.1436 11.3281 22.3877 11.9263 22.3877C12.7563 22.3877 13.3545 21.7773 13.3545 20.9595L13.3545 16.2964L23.2666 16.2964C25.1953 16.2964 26.3184 15.1978 26.3184 13.3057L26.3184 9.09424C26.3184 7.20215 25.1953 6.10352 23.2666 6.10352L13.3545 6.10352L13.3545 1.48926C13.3545 0.671387 12.7563 0 11.9019 0C11.3037 0 10.9009 0.256348 10.2539 0.866699L0.622559 9.87549C0.146484 10.3271 0 10.7788 0 11.1938ZM2.18506 11.1938C2.18506 11.1206 2.22168 11.0474 2.31934 10.9619L11.0107 2.62451C11.0718 2.57568 11.145 2.52686 11.2183 2.52686C11.3281 2.52686 11.3892 2.6001 11.3892 2.69775L11.3892 7.54395C11.3892 7.82471 11.5234 7.94678 11.8042 7.94678L23.2422 7.94678C24.0234 7.94678 24.4751 8.39844 24.4751 9.19189L24.4751 13.208C24.4751 14.0015 24.0234 14.4531 23.2422 14.4531L11.8042 14.4531C11.5234 14.4531 11.3892 14.5752 11.3892 14.856L11.3892 19.5801C11.3892 19.6899 11.3281 19.7632 11.2305 19.7632C11.1572 19.7632 11.084 19.7266 11.0229 19.6533L2.31934 11.4258C2.22168 11.3281 2.18506 11.2671 2.18506 11.1938Z" fill="#5ac8f5"/>
 </g>
</svg>
