<?xml version="1.0" encoding="UTF-8"?>
<!--Generator: Apple Native CoreSVG 175.5-->
<!DOCTYPE svg
PUBLIC "-//W3C//DTD SVG 1.1//EN"
       "http://www.w3.org/Graphics/SVG/1.1/DTD/svg11.dtd">
<svg version="1.1" xmlns="http://www.w3.org/2000/svg" xmlns:xlink="http://www.w3.org/1999/xlink" width="36.4136" height="21.4966">
 <g>
  <rect height="21.4966" opacity="0" width="36.4136" x="0" y="0"/>
  <path d="M18.2251 12.3535C20.2393 12.3535 21.9971 10.5469 21.9971 8.20312C21.9971 5.88379 20.2148 4.15039 18.2251 4.15039C16.1987 4.15039 14.4409 5.92041 14.4531 8.22754C14.4531 10.5469 16.1987 12.3535 18.2251 12.3535ZM12.0605 20.8496L24.3652 20.8496C25.3906 20.8496 26.0376 20.3613 26.0376 19.5435C26.0376 17.1021 23.0225 13.7939 18.2251 13.7939C13.4033 13.7939 10.4004 17.1021 10.4004 19.5435C10.4004 20.3613 11.0229 20.8496 12.0605 20.8496ZM0.98877 20.5566C1.52588 20.5566 1.96533 20.1294 1.96533 19.5801C1.96533 9.87549 9.24072 1.96533 18.2007 1.96533C27.1484 1.96533 34.4482 9.87549 34.4482 19.5801C34.4482 20.1294 34.8755 20.5566 35.4126 20.5566C35.9619 20.5566 36.4136 20.1294 36.4136 19.5801C36.4136 8.80127 28.2227 0 18.2007 0C8.1665 0 0 8.80127 0 19.5801C0 20.1294 0.439453 20.5566 0.98877 20.5566ZM6.64062 20.5566C7.17773 20.5566 7.65381 20.1294 7.65381 19.5923C7.65381 15.5029 9.729 11.8164 12.9883 9.80225C12.793 9.06982 12.7441 8.38623 12.854 7.6416C8.52051 9.79004 5.66406 14.4409 5.66406 19.5923C5.66406 20.1294 6.09131 20.5566 6.64062 20.5566ZM29.7729 20.5566C30.3101 20.5566 30.7617 20.1294 30.7617 19.5923C30.7617 14.4531 27.9297 9.83887 23.6206 7.66602C23.6938 8.37402 23.645 9.10645 23.4619 9.82666C26.6968 11.8408 28.772 15.5151 28.772 19.5923C28.772 20.1294 29.2358 20.5566 29.7729 20.5566Z" fill="#5ac8f5"/>
 </g>
</svg>
