<?xml version="1.0" encoding="UTF-8"?>
<!--Generator: Apple Native CoreSVG 175.5-->
<!DOCTYPE svg
PUBLIC "-//W3C//DTD SVG 1.1//EN"
       "http://www.w3.org/Graphics/SVG/1.1/DTD/svg11.dtd">
<svg version="1.1" xmlns="http://www.w3.org/2000/svg" xmlns:xlink="http://www.w3.org/1999/xlink" width="22.4731" height="22.4976">
 <g>
  <rect height="22.4976" opacity="0" width="22.4731" x="0" y="0"/>
  <path d="M3.83301 22.4976L18.6401 22.4976C21.2036 22.4976 22.4731 21.228 22.4731 18.7134L22.4731 3.80859C22.4731 1.29395 21.2036 0.0244141 18.6401 0.0244141L3.83301 0.0244141C1.28174 0.0244141 0 1.28174 0 3.80859L0 18.7134C0 21.2402 1.28174 22.4976 3.83301 22.4976ZM5.7251 15.7837C5.06592 15.7837 4.6875 15.4419 4.6875 14.9536C4.6875 14.2456 5.39551 13.6353 5.99365 13.0005C6.45752 12.5122 6.56738 11.5234 6.61621 10.7422C6.66504 8.04443 7.38525 6.20117 9.22852 5.51758C9.52148 4.62646 10.2295 3.89404 11.2549 3.89404C12.2803 3.89404 13.0005 4.62646 13.2812 5.51758C15.1245 6.20117 15.8569 8.04443 15.9058 10.7422C15.9546 11.5234 16.04 12.5122 16.5161 13.0005C17.1387 13.623 17.8223 14.2456 17.8223 14.9536C17.8223 15.4419 17.4438 15.7837 16.7969 15.7837ZM11.2549 18.7012C10.0708 18.7012 9.21631 17.8467 9.13086 16.8335L13.3911 16.8335C13.3057 17.8467 12.439 18.7012 11.2549 18.7012Z" fill="#5ac8f5"/>
 </g>
</svg>
