<?xml version="1.0" encoding="UTF-8"?>
<!--Generator: Apple Native CoreSVG 175.5-->
<!DOCTYPE svg
PUBLIC "-//W3C//DTD SVG 1.1//EN"
       "http://www.w3.org/Graphics/SVG/1.1/DTD/svg11.dtd">
<svg version="1.1" xmlns="http://www.w3.org/2000/svg" xmlns:xlink="http://www.w3.org/1999/xlink" width="28.9551" height="23.1079">
 <g>
  <rect height="23.1079" opacity="0" width="28.9551" x="0" y="0"/>
  <path d="M1.00098 1.68457C1.36719 1.68457 1.68457 1.36719 1.68457 1.00098C1.68457 0.622559 1.36719 0.317383 1.00098 0.317383C0.622559 0.317383 0.317383 0.622559 0.317383 1.00098C0.317383 1.36719 0.622559 1.68457 1.00098 1.68457ZM4.84619 1.68457C5.22461 1.68457 5.52979 1.36719 5.52979 1.00098C5.52979 0.622559 5.22461 0.317383 4.84619 0.317383C4.46777 0.317383 4.1626 0.622559 4.1626 1.00098C4.1626 1.36719 4.46777 1.68457 4.84619 1.68457ZM8.69141 1.68457C9.06982 1.68457 9.375 1.36719 9.375 1.00098C9.375 0.622559 9.06982 0.317383 8.69141 0.317383C8.3252 0.317383 8.00781 0.622559 8.00781 1.00098C8.00781 1.36719 8.3252 1.68457 8.69141 1.68457ZM12.5488 1.98975C13.0859 1.98975 13.5376 1.53809 13.5376 1.00098C13.5376 0.45166 13.0859 0 12.5488 0C11.9995 0 11.5479 0.45166 11.5479 1.00098C11.5479 1.53809 11.9995 1.98975 12.5488 1.98975ZM16.394 1.98975C16.9312 1.98975 17.3828 1.53809 17.3828 1.00098C17.3828 0.45166 16.9312 0 16.394 0C15.8447 0 15.3931 0.45166 15.3931 1.00098C15.3931 1.53809 15.8447 1.98975 16.394 1.98975ZM20.2515 1.68457C20.6299 1.68457 20.9351 1.36719 20.9351 1.00098C20.9351 0.622559 20.6299 0.317383 20.2515 0.317383C19.8853 0.317383 19.5679 0.622559 19.5679 1.00098C19.5679 1.36719 19.8853 1.68457 20.2515 1.68457ZM24.1089 1.68457C24.4751 1.68457 24.7925 1.36719 24.7925 1.00098C24.7925 0.622559 24.4751 0.317383 24.1089 0.317383C23.7305 0.317383 23.4131 0.622559 23.4131 1.00098C23.4131 1.36719 23.7305 1.68457 24.1089 1.68457ZM27.9541 1.68457C28.3203 1.68457 28.6377 1.36719 28.6377 1.00098C28.6377 0.622559 28.3203 0.317383 27.9541 0.317383C27.5757 0.317383 27.2705 0.622559 27.2705 1.00098C27.2705 1.36719 27.5757 1.68457 27.9541 1.68457ZM1.00098 5.896C1.36719 5.896 1.68457 5.57861 1.68457 5.2002C1.68457 4.83398 1.36719 4.5166 1.00098 4.5166C0.622559 4.5166 0.317383 4.83398 0.317383 5.2002C0.317383 5.57861 0.622559 5.896 1.00098 5.896ZM4.84619 6.20117C5.39551 6.20117 5.84717 5.74951 5.84717 5.2002C5.84717 4.66309 5.39551 4.21143 4.84619 4.21143C4.29688 4.21143 3.84521 4.66309 3.84521 5.2002C3.84521 5.74951 4.29688 6.20117 4.84619 6.20117ZM8.69141 6.20117C8.8501 6.20117 9.00879 6.15234 9.14307 6.09131C9.30176 5.78613 9.48486 5.48096 9.69238 5.2002C9.69238 4.66309 9.24072 4.21143 8.69141 4.21143C8.1543 4.21143 7.70264 4.66309 7.70264 5.2002C7.70264 5.74951 8.1543 6.20117 8.69141 6.20117ZM20.2515 6.20117C20.8008 6.20117 21.2524 5.74951 21.2524 5.2002C21.2524 4.66309 20.8008 4.21143 20.2515 4.21143C19.7388 4.21143 19.3237 4.60205 19.2627 5.09033C19.5068 5.41992 19.7266 5.76172 19.9097 6.14014C20.0195 6.18896 20.1294 6.20117 20.2515 6.20117ZM24.1089 6.20117C24.646 6.20117 25.0977 5.74951 25.0977 5.2002C25.0977 4.66309 24.646 4.21143 24.1089 4.21143C23.5596 4.21143 23.1079 4.66309 23.1079 5.2002C23.1079 5.74951 23.5596 6.20117 24.1089 6.20117ZM27.9541 5.896C28.3203 5.896 28.6377 5.57861 28.6377 5.2002C28.6377 4.83398 28.3203 4.5166 27.9541 4.5166C27.5757 4.5166 27.2705 4.83398 27.2705 5.2002C27.2705 5.57861 27.5757 5.896 27.9541 5.896ZM1.00098 10.4126C1.53809 10.4126 1.98975 9.96094 1.98975 9.41162C1.98975 8.8623 1.53809 8.41064 1.00098 8.41064C0.45166 8.41064 0 8.8623 0 9.41162C0 9.96094 0.45166 10.4126 1.00098 10.4126ZM4.84619 10.7178C5.56641 10.7178 6.15234 10.1318 6.15234 9.41162C6.15234 8.69141 5.56641 8.10547 4.84619 8.10547C4.12598 8.10547 3.54004 8.69141 3.54004 9.41162C3.54004 10.1318 4.12598 10.7178 4.84619 10.7178ZM7.38525 9.41162C7.38525 10.1074 7.94678 10.6934 8.63037 10.7178C8.49609 10.2051 8.43506 9.65576 8.43506 9.09424C8.43506 8.75244 8.45947 8.43506 8.5083 8.11768C7.87354 8.21533 7.38525 8.75244 7.38525 9.41162ZM21.5698 9.41162C21.5698 8.78906 21.1182 8.26416 20.52 8.12988C20.5688 8.43506 20.5811 8.74023 20.5811 9.06982C20.5811 9.64355 20.52 10.1929 20.3857 10.7178C21.0327 10.6445 21.5698 10.083 21.5698 9.41162ZM24.1089 10.7178C24.8169 10.7178 25.415 10.1318 25.415 9.41162C25.415 8.69141 24.8169 8.10547 24.1089 8.10547C23.3887 8.10547 22.7905 8.69141 22.7905 9.41162C22.7905 10.1318 23.3887 10.7178 24.1089 10.7178ZM27.9541 10.4126C28.5034 10.4126 28.9551 9.96094 28.9551 9.41162C28.9551 8.8623 28.5034 8.41064 27.9541 8.41064C27.4048 8.41064 26.9531 8.8623 26.9531 9.41162C26.9531 9.96094 27.4048 10.4126 27.9541 10.4126ZM1.00098 14.6118C1.53809 14.6118 1.98975 14.1602 1.98975 13.623C1.98975 13.0737 1.53809 12.6221 1.00098 12.6221C0.45166 12.6221 0 13.0737 0 13.623C0 14.1602 0.45166 14.6118 1.00098 14.6118ZM4.84619 14.9292C5.56641 14.9292 6.15234 14.3311 6.15234 13.623C6.15234 12.9028 5.56641 12.3047 4.84619 12.3047C4.12598 12.3047 3.54004 12.9028 3.54004 13.623C3.54004 14.3311 4.12598 14.9292 4.84619 14.9292ZM8.12988 14.8071C8.69141 14.4409 9.31396 14.1479 9.97314 13.8794C10.1318 13.0737 9.52148 12.3047 8.69141 12.3047C7.9834 12.3047 7.38525 12.9028 7.38525 13.623C7.38525 14.1357 7.70264 14.5874 8.12988 14.8071ZM20.8618 14.7705C21.2646 14.5508 21.5698 14.1113 21.5698 13.623C21.5698 12.9028 20.9717 12.3047 20.2515 12.3047C19.4336 12.3047 18.8232 13.0615 18.9819 13.8672C19.6533 14.1113 20.2759 14.4287 20.8618 14.7705ZM24.1089 14.9292C24.8169 14.9292 25.415 14.3311 25.415 13.623C25.415 12.9028 24.8169 12.3047 24.1089 12.3047C23.3887 12.3047 22.7905 12.9028 22.7905 13.623C22.7905 14.3311 23.3887 14.9292 24.1089 14.9292ZM27.9541 14.6118C28.5034 14.6118 28.9551 14.1602 28.9551 13.623C28.9551 13.0737 28.5034 12.6221 27.9541 12.6221C27.4048 12.6221 26.9531 13.0737 26.9531 13.623C26.9531 14.1602 27.4048 14.6118 27.9541 14.6118ZM1.00098 18.5059C1.36719 18.5059 1.68457 18.2007 1.68457 17.8223C1.68457 17.4561 1.36719 17.1387 1.00098 17.1387C0.622559 17.1387 0.317383 17.4561 0.317383 17.8223C0.317383 18.2007 0.622559 18.5059 1.00098 18.5059ZM4.41895 18.7134C4.69971 18.1519 5.06592 17.5903 5.48096 17.0654C5.31006 16.9189 5.09033 16.8335 4.84619 16.8335C4.29688 16.8335 3.84521 17.2852 3.84521 17.8223C3.84521 18.2129 4.07715 18.5547 4.41895 18.7134ZM24.585 18.7012C24.8779 18.5303 25.0977 18.2007 25.0977 17.8223C25.0977 17.2852 24.646 16.8335 24.1089 16.8335C23.8647 16.8335 23.6694 16.9067 23.4985 17.0288C23.938 17.5659 24.292 18.1274 24.585 18.7012ZM27.9541 18.5059C28.3203 18.5059 28.6377 18.2007 28.6377 17.8223C28.6377 17.4561 28.3203 17.1387 27.9541 17.1387C27.5757 17.1387 27.2705 17.4561 27.2705 17.8223C27.2705 18.2007 27.5757 18.5059 27.9541 18.5059ZM1.00098 22.7173C1.36719 22.7173 1.68457 22.4121 1.68457 22.0337C1.68457 21.6553 1.36719 21.3501 1.00098 21.3501C0.622559 21.3501 0.317383 21.6553 0.317383 22.0337C0.317383 22.4121 0.622559 22.7173 1.00098 22.7173ZM27.9541 22.7173C28.3203 22.7173 28.6377 22.4121 28.6377 22.0337C28.6377 21.6553 28.3203 21.3501 27.9541 21.3501C27.5757 21.3501 27.2705 21.6553 27.2705 22.0337C27.2705 22.4121 27.5757 22.7173 27.9541 22.7173Z" fill="#5ac8f5" fill-opacity="0.5"/>
  <path d="M14.502 13.7085C16.7358 13.7085 18.7134 11.6699 18.7134 9.06982C18.7134 6.46973 16.7358 4.57764 14.502 4.57764C12.2803 4.57764 10.3027 6.51855 10.3027 9.09424C10.3027 11.6699 12.2803 13.7085 14.502 13.7085ZM8.25195 22.9492L20.752 22.9492C22.5586 22.9492 23.1079 22.4365 23.1079 21.5332C23.1079 18.8965 19.8242 15.2588 14.502 15.2588C9.19189 15.2588 5.9082 18.8965 5.9082 21.5332C5.9082 22.4365 6.44531 22.9492 8.25195 22.9492Z" fill="#5ac8f5"/>
 </g>
</svg>
