<?xml version="1.0" encoding="UTF-8"?>
<!--Generator: Apple Native CoreSVG 175.5-->
<!DOCTYPE svg
PUBLIC "-//W3C//DTD SVG 1.1//EN"
       "http://www.w3.org/Graphics/SVG/1.1/DTD/svg11.dtd">
<svg version="1.1" xmlns="http://www.w3.org/2000/svg" xmlns:xlink="http://www.w3.org/1999/xlink" width="24.9023" height="24.9146">
 <g>
  <rect height="24.9146" opacity="0" width="24.9023" x="0" y="0"/>
  <path d="M12.4512 24.9023C19.2627 24.9023 24.9023 19.2505 24.9023 12.4512C24.9023 5.63965 19.2505 0 12.439 0C5.63965 0 0 5.63965 0 12.4512C0 19.2505 5.65186 24.9023 12.4512 24.9023ZM12.4512 22.8271C6.68945 22.8271 2.0874 18.2129 2.0874 12.4512C2.0874 6.68945 6.67725 2.0752 12.439 2.0752C18.2007 2.0752 22.8271 6.68945 22.8271 12.4512C22.8271 18.2129 18.2129 22.8271 12.4512 22.8271ZM8.08105 16.9312L17.3584 16.9312C18.811 16.9312 19.9463 15.7715 19.9463 14.3555C19.9463 13.1348 19.1284 12.1216 18.042 11.853C18.0542 11.731 18.0542 11.6089 18.0542 11.499C18.0542 9.021 16.0889 7.00684 13.5498 7.00684C12.0605 7.00684 10.7422 7.71484 9.92432 8.83789C9.76562 8.80127 9.58252 8.77686 9.43604 8.77686C8.17871 8.77686 7.1167 9.69238 6.93359 10.9497C5.79834 11.4014 4.95605 12.5122 4.95605 13.8428C4.95605 15.8569 6.31104 16.9312 8.08105 16.9312Z" fill="#5ac8f5"/>
 </g>
</svg>
