<?xml version="1.0" encoding="UTF-8"?>
<!--Generator: Apple Native CoreSVG 175.5-->
<!DOCTYPE svg
PUBLIC "-//W3C//DTD SVG 1.1//EN"
       "http://www.w3.org/Graphics/SVG/1.1/DTD/svg11.dtd">
<svg version="1.1" xmlns="http://www.w3.org/2000/svg" xmlns:xlink="http://www.w3.org/1999/xlink" width="26.8311" height="19.812">
 <g>
  <rect height="19.812" opacity="0" width="26.8311" x="0" y="0"/>
  <path d="M3.83301 19.812L23.0103 19.812C25.5615 19.812 26.8311 18.5425 26.8311 16.0278L26.8311 3.80859C26.8311 1.29395 25.5615 0.0244141 23.0103 0.0244141L3.83301 0.0244141C1.28174 0.0244141 0 1.29395 0 3.80859L0 16.0278C0 18.5425 1.28174 19.812 3.83301 19.812ZM8.70361 15.4663C6.4209 15.4663 4.88281 13.9771 4.88281 11.7676C4.88281 10.6567 5.33447 9.69238 5.67627 8.94775C6.28662 7.6416 7.27539 6.01807 8.11768 4.69971C8.30078 4.44336 8.47168 4.3335 8.70361 4.3335C8.92334 4.3335 9.09424 4.44336 9.27734 4.69971C10.1318 6.01807 11.1206 7.6416 11.7188 8.94775C12.0605 9.69238 12.5244 10.6567 12.5244 11.7676C12.5244 13.9771 10.9863 15.4663 8.70361 15.4663ZM16.5527 7.48291C15.7349 7.48291 15.0757 6.81152 15.0757 6.00586C15.0757 5.2002 15.7349 4.52881 16.5527 4.52881C17.3584 4.52881 18.0298 5.2002 18.0298 6.00586C18.0298 6.81152 17.3584 7.48291 16.5527 7.48291ZM20.8862 7.48291C20.0806 7.48291 19.4092 6.81152 19.4092 6.00586C19.4092 5.2002 20.0806 4.52881 20.8862 4.52881C21.6919 4.52881 22.3633 5.2002 22.3633 6.00586C22.3633 6.81152 21.6919 7.48291 20.8862 7.48291ZM16.5527 11.377C15.7349 11.377 15.0757 10.7056 15.0757 9.8999C15.0757 9.09424 15.7349 8.42285 16.5527 8.42285C17.3584 8.42285 18.0298 9.09424 18.0298 9.8999C18.0298 10.7056 17.3584 11.377 16.5527 11.377ZM20.8862 11.377C20.0806 11.377 19.4092 10.7056 19.4092 9.8999C19.4092 9.09424 20.0806 8.42285 20.8862 8.42285C21.6919 8.42285 22.3633 9.09424 22.3633 9.8999C22.3633 10.7056 21.6919 11.377 20.8862 11.377ZM16.5527 15.271C15.7349 15.271 15.0757 14.5996 15.0757 13.7939C15.0757 12.9883 15.7349 12.3169 16.5527 12.3169C17.3584 12.3169 18.0298 12.9883 18.0298 13.7939C18.0298 14.5996 17.3584 15.271 16.5527 15.271ZM20.8862 15.271C20.0806 15.271 19.4092 14.5996 19.4092 13.7939C19.4092 12.9883 20.0806 12.3169 20.8862 12.3169C21.6919 12.3169 22.3633 12.9883 22.3633 13.7939C22.3633 14.5996 21.6919 15.271 20.8862 15.271Z" fill="#5ac8f5"/>
 </g>
</svg>
