<?xml version="1.0" encoding="UTF-8"?>
<!--Generator: Apple Native CoreSVG 175.5-->
<!DOCTYPE svg
PUBLIC "-//W3C//DTD SVG 1.1//EN"
       "http://www.w3.org/Graphics/SVG/1.1/DTD/svg11.dtd">
<svg version="1.1" xmlns="http://www.w3.org/2000/svg" xmlns:xlink="http://www.w3.org/1999/xlink" width="27.2736" height="28.5004">
 <g>
  <rect height="28.5004" opacity="0" width="27.2736" x="0" y="0"/>
  <path d="M18.4723 23.1064L5.42299 10.0327L1.32143 14.122C-0.424179 15.8676-0.4608 17.6743 1.33363 19.4565L9.06068 27.1713C10.8551 28.9536 12.6496 28.9291 14.3952 27.1835ZM8.80434 6.65131L21.8537 19.7006L26.297 15.2573C27.2125 14.3417 27.2736 13.8168 27.2736 12.5351L27.2736 7.89643C27.2736 6.60248 26.9684 6.19965 26.0407 5.27192L23.233 2.4643C22.3175 1.54877 21.9147 1.23139 20.6207 1.23139L15.9699 1.23139C14.6881 1.23139 14.1754 1.29242 13.2599 2.20795ZM18.57 10.997C17.6056 10.997 16.8976 10.2524 16.8976 9.32465C16.8976 8.38471 17.6056 7.65229 18.57 7.65229C19.5221 7.65229 20.2423 8.38471 20.2423 9.32465C20.2423 10.2524 19.5221 10.997 18.57 10.997ZM23.5748 26.1215C23.9533 26.4877 24.5514 26.4877 24.9054 26.1215C25.2594 25.7553 25.2716 25.1572 24.9054 24.791L3.71401 3.59955C3.34779 3.23334 2.74965 3.22113 2.37123 3.59955C2.01723 3.95356 2.01723 4.56391 2.37123 4.93012Z" fill="#5ac8f5"/>
 </g>
</svg>
