<?xml version="1.0" encoding="UTF-8"?>
<!--Generator: Apple Native CoreSVG 175.5-->
<!DOCTYPE svg
PUBLIC "-//W3C//DTD SVG 1.1//EN"
       "http://www.w3.org/Graphics/SVG/1.1/DTD/svg11.dtd">
<svg version="1.1" xmlns="http://www.w3.org/2000/svg" xmlns:xlink="http://www.w3.org/1999/xlink" width="28.8208" height="20.8618">
 <g>
  <rect height="20.8618" opacity="0" width="28.8208" x="0" y="0"/>
  <path d="M10.9253 16.6138C10.9253 16.9922 11.2183 17.2974 11.6089 17.2974C11.9751 17.2974 12.2803 16.9922 12.2803 16.6138L12.2803 14.0869C12.2803 13.7207 11.9751 13.4155 11.6089 13.4155C11.2183 13.4155 10.9253 13.7207 10.9253 14.0869ZM13.7207 16.6138C13.7207 16.9922 14.0259 17.2974 14.4165 17.2974C14.7827 17.2974 15.0879 16.9922 15.0879 16.6138L15.0879 14.0869C15.0879 13.7207 14.7827 13.4155 14.4165 13.4155C14.0259 13.4155 13.7207 13.7207 13.7207 14.0869ZM16.5283 16.6138C16.5283 16.9922 16.8335 17.2974 17.2119 17.2974C17.5903 17.2974 17.8955 16.9922 17.8955 16.6138L17.8955 14.0869C17.8955 13.7207 17.5903 13.4155 17.2119 13.4155C16.8335 13.4155 16.5283 13.7207 16.5283 14.0869ZM19.3359 16.6138C19.3359 16.9922 19.6289 17.2974 20.0195 17.2974C20.3979 17.2974 20.6909 16.9922 20.6909 16.6138L20.6909 14.0869C20.6909 13.7207 20.3979 13.4155 20.0195 13.4155C19.6289 13.4155 19.3359 13.7207 19.3359 14.0869ZM22.1436 16.6138C22.1436 16.9922 22.4365 17.2974 22.8271 17.2974C23.1934 17.2974 23.4985 16.9922 23.4985 16.6138L23.4985 14.0869C23.4985 13.7207 23.1934 13.4155 22.8271 13.4155C22.4365 13.4155 22.1436 13.7207 22.1436 14.0869ZM0 15.3564C0 18.457 2.40479 20.8618 5.79834 20.8618L23.0225 20.8618C26.416 20.8618 28.8208 18.457 28.8208 15.3564C28.8208 14.4409 28.5522 13.623 28.2349 12.854L24.1211 2.97852C23.3154 1.02539 21.6553 0.0244141 19.4702 0.0244141L9.35059 0.0244141C7.16553 0.0244141 5.50537 1.02539 4.69971 2.97852L0.57373 12.854C0.268555 13.6108 0 14.4409 0 15.3564ZM1.96533 15.3564C1.96533 13.3423 3.49121 11.8164 5.79834 11.8164L23.0225 11.8164C25.3296 11.8164 26.8555 13.3423 26.8555 15.3564C26.8555 17.6147 25.3296 18.8965 23.0225 18.8965L5.79834 18.8965C3.49121 18.8965 1.96533 17.3706 1.96533 15.3564ZM3.94287 10.1685L6.604 3.479C7.06787 2.31934 8.06885 1.7334 9.44824 1.7334L19.3726 1.7334C20.752 1.7334 21.7651 2.31934 22.2168 3.479L24.8779 10.1685C24.3042 9.96094 23.6938 9.85107 23.0225 9.85107L5.79834 9.85107C5.12695 9.85107 4.50439 9.96094 3.94287 10.1685Z" fill="#5ac8f5"/>
 </g>
</svg>
