<?xml version="1.0" encoding="UTF-8"?>
<!--Generator: Apple Native CoreSVG 175.5-->
<!DOCTYPE svg
PUBLIC "-//W3C//DTD SVG 1.1//EN"
       "http://www.w3.org/Graphics/SVG/1.1/DTD/svg11.dtd">
<svg version="1.1" xmlns="http://www.w3.org/2000/svg" xmlns:xlink="http://www.w3.org/1999/xlink" width="24.9023" height="24.9146">
 <g>
  <rect height="24.9146" opacity="0" width="24.9023" x="0" y="0"/>
  <path d="M12.4512 24.9146C19.2627 24.9146 24.9023 19.2749 24.9023 12.4634C24.9023 5.66406 19.2505 0.012207 12.439 0.012207C5.63965 0.012207 0 5.66406 0 12.4634C0 19.2749 5.65186 24.9146 12.4512 24.9146Z" fill="#5ac8f5" fill-opacity="0.25"/>
  <path d="M12.4512 16.2842C10.3638 16.2842 8.63037 14.5386 8.63037 12.4634C8.63037 10.376 10.3638 8.63037 12.4512 8.63037C14.5264 8.63037 16.2598 10.376 16.2598 12.4634C16.2598 14.5386 14.5264 16.2842 12.4512 16.2842ZM12.4512 4.49219C12.8662 4.49219 13.2324 4.8584 13.2324 5.28564L13.2324 6.7749C13.2324 7.18994 12.8662 7.55615 12.4512 7.55615C12.0361 7.55615 11.6821 7.18994 11.6821 6.7749L11.6821 5.28564C11.6821 4.8584 12.0361 4.49219 12.4512 4.49219ZM18.0786 6.82373C18.3716 7.12891 18.3838 7.62939 18.0786 7.92236L17.0044 8.99658C16.7114 9.30176 16.1987 9.31396 15.9058 8.99658C15.6128 8.71582 15.6006 8.23975 15.9058 7.92236L16.9922 6.82373C17.2729 6.53076 17.7734 6.51855 18.0786 6.82373ZM20.3979 12.4634C20.3979 12.8784 20.0439 13.2324 19.6167 13.2324L18.1152 13.2324C17.7002 13.2324 17.3462 12.8662 17.3462 12.4634C17.3462 12.0483 17.7002 11.6821 18.1152 11.6821L19.6167 11.6821C20.0439 11.6821 20.3979 12.0361 20.3979 12.4634ZM18.0786 18.0908C17.7734 18.3838 17.2852 18.3838 16.9922 18.0908L15.9058 17.0044C15.6006 16.7114 15.6006 16.2231 15.9058 15.918C16.1987 15.625 16.7114 15.625 16.9922 15.918L18.0786 16.9922C18.3838 17.2729 18.3838 17.7734 18.0786 18.0908ZM12.4512 20.4224C12.0361 20.4224 11.6821 20.0562 11.6821 19.6411L11.6821 18.1396C11.6821 17.7246 12.0361 17.3584 12.4512 17.3584C12.8662 17.3584 13.2324 17.7246 13.2324 18.1396L13.2324 19.6411C13.2324 20.0562 12.8662 20.4224 12.4512 20.4224ZM6.81152 18.0786C6.51855 17.7734 6.51855 17.2852 6.81152 16.9922L7.89795 15.918C8.17871 15.625 8.70361 15.625 8.99658 15.918C9.28955 16.2354 9.28955 16.7236 8.99658 17.0044L7.91016 18.0908C7.61719 18.3838 7.1167 18.3838 6.81152 18.0786ZM4.5166 12.4634C4.5166 12.0361 4.8584 11.6821 5.28564 11.6821L6.78711 11.6821C7.20215 11.6821 7.55615 12.0483 7.55615 12.4634C7.55615 12.8662 7.20215 13.2324 6.78711 13.2324L5.28564 13.2324C4.8584 13.2324 4.5166 12.8784 4.5166 12.4634ZM6.83594 6.82373C7.14111 6.53076 7.62939 6.54297 7.91016 6.82373L8.99658 7.92236C9.28955 8.20312 9.28955 8.71582 8.99658 8.99658C8.69141 9.30176 8.19092 9.31396 7.89795 8.99658L6.82373 7.92236C6.51855 7.62939 6.54297 7.12891 6.83594 6.82373Z" fill="#5ac8f5"/>
 </g>
</svg>
