<?xml version="1.0" encoding="UTF-8"?>
<!--Generator: Apple Native CoreSVG 175.5-->
<!DOCTYPE svg
PUBLIC "-//W3C//DTD SVG 1.1//EN"
       "http://www.w3.org/Graphics/SVG/1.1/DTD/svg11.dtd">
<svg version="1.1" xmlns="http://www.w3.org/2000/svg" xmlns:xlink="http://www.w3.org/1999/xlink" width="24.9023" height="24.8901">
 <g>
  <rect height="24.8901" opacity="0" width="24.9023" x="0" y="0"/>
  <path d="M12.4512 24.8901C15.3809 24.8901 18.2129 23.8403 20.4712 21.9238L11.6821 13.3057C11.438 13.0859 11.3892 12.8784 11.3892 12.5488L11.3892 0.0366211C5.05371 0.585938 0 5.99365 0 12.439C0 19.2505 5.65186 24.8901 12.4512 24.8901ZM24.9023 12.439C24.9023 10.6079 24.4507 8.69141 23.6816 7.12891L13.7085 12.8662L21.6797 20.7397C23.6816 18.5547 24.9023 15.5518 24.9023 12.439ZM13.0249 11.3647L22.876 5.70068C20.752 2.36816 16.9067 0.158691 13.0249 0Z" fill="#5ac8f5"/>
 </g>
</svg>
