<?xml version="1.0" encoding="UTF-8"?>
<!--Generator: Apple Native CoreSVG 175.5-->
<!DOCTYPE svg
PUBLIC "-//W3C//DTD SVG 1.1//EN"
       "http://www.w3.org/Graphics/SVG/1.1/DTD/svg11.dtd">
<svg version="1.1" xmlns="http://www.w3.org/2000/svg" xmlns:xlink="http://www.w3.org/1999/xlink" width="17.8955" height="27.0142">
 <g>
  <rect height="27.0142" opacity="0" width="17.8955" x="0" y="0"/>
  <path d="M3.78418 0C1.25732 0 0 1.29395 0 3.83301L0 23.1812C0 25.7324 1.25732 27.002 3.78418 27.002L14.1113 27.002C16.626 27.002 17.8955 25.7324 17.8955 23.1812L17.8955 3.83301C17.8955 1.29395 16.626 0 14.1113 0Z" fill="#5ac8f5" fill-opacity="0.25"/>
  <path d="M4.32129 15.4419L13.5132 15.4419C14.3433 15.4419 14.6729 15.7593 14.6729 16.5771L14.6729 22.6074C14.6729 23.4253 14.3433 23.7427 13.5132 23.7427L4.32129 23.7427C3.50342 23.7427 3.17383 23.4253 3.17383 22.6074L3.17383 16.5771C3.17383 15.7593 3.50342 15.4419 4.32129 15.4419Z" fill="#5ac8f5"/>
 </g>
</svg>
