<?xml version="1.0" encoding="UTF-8"?>
<!--Generator: Apple Native CoreSVG 175.5-->
<!DOCTYPE svg
PUBLIC "-//W3C//DTD SVG 1.1//EN"
       "http://www.w3.org/Graphics/SVG/1.1/DTD/svg11.dtd">
<svg version="1.1" xmlns="http://www.w3.org/2000/svg" xmlns:xlink="http://www.w3.org/1999/xlink" width="30.5176" height="25.2319">
 <g>
  <rect height="25.2319" opacity="0" width="30.5176" x="0" y="0"/>
  <path d="M3.13721 21.0938L27.3804 21.0938C29.4678 21.0938 30.5176 20.105 30.5176 17.9565L30.5176 3.96729C30.5176 1.83105 29.4678 0.842285 27.3804 0.842285L3.13721 0.842285C1.0498 0.842285 0 1.83105 0 3.96729L0 17.9565C0 20.105 1.0498 21.0938 3.13721 21.0938ZM9.11865 25.2319L21.3989 25.2319C21.936 25.2319 22.3877 24.7925 22.3877 24.2432C22.3877 23.6938 21.936 23.2544 21.3989 23.2544L9.11865 23.2544C8.58154 23.2544 8.12988 23.6938 8.12988 24.2432C8.12988 24.7925 8.58154 25.2319 9.11865 25.2319ZM15.8936 16.0278C15.625 16.0278 15.4541 15.8691 15.4175 15.6128C14.8804 11.9385 14.4043 11.1206 10.5469 10.73C10.2905 10.6934 10.1318 10.5103 10.1318 10.2661C10.1318 10.0342 10.2905 9.83887 10.5469 9.80225C14.3921 9.28955 14.7217 8.61816 15.4175 4.90723C15.4785 4.66309 15.6494 4.50439 15.8936 4.50439C16.1255 4.50439 16.3086 4.67529 16.3452 4.91943C16.8945 8.55713 17.395 9.28955 21.228 9.80225C21.4722 9.83887 21.6431 10.0342 21.6431 10.2661C21.6431 10.5103 21.4722 10.6934 21.228 10.73C17.3828 11.2427 17.041 11.9385 16.3452 15.625C16.2964 15.8691 16.1255 16.0278 15.8936 16.0278ZM10.9375 18.0908C10.7422 18.0908 10.6445 17.9565 10.5835 17.7612C10.2173 15.9668 10.376 15.8813 8.39844 15.5884C8.19092 15.5518 8.08105 15.4297 8.08105 15.2344C8.08105 15.0635 8.19092 14.917 8.37402 14.8926C10.376 14.563 10.2173 14.4775 10.5835 12.6953C10.6445 12.5 10.7544 12.3657 10.9375 12.3657C11.1206 12.3657 11.2427 12.5122 11.2915 12.6953C11.6333 14.4775 11.5112 14.563 13.5132 14.8926C13.6841 14.917 13.8062 15.0635 13.8062 15.2344C13.8062 15.4053 13.6841 15.5518 13.5132 15.5884C11.5112 15.8813 11.6333 15.9668 11.2915 17.7979C11.2427 17.9688 11.1084 18.0908 10.9375 18.0908Z" fill="#5ac8f5"/>
 </g>
</svg>
