<?xml version="1.0" encoding="UTF-8"?>
<!--Generator: Apple Native CoreSVG 175.5-->
<!DOCTYPE svg
PUBLIC "-//W3C//DTD SVG 1.1//EN"
       "http://www.w3.org/Graphics/SVG/1.1/DTD/svg11.dtd">
<svg version="1.1" xmlns="http://www.w3.org/2000/svg" xmlns:xlink="http://www.w3.org/1999/xlink" width="24.9023" height="24.9146">
 <g>
  <rect height="24.9146" opacity="0" width="24.9023" x="0" y="0"/>
  <path d="M12.4512 24.9023C19.2627 24.9023 24.9023 19.2505 24.9023 12.4512C24.9023 5.63965 19.2505 0 12.439 0C5.63965 0 0 5.63965 0 12.4512C0 19.2505 5.65186 24.9023 12.4512 24.9023ZM12.4512 22.8271C6.68945 22.8271 2.0874 18.2129 2.0874 12.4512C2.0874 6.68945 6.67725 2.0752 12.439 2.0752C18.2007 2.0752 22.8271 6.68945 22.8271 12.4512C22.8271 18.2129 18.2129 22.8271 12.4512 22.8271Z" fill="#5ac8f5" fill-opacity="0.5"/>
  <path d="M19.3115 10.4004C19.3115 8.43506 18.1152 6.79932 16.4795 6.79932L15.2832 6.79932C16.4917 7.66602 17.0044 8.95996 16.98 10.4736C16.9556 12.1338 16.3086 13.2935 15.7593 14.0137L16.7114 14.0137C18.1885 14.0137 19.3115 12.4268 19.3115 10.4004ZM16.1011 10.4614C16.1377 8.03223 14.1968 6.22559 11.1206 6.18896L10.2173 6.17676C9.375 6.16455 8.74023 6.23779 8.38623 6.32324C7.86133 6.45752 7.34863 6.7627 7.34863 7.39746C7.34863 7.62939 7.42188 7.84912 7.49512 7.97119C7.54395 8.05664 7.53174 8.12988 7.4585 8.1665C7.06787 8.31299 6.70166 8.71582 6.70166 9.21631C6.70166 9.53369 6.79932 9.80225 6.95801 9.97314C7.03125 10.0708 7.01904 10.1685 6.90918 10.2417C6.5918 10.4248 6.38428 10.7788 6.38428 11.2183C6.38428 11.5112 6.48193 11.853 6.65283 12.0117C6.7627 12.1094 6.75049 12.1582 6.62842 12.2559C6.43311 12.439 6.31104 12.7441 6.31104 13.0981C6.31104 13.7573 6.79932 14.2822 7.44629 14.2822L9.76562 14.2822C10.376 14.2822 10.7544 14.5752 10.7544 15.0757C10.7544 15.9546 9.65576 17.5781 9.65576 18.7256C9.65576 19.3359 10.0586 19.7021 10.5713 19.7021C11.0474 19.7021 11.2793 19.3848 11.5112 18.8843C12.5122 16.98 13.8184 15.4297 14.8193 14.0747C15.6494 12.9761 16.0767 12.0117 16.1011 10.4614Z" fill="#5ac8f5"/>
 </g>
</svg>
