<?xml version="1.0" encoding="UTF-8"?>
<!--Generator: Apple Native CoreSVG 175.5-->
<!DOCTYPE svg
PUBLIC "-//W3C//DTD SVG 1.1//EN"
       "http://www.w3.org/Graphics/SVG/1.1/DTD/svg11.dtd">
<svg version="1.1" xmlns="http://www.w3.org/2000/svg" xmlns:xlink="http://www.w3.org/1999/xlink" width="22.4731" height="22.4976">
 <g>
  <rect height="22.4976" opacity="0" width="22.4731" x="0" y="0"/>
  <path d="M3.83301 22.4976L18.6401 22.4976C21.2036 22.4976 22.4731 21.228 22.4731 18.7134L22.4731 3.80859C22.4731 1.29395 21.2036 0.0244141 18.6401 0.0244141L3.83301 0.0244141C1.28174 0.0244141 0 1.28174 0 3.80859L0 18.7134C0 21.2402 1.28174 22.4976 3.83301 22.4976ZM9.38721 16.6504C8.89893 16.6504 8.63037 16.2842 8.63037 15.7959L8.63037 14.3188L4.95605 14.3188C4.30908 14.3188 3.88184 13.916 3.88184 13.2446C3.88184 12.9028 3.94287 12.6221 4.1626 12.2314C5.00488 10.7056 6.26221 8.55713 7.31201 6.78711C7.72705 6.09131 8.17871 5.81055 8.91113 5.81055C9.65576 5.81055 10.1562 6.28662 10.1562 7.01904L10.1562 12.9028L10.8276 12.9028C11.2793 12.9028 11.5601 13.1714 11.5601 13.623C11.5601 14.0625 11.2793 14.3188 10.8276 14.3188L10.1562 14.3188L10.1562 15.7959C10.1562 16.2964 9.8999 16.6504 9.38721 16.6504ZM8.63037 12.9028L8.63037 7.51953L8.56934 7.51953C7.55615 9.22852 6.27441 11.4258 5.52979 12.854L5.52979 12.9028ZM16.3086 16.5161C15.8447 16.5161 15.5273 16.1987 15.5273 15.7104L15.5273 7.89795L15.4663 7.89795L14.1235 8.88672C13.8306 9.11865 13.7085 9.13086 13.501 9.13086C13.1348 9.13086 12.7808 8.80127 12.7808 8.37402C12.7808 8.04443 12.9395 7.8125 13.208 7.62939L15.1123 6.32324C15.564 6.01807 15.8081 5.896 16.2231 5.896C16.7603 5.896 17.1143 6.27441 17.1143 6.79932L17.1143 15.7104C17.1143 16.1987 16.7969 16.5161 16.3086 16.5161Z" fill="#5ac8f5"/>
 </g>
</svg>
