<?xml version="1.0" encoding="UTF-8"?>
<!--Generator: Apple Native CoreSVG 175.5-->
<!DOCTYPE svg
PUBLIC "-//W3C//DTD SVG 1.1//EN"
       "http://www.w3.org/Graphics/SVG/1.1/DTD/svg11.dtd">
<svg version="1.1" xmlns="http://www.w3.org/2000/svg" xmlns:xlink="http://www.w3.org/1999/xlink" width="35.3978" height="18.8354">
 <g>
  <rect height="18.8354" opacity="0" width="35.3978" x="0" y="0"/>
  <path d="M3.47053 10.3882L10.3187 10.3882C10.7093 10.3882 10.9046 10.1929 11.0511 9.87549L11.8446 8.12988L13.9808 12.7686C14.2371 13.3057 14.9573 13.3057 15.2259 12.7319L17.7039 7.23877L20.182 12.7319C20.4505 13.3057 21.1707 13.3057 21.4149 12.7686L23.5511 8.12988L24.3568 9.87549C24.5032 10.1929 24.6863 10.3882 25.077 10.3882L31.9373 10.3882L32.0106 8.71582L24.7352 8.71582L26.1756 9.99756L24.2835 5.9082C23.9661 5.22461 23.1238 5.23682 22.8309 5.87158L20.7923 10.2417L18.3265 4.74854C18.0457 4.1748 17.3499 4.1748 17.0814 4.74854L14.6033 10.2417L12.5648 5.87158C12.2718 5.23682 11.4417 5.22461 11.1243 5.9082L9.23225 9.99756L10.6727 8.71582L3.39729 8.71582Z" fill="#5ac8f5"/>
  <path d="M17.7039 16.6992C20.1087 16.6992 22.9163 17.4316 25.0037 18.5181C25.5653 18.8232 26.1878 18.7012 26.554 18.2251L34.867 7.6416C35.6849 6.5918 35.5506 5.48096 34.513 4.66309C31.1072 2.03857 24.5765 0 17.7039 0C10.8314 0 4.30061 2.03857 0.882638 4.66309C-0.15496 5.48096-0.289237 6.5918 0.540841 7.6416L8.85383 18.2251C9.22004 18.7012 9.83039 18.8232 10.3919 18.5181C12.4793 17.4316 15.2991 16.6992 17.7039 16.6992ZM17.7039 14.7339C15.47 14.7339 12.8944 15.3198 10.4041 16.3452C10.0989 16.4673 9.96467 16.4429 9.72053 16.1377L2.49397 6.93359C2.26203 6.62842 2.29865 6.33545 2.62824 6.11572C6.82746 3.4668 12.2108 1.96533 17.7039 1.96533C23.1971 1.96533 28.5804 3.4668 32.7796 6.11572C33.1092 6.33545 33.1458 6.62842 32.9017 6.93359L25.6873 16.1377C25.4432 16.4429 25.3089 16.4673 25.0037 16.3452C22.5135 15.3198 19.9256 14.7339 17.7039 14.7339Z" fill="#5ac8f5" fill-opacity="0.5"/>
 </g>
</svg>
