<?xml version="1.0" encoding="UTF-8"?>
<!--Generator: Apple Native CoreSVG 175.5-->
<!DOCTYPE svg
PUBLIC "-//W3C//DTD SVG 1.1//EN"
       "http://www.w3.org/Graphics/SVG/1.1/DTD/svg11.dtd">
<svg version="1.1" xmlns="http://www.w3.org/2000/svg" xmlns:xlink="http://www.w3.org/1999/xlink" width="25.2197" height="32.0679">
 <g>
  <rect height="32.0679" opacity="0" width="25.2197" x="0" y="0"/>
  <path d="M3.83301 27.0508L21.3867 27.0508C23.938 27.0508 25.2197 25.7812 25.2197 23.2788L25.2197 7.25098C25.2197 4.72412 23.938 3.4668 21.3867 3.4668L3.83301 3.4668C1.26953 3.4668 0 4.72412 0 7.25098L0 23.2788C0 25.7935 1.26953 27.0508 3.83301 27.0508ZM11.2305 19.5068C10.6445 19.5068 10.2417 18.9575 9.77783 18.3105C9.21631 17.5293 8.78906 16.3208 8.78906 15.1733C8.78906 13.3179 9.97314 12.3535 11.1572 12.3535C11.7798 12.3535 12.2925 12.7686 12.6831 12.7686C13.0615 12.7686 13.6353 12.3291 14.3433 12.3291C14.624 12.3291 15.5884 12.3535 16.2354 13.269C16.1743 13.3057 15.21 13.8672 15.21 15.0879C15.21 16.4795 16.4429 16.9678 16.4795 16.9922C16.4551 17.0288 16.2964 17.6758 15.8325 18.335C15.4297 18.9087 15.0024 19.5068 14.3433 19.5068C13.7207 19.5068 13.5376 19.1284 12.793 19.1284C12.0972 19.1284 11.8164 19.5068 11.2305 19.5068ZM12.7441 12.2559C12.6831 12.2559 12.6465 12.2314 12.6221 12.207C12.6099 12.1948 12.6099 12.1216 12.6099 12.0483C12.6099 11.5601 12.8174 11.0596 13.0981 10.7544C13.4644 10.3638 14.0259 10.0708 14.502 10.0464C14.5264 10.0952 14.5264 10.1562 14.5264 10.2295C14.5264 10.73 14.3188 11.2061 14.0259 11.5601C13.7207 11.9507 13.1592 12.2559 12.7441 12.2559ZM3.28369 30.6763L7.73926 30.6763C8.25195 30.6763 8.65479 30.2612 8.65479 29.7485C8.65479 29.2358 8.25195 28.8208 7.73926 28.8208L3.28369 28.8208C2.7832 28.8208 2.36816 29.2358 2.36816 29.7485C2.36816 30.2612 2.7832 30.6763 3.28369 30.6763ZM4.58984 29.6875L6.43311 29.6875L6.43311 26.0132L4.58984 26.0132ZM17.4805 30.6763L21.936 30.6763C22.4487 30.6763 22.8516 30.2612 22.8516 29.7485C22.8516 29.2358 22.4487 28.8208 21.936 28.8208L17.4805 28.8208C16.98 28.8208 16.5649 29.2358 16.5649 29.7485C16.5649 30.2612 16.98 30.6763 17.4805 30.6763ZM18.7866 29.6875L20.6299 29.6875L20.6299 26.0132L18.7866 26.0132ZM4.58984 4.41895L6.43311 4.41895L6.43311 0.915527C6.43311 0.415039 6.03027 0 5.51758 0C5.00488 0 4.58984 0.415039 4.58984 0.915527ZM18.7866 4.41895L20.6299 4.41895L20.6299 0.915527C20.6299 0.415039 20.2271 0 19.7144 0C19.1895 0 18.7866 0.415039 18.7866 0.915527Z" fill="#5ac8f5"/>
 </g>
</svg>
