<?xml version="1.0" encoding="UTF-8"?>
<!--Generator: Apple Native CoreSVG 175.5-->
<!DOCTYPE svg
PUBLIC "-//W3C//DTD SVG 1.1//EN"
       "http://www.w3.org/Graphics/SVG/1.1/DTD/svg11.dtd">
<svg version="1.1" xmlns="http://www.w3.org/2000/svg" xmlns:xlink="http://www.w3.org/1999/xlink" width="26.9043" height="26.8188">
 <g>
  <rect height="26.8188" opacity="0" width="26.9043" x="0" y="0"/>
  <path d="M7.50732 26.8188C8.10547 26.8188 8.52051 26.5015 9.26514 25.8423L13.4766 22.0947L21.3135 22.0947C24.9512 22.0947 26.9043 20.0806 26.9043 16.5039L26.9043 7.15332C26.9043 3.57666 24.9512 1.5625 21.3135 1.5625L5.59082 1.5625C1.95312 1.5625 0 3.56445 0 7.15332L0 16.5039C0 20.0928 1.95312 22.0947 5.59082 22.0947L6.17676 22.0947L6.17676 25.2686C6.17676 26.2085 6.65283 26.8188 7.50732 26.8188ZM8.00781 24.585L8.00781 21.0449C8.00781 20.3857 7.75146 20.1294 7.09229 20.1294L5.59082 20.1294C3.125 20.1294 1.96533 18.8721 1.96533 16.4917L1.96533 7.15332C1.96533 4.77295 3.125 3.52783 5.59082 3.52783L21.3135 3.52783C23.7671 3.52783 24.939 4.77295 24.939 7.15332L24.939 16.4917C24.939 18.8721 23.7671 20.1294 21.3135 20.1294L13.4033 20.1294C12.7197 20.1294 12.3779 20.2271 11.9141 20.7031ZM13.0737 17.334C13.4644 17.334 13.7695 17.0288 13.7695 16.626L13.7695 7.05566C13.7695 6.65283 13.4644 6.32324 13.0615 6.32324C12.7563 6.32324 12.5732 6.45752 12.2559 6.75049L9.59473 9.26514C9.5459 9.30176 9.49707 9.31396 9.43604 9.31396L7.6416 9.31396C6.79932 9.31396 6.33545 9.77783 6.33545 10.6689L6.33545 13.0005C6.33545 13.8916 6.79932 14.3555 7.6416 14.3555L9.43604 14.3555C9.49707 14.3555 9.5459 14.3677 9.59473 14.4043L12.2559 16.9434C12.5366 17.2119 12.7686 17.334 13.0737 17.334ZM15.8325 14.5752C16.1133 14.7827 16.4917 14.6973 16.7114 14.4165C17.2119 13.7695 17.4927 12.8174 17.4927 11.8164C17.4927 10.8521 17.1997 9.8999 16.7114 9.22852C16.5039 8.93555 16.1133 8.8623 15.8325 9.06982C15.5273 9.30176 15.4785 9.68018 15.6982 9.99756C16.0278 10.4248 16.2231 11.1084 16.2231 11.8164C16.2231 12.5 16.0156 13.1836 15.6982 13.6475C15.4785 13.9771 15.5273 14.3433 15.8325 14.5752ZM18.0054 16.1865C18.3105 16.3818 18.6768 16.3208 18.8721 16.0278C19.7021 14.8682 20.166 13.3789 20.166 11.8164C20.166 10.2905 19.7144 8.80127 18.8843 7.61719C18.6646 7.31201 18.2861 7.23877 18.0054 7.43408C17.7124 7.66602 17.6514 8.03223 17.8833 8.34961C18.5425 9.27734 18.9087 10.5103 18.9087 11.8164C18.9087 13.1104 18.5425 14.3921 17.8711 15.2832C17.6392 15.6006 17.688 15.9912 18.0054 16.1865Z" fill="#5ac8f5"/>
 </g>
</svg>
