<?xml version="1.0" encoding="UTF-8"?>
<!--Generator: Apple Native CoreSVG 175.5-->
<!DOCTYPE svg
PUBLIC "-//W3C//DTD SVG 1.1//EN"
       "http://www.w3.org/Graphics/SVG/1.1/DTD/svg11.dtd">
<svg version="1.1" xmlns="http://www.w3.org/2000/svg" xmlns:xlink="http://www.w3.org/1999/xlink" width="24.9023" height="24.9146">
 <g>
  <rect height="24.9146" opacity="0" width="24.9023" x="0" y="0"/>
  <path d="M12.4512 24.9146C19.2627 24.9146 24.9023 19.2749 24.9023 12.4634C24.9023 5.66406 19.2505 0.012207 12.439 0.012207C5.63965 0.012207 0 5.66406 0 12.4634C0 19.2749 5.65186 24.9146 12.4512 24.9146ZM7.66602 19.2261C7.34863 19.2261 7.06787 18.9575 7.06787 18.6401L7.06787 8.08105C7.06787 7.54395 7.33643 7.15332 7.84912 6.92139C8.30078 6.70166 8.69141 6.5918 9.68018 6.5918C11.9385 6.5918 13.3667 7.71484 15.5029 7.71484C16.5405 7.71484 17.0898 7.44629 17.4561 7.44629C17.9688 7.44629 18.1641 7.71484 18.1641 8.09326L18.1641 14.2822C18.1641 14.856 17.9199 15.2222 17.395 15.4785C16.9189 15.686 16.5283 15.7837 15.564 15.7837C13.3911 15.7837 11.9751 14.6851 9.74121 14.6851C8.95996 14.6851 8.47168 14.8315 8.22754 14.9292L8.22754 18.6401C8.22754 18.9697 8.00781 19.2261 7.66602 19.2261Z" fill="#5ac8f5"/>
 </g>
</svg>
