<?xml version="1.0" encoding="UTF-8"?>
<!--Generator: Apple Native CoreSVG 175.5-->
<!DOCTYPE svg
PUBLIC "-//W3C//DTD SVG 1.1//EN"
       "http://www.w3.org/Graphics/SVG/1.1/DTD/svg11.dtd">
<svg version="1.1" xmlns="http://www.w3.org/2000/svg" xmlns:xlink="http://www.w3.org/1999/xlink" width="30.9937" height="37.2284">
 <g>
  <rect height="37.2284" opacity="0" width="30.9937" x="0" y="0"/>
  <path d="M15.4907 7.87813C9.57031 7.87813 4.77295 12.6877 4.77295 18.6081C4.77295 24.5285 9.57031 29.3259 15.4907 29.3259C21.4233 29.3259 26.2207 24.5285 26.2207 18.6081C26.2207 12.6877 21.4233 7.87813 15.4907 7.87813ZM15.4907 3.11739C6.93359 3.11739 0 10.051 0 18.6081C0 25.4318 4.41895 31.2302 10.5469 33.2932C10.4492 32.5852 10.6445 31.9016 11.0596 31.3767C5.77393 29.5456 1.96533 24.5285 1.96533 18.6081C1.96533 11.1374 8.02002 5.08272 15.4907 5.08272C22.9614 5.08272 29.0283 11.1374 29.0283 18.6081C29.0283 24.5041 25.2319 29.5334 19.9463 31.3767C20.3735 31.8894 20.5566 32.573 20.459 33.281C26.5869 31.2058 30.9937 25.4196 30.9937 18.6081C30.9937 10.051 24.0479 3.11739 15.4907 3.11739ZM12.4268 33.6228L14.856 36.8942C15.1855 37.3459 15.8081 37.3337 16.1499 36.8942L18.5913 33.6228C19.0796 32.9758 18.8232 32.1335 17.9443 32.1335L13.0615 32.1335C12.2192 32.1335 11.9263 32.9514 12.4268 33.6228ZM13.269 23.9548C12.6465 23.9548 12.3169 23.5031 12.3169 22.8562L12.3169 13.9816C12.3169 13.3347 12.6465 12.8952 13.269 12.8952C13.8916 12.8952 14.2334 13.3225 14.2334 13.9816L14.2334 22.3679L18.7744 22.3679C19.2383 22.3679 19.5801 22.6608 19.5801 23.1491C19.5801 23.6496 19.2383 23.9548 18.7744 23.9548Z" fill="#5ac8f5"/>
 </g>
</svg>
