<?xml version="1.0" encoding="UTF-8"?>
<!--Generator: Apple Native CoreSVG 175.5-->
<!DOCTYPE svg
PUBLIC "-//W3C//DTD SVG 1.1//EN"
       "http://www.w3.org/Graphics/SVG/1.1/DTD/svg11.dtd">
<svg version="1.1" xmlns="http://www.w3.org/2000/svg" xmlns:xlink="http://www.w3.org/1999/xlink" width="23.8403" height="29.0405">
 <g>
  <rect height="29.0405" opacity="0" width="23.8403" x="0" y="0"/>
  <path d="M11.8164 9.27734C13.2935 9.27734 14.4897 8.08105 14.4897 6.604C14.4897 5.12695 13.2935 3.94287 11.8164 3.94287C10.3394 3.94287 9.15527 5.12695 9.15527 6.604C9.15527 8.08105 10.3394 9.27734 11.8164 9.27734ZM22.6074 29.0405C23.291 29.0405 23.8403 28.479 23.8403 27.8076L23.8403 21.6187C23.8403 21.1792 23.6084 20.8496 23.291 20.5811L18.4937 16.626L17.5415 11.4746C17.4561 10.9497 17.5171 10.437 17.7734 9.92432L21.814 1.85547C22.1191 1.24512 21.8628 0.500488 21.2524 0.195312C20.6421-0.109863 19.8975 0.134277 19.5923 0.732422L15.625 8.69141C15.3442 9.25293 14.9414 9.61914 14.3433 9.86328L7.34863 12.7686L4.52881 10.5103C4.32129 10.3516 4.07715 10.2905 3.86963 10.2905L3.86963 6.93359L2.51465 6.93359L2.51465 11.4258C2.51465 11.8408 2.63672 12.1948 2.9541 12.4512L6.39648 15.1855C6.82373 15.5151 7.2876 15.4907 7.82471 15.271L11.6455 13.6719C12.1826 13.4399 12.4512 13.7451 12.5122 14.1113L14.4043 24.5483L9.15527 26.6479C8.53271 26.8921 8.21533 27.6123 8.45947 28.2593C8.75244 28.9795 9.46045 29.1748 10.0708 28.9307L16.2598 26.4648C16.7969 26.2451 17.0776 25.7202 17.041 25.1587L16.687 20.3491C16.6504 19.812 17.2363 19.5068 17.6514 19.7876L21.3745 22.2778L21.3745 27.8076C21.3745 28.479 21.9116 29.0405 22.6074 29.0405ZM3.19824 0.439453C1.40381 0.439453 0 1.85547 0 3.66211C0 5.29785 1.3916 7.10449 3.19824 7.71484C5.00488 7.10449 6.38428 5.29785 6.38428 3.66211C6.38428 1.85547 4.98047 0.439453 3.19824 0.439453ZM3.19824 1.79443C4.22363 1.79443 5.0293 2.62451 5.0293 3.69873C5.0293 4.74854 4.26025 5.88379 3.19824 6.25C2.13623 5.88379 1.35498 4.74854 1.35498 3.69873C1.35498 2.62451 2.16064 1.79443 3.19824 1.79443Z" fill="#5ac8f5"/>
 </g>
</svg>
