<?xml version="1.0" encoding="UTF-8"?>
<!--Generator: Apple Native CoreSVG 175.5-->
<!DOCTYPE svg
PUBLIC "-//W3C//DTD SVG 1.1//EN"
       "http://www.w3.org/Graphics/SVG/1.1/DTD/svg11.dtd">
<svg version="1.1" xmlns="http://www.w3.org/2000/svg" xmlns:xlink="http://www.w3.org/1999/xlink" width="26.1597" height="21.0083">
 <g>
  <rect height="21.0083" opacity="0" width="26.1597" x="0" y="0"/>
  <path d="M6.46973 20.9839L19.6777 20.9839C20.5688 20.9839 21.3989 20.6787 22.0093 20.0928C24.6216 17.6147 26.1597 14.0259 26.1597 10.498C26.1597 6.97021 24.6216 3.38135 22.0093 0.90332C21.3989 0.317383 20.5688 0 19.6777 0L6.46973 0C5.54199 0 4.66309 0.354004 4.02832 1.00098C1.51367 3.4668 0 7.01904 0 10.498C0 14.0259 1.53809 17.6147 4.15039 20.0928C4.76074 20.6787 5.57861 20.9839 6.46973 20.9839ZM7.82471 15.5884C7.18994 15.5884 6.72607 15.1245 6.72607 14.4897L6.72607 6.64062C6.72607 6.01807 7.18994 5.50537 7.82471 5.50537C8.44727 5.50537 8.94775 6.01807 8.94775 6.64062L8.94775 14.4897C8.94775 15.1245 8.44727 15.5884 7.82471 15.5884ZM18.3228 15.5884C17.688 15.5884 17.2119 15.0879 17.2119 14.4653L17.2119 6.65283C17.2119 6.01807 17.688 5.50537 18.3228 5.50537C18.9575 5.50537 19.4336 6.01807 19.4336 6.65283L19.4336 14.4653C19.4336 15.1001 18.9575 15.5884 18.3228 15.5884Z" fill="#5ac8f5"/>
 </g>
</svg>
