<?xml version="1.0" encoding="UTF-8"?>
<!--Generator: Apple Native CoreSVG 175.5-->
<!DOCTYPE svg
PUBLIC "-//W3C//DTD SVG 1.1//EN"
       "http://www.w3.org/Graphics/SVG/1.1/DTD/svg11.dtd">
<svg version="1.1" xmlns="http://www.w3.org/2000/svg" xmlns:xlink="http://www.w3.org/1999/xlink" width="24.9023" height="24.9146">
 <g>
  <rect height="24.9146" opacity="0" width="24.9023" x="0" y="0"/>
  <path d="M12.4512 24.9023C19.2627 24.9023 24.9023 19.2505 24.9023 12.4512C24.9023 5.63965 19.2505 0 12.439 0C5.63965 0 0 5.63965 0 12.4512C0 19.2505 5.65186 24.9023 12.4512 24.9023ZM12.4512 22.8271C6.68945 22.8271 2.0874 18.2129 2.0874 12.4512C2.0874 6.68945 6.67725 2.0752 12.439 2.0752C18.2007 2.0752 22.8271 6.68945 22.8271 12.4512C22.8271 18.2129 18.2129 22.8271 12.4512 22.8271Z" fill="#5ac8f5" fill-opacity="0.5"/>
  <path d="M15.0024 12.439C15.0024 13.7207 15.3809 14.9902 16.0278 15.8447C16.2964 16.2231 16.8091 16.333 17.1875 16.0767C17.6025 15.7715 17.6758 15.2588 17.3584 14.8193C16.9189 14.2212 16.6626 13.3301 16.6626 12.439C16.6626 11.5234 16.9189 10.6323 17.3584 10.0708C17.688 9.63135 17.6147 9.09424 17.1875 8.80127C16.8091 8.55713 16.3086 8.66699 16.0278 9.0332C15.3809 9.93652 15.0024 11.1938 15.0024 12.439Z" fill="#5ac8f5"/>
  <path d="M11.1816 12.439C11.1816 14.4775 11.7798 16.4551 12.8662 17.9688C13.1592 18.3716 13.6475 18.457 14.0381 18.1885C14.4043 17.9321 14.4897 17.4194 14.1968 16.9922C13.3301 15.7959 12.8418 14.1479 12.8418 12.439C12.8418 10.7422 13.3301 9.09424 14.1968 7.89795C14.4897 7.4707 14.4043 6.95801 14.0381 6.70166C13.6475 6.4209 13.1592 6.51855 12.8662 6.90918C11.7798 8.39844 11.1816 10.3638 11.1816 12.439Z" fill="#5ac8f5"/>
  <path d="M7.36084 12.439C7.36084 15.2466 8.19092 17.9565 9.68018 20.105C9.98535 20.4956 10.4858 20.6055 10.8643 20.3369C11.2549 20.0562 11.3159 19.5557 11.0229 19.1406C9.74121 17.3096 8.99658 14.8926 8.99658 12.439C8.99658 9.96094 9.729 7.58057 11.0229 5.7373C11.3159 5.33447 11.2549 4.82178 10.8643 4.54102C10.4736 4.27246 9.97314 4.37012 9.68018 4.78516C8.19092 6.9458 7.36084 9.65576 7.36084 12.439Z" fill="#5ac8f5"/>
 </g>
</svg>
