<?xml version="1.0" encoding="UTF-8"?>
<!--Generator: Apple Native CoreSVG 175.5-->
<!DOCTYPE svg
PUBLIC "-//W3C//DTD SVG 1.1//EN"
       "http://www.w3.org/Graphics/SVG/1.1/DTD/svg11.dtd">
<svg version="1.1" xmlns="http://www.w3.org/2000/svg" xmlns:xlink="http://www.w3.org/1999/xlink" width="22.4731" height="22.4976">
 <g>
  <rect height="22.4976" opacity="0" width="22.4731" x="0" y="0"/>
  <path d="M3.83301 22.4976L18.6401 22.4976C21.2036 22.4976 22.4731 21.228 22.4731 18.7134L22.4731 3.80859C22.4731 1.29395 21.2036 0.0244141 18.6401 0.0244141L3.83301 0.0244141C1.28174 0.0244141 0 1.28174 0 3.80859L0 18.7134C0 21.2402 1.28174 22.4976 3.83301 22.4976ZM9.11865 17.5415C8.63037 17.5415 8.28857 17.1997 8.28857 16.7114L8.28857 15.4419L7.17773 15.4419C6.81152 15.4419 6.56738 15.1855 6.56738 14.8193C6.56738 14.4653 6.81152 14.1968 7.17773 14.1968L8.28857 14.1968L8.28857 12.9761L7.16553 12.9761C6.79932 12.9761 6.54297 12.6953 6.54297 12.3413C6.54297 11.9873 6.79932 11.7188 7.16553 11.7188L8.28857 11.7188L8.28857 6.31104C8.28857 5.81055 8.60596 5.46875 9.10645 5.46875L12.0972 5.46875C14.4409 5.46875 15.918 7.05566 15.918 9.21631C15.918 11.4014 14.4287 12.9639 12.085 12.9639L9.93652 12.9639L9.93652 14.1968L12.8662 14.1968C13.2324 14.1968 13.4766 14.4653 13.4766 14.8193C13.4766 15.1855 13.2324 15.4419 12.8662 15.4419L9.93652 15.4419L9.93652 16.7114C9.93652 17.1997 9.59473 17.5415 9.11865 17.5415ZM9.94873 11.4868L11.8042 11.5112C13.4155 11.5112 14.2578 10.6323 14.2578 9.22852C14.2578 7.84912 13.4277 6.98242 11.8042 6.98242L9.94873 6.98242Z" fill="#5ac8f5"/>
 </g>
</svg>
