<?xml version="1.0" encoding="UTF-8"?>
<!--Generator: Apple Native CoreSVG 175.5-->
<!DOCTYPE svg
PUBLIC "-//W3C//DTD SVG 1.1//EN"
       "http://www.w3.org/Graphics/SVG/1.1/DTD/svg11.dtd">
<svg version="1.1" xmlns="http://www.w3.org/2000/svg" xmlns:xlink="http://www.w3.org/1999/xlink" width="24.9023" height="24.9146">
 <g>
  <rect height="24.9146" opacity="0" width="24.9023" x="0" y="0"/>
  <path d="M12.4512 24.9023C19.2627 24.9023 24.9023 19.2627 24.9023 12.4512C24.9023 5.65186 19.2505 0 12.439 0C5.63965 0 0 5.65186 0 12.4512C0 19.2627 5.65186 24.9023 12.4512 24.9023ZM12.4512 22.8271C6.68945 22.8271 2.0874 18.2129 2.0874 12.4512C2.0874 6.70166 6.67725 2.0752 12.439 2.0752C18.2007 2.0752 22.8271 6.70166 22.8271 12.4512C22.8271 18.2129 18.2129 22.8271 12.4512 22.8271ZM15.0146 4.99268C15.3076 4.21143 14.4653 3.78418 13.9648 4.41895L10.6689 8.56934L12.8662 10.7666ZM13.0615 10.9619L15.8569 13.7573L17.2852 11.9751C17.4072 11.8042 17.4805 11.6455 17.4805 11.4868C17.4805 11.1816 17.2363 10.9619 16.9189 10.9619ZM11.5723 13.6719L8.80127 10.9009L7.39746 12.6587C7.27539 12.8296 7.18994 12.9883 7.18994 13.1348C7.18994 13.4521 7.44629 13.6719 7.75146 13.6719ZM13.9893 16.1011L11.7554 13.855L9.57031 19.751C9.27734 20.5444 10.1074 20.9595 10.6079 20.3369ZM18.2007 18.9941C18.4082 19.2017 18.7744 19.2017 18.9819 18.9941C19.2017 18.7622 19.2017 18.4326 18.9819 18.2129L6.68945 5.9082C6.46973 5.68848 6.11572 5.68848 5.896 5.9082C5.67627 6.11572 5.68848 6.48193 5.896 6.68945Z" fill="#5ac8f5"/>
 </g>
</svg>
