<?xml version="1.0" encoding="UTF-8"?>
<!--Generator: Apple Native CoreSVG 175.5-->
<!DOCTYPE svg
PUBLIC "-//W3C//DTD SVG 1.1//EN"
       "http://www.w3.org/Graphics/SVG/1.1/DTD/svg11.dtd">
<svg version="1.1" xmlns="http://www.w3.org/2000/svg" xmlns:xlink="http://www.w3.org/1999/xlink" width="29.5166" height="22.4976">
 <g>
  <rect height="22.4976" opacity="0" width="29.5166" x="0" y="0"/>
  <path d="M10.498 0.0244141C3.22266 0.0244141 0 3.35693 0 10.1929L0 18.7134C0 21.2402 1.28174 22.4976 3.83301 22.4976L25.6836 22.4976C28.2349 22.4976 29.5166 21.228 29.5166 18.7134L29.5166 10.1929C29.5166 3.35693 26.2939 0.0244141 19.0308 0.0244141ZM10.498 2.01416L19.0186 2.01416C24.9512 2.01416 27.5513 4.60205 27.5513 10.083L27.5513 18.6157C27.5513 19.8853 26.8677 20.5322 25.6592 20.5322L3.85742 20.5322C2.63672 20.5322 1.96533 19.8853 1.96533 18.6157L1.96533 10.083C1.96533 4.60205 4.56543 2.01416 10.498 2.01416ZM6.21338 16.7603L13.3789 16.7603C13.8428 16.7603 14.1846 16.4429 14.1846 15.9546C14.1846 15.4541 13.8428 15.1611 13.3789 15.1611L7.88574 15.1611L7.88574 15.0635L13.4888 7.27539C13.7329 6.9458 13.7939 6.78711 13.7939 6.49414C13.7939 5.99365 13.4155 5.62744 12.8906 5.62744L6.11572 5.62744C5.65186 5.62744 5.29785 5.94482 5.29785 6.43311C5.29785 6.93359 5.65186 7.22656 6.11572 7.22656L11.2793 7.22656L11.2793 7.32422L5.67627 15.1001C5.40771 15.4785 5.33447 15.6616 5.33447 15.9302C5.33447 16.4185 5.70068 16.7603 6.21338 16.7603ZM16.9189 16.8945C17.5659 16.8945 17.9077 16.4917 17.9077 15.8081L17.9077 12.7808L20.1782 12.7808L22.3022 16.2598C22.5952 16.7236 22.8394 16.8945 23.2666 16.8945C23.7915 16.8945 24.1577 16.5527 24.1577 16.0645C24.1577 15.7959 24.0845 15.6006 23.938 15.3564L22.1069 12.5C23.5352 12.0239 24.4629 10.7422 24.4629 9.21631C24.4629 7.03125 22.9004 5.62744 20.4224 5.62744L16.9189 5.62744C16.2842 5.62744 15.9546 6.0791 15.9546 6.72607L15.9546 15.8081C15.9546 16.4673 16.2964 16.8945 16.9189 16.8945ZM17.9077 11.3525L17.9077 7.1167L20.1782 7.1167C21.582 7.1167 22.5342 7.89795 22.5342 9.26514C22.5342 10.6079 21.6064 11.3525 20.1294 11.3525Z" fill="#5ac8f5"/>
 </g>
</svg>
