<?xml version="1.0" encoding="UTF-8"?>
<!--Generator: Apple Native CoreSVG 175.5-->
<!DOCTYPE svg
PUBLIC "-//W3C//DTD SVG 1.1//EN"
       "http://www.w3.org/Graphics/SVG/1.1/DTD/svg11.dtd">
<svg version="1.1" xmlns="http://www.w3.org/2000/svg" xmlns:xlink="http://www.w3.org/1999/xlink" width="19.9341" height="32.4097">
 <g>
  <rect height="32.4097" opacity="0" width="19.9341" x="0" y="0"/>
  <path d="M4.69971 25.1587L17.334 25.1587C17.7734 25.1587 18.1763 24.6582 18.1763 24.2432C18.1763 23.8159 17.7734 23.3154 17.334 23.3154L4.66309 23.3154C3.6499 23.3154 3.13721 22.7539 3.13721 21.7773L3.13721 3.06396L1.17188 3.06396L1.17188 21.6919C1.17188 23.999 2.35596 25.1587 4.69971 25.1587ZM16.8213 30.2368L18.7866 30.2368L18.7866 11.2427C18.7866 9.00879 17.6392 7.89795 15.3931 7.89795L2.6123 7.89795C2.18506 7.89795 1.78223 8.39844 1.78223 8.81348C1.78223 9.22852 2.18506 9.74121 2.6123 9.74121L15.2954 9.74121C16.3086 9.74121 16.8213 10.3027 16.8213 11.2793ZM17.7979 32.4097C18.9819 32.4097 19.9341 31.4575 19.9341 30.2734C19.9341 29.1016 18.9819 28.1372 17.7979 28.1372C16.626 28.1372 15.6616 29.1016 15.6616 30.2734C15.6616 31.4575 16.626 32.4097 17.7979 32.4097ZM2.13623 4.91943C3.32031 4.91943 4.27246 3.96729 4.27246 2.7832C4.27246 1.61133 3.32031 0.646973 2.13623 0.646973C0.964355 0.646973 0 1.61133 0 2.7832C0 3.96729 0.964355 4.91943 2.13623 4.91943Z" fill="#5ac8f5"/>
 </g>
</svg>
