<?xml version="1.0" encoding="UTF-8"?>
<!--Generator: Apple Native CoreSVG 175.5-->
<!DOCTYPE svg
PUBLIC "-//W3C//DTD SVG 1.1//EN"
       "http://www.w3.org/Graphics/SVG/1.1/DTD/svg11.dtd">
<svg version="1.1" xmlns="http://www.w3.org/2000/svg" xmlns:xlink="http://www.w3.org/1999/xlink" width="24.9023" height="24.9146">
 <g>
  <rect height="24.9146" opacity="0" width="24.9023" x="0" y="0"/>
  <path d="M12.4512 24.9146C19.2627 24.9146 24.9023 19.2749 24.9023 12.4634C24.9023 5.66406 19.2505 0.012207 12.439 0.012207C5.63965 0.012207 0 5.66406 0 12.4634C0 19.2749 5.65186 24.9146 12.4512 24.9146ZM14.7827 18.5059C14.4531 18.5059 14.1846 18.3838 13.8794 18.0786L10.9863 15.3076C10.9497 15.271 10.8521 15.2588 10.791 15.2588L8.8501 15.2588C7.89795 15.2588 7.40967 14.7461 7.40967 13.7573L7.40967 11.2183C7.40967 10.2173 7.89795 9.7168 8.8501 9.7168L10.791 9.7168C10.8521 9.7168 10.9497 9.70459 10.9863 9.65576L13.8794 6.92139C14.2334 6.57959 14.4409 6.45752 14.7705 6.45752C15.2222 6.45752 15.5518 6.81152 15.5518 7.25098L15.5518 17.7368C15.5518 18.1885 15.2222 18.5059 14.7827 18.5059Z" fill="#5ac8f5"/>
 </g>
</svg>
