<?xml version="1.0" encoding="UTF-8"?>
<!--Generator: Apple Native CoreSVG 175.5-->
<!DOCTYPE svg
PUBLIC "-//W3C//DTD SVG 1.1//EN"
       "http://www.w3.org/Graphics/SVG/1.1/DTD/svg11.dtd">
<svg version="1.1" xmlns="http://www.w3.org/2000/svg" xmlns:xlink="http://www.w3.org/1999/xlink" width="24.8535" height="25.8911">
 <g>
  <rect height="25.8911" opacity="0" width="24.8535" x="0" y="0"/>
  <path d="M0 13.3667C0 17.041 1.06201 21.0938 2.85645 24.2432C3.16162 24.7681 3.73535 24.9146 4.28467 24.6094C4.79736 24.3286 4.94385 23.7549 4.62646 23.1812C2.99072 20.2026 2.0752 16.6504 2.0752 13.3667C2.0752 6.5918 6.21338 2.0752 12.4268 2.0752C18.6279 2.0752 22.7783 6.5918 22.7783 13.3667C22.7783 16.6504 21.8506 20.2026 20.2148 23.1812C19.8975 23.7549 20.0439 24.3286 20.5566 24.6094C21.106 24.9146 21.6919 24.7681 21.9849 24.2432C23.7793 21.0938 24.8535 17.041 24.8535 13.3667C24.8535 5.33447 19.8975 0 12.4268 0C4.94385 0 0 5.33447 0 13.3667ZM3.8208 23.938C4.22363 25.3418 5.41992 25.9888 6.83594 25.5859C8.23975 25.1831 8.89893 23.9624 8.48389 22.5586L6.73828 16.6016C6.33545 15.21 5.13916 14.5508 3.72314 14.9536C2.31934 15.3687 1.66016 16.5771 2.0752 17.9932ZM21.0205 23.938L22.7661 17.9932C23.1812 16.5649 22.5342 15.3687 21.1182 14.9536C19.7021 14.5508 18.5181 15.21 18.103 16.6016L16.3574 22.5586C15.9424 23.9746 16.6016 25.1831 18.0054 25.5859C19.4336 25.9888 20.6177 25.3418 21.0205 23.938Z" fill="#5ac8f5"/>
 </g>
</svg>
