<?xml version="1.0" encoding="UTF-8"?>
<!--Generator: Apple Native CoreSVG 175.5-->
<!DOCTYPE svg
PUBLIC "-//W3C//DTD SVG 1.1//EN"
       "http://www.w3.org/Graphics/SVG/1.1/DTD/svg11.dtd">
<svg version="1.1" xmlns="http://www.w3.org/2000/svg" xmlns:xlink="http://www.w3.org/1999/xlink" width="29.1748" height="21.4722">
 <g>
  <rect height="21.4722" opacity="0" width="29.1748" x="0" y="0"/>
  <path d="M8.99658 21.4355L23.7061 21.4355C26.9897 21.4355 29.1748 19.1772 29.1748 16.3086C29.1626 13.916 27.5513 11.9019 25.2319 11.2915C24.9268 8.30078 22.4365 5.96924 19.4214 5.96924C17.5171 5.96924 15.7837 6.87256 14.6606 8.37402C14.2212 8.27637 13.7329 8.19092 13.2568 8.19092C10.9009 8.20312 8.92334 9.86328 8.47168 12.1338C6.01807 12.4023 4.1748 14.3433 4.1748 16.7725C4.1748 19.458 6.20117 21.4355 8.99658 21.4355ZM8.99658 19.5923C7.22656 19.5923 6.01807 18.4448 6.01807 16.7725C6.01807 15.1855 7.2998 13.9404 8.94775 13.916C9.79004 13.8916 10.144 13.6353 10.2051 12.915C10.3394 11.2427 11.6089 10.0342 13.2568 10.0342C13.7329 10.0342 14.0137 10.1074 14.5142 10.3027C15.1733 10.5591 15.564 10.4492 15.8325 9.91211C16.4673 8.64258 17.8589 7.82471 19.4214 7.8125C21.6309 7.8125 23.4131 9.63135 23.4131 11.853C23.4131 12.6953 23.6572 12.9639 24.4873 13.0615C26.0986 13.2446 27.3315 14.6606 27.3315 16.3086C27.3315 18.2739 25.8667 19.5923 23.7061 19.5923ZM0 10.3516C0 13.0981 2.18506 15.4175 5.57861 15.4175L5.70068 15.4175L6.27441 13.5742L5.83496 13.5742C3.41797 13.5742 1.84326 12.207 1.84326 10.3516C1.84326 8.64258 3.125 7.23877 4.69971 7.05566C5.44434 6.97021 5.7251 6.62842 5.7251 5.84717C5.68848 3.68652 7.54395 1.84326 9.77783 1.84326C11.2671 1.85547 12.4878 2.6001 13.3057 3.91846C13.5986 4.40674 14.0381 4.5166 14.6606 4.32129C14.9902 4.21143 15.4907 4.10156 16.0278 4.10156C17.5171 4.10156 18.7744 5.26123 18.8232 6.75049L20.7031 6.75049C20.6543 4.23584 18.6401 2.2583 16.1621 2.2583C15.5518 2.2583 15.0146 2.33154 14.5508 2.45361C13.147 0.78125 11.6333 0 9.77783 0C6.75049 0.012207 4.22363 2.34375 3.89404 5.34668C1.58691 5.94482 0 7.9834 0 10.3516Z" fill="#5ac8f5"/>
 </g>
</svg>
