<?xml version="1.0" encoding="UTF-8"?>
<!--Generator: Apple Native CoreSVG 175.5-->
<!DOCTYPE svg
PUBLIC "-//W3C//DTD SVG 1.1//EN"
       "http://www.w3.org/Graphics/SVG/1.1/DTD/svg11.dtd">
<svg version="1.1" xmlns="http://www.w3.org/2000/svg" xmlns:xlink="http://www.w3.org/1999/xlink" width="38.8306" height="18.2983">
 <g>
  <rect height="18.2983" opacity="0" width="38.8306" x="0" y="0"/>
  <path d="M5.13916 18.2983L6.73828 18.2983C7.4707 18.2983 7.83691 17.9443 8.04443 17.4194L14.7705 0.78125C14.9414 0.378418 14.7583 0.0244141 14.3311 0.0244141L13.5254 0.0244141C13.1104 0.0244141 12.8418 0.231934 12.6587 0.598145L4.28467 16.9434C3.95508 17.5659 4.19922 18.2983 5.13916 18.2983ZM32.0923 18.2983L33.6914 18.2983C34.6436 18.2983 34.8755 17.5659 34.5459 16.9434L26.1841 0.598145C26.001 0.231934 25.7202 0.0244141 25.3052 0.0244141L24.4995 0.0244141C24.0723 0.0244141 23.8892 0.378418 24.0601 0.78125L30.7983 17.4194C31.0059 17.9443 31.3599 18.2983 32.0923 18.2983Z" fill="#5ac8f5" fill-opacity="0.5"/>
  <path d="M1.0498 10.1074L5.0415 7.67822C5.5542 7.36084 5.5542 6.7627 5.0415 6.43311L1.0498 3.9917C0.500488 3.66211 0 3.91846 0 4.55322L0 9.55811C0 10.2051 0.500488 10.437 1.0498 10.1074ZM37.7808 10.1074C38.3301 10.437 38.8306 10.2051 38.8306 9.55811L38.8306 4.55322C38.8306 3.91846 38.3301 3.66211 37.7808 3.9917L33.7891 6.43311C33.2764 6.7627 33.2764 7.36084 33.7891 7.67822Z" fill="#5ac8f5"/>
 </g>
</svg>
