<?xml version="1.0" encoding="UTF-8"?>
<!--Generator: Apple Native CoreSVG 175.5-->
<!DOCTYPE svg
PUBLIC "-//W3C//DTD SVG 1.1//EN"
       "http://www.w3.org/Graphics/SVG/1.1/DTD/svg11.dtd">
<svg version="1.1" xmlns="http://www.w3.org/2000/svg" xmlns:xlink="http://www.w3.org/1999/xlink" width="24.9023" height="24.9146">
 <g>
  <rect height="24.9146" opacity="0" width="24.9023" x="0" y="0"/>
  <path d="M12.4512 24.9146C19.2627 24.9146 24.9023 19.2749 24.9023 12.4634C24.9023 5.66406 19.2505 0.012207 12.439 0.012207C5.63965 0.012207 0 5.66406 0 12.4634C0 19.2749 5.65186 24.9146 12.4512 24.9146Z" fill="#5ac8f5" fill-opacity="0.25"/>
  <path d="M8.42285 17.9199L6.67725 18.5791C6.40869 18.6768 6.10352 18.4082 6.23779 18.0908L6.9458 16.4307L15.1733 8.20312L16.6748 9.70459ZM17.4316 8.94775L15.9302 7.4585L16.8579 6.53076C17.2729 6.14014 17.7368 6.09131 18.1152 6.46973L18.396 6.7627C18.7866 7.14111 18.7622 7.61719 18.3472 8.03223Z" fill="#5ac8f5"/>
 </g>
</svg>
