<?xml version="1.0" encoding="UTF-8"?>
<!--Generator: Apple Native CoreSVG 175.5-->
<!DOCTYPE svg
PUBLIC "-//W3C//DTD SVG 1.1//EN"
       "http://www.w3.org/Graphics/SVG/1.1/DTD/svg11.dtd">
<svg version="1.1" xmlns="http://www.w3.org/2000/svg" xmlns:xlink="http://www.w3.org/1999/xlink" width="22.4731" height="22.4976">
 <g>
  <rect height="22.4976" opacity="0" width="22.4731" x="0" y="0"/>
  <path d="M3.83301 22.4976L18.6401 22.4976C21.2036 22.4976 22.4731 21.228 22.4731 18.7134L22.4731 3.80859C22.4731 1.29395 21.2036 0.0244141 18.6401 0.0244141L3.83301 0.0244141C1.28174 0.0244141 0 1.28174 0 3.80859L0 18.7134C0 21.2402 1.28174 22.4976 3.83301 22.4976ZM3.85742 20.5322C2.63672 20.5322 1.96533 19.8853 1.96533 18.6157L1.96533 3.90625C1.96533 2.63672 2.63672 1.98975 3.85742 1.98975L18.6157 1.98975C19.8242 1.98975 20.5078 2.63672 20.5078 3.90625L20.5078 18.6157C20.5078 19.8853 19.8242 20.5322 18.6157 20.5322ZM4.98047 11.2305C4.98047 11.499 5.10254 11.7188 5.32227 11.9385L9.44824 16.0767C9.60693 16.2354 9.83887 16.333 10.083 16.333C10.5957 16.333 10.9619 15.9424 10.9619 15.4419C10.9619 15.1733 10.8765 14.9536 10.6934 14.7949L9.16748 13.2812L7.69043 12.0483L10.2783 12.1338L16.6382 12.1338C17.1753 12.1338 17.5537 11.7554 17.5537 11.2305C17.5537 10.6934 17.1631 10.3149 16.6382 10.3149L10.2783 10.3149L7.70264 10.4126L9.16748 9.17969L10.6934 7.66602C10.8643 7.49512 10.9619 7.27539 10.9619 7.00684C10.9619 6.50635 10.5957 6.12793 10.083 6.12793C9.83887 6.12793 9.60693 6.21338 9.44824 6.37207L5.32227 10.5225C5.07812 10.7666 4.98047 10.9619 4.98047 11.2305Z" fill="#5ac8f5"/>
 </g>
</svg>
