<?xml version="1.0" encoding="UTF-8"?>
<!--Generator: Apple Native CoreSVG 175.5-->
<!DOCTYPE svg
PUBLIC "-//W3C//DTD SVG 1.1//EN"
       "http://www.w3.org/Graphics/SVG/1.1/DTD/svg11.dtd">
<svg version="1.1" xmlns="http://www.w3.org/2000/svg" xmlns:xlink="http://www.w3.org/1999/xlink" width="19.2383" height="24.939">
 <g>
  <rect height="24.939" opacity="0" width="19.2383" x="0" y="0"/>
  <path d="M10.9619 24.939C16.2598 24.939 19.2383 21.6187 19.2383 15.9546L19.2383 13.6108C19.2383 11.4624 18.2007 10.1562 17.041 10.1562C16.7725 10.1562 16.6382 10.2905 16.6382 10.5469L16.6382 11.5845C16.6382 12.0728 16.3818 12.3169 16.0889 12.3169C15.7715 12.3169 15.5273 12.0728 15.5273 11.5845L15.5273 10.9009C15.5273 9.64355 14.7095 8.81348 13.623 8.81348C13.1226 8.81348 12.9028 9.021 12.9028 9.43604L12.9028 10.8521C12.9028 11.3403 12.6587 11.5845 12.3657 11.5845C12.0483 11.5845 11.792 11.3403 11.792 10.8521L11.792 9.5459C11.792 8.12988 10.9619 7.4585 9.91211 7.4585C9.43604 7.4585 9.19189 7.67822 9.19189 8.08105L9.19189 10.8521C9.19189 11.3403 8.93555 11.5845 8.64258 11.5845C8.3252 11.5845 8.08105 11.3403 8.08105 10.8521L8.08105 1.58691C8.08105 0.683594 7.48291 0.0976562 6.72607 0.0976562C5.9082 0.0976562 5.33447 0.683594 5.33447 1.58691L5.33447 15.1489C5.33447 15.4907 5.12695 15.6616 4.91943 15.6616C4.71191 15.6616 4.54102 15.5396 4.39453 15.1978L2.6001 10.9619C2.33154 10.3394 1.9165 10.0708 1.36719 10.0708C0.537109 10.0708 0 10.6445 0 11.3281C0 11.6089 0.0610352 11.8408 0.12207 12.0361L2.09961 17.9321C3.78418 22.9004 7.06787 24.939 10.9619 24.939Z" fill="#5ac8f5"/>
 </g>
</svg>
