<?xml version="1.0" encoding="UTF-8"?>
<!--Generator: Apple Native CoreSVG 175.5-->
<!DOCTYPE svg
PUBLIC "-//W3C//DTD SVG 1.1//EN"
       "http://www.w3.org/Graphics/SVG/1.1/DTD/svg11.dtd">
<svg version="1.1" xmlns="http://www.w3.org/2000/svg" xmlns:xlink="http://www.w3.org/1999/xlink" width="24.9023" height="24.9146">
 <g>
  <rect height="24.9146" opacity="0" width="24.9023" x="0" y="0"/>
  <path d="M0.158691 10.437C0.878906 10.6201 1.61133 10.7178 2.39258 10.7178C6.82373 10.7178 10.1807 7.36084 10.1807 2.91748C10.1807 1.98975 10.022 1.09863 9.74121 0.305176C4.84619 1.40381 1.00098 5.44434 0.158691 10.437ZM12.4512 24.9023C12.8174 24.9023 13.1714 24.8779 13.5376 24.8413C13.2446 23.9258 13.0859 22.9614 13.0859 21.936C13.0859 16.6992 17.3096 12.4756 22.5342 12.4756C23.3521 12.4756 24.1211 12.5732 24.8901 12.7808C24.9023 12.6709 24.9023 12.561 24.9023 12.4512C24.9023 5.63965 19.2505 0 12.439 0C12.085 0 11.7432 0.0244141 11.4014 0.0488281C11.7065 0.939941 11.8408 1.9043 11.8408 2.91748C11.8408 8.1543 7.61719 12.3779 2.39258 12.3779C1.58691 12.3779 0.769043 12.2681 0.012207 12.085C0 12.1948 0 12.3291 0 12.4512C0 19.2505 5.65186 24.9023 12.4512 24.9023ZM15.1978 24.585C20.0684 23.4619 23.9136 19.4214 24.7437 14.4409C24.0356 14.2456 23.3276 14.1357 22.5342 14.1357C18.103 14.1357 14.7461 17.4927 14.7461 21.936C14.7461 22.8882 14.8926 23.7793 15.1978 24.585Z" fill="#5ac8f5"/>
 </g>
</svg>
