<?xml version="1.0" encoding="UTF-8"?>
<!--Generator: Apple Native CoreSVG 175.5-->
<!DOCTYPE svg
PUBLIC "-//W3C//DTD SVG 1.1//EN"
       "http://www.w3.org/Graphics/SVG/1.1/DTD/svg11.dtd">
<svg version="1.1" xmlns="http://www.w3.org/2000/svg" xmlns:xlink="http://www.w3.org/1999/xlink" width="22.4731" height="22.4976">
 <g>
  <rect height="22.4976" opacity="0" width="22.4731" x="0" y="0"/>
  <path d="M3.83301 22.4976L18.6401 22.4976C21.2036 22.4976 22.4731 21.228 22.4731 18.7134L22.4731 3.80859C22.4731 1.29395 21.2036 0.0244141 18.6401 0.0244141L3.83301 0.0244141C1.28174 0.0244141 0 1.28174 0 3.80859L0 18.7134C0 21.2402 1.28174 22.4976 3.83301 22.4976ZM3.85742 20.5322C2.63672 20.5322 1.96533 19.8853 1.96533 18.6157L1.96533 3.90625C1.96533 2.63672 2.63672 1.98975 3.85742 1.98975L18.6157 1.98975C19.8242 1.98975 20.5078 2.63672 20.5078 3.90625L20.5078 18.6157C20.5078 19.8853 19.8242 20.5322 18.6157 20.5322Z" fill="#5ac8f5" fill-opacity="0.5"/>
  <path d="M8.11768 16.8335C8.76465 16.8335 9.10645 16.4185 9.10645 15.7471L9.10645 12.7075L11.377 12.7075L13.4888 16.1865C13.7817 16.6626 14.0381 16.8335 14.4653 16.8335C14.9902 16.8335 15.3564 16.4917 15.3564 16.0034C15.3564 15.7349 15.2832 15.5396 15.1367 15.2954L13.3057 12.4268C14.7339 11.9507 15.6616 10.6689 15.6616 9.15527C15.6616 6.95801 14.0991 5.56641 11.6211 5.56641L8.10547 5.56641C7.48291 5.56641 7.15332 6.00586 7.15332 6.66504L7.15332 15.7471C7.15332 16.394 7.49512 16.8335 8.11768 16.8335ZM9.10645 11.2793L9.10645 7.05566L11.377 7.05566C12.7808 7.05566 13.7329 7.83691 13.7329 9.2041C13.7329 10.5347 12.8052 11.2793 11.3281 11.2793Z" fill="#5ac8f5"/>
 </g>
</svg>
