<?xml version="1.0" encoding="UTF-8"?>
<!--Generator: Apple Native CoreSVG 175.5-->
<!DOCTYPE svg
PUBLIC "-//W3C//DTD SVG 1.1//EN"
       "http://www.w3.org/Graphics/SVG/1.1/DTD/svg11.dtd">
<svg version="1.1" xmlns="http://www.w3.org/2000/svg" xmlns:xlink="http://www.w3.org/1999/xlink" width="19.7754" height="18.1519">
 <g>
  <rect height="18.1519" opacity="0" width="19.7754" x="0" y="0"/>
  <path d="M3.01514 18.1519C3.62549 18.1519 4.04053 17.7246 4.04053 17.0776L4.04053 6.87256L6.05469 6.87256C6.5918 6.87256 6.9458 6.53076 6.9458 6.00586C6.9458 5.49316 6.57959 5.13916 6.05469 5.13916L4.04053 5.13916L4.04053 3.72314C4.04053 2.38037 4.52881 1.80664 5.68848 1.80664C6.03027 1.80664 6.28662 1.78223 6.45752 1.72119C6.82373 1.58691 6.99463 1.36719 6.99463 1.00098C6.99463 0.378418 6.39648 0.0244141 5.29785 0.0244141C3.13721 0.0244141 1.98975 1.28174 1.98975 3.6377L1.98975 5.13916L0.891113 5.13916C0.366211 5.13916 0 5.49316 0 6.00586C0 6.53076 0.354004 6.87256 0.891113 6.87256L1.98975 6.87256L1.98975 17.0776C1.98975 17.7246 2.40479 18.1519 3.01514 18.1519ZM10.022 18.1519C10.6201 18.1519 11.0596 17.7002 11.0596 17.0654L11.0596 10.3516C11.0596 8.06885 12.439 6.55518 14.563 6.55518C16.5894 6.55518 17.7246 7.76367 17.7246 9.91211L17.7246 17.0654C17.7246 17.7124 18.1519 18.1519 18.75 18.1519C19.3481 18.1519 19.7754 17.7002 19.7754 17.0654L19.7754 9.61914C19.7754 6.5918 17.9932 4.71191 15.1001 4.71191C13.1348 4.71191 11.499 5.81055 10.9497 7.4585L10.9497 7.4585L10.9497 5.76172C10.9497 5.15137 10.5347 4.71191 9.97314 4.71191C9.41162 4.71191 8.99658 5.15137 8.99658 5.76172L8.99658 17.0654C8.99658 17.7002 9.42383 18.1519 10.022 18.1519Z" fill="#5ac8f5"/>
 </g>
</svg>
