<?xml version="1.0" encoding="UTF-8"?>
<!--Generator: Apple Native CoreSVG 175.5-->
<!DOCTYPE svg
PUBLIC "-//W3C//DTD SVG 1.1//EN"
       "http://www.w3.org/Graphics/SVG/1.1/DTD/svg11.dtd">
<svg version="1.1" xmlns="http://www.w3.org/2000/svg" xmlns:xlink="http://www.w3.org/1999/xlink" width="18.0298" height="18.0542">
 <g>
  <rect height="18.0542" opacity="0" width="18.0298" x="0" y="0"/>
  <path d="M18.0298 4.60205C18.0298 3.93066 17.5049 3.44238 16.9189 3.44238C16.3208 3.44238 15.8203 3.96729 15.8203 4.55322L15.8203 9.05762L16.04 14.7583L14.0259 12.4878L1.9043 0.366211C1.68457 0.146484 1.41602 0.0366211 1.13525 0.0366211C0.524902 0.0366211 0 0.598145 0 1.18408C0 1.44043 0.12207 1.7334 0.341797 1.95312L12.439 14.0625L14.7095 16.0645L8.75244 15.8691L4.50439 15.8691C3.93066 15.8691 3.40576 16.3696 3.40576 16.9556C3.40576 17.5415 3.86963 18.0542 4.55322 18.0542L16.8335 18.0542C17.5659 18.0542 18.0176 17.5781 18.0176 16.8823Z" fill="#5ac8f5"/>
 </g>
</svg>
