<?xml version="1.0" encoding="UTF-8"?>
<!--Generator: Apple Native CoreSVG 175.5-->
<!DOCTYPE svg
PUBLIC "-//W3C//DTD SVG 1.1//EN"
       "http://www.w3.org/Graphics/SVG/1.1/DTD/svg11.dtd">
<svg version="1.1" xmlns="http://www.w3.org/2000/svg" xmlns:xlink="http://www.w3.org/1999/xlink" width="24.9023" height="24.9146">
 <g>
  <rect height="24.9146" opacity="0" width="24.9023" x="0" y="0"/>
  <path d="M12.4512 24.9023C19.2627 24.9023 24.9023 19.2505 24.9023 12.4512C24.9023 5.63965 19.2505 0 12.439 0C5.63965 0 0 5.63965 0 12.4512C0 19.2505 5.65186 24.9023 12.4512 24.9023Z" fill="#5ac8f5" fill-opacity="0.25"/>
  <path d="M6.93359 15.9424C6.93359 15.5273 7.25098 15.1978 7.65381 15.1978C7.88574 15.1978 8.08105 15.271 8.26416 15.4663L8.88672 16.1011L9.74121 17.0654L9.68018 15.1001L9.68018 9.83887C9.68018 7.15332 11.3159 5.43213 13.8794 5.43213C16.3208 5.43213 17.9932 7.15332 17.9932 9.66797C17.9932 12.146 16.3818 13.8062 13.9404 13.8062C13.4521 13.8062 13.0005 13.6719 12.7563 13.4277C12.6099 13.2812 12.5244 13.0981 12.5244 12.8662C12.5244 12.4878 12.8296 12.1948 13.2324 12.1948C13.4644 12.1948 13.6353 12.2803 13.9893 12.2803C15.4297 12.2803 16.4429 11.2183 16.4551 9.66797C16.4551 8.08105 15.4175 7.01904 13.8794 7.01904C12.1948 7.01904 11.2671 8.06885 11.2671 9.97314L11.2671 15.0879L11.2061 17.0654L12.0728 16.0889L12.6831 15.4419C12.8662 15.271 13.0371 15.1978 13.2935 15.1978C13.6963 15.1978 14.0259 15.5273 14.0259 15.9424C14.0259 16.1255 13.9404 16.3208 13.7817 16.5039L11.3403 18.9209C11.0596 19.2017 10.7666 19.3359 10.4736 19.3359C10.1929 19.3359 9.91211 19.1895 9.61914 18.9209L7.18994 16.5161C7.03125 16.3452 6.93359 16.1255 6.93359 15.9424Z" fill="#5ac8f5"/>
 </g>
</svg>
