<?xml version="1.0" encoding="UTF-8"?>
<!--Generator: Apple Native CoreSVG 175.5-->
<!DOCTYPE svg
PUBLIC "-//W3C//DTD SVG 1.1//EN"
       "http://www.w3.org/Graphics/SVG/1.1/DTD/svg11.dtd">
<svg version="1.1" xmlns="http://www.w3.org/2000/svg" xmlns:xlink="http://www.w3.org/1999/xlink" width="24.9023" height="24.9146">
 <g>
  <rect height="24.9146" opacity="0" width="24.9023" x="0" y="0"/>
  <path d="M12.4512 24.9023C19.2627 24.9023 24.9023 19.2505 24.9023 12.4512C24.9023 5.63965 19.2505 0 12.439 0C5.63965 0 0 5.63965 0 12.4512C0 19.2505 5.65186 24.9023 12.4512 24.9023ZM9.13086 17.0288C8.34961 17.0288 7.87354 16.5649 7.87354 15.7959L7.87354 9.10645C7.87354 8.3252 8.34961 7.87354 9.13086 7.87354L15.7715 7.87354C16.5649 7.87354 17.0288 8.3252 17.0288 9.10645L17.0288 15.7959C17.0288 16.5649 16.5649 17.0288 15.7715 17.0288Z" fill="#5ac8f5"/>
 </g>
</svg>
