<?xml version="1.0" encoding="UTF-8"?>
<!--Generator: Apple Native CoreSVG 175.5-->
<!DOCTYPE svg
PUBLIC "-//W3C//DTD SVG 1.1//EN"
       "http://www.w3.org/Graphics/SVG/1.1/DTD/svg11.dtd">
<svg version="1.1" xmlns="http://www.w3.org/2000/svg" xmlns:xlink="http://www.w3.org/1999/xlink" width="29.6387" height="28.5522">
 <g>
  <rect height="28.5522" opacity="0" width="29.6387" x="0" y="0"/>
  <path d="M3.00293 22.2778L7.82471 22.2778L7.82471 19.1772C5.5542 18.9087 3.79639 17.0044 3.79639 14.6484C3.79639 12.085 5.84717 10.0464 8.37402 10.0586C8.41064 10.0586 8.43506 10.0586 8.48389 10.0586C9.49707 7.55615 11.7554 6.73828 14.8438 6.73828L16.748 6.73828L16.748 3.01514C16.748 1.0376 15.7227 0 13.7451 0L3.00293 0C1.02539 0 0 1.0376 0 3.01514L0 19.2505C0 21.2402 1.02539 22.2778 3.00293 22.2778ZM8.37402 7.9834C7.03125 7.9834 5.93262 6.92139 5.93262 5.5542C5.93262 4.19922 7.01904 3.11279 8.37402 3.125C9.729 3.13721 10.8032 4.19922 10.8154 5.5542C10.8276 6.92139 9.7168 7.9834 8.37402 7.9834ZM8.37402 6.7749C9.06982 6.7749 9.59473 6.23779 9.59473 5.5542C9.59473 4.87061 9.05762 4.32129 8.37402 4.32129C7.67822 4.32129 7.15332 4.84619 7.15332 5.5542C7.15332 6.23779 7.67822 6.7749 8.37402 6.7749ZM6.43311 14.6362C6.43311 15.5151 7.01904 16.2598 7.82471 16.4795L7.82471 13.7695C7.82471 13.4033 7.83691 13.0615 7.86133 12.7441C7.03125 12.9639 6.43311 13.7085 6.43311 14.6362ZM14.8804 28.479L24.2554 28.479C25.9766 28.479 27.4292 28.3203 28.4668 27.2949C29.4922 26.2451 29.6387 24.8169 29.6387 23.0957L29.6387 13.7939C29.6387 12.0728 29.4922 10.6323 28.4668 9.60693C27.4292 8.58154 25.9766 8.41064 24.2554 8.41064L14.8438 8.41064C13.1592 8.41064 11.7065 8.58154 10.6812 9.60693C9.64355 10.6445 9.48486 12.0728 9.48486 13.7695L9.48486 23.0957C9.48486 24.8169 9.64355 26.2573 10.6812 27.2949C11.7065 28.3203 13.1592 28.479 14.8804 28.479ZM17.7734 19.7754C17.6147 20.3125 17.2607 20.9351 16.8091 21.3989C16.6626 21.521 16.4673 21.6187 16.2109 21.6187C15.9668 21.6187 15.8325 21.5332 15.6128 21.46C15.4785 21.4233 15.2954 21.3257 15.0757 21.3257C14.563 21.3257 14.3311 21.6309 13.9038 21.6309C13.6108 21.6309 13.3911 21.46 13.0737 21.106C12.4634 20.4468 12.0728 19.397 12.0728 18.4814C12.0728 17.9199 12.2192 17.4072 12.5732 16.9678C12.8662 16.5894 13.3179 16.3696 13.8672 16.3696C14.3677 16.3696 14.6729 16.6748 14.9414 16.6748C15.2588 16.6748 15.6128 16.3574 16.272 16.3574C16.8213 16.3574 17.3096 16.5771 17.6025 17.0288C17.1997 17.2607 17.0532 17.5537 16.9678 17.7979C16.8335 18.1396 16.8091 18.5547 16.9678 18.9697C17.1265 19.3481 17.3706 19.6045 17.7734 19.7754ZM14.9048 16.1743C14.8682 15.4053 15.5151 14.6484 16.3452 14.5996C16.4062 15.3564 15.7471 16.272 14.9048 16.1743ZM20.6177 15.1123L20.6177 16.3574L21.6187 16.3574L21.6187 17.1753L20.6177 17.1753L20.6177 20.0684C20.6177 20.5444 20.8252 20.7397 21.2402 20.7397C21.3501 20.7397 21.5454 20.7397 21.6064 20.7031L21.6064 21.582C21.5088 21.5942 21.2402 21.6187 21.0205 21.6187C19.9463 21.6187 19.5312 21.2402 19.5312 20.2026L19.5312 17.1753L18.7988 17.1753L18.7988 16.3574L19.5312 16.3574L19.5312 15.1123ZM25.1587 21.582L24.0234 21.582L22.1069 16.3574L23.23 16.3574L24.585 20.5444L25.8667 16.3574L27.0386 16.3574Z" fill="#5ac8f5"/>
 </g>
</svg>
