<?xml version="1.0" encoding="UTF-8"?>
<!--Generator: Apple Native CoreSVG 175.5-->
<!DOCTYPE svg
PUBLIC "-//W3C//DTD SVG 1.1//EN"
       "http://www.w3.org/Graphics/SVG/1.1/DTD/svg11.dtd">
<svg version="1.1" xmlns="http://www.w3.org/2000/svg" xmlns:xlink="http://www.w3.org/1999/xlink" width="23.0225" height="28.3569">
 <g>
  <rect height="28.3569" opacity="0" width="23.0225" x="0" y="0"/>
  <path d="M11.5112 6.43311C14.3921 6.43311 16.7603 4.78516 17.2119 2.40479C17.3706 1.52588 16.9556 0.878906 16.0889 0.646973C13.4888-0.0488281 9.53369-0.0488281 6.9458 0.646973C6.0791 0.878906 5.66406 1.52588 5.82275 2.40479C6.27441 4.78516 8.63037 6.43311 11.5112 6.43311ZM10.5347 13.2568L12.5 13.2568L12.5 5.70068L10.5347 5.70068ZM11.5112 17.8101C16.0278 17.8101 19.8608 18.6401 22.1924 20.1172C21.0938 17.8955 18.9941 15.7349 16.5161 14.5142C15.8081 12.146 13.7817 10.6689 11.5112 10.6689C9.24072 10.6689 7.21436 12.146 6.50635 14.5142C4.02832 15.7349 1.92871 17.8955 0.830078 20.1172C3.16162 18.6401 6.99463 17.8101 11.5112 17.8101ZM11.5112 28.3569C18.4204 28.3569 23.0225 26.4404 23.0225 23.5718C23.0225 20.9473 17.4927 19.3481 11.5112 19.3481C5.52979 19.3481 0 20.9229 0 23.5718C0 26.4404 4.60205 28.3569 11.5112 28.3569ZM11.5112 24.4507C9.21631 24.4507 7.21436 23.0957 7.14111 21.3257C8.47168 21.106 9.96094 20.9717 11.5112 20.9717C13.0493 20.9717 14.5508 21.106 15.8813 21.3257C15.7959 23.0957 13.8428 24.4507 11.5112 24.4507Z" fill="#5ac8f5"/>
 </g>
</svg>
