<?xml version="1.0" encoding="UTF-8"?>
<!--Generator: Apple Native CoreSVG 175.5-->
<!DOCTYPE svg
PUBLIC "-//W3C//DTD SVG 1.1//EN"
       "http://www.w3.org/Graphics/SVG/1.1/DTD/svg11.dtd">
<svg version="1.1" xmlns="http://www.w3.org/2000/svg" xmlns:xlink="http://www.w3.org/1999/xlink" width="20.3499" height="29.6509">
 <g>
  <rect height="29.6509" opacity="0" width="20.3499" x="0" y="0"/>
  <path d="M10.1691 29.1626C13.6237 29.1626 16.6389 25.4517 16.6389 21.46C16.6389 18.8843 15.174 17.7612 12.989 17.2485L12.989 17.1265C14.4416 16.4185 14.6735 13.916 13.3674 13.0371L13.3674 12.915C15.4548 12.5488 16.4924 11.2793 16.4924 9.42383C16.4924 5.95703 13.6359 3.08838 10.1691 3.08838C6.71455 3.08838 3.8459 5.95703 3.8459 9.42383C3.8459 11.2793 4.8957 12.5488 6.9831 12.915L6.9831 13.0371C5.67695 13.916 5.90888 16.4185 7.36152 17.1265L7.36152 17.2485C5.20088 17.7612 3.71162 18.8843 3.71162 21.46C3.71162 25.4517 6.72675 29.1626 10.1691 29.1626ZM10.1691 27.124C7.65449 27.124 5.70136 24.1699 5.70136 21.7163C5.70136 20.0806 6.65351 19.0918 8.48457 19.0918L11.8659 19.0918C13.697 19.0918 14.6369 20.0806 14.6369 21.7163C14.6369 24.1699 12.696 27.124 10.1691 27.124ZM7.95967 14.7949C7.95967 13.6719 8.64326 13.0249 9.82734 13.0249C10.0593 13.0249 10.3034 13.0249 10.5353 13.0249C11.7072 13.0249 12.3786 13.6719 12.3786 14.7949C12.3786 16.1743 11.4387 17.3462 10.3156 17.3462C10.218 17.3462 10.1203 17.3462 10.0349 17.3462C8.91181 17.3462 7.95967 16.1743 7.95967 14.7949ZM7.97187 11.1206C6.6291 11.1206 5.86006 10.4736 5.86006 9.35059C5.86006 7.08008 7.87422 5.11475 10.1691 5.11475C12.4641 5.11475 14.4904 7.08008 14.4904 9.35059C14.4904 10.4736 13.7092 11.1206 12.3786 11.1206ZM2.01484 28.418C2.58857 28.418 3.01582 28.0029 2.90595 27.3071L2.01484 21.46C1.89277 20.7275 2.14912 20.3979 2.9914 20.166L7.36152 18.9941L7.36152 17.2485L1.96601 18.5303C0.391306 18.9087-0.182425 19.6777 0.0495088 21.106L1.05049 27.4414C1.13593 28.0518 1.4167 28.418 2.01484 28.418ZM18.3356 28.418C18.9338 28.418 19.2023 28.0518 19.3 27.4414L20.301 21.106C20.5329 19.6777 19.947 18.9087 18.3845 18.5303L12.989 17.2485L12.989 18.9941L17.3591 20.166C18.2014 20.3979 18.4455 20.7275 18.3356 21.46L17.4445 27.3071C17.3347 28.0029 17.7619 28.418 18.3356 28.418ZM7.17842 15.9424L7.17842 14.1113L3.60175 13.5986C2.79609 13.4766 2.34443 13.208 2.34443 12.3413L2.34443 8.49609C2.34443 7.91016 2.00263 7.55615 1.4167 7.55615C0.830759 7.55615 0.488962 7.89795 0.488962 8.49609L0.488962 12.7197C0.488962 14.2212 1.17256 15.0757 2.69843 15.2832ZM13.1721 15.9424L17.652 15.2832C19.1779 15.0757 19.8615 14.2212 19.8615 12.7197L19.8615 8.49609C19.8615 7.89795 19.5197 7.55615 18.9338 7.55615C18.3478 7.55615 18.0061 7.91016 18.0061 8.49609L18.0061 12.3413C18.0061 13.208 17.5422 13.4766 16.7487 13.5986L13.1721 14.1113ZM6.53144 6.09131L7.55683 4.79736L6.60468 4.11377C5.99433 3.67432 5.9455 3.08838 6.37275 2.39258L7.00752 1.42822C7.14179 1.18408 7.17842 1.06201 7.17842 0.842285C7.17842 0.366211 6.8 0 6.29951 0C5.92109 0 5.65254 0.183105 5.4206 0.598145L4.70039 1.78223C3.93134 3.13721 4.15107 4.39453 5.33515 5.24902ZM13.8435 6.10352L15.0642 5.24902C16.2482 4.39453 16.468 3.13721 15.6989 1.78223L14.9787 0.598145C14.7468 0.183105 14.4782 0 14.0998 0C13.5871 0 13.2209 0.366211 13.2209 0.842285C13.2209 1.06201 13.2575 1.18408 13.3918 1.42822L14.0266 2.39258C14.4538 3.08838 14.405 3.67432 13.7946 4.11377L12.8181 4.80957Z" fill="#5ac8f5"/>
 </g>
</svg>
