<?xml version="1.0" encoding="UTF-8"?>
<!--Generator: Apple Native CoreSVG 175.5-->
<!DOCTYPE svg
PUBLIC "-//W3C//DTD SVG 1.1//EN"
       "http://www.w3.org/Graphics/SVG/1.1/DTD/svg11.dtd">
<svg version="1.1" xmlns="http://www.w3.org/2000/svg" xmlns:xlink="http://www.w3.org/1999/xlink" width="24.9023" height="24.9146">
 <g>
  <rect height="24.9146" opacity="0" width="24.9023" x="0" y="0"/>
  <path d="M12.4512 24.9023C19.2627 24.9023 24.9023 19.2505 24.9023 12.4512C24.9023 5.63965 19.2505 0 12.439 0C5.63965 0 0 5.63965 0 12.4512C0 19.2505 5.65186 24.9023 12.4512 24.9023ZM12.3657 18.4448C10.3638 18.4448 8.89893 17.6392 8.39844 16.3574C8.31299 16.1621 8.26416 15.9668 8.26416 15.7471C8.26416 15.2588 8.60596 14.9048 9.11865 14.9048C9.48486 14.9048 9.79004 15.1123 10.0098 15.5151C10.4248 16.3452 11.3037 16.8579 12.3413 16.8579C13.7207 16.8579 14.7705 15.8325 14.7705 14.4531C14.7705 13.0615 13.8794 12.1338 12.5488 12.1338C11.9019 12.1338 11.4258 12.3291 10.8276 12.8418C10.3271 13.2202 10.0464 13.3179 9.58252 13.3179C8.87451 13.3179 8.45947 12.8418 8.5083 12.1094L8.8501 7.93457C8.91113 7.20215 9.44824 6.73828 10.2783 6.73828L15.4785 6.73828C15.9302 6.73828 16.2354 7.05566 16.2354 7.51953C16.2354 7.97119 15.918 8.30078 15.4785 8.30078L10.4492 8.30078L10.1685 11.7065L10.2539 11.7065C10.7056 11.084 11.7554 10.6323 12.7808 10.6323C15.0879 10.6323 16.687 12.1826 16.687 14.4043C16.687 16.8457 14.9292 18.4448 12.3657 18.4448Z" fill="#5ac8f5"/>
 </g>
</svg>
