<?xml version="1.0" encoding="UTF-8"?>
<!--Generator: Apple Native CoreSVG 175.5-->
<!DOCTYPE svg
PUBLIC "-//W3C//DTD SVG 1.1//EN"
       "http://www.w3.org/Graphics/SVG/1.1/DTD/svg11.dtd">
<svg version="1.1" xmlns="http://www.w3.org/2000/svg" xmlns:xlink="http://www.w3.org/1999/xlink" width="24.9023" height="24.9146">
 <g>
  <rect height="24.9146" opacity="0" width="24.9023" x="0" y="0"/>
  <path d="M12.4512 24.9023C19.2627 24.9023 24.9023 19.2505 24.9023 12.4512C24.9023 5.63965 19.2505 0 12.439 0C5.63965 0 0 5.63965 0 12.4512C0 19.2505 5.65186 24.9023 12.4512 24.9023ZM12.4512 22.8271C6.68945 22.8271 2.0874 18.2129 2.0874 12.4512C2.0874 6.68945 6.67725 2.0752 12.439 2.0752C18.2007 2.0752 22.8271 6.68945 22.8271 12.4512C22.8271 18.2129 18.2129 22.8271 12.4512 22.8271ZM12.6953 18.3472C14.7705 18.3472 16.4185 17.4683 17.0532 15.686C17.1265 15.4907 17.1753 15.2832 17.1753 15.0635C17.1753 14.624 16.8701 14.3188 16.4307 14.3188C16.0156 14.3188 15.7715 14.5508 15.6372 14.9658C15.2954 16.2109 14.0991 16.8823 12.7441 16.8823C10.6323 16.8823 9.48486 14.856 9.48486 12.4756C9.48486 10.0952 10.6567 8.09326 12.7441 8.09326C14.0015 8.09326 15.1733 8.78906 15.5518 10.0464C15.6982 10.5103 15.9058 10.6812 16.333 10.6812C16.7969 10.6812 17.0898 10.3882 17.0898 9.93652C17.0898 9.729 17.041 9.52148 16.9678 9.32617C16.3696 7.67822 14.6851 6.62842 12.6953 6.62842C9.75342 6.62842 7.84912 8.99658 7.84912 12.4756C7.84912 15.8447 9.59473 18.3472 12.6953 18.3472ZM6.88477 11.8042L12.9761 11.8042C13.3179 11.8042 13.5742 11.5356 13.5742 11.2061C13.5742 10.8398 13.3179 10.5957 12.9761 10.5957L6.88477 10.5957C6.54297 10.5957 6.28662 10.8398 6.28662 11.2061C6.28662 11.5356 6.54297 11.8042 6.88477 11.8042ZM6.88477 14.2822L12.9761 14.2822C13.3179 14.2822 13.5742 14.0137 13.5742 13.6719C13.5742 13.3179 13.3179 13.0737 12.9761 13.0737L6.88477 13.0737C6.54297 13.0737 6.28662 13.3179 6.28662 13.6719C6.28662 14.0137 6.54297 14.2822 6.88477 14.2822Z" fill="#5ac8f5"/>
 </g>
</svg>
