<?xml version="1.0" encoding="UTF-8"?>
<!--Generator: Apple Native CoreSVG 175.5-->
<!DOCTYPE svg
PUBLIC "-//W3C//DTD SVG 1.1//EN"
       "http://www.w3.org/Graphics/SVG/1.1/DTD/svg11.dtd">
<svg version="1.1" xmlns="http://www.w3.org/2000/svg" xmlns:xlink="http://www.w3.org/1999/xlink" width="34.9609" height="24.7681">
 <g>
  <rect height="24.7681" opacity="0" width="34.9609" x="0" y="0"/>
  <path d="M5.82275 18.9819L15.4297 18.9819C15.9302 18.9819 16.3208 18.6646 16.3818 18.1396L16.7847 13.916C16.8335 13.2812 16.4062 12.8296 15.7837 12.8296L5.82275 12.8296C4.12598 12.8296 2.75879 14.209 2.75879 15.918C2.75879 17.6147 4.12598 18.9819 5.82275 18.9819ZM5.82275 17.0654C6.46973 17.0654 6.99463 16.5649 6.99463 15.918C6.99463 15.271 6.46973 14.7461 5.82275 14.7461C5.17578 14.7461 4.66309 15.271 4.66309 15.918C4.66309 16.5649 5.17578 17.0654 5.82275 17.0654ZM12.8662 24.7559L14.0259 24.7559L14.4531 20.6543L13.2812 20.6543ZM5.82275 17.9321C4.69971 17.9321 3.79639 17.041 3.79639 15.918C3.79639 14.7949 4.69971 13.8794 5.82275 13.8794C6.95801 13.8794 7.86133 14.7949 7.86133 15.918C7.86133 17.041 6.95801 17.9321 5.82275 17.9321ZM10.9253 0C5.26123 0 0 5.06592 0 12.2681C0 17.0288 1.53809 23.584 4.06494 23.6084C4.69971 23.6084 5.16357 22.9736 5.16357 21.5332C5.16357 21.1182 5.13916 20.7275 5.0415 20.0928C3.07617 19.7266 1.57471 17.9932 1.57471 15.918C1.57471 15.1245 1.79443 14.3921 2.17285 13.7451C2.0874 13.208 2.03857 12.6221 2.03857 12.1704C2.03857 6.54297 6.67725 2.03857 10.791 2.03857C13.3179 2.03857 14.5996 4.00391 14.2578 7.31201L12.8296 21.0327C12.6953 22.3755 14.7095 22.3755 14.8315 21.1914L16.2354 7.22656C16.6992 2.58789 14.7461 0 10.9253 0ZM29.126 18.9819C30.835 18.9819 32.2021 17.6147 32.2021 15.918C32.2021 14.209 30.835 12.8296 29.126 12.8296L19.1772 12.8296C18.5425 12.8296 18.1152 13.2812 18.1763 13.916L18.5791 18.1396C18.6401 18.6646 19.0308 18.9819 19.519 18.9819ZM29.126 17.0654C29.7852 17.0654 30.2856 16.5649 30.2856 15.918C30.2856 15.271 29.7852 14.7461 29.126 14.7461C28.479 14.7461 27.9663 15.271 27.9663 15.918C27.9663 16.5649 28.479 17.0654 29.126 17.0654ZM22.0947 24.7559L21.6675 20.6543L20.5078 20.6543L20.9351 24.7559ZM29.126 17.9321C28.0029 17.9321 27.0874 17.041 27.0874 15.918C27.0874 14.7949 28.0029 13.8794 29.126 13.8794C30.2612 13.8794 31.1523 14.7949 31.1523 15.918C31.1523 17.041 30.2612 17.9321 29.126 17.9321ZM24.0356 0C20.2026 0 18.2495 2.58789 18.7256 7.22656L20.1294 21.1914C20.2515 22.3755 22.2656 22.3755 22.1191 21.0327L20.7031 7.31201C20.3491 4.00391 21.6431 2.03857 24.1699 2.03857C28.2715 2.03857 32.9102 6.54297 32.9102 12.1704C32.9102 12.6221 32.8613 13.208 32.7881 13.7451C33.1543 14.3921 33.374 15.1245 33.374 15.918C33.374 17.9932 31.8848 19.7266 29.9194 20.0928C29.8218 20.7275 29.7852 21.1182 29.7852 21.5332C29.7852 22.9736 30.249 23.6084 30.8838 23.6084C33.4229 23.584 34.9609 17.0288 34.9609 12.2681C34.9609 5.06592 29.6875 0 24.0356 0Z" fill="#5ac8f5"/>
 </g>
</svg>
