<?xml version="1.0" encoding="UTF-8"?>
<!--Generator: Apple Native CoreSVG 175.5-->
<!DOCTYPE svg
PUBLIC "-//W3C//DTD SVG 1.1//EN"
       "http://www.w3.org/Graphics/SVG/1.1/DTD/svg11.dtd">
<svg version="1.1" xmlns="http://www.w3.org/2000/svg" xmlns:xlink="http://www.w3.org/1999/xlink" width="24.9023" height="24.9146">
 <g>
  <rect height="24.9146" opacity="0" width="24.9023" x="0" y="0"/>
  <path d="M12.4512 24.9146C19.2627 24.9146 24.9023 19.2749 24.9023 12.4634C24.9023 5.66406 19.2505 0.012207 12.439 0.012207C5.63965 0.012207 0 5.66406 0 12.4634C0 19.2749 5.65186 24.9146 12.4512 24.9146Z" fill="#5ac8f5" fill-opacity="0.25"/>
  <path d="M8.14209 5.98145C7.83691 5.98145 7.59277 5.7373 7.59277 5.43213C7.59277 5.13916 7.83691 4.89502 8.14209 4.89502L16.7603 4.89502C17.0654 4.89502 17.3218 5.13916 17.3218 5.43213C17.3218 5.7373 17.0654 5.98145 16.7603 5.98145ZM12.4512 9.7168C10.9131 9.7168 9.59473 9.93652 8.65479 10.3271L8.38623 6.75049L16.5161 6.75049L16.2476 10.3271C15.3198 9.93652 13.9893 9.7168 12.4512 9.7168ZM12.4512 13.7817C9.80225 13.7817 7.84912 13.0859 7.84912 12.1216C7.84912 11.1694 9.80225 10.4858 12.4512 10.4858C15.1123 10.4858 17.0532 11.1694 17.0532 12.1216C17.0532 13.0859 15.1367 13.7817 12.4512 13.7817ZM12.2192 16.9067C10.0342 16.9067 8.34961 15.6616 7.94678 13.5376C8.8623 14.1602 10.4736 14.5264 12.4512 14.5264C14.4409 14.5264 16.04 14.1602 16.9556 13.5376C16.5405 15.6616 14.8682 16.9067 12.6831 16.9067ZM12.4512 20.874C11.377 20.874 9.94873 20.5811 9.32617 19.9707C9.15527 19.7998 9.15527 19.5679 9.21631 19.3359L9.87549 17.1997C10.5713 17.5171 11.4014 17.6758 12.1948 17.6758L12.6831 17.6758C13.501 17.6758 14.3311 17.5171 15.0269 17.1753L15.686 19.3359C15.7471 19.5679 15.7471 19.7998 15.5884 19.9707C14.9536 20.5811 13.5254 20.874 12.4512 20.874Z" fill="#5ac8f5"/>
 </g>
</svg>
