<?xml version="1.0" encoding="UTF-8"?>
<!--Generator: Apple Native CoreSVG 175.5-->
<!DOCTYPE svg
PUBLIC "-//W3C//DTD SVG 1.1//EN"
       "http://www.w3.org/Graphics/SVG/1.1/DTD/svg11.dtd">
<svg version="1.1" xmlns="http://www.w3.org/2000/svg" xmlns:xlink="http://www.w3.org/1999/xlink" width="20.5322" height="26.1841">
 <g>
  <rect height="26.1841" opacity="0" width="20.5322" x="0" y="0"/>
  <path d="M7.27539 12.3779C8.76465 12.3779 9.79004 11.3525 9.79004 9.8877C9.79004 8.45947 8.91113 7.50732 7.61719 7.50732C6.97021 7.50732 6.43311 7.71484 6.05469 8.19092L5.81055 8.19092C5.9082 7.73926 6.18896 7.31201 6.61621 6.95801C6.99463 6.62842 7.4585 6.40869 7.99561 6.29883C8.44727 6.18896 8.58154 6.05469 8.58154 5.78613C8.58154 5.52979 8.39844 5.33447 8.05664 5.33447C7.26318 5.33447 6.27441 5.82275 5.59082 6.55518C4.90723 7.2998 4.56543 8.25195 4.56543 9.28955C4.56543 11.2427 5.77393 12.3779 7.27539 12.3779ZM13.4644 12.3657C14.9414 12.3657 15.979 11.3403 15.979 9.87549C15.979 8.44727 15.1001 7.49512 13.8062 7.49512C13.147 7.49512 12.6221 7.70264 12.2437 8.17871L11.9873 8.17871C12.085 7.73926 12.3657 7.32422 12.7563 6.97021C13.147 6.61621 13.6353 6.40869 14.1724 6.28662C14.624 6.17676 14.7705 6.04248 14.7705 5.77393C14.7705 5.51758 14.5874 5.32227 14.2456 5.32227C13.4521 5.32227 12.4268 5.83496 11.7798 6.54297C11.084 7.2876 10.7422 8.23975 10.7422 9.27734C10.7422 11.2305 11.9507 12.3657 13.4644 12.3657ZM5.63965 16.4917L14.9048 16.4917C15.3442 16.4917 15.6616 16.1499 15.6616 15.7227C15.6616 15.3076 15.3442 14.9902 14.9048 14.9902L5.63965 14.9902C5.2002 14.9902 4.87061 15.3076 4.87061 15.7227C4.87061 16.1499 5.2002 16.4917 5.63965 16.4917ZM5.63965 20.7397L10.022 20.7397C10.4614 20.7397 10.7788 20.4224 10.7788 20.0073C10.7788 19.5801 10.4614 19.2383 10.022 19.2383L5.63965 19.2383C5.2002 19.2383 4.87061 19.5801 4.87061 20.0073C4.87061 20.4224 5.2002 20.7397 5.63965 20.7397ZM0 22.3511C0 24.9023 1.25732 26.1719 3.78418 26.1719L16.748 26.1719C19.2749 26.1719 20.5322 24.9023 20.5322 22.3511L20.5322 3.83301C20.5322 1.29395 19.2749 0 16.748 0L3.78418 0C1.25732 0 0 1.29395 0 3.83301ZM1.96533 22.3145L1.96533 3.86963C1.96533 2.64893 2.6123 1.96533 3.88184 1.96533L16.6504 1.96533C17.9199 1.96533 18.5669 2.64893 18.5669 3.86963L18.5669 22.3145C18.5669 23.5352 17.9199 24.2065 16.6504 24.2065L3.88184 24.2065C2.6123 24.2065 1.96533 23.5352 1.96533 22.3145Z" fill="#5ac8f5"/>
 </g>
</svg>
