<?xml version="1.0" encoding="UTF-8"?>
<!--Generator: Apple Native CoreSVG 175.5-->
<!DOCTYPE svg
PUBLIC "-//W3C//DTD SVG 1.1//EN"
       "http://www.w3.org/Graphics/SVG/1.1/DTD/svg11.dtd">
<svg version="1.1" xmlns="http://www.w3.org/2000/svg" xmlns:xlink="http://www.w3.org/1999/xlink" width="19.8364" height="27.9907">
 <g>
  <rect height="27.9907" opacity="0" width="19.8364" x="0" y="0"/>
  <path d="M2.81982 25.7202L17.0166 25.7202C18.7012 25.7202 19.8364 24.5605 19.8364 22.8027L19.8364 2.91748C19.8364 1.15967 18.7012 0 17.0166 0L2.81982 0C1.13525 0 0 1.15967 0 2.91748L0 22.8027C0 24.5605 1.13525 25.7202 2.81982 25.7202ZM2.91748 23.7549C2.34375 23.7549 1.96533 23.3765 1.96533 22.7905L1.96533 2.92969C1.96533 2.34375 2.34375 1.96533 2.91748 1.96533L16.9189 1.96533C17.4927 1.96533 17.8711 2.34375 17.8711 2.92969L17.8711 22.7905C17.8711 23.3765 17.4927 23.7549 16.9189 23.7549ZM9.11865 24.6704L10.7178 24.6704L10.7178 1.01318L9.11865 1.01318ZM6.75049 14.5996C7.4585 14.5996 8.04443 14.0259 8.04443 13.3179C8.04443 12.5977 7.4585 12.0239 6.75049 12.0239C6.04248 12.0239 5.45654 12.5977 5.45654 13.3179C5.45654 14.0259 6.04248 14.5996 6.75049 14.5996ZM13.0737 14.5996C13.7817 14.5996 14.3677 14.0259 14.3677 13.3179C14.3677 12.5977 13.7817 12.0239 13.0737 12.0239C12.3657 12.0239 11.7798 12.5977 11.7798 13.3179C11.7798 14.0259 12.3657 14.5996 13.0737 14.5996ZM3.57666 27.9785C4.18701 27.9785 4.58984 27.5635 4.58984 26.9531L4.58984 24.4995L2.56348 24.4995L2.56348 26.9531C2.56348 27.5635 2.96631 27.9785 3.57666 27.9785ZM16.2598 27.9785C16.8701 27.9785 17.2729 27.5635 17.2729 26.9531L17.2729 24.4995L15.2466 24.4995L15.2466 26.9531C15.2466 27.5635 15.6494 27.9785 16.2598 27.9785Z" fill="#5ac8f5"/>
 </g>
</svg>
