<?xml version="1.0" encoding="UTF-8"?>
<!--Generator: Apple Native CoreSVG 175.5-->
<!DOCTYPE svg
PUBLIC "-//W3C//DTD SVG 1.1//EN"
       "http://www.w3.org/Graphics/SVG/1.1/DTD/svg11.dtd">
<svg version="1.1" xmlns="http://www.w3.org/2000/svg" xmlns:xlink="http://www.w3.org/1999/xlink" width="24.9023" height="24.9146">
 <g>
  <rect height="24.9146" opacity="0" width="24.9023" x="0" y="0"/>
  <path d="M12.4512 24.9146C19.2627 24.9146 24.9023 19.2749 24.9023 12.4634C24.9023 5.66406 19.2505 0.012207 12.439 0.012207C5.63965 0.012207 0 5.66406 0 12.4634C0 19.2749 5.65186 24.9146 12.4512 24.9146ZM8.49609 14.0869C6.70166 14.0869 5.65186 12.915 5.65186 11.4868C5.65186 10.2173 6.49414 9.27734 7.58057 8.95996C7.78809 6.71387 9.65576 4.91943 11.9263 4.91943C13.6719 4.91943 15.0635 5.9082 15.8203 7.38525C17.8589 7.38525 19.4336 8.78906 19.4336 10.7178C19.4336 12.5732 17.9443 14.0869 15.979 14.0869ZM8.05664 16.7114C7.75146 16.7114 7.49512 16.4673 7.49512 16.1499C7.49512 15.8325 7.75146 15.564 8.05664 15.564L16.8335 15.564C17.1509 15.564 17.4072 15.8203 17.4072 16.1499C17.4072 16.4673 17.1509 16.7114 16.8335 16.7114ZM8.05664 19.2871C7.75146 19.2871 7.49512 19.0308 7.49512 18.7012C7.49512 18.3838 7.75146 18.1396 8.05664 18.1396L16.8335 18.1396C17.1509 18.1396 17.4072 18.3838 17.4072 18.7012C17.4072 19.0308 17.1509 19.2871 16.8335 19.2871Z" fill="#5ac8f5"/>
 </g>
</svg>
