<?xml version="1.0" encoding="UTF-8"?>
<!--Generator: Apple Native CoreSVG 175.5-->
<!DOCTYPE svg
PUBLIC "-//W3C//DTD SVG 1.1//EN"
       "http://www.w3.org/Graphics/SVG/1.1/DTD/svg11.dtd">
<svg version="1.1" xmlns="http://www.w3.org/2000/svg" xmlns:xlink="http://www.w3.org/1999/xlink" width="24.9023" height="24.9146">
 <g>
  <rect height="24.9146" opacity="0" width="24.9023" x="0" y="0"/>
  <path d="M12.4512 24.9146C19.2627 24.9146 24.9023 19.2749 24.9023 12.4634C24.9023 5.66406 19.2505 0.012207 12.439 0.012207C5.63965 0.012207 0 5.66406 0 12.4634C0 19.2749 5.65186 24.9146 12.4512 24.9146ZM12.4512 8.82568C10.498 8.82568 9.63135 9.09424 9.63135 9.60693L9.63135 9.80225C9.63135 10.4858 9.44824 10.9375 8.58154 11.0229L6.23779 11.2671C5.33447 11.3647 4.82178 11.145 4.82178 10.1807C4.82178 10.1807 4.82178 10.1929 4.82178 10.1807C4.82178 7.50732 8.10547 6.17676 12.4512 6.17676C16.8091 6.17676 20.0928 7.51953 20.0928 10.1807L20.0928 10.1807C20.0928 11.145 19.5923 11.3647 18.7012 11.2671L16.333 11.0229C15.4663 10.9375 15.2954 10.4858 15.2954 9.80225L15.2954 9.61914C15.2954 9.04541 14.5874 8.82568 12.4512 8.82568ZM6.70166 14.9414C6.22559 14.9414 5.94482 14.6973 5.94482 14.2212L5.94482 13.0371C5.94482 12.5854 6.22559 12.3169 6.70166 12.3169L7.86133 12.3169C8.31299 12.3169 8.56934 12.5854 8.56934 13.0371L8.56934 14.2212C8.56934 14.6973 8.31299 14.9414 7.86133 14.9414ZM10.1318 14.9414C9.65576 14.9414 9.41162 14.6973 9.41162 14.2212L9.41162 13.0371C9.41162 12.5854 9.65576 12.3169 10.1318 12.3169L11.3159 12.3169C11.7676 12.3169 12.0483 12.5854 12.0483 13.0371L12.0483 14.2212C12.0483 14.6973 11.7676 14.9414 11.3159 14.9414ZM13.5864 14.9414C13.1348 14.9414 12.854 14.6973 12.854 14.2212L12.854 13.0371C12.854 12.5854 13.1348 12.3169 13.5864 12.3169L14.7461 12.3169C15.2222 12.3169 15.4785 12.5854 15.4785 13.0371L15.4785 14.2212C15.4785 14.6973 15.2222 14.9414 14.7461 14.9414ZM17.0288 14.9414C16.5527 14.9414 16.2964 14.6973 16.2964 14.2212L16.2964 13.0371C16.2964 12.5854 16.5527 12.3169 17.0288 12.3169L18.2007 12.3169C18.6523 12.3169 18.9331 12.5854 18.9331 13.0371L18.9331 14.2212C18.9331 14.6973 18.6523 14.9414 18.2007 14.9414ZM6.67725 18.396C6.22559 18.396 5.94482 18.1519 5.94482 17.6758L5.94482 16.4795C5.94482 16.04 6.22559 15.7593 6.67725 15.7593L7.84912 15.7593C8.31299 15.7593 8.56934 16.04 8.56934 16.4795L8.56934 17.6758C8.56934 18.1519 8.31299 18.396 7.84912 18.396ZM10.1196 18.396C9.65576 18.396 9.41162 18.1519 9.41162 17.6758L9.41162 16.4795C9.41162 16.04 9.65576 15.7593 10.1196 15.7593L14.7827 15.7593C15.2344 15.7593 15.4785 16.04 15.4785 16.4795L15.4785 17.6758C15.4785 18.1519 15.2344 18.396 14.7827 18.396ZM17.041 18.396C16.5771 18.396 16.2964 18.1519 16.2964 17.6758L16.2964 16.4795C16.2964 16.04 16.5771 15.7593 17.041 15.7593L18.2129 15.7593C18.6768 15.7593 18.9331 16.04 18.9331 16.4795L18.9331 17.6758C18.9331 18.1519 18.6768 18.396 18.2129 18.396Z" fill="#5ac8f5"/>
 </g>
</svg>
