<?xml version="1.0" encoding="UTF-8"?>
<!--Generator: Apple Native CoreSVG 175.5-->
<!DOCTYPE svg
PUBLIC "-//W3C//DTD SVG 1.1//EN"
       "http://www.w3.org/Graphics/SVG/1.1/DTD/svg11.dtd">
<svg version="1.1" xmlns="http://www.w3.org/2000/svg" xmlns:xlink="http://www.w3.org/1999/xlink" width="22.4731" height="22.4976">
 <g>
  <rect height="22.4976" opacity="0" width="22.4731" x="0" y="0"/>
  <path d="M3.83301 22.4976L18.6401 22.4976C21.2036 22.4976 22.4731 21.228 22.4731 18.7134L22.4731 3.80859C22.4731 1.29395 21.2036 0.0244141 18.6401 0.0244141L3.83301 0.0244141C1.28174 0.0244141 0 1.28174 0 3.80859L0 18.7134C0 21.2402 1.28174 22.4976 3.83301 22.4976ZM11.2427 17.1509C8.02002 17.1509 5.78613 14.6606 5.78613 11.1206C5.78613 7.56836 8.02002 5.09033 11.2427 5.09033C14.4653 5.09033 16.6992 7.56836 16.6992 11.1206C16.6992 13.2202 15.918 14.9292 14.624 15.9668L15.3809 16.98C15.6128 17.2974 15.686 17.4438 15.686 17.6758C15.686 18.1152 15.3809 18.4204 14.9292 18.4204C14.6118 18.4204 14.3799 18.2983 14.1357 17.9565L13.2568 16.7847C12.6587 17.0166 11.9751 17.1509 11.2427 17.1509ZM11.2427 15.5518C11.6089 15.5518 11.9385 15.5029 12.2437 15.4053L11.6333 14.563C11.4624 14.3311 11.3892 14.1479 11.3892 13.9282C11.3892 13.5254 11.731 13.208 12.146 13.208C12.439 13.208 12.6343 13.3057 12.8296 13.562L13.5498 14.5264C14.27 13.7695 14.6851 12.5854 14.6851 11.1206C14.6851 8.43506 13.3301 6.68945 11.2427 6.68945C9.16748 6.68945 7.8125 8.43506 7.8125 11.1206C7.8125 13.8062 9.16748 15.5518 11.2427 15.5518Z" fill="#5ac8f5"/>
 </g>
</svg>
