<?xml version="1.0" encoding="UTF-8"?>
<!--Generator: Apple Native CoreSVG 175.5-->
<!DOCTYPE svg
PUBLIC "-//W3C//DTD SVG 1.1//EN"
       "http://www.w3.org/Graphics/SVG/1.1/DTD/svg11.dtd">
<svg version="1.1" xmlns="http://www.w3.org/2000/svg" xmlns:xlink="http://www.w3.org/1999/xlink" width="24.5117" height="27.2339">
 <g>
  <rect height="27.2339" opacity="0" width="24.5117" x="0" y="0"/>
  <path d="M17.9321 26.3184L17.9321 3.10059C17.9321 1.09863 16.8335 0 14.8438 0L5.00488 0C2.99072 0 1.92871 1.09863 1.92871 3.10059L1.92871 26.3184ZM5.40771 12.7441C4.5166 12.7441 3.97949 12.2559 3.97949 11.438L3.97949 3.38135C3.97949 2.56348 4.5166 2.06299 5.40771 2.06299L14.4409 2.06299C15.332 2.06299 15.8813 2.56348 15.8813 3.38135L15.8813 11.438C15.8813 12.2559 15.332 12.7441 14.4409 12.7441ZM0 26.2329C0 26.7822 0.427246 27.2339 0.964355 27.2339L18.8721 27.2339C19.4092 27.2339 19.8608 26.7822 19.8608 26.2329C19.8608 25.708 19.4092 25.2686 18.8721 25.2686L0.964355 25.2686C0.439453 25.2686 0 25.6958 0 26.2329ZM16.9922 16.0767L18.0542 16.0767C18.6157 16.0767 18.9697 16.394 18.9697 17.0044L18.9697 21.0449C18.9697 22.7783 20.0195 23.8281 21.7529 23.8281C23.4741 23.8281 24.5117 22.7783 24.5117 21.0449L24.5117 6.09131C24.5117 5.35889 24.3164 4.79736 23.9624 4.23584L22.29 1.52588C21.6675 0.537109 20.2148 1.42822 20.8374 2.4292L22.2656 4.74854C22.3999 4.96826 22.3877 5.22461 22.2412 5.44434L20.6421 7.67822C20.1172 8.39844 20.1904 9.08203 20.7397 9.729L22.7905 12.1094L22.7905 21.0449C22.7905 21.7041 22.3999 22.1069 21.7529 22.1069C21.0815 22.1069 20.6909 21.7041 20.6909 21.0449L20.6909 17.0044C20.6909 15.3198 19.6899 14.3555 18.0542 14.3555L16.9922 14.3555Z" fill="#5ac8f5"/>
 </g>
</svg>
