<?xml version="1.0" encoding="UTF-8"?>
<!--Generator: Apple Native CoreSVG 175.5-->
<!DOCTYPE svg
PUBLIC "-//W3C//DTD SVG 1.1//EN"
       "http://www.w3.org/Graphics/SVG/1.1/DTD/svg11.dtd">
<svg version="1.1" xmlns="http://www.w3.org/2000/svg" xmlns:xlink="http://www.w3.org/1999/xlink" width="24.9023" height="24.9146">
 <g>
  <rect height="24.9146" opacity="0" width="24.9023" x="0" y="0"/>
  <path d="M12.4512 24.9023C19.2627 24.9023 24.9023 19.2505 24.9023 12.4512C24.9023 5.63965 19.2505 0 12.439 0C5.63965 0 0 5.63965 0 12.4512C0 19.2505 5.65186 24.9023 12.4512 24.9023ZM12.4512 22.8271C6.68945 22.8271 2.0874 18.2129 2.0874 12.4512C2.0874 6.68945 6.67725 2.0752 12.439 2.0752C18.2007 2.0752 22.8271 6.68945 22.8271 12.4512C22.8271 18.2129 18.2129 22.8271 12.4512 22.8271ZM12.439 18.1763C13.147 18.1763 13.8062 18.0542 14.3921 17.8223L15.2466 18.9697C15.4785 19.2993 15.7104 19.4092 16.0156 19.4092C16.4429 19.4092 16.7358 19.1162 16.7358 18.689C16.7358 18.4692 16.6748 18.3228 16.4429 18.0176L15.7104 17.041C16.9678 16.0278 17.7246 14.3677 17.7246 12.3413C17.7246 8.89893 15.564 6.49414 12.439 6.49414C9.31396 6.49414 7.15332 8.89893 7.15332 12.3413C7.15332 15.7715 9.31396 18.1763 12.439 18.1763ZM12.439 16.6382C10.4248 16.6382 9.10645 14.9414 9.10645 12.3413C9.10645 9.729 10.4248 8.03223 12.439 8.03223C14.4531 8.03223 15.7837 9.729 15.7837 12.3413C15.7837 13.7573 15.3809 14.917 14.6729 15.6494L13.9771 14.7095C13.7817 14.4531 13.5986 14.3677 13.3179 14.3677C12.915 14.3677 12.5854 14.6729 12.5854 15.0635C12.5854 15.271 12.6465 15.4419 12.8174 15.6738L13.4155 16.4917C13.1226 16.5894 12.793 16.6382 12.439 16.6382Z" fill="#5ac8f5"/>
 </g>
</svg>
