<?xml version="1.0" encoding="UTF-8"?>
<!--Generator: Apple Native CoreSVG 175.5-->
<!DOCTYPE svg
PUBLIC "-//W3C//DTD SVG 1.1//EN"
       "http://www.w3.org/Graphics/SVG/1.1/DTD/svg11.dtd">
<svg version="1.1" xmlns="http://www.w3.org/2000/svg" xmlns:xlink="http://www.w3.org/1999/xlink" width="17.6147" height="30.8139">
 <g>
  <rect height="30.8139" opacity="0" width="17.6147" x="0" y="0"/>
  <path d="M7.54395 12.2637C8.99658 12.2637 10.1807 11.0796 10.1807 9.59031C10.1807 8.12547 8.99658 6.94139 7.54395 6.94139C6.05469 6.94139 4.87061 8.12547 4.87061 9.59031C4.87061 11.0796 6.05469 12.2637 7.54395 12.2637ZM1.24512 30.8061L7.54395 30.8061C8.30078 30.8061 8.65479 30.4399 8.77686 29.7685L9.85107 23.8847L14.8315 23.8847L13.855 29.3047C13.7085 30.1714 14.2822 30.7451 14.917 30.8061C15.5273 30.8672 16.1987 30.5742 16.3452 29.7685L17.5659 22.9692C17.7246 22.0171 17.1753 21.4433 16.4917 21.3701L12.0605 20.8818L12.439 16.6826C12.4512 16.4751 12.6221 16.3408 12.8174 16.3408L16.3574 16.3408C17.041 16.3408 17.6147 15.7549 17.6147 15.0713L17.6147 8.14988C17.6147 7.63719 17.2974 7.17332 16.8213 6.99022C16.3574 6.7949 15.8203 6.88035 15.4541 7.24656L8.55713 14.1679C7.94678 14.7783 7.55615 15.5473 7.4707 16.4873L6.38428 28.2915L1.24512 28.2915C0.549316 28.2915 0 28.8408 0 29.5366C0 30.2324 0.549316 30.8061 1.24512 30.8061ZM15.1001 11.1894L15.1001 13.8017L12.4634 13.8017ZM12.5732 7.4907L15.4053 10.0176L16.0645 9.28514L13.269 6.74607ZM5.57861 2.36375L12.0239 8.1743C12.4146 8.5283 12.9272 8.47947 13.3057 8.08885L13.9526 7.42967C14.3433 7.03904 14.27 6.48973 13.8916 6.13572L7.40967 0.300762C7.01904-0.0532415 6.46973-0.0166204 6.11572 0.374005L5.50537 1.08201C5.16357 1.47264 5.17578 1.99754 5.57861 2.36375Z" fill="#5ac8f5"/>
 </g>
</svg>
