<?xml version="1.0" encoding="UTF-8"?>
<!--Generator: Apple Native CoreSVG 175.5-->
<!DOCTYPE svg
PUBLIC "-//W3C//DTD SVG 1.1//EN"
       "http://www.w3.org/Graphics/SVG/1.1/DTD/svg11.dtd">
<svg version="1.1" xmlns="http://www.w3.org/2000/svg" xmlns:xlink="http://www.w3.org/1999/xlink" width="20.432" height="31.0913">
 <g>
  <rect height="31.0913" opacity="0" width="20.432" x="0" y="0"/>
  <path d="M7.05566 9.96094C8.52051 9.96094 9.729 8.76465 9.729 7.27539C9.729 5.81055 8.52051 4.62646 7.05566 4.62646C5.57861 4.62646 4.39453 5.81055 4.39453 7.27539C4.39453 8.76465 5.57861 9.96094 7.05566 9.96094ZM0 15.9058C0 16.8579 0.98877 17.3096 1.75781 16.9189L6.03027 14.7705C6.23779 14.6606 6.46973 14.7827 6.51855 15.0024L7.76367 19.9829L5.81055 24.8657L1.2085 24.8657C0.549316 24.8657 0 25.4028 0 26.062C0 26.7212 0.549316 27.2583 1.2085 27.2583L6.55518 27.2583C7.10449 27.2583 7.44629 27.0386 7.71484 26.5503L10.3149 21.7407L11.7676 25.5737L7.15332 28.6743C6.604 29.0405 6.44531 29.8096 6.81152 30.3345C7.17773 30.8716 7.87354 31.0547 8.47168 30.6519L13.9282 27.0264C14.3433 26.7578 14.5386 26.355 14.3555 25.6226L11.1328 12.7441C11.0596 12.4756 11.1328 12.2314 11.438 12.0728L19.7632 7.91016C20.3613 7.62939 20.6055 6.89697 20.3003 6.29883C19.9951 5.70068 19.2871 5.46875 18.689 5.76172L2.40479 13.9038L2.40479 9.83887C2.40479 9.17969 1.87988 8.64258 1.2085 8.64258C0.549316 8.64258 0 9.17969 0 9.83887ZM16.8335 4.72412C18.1396 4.72412 19.1895 3.67432 19.1895 2.36816C19.1895 1.07422 18.1396 0 16.8335 0C15.5151 0 14.4653 1.07422 14.4653 2.36816C14.4653 3.67432 15.5151 4.72412 16.8335 4.72412Z" fill="#5ac8f5"/>
 </g>
</svg>
