<?xml version="1.0" encoding="UTF-8"?>
<!--Generator: Apple Native CoreSVG 175.5-->
<!DOCTYPE svg
PUBLIC "-//W3C//DTD SVG 1.1//EN"
       "http://www.w3.org/Graphics/SVG/1.1/DTD/svg11.dtd">
<svg version="1.1" xmlns="http://www.w3.org/2000/svg" xmlns:xlink="http://www.w3.org/1999/xlink" width="24.9023" height="24.9146">
 <g>
  <rect height="24.9146" opacity="0" width="24.9023" x="0" y="0"/>
  <path d="M12.4512 24.9023C19.2627 24.9023 24.9023 19.2505 24.9023 12.4512C24.9023 5.63965 19.2505 0 12.439 0C5.63965 0 0 5.63965 0 12.4512C0 19.2505 5.65186 24.9023 12.4512 24.9023Z" fill="#5ac8f5" fill-opacity="0.25"/>
  <path d="M10.0098 17.8589C9.50928 17.8589 9.26514 17.4927 9.26514 17.0044L9.26514 15.5273L5.59082 15.5273C4.94385 15.5273 4.50439 15.1245 4.50439 14.4531C4.50439 14.1113 4.57764 13.8306 4.78516 13.4399C5.63965 11.9141 6.89697 9.76562 7.94678 7.99561C8.36182 7.2998 8.80127 7.01904 9.5459 7.01904C10.2783 7.01904 10.791 7.49512 10.791 8.22754L10.791 14.1113L11.4624 14.1113C11.9019 14.1113 12.1704 14.3799 12.1704 14.8315C12.1704 15.271 11.9019 15.5273 11.4624 15.5273L10.791 15.5273L10.791 17.0044C10.791 17.5049 10.5225 17.8589 10.0098 17.8589ZM9.26514 14.1113L9.26514 8.72803L9.19189 8.72803C8.19092 10.437 6.90918 12.6343 6.16455 14.0625L6.16455 14.1113ZM16.7725 17.8833C15.0391 17.8833 13.7085 16.8335 13.3789 15.6738C13.3301 15.5151 13.3179 15.3809 13.3179 15.21C13.3179 14.7705 13.623 14.4531 14.0381 14.4531C14.4043 14.4531 14.6118 14.6484 14.7583 15.0513C15.1001 15.9302 15.7837 16.4185 16.7847 16.4185C17.981 16.4185 18.811 15.686 18.811 14.7095C18.811 13.6841 18.0542 13.0127 16.8579 13.0127L16.1133 13.0127C15.7104 13.0127 15.4297 12.6953 15.4297 12.2925C15.4297 11.8286 15.7104 11.5356 16.1133 11.5356L16.8091 11.5356C17.7979 11.5356 18.5059 10.8765 18.5059 9.96094C18.5059 9.08203 17.8101 8.48389 16.8091 8.48389C15.8447 8.48389 15.2222 8.97217 14.9536 9.85107C14.8193 10.2539 14.624 10.4492 14.2456 10.4492C13.8062 10.4492 13.5254 10.1318 13.5254 9.68018C13.5254 9.52148 13.5254 9.38721 13.562 9.22852C13.8794 7.99561 15.1489 7.01904 16.8457 7.01904C18.7378 7.01904 20.0562 8.14209 20.0562 9.75342C20.0562 10.9375 19.2383 11.9873 18.2007 12.1582L18.2007 12.2314C19.4702 12.3657 20.3979 13.4399 20.3979 14.7827C20.3979 16.5894 18.8965 17.8833 16.7725 17.8833Z" fill="#5ac8f5"/>
 </g>
</svg>
