<?xml version="1.0" encoding="UTF-8"?>
<!--Generator: Apple Native CoreSVG 175.5-->
<!DOCTYPE svg
PUBLIC "-//W3C//DTD SVG 1.1//EN"
       "http://www.w3.org/Graphics/SVG/1.1/DTD/svg11.dtd">
<svg version="1.1" xmlns="http://www.w3.org/2000/svg" xmlns:xlink="http://www.w3.org/1999/xlink" width="23.2422" height="22.4976">
 <g>
  <rect height="22.4976" opacity="0" width="23.2422" x="0" y="0"/>
  <path d="M3.83301 22.4976L19.4092 22.4976C21.9604 22.4976 23.2422 21.228 23.2422 18.7134L23.2422 3.80859C23.2422 1.29395 21.9604 0.0244141 19.4092 0.0244141L3.83301 0.0244141C1.28174 0.0244141 0 1.28174 0 3.80859L0 18.7134C0 21.2402 1.28174 22.4976 3.83301 22.4976Z" fill="#5ac8f5" fill-opacity="0.25"/>
  <path d="M11.1084 9.76562C10.6934 9.76562 10.4004 9.47266 10.4004 9.04541L10.4004 5.37109C10.4004 4.94385 10.6934 4.66309 11.1084 4.66309L12.1216 4.66309C12.5488 4.66309 12.8296 4.94385 12.8296 5.37109L12.8296 9.04541C12.8296 9.47266 12.5488 9.76562 12.1216 9.76562ZM5.57861 17.1875C5.13916 17.1875 4.87061 16.9189 4.87061 16.4917L4.87061 15.4663C4.87061 15.0513 5.13916 14.7583 5.57861 14.7583L8.8501 14.7583C9.27734 14.7583 9.55811 15.0391 9.55811 15.4663L9.55811 16.4917C9.55811 16.9189 9.27734 17.1875 8.8501 17.1875ZM14.3921 17.1875C13.9648 17.1875 13.6719 16.9189 13.6719 16.4917L13.6719 15.4663C13.6719 15.0391 13.9648 14.7583 14.3921 14.7583L17.6514 14.7583C18.0908 14.7583 18.3716 15.0513 18.3716 15.4663L18.3716 16.4917C18.3716 16.9189 18.103 17.1875 17.6514 17.1875Z" fill="#5ac8f5"/>
 </g>
</svg>
