<?xml version="1.0" encoding="UTF-8"?>
<!--Generator: Apple Native CoreSVG 175.5-->
<!DOCTYPE svg
PUBLIC "-//W3C//DTD SVG 1.1//EN"
       "http://www.w3.org/Graphics/SVG/1.1/DTD/svg11.dtd">
<svg version="1.1" xmlns="http://www.w3.org/2000/svg" xmlns:xlink="http://www.w3.org/1999/xlink" width="28.7842" height="22.4976">
 <g>
  <rect height="22.4976" opacity="0" width="28.7842" x="0" y="0"/>
  <path d="M3.83301 22.4976L24.9512 22.4976C27.5146 22.4976 28.7842 21.228 28.7842 18.7134L28.7842 3.80859C28.7842 1.29395 27.5146 0.0244141 24.9512 0.0244141L3.83301 0.0244141C1.28174 0.0244141 0 1.28174 0 3.80859L0 18.7134C0 21.2402 1.28174 22.4976 3.83301 22.4976ZM3.85742 20.5322C2.63672 20.5322 1.96533 19.8853 1.96533 18.6157L1.96533 3.90625C1.96533 2.63672 2.63672 1.98975 3.85742 1.98975L24.9268 1.98975C26.1353 1.98975 26.8188 2.63672 26.8188 3.90625L26.8188 18.6157C26.8188 19.8853 26.1353 20.5322 24.9268 20.5322ZM9.68018 19.5923L19.1162 19.5923C19.4458 19.5923 19.6777 19.3726 19.6777 19.0308C19.6777 18.689 19.4458 18.457 19.1162 18.457L9.68018 18.457C9.35059 18.457 9.10645 18.689 9.10645 19.0308C9.10645 19.3726 9.35059 19.5923 9.68018 19.5923Z" fill="#5ac8f5"/>
 </g>
</svg>
