<?xml version="1.0" encoding="UTF-8"?>
<!--Generator: Apple Native CoreSVG 175.5-->
<!DOCTYPE svg
PUBLIC "-//W3C//DTD SVG 1.1//EN"
       "http://www.w3.org/Graphics/SVG/1.1/DTD/svg11.dtd">
<svg version="1.1" xmlns="http://www.w3.org/2000/svg" xmlns:xlink="http://www.w3.org/1999/xlink" width="21.1753" height="29.895">
 <g>
  <rect height="29.895" opacity="0" width="21.1753" x="0" y="0"/>
  <path d="M9.6195 7.80029C11.0843 7.80029 12.2684 6.61621 12.2684 5.13916C12.2684 3.67432 11.0843 2.49023 9.6195 2.49023C8.13024 2.49023 6.94616 3.67432 6.94616 5.13916C6.94616 6.61621 8.13024 7.80029 9.6195 7.80029ZM2.88122 29.6509C3.56481 29.7729 4.19958 29.3213 4.33386 28.6133L5.49352 22.3755L10.3519 19.7388C10.4862 19.6533 10.6083 19.6899 10.6693 19.8242L13.1229 25.7446C13.2694 26.062 13.4891 26.2817 13.7699 26.4282L19.2875 29.4922C19.9833 29.895 20.7157 29.5654 21.0087 29.0161C21.3627 28.418 21.1307 27.6245 20.5204 27.2827L15.3812 24.4385L11.9022 10.5103C11.6947 9.68018 10.9745 9.08203 10.0834 9.08203L2.62487 9.08203L6.11608 1.66016C6.59216 0.65918 5.87194 0 5.13952 0C4.72448 0 4.32165 0.20752 4.11413 0.720215L0.0858097 11.2183C-0.109503 11.7188 0.0491886 12.1826 0.354364 12.4878L3.46716 15.6128C3.94323 16.0767 4.7611 16.0767 5.23718 15.6128L6.61657 14.2212C6.79968 14.0381 7.08044 14.0381 7.15368 14.3066L7.89831 17.2974L3.58923 20.5322C3.28405 20.7642 3.14977 21.1304 3.07653 21.4722L1.86804 28.1738C1.74597 28.833 2.19763 29.5166 2.88122 29.6509ZM5.64001 11.5967L4.34606 12.8906L3.05212 11.5967Z" fill="#5ac8f5"/>
 </g>
</svg>
