<?xml version="1.0" encoding="UTF-8"?>
<!--Generator: Apple Native CoreSVG 175.5-->
<!DOCTYPE svg
PUBLIC "-//W3C//DTD SVG 1.1//EN"
       "http://www.w3.org/Graphics/SVG/1.1/DTD/svg11.dtd">
<svg version="1.1" xmlns="http://www.w3.org/2000/svg" xmlns:xlink="http://www.w3.org/1999/xlink" width="23.1724" height="23.0979">
 <g>
  <rect height="23.0979" opacity="0" width="23.1724" x="0" y="0"/>
  <path d="M1.04175 9.34558C-0.642819 10.1268-0.178952 12.3851 1.67652 12.3973L10.5754 12.434C10.7219 12.434 10.7585 12.4706 10.7585 12.6171L10.783 21.4428C10.7952 23.3715 13.0901 23.7133 13.908 21.9432L22.929 2.54627C23.759 0.739627 22.343-0.542111 20.5486 0.300174ZM3.16577 10.493C3.11695 10.493 3.10474 10.4442 3.16577 10.4198L20.7073 2.38758C20.7927 2.35096 20.8293 2.37537 20.7927 2.47303L12.7117 20.0023C12.6995 20.0512 12.6506 20.0389 12.6506 19.9901L12.7117 11.3597C12.7117 10.8226 12.3333 10.4442 11.7839 10.4442Z" fill="#5ac8f5"/>
 </g>
</svg>
