<?xml version="1.0" encoding="UTF-8"?>
<!--Generator: Apple Native CoreSVG 175.5-->
<!DOCTYPE svg
PUBLIC "-//W3C//DTD SVG 1.1//EN"
       "http://www.w3.org/Graphics/SVG/1.1/DTD/svg11.dtd">
<svg version="1.1" xmlns="http://www.w3.org/2000/svg" xmlns:xlink="http://www.w3.org/1999/xlink" width="35.5835" height="27.8687">
 <g>
  <rect height="27.8687" opacity="0" width="35.5835" x="0" y="0"/>
  <path d="M14.7949 23.9624L22.9004 23.9624C25.8789 23.9624 27.6611 22.229 27.6611 19.2505L27.6611 17.5781L32.2754 21.4844C32.7637 21.8872 33.3008 22.168 33.8013 22.168C34.8755 22.168 35.5835 21.3745 35.5835 20.2393L35.5835 7.61719C35.5835 6.48193 34.8755 5.68848 33.8013 5.68848C33.3008 5.68848 32.7637 5.96924 32.2754 6.37207L27.6611 10.2783L27.6611 8.59375C27.6611 5.62744 25.8789 3.89404 22.9004 3.89404L10.144 3.89404C7.2998 3.89404 5.3833 5.62744 5.3833 8.59375L5.3833 14.563C5.70068 14.4287 6.04248 14.3555 6.40869 14.3555C6.73828 14.3555 7.05566 14.4165 7.34863 14.5264L7.34863 8.88672C7.34863 6.7627 8.48389 5.7251 10.4858 5.7251L22.5586 5.7251C24.5483 5.7251 25.6958 6.7627 25.6958 8.88672L25.6958 18.9697C25.6958 21.0815 24.5483 22.1191 22.5586 22.1191L14.7949 22.1191ZM27.6611 15.2588L27.6611 12.5977L33.1909 8.03223C33.3008 7.94678 33.374 7.88574 33.4839 7.88574C33.6304 7.88574 33.6914 8.00781 33.6914 8.17871L33.6914 19.6777C33.6914 19.8486 33.6304 19.9585 33.4839 19.9585C33.374 19.9585 33.3008 19.8975 33.1909 19.8242ZM0.671387 23.7061C1.07422 23.7061 1.36719 23.4009 1.36719 23.0225L1.36719 21.167C1.36719 20.7886 1.07422 20.4834 0.671387 20.4834C0.292969 20.4834 0 20.7886 0 21.167L0 23.0225C0 23.4009 0.292969 23.7061 0.671387 23.7061ZM3.54004 25.7568C3.93066 25.7568 4.23584 25.4517 4.23584 25.061L4.23584 19.1284C4.23584 18.7378 3.93066 18.4326 3.54004 18.4326C3.16162 18.4326 2.85645 18.7378 2.85645 19.1284L2.85645 25.061C2.85645 25.4517 3.16162 25.7568 3.54004 25.7568ZM6.40869 27.8687C6.78711 27.8687 7.09229 27.5635 7.09229 27.1851L7.09229 17.0288C7.09229 16.6382 6.78711 16.333 6.40869 16.333C6.01807 16.333 5.7251 16.6382 5.7251 17.0288L5.7251 27.1851C5.7251 27.5757 6.00586 27.8687 6.40869 27.8687ZM9.25293 26.6479C9.65576 26.6479 9.96094 26.3428 9.96094 25.9644L9.96094 18.2251C9.96094 17.8467 9.65576 17.5415 9.25293 17.5415C8.88672 17.5415 8.58154 17.8467 8.58154 18.2251L8.58154 25.9644C8.58154 26.3428 8.88672 26.6479 9.25293 26.6479ZM12.1338 24.3408C12.5244 24.3408 12.8174 24.0601 12.8174 23.6572L12.8174 20.52C12.8174 20.1416 12.5244 19.8364 12.1338 19.8364C11.7432 19.8364 11.4502 20.1538 11.4502 20.52L11.4502 23.6572C11.4502 24.0479 11.7432 24.3408 12.1338 24.3408Z" fill="#5ac8f5"/>
 </g>
</svg>
