<?xml version="1.0" encoding="UTF-8"?>
<!--Generator: Apple Native CoreSVG 175.5-->
<!DOCTYPE svg
PUBLIC "-//W3C//DTD SVG 1.1//EN"
       "http://www.w3.org/Graphics/SVG/1.1/DTD/svg11.dtd">
<svg version="1.1" xmlns="http://www.w3.org/2000/svg" xmlns:xlink="http://www.w3.org/1999/xlink" width="24.9023" height="24.9146">
 <g>
  <rect height="24.9146" opacity="0" width="24.9023" x="0" y="0"/>
  <path d="M12.4512 24.9023C19.2627 24.9023 24.9023 19.2505 24.9023 12.4512C24.9023 5.63965 19.2505 0 12.439 0C5.63965 0 0 5.63965 0 12.4512C0 19.2505 5.65186 24.9023 12.4512 24.9023ZM12.4512 22.8271C6.68945 22.8271 2.0874 18.2129 2.0874 12.4512C2.0874 6.68945 6.67725 2.0752 12.439 2.0752C18.2007 2.0752 22.8271 6.68945 22.8271 12.4512C22.8271 18.2129 18.2129 22.8271 12.4512 22.8271ZM15.9912 18.6279C16.394 18.6279 16.5771 18.1885 16.3086 17.8955L12.793 13.916C12.6221 13.7085 12.2681 13.7085 12.0728 13.916L8.54492 17.8955C8.27637 18.1885 8.48389 18.6279 8.8623 18.6279ZM17.9688 7.31201L6.88477 7.31201C6.03027 7.31201 5.49316 7.83691 5.49316 8.70361L5.49316 15.0757C5.49316 15.9546 6.00586 16.4551 6.88477 16.4551L8.49609 16.4551L9.59473 15.2222L7.03125 15.2222C6.84814 15.2222 6.78711 15.1489 6.78711 14.9658L6.78711 8.81348C6.78711 8.61816 6.84814 8.54492 7.03125 8.54492L17.8345 8.54492C18.0176 8.54492 18.0908 8.61816 18.0908 8.81348L18.0908 14.9658C18.0908 15.1489 18.0176 15.2222 17.8345 15.2222L15.271 15.2222L16.3574 16.4551L17.9688 16.4551C18.8477 16.4551 19.3848 15.9546 19.3848 15.0757L19.3848 8.70361C19.3848 7.82471 18.8721 7.31201 17.9688 7.31201Z" fill="#5ac8f5"/>
 </g>
</svg>
