<?xml version="1.0" encoding="UTF-8"?>
<!--Generator: Apple Native CoreSVG 175.5-->
<!DOCTYPE svg
PUBLIC "-//W3C//DTD SVG 1.1//EN"
       "http://www.w3.org/Graphics/SVG/1.1/DTD/svg11.dtd">
<svg version="1.1" xmlns="http://www.w3.org/2000/svg" xmlns:xlink="http://www.w3.org/1999/xlink" width="24.231" height="21.4478">
 <g>
  <rect height="21.4478" opacity="0" width="24.231" x="0" y="0"/>
  <path d="M7.03125 11.6455L17.1997 11.6455L17.1997 8.8501C17.1997 6.70166 18.6401 5.11475 20.6787 5.11475L20.813 5.11475L20.813 2.64893C20.813 1.0498 19.7754 0 18.2495 0L5.98145 0C4.44336 0 3.40576 1.0498 3.40576 2.64893L3.40576 5.11475L3.54004 5.11475C5.59082 5.11475 7.03125 6.70166 7.03125 8.8501ZM0 16.272C0 17.7979 1.01318 18.811 2.50244 18.811L21.7285 18.811C23.2056 18.811 24.231 17.7979 24.231 16.272L24.231 8.8501C24.231 7.33643 23.2056 6.31104 21.7285 6.31104L21.1182 6.31104C19.6411 6.31104 18.6157 7.33643 18.6157 8.8501L18.6157 13.0615L5.60303 13.0615L5.60303 8.8501C5.60303 7.33643 4.58984 6.31104 3.10059 6.31104L2.50244 6.31104C1.01318 6.31104 0 7.33643 0 8.8501ZM4.30908 21.4233L5.07812 21.4233C5.7373 21.4233 6.16455 21.0083 6.16455 20.3491L6.16455 17.7612L3.23486 17.7612L3.23486 20.3491C3.23486 21.0083 3.6499 21.4233 4.30908 21.4233ZM19.1528 21.4233L19.9097 21.4233C20.5688 21.4233 20.9839 21.0083 20.9839 20.3491L20.9839 17.7612L18.0664 17.7612L18.0664 20.3491C18.0664 21.0083 18.4937 21.4233 19.1528 21.4233Z" fill="#5ac8f5"/>
 </g>
</svg>
