<?xml version="1.0" encoding="UTF-8"?>
<!--Generator: Apple Native CoreSVG 175.5-->
<!DOCTYPE svg
PUBLIC "-//W3C//DTD SVG 1.1//EN"
       "http://www.w3.org/Graphics/SVG/1.1/DTD/svg11.dtd">
<svg version="1.1" xmlns="http://www.w3.org/2000/svg" xmlns:xlink="http://www.w3.org/1999/xlink" width="22.4731" height="22.4976">
 <g>
  <rect height="22.4976" opacity="0" width="22.4731" x="0" y="0"/>
  <path d="M3.83301 22.4976L18.6401 22.4976C21.2036 22.4976 22.4731 21.228 22.4731 18.7134L22.4731 3.80859C22.4731 1.29395 21.2036 0.0244141 18.6401 0.0244141L3.83301 0.0244141C1.28174 0.0244141 0 1.28174 0 3.80859L0 18.7134C0 21.2402 1.28174 22.4976 3.83301 22.4976Z" fill="#5ac8f5" fill-opacity="0.25"/>
  <path d="M9.86328 17.2241C9.14307 17.2241 8.78906 16.7969 8.78906 16.2231L8.78906 12.2314L7.78809 12.6709C7.67822 12.7075 7.58057 12.7319 7.4707 12.7319C7.1167 12.7319 6.88477 12.4756 6.88477 12.1216C6.88477 11.8408 6.99463 11.6577 7.2998 11.5234L8.78906 10.9009L8.78906 9.70459L7.78809 10.1318C7.67822 10.1807 7.58057 10.2051 7.4707 10.2051C7.1167 10.2051 6.88477 9.96094 6.88477 9.60693C6.88477 9.31396 6.99463 9.13086 7.2998 9.00879L8.78906 8.36182L8.78906 6.12793C8.78906 5.61523 9.09424 5.28564 9.58252 5.28564C10.0464 5.28564 10.3516 5.61523 10.3516 6.12793L10.3516 7.72705L12.4878 6.83594C12.5854 6.78711 12.6953 6.75049 12.8052 6.75049C13.1592 6.75049 13.3911 7.01904 13.3911 7.37305C13.3911 7.65381 13.269 7.82471 12.9761 7.97119L10.3516 9.05762L10.3516 10.2539L12.4878 9.35059C12.5854 9.31396 12.6953 9.28955 12.8052 9.28955C13.1592 9.28955 13.3911 9.5459 13.3911 9.8999C13.3911 10.1685 13.269 10.3638 12.9761 10.4858L10.3516 11.5845L10.3516 15.6006C12.4023 15.6006 13.8428 13.9282 14.0747 12.085C14.1602 11.499 14.4531 11.2671 14.856 11.2671C15.3198 11.2671 15.6006 11.5967 15.6006 12.1094C15.6006 14.3799 13.4888 17.2241 9.86328 17.2241Z" fill="#5ac8f5"/>
 </g>
</svg>
