<?xml version="1.0" encoding="UTF-8"?>
<!--Generator: Apple Native CoreSVG 175.5-->
<!DOCTYPE svg
PUBLIC "-//W3C//DTD SVG 1.1//EN"
       "http://www.w3.org/Graphics/SVG/1.1/DTD/svg11.dtd">
<svg version="1.1" xmlns="http://www.w3.org/2000/svg" xmlns:xlink="http://www.w3.org/1999/xlink" width="24.9023" height="24.9146">
 <g>
  <rect height="24.9146" opacity="0" width="24.9023" x="0" y="0"/>
  <path d="M12.4512 24.9023C19.2627 24.9023 24.9023 19.2505 24.9023 12.4512C24.9023 5.63965 19.2505 0 12.439 0C5.63965 0 0 5.63965 0 12.4512C0 19.2505 5.65186 24.9023 12.4512 24.9023ZM12.4512 22.8271C6.68945 22.8271 2.0874 18.2129 2.0874 12.4512C2.0874 6.68945 6.67725 2.0752 12.439 2.0752C18.2007 2.0752 22.8271 6.68945 22.8271 12.4512C22.8271 18.2129 18.2129 22.8271 12.4512 22.8271Z" fill="#5ac8f5" fill-opacity="0.5"/>
  <path d="M9.86328 20.4468C10.437 20.4468 10.8032 20.1294 10.791 19.5679L10.6567 11.8286C10.6567 11.5845 10.7544 11.4014 10.9741 11.3037C11.8774 10.9131 12.2925 10.498 12.2192 9.27734L12.0239 5.05371C12.0117 4.74854 11.8408 4.56543 11.5601 4.56543C11.2915 4.56543 11.1206 4.76074 11.1206 5.06592L11.1816 9.19189C11.1816 9.42383 11.0107 9.58252 10.791 9.58252C10.5469 9.58252 10.376 9.42383 10.376 9.2041L10.3271 4.95605C10.3271 4.65088 10.1318 4.47998 9.86328 4.47998C9.58252 4.47998 9.39941 4.65088 9.39941 4.95605L9.32617 9.2041C9.32617 9.42383 9.16748 9.58252 8.93555 9.58252C8.71582 9.58252 8.54492 9.42383 8.54492 9.19189L8.60596 5.06592C8.60596 4.76074 8.43506 4.56543 8.1665 4.56543C7.88574 4.56543 7.70264 4.74854 7.69043 5.05371L7.50732 9.27734C7.4585 10.498 7.84912 10.9131 8.76465 11.3037C8.97217 11.4014 9.06982 11.5845 9.06982 11.8286L8.93555 19.5679C8.92334 20.1294 9.28955 20.4468 9.86328 20.4468ZM14.6484 14.5874L14.4897 19.5312C14.4653 20.1294 14.8438 20.4468 15.4053 20.4468C16.0034 20.4468 16.3574 20.1538 16.3574 19.6045L16.3574 4.99268C16.3574 4.63867 16.1011 4.47998 15.8691 4.47998C15.6006 4.47998 15.4297 4.62646 15.21 4.94385C14.0991 6.49414 13.3667 9.41162 13.3667 12.1582L13.3667 12.6221C13.3667 13.1104 13.5498 13.4399 13.8916 13.6841L14.2944 13.9648C14.5386 14.1357 14.6484 14.3188 14.6484 14.5874Z" fill="#5ac8f5"/>
 </g>
</svg>
