<?xml version="1.0" encoding="UTF-8"?>
<!--Generator: Apple Native CoreSVG 175.5-->
<!DOCTYPE svg
PUBLIC "-//W3C//DTD SVG 1.1//EN"
       "http://www.w3.org/Graphics/SVG/1.1/DTD/svg11.dtd">
<svg version="1.1" xmlns="http://www.w3.org/2000/svg" xmlns:xlink="http://www.w3.org/1999/xlink" width="37.7072" height="24.5239">
 <g>
  <rect height="24.5239" opacity="0" width="37.7072" x="0" y="0"/>
  <path d="M0 13.6597C0 20.1782 6.12793 24.5239 15.3931 24.5239C24.6704 24.5239 30.7983 20.1782 30.7983 13.6597C30.7983 10.9253 24.4629 8.70361 15.3931 8.70361C6.33545 8.70361 0 10.9253 0 13.6597ZM1.96533 13.6597C1.96533 12.3413 8.36182 10.5469 15.3931 10.5469C22.4243 10.5469 28.833 12.3413 28.833 13.6597C28.833 14.9292 22.8271 16.7358 15.3931 16.7358C7.95898 16.7358 1.96533 14.9292 1.96533 13.6597ZM28.2227 12.3291L36.2793 7.39746C39.6484 5.34668 36.5234 0.402832 32.4219 3.34473L23.0103 10.1196ZM8.30078 16.9067L21.4478 16.9556C21.46 14.4165 19.3726 12.7563 16.9678 12.7563C15.3809 12.7563 13.9893 13.4644 13.1714 14.563C12.7441 14.4165 12.3535 14.3555 11.8774 14.3555C10.0952 14.3555 8.61816 15.4663 8.30078 16.9067Z" fill="#5ac8f5"/>
 </g>
</svg>
