<?xml version="1.0" encoding="UTF-8"?>
<!--Generator: Apple Native CoreSVG 175.5-->
<!DOCTYPE svg
PUBLIC "-//W3C//DTD SVG 1.1//EN"
       "http://www.w3.org/Graphics/SVG/1.1/DTD/svg11.dtd">
<svg version="1.1" xmlns="http://www.w3.org/2000/svg" xmlns:xlink="http://www.w3.org/1999/xlink" width="34.8389" height="23.8159">
 <g>
  <rect height="23.8159" opacity="0" width="34.8389" x="0" y="0"/>
  <path d="M17.4194 22.2778C22.2412 22.2778 26.3672 18.8599 27.3804 14.5142C26.6602 15.3931 25.5371 15.8936 24.3042 15.8936C23.1201 15.8936 22.0337 15.4297 21.2891 14.6118C21.0205 14.3066 20.7153 14.2944 20.4468 14.6118C19.7632 15.3931 18.6401 15.8936 17.4072 15.8936C16.1743 15.8936 15.0635 15.3931 14.3677 14.6118C14.0991 14.2944 13.8062 14.3066 13.5254 14.6118C12.793 15.4297 11.7065 15.8936 10.5225 15.8936C9.27734 15.8936 8.1543 15.3931 7.43408 14.5142C8.49609 18.8843 12.6099 22.2778 17.4194 22.2778ZM17.4194 23.8037C23.9258 23.8037 29.3335 18.4082 29.3335 11.9019C29.3335 5.39551 23.9258 0 17.4072 0C10.9009 0 5.51758 5.3833 5.51758 11.9019C5.51758 18.4082 10.9131 23.8037 17.4194 23.8037ZM17.4194 21.7285C11.9751 21.7285 7.60498 17.3584 7.60498 11.9019C7.60498 6.43311 11.9629 2.06299 17.4072 2.06299C22.8638 2.06299 27.2461 6.43311 27.2583 11.9019C27.2705 17.3462 22.8882 21.7285 17.4194 21.7285Z" fill="#5ac8f5"/>
  <path d="M0 11.9019C0 15.7715 1.25732 19.3237 3.38135 22.2168C3.75977 22.7417 4.40674 22.7905 4.89502 22.3999C5.33447 22.0215 5.39551 21.4355 5.0415 20.9473C3.18604 18.4204 2.0874 15.2832 2.0874 11.9019C2.0874 8.5083 3.18604 5.3833 5.0415 2.83203C5.39551 2.36816 5.34668 1.77002 4.89502 1.3916C4.40674 1.00098 3.75977 1.06201 3.38135 1.57471C1.25732 4.46777 0 8.03223 0 11.9019ZM34.8389 11.9019C34.8389 8.03223 33.5938 4.46777 31.4575 1.57471C31.0791 1.06201 30.4321 1.00098 29.9438 1.3916C29.4922 1.77002 29.4556 2.36816 29.7974 2.83203C31.665 5.3833 32.7515 8.5083 32.7515 11.9019C32.7515 15.2832 31.665 18.4204 29.7974 20.9473C29.4556 21.4355 29.5044 22.0215 29.9438 22.3999C30.4321 22.7905 31.0791 22.7417 31.4575 22.2168C33.5938 19.3237 34.8389 15.7715 34.8389 11.9019Z" fill="#5ac8f5" fill-opacity="0.5"/>
 </g>
</svg>
