<?xml version="1.0" encoding="UTF-8"?>
<!--Generator: Apple Native CoreSVG 175.5-->
<!DOCTYPE svg
PUBLIC "-//W3C//DTD SVG 1.1//EN"
       "http://www.w3.org/Graphics/SVG/1.1/DTD/svg11.dtd">
<svg version="1.1" xmlns="http://www.w3.org/2000/svg" xmlns:xlink="http://www.w3.org/1999/xlink" width="24.9023" height="24.9146">
 <g>
  <rect height="24.9146" opacity="0" width="24.9023" x="0" y="0"/>
  <path d="M12.4512 24.9023C19.2627 24.9023 24.9023 19.2505 24.9023 12.4512C24.9023 5.63965 19.2505 0 12.439 0C5.63965 0 0 5.63965 0 12.4512C0 19.2505 5.65186 24.9023 12.4512 24.9023ZM12.4512 22.8271C6.68945 22.8271 2.0874 18.2129 2.0874 12.4512C2.0874 6.68945 6.67725 2.0752 12.439 2.0752C18.2007 2.0752 22.8271 6.68945 22.8271 12.4512C22.8271 18.2129 18.2129 22.8271 12.4512 22.8271ZM6.37207 17.7002C6.65283 17.7002 6.95801 17.627 7.17773 17.2119C8.3252 15.0635 9.92432 14.4165 12.4756 14.4165L12.6709 14.4165L12.6709 16.9312C12.6709 17.3706 12.9883 17.7002 13.4277 17.7002C13.7573 17.7002 14.0137 17.5537 14.3188 17.2729L19.5068 12.3901C19.7632 12.1582 19.8486 11.9019 19.8486 11.6821C19.8486 11.4624 19.7632 11.2061 19.5068 10.9741L14.3188 6.12793C13.9771 5.81055 13.7695 5.66406 13.4399 5.66406C12.9883 5.66406 12.6709 6.03027 12.6709 6.46973L12.6709 8.95996L12.4756 8.95996C7.77588 8.95996 5.70068 11.9629 5.70068 16.8213C5.70068 17.395 6.03027 17.7002 6.37207 17.7002Z" fill="#5ac8f5"/>
 </g>
</svg>
