<?xml version="1.0" encoding="UTF-8"?>
<!--Generator: Apple Native CoreSVG 175.5-->
<!DOCTYPE svg
PUBLIC "-//W3C//DTD SVG 1.1//EN"
       "http://www.w3.org/Graphics/SVG/1.1/DTD/svg11.dtd">
<svg version="1.1" xmlns="http://www.w3.org/2000/svg" xmlns:xlink="http://www.w3.org/1999/xlink" width="29.9683" height="19.8364">
 <g>
  <rect height="19.8364" opacity="0" width="29.9683" x="0" y="0"/>
  <path d="M3.91846 19.8242L17.0288 19.8242C19.4824 19.8242 20.9473 18.4082 20.9473 15.9546L20.9473 3.85742C20.9473 1.41602 19.6045 0 17.1509 0L3.91846 0C1.57471 0 0 1.41602 0 3.85742L0 15.9546C0 18.4082 1.46484 19.8242 3.91846 19.8242ZM22.6074 13.5132L27.0508 17.3584C27.4658 17.7246 27.9541 17.9565 28.3936 17.9565C29.3457 17.9565 29.9683 17.2607 29.9683 16.2598L29.9683 3.56445C29.9683 2.56348 29.3457 1.86768 28.3936 1.86768C27.9541 1.86768 27.4658 2.09961 27.0508 2.46582L22.6074 6.29883Z" fill="#5ac8f5"/>
 </g>
</svg>
