<?xml version="1.0" encoding="UTF-8"?>
<!--Generator: Apple Native CoreSVG 175.5-->
<!DOCTYPE svg
PUBLIC "-//W3C//DTD SVG 1.1//EN"
       "http://www.w3.org/Graphics/SVG/1.1/DTD/svg11.dtd">
<svg version="1.1" xmlns="http://www.w3.org/2000/svg" xmlns:xlink="http://www.w3.org/1999/xlink" width="27.942" height="27.5757">
 <g>
  <rect height="27.5757" opacity="0" width="27.942" x="0" y="0"/>
  <path d="M0.256429 27.3193C0.586019 27.6367 1.11092 27.6245 1.44051 27.2949L6.70174 22.0337L5.51766 20.8618L0.256429 26.123C-0.0731605 26.4526-0.0975746 26.9897 0.256429 27.3193ZM4.49227 20.7886L6.83602 23.1079C8.08114 24.3408 9.77791 24.3042 11.0841 22.998L23.9014 10.1807L22.5098 8.78906L9.70467 21.6064C9.2286 22.0825 8.58162 22.0581 8.08114 21.5576L6.03036 19.519C5.52987 19.0308 5.52987 18.3838 6.01815 17.8955L18.8233 5.10254L17.4195 3.69873L4.60213 16.5283C3.27157 17.8711 3.23494 19.5557 4.49227 20.7886ZM6.46981 15.2466L9.47274 18.2617C9.71688 18.5059 10.0465 18.4937 10.2906 18.2495C10.4981 18.042 10.4859 17.6758 10.2784 17.4561L7.26327 14.4653ZM9.00887 12.7319L12.0118 15.7349C12.2437 15.9668 12.5855 15.9668 12.8175 15.7349C13.0372 15.5151 13.0128 15.1611 12.8053 14.9414L9.80233 11.9385ZM11.5479 10.1807L14.5509 13.1958C14.7828 13.4155 15.1246 13.4277 15.3565 13.1958C15.5763 12.9761 15.5763 12.6221 15.3443 12.3901L12.3414 9.38721ZM14.087 7.65381L17.0899 10.6689C17.3219 10.8887 17.6514 10.8887 17.8834 10.6689C18.1031 10.4614 18.0909 10.083 17.8834 9.86328L14.8682 6.86035ZM15.3931 3.14941L24.4752 12.2314C24.8536 12.6099 25.4762 12.6099 25.8546 12.2314C26.2452 11.853 26.2452 11.2183 25.8546 10.8398L16.7847 1.77002C16.3819 1.35498 15.7716 1.37939 15.3931 1.77002C15.0147 2.14844 14.9903 2.74658 15.3931 3.14941ZM17.7125 3.43018L24.17 9.91211L25.0489 9.0332C25.4273 8.65479 25.4395 8.03223 25.0489 7.65381L23.2789 5.88379L24.8048 4.35791L26.2696 5.82275C26.648 6.20117 27.2706 6.20117 27.649 5.82275C28.0396 5.43213 28.0396 4.80957 27.649 4.43115L23.5108 0.292969C23.1324-0.0976562 22.5098-0.0976562 22.1192 0.292969C21.7408 0.671387 21.7408 1.29395 22.1192 1.67236L23.5963 3.13721L22.0704 4.66309L19.9708 2.56348C19.5924 2.18506 18.9576 2.18506 18.5792 2.56348Z" fill="#5ac8f5"/>
 </g>
</svg>
