<?xml version="1.0" encoding="UTF-8"?>
<!--Generator: Apple Native CoreSVG 175.5-->
<!DOCTYPE svg
PUBLIC "-//W3C//DTD SVG 1.1//EN"
       "http://www.w3.org/Graphics/SVG/1.1/DTD/svg11.dtd">
<svg version="1.1" xmlns="http://www.w3.org/2000/svg" xmlns:xlink="http://www.w3.org/1999/xlink" width="22.4731" height="22.4976">
 <g>
  <rect height="22.4976" opacity="0" width="22.4731" x="0" y="0"/>
  <path d="M3.83301 22.4976L18.6401 22.4976C21.2036 22.4976 22.4731 21.228 22.4731 18.7134L22.4731 3.80859C22.4731 1.29395 21.2036 0.0244141 18.6401 0.0244141L3.83301 0.0244141C1.28174 0.0244141 0 1.28174 0 3.80859L0 18.7134C0 21.2402 1.28174 22.4976 3.83301 22.4976ZM3.85742 20.5322C2.63672 20.5322 1.96533 19.8853 1.96533 18.6157L1.96533 3.90625C1.96533 2.63672 2.63672 1.98975 3.85742 1.98975L18.6157 1.98975C19.8242 1.98975 20.5078 2.63672 20.5078 3.90625L20.5078 18.6157C20.5078 19.8853 19.8242 20.5322 18.6157 20.5322ZM8.72803 17.5903C9.47266 18.3228 10.2051 18.335 10.9619 17.5781L16.8579 11.7188C17.334 11.2671 17.6758 10.9375 17.6758 10.1929L17.6758 7.89795C17.6758 7.34863 17.5293 7.03125 17.1631 6.65283L16.1011 5.60303C15.7227 5.23682 15.4053 5.00488 14.856 5.00488L12.4878 5.00488C11.7554 5.00488 11.4136 5.34668 10.9497 5.82275L5.10254 11.731C4.35791 12.4878 4.35791 13.208 5.09033 13.9404ZM13.4155 9.26514C13.0737 8.93555 13.0737 8.37402 13.4155 8.03223C13.7451 7.69043 14.3066 7.69043 14.6362 8.03223C14.978 8.36182 14.978 8.91113 14.6362 9.25293C14.2944 9.60693 13.7573 9.60693 13.4155 9.26514Z" fill="#5ac8f5"/>
 </g>
</svg>
