<?xml version="1.0" encoding="UTF-8"?>
<!--Generator: Apple Native CoreSVG 175.5-->
<!DOCTYPE svg
PUBLIC "-//W3C//DTD SVG 1.1//EN"
       "http://www.w3.org/Graphics/SVG/1.1/DTD/svg11.dtd">
<svg version="1.1" xmlns="http://www.w3.org/2000/svg" xmlns:xlink="http://www.w3.org/1999/xlink" width="24.9023" height="24.9146">
 <g>
  <rect height="24.9146" opacity="0" width="24.9023" x="0" y="0"/>
  <path d="M12.4512 24.9023C19.2627 24.9023 24.9023 19.2505 24.9023 12.4512C24.9023 5.63965 19.2505 0 12.439 0C5.63965 0 0 5.63965 0 12.4512C0 19.2505 5.65186 24.9023 12.4512 24.9023Z" fill="#5ac8f5" fill-opacity="0.25"/>
  <path d="M9.05762 17.7246C8.58154 17.7246 8.27637 17.4072 8.27637 16.9189L8.27637 9.10645L8.20312 9.10645L6.87256 10.0952C6.57959 10.3271 6.44531 10.3394 6.25 10.3394C5.88379 10.3394 5.52979 10.0098 5.52979 9.58252C5.52979 9.25293 5.68848 9.021 5.95703 8.83789L7.86133 7.53174C8.31299 7.22656 8.55713 7.10449 8.95996 7.10449C9.49707 7.10449 9.86328 7.48291 9.86328 8.00781L9.86328 16.9189C9.86328 17.4072 9.5459 17.7246 9.05762 17.7246ZM15.7227 17.8833C13.562 17.8833 12.1216 15.8081 12.1216 12.4512C12.1216 9.09424 13.562 7.01904 15.7227 7.01904C17.8955 7.01904 19.3237 9.09424 19.3237 12.4512C19.3237 15.8081 17.8955 17.8833 15.7227 17.8833ZM15.7227 16.3452C16.9312 16.3452 17.6758 14.8682 17.6758 12.4512C17.6758 10.0342 16.9189 8.55713 15.7227 8.55713C14.5386 8.55713 13.7817 10.0342 13.7817 12.4512C13.7817 14.8682 14.5386 16.3452 15.7227 16.3452Z" fill="#5ac8f5"/>
 </g>
</svg>
