<?xml version="1.0" encoding="UTF-8"?>
<!--Generator: Apple Native CoreSVG 175.5-->
<!DOCTYPE svg
PUBLIC "-//W3C//DTD SVG 1.1//EN"
       "http://www.w3.org/Graphics/SVG/1.1/DTD/svg11.dtd">
<svg version="1.1" xmlns="http://www.w3.org/2000/svg" xmlns:xlink="http://www.w3.org/1999/xlink" width="24.5972" height="21.106">
 <g>
  <rect height="21.106" opacity="0" width="24.5972" x="0" y="0"/>
  <path d="M11.7798 1.84326L23.6572 1.84326C24.1699 1.84326 24.5972 1.44043 24.5972 0.915527C24.5972 0.402832 24.1699 0 23.6572 0L11.7798 0C11.2549 0 10.8521 0.402832 10.8521 0.915527C10.8521 1.44043 11.2549 1.84326 11.7798 1.84326ZM11.7798 8.23975L23.6572 8.23975C24.1699 8.23975 24.5972 7.83691 24.5972 7.31201C24.5972 6.79932 24.1699 6.39648 23.6572 6.39648L11.7798 6.39648C11.2549 6.39648 10.8521 6.79932 10.8521 7.31201C10.8521 7.83691 11.2549 8.23975 11.7798 8.23975ZM11.7798 14.6362L23.6572 14.6362C24.1699 14.6362 24.5972 14.2212 24.5972 13.7085C24.5972 13.1958 24.1699 12.793 23.6572 12.793L11.7798 12.793C11.2549 12.793 10.8521 13.1958 10.8521 13.7085C10.8521 14.2212 11.2549 14.6362 11.7798 14.6362ZM11.7798 21.0205L23.6572 21.0205C24.1699 21.0205 24.5972 20.6177 24.5972 20.105C24.5972 19.5923 24.1699 19.1772 23.6572 19.1772L11.7798 19.1772C11.2549 19.1772 10.8521 19.5923 10.8521 20.105C10.8521 20.6177 11.2549 21.0205 11.7798 21.0205Z" fill="#5ac8f5" fill-opacity="0.5"/>
  <path d="M2.12402 8.23975L6.11572 8.23975C7.4585 8.23975 8.23975 7.4585 8.23975 6.16455L8.23975 2.06299C8.23975 0.769043 7.4585 0 6.11572 0L2.12402 0C0.78125 0 0 0.769043 0 2.06299L0 6.16455C0 7.4585 0.78125 8.23975 2.12402 8.23975ZM2.12402 21.0205L6.11572 21.0205C7.4585 21.0205 8.23975 20.2515 8.23975 18.9575L8.23975 14.856C8.23975 13.562 7.4585 12.793 6.11572 12.793L2.12402 12.793C0.78125 12.793 0 13.562 0 14.856L0 18.9575C0 20.2515 0.78125 21.0205 2.12402 21.0205Z" fill="#5ac8f5"/>
 </g>
</svg>
