<?xml version="1.0" encoding="UTF-8"?>
<!--Generator: Apple Native CoreSVG 175.5-->
<!DOCTYPE svg
PUBLIC "-//W3C//DTD SVG 1.1//EN"
       "http://www.w3.org/Graphics/SVG/1.1/DTD/svg11.dtd">
<svg version="1.1" xmlns="http://www.w3.org/2000/svg" xmlns:xlink="http://www.w3.org/1999/xlink" width="20.2881" height="25.3052">
 <g>
  <rect height="25.3052" opacity="0" width="20.2881" x="0" y="0"/>
  <path d="M0 15.0635C0 19.519 2.39258 21.1548 9.32617 25.061C9.64355 25.2319 9.94873 25.3052 10.144 25.3052C10.3394 25.3052 10.6567 25.2319 10.9619 25.061C17.9077 21.167 20.2881 19.519 20.2881 15.0635L20.2881 5.7251C20.2881 4.44336 19.7388 4.04053 18.7012 3.60107C17.2607 3.00293 12.6099 1.33057 11.1694 0.830078C10.8398 0.720215 10.4858 0.646973 10.144 0.646973C9.80225 0.646973 9.44824 0.744629 9.13086 0.830078C7.69043 1.24512 3.02734 3.01514 1.58691 3.60107C0.561523 4.02832 0 4.44336 0 5.7251ZM1.94092 14.6118L1.94092 12.6465L10.144 12.6465L10.144 2.6123C10.2783 2.6123 10.437 2.64893 10.6323 2.72217C12.4756 3.45459 16.0522 4.74854 17.9443 5.39551C18.2739 5.51758 18.3472 5.68848 18.3472 6.10352L18.3472 12.6465L10.144 12.6465L10.144 23.0957C9.94873 23.0957 9.75342 23.0225 9.38721 22.8027C3.74756 19.3848 1.94092 18.3838 1.94092 14.6118Z" fill="#5ac8f5"/>
 </g>
</svg>
