<?xml version="1.0" encoding="UTF-8"?>
<!--Generator: Apple Native CoreSVG 175.5-->
<!DOCTYPE svg
PUBLIC "-//W3C//DTD SVG 1.1//EN"
       "http://www.w3.org/Graphics/SVG/1.1/DTD/svg11.dtd">
<svg version="1.1" xmlns="http://www.w3.org/2000/svg" xmlns:xlink="http://www.w3.org/1999/xlink" width="22.168" height="30.7739">
 <g>
  <rect height="30.7739" opacity="0" width="22.168" x="0" y="0"/>
  <path d="M4.50439 25.7812L17.6636 25.7812C20.4834 25.7812 22.168 23.8525 22.168 21.1182L22.168 13.6597C22.168 10.3882 21.7407 7.01904 21.1914 4.79736C20.5811 2.20947 18.7866 0.512695 16.3574 0.244141C15.5518 0.158691 13.4155 0 11.084 0C8.5083 0 6.604 0.158691 5.81055 0.244141C3.36914 0.512695 1.58691 2.20947 0.976562 4.79736C0.415039 7.01904 0 10.2783 0 13.5498L0 21.1182C0 23.8525 1.68457 25.7812 4.50439 25.7812ZM4.76074 24.1821C2.57568 24.1821 1.59912 22.9004 1.59912 21.1182L1.59912 13.5498C1.59912 10.3882 2.01416 7.26318 2.52686 5.15137C2.99072 3.22266 4.23584 2.02637 5.96924 1.84326C6.79932 1.74561 8.61816 1.59912 11.084 1.59912C13.3057 1.59912 15.3564 1.74561 16.1865 1.84326C17.9321 2.02637 19.1772 3.22266 19.6411 5.15137C20.1538 7.26318 20.5688 10.498 20.5688 13.6597L20.5688 21.1182C20.5688 22.9004 19.5923 24.1821 17.395 24.1821ZM7.95898 4.80957L14.1968 4.80957C14.6606 4.80957 14.9536 4.50439 14.9536 4.05273C14.9536 3.60107 14.6606 3.32031 14.1968 3.32031L7.95898 3.32031C7.50732 3.32031 7.21436 3.60107 7.21436 4.05273C7.21436 4.50439 7.50732 4.80957 7.95898 4.80957ZM11.084 17.2119C14.1479 17.1875 16.5039 17.0654 17.8223 16.9067C18.5547 16.8091 18.8354 16.333 18.8354 15.6494L18.8354 12.8418C18.8354 10.376 18.5669 8.38623 18.3716 7.51953C18.2495 6.98242 17.9077 6.5918 17.3584 6.53076C16.0156 6.35986 14.563 6.27441 11.084 6.26221C7.59277 6.27441 6.14014 6.35986 4.76074 6.53076C4.23584 6.5918 3.90625 6.98242 3.78418 7.51953C3.58887 8.38623 3.32031 10.376 3.32031 12.8418L3.32031 15.6494C3.32031 16.333 3.60107 16.8091 4.3335 16.9067C5.65186 17.0654 8.00781 17.1875 11.084 17.2119ZM5.40771 22.2778C6.35986 22.2778 7.09229 21.5698 7.09229 20.5933C7.09229 19.6289 6.38428 18.9331 5.40771 18.9331C4.44336 18.9331 3.74756 19.6289 3.74756 20.5933C3.74756 21.5698 4.44336 22.2778 5.40771 22.2778ZM16.7358 22.29C17.6758 22.29 18.4204 21.5576 18.4204 20.5933C18.4204 19.6411 17.688 18.9209 16.7358 18.9209C15.7715 18.9209 15.0391 19.6411 15.0391 20.5933C15.0391 21.5576 15.7715 22.29 16.7358 22.29ZM2.67334 30.6396L3.35693 30.6396C3.68652 30.6396 3.88184 30.5176 4.06494 30.2246L7.53174 24.6338L5.2002 24.6338L2.12402 29.5776C1.80664 30.0903 2.09961 30.6396 2.67334 30.6396ZM3.74756 29.1016L18.457 29.1016L18.457 27.2705L3.74756 27.2705ZM18.8599 30.6396L19.5435 30.6396C20.105 30.6396 20.3613 30.0781 20.0562 29.5776L17.0044 24.6338L14.6729 24.6338L18.1396 30.2246C18.3228 30.5176 18.5181 30.6396 18.8599 30.6396Z" fill="#5ac8f5"/>
 </g>
</svg>
