<?xml version="1.0" encoding="UTF-8"?>
<!--Generator: Apple Native CoreSVG 175.5-->
<!DOCTYPE svg
PUBLIC "-//W3C//DTD SVG 1.1//EN"
       "http://www.w3.org/Graphics/SVG/1.1/DTD/svg11.dtd">
<svg version="1.1" xmlns="http://www.w3.org/2000/svg" xmlns:xlink="http://www.w3.org/1999/xlink" width="25.5615" height="34.436">
 <g>
  <rect height="34.436" opacity="0" width="25.5615" x="0" y="0"/>
  <path d="M22.9126 11.6821C24.3774 11.6821 25.5615 10.498 25.5615 9.021C25.5615 7.55615 24.3774 6.37207 22.9126 6.37207C21.4355 6.37207 20.2393 7.55615 20.2393 9.021C20.2393 10.498 21.4355 11.6821 22.9126 11.6821ZM1.25732 15.0269L7.33643 15.0269L11.0718 18.4204C11.2305 18.5547 11.145 18.7866 10.9375 18.7866L6.67725 18.7866C6.31104 18.7866 5.94482 18.8721 5.68848 19.1284L1.15967 23.6694C0.671387 24.1699 0.65918 24.939 1.15967 25.4395C1.64795 25.9277 2.44141 25.9277 2.92969 25.4395L6.99463 21.3745L11.9629 22.1924C13.5498 22.4487 15.1733 21.9604 16.3208 20.7886L19.1284 17.9932C19.3604 17.7612 19.6899 17.8955 19.6899 18.2129L19.6899 20.1416L16.3086 23.5229C15.8203 24.0112 15.8325 24.8047 16.3086 25.293C16.5527 25.5371 16.8701 25.6592 17.2119 25.6592C17.5293 25.6592 17.8467 25.5371 18.0908 25.293L21.8384 21.5454C22.0703 21.3135 22.2046 20.9717 22.2046 20.6543L22.2046 15.0757C22.2046 14.27 21.9482 13.6108 21.4722 13.147L14.0503 5.74951L14.0503 9.28955L17.2485 12.4878C17.4805 12.7197 17.4683 12.9761 17.2485 13.1836L13.9282 16.5161L8.53271 12.7319C8.30078 12.5732 8.11768 12.5122 7.77588 12.5122L1.25732 12.5122C0.561523 12.5122 0 13.0737 0 13.7695C0 14.4531 0.561523 15.0269 1.25732 15.0269ZM14.6973 27.5757C16.5039 27.5757 17.8833 26.1597 17.8711 24.353L16.5161 24.353C16.5283 25.4272 15.7471 26.2207 14.6973 26.2207C13.6597 26.2207 12.8662 25.5859 12.8662 24.4019L12.8662 0.671387C12.8662 0.305176 12.561 0 12.1948 0C11.8286 0 11.5112 0.305176 11.5112 0.671387L11.5112 24.4019C11.5112 26.3672 12.9028 27.5757 14.6973 27.5757ZM17.1875 34.4238C17.5781 34.4238 17.8711 34.1187 17.8711 33.7402L17.8711 18.7256L16.5161 18.7256L16.5161 33.7402C16.5161 34.1187 16.8091 34.4238 17.1875 34.4238Z" fill="#5ac8f5"/>
 </g>
</svg>
