<?xml version="1.0" encoding="UTF-8"?>
<!--Generator: Apple Native CoreSVG 175.5-->
<!DOCTYPE svg
PUBLIC "-//W3C//DTD SVG 1.1//EN"
       "http://www.w3.org/Graphics/SVG/1.1/DTD/svg11.dtd">
<svg version="1.1" xmlns="http://www.w3.org/2000/svg" xmlns:xlink="http://www.w3.org/1999/xlink" width="25.3784" height="21.0815">
 <g>
  <rect height="21.0815" opacity="0" width="25.3784" x="0" y="0"/>
  <path d="M2.86865 21.0693L22.5098 21.0693C24.231 21.0693 25.3784 19.9097 25.3784 18.2007L25.3784 2.86865C25.3784 1.15967 24.231 0 22.5098 0L2.86865 0C1.14746 0 0 1.15967 0 2.86865L0 18.2007C0 19.9097 1.14746 21.0693 2.86865 21.0693ZM2.89307 19.104C2.33154 19.104 1.96533 18.7012 1.96533 18.103L1.96533 2.96631C1.96533 2.36816 2.33154 1.96533 2.89307 1.96533L22.4976 1.96533C23.0469 1.96533 23.4131 2.36816 23.4131 2.96631L23.4131 18.103C23.4131 18.7012 23.0469 19.104 22.4976 19.104ZM5.37109 4.91943C5.95703 4.91943 6.43311 4.44336 6.43311 3.84521C6.43311 3.25928 5.95703 2.7832 5.37109 2.7832C4.77295 2.7832 4.29688 3.25928 4.29688 3.84521C4.29688 4.44336 4.77295 4.91943 5.37109 4.91943ZM8.5083 4.91943C9.10645 4.91943 9.58252 4.44336 9.58252 3.84521C9.58252 3.25928 9.10645 2.7832 8.5083 2.7832C7.92236 2.7832 7.44629 3.25928 7.44629 3.84521C7.44629 4.44336 7.92236 4.91943 8.5083 4.91943ZM11.6577 4.91943C12.2437 4.91943 12.7197 4.44336 12.7197 3.84521C12.7197 3.25928 12.2437 2.7832 11.6577 2.7832C11.0596 2.7832 10.5835 3.25928 10.5835 3.84521C10.5835 4.44336 11.0596 4.91943 11.6577 4.91943ZM17.3828 4.46777L20.6787 4.46777C21.0449 4.46777 21.2891 4.21143 21.2891 3.84521C21.2891 3.479 21.0449 3.23486 20.6787 3.23486L17.3828 3.23486C17.0166 3.23486 16.7603 3.479 16.7603 3.84521C16.7603 4.21143 17.0166 4.46777 17.3828 4.46777ZM1.18408 7.2998L24.2188 7.2998L24.2188 5.70068L1.18408 5.70068ZM5.13916 17.5903L20.2515 17.5903C20.9473 17.5903 21.3867 17.1509 21.3867 16.4551L21.3867 9.82666C21.3867 9.13086 20.9473 8.6792 20.2515 8.6792L5.13916 8.6792C4.44336 8.6792 3.9917 9.13086 3.9917 9.82666L3.9917 16.4551C3.9917 17.1509 4.44336 17.5903 5.13916 17.5903ZM5.67627 16.2354C5.49316 16.2354 5.35889 16.1011 5.35889 15.918L5.35889 10.3638C5.35889 10.1685 5.49316 10.0342 5.67627 10.0342L19.7144 10.0342C19.8975 10.0342 20.0317 10.1685 20.0317 10.3638L20.0317 15.918C20.0317 16.1011 19.8975 16.2354 19.7144 16.2354ZM5.11475 12.7563L20.2759 12.7563L20.2759 11.4014L5.11475 11.4014Z" fill="#5ac8f5"/>
 </g>
</svg>
