<?xml version="1.0" encoding="UTF-8"?>
<!--Generator: Apple Native CoreSVG 175.5-->
<!DOCTYPE svg
PUBLIC "-//W3C//DTD SVG 1.1//EN"
       "http://www.w3.org/Graphics/SVG/1.1/DTD/svg11.dtd">
<svg version="1.1" xmlns="http://www.w3.org/2000/svg" xmlns:xlink="http://www.w3.org/1999/xlink" width="9.16748" height="26.8188">
 <g>
  <rect height="26.8188" opacity="0" width="9.16748" x="0" y="0"/>
  <path d="M0 4.60205C0 6.75049 1.45264 8.54492 3.44238 9.04541L3.44238 20.3735C3.44238 23.9746 4.08936 25.9399 4.57764 25.9399C5.07812 25.9399 5.71289 23.9868 5.71289 20.3735L5.71289 9.04541C7.70264 8.55713 9.16748 6.75049 9.16748 4.60205C9.16748 2.0752 7.12891 0 4.57764 0C2.03857 0 0 2.0752 0 4.60205ZM3.27148 4.8584C2.4292 4.8584 1.69678 4.12598 1.69678 3.27148C1.69678 2.4292 2.4292 1.70898 3.27148 1.70898C4.12598 1.70898 4.83398 2.4292 4.83398 3.27148C4.83398 4.12598 4.12598 4.8584 3.27148 4.8584Z" fill="#5ac8f5"/>
 </g>
</svg>
