<?xml version="1.0" encoding="UTF-8"?>
<!--Generator: Apple Native CoreSVG 175.5-->
<!DOCTYPE svg
PUBLIC "-//W3C//DTD SVG 1.1//EN"
       "http://www.w3.org/Graphics/SVG/1.1/DTD/svg11.dtd">
<svg version="1.1" xmlns="http://www.w3.org/2000/svg" xmlns:xlink="http://www.w3.org/1999/xlink" width="25.3662" height="25.3784">
 <g>
  <rect height="25.3784" opacity="0" width="25.3662" x="0" y="0"/>
  <path d="M0 15.1123C0 16.5161 0.964355 17.4561 2.38037 17.4561L7.89795 17.4561L7.89795 22.9858C7.89795 24.4019 8.83789 25.354 10.2417 25.354L15.1245 25.354C16.5283 25.354 17.4683 24.4019 17.4683 22.9858L17.4683 17.4561L22.998 17.4561C24.4141 17.4561 25.3662 16.5161 25.3662 15.1123L25.3662 10.2295C25.3662 8.82568 24.4141 7.88574 22.998 7.88574L17.4683 7.88574L17.4683 2.36816C17.4683 0.952148 16.5283 0 15.1245 0L10.2417 0C8.83789 0 7.89795 0.952148 7.89795 2.36816L7.89795 7.88574L2.36816 7.88574C0.952148 7.88574 0 8.82568 0 10.2295Z" fill="#5ac8f5"/>
 </g>
</svg>
