<?xml version="1.0" encoding="UTF-8"?>
<!--Generator: Apple Native CoreSVG 175.5-->
<!DOCTYPE svg
PUBLIC "-//W3C//DTD SVG 1.1//EN"
       "http://www.w3.org/Graphics/SVG/1.1/DTD/svg11.dtd">
<svg version="1.1" xmlns="http://www.w3.org/2000/svg" xmlns:xlink="http://www.w3.org/1999/xlink" width="24.9023" height="24.9146">
 <g>
  <rect height="24.9146" opacity="0" width="24.9023" x="0" y="0"/>
  <path d="M12.4512 24.9023C19.2627 24.9023 24.9023 19.2505 24.9023 12.4512C24.9023 5.63965 19.2505 0 12.439 0C5.63965 0 0 5.63965 0 12.4512C0 19.2505 5.65186 24.9023 12.4512 24.9023ZM12.4512 22.8271C6.68945 22.8271 2.0874 18.2129 2.0874 12.4512C2.0874 6.68945 6.67725 2.0752 12.439 2.0752C18.2007 2.0752 22.8271 6.68945 22.8271 12.4512C22.8271 18.2129 18.2129 22.8271 12.4512 22.8271Z" fill="#5ac8f5" fill-opacity="0.5"/>
  <path d="M11.1206 16.1255C13.916 16.1255 16.1987 13.8428 16.1987 11.0474C16.1987 8.25195 13.916 5.96924 11.1206 5.96924C8.3252 5.96924 6.04248 8.26416 6.04248 11.0474C6.04248 13.8306 8.3252 16.1255 11.1206 16.1255ZM11.1206 14.4653C9.25293 14.4653 7.70264 12.915 7.70264 11.0474C7.70264 9.17969 9.25293 7.62939 11.1206 7.62939C12.9883 7.62939 14.5264 9.16748 14.5264 11.0474C14.5264 12.915 12.9883 14.4653 11.1206 14.4653ZM17.8101 18.8232C18.396 18.8232 18.7988 18.396 18.7988 17.7856C18.7988 17.5049 18.6646 17.2485 18.4692 17.041L14.6118 13.1592L13.0493 14.5752L16.9434 18.457C17.1875 18.7134 17.4561 18.8232 17.8101 18.8232Z" fill="#5ac8f5"/>
 </g>
</svg>
