<?xml version="1.0" encoding="UTF-8"?>
<!--Generator: Apple Native CoreSVG 175.5-->
<!DOCTYPE svg
PUBLIC "-//W3C//DTD SVG 1.1//EN"
       "http://www.w3.org/Graphics/SVG/1.1/DTD/svg11.dtd">
<svg version="1.1" xmlns="http://www.w3.org/2000/svg" xmlns:xlink="http://www.w3.org/1999/xlink" width="27.3682" height="24.6948">
 <g>
  <rect height="24.6948" opacity="0" width="27.3682" x="0" y="0"/>
  <path d="M14.1724 6.23779L26.4282 6.23779C26.9409 6.23779 27.3682 5.83496 27.3682 5.31006C27.3682 4.79736 26.9409 4.39453 26.4282 4.39453L14.1724 4.39453C13.6597 4.39453 13.2446 4.79736 13.2446 5.31006C13.2446 5.83496 13.6597 6.23779 14.1724 6.23779ZM14.1724 20.3491L26.4282 20.3491C26.9409 20.3491 27.3682 19.9463 27.3682 19.4336C27.3682 18.9087 26.9409 18.5059 26.4282 18.5059L14.1724 18.5059C13.6597 18.5059 13.2446 18.9087 13.2446 19.4336C13.2446 19.9463 13.6597 20.3491 14.1724 20.3491Z" fill="#5ac8f5" fill-opacity="0.5"/>
  <path d="M5.26123 10.5713C8.12988 10.5713 10.5225 8.1665 10.5225 5.29785C10.5225 2.41699 8.12988 0.0366211 5.26123 0.0366211C2.38037 0.0366211 0 2.41699 0 5.29785C0 8.1665 2.39258 10.5713 5.26123 10.5713ZM5.26123 8.78906C3.36914 8.78906 1.78223 7.18994 1.78223 5.29785C1.78223 3.40576 3.38135 1.80664 5.26123 1.80664C7.14111 1.80664 8.74023 3.41797 8.74023 5.29785C8.74023 7.18994 7.14111 8.78906 5.26123 8.78906ZM5.26123 24.6948C8.12988 24.6948 10.5225 22.3022 10.5225 19.4336C10.5225 16.5405 8.12988 14.1602 5.26123 14.1602C2.38037 14.1602 0 16.5527 0 19.4336C0 22.3022 2.39258 24.6948 5.26123 24.6948ZM5.26123 22.9126C3.36914 22.9126 1.78223 21.3135 1.78223 19.4336C1.78223 17.5415 3.38135 15.9424 5.26123 15.9424C7.14111 15.9424 8.74023 17.5415 8.74023 19.4336C8.74023 21.3135 7.14111 22.9126 5.26123 22.9126Z" fill="#5ac8f5"/>
 </g>
</svg>
