<?xml version="1.0" encoding="UTF-8"?>
<!--Generator: Apple Native CoreSVG 175.5-->
<!DOCTYPE svg
PUBLIC "-//W3C//DTD SVG 1.1//EN"
       "http://www.w3.org/Graphics/SVG/1.1/DTD/svg11.dtd">
<svg version="1.1" xmlns="http://www.w3.org/2000/svg" xmlns:xlink="http://www.w3.org/1999/xlink" width="24.9023" height="24.9146">
 <g>
  <rect height="24.9146" opacity="0" width="24.9023" x="0" y="0"/>
  <path d="M12.4512 24.9023C19.2627 24.9023 24.9023 19.2505 24.9023 12.4512C24.9023 5.63965 19.2505 0 12.439 0C5.63965 0 0 5.63965 0 12.4512C0 19.2505 5.65186 24.9023 12.4512 24.9023ZM8.59375 18.7378C8.1665 18.7378 7.88574 18.4082 7.88574 17.8833L7.88574 7.34863C7.88574 6.82373 8.17871 6.50635 8.61816 6.50635L10.1074 6.50635C11.9507 6.50635 12.8784 7.66602 12.8784 10.0342C12.8784 11.5356 12.3169 12.8418 11.3037 13.3545L12.7686 17.5171C12.8418 17.7124 12.8662 17.8345 12.8662 18.0054C12.8662 18.4204 12.5732 18.7378 12.1704 18.7378C11.8408 18.7378 11.5967 18.6035 11.4624 18.2129L9.8999 13.6597L9.32617 13.6597L9.32617 17.9199C9.32617 18.4326 9.021 18.7378 8.59375 18.7378ZM9.32617 12.2192L9.96094 12.2192C10.9741 12.2192 11.4136 11.499 11.4136 10.083C11.4136 8.6792 10.9741 7.95898 10.0098 7.95898L9.32617 7.95898ZM15.5884 18.75C14.27 18.75 13.4521 17.8711 13.3057 16.5894C13.2812 16.4551 13.2812 16.3086 13.2812 16.1621C13.2812 15.6616 13.5376 15.3442 13.9648 15.3442C14.3799 15.3442 14.6362 15.6372 14.6729 16.1377C14.7217 16.9189 15.0024 17.395 15.5884 17.395C16.1621 17.395 16.4673 17.0044 16.4673 16.272C16.4673 15.6128 16.1987 15.1855 15.564 14.856L15.0635 14.5874C13.8916 13.9771 13.3911 13.1714 13.3911 11.9507C13.3911 10.4492 14.2822 9.44824 15.5884 9.44824C16.8823 9.44824 17.627 10.4126 17.7612 11.6699C17.7734 11.8042 17.7856 11.9141 17.7856 12.0483C17.7856 12.5488 17.5293 12.8662 17.0898 12.8662C16.6626 12.8662 16.4429 12.561 16.4062 12.0728C16.333 11.2549 16.1621 10.8276 15.5762 10.8276C15.0879 10.8276 14.8193 11.2305 14.8193 11.9019C14.8193 12.5122 15.1001 12.8784 15.7715 13.2324L16.2476 13.501C17.4683 14.1724 17.9077 14.917 17.9077 16.1743C17.9077 17.7368 16.9922 18.75 15.5884 18.75Z" fill="#5ac8f5"/>
 </g>
</svg>
