<?xml version="1.0" encoding="UTF-8"?>
<!--Generator: Apple Native CoreSVG 175.5-->
<!DOCTYPE svg
PUBLIC "-//W3C//DTD SVG 1.1//EN"
       "http://www.w3.org/Graphics/SVG/1.1/DTD/svg11.dtd">
<svg version="1.1" xmlns="http://www.w3.org/2000/svg" xmlns:xlink="http://www.w3.org/1999/xlink" width="46.7773" height="25.5737">
 <g>
  <rect height="25.5737" opacity="0" width="46.7773" x="0" y="0"/>
  <path d="M2.06299 21.5088L8.42285 21.5088C12.1582 21.5088 14.5142 19.5435 14.5142 16.5283C14.5142 14.1479 12.793 12.4268 10.3149 12.2925L10.3149 12.1948C12.3413 11.9141 13.7207 10.3882 13.7207 8.44727C13.7207 5.7251 11.6333 4.05273 8.25195 4.05273L2.06299 4.05273C0.756836 4.05273 0 4.82178 0 6.16455L0 19.4092C0 20.7397 0.756836 21.5088 2.06299 21.5088ZM4.02832 18.689L4.02832 13.8428L7.09229 13.8428C9.22852 13.8428 10.4248 14.6729 10.4248 16.2354C10.4248 17.8345 9.27734 18.689 7.17773 18.689ZM4.02832 11.3037L4.02832 6.92139L7.03125 6.92139C8.74023 6.92139 9.75342 7.70264 9.75342 9.04541C9.75342 10.4614 8.63037 11.3037 6.72607 11.3037ZM17.2974 21.5088L25.0122 21.5088C25.5859 21.5088 25.9888 21.1548 25.9888 20.5811C25.9888 20.0317 25.5981 19.6777 25.0244 19.6777L22.2778 19.6777L25.2441 5.88379L27.9785 5.88379C28.5522 5.88379 28.9551 5.52979 28.9551 4.95605C28.9551 4.40674 28.5645 4.05273 27.9907 4.05273L20.2515 4.05273C19.6777 4.05273 19.2871 4.40674 19.2871 4.95605C19.2871 5.52979 19.6899 5.88379 20.2637 5.88379L22.9858 5.88379L20.0195 19.6777L17.2852 19.6777C16.7114 19.6777 16.3086 20.0317 16.3086 20.5811C16.3086 21.1548 16.7236 21.5088 17.2974 21.5088ZM39.6606 21.8262C44.0674 21.8262 46.7773 19.1895 46.7773 15.3564L46.7773 4.89502C46.7773 4.21143 46.3257 3.77197 45.6421 3.77197C44.9463 3.77197 44.519 4.21143 44.519 4.89502L44.519 15.1733C44.519 17.8955 42.7246 19.7388 39.6606 19.7388C36.6211 19.7388 34.8145 17.8955 34.8145 15.1733L34.8145 4.89502C34.8145 4.21143 34.3628 3.77197 33.6792 3.77197C32.9956 3.77197 32.5562 4.21143 32.5562 4.89502L32.5562 15.3564C32.5562 19.1895 35.2783 21.8262 39.6606 21.8262ZM33.2764 25.5737L46.0449 25.5737C46.4478 25.5737 46.7773 25.2686 46.7773 24.8535C46.7773 24.4385 46.4478 24.1211 46.0449 24.1211L33.2764 24.1211C32.8979 24.1211 32.5562 24.4385 32.5562 24.8535C32.5562 25.2686 32.8979 25.5737 33.2764 25.5737Z" fill="#5ac8f5"/>
 </g>
</svg>
