<?xml version="1.0" encoding="UTF-8"?>
<!--Generator: Apple Native CoreSVG 175.5-->
<!DOCTYPE svg
PUBLIC "-//W3C//DTD SVG 1.1//EN"
       "http://www.w3.org/Graphics/SVG/1.1/DTD/svg11.dtd">
<svg version="1.1" xmlns="http://www.w3.org/2000/svg" xmlns:xlink="http://www.w3.org/1999/xlink" width="28.2228" height="21.106">
 <g>
  <rect height="21.106" opacity="0" width="28.2228" x="0" y="0"/>
  <path d="M11.8898 1.84326L27.295 1.84326C27.8077 1.84326 28.2228 1.44043 28.2228 0.915527C28.2228 0.402832 27.8077 0 27.295 0L11.8898 0C11.3649 0 10.962 0.402832 10.962 0.915527C10.962 1.44043 11.3649 1.84326 11.8898 1.84326ZM11.8898 8.23975L27.295 8.23975C27.8077 8.23975 28.2228 7.83691 28.2228 7.31201C28.2228 6.79932 27.8077 6.39648 27.295 6.39648L11.8898 6.39648C11.3649 6.39648 10.962 6.79932 10.962 7.31201C10.962 7.83691 11.3649 8.23975 11.8898 8.23975ZM11.8898 14.6362L27.295 14.6362C27.8077 14.6362 28.2228 14.2212 28.2228 13.7085C28.2228 13.1958 27.8077 12.793 27.295 12.793L11.8898 12.793C11.3649 12.793 10.962 13.1958 10.962 13.7085C10.962 14.2212 11.3649 14.6362 11.8898 14.6362ZM11.8898 21.0205L21.0572 21.0205C21.5699 21.0205 21.9972 20.6177 21.9972 20.105C21.9972 19.5923 21.5699 19.1772 21.0572 19.1772L11.8898 19.1772C11.3649 19.1772 10.962 19.5923 10.962 20.105C10.962 20.6177 11.3649 21.0205 11.8898 21.0205Z" fill="#5ac8f5" fill-opacity="0.5"/>
  <path d="M1.91662 14.2578L5.95714 11.5601C6.67736 11.0718 6.65294 10.0342 5.95714 9.5459L1.91662 6.79932C0.976674 6.16455-0.0120951 6.51855 0.000111889 7.6416L0.000111889 13.4277C-0.0120951 14.5142 1.0133 14.8438 1.91662 14.2578Z" fill="#5ac8f5"/>
 </g>
</svg>
