<?xml version="1.0" encoding="UTF-8"?>
<!--Generator: Apple Native CoreSVG 175.5-->
<!DOCTYPE svg
PUBLIC "-//W3C//DTD SVG 1.1//EN"
       "http://www.w3.org/Graphics/SVG/1.1/DTD/svg11.dtd">
<svg version="1.1" xmlns="http://www.w3.org/2000/svg" xmlns:xlink="http://www.w3.org/1999/xlink" width="22.4731" height="22.4976">
 <g>
  <rect height="22.4976" opacity="0" width="22.4731" x="0" y="0"/>
  <path d="M3.83301 22.4976L18.6401 22.4976C21.2036 22.4976 22.4731 21.228 22.4731 18.7134L22.4731 3.80859C22.4731 1.29395 21.2036 0.0244141 18.6401 0.0244141L3.83301 0.0244141C1.28174 0.0244141 0 1.28174 0 3.80859L0 18.7134C0 21.2402 1.28174 22.4976 3.83301 22.4976Z" fill="#5ac8f5" fill-opacity="0.25"/>
  <path d="M8.36182 6.53076C8.36182 4.94385 9.66797 3.66211 11.2427 3.66211C12.8296 3.66211 14.1235 4.94385 14.1235 6.53076C14.1235 7.82471 13.2812 8.89893 12.1094 9.25293L12.1094 15.564C12.1094 17.4316 11.8286 19.0552 11.2427 19.0552C10.6689 19.0552 10.3638 17.4072 10.3638 15.564L10.3638 9.25293C9.21631 8.88672 8.36182 7.8125 8.36182 6.53076ZM9.59473 5.78613C9.59473 6.28662 10.022 6.71387 10.498 6.71387C10.9985 6.71387 11.4136 6.28662 11.4136 5.78613C11.4258 5.29785 10.9985 4.87061 10.498 4.87061C10.022 4.87061 9.58252 5.29785 9.59473 5.78613Z" fill="#5ac8f5"/>
 </g>
</svg>
