<?xml version="1.0" encoding="UTF-8"?>
<!--Generator: Apple Native CoreSVG 175.5-->
<!DOCTYPE svg
PUBLIC "-//W3C//DTD SVG 1.1//EN"
       "http://www.w3.org/Graphics/SVG/1.1/DTD/svg11.dtd">
<svg version="1.1" xmlns="http://www.w3.org/2000/svg" xmlns:xlink="http://www.w3.org/1999/xlink" width="24.9023" height="24.9146">
 <g>
  <rect height="24.9146" opacity="0" width="24.9023" x="0" y="0"/>
  <path d="M12.4512 24.9023C19.2627 24.9023 24.9023 19.2505 24.9023 12.4512C24.9023 5.63965 19.2505 0 12.439 0C5.63965 0 0 5.63965 0 12.4512C0 19.2505 5.65186 24.9023 12.4512 24.9023ZM7.71484 15.7593C7.05566 15.7593 6.604 15.4419 6.604 14.8071C6.604 14.1602 7.03125 13.8184 7.71484 13.8184L17.1753 13.8184C17.8467 13.8184 18.2739 14.1602 18.2739 14.8071C18.2739 15.4419 17.8223 15.7593 17.1753 15.7593ZM7.71484 11.1084C7.05566 11.1084 6.604 10.791 6.604 10.144C6.604 9.49707 7.03125 9.16748 7.71484 9.16748L17.1753 9.16748C17.8467 9.16748 18.2739 9.49707 18.2739 10.144C18.2739 10.791 17.8223 11.1084 17.1753 11.1084Z" fill="#5ac8f5"/>
 </g>
</svg>
