<?xml version="1.0" encoding="UTF-8"?>
<!--Generator: Apple Native CoreSVG 175.5-->
<!DOCTYPE svg
PUBLIC "-//W3C//DTD SVG 1.1//EN"
       "http://www.w3.org/Graphics/SVG/1.1/DTD/svg11.dtd">
<svg version="1.1" xmlns="http://www.w3.org/2000/svg" xmlns:xlink="http://www.w3.org/1999/xlink" width="22.4731" height="22.4976">
 <g>
  <rect height="22.4976" opacity="0" width="22.4731" x="0" y="0"/>
  <path d="M3.83301 22.4976L18.6401 22.4976C21.2036 22.4976 22.4731 21.228 22.4731 18.7134L22.4731 3.80859C22.4731 1.29395 21.2036 0.0244141 18.6401 0.0244141L3.83301 0.0244141C1.28174 0.0244141 0 1.28174 0 3.80859L0 18.7134C0 21.2402 1.28174 22.4976 3.83301 22.4976ZM7.14111 16.3696C6.57959 16.3696 6.14014 15.918 6.14014 15.3564C6.14014 15.0879 6.23779 14.8315 6.43311 14.6484L9.81445 11.2549L6.43311 7.87354C6.23779 7.67822 6.14014 7.43408 6.14014 7.16553C6.14014 6.5918 6.57959 6.16455 7.14111 6.16455C7.42188 6.16455 7.6416 6.26221 7.83691 6.44531L11.2427 9.83887L14.6729 6.43311C14.8804 6.22559 15.1123 6.14014 15.3687 6.14014C15.9302 6.14014 16.3818 6.57959 16.3818 7.14111C16.3818 7.42188 16.2964 7.6416 16.0889 7.86133L12.6831 11.2549L16.0767 14.6362C16.272 14.8193 16.3696 15.0757 16.3696 15.3564C16.3696 15.918 15.918 16.3696 15.3442 16.3696C15.0757 16.3696 14.8071 16.272 14.624 16.0767L11.2427 12.6831L7.87354 16.0767C7.67822 16.272 7.42188 16.3696 7.14111 16.3696Z" fill="#5ac8f5"/>
 </g>
</svg>
