<?xml version="1.0" encoding="UTF-8"?>
<!--Generator: Apple Native CoreSVG 175.5-->
<!DOCTYPE svg
PUBLIC "-//W3C//DTD SVG 1.1//EN"
       "http://www.w3.org/Graphics/SVG/1.1/DTD/svg11.dtd">
<svg version="1.1" xmlns="http://www.w3.org/2000/svg" xmlns:xlink="http://www.w3.org/1999/xlink" width="24.9023" height="24.9146">
 <g>
  <rect height="24.9146" opacity="0" width="24.9023" x="0" y="0"/>
  <path d="M12.4512 24.9023C19.2627 24.9023 24.9023 19.2505 24.9023 12.4512C24.9023 5.63965 19.2505 0 12.439 0C5.63965 0 0 5.63965 0 12.4512C0 19.2505 5.65186 24.9023 12.4512 24.9023ZM12.4512 22.8271C6.68945 22.8271 2.0874 18.2129 2.0874 12.4512C2.0874 6.68945 6.67725 2.0752 12.439 2.0752C18.2007 2.0752 22.8271 6.68945 22.8271 12.4512C22.8271 18.2129 18.2129 22.8271 12.4512 22.8271ZM8.36182 17.7124C10.4614 17.7124 11.853 15.6982 11.853 12.4512C11.853 9.2041 10.4614 7.18994 8.36182 7.18994C6.26221 7.18994 4.87061 9.2041 4.87061 12.4512C4.87061 15.6982 6.26221 17.7124 8.36182 17.7124ZM8.36182 16.2354C7.20215 16.2354 6.46973 14.7949 6.46973 12.4512C6.46973 10.1074 7.20215 8.66699 8.36182 8.66699C9.52148 8.66699 10.2539 10.1074 10.2539 12.4512C10.2539 14.7949 9.53369 16.2354 8.36182 16.2354ZM16.6626 17.7124C18.7866 17.7124 20.2393 16.4917 20.2393 14.7217C20.2393 13.4766 19.4824 12.4634 18.1641 12.1948L18.1641 12.1216C19.2871 11.8164 19.8853 10.9375 19.8853 9.87549C19.8853 8.28857 18.5669 7.18994 16.687 7.18994C14.8193 7.18994 13.501 8.28857 13.501 9.87549C13.501 10.9375 14.0869 11.792 15.2222 12.1216L15.2222 12.1948C13.8916 12.4634 13.147 13.4888 13.147 14.7339C13.147 16.5161 14.5508 17.7124 16.6626 17.7124ZM16.6992 16.4429C15.5396 16.4429 14.6973 15.6982 14.6973 14.624C14.6973 13.5742 15.5396 12.8052 16.6992 12.8052C17.8833 12.8052 18.7012 13.562 18.7012 14.624C18.7012 15.6982 17.8589 16.4429 16.6992 16.4429ZM16.687 11.6333C15.7349 11.6333 15.0635 10.9497 15.0635 10.022C15.0635 9.09424 15.7349 8.45947 16.687 8.45947C17.6514 8.45947 18.3228 9.09424 18.3228 10.022C18.3228 10.9497 17.6514 11.6333 16.687 11.6333Z" fill="#5ac8f5"/>
 </g>
</svg>
