<?xml version="1.0" encoding="UTF-8"?>
<!--Generator: Apple Native CoreSVG 175.5-->
<!DOCTYPE svg
PUBLIC "-//W3C//DTD SVG 1.1//EN"
       "http://www.w3.org/Graphics/SVG/1.1/DTD/svg11.dtd">
<svg version="1.1" xmlns="http://www.w3.org/2000/svg" xmlns:xlink="http://www.w3.org/1999/xlink" width="29.4556" height="23.9868">
 <g>
  <rect height="23.9868" opacity="0" width="29.4556" x="0" y="0"/>
  <path d="M3.6377 23.9868L25.8179 23.9868C28.2349 23.9868 29.4556 22.7539 29.4556 20.3857L29.4556 3.61328C29.4556 1.24512 28.2349 0.012207 25.8179 0.012207L3.6377 0.012207C1.23291 0.012207 0 1.24512 0 3.61328L0 20.3857C0 22.7539 1.23291 23.9868 3.6377 23.9868ZM7.50732 11.0474C5.43213 11.0474 3.73535 9.33838 3.73535 7.26318C3.73535 5.18799 5.43213 3.479 7.50732 3.479C9.59473 3.479 11.2915 5.18799 11.2915 7.26318C11.2915 9.33838 9.59473 11.0474 7.50732 11.0474ZM17.2729 11.0474C15.1855 11.0474 13.4888 9.33838 13.4888 7.26318C13.4888 5.18799 15.1855 3.479 17.2729 3.479C19.3604 3.479 21.0449 5.18799 21.0449 7.26318C21.0449 9.33838 19.3604 11.0474 17.2729 11.0474ZM7.50732 20.4834C5.43213 20.4834 3.73535 18.7866 3.73535 16.6992C3.73535 14.624 5.43213 12.9272 7.50732 12.9272C9.59473 12.9272 11.2915 14.624 11.2915 16.6992C11.2915 18.7866 9.59473 20.4834 7.50732 20.4834ZM17.2729 20.4834C15.1855 20.4834 13.4888 18.7866 13.4888 16.6992C13.4888 14.624 15.1855 12.9272 17.2729 12.9272C19.3604 12.9272 21.0449 14.624 21.0449 16.6992C21.0449 18.7866 19.3604 20.4834 17.2729 20.4834ZM25.0366 7.66602C24.4141 7.66602 23.9258 7.17773 23.9258 6.55518C23.9258 5.95703 24.4141 5.45654 25.0366 5.45654C25.647 5.45654 26.1353 5.95703 26.1353 6.55518C26.1353 7.17773 25.647 7.66602 25.0366 7.66602ZM25.0366 11.2793C24.4141 11.2793 23.9258 10.8032 23.9258 10.1685C23.9258 9.57031 24.4141 9.06982 25.0366 9.06982C25.647 9.06982 26.1353 9.57031 26.1353 10.1685C26.1353 10.8032 25.647 11.2793 25.0366 11.2793ZM25.0366 14.917C24.4141 14.917 23.9258 14.4165 23.9258 13.8062C23.9258 13.1836 24.4141 12.7075 25.0366 12.7075C25.647 12.7075 26.1353 13.1836 26.1353 13.8062C26.1353 14.4165 25.647 14.917 25.0366 14.917ZM25.0366 18.5303C24.4141 18.5303 23.9258 18.0298 23.9258 17.4194C23.9258 16.8091 24.4141 16.3208 25.0366 16.3208C25.647 16.3208 26.1353 16.8091 26.1353 17.4194C26.1353 18.0298 25.647 18.5303 25.0366 18.5303ZM7.50732 9.83887C8.93555 9.83887 10.0952 8.69141 10.0952 7.26318C10.0952 5.83496 8.93555 4.6875 7.50732 4.6875C6.09131 4.6875 4.94385 5.83496 4.94385 7.26318C4.94385 8.69141 6.09131 9.83887 7.50732 9.83887ZM7.50732 9.25293C6.40869 9.25293 5.54199 8.38623 5.54199 7.26318C5.54199 6.14014 6.40869 5.28564 7.50732 5.28564C8.63037 5.28564 9.48486 6.14014 9.48486 7.26318C9.48486 8.38623 8.63037 9.25293 7.50732 9.25293ZM17.2729 9.83887C18.7012 9.83887 19.8486 8.69141 19.8486 7.26318C19.8486 5.83496 18.7012 4.6875 17.2729 4.6875C15.8569 4.6875 14.6973 5.83496 14.6973 7.26318C14.6973 8.69141 15.8569 9.83887 17.2729 9.83887ZM17.2729 9.25293C16.1499 9.25293 15.2832 8.38623 15.2832 7.26318C15.2832 6.14014 16.1499 5.28564 17.2729 5.28564C18.3838 5.28564 19.2505 6.14014 19.2505 7.26318C19.2505 8.38623 18.3838 9.25293 17.2729 9.25293ZM7.50732 19.2749C8.93555 19.2749 10.0952 18.1396 10.0952 16.6992C10.0952 15.271 8.93555 14.1357 7.50732 14.1357C6.09131 14.1357 4.94385 15.271 4.94385 16.6992C4.94385 18.1396 6.09131 19.2749 7.50732 19.2749ZM7.50732 18.689C6.40869 18.689 5.54199 17.8223 5.54199 16.6992C5.54199 15.5884 6.40869 14.7217 7.50732 14.7217C8.63037 14.7217 9.48486 15.5884 9.48486 16.6992C9.48486 17.8223 8.63037 18.689 7.50732 18.689ZM17.2729 19.2749C18.7012 19.2749 19.8486 18.1396 19.8486 16.6992C19.8486 15.271 18.7012 14.1357 17.2729 14.1357C15.8569 14.1357 14.6973 15.271 14.6973 16.6992C14.6973 18.1396 15.8569 19.2749 17.2729 19.2749ZM17.2729 18.689C16.1499 18.689 15.2832 17.8223 15.2832 16.6992C15.2832 15.5884 16.1499 14.7217 17.2729 14.7217C18.3838 14.7217 19.2505 15.5884 19.2505 16.6992C19.2505 17.8223 18.3838 18.689 17.2729 18.689Z" fill="#5ac8f5"/>
 </g>
</svg>
