<?xml version="1.0" encoding="UTF-8"?>
<!--Generator: Apple Native CoreSVG 175.5-->
<!DOCTYPE svg
PUBLIC "-//W3C//DTD SVG 1.1//EN"
       "http://www.w3.org/Graphics/SVG/1.1/DTD/svg11.dtd">
<svg version="1.1" xmlns="http://www.w3.org/2000/svg" xmlns:xlink="http://www.w3.org/1999/xlink" width="26.0999" height="28.2593">
 <g>
  <rect height="28.2593" opacity="0" width="26.0999" x="0" y="0"/>
  <path d="M12.2205 5.32227C13.6854 5.32227 14.8695 4.13818 14.8695 2.64893C14.8695 1.18408 13.6854 0 12.2205 0C10.7313 0 9.54719 1.18408 9.54719 2.64893C9.54719 4.13818 10.7313 5.32227 12.2205 5.32227ZM0.977858 27.7222C1.44173 28.1738 2.21077 28.2593 2.74788 27.7222L8.09456 22.3877C8.42415 22.0703 8.48518 21.814 8.44856 21.3379L8.14339 17.8955C8.11897 17.6758 8.32649 17.5781 8.47298 17.7124L12.306 21.0083L14.2957 27.1973C14.5277 27.9175 15.2601 28.1982 15.8826 28.0151C16.5907 27.8076 16.9202 27.0996 16.7005 26.4282L14.6375 19.9097C14.5765 19.7266 14.4666 19.519 14.3201 19.3848L10.1942 15.3076L12.8431 10.0098C12.953 9.79004 13.2215 9.74121 13.4046 9.92432L16.3709 12.915C16.5052 13.0493 16.7005 13.1592 16.8958 13.2202L22.8407 15.0024C23.3289 15.1489 24.1468 14.9536 24.4032 14.1357C24.5985 13.4766 24.22 12.7563 23.5487 12.561L17.9212 10.9009L14.7108 7.65381C13.9783 6.92139 13.1361 6.604 12.1351 6.604L3.63899 6.604C3.15071 6.604 2.72346 6.87256 2.51594 7.2998L0.135573 12.0361C-0.169603 12.6465 0.0501235 13.4155 0.697096 13.7207C1.34407 14.0259 2.07649 13.7939 2.39387 13.147L4.40803 9.13086L6.92268 9.13086C7.20344 9.13086 7.37434 9.39941 7.24006 9.66797L5.3968 13.3667C4.73762 14.6729 4.55452 16.1987 4.92073 17.6392L5.79964 21.0938L0.953444 25.9155C0.465163 26.3916 0.47737 27.2217 0.977858 27.7222ZM23.1947 22.168C24.806 22.168 26.0999 20.8618 26.0999 19.2627C26.0999 17.6636 24.806 16.3696 23.1947 16.3696C21.5955 16.3696 20.3016 17.6636 20.3016 19.2627C20.3016 20.8618 21.5955 22.168 23.1947 22.168Z" fill="#5ac8f5"/>
 </g>
</svg>
