<?xml version="1.0" encoding="UTF-8"?>
<!--Generator: Apple Native CoreSVG 175.5-->
<!DOCTYPE svg
PUBLIC "-//W3C//DTD SVG 1.1//EN"
       "http://www.w3.org/Graphics/SVG/1.1/DTD/svg11.dtd">
<svg version="1.1" xmlns="http://www.w3.org/2000/svg" xmlns:xlink="http://www.w3.org/1999/xlink" width="23.4432" height="23.3398">
 <g>
  <rect height="23.3398" opacity="0" width="23.4432" x="0" y="0"/>
  <path d="M1.67652 12.5183L10.5754 12.5549C10.7219 12.5549 10.7585 12.5916 10.7585 12.738L10.783 21.5637C10.7952 23.4924 13.0901 23.8342 13.908 22.0642L16.325 16.8762L14.8845 15.4358L12.7117 20.1233C12.6995 20.1721 12.6506 20.1599 12.6506 20.1111L12.6995 13.2385L10.0261 10.5774L3.16577 10.614C3.11695 10.614 3.10474 10.5652 3.16577 10.5408L7.84107 8.40454L6.41285 6.96411L1.04175 9.46655C-0.642819 10.2478-0.178952 12.5061 1.67652 12.5183ZM18.4612 12.262L22.929 2.66724C23.759 0.860596 22.343-0.421143 20.5486 0.421143L11.0027 4.85229L12.4675 6.29272L20.7073 2.50854C20.7927 2.47192 20.8293 2.49634 20.7927 2.59399L16.9963 10.8093ZM21.8425 20.4041C22.2087 20.7703 22.8191 20.7703 23.1731 20.4041C23.5271 20.0378 23.5393 19.4397 23.1731 19.0735L4.37427 0.274658C4.00806-0.0915527 3.39771-0.0915527 3.0315 0.274658C2.67749 0.628662 2.67749 1.25122 3.0315 1.60522Z" fill="#5ac8f5"/>
 </g>
</svg>
