<?xml version="1.0" encoding="UTF-8"?>
<!--Generator: Apple Native CoreSVG 175.5-->
<!DOCTYPE svg
PUBLIC "-//W3C//DTD SVG 1.1//EN"
       "http://www.w3.org/Graphics/SVG/1.1/DTD/svg11.dtd">
<svg version="1.1" xmlns="http://www.w3.org/2000/svg" xmlns:xlink="http://www.w3.org/1999/xlink" width="22.6318" height="22.4976">
 <g>
  <rect height="22.4976" opacity="0" width="22.6318" x="0" y="0"/>
  <path d="M0 18.7134C0 21.2402 1.28174 22.4976 3.83301 22.4976L4.60205 22.4976L4.60205 20.1416C4.60205 19.7021 4.94385 19.3604 5.39551 19.3604C5.84717 19.3604 6.18896 19.7021 6.18896 20.1416L6.18896 22.4976L8.55713 22.4976L8.55713 20.1416C8.55713 19.7021 8.89893 19.3604 9.35059 19.3604C9.80225 19.3604 10.144 19.7021 10.144 20.1416L10.144 22.4976L12.5122 22.4976L12.5122 20.1416C12.5122 19.7021 12.854 19.3604 13.3057 19.3604C13.7573 19.3604 14.0991 19.7021 14.0991 20.1416L14.0991 22.4976L16.4673 22.4976L16.4673 20.1416C16.4673 19.7021 16.8091 19.3604 17.2607 19.3604C17.7124 19.3604 18.0542 19.7021 18.0542 20.1416L18.0542 22.4976L18.7988 22.4976C21.3501 22.4976 22.6318 21.228 22.6318 18.7134L22.6318 3.80859C22.6318 1.29395 21.3501 0.0244141 18.7988 0.0244141L18.0542 0.0244141L18.0542 2.38037C18.0542 2.81982 17.7124 3.16162 17.2607 3.16162C16.8091 3.16162 16.4673 2.81982 16.4673 2.38037L16.4673 0.0244141L14.0991 0.0244141L14.0991 2.38037C14.0991 2.81982 13.7573 3.16162 13.3057 3.16162C12.854 3.16162 12.5122 2.81982 12.5122 2.38037L12.5122 0.0244141L10.144 0.0244141L10.144 2.38037C10.144 2.81982 9.80225 3.16162 9.35059 3.16162C8.89893 3.16162 8.55713 2.81982 8.55713 2.38037L8.55713 0.0244141L6.18896 0.0244141L6.18896 2.38037C6.18896 2.81982 5.84717 3.16162 5.39551 3.16162C4.94385 3.16162 4.60205 2.81982 4.60205 2.38037L4.60205 0.0244141L3.83301 0.0244141C1.28174 0.0244141 0 1.28174 0 3.80859ZM4.91943 15.0635L4.91943 7.4585C4.91943 6.7749 5.39551 6.32324 6.0791 6.32324L16.5527 6.32324C17.2485 6.32324 17.7002 6.7749 17.7002 7.4585L17.7002 15.0635C17.7002 15.7471 17.2485 16.1987 16.5527 16.1987L6.0791 16.1987C5.39551 16.1987 4.91943 15.7471 4.91943 15.0635Z" fill="#5ac8f5"/>
 </g>
</svg>
