<?xml version="1.0" encoding="UTF-8"?>
<!--Generator: Apple Native CoreSVG 175.5-->
<!DOCTYPE svg
PUBLIC "-//W3C//DTD SVG 1.1//EN"
       "http://www.w3.org/Graphics/SVG/1.1/DTD/svg11.dtd">
<svg version="1.1" xmlns="http://www.w3.org/2000/svg" xmlns:xlink="http://www.w3.org/1999/xlink" width="30.3711" height="24.7437">
 <g>
  <rect height="24.7437" opacity="0" width="30.3711" x="0" y="0"/>
  <path d="M9.86328 24.7314L26.5381 24.7314C29.0771 24.7314 30.3711 23.4619 30.3711 20.9473L30.3711 9.43604C30.3711 6.92139 29.0771 5.65186 26.5381 5.65186L9.86328 5.65186C7.2998 5.65186 6.03027 6.92139 6.03027 9.43604L6.03027 20.9473C6.03027 23.4741 7.2998 24.7314 9.86328 24.7314ZM9.86328 3.9917L24.2065 3.9917L24.2065 3.78418C24.2065 1.26953 22.9126 0 20.3735 0L3.83301 0C1.26953 0 0 1.26953 0 3.78418L0 15.2954C0 17.8223 1.26953 19.0796 3.83301 19.0796L4.35791 19.0796L4.35791 9.43604C4.35791 5.99365 6.38428 3.9917 9.86328 3.9917ZM13.6597 20.1782L13.6597 15.1733C13.6597 14.2822 14.0259 13.8428 14.7583 13.7939L14.7583 12.3169C14.7583 9.99756 16.1621 8.43506 18.2007 8.43506C20.2515 8.43506 21.6431 9.99756 21.6431 12.3169L21.6431 13.7939C22.3877 13.8428 22.7539 14.2822 22.7539 15.1733L22.7539 20.1782C22.7539 21.1182 22.3389 21.5576 21.46 21.5576L14.9414 21.5576C14.0747 21.5576 13.6597 21.1182 13.6597 20.1782ZM16.0767 13.7817L20.3247 13.7817L20.3247 12.1704C20.3247 10.6934 19.4824 9.70459 18.2007 9.70459C16.9312 9.70459 16.0767 10.6934 16.0767 12.1704Z" fill="#5ac8f5"/>
 </g>
</svg>
