<?xml version="1.0" encoding="UTF-8"?>
<!--Generator: Apple Native CoreSVG 175.5-->
<!DOCTYPE svg
PUBLIC "-//W3C//DTD SVG 1.1//EN"
       "http://www.w3.org/Graphics/SVG/1.1/DTD/svg11.dtd">
<svg version="1.1" xmlns="http://www.w3.org/2000/svg" xmlns:xlink="http://www.w3.org/1999/xlink" width="24.9023" height="24.9146">
 <g>
  <rect height="24.9146" opacity="0" width="24.9023" x="0" y="0"/>
  <path d="M12.4512 24.9023C19.2627 24.9023 24.9023 19.2505 24.9023 12.4512C24.9023 5.63965 19.2505 0 12.439 0C5.63965 0 0 5.63965 0 12.4512C0 19.2505 5.65186 24.9023 12.4512 24.9023Z" fill="#5ac8f5" fill-opacity="0.25"/>
  <path d="M12.6343 19.9829C12.2803 19.9829 12.0117 19.7266 12.0117 19.3481L12.0117 18.4937C9.31396 18.1763 7.60498 15.9302 7.60498 12.4634C7.60498 9.06982 9.33838 6.81152 12.0117 6.48193L12.0117 5.63965C12.0117 5.26123 12.2681 5.01709 12.6343 5.01709C12.9883 5.01709 13.2568 5.26123 13.2568 5.63965L13.2568 6.45752C15.0391 6.64062 16.4551 7.70264 17.0044 9.2041C17.0654 9.41162 17.1143 9.60693 17.1143 9.82666C17.1143 10.2783 16.8091 10.5957 16.3452 10.5957C15.8936 10.5957 15.686 10.4248 15.5151 9.92432C15.2466 8.93555 14.3677 8.19092 13.2568 8.00781L13.2568 12.1094L16.4551 12.1094C16.9678 12.1094 17.2974 12.4268 17.2974 12.9639L17.2974 13.5986C17.2974 16.4551 15.8691 18.2983 13.2568 18.5059L13.2568 19.3481C13.2568 19.7266 12.9883 19.9829 12.6343 19.9829ZM12.0117 16.9312L12.0117 8.03223C10.3394 8.38623 9.30176 10.0464 9.30176 12.4634C9.30176 14.917 10.3394 16.5771 12.0117 16.9312ZM13.2568 16.98C14.7705 16.748 15.6616 15.5762 15.6616 13.8794L15.6616 13.5986L13.2568 13.5986Z" fill="#5ac8f5"/>
 </g>
</svg>
