<?xml version="1.0" encoding="UTF-8"?>
<!--Generator: Apple Native CoreSVG 175.5-->
<!DOCTYPE svg
PUBLIC "-//W3C//DTD SVG 1.1//EN"
       "http://www.w3.org/Graphics/SVG/1.1/DTD/svg11.dtd">
<svg version="1.1" xmlns="http://www.w3.org/2000/svg" xmlns:xlink="http://www.w3.org/1999/xlink" width="24.9023" height="24.9146">
 <g>
  <rect height="24.9146" opacity="0" width="24.9023" x="0" y="0"/>
  <path d="M12.4512 24.9023C19.2627 24.9023 24.9023 19.2505 24.9023 12.4512C24.9023 5.63965 19.2505 0 12.439 0C5.63965 0 0 5.63965 0 12.4512C0 19.2505 5.65186 24.9023 12.4512 24.9023ZM12.4512 22.8271C6.68945 22.8271 2.0874 18.2129 2.0874 12.4512C2.0874 6.68945 6.67725 2.0752 12.439 2.0752C18.2007 2.0752 22.8271 6.68945 22.8271 12.4512C22.8271 18.2129 18.2129 22.8271 12.4512 22.8271Z" fill="#5ac8f5" fill-opacity="0.5"/>
  <path d="M12.439 18.4814C12.9028 18.4814 13.2324 18.1641 13.2324 17.6636L13.2324 14.9292L15.3076 14.0015C15.5884 13.8672 15.7227 13.6841 15.7227 13.4155C15.7227 13.0737 15.4785 12.8296 15.1367 12.8296C15.0269 12.8296 14.917 12.8662 14.8193 12.9028L13.2324 13.6353L13.2324 12.4756L15.3076 11.5356C15.5884 11.4136 15.7227 11.2305 15.7227 10.9619C15.7227 10.6201 15.4907 10.3638 15.1367 10.3638C15.0391 10.3638 14.9292 10.4004 14.8315 10.437L13.2324 11.1816L13.2324 8.3252L16.1377 8.3252C16.5894 8.3252 16.9067 8.02002 16.9067 7.58057C16.9067 7.14111 16.5894 6.84814 16.1377 6.84814L8.72803 6.84814C8.27637 6.84814 7.95898 7.14111 7.95898 7.58057C7.95898 8.02002 8.27637 8.3252 8.72803 8.3252L11.6333 8.3252L11.6333 11.8408L9.58252 12.7563C9.28955 12.9028 9.16748 13.0737 9.16748 13.3301C9.16748 13.6719 9.39941 13.9282 9.75342 13.9282C9.85107 13.9282 9.96094 13.8916 10.0586 13.855L11.6333 13.1226L11.6333 14.2944L9.58252 15.2222C9.28955 15.3564 9.16748 15.5273 9.16748 15.7959C9.16748 16.1377 9.39941 16.3818 9.75342 16.3818C9.85107 16.3818 9.96094 16.3574 10.0586 16.3086L11.6333 15.5884L11.6333 17.6636C11.6333 18.1641 11.9629 18.4814 12.439 18.4814Z" fill="#5ac8f5"/>
 </g>
</svg>
