<?xml version="1.0" encoding="UTF-8"?>
<!--Generator: Apple Native CoreSVG 175.5-->
<!DOCTYPE svg
PUBLIC "-//W3C//DTD SVG 1.1//EN"
       "http://www.w3.org/Graphics/SVG/1.1/DTD/svg11.dtd">
<svg version="1.1" xmlns="http://www.w3.org/2000/svg" xmlns:xlink="http://www.w3.org/1999/xlink" width="24.9023" height="24.9146">
 <g>
  <rect height="24.9146" opacity="0" width="24.9023" x="0" y="0"/>
  <path d="M12.4512 24.9023C19.2627 24.9023 24.9023 19.2505 24.9023 12.4512C24.9023 5.63965 19.2505 0 12.439 0C5.63965 0 0 5.63965 0 12.4512C0 19.2505 5.65186 24.9023 12.4512 24.9023ZM12.4512 22.8271C6.68945 22.8271 2.0874 18.2129 2.0874 12.4512C2.0874 6.68945 6.67725 2.0752 12.439 2.0752C18.2007 2.0752 22.8271 6.68945 22.8271 12.4512C22.8271 18.2129 18.2129 22.8271 12.4512 22.8271ZM7.97119 10.5225C7.97119 10.8643 8.22754 11.1328 8.56934 11.1328L9.31396 11.1328L9.31396 17.7612C9.31396 18.2373 9.66797 18.5669 10.1196 18.5669C10.5835 18.5669 10.9131 18.2373 10.9131 17.7612L10.9131 14.3188L13.0493 14.3188C15.0879 14.3188 16.5649 13.0371 16.7969 11.1328L17.3584 11.1328C17.7002 11.1328 17.9565 10.8643 17.9565 10.5225C17.9565 10.1685 17.7002 9.92432 17.3584 9.92432L16.7725 9.92432C16.4795 8.09326 15.0513 6.89697 13.0493 6.89697L10.0952 6.89697C9.61914 6.89697 9.31396 7.21436 9.31396 7.70264L9.31396 9.92432L8.56934 9.92432C8.22754 9.92432 7.97119 10.1685 7.97119 10.5225ZM10.9253 12.8784L10.9253 11.1328L15.1733 11.1328C14.978 12.2314 14.1235 12.8784 12.7808 12.8784ZM10.9253 9.92432L10.9253 8.3374L12.7808 8.3374C14.0625 8.3374 14.8926 8.91113 15.1367 9.92432Z" fill="#5ac8f5"/>
 </g>
</svg>
