<?xml version="1.0" encoding="UTF-8"?>
<!--Generator: Apple Native CoreSVG 175.5-->
<!DOCTYPE svg
PUBLIC "-//W3C//DTD SVG 1.1//EN"
       "http://www.w3.org/Graphics/SVG/1.1/DTD/svg11.dtd">
<svg version="1.1" xmlns="http://www.w3.org/2000/svg" xmlns:xlink="http://www.w3.org/1999/xlink" width="24.9023" height="24.9146">
 <g>
  <rect height="24.9146" opacity="0" width="24.9023" x="0" y="0"/>
  <path d="M12.4512 24.9023C19.2627 24.9023 24.9023 19.2505 24.9023 12.4512C24.9023 5.63965 19.2505 0 12.439 0C5.63965 0 0 5.63965 0 12.4512C0 19.2505 5.65186 24.9023 12.4512 24.9023ZM12.4512 22.8271C6.68945 22.8271 2.0874 18.2129 2.0874 12.4512C2.0874 6.68945 6.67725 2.0752 12.439 2.0752C18.2007 2.0752 22.8271 6.68945 22.8271 12.4512C22.8271 18.2129 18.2129 22.8271 12.4512 22.8271Z" fill="#5ac8f5" fill-opacity="0.5"/>
  <path d="M13.5864 6.17676C10.6445 6.17676 8.87451 8.28857 8.87451 11.145L8.87451 14.7827L8.91113 16.2354L8.1543 15.271L6.93359 14.0015C6.7749 13.8428 6.55518 13.7329 6.29883 13.7329C5.79834 13.7329 5.40771 14.1113 5.40771 14.5996C5.40771 14.856 5.49316 15.0635 5.67627 15.2344L8.97217 18.4692C9.17969 18.6768 9.43604 18.7988 9.7168 18.7988C10.0098 18.7988 10.2539 18.6768 10.4614 18.4692L13.7817 15.2222C13.9526 15.0513 14.0381 14.8438 14.0381 14.5874C14.0381 14.1113 13.6597 13.7329 13.147 13.7329C12.915 13.7329 12.6831 13.8184 12.5244 13.9893L11.0474 15.5273L10.5225 16.2354L10.5835 14.7827L10.5835 11.145C10.5835 9.35059 11.6089 7.97119 13.4888 7.97119C15.4175 7.97119 16.6016 9.31396 16.6016 11.1572C16.6016 11.3037 16.6016 12.8052 16.6016 12.854C16.6016 13.3667 16.9067 13.7695 17.4683 13.7695C18.042 13.7695 18.3472 13.3667 18.3472 12.8296C18.3472 12.7686 18.3472 11.3037 18.3472 11.1572C18.3472 8.30078 16.5161 6.17676 13.5864 6.17676Z" fill="#5ac8f5"/>
 </g>
</svg>
