<?xml version="1.0" encoding="UTF-8"?>
<!--Generator: Apple Native CoreSVG 175.5-->
<!DOCTYPE svg
PUBLIC "-//W3C//DTD SVG 1.1//EN"
       "http://www.w3.org/Graphics/SVG/1.1/DTD/svg11.dtd">
<svg version="1.1" xmlns="http://www.w3.org/2000/svg" xmlns:xlink="http://www.w3.org/1999/xlink" width="23.6084" height="23.2056">
 <g>
  <rect height="23.2056" opacity="0" width="23.6084" x="0" y="0"/>
  <path d="M7.2998 23.1323C7.86133 23.1323 8.21533 22.7661 8.21533 22.168L8.21533 0.976562C8.21533 0.378418 7.86133 0 7.2998 0C6.71387 0 6.37207 0.378418 6.37207 0.976562L6.37207 22.168C6.37207 22.7661 6.71387 23.1323 7.2998 23.1323ZM16.2476 23.1323C16.8091 23.1323 17.1631 22.7661 17.1631 22.168L17.1631 0.976562C17.1631 0.378418 16.8091 0 16.2476 0C15.6616 0 15.3198 0.378418 15.3198 0.976562L15.3198 22.168C15.3198 22.7661 15.6616 23.1323 16.2476 23.1323ZM0.976562 16.8701L22.6318 16.8701C23.2422 16.8701 23.6084 16.5161 23.6084 15.9424C23.6084 15.3687 23.2422 15.0269 22.6318 15.0269L0.976562 15.0269C0.366211 15.0269 0 15.3687 0 15.9424C0 16.5161 0.366211 16.8701 0.976562 16.8701ZM0.976562 8.1543L22.6318 8.1543C23.2422 8.1543 23.6084 7.80029 23.6084 7.23877C23.6084 6.66504 23.2422 6.31104 22.6318 6.31104L0.976562 6.31104C0.366211 6.31104 0 6.66504 0 7.23877C0 7.80029 0.366211 8.1543 0.976562 8.1543Z" fill="#5ac8f5"/>
 </g>
</svg>
