<?xml version="1.0" encoding="UTF-8"?>
<!--Generator: Apple Native CoreSVG 175.5-->
<!DOCTYPE svg
PUBLIC "-//W3C//DTD SVG 1.1//EN"
       "http://www.w3.org/Graphics/SVG/1.1/DTD/svg11.dtd">
<svg version="1.1" xmlns="http://www.w3.org/2000/svg" xmlns:xlink="http://www.w3.org/1999/xlink" width="27.7588" height="33.1909">
 <g>
  <rect height="33.1909" opacity="0" width="27.7588" x="0" y="0"/>
  <path d="M3.83301 27.5391L17.8345 27.5391C20.3857 27.5391 21.6675 26.2695 21.6675 23.7549L21.6675 11.8286C21.6675 9.31396 20.3857 8.04443 17.8345 8.04443L12.0483 8.04443L12.0483 17.0654C12.0483 17.7124 11.4868 18.2617 10.8276 18.2617C10.1685 18.2617 9.61914 17.7124 9.61914 17.0654L9.61914 8.04443L3.83301 8.04443C1.28174 8.04443 0 9.30176 0 11.8286L0 23.7549C0 26.2817 1.28174 27.5391 3.83301 27.5391ZM10.9619 33.1909L23.9258 33.1909C26.4893 33.1909 27.7588 31.9336 27.7588 29.4067L27.7588 17.2363C27.7588 14.7095 26.4893 13.4521 23.9258 13.4521L23.3276 13.4521L23.3276 23.938C23.3276 27.4048 21.5088 29.2114 18.0176 29.2114L7.12891 29.2114L7.12891 29.3335C7.12891 31.8848 8.3374 33.1909 10.9619 33.1909ZM10.8398 8.99658C11.3647 8.99658 11.8042 8.56934 11.8042 8.05664L11.8042 4.49219L11.731 2.67334L12.5488 3.54004L14.4043 5.50537C14.5752 5.70068 14.8315 5.79834 15.0635 5.79834C15.564 5.79834 15.9546 5.44434 15.9546 4.94385C15.9546 4.67529 15.8447 4.47998 15.6616 4.29688L11.5356 0.317383C11.2915 0.0732422 11.084 0 10.8398 0C10.5835 0 10.376 0.0732422 10.1318 0.317383L6.00586 4.29688C5.82275 4.47998 5.71289 4.67529 5.71289 4.94385C5.71289 5.44434 6.0791 5.79834 6.5918 5.79834C6.82373 5.79834 7.09229 5.70068 7.26318 5.50537L9.11865 3.54004L9.93652 2.67334L9.86328 4.49219L9.86328 8.05664C9.86328 8.56934 10.3149 8.99658 10.8398 8.99658Z" fill="#5ac8f5"/>
 </g>
</svg>
