<?xml version="1.0" encoding="UTF-8"?>
<!--Generator: Apple Native CoreSVG 175.5-->
<!DOCTYPE svg
PUBLIC "-//W3C//DTD SVG 1.1//EN"
       "http://www.w3.org/Graphics/SVG/1.1/DTD/svg11.dtd">
<svg version="1.1" xmlns="http://www.w3.org/2000/svg" xmlns:xlink="http://www.w3.org/1999/xlink" width="33.2031" height="22.1069">
 <g>
  <rect height="22.1069" opacity="0" width="33.2031" x="0" y="0"/>
  <path d="M9.49707 22.1069L10.7666 22.1069C11.7676 22.1069 12.3535 21.5332 12.3535 20.5444L12.3535 14.1724C12.3535 12.7075 12.7197 11.9629 13.916 10.9131C15.1978 9.79004 16.0156 8.21533 16.0156 6.39648C16.0156 3.14941 13.3911 0.524902 10.1318 0.524902C6.87256 0.524902 4.24805 3.14941 4.24805 6.39648C4.24805 8.21533 5.06592 9.79004 6.33545 10.9131C7.54395 11.9629 7.91016 12.7075 7.91016 14.1724L7.91016 20.5444C7.91016 21.5332 8.49609 22.1069 9.49707 22.1069ZM11.4502 7.86133C11.1084 7.86133 10.8276 7.58057 10.8276 7.22656L10.8276 4.90723C10.8276 4.57764 11.1084 4.29688 11.4502 4.29688C11.792 4.29688 12.0728 4.57764 12.0728 4.90723L12.0728 7.22656C12.0728 7.58057 11.792 7.86133 11.4502 7.86133ZM22.7783 22.1069L24.0479 22.1069C25.0488 22.1069 25.6348 21.5332 25.6348 20.5444L25.6348 14.1724C25.6348 12.7319 26.0132 11.9995 27.063 11.0352C24.2065 10.498 22.0337 7.9834 22.0337 4.98047C22.0337 3.22266 22.7783 1.63574 23.9624 0.524902C23.5352 0.524902 23.4619 0.524902 23.4131 0.524902C20.1538 0.524902 17.5293 3.14941 17.5293 6.39648C17.5293 8.21533 18.3472 9.79004 19.6289 10.9131C20.8252 11.9629 21.1914 12.7075 21.1914 14.1724L21.1914 20.5444C21.1914 21.5332 21.7773 22.1069 22.7783 22.1069Z" fill="#5ac8f5"/>
  <path d="M0 4.98047C0 7.39746 1.70898 9.41162 3.97949 9.87549C3.40576 8.8501 3.06396 7.66602 3.06396 6.39648C3.06396 3.78418 4.50439 1.48926 6.62842 0.280762C6.11572 0.0976562 5.56641 0 5.00488 0C2.23389 0 0 2.23389 0 4.98047ZM28.2104 9.97314C30.957 9.97314 33.2031 7.73926 33.2031 4.98047C33.2031 2.23389 30.957 0 28.2104 0C25.4517 0 23.2178 2.23389 23.2178 4.98047C23.2178 7.73926 25.4517 9.97314 28.2104 9.97314ZM30.6763 7.08008C30.0415 7.08008 29.5532 6.16455 29.5532 4.98047C29.5532 3.8208 30.0415 2.89307 30.6763 2.89307C31.2866 2.89307 31.7749 3.8208 31.7749 4.98047C31.7749 6.16455 31.2866 7.08008 30.6763 7.08008Z" fill="#5ac8f5" fill-opacity="0.5"/>
 </g>
</svg>
