<?xml version="1.0" encoding="UTF-8"?>
<!--Generator: Apple Native CoreSVG 175.5-->
<!DOCTYPE svg
PUBLIC "-//W3C//DTD SVG 1.1//EN"
       "http://www.w3.org/Graphics/SVG/1.1/DTD/svg11.dtd">
<svg version="1.1" xmlns="http://www.w3.org/2000/svg" xmlns:xlink="http://www.w3.org/1999/xlink" width="13.4766" height="21.4722">
 <g>
  <rect height="21.4722" opacity="0" width="13.4766" x="0" y="0"/>
  <path d="M8.21533 0.0854492C4.47998 0.0610352 0 3.80859 0 7.43408C0 10.437 3.00293 12.8052 5.43213 12.793C8.81348 12.7808 13.4766 8.8623 13.4766 5.59082C13.4766 2.4292 11.0352 0.109863 8.21533 0.0854492ZM4.27246 11.1084C3.58887 11.1084 2.53906 10.2539 1.87988 9.19189C1.23291 8.10547 1.25732 7.26318 1.94092 7.26318C2.6123 7.26318 3.67432 8.10547 4.32129 9.19189C4.96826 10.2539 4.94385 11.1084 4.27246 11.1084ZM7.67822 5.66406C7.2876 5.11475 7.42188 4.38232 7.95898 4.00391L9.65576 2.771C10.1807 2.38037 10.9253 2.51465 11.2915 3.06396C11.7065 3.60107 11.5845 4.30908 11.0474 4.71191L9.35059 5.92041C8.78906 6.32324 8.04443 6.20117 7.67822 5.66406ZM8.81348 21.4722L10.3394 21.4722C11.0962 21.4722 11.5967 21.0815 11.5967 20.3369L11.5967 11.2183C10.4004 12.2925 8.98438 13.147 7.55615 13.5986L7.55615 20.3369C7.55615 21.0815 8.04443 21.4722 8.81348 21.4722Z" fill="#5ac8f5"/>
 </g>
</svg>
