<?xml version="1.0" encoding="UTF-8"?>
<!--Generator: Apple Native CoreSVG 175.5-->
<!DOCTYPE svg
PUBLIC "-//W3C//DTD SVG 1.1//EN"
       "http://www.w3.org/Graphics/SVG/1.1/DTD/svg11.dtd">
<svg version="1.1" xmlns="http://www.w3.org/2000/svg" xmlns:xlink="http://www.w3.org/1999/xlink" width="22.4731" height="22.4976">
 <g>
  <rect height="22.4976" opacity="0" width="22.4731" x="0" y="0"/>
  <path d="M3.83301 22.4976L18.6401 22.4976C21.2036 22.4976 22.4731 21.228 22.4731 18.7134L22.4731 3.80859C22.4731 1.29395 21.2036 0.0244141 18.6401 0.0244141L3.83301 0.0244141C1.28174 0.0244141 0 1.28174 0 3.80859L0 18.7134C0 21.2402 1.28174 22.4976 3.83301 22.4976Z" fill="#5ac8f5" fill-opacity="0.25"/>
  <path d="M11.2549 17.1387C10.4858 17.1387 10.083 16.8091 9.75342 15.9546L6.21338 6.73828C6.15234 6.54297 6.11572 6.39648 6.11572 6.21338C6.11572 5.65186 6.55518 5.24902 7.14111 5.24902C7.70264 5.24902 8.00781 5.51758 8.21533 6.11572L11.1938 14.7217L11.2793 14.7217L14.27 6.11572C14.4775 5.51758 14.7827 5.24902 15.3442 5.24902C15.9302 5.24902 16.3574 5.63965 16.3574 6.21338C16.3574 6.39648 16.333 6.54297 16.272 6.73828L12.7441 15.9302C12.4268 16.7603 11.9751 17.1387 11.2549 17.1387Z" fill="#5ac8f5"/>
 </g>
</svg>
