<?xml version="1.0" encoding="UTF-8"?>
<!--Generator: Apple Native CoreSVG 175.5-->
<!DOCTYPE svg
PUBLIC "-//W3C//DTD SVG 1.1//EN"
       "http://www.w3.org/Graphics/SVG/1.1/DTD/svg11.dtd">
<svg version="1.1" xmlns="http://www.w3.org/2000/svg" xmlns:xlink="http://www.w3.org/1999/xlink" width="29.4678" height="23.3765">
 <g>
  <rect height="23.3765" opacity="0" width="29.4678" x="0" y="0"/>
  <path d="M2.50244 13.0615L4.04053 13.0615C5.70068 13.0615 6.53076 12.2559 6.53076 10.6323L6.53076 2.4292C6.53076 0.805664 5.70068 0 4.04053 0L2.50244 0C0.830078 0 0 0.805664 0 2.4292L0 10.6323C0 12.2559 0.830078 13.0615 2.50244 13.0615ZM2.50244 11.2183C2.06299 11.2183 1.84326 10.9985 1.84326 10.5469L1.84326 2.51465C1.84326 2.06299 2.06299 1.84326 2.50244 1.84326L4.04053 1.84326C4.46777 1.84326 4.6875 2.06299 4.6875 2.51465L4.6875 10.5469C4.6875 10.9985 4.46777 11.2183 4.04053 11.2183ZM25.4395 13.0615L26.9653 13.0615C28.6499 13.0615 29.4678 12.2559 29.4678 10.6323L29.4678 2.4292C29.4678 0.805664 28.6499 0 26.9653 0L25.4395 0C23.7671 0 22.937 0.805664 22.937 2.4292L22.937 10.6323C22.937 12.2559 23.7671 13.0615 25.4395 13.0615ZM25.4395 11.2183C25 11.2183 24.7803 10.9985 24.7803 10.5469L24.7803 2.51465C24.7803 2.06299 25 1.84326 25.4395 1.84326L26.9653 1.84326C27.4048 1.84326 27.6245 2.06299 27.6245 2.51465L27.6245 10.5469C27.6245 10.9985 27.4048 11.2183 26.9653 11.2183ZM5.62744 4.65088L23.8525 4.65088L23.8525 2.86865L5.62744 2.86865ZM5.62744 10.1196L10.7422 10.1196L11.6943 8.3374L5.62744 8.3374ZM23.8525 10.1196L23.8525 8.3374L17.7979 8.3374L18.7622 10.1196ZM14.7461 23.3765C17.7856 23.3765 20.2026 21.0083 20.2026 18.042C20.2026 16.4185 19.3848 14.8071 18.7012 13.5376L15.9546 8.42285C15.6372 7.83691 15.2832 7.56836 14.7461 7.56836C14.209 7.56836 13.855 7.83691 13.5376 8.41064L10.8032 13.5376C10.1196 14.8071 9.30176 16.4185 9.30176 18.042C9.30176 21.0083 11.7188 23.3765 14.7461 23.3765ZM14.7461 21.6431C12.6831 21.6431 11.0352 20.0562 11.0352 18.042C11.0352 16.8091 11.6577 15.625 12.3413 14.3433L14.624 10.083C14.6973 9.96094 14.8193 9.96094 14.8926 10.083L17.1631 14.3433C17.8345 15.625 18.4692 16.8091 18.4692 18.042C18.4692 20.0562 16.8213 21.6431 14.7461 21.6431Z" fill="#5ac8f5"/>
 </g>
</svg>
