<?xml version="1.0" encoding="UTF-8"?>
<!--Generator: Apple Native CoreSVG 175.5-->
<!DOCTYPE svg
PUBLIC "-//W3C//DTD SVG 1.1//EN"
       "http://www.w3.org/Graphics/SVG/1.1/DTD/svg11.dtd">
<svg version="1.1" xmlns="http://www.w3.org/2000/svg" xmlns:xlink="http://www.w3.org/1999/xlink" width="32.2266" height="20.1782">
 <g>
  <rect height="20.1782" opacity="0" width="32.2266" x="0" y="0"/>
  <path d="M3.28369 16.1743C3.28369 16.6382 3.54004 16.8945 3.9917 16.8945L28.2471 16.8945C28.6865 16.8945 28.9551 16.6382 28.9551 16.1743L28.9551 3.9917C28.9551 3.54004 28.6865 3.27148 28.2471 3.27148L3.9917 3.27148C3.54004 3.27148 3.28369 3.54004 3.28369 3.9917ZM4.5166 15.3809L4.5166 4.78516C4.5166 4.60205 4.60205 4.50439 4.78516 4.50439L27.4414 4.50439C27.6245 4.50439 27.7222 4.60205 27.7222 4.78516L27.7222 15.3809C27.7222 15.564 27.6245 15.6616 27.4414 15.6616L4.78516 15.6616C4.60205 15.6616 4.5166 15.564 4.5166 15.3809ZM16.0645 16.8945C18.7012 16.8945 20.8008 14.2456 20.8008 10.0708C20.8008 5.9082 18.7012 3.27148 16.0645 3.27148C13.501 3.27148 11.438 5.9082 11.438 10.0708C11.438 14.2456 13.501 16.8945 16.0645 16.8945ZM16.0645 15.4541C14.3311 15.4541 12.854 13.3911 12.854 10.0708C12.854 6.7627 14.3311 4.71191 16.0645 4.71191C17.8711 4.71191 19.397 6.7627 19.397 10.0708C19.397 13.3911 17.8711 15.4541 16.0645 15.4541Z" fill="#5ac8f5" fill-opacity="0.5"/>
  <path d="M0 19.2017C0 19.7876 0.390625 20.1782 0.976562 20.1782L31.2622 20.1782C31.8481 20.1782 32.2266 19.7876 32.2266 19.2017L32.2266 0.964355C32.2266 0.378418 31.8481 0 31.2622 0L0.976562 0C0.390625 0 0 0.378418 0 0.964355ZM1.96533 17.8589L1.96533 2.31934C1.96533 2.05078 2.06299 1.96533 2.31934 1.96533L29.9072 1.96533C30.1758 1.96533 30.2612 2.05078 30.2612 2.31934L30.2612 17.8589C30.2612 18.1152 30.1758 18.2129 29.9072 18.2129L2.31934 18.2129C2.06299 18.2129 1.96533 18.1152 1.96533 17.8589Z" fill="#5ac8f5"/>
 </g>
</svg>
