<?xml version="1.0" encoding="UTF-8"?>
<!--Generator: Apple Native CoreSVG 175.5-->
<!DOCTYPE svg
PUBLIC "-//W3C//DTD SVG 1.1//EN"
       "http://www.w3.org/Graphics/SVG/1.1/DTD/svg11.dtd">
<svg version="1.1" xmlns="http://www.w3.org/2000/svg" xmlns:xlink="http://www.w3.org/1999/xlink" width="27.7313" height="27.7435">
 <g>
  <rect height="27.7435" opacity="0" width="27.7313" x="0" y="0"/>
  <path d="M6.46821 24.4492L9.11713 24.4492C9.36127 24.4492 9.54438 24.5224 9.72748 24.7055L11.6074 26.5732C13.1455 28.1235 14.5737 28.1113 16.1118 26.5732L17.9916 24.7055C18.187 24.5224 18.3579 24.4492 18.6142 24.4492L21.2509 24.4492C23.436 24.4492 24.4492 23.4482 24.4492 21.2509L24.4492 18.6142C24.4492 18.3579 24.5224 18.187 24.7055 17.9916L26.5732 16.1118C28.1235 14.5737 28.1113 13.1455 26.5732 11.6074L24.7055 9.72748C24.5224 9.54438 24.4492 9.36127 24.4492 9.11713L24.4492 6.46821C24.4492 4.29535 23.4482 3.26996 21.2509 3.26996L18.6142 3.26996C18.3579 3.26996 18.187 3.20893 17.9916 3.02582L16.1118 1.15815C14.5737-0.392146 13.1455-0.379939 11.6074 1.15815L9.72748 3.02582C9.54438 3.20893 9.36127 3.26996 9.11713 3.26996L6.46821 3.26996C4.28315 3.26996 3.26996 4.27094 3.26996 6.46821L3.26996 9.11713C3.26996 9.36127 3.20893 9.54438 3.02582 9.72748L1.15815 11.6074C-0.392146 13.1455-0.379939 14.5737 1.15815 16.1118L3.02582 17.9916C3.20893 18.187 3.26996 18.3579 3.26996 18.6142L3.26996 21.2509C3.26996 23.436 4.28315 24.4492 6.46821 24.4492Z" fill="#5ac8f5"/>
 </g>
</svg>
