<?xml version="1.0" encoding="UTF-8"?>
<!--Generator: Apple Native CoreSVG 175.5-->
<!DOCTYPE svg
PUBLIC "-//W3C//DTD SVG 1.1//EN"
       "http://www.w3.org/Graphics/SVG/1.1/DTD/svg11.dtd">
<svg version="1.1" xmlns="http://www.w3.org/2000/svg" xmlns:xlink="http://www.w3.org/1999/xlink" width="24.9023" height="24.9146">
 <g>
  <rect height="24.9146" opacity="0" width="24.9023" x="0" y="0"/>
  <path d="M12.4512 24.9023C19.2627 24.9023 24.9023 19.2505 24.9023 12.4512C24.9023 5.63965 19.2505 0 12.439 0C5.63965 0 0 5.63965 0 12.4512C0 19.2505 5.65186 24.9023 12.4512 24.9023ZM12.4512 22.8271C6.68945 22.8271 2.0874 18.2129 2.0874 12.4512C2.0874 6.68945 6.67725 2.0752 12.439 2.0752C18.2007 2.0752 22.8271 6.68945 22.8271 12.4512C22.8271 18.2129 18.2129 22.8271 12.4512 22.8271ZM7.04346 12.2925L11.2793 12.2925C11.9141 12.2925 12.2803 12.0117 12.2803 11.2793L12.2803 7.03125C12.2803 6.55518 11.9019 6.17676 11.4258 6.17676C10.9497 6.17676 10.5591 6.55518 10.5591 7.03125L10.5591 7.62939L10.6934 9.55811L7.50732 6.25C7.15332 5.87158 6.56738 5.87158 6.21338 6.23779C5.85938 6.5918 5.87158 7.17773 6.22559 7.53174L9.52148 10.6934L7.65381 10.5713L7.04346 10.5713C6.56738 10.5713 6.18896 10.9497 6.18896 11.4258C6.18896 11.9019 6.56738 12.2925 7.04346 12.2925ZM13.4521 18.7134C13.9282 18.7134 14.3066 18.335 14.3066 17.8589L14.3066 17.2607L14.1846 15.332L17.3706 18.6401C17.7246 19.0186 18.3105 19.0186 18.6646 18.6523C19.0186 18.2983 19.0063 17.7002 18.6523 17.3584L15.3564 14.1968L17.2241 14.3188L17.8223 14.3188C18.2983 14.3188 18.689 13.9404 18.689 13.4644C18.689 12.9761 18.2983 12.5977 17.8223 12.5977L13.5986 12.5977C12.9639 12.5977 12.5854 12.8784 12.5854 13.5986L12.5854 17.8589C12.5854 18.335 12.9761 18.7134 13.4521 18.7134Z" fill="#5ac8f5"/>
 </g>
</svg>
