<?xml version="1.0" encoding="UTF-8"?>
<!--Generator: Apple Native CoreSVG 175.5-->
<!DOCTYPE svg
PUBLIC "-//W3C//DTD SVG 1.1//EN"
       "http://www.w3.org/Graphics/SVG/1.1/DTD/svg11.dtd">
<svg version="1.1" xmlns="http://www.w3.org/2000/svg" xmlns:xlink="http://www.w3.org/1999/xlink" width="30.3467" height="22.4976">
 <g>
  <rect height="22.4976" opacity="0" width="30.3467" x="0" y="0"/>
  <path d="M7.1167 13.7817L5.15137 13.7817L5.15137 18.7134C5.15137 21.228 6.43311 22.4976 8.98438 22.4976L25.6592 22.4976C28.2104 22.4976 29.4922 21.2402 29.4922 18.7134L29.4922 13.7817L27.5269 13.7817L27.5269 18.8232C27.5269 19.9585 26.9165 20.5322 25.8423 20.5322L8.82568 20.5322C7.73926 20.5322 7.1167 19.9585 7.1167 18.8232ZM1.66016 3.03955C2.49023 3.03955 3.16162 2.36816 3.16162 1.53809C3.16162 0.708008 2.49023 0.0366211 1.66016 0.0366211C0.830078 0.0366211 0.158691 0.708008 0.158691 1.53809C0.158691 2.36816 0.830078 3.03955 1.66016 3.03955ZM1.66016 7.88574C2.49023 7.88574 3.16162 7.21436 3.16162 6.38428C3.16162 5.5542 2.49023 4.88281 1.66016 4.88281C0.830078 4.88281 0.158691 5.5542 0.158691 6.38428C0.158691 7.21436 0.830078 7.88574 1.66016 7.88574ZM1.66016 17.5903C2.49023 17.5903 3.16162 16.9189 3.16162 16.0889C3.16162 15.2588 2.49023 14.5752 1.66016 14.5752C0.830078 14.5752 0.158691 15.2588 0.158691 16.0889C0.158691 16.9189 0.830078 17.5903 1.66016 17.5903ZM1.66016 22.4487C2.49023 22.4487 3.16162 21.7773 3.16162 20.9473C3.16162 20.1172 2.49023 19.4336 1.66016 19.4336C0.830078 19.4336 0.158691 20.1172 0.158691 20.9473C0.158691 21.7773 0.830078 22.4487 1.66016 22.4487ZM1.66016 12.9028C2.56348 12.9028 3.32031 12.146 3.32031 11.2427C3.32031 10.3394 2.56348 9.58252 1.66016 9.58252C0.756836 9.58252 0 10.3394 0 11.2427C0 12.146 0.756836 12.9028 1.66016 12.9028ZM30.3467 11.2549C30.3467 10.7788 29.9683 10.4004 29.4922 10.4004L2.39258 10.4004L2.39258 12.1216L29.4922 12.1216C29.9683 12.1216 30.3467 11.731 30.3467 11.2549ZM5.15137 8.72803L7.1167 8.72803L7.1167 3.69873C7.1167 2.56348 7.73926 1.98975 8.82568 1.98975L25.8423 1.98975C26.9165 1.98975 27.5269 2.56348 27.5269 3.69873L27.5269 8.72803L29.4922 8.72803L29.4922 3.80859C29.4922 1.28174 28.2104 0.0244141 25.6592 0.0244141L8.98438 0.0244141C6.43311 0.0244141 5.15137 1.29395 5.15137 3.80859Z" fill="#5ac8f5"/>
 </g>
</svg>
