<?xml version="1.0" encoding="UTF-8"?>
<!--Generator: Apple Native CoreSVG 175.5-->
<!DOCTYPE svg
PUBLIC "-//W3C//DTD SVG 1.1//EN"
       "http://www.w3.org/Graphics/SVG/1.1/DTD/svg11.dtd">
<svg version="1.1" xmlns="http://www.w3.org/2000/svg" xmlns:xlink="http://www.w3.org/1999/xlink" width="24.9023" height="24.9146">
 <g>
  <rect height="24.9146" opacity="0" width="24.9023" x="0" y="0"/>
  <path d="M12.4512 24.9146C19.2627 24.9146 24.9023 19.2749 24.9023 12.4634C24.9023 5.66406 19.2505 0.012207 12.439 0.012207C5.63965 0.012207 0 5.66406 0 12.4634C0 19.2749 5.65186 24.9146 12.4512 24.9146Z" fill="#5ac8f5" fill-opacity="0.25"/>
  <path d="M4.6875 12.4634C4.6875 8.21533 8.21533 4.6875 12.4634 4.6875C16.7236 4.6875 20.2393 8.21533 20.2393 12.4634C20.2393 16.7236 16.7114 20.2393 12.4512 20.2393C8.21533 20.2393 4.6875 16.7236 4.6875 12.4634ZM6.51855 12.4634C6.51855 15.7837 9.14307 18.4204 12.4512 18.4204C15.7593 18.4204 18.4082 15.7837 18.4204 12.4634C18.4204 11.7554 18.2983 11.084 18.0664 10.4492L6.87256 10.4492C6.64062 11.084 6.51855 11.7554 6.51855 12.4634ZM7.80029 8.77686L17.1509 8.77686C16.0645 7.39746 14.3677 6.50635 12.4634 6.50635C10.5591 6.50635 8.87451 7.39746 7.80029 8.77686Z" fill="#5ac8f5"/>
 </g>
</svg>
