<?xml version="1.0" encoding="UTF-8"?>
<!--Generator: Apple Native CoreSVG 175.5-->
<!DOCTYPE svg
PUBLIC "-//W3C//DTD SVG 1.1//EN"
       "http://www.w3.org/Graphics/SVG/1.1/DTD/svg11.dtd">
<svg version="1.1" xmlns="http://www.w3.org/2000/svg" xmlns:xlink="http://www.w3.org/1999/xlink" width="33.3993" height="25.1587">
 <g>
  <rect height="25.1587" opacity="0" width="33.3993" x="0" y="0"/>
  <path d="M4.48039 24.7681L9.49748 23.7915C12.1464 23.2788 13.2939 21.8628 13.2939 19.0552L13.2939 4.1748C13.2939 1.66016 11.5605 0 8.94817 0C6.73869 0 4.80998 1.57471 4.22404 3.93066L0.183517 20.1904C-0.60994 23.3643 1.23332 25.3906 4.48039 24.7681ZM28.9189 24.7681C32.1659 25.3906 34.0092 23.3643 33.2157 20.1904L29.1752 3.93066C28.5771 1.57471 26.6606 0 24.4511 0C21.8388 0 20.0932 1.66016 20.0932 4.1748L20.0932 19.0552C20.0932 21.8628 21.2529 23.2788 23.8896 23.7915Z" fill="#5ac8f5" fill-opacity="0.25"/>
  <path d="M5.78654 18.9819C5.27385 19.0918 4.72453 18.7378 4.61467 18.2251C4.51701 17.7002 4.87102 17.1753 5.37151 17.0776L9.21672 16.2476L6.06731 13.4277C5.67668 13.0859 5.62785 12.439 5.99406 12.0361C6.33586 11.6455 6.99504 11.6333 7.37346 11.9751L11.5727 15.7593L13.2939 15.3931L13.2939 17.395ZM20.0932 17.395L20.0932 15.3931L21.8144 15.7593L26.0014 11.9751C26.3798 11.6333 27.039 11.6455 27.393 12.0361C27.7592 12.439 27.7104 13.0859 27.3197 13.4277L24.1581 16.2476L28.0033 17.0776C28.516 17.1753 28.87 17.7002 28.7602 18.2251C28.6625 18.7378 28.1132 19.0918 27.6005 18.9819Z" fill="#5ac8f5" fill-opacity="0.5"/>
  <path d="M20.0932 15.3931L20.0932 17.395L16.6996 16.6626L13.2939 17.395L13.2939 15.3931L15.7109 14.8682L15.7109 1.34277C15.7109 0.805664 16.1625 0.354004 16.6996 0.354004C17.2367 0.354004 17.6762 0.805664 17.6762 1.34277L17.6762 14.8682Z" fill="#5ac8f5"/>
 </g>
</svg>
