<?xml version="1.0" encoding="UTF-8"?>
<!--Generator: Apple Native CoreSVG 175.5-->
<!DOCTYPE svg
PUBLIC "-//W3C//DTD SVG 1.1//EN"
       "http://www.w3.org/Graphics/SVG/1.1/DTD/svg11.dtd">
<svg version="1.1" xmlns="http://www.w3.org/2000/svg" xmlns:xlink="http://www.w3.org/1999/xlink" width="24.9023" height="24.9146">
 <g>
  <rect height="24.9146" opacity="0" width="24.9023" x="0" y="0"/>
  <path d="M12.4512 24.9146C19.2627 24.9146 24.9023 19.2749 24.9023 12.4634C24.9023 5.66406 19.2505 0.012207 12.439 0.012207C5.63965 0.012207 0 5.66406 0 12.4634C0 19.2749 5.65186 24.9146 12.4512 24.9146ZM7.20215 17.5415C5.94482 17.5415 5.2002 16.8091 5.2002 15.5762L5.2002 9.375C5.2002 8.11768 5.99365 7.39746 7.20215 7.39746L13.916 7.39746C15.1855 7.39746 15.8447 8.11768 15.8447 9.375L15.8447 15.5762C15.8447 16.8091 15.1123 17.5415 13.855 17.5415ZM16.5527 14.1846L16.5527 10.7544L19.0186 8.65479C19.2261 8.48389 19.4946 8.36182 19.7144 8.36182C20.1904 8.36182 20.5078 8.70361 20.5078 9.22852L20.5078 15.7104C20.5078 16.2476 20.1904 16.5894 19.7144 16.5894C19.4946 16.5894 19.2383 16.4673 19.0186 16.2842Z" fill="#5ac8f5"/>
 </g>
</svg>
