<?xml version="1.0" encoding="UTF-8"?>
<!--Generator: Apple Native CoreSVG 175.5-->
<!DOCTYPE svg
PUBLIC "-//W3C//DTD SVG 1.1//EN"
       "http://www.w3.org/Graphics/SVG/1.1/DTD/svg11.dtd">
<svg version="1.1" xmlns="http://www.w3.org/2000/svg" xmlns:xlink="http://www.w3.org/1999/xlink" width="21.7041" height="24.1821">
 <g>
  <rect height="24.1821" opacity="0" width="21.7041" x="0" y="0"/>
  <path d="M1.02539 21.0938C1.67236 21.0938 1.98975 20.8496 2.22168 20.166L3.79639 15.8569L10.9985 15.8569L12.5732 20.166C12.8052 20.8496 13.1226 21.0938 13.7573 21.0938C14.4043 21.0938 14.8193 20.7031 14.8193 20.0928C14.8193 19.8853 14.7827 19.6899 14.6851 19.4336L8.95996 4.18701C8.6792 3.44238 8.17871 3.06396 7.39746 3.06396C6.64062 3.06396 6.12793 3.43018 5.85938 4.1748L0.134277 19.4458C0.0366211 19.7021 0 19.8975 0 20.105C0 20.7153 0.390625 21.0938 1.02539 21.0938ZM4.39453 14.0015L7.36084 5.78613L7.42188 5.78613L10.3882 14.0015Z" fill="#5ac8f5" fill-opacity="0.5"/>
  <path d="M20.8008 24.1821C21.3501 24.1821 21.7041 23.8281 21.7041 23.3154L21.7041 14.9658C21.7041 14.3555 21.3257 13.9893 20.7275 13.9893C20.1904 13.9893 19.9219 14.1846 19.5679 14.4409L17.6147 15.7715C17.2729 16.0156 17.1265 16.2231 17.1265 16.4917C17.1265 16.8945 17.4316 17.1997 17.8101 17.1997C18.0542 17.1997 18.2129 17.1265 18.457 16.9556L19.873 16.0034L19.9097 16.0034L19.9097 23.3154C19.9097 23.8281 20.2759 24.1821 20.8008 24.1821Z" fill="#5ac8f5"/>
 </g>
</svg>
