<?xml version="1.0" encoding="UTF-8"?>
<!--Generator: Apple Native CoreSVG 175.5-->
<!DOCTYPE svg
PUBLIC "-//W3C//DTD SVG 1.1//EN"
       "http://www.w3.org/Graphics/SVG/1.1/DTD/svg11.dtd">
<svg version="1.1" xmlns="http://www.w3.org/2000/svg" xmlns:xlink="http://www.w3.org/1999/xlink" width="37.793" height="25.5493">
 <g>
  <rect height="25.5493" opacity="0" width="37.793" x="0" y="0"/>
  <path d="M2.91748 19.9341L11.3892 19.9341C13.2202 19.9341 14.3066 18.8599 14.3066 17.0654L14.3066 8.49609C14.3066 6.71387 13.2202 5.62744 11.3892 5.62744L2.91748 5.62744C1.08643 5.62744 0 6.71387 0 8.49609L0 17.0654C0 18.8599 1.08643 19.9341 2.91748 19.9341ZM2.9541 18.0908C2.2583 18.0908 1.84326 17.6636 1.84326 16.9678L1.84326 8.60596C1.84326 7.91016 2.2583 7.4707 2.9541 7.4707L11.3525 7.4707C12.0483 7.4707 12.4634 7.91016 12.4634 8.60596L12.4634 16.9678C12.4634 17.6636 12.0483 18.0908 11.3525 18.0908ZM18.8965 25.5493C19.4336 25.5493 19.7998 25.2075 19.7998 24.6948L19.7998 0.866699C19.7998 0.366211 19.4336 0.0244141 18.8965 0.0244141C18.3594 0.0244141 18.0054 0.366211 18.0054 0.866699L18.0054 24.6948C18.0054 25.2075 18.3594 25.5493 18.8965 25.5493ZM26.4038 19.9341L34.8755 19.9341C36.7065 19.9341 37.793 18.8599 37.793 17.0654L37.793 8.49609C37.793 6.71387 36.7065 5.62744 34.8755 5.62744L26.4038 5.62744C24.5728 5.62744 23.4863 6.71387 23.4863 8.49609L23.4863 17.0654C23.4863 18.8599 24.5728 19.9341 26.4038 19.9341ZM26.4404 18.0908C25.7446 18.0908 25.3296 17.6636 25.3296 16.9678L25.3296 8.60596C25.3296 7.91016 25.7446 7.4707 26.4404 7.4707L34.8389 7.4707C35.5347 7.4707 35.9497 7.91016 35.9497 8.60596L35.9497 16.9678C35.9497 17.6636 35.5347 18.0908 34.8389 18.0908Z" fill="#5ac8f5"/>
 </g>
</svg>
