<?xml version="1.0" encoding="UTF-8"?>
<!--Generator: Apple Native CoreSVG 175.5-->
<!DOCTYPE svg
PUBLIC "-//W3C//DTD SVG 1.1//EN"
       "http://www.w3.org/Graphics/SVG/1.1/DTD/svg11.dtd">
<svg version="1.1" xmlns="http://www.w3.org/2000/svg" xmlns:xlink="http://www.w3.org/1999/xlink" width="24.9023" height="24.9146">
 <g>
  <rect height="24.9146" opacity="0" width="24.9023" x="0" y="0"/>
  <path d="M12.4512 24.9146C19.2627 24.9146 24.9023 19.2749 24.9023 12.4634C24.9023 5.66406 19.2505 0.012207 12.439 0.012207C5.63965 0.012207 0 5.66406 0 12.4634C0 19.2749 5.65186 24.9146 12.4512 24.9146Z" fill="#5ac8f5" fill-opacity="0.25"/>
  <path d="M12.3413 11.3159C8.11768 11.3159 5.82275 10.2661 5.82275 8.21533C5.82275 6.88477 6.98242 5.63965 9.31396 4.93164C9.77783 4.80957 10.0952 4.94385 10.2173 5.29785C10.3271 5.65186 10.1318 5.99365 9.74121 6.12793C7.80029 6.73828 7.15332 7.49512 7.15332 8.19092C7.15332 9.38721 8.8623 10.0464 12.2925 10.0464C15.7471 10.0464 17.749 9.28955 17.749 8.6792C17.749 8.1543 16.5039 7.65381 14.2334 7.65381C12.3779 7.65381 11.0352 8.09326 9.94873 8.54492C9.60693 8.70361 9.19189 8.61816 9.0332 8.28857C8.87451 8.00781 8.95996 7.59277 9.36279 7.39746C10.5835 6.81152 12.2192 6.4209 14.2944 6.4209C17.0654 6.4209 19.0674 7.26318 19.0674 8.69141C19.0674 10.2417 16.5527 11.3159 12.3413 11.3159ZM12.5366 13.5742C11.0107 13.5742 9.19189 13.3667 7.78809 12.9639C7.40967 12.8662 7.22656 12.5366 7.31201 12.2192C7.42188 11.8774 7.75146 11.7554 8.11768 11.8652C9.42383 12.2437 11.0718 12.4268 12.5366 12.4268C14.5142 12.4268 16.333 12.0972 17.5781 11.6211C17.9443 11.4746 18.2739 11.5356 18.4448 11.8408C18.5913 12.1582 18.4448 12.5 18.103 12.6343C16.6992 13.2202 14.7095 13.5742 12.5366 13.5742ZM13.0005 15.7959C12.1582 15.8081 11.4014 15.7593 10.8643 15.6616C10.437 15.5762 10.2661 15.271 10.3271 14.9658C10.4004 14.6606 10.6567 14.4897 11.0596 14.5264C11.6089 14.5996 12.3169 14.6606 13.0005 14.6606C14.6118 14.6606 16.1255 14.4165 17.6392 13.916C18.042 13.7939 18.3716 13.8916 18.4814 14.1968C18.5913 14.4653 18.5059 14.856 18.0786 15.0024C16.5283 15.5273 14.8315 15.7837 13.0005 15.7959ZM12.3779 17.9199C11.9629 17.8467 11.792 17.5781 11.8164 17.2607C11.8652 16.9312 12.1582 16.7358 12.5488 16.7725C13.7207 16.9312 14.978 16.8457 16.0767 16.5527C16.4795 16.4551 16.7847 16.5771 16.8945 16.9067C16.9922 17.1997 16.8457 17.5415 16.4673 17.6636C15.1611 18.0176 13.6353 18.0542 12.3779 17.9199ZM11.9019 20.0806C11.4746 20.0195 11.3037 19.7266 11.3403 19.4336C11.377 19.1528 11.6211 18.9209 12.0239 18.9819C12.4023 19.0308 12.8052 19.0186 13.1836 18.9697C13.5986 18.9209 13.8306 19.1406 13.8794 19.4336C13.8916 19.751 13.7085 20.0195 13.3179 20.0684C12.854 20.1172 12.3535 20.1294 11.9019 20.0806Z" fill="#5ac8f5"/>
 </g>
</svg>
