<?xml version="1.0" encoding="UTF-8"?>
<!--Generator: Apple Native CoreSVG 175.5-->
<!DOCTYPE svg
PUBLIC "-//W3C//DTD SVG 1.1//EN"
       "http://www.w3.org/Graphics/SVG/1.1/DTD/svg11.dtd">
<svg version="1.1" xmlns="http://www.w3.org/2000/svg" xmlns:xlink="http://www.w3.org/1999/xlink" width="25.3206" height="28.7476">
 <g>
  <rect height="28.7476" opacity="0" width="25.3206" x="0" y="0"/>
  <path d="M25.3206 26.8921L25.3206 17.1997C25.3206 15.7471 24.6614 15.0879 23.2088 15.0879L8.62138 15.0879C7.54716 15.0879 6.97343 15.8936 6.97343 16.7603C6.97343 17.3462 7.24198 17.9077 7.81571 18.2983L22.4031 28.3569C22.7937 28.6377 23.2454 28.7476 23.6726 28.7476C24.5516 28.7476 25.3206 28.1616 25.3206 26.8921ZM23.2088 13.6719C24.6614 13.6719 25.3206 13.0127 25.3206 11.5601L25.3206 1.86768C25.3206 0.598145 24.5516 0.012207 23.6726 0.012207C23.2454 0.012207 22.7937 0.12207 22.4031 0.390625L7.81571 10.4614C7.24198 10.8521 6.97343 11.4136 6.97343 11.9995C6.97343 12.8662 7.54716 13.6719 8.62138 13.6719Z" fill="#5ac8f5" fill-opacity="0.5"/>
  <path d="M3.9827 26.8555L6.4119 23.584C6.9246 22.9126 6.61942 22.0947 5.78934 22.0947L4.03153 22.0947L4.03153 6.66504L5.78934 6.66504C6.61942 6.66504 6.9246 5.84717 6.4119 5.17578L3.9827 1.9043C3.65311 1.45264 3.03056 1.45264 2.70097 1.9043L0.247353 5.17578C-0.240929 5.82275 0.0276262 6.66504 0.894325 6.66504L2.61552 6.66504L2.61552 22.0947L0.894325 22.0947C0.0520402 22.0947-0.265343 22.9126 0.247353 23.584L2.70097 26.8555C3.03056 27.2949 3.66532 27.2949 3.9827 26.8555Z" fill="#5ac8f5"/>
 </g>
</svg>
