<?xml version="1.0" encoding="UTF-8"?>
<!--Generator: Apple Native CoreSVG 175.5-->
<!DOCTYPE svg
PUBLIC "-//W3C//DTD SVG 1.1//EN"
       "http://www.w3.org/Graphics/SVG/1.1/DTD/svg11.dtd">
<svg version="1.1" xmlns="http://www.w3.org/2000/svg" xmlns:xlink="http://www.w3.org/1999/xlink" width="29.5166" height="22.4976">
 <g>
  <rect height="22.4976" opacity="0" width="29.5166" x="0" y="0"/>
  <path d="M10.498 0.0244141C3.22266 0.0244141 0 3.35693 0 10.1929L0 18.7134C0 21.2402 1.28174 22.4976 3.83301 22.4976L25.6836 22.4976C28.2349 22.4976 29.5166 21.228 29.5166 18.7134L29.5166 10.1929C29.5166 3.35693 26.2939 0.0244141 19.0308 0.0244141Z" fill="#5ac8f5" fill-opacity="0.25"/>
  <path d="M8.06885 16.9312C7.40967 16.9312 7.06787 16.4673 7.06787 15.7959L7.06787 6.45752C7.06787 5.77393 7.40967 5.31006 8.06885 5.31006C8.72803 5.31006 9.08203 5.7373 9.08203 6.45752L9.08203 15.2832L13.8672 15.2832C14.3433 15.2832 14.7095 15.5762 14.7095 16.1011C14.7095 16.6138 14.3555 16.9312 13.8672 16.9312ZM19.0674 17.0776C18.4204 17.0776 18.0786 16.6138 18.0786 15.9302L18.0786 7.10449L14.9658 7.10449C14.4897 7.10449 14.1357 6.78711 14.1357 6.28662C14.1357 5.74951 14.4897 5.45654 14.9658 5.45654L23.2178 5.45654C23.7061 5.45654 24.0601 5.74951 24.0601 6.28662C24.0601 6.78711 23.7061 7.10449 23.2178 7.10449L20.0928 7.10449L20.0928 15.9302C20.0928 16.6504 19.7388 17.0776 19.0674 17.0776Z" fill="#5ac8f5"/>
 </g>
</svg>
