<?xml version="1.0" encoding="UTF-8"?>
<!--Generator: Apple Native CoreSVG 175.5-->
<!DOCTYPE svg
PUBLIC "-//W3C//DTD SVG 1.1//EN"
       "http://www.w3.org/Graphics/SVG/1.1/DTD/svg11.dtd">
<svg version="1.1" xmlns="http://www.w3.org/2000/svg" xmlns:xlink="http://www.w3.org/1999/xlink" width="22.5098" height="22.4243">
 <g>
  <rect height="22.4243" opacity="0" width="22.5098" x="0" y="0"/>
  <path d="M21.0815 1.46484C19.8364 0.219727 18.0786 0.0244141 15.9912 0.0244141L6.48193 0.0244141C4.43115 0.0244141 2.67334 0.219727 1.42822 1.46484C0.183105 2.70996 0 4.45557 0 6.49414L0 15.918C0 18.0054 0.183105 19.7388 1.42822 20.9839C2.67334 22.229 4.43115 22.4243 6.50635 22.4243L15.9912 22.4243C18.0786 22.4243 19.8364 22.229 21.0815 20.9839C22.3267 19.7388 22.5098 18.0054 22.5098 15.918L22.5098 6.53076C22.5098 4.44336 22.3267 2.69775 21.0815 1.46484ZM20.5444 6.18896L20.5444 16.2476C20.5444 17.5171 20.3857 18.811 19.6411 19.5557C18.9087 20.2881 17.5903 20.459 16.333 20.459L6.17676 20.459C4.91943 20.459 3.60107 20.2881 2.85645 19.5557C2.12402 18.811 1.96533 17.5171 1.96533 16.2476L1.96533 6.22559C1.96533 4.94385 2.12402 3.62549 2.85645 2.89307C3.60107 2.14844 4.93164 1.98975 6.21338 1.98975L16.333 1.98975C17.5903 1.98975 18.9087 2.16064 19.6411 2.89307C20.3857 3.6377 20.5444 4.93164 20.5444 6.18896Z" fill="#5ac8f5" fill-opacity="0.5"/>
  <path d="M11.2671 4.99268C10.7422 4.99268 10.3638 5.37109 10.3638 5.9082L10.3638 12.0117L10.4492 14.5874L9.22852 13.1226L7.77588 11.6577C7.61719 11.4868 7.39746 11.3892 7.12891 11.3892C6.62842 11.3892 6.25 11.7676 6.25 12.2681C6.25 12.5244 6.32324 12.7441 6.49414 12.9028L10.5713 16.9556C10.8154 17.1997 11.0107 17.3096 11.2671 17.3096C11.5479 17.3096 11.7554 17.1875 11.9873 16.9556L16.0645 12.9028C16.2231 12.7441 16.3086 12.5244 16.3086 12.2681C16.3086 11.7676 15.918 11.3892 15.4175 11.3892C15.1489 11.3892 14.9292 11.4746 14.7705 11.6577L13.3301 13.1226L12.0972 14.5996L12.1826 12.0117L12.1826 5.9082C12.1826 5.37109 11.8042 4.99268 11.2671 4.99268Z" fill="#5ac8f5"/>
 </g>
</svg>
