<?xml version="1.0" encoding="UTF-8"?>
<!--Generator: Apple Native CoreSVG 175.5-->
<!DOCTYPE svg
PUBLIC "-//W3C//DTD SVG 1.1//EN"
       "http://www.w3.org/Graphics/SVG/1.1/DTD/svg11.dtd">
<svg version="1.1" xmlns="http://www.w3.org/2000/svg" xmlns:xlink="http://www.w3.org/1999/xlink" width="30.6885" height="23.2056">
 <g>
  <rect height="23.2056" opacity="0" width="30.6885" x="0" y="0"/>
  <path d="M24.1211 21.2158C27.8076 21.2158 30.6885 18.5181 30.6885 15.1611C30.6885 12.5977 29.2114 10.376 26.8311 9.375C26.8555 3.93066 22.937 0 17.9443 0C14.6362 0 12.2803 1.77002 10.8154 3.90625C7.8125 3.02734 4.54102 5.31006 4.47998 8.72803C1.72119 9.16748 0 11.6333 0 14.6118C0 18.2007 3.13721 21.2158 7.31201 21.2158ZM24.1211 19.2505L7.31201 19.2505C4.23584 19.2505 1.96533 17.1021 1.96533 14.6118C1.96533 12.1704 3.44238 10.2295 6.03027 10.2295C6.20117 10.2295 6.26221 10.144 6.26221 9.98535C6.26221 6.22559 8.97217 5.11475 11.4746 5.93262C11.6211 5.98145 11.7065 5.94482 11.7798 5.81055C12.9639 3.69873 14.7827 1.96533 17.9443 1.96533C21.9482 1.96533 24.7192 5.13916 24.9268 8.76465C24.9634 9.32617 24.9268 9.98535 24.8779 10.5591C24.8657 10.7178 24.9268 10.8032 25.0732 10.8398C27.2949 11.3281 28.7231 12.9517 28.7231 15.1611C28.7231 17.4316 26.7212 19.2505 24.1211 19.2505Z" fill="#5ac8f5" fill-opacity="0.5"/>
  <path d="M20.52 12.1094C20.52 9.39941 18.2983 7.2876 15.8081 7.2876C15.7104 7.2876 15.6006 7.2998 15.5273 7.31201L16.2842 6.51855C16.4062 6.39648 16.4917 6.20117 16.4917 6.01807C16.4917 5.62744 16.1865 5.29785 15.7959 5.29785C15.6006 5.29785 15.4053 5.3833 15.2832 5.52979L13.1714 7.67822C12.9028 7.94678 12.9028 8.43506 13.1714 8.70361L15.3076 10.8398C15.4297 10.9619 15.6128 11.0352 15.7959 11.0352C16.1865 11.0352 16.4917 10.73 16.4917 10.3394C16.4917 10.144 16.4062 9.97314 16.272 9.83887L15.21 8.78906C15.3198 8.76465 15.4663 8.75244 15.6006 8.75244C17.4927 8.75244 19.0063 10.2661 19.0063 12.146C19.0063 14.0381 17.4927 15.564 15.6006 15.564C13.7207 15.564 12.207 14.0381 12.207 12.146C12.207 11.7432 11.8652 11.4014 11.4502 11.4014C11.0352 11.4014 10.6934 11.7432 10.6934 12.146C10.6934 14.8804 12.8784 17.0776 15.6006 17.0776C18.335 17.0776 20.52 14.8804 20.52 12.1094Z" fill="#5ac8f5"/>
 </g>
</svg>
