<?xml version="1.0" encoding="UTF-8"?>
<!--Generator: Apple Native CoreSVG 175.5-->
<!DOCTYPE svg
PUBLIC "-//W3C//DTD SVG 1.1//EN"
       "http://www.w3.org/Graphics/SVG/1.1/DTD/svg11.dtd">
<svg version="1.1" xmlns="http://www.w3.org/2000/svg" xmlns:xlink="http://www.w3.org/1999/xlink" width="24.7681" height="26.8433">
 <g>
  <rect height="26.8433" opacity="0" width="24.7681" x="0" y="0"/>
  <path d="M13.1592 9.5459L13.1592 12.4146L23.8892 6.32324C23.7061 6.14014 23.4863 5.99365 23.2178 5.84717L14.5996 0.939941C14.1235 0.65918 13.6353 0.476074 13.1592 0.366211L13.1592 3.4668L11.4868 3.4668L11.4868 0.402832C11.0474 0.500488 10.6201 0.683594 10.1685 0.939941L1.5625 5.84717C1.29395 5.99365 1.07422 6.14014 0.878906 6.32324L11.4868 12.3413L11.4868 9.5459ZM11.4868 8.06885L11.4868 4.95605L13.1592 4.95605L13.1592 8.06885ZM13.2202 26.8433C13.3057 26.8188 13.3789 26.7822 13.4644 26.7334L23.0225 21.2891C23.4253 21.0693 23.7671 20.8252 24.0356 20.5444L21.5698 19.3115L22.3267 17.8101L24.707 19.0063C24.7559 18.7622 24.7681 18.5059 24.7681 18.2129L24.7681 8.70361C24.7681 8.3374 24.7437 8.04443 24.6704 7.77588L14.1724 13.7695L16.8213 15.0757L16.0767 16.5771L13.2202 15.1733ZM20.0684 18.5669L17.5903 17.334L18.3472 15.8325L20.813 17.0654ZM11.5479 26.8433L11.5479 15.1733L8.69141 16.5771L7.94678 15.0757L10.5957 13.7695L0.0976562 7.77588C0.0244141 8.04443 0 8.3374 0 8.70361L0 18.2129C0 18.4937 0.0244141 18.7622 0.0610352 18.9941L2.44141 17.8101L3.19824 19.3115L0.732422 20.5444C1.00098 20.8252 1.35498 21.0693 1.74561 21.2891L11.3159 26.7334C11.3892 26.7822 11.4624 26.8188 11.5479 26.8433ZM4.69971 18.5669L3.95508 17.0654L6.43311 15.8325L7.17773 17.334Z" fill="#5ac8f5"/>
 </g>
</svg>
