<?xml version="1.0" encoding="UTF-8"?>
<!--Generator: Apple Native CoreSVG 175.5-->
<!DOCTYPE svg
PUBLIC "-//W3C//DTD SVG 1.1//EN"
       "http://www.w3.org/Graphics/SVG/1.1/DTD/svg11.dtd">
<svg version="1.1" xmlns="http://www.w3.org/2000/svg" xmlns:xlink="http://www.w3.org/1999/xlink" width="22.4731" height="22.4976">
 <g>
  <rect height="22.4976" opacity="0" width="22.4731" x="0" y="0"/>
  <path d="M3.83301 22.4976L18.6401 22.4976C21.2036 22.4976 22.4731 21.228 22.4731 18.7134L22.4731 3.80859C22.4731 1.29395 21.2036 0.0244141 18.6401 0.0244141L3.83301 0.0244141C1.28174 0.0244141 0 1.28174 0 3.80859L0 18.7134C0 21.2402 1.28174 22.4976 3.83301 22.4976ZM3.85742 20.5322C2.63672 20.5322 1.96533 19.8853 1.96533 18.6157L1.96533 3.90625C1.96533 2.63672 2.63672 1.98975 3.85742 1.98975L18.6157 1.98975C19.8242 1.98975 20.5078 2.63672 20.5078 3.90625L20.5078 18.6157C20.5078 19.8853 19.8242 20.5322 18.6157 20.5322Z" fill="#5ac8f5" fill-opacity="0.5"/>
  <path d="M7.08008 16.4062C7.36084 16.4062 7.60498 16.2964 7.78809 16.1011L11.2427 12.6343L14.7217 16.1011C14.9048 16.2842 15.1367 16.4062 15.4175 16.4062C15.9668 16.4062 16.394 15.9668 16.394 15.4175C16.394 15.1367 16.2964 14.917 16.1011 14.7217L12.6343 11.2549L16.1133 7.76367C16.3208 7.55615 16.4062 7.34863 16.4062 7.08008C16.4062 6.54297 15.979 6.10352 15.4297 6.10352C15.1733 6.10352 14.9658 6.20117 14.7583 6.40869L11.2427 9.8877L7.76367 6.4209C7.58057 6.22559 7.36084 6.12793 7.08008 6.12793C6.54297 6.12793 6.10352 6.55518 6.10352 7.09229C6.10352 7.36084 6.21338 7.59277 6.39648 7.77588L9.86328 11.2549L6.39648 14.7339C6.21338 14.917 6.10352 15.1489 6.10352 15.4175C6.10352 15.9668 6.54297 16.4062 7.08008 16.4062Z" fill="#5ac8f5"/>
 </g>
</svg>
