<?xml version="1.0" encoding="UTF-8"?>
<!--Generator: Apple Native CoreSVG 175.5-->
<!DOCTYPE svg
PUBLIC "-//W3C//DTD SVG 1.1//EN"
       "http://www.w3.org/Graphics/SVG/1.1/DTD/svg11.dtd">
<svg version="1.1" xmlns="http://www.w3.org/2000/svg" xmlns:xlink="http://www.w3.org/1999/xlink" width="23.0591" height="23.0835">
 <g>
  <rect height="23.0835" opacity="0" width="23.0591" x="0" y="0"/>
  <path d="M6.81152 8.69141L6.81152 14.3921L4.35791 14.3921C1.95312 14.3921 0 16.2842 0 18.7012C0 21.1182 1.95312 23.0713 4.35791 23.0713C6.7627 23.0713 8.71582 21.1182 8.71582 18.7012L8.71582 16.2598L14.3433 16.2598L14.3433 18.7012C14.3433 21.1182 16.2964 23.0713 18.7012 23.0713C21.106 23.0713 23.0591 21.1182 23.0591 18.7012C23.0591 16.2842 21.106 14.3921 18.7012 14.3921L16.2476 14.3921L16.2476 8.69141L18.7012 8.69141C21.106 8.69141 23.0591 6.79932 23.0591 4.38232C23.0591 1.96533 21.106 0 18.7012 0C16.2964 0 14.3433 1.96533 14.3433 4.38232L14.3433 6.82373L8.71582 6.82373L8.71582 4.38232C8.71582 1.96533 6.7627 0 4.35791 0C1.95312 0 0 1.96533 0 4.38232C0 6.79932 1.95312 8.69141 4.35791 8.69141ZM4.35791 6.84814C3.01514 6.84814 1.9043 5.7373 1.9043 4.38232C1.9043 3.02734 3.01514 1.9043 4.35791 1.9043C5.70068 1.9043 6.81152 3.02734 6.81152 4.38232L6.81152 6.84814ZM18.7012 6.84814L16.2476 6.84814L16.2476 4.38232C16.2476 3.02734 17.3584 1.9043 18.7012 1.9043C20.0439 1.9043 21.1548 3.02734 21.1548 4.38232C21.1548 5.7373 20.0439 6.84814 18.7012 6.84814ZM8.71582 14.4165L8.71582 8.66699L14.3433 8.66699L14.3433 14.4165ZM4.35791 16.2231L6.81152 16.2231L6.81152 18.689C6.81152 20.0439 5.70068 21.1548 4.35791 21.1548C3.01514 21.1548 1.9043 20.0439 1.9043 18.689C1.9043 17.334 3.01514 16.2231 4.35791 16.2231ZM18.7012 16.2231C20.0439 16.2231 21.1548 17.334 21.1548 18.689C21.1548 20.0439 20.0439 21.1548 18.7012 21.1548C17.3584 21.1548 16.2476 20.0439 16.2476 18.689L16.2476 16.2231Z" fill="#5ac8f5"/>
 </g>
</svg>
