<?xml version="1.0" encoding="UTF-8"?>
<!--Generator: Apple Native CoreSVG 175.5-->
<!DOCTYPE svg
PUBLIC "-//W3C//DTD SVG 1.1//EN"
       "http://www.w3.org/Graphics/SVG/1.1/DTD/svg11.dtd">
<svg version="1.1" xmlns="http://www.w3.org/2000/svg" xmlns:xlink="http://www.w3.org/1999/xlink" width="23.6572" height="24.6216">
 <g>
  <rect height="24.6216" opacity="0" width="23.6572" x="0" y="0"/>
  <path d="M0 17.8101C0 19.9341 1.0376 20.9473 3.11279 20.9473L20.5444 20.9473C22.6196 20.9473 23.6572 19.9341 23.6572 17.8101L23.6572 3.13721C23.6572 1.00098 22.6074 0 20.52 0L3.13721 0C1.0498 0 0 1.00098 0 3.13721ZM1.96533 15.8081L1.96533 3.17383C1.96533 2.30713 2.33154 1.96533 3.17383 1.96533L20.4834 1.96533C21.3257 1.96533 21.6919 2.30713 21.6919 3.17383L21.6919 15.8081C21.6919 16.6626 21.3257 17.0044 20.4834 17.0044L3.17383 17.0044C2.33154 17.0044 1.96533 16.6626 1.96533 15.8081ZM18.7256 19.6777C18.2861 19.6777 17.8955 19.2871 17.8955 18.8232C17.8955 18.3838 18.2861 17.9932 18.7256 17.9932C19.2017 17.9932 19.5801 18.3838 19.5801 18.8232C19.5801 19.2871 19.2017 19.6777 18.7256 19.6777ZM11.8286 22.4121C15.3076 22.4121 18.0176 21.6187 18.8354 20.3857L4.82178 20.3857C5.63965 21.6187 8.34961 22.4121 11.8286 22.4121ZM5.96924 24.2554L17.688 24.2554C18.7866 24.2554 18.8599 23.0469 18.1274 22.7173L15.1733 21.3501L8.48389 21.3501L5.52979 22.7173C4.79736 23.0469 4.87061 24.2554 5.96924 24.2554ZM4.98047 13.7329L10.6934 13.7329C10.9375 13.7329 11.1328 13.5498 11.1328 13.2812C11.1328 13.0249 10.9375 12.8662 10.6934 12.8662L4.98047 12.8662C4.71191 12.8662 4.52881 13.0249 4.52881 13.2812C4.52881 13.5498 4.71191 13.7329 4.98047 13.7329ZM4.98047 11.6699L13.0005 11.6699C13.2568 11.6699 13.4277 11.499 13.4277 11.2183C13.4277 10.9619 13.2568 10.8032 13.0005 10.8032L4.98047 10.8032C4.71191 10.8032 4.52881 10.9619 4.52881 11.2183C4.52881 11.499 4.71191 11.6699 4.98047 11.6699ZM5.11475 6.72607C5.44434 6.72607 5.70068 6.45752 5.70068 6.14014C5.70068 5.81055 5.44434 5.54199 5.11475 5.54199C4.78516 5.54199 4.52881 5.81055 4.52881 6.14014C4.52881 6.45752 4.78516 6.72607 5.11475 6.72607ZM5.11475 8.92334C5.44434 8.92334 5.70068 8.65479 5.70068 8.3252C5.70068 8.00781 5.44434 7.73926 5.11475 7.73926C4.78516 7.73926 4.52881 8.00781 4.52881 8.3252C4.52881 8.65479 4.78516 8.92334 5.11475 8.92334ZM6.56738 7.17773C6.56738 7.93457 6.98242 8.6792 7.34863 8.99658C7.44629 9.08203 7.55615 9.11865 7.66602 9.11865C7.87354 9.11865 8.03223 8.95996 8.03223 8.76465C8.03223 8.60596 7.94678 8.52051 7.83691 8.41064C7.48291 8.05664 7.33643 7.61719 7.33643 7.17773C7.33643 6.72607 7.50732 6.31104 7.83691 5.94482C7.94678 5.82275 8.03223 5.7373 8.03223 5.57861C8.03223 5.3833 7.87354 5.22461 7.66602 5.22461C7.56836 5.22461 7.44629 5.27344 7.34863 5.35889C6.87256 5.76172 6.56738 6.4209 6.56738 7.17773Z" fill="#5ac8f5"/>
 </g>
</svg>
