<?xml version="1.0" encoding="UTF-8"?>
<!--Generator: Apple Native CoreSVG 175.5-->
<!DOCTYPE svg
PUBLIC "-//W3C//DTD SVG 1.1//EN"
       "http://www.w3.org/Graphics/SVG/1.1/DTD/svg11.dtd">
<svg version="1.1" xmlns="http://www.w3.org/2000/svg" xmlns:xlink="http://www.w3.org/1999/xlink" width="26.2817" height="25.9888">
 <g>
  <rect height="25.9888" opacity="0" width="26.2817" x="0" y="0"/>
  <path d="M0.976562 15.8325C1.53809 15.8325 1.96533 15.3931 1.96533 14.8438L1.96533 11.145C1.96533 10.5957 1.53809 10.144 0.976562 10.144C0.415039 10.144 0 10.5957 0 11.145L0 14.8438C0 15.3931 0.415039 15.8325 0.976562 15.8325ZM5.07812 20.8252C5.63965 20.8252 6.0791 20.3857 6.0791 19.8364L6.0791 6.15234C6.0791 5.60303 5.63965 5.15137 5.07812 5.15137C4.52881 5.15137 4.11377 5.60303 4.11377 6.15234L4.11377 19.8364C4.11377 20.3857 4.52881 20.8252 5.07812 20.8252ZM9.17969 25.7446C9.75342 25.7446 10.1807 25.3052 10.1807 24.7559L10.1807 1.23291C10.1807 0.683594 9.75342 0.244141 9.17969 0.244141C8.63037 0.244141 8.21533 0.683594 8.21533 1.23291L8.21533 24.7559C8.21533 25.3052 8.63037 25.7446 9.17969 25.7446ZM13.3057 19.3359C13.855 19.3359 14.2822 18.9087 14.2822 18.3594L14.2822 7.62939C14.2822 7.08008 13.855 6.64062 13.3057 6.64062C12.7319 6.64062 12.3169 7.08008 12.3169 7.62939L12.3169 18.3594C12.3169 18.9087 12.7319 19.3359 13.3057 19.3359ZM16.4307 15.7227C17.0166 15.3931 17.7856 15.3564 18.396 15.6372L18.396 3.93066C18.396 3.39355 17.9565 2.94189 17.4072 2.94189C16.8457 2.94189 16.4307 3.39355 16.4307 3.93066ZM18.4692 25.9888L24.6826 25.9888C25.0732 25.9888 25.3296 25.7202 25.3296 25.3296C25.3296 24.939 25.0732 24.6704 24.6826 24.6704L22.229 24.6704L22.229 23.4497C24.6582 23.1567 26.2817 21.3135 26.2817 18.8354L26.2817 17.7612C26.2817 17.4194 25.9888 17.1143 25.647 17.1143C25.293 17.1143 24.9878 17.4194 24.9878 17.7612L24.9878 18.8354C24.9878 20.8374 23.584 22.2412 21.5698 22.2412C19.5435 22.2412 18.1519 20.8374 18.1519 18.8354L18.1519 17.7612C18.1519 17.4194 17.8467 17.1143 17.4927 17.1143C17.1509 17.1143 16.8579 17.4194 16.8579 17.7612L16.8579 18.8354C16.8579 21.3135 18.4814 23.1689 20.9106 23.4497L20.9106 24.6704L18.4692 24.6704C18.0786 24.6704 17.7979 24.939 17.7979 25.3296C17.7979 25.7202 18.0786 25.9888 18.4692 25.9888ZM21.5698 21.0083C22.7661 21.0083 23.5962 20.0806 23.5962 18.8477L23.5962 14.0503C23.5962 12.8174 22.7661 11.9019 21.5698 11.9019C20.3735 11.9019 19.5435 12.8174 19.5435 14.0503L19.5435 18.8477C19.5435 20.0806 20.3735 21.0083 21.5698 21.0083Z" fill="#5ac8f5"/>
 </g>
</svg>
