<?xml version="1.0" encoding="UTF-8"?>
<!--Generator: Apple Native CoreSVG 175.5-->
<!DOCTYPE svg
PUBLIC "-//W3C//DTD SVG 1.1//EN"
       "http://www.w3.org/Graphics/SVG/1.1/DTD/svg11.dtd">
<svg version="1.1" xmlns="http://www.w3.org/2000/svg" xmlns:xlink="http://www.w3.org/1999/xlink" width="30.5176" height="25.2319">
 <g>
  <rect height="25.2319" opacity="0" width="30.5176" x="0" y="0"/>
  <path d="M3.13721 21.0938L27.3804 21.0938C29.4678 21.0938 30.5176 20.105 30.5176 17.9565L30.5176 3.96729C30.5176 1.83105 29.4678 0.842285 27.3804 0.842285L3.13721 0.842285C1.0498 0.842285 0 1.83105 0 3.96729L0 17.9565C0 20.105 1.0498 21.0938 3.13721 21.0938ZM9.11865 25.2319L21.3989 25.2319C21.936 25.2319 22.3877 24.7925 22.3877 24.2432C22.3877 23.6938 21.936 23.2544 21.3989 23.2544L9.11865 23.2544C8.58154 23.2544 8.12988 23.6938 8.12988 24.2432C8.12988 24.7925 8.58154 25.2319 9.11865 25.2319Z" fill="#5ac8f5" fill-opacity="0.25"/>
  <path d="M11.1572 16.1377L11.1572 5.79834C11.1572 5.13916 11.853 4.90723 12.3779 5.2124L20.8374 10.2051C21.4355 10.5591 21.46 11.377 20.8496 11.7432L12.3779 16.7236C11.853 17.0288 11.1572 16.7969 11.1572 16.1377Z" fill="#5ac8f5"/>
 </g>
</svg>
