<?xml version="1.0" encoding="UTF-8"?>
<!--Generator: Apple Native CoreSVG 175.5-->
<!DOCTYPE svg
PUBLIC "-//W3C//DTD SVG 1.1//EN"
       "http://www.w3.org/Graphics/SVG/1.1/DTD/svg11.dtd">
<svg version="1.1" xmlns="http://www.w3.org/2000/svg" xmlns:xlink="http://www.w3.org/1999/xlink" width="7.94678" height="27.8687">
 <g>
  <rect height="27.8687" opacity="0" width="7.94678" x="0" y="0"/>
  <path d="M2.96631 27.8564L5.00488 27.8564L5.00488 16.1377L2.96631 16.1377ZM1.50146 17.9932L6.45752 17.9932C7.51953 17.9932 7.94678 17.5659 7.94678 16.4917L7.94678 7.10449C7.94678 6.04248 7.51953 5.60303 6.45752 5.60303L1.50146 5.60303C0.427246 5.60303 0 6.04248 0 7.10449L0 16.4917C0 17.5659 0.427246 17.9932 1.50146 17.9932ZM1.59912 4.1748L6.34766 4.1748L6.34766 1.50146C6.34766 0.427246 5.9082 0 4.84619 0L3.11279 0C2.03857 0 1.59912 0.427246 1.59912 1.50146Z" fill="#5ac8f5"/>
 </g>
</svg>
