<?xml version="1.0" encoding="UTF-8"?>
<!--Generator: Apple Native CoreSVG 175.5-->
<!DOCTYPE svg
PUBLIC "-//W3C//DTD SVG 1.1//EN"
       "http://www.w3.org/Graphics/SVG/1.1/DTD/svg11.dtd">
<svg version="1.1" xmlns="http://www.w3.org/2000/svg" xmlns:xlink="http://www.w3.org/1999/xlink" width="24.9023" height="24.9146">
 <g>
  <rect height="24.9146" opacity="0" width="24.9023" x="0" y="0"/>
  <path d="M12.4512 24.9023C19.2627 24.9023 24.9023 19.2505 24.9023 12.4512C24.9023 5.63965 19.2505 0 12.439 0C5.63965 0 0 5.63965 0 12.4512C0 19.2505 5.65186 24.9023 12.4512 24.9023ZM8.17871 17.8833C6.01807 17.8833 4.57764 15.7959 4.57764 12.4512C4.57764 9.09424 6.01807 7.01904 8.17871 7.01904C10.3638 7.01904 11.792 9.09424 11.792 12.4512C11.792 15.7959 10.3638 17.8833 8.17871 17.8833ZM8.17871 16.3452C9.39941 16.3452 10.1196 14.8682 10.1196 12.4512C10.1196 10.0342 9.38721 8.55713 8.17871 8.55713C6.99463 8.55713 6.25 10.0342 6.25 12.4512C6.25 14.8682 6.99463 16.3452 8.17871 16.3452ZM16.9556 17.8955C15.686 17.8955 14.5996 17.4072 13.9648 16.1865C13.5254 15.4053 13.2812 14.2822 13.2812 12.7441C13.2812 8.91113 14.7827 7.01904 17.1997 7.01904C18.6279 7.01904 19.6411 7.76367 19.9585 8.60596C20.0317 8.77686 20.0684 8.92334 20.0684 9.09424C20.0684 9.50928 19.7876 9.79004 19.4336 9.79004C19.0918 9.79004 18.8965 9.63135 18.6768 9.31396C18.3594 8.82568 17.8589 8.48389 17.1265 8.48389C15.7227 8.48389 14.7583 9.97314 14.7583 12.3413C14.7583 12.4023 14.7583 12.4268 14.7583 12.4634L14.856 12.4634C15.1611 11.6333 16.0156 10.8765 17.3462 10.8765C18.9819 10.8765 20.459 12.0728 20.459 14.2334C20.459 16.5405 19.0063 17.8955 16.9556 17.8955ZM16.8945 16.5039C18.103 16.5039 18.8599 15.6494 18.8599 14.3066C18.8599 13.0493 18.0664 12.1826 16.8945 12.1826C15.7104 12.1826 14.9048 13.0615 14.9048 14.2944C14.9048 15.5884 15.7227 16.5039 16.8945 16.5039Z" fill="#5ac8f5"/>
 </g>
</svg>
