<?xml version="1.0" encoding="UTF-8"?>
<!--Generator: Apple Native CoreSVG 175.5-->
<!DOCTYPE svg
PUBLIC "-//W3C//DTD SVG 1.1//EN"
       "http://www.w3.org/Graphics/SVG/1.1/DTD/svg11.dtd">
<svg version="1.1" xmlns="http://www.w3.org/2000/svg" xmlns:xlink="http://www.w3.org/1999/xlink" width="22.4731" height="22.4976">
 <g>
  <rect height="22.4976" opacity="0" width="22.4731" x="0" y="0"/>
  <path d="M3.83301 22.4976L18.6401 22.4976C21.2036 22.4976 22.4731 21.228 22.4731 18.7134L22.4731 3.80859C22.4731 1.29395 21.2036 0.0244141 18.6401 0.0244141L3.83301 0.0244141C1.28174 0.0244141 0 1.28174 0 3.80859L0 18.7134C0 21.2402 1.28174 22.4976 3.83301 22.4976Z" fill="#5ac8f5" fill-opacity="0.25"/>
  <path d="M7.50732 17.0166C6.97021 17.0166 6.56738 16.6382 6.56738 16.1377C6.56738 15.8813 6.62842 15.7104 6.79932 15.4785L9.98535 11.0596L6.97021 6.90918C6.7749 6.62842 6.70166 6.45752 6.70166 6.17676C6.70166 5.66406 7.15332 5.23682 7.69043 5.23682C8.11768 5.23682 8.36182 5.39551 8.65479 5.79834L11.3281 9.68018L11.4014 9.68018L14.0259 5.81055C14.2944 5.39551 14.5508 5.23682 14.9414 5.23682C15.4785 5.23682 15.9058 5.62744 15.9058 6.12793C15.9058 6.35986 15.8325 6.56738 15.6494 6.79932L12.4756 11.1206L15.625 15.4297C15.7959 15.6494 15.8691 15.8325 15.8691 16.0889C15.8691 16.6382 15.4541 17.0166 14.8804 17.0166C14.4775 17.0166 14.2456 16.8701 13.9282 16.4307L11.2183 12.561L11.1694 12.561L8.44727 16.4307C8.12988 16.8701 7.91016 17.0166 7.50732 17.0166Z" fill="#5ac8f5"/>
 </g>
</svg>
