<?xml version="1.0" encoding="UTF-8"?>
<!--Generator: Apple Native CoreSVG 175.5-->
<!DOCTYPE svg
PUBLIC "-//W3C//DTD SVG 1.1//EN"
       "http://www.w3.org/Graphics/SVG/1.1/DTD/svg11.dtd">
<svg version="1.1" xmlns="http://www.w3.org/2000/svg" xmlns:xlink="http://www.w3.org/1999/xlink" width="26.9531" height="31.0181">
 <g>
  <rect height="31.0181" opacity="0" width="26.9531" x="0" y="0"/>
  <path d="M0.280762 25.6348L8.1543 17.8711L1.55029 11.4502C1.29395 11.1816 1.29395 10.8765 1.55029 10.6812L11.9995 2.6001C12.6343 2.11182 12.9761 1.86768 13.4766 1.86768C13.9771 1.86768 14.3066 2.11182 14.9536 2.6001L25.4028 10.6812C25.6592 10.8765 25.6592 11.1938 25.4028 11.4502L18.8354 17.8711L26.6724 25.6104C26.8555 25.2686 26.9531 24.6826 26.9531 23.8525L26.9531 11.4746C26.9531 10.1807 26.7334 9.53369 25.8301 8.78906L15.9912 1.15967C15.0879 0.45166 14.3799 0 13.4766 0C12.5732 0 11.8652 0.45166 10.9619 1.15967L1.11084 8.78906C0.231934 9.52148 0 10.1807 0 11.4746L0 23.8525C0 24.707 0.0976562 25.293 0.280762 25.6348ZM3.4668 27.6367L23.1201 27.6367C24.3286 27.6367 25.1709 27.417 25.6226 26.9775L15.0024 16.4795C14.4653 15.9424 14.0015 15.7104 13.501 15.7104C12.9883 15.7104 12.5244 15.9424 11.9995 16.4795L1.30615 27.0386C1.72119 27.4414 2.44141 27.6367 3.4668 27.6367Z" fill="#5ac8f5"/>
 </g>
</svg>
