<?xml version="1.0" encoding="UTF-8"?>
<!--Generator: Apple Native CoreSVG 175.5-->
<!DOCTYPE svg
PUBLIC "-//W3C//DTD SVG 1.1//EN"
       "http://www.w3.org/Graphics/SVG/1.1/DTD/svg11.dtd">
<svg version="1.1" xmlns="http://www.w3.org/2000/svg" xmlns:xlink="http://www.w3.org/1999/xlink" width="22.6685" height="22.6929">
 <g>
  <rect height="22.6929" opacity="0" width="22.6685" x="0" y="0"/>
  <path d="M3.69873 2.22168C4.32129 2.22168 4.80957 1.7334 4.80957 1.13525C4.80957 0.524902 4.32129 0.0244141 3.69873 0.0244141C3.11279 0.0244141 2.6123 0.524902 2.6123 1.13525C2.6123 1.72119 3.11279 2.22168 3.69873 2.22168ZM7.51953 2.22168C8.12988 2.22168 8.63037 1.7334 8.63037 1.13525C8.63037 0.524902 8.12988 0.0244141 7.51953 0.0244141C6.92139 0.0244141 6.4209 0.524902 6.4209 1.13525C6.4209 1.72119 6.92139 2.22168 7.51953 2.22168ZM11.3403 2.22168C11.9385 2.22168 12.439 1.7334 12.439 1.13525C12.439 0.524902 11.9385 0.0244141 11.3403 0.0244141C10.73 0.0244141 10.2295 0.524902 10.2295 1.13525C10.2295 1.72119 10.73 2.22168 11.3403 2.22168ZM15.1489 2.22168C15.7471 2.22168 16.2476 1.7334 16.2476 1.13525C16.2476 0.524902 15.7471 0.0244141 15.1489 0.0244141C14.5386 0.0244141 14.0381 0.524902 14.0381 1.13525C14.0381 1.72119 14.5386 2.22168 15.1489 2.22168ZM18.9575 2.22168C19.5557 2.22168 20.0562 1.7334 20.0562 1.13525C20.0562 0.524902 19.5557 0.0244141 18.9575 0.0244141C18.3472 0.0244141 17.8467 0.524902 17.8467 1.13525C17.8467 1.72119 18.3472 2.22168 18.9575 2.22168ZM21.5698 4.83398C22.168 4.83398 22.6685 4.3335 22.6685 3.72314C22.6685 3.125 22.168 2.62451 21.5698 2.62451C20.9717 2.62451 20.4712 3.125 20.4712 3.72314C20.4712 4.3335 20.9595 4.83398 21.5698 4.83398ZM21.5698 8.64258C22.168 8.64258 22.6685 8.14209 22.6685 7.53174C22.6685 6.93359 22.168 6.43311 21.5698 6.43311C20.9717 6.43311 20.4712 6.93359 20.4712 7.53174C20.4712 8.14209 20.9595 8.64258 21.5698 8.64258ZM21.5698 12.4512C22.168 12.4512 22.6685 11.9507 22.6685 11.3525C22.6685 10.7422 22.168 10.2417 21.5698 10.2417C20.9717 10.2417 20.4712 10.7422 20.4712 11.3525C20.4712 11.9507 20.9595 12.4512 21.5698 12.4512ZM21.5698 16.272C22.168 16.272 22.6685 15.7715 22.6685 15.1733C22.6685 14.563 22.168 14.0625 21.5698 14.0625C20.9717 14.0625 20.4712 14.563 20.4712 15.1733C20.4712 15.7715 20.9595 16.272 21.5698 16.272ZM21.5698 20.0806C22.168 20.0806 22.6685 19.5801 22.6685 18.9819C22.6685 18.3716 22.168 17.8711 21.5698 17.8711C20.9717 17.8711 20.4712 18.3716 20.4712 18.9819C20.4712 19.5801 20.9595 20.0806 21.5698 20.0806ZM18.9575 22.6929C19.5557 22.6929 20.0562 22.2046 20.0562 21.6064C20.0562 20.9961 19.5557 20.4956 18.9575 20.4956C18.3472 20.4956 17.8467 20.9961 17.8467 21.6064C17.8467 22.1924 18.3472 22.6929 18.9575 22.6929ZM15.1489 22.6929C15.7471 22.6929 16.2476 22.2046 16.2476 21.6064C16.2476 20.9961 15.7471 20.4956 15.1489 20.4956C14.5386 20.4956 14.0381 20.9961 14.0381 21.6064C14.0381 22.1924 14.5386 22.6929 15.1489 22.6929ZM11.3403 22.6929C11.9385 22.6929 12.439 22.2046 12.439 21.6064C12.439 20.9961 11.9385 20.4956 11.3403 20.4956C10.73 20.4956 10.2295 20.9961 10.2295 21.6064C10.2295 22.1924 10.73 22.6929 11.3403 22.6929ZM7.51953 22.6929C8.12988 22.6929 8.63037 22.2046 8.63037 21.6064C8.63037 20.9961 8.12988 20.4956 7.51953 20.4956C6.92139 20.4956 6.4209 20.9961 6.4209 21.6064C6.4209 22.1924 6.92139 22.6929 7.51953 22.6929ZM3.69873 22.6929C4.32129 22.6929 4.80957 22.2046 4.80957 21.6064C4.80957 20.9961 4.32129 20.4956 3.69873 20.4956C3.11279 20.4956 2.6123 20.9961 2.6123 21.6064C2.6123 22.1924 3.11279 22.6929 3.69873 22.6929ZM1.09863 20.0806C1.69678 20.0806 2.19727 19.5801 2.19727 18.9819C2.19727 18.3716 1.69678 17.8711 1.09863 17.8711C0.500488 17.8711 0 18.3716 0 18.9819C0 19.5801 0.500488 20.0806 1.09863 20.0806ZM1.09863 16.272C1.69678 16.272 2.19727 15.7715 2.19727 15.1733C2.19727 14.563 1.69678 14.0625 1.09863 14.0625C0.500488 14.0625 0 14.563 0 15.1733C0 15.7715 0.500488 16.272 1.09863 16.272ZM1.09863 12.4512C1.69678 12.4512 2.19727 11.9507 2.19727 11.3525C2.19727 10.7422 1.69678 10.2417 1.09863 10.2417C0.500488 10.2417 0 10.7422 0 11.3525C0 11.9507 0.500488 12.4512 1.09863 12.4512ZM1.09863 8.64258C1.69678 8.64258 2.19727 8.14209 2.19727 7.53174C2.19727 6.93359 1.69678 6.43311 1.09863 6.43311C0.500488 6.43311 0 6.93359 0 7.53174C0 8.14209 0.500488 8.64258 1.09863 8.64258ZM1.09863 4.83398C1.69678 4.83398 2.19727 4.3335 2.19727 3.72314C2.19727 3.125 1.69678 2.62451 1.09863 2.62451C0.500488 2.62451 0 3.125 0 3.72314C0 4.3335 0.500488 4.83398 1.09863 4.83398Z" fill="#5ac8f5"/>
 </g>
</svg>
