<?xml version="1.0" encoding="UTF-8"?>
<!--Generator: Apple Native CoreSVG 175.5-->
<!DOCTYPE svg
PUBLIC "-//W3C//DTD SVG 1.1//EN"
       "http://www.w3.org/Graphics/SVG/1.1/DTD/svg11.dtd">
<svg version="1.1" xmlns="http://www.w3.org/2000/svg" xmlns:xlink="http://www.w3.org/1999/xlink" width="19.8853" height="19.9097">
 <g>
  <rect height="19.9097" opacity="0" width="19.8853" x="0" y="0"/>
  <path d="M0 17.1997C0 18.8965 1.02539 19.8975 2.73438 19.8975L17.1509 19.8975C18.8721 19.8975 19.8853 18.8965 19.8853 17.1997L19.8853 2.69775C19.8853 1.00098 18.8721 0 17.1509 0L2.73438 0C1.02539 0 0 1.00098 0 2.69775ZM1.96533 16.7358L1.96533 3.16162C1.96533 2.41699 2.40479 1.96533 3.13721 1.96533L16.748 1.96533C17.4927 1.96533 17.9199 2.41699 17.9199 3.16162L17.9199 16.7358C17.9199 17.4805 17.4927 17.9321 16.748 17.9321L3.13721 17.9321C2.40479 17.9321 1.96533 17.4805 1.96533 16.7358Z" fill="#5ac8f5"/>
 </g>
</svg>
