<?xml version="1.0" encoding="UTF-8"?>
<!--Generator: Apple Native CoreSVG 175.5-->
<!DOCTYPE svg
PUBLIC "-//W3C//DTD SVG 1.1//EN"
       "http://www.w3.org/Graphics/SVG/1.1/DTD/svg11.dtd">
<svg version="1.1" xmlns="http://www.w3.org/2000/svg" xmlns:xlink="http://www.w3.org/1999/xlink" width="24.2554" height="23.1567">
 <g>
  <rect height="23.1567" opacity="0" width="24.2554" x="0" y="0"/>
  <path d="M12.9639 8.56934C12.9639 8.06885 12.5244 7.65381 12.0239 7.65381C11.5234 7.65381 11.0962 8.06885 11.0962 8.56934L11.0962 12.9883L11.1694 14.978L10.1318 13.9038L9.05762 12.8174C8.89893 12.6343 8.64258 12.5366 8.41064 12.5366C7.91016 12.5366 7.55615 12.8906 7.55615 13.3789C7.55615 13.6597 7.66602 13.8672 7.86133 14.0381L11.3403 17.2363C11.5967 17.4805 11.792 17.5537 12.0239 17.5537C12.2559 17.5537 12.4512 17.4805 12.7075 17.2363L16.1865 14.0381C16.3818 13.8672 16.4917 13.6597 16.4917 13.3789C16.4917 12.8906 16.1255 12.5366 15.6372 12.5366C15.3931 12.5366 15.1611 12.6343 14.9902 12.8174L13.916 13.9038L12.8784 14.978L12.9639 12.9883ZM0 8.11768C0 13.3179 4.35791 18.4326 11.2427 22.8271C11.499 22.9858 11.8774 23.1567 12.1216 23.1567C12.3779 23.1567 12.7441 22.9858 13.0127 22.8271C19.8975 18.4326 24.2554 13.3179 24.2554 8.11768C24.2554 3.79639 21.2891 0.744629 17.3218 0.744629C15.0635 0.744629 13.2324 1.81885 12.1216 3.4668C11.0352 1.83105 9.19189 0.744629 6.92139 0.744629C2.96631 0.744629 0 3.79639 0 8.11768ZM1.96533 8.11768C1.96533 4.87061 4.06494 2.70996 6.89697 2.70996C9.2041 2.70996 10.5103 4.13818 11.3037 5.35889C11.6333 5.84717 11.8408 5.98145 12.1216 5.98145C12.4146 5.98145 12.5977 5.83496 12.9517 5.35889C13.7939 4.1626 15.0635 2.70996 17.3462 2.70996C20.1904 2.70996 22.29 4.87061 22.29 8.11768C22.29 12.6587 17.4927 17.5537 12.3779 20.9473C12.2559 21.0327 12.1704 21.0938 12.1216 21.0938C12.085 21.0938 11.9995 21.0327 11.8774 20.9473C6.7627 17.5537 1.96533 12.6587 1.96533 8.11768Z" fill="#5ac8f5"/>
 </g>
</svg>
