<?xml version="1.0" encoding="UTF-8"?>
<!--Generator: Apple Native CoreSVG 175.5-->
<!DOCTYPE svg
PUBLIC "-//W3C//DTD SVG 1.1//EN"
       "http://www.w3.org/Graphics/SVG/1.1/DTD/svg11.dtd">
<svg version="1.1" xmlns="http://www.w3.org/2000/svg" xmlns:xlink="http://www.w3.org/1999/xlink" width="24.9023" height="24.9146">
 <g>
  <rect height="24.9146" opacity="0" width="24.9023" x="0" y="0"/>
  <path d="M12.4512 24.9023C19.2627 24.9023 24.9023 19.2505 24.9023 12.4512C24.9023 5.63965 19.2505 0 12.439 0C5.63965 0 0 5.63965 0 12.4512C0 19.2505 5.65186 24.9023 12.4512 24.9023Z" fill="#5ac8f5" fill-opacity="0.25"/>
  <path d="M12.4512 13.4155C8.66699 13.4155 5.68848 12.0483 5.68848 10.3149C5.68848 8.61816 8.66699 7.2876 12.4512 7.2876C16.2354 7.2876 19.2139 8.61816 19.2139 10.3149C19.2139 12.0483 16.2354 13.4155 12.4512 13.4155ZM12.4512 17.6025C8.63037 17.6025 5.68848 15.8936 5.68848 13.7939L5.68848 12.2803C7.00684 13.562 9.61914 14.3188 12.4512 14.3188C15.2954 14.3188 17.9077 13.562 19.2139 12.2803L19.2139 13.7939C19.2139 15.8936 16.2598 17.6025 12.4512 17.6025Z" fill="#5ac8f5"/>
 </g>
</svg>
