<?xml version="1.0" encoding="UTF-8"?>
<!--Generator: Apple Native CoreSVG 175.5-->
<!DOCTYPE svg
PUBLIC "-//W3C//DTD SVG 1.1//EN"
       "http://www.w3.org/Graphics/SVG/1.1/DTD/svg11.dtd">
<svg version="1.1" xmlns="http://www.w3.org/2000/svg" xmlns:xlink="http://www.w3.org/1999/xlink" width="24.9023" height="24.9146">
 <g>
  <rect height="24.9146" opacity="0" width="24.9023" x="0" y="0"/>
  <path d="M12.4512 24.9023C19.2627 24.9023 24.9023 19.2505 24.9023 12.4512C24.9023 5.63965 19.2505 0 12.439 0C5.63965 0 0 5.63965 0 12.4512C0 19.2505 5.65186 24.9023 12.4512 24.9023ZM12.4512 22.8271C6.68945 22.8271 2.0874 18.2129 2.0874 12.4512C2.0874 6.68945 6.67725 2.0752 12.439 2.0752C18.2007 2.0752 22.8271 6.68945 22.8271 12.4512C22.8271 18.2129 18.2129 22.8271 12.4512 22.8271Z" fill="#5ac8f5" fill-opacity="0.5"/>
  <path d="M5.85938 17.0532C5.85938 17.627 6.23779 18.0054 6.82373 18.0054L18.457 18.0054C18.8232 18.0054 19.1284 17.7002 19.1284 17.334C19.1284 16.9678 18.8232 16.6626 18.457 16.6626L7.23877 16.6626C7.21436 16.6626 7.21436 16.6748 7.21436 16.6382L7.21436 7.21436C7.21436 6.84814 6.90918 6.54297 6.54297 6.54297C6.17676 6.54297 5.85938 6.84814 5.85938 7.21436ZM15.1123 9.65576L15.1123 13.5132C15.1123 13.9404 15.5762 14.1479 15.9668 13.916L19.0552 12.0483C19.4092 11.8408 19.4092 11.3403 19.0674 11.145L15.9546 9.28955C15.5518 9.05762 15.1123 9.24072 15.1123 9.65576ZM6.66504 12.2803L15.3687 12.2803L15.3687 10.9253L6.66504 10.9253Z" fill="#5ac8f5"/>
 </g>
</svg>
