<?xml version="1.0" encoding="UTF-8"?>
<!--Generator: Apple Native CoreSVG 175.5-->
<!DOCTYPE svg
PUBLIC "-//W3C//DTD SVG 1.1//EN"
       "http://www.w3.org/Graphics/SVG/1.1/DTD/svg11.dtd">
<svg version="1.1" xmlns="http://www.w3.org/2000/svg" xmlns:xlink="http://www.w3.org/1999/xlink" width="24.9023" height="24.939">
 <g>
  <rect height="24.939" opacity="0" width="24.9023" x="0" y="0"/>
  <path d="M12.4512 24.939C19.2627 24.939 24.9023 19.2993 24.9023 12.4878C24.9023 5.68848 19.2505 0.0366211 12.439 0.0366211C5.63965 0.0366211 0 5.68848 0 12.4878C0 19.2993 5.65186 24.939 12.4512 24.939ZM6.9458 19.4214C6.65283 19.4214 6.38428 19.1528 6.38428 18.8599C6.38428 18.5669 6.65283 18.3472 6.9458 18.3472L7.17773 18.3472L7.17773 6.68945C7.17773 5.65186 7.75146 5.09033 8.77686 5.09033L14.3555 5.09033C15.3931 5.09033 15.9546 5.65186 15.9546 6.68945L15.9546 15.6982L17.7612 15.6982C18.1763 15.6982 18.4082 15.4907 18.4082 15.0635L18.4082 11.6821L17.3706 10.4736C17.0044 10.0464 16.98 9.69238 17.3096 9.24072L18.2495 7.92236L17.334 6.46973C17.0044 5.9082 17.8223 5.39551 18.1763 5.95703L19.0552 7.38525C19.2505 7.72705 19.3848 8.06885 19.3848 8.49609L19.3848 15.0757C19.3848 16.1255 18.8354 16.6748 17.7612 16.6748L15.9546 16.6748L15.9546 18.3472L16.1743 18.3472C16.5039 18.3472 16.748 18.5669 16.748 18.8599C16.748 19.1528 16.5039 19.4214 16.1743 19.4214ZM8.80127 11.4258C8.80127 11.8164 9.06982 12.0728 9.49707 12.0728L13.6475 12.0728C14.0747 12.0728 14.3433 11.8164 14.3433 11.4258L14.3433 7.37305C14.3433 6.98242 14.0747 6.73828 13.6475 6.73828L9.49707 6.73828C9.06982 6.73828 8.80127 6.98242 8.80127 7.37305Z" fill="#5ac8f5"/>
 </g>
</svg>
