<?xml version="1.0" encoding="UTF-8"?>
<!--Generator: Apple Native CoreSVG 175.5-->
<!DOCTYPE svg
PUBLIC "-//W3C//DTD SVG 1.1//EN"
       "http://www.w3.org/Graphics/SVG/1.1/DTD/svg11.dtd">
<svg version="1.1" xmlns="http://www.w3.org/2000/svg" xmlns:xlink="http://www.w3.org/1999/xlink" width="24.9023" height="24.9146">
 <g>
  <rect height="24.9146" opacity="0" width="24.9023" x="0" y="0"/>
  <path d="M12.4512 24.9023C19.2627 24.9023 24.9023 19.2505 24.9023 12.4512C24.9023 5.63965 19.2505 0 12.439 0C5.63965 0 0 5.63965 0 12.4512C0 19.2505 5.65186 24.9023 12.4512 24.9023ZM9.38721 9.06982C8.97217 9.06982 8.63037 8.71582 8.63037 8.30078C8.63037 7.87354 8.94775 7.54395 9.38721 7.54395L18.811 7.54395C19.2505 7.54395 19.5923 7.87354 19.5923 8.30078C19.5923 8.72803 19.2505 9.06982 18.811 9.06982ZM9.38721 17.395C8.94775 17.395 8.63037 17.0532 8.63037 16.626C8.63037 16.2109 8.97217 15.8691 9.38721 15.8691L18.811 15.8691C19.2505 15.8691 19.5923 16.1987 19.5923 16.626C19.5923 17.0532 19.2505 17.395 18.811 17.395ZM9.38721 13.2324C8.97217 13.2324 8.63037 12.8784 8.63037 12.4634C8.63037 12.0483 8.97217 11.7065 9.38721 11.7065L18.811 11.7065C19.2505 11.7065 19.5923 12.0361 19.5923 12.4634C19.5923 12.8906 19.2505 13.2324 18.811 13.2324ZM6.34766 9.38721C5.74951 9.38721 5.27344 8.89893 5.27344 8.30078C5.27344 7.69043 5.74951 7.21436 6.34766 7.21436C6.95801 7.21436 7.43408 7.69043 7.43408 8.30078C7.43408 8.88672 6.9458 9.38721 6.34766 9.38721ZM6.34766 13.5498C5.74951 13.5498 5.27344 13.0737 5.27344 12.4634C5.27344 11.853 5.74951 11.377 6.34766 11.377C6.9458 11.377 7.43408 11.8652 7.43408 12.4634C7.43408 13.0615 6.9458 13.5498 6.34766 13.5498ZM6.34766 17.7124C5.74951 17.7124 5.27344 17.2363 5.27344 16.626C5.27344 16.0278 5.74951 15.5396 6.34766 15.5396C6.9458 15.5396 7.43408 16.04 7.43408 16.626C7.43408 17.2363 6.95801 17.7124 6.34766 17.7124Z" fill="#5ac8f5"/>
 </g>
</svg>
