<?xml version="1.0" encoding="UTF-8"?>
<!--Generator: Apple Native CoreSVG 175.5-->
<!DOCTYPE svg
PUBLIC "-//W3C//DTD SVG 1.1//EN"
       "http://www.w3.org/Graphics/SVG/1.1/DTD/svg11.dtd">
<svg version="1.1" xmlns="http://www.w3.org/2000/svg" xmlns:xlink="http://www.w3.org/1999/xlink" width="25.769" height="24.9146">
 <g>
  <rect height="24.9146" opacity="0" width="25.769" x="0" y="0"/>
  <path d="M14.5996 16.3818C17.0898 16.3818 19.104 14.3799 19.104 11.8774C19.104 9.38721 17.0898 7.37305 14.5996 7.37305C12.1094 7.37305 10.0952 9.38721 10.0952 11.8774C10.0952 14.3799 12.1094 16.3818 14.5996 16.3818ZM3.23486 13.4644C4.99268 13.4644 6.45752 12.0117 6.45752 10.2295C6.45752 8.47168 4.99268 7.01904 3.23486 7.01904C1.45264 7.01904 0 8.47168 0 10.2295C0 12.0117 1.45264 13.4644 3.23486 13.4644ZM7.99561 24.5117C9.8877 24.5117 11.4502 22.9492 11.4502 21.0327C11.4502 19.1406 9.8877 17.5781 7.99561 17.5781C6.0791 17.5781 4.5166 19.1406 4.5166 21.0327C4.5166 22.9492 6.0791 24.5117 7.99561 24.5117ZM21.2769 24.9023C21.5332 24.9023 21.7529 24.707 21.7896 24.4385C22.1802 21.5088 22.1924 21.5332 25.3052 20.9351C25.5737 20.8862 25.769 20.6787 25.769 20.4224C25.769 20.1538 25.5737 19.9585 25.293 19.9097C22.229 19.4702 22.168 19.4214 21.7896 16.4185C21.7651 16.1377 21.5454 15.9424 21.2769 15.9424C20.9961 15.9424 20.7886 16.1499 20.7642 16.4307C20.3979 19.3604 20.3369 19.3237 17.2363 19.9097C16.9678 19.9707 16.7847 20.1782 16.7847 20.4224C16.7847 20.6909 16.98 20.8862 17.2852 20.9351C20.3369 21.4355 20.3979 21.4844 20.7642 24.4141C20.7886 24.6948 20.9961 24.9023 21.2769 24.9023ZM8.02002 6.70166C8.22754 6.70166 8.39844 6.56738 8.43506 6.34766C8.8501 4.12598 8.78906 4.19922 11.0107 3.75977C11.2305 3.72314 11.377 3.55225 11.377 3.34473C11.377 3.13721 11.2305 2.97852 11.0107 2.94189C8.78906 2.50244 8.8501 2.57568 8.43506 0.354004C8.39844 0.134277 8.22754 0 8.02002 0C7.8125 0 7.6416 0.134277 7.60498 0.354004C7.18994 2.57568 7.25098 2.50244 5.0293 2.94189C4.80957 2.97852 4.66309 3.13721 4.66309 3.34473C4.66309 3.55225 4.80957 3.72314 5.0293 3.75977C7.25098 4.19922 7.18994 4.12598 7.60498 6.34766C7.6416 6.56738 7.8125 6.70166 8.02002 6.70166ZM25.2808 7.12891C25.2808 3.94287 22.6929 1.35498 19.4946 1.35498C16.6992 1.35498 14.3677 3.35693 13.855 6.00586C14.0991 5.96924 14.3433 5.95703 14.5996 5.95703C17.8711 5.95703 20.52 8.60596 20.52 11.8774C20.52 12.207 20.4956 12.5122 20.4468 12.8052C23.1812 12.3657 25.2808 9.99756 25.2808 7.12891Z" fill="#5ac8f5"/>
 </g>
</svg>
