<?xml version="1.0" encoding="UTF-8"?>
<!--Generator: Apple Native CoreSVG 175.5-->
<!DOCTYPE svg
PUBLIC "-//W3C//DTD SVG 1.1//EN"
       "http://www.w3.org/Graphics/SVG/1.1/DTD/svg11.dtd">
<svg version="1.1" xmlns="http://www.w3.org/2000/svg" xmlns:xlink="http://www.w3.org/1999/xlink" width="29.9072" height="23.7671">
 <g>
  <rect height="23.7671" opacity="0" width="29.9072" x="0" y="0"/>
  <path d="M3.83301 23.7671L26.0742 23.7671C28.6377 23.7671 29.9072 22.4976 29.9072 19.9829L29.9072 10.8276C29.9072 8.31299 28.6377 7.04346 26.0742 7.04346L17.7368 7.04346L17.7368 9.00879L26.0376 9.00879C27.2461 9.00879 27.9419 9.65576 27.9419 10.9253L27.9419 19.873C27.9419 21.1426 27.2461 21.8018 26.0376 21.8018L3.85742 21.8018C2.63672 21.8018 1.96533 21.1426 1.96533 19.873L1.96533 10.9253C1.96533 9.65576 2.63672 9.00879 3.85742 9.00879L12.1704 9.00879L12.1704 7.04346L3.83301 7.04346C1.28174 7.04346 0 8.30078 0 10.8276L0 19.9829C0 22.4976 1.28174 23.7671 3.83301 23.7671Z" fill="#5ac8f5" fill-opacity="0.5"/>
  <path d="M1.57471 4.11377C2.03857 4.39453 2.56348 4.26025 2.91748 3.83301C3.58887 3.02734 4.43115 2.4292 5.39551 2.0874C5.92041 1.89209 6.25 1.44043 6.14014 0.90332C6.00586 0.292969 5.40771 0 4.6875 0.256348C3.44238 0.671387 2.2583 1.52588 1.35498 2.63672C0.915527 3.16162 1.07422 3.8208 1.57471 4.11377ZM13.562 4.08936C14.0625 3.79639 14.1846 3.14941 13.7573 2.62451C12.854 1.51367 11.6699 0.671387 10.437 0.268555C9.66797-0.012207 9.09424 0.341797 8.98438 0.927734C8.89893 1.45264 9.2041 1.89209 9.729 2.0874C10.6812 2.4292 11.5234 3.02734 12.1826 3.8208C12.5732 4.28467 13.0859 4.37012 13.562 4.08936ZM16.3452 4.08936C16.8213 4.37012 17.3218 4.28467 17.7246 3.8208C18.3716 3.02734 19.2261 2.4292 20.166 2.0874C20.7031 1.89209 21.0083 1.45264 20.9106 0.927734C20.813 0.341797 20.2393-0.012207 19.4702 0.268555C18.2373 0.671387 17.041 1.51367 16.1377 2.62451C15.7227 3.14941 15.8325 3.79639 16.3452 4.08936ZM28.3325 4.11377C28.833 3.8208 28.9917 3.16162 28.5522 2.63672C27.6489 1.52588 26.4648 0.671387 25.2075 0.256348C24.4995 0 23.8892 0.292969 23.7671 0.90332C23.645 1.44043 23.9868 1.89209 24.5117 2.0874C25.4761 2.4292 26.3184 3.02734 26.9897 3.83301C27.3438 4.26025 27.8687 4.39453 28.3325 4.11377ZM14.9536 10.7056C15.4907 10.7056 15.9302 10.2539 15.9302 9.7168L15.9302 6.604C15.9302 6.06689 15.4907 5.62744 14.9536 5.62744C14.4165 5.62744 13.9648 6.06689 13.9648 6.604L13.9648 9.7168C13.9648 10.2539 14.4165 10.7056 14.9536 10.7056ZM14.9536 17.4194C15.4907 17.4194 15.9302 16.98 15.9302 16.4429L15.9302 13.3301C15.9302 12.793 15.4907 12.3413 14.9536 12.3413C14.4165 12.3413 13.9648 12.793 13.9648 13.3301L13.9648 16.4429C13.9648 16.98 14.4165 17.4194 14.9536 17.4194Z" fill="#5ac8f5"/>
 </g>
</svg>
