<?xml version="1.0" encoding="UTF-8"?>
<!--Generator: Apple Native CoreSVG 175.5-->
<!DOCTYPE svg
PUBLIC "-//W3C//DTD SVG 1.1//EN"
       "http://www.w3.org/Graphics/SVG/1.1/DTD/svg11.dtd">
<svg version="1.1" xmlns="http://www.w3.org/2000/svg" xmlns:xlink="http://www.w3.org/1999/xlink" width="22.4731" height="22.4976">
 <g>
  <rect height="22.4976" opacity="0" width="22.4731" x="0" y="0"/>
  <path d="M3.83301 22.4976L18.6401 22.4976C21.2036 22.4976 22.4731 21.228 22.4731 18.7134L22.4731 3.80859C22.4731 1.29395 21.2036 0.0244141 18.6401 0.0244141L3.83301 0.0244141C1.28174 0.0244141 0 1.28174 0 3.80859L0 18.7134C0 21.2402 1.28174 22.4976 3.83301 22.4976ZM3.85742 20.5322C2.63672 20.5322 1.96533 19.8853 1.96533 18.6157L1.96533 3.90625C1.96533 2.63672 2.63672 1.98975 3.85742 1.98975L18.6157 1.98975C19.8242 1.98975 20.5078 2.63672 20.5078 3.90625L20.5078 18.6157C20.5078 19.8853 19.8242 20.5322 18.6157 20.5322Z" fill="#5ac8f5" fill-opacity="0.5"/>
  <path d="M6.88477 15.7227L16.1621 15.7227C17.6147 15.7227 18.75 14.563 18.75 13.147C18.75 11.9263 17.9321 10.9131 16.8457 10.6445C16.8579 10.5225 16.8701 10.4004 16.8701 10.2905C16.8701 7.8125 14.8926 5.79834 12.3535 5.79834C10.8643 5.79834 9.5459 6.50635 8.72803 7.62939C8.56934 7.59277 8.38623 7.56836 8.23975 7.56836C6.98242 7.56836 5.92041 8.48389 5.7373 9.74121C4.60205 10.1929 3.75977 11.3037 3.75977 12.6343C3.75977 14.6484 5.11475 15.7227 6.88477 15.7227Z" fill="#5ac8f5"/>
 </g>
</svg>
