<?xml version="1.0" encoding="UTF-8"?>
<!--Generator: Apple Native CoreSVG 175.5-->
<!DOCTYPE svg
PUBLIC "-//W3C//DTD SVG 1.1//EN"
       "http://www.w3.org/Graphics/SVG/1.1/DTD/svg11.dtd">
<svg version="1.1" xmlns="http://www.w3.org/2000/svg" xmlns:xlink="http://www.w3.org/1999/xlink" width="22.9614" height="31.7261">
 <g>
  <rect height="31.7261" opacity="0" width="22.9614" x="0" y="0"/>
  <path d="M9.22852 5.33447C10.6812 5.33447 11.8896 4.12598 11.8896 2.67334C11.8896 1.2085 10.6812 0 9.22852 0C7.76367 0 6.55518 1.2085 6.55518 2.67334C6.55518 4.12598 7.76367 5.33447 9.22852 5.33447ZM10.8032 25.3662C11.2793 25.4883 12.085 25.3174 12.3169 24.5361L14.0869 18.6646C14.27 18.0298 13.9893 17.3828 13.3179 17.1509L8.52051 15.4907L9.11865 11.4014C9.14307 11.1572 9.46045 11.0962 9.57031 11.3281L10.5957 13.3179C10.8276 13.7695 11.2305 13.9893 11.6943 13.9893L16.6016 13.9893C17.2729 13.9893 17.8345 13.4644 17.8345 12.7686C17.8345 12.1094 17.2729 11.5479 16.6016 11.5479L12.4512 11.5479L10.8521 8.38623C10.3394 7.36084 9.42383 6.64062 8.27637 6.4209L7.59277 6.28662C6.33545 6.04248 5.32227 6.31104 4.54102 6.79932L0.57373 9.26514C0.231934 9.49707 0 9.8877 0 10.3271L0 15.2222C0 15.8936 0.561523 16.4673 1.23291 16.4673C1.9043 16.4673 2.46582 15.8936 2.46582 15.2222L2.46582 10.9863L4.1748 9.92432C4.3335 9.83887 4.5166 9.93652 4.47998 10.1196L3.91846 14.6484C3.69873 16.3818 4.27246 17.5659 6.26221 18.0298L11.3525 19.2261L9.97314 23.8525C9.79004 24.4873 10.0342 25.1465 10.8032 25.3662ZM1.79443 29.7852C2.23389 30.0781 3.02734 30.0781 3.479 29.4189L7.09229 24.0356C7.26318 23.7793 7.34863 23.584 7.39746 23.2788L7.91016 19.6777L5.99365 19.2261C5.70068 19.165 5.44434 19.0674 5.2002 18.9819L4.94385 22.8516L1.45264 28.0762C1.07422 28.6377 1.2085 29.4067 1.79443 29.7852ZM6.65283 31.7017L10.5835 31.7017C10.9619 31.7017 11.2793 31.3843 11.2793 31.0059L11.2793 28.6499L14.5264 28.6499C14.8926 28.6499 15.1978 28.3569 15.1978 27.9663L15.1978 25.5981L18.4692 25.5981C18.8477 25.5981 19.1406 25.3052 19.1406 24.9268L19.1406 22.5586L22.2656 22.5586C22.644 22.5586 22.9614 22.2534 22.9614 21.875C22.9614 21.5088 22.644 21.1914 22.2656 21.1914L18.4692 21.1914C18.0908 21.1914 17.7979 21.5088 17.7979 21.875L17.7979 24.2432L14.5264 24.2432C14.1357 24.2432 13.855 24.5605 13.855 24.9268L13.855 27.2949L10.5835 27.2949C10.2173 27.2949 9.92432 27.5879 9.92432 27.9663L9.92432 30.3467L6.65283 30.3467C6.26221 30.3467 5.98145 30.6396 5.98145 31.0059C5.98145 31.3843 6.26221 31.7017 6.65283 31.7017Z" fill="#5ac8f5"/>
 </g>
</svg>
