<?xml version="1.0" encoding="UTF-8"?>
<!--Generator: Apple Native CoreSVG 175.5-->
<!DOCTYPE svg
PUBLIC "-//W3C//DTD SVG 1.1//EN"
       "http://www.w3.org/Graphics/SVG/1.1/DTD/svg11.dtd">
<svg version="1.1" xmlns="http://www.w3.org/2000/svg" xmlns:xlink="http://www.w3.org/1999/xlink" width="22.4731" height="22.4976">
 <g>
  <rect height="22.4976" opacity="0" width="22.4731" x="0" y="0"/>
  <path d="M3.83301 22.4976L18.6401 22.4976C21.2036 22.4976 22.4731 21.228 22.4731 18.7134L22.4731 3.80859C22.4731 1.29395 21.2036 0.0244141 18.6401 0.0244141L3.83301 0.0244141C1.28174 0.0244141 0 1.28174 0 3.80859L0 18.7134C0 21.2402 1.28174 22.4976 3.83301 22.4976ZM3.85742 20.5322C2.63672 20.5322 1.96533 19.8853 1.96533 18.6157L1.96533 3.90625C1.96533 2.63672 2.63672 1.98975 3.85742 1.98975L18.6157 1.98975C19.8242 1.98975 20.5078 2.63672 20.5078 3.90625L20.5078 18.6157C20.5078 19.8853 19.8242 20.5322 18.6157 20.5322ZM8.06885 16.5039C10.1318 16.5039 11.5845 15.2588 11.5845 13.501C11.5845 12.207 10.6812 11.1572 9.44824 11.0352L9.44824 10.9619C10.4614 10.791 11.2549 9.77783 11.2549 8.63037C11.2549 7.06787 9.97314 5.98145 8.14209 5.98145C6.49414 5.98145 5.27344 6.92139 4.95605 8.11768C4.91943 8.27637 4.91943 8.39844 4.91943 8.55713C4.91943 8.99658 5.2002 9.30176 5.61523 9.30176C5.98145 9.30176 6.17676 9.10645 6.29883 8.71582C6.56738 7.86133 7.15332 7.38525 8.10547 7.38525C9.08203 7.38525 9.75342 7.97119 9.75342 8.82568C9.75342 9.7168 9.06982 10.3638 8.09326 10.3638L7.43408 10.3638C7.04346 10.3638 6.7749 10.6445 6.7749 11.084C6.7749 11.4746 7.04346 11.7798 7.43408 11.7798L8.1543 11.7798C9.31396 11.7798 10.0586 12.439 10.0586 13.4277C10.0586 14.3799 9.25293 15.1001 8.08105 15.1001C7.10449 15.1001 6.44531 14.624 6.11572 13.7695C5.96924 13.3789 5.77393 13.1836 5.41992 13.1836C5.01709 13.1836 4.71191 13.4888 4.71191 13.916C4.71191 14.0869 4.73633 14.209 4.78516 14.3677C5.10254 15.4907 6.39648 16.5039 8.06885 16.5039ZM16.5527 16.3574C17.0166 16.3574 17.3218 16.0522 17.3218 15.5762L17.3218 6.93359C17.3218 6.4209 16.98 6.05469 16.4673 6.05469C16.0645 6.05469 15.8325 6.17676 15.3931 6.46973L13.5376 7.73926C13.2812 7.92236 13.1348 8.14209 13.1348 8.45947C13.1348 8.87451 13.4766 9.19189 13.8306 9.19189C14.0259 9.19189 14.1479 9.17969 14.4287 8.95996L15.7349 7.99561L15.7959 7.99561L15.7959 15.5762C15.7959 16.0522 16.1011 16.3574 16.5527 16.3574Z" fill="#5ac8f5"/>
 </g>
</svg>
