<?xml version="1.0" encoding="UTF-8"?>
<!--Generator: Apple Native CoreSVG 175.5-->
<!DOCTYPE svg
PUBLIC "-//W3C//DTD SVG 1.1//EN"
       "http://www.w3.org/Graphics/SVG/1.1/DTD/svg11.dtd">
<svg version="1.1" xmlns="http://www.w3.org/2000/svg" xmlns:xlink="http://www.w3.org/1999/xlink" width="25.5737" height="27.063">
 <g>
  <rect height="27.063" opacity="0" width="25.5737" x="0" y="0"/>
  <path d="M5.11475 13.5132L12.8662 13.5132C13.3301 13.5132 13.6963 13.1348 13.6963 12.6709C13.6963 12.207 13.3301 11.8286 12.8662 11.8286L5.11475 11.8286C4.62646 11.8286 4.27246 12.207 4.27246 12.6709C4.27246 13.1348 4.62646 13.5132 5.11475 13.5132ZM5.11475 16.7114L10.6445 16.7114C11.1084 16.7114 11.4868 16.3452 11.4868 15.8813C11.4868 15.4053 11.1084 15.0391 10.6445 15.0391L5.11475 15.0391C4.62646 15.0391 4.27246 15.4053 4.27246 15.8813C4.27246 16.3452 4.62646 16.7114 5.11475 16.7114ZM18.4204 17.041C19.9951 17.041 21.2769 15.7593 21.2769 14.1602C21.2769 12.561 19.9951 11.2793 18.4204 11.2793C16.8213 11.2793 15.5273 12.561 15.5273 14.1602C15.5273 15.7593 16.8213 17.041 18.4204 17.041ZM3.83301 27.0264L21.7407 27.0264C24.2798 27.0264 25.5737 25.7568 25.5737 23.2422L25.5737 10.7056C25.5737 8.19092 24.2798 6.92139 21.7407 6.92139L3.83301 6.92139C1.26953 6.92139 0 8.19092 0 10.7056L0 23.2422C0 25.7568 1.26953 27.0264 3.83301 27.0264ZM3.85742 25.061C2.63672 25.061 1.96533 24.4019 1.96533 23.1323L1.96533 10.8154C1.96533 9.5459 2.63672 8.88672 3.85742 8.88672L21.7041 8.88672C22.9126 8.88672 23.6084 9.5459 23.6084 10.8154L23.6084 23.1323C23.6084 24.4019 22.9126 25.061 21.7041 25.061ZM2.57568 4.95605L23.0103 4.95605C22.8271 3.84521 22.3022 3.23486 21.0815 3.23486L4.50439 3.23486C3.28369 3.23486 2.75879 3.84521 2.57568 4.95605ZM5.09033 1.57471L20.4956 1.57471C20.4224 0.537109 19.8364 0 18.7012 0L6.87256 0C5.74951 0 5.16357 0.537109 5.09033 1.57471Z" fill="#5ac8f5"/>
 </g>
</svg>
