<?xml version="1.0" encoding="UTF-8"?>
<!--Generator: Apple Native CoreSVG 175.5-->
<!DOCTYPE svg
PUBLIC "-//W3C//DTD SVG 1.1//EN"
       "http://www.w3.org/Graphics/SVG/1.1/DTD/svg11.dtd">
<svg version="1.1" xmlns="http://www.w3.org/2000/svg" xmlns:xlink="http://www.w3.org/1999/xlink" width="22.7661" height="29.5288">
 <g>
  <rect height="29.5288" opacity="0" width="22.7661" x="0" y="0"/>
  <path d="M11.3892 12.1826C12.0239 12.1826 12.4756 11.7432 12.4756 11.0962L12.4756 5.94482L12.4023 3.41797L15.6372 6.87256C15.8447 7.10449 16.1255 7.17773 16.4185 7.17773C17.0288 7.17773 17.4805 6.71387 17.4805 6.11572C17.4805 5.81055 17.3584 5.5542 17.1143 5.29785L12.207 0.366211C11.9751 0.12207 11.6821 0 11.3892 0C11.084 0 10.8032 0.12207 10.5713 0.366211L5.66406 5.29785C5.41992 5.5542 5.29785 5.81055 5.29785 6.11572C5.29785 6.71387 5.74951 7.17773 6.35986 7.17773C6.65283 7.17773 6.93359 7.10449 7.14111 6.87256L10.376 3.41797L10.2905 5.94482L10.2905 11.0962C10.2905 11.7432 10.7544 12.1826 11.3892 12.1826ZM0 14.5386C0 15.1733 0.439453 15.625 1.07422 15.625L21.7041 15.625C22.3267 15.625 22.7661 15.1733 22.7661 14.5386C22.7661 13.9038 22.3267 13.4399 21.7041 13.4399L1.07422 13.4399C0.439453 13.4399 0 13.9038 0 14.5386ZM11.3892 16.8823C10.7544 16.8823 10.2905 17.3218 10.2905 17.9688L10.2905 23.1323L10.376 25.647L7.14111 22.1924C6.93359 21.9727 6.65283 21.8872 6.35986 21.8872C5.74951 21.8872 5.29785 22.3511 5.29785 22.9492C5.29785 23.2544 5.41992 23.5229 5.66406 23.7793L10.5713 28.6987C10.8032 28.9429 11.084 29.0771 11.3892 29.0771C11.6821 29.0771 11.9751 28.9429 12.207 28.6987L17.1143 23.7793C17.3584 23.5229 17.4805 23.2544 17.4805 22.9492C17.4805 22.3511 17.0288 21.8872 16.4185 21.8872C16.1255 21.8872 15.8447 21.9727 15.6372 22.1924L12.4023 25.647L12.4756 23.1323L12.4756 17.9688C12.4756 17.3218 12.0239 16.8823 11.3892 16.8823Z" fill="#5ac8f5"/>
 </g>
</svg>
