<?xml version="1.0" encoding="UTF-8"?>
<!--Generator: Apple Native CoreSVG 175.5-->
<!DOCTYPE svg
PUBLIC "-//W3C//DTD SVG 1.1//EN"
       "http://www.w3.org/Graphics/SVG/1.1/DTD/svg11.dtd">
<svg version="1.1" xmlns="http://www.w3.org/2000/svg" xmlns:xlink="http://www.w3.org/1999/xlink" width="24.9023" height="24.9146">
 <g>
  <rect height="24.9146" opacity="0" width="24.9023" x="0" y="0"/>
  <path d="M12.4512 24.9023C19.2627 24.9023 24.9023 19.2505 24.9023 12.4512C24.9023 5.63965 19.2505 0 12.439 0C5.63965 0 0 5.63965 0 12.4512C0 19.2505 5.65186 24.9023 12.4512 24.9023ZM12.4512 22.8271C6.68945 22.8271 2.0874 18.2129 2.0874 12.4512C2.0874 6.68945 6.67725 2.0752 12.439 2.0752C18.2007 2.0752 22.8271 6.68945 22.8271 12.4512C22.8271 18.2129 18.2129 22.8271 12.4512 22.8271Z" fill="#5ac8f5" fill-opacity="0.5"/>
  <path d="M6.70166 15.7349L12.7563 15.7349C14.4043 15.7349 15.6616 14.4775 15.6616 12.8662C15.6616 11.3037 14.3921 10.0952 12.6953 10.0586C12.0361 8.83789 10.8765 8.06885 9.47266 8.06885C7.61719 8.06885 6.05469 9.50928 5.84717 11.3525C4.93164 11.6699 4.28467 12.4756 4.28467 13.5132C4.28467 14.7949 5.24902 15.7349 6.70166 15.7349ZM11.5845 7.56836C11.8042 7.80029 12.1704 7.77588 12.3779 7.56836C12.5732 7.36084 12.5977 6.99463 12.3779 6.78711L11.499 5.92041C11.2793 5.71289 10.9375 5.71289 10.7178 5.92041C10.5103 6.11572 10.5103 6.48193 10.7178 6.70166ZM14.8682 6.51855C15.1855 6.51855 15.4297 6.27441 15.4297 5.96924L15.4297 4.74854C15.4297 4.44336 15.1855 4.19922 14.8682 4.19922C14.5752 4.19922 14.3188 4.44336 14.3188 4.74854L14.3188 5.96924C14.3188 6.27441 14.5752 6.51855 14.8682 6.51855ZM17.3828 7.55615C17.5903 7.77588 17.9688 7.80029 18.1885 7.56836L19.043 6.70166C19.2505 6.48193 19.2383 6.11572 19.043 5.92041C18.8232 5.71289 18.4814 5.70068 18.2617 5.92041L17.3828 6.78711C17.1631 6.99463 17.1875 7.36084 17.3828 7.55615ZM18.9819 10.6201L20.1904 10.6201C20.5078 10.6201 20.752 10.376 20.752 10.0708C20.752 9.75342 20.5078 9.52148 20.1904 9.52148L18.9819 9.52148C18.689 9.52148 18.4326 9.75342 18.4326 10.0708C18.4326 10.376 18.689 10.6201 18.9819 10.6201ZM18.2617 14.2456C18.4814 14.4653 18.8232 14.4409 19.043 14.2334C19.2383 14.0137 19.2505 13.6475 19.043 13.4521L18.1885 12.5977C17.9688 12.3901 17.6025 12.3901 17.3828 12.5977C17.1875 12.8052 17.1631 13.1714 17.3828 13.3911ZM17.7368 10.0708C17.7368 8.48389 16.4673 7.22656 14.8682 7.22656C13.9038 7.22656 13.0371 7.71484 12.5366 8.45947C12.793 8.70361 13.0005 8.95996 13.1958 9.26514C14.9536 9.48486 16.2964 10.7544 16.4795 12.4512C17.2607 11.8896 17.7368 11.0352 17.7368 10.0708ZM8.25195 18.4448C8.19092 18.5913 8.25195 18.7134 8.42285 18.7134L9.47266 18.7134L8.65479 20.6909C8.59375 20.8496 8.77686 20.9473 8.89893 20.813L11.5967 18.0664C11.731 17.9321 11.6699 17.749 11.4868 17.749L10.2539 17.749L10.8398 16.6382C10.9131 16.5039 10.8521 16.3818 10.7056 16.3818L9.38721 16.3818C9.2041 16.3818 9.13086 16.4429 9.06982 16.5771Z" fill="#5ac8f5"/>
 </g>
</svg>
