<?xml version="1.0" encoding="UTF-8"?>
<!--Generator: Apple Native CoreSVG 175.5-->
<!DOCTYPE svg
PUBLIC "-//W3C//DTD SVG 1.1//EN"
       "http://www.w3.org/Graphics/SVG/1.1/DTD/svg11.dtd">
<svg version="1.1" xmlns="http://www.w3.org/2000/svg" xmlns:xlink="http://www.w3.org/1999/xlink" width="27.3682" height="31.4098">
 <g>
  <rect height="31.4098" opacity="0" width="27.3682" x="0" y="0"/>
  <path d="M19.0186 13.7701C19.4336 14.0509 20.0073 13.9532 20.3369 13.4893C21.2646 12.2442 21.8262 10.4254 21.8262 8.55769C21.8262 6.69001 21.2646 4.88337 20.3369 3.63826C20.0073 3.16218 19.4336 3.07673 19.0186 3.3697C18.5303 3.7115 18.4448 4.30964 18.8232 4.81013C19.5435 5.78669 19.9341 7.14167 19.9341 8.55769C19.9341 9.9737 19.5312 11.3165 18.8232 12.3052C18.457 12.8179 18.5303 13.4161 19.0186 13.7701ZM23.5474 16.9439C23.999 17.2491 24.5605 17.1514 24.8779 16.6754C26.4404 14.5269 27.3682 11.5728 27.3682 8.55769C27.3682 5.54255 26.4526 2.56404 24.8779 0.440013C24.5605-0.0238539 23.999-0.133717 23.5474 0.171459C23.0957 0.476634 23.0225 1.05036 23.3765 1.55085C24.707 3.44294 25.4761 5.95759 25.4761 8.55769C25.4761 11.17 24.6826 13.6724 23.3765 15.5645C23.0347 16.065 23.0957 16.6387 23.5474 16.9439ZM7.31201 30.4937C7.82471 30.921 8.52051 30.982 9.00879 30.5059L12.7808 26.734C13.2568 26.2457 13.2324 25.5133 12.7686 25.0372L10.8765 23.1573L13.6353 20.4107C14.1113 19.9468 14.0869 19.2022 13.623 18.7139L11.0718 16.1505C14.4287 14.5391 16.3208 11.8048 16.3208 8.55769C16.3208 4.05329 12.6709 0.415599 8.1665 0.415599C3.62549 0.415599 0 4.02888 0 8.55769C0 11.8292 1.87988 14.7344 4.84619 16.0406L4.84619 27.564C4.84619 27.9669 4.96826 28.4307 5.32227 28.7481ZM8.1665 28.565L6.81152 27.2222L6.81152 14.6246C3.94287 13.9776 1.95312 11.4996 1.95312 8.55769C1.95312 5.13972 4.72412 2.38093 8.1665 2.38093C11.5967 2.38093 14.3555 5.13972 14.3555 8.55769C14.3555 11.4752 12.3535 13.9776 9.28955 14.71L9.28955 17.1759L11.6821 19.5806L9.09424 22.1319L9.09424 24.1583L10.8276 25.8673ZM8.1665 8.19148C9.25293 8.19148 10.144 7.30036 10.144 6.20173C10.144 5.11531 9.25293 4.2364 8.1665 4.2364C7.05566 4.2364 6.18896 5.11531 6.18896 6.20173C6.18896 7.30036 7.06787 8.19148 8.1665 8.19148Z" fill="#5ac8f5"/>
 </g>
</svg>
