<?xml version="1.0" encoding="UTF-8"?>
<!--Generator: Apple Native CoreSVG 175.5-->
<!DOCTYPE svg
PUBLIC "-//W3C//DTD SVG 1.1//EN"
       "http://www.w3.org/Graphics/SVG/1.1/DTD/svg11.dtd">
<svg version="1.1" xmlns="http://www.w3.org/2000/svg" xmlns:xlink="http://www.w3.org/1999/xlink" width="28.7842" height="22.4731">
 <g>
  <rect height="22.4731" opacity="0" width="28.7842" x="0" y="0"/>
  <path d="M1.30615 4.11377L1.30615 5.83496L27.478 5.83496L27.478 4.11377ZM3.83301 22.4731L24.9512 22.4731C27.5146 22.4731 28.7842 21.2158 28.7842 18.7012L28.7842 3.78418C28.7842 1.26953 27.5146 0 24.9512 0L3.83301 0C1.28174 0 0 1.26953 0 3.78418L0 18.7012C0 21.2158 1.28174 22.4731 3.83301 22.4731ZM3.85742 20.5078C2.63672 20.5078 1.96533 19.8608 1.96533 18.5913L1.96533 3.89404C1.96533 2.62451 2.63672 1.96533 3.85742 1.96533L24.9268 1.96533C26.1353 1.96533 26.8188 2.62451 26.8188 3.89404L26.8188 18.5913C26.8188 19.8608 26.1353 20.5078 24.9268 20.5078ZM14.4043 17.8955C14.9292 17.8955 15.3687 17.4561 15.3687 16.9434L15.3687 12.915L15.2954 10.8643L16.3452 11.9629L17.9321 13.5498C18.1152 13.7329 18.3472 13.8428 18.5913 13.8428C19.1162 13.8428 19.4946 13.4888 19.4946 12.9761C19.4946 12.6953 19.3848 12.4878 19.165 12.3047L15.1123 8.52051C14.856 8.27637 14.6484 8.19092 14.4043 8.19092C14.1479 8.19092 13.9526 8.27637 13.6963 8.52051L9.63135 12.3047C9.42383 12.4878 9.31396 12.6953 9.31396 12.9761C9.31396 13.4888 9.68018 13.8428 10.1929 13.8428C10.437 13.8428 10.6812 13.7329 10.8765 13.5498L12.4634 11.9629L13.5132 10.8643L13.4277 12.915L13.4277 16.9434C13.4277 17.4561 13.8794 17.8955 14.4043 17.8955Z" fill="#5ac8f5"/>
 </g>
</svg>
