<?xml version="1.0" encoding="UTF-8"?>
<!--Generator: Apple Native CoreSVG 175.5-->
<!DOCTYPE svg
PUBLIC "-//W3C//DTD SVG 1.1//EN"
       "http://www.w3.org/Graphics/SVG/1.1/DTD/svg11.dtd">
<svg version="1.1" xmlns="http://www.w3.org/2000/svg" xmlns:xlink="http://www.w3.org/1999/xlink" width="28.7842" height="22.4976">
 <g>
  <rect height="22.4976" opacity="0" width="28.7842" x="0" y="0"/>
  <path d="M3.83301 22.4976L24.9512 22.4976C27.5146 22.4976 28.7842 21.228 28.7842 18.7134L28.7842 3.80859C28.7842 1.29395 27.5146 0.0244141 24.9512 0.0244141L3.83301 0.0244141C1.28174 0.0244141 0 1.28174 0 3.80859L0 18.7134C0 21.2402 1.28174 22.4976 3.83301 22.4976ZM3.85742 20.5322C2.63672 20.5322 1.96533 19.8853 1.96533 18.6157L1.96533 3.90625C1.96533 2.63672 2.63672 1.98975 3.85742 1.98975L24.9268 1.98975C26.1353 1.98975 26.8188 2.63672 26.8188 3.90625L26.8188 18.6157C26.8188 19.8853 26.1353 20.5322 24.9268 20.5322ZM17.6025 20.9106L19.519 20.9106L19.519 1.62354L17.6025 1.62354ZM24.3286 7.82471C24.6582 7.82471 24.8901 7.60498 24.8901 7.27539L24.8901 4.99268C24.8901 4.65088 24.6704 4.43115 24.3286 4.43115L22.0215 4.43115C21.7041 4.43115 21.4722 4.65088 21.4722 4.99268L21.4722 7.27539C21.4722 7.60498 21.7163 7.82471 22.0215 7.82471ZM24.3286 12.9517C24.6582 12.9517 24.8901 12.7075 24.8901 12.4023L24.8901 10.0952C24.8901 9.77783 24.6704 9.53369 24.3286 9.53369L22.0215 9.53369C21.7041 9.53369 21.4722 9.77783 21.4722 10.0952L21.4722 12.4023C21.4722 12.7075 21.7163 12.9517 22.0215 12.9517ZM24.3286 18.0542C24.6582 18.0542 24.8901 17.8345 24.8901 17.5049L24.8901 15.2222C24.8901 14.8926 24.6704 14.6606 24.3286 14.6606L22.0215 14.6606C21.7041 14.6606 21.4722 14.8926 21.4722 15.2222L21.4722 17.5049C21.4722 17.8345 21.7163 18.0542 22.0215 18.0542Z" fill="#5ac8f5"/>
 </g>
</svg>
