<?xml version="1.0" encoding="UTF-8"?>
<!--Generator: Apple Native CoreSVG 175.5-->
<!DOCTYPE svg
PUBLIC "-//W3C//DTD SVG 1.1//EN"
       "http://www.w3.org/Graphics/SVG/1.1/DTD/svg11.dtd">
<svg version="1.1" xmlns="http://www.w3.org/2000/svg" xmlns:xlink="http://www.w3.org/1999/xlink" width="30.3955" height="25.2319">
 <g>
  <rect height="25.2319" opacity="0" width="30.3955" x="0" y="0"/>
  <path d="M0 12.6099C0 13.3179 0.402832 13.8184 1.24512 13.9526C2.75879 14.1846 3.35693 14.9536 3.35693 16.9189L3.35693 20.3491C3.35693 23.6694 4.87061 25.2319 8.1665 25.2319C8.36182 25.2319 8.56934 25.1953 8.71582 25.1465C9.09424 24.9878 9.30176 24.6826 9.30176 24.2798C9.30176 23.8037 9.09424 23.5596 8.66699 23.4497C8.54492 23.4253 8.42285 23.4009 8.27637 23.3887C6.22559 23.2422 5.48096 22.3633 5.48096 20.105L5.48096 16.0522C5.48096 13.9893 4.39453 12.8418 2.49023 12.6587C2.45361 12.6587 2.45361 12.6099 2.49023 12.6099C4.39453 12.4268 5.48096 11.2793 5.48096 9.21631L5.48096 5.15137C5.48096 2.88086 6.22559 2.02637 8.27637 1.87988C8.47168 1.86768 8.64258 1.84326 8.76465 1.79443C9.11865 1.67236 9.30176 1.40381 9.30176 0.976562C9.30176 0.549316 9.08203 0.256348 8.66699 0.109863C8.48389 0.0488281 8.28857 0.0244141 8.04443 0.0244141C4.8584 0.0244141 3.35693 1.61133 3.35693 4.90723L3.35693 8.34961C3.35693 10.2905 2.75879 11.0718 1.24512 11.3037C0.402832 11.438 0 11.9141 0 12.6099ZM30.3955 12.6099C30.3955 11.9141 29.9927 11.438 29.1504 11.3037C27.6367 11.0718 27.0386 10.2905 27.0386 8.34961L27.0386 4.90723C27.0386 1.61133 25.5371 0.0244141 22.3511 0.0244141C22.1069 0.0244141 21.9238 0.0488281 21.7407 0.109863C21.3135 0.256348 21.0938 0.549316 21.0938 0.976562C21.0938 1.40381 21.2769 1.67236 21.6431 1.79443C21.7651 1.84326 21.9238 1.86768 22.1191 1.87988C24.1699 2.02637 24.9268 2.88086 24.9268 5.15137L24.9268 9.21631C24.9268 11.2793 26.001 12.4268 27.9053 12.6099C27.9419 12.6099 27.9419 12.6587 27.9053 12.6587C26.001 12.8418 24.9268 13.9893 24.9268 16.0522L24.9268 20.105C24.9268 22.3633 24.1699 23.2422 22.1191 23.3887C21.9727 23.4009 21.8628 23.4253 21.7407 23.4497C21.3013 23.5596 21.0938 23.8037 21.0938 24.2798C21.0938 24.6826 21.3013 24.9878 21.6919 25.1465C21.8384 25.1953 22.0337 25.2319 22.229 25.2319C25.5249 25.2319 27.0386 23.6694 27.0386 20.3491L27.0386 16.9189C27.0386 14.9536 27.6367 14.1846 29.1504 13.9526C29.9927 13.8184 30.3955 13.3179 30.3955 12.6099Z" fill="#5ac8f5" fill-opacity="0.5"/>
  <path d="M9.70459 14.5508C10.7666 14.5508 11.6455 13.6475 11.6455 12.6099C11.6455 11.5845 10.7666 10.6689 9.70459 10.6689C8.64258 10.6689 7.75146 11.5845 7.75146 12.6099C7.75146 13.6475 8.64258 14.5508 9.70459 14.5508Z" fill="#5ac8f5"/>
  <path d="M15.1978 14.5508C16.2354 14.5508 17.1387 13.6475 17.1387 12.6099C17.1387 11.5845 16.2354 10.6689 15.1978 10.6689C14.1602 10.6689 13.2568 11.5845 13.2568 12.6099C13.2568 13.6475 14.1602 14.5508 15.1978 14.5508Z" fill="#5ac8f5"/>
  <path d="M20.6909 14.5508C21.7529 14.5508 22.644 13.6475 22.644 12.6099C22.644 11.5845 21.7529 10.6689 20.6909 10.6689C19.6411 10.6689 18.75 11.5845 18.75 12.6099C18.75 13.6475 19.6411 14.5508 20.6909 14.5508Z" fill="#5ac8f5"/>
 </g>
</svg>
