<?xml version="1.0" encoding="UTF-8"?>
<!--Generator: Apple Native CoreSVG 175.5-->
<!DOCTYPE svg
PUBLIC "-//W3C//DTD SVG 1.1//EN"
       "http://www.w3.org/Graphics/SVG/1.1/DTD/svg11.dtd">
<svg version="1.1" xmlns="http://www.w3.org/2000/svg" xmlns:xlink="http://www.w3.org/1999/xlink" width="29.5288" height="21.5862">
 <g>
  <rect height="21.5862" opacity="0" width="29.5288" x="0" y="0"/>
  <path d="M7.97119 19.0268L21.1792 21.3339C23.5596 21.7489 25.1465 20.4794 25.1465 18.1479L25.1465 3.26748C25.1465 0.935937 23.5596-0.345801 21.1792 0.081445L7.97119 2.40078C5.62744 2.80361 4.38232 4.06094 4.38232 6.03848L4.38232 15.3769C4.38232 17.3422 5.62744 18.6117 7.97119 19.0268ZM0.976562 11.6293C0.366211 11.6293 0 11.2753 0 10.7138C0 10.1278 0.366211 9.78603 0.976562 9.78603L28.5522 9.78603C29.1626 9.78603 29.5288 10.1278 29.5288 10.7138C29.5288 11.2753 29.1626 11.6293 28.5522 11.6293Z" fill="#5ac8f5"/>
 </g>
</svg>
