<?xml version="1.0" encoding="UTF-8"?>
<!--Generator: Apple Native CoreSVG 175.5-->
<!DOCTYPE svg
PUBLIC "-//W3C//DTD SVG 1.1//EN"
       "http://www.w3.org/Graphics/SVG/1.1/DTD/svg11.dtd">
<svg version="1.1" xmlns="http://www.w3.org/2000/svg" xmlns:xlink="http://www.w3.org/1999/xlink" width="35.2417" height="22.1313">
 <g>
  <rect height="22.1313" opacity="0" width="35.2417" x="0" y="0"/>
  <path d="M7.73926 8.61816C7.73926 8.00781 8.11768 7.62939 8.75244 7.62939L10.9497 7.62939L10.9497 5.49316C10.9497 4.87061 11.3037 4.49219 11.9141 4.49219C12.5122 4.49219 12.8784 4.87061 12.8784 5.49316L12.8784 7.62939L14.9414 7.62939C15.625 7.62939 16.0278 8.00781 16.0278 8.61816C16.0278 9.25293 15.625 9.64355 14.9414 9.64355L12.8784 9.64355L12.8784 11.7798C12.8784 12.4023 12.5122 12.793 11.9141 12.793C11.3037 12.793 10.9497 12.4023 10.9497 11.7798L10.9497 9.64355L8.75244 9.64355C8.11768 9.64355 7.73926 9.25293 7.73926 8.61816ZM19.7388 10.3271C19.7388 9.32617 20.52 8.55713 21.4966 8.55713C22.4854 8.55713 23.2544 9.32617 23.2544 10.3271C23.2544 11.3159 22.4854 12.085 21.4966 12.085C20.52 12.085 19.7388 11.3159 19.7388 10.3271ZM23.3398 6.71387C23.3398 5.71289 24.1089 4.94385 25.0854 4.94385C26.0864 4.94385 26.8433 5.71289 26.8433 6.71387C26.8433 7.70264 26.0864 8.45947 25.0854 8.45947C24.1089 8.45947 23.3398 7.70264 23.3398 6.71387ZM4.65088 22.1313C6.32324 22.1313 7.4707 21.521 8.49609 20.2515L10.7056 17.5781C11.0229 17.1997 11.3892 17.0166 11.7554 17.0166L23.4863 17.0166C23.8525 17.0166 24.2188 17.1997 24.5361 17.5781L26.7456 20.2515C27.771 21.521 28.9185 22.1313 30.5908 22.1313C33.3862 22.1313 35.2417 20.2759 35.2417 17.4194C35.2417 16.1987 34.9609 14.7949 34.4849 13.2202C33.7402 10.7178 32.4341 7.31201 31.189 4.67529C30.1392 2.47803 29.6021 1.47705 27.0142 0.891113C24.7192 0.366211 21.5332 0.012207 17.627 0.012207C13.7207 0.012207 10.5225 0.366211 8.22754 0.891113C5.63965 1.47705 5.10254 2.47803 4.05273 4.67529C2.80762 7.31201 1.50146 10.7178 0.756836 13.2202C0.280762 14.7949 0 16.1987 0 17.4194C0 20.2759 1.85547 22.1313 4.65088 22.1313Z" fill="#5ac8f5"/>
 </g>
</svg>
