<?xml version="1.0" encoding="UTF-8"?>
<!--Generator: Apple Native CoreSVG 175.5-->
<!DOCTYPE svg
PUBLIC "-//W3C//DTD SVG 1.1//EN"
       "http://www.w3.org/Graphics/SVG/1.1/DTD/svg11.dtd">
<svg version="1.1" xmlns="http://www.w3.org/2000/svg" xmlns:xlink="http://www.w3.org/1999/xlink" width="22.4731" height="22.4976">
 <g>
  <rect height="22.4976" opacity="0" width="22.4731" x="0" y="0"/>
  <path d="M3.83301 22.4976L18.6401 22.4976C21.2036 22.4976 22.4731 21.228 22.4731 18.7134L22.4731 3.80859C22.4731 1.29395 21.2036 0.0244141 18.6401 0.0244141L3.83301 0.0244141C1.28174 0.0244141 0 1.28174 0 3.80859L0 18.7134C0 21.2402 1.28174 22.4976 3.83301 22.4976ZM5.34668 6.87256L8.5083 3.80859C8.66699 3.6377 8.89893 3.54004 9.10645 3.54004C9.57031 3.54004 9.91211 3.86963 9.91211 4.3457C9.91211 4.56543 9.82666 4.77295 9.66797 4.93164L8.34961 6.22559L7.83691 6.67725L8.42285 6.66504L16.5649 6.66504C17.041 6.66504 17.3828 7.00684 17.3828 7.48291C17.3828 7.94678 17.0288 8.31299 16.5649 8.31299L8.41064 8.31299L7.82471 8.27637L8.34961 8.76465L9.66797 10.0464C9.82666 10.2051 9.91211 10.4004 9.91211 10.6323C9.91211 11.0962 9.57031 11.4258 9.10645 11.4258C8.89893 11.4258 8.6792 11.3281 8.5083 11.1938L5.34668 8.09326C5.01709 7.77588 5.01709 7.20215 5.34668 6.87256ZM17.1143 15.625L13.9648 18.7256C13.7939 18.8843 13.562 18.9819 13.3667 18.9819C12.915 18.9819 12.561 18.6401 12.561 18.1763C12.561 17.9443 12.6587 17.7612 12.8174 17.5903L14.1357 16.2964L14.6606 15.8447L14.0503 15.8569L5.9082 15.8569C5.44434 15.8569 5.10254 15.5029 5.10254 15.0269C5.10254 14.5508 5.45654 14.209 5.9082 14.209L14.0625 14.209L14.6606 14.2456L14.1357 13.7573L12.793 12.4756C12.6465 12.3169 12.561 12.1216 12.561 11.8896C12.561 11.4258 12.8906 11.0962 13.3667 11.0962C13.5864 11.0962 13.8184 11.1938 13.9648 11.3403L17.1143 14.4409C17.4438 14.7705 17.4683 15.2832 17.1143 15.625Z" fill="#5ac8f5"/>
 </g>
</svg>
