<?xml version="1.0" encoding="UTF-8"?>
<!--Generator: Apple Native CoreSVG 175.5-->
<!DOCTYPE svg
PUBLIC "-//W3C//DTD SVG 1.1//EN"
       "http://www.w3.org/Graphics/SVG/1.1/DTD/svg11.dtd">
<svg version="1.1" xmlns="http://www.w3.org/2000/svg" xmlns:xlink="http://www.w3.org/1999/xlink" width="35.6323" height="20.7153">
 <g>
  <rect height="20.7153" opacity="0" width="35.6323" x="0" y="0"/>
  <path d="M15.2344 10.3516C15.21 12.7075 15.4053 14.9658 16.0522 17.2729C16.7969 19.7876 18.2129 20.6787 21.1914 20.6787L21.875 20.6787C29.1504 20.6787 35.6323 15.9302 35.6323 10.3516C35.6323 4.77295 29.1504 0 21.875 0L21.1914 0C18.2251 0 16.8091 0.90332 16.0522 3.41797C15.4053 5.7373 15.21 7.99561 15.2344 10.3516ZM11.0596 6.10352C12.3657 6.10352 13.4399 5.0415 13.4399 3.71094C13.4399 2.40479 12.3657 1.34277 11.0596 1.34277C9.74121 1.34277 8.66699 2.40479 8.66699 3.71094C8.66699 5.0415 9.74121 6.10352 11.0596 6.10352ZM11.0596 12.7441C12.3657 12.7441 13.4399 11.6699 13.4399 10.3516C13.4399 9.04541 12.3657 7.97119 11.0596 7.97119C9.74121 7.97119 8.66699 9.04541 8.66699 10.3516C8.66699 11.6699 9.74121 12.7441 11.0596 12.7441ZM11.0596 19.3726C12.3657 19.3726 13.4399 18.3105 13.4399 16.98C13.4399 15.6738 12.3657 14.6118 11.0596 14.6118C9.74121 14.6118 8.66699 15.6738 8.66699 16.98C8.66699 18.3105 9.74121 19.3726 11.0596 19.3726ZM5.52979 5.49316C6.50635 5.49316 7.2998 4.69971 7.2998 3.71094C7.2998 2.74658 6.50635 1.95312 5.52979 1.95312C4.55322 1.95312 3.75977 2.74658 3.75977 3.71094C3.75977 4.69971 4.55322 5.49316 5.52979 5.49316ZM5.52979 12.1338C6.50635 12.1338 7.2998 11.3403 7.2998 10.3516C7.2998 9.375 6.50635 8.58154 5.52979 8.58154C4.55322 8.58154 3.75977 9.375 3.75977 10.3516C3.75977 11.3403 4.55322 12.1338 5.52979 12.1338ZM5.52979 18.7622C6.50635 18.7622 7.2998 17.9688 7.2998 16.98C7.2998 16.0156 6.50635 15.2222 5.52979 15.2222C4.55322 15.2222 3.75977 16.0156 3.75977 16.98C3.75977 17.9688 4.55322 18.7622 5.52979 18.7622ZM1.2085 4.91943C1.85547 4.91943 2.39258 4.38232 2.39258 3.71094C2.39258 3.06396 1.85547 2.52686 1.2085 2.52686C0.537109 2.52686 0 3.05176 0 3.71094C0 4.38232 0.537109 4.91943 1.2085 4.91943ZM1.2085 11.5601C1.85547 11.5601 2.39258 11.0229 2.39258 10.3516C2.39258 9.69238 1.85547 9.15527 1.2085 9.15527C0.537109 9.15527 0 9.69238 0 10.3516C0 11.0229 0.537109 11.5601 1.2085 11.5601ZM1.2085 18.1885C1.85547 18.1885 2.39258 17.6514 2.39258 16.98C2.39258 16.333 1.85547 15.7959 1.2085 15.7959C0.537109 15.7959 0 16.333 0 16.98C0 17.6514 0.537109 18.1885 1.2085 18.1885Z" fill="#5ac8f5"/>
 </g>
</svg>
