<?xml version="1.0" encoding="UTF-8"?>
<!--Generator: Apple Native CoreSVG 175.5-->
<!DOCTYPE svg
PUBLIC "-//W3C//DTD SVG 1.1//EN"
       "http://www.w3.org/Graphics/SVG/1.1/DTD/svg11.dtd">
<svg version="1.1" xmlns="http://www.w3.org/2000/svg" xmlns:xlink="http://www.w3.org/1999/xlink" width="22.4731" height="22.4976">
 <g>
  <rect height="22.4976" opacity="0" width="22.4731" x="0" y="0"/>
  <path d="M3.83301 22.4976L18.6401 22.4976C21.2036 22.4976 22.4731 21.228 22.4731 18.7134L22.4731 3.80859C22.4731 1.29395 21.2036 0.0244141 18.6401 0.0244141L3.83301 0.0244141C1.28174 0.0244141 0 1.28174 0 3.80859L0 18.7134C0 21.2402 1.28174 22.4976 3.83301 22.4976ZM3.85742 20.5322C2.63672 20.5322 1.96533 19.8853 1.96533 18.6157L1.96533 3.90625C1.96533 2.63672 2.63672 1.98975 3.85742 1.98975L18.6157 1.98975C19.8242 1.98975 20.5078 2.63672 20.5078 3.90625L20.5078 18.6157C20.5078 19.8853 19.8242 20.5322 18.6157 20.5322ZM4.98047 16.2231L10.022 16.2231C10.4126 16.2231 10.7056 15.9302 10.7056 15.4907C10.7056 15.0391 10.4126 14.7827 10.022 14.7827L6.46973 14.7827L6.46973 14.6973L8.87451 11.9141C9.77783 10.8643 10.4492 9.98535 10.4492 8.76465C10.4492 7.06787 9.2041 5.98145 7.2876 5.98145C5.83496 5.98145 4.54102 6.90918 4.22363 8.1543C4.19922 8.31299 4.1626 8.44727 4.1626 8.59375C4.1626 9.0332 4.43115 9.32617 4.84619 9.32617C5.2002 9.32617 5.3833 9.11865 5.54199 8.75244C5.85938 7.83691 6.46973 7.38525 7.34863 7.38525C8.3252 7.38525 8.97217 7.99561 8.97217 8.89893C8.97217 9.69238 8.3252 10.376 7.75146 11.0596L4.52881 14.8438C4.3457 15.0513 4.26025 15.2588 4.26025 15.5029C4.26025 15.9424 4.54102 16.2231 4.98047 16.2231ZM16.98 16.4795C17.4805 16.4795 17.7368 16.1377 17.7368 15.6616L17.7368 14.2212L18.396 14.2212C18.811 14.2212 19.0796 13.9771 19.0796 13.5498C19.0796 13.1104 18.811 12.854 18.396 12.854L17.7368 12.854L17.7368 7.14111C17.7368 6.43311 17.2363 5.98145 16.5283 5.98145C15.8203 5.98145 15.3931 6.25 14.9902 6.92139C13.9771 8.63037 12.7441 10.73 11.9141 12.207C11.7188 12.5854 11.6455 12.854 11.6455 13.1836C11.6455 13.8306 12.0728 14.2212 12.6953 14.2212L16.2598 14.2212L16.2598 15.6616C16.2598 16.1255 16.5039 16.4795 16.98 16.4795ZM16.2598 12.854L13.2446 12.854L13.2446 12.8052C13.9648 11.4258 15.2222 9.27734 16.1865 7.62939L16.2598 7.62939Z" fill="#5ac8f5"/>
 </g>
</svg>
