<?xml version="1.0" encoding="UTF-8"?>
<!--Generator: Apple Native CoreSVG 175.5-->
<!DOCTYPE svg
PUBLIC "-//W3C//DTD SVG 1.1//EN"
       "http://www.w3.org/Graphics/SVG/1.1/DTD/svg11.dtd">
<svg version="1.1" xmlns="http://www.w3.org/2000/svg" xmlns:xlink="http://www.w3.org/1999/xlink" width="24.9023" height="24.9146">
 <g>
  <rect height="24.9146" opacity="0" width="24.9023" x="0" y="0"/>
  <path d="M12.4512 24.9023C19.2627 24.9023 24.9023 19.2505 24.9023 12.4512C24.9023 5.63965 19.2505 0 12.439 0C5.63965 0 0 5.63965 0 12.4512C0 19.2505 5.65186 24.9023 12.4512 24.9023Z" fill="#5ac8f5" fill-opacity="0.25"/>
  <path d="M9.93652 17.8589C9.43604 17.8589 9.17969 17.4927 9.17969 17.0044L9.17969 15.5273L5.50537 15.5273C4.87061 15.5273 4.43115 15.1245 4.43115 14.4531C4.43115 14.1113 4.50439 13.8306 4.71191 13.4399C5.5542 11.9141 6.81152 9.76562 7.87354 7.99561C8.27637 7.2998 8.71582 7.01904 9.46045 7.01904C10.2051 7.01904 10.7056 7.49512 10.7056 8.22754L10.7056 14.1113L11.3892 14.1113C11.8286 14.1113 12.0972 14.3799 12.0972 14.8315C12.0972 15.271 11.8286 15.5273 11.3892 15.5273L10.7056 15.5273L10.7056 17.0044C10.7056 17.5049 10.437 17.8589 9.93652 17.8589ZM9.17969 14.1113L9.17969 8.72803L9.11865 8.72803C8.10547 10.437 6.82373 12.6343 6.0791 14.0625L6.0791 14.1113ZM16.8701 17.8955C15.6006 17.8955 14.5142 17.4072 13.8672 16.1865C13.4399 15.4053 13.1958 14.2822 13.1958 12.7441C13.1958 8.91113 14.6851 7.01904 17.1143 7.01904C18.5425 7.01904 19.5557 7.76367 19.8853 8.60596C19.9463 8.77686 19.9707 8.92334 19.9707 9.09424C19.9707 9.50928 19.7021 9.79004 19.3481 9.79004C19.0063 9.79004 18.811 9.63135 18.5913 9.31396C18.2739 8.82568 17.7734 8.48389 17.0532 8.48389C15.625 8.48389 14.6729 9.97314 14.6729 12.3413C14.6729 12.4023 14.6729 12.4268 14.6729 12.4634L14.7583 12.4634C15.0757 11.6333 15.918 10.8765 17.2607 10.8765C18.8965 10.8765 20.3735 12.0728 20.3735 14.2334C20.3735 16.5405 18.9087 17.8955 16.8701 17.8955ZM16.7969 16.5039C18.0176 16.5039 18.7744 15.6494 18.7744 14.3066C18.7744 13.0493 17.9932 12.1826 16.8091 12.1826C15.625 12.1826 14.8193 13.0615 14.8193 14.2944C14.8193 15.5884 15.625 16.5039 16.7969 16.5039Z" fill="#5ac8f5"/>
 </g>
</svg>
