<?xml version="1.0" encoding="UTF-8"?>
<!--Generator: Apple Native CoreSVG 175.5-->
<!DOCTYPE svg
PUBLIC "-//W3C//DTD SVG 1.1//EN"
       "http://www.w3.org/Graphics/SVG/1.1/DTD/svg11.dtd">
<svg version="1.1" xmlns="http://www.w3.org/2000/svg" xmlns:xlink="http://www.w3.org/1999/xlink" width="24.9023" height="24.9146">
 <g>
  <rect height="24.9146" opacity="0" width="24.9023" x="0" y="0"/>
  <path d="M7.4707 14.7583C8.75244 14.7583 9.77783 13.7207 9.77783 12.4512C9.77783 11.1816 8.75244 10.144 7.4707 10.144C6.20117 10.144 5.17578 11.1816 5.17578 12.4512C5.17578 13.7207 6.20117 14.7583 7.4707 14.7583ZM17.4316 14.7583C18.7012 14.7583 19.7266 13.7207 19.7266 12.4512C19.7266 11.1816 18.7012 10.144 17.4316 10.144C16.1499 10.144 15.1245 11.1816 15.1245 12.4512C15.1245 13.7207 16.1499 14.7583 17.4316 14.7583ZM12.4512 24.9023C19.2627 24.9023 24.9023 19.2505 24.9023 12.4512C24.9023 5.63965 19.2505 0 12.439 0C5.63965 0 0 5.63965 0 12.4512C0 19.2505 5.65186 24.9023 12.4512 24.9023ZM12.4512 22.8271C6.68945 22.8271 2.0874 18.2129 2.0874 12.4512C2.0874 6.68945 6.67725 2.0752 12.439 2.0752C18.2007 2.0752 22.8271 6.68945 22.8271 12.4512C22.8271 18.2129 18.2129 22.8271 12.4512 22.8271Z" fill="#5ac8f5"/>
 </g>
</svg>
