<?xml version="1.0" encoding="UTF-8"?>
<!--Generator: Apple Native CoreSVG 175.5-->
<!DOCTYPE svg
PUBLIC "-//W3C//DTD SVG 1.1//EN"
       "http://www.w3.org/Graphics/SVG/1.1/DTD/svg11.dtd">
<svg version="1.1" xmlns="http://www.w3.org/2000/svg" xmlns:xlink="http://www.w3.org/1999/xlink" width="24.9023" height="24.9146">
 <g>
  <rect height="24.9146" opacity="0" width="24.9023" x="0" y="0"/>
  <path d="M12.4512 24.9023C19.2627 24.9023 24.9023 19.2505 24.9023 12.4512C24.9023 5.63965 19.2505 0 12.439 0C5.63965 0 0 5.63965 0 12.4512C0 19.2505 5.65186 24.9023 12.4512 24.9023ZM12.4512 22.8271C6.68945 22.8271 2.0874 18.2129 2.0874 12.4512C2.0874 6.68945 6.67725 2.0752 12.439 2.0752C18.2007 2.0752 22.8271 6.68945 22.8271 12.4512C22.8271 18.2129 18.2129 22.8271 12.4512 22.8271ZM5.74951 16.4917C5.74951 16.9189 6.0791 17.2363 6.50635 17.2363L7.17773 17.2363C7.59277 17.2363 7.92236 16.9189 7.92236 16.4917L7.92236 15.5518C9.17969 15.625 10.9985 15.686 12.4512 15.686C13.9038 15.686 15.7104 15.625 16.9678 15.5518L16.9678 16.4917C16.9678 16.9189 17.2974 17.2363 17.7246 17.2363L18.396 17.2363C18.811 17.2363 19.1406 16.9189 19.1406 16.4917L19.1406 13.2324C19.1406 12.2925 18.9453 11.7554 18.4204 11.0718L17.9443 10.4614C17.7246 9.43604 17.3584 8.36182 17.1753 7.94678C16.8701 7.31201 16.2842 6.9458 15.5273 6.83594C15.1489 6.78711 13.9038 6.7627 12.4512 6.7627C10.9863 6.7627 9.75342 6.78711 9.36279 6.83594C8.61816 6.93359 8.03223 7.31201 7.72705 7.94678C7.53174 8.36182 7.16553 9.43604 6.95801 10.4614L6.46973 11.0718C5.94482 11.7554 5.74951 12.2925 5.74951 13.2324ZM8.39844 9.92432C8.53271 9.33838 8.77686 8.59375 8.94775 8.28857C9.09424 8.03223 9.25293 7.92236 9.5459 7.88574C9.93652 7.82471 10.8398 7.80029 12.4512 7.80029C14.0503 7.80029 14.9536 7.8125 15.3564 7.88574C15.6494 7.92236 15.7959 8.03223 15.9546 8.28857C16.1255 8.58154 16.3696 9.33838 16.4917 9.92432C16.5527 10.1074 16.4673 10.1929 16.2598 10.1807C15.3931 10.1074 14.3433 10.0708 12.4512 10.0708C10.5469 10.0708 9.50928 10.1074 8.63037 10.1807C8.42285 10.1929 8.34961 10.1074 8.39844 9.92432ZM7.4585 13.2568C7.4585 12.7319 7.86133 12.3413 8.36182 12.3413C8.87451 12.3413 9.27734 12.7319 9.27734 13.2568C9.27734 13.7695 8.87451 14.1479 8.36182 14.1479C7.86133 14.1479 7.4585 13.7695 7.4585 13.2568ZM10.3027 13.2935C10.3027 12.9028 10.5713 12.6343 10.9619 12.6343L13.9404 12.6343C14.3188 12.6343 14.5874 12.9028 14.5874 13.2935C14.5874 13.6719 14.3188 13.9404 13.9404 13.9404L10.9619 13.9404C10.5713 13.9404 10.3027 13.6719 10.3027 13.2935ZM15.625 13.2568C15.625 12.7319 16.0156 12.3413 16.5283 12.3413C17.041 12.3413 17.4438 12.7319 17.4438 13.2568C17.4438 13.7695 17.041 14.1479 16.5283 14.1479C16.0156 14.1479 15.625 13.7695 15.625 13.2568Z" fill="#5ac8f5"/>
 </g>
</svg>
