<?xml version="1.0" encoding="UTF-8"?>
<!--Generator: Apple Native CoreSVG 175.5-->
<!DOCTYPE svg
PUBLIC "-//W3C//DTD SVG 1.1//EN"
       "http://www.w3.org/Graphics/SVG/1.1/DTD/svg11.dtd">
<svg version="1.1" xmlns="http://www.w3.org/2000/svg" xmlns:xlink="http://www.w3.org/1999/xlink" width="16.4673" height="22.7661">
 <g>
  <rect height="22.7661" opacity="0" width="16.4673" x="0" y="0"/>
  <path d="M0 1.36719C0 1.80664 0.354004 2.16064 0.805664 2.16064L15.6616 2.16064C16.1133 2.16064 16.4673 1.80664 16.4673 1.36719C16.4673 0.927734 16.1133 0.57373 15.6616 0.57373L0.805664 0.57373C0.354004 0.57373 0 0.927734 0 1.36719ZM0 5.92041C0 6.45752 0.439453 6.89697 0.976562 6.89697L7.06787 6.89697L7.06787 21.5942C7.06787 22.2412 7.58057 22.7661 8.22754 22.7661C8.88672 22.7661 9.39941 22.2412 9.39941 21.5942L9.39941 6.89697L15.4785 6.89697C16.0278 6.89697 16.4673 6.45752 16.4673 5.92041C16.4673 5.3833 16.0278 4.94385 15.4785 4.94385L0.976562 4.94385C0.439453 4.94385 0 5.3833 0 5.92041Z" fill="#5ac8f5"/>
 </g>
</svg>
