<?xml version="1.0" encoding="UTF-8"?>
<!--Generator: Apple Native CoreSVG 175.5-->
<!DOCTYPE svg
PUBLIC "-//W3C//DTD SVG 1.1//EN"
       "http://www.w3.org/Graphics/SVG/1.1/DTD/svg11.dtd">
<svg version="1.1" xmlns="http://www.w3.org/2000/svg" xmlns:xlink="http://www.w3.org/1999/xlink" width="24.9023" height="24.9146">
 <g>
  <rect height="24.9146" opacity="0" width="24.9023" x="0" y="0"/>
  <path d="M12.4512 24.9023C19.2627 24.9023 24.9023 19.2505 24.9023 12.4512C24.9023 5.63965 19.2505 0 12.439 0C5.63965 0 0 5.63965 0 12.4512C0 19.2505 5.65186 24.9023 12.4512 24.9023ZM12.4512 22.8271C6.68945 22.8271 2.0874 18.2129 2.0874 12.4512C2.0874 6.68945 6.67725 2.0752 12.439 2.0752C18.2007 2.0752 22.8271 6.68945 22.8271 12.4512C22.8271 18.2129 18.2129 22.8271 12.4512 22.8271ZM9.53369 18.3228C11.3892 18.3228 12.4146 17.3584 12.7441 15.332L13.147 12.8052L15.7104 12.8052C16.1133 12.8052 16.3818 12.5488 16.3818 12.1704C16.3818 11.7676 16.1133 11.499 15.7104 11.499L13.3545 11.499L13.6475 9.64355C13.8428 8.45947 14.3433 7.95898 15.4175 7.95898C15.7715 7.95898 15.9302 7.99561 16.1255 8.03223C16.2231 8.05664 16.333 8.06885 16.4673 8.06885C16.9067 8.06885 17.1631 7.78809 17.1631 7.42188C17.1631 7.08008 16.9678 6.81152 16.5527 6.66504C16.2598 6.55518 15.8569 6.50635 15.3442 6.50635C13.4888 6.50635 12.4634 7.48291 12.1338 9.50928L11.8164 11.499L9.36279 11.499C8.95996 11.499 8.70361 11.7676 8.70361 12.1704C8.70361 12.5488 8.94775 12.8052 9.36279 12.8052L11.6211 12.8052L11.2427 15.1367C11.0352 16.3696 10.5347 16.8823 9.46045 16.8823C9.09424 16.8823 8.94775 16.8335 8.75244 16.7969C8.64258 16.7725 8.54492 16.7603 8.39844 16.7603C7.95898 16.7603 7.70264 17.041 7.70264 17.4072C7.70264 17.7612 7.89795 18.0176 8.31299 18.1641C8.60596 18.2861 9.00879 18.3228 9.53369 18.3228Z" fill="#5ac8f5"/>
 </g>
</svg>
