<?xml version="1.0" encoding="UTF-8"?>
<!--Generator: Apple Native CoreSVG 175.5-->
<!DOCTYPE svg
PUBLIC "-//W3C//DTD SVG 1.1//EN"
       "http://www.w3.org/Graphics/SVG/1.1/DTD/svg11.dtd">
<svg version="1.1" xmlns="http://www.w3.org/2000/svg" xmlns:xlink="http://www.w3.org/1999/xlink" width="22.4731" height="18.4204">
 <g>
  <rect height="18.4204" opacity="0" width="22.4731" x="0" y="0"/>
  <path d="M0 17.4316C0 17.9688 0.439453 18.4204 0.976562 18.4204C1.52588 18.4204 1.96533 17.9688 1.96533 17.4316L1.96533 1.00098C1.96533 0.463867 1.52588 0.0244141 0.976562 0.0244141C0.439453 0.0244141 0 0.463867 0 1.00098ZM20.5078 17.4316C20.5078 17.9688 20.9595 18.4204 21.4966 18.4204C22.0337 18.4204 22.4731 17.9688 22.4731 17.4316L22.4731 1.00098C22.4731 0.463867 22.0337 0.0244141 21.4966 0.0244141C20.9595 0.0244141 20.5078 0.463867 20.5078 1.00098ZM11.2183 15.0146C13.8184 15.0146 15.5762 13.6719 15.5762 11.7065C15.5762 10.3516 14.5874 9.22852 13.1348 8.93555L13.1348 8.8623C14.3433 8.5083 15.1123 7.53174 15.1123 6.34766C15.1123 4.60205 13.5132 3.39355 11.2427 3.39355C8.97217 3.39355 7.37305 4.60205 7.37305 6.34766C7.37305 7.53174 8.11768 8.48389 9.35059 8.8623L9.35059 8.93555C7.88574 9.22852 6.89697 10.3638 6.89697 11.7188C6.89697 13.6963 8.63037 15.0146 11.2183 15.0146ZM11.2549 13.6719C9.81445 13.6719 8.75244 12.8174 8.75244 11.6211C8.75244 10.4614 9.82666 9.59473 11.2549 9.59473C12.7075 9.59473 13.7329 10.4492 13.7329 11.6211C13.7329 12.8174 12.6831 13.6719 11.2549 13.6719ZM11.2427 8.31299C10.022 8.31299 9.16748 7.55615 9.16748 6.50635C9.16748 5.48096 10.022 4.73633 11.2427 4.73633C12.4634 4.73633 13.3179 5.48096 13.3179 6.50635C13.3179 7.55615 12.4512 8.31299 11.2427 8.31299Z" fill="#5ac8f5"/>
 </g>
</svg>
