<?xml version="1.0" encoding="UTF-8"?>
<!--Generator: Apple Native CoreSVG 175.5-->
<!DOCTYPE svg
PUBLIC "-//W3C//DTD SVG 1.1//EN"
       "http://www.w3.org/Graphics/SVG/1.1/DTD/svg11.dtd">
<svg version="1.1" xmlns="http://www.w3.org/2000/svg" xmlns:xlink="http://www.w3.org/1999/xlink" width="32.3975" height="22.3999">
 <g>
  <rect height="22.3999" opacity="0" width="32.3975" x="0" y="0"/>
  <path d="M18.0054 22.3877C18.8354 22.3877 19.4336 21.7773 19.4336 20.9595L19.4336 16.2964L19.7876 16.2964C24.5239 16.2964 27.5024 17.4927 29.6387 21.4844C30.0659 22.2656 30.6274 22.3877 31.1401 22.3877C31.7871 22.3877 32.3975 21.8018 32.3975 20.752C32.3975 11.731 28.5645 6.10352 19.7876 6.10352L19.4336 6.10352L19.4336 1.48926C19.4336 0.671387 18.8354 0 17.981 0C17.3828 0 16.98 0.256348 16.333 0.866699L6.70166 9.87549C6.22559 10.3271 6.0791 10.7788 6.0791 11.1938C6.0791 11.5967 6.23779 12.0605 6.70166 12.5L16.333 21.5942C16.9189 22.1436 17.4072 22.3877 18.0054 22.3877ZM17.3096 19.7632C17.2363 19.7632 17.1631 19.7266 17.0898 19.6533L8.39844 11.4258C8.30078 11.3281 8.26416 11.2671 8.26416 11.1938C8.26416 11.1206 8.30078 11.0474 8.39844 10.9619L17.0898 2.62451C17.1509 2.57568 17.2241 2.52686 17.2974 2.52686C17.4072 2.52686 17.4683 2.6001 17.4683 2.69775L17.4683 7.54395C17.4683 7.82471 17.6025 7.94678 17.8833 7.94678L19.519 7.94678C27.8931 7.94678 30.4199 13.7573 30.6641 19.519C30.6641 19.6167 30.6274 19.6533 30.5664 19.6533C30.5176 19.6533 30.4932 19.6167 30.4565 19.5312C29.0161 16.4673 25.3174 14.4531 19.519 14.4531L17.8833 14.4531C17.6025 14.4531 17.4683 14.5752 17.4683 14.856L17.4683 19.5801C17.4683 19.6899 17.4072 19.7632 17.3096 19.7632ZM11.9263 22.3877C12.7563 22.3877 13.3545 21.7773 13.3545 20.9595L13.3545 17.8223L11.3892 16.2598L11.3892 19.5801C11.3892 19.6899 11.3281 19.7632 11.2183 19.7632C11.1572 19.7632 11.084 19.7266 11.0107 19.6533L2.31934 11.4258C2.22168 11.3281 2.18506 11.2671 2.18506 11.1938C2.18506 11.1206 2.22168 11.0474 2.31934 10.9619L11.0107 2.62451C11.0718 2.57568 11.145 2.52686 11.2183 2.52686C11.3281 2.52686 11.3892 2.6001 11.3892 2.69775L11.3892 6.10352L13.3545 4.55322L13.3545 1.48926C13.3545 0.671387 12.7563 0 11.9019 0C11.3037 0 10.9009 0.256348 10.2539 0.866699L0.610352 9.87549C0.134277 10.3271 0 10.7788 0 11.1938C0 11.5967 0.146484 12.0605 0.610352 12.5L10.2539 21.5942C10.8276 22.1436 11.3281 22.3877 11.9263 22.3877Z" fill="#5ac8f5"/>
 </g>
</svg>
