<?xml version="1.0" encoding="UTF-8"?>
<!--Generator: Apple Native CoreSVG 175.5-->
<!DOCTYPE svg
PUBLIC "-//W3C//DTD SVG 1.1//EN"
       "http://www.w3.org/Graphics/SVG/1.1/DTD/svg11.dtd">
<svg version="1.1" xmlns="http://www.w3.org/2000/svg" xmlns:xlink="http://www.w3.org/1999/xlink" width="32.3975" height="22.7173">
 <g>
  <rect height="22.7173" opacity="0" width="32.3975" x="0" y="0"/>
  <path d="M10.7178 22.7173C11.2671 22.7173 11.5967 22.4487 11.7188 21.9604C13.0371 17.8833 15.1367 16.4429 18.6035 16.4429L19.043 16.4551L19.043 21.1182C19.043 21.936 19.6411 22.5464 20.4712 22.5464C21.0693 22.5464 21.5576 22.3022 22.1436 21.7529L31.7871 12.6587C32.251 12.2192 32.3975 11.7554 32.3975 11.3525C32.3975 10.9375 32.251 10.4736 31.7871 10.0342L22.1436 1.02539C21.4966 0.415039 21.0938 0.146484 20.4956 0.146484C19.6411 0.146484 19.043 0.830078 19.043 1.64795L19.043 6.26221L18.689 6.26221C14.856 6.26221 11.5234 8.53271 10.7666 13.0981L10.6323 13.0981C9.79004 8.04443 6.32324 6.26221 3.03955 6.26221C2.97852 6.26221 2.7832 6.26221 2.35596 6.26221C0.671387 6.26221 0 6.89697 0 8.71582L0 14.5508C0 15.9302 0.65918 16.5161 2.24609 16.5161C2.6123 16.5161 2.94189 16.5161 3.32031 16.5161C6.65283 16.5161 8.8501 18.7378 9.729 21.9482C9.83887 22.4487 10.1562 22.7173 10.7178 22.7173ZM10.0708 19.2139C8.70361 15.7471 6.22559 14.624 3.17383 14.5996C2.92969 14.5996 2.67334 14.5996 2.44141 14.5996C2.13623 14.5996 1.96533 14.4165 1.96533 14.0625L1.96533 8.71582C1.96533 8.36182 2.13623 8.1665 2.46582 8.1665C2.70996 8.1665 2.90527 8.1665 3.14941 8.1665C6.83594 8.21533 9.97314 10.8154 10.2051 19.2139ZM21.1792 19.9219C21.0693 19.9219 21.0083 19.8486 21.0083 19.7388L21.0083 15.0146C21.0083 14.7339 20.874 14.6118 20.5933 14.6118L18.5425 14.5996C14.978 14.5996 12.6221 16.0278 11.377 19.2139L11.2427 19.2139C11.438 11.7432 14.1602 8.10547 18.75 8.10547L20.5933 8.10547C20.874 8.10547 21.0083 7.9834 21.0083 7.70264L21.0083 2.85645C21.0083 2.75879 21.0815 2.68555 21.1792 2.68555C21.2646 2.68555 21.3257 2.73438 21.3867 2.7832L30.0781 11.1206C30.1758 11.2061 30.2124 11.2793 30.2124 11.3525C30.2124 11.4258 30.1758 11.4868 30.0781 11.5845L21.3867 19.812C21.3135 19.8853 21.2402 19.9219 21.1792 19.9219Z" fill="#5ac8f5"/>
 </g>
</svg>
