<?xml version="1.0" encoding="UTF-8"?>
<!--Generator: Apple Native CoreSVG 175.5-->
<!DOCTYPE svg
PUBLIC "-//W3C//DTD SVG 1.1//EN"
       "http://www.w3.org/Graphics/SVG/1.1/DTD/svg11.dtd">
<svg version="1.1" xmlns="http://www.w3.org/2000/svg" xmlns:xlink="http://www.w3.org/1999/xlink" width="24.5972" height="21.1304">
 <g>
  <rect height="21.1304" opacity="0" width="24.5972" x="0" y="0"/>
  <path d="M16.7725 1.85547L23.6572 1.85547C24.1699 1.85547 24.5972 1.45264 24.5972 0.927734C24.5972 0.415039 24.1699 0.012207 23.6572 0.012207L16.7725 0.012207C16.2598 0.012207 15.8569 0.415039 15.8569 0.927734C15.8569 1.45264 16.2598 1.85547 16.7725 1.85547ZM16.7725 8.25195L23.6572 8.25195C24.1699 8.25195 24.5972 7.84912 24.5972 7.32422C24.5972 6.81152 24.1699 6.40869 23.6572 6.40869L16.7725 6.40869C16.2598 6.40869 15.8569 6.81152 15.8569 7.32422C15.8569 7.84912 16.2598 8.25195 16.7725 8.25195ZM0.915527 14.6484L23.6572 14.6484C24.1699 14.6484 24.5972 14.2334 24.5972 13.7207C24.5972 13.208 24.1699 12.8052 23.6572 12.8052L0.915527 12.8052C0.402832 12.8052 0 13.208 0 13.7207C0 14.2334 0.402832 14.6484 0.915527 14.6484ZM0.915527 21.0327L23.6572 21.0327C24.1699 21.0327 24.5972 20.6299 24.5972 20.1172C24.5972 19.6045 24.1699 19.1895 23.6572 19.1895L0.915527 19.1895C0.402832 19.1895 0 19.6045 0 20.1172C0 20.6299 0.402832 21.0327 0.915527 21.0327Z" fill="#5ac8f5" fill-opacity="0.5"/>
  <path d="M3.36914 9.04541C4.91943 9.04541 6.20117 8.00781 6.20117 6.35986C6.20117 4.79736 5.13916 3.77197 3.68652 3.77197C2.67334 3.77197 1.96533 4.30908 1.72119 5.35889L1.9165 5.3833C2.03857 3.22266 3.45459 1.77002 5.48096 1.67236C5.94482 1.64795 6.28662 1.31836 6.28662 0.854492C6.28662 0.292969 5.82275 0 5.22461 0C2.46582 0 0.0366211 2.34375 0.0366211 5.43213C0.0366211 7.62939 1.50146 9.04541 3.36914 9.04541ZM10.8398 9.04541C12.3901 9.04541 13.6841 8.00781 13.6841 6.35986C13.6841 4.79736 12.6221 3.77197 11.1572 3.77197C10.1562 3.77197 9.44824 4.30908 9.19189 5.35889L9.38721 5.3833C9.50928 3.22266 10.9253 1.75781 12.9395 1.67236C13.4155 1.64795 13.7695 1.31836 13.7695 0.854492C13.7695 0.292969 13.3179 0 12.6953 0C9.96094 0 7.50732 2.34375 7.50732 5.43213C7.50732 7.62939 8.98438 9.04541 10.8398 9.04541Z" fill="#5ac8f5"/>
 </g>
</svg>
