<?xml version="1.0" encoding="UTF-8"?>
<!--Generator: Apple Native CoreSVG 175.5-->
<!DOCTYPE svg
PUBLIC "-//W3C//DTD SVG 1.1//EN"
       "http://www.w3.org/Graphics/SVG/1.1/DTD/svg11.dtd">
<svg version="1.1" xmlns="http://www.w3.org/2000/svg" xmlns:xlink="http://www.w3.org/1999/xlink" width="20.3979" height="27.5269">
 <g>
  <rect height="27.5269" opacity="0" width="20.3979" x="0" y="0"/>
  <path d="M3.38135 27.5024L17.0166 27.5024C19.043 27.5024 20.3979 26.2085 20.3979 24.2798L20.3979 3.23486C20.3979 1.30615 19.043 0 17.0166 0L3.38135 0C1.35498 0 0 1.30615 0 3.23486L0 24.2798C0 26.2085 1.35498 27.5024 3.38135 27.5024ZM3.62549 25.5371C2.57568 25.5371 1.96533 24.9512 1.96533 23.9502L1.96533 3.56445C1.96533 2.56348 2.57568 1.96533 3.62549 1.96533L16.7725 1.96533C17.8101 1.96533 18.4326 2.56348 18.4326 3.56445L18.4326 23.9502C18.4326 24.9512 17.8101 25.5371 16.7725 25.5371ZM5.51758 11.2427L14.8926 11.2427C15.5396 11.2427 15.979 10.8154 15.979 10.1318L15.979 7.49512C15.979 6.81152 15.5396 6.38428 14.8926 6.38428L5.51758 6.38428C4.87061 6.38428 4.43115 6.81152 4.43115 7.49512L4.43115 10.1318C4.43115 10.8154 4.87061 11.2427 5.51758 11.2427ZM5.51758 21.0938L14.8926 21.0938C15.5396 21.0938 15.979 20.6543 15.979 19.9829L15.979 17.334C15.979 16.6626 15.5396 16.2231 14.8926 16.2231L5.51758 16.2231C4.87061 16.2231 4.43115 16.6626 4.43115 17.334L4.43115 19.9829C4.43115 20.6543 4.87061 21.0938 5.51758 21.0938Z" fill="#5ac8f5"/>
 </g>
</svg>
