<?xml version="1.0" encoding="UTF-8"?>
<!--Generator: Apple Native CoreSVG 175.5-->
<!DOCTYPE svg
PUBLIC "-//W3C//DTD SVG 1.1//EN"
       "http://www.w3.org/Graphics/SVG/1.1/DTD/svg11.dtd">
<svg version="1.1" xmlns="http://www.w3.org/2000/svg" xmlns:xlink="http://www.w3.org/1999/xlink" width="24.9023" height="24.9146">
 <g>
  <rect height="24.9146" opacity="0" width="24.9023" x="0" y="0"/>
  <path d="M12.4512 24.9023C19.2627 24.9023 24.9023 19.2505 24.9023 12.4512C24.9023 5.63965 19.2505 0 12.439 0C5.63965 0 0 5.63965 0 12.4512C0 19.2505 5.65186 24.9023 12.4512 24.9023ZM12.4512 22.8271C6.68945 22.8271 2.0874 18.2129 2.0874 12.4512C2.0874 6.68945 6.67725 2.0752 12.439 2.0752C18.2007 2.0752 22.8271 6.68945 22.8271 12.4512C22.8271 18.2129 18.2129 22.8271 12.4512 22.8271ZM12.7686 19.5679C15.7104 19.5679 18.2373 17.7612 19.104 15.5396C19.1772 15.3931 19.1895 15.2344 19.1895 15.1733C19.1895 14.917 18.9819 14.7461 18.7866 14.7461C18.7012 14.7461 18.6157 14.7583 18.4937 14.8071C17.981 14.978 17.1143 15.1611 16.272 15.1611C12.5732 15.1611 10.2051 12.8418 10.2051 9.13086C10.2051 8.36182 10.4126 7.27539 10.6323 6.70166C10.7056 6.54297 10.7056 6.44531 10.7056 6.38428C10.7056 6.20117 10.5713 5.99365 10.3149 5.99365C10.2295 5.99365 10.0708 6.00586 9.91211 6.0791C7.38525 7.08008 5.68848 9.81445 5.68848 12.6709C5.68848 16.687 8.76465 19.5679 12.7686 19.5679Z" fill="#5ac8f5"/>
 </g>
</svg>
