<?xml version="1.0" encoding="UTF-8"?>
<!--Generator: Apple Native CoreSVG 175.5-->
<!DOCTYPE svg
PUBLIC "-//W3C//DTD SVG 1.1//EN"
       "http://www.w3.org/Graphics/SVG/1.1/DTD/svg11.dtd">
<svg version="1.1" xmlns="http://www.w3.org/2000/svg" xmlns:xlink="http://www.w3.org/1999/xlink" width="30.6885" height="27.2583">
 <g>
  <rect height="27.2583" opacity="0" width="30.6885" x="0" y="0"/>
  <path d="M18.5913 19.043L18.5913 21.0083L24.6948 21.0083C28.4424 21.0083 30.6885 18.75 30.6885 15.7959C30.6885 13.3301 29.2114 11.3037 26.8311 10.3394C26.8555 4.89502 22.937 0.964355 17.9443 0.964355C14.6362 0.964355 12.2803 2.73438 10.8154 4.87061C8.04443 4.12598 4.54102 6.27441 4.47998 9.70459C1.72119 10.1318 0 12.3901 0 15.271C0 18.4448 2.38037 21.0083 6.38428 21.0083L12.207 21.0083L12.207 19.043L6.37207 19.043C3.479 19.043 1.96533 17.3706 1.96533 15.271C1.96533 12.9395 3.44238 11.2061 6.03027 11.2061C6.20117 11.2061 6.26221 11.1084 6.26221 10.9497C6.26221 7.20215 8.95996 6.16455 11.4746 6.89697C11.6211 6.9458 11.7065 6.92139 11.7798 6.78711C12.9639 4.67529 14.7827 2.92969 17.9443 2.92969C21.9482 2.92969 24.7192 6.10352 24.9268 9.74121C24.9634 10.2905 24.9268 10.9497 24.8779 11.5234C24.8657 11.6821 24.9268 11.7798 25.0732 11.8042C27.2949 12.2925 28.7231 13.6841 28.7231 15.7959C28.7231 17.6758 27.356 19.043 24.6826 19.043ZM15.4053 27.2583C15.9302 27.2583 16.3696 26.8311 16.3696 26.3184L16.3696 14.8682L16.2964 12.6099L17.1143 13.4766L18.9697 15.3198C19.1528 15.5029 19.397 15.6128 19.6289 15.6128C20.1294 15.6128 20.52 15.2588 20.52 14.7583C20.52 14.502 20.4224 14.2822 20.2271 14.1113L16.1011 10.2539C15.8447 10.022 15.6494 9.93652 15.4053 9.93652C15.1489 9.93652 14.9536 10.022 14.6973 10.2539L10.5713 14.1113C10.376 14.2822 10.2783 14.502 10.2783 14.7583C10.2783 15.2588 10.6445 15.6128 11.1572 15.6128C11.3892 15.6128 11.6455 15.5029 11.8286 15.3198L13.6841 13.4766L14.502 12.6099L14.4287 14.8682L14.4287 26.3184C14.4287 26.8311 14.8804 27.2583 15.4053 27.2583Z" fill="#5ac8f5"/>
 </g>
</svg>
