<?xml version="1.0" encoding="UTF-8"?>
<!--Generator: Apple Native CoreSVG 175.5-->
<!DOCTYPE svg
PUBLIC "-//W3C//DTD SVG 1.1//EN"
       "http://www.w3.org/Graphics/SVG/1.1/DTD/svg11.dtd">
<svg version="1.1" xmlns="http://www.w3.org/2000/svg" xmlns:xlink="http://www.w3.org/1999/xlink" width="24.9023" height="24.9146">
 <g>
  <rect height="24.9146" opacity="0" width="24.9023" x="0" y="0"/>
  <path d="M12.4512 24.9023C19.2627 24.9023 24.9023 19.2505 24.9023 12.4512C24.9023 5.63965 19.2505 0 12.439 0C5.63965 0 0 5.63965 0 12.4512C0 19.2505 5.65186 24.9023 12.4512 24.9023ZM12.4512 22.8271C6.68945 22.8271 2.0874 18.2129 2.0874 12.4512C2.0874 6.68945 6.67725 2.0752 12.439 2.0752C18.2007 2.0752 22.8271 6.68945 22.8271 12.4512C22.8271 18.2129 18.2129 22.8271 12.4512 22.8271ZM9.47266 15.3076C12.3169 18.1641 15.9424 19.9707 18.0908 17.8345C18.1763 17.749 18.2373 17.6758 18.2983 17.5903C18.8599 16.9678 19.0063 16.1499 18.2983 15.6006C17.7368 15.1978 17.1387 14.7705 16.1255 14.0747C15.4175 13.5742 14.9536 13.6963 14.4043 14.2456L13.916 14.7217C13.7817 14.856 13.5376 14.8438 13.3789 14.7461C12.9395 14.4897 12.2314 13.916 11.5479 13.2324C10.8765 12.561 10.2783 11.8042 10.0342 11.4014C9.94873 11.2671 9.8999 11.0474 10.0586 10.8887L10.5347 10.376C11.084 9.80225 11.2061 9.36279 10.6934 8.64258L9.19189 6.51855C8.6792 5.79834 7.93457 5.94482 7.1167 6.54297C7.05566 6.5918 7.00684 6.64062 6.95801 6.68945C4.79736 8.83789 6.62842 12.4634 9.47266 15.3076Z" fill="#5ac8f5"/>
 </g>
</svg>
