<?xml version="1.0" encoding="UTF-8"?>
<!--Generator: Apple Native CoreSVG 175.5-->
<!DOCTYPE svg
PUBLIC "-//W3C//DTD SVG 1.1//EN"
       "http://www.w3.org/Graphics/SVG/1.1/DTD/svg11.dtd">
<svg version="1.1" xmlns="http://www.w3.org/2000/svg" xmlns:xlink="http://www.w3.org/1999/xlink" width="23.7793" height="23.7671">
 <g>
  <rect height="23.7671" opacity="0" width="23.7793" x="0" y="0"/>
  <path d="M11.8896 23.7549C12.3413 23.7549 12.7075 23.4253 12.7808 22.937C13.8306 14.8071 14.978 13.6475 22.9248 12.7686C23.4253 12.7197 23.7793 12.3535 23.7793 11.8774C23.7793 11.4014 23.4253 11.0352 22.9248 10.9741C14.978 10.1074 13.8306 8.94775 12.7808 0.805664C12.7075 0.317383 12.3413 0 11.8896 0C11.438 0 11.0718 0.317383 10.9985 0.805664C9.94873 8.94775 8.80127 10.1074 0.854492 10.9741C0.354004 11.0352 0 11.4014 0 11.8774C0 12.3535 0.354004 12.7197 0.854492 12.7686C8.80127 13.8184 9.87549 14.8193 10.9985 22.937C11.0718 23.4253 11.438 23.7549 11.8896 23.7549Z" fill="#5ac8f5"/>
 </g>
</svg>
