<?xml version="1.0" encoding="UTF-8"?>
<!--Generator: Apple Native CoreSVG 175.5-->
<!DOCTYPE svg
PUBLIC "-//W3C//DTD SVG 1.1//EN"
       "http://www.w3.org/Graphics/SVG/1.1/DTD/svg11.dtd">
<svg version="1.1" xmlns="http://www.w3.org/2000/svg" xmlns:xlink="http://www.w3.org/1999/xlink" width="34.8389" height="28.3691">
 <g>
  <rect height="28.3691" opacity="0" width="34.8389" x="0" y="0"/>
  <path d="M30.0415 28.0945C30.4077 28.4607 31.0181 28.4607 31.3721 28.0945C31.7383 27.7283 31.7383 27.1301 31.3721 26.7639L4.94385 0.335693C4.57764-0.0305176 3.97949-0.0427246 3.60107 0.335693C3.24707 0.689697 3.24707 1.30005 3.60107 1.66626ZM4.89502 24.6765C5.33447 24.2981 5.39551 23.7122 5.0415 23.2239C3.18604 20.697 2.0874 17.5598 2.0874 14.1785C2.0874 10.8948 3.11279 7.87964 4.8584 5.3894L3.35693 3.88794C1.2085 6.82983 0 10.3943 0 14.1785C0 18.0481 1.25732 21.6003 3.38135 24.4934C3.75977 25.0183 4.40674 25.0671 4.89502 24.6765ZM17.4194 26.0803C19.751 26.0803 21.936 25.3845 23.7793 24.1882L22.29 22.7112C20.8618 23.5291 19.2017 24.0051 17.4194 24.0051C11.9751 24.0051 7.60498 19.635 7.60498 14.1785C7.60498 12.3962 8.06885 10.7361 8.89893 9.32007L7.39746 7.8064C6.21338 9.66187 5.51758 11.8469 5.51758 14.1785C5.51758 20.6848 10.9131 26.0803 17.4194 26.0803ZM17.4072 4.3396C22.8638 4.3396 27.2583 8.70972 27.2583 14.1785C27.2583 15.9363 26.7822 17.5842 25.9766 19.0002L27.4536 20.4895C28.6377 18.6707 29.3335 16.4856 29.3335 14.1785C29.3335 7.67212 23.9258 2.27661 17.4072 2.27661C15.1001 2.27661 12.9272 2.96021 11.1084 4.13208L12.5977 5.63354C14.0137 4.81567 15.6494 4.3396 17.4072 4.3396ZM29.9438 3.66821C29.4922 4.04663 29.4556 4.64478 29.7974 5.12085C31.665 7.65991 32.7515 10.7849 32.7515 14.1785C32.7515 17.4255 31.7383 20.4407 30.0171 22.9187L31.5186 24.4202C33.667 21.4417 34.8389 17.9626 34.8389 14.1785C34.8389 10.3088 33.5938 6.74438 31.4575 3.85132C31.0791 3.33862 30.4321 3.26538 29.9438 3.66821ZM10.0708 17.804C10.3638 17.804 10.6689 17.6331 10.7422 17.3157L11.0352 16.0339L12.8906 16.0339L13.1836 17.3157C13.2568 17.6331 13.5742 17.7917 13.8672 17.7917C14.3555 17.7917 14.6851 17.4133 14.5386 16.8518L13.916 14.5569L12.1826 12.8235L12.6831 14.9841L11.2549 14.9841L11.8286 12.4695L10.8398 11.4685L9.38721 16.8518C9.25293 17.3767 9.52148 17.804 10.0708 17.804ZM23.6938 16.4978L24.6094 17.4133C25.1709 17.0471 25.5127 16.4612 25.5127 15.6799C25.5127 14.3982 24.6948 13.9099 23.3887 13.385C22.6807 13.1042 22.2778 12.8845 22.2778 12.2864C22.2778 11.7859 22.6074 11.4685 23.1445 11.4685C23.6572 11.4685 23.9502 11.7493 24.0356 12.2131C24.1211 12.5183 24.3896 12.6648 24.6704 12.6648C25.0122 12.6648 25.354 12.4573 25.354 12.0544C25.354 11.9568 25.3418 11.8591 25.3174 11.7615C25.1099 10.9436 24.3652 10.2966 23.1323 10.2966C21.7529 10.2966 20.8374 11.1389 20.8374 12.3718C20.8374 13.6169 21.6553 14.1174 22.6318 14.5081C23.584 14.8621 24.1089 15.1794 24.1089 15.7898C24.1089 16.1072 23.9502 16.3635 23.6938 16.4978Z" fill="#5ac8f5"/>
 </g>
</svg>
