<?xml version="1.0" encoding="UTF-8"?>
<!--Generator: Apple Native CoreSVG 175.5-->
<!DOCTYPE svg
PUBLIC "-//W3C//DTD SVG 1.1//EN"
       "http://www.w3.org/Graphics/SVG/1.1/DTD/svg11.dtd">
<svg version="1.1" xmlns="http://www.w3.org/2000/svg" xmlns:xlink="http://www.w3.org/1999/xlink" width="28.2959" height="23.5229">
 <g>
  <rect height="23.5229" opacity="0" width="28.2959" x="0" y="0"/>
  <path d="M0.854492 12.6831L4.00391 12.6831L4.00391 10.8887L0.854492 10.8887C0.366211 10.8887 0 11.3037 0 11.7798C0 12.2559 0.366211 12.6831 0.854492 12.6831ZM11.9751 12.6831L16.2964 12.6831L16.2964 10.8887L11.9751 10.8887ZM24.3408 12.6831L27.4536 12.6831C27.9297 12.6831 28.2959 12.2559 28.2959 11.7798C28.2959 11.3037 27.9297 10.8887 27.4536 10.8887L24.3408 10.8887Z" fill="#5ac8f5"/>
  <path d="M5.98145 23.5229L10.2295 23.5229C12.0117 23.5229 12.9761 22.522 12.9761 20.7031L12.9761 2.85645C12.9761 1.0376 12.0117 0.0610352 10.2295 0.0610352L5.98145 0.0610352C4.19922 0.0610352 3.23486 1.0376 3.23486 2.85645L3.23486 20.7031C3.23486 22.522 4.19922 23.5229 5.98145 23.5229ZM6.09131 21.6675C5.43213 21.6675 5.07812 21.3013 5.07812 20.6787L5.07812 2.88086C5.07812 2.2583 5.43213 1.9043 6.09131 1.9043L10.1196 1.9043C10.7788 1.9043 11.1328 2.2583 11.1328 2.88086L11.1328 20.6787C11.1328 21.3013 10.7788 21.6675 10.1196 21.6675ZM18.0908 19.1772L22.3389 19.1772C24.1089 19.1772 25.0854 18.2007 25.0854 16.3818L25.0854 7.17773C25.0854 5.35889 24.1089 4.38232 22.3389 4.38232L18.0908 4.38232C16.3086 4.38232 15.332 5.35889 15.332 7.17773L15.332 16.3818C15.332 18.2007 16.3086 19.1772 18.0908 19.1772ZM18.1885 17.334C17.5415 17.334 17.1753 16.98 17.1753 16.3574L17.1753 7.21436C17.1753 6.57959 17.5415 6.22559 18.1885 6.22559L22.229 6.22559C22.876 6.22559 23.2422 6.57959 23.2422 7.21436L23.2422 16.3574C23.2422 16.98 22.876 17.334 22.229 17.334Z" fill="#5ac8f5" fill-opacity="0.5"/>
 </g>
</svg>
