<?xml version="1.0" encoding="UTF-8"?>
<!--Generator: Apple Native CoreSVG 175.5-->
<!DOCTYPE svg
PUBLIC "-//W3C//DTD SVG 1.1//EN"
       "http://www.w3.org/Graphics/SVG/1.1/DTD/svg11.dtd">
<svg version="1.1" xmlns="http://www.w3.org/2000/svg" xmlns:xlink="http://www.w3.org/1999/xlink" width="22.4731" height="22.4976">
 <g>
  <rect height="22.4976" opacity="0" width="22.4731" x="0" y="0"/>
  <path d="M3.83301 22.4976L18.6401 22.4976C21.2036 22.4976 22.4731 21.228 22.4731 18.7134L22.4731 3.80859C22.4731 1.29395 21.2036 0.0244141 18.6401 0.0244141L3.83301 0.0244141C1.28174 0.0244141 0 1.28174 0 3.80859L0 18.7134C0 21.2402 1.28174 22.4976 3.83301 22.4976ZM8.00781 17.0166C7.37305 17.0166 7.01904 16.5527 7.01904 15.8813L7.01904 6.53076C7.01904 5.84717 7.36084 5.3833 7.99561 5.3833L11.6333 5.3833C14.1846 5.3833 15.7959 6.82373 15.7959 9.09424C15.7959 10.6567 14.8438 11.9751 13.3667 12.4634L15.2588 15.4175C15.4053 15.6738 15.4785 15.8691 15.4785 16.1499C15.4785 16.6626 15.1001 17.0166 14.563 17.0166C14.1113 17.0166 13.855 16.8335 13.5498 16.3452L11.377 12.7563L9.0332 12.7563L9.0332 15.8813C9.0332 16.5771 8.6792 17.0166 8.00781 17.0166ZM9.0332 11.2793L11.3281 11.2793C12.8418 11.2793 13.8062 10.5103 13.8062 9.14307C13.8062 7.73926 12.8174 6.93359 11.377 6.93359L9.0332 6.93359Z" fill="#5ac8f5"/>
 </g>
</svg>
