<?xml version="1.0" encoding="UTF-8"?>
<!--Generator: Apple Native CoreSVG 175.5-->
<!DOCTYPE svg
PUBLIC "-//W3C//DTD SVG 1.1//EN"
       "http://www.w3.org/Graphics/SVG/1.1/DTD/svg11.dtd">
<svg version="1.1" xmlns="http://www.w3.org/2000/svg" xmlns:xlink="http://www.w3.org/1999/xlink" width="22.4731" height="22.4976">
 <g>
  <rect height="22.4976" opacity="0" width="22.4731" x="0" y="0"/>
  <path d="M1.31836 10.2783L1.31836 12.2437L21.1914 12.2437L21.1914 10.2783ZM0 3.84521L0 18.6646C0 21.2158 1.26953 22.4976 3.78418 22.4976L18.689 22.4976C21.2036 22.4976 22.4731 21.2158 22.4731 18.6646L22.4731 3.84521C22.4731 1.30615 21.2158 0.0244141 18.689 0.0244141L3.78418 0.0244141C1.25732 0.0244141 0 1.30615 0 3.84521ZM1.96533 3.88184C1.96533 2.66113 2.6123 1.98975 3.88184 1.98975L18.5913 1.98975C19.8608 1.98975 20.5078 2.66113 20.5078 3.88184L20.5078 18.6279C20.5078 19.8364 19.8608 20.5322 18.5913 20.5322L3.88184 20.5322C2.6123 20.5322 1.96533 19.8364 1.96533 18.6279Z" fill="#5ac8f5"/>
 </g>
</svg>
