<?xml version="1.0" encoding="UTF-8"?>
<!--Generator: Apple Native CoreSVG 175.5-->
<!DOCTYPE svg
PUBLIC "-//W3C//DTD SVG 1.1//EN"
       "http://www.w3.org/Graphics/SVG/1.1/DTD/svg11.dtd">
<svg version="1.1" xmlns="http://www.w3.org/2000/svg" xmlns:xlink="http://www.w3.org/1999/xlink" width="43.7866" height="27.3315">
 <g>
  <rect height="27.3315" opacity="0" width="43.7866" x="0" y="0"/>
  <path d="M21.8872 25.3052C28.3447 25.3052 33.5571 20.0806 33.5571 13.6353C33.5571 7.18994 28.3447 1.96533 21.8872 1.96533C15.4419 1.96533 10.2173 7.18994 10.2173 13.6353C10.2173 20.0806 15.4419 25.3052 21.8872 25.3052ZM16.333 14.9902C15.8569 14.9902 15.4907 14.6118 15.4907 14.1357C15.4907 13.6597 15.8569 13.2935 16.333 13.2935L21.0327 13.2935L21.0327 6.73828C21.0327 6.26221 21.4111 5.896 21.875 5.896C22.3633 5.896 22.7295 6.26221 22.7295 6.73828L22.7295 14.1357C22.7295 14.6118 22.3633 14.9902 21.875 14.9902ZM11.8652 5.10254C12.0483 5.10254 12.1826 5.06592 12.3535 4.93164L16.4429 1.85547C16.6382 1.69678 16.748 1.51367 16.748 1.30615C16.748 1.0498 16.626 0.842285 16.4185 0.646973C15.9546 0.219727 15.1245 0 14.4043 0C12.4878 0 10.9619 1.52588 10.9619 3.41797C10.9619 3.88184 11.0474 4.3335 11.1694 4.61426C11.3037 4.90723 11.5601 5.10254 11.8652 5.10254ZM31.9214 5.10254C32.2144 5.10254 32.4707 4.89502 32.6172 4.61426C32.7515 4.3457 32.8125 3.88184 32.8125 3.41797C32.8125 1.52588 31.2988 0 29.3823 0C28.6499 0 27.832 0.219727 27.3682 0.646973C27.1484 0.842285 27.0264 1.0498 27.0264 1.30615C27.0264 1.51367 27.1362 1.69678 27.3438 1.85547L31.4331 4.93164C31.604 5.06592 31.7383 5.10254 31.9214 5.10254ZM11.6821 24.9634C12.0483 25.3296 12.6465 25.3296 13.0249 24.9512L15.332 22.6562L14.0137 21.3379L11.6943 23.645C11.3159 24.0112 11.3281 24.6094 11.6821 24.9634ZM32.1045 24.9634C32.4585 24.6094 32.4707 24.0112 32.0923 23.645L29.7729 21.3379L28.4546 22.6562L30.7495 24.9512C31.1279 25.3296 31.7261 25.3296 32.1045 24.9634Z" fill="#5ac8f5"/>
  <path d="M8.12988 18.5303C8.52051 18.0908 8.36182 17.5415 7.97119 17.0166C7.23877 16.1011 6.88477 14.9292 6.88477 13.6597C6.88477 12.3901 7.23877 11.2061 7.97119 10.3027C8.36182 9.77783 8.52051 9.22852 8.12988 8.78906C7.72705 8.3252 6.99463 8.3252 6.56738 8.87451C5.50537 10.1929 4.89502 11.8652 4.89502 13.6597C4.89502 15.4541 5.50537 17.1265 6.56738 18.4448C6.99463 18.9941 7.72705 18.9819 8.12988 18.5303ZM35.6445 18.5303C36.0474 18.9819 36.7798 18.9941 37.2192 18.4448C38.2812 17.1265 38.8916 15.4541 38.8916 13.6597C38.8916 11.8652 38.2812 10.1929 37.2192 8.87451C36.7798 8.3252 36.0474 8.3252 35.6445 8.78906C35.2539 9.22852 35.4248 9.77783 35.8032 10.3027C36.5356 11.2061 36.9019 12.3901 36.9019 13.6597C36.9019 14.9292 36.5356 16.1011 35.8032 17.0166C35.4248 17.5415 35.2539 18.0908 35.6445 18.5303Z" fill="#5ac8f5" fill-opacity="0.5"/>
  <path d="M4.71191 22.0093C5.10254 21.5698 4.98047 20.9961 4.54102 20.4956C2.90527 18.6768 1.98975 16.2842 1.98975 13.6597C1.98975 11.0352 2.90527 8.64258 4.54102 6.82373C4.98047 6.32324 5.10254 5.74951 4.71191 5.31006C4.32129 4.84619 3.6377 4.8584 3.17383 5.37109C1.14746 7.56836 0 10.498 0 13.6597C0 16.8213 1.14746 19.7388 3.17383 21.9482C3.6377 22.4609 4.32129 22.4609 4.71191 22.0093ZM39.0625 22.0093C39.4653 22.4609 40.1367 22.4609 40.6128 21.9482C42.6392 19.7388 43.7866 16.8213 43.7866 13.6597C43.7866 10.498 42.6392 7.56836 40.6128 5.37109C40.1367 4.8584 39.4653 4.84619 39.0625 5.31006C38.6841 5.74951 38.7939 6.32324 39.2456 6.82373C40.8813 8.64258 41.7969 11.0352 41.7969 13.6597C41.7969 16.2842 40.8813 18.6768 39.2456 20.4956C38.7939 20.9961 38.6841 21.5698 39.0625 22.0093Z" fill="#5ac8f5" fill-opacity="0.5"/>
 </g>
</svg>
