<?xml version="1.0" encoding="UTF-8"?>
<!--Generator: Apple Native CoreSVG 175.5-->
<!DOCTYPE svg
PUBLIC "-//W3C//DTD SVG 1.1//EN"
       "http://www.w3.org/Graphics/SVG/1.1/DTD/svg11.dtd">
<svg version="1.1" xmlns="http://www.w3.org/2000/svg" xmlns:xlink="http://www.w3.org/1999/xlink" width="22.4731" height="22.4976">
 <g>
  <rect height="22.4976" opacity="0" width="22.4731" x="0" y="0"/>
  <path d="M3.83301 22.4976L18.6401 22.4976C21.2036 22.4976 22.4731 21.228 22.4731 18.7134L22.4731 3.80859C22.4731 1.29395 21.2036 0.0244141 18.6401 0.0244141L3.83301 0.0244141C1.28174 0.0244141 0 1.28174 0 3.80859L0 18.7134C0 21.2402 1.28174 22.4976 3.83301 22.4976ZM3.85742 20.5322C2.63672 20.5322 1.96533 19.8853 1.96533 18.6157L1.96533 3.90625C1.96533 2.63672 2.63672 1.98975 3.85742 1.98975L18.6157 1.98975C19.8242 1.98975 20.5078 2.63672 20.5078 3.90625L20.5078 18.6157C20.5078 19.8853 19.8242 20.5322 18.6157 20.5322ZM11.4258 18.5425C11.7676 18.5425 12.0239 18.2983 12.0239 17.9321L12.0239 17.1143C14.5508 16.9067 15.9302 15.1245 15.9302 12.3535L15.9302 11.7432C15.9302 11.2183 15.6128 10.9131 15.1245 10.9131L12.0239 10.9131L12.0239 6.93359C13.0981 7.10449 13.9526 7.83691 14.2212 8.80127C14.3799 9.27734 14.5874 9.44824 15.0146 9.44824C15.4663 9.44824 15.7593 9.14307 15.7593 8.70361C15.7593 8.48389 15.7104 8.30078 15.6494 8.10547C15.1245 6.64062 13.7451 5.61523 12.0239 5.43213L12.0239 4.63867C12.0239 4.27246 11.7676 4.04053 11.4258 4.04053C11.084 4.04053 10.8154 4.27246 10.8154 4.63867L10.8154 5.45654C8.22754 5.77393 6.55518 7.97119 6.55518 11.2549C6.55518 14.6118 8.20312 16.7847 10.8154 17.1021L10.8154 17.9321C10.8154 18.2983 11.084 18.5425 11.4258 18.5425ZM10.8154 15.5884C9.19189 15.2466 8.19092 13.6353 8.19092 11.2549C8.19092 8.91113 9.2041 7.2998 10.8154 6.95801ZM12.0239 15.6372L12.0239 12.3535L14.3555 12.3535L14.3555 12.6221C14.3555 14.27 13.4888 15.4175 12.0239 15.6372Z" fill="#5ac8f5"/>
 </g>
</svg>
