<?xml version="1.0" encoding="UTF-8"?>
<!--Generator: Apple Native CoreSVG 175.5-->
<!DOCTYPE svg
PUBLIC "-//W3C//DTD SVG 1.1//EN"
       "http://www.w3.org/Graphics/SVG/1.1/DTD/svg11.dtd">
<svg version="1.1" xmlns="http://www.w3.org/2000/svg" xmlns:xlink="http://www.w3.org/1999/xlink" width="29.0405" height="22.4976">
 <g>
  <rect height="22.4976" opacity="0" width="29.0405" x="0" y="0"/>
  <path d="M8.10547 22.4976L20.9229 22.4976C23.3276 22.4976 24.292 21.228 24.646 18.8599L26.3794 7.23877L2.64893 7.23877L4.39453 18.8599C4.74854 21.2402 5.71289 22.4976 8.10547 22.4976ZM2.0752 5.57861L26.9653 5.57861C28.3447 5.57861 29.0405 4.76074 29.0405 3.39355L29.0405 2.20947C29.0405 0.842285 28.3447 0.0244141 26.9653 0.0244141L2.0752 0.0244141C0.769043 0.0244141 0 0.842285 0 2.20947L0 3.39355C0 4.76074 0.695801 5.57861 2.0752 5.57861Z" fill="#5ac8f5" fill-opacity="0.25"/>
  <path d="M15.4907 18.7622C15.4907 19.2749 15.0513 19.7021 14.5264 19.7021C14.0015 19.7021 13.5498 19.2749 13.5498 18.7622L13.5498 14.2578L13.6353 12.207L12.5854 13.3057L11.4746 14.4287C11.2915 14.6118 11.0474 14.7217 10.8032 14.7217C10.2783 14.7217 9.91211 14.3555 9.91211 13.8428C9.91211 13.5498 10.0342 13.3423 10.2295 13.1592L13.8184 9.86328C14.0869 9.61914 14.2822 9.53369 14.5264 9.53369C14.7705 9.53369 14.9658 9.61914 15.2344 9.86328L18.8232 13.1592C19.0186 13.3423 19.1406 13.5498 19.1406 13.8428C19.1406 14.3555 18.75 14.7217 18.2495 14.7217C17.9932 14.7217 17.749 14.6118 17.5781 14.4287L16.4673 13.3057L15.4175 12.207L15.4907 14.2578Z" fill="#5ac8f5"/>
 </g>
</svg>
