<?xml version="1.0" encoding="UTF-8"?>
<!--Generator: Apple Native CoreSVG 175.5-->
<!DOCTYPE svg
PUBLIC "-//W3C//DTD SVG 1.1//EN"
       "http://www.w3.org/Graphics/SVG/1.1/DTD/svg11.dtd">
<svg version="1.1" xmlns="http://www.w3.org/2000/svg" xmlns:xlink="http://www.w3.org/1999/xlink" width="26.7182" height="27.0081">
 <g>
  <rect height="27.0081" opacity="0" width="26.7182" x="0" y="0"/>
  <path d="M2.33158 22.3602L4.65092 24.6796L6.03031 23.288C9.1431 20.1385 12.9395 21.2128 16.2354 17.9169L25.2076 8.9447C27.2217 6.91833 27.2217 3.80554 25.2076 1.80359C23.2056-0.210571 20.0806-0.210571 18.0664 1.80359L9.09428 10.7758C5.62748 14.2426 6.8726 17.8558 3.73539 20.9686ZM7.48295 17.7216C8.14213 15.8417 8.59379 13.8885 10.4004 12.0819L19.3726 3.10974C20.6543 1.8158 22.6319 1.828 23.9136 3.09753C25.1831 4.37927 25.1954 6.3446 23.9014 7.63855L14.9292 16.6107C13.1104 18.4296 11.2305 18.9301 9.39945 19.6381ZM0.549355 24.1425C-0.195274 24.8871-0.17086 25.766 0.549355 26.474C1.24516 27.182 2.14848 27.1942 2.8809 26.4618L3.51566 25.8392L1.17191 23.5199ZM13.3301 13.7177C14.0625 14.4623 15.271 14.4501 16.0157 13.7054L19.6045 10.0922C20.3736 9.32312 20.3614 8.12683 19.6045 7.40662C18.8599 6.63757 17.6636 6.67419 16.919 7.40662L13.3301 11.0077C12.5855 11.7401 12.5733 12.9608 13.3301 13.7177ZM14.1114 12.9242C13.794 12.6068 13.794 12.1185 14.1114 11.7889L17.7002 8.18787C17.981 7.9071 18.4082 7.88269 18.7134 8.12683C19.1285 8.40759 19.1773 8.95691 18.8233 9.31091L15.2466 12.912C14.917 13.2294 14.4165 13.2294 14.1114 12.9242ZM10.7544 14.8773L12.1338 16.2445C12.4512 16.5619 12.8907 16.5131 13.147 16.2567C13.4278 15.976 13.4644 15.5487 13.147 15.2313L11.7676 13.8641C11.4624 13.5712 11.023 13.5834 10.7544 13.8641C10.4981 14.1327 10.4493 14.5844 10.7544 14.8773ZM17.4317 3.01208L23.9991 9.57947L24.939 8.62732L18.3716 2.04773Z" fill="#5ac8f5"/>
 </g>
</svg>
