<?xml version="1.0" encoding="UTF-8"?>
<!--Generator: Apple Native CoreSVG 175.5-->
<!DOCTYPE svg
PUBLIC "-//W3C//DTD SVG 1.1//EN"
       "http://www.w3.org/Graphics/SVG/1.1/DTD/svg11.dtd">
<svg version="1.1" xmlns="http://www.w3.org/2000/svg" xmlns:xlink="http://www.w3.org/1999/xlink" width="22.4731" height="22.4976">
 <g>
  <rect height="22.4976" opacity="0" width="22.4731" x="0" y="0"/>
  <path d="M3.83301 22.4976L18.6401 22.4976C21.2036 22.4976 22.4731 21.228 22.4731 18.7134L22.4731 3.80859C22.4731 1.29395 21.2036 0.0244141 18.6401 0.0244141L3.83301 0.0244141C1.28174 0.0244141 0 1.28174 0 3.80859L0 18.7134C0 21.2402 1.28174 22.4976 3.83301 22.4976ZM9.5459 17.2241C8.99658 17.2241 8.54492 16.8457 8.54492 16.3086C8.54492 16.0522 8.59375 15.8813 8.71582 15.6616L13.3423 7.18994L13.3423 7.09229L7.99561 7.09229C7.56836 7.09229 7.25098 6.7627 7.25098 6.31104C7.25098 5.84717 7.55615 5.52979 7.99561 5.52979L14.1602 5.52979C14.978 5.52979 15.5273 6.05469 15.5273 6.75049C15.5273 7.01904 15.4785 7.27539 15.2222 7.73926L10.5347 16.5283C10.2905 17.0166 9.98535 17.2241 9.5459 17.2241Z" fill="#5ac8f5"/>
 </g>
</svg>
