<?xml version="1.0" encoding="UTF-8"?>
<!--Generator: Apple Native CoreSVG 175.5-->
<!DOCTYPE svg
PUBLIC "-//W3C//DTD SVG 1.1//EN"
       "http://www.w3.org/Graphics/SVG/1.1/DTD/svg11.dtd">
<svg version="1.1" xmlns="http://www.w3.org/2000/svg" xmlns:xlink="http://www.w3.org/1999/xlink" width="24.9023" height="24.9146">
 <g>
  <rect height="24.9146" opacity="0" width="24.9023" x="0" y="0"/>
  <path d="M12.4512 24.9146C19.2627 24.9146 24.9023 19.2749 24.9023 12.4634C24.9023 5.66406 19.2505 0.012207 12.439 0.012207C5.63965 0.012207 0 5.66406 0 12.4634C0 19.2749 5.65186 24.9146 12.4512 24.9146ZM11.8286 17.5049C10.8521 17.5049 10.498 17.2119 10.498 16.687C10.498 15.1001 12.4878 12.9272 15.6738 12.9272C18.8477 12.9272 20.8252 15.1001 20.8252 16.687C20.8252 17.2119 20.4834 17.5049 19.5068 17.5049ZM15.6738 11.8408C14.3555 11.8408 13.2324 10.6445 13.2202 9.11865C13.2202 7.6416 14.3555 6.48193 15.6738 6.48193C16.98 6.48193 18.1152 7.60498 18.1152 9.10645C18.1152 10.6445 16.9922 11.8408 15.6738 11.8408ZM5.18799 17.5049C4.41895 17.5049 4.11377 17.1875 4.11377 16.626C4.11377 14.9414 5.84717 12.9028 8.61816 12.9028C9.74121 12.9028 10.6201 13.2446 11.3159 13.6963C9.99756 14.7095 9.21631 16.5771 9.85107 17.5049ZM8.61816 11.9629C7.4707 11.9629 6.48193 10.9375 6.48193 9.60693C6.46973 8.31299 7.48291 7.31201 8.61816 7.31201C9.75342 7.31201 10.7422 8.28857 10.7422 9.59473C10.7422 10.9375 9.75342 11.9629 8.61816 11.9629Z" fill="#5ac8f5"/>
 </g>
</svg>
