<?xml version="1.0" encoding="UTF-8"?>
<!--Generator: Apple Native CoreSVG 175.5-->
<!DOCTYPE svg
PUBLIC "-//W3C//DTD SVG 1.1//EN"
       "http://www.w3.org/Graphics/SVG/1.1/DTD/svg11.dtd">
<svg version="1.1" xmlns="http://www.w3.org/2000/svg" xmlns:xlink="http://www.w3.org/1999/xlink" width="22.4731" height="22.4976">
 <g>
  <rect height="22.4976" opacity="0" width="22.4731" x="0" y="0"/>
  <path d="M3.83301 22.4976L18.6401 22.4976C21.2036 22.4976 22.4731 21.228 22.4731 18.7134L22.4731 3.80859C22.4731 1.29395 21.2036 0.0244141 18.6401 0.0244141L3.83301 0.0244141C1.28174 0.0244141 0 1.28174 0 3.80859L0 18.7134C0 21.2402 1.28174 22.4976 3.83301 22.4976Z" fill="#5ac8f5" fill-opacity="0.25"/>
  <path d="M8.21533 5.67627C9.57031 5.67627 10.6079 6.44531 11.2427 7.59277C11.8774 6.44531 12.9272 5.67627 14.27 5.67627C16.394 5.67627 17.9443 7.2876 17.9443 9.52148C17.9443 12.8174 14.4287 15.8325 11.8652 17.5049C11.6699 17.6514 11.438 17.8101 11.2671 17.8101C11.1084 17.8101 10.8276 17.6392 10.6079 17.5049C8.03223 15.8691 4.54102 12.8174 4.54102 9.52148C4.54102 7.2876 6.0791 5.67627 8.21533 5.67627Z" fill="#5ac8f5"/>
 </g>
</svg>
