<?xml version="1.0" encoding="UTF-8"?>
<!--Generator: Apple Native CoreSVG 175.5-->
<!DOCTYPE svg
PUBLIC "-//W3C//DTD SVG 1.1//EN"
       "http://www.w3.org/Graphics/SVG/1.1/DTD/svg11.dtd">
<svg version="1.1" xmlns="http://www.w3.org/2000/svg" xmlns:xlink="http://www.w3.org/1999/xlink" width="24.9023" height="24.9146">
 <g>
  <rect height="24.9146" opacity="0" width="24.9023" x="0" y="0"/>
  <path d="M12.4512 24.9023C19.2627 24.9023 24.9023 19.2505 24.9023 12.4512C24.9023 5.63965 19.2505 0 12.439 0C5.63965 0 0 5.63965 0 12.4512C0 19.2505 5.65186 24.9023 12.4512 24.9023ZM12.4512 22.8271C6.68945 22.8271 2.0874 18.2129 2.0874 12.4512C2.0874 6.68945 6.67725 2.0752 12.439 2.0752C18.2007 2.0752 22.8271 6.68945 22.8271 12.4512C22.8271 18.2129 18.2129 22.8271 12.4512 22.8271ZM8.30078 17.688C10.376 17.688 11.8164 16.4429 11.8164 14.6851C11.8164 13.3911 10.9253 12.3413 9.69238 12.2314L9.69238 12.1582C10.6934 11.9873 11.4868 10.9741 11.4868 9.82666C11.4868 8.26416 10.2051 7.17773 8.38623 7.17773C6.73828 7.17773 5.50537 8.11768 5.18799 9.31396C5.16357 9.47266 5.16357 9.58252 5.16357 9.75342C5.16357 10.1929 5.43213 10.498 5.85938 10.498C6.22559 10.498 6.4209 10.3027 6.53076 9.91211C6.81152 9.04541 7.39746 8.58154 8.34961 8.58154C9.31396 8.58154 9.99756 9.16748 9.99756 10.022C9.99756 10.9131 9.31396 11.5601 8.3374 11.5601L7.67822 11.5601C7.2876 11.5601 7.00684 11.8408 7.00684 12.2803C7.00684 12.6709 7.27539 12.9761 7.67822 12.9761L8.39844 12.9761C9.55811 12.9761 10.3027 13.623 10.3027 14.6118C10.3027 15.564 9.48486 16.2842 8.31299 16.2842C7.34863 16.2842 6.68945 15.8203 6.35986 14.9536C6.21338 14.5752 6.00586 14.3799 5.66406 14.3799C5.24902 14.3799 4.95605 14.6729 4.95605 15.1123C4.95605 15.2832 4.98047 15.4053 5.01709 15.5518C5.34668 16.6748 6.64062 17.688 8.30078 17.688ZM16.5161 17.688C18.6157 17.688 20.0073 15.686 20.0073 12.439C20.0073 9.17969 18.6157 7.17773 16.5161 7.17773C14.4165 7.17773 13.0249 9.17969 13.0249 12.439C13.0249 15.686 14.4165 17.688 16.5161 17.688ZM16.5161 16.2109C15.3564 16.2109 14.624 14.7705 14.624 12.439C14.624 10.0952 15.3564 8.65479 16.5161 8.65479C17.6758 8.65479 18.4082 10.0952 18.4082 12.439C18.4082 14.7705 17.688 16.2109 16.5161 16.2109Z" fill="#5ac8f5"/>
 </g>
</svg>
