<?xml version="1.0" encoding="UTF-8"?>
<!--Generator: Apple Native CoreSVG 175.5-->
<!DOCTYPE svg
PUBLIC "-//W3C//DTD SVG 1.1//EN"
       "http://www.w3.org/Graphics/SVG/1.1/DTD/svg11.dtd">
<svg version="1.1" xmlns="http://www.w3.org/2000/svg" xmlns:xlink="http://www.w3.org/1999/xlink" width="25.8301" height="25.5981">
 <g>
  <rect height="25.5981" opacity="0" width="25.8301" x="0" y="0"/>
  <path d="M3.83301 19.9463L6.92139 19.9463L6.92139 17.981L3.85742 17.981C2.63672 17.981 1.96533 17.3218 1.96533 16.0522L1.96533 3.91846C1.96533 2.64893 2.63672 1.98975 3.85742 1.98975L16.0522 1.98975C17.2607 1.98975 17.9443 2.64893 17.9443 3.91846L17.9443 6.5918L19.9097 6.5918L19.9097 3.80859C19.9097 1.29395 18.6279 0.0244141 16.0889 0.0244141L3.83301 0.0244141C1.26953 0.0244141 0 1.29395 0 3.80859L0 16.1621C0 18.6768 1.26953 19.9463 3.83301 19.9463ZM9.75342 25.5981L22.0093 25.5981C24.5483 25.5981 25.8301 24.3286 25.8301 21.814L25.8301 9.46045C25.8301 6.9458 24.5483 5.67627 22.0093 5.67627L9.75342 5.67627C7.18994 5.67627 5.92041 6.93359 5.92041 9.46045L5.92041 21.814C5.92041 24.3286 7.18994 25.5981 9.75342 25.5981ZM9.77783 23.6328C8.56934 23.6328 7.88574 22.9736 7.88574 21.7041L7.88574 9.57031C7.88574 8.30078 8.56934 7.6416 9.77783 7.6416L21.9727 7.6416C23.1812 7.6416 23.8647 8.30078 23.8647 9.57031L23.8647 21.7041C23.8647 22.9736 23.1812 23.6328 21.9727 23.6328ZM11.1084 12.5977C12.0483 12.6099 12.8296 11.8286 12.8296 10.8643C12.8296 9.8999 12.0483 9.14307 11.1084 9.14307C10.1562 9.14307 9.375 9.8999 9.375 10.8643C9.375 11.8286 10.1562 12.5854 11.1084 12.5977ZM20.6665 12.5977C21.6064 12.6099 22.3877 11.8286 22.3877 10.8643C22.3877 9.8999 21.6064 9.14307 20.6665 9.14307C19.7144 9.14307 18.9209 9.8999 18.9209 10.8643C18.9209 11.8286 19.7144 12.5854 20.6665 12.5977ZM15.8813 17.3828C16.8213 17.3828 17.6025 16.6016 17.6025 15.6372C17.6025 14.6973 16.8213 13.9282 15.8813 13.9282C14.9292 13.9282 14.1602 14.6973 14.1602 15.6372C14.1602 16.6016 14.9292 17.3828 15.8813 17.3828ZM11.1084 22.168C12.0483 22.168 12.8296 21.3867 12.8296 20.4346C12.8296 19.4824 12.0483 18.7134 11.1084 18.7134C10.1562 18.7134 9.38721 19.4824 9.38721 20.4346C9.38721 21.3867 10.1562 22.168 11.1084 22.168ZM20.6665 22.168C21.6064 22.168 22.3877 21.3867 22.3877 20.4346C22.3877 19.4824 21.6064 18.7134 20.6665 18.7134C19.7144 18.7134 18.9331 19.4824 18.9331 20.4346C18.9331 21.3867 19.7144 22.168 20.6665 22.168Z" fill="#5ac8f5"/>
 </g>
</svg>
