<?xml version="1.0" encoding="UTF-8"?>
<!--Generator: Apple Native CoreSVG 175.5-->
<!DOCTYPE svg
PUBLIC "-//W3C//DTD SVG 1.1//EN"
       "http://www.w3.org/Graphics/SVG/1.1/DTD/svg11.dtd">
<svg version="1.1" xmlns="http://www.w3.org/2000/svg" xmlns:xlink="http://www.w3.org/1999/xlink" width="39.0381" height="26.1597">
 <g>
  <rect height="26.1597" opacity="0" width="39.0381" x="0" y="0"/>
  <path d="M12.7197 17.7734L12.7197 8.42285C12.7197 6.604 13.7817 5.50537 15.564 5.50537L22.8027 5.50537C24.5728 5.50537 25.6348 6.604 25.6348 8.42285L25.6348 17.7734C25.6348 19.5801 24.5728 20.6787 22.8027 20.6787L15.564 20.6787C13.7817 20.6787 12.7197 19.5801 12.7197 17.7734Z" fill="#5ac8f5" fill-opacity="0.25"/>
  <path d="M10.9375 18.0298C10.9375 19.9219 11.6821 21.3135 13.0737 22.0703C13.7329 22.4243 14.1235 22.876 14.3799 23.6938L14.7705 25C14.9902 25.7812 15.5396 26.1597 16.3574 26.1597L21.9971 26.1597C22.8516 26.1597 23.3521 25.7935 23.5962 25L23.9868 23.6938C24.2432 22.876 24.6216 22.4243 25.293 22.0703C26.6724 21.3135 27.417 19.9219 27.417 18.0298L27.417 8.1543C27.417 6.26221 26.6724 4.88281 25.293 4.11377C24.6216 3.75977 24.2432 3.30811 23.9868 2.50244L23.5962 1.18408C23.3765 0.415039 22.8394 0.0244141 21.9971 0.0244141L16.3574 0.0244141C15.5396 0.0244141 14.9902 0.402832 14.7705 1.18408L14.3799 2.50244C14.1357 3.2959 13.7451 3.77197 13.0737 4.11377C11.6943 4.84619 10.9375 6.23779 10.9375 8.1543ZM12.7197 17.7734L12.7197 8.42285C12.7197 6.604 13.7817 5.50537 15.564 5.50537L22.8027 5.50537C24.5728 5.50537 25.6348 6.604 25.6348 8.42285L25.6348 17.7734C25.6348 19.5801 24.5728 20.6787 22.8027 20.6787L15.564 20.6787C13.7817 20.6787 12.7197 19.5801 12.7197 17.7734ZM27.1484 12.2314L27.6001 12.2314C28.2227 12.2314 28.6377 11.8042 28.6377 11.1084L28.6377 9.46045C28.6377 8.76465 28.2227 8.3374 27.6001 8.3374L27.1484 8.3374Z" fill="#5ac8f5"/>
  <path d="M8.12988 17.9443C8.52051 17.5049 8.36182 16.9556 7.97119 16.4307C7.23877 15.5151 6.88477 14.3433 6.88477 13.0737C6.88477 11.8042 7.23877 10.6201 7.97119 9.7168C8.36182 9.19189 8.52051 8.64258 8.12988 8.20312C7.72705 7.73926 6.99463 7.73926 6.56738 8.28857C5.50537 9.60693 4.89502 11.2793 4.89502 13.0737C4.89502 14.8682 5.50537 16.5405 6.56738 17.8589C6.99463 18.4082 7.72705 18.396 8.12988 17.9443ZM30.9082 17.9443C31.311 18.396 32.0435 18.4082 32.4707 17.8589C33.5327 16.5405 34.1553 14.8682 34.1553 13.0737C34.1553 11.2793 33.5327 9.60693 32.4707 8.28857C32.0435 7.73926 31.311 7.73926 30.9082 8.20312C30.5176 8.64258 30.6885 9.19189 31.0669 9.7168C31.7993 10.6201 32.1655 11.8042 32.1655 13.0737C32.1655 14.3433 31.7993 15.5151 31.0669 16.4307C30.6885 16.9556 30.5176 17.5049 30.9082 17.9443Z" fill="#5ac8f5" fill-opacity="0.5"/>
  <path d="M4.71191 21.4233C5.10254 20.9839 4.98047 20.4102 4.54102 19.9097C2.90527 18.0908 1.98975 15.6982 1.98975 13.0737C1.98975 10.4492 2.90527 8.05664 4.54102 6.23779C4.98047 5.7373 5.10254 5.16357 4.71191 4.72412C4.32129 4.26025 3.6377 4.27246 3.17383 4.78516C1.14746 6.98242 0 9.91211 0 13.0737C0 16.2354 1.14746 19.1528 3.17383 21.3623C3.6377 21.875 4.32129 21.875 4.71191 21.4233ZM34.3262 21.4233C34.7168 21.875 35.4004 21.875 35.8765 21.3623C37.9028 19.1528 39.0381 16.2354 39.0381 13.0737C39.0381 9.91211 37.9028 6.98242 35.8765 4.78516C35.4004 4.27246 34.7168 4.26025 34.3262 4.72412C33.9355 5.16357 34.0576 5.7373 34.4971 6.23779C36.1328 8.05664 37.0483 10.4492 37.0483 13.0737C37.0483 15.6982 36.1328 18.0908 34.4971 19.9097C34.0576 20.4102 33.9355 20.9839 34.3262 21.4233Z" fill="#5ac8f5" fill-opacity="0.5"/>
 </g>
</svg>
