<?xml version="1.0" encoding="UTF-8"?>
<!--Generator: Apple Native CoreSVG 175.5-->
<!DOCTYPE svg
PUBLIC "-//W3C//DTD SVG 1.1//EN"
       "http://www.w3.org/Graphics/SVG/1.1/DTD/svg11.dtd">
<svg version="1.1" xmlns="http://www.w3.org/2000/svg" xmlns:xlink="http://www.w3.org/1999/xlink" width="32.782" height="17.1021">
 <g>
  <rect height="17.1021" opacity="0" width="32.782" x="0" y="0"/>
  <path d="M8.98438 0C7.31201 0 6.33545 0.708008 5.13916 1.95312L0.939941 6.40869C-0.317383 7.71484-0.305176 9.26514 0.927734 10.5835L5.12695 15.1123C6.21338 16.272 7.42188 17.0776 8.98438 17.0776L23.8037 17.0776C25.3662 17.0776 26.5625 16.272 27.6611 15.1123L31.8481 10.5835C33.0811 9.26514 33.1055 7.71484 31.8481 6.40869L27.6489 1.95312C26.4404 0.708008 25.4761 0 23.8037 0Z" fill="#5ac8f5" fill-opacity="0.25"/>
  <path d="M8.02002 6.31104C9.22852 6.31104 10.2173 7.2998 10.2173 8.49609C10.2173 9.69238 9.22852 10.6934 8.02002 10.6934C6.82373 10.6934 5.84717 9.69238 5.84717 8.49609C5.84717 7.2998 6.82373 6.31104 8.02002 6.31104ZM16.4062 8.54492C17.6025 8.54492 18.5791 9.5459 18.5791 10.7422C18.5791 11.9385 17.6025 12.9272 16.4062 12.9272C15.1978 12.9272 14.2212 11.9385 14.2212 10.7422C14.2212 9.5459 15.1978 8.54492 16.4062 8.54492ZM24.7803 6.31104C25.9766 6.31104 26.9653 7.2998 26.9653 8.49609C26.9653 9.69238 25.9766 10.6934 24.7803 10.6934C23.584 10.6934 22.583 9.69238 22.583 8.49609C22.583 7.2998 23.584 6.31104 24.7803 6.31104Z" fill="#5ac8f5"/>
 </g>
</svg>
