<?xml version="1.0" encoding="UTF-8"?>
<!--Generator: Apple Native CoreSVG 175.5-->
<!DOCTYPE svg
PUBLIC "-//W3C//DTD SVG 1.1//EN"
       "http://www.w3.org/Graphics/SVG/1.1/DTD/svg11.dtd">
<svg version="1.1" xmlns="http://www.w3.org/2000/svg" xmlns:xlink="http://www.w3.org/1999/xlink" width="35.2417" height="22.1313">
 <g>
  <rect height="22.1313" opacity="0" width="35.2417" x="0" y="0"/>
  <path d="M7.73926 8.61816C7.73926 9.25293 8.11768 9.64355 8.75244 9.64355L10.9497 9.64355L10.9497 11.7798C10.9497 12.4023 11.3037 12.793 11.9141 12.793C12.5122 12.793 12.8784 12.4023 12.8784 11.7798L12.8784 9.64355L14.9414 9.64355C15.625 9.64355 16.0278 9.25293 16.0278 8.61816C16.0278 8.00781 15.625 7.62939 14.9414 7.62939L12.8784 7.62939L12.8784 5.49316C12.8784 4.87061 12.5122 4.49219 11.9141 4.49219C11.3037 4.49219 10.9497 4.87061 10.9497 5.49316L10.9497 7.62939L8.75244 7.62939C8.11768 7.62939 7.73926 8.00781 7.73926 8.61816ZM25.2075 8.45947C26.2085 8.45947 26.9653 7.70264 26.9653 6.71387C26.9653 5.71289 26.2085 4.94385 25.2075 4.94385C24.231 4.94385 23.4497 5.71289 23.4497 6.71387C23.4497 7.70264 24.231 8.45947 25.2075 8.45947ZM21.6187 12.085C22.6074 12.085 23.3765 11.3159 23.3765 10.3271C23.3765 9.32617 22.6074 8.55713 21.6187 8.55713C20.6421 8.55713 19.8608 9.32617 19.8608 10.3271C19.8608 11.3159 20.6421 12.085 21.6187 12.085ZM0 17.4194C0 20.2759 1.85547 22.1313 4.65088 22.1313C6.06689 22.1313 7.4707 21.521 8.49609 20.2515L10.7056 17.5781C11.0229 17.1997 11.3892 17.0166 11.7554 17.0166L23.4863 17.0166C23.8525 17.0166 24.2188 17.1997 24.5361 17.5781L26.7456 20.2515C27.771 21.521 29.1748 22.1313 30.5908 22.1313C33.3862 22.1313 35.2417 20.2759 35.2417 17.4194C35.2417 16.1987 34.9609 14.7949 34.4849 13.2202C33.7402 10.7178 32.4341 7.31201 31.189 4.67529C30.1392 2.47803 29.6021 1.47705 27.0142 0.891113C24.7192 0.366211 21.5332 0.012207 17.627 0.012207C13.7207 0.012207 10.5225 0.366211 8.22754 0.891113C5.63965 1.47705 5.10254 2.47803 4.05273 4.67529C2.80762 7.31201 1.50146 10.7178 0.756836 13.2202C0.280762 14.7949 0 16.1987 0 17.4194ZM1.86768 17.4927C1.86768 16.7236 2.03857 15.7959 2.4292 14.4653C3.24707 11.6577 4.66309 8.02002 5.896 5.32227C6.49414 4.01611 6.82373 3.22266 8.41064 2.85645C10.6201 2.33154 13.7695 1.97754 17.627 1.97754C21.4722 1.97754 24.6216 2.33154 26.8311 2.85645C28.418 3.22266 28.7354 4.01611 29.3457 5.32227C30.603 8.02002 31.958 11.6699 32.8125 14.4653C33.2153 15.7959 33.374 16.7236 33.374 17.4927C33.374 19.1772 32.1899 20.2393 30.6152 20.2393C29.6875 20.2393 28.7842 19.751 28.0762 18.8843L25.7812 16.1133C25.1953 15.4053 24.707 15.0513 23.5718 15.0513L11.6699 15.0513C10.5347 15.0513 10.0464 15.4053 9.46045 16.1133L7.16553 18.8843C6.45752 19.751 5.5542 20.2393 4.62646 20.2393C3.05176 20.2393 1.86768 19.1772 1.86768 17.4927Z" fill="#5ac8f5"/>
 </g>
</svg>
