<?xml version="1.0" encoding="UTF-8"?>
<!--Generator: Apple Native CoreSVG 175.5-->
<!DOCTYPE svg
PUBLIC "-//W3C//DTD SVG 1.1//EN"
       "http://www.w3.org/Graphics/SVG/1.1/DTD/svg11.dtd">
<svg version="1.1" xmlns="http://www.w3.org/2000/svg" xmlns:xlink="http://www.w3.org/1999/xlink" width="31.6284" height="25.5981">
 <g>
  <rect height="25.5981" opacity="0" width="31.6284" x="0" y="0"/>
  <path d="M15.8081 8.44727L25.4639 8.44727L25.4639 3.80859C25.4639 1.29395 24.1821 0.0244141 21.6431 0.0244141L3.83301 0.0244141C1.26953 0.0244141 0 1.29395 0 3.80859L0 16.1621C0 18.6768 1.26953 19.9463 3.83301 19.9463L10.3027 19.9463L10.3027 13.9038C10.3027 10.4614 12.3291 8.44727 15.8081 8.44727Z" fill="#5ac8f5" fill-opacity="0.5"/>
  <path d="M15.8081 25.5981L27.8076 25.5981C30.3467 25.5981 31.6284 24.3286 31.6284 21.814L31.6284 13.9038C31.6284 11.3892 30.3467 10.1196 27.8076 10.1196L15.8081 10.1196C13.2568 10.1196 11.9751 11.377 11.9751 13.9038L11.9751 21.814C11.9751 24.3286 13.2568 25.5981 15.8081 25.5981Z" fill="#5ac8f5"/>
 </g>
</svg>
