<?xml version="1.0" encoding="UTF-8"?>
<!--Generator: Apple Native CoreSVG 175.5-->
<!DOCTYPE svg
PUBLIC "-//W3C//DTD SVG 1.1//EN"
       "http://www.w3.org/Graphics/SVG/1.1/DTD/svg11.dtd">
<svg version="1.1" xmlns="http://www.w3.org/2000/svg" xmlns:xlink="http://www.w3.org/1999/xlink" width="22.4731" height="22.4976">
 <g>
  <rect height="22.4976" opacity="0" width="22.4731" x="0" y="0"/>
  <path d="M3.83301 22.4976L18.6401 22.4976C21.2036 22.4976 22.4731 21.228 22.4731 18.7134L22.4731 3.80859C22.4731 1.29395 21.2036 0.0244141 18.6401 0.0244141L3.83301 0.0244141C1.28174 0.0244141 0 1.28174 0 3.80859L0 18.7134C0 21.2402 1.28174 22.4976 3.83301 22.4976Z" fill="#5ac8f5" fill-opacity="0.25"/>
  <path d="M11.2427 17.0166C10.5957 17.0166 10.2417 16.5527 10.2417 15.8691L10.2417 12.6221L6.68945 6.71387C6.56738 6.50635 6.51855 6.31104 6.51855 6.12793C6.51855 5.63965 6.92139 5.23682 7.44629 5.23682C7.89795 5.23682 8.14209 5.39551 8.41064 5.87158L11.2183 10.7056L11.3037 10.7056L14.1235 5.87158C14.3799 5.40771 14.624 5.23682 15.0513 5.23682C15.5884 5.23682 15.9668 5.62744 15.9668 6.15234C15.9668 6.32324 15.918 6.53076 15.7959 6.71387L12.2681 12.5977L12.2681 15.8691C12.2681 16.5894 11.9019 17.0166 11.2427 17.0166Z" fill="#5ac8f5"/>
 </g>
</svg>
