<?xml version="1.0" encoding="UTF-8"?>
<!--Generator: Apple Native CoreSVG 175.5-->
<!DOCTYPE svg
PUBLIC "-//W3C//DTD SVG 1.1//EN"
       "http://www.w3.org/Graphics/SVG/1.1/DTD/svg11.dtd">
<svg version="1.1" xmlns="http://www.w3.org/2000/svg" xmlns:xlink="http://www.w3.org/1999/xlink" width="24.9023" height="24.9146">
 <g>
  <rect height="24.9146" opacity="0" width="24.9023" x="0" y="0"/>
  <path d="M12.4512 24.9023C19.2627 24.9023 24.9023 19.2505 24.9023 12.4512C24.9023 5.63965 19.2505 0 12.439 0C5.63965 0 0 5.63965 0 12.4512C0 19.2505 5.65186 24.9023 12.4512 24.9023ZM12.4512 22.8271C6.68945 22.8271 2.0874 18.2129 2.0874 12.4512C2.0874 6.68945 6.67725 2.0752 12.439 2.0752C18.2007 2.0752 22.8271 6.68945 22.8271 12.4512C22.8271 18.2129 18.2129 22.8271 12.4512 22.8271Z" fill="#5ac8f5" fill-opacity="0.5"/>
  <path d="M9.19189 14.9658L10.9863 14.9658C11.0474 14.9658 11.0962 14.9902 11.145 15.0269L13.8062 17.5659C14.0869 17.8223 14.3311 17.9443 14.624 17.9443C14.8315 17.9443 14.978 17.8467 15.0879 17.7124L15.2222 17.2974L8.3374 10.4126L8.23975 10.4126C8.04443 10.5835 7.89795 10.9131 7.89795 11.2915L7.89795 13.623C7.89795 14.502 8.36182 14.9658 9.19189 14.9658ZM11.5845 9.47266L15.3198 13.208L15.3198 7.67822C15.3198 7.27539 15.0269 6.9458 14.6118 6.9458C14.3188 6.9458 14.1235 7.08008 13.8062 7.37305ZM18.2007 18.9819C18.4082 19.1895 18.7744 19.1895 18.9819 18.9819C19.2017 18.7622 19.2017 18.4204 18.9819 18.2007L6.68945 5.896C6.46973 5.67627 6.11572 5.67627 5.896 5.896C5.67627 6.11572 5.68848 6.46973 5.896 6.67725Z" fill="#5ac8f5"/>
 </g>
</svg>
