<?xml version="1.0" encoding="UTF-8"?>
<!--Generator: Apple Native CoreSVG 175.5-->
<!DOCTYPE svg
PUBLIC "-//W3C//DTD SVG 1.1//EN"
       "http://www.w3.org/Graphics/SVG/1.1/DTD/svg11.dtd">
<svg version="1.1" xmlns="http://www.w3.org/2000/svg" xmlns:xlink="http://www.w3.org/1999/xlink" width="24.9023" height="24.9146">
 <g>
  <rect height="24.9146" opacity="0" width="24.9023" x="0" y="0"/>
  <path d="M12.4512 24.9023C19.2627 24.9023 24.9023 19.2505 24.9023 12.4512C24.9023 5.63965 19.2505 0 12.439 0C5.63965 0 0 5.63965 0 12.4512C0 19.2505 5.65186 24.9023 12.4512 24.9023ZM12.4512 22.8271C6.68945 22.8271 2.0874 18.2129 2.0874 12.4512C2.0874 6.68945 6.67725 2.0752 12.439 2.0752C18.2007 2.0752 22.8271 6.68945 22.8271 12.4512C22.8271 18.2129 18.2129 22.8271 12.4512 22.8271ZM8.87451 18.6279L16.0034 18.6279C17.2852 18.6279 17.9688 17.9688 17.9688 16.687L17.9688 10.5591L6.90918 10.5591L6.90918 16.687C6.90918 17.981 7.59277 18.6279 8.87451 18.6279ZM10.2905 12.9028C10.022 12.9028 9.82666 12.7197 9.82666 12.439L9.82666 12.2314C9.82666 11.9385 10.022 11.7676 10.2905 11.7676L14.5874 11.7676C14.8682 11.7676 15.0513 11.9385 15.0513 12.2314L15.0513 12.439C15.0513 12.7197 14.8682 12.9028 14.5874 12.9028ZM7.04346 9.57031L17.8345 9.57031C18.5791 9.57031 18.9453 9.14307 18.9453 8.42285L18.9453 7.82471C18.9453 7.09229 18.5791 6.65283 17.8345 6.65283L7.04346 6.65283C6.35986 6.65283 5.94482 7.09229 5.94482 7.82471L5.94482 8.42285C5.94482 9.14307 6.31104 9.57031 7.04346 9.57031Z" fill="#5ac8f5"/>
 </g>
</svg>
