<?xml version="1.0" encoding="UTF-8"?>
<!--Generator: Apple Native CoreSVG 175.5-->
<!DOCTYPE svg
PUBLIC "-//W3C//DTD SVG 1.1//EN"
       "http://www.w3.org/Graphics/SVG/1.1/DTD/svg11.dtd">
<svg version="1.1" xmlns="http://www.w3.org/2000/svg" xmlns:xlink="http://www.w3.org/1999/xlink" width="25.7568" height="24.8169">
 <g>
  <rect height="24.8169" opacity="0" width="25.7568" x="0" y="0"/>
  <path d="M17.749 24.3774C19.873 24.3774 21.2769 23.8037 22.522 22.4121C22.6196 22.3145 22.7051 22.2046 22.8027 22.1069C23.5352 21.2891 23.877 20.4834 23.877 19.7144C23.877 18.8354 23.3643 18.0176 22.2778 17.2607L18.7256 14.7949C17.627 14.0381 16.3452 13.9526 15.3198 14.9658L14.3799 15.9058C14.0991 16.1865 13.855 16.1987 13.5742 16.0278C12.9272 15.6128 11.5967 14.4531 10.6934 13.5498C9.74121 12.6099 8.81348 11.5601 8.3374 10.791C8.1665 10.5103 8.19092 10.2783 8.47168 9.99756L9.39941 9.05762C10.4248 8.03223 10.3394 6.73828 9.58252 5.65186L7.10449 2.09961C6.35986 1.01318 5.54199 0.512695 4.66309 0.500488C3.89404 0.488281 3.08838 0.842285 2.27051 1.57471C2.16064 1.67236 2.06299 1.75781 1.95312 1.84326C0.57373 3.08838 0 4.49219 0 6.604C0 10.0952 2.14844 14.3433 6.09131 18.2861C10.0098 22.2046 14.27 24.3774 17.749 24.3774ZM17.7612 22.4976C14.6484 22.5586 10.6567 20.166 7.49512 17.0166C4.30908 13.8428 1.80664 9.7168 1.86768 6.604C1.89209 5.26123 2.35596 4.10156 3.32031 3.27148C3.39355 3.19824 3.4668 3.13721 3.55225 3.07617C3.90625 2.75879 4.30908 2.58789 4.65088 2.58789C5.01709 2.58789 5.33447 2.72217 5.56641 3.08838L7.93457 6.64062C8.19092 7.01904 8.21533 7.44629 7.83691 7.82471L6.7627 8.89893C5.9082 9.74121 5.98145 10.7666 6.5918 11.5845C7.2876 12.5244 8.49609 13.8916 9.42383 14.8193C10.3638 15.7593 11.8408 17.0776 12.7808 17.7856C13.5986 18.396 14.6362 18.457 15.4785 17.6147L16.5527 16.5405C16.9312 16.1621 17.3462 16.1865 17.7246 16.4307L21.2769 18.7988C21.6431 19.043 21.7896 19.3481 21.7896 19.7144C21.7896 20.0684 21.6187 20.459 21.2891 20.8252C21.228 20.9106 21.1792 20.9717 21.106 21.0571C20.2637 22.0093 19.104 22.4731 17.7612 22.4976ZM13.6108 7.37305C14.0137 7.37305 14.3066 7.06787 14.3066 6.70166L14.3066 4.83398C14.3066 4.45557 14.0137 4.15039 13.6108 4.15039C13.2324 4.15039 12.9395 4.45557 12.9395 4.83398L12.9395 6.70166C12.9395 7.06787 13.2324 7.37305 13.6108 7.37305ZM16.4795 9.42383C16.8701 9.42383 17.1753 9.11865 17.1753 8.72803L17.1753 2.79541C17.1753 2.41699 16.8701 2.11182 16.4795 2.11182C16.1011 2.11182 15.7959 2.41699 15.7959 2.79541L15.7959 8.72803C15.7959 9.11865 16.1011 9.42383 16.4795 9.42383ZM19.3481 11.5356C19.7388 11.5356 20.0317 11.2305 20.0317 10.8521L20.0317 0.708008C20.0317 0.305176 19.7388 0 19.3481 0C18.9575 0 18.6646 0.305176 18.6646 0.708008L18.6646 10.8521C18.6646 11.2427 18.9453 11.5356 19.3481 11.5356ZM22.1924 10.3149C22.5952 10.3149 22.9004 10.022 22.9004 9.63135L22.9004 1.89209C22.9004 1.51367 22.5952 1.2207 22.1924 1.2207C21.8262 1.2207 21.521 1.51367 21.521 1.89209L21.521 9.63135C21.521 10.022 21.8262 10.3149 22.1924 10.3149ZM25.0732 8.02002C25.4761 8.02002 25.7568 7.72705 25.7568 7.32422L25.7568 4.19922C25.7568 3.80859 25.4761 3.50342 25.0732 3.50342C24.6826 3.50342 24.3896 3.8208 24.3896 4.19922L24.3896 7.32422C24.3896 7.71484 24.6826 8.02002 25.0732 8.02002Z" fill="#5ac8f5"/>
 </g>
</svg>
