<?xml version="1.0" encoding="UTF-8"?>
<!--Generator: Apple Native CoreSVG 175.5-->
<!DOCTYPE svg
PUBLIC "-//W3C//DTD SVG 1.1//EN"
       "http://www.w3.org/Graphics/SVG/1.1/DTD/svg11.dtd">
<svg version="1.1" xmlns="http://www.w3.org/2000/svg" xmlns:xlink="http://www.w3.org/1999/xlink" width="24.9023" height="24.9146">
 <g>
  <rect height="24.9146" opacity="0" width="24.9023" x="0" y="0"/>
  <path d="M12.4512 24.9023C19.2627 24.9023 24.9023 19.2505 24.9023 12.4512C24.9023 5.63965 19.2505 0 12.439 0C5.63965 0 0 5.63965 0 12.4512C0 19.2505 5.65186 24.9023 12.4512 24.9023ZM11.853 18.3472C10.1074 18.3472 8.75244 17.4927 8.31299 16.1865C8.23975 15.9912 8.20312 15.8081 8.20312 15.5884C8.20312 15.0391 8.58154 14.6484 9.14307 14.6484C9.57031 14.6484 9.85107 14.856 10.0708 15.332C10.376 16.1499 11.0107 16.6138 11.9507 16.6138C12.9883 16.6138 13.6353 15.8569 13.6353 14.5996L13.6353 7.58057C13.6353 6.90918 13.9893 6.44531 14.6362 6.44531C15.2954 6.44531 15.6616 6.88477 15.6616 7.58057L15.6616 14.624C15.6616 17.0288 14.3188 18.3472 11.853 18.3472Z" fill="#5ac8f5"/>
 </g>
</svg>
