<?xml version="1.0" encoding="UTF-8"?>
<!--Generator: Apple Native CoreSVG 175.5-->
<!DOCTYPE svg
PUBLIC "-//W3C//DTD SVG 1.1//EN"
       "http://www.w3.org/Graphics/SVG/1.1/DTD/svg11.dtd">
<svg version="1.1" xmlns="http://www.w3.org/2000/svg" xmlns:xlink="http://www.w3.org/1999/xlink" width="27.6842" height="27.701">
 <g>
  <rect height="27.701" opacity="0" width="27.6842" x="0" y="0"/>
  <path d="M1.36881 11.1344C-0.43783 12.9411-0.462244 14.7233 1.33219 16.5177L11.1711 26.3444C12.9655 28.1388 14.7477 28.1266 16.5544 26.32L26.32 16.5422C28.1266 14.7355 28.1388 12.9533 26.3566 11.1588L16.5299 1.33219C14.7355-0.462244 12.9533-0.43783 11.1466 1.36881ZM25.5631 13.8444L2.12565 13.8444C2.12565 13.3927 2.34537 12.9411 2.78483 12.5016L12.5016 2.77262C13.3561 1.90592 14.2961 1.89371 15.1994 2.79703L24.8918 12.4894C25.3434 12.9289 25.5631 13.3927 25.5631 13.8444Z" fill="#5ac8f5"/>
 </g>
</svg>
