<?xml version="1.0" encoding="UTF-8"?>
<!--Generator: Apple Native CoreSVG 175.5-->
<!DOCTYPE svg
PUBLIC "-//W3C//DTD SVG 1.1//EN"
       "http://www.w3.org/Graphics/SVG/1.1/DTD/svg11.dtd">
<svg version="1.1" xmlns="http://www.w3.org/2000/svg" xmlns:xlink="http://www.w3.org/1999/xlink" width="24.9023" height="24.9146">
 <g>
  <rect height="24.9146" opacity="0" width="24.9023" x="0" y="0"/>
  <path d="M12.4512 24.9023C19.2627 24.9023 24.9023 19.2505 24.9023 12.4512C24.9023 5.63965 19.2505 0 12.439 0C5.63965 0 0 5.63965 0 12.4512C0 19.2505 5.65186 24.9023 12.4512 24.9023ZM7.32422 12.5732C7.32422 9.06982 9.15527 6.7627 11.9995 6.55518L12.2437 5.61523C12.3291 5.27344 12.5732 5.12695 12.8784 5.12695C13.2568 5.12695 13.501 5.37109 13.501 5.7373C13.501 5.83496 13.4766 5.93262 13.4399 6.01807L13.3057 6.604C13.6963 6.68945 14.0625 6.78711 14.3921 6.93359L14.7339 5.61523C14.8315 5.27344 15.0635 5.12695 15.3687 5.12695C15.7471 5.12695 15.9912 5.37109 15.9912 5.7373C15.9912 5.83496 15.979 5.92041 15.9424 6.01807L15.5396 7.62939C16.0645 8.08105 16.4795 8.65479 16.7236 9.32617C16.7969 9.53369 16.8457 9.74121 16.8457 9.94873C16.8457 10.4248 16.5405 10.73 16.0767 10.73C15.6372 10.73 15.4419 10.4248 15.3198 10.1196C15.2588 9.8999 15.1489 9.7168 15.0391 9.60693L13.147 17.041C14.2456 16.8701 15.0635 16.1255 15.3442 15.1367C15.4663 14.7583 15.7227 14.4531 16.1499 14.4531C16.6382 14.4531 16.9312 14.7949 16.9312 15.2588C16.9312 15.4663 16.8823 15.6982 16.8091 15.8936C16.2598 17.4683 14.7827 18.5303 12.7441 18.6279L12.4512 19.7754C12.3657 20.1172 12.1216 20.2637 11.8164 20.2637C11.438 20.2637 11.2061 20.0195 11.2061 19.6411C11.2061 19.5435 11.2183 19.4702 11.2549 19.3726L11.4502 18.5547C11.0596 18.4937 10.6934 18.3838 10.3516 18.2251L9.96094 19.7754C9.87549 20.1172 9.64355 20.2637 9.32617 20.2637C8.95996 20.2637 8.71582 20.0195 8.71582 19.6411C8.71582 19.5435 8.72803 19.458 8.75244 19.3604L9.21631 17.5293C8.00781 16.4917 7.32422 14.7705 7.32422 12.5732ZM9.021 12.5732C9.021 13.7695 9.26514 14.7705 9.729 15.5151L11.5845 8.19092C9.98535 8.59375 9.021 10.2295 9.021 12.5732ZM10.7422 16.6626C11.0718 16.8701 11.4136 17.0166 11.8286 17.0776L14.0015 8.49609C13.6841 8.30078 13.3179 8.1665 12.9272 8.11768Z" fill="#5ac8f5"/>
 </g>
</svg>
