<?xml version="1.0" encoding="UTF-8"?>
<!--Generator: Apple Native CoreSVG 175.5-->
<!DOCTYPE svg
PUBLIC "-//W3C//DTD SVG 1.1//EN"
       "http://www.w3.org/Graphics/SVG/1.1/DTD/svg11.dtd">
<svg version="1.1" xmlns="http://www.w3.org/2000/svg" xmlns:xlink="http://www.w3.org/1999/xlink" width="36.5723" height="28.0884">
 <g>
  <rect height="28.0884" opacity="0" width="36.5723" x="0" y="0"/>
  <path d="M19.165 25.3662C20.0195 25.3662 20.7764 24.9634 22.3755 24.9634C23.9868 24.9634 24.4263 25.3662 25.6226 25.3662C27.4292 25.3662 28.3813 24.6216 28.3813 23.3521C28.3813 21.2036 26.0498 19.7632 22.3633 19.7632C20.5566 19.7632 19.751 19.9341 18.7256 20.1904L17.4072 17.1875C16.1133 14.3066 14.0259 12.4268 11.0718 12.4268L9.63135 12.4268C9.15527 12.4268 8.83789 12.2192 8.83789 11.7554C8.83789 10.9985 9.85107 10.8154 10.9619 10.8154C14.5386 10.8154 17.1753 12.7808 18.7866 16.7358L19.6289 18.7744C20.4468 18.6035 21.3379 18.5181 22.2412 18.5181C22.9614 18.5181 23.6206 18.5669 24.3164 18.6646C25.061 18.1152 25.9033 17.5415 27.1362 17.0044C28.5034 17.9321 30.0659 18.5303 31.6895 18.5303C35.0586 18.5303 36.5723 17.7979 36.5723 14.6118C36.5723 10.7666 33.7891 7.88574 30.0903 7.89795L26.8188 3.54004C25 1.13525 22.7905 0 20.6177 0C18.8354 0 16.1865 1.02539 16.1865 2.46582C16.1865 3.44238 18.1641 4.80957 19.6899 5.74951L26.7212 10.0464C26.1719 10.5713 25.6836 10.8521 25.0732 10.8521C24.1333 10.8521 23.1445 10.2783 21.6675 9.42383C17.9077 7.25098 15.0024 5.2124 11.0962 5.2124C7.03125 5.2124 3.94287 7.54395 2.29492 12.085C0.98877 12.085 0 12.9395 0 14.1968C0 15.6128 1.12305 16.5039 2.66113 16.5039C4.44336 18.9941 7.36084 19.9951 10.8154 19.9951C10.9985 19.9951 11.1816 19.9829 11.3647 19.9829L16.3086 24.0845C17.5415 25.1831 18.2373 25.3662 19.165 25.3662ZM10.3394 26.3306C12.6953 26.3306 14.1357 25.8789 15.3076 25.0732L11.5234 21.9238C11.3525 21.936 11.145 21.9604 10.8887 21.9604C10.2783 21.9604 9.375 21.7773 8.30078 21.7773C6.93359 21.7773 6.09131 22.5098 6.09131 23.6084C6.09131 25.2441 7.75146 26.3306 10.3394 26.3306ZM31.4087 14.0259C30.8594 14.0259 30.4199 13.562 30.4199 13.0249C30.4199 12.4756 30.8716 11.9873 31.4209 11.9873C31.9824 11.9873 32.4219 12.4268 32.4219 12.9761C32.4219 13.5254 31.9702 14.0259 31.4087 14.0259Z" fill="#5ac8f5"/>
 </g>
</svg>
