<?xml version="1.0" encoding="UTF-8"?>
<!--Generator: Apple Native CoreSVG 175.5-->
<!DOCTYPE svg
PUBLIC "-//W3C//DTD SVG 1.1//EN"
       "http://www.w3.org/Graphics/SVG/1.1/DTD/svg11.dtd">
<svg version="1.1" xmlns="http://www.w3.org/2000/svg" xmlns:xlink="http://www.w3.org/1999/xlink" width="22.4731" height="22.4976">
 <g>
  <rect height="22.4976" opacity="0" width="22.4731" x="0" y="0"/>
  <path d="M9.10645 18.335L13.3667 18.335C14.0381 18.335 14.5142 17.8589 14.5142 17.1875L14.5142 5.29785C14.5142 4.63867 14.0381 4.1626 13.3667 4.1626L9.10645 4.1626C8.43506 4.1626 7.95898 4.63867 7.95898 5.29785L7.95898 17.1875C7.95898 17.8589 8.43506 18.335 9.10645 18.335ZM11.2427 8.49609C10.5591 8.49609 9.99756 7.94678 9.99756 7.26318C9.99756 6.57959 10.5591 6.03027 11.2427 6.03027C11.9141 6.03027 12.4756 6.57959 12.4756 7.26318C12.4756 7.94678 11.9141 8.49609 11.2427 8.49609ZM11.2427 12.4756C10.5591 12.4756 9.99756 11.9263 9.99756 11.2427C9.99756 10.5591 10.5591 10.0098 11.2427 10.0098C11.9141 10.0098 12.4756 10.5591 12.4756 11.2427C12.4756 11.9263 11.9141 12.4756 11.2427 12.4756ZM11.2427 16.4551C10.5591 16.4551 9.99756 15.9058 9.99756 15.2222C9.99756 14.5264 10.5591 13.9893 11.2427 13.9893C11.9141 13.9893 12.4756 14.5264 12.4756 15.2222C12.4756 15.9058 11.9141 16.4551 11.2427 16.4551ZM3.83301 22.4976L18.6401 22.4976C21.2036 22.4976 22.4731 21.228 22.4731 18.7134L22.4731 3.80859C22.4731 1.29395 21.2036 0.0244141 18.6401 0.0244141L3.83301 0.0244141C1.28174 0.0244141 0 1.28174 0 3.80859L0 18.7134C0 21.2402 1.28174 22.4976 3.83301 22.4976ZM3.85742 20.5322C2.63672 20.5322 1.96533 19.8853 1.96533 18.6157L1.96533 3.90625C1.96533 2.63672 2.63672 1.98975 3.85742 1.98975L18.6157 1.98975C19.8242 1.98975 20.5078 2.63672 20.5078 3.90625L20.5078 18.6157C20.5078 19.8853 19.8242 20.5322 18.6157 20.5322Z" fill="#5ac8f5"/>
 </g>
</svg>
