<?xml version="1.0" encoding="UTF-8"?>
<!--Generator: Apple Native CoreSVG 175.5-->
<!DOCTYPE svg
PUBLIC "-//W3C//DTD SVG 1.1//EN"
       "http://www.w3.org/Graphics/SVG/1.1/DTD/svg11.dtd">
<svg version="1.1" xmlns="http://www.w3.org/2000/svg" xmlns:xlink="http://www.w3.org/1999/xlink" width="21.1182" height="27.478">
 <g>
  <rect height="27.478" opacity="0" width="21.1182" x="0" y="0"/>
  <path d="M0 3.125L3.06396 3.125L3.06396 1.37939C3.06396 0.500488 2.6123 0 1.81885 0L1.2207 0C0.439453 0 0 0.524902 0 1.37939ZM0 24.2798L1.11084 27.0142C1.23291 27.2949 1.68457 27.3193 1.81885 27.0264L3.06396 24.2798L3.06396 4.55322L0 4.55322ZM12.0728 27.2949L18.1274 27.2949C19.8975 27.2949 21.1182 26.0742 21.1182 24.292L21.1182 3.18604C21.1182 1.40381 19.8975 0.170898 18.1274 0.170898L12.0728 0.170898C10.3027 0.170898 9.09424 1.40381 9.09424 3.19824L9.09424 24.292C9.09424 26.0742 10.3027 27.2949 12.0728 27.2949ZM19.2749 3.49121L14.1357 3.49121C13.8794 3.49121 13.6719 3.2959 13.6719 3.02734C13.6719 2.7832 13.8672 2.58789 14.1235 2.58789L19.2749 2.58789ZM19.2749 5.62744L16.0645 5.62744C15.8081 5.62744 15.625 5.44434 15.625 5.17578C15.625 4.91943 15.7959 4.72412 16.0522 4.72412L19.2749 4.72412ZM19.2749 7.77588L16.0645 7.77588C15.8081 7.77588 15.625 7.59277 15.625 7.32422C15.625 7.06787 15.7959 6.87256 16.0522 6.87256L19.2749 6.87256ZM19.2749 9.91211L16.0645 9.91211C15.8081 9.91211 15.625 9.74121 15.625 9.46045C15.625 9.2041 15.7959 8.99658 16.0522 8.99658L19.2749 8.99658ZM19.2749 12.0483L16.0645 12.0483C15.8081 12.0483 15.625 11.8774 15.625 11.6089C15.625 11.3647 15.7959 11.145 16.0522 11.145L19.2749 11.145ZM19.2749 14.1968L14.1357 14.1968C13.8794 14.1968 13.6719 14.0137 13.6719 13.7451C13.6719 13.501 13.8672 13.2812 14.1235 13.2812L19.2749 13.2812ZM19.2749 16.3452L16.0645 16.3452C15.8081 16.3452 15.625 16.1621 15.625 15.8936C15.625 15.6372 15.7959 15.4297 16.0522 15.4297L19.2749 15.4297ZM19.2749 18.4937L16.0645 18.4937C15.8081 18.4937 15.625 18.2983 15.625 18.0298C15.625 17.7856 15.7959 17.5903 16.0522 17.5903L19.2749 17.5903ZM19.2749 20.6177L16.0645 20.6177C15.8081 20.6177 15.625 20.4346 15.625 20.166C15.625 19.9097 15.7959 19.7144 16.0522 19.7144L19.2749 19.7144ZM19.2749 22.7661L16.0645 22.7661C15.8081 22.7661 15.625 22.583 15.625 22.3022C15.625 22.0581 15.7959 21.8628 16.0522 21.8628L19.2749 21.8628ZM19.2749 24.8901L14.1357 24.8901C13.8794 24.8901 13.6719 24.7192 13.6719 24.4507C13.6719 24.1943 13.8672 23.9868 14.1235 23.9868L19.2749 23.9868Z" fill="#5ac8f5"/>
 </g>
</svg>
