<?xml version="1.0" encoding="UTF-8"?>
<!--Generator: Apple Native CoreSVG 175.5-->
<!DOCTYPE svg
PUBLIC "-//W3C//DTD SVG 1.1//EN"
       "http://www.w3.org/Graphics/SVG/1.1/DTD/svg11.dtd">
<svg version="1.1" xmlns="http://www.w3.org/2000/svg" xmlns:xlink="http://www.w3.org/1999/xlink" width="20.3979" height="27.5269">
 <g>
  <rect height="27.5269" opacity="0" width="20.3979" x="0" y="0"/>
  <path d="M0 24.2798C0 26.2085 1.35498 27.5024 3.38135 27.5024L17.0166 27.5024C19.043 27.5024 20.3979 26.2085 20.3979 24.2798L20.3979 3.23486C20.3979 1.30615 19.043 0 17.0166 0L3.38135 0C1.35498 0 0 1.30615 0 3.23486ZM1.96533 23.9502L1.96533 3.56445C1.96533 2.56348 2.57568 1.96533 3.62549 1.96533L16.7725 1.96533C17.8101 1.96533 18.4326 2.56348 18.4326 3.56445L18.4326 23.9502C18.4326 24.9512 17.8101 25.5371 16.7725 25.5371L3.62549 25.5371C2.57568 25.5371 1.96533 24.9512 1.96533 23.9502ZM5.82275 16.8579C5.82275 17.5537 6.15234 17.8955 6.81152 17.8955L10.9619 17.8955C11.6211 17.8955 11.9507 17.5537 11.9507 16.8579L11.9507 13.6841C11.9507 12.9883 11.6211 12.6343 10.9619 12.6343L6.81152 12.6343C6.15234 12.6343 5.82275 12.9883 5.82275 13.6841ZM10.022 13.3423L11.2305 13.3423L11.2305 11.6089C11.2305 10.7056 11.7065 10.1196 12.5366 10.1196C13.3667 10.1196 13.855 10.7056 13.855 11.6089L13.855 12.4756C13.855 12.8052 14.1235 13.0859 14.4653 13.0859C14.7827 13.0859 15.0635 12.8052 15.0635 12.4756L15.0635 11.6089C15.0635 10.0708 14.0625 8.94775 12.5366 8.94775C11.0107 8.94775 10.022 10.0708 10.022 11.7188Z" fill="#5ac8f5"/>
 </g>
</svg>
