<?xml version="1.0" encoding="UTF-8"?>
<!--Generator: Apple Native CoreSVG 175.5-->
<!DOCTYPE svg
PUBLIC "-//W3C//DTD SVG 1.1//EN"
       "http://www.w3.org/Graphics/SVG/1.1/DTD/svg11.dtd">
<svg version="1.1" xmlns="http://www.w3.org/2000/svg" xmlns:xlink="http://www.w3.org/1999/xlink" width="25.8191" height="30.84">
 <g>
  <rect height="30.84" opacity="0" width="25.8191" x="0" y="0"/>
  <path d="M25.8191 10.0916C25.8191 7.54038 24.5618 6.25864 22.035 6.25864L10.5237 6.25864C8.00907 6.25864 6.73954 7.54038 6.73954 10.0916L6.73954 26.7665C6.73954 29.3177 8.00907 30.5995 10.5237 30.5995L22.035 30.5995C24.5496 30.5995 25.8191 29.3177 25.8191 26.7665ZM10.5237 4.59849L19.1175 4.59849L18.8855 3.21909C18.4461 0.692235 16.969-0.333155 14.491 0.0940907L3.16288 2.08384C0.684856 2.52329-0.340535 4.00034 0.0989182 6.5272L2.96757 22.8114C3.24833 24.4105 3.95634 25.3871 5.07939 25.7899L5.07939 10.0916C5.07939 6.61265 7.06913 4.59849 10.5237 4.59849Z" fill="#5ac8f5"/>
 </g>
</svg>
