<?xml version="1.0" encoding="UTF-8"?>
<!--Generator: Apple Native CoreSVG 175.5-->
<!DOCTYPE svg
PUBLIC "-//W3C//DTD SVG 1.1//EN"
       "http://www.w3.org/Graphics/SVG/1.1/DTD/svg11.dtd">
<svg version="1.1" xmlns="http://www.w3.org/2000/svg" xmlns:xlink="http://www.w3.org/1999/xlink" width="28.8183" height="29.3335">
 <g>
  <rect height="29.3335" opacity="0" width="28.8183" x="0" y="0"/>
  <path d="M2.771 29.3335L10.3394 29.3335C12.0239 29.3335 13.1104 28.2593 13.1104 26.6113L13.1104 2.72217C13.1104 1.07422 12.0239 0 10.3394 0L2.771 0C1.08643 0 0 1.07422 0 2.72217L0 26.6113C0 28.2593 1.08643 29.3335 2.771 29.3335ZM9.76562 9.52148C9.39941 9.52148 9.13086 9.22852 9.13086 8.87451L9.13086 3.90625C9.13086 3.55225 9.39941 3.25928 9.76562 3.25928C10.1196 3.25928 10.4004 3.55225 10.4004 3.90625L10.4004 8.87451C10.4004 9.22852 10.1196 9.52148 9.76562 9.52148ZM7.17773 9.52148C6.81152 9.52148 6.51855 9.22852 6.51855 8.87451L6.51855 3.90625C6.51855 3.55225 6.81152 3.25928 7.17773 3.25928C7.51953 3.25928 7.80029 3.55225 7.80029 3.90625L7.80029 8.87451C7.80029 9.22852 7.51953 9.52148 7.17773 9.52148ZM9.76562 17.749C9.39941 17.749 9.13086 17.4683 9.13086 17.1021L9.13086 12.1338C9.13086 11.7798 9.39941 11.499 9.76562 11.499C10.1196 11.499 10.4004 11.7798 10.4004 12.1338L10.4004 17.1021C10.4004 17.4683 10.1196 17.749 9.76562 17.749ZM7.17773 17.749C6.81152 17.749 6.51855 17.4683 6.51855 17.1021L6.51855 12.1338C6.51855 11.7798 6.81152 11.499 7.17773 11.499C7.51953 11.499 7.80029 11.7798 7.80029 12.1338L7.80029 17.1021C7.80029 17.4683 7.51953 17.749 7.17773 17.749ZM9.76562 26.001C9.39941 26.001 9.13086 25.708 9.13086 25.3662L9.13086 20.3979C9.13086 20.0317 9.39941 19.7388 9.76562 19.7388C10.1196 19.7388 10.4004 20.0317 10.4004 20.3979L10.4004 25.3662C10.4004 25.708 10.1196 26.001 9.76562 26.001ZM7.17773 26.001C6.81152 26.001 6.51855 25.708 6.51855 25.3662L6.51855 20.3979C6.51855 20.0317 6.81152 19.7388 7.17773 19.7388C7.51953 19.7388 7.80029 20.0317 7.80029 20.3979L7.80029 25.3662C7.80029 25.708 7.51953 26.001 7.17773 26.001ZM17.9321 13.1958C21.1914 13.1958 22.876 10.5469 25.7202 10.5469C26.3794 10.5469 26.9409 10.6812 27.6367 11.0718C28.0762 11.3159 28.4668 11.145 28.6621 10.8643C28.9062 10.5103 28.8818 9.97314 28.3447 9.66797C27.5391 9.19189 26.6602 8.95996 25.7202 8.95996C22.4121 8.95996 20.7275 11.6211 17.9321 11.6211C17.2729 11.6211 16.7114 11.4746 16.0034 11.0718C15.5884 10.8398 15.1855 10.9985 14.978 11.3159C14.7583 11.6577 14.7827 12.1948 15.2954 12.4878C16.1011 12.9883 16.9922 13.1958 17.9321 13.1958ZM17.9443 16.7847C21.1914 16.7847 22.8882 14.1357 25.7202 14.1357C26.3916 14.1357 26.9531 14.27 27.6489 14.6606C28.0762 14.9048 28.479 14.7339 28.6743 14.4531C28.9062 14.0991 28.894 13.562 28.3691 13.2568C27.5513 12.7808 26.6602 12.5488 25.7202 12.5488C22.4243 12.5488 20.7397 15.21 17.9443 15.21C17.2729 15.21 16.7114 15.0635 16.0156 14.6729C15.6006 14.4287 15.1855 14.5874 14.978 14.9048C14.7583 15.2466 14.7827 15.7837 15.3076 16.0767C16.1133 16.5771 17.0044 16.7847 17.9443 16.7847ZM17.9321 20.3735C21.1914 20.3735 22.876 17.7246 25.7202 17.7246C26.3794 17.7246 26.9409 17.8589 27.6367 18.2617C28.0762 18.5059 28.4668 18.3228 28.6621 18.042C28.9062 17.688 28.8818 17.1509 28.3447 16.8457C27.5391 16.3696 26.6602 16.1377 25.7202 16.1377C22.4121 16.1377 20.7275 18.7988 17.9321 18.7988C17.2729 18.7988 16.7114 18.6523 16.0034 18.2617C15.5884 18.0176 15.1855 18.1763 14.978 18.4937C14.7583 18.8354 14.7827 19.3848 15.2954 19.6777C16.1011 20.166 16.9922 20.3735 17.9321 20.3735Z" fill="#5ac8f5"/>
 </g>
</svg>
