<?xml version="1.0" encoding="UTF-8"?>
<!--Generator: Apple Native CoreSVG 175.5-->
<!DOCTYPE svg
PUBLIC "-//W3C//DTD SVG 1.1//EN"
       "http://www.w3.org/Graphics/SVG/1.1/DTD/svg11.dtd">
<svg version="1.1" xmlns="http://www.w3.org/2000/svg" xmlns:xlink="http://www.w3.org/1999/xlink" width="22.4731" height="22.4976">
 <g>
  <rect height="22.4976" opacity="0" width="22.4731" x="0" y="0"/>
  <path d="M3.83301 22.4976L18.6401 22.4976C21.2036 22.4976 22.4731 21.228 22.4731 18.7134L22.4731 3.80859C22.4731 1.29395 21.2036 0.0244141 18.6401 0.0244141L3.83301 0.0244141C1.28174 0.0244141 0 1.28174 0 3.80859L0 18.7134C0 21.2402 1.28174 22.4976 3.83301 22.4976ZM3.85742 20.5322C2.63672 20.5322 1.96533 19.8853 1.96533 18.6157L1.96533 3.90625C1.96533 2.63672 2.63672 1.98975 3.85742 1.98975L18.6157 1.98975C19.8242 1.98975 20.5078 2.63672 20.5078 3.90625L20.5078 18.6157C20.5078 19.8853 19.8242 20.5322 18.6157 20.5322Z" fill="#5ac8f5" fill-opacity="0.5"/>
  <path d="M11.2427 17.2729C11.7065 17.2729 12.0361 16.9556 12.0361 16.4551L12.0361 13.7207L14.1113 12.793C14.3921 12.6587 14.5264 12.4756 14.5264 12.207C14.5264 11.8652 14.2944 11.6211 13.9526 11.6211C13.8428 11.6211 13.7207 11.6577 13.623 11.6943L12.0361 12.4268L12.0361 11.2671L14.1113 10.3271C14.3921 10.2051 14.5264 10.022 14.5264 9.75342C14.5264 9.41162 14.2944 9.15527 13.9404 9.15527C13.8428 9.15527 13.7451 9.19189 13.6353 9.22852L12.0361 9.97314L12.0361 7.1167L14.9414 7.1167C15.3931 7.1167 15.7104 6.81152 15.7104 6.37207C15.7104 5.93262 15.3931 5.63965 14.9414 5.63965L7.53174 5.63965C7.08008 5.63965 6.7627 5.93262 6.7627 6.37207C6.7627 6.81152 7.08008 7.1167 7.53174 7.1167L10.437 7.1167L10.437 10.6323L8.38623 11.5479C8.09326 11.6943 7.97119 11.8652 7.97119 12.1216C7.97119 12.4634 8.20312 12.7197 8.55713 12.7197C8.65479 12.7197 8.76465 12.6831 8.87451 12.6465L10.437 11.9141L10.437 13.0859L8.38623 14.0137C8.09326 14.1479 7.97119 14.3188 7.97119 14.5874C7.97119 14.9292 8.20312 15.1733 8.55713 15.1733C8.65479 15.1733 8.76465 15.1489 8.87451 15.1001L10.437 14.3799L10.437 16.4551C10.437 16.9556 10.7666 17.2729 11.2427 17.2729Z" fill="#5ac8f5"/>
 </g>
</svg>
