<?xml version="1.0" encoding="UTF-8"?>
<!--Generator: Apple Native CoreSVG 175.5-->
<!DOCTYPE svg
PUBLIC "-//W3C//DTD SVG 1.1//EN"
       "http://www.w3.org/Graphics/SVG/1.1/DTD/svg11.dtd">
<svg version="1.1" xmlns="http://www.w3.org/2000/svg" xmlns:xlink="http://www.w3.org/1999/xlink" width="14.8926" height="25.0854">
 <g>
  <rect height="25.0854" opacity="0" width="14.8926" x="0" y="0"/>
  <path d="M14.8926 6.11572L14.8926 1.52588C14.8926 0.878906 14.3677 0.463867 13.7451 0.585938L7.4707 1.95312C6.68945 2.12402 6.26221 2.55127 6.26221 3.23486L6.28662 16.8091C6.34766 17.4072 6.06689 17.7979 5.52979 17.9077L3.58887 18.3105C1.14746 18.8232 0 20.0684 0 21.9116C0 23.7793 1.44043 25.0854 3.4668 25.0854C5.26123 25.0854 7.94678 23.7671 7.94678 20.2148L7.94678 9.04541C7.94678 8.39844 8.06885 8.26416 8.64258 8.14209L14.2212 6.92139C14.6362 6.83594 14.8926 6.51855 14.8926 6.11572Z" fill="#5ac8f5"/>
 </g>
</svg>
