<?xml version="1.0" encoding="UTF-8"?>
<!--Generator: Apple Native CoreSVG 175.5-->
<!DOCTYPE svg
PUBLIC "-//W3C//DTD SVG 1.1//EN"
       "http://www.w3.org/Graphics/SVG/1.1/DTD/svg11.dtd">
<svg version="1.1" xmlns="http://www.w3.org/2000/svg" xmlns:xlink="http://www.w3.org/1999/xlink" width="24.9023" height="24.9146">
 <g>
  <rect height="24.9146" opacity="0" width="24.9023" x="0" y="0"/>
  <path d="M12.4512 24.9023C19.2627 24.9023 24.9023 19.2505 24.9023 12.4512C24.9023 5.63965 19.2505 0 12.439 0C5.63965 0 0 5.63965 0 12.4512C0 19.2505 5.65186 24.9023 12.4512 24.9023ZM12.4512 22.8271C6.68945 22.8271 2.0874 18.2129 2.0874 12.4512C2.0874 6.68945 6.67725 2.0752 12.439 2.0752C18.2007 2.0752 22.8271 6.68945 22.8271 12.4512C22.8271 18.2129 18.2129 22.8271 12.4512 22.8271Z" fill="#5ac8f5" fill-opacity="0.5"/>
  <path d="M16.0889 7.08008L14.8438 8.28857C14.6851 8.45947 14.4531 8.45947 14.2822 8.28857C14.1235 8.12988 14.1357 7.89795 14.2822 7.72705L15.3687 6.64062C14.4775 6.18896 13.4766 5.92041 12.439 5.92041C8.87451 5.92041 5.9082 8.89893 5.9082 12.4634C5.9082 13.501 6.16455 14.4897 6.61621 15.3687L7.72705 14.2944C7.88574 14.1357 8.11768 14.1357 8.28857 14.2944C8.44727 14.4531 8.45947 14.6973 8.28857 14.8682L7.05566 16.1011C7.18994 16.3208 7.33643 16.5161 7.51953 16.6992L16.6992 7.54395C16.5039 7.37305 16.2964 7.21436 16.0889 7.08008ZM13.8672 9.27734L12.9761 10.1562C12.8174 10.3149 12.5854 10.3149 12.4268 10.1562C12.2559 10.0098 12.2559 9.76562 12.4268 9.59473L13.3057 8.71582C13.4644 8.55713 13.7085 8.55713 13.8672 8.71582C14.0259 8.87451 14.0259 9.11865 13.8672 9.27734ZM12.0117 11.1328L11.1206 12.0361C10.9741 12.1826 10.7056 12.1826 10.5591 12.0361C10.4004 11.8652 10.4004 11.6211 10.5591 11.4624L11.438 10.5835C11.5967 10.4126 11.853 10.4126 12.0117 10.5835C12.1582 10.73 12.1582 10.9863 12.0117 11.1328ZM10.144 12.9883L9.26514 13.8794C9.11865 14.0503 8.8623 14.0381 8.70361 13.8794C8.54492 13.7329 8.54492 13.4766 8.70361 13.3179L9.58252 12.439C9.75342 12.2681 9.98535 12.2681 10.144 12.439C10.3027 12.5977 10.2905 12.8296 10.144 12.9883ZM18.2617 9.5459L17.1875 10.6079C17.0166 10.7666 16.7847 10.7666 16.626 10.6079C16.4551 10.437 16.4551 10.1929 16.626 10.0342L17.8345 8.82568C17.688 8.61816 17.5415 8.41064 17.3584 8.21533L8.20312 17.3828C8.37402 17.5537 8.58154 17.7002 8.78906 17.8467L10.0586 16.6016C10.2173 16.4429 10.4614 16.4429 10.6201 16.6016C10.7788 16.7725 10.7788 17.0044 10.6201 17.1631L9.52148 18.2861C10.4126 18.7378 11.4014 19.0063 12.439 19.0063C16.0034 19.0063 18.9819 16.0278 18.9819 12.4634C18.9819 11.4258 18.7134 10.4248 18.2617 9.5459ZM16.1987 11.5845L15.3198 12.4634C15.1489 12.6343 14.917 12.6343 14.7583 12.4634C14.5996 12.3047 14.6118 12.0728 14.7583 11.9141L15.6372 11.0107C15.7837 10.8521 16.04 10.8643 16.1987 11.0107C16.3574 11.1694 16.3574 11.4258 16.1987 11.5845ZM14.3311 13.4399L13.4521 14.3311C13.2935 14.4897 13.0493 14.4897 12.8784 14.3311C12.7319 14.1846 12.7319 13.916 12.8784 13.7695L13.7817 12.8784C13.9282 12.7319 14.1846 12.7319 14.3311 12.8784C14.502 13.0371 14.502 13.2935 14.3311 13.4399ZM12.4756 15.3076L11.5967 16.1865C11.438 16.3452 11.1816 16.3452 11.0474 16.1865C10.8765 16.0278 10.8765 15.7837 11.0474 15.625L11.9263 14.7461C12.085 14.5874 12.3169 14.5874 12.4756 14.7461C12.6343 14.8926 12.6343 15.1367 12.4756 15.3076Z" fill="#5ac8f5"/>
 </g>
</svg>
