<?xml version="1.0" encoding="UTF-8"?>
<!--Generator: Apple Native CoreSVG 175.5-->
<!DOCTYPE svg
PUBLIC "-//W3C//DTD SVG 1.1//EN"
       "http://www.w3.org/Graphics/SVG/1.1/DTD/svg11.dtd">
<svg version="1.1" xmlns="http://www.w3.org/2000/svg" xmlns:xlink="http://www.w3.org/1999/xlink" width="23.4497" height="28.3325">
 <g>
  <rect height="28.3325" opacity="0" width="23.4497" x="0" y="0"/>
  <path d="M10.8276 3.90625L12.6221 3.90625L12.6221 0.842285C12.6221 0.366211 12.1948 0 11.7188 0C11.2427 0 10.8276 0.366211 10.8276 0.842285ZM7.1167 12.9761L16.333 12.9761C18.1396 12.9761 19.1284 12.0117 19.1284 10.2295L19.1284 5.98145C19.1284 4.19922 18.1396 3.23486 16.333 3.23486L7.1167 3.23486C5.29785 3.23486 4.32129 4.19922 4.32129 5.98145L4.32129 10.2295C4.32129 12.0117 5.29785 12.9761 7.1167 12.9761ZM10.8276 16.394L12.6221 16.394L12.6221 12.146L10.8276 12.146ZM2.79541 25.0732L20.6543 25.0732C22.4609 25.0732 23.4497 24.1089 23.4497 22.3267L23.4497 18.0786C23.4497 16.3086 22.4609 15.332 20.6543 15.332L2.79541 15.332C0.976562 15.332 0 16.3086 0 18.0786L0 22.3267C0 24.1089 0.976562 25.0732 2.79541 25.0732ZM11.7188 28.2959C12.1948 28.2959 12.6221 27.9297 12.6221 27.4536L12.6221 24.4019L10.8276 24.4019L10.8276 27.4536C10.8276 27.9297 11.2427 28.2959 11.7188 28.2959Z" fill="#5ac8f5"/>
 </g>
</svg>
