<?xml version="1.0" encoding="UTF-8"?>
<!--Generator: Apple Native CoreSVG 175.5-->
<!DOCTYPE svg
PUBLIC "-//W3C//DTD SVG 1.1//EN"
       "http://www.w3.org/Graphics/SVG/1.1/DTD/svg11.dtd">
<svg version="1.1" xmlns="http://www.w3.org/2000/svg" xmlns:xlink="http://www.w3.org/1999/xlink" width="24.9023" height="24.9146">
 <g>
  <rect height="24.9146" opacity="0" width="24.9023" x="0" y="0"/>
  <path d="M12.4512 24.9023C19.2627 24.9023 24.9023 19.2505 24.9023 12.4512C24.9023 5.63965 19.2505 0 12.439 0C5.63965 0 0 5.63965 0 12.4512C0 19.2505 5.65186 24.9023 12.4512 24.9023ZM12.4512 22.8271C6.68945 22.8271 2.0874 18.2129 2.0874 12.4512C2.0874 6.68945 6.67725 2.0752 12.439 2.0752C18.2007 2.0752 22.8271 6.68945 22.8271 12.4512C22.8271 18.2129 18.2129 22.8271 12.4512 22.8271Z" fill="#5ac8f5" fill-opacity="0.5"/>
  <path d="M8.08105 12.8906C8.08105 15.1245 9.55811 16.687 11.5601 16.687C12.561 16.687 13.4399 16.2964 13.9893 15.6006L13.9893 16.0889C13.9893 16.5283 14.2944 16.8335 14.7339 16.8335C15.1611 16.8335 15.4541 16.5283 15.4541 16.0889L15.4541 8.19092L16.2354 8.19092C16.5649 8.19092 16.8091 7.94678 16.8091 7.61719C16.8091 7.2876 16.5771 7.03125 16.2354 7.03125L15.4541 7.03125L15.4541 6.45752C15.4541 5.98145 15.1489 5.67627 14.6851 5.67627C14.2334 5.67627 13.9282 5.98145 13.9282 6.45752L13.9282 7.03125L11.7065 7.03125C11.3647 7.03125 11.1328 7.2876 11.1328 7.61719C11.1328 7.94678 11.377 8.19092 11.7065 8.19092L13.9282 8.19092L13.9282 10.144C13.4033 9.48486 12.5488 9.09424 11.5479 9.09424C9.5459 9.09424 8.08105 10.6445 8.08105 12.8906ZM9.64355 12.9028C9.64355 11.4624 10.5225 10.5103 11.8164 10.5103C13.0615 10.5103 13.9648 11.5234 13.9648 12.9028C13.9648 14.2944 13.0615 15.2954 11.8164 15.2954C10.5225 15.2954 9.64355 14.3555 9.64355 12.9028ZM8.70361 18.0786C8.70361 18.4082 8.95996 18.6768 9.28955 18.6768L15.2466 18.6768C15.5762 18.6768 15.8325 18.4082 15.8325 18.0786C15.8325 17.7368 15.5884 17.4927 15.2466 17.4927L9.28955 17.4927C8.94775 17.4927 8.70361 17.749 8.70361 18.0786Z" fill="#5ac8f5"/>
 </g>
</svg>
