<?xml version="1.0" encoding="UTF-8"?>
<!--Generator: Apple Native CoreSVG 175.5-->
<!DOCTYPE svg
PUBLIC "-//W3C//DTD SVG 1.1//EN"
       "http://www.w3.org/Graphics/SVG/1.1/DTD/svg11.dtd">
<svg version="1.1" xmlns="http://www.w3.org/2000/svg" xmlns:xlink="http://www.w3.org/1999/xlink" width="24.9023" height="24.9146">
 <g>
  <rect height="24.9146" opacity="0" width="24.9023" x="0" y="0"/>
  <path d="M12.4512 24.9023C19.2627 24.9023 24.9023 19.2505 24.9023 12.4512C24.9023 5.63965 19.2505 0 12.439 0C5.63965 0 0 5.63965 0 12.4512C0 19.2505 5.65186 24.9023 12.4512 24.9023ZM12.4512 22.8271C6.68945 22.8271 2.0874 18.2129 2.0874 12.4512C2.0874 6.68945 6.67725 2.0752 12.439 2.0752C18.2007 2.0752 22.8271 6.68945 22.8271 12.4512C22.8271 18.2129 18.2129 22.8271 12.4512 22.8271ZM8.06885 13.7695L11.7554 13.7695L11.7554 17.7246L10.083 17.7246C9.70459 17.7246 9.39941 18.0176 9.39941 18.396C9.39941 18.7744 9.70459 19.0796 10.083 19.0796L14.7827 19.0796C15.1611 19.0796 15.4663 18.7744 15.4663 18.396C15.4663 18.0176 15.1611 17.7246 14.7827 17.7246L13.1104 17.7246L13.1104 13.7695L16.0645 13.7695C16.6016 13.7695 16.8579 13.5986 17.1631 13.3057L18.7988 11.7554C19.4458 11.1328 19.4702 10.5103 18.7866 9.86328L17.1631 8.31299C16.8579 8.02002 16.6016 7.86133 16.0645 7.86133L13.1104 7.86133L13.1104 6.49414C13.1104 6.11572 12.8052 5.81055 12.439 5.81055C12.0483 5.81055 11.7554 6.11572 11.7554 6.49414L11.7554 7.86133L8.06885 7.86133C7.25098 7.86133 6.78711 8.30078 6.78711 9.10645L6.78711 12.5C6.78711 13.3179 7.25098 13.7695 8.06885 13.7695Z" fill="#5ac8f5"/>
 </g>
</svg>
