<?xml version="1.0" encoding="UTF-8"?>
<!--Generator: Apple Native CoreSVG 175.5-->
<!DOCTYPE svg
PUBLIC "-//W3C//DTD SVG 1.1//EN"
       "http://www.w3.org/Graphics/SVG/1.1/DTD/svg11.dtd">
<svg version="1.1" xmlns="http://www.w3.org/2000/svg" xmlns:xlink="http://www.w3.org/1999/xlink" width="29.4189" height="27.5818">
 <g>
  <rect height="27.5818" opacity="0" width="29.4189" x="0" y="0"/>
  <path d="M11.2427 13.4186C12.7075 13.4186 13.9038 12.2345 13.9038 10.7452C13.9038 9.2804 12.7075 8.08411 11.2427 8.08411C9.75342 8.08411 8.56934 9.2804 8.56934 10.7452C8.56934 12.2345 9.75342 13.4186 11.2427 13.4186ZM12.5122 22.7936C13.1226 22.4274 13.7573 22.11 14.4165 21.8536L14.4165 17.215C14.4165 17.0441 14.5508 16.9098 14.7217 16.9098L16.272 16.9098C16.9556 16.9098 17.5171 16.3483 17.5171 15.6647L17.5171 8.0719L15.0269 10.0739L15.0269 14.4318L10.6445 14.4318C9.5459 14.4318 8.78906 15.1886 8.78906 16.275L8.78906 18.6066C10.144 19.6198 11.4258 20.9747 12.5122 22.7936ZM19.397 14.3951C20.0806 14.3951 20.6421 13.858 20.6421 13.1622L20.6421 4.98352L18.1396 7.47375L18.1396 13.1622C18.1396 13.858 18.7134 14.3951 19.397 14.3951ZM15.0269 10.965L16.4062 10.965L16.4062 9.79309L25.0244 1.17493C25.293 0.906372 25.293 0.479126 25.0244 0.210571C24.7559-0.0701904 24.3164-0.0701904 24.0479 0.210571L15.3809 8.86536C15.1245 9.1095 15.0269 9.40247 15.0269 9.8053ZM0.683594 19.3756C4.37012 19.3756 8.48389 20.7794 10.8521 26.8829C11.084 27.5177 11.8042 27.6398 12.2314 27.2125C14.9658 24.4659 18.1274 23.5626 22.6685 24.8444C23.0469 24.942 23.3398 24.7833 23.4985 24.4171C24.4385 22.2443 26.3916 21.1456 28.7354 21.1456C29.1138 21.1456 29.4189 20.8527 29.4189 20.4742C29.4189 20.0958 29.1138 19.7906 28.7354 19.7906C26.1475 19.7906 23.7305 21.0602 22.4854 23.3917C18.0908 22.3053 14.6484 23.1964 11.8408 25.7233C9.15527 19.5343 4.5166 18.0206 0.683594 18.0206C0.292969 18.0206 0 18.3258 0 18.7042C0 19.0826 0.292969 19.3756 0.683594 19.3756Z" fill="#5ac8f5"/>
 </g>
</svg>
