<?xml version="1.0" encoding="UTF-8"?>
<!--Generator: Apple Native CoreSVG 175.5-->
<!DOCTYPE svg
PUBLIC "-//W3C//DTD SVG 1.1//EN"
       "http://www.w3.org/Graphics/SVG/1.1/DTD/svg11.dtd">
<svg version="1.1" xmlns="http://www.w3.org/2000/svg" xmlns:xlink="http://www.w3.org/1999/xlink" width="28.7842" height="22.4731">
 <g>
  <rect height="22.4731" opacity="0" width="28.7842" x="0" y="0"/>
  <path d="M3.83301 22.4731L24.9512 22.4731C27.5146 22.4731 28.7842 21.2158 28.7842 18.7012L28.7842 3.78418C28.7842 1.26953 27.5146 0 24.9512 0L3.83301 0C1.28174 0 0 1.26953 0 3.78418L0 18.7012C0 21.2158 1.28174 22.4731 3.83301 22.4731ZM3.85742 20.5078C2.63672 20.5078 1.96533 19.8608 1.96533 18.5913L1.96533 3.89404C1.96533 2.62451 2.63672 1.96533 3.85742 1.96533L24.9268 1.96533C26.1353 1.96533 26.8188 2.62451 26.8188 3.89404L26.8188 18.5913C26.8188 19.8608 26.1353 20.5078 24.9268 20.5078Z" fill="#5ac8f5" fill-opacity="0.5"/>
  <path d="M4.43115 13.0493C4.43115 13.5132 4.84619 13.9282 5.32227 13.9282C5.52979 13.9282 5.7373 13.8306 5.96924 13.5986L11.1328 8.44727L11.9995 7.49512L11.8896 10.3516L11.8896 11.5356C11.8896 12.0728 12.2314 12.4268 12.7441 12.4268C13.2568 12.4268 13.6108 12.0728 13.6108 11.5356L13.6108 5.65186C13.6108 5.12695 13.2446 4.77295 12.7075 4.77295L6.65283 4.77295C6.11572 4.77295 5.76172 5.11475 5.76172 5.62744C5.76172 6.14014 6.14014 6.49414 6.65283 6.49414L7.84912 6.49414L10.8521 6.37207L9.91211 7.23877L4.76074 12.3901C4.52881 12.6221 4.43115 12.8296 4.43115 13.0493ZM24.5239 9.42383C24.5239 8.95996 24.1211 8.54492 23.645 8.54492C23.4375 8.54492 23.23 8.64258 22.9858 8.87451L17.8345 14.0259L16.9678 14.978L17.0776 12.1216L17.0776 10.9375C17.0776 10.4004 16.7358 10.0464 16.2231 10.0464C15.7104 10.0464 15.3564 10.4004 15.3564 10.9375L15.3564 16.8213C15.3564 17.3462 15.7227 17.7124 16.2598 17.7124L22.3145 17.7124C22.8394 17.7124 23.2056 17.3584 23.2056 16.8457C23.2056 16.333 22.8149 15.9912 22.3145 15.9912L21.1182 15.9912L18.1152 16.1011L19.043 15.2466L24.2065 10.083C24.4385 9.85107 24.5239 9.64355 24.5239 9.42383Z" fill="#5ac8f5"/>
 </g>
</svg>
