<?xml version="1.0" encoding="UTF-8"?>
<!--Generator: Apple Native CoreSVG 175.5-->
<!DOCTYPE svg
PUBLIC "-//W3C//DTD SVG 1.1//EN"
       "http://www.w3.org/Graphics/SVG/1.1/DTD/svg11.dtd">
<svg version="1.1" xmlns="http://www.w3.org/2000/svg" xmlns:xlink="http://www.w3.org/1999/xlink" width="12.6193" height="26.6584">
 <g>
  <rect height="26.6584" opacity="0" width="12.6193" x="0" y="0"/>
  <path d="M8.5908 24.5536C7.88279 24.4925 7.00388 24.6878 6.40574 25.054C6.14939 25.2005 6.11277 25.4325 6.3325 25.6278C6.88181 26.1283 7.7241 26.5067 8.44431 26.5555C9.18894 26.6532 10.0801 26.4212 10.6782 25.9696C10.8735 25.8353 10.8857 25.6278 10.7026 25.4569C10.1655 24.9564 9.32322 24.6024 8.5908 24.5536ZM11.1543 20.4276C10.7636 21.0257 10.5439 21.9046 10.5683 22.6126C10.6172 23.3573 10.959 24.2118 11.435 24.7367C11.5937 24.9198 11.789 24.9198 11.9477 24.7245C12.4238 24.1629 12.6802 23.2718 12.6069 22.515C12.5581 21.807 12.2041 20.9647 11.7158 20.4032C11.5327 20.1834 11.313 20.1956 11.1543 20.4276ZM5.14841 21.2454C4.47703 21.0013 3.5615 20.9769 2.87791 21.1844C2.60935 21.2699 2.53611 21.4774 2.68259 21.7215C3.08542 22.3441 3.80564 22.9178 4.47703 23.162C5.16062 23.4427 6.08835 23.4427 6.78416 23.1497C7.01609 23.0643 7.07712 22.8812 6.94285 22.6615C6.55222 22.0389 5.83201 21.4774 5.14841 21.2454ZM8.66404 17.9251C8.13914 18.4012 7.68748 19.1825 7.5532 19.8783C7.39451 20.6107 7.50437 21.5262 7.83396 22.1488C7.93162 22.3807 8.12693 22.4173 8.33445 22.2708C8.92039 21.8436 9.39646 21.0501 9.51853 20.2933C9.66501 19.5975 9.54294 18.682 9.21335 18.0228C9.10349 17.7542 8.87156 17.7176 8.66404 17.9251ZM0.00925295 16.5213C0.106909 17.2293 0.534155 18.0594 1.05906 18.5721C1.57175 19.1092 2.41404 19.4754 3.17087 19.4998C3.41501 19.512 3.54929 19.3534 3.51267 19.1092C3.3906 18.3646 2.96335 17.5711 2.43845 17.0951C1.91355 16.5946 1.10789 16.2039 0.399878 16.1185C0.106909 16.0819-0.0395752 16.2406 0.00925295 16.5213ZM7.00388 15.4715C6.3325 15.7035 5.61228 16.2406 5.19724 16.8143C4.75779 17.388 4.50144 18.2547 4.52585 19.0116C4.55027 19.2435 4.70896 19.3656 4.9531 19.3289C5.68552 19.158 6.45457 18.6331 6.84519 17.9984C7.24802 17.3758 7.51658 16.5091 7.46775 15.7889C7.46775 15.4959 7.28464 15.3739 7.00388 15.4715ZM4.96531 12.6151C4.39158 13.0789 3.9155 13.8602 3.76902 14.5804C3.7324 14.8001 3.85447 14.971 4.0864 14.9832C4.84324 15.0077 5.70994 14.6781 6.25925 14.1898C6.80857 13.7137 7.29685 12.9203 7.45554 12.2122C7.49216 11.9437 7.34568 11.7606 7.07712 11.7728C6.3447 11.8338 5.50242 12.1512 4.96531 12.6151ZM0.02146 11.016C-0.0517822 11.7362 0.14353 12.6273 0.534155 13.262C0.900366 13.9212 1.62058 14.495 2.32859 14.6903C2.54832 14.7635 2.74363 14.6414 2.76804 14.3973C2.84128 13.7015 2.63376 12.8104 2.24314 12.1756C1.85251 11.5653 1.15671 10.9793 0.509741 10.723C0.253394 10.6131 0.045874 10.723 0.02146 11.016ZM5.63669 8.51351C4.94089 8.75765 4.22068 9.30697 3.83005 9.94174C3.69578 10.137 3.76902 10.3446 3.98875 10.4422C4.68455 10.723 5.60007 10.723 6.29587 10.4422C7.00388 10.1737 7.7363 9.58773 8.09031 8.96517C8.23679 8.74545 8.16355 8.53793 7.895 8.45248C7.19919 8.25716 6.29587 8.26937 5.63669 8.51351ZM1.53513 5.31527C1.21775 5.98666 1.09568 6.88998 1.22996 7.59799C1.36423 8.34261 1.84031 9.12386 2.45066 9.56332C2.63376 9.7098 2.82908 9.64877 2.95115 9.42904C3.26853 8.79427 3.37839 7.89095 3.2197 7.17074C3.07322 6.46273 2.60935 5.68148 2.09666 5.1932C1.90134 5.0223 1.66941 5.07113 1.53513 5.31527ZM7.84617 4.99789C7.12595 5.13216 6.3325 5.59603 5.88083 6.15756C5.73435 6.32845 5.77097 6.53597 5.96628 6.67025C6.61326 7.04867 7.52878 7.17074 8.249 6.97543C8.96921 6.81674 9.76267 6.34066 10.2265 5.80355C10.4096 5.58383 10.3608 5.3641 10.1045 5.25424C9.4575 4.96127 8.56638 4.8514 7.84617 4.99789ZM4.24509 1.23812C3.83005 1.86068 3.58591 2.75179 3.63474 3.4598C3.64695 4.20443 4.01316 5.04672 4.55027 5.58383C4.73337 5.75472 4.94089 5.73031 5.07517 5.535C5.478 4.91244 5.72214 4.02133 5.66111 3.31332C5.61228 2.61752 5.28269 1.78744 4.81882 1.21371C4.62351 0.993981 4.40378 1.0184 4.24509 1.23812ZM10.5439 0.00521184C9.83591 0.115075 9.03025 0.542321 8.51755 1.04281C8.00486 1.5433 7.60203 2.38558 7.51658 3.09359C7.49216 3.33773 7.62644 3.48422 7.87058 3.47201C8.61521 3.43539 9.44529 3.04476 9.95798 2.47103C10.4463 1.95834 10.8491 1.14047 10.959 0.408044C10.9834 0.127282 10.8369-0.0314093 10.5439 0.00521184Z" fill="#5ac8f5"/>
 </g>
</svg>
