<?xml version="1.0" encoding="UTF-8"?>
<!--Generator: Apple Native CoreSVG 175.5-->
<!DOCTYPE svg
PUBLIC "-//W3C//DTD SVG 1.1//EN"
       "http://www.w3.org/Graphics/SVG/1.1/DTD/svg11.dtd">
<svg version="1.1" xmlns="http://www.w3.org/2000/svg" xmlns:xlink="http://www.w3.org/1999/xlink" width="28.7842" height="22.4731">
 <g>
  <rect height="22.4731" opacity="0" width="28.7842" x="0" y="0"/>
  <path d="M3.83301 22.4731L24.9512 22.4731C27.5146 22.4731 28.7842 21.2158 28.7842 18.7012L28.7842 3.78418C28.7842 1.26953 27.5146 0 24.9512 0L3.83301 0C1.28174 0 0 1.26953 0 3.78418L0 18.7012C0 21.2158 1.28174 22.4731 3.83301 22.4731ZM3.85742 20.5078C2.63672 20.5078 1.96533 19.8608 1.96533 18.5913L1.96533 3.89404C1.96533 2.62451 2.63672 1.96533 3.85742 1.96533L24.9268 1.96533C26.1353 1.96533 26.8188 2.62451 26.8188 3.89404L26.8188 18.5913C26.8188 19.8608 26.1353 20.5078 24.9268 20.5078ZM6.00586 21.2402L22.8027 21.2402C22.0825 17.8101 18.6401 15.3198 14.4043 15.3198C10.1562 15.3198 6.71387 17.8101 6.00586 21.2402ZM14.4043 13.2812C16.7358 13.3057 18.5791 11.3159 18.5791 8.70361C18.5791 6.25 16.7358 4.22363 14.4043 4.22363C12.0728 4.22363 10.2173 6.25 10.2295 8.70361C10.2417 11.3159 12.0728 13.2568 14.4043 13.2812Z" fill="#5ac8f5"/>
 </g>
</svg>
