<?xml version="1.0" encoding="UTF-8"?>
<!--Generator: Apple Native CoreSVG 175.5-->
<!DOCTYPE svg
PUBLIC "-//W3C//DTD SVG 1.1//EN"
       "http://www.w3.org/Graphics/SVG/1.1/DTD/svg11.dtd">
<svg version="1.1" xmlns="http://www.w3.org/2000/svg" xmlns:xlink="http://www.w3.org/1999/xlink" width="24.9023" height="24.9146">
 <g>
  <rect height="24.9146" opacity="0" width="24.9023" x="0" y="0"/>
  <path d="M12.4512 24.9023C19.2627 24.9023 24.9023 19.2505 24.9023 12.4512C24.9023 5.63965 19.2505 0 12.439 0C5.63965 0 0 5.63965 0 12.4512C0 19.2505 5.65186 24.9023 12.4512 24.9023ZM12.4512 22.8271C6.68945 22.8271 2.0874 18.2129 2.0874 12.4512C2.0874 6.68945 6.67725 2.0752 12.439 2.0752C18.2007 2.0752 22.8271 6.68945 22.8271 12.4512C22.8271 18.2129 18.2129 22.8271 12.4512 22.8271Z" fill="#5ac8f5" fill-opacity="0.5"/>
  <path d="M8.52051 14.0869L15.7959 14.0869C17.688 14.0869 19.1406 12.6221 19.1406 10.8276C19.1406 8.95996 17.6147 7.59277 15.6372 7.59277C14.8926 6.15234 13.5376 5.2124 11.853 5.2124C9.65576 5.2124 7.83691 6.9458 7.62939 9.13086C6.57959 9.43604 5.77393 10.3516 5.77393 11.5845C5.77393 12.9639 6.7749 14.0869 8.52051 14.0869ZM8.88672 17.5659L9.75342 16.0645C9.91211 15.8081 9.82666 15.4541 9.5459 15.3076C9.28955 15.1489 8.94775 15.2466 8.80127 15.5151L7.93457 17.0044C7.77588 17.2729 7.86133 17.627 8.14209 17.7734C8.39844 17.9321 8.74023 17.8345 8.88672 17.5659ZM10.9253 19.3726L11.792 17.8833C11.9507 17.6147 11.8652 17.2729 11.5845 17.1143C11.3281 16.9678 10.9863 17.0654 10.8398 17.3218L9.96094 18.8232C9.81445 19.0918 9.8999 19.4336 10.1807 19.5923C10.437 19.7388 10.7666 19.6411 10.9253 19.3726ZM14.0503 17.5537L14.917 16.0522C15.0757 15.7959 14.9902 15.4419 14.7095 15.2954C14.4531 15.1367 14.1113 15.2344 13.9648 15.5029L13.0981 16.9922C12.9395 17.2607 13.0249 17.6147 13.3057 17.7612C13.562 17.9199 13.9038 17.8223 14.0503 17.5537ZM16.0889 19.3726L16.9678 17.8833C17.1143 17.6147 17.0288 17.2729 16.748 17.1143C16.4917 16.9678 16.1499 17.0654 16.0034 17.3218L15.1367 18.8232C14.978 19.0918 15.0635 19.4336 15.3442 19.5923C15.6006 19.7388 15.9424 19.6411 16.0889 19.3726Z" fill="#5ac8f5"/>
 </g>
</svg>
