<?xml version="1.0" encoding="UTF-8"?>
<!--Generator: Apple Native CoreSVG 175.5-->
<!DOCTYPE svg
PUBLIC "-//W3C//DTD SVG 1.1//EN"
       "http://www.w3.org/Graphics/SVG/1.1/DTD/svg11.dtd">
<svg version="1.1" xmlns="http://www.w3.org/2000/svg" xmlns:xlink="http://www.w3.org/1999/xlink" width="30.7251" height="19.2993">
 <g>
  <rect height="19.2993" opacity="0" width="30.7251" x="0" y="0"/>
  <path d="M3.83301 19.2871L26.8921 19.2871C29.4312 19.2871 30.7251 18.0176 30.7251 15.5029L30.7251 3.77197C30.7251 1.26953 29.4312 0 26.8921 0L3.83301 0C1.26953 0 0 1.25732 0 3.77197L0 15.5029C0 18.0176 1.26953 19.2871 3.83301 19.2871ZM4.62646 6.71387C4.28467 6.71387 4.07715 6.49414 4.07715 6.15234L4.07715 4.99268C4.07715 4.65088 4.28467 4.43115 4.62646 4.43115L5.78613 4.43115C6.14014 4.43115 6.35986 4.65088 6.35986 4.99268L6.35986 6.15234C6.35986 6.49414 6.14014 6.71387 5.78613 6.71387ZM8.6792 6.71387C8.3252 6.71387 8.11768 6.49414 8.11768 6.15234L8.11768 4.99268C8.11768 4.65088 8.3252 4.43115 8.6792 4.43115L9.83887 4.43115C10.1807 4.43115 10.4004 4.65088 10.4004 4.99268L10.4004 6.15234C10.4004 6.49414 10.1807 6.71387 9.83887 6.71387ZM12.7319 6.71387C12.3901 6.71387 12.1704 6.49414 12.1704 6.15234L12.1704 4.99268C12.1704 4.65088 12.3901 4.43115 12.7319 4.43115L13.8794 4.43115C14.2334 4.43115 14.4531 4.65088 14.4531 4.99268L14.4531 6.15234C14.4531 6.49414 14.2334 6.71387 13.8794 6.71387ZM16.7847 6.71387C16.4429 6.71387 16.2231 6.49414 16.2231 6.15234L16.2231 4.99268C16.2231 4.65088 16.4429 4.43115 16.7847 4.43115L17.9443 4.43115C18.2861 4.43115 18.5059 4.65088 18.5059 4.99268L18.5059 6.15234C18.5059 6.49414 18.2861 6.71387 17.9443 6.71387ZM20.8374 6.71387C20.4834 6.71387 20.2637 6.49414 20.2637 6.15234L20.2637 4.99268C20.2637 4.65088 20.4834 4.43115 20.8374 4.43115L21.9971 4.43115C22.3389 4.43115 22.5464 4.65088 22.5464 4.99268L22.5464 6.15234C22.5464 6.49414 22.3389 6.71387 21.9971 6.71387ZM24.8901 6.71387C24.5361 6.71387 24.3164 6.49414 24.3164 6.15234L24.3164 4.99268C24.3164 4.65088 24.5361 4.43115 24.8901 4.43115L26.0376 4.43115C26.3916 4.43115 26.5991 4.65088 26.5991 4.99268L26.5991 6.15234C26.5991 6.49414 26.3916 6.71387 26.0376 6.71387ZM4.62646 10.7666C4.28467 10.7666 4.07715 10.5469 4.07715 10.2051L4.07715 9.04541C4.07715 8.70361 4.28467 8.48389 4.62646 8.48389L5.78613 8.48389C6.14014 8.48389 6.35986 8.70361 6.35986 9.04541L6.35986 10.2051C6.35986 10.5469 6.14014 10.7666 5.78613 10.7666ZM8.6792 10.7666C8.3252 10.7666 8.11768 10.5469 8.11768 10.2051L8.11768 9.04541C8.11768 8.70361 8.3252 8.48389 8.6792 8.48389L9.83887 8.48389C10.1807 8.48389 10.4004 8.70361 10.4004 9.04541L10.4004 10.2051C10.4004 10.5469 10.1807 10.7666 9.83887 10.7666ZM12.7319 10.7666C12.3901 10.7666 12.1704 10.5469 12.1704 10.2051L12.1704 9.04541C12.1704 8.70361 12.3901 8.48389 12.7319 8.48389L13.8794 8.48389C14.2334 8.48389 14.4531 8.70361 14.4531 9.04541L14.4531 10.2051C14.4531 10.5469 14.2334 10.7666 13.8794 10.7666ZM16.7847 10.7666C16.4429 10.7666 16.2231 10.5469 16.2231 10.2051L16.2231 9.04541C16.2231 8.70361 16.4429 8.48389 16.7847 8.48389L17.9443 8.48389C18.2861 8.48389 18.5059 8.70361 18.5059 9.04541L18.5059 10.2051C18.5059 10.5469 18.2861 10.7666 17.9443 10.7666ZM20.8374 10.7666C20.4834 10.7666 20.2637 10.5469 20.2637 10.2051L20.2637 9.04541C20.2637 8.70361 20.4834 8.48389 20.8374 8.48389L21.9971 8.48389C22.3389 8.48389 22.5464 8.70361 22.5464 9.04541L22.5464 10.2051C22.5464 10.5469 22.3389 10.7666 21.9971 10.7666ZM24.8901 10.7666C24.5361 10.7666 24.3164 10.5469 24.3164 10.2051L24.3164 9.04541C24.3164 8.70361 24.5361 8.48389 24.8901 8.48389L26.0376 8.48389C26.3916 8.48389 26.5991 8.70361 26.5991 9.04541L26.5991 10.2051C26.5991 10.5469 26.3916 10.7666 26.0376 10.7666ZM4.62646 14.8193C4.28467 14.8193 4.07715 14.5996 4.07715 14.2578L4.07715 13.0981C4.07715 12.7563 4.28467 12.5366 4.62646 12.5366L5.78613 12.5366C6.14014 12.5366 6.35986 12.7563 6.35986 13.0981L6.35986 14.2578C6.35986 14.5996 6.14014 14.8193 5.78613 14.8193ZM8.81348 14.8193C8.37402 14.8193 8.11768 14.563 8.11768 14.1235L8.11768 13.2202C8.11768 12.793 8.37402 12.5366 8.81348 12.5366L21.8628 12.5366C22.29 12.5366 22.5464 12.793 22.5464 13.2202L22.5464 14.1235C22.5464 14.563 22.29 14.8193 21.8628 14.8193ZM24.8901 14.8193C24.5361 14.8193 24.3164 14.5996 24.3164 14.2578L24.3164 13.0981C24.3164 12.7563 24.5361 12.5366 24.8901 12.5366L26.0376 12.5366C26.3916 12.5366 26.5991 12.7563 26.5991 13.0981L26.5991 14.2578C26.5991 14.5996 26.3916 14.8193 26.0376 14.8193Z" fill="#5ac8f5"/>
 </g>
</svg>
