<?xml version="1.0" encoding="UTF-8"?>
<!--Generator: Apple Native CoreSVG 175.5-->
<!DOCTYPE svg
PUBLIC "-//W3C//DTD SVG 1.1//EN"
       "http://www.w3.org/Graphics/SVG/1.1/DTD/svg11.dtd">
<svg version="1.1" xmlns="http://www.w3.org/2000/svg" xmlns:xlink="http://www.w3.org/1999/xlink" width="24.9634" height="30.7495">
 <g>
  <rect height="30.7495" opacity="0" width="24.9634" x="0" y="0"/>
  <path d="M5.92041 7.22656L15.2954 7.22656C16.6992 7.22656 18.103 8.09326 18.103 10.1074L18.103 24.6216L21.1792 24.6216C23.6938 24.6216 24.9634 23.3276 24.9634 20.7886L24.9634 3.83301C24.9634 1.29395 23.6938 0 21.1792 0L9.70459 0C7.18994 0 5.92041 1.28174 5.92041 3.83301ZM11.6821 3.4668L11.6821 3.21045C11.6821 2.83203 11.9263 2.49023 12.4634 2.49023L18.4204 2.49023C18.9453 2.49023 19.2017 2.83203 19.2017 3.21045L19.2017 3.4668C19.2017 3.83301 18.9453 4.18701 18.4204 4.18701L12.4634 4.18701C11.9263 4.18701 11.6821 3.83301 11.6821 3.4668Z" fill="#5ac8f5" fill-opacity="0.5"/>
  <path d="M0 26.8799C0 29.4312 1.25732 30.7129 3.78418 30.7129L15.2588 30.7129C17.7856 30.7129 19.043 29.4189 19.043 26.8799L19.043 9.92432C19.043 7.37305 17.7856 6.09131 15.2588 6.09131L3.78418 6.09131C1.25732 6.09131 0 7.36084 0 9.92432ZM1.96533 26.8433L1.96533 9.94873C1.96533 8.74023 2.6123 8.05664 3.86963 8.05664L15.1611 8.05664C16.4185 8.05664 17.0776 8.74023 17.0776 9.94873L17.0776 26.8433C17.0776 28.064 16.4185 28.7476 15.1611 28.7476L3.86963 28.7476C2.6123 28.7476 1.96533 28.064 1.96533 26.8433ZM9.58252 23.7427C10.7788 23.7427 11.9873 23.3276 12.8174 22.6318C13.269 22.2778 13.3789 21.7773 13.0493 21.4233C12.7197 21.0571 12.2803 21.1182 11.9019 21.3989C11.2061 21.936 10.5225 22.229 9.58252 22.229C7.67822 22.229 6.10352 20.9473 5.66406 19.2505L6.67725 19.2505C7.12891 19.2505 7.22656 18.8232 6.98242 18.4814L5.41992 16.3208C5.16357 15.9668 4.72412 15.9302 4.45557 16.3208L2.91748 18.4814C2.67334 18.8232 2.771 19.2505 3.21045 19.2505L4.22363 19.2505C4.69971 21.9116 6.84814 23.7427 9.58252 23.7427ZM9.57031 13.0005C8.37402 13.0005 7.16553 13.4277 6.33545 14.1113C5.88379 14.4775 5.77393 14.9658 6.10352 15.332C6.43311 15.686 6.87256 15.625 7.25098 15.3442C7.94678 14.8071 8.64258 14.5142 9.57031 14.5142C11.4746 14.5142 13.0615 15.7959 13.4888 17.4927L12.4146 17.4927C11.9751 17.4927 11.8774 17.9199 12.1216 18.2617L13.6719 20.4346C13.9282 20.7886 14.3677 20.813 14.6484 20.4346L16.1743 18.2617C16.4307 17.9199 16.333 17.4927 15.8813 17.4927L14.9292 17.4927C14.4653 14.8315 12.3047 13.0005 9.57031 13.0005Z" fill="#5ac8f5"/>
 </g>
</svg>
