<?xml version="1.0" encoding="UTF-8"?>
<!--Generator: Apple Native CoreSVG 175.5-->
<!DOCTYPE svg
PUBLIC "-//W3C//DTD SVG 1.1//EN"
       "http://www.w3.org/Graphics/SVG/1.1/DTD/svg11.dtd">
<svg version="1.1" xmlns="http://www.w3.org/2000/svg" xmlns:xlink="http://www.w3.org/1999/xlink" width="20.7153" height="30.9448">
 <g>
  <rect height="30.9448" opacity="0" width="20.7153" x="0" y="0"/>
  <path d="M9.82666 8.97217C9.82666 7.22656 10.5469 5.7373 10.9375 4.88281C11.4746 3.72314 12.2559 2.36816 13.0127 1.11084L2.91748 1.11084C1.15967 1.11084 0 2.24609 0 3.96729L0 24.7925C0 26.5137 1.15967 27.6611 2.91748 27.6611L15.6372 27.6611C17.395 27.6611 18.5425 26.5137 18.5425 24.7925L18.5425 14.6851C17.8101 14.9536 16.98 15.1001 16.1011 15.1001C12.439 15.1001 9.82666 12.5732 9.82666 8.97217ZM5.2002 8.25195C4.21143 8.25195 3.41797 7.44629 3.41797 6.45752C3.41797 5.48096 4.21143 4.6875 5.2002 4.6875C6.17676 4.6875 6.98242 5.48096 6.98242 6.45752C6.98242 7.44629 6.17676 8.25195 5.2002 8.25195ZM4.01611 18.2007C3.57666 18.2007 3.22266 17.8589 3.22266 17.4072C3.22266 16.9678 3.57666 16.6138 4.01611 16.6138L7.67822 16.6138C8.12988 16.6138 8.48389 16.9678 8.48389 17.4072C8.48389 17.8589 8.12988 18.2007 7.67822 18.2007ZM4.01611 21.3501C3.57666 21.3501 3.22266 21.0083 3.22266 20.5566C3.22266 20.105 3.57666 19.7632 4.01611 19.7632L7.67822 19.7632C8.12988 19.7632 8.48389 20.105 8.48389 20.5566C8.48389 21.0083 8.12988 21.3501 7.67822 21.3501ZM4.01611 24.4995C3.57666 24.4995 3.22266 24.1455 3.22266 23.7061C3.22266 23.2544 3.57666 22.9004 4.01611 22.9004L7.67822 22.9004C8.12988 22.9004 8.48389 23.2544 8.48389 23.7061C8.48389 24.1455 8.12988 24.4995 7.67822 24.4995ZM10.8643 18.2007C10.4126 18.2007 10.0586 17.8589 10.0586 17.4072C10.0586 16.9678 10.4126 16.6138 10.8643 16.6138L14.5264 16.6138C14.9658 16.6138 15.3198 16.9678 15.3198 17.4072C15.3198 17.8589 14.9658 18.2007 14.5264 18.2007ZM10.8643 21.3501C10.4126 21.3501 10.0586 21.0083 10.0586 20.5566C10.0586 20.105 10.4126 19.7632 10.8643 19.7632L14.5264 19.7632C14.9658 19.7632 15.3198 20.105 15.3198 20.5566C15.3198 21.0083 14.9658 21.3501 14.5264 21.3501ZM10.8643 24.4995C10.4126 24.4995 10.0586 24.1455 10.0586 23.7061C10.0586 23.2544 10.4126 22.9004 10.8643 22.9004L14.5264 22.9004C14.9658 22.9004 15.3198 23.2544 15.3198 23.7061C15.3198 24.1455 14.9658 24.4995 14.5264 24.4995ZM3.54004 29.8096C4.12598 29.8096 4.5166 29.4067 4.5166 28.8208L4.5166 26.4282L2.55127 26.4282L2.55127 28.8208C2.55127 29.4067 2.9541 29.8096 3.54004 29.8096ZM15.0024 29.8096C15.6006 29.8096 15.9912 29.4067 15.9912 28.8208L15.9912 26.4282L14.0259 26.4282L14.0259 28.8208C14.0259 29.4067 14.4165 29.8096 15.0024 29.8096ZM16.1011 13.4399C18.8599 13.4399 20.7153 11.6455 20.7153 8.97217C20.7153 7.6416 20.1538 6.46973 19.751 5.56641C19.0186 3.9917 17.8223 2.02637 16.7969 0.439453C16.5894 0.134277 16.3696 0 16.1011 0C15.8325 0 15.6128 0.134277 15.4053 0.439453C14.3799 2.02637 13.1836 3.9917 12.4512 5.56641C12.0483 6.46973 11.4868 7.6416 11.4868 8.97217C11.4868 11.6455 13.3423 13.4399 16.1011 13.4399Z" fill="#5ac8f5"/>
 </g>
</svg>
