<?xml version="1.0" encoding="UTF-8"?>
<!--Generator: Apple Native CoreSVG 175.5-->
<!DOCTYPE svg
PUBLIC "-//W3C//DTD SVG 1.1//EN"
       "http://www.w3.org/Graphics/SVG/1.1/DTD/svg11.dtd">
<svg version="1.1" xmlns="http://www.w3.org/2000/svg" xmlns:xlink="http://www.w3.org/1999/xlink" width="18.9575" height="29.2114">
 <g>
  <rect height="29.2114" opacity="0" width="18.9575" x="0" y="0"/>
  <path d="M9.48486 29.2114C9.77783 29.2114 10.5591 27.6611 10.5591 25.7935L10.5591 19.0918L8.39844 19.0918L8.39844 25.7935C8.39844 27.6611 9.17969 29.2114 9.48486 29.2114ZM1.79443 20.0928L17.1631 20.0928C18.2617 20.0928 18.9575 19.4092 18.9575 18.3716C18.9575 14.7827 14.9536 11.1572 9.48486 11.1572C4.00391 11.1572 0 14.7827 0 18.3716C0 19.4092 0.695801 20.0928 1.79443 20.0928ZM2.28271 18.2495C2.00195 18.2495 1.87988 18.0908 1.92871 17.7612C2.19727 15.564 5.00488 12.9395 9.48486 12.9395C13.9526 12.9395 16.7603 15.564 17.0288 17.7612C17.0776 18.0908 16.9556 18.2495 16.6748 18.2495ZM1.55029 2.05078C1.55029 2.40479 1.69678 2.81982 2.01416 3.23486C2.63672 4.06494 4.11377 5.2124 5.65186 6.22559L5.2002 12.6709L7.15332 12.6709L7.60498 5.32227C7.61719 5.15137 7.59277 5.09033 7.4707 5.0293C5.63965 4.08936 4.22363 2.97852 4.12598 2.73438C4.02832 2.57568 4.12598 2.47803 4.26025 2.47803L14.6973 2.47803C14.8315 2.47803 14.9292 2.57568 14.8315 2.73438C14.7339 2.97852 13.3179 4.08936 11.4868 5.0293C11.377 5.09033 11.3403 5.15137 11.3647 5.32227L11.8042 12.6709L13.7573 12.6709L13.3057 6.22559C14.856 5.2124 16.3208 4.06494 16.9434 3.23486C17.2729 2.81982 17.4194 2.40479 17.4194 2.05078C17.4194 1.30615 16.8457 0.756836 15.9912 0.756836L2.97852 0.756836C2.11182 0.756836 1.55029 1.30615 1.55029 2.05078Z" fill="#5ac8f5"/>
 </g>
</svg>
