<?xml version="1.0" encoding="UTF-8"?>
<!--Generator: Apple Native CoreSVG 175.5-->
<!DOCTYPE svg
PUBLIC "-//W3C//DTD SVG 1.1//EN"
       "http://www.w3.org/Graphics/SVG/1.1/DTD/svg11.dtd">
<svg version="1.1" xmlns="http://www.w3.org/2000/svg" xmlns:xlink="http://www.w3.org/1999/xlink" width="25.9155" height="22.8675">
 <g>
  <rect height="22.8675" opacity="0" width="25.9155" x="0" y="0"/>
  <path d="M0 8.68109C0 11.8427 1.14746 14.7724 3.17383 16.9697C3.6377 17.4824 4.32129 17.4824 4.71191 17.0307C5.10254 16.5912 4.98047 16.0175 4.54102 15.517C2.90527 13.6982 1.98975 11.3056 1.98975 8.68109C1.98975 6.05658 2.90527 3.664 4.54102 1.84515C4.98047 1.34466 5.10254 0.770931 4.71191 0.331478C4.32129-0.120182 3.6377-0.120182 3.17383 0.392513C1.14746 2.58978 0 5.51947 0 8.68109ZM5.13916 8.68109C5.13916 10.4755 5.74951 12.1479 6.81152 13.4662C7.23877 14.0278 7.97119 14.0156 8.37402 13.5517C8.76465 13.1122 8.60596 12.5629 8.21533 12.038C7.48291 11.1347 7.12891 9.95062 7.12891 8.68109C7.12891 7.41156 7.51953 6.2641 8.21533 5.32415C8.59375 4.78704 8.76465 4.24994 8.37402 3.81048C7.97119 3.34661 7.23877 3.33441 6.81152 3.89593C5.74951 5.21429 5.13916 6.88665 5.13916 8.68109ZM10.7666 8.68109C10.7666 9.55999 11.2671 10.3168 12.0239 10.6586L12.0239 21.6327C12.0239 22.2553 12.4023 22.6826 12.9639 22.6826C13.5376 22.6826 13.8916 22.2675 13.8916 21.6327L13.8916 10.6586C14.6362 10.3168 15.1489 9.54779 15.1489 8.68109C15.1489 7.46038 14.1846 6.47161 12.9639 6.47161C11.731 6.47161 10.7666 7.46038 10.7666 8.68109ZM17.5415 13.5517C17.9443 14.0156 18.6768 14.0278 19.104 13.4662C20.166 12.1479 20.7764 10.4755 20.7764 8.68109C20.7764 6.88665 20.166 5.21429 19.104 3.89593C18.6768 3.33441 17.9443 3.34661 17.5415 3.81048C17.1509 4.24994 17.3218 4.78704 17.7002 5.32415C18.396 6.2641 18.7866 7.41156 18.7866 8.68109C18.7866 9.95062 18.4326 11.1347 17.7002 12.038C17.3096 12.5629 17.1509 13.1122 17.5415 13.5517ZM21.2036 17.0307C21.5942 17.4824 22.2778 17.4824 22.7417 16.9697C24.7681 14.7724 25.9155 11.8427 25.9155 8.68109C25.9155 5.51947 24.7681 2.58978 22.7417 0.392513C22.2778-0.120182 21.5942-0.120182 21.2036 0.331478C20.813 0.770931 20.9351 1.34466 21.3745 1.84515C23.0103 3.664 23.9258 6.05658 23.9258 8.68109C23.9258 11.3056 23.0103 13.6982 21.3745 15.517C20.9351 16.0175 20.813 16.5912 21.2036 17.0307Z" fill="#5ac8f5"/>
 </g>
</svg>
