<?xml version="1.0" encoding="UTF-8"?>
<!--Generator: Apple Native CoreSVG 175.5-->
<!DOCTYPE svg
PUBLIC "-//W3C//DTD SVG 1.1//EN"
       "http://www.w3.org/Graphics/SVG/1.1/DTD/svg11.dtd">
<svg version="1.1" xmlns="http://www.w3.org/2000/svg" xmlns:xlink="http://www.w3.org/1999/xlink" width="37.6221" height="31.189">
 <g>
  <rect height="31.189" opacity="0" width="37.6221" x="0" y="0"/>
  <path d="M18.811 6.83594C21.7896 6.83594 24.7925 4.80957 24.7925 2.20947C24.7925 1.40381 24.353 0.854492 23.3154 0.537109C22.0215 0.158691 20.4224 0 18.811 0C17.2119 0 15.6128 0.158691 14.3188 0.537109C13.2812 0.854492 12.8418 1.40381 12.8418 2.20947C12.8418 4.80957 15.8325 6.83594 18.811 6.83594ZM18.0176 14.0015L19.6167 14.0015L19.6167 5.85938L18.0176 5.85938ZM2.55127 19.4824C3.95508 19.4824 5.10254 18.335 5.10254 16.9189C5.10254 15.5151 3.96729 14.3677 2.55127 14.3677C1.14746 14.3677 0 15.5151 0 16.9189C0 18.3228 1.15967 19.4824 2.55127 19.4824ZM9.65576 19.4824C11.3892 19.4824 12.8174 18.0542 12.8174 16.333C12.8174 14.5996 11.3892 13.1714 9.65576 13.1714C7.93457 13.1714 6.51855 14.5996 6.51855 16.333C6.51855 18.0542 7.93457 19.4824 9.65576 19.4824ZM18.8232 22.3511C21.3135 22.3511 23.3276 20.3369 23.3276 17.8467C23.3276 15.3442 21.3135 13.3301 18.8232 13.3301C16.3208 13.3301 14.3066 15.3442 14.3066 17.8467C14.3066 20.3369 16.3208 22.3511 18.8232 22.3511ZM27.9663 19.4824C29.6875 19.4824 31.1035 18.0542 31.1035 16.333C31.1035 14.5996 29.6875 13.1714 27.9663 13.1714C26.2329 13.1714 24.8047 14.5996 24.8047 16.333C24.8047 18.0542 26.2329 19.4824 27.9663 19.4824ZM35.0708 19.4824C36.4624 19.4824 37.6221 18.3228 37.6221 16.9189C37.6221 15.5151 36.4746 14.3677 35.0708 14.3677C33.6548 14.3677 32.5195 15.5151 32.5195 16.9189C32.5195 18.335 33.667 19.4824 35.0708 19.4824ZM18.8232 31.1035C20.5322 31.1035 21.9482 29.6997 21.9482 27.9785C21.9482 26.2573 20.5322 24.8535 18.8232 24.8535C17.1021 24.8535 15.686 26.2573 15.686 27.9785C15.686 29.6997 17.1021 31.1035 18.8232 31.1035ZM3.6377 18.75L2.03857 18.75C2.09961 22.7783 7.67822 24.9634 10.7422 21.7529L9.87549 20.4224C7.86133 22.937 3.69873 21.521 3.6377 18.75ZM10.4492 18.75L8.8501 18.75C8.77686 22.998 13.9771 24.9268 17.5537 21.6309L16.0278 20.8252C13.5742 22.6807 10.3882 21.4966 10.4492 18.75ZM27.1729 18.75C27.2339 21.4966 24.0479 22.6807 21.5942 20.8252L20.0684 21.6309C23.645 24.9268 28.8452 22.998 28.772 18.75ZM33.9844 18.75C33.9233 21.521 29.7607 22.937 27.7466 20.4224L26.8799 21.7529C29.9438 24.9634 35.5225 22.7783 35.5835 18.75ZM18.0176 21.5942L18.0176 25.7935L19.6167 25.7935L19.6167 21.5942Z" fill="#5ac8f5"/>
 </g>
</svg>
