<?xml version="1.0" encoding="UTF-8"?>
<!--Generator: Apple Native CoreSVG 175.5-->
<!DOCTYPE svg
PUBLIC "-//W3C//DTD SVG 1.1//EN"
       "http://www.w3.org/Graphics/SVG/1.1/DTD/svg11.dtd">
<svg version="1.1" xmlns="http://www.w3.org/2000/svg" xmlns:xlink="http://www.w3.org/1999/xlink" width="24.9023" height="24.9146">
 <g>
  <rect height="24.9146" opacity="0" width="24.9023" x="0" y="0"/>
  <path d="M12.4512 24.9146C19.2627 24.9146 24.9023 19.2749 24.9023 12.4634C24.9023 5.66406 19.2505 0.012207 12.439 0.012207C5.63965 0.012207 0 5.66406 0 12.4634C0 19.2749 5.65186 24.9146 12.4512 24.9146ZM5.49316 10.437C5.09033 10.5591 4.73633 10.3638 4.65088 10.022C4.52881 9.69238 4.6875 9.32617 5.10254 9.21631C6.23779 8.8623 7.50732 8.61816 8.75244 8.61816C10.2173 8.61816 11.2549 8.8501 12.5244 8.8501C13.1958 8.8501 13.5986 8.47168 13.5986 7.84912C13.5986 7.21436 13.1714 6.84814 12.6221 6.84814C12.1826 6.84814 11.8408 7.1167 11.6821 7.4707C11.4868 7.86133 11.1084 7.95898 10.8032 7.80029C10.4492 7.6416 10.3882 7.23877 10.5347 6.9458C10.8643 6.16455 11.6821 5.57861 12.6221 5.57861C13.855 5.57861 14.8926 6.53076 14.8926 7.84912C14.8926 9.14307 13.9526 10.1196 12.5244 10.1196C11.1816 10.1196 10.144 9.91211 8.75244 9.91211C7.66602 9.91211 6.56738 10.0708 5.49316 10.437ZM17.3462 14.0015C14.7461 14.0015 12.4878 12.6709 9.48486 12.6709C7.99561 12.6709 6.72607 12.8784 5.50537 13.3423C5.09033 13.4888 4.73633 13.2935 4.65088 12.9395C4.52881 12.6221 4.69971 12.2681 5.09033 12.1216C6.44531 11.6577 7.91016 11.377 9.48486 11.377C12.561 11.377 15.0635 12.7075 17.3462 12.7075C18.5181 12.7075 19.2383 12.1094 19.2383 11.1572C19.2383 10.2173 18.5669 9.60693 17.7002 9.60693C16.9556 9.60693 16.3696 10.0952 16.2598 10.8398C16.1743 11.2671 15.8569 11.499 15.5029 11.4502C15.1611 11.4014 14.9048 11.084 14.9902 10.6567C15.1611 9.33838 16.2598 8.3252 17.7002 8.3252C19.2627 8.3252 20.52 9.52148 20.52 11.1572C20.52 12.8052 19.2017 14.0015 17.3462 14.0015ZM12.5244 19.3481C11.2793 19.3481 10.4248 18.457 10.2905 17.334C10.2417 16.98 10.4126 16.5771 10.8765 16.5527C11.2793 16.5161 11.5479 16.8335 11.5967 17.1509C11.6943 17.7612 11.9873 18.0786 12.5244 18.0786C13.0615 18.0786 13.4644 17.7368 13.4644 17.1021C13.4644 16.0889 12.1216 15.4419 9.38721 15.4419C8.02002 15.4419 6.70166 15.686 5.50537 16.1133C5.09033 16.2598 4.73633 16.04 4.65088 15.6982C4.5166 15.3809 4.71191 15.0269 5.07812 14.8926C6.39648 14.4409 7.97119 14.1602 9.38721 14.1602C12.8296 14.1602 14.7461 15.1978 14.7461 17.1021C14.7461 18.4326 13.7695 19.3481 12.5244 19.3481Z" fill="#5ac8f5"/>
 </g>
</svg>
