<?xml version="1.0" encoding="UTF-8"?>
<!--Generator: Apple Native CoreSVG 175.5-->
<!DOCTYPE svg
PUBLIC "-//W3C//DTD SVG 1.1//EN"
       "http://www.w3.org/Graphics/SVG/1.1/DTD/svg11.dtd">
<svg version="1.1" xmlns="http://www.w3.org/2000/svg" xmlns:xlink="http://www.w3.org/1999/xlink" width="24.9023" height="29.6485">
 <g>
  <rect height="29.6485" opacity="0" width="24.9023" x="0" y="0"/>
  <path d="M0 14.8181C0 21.6297 5.65186 27.2693 12.4512 27.2693C19.2627 27.2693 24.9023 21.6297 24.9023 14.8181C24.9023 8.81228 20.52 3.72195 14.8071 2.5989L14.8071 0.865506C14.8071-0.0011928 14.209-0.233126 13.5498 0.242948L9.65576 2.96512C9.09424 3.35574 9.08203 3.94168 9.65576 4.34451L13.5376 7.07889C14.209 7.56717 14.8071 7.33523 14.8071 6.45633L14.8071 4.72293C19.4214 5.77273 22.8149 9.8743 22.8149 14.8181C22.8149 20.5799 18.2129 25.1941 12.4512 25.1941C6.68945 25.1941 2.06299 20.5799 2.0752 14.8181C2.0874 11.3513 3.77197 8.28738 6.37207 6.43191C6.87256 6.05349 7.03125 5.47976 6.72607 4.96707C6.4209 4.46658 5.74951 4.3323 5.2124 4.74734C2.0752 7.03006 0 10.7166 0 14.8181Z" fill="#5ac8f5" fill-opacity="0.5"/>
  <path d="M9.92432 19.9329C10.4004 19.9329 10.6934 19.5911 10.6934 19.0174L10.6934 18.0042L11.2793 18.0042C11.6943 18.0042 11.9751 17.7356 11.9751 17.3084C11.9751 16.8933 11.6943 16.6248 11.2793 16.6248L10.6934 16.6248L10.6934 11.4368C10.6934 10.68 10.1685 10.326 9.47266 10.326C8.81348 10.326 8.43506 10.5701 8.05664 11.2171C7.17773 12.6819 6.0791 14.5618 5.24902 16.0633C5.05371 16.4295 4.99268 16.6736 4.99268 17.0276C4.99268 17.6136 5.35889 18.0042 5.99365 18.0042L9.19189 18.0042L9.19189 19.0174C9.19189 19.5911 9.46045 19.9329 9.92432 19.9329ZM6.5918 16.6248L6.5918 16.5882C7.44629 14.989 8.28857 13.4021 9.14307 11.8152L9.19189 11.8152L9.19189 16.6248ZM16.1133 19.9695C18.1396 19.9695 19.4824 18.6634 19.4824 16.698C19.4824 14.9036 18.2739 13.6219 16.5283 13.6219C15.7593 13.6219 14.917 14.0003 14.5996 14.6228L14.6606 14.6228L14.8804 11.864L18.5303 11.864C18.8843 11.864 19.2017 11.5711 19.2017 11.156C19.2017 10.741 18.8843 10.4724 18.5303 10.4724L14.624 10.4724C13.9893 10.4724 13.6353 10.8387 13.5864 11.4856L13.3179 15.0012C13.269 15.6116 13.5864 15.9046 14.1113 15.9046C14.5142 15.9046 14.6973 15.8313 15.0391 15.5628C15.5151 15.1355 15.8813 14.9646 16.3696 14.9646C17.3218 14.9646 17.9565 15.6604 17.9565 16.7224C17.9565 17.7967 17.1997 18.5779 16.1865 18.5779C15.4663 18.5779 14.8438 18.1629 14.5264 17.5281C14.3433 17.2107 14.1357 17.0398 13.8184 17.0398C13.4155 17.0398 13.147 17.3328 13.147 17.7478C13.147 17.9187 13.1836 18.0774 13.2446 18.2361C13.5742 19.115 14.6484 19.9695 16.1133 19.9695Z" fill="#5ac8f5"/>
 </g>
</svg>
