<?xml version="1.0" encoding="UTF-8"?>
<!--Generator: Apple Native CoreSVG 175.5-->
<!DOCTYPE svg
PUBLIC "-//W3C//DTD SVG 1.1//EN"
       "http://www.w3.org/Graphics/SVG/1.1/DTD/svg11.dtd">
<svg version="1.1" xmlns="http://www.w3.org/2000/svg" xmlns:xlink="http://www.w3.org/1999/xlink" width="24.9023" height="24.9146">
 <g>
  <rect height="24.9146" opacity="0" width="24.9023" x="0" y="0"/>
  <path d="M12.4512 24.9023C19.2627 24.9023 24.9023 19.2505 24.9023 12.4512C24.9023 5.63965 19.2505 0 12.439 0C5.63965 0 0 5.63965 0 12.4512C0 19.2505 5.65186 24.9023 12.4512 24.9023Z" fill="#5ac8f5" fill-opacity="0.25"/>
  <path d="M9.44824 18.5181C8.91113 18.5181 8.49609 18.4814 8.19092 18.3472C7.76367 18.2007 7.55615 17.9321 7.55615 17.5659C7.55615 17.1875 7.82471 16.8945 8.27637 16.8945C8.43506 16.8945 8.53271 16.9067 8.64258 16.9312C8.8501 16.9678 8.99658 17.0166 9.375 17.0166C10.4858 17.0166 10.9985 16.4917 11.2183 15.2222L11.6089 12.8174L9.27734 12.8174C8.8501 12.8174 8.59375 12.561 8.59375 12.1704C8.59375 11.7432 8.8623 11.4746 9.27734 11.4746L11.8042 11.4746L12.1338 9.41162C12.4756 7.32422 13.5376 6.31104 15.4541 6.31104C15.979 6.31104 16.394 6.35986 16.6992 6.48193C17.1265 6.62842 17.334 6.90918 17.334 7.26318C17.334 7.6416 17.0654 7.93457 16.6138 7.93457C16.4673 7.93457 16.3574 7.92236 16.2598 7.89795C16.0522 7.86133 15.8936 7.82471 15.5273 7.82471C14.4165 7.82471 13.9038 8.3374 13.6963 9.55811L13.4033 11.4746L15.8203 11.4746C16.2476 11.4746 16.5161 11.7432 16.5161 12.1704C16.5161 12.561 16.2476 12.8174 15.8203 12.8174L13.1836 12.8174L12.7686 15.4297C12.4268 17.5171 11.3647 18.5181 9.44824 18.5181Z" fill="#5ac8f5"/>
 </g>
</svg>
