<?xml version="1.0" encoding="UTF-8"?>
<!--Generator: Apple Native CoreSVG 175.5-->
<!DOCTYPE svg
PUBLIC "-//W3C//DTD SVG 1.1//EN"
       "http://www.w3.org/Graphics/SVG/1.1/DTD/svg11.dtd">
<svg version="1.1" xmlns="http://www.w3.org/2000/svg" xmlns:xlink="http://www.w3.org/1999/xlink" width="22.4731" height="22.4976">
 <g>
  <rect height="22.4976" opacity="0" width="22.4731" x="0" y="0"/>
  <path d="M3.83301 22.4976L18.6401 22.4976C21.2036 22.4976 22.4731 21.228 22.4731 18.7134L22.4731 3.80859C22.4731 1.29395 21.2036 0.0244141 18.6401 0.0244141L3.83301 0.0244141C1.28174 0.0244141 0 1.28174 0 3.80859L0 18.7134C0 21.2402 1.28174 22.4976 3.83301 22.4976Z" fill="#5ac8f5" fill-opacity="0.25"/>
  <path d="M7.2876 14.3677C6.73828 14.3677 6.37207 13.9404 6.37207 13.3545L6.37207 7.42188C6.37207 6.67725 6.7749 6.38428 7.42188 6.38428L13.3789 6.38428C13.9771 6.38428 14.3555 6.75049 14.3555 7.31201C14.3555 7.86133 13.9648 8.22754 13.3545 8.22754L11.084 8.22754L9.21631 8.03223L11.1816 9.86328L15.8081 14.4775C15.9912 14.6606 16.1133 14.917 16.1133 15.1611C16.1133 15.7349 15.7349 16.1011 15.1855 16.1011C14.8804 16.1011 14.6484 15.9912 14.4531 15.8081L9.85107 11.1938L8.03223 9.25293L8.21533 11.2183L8.21533 13.3789C8.21533 13.9771 7.84912 14.3677 7.2876 14.3677Z" fill="#5ac8f5"/>
 </g>
</svg>
