<?xml version="1.0" encoding="UTF-8"?>
<!--Generator: Apple Native CoreSVG 175.5-->
<!DOCTYPE svg
PUBLIC "-//W3C//DTD SVG 1.1//EN"
       "http://www.w3.org/Graphics/SVG/1.1/DTD/svg11.dtd">
<svg version="1.1" xmlns="http://www.w3.org/2000/svg" xmlns:xlink="http://www.w3.org/1999/xlink" width="25.1495" height="26.6296">
 <g>
  <rect height="26.6296" opacity="0" width="25.1495" x="0" y="0"/>
  <path d="M6.18896 18.8385C9.7168 22.3663 14.0137 25.0885 17.5171 25.0885C19.0918 25.0885 20.4712 24.5392 21.582 23.3185C22.229 22.5983 22.6318 21.756 22.6318 20.9259C22.6318 20.3156 22.3999 19.7296 21.814 19.3146L18.0786 16.6534C17.5049 16.2628 17.0288 16.0675 16.5894 16.0675C16.0278 16.0675 15.5396 16.3849 14.978 16.9342L14.1113 17.7887C13.9771 17.923 13.8062 17.984 13.6475 17.984C13.4521 17.984 13.2812 17.9108 13.147 17.8497C12.4023 17.4469 11.1084 16.3361 9.8999 15.1398C8.70361 13.9435 7.59277 12.6495 7.20215 11.8927C7.12891 11.7584 7.06787 11.5875 7.06787 11.4044C7.06787 11.2457 7.1167 11.087 7.25098 10.9528L8.10547 10.0616C8.65479 9.50012 8.97217 9.01184 8.97217 8.45032C8.97217 8.01086 8.77686 7.53479 8.37402 6.96106L5.74951 3.26233C5.32227 2.67639 4.72412 2.42004 4.06494 2.42004C3.25928 2.42004 2.41699 2.78625 1.70898 3.48206C0.524902 4.61731 0 6.02112 0 7.57141C0 11.0748 2.67334 15.3229 6.18896 18.8385Z" fill="#5ac8f5" fill-opacity="0.5"/>
  <path d="M12.5 12.6373C13.1592 13.2965 14.209 13.2965 14.8682 12.6373C15.5273 11.9781 15.5273 10.9283 14.8682 10.2936C14.209 9.62219 13.1592 9.62219 12.5 10.2692C11.853 10.9283 11.853 11.9781 12.5 12.6373ZM13.7085 5.87463C13.3179 6.25305 13.3179 6.88782 13.7085 7.26624L17.8711 11.441C18.2495 11.8195 18.8843 11.8195 19.2627 11.441C19.6411 11.0626 19.6411 10.4279 19.2627 10.0494L15.0879 5.87463C14.7095 5.49622 14.0869 5.49622 13.7085 5.87463ZM18.103 7.05872C18.7622 7.68127 19.812 7.69348 20.459 7.0343C21.106 6.38733 21.106 5.33752 20.459 4.69055C19.812 4.03137 18.75 4.03137 18.103 4.67834C17.4438 5.33752 17.4438 6.37512 18.103 7.05872ZM19.3115 0.283813C18.9331 0.662231 18.9331 1.28479 19.3115 1.67542L23.4741 5.83801C23.8525 6.22864 24.4873 6.22864 24.8657 5.83801C25.2441 5.45959 25.2441 4.83704 24.8657 4.45862L20.7031 0.283813C20.3125-0.0946045 19.6777-0.0946045 19.3115 0.283813Z" fill="#5ac8f5"/>
 </g>
</svg>
