<?xml version="1.0" encoding="UTF-8"?>
<!--Generator: Apple Native CoreSVG 175.5-->
<!DOCTYPE svg
PUBLIC "-//W3C//DTD SVG 1.1//EN"
       "http://www.w3.org/Graphics/SVG/1.1/DTD/svg11.dtd">
<svg version="1.1" xmlns="http://www.w3.org/2000/svg" xmlns:xlink="http://www.w3.org/1999/xlink" width="17.5173" height="27.3804">
 <g>
  <rect height="27.3804" opacity="0" width="17.5173" x="0" y="0"/>
  <path d="M9.32617 24.8169C13.3423 24.8169 16.2354 22.8271 17.3096 19.8364C17.4438 19.4702 17.5049 19.104 17.5171 18.7256C17.5293 18.0908 17.1021 17.6514 16.4429 17.6514C15.8081 17.6514 15.4907 18.0054 15.2832 18.6401C14.5996 21.0571 12.2925 22.6807 9.33838 22.6807C5.16357 22.6807 2.45361 19.2017 2.45361 13.6475C2.45361 8.17871 5.17578 4.74854 9.32617 4.74854C12.1216 4.74854 14.4409 6.46973 15.1245 8.87451C15.3442 9.58252 15.6494 9.86328 16.2842 9.86328C16.9434 9.86328 17.3706 9.42383 17.3584 8.77686C17.3462 8.41064 17.2852 8.06885 17.1631 7.72705C16.0522 4.63867 12.9883 2.6123 9.32617 2.6123C3.69873 2.6123 0 6.89697 0 13.6475C0 20.4834 3.67432 24.8169 9.32617 24.8169ZM9.14307 27.3804C9.58252 27.3804 9.93652 27.0264 9.93652 26.5869L9.93652 0.878906C9.93652 0.439453 9.58252 0.0854492 9.14307 0.0854492C8.70361 0.0854492 8.34961 0.439453 8.34961 0.878906L8.34961 26.5869C8.34961 27.0264 8.70361 27.3804 9.14307 27.3804Z" fill="#5ac8f5"/>
 </g>
</svg>
