<?xml version="1.0" encoding="UTF-8"?>
<!--Generator: Apple Native CoreSVG 175.5-->
<!DOCTYPE svg
PUBLIC "-//W3C//DTD SVG 1.1//EN"
       "http://www.w3.org/Graphics/SVG/1.1/DTD/svg11.dtd">
<svg version="1.1" xmlns="http://www.w3.org/2000/svg" xmlns:xlink="http://www.w3.org/1999/xlink" width="20.0815" height="31.8726">
 <g>
  <rect height="31.8726" opacity="0" width="20.0815" x="0" y="0"/>
  <path d="M6.31151 30.6152L13.77 30.6152C18.018 30.6152 20.1177 28.4668 20.081 24.1699C20.0322 19.2627 20.0078 15.6982 19.8857 13.0249C19.5317 5.16357 17.3222 2.85645 10.0469 2.85645C2.77147 2.85645 0.549787 5.16357 0.195783 13.0249C0.073713 15.6982 0.049299 19.2627 0.000470835 24.1699C-0.0361503 28.4668 2.06346 30.6152 6.31151 30.6152ZM5.9575 25.769C4.9077 25.769 4.23631 25.0854 4.23631 24.0601L4.23631 17.7612C4.23631 16.7236 4.9077 16.04 5.9575 16.04L14.1362 16.04C15.1738 16.04 15.8452 16.7236 15.8452 17.7612L15.8452 24.0601C15.8452 25.0854 15.1738 25.769 14.1362 25.769ZM4.23631 20.7397L15.8452 20.7397L15.8452 19.2871L4.23631 19.2871ZM10.0469 0C7.70311 0 6.05516 1.58691 6.05516 3.74756L7.77635 3.74756C7.77635 2.56348 8.70408 1.72119 10.0469 1.72119C11.3774 1.72119 12.3174 2.56348 12.3174 3.74756L14.0386 3.74756C14.0386 1.58691 12.3784 0 10.0469 0Z" fill="#5ac8f5"/>
 </g>
</svg>
