<?xml version="1.0" encoding="UTF-8"?>
<!--Generator: Apple Native CoreSVG 175.5-->
<!DOCTYPE svg
PUBLIC "-//W3C//DTD SVG 1.1//EN"
       "http://www.w3.org/Graphics/SVG/1.1/DTD/svg11.dtd">
<svg version="1.1" xmlns="http://www.w3.org/2000/svg" xmlns:xlink="http://www.w3.org/1999/xlink" width="24.9023" height="24.9146">
 <g>
  <rect height="24.9146" opacity="0" width="24.9023" x="0" y="0"/>
  <path d="M12.4512 24.9023C19.2627 24.9023 24.9023 19.2505 24.9023 12.4512C24.9023 5.63965 19.2505 0 12.439 0C5.63965 0 0 5.63965 0 12.4512C0 19.2505 5.65186 24.9023 12.4512 24.9023ZM12.4512 22.8271C6.68945 22.8271 2.0874 18.2129 2.0874 12.4512C2.0874 6.68945 6.67725 2.0752 12.439 2.0752C18.2007 2.0752 22.8271 6.68945 22.8271 12.4512C22.8271 18.2129 18.2129 22.8271 12.4512 22.8271Z" fill="#5ac8f5" fill-opacity="0.5"/>
  <path d="M7.4707 14.9658C7.4707 15.3076 7.70264 15.564 8.06885 15.564L8.72803 15.564L8.11768 17.3584C8.06885 17.5415 8.05664 17.6636 8.05664 17.7612C8.05664 18.1763 8.37402 18.4814 8.83789 18.4814C9.22852 18.4814 9.49707 18.2983 9.61914 17.8833L10.3516 15.564L14.5142 15.564L15.2466 17.8955C15.3687 18.3105 15.6128 18.4814 16.0156 18.4814C16.4795 18.4814 16.8091 18.1763 16.8091 17.7612C16.8091 17.6636 16.7847 17.5415 16.7236 17.3584L16.1133 15.564L16.7969 15.564C17.1631 15.564 17.395 15.3076 17.395 14.9658C17.395 14.624 17.1631 14.3555 16.7969 14.3555L15.7349 14.3555L15.3931 13.3301L16.7969 13.3301C17.1631 13.3301 17.395 13.0615 17.395 12.7197C17.395 12.3779 17.1631 12.1216 16.7969 12.1216L14.9902 12.1216L13.3667 7.23877C13.2202 6.79932 12.9272 6.53076 12.4268 6.53076C11.9141 6.53076 11.6211 6.78711 11.4746 7.23877L9.86328 12.1216L8.06885 12.1216C7.70264 12.1216 7.4707 12.3779 7.4707 12.7197C7.4707 13.0615 7.70264 13.3301 8.06885 13.3301L9.46045 13.3301L9.11865 14.3555L8.06885 14.3555C7.70264 14.3555 7.4707 14.624 7.4707 14.9658ZM10.7056 14.3555L11.0352 13.3301L13.8184 13.3301L14.1479 14.3555ZM11.4014 12.1216L12.4268 8.8501L13.4521 12.1216Z" fill="#5ac8f5"/>
 </g>
</svg>
