<?xml version="1.0" encoding="UTF-8"?>
<!--Generator: Apple Native CoreSVG 175.5-->
<!DOCTYPE svg
PUBLIC "-//W3C//DTD SVG 1.1//EN"
       "http://www.w3.org/Graphics/SVG/1.1/DTD/svg11.dtd">
<svg version="1.1" xmlns="http://www.w3.org/2000/svg" xmlns:xlink="http://www.w3.org/1999/xlink" width="22.4731" height="22.4976">
 <g>
  <rect height="22.4976" opacity="0" width="22.4731" x="0" y="0"/>
  <path d="M3.83301 22.4976L18.6401 22.4976C21.2036 22.4976 22.4731 21.228 22.4731 18.7134L22.4731 3.80859C22.4731 1.29395 21.2036 0.0244141 18.6401 0.0244141L3.83301 0.0244141C1.28174 0.0244141 0 1.28174 0 3.80859L0 18.7134C0 21.2402 1.28174 22.4976 3.83301 22.4976ZM3.85742 20.5322C2.63672 20.5322 1.96533 19.8853 1.96533 18.6157L1.96533 3.90625C1.96533 2.63672 2.63672 1.98975 3.85742 1.98975L18.6157 1.98975C19.8242 1.98975 20.5078 2.63672 20.5078 3.90625L20.5078 18.6157C20.5078 19.8853 19.8242 20.5322 18.6157 20.5322ZM8.87451 16.4795C9.375 16.4795 9.63135 16.1377 9.63135 15.6616L9.63135 14.2212L10.2905 14.2212C10.7056 14.2212 10.9741 13.9771 10.9741 13.5498C10.9741 13.1104 10.7056 12.854 10.2905 12.854L9.63135 12.854L9.63135 7.14111C9.63135 6.43311 9.13086 5.98145 8.42285 5.98145C7.71484 5.98145 7.2876 6.25 6.88477 6.92139C5.87158 8.63037 4.63867 10.73 3.80859 12.207C3.61328 12.5854 3.54004 12.854 3.54004 13.1836C3.54004 13.8306 3.96729 14.2212 4.58984 14.2212L8.1543 14.2212L8.1543 15.6616C8.1543 16.1255 8.39844 16.4795 8.87451 16.4795ZM8.1543 12.854L5.13916 12.854L5.13916 12.8052C5.85938 11.4258 7.1167 9.27734 8.08105 7.62939L8.1543 7.62939ZM15.4297 16.5039C17.5049 16.5039 18.9453 15.2588 18.9453 13.501C18.9453 12.207 18.042 11.1572 16.8213 11.0352L16.8213 10.9619C17.8223 10.791 18.6157 9.77783 18.6157 8.63037C18.6157 7.06787 17.334 5.98145 15.5151 5.98145C13.855 5.98145 12.6343 6.92139 12.3169 8.11768C12.2925 8.27637 12.2803 8.39844 12.2803 8.55713C12.2803 8.99658 12.561 9.30176 12.9761 9.30176C13.3423 9.30176 13.5376 9.10645 13.6597 8.71582C13.9282 7.86133 14.5264 7.38525 15.4785 7.38525C16.4429 7.38525 17.1143 7.97119 17.1143 8.82568C17.1143 9.7168 16.4307 10.3638 15.4663 10.3638L14.8071 10.3638C14.4043 10.3638 14.1357 10.6445 14.1357 11.084C14.1357 11.4746 14.4043 11.7798 14.8071 11.7798L15.5151 11.7798C16.6748 11.7798 17.4194 12.439 17.4194 13.4277C17.4194 14.3799 16.6138 15.1001 15.4419 15.1001C14.4775 15.1001 13.8062 14.624 13.4888 13.7695C13.3301 13.3789 13.1348 13.1836 12.793 13.1836C12.3779 13.1836 12.085 13.4888 12.085 13.916C12.085 14.0869 12.0972 14.209 12.146 14.3677C12.4634 15.4907 13.7573 16.5039 15.4297 16.5039Z" fill="#5ac8f5"/>
 </g>
</svg>
