<?xml version="1.0" encoding="UTF-8"?>
<!--Generator: Apple Native CoreSVG 175.5-->
<!DOCTYPE svg
PUBLIC "-//W3C//DTD SVG 1.1//EN"
       "http://www.w3.org/Graphics/SVG/1.1/DTD/svg11.dtd">
<svg version="1.1" xmlns="http://www.w3.org/2000/svg" xmlns:xlink="http://www.w3.org/1999/xlink" width="47.937" height="22.3511">
 <g>
  <rect height="22.3511" opacity="0" width="47.937" x="0" y="0"/>
  <path d="M2.6001 22.3511L17.9321 22.3511C19.8608 22.3511 20.5444 21.8018 20.5444 20.7275C20.5444 17.5781 16.6016 13.2324 10.2661 13.2324C3.94287 13.2324 0 17.5781 0 20.7275C0 21.8018 0.683594 22.3511 2.6001 22.3511ZM10.2783 11.0474C12.8906 11.0474 15.1611 8.70361 15.1611 5.65186C15.1611 2.63672 12.8906 0.402832 10.2783 0.402832C7.66602 0.402832 5.39551 2.68555 5.39551 5.67627C5.39551 8.70361 7.65381 11.0474 10.2783 11.0474Z" fill="#5ac8f5"/>
  <path d="M23.9746 13.2324C21.8994 13.2324 20.0684 13.7085 18.5669 14.4653C20.7031 16.1255 22.0825 18.3472 22.0825 20.7275C22.0825 21.3623 21.9482 21.9116 21.6675 22.3511L31.6406 22.3511C33.5571 22.3511 34.2407 21.8018 34.2407 20.7275C34.2407 17.5781 30.2979 13.2324 23.9746 13.2324ZM23.9746 11.0474C26.5991 11.0474 28.8574 8.70361 28.8574 5.65186C28.8574 2.63672 26.5869 0.402832 23.9746 0.402832C21.3745 0.402832 19.0918 2.68555 19.104 5.67627C19.104 8.70361 21.3623 11.0474 23.9746 11.0474Z" fill="#5ac8f5" fill-opacity="0.5"/>
  <path d="M37.6587 13.2324C35.5835 13.2324 33.7646 13.7085 32.2632 14.4531C34.4116 16.1133 35.791 18.3472 35.791 20.7275C35.791 21.3623 35.6445 21.9116 35.376 22.3511L45.3247 22.3511C47.2534 22.3511 47.937 21.8018 47.937 20.7275C47.937 17.5781 43.9941 13.2324 37.6587 13.2324ZM37.6709 11.0474C40.2954 11.0474 42.5537 8.70361 42.5537 5.65186C42.5537 2.63672 40.2832 0.402832 37.6709 0.402832C35.0586 0.402832 32.7881 2.68555 32.7881 5.67627C32.7881 8.70361 35.0464 11.0474 37.6709 11.0474Z" fill="#5ac8f5" fill-opacity="0.25"/>
 </g>
</svg>
