<?xml version="1.0" encoding="UTF-8"?>
<!--Generator: Apple Native CoreSVG 175.5-->
<!DOCTYPE svg
PUBLIC "-//W3C//DTD SVG 1.1//EN"
       "http://www.w3.org/Graphics/SVG/1.1/DTD/svg11.dtd">
<svg version="1.1" xmlns="http://www.w3.org/2000/svg" xmlns:xlink="http://www.w3.org/1999/xlink" width="30.5176" height="25.2319">
 <g>
  <rect height="25.2319" opacity="0" width="30.5176" x="0" y="0"/>
  <path d="M29.1138 17.3828L21.8506 10.5713C21.3135 10.0708 20.6787 9.82666 20.0073 9.82666C19.3481 9.82666 18.7378 10.0586 18.1763 10.5591L11.9019 16.1621L12.439 16.1621L9.42383 13.4399C8.92334 12.9761 8.36182 12.7441 7.78809 12.7441C7.22656 12.7441 6.70166 12.9761 6.21338 13.4277L1.55029 17.6392C1.55029 19.2749 2.18506 20.105 3.44238 20.105L26.6846 20.105C28.2349 20.105 29.1138 19.1284 29.1138 17.3828ZM9.94873 10.7178C11.5112 10.7178 12.8052 9.42383 12.8052 7.8125C12.8052 6.25 11.5112 4.94385 9.94873 4.94385C8.36182 4.94385 7.05566 6.25 7.05566 7.8125C7.05566 9.42383 8.36182 10.7178 9.94873 10.7178ZM3.13721 21.0938L27.3804 21.0938C29.4434 21.0938 30.5176 20.0317 30.5176 17.9565L30.5176 3.96729C30.5176 1.9043 29.4434 0.842285 27.3804 0.842285L3.13721 0.842285C1.07422 0.842285 0 1.9043 0 3.96729L0 17.9565C0 20.0317 1.07422 21.0938 3.13721 21.0938ZM3.17383 19.1284C2.36816 19.1284 1.96533 18.7256 1.96533 17.9321L1.96533 4.00391C1.96533 3.19824 2.36816 2.80762 3.17383 2.80762L27.3438 2.80762C28.1494 2.80762 28.5522 3.19824 28.5522 4.00391L28.5522 17.9321C28.5522 18.7256 28.1494 19.1284 27.3438 19.1284ZM9.11865 25.2319L21.3989 25.2319C21.936 25.2319 22.3877 24.7925 22.3877 24.2432C22.3877 23.6938 21.936 23.2544 21.3989 23.2544L9.11865 23.2544C8.58154 23.2544 8.12988 23.6938 8.12988 24.2432C8.12988 24.7925 8.58154 25.2319 9.11865 25.2319Z" fill="#5ac8f5"/>
 </g>
</svg>
