<?xml version="1.0" encoding="UTF-8"?>
<!--Generator: Apple Native CoreSVG 175.5-->
<!DOCTYPE svg
PUBLIC "-//W3C//DTD SVG 1.1//EN"
       "http://www.w3.org/Graphics/SVG/1.1/DTD/svg11.dtd">
<svg version="1.1" xmlns="http://www.w3.org/2000/svg" xmlns:xlink="http://www.w3.org/1999/xlink" width="22.4731" height="22.4976">
 <g>
  <rect height="22.4976" opacity="0" width="22.4731" x="0" y="0"/>
  <path d="M3.83301 22.4976L18.6401 22.4976C21.2036 22.4976 22.4731 21.228 22.4731 18.7134L22.4731 3.80859C22.4731 1.29395 21.2036 0.0244141 18.6401 0.0244141L3.83301 0.0244141C1.28174 0.0244141 0 1.28174 0 3.80859L0 18.7134C0 21.2402 1.28174 22.4976 3.83301 22.4976ZM3.85742 20.5322C2.63672 20.5322 1.96533 19.8853 1.96533 18.6157L1.96533 3.90625C1.96533 2.63672 2.63672 1.98975 3.85742 1.98975L18.6157 1.98975C19.8242 1.98975 20.5078 2.63672 20.5078 3.90625L20.5078 18.6157C20.5078 19.8853 19.8242 20.5322 18.6157 20.5322ZM7.50732 17.334C7.92236 17.334 8.21533 17.041 8.21533 16.5527L8.21533 12.4146L8.77686 12.4146L10.2905 16.8335C10.4248 17.2119 10.6567 17.334 10.9741 17.334C11.377 17.334 11.6455 17.0288 11.6455 16.626C11.6455 16.4673 11.6211 16.3452 11.5601 16.1621L10.1318 12.1216C11.1084 11.6211 11.6577 10.3638 11.6577 8.91113C11.6577 6.61621 10.7544 5.49316 8.97217 5.49316L7.54395 5.49316C7.10449 5.49316 6.82373 5.79834 6.82373 6.29883L6.82373 16.5161C6.82373 17.0166 7.09229 17.334 7.50732 17.334ZM8.21533 11.0229L8.21533 6.89697L8.87451 6.89697C9.81445 6.89697 10.2417 7.59277 10.2417 8.94775C10.2417 10.3271 9.81445 11.0229 8.83789 11.0229ZM14.2822 17.3462C15.6372 17.3462 16.5283 16.3696 16.5283 14.856C16.5283 13.6353 16.1011 12.915 14.9292 12.2681L14.4531 12.0117C13.8062 11.6577 13.5376 11.3037 13.5376 10.7178C13.5376 10.0586 13.7939 9.66797 14.27 9.66797C14.8438 9.66797 15.0024 10.083 15.0757 10.8765C15.1123 11.3525 15.3198 11.6455 15.7349 11.6455C16.1621 11.6455 16.4062 11.3403 16.4062 10.8521C16.4062 10.73 16.394 10.6201 16.3818 10.498C16.2598 9.27734 15.5518 8.3374 14.2822 8.3374C13.0127 8.3374 12.1704 9.30176 12.1704 10.7666C12.1704 11.9385 12.6343 12.7197 13.7695 13.3179L14.2578 13.5742C14.8804 13.8916 15.1367 14.3066 15.1367 14.9536C15.1367 15.6616 14.8438 16.04 14.2944 16.04C13.7085 16.04 13.4521 15.5762 13.3911 14.8193C13.3545 14.3311 13.1226 14.0503 12.7197 14.0503C12.2925 14.0503 12.0483 14.3555 12.0483 14.8438C12.0483 14.9902 12.0483 15.1245 12.0728 15.2588C12.2192 16.5039 13.0127 17.3462 14.2822 17.3462Z" fill="#5ac8f5"/>
 </g>
</svg>
