<?xml version="1.0" encoding="UTF-8"?>
<!--Generator: Apple Native CoreSVG 175.5-->
<!DOCTYPE svg
PUBLIC "-//W3C//DTD SVG 1.1//EN"
       "http://www.w3.org/Graphics/SVG/1.1/DTD/svg11.dtd">
<svg version="1.1" xmlns="http://www.w3.org/2000/svg" xmlns:xlink="http://www.w3.org/1999/xlink" width="24.9023" height="24.9146">
 <g>
  <rect height="24.9146" opacity="0" width="24.9023" x="0" y="0"/>
  <path d="M12.4512 24.9023C19.2627 24.9023 24.9023 19.2505 24.9023 12.4512C24.9023 5.63965 19.2505 0 12.439 0C5.63965 0 0 5.63965 0 12.4512C0 19.2505 5.65186 24.9023 12.4512 24.9023ZM12.4512 22.8271C6.68945 22.8271 2.0874 18.2129 2.0874 12.4512C2.0874 6.68945 6.67725 2.0752 12.439 2.0752C18.2007 2.0752 22.8271 6.68945 22.8271 12.4512C22.8271 18.2129 18.2129 22.8271 12.4512 22.8271ZM8.58154 18.042C9.21631 18.042 9.57031 17.6392 9.57031 16.9556L9.57031 12.9272L15.2832 12.9272L15.2832 16.9556C15.2832 17.627 15.6494 18.042 16.2476 18.042C16.8823 18.042 17.2363 17.6392 17.2363 16.9556L17.2363 7.71484C17.2363 7.03125 16.8823 6.62842 16.2476 6.62842C15.6494 6.62842 15.2832 7.04346 15.2832 7.71484L15.2832 11.4014L9.57031 11.4014L9.57031 7.71484C9.57031 7.03125 9.21631 6.62842 8.58154 6.62842C7.9834 6.62842 7.62939 7.04346 7.62939 7.71484L7.62939 16.9556C7.62939 17.627 7.9834 18.042 8.58154 18.042Z" fill="#5ac8f5"/>
 </g>
</svg>
