<?xml version="1.0" encoding="UTF-8"?>
<!--Generator: Apple Native CoreSVG 175.5-->
<!DOCTYPE svg
PUBLIC "-//W3C//DTD SVG 1.1//EN"
       "http://www.w3.org/Graphics/SVG/1.1/DTD/svg11.dtd">
<svg version="1.1" xmlns="http://www.w3.org/2000/svg" xmlns:xlink="http://www.w3.org/1999/xlink" width="24.9023" height="24.9146">
 <g>
  <rect height="24.9146" opacity="0" width="24.9023" x="0" y="0"/>
  <path d="M12.4512 24.9023C19.2627 24.9023 24.9023 19.2505 24.9023 12.4512C24.9023 5.63965 19.2505 0 12.439 0C5.63965 0 0 5.63965 0 12.4512C0 19.2505 5.65186 24.9023 12.4512 24.9023ZM13.0981 18.1763C12.4756 18.1763 12.1094 17.749 12.1094 17.041L12.1094 8.91113L12.0117 8.91113L10.3882 9.97314C10.0952 10.1807 9.97314 10.2051 9.76562 10.2051C9.36279 10.2051 9.05762 9.83887 9.05762 9.44824C9.05762 9.13086 9.17969 8.93555 9.44824 8.74023L11.7188 7.20215C12.2437 6.83594 12.5732 6.71387 13.0493 6.71387C13.7329 6.71387 14.1235 7.1167 14.1235 7.84912L14.1235 17.041C14.1235 17.749 13.7573 18.1763 13.0981 18.1763Z" fill="#5ac8f5"/>
 </g>
</svg>
