<?xml version="1.0" encoding="UTF-8"?>
<!--Generator: Apple Native CoreSVG 175.5-->
<!DOCTYPE svg
PUBLIC "-//W3C//DTD SVG 1.1//EN"
       "http://www.w3.org/Graphics/SVG/1.1/DTD/svg11.dtd">
<svg version="1.1" xmlns="http://www.w3.org/2000/svg" xmlns:xlink="http://www.w3.org/1999/xlink" width="34.0332" height="18.9087">
 <g>
  <rect height="18.9087" opacity="0" width="34.0332" x="0" y="0"/>
  <path d="M0 10.1562C0 15.2954 3.00293 17.9932 8.22754 17.9932L26.77 17.9932C28.6499 17.9932 30.249 18.1763 31.7383 18.5547C33.02 18.8721 34.0332 18.3472 34.0332 17.041L34.0332 11.1938C34.0332 10.3638 33.4351 9.75342 32.5928 9.75342L29.4312 9.75342C28.418 9.75342 27.9175 9.31396 28.0151 8.36182L28.3813 4.78516C28.6865 1.80664 26.9897 0 23.6694 0C19.8242 0.012207 12.7319 0.158691 8.6792 0.634766C3.125 1.31836 0 4.71191 0 10.1562ZM1.96533 10.1562C1.96533 5.84717 4.41895 3.125 8.8501 2.6123C12.854 2.16064 19.8364 1.96533 23.6694 1.96533C25.7812 1.96533 26.6357 2.81982 26.4404 4.56543L25.4761 13.2324C25.2441 15.2832 24.3652 16.0278 22.1191 16.0278L8.19092 16.0278C4.27246 16.0278 1.96533 14.0015 1.96533 10.1562Z" fill="#5ac8f5"/>
 </g>
</svg>
