<?xml version="1.0" encoding="UTF-8"?>
<!--Generator: Apple Native CoreSVG 175.5-->
<!DOCTYPE svg
PUBLIC "-//W3C//DTD SVG 1.1//EN"
       "http://www.w3.org/Graphics/SVG/1.1/DTD/svg11.dtd">
<svg version="1.1" xmlns="http://www.w3.org/2000/svg" xmlns:xlink="http://www.w3.org/1999/xlink" width="26.2695" height="26.2817">
 <g>
  <rect height="26.2817" opacity="0" width="26.2695" x="0" y="0"/>
  <path d="M19.2749 0.878906C16.0767 0.878906 14.2944 3.93066 12.6587 9.32617L15.5762 12.2437L22.7905 12.2437C25.0366 12.2437 26.2695 11.0352 26.2695 8.8623C26.2573 4.95605 22.7295 0.878906 19.2749 0.878906ZM19.2749 2.74658C21.7163 2.74658 24.4019 5.98145 24.4019 8.8623C24.4019 9.99756 23.999 10.376 22.7905 10.376L14.3188 10.376C15.8203 5.43213 17.0044 2.74658 19.2749 2.74658ZM6.99463 25.3784C10.1929 25.3784 11.9751 22.3389 13.6108 16.98L10.6445 14.0137L3.479 14.0137C1.24512 14.0137 0 15.2222 0 17.395C0.012207 21.3135 3.54004 25.3784 6.99463 25.3784ZM6.99463 23.5107C4.55322 23.5107 1.86768 20.2881 1.86768 17.395C1.86768 16.2598 2.27051 15.8813 3.479 15.8813L11.9507 15.8813C10.4492 20.8252 9.27734 23.5107 6.99463 23.5107ZM8.87451 0C7.40967 0 5.93262 0.512695 4.66309 1.33057L6.04248 2.69775C6.90918 2.18506 7.91016 1.86768 8.87451 1.86768C10.0098 1.86768 10.3882 2.28271 10.3882 3.49121L10.3882 7.04346L12.2559 8.91113L12.2559 3.49121C12.2559 1.24512 11.0474 0 8.87451 0ZM0.891113 6.99463C0.891113 10.5103 4.54102 12.2925 10.791 14.1602L7.51953 10.8887C4.38232 9.87549 2.75879 8.77686 2.75879 6.99463C2.75879 6.73828 2.80762 6.50635 2.90527 6.26221L1.42822 4.78516C1.08643 5.49316 0.891113 6.23779 0.891113 6.99463ZM25.3906 19.2749C25.3906 15.7593 21.7163 13.9771 15.4419 12.1094L18.7012 15.3687C21.8872 16.3818 23.5229 17.4927 23.5229 19.2749C23.5229 19.5435 23.4741 19.7998 23.3765 20.0439L24.8535 21.521C25.1953 20.8008 25.3906 20.0317 25.3906 19.2749ZM17.4072 26.2695C18.8721 26.2573 20.3369 25.7812 21.5942 24.9634L20.2271 23.584C19.3481 24.0967 18.3716 24.4019 17.4072 24.4019C16.272 24.4019 15.8936 23.999 15.8936 22.7905L15.8936 19.2627L14.0259 17.395L14.0259 22.7905C14.0259 25.0366 15.2344 26.2695 17.4072 26.2695ZM23.6572 25.0122C24.0356 25.3784 24.6338 25.3662 24.9878 25C25.354 24.6338 25.354 24.0356 24.9878 23.6694L2.6001 1.28174C2.23389 0.915527 1.63574 0.90332 1.25732 1.28174C0.90332 1.63574 0.90332 2.24609 1.25732 2.6123Z" fill="#5ac8f5"/>
 </g>
</svg>
