<?xml version="1.0" encoding="UTF-8"?>
<!--Generator: Apple Native CoreSVG 175.5-->
<!DOCTYPE svg
PUBLIC "-//W3C//DTD SVG 1.1//EN"
       "http://www.w3.org/Graphics/SVG/1.1/DTD/svg11.dtd">
<svg version="1.1" xmlns="http://www.w3.org/2000/svg" xmlns:xlink="http://www.w3.org/1999/xlink" width="27.8687" height="27.9663">
 <g>
  <rect height="27.9663" opacity="0" width="27.8687" x="0" y="0"/>
  <path d="M21.9971 21.3257L6.11572 21.3257C5.68848 21.3257 5.34668 21.6553 5.34668 22.0947C5.34668 22.5342 5.68848 22.8638 6.11572 22.8638L21.9971 22.8638C22.4243 22.8638 22.7661 22.5342 22.7661 22.0947C22.7661 21.6553 22.4243 21.3257 21.9971 21.3257ZM21.9971 25.4639L6.11572 25.4639C5.68848 25.4639 5.34668 25.7935 5.34668 26.2329C5.34668 26.6724 5.68848 27.0142 6.11572 27.0142L21.9971 27.0142C22.4243 27.0142 22.7661 26.6724 22.7661 26.2329C22.7661 25.7935 22.4243 25.4639 21.9971 25.4639Z" fill="#5ac8f5" fill-opacity="0.5"/>
  <path d="M5.7373 18.4937L20.8862 18.4937C24.8901 18.4937 27.8687 15.4541 27.8687 11.6943C27.8687 7.80029 24.6948 4.95605 20.5566 4.95605C19.0308 1.94092 16.1987 0 12.6709 0C8.08105 0 4.29688 3.60107 3.89404 8.12988C1.68457 8.77686 0 10.6934 0 13.269C0 16.1621 2.09961 18.4937 5.7373 18.4937ZM5.71289 16.5405C3.21045 16.5405 1.95312 15.1367 1.95312 13.3301C1.95312 11.8652 2.80762 10.5469 4.88281 9.99756C5.5542 9.81445 5.79834 9.49707 5.85938 8.81348C6.14014 4.82178 9.13086 1.95312 12.6709 1.95312C15.4175 1.95312 17.5781 3.4668 18.8965 6.16455C19.1772 6.7627 19.5435 6.97021 20.2637 6.97021C23.877 6.97021 25.9155 9.14307 25.9155 11.7432C25.9155 14.4043 23.7915 16.5405 21.0083 16.5405Z" fill="#5ac8f5"/>
 </g>
</svg>
