<?xml version="1.0" encoding="UTF-8"?>
<!--Generator: Apple Native CoreSVG 175.5-->
<!DOCTYPE svg
PUBLIC "-//W3C//DTD SVG 1.1//EN"
       "http://www.w3.org/Graphics/SVG/1.1/DTD/svg11.dtd">
<svg version="1.1" xmlns="http://www.w3.org/2000/svg" xmlns:xlink="http://www.w3.org/1999/xlink" width="24.9023" height="24.9146">
 <g>
  <rect height="24.9146" opacity="0" width="24.9023" x="0" y="0"/>
  <path d="M12.4512 24.9023C19.2627 24.9023 24.9023 19.2505 24.9023 12.4512C24.9023 5.63965 19.2505 0 12.439 0C5.63965 0 0 5.63965 0 12.4512C0 19.2505 5.65186 24.9023 12.4512 24.9023ZM6.83594 12.4512C6.32324 12.4512 5.92041 12.0483 5.92041 11.5356L5.92041 7.00684C5.92041 6.22559 6.31104 5.92041 6.99463 5.92041L11.5112 5.92041C12.0239 5.92041 12.4268 6.33545 12.4268 6.84814C12.4268 7.36084 12.0239 7.76367 11.5112 7.76367L10.8765 7.76367L8.89893 7.6416L11.8042 10.4126C12.1826 10.7788 12.1948 11.4258 11.8164 11.8042C11.438 12.1948 10.8032 12.207 10.4248 11.792L7.62939 8.8623L7.76367 10.9009L7.76367 11.5356C7.76367 12.0483 7.34863 12.4512 6.83594 12.4512ZM13.4033 19.0063C12.8906 19.0063 12.4756 18.5913 12.4756 18.0786C12.4756 17.5659 12.8906 17.1631 13.4033 17.1631L14.0381 17.1631L16.0156 17.2852L13.0981 14.5142C12.7197 14.1479 12.7075 13.501 13.0859 13.1226C13.4766 12.7319 14.0991 12.7197 14.4897 13.1348L17.2729 16.0645L17.1509 14.0259L17.1509 13.3911C17.1509 12.8784 17.5537 12.4756 18.0664 12.4756C18.5791 12.4756 18.9941 12.8784 18.9941 13.3911L18.9941 17.9199C18.9941 18.7012 18.5913 19.0063 17.9077 19.0063Z" fill="#5ac8f5"/>
 </g>
</svg>
