<?xml version="1.0" encoding="UTF-8"?>
<!--Generator: Apple Native CoreSVG 175.5-->
<!DOCTYPE svg
PUBLIC "-//W3C//DTD SVG 1.1//EN"
       "http://www.w3.org/Graphics/SVG/1.1/DTD/svg11.dtd">
<svg version="1.1" xmlns="http://www.w3.org/2000/svg" xmlns:xlink="http://www.w3.org/1999/xlink" width="27.7588" height="26.1841">
 <g>
  <rect height="26.1841" opacity="0" width="27.7588" x="0" y="0"/>
  <path d="M0 22.4854C0 24.9146 1.2085 26.1719 3.68652 26.1719L23.9258 26.1719C26.4893 26.1719 27.7588 24.9146 27.7588 22.3999L27.7588 3.78418C27.7588 1.26953 26.4893 0 23.9258 0L9.21631 0C6.66504 0 5.3833 1.26953 5.3833 3.78418L5.3833 9.60693L2.46582 9.60693C0.915527 9.60693 0 10.4492 0 11.9019ZM1.96533 22.4854L1.96533 12.2803C1.96533 11.8286 2.23389 11.5723 2.68555 11.5723L5.3833 11.5723L5.3833 22.4854C5.3833 23.4985 4.63867 24.2065 3.68652 24.2065C2.72217 24.2065 1.96533 23.4619 1.96533 22.4854ZM6.93359 24.2065C7.20215 23.6816 7.34863 23.0713 7.34863 22.3633L7.34863 3.89404C7.34863 2.62451 8.03223 1.96533 9.25293 1.96533L23.8892 1.96533C25.1099 1.96533 25.7935 2.62451 25.7935 3.89404L25.7935 22.29C25.7935 23.5596 25.1099 24.2065 23.8892 24.2065ZM10.5225 7.27539L22.644 7.27539C23.0713 7.27539 23.4009 6.93359 23.4009 6.50635C23.4009 6.09131 23.0713 5.77393 22.644 5.77393L10.5225 5.77393C10.083 5.77393 9.75342 6.09131 9.75342 6.50635C9.75342 6.93359 10.083 7.27539 10.5225 7.27539ZM10.5225 11.5723L22.644 11.5723C23.0713 11.5723 23.4009 11.2427 23.4009 10.8276C23.4009 10.4004 23.0713 10.0708 22.644 10.0708L10.5225 10.0708C10.083 10.0708 9.75342 10.4004 9.75342 10.8276C9.75342 11.2427 10.083 11.5723 10.5225 11.5723ZM11.2427 20.2759L14.4043 20.2759C15.332 20.2759 15.8936 19.7144 15.8936 18.7866L15.8936 15.8813C15.8936 14.9414 15.332 14.3799 14.4043 14.3799L11.2427 14.3799C10.3027 14.3799 9.74121 14.9414 9.74121 15.8813L9.74121 18.7866C9.74121 19.7144 10.3027 20.2759 11.2427 20.2759ZM18.0908 15.8813L22.6318 15.8813C23.0713 15.8813 23.3887 15.564 23.3887 15.1489C23.3887 14.7095 23.0713 14.3799 22.6318 14.3799L18.0908 14.3799C17.6514 14.3799 17.334 14.7095 17.334 15.1489C17.334 15.564 17.6514 15.8813 18.0908 15.8813ZM18.0908 20.2759L22.6318 20.2759C23.0713 20.2759 23.3887 19.9585 23.3887 19.5435C23.3887 19.1162 23.0713 18.7744 22.6318 18.7744L18.0908 18.7744C17.6514 18.7744 17.334 19.1162 17.334 19.5435C17.334 19.9585 17.6514 20.2759 18.0908 20.2759Z" fill="#5ac8f5"/>
 </g>
</svg>
