<?xml version="1.0" encoding="UTF-8"?>
<!--Generator: Apple Native CoreSVG 175.5-->
<!DOCTYPE svg
PUBLIC "-//W3C//DTD SVG 1.1//EN"
       "http://www.w3.org/Graphics/SVG/1.1/DTD/svg11.dtd">
<svg version="1.1" xmlns="http://www.w3.org/2000/svg" xmlns:xlink="http://www.w3.org/1999/xlink" width="24.9023" height="24.9146">
 <g>
  <rect height="24.9146" opacity="0" width="24.9023" x="0" y="0"/>
  <path d="M12.4512 24.9023C19.2627 24.9023 24.9023 19.2505 24.9023 12.4512C24.9023 5.63965 19.2505 0 12.439 0C5.63965 0 0 5.63965 0 12.4512C0 19.2505 5.65186 24.9023 12.4512 24.9023ZM12.4512 22.8271C6.68945 22.8271 2.0874 18.2129 2.0874 12.4512C2.0874 6.68945 6.67725 2.0752 12.439 2.0752C18.2007 2.0752 22.8271 6.68945 22.8271 12.4512C22.8271 18.2129 18.2129 22.8271 12.4512 22.8271Z" fill="#5ac8f5" fill-opacity="0.5"/>
  <path d="M9.5459 19.0186L15.918 19.0186C17.2729 19.0186 17.9443 18.3228 17.9443 16.9556L17.9443 11.7065L13.1104 11.7065C12.2681 11.7065 11.8652 11.3159 11.8652 10.4736L11.8652 5.5542L9.5459 5.5542C8.20312 5.5542 7.51953 6.25 7.51953 7.61719L7.51953 16.9556C7.51953 18.335 8.20312 19.0186 9.5459 19.0186ZM13.208 10.7178L17.8711 10.7178C17.8345 10.4492 17.6392 10.1807 17.3218 9.86328L13.7085 6.17676C13.4033 5.85938 13.1226 5.66406 12.854 5.62744L12.854 10.3638C12.854 10.5957 12.9761 10.7178 13.208 10.7178Z" fill="#5ac8f5"/>
 </g>
</svg>
