<?xml version="1.0" encoding="UTF-8"?>
<!--Generator: Apple Native CoreSVG 175.5-->
<!DOCTYPE svg
PUBLIC "-//W3C//DTD SVG 1.1//EN"
       "http://www.w3.org/Graphics/SVG/1.1/DTD/svg11.dtd">
<svg version="1.1" xmlns="http://www.w3.org/2000/svg" xmlns:xlink="http://www.w3.org/1999/xlink" width="31.5918" height="32.019">
 <g>
  <rect height="32.019" opacity="0" width="31.5918" x="0" y="0"/>
  <path d="M12.854 25.2808C13.7573 25.2808 14.7583 25.1465 15.7959 24.7803C16.8335 25.1465 17.8345 25.2808 18.7378 25.2808C21.2769 25.2808 23.1567 24.1333 23.8525 23.5352C24.8901 24.0479 25.8545 24.2798 26.7578 24.2798C29.6143 24.2798 31.5918 22.2412 31.5918 19.2993C31.5918 17.8101 30.9814 16.2354 29.5776 14.8315C30.6885 13.6719 31.1401 12.2925 31.1401 10.9375C31.1401 8.02002 28.894 5.32227 26.0986 4.99268C25.9644 2.17285 22.8271 0.158691 19.8242 0.158691C18.2983 0.158691 16.8579 0.634766 15.7959 1.7334C14.7339 0.634766 13.3057 0.158691 11.7676 0.158691C8.76465 0.158691 5.62744 2.17285 5.50537 4.99268C2.69775 5.32227 0.439453 8.02002 0.439453 10.9375C0.439453 12.2925 0.90332 13.6719 2.01416 14.8315C0.610352 16.2354 0 17.8101 0 19.2993C0 22.2412 1.97754 24.2798 4.83398 24.2798C5.7373 24.2798 6.70166 24.0479 7.73926 23.5352C8.42285 24.1333 10.3149 25.2808 12.854 25.2808ZM12.854 23.5229C10.0098 23.5229 8.59375 21.9849 8.03223 21.3501C6.7627 22.2534 6.01807 22.5098 4.83398 22.5098C2.97852 22.5098 1.77002 21.2402 1.77002 19.2993C1.77002 18.0054 2.23389 16.9922 3.93066 15.4419C4.30908 15.1123 4.26025 14.563 3.95508 14.2456C2.52686 12.8662 2.19727 11.9141 2.19727 10.7056C2.19727 8.34961 4.01611 6.54297 6.79932 6.72607C7.21436 6.75049 7.34863 6.46973 7.2998 6.18896C6.9458 3.8208 8.94775 1.9165 11.8774 1.9165C13.5742 1.9165 14.7217 2.56348 15.7959 3.71094C16.8701 2.56348 18.0176 1.9165 19.7144 1.9165C22.644 1.9165 24.646 3.8208 24.292 6.18896C24.2432 6.46973 24.3774 6.75049 24.7925 6.72607C27.5635 6.54297 29.3823 8.34961 29.3823 10.7056C29.3823 11.9141 29.0649 12.8662 27.6367 14.2456C27.3315 14.563 27.2827 15.1123 27.6611 15.4419C29.3579 16.9922 29.8218 18.0054 29.8218 19.2993C29.8218 21.2402 28.6011 22.5098 26.7578 22.5098C25.5737 22.5098 24.8291 22.2534 23.5474 21.3501C22.998 21.9849 21.582 23.5229 18.7378 23.5229C17.8101 23.5229 16.9678 23.3765 15.7959 22.9004C14.624 23.3765 13.7817 23.5229 12.854 23.5229ZM9.28955 19.3481C11.5723 19.3481 12.8662 18.2983 13.4277 16.7725C14.0991 17.2241 14.8682 17.4561 15.7959 17.4561C16.7236 17.4561 17.4927 17.2241 18.1641 16.7725C18.7256 18.2983 20.0195 19.3481 22.3022 19.3481C22.7173 19.3481 23.0713 19.0186 23.0713 18.5913C23.0713 18.1763 22.7173 17.8223 22.3022 17.8223C20.2515 17.7979 19.3604 16.6504 19.2993 14.9414C19.2871 14.3311 18.4448 14.0869 18.0786 14.6118C17.5659 15.3687 16.8335 15.8081 15.7959 15.8081C14.7583 15.8081 14.0259 15.3687 13.5132 14.6118C13.147 14.0869 12.3047 14.3311 12.2925 14.9414C12.2314 16.6504 11.3403 17.7979 9.28955 17.8223C8.87451 17.8223 8.52051 18.1763 8.52051 18.5913C8.52051 19.0186 8.87451 19.3481 9.28955 19.3481ZM15.7959 32.019C16.9678 32.019 17.7368 31.6528 17.7368 31.0669C17.7368 30.2979 17.5171 28.1128 17.5171 26.3794C17.5171 23.6816 20.3247 18.5303 20.7642 17.8589L19.1528 16.748C18.5303 17.8833 17.7856 19.1772 16.7969 21.3745L16.7969 17.1631L14.7949 17.1631L14.7949 21.3867C13.8062 19.1895 13.0493 17.8711 12.439 16.748L10.8398 17.8589C11.2549 18.5303 14.0747 23.6816 14.0747 26.3794C14.0747 28.1128 13.855 30.2979 13.855 31.0669C13.855 31.6528 14.624 32.019 15.7959 32.019Z" fill="#5ac8f5"/>
 </g>
</svg>
