<?xml version="1.0" encoding="UTF-8"?>
<!--Generator: Apple Native CoreSVG 175.5-->
<!DOCTYPE svg
PUBLIC "-//W3C//DTD SVG 1.1//EN"
       "http://www.w3.org/Graphics/SVG/1.1/DTD/svg11.dtd">
<svg version="1.1" xmlns="http://www.w3.org/2000/svg" xmlns:xlink="http://www.w3.org/1999/xlink" width="25.8667" height="15.7104">
 <g>
  <rect height="15.7104" opacity="0" width="25.8667" x="0" y="0"/>
  <path d="M22.6807 15.686C24.585 15.686 25.8667 14.3555 25.8667 12.3657L25.8667 3.32031C25.8667 1.33057 24.585 0 22.6807 0L3.17383 0C1.26953 0 0 1.33057 0 3.32031L0 12.3657C0 14.3555 1.26953 15.686 3.17383 15.686ZM21.7163 13.7207L4.13818 13.7207L4.13818 1.96533L21.7163 1.96533ZM24.646 7.83691C24.646 8.42285 24.1821 8.89893 23.584 8.89893C23.0103 8.89893 22.5342 8.42285 22.5342 7.83691C22.5342 7.25098 23.0103 6.78711 23.584 6.78711C24.1821 6.78711 24.646 7.25098 24.646 7.83691ZM2.13623 10.1562C1.85547 10.1562 1.68457 9.97314 1.68457 9.70459L1.68457 5.98145C1.68457 5.71289 1.85547 5.52979 2.13623 5.52979C2.41699 5.52979 2.6001 5.71289 2.6001 5.98145L2.6001 9.70459C2.6001 9.97314 2.41699 10.1562 2.13623 10.1562Z" fill="#5ac8f5"/>
 </g>
</svg>
