<?xml version="1.0" encoding="UTF-8"?>
<!--Generator: Apple Native CoreSVG 175.5-->
<!DOCTYPE svg
PUBLIC "-//W3C//DTD SVG 1.1//EN"
       "http://www.w3.org/Graphics/SVG/1.1/DTD/svg11.dtd">
<svg version="1.1" xmlns="http://www.w3.org/2000/svg" xmlns:xlink="http://www.w3.org/1999/xlink" width="27.6842" height="27.701">
 <g>
  <rect height="27.701" opacity="0" width="27.6842" x="0" y="0"/>
  <path d="M1.36881 16.5422L11.1466 26.32C12.9533 28.1266 14.7355 28.1388 16.5299 26.3566L26.3566 16.5177C28.1388 14.7355 28.1266 12.9411 26.32 11.1344L16.5544 1.36881C14.7477-0.43783 12.9655-0.462244 11.1711 1.33219L1.33219 11.1588C-0.462244 12.9533-0.43783 14.7355 1.36881 16.5422Z" fill="#5ac8f5" fill-opacity="0.25"/>
  <path d="M9.73063 18.9713C9.18131 18.9713 8.72965 18.5197 8.72965 17.9582C8.72965 17.6896 8.83951 17.4333 9.02262 17.2502L12.4162 13.8566L9.02262 10.4753C8.83951 10.2799 8.72965 10.0358 8.72965 9.76725C8.72965 9.19352 9.18131 8.76627 9.73063 8.76627C10.0236 8.76627 10.2433 8.86393 10.4386 9.04703L13.8444 12.4406L17.2746 9.03483C17.4821 8.82731 17.7018 8.74186 17.9704 8.74186C18.5319 8.74186 18.9713 9.18131 18.9713 9.74283C18.9713 10.0236 18.8981 10.2433 18.6784 10.463L15.2848 13.8566L18.6662 17.238C18.8737 17.4211 18.9591 17.6774 18.9591 17.9582C18.9591 18.5197 18.5197 18.9713 17.946 18.9713C17.6652 18.9713 17.4088 18.8737 17.2257 18.6784L13.8444 15.2848L10.4753 18.6784C10.2799 18.8737 10.0236 18.9713 9.73063 18.9713Z" fill="#5ac8f5"/>
 </g>
</svg>
