<?xml version="1.0" encoding="UTF-8"?>
<!--Generator: Apple Native CoreSVG 175.5-->
<!DOCTYPE svg
PUBLIC "-//W3C//DTD SVG 1.1//EN"
       "http://www.w3.org/Graphics/SVG/1.1/DTD/svg11.dtd">
<svg version="1.1" xmlns="http://www.w3.org/2000/svg" xmlns:xlink="http://www.w3.org/1999/xlink" width="35.1698" height="18.2983">
 <g>
  <rect height="18.2983" opacity="0" width="35.1698" x="0" y="0"/>
  <path d="M8.05629 3.27148L8.9352 3.27148C9.48451 3.27148 9.71645 3.06396 9.89955 2.6001L10.6198 0.78125C10.7907 0.378418 10.6076 0.0244141 10.1803 0.0244141L9.37465 0.0244141C8.95961 0.0244141 8.70326 0.231934 8.50795 0.598145L7.5436 2.45361C7.34828 2.81982 7.5436 3.27148 8.05629 3.27148ZM4.71156 10.0586L6.06654 10.0586C6.62807 10.0586 6.95766 9.86328 7.16518 9.33838L8.22719 6.72607C8.39809 6.29883 8.12953 5.88379 7.65346 5.88379L6.44496 5.88379C6.02992 5.88379 5.68813 6.09131 5.49281 6.46973L4.13783 9.10645C3.89369 9.57031 4.18666 10.0586 4.71156 10.0586ZM0.98842 18.2983L2.58754 18.2983C3.31996 18.2983 3.68617 17.9443 3.88149 17.4194L5.37074 13.7695C5.59047 13.2324 5.24867 12.7075 4.66274 12.7075L3.28334 12.7075C2.5143 12.7075 2.13588 13.0005 1.86733 13.5132L0.133928 16.9434C-0.183455 17.5659 0.0484786 18.2983 0.98842 18.2983ZM26.2326 3.27148L27.1115 3.27148C27.6242 3.27148 27.8195 2.81982 27.6242 2.45361L26.6598 0.598145C26.4767 0.231934 26.2081 0.0244141 25.7931 0.0244141L24.9874 0.0244141C24.5602 0.0244141 24.3771 0.378418 24.548 0.78125L25.2682 2.6001C25.4513 3.06396 25.6832 3.27148 26.2326 3.27148ZM29.1134 10.0586L30.4562 10.0586C30.9811 10.0586 31.2741 9.57031 31.0421 9.10645L29.6872 6.46973C29.4796 6.09131 29.1378 5.88379 28.7228 5.88379L27.5143 5.88379C27.0382 5.88379 26.7697 6.29883 26.9406 6.72607L28.0026 9.33838C28.2223 9.86328 28.5397 10.0586 29.1134 10.0586ZM32.5802 18.2983L34.1793 18.2983C35.1315 18.2983 35.3512 17.5659 35.0338 16.9434L33.3004 13.5132C33.0319 13.0005 32.6535 12.7075 31.8844 12.7075L30.5172 12.7075C29.9191 12.7075 29.5773 13.2324 29.797 13.7695L31.2863 17.4194C31.4938 17.9443 31.8478 18.2983 32.5802 18.2983Z" fill="#5ac8f5" fill-opacity="0.5"/>
  <path d="M9.85072 14.2578C9.85072 14.7339 10.2169 15.1123 10.7052 15.1123L11.4621 15.1123C11.9503 15.1123 12.3288 14.7339 12.3288 14.2578L12.3288 13.3179L22.7047 13.3179L22.7047 14.2578C22.7047 14.7339 23.0709 15.1123 23.5592 15.1123L24.3283 15.1123C24.8043 15.1123 25.1828 14.7339 25.1828 14.2578L25.1828 9.92432C25.1828 8.83789 25.0363 8.17871 24.3649 7.44629L23.7179 6.73828L23.0343 4.78516C22.6559 3.72314 21.9479 3.28369 21.0446 3.17383C20.6051 3.125 19.1891 3.08838 17.5167 3.08838C15.8444 3.08838 14.4162 3.125 13.9889 3.17383C13.0856 3.28369 12.3654 3.72314 11.9992 4.78516L11.3156 6.73828L10.6686 7.44629C9.99721 8.17871 9.85072 8.83789 9.85072 9.92432ZM13.0978 6.7749C12.7804 6.7749 12.6828 6.54297 12.7804 6.26221L13.1832 5.05371C13.3297 4.60205 13.5617 4.45557 13.9523 4.40674C14.4039 4.3457 15.6613 4.29688 17.5167 4.29688C19.3722 4.29688 20.6173 4.3457 21.069 4.40674C21.4596 4.45557 21.6915 4.60205 21.8502 5.05371L22.2531 6.26221C22.3507 6.54297 22.2409 6.7749 21.9235 6.7749ZM12.1945 10.8276C11.7916 10.8276 11.4987 10.5347 11.4987 10.1318L11.4987 9.11865C11.4987 8.72803 11.7916 8.43506 12.1945 8.43506C12.5851 8.43506 12.8781 8.71582 12.8781 9.11865L12.8781 10.1318C12.8781 10.5347 12.5851 10.8276 12.1945 10.8276ZM16.0397 10.5103C15.7223 10.5103 15.5148 10.3027 15.5148 9.96094L15.5148 9.30176C15.5148 8.95996 15.7223 8.75244 16.0397 8.75244L18.9694 8.75244C19.2868 8.75244 19.4943 8.95996 19.4943 9.30176L19.4943 9.96094C19.4943 10.3027 19.2868 10.5103 18.9694 10.5103ZM22.9 10.8276C22.5094 10.8276 22.2164 10.5225 22.2164 10.1318L22.2164 9.11865C22.2164 8.72803 22.5094 8.43506 22.9 8.43506C23.3029 8.43506 23.5958 8.71582 23.5958 9.11865L23.5958 10.1318C23.5958 10.5347 23.3029 10.8276 22.9 10.8276Z" fill="#5ac8f5"/>
 </g>
</svg>
