<?xml version="1.0" encoding="UTF-8"?>
<!--Generator: Apple Native CoreSVG 175.5-->
<!DOCTYPE svg
PUBLIC "-//W3C//DTD SVG 1.1//EN"
       "http://www.w3.org/Graphics/SVG/1.1/DTD/svg11.dtd">
<svg version="1.1" xmlns="http://www.w3.org/2000/svg" xmlns:xlink="http://www.w3.org/1999/xlink" width="20.5322" height="26.1841">
 <g>
  <rect height="26.1841" opacity="0" width="20.5322" x="0" y="0"/>
  <path d="M3.78418 26.1719L16.748 26.1719C19.2749 26.1719 20.5322 24.8901 20.5322 22.3511L20.5322 11.2671L11.6943 11.2671C10.1318 11.2671 9.38721 10.5225 9.38721 8.95996L9.38721 0L3.78418 0C1.26953 0 0 1.29395 0 3.83301L0 22.3511C0 24.9023 1.25732 26.1719 3.78418 26.1719ZM11.731 9.59473L20.3857 9.59473C20.3125 9.09424 19.9585 8.60596 19.3726 8.00781L12.6465 1.15967C12.0728 0.57373 11.5723 0.219727 11.0596 0.134277L11.0596 8.93555C11.0596 9.375 11.2793 9.59473 11.731 9.59473Z" fill="#5ac8f5" fill-opacity="0.25"/>
  <path d="M6.54297 22.4487L6.54297 18.335C6.54297 17.6025 6.83594 17.2485 7.44629 17.2119L7.44629 15.979C7.44629 14.0869 8.59375 12.8174 10.2783 12.8174C11.9629 12.8174 13.1104 14.0869 13.1104 15.979L13.1104 17.2119C13.7207 17.2485 14.0259 17.6025 14.0259 18.335L14.0259 22.4487C14.0259 23.23 13.6841 23.5962 12.9517 23.5962L7.60498 23.5962C6.88477 23.5962 6.54297 23.23 6.54297 22.4487ZM8.53271 17.1997L12.0239 17.1997L12.0239 15.8691C12.0239 14.6606 11.3281 13.855 10.2783 13.855C9.22852 13.855 8.53271 14.6606 8.53271 15.8691Z" fill="#5ac8f5"/>
 </g>
</svg>
