<?xml version="1.0" encoding="UTF-8"?>
<!--Generator: Apple Native CoreSVG 175.5-->
<!DOCTYPE svg
PUBLIC "-//W3C//DTD SVG 1.1//EN"
       "http://www.w3.org/Graphics/SVG/1.1/DTD/svg11.dtd">
<svg version="1.1" xmlns="http://www.w3.org/2000/svg" xmlns:xlink="http://www.w3.org/1999/xlink" width="28.7842" height="22.4731">
 <g>
  <rect height="22.4731" opacity="0" width="28.7842" x="0" y="0"/>
  <path d="M3.83301 22.4731L24.9512 22.4731C27.5146 22.4731 28.7842 21.2158 28.7842 18.7012L28.7842 3.78418C28.7842 1.26953 27.5146 0 24.9512 0L3.83301 0C1.28174 0 0 1.26953 0 3.78418L0 18.7012C0 21.2158 1.28174 22.4731 3.83301 22.4731ZM3.85742 20.5078C2.63672 20.5078 1.96533 19.8608 1.96533 18.5913L1.96533 3.89404C1.96533 2.62451 2.63672 1.96533 3.85742 1.96533L24.9268 1.96533C26.1353 1.96533 26.8188 2.62451 26.8188 3.89404L26.8188 18.5913C26.8188 19.8608 26.1353 20.5078 24.9268 20.5078Z" fill="#5ac8f5" fill-opacity="0.5"/>
  <path d="M17.2729 7.21436L23.938 7.21436C24.3652 7.21436 24.6948 6.88477 24.6948 6.45752C24.6948 6.04248 24.3652 5.71289 23.938 5.71289L17.2729 5.71289C16.8335 5.71289 16.5039 6.04248 16.5039 6.45752C16.5039 6.88477 16.8335 7.21436 17.2729 7.21436ZM17.2729 11.9995L23.938 11.9995C24.3652 11.9995 24.6948 11.6577 24.6948 11.2305C24.6948 10.8154 24.3652 10.498 23.938 10.498L17.2729 10.498C16.8335 10.498 16.5039 10.8154 16.5039 11.2305C16.5039 11.6577 16.8335 11.9995 17.2729 11.9995ZM17.2729 16.7725L23.938 16.7725C24.3652 16.7725 24.6948 16.4551 24.6948 16.04C24.6948 15.6128 24.3652 15.271 23.938 15.271L17.2729 15.271C16.8335 15.271 16.5039 15.6128 16.5039 16.04C16.5039 16.4551 16.8335 16.7725 17.2729 16.7725ZM4.55322 16.7725L14.0869 16.7725C14.4897 16.7725 14.6851 16.5039 14.6851 16.1377C14.6851 14.9902 12.9639 12.0361 9.31396 12.0361C5.66406 12.0361 3.95508 14.9902 3.95508 16.1377C3.95508 16.5039 4.15039 16.7725 4.55322 16.7725ZM9.31396 11.1816C10.8032 11.1938 11.9873 9.93652 11.9873 8.26416C11.9873 6.70166 10.8032 5.40771 9.31396 5.40771C7.83691 5.40771 6.64062 6.70166 6.64062 8.26416C6.64062 9.93652 7.83691 11.1816 9.31396 11.1816Z" fill="#5ac8f5"/>
 </g>
</svg>
