<?xml version="1.0" encoding="UTF-8"?>
<!--Generator: Apple Native CoreSVG 175.5-->
<!DOCTYPE svg
PUBLIC "-//W3C//DTD SVG 1.1//EN"
       "http://www.w3.org/Graphics/SVG/1.1/DTD/svg11.dtd">
<svg version="1.1" xmlns="http://www.w3.org/2000/svg" xmlns:xlink="http://www.w3.org/1999/xlink" width="24.9023" height="24.9146">
 <g>
  <rect height="24.9146" opacity="0" width="24.9023" x="0" y="0"/>
  <path d="M12.4512 24.9146C19.2627 24.9146 24.9023 19.2749 24.9023 12.4634C24.9023 5.66406 19.2505 0.012207 12.439 0.012207C5.63965 0.012207 0 5.66406 0 12.4634C0 19.2749 5.65186 24.9146 12.4512 24.9146Z" fill="#5ac8f5" fill-opacity="0.25"/>
  <path d="M4.8584 15.7104C4.74854 14.502 5.29785 13.208 6.15234 12.4634C5.29785 11.6821 4.72412 10.4004 4.8584 9.19189C4.87061 8.97217 5.0293 8.8501 5.27344 8.8501C6.65283 8.8501 7.80029 9.52148 8.80127 10.7056C9.61914 9.8877 10.5225 9.33838 11.4868 8.98438C11.3892 8.41064 11.1938 7.99561 10.6812 7.31201C10.4736 7.04346 10.498 6.83594 10.7422 6.71387C13.0249 5.45654 16.2354 6.57959 16.9556 9.00879C18.9453 9.69238 20.7031 10.9497 20.7031 12.4634C20.7031 14.0381 18.7988 15.332 16.7114 15.979C15.8813 17.1875 14.2944 18.2007 12.8662 18.4326C12.3779 18.5059 12.146 18.2739 12.1948 17.8467L12.4023 16.2109C11.1084 15.918 9.87549 15.2832 8.80127 14.2212C7.80029 15.4053 6.65283 16.04 5.27344 16.0645C5.0293 16.0645 4.87061 15.9546 4.8584 15.7104ZM17.6758 12.8784C18.0542 12.8784 18.3472 12.5977 18.3472 12.207C18.3472 11.8286 18.0542 11.5356 17.6758 11.5356C17.2974 11.5356 17.0044 11.8286 17.0044 12.207C17.0044 12.5977 17.2974 12.8784 17.6758 12.8784Z" fill="#5ac8f5"/>
 </g>
</svg>
