<?xml version="1.0" encoding="UTF-8"?>
<!--Generator: Apple Native CoreSVG 175.5-->
<!DOCTYPE svg
PUBLIC "-//W3C//DTD SVG 1.1//EN"
       "http://www.w3.org/Graphics/SVG/1.1/DTD/svg11.dtd">
<svg version="1.1" xmlns="http://www.w3.org/2000/svg" xmlns:xlink="http://www.w3.org/1999/xlink" width="29.5166" height="22.4976">
 <g>
  <rect height="22.4976" opacity="0" width="29.5166" x="0" y="0"/>
  <path d="M10.498 22.4976L19.0308 22.4976C26.2939 22.4976 29.5166 19.165 29.5166 12.3169L29.5166 3.80859C29.5166 1.29395 28.2349 0.0244141 25.6836 0.0244141L3.83301 0.0244141C1.28174 0.0244141 0 1.28174 0 3.80859L0 12.3169C0 19.165 3.22266 22.4976 10.498 22.4976Z" fill="#5ac8f5" fill-opacity="0.25"/>
  <path d="M11.5356 17.0532C10.8887 17.0532 10.5469 16.6016 10.5469 15.918L10.5469 6.56738C10.5469 5.896 10.8887 5.41992 11.5234 5.41992L15.1489 5.41992C17.7002 5.41992 19.3237 6.87256 19.3237 9.13086C19.3237 10.7056 18.3594 12.0239 16.8945 12.5122L18.7744 15.4541C18.9331 15.7104 18.9941 15.9058 18.9941 16.1865C18.9941 16.6992 18.6157 17.0532 18.0786 17.0532C17.627 17.0532 17.3828 16.8701 17.0776 16.394L14.8926 12.8052L12.5488 12.8052L12.5488 15.918C12.5488 16.626 12.1948 17.0532 11.5356 17.0532ZM12.5488 11.3281L14.856 11.3281C16.3696 11.3281 17.3218 10.5591 17.3218 9.17969C17.3218 7.77588 16.3452 6.97021 14.9048 6.97021L12.5488 6.97021Z" fill="#5ac8f5"/>
 </g>
</svg>
