<?xml version="1.0" encoding="UTF-8"?>
<!--Generator: Apple Native CoreSVG 175.5-->
<!DOCTYPE svg
PUBLIC "-//W3C//DTD SVG 1.1//EN"
       "http://www.w3.org/Graphics/SVG/1.1/DTD/svg11.dtd">
<svg version="1.1" xmlns="http://www.w3.org/2000/svg" xmlns:xlink="http://www.w3.org/1999/xlink" width="24.9023" height="24.9146">
 <g>
  <rect height="24.9146" opacity="0" width="24.9023" x="0" y="0"/>
  <path d="M12.4512 24.9023C19.2627 24.9023 24.9023 19.2505 24.9023 12.4512C24.9023 5.63965 19.2505 0 12.439 0C5.63965 0 0 5.63965 0 12.4512C0 19.2505 5.65186 24.9023 12.4512 24.9023ZM12.4512 22.8271C6.68945 22.8271 2.0874 18.2129 2.0874 12.4512C2.0874 6.68945 6.67725 2.0752 12.439 2.0752C18.2007 2.0752 22.8271 6.68945 22.8271 12.4512C22.8271 18.2129 18.2129 22.8271 12.4512 22.8271ZM8.59375 6.38428C7.06787 6.38428 6.27441 7.17773 6.27441 8.6792L6.27441 10.3027C6.27441 10.8276 6.62842 11.1938 7.15332 11.1938C7.69043 11.1938 8.03223 10.8398 8.03223 10.3027L8.03223 8.97217C8.03223 8.41064 8.28857 8.14209 8.8501 8.14209L10.2051 8.14209C10.7422 8.14209 11.0962 7.78809 11.0962 7.27539C11.0962 6.73828 10.7422 6.38428 10.2051 6.38428ZM16.1011 6.38428L14.4897 6.38428C13.9526 6.38428 13.5986 6.73828 13.5986 7.27539C13.5986 7.78809 13.9526 8.14209 14.4897 8.14209L15.8447 8.14209C16.4062 8.14209 16.6626 8.41064 16.6626 8.97217L16.6626 10.3027C16.6626 10.8398 17.0044 11.1938 17.5415 11.1938C18.0664 11.1938 18.4204 10.8276 18.4204 10.3027L18.4204 8.6792C18.4204 7.17773 17.627 6.38428 16.1011 6.38428ZM8.59375 18.5425L10.2051 18.5425C10.7422 18.5425 11.0962 18.1763 11.0962 17.6514C11.0962 17.1387 10.7422 16.7725 10.2051 16.7725L8.8501 16.7725C8.28857 16.7725 8.03223 16.5161 8.03223 15.9424L8.03223 14.624C8.03223 14.0747 7.69043 13.7329 7.15332 13.7329C6.62842 13.7329 6.27441 14.0869 6.27441 14.624L6.27441 16.2476C6.27441 17.749 7.06787 18.5425 8.59375 18.5425ZM16.1011 18.5425C17.627 18.5425 18.4204 17.749 18.4204 16.2476L18.4204 14.624C18.4204 14.0869 18.0664 13.7329 17.5415 13.7329C17.0044 13.7329 16.6626 14.0747 16.6626 14.624L16.6626 15.9424C16.6626 16.5161 16.4062 16.7725 15.8447 16.7725L14.4897 16.7725C13.9526 16.7725 13.5986 17.1387 13.5986 17.6514C13.5986 18.1763 13.9526 18.5425 14.4897 18.5425Z" fill="#5ac8f5"/>
 </g>
</svg>
