<?xml version="1.0" encoding="UTF-8"?>
<!--Generator: Apple Native CoreSVG 175.5-->
<!DOCTYPE svg
PUBLIC "-//W3C//DTD SVG 1.1//EN"
       "http://www.w3.org/Graphics/SVG/1.1/DTD/svg11.dtd">
<svg version="1.1" xmlns="http://www.w3.org/2000/svg" xmlns:xlink="http://www.w3.org/1999/xlink" width="29.895" height="14.5386">
 <g>
  <rect height="14.5386" opacity="0" width="29.895" x="0" y="0"/>
  <path d="M23.999 10.3516C23.1445 10.3638 22.3999 9.60693 22.3999 8.74023C22.3999 7.86133 23.1445 7.1167 23.999 7.1167C24.8657 7.1167 25.5981 7.86133 25.5981 8.74023C25.5981 9.60693 24.8657 10.3271 23.999 10.3516ZM3.83301 14.4043L26.062 14.4043C28.6133 14.4043 29.895 13.1348 29.895 10.6201L29.895 3.77197C29.895 1.26953 28.6133 0 26.062 0L3.83301 0C1.26953 0 0 1.25732 0 3.77197L0 10.6201C0 13.147 1.26953 14.4043 3.83301 14.4043Z" fill="#5ac8f5"/>
 </g>
</svg>
