<?xml version="1.0" encoding="UTF-8"?>
<!--Generator: Apple Native CoreSVG 175.5-->
<!DOCTYPE svg
PUBLIC "-//W3C//DTD SVG 1.1//EN"
       "http://www.w3.org/Graphics/SVG/1.1/DTD/svg11.dtd">
<svg version="1.1" xmlns="http://www.w3.org/2000/svg" xmlns:xlink="http://www.w3.org/1999/xlink" width="22.4731" height="22.4976">
 <g>
  <rect height="22.4976" opacity="0" width="22.4731" x="0" y="0"/>
  <path d="M3.83301 22.4976L18.6401 22.4976C21.2036 22.4976 22.4731 21.228 22.4731 18.7134L22.4731 3.80859C22.4731 1.29395 21.2036 0.0244141 18.6401 0.0244141L3.83301 0.0244141C1.28174 0.0244141 0 1.28174 0 3.80859L0 18.7134C0 21.2402 1.28174 22.4976 3.83301 22.4976ZM9.0332 17.5537C8.55713 17.5537 8.20312 17.2363 8.20312 16.748L8.20312 15.4175L7.18994 15.4175C6.82373 15.4175 6.5918 15.1367 6.5918 14.7827C6.5918 14.4287 6.82373 14.1602 7.18994 14.1602L8.20312 14.1602L8.20312 6.37207C8.20312 5.85938 8.52051 5.52979 9.021 5.52979L14.5142 5.52979C14.9536 5.52979 15.2954 5.82275 15.2954 6.29883C15.2954 6.75049 14.9536 7.05566 14.5142 7.05566L9.85107 7.05566L9.85107 10.6079L14.0503 10.6079C14.502 10.6079 14.8315 10.9009 14.8315 11.3647C14.8315 11.8164 14.502 12.1216 14.0503 12.1216L9.85107 12.1216L9.85107 14.1602L12.439 14.1602C12.8052 14.1602 13.0615 14.4287 13.0615 14.7827C13.0615 15.1367 12.8052 15.4175 12.439 15.4175L9.85107 15.4175L9.85107 16.7358C9.85107 17.2119 9.52148 17.5537 9.0332 17.5537Z" fill="#5ac8f5"/>
 </g>
</svg>
