<?xml version="1.0" encoding="UTF-8"?>
<!--Generator: Apple Native CoreSVG 175.5-->
<!DOCTYPE svg
PUBLIC "-//W3C//DTD SVG 1.1//EN"
       "http://www.w3.org/Graphics/SVG/1.1/DTD/svg11.dtd">
<svg version="1.1" xmlns="http://www.w3.org/2000/svg" xmlns:xlink="http://www.w3.org/1999/xlink" width="20.9961" height="25.7446">
 <g>
  <rect height="25.7446" opacity="0" width="20.9961" x="0" y="0"/>
  <path d="M0 19.9707C0 23.3398 4.23584 25.7202 10.498 25.7202C16.7603 25.7202 20.9961 23.3398 20.9961 19.9707L20.9961 5.2002C20.9961 2.12402 16.7969 0 10.498 0C4.19922 0 0 2.12402 0 5.2002ZM1.96533 5.2002C1.96533 3.14941 5.3833 1.72119 10.498 1.72119C15.6128 1.72119 19.0308 3.14941 19.0308 5.2002C19.0308 7.16553 15.5884 8.54492 10.498 8.54492C5.40771 8.54492 1.96533 7.16553 1.96533 5.2002Z" fill="#5ac8f5"/>
 </g>
</svg>
