<?xml version="1.0" encoding="UTF-8"?>
<!--Generator: Apple Native CoreSVG 175.5-->
<!DOCTYPE svg
PUBLIC "-//W3C//DTD SVG 1.1//EN"
       "http://www.w3.org/Graphics/SVG/1.1/DTD/svg11.dtd">
<svg version="1.1" xmlns="http://www.w3.org/2000/svg" xmlns:xlink="http://www.w3.org/1999/xlink" width="24.9023" height="24.9146">
 <g>
  <rect height="24.9146" opacity="0" width="24.9023" x="0" y="0"/>
  <path d="M12.4512 24.9023C19.2627 24.9023 24.9023 19.2505 24.9023 12.4512C24.9023 5.63965 19.2505 0 12.439 0C5.63965 0 0 5.63965 0 12.4512C0 19.2505 5.65186 24.9023 12.4512 24.9023ZM5.99365 12.439C5.99365 12.1582 6.09131 11.9629 6.34766 11.7065L10.5957 7.43408C10.7666 7.26318 10.9863 7.17773 11.2549 7.17773C11.7798 7.17773 12.1704 7.56836 12.1704 8.09326C12.1704 8.36182 12.0483 8.59375 11.8896 8.77686L10.3271 10.3271L8.81348 11.5967L11.4746 11.4868L18.0054 11.4868C18.5547 11.4868 18.9575 11.8774 18.9575 12.439C18.9575 12.9883 18.5669 13.3789 18.0054 13.3789L11.4746 13.3789L8.80127 13.2812L10.3271 14.5508L11.8896 16.1011C12.0605 16.272 12.1704 16.5039 12.1704 16.7725C12.1704 17.2974 11.7798 17.7002 11.2549 17.7002C10.9863 17.7002 10.7666 17.6025 10.5957 17.4316L6.34766 13.1714C6.11572 12.9395 5.99365 12.7197 5.99365 12.439Z" fill="#5ac8f5"/>
 </g>
</svg>
