<?xml version="1.0" encoding="UTF-8"?>
<!--Generator: Apple Native CoreSVG 175.5-->
<!DOCTYPE svg
PUBLIC "-//W3C//DTD SVG 1.1//EN"
       "http://www.w3.org/Graphics/SVG/1.1/DTD/svg11.dtd">
<svg version="1.1" xmlns="http://www.w3.org/2000/svg" xmlns:xlink="http://www.w3.org/1999/xlink" width="22.9492" height="18.103">
 <g>
  <rect height="18.103" opacity="0" width="22.9492" x="0" y="0"/>
  <path d="M6.22559 18.042C6.89697 18.042 7.33643 17.6025 7.33643 16.9312L7.33643 1.33057C7.33643 0.537109 6.83594 0.0976562 6.0791 0.0976562C5.51758 0.0976562 5.2124 0.268555 4.69971 0.598145L0.634766 3.23486C0.158691 3.55225 0 3.83301 0 4.23584C0 4.73633 0.366211 5.10254 0.90332 5.10254C1.23291 5.10254 1.3916 5.00488 1.61133 4.8584L5.09033 2.67334L5.13916 2.67334L5.13916 16.9312C5.13916 17.6025 5.5542 18.042 6.22559 18.042ZM11.792 17.7979L21.936 17.7979C22.5464 17.7979 22.9492 17.4072 22.9492 16.8213C22.9492 16.2354 22.5464 15.8325 21.936 15.8325L13.8062 15.8325L13.8062 15.7715L18.5791 11.0962C21.46 8.27637 22.3389 6.81152 22.3389 4.94385C22.3389 2.13623 19.8608 0 16.5527 0C13.9526 0 11.731 1.41602 10.9863 3.56445C10.8398 3.96729 10.7788 4.32129 10.7788 4.62646C10.7788 5.23682 11.145 5.63965 11.7432 5.63965C12.3169 5.63965 12.561 5.37109 12.7441 4.76074C12.8418 4.38232 12.9761 4.02832 13.1714 3.72314C13.8184 2.62451 15.0269 1.94092 16.5527 1.94092C18.5181 1.94092 20.105 3.33252 20.105 5.06592C20.105 6.46973 19.519 7.40967 17.1143 9.80225L11.4014 15.5151C10.8887 16.0156 10.7178 16.333 10.7178 16.7725C10.7178 17.4072 11.145 17.7979 11.792 17.7979Z" fill="#5ac8f5"/>
 </g>
</svg>
