<?xml version="1.0" encoding="UTF-8"?>
<!--Generator: Apple Native CoreSVG 175.5-->
<!DOCTYPE svg
PUBLIC "-//W3C//DTD SVG 1.1//EN"
       "http://www.w3.org/Graphics/SVG/1.1/DTD/svg11.dtd">
<svg version="1.1" xmlns="http://www.w3.org/2000/svg" xmlns:xlink="http://www.w3.org/1999/xlink" width="27.6842" height="27.701">
 <g>
  <rect height="27.701" opacity="0" width="27.6842" x="0" y="0"/>
  <path d="M26.3154 16.5422C28.122 14.7355 28.1464 12.9533 26.352 11.1588L16.5131 1.33219C14.7187-0.462244 12.9365-0.43783 11.1298 1.36881L1.3642 11.1344C-0.442443 12.9411-0.45465 14.7355 1.32758 16.5177L11.1542 26.3566C12.9487 28.1388 14.7309 28.1266 16.5375 26.32ZM13.852 2.12565L13.852 25.5631C13.3881 25.5631 12.9365 25.3434 12.4848 24.8918L2.79242 15.1994C1.8891 14.2961 1.91351 13.3683 2.78021 12.5016L12.497 2.78483C12.9365 2.34537 13.3881 2.11344 13.852 2.12565Z" fill="#5ac8f5"/>
 </g>
</svg>
