<?xml version="1.0" encoding="UTF-8"?>
<!--Generator: Apple Native CoreSVG 175.5-->
<!DOCTYPE svg
PUBLIC "-//W3C//DTD SVG 1.1//EN"
       "http://www.w3.org/Graphics/SVG/1.1/DTD/svg11.dtd">
<svg version="1.1" xmlns="http://www.w3.org/2000/svg" xmlns:xlink="http://www.w3.org/1999/xlink" width="25.1953" height="23.3521">
 <g>
  <rect height="23.3521" opacity="0" width="25.1953" x="0" y="0"/>
  <path d="M8.11768 7.2876C10.1196 7.2876 11.7676 5.62744 11.7676 3.6499C11.7676 1.66016 10.1196 0 8.11768 0C6.12793 0 4.47998 1.66016 4.47998 3.6499C4.47998 5.61523 6.11572 7.2876 8.11768 7.2876ZM17.0776 7.2876C19.0674 7.2876 20.7153 5.62744 20.7153 3.6499C20.7153 1.66016 19.0674 0 17.0776 0C15.0757 0 13.4277 1.66016 13.4277 3.6499C13.4277 5.62744 15.0757 7.2876 17.0776 7.2876ZM3.6499 15.3198C5.63965 15.3198 7.2998 13.6597 7.2998 11.6699C7.2998 9.68018 5.63965 8.02002 3.6499 8.02002C1.66016 8.02002 0 9.68018 0 11.6699C0 13.6475 1.63574 15.3198 3.6499 15.3198ZM12.5977 15.3198C14.5874 15.3198 16.2476 13.6597 16.2476 11.6699C16.2476 9.68018 14.5874 8.02002 12.5977 8.02002C10.6079 8.02002 8.94775 9.68018 8.94775 11.6699C8.94775 13.6597 10.6079 15.3198 12.5977 15.3198ZM21.5454 15.3198C23.5352 15.3198 25.1953 13.6597 25.1953 11.6699C25.1953 9.68018 23.5352 8.02002 21.5454 8.02002C19.5557 8.02002 17.8955 9.68018 17.8955 11.6699C17.8955 13.6597 19.5557 15.3198 21.5454 15.3198ZM8.11768 23.3276C10.1196 23.3276 11.7676 21.6797 11.7676 19.6899C11.7676 17.7002 10.1196 16.0522 8.11768 16.0522C6.12793 16.0522 4.47998 17.7002 4.47998 19.6899C4.47998 21.6675 6.11572 23.3276 8.11768 23.3276ZM17.0776 23.3276C19.0674 23.3276 20.7153 21.6797 20.7153 19.6899C20.7153 17.7002 19.0674 16.0522 17.0776 16.0522C15.0757 16.0522 13.4277 17.7002 13.4277 19.6899C13.4277 21.6797 15.0757 23.3276 17.0776 23.3276Z" fill="#5ac8f5"/>
 </g>
</svg>
