<?xml version="1.0" encoding="UTF-8"?>
<!--Generator: Apple Native CoreSVG 175.5-->
<!DOCTYPE svg
PUBLIC "-//W3C//DTD SVG 1.1//EN"
       "http://www.w3.org/Graphics/SVG/1.1/DTD/svg11.dtd">
<svg version="1.1" xmlns="http://www.w3.org/2000/svg" xmlns:xlink="http://www.w3.org/1999/xlink" width="30.9937" height="37.262">
 <g>
  <rect height="37.262" opacity="0" width="30.9937" x="0" y="0"/>
  <path d="M15.4907 34.1156C24.0479 34.1156 30.9937 27.182 30.9937 18.6249C30.9937 11.8134 26.5869 6.01501 20.459 3.95203C20.5566 4.64783 20.3735 5.34363 19.9463 5.85632C25.2319 7.69958 29.0283 12.7167 29.0283 18.6249C29.0283 26.0956 22.9614 32.1503 15.4907 32.1503C8.02002 32.1503 1.96533 26.0956 1.96533 18.6249C1.96533 12.7045 5.77393 7.68738 11.0596 5.85632C10.6445 5.33142 10.4492 4.63562 10.5469 3.93982C4.41895 5.9906 0 11.8011 0 18.6249C0 27.182 6.93359 34.1156 15.4907 34.1156Z" fill="#5ac8f5" fill-opacity="0.5"/>
  <path d="M15.4907 29.3427C21.4233 29.3427 26.2207 24.5453 26.2207 18.6249C26.2207 12.7045 21.4233 7.8949 15.4907 7.8949C9.57031 7.8949 4.77295 12.7045 4.77295 18.6249C4.77295 24.5453 9.57031 29.3427 15.4907 29.3427ZM12.4268 3.61023C11.9263 4.28162 12.2192 5.09949 13.0615 5.09949L17.9443 5.09949C18.8232 5.09949 19.0796 4.2572 18.5913 3.61023L16.1499 0.338745C15.8081-0.112915 15.1855-0.112915 14.856 0.338745ZM12.4146 24.1058C11.8042 24.1058 11.4746 23.6786 11.4746 23.0316L11.4746 14.1571C11.4746 13.4979 11.8042 13.0585 12.4023 13.0585L15.8569 13.0585C18.2739 13.0585 19.812 14.4379 19.812 16.5863C19.812 18.0756 18.9087 19.3207 17.5171 19.7845L19.2993 22.5922C19.4458 22.8363 19.5068 23.0194 19.5068 23.288C19.5068 23.7762 19.1528 24.1058 18.6401 24.1058C18.2129 24.1058 17.9688 23.9349 17.688 23.4833L15.6128 20.0653L13.3911 20.0653L13.3911 23.0316C13.3911 23.703 13.0493 24.1058 12.4146 24.1058ZM13.3911 18.6615L15.5762 18.6615C17.0044 18.6615 17.9199 17.9291 17.9199 16.6351C17.9199 15.2924 16.9922 14.5355 15.6128 14.5355L13.3911 14.5355Z" fill="#5ac8f5"/>
 </g>
</svg>
