<?xml version="1.0" encoding="UTF-8"?>
<!--Generator: Apple Native CoreSVG 175.5-->
<!DOCTYPE svg
PUBLIC "-//W3C//DTD SVG 1.1//EN"
       "http://www.w3.org/Graphics/SVG/1.1/DTD/svg11.dtd">
<svg version="1.1" xmlns="http://www.w3.org/2000/svg" xmlns:xlink="http://www.w3.org/1999/xlink" width="28.7842" height="22.4731">
 <g>
  <rect height="22.4731" opacity="0" width="28.7842" x="0" y="0"/>
  <path d="M3.83301 22.4731L24.9512 22.4731C27.5146 22.4731 28.7842 21.2158 28.7842 18.7012L28.7842 3.78418C28.7842 1.26953 27.5146 0 24.9512 0L3.83301 0C1.28174 0 0 1.26953 0 3.78418L0 18.7012C0 21.2158 1.28174 22.4731 3.83301 22.4731ZM3.85742 20.5078C2.63672 20.5078 1.96533 19.8608 1.96533 18.5913L1.96533 3.89404C1.96533 2.62451 2.63672 1.96533 3.85742 1.96533L24.9268 1.96533C26.1353 1.96533 26.8188 2.62451 26.8188 3.89404L26.8188 18.5913C26.8188 19.8608 26.1353 20.5078 24.9268 20.5078ZM7.18994 16.2231C7.72705 16.2231 8.03223 15.8813 8.03223 15.3076L8.03223 7.06787C8.03223 6.46973 7.70264 6.14014 7.15332 6.14014C6.75049 6.14014 6.49414 6.23779 6.04248 6.55518L4.08936 7.87354C3.85742 8.03223 3.77197 8.20312 3.77197 8.44727C3.77197 8.77686 4.04053 9.05762 4.3457 9.05762C4.50439 9.05762 4.62646 9.0332 4.88281 8.8501L6.27441 7.93457L6.38428 7.93457L6.38428 15.3076C6.38428 15.8691 6.68945 16.2231 7.18994 16.2231ZM10.6689 16.0767L16.1499 16.0767C16.5649 16.0767 16.8579 15.7715 16.8579 15.3564C16.8579 14.9414 16.5649 14.6606 16.1499 14.6606L12.2437 14.6606L12.2437 14.6118L14.7705 11.9019C15.7227 10.8765 16.394 10.0342 16.394 8.8623C16.394 7.21436 15.0879 6.12793 13.1104 6.12793C11.6089 6.12793 10.2539 7.04346 9.91211 8.27637C9.87549 8.44727 9.85107 8.55713 9.85107 8.70361C9.85107 9.11865 10.1196 9.39941 10.5591 9.39941C10.9375 9.39941 11.145 9.16748 11.3281 8.8623C11.5845 8.20312 12.1582 7.51953 13.1836 7.51953C14.1846 7.51953 14.856 8.10547 14.856 8.98438C14.856 9.74121 14.2212 10.4004 13.5986 11.0596L10.1807 14.7339C9.99756 14.917 9.8999 15.1123 9.8999 15.3687C9.8999 15.7959 10.2051 16.0767 10.6689 16.0767ZM21.2402 16.2354C23.4375 16.2354 24.9146 15.0879 24.9146 13.3545C24.9146 12.0972 23.9746 11.1084 22.6929 10.9741L22.6929 10.9497C23.7549 10.7788 24.5728 9.80225 24.5728 8.6792C24.5728 7.18994 23.2178 6.11572 21.3257 6.11572C19.6045 6.11572 18.2983 6.9458 18.0054 8.20312C17.981 8.36182 17.9688 8.45947 17.9688 8.63037C17.9688 9.0332 18.2617 9.32617 18.7012 9.32617C19.0796 9.32617 19.3115 9.15527 19.4336 8.77686C19.6655 7.95898 20.3613 7.49512 21.3013 7.49512C22.3389 7.49512 22.998 8.02002 22.998 8.8623C22.998 9.729 22.2534 10.3638 21.2524 10.3638L20.5811 10.3638C20.2026 10.3638 19.9219 10.6323 19.9219 11.0229C19.9219 11.4136 20.2026 11.6943 20.5811 11.6943L21.3257 11.6943C22.5098 11.6943 23.3276 12.3291 23.3276 13.2935C23.3276 14.2334 22.4976 14.8682 21.2646 14.8682C20.2515 14.8682 19.5312 14.4043 19.2505 13.5742C19.0918 13.208 18.8721 13.0371 18.5059 13.0371C18.0542 13.0371 17.7734 13.3423 17.7734 13.7695C17.7734 13.916 17.7856 13.9893 17.8101 14.1357C18.0786 15.3687 19.519 16.2354 21.2402 16.2354Z" fill="#5ac8f5"/>
 </g>
</svg>
