<?xml version="1.0" encoding="UTF-8"?>
<!--Generator: Apple Native CoreSVG 175.5-->
<!DOCTYPE svg
PUBLIC "-//W3C//DTD SVG 1.1//EN"
       "http://www.w3.org/Graphics/SVG/1.1/DTD/svg11.dtd">
<svg version="1.1" xmlns="http://www.w3.org/2000/svg" xmlns:xlink="http://www.w3.org/1999/xlink" width="23.2422" height="22.4976">
 <g>
  <rect height="22.4976" opacity="0" width="23.2422" x="0" y="0"/>
  <path d="M3.83301 22.4976L19.4092 22.4976C21.9604 22.4976 23.2422 21.228 23.2422 18.7134L23.2422 3.80859C23.2422 1.29395 21.9604 0.0244141 19.4092 0.0244141L3.83301 0.0244141C1.28174 0.0244141 0 1.28174 0 3.80859L0 18.7134C0 21.2402 1.28174 22.4976 3.83301 22.4976ZM3.85742 20.5322C2.63672 20.5322 1.96533 19.8853 1.96533 18.6157L1.96533 3.90625C1.96533 2.63672 2.63672 1.98975 3.85742 1.98975L19.3726 1.98975C20.5811 1.98975 21.2769 2.63672 21.2769 3.90625L21.2769 18.6157C21.2769 19.8853 20.5811 20.5322 19.3726 20.5322ZM11.6211 9.76562C12.8784 9.76562 13.8916 8.75244 13.8916 7.49512C13.8916 6.23779 12.8784 5.22461 11.6211 5.22461C10.3638 5.22461 9.35059 6.23779 9.35059 7.49512C9.35059 8.75244 10.3638 9.76562 11.6211 9.76562ZM7.44629 17.2729C8.44727 17.2729 9.26514 16.4551 9.26514 15.4297C9.26514 14.4287 8.44727 13.6108 7.44629 13.6108C6.4209 13.6108 5.60303 14.4287 5.60303 15.4297C5.60303 16.4551 6.4209 17.2729 7.44629 17.2729ZM15.8081 17.2729C16.8091 17.2729 17.6392 16.4551 17.6392 15.4297C17.6392 14.4287 16.8091 13.6108 15.8081 13.6108C14.7949 13.6108 13.9771 14.4287 13.9771 15.4297C13.9771 16.4551 14.7949 17.2729 15.8081 17.2729Z" fill="#5ac8f5"/>
 </g>
</svg>
