<?xml version="1.0" encoding="UTF-8"?>
<!--Generator: Apple Native CoreSVG 175.5-->
<!DOCTYPE svg
PUBLIC "-//W3C//DTD SVG 1.1//EN"
       "http://www.w3.org/Graphics/SVG/1.1/DTD/svg11.dtd">
<svg version="1.1" xmlns="http://www.w3.org/2000/svg" xmlns:xlink="http://www.w3.org/1999/xlink" width="30.9326" height="20.6177">
 <g>
  <rect height="20.6177" opacity="0" width="30.9326" x="0" y="0"/>
  <path d="M1.0376 20.5933L1.77002 20.5933C2.39258 20.5933 2.80762 20.1904 2.80762 19.5557L2.80762 17.749C2.94189 17.7856 3.34473 17.8101 3.6377 17.8101L27.2949 17.8101C27.5879 17.8101 27.9907 17.7856 28.125 17.749L28.125 19.5557C28.125 20.1904 28.54 20.5933 29.1626 20.5933L29.895 20.5933C30.5298 20.5933 30.9326 20.1904 30.9326 19.5557L30.9326 11.1938C30.9326 8.8623 29.6631 7.60498 27.3315 7.60498L3.60107 7.60498C1.26953 7.60498 0 8.8623 0 11.1938L0 19.5557C0 20.1904 0.402832 20.5933 1.0376 20.5933ZM2.44141 16.0278C2.18506 16.0278 2.02637 15.8447 2.02637 15.5518L2.02637 10.9131C2.02637 9.98535 2.63672 9.38721 3.58887 9.38721L27.356 9.38721C28.2959 9.38721 28.9062 9.98535 28.9062 10.9131L28.9062 15.5518C28.9062 15.8447 28.7476 16.0278 28.4912 16.0278ZM3.17383 7.86133L6.38428 7.86133L6.38428 5.34668C6.38428 4.21143 7.01904 3.58887 8.17871 3.58887L12.4634 3.58887C13.6108 3.58887 14.2456 4.21143 14.2456 5.34668L14.2456 7.86133L16.687 7.86133L16.687 5.34668C16.687 4.21143 17.3218 3.58887 18.4692 3.58887L22.7539 3.58887C23.9136 3.58887 24.5483 4.21143 24.5483 5.34668L24.5483 7.86133L27.7588 7.86133L27.7588 3.41797C27.7588 1.15967 26.5503 0 24.353 0L6.57959 0C4.39453 0 3.17383 1.15967 3.17383 3.41797Z" fill="#5ac8f5"/>
 </g>
</svg>
