<?xml version="1.0" encoding="UTF-8"?>
<!--Generator: Apple Native CoreSVG 175.5-->
<!DOCTYPE svg
PUBLIC "-//W3C//DTD SVG 1.1//EN"
       "http://www.w3.org/Graphics/SVG/1.1/DTD/svg11.dtd">
<svg version="1.1" xmlns="http://www.w3.org/2000/svg" xmlns:xlink="http://www.w3.org/1999/xlink" width="22.4731" height="22.4976">
 <g>
  <rect height="22.4976" opacity="0" width="22.4731" x="0" y="0"/>
  <path d="M3.83301 22.4976L18.6401 22.4976C21.2036 22.4976 22.4731 21.228 22.4731 18.7134L22.4731 3.80859C22.4731 1.29395 21.2036 0.0244141 18.6401 0.0244141L3.83301 0.0244141C1.28174 0.0244141 0 1.28174 0 3.80859L0 18.7134C0 21.2402 1.28174 22.4976 3.83301 22.4976Z" fill="#5ac8f5" fill-opacity="0.25"/>
  <path d="M7.94678 16.8579C7.2998 16.8579 6.95801 16.4062 6.95801 15.7227L6.95801 6.53076C6.95801 5.84717 7.2998 5.39551 7.94678 5.39551L11.1572 5.39551C14.7705 5.39551 16.7603 7.42188 16.7603 11.0962C16.7603 14.8193 14.7339 16.8579 11.1572 16.8579ZM8.91113 15.2954L10.9375 15.2954C13.4033 15.2954 14.7339 13.9038 14.7339 11.1328C14.7339 8.42285 13.3911 6.95801 10.9375 6.95801L8.91113 6.95801Z" fill="#5ac8f5"/>
 </g>
</svg>
