<?xml version="1.0" encoding="UTF-8"?>
<!--Generator: Apple Native CoreSVG 175.5-->
<!DOCTYPE svg
PUBLIC "-//W3C//DTD SVG 1.1//EN"
       "http://www.w3.org/Graphics/SVG/1.1/DTD/svg11.dtd">
<svg version="1.1" xmlns="http://www.w3.org/2000/svg" xmlns:xlink="http://www.w3.org/1999/xlink" width="18.1763" height="27.0386">
 <g>
  <rect height="27.0386" opacity="0" width="18.1763" x="0" y="0"/>
  <path d="M5.12695 27.0142C5.56641 27.0142 5.92041 26.709 5.92041 26.3184C5.92041 26.062 5.83496 25.8301 5.63965 25.5249C3.52783 22.0093 2.39258 17.6392 2.39258 13.5132C2.39258 9.38721 3.52783 5.01709 5.63965 1.50146C5.83496 1.18408 5.92041 0.964355 5.92041 0.708008C5.92041 0.317383 5.56641 0 5.12695 0C4.6875 0 4.37012 0.256348 3.97949 0.842285C1.35498 4.57764 0 9.11865 0 13.5132C0 17.9077 1.35498 22.4487 3.97949 26.1719C4.37012 26.77 4.6875 27.0142 5.12695 27.0142ZM13.0493 27.0142C13.4888 27.0142 13.7939 26.77 14.1968 26.1719C16.8213 22.4487 18.1763 17.9077 18.1763 13.5132C18.1763 9.11865 16.8213 4.57764 14.1968 0.842285C13.7939 0.256348 13.4888 0 13.0493 0C12.6099 0 12.2559 0.317383 12.2559 0.708008C12.2559 0.964355 12.3413 1.18408 12.5366 1.50146C14.6484 5.01709 15.7837 9.38721 15.7837 13.5132C15.7837 17.6392 14.6484 22.0093 12.5366 25.5249C12.3413 25.8301 12.2559 26.062 12.2559 26.3184C12.2559 26.709 12.6099 27.0142 13.0493 27.0142Z" fill="#5ac8f5"/>
 </g>
</svg>
