<?xml version="1.0" encoding="UTF-8"?>
<!--Generator: Apple Native CoreSVG 175.5-->
<!DOCTYPE svg
PUBLIC "-//W3C//DTD SVG 1.1//EN"
       "http://www.w3.org/Graphics/SVG/1.1/DTD/svg11.dtd">
<svg version="1.1" xmlns="http://www.w3.org/2000/svg" xmlns:xlink="http://www.w3.org/1999/xlink" width="24.9023" height="24.8413">
 <g>
  <rect height="24.8413" opacity="0" width="24.9023" x="0" y="0"/>
  <path d="M12.4146 24.8413C13.0371 24.8413 13.5254 24.3408 13.5254 23.7305C13.5254 23.1323 13.0371 22.6318 12.4146 22.6318C11.8286 22.6318 11.3281 23.1323 11.3281 23.7305C11.3281 24.3408 11.8286 24.8413 12.4146 24.8413ZM15.9302 24.2798C16.5283 24.2798 17.041 23.7793 17.041 23.1689C17.041 22.5708 16.5283 22.0703 15.9302 22.0703C15.332 22.0703 14.8315 22.5708 14.8315 23.1689C14.8315 23.7793 15.3198 24.2798 15.9302 24.2798ZM19.0918 22.6685C19.6899 22.6685 20.2026 22.168 20.2026 21.5576C20.2026 20.9595 19.6899 20.459 19.0918 20.459C18.4937 20.459 17.9932 20.9595 17.9932 21.5576C17.9932 22.168 18.4814 22.6685 19.0918 22.6685ZM21.5942 20.1538C22.2046 20.1538 22.7051 19.6533 22.7051 19.043C22.7051 18.4448 22.2046 17.9565 21.5942 17.9565C20.9961 17.9565 20.4956 18.4448 20.4956 19.043C20.4956 19.6533 20.9961 20.1538 21.5942 20.1538ZM23.1934 17.0288C23.8037 17.0288 24.3042 16.5283 24.3042 15.918C24.3042 15.3198 23.8037 14.8193 23.1934 14.8193C22.5952 14.8193 22.0947 15.3198 22.0947 15.918C22.0947 16.5283 22.5952 17.0288 23.1934 17.0288ZM23.7915 13.5254C24.4019 13.5254 24.9023 13.0249 24.9023 12.4146C24.9023 11.8164 24.4019 11.3159 23.7915 11.3159C23.1934 11.3159 22.7051 11.8164 22.7051 12.4146C22.7051 13.0249 23.1934 13.5254 23.7915 13.5254ZM23.1934 10.022C23.8037 10.022 24.3042 9.52148 24.3042 8.92334C24.3042 8.31299 23.8037 7.8125 23.1934 7.8125C22.5952 7.8125 22.0947 8.31299 22.0947 8.92334C22.0947 9.52148 22.5952 10.022 23.1934 10.022ZM21.5942 6.88477C22.2046 6.88477 22.7051 6.39648 22.7051 5.79834C22.7051 5.18799 22.2046 4.6875 21.5942 4.6875C20.9961 4.6875 20.4956 5.18799 20.4956 5.79834C20.4956 6.39648 20.9961 6.88477 21.5942 6.88477ZM19.0918 4.38232C19.6899 4.38232 20.2026 3.88184 20.2026 3.28369C20.2026 2.67334 19.6899 2.17285 19.0918 2.17285C18.4814 2.17285 17.9932 2.67334 17.9932 3.28369C17.9932 3.88184 18.4937 4.38232 19.0918 4.38232ZM15.9302 2.771C16.5283 2.771 17.041 2.27051 17.041 1.67236C17.041 1.06201 16.5283 0.561523 15.9302 0.561523C15.3198 0.561523 14.8315 1.06201 14.8315 1.67236C14.8315 2.27051 15.332 2.771 15.9302 2.771ZM12.4146 2.20947C13.0371 2.20947 13.5254 1.70898 13.5254 1.11084C13.5254 0.500488 13.0371 0 12.4146 0C11.8286 0 11.3281 0.500488 11.3281 1.11084C11.3281 1.70898 11.8286 2.20947 12.4146 2.20947ZM8.93555 2.771C9.53369 2.771 10.0342 2.27051 10.0342 1.67236C10.0342 1.06201 9.53369 0.561523 8.93555 0.561523C8.3252 0.561523 7.82471 1.06201 7.82471 1.67236C7.82471 2.27051 8.3252 2.771 8.93555 2.771ZM5.78613 4.38232C6.38428 4.38232 6.88477 3.88184 6.88477 3.28369C6.88477 2.67334 6.38428 2.17285 5.78613 2.17285C5.17578 2.17285 4.67529 2.67334 4.67529 3.28369C4.67529 3.88184 5.17578 4.38232 5.78613 4.38232ZM3.2959 6.88477C3.88184 6.88477 4.39453 6.39648 4.39453 5.79834C4.39453 5.18799 3.89404 4.6875 3.2959 4.6875C2.68555 4.6875 2.18506 5.18799 2.18506 5.79834C2.18506 6.39648 2.68555 6.88477 3.2959 6.88477ZM1.69678 10.022C2.29492 10.022 2.79541 9.52148 2.79541 8.92334C2.79541 8.31299 2.29492 7.8125 1.69678 7.8125C1.08643 7.8125 0.585938 8.31299 0.585938 8.92334C0.585938 9.52148 1.08643 10.022 1.69678 10.022ZM1.11084 13.5254C1.70898 13.5254 2.19727 13.0249 2.19727 12.4146C2.19727 11.8164 1.70898 11.3159 1.11084 11.3159C0.500488 11.3159 0 11.8164 0 12.4146C0 13.0249 0.500488 13.5254 1.11084 13.5254ZM1.69678 17.0288C2.29492 17.0288 2.79541 16.5283 2.79541 15.918C2.79541 15.3198 2.29492 14.8193 1.69678 14.8193C1.08643 14.8193 0.585938 15.3198 0.585938 15.918C0.585938 16.5283 1.08643 17.0288 1.69678 17.0288ZM3.2959 20.1538C3.89404 20.1538 4.39453 19.6533 4.39453 19.043C4.39453 18.4448 3.88184 17.9565 3.2959 17.9565C2.68555 17.9565 2.18506 18.4448 2.18506 19.043C2.18506 19.6533 2.68555 20.1538 3.2959 20.1538ZM5.78613 22.6685C6.38428 22.6685 6.88477 22.168 6.88477 21.5576C6.88477 20.9595 6.38428 20.459 5.78613 20.459C5.17578 20.459 4.67529 20.9595 4.67529 21.5576C4.67529 22.168 5.17578 22.6685 5.78613 22.6685ZM8.93555 24.2798C9.53369 24.2798 10.0342 23.7793 10.0342 23.1689C10.0342 22.5708 9.53369 22.0703 8.93555 22.0703C8.3252 22.0703 7.82471 22.5708 7.82471 23.1689C7.82471 23.7793 8.3252 24.2798 8.93555 24.2798Z" fill="#5ac8f5"/>
 </g>
</svg>
