<?xml version="1.0" encoding="UTF-8"?>
<!--Generator: Apple Native CoreSVG 175.5-->
<!DOCTYPE svg
PUBLIC "-//W3C//DTD SVG 1.1//EN"
       "http://www.w3.org/Graphics/SVG/1.1/DTD/svg11.dtd">
<svg version="1.1" xmlns="http://www.w3.org/2000/svg" xmlns:xlink="http://www.w3.org/1999/xlink" width="24.9023" height="24.9146">
 <g>
  <rect height="24.9146" opacity="0" width="24.9023" x="0" y="0"/>
  <path d="M12.4512 24.9146C19.2627 24.9146 24.9023 19.2749 24.9023 12.4634C24.9023 5.66406 19.2505 0.012207 12.439 0.012207C5.63965 0.012207 0 5.66406 0 12.4634C0 19.2749 5.65186 24.9146 12.4512 24.9146Z" fill="#5ac8f5" fill-opacity="0.25"/>
  <path d="M6.83594 13.0371C6.83594 9.94873 9.375 7.53174 12.207 7.53174C12.3169 7.53174 12.4512 7.54395 12.5488 7.55615L11.6699 6.65283C11.5356 6.50635 11.438 6.28662 11.438 6.06689C11.438 5.61523 11.7798 5.26123 12.2437 5.26123C12.4634 5.26123 12.6831 5.35889 12.8174 5.51758L15.2344 7.97119C15.5273 8.28857 15.5518 8.83789 15.2344 9.14307L12.793 11.5845C12.6587 11.7188 12.4512 11.8286 12.2437 11.8286C11.792 11.8286 11.438 11.4746 11.438 11.0229C11.438 10.8032 11.5356 10.5957 11.6821 10.4492L12.9028 9.24072C12.7808 9.21631 12.6099 9.2041 12.4512 9.2041C10.3027 9.2041 8.58154 10.9375 8.58154 13.0859C8.58154 15.2466 10.3027 16.98 12.4512 16.98C14.5996 16.98 16.3208 15.2466 16.3208 13.0859C16.3208 12.6099 16.7236 12.2192 17.1997 12.2192C17.6636 12.2192 18.0664 12.6099 18.0664 13.0859C18.0664 16.1865 15.564 18.7134 12.4512 18.7134C9.33838 18.7134 6.83594 16.1865 6.83594 13.0371Z" fill="#5ac8f5"/>
 </g>
</svg>
