<?xml version="1.0" encoding="UTF-8"?>
<!--Generator: Apple Native CoreSVG 175.5-->
<!DOCTYPE svg
PUBLIC "-//W3C//DTD SVG 1.1//EN"
       "http://www.w3.org/Graphics/SVG/1.1/DTD/svg11.dtd">
<svg version="1.1" xmlns="http://www.w3.org/2000/svg" xmlns:xlink="http://www.w3.org/1999/xlink" width="24.5972" height="21.106">
 <g>
  <rect height="21.106" opacity="0" width="24.5972" x="0" y="0"/>
  <path d="M0.915527 1.84326L23.6572 1.84326C24.1699 1.84326 24.5972 1.44043 24.5972 0.915527C24.5972 0.402832 24.1699 0 23.6572 0L0.915527 0C0.402832 0 0 0.402832 0 0.915527C0 1.44043 0.402832 1.84326 0.915527 1.84326ZM0.915527 8.23975L23.6572 8.23975C24.1699 8.23975 24.5972 7.83691 24.5972 7.31201C24.5972 6.79932 24.1699 6.39648 23.6572 6.39648L0.915527 6.39648C0.402832 6.39648 0 6.79932 0 7.31201C0 7.83691 0.402832 8.23975 0.915527 8.23975ZM0.915527 14.6362L23.6572 14.6362C24.1699 14.6362 24.5972 14.2212 24.5972 13.7085C24.5972 13.1958 24.1699 12.793 23.6572 12.793L0.915527 12.793C0.402832 12.793 0 13.1958 0 13.7085C0 14.2212 0.402832 14.6362 0.915527 14.6362ZM0.915527 21.0205L13.9771 21.0205C14.4897 21.0205 14.9048 20.6177 14.9048 20.105C14.9048 19.5923 14.4897 19.1772 13.9771 19.1772L0.915527 19.1772C0.402832 19.1772 0 19.5923 0 20.105C0 20.6177 0.402832 21.0205 0.915527 21.0205Z" fill="#5ac8f5"/>
 </g>
</svg>
