<?xml version="1.0" encoding="UTF-8"?>
<!--Generator: Apple Native CoreSVG 175.5-->
<!DOCTYPE svg
PUBLIC "-//W3C//DTD SVG 1.1//EN"
       "http://www.w3.org/Graphics/SVG/1.1/DTD/svg11.dtd">
<svg version="1.1" xmlns="http://www.w3.org/2000/svg" xmlns:xlink="http://www.w3.org/1999/xlink" width="23.2096" height="28.0151">
 <g>
  <rect height="28.0151" opacity="0" width="23.2096" x="0" y="0"/>
  <path d="M5.06335 16.272L6.3695 14.917L2.0238 6.38428L3.98913 3.36914L9.1405 13.5254L11.1424 13.1958L5.17321 2.0752L18.0272 2.0752L12.058 13.1958L14.0599 13.5254L19.2113 3.36914L21.1888 6.38428L16.8309 14.917L18.1371 16.272L23.0443 7.05566C23.2762 6.65283 23.264 6.18896 23.0077 5.81055L19.6996 0.744629C19.4432 0.390625 19.1381 0.231934 18.662 0.231934L4.55065 0.231934C4.06237 0.231934 3.7572 0.390625 3.51306 0.744629L0.192743 5.81055C-0.051398 6.18896-0.0636051 6.65283 0.156122 7.05566ZM7.07751 7.67822L16.1351 7.67822L16.1351 5.83496L7.07751 5.83496ZM11.6063 28.0151C16.0253 28.0151 19.6019 24.4385 19.6019 20.0195C19.6019 15.5884 16.0253 12.0117 11.6063 12.0117C7.17516 12.0117 3.5985 15.5884 3.5985 20.0195C3.5985 24.4385 7.17516 28.0151 11.6063 28.0151ZM11.6063 26.1719C8.20056 26.1719 5.44177 23.4253 5.44177 20.0195C5.44177 16.6138 8.18835 13.855 11.6063 13.855C14.9999 13.855 17.7587 16.6016 17.7587 20.0195C17.7587 23.4131 15.0121 26.1719 11.6063 26.1719ZM9.45788 23.877L11.6185 22.3022L13.7548 23.877C14.2186 24.2065 14.6825 23.8647 14.5116 23.3521L13.6449 20.8008L15.8299 19.2383C16.2328 18.9575 16.1229 18.3716 15.5492 18.3716L12.8758 18.396L12.058 15.8325C11.8993 15.3198 11.3133 15.3198 11.1547 15.8325L10.3368 18.396L7.66345 18.3716C7.10192 18.3716 6.96764 18.9453 7.39489 19.2505L9.57995 20.8008L8.71325 23.3521C8.54235 23.8647 9.00622 24.2065 9.45788 23.877Z" fill="#5ac8f5"/>
 </g>
</svg>
