<?xml version="1.0" encoding="UTF-8"?>
<!--Generator: Apple Native CoreSVG 175.5-->
<!DOCTYPE svg
PUBLIC "-//W3C//DTD SVG 1.1//EN"
       "http://www.w3.org/Graphics/SVG/1.1/DTD/svg11.dtd">
<svg version="1.1" xmlns="http://www.w3.org/2000/svg" xmlns:xlink="http://www.w3.org/1999/xlink" width="28.7842" height="22.4976">
 <g>
  <rect height="22.4976" opacity="0" width="28.7842" x="0" y="0"/>
  <path d="M3.83301 22.4731L24.9512 22.4731C27.5146 22.4731 28.7842 21.2158 28.7842 18.7012L28.7842 6.89697C28.7842 4.38232 27.5146 3.125 24.9512 3.125L23.2666 3.125L23.2666 1.48926C23.2666 0.561523 22.7295 0 21.7896 0L18.1885 0C17.2607 0 16.7236 0.561523 16.7236 1.48926L16.7236 3.125L12.0728 3.125L12.0728 1.48926C12.0728 0.561523 11.5356 0 10.5957 0L6.99463 0C6.05469 0 5.52979 0.561523 5.52979 1.48926L5.52979 3.125L3.83301 3.125C1.28174 3.125 0 4.38232 0 6.89697L0 18.7012C0 21.2158 1.28174 22.4731 3.83301 22.4731ZM1.96533 18.5913L1.96533 7.00684C1.96533 5.7373 2.63672 5.09033 3.85742 5.09033L24.9268 5.09033C26.1353 5.09033 26.8188 5.7373 26.8188 7.00684L26.8188 18.5913C26.8188 19.8608 26.1353 20.5078 24.9268 20.5078L3.85742 20.5078C2.63672 20.5078 1.96533 19.8608 1.96533 18.5913Z" fill="#5ac8f5" fill-opacity="0.5"/>
  <path d="M10.5225 13.5864C10.5225 13.8184 10.7056 13.9771 10.9375 13.9771L13.9648 13.9771L12.3413 18.3105C12.1338 18.8843 12.7563 19.2017 13.1226 18.7256L18.0054 12.5977C18.103 12.4878 18.1641 12.3535 18.1641 12.2437C18.1641 12.0239 17.9688 11.853 17.7368 11.853L14.7217 11.853L16.333 7.53174C16.5405 6.9458 15.9302 6.62842 15.564 7.10449L10.6689 13.2446C10.5835 13.3667 10.5225 13.4766 10.5225 13.5864Z" fill="#5ac8f5"/>
 </g>
</svg>
