<?xml version="1.0" encoding="UTF-8"?>
<!--Generator: Apple Native CoreSVG 175.5-->
<!DOCTYPE svg
PUBLIC "-//W3C//DTD SVG 1.1//EN"
       "http://www.w3.org/Graphics/SVG/1.1/DTD/svg11.dtd">
<svg version="1.1" xmlns="http://www.w3.org/2000/svg" xmlns:xlink="http://www.w3.org/1999/xlink" width="22.4731" height="22.4976">
 <g>
  <rect height="22.4976" opacity="0" width="22.4731" x="0" y="0"/>
  <path d="M3.83301 22.4976L18.6401 22.4976C21.2036 22.4976 22.4731 21.228 22.4731 18.7134L22.4731 3.80859C22.4731 1.29395 21.2036 0.0244141 18.6401 0.0244141L3.83301 0.0244141C1.28174 0.0244141 0 1.28174 0 3.80859L0 18.7134C0 21.2402 1.28174 22.4976 3.83301 22.4976ZM3.85742 20.5322C2.63672 20.5322 1.96533 19.8853 1.96533 18.6157L1.96533 3.90625C1.96533 2.63672 2.63672 1.98975 3.85742 1.98975L18.6157 1.98975C19.8242 1.98975 20.5078 2.63672 20.5078 3.90625L20.5078 18.6157C20.5078 19.8853 19.8242 20.5322 18.6157 20.5322Z" fill="#5ac8f5" fill-opacity="0.5"/>
  <path d="M7.21436 16.5039C9.28955 16.5039 10.7422 15.2588 10.7422 13.501C10.7422 12.207 9.83887 11.1572 8.60596 11.0352L8.60596 10.9619C9.61914 10.791 10.4126 9.77783 10.4126 8.63037C10.4126 7.06787 9.11865 5.98145 7.2998 5.98145C5.65186 5.98145 4.43115 6.92139 4.11377 8.11768C4.07715 8.27637 4.07715 8.39844 4.07715 8.55713C4.07715 8.99658 4.3457 9.30176 4.77295 9.30176C5.13916 9.30176 5.33447 9.10645 5.45654 8.71582C5.7251 7.86133 6.31104 7.38525 7.26318 7.38525C8.22754 7.38525 8.91113 7.97119 8.91113 8.82568C8.91113 9.7168 8.22754 10.3638 7.25098 10.3638L6.5918 10.3638C6.20117 10.3638 5.92041 10.6445 5.92041 11.084C5.92041 11.4746 6.18896 11.7798 6.5918 11.7798L7.31201 11.7798C8.47168 11.7798 9.21631 12.439 9.21631 13.4277C9.21631 14.3799 8.39844 15.1001 7.22656 15.1001C6.26221 15.1001 5.60303 14.624 5.27344 13.7695C5.12695 13.3789 4.91943 13.1836 4.57764 13.1836C4.1626 13.1836 3.86963 13.4888 3.86963 13.916C3.86963 14.0869 3.89404 14.209 3.93066 14.3677C4.26025 15.4907 5.5542 16.5039 7.21436 16.5039ZM15.3931 16.5039C17.5537 16.5039 18.9819 15.1855 18.9819 13.0371C18.9819 11.1572 17.7124 9.79004 15.8203 9.79004C15.0024 9.79004 14.1357 10.1929 13.7695 10.7422L13.7085 10.7422L13.9404 7.60498L17.981 7.60498C18.3228 7.60498 18.5913 7.32422 18.5913 6.92139C18.5913 6.53076 18.335 6.23779 17.981 6.23779L13.7817 6.23779C13.147 6.23779 12.7197 6.62842 12.6831 7.27539L12.3779 11.084C12.3413 11.7188 12.6831 12.1338 13.2324 12.1338C13.6108 12.1338 13.8428 12.0361 14.2334 11.7188C14.7339 11.2793 15.1245 11.0962 15.6616 11.0962C16.7358 11.0962 17.4683 11.9507 17.4683 13.0737C17.4683 14.3555 16.6626 15.1245 15.4785 15.1245C14.6484 15.1245 13.9282 14.6851 13.5864 13.9526C13.4033 13.5986 13.1592 13.4277 12.8784 13.4277C12.4634 13.4277 12.1948 13.7329 12.1948 14.1357C12.1948 14.3311 12.2314 14.5142 12.3047 14.6851C12.6587 15.6982 13.8672 16.5039 15.3931 16.5039Z" fill="#5ac8f5"/>
 </g>
</svg>
