<?xml version="1.0" encoding="UTF-8"?>
<!--Generator: Apple Native CoreSVG 175.5-->
<!DOCTYPE svg
PUBLIC "-//W3C//DTD SVG 1.1//EN"
       "http://www.w3.org/Graphics/SVG/1.1/DTD/svg11.dtd">
<svg version="1.1" xmlns="http://www.w3.org/2000/svg" xmlns:xlink="http://www.w3.org/1999/xlink" width="24.9023" height="24.9146">
 <g>
  <rect height="24.9146" opacity="0" width="24.9023" x="0" y="0"/>
  <path d="M12.4512 24.9023C19.2627 24.9023 24.9023 19.2505 24.9023 12.4512C24.9023 5.63965 19.2505 0 12.439 0C5.63965 0 0 5.63965 0 12.4512C0 19.2505 5.65186 24.9023 12.4512 24.9023ZM5.76172 17.5903C5.31006 17.5903 5.01709 17.2974 5.01709 16.8457C5.01709 16.5894 5.10254 16.3696 5.29785 16.1621L8.61816 12.2559C9.21631 11.5601 9.87549 10.8521 9.87549 10.0342C9.87549 9.10645 9.21631 8.48389 8.20312 8.48389C7.2998 8.48389 6.67725 8.93555 6.35986 9.8877C6.17676 10.2661 5.99365 10.4736 5.63965 10.4736C5.2002 10.4736 4.93164 10.1685 4.93164 9.7168C4.93164 9.57031 4.95605 9.42383 4.98047 9.26514C5.31006 7.9834 6.64062 7.01904 8.14209 7.01904C10.1196 7.01904 11.4014 8.14209 11.4014 9.8999C11.4014 11.1572 10.7056 12.0605 9.77783 13.147L7.32422 16.0034L7.32422 16.1011L10.9741 16.1011C11.3647 16.1011 11.6699 16.3574 11.6699 16.8335C11.6699 17.2852 11.3647 17.5903 10.9741 17.5903ZM16.748 17.8955C15.4785 17.8955 14.4043 17.4072 13.7573 16.1865C13.3301 15.4053 13.0737 14.2822 13.0737 12.7441C13.0737 8.91113 14.5752 7.01904 16.9922 7.01904C18.4204 7.01904 19.4336 7.76367 19.7632 8.60596C19.8364 8.77686 19.8608 8.92334 19.8608 9.09424C19.8608 9.50928 19.5801 9.79004 19.2383 9.79004C18.8843 9.79004 18.7012 9.63135 18.4814 9.31396C18.1519 8.82568 17.6514 8.48389 16.9434 8.48389C15.5273 8.48389 14.563 9.97314 14.563 12.3413C14.563 12.4023 14.563 12.4268 14.563 12.4634L14.6606 12.4634C14.9536 11.6333 15.8081 10.8765 17.1509 10.8765C18.7744 10.8765 20.2637 12.0728 20.2637 14.2334C20.2637 16.5405 18.7988 17.8955 16.748 17.8955ZM16.687 16.5039C17.8955 16.5039 18.6768 15.6494 18.6768 14.3066C18.6768 13.0493 17.8711 12.1826 16.687 12.1826C15.5151 12.1826 14.7095 13.0615 14.7095 14.2944C14.7095 15.5884 15.5273 16.5039 16.687 16.5039Z" fill="#5ac8f5"/>
 </g>
</svg>
