<?xml version="1.0" encoding="UTF-8"?>
<!--Generator: Apple Native CoreSVG 175.5-->
<!DOCTYPE svg
PUBLIC "-//W3C//DTD SVG 1.1//EN"
       "http://www.w3.org/Graphics/SVG/1.1/DTD/svg11.dtd">
<svg version="1.1" xmlns="http://www.w3.org/2000/svg" xmlns:xlink="http://www.w3.org/1999/xlink" width="28.7219" height="27.5251">
 <g>
  <rect height="27.5251" opacity="0" width="28.7219" x="0" y="0"/>
  <path d="M1.18155 9.7281C-0.0269432 10.4239-0.332119 11.5103 0.375889 12.731L2.1337 15.7828C2.63419 16.6495 3.3422 16.9547 4.18448 16.9547L13.1322 16.9547L7.71231 20.0919C6.51603 20.7877 6.22306 21.8619 6.90665 23.0704L8.66446 26.1344C9.37247 27.3551 10.4467 27.6236 11.6552 26.9278L27.5487 17.7725C28.745 17.0767 29.0502 15.9781 28.3544 14.7696L26.5844 11.7179C26.1083 10.8878 25.4247 10.546 24.5946 10.546L15.5736 10.546L21.0058 7.40877C22.2143 6.71297 22.495 5.62654 21.8114 4.43025L20.0536 1.36629C19.3456 0.133378 18.2714-0.135177 17.0751 0.572831ZM2.08487 11.022L17.7465 1.98885C18.1493 1.74471 18.5155 1.85457 18.7719 2.29402L20.3954 5.07723C20.6396 5.49226 20.5297 5.88289 20.1025 6.12703L4.46524 15.148C4.05021 15.3922 3.65958 15.2823 3.41544 14.8551L1.81632 12.0963C1.57218 11.6568 1.65763 11.2662 2.08487 11.022ZM7.23624 15.38L12.8515 12.1207L21.4574 12.1207L15.8544 15.38ZM8.61563 21.3736L24.2528 12.3404C24.6679 12.0963 25.0585 12.2061 25.3026 12.6334L26.9018 15.4044C27.1459 15.8438 27.0605 16.2345 26.6332 16.4786L10.9838 25.4996C10.5688 25.7437 10.2025 25.6339 9.9462 25.2066L8.33487 22.4112C8.07853 21.9962 8.18839 21.6178 8.61563 21.3736ZM19.0771 1.26863L19.7607 2.46492L21.8236 1.26863C22.1532 1.07332 22.2753 0.670487 22.0678 0.340898C21.8847 0.0113078 21.4696-0.0985555 21.14 0.096757ZM20.725 4.12508L21.4208 5.32137L23.4594 4.13728C23.8378 3.92976 23.9355 3.57576 23.7035 3.19734C23.5204 2.84334 23.1176 2.74568 22.7758 2.941ZM16.3793 5.51668C16.6234 5.98055 17.1972 6.12703 17.6488 5.88289C18.1127 5.61434 18.2592 5.0406 18.0028 4.57674C17.7343 4.12508 17.1728 3.97859 16.7211 4.22273C16.2572 4.5157 16.123 5.06502 16.3793 5.51668ZM13.3398 7.27449C13.5839 7.72615 14.1454 7.88484 14.5971 7.6407C15.0732 7.37215 15.2441 6.78621 14.9511 6.35896C14.7069 5.88289 14.121 5.74861 13.6693 6.00496C13.2055 6.27351 13.0712 6.82283 13.3398 7.27449ZM10.2758 9.05672C10.5443 9.49617 11.1303 9.63045 11.5697 9.39851C12.0092 9.11775 12.1679 8.54402 11.9115 8.11678C11.643 7.65291 11.057 7.49422 10.642 7.75057C10.1781 8.03133 10.0072 8.59285 10.2758 9.05672ZM7.22403 10.8145C7.49259 11.254 8.06632 11.4005 8.53019 11.1563C8.98185 10.8878 9.14054 10.3018 8.84757 9.87459C8.62784 9.41072 8.0419 9.25203 7.57804 9.52059C7.12638 9.76473 6.96769 10.3629 7.22403 10.8145ZM4.18448 12.5723C4.44083 13.024 5.00235 13.1583 5.49063 12.9141C5.91788 12.6456 6.06437 12.0719 5.82022 11.6324C5.55167 11.1685 4.99015 11.022 4.53849 11.2662C4.06241 11.5225 3.92813 12.1207 4.18448 12.5723ZM9.64103 26.232L8.95743 25.0235L6.89444 26.232C6.56485 26.4273 6.44278 26.8179 6.6503 27.1597C6.83341 27.4771 7.24845 27.587 7.57804 27.4039ZM8.00528 23.3756L7.29728 22.1793L5.2587 23.3512C4.88028 23.5709 4.78263 23.9249 5.01456 24.3033C5.19767 24.6451 5.6005 24.755 5.9423 24.5596ZM22.8979 15.8682C23.1664 16.3321 23.7279 16.4786 24.1796 16.2222C24.6557 15.9659 24.79 15.38 24.5336 14.9283C24.2773 14.4766 23.7157 14.3302 23.2275 14.5865C22.8002 14.8551 22.6537 15.4288 22.8979 15.8682ZM19.8827 17.6261C20.1025 18.0899 20.6762 18.2486 21.1523 17.9801C21.5917 17.7359 21.7504 17.1378 21.4941 16.6861C21.2255 16.2467 20.6518 16.088 20.2001 16.3443C19.7362 16.6129 19.5775 17.1988 19.8827 17.6261ZM16.8066 19.3839C17.0751 19.8477 17.661 19.9942 18.0761 19.7379C18.54 19.4693 18.7108 18.9078 18.4423 18.4439C18.1859 18.0045 17.5878 17.858 17.1483 18.1021C16.7089 18.3829 16.5502 18.9566 16.8066 19.3839ZM13.767 21.1295C14.0111 21.6178 14.6093 21.752 15.0487 21.4957C15.5126 21.2271 15.6469 20.6778 15.3783 20.2262C15.1342 19.7623 14.5727 19.6158 14.121 19.8599C13.6571 20.1285 13.474 20.7022 13.767 21.1295ZM10.7152 22.9239C10.9838 23.3634 11.5575 23.522 11.997 23.2779C12.4608 22.9849 12.5951 22.4234 12.3388 21.9718C12.0946 21.5201 11.5209 21.3736 11.0692 21.6178C10.6176 21.8863 10.4589 22.46 10.7152 22.9239Z" fill="#5ac8f5"/>
 </g>
</svg>
