<?xml version="1.0" encoding="UTF-8"?>
<!--Generator: Apple Native CoreSVG 175.5-->
<!DOCTYPE svg
PUBLIC "-//W3C//DTD SVG 1.1//EN"
       "http://www.w3.org/Graphics/SVG/1.1/DTD/svg11.dtd">
<svg version="1.1" xmlns="http://www.w3.org/2000/svg" xmlns:xlink="http://www.w3.org/1999/xlink" width="25.4028" height="29.7974">
 <g>
  <rect height="29.7974" opacity="0" width="25.4028" x="0" y="0"/>
  <path d="M1.40381 23.2788L2.97852 23.2788L2.97852 6.99463C2.97852 6.11572 3.40576 5.62744 4.30908 5.50537C6.32324 5.22461 9.43604 5.10254 12.6953 5.10254C15.9424 5.10254 19.0552 5.22461 21.0938 5.50537C22.0093 5.61523 22.4121 6.04248 22.4121 6.99463L22.4121 23.2788L23.999 23.2788L23.999 6.51855C23.999 5.0293 23.1323 4.15039 21.5088 3.95508C19.1406 3.66211 15.8325 3.50342 12.6953 3.50342C9.55811 3.50342 6.25 3.66211 3.86963 3.95508C2.2583 4.15039 1.40381 5.0293 1.40381 6.51855ZM0 24.0601C0 24.5972 0.439453 25.0488 0.976562 25.0488L24.4263 25.0488C24.9634 25.0488 25.4028 24.5972 25.4028 24.0601C25.4028 23.5229 24.9634 23.0835 24.4263 23.0835L0.976562 23.0835C0.439453 23.0835 0 23.5229 0 24.0601ZM4.82178 1.35498C4.82178 1.9043 5.28564 2.4292 5.85938 2.35596C7.67822 2.13623 10.1929 2.03857 12.6953 2.03857C15.1978 2.03857 17.7246 2.13623 19.5435 2.35596C20.105 2.4292 20.5688 1.9043 20.5688 1.35498C20.5688 0.805664 20.1294 0.402832 19.5435 0.32959C17.7002 0.109863 15.1611 0 12.6953 0C10.2417 0 7.70264 0.109863 5.84717 0.32959C5.27344 0.402832 4.82178 0.805664 4.82178 1.35498ZM6.21338 1.0376L6.21338 4.38232L7.8125 4.38232L7.8125 1.0376ZM17.5903 1.0376L17.5903 4.38232L19.1895 4.38232L19.1895 1.0376ZM12.6953 21.6919C13.8062 21.6919 14.6851 20.8618 14.6851 19.751C14.6851 18.6157 13.8062 17.7368 12.6953 17.7368C11.5601 17.7368 10.73 18.6157 10.73 19.751C10.73 20.8618 11.5601 21.6919 12.6953 21.6919ZM4.28467 15.3687C4.28467 15.7349 4.52881 15.979 4.91943 15.979L8.20312 15.979C8.59375 15.979 8.83789 15.7349 8.83789 15.3687L8.83789 9.39941C8.83789 8.11768 7.83691 7.12891 6.56738 7.12891C5.27344 7.12891 4.28467 8.11768 4.28467 9.39941ZM10.1318 15.3687C10.1318 15.7349 10.376 15.979 10.7666 15.979L14.6118 15.979C15.0146 15.979 15.2588 15.7349 15.2588 15.3687L15.2588 9.11865C15.2588 7.59277 14.2334 6.56738 12.6953 6.56738C11.1572 6.56738 10.1318 7.59277 10.1318 9.11865ZM16.5405 15.3687C16.5405 15.7349 16.7969 15.979 17.1875 15.979L20.4712 15.979C20.8618 15.979 21.106 15.7349 21.106 15.3687L21.106 9.39941C21.106 8.11768 20.105 7.12891 18.8354 7.12891C17.5415 7.12891 16.5405 8.11768 16.5405 9.39941ZM4.06494 29.7729L4.74854 29.7729C5.07812 29.7729 5.27344 29.6631 5.45654 29.3701L8.92334 23.7671L6.5918 23.7671L3.51562 28.7109C3.19824 29.2236 3.49121 29.7729 4.06494 29.7729ZM20.2271 29.7729L20.9106 29.7729C21.4722 29.7729 21.7651 29.2236 21.4478 28.7109L18.3716 23.7671L16.04 23.7671L19.5068 29.3701C19.6899 29.6631 19.8853 29.7729 20.2271 29.7729Z" fill="#5ac8f5"/>
 </g>
</svg>
