<?xml version="1.0" encoding="UTF-8"?>
<!--Generator: Apple Native CoreSVG 175.5-->
<!DOCTYPE svg
PUBLIC "-//W3C//DTD SVG 1.1//EN"
       "http://www.w3.org/Graphics/SVG/1.1/DTD/svg11.dtd">
<svg version="1.1" xmlns="http://www.w3.org/2000/svg" xmlns:xlink="http://www.w3.org/1999/xlink" width="24.9023" height="24.9146">
 <g>
  <rect height="24.9146" opacity="0" width="24.9023" x="0" y="0"/>
  <path d="M12.4512 24.9146C19.2627 24.9146 24.9023 19.2749 24.9023 12.4634C24.9023 5.66406 19.2505 0.012207 12.439 0.012207C5.63965 0.012207 0 5.66406 0 12.4634C0 19.2749 5.65186 24.9146 12.4512 24.9146ZM17.8589 7.05566C19.3237 8.45947 19.2993 10.3882 17.7856 11.8896L15.1855 14.4897L10.4248 9.7168L13.0127 7.12891C14.4897 5.61523 16.4062 5.62744 17.8589 7.05566ZM7.01904 17.8955C5.59082 16.4795 5.61523 14.5508 7.1167 13.0493L9.70459 10.4492L14.4653 15.1978L11.8774 17.7979C10.3882 19.2871 8.45947 19.3115 7.01904 17.8955Z" fill="#5ac8f5"/>
 </g>
</svg>
