<?xml version="1.0" encoding="UTF-8"?>
<!--Generator: Apple Native CoreSVG 175.5-->
<!DOCTYPE svg
PUBLIC "-//W3C//DTD SVG 1.1//EN"
       "http://www.w3.org/Graphics/SVG/1.1/DTD/svg11.dtd">
<svg version="1.1" xmlns="http://www.w3.org/2000/svg" xmlns:xlink="http://www.w3.org/1999/xlink" width="26.9043" height="26.8188">
 <g>
  <rect height="26.8188" opacity="0" width="26.9043" x="0" y="0"/>
  <path d="M7.50732 26.8188C8.10547 26.8188 8.52051 26.5015 9.26514 25.8423L13.4766 22.0947L21.3135 22.0947C24.9512 22.0947 26.9043 20.0806 26.9043 16.5039L26.9043 7.15332C26.9043 3.57666 24.9512 1.5625 21.3135 1.5625L5.59082 1.5625C1.95312 1.5625 0 3.56445 0 7.15332L0 16.5039C0 20.0928 1.95312 22.0947 5.59082 22.0947L6.17676 22.0947L6.17676 25.2686C6.17676 26.2085 6.65283 26.8188 7.50732 26.8188ZM8.00781 24.585L8.00781 21.0449C8.00781 20.3857 7.75146 20.1294 7.09229 20.1294L5.59082 20.1294C3.125 20.1294 1.96533 18.8721 1.96533 16.4917L1.96533 7.15332C1.96533 4.77295 3.125 3.52783 5.59082 3.52783L21.3135 3.52783C23.7671 3.52783 24.939 4.77295 24.939 7.15332L24.939 16.4917C24.939 18.8721 23.7671 20.1294 21.3135 20.1294L13.4033 20.1294C12.7197 20.1294 12.3779 20.2271 11.9141 20.7031ZM10.8643 16.4307L13.4644 14.5264L16.0645 16.4307C16.5649 16.8091 17.1631 16.4673 16.9312 15.7959L15.918 12.7441L18.5791 10.8276C19.1162 10.437 18.8843 9.81445 18.2739 9.81445L14.978 9.81445L14.0015 6.7749C13.8184 6.18896 13.1104 6.18896 12.9272 6.7749L11.9385 9.81445L8.64258 9.81445C8.03223 9.81445 7.78809 10.437 8.3374 10.8276L11.0107 12.7441L9.98535 15.7959C9.75342 16.4673 10.3516 16.8091 10.8643 16.4307Z" fill="#5ac8f5"/>
 </g>
</svg>
