<?xml version="1.0" encoding="UTF-8"?>
<!--Generator: Apple Native CoreSVG 175.5-->
<!DOCTYPE svg
PUBLIC "-//W3C//DTD SVG 1.1//EN"
       "http://www.w3.org/Graphics/SVG/1.1/DTD/svg11.dtd">
<svg version="1.1" xmlns="http://www.w3.org/2000/svg" xmlns:xlink="http://www.w3.org/1999/xlink" width="23.2422" height="22.4976">
 <g>
  <rect height="22.4976" opacity="0" width="23.2422" x="0" y="0"/>
  <path d="M3.83301 22.4976L19.4092 22.4976C21.9604 22.4976 23.2422 21.228 23.2422 18.7134L23.2422 3.80859C23.2422 1.29395 21.9604 0.0244141 19.4092 0.0244141L3.83301 0.0244141C1.28174 0.0244141 0 1.28174 0 3.80859L0 18.7134C0 21.2402 1.28174 22.4976 3.83301 22.4976Z" fill="#5ac8f5" fill-opacity="0.25"/>
  <path d="M7.25098 11.1206C6.61621 11.1206 6.14014 10.6445 6.14014 9.99756L6.14014 6.10352C6.14014 5.48096 6.61621 4.96826 7.25098 4.96826C7.87354 4.96826 8.37402 5.48096 8.37402 6.10352L8.37402 9.99756C8.37402 10.6445 7.87354 11.1206 7.25098 11.1206ZM10.1196 18.2373C9.729 18.2373 9.53369 18.042 9.53369 17.6514L9.53369 16.2354C9.53369 15.0635 10.437 14.1235 11.6211 14.1235C12.793 14.1235 13.7085 15.0635 13.7085 16.2354L13.7085 17.6514C13.7085 18.042 13.5132 18.2373 13.1226 18.2373ZM15.9668 11.1206C15.332 11.1206 14.856 10.6445 14.856 9.99756L14.856 6.10352C14.856 5.48096 15.332 4.96826 15.9668 4.96826C16.6016 4.96826 17.1021 5.48096 17.1021 6.10352L17.1021 9.99756C17.1021 10.6445 16.6016 11.1206 15.9668 11.1206Z" fill="#5ac8f5"/>
 </g>
</svg>
