<?xml version="1.0" encoding="UTF-8"?>
<!--Generator: Apple Native CoreSVG 175.5-->
<!DOCTYPE svg
PUBLIC "-//W3C//DTD SVG 1.1//EN"
       "http://www.w3.org/Graphics/SVG/1.1/DTD/svg11.dtd">
<svg version="1.1" xmlns="http://www.w3.org/2000/svg" xmlns:xlink="http://www.w3.org/1999/xlink" width="34.6069" height="20.9106">
 <g>
  <rect height="20.9106" opacity="0" width="34.6069" x="0" y="0"/>
  <path d="M17.2974 20.8862C27.5879 20.8862 34.6069 16.1621 34.6069 10.4492C34.6069 4.73633 27.5879 0 17.2974 0C7.00684 0 0 4.73633 0 10.4492C0 16.1621 7.00684 20.8862 17.2974 20.8862ZM17.2974 17.4561C10.5835 17.4561 5.60303 14.624 5.60303 10.7788C5.60303 6.95801 10.5957 4.12598 17.2974 4.12598C24.0112 4.12598 29.0161 6.95801 29.0161 10.7788C29.0161 14.6118 23.999 17.4561 17.2974 17.4561ZM17.2974 15.8569C23.0103 15.8569 27.417 13.5742 27.417 10.7788C27.417 9.63135 26.6724 8.56934 25.3906 7.72705C24.0356 9.96094 20.874 11.5234 17.2485 11.5234C13.6353 11.5234 10.5103 9.98535 9.14307 7.77588C7.91016 8.61816 7.20215 9.64355 7.20215 10.7788C7.20215 13.5742 11.5601 15.8569 17.2974 15.8569Z" fill="#5ac8f5"/>
 </g>
</svg>
