<?xml version="1.0" encoding="UTF-8"?>
<!--Generator: Apple Native CoreSVG 175.5-->
<!DOCTYPE svg
PUBLIC "-//W3C//DTD SVG 1.1//EN"
       "http://www.w3.org/Graphics/SVG/1.1/DTD/svg11.dtd">
<svg version="1.1" xmlns="http://www.w3.org/2000/svg" xmlns:xlink="http://www.w3.org/1999/xlink" width="22.4731" height="22.4976">
 <g>
  <rect height="22.4976" opacity="0" width="22.4731" x="0" y="0"/>
  <path d="M9.0332 18.5669C8.34961 18.5669 7.84912 18.0664 7.84912 17.3706L7.84912 5.11475C7.84912 4.43115 8.34961 3.93066 9.0332 3.93066L13.4399 3.93066C14.1235 3.93066 14.624 4.43115 14.624 5.11475L14.624 17.3706C14.624 18.0664 14.1235 18.5669 13.4399 18.5669ZM11.2427 8.41064C11.9385 8.41064 12.5122 7.83691 12.5122 7.14111C12.5122 6.43311 11.9385 5.85938 11.2427 5.85938C10.5347 5.85938 9.96094 6.43311 9.96094 7.14111C9.96094 7.83691 10.5347 8.41064 11.2427 8.41064ZM11.2427 12.5122C11.9385 12.5122 12.5122 11.9507 12.5122 11.2427C12.5122 10.5347 11.9385 9.97314 11.2427 9.97314C10.5347 9.97314 9.96094 10.5347 9.96094 11.2427C9.96094 11.9507 10.5347 12.5122 11.2427 12.5122ZM11.2427 16.626C11.9385 16.626 12.5122 16.0522 12.5122 15.3442C12.5122 14.6362 11.9385 14.0747 11.2427 14.0747C10.5347 14.0747 9.96094 14.6362 9.96094 15.3442C9.96094 16.0522 10.5347 16.626 11.2427 16.626ZM3.83301 22.4976L18.6401 22.4976C21.2036 22.4976 22.4731 21.228 22.4731 18.7134L22.4731 3.80859C22.4731 1.29395 21.2036 0.0244141 18.6401 0.0244141L3.83301 0.0244141C1.28174 0.0244141 0 1.28174 0 3.80859L0 18.7134C0 21.2402 1.28174 22.4976 3.83301 22.4976Z" fill="#5ac8f5"/>
 </g>
</svg>
