<?xml version="1.0" encoding="UTF-8"?>
<!--Generator: Apple Native CoreSVG 175.5-->
<!DOCTYPE svg
PUBLIC "-//W3C//DTD SVG 1.1//EN"
       "http://www.w3.org/Graphics/SVG/1.1/DTD/svg11.dtd">
<svg version="1.1" xmlns="http://www.w3.org/2000/svg" xmlns:xlink="http://www.w3.org/1999/xlink" width="22.4731" height="18.4204">
 <g>
  <rect height="18.4204" opacity="0" width="22.4731" x="0" y="0"/>
  <path d="M0 17.4316C0 17.9688 0.439453 18.4204 0.976562 18.4204C1.52588 18.4204 1.96533 17.9688 1.96533 17.4316L1.96533 1.00098C1.96533 0.463867 1.52588 0.0244141 0.976562 0.0244141C0.439453 0.0244141 0 0.463867 0 1.00098ZM20.5078 17.4316C20.5078 17.9688 20.9595 18.4204 21.4966 18.4204C22.0337 18.4204 22.4731 17.9688 22.4731 17.4316L22.4731 1.00098C22.4731 0.463867 22.0337 0.0244141 21.4966 0.0244141C20.9595 0.0244141 20.5078 0.463867 20.5078 1.00098Z" fill="#5ac8f5" fill-opacity="0.5"/>
  <path d="M7.83691 14.1968C8.31299 14.1968 8.61816 13.8672 8.61816 13.3545L8.61816 5.67627C8.61816 5.07812 8.30078 4.69971 7.75146 4.69971C7.42188 4.69971 7.18994 4.80957 6.75049 5.10254L5.05371 6.23779C4.78516 6.43311 4.65088 6.65283 4.65088 6.9458C4.65088 7.34863 4.96826 7.69043 5.35889 7.69043C5.59082 7.69043 5.70068 7.6416 5.94482 7.4707L7.1167 6.61621L7.08008 6.61621L7.08008 13.3545C7.08008 13.855 7.38525 14.1968 7.83691 14.1968ZM14.1968 14.3433C16.2231 14.3433 17.5537 12.4268 17.5537 9.49707C17.5537 6.54297 16.2231 4.60205 14.1968 4.60205C12.1704 4.60205 10.8398 6.54297 10.8398 9.49707C10.8398 12.4268 12.1704 14.3433 14.1968 14.3433ZM14.1968 12.8662C13.1226 12.8662 12.4268 11.5845 12.4268 9.49707C12.4268 7.37305 13.1104 6.0791 14.1968 6.0791C15.2954 6.0791 15.9546 7.36084 15.9546 9.49707C15.9546 11.5845 15.2832 12.8662 14.1968 12.8662Z" fill="#5ac8f5"/>
 </g>
</svg>
