<?xml version="1.0" encoding="UTF-8"?>
<!--Generator: Apple Native CoreSVG 175.5-->
<!DOCTYPE svg
PUBLIC "-//W3C//DTD SVG 1.1//EN"
       "http://www.w3.org/Graphics/SVG/1.1/DTD/svg11.dtd">
<svg version="1.1" xmlns="http://www.w3.org/2000/svg" xmlns:xlink="http://www.w3.org/1999/xlink" width="24.9023" height="24.9146">
 <g>
  <rect height="24.9146" opacity="0" width="24.9023" x="0" y="0"/>
  <path d="M12.4512 24.9023C19.2627 24.9023 24.9023 19.2505 24.9023 12.4512C24.9023 5.63965 19.2505 0 12.439 0C5.63965 0 0 5.63965 0 12.4512C0 19.2505 5.65186 24.9023 12.4512 24.9023ZM7.18994 18.0542C5.94482 18.0542 5.29785 17.4194 5.29785 16.1743L5.29785 8.77686C5.29785 7.53174 5.94482 6.90918 7.18994 6.90918L17.688 6.90918C18.9453 6.90918 19.5801 7.53174 19.5801 8.77686L19.5801 16.1743C19.5801 17.4072 18.9453 18.0542 17.688 18.0542ZM7.23877 16.9067L17.6392 16.9067C18.1396 16.9067 18.4326 16.6016 18.4326 16.1133L18.4326 15.0146L15.8203 12.6343C15.5396 12.3779 15.1855 12.2314 14.856 12.2437C14.502 12.2314 14.1724 12.3779 13.8794 12.6343L10.9985 15.1978L9.82666 14.1479C9.55811 13.916 9.25293 13.7939 8.95996 13.7939C8.69141 13.7939 8.39844 13.916 8.12988 14.1357L6.44531 15.564L6.44531 16.1133C6.44531 16.6016 6.73828 16.9067 7.23877 16.9067ZM9.83887 12.6343C10.6567 12.6343 11.3281 11.9629 11.3281 11.1328C11.3281 10.3149 10.6567 9.64355 9.83887 9.64355C9.00879 9.64355 8.3374 10.3149 8.3374 11.1328C8.3374 11.9629 9.00879 12.6343 9.83887 12.6343Z" fill="#5ac8f5"/>
 </g>
</svg>
