<?xml version="1.0" encoding="UTF-8"?>
<!--Generator: Apple Native CoreSVG 175.5-->
<!DOCTYPE svg
PUBLIC "-//W3C//DTD SVG 1.1//EN"
       "http://www.w3.org/Graphics/SVG/1.1/DTD/svg11.dtd">
<svg version="1.1" xmlns="http://www.w3.org/2000/svg" xmlns:xlink="http://www.w3.org/1999/xlink" width="28.0295" height="25.9155">
 <g>
  <rect height="25.9155" opacity="0" width="28.0295" x="0" y="0"/>
  <path d="M20.752 5.32227C22.2046 5.32227 23.3887 4.13818 23.3887 2.64893C23.3887 1.18408 22.2046 0 20.752 0C19.2627 0 18.0786 1.18408 18.0786 2.64893C18.0786 4.13818 19.2627 5.32227 20.752 5.32227ZM14.563 25.061L17.041 25.061L17.041 17.1387C17.041 16.8945 16.9678 16.6138 16.7969 16.394L14.0869 12.7441L17.5293 9.28955C17.7612 9.04541 18.103 9.04541 18.335 9.28955L21.6064 12.5854C21.8262 12.8296 22.168 12.9272 22.4854 12.9272C22.8027 12.9272 23.1201 12.8052 23.3521 12.5854L27.0142 8.92334C27.2705 8.66699 27.3804 8.34961 27.3804 8.04443C27.3804 6.95801 26.0376 6.37207 25.2441 7.16553L22.4854 9.92432L17.8223 5.29785C17.2241 4.71191 16.626 4.38232 15.6738 4.38232L10.4858 4.38232C10.0342 4.38232 9.7168 4.50439 9.38721 4.82178L5.83496 8.37402C5.0293 9.17969 5.62744 10.5103 6.70166 10.5103C7.00684 10.5103 7.32422 10.376 7.56836 10.1318L10.8521 6.86035L13.0249 6.86035C13.208 6.86035 13.2812 7.03125 13.1348 7.16553L10.4858 9.82666C9.38721 10.9253 9.375 12.4756 10.4858 13.5864L14.563 17.6514ZM9.021 13.6108L7.2998 15.918L1.23291 15.918C0.561523 15.918 0 16.4551 0 17.1509C0 17.8345 0.561523 18.3716 1.23291 18.3716L7.91016 18.3716C8.26416 18.3716 8.58154 18.2373 8.8623 17.9565L11.0352 15.7959L9.65576 14.4287C9.39941 14.1602 9.19189 13.9038 9.021 13.6108ZM26.0254 21.936C26.0254 22.3145 26.3306 22.6196 26.6846 22.6196C27.063 22.6196 27.3804 22.3145 27.3804 21.936L27.3804 8.04443L26.0254 8.04443ZM0.805664 9.15527C0.427246 9.15527 0.12207 9.46045 0.12207 9.81445C0.12207 10.1929 0.427246 10.5103 0.805664 10.5103L6.70166 10.5103L6.70166 9.15527ZM24.7559 25.8911C26.001 25.8911 26.7456 25.5859 27.6123 25.1709C27.9785 25.0122 28.1128 24.6216 27.9785 24.3164C27.8809 23.9746 27.478 23.7427 27.0386 23.9624C26.3428 24.3164 25.7935 24.5361 24.7559 24.5361L3.40576 24.5361C3.03955 24.5361 2.72217 24.8291 2.72217 25.1953C2.72217 25.5615 3.02734 25.8911 3.40576 25.8911Z" fill="#5ac8f5"/>
 </g>
</svg>
