<?xml version="1.0" encoding="UTF-8"?>
<!--Generator: Apple Native CoreSVG 175.5-->
<!DOCTYPE svg
PUBLIC "-//W3C//DTD SVG 1.1//EN"
       "http://www.w3.org/Graphics/SVG/1.1/DTD/svg11.dtd">
<svg version="1.1" xmlns="http://www.w3.org/2000/svg" xmlns:xlink="http://www.w3.org/1999/xlink" width="21.3954" height="30.0171">
 <g>
  <rect height="30.0171" opacity="0" width="21.3954" x="0" y="0"/>
  <path d="M10.5922 5.34668C12.057 5.34668 13.2533 4.13818 13.2533 2.67334C13.2533 1.2085 12.057 0 10.5922 0C9.12734 0 7.91885 1.2085 7.91885 2.67334C7.91885 4.13818 9.12734 5.34668 10.5922 5.34668ZM0.985252 14.6851C1.62002 14.7949 2.30361 14.4897 2.4623 13.7451L3.4999 9.10645L5.34316 9.10645C5.5751 9.10645 5.74599 9.30176 5.68496 9.53369L4.45205 14.2822C3.93935 16.2109 5.20888 18.1152 7.63808 17.5049L12.1181 16.394L11.2514 20.7153C11.1171 21.3745 11.5565 22.0459 12.2157 22.1924C12.7895 22.3145 13.5341 21.9482 13.6928 21.2158L14.9379 14.978C15.121 14.0747 14.352 13.3911 13.5951 13.4644L9.61562 13.855L10.7875 9.41162C10.8363 9.22852 11.0316 9.10645 11.2147 9.17969L15.7802 10.9131C16.6103 11.2305 17.4525 10.7544 17.4525 9.8877L17.4525 4.12598C17.4525 3.44238 16.9032 2.88086 16.1952 2.88086C15.5116 2.88086 14.9501 3.44238 14.9501 4.12598L14.9501 7.93457L12.6186 7.03125C11.8617 6.75049 11.0316 6.604 10.2016 6.604L2.48672 6.604C1.90078 6.604 1.40029 7.01904 1.27822 7.58057L0.0331033 13.1958C-0.125588 13.8794 0.301658 14.563 0.985252 14.6851ZM6.61269 29.6753C7.18642 29.7974 7.94326 29.4067 8.07754 28.6987L9.32265 22.4609C9.34707 22.3511 9.34707 22.2168 9.34707 22.1069L9.34707 18.3105L7.91885 18.6523C7.36953 18.7988 6.85683 18.8354 6.38076 18.7988L6.84463 22.1558L5.63613 28.186C5.50185 28.8696 5.9291 29.541 6.61269 29.6753ZM11.3734 27.2217L19.4789 27.2217C19.8573 27.2217 20.1625 26.9165 20.1625 26.5381C20.1625 26.1597 19.8573 25.8667 19.4789 25.8667L11.3734 25.8667C10.995 25.8667 10.6898 26.1597 10.6898 26.5381C10.6898 26.9165 10.995 27.2217 11.3734 27.2217ZM10.1161 29.9683L20.7118 29.9683C21.0902 29.9683 21.3954 29.6631 21.3954 29.2847C21.3954 28.9062 21.0902 28.6133 20.7118 28.6133L10.1161 28.6133C9.73769 28.6133 9.44472 28.9062 9.44472 29.2847C9.44472 29.6631 9.73769 29.9683 10.1161 29.9683Z" fill="#5ac8f5"/>
 </g>
</svg>
