<?xml version="1.0" encoding="UTF-8"?>
<!--Generator: Apple Native CoreSVG 175.5-->
<!DOCTYPE svg
PUBLIC "-//W3C//DTD SVG 1.1//EN"
       "http://www.w3.org/Graphics/SVG/1.1/DTD/svg11.dtd">
<svg version="1.1" xmlns="http://www.w3.org/2000/svg" xmlns:xlink="http://www.w3.org/1999/xlink" width="22.4731" height="22.4976">
 <g>
  <rect height="22.4976" opacity="0" width="22.4731" x="0" y="0"/>
  <path d="M3.83301 22.4976L18.6401 22.4976C21.2036 22.4976 22.4731 21.228 22.4731 18.7134L22.4731 3.80859C22.4731 1.29395 21.2036 0.0244141 18.6401 0.0244141L3.83301 0.0244141C1.28174 0.0244141 0 1.28174 0 3.80859L0 18.7134C0 21.2402 1.28174 22.4976 3.83301 22.4976ZM6.40869 16.7603L6.40869 6.49414C6.40869 5.896 6.81152 5.50537 7.40967 5.50537L9.96094 5.50537C12.0605 5.50537 13.0737 6.49414 13.0737 8.76465L13.0737 13.3667C13.0737 13.8428 12.7808 14.1479 12.3291 14.1479C11.8896 14.1479 11.5723 13.8428 11.5723 13.3667L11.5723 8.98438C11.5723 7.53174 10.9741 7.12891 9.59473 7.12891L7.92236 7.12891L7.92236 16.748C7.92236 17.2119 7.62939 17.5415 7.18994 17.5415C6.75049 17.5415 6.40869 17.2241 6.40869 16.7603ZM9.021 16.4185L9.021 9.50928C9.021 9.0332 9.33838 8.74023 9.79004 8.74023C10.2173 8.74023 10.5225 9.0332 10.5225 9.50928L10.5225 15.7715L12.2925 15.7715C13.7085 15.7715 14.1602 15.4907 14.1602 13.8794L14.1602 6.15234C14.1602 5.67627 14.4653 5.37109 14.917 5.37109C15.3687 5.37109 15.6616 5.68848 15.6616 6.15234L15.6616 13.8794C15.6616 16.4062 14.7461 17.395 12.5977 17.395L9.98535 17.395C9.38721 17.395 9.021 17.0166 9.021 16.4185Z" fill="#5ac8f5"/>
 </g>
</svg>
