<?xml version="1.0" encoding="UTF-8"?>
<!--Generator: Apple Native CoreSVG 175.5-->
<!DOCTYPE svg
PUBLIC "-//W3C//DTD SVG 1.1//EN"
       "http://www.w3.org/Graphics/SVG/1.1/DTD/svg11.dtd">
<svg version="1.1" xmlns="http://www.w3.org/2000/svg" xmlns:xlink="http://www.w3.org/1999/xlink" width="24.9023" height="24.9146">
 <g>
  <rect height="24.9146" opacity="0" width="24.9023" x="0" y="0"/>
  <path d="M12.4512 24.9023C19.2627 24.9023 24.9023 19.2505 24.9023 12.4512C24.9023 5.63965 19.2505 0 12.439 0C5.63965 0 0 5.63965 0 12.4512C0 19.2505 5.65186 24.9023 12.4512 24.9023ZM8.83789 18.9575C8.10547 19.519 7.32422 18.9453 7.61719 18.0786L9.0332 13.8184L5.3833 11.2183C4.69971 10.7178 4.93164 9.74121 5.85938 9.75342L10.3394 9.79004L11.7065 5.50537C11.9751 4.66309 12.9272 4.66309 13.1958 5.50537L14.563 9.79004L19.043 9.75342C19.9829 9.74121 20.1904 10.73 19.519 11.2061L15.8691 13.8184L17.2974 18.0786C17.5781 18.9453 16.8091 19.519 16.0645 18.9575L12.4512 16.3208Z" fill="#5ac8f5"/>
 </g>
</svg>
