<?xml version="1.0" encoding="UTF-8"?>
<!--Generator: Apple Native CoreSVG 175.5-->
<!DOCTYPE svg
PUBLIC "-//W3C//DTD SVG 1.1//EN"
       "http://www.w3.org/Graphics/SVG/1.1/DTD/svg11.dtd">
<svg version="1.1" xmlns="http://www.w3.org/2000/svg" xmlns:xlink="http://www.w3.org/1999/xlink" width="22.4731" height="22.4976">
 <g>
  <rect height="22.4976" opacity="0" width="22.4731" x="0" y="0"/>
  <path d="M3.83301 22.4976L18.6401 22.4976C21.2036 22.4976 22.4731 21.228 22.4731 18.7134L22.4731 3.80859C22.4731 1.29395 21.2036 0.0244141 18.6401 0.0244141L3.83301 0.0244141C1.28174 0.0244141 0 1.28174 0 3.80859L0 18.7134C0 21.2402 1.28174 22.4976 3.83301 22.4976Z" fill="#5ac8f5" fill-opacity="0.25"/>
  <path d="M6.86035 16.6748C4.69971 16.6748 3.25928 14.5996 3.25928 11.2427C3.25928 7.88574 4.69971 5.81055 6.86035 5.81055C9.04541 5.81055 10.4614 7.88574 10.4614 11.2427C10.4614 14.5996 9.04541 16.6748 6.86035 16.6748ZM6.86035 15.1367C8.08105 15.1367 8.80127 13.6597 8.80127 11.2427C8.80127 8.82568 8.06885 7.34863 6.86035 7.34863C5.66406 7.34863 4.93164 8.82568 4.93164 11.2427C4.93164 13.6597 5.66406 15.1367 6.86035 15.1367ZM15.6128 16.6748C13.4399 16.6748 12.0117 14.5996 12.0117 11.2427C12.0117 7.88574 13.4399 5.81055 15.6128 5.81055C17.7856 5.81055 19.2139 7.88574 19.2139 11.2427C19.2139 14.5996 17.7856 16.6748 15.6128 16.6748ZM15.6128 15.1367C16.8335 15.1367 17.5537 13.6597 17.5537 11.2427C17.5537 8.82568 16.8213 7.34863 15.6128 7.34863C14.4165 7.34863 13.6841 8.82568 13.6841 11.2427C13.6841 13.6597 14.4165 15.1367 15.6128 15.1367Z" fill="#5ac8f5"/>
 </g>
</svg>
