<?xml version="1.0" encoding="UTF-8"?>
<!--Generator: Apple Native CoreSVG 175.5-->
<!DOCTYPE svg
PUBLIC "-//W3C//DTD SVG 1.1//EN"
       "http://www.w3.org/Graphics/SVG/1.1/DTD/svg11.dtd">
<svg version="1.1" xmlns="http://www.w3.org/2000/svg" xmlns:xlink="http://www.w3.org/1999/xlink" width="24.9023" height="24.9146">
 <g>
  <rect height="24.9146" opacity="0" width="24.9023" x="0" y="0"/>
  <path d="M12.4512 24.9023C19.2627 24.9023 24.9023 19.2505 24.9023 12.4512C24.9023 5.63965 19.2505 0 12.439 0C5.63965 0 0 5.63965 0 12.4512C0 19.2505 5.65186 24.9023 12.4512 24.9023ZM12.4512 22.8271C6.68945 22.8271 2.0874 18.2129 2.0874 12.4512C2.0874 6.68945 6.67725 2.0752 12.439 2.0752C18.2007 2.0752 22.8271 6.68945 22.8271 12.4512C22.8271 18.2129 18.2129 22.8271 12.4512 22.8271ZM7.06787 18.689C7.61719 19.2383 8.23975 19.1895 8.77686 18.5791L14.3921 12.1948L12.5977 10.4004L6.20117 15.979C5.56641 16.5283 5.52979 17.1387 6.0791 17.688ZM17.8345 13.4766C18.0908 13.7207 18.3716 13.7451 18.6279 13.501L20.4468 11.6943C20.6909 11.4624 20.6787 11.1572 20.4346 10.9009L19.9829 10.4614C19.7388 10.2173 19.6045 10.1807 19.3359 10.2051L18.6401 10.2783L18.1763 9.83887L18.3838 8.98438C18.4937 8.56934 18.335 8.14209 17.8955 7.69043L16.6748 6.49414C14.9902 4.82178 11.8896 4.63867 10.1807 6.35986C9.87549 6.65283 9.92432 6.95801 10.1074 7.17773C10.2661 7.31201 10.4858 7.38525 10.6934 7.2998C11.8652 6.95801 12.8906 6.89697 13.7695 7.42188L13.3057 8.64258C13.1104 9.16748 13.208 9.53369 13.5376 9.86328L14.8804 11.2061C15.1367 11.4624 15.4053 11.5234 15.7959 11.4502L16.7603 11.2427L17.2241 11.7188L17.1509 12.4023C17.1265 12.6709 17.1509 12.8418 17.3828 13.0615Z" fill="#5ac8f5"/>
 </g>
</svg>
