<?xml version="1.0" encoding="UTF-8"?>
<!--Generator: Apple Native CoreSVG 175.5-->
<!DOCTYPE svg
PUBLIC "-//W3C//DTD SVG 1.1//EN"
       "http://www.w3.org/Graphics/SVG/1.1/DTD/svg11.dtd">
<svg version="1.1" xmlns="http://www.w3.org/2000/svg" xmlns:xlink="http://www.w3.org/1999/xlink" width="24.9023" height="24.9146">
 <g>
  <rect height="24.9146" opacity="0" width="24.9023" x="0" y="0"/>
  <path d="M12.4512 24.9023C19.2627 24.9023 24.9023 19.2505 24.9023 12.4512C24.9023 5.63965 19.2505 0 12.439 0C5.63965 0 0 5.63965 0 12.4512C0 19.2505 5.65186 24.9023 12.4512 24.9023ZM12.4512 22.8271C6.68945 22.8271 2.0874 18.2129 2.0874 12.4512C2.0874 6.68945 6.67725 2.0752 12.439 2.0752C18.2007 2.0752 22.8271 6.68945 22.8271 12.4512C22.8271 18.2129 18.2129 22.8271 12.4512 22.8271ZM12.4512 6.23779C11.9263 6.23779 11.5356 6.61621 11.5356 7.15332L11.5356 13.2568L11.6333 15.8325L10.4126 14.3677L8.95996 12.9028C8.78906 12.7319 8.56934 12.6343 8.31299 12.6343C7.8125 12.6343 7.43408 13.0127 7.43408 13.5132C7.43408 13.7695 7.50732 13.9893 7.66602 14.1479L11.7432 18.2007C11.9873 18.4448 12.1948 18.5547 12.4512 18.5547C12.7197 18.5547 12.9395 18.4326 13.1714 18.2007L17.2363 14.1479C17.395 13.9893 17.4927 13.7695 17.4927 13.5132C17.4927 13.0127 17.1021 12.6343 16.6016 12.6343C16.333 12.6343 16.1133 12.7197 15.9546 12.9028L14.5142 14.3677L13.269 15.8447L13.3667 13.2568L13.3667 7.15332C13.3667 6.61621 12.9883 6.23779 12.4512 6.23779Z" fill="#5ac8f5"/>
 </g>
</svg>
