<?xml version="1.0" encoding="UTF-8"?>
<!--Generator: Apple Native CoreSVG 175.5-->
<!DOCTYPE svg
PUBLIC "-//W3C//DTD SVG 1.1//EN"
       "http://www.w3.org/Graphics/SVG/1.1/DTD/svg11.dtd">
<svg version="1.1" xmlns="http://www.w3.org/2000/svg" xmlns:xlink="http://www.w3.org/1999/xlink" width="24.9023" height="24.9146">
 <g>
  <rect height="24.9146" opacity="0" width="24.9023" x="0" y="0"/>
  <path d="M12.4512 24.9146C19.2627 24.9146 24.9023 19.2749 24.9023 12.4634C24.9023 5.66406 19.2505 0.012207 12.439 0.012207C5.63965 0.012207 0 5.66406 0 12.4634C0 19.2749 5.65186 24.9146 12.4512 24.9146ZM10.4126 9.94873C9.99756 9.44824 9.35059 9.15527 8.6792 9.15527C8.25195 9.15527 7.83691 9.27734 7.49512 9.46045C7.33643 9.17969 7.27539 8.91113 7.27539 8.60596C7.27539 7.65381 8.04443 6.90918 8.98438 6.93359C8.98438 6.50635 9.375 6.06689 9.85107 6.11572C9.97314 5.56641 10.5347 5.05371 11.4136 5.05371C12.0728 5.05371 12.6587 5.41992 12.915 6.01807C13.0981 5.98145 13.3057 5.99365 13.4521 6.04248C13.7573 5.77393 14.1357 5.61523 14.563 5.61523C15.2344 5.61523 15.7104 6.01807 15.9668 6.62842C16.9434 6.64062 17.627 7.39746 17.627 8.45947C17.627 8.81348 17.5171 9.16748 17.3218 9.46045C16.98 9.26514 16.5771 9.15527 16.1621 9.15527C15.4907 9.15527 14.8315 9.44824 14.4165 9.94873C13.9771 9.31396 13.1958 8.95996 12.4146 8.95996C11.6455 8.95996 10.8643 9.31396 10.4126 9.94873ZM10.0098 19.6411C9.11865 19.6411 8.70361 19.1284 8.53271 18.2617L7.31201 11.853C7.09229 10.6689 7.87354 10.0586 8.6792 10.0586C9.33838 10.0586 9.97314 10.4736 10.0342 11.2793L10.791 19.6411ZM11.6577 19.6411L10.9131 11.4136C10.8276 10.2905 11.7432 9.85107 12.4146 9.85107C13.0859 9.85107 14.0137 10.2905 13.9282 11.4136L13.1836 19.6411ZM14.8315 19.6411L14.0503 19.6411L14.8071 11.2793C14.8682 10.4736 15.5029 10.0586 16.1621 10.0586C16.9678 10.0586 17.749 10.6689 17.5293 11.853L16.3086 18.2617C16.1377 19.1284 15.7227 19.6411 14.8315 19.6411Z" fill="#5ac8f5"/>
 </g>
</svg>
