<?xml version="1.0" encoding="UTF-8"?>
<!--Generator: Apple Native CoreSVG 175.5-->
<!DOCTYPE svg
PUBLIC "-//W3C//DTD SVG 1.1//EN"
       "http://www.w3.org/Graphics/SVG/1.1/DTD/svg11.dtd">
<svg version="1.1" xmlns="http://www.w3.org/2000/svg" xmlns:xlink="http://www.w3.org/1999/xlink" width="22.4731" height="22.4976">
 <g>
  <rect height="22.4976" opacity="0" width="22.4731" x="0" y="0"/>
  <path d="M3.83301 22.4976L18.6401 22.4976C21.2036 22.4976 22.4731 21.228 22.4731 18.7134L22.4731 3.80859C22.4731 1.29395 21.2036 0.0244141 18.6401 0.0244141L3.83301 0.0244141C1.28174 0.0244141 0 1.28174 0 3.80859L0 18.7134C0 21.2402 1.28174 22.4976 3.83301 22.4976ZM3.85742 20.5322C2.63672 20.5322 1.96533 19.8853 1.96533 18.6157L1.96533 3.90625C1.96533 2.63672 2.63672 1.98975 3.85742 1.98975L18.6157 1.98975C19.8242 1.98975 20.5078 2.63672 20.5078 3.90625L20.5078 18.6157C20.5078 19.8853 19.8242 20.5322 18.6157 20.5322Z" fill="#5ac8f5" fill-opacity="0.5"/>
  <path d="M6.7627 10.5469C6.7627 10.8765 7.01904 11.145 7.36084 11.145L8.10547 11.145L8.10547 16.5649C8.10547 17.0288 8.45947 17.3584 8.91113 17.3584C9.375 17.3584 9.70459 17.0288 9.70459 16.5649L9.70459 13.4399L11.8408 13.4399C13.501 13.4399 14.7827 12.5488 15.332 11.145L16.1499 11.145C16.5039 11.145 16.748 10.8765 16.748 10.5469C16.748 10.1807 16.5039 9.93652 16.1499 9.93652L15.6006 9.93652C15.6128 9.81445 15.6128 9.68018 15.6128 9.55811C15.6128 9.42383 15.6128 9.31396 15.6006 9.16748L16.1499 9.16748C16.5039 9.16748 16.748 8.89893 16.748 8.55713C16.748 8.20312 16.5039 7.95898 16.1499 7.95898L15.3198 7.95898C14.7827 6.57959 13.501 5.68848 11.8408 5.68848L8.88672 5.68848C8.41064 5.68848 8.10547 6.00586 8.10547 6.50635L8.10547 7.95898L7.36084 7.95898C7.01904 7.95898 6.7627 8.20312 6.7627 8.55713C6.7627 8.89893 7.01904 9.16748 7.36084 9.16748L8.10547 9.16748L8.10547 9.93652L7.36084 9.93652C7.01904 9.93652 6.7627 10.1807 6.7627 10.5469ZM9.7168 11.9873L9.7168 11.145L13.5498 11.145C13.1348 11.6821 12.4634 11.9873 11.5845 11.9873ZM9.7168 9.93652L9.7168 9.16748L14.0259 9.16748C14.0381 9.28955 14.0381 9.41162 14.0381 9.55811C14.0381 9.68018 14.0381 9.81445 14.0259 9.93652ZM9.7168 7.95898L9.7168 7.14111L11.5845 7.14111C12.4634 7.14111 13.1348 7.43408 13.5376 7.95898Z" fill="#5ac8f5"/>
 </g>
</svg>
