<?xml version="1.0" encoding="UTF-8"?>
<!--Generator: Apple Native CoreSVG 175.5-->
<!DOCTYPE svg
PUBLIC "-//W3C//DTD SVG 1.1//EN"
       "http://www.w3.org/Graphics/SVG/1.1/DTD/svg11.dtd">
<svg version="1.1" xmlns="http://www.w3.org/2000/svg" xmlns:xlink="http://www.w3.org/1999/xlink" width="27.8687" height="30.6443">
 <g>
  <rect height="30.6443" opacity="0" width="27.8687" x="0" y="0"/>
  <path d="M16.8701 24.3615L14.0991 24.3615L14.0747 24.9108L15.564 22.0543C15.7104 21.7858 15.6006 21.5783 15.332 21.5783L12.6831 21.5783C12.3291 21.5783 12.207 21.7003 12.0972 21.9567L10.437 25.7409C10.3027 26.046 10.437 26.2291 10.7544 26.2291L13.0127 26.2291L13.1714 25.5089L11.2061 30.2819C11.145 30.4406 11.1816 30.5748 11.2915 30.6237C11.4014 30.6725 11.5356 30.6359 11.6699 30.5016L17.0654 24.9718C17.3218 24.7033 17.2241 24.3615 16.8701 24.3615Z" fill="#5ac8f5" fill-opacity="0.5"/>
  <path d="M5.7373 19.8327L20.8862 19.8327C24.8901 19.8327 27.8687 16.7931 27.8687 13.0333C27.8687 9.1393 24.6948 6.29506 20.5566 6.29506C19.0308 3.27993 16.1987 1.33901 12.6709 1.33901C8.08105 1.33901 4.29688 4.94008 3.89404 9.46889C1.68457 10.1159 0 12.0324 0 14.6081C0 17.5011 2.09961 19.8327 5.7373 19.8327ZM5.71289 17.8795C3.21045 17.8795 1.95312 16.4757 1.95312 14.6691C1.95312 13.2042 2.80762 11.8859 4.88281 11.3366C5.5542 11.1535 5.79834 10.8361 5.85938 10.1525C6.14014 6.16079 9.13086 3.29213 12.6709 3.29213C15.4175 3.29213 17.5781 4.80581 18.8965 7.50356C19.1772 8.1017 19.5435 8.30922 20.2637 8.30922C23.877 8.30922 25.9155 10.4821 25.9155 13.0822C25.9155 15.7433 23.7915 17.8795 21.0083 17.8795Z" fill="#5ac8f5"/>
 </g>
</svg>
