<?xml version="1.0" encoding="UTF-8"?>
<!--Generator: Apple Native CoreSVG 175.5-->
<!DOCTYPE svg
PUBLIC "-//W3C//DTD SVG 1.1//EN"
       "http://www.w3.org/Graphics/SVG/1.1/DTD/svg11.dtd">
<svg version="1.1" xmlns="http://www.w3.org/2000/svg" xmlns:xlink="http://www.w3.org/1999/xlink" width="19.0552" height="23.0591">
 <g>
  <rect height="23.0591" opacity="0" width="19.0552" x="0" y="0"/>
  <path d="M16.4673 23.0591C17.1753 23.0591 17.7612 23.0469 18.1396 22.9736C18.6157 22.8638 19.0552 22.5586 19.0552 21.936C19.0552 21.3013 18.5913 20.8984 17.9688 20.8984C17.5415 20.8984 17.1509 20.9229 16.5771 20.9229C12.2437 20.9229 10.3149 19.4458 10.3271 15.0269L10.3394 6.67725L10.2417 3.35693L12.6831 6.04248L16.687 10.0464C16.8823 10.2417 17.1631 10.3394 17.4561 10.3394C18.0664 10.3394 18.5059 9.87549 18.5059 9.27734C18.5059 8.98438 18.4082 8.72803 18.1763 8.48389L10.0708 0.366211C9.83887 0.12207 9.55811 0 9.25293 0C8.94775 0 8.66699 0.12207 8.43506 0.366211L0.341797 8.48389C0.109863 8.72803 0 8.98438 0 9.27734C0 9.87549 0.439453 10.3394 1.0498 10.3394C1.34277 10.3394 1.63574 10.2417 1.81885 10.0464L5.82275 6.04248L8.25195 3.36914L8.1665 6.67725L8.1665 15.1367C8.1665 20.813 10.8276 23.0591 16.4673 23.0591Z" fill="#5ac8f5"/>
 </g>
</svg>
