<?xml version="1.0" encoding="UTF-8"?>
<!--Generator: Apple Native CoreSVG 175.5-->
<!DOCTYPE svg
PUBLIC "-//W3C//DTD SVG 1.1//EN"
       "http://www.w3.org/Graphics/SVG/1.1/DTD/svg11.dtd">
<svg version="1.1" xmlns="http://www.w3.org/2000/svg" xmlns:xlink="http://www.w3.org/1999/xlink" width="20.0343" height="21.6431">
 <g>
  <rect height="21.6431" opacity="0" width="20.0343" x="0" y="0"/>
  <path d="M4.47038 15.7471C6.92399 15.7471 8.75504 13.6353 8.30338 10.9131L7.50993 6.11572C7.40006 5.44434 7.6442 4.99268 8.30338 4.6875C9.96354 3.90625 11.526 3.49121 13.5768 3.17383C14.8464 2.99072 15.4933 2.05078 15.4933 0.793457C15.4933 0.280762 15.237 0 14.4435 0C11.8434 0 9.26774 0.415039 6.63102 1.33057C2.18766 2.86865-0.571129 5.59082 0.100258 9.24072L0.747231 12.7441C1.12565 14.7949 2.85905 15.7471 4.47038 15.7471ZM4.47038 13.8794C3.32291 13.8794 2.41959 12.9883 2.41959 11.8408C2.41959 10.6934 3.32291 9.80225 4.47038 9.80225C5.60563 9.80225 6.49674 10.7056 6.49674 11.8408C6.49674 12.9761 5.60563 13.8794 4.47038 13.8794ZM4.47038 13.0127C5.11735 13.0127 5.63004 12.5 5.63004 11.8408C5.63004 11.1938 5.11735 10.6689 4.47038 10.6689C3.79899 10.6689 3.28629 11.1938 3.28629 11.8408C3.28629 12.5 3.79899 13.0127 4.47038 13.0127ZM4.47038 16.9312C2.59049 16.9312 0.979164 15.979 0.136879 14.4775C0.393227 18.5425 4.06754 20.5688 8.23014 20.5688C9.32877 20.5688 10.1344 20.4224 10.9035 20.0317C12.4782 17.2852 13.589 14.4165 14.297 11.3159C13.4914 9.61914 11.5993 8.5083 8.98698 7.83691L9.47526 10.7178C10.0368 14.0869 7.72965 16.9312 4.47038 16.9312ZM20.0343 16.4185C20.0343 13.5742 17.7882 11.6821 15.4811 11.4502C14.7365 14.7461 13.5402 17.8467 11.8434 20.7397C12.527 21.2158 13.6379 21.6187 14.8708 21.6187C17.9714 21.6187 20.0343 19.5312 20.0343 16.4185Z" fill="#5ac8f5"/>
 </g>
</svg>
