<?xml version="1.0" encoding="UTF-8"?>
<!--Generator: Apple Native CoreSVG 175.5-->
<!DOCTYPE svg
PUBLIC "-//W3C//DTD SVG 1.1//EN"
       "http://www.w3.org/Graphics/SVG/1.1/DTD/svg11.dtd">
<svg version="1.1" xmlns="http://www.w3.org/2000/svg" xmlns:xlink="http://www.w3.org/1999/xlink" width="22.5098" height="22.4243">
 <g>
  <rect height="22.4243" opacity="0" width="22.5098" x="0" y="0"/>
  <path d="M1.42822 1.46484C0.231934 2.66113 0 4.32129 0 6.29883L0 6.4209L1.96533 6.4209L1.96533 6.22559C1.96533 4.94385 2.12402 3.62549 2.85645 2.89307C3.60107 2.14844 4.93164 1.98975 6.21338 1.98975L6.43311 1.98975L6.43311 0.0244141L6.28662 0.0244141C4.30908 0.0244141 2.63672 0.256348 1.42822 1.46484ZM8.10547 1.98975L14.4043 1.98975L14.4043 0.0244141L8.10547 0.0244141ZM21.0815 1.46484C19.873 0.256348 18.2007 0.0244141 16.1865 0.0244141L16.0645 0.0244141L16.0645 1.98975L16.333 1.98975C17.5903 1.98975 18.9087 2.16064 19.6411 2.89307C20.3857 3.6377 20.5444 4.93164 20.5444 6.18896L20.5444 6.4209L22.5098 6.4209L22.5098 6.33545C22.5098 4.30908 22.2778 2.64893 21.0815 1.46484ZM20.5444 14.3555L22.5098 14.3555L22.5098 8.09326L20.5444 8.09326ZM21.0815 20.9839C22.2778 19.7876 22.5098 18.1396 22.5098 16.1133L22.5098 16.0278L20.5444 16.0278L20.5444 16.2476C20.5444 17.5171 20.3857 18.811 19.6411 19.5557C18.9087 20.2881 17.5903 20.459 16.333 20.459L16.0645 20.459L16.0645 22.4243L16.1865 22.4243C18.2007 22.4243 19.873 22.1924 21.0815 20.9839ZM8.10547 22.4243L14.4043 22.4243L14.4043 20.459L8.10547 20.459ZM1.42822 20.9839C2.63672 22.1924 4.30908 22.4243 6.31104 22.4243L6.43311 22.4243L6.43311 20.459L6.17676 20.459C4.91943 20.459 3.60107 20.2881 2.85645 19.5557C2.12402 18.811 1.96533 17.5171 1.96533 16.2476L1.96533 16.0278L0 16.0278L0 16.1133C0 18.1396 0.231934 19.7876 1.42822 20.9839ZM0 14.3555L1.96533 14.3555L1.96533 8.09326L0 8.09326Z" fill="#5ac8f5" fill-opacity="0.5"/>
  <path d="M11.0229 13.7329C11.6333 13.7329 11.9995 13.3423 11.9995 12.8662C11.9995 12.8174 11.9995 12.7563 11.9995 12.7197C11.9995 12.0361 12.4023 11.5967 13.2446 11.0352C14.4287 10.2539 15.271 9.5459 15.271 8.08105C15.271 6.05469 13.4766 4.95605 11.4014 4.95605C9.30176 4.95605 7.92236 5.95703 7.58057 7.08008C7.51953 7.27539 7.48291 7.4707 7.48291 7.67822C7.48291 8.22754 7.91016 8.52051 8.3252 8.52051C8.74023 8.52051 8.99658 8.3252 9.21631 8.03223L9.43604 7.73926C9.86328 7.03125 10.5103 6.61621 11.3159 6.61621C12.4268 6.61621 13.1592 7.25098 13.1592 8.17871C13.1592 9.00879 12.6343 9.41162 11.5723 10.1562C10.6934 10.7666 10.0464 11.4136 10.0464 12.6099C10.0464 12.6587 10.0464 12.7197 10.0464 12.7686C10.0464 13.4033 10.3882 13.7329 11.0229 13.7329ZM10.9863 17.3706C11.6943 17.3706 12.3047 16.8091 12.3047 16.1011C12.3047 15.3931 11.7065 14.8315 10.9863 14.8315C10.2661 14.8315 9.66797 15.4053 9.66797 16.1011C9.66797 16.7969 10.2783 17.3706 10.9863 17.3706Z" fill="#5ac8f5"/>
 </g>
</svg>
