<?xml version="1.0" encoding="UTF-8"?>
<!--Generator: Apple Native CoreSVG 175.5-->
<!DOCTYPE svg
PUBLIC "-//W3C//DTD SVG 1.1//EN"
       "http://www.w3.org/Graphics/SVG/1.1/DTD/svg11.dtd">
<svg version="1.1" xmlns="http://www.w3.org/2000/svg" xmlns:xlink="http://www.w3.org/1999/xlink" width="28.7842" height="22.4976">
 <g>
  <rect height="22.4976" opacity="0" width="28.7842" x="0" y="0"/>
  <path d="M23.1201 17.2607C24.1455 17.2607 24.8169 16.5771 24.8169 15.5518C24.8169 14.5508 24.1455 13.8794 23.1201 13.8794L22.5098 13.8794L22.5098 12.5854L23.1201 12.5854C24.1455 12.5854 24.8169 11.9263 24.8169 10.9253C24.8169 9.8999 24.1455 9.21631 23.1201 9.21631C22.1069 9.21631 21.4478 9.8999 21.4478 10.9253L21.4478 11.5356L20.1904 11.5356L20.1904 10.9253C20.1904 9.8999 19.5312 9.21631 18.5181 9.21631C17.4927 9.21631 16.8213 9.8999 16.8213 10.9253C16.8213 11.9263 17.4927 12.5854 18.5181 12.5854L19.1162 12.5854L19.1162 13.8794L18.5181 13.8794C17.4927 13.8794 16.8213 14.5508 16.8213 15.5518C16.8213 16.5771 17.4927 17.2607 18.5181 17.2607C19.5312 17.2607 20.1904 16.5771 20.1904 15.5518L20.1904 14.9536L21.4478 14.9536L21.4478 15.5518C21.4478 16.5771 22.1069 17.2607 23.1201 17.2607ZM22.5098 14.9292L23.1201 14.9292C23.5107 14.9292 23.7549 15.1855 23.7549 15.5518C23.7549 15.9424 23.5107 16.1987 23.1201 16.1987C22.7539 16.1987 22.5098 15.9424 22.5098 15.5518ZM19.1162 14.9292L19.1162 15.5518C19.1162 15.918 18.8599 16.1987 18.5181 16.1987C18.1274 16.1987 17.8833 15.9424 17.8833 15.5518C17.8833 15.1855 18.1274 14.9292 18.5181 14.9292ZM21.4478 13.9038L20.1904 13.9038L20.1904 12.5854L21.4478 12.5854ZM22.5098 11.5356L22.5098 10.9253C22.5098 10.5347 22.7539 10.2783 23.1201 10.2783C23.5107 10.2783 23.7549 10.5347 23.7549 10.9253C23.7549 11.2915 23.5107 11.5356 23.1201 11.5356ZM19.1162 11.5356L18.5181 11.5356C18.1274 11.5356 17.8833 11.2915 17.8833 10.9253C17.8833 10.5347 18.1274 10.2783 18.5181 10.2783C18.8721 10.2783 19.1162 10.5347 19.1162 10.9253ZM4.74854 10.2295C4.74854 10.6323 5.07812 10.9497 5.46875 10.9497L12.915 10.9497C13.3057 10.9497 13.623 10.6323 13.623 10.2295C13.623 9.82666 13.3057 9.49707 12.915 9.49707L5.46875 9.49707C5.07812 9.49707 4.74854 9.82666 4.74854 10.2295ZM4.74854 13.2446C4.74854 13.6475 5.07812 13.9771 5.46875 13.9771L12.915 13.9771C13.3057 13.9771 13.623 13.6475 13.623 13.2446C13.623 12.8418 13.3057 12.5244 12.915 12.5244L5.46875 12.5244C5.07812 12.5244 4.74854 12.8418 4.74854 13.2446ZM4.74854 16.272C4.74854 16.6748 5.07812 16.9922 5.46875 16.9922L12.915 16.9922C13.3057 16.9922 13.623 16.6748 13.623 16.272C13.623 15.8569 13.3057 15.5396 12.915 15.5396L5.46875 15.5396C5.07812 15.5396 4.74854 15.8569 4.74854 16.272ZM0 18.7134C0 21.2402 1.28174 22.4976 3.83301 22.4976L24.9512 22.4976C27.5146 22.4976 28.7842 21.228 28.7842 18.7134L28.7842 3.80859C28.7842 1.29395 27.5146 0.0244141 24.9512 0.0244141L3.83301 0.0244141C1.28174 0.0244141 0 1.28174 0 3.80859ZM3.86963 4.18701C3.27148 4.18701 2.7832 3.67432 2.7832 3.10059C2.7832 2.52686 3.27148 2.01416 3.86963 2.01416C4.46777 2.01416 4.96826 2.52686 4.96826 3.10059C4.96826 3.67432 4.46777 4.18701 3.86963 4.18701ZM7.37305 4.18701C6.7749 4.18701 6.28662 3.67432 6.28662 3.10059C6.28662 2.52686 6.7749 2.01416 7.37305 2.01416C7.97119 2.01416 8.47168 2.52686 8.47168 3.10059C8.47168 3.67432 7.97119 4.18701 7.37305 4.18701ZM10.8765 4.18701C10.2783 4.18701 9.79004 3.67432 9.79004 3.10059C9.79004 2.52686 10.2783 2.01416 10.8765 2.01416C11.4746 2.01416 11.9629 2.52686 11.9629 3.10059C11.9629 3.67432 11.4746 4.18701 10.8765 4.18701ZM1.96533 18.6157L1.96533 6.17676L26.8188 6.17676L26.8188 18.6157C26.8188 19.8853 26.1353 20.5322 24.9268 20.5322L3.85742 20.5322C2.63672 20.5322 1.96533 19.8853 1.96533 18.6157Z" fill="#5ac8f5"/>
 </g>
</svg>
