<?xml version="1.0" encoding="UTF-8"?>
<!--Generator: Apple Native CoreSVG 175.5-->
<!DOCTYPE svg
PUBLIC "-//W3C//DTD SVG 1.1//EN"
       "http://www.w3.org/Graphics/SVG/1.1/DTD/svg11.dtd">
<svg version="1.1" xmlns="http://www.w3.org/2000/svg" xmlns:xlink="http://www.w3.org/1999/xlink" width="24.9023" height="24.9146">
 <g>
  <rect height="24.9146" opacity="0" width="24.9023" x="0" y="0"/>
  <path d="M12.4512 24.9023C19.2627 24.9023 24.9023 19.2505 24.9023 12.4512C24.9023 5.63965 19.2505 0 12.439 0C5.63965 0 0 5.63965 0 12.4512C0 19.2505 5.65186 24.9023 12.4512 24.9023Z" fill="#5ac8f5" fill-opacity="0.25"/>
  <path d="M9.22852 7.10449C9.32617 7.08008 9.42383 7.06787 9.52148 7.06787C10.8276 7.06787 11.8408 7.8125 12.4512 8.92334C13.0493 7.8125 14.0869 7.06787 15.3809 7.06787C17.4438 7.06787 18.9453 8.63037 18.9453 10.791C18.9453 12.3047 18.1641 13.7207 17.1021 14.9902ZM14.978 17.0654C14.3188 17.627 13.6353 18.1274 13.0493 18.5425C12.8662 18.6768 12.6221 18.8354 12.4756 18.8354C12.3169 18.8354 12.0483 18.6646 11.8408 18.5425C9.30176 17.0044 5.95703 14.0015 5.95703 10.791C5.95703 9.97314 6.17676 9.24072 6.55518 8.65479ZM18.2007 18.9819L5.896 6.67725C5.68848 6.46973 5.68848 6.11572 5.896 5.896C6.11572 5.67627 6.46973 5.67627 6.68945 5.896L18.9819 18.2007C19.2139 18.4204 19.2139 18.7622 18.9819 18.9819C18.7744 19.1895 18.4204 19.1895 18.2007 18.9819Z" fill="#5ac8f5"/>
 </g>
</svg>
