<?xml version="1.0" encoding="UTF-8"?>
<!--Generator: Apple Native CoreSVG 175.5-->
<!DOCTYPE svg
PUBLIC "-//W3C//DTD SVG 1.1//EN"
       "http://www.w3.org/Graphics/SVG/1.1/DTD/svg11.dtd">
<svg version="1.1" xmlns="http://www.w3.org/2000/svg" xmlns:xlink="http://www.w3.org/1999/xlink" width="24.9023" height="24.9146">
 <g>
  <rect height="24.9146" opacity="0" width="24.9023" x="0" y="0"/>
  <path d="M12.4512 24.9146C19.2627 24.9146 24.9023 19.2749 24.9023 12.4634C24.9023 5.66406 19.2505 0.012207 12.439 0.012207C5.63965 0.012207 0 5.66406 0 12.4634C0 19.2749 5.65186 24.9146 12.4512 24.9146Z" fill="#5ac8f5" fill-opacity="0.25"/>
  <path d="M8.1665 13.5742C7.50732 12.6587 7.1167 11.5356 7.1167 10.2783C7.1167 7.92236 8.43506 5.88379 10.3882 5.07812C10.6934 4.95605 10.9619 4.99268 11.0962 5.15137C11.2061 5.32227 11.2305 5.5542 11.0962 5.81055C10.8887 6.21338 10.7666 6.98242 10.7666 7.71484C10.7666 10.4248 12.5488 12.1582 15.332 12.1582C16.0156 12.1582 16.6016 12.0605 17.0776 11.8652C17.334 11.7676 17.5293 11.8042 17.6636 11.9141C17.8101 12.0728 17.8345 12.3169 17.7246 12.5854C17.5659 12.9517 17.3828 13.2935 17.1387 13.5742ZM6.27441 15.3809C6.01807 15.3809 5.83496 15.1978 5.83496 14.9414C5.83496 14.6851 6.01807 14.502 6.27441 14.502L19.7876 14.502C20.0439 14.502 20.2271 14.6851 20.2271 14.9414C20.2271 15.1978 20.0439 15.3809 19.7876 15.3809ZM5.10254 17.1143C4.84619 17.1143 4.65088 16.9189 4.65088 16.6626C4.65088 16.4185 4.84619 16.2231 5.10254 16.2231L18.6035 16.2231C18.8599 16.2231 19.043 16.4185 19.043 16.6626C19.043 16.9189 18.8599 17.1143 18.6035 17.1143ZM6.27441 18.8354C6.01807 18.8354 5.83496 18.6523 5.83496 18.396C5.83496 18.1396 6.01807 17.9565 6.27441 17.9565L19.7876 17.9565C20.0439 17.9565 20.2271 18.1396 20.2271 18.396C20.2271 18.6523 20.0439 18.8354 19.7876 18.8354Z" fill="#5ac8f5"/>
 </g>
</svg>
