<?xml version="1.0" encoding="UTF-8"?>
<!--Generator: Apple Native CoreSVG 175.5-->
<!DOCTYPE svg
PUBLIC "-//W3C//DTD SVG 1.1//EN"
       "http://www.w3.org/Graphics/SVG/1.1/DTD/svg11.dtd">
<svg version="1.1" xmlns="http://www.w3.org/2000/svg" xmlns:xlink="http://www.w3.org/1999/xlink" width="23.2422" height="22.4976">
 <g>
  <rect height="22.4976" opacity="0" width="23.2422" x="0" y="0"/>
  <path d="M3.83301 22.4976L19.4092 22.4976C21.9604 22.4976 23.2422 21.228 23.2422 18.7134L23.2422 3.80859C23.2422 1.29395 21.9604 0.0244141 19.4092 0.0244141L3.83301 0.0244141C1.28174 0.0244141 0 1.28174 0 3.80859L0 18.7134C0 21.2402 1.28174 22.4976 3.83301 22.4976ZM3.85742 20.5322C2.63672 20.5322 1.96533 19.8853 1.96533 18.6157L1.96533 3.90625C1.96533 2.63672 2.63672 1.98975 3.85742 1.98975L19.3726 1.98975C20.5811 1.98975 21.2769 2.63672 21.2769 3.90625L21.2769 18.6157C21.2769 19.8853 20.5811 20.5322 19.3726 20.5322ZM7.38525 11.1328C7.9834 11.1328 8.47168 10.6689 8.47168 10.0464L8.47168 6.26221C8.47168 5.66406 7.9834 5.17578 7.38525 5.17578C6.7749 5.17578 6.31104 5.66406 6.31104 6.26221L6.31104 10.0464C6.31104 10.6689 6.7749 11.1328 7.38525 11.1328ZM10.1685 18.0298L13.0737 18.0298C13.4521 18.0298 13.6475 17.8467 13.6475 17.4683L13.6475 16.0889C13.6475 14.9536 12.7563 14.0503 11.6211 14.0503C10.4736 14.0503 9.59473 14.9536 9.59473 16.0889L9.59473 17.4683C9.59473 17.8467 9.79004 18.0298 10.1685 18.0298ZM15.8325 11.1328C16.4429 11.1328 16.9312 10.6689 16.9312 10.0464L16.9312 6.26221C16.9312 5.66406 16.4429 5.17578 15.8325 5.17578C15.2222 5.17578 14.7583 5.66406 14.7583 6.26221L14.7583 10.0464C14.7583 10.6689 15.2222 11.1328 15.8325 11.1328Z" fill="#5ac8f5"/>
 </g>
</svg>
