<?xml version="1.0" encoding="UTF-8"?>
<!--Generator: Apple Native CoreSVG 175.5-->
<!DOCTYPE svg
PUBLIC "-//W3C//DTD SVG 1.1//EN"
       "http://www.w3.org/Graphics/SVG/1.1/DTD/svg11.dtd">
<svg version="1.1" xmlns="http://www.w3.org/2000/svg" xmlns:xlink="http://www.w3.org/1999/xlink" width="21.4111" height="28.3569">
 <g>
  <rect height="28.3569" opacity="0" width="21.4111" x="0" y="0"/>
  <path d="M3.83301 28.3569L17.9443 28.3569C20.1294 28.3569 21.4111 27.0874 21.4111 24.5728L21.4111 10.73C21.4111 8.21533 20.1172 6.9458 17.5781 6.9458L3.83301 6.9458C1.28174 6.9458 0 8.20312 0 10.73L0 24.5728C0 27.0874 1.28174 28.3569 3.83301 28.3569ZM2.66113 4.98047L18.7378 4.98047C18.5547 3.86963 18.0298 3.25928 16.8091 3.25928L4.58984 3.25928C3.36914 3.25928 2.84424 3.86963 2.66113 4.98047ZM4.78516 1.59912L16.626 1.59912C16.5527 0.561523 15.9546 0.0244141 14.8315 0.0244141L6.56738 0.0244141C5.44434 0.0244141 4.8584 0.561523 4.78516 1.59912Z" fill="#5ac8f5"/>
 </g>
</svg>
