<?xml version="1.0" encoding="UTF-8"?>
<!--Generator: Apple Native CoreSVG 175.5-->
<!DOCTYPE svg
PUBLIC "-//W3C//DTD SVG 1.1//EN"
       "http://www.w3.org/Graphics/SVG/1.1/DTD/svg11.dtd">
<svg version="1.1" xmlns="http://www.w3.org/2000/svg" xmlns:xlink="http://www.w3.org/1999/xlink" width="28.5767" height="23.8892">
 <g>
  <rect height="23.8892" opacity="0" width="28.5767" x="0" y="0"/>
  <path d="M14.2822 0C6.16455 0 0 2.51465 0 7.51953L0 7.53174C0 9.33838 0.964355 9.74121 2.63672 9.57031L7.03125 9.09424C8.66699 8.92334 8.98438 8.10547 8.98438 6.79932L8.98438 6.49414C8.98438 5.46875 10.6201 4.96826 14.2822 4.96826C18.2373 4.96826 19.5801 5.3833 19.5801 6.50635L19.5801 6.79932C19.5801 8.06885 19.9097 8.92334 21.5454 9.09424L25.9399 9.57031C27.6123 9.74121 28.5767 9.33838 28.5767 7.51953L28.5767 7.51953C28.5767 2.51465 22.4121 0 14.2822 0ZM3.49121 16.4429L5.68848 16.4429C6.55518 16.4429 7.03125 15.9546 7.03125 15.0879L7.03125 12.8784C7.03125 12.0117 6.55518 11.5234 5.68848 11.5234L3.49121 11.5234C2.62451 11.5234 2.12402 12.0117 2.12402 12.8784L2.12402 15.0879C2.12402 15.9546 2.62451 16.4429 3.49121 16.4429ZM9.94873 16.4429L12.146 16.4429C13.0005 16.4429 13.501 15.9546 13.501 15.0879L13.501 12.8784C13.501 12.0117 13.0005 11.5234 12.146 11.5234L9.94873 11.5234C9.06982 11.5234 8.56934 12.0117 8.56934 12.8784L8.56934 15.0879C8.56934 15.9546 9.06982 16.4429 9.94873 16.4429ZM16.3818 16.4429L18.5669 16.4429C19.4336 16.4429 19.9463 15.9546 19.9463 15.0879L19.9463 12.8784C19.9463 12.0117 19.4336 11.5234 18.5669 11.5234L16.3818 11.5234C15.5151 11.5234 15.0269 12.0117 15.0269 12.8784L15.0269 15.0879C15.0269 15.9546 15.5151 16.4429 16.3818 16.4429ZM22.8149 16.4429L25.0122 16.4429C25.8911 16.4429 26.4038 15.9546 26.4038 15.0879L26.4038 12.8784C26.4038 12.0117 25.8911 11.5234 25.0122 11.5234L22.8149 11.5234C21.9604 11.5234 21.4722 12.0117 21.4722 12.8784L21.4722 15.0879C21.4722 15.9546 21.9604 16.4429 22.8149 16.4429ZM3.4668 22.9004L5.66406 22.9004C6.53076 22.9004 7.03125 22.4121 7.03125 21.5454L7.03125 19.3237C7.03125 18.4692 6.53076 17.9688 5.66406 17.9688L3.4668 17.9688C2.6123 17.9688 2.12402 18.4692 2.12402 19.3237L2.12402 21.5454C2.12402 22.4121 2.6123 22.9004 3.4668 22.9004ZM9.91211 22.9004L18.6157 22.9004C19.4824 22.9004 19.9585 22.4121 19.9585 21.5454L19.9585 19.3237C19.9585 18.4692 19.4824 17.9688 18.6157 17.9688L9.91211 17.9688C9.04541 17.9688 8.56934 18.4692 8.56934 19.3237L8.56934 21.5454C8.56934 22.4121 9.04541 22.9004 9.91211 22.9004ZM22.8638 22.9004L25.061 22.9004C25.9277 22.9004 26.4038 22.4121 26.4038 21.5454L26.4038 19.3237C26.4038 18.4692 25.9277 17.9688 25.061 17.9688L22.8638 17.9688C21.9971 17.9688 21.4844 18.4692 21.4844 19.3237L21.4844 21.5454C21.4844 22.4121 21.9971 22.9004 22.8638 22.9004Z" fill="#5ac8f5"/>
 </g>
</svg>
