<?xml version="1.0" encoding="UTF-8"?>
<!--Generator: Apple Native CoreSVG 175.5-->
<!DOCTYPE svg
PUBLIC "-//W3C//DTD SVG 1.1//EN"
       "http://www.w3.org/Graphics/SVG/1.1/DTD/svg11.dtd">
<svg version="1.1" xmlns="http://www.w3.org/2000/svg" xmlns:xlink="http://www.w3.org/1999/xlink" width="31.1781" height="26.1841">
 <g>
  <rect height="26.1841" opacity="0" width="31.1781" x="0" y="0"/>
  <path d="M10.6459 22.3511C10.6459 24.9023 11.9154 26.1719 14.4301 26.1719L27.3939 26.1719C29.9208 26.1719 31.1781 24.9023 31.1781 22.3511L31.1781 3.83301C31.1781 1.29395 29.9208 0 27.3939 0L14.4301 0C11.9154 0 10.6459 1.29395 10.6459 3.83301ZM12.6112 22.3145L12.6112 3.86963C12.6112 2.64893 13.2704 1.96533 14.5399 1.96533L27.2963 1.96533C28.5658 1.96533 29.2128 2.64893 29.2128 3.86963L29.2128 22.3145C29.2128 23.5352 28.5658 24.2065 27.2963 24.2065L14.5399 24.2065C13.2704 24.2065 12.6112 23.5352 12.6112 22.3145Z" fill="#5ac8f5" fill-opacity="0.5"/>
  <path d="M15.016 18.9087C16.3466 18.9087 19.8134 16.8945 19.8134 12.6099C19.8134 8.3252 16.3466 6.31104 15.016 6.31104C14.5644 6.31104 14.247 6.54297 14.247 7.03125L14.247 18.1885C14.247 18.6646 14.5644 18.9087 15.016 18.9087ZM24.2323 15.7349C26.0634 15.7349 27.5893 14.3433 27.5893 12.6099C27.5893 10.8643 26.0634 9.47266 24.2323 9.47266C22.2792 9.47266 20.8266 10.8643 20.8144 12.6099C20.8022 14.3433 22.2792 15.7349 24.2323 15.7349Z" fill="#5ac8f5"/>
  <path d="M0.29434 11.0229C-0.316012 11.7065 0.0746133 12.6343 0.990141 12.6343L3.06534 12.6343L3.06534 17.981C3.06534 18.5181 3.48037 18.9331 4.02969 18.9331C4.55459 18.9331 4.96963 18.5181 4.96963 17.981L4.96963 12.6343L7.02041 12.6343C7.98477 12.6343 8.31436 11.6699 7.72842 11.0229L4.70108 7.60498C4.29825 7.14111 3.72452 7.14111 3.30948 7.60498Z" fill="#5ac8f5"/>
 </g>
</svg>
