<?xml version="1.0" encoding="UTF-8"?>
<!--Generator: Apple Native CoreSVG 175.5-->
<!DOCTYPE svg
PUBLIC "-//W3C//DTD SVG 1.1//EN"
       "http://www.w3.org/Graphics/SVG/1.1/DTD/svg11.dtd">
<svg version="1.1" xmlns="http://www.w3.org/2000/svg" xmlns:xlink="http://www.w3.org/1999/xlink" width="29.8828" height="23.645">
 <g>
  <rect height="23.645" opacity="0" width="29.8828" x="0" y="0"/>
  <path d="M0 19.9219C0 22.3389 1.28174 23.5962 3.73535 23.5962L18.7378 23.5962C21.1792 23.5962 22.4609 22.3389 22.4609 19.9219L22.4609 15.6128C22.4609 15.4175 22.5952 15.3198 22.8271 15.4785C23.5962 16.0278 24.4873 16.4185 25.5127 16.4185C27.8198 16.4185 29.8828 14.563 29.8828 11.8408C29.8828 9.13086 27.8198 7.27539 25.5127 7.27539C24.4873 7.27539 23.5962 7.66602 22.8271 8.21533C22.5952 8.37402 22.4609 8.27637 22.4609 8.08105L22.4609 3.67432C22.4609 1.25732 21.1792 0 18.7378 0L3.73535 0C1.28174 0 0 1.25732 0 3.67432L0 9.06982C0 10.0952 0.671387 10.7056 1.51367 10.7056C1.97754 10.7056 2.45361 10.5103 2.92969 10.0708C3.52783 9.53369 4.19922 9.2041 4.91943 9.2041C6.31104 9.2041 7.48291 10.2417 7.48291 11.8164C7.48291 13.3911 6.31104 14.4287 4.91943 14.4287C4.19922 14.4287 3.52783 14.0869 2.92969 13.5498C2.45361 13.1226 1.97754 12.9272 1.51367 12.9272C0.671387 12.9272 0 13.5376 0 14.5508ZM1.96533 19.8242L1.96533 15.7593C1.96533 15.1855 2.2583 15.4053 2.49023 15.5518C3.23486 16.0278 4.05273 16.3818 5.01709 16.3818C7.31201 16.3818 9.38721 14.5386 9.38721 11.8164C9.38721 9.09424 7.31201 7.25098 5.01709 7.25098C4.05273 7.25098 3.23486 7.60498 2.49023 8.08105C2.2583 8.22754 1.96533 8.44727 1.96533 7.87354L1.96533 3.77197C1.96533 2.6123 2.63672 1.96533 3.77197 1.96533L18.7012 1.96533C19.8364 1.96533 20.4956 2.6123 20.4956 3.77197L20.4956 9.06982C20.4956 10.0952 21.167 10.7422 22.0093 10.7422C22.4731 10.7422 22.9492 10.5469 23.4253 10.1074C24.0234 9.57031 24.6948 9.22852 25.415 9.22852C26.8066 9.22852 27.9785 10.2661 27.9785 11.8408C27.9785 13.4277 26.8066 14.4653 25.415 14.4653C24.6948 14.4653 24.0234 14.1235 23.4253 13.5864C22.9492 13.147 22.4731 12.9517 22.0093 12.9517C21.167 12.9517 20.4956 13.5986 20.4956 14.624L20.4956 19.8242C20.4956 20.9961 19.8364 21.6309 18.7012 21.6309L3.77197 21.6309C2.63672 21.6309 1.96533 20.9961 1.96533 19.8242Z" fill="#5ac8f5"/>
 </g>
</svg>
