<?xml version="1.0" encoding="UTF-8"?>
<!--Generator: Apple Native CoreSVG 175.5-->
<!DOCTYPE svg
PUBLIC "-//W3C//DTD SVG 1.1//EN"
       "http://www.w3.org/Graphics/SVG/1.1/DTD/svg11.dtd">
<svg version="1.1" xmlns="http://www.w3.org/2000/svg" xmlns:xlink="http://www.w3.org/1999/xlink" width="28.8818" height="22.6929">
 <g>
  <rect height="22.6929" opacity="0" width="28.8818" x="0" y="0"/>
  <path d="M5.0415 6.97021C5.32227 5.63965 5.92041 3.89404 6.32324 3.18604C6.65283 2.6123 7.00684 2.35596 7.66602 2.27051C8.59375 2.14844 10.6689 2.06299 14.4409 2.06299C18.2251 2.06299 20.3003 2.12402 21.2158 2.27051C21.875 2.36816 22.2168 2.6123 22.5586 3.18604C22.9736 3.88184 23.5352 5.63965 23.8525 6.97021C23.9624 7.42188 23.7671 7.59277 23.3032 7.56836C21.2769 7.43408 18.8599 7.31201 14.4409 7.31201C10.0342 7.31201 7.61719 7.43408 5.59082 7.56836C5.11475 7.59277 4.93164 7.42188 5.0415 6.97021ZM5.63965 15.9912C4.52881 15.9912 3.67432 15.1367 3.67432 14.0259C3.67432 12.9028 4.52881 12.0605 5.63965 12.0605C6.75049 12.0605 7.60498 12.9028 7.60498 14.0259C7.60498 15.1367 6.75049 15.9912 5.63965 15.9912ZM11.2183 15.5029C10.376 15.5029 9.80225 14.9292 9.80225 14.0869C9.80225 13.2568 10.376 12.6831 11.2183 12.6831L17.6758 12.6831C18.5059 12.6831 19.0796 13.2568 19.0796 14.0869C19.0796 14.9292 18.5059 15.5029 17.6758 15.5029ZM23.2422 15.9912C22.1313 15.9912 21.2891 15.1367 21.2891 14.0259C21.2891 12.9028 22.1313 12.0605 23.2422 12.0605C24.3652 12.0605 25.2075 12.9028 25.2075 14.0259C25.2075 15.1367 24.3652 15.9912 23.2422 15.9912ZM14.4409 19.2871C18.5425 19.2871 23.999 19.0796 26.3062 18.811C27.9663 18.6279 28.8818 17.7124 28.8818 16.1499L28.8818 14.0015C28.8818 11.9385 28.4668 10.791 27.3438 9.32617L26.3062 7.99561C25.8667 5.79834 25.0488 3.49121 24.6338 2.58789C23.9746 1.2085 22.7173 0.390625 21.0938 0.170898C20.2759 0.0610352 17.6025 0 14.4409 0C11.2915 0 8.61816 0.0732422 7.80029 0.170898C6.17676 0.366211 4.90723 1.2085 4.26025 2.58789C3.83301 3.49121 3.02734 5.79834 2.57568 7.99561L1.55029 9.32617C0.415039 10.791 0 11.9385 0 14.0015L0 16.1499C0 17.7124 0.927734 18.6279 2.57568 18.811C4.89502 19.0796 10.3394 19.2871 14.4409 19.2871ZM1.62354 22.644L3.05176 22.644C3.96729 22.644 4.67529 21.936 4.67529 21.0327L4.67529 17.9932L0 15.7715L0 21.0327C0 21.936 0.708008 22.644 1.62354 22.644ZM25.8301 22.644L27.2705 22.644C28.186 22.644 28.8818 21.936 28.8818 21.0327L28.8818 15.7715L24.2188 17.9932L24.2188 21.0327C24.2188 21.936 24.9146 22.644 25.8301 22.644Z" fill="#5ac8f5"/>
 </g>
</svg>
