<?xml version="1.0" encoding="UTF-8"?>
<!--Generator: Apple Native CoreSVG 175.5-->
<!DOCTYPE svg
PUBLIC "-//W3C//DTD SVG 1.1//EN"
       "http://www.w3.org/Graphics/SVG/1.1/DTD/svg11.dtd">
<svg version="1.1" xmlns="http://www.w3.org/2000/svg" xmlns:xlink="http://www.w3.org/1999/xlink" width="28.2959" height="27.5513">
 <g>
  <rect height="27.5513" opacity="0" width="28.2959" x="0" y="0"/>
  <path d="M5.98145 23.4741L10.2295 23.4741C12.0117 23.4741 12.9761 22.4976 12.9761 20.6787L12.9761 2.81982C12.9761 1.00098 12.0117 0.0244141 10.2295 0.0244141L5.98145 0.0244141C4.19922 0.0244141 3.23486 1.00098 3.23486 2.81982L3.23486 20.6787C3.23486 22.4976 4.19922 23.4741 5.98145 23.4741ZM18.0908 23.4741L22.3389 23.4741C24.1089 23.4741 25.0854 22.4976 25.0854 20.6787L25.0854 11.4624C25.0854 9.65576 24.1089 8.66699 22.3389 8.66699L18.0908 8.66699C16.3086 8.66699 15.332 9.65576 15.332 11.4624L15.332 20.6787C15.332 22.4976 16.3086 23.4741 18.0908 23.4741ZM0.854492 27.5513L27.4536 27.5513C27.9297 27.5513 28.2959 27.1362 28.2959 26.6602C28.2959 26.1841 27.9297 25.7568 27.4536 25.7568L0.854492 25.7568C0.366211 25.7568 0 26.1841 0 26.6602C0 27.1362 0.366211 27.5513 0.854492 27.5513Z" fill="#5ac8f5"/>
 </g>
</svg>
