<?xml version="1.0" encoding="UTF-8"?>
<!--Generator: Apple Native CoreSVG 175.5-->
<!DOCTYPE svg
PUBLIC "-//W3C//DTD SVG 1.1//EN"
       "http://www.w3.org/Graphics/SVG/1.1/DTD/svg11.dtd">
<svg version="1.1" xmlns="http://www.w3.org/2000/svg" xmlns:xlink="http://www.w3.org/1999/xlink" width="24.9023" height="24.9146">
 <g>
  <rect height="24.9146" opacity="0" width="24.9023" x="0" y="0"/>
  <path d="M12.4512 24.9023C19.2627 24.9023 24.9023 19.2505 24.9023 12.4512C24.9023 5.63965 19.2505 0 12.439 0C5.63965 0 0 5.63965 0 12.4512C0 19.2505 5.65186 24.9023 12.4512 24.9023Z" fill="#5ac8f5" fill-opacity="0.25"/>
  <path d="M7.60498 13.6719C7.60498 13.3301 7.86133 13.0615 8.21533 13.0615L16.6626 13.0615C17.0166 13.0615 17.2607 13.3301 17.2607 13.6719C17.2607 14.0381 17.0166 14.3066 16.6626 14.3066L10.8398 14.3066C10.4614 14.5752 10.2783 15.0024 10.2783 15.3931C10.2783 16.4795 11.2793 17.0166 12.4512 17.0166C13.3911 17.0166 14.2456 16.6138 14.5752 15.7837C14.7461 15.3687 15.0024 15.2344 15.3076 15.2344C15.7959 15.2344 16.0767 15.564 16.0645 16.0034C16.0522 16.3208 15.9546 16.626 15.7593 16.9067C15.1001 17.9932 13.855 18.5181 12.4878 18.5181C10.4248 18.5181 8.69141 17.395 8.69141 15.4541C8.69141 15.0879 8.81348 14.6606 9.05762 14.3066L8.21533 14.3066C7.86133 14.3066 7.60498 14.0381 7.60498 13.6719ZM7.6416 11.1572C7.6416 10.791 7.88574 10.5347 8.23975 10.5347L14.0625 10.5347C14.4409 10.2539 14.624 9.82666 14.624 9.43604C14.624 8.36182 13.623 7.8125 12.4512 7.8125C11.5112 7.8125 10.6689 8.21533 10.3271 9.04541C10.1562 9.46045 9.8999 9.59473 9.59473 9.59473C9.10645 9.59473 8.82568 9.26514 8.83789 8.83789C8.8501 8.5083 8.94775 8.21533 9.14307 7.93457C9.81445 6.83594 11.0474 6.31104 12.4146 6.31104C14.4775 6.31104 16.2109 7.43408 16.2109 9.375C16.2109 9.74121 16.0889 10.1685 15.8447 10.5347L16.687 10.5347C17.041 10.5347 17.2974 10.791 17.2974 11.1572C17.2974 11.499 17.041 11.7676 16.687 11.7676L8.23975 11.7676C7.88574 11.7676 7.6416 11.499 7.6416 11.1572Z" fill="#5ac8f5"/>
 </g>
</svg>
