<?xml version="1.0" encoding="UTF-8"?>
<!--Generator: Apple Native CoreSVG 175.5-->
<!DOCTYPE svg
PUBLIC "-//W3C//DTD SVG 1.1//EN"
       "http://www.w3.org/Graphics/SVG/1.1/DTD/svg11.dtd">
<svg version="1.1" xmlns="http://www.w3.org/2000/svg" xmlns:xlink="http://www.w3.org/1999/xlink" width="26.2451" height="22.7173">
 <g>
  <rect height="22.7173" opacity="0" width="26.2451" x="0" y="0"/>
  <path d="M1.80664 15.1733L7.09229 9.79004C7.20215 9.68018 7.31201 9.61914 7.42188 9.61914C7.53174 9.61914 7.6416 9.68018 7.75146 9.79004L12.2437 14.3921C12.7686 14.9414 13.3179 15.1978 13.8916 15.1978C14.4775 15.1978 15.0024 14.9414 15.5518 14.3921L20.5322 9.38721L22.5342 11.4014C22.9736 11.8408 23.5474 11.5723 23.7061 10.9497L25.5127 3.79639C25.6592 3.23486 25.1709 2.771 24.6216 2.91748L17.4805 4.71191C16.8579 4.88281 16.5894 5.44434 17.0288 5.88379L19.043 7.89795L14.2334 12.7686C14.1235 12.8784 14.0015 12.9395 13.8916 12.9395C13.7939 12.9395 13.6719 12.8784 13.562 12.7686L9.06982 8.1665C8.53271 7.61719 7.99561 7.36084 7.42188 7.36084C6.84814 7.36084 6.33545 7.60498 5.77393 8.1665L0.317383 13.6963Z" fill="#5ac8f5"/>
  <path d="M0 21.7529C0 22.3389 0.390625 22.7173 0.976562 22.7173L25.2563 22.7173C25.7935 22.7173 26.2451 22.29 26.2451 21.7407C26.2451 21.2036 25.7935 20.7642 25.2563 20.7642L2.30713 20.7642C2.05078 20.7642 1.96533 20.6787 1.96533 20.4224L1.96533 1.12305C1.96533 0.598145 1.52588 0.146484 0.98877 0.146484C0.439453 0.146484 0 0.598145 0 1.12305Z" fill="#5ac8f5" fill-opacity="0.5"/>
 </g>
</svg>
