<?xml version="1.0" encoding="UTF-8"?>
<!--Generator: Apple Native CoreSVG 175.5-->
<!DOCTYPE svg
PUBLIC "-//W3C//DTD SVG 1.1//EN"
       "http://www.w3.org/Graphics/SVG/1.1/DTD/svg11.dtd">
<svg version="1.1" xmlns="http://www.w3.org/2000/svg" xmlns:xlink="http://www.w3.org/1999/xlink" width="17.6514" height="26.4526">
 <g>
  <rect height="26.4526" opacity="0" width="17.6514" x="0" y="0"/>
  <path d="M3.479 13.1714L5.56641 13.1714L5.56641 7.9834L3.479 7.9834ZM12.085 13.1714L14.1724 13.1714L14.1724 7.9834L12.085 7.9834ZM2.30713 26.4282L2.68555 26.4282C3.28369 26.4282 3.69873 26.0132 3.69873 25.415L3.69873 17.5171L1.29395 17.5171L1.29395 25.415C1.29395 26.0132 1.70898 26.4282 2.30713 26.4282ZM3.06396 20.9961L14.5874 20.9961L14.5874 19.1528L3.06396 19.1528ZM14.9658 26.4282L15.3442 26.4282C15.9424 26.4282 16.3574 26.0132 16.3574 25.415L16.3574 17.5171L13.9526 17.5171L13.9526 25.415C13.9526 26.0132 14.3677 26.4282 14.9658 26.4282ZM3.10059 9.05762L14.5508 9.05762C15.9912 9.05762 16.6748 8.39844 16.6748 6.99463L16.6748 2.06299C16.6748 0.65918 15.9912 0 14.5508 0L3.10059 0C1.66016 0 0.976562 0.65918 0.976562 2.06299L0.976562 6.99463C0.976562 8.39844 1.66016 9.05762 3.10059 9.05762ZM2.01416 18.1519L15.6372 18.1519C16.98 18.1519 17.6514 17.5171 17.6514 16.2109L17.6514 14.3555C17.6514 13.0493 16.98 12.4146 15.6372 12.4146L2.01416 12.4146C0.671387 12.4146 0 13.0493 0 14.3555L0 16.2109C0 17.5171 0.671387 18.1519 2.01416 18.1519Z" fill="#5ac8f5"/>
 </g>
</svg>
