<?xml version="1.0" encoding="UTF-8"?>
<!--Generator: Apple Native CoreSVG 175.5-->
<!DOCTYPE svg
PUBLIC "-//W3C//DTD SVG 1.1//EN"
       "http://www.w3.org/Graphics/SVG/1.1/DTD/svg11.dtd">
<svg version="1.1" xmlns="http://www.w3.org/2000/svg" xmlns:xlink="http://www.w3.org/1999/xlink" width="20.1345" height="29.9683">
 <g>
  <rect height="29.9683" opacity="0" width="20.1345" x="0" y="0"/>
  <path d="M7.15314 5.33447C8.61799 5.33447 9.82648 4.13818 9.82648 2.67334C9.82648 1.2085 8.61799 0 7.15314 0C5.6883 0 4.49201 1.2085 4.49201 2.67334C4.49201 4.13818 5.6883 5.33447 7.15314 5.33447ZM8.99641 23.9624C9.55793 24.0601 10.1683 23.7915 10.388 23.0469L12.036 17.5293C12.2557 16.7725 11.9383 16.1255 11.2303 15.8691L6.95783 14.3311L7.5926 9.91211C7.62922 9.66797 7.82453 9.59473 8.05646 9.69238L10.2049 10.6689C10.4857 10.8032 10.7054 10.8398 11.0716 10.8765L16.4671 11.4258C17.1507 11.499 17.7611 11.0107 17.8099 10.3394C17.8709 9.68018 17.3826 9.06982 16.7112 9.00879L11.2059 8.47168L7.04328 6.55518C5.26105 5.74951 3.41779 6.65283 3.18586 8.43506L2.50226 13.6353C2.30695 15.1611 3.2591 16.5405 4.74836 16.8945L9.38703 17.9565L8.04426 22.3511C7.7757 23.2422 8.34943 23.8525 8.99641 23.9624ZM0.597968 27.8076C1.11066 28.0884 1.83088 28.0151 2.29475 27.3193L5.60285 22.3755C5.73713 22.1802 5.81037 21.9482 5.8592 21.6553L6.37189 18.4937L4.50422 18.0664C4.21125 18.0054 3.93049 17.9077 3.64973 17.7734L3.41779 21.2646L0.280585 25.9644C-0.256524 26.7822 0.0486514 27.5024 0.597968 27.8076ZM20.0682 7.73926C19.8851 7.37305 19.4945 7.23877 19.1404 7.40967C18.5667 7.69043 18.1517 7.91016 17.7366 8.12988C18.1761 8.36182 18.5301 8.72803 18.7376 9.16748C19.0184 9.00879 19.3113 8.8623 19.7508 8.63037C20.0926 8.45947 20.2269 8.06885 20.0682 7.73926ZM3.51545 29.9683L8.05646 29.9683C8.43488 29.9683 8.74006 29.6753 8.74006 29.2969L8.74006 27.0996L12.6097 27.0996C12.9759 27.0996 13.2811 26.7822 13.2811 26.4038L13.2811 24.2065L15.7835 24.2065C16.1497 24.2065 16.4549 23.9136 16.4671 23.5352L16.8944 12.5488C16.7723 12.5488 16.699 12.561 16.6014 12.561C16.2474 12.5854 15.869 12.5488 15.5394 12.5L15.1243 22.8394L12.6097 22.8394C12.2191 22.8394 11.9261 23.1201 11.9261 23.5107L11.9261 25.7324L8.05646 25.7324C7.67805 25.7324 7.38508 26.0254 7.38508 26.4038L7.38508 28.6133L3.51545 28.6133C3.13703 28.6133 2.81965 28.9307 2.81965 29.2969C2.81965 29.6631 3.14924 29.9683 3.51545 29.9683Z" fill="#5ac8f5"/>
 </g>
</svg>
