<?xml version="1.0" encoding="UTF-8"?>
<!--Generator: Apple Native CoreSVG 175.5-->
<!DOCTYPE svg
PUBLIC "-//W3C//DTD SVG 1.1//EN"
       "http://www.w3.org/Graphics/SVG/1.1/DTD/svg11.dtd">
<svg version="1.1" xmlns="http://www.w3.org/2000/svg" xmlns:xlink="http://www.w3.org/1999/xlink" width="24.9023" height="24.9146">
 <g>
  <rect height="24.9146" opacity="0" width="24.9023" x="0" y="0"/>
  <path d="M12.4512 24.9023C19.2627 24.9023 24.9023 19.2505 24.9023 12.4512C24.9023 5.63965 19.2505 0 12.439 0C5.63965 0 0 5.63965 0 12.4512C0 19.2505 5.65186 24.9023 12.4512 24.9023ZM12.4512 22.8271C6.68945 22.8271 2.0874 18.2129 2.0874 12.4512C2.0874 6.68945 6.67725 2.0752 12.439 2.0752C18.2007 2.0752 22.8271 6.68945 22.8271 12.4512C22.8271 18.2129 18.2129 22.8271 12.4512 22.8271ZM6.15234 17.4316L11.2061 17.4316C11.5845 17.4316 11.8774 17.1387 11.8774 16.6992C11.8774 16.2476 11.5845 15.9912 11.2061 15.9912L7.65381 15.9912L7.65381 15.9058L10.0464 13.1226C10.9497 12.0728 11.6211 11.1938 11.6211 9.97314C11.6211 8.27637 10.376 7.18994 8.45947 7.18994C7.00684 7.18994 5.71289 8.11768 5.39551 9.36279C5.37109 9.52148 5.34668 9.65576 5.34668 9.80225C5.34668 10.2417 5.60303 10.5347 6.03027 10.5347C6.37207 10.5347 6.55518 10.3271 6.72607 9.96094C7.03125 9.04541 7.65381 8.59375 8.52051 8.59375C9.50928 8.59375 10.144 9.2041 10.144 10.1074C10.144 10.9009 9.50928 11.5845 8.92334 12.2681L5.70068 16.0522C5.51758 16.2598 5.43213 16.4673 5.43213 16.7114C5.43213 17.1509 5.71289 17.4316 6.15234 17.4316ZM16.687 17.7124C18.7622 17.7124 20.2026 16.4673 20.2026 14.7095C20.2026 13.4155 19.3115 12.3657 18.0786 12.2437L18.0786 12.1704C19.0796 11.9995 19.873 10.9863 19.873 9.83887C19.873 8.27637 18.5913 7.18994 16.7725 7.18994C15.1123 7.18994 13.8916 8.12988 13.5742 9.32617C13.5498 9.48486 13.5376 9.60693 13.5376 9.76562C13.5376 10.2051 13.8184 10.5103 14.2456 10.5103C14.6118 10.5103 14.7949 10.3149 14.917 9.92432C15.1855 9.06982 15.7837 8.59375 16.7358 8.59375C17.7002 8.59375 18.3716 9.17969 18.3716 10.0342C18.3716 10.9253 17.688 11.5723 16.7236 11.5723L16.0645 11.5723C15.6616 11.5723 15.3931 11.853 15.3931 12.2925C15.3931 12.6831 15.6616 12.9883 16.0645 12.9883L16.7725 12.9883C17.9443 12.9883 18.6768 13.6475 18.6768 14.6362C18.6768 15.5884 17.8711 16.3086 16.6992 16.3086C15.7349 16.3086 15.0757 15.8325 14.7461 14.978C14.5996 14.5874 14.3921 14.3921 14.0503 14.3921C13.6353 14.3921 13.3423 14.6973 13.3423 15.1245C13.3423 15.2954 13.3545 15.4175 13.4033 15.5762C13.7207 16.6992 15.0269 17.7124 16.687 17.7124Z" fill="#5ac8f5"/>
 </g>
</svg>
