<?xml version="1.0" encoding="UTF-8"?>
<!--Generator: Apple Native CoreSVG 175.5-->
<!DOCTYPE svg
PUBLIC "-//W3C//DTD SVG 1.1//EN"
       "http://www.w3.org/Graphics/SVG/1.1/DTD/svg11.dtd">
<svg version="1.1" xmlns="http://www.w3.org/2000/svg" xmlns:xlink="http://www.w3.org/1999/xlink" width="20.874" height="30.7983">
 <g>
  <rect height="30.7983" opacity="0" width="20.874" x="0" y="0"/>
  <path d="M8.45947 27.7466C13.5376 27.7466 16.9189 24.4385 16.9189 19.4824C16.9189 17.041 15.9546 14.6118 15.2466 12.9883C13.9404 10.0464 11.8896 6.81152 10.1074 4.05273C9.68018 3.40576 9.16748 3.02734 8.45947 3.02734C7.72705 3.02734 7.23877 3.40576 6.81152 4.05273C5.0293 6.81152 2.97852 10.0464 1.67236 12.9883C0.952148 14.6118 0 17.041 0 19.4824C0 24.4385 3.38135 27.7466 8.45947 27.7466ZM8.45947 25.7446C4.57764 25.7446 1.98975 23.2422 1.98975 19.4824C1.98975 17.4805 2.771 15.5396 3.45459 13.9526C4.82178 10.7422 6.62842 8.10547 8.3374 5.52979C8.41064 5.40771 8.52051 5.40771 8.59375 5.52979C10.2905 8.10547 12.1094 10.7422 13.4521 13.9404C14.1357 15.5396 14.917 17.4805 14.917 19.4824C14.917 23.2422 12.3413 25.7446 8.45947 25.7446ZM17.1387 7.4585C19.2383 7.4585 20.874 5.82275 20.874 3.73535C20.874 1.63574 19.2383 0 17.1387 0C15.0513 0 13.4155 1.63574 13.4155 3.73535C13.4155 5.82275 15.0513 7.4585 17.1387 7.4585ZM17.1387 5.7373C16.0156 5.7373 15.1367 4.8584 15.1367 3.73535C15.1367 2.6001 16.0156 1.72119 17.1387 1.72119C18.2739 1.72119 19.1528 2.6001 19.1528 3.73535C19.1528 4.8584 18.2739 5.7373 17.1387 5.7373Z" fill="#5ac8f5"/>
 </g>
</svg>
