<?xml version="1.0" encoding="UTF-8"?>
<!--Generator: Apple Native CoreSVG 175.5-->
<!DOCTYPE svg
PUBLIC "-//W3C//DTD SVG 1.1//EN"
       "http://www.w3.org/Graphics/SVG/1.1/DTD/svg11.dtd">
<svg version="1.1" xmlns="http://www.w3.org/2000/svg" xmlns:xlink="http://www.w3.org/1999/xlink" width="28.262" height="26.4771">
 <g>
  <rect height="26.4771" opacity="0" width="28.262" x="0" y="0"/>
  <path d="M6.97157 0.927734C6.37343 2.30713 6.09266 3.68652 6.09266 5.0293C6.09266 9.48486 9.24208 13.1348 14.1493 13.1348C19.0565 13.1348 22.2059 9.48486 22.2059 5.0293C22.2059 3.68652 21.9252 2.30713 21.3392 0.927734C21.0707 0.341797 20.3749 0.256348 19.911 0.732422L17.1766 3.51562L14.8451 0.500488C14.4667 0.012207 13.8319 0.012207 13.4657 0.500488L11.1342 3.51562L8.38759 0.732422C7.92372 0.256348 7.22792 0.341797 6.97157 0.927734ZM13.1727 25.5615C13.1727 26.1108 13.6 26.4771 14.1493 26.4771C20.4603 26.4771 26.2587 22.583 28.163 17.1143C28.4315 16.3696 28.1508 15.8936 27.3573 15.8936C21.1195 15.8936 16.6273 19.5557 14.8207 24.1821L15.1381 24.5972L15.1381 11.9019L13.1727 11.9019ZM11.5004 20.8984C9.20546 17.9199 5.53114 15.8936 0.904676 15.8936C0.111219 15.8936-0.169543 16.3696 0.0990116 17.1143C1.73475 21.8506 6.27577 25.415 11.598 26.2573C11.537 26.0498 11.5004 25.8057 11.5004 25.5615Z" fill="#5ac8f5"/>
 </g>
</svg>
