<?xml version="1.0" encoding="UTF-8"?>
<!--Generator: Apple Native CoreSVG 175.5-->
<!DOCTYPE svg
PUBLIC "-//W3C//DTD SVG 1.1//EN"
       "http://www.w3.org/Graphics/SVG/1.1/DTD/svg11.dtd">
<svg version="1.1" xmlns="http://www.w3.org/2000/svg" xmlns:xlink="http://www.w3.org/1999/xlink" width="35.0586" height="27.9663">
 <g>
  <rect height="27.9663" opacity="0" width="35.0586" x="0" y="0"/>
  <path d="M8.23975 26.5991C8.88672 26.5991 9.32617 26.3794 10.1074 25.6958L15.2344 21.106L13.8184 19.7388L8.74023 24.4263L8.74023 20.9351C8.74023 20.2393 8.3252 19.9219 7.78809 19.9219L5.40771 19.9219C3.24707 19.9219 1.96533 18.7378 1.96533 16.4673L1.96533 5.34668C1.96533 3.07617 3.24707 1.87988 5.40771 1.87988L22.6318 1.87988C24.7925 1.87988 26.0742 3.07617 26.0742 5.34668L26.0742 7.05566L28.0396 7.05566L28.0396 5.27344C28.0396 1.96533 26.0742 0.0366211 22.7539 0.0366211L5.28564 0.0366211C2.09961 0.0366211 0 1.96533 0 5.27344L0 16.5161C0 19.8364 2.09961 21.7529 5.28564 21.7529L6.89697 21.7529L6.89697 25.0977C6.89697 26.0376 7.37305 26.5991 8.23975 26.5991ZM28.125 27.9663C28.9673 27.9663 29.4434 27.3682 29.4434 26.4404L29.4434 23.5107L29.9561 23.5107C33.02 23.5107 35.0586 21.6553 35.0586 18.4692L35.0586 11.2549C35.0586 8.05664 33.02 6.20117 29.9561 6.20117L18.103 6.20117C14.9048 6.20117 13.0127 8.05664 13.0127 11.2549L13.0127 18.4692C13.0127 21.6675 14.9048 23.5107 18.103 23.5107L22.3145 23.5107L26.3916 27.002C27.1362 27.6367 27.5391 27.9663 28.125 27.9663ZM27.6123 25.7568L23.6938 22.2412C23.2056 21.814 22.9126 21.6675 22.2412 21.6675L18.2251 21.6675C16.1865 21.6675 14.9658 20.5688 14.9658 18.4082L14.978 11.3159C14.978 9.16748 16.1865 8.04443 18.2251 8.04443L29.8462 8.04443C31.8726 8.04443 33.0933 9.16748 33.0933 11.3159L33.0933 18.4082C33.0933 20.5688 31.8726 21.6675 29.8462 21.6675L28.5522 21.6675C28.0273 21.6675 27.6123 21.9849 27.6123 22.6685ZM24.0479 16.3208C24.5972 16.3208 24.9146 16.0034 24.939 15.3931L25.0977 11.1328C25.1221 10.4858 24.646 10.0464 24.0356 10.0464C23.4131 10.0464 22.9492 10.4736 22.9736 11.1206L23.1323 15.3931C23.1567 15.9912 23.4619 16.3208 24.0479 16.3208ZM24.0356 20.0195C24.707 20.0195 25.293 19.4946 25.293 18.8232C25.293 18.1396 24.7192 17.6147 24.0356 17.6147C23.3521 17.6147 22.7783 18.1519 22.7783 18.8232C22.7783 19.4824 23.3643 20.0195 24.0356 20.0195Z" fill="#5ac8f5"/>
 </g>
</svg>
