<?xml version="1.0" encoding="UTF-8"?>
<!--Generator: Apple Native CoreSVG 175.5-->
<!DOCTYPE svg
PUBLIC "-//W3C//DTD SVG 1.1//EN"
       "http://www.w3.org/Graphics/SVG/1.1/DTD/svg11.dtd">
<svg version="1.1" xmlns="http://www.w3.org/2000/svg" xmlns:xlink="http://www.w3.org/1999/xlink" width="24.9023" height="24.9146">
 <g>
  <rect height="24.9146" opacity="0" width="24.9023" x="0" y="0"/>
  <path d="M12.4512 23.8647C13.5132 23.8647 14.5386 23.7183 15.5029 23.4131L15.5029 8.27637C15.5029 7.44629 15.0269 6.89697 14.2212 6.89697L6.03027 6.89697C5.23682 6.89697 4.74854 7.44629 4.74854 8.27637L4.74854 20.459C6.64062 22.5586 9.375 23.8647 12.4512 23.8647ZM7.61719 20.6055C7.44629 20.6055 7.33643 20.4834 7.33643 20.3125L7.33643 19.0186C7.33643 18.8477 7.44629 18.7256 7.61719 18.7256L8.94775 18.7256C9.10645 18.7256 9.24072 18.8477 9.24072 19.0186L9.24072 20.3125C9.24072 20.4834 9.10645 20.6055 8.94775 20.6055ZM11.2793 20.6055C11.1084 20.6055 10.9985 20.4834 10.9985 20.3125L10.9985 19.0186C10.9985 18.8477 11.1084 18.7256 11.2793 18.7256L12.6099 18.7256C12.7808 18.7256 12.9028 18.8477 12.9028 19.0186L12.9028 20.3125C12.9028 20.4834 12.7808 20.6055 12.6099 20.6055ZM7.61719 17.3828C7.44629 17.3828 7.33643 17.2607 7.33643 17.0898L7.33643 15.7959C7.33643 15.6372 7.44629 15.5029 7.61719 15.5029L8.94775 15.5029C9.10645 15.5029 9.24072 15.6372 9.24072 15.7959L9.24072 17.0898C9.24072 17.2607 9.10645 17.3828 8.94775 17.3828ZM11.2793 17.3828C11.1084 17.3828 10.9985 17.2607 10.9985 17.0898L10.9985 15.7959C10.9985 15.6372 11.1084 15.5029 11.2793 15.5029L12.6099 15.5029C12.7808 15.5029 12.9028 15.6372 12.9028 15.7959L12.9028 17.0898C12.9028 17.2607 12.7808 17.3828 12.6099 17.3828ZM7.61719 14.1602C7.44629 14.1602 7.33643 14.0381 7.33643 13.8672L7.33643 12.5854C7.33643 12.4146 7.44629 12.2803 7.61719 12.2803L8.94775 12.2803C9.10645 12.2803 9.24072 12.4146 9.24072 12.5854L9.24072 13.8672C9.24072 14.0381 9.10645 14.1602 8.94775 14.1602ZM11.2793 14.1602C11.1084 14.1602 10.9985 14.0381 10.9985 13.8672L10.9985 12.5854C10.9985 12.4146 11.1084 12.2803 11.2793 12.2803L12.6099 12.2803C12.7808 12.2803 12.9028 12.4146 12.9028 12.5854L12.9028 13.8672C12.9028 14.0381 12.7808 14.1602 12.6099 14.1602ZM7.61719 10.9741C7.44629 10.9741 7.33643 10.8398 7.33643 10.6812L7.33643 9.38721C7.33643 9.2041 7.44629 9.09424 7.61719 9.09424L8.94775 9.09424C9.10645 9.09424 9.24072 9.2041 9.24072 9.38721L9.24072 10.6812C9.24072 10.8398 9.10645 10.9741 8.94775 10.9741ZM11.2793 10.9741C11.1084 10.9741 10.9985 10.8398 10.9985 10.6812L10.9985 9.38721C10.9985 9.2041 11.1084 9.09424 11.2793 9.09424L12.6099 9.09424C12.7808 9.09424 12.9028 9.2041 12.9028 9.38721L12.9028 10.6812C12.9028 10.8398 12.7808 10.9741 12.6099 10.9741ZM16.4551 23.0835C18.4692 22.2412 20.1538 20.7886 21.2769 18.9453L21.2769 11.3892C21.2769 10.5469 20.7886 10.0098 19.9951 10.0098L16.4551 10.0098ZM18.2861 19.1895C18.1396 19.1895 18.042 19.0918 18.042 18.9697L18.042 17.8589C18.042 17.7368 18.1396 17.6147 18.2861 17.6147L19.4336 17.6147C19.5557 17.6147 19.6533 17.7368 19.6533 17.8589L19.6533 18.9697C19.6533 19.0918 19.5557 19.1895 19.4336 19.1895ZM18.2861 16.4062C18.1396 16.4062 18.042 16.3086 18.042 16.1621L18.042 15.0757C18.042 14.9292 18.1396 14.8438 18.2861 14.8438L19.4336 14.8438C19.5557 14.8438 19.6533 14.9292 19.6533 15.0757L19.6533 16.1621C19.6533 16.3086 19.5557 16.4062 19.4336 16.4062ZM18.2861 13.623C18.1396 13.623 18.042 13.5254 18.042 13.3789L18.042 12.2803C18.042 12.146 18.1396 12.0483 18.2861 12.0483L19.4336 12.0483C19.5557 12.0483 19.6533 12.146 19.6533 12.2803L19.6533 13.3789C19.6533 13.5254 19.5557 13.623 19.4336 13.623ZM12.4512 24.9023C19.2627 24.9023 24.9023 19.2505 24.9023 12.4512C24.9023 5.63965 19.2505 0 12.439 0C5.63965 0 0 5.63965 0 12.4512C0 19.2505 5.65186 24.9023 12.4512 24.9023ZM12.4512 22.8271C6.68945 22.8271 2.0874 18.2129 2.0874 12.4512C2.0874 6.68945 6.67725 2.0752 12.439 2.0752C18.2007 2.0752 22.8271 6.68945 22.8271 12.4512C22.8271 18.2129 18.2129 22.8271 12.4512 22.8271Z" fill="#5ac8f5"/>
 </g>
</svg>
