<?xml version="1.0" encoding="UTF-8"?>
<!--Generator: Apple Native CoreSVG 175.5-->
<!DOCTYPE svg
PUBLIC "-//W3C//DTD SVG 1.1//EN"
       "http://www.w3.org/Graphics/SVG/1.1/DTD/svg11.dtd">
<svg version="1.1" xmlns="http://www.w3.org/2000/svg" xmlns:xlink="http://www.w3.org/1999/xlink" width="22.4731" height="22.4976">
 <g>
  <rect height="22.4976" opacity="0" width="22.4731" x="0" y="0"/>
  <path d="M3.83301 22.4976L18.6401 22.4976C21.2036 22.4976 22.4731 21.228 22.4731 18.7134L22.4731 3.80859C22.4731 1.29395 21.2036 0.0244141 18.6401 0.0244141L3.83301 0.0244141C1.28174 0.0244141 0 1.28174 0 3.80859L0 18.7134C0 21.2402 1.28174 22.4976 3.83301 22.4976ZM3.85742 20.5322C2.63672 20.5322 1.96533 19.8853 1.96533 18.6157L1.96533 3.90625C1.96533 2.63672 2.63672 1.98975 3.85742 1.98975L18.6157 1.98975C19.8242 1.98975 20.5078 2.63672 20.5078 3.90625L20.5078 18.6157C20.5078 19.8853 19.8242 20.5322 18.6157 20.5322ZM5.896 12.085C5.896 12.3901 6.15234 12.6099 6.45752 12.6099L10.5957 12.6099L8.38623 18.5425C8.09326 19.3237 8.92334 19.751 9.43604 19.1162L16.1377 10.7178C16.2598 10.5713 16.333 10.4004 16.333 10.2417C16.333 9.93652 16.0889 9.7168 15.7715 9.7168L11.6455 9.7168L13.8428 3.78418C14.1479 3.00293 13.3057 2.57568 12.793 3.19824L6.10352 11.5967C5.96924 11.7554 5.896 11.9263 5.896 12.085Z" fill="#5ac8f5"/>
 </g>
</svg>
