<?xml version="1.0" encoding="UTF-8"?>
<!--Generator: Apple Native CoreSVG 175.5-->
<!DOCTYPE svg
PUBLIC "-//W3C//DTD SVG 1.1//EN"
       "http://www.w3.org/Graphics/SVG/1.1/DTD/svg11.dtd">
<svg version="1.1" xmlns="http://www.w3.org/2000/svg" xmlns:xlink="http://www.w3.org/1999/xlink" width="27.6001" height="27.6001">
 <g>
  <rect height="27.6001" opacity="0" width="27.6001" x="0" y="0"/>
  <path d="M9.57031 10.5835L24.7681 10.5835L24.7681 8.61816L9.57031 8.61816ZM23.7915 24.7803L25.7568 24.7803L25.7568 9.59473L23.7915 9.59473ZM9.57031 25.7568L24.7681 25.7568L24.7681 23.7915L9.57031 23.7915ZM8.58154 24.7803L10.5469 24.7803L10.5469 9.59473L8.58154 9.59473ZM2.83203 18.9941L9.49707 18.9941L9.49707 17.0288L2.83203 17.0288ZM1.84326 18.0176L3.80859 18.0176L3.80859 2.83203L1.84326 2.83203ZM2.83203 3.8208L18.0298 3.8208L18.0298 1.85547L2.83203 1.85547ZM17.0532 9.76562L19.0186 9.76562L19.0186 2.83203L17.0532 2.83203Z" fill="#5ac8f5" fill-opacity="0.5"/>
  <path d="M9.57031 12.4268C11.1328 12.4268 12.3901 11.1694 12.3901 9.59473C12.3901 8.03223 11.1328 6.7749 9.57031 6.7749C7.99561 6.7749 6.73828 8.03223 6.73828 9.59473C6.73828 11.1694 7.99561 12.4268 9.57031 12.4268ZM24.7681 12.4268C26.3306 12.4268 27.6001 11.1694 27.6001 9.59473C27.6001 8.03223 26.3306 6.7749 24.7681 6.7749C23.2056 6.7749 21.936 8.03223 21.936 9.59473C21.936 11.1694 23.2056 12.4268 24.7681 12.4268ZM24.7681 27.6001C26.3306 27.6001 27.6001 26.3428 27.6001 24.7803C27.6001 23.2178 26.3306 21.9482 24.7681 21.9482C23.2056 21.9482 21.936 23.2178 21.936 24.7803C21.936 26.3428 23.2056 27.6001 24.7681 27.6001ZM9.57031 27.6001C11.1328 27.6001 12.3901 26.3428 12.3901 24.7803C12.3901 23.2178 11.1328 21.9482 9.57031 21.9482C7.99561 21.9482 6.73828 23.2178 6.73828 24.7803C6.73828 26.3428 7.99561 27.6001 9.57031 27.6001ZM2.83203 20.8496C4.45557 20.8496 5.65186 19.5801 5.65186 18.0176C5.65186 16.4551 4.39453 15.1855 2.83203 15.1855C1.25732 15.1855 0 16.4551 0 18.0176C0 19.5801 1.25732 20.8496 2.83203 20.8496ZM2.83203 5.66406C4.39453 5.66406 5.65186 4.40674 5.65186 2.83203C5.65186 1.26953 4.39453 0.012207 2.83203 0.012207C1.25732 0.012207 0 1.26953 0 2.83203C0 4.40674 1.25732 5.66406 2.83203 5.66406ZM18.0298 5.66406C19.5923 5.66406 20.8618 4.40674 20.8618 2.83203C20.8618 1.26953 19.5923 0.012207 18.0298 0.012207C16.4673 0.012207 15.1978 1.26953 15.1978 2.83203C15.1978 4.40674 16.4673 5.66406 18.0298 5.66406Z" fill="#5ac8f5"/>
 </g>
</svg>
