<?xml version="1.0" encoding="UTF-8"?>
<!--Generator: Apple Native CoreSVG 175.5-->
<!DOCTYPE svg
PUBLIC "-//W3C//DTD SVG 1.1//EN"
       "http://www.w3.org/Graphics/SVG/1.1/DTD/svg11.dtd">
<svg version="1.1" xmlns="http://www.w3.org/2000/svg" xmlns:xlink="http://www.w3.org/1999/xlink" width="24.9023" height="24.9146">
 <g>
  <rect height="24.9146" opacity="0" width="24.9023" x="0" y="0"/>
  <path d="M12.4512 24.9023C19.2627 24.9023 24.9023 19.2505 24.9023 12.4512C24.9023 5.63965 19.2505 0 12.439 0C5.63965 0 0 5.63965 0 12.4512C0 19.2505 5.65186 24.9023 12.4512 24.9023ZM12.4512 22.8271C6.68945 22.8271 2.0874 18.2129 2.0874 12.4512C2.0874 6.68945 6.67725 2.0752 12.439 2.0752C18.2007 2.0752 22.8271 6.68945 22.8271 12.4512C22.8271 18.2129 18.2129 22.8271 12.4512 22.8271Z" fill="#5ac8f5" fill-opacity="0.5"/>
  <path d="M9.06982 17.5659C9.5459 17.5659 9.85107 17.2607 9.85107 16.7847L9.85107 8.14209C9.85107 7.62939 9.49707 7.26318 8.98438 7.26318C8.59375 7.26318 8.34961 7.38525 7.92236 7.67822L6.06689 8.94775C5.81055 9.13086 5.65186 9.35059 5.65186 9.66797C5.65186 10.083 5.99365 10.4004 6.34766 10.4004C6.54297 10.4004 6.66504 10.3882 6.9458 10.1685L8.25195 9.2041L8.3252 9.2041L8.3252 16.7847C8.3252 17.2607 8.61816 17.5659 9.06982 17.5659ZM17.0776 17.688C17.5659 17.688 17.8223 17.3462 17.8223 16.8701L17.8223 15.4297L18.4814 15.4297C18.9087 15.4297 19.1772 15.1855 19.1772 14.7583C19.1772 14.3188 18.8965 14.0625 18.4814 14.0625L17.8223 14.0625L17.8223 8.34961C17.8223 7.6416 17.334 7.18994 16.6138 7.18994C15.9058 7.18994 15.4785 7.4585 15.0757 8.12988C14.0625 9.83887 12.8296 11.9385 11.9995 13.4155C11.8042 13.7939 11.7432 14.0625 11.7432 14.3921C11.7432 15.0391 12.1582 15.4297 12.7808 15.4297L16.3452 15.4297L16.3452 16.8701C16.3452 17.334 16.6016 17.688 17.0776 17.688ZM16.3452 14.0625L13.3301 14.0625L13.3301 14.0137C14.0503 12.6343 15.3076 10.4858 16.2842 8.83789L16.3452 8.83789Z" fill="#5ac8f5"/>
 </g>
</svg>
