<?xml version="1.0" encoding="UTF-8"?>
<!--Generator: Apple Native CoreSVG 175.5-->
<!DOCTYPE svg
PUBLIC "-//W3C//DTD SVG 1.1//EN"
       "http://www.w3.org/Graphics/SVG/1.1/DTD/svg11.dtd">
<svg version="1.1" xmlns="http://www.w3.org/2000/svg" xmlns:xlink="http://www.w3.org/1999/xlink" width="34.6069" height="20.9106">
 <g>
  <rect height="20.9106" opacity="0" width="34.6069" x="0" y="0"/>
  <path d="M17.2852 20.8862C27.5879 20.8862 34.6069 16.1621 34.6069 10.4492C34.6069 4.73633 27.5879 0 17.2852 0C7.00684 0 0 4.73633 0 10.4492C0 16.1621 7.00684 20.8862 17.2852 20.8862ZM17.2852 17.2119C10.791 17.2119 5.84717 14.502 5.84717 10.7788C5.84717 7.08008 10.791 4.37012 17.2852 4.37012C23.8159 4.37012 28.772 7.08008 28.772 10.7788C28.772 14.4897 23.8037 17.2119 17.2852 17.2119ZM17.2729 11.5234C21.0083 11.5234 24.2676 9.83887 25.5249 7.49512C23.7305 6.28662 20.874 5.54199 17.2852 5.54199C13.6841 5.54199 10.8032 6.29883 9.00879 7.54395C10.2905 9.87549 13.5376 11.5234 17.2729 11.5234Z" fill="#5ac8f5"/>
 </g>
</svg>
