<?xml version="1.0" encoding="UTF-8"?>
<!--Generator: Apple Native CoreSVG 175.5-->
<!DOCTYPE svg
PUBLIC "-//W3C//DTD SVG 1.1//EN"
       "http://www.w3.org/Graphics/SVG/1.1/DTD/svg11.dtd">
<svg version="1.1" xmlns="http://www.w3.org/2000/svg" xmlns:xlink="http://www.w3.org/1999/xlink" width="20.5322" height="26.1841">
 <g>
  <rect height="26.1841" opacity="0" width="20.5322" x="0" y="0"/>
  <path d="M0 22.3511C0 24.9023 1.25732 26.1719 3.78418 26.1719L16.748 26.1719C19.2749 26.1719 20.5322 24.9023 20.5322 22.3511L20.5322 3.83301C20.5322 1.29395 19.2749 0 16.748 0L3.78418 0C1.25732 0 0 1.29395 0 3.83301Z" fill="#5ac8f5" fill-opacity="0.25"/>
  <path d="M4.30908 13.0981C4.30908 12.4634 4.76074 12.0239 5.39551 12.0239L9.21631 12.0239L9.21631 8.20312C9.21631 7.56836 9.64355 7.12891 10.2539 7.12891C10.9009 7.12891 11.3281 7.56836 11.3281 8.20312L11.3281 12.0239L15.1611 12.0239C15.7959 12.0239 16.2354 12.4634 16.2354 13.0981C16.2354 13.7207 15.7837 14.1479 15.1611 14.1479L11.3281 14.1479L11.3281 17.981C11.3281 18.6035 10.9009 19.0552 10.2539 19.0552C9.64355 19.0552 9.21631 18.6035 9.21631 17.981L9.21631 14.1479L5.39551 14.1479C4.76074 14.1479 4.30908 13.7207 4.30908 13.0981Z" fill="#5ac8f5"/>
 </g>
</svg>
