<?xml version="1.0" encoding="UTF-8"?>
<!--Generator: Apple Native CoreSVG 175.5-->
<!DOCTYPE svg
PUBLIC "-//W3C//DTD SVG 1.1//EN"
       "http://www.w3.org/Graphics/SVG/1.1/DTD/svg11.dtd">
<svg version="1.1" xmlns="http://www.w3.org/2000/svg" xmlns:xlink="http://www.w3.org/1999/xlink" width="36.3801" height="25.5493">
 <g>
  <rect height="25.5493" opacity="0" width="36.3801" x="0" y="0"/>
  <path d="M0.91555 14.2212L10.1563 19.8853C11.4014 20.6421 12.6221 20.0928 12.6221 18.6035L12.6221 6.95801C12.6221 5.50537 11.4258 4.91943 10.1563 5.68848L0.91555 11.3525C-0.31736 12.0972-0.292946 13.4766 0.91555 14.2212ZM18.1885 25.5493C18.6646 25.5493 19.0918 25.1709 19.0918 24.6948L19.0918 0.866699C19.0918 0.390625 18.6646 0.0244141 18.1885 0.0244141C17.7124 0.0244141 17.2974 0.390625 17.2974 0.866699L17.2974 24.6948C17.2974 25.1709 17.7124 25.5493 18.1885 25.5493ZM26.2207 19.8853L35.4737 14.2212C36.6699 13.4766 36.6944 12.0972 35.4737 11.3525L26.2207 5.68848C24.9512 4.91943 23.7549 5.50537 23.7549 6.95801L23.7549 18.6035C23.7549 20.0928 24.9756 20.6421 26.2207 19.8853Z" fill="#5ac8f5"/>
 </g>
</svg>
