<?xml version="1.0" encoding="UTF-8"?>
<!--Generator: Apple Native CoreSVG 175.5-->
<!DOCTYPE svg
PUBLIC "-//W3C//DTD SVG 1.1//EN"
       "http://www.w3.org/Graphics/SVG/1.1/DTD/svg11.dtd">
<svg version="1.1" xmlns="http://www.w3.org/2000/svg" xmlns:xlink="http://www.w3.org/1999/xlink" width="22.4731" height="22.4976">
 <g>
  <rect height="22.4976" opacity="0" width="22.4731" x="0" y="0"/>
  <path d="M3.83301 22.4976L18.6401 22.4976C21.2036 22.4976 22.4731 21.228 22.4731 18.7134L22.4731 3.80859C22.4731 1.29395 21.2036 0.0244141 18.6401 0.0244141L3.83301 0.0244141C1.28174 0.0244141 0 1.28174 0 3.80859L0 18.7134C0 21.2402 1.28174 22.4976 3.83301 22.4976Z" fill="#5ac8f5" fill-opacity="0.25"/>
  <path d="M13.5864 17.2729C13.2568 17.2729 12.9883 17.1631 12.6709 16.8457L9.77783 14.0869C9.74121 14.0503 9.64355 14.0259 9.58252 14.0259L7.6416 14.0259C6.70166 14.0259 6.20117 13.5254 6.20117 12.5366L6.20117 9.98535C6.20117 8.99658 6.70166 8.49609 7.6416 8.49609L9.58252 8.49609C9.64355 8.49609 9.74121 8.47168 9.77783 8.43506L12.6709 5.68848C13.0371 5.35889 13.2446 5.22461 13.5742 5.22461C14.0259 5.22461 14.3433 5.59082 14.3433 6.03027L14.3433 16.5161C14.3433 16.9678 14.0259 17.2729 13.5864 17.2729Z" fill="#5ac8f5"/>
 </g>
</svg>
