<?xml version="1.0" encoding="UTF-8"?>
<!--Generator: Apple Native CoreSVG 175.5-->
<!DOCTYPE svg
PUBLIC "-//W3C//DTD SVG 1.1//EN"
       "http://www.w3.org/Graphics/SVG/1.1/DTD/svg11.dtd">
<svg version="1.1" xmlns="http://www.w3.org/2000/svg" xmlns:xlink="http://www.w3.org/1999/xlink" width="26.9043" height="26.8188">
 <g>
  <rect height="26.8188" opacity="0" width="26.9043" x="0" y="0"/>
  <path d="M7.50732 26.8188C8.10547 26.8188 8.52051 26.5015 9.26514 25.8423L13.4766 22.0947L21.3135 22.0947C24.9512 22.0947 26.9043 20.0806 26.9043 16.5039L26.9043 7.15332C26.9043 3.57666 24.9512 1.5625 21.3135 1.5625L5.59082 1.5625C1.95312 1.5625 0 3.56445 0 7.15332L0 16.5039C0 20.0928 1.95312 22.0947 5.59082 22.0947L6.17676 22.0947L6.17676 25.2686C6.17676 26.2085 6.65283 26.8188 7.50732 26.8188ZM8.00781 24.585L8.00781 21.0449C8.00781 20.3857 7.75146 20.1294 7.09229 20.1294L5.59082 20.1294C3.125 20.1294 1.96533 18.8721 1.96533 16.4917L1.96533 7.15332C1.96533 4.77295 3.125 3.52783 5.59082 3.52783L21.3135 3.52783C23.7671 3.52783 24.939 4.77295 24.939 7.15332L24.939 16.4917C24.939 18.8721 23.7671 20.1294 21.3135 20.1294L13.4033 20.1294C12.7197 20.1294 12.3779 20.2271 11.9141 20.7031ZM7.16553 8.45947L19.5923 8.45947C19.9829 8.45947 20.2881 8.1543 20.2881 7.75146C20.2881 7.37305 19.9829 7.05566 19.5923 7.05566L7.16553 7.05566C6.7749 7.05566 6.45752 7.37305 6.45752 7.75146C6.45752 8.1543 6.7749 8.45947 7.16553 8.45947ZM7.16553 12.439L19.5923 12.439C19.9829 12.439 20.2881 12.1216 20.2881 11.7188C20.2881 11.3403 19.9829 11.0229 19.5923 11.0229L7.16553 11.0229C6.7749 11.0229 6.45752 11.3403 6.45752 11.7188C6.45752 12.1216 6.7749 12.439 7.16553 12.439ZM7.16553 16.4062L15.2466 16.4062C15.6372 16.4062 15.9424 16.1011 15.9424 15.7104C15.9424 15.3076 15.6372 14.9902 15.2466 14.9902L7.16553 14.9902C6.7749 14.9902 6.45752 15.3076 6.45752 15.7104C6.45752 16.1011 6.7749 16.4062 7.16553 16.4062Z" fill="#5ac8f5"/>
 </g>
</svg>
