<?xml version="1.0" encoding="UTF-8"?>
<!--Generator: Apple Native CoreSVG 175.5-->
<!DOCTYPE svg
PUBLIC "-//W3C//DTD SVG 1.1//EN"
       "http://www.w3.org/Graphics/SVG/1.1/DTD/svg11.dtd">
<svg version="1.1" xmlns="http://www.w3.org/2000/svg" xmlns:xlink="http://www.w3.org/1999/xlink" width="22.2168" height="22.229">
 <g>
  <rect height="22.229" opacity="0" width="22.2168" x="0" y="0"/>
  <path d="M20.7886 1.44043C19.5435 0.195312 17.7856 0 15.6982 0L6.48193 0C4.43115 0 2.67334 0.195312 1.42822 1.44043C0.183105 2.68555 0 4.43115 0 6.46973L0 15.6982C0 17.7856 0.183105 19.519 1.42822 20.7642C2.67334 22.0093 4.43115 22.2046 6.50635 22.2046L15.6982 22.2046C17.7856 22.2046 19.5435 22.0093 20.7886 20.7642C22.0337 19.519 22.2168 17.7856 22.2168 15.6982L22.2168 6.50635C22.2168 4.41895 22.0337 2.67334 20.7886 1.44043Z" fill="#5ac8f5" fill-opacity="0.25"/>
  <path d="M10.8643 13.7207C10.2051 13.7207 9.85107 13.3789 9.85107 12.7197C9.85107 12.6709 9.85107 12.6099 9.85107 12.561C9.85107 11.3159 10.5225 10.6567 11.4258 10.022C12.5244 9.25293 13.0615 8.83789 13.0615 7.9834C13.0615 7.03125 12.3047 6.38428 11.1694 6.38428C10.3394 6.38428 9.68018 6.79932 9.22852 7.53174L9.00879 7.83691C8.77686 8.12988 8.5083 8.3374 8.08105 8.3374C7.65381 8.3374 7.20215 8.03223 7.20215 7.4707C7.20215 7.25098 7.25098 7.04346 7.31201 6.84814C7.66602 5.68848 9.08203 4.67529 11.2549 4.67529C13.4033 4.67529 15.2588 5.78613 15.2588 7.88574C15.2588 9.39941 14.3799 10.1318 13.1592 10.9375C12.2925 11.5112 11.8774 11.9629 11.8774 12.6709C11.8774 12.7075 11.8774 12.7686 11.8774 12.8174C11.8774 13.3179 11.499 13.7207 10.8643 13.7207ZM10.8276 17.4683C10.1074 17.4683 9.46045 16.8823 9.46045 16.1621C9.46045 15.4419 10.0952 14.8438 10.8276 14.8438C11.5723 14.8438 12.1948 15.4297 12.1948 16.1621C12.1948 16.8945 11.5601 17.4683 10.8276 17.4683Z" fill="#5ac8f5"/>
 </g>
</svg>
