<?xml version="1.0" encoding="UTF-8"?>
<!--Generator: Apple Native CoreSVG 175.5-->
<!DOCTYPE svg
PUBLIC "-//W3C//DTD SVG 1.1//EN"
       "http://www.w3.org/Graphics/SVG/1.1/DTD/svg11.dtd">
<svg version="1.1" xmlns="http://www.w3.org/2000/svg" xmlns:xlink="http://www.w3.org/1999/xlink" width="25.5859" height="23.3276">
 <g>
  <rect height="23.3276" opacity="0" width="25.5859" x="0" y="0"/>
  <path d="M3.33252 23.1934L22.2534 23.1934C24.3286 23.1934 25.5859 21.7529 25.5859 19.8853C25.5859 19.3115 25.415 18.7134 25.1099 18.1763L15.6372 1.67236C15.0024 0.561523 13.916 0 12.793 0C11.6699 0 10.5713 0.561523 9.94873 1.67236L0.476074 18.1763C0.146484 18.7256 0 19.3115 0 19.8853C0 21.7529 1.25732 23.1934 3.33252 23.1934ZM3.34473 21.2769C2.49023 21.2769 1.97754 20.6177 1.97754 19.873C1.97754 19.6411 2.02637 19.3481 2.16064 19.0918L11.6211 2.6001C11.8774 2.14844 12.3413 1.95312 12.793 1.95312C13.2446 1.95312 13.6963 2.14844 13.9526 2.6001L23.4131 19.104C23.5474 19.3604 23.6084 19.6411 23.6084 19.873C23.6084 20.6177 23.0713 21.2769 22.229 21.2769Z" fill="#5ac8f5" fill-opacity="0.5"/>
  <path d="M12.793 14.9658C13.3789 14.9658 13.7207 14.624 13.7329 13.9893L13.9038 7.55615C13.916 6.93359 13.4277 6.46973 12.7808 6.46973C12.1216 6.46973 11.6577 6.92139 11.6699 7.54395L11.8286 13.9893C11.8408 14.6118 12.1826 14.9658 12.793 14.9658ZM12.793 18.9331C13.501 18.9331 14.1113 18.3716 14.1113 17.6636C14.1113 16.9434 13.5132 16.394 12.793 16.394C12.0728 16.394 11.4746 16.9556 11.4746 17.6636C11.4746 18.3594 12.085 18.9331 12.793 18.9331Z" fill="#5ac8f5"/>
 </g>
</svg>
