<?xml version="1.0" encoding="UTF-8"?>
<!--Generator: Apple Native CoreSVG 175.5-->
<!DOCTYPE svg
PUBLIC "-//W3C//DTD SVG 1.1//EN"
       "http://www.w3.org/Graphics/SVG/1.1/DTD/svg11.dtd">
<svg version="1.1" xmlns="http://www.w3.org/2000/svg" xmlns:xlink="http://www.w3.org/1999/xlink" width="24.9023" height="24.9146">
 <g>
  <rect height="24.9146" opacity="0" width="24.9023" x="0" y="0"/>
  <path d="M12.4512 24.9023C19.2627 24.9023 24.9023 19.2505 24.9023 12.4512C24.9023 5.63965 19.2505 0 12.439 0C5.63965 0 0 5.63965 0 12.4512C0 19.2505 5.65186 24.9023 12.4512 24.9023ZM12.4512 22.8271C6.68945 22.8271 2.0874 18.2129 2.0874 12.4512C2.0874 6.68945 6.67725 2.0752 12.439 2.0752C18.2007 2.0752 22.8271 6.68945 22.8271 12.4512C22.8271 18.2129 18.2129 22.8271 12.4512 22.8271Z" fill="#5ac8f5" fill-opacity="0.5"/>
  <path d="M11.145 10.5713C11.7065 10.73 12.0972 11.1816 12.4756 11.1816C12.9395 11.1816 13.3545 10.4736 14.2212 10.4736C15.0757 10.4736 15.5029 11.1816 15.9668 11.1816C16.333 11.1816 16.7236 10.7422 17.2974 10.5713L15.1245 7.70264C14.6118 7.04346 13.855 7.01904 13.3423 7.70264ZM8.59375 16.3574L19.8486 16.3574C20.7764 16.3574 21.0083 15.4541 20.5322 14.8438L17.8223 11.2793C17.395 11.0596 16.7847 11.8896 15.9668 11.8896C15.0513 11.8896 14.7095 11.1816 14.2212 11.1816C13.7329 11.1816 13.3789 11.8896 12.4756 11.8896C11.6455 11.8896 11.0474 11.0596 10.6201 11.2793L7.89795 14.8438C7.42188 15.4419 7.66602 16.3574 8.59375 16.3574ZM5.05371 16.3574L6.97021 16.3574C6.65283 15.7593 6.67725 14.9292 7.16553 14.2944L10.3271 10.1807L10.0708 9.87549C9.5459 9.24072 8.8501 9.24072 8.3252 9.87549L4.40674 14.7461C3.86963 15.4297 4.10156 16.3574 5.05371 16.3574Z" fill="#5ac8f5"/>
 </g>
</svg>
