<?xml version="1.0" encoding="UTF-8"?>
<!--Generator: Apple Native CoreSVG 175.5-->
<!DOCTYPE svg
PUBLIC "-//W3C//DTD SVG 1.1//EN"
       "http://www.w3.org/Graphics/SVG/1.1/DTD/svg11.dtd">
<svg version="1.1" xmlns="http://www.w3.org/2000/svg" xmlns:xlink="http://www.w3.org/1999/xlink" width="21.0327" height="22.3022">
 <g>
  <rect height="22.3022" opacity="0" width="21.0327" x="0" y="0"/>
  <path d="M12.4512 22.29C16.3208 22.29 19.6289 20.6177 20.8496 17.2119C20.9717 16.8945 21.0205 16.5649 21.0205 16.3086C21.0205 15.6738 20.6177 15.2588 19.9829 15.2588C19.4214 15.2588 19.0674 15.5762 18.811 16.2354C17.8589 18.9087 15.4541 20.1294 12.4634 20.1294C8.12988 20.1294 5.0415 16.626 5.0415 11.1084C5.0415 5.67627 8.12988 2.17285 12.4512 2.17285C15.4297 2.17285 17.8223 3.75977 18.7866 6.4209C19.0308 7.06787 19.4092 7.39746 19.9829 7.39746C20.6055 7.39746 21.0327 6.97021 21.0327 6.33545C21.0327 6.0791 20.9839 5.74951 20.8496 5.43213C19.6777 2.18506 16.6382 0 12.4512 0C6.67725 0 2.67334 4.3457 2.67334 11.1084C2.67334 17.9443 6.65283 22.29 12.4512 22.29ZM0.78125 9.75342L13.9771 9.75342C14.4409 9.75342 14.7705 9.39941 14.7705 8.95996C14.7705 8.48389 14.4409 8.1543 13.9771 8.1543L0.78125 8.1543C0.32959 8.1543 0 8.48389 0 8.95996C0 9.39941 0.341797 9.75342 0.78125 9.75342ZM0.78125 14.1357L13.9771 14.1357C14.4409 14.1357 14.7705 13.7817 14.7705 13.3423C14.7705 12.8662 14.4409 12.5366 13.9771 12.5366L0.78125 12.5366C0.341797 12.5366 0 12.8662 0 13.3423C0 13.7817 0.32959 14.1357 0.78125 14.1357Z" fill="#5ac8f5"/>
 </g>
</svg>
