<?xml version="1.0" encoding="UTF-8"?>
<!--Generator: Apple Native CoreSVG 175.5-->
<!DOCTYPE svg
PUBLIC "-//W3C//DTD SVG 1.1//EN"
       "http://www.w3.org/Graphics/SVG/1.1/DTD/svg11.dtd">
<svg version="1.1" xmlns="http://www.w3.org/2000/svg" xmlns:xlink="http://www.w3.org/1999/xlink" width="24.9023" height="24.9146">
 <g>
  <rect height="24.9146" opacity="0" width="24.9023" x="0" y="0"/>
  <path d="M12.4512 24.9023C19.2627 24.9023 24.9023 19.2505 24.9023 12.4512C24.9023 5.63965 19.2505 0 12.439 0C5.63965 0 0 5.63965 0 12.4512C0 19.2505 5.65186 24.9023 12.4512 24.9023ZM8.49609 15.5762C7.94678 15.5762 7.56836 15.1489 7.56836 14.563L7.56836 8.63037C7.56836 7.88574 7.9834 7.59277 8.63037 7.59277L14.5874 7.59277C15.1855 7.59277 15.564 7.95898 15.564 8.52051C15.564 9.06982 15.1733 9.43604 14.563 9.43604L12.2925 9.43604L10.4248 9.24072L12.3901 11.0718L17.0166 15.686C17.1997 15.8691 17.3218 16.1255 17.3218 16.3696C17.3218 16.9434 16.9434 17.3096 16.394 17.3096C16.0889 17.3096 15.8447 17.1997 15.6616 17.0166L11.0596 12.4023L9.24072 10.4614L9.42383 12.4268L9.42383 14.5874C9.42383 15.1855 9.05762 15.5762 8.49609 15.5762Z" fill="#5ac8f5"/>
 </g>
</svg>
