<?xml version="1.0" encoding="UTF-8"?>
<!--Generator: Apple Native CoreSVG 175.5-->
<!DOCTYPE svg
PUBLIC "-//W3C//DTD SVG 1.1//EN"
       "http://www.w3.org/Graphics/SVG/1.1/DTD/svg11.dtd">
<svg version="1.1" xmlns="http://www.w3.org/2000/svg" xmlns:xlink="http://www.w3.org/1999/xlink" width="25.8301" height="25.5737">
 <g>
  <rect height="25.5737" opacity="0" width="25.8301" x="0" y="0"/>
  <path d="M16.0889 0.012207L3.83301 0.012207C1.28174 0.012207 0 1.28174 0 3.79639L0 16.1377C0 18.6523 1.28174 19.9219 3.83301 19.9219L16.0889 19.9219C18.6401 19.9219 19.9097 18.6646 19.9097 16.1377L19.9097 3.79639C19.9097 1.26953 18.6401 0.012207 16.0889 0.012207ZM25.8301 9.43604C25.8301 6.92139 24.5605 5.66406 22.0093 5.66406L21.582 5.66406L21.582 16.1377C21.582 19.5923 19.5557 21.5942 16.0889 21.5942L5.92041 21.5942L5.92041 21.7896C5.92041 24.3042 7.20215 25.5737 9.75342 25.5737L22.0093 25.5737C24.5605 25.5737 25.8301 24.3164 25.8301 21.7896Z" fill="#5ac8f5" fill-opacity="0.25"/>
  <path d="M9.36279 15.8569C7.61719 15.8569 6.26221 15.0146 5.82275 13.6963C5.74951 13.501 5.71289 13.3179 5.71289 13.1104C5.71289 12.5488 6.09131 12.1704 6.65283 12.1704C7.08008 12.1704 7.36084 12.3779 7.58057 12.8418C7.89795 13.6597 8.52051 14.1357 9.46045 14.1357C10.498 14.1357 11.145 13.3789 11.145 12.1216L11.145 5.10254C11.145 4.41895 11.499 3.96729 12.146 3.96729C12.8174 3.96729 13.1714 4.39453 13.1714 5.10254L13.1714 12.146C13.1714 14.5508 11.8408 15.8569 9.36279 15.8569Z" fill="#5ac8f5"/>
 </g>
</svg>
