<?xml version="1.0" encoding="UTF-8"?>
<!--Generator: Apple Native CoreSVG 175.5-->
<!DOCTYPE svg
PUBLIC "-//W3C//DTD SVG 1.1//EN"
       "http://www.w3.org/Graphics/SVG/1.1/DTD/svg11.dtd">
<svg version="1.1" xmlns="http://www.w3.org/2000/svg" xmlns:xlink="http://www.w3.org/1999/xlink" width="24.9023" height="24.9146">
 <g>
  <rect height="24.9146" opacity="0" width="24.9023" x="0" y="0"/>
  <path d="M12.4512 24.9023C19.2627 24.9023 24.9023 19.2505 24.9023 12.4512C24.9023 5.63965 19.2505 0 12.439 0C5.63965 0 0 5.63965 0 12.4512C0 19.2505 5.65186 24.9023 12.4512 24.9023ZM12.4512 22.8271C6.68945 22.8271 2.0874 18.2129 2.0874 12.4512C2.0874 6.68945 6.67725 2.0752 12.439 2.0752C18.2007 2.0752 22.8271 6.68945 22.8271 12.4512C22.8271 18.2129 18.2129 22.8271 12.4512 22.8271ZM8.3374 18.2617L15.8936 18.2617C16.3208 18.2617 16.6016 17.9688 16.6016 17.5659C16.6016 17.1753 16.3086 16.8945 15.8936 16.8945L14.0259 16.8945C11.3281 16.8945 9.24072 14.8682 9.24072 12.207C9.24072 10.5347 9.79004 9.36279 10.791 8.75244L10.791 11.853C10.791 12.1948 11.0352 12.439 11.377 12.439C11.7188 12.439 11.9751 12.1948 11.9751 11.853L11.9751 8.3374C12.1826 8.31299 12.4023 8.28857 12.5854 8.28857C12.7808 8.28857 12.9517 8.31299 13.0981 8.3374L13.0981 11.853C13.0981 12.1948 13.3545 12.439 13.6963 12.439C14.0381 12.439 14.2822 12.1948 14.2822 11.853L14.2822 8.78906C15.1611 9.38721 15.7227 10.4248 15.7471 11.7798C15.7593 12.2559 16.0522 12.5854 16.5039 12.5854C16.9312 12.5854 17.2485 12.2559 17.2485 11.792C17.2363 9.64355 16.0645 7.83691 14.2822 7.15332L14.2822 6.03027C14.2822 5.67627 14.0381 5.43213 13.6963 5.43213C13.3545 5.43213 13.0981 5.67627 13.0981 6.03027L13.0981 6.86035C12.9395 6.83594 12.7686 6.83594 12.5977 6.83594C12.4023 6.83594 12.1826 6.84814 11.9751 6.87256L11.9751 6.03027C11.9751 5.67627 11.7188 5.43213 11.377 5.43213C11.0352 5.43213 10.791 5.67627 10.791 6.03027L10.791 7.1167C8.8501 7.8125 7.67822 9.60693 7.67822 12.0361C7.67822 14.1235 8.65479 15.9302 10.1562 16.8945L8.34961 16.8945C7.94678 16.8945 7.6416 17.1753 7.6416 17.5659C7.6416 17.981 7.92236 18.2617 8.3374 18.2617Z" fill="#5ac8f5"/>
 </g>
</svg>
