<?xml version="1.0" encoding="UTF-8"?>
<!--Generator: Apple Native CoreSVG 175.5-->
<!DOCTYPE svg
PUBLIC "-//W3C//DTD SVG 1.1//EN"
       "http://www.w3.org/Graphics/SVG/1.1/DTD/svg11.dtd">
<svg version="1.1" xmlns="http://www.w3.org/2000/svg" xmlns:xlink="http://www.w3.org/1999/xlink" width="24.9023" height="24.9146">
 <g>
  <rect height="24.9146" opacity="0" width="24.9023" x="0" y="0"/>
  <path d="M12.4512 24.9023C19.2627 24.9023 24.9023 19.2505 24.9023 12.4512C24.9023 5.63965 19.2505 0 12.439 0C5.63965 0 0 5.63965 0 12.4512C0 19.2505 5.65186 24.9023 12.4512 24.9023ZM8.28857 17.8833C6.57959 17.8833 5.23682 16.8335 4.90723 15.6738C4.87061 15.5151 4.83398 15.3809 4.83398 15.21C4.83398 14.7705 5.13916 14.4531 5.57861 14.4531C5.93262 14.4531 6.14014 14.6484 6.29883 15.0513C6.62842 15.9302 7.31201 16.4185 8.30078 16.4185C9.50928 16.4185 10.3516 15.686 10.3516 14.7095C10.3516 13.6841 9.58252 13.0127 8.38623 13.0127L7.65381 13.0127C7.23877 13.0127 6.95801 12.6953 6.95801 12.2925C6.95801 11.8286 7.25098 11.5356 7.65381 11.5356L8.3252 11.5356C9.33838 11.5356 10.0342 10.8765 10.0342 9.96094C10.0342 9.08203 9.33838 8.48389 8.3374 8.48389C7.36084 8.48389 6.7627 8.97217 6.46973 9.85107C6.35986 10.2539 6.15234 10.4492 5.77393 10.4492C5.33447 10.4492 5.05371 10.1318 5.05371 9.68018C5.05371 9.52148 5.05371 9.38721 5.07812 9.22852C5.40771 7.99561 6.67725 7.01904 8.37402 7.01904C10.2539 7.01904 11.5845 8.14209 11.5845 9.75342C11.5845 10.9375 10.7666 11.9873 9.729 12.1582L9.729 12.2314C10.9985 12.3657 11.9141 13.4399 11.9141 14.7827C11.9141 16.5894 10.437 17.8833 8.28857 17.8833ZM16.7236 17.8833C15.1489 17.8833 13.9038 17.0532 13.5254 16.0034C13.4644 15.8325 13.4277 15.6372 13.4277 15.4297C13.4277 15.0146 13.7085 14.6973 14.1357 14.6973C14.4287 14.6973 14.6729 14.8804 14.856 15.2466C15.2222 16.0034 15.9668 16.4551 16.8091 16.4551C18.0298 16.4551 18.8599 15.6616 18.8599 14.3433C18.8599 13.1836 18.103 12.3047 17.0044 12.3047C16.4551 12.3047 16.0522 12.4878 15.5396 12.9395C15.1367 13.269 14.8926 13.3789 14.502 13.3789C13.916 13.3789 13.5742 12.9395 13.6108 12.2803L13.9282 8.36182C13.9648 7.69043 14.4043 7.2876 15.0635 7.2876L19.397 7.2876C19.7632 7.2876 20.0195 7.59277 20.0195 7.99561C20.0195 8.41064 19.751 8.70361 19.397 8.70361L15.2344 8.70361L14.9902 11.9385L15.0513 11.9385C15.4175 11.3647 16.3208 10.9497 17.1631 10.9497C19.1162 10.9497 20.4346 12.3657 20.4346 14.3066C20.4346 16.5161 18.9453 17.8833 16.7236 17.8833Z" fill="#5ac8f5"/>
 </g>
</svg>
