<?xml version="1.0" encoding="UTF-8"?>
<!--Generator: Apple Native CoreSVG 175.5-->
<!DOCTYPE svg
PUBLIC "-//W3C//DTD SVG 1.1//EN"
       "http://www.w3.org/Graphics/SVG/1.1/DTD/svg11.dtd">
<svg version="1.1" xmlns="http://www.w3.org/2000/svg" xmlns:xlink="http://www.w3.org/1999/xlink" width="33.9966" height="23.0103">
 <g>
  <rect height="23.0103" opacity="0" width="33.9966" x="0" y="0"/>
  <path d="M15.6616 23.0103L30.9937 23.0103C33.0322 23.0103 33.9966 22.3999 33.9966 21.0571C33.9966 17.8589 29.9561 13.2324 23.3276 13.2324C16.7114 13.2324 12.6709 17.8589 12.6709 21.0571C12.6709 22.3999 13.6353 23.0103 15.6616 23.0103ZM15.0757 21.167C14.7583 21.167 14.6362 21.0815 14.6362 20.8252C14.6362 18.8232 17.7368 15.0757 23.3276 15.0757C28.9307 15.0757 32.0312 18.8232 32.0312 20.8252C32.0312 21.0815 31.897 21.167 31.5796 21.167ZM23.3398 11.7188C26.2451 11.7188 28.6133 9.13086 28.6133 5.98145C28.6133 2.85645 26.2573 0.402832 23.3398 0.402832C20.4346 0.402832 18.0542 2.90527 18.0664 6.00586C18.0786 9.14307 20.4346 11.7188 23.3398 11.7188ZM23.3398 9.87549C21.5576 9.87549 20.0317 8.1665 20.0317 6.00586C20.0195 3.88184 21.521 2.24609 23.3398 2.24609C25.1587 2.24609 26.6479 3.85742 26.6479 5.98145C26.6479 8.14209 25.1343 9.87549 23.3398 9.87549ZM2.47803 23.0103L12.0605 23.0103C11.4746 22.6807 11.0352 21.9482 11.1206 21.2036L2.18506 21.2036C1.92871 21.2036 1.81885 21.106 1.81885 20.874C1.81885 17.8467 5.27344 15.0146 9.26514 15.0146C10.791 15.0146 12.1826 15.3809 13.3667 16.0767C13.7451 15.5884 14.1968 15.1611 14.7461 14.7827C13.1714 13.7451 11.2793 13.208 9.26514 13.208C4.15039 13.208 0 16.9189 0 20.9839C0 22.3389 0.830078 23.0103 2.47803 23.0103ZM9.27734 11.8164C11.792 11.8164 13.855 9.55811 13.855 6.78711C13.855 4.07715 11.8164 1.89209 9.27734 1.89209C6.7627 1.89209 4.6875 4.11377 4.69971 6.81152C4.69971 9.57031 6.7627 11.8164 9.27734 11.8164ZM9.27734 9.99756C7.77588 9.99756 6.51855 8.56934 6.51855 6.81152C6.51855 5.09033 7.76367 3.71094 9.27734 3.71094C10.8154 3.71094 12.0483 5.06592 12.0483 6.78711C12.0483 8.56934 10.7788 9.99756 9.27734 9.99756Z" fill="#5ac8f5"/>
 </g>
</svg>
