<?xml version="1.0" encoding="UTF-8"?>
<!--Generator: Apple Native CoreSVG 175.5-->
<!DOCTYPE svg
PUBLIC "-//W3C//DTD SVG 1.1//EN"
       "http://www.w3.org/Graphics/SVG/1.1/DTD/svg11.dtd">
<svg version="1.1" xmlns="http://www.w3.org/2000/svg" xmlns:xlink="http://www.w3.org/1999/xlink" width="23.2422" height="17.8589">
 <g>
  <rect height="17.8589" opacity="0" width="23.2422" x="0" y="0"/>
  <path d="M18.9941 8.52051C21.4966 8.52051 23.2422 6.81152 23.2422 4.3457C23.2422 1.89209 21.4966 0.170898 18.9941 0.170898C16.5649 0.170898 14.8804 1.89209 14.8804 4.3457C14.8804 6.81152 16.5771 8.52051 18.9941 8.52051ZM18.9941 6.89697C17.7002 6.89697 16.7969 5.84717 16.7969 4.3457C16.7969 2.84424 17.7002 1.80664 18.9941 1.80664C20.3735 1.80664 21.3135 2.84424 21.3135 4.3457C21.3135 5.84717 20.3613 6.89697 18.9941 6.89697ZM1.0376 17.8589C1.69678 17.8589 2.0874 17.4438 2.0874 16.7847L2.0874 4.02832L2.03857 4.02832L10.8276 17.041C11.2549 17.6514 11.5845 17.8589 12.1216 17.8589C12.8296 17.8589 13.2446 17.4194 13.2446 16.6626L13.2446 1.33057C13.2446 0.65918 12.854 0.231934 12.1948 0.231934C11.5601 0.231934 11.1572 0.65918 11.1572 1.33057L11.1572 14.0747L11.2061 14.0747L2.41699 1.0498C1.98975 0.427246 1.68457 0.231934 1.12305 0.231934C0.439453 0.231934 0 0.708008 0 1.42822L0 16.7847C0 17.4438 0.415039 17.8589 1.0376 17.8589ZM16.0767 11.5723L22.0581 11.5723C22.644 11.5723 23.0957 11.2061 23.0957 10.6079C23.0957 10.0098 22.644 9.61914 22.0581 9.61914L16.0767 9.61914C15.4907 9.61914 15.0635 10.0098 15.0635 10.6079C15.0635 11.2061 15.4907 11.5723 16.0767 11.5723Z" fill="#5ac8f5"/>
 </g>
</svg>
