<?xml version="1.0" encoding="UTF-8"?>
<!--Generator: Apple Native CoreSVG 175.5-->
<!DOCTYPE svg
PUBLIC "-//W3C//DTD SVG 1.1//EN"
       "http://www.w3.org/Graphics/SVG/1.1/DTD/svg11.dtd">
<svg version="1.1" xmlns="http://www.w3.org/2000/svg" xmlns:xlink="http://www.w3.org/1999/xlink" width="29.8462" height="25.9155">
 <g>
  <rect height="25.9155" opacity="0" width="29.8462" x="0" y="0"/>
  <path d="M0.976562 25.9033C1.52588 25.9033 1.96533 25.4639 1.96533 24.9268L1.96533 2.6123C1.96533 2.22168 2.22168 1.96533 2.58789 1.96533L27.2583 1.96533C27.6245 1.96533 27.8809 2.22168 27.8809 2.6123L27.8809 24.9268C27.8809 25.4639 28.3203 25.9033 28.8574 25.9033C29.4067 25.9033 29.8462 25.4639 29.8462 24.9268L29.8462 2.49023C29.8462 1.00098 28.8208 0 27.2827 0L2.55127 0C1.02539 0 0 1.00098 0 2.49023L0 24.9268C0 25.4639 0.439453 25.9033 0.976562 25.9033Z" fill="#5ac8f5" fill-opacity="0.5"/>
  <path d="M3.80859 25.4883L13.7939 25.4883C14.0259 25.4883 14.209 25.3052 14.209 25.0732L14.209 3.8208C14.209 3.58887 14.0259 3.40576 13.7939 3.40576L3.80859 3.40576C3.57666 3.40576 3.39355 3.58887 3.39355 3.8208L3.39355 25.0732C3.39355 25.3052 3.57666 25.4883 3.80859 25.4883ZM5.48096 9.98535C5.31006 9.98535 5.18799 9.86328 5.18799 9.66797L5.18799 5.51758C5.18799 5.32227 5.31006 5.2002 5.48096 5.2002L12.1216 5.2002C12.2925 5.2002 12.4146 5.32227 12.4146 5.51758L12.4146 9.66797C12.4146 9.86328 12.2925 9.98535 12.1216 9.98535ZM5.48096 16.8335C5.31006 16.8335 5.18799 16.7114 5.18799 16.5161L5.18799 12.3657C5.18799 12.1704 5.31006 12.0605 5.48096 12.0605L12.1216 12.0605C12.2925 12.0605 12.4146 12.1704 12.4146 12.3657L12.4146 16.5161C12.4146 16.7114 12.2925 16.8335 12.1216 16.8335ZM5.48096 23.6938C5.31006 23.6938 5.18799 23.5718 5.18799 23.3765L5.18799 19.2261C5.18799 19.0308 5.31006 18.9209 5.48096 18.9209L12.1216 18.9209C12.2925 18.9209 12.4146 19.0308 12.4146 19.2261L12.4146 23.3765C12.4146 23.5718 12.2925 23.6938 12.1216 23.6938ZM16.04 25.4761L26.0376 25.4761C26.2695 25.4761 26.4526 25.2808 26.4526 25.061L26.4526 3.79639C26.4526 3.56445 26.2695 3.38135 26.0376 3.38135L16.04 3.38135C15.8203 3.38135 15.6372 3.56445 15.6372 3.79639L15.6372 25.061C15.6372 25.2808 15.8203 25.4761 16.04 25.4761ZM17.7246 9.96094C17.5537 9.96094 17.4316 9.83887 17.4316 9.64355L17.4316 5.49316C17.4316 5.29785 17.5537 5.18799 17.7246 5.18799L24.3652 5.18799C24.5361 5.18799 24.646 5.29785 24.646 5.49316L24.646 9.64355C24.646 9.83887 24.5361 9.96094 24.3652 9.96094ZM17.7246 16.8091C17.5537 16.8091 17.4316 16.687 17.4316 16.5039L17.4316 12.3413C17.4316 12.1582 17.5537 12.0361 17.7246 12.0361L24.3652 12.0361C24.5361 12.0361 24.646 12.1582 24.646 12.3413L24.646 16.5039C24.646 16.687 24.5361 16.8091 24.3652 16.8091ZM17.7246 23.6694C17.5537 23.6694 17.4316 23.5474 17.4316 23.3643L17.4316 19.2017C17.4316 19.0186 17.5537 18.8965 17.7246 18.8965L24.3652 18.8965C24.5361 18.8965 24.646 19.0186 24.646 19.2017L24.646 23.3643C24.646 23.5474 24.5361 23.6694 24.3652 23.6694Z" fill="#5ac8f5"/>
 </g>
</svg>
