<?xml version="1.0" encoding="UTF-8"?>
<!--Generator: Apple Native CoreSVG 175.5-->
<!DOCTYPE svg
PUBLIC "-//W3C//DTD SVG 1.1//EN"
       "http://www.w3.org/Graphics/SVG/1.1/DTD/svg11.dtd">
<svg version="1.1" xmlns="http://www.w3.org/2000/svg" xmlns:xlink="http://www.w3.org/1999/xlink" width="16.04" height="27.8931">
 <g>
  <rect height="27.8931" opacity="0" width="16.04" x="0" y="0"/>
  <path d="M8.02002 27.8809C12.7319 27.8809 16.04 24.7192 16.04 20.2393L16.04 7.6416C16.04 3.14941 12.7319 0 8.02002 0C3.32031 0 0 3.14941 0 7.6416L0 20.2393C0 24.7192 3.32031 27.8809 8.02002 27.8809ZM8.00781 25.9155C4.45557 25.9155 1.95312 23.5718 1.95312 20.2393L1.95312 7.6416C1.95312 4.30908 4.45557 1.96533 8.00781 1.96533C11.5845 1.96533 14.0869 4.30908 14.0869 7.6416L14.0869 20.2393C14.0869 23.5718 11.5845 25.9155 8.00781 25.9155ZM8.02002 12.8662C10.5469 12.8662 12.5366 10.8765 12.5366 8.34961C12.5366 5.81055 10.5469 3.8208 8.02002 3.8208C5.49316 3.8208 3.49121 5.81055 3.49121 8.34961C3.49121 10.8765 5.49316 12.8662 8.02002 12.8662ZM8.02002 10.022C7.08008 10.022 6.34766 9.28955 6.34766 8.34961C6.34766 7.39746 7.08008 6.66504 8.02002 6.66504C8.95996 6.66504 9.68018 7.39746 9.68018 8.34961C9.68018 9.28955 8.95996 10.022 8.02002 10.022ZM8.02002 24.0234C10.5469 24.0234 12.5366 22.0337 12.5366 19.4946C12.5366 16.9678 10.5469 14.978 8.02002 14.978C5.49316 14.978 3.49121 16.9678 3.49121 19.4946C3.49121 22.0337 5.49316 24.0234 8.02002 24.0234ZM8.02002 22.4243C6.35986 22.4243 5.09033 21.1548 5.09033 19.4946C5.09033 17.8345 6.35986 16.5771 8.02002 16.5771C9.66797 16.5771 10.9375 17.8345 10.9375 19.4946C10.9375 21.1548 9.66797 22.4243 8.02002 22.4243Z" fill="#5ac8f5"/>
 </g>
</svg>
