<?xml version="1.0" encoding="UTF-8"?>
<!--Generator: Apple Native CoreSVG 175.5-->
<!DOCTYPE svg
PUBLIC "-//W3C//DTD SVG 1.1//EN"
       "http://www.w3.org/Graphics/SVG/1.1/DTD/svg11.dtd">
<svg version="1.1" xmlns="http://www.w3.org/2000/svg" xmlns:xlink="http://www.w3.org/1999/xlink" width="30.5176" height="25.2319">
 <g>
  <rect height="25.2319" opacity="0" width="30.5176" x="0" y="0"/>
  <path d="M3.13721 21.0938L27.3804 21.0938C29.4434 21.0938 30.5176 20.0317 30.5176 17.9565L30.5176 3.96729C30.5176 1.9043 29.4434 0.842285 27.3804 0.842285L3.13721 0.842285C1.07422 0.842285 0 1.9043 0 3.96729L0 17.9565C0 20.0317 1.07422 21.0938 3.13721 21.0938ZM3.17383 19.1284C2.36816 19.1284 1.96533 18.7256 1.96533 17.9321L1.96533 4.00391C1.96533 3.19824 2.36816 2.80762 3.17383 2.80762L27.3438 2.80762C28.1494 2.80762 28.5522 3.19824 28.5522 4.00391L28.5522 17.9321C28.5522 18.7256 28.1494 19.1284 27.3438 19.1284ZM9.11865 25.2319L21.3989 25.2319C21.936 25.2319 22.3877 24.7925 22.3877 24.2432C22.3877 23.6938 21.936 23.2544 21.3989 23.2544L9.11865 23.2544C8.58154 23.2544 8.12988 23.6938 8.12988 24.2432C8.12988 24.7925 8.58154 25.2319 9.11865 25.2319ZM11.3037 16.0156C11.3037 16.6748 11.9995 16.9067 12.5244 16.6016L20.9961 11.6211C21.5088 11.3037 21.4966 10.6201 20.9839 10.3271L12.5244 5.33447C11.9995 5.0293 11.3037 5.26123 11.3037 5.92041Z" fill="#5ac8f5"/>
 </g>
</svg>
