<?xml version="1.0" encoding="UTF-8"?>
<!--Generator: Apple Native CoreSVG 175.5-->
<!DOCTYPE svg
PUBLIC "-//W3C//DTD SVG 1.1//EN"
       "http://www.w3.org/Graphics/SVG/1.1/DTD/svg11.dtd">
<svg version="1.1" xmlns="http://www.w3.org/2000/svg" xmlns:xlink="http://www.w3.org/1999/xlink" width="24.9023" height="24.9146">
 <g>
  <rect height="24.9146" opacity="0" width="24.9023" x="0" y="0"/>
  <path d="M12.4512 24.9023C19.2627 24.9023 24.9023 19.2505 24.9023 12.4512C24.9023 5.63965 19.2505 0 12.439 0C5.63965 0 0 5.63965 0 12.4512C0 19.2505 5.65186 24.9023 12.4512 24.9023ZM12.4512 22.8271C6.68945 22.8271 2.0874 18.2129 2.0874 12.4512C2.0874 6.68945 6.67725 2.0752 12.439 2.0752C18.2007 2.0752 22.8271 6.68945 22.8271 12.4512C22.8271 18.2129 18.2129 22.8271 12.4512 22.8271Z" fill="#5ac8f5" fill-opacity="0.5"/>
  <path d="M7.16553 12.439C7.6416 12.439 8.03223 12.0605 8.03223 11.5845L8.03223 10.9863L7.89795 9.05762L10.5469 11.8286C10.9009 12.2192 11.4868 12.207 11.8408 11.8408C12.1948 11.4868 12.1826 10.8887 11.8286 10.5469L9.08203 7.92236L10.9497 8.04443L11.5479 8.04443C12.0239 8.04443 12.4023 7.66602 12.4023 7.18994C12.4023 6.71387 12.0239 6.32324 11.5479 6.32324L7.31201 6.32324C6.67725 6.32324 6.31104 6.604 6.31104 7.33643L6.31104 11.5845C6.31104 12.0605 6.68945 12.439 7.16553 12.439ZM13.3423 18.6035L17.5659 18.6035C18.2007 18.6035 18.5791 18.3228 18.5791 17.5903L18.5791 13.3423C18.5791 12.8662 18.1885 12.4878 17.7124 12.4878C17.2363 12.4878 16.8579 12.8662 16.8579 13.3423L16.8579 13.9404L16.98 15.8691L14.3433 13.0981C13.9771 12.7075 13.4033 12.7197 13.0371 13.0859C12.6831 13.4399 12.6953 14.0381 13.0493 14.3799L15.8081 17.0044L13.9404 16.8823L13.3423 16.8823C12.8662 16.8823 12.4756 17.2607 12.4756 17.7368C12.4756 18.2129 12.8662 18.6035 13.3423 18.6035Z" fill="#5ac8f5"/>
 </g>
</svg>
