<?xml version="1.0" encoding="UTF-8"?>
<!--Generator: Apple Native CoreSVG 175.5-->
<!DOCTYPE svg
PUBLIC "-//W3C//DTD SVG 1.1//EN"
       "http://www.w3.org/Graphics/SVG/1.1/DTD/svg11.dtd">
<svg version="1.1" xmlns="http://www.w3.org/2000/svg" xmlns:xlink="http://www.w3.org/1999/xlink" width="22.4731" height="22.4976">
 <g>
  <rect height="22.4976" opacity="0" width="22.4731" x="0" y="0"/>
  <path d="M3.83301 22.4976L18.6401 22.4976C21.2036 22.4976 22.4731 21.228 22.4731 18.7134L22.4731 3.80859C22.4731 1.29395 21.2036 0.0244141 18.6401 0.0244141L3.83301 0.0244141C1.28174 0.0244141 0 1.28174 0 3.80859L0 18.7134C0 21.2402 1.28174 22.4976 3.83301 22.4976ZM3.85742 20.5322C2.63672 20.5322 1.96533 19.8853 1.96533 18.6157L1.96533 3.90625C1.96533 2.63672 2.63672 1.98975 3.85742 1.98975L18.6157 1.98975C19.8242 1.98975 20.5078 2.63672 20.5078 3.90625L20.5078 18.6157C20.5078 19.8853 19.8242 20.5322 18.6157 20.5322Z" fill="#5ac8f5" fill-opacity="0.5"/>
  <path d="M6.88477 11.6821C6.88477 13.916 8.37402 15.4785 10.3638 15.4785C11.3647 15.4785 12.2437 15.0879 12.793 14.3921L12.793 14.8804C12.793 15.3198 13.0981 15.625 13.5376 15.625C13.9648 15.625 14.2578 15.3198 14.2578 14.8804L14.2578 6.98242L15.0391 6.98242C15.3687 6.98242 15.6128 6.73828 15.6128 6.40869C15.6128 6.0791 15.3809 5.82275 15.0391 5.82275L14.2578 5.82275L14.2578 5.24902C14.2578 4.77295 13.9526 4.46777 13.501 4.46777C13.0371 4.46777 12.7319 4.77295 12.7319 5.24902L12.7319 5.82275L10.5103 5.82275C10.1685 5.82275 9.94873 6.0791 9.94873 6.40869C9.94873 6.73828 10.1807 6.98242 10.5103 6.98242L12.7319 6.98242L12.7319 8.93555C12.207 8.27637 11.3525 7.88574 10.3516 7.88574C8.36182 7.88574 6.88477 9.43604 6.88477 11.6821ZM8.44727 11.6943C8.44727 10.2539 9.32617 9.30176 10.6201 9.30176C11.8652 9.30176 12.7686 10.3149 12.7686 11.6943C12.7686 13.0859 11.8652 14.0869 10.6201 14.0869C9.32617 14.0869 8.44727 13.147 8.44727 11.6943ZM7.50732 16.8701C7.50732 17.1997 7.76367 17.4683 8.09326 17.4683L14.0503 17.4683C14.3799 17.4683 14.6362 17.1997 14.6362 16.8701C14.6362 16.5283 14.3921 16.2842 14.0503 16.2842L8.09326 16.2842C7.75146 16.2842 7.50732 16.5405 7.50732 16.8701Z" fill="#5ac8f5"/>
 </g>
</svg>
