<?xml version="1.0" encoding="UTF-8"?>
<!--Generator: Apple Native CoreSVG 175.5-->
<!DOCTYPE svg
PUBLIC "-//W3C//DTD SVG 1.1//EN"
       "http://www.w3.org/Graphics/SVG/1.1/DTD/svg11.dtd">
<svg version="1.1" xmlns="http://www.w3.org/2000/svg" xmlns:xlink="http://www.w3.org/1999/xlink" width="14.8193" height="18.0542">
 <g>
  <rect height="18.0542" opacity="0" width="14.8193" x="0" y="0"/>
  <path d="M1.02539 18.0298C1.67236 18.0298 1.98975 17.7856 2.22168 17.1021L3.79639 12.793L10.9985 12.793L12.5732 17.1021C12.8052 17.7856 13.1226 18.0298 13.7573 18.0298C14.4043 18.0298 14.8193 17.6392 14.8193 17.0288C14.8193 16.8213 14.7827 16.626 14.6851 16.3696L8.95996 1.12305C8.6792 0.378418 8.17871 0 7.39746 0C6.64062 0 6.12793 0.366211 5.85938 1.11084L0.134277 16.3818C0.0366211 16.6382 0 16.8335 0 17.041C0 17.6514 0.390625 18.0298 1.02539 18.0298ZM4.39453 10.9375L7.36084 2.72217L7.42188 2.72217L10.3882 10.9375Z" fill="#5ac8f5"/>
 </g>
</svg>
