<?xml version="1.0" encoding="UTF-8"?>
<!--Generator: Apple Native CoreSVG 175.5-->
<!DOCTYPE svg
PUBLIC "-//W3C//DTD SVG 1.1//EN"
       "http://www.w3.org/Graphics/SVG/1.1/DTD/svg11.dtd">
<svg version="1.1" xmlns="http://www.w3.org/2000/svg" xmlns:xlink="http://www.w3.org/1999/xlink" width="20.1416" height="18.0542">
 <g>
  <rect height="18.0542" opacity="0" width="20.1416" x="0" y="0"/>
  <path d="M10.0708 3.69873C11.0718 3.69873 11.8774 2.88086 11.8774 1.9043C11.8774 0.90332 11.0718 0.0976562 10.0708 0.0976562C9.08203 0.0976562 8.27637 0.90332 8.27637 1.9043C8.27637 2.88086 9.08203 3.69873 10.0708 3.69873ZM10.0708 18.0542C11.0718 18.0542 11.8774 17.2485 11.8774 16.2476C11.8774 15.2588 11.0718 14.4531 10.0708 14.4531C9.08203 14.4531 8.27637 15.2588 8.27637 16.2476C8.27637 17.2485 9.08203 18.0542 10.0708 18.0542ZM1.08643 10.1318L19.0552 10.1318C19.6411 10.1318 20.1416 9.63135 20.1416 9.0332C20.1416 8.43506 19.6411 7.94678 19.0552 7.94678L1.08643 7.94678C0.500488 7.94678 0 8.43506 0 9.0332C0 9.63135 0.500488 10.1318 1.08643 10.1318Z" fill="#5ac8f5"/>
 </g>
</svg>
