<?xml version="1.0" encoding="UTF-8"?>
<!--Generator: Apple Native CoreSVG 175.5-->
<!DOCTYPE svg
PUBLIC "-//W3C//DTD SVG 1.1//EN"
       "http://www.w3.org/Graphics/SVG/1.1/DTD/svg11.dtd">
<svg version="1.1" xmlns="http://www.w3.org/2000/svg" xmlns:xlink="http://www.w3.org/1999/xlink" width="25.2563" height="18.9819">
 <g>
  <rect height="18.9819" opacity="0" width="25.2563" x="0" y="0"/>
  <path d="M1.08643 18.5059C1.7334 18.5059 2.18506 18.0786 2.18506 17.4561L2.18506 1.08643C2.18506 0.45166 1.7334 0 1.08643 0C0.45166 0 0 0.45166 0 1.08643L0 17.4561C0 18.0786 0.45166 18.5059 1.08643 18.5059ZM11.4502 18.5059C12.0605 18.5059 12.5244 18.0664 12.5244 17.4561C12.5244 17.1753 12.4146 16.8823 12.2314 16.687L9.49707 13.9038L4.69971 9.5459L4.45557 10.2173L8.09326 10.3516L24.1821 10.3516C24.8047 10.3516 25.2563 9.8877 25.2563 9.25293C25.2563 8.61816 24.8047 8.1665 24.1821 8.1665L8.09326 8.1665L4.45557 8.30078L4.69971 8.98438L9.49707 4.60205L12.2314 1.83105C12.4146 1.63574 12.5244 1.34277 12.5244 1.0498C12.5244 0.45166 12.0605 0 11.4502 0C11.1694 0 10.9131 0.109863 10.6689 0.341797L2.55127 8.43506C2.30713 8.6792 2.17285 8.95996 2.17285 9.25293C2.17285 9.55811 2.30713 9.83887 2.55127 10.0708L10.6689 18.1763C10.9131 18.4082 11.1694 18.5059 11.4502 18.5059Z" fill="#5ac8f5"/>
 </g>
</svg>
