<?xml version="1.0" encoding="UTF-8"?>
<!--Generator: Apple Native CoreSVG 175.5-->
<!DOCTYPE svg
PUBLIC "-//W3C//DTD SVG 1.1//EN"
       "http://www.w3.org/Graphics/SVG/1.1/DTD/svg11.dtd">
<svg version="1.1" xmlns="http://www.w3.org/2000/svg" xmlns:xlink="http://www.w3.org/1999/xlink" width="30.9326" height="20.9351">
 <g>
  <rect height="20.9351" opacity="0" width="30.9326" x="0" y="0"/>
  <path d="M2.05078 20.9351C4.30908 20.9351 7.75146 18.2495 15.4663 18.2495C23.1689 18.2495 26.6357 20.9229 28.8818 20.9229C30.2246 20.9229 30.9326 20.105 30.9326 18.75L30.9326 2.20947C30.9326 0.842285 30.2246 0.0244141 28.8818 0.0244141C26.6357 0.0244141 23.1689 2.70996 15.4663 2.70996C7.77588 2.70996 4.30908 0.0244141 2.05078 0.0244141C0.708008 0.0244141 0 0.842285 0 2.19727L0 18.7622C0 20.1172 0.708008 20.9351 2.05078 20.9351ZM2.30713 18.9087C2.0874 18.9087 1.96533 18.7866 1.96533 18.5547L1.96533 2.40479C1.96533 2.17285 2.0874 2.05078 2.30713 2.05078C3.50342 2.05078 7.70264 4.56543 15.4663 4.56543C23.23 4.56543 27.6978 2.03857 28.6377 2.03857C28.8452 2.03857 28.9673 2.16064 28.9673 2.40479L28.9673 18.5547C28.9673 18.7866 28.8452 18.9087 28.6377 18.9087C27.4414 18.9087 23.23 16.394 15.4663 16.394C7.67822 16.394 3.24707 18.9087 2.30713 18.9087Z" fill="#5ac8f5"/>
 </g>
</svg>
