<?xml version="1.0" encoding="UTF-8"?>
<!--Generator: Apple Native CoreSVG 175.5-->
<!DOCTYPE svg
PUBLIC "-//W3C//DTD SVG 1.1//EN"
       "http://www.w3.org/Graphics/SVG/1.1/DTD/svg11.dtd">
<svg version="1.1" xmlns="http://www.w3.org/2000/svg" xmlns:xlink="http://www.w3.org/1999/xlink" width="24.9023" height="24.9146">
 <g>
  <rect height="24.9146" opacity="0" width="24.9023" x="0" y="0"/>
  <path d="M12.4512 24.9023C19.2627 24.9023 24.9023 19.2505 24.9023 12.4512C24.9023 5.63965 19.2505 0 12.439 0C5.63965 0 0 5.63965 0 12.4512C0 19.2505 5.65186 24.9023 12.4512 24.9023ZM12.4512 22.8271C6.68945 22.8271 2.0874 18.2129 2.0874 12.4512C2.0874 6.68945 6.67725 2.0752 12.439 2.0752C18.2007 2.0752 22.8271 6.68945 22.8271 12.4512C22.8271 18.2129 18.2129 22.8271 12.4512 22.8271ZM7.95898 16.9434C8.17871 16.9434 8.38623 16.8701 8.60596 16.7358L14.4287 13.3179C14.8315 13.0859 15.0024 12.793 15.0024 12.4634C15.0024 12.146 14.8315 11.853 14.4287 11.6211L8.60596 8.20312C8.38623 8.06885 8.17871 7.99561 7.95898 7.99561C7.50732 7.99561 7.14111 8.3252 7.14111 8.95996L7.14111 15.979C7.14111 16.6138 7.50732 16.9434 7.95898 16.9434ZM16.98 17.1021C17.4683 17.1021 17.7368 16.8579 17.7368 16.3574L17.7368 8.55713C17.7368 8.05664 17.4683 7.80029 16.98 7.80029L15.6738 7.80029C15.1855 7.80029 14.917 8.04443 14.917 8.55713L14.917 16.3574C14.917 16.8579 15.1855 17.1021 15.6738 17.1021Z" fill="#5ac8f5"/>
 </g>
</svg>
