<?xml version="1.0" encoding="UTF-8"?>
<!--Generator: Apple Native CoreSVG 175.5-->
<!DOCTYPE svg
PUBLIC "-//W3C//DTD SVG 1.1//EN"
       "http://www.w3.org/Graphics/SVG/1.1/DTD/svg11.dtd">
<svg version="1.1" xmlns="http://www.w3.org/2000/svg" xmlns:xlink="http://www.w3.org/1999/xlink" width="24.9023" height="24.9146">
 <g>
  <rect height="24.9146" opacity="0" width="24.9023" x="0" y="0"/>
  <path d="M12.4512 24.9023C19.2627 24.9023 24.9023 19.2505 24.9023 12.4512C24.9023 5.63965 19.2505 0 12.439 0C5.63965 0 0 5.63965 0 12.4512C0 19.2505 5.65186 24.9023 12.4512 24.9023ZM12.4512 22.8271C6.68945 22.8271 2.0874 18.2129 2.0874 12.4512C2.0874 6.68945 6.67725 2.0752 12.439 2.0752C18.2007 2.0752 22.8271 6.68945 22.8271 12.4512C22.8271 18.2129 18.2129 22.8271 12.4512 22.8271Z" fill="#5ac8f5" fill-opacity="0.5"/>
  <path d="M9.86328 17.688C10.3638 17.688 10.6079 17.3462 10.6079 16.8701L10.6079 15.4297L11.2793 15.4297C11.6943 15.4297 11.9629 15.1855 11.9629 14.7583C11.9629 14.3188 11.6943 14.0625 11.2793 14.0625L10.6079 14.0625L10.6079 8.34961C10.6079 7.6416 10.1196 7.18994 9.41162 7.18994C8.70361 7.18994 8.26416 7.4585 7.87354 8.12988C6.84814 9.83887 5.61523 11.9385 4.79736 13.4155C4.60205 13.7939 4.52881 14.0625 4.52881 14.3921C4.52881 15.0391 4.95605 15.4297 5.57861 15.4297L9.13086 15.4297L9.13086 16.8701C9.13086 17.334 9.38721 17.688 9.86328 17.688ZM9.13086 14.0625L6.12793 14.0625L6.12793 14.0137C6.83594 12.6343 8.09326 10.4858 9.06982 8.83789L9.13086 8.83789ZM16.5283 17.7124C18.9575 17.7124 20.2759 15.7837 20.2759 12.1094C20.2759 8.91113 18.9575 7.18994 16.6626 7.18994C14.6118 7.18994 13.269 8.56934 13.269 10.7178C13.269 12.8174 14.6973 13.9893 16.2964 13.9893C17.6392 13.9893 18.4326 13.269 18.75 12.439L18.8232 12.439C18.8477 14.8682 17.9199 16.3086 16.5039 16.3086C15.8081 16.3086 15.2466 15.9424 14.9536 15.4053C14.7583 15.0635 14.5264 14.9292 14.209 14.9292C13.8306 14.9292 13.562 15.2222 13.562 15.6494C13.562 15.7715 13.5986 15.9424 13.6475 16.0889C13.855 16.7603 14.8438 17.7124 16.5283 17.7124ZM16.7603 12.7319C15.6006 12.7319 14.8193 11.8652 14.8193 10.6445C14.8193 9.36279 15.5762 8.52051 16.7603 8.52051C17.8833 8.52051 18.689 9.41162 18.689 10.6689C18.689 11.8652 17.8955 12.7319 16.7603 12.7319Z" fill="#5ac8f5"/>
 </g>
</svg>
