<?xml version="1.0" encoding="UTF-8"?>
<!--Generator: Apple Native CoreSVG 175.5-->
<!DOCTYPE svg
PUBLIC "-//W3C//DTD SVG 1.1//EN"
       "http://www.w3.org/Graphics/SVG/1.1/DTD/svg11.dtd">
<svg version="1.1" xmlns="http://www.w3.org/2000/svg" xmlns:xlink="http://www.w3.org/1999/xlink" width="20.3979" height="27.5269">
 <g>
  <rect height="27.5269" opacity="0" width="20.3979" x="0" y="0"/>
  <path d="M3.38135 27.5024L17.0166 27.5024C19.043 27.5024 20.3979 26.2085 20.3979 24.2798L20.3979 3.23486C20.3979 1.30615 19.043 0 17.0166 0L3.38135 0C1.35498 0 0 1.30615 0 3.23486L0 24.2798C0 26.2085 1.35498 27.5024 3.38135 27.5024ZM3.62549 25.5371C2.57568 25.5371 1.96533 24.9512 1.96533 23.9502L1.96533 3.56445C1.96533 2.56348 2.57568 1.96533 3.62549 1.96533L16.7725 1.96533C17.8101 1.96533 18.4326 2.56348 18.4326 3.56445L18.4326 23.9502C18.4326 24.9512 17.8101 25.5371 16.7725 25.5371ZM4.63867 6.33545L5.70068 6.33545C6.01807 6.33545 6.27441 6.11572 6.27441 5.82275L6.27441 4.71191C6.27441 4.40674 6.01807 4.18701 5.70068 4.18701L4.63867 4.18701C4.3457 4.18701 4.12598 4.41895 4.12598 4.71191L4.12598 5.82275C4.12598 6.10352 4.3457 6.33545 4.63867 6.33545ZM7.99561 6.33545L9.05762 6.33545C9.375 6.33545 9.60693 6.11572 9.60693 5.82275L9.60693 4.71191C9.60693 4.40674 9.375 4.18701 9.05762 4.18701L7.99561 4.18701C7.70264 4.18701 7.4707 4.41895 7.4707 4.71191L7.4707 5.82275C7.4707 6.10352 7.70264 6.33545 7.99561 6.33545ZM11.3281 6.33545L12.4023 6.33545C12.7197 6.33545 12.9639 6.11572 12.9639 5.82275L12.9639 4.71191C12.9639 4.40674 12.7197 4.18701 12.4023 4.18701L11.3281 4.18701C11.0352 4.18701 10.8154 4.41895 10.8154 4.71191L10.8154 5.82275C10.8154 6.10352 11.0352 6.33545 11.3281 6.33545ZM14.6729 6.33545L15.7471 6.33545C16.0767 6.33545 16.2964 6.11572 16.2964 5.82275L16.2964 4.71191C16.2964 4.40674 16.0767 4.18701 15.7471 4.18701L14.6729 4.18701C14.3799 4.18701 14.1602 4.41895 14.1602 4.71191L14.1602 5.82275C14.1602 6.10352 14.3799 6.33545 14.6729 6.33545ZM4.63867 9.63135L5.70068 9.63135C6.01807 9.63135 6.27441 9.39941 6.27441 9.09424L6.27441 7.99561C6.27441 7.69043 6.01807 7.48291 5.70068 7.48291L4.63867 7.48291C4.3457 7.48291 4.12598 7.70264 4.12598 7.99561L4.12598 9.09424C4.12598 9.39941 4.3457 9.63135 4.63867 9.63135ZM7.99561 9.63135L9.05762 9.63135C9.375 9.63135 9.60693 9.39941 9.60693 9.09424L9.60693 7.99561C9.60693 7.69043 9.375 7.48291 9.05762 7.48291L7.99561 7.48291C7.70264 7.48291 7.4585 7.70264 7.4585 7.99561L7.4585 9.09424C7.4585 9.39941 7.70264 9.63135 7.99561 9.63135ZM11.3281 9.63135L12.4023 9.63135C12.7197 9.63135 12.9639 9.39941 12.9639 9.10645L12.9639 7.99561C12.9639 7.69043 12.7197 7.48291 12.4023 7.48291L11.3281 7.48291C11.0352 7.48291 10.8154 7.70264 10.8154 7.99561L10.8154 9.10645C10.8154 9.39941 11.0352 9.63135 11.3281 9.63135ZM14.6729 9.63135L15.7471 9.63135C16.0767 9.63135 16.2964 9.39941 16.2964 9.10645L16.2964 7.99561C16.2964 7.69043 16.0767 7.48291 15.7471 7.48291L14.6729 7.48291C14.3799 7.48291 14.1602 7.70264 14.1602 7.99561L14.1602 9.10645C14.1602 9.39941 14.3799 9.63135 14.6729 9.63135ZM4.63867 12.915L5.70068 12.915C6.01807 12.915 6.27441 12.7075 6.27441 12.4023L6.27441 11.3037C6.27441 10.9985 6.01807 10.7666 5.70068 10.7666L4.63867 10.7666C4.3457 10.7666 4.12598 10.9985 4.12598 11.3037L4.12598 12.4023C4.12598 12.6953 4.3457 12.915 4.63867 12.915ZM7.99561 12.915L9.05762 12.915C9.375 12.915 9.60693 12.7075 9.60693 12.4023L9.60693 11.3037C9.60693 10.9985 9.375 10.7666 9.05762 10.7666L7.99561 10.7666C7.70264 10.7666 7.4585 10.9985 7.4585 11.3037L7.4585 12.4023C7.4585 12.6953 7.70264 12.915 7.99561 12.915ZM4.63867 23.3154L5.70068 23.3154C6.01807 23.3154 6.27441 23.1079 6.27441 22.8027L6.27441 21.6919C6.27441 21.3867 6.01807 21.1792 5.70068 21.1792L4.63867 21.1792C4.3457 21.1792 4.12598 21.3989 4.12598 21.6919L4.12598 22.8027C4.12598 23.0957 4.3457 23.3154 4.63867 23.3154ZM7.99561 23.3154L9.05762 23.3154C9.375 23.3154 9.60693 23.1079 9.60693 22.8027L9.60693 21.6919C9.60693 21.3867 9.375 21.1792 9.05762 21.1792L7.99561 21.1792C7.70264 21.1792 7.4585 21.3989 7.4585 21.6919L7.4585 22.8027C7.4585 23.0957 7.70264 23.3154 7.99561 23.3154ZM11.3281 23.3154L12.4146 23.3154C12.7197 23.3154 12.9639 23.1079 12.9639 22.8027L12.9639 21.6919C12.9639 21.3867 12.7197 21.1792 12.4146 21.1792L11.3281 21.1792C11.0352 21.1792 10.8154 21.3989 10.8154 21.6919L10.8154 22.8027C10.8154 23.0957 11.0352 23.3154 11.3281 23.3154ZM14.6729 23.3154L15.7471 23.3154C16.0767 23.3154 16.2964 23.1079 16.2964 22.8027L16.2964 21.6919C16.2964 21.3867 16.0767 21.1792 15.7471 21.1792L14.6729 21.1792C14.3799 21.1792 14.1724 21.3989 14.1724 21.6919L14.1724 22.8027C14.1724 23.0957 14.3799 23.3154 14.6729 23.3154Z" fill="#5ac8f5"/>
 </g>
</svg>
