<?xml version="1.0" encoding="UTF-8"?>
<!--Generator: Apple Native CoreSVG 175.5-->
<!DOCTYPE svg
PUBLIC "-//W3C//DTD SVG 1.1//EN"
       "http://www.w3.org/Graphics/SVG/1.1/DTD/svg11.dtd">
<svg version="1.1" xmlns="http://www.w3.org/2000/svg" xmlns:xlink="http://www.w3.org/1999/xlink" width="23.7915" height="29.3091">
 <g>
  <rect height="29.3091" opacity="0" width="23.7915" x="0" y="0"/>
  <path d="M0 24.3408C0 25.7324 0.817871 26.7578 2.30713 26.7578L21.4844 26.7578C22.9614 26.7578 23.7915 25.7324 23.7915 24.3408L23.7915 21.3867C23.7915 19.7144 23.5596 18.6401 22.4854 17.4805L21.5088 16.4185L20.4956 13.4888C19.9097 11.792 18.7256 11.0596 17.2974 10.9009C16.626 10.8154 14.4409 10.7544 11.8896 10.7544C9.32617 10.7544 7.16553 10.8154 6.48193 10.9009C5.05371 11.0596 3.88184 11.8042 3.2959 13.4888L2.2583 16.4185L1.30615 17.4805C0.231934 18.6523 0 19.7144 0 21.3867ZM1.68457 23.9502L1.68457 21.3867C1.68457 20.0562 1.83105 19.4458 2.62451 18.5303L3.80859 17.1753L4.83398 14.209C5.22461 13.0737 5.81055 12.7197 6.68945 12.6099C7.31201 12.5366 9.28955 12.4512 11.8896 12.4512C14.4897 12.4512 16.4795 12.5366 17.1021 12.6099C17.981 12.7197 18.5669 13.0737 18.9575 14.209L19.9707 17.1753L21.167 18.5303C21.9604 19.4458 22.1069 20.0562 22.1069 21.3867L22.1069 23.9502C22.1069 24.6826 21.8628 25.0732 21.1304 25.0732L2.66113 25.0732C1.92871 25.0732 1.68457 24.6826 1.68457 23.9502ZM5.54199 16.9067L18.2373 16.9067C18.7012 16.9067 18.8477 16.5771 18.7012 16.1743L18.1274 14.4287C17.9077 13.7939 17.5537 13.562 16.98 13.4888C16.333 13.3911 14.5508 13.3179 11.8896 13.3179C9.22852 13.3179 7.44629 13.3911 6.79932 13.4888C6.23779 13.562 5.88379 13.7939 5.66406 14.4287L5.07812 16.1743C4.93164 16.5771 5.09033 16.9067 5.54199 16.9067ZM4.26025 22.644C4.83398 22.644 5.26123 22.229 5.26123 21.6431L5.26123 20.1904C5.26123 19.6045 4.83398 19.2017 4.26025 19.2017C3.68652 19.2017 3.25928 19.6167 3.25928 20.1904L3.25928 21.6431C3.25928 22.2168 3.68652 22.644 4.26025 22.644ZM9.77783 22.2046L13.9771 22.2046C14.4409 22.2046 14.7583 21.8994 14.7583 21.3867L14.7583 20.4346C14.7583 19.9463 14.4409 19.6533 13.9771 19.6533L9.77783 19.6533C9.31396 19.6533 9.00879 19.9463 9.00879 20.4346L9.00879 21.3867C9.00879 21.8994 9.31396 22.2046 9.77783 22.2046ZM19.6167 22.644C20.2026 22.644 20.6299 22.229 20.6299 21.6431L20.6299 20.1904C20.6299 19.6045 20.2026 19.2017 19.6167 19.2017C19.0674 19.2017 18.6279 19.6289 18.6279 20.1904L18.6279 21.6431C18.6279 22.2168 19.0674 22.644 19.6167 22.644ZM2.00195 29.3091L3.17383 29.3091C3.91846 29.3091 4.49219 28.7354 4.49219 28.0029L4.49219 25.9644L0.683594 25.415L0.683594 28.0029C0.683594 28.7354 1.26953 29.3091 2.00195 29.3091ZM20.6055 29.3091L21.7896 29.3091C22.522 29.3091 23.0957 28.7354 23.0957 28.0029L23.0957 25.415L19.2993 25.9644L19.2993 28.0029C19.2993 28.7354 19.8608 29.3091 20.6055 29.3091Z" fill="#5ac8f5"/>
  <path d="M11.8652 6.92139C13.1348 6.92139 14.3066 7.2876 15.2222 8.02002C15.7471 8.39844 16.2964 8.56934 16.7358 8.17871C17.1875 7.77588 17.1997 7.04346 16.6504 6.604C15.332 5.54199 13.6597 4.93164 11.8652 4.93164C10.0708 4.93164 8.39844 5.54199 7.08008 6.604C6.51855 7.04346 6.53076 7.77588 6.99463 8.17871C7.43408 8.56934 7.97119 8.39844 8.5083 8.02002C9.44824 7.31201 10.5957 6.92139 11.8652 6.92139Z" fill="#5ac8f5" fill-opacity="0.5"/>
  <path d="M11.8408 2.02637C14.4775 2.02637 16.8579 2.94189 18.6768 4.57764C19.1772 5.0293 19.751 5.13916 20.1904 4.76074C20.6543 4.35791 20.6543 3.68652 20.1294 3.21045C17.9321 1.18408 15.0024 0.0366211 11.8408 0.0366211C8.6792 0.0366211 5.74951 1.18408 3.55225 3.21045C3.03955 3.68652 3.03955 4.35791 3.49121 4.76074C3.94287 5.13916 4.50439 5.0293 5.00488 4.57764C6.82373 2.94189 9.21631 2.02637 11.8408 2.02637Z" fill="#5ac8f5" fill-opacity="0.5"/>
 </g>
</svg>
