<?xml version="1.0" encoding="UTF-8"?>
<!--Generator: Apple Native CoreSVG 175.5-->
<!DOCTYPE svg
PUBLIC "-//W3C//DTD SVG 1.1//EN"
       "http://www.w3.org/Graphics/SVG/1.1/DTD/svg11.dtd">
<svg version="1.1" xmlns="http://www.w3.org/2000/svg" xmlns:xlink="http://www.w3.org/1999/xlink" width="23.0713" height="25.2319">
 <g>
  <rect height="25.2319" opacity="0" width="23.0713" x="0" y="0"/>
  <path d="M0 17.4438C0 22.1191 3.06396 25.2319 8.53271 25.2319L11.3525 25.2319C12.0239 25.2319 12.4634 24.7437 12.4634 24.1455C12.4634 23.5474 12.0239 23.0591 11.3525 23.0591L8.54492 23.0591C4.38232 23.0591 2.17285 20.6177 2.17285 17.3218C2.17285 14.0381 4.38232 11.7432 8.54492 11.7432L16.9189 11.7432L20.7153 11.5723L20.4956 11.0107L17.4683 13.5986L13.9526 17.0288C13.7573 17.2241 13.6597 17.4561 13.6597 17.7734C13.6597 18.4082 14.0869 18.8477 14.7339 18.8477C15.0024 18.8477 15.3198 18.7256 15.5273 18.5059L22.7051 11.4624C22.9492 11.2305 23.0713 10.9497 23.0713 10.6567C23.0713 10.3516 22.9492 10.0708 22.7051 9.83887L15.5273 2.79541C15.3198 2.58789 15.0024 2.45361 14.7339 2.45361C14.0869 2.45361 13.6597 2.89307 13.6597 3.52783C13.6597 3.84521 13.7573 4.07715 13.9526 4.27246L17.4683 7.71484L20.4956 10.2905L20.7153 9.729L16.9189 9.55811L8.72803 9.55811C3.14941 9.55811 0 12.7808 0 17.4438Z" fill="#5ac8f5"/>
 </g>
</svg>
