<?xml version="1.0" encoding="UTF-8"?>
<!--Generator: Apple Native CoreSVG 175.5-->
<!DOCTYPE svg
PUBLIC "-//W3C//DTD SVG 1.1//EN"
       "http://www.w3.org/Graphics/SVG/1.1/DTD/svg11.dtd">
<svg version="1.1" xmlns="http://www.w3.org/2000/svg" xmlns:xlink="http://www.w3.org/1999/xlink" width="12.6831" height="27.0386">
 <g>
  <rect height="27.0386" opacity="0" width="12.6831" x="0" y="0"/>
  <path d="M3.18604 26.9653L9.50928 26.9653C11.4502 26.9653 12.6831 25.769 12.6831 23.9258L12.6831 3.03955C12.6831 1.19629 11.4502 0 9.50928 0L3.18604 0C1.23291 0 0 1.19629 0 3.03955L0 23.9258C0 25.769 1.23291 26.9653 3.18604 26.9653ZM3.39355 25.1831C2.41699 25.1831 1.80664 24.5972 1.80664 23.6694L1.80664 3.30811C1.80664 2.36816 2.41699 1.78223 3.39355 1.78223L9.28955 1.78223C10.2661 1.78223 10.8765 2.36816 10.8765 3.30811L10.8765 23.6694C10.8765 24.5972 10.2661 25.1831 9.28955 25.1831ZM4.37012 11.0718C5.16357 11.0718 5.79834 10.4248 5.79834 9.64355C5.79834 8.8623 5.16357 8.21533 4.37012 8.21533C3.58887 8.21533 2.94189 8.8623 2.94189 9.64355C2.94189 10.4248 3.58887 11.0718 4.37012 11.0718ZM8.3374 11.0718C9.11865 11.0718 9.76562 10.4248 9.76562 9.64355C9.76562 8.8623 9.11865 8.21533 8.3374 8.21533C7.54395 8.21533 6.90918 8.8623 6.90918 9.64355C6.90918 10.4248 7.54395 11.0718 8.3374 11.0718ZM4.37012 14.9414C5.16357 14.9414 5.79834 14.2944 5.79834 13.5132C5.79834 12.7197 5.16357 12.085 4.37012 12.085C3.58887 12.085 2.94189 12.7197 2.94189 13.5132C2.94189 14.2944 3.58887 14.9414 4.37012 14.9414ZM4.37012 18.7988C5.16357 18.7988 5.79834 18.1641 5.79834 17.3706C5.79834 16.5894 5.16357 15.9424 4.37012 15.9424C3.58887 15.9424 2.94189 16.5894 2.94189 17.3706C2.94189 18.1641 3.58887 18.7988 4.37012 18.7988ZM8.3252 18.7988C9.08203 18.7988 9.70459 18.2007 9.70459 17.4316L9.70459 13.4399C9.70459 12.6831 9.08203 12.085 8.3252 12.085C7.58057 12.085 6.98242 12.6831 6.98242 13.4399L6.98242 17.4316C6.98242 18.2007 7.58057 18.7988 8.3252 18.7988Z" fill="#5ac8f5"/>
 </g>
</svg>
