<?xml version="1.0" encoding="UTF-8"?>
<!--Generator: Apple Native CoreSVG 175.5-->
<!DOCTYPE svg
PUBLIC "-//W3C//DTD SVG 1.1//EN"
       "http://www.w3.org/Graphics/SVG/1.1/DTD/svg11.dtd">
<svg version="1.1" xmlns="http://www.w3.org/2000/svg" xmlns:xlink="http://www.w3.org/1999/xlink" width="28.7842" height="30.8472">
 <g>
  <rect height="30.8472" opacity="0" width="28.7842" x="0" y="0"/>
  <path d="M3.83301 28.2959L24.9512 28.2959C27.5146 28.2959 28.7842 27.0264 28.7842 24.5117L28.7842 17.2852C28.7842 16.1743 28.6499 15.625 28.0884 14.9658L24.2432 10.2051C22.7295 8.36182 22.1802 7.93457 20.0073 7.93457L17.6147 7.93457L17.6147 9.65576L20.1538 9.65576C21.0449 9.65576 21.6064 9.81445 22.3145 10.6934L26.2939 15.6738C26.7944 16.2964 26.6113 16.5405 25.9399 16.5405L18.1641 16.5405C17.5293 16.5405 17.2363 17.0288 17.2363 17.5293L17.2363 17.5781C17.2363 18.9941 16.1255 20.4834 14.3921 20.4834C12.6709 20.4834 11.5601 18.9941 11.5601 17.5781L11.5601 17.5293C11.5601 17.0288 11.2549 16.5405 10.6201 16.5405L2.86865 16.5405C2.16064 16.5405 2.02637 16.2598 2.50244 15.6738L6.44531 10.73C7.17773 9.82666 7.73926 9.65576 8.63037 9.65576L11.1816 9.65576L11.1816 7.93457L8.77686 7.93457C6.604 7.93457 6.0791 8.34961 4.52881 10.2417L0.695801 14.9658C0.158691 15.6128 0 16.1743 0 17.2852L0 24.5117C0 27.0264 1.28174 28.2959 3.83301 28.2959ZM3.85742 26.3306C2.63672 26.3306 1.96533 25.6714 1.96533 24.4019L1.96533 18.335L9.70459 18.335C9.99756 20.6177 11.9141 22.3022 14.3921 22.3022C16.8701 22.3022 18.7866 20.6055 19.0796 18.335L26.8188 18.335L26.8188 24.4019C26.8188 25.6714 26.1353 26.3306 24.9268 26.3306ZM14.3921 17.9932C14.917 17.9932 15.3687 17.5537 15.3687 17.041L15.3687 4.50439L15.2832 2.68555L16.1133 3.54004L17.9565 5.51758C18.1274 5.71289 18.3838 5.81055 18.6279 5.81055C19.1284 5.81055 19.5068 5.44434 19.5068 4.95605C19.5068 4.6875 19.4092 4.49219 19.2261 4.30908L15.1001 0.32959C14.856 0.0854492 14.6484 0 14.3921 0C14.1479 0 13.9282 0.0854492 13.6841 0.32959L9.55811 4.30908C9.375 4.49219 9.27734 4.6875 9.27734 4.95605C9.27734 5.44434 9.64355 5.81055 10.144 5.81055C10.3882 5.81055 10.6445 5.71289 10.8276 5.51758L12.6709 3.54004L13.501 2.67334L13.4277 4.50439L13.4277 17.041C13.4277 17.5537 13.8672 17.9932 14.3921 17.9932Z" fill="#5ac8f5"/>
 </g>
</svg>
