<?xml version="1.0" encoding="UTF-8"?>
<!--Generator: Apple Native CoreSVG 175.5-->
<!DOCTYPE svg
PUBLIC "-//W3C//DTD SVG 1.1//EN"
       "http://www.w3.org/Graphics/SVG/1.1/DTD/svg11.dtd">
<svg version="1.1" xmlns="http://www.w3.org/2000/svg" xmlns:xlink="http://www.w3.org/1999/xlink" width="24.9023" height="24.9146">
 <g>
  <rect height="24.9146" opacity="0" width="24.9023" x="0" y="0"/>
  <path d="M12.4512 24.9023C19.2627 24.9023 24.9023 19.2505 24.9023 12.4512C24.9023 5.63965 19.2505 0 12.439 0C5.63965 0 0 5.63965 0 12.4512C0 19.2505 5.65186 24.9023 12.4512 24.9023Z" fill="#5ac8f5" fill-opacity="0.25"/>
  <path d="M11.0962 16.2476C8.21533 16.2476 5.85938 13.8794 5.85938 11.0107C5.85938 8.12988 8.21533 5.76172 11.0962 5.76172C13.9771 5.76172 16.333 8.11768 16.333 11.0107C16.333 12.085 15.9912 13.0981 15.4297 13.916L18.6646 17.1753C18.8721 17.395 19.0063 17.6636 19.0063 17.9443C19.0063 18.5791 18.5913 19.0308 17.981 19.0308C17.6147 19.0308 17.3462 18.9087 17.0898 18.6401L13.8672 15.4297C13.0615 15.9302 12.1094 16.2476 11.0962 16.2476ZM11.0962 14.5264C13.0127 14.5264 14.5996 12.9272 14.5996 11.0107C14.5996 9.06982 13.0127 7.48291 11.0962 7.48291C9.16748 7.48291 7.58057 9.08203 7.58057 11.0107C7.58057 12.9272 9.16748 14.5264 11.0962 14.5264Z" fill="#5ac8f5"/>
 </g>
</svg>
