<?xml version="1.0" encoding="UTF-8"?>
<!--Generator: Apple Native CoreSVG 175.5-->
<!DOCTYPE svg
PUBLIC "-//W3C//DTD SVG 1.1//EN"
       "http://www.w3.org/Graphics/SVG/1.1/DTD/svg11.dtd">
<svg version="1.1" xmlns="http://www.w3.org/2000/svg" xmlns:xlink="http://www.w3.org/1999/xlink" width="24.9023" height="24.9146">
 <g>
  <rect height="24.9146" opacity="0" width="24.9023" x="0" y="0"/>
  <path d="M12.4512 24.9023C19.2627 24.9023 24.9023 19.2505 24.9023 12.4512C24.9023 5.63965 19.2505 0 12.439 0C5.63965 0 0 5.63965 0 12.4512C0 19.2505 5.65186 24.9023 12.4512 24.9023Z" fill="#5ac8f5" fill-opacity="0.25"/>
  <path d="M7.95898 9.75342C7.95898 9.32617 8.23975 9.0332 8.69141 9.0332L16.1987 9.0332C16.6626 9.0332 16.9434 9.32617 16.9434 9.75342C16.9434 10.2051 16.6626 10.498 16.1987 10.498L13.269 10.498L13.269 17.9688C13.269 18.4814 12.9395 18.7988 12.4634 18.7988C11.9873 18.7988 11.6333 18.4814 11.6333 17.9688L11.6333 10.498L8.69141 10.498C8.23975 10.498 7.95898 10.2051 7.95898 9.75342ZM7.93457 7.33643C7.93457 6.97021 8.19092 6.72607 8.53271 6.72607L16.3452 6.72607C16.7114 6.72607 16.9556 6.97021 16.9556 7.33643C16.9556 7.69043 16.7114 7.97119 16.3452 7.97119L8.53271 7.97119C8.19092 7.97119 7.93457 7.69043 7.93457 7.33643Z" fill="#5ac8f5"/>
 </g>
</svg>
