<?xml version="1.0" encoding="UTF-8"?>
<!--Generator: Apple Native CoreSVG 175.5-->
<!DOCTYPE svg
PUBLIC "-//W3C//DTD SVG 1.1//EN"
       "http://www.w3.org/Graphics/SVG/1.1/DTD/svg11.dtd">
<svg version="1.1" xmlns="http://www.w3.org/2000/svg" xmlns:xlink="http://www.w3.org/1999/xlink" width="22.4731" height="22.4976">
 <g>
  <rect height="22.4976" opacity="0" width="22.4731" x="0" y="0"/>
  <path d="M3.83301 22.4976L18.6401 22.4976C21.2036 22.4976 22.4731 21.228 22.4731 18.7134L22.4731 3.80859C22.4731 1.29395 21.2036 0.0244141 18.6401 0.0244141L3.83301 0.0244141C1.28174 0.0244141 0 1.28174 0 3.80859L0 18.7134C0 21.2402 1.28174 22.4976 3.83301 22.4976ZM3.85742 20.5322C2.63672 20.5322 1.96533 19.8853 1.96533 18.6157L1.96533 3.90625C1.96533 2.63672 2.63672 1.98975 3.85742 1.98975L18.6157 1.98975C19.8242 1.98975 20.5078 2.63672 20.5078 3.90625L20.5078 18.6157C20.5078 19.8853 19.8242 20.5322 18.6157 20.5322ZM11.2427 17.0532C13.8184 17.0532 15.5518 14.7217 15.5518 11.2427C15.5518 7.76367 13.8184 5.43213 11.2427 5.43213C8.65479 5.43213 6.92139 7.76367 6.92139 11.2427C6.92139 14.7217 8.65479 17.0532 11.2427 17.0532ZM11.2427 15.4907C9.77783 15.4907 8.80127 13.7939 8.80127 11.2427C8.80127 8.69141 9.77783 6.99463 11.2427 6.99463C12.6953 6.99463 13.6841 8.69141 13.6841 11.2427C13.6841 13.7939 12.6953 15.4907 11.2427 15.4907Z" fill="#5ac8f5"/>
 </g>
</svg>
