<?xml version="1.0" encoding="UTF-8"?>
<!--Generator: Apple Native CoreSVG 175.5-->
<!DOCTYPE svg
PUBLIC "-//W3C//DTD SVG 1.1//EN"
       "http://www.w3.org/Graphics/SVG/1.1/DTD/svg11.dtd">
<svg version="1.1" xmlns="http://www.w3.org/2000/svg" xmlns:xlink="http://www.w3.org/1999/xlink" width="24.4019" height="22.4976">
 <g>
  <rect height="22.4976" opacity="0" width="24.4019" x="0" y="0"/>
  <path d="M5.50537 22.4976L18.8965 22.4976C21.3013 22.4976 22.583 21.2524 22.583 18.8599L22.583 5.82275L20.6177 5.82275L20.6177 18.9575C20.6177 20.0562 20.0073 20.6543 18.9209 20.6543L5.48096 20.6543C4.38232 20.6543 3.78418 20.0562 3.78418 18.9575L3.78418 5.82275L1.81885 5.82275L1.81885 18.8599C1.81885 21.2646 3.10059 22.4976 5.50537 22.4976ZM8.17871 11.6577L16.2354 11.6577C16.748 11.6577 17.1143 11.3037 17.1143 10.7666L17.1143 10.376C17.1143 9.83887 16.748 9.49707 16.2354 9.49707L8.17871 9.49707C7.66602 9.49707 7.31201 9.83887 7.31201 10.376L7.31201 10.7666C7.31201 11.3037 7.66602 11.6577 8.17871 11.6577ZM2.31934 6.73828L22.0825 6.73828C23.584 6.73828 24.4019 5.79834 24.4019 4.30908L24.4019 2.45361C24.4019 0.964355 23.584 0.0244141 22.0825 0.0244141L2.31934 0.0244141C0.891113 0.0244141 0 0.964355 0 2.45361L0 4.30908C0 5.79834 0.817871 6.73828 2.31934 6.73828ZM2.81982 4.89502C2.20947 4.89502 1.96533 4.63867 1.96533 4.02832L1.96533 2.73438C1.96533 2.12402 2.20947 1.86768 2.81982 1.86768L21.5942 1.86768C22.2046 1.86768 22.4365 2.12402 22.4365 2.73438L22.4365 4.02832C22.4365 4.63867 22.2046 4.89502 21.5942 4.89502Z" fill="#5ac8f5"/>
 </g>
</svg>
