<?xml version="1.0" encoding="UTF-8"?>
<!--Generator: Apple Native CoreSVG 175.5-->
<!DOCTYPE svg
PUBLIC "-//W3C//DTD SVG 1.1//EN"
       "http://www.w3.org/Graphics/SVG/1.1/DTD/svg11.dtd">
<svg version="1.1" xmlns="http://www.w3.org/2000/svg" xmlns:xlink="http://www.w3.org/1999/xlink" width="24.9023" height="24.9146">
 <g>
  <rect height="24.9146" opacity="0" width="24.9023" x="0" y="0"/>
  <path d="M12.4512 24.9023C19.2627 24.9023 24.9023 19.2505 24.9023 12.4512C24.9023 5.63965 19.2505 0 12.439 0C5.63965 0 0 5.63965 0 12.4512C0 19.2505 5.65186 24.9023 12.4512 24.9023ZM12.4512 22.8271C6.68945 22.8271 2.0874 18.2129 2.0874 12.4512C2.0874 6.68945 6.67725 2.0752 12.439 2.0752C18.2007 2.0752 22.8271 6.68945 22.8271 12.4512C22.8271 18.2129 18.2129 22.8271 12.4512 22.8271ZM8.23975 17.7124C10.3394 17.7124 11.731 15.6982 11.731 12.4512C11.731 9.2041 10.3394 7.18994 8.23975 7.18994C6.14014 7.18994 4.74854 9.2041 4.74854 12.4512C4.74854 15.6982 6.14014 17.7124 8.23975 17.7124ZM8.23975 16.2354C7.08008 16.2354 6.34766 14.7949 6.34766 12.4512C6.34766 10.1074 7.08008 8.66699 8.23975 8.66699C9.39941 8.66699 10.1318 10.1074 10.1318 12.4512C10.1318 14.7949 9.41162 16.2354 8.23975 16.2354ZM18.3105 17.688C18.811 17.688 19.0674 17.3462 19.0674 16.8701L19.0674 15.4297L19.7266 15.4297C20.1538 15.4297 20.4224 15.1855 20.4224 14.7583C20.4224 14.3188 20.1416 14.0625 19.7266 14.0625L19.0674 14.0625L19.0674 8.34961C19.0674 7.6416 18.5669 7.18994 17.8589 7.18994C17.1509 7.18994 16.7236 7.4585 16.3208 8.12988C15.3076 9.83887 14.0747 11.9385 13.2446 13.4155C13.0493 13.7939 12.9761 14.0625 12.9761 14.3921C12.9761 15.0391 13.4033 15.4297 14.0259 15.4297L17.5903 15.4297L17.5903 16.8701C17.5903 17.334 17.8345 17.688 18.3105 17.688ZM17.5903 14.0625L14.5752 14.0625L14.5752 14.0137C15.2954 12.6343 16.5527 10.4858 17.5171 8.83789L17.5903 8.83789Z" fill="#5ac8f5"/>
 </g>
</svg>
