<?xml version="1.0" encoding="UTF-8"?>
<!--Generator: Apple Native CoreSVG 175.5-->
<!DOCTYPE svg
PUBLIC "-//W3C//DTD SVG 1.1//EN"
       "http://www.w3.org/Graphics/SVG/1.1/DTD/svg11.dtd">
<svg version="1.1" xmlns="http://www.w3.org/2000/svg" xmlns:xlink="http://www.w3.org/1999/xlink" width="23.999" height="27.5513">
 <g>
  <rect height="27.5513" opacity="0" width="23.999" x="0" y="0"/>
  <path d="M0 26.062C0 26.6235 0.463867 27.0752 1.01318 27.0752C1.57471 27.0752 2.03857 26.6235 2.03857 26.062L2.03857 1.01318C2.03857 0.45166 1.57471 0 1.01318 0C0.463867 0 0 0.45166 0 1.01318ZM9.59473 26.3794L13.2568 22.0093C13.623 21.582 13.6719 21.4844 13.8184 21.0327L14.0869 20.2026L12.1216 17.7368L11.5356 20.4956L7.91016 24.7925C6.7627 26.1719 8.64258 27.5146 9.59473 26.3794ZM18.5303 26.0132C19.2871 27.5391 21.5332 26.5991 20.7153 24.939L18.2251 19.8975C18.0298 19.519 17.7734 19.104 17.5293 18.7744L15.9546 16.5405L16.0645 16.2109C16.4917 14.9414 16.6504 14.1846 16.7358 12.9272L16.98 9.39941C17.1021 7.72705 16.1133 6.45752 14.4043 6.45752C13.1104 6.45752 12.2437 7.10449 11.0596 8.26416L9.19189 10.1074C8.58154 10.7056 8.38623 11.1938 8.3252 11.9873L8.09326 14.8682C8.04443 15.6006 8.44727 16.1133 9.11865 16.1377C9.80225 16.1865 10.2173 15.7837 10.2783 15.0024L10.5469 11.8408L11.4502 11.0352C11.7676 10.7422 12.1948 10.9375 12.1704 11.2671L11.9751 13.9404C11.8774 15.2954 12.1826 15.9424 13.1226 17.1021L15.5884 20.2026C15.8447 20.52 15.8691 20.6421 15.979 20.8374ZM22.7661 11.2183L19.9585 11.2183L18.1763 9.25293L17.9688 12.1948L18.6768 12.9028C19.0796 13.2935 19.4214 13.4155 20.1416 13.4155L22.7661 13.4155C23.5107 13.4155 23.999 13.0005 23.999 12.3169C23.999 11.6577 23.4985 11.2183 22.7661 11.2183ZM15.7593 5.35889C17.2363 5.35889 18.4204 4.1626 18.4204 2.69775C18.4204 1.2207 17.2363 0.0366211 15.7593 0.0366211C14.2822 0.0366211 13.0981 1.2207 13.0981 2.69775C13.0981 4.1626 14.2822 5.35889 15.7593 5.35889Z" fill="#5ac8f5"/>
 </g>
</svg>
