<?xml version="1.0" encoding="UTF-8"?>
<!--Generator: Apple Native CoreSVG 175.5-->
<!DOCTYPE svg
PUBLIC "-//W3C//DTD SVG 1.1//EN"
       "http://www.w3.org/Graphics/SVG/1.1/DTD/svg11.dtd">
<svg version="1.1" xmlns="http://www.w3.org/2000/svg" xmlns:xlink="http://www.w3.org/1999/xlink" width="28.6778" height="32.3496">
 <g>
  <rect height="32.3496" opacity="0" width="28.6778" x="0" y="0"/>
  <path d="M20.2977 8.02661C18.4667 8.02661 17.0995 9.03979 16.1351 11.4568C12.6073 7.85571 6.97985 4.64526 1.36462 4.21801C0.229362 4.14477 0.0462563 4.98706 0.0218422 5.69506C-0.368783 11.9084 4.52624 17.2673 10.996 17.7312C9.22594 21.9304 6.41833 25.1897 3.64733 27.7776C3.20788 28.1804 3.31774 28.7297 3.61071 29.1692C5.02673 31.342 9.45788 32.6482 12.4608 31.6106C13.12 31.3664 13.2421 31.0491 13.2421 30.4998L13.2421 25.8611C16.5257 25.7146 21.8358 23.5906 20.9691 16.8279L20.8348 15.8635C23.3617 15.2654 25.0463 13.6785 25.0463 12.0549C25.0463 10.114 22.91 8.02661 20.2977 8.02661ZM21.5795 12.2624C21.1644 12.2624 20.8226 11.9329 20.8226 11.5178C20.8226 11.115 21.1644 10.761 21.5795 10.761C21.9823 10.761 22.3241 11.115 22.3241 11.5178C22.3241 11.9329 21.9823 12.2624 21.5795 12.2624ZM23.3739 13.8494L27.8295 14.4841C28.6595 14.6062 29.0502 13.3733 28.2079 13.0193L24.1796 11.3103ZM18.723 6.57397C17.1483 3.76635 15.1464 1.71557 12.5707 0.23852C11.6307-0.298589 10.6786 0.104243 10.4222 1.11743C10.0682 2.37475 9.8485 3.64428 9.77526 4.90161C11.9725 5.97582 13.9867 7.3186 15.6957 8.78344C16.538 7.62377 17.5633 6.90356 18.723 6.57397Z" fill="#5ac8f5"/>
 </g>
</svg>
