<?xml version="1.0" encoding="UTF-8"?>
<!--Generator: Apple Native CoreSVG 175.5-->
<!DOCTYPE svg
PUBLIC "-//W3C//DTD SVG 1.1//EN"
       "http://www.w3.org/Graphics/SVG/1.1/DTD/svg11.dtd">
<svg version="1.1" xmlns="http://www.w3.org/2000/svg" xmlns:xlink="http://www.w3.org/1999/xlink" width="24.9023" height="24.9146">
 <g>
  <rect height="24.9146" opacity="0" width="24.9023" x="0" y="0"/>
  <path d="M12.4512 24.9023C19.2627 24.9023 24.9023 19.2505 24.9023 12.4512C24.9023 5.63965 19.2505 0 12.439 0C5.63965 0 0 5.63965 0 12.4512C0 19.2505 5.65186 24.9023 12.4512 24.9023ZM8.25195 17.8833C6.09131 17.8833 4.65088 15.8081 4.65088 12.4512C4.65088 9.09424 6.09131 7.01904 8.25195 7.01904C10.4248 7.01904 11.853 9.09424 11.853 12.4512C11.853 15.8081 10.4248 17.8833 8.25195 17.8833ZM8.25195 16.3452C9.46045 16.3452 10.1929 14.8682 10.1929 12.4512C10.1929 10.0342 9.44824 8.55713 8.25195 8.55713C7.06787 8.55713 6.31104 10.0342 6.31104 12.4512C6.31104 14.8682 7.06787 16.3452 8.25195 16.3452ZM16.5894 17.8833C14.8438 17.8833 13.8184 16.8945 13.6108 16.1987C13.562 16.0522 13.5254 15.8813 13.5254 15.7471C13.5254 15.3076 13.8062 15.0024 14.1968 15.0024C14.5264 15.0024 14.7705 15.1367 14.9658 15.4907C15.271 16.0522 15.8447 16.4185 16.5649 16.4185C18.0176 16.4185 18.9697 14.9414 18.9453 12.439L18.8721 12.439C18.5303 13.2935 17.7246 14.0381 16.3452 14.0381C14.6973 14.0381 13.2324 12.8296 13.2324 10.6689C13.2324 8.44727 14.6118 7.01904 16.7236 7.01904C19.0796 7.01904 20.459 8.80127 20.459 12.0972C20.459 15.8936 19.0918 17.8833 16.5894 17.8833ZM16.8213 12.7319C17.9932 12.7319 18.811 11.8408 18.811 10.6079C18.811 9.31396 17.981 8.39844 16.8335 8.39844C15.6128 8.39844 14.8315 9.26514 14.8315 10.5835C14.8315 11.8408 15.625 12.7319 16.8213 12.7319Z" fill="#5ac8f5"/>
 </g>
</svg>
