<?xml version="1.0" encoding="UTF-8"?>
<!--Generator: Apple Native CoreSVG 175.5-->
<!DOCTYPE svg
PUBLIC "-//W3C//DTD SVG 1.1//EN"
       "http://www.w3.org/Graphics/SVG/1.1/DTD/svg11.dtd">
<svg version="1.1" xmlns="http://www.w3.org/2000/svg" xmlns:xlink="http://www.w3.org/1999/xlink" width="23.4863" height="28.5583">
 <g>
  <rect height="28.5583" opacity="0" width="23.4863" x="0" y="0"/>
  <path d="M1.83105 10.2936L21.6553 10.2936C23.3398 10.2936 23.4985 8.4137 22.4854 7.65686L13.4399 0.723267C12.1582-0.241089 11.3281-0.241089 10.0464 0.723267L1.00098 7.65686C-0.012207 8.4137 0.146484 10.2936 1.83105 10.2936ZM3.78418 8.47473C3.49121 8.47473 3.40576 8.13293 3.6377 7.94983L10.9985 2.31018C11.4014 2.005 12.085 2.01721 12.4756 2.31018L19.8486 7.94983C20.0806 8.13293 19.9951 8.47473 19.7021 8.47473ZM1.0376 15.3351L22.4487 15.3351C23.0103 15.3351 23.4863 14.8468 23.4863 14.2731C23.4863 13.6993 23.0103 13.1989 22.4487 13.1989L1.0376 13.1989C0.476074 13.1989 0 13.6993 0 14.2731C0 14.8468 0.476074 15.3351 1.0376 15.3351ZM1.83105 18.2526C0.146484 18.2526-0.012207 20.1202 1.00098 20.8893L10.0464 27.8229C11.3281 28.7872 12.1582 28.7872 13.4399 27.8229L22.4854 20.8893C23.4985 20.1202 23.3398 18.2526 21.6553 18.2526ZM3.78418 20.0714L19.7021 20.0714C19.9951 20.0714 20.0806 20.401 19.8486 20.5963L12.4756 26.236C12.085 26.5289 11.4014 26.5411 10.9985 26.236L3.6377 20.5963C3.40576 20.401 3.49121 20.0714 3.78418 20.0714Z" fill="#5ac8f5"/>
 </g>
</svg>
