<?xml version="1.0" encoding="UTF-8"?>
<!--Generator: Apple Native CoreSVG 175.5-->
<!DOCTYPE svg
PUBLIC "-//W3C//DTD SVG 1.1//EN"
       "http://www.w3.org/Graphics/SVG/1.1/DTD/svg11.dtd">
<svg version="1.1" xmlns="http://www.w3.org/2000/svg" xmlns:xlink="http://www.w3.org/1999/xlink" width="24.5972" height="21.106">
 <g>
  <rect height="21.106" opacity="0" width="24.5972" x="0" y="0"/>
  <path d="M0.915527 1.84326L23.6572 1.84326C24.1699 1.84326 24.5972 1.44043 24.5972 0.915527C24.5972 0.402832 24.1699 0 23.6572 0L0.915527 0C0.402832 0 0 0.402832 0 0.915527C0 1.44043 0.402832 1.84326 0.915527 1.84326ZM5.43213 8.23975L19.1528 8.23975C19.6655 8.23975 20.0806 7.83691 20.0806 7.31201C20.0806 6.79932 19.6655 6.39648 19.1528 6.39648L5.43213 6.39648C4.90723 6.39648 4.50439 6.79932 4.50439 7.31201C4.50439 7.83691 4.90723 8.23975 5.43213 8.23975ZM0.915527 14.6362L23.6572 14.6362C24.1699 14.6362 24.5972 14.2212 24.5972 13.7085C24.5972 13.1958 24.1699 12.793 23.6572 12.793L0.915527 12.793C0.402832 12.793 0 13.1958 0 13.7085C0 14.2212 0.402832 14.6362 0.915527 14.6362ZM5.43213 21.0205L19.1528 21.0205C19.6655 21.0205 20.0806 20.6177 20.0806 20.105C20.0806 19.5923 19.6655 19.1772 19.1528 19.1772L5.43213 19.1772C4.90723 19.1772 4.50439 19.5923 4.50439 20.105C4.50439 20.6177 4.90723 21.0205 5.43213 21.0205Z" fill="#5ac8f5"/>
 </g>
</svg>
