<?xml version="1.0" encoding="UTF-8"?>
<!--Generator: Apple Native CoreSVG 175.5-->
<!DOCTYPE svg
PUBLIC "-//W3C//DTD SVG 1.1//EN"
       "http://www.w3.org/Graphics/SVG/1.1/DTD/svg11.dtd">
<svg version="1.1" xmlns="http://www.w3.org/2000/svg" xmlns:xlink="http://www.w3.org/1999/xlink" width="27.3869" height="28.186">
 <g>
  <rect height="28.186" opacity="0" width="27.3869" x="0" y="0"/>
  <path d="M3.4668 28.1738L8.08105 28.1738C10.2905 28.1738 11.438 27.0508 11.438 24.8779L11.438 3.28369C11.438 1.11084 10.2905 0 8.08105 0L3.4668 0C1.18408 0 0 1.11084 0 3.28369L0 24.8779C0 27.0508 1.18408 28.1738 3.4668 28.1738ZM3.49121 26.2085C2.62451 26.2085 1.96533 25.5981 1.96533 24.7803L1.96533 3.38135C1.96533 2.56348 2.62451 1.96533 3.49121 1.96533L8.05664 1.96533C8.87451 1.96533 9.47266 2.56348 9.47266 3.38135L9.47266 24.7803C9.47266 25.5981 8.87451 26.2085 8.05664 26.2085ZM1.01318 10.7056L10.4248 10.7056L10.4248 8.74023L1.01318 8.74023ZM1.01318 19.4336L10.4248 19.4336L10.4248 17.4683L1.01318 17.4683ZM10.3394 5.09033L10.9009 8.03223L13.208 4.04053C13.6108 3.33252 14.4897 3.13721 15.2466 3.57666L19.2017 5.85938C19.8975 6.26221 20.105 7.08008 19.7021 7.80029L9.27734 25.8545L10.9863 26.8311L21.4478 8.69141C22.5342 6.81152 22.1069 5.28564 20.2026 4.18701L16.1987 1.86768C14.2212 0.720215 12.6465 1.09863 11.5601 2.97852ZM11.0107 11.2183L16.8823 14.6118L17.8589 12.915L11.0107 8.95996ZM10.7056 21.1182L12.5122 22.1802L13.501 20.4712L10.7056 18.8599ZM20.5322 8.23975L19.6411 10.9131L20.7886 10.2539C21.4966 9.83887 22.3511 10.1074 22.7905 10.8643L25.0732 14.8071C25.4761 15.5151 25.2441 16.3452 24.5483 16.748L12.6099 23.6328L10.7666 26.9653L25.6104 18.4082C27.478 17.3218 27.8809 15.7593 26.7822 13.855L24.4751 9.86328C23.5352 8.21533 22.2534 7.59277 20.813 8.10547ZM16.1987 16.9189L18.689 21.228L20.3857 20.2515L17.334 14.9536Z" fill="#5ac8f5"/>
 </g>
</svg>
