<?xml version="1.0" encoding="UTF-8"?>
<!--Generator: Apple Native CoreSVG 175.5-->
<!DOCTYPE svg
PUBLIC "-//W3C//DTD SVG 1.1//EN"
       "http://www.w3.org/Graphics/SVG/1.1/DTD/svg11.dtd">
<svg version="1.1" xmlns="http://www.w3.org/2000/svg" xmlns:xlink="http://www.w3.org/1999/xlink" width="25.1099" height="23.9624">
 <g>
  <rect height="23.9624" opacity="0" width="25.1099" x="0" y="0"/>
  <path d="M3.56445 7.14111C5.51758 7.14111 7.1167 5.52979 7.1167 3.58887C7.1167 1.63574 5.51758 0.012207 3.56445 0.012207C1.59912 0.012207 0 1.63574 0 3.58887C0 5.52979 1.59912 7.14111 3.56445 7.14111ZM3.56445 5.33447C2.56348 5.33447 1.79443 4.55322 1.79443 3.57666C1.79443 2.58789 2.56348 1.79443 3.56445 1.79443C4.55322 1.79443 5.33447 2.58789 5.33447 3.57666C5.33447 4.55322 4.55322 5.33447 3.56445 5.33447ZM12.561 7.15332C14.502 7.15332 16.1255 5.52979 16.1255 3.57666C16.1255 1.61133 14.502 0 12.561 0.012207C10.6079 0.0244141 8.98438 1.61133 8.98438 3.57666C8.98438 5.52979 10.6079 7.15332 12.561 7.15332ZM12.561 5.33447C11.5601 5.33447 10.791 4.55322 10.791 3.57666C10.791 2.58789 11.5601 1.79443 12.561 1.79443C13.562 1.79443 14.3066 2.58789 14.3188 3.57666C14.3433 4.55322 13.562 5.33447 12.561 5.33447ZM21.5454 7.15332C23.5107 7.15332 25.1099 5.52979 25.1099 3.57666C25.1099 1.61133 23.5107 0 21.5454 0.012207C19.5923 0.0244141 17.9932 1.61133 17.9932 3.57666C17.9932 5.52979 19.5923 7.15332 21.5454 7.15332ZM21.5454 5.39551C20.52 5.39551 19.751 4.58984 19.751 3.57666C19.751 2.55127 20.52 1.74561 21.5454 1.74561C22.5708 1.74561 23.3765 2.55127 23.3765 3.57666C23.3765 4.58984 22.5708 5.39551 21.5454 5.39551ZM3.56445 15.5518C5.51758 15.5518 7.1167 13.9282 7.1167 11.9873C7.1167 10.0342 5.51758 8.42285 3.56445 8.43506C1.59912 8.44727 0 10.0342 0 11.9873C0 13.9282 1.59912 15.5518 3.56445 15.5518ZM3.56445 13.8062C2.53906 13.8062 1.74561 13.0005 1.74561 11.9751C1.74561 10.9619 2.53906 10.144 3.56445 10.144C4.58984 10.144 5.37109 10.9619 5.37109 11.9751C5.37109 13.0005 4.58984 13.8062 3.56445 13.8062ZM12.561 15.5518C14.502 15.5518 16.1255 13.9282 16.1255 11.9873C16.1255 10.0342 14.502 8.42285 12.561 8.43506C10.6079 8.44727 8.98438 10.0342 8.98438 11.9873C8.98438 13.9282 10.6079 15.5518 12.561 15.5518ZM12.561 13.8062C11.5356 13.8062 10.73 13.0005 10.73 11.9751C10.73 10.9619 11.5356 10.144 12.561 10.144C13.5864 10.144 14.3799 10.9619 14.3799 11.9751C14.3799 13.0005 13.5864 13.8062 12.561 13.8062ZM21.5454 15.5518C23.5107 15.5518 25.1099 13.9282 25.1099 11.9873C25.1099 10.0342 23.5107 8.42285 21.5454 8.43506C19.5923 8.44727 17.9932 10.0342 17.9932 11.9873C17.9932 13.9282 19.5923 15.5518 21.5454 15.5518ZM21.5454 13.8062C20.52 13.8062 19.751 13.0005 19.751 11.9751C19.751 10.9619 20.52 10.144 21.5454 10.144C22.5708 10.144 23.3765 10.9619 23.3765 11.9751C23.3765 13.0005 22.5708 13.8062 21.5454 13.8062ZM3.56445 23.9624C5.51758 23.9624 7.1167 22.3389 7.1167 20.3979C7.1167 18.4326 5.51758 16.8335 3.56445 16.8335C1.59912 16.8335 0 18.4326 0 20.3979C0 22.3389 1.59912 23.9624 3.56445 23.9624ZM3.56445 22.2168C2.53906 22.2168 1.74561 21.4111 1.74561 20.3857C1.74561 19.3726 2.53906 18.5547 3.56445 18.5547C4.58984 18.5547 5.37109 19.3726 5.37109 20.3857C5.37109 21.4111 4.58984 22.2168 3.56445 22.2168ZM12.561 23.9624C14.502 23.9624 16.1255 22.3389 16.1255 20.3979C16.1255 18.4326 14.502 16.8335 12.561 16.8335C10.6079 16.8335 8.98438 18.4326 8.98438 20.3979C8.98438 22.3389 10.6079 23.9624 12.561 23.9624ZM12.561 22.2168C11.5356 22.2168 10.73 21.4111 10.73 20.3857C10.73 19.3726 11.5356 18.5547 12.561 18.5547C13.5864 18.5547 14.3799 19.3726 14.3799 20.3857C14.3799 21.4111 13.5864 22.2168 12.561 22.2168ZM21.5454 23.9624C23.5107 23.9624 25.1099 22.3389 25.1099 20.3979C25.1099 18.4326 23.5107 16.8335 21.5454 16.8335C19.5923 16.8335 17.9932 18.4326 17.9932 20.3979C17.9932 22.3389 19.5923 23.9624 21.5454 23.9624ZM21.5454 22.2168C20.52 22.2168 19.751 21.4111 19.751 20.3857C19.751 19.3726 20.52 18.5547 21.5454 18.5547C22.5708 18.5547 23.3765 19.3726 23.3765 20.3857C23.3765 21.4111 22.5708 22.2168 21.5454 22.2168Z" fill="#5ac8f5"/>
 </g>
</svg>
