<?xml version="1.0" encoding="UTF-8"?>
<!--Generator: Apple Native CoreSVG 175.5-->
<!DOCTYPE svg
PUBLIC "-//W3C//DTD SVG 1.1//EN"
       "http://www.w3.org/Graphics/SVG/1.1/DTD/svg11.dtd">
<svg version="1.1" xmlns="http://www.w3.org/2000/svg" xmlns:xlink="http://www.w3.org/1999/xlink" width="28.0959" height="28.4774">
 <g>
  <rect height="28.4774" opacity="0" width="28.0959" x="0" y="0"/>
  <path d="M19.9711 7.81172C21.8998 6.57881 23.8774 1.02461 21.7045 0.487504C19.4706-0.0251911 18.7748 5.84639 19.9711 7.81172ZM20.2641 8.2878C23.0961 8.3 28.8822 3.67354 26.8803 1.65938C24.8783-0.342574 20.2519 5.44356 20.2641 8.2878ZM20.7402 8.56856C22.6933 9.78926 28.5771 9.06905 28.0644 6.87178C27.5395 4.66231 21.9731 6.65205 20.7402 8.56856ZM20.4472 6.96944C17.3344 3.80782 13.2206 4.60127 10.5839 8.78829L0.391031 24.987C-0.292563 26.0856-0.0118012 27.0622 0.708414 27.7824C1.33097 28.4172 2.28312 28.82 3.4672 28.0754L19.7026 17.8825C23.8652 15.2702 24.6098 11.1931 21.497 8.03145ZM19.1532 8.27559L20.1908 9.3376C22.498 11.6814 22.0829 14.196 18.7504 16.2956L2.53947 26.4763C2.13664 26.7326 1.7216 26.3298 1.97794 25.9392L12.1708 9.72823C14.2826 6.3835 16.8339 5.94405 19.1532 8.27559ZM15.3324 12.0842C15.6376 11.7668 15.6376 11.2907 15.308 10.9611L12.4638 8.15352L11.3529 9.31319L14.1972 12.0964C14.5268 12.426 15.0151 12.4138 15.3324 12.0842ZM12.5614 13.8054C12.8788 13.488 12.8788 12.9997 12.5492 12.6701L10.2909 10.4606L9.18009 11.6081L11.4262 13.8054C11.7558 14.135 12.2319 14.1228 12.5614 13.8054ZM9.82707 18.9201C9.52189 19.2375 9.50968 19.7258 9.83927 20.0554L11.829 21.9841L13.2206 21.1174L10.9623 18.9079C10.6449 18.5905 10.1567 18.6027 9.82707 18.9201ZM7.65421 21.1906C7.33683 21.508 7.33683 22.0085 7.66642 22.3259L9.04582 23.7053L10.4618 22.8386L8.78947 21.1906C8.45988 20.861 7.9716 20.8732 7.65421 21.1906Z" fill="#5ac8f5"/>
 </g>
</svg>
