<?xml version="1.0" encoding="UTF-8"?>
<!--Generator: Apple Native CoreSVG 175.5-->
<!DOCTYPE svg
PUBLIC "-//W3C//DTD SVG 1.1//EN"
       "http://www.w3.org/Graphics/SVG/1.1/DTD/svg11.dtd">
<svg version="1.1" xmlns="http://www.w3.org/2000/svg" xmlns:xlink="http://www.w3.org/1999/xlink" width="32.9834" height="22.4976">
 <g>
  <rect height="22.4976" opacity="0" width="32.9834" x="0" y="0"/>
  <path d="M3.83301 22.4976L29.1626 22.4976C31.7139 22.4976 32.9834 21.228 32.9834 18.7134L32.9834 3.80859C32.9834 1.29395 31.7139 0.0244141 29.1626 0.0244141L3.83301 0.0244141C1.28174 0.0244141 0 1.28174 0 3.80859L0 18.7134C0 21.2402 1.28174 22.4976 3.83301 22.4976ZM3.85742 20.5322C2.63672 20.5322 1.96533 19.8853 1.96533 18.6157L1.96533 3.90625C1.96533 2.63672 2.63672 1.98975 3.85742 1.98975L29.126 1.98975C30.3345 1.98975 31.0181 2.63672 31.0181 3.90625L31.0181 18.6157C31.0181 19.8853 30.3345 20.5322 29.126 20.5322ZM0 16.687L4.98047 16.687C6.604 16.687 7.54395 15.7471 7.54395 14.1479L7.54395 8.36182C7.54395 6.7627 6.604 5.82275 4.98047 5.82275L0 5.82275L0 7.54395L4.96826 7.54395C5.50537 7.54395 5.82275 7.86133 5.82275 8.41064L5.82275 14.0991C5.82275 14.6484 5.50537 14.9658 4.96826 14.9658L0 14.9658ZM15.6006 20.8496L17.3218 20.8496L17.3218 1.67236L15.6006 1.67236ZM16.4429 17.0166C19.8853 17.0166 22.2534 14.6729 22.2168 11.2549C22.1924 7.88574 19.8364 5.52979 16.4429 5.50537C13.0615 5.46875 10.7056 7.8125 10.7056 11.2549C10.7056 14.6729 13.0615 17.0166 16.4429 17.0166ZM16.4551 15.3809C14.0381 15.3809 12.3291 13.6719 12.3291 11.2427C12.3291 8.82568 14.0381 7.14111 16.4551 7.14111C18.8965 7.14111 20.6055 8.82568 20.5933 11.2427C20.5811 13.6719 18.8721 15.3809 16.4551 15.3809ZM32.9834 16.687L32.9834 14.9658L28.0151 14.9658C27.4902 14.9658 27.1729 14.6484 27.1729 14.0991L27.1729 8.41064C27.1729 7.86133 27.4902 7.54395 28.0151 7.54395L32.9834 7.54395L32.9834 5.82275L28.0029 5.82275C26.3794 5.82275 25.4517 6.7627 25.4517 8.36182L25.4517 14.1479C25.4517 15.7471 26.3794 16.687 28.0029 16.687Z" fill="#5ac8f5"/>
 </g>
</svg>
