<?xml version="1.0" encoding="UTF-8"?>
<!--Generator: Apple Native CoreSVG 175.5-->
<!DOCTYPE svg
PUBLIC "-//W3C//DTD SVG 1.1//EN"
       "http://www.w3.org/Graphics/SVG/1.1/DTD/svg11.dtd">
<svg version="1.1" xmlns="http://www.w3.org/2000/svg" xmlns:xlink="http://www.w3.org/1999/xlink" width="37.2437" height="21.4478">
 <g>
  <rect height="21.4478" opacity="0" width="37.2437" x="0" y="0"/>
  <path d="M7.72705 11.1328L17.8833 11.1328L17.8833 2.64893C17.8833 1.0498 16.8457 0 15.3198 0L6.03027 0C4.49219 0 3.4668 1.0498 3.4668 2.64893L3.4668 4.89502L3.80859 4.89502C6.09131 4.89502 7.72705 6.54297 7.72705 8.8501ZM19.3604 11.1328L29.5166 11.1328L29.5166 8.8501C29.5166 6.54297 31.1646 4.89502 33.4351 4.89502L33.7769 4.89502L33.7769 2.64893C33.7769 1.0498 32.7515 0 31.2134 0L21.9238 0C20.3979 0 19.3604 1.0498 19.3604 2.64893ZM0 16.272C0 17.7979 1.00098 18.811 2.50244 18.811L34.7412 18.811C36.2427 18.811 37.2437 17.7979 37.2437 16.272L37.2437 8.8501C37.2437 7.33643 36.2427 6.31104 34.7412 6.31104L33.4351 6.31104C31.9458 6.31104 30.9448 7.33643 30.9448 8.8501L30.9448 12.5488L6.31104 12.5488L6.31104 8.8501C6.31104 7.33643 5.29785 6.31104 3.80859 6.31104L2.50244 6.31104C1.00098 6.31104 0 7.33643 0 8.8501ZM4.30908 21.4233L5.07812 21.4233C5.7373 21.4233 6.15234 21.0083 6.15234 20.3491L6.15234 17.7612L3.23486 17.7612L3.23486 20.3491C3.23486 21.0083 3.6499 21.4233 4.30908 21.4233ZM32.1655 21.4233L32.9346 21.4233C33.5938 21.4233 34.0088 21.0083 34.0088 20.3491L34.0088 17.7612L31.0913 17.7612L31.0913 20.3491C31.0913 21.0083 31.5186 21.4233 32.1655 21.4233Z" fill="#5ac8f5"/>
 </g>
</svg>
