<?xml version="1.0" encoding="UTF-8"?>
<!--Generator: Apple Native CoreSVG 175.5-->
<!DOCTYPE svg
PUBLIC "-//W3C//DTD SVG 1.1//EN"
       "http://www.w3.org/Graphics/SVG/1.1/DTD/svg11.dtd">
<svg version="1.1" xmlns="http://www.w3.org/2000/svg" xmlns:xlink="http://www.w3.org/1999/xlink" width="25.2197" height="32.0679">
 <g>
  <rect height="32.0679" opacity="0" width="25.2197" x="0" y="0"/>
  <path d="M11.2793 19.3604C11.8408 19.3604 12.1094 18.9941 12.793 18.9941C13.5132 18.9941 13.6841 19.3604 14.2944 19.3604C14.9292 19.3604 15.3442 18.7744 15.7349 18.2251C16.1865 17.5903 16.333 16.9556 16.3574 16.9189C16.3208 16.8945 15.1245 16.4307 15.1245 15.0757C15.1245 13.8916 16.0645 13.3545 16.1255 13.3179C15.4907 12.4268 14.563 12.4023 14.2944 12.4023C13.5986 12.4023 13.0493 12.8296 12.6831 12.8296C12.3047 12.8296 11.8042 12.4268 11.2061 12.4268C10.0586 12.4268 8.91113 13.3667 8.91113 15.1611C8.91113 16.272 9.32617 17.4438 9.86328 18.2007C10.3149 18.8232 10.7056 19.3604 11.2793 19.3604ZM12.7441 12.3291C13.147 12.3291 13.6841 12.0361 13.9771 11.6577C14.27 11.3159 14.4653 10.8521 14.4653 10.376C14.4653 10.3027 14.4653 10.2417 14.4409 10.1929C13.9771 10.2173 13.4399 10.498 13.0859 10.8765C12.8174 11.1816 12.6099 11.6577 12.6099 12.1338C12.6099 12.207 12.6099 12.2803 12.6221 12.2925C12.6465 12.3169 12.6831 12.3291 12.7441 12.3291ZM3.83301 27.0508L21.3867 27.0508C23.938 27.0508 25.2197 25.7812 25.2197 23.2788L25.2197 7.25098C25.2197 4.72412 23.938 3.4668 21.3867 3.4668L3.83301 3.4668C1.26953 3.4668 0 4.72412 0 7.25098L0 23.2788C0 25.7935 1.26953 27.0508 3.83301 27.0508ZM3.85742 25.0854C2.63672 25.0854 1.96533 24.4385 1.96533 23.1689L1.96533 7.34863C1.96533 6.0791 2.63672 5.43213 3.85742 5.43213L21.3623 5.43213C22.583 5.43213 23.2544 6.0791 23.2544 7.34863L23.2544 23.1689C23.2544 24.4385 22.5708 25.0854 21.3623 25.0854ZM3.28369 30.6763L7.73926 30.6763C8.25195 30.6763 8.65479 30.2612 8.65479 29.7485C8.65479 29.2358 8.25195 28.8208 7.73926 28.8208L3.28369 28.8208C2.7832 28.8208 2.36816 29.2358 2.36816 29.7485C2.36816 30.2612 2.7832 30.6763 3.28369 30.6763ZM4.58984 29.6875L6.43311 29.6875L6.43311 26.0132L4.58984 26.0132ZM17.4805 30.6763L21.936 30.6763C22.4487 30.6763 22.8516 30.2612 22.8516 29.7485C22.8516 29.2358 22.4487 28.8208 21.936 28.8208L17.4805 28.8208C16.98 28.8208 16.5649 29.2358 16.5649 29.7485C16.5649 30.2612 16.98 30.6763 17.4805 30.6763ZM18.7866 29.6875L20.6299 29.6875L20.6299 26.0132L18.7866 26.0132ZM4.58984 4.41895L6.43311 4.41895L6.43311 0.915527C6.43311 0.415039 6.03027 0 5.51758 0C5.00488 0 4.58984 0.415039 4.58984 0.915527ZM18.7866 4.41895L20.6299 4.41895L20.6299 0.915527C20.6299 0.415039 20.2271 0 19.7144 0C19.1895 0 18.7866 0.415039 18.7866 0.915527Z" fill="#5ac8f5"/>
 </g>
</svg>
