<?xml version="1.0" encoding="UTF-8"?>
<!--Generator: Apple Native CoreSVG 175.5-->
<!DOCTYPE svg
PUBLIC "-//W3C//DTD SVG 1.1//EN"
       "http://www.w3.org/Graphics/SVG/1.1/DTD/svg11.dtd">
<svg version="1.1" xmlns="http://www.w3.org/2000/svg" xmlns:xlink="http://www.w3.org/1999/xlink" width="24.9023" height="24.9146">
 <g>
  <rect height="24.9146" opacity="0" width="24.9023" x="0" y="0"/>
  <path d="M12.4512 24.9023C19.2627 24.9023 24.9023 19.2505 24.9023 12.4512C24.9023 5.63965 19.2505 0 12.439 0C5.63965 0 0 5.63965 0 12.4512C0 19.2505 5.65186 24.9023 12.4512 24.9023ZM12.4512 22.8271C6.68945 22.8271 2.0874 18.2129 2.0874 12.4512C2.0874 6.68945 6.67725 2.0752 12.439 2.0752C18.2007 2.0752 22.8271 6.68945 22.8271 12.4512C22.8271 18.2129 18.2129 22.8271 12.4512 22.8271Z" fill="#5ac8f5" fill-opacity="0.5"/>
  <path d="M9.11865 13.2812C8.77686 13.2812 8.52051 13.0371 8.52051 12.6953C8.52051 12.3535 8.77686 12.1094 9.11865 12.1094L11.853 12.1094L11.853 8.38623C11.853 8.05664 12.1094 7.80029 12.439 7.80029C12.7808 7.80029 13.0493 8.05664 13.0493 8.38623L13.0493 12.6953C13.0493 13.0249 12.7686 13.2812 12.439 13.2812ZM12.4512 19.0063C16.0278 19.0063 19.0063 16.0278 19.0063 12.4512C19.0063 8.87451 16.0278 5.896 12.439 5.896C8.8623 5.896 5.896 8.87451 5.896 12.4512C5.896 16.0278 8.87451 19.0063 12.4512 19.0063Z" fill="#5ac8f5"/>
 </g>
</svg>
