<?xml version="1.0" encoding="UTF-8"?>
<!--Generator: Apple Native CoreSVG 175.5-->
<!DOCTYPE svg
PUBLIC "-//W3C//DTD SVG 1.1//EN"
       "http://www.w3.org/Graphics/SVG/1.1/DTD/svg11.dtd">
<svg version="1.1" xmlns="http://www.w3.org/2000/svg" xmlns:xlink="http://www.w3.org/1999/xlink" width="25.0854" height="26.5503">
 <g>
  <rect height="26.5503" opacity="0" width="25.0854" x="0" y="0"/>
  <path d="M4.88281 13.2446C4.37012 13.2446 4.00391 12.8418 4.00391 12.3657C4.00391 11.8896 4.37012 11.4868 4.88281 11.4868L12.8662 11.4868C13.3423 11.4868 13.7207 11.8896 13.7207 12.3657C13.7207 12.8418 13.3423 13.2446 12.8662 13.2446ZM4.88281 16.5405C4.37012 16.5405 4.00391 16.1621 4.00391 15.686C4.00391 15.1855 4.37012 14.8071 4.88281 14.8071L10.5835 14.8071C11.0596 14.8071 11.4502 15.1855 11.4502 15.686C11.4502 16.1621 11.0596 16.5405 10.5835 16.5405ZM18.5913 16.8701C16.9434 16.8701 15.6128 15.5518 15.6128 13.9038C15.6128 12.2559 16.9434 10.9375 18.5913 10.9375C20.2148 10.9375 21.5454 12.2559 21.5454 13.9038C21.5454 15.5518 20.2148 16.8701 18.5913 16.8701ZM3.71094 26.5381L21.3745 26.5381C23.8281 26.5381 25.0854 25.293 25.0854 22.8638L25.0854 10.5835C25.0854 8.1543 23.8281 6.92139 21.3745 6.92139L3.71094 6.92139C1.23291 6.92139 0 8.1543 0 10.5835L0 22.8638C0 25.293 1.23291 26.5381 3.71094 26.5381ZM2.33154 4.95605L22.7661 4.95605C22.583 3.84521 22.0581 3.23486 20.8374 3.23486L4.26025 3.23486C3.03955 3.23486 2.51465 3.84521 2.33154 4.95605ZM4.84619 1.57471L20.2515 1.57471C20.1782 0.537109 19.5923 0 18.457 0L6.62842 0C5.50537 0 4.91943 0.537109 4.84619 1.57471Z" fill="#5ac8f5"/>
 </g>
</svg>
