<?xml version="1.0" encoding="UTF-8"?>
<!--Generator: Apple Native CoreSVG 175.5-->
<!DOCTYPE svg
PUBLIC "-//W3C//DTD SVG 1.1//EN"
       "http://www.w3.org/Graphics/SVG/1.1/DTD/svg11.dtd">
<svg version="1.1" xmlns="http://www.w3.org/2000/svg" xmlns:xlink="http://www.w3.org/1999/xlink" width="27.5757" height="26.6968">
 <g>
  <rect height="26.6968" opacity="0" width="27.5757" x="0" y="0"/>
  <path d="M3.6377 23.0713L6.05469 23.0713L6.05469 21.228L3.61328 21.228C2.52686 21.228 1.97754 20.6665 1.97754 19.5923L1.97754 7.97119C1.97754 6.89697 2.52686 6.33545 3.61328 6.33545L23.9746 6.33545C25.0488 6.33545 25.6104 6.89697 25.6104 7.97119L25.6104 19.5923C25.6104 20.6665 25.0488 21.228 23.9746 21.228L21.6919 21.228L21.6919 23.0713L23.9502 23.0713C26.3184 23.0713 27.5757 21.875 27.5757 19.4946L27.5757 8.06885C27.5757 5.70068 26.3184 4.49219 23.9502 4.49219L3.6377 4.49219C1.37939 4.49219 0 5.70068 0 8.06885L0 19.4946C0 21.875 1.25732 23.0713 3.6377 23.0713ZM7.25098 26.6968L20.3247 26.6968C21.875 26.6968 22.6562 25.9888 22.6562 24.3652L22.6562 14.4043C22.6562 12.7808 21.875 12.0728 20.3247 12.0728L7.25098 12.0728C5.77393 12.0728 4.91943 12.7808 4.91943 14.4043L4.91943 24.3652C4.91943 25.9888 5.70068 26.6968 7.25098 26.6968ZM7.86133 24.8535C7.21436 24.8535 6.88477 24.5361 6.88477 23.877L6.88477 14.8804C6.88477 14.2212 7.21436 13.916 7.86133 13.916L19.7266 13.916C20.3857 13.916 20.6909 14.2212 20.6909 14.8804L20.6909 23.877C20.6909 24.5361 20.3857 24.8535 19.7266 24.8535ZM4.83398 5.59082L6.72607 5.59082L6.72607 3.71094C6.72607 2.68555 7.25098 2.18506 8.26416 2.18506L19.3115 2.18506C20.3369 2.18506 20.8496 2.68555 20.8496 3.71094L20.8496 5.56641L22.7417 5.56641L22.7417 3.84521C22.7417 1.46484 21.5576 0.402832 19.2871 0.402832L8.28857 0.402832C6.14014 0.402832 4.83398 1.46484 4.83398 3.84521ZM9.55811 18.0054L18.0542 18.0054C18.4814 18.0054 18.7988 17.6758 18.7988 17.2363C18.7988 16.8213 18.4814 16.5039 18.0542 16.5039L9.55811 16.5039C9.11865 16.5039 8.78906 16.8213 8.78906 17.2363C8.78906 17.6758 9.11865 18.0054 9.55811 18.0054ZM9.55811 22.2656L18.0542 22.2656C18.4814 22.2656 18.7988 21.936 18.7988 21.521C18.7988 21.0938 18.4814 20.7642 18.0542 20.7642L9.55811 20.7642C9.11865 20.7642 8.78906 21.0938 8.78906 21.521C8.78906 21.936 9.11865 22.2656 9.55811 22.2656ZM19.7021 9.22852C19.7021 10.083 20.4102 10.7544 21.2402 10.7544C22.0581 10.7544 22.7539 10.083 22.7539 9.22852C22.7539 8.42285 22.0581 7.71484 21.2402 7.71484C20.4102 7.71484 19.7021 8.42285 19.7021 9.22852Z" fill="#5ac8f5"/>
 </g>
</svg>
