<?xml version="1.0" encoding="UTF-8"?>
<!--Generator: Apple Native CoreSVG 175.5-->
<!DOCTYPE svg
PUBLIC "-//W3C//DTD SVG 1.1//EN"
       "http://www.w3.org/Graphics/SVG/1.1/DTD/svg11.dtd">
<svg version="1.1" xmlns="http://www.w3.org/2000/svg" xmlns:xlink="http://www.w3.org/1999/xlink" width="26.8739" height="25.2157">
 <g>
  <rect height="25.2157" opacity="0" width="26.8739" x="0" y="0"/>
  <path d="M0.376474 22.2819C2.64698 25.3459 7.40772 26.176 10.3618 23.9787C12.8887 22.111 13.4258 19.1691 11.5581 16.7033C9.81251 14.3596 7.22462 13.7858 5.19825 15.3117C3.29395 16.7399 3.96534 18.7907 2.90333 19.5842C1.9756 20.28 1.1089 19.8894 0.437509 20.402C-0.050772 20.7927-0.209463 21.5007 0.376474 22.2819ZM2.86671 22.0866C2.70802 21.9157 2.72022 21.7448 2.83009 21.635C3.00099 21.4763 3.68458 21.4274 4.20948 20.9025C5.39356 19.7307 4.99073 18.0095 6.35792 16.9475C7.49317 16.0441 9.06788 16.3737 10.1299 17.7409C11.3262 19.2912 10.9111 21.1833 9.26319 22.4528C7.41993 23.9055 4.57569 23.8933 2.86671 22.0866ZM12.315 19.3767C13.6333 19.2302 14.7441 18.571 15.9893 17.3259C19.9077 13.4196 25.8892 4.66719 26.4141 3.93476C27.9522 1.79853 25.3154-0.813772 23.167 0.687693C22.4468 1.20039 13.6821 7.16963 9.77589 11.1125C8.55518 12.3454 7.8838 13.444 7.72511 14.738L9.64161 15.2629C9.66602 14.3718 10.1421 13.5051 11.1553 12.5041C15.0249 8.6833 23.582 2.81172 24.1069 2.42109C24.522 2.11592 24.9858 2.55537 24.6685 3.00703C24.3511 3.4709 18.4063 12.1379 14.5977 15.9465C13.5967 16.9475 12.8276 17.3503 11.9854 17.4479ZM14.4756 16.3127L16.0381 15.9099C15.8672 13.5783 13.5845 11.259 11.2896 11.0637L10.7647 12.6262C12.3272 12.5895 14.4756 14.738 14.4756 16.3127Z" fill="#5ac8f5"/>
 </g>
</svg>
