<?xml version="1.0" encoding="UTF-8"?>
<!--Generator: Apple Native CoreSVG 175.5-->
<!DOCTYPE svg
PUBLIC "-//W3C//DTD SVG 1.1//EN"
       "http://www.w3.org/Graphics/SVG/1.1/DTD/svg11.dtd">
<svg version="1.1" xmlns="http://www.w3.org/2000/svg" xmlns:xlink="http://www.w3.org/1999/xlink" width="30.3711" height="24.7437">
 <g>
  <rect height="24.7437" opacity="0" width="30.3711" x="0" y="0"/>
  <path d="M9.86328 24.7314L26.5381 24.7314C29.0771 24.7314 30.3711 23.4619 30.3711 20.9473L30.3711 9.43604C30.3711 6.92139 29.0771 5.65186 26.5381 5.65186L9.86328 5.65186C7.2998 5.65186 6.03027 6.92139 6.03027 9.43604L6.03027 20.9473C6.03027 23.4741 7.2998 24.7314 9.86328 24.7314ZM9.86328 3.9917L24.2065 3.9917L24.2065 3.78418C24.2065 1.26953 22.9126 0 20.3735 0L3.83301 0C1.26953 0 0 1.26953 0 3.78418L0 15.2954C0 17.8223 1.26953 19.0796 3.83301 19.0796L4.35791 19.0796L4.35791 9.43604C4.35791 5.99365 6.38428 3.9917 9.86328 3.9917ZM12.2437 15.21C12.2437 14.563 12.6831 14.1357 13.3301 14.1357L17.1509 14.1357L17.1509 10.3149C17.1509 9.68018 17.5659 9.22852 18.1885 9.22852C18.8232 9.22852 19.2627 9.66797 19.2627 10.3149L19.2627 14.1357L23.0957 14.1357C23.7183 14.1357 24.1699 14.563 24.1699 15.21C24.1699 15.8203 23.7183 16.2476 23.0957 16.2476L19.2627 16.2476L19.2627 20.0806C19.2627 20.7031 18.8232 21.1548 18.1885 21.1548C17.5659 21.1548 17.1509 20.7031 17.1509 20.0806L17.1509 16.2476L13.3301 16.2476C12.6953 16.2476 12.2437 15.8203 12.2437 15.21Z" fill="#5ac8f5"/>
 </g>
</svg>
