<?xml version="1.0" encoding="UTF-8"?>
<!--Generator: Apple Native CoreSVG 175.5-->
<!DOCTYPE svg
PUBLIC "-//W3C//DTD SVG 1.1//EN"
       "http://www.w3.org/Graphics/SVG/1.1/DTD/svg11.dtd">
<svg version="1.1" xmlns="http://www.w3.org/2000/svg" xmlns:xlink="http://www.w3.org/1999/xlink" width="24.9023" height="24.9146">
 <g>
  <rect height="24.9146" opacity="0" width="24.9023" x="0" y="0"/>
  <path d="M12.4512 24.9023C19.2627 24.9023 24.9023 19.2505 24.9023 12.4512C24.9023 5.63965 19.2505 0 12.439 0C5.63965 0 0 5.63965 0 12.4512C0 19.2505 5.65186 24.9023 12.4512 24.9023ZM9.04541 17.7246C8.56934 17.7246 8.25195 17.4072 8.25195 16.9189L8.25195 9.10645L8.17871 9.10645L6.86035 10.0952C6.56738 10.3271 6.43311 10.3394 6.23779 10.3394C5.87158 10.3394 5.51758 10.0098 5.51758 9.58252C5.51758 9.25293 5.66406 9.021 5.93262 8.83789L7.83691 7.53174C8.30078 7.22656 8.53271 7.09229 8.94775 7.09229C9.48486 7.09229 9.83887 7.48291 9.83887 8.00781L9.83887 16.9189C9.83887 17.4072 9.52148 17.7246 9.04541 17.7246ZM15.6128 17.8833C14.0259 17.8833 12.793 17.0532 12.4146 16.0034C12.3413 15.8325 12.3047 15.6372 12.3047 15.4297C12.3047 15.0146 12.5854 14.6973 13.0127 14.6973C13.3057 14.6973 13.5498 14.8804 13.7451 15.2466C14.1113 15.9912 14.8315 16.4429 15.686 16.4429C16.9067 16.4429 17.7368 15.6616 17.7368 14.3433C17.7368 13.1836 16.98 12.3047 15.8813 12.3047C15.332 12.3047 14.9292 12.4878 14.4165 12.9395C14.0137 13.269 13.7817 13.3667 13.3911 13.3667C12.8052 13.3667 12.4512 12.9395 12.4878 12.2803L12.8052 8.36182C12.8418 7.69043 13.2812 7.2876 13.9526 7.2876L18.2739 7.2876C18.6401 7.2876 18.8965 7.59277 18.8965 7.99561C18.8965 8.41064 18.6279 8.70361 18.2739 8.70361L14.1235 8.70361L13.8794 11.9263L13.9282 11.9263C14.3066 11.3647 15.21 10.9497 16.04 10.9497C17.9932 10.9497 19.2993 12.3657 19.2993 14.3066C19.2993 16.5161 17.8345 17.8833 15.6128 17.8833Z" fill="#5ac8f5"/>
 </g>
</svg>
