<?xml version="1.0" encoding="UTF-8"?>
<!--Generator: Apple Native CoreSVG 175.5-->
<!DOCTYPE svg
PUBLIC "-//W3C//DTD SVG 1.1//EN"
       "http://www.w3.org/Graphics/SVG/1.1/DTD/svg11.dtd">
<svg version="1.1" xmlns="http://www.w3.org/2000/svg" xmlns:xlink="http://www.w3.org/1999/xlink" width="31.7139" height="23.6938">
 <g>
  <rect height="23.6938" opacity="0" width="31.7139" x="0" y="0"/>
  <path d="M23.9014 13.5132C27.5513 14.3677 29.8218 15.7593 29.8218 17.2241C29.8218 19.6045 23.7427 21.8018 15.8569 21.8018C7.97119 21.8018 1.89209 19.6045 1.89209 17.2241C1.89209 15.7715 4.10156 14.4043 7.67822 13.5254L6.75049 11.792C2.53906 12.9028 0 14.8438 0 17.2241C0 21.0571 6.5918 23.6938 15.8569 23.6938C25.1343 23.6938 31.7139 21.0571 31.7139 17.2241C31.7139 14.7827 29.0283 12.793 24.646 11.7065ZM25 5.0415L25 7.59277C25 12.8662 21.6309 16.4551 16.4185 16.4551L15.2832 16.4551C10.0586 16.4551 6.71387 12.8906 6.71387 7.59277L6.71387 5.0415L4.74854 5.0415L4.74854 7.59277C4.74854 13.9526 8.98438 18.4204 15.2832 18.4204L16.4185 18.4204C22.7173 18.4204 26.9653 13.9404 26.9653 7.59277L26.9653 5.0415ZM15.8569 10.0708C22.4731 10.0708 26.9653 8.03223 26.9653 5.0415C26.9653 2.03857 22.4854 0 15.8569 0C9.22852 0 4.74854 2.03857 4.74854 5.0415C4.74854 8.03223 9.24072 10.0708 15.8569 10.0708ZM15.8569 8.10547C10.5957 8.10547 6.71387 6.7749 6.71387 5.0415C6.71387 3.30811 10.5957 1.96533 15.8569 1.96533C21.1182 1.96533 25 3.30811 25 5.0415C25 6.7749 21.1182 8.10547 15.8569 8.10547ZM25.5981 12.8662L26.5991 12.8662C29.4067 12.8662 31.0913 11.3892 31.0913 8.93555C31.0913 6.50635 29.3945 5.01709 26.5991 5.01709L25.7812 5.01709L25.7812 6.98242L26.5991 6.98242C28.186 6.98242 29.126 7.71484 29.126 8.93555C29.126 10.1562 28.186 10.9009 26.5991 10.9009L25.5981 10.9009Z" fill="#5ac8f5"/>
 </g>
</svg>
