<?xml version="1.0" encoding="UTF-8"?>
<!--Generator: Apple Native CoreSVG 175.5-->
<!DOCTYPE svg
PUBLIC "-//W3C//DTD SVG 1.1//EN"
       "http://www.w3.org/Graphics/SVG/1.1/DTD/svg11.dtd">
<svg version="1.1" xmlns="http://www.w3.org/2000/svg" xmlns:xlink="http://www.w3.org/1999/xlink" width="29.5166" height="22.4976">
 <g>
  <rect height="22.4976" opacity="0" width="29.5166" x="0" y="0"/>
  <path d="M10.498 22.4976L19.0308 22.4976C26.2939 22.4976 29.5166 19.165 29.5166 12.3169L29.5166 3.80859C29.5166 1.29395 28.2349 0.0244141 25.6836 0.0244141L3.83301 0.0244141C1.28174 0.0244141 0 1.28174 0 3.80859L0 12.3169C0 19.165 3.22266 22.4976 10.498 22.4976ZM10.498 20.5078C4.56543 20.5078 1.96533 17.9077 1.96533 12.439L1.96533 3.90625C1.96533 2.63672 2.63672 1.98975 3.85742 1.98975L25.6592 1.98975C26.8677 1.98975 27.5513 2.63672 27.5513 3.90625L27.5513 12.439C27.5513 17.9077 24.9512 20.5078 19.0186 20.5078ZM6.65283 16.8701C7.2998 16.8701 7.6416 16.4673 7.6416 15.7837L7.6416 12.7563L9.91211 12.7563L12.0361 16.2354C12.3291 16.6992 12.5732 16.8701 13.0005 16.8701C13.5254 16.8701 13.8916 16.5283 13.8916 16.04C13.8916 15.7715 13.8306 15.5762 13.6719 15.332L11.8408 12.4756C13.269 11.9995 14.209 10.7178 14.209 9.19189C14.209 7.00684 12.6343 5.60303 10.1562 5.60303L6.65283 5.60303C6.01807 5.60303 5.70068 6.05469 5.70068 6.70166L5.70068 15.7837C5.70068 16.4429 6.03027 16.8701 6.65283 16.8701ZM7.6416 11.3281L7.6416 7.09229L9.91211 7.09229C11.3281 7.09229 12.2681 7.87354 12.2681 9.24072C12.2681 10.5835 11.3525 11.3281 9.86328 11.3281ZM17.2119 16.748L20.7764 16.748C23.3032 16.748 24.9268 15.5273 24.9268 13.6108C24.9268 12.1216 23.9258 11.084 22.3022 10.8765L22.3022 10.8032C23.5107 10.5103 24.2554 9.55811 24.2554 8.3374C24.2554 6.67725 22.9004 5.59082 20.8008 5.59082L17.2119 5.59082C16.5283 5.59082 16.1255 5.98145 16.1255 6.67725L16.1255 15.6616C16.1255 16.3452 16.5283 16.748 17.2119 16.748ZM18.0176 10.3271L18.0176 7.03125L20.4102 7.03125C21.6431 7.03125 22.3877 7.6416 22.3877 8.64258C22.3877 9.729 21.4966 10.3271 19.8608 10.3271ZM18.0176 15.3076L18.0176 11.6699L20.6177 11.6699C22.1069 11.6699 22.9736 12.3535 22.9736 13.5376C22.9736 14.7461 22.0337 15.3076 20.0073 15.3076Z" fill="#5ac8f5"/>
 </g>
</svg>
