<?xml version="1.0" encoding="UTF-8"?>
<!--Generator: Apple Native CoreSVG 175.5-->
<!DOCTYPE svg
PUBLIC "-//W3C//DTD SVG 1.1//EN"
       "http://www.w3.org/Graphics/SVG/1.1/DTD/svg11.dtd">
<svg version="1.1" xmlns="http://www.w3.org/2000/svg" xmlns:xlink="http://www.w3.org/1999/xlink" width="30.9937" height="37.2284">
 <g>
  <rect height="37.2284" opacity="0" width="30.9937" x="0" y="0"/>
  <path d="M15.4907 7.87813C9.57031 7.87813 4.77295 12.6877 4.77295 18.6081C4.77295 24.5285 9.57031 29.3259 15.4907 29.3259C21.4233 29.3259 26.2207 24.5285 26.2207 18.6081C26.2207 12.6877 21.4233 7.87813 15.4907 7.87813ZM15.4907 3.11739C6.93359 3.11739 0 10.051 0 18.6081C0 25.4318 4.41895 31.2302 10.5469 33.2932C10.4492 32.5852 10.6445 31.9016 11.0596 31.3767C5.77393 29.5456 1.96533 24.5285 1.96533 18.6081C1.96533 11.1374 8.02002 5.08272 15.4907 5.08272C22.9614 5.08272 29.0283 11.1374 29.0283 18.6081C29.0283 24.5041 25.2319 29.5334 19.9463 31.3767C20.3735 31.8894 20.5566 32.573 20.459 33.281C26.5869 31.2058 30.9937 25.4196 30.9937 18.6081C30.9937 10.051 24.0479 3.11739 15.4907 3.11739ZM12.4268 33.6228L14.856 36.8942C15.1855 37.3459 15.8081 37.3337 16.1499 36.8942L18.5913 33.6228C19.0796 32.9758 18.8232 32.1335 17.9443 32.1335L13.0615 32.1335C12.2192 32.1335 11.9263 32.9514 12.4268 33.6228ZM12.4146 24.0891C11.8042 24.0891 11.4746 23.6618 11.4746 23.0148L11.4746 14.1403C11.4746 13.4812 11.8042 13.0417 12.4023 13.0417L15.8569 13.0417C18.2739 13.0417 19.812 14.4211 19.812 16.5695C19.812 18.0588 18.9087 19.3039 17.5171 19.7678L19.2993 22.5754C19.4458 22.8195 19.5068 23.0026 19.5068 23.2712C19.5068 23.7595 19.1528 24.0891 18.6401 24.0891C18.2129 24.0891 17.9688 23.9182 17.688 23.4665L15.6128 20.0485L13.3911 20.0485L13.3911 23.0148C13.3911 23.6862 13.0493 24.0891 12.4146 24.0891ZM13.3911 18.6447L15.5762 18.6447C17.0044 18.6447 17.9199 17.9123 17.9199 16.6184C17.9199 15.2756 16.9922 14.5188 15.6128 14.5188L13.3911 14.5188Z" fill="#5ac8f5"/>
 </g>
</svg>
