<?xml version="1.0" encoding="UTF-8"?>
<!--Generator: Apple Native CoreSVG 175.5-->
<!DOCTYPE svg
PUBLIC "-//W3C//DTD SVG 1.1//EN"
       "http://www.w3.org/Graphics/SVG/1.1/DTD/svg11.dtd">
<svg version="1.1" xmlns="http://www.w3.org/2000/svg" xmlns:xlink="http://www.w3.org/1999/xlink" width="20.3979" height="27.5269">
 <g>
  <rect height="27.5269" opacity="0" width="20.3979" x="0" y="0"/>
  <path d="M0 24.2798C0 26.2085 1.35498 27.5024 3.38135 27.5024L17.0166 27.5024C19.043 27.5024 20.3979 26.2085 20.3979 24.2798L20.3979 3.23486C20.3979 1.30615 19.043 0 17.0166 0L3.38135 0C1.35498 0 0 1.30615 0 3.23486ZM1.96533 23.9502L1.96533 3.56445C1.96533 2.56348 2.57568 1.96533 3.62549 1.96533L16.7725 1.96533C17.8101 1.96533 18.4326 2.56348 18.4326 3.56445L18.4326 23.9502C18.4326 24.9512 17.8101 25.5371 16.7725 25.5371L3.62549 25.5371C2.57568 25.5371 1.96533 24.9512 1.96533 23.9502ZM8.14209 17.8955L12.2803 17.8955C12.9395 17.8955 13.269 17.5537 13.269 16.8579L13.269 13.6841C13.269 13.1348 13.0615 12.8174 12.6587 12.6831L12.6587 11.853C12.6587 10.2051 11.6699 9.08203 10.2051 9.08203C8.75244 9.08203 7.75146 10.2051 7.75146 11.853L7.75146 12.6953C7.36084 12.8174 7.14111 13.1348 7.14111 13.6841L7.14111 16.8579C7.14111 17.5537 7.48291 17.8955 8.14209 17.8955ZM8.95996 12.6343L8.95996 11.7432C8.95996 10.8398 9.44824 10.2539 10.2051 10.2539C10.9619 10.2539 11.4502 10.8398 11.4502 11.7432L11.4502 12.6343Z" fill="#5ac8f5"/>
 </g>
</svg>
