<?xml version="1.0" encoding="UTF-8"?>
<!--Generator: Apple Native CoreSVG 175.5-->
<!DOCTYPE svg
PUBLIC "-//W3C//DTD SVG 1.1//EN"
       "http://www.w3.org/Graphics/SVG/1.1/DTD/svg11.dtd">
<svg version="1.1" xmlns="http://www.w3.org/2000/svg" xmlns:xlink="http://www.w3.org/1999/xlink" width="24.9023" height="24.9146">
 <g>
  <rect height="24.9146" opacity="0" width="24.9023" x="0" y="0"/>
  <path d="M6.11572 15.332C5.45654 15.332 4.95605 14.8438 4.95605 14.1724L4.95605 10.7178C4.95605 10.0464 5.45654 9.55811 6.11572 9.55811L18.811 9.55811C19.4702 9.55811 19.9585 10.0464 19.9585 10.7178L19.9585 14.1602C19.9585 14.8315 19.4702 15.332 18.811 15.332ZM12.4512 24.9146C19.2627 24.9146 24.9023 19.2749 24.9023 12.4634C24.9023 5.66406 19.2505 0.012207 12.439 0.012207C5.63965 0.012207 0 5.66406 0 12.4634C0 19.2749 5.65186 24.9146 12.4512 24.9146Z" fill="#5ac8f5"/>
 </g>
</svg>
