<?xml version="1.0" encoding="UTF-8"?>
<!--Generator: Apple Native CoreSVG 175.5-->
<!DOCTYPE svg
PUBLIC "-//W3C//DTD SVG 1.1//EN"
       "http://www.w3.org/Graphics/SVG/1.1/DTD/svg11.dtd">
<svg version="1.1" xmlns="http://www.w3.org/2000/svg" xmlns:xlink="http://www.w3.org/1999/xlink" width="34.8389" height="23.8159">
 <g>
  <rect height="23.8159" opacity="0" width="34.8389" x="0" y="0"/>
  <path d="M12.3169 12.6953C12.3169 12.9883 12.561 13.1958 12.854 13.1958L16.7847 13.1958L14.6851 18.8477C14.4043 19.5923 15.1978 19.9951 15.686 19.397L22.0581 11.4014C22.1924 11.2549 22.2534 11.084 22.2534 10.9375C22.2534 10.6445 22.0215 10.437 21.7163 10.437L17.7856 10.437L19.8853 4.79736C20.166 4.05273 19.3726 3.6377 18.8843 4.23584L12.5122 12.2314C12.3901 12.3901 12.3169 12.5488 12.3169 12.6953Z" fill="#5ac8f5"/>
  <path d="M17.4194 23.8037C23.9258 23.8037 29.3335 18.4082 29.3335 11.9019C29.3335 5.39551 23.9258 0 17.4072 0C10.9009 0 5.51758 5.3833 5.51758 11.9019C5.51758 18.4082 10.9131 23.8037 17.4194 23.8037ZM17.4194 21.7285C11.9751 21.7285 7.60498 17.3584 7.60498 11.9019C7.60498 6.43311 11.9629 2.06299 17.4072 2.06299C22.8638 2.06299 27.2461 6.43311 27.2583 11.9019C27.2705 17.3462 22.8882 21.7285 17.4194 21.7285ZM0 11.9019C0 15.7715 1.25732 19.3237 3.38135 22.2168C3.75977 22.7417 4.40674 22.7905 4.89502 22.3999C5.33447 22.0215 5.39551 21.4355 5.0415 20.9473C3.18604 18.4204 2.0874 15.2832 2.0874 11.9019C2.0874 8.5083 3.18604 5.3833 5.0415 2.83203C5.39551 2.36816 5.34668 1.77002 4.89502 1.3916C4.40674 1.00098 3.75977 1.06201 3.38135 1.57471C1.25732 4.46777 0 8.03223 0 11.9019ZM34.8389 11.9019C34.8389 8.03223 33.5938 4.46777 31.4575 1.57471C31.0791 1.06201 30.4321 1.00098 29.9438 1.3916C29.4922 1.77002 29.4556 2.36816 29.7974 2.83203C31.665 5.3833 32.7515 8.5083 32.7515 11.9019C32.7515 15.2832 31.665 18.4204 29.7974 20.9473C29.4556 21.4355 29.5044 22.0215 29.9438 22.3999C30.4321 22.7905 31.0791 22.7417 31.4575 22.2168C33.5938 19.3237 34.8389 15.7715 34.8389 11.9019Z" fill="#5ac8f5" fill-opacity="0.5"/>
 </g>
</svg>
