<?xml version="1.0" encoding="UTF-8"?>
<!--Generator: Apple Native CoreSVG 175.5-->
<!DOCTYPE svg
PUBLIC "-//W3C//DTD SVG 1.1//EN"
       "http://www.w3.org/Graphics/SVG/1.1/DTD/svg11.dtd">
<svg version="1.1" xmlns="http://www.w3.org/2000/svg" xmlns:xlink="http://www.w3.org/1999/xlink" width="24.9023" height="24.9146">
 <g>
  <rect height="24.9146" opacity="0" width="24.9023" x="0" y="0"/>
  <path d="M12.4512 24.9146C19.2627 24.9146 24.9023 19.2749 24.9023 12.4634C24.9023 5.66406 19.2505 0.012207 12.439 0.012207C5.63965 0.012207 0 5.66406 0 12.4634C0 19.2749 5.65186 24.9146 12.4512 24.9146Z" fill="#5ac8f5" fill-opacity="0.25"/>
  <path d="M6.05469 14.3188C5.65186 14.3188 5.31006 13.9893 5.31006 13.5498L5.31006 11.3403C5.31006 10.9253 5.63965 10.5957 6.05469 10.5957C6.49414 10.5957 6.82373 10.9253 6.82373 11.3403L6.82373 13.5498C6.82373 13.9893 6.49414 14.3188 6.05469 14.3188Z" fill="#5ac8f5"/>
  <path d="M8.61816 16.4673C8.19092 16.4673 7.86133 16.1377 7.86133 15.686L7.86133 9.2041C7.86133 8.77686 8.19092 8.44727 8.61816 8.44727C9.05762 8.44727 9.38721 8.77686 9.38721 9.2041L9.38721 15.686C9.38721 16.1377 9.05762 16.4673 8.61816 16.4673Z" fill="#5ac8f5"/>
  <path d="M11.1816 19.4214C10.7422 19.4214 10.4126 19.104 10.4126 18.6646L10.4126 6.25C10.4126 5.82275 10.7544 5.49316 11.1816 5.49316C11.5967 5.49316 11.9263 5.82275 11.9263 6.25L11.9263 18.6646C11.9263 19.0918 11.5967 19.4214 11.1816 19.4214Z" fill="#5ac8f5"/>
  <path d="M13.7207 15.3198C13.3057 15.3198 12.9639 14.9902 12.9639 14.563L12.9639 10.3394C12.9639 9.92432 13.3057 9.59473 13.7207 9.59473C14.1479 9.59473 14.4775 9.92432 14.4775 10.3394L14.4775 14.563C14.4775 14.9902 14.1479 15.3198 13.7207 15.3198Z" fill="#5ac8f5"/>
  <path d="M16.2842 17.6636C15.8447 17.6636 15.5151 17.334 15.5151 16.9189L15.5151 7.99561C15.5151 7.58057 15.8447 7.23877 16.2842 7.23877C16.7114 7.23877 17.041 7.58057 17.041 7.99561L17.041 16.9189C17.041 17.334 16.7114 17.6636 16.2842 17.6636Z" fill="#5ac8f5"/>
  <path d="M18.8477 14.8193C18.4082 14.8193 18.0786 14.4897 18.0786 14.0625L18.0786 10.8521C18.0786 10.4248 18.4082 10.083 18.8477 10.083C19.2749 10.083 19.5923 10.4126 19.5923 10.8521L19.5923 14.0625C19.5923 14.502 19.2749 14.8193 18.8477 14.8193Z" fill="#5ac8f5"/>
 </g>
</svg>
