<?xml version="1.0" encoding="UTF-8"?>
<!--Generator: Apple Native CoreSVG 175.5-->
<!DOCTYPE svg
PUBLIC "-//W3C//DTD SVG 1.1//EN"
       "http://www.w3.org/Graphics/SVG/1.1/DTD/svg11.dtd">
<svg version="1.1" xmlns="http://www.w3.org/2000/svg" xmlns:xlink="http://www.w3.org/1999/xlink" width="24.9268" height="22.3755">
 <g>
  <rect height="22.3755" opacity="0" width="24.9268" x="0" y="0"/>
  <path d="M1.14746 22.3755L7.03125 22.3755C8.08105 22.3755 8.95996 21.8018 9.375 20.8496L17.3828 2.79541C17.5781 2.39258 17.8833 2.20947 18.3716 2.20947L23.7793 2.20947C24.4141 2.20947 24.9268 1.70898 24.9268 1.09863C24.9268 0.488281 24.4141 0 23.7793 0L17.8223 0C16.6992 0 15.9546 0.476074 15.5029 1.50146L7.4585 19.5679C7.27539 19.9707 6.95801 20.166 6.51855 20.166L1.14746 20.166C0.500488 20.166 0 20.6543 0 21.2769C0 21.8994 0.500488 22.3755 1.14746 22.3755ZM15.8813 22.3755L23.7793 22.3755C24.4263 22.3755 24.9146 21.9116 24.9146 21.2891C24.9146 20.6665 24.4263 20.1904 23.7793 20.1904L15.8813 20.1904C15.2344 20.1904 14.7339 20.6665 14.7339 21.2891C14.7339 21.9116 15.2344 22.3755 15.8813 22.3755Z" fill="#5ac8f5"/>
 </g>
</svg>
