<?xml version="1.0" encoding="UTF-8"?>
<!--Generator: Apple Native CoreSVG 175.5-->
<!DOCTYPE svg
PUBLIC "-//W3C//DTD SVG 1.1//EN"
       "http://www.w3.org/Graphics/SVG/1.1/DTD/svg11.dtd">
<svg version="1.1" xmlns="http://www.w3.org/2000/svg" xmlns:xlink="http://www.w3.org/1999/xlink" width="22.583" height="30.0903">
 <g>
  <rect height="30.0903" opacity="0" width="22.583" x="0" y="0"/>
  <path d="M12.9761 27.8442C13.2935 27.8442 13.5254 27.6123 13.5864 27.2827C14.4531 20.6055 15.3931 19.5801 22.0093 18.8477C22.3511 18.811 22.583 18.5669 22.583 18.2373C22.583 17.9199 22.3511 17.6758 22.0093 17.6392C15.3931 16.9067 14.4531 15.8813 13.5864 9.19189C13.5254 8.8623 13.2935 8.64258 12.9761 8.64258C12.6587 8.64258 12.4268 8.8623 12.3779 9.19189C11.5112 15.8813 10.5591 16.9067 3.95508 17.6392C3.60107 17.6758 3.36914 17.9199 3.36914 18.2373C3.36914 18.5669 3.60107 18.811 3.95508 18.8477C10.5469 19.7144 11.4624 20.6055 12.3779 27.2827C12.4268 27.6123 12.6587 27.8442 12.9761 27.8442ZM4.69971 14.3433C4.93164 14.3433 5.09033 14.1846 5.11475 13.9648C5.5542 10.7056 5.66406 10.7056 9.0332 10.0586C9.24072 10.022 9.39941 9.87549 9.39941 9.64355C9.39941 9.42383 9.24072 9.26514 9.0332 9.24072C5.66406 8.76465 5.54199 8.65479 5.11475 5.34668C5.09033 5.11475 4.93164 4.95605 4.69971 4.95605C4.47998 4.95605 4.32129 5.11475 4.28467 5.35889C3.89404 8.61816 3.71094 8.60596 0.366211 9.24072C0.158691 9.27734 0 9.42383 0 9.64355C0 9.8877 0.158691 10.022 0.415039 10.0586C3.73535 10.5957 3.89404 10.6812 4.28467 13.9404C4.32129 14.1846 4.47998 14.3433 4.69971 14.3433ZM10.6079 5.94482C10.7666 5.94482 10.8521 5.84717 10.8765 5.70068C11.2427 3.72314 11.2061 3.62549 13.3301 3.24707C13.4766 3.21045 13.5742 3.125 13.5742 2.96631C13.5742 2.81982 13.4766 2.72217 13.3301 2.69775C11.2061 2.31934 11.2427 2.22168 10.8765 0.244141C10.8521 0.0976562 10.7666 0 10.6079 0C10.4492 0 10.3638 0.0976562 10.3394 0.244141C9.97314 2.22168 10.0098 2.31934 7.88574 2.69775C7.72705 2.72217 7.6416 2.81982 7.6416 2.96631C7.6416 3.125 7.72705 3.21045 7.88574 3.24707C10.0098 3.62549 9.97314 3.72314 10.3394 5.70068C10.3638 5.84717 10.4492 5.94482 10.6079 5.94482Z" fill="#5ac8f5"/>
 </g>
</svg>
