<?xml version="1.0" encoding="UTF-8"?>
<!--Generator: Apple Native CoreSVG 175.5-->
<!DOCTYPE svg
PUBLIC "-//W3C//DTD SVG 1.1//EN"
       "http://www.w3.org/Graphics/SVG/1.1/DTD/svg11.dtd">
<svg version="1.1" xmlns="http://www.w3.org/2000/svg" xmlns:xlink="http://www.w3.org/1999/xlink" width="31.1646" height="24.1821">
 <g>
  <rect height="24.1821" opacity="0" width="31.1646" x="0" y="0"/>
  <path d="M0 18.2251C0 21.6309 3.05176 24.1821 6.78711 24.1821C10.5103 24.1821 13.5498 21.6309 13.5498 18.2251L13.5498 4.73633C13.5498 2.50244 12.0239 1.01318 9.68018 1.01318C7.84912 1.01318 6.38428 1.94092 5.70068 3.52783L0.622559 15.3442C0.12207 16.5039 0 17.334 0 18.2251ZM3.6377 13.0005L7.36084 4.3457C7.77588 3.36914 8.60596 2.79541 9.60693 2.79541C10.9009 2.79541 11.731 3.6499 11.731 4.93164L11.731 14.209C10.5103 13.0005 8.70361 12.2681 6.78711 12.2681C5.70068 12.2681 4.58984 12.5366 3.6377 13.0005ZM1.9165 18.2251C1.9165 15.7715 4.02832 14.0991 6.78711 14.0991C9.53369 14.0991 11.7188 15.7715 11.7188 18.2251C11.7188 20.6787 9.53369 22.3511 6.78711 22.3511C4.02832 22.3511 1.9165 20.6787 1.9165 18.2251ZM31.1646 18.2251C31.1646 17.334 31.0303 16.5039 30.5298 15.3442L25.4639 3.52783C24.7681 1.94092 23.3154 1.01318 21.4844 1.01318C19.1406 1.01318 17.6147 2.50244 17.6147 4.73633L17.6147 18.2251C17.6147 21.6309 20.6543 24.1821 24.3774 24.1821C28.1006 24.1821 31.1646 21.6309 31.1646 18.2251ZM27.5269 13.0005C26.5747 12.5366 25.4639 12.2681 24.3774 12.2681C22.4609 12.2681 20.6421 13.0005 19.4214 14.209L19.4214 4.93164C19.4214 3.6499 20.2637 2.79541 21.5576 2.79541C22.5464 2.79541 23.3765 3.36914 23.7915 4.3457ZM29.2358 18.2251C29.2358 20.6787 27.124 22.3511 24.3774 22.3511C21.6187 22.3511 19.4458 20.6787 19.4458 18.2251C19.4458 15.7715 21.6187 14.0991 24.3774 14.0991C27.124 14.0991 29.2358 15.7715 29.2358 18.2251ZM12.7319 15.4785C13.4399 15.0269 14.4897 14.7339 15.5884 14.7339C16.9434 14.7339 17.8223 14.9414 18.5181 15.4541L18.5181 13.6353C17.7124 13.2935 16.748 13.1348 15.5884 13.1348C14.5752 13.1348 13.5864 13.3423 12.7319 13.6963ZM12.7319 11.7554C13.4399 11.2915 14.4897 11.0107 15.5884 11.0107C16.9434 11.0107 17.8223 11.2061 18.5181 11.731L18.5181 9.91211C17.7124 9.57031 16.748 9.41162 15.5884 9.41162C14.5752 9.41162 13.5864 9.61914 12.7319 9.97314ZM12.7319 8.02002C13.4399 7.56836 14.4897 7.27539 15.5884 7.27539C16.9434 7.27539 17.8223 7.48291 18.5181 7.99561L18.5181 6.18896C17.7124 5.84717 16.748 5.67627 15.5884 5.67627C14.5752 5.67627 13.5864 5.896 12.7319 6.25Z" fill="#5ac8f5"/>
 </g>
</svg>
