<?xml version="1.0" encoding="UTF-8"?>
<!--Generator: Apple Native CoreSVG 175.5-->
<!DOCTYPE svg
PUBLIC "-//W3C//DTD SVG 1.1//EN"
       "http://www.w3.org/Graphics/SVG/1.1/DTD/svg11.dtd">
<svg version="1.1" xmlns="http://www.w3.org/2000/svg" xmlns:xlink="http://www.w3.org/1999/xlink" width="24.6394" height="28.9329">
 <g>
  <rect height="28.9329" opacity="0" width="24.6394" x="0" y="0"/>
  <path d="M0.08216 9.8949C-0.161981 10.5907 0.167609 11.1644 0.680304 11.3475C1.07093 11.494 1.44935 11.3109 1.76673 11.0546C2.87757 10.2367 3.93958 9.87048 5.20911 10.3343C6.47864 10.786 6.99134 11.726 7.21107 13.0321C7.2721 13.4593 7.41859 13.8011 7.7848 13.9354C8.17542 14.0819 8.50501 13.911 8.8346 13.6302C9.56702 13.0077 10.5558 12.6903 11.4957 12.7391L6.08802 27.5585C5.89271 28.0834 6.17347 28.6815 6.71058 28.8768C7.22327 29.0599 7.83362 28.7792 8.02894 28.2543L13.4244 13.4349C14.1691 14.0087 14.7062 14.8876 14.8649 15.8397C14.9503 16.2426 15.0846 16.5966 15.463 16.7308C15.8414 16.8651 16.171 16.682 16.5006 16.4135C17.5138 15.559 18.4904 15.1683 19.7599 15.62C21.0294 16.0961 21.6154 17.0482 21.9327 18.4154C22.0304 18.806 22.1891 19.1844 22.5797 19.3187C23.0924 19.5018 23.7394 19.2821 23.9713 18.5863C25.6315 14.0331 24.4962 6.44031 17.1476 3.19324L17.7824 1.47204C17.9899 0.861693 17.7579 0.312377 17.172 0.0926502C16.6105-0.114869 16.0612 0.165892 15.8414 0.764037L15.2189 2.49744C7.50403 0.251342 1.74232 5.31726 0.08216 9.8949ZM2.93861 8.47888C5.0138 5.29285 8.92005 3.27869 13.2902 4.02331C11.3248 5.31726 9.43275 7.58777 8.19984 10.5175C7.71155 9.57751 6.9181 8.93054 5.86829 8.56433C4.87952 8.21033 3.91517 8.1737 2.93861 8.47888ZM9.67689 11.1278C11.0685 7.8197 13.4122 5.43933 15.5363 4.58484C16.6349 6.6112 16.9034 9.93152 15.8414 13.3861C15.2555 12.3729 14.2667 11.5551 13.1559 11.14C12.0451 10.7372 10.7633 10.7372 9.67689 11.1278ZM17.3551 13.85C18.3073 10.8104 18.3195 7.86853 17.6481 5.61023C21.4567 7.85632 23.1534 11.9091 22.6896 15.6688C22.1403 14.8143 21.3712 14.2162 20.4069 13.85C19.3571 13.4716 18.3317 13.4471 17.3551 13.85Z" fill="#5ac8f5"/>
 </g>
</svg>
