<?xml version="1.0" encoding="UTF-8"?>
<!--Generator: Apple Native CoreSVG 175.5-->
<!DOCTYPE svg
PUBLIC "-//W3C//DTD SVG 1.1//EN"
       "http://www.w3.org/Graphics/SVG/1.1/DTD/svg11.dtd">
<svg version="1.1" xmlns="http://www.w3.org/2000/svg" xmlns:xlink="http://www.w3.org/1999/xlink" width="33.6914" height="26.77">
 <g>
  <rect height="26.77" opacity="0" width="33.6914" x="0" y="0"/>
  <path d="M8.80127 19.2627L10.4614 19.2627C10.9741 19.2627 11.3037 18.9697 11.4258 18.5059L11.9141 16.4917C12.2559 16.3696 12.5854 16.2476 12.8784 16.0767L14.6484 17.1753C15.0513 17.4194 15.5273 17.3828 15.8691 17.041L17.041 15.8569C17.3706 15.5151 17.4316 15.0269 17.1753 14.6118L16.0889 12.8784C16.2354 12.5732 16.3818 12.2559 16.4795 11.9263L18.4937 11.438C18.9819 11.3281 19.2627 10.9863 19.2627 10.4858L19.2627 8.83789C19.2627 8.34961 18.9819 7.99561 18.4937 7.88574L16.5039 7.38525C16.3818 7.01904 16.2354 6.70166 16.1133 6.43311L17.1753 4.66309C17.4194 4.23584 17.4194 3.78418 17.0654 3.44238L15.8691 2.27051C15.5273 1.95312 15.0757 1.86768 14.6729 2.11182L12.8784 3.22266C12.5977 3.06396 12.2681 2.92969 11.9141 2.81982L11.4258 0.769043C11.3037 0.305176 10.9741 0.012207 10.4614 0.012207L8.80127 0.012207C8.28857 0.012207 7.94678 0.305176 7.83691 0.769043L7.34863 2.79541C7.00684 2.91748 6.66504 3.03955 6.37207 3.21045L4.58984 2.11182C4.18701 1.86768 3.73535 1.94092 3.39355 2.27051L2.19727 3.44238C1.84326 3.78418 1.84326 4.23584 2.0874 4.66309L3.14941 6.43311C3.02734 6.70166 2.88086 7.01904 2.75879 7.38525L0.756836 7.88574C0.280762 7.99561 0 8.34961 0 8.83789L0 10.4858C0 10.9863 0.280762 11.3281 0.756836 11.438L2.7832 11.9263C2.88086 12.2559 3.02734 12.5732 3.17383 12.8784L2.0874 14.6118C1.83105 15.0269 1.89209 15.5151 2.22168 15.8569L3.39355 17.041C3.73535 17.3828 4.21143 17.4194 4.61426 17.1753L6.38428 16.0767C6.67725 16.2476 7.00684 16.3696 7.34863 16.4917L7.83691 18.5059C7.94678 18.9697 8.28857 19.2627 8.80127 19.2627ZM9.63135 12.7075C7.94678 12.7075 6.55518 11.3159 6.55518 9.61914C6.55518 7.94678 7.94678 6.56738 9.63135 6.56738C11.3159 6.56738 12.7075 7.94678 12.7075 9.61914C12.7075 11.3159 11.3159 12.7075 9.63135 12.7075ZM24.7314 26.77L26.123 26.77C26.5747 26.77 26.8799 26.5137 26.9653 26.123L27.3682 24.3774C27.6855 24.2554 27.9663 24.1577 28.2227 24.0112L29.7485 24.9634C30.0903 25.1831 30.4932 25.1587 30.7983 24.8535L31.7749 23.8647C32.0801 23.5596 32.1289 23.1323 31.897 22.7905L30.957 21.2769C31.0913 21.0205 31.2012 20.7397 31.2988 20.459L33.0566 20.0439C33.4595 19.9585 33.6914 19.6533 33.6914 19.2139L33.6914 17.8345C33.6914 17.395 33.4595 17.0898 33.0566 16.9922L31.311 16.5771C31.2012 16.2598 31.0913 15.979 30.9692 15.7471L31.897 14.209C32.1289 13.8428 32.1167 13.4644 31.7993 13.1592L30.7983 12.1826C30.4932 11.9019 30.1025 11.8286 29.7607 12.0361L28.2227 13.0005C27.9785 12.8784 27.6855 12.7441 27.3682 12.6587L26.9653 10.8765C26.8799 10.4858 26.5747 10.2173 26.123 10.2173L24.7314 10.2173C24.292 10.2173 23.9868 10.4858 23.8892 10.8765L23.4741 12.6343C23.1812 12.7441 22.876 12.8418 22.6196 12.9883L21.0815 12.0361C20.752 11.8408 20.3613 11.8896 20.0562 12.1826L19.0674 13.1592C18.75 13.4644 18.7378 13.8428 18.9575 14.209L19.873 15.7471C19.7632 15.979 19.6533 16.2598 19.5435 16.5771L17.8101 16.9922C17.395 17.0898 17.1509 17.395 17.1509 17.8345L17.1509 19.2139C17.1509 19.6533 17.395 19.9585 17.8101 20.0439L19.5679 20.459C19.6533 20.7397 19.7632 21.0205 19.8975 21.2769L18.9575 22.7905C18.7256 23.1323 18.7866 23.5596 19.0796 23.8647L20.0562 24.8535C20.3613 25.1587 20.7642 25.1831 21.106 24.9634L22.6318 24.0112C22.8882 24.1577 23.1812 24.2554 23.4741 24.3774L23.8892 26.123C23.9868 26.5137 24.292 26.77 24.7314 26.77ZM25.4272 20.9351C24.0845 20.9351 22.9858 19.8364 22.9858 18.4814C22.9858 17.1509 24.0845 16.0522 25.4272 16.0522C26.77 16.0522 27.8687 17.1509 27.8687 18.4814C27.8687 19.8364 26.77 20.9351 25.4272 20.9351Z" fill="#5ac8f5"/>
 </g>
</svg>
