<?xml version="1.0" encoding="UTF-8"?>
<!--Generator: Apple Native CoreSVG 175.5-->
<!DOCTYPE svg
PUBLIC "-//W3C//DTD SVG 1.1//EN"
       "http://www.w3.org/Graphics/SVG/1.1/DTD/svg11.dtd">
<svg version="1.1" xmlns="http://www.w3.org/2000/svg" xmlns:xlink="http://www.w3.org/1999/xlink" width="20.3491" height="27.356">
 <g>
  <rect height="27.356" opacity="0" width="20.3491" x="0" y="0"/>
  <path d="M1.06201 24.4385L17.7002 24.4385C18.2983 24.4385 18.7012 24.0601 18.7012 23.4619C18.7012 22.8882 18.2983 22.4854 17.7002 22.4854L11.9873 22.4854C6.5918 22.4854 2.34375 18.3716 2.33154 12.9883C2.33154 7.6416 6.04248 4.87061 10.2783 4.87061C14.4409 4.87061 18.0298 7.77588 18.1519 12.1338C18.1763 12.8418 18.5547 13.3545 19.2749 13.3545C19.9707 13.3545 20.3491 12.8296 20.3491 12.146C20.3125 6.67725 15.6982 2.75879 10.2783 2.75879C4.74854 2.75879 0 6.604 0 12.6343C0 17.2363 2.49023 20.9229 5.85938 22.4365L5.85938 22.4854L1.06201 22.4854C0.463867 22.4854 0.0610352 22.8882 0.0610352 23.4619C0.0610352 24.0601 0.463867 24.4385 1.06201 24.4385ZM12.8052 13.0493C13.269 13.0493 13.6108 12.7319 13.6108 12.2437L13.6108 0.805664C13.6108 0.32959 13.269 0 12.8052 0C12.3535 0 12.0117 0.32959 12.0117 0.805664L12.0117 12.2437C12.0117 12.7197 12.3535 13.0493 12.8052 13.0493ZM7.8125 13.0493C8.27637 13.0493 8.61816 12.7319 8.61816 12.2437L8.61816 0.805664C8.61816 0.32959 8.27637 0 7.8125 0C7.36084 0 7.01904 0.32959 7.01904 0.805664L7.01904 12.2437C7.01904 12.7319 7.36084 13.0493 7.8125 13.0493Z" fill="#5ac8f5"/>
 </g>
</svg>
