<?xml version="1.0" encoding="UTF-8"?>
<!--Generator: Apple Native CoreSVG 175.5-->
<!DOCTYPE svg
PUBLIC "-//W3C//DTD SVG 1.1//EN"
       "http://www.w3.org/Graphics/SVG/1.1/DTD/svg11.dtd">
<svg version="1.1" xmlns="http://www.w3.org/2000/svg" xmlns:xlink="http://www.w3.org/1999/xlink" width="24.9023" height="24.9146">
 <g>
  <rect height="24.9146" opacity="0" width="24.9023" x="0" y="0"/>
  <path d="M12.4512 24.9023C19.2627 24.9023 24.9023 19.2505 24.9023 12.4512C24.9023 5.63965 19.2505 0 12.439 0C5.63965 0 0 5.63965 0 12.4512C0 19.2505 5.65186 24.9023 12.4512 24.9023ZM12.4512 22.8271C6.68945 22.8271 2.0874 18.2129 2.0874 12.4512C2.0874 6.68945 6.67725 2.0752 12.439 2.0752C18.2007 2.0752 22.8271 6.68945 22.8271 12.4512C22.8271 18.2129 18.2129 22.8271 12.4512 22.8271Z" fill="#5ac8f5" fill-opacity="0.5"/>
  <path d="M12.5366 18.2617C14.9902 18.2617 16.7236 16.8335 16.7236 14.3311C16.7236 12.0117 14.9658 10.7178 13.0371 10.7178C11.3892 10.7178 10.4492 11.5479 10.0586 12.4268C10.022 12.4268 9.98535 12.4268 9.96094 12.4268C9.96094 12.3779 9.96094 12.3413 9.96094 12.3047C9.96094 9.80225 11.0962 8.19092 12.7686 8.19092C13.623 8.19092 14.0991 8.56934 14.4531 8.99658C14.8438 9.38721 15.0757 9.59473 15.5029 9.59473C15.9058 9.59473 16.2354 9.30176 16.2354 8.87451C16.2354 8.6792 16.1987 8.5083 16.1255 8.3374C15.7349 7.43408 14.4165 6.64062 12.8296 6.64062C9.96094 6.64062 8.1665 8.65479 8.1665 12.7197C8.1665 14.4043 8.47168 15.625 8.97217 16.4429C9.76562 17.7368 11.0962 18.2617 12.5366 18.2617ZM12.4512 16.7969C11.084 16.7969 10.1074 15.7959 10.1074 14.4043C10.1074 13.0615 11.084 12.1094 12.4634 12.1094C13.855 12.1094 14.8071 13.0493 14.8071 14.4165C14.8071 15.8569 13.8916 16.7969 12.4512 16.7969Z" fill="#5ac8f5"/>
 </g>
</svg>
