<?xml version="1.0" encoding="UTF-8"?>
<!--Generator: Apple Native CoreSVG 175.5-->
<!DOCTYPE svg
PUBLIC "-//W3C//DTD SVG 1.1//EN"
       "http://www.w3.org/Graphics/SVG/1.1/DTD/svg11.dtd">
<svg version="1.1" xmlns="http://www.w3.org/2000/svg" xmlns:xlink="http://www.w3.org/1999/xlink" width="22.4731" height="22.4976">
 <g>
  <rect height="22.4976" opacity="0" width="22.4731" x="0" y="0"/>
  <path d="M6.06689 13.623L6.06689 6.82373C6.06689 6.38428 6.43311 6.00586 6.89697 6.00586C7.32422 6.00586 7.70264 6.38428 7.70264 6.82373L7.70264 11.0962C7.88574 10.9863 8.06885 10.8643 8.30078 10.7666L8.30078 4.52881C8.30078 4.08936 8.66699 3.73535 9.10645 3.73535C9.5459 3.73535 9.92432 4.08936 9.92432 4.52881L9.92432 10.2417C10.1318 10.2051 10.3394 10.1807 10.5591 10.1562L10.5591 3.90625C10.5591 3.479 10.9131 3.10059 11.3647 3.10059C11.8164 3.10059 12.1704 3.479 12.1704 3.90625L12.1704 10.2295C12.3779 10.2905 12.5854 10.3638 12.7808 10.4126L12.7808 4.96826C12.7808 4.52881 13.1348 4.1626 13.5864 4.1626C14.0137 4.1626 14.3799 4.52881 14.3799 4.96826L14.3799 12.6343C14.3799 12.854 14.4653 12.9517 14.624 12.9517C14.7339 12.9517 14.8438 12.8784 14.9292 12.6465L15.9546 10.498C16.2964 9.80225 16.5649 9.50928 17.0532 9.50928C17.4805 9.50928 17.7856 9.79004 17.7856 10.1929C17.7856 10.5347 17.5049 11.3037 17.3096 11.9263C16.8579 13.4277 16.4307 14.7217 15.8691 15.8081C14.856 17.8833 13.3301 18.7744 11.1084 18.7744C8.14209 18.7744 6.06689 16.8091 6.06689 13.623ZM3.83301 22.4976L18.6401 22.4976C21.2036 22.4976 22.4731 21.228 22.4731 18.7134L22.4731 3.80859C22.4731 1.29395 21.2036 0.0244141 18.6401 0.0244141L3.83301 0.0244141C1.28174 0.0244141 0 1.28174 0 3.80859L0 18.7134C0 21.2402 1.28174 22.4976 3.83301 22.4976Z" fill="#5ac8f5"/>
 </g>
</svg>
