<?xml version="1.0" encoding="UTF-8"?>
<!--Generator: Apple Native CoreSVG 175.5-->
<!DOCTYPE svg
PUBLIC "-//W3C//DTD SVG 1.1//EN"
       "http://www.w3.org/Graphics/SVG/1.1/DTD/svg11.dtd">
<svg version="1.1" xmlns="http://www.w3.org/2000/svg" xmlns:xlink="http://www.w3.org/1999/xlink" width="30.9937" height="37.262">
 <g>
  <rect height="37.262" opacity="0" width="30.9937" x="0" y="0"/>
  <path d="M15.4907 34.1156C24.0479 34.1156 30.9937 27.182 30.9937 18.6249C30.9937 11.8134 26.5869 6.01501 20.459 3.95203C20.5566 4.64783 20.3735 5.34363 19.9463 5.85632C25.2319 7.69958 29.0283 12.7167 29.0283 18.6249C29.0283 26.0956 22.9614 32.1503 15.4907 32.1503C8.02002 32.1503 1.96533 26.0956 1.96533 18.6249C1.96533 12.7045 5.77393 7.68738 11.0596 5.85632C10.6445 5.33142 10.4492 4.63562 10.5469 3.93982C4.41895 5.9906 0 11.8011 0 18.6249C0 27.182 6.93359 34.1156 15.4907 34.1156Z" fill="#5ac8f5" fill-opacity="0.5"/>
  <path d="M15.4907 29.3427C21.4233 29.3427 26.2207 24.5453 26.2207 18.6249C26.2207 12.7045 21.4233 7.8949 15.4907 7.8949C9.57031 7.8949 4.77295 12.7045 4.77295 18.6249C4.77295 24.5453 9.57031 29.3427 15.4907 29.3427ZM15.4907 27.3773C10.6567 27.3773 6.73828 23.4589 6.73828 18.6249C6.73828 13.7909 10.6567 9.86023 15.4907 9.86023C20.3369 9.86023 24.2554 13.7909 24.2554 18.6249C24.2554 23.4589 20.3369 27.3773 15.4907 27.3773ZM12.4268 3.61023C11.9263 4.28162 12.2192 5.09949 13.0615 5.09949L17.9443 5.09949C18.8232 5.09949 19.0796 4.2572 18.5913 3.61023L16.1499 0.338745C15.8081-0.112915 15.1855-0.112915 14.856 0.338745ZM12.5244 23.9349C13.1348 23.9349 13.4644 23.5443 13.4644 22.9095L13.4644 20.0165L15.625 20.0165L17.6392 23.3246C17.9077 23.7762 18.1519 23.9349 18.5547 23.9349C19.0552 23.9349 19.397 23.6176 19.397 23.1537C19.397 22.8973 19.3359 22.702 19.1895 22.4823L17.4438 19.7479C18.811 19.2963 19.6899 18.0878 19.6899 16.6473C19.6899 14.5599 18.2007 13.2294 15.8447 13.2294L12.5244 13.2294C11.9263 13.2294 11.6089 13.6566 11.6089 14.2792L11.6089 22.9095C11.6089 23.5199 11.9263 23.9349 12.5244 23.9349ZM13.4644 18.6615L13.4644 14.6454L15.625 14.6454C16.9556 14.6454 17.8589 15.39 17.8589 16.6962C17.8589 17.9535 16.98 18.6615 15.5762 18.6615Z" fill="#5ac8f5"/>
 </g>
</svg>
