<?xml version="1.0" encoding="UTF-8"?>
<!--Generator: Apple Native CoreSVG 175.5-->
<!DOCTYPE svg
PUBLIC "-//W3C//DTD SVG 1.1//EN"
       "http://www.w3.org/Graphics/SVG/1.1/DTD/svg11.dtd">
<svg version="1.1" xmlns="http://www.w3.org/2000/svg" xmlns:xlink="http://www.w3.org/1999/xlink" width="24.9023" height="24.9146">
 <g>
  <rect height="24.9146" opacity="0" width="24.9023" x="0" y="0"/>
  <path d="M12.4512 24.9023C19.2627 24.9023 24.9023 19.2505 24.9023 12.4512C24.9023 5.63965 19.2505 0 12.439 0C5.63965 0 0 5.63965 0 12.4512C0 19.2505 5.65186 24.9023 12.4512 24.9023ZM12.4512 22.8271C6.68945 22.8271 2.0874 18.2129 2.0874 12.4512C2.0874 6.68945 6.67725 2.0752 12.439 2.0752C18.2007 2.0752 22.8271 6.68945 22.8271 12.4512C22.8271 18.2129 18.2129 22.8271 12.4512 22.8271ZM9.81445 18.042C10.4614 18.042 10.8032 17.6147 10.8032 16.9434L10.8032 14.27L13.208 14.27C15.5884 14.27 17.1875 12.7808 17.1875 10.5347C17.1875 8.28857 15.5762 6.7749 13.2202 6.7749L9.80225 6.7749C9.17969 6.7749 8.8501 7.21436 8.8501 7.87354L8.8501 16.9434C8.8501 17.5903 9.19189 18.042 9.81445 18.042ZM10.8032 12.7808L10.8032 8.26416L12.9395 8.26416C14.3677 8.26416 15.2588 9.13086 15.2588 10.5347C15.2588 11.9141 14.3799 12.7808 12.9395 12.7808Z" fill="#5ac8f5"/>
 </g>
</svg>
