<?xml version="1.0" encoding="UTF-8"?>
<!--Generator: Apple Native CoreSVG 175.5-->
<!DOCTYPE svg
PUBLIC "-//W3C//DTD SVG 1.1//EN"
       "http://www.w3.org/Graphics/SVG/1.1/DTD/svg11.dtd">
<svg version="1.1" xmlns="http://www.w3.org/2000/svg" xmlns:xlink="http://www.w3.org/1999/xlink" width="32.7637" height="23.5935">
 <g>
  <rect height="23.5935" opacity="0" width="32.7637" x="0" y="0"/>
  <path d="M2.47803 16.7589L5.98145 16.7589C6.09131 16.7589 6.18896 16.7955 6.27441 16.8687L11.7798 21.8004C12.3657 22.3253 12.8174 22.5694 13.4033 22.5694C14.1846 22.5694 14.7827 21.9957 14.7827 21.2022L14.7827 2.47666C14.7827 1.6832 14.1846 1.03623 13.3789 1.03623C12.793 1.03623 12.4146 1.30478 11.7798 1.87851L6.27441 6.76133C6.18896 6.83457 6.09131 6.87119 5.98145 6.87119L2.47803 6.87119C0.817871 6.87119 0 7.71347 0 9.48349L0 14.1588C0 15.9288 0.830078 16.7589 2.47803 16.7589ZM2.56348 14.9767C2.11182 14.9767 1.9043 14.7691 1.9043 14.3175L1.9043 9.3248C1.9043 8.86094 2.11182 8.65342 2.56348 8.65342L6.46973 8.65342C6.78711 8.65342 7.03125 8.59238 7.31201 8.33603L12.5122 3.61191C12.5732 3.55088 12.6343 3.51426 12.7197 3.51426C12.8052 3.51426 12.8784 3.57529 12.8784 3.68515L12.8784 19.9083C12.8784 20.0182 12.8052 20.0914 12.7197 20.0914C12.6587 20.0914 12.5854 20.0548 12.5122 19.9937L7.31201 15.294C7.03125 15.0499 6.78711 14.9767 6.46973 14.9767Z" fill="#5ac8f5"/>
  <path d="M18.9087 16.9908C19.3115 17.2716 19.8853 17.1861 20.2148 16.7101C21.1548 15.4771 21.7163 13.6583 21.7163 11.7906C21.7163 9.92295 21.1548 8.11631 20.2148 6.87119C19.8853 6.39511 19.3115 6.29746 18.9087 6.59043C18.4082 6.93222 18.335 7.54258 18.7134 8.04306C19.4214 9.01963 19.8242 10.3746 19.8242 11.7906C19.8242 13.2066 19.4092 14.5494 18.7134 15.5382C18.3472 16.0509 18.4082 16.6368 18.9087 16.9908Z" fill="#5ac8f5" fill-opacity="0.5"/>
  <path d="M23.4253 20.1769C23.877 20.482 24.4385 20.3722 24.7681 19.9083C26.3306 17.7599 27.2461 14.8058 27.2461 11.7906C27.2461 8.77549 26.3428 5.79697 24.7681 3.67295C24.4385 3.20908 23.877 3.09922 23.4253 3.40439C22.9736 3.70957 22.9004 4.2833 23.2544 4.78379C24.585 6.66367 25.354 9.19052 25.354 11.7906C25.354 14.3907 24.5605 16.8932 23.2544 18.7975C22.9126 19.2979 22.9736 19.8717 23.4253 20.1769Z" fill="#5ac8f5" fill-opacity="0.5"/>
  <path d="M28.0029 23.4117C28.418 23.7169 29.0161 23.5948 29.3457 23.1065C31.4819 20.0182 32.7637 16.0997 32.7637 11.7906C32.7637 7.46933 31.4453 3.57529 29.3457 0.474705C29.0161-0.0257837 28.418-0.135647 28.0029 0.169529C27.5391 0.486912 27.478 1.06064 27.8076 1.56113C29.6997 4.35654 30.896 7.87217 30.896 11.7906C30.896 15.6969 29.6997 19.2369 27.8076 22.0201C27.478 22.5206 27.5391 23.0943 28.0029 23.4117Z" fill="#5ac8f5" fill-opacity="0.5"/>
 </g>
</svg>
