<?xml version="1.0" encoding="UTF-8"?>
<!--Generator: Apple Native CoreSVG 175.5-->
<!DOCTYPE svg
PUBLIC "-//W3C//DTD SVG 1.1//EN"
       "http://www.w3.org/Graphics/SVG/1.1/DTD/svg11.dtd">
<svg version="1.1" xmlns="http://www.w3.org/2000/svg" xmlns:xlink="http://www.w3.org/1999/xlink" width="24.9023" height="24.9146">
 <g>
  <rect height="24.9146" opacity="0" width="24.9023" x="0" y="0"/>
  <path d="M12.4512 24.9023C19.2627 24.9023 24.9023 19.2505 24.9023 12.4512C24.9023 5.63965 19.2505 0 12.439 0C5.63965 0 0 5.63965 0 12.4512C0 19.2505 5.65186 24.9023 12.4512 24.9023Z" fill="#5ac8f5" fill-opacity="0.25"/>
  <path d="M5.79834 17.5903C5.34668 17.5903 5.05371 17.2974 5.05371 16.8457C5.05371 16.5894 5.13916 16.3696 5.33447 16.1621L8.65479 12.2559C9.25293 11.5601 9.91211 10.8521 9.91211 10.0342C9.91211 9.10645 9.25293 8.48389 8.23975 8.48389C7.33643 8.48389 6.71387 8.93555 6.38428 9.8877C6.21338 10.2661 6.03027 10.4736 5.66406 10.4736C5.23682 10.4736 4.96826 10.1685 4.96826 9.7168C4.96826 9.57031 4.99268 9.42383 5.01709 9.26514C5.34668 7.9834 6.67725 7.01904 8.17871 7.01904C10.1562 7.01904 11.438 8.14209 11.438 9.8999C11.438 11.1572 10.7422 12.0605 9.81445 13.147L7.34863 16.0034L7.34863 16.1011L10.9985 16.1011C11.4014 16.1011 11.7065 16.3574 11.7065 16.8335C11.7065 17.2852 11.4014 17.5903 10.9985 17.5903ZM16.6626 17.8833C14.4775 17.8833 13.0371 16.6504 13.0371 14.8071C13.0371 13.5254 13.8062 12.4634 15.1733 12.1826L15.1733 12.1094C14.0015 11.7676 13.4033 10.8887 13.4033 9.79004C13.4033 8.1543 14.7583 7.01904 16.687 7.01904C18.6279 7.01904 19.9707 8.1543 19.9707 9.79004C19.9707 10.8887 19.3726 11.792 18.2129 12.1094L18.2129 12.1826C19.5557 12.4634 20.3491 13.5132 20.3491 14.7949C20.3491 16.626 18.8599 17.8833 16.6626 17.8833ZM16.6992 16.5649C17.8955 16.5649 18.7622 15.7959 18.7622 14.6973C18.7622 13.5986 17.9199 12.8174 16.6992 12.8174C15.5029 12.8174 14.6484 13.6108 14.6484 14.6973C14.6484 15.7959 15.5029 16.5649 16.6992 16.5649ZM16.687 11.6089C17.6636 11.6089 18.3716 10.9009 18.3716 9.94873C18.3716 8.99658 17.6758 8.3374 16.687 8.3374C15.7104 8.3374 15.0146 8.99658 15.0146 9.94873C15.0146 10.9009 15.7104 11.6089 16.687 11.6089Z" fill="#5ac8f5"/>
 </g>
</svg>
