<?xml version="1.0" encoding="UTF-8"?>
<!--Generator: Apple Native CoreSVG 175.5-->
<!DOCTYPE svg
PUBLIC "-//W3C//DTD SVG 1.1//EN"
       "http://www.w3.org/Graphics/SVG/1.1/DTD/svg11.dtd">
<svg version="1.1" xmlns="http://www.w3.org/2000/svg" xmlns:xlink="http://www.w3.org/1999/xlink" width="24.9023" height="24.9146">
 <g>
  <rect height="24.9146" opacity="0" width="24.9023" x="0" y="0"/>
  <path d="M12.4512 24.9023C19.2627 24.9023 24.9023 19.2505 24.9023 12.4512C24.9023 5.63965 19.2505 0 12.439 0C5.63965 0 0 5.63965 0 12.4512C0 19.2505 5.65186 24.9023 12.4512 24.9023ZM13.7207 16.4795C12.9272 17.3218 12.0117 17.3218 11.2183 16.4795L6.28662 11.2427C5.896 10.8398 5.896 10.2661 6.23779 9.8999C6.62842 9.49707 7.23877 9.49707 7.59277 9.87549L12.4634 15.0391L17.334 9.87549C17.7002 9.49707 18.2983 9.50928 18.7012 9.8999C19.0552 10.2539 19.0308 10.8398 18.6523 11.2427Z" fill="#5ac8f5"/>
 </g>
</svg>
