<?xml version="1.0" encoding="UTF-8"?>
<!--Generator: Apple Native CoreSVG 175.5-->
<!DOCTYPE svg
PUBLIC "-//W3C//DTD SVG 1.1//EN"
       "http://www.w3.org/Graphics/SVG/1.1/DTD/svg11.dtd">
<svg version="1.1" xmlns="http://www.w3.org/2000/svg" xmlns:xlink="http://www.w3.org/1999/xlink" width="22.4731" height="22.4976">
 <g>
  <rect height="22.4976" opacity="0" width="22.4731" x="0" y="0"/>
  <path d="M3.83301 22.4976L18.6401 22.4976C21.2036 22.4976 22.4731 21.228 22.4731 18.7134L22.4731 3.80859C22.4731 1.29395 21.2036 0.0244141 18.6401 0.0244141L3.83301 0.0244141C1.28174 0.0244141 0 1.28174 0 3.80859L0 18.7134C0 21.2402 1.28174 22.4976 3.83301 22.4976Z" fill="#5ac8f5" fill-opacity="0.25"/>
  <path d="M7.44629 16.5161C6.98242 16.5161 6.66504 16.1987 6.66504 15.7104L6.66504 7.89795L6.604 7.89795L5.26123 8.88672C4.96826 9.11865 4.84619 9.13086 4.63867 9.13086C4.27246 9.13086 3.91846 8.80127 3.91846 8.37402C3.91846 8.04443 4.07715 7.8125 4.3335 7.62939L6.25 6.32324C6.70166 6.01807 6.9458 5.896 7.36084 5.896C7.88574 5.896 8.23975 6.27441 8.23975 6.79932L8.23975 15.7104C8.23975 16.1987 7.93457 16.5161 7.44629 16.5161ZM14.3433 16.6748C12.6099 16.6748 11.5723 15.686 11.377 14.9902C11.3281 14.8438 11.2915 14.6729 11.2915 14.5386C11.2915 14.0991 11.5601 13.7939 11.9507 13.7939C12.2803 13.7939 12.5244 13.9282 12.7319 14.2822C13.0249 14.8438 13.6108 15.21 14.3188 15.21C15.7715 15.21 16.7358 13.7329 16.7114 11.2305L16.626 11.2305C16.3086 12.085 15.4785 12.8296 14.0991 12.8296C12.4634 12.8296 10.9863 11.6211 10.9863 9.46045C10.9863 7.23877 12.3657 5.81055 14.4897 5.81055C16.8457 5.81055 18.2129 7.59277 18.2129 10.8887C18.2129 14.6851 16.8579 16.6748 14.3433 16.6748ZM14.5752 11.5234C15.7593 11.5234 16.5649 10.6323 16.5649 9.39941C16.5649 8.10547 15.7349 7.18994 14.5874 7.18994C13.3667 7.18994 12.5854 8.05664 12.5854 9.375C12.5854 10.6323 13.3911 11.5234 14.5752 11.5234Z" fill="#5ac8f5"/>
 </g>
</svg>
