<?xml version="1.0" encoding="UTF-8"?>
<!--Generator: Apple Native CoreSVG 175.5-->
<!DOCTYPE svg
PUBLIC "-//W3C//DTD SVG 1.1//EN"
       "http://www.w3.org/Graphics/SVG/1.1/DTD/svg11.dtd">
<svg version="1.1" xmlns="http://www.w3.org/2000/svg" xmlns:xlink="http://www.w3.org/1999/xlink" width="24.353" height="25.6958">
 <g>
  <rect height="25.6958" opacity="0" width="24.353" x="0" y="0"/>
  <path d="M12.1704 25.6836C19.4946 25.6836 24.353 23.1812 24.353 19.2993L24.353 6.84814C24.353 2.68555 19.4824 0 12.1704 0C4.87061 0 0 2.68555 0 6.84814L0 19.2993C0 23.1812 4.8584 25.6836 12.1704 25.6836ZM1.96533 19.2993C1.96533 16.7358 6.09131 14.8804 12.1704 14.8804C18.2495 14.8804 22.3877 16.7358 22.3877 19.2993C22.3877 21.8628 18.2495 23.7183 12.1704 23.7183C6.09131 23.7183 1.96533 21.8628 1.96533 19.2993ZM7.09229 16.6138C7.16553 18.4082 9.39941 19.8853 12.1704 19.8853C14.9414 19.8853 17.1875 18.4082 17.2607 16.6138C15.8325 16.2598 14.0991 16.0522 12.1704 16.0522C10.2539 16.0522 8.5083 16.2598 7.09229 16.6138Z" fill="#5ac8f5"/>
 </g>
</svg>
