<?xml version="1.0" encoding="UTF-8"?>
<!--Generator: Apple Native CoreSVG 175.5-->
<!DOCTYPE svg
PUBLIC "-//W3C//DTD SVG 1.1//EN"
       "http://www.w3.org/Graphics/SVG/1.1/DTD/svg11.dtd">
<svg version="1.1" xmlns="http://www.w3.org/2000/svg" xmlns:xlink="http://www.w3.org/1999/xlink" width="22.4731" height="22.4976">
 <g>
  <rect height="22.4976" opacity="0" width="22.4731" x="0" y="0"/>
  <path d="M3.83301 22.4976L18.6401 22.4976C21.2036 22.4976 22.4731 21.228 22.4731 18.7134L22.4731 3.80859C22.4731 1.29395 21.2036 0.0244141 18.6401 0.0244141L3.83301 0.0244141C1.28174 0.0244141 0 1.28174 0 3.80859L0 18.7134C0 21.2402 1.28174 22.4976 3.83301 22.4976ZM3.85742 20.5322C2.63672 20.5322 1.96533 19.8853 1.96533 18.6157L1.96533 3.90625C1.96533 2.63672 2.63672 1.98975 3.85742 1.98975L18.6157 1.98975C19.8242 1.98975 20.5078 2.63672 20.5078 3.90625L20.5078 18.6157C20.5078 19.8853 19.8242 20.5322 18.6157 20.5322ZM8.55713 16.4795C9.04541 16.4795 9.30176 16.1377 9.30176 15.6616L9.30176 14.2212L9.96094 14.2212C10.3882 14.2212 10.6567 13.9771 10.6567 13.5498C10.6567 13.1104 10.376 12.854 9.96094 12.854L9.30176 12.854L9.30176 7.14111C9.30176 6.43311 8.80127 5.98145 8.09326 5.98145C7.38525 5.98145 6.95801 6.25 6.55518 6.92139C5.54199 8.63037 4.30908 10.73 3.479 12.207C3.28369 12.5854 3.22266 12.854 3.22266 13.1836C3.22266 13.8306 3.6377 14.2212 4.26025 14.2212L7.82471 14.2212L7.82471 15.6616C7.82471 16.1255 8.08105 16.4795 8.55713 16.4795ZM7.82471 12.854L4.80957 12.854L4.80957 12.8052C5.52979 11.4258 6.78711 9.27734 7.75146 7.62939L7.82471 7.62939ZM16.9678 16.4795C17.4561 16.4795 17.7124 16.1377 17.7124 15.6616L17.7124 14.2212L18.3838 14.2212C18.7988 14.2212 19.0674 13.9771 19.0674 13.5498C19.0674 13.1104 18.7988 12.854 18.3838 12.854L17.7124 12.854L17.7124 7.14111C17.7124 6.43311 17.2241 5.98145 16.5039 5.98145C15.8081 5.98145 15.3687 6.25 14.978 6.92139C13.9526 8.63037 12.7197 10.73 11.9019 12.207C11.7065 12.5854 11.6333 12.854 11.6333 13.1836C11.6333 13.8306 12.0605 14.2212 12.6709 14.2212L16.2354 14.2212L16.2354 15.6616C16.2354 16.1255 16.4917 16.4795 16.9678 16.4795ZM16.2354 12.854L13.2202 12.854L13.2202 12.8052C13.9404 11.4258 15.1978 9.27734 16.1743 7.62939L16.2354 7.62939Z" fill="#5ac8f5"/>
 </g>
</svg>
