<?xml version="1.0" encoding="UTF-8"?>
<!--Generator: Apple Native CoreSVG 175.5-->
<!DOCTYPE svg
PUBLIC "-//W3C//DTD SVG 1.1//EN"
       "http://www.w3.org/Graphics/SVG/1.1/DTD/svg11.dtd">
<svg version="1.1" xmlns="http://www.w3.org/2000/svg" xmlns:xlink="http://www.w3.org/1999/xlink" width="24.5972" height="21.0327">
 <g>
  <rect height="21.0327" opacity="0" width="24.5972" x="0" y="0"/>
  <path d="M7.50732 4.12598L23.6084 4.12598C24.1577 4.12598 24.5972 3.69873 24.5972 3.14941C24.5972 2.58789 24.1577 2.16064 23.6084 2.16064L7.50732 2.16064C6.95801 2.16064 6.51855 2.58789 6.51855 3.14941C6.51855 3.69873 6.95801 4.12598 7.50732 4.12598ZM7.50732 11.5112L23.6084 11.5112C24.1577 11.5112 24.5972 11.0718 24.5972 10.5225C24.5972 9.97314 24.1577 9.5459 23.6084 9.5459L7.50732 9.5459C6.95801 9.5459 6.51855 9.97314 6.51855 10.5225C6.51855 11.0718 6.95801 11.5112 7.50732 11.5112ZM7.50732 18.8843L23.6084 18.8843C24.1577 18.8843 24.5972 18.457 24.5972 17.9077C24.5972 17.3462 24.1577 16.9189 23.6084 16.9189L7.50732 16.9189C6.95801 16.9189 6.51855 17.3462 6.51855 17.9077C6.51855 18.457 6.95801 18.8843 7.50732 18.8843ZM2.66113 5.60303C3.125 5.60303 3.45459 5.33447 3.45459 4.78516L3.45459 0.842285C3.45459 0.32959 3.08838 0 2.55127 0C2.12402 0 1.85547 0.146484 1.55029 0.354004L0.683594 0.952148C0.439453 1.12305 0.305176 1.28174 0.305176 1.53809C0.305176 1.85547 0.549316 2.0752 0.830078 2.0752C0.98877 2.0752 1.06201 2.05078 1.26953 1.9043L1.83105 1.52588L1.85547 1.52588L1.85547 4.78516C1.85547 5.33447 2.17285 5.60303 2.66113 5.60303ZM0.695801 12.9639L3.83301 12.9639C4.1626 12.9639 4.41895 12.7319 4.41895 12.3901C4.41895 12.0239 4.1748 11.792 3.83301 11.792L2.0874 11.792L2.0874 11.7554L3.08838 10.9497C3.91846 10.2661 4.24805 9.87549 4.24805 9.15527C4.24805 8.17871 3.43018 7.51953 2.11182 7.51953C0.939941 7.51953 0.0976562 8.12988 0.0976562 8.91113C0.0976562 9.30176 0.354004 9.50928 0.769043 9.50928C1.0498 9.50928 1.23291 9.42383 1.40381 9.14307C1.57471 8.8501 1.79443 8.69141 2.13623 8.69141C2.49023 8.69141 2.74658 8.92334 2.74658 9.26514C2.74658 9.55811 2.6001 9.81445 1.96533 10.3149L0.366211 11.6333C0.12207 11.8286 0.0244141 12.0483 0.0244141 12.3169C0.0244141 12.6953 0.292969 12.9639 0.695801 12.9639ZM2.13623 20.5688C3.58887 20.5688 4.44336 19.9219 4.44336 18.8965C4.44336 18.2251 3.97949 17.7612 3.13721 17.688L3.13721 17.6514C3.74756 17.5415 4.23584 17.1265 4.23584 16.4185C4.23584 15.4907 3.33252 14.978 2.12402 14.978C1.17188 14.978 0.134277 15.4297 0.134277 16.2354C0.134277 16.5771 0.378418 16.8213 0.756836 16.8213C1.02539 16.8213 1.14746 16.7114 1.31836 16.5283C1.59912 16.2231 1.81885 16.1255 2.12402 16.1255C2.50244 16.1255 2.7832 16.3086 2.7832 16.6748C2.7832 17.0166 2.49023 17.1875 1.98975 17.1875L1.85547 17.1875C1.51367 17.1875 1.29395 17.3584 1.29395 17.7124C1.29395 18.042 1.50146 18.2373 1.85547 18.2373L2.01416 18.2373C2.56348 18.2373 2.85645 18.4204 2.85645 18.7988C2.85645 19.1284 2.55127 19.3726 2.13623 19.3726C1.70898 19.3726 1.40381 19.1284 1.17188 18.8965C1.02539 18.7622 0.90332 18.6646 0.671387 18.6646C0.280762 18.6646 0 18.8965 0 19.2749C0 20.1172 1.14746 20.5688 2.13623 20.5688Z" fill="#5ac8f5"/>
 </g>
</svg>
