<?xml version="1.0" encoding="UTF-8"?>
<!--Generator: Apple Native CoreSVG 175.5-->
<!DOCTYPE svg
PUBLIC "-//W3C//DTD SVG 1.1//EN"
       "http://www.w3.org/Graphics/SVG/1.1/DTD/svg11.dtd">
<svg version="1.1" xmlns="http://www.w3.org/2000/svg" xmlns:xlink="http://www.w3.org/1999/xlink" width="28.6865" height="20.8618">
 <g>
  <rect height="20.8618" opacity="0" width="28.6865" x="0" y="0"/>
  <path d="M0 10.2783L9.11865 10.2783C7.48291 9.5459 6.34766 8.19092 6.34766 6.55518C6.34766 4.66309 7.75146 3.25928 9.61914 3.25928C11.2549 3.25928 12.7075 4.27246 13.5498 5.93262L13.5498 0.012207L15.1489 0.012207L15.1489 5.93262C16.0034 4.27246 17.4561 3.25928 19.0796 3.25928C20.9595 3.25928 22.3511 4.66309 22.3511 6.55518C22.3511 8.19092 21.228 9.5459 19.5801 10.2783L28.6865 10.2783L28.6865 11.731L16.4185 11.731C17.1631 13.2812 19.6533 15.625 21.4478 15.8081C22.1313 15.8691 22.5098 16.2842 22.5098 16.9312C22.5098 17.5049 22.0459 18.042 21.3013 17.9443C19.2993 17.6514 16.0889 15.2954 15.2466 12.6343L15.1489 12.6343L15.1489 20.8618L13.5498 20.8618L13.5498 12.6343L13.4644 12.6343C12.6221 15.2954 9.41162 17.6514 7.40967 17.9443C6.66504 18.042 6.20117 17.5049 6.20117 16.9312C6.20117 16.2842 6.57959 15.8813 7.25098 15.8081C9.05762 15.6006 11.5356 13.2812 12.2925 11.731L0 11.731ZM12.9272 10.083L13.3179 10.083L13.3179 9.7168C13.3179 7.26318 11.6455 5.12695 9.7168 5.12695C8.78906 5.12695 8.19092 5.7251 8.19092 6.70166C8.19092 8.3374 10.376 10.083 12.9272 10.083ZM15.7715 10.083C18.335 10.083 20.5078 8.3374 20.5078 6.70166C20.5078 5.7251 19.9219 5.12695 18.9819 5.12695C17.0532 5.12695 15.3809 7.26318 15.3809 9.7168L15.3809 10.083ZM3.83301 20.8618L24.8535 20.8618C27.417 20.8618 28.6865 19.6045 28.6865 17.0898L28.6865 3.79639C28.6865 1.28174 27.417 0.012207 24.8535 0.012207L3.83301 0.012207C1.28174 0.012207 0 1.28174 0 3.79639L0 17.0898C0 19.6045 1.28174 20.8618 3.83301 20.8618Z" fill="#5ac8f5"/>
 </g>
</svg>
