<?xml version="1.0" encoding="UTF-8"?>
<!--Generator: Apple Native CoreSVG 175.5-->
<!DOCTYPE svg
PUBLIC "-//W3C//DTD SVG 1.1//EN"
       "http://www.w3.org/Graphics/SVG/1.1/DTD/svg11.dtd">
<svg version="1.1" xmlns="http://www.w3.org/2000/svg" xmlns:xlink="http://www.w3.org/1999/xlink" width="21.2036" height="22.4731">
 <g>
  <rect height="22.4731" opacity="0" width="21.2036" x="0" y="0"/>
  <path d="M1.11084 14.0869C1.42822 14.0869 1.69678 13.9893 1.9043 13.7695L11.3525 4.10156L9.85107 4.10156L19.2993 13.7695C19.5068 13.9771 19.7754 14.0869 20.0928 14.0869C20.7397 14.0869 21.2036 13.6108 21.2036 12.9761C21.2036 12.6587 21.0815 12.4023 20.874 12.1826L11.4258 2.50244C11.2061 2.28271 10.9253 2.14844 10.6079 2.14844C10.2905 2.14844 10.0098 2.27051 9.77783 2.50244L0.32959 12.1826C0.109863 12.4023 0 12.6587 0 12.9761C0 13.6108 0.476074 14.0869 1.11084 14.0869ZM1.42822 2.18506L19.751 2.18506C20.3857 2.18506 20.8252 1.72119 20.8252 1.08643C20.8252 0.45166 20.3857 0 19.751 0L1.42822 0C0.805664 0 0.378418 0.45166 0.378418 1.08643C0.378418 1.72119 0.805664 2.18506 1.42822 2.18506Z" fill="#5ac8f5"/>
 </g>
</svg>
