<?xml version="1.0" encoding="UTF-8"?>
<!--Generator: Apple Native CoreSVG 175.5-->
<!DOCTYPE svg
PUBLIC "-//W3C//DTD SVG 1.1//EN"
       "http://www.w3.org/Graphics/SVG/1.1/DTD/svg11.dtd">
<svg version="1.1" xmlns="http://www.w3.org/2000/svg" xmlns:xlink="http://www.w3.org/1999/xlink" width="6.06689" height="21.8384">
 <g>
  <rect height="21.8384" opacity="0" width="6.06689" x="0" y="0"/>
  <path d="M2.30713 20.9839L5.57861 12.6587C5.79834 12.0972 6.06689 11.4136 6.06689 10.8765C6.06689 10.3394 5.79834 9.65576 5.57861 9.09424L2.30713 0.769043C2.12402 0.292969 1.70898 0 1.25732 0C0.537109 0 0 0.524902 0 1.23291C0 1.58691 0.20752 2.0752 0.317383 2.39258L3.9917 11.7432L3.9917 10.0098L0.317383 19.3604C0.20752 19.6777 0 20.1538 0 20.52C0 21.2402 0.537109 21.7651 1.25732 21.7651C1.70898 21.7651 2.12402 21.46 2.30713 20.9839Z" fill="#5ac8f5"/>
 </g>
</svg>
