<?xml version="1.0" encoding="UTF-8"?>
<!--Generator: Apple Native CoreSVG 175.5-->
<!DOCTYPE svg
PUBLIC "-//W3C//DTD SVG 1.1//EN"
       "http://www.w3.org/Graphics/SVG/1.1/DTD/svg11.dtd">
<svg version="1.1" xmlns="http://www.w3.org/2000/svg" xmlns:xlink="http://www.w3.org/1999/xlink" width="27.7222" height="22.4976">
 <g>
  <rect height="22.4976" opacity="0" width="27.7222" x="0" y="0"/>
  <path d="M3.83301 22.3389L24.2554 22.3389C26.4404 22.3389 27.7222 21.0693 27.7222 18.5547L27.7222 6.01807C27.7222 3.50342 26.4282 2.23389 23.8892 2.23389L12.1704 2.23389C11.3403 2.23389 10.8398 2.03857 10.2295 1.51367L9.48486 0.90332C8.6792 0.219727 8.05664 0 6.84814 0L3.36914 0C1.23291 0 0 1.2207 0 3.67432L0 18.5547C0 21.0815 1.28174 22.3389 3.83301 22.3389ZM3.85742 20.3735C2.63672 20.3735 1.96533 19.7266 1.96533 18.457L1.96533 3.78418C1.96533 2.57568 2.6001 1.95312 3.77197 1.95312L6.34766 1.95312C7.15332 1.95312 7.6416 2.16064 8.26416 2.68555L9.00879 3.30811C9.80225 3.96729 10.4492 4.19922 11.6577 4.19922L23.8525 4.19922C25.061 4.19922 25.7568 4.8584 25.7568 6.12793L25.7568 18.4692C25.7568 19.7266 25.061 20.3735 23.8525 20.3735ZM1.19629 8.66699L26.5137 8.66699L26.5137 6.82373L1.19629 6.82373Z" fill="#5ac8f5"/>
 </g>
</svg>
