<?xml version="1.0" encoding="UTF-8"?>
<!--Generator: Apple Native CoreSVG 175.5-->
<!DOCTYPE svg
PUBLIC "-//W3C//DTD SVG 1.1//EN"
       "http://www.w3.org/Graphics/SVG/1.1/DTD/svg11.dtd">
<svg version="1.1" xmlns="http://www.w3.org/2000/svg" xmlns:xlink="http://www.w3.org/1999/xlink" width="18.7134" height="25.2808">
 <g>
  <rect height="25.2808" opacity="0" width="18.7134" x="0" y="0"/>
  <path d="M0 3.4668L0 21.8018C0 24.1089 1.14746 25.2686 3.43018 25.2686L15.2954 25.2686C17.5781 25.2686 18.7134 24.1089 18.7134 21.8018L18.7134 3.4668C18.7134 1.15967 17.5781 0 15.2954 0L3.43018 0C1.14746 0 0 1.15967 0 3.4668ZM1.96533 3.49121C1.96533 2.49023 2.49023 1.96533 3.50342 1.96533L15.2222 1.96533C16.2354 1.96533 16.748 2.49023 16.748 3.49121L16.748 21.7773C16.748 22.7661 16.2231 23.3032 15.2222 23.3032L3.50342 23.3032C2.49023 23.3032 1.96533 22.7661 1.96533 21.7773ZM9.36279 21.3379C12.1216 21.3379 14.3433 19.1284 14.3433 16.3574C14.3433 13.5864 12.1216 11.3892 9.36279 11.377C6.604 11.3647 4.38232 13.5864 4.38232 16.3574C4.38232 19.1284 6.604 21.3379 9.36279 21.3379ZM9.36279 18.4692C8.20312 18.4692 7.25098 17.5293 7.25098 16.3574C7.25098 15.1489 8.1665 14.2334 9.36279 14.2334C10.5469 14.2334 11.4746 15.1489 11.4746 16.3574C11.4746 17.5293 10.5469 18.4692 9.36279 18.4692ZM9.36279 9.46045C10.8887 9.46045 12.1582 8.22754 12.1338 6.68945C12.1216 5.15137 10.8887 3.94287 9.36279 3.93066C7.82471 3.91846 6.5918 5.13916 6.5918 6.68945C6.5918 8.22754 7.82471 9.46045 9.36279 9.46045ZM9.36279 8.10547C8.56934 8.10547 7.94678 7.4585 7.94678 6.68945C7.94678 5.87158 8.56934 5.27344 9.36279 5.27344C10.1318 5.27344 10.7788 5.9082 10.7788 6.68945C10.7788 7.4585 10.144 8.10547 9.36279 8.10547Z" fill="#5ac8f5"/>
 </g>
</svg>
