<?xml version="1.0" encoding="UTF-8"?>
<!--Generator: Apple Native CoreSVG 175.5-->
<!DOCTYPE svg
PUBLIC "-//W3C//DTD SVG 1.1//EN"
       "http://www.w3.org/Graphics/SVG/1.1/DTD/svg11.dtd">
<svg version="1.1" xmlns="http://www.w3.org/2000/svg" xmlns:xlink="http://www.w3.org/1999/xlink" width="30.9937" height="37.262">
 <g>
  <rect height="37.262" opacity="0" width="30.9937" x="0" y="0"/>
  <path d="M15.4907 34.1156C24.0479 34.1156 30.9937 27.182 30.9937 18.6249C30.9937 11.8134 26.5869 6.01501 20.459 3.95203C20.5566 4.64783 20.3735 5.34363 19.9463 5.85632C25.2319 7.69958 29.0283 12.7167 29.0283 18.6249C29.0283 26.0956 22.9614 32.1503 15.4907 32.1503C8.02002 32.1503 1.96533 26.0956 1.96533 18.6249C1.96533 12.7045 5.77393 7.68738 11.0596 5.85632C10.6445 5.33142 10.4492 4.63562 10.5469 3.93982C4.41895 5.9906 0 11.8011 0 18.6249C0 27.182 6.93359 34.1156 15.4907 34.1156Z" fill="#5ac8f5" fill-opacity="0.5"/>
  <path d="M15.4907 29.3427C21.4233 29.3427 26.2207 24.5453 26.2207 18.6249C26.2207 12.7045 21.4233 7.8949 15.4907 7.8949C9.57031 7.8949 4.77295 12.7045 4.77295 18.6249C4.77295 24.5453 9.57031 29.3427 15.4907 29.3427ZM12.4268 3.61023C11.9263 4.28162 12.2192 5.09949 13.0615 5.09949L17.9443 5.09949C18.8232 5.09949 19.0796 4.2572 18.5913 3.61023L16.1499 0.338745C15.8081-0.112915 15.1855-0.112915 14.856 0.338745ZM13.269 23.9716C12.6465 23.9716 12.3169 23.5199 12.3169 22.8729L12.3169 13.9984C12.3169 13.3514 12.6465 12.912 13.269 12.912C13.8916 12.912 14.2334 13.3392 14.2334 13.9984L14.2334 22.3846L18.7744 22.3846C19.2383 22.3846 19.5801 22.6776 19.5801 23.1659C19.5801 23.6664 19.2383 23.9716 18.7744 23.9716Z" fill="#5ac8f5"/>
 </g>
</svg>
