<?xml version="1.0" encoding="UTF-8"?>
<!--Generator: Apple Native CoreSVG 175.5-->
<!DOCTYPE svg
PUBLIC "-//W3C//DTD SVG 1.1//EN"
       "http://www.w3.org/Graphics/SVG/1.1/DTD/svg11.dtd">
<svg version="1.1" xmlns="http://www.w3.org/2000/svg" xmlns:xlink="http://www.w3.org/1999/xlink" width="47.4976" height="18.1274">
 <g>
  <rect height="18.1274" opacity="0" width="47.4976" x="0" y="0"/>
  <path d="M1.02539 18.1152C1.67236 18.1152 1.98975 17.8345 2.22168 17.1631L3.79639 12.8418L10.9985 12.8418L12.5732 17.1631C12.8052 17.8345 13.1226 18.1152 13.7573 18.1152C14.4043 18.1152 14.8193 17.688 14.8193 17.0776C14.8193 16.8701 14.7827 16.687 14.6851 16.4185L8.95996 1.18408C8.6792 0.427246 8.17871 0.012207 7.39746 0.012207C6.64062 0.012207 6.12793 0.427246 5.85938 1.17188L0.134277 16.4307C0.0366211 16.6992 0 16.8823 0 17.0898C0 17.7002 0.390625 18.1152 1.02539 18.1152ZM4.39453 10.9985L7.36084 2.7832L7.42188 2.7832L10.3882 10.9985ZM18.1274 17.7612L24.0601 17.7612C27.9297 17.7612 30.2612 15.8569 30.2612 12.9639C30.2612 10.5347 28.5034 8.83789 26.001 8.55713L26.001 8.47168C27.9297 8.1543 29.3457 6.46973 29.3457 4.50439C29.3457 2.05078 27.2095 0.292969 23.999 0.292969L18.1274 0.292969C17.4438 0.292969 17.0044 0.732422 17.0044 1.44043L17.0044 16.6138C17.0044 17.3096 17.4438 17.7612 18.1274 17.7612ZM19.3115 7.84912L19.3115 2.24609L23.4741 2.24609C25.708 2.24609 27.0508 3.28369 27.0508 4.83398C27.0508 6.73828 25.5493 7.84912 22.9736 7.84912ZM19.3115 15.8203L19.3115 9.66797L23.4253 9.66797C26.3306 9.66797 27.9053 10.7788 27.9053 12.8296C27.9053 14.6851 26.3794 15.8203 23.6328 15.8203ZM40.3198 18.0542C43.4326 18.0542 45.874 16.7114 47.0703 14.3799C47.3145 13.916 47.4609 13.4277 47.4609 12.9883C47.4609 12.3901 47.0337 11.9873 46.4355 11.9873C45.9473 11.9873 45.6787 12.1826 45.3979 12.793C44.5679 14.8682 42.8101 16.0156 40.3198 16.0156C36.7676 16.0156 34.4971 13.3301 34.4971 8.98438C34.4971 4.71191 36.7676 2.03857 40.3198 2.03857C42.6636 2.03857 44.5557 3.40576 45.3491 5.51758C45.6299 6.12793 45.9595 6.38428 46.4844 6.38428C47.0947 6.38428 47.4976 5.98145 47.4976 5.3833C47.4976 5.06592 47.4365 4.71191 47.29 4.3335C46.3257 1.64795 43.5303 0 40.3198 0C35.3516 0 32.1899 3.45459 32.1899 8.99658C32.1899 14.5874 35.3271 18.0542 40.3198 18.0542Z" fill="#5ac8f5"/>
 </g>
</svg>
