<?xml version="1.0" encoding="UTF-8"?>
<!--Generator: Apple Native CoreSVG 175.5-->
<!DOCTYPE svg
PUBLIC "-//W3C//DTD SVG 1.1//EN"
       "http://www.w3.org/Graphics/SVG/1.1/DTD/svg11.dtd">
<svg version="1.1" xmlns="http://www.w3.org/2000/svg" xmlns:xlink="http://www.w3.org/1999/xlink" width="27.7588" height="25.9888">
 <g>
  <rect height="25.9888" opacity="0" width="27.7588" x="0" y="0"/>
  <path d="M13.8794 25.9644C19.7388 25.9644 25.1465 22.1313 25.1465 17.9321L25.1465 16.7725L26.2085 16.7725C27.1362 16.7725 27.7588 16.1499 27.7588 15.2344L27.7588 10.7422C27.7588 9.81445 27.1362 9.19189 26.2085 9.19189L25.1465 9.19189L25.1465 8.04443C25.1465 3.84521 19.7388 0 13.8794 0C8.02002 0 2.6123 3.84521 2.6123 8.04443L2.6123 9.19189L1.55029 9.19189C0.622559 9.19189 0 9.81445 0 10.7422L0 15.2344C0 16.1499 0.622559 16.7725 1.55029 16.7725L2.6123 16.7725L2.6123 17.9321C2.6123 22.1313 8.02002 25.9644 13.8794 25.9644ZM13.8794 23.999C9.021 23.999 4.57764 20.9229 4.57764 17.9321L4.57764 8.04443C4.57764 5.05371 9.021 1.96533 13.8794 1.96533C18.7378 1.96533 23.1812 5.05371 23.1812 8.04443L23.1812 17.9321C23.1812 20.9229 18.7378 23.999 13.8794 23.999Z" fill="#5ac8f5" fill-opacity="0.5"/>
  <path d="M8.21533 15.2954C9.49707 15.2954 10.5225 14.2578 10.5225 12.9883C10.5225 11.7188 9.49707 10.6812 8.21533 10.6812C6.9458 10.6812 5.92041 11.7188 5.92041 12.9883C5.92041 14.2578 6.9458 15.2954 8.21533 15.2954ZM19.5312 15.2954C20.813 15.2954 21.8384 14.2578 21.8384 12.9883C21.8384 11.7188 20.813 10.6812 19.5312 10.6812C18.2617 10.6812 17.2363 11.7188 17.2363 12.9883C17.2363 14.2578 18.2617 15.2954 19.5312 15.2954Z" fill="#5ac8f5"/>
 </g>
</svg>
