<?xml version="1.0" encoding="UTF-8"?>
<!--Generator: Apple Native CoreSVG 175.5-->
<!DOCTYPE svg
PUBLIC "-//W3C//DTD SVG 1.1//EN"
       "http://www.w3.org/Graphics/SVG/1.1/DTD/svg11.dtd">
<svg version="1.1" xmlns="http://www.w3.org/2000/svg" xmlns:xlink="http://www.w3.org/1999/xlink" width="24.9023" height="24.9146">
 <g>
  <rect height="24.9146" opacity="0" width="24.9023" x="0" y="0"/>
  <path d="M12.4512 24.9023C19.2627 24.9023 24.9023 19.2505 24.9023 12.4512C24.9023 5.63965 19.2505 0 12.439 0C5.63965 0 0 5.63965 0 12.4512C0 19.2505 5.65186 24.9023 12.4512 24.9023ZM5.7251 11.499C5.7251 10.2295 6.39648 9.25293 7.26318 9.25293C8.11768 9.25293 8.80127 10.2295 8.80127 11.499C8.80127 12.7563 8.11768 13.7207 7.26318 13.7207C6.39648 13.7207 5.7251 12.7563 5.7251 11.499ZM8.82568 7.80029C8.82568 6.54297 9.50928 5.59082 10.3638 5.59082C11.2305 5.59082 11.9019 6.55518 11.9019 7.80029C11.9019 9.05762 11.2305 10.0464 10.3638 10.0464C9.50928 10.0464 8.82568 9.05762 8.82568 7.80029ZM12.9883 7.80029C12.9883 6.55518 13.6597 5.59082 14.5142 5.59082C15.3809 5.59082 16.0645 6.54297 16.0645 7.80029C16.0645 9.05762 15.3809 10.0464 14.5142 10.0464C13.6597 10.0464 12.9883 9.05762 12.9883 7.80029ZM16.0889 11.499C16.0889 10.2295 16.7725 9.25293 17.627 9.25293C18.4814 9.25293 19.1528 10.2295 19.1528 11.499C19.1528 12.7563 18.4814 13.7207 17.627 13.7207C16.7725 13.7207 16.0889 12.7563 16.0889 11.499ZM7.65381 16.4185C7.65381 15.332 8.31299 14.7705 8.93555 14.2456C9.27734 13.9771 9.61914 13.7085 9.87549 13.3301C10.0464 13.0493 10.1929 12.7441 10.3516 12.4512C10.791 11.4746 11.1572 10.5591 12.439 10.5591C13.7329 10.5591 14.0869 11.4624 14.5386 12.4512C14.6851 12.7441 14.8315 13.0615 15.0146 13.3423C15.271 13.7085 15.6128 13.9771 15.9546 14.2456C16.5771 14.7705 17.2363 15.332 17.2363 16.4185C17.2363 17.7124 16.3696 18.6157 15.0879 18.6157C14.4653 18.6157 14.0137 18.457 13.562 18.2983C13.208 18.1641 12.854 18.0664 12.439 18.0664C12.0239 18.0664 11.6821 18.1641 11.3159 18.2983C10.8765 18.457 10.4248 18.6157 9.79004 18.6157C8.5083 18.6157 7.65381 17.7124 7.65381 16.4185Z" fill="#5ac8f5"/>
 </g>
</svg>
