<?xml version="1.0" encoding="UTF-8"?>
<!--Generator: Apple Native CoreSVG 175.5-->
<!DOCTYPE svg
PUBLIC "-//W3C//DTD SVG 1.1//EN"
       "http://www.w3.org/Graphics/SVG/1.1/DTD/svg11.dtd">
<svg version="1.1" xmlns="http://www.w3.org/2000/svg" xmlns:xlink="http://www.w3.org/1999/xlink" width="25.8911" height="25.9155">
 <g>
  <rect height="25.9155" opacity="0" width="25.8911" x="0" y="0"/>
  <path d="M2.83203 5.67627C4.39453 5.67627 5.65186 4.40674 5.65186 2.84424C5.65186 1.28174 4.39453 0.012207 2.83203 0.012207C1.25732 0.012207 0 1.28174 0 2.84424C0 4.40674 1.25732 5.67627 2.83203 5.67627ZM2.83203 3.83301L23.0713 3.83301L23.0713 1.86768L2.83203 1.86768ZM23.0713 5.67627C24.6338 5.67627 25.8911 4.40674 25.8911 2.84424C25.8911 1.28174 24.6338 0.012207 23.0713 0.012207C21.4966 0.012207 20.2393 1.28174 20.2393 2.84424C20.2393 4.40674 21.4966 5.67627 23.0713 5.67627ZM22.0825 23.0835L24.0479 23.0835L24.0479 2.84424L22.0825 2.84424ZM23.0713 25.9155C24.6338 25.9155 25.8911 24.646 25.8911 23.0835C25.8911 21.521 24.6338 20.2515 23.0713 20.2515C21.4966 20.2515 20.2393 21.521 20.2393 23.0835C20.2393 24.646 21.4966 25.9155 23.0713 25.9155ZM2.83203 24.0723L23.0713 24.0723L23.0713 22.1069L2.83203 22.1069ZM2.83203 25.9155C4.39453 25.9155 5.65186 24.646 5.65186 23.0835C5.65186 21.521 4.39453 20.2515 2.83203 20.2515C1.25732 20.2515 0 21.521 0 23.0835C0 24.646 1.25732 25.9155 2.83203 25.9155ZM1.84326 23.0835L3.80859 23.0835L3.80859 2.84424L1.84326 2.84424ZM10.7056 19.6289L18.1885 19.6289C19.1528 19.6289 19.7144 19.0796 19.7144 18.103L19.7144 10.7666C19.7144 9.80225 19.1406 9.25293 18.1519 9.25293L10.7056 9.25293C9.74121 9.25293 9.17969 9.80225 9.17969 10.7666L9.17969 18.103C9.17969 19.0796 9.74121 19.6289 10.7056 19.6289ZM11.1938 18.0298C10.9253 18.0298 10.7788 17.8833 10.7788 17.627L10.7788 11.2549C10.7788 10.9985 10.9253 10.8521 11.1938 10.8521L17.6636 10.8521C17.9565 10.8521 18.1152 10.9985 18.1152 11.2549L18.1152 17.627C18.1152 17.8833 17.9688 18.0298 17.7002 18.0298ZM7.77588 16.687L9.85107 16.687L9.85107 15.0879L8.26416 15.0879C7.99561 15.0879 7.84912 14.9414 7.84912 14.6729L7.84912 8.31299C7.84912 8.05664 7.99561 7.89795 8.26416 7.89795L14.7705 7.89795C15.0391 7.89795 15.1855 8.05664 15.1855 8.31299L15.1855 10.0586L16.7847 10.0586L16.7847 7.82471C16.7847 6.86035 16.2231 6.29883 15.2466 6.29883L7.77588 6.29883C6.81152 6.29883 6.25 6.86035 6.25 7.82471L6.25 15.1611C6.25 16.1255 6.81152 16.687 7.77588 16.687Z" fill="#5ac8f5"/>
 </g>
</svg>
