<?xml version="1.0" encoding="UTF-8"?>
<!--Generator: Apple Native CoreSVG 175.5-->
<!DOCTYPE svg
PUBLIC "-//W3C//DTD SVG 1.1//EN"
       "http://www.w3.org/Graphics/SVG/1.1/DTD/svg11.dtd">
<svg version="1.1" xmlns="http://www.w3.org/2000/svg" xmlns:xlink="http://www.w3.org/1999/xlink" width="24.9023" height="24.9146">
 <g>
  <rect height="24.9146" opacity="0" width="24.9023" x="0" y="0"/>
  <path d="M12.4512 24.9023C19.2627 24.9023 24.9023 19.2505 24.9023 12.4512C24.9023 5.63965 19.2505 0 12.439 0C5.63965 0 0 5.63965 0 12.4512C0 19.2505 5.65186 24.9023 12.4512 24.9023ZM12.4512 22.8271C6.68945 22.8271 2.0874 18.2129 2.0874 12.4512C2.0874 6.68945 6.67725 2.0752 12.439 2.0752C18.2007 2.0752 22.8271 6.68945 22.8271 12.4512C22.8271 18.2129 18.2129 22.8271 12.4512 22.8271Z" fill="#5ac8f5" fill-opacity="0.5"/>
  <path d="M7.80029 19.0186C8.12988 19.0186 8.34961 18.7622 8.34961 18.457L8.34961 14.856C8.58154 14.7583 9.05762 14.6118 9.81445 14.6118C11.9873 14.6118 13.3545 15.686 15.4663 15.686C16.394 15.686 16.7725 15.5884 17.2363 15.3687C17.749 15.1367 17.981 14.7827 17.981 14.2334L17.981 8.21533C17.981 7.86133 17.7979 7.60498 17.2974 7.60498C16.9434 7.60498 16.4062 7.86133 15.4053 7.86133C13.3301 7.86133 11.9507 6.7749 9.75342 6.7749C8.80127 6.7749 8.42285 6.88477 7.9834 7.08008C7.48291 7.2998 7.22656 7.69043 7.22656 8.21533L7.22656 18.457C7.22656 18.75 7.49512 19.0186 7.80029 19.0186Z" fill="#5ac8f5"/>
 </g>
</svg>
