<?xml version="1.0" encoding="UTF-8"?>
<!--Generator: Apple Native CoreSVG 175.5-->
<!DOCTYPE svg
PUBLIC "-//W3C//DTD SVG 1.1//EN"
       "http://www.w3.org/Graphics/SVG/1.1/DTD/svg11.dtd">
<svg version="1.1" xmlns="http://www.w3.org/2000/svg" xmlns:xlink="http://www.w3.org/1999/xlink" width="23.9456" height="29.2114">
 <g>
  <rect height="29.2114" opacity="0" width="23.9456" x="0" y="0"/>
  <path d="M2.97546 18.3716C2.97546 19.4092 3.67126 20.0928 4.7699 20.0928L11.3739 20.0928L11.3739 25.7935C11.3739 27.6611 12.1552 29.2114 12.4603 29.2114C12.7533 29.2114 13.5345 27.6611 13.5345 25.7935L13.5345 20.2393L14.2303 20.2393L12.2406 18.2495L5.25818 18.2495C4.97742 18.2495 4.85535 18.0908 4.90417 17.7612C5.05066 16.394 6.19812 14.9414 8.00476 14.0137L6.72302 12.7319C4.41589 14.0869 2.97546 16.2231 2.97546 18.3716ZM4.52576 2.05078C4.52576 2.40479 4.67224 2.81982 4.98962 3.23486C5.61218 4.06494 7.08923 5.2124 8.62732 6.22559L8.52966 7.56836L10.3363 9.375L10.5804 5.32227C10.5927 5.15137 10.5682 5.09033 10.4462 5.0293C8.61511 4.08936 7.1991 2.97852 7.10144 2.73438C7.00378 2.57568 7.10144 2.47803 7.23572 2.47803L17.6727 2.47803C17.807 2.47803 17.9047 2.57568 17.807 2.73438C17.7094 2.97852 16.2933 4.08936 14.4623 5.0293C14.3524 5.09033 14.3158 5.15137 14.3402 5.32227L14.7064 11.377C13.9862 11.2305 13.2416 11.1572 12.4603 11.1572L12.1307 11.1572L14.0228 13.0737C17.4042 13.4155 19.8822 16.1743 19.8822 18.1274C19.8822 18.1885 19.8822 18.2495 19.8822 18.3105L21.2006 19.8242C21.6034 19.5801 21.933 19.0796 21.933 18.3716C21.933 15.7959 19.87 13.1958 16.684 11.9507L16.2811 6.22559C17.8314 5.2124 19.2963 4.06494 19.9188 3.23486C20.2484 2.81982 20.3949 2.40479 20.3949 2.05078C20.3949 1.30615 19.8212 0.756836 18.9667 0.756836L5.95398 0.756836C5.08728 0.756836 4.52576 1.30615 4.52576 2.05078ZM0.265503 4.12598L22.3358 26.1719C22.7142 26.5381 23.3124 26.5381 23.6664 26.1719C24.0326 25.8057 24.0448 25.2075 23.6664 24.8413L1.60828 2.79541C1.24207 2.4292 0.631714 2.41699 0.265503 2.79541C-0.088501 3.14941-0.088501 3.75977 0.265503 4.12598Z" fill="#5ac8f5"/>
 </g>
</svg>
