<?xml version="1.0" encoding="UTF-8"?>
<!--Generator: Apple Native CoreSVG 175.5-->
<!DOCTYPE svg
PUBLIC "-//W3C//DTD SVG 1.1//EN"
       "http://www.w3.org/Graphics/SVG/1.1/DTD/svg11.dtd">
<svg version="1.1" xmlns="http://www.w3.org/2000/svg" xmlns:xlink="http://www.w3.org/1999/xlink" width="15.6982" height="25.8667">
 <g>
  <rect height="25.8667" opacity="0" width="15.6982" x="0" y="0"/>
  <path d="M3.32031 25.8423L12.3779 25.8423C14.3677 25.8423 15.6982 24.5728 15.6982 22.6685L15.6982 3.17383C15.6982 1.26953 14.3677 0 12.3779 0L3.32031 0C1.33057 0 0 1.26953 0 3.17383L0 22.6685C0 24.5728 1.33057 25.8423 3.32031 25.8423ZM3.57666 23.877C2.53906 23.877 1.96533 23.3276 1.96533 22.3511L1.96533 3.49121C1.96533 2.51465 2.53906 1.96533 3.57666 1.96533L12.1338 1.96533C13.1592 1.96533 13.7329 2.51465 13.7329 3.49121L13.7329 22.3511C13.7329 23.3276 13.1592 23.877 12.1338 23.877ZM4.61426 10.3638L11.0962 10.3638C11.7432 10.3638 12.1826 9.92432 12.1826 9.25293L12.1826 6.97021C12.1826 6.29883 11.7432 5.85938 11.0962 5.85938L4.61426 5.85938C3.95508 5.85938 3.52783 6.29883 3.52783 6.97021L3.52783 9.25293C3.52783 9.92432 3.95508 10.3638 4.61426 10.3638ZM4.61426 19.9463L11.0962 19.9463C11.7432 19.9463 12.1826 19.519 12.1826 18.8354L12.1826 16.5649C12.1826 15.8813 11.7432 15.4541 11.0962 15.4541L4.61426 15.4541C3.95508 15.4541 3.52783 15.8813 3.52783 16.5649L3.52783 18.8354C3.52783 19.519 3.95508 19.9463 4.61426 19.9463Z" fill="#5ac8f5"/>
 </g>
</svg>
