<?xml version="1.0" encoding="UTF-8"?>
<!--Generator: Apple Native CoreSVG 175.5-->
<!DOCTYPE svg
PUBLIC "-//W3C//DTD SVG 1.1//EN"
       "http://www.w3.org/Graphics/SVG/1.1/DTD/svg11.dtd">
<svg version="1.1" xmlns="http://www.w3.org/2000/svg" xmlns:xlink="http://www.w3.org/1999/xlink" width="28.7842" height="26.4496">
 <g>
  <rect height="26.4496" opacity="0" width="28.7842" x="0" y="0"/>
  <path d="M3.83301 24.4492L21.4722 24.4492L12.6465 15.6479C12.5488 15.6845 12.4268 15.7089 12.3169 15.7089L6.20117 15.7089C5.67627 15.7089 5.26123 15.3061 5.26123 14.7812C5.26123 14.2441 5.67627 13.8413 6.20117 13.8413L10.8398 13.8413L2.29492 5.30855C0.756836 5.76021 0 6.94429 0 8.873L0 20.6772C0 23.1919 1.28174 24.4492 3.83301 24.4492ZM28.2593 22.9355C28.6133 22.3496 28.7842 21.6049 28.7842 20.6772L28.7842 8.873C28.7842 6.35836 27.5146 5.10103 24.9512 5.10103L23.2666 5.10103L23.2666 3.46529C23.2666 2.53756 22.7295 1.97603 21.7896 1.97603L18.1885 1.97603C17.2607 1.97603 16.7236 2.53756 16.7236 3.46529L16.7236 5.10103L12.0728 5.10103L12.0728 3.46529C12.0728 2.53756 11.5356 1.97603 10.5957 1.97603L7.43408 1.97603C7.38525 1.97603 7.32422 1.97603 7.27539 1.97603L19.2139 13.9023L19.2139 11.9003C19.2139 11.3754 19.6411 10.9604 20.1538 10.9604C20.6787 10.9604 21.0815 11.3754 21.0815 11.9003L21.0815 13.8413L23.0225 13.8413C23.5474 13.8413 23.9624 14.2441 23.9624 14.7812C23.9624 15.3061 23.5474 15.7089 23.0225 15.7089L21.0205 15.7089Z" fill="#5ac8f5" fill-opacity="0.5"/>
  <path d="M26.001 26.1704C26.3794 26.5366 26.9775 26.5488 27.3315 26.1704C27.6978 25.8042 27.71 25.206 27.3315 24.8398L2.7832 0.303669C2.41699-0.0625423 1.81885-0.0747493 1.44043 0.303669C1.08643 0.657673 1.08643 1.26802 1.44043 1.63424Z" fill="#5ac8f5"/>
 </g>
</svg>
