<?xml version="1.0" encoding="UTF-8"?>
<!--Generator: Apple Native CoreSVG 175.5-->
<!DOCTYPE svg
PUBLIC "-//W3C//DTD SVG 1.1//EN"
       "http://www.w3.org/Graphics/SVG/1.1/DTD/svg11.dtd">
<svg version="1.1" xmlns="http://www.w3.org/2000/svg" xmlns:xlink="http://www.w3.org/1999/xlink" width="30.6885" height="23.2056">
 <g>
  <rect height="23.2056" opacity="0" width="30.6885" x="0" y="0"/>
  <path d="M24.1211 21.2158C27.8076 21.2158 30.6885 18.5181 30.6885 15.1611C30.6885 12.5977 29.2114 10.376 26.8311 9.375C26.8555 3.93066 22.937 0 17.9443 0C14.6362 0 12.2803 1.77002 10.8154 3.90625C7.8125 3.02734 4.54102 5.31006 4.47998 8.72803C1.72119 9.16748 0 11.6333 0 14.6118C0 18.2007 3.13721 21.2158 7.31201 21.2158ZM14.4775 16.4185C14.0747 16.4185 13.7451 16.2476 13.4521 15.8691L10.7178 12.4268C10.5347 12.1826 10.437 11.9385 10.437 11.6821C10.437 11.1084 10.8765 10.6689 11.4258 10.6689C11.792 10.6689 12.0972 10.8398 12.3291 11.1572L14.4287 13.9038L18.6035 6.93359C18.7988 6.5918 19.1284 6.38428 19.4702 6.38428C20.0439 6.38428 20.5078 6.78711 20.5078 7.32422C20.5078 7.60498 20.3491 7.88574 20.2271 8.08105L15.4541 15.8569C15.2222 16.2231 14.8804 16.4185 14.4775 16.4185Z" fill="#5ac8f5"/>
 </g>
</svg>
