<?xml version="1.0" encoding="UTF-8"?>
<!--Generator: Apple Native CoreSVG 175.5-->
<!DOCTYPE svg
PUBLIC "-//W3C//DTD SVG 1.1//EN"
       "http://www.w3.org/Graphics/SVG/1.1/DTD/svg11.dtd">
<svg version="1.1" xmlns="http://www.w3.org/2000/svg" xmlns:xlink="http://www.w3.org/1999/xlink" width="29.5166" height="22.4976">
 <g>
  <rect height="22.4976" opacity="0" width="29.5166" x="0" y="0"/>
  <path d="M10.498 22.4976L19.0308 22.4976C26.2939 22.4976 29.5166 19.165 29.5166 12.3169L29.5166 3.80859C29.5166 1.29395 28.2349 0.0244141 25.6836 0.0244141L3.83301 0.0244141C1.28174 0.0244141 0 1.28174 0 3.80859L0 12.3169C0 19.165 3.22266 22.4976 10.498 22.4976ZM8.00781 17.0532C7.36084 17.0532 7.00684 16.6016 7.00684 15.918L7.00684 6.56738C7.00684 5.896 7.34863 5.41992 7.99561 5.41992L11.6211 5.41992C14.1724 5.41992 15.7959 6.87256 15.7959 9.13086C15.7959 10.7056 14.8315 12.0239 13.3545 12.5122L15.2344 15.4541C15.4053 15.7104 15.4785 15.9058 15.4785 16.1865C15.4785 16.6992 15.1001 17.0532 14.5508 17.0532C14.1113 17.0532 13.8428 16.8701 13.5376 16.394L11.3647 12.8052L9.0332 12.8052L9.0332 15.918C9.0332 16.626 8.66699 17.0532 8.00781 17.0532ZM9.0332 11.3281L11.3159 11.3281C12.8418 11.3281 13.7939 10.5591 13.7939 9.17969C13.7939 7.77588 12.8174 6.97021 11.3647 6.97021L9.0332 6.97021ZM21.5698 17.1875C20.9473 17.1875 20.5688 16.7725 20.5688 16.0522L20.5688 7.49512L20.4834 7.49512L18.8721 8.58154C18.5791 8.76465 18.4326 8.78906 18.2495 8.78906C17.8467 8.78906 17.5415 8.43506 17.5415 8.04443C17.5415 7.72705 17.6514 7.53174 17.9321 7.33643L20.1904 5.79834C20.7275 5.41992 21.0571 5.29785 21.521 5.29785C22.2046 5.29785 22.5952 5.71289 22.5952 6.44531L22.5952 16.0522C22.5952 16.7725 22.229 17.1875 21.5698 17.1875Z" fill="#5ac8f5"/>
 </g>
</svg>
