<?xml version="1.0" encoding="UTF-8"?>
<!--Generator: Apple Native CoreSVG 175.5-->
<!DOCTYPE svg
PUBLIC "-//W3C//DTD SVG 1.1//EN"
       "http://www.w3.org/Graphics/SVG/1.1/DTD/svg11.dtd">
<svg version="1.1" xmlns="http://www.w3.org/2000/svg" xmlns:xlink="http://www.w3.org/1999/xlink" width="24.9023" height="24.9146">
 <g>
  <rect height="24.9146" opacity="0" width="24.9023" x="0" y="0"/>
  <path d="M12.4512 24.9023C19.2627 24.9023 24.9023 19.2505 24.9023 12.4512C24.9023 5.63965 19.2505 0 12.439 0C5.63965 0 0 5.63965 0 12.4512C0 19.2505 5.65186 24.9023 12.4512 24.9023ZM12.4512 22.8271C6.68945 22.8271 2.0874 18.2129 2.0874 12.4512C2.0874 6.68945 6.67725 2.0752 12.439 2.0752C18.2007 2.0752 22.8271 6.68945 22.8271 12.4512C22.8271 18.2129 18.2129 22.8271 12.4512 22.8271Z" fill="#5ac8f5" fill-opacity="0.5"/>
  <path d="M12.5 20.0073C16.0034 20.0073 18.335 17.627 18.335 14.0625C18.335 8.11768 13.2812 5.63965 9.77783 5.63965C9.15527 5.63965 8.76465 5.88379 8.76465 6.29883C8.76465 6.46973 8.83789 6.62842 8.97217 6.79932C9.74121 7.72705 10.5469 8.8501 10.5591 10.1562C10.5591 10.4736 10.5225 10.73 10.3149 11.0962L10.6445 11.0352C10.3394 10.0586 9.5459 9.36279 8.83789 9.36279C8.56934 9.36279 8.38623 9.57031 8.38623 9.86328C8.38623 10.022 8.43506 10.437 8.43506 10.7422C8.43506 12.2192 7.2998 13.0981 7.2998 15.4785C7.2998 18.1885 9.36279 20.0073 12.5 20.0073ZM12.6587 18.1396C11.4258 18.1396 10.5835 17.3828 10.5835 16.2598C10.5835 15.1001 11.4258 14.6851 11.5356 13.9404C11.5356 13.8672 11.5845 13.855 11.6333 13.9038C11.9385 14.1602 12.1216 14.502 12.3047 14.8804C12.6587 14.4043 12.8174 13.4033 12.7075 12.3291C12.6953 12.2437 12.7319 12.2314 12.793 12.2437C14.2578 12.9272 14.9902 14.3799 14.9902 15.6616C14.9902 16.9678 14.2334 18.1396 12.6587 18.1396Z" fill="#5ac8f5"/>
 </g>
</svg>
