<?xml version="1.0" encoding="UTF-8"?>
<!--Generator: Apple Native CoreSVG 175.5-->
<!DOCTYPE svg
PUBLIC "-//W3C//DTD SVG 1.1//EN"
       "http://www.w3.org/Graphics/SVG/1.1/DTD/svg11.dtd">
<svg version="1.1" xmlns="http://www.w3.org/2000/svg" xmlns:xlink="http://www.w3.org/1999/xlink" width="21.6797" height="23.9624">
 <g>
  <rect height="23.9624" opacity="0" width="21.6797" x="0" y="0"/>
  <path d="M0.927734 23.9624C1.44043 23.9624 1.85547 23.5596 1.85547 23.0469L1.85547 16.2598C2.16064 16.1255 3.30811 15.686 5.10254 15.686C9.61914 15.686 12.4512 17.8955 16.748 17.8955C18.6523 17.8955 19.3604 17.688 20.2881 17.2729C21.1304 16.8945 21.6797 16.2598 21.6797 15.1367L21.6797 2.74658C21.6797 2.0874 21.1182 1.70898 20.4102 1.70898C19.812 1.70898 18.689 2.22168 16.5894 2.22168C12.2925 2.22168 9.47266 0.012207 4.94385 0.012207C3.03955 0.012207 2.31934 0.219727 1.3916 0.634766C0.549316 1.01318 0 1.64795 0 2.75879L0 23.0469C0 23.5474 0.427246 23.9624 0.927734 23.9624ZM16.748 16.0522C12.6831 16.0522 9.80225 13.8428 5.10254 13.8428C3.75977 13.8428 2.53906 14.0015 1.85547 14.2822L1.85547 2.81982C2.02637 2.41699 3.03955 1.85547 4.94385 1.85547C9.24072 1.85547 12.1094 4.06494 16.5894 4.06494C17.9199 4.06494 19.0186 3.90625 19.8364 3.67432L19.8364 15.0879C19.6655 15.4907 18.6523 16.0522 16.748 16.0522Z" fill="#5ac8f5"/>
 </g>
</svg>
