<?xml version="1.0" encoding="UTF-8"?>
<!--Generator: Apple Native CoreSVG 175.5-->
<!DOCTYPE svg
PUBLIC "-//W3C//DTD SVG 1.1//EN"
       "http://www.w3.org/Graphics/SVG/1.1/DTD/svg11.dtd">
<svg version="1.1" xmlns="http://www.w3.org/2000/svg" xmlns:xlink="http://www.w3.org/1999/xlink" width="22.4731" height="22.4976">
 <g>
  <rect height="22.4976" opacity="0" width="22.4731" x="0" y="0"/>
  <path d="M3.83301 22.4976L18.6401 22.4976C21.2036 22.4976 22.4731 21.228 22.4731 18.7134L22.4731 3.80859C22.4731 1.29395 21.2036 0.0244141 18.6401 0.0244141L3.83301 0.0244141C1.28174 0.0244141 0 1.28174 0 3.80859L0 18.7134C0 21.2402 1.28174 22.4976 3.83301 22.4976Z" fill="#5ac8f5" fill-opacity="0.25"/>
  <path d="M7.61719 16.8579C7.08008 16.8579 6.70166 16.5039 6.70166 16.0034C6.70166 15.7227 6.78711 15.5518 7.04346 15.1611L12.8296 7.15332L12.8296 7.04346L7.51953 7.04346C7.01904 7.04346 6.66504 6.73828 6.66504 6.21338C6.66504 5.71289 7.01904 5.39551 7.51953 5.39551L14.502 5.39551C15.0513 5.39551 15.4297 5.76172 15.4297 6.28662C15.4297 6.57959 15.3687 6.75049 15.1245 7.09229L9.35059 15.1001L9.35059 15.21L14.9902 15.21C15.4907 15.21 15.8447 15.5151 15.8447 16.04C15.8447 16.5405 15.4907 16.8579 14.9902 16.8579Z" fill="#5ac8f5"/>
 </g>
</svg>
