<?xml version="1.0" encoding="UTF-8"?>
<!--Generator: Apple Native CoreSVG 175.5-->
<!DOCTYPE svg
PUBLIC "-//W3C//DTD SVG 1.1//EN"
       "http://www.w3.org/Graphics/SVG/1.1/DTD/svg11.dtd">
<svg version="1.1" xmlns="http://www.w3.org/2000/svg" xmlns:xlink="http://www.w3.org/1999/xlink" width="25.1709" height="23.8892">
 <g>
  <rect height="23.8892" opacity="0" width="25.1709" x="0" y="0"/>
  <path d="M12.5854 18.7134C20.2026 18.7134 25.1709 15.3442 25.1709 10.4736C25.1709 5.61523 20.1904 2.24609 12.5732 2.24609C4.96826 2.24609 0 5.61523 0 10.4736C0 15.3442 4.96826 18.7134 12.5854 18.7134ZM12.5854 16.6138C6.37207 16.6138 2.20947 14.1235 2.20947 10.4736C2.20947 6.82373 6.37207 4.3457 12.5732 4.3457C18.7866 4.3457 22.9614 6.82373 22.9614 10.4736C22.9614 14.1235 18.7988 16.6138 12.5854 16.6138ZM12.5854 23.8892C15.5518 23.8892 17.3096 22.4976 17.3096 20.1538L17.3096 19.6655C15.8569 19.9707 14.2822 20.1294 12.5854 20.1294C10.8887 20.1294 9.31396 19.9707 7.87354 19.6655L7.87354 20.1538C7.87354 22.4976 9.63135 23.8892 12.5854 23.8892ZM10.5469 14.1235C11.0107 14.1235 11.3037 13.8062 11.3037 13.3057L11.3037 11.4868L12.5488 11.4868L13.8916 13.6719C14.0991 14.0137 14.2944 14.1357 14.5996 14.1357C14.978 14.1357 15.2954 13.8672 15.2954 13.4766C15.2954 13.2812 15.2344 13.1226 15.1245 12.9639L14.0259 11.2427C14.917 10.8887 15.4541 10.0708 15.4541 9.10645C15.4541 7.6416 14.3921 6.70166 12.7808 6.70166L10.5469 6.70166C10.1074 6.70166 9.82666 7.01904 9.82666 7.53174L9.82666 13.3057C9.82666 13.8062 10.1074 14.1235 10.5469 14.1235ZM11.3037 10.3271L11.3037 7.89795L12.6221 7.89795C13.4766 7.89795 13.9893 8.37402 13.9893 9.13086C13.9893 9.8877 13.4888 10.3271 12.5977 10.3271Z" fill="#5ac8f5"/>
 </g>
</svg>
