<?xml version="1.0" encoding="UTF-8"?>
<!--Generator: Apple Native CoreSVG 175.5-->
<!DOCTYPE svg
PUBLIC "-//W3C//DTD SVG 1.1//EN"
       "http://www.w3.org/Graphics/SVG/1.1/DTD/svg11.dtd">
<svg version="1.1" xmlns="http://www.w3.org/2000/svg" xmlns:xlink="http://www.w3.org/1999/xlink" width="22.4731" height="22.4976">
 <g>
  <rect height="22.4976" opacity="0" width="22.4731" x="0" y="0"/>
  <path d="M3.83301 22.4976L18.6401 22.4976C21.2036 22.4976 22.4731 21.228 22.4731 18.7134L22.4731 3.80859C22.4731 1.29395 21.2036 0.0244141 18.6401 0.0244141L3.83301 0.0244141C1.28174 0.0244141 0 1.28174 0 3.80859L0 18.7134C0 21.2402 1.28174 22.4976 3.83301 22.4976ZM12.7808 17.5537C12.5122 17.5537 12.3047 17.4805 12.0239 17.2119L7.4707 12.9272C7.22656 12.6831 7.01904 12.4878 7.01904 12.0605C7.01904 11.5234 7.39746 11.1938 7.92236 11.1938L9.75342 11.1938C11.0229 11.1938 11.853 10.7056 12.085 9.729L7.6416 9.729C7.2876 9.729 7.01904 9.44824 7.01904 9.10645C7.01904 8.74023 7.2876 8.47168 7.6416 8.47168L12.0483 8.47168C11.8164 7.56836 11.0352 7.04346 9.91211 7.04346L7.65381 7.04346C7.25098 7.04346 6.90918 6.68945 6.90918 6.28662C6.90918 5.85938 7.25098 5.54199 7.65381 5.54199L11.0352 5.54199C11.438 5.54199 11.8408 5.54199 12.2437 5.54199L14.8926 5.54199C15.2588 5.54199 15.5151 5.78613 15.5151 6.15234C15.5151 6.49414 15.2588 6.78711 14.8926 6.78711L13.0615 6.78711C13.4766 7.23877 13.7085 7.82471 13.8062 8.47168L14.9658 8.47168C15.332 8.47168 15.5762 8.74023 15.5762 9.10645C15.5762 9.44824 15.332 9.729 14.9658 9.729L13.7817 9.729C13.5254 11.3159 12.3047 12.6953 9.82666 12.6953L9.49707 12.6953L13.208 16.1621C13.3911 16.3452 13.5498 16.5649 13.5498 16.8213C13.5498 17.2852 13.1958 17.5537 12.7808 17.5537Z" fill="#5ac8f5"/>
 </g>
</svg>
