<?xml version="1.0" encoding="UTF-8"?>
<!--Generator: Apple Native CoreSVG 175.5-->
<!DOCTYPE svg
PUBLIC "-//W3C//DTD SVG 1.1//EN"
       "http://www.w3.org/Graphics/SVG/1.1/DTD/svg11.dtd">
<svg version="1.1" xmlns="http://www.w3.org/2000/svg" xmlns:xlink="http://www.w3.org/1999/xlink" width="22.4731" height="22.4976">
 <g>
  <rect height="22.4976" opacity="0" width="22.4731" x="0" y="0"/>
  <path d="M3.83301 22.4976L18.6401 22.4976C21.2036 22.4976 22.4731 21.228 22.4731 18.7134L22.4731 3.80859C22.4731 1.29395 21.2036 0.0244141 18.6401 0.0244141L3.83301 0.0244141C1.28174 0.0244141 0 1.28174 0 3.80859L0 18.7134C0 21.2402 1.28174 22.4976 3.83301 22.4976ZM3.85742 20.5322C2.63672 20.5322 1.96533 19.8853 1.96533 18.6157L1.96533 3.90625C1.96533 2.63672 2.63672 1.98975 3.85742 1.98975L18.6157 1.98975C19.8242 1.98975 20.5078 2.63672 20.5078 3.90625L20.5078 18.6157C20.5078 19.8853 19.8242 20.5322 18.6157 20.5322ZM11.2183 16.8823C11.853 16.8823 12.1948 16.4551 12.1948 15.7837L12.1948 7.21436L15.2344 7.21436C15.6982 7.21436 16.0522 6.89697 16.0522 6.40869C16.0522 5.9082 15.6982 5.61523 15.2344 5.61523L7.25098 5.61523C6.78711 5.61523 6.43311 5.9082 6.43311 6.40869C6.43311 6.89697 6.78711 7.21436 7.25098 7.21436L10.2539 7.21436L10.2539 15.7837C10.2539 16.4307 10.5835 16.8823 11.2183 16.8823Z" fill="#5ac8f5"/>
 </g>
</svg>
