<?xml version="1.0" encoding="UTF-8"?>
<!--Generator: Apple Native CoreSVG 175.5-->
<!DOCTYPE svg
PUBLIC "-//W3C//DTD SVG 1.1//EN"
       "http://www.w3.org/Graphics/SVG/1.1/DTD/svg11.dtd">
<svg version="1.1" xmlns="http://www.w3.org/2000/svg" xmlns:xlink="http://www.w3.org/1999/xlink" width="22.4731" height="22.4976">
 <g>
  <rect height="22.4976" opacity="0" width="22.4731" x="0" y="0"/>
  <path d="M3.83301 22.4976L18.6401 22.4976C21.2036 22.4976 22.4731 21.228 22.4731 18.7134L22.4731 3.80859C22.4731 1.29395 21.2036 0.0244141 18.6401 0.0244141L3.83301 0.0244141C1.28174 0.0244141 0 1.28174 0 3.80859L0 18.7134C0 21.2402 1.28174 22.4976 3.83301 22.4976ZM11.2427 17.4683C10.7544 17.4683 10.4126 17.1387 10.4126 16.626L10.4126 14.4897L8.80127 15.2344C8.69141 15.2832 8.56934 15.3076 8.47168 15.3076C8.10547 15.3076 7.86133 15.0513 7.86133 14.6973C7.86133 14.4287 7.99561 14.2456 8.28857 14.1113L10.4126 13.147L10.4126 11.9507L8.80127 12.6953C8.69141 12.7441 8.56934 12.7808 8.47168 12.7808C8.10547 12.7808 7.86133 12.5122 7.86133 12.1582C7.86133 11.8896 7.99561 11.7188 8.28857 11.5601L10.4126 10.6201L10.4126 6.99463L7.40967 6.99463C6.9458 6.99463 6.61621 6.67725 6.61621 6.22559C6.61621 5.77393 6.9458 5.46875 7.40967 5.46875L15.0635 5.46875C15.5273 5.46875 15.8569 5.77393 15.8569 6.22559C15.8569 6.67725 15.5273 6.99463 15.0635 6.99463L12.0605 6.99463L12.0605 9.93652L13.7085 9.16748C13.8306 9.13086 13.9282 9.09424 14.0259 9.09424C14.3921 9.09424 14.6362 9.36279 14.6362 9.7168C14.6362 9.98535 14.4897 10.1807 14.209 10.3027L12.0605 11.2793L12.0605 12.4634L13.6963 11.7188C13.8062 11.6699 13.9282 11.6333 14.0381 11.6333C14.3921 11.6333 14.6362 11.8896 14.6362 12.2437C14.6362 12.5244 14.4897 12.7075 14.209 12.854L12.0605 13.8062L12.0605 16.626C12.0605 17.1387 11.7188 17.4683 11.2427 17.4683Z" fill="#5ac8f5"/>
 </g>
</svg>
