<?xml version="1.0" encoding="UTF-8"?>
<!--Generator: Apple Native CoreSVG 175.5-->
<!DOCTYPE svg
PUBLIC "-//W3C//DTD SVG 1.1//EN"
       "http://www.w3.org/Graphics/SVG/1.1/DTD/svg11.dtd">
<svg version="1.1" xmlns="http://www.w3.org/2000/svg" xmlns:xlink="http://www.w3.org/1999/xlink" width="24.9023" height="24.9146">
 <g>
  <rect height="24.9146" opacity="0" width="24.9023" x="0" y="0"/>
  <path d="M12.4512 24.9146C19.2627 24.9146 24.9023 19.2749 24.9023 12.4634C24.9023 5.66406 19.2505 0.012207 12.439 0.012207C5.63965 0.012207 0 5.66406 0 12.4634C0 19.2749 5.65186 24.9146 12.4512 24.9146ZM9.70459 20.4102C8.45947 20.4102 7.65381 19.6167 7.65381 18.4448L7.65381 9.85107L8.88672 11.0962L8.88672 17.8467L15.5029 17.8467L15.5029 17.7124L17.0044 19.2139L17.0044 19.2871C16.7358 19.9951 16.1011 20.4102 15.21 20.4102ZM12.4634 19.6411C12.8174 19.6411 13.0981 19.3481 13.0981 18.9941C13.0981 18.6523 12.8174 18.3472 12.4634 18.3472C12.1094 18.3472 11.8164 18.6523 11.8164 18.9941C11.8164 19.3481 12.1094 19.6411 12.4634 19.6411ZM15.21 4.52881C16.4429 4.52881 17.2607 5.31006 17.2607 6.49414L17.2607 15.1001L16.0278 13.8672L16.0278 7.09229L9.375 7.09229L9.375 7.20215L7.89795 5.71289L7.89795 5.66406C8.17871 4.93164 8.80127 4.52881 9.70459 4.52881ZM11.0107 5.85938C11.0107 6.03027 11.1572 6.16455 11.3159 6.16455L13.5986 6.16455C13.7695 6.16455 13.9038 6.03027 13.9038 5.85938C13.9038 5.66406 13.7695 5.5542 13.5986 5.5542L11.3159 5.5542C11.1572 5.5542 11.0107 5.66406 11.0107 5.85938ZM18.0664 18.8843L6.00586 6.83594C5.79834 6.62842 5.79834 6.26221 6.00586 6.03027C6.23779 5.81055 6.604 5.81055 6.82373 6.03027L18.8721 18.0786C19.0918 18.2983 19.0918 18.6401 18.8721 18.8843C18.6401 19.0918 18.2739 19.0918 18.0664 18.8843Z" fill="#5ac8f5"/>
 </g>
</svg>
