<?xml version="1.0" encoding="UTF-8"?>
<!--Generator: Apple Native CoreSVG 175.5-->
<!DOCTYPE svg
PUBLIC "-//W3C//DTD SVG 1.1//EN"
       "http://www.w3.org/Graphics/SVG/1.1/DTD/svg11.dtd">
<svg version="1.1" xmlns="http://www.w3.org/2000/svg" xmlns:xlink="http://www.w3.org/1999/xlink" width="24.9023" height="24.9146">
 <g>
  <rect height="24.9146" opacity="0" width="24.9023" x="0" y="0"/>
  <path d="M12.4512 24.9146C19.2627 24.9146 24.9023 19.2749 24.9023 12.4634C24.9023 5.66406 19.2505 0.012207 12.439 0.012207C5.63965 0.012207 0 5.66406 0 12.4634C0 19.2749 5.65186 24.9146 12.4512 24.9146ZM7.21436 12.4634C7.21436 9.58252 8.06885 6.79932 9.60693 4.56543C9.8999 4.12598 10.4248 4.02832 10.8276 4.32129C11.2305 4.61426 11.2915 5.12695 10.9985 5.5542C9.65576 7.44629 8.91113 9.8999 8.91113 12.4634C8.91113 14.9902 9.66797 17.4683 10.9985 19.3726C11.2915 19.7876 11.2305 20.3003 10.8276 20.6055C10.437 20.874 9.91211 20.7764 9.60693 20.3491C8.06885 18.1519 7.21436 15.3442 7.21436 12.4634ZM11.145 12.4634C11.145 10.3271 11.7676 8.28857 12.8906 6.7627C13.1958 6.34766 13.6963 6.25 14.0991 6.53076C14.4775 6.79932 14.5752 7.33643 14.27 7.77588C13.3789 9.00879 12.8662 10.7056 12.8662 12.4634C12.8662 14.209 13.3789 15.9058 14.27 17.1387C14.5752 17.5781 14.4775 18.1152 14.0991 18.3838C13.6963 18.6768 13.1958 18.5669 12.8906 18.1641C11.7676 16.5894 11.145 14.5508 11.145 12.4634ZM15.0879 12.4634C15.0879 11.1816 15.4785 9.87549 16.1499 8.93555C16.4307 8.55713 16.9556 8.44727 17.3462 8.70361C17.7856 9.00879 17.8711 9.55811 17.5293 10.0098C17.0776 10.6079 16.8091 11.5112 16.8091 12.4634C16.8091 13.3789 17.0776 14.2822 17.5293 14.9048C17.8589 15.3564 17.7734 15.8813 17.3462 16.1987C16.9556 16.4673 16.4185 16.3574 16.1499 15.9668C15.4785 15.0879 15.0879 13.7817 15.0879 12.4634Z" fill="#5ac8f5"/>
 </g>
</svg>
