<?xml version="1.0" encoding="UTF-8"?>
<!--Generator: Apple Native CoreSVG 175.5-->
<!DOCTYPE svg
PUBLIC "-//W3C//DTD SVG 1.1//EN"
       "http://www.w3.org/Graphics/SVG/1.1/DTD/svg11.dtd">
<svg version="1.1" xmlns="http://www.w3.org/2000/svg" xmlns:xlink="http://www.w3.org/1999/xlink" width="31.2988" height="24.5239">
 <g>
  <rect height="24.5239" opacity="0" width="31.2988" x="0" y="0"/>
  <path d="M4.52881 24.5239C7.01904 24.5239 9.04541 22.4976 9.04541 20.0073C9.04541 17.5049 7.01904 15.4785 4.52881 15.4785C2.02637 15.4785 0 17.5049 0 20.0073C0 22.4976 2.02637 24.5239 4.52881 24.5239ZM4.52881 22.876C2.92969 22.876 1.64795 21.5942 1.64795 20.0073C1.64795 18.4082 2.92969 17.1265 4.52881 17.1265C6.11572 17.1265 7.39746 18.4082 7.39746 20.0073C7.38525 21.6064 6.11572 22.8638 4.52881 22.876ZM4.52881 21.2891C5.23682 21.2891 5.81055 20.7153 5.81055 20.0073C5.81055 19.2993 5.24902 18.7134 4.52881 18.7134C3.79639 18.7134 3.24707 19.2871 3.23486 20.0073C3.22266 20.7153 3.78418 21.2891 4.52881 21.2891ZM26.77 24.5239C29.2725 24.5239 31.2988 22.4976 31.2988 20.0073C31.2988 17.5049 29.2725 15.4785 26.77 15.4785C24.2798 15.4785 22.2412 17.5049 22.2412 20.0073C22.2412 22.4976 24.2798 24.5239 26.77 24.5239ZM26.77 22.876C25.1831 22.876 23.8892 21.5942 23.8892 20.0073C23.8892 18.4082 25.1831 17.1265 26.77 17.1265C28.3691 17.1265 29.6509 18.4082 29.6509 20.0073C29.6509 21.5942 28.3691 22.876 26.77 22.876ZM26.77 21.2891C27.478 21.2891 28.064 20.7153 28.064 20.0073C28.064 19.2993 27.4902 18.7134 26.77 18.7134C26.0498 18.7134 25.4883 19.2871 25.4761 20.0073C25.4639 20.7153 26.0376 21.2891 26.77 21.2891ZM4.89502 20.9229L17.7002 20.9229C18.2129 20.9229 18.5303 20.7764 18.9819 20.2881L25.0122 13.6719L24.4141 11.4014L17.7124 18.9331C17.6025 19.0552 17.5415 19.0796 17.4072 19.0796L4.89502 19.0796ZM17.0776 0.952148C17.0776 1.46484 17.4927 1.86768 18.0054 1.86768L21.167 1.86768C21.2769 1.86768 21.3257 1.9043 21.3501 1.98975L25.7935 20.3369L27.5513 19.8853L22.8027 0.817871C22.6685 0.292969 22.2656 0.0244141 21.5088 0.0244141L18.0054 0.0244141C17.4927 0.0244141 17.0776 0.439453 17.0776 0.952148Z" fill="#5ac8f5"/>
 </g>
</svg>
