<?xml version="1.0" encoding="UTF-8"?>
<!--Generator: Apple Native CoreSVG 175.5-->
<!DOCTYPE svg
PUBLIC "-//W3C//DTD SVG 1.1//EN"
       "http://www.w3.org/Graphics/SVG/1.1/DTD/svg11.dtd">
<svg version="1.1" xmlns="http://www.w3.org/2000/svg" xmlns:xlink="http://www.w3.org/1999/xlink" width="24.9023" height="24.9146">
 <g>
  <rect height="24.9146" opacity="0" width="24.9023" x="0" y="0"/>
  <path d="M12.4512 24.9023C19.2627 24.9023 24.9023 19.2505 24.9023 12.4512C24.9023 5.63965 19.2505 0 12.439 0C5.63965 0 0 5.63965 0 12.4512C0 19.2505 5.65186 24.9023 12.4512 24.9023Z" fill="#5ac8f5" fill-opacity="0.25"/>
  <path d="M6.32324 7.66602C6.39648 7.27539 6.73828 7.25098 6.98242 7.49512C7.8125 8.3374 8.83789 8.44727 9.75342 8.44727C10.5957 8.44727 11.6333 8.21533 12.561 8.21533C15.271 8.21533 17.2119 9.5459 17.2119 12.3169C17.2119 12.5732 17.1997 12.8418 17.1753 13.0127C17.1265 13.1958 16.9067 13.3057 16.7114 13.1104C14.2456 10.8887 11.8164 12.3169 9.79004 10.5469C9.57031 10.376 9.375 10.5347 9.44824 10.7178C10.4248 13.269 14.209 11.9141 16.7114 14.209C17.3096 14.7461 18.4326 16.1255 18.4326 16.9067C18.4326 17.4072 18.0786 17.7734 17.6636 17.7734C17.4805 17.7734 17.2729 17.6758 17.1997 17.4072C16.8945 16.4307 16.626 15.7227 16.1377 15.0757C15.5884 15.7715 14.4165 16.5894 12.5366 16.5894C8.66699 16.5894 6.14014 13.7573 6.14014 9.50928C6.14014 8.99658 6.21338 8.23975 6.32324 7.66602Z" fill="#5ac8f5"/>
 </g>
</svg>
