<?xml version="1.0" encoding="UTF-8"?>
<!--Generator: Apple Native CoreSVG 175.5-->
<!DOCTYPE svg
PUBLIC "-//W3C//DTD SVG 1.1//EN"
       "http://www.w3.org/Graphics/SVG/1.1/DTD/svg11.dtd">
<svg version="1.1" xmlns="http://www.w3.org/2000/svg" xmlns:xlink="http://www.w3.org/1999/xlink" width="31.7993" height="25.4272">
 <g>
  <rect height="25.4272" opacity="0" width="31.7993" x="0" y="0"/>
  <path d="M9.86328 0C4.45557 0 0 6.21338 0 13.8428C0 17.4316 0.952148 21.3989 2.12402 21.3989C3.02734 21.3989 3.75977 20.2026 3.85742 18.9941C2.0752 18.4692 0.756836 16.8213 0.756836 14.8926C0.756836 13.7207 1.2085 12.6831 2.02637 11.853C2.4292 6.604 5.83496 1.97754 9.75342 1.97754C12.0972 1.97754 13.1714 3.73535 13.1714 6.98242L3.8208 11.8652C2.45361 12.5732 1.83105 13.6963 1.83105 14.8926C1.83105 16.6382 3.27148 18.0786 5.01709 18.0786C5.87158 18.0786 6.44531 17.8589 7.65381 17.2119L12.3779 14.624C14.4287 13.4888 15.1611 12.1094 15.1611 9.21631L15.1611 6.64062C15.1611 2.57568 13.3667 0 9.86328 0ZM4.94385 16.8945C3.8208 16.8945 2.91748 15.979 2.91748 14.8804C2.91748 13.7695 3.8208 12.8662 4.94385 12.8662C6.04248 12.8662 6.9458 13.7695 6.9458 14.8804C6.9458 15.979 6.04248 16.8945 4.94385 16.8945ZM4.94385 16.1133C5.60303 16.1133 6.16455 15.5518 6.16455 14.8804C6.16455 14.209 5.60303 13.6475 4.94385 13.6475C4.26025 13.6475 3.71094 14.209 3.71094 14.8804C3.71094 15.5518 4.26025 16.1133 4.94385 16.1133ZM1.62354 25.415L2.74658 25.415L2.74658 20.9351L1.62354 20.9351ZM21.936 0C18.4326 0 16.6382 2.57568 16.6382 6.64062L16.6382 9.21631C16.6382 12.1094 17.3706 13.4888 19.4214 14.624L24.1455 17.2119C25.354 17.8589 25.9277 18.0786 26.7822 18.0786C28.5278 18.0786 29.9683 16.6382 29.9683 14.8926C29.9683 13.6963 29.3457 12.5732 27.9785 11.8652L18.6279 6.98242C18.6279 3.73535 19.7021 1.97754 22.0459 1.97754C25.9521 1.97754 29.3701 6.604 29.7729 11.853C30.5908 12.6831 31.0425 13.7207 31.0425 14.8926C31.0425 16.8213 29.7241 18.4692 27.9419 18.9941C28.0273 20.2026 28.772 21.3989 29.6753 21.3989C30.835 21.3989 31.7993 17.4316 31.7993 13.8428C31.7993 6.21338 27.3438 0 21.936 0ZM26.8555 16.8945C25.7568 16.8945 24.8413 15.979 24.8413 14.8804C24.8413 13.7695 25.7568 12.8662 26.8555 12.8662C27.9785 12.8662 28.8818 13.7695 28.8818 14.8804C28.8818 15.979 27.9785 16.8945 26.8555 16.8945ZM26.8555 16.1133C27.5391 16.1133 28.0884 15.5518 28.0884 14.8804C28.0884 14.209 27.5391 13.6475 26.8555 13.6475C26.1841 13.6475 25.6226 14.209 25.6226 14.8804C25.6226 15.5518 26.1841 16.1133 26.8555 16.1133ZM30.1758 25.415L30.1758 20.9351L29.0527 20.9351L29.0527 25.415Z" fill="#5ac8f5"/>
  <path d="M4.94385 16.8945C3.8208 16.8945 2.91748 15.979 2.91748 14.8804C2.91748 13.7695 3.8208 12.8662 4.94385 12.8662C6.04248 12.8662 6.9458 13.7695 6.9458 14.8804C6.9458 15.979 6.04248 16.8945 4.94385 16.8945ZM4.94385 16.1133C5.60303 16.1133 6.16455 15.5518 6.16455 14.8804C6.16455 14.209 5.60303 13.6475 4.94385 13.6475C4.26025 13.6475 3.71094 14.209 3.71094 14.8804C3.71094 15.5518 4.26025 16.1133 4.94385 16.1133ZM26.8555 16.8945C25.7568 16.8945 24.8413 15.979 24.8413 14.8804C24.8413 13.7695 25.7568 12.8662 26.8555 12.8662C27.9785 12.8662 28.8818 13.7695 28.8818 14.8804C28.8818 15.979 27.9785 16.8945 26.8555 16.8945ZM26.8555 16.1133C27.5391 16.1133 28.0884 15.5518 28.0884 14.8804C28.0884 14.209 27.5391 13.6475 26.8555 13.6475C26.1841 13.6475 25.6226 14.209 25.6226 14.8804C25.6226 15.5518 26.1841 16.1133 26.8555 16.1133Z" fill="#5ac8f5" fill-opacity="0.25"/>
 </g>
</svg>
