<?xml version="1.0" encoding="UTF-8"?>
<!--Generator: Apple Native CoreSVG 175.5-->
<!DOCTYPE svg
PUBLIC "-//W3C//DTD SVG 1.1//EN"
       "http://www.w3.org/Graphics/SVG/1.1/DTD/svg11.dtd">
<svg version="1.1" xmlns="http://www.w3.org/2000/svg" xmlns:xlink="http://www.w3.org/1999/xlink" width="24.9023" height="24.9146">
 <g>
  <rect height="24.9146" opacity="0" width="24.9023" x="0" y="0"/>
  <path d="M12.4512 24.9023C19.2627 24.9023 24.9023 19.2505 24.9023 12.4512C24.9023 5.63965 19.2505 0 12.439 0C5.63965 0 0 5.63965 0 12.4512C0 19.2505 5.65186 24.9023 12.4512 24.9023ZM12.4512 22.8271C6.68945 22.8271 2.0874 18.2129 2.0874 12.4512C2.0874 6.68945 6.67725 2.0752 12.439 2.0752C18.2007 2.0752 22.8271 6.68945 22.8271 12.4512C22.8271 18.2129 18.2129 22.8271 12.4512 22.8271ZM5.81055 17.7246C5.81055 18.2007 6.06689 18.4692 6.53076 18.4692C6.70166 18.4692 6.86035 18.4082 7.06787 18.2983L9.74121 16.8457L9.74121 6.31104C9.63135 6.35986 9.50928 6.4209 9.375 6.49414L6.35986 8.21533C5.95703 8.44727 5.81055 8.71582 5.81055 9.16748ZM10.6079 16.7236L13.8184 18.5303C13.916 18.5913 14.0259 18.6279 14.1113 18.6523L14.1113 8.26416L10.9741 6.34766C10.8521 6.27441 10.7422 6.22559 10.6079 6.20117ZM14.978 18.6279C15.0391 18.6157 15.1001 18.5913 15.1733 18.5547L18.4814 16.6748C18.8843 16.4429 19.043 16.1743 19.043 15.7349L19.043 7.14111C19.043 6.67725 18.7744 6.4209 18.3228 6.4209C18.1519 6.4209 17.9932 6.48193 17.7856 6.5918L14.978 8.14209Z" fill="#5ac8f5"/>
 </g>
</svg>
