<?xml version="1.0" encoding="UTF-8"?>
<!--Generator: Apple Native CoreSVG 175.5-->
<!DOCTYPE svg
PUBLIC "-//W3C//DTD SVG 1.1//EN"
       "http://www.w3.org/Graphics/SVG/1.1/DTD/svg11.dtd">
<svg version="1.1" xmlns="http://www.w3.org/2000/svg" xmlns:xlink="http://www.w3.org/1999/xlink" width="24.9023" height="24.9146">
 <g>
  <rect height="24.9146" opacity="0" width="24.9023" x="0" y="0"/>
  <path d="M12.4634 16.98C9.94873 16.98 7.93457 14.9536 7.93457 12.4512C7.93457 9.94873 9.94873 7.92236 12.4634 7.92236C14.9658 7.92236 16.98 9.94873 16.98 12.4512C16.98 14.9536 14.9658 16.98 12.4634 16.98ZM4.07715 6.33545C4.69971 5.45654 5.44434 4.69971 6.31104 4.07715L8.72803 6.49414C7.83691 7.06787 7.04346 7.83691 6.48193 8.74023ZM20.8252 6.34766L18.4082 8.75244C17.8589 7.84912 17.0654 7.08008 16.1743 6.50635L18.5913 4.08936C19.458 4.71191 20.2026 5.48096 20.8252 6.34766ZM20.8252 18.5303C20.2148 19.397 19.458 20.166 18.6035 20.7886L16.1743 18.3716C17.0776 17.7979 17.8589 17.0288 18.4204 16.1255ZM4.08936 18.5425L6.49414 16.1377C7.05566 17.041 7.83691 17.8101 8.72803 18.3838L6.31104 20.8008C5.45654 20.1782 4.69971 19.4214 4.08936 18.5425ZM12.4512 24.9146C19.2627 24.9146 24.9023 19.2749 24.9023 12.4634C24.9023 5.66406 19.2505 0.012207 12.439 0.012207C5.63965 0.012207 0 5.66406 0 12.4634C0 19.2749 5.65186 24.9146 12.4512 24.9146Z" fill="#5ac8f5"/>
 </g>
</svg>
