<?xml version="1.0" encoding="UTF-8"?>
<!--Generator: Apple Native CoreSVG 175.5-->
<!DOCTYPE svg
PUBLIC "-//W3C//DTD SVG 1.1//EN"
       "http://www.w3.org/Graphics/SVG/1.1/DTD/svg11.dtd">
<svg version="1.1" xmlns="http://www.w3.org/2000/svg" xmlns:xlink="http://www.w3.org/1999/xlink" width="23.8525" height="24.0845">
 <g>
  <rect height="24.0845" opacity="0" width="23.8525" x="0" y="0"/>
  <path d="M0 9.74121C0 15.1123 4.37012 19.4824 9.74121 19.4824C11.8652 19.4824 13.8062 18.7988 15.4053 17.6514L21.4111 23.6694C21.6919 23.9502 22.0581 24.0845 22.4487 24.0845C23.2788 24.0845 23.8525 23.4619 23.8525 22.644C23.8525 22.2534 23.7061 21.8994 23.4497 21.6431L17.4805 15.6372C18.7378 14.0015 19.4824 11.9629 19.4824 9.74121C19.4824 4.37012 15.1123 0 9.74121 0C4.37012 0 0 4.37012 0 9.74121ZM2.0874 9.74121C2.0874 5.51758 5.51758 2.0874 9.74121 2.0874C13.9648 2.0874 17.395 5.51758 17.395 9.74121C17.395 13.9648 13.9648 17.395 9.74121 17.395C5.51758 17.395 2.0874 13.9648 2.0874 9.74121ZM9.75342 14.8682C9.94873 14.8682 10.1074 14.7095 10.1562 14.5142C10.7666 11.2061 11.0718 10.5957 14.502 10.1318C14.7217 10.1074 14.8682 9.94873 14.8682 9.74121C14.8682 9.53369 14.7217 9.375 14.502 9.32617C11.084 8.8623 10.6445 8.22754 10.1562 4.98047C10.1196 4.76074 9.94873 4.61426 9.75342 4.61426C9.5459 4.61426 9.38721 4.74854 9.33838 4.96826C8.71582 8.28857 8.42285 8.8623 4.99268 9.32617C4.77295 9.375 4.62646 9.53369 4.62646 9.74121C4.62646 9.94873 4.77295 10.0952 4.99268 10.1318C8.42285 10.4736 8.8623 11.2061 9.33838 14.502C9.375 14.7095 9.53369 14.8682 9.75342 14.8682Z" fill="#5ac8f5"/>
 </g>
</svg>
