<?xml version="1.0" encoding="UTF-8"?>
<!--Generator: Apple Native CoreSVG 175.5-->
<!DOCTYPE svg
PUBLIC "-//W3C//DTD SVG 1.1//EN"
       "http://www.w3.org/Graphics/SVG/1.1/DTD/svg11.dtd">
<svg version="1.1" xmlns="http://www.w3.org/2000/svg" xmlns:xlink="http://www.w3.org/1999/xlink" width="18.0298" height="18.0542">
 <g>
  <rect height="18.0542" opacity="0" width="18.0298" x="0" y="0"/>
  <path d="M0 13.501C0 14.1602 0.512695 14.6606 1.11084 14.6606C1.70898 14.6606 2.20947 14.1235 2.20947 13.5498L2.20947 9.0332L1.98975 3.33252L4.00391 5.61523L16.1133 17.7246C16.3452 17.9565 16.6138 18.0542 16.8823 18.0542C17.4927 18.0542 18.0298 17.5049 18.0298 16.9189C18.0298 16.6504 17.9077 16.3696 17.688 16.1499L5.59082 4.02832L3.32031 2.03857L9.27734 2.23389L13.5254 2.23389C14.0991 2.23389 14.624 1.7334 14.624 1.14746C14.624 0.561523 14.1602 0.0366211 13.4766 0.0366211L1.19629 0.0366211C0.463867 0.0366211 0.012207 0.524902 0.012207 1.2207Z" fill="#5ac8f5"/>
 </g>
</svg>
