<?xml version="1.0" encoding="UTF-8"?>
<!--Generator: Apple Native CoreSVG 175.5-->
<!DOCTYPE svg
PUBLIC "-//W3C//DTD SVG 1.1//EN"
       "http://www.w3.org/Graphics/SVG/1.1/DTD/svg11.dtd">
<svg version="1.1" xmlns="http://www.w3.org/2000/svg" xmlns:xlink="http://www.w3.org/1999/xlink" width="22.4731" height="22.4976">
 <g>
  <rect height="22.4976" opacity="0" width="22.4731" x="0" y="0"/>
  <path d="M3.83301 22.4976L18.6401 22.4976C21.2036 22.4976 22.4731 21.228 22.4731 18.7134L22.4731 3.80859C22.4731 1.29395 21.2036 0.0244141 18.6401 0.0244141L3.83301 0.0244141C1.28174 0.0244141 0 1.28174 0 3.80859L0 18.7134C0 21.2402 1.28174 22.4976 3.83301 22.4976ZM3.85742 20.5322C2.63672 20.5322 1.96533 19.8853 1.96533 18.6157L1.96533 3.90625C1.96533 2.63672 2.63672 1.98975 3.85742 1.98975L18.6157 1.98975C19.8242 1.98975 20.5078 2.63672 20.5078 3.90625L20.5078 18.6157C20.5078 19.8853 19.8242 20.5322 18.6157 20.5322ZM7.22656 16.9922C7.66602 16.9922 7.9834 16.7847 8.1665 16.2109L9.05762 13.6108L13.4277 13.6108L14.3188 16.2109C14.502 16.7725 14.8193 16.9922 15.2588 16.9922C15.7959 16.9922 16.1621 16.6382 16.1621 16.1499C16.1621 15.9546 16.1133 15.7837 16.0278 15.5151L12.6099 6.29883C12.3657 5.66406 11.9019 5.33447 11.2305 5.33447C10.5713 5.33447 10.1196 5.66406 9.87549 6.29883L6.45752 15.5151C6.37207 15.7837 6.32324 15.9546 6.32324 16.1377C6.32324 16.6504 6.68945 16.9922 7.22656 16.9922ZM9.5459 12.146L11.1816 7.42188L11.3037 7.42188L12.9395 12.146Z" fill="#5ac8f5"/>
 </g>
</svg>
