<?xml version="1.0" encoding="UTF-8"?>
<!--Generator: Apple Native CoreSVG 175.5-->
<!DOCTYPE svg
PUBLIC "-//W3C//DTD SVG 1.1//EN"
       "http://www.w3.org/Graphics/SVG/1.1/DTD/svg11.dtd">
<svg version="1.1" xmlns="http://www.w3.org/2000/svg" xmlns:xlink="http://www.w3.org/1999/xlink" width="19.3604" height="33.1665">
 <g>
  <rect height="33.1665" opacity="0" width="19.3604" x="0" y="0"/>
  <path d="M3.60107 30.8472L15.7593 30.8472C17.8711 30.8472 19.3604 29.3579 19.3604 27.2461L19.3604 10.3027C19.3604 8.17871 17.8711 6.70166 15.7593 6.70166L3.60107 6.70166C1.48926 6.70166 0 8.17871 0 10.3027L0 27.2461C0 29.3579 1.48926 30.8472 3.60107 30.8472ZM3.62549 28.8818C2.63672 28.8818 1.96533 28.1738 1.96533 27.1484L1.96533 10.3882C1.96533 9.36279 2.63672 8.66699 3.62549 8.66699L15.7349 8.66699C16.7236 8.66699 17.395 9.36279 17.395 10.3882L17.395 27.1484C17.395 28.1738 16.7236 28.8818 15.7349 28.8818ZM0.915527 25.8667L18.4814 25.8667L18.4814 23.9014L0.915527 23.9014ZM4.24805 8.10547L6.14014 8.10547L6.14014 2.74658C6.14014 2.16064 6.56738 1.78223 7.20215 1.78223L12.2803 1.78223C12.8418 1.78223 13.2202 2.16064 13.2202 2.74658L13.2202 8.08105L15.1123 8.08105L15.1123 2.771C15.1123 1.07422 14.0503 0 12.3657 0L7.1167 0C5.35889 0 4.24805 1.07422 4.24805 2.771ZM4.08936 32.6294L4.84619 32.6294C5.50537 32.6294 5.93262 32.2021 5.93262 31.5552L5.93262 29.6997L3.00293 29.6997L3.00293 31.5552C3.00293 32.2021 3.43018 32.6294 4.08936 32.6294ZM14.5142 32.6294L15.271 32.6294C15.918 32.6294 16.3574 32.2021 16.3574 31.5552L16.3574 29.6997L13.4277 29.6997L13.4277 31.5552C13.4277 32.2021 13.855 32.6294 14.5142 32.6294Z" fill="#5ac8f5"/>
 </g>
</svg>
