<?xml version="1.0" encoding="UTF-8"?>
<!--Generator: Apple Native CoreSVG 175.5-->
<!DOCTYPE svg
PUBLIC "-//W3C//DTD SVG 1.1//EN"
       "http://www.w3.org/Graphics/SVG/1.1/DTD/svg11.dtd">
<svg version="1.1" xmlns="http://www.w3.org/2000/svg" xmlns:xlink="http://www.w3.org/1999/xlink" width="35.3261" height="27.1118">
 <g>
  <rect height="27.1118" opacity="0" width="35.3261" x="0" y="0"/>
  <path d="M3.83301 24.8047L20.5078 24.8047C19.7998 24.1943 19.5312 23.5352 19.3604 22.8394L3.85742 22.8394C2.66113 22.8394 1.96533 22.1924 1.96533 20.9229L1.96533 6.21338C1.96533 4.94385 2.66113 4.29688 3.85742 4.29688L24.9268 4.29688C26.1475 4.29688 26.8188 4.94385 26.8188 6.21338L26.8188 13.0981C27.4658 13.0249 28.0884 13.0249 28.7842 13.0981L28.7842 6.11572C28.7842 3.58887 27.5146 2.33154 24.9512 2.33154L3.83301 2.33154C1.28174 2.33154 0 3.60107 0 6.11572L0 21.0205C0 23.5352 1.28174 24.8047 3.83301 24.8047ZM16.3696 7.94678L5.0415 7.94678C4.60205 7.94678 4.23584 8.30078 4.23584 8.75244C4.23584 9.19189 4.60205 9.5459 5.0415 9.5459L16.3696 9.5459ZM17.9443 11.1572C19.2627 11.1572 20.3613 10.0586 20.3613 8.74023C20.3613 7.40967 19.2627 6.32324 17.9443 6.32324C16.6138 6.32324 15.5273 7.42188 15.5273 8.74023C15.5273 10.0586 16.6016 11.1572 17.9443 11.1572ZM17.9443 9.93652C17.2607 9.93652 16.7603 9.41162 16.7603 8.74023C16.7603 8.05664 17.2607 7.55615 17.9443 7.55615C18.6279 7.55615 19.1406 8.06885 19.1406 8.74023C19.1406 9.41162 18.6279 9.93652 17.9443 9.93652ZM23.7915 7.94678L19.5679 7.94678L19.5679 9.5459L23.7915 9.5459C24.1943 9.5459 24.5483 9.19189 24.5483 8.75244C24.5483 8.30078 24.1943 7.94678 23.7915 7.94678ZM5.00488 13.9771C4.60205 13.9771 4.23584 14.3433 4.23584 14.7827C4.23584 15.2222 4.60205 15.5762 5.00488 15.5762L9.13086 15.5762L9.13086 13.9771ZM10.8765 17.1875C12.207 17.1875 13.2935 16.1011 13.2935 14.7827C13.2935 13.4644 12.207 12.3535 10.8765 12.3535C9.53369 12.3535 8.47168 13.4644 8.47168 14.7827C8.47168 16.1011 9.5459 17.1875 10.8765 17.1875ZM10.8765 15.9668C10.2051 15.9668 9.69238 15.4541 9.69238 14.7827C9.69238 14.0869 10.2051 13.5864 10.8765 13.5864C11.5601 13.5864 12.0728 14.0869 12.0728 14.7827C12.0728 15.4419 11.5601 15.9668 10.8765 15.9668ZM12.4878 15.5762L22.0825 15.5762C22.6685 14.9414 23.3398 14.3921 24.1089 13.9771L12.4878 13.9771Z" fill="#5ac8f5" fill-opacity="0.5"/>
  <path d="M31.4575 23.8037C30.603 24.8901 29.2847 25.5981 27.8076 25.5981C25.2441 25.5981 23.1201 23.4741 23.1201 20.9106L21.6064 20.9106C21.6064 24.3164 24.4019 27.1118 27.8076 27.1118C29.7241 27.1118 31.4575 26.2207 32.5806 24.8291C33.3008 23.9746 32.0923 23.0347 31.4575 23.8037ZM21.9482 19.4824L20.459 21.4478C20.0806 21.9482 20.3491 22.4731 20.9839 22.4731L24.0845 22.4731C24.7192 22.4731 25.0122 21.9116 24.6216 21.4478L23.0103 19.4824C22.6807 19.0918 22.2656 19.0796 21.9482 19.4824ZM24.1577 18.0176C25.0122 16.9312 26.3306 16.2231 27.8076 16.2231C30.3711 16.2231 32.4951 18.3472 32.4951 20.9106L34.0088 20.9106C34.0088 17.5171 31.2012 14.7095 27.8076 14.7095C25.8789 14.7095 24.1577 15.6128 23.0347 16.9922C22.3145 17.8467 23.5107 18.7866 24.1577 18.0176ZM33.667 22.3389L35.144 20.3735C35.5347 19.873 35.2661 19.3481 34.6313 19.3481L31.5186 19.3481C30.8838 19.3481 30.5908 19.9097 30.9937 20.3735L32.5928 22.3389C32.9224 22.7417 33.3496 22.7539 33.667 22.3389Z" fill="#5ac8f5"/>
 </g>
</svg>
