<?xml version="1.0" encoding="UTF-8"?>
<!--Generator: Apple Native CoreSVG 175.5-->
<!DOCTYPE svg
PUBLIC "-//W3C//DTD SVG 1.1//EN"
       "http://www.w3.org/Graphics/SVG/1.1/DTD/svg11.dtd">
<svg version="1.1" xmlns="http://www.w3.org/2000/svg" xmlns:xlink="http://www.w3.org/1999/xlink" width="24.9023" height="24.9146">
 <g>
  <rect height="24.9146" opacity="0" width="24.9023" x="0" y="0"/>
  <path d="M12.4512 24.9023C19.2627 24.9023 24.9023 19.2505 24.9023 12.4512C24.9023 5.63965 19.2505 0 12.439 0C5.63965 0 0 5.63965 0 12.4512C0 19.2505 5.65186 24.9023 12.4512 24.9023ZM8.17871 17.8589C6.46973 17.8589 5.13916 16.8091 4.79736 15.6494C4.76074 15.5029 4.73633 15.3687 4.73633 15.1978C4.73633 14.7461 5.0293 14.4409 5.46875 14.4409C5.82275 14.4409 6.03027 14.6362 6.18896 15.0269C6.53076 15.918 7.20215 16.394 8.19092 16.394C9.39941 16.394 10.2417 15.6616 10.2417 14.6851C10.2417 13.6597 9.47266 13.0005 8.28857 13.0005L7.54395 13.0005C7.12891 13.0005 6.84814 12.6831 6.84814 12.2803C6.84814 11.8164 7.14111 11.5234 7.54395 11.5234L8.21533 11.5234C9.22852 11.5234 9.92432 10.8643 9.92432 9.94873C9.92432 9.06982 9.22852 8.47168 8.22754 8.47168C7.25098 8.47168 6.65283 8.94775 6.37207 9.83887C6.25 10.2417 6.04248 10.437 5.66406 10.437C5.22461 10.437 4.94385 10.1196 4.94385 9.66797C4.94385 9.49707 4.94385 9.375 4.96826 9.21631C5.29785 7.9834 6.56738 7.00684 8.27637 7.00684C10.144 7.00684 11.4746 8.12988 11.4746 9.74121C11.4746 10.9253 10.6567 11.9751 9.61914 12.146L9.61914 12.2192C10.8887 12.3413 11.8164 13.4155 11.8164 14.7583C11.8164 16.5649 10.3271 17.8589 8.17871 17.8589ZM16.6504 17.8589C14.4897 17.8589 13.0493 15.7959 13.0493 12.439C13.0493 9.06982 14.4897 7.00684 16.6504 7.00684C18.8232 7.00684 20.2515 9.06982 20.2515 12.439C20.2515 15.7959 18.8232 17.8589 16.6504 17.8589ZM16.6504 16.3208C17.8589 16.3208 18.6035 14.8438 18.6035 12.439C18.6035 10.022 17.8467 8.54492 16.6504 8.54492C15.4663 8.54492 14.7095 10.022 14.7095 12.439C14.7095 14.8438 15.4663 16.3208 16.6504 16.3208Z" fill="#5ac8f5"/>
 </g>
</svg>
