<?xml version="1.0" encoding="UTF-8"?>
<!--Generator: Apple Native CoreSVG 175.5-->
<!DOCTYPE svg
PUBLIC "-//W3C//DTD SVG 1.1//EN"
       "http://www.w3.org/Graphics/SVG/1.1/DTD/svg11.dtd">
<svg version="1.1" xmlns="http://www.w3.org/2000/svg" xmlns:xlink="http://www.w3.org/1999/xlink" width="28.4546" height="24.9146">
 <g>
  <rect height="24.9146" opacity="0" width="28.4546" x="0" y="0"/>
  <path d="M12.4512 24.9023C14.4165 24.9023 16.3086 24.4141 17.981 23.5718C17.9688 23.4497 17.9688 23.3398 17.9688 23.2178L17.9688 21.2036C17.5537 21.4722 17.1143 21.7285 16.6382 21.936C15.979 22.2534 15.5151 21.8384 15.5029 21.2158C15.4297 18.5425 16.9067 16.1743 19.104 14.9658C19.4092 12.0117 21.4844 10.2417 24.0479 10.2417C24.2676 10.2417 24.4995 10.2661 24.707 10.3149C23.6816 4.50439 18.5181 0 12.439 0C5.62744 0 0 5.63965 0 12.4512C0 19.2505 5.63965 24.9023 12.4512 24.9023ZM3.85742 6.70166C5.65186 3.91846 8.81348 2.0752 12.4268 2.0752C16.0278 2.0752 19.1895 3.91846 20.9961 6.68945C21.4844 7.38525 21.2524 8.1665 20.4224 8.1665L4.43115 8.1665C3.61328 8.1665 3.36914 7.38525 3.85742 6.70166ZM12.4268 15.7715C10.9253 15.7715 9.7168 14.563 9.7168 13.0493C9.7168 11.5601 10.9253 10.3516 12.4268 10.3516C13.9282 10.3516 15.1367 11.5601 15.1367 13.0493C15.1367 14.563 13.9282 15.7715 12.4268 15.7715ZM2.4292 15.1733C2.22168 14.4165 2.64893 14.0747 3.28369 14.1602C6.7749 14.563 9.48486 17.627 9.36279 21.2158C9.36279 21.8384 8.88672 22.2534 8.23975 21.936C5.34668 20.6421 3.23486 18.1763 2.4292 15.1733ZM19.6289 23.3032C19.6289 24.2065 20.0439 24.6338 20.8862 24.6338L27.2095 24.6338C28.0518 24.6338 28.4546 24.2065 28.4546 23.3032L28.4546 18.4326C28.4546 17.5781 28.1006 17.1631 27.3804 17.1143L27.3804 15.6616C27.3804 13.4155 26.0376 11.9141 24.0479 11.9141C22.0581 11.9141 20.7153 13.4155 20.7153 15.6616L20.7153 17.1143C19.9951 17.1631 19.6289 17.5781 19.6289 18.4326ZM21.9849 17.1021L21.9849 15.5273C21.9849 14.0991 22.8149 13.147 24.0479 13.147C25.2808 13.147 26.1108 14.0991 26.1108 15.5273L26.1108 17.1021Z" fill="#5ac8f5"/>
 </g>
</svg>
