<?xml version="1.0" encoding="UTF-8"?>
<!--Generator: Apple Native CoreSVG 175.5-->
<!DOCTYPE svg
PUBLIC "-//W3C//DTD SVG 1.1//EN"
       "http://www.w3.org/Graphics/SVG/1.1/DTD/svg11.dtd">
<svg version="1.1" xmlns="http://www.w3.org/2000/svg" xmlns:xlink="http://www.w3.org/1999/xlink" width="23.7549" height="25.647">
 <g>
  <rect height="25.647" opacity="0" width="23.7549" x="0" y="0"/>
  <path d="M0 19.0674C0 20.6177 1.23291 21.8384 2.69775 21.9116C2.30713 21.4233 2.11182 20.9595 2.11182 20.5322C2.11182 19.519 3.05176 18.7256 4.02832 18.7256C4.79736 18.7256 5.18799 19.1162 5.70068 19.7388C5.74951 19.519 5.77393 19.2993 5.77393 19.0674L5.77393 6.55518C5.77393 6.32324 5.74951 6.11572 5.70068 5.896C5.2124 6.48193 4.82178 6.89697 4.04053 6.89697C3.05176 6.89697 2.11182 6.11572 2.11182 5.10254C2.11182 4.67529 2.30713 4.22363 2.69775 3.72314C1.24512 3.79639 0 5.00488 0 6.55518ZM2.90527 12.6587C1.81885 12.6587 0.927734 11.7798 0.927734 10.7056C0.927734 9.61914 1.81885 8.74023 2.90527 8.74023C3.95508 8.74023 4.84619 9.63135 4.84619 10.7056C4.84619 11.7798 3.96729 12.6587 2.90527 12.6587ZM2.90527 11.6943C3.45459 11.6943 3.88184 11.2671 3.88184 10.7056C3.88184 10.144 3.45459 9.70459 2.90527 9.70459C2.31934 9.70459 1.89209 10.144 1.89209 10.7056C1.89209 11.2671 2.31934 11.6943 2.90527 11.6943ZM12.0728 25.6348C18.5303 25.6348 23.7549 19.8975 23.7549 12.8174C23.7549 5.7373 18.5303 0 12.0728 0C8.60596 0 5.45654 1.66016 3.30811 4.35791C3.08838 4.62646 3.00293 4.88281 3.00293 5.12695C3.00293 5.65186 3.479 6.01807 3.9917 6.01807C4.28467 6.01807 4.58984 5.896 4.80957 5.61523C6.5918 3.34473 9.22852 1.96533 12.0728 1.96533C17.4316 1.96533 21.7773 6.82373 21.7773 12.8174C21.7773 18.811 17.4316 23.6694 12.0728 23.6694C9.22852 23.6694 6.5918 22.2778 4.80957 20.0195C4.58984 19.7388 4.28467 19.6167 3.9917 19.6167C3.479 19.6167 3.00293 19.9829 3.00293 20.5078C3.00293 20.7397 3.08838 21.0083 3.30811 21.2769C5.45654 23.9746 8.60596 25.6348 12.0728 25.6348Z" fill="#5ac8f5"/>
 </g>
</svg>
