<?xml version="1.0" encoding="UTF-8"?>
<!--Generator: Apple Native CoreSVG 175.5-->
<!DOCTYPE svg
PUBLIC "-//W3C//DTD SVG 1.1//EN"
       "http://www.w3.org/Graphics/SVG/1.1/DTD/svg11.dtd">
<svg version="1.1" xmlns="http://www.w3.org/2000/svg" xmlns:xlink="http://www.w3.org/1999/xlink" width="25.1343" height="29.9683">
 <g>
  <rect height="29.9683" opacity="0" width="25.1343" x="0" y="0"/>
  <path d="M2.74658 13.0737C2.74658 16.0522 5.40771 19.1406 7.99561 19.1406C10.2417 19.1406 11.5356 17.1997 12.7563 13.8428C12.915 13.8428 13.0127 13.8306 13.1348 13.8062L13.1348 16.9312C13.1348 18.7378 14.0503 19.6777 15.7959 19.6777C18.7622 19.6777 21.8628 17.0166 21.8628 14.4409C21.8628 12.3047 20.105 10.8887 16.5649 9.68018C16.5649 9.53369 16.5527 9.42383 16.5161 9.30176L19.6289 9.30176C21.4233 9.30176 22.3999 8.37402 22.3999 6.64062C22.3999 3.67432 19.7144 0.57373 17.1387 0.57373C14.9414 0.57373 13.6353 2.63672 12.3901 5.85938C12.2314 5.85938 12.1338 5.87158 12.0239 5.896L12.0239 2.79541C12.0239 0.98877 11.0962 0.0244141 9.33838 0.0244141C6.38428 0.0488281 3.28369 2.69775 3.28369 5.27344C3.28369 7.51953 5.23682 8.81348 8.54492 10.0342C8.54492 10.1807 8.55713 10.2905 8.58154 10.4004L5.50537 10.4004C3.69873 10.4004 2.74658 11.3403 2.74658 13.0737ZM12.561 11.7676C11.5112 11.7676 10.6445 10.9253 10.6445 9.86328C10.6445 8.78906 11.5112 7.93457 12.561 7.93457C13.623 7.93457 14.502 8.78906 14.502 9.86328C14.502 10.9253 13.623 11.7676 12.561 11.7676ZM12.561 29.9683C19.7144 29.9683 25.1343 28.4424 25.1343 25.8301C25.1343 24.1821 22.9614 22.9614 19.4946 22.29L18.4448 23.938C21.4722 24.3652 23.291 25.0977 23.291 25.8301C23.291 26.9531 18.9575 28.125 12.561 28.125C6.17676 28.125 1.84326 26.9531 1.84326 25.8301C1.84326 25.0977 3.66211 24.3652 6.68945 23.938L5.62744 22.29C2.17285 22.9614 0 24.1821 0 25.8301C0 28.4424 5.41992 29.9683 12.561 29.9683ZM4.6875 21.7896L5.9082 24.6582C6.09131 25.0732 6.5918 25.1587 6.93359 24.6704L8.44727 22.4609C8.75244 22.0337 8.63037 21.5332 8.06885 21.4233L5.3833 20.9595C4.78516 20.8496 4.50439 21.3501 4.6875 21.7896ZM20.4468 21.7896C20.6299 21.3501 20.3369 20.8496 19.751 20.9595L17.0654 21.4233C16.5039 21.5332 16.3818 22.0337 16.6748 22.4609L18.2007 24.6704C18.5425 25.1587 19.0308 25.0732 19.2139 24.6582Z" fill="#5ac8f5"/>
 </g>
</svg>
