<?xml version="1.0" encoding="UTF-8"?>
<!--Generator: Apple Native CoreSVG 175.5-->
<!DOCTYPE svg
PUBLIC "-//W3C//DTD SVG 1.1//EN"
       "http://www.w3.org/Graphics/SVG/1.1/DTD/svg11.dtd">
<svg version="1.1" xmlns="http://www.w3.org/2000/svg" xmlns:xlink="http://www.w3.org/1999/xlink" width="29.1016" height="25.4517">
 <g>
  <rect height="25.4517" opacity="0" width="29.1016" x="0" y="0"/>
  <path d="M2.80762 21.1182L26.2817 21.1182C28.0396 21.1182 29.1016 20.0562 29.1016 18.2983L29.1016 3.66211C29.1016 1.9043 28.0396 0.854492 26.2817 0.854492L2.80762 0.854492C1.06201 0.854492 0 1.9043 0 3.66211L0 18.2983C0 20.0562 1.06201 21.1182 2.80762 21.1182ZM2.49023 15.7349C2.12402 15.7349 1.96533 15.6006 1.96533 15.21L1.96533 3.69873C1.96533 3.14941 2.30713 2.81982 2.84424 2.81982L26.2573 2.81982C26.7944 2.81982 27.1362 3.14941 27.1362 3.69873L27.1362 15.21C27.1362 15.6006 26.9653 15.7349 26.5991 15.7349ZM10.6934 24.0234L18.4082 24.0234L18.4082 20.9595L10.6934 20.9595ZM10.6201 25.4517L18.4814 25.4517C19.0186 25.4517 19.458 25.0122 19.458 24.4629C19.458 23.9136 19.0186 23.4741 18.4814 23.4741L10.6201 23.4741C10.083 23.4741 9.63135 23.9136 9.63135 24.4629C9.63135 25.0122 10.083 25.4517 10.6201 25.4517Z" fill="#5ac8f5" fill-opacity="0.5"/>
  <path d="M11.5234 13.3057C11.5234 13.8062 12.0483 14.0015 12.4634 13.7573L19.0063 9.91211C19.4092 9.66797 19.397 9.13086 18.9941 8.89893L12.4634 5.05371C12.0483 4.80957 11.5234 4.99268 11.5234 5.50537Z" fill="#5ac8f5"/>
 </g>
</svg>
