<?xml version="1.0" encoding="UTF-8"?>
<!--Generator: Apple Native CoreSVG 175.5-->
<!DOCTYPE svg
PUBLIC "-//W3C//DTD SVG 1.1//EN"
       "http://www.w3.org/Graphics/SVG/1.1/DTD/svg11.dtd">
<svg version="1.1" xmlns="http://www.w3.org/2000/svg" xmlns:xlink="http://www.w3.org/1999/xlink" width="29.6875" height="25.6714">
 <g>
  <rect height="25.6714" opacity="0" width="29.6875" x="0" y="0"/>
  <path d="M0.854492 5.71289L8.54492 5.71289L8.54492 3.91846L0.854492 3.91846C0.366211 3.91846 0 4.3457 0 4.82178C0 5.29785 0.366211 5.71289 0.854492 5.71289ZM0.854492 21.7407L4.45557 21.7407L4.45557 19.9463L0.854492 19.9463C0.366211 19.9463 0 20.3613 0 20.8374C0 21.3135 0.366211 21.7407 0.854492 21.7407ZM21.1426 5.71289L28.3691 5.71289C28.8452 5.71289 29.2236 5.29785 29.2236 4.82178C29.2236 4.3457 28.8452 3.91846 28.3691 3.91846L21.1426 3.91846ZM25.2197 21.7407L28.833 21.7407C29.3091 21.7407 29.6875 21.3135 29.6875 20.8374C29.6875 20.3613 29.3091 19.9463 28.833 19.9463L25.2197 19.9463Z" fill="#5ac8f5"/>
  <path d="M10.2905 9.63135L19.397 9.63135C21.2158 9.63135 22.1924 8.66699 22.1924 6.88477L22.1924 2.74658C22.1924 0.964355 21.2158 0 19.397 0L10.2905 0C8.47168 0 7.49512 0.964355 7.49512 2.74658L7.49512 6.88477C7.49512 8.66699 8.47168 9.63135 10.2905 9.63135ZM5.96924 25.6592L23.7183 25.6592C25.5371 25.6592 26.5137 24.6826 26.5137 22.9126L26.5137 18.7744C26.5137 16.9922 25.5371 16.0156 23.7183 16.0156L5.96924 16.0156C4.15039 16.0156 3.17383 16.9922 3.17383 18.7744L3.17383 22.9126C3.17383 24.6826 4.15039 25.6592 5.96924 25.6592Z" fill="#5ac8f5" fill-opacity="0.5"/>
 </g>
</svg>
