<?xml version="1.0" encoding="UTF-8"?>
<!--Generator: Apple Native CoreSVG 175.5-->
<!DOCTYPE svg
PUBLIC "-//W3C//DTD SVG 1.1//EN"
       "http://www.w3.org/Graphics/SVG/1.1/DTD/svg11.dtd">
<svg version="1.1" xmlns="http://www.w3.org/2000/svg" xmlns:xlink="http://www.w3.org/1999/xlink" width="24.9023" height="24.9146">
 <g>
  <rect height="24.9146" opacity="0" width="24.9023" x="0" y="0"/>
  <path d="M12.4512 24.9023C19.2627 24.9023 24.9023 19.2505 24.9023 12.4512C24.9023 5.63965 19.2505 0 12.439 0C5.63965 0 0 5.63965 0 12.4512C0 19.2505 5.65186 24.9023 12.4512 24.9023Z" fill="#5ac8f5" fill-opacity="0.25"/>
  <path d="M9.97314 17.8589C9.48486 17.8589 9.22852 17.4927 9.22852 17.0044L9.22852 15.5273L5.5542 15.5273C4.91943 15.5273 4.46777 15.1245 4.46777 14.4531C4.46777 14.1113 4.55322 13.8306 4.74854 13.4399C5.60303 11.9141 6.87256 9.76562 7.91016 7.99561C8.3252 7.2998 8.77686 7.01904 9.50928 7.01904C10.2417 7.01904 10.7544 7.49512 10.7544 8.22754L10.7544 14.1113L11.438 14.1113C11.8652 14.1113 12.146 14.3799 12.146 14.8315C12.146 15.271 11.8652 15.5273 11.438 15.5273L10.7544 15.5273L10.7544 17.0044C10.7544 17.5049 10.498 17.8589 9.97314 17.8589ZM9.22852 14.1113L9.22852 8.72803L9.15527 8.72803C8.1543 10.437 6.87256 12.6343 6.12793 14.0625L6.12793 14.1113ZM14.209 17.5903C13.7573 17.5903 13.4766 17.2974 13.4766 16.8457C13.4766 16.5894 13.5498 16.3696 13.7451 16.1621L17.0532 12.2559C17.6636 11.5601 18.3228 10.8521 18.3228 10.0342C18.3228 9.10645 17.6636 8.48389 16.6626 8.48389C15.7593 8.48389 15.1245 8.93555 14.8071 9.8877C14.6362 10.2661 14.4531 10.4736 14.0869 10.4736C13.6353 10.4736 13.3789 10.1685 13.3789 9.7168C13.3789 9.57031 13.4033 9.42383 13.4399 9.26514C13.7695 7.9834 15.1001 7.01904 16.6016 7.01904C18.5791 7.01904 19.8486 8.14209 19.8486 9.8999C19.8486 11.1572 19.1528 12.0605 18.2251 13.147L15.7593 16.0034L15.7593 16.1011L19.4214 16.1011C19.8242 16.1011 20.1294 16.3574 20.1294 16.8335C20.1294 17.2852 19.8242 17.5903 19.4214 17.5903Z" fill="#5ac8f5"/>
 </g>
</svg>
