<?xml version="1.0" encoding="UTF-8"?>
<!--Generator: Apple Native CoreSVG 175.5-->
<!DOCTYPE svg
PUBLIC "-//W3C//DTD SVG 1.1//EN"
       "http://www.w3.org/Graphics/SVG/1.1/DTD/svg11.dtd">
<svg version="1.1" xmlns="http://www.w3.org/2000/svg" xmlns:xlink="http://www.w3.org/1999/xlink" width="26.0742" height="18.7378">
 <g>
  <rect height="18.7378" opacity="0" width="26.0742" x="0" y="0"/>
  <path d="M1.0498 4.15039L3.07617 4.15039C3.85742 4.15039 4.13818 3.86963 4.13818 3.10059L4.13818 1.07422C4.13818 0.292969 3.85742 0.012207 3.07617 0.012207L1.0498 0.012207C0.280762 0.012207 0 0.292969 0 1.07422L0 3.10059C0 3.86963 0.280762 4.15039 1.0498 4.15039ZM8.34961 4.15039L10.376 4.15039C11.145 4.15039 11.4258 3.86963 11.4258 3.10059L11.4258 1.07422C11.4258 0.292969 11.145 0.012207 10.376 0.012207L8.34961 0.012207C7.56836 0.012207 7.2876 0.292969 7.2876 1.07422L7.2876 3.10059C7.2876 3.86963 7.56836 4.15039 8.34961 4.15039ZM15.6372 4.15039L17.6636 4.15039C18.4326 4.15039 18.7134 3.86963 18.7134 3.10059L18.7134 1.07422C18.7134 0.292969 18.4326 0.012207 17.6636 0.012207L15.6372 0.012207C14.8682 0.012207 14.5874 0.292969 14.5874 1.07422L14.5874 3.10059C14.5874 3.86963 14.8682 4.15039 15.6372 4.15039ZM22.9248 4.15039L24.9512 4.15039C25.7324 4.15039 26.0132 3.86963 26.0132 3.10059L26.0132 1.07422C26.0132 0.292969 25.7324 0.012207 24.9512 0.012207L22.9248 0.012207C22.1558 0.012207 21.875 0.292969 21.875 1.07422L21.875 3.10059C21.875 3.86963 22.1558 4.15039 22.9248 4.15039ZM1.11084 11.438L3.13721 11.438C3.91846 11.438 4.19922 11.1572 4.19922 10.3882L4.19922 8.36182C4.19922 7.59277 3.91846 7.31201 3.13721 7.31201L1.11084 7.31201C0.341797 7.31201 0.0610352 7.59277 0.0610352 8.36182L0.0610352 10.3882C0.0610352 11.1572 0.341797 11.438 1.11084 11.438ZM8.41064 11.438L10.437 11.438C11.2061 11.438 11.4868 11.1572 11.4868 10.3882L11.4868 8.36182C11.4868 7.59277 11.2061 7.31201 10.437 7.31201L8.41064 7.31201C7.62939 7.31201 7.34863 7.59277 7.34863 8.36182L7.34863 10.3882C7.34863 11.1572 7.62939 11.438 8.41064 11.438ZM15.6982 11.438L17.7246 11.438C18.4937 11.438 18.7744 11.1572 18.7744 10.3882L18.7744 8.36182C18.7744 7.59277 18.4937 7.31201 17.7246 7.31201L15.6982 7.31201C14.9292 7.31201 14.6484 7.59277 14.6484 8.36182L14.6484 10.3882C14.6484 11.1572 14.9292 11.438 15.6982 11.438ZM22.998 11.438L25.0122 11.438C25.7935 11.438 26.0742 11.1572 26.0742 10.3882L26.0742 8.36182C26.0742 7.59277 25.7935 7.31201 25.0122 7.31201L22.998 7.31201C22.2168 7.31201 21.936 7.59277 21.936 8.36182L21.936 10.3882C21.936 11.1572 22.2168 11.438 22.998 11.438ZM1.11084 18.7378L3.13721 18.7378C3.91846 18.7378 4.19922 18.457 4.19922 17.6758L4.19922 15.6616C4.19922 14.8804 3.91846 14.5996 3.13721 14.5996L1.11084 14.5996C0.341797 14.5996 0.0610352 14.8804 0.0610352 15.6616L0.0610352 17.6758C0.0610352 18.457 0.341797 18.7378 1.11084 18.7378ZM8.41064 18.7378L10.437 18.7378C11.2061 18.7378 11.4868 18.457 11.4868 17.6758L11.4868 15.6616C11.4868 14.8804 11.2061 14.5996 10.437 14.5996L8.41064 14.5996C7.62939 14.5996 7.34863 14.8804 7.34863 15.6616L7.34863 17.6758C7.34863 18.457 7.62939 18.7378 8.41064 18.7378ZM15.6982 18.7378L17.7246 18.7378C18.4937 18.7378 18.7744 18.457 18.7744 17.6758L18.7744 15.6616C18.7744 14.8804 18.4937 14.5996 17.7246 14.5996L15.6982 14.5996C14.9292 14.5996 14.6484 14.8804 14.6484 15.6616L14.6484 17.6758C14.6484 18.457 14.9292 18.7378 15.6982 18.7378ZM22.998 18.7378L25.0122 18.7378C25.7935 18.7378 26.0742 18.457 26.0742 17.6758L26.0742 15.6616C26.0742 14.8804 25.7935 14.5996 25.0122 14.5996L22.998 14.5996C22.2168 14.5996 21.936 14.8804 21.936 15.6616L21.936 17.6758C21.936 18.457 22.2168 18.7378 22.998 18.7378Z" fill="#5ac8f5"/>
 </g>
</svg>
