<?xml version="1.0" encoding="UTF-8"?>
<!--Generator: Apple Native CoreSVG 175.5-->
<!DOCTYPE svg
PUBLIC "-//W3C//DTD SVG 1.1//EN"
       "http://www.w3.org/Graphics/SVG/1.1/DTD/svg11.dtd">
<svg version="1.1" xmlns="http://www.w3.org/2000/svg" xmlns:xlink="http://www.w3.org/1999/xlink" width="18.6035" height="25.9155">
 <g>
  <rect height="25.9155" opacity="0" width="18.6035" x="0" y="0"/>
  <path d="M17.627 25.9033C18.1641 25.9033 18.6035 25.4639 18.6035 24.9268L18.6035 2.49023C18.6035 1.00098 17.5903 0 16.0522 0L2.55127 0C1.02539 0 0 1.00098 0 2.49023L0 24.9268C0 25.4639 0.439453 25.9033 0.976562 25.9033C1.52588 25.9033 1.96533 25.4639 1.96533 24.9268L1.96533 2.6123C1.96533 2.22168 2.22168 1.96533 2.58789 1.96533L16.0156 1.96533C16.3818 1.96533 16.6382 2.22168 16.6382 2.6123L16.6382 24.9268C16.6382 25.4639 17.0776 25.9033 17.627 25.9033Z" fill="#5ac8f5" fill-opacity="0.5"/>
  <path d="M14.8071 25.4761C15.0269 25.4761 15.21 25.2808 15.21 25.061L15.21 3.79639C15.21 3.56445 15.0269 3.38135 14.8071 3.38135L3.80859 3.38135C3.57666 3.38135 3.39355 3.56445 3.39355 3.79639L3.39355 25.061C3.39355 25.2808 3.57666 25.4761 3.80859 25.4761ZM6.29883 15.6616C5.76172 15.6616 5.32227 15.2222 5.32227 14.6851C5.32227 14.1357 5.76172 13.7085 6.29883 13.7085C6.83594 13.7085 7.27539 14.1357 7.27539 14.6851C7.27539 15.2222 6.83594 15.6616 6.29883 15.6616Z" fill="#5ac8f5"/>
 </g>
</svg>
