<?xml version="1.0" encoding="UTF-8"?>
<!--Generator: Apple Native CoreSVG 175.5-->
<!DOCTYPE svg
PUBLIC "-//W3C//DTD SVG 1.1//EN"
       "http://www.w3.org/Graphics/SVG/1.1/DTD/svg11.dtd">
<svg version="1.1" xmlns="http://www.w3.org/2000/svg" xmlns:xlink="http://www.w3.org/1999/xlink" width="22.4731" height="22.4976">
 <g>
  <rect height="22.4976" opacity="0" width="22.4731" x="0" y="0"/>
  <path d="M0 21.521C0 22.1069 0.390625 22.4976 0.976562 22.4976L21.5088 22.4976C22.0947 22.4976 22.4731 22.1069 22.4731 21.521L22.4731 0.98877C22.4731 0.402832 22.0947 0.0244141 21.5088 0.0244141L0.976562 0.0244141C0.390625 0.0244141 0 0.402832 0 0.98877ZM1.96533 20.1782L1.96533 2.34375C1.96533 2.0752 2.06299 1.98975 2.31934 1.98975L20.1538 1.98975C20.4224 1.98975 20.5078 2.0752 20.5078 2.34375L20.5078 20.1782C20.5078 20.4346 20.4224 20.5322 20.1538 20.5322L2.31934 20.5322C2.06299 20.5322 1.96533 20.4346 1.96533 20.1782ZM5.07812 18.3594C5.60303 18.3594 6.03027 17.9321 6.03027 17.4194C6.03027 16.8945 5.60303 16.4673 5.07812 16.4673C4.55322 16.4673 4.12598 16.8945 4.12598 17.4194C4.12598 17.9321 4.55322 18.3594 5.07812 18.3594ZM5.07812 15.2832C5.60303 15.2832 6.03027 14.856 6.03027 14.3311C6.03027 13.8062 5.60303 13.3789 5.07812 13.3789C4.55322 13.3789 4.12598 13.8062 4.12598 14.3311C4.12598 14.856 4.55322 15.2832 5.07812 15.2832ZM5.07812 12.1948C5.60303 12.1948 6.03027 11.7676 6.03027 11.2427C6.03027 10.73 5.60303 10.3027 5.07812 10.3027C4.55322 10.3027 4.12598 10.73 4.12598 11.2427C4.12598 11.7676 4.55322 12.1948 5.07812 12.1948ZM5.07812 9.11865C5.60303 9.11865 6.03027 8.69141 6.03027 8.1665C6.03027 7.6416 5.60303 7.21436 5.07812 7.21436C4.55322 7.21436 4.12598 7.6416 4.12598 8.1665C4.12598 8.69141 4.55322 9.11865 5.07812 9.11865ZM5.07812 6.03027C5.60303 6.03027 6.03027 5.60303 6.03027 5.07812C6.03027 4.55322 5.60303 4.12598 5.07812 4.12598C4.55322 4.12598 4.12598 4.55322 4.12598 5.07812C4.12598 5.60303 4.55322 6.03027 5.07812 6.03027ZM8.1665 6.03027C8.6792 6.03027 9.11865 5.60303 9.11865 5.07812C9.11865 4.55322 8.6792 4.12598 8.1665 4.12598C7.6416 4.12598 7.21436 4.55322 7.21436 5.07812C7.21436 5.60303 7.6416 6.03027 8.1665 6.03027ZM11.2427 6.03027C11.7676 6.03027 12.1948 5.60303 12.1948 5.07812C12.1948 4.55322 11.7676 4.12598 11.2427 4.12598C10.7178 4.12598 10.2905 4.55322 10.2905 5.07812C10.2905 5.60303 10.7178 6.03027 11.2427 6.03027ZM14.3311 6.03027C14.856 6.03027 15.2832 5.60303 15.2832 5.07812C15.2832 4.55322 14.856 4.12598 14.3311 4.12598C13.8062 4.12598 13.3789 4.55322 13.3789 5.07812C13.3789 5.60303 13.8062 6.03027 14.3311 6.03027ZM17.4194 6.03027C17.9443 6.03027 18.3716 5.60303 18.3716 5.07812C18.3716 4.55322 17.9443 4.12598 17.4194 4.12598C16.8945 4.12598 16.4673 4.55322 16.4673 5.07812C16.4673 5.60303 16.8945 6.03027 17.4194 6.03027ZM17.4194 9.11865C17.9443 9.11865 18.3716 8.69141 18.3716 8.1665C18.3716 7.6416 17.9443 7.21436 17.4194 7.21436C16.8945 7.21436 16.4673 7.6416 16.4673 8.1665C16.4673 8.69141 16.8945 9.11865 17.4194 9.11865ZM17.4194 12.1948C17.9443 12.1948 18.3716 11.7676 18.3716 11.2427C18.3716 10.73 17.9443 10.3027 17.4194 10.3027C16.8945 10.3027 16.4673 10.73 16.4673 11.2427C16.4673 11.7676 16.8945 12.1948 17.4194 12.1948ZM17.4194 15.2832C17.9443 15.2832 18.3716 14.856 18.3716 14.3311C18.3716 13.8062 17.9443 13.3789 17.4194 13.3789C16.8945 13.3789 16.4673 13.8062 16.4673 14.3311C16.4673 14.856 16.8945 15.2832 17.4194 15.2832ZM17.4194 18.3594C17.9443 18.3594 18.3716 17.9321 18.3716 17.4194C18.3716 16.8945 17.9443 16.4673 17.4194 16.4673C16.8945 16.4673 16.4673 16.8945 16.4673 17.4194C16.4673 17.9321 16.8945 18.3594 17.4194 18.3594ZM14.3311 18.3594C14.856 18.3594 15.2832 17.9321 15.2832 17.4194C15.2832 16.8945 14.856 16.4673 14.3311 16.4673C13.8062 16.4673 13.3789 16.8945 13.3789 17.4194C13.3789 17.9321 13.8062 18.3594 14.3311 18.3594ZM11.2427 18.3594C11.7676 18.3594 12.1948 17.9321 12.1948 17.4194C12.1948 16.8945 11.7676 16.4673 11.2427 16.4673C10.7178 16.4673 10.2905 16.8945 10.2905 17.4194C10.2905 17.9321 10.7178 18.3594 11.2427 18.3594ZM8.1665 18.3594C8.6792 18.3594 9.11865 17.9321 9.11865 17.4194C9.11865 16.8945 8.6792 16.4673 8.1665 16.4673C7.6416 16.4673 7.21436 16.8945 7.21436 17.4194C7.21436 17.9321 7.6416 18.3594 8.1665 18.3594Z" fill="#5ac8f5"/>
 </g>
</svg>
