<?xml version="1.0" encoding="UTF-8"?>
<!--Generator: Apple Native CoreSVG 175.5-->
<!DOCTYPE svg
PUBLIC "-//W3C//DTD SVG 1.1//EN"
       "http://www.w3.org/Graphics/SVG/1.1/DTD/svg11.dtd">
<svg version="1.1" xmlns="http://www.w3.org/2000/svg" xmlns:xlink="http://www.w3.org/1999/xlink" width="26.5259" height="30.3345">
 <g>
  <rect height="30.3345" opacity="0" width="26.5259" x="0" y="0"/>
  <path d="M20.0317 5.49316C21.4844 5.49316 22.6929 4.29688 22.6929 2.83203C22.6929 1.36719 21.4844 0.158691 20.0317 0.158691C18.5669 0.158691 17.3584 1.36719 17.3584 2.83203C17.3584 4.29688 18.5669 5.49316 20.0317 5.49316ZM15.2954 22.6196C16.0034 22.6196 16.5405 22.0581 16.5405 21.3745L16.5405 15.4907C16.5405 15.1489 16.4307 14.8193 16.1987 14.6118L12.9639 11.3892L15.8447 8.49609C16.0278 8.31299 16.333 8.31299 16.5161 8.49609L18.5303 10.5225C18.75 10.7544 19.0796 10.8765 19.397 10.8765L25.2808 10.8765C25.9766 10.8765 26.5259 10.3271 26.5259 9.61914C26.5259 8.93555 25.9766 8.37402 25.2808 8.37402L19.9097 8.37402L15.5396 3.97949C14.9902 3.41797 14.1846 3.10059 13.4033 3.10059L8.80127 3.10059C7.55615 3.10059 7.18994 4.46777 7.97119 5.24902L10.022 7.2876L8.37402 8.89893C7.33643 9.92432 7.33643 11.6699 8.37402 12.6831L10.5469 14.8315L10.5469 21.6675C10.5469 22.3511 11.084 22.9126 11.792 22.9126C12.4756 22.9126 13.0371 22.3511 13.0371 21.6675L13.0371 15.0024L14.0503 16.0034L14.0503 21.3745C14.0503 22.0581 14.6118 22.6196 15.2954 22.6196ZM0.683594 8.6792L12.5122 8.6792L12.5122 7.32422L0.683594 7.32422C0.305176 7.32422 0 7.62939 0 8.00781C0 8.37402 0.305176 8.6792 0.683594 8.6792ZM25.8179 22.0215C26.1841 22.0215 26.5015 21.7041 26.5015 21.3379L26.5015 9.65576L25.1465 9.65576L25.1465 21.3379C25.1465 21.7041 25.4517 22.0215 25.8179 22.0215ZM19.9829 30.3345C20.3613 30.3345 20.6665 30.0293 20.6665 29.6509C20.6665 29.2725 20.3613 28.9795 19.9829 28.9795C19.1406 28.9795 18.9087 28.833 18.2007 28.1372L5.2002 15.1245C4.91943 14.856 4.49219 14.856 4.23584 15.1245C3.96729 15.3809 3.96729 15.8081 4.23584 16.0767L17.4316 29.2725C18.2007 30.0415 19.043 30.3345 19.9829 30.3345ZM23.1445 29.6753C23.5229 29.6753 23.8159 29.3701 23.8159 28.9917C23.8159 28.6133 23.5229 28.3203 23.1445 28.3203C22.3022 28.3203 22.0581 28.1738 21.3501 27.478L8.34961 14.4775C8.06885 14.1968 7.65381 14.1968 7.38525 14.4653C7.12891 14.7339 7.12891 15.1489 7.38525 15.4175L20.5811 28.6133C21.3501 29.3823 22.1924 29.6753 23.1445 29.6753Z" fill="#5ac8f5"/>
 </g>
</svg>
