<?xml version="1.0" encoding="UTF-8"?>
<!--Generator: Apple Native CoreSVG 175.5-->
<!DOCTYPE svg
PUBLIC "-//W3C//DTD SVG 1.1//EN"
       "http://www.w3.org/Graphics/SVG/1.1/DTD/svg11.dtd">
<svg version="1.1" xmlns="http://www.w3.org/2000/svg" xmlns:xlink="http://www.w3.org/1999/xlink" width="22.4731" height="22.4976">
 <g>
  <rect height="22.4976" opacity="0" width="22.4731" x="0" y="0"/>
  <path d="M3.83301 22.4976L18.6401 22.4976C21.2036 22.4976 22.4731 21.228 22.4731 18.7134L22.4731 3.80859C22.4731 1.29395 21.2036 0.0244141 18.6401 0.0244141L3.83301 0.0244141C1.28174 0.0244141 0 1.28174 0 3.80859L0 18.7134C0 21.2402 1.28174 22.4976 3.83301 22.4976Z" fill="#5ac8f5" fill-opacity="0.25"/>
  <path d="M6.73828 11.6943C6.73828 9.375 8.26416 7.77588 10.3271 7.77588C11.3525 7.77588 12.2314 8.17871 12.7808 8.8501L12.7808 6.84814L10.4858 6.84814C10.144 6.84814 9.8999 6.5918 9.8999 6.25C9.8999 5.9082 10.1318 5.63965 10.4858 5.63965L12.7808 5.63965L12.7808 5.05371C12.7808 4.55322 13.0981 4.24805 13.5742 4.24805C14.0381 4.24805 14.3555 4.55322 14.3555 5.05371L14.3555 5.63965L15.1611 5.63965C15.5151 5.63965 15.7593 5.9082 15.7593 6.25C15.7593 6.5918 15.5029 6.84814 15.1611 6.84814L14.3555 6.84814L14.3555 14.9902C14.3555 15.4541 14.0503 15.7593 13.6108 15.7593C13.1592 15.7593 12.8418 15.4541 12.8418 14.9902L12.8418 14.4897C12.2681 15.21 11.3647 15.6128 10.3394 15.6128C8.27637 15.6128 6.73828 14.0015 6.73828 11.6943ZM8.36182 11.7065C8.36182 13.1958 9.26514 14.1724 10.5957 14.1724C11.8896 14.1724 12.8174 13.1348 12.8174 11.7065C12.8174 10.2783 11.8896 9.24072 10.5957 9.24072C9.26514 9.24072 8.36182 10.2173 8.36182 11.7065ZM7.38525 17.0532C7.38525 16.7114 7.6416 16.4429 7.99561 16.4429L14.1357 16.4429C14.4897 16.4429 14.7461 16.6992 14.7461 17.0532C14.7461 17.395 14.4775 17.6636 14.1357 17.6636L7.99561 17.6636C7.65381 17.6636 7.38525 17.395 7.38525 17.0532Z" fill="#5ac8f5"/>
 </g>
</svg>
