<?xml version="1.0" encoding="UTF-8"?>
<!--Generator: Apple Native CoreSVG 175.5-->
<!DOCTYPE svg
PUBLIC "-//W3C//DTD SVG 1.1//EN"
       "http://www.w3.org/Graphics/SVG/1.1/DTD/svg11.dtd">
<svg version="1.1" xmlns="http://www.w3.org/2000/svg" xmlns:xlink="http://www.w3.org/1999/xlink" width="22.4731" height="22.4976">
 <g>
  <rect height="22.4976" opacity="0" width="22.4731" x="0" y="0"/>
  <path d="M3.83301 22.4976L18.6401 22.4976C21.2036 22.4976 22.4731 21.228 22.4731 18.7134L22.4731 3.80859C22.4731 1.29395 21.2036 0.0244141 18.6401 0.0244141L3.83301 0.0244141C1.28174 0.0244141 0 1.28174 0 3.80859L0 18.7134C0 21.2402 1.28174 22.4976 3.83301 22.4976ZM3.85742 20.5322C2.63672 20.5322 1.96533 19.8853 1.96533 18.6157L1.96533 3.90625C1.96533 2.63672 2.63672 1.98975 3.85742 1.98975L18.6157 1.98975C19.8242 1.98975 20.5078 2.63672 20.5078 3.90625L20.5078 18.6157C20.5078 19.8853 19.8242 20.5322 18.6157 20.5322Z" fill="#5ac8f5" fill-opacity="0.5"/>
  <path d="M9.91211 17.041C10.3149 17.041 10.6567 16.8457 10.9009 16.4673L16.4795 7.69043C16.626 7.44629 16.7725 7.17773 16.7725 6.90918C16.7725 6.35986 16.2842 6.00586 15.7837 6.00586C15.4663 6.00586 15.1611 6.20117 14.9292 6.55518L9.86328 14.6851L7.4585 11.5723C7.16553 11.1816 6.89697 11.084 6.56738 11.084C6.03027 11.084 5.61523 11.5112 5.61523 12.0483C5.61523 12.3169 5.7251 12.5732 5.896 12.8052L8.87451 16.4673C9.17969 16.8701 9.50928 17.041 9.91211 17.041Z" fill="#5ac8f5"/>
 </g>
</svg>
