<?xml version="1.0" encoding="UTF-8"?>
<!--Generator: Apple Native CoreSVG 175.5-->
<!DOCTYPE svg
PUBLIC "-//W3C//DTD SVG 1.1//EN"
       "http://www.w3.org/Graphics/SVG/1.1/DTD/svg11.dtd">
<svg version="1.1" xmlns="http://www.w3.org/2000/svg" xmlns:xlink="http://www.w3.org/1999/xlink" width="26.9531" height="30.7496">
 <g>
  <rect height="30.7496" opacity="0" width="26.9531" x="0" y="0"/>
  <path d="M3.83301 27.4659L23.4863 27.4659C25.6836 27.4659 26.9531 26.1963 26.9531 23.6817L26.9531 11.5235C26.9531 9.00884 25.6714 7.73931 23.1201 7.73931L16.1377 7.73931L16.1377 9.60698L23.1934 9.60698C24.3896 9.60698 25.0854 10.254 25.0854 11.5235L25.0854 23.6817C25.0854 24.939 24.3896 25.5982 23.1934 25.5982L3.75977 25.5982C2.53906 25.5982 1.86768 24.939 1.86768 23.6695L1.86768 11.5113C1.86768 10.254 2.53906 9.60698 3.75977 9.60698L10.8643 9.60698L10.8643 7.73931L3.4668 7.73931C1.26953 7.73931 0 8.99663 0 11.5235L0 23.6817C0 26.1963 1.28174 27.4659 3.83301 27.4659ZM13.501 20.459C14.3555 20.459 15.1245 20.0684 16.04 19.2749L25.9521 10.5713L24.6826 9.30181L14.978 17.8345C14.4043 18.3228 13.9771 18.5791 13.501 18.5791C13.0127 18.5791 12.5488 18.2984 12.0239 17.8345L2.27051 9.25298L0.98877 10.5225L10.9619 19.2749C11.8652 20.0684 12.6343 20.459 13.501 20.459ZM24.5605 25.8667L25.8301 24.585L18.0542 16.8946L16.7847 18.1641ZM2.4292 25.879L10.1929 18.1885L8.92334 16.919L1.15967 24.5972Z" fill="#5ac8f5" fill-opacity="0.5"/>
  <path d="M4.69971 2.80766L7.21436 5.44438C7.75146 5.98149 8.3252 5.8228 8.45947 5.10259L8.70361 3.79643C11.2915 4.23589 12.5244 5.79839 12.5244 7.69048L12.5244 13.3667C12.5244 14.0015 12.915 14.4166 13.501 14.4166C14.0869 14.4166 14.4653 14.0015 14.4653 13.3667L14.4653 7.69048C14.4653 5.79839 15.7104 4.23589 18.2983 3.79643L18.5425 5.10259C18.6768 5.8228 19.2505 5.98149 19.7754 5.44438L22.3022 2.80766C22.7295 2.38042 22.6074 1.84331 22.0581 1.58696L18.7378 0.109911C18.0542-0.195265 17.6025 0.158739 17.7368 0.878954L17.981 2.16069C16.0767 2.53911 13.9648 3.77202 13.501 5.15141C13.0371 3.77202 10.9253 2.53911 9.021 2.16069L9.26514 0.878954C9.39941 0.158739 8.94775-0.195265 8.25195 0.109911L4.94385 1.58696C4.39453 1.84331 4.27246 2.38042 4.69971 2.80766Z" fill="#5ac8f5"/>
 </g>
</svg>
