<?xml version="1.0" encoding="UTF-8"?>
<!--Generator: Apple Native CoreSVG 175.5-->
<!DOCTYPE svg
PUBLIC "-//W3C//DTD SVG 1.1//EN"
       "http://www.w3.org/Graphics/SVG/1.1/DTD/svg11.dtd">
<svg version="1.1" xmlns="http://www.w3.org/2000/svg" xmlns:xlink="http://www.w3.org/1999/xlink" width="26.9043" height="26.9653">
 <g>
  <rect height="26.9653" opacity="0" width="26.9043" x="0" y="0"/>
  <path d="M7.25098 26.9653C7.72705 26.9653 8.08105 26.7212 8.65479 26.1841L13.0615 22.1558L21.3135 22.1558C24.9512 22.1558 26.9043 20.1538 26.9043 16.5771L26.9043 7.22656C26.9043 3.6499 24.9512 1.63574 21.3135 1.63574L5.59082 1.63574C1.95312 1.63574 0 3.6377 0 7.22656L0 16.5771C0 20.166 1.95312 22.1558 5.59082 22.1558L6.16455 22.1558L6.16455 25.708C6.16455 26.4648 6.55518 26.9653 7.25098 26.9653Z" fill="#5ac8f5" fill-opacity="0.25"/>
  <path d="M11.4258 18.4448C10.9375 18.4448 10.5713 18.0908 10.5713 17.6025C10.5713 17.1509 10.9375 16.7847 11.4258 16.7847L12.8662 16.7847L12.8662 11.4624L11.6211 11.4624C11.145 11.4624 10.7666 11.1206 10.7666 10.6323C10.7666 10.1807 11.145 9.81445 11.6211 9.81445L13.8184 9.81445C14.4043 9.81445 14.7217 10.2417 14.7217 10.8643L14.7217 16.7847L16.1621 16.7847C16.6504 16.7847 17.0166 17.1509 17.0166 17.6025C17.0166 18.0908 16.6504 18.4448 16.1621 18.4448ZM13.3545 7.88574C12.5122 7.88574 11.8286 7.20215 11.8286 6.34766C11.8286 5.49316 12.5122 4.80957 13.3545 4.80957C14.209 4.80957 14.8804 5.49316 14.8804 6.34766C14.8804 7.20215 14.209 7.88574 13.3545 7.88574Z" fill="#5ac8f5"/>
 </g>
</svg>
