<?xml version="1.0" encoding="UTF-8"?>
<!--Generator: Apple Native CoreSVG 175.5-->
<!DOCTYPE svg
PUBLIC "-//W3C//DTD SVG 1.1//EN"
       "http://www.w3.org/Graphics/SVG/1.1/DTD/svg11.dtd">
<svg version="1.1" xmlns="http://www.w3.org/2000/svg" xmlns:xlink="http://www.w3.org/1999/xlink" width="28.7842" height="22.4731">
 <g>
  <rect height="22.4731" opacity="0" width="28.7842" x="0" y="0"/>
  <path d="M17.2729 7.21436C16.8335 7.21436 16.5039 6.88477 16.5039 6.45752C16.5039 6.04248 16.8335 5.71289 17.2729 5.71289L23.938 5.71289C24.3652 5.71289 24.6948 6.04248 24.6948 6.45752C24.6948 6.88477 24.3652 7.21436 23.938 7.21436ZM17.2729 11.9995C16.8335 11.9995 16.5039 11.6577 16.5039 11.2305C16.5039 10.8154 16.8335 10.498 17.2729 10.498L23.938 10.498C24.3652 10.498 24.6948 10.8154 24.6948 11.2305C24.6948 11.6577 24.3652 11.9995 23.938 11.9995ZM17.2729 16.7725C16.8335 16.7725 16.5039 16.4551 16.5039 16.04C16.5039 15.6128 16.8335 15.271 17.2729 15.271L23.938 15.271C24.3652 15.271 24.6948 15.6128 24.6948 16.04C24.6948 16.4551 24.3652 16.7725 23.938 16.7725ZM4.55322 16.8579C4.15039 16.8579 3.95508 16.5894 3.95508 16.2231C3.95508 15.0757 5.66406 12.1216 9.31396 12.1216C12.9639 12.1216 14.6851 15.0757 14.6851 16.2231C14.6851 16.5894 14.4897 16.8579 14.0869 16.8579ZM9.31396 11.2671C7.83691 11.2671 6.64062 10.022 6.64062 8.34961C6.64062 6.78711 7.83691 5.49316 9.31396 5.49316C10.8032 5.49316 11.9873 6.78711 11.9873 8.34961C11.9873 10.022 10.8032 11.2793 9.31396 11.2671ZM3.83301 22.4731L24.9512 22.4731C27.5146 22.4731 28.7842 21.2158 28.7842 18.7012L28.7842 3.78418C28.7842 1.26953 27.5146 0 24.9512 0L3.83301 0C1.28174 0 0 1.26953 0 3.78418L0 18.7012C0 21.2158 1.28174 22.4731 3.83301 22.4731Z" fill="#5ac8f5"/>
 </g>
</svg>
