<?xml version="1.0" encoding="UTF-8"?>
<!--Generator: Apple Native CoreSVG 175.5-->
<!DOCTYPE svg
PUBLIC "-//W3C//DTD SVG 1.1//EN"
       "http://www.w3.org/Graphics/SVG/1.1/DTD/svg11.dtd">
<svg version="1.1" xmlns="http://www.w3.org/2000/svg" xmlns:xlink="http://www.w3.org/1999/xlink" width="25.1007" height="25.9155">
 <g>
  <rect height="25.9155" opacity="0" width="25.1007" x="0" y="0"/>
  <path d="M2.15771 13.1836L2.81689 8.58154L11.5815 8.58154L11.5571 13.623L2.53613 13.623C2.29199 13.623 2.10888 13.4277 2.15771 13.1836ZM3.06103 6.92139L3.72021 2.34375C3.75683 2.11182 3.8789 1.96533 4.09863 1.96533L11.6426 1.96533L11.5937 6.92139ZM13.4248 1.96533L21.0054 1.96533C21.2251 1.96533 21.3472 2.11182 21.3838 2.34375L22.043 6.92139L13.4614 6.92139ZM13.4736 8.58154L22.2749 8.58154L22.9463 13.1836C22.9829 13.4277 22.812 13.623 22.5557 13.623L13.5102 13.623Z" fill="#5ac8f5" fill-opacity="0.25"/>
  <path d="M1.59619 15.5884L23.5078 15.5884C24.5942 15.5884 25.2534 14.7339 25.0703 13.4644L23.3491 1.85547C23.1782 0.744629 22.5435 0 21.396 0L3.708 0C2.56054 0 1.92578 0.744629 1.75488 1.85547L0.0336869 13.4644C-0.161626 14.7339 0.509761 15.5884 1.59619 15.5884ZM2.15771 13.1836L2.81689 8.58154L11.5815 8.58154L11.5571 13.623L2.53613 13.623C2.29199 13.623 2.10888 13.4277 2.15771 13.1836ZM3.06103 6.92139L3.72021 2.34375C3.75683 2.11182 3.8789 1.96533 4.09863 1.96533L11.6426 1.96533L11.5937 6.92139ZM13.4248 1.96533L21.0054 1.96533C21.2251 1.96533 21.3472 2.11182 21.3838 2.34375L22.043 6.92139L13.4614 6.92139ZM13.4736 8.58154L22.2749 8.58154L22.9463 13.1836C22.9829 13.4277 22.812 13.623 22.5557 13.623L13.5102 13.623ZM1.64502 14.5874L1.64502 24.8901L3.61035 24.8901L3.61035 14.5874ZM21.2983 14.5874L21.2983 24.8901L23.2637 24.8901L23.2637 14.5874ZM0.00927286 24.8901C0.00927286 25.4395 0.460933 25.9033 1.02246 25.9033L23.9228 25.9033C24.4844 25.9033 24.936 25.4395 24.936 24.8901C24.936 24.3286 24.4844 23.877 23.9228 23.877L1.02246 23.877C0.460933 23.877 0.00927286 24.3286 0.00927286 24.8901Z" fill="#5ac8f5"/>
 </g>
</svg>
