<?xml version="1.0" encoding="UTF-8"?>
<!--Generator: Apple Native CoreSVG 175.5-->
<!DOCTYPE svg
PUBLIC "-//W3C//DTD SVG 1.1//EN"
       "http://www.w3.org/Graphics/SVG/1.1/DTD/svg11.dtd">
<svg version="1.1" xmlns="http://www.w3.org/2000/svg" xmlns:xlink="http://www.w3.org/1999/xlink" width="20.2881" height="25.3052">
 <g>
  <rect height="25.3052" opacity="0" width="20.2881" x="0" y="0"/>
  <path d="M10.144 25.3052C10.3394 25.3052 10.6567 25.2319 10.9619 25.061C17.9077 21.167 20.2881 19.519 20.2881 15.0635L20.2881 5.7251C20.2881 4.44336 19.7388 4.04053 18.7012 3.60107C17.2607 3.00293 12.6099 1.33057 11.1694 0.830078C10.8398 0.720215 10.4858 0.646973 10.144 0.646973C9.80225 0.646973 9.44824 0.744629 9.13086 0.830078C7.69043 1.24512 3.02734 3.01514 1.58691 3.60107C0.561523 4.02832 0 4.44336 0 5.7251L0 15.0635C0 19.519 2.39258 21.1548 9.32617 25.061C9.64355 25.2319 9.94873 25.3052 10.144 25.3052ZM10.144 23.0957C9.94873 23.0957 9.75342 23.0225 9.38721 22.8027C3.74756 19.3848 1.94092 18.3838 1.94092 14.6118L1.94092 6.10352C1.94092 5.68848 2.01416 5.52979 2.35596 5.39551C4.21143 4.66309 7.8125 3.45459 9.65576 2.72217C9.85107 2.63672 10.0098 2.6123 10.144 2.6123C10.2783 2.6123 10.437 2.64893 10.6323 2.72217C12.4756 3.45459 16.0522 4.74854 17.9443 5.39551C18.2739 5.51758 18.3472 5.68848 18.3472 6.10352L18.3472 14.6118C18.3472 18.3838 16.5405 19.3726 10.9009 22.8027C10.5469 23.0225 10.3394 23.0957 10.144 23.0957Z" fill="#5ac8f5" fill-opacity="0.5"/>
  <path d="M5.05371 13.1836C5.05371 13.4766 5.28564 13.6841 5.59082 13.6841L9.52148 13.6841L7.42188 19.3237C7.14111 20.0684 7.93457 20.4834 8.42285 19.8853L14.7949 11.8896C14.9292 11.731 14.9902 11.5723 14.9902 11.4258C14.9902 11.1328 14.7583 10.9253 14.4531 10.9253L10.5225 10.9253L12.6221 5.27344C12.9028 4.52881 12.1094 4.12598 11.6211 4.72412L5.24902 12.7197C5.12695 12.8662 5.05371 13.0371 5.05371 13.1836Z" fill="#5ac8f5"/>
 </g>
</svg>
