<?xml version="1.0" encoding="UTF-8"?>
<!--Generator: Apple Native CoreSVG 175.5-->
<!DOCTYPE svg
PUBLIC "-//W3C//DTD SVG 1.1//EN"
       "http://www.w3.org/Graphics/SVG/1.1/DTD/svg11.dtd">
<svg version="1.1" xmlns="http://www.w3.org/2000/svg" xmlns:xlink="http://www.w3.org/1999/xlink" width="36.4136" height="16.272">
 <g>
  <rect height="16.272" opacity="0" width="36.4136" x="0" y="0"/>
  <path d="M18.1885 14.1968C22.1924 14.1968 25.2808 11.0962 25.2808 7.1167C25.2808 3.125 22.1924 0.0244141 18.1885 0.0244141C14.209 0.0244141 11.1206 3.125 11.1206 7.1167C11.1206 11.0962 14.209 14.1968 18.1885 14.1968ZM18.1885 12.146C15.3809 12.146 13.1592 9.92432 13.1592 7.1167C13.1592 4.29688 15.3809 2.0752 18.1885 2.0752C21.0205 2.0752 23.23 4.29688 23.23 7.1167C23.23 9.92432 21.0205 12.146 18.1885 12.146ZM18.1885 11.1206C20.4346 11.1206 22.2046 9.36279 22.2046 7.1167C22.2046 4.87061 20.4346 3.10059 18.1885 3.10059C15.9424 3.10059 14.1846 4.87061 14.1846 7.1167C14.1846 9.36279 15.9424 11.1206 18.1885 11.1206ZM9.69238 7.1167C9.69238 4.10156 11.1816 1.50146 13.4766 0L3.77197 0C1.29395 0 0 1.25732 0 3.72314L0 10.4858C0 12.9395 1.29395 14.209 3.77197 14.209L13.4399 14.209C11.1694 12.6953 9.69238 10.1074 9.69238 7.1167ZM32.6294 0L22.9248 0C25.2075 1.50146 26.709 4.10156 26.709 7.1167C26.709 10.1074 25.2319 12.6953 22.9492 14.209L32.6294 14.209C35.1318 14.209 36.4136 12.9395 36.4136 10.4858L36.4136 3.72314C36.4136 1.25732 35.1318 0 32.6294 0ZM28.9185 4.63867C28.9185 4.13818 29.2725 3.77197 29.7729 3.77197L32.8369 3.77197C33.3374 3.77197 33.7036 4.13818 33.7036 4.63867C33.7036 5.13916 33.3374 5.49316 32.8369 5.49316L29.7729 5.49316C29.2725 5.49316 28.9185 5.13916 28.9185 4.63867ZM28.9185 7.60498C28.9185 7.10449 29.2725 6.75049 29.7729 6.75049L32.8369 6.75049C33.3374 6.75049 33.7036 7.10449 33.7036 7.60498C33.7036 8.10547 33.3374 8.47168 32.8369 8.47168L29.7729 8.47168C29.2725 8.47168 28.9185 8.10547 28.9185 7.60498ZM9.04541 13.4644L2.70996 13.4644L2.70996 15.2588C2.70996 15.8569 3.11279 16.2598 3.71094 16.2598L8.04443 16.2598C8.65479 16.2598 9.04541 15.8569 9.04541 15.2588ZM27.3682 13.4644L27.3682 15.2588C27.3682 15.8569 27.7588 16.2598 28.3691 16.2598L32.6904 16.2598C33.3008 16.2598 33.7036 15.8569 33.7036 15.2588L33.7036 13.4644Z" fill="#5ac8f5"/>
 </g>
</svg>
