<?xml version="1.0" encoding="UTF-8"?>
<!--Generator: Apple Native CoreSVG 175.5-->
<!DOCTYPE svg
PUBLIC "-//W3C//DTD SVG 1.1//EN"
       "http://www.w3.org/Graphics/SVG/1.1/DTD/svg11.dtd">
<svg version="1.1" xmlns="http://www.w3.org/2000/svg" xmlns:xlink="http://www.w3.org/1999/xlink" width="24.3774" height="24.3042">
 <g>
  <rect height="24.3042" opacity="0" width="24.3774" x="0" y="0"/>
  <path d="M6.53076 9.41162C6.50635 8.45947 7.26318 7.55615 8.27637 7.50732C8.34961 8.41064 7.55615 9.52148 6.53076 9.41162ZM10.0098 13.7695C9.82666 14.4165 9.38721 15.1733 8.8501 15.7227C8.6792 15.8691 8.43506 15.9912 8.11768 15.9912C7.82471 15.9912 7.65381 15.8813 7.39746 15.7959C7.23877 15.7471 7.00684 15.6372 6.73828 15.6372C6.11572 15.6372 5.83496 16.0156 5.32227 16.0156C4.98047 16.0156 4.69971 15.7959 4.30908 15.3809C3.58887 14.5752 3.11279 13.2935 3.11279 12.1948C3.11279 11.5234 3.28369 10.8887 3.71094 10.3638C4.06494 9.8999 4.60205 9.63135 5.27344 9.63135C5.88379 9.63135 6.25 10.022 6.57959 10.022C6.97021 10.022 7.40967 9.61914 8.17871 9.61914C8.8623 9.61914 9.43604 9.8877 9.80225 10.437C9.31396 10.7178 9.13086 11.0718 9.0332 11.3647C8.87451 11.792 8.8501 12.2925 9.0332 12.793C9.21631 13.2446 9.52148 13.5498 10.0098 13.7695ZM13.4521 8.12988L13.4521 9.61914L14.6606 9.61914L14.6606 10.6201L13.4521 10.6201L13.4521 14.1235C13.4521 14.6973 13.6963 14.917 14.209 14.917C14.3433 14.917 14.5752 14.917 14.6362 14.8804L14.6362 15.9424C14.5264 15.9546 14.209 15.9912 13.9282 15.9912C12.6465 15.9912 12.146 15.5396 12.146 14.27L12.146 10.6201L11.2427 10.6201L11.2427 9.61914L12.146 9.61914L12.146 8.12988ZM18.9331 15.9424L17.5659 15.9424L15.2466 9.61914L16.626 9.61914L18.2617 14.6973L19.7998 9.61914L21.2158 9.61914ZM6.50635 24.3042L17.8589 24.3042C19.9463 24.3042 21.7041 24.1089 22.9492 22.8638C24.1943 21.6187 24.3774 19.873 24.3774 17.7856L24.3774 6.53076C24.3774 4.44336 24.1943 2.70996 22.9492 1.46484C21.7041 0.219727 19.9463 0.0244141 17.8589 0.0244141L6.48193 0.0244141C4.43115 0.0244141 2.67334 0.219727 1.42822 1.46484C0.183105 2.70996 0 4.45557 0 6.50635L0 17.7856C0 19.873 0.183105 21.6187 1.42822 22.8638C2.67334 24.1089 4.43115 24.3042 6.50635 24.3042Z" fill="#5ac8f5"/>
 </g>
</svg>
