<?xml version="1.0" encoding="UTF-8"?>
<!--Generator: Apple Native CoreSVG 175.5-->
<!DOCTYPE svg
PUBLIC "-//W3C//DTD SVG 1.1//EN"
       "http://www.w3.org/Graphics/SVG/1.1/DTD/svg11.dtd">
<svg version="1.1" xmlns="http://www.w3.org/2000/svg" xmlns:xlink="http://www.w3.org/1999/xlink" width="24.9023" height="24.9146">
 <g>
  <rect height="24.9146" opacity="0" width="24.9023" x="0" y="0"/>
  <path d="M12.4512 24.9023C19.2627 24.9023 24.9023 19.2505 24.9023 12.4512C24.9023 5.63965 19.2505 0 12.439 0C5.63965 0 0 5.63965 0 12.4512C0 19.2505 5.65186 24.9023 12.4512 24.9023ZM12.4512 22.8271C6.68945 22.8271 2.0874 18.2129 2.0874 12.4512C2.0874 6.68945 6.67725 2.0752 12.439 2.0752C18.2007 2.0752 22.8271 6.68945 22.8271 12.4512C22.8271 18.2129 18.2129 22.8271 12.4512 22.8271ZM12.439 18.5669C14.9902 18.5669 16.6992 16.8701 16.6992 16.0645C16.6992 15.7715 16.4185 15.6372 16.1621 15.7593C15.271 16.2476 14.209 16.7969 12.439 16.7969C10.6689 16.7969 9.60693 16.2354 8.72803 15.7593C8.45947 15.6372 8.17871 15.7715 8.17871 16.0645C8.17871 16.8701 9.8877 18.5669 12.439 18.5669ZM8.82568 11.3647C9.59473 11.3647 10.2783 10.6689 10.2783 9.69238C10.2783 8.70361 9.60693 8.00781 8.82568 8.00781C8.05664 8.00781 7.38525 8.70361 7.38525 9.69238C7.38525 10.6689 8.05664 11.3647 8.82568 11.3647ZM16.0645 11.3647C16.8335 11.3647 17.5171 10.6689 17.5171 9.69238C17.5171 8.70361 16.8457 8.00781 16.0645 8.00781C15.2954 8.00781 14.624 8.70361 14.624 9.69238C14.624 10.6689 15.2954 11.3647 16.0645 11.3647Z" fill="#5ac8f5"/>
 </g>
</svg>
