<?xml version="1.0" encoding="UTF-8"?>
<!--Generator: Apple Native CoreSVG 175.5-->
<!DOCTYPE svg
PUBLIC "-//W3C//DTD SVG 1.1//EN"
       "http://www.w3.org/Graphics/SVG/1.1/DTD/svg11.dtd">
<svg version="1.1" xmlns="http://www.w3.org/2000/svg" xmlns:xlink="http://www.w3.org/1999/xlink" width="24.9023" height="24.9146">
 <g>
  <rect height="24.9146" opacity="0" width="24.9023" x="0" y="0"/>
  <path d="M12.4512 24.9023C19.2627 24.9023 24.9023 19.2505 24.9023 12.4512C24.9023 5.63965 19.2505 0 12.439 0C5.63965 0 0 5.63965 0 12.4512C0 19.2505 5.65186 24.9023 12.4512 24.9023Z" fill="#5ac8f5" fill-opacity="0.25"/>
  <path d="M7.53174 17.6636C6.75049 17.6636 6.29883 17.2485 6.29883 16.4795L6.29883 15.686C6.29883 14.917 6.75049 14.502 7.53174 14.502L17.3706 14.502C18.1519 14.502 18.6035 14.917 18.6035 15.686L18.6035 16.4795C18.6035 17.2485 18.1519 17.6636 17.3706 17.6636ZM7.22656 12.915C6.70166 12.915 6.45752 12.6465 6.4209 12.1826C6.40869 11.9629 6.50635 11.7432 6.70166 11.5479L11.6577 6.09131C11.853 5.87158 12.1338 5.68848 12.4512 5.68848C12.7686 5.68848 13.0371 5.83496 13.2446 6.09131L18.1885 11.5479C18.3716 11.7554 18.4814 11.9629 18.4814 12.1826C18.4814 12.6465 18.1763 12.915 17.6636 12.915Z" fill="#5ac8f5"/>
 </g>
</svg>
