<?xml version="1.0" encoding="UTF-8"?>
<!--Generator: Apple Native CoreSVG 175.5-->
<!DOCTYPE svg
PUBLIC "-//W3C//DTD SVG 1.1//EN"
       "http://www.w3.org/Graphics/SVG/1.1/DTD/svg11.dtd">
<svg version="1.1" xmlns="http://www.w3.org/2000/svg" xmlns:xlink="http://www.w3.org/1999/xlink" width="28.1738" height="29.3823">
 <g>
  <rect height="29.3823" opacity="0" width="28.1738" x="0" y="0"/>
  <path d="M8.99658 18.3594L12.207 18.3594C10.5591 17.6636 9.375 16.0034 9.375 14.0869C9.375 11.499 11.499 9.375 14.0869 9.375C16.6748 9.375 18.7988 11.499 18.7988 14.0869C18.7988 16.0034 17.6147 17.6636 15.9668 18.3594L19.165 18.3594C20.166 17.2119 20.7642 15.7104 20.7642 14.0869C20.7642 10.4248 17.7246 7.39746 14.0869 7.39746C10.437 7.39746 7.40967 10.4248 7.40967 14.0869C7.40967 15.7104 8.00781 17.2119 8.99658 18.3594ZM1.08643 14.7583L4.08936 14.7583C4.72412 14.7583 5.2002 14.3188 5.18799 13.7695C5.17578 13.2324 4.72412 12.7808 4.08936 12.7808L1.08643 12.7808C0.45166 12.7808 0 13.2202 0 13.7695C0 14.3188 0.45166 14.7583 1.08643 14.7583ZM7.78809 7.78809C8.1665 7.39746 8.1665 6.7627 7.71484 6.31104L5.59082 4.18701C5.13916 3.73535 4.5166 3.74756 4.12598 4.12598C3.73535 4.50439 3.73535 5.13916 4.18701 5.59082L6.31104 7.71484C6.7627 8.1665 7.40967 8.17871 7.78809 7.78809ZM14.0869 5.18799C14.6362 5.17578 15.0757 4.71191 15.0757 4.08936L15.0757 1.08643C15.0757 0.45166 14.6362 0 14.0869 0C13.5376 0 13.0981 0.45166 13.0981 1.08643L13.0981 4.08936C13.0981 4.71191 13.5376 5.2002 14.0869 5.18799ZM20.3857 7.78809C20.7642 8.1665 21.4111 8.1665 21.8628 7.71484L23.9868 5.59082C24.4385 5.13916 24.4263 4.5166 24.0356 4.12598C23.6694 3.73535 23.0347 3.73535 22.5708 4.18701L20.4468 6.31104C20.0073 6.7627 19.9951 7.40967 20.3857 7.78809ZM24.0845 14.7583L27.0874 14.7583C27.7222 14.7583 28.1738 14.3188 28.1738 13.7695C28.1738 13.2324 27.7222 12.7808 27.0874 12.7808L24.0845 12.7808C23.4497 12.7808 22.9736 13.2202 22.9858 13.7695C22.998 14.3188 23.4497 14.7583 24.0845 14.7583Z" fill="#5ac8f5" fill-opacity="0.5"/>
  <path d="M1.66016 19.4946L26.4526 19.4946C26.8921 19.4946 27.2217 19.165 27.2217 18.7256C27.2217 18.2861 26.8921 17.9565 26.4526 17.9565L1.66016 17.9565C1.23291 17.9565 0.891113 18.2861 0.891113 18.7256C0.891113 19.165 1.23291 19.4946 1.66016 19.4946ZM2.75879 23.4375C3.08838 23.4375 3.36914 23.1567 3.36914 22.8149C3.36914 22.4731 3.08838 22.1924 2.75879 22.1924C2.40479 22.1924 2.13623 22.4731 2.13623 22.8149C2.13623 23.1567 2.40479 23.4375 2.75879 23.4375ZM7.91016 23.4375C8.25195 23.4375 8.53271 23.1567 8.53271 22.8149C8.53271 22.4731 8.25195 22.1924 7.91016 22.1924C7.56836 22.1924 7.2876 22.4731 7.2876 22.8149C7.2876 23.1567 7.56836 23.4375 7.91016 23.4375ZM13.0737 23.4375C13.4033 23.4375 13.6841 23.1567 13.6841 22.8149C13.6841 22.4731 13.4033 22.1924 13.0737 22.1924C12.7197 22.1924 12.4512 22.4731 12.4512 22.8149C12.4512 23.1567 12.7197 23.4375 13.0737 23.4375ZM18.2251 23.4375C18.5669 23.4375 18.8477 23.1567 18.8477 22.8149C18.8477 22.4731 18.5669 22.1924 18.2251 22.1924C17.8833 22.1924 17.6025 22.4731 17.6025 22.8149C17.6025 23.1567 17.8833 23.4375 18.2251 23.4375ZM23.3887 23.4375C23.7183 23.4375 23.999 23.1567 23.999 22.8149C23.999 22.4731 23.7183 22.1924 23.3887 22.1924C23.0347 22.1924 22.7661 22.4731 22.7661 22.8149C22.7661 23.1567 23.0347 23.4375 23.3887 23.4375ZM1.19629 26.4038C1.53809 26.4038 1.81885 26.123 1.81885 25.769C1.81885 25.4395 1.53809 25.1587 1.19629 25.1587C0.854492 25.1587 0.57373 25.4395 0.57373 25.769C0.57373 26.123 0.854492 26.4038 1.19629 26.4038ZM6.35986 26.4038C6.68945 26.4038 6.97021 26.123 6.97021 25.769C6.97021 25.4395 6.68945 25.1587 6.35986 25.1587C6.00586 25.1587 5.7251 25.4395 5.7251 25.769C5.7251 26.123 6.00586 26.4038 6.35986 26.4038ZM11.5112 26.4038C11.853 26.4038 12.1338 26.123 12.1338 25.769C12.1338 25.4395 11.853 25.1587 11.5112 25.1587C11.1694 25.1587 10.8887 25.4395 10.8887 25.769C10.8887 26.123 11.1694 26.4038 11.5112 26.4038ZM16.6748 26.4038C17.0044 26.4038 17.2852 26.123 17.2852 25.769C17.2852 25.4395 17.0044 25.1587 16.6748 25.1587C16.3208 25.1587 16.04 25.4395 16.04 25.769C16.04 26.123 16.3208 26.4038 16.6748 26.4038ZM21.8262 26.4038C22.168 26.4038 22.4487 26.123 22.4487 25.769C22.4487 25.4395 22.168 25.1587 21.8262 25.1587C21.4844 25.1587 21.2036 25.4395 21.2036 25.769C21.2036 26.123 21.4844 26.4038 21.8262 26.4038ZM26.9897 26.4038C27.3193 26.4038 27.6001 26.123 27.6001 25.769C27.6001 25.4395 27.3193 25.1587 26.9897 25.1587C26.6357 25.1587 26.355 25.4395 26.355 25.769C26.355 26.123 26.6357 26.4038 26.9897 26.4038ZM4.79736 29.3457C5.13916 29.3457 5.40771 29.0649 5.40771 28.7109C5.40771 28.3813 5.13916 28.1006 4.79736 28.1006C4.44336 28.1006 4.1748 28.3813 4.1748 28.7109C4.1748 29.0649 4.44336 29.3457 4.79736 29.3457ZM9.96094 29.3457C10.2905 29.3457 10.5713 29.0649 10.5713 28.7109C10.5713 28.3813 10.2905 28.1006 9.96094 28.1006C9.60693 28.1006 9.32617 28.3813 9.32617 28.7109C9.32617 29.0649 9.60693 29.3457 9.96094 29.3457ZM15.1123 29.3457C15.4541 29.3457 15.7227 29.0649 15.7227 28.7109C15.7227 28.3813 15.4541 28.1006 15.1123 28.1006C14.7583 28.1006 14.4897 28.3813 14.4897 28.7109C14.4897 29.0649 14.7583 29.3457 15.1123 29.3457ZM20.2759 29.3457C20.6055 29.3457 20.8862 29.0649 20.8862 28.7109C20.8862 28.3813 20.6055 28.1006 20.2759 28.1006C19.9219 28.1006 19.6411 28.3813 19.6411 28.7109C19.6411 29.0649 19.9219 29.3457 20.2759 29.3457ZM25.4272 29.3457C25.769 29.3457 26.0376 29.0649 26.0376 28.7109C26.0376 28.3813 25.769 28.1006 25.4272 28.1006C25.0732 28.1006 24.8047 28.3813 24.8047 28.7109C24.8047 29.0649 25.0732 29.3457 25.4272 29.3457Z" fill="#5ac8f5"/>
 </g>
</svg>
