<?xml version="1.0" encoding="UTF-8"?>
<!--Generator: Apple Native CoreSVG 175.5-->
<!DOCTYPE svg
PUBLIC "-//W3C//DTD SVG 1.1//EN"
       "http://www.w3.org/Graphics/SVG/1.1/DTD/svg11.dtd">
<svg version="1.1" xmlns="http://www.w3.org/2000/svg" xmlns:xlink="http://www.w3.org/1999/xlink" width="22.4984" height="23.2056">
 <g>
  <rect height="23.2056" opacity="0" width="22.4984" x="0" y="0"/>
  <path d="M11.2518 23.2056C11.9354 23.2056 12.3138 22.7539 12.3138 21.9116L12.3138 14.9048C12.3138 11.9751 15.5608 7.72705 18.5638 5.81055L19.5403 5.17578C19.8821 4.96826 20.0652 4.58984 20.0652 4.22363C20.0652 3.62549 19.6502 3.21045 19.0276 3.21045C18.7225 3.21045 18.3929 3.32031 18.0999 3.51562L17.4529 3.94287C14.4866 5.92041 11.6424 9.66797 11.264 11.5601L11.2273 11.5601C10.8489 9.65576 8.0169 5.92041 5.05059 3.94287L4.40361 3.51562C4.09844 3.32031 3.78106 3.21045 3.46367 3.21045C2.84111 3.21045 2.43828 3.66211 2.43828 4.21143C2.43828 4.57764 2.62139 4.96826 2.96319 5.17578L3.93975 5.81055C6.93047 7.72705 10.1897 11.9751 10.1897 14.9048L10.1897 21.9116C10.1897 22.7539 10.5682 23.2056 11.2518 23.2056ZM2.85332 7.2998L6.27129 2.86865C6.79619 2.18506 6.4666 1.63574 5.64873 1.59912L0.900197 1.3916C0.216603 1.35498-0.149608 1.80664 0.0579116 2.47803L1.46172 7.00684C1.70586 7.8125 2.31621 7.99561 2.85332 7.2998ZM19.5037 7.2876C20.0164 7.99561 20.639 7.83691 20.8953 7.04346L22.4334 2.55127C22.6531 1.89209 22.2991 1.42822 21.6277 1.44043L16.867 1.51367C16.0491 1.52588 15.7073 2.06299 16.2078 2.75879Z" fill="#5ac8f5"/>
 </g>
</svg>
