<?xml version="1.0" encoding="UTF-8"?>
<!--Generator: Apple Native CoreSVG 175.5-->
<!DOCTYPE svg
PUBLIC "-//W3C//DTD SVG 1.1//EN"
       "http://www.w3.org/Graphics/SVG/1.1/DTD/svg11.dtd">
<svg version="1.1" xmlns="http://www.w3.org/2000/svg" xmlns:xlink="http://www.w3.org/1999/xlink" width="24.9023" height="25.0122">
 <g>
  <rect height="25.0122" opacity="0" width="24.9023" x="0" y="0"/>
  <path d="M12.4512 25.0122C19.2627 25.0122 24.9023 19.3604 24.9023 12.561C24.9023 5.74951 19.2505 0.109863 12.439 0.109863C5.63965 0.109863 0 5.74951 0 12.561C0 19.3604 5.65186 25.0122 12.4512 25.0122ZM7.78809 18.8965C6.79932 18.8965 6.12793 18.1274 6.12793 17.0044L6.12793 7.86133C6.12793 6.89697 6.79932 6.22559 7.78809 6.22559L17.1387 6.22559C18.2861 6.22559 18.7988 6.73828 18.7988 7.86133L18.7988 17.0044C18.7988 18.2739 18.2861 18.8965 17.1387 18.8965ZM8.58154 17.041L16.3452 17.041C16.6992 17.041 16.9434 16.8091 16.9434 16.4307L16.9434 8.69141C16.9434 8.3252 16.6992 8.08105 16.3452 8.08105L8.58154 8.08105C8.22754 8.08105 7.9834 8.3252 7.9834 8.69141L7.9834 16.4307C7.9834 16.8091 8.22754 17.041 8.58154 17.041Z" fill="#5ac8f5"/>
 </g>
</svg>
