<?xml version="1.0" encoding="UTF-8"?>
<!--Generator: Apple Native CoreSVG 175.5-->
<!DOCTYPE svg
PUBLIC "-//W3C//DTD SVG 1.1//EN"
       "http://www.w3.org/Graphics/SVG/1.1/DTD/svg11.dtd">
<svg version="1.1" xmlns="http://www.w3.org/2000/svg" xmlns:xlink="http://www.w3.org/1999/xlink" width="31.1646" height="27.4536">
 <g>
  <rect height="27.4536" opacity="0" width="31.1646" x="0" y="0"/>
  <path d="M4.83398 26.4526C6.29883 26.4526 9.94873 24.8535 12.0239 23.3643C12.2314 23.2178 12.4023 23.1567 12.5732 23.1567C12.7319 23.1689 12.8906 23.1812 13.0493 23.1812C14.209 23.1812 15.332 23.0835 16.3574 22.9004L16.3574 20.752C16.3574 19.2749 17.5537 18.0908 19.0186 18.0908C19.1284 18.0908 19.2383 18.1152 19.3359 18.1519C19.3604 18.0298 19.3726 17.9443 19.397 17.8467C19.7388 16.7969 20.7153 16.04 21.8872 16.04C21.9971 16.04 22.0825 16.0645 22.1802 16.1011C22.1924 16.0034 22.2168 15.8813 22.2412 15.7715C22.5708 14.7217 23.584 13.9404 24.7437 13.9404C25.708 13.9404 26.5381 14.4531 26.9775 15.1978C27.0386 15.1855 27.0996 15.1733 27.1606 15.1733C27.5146 14.1846 27.6855 13.1592 27.6855 12.0972C27.6855 5.95703 21.5332 1.00098 13.8428 1.00098C6.15234 1.00098 0 5.95703 0 12.0972C0 16.0034 2.40479 19.4336 6.32324 21.5332C6.50635 21.6309 6.56738 21.814 6.46973 21.9971C5.78613 23.1201 4.56543 24.4629 4.10156 25.0732C3.62549 25.6836 3.89404 26.4526 4.83398 26.4526ZM19.0186 23.291C19.4092 23.291 19.7144 22.9858 19.7144 22.6074L19.7144 20.752C19.7144 20.3735 19.4092 20.0684 19.0186 20.0684C18.6401 20.0684 18.335 20.3735 18.335 20.752L18.335 22.6074C18.335 22.9858 18.6401 23.291 19.0186 23.291ZM21.8872 25.3418C22.2778 25.3418 22.5708 25.0366 22.5708 24.646L22.5708 18.7134C22.5708 18.3228 22.2778 18.0176 21.8872 18.0176C21.4966 18.0176 21.2036 18.3228 21.2036 18.7134L21.2036 24.646C21.2036 25.0366 21.4966 25.3418 21.8872 25.3418ZM24.7559 27.4536C25.1343 27.4536 25.4395 27.1484 25.4395 26.77L25.4395 16.6138C25.4395 16.2231 25.1343 15.918 24.7559 15.918C24.3652 15.918 24.0601 16.2231 24.0601 16.6138L24.0601 26.77C24.0601 27.1606 24.353 27.4536 24.7559 27.4536ZM27.6001 26.2329C28.0029 26.2329 28.2959 25.9277 28.2959 25.5493L28.2959 17.8101C28.2959 17.4316 28.0029 17.1265 27.6001 17.1265C27.2217 17.1265 26.9287 17.4316 26.9287 17.8101L26.9287 25.5493C26.9287 25.9277 27.2217 26.2329 27.6001 26.2329ZM30.481 23.9258C30.8716 23.9258 31.1646 23.645 31.1646 23.2422L31.1646 20.105C31.1646 19.7266 30.8716 19.4214 30.481 19.4214C30.0903 19.4214 29.7852 19.7388 29.7852 20.105L29.7852 23.2422C29.7852 23.6328 30.0903 23.9258 30.481 23.9258Z" fill="#5ac8f5"/>
 </g>
</svg>
