<?xml version="1.0" encoding="UTF-8"?>
<!--Generator: Apple Native CoreSVG 175.5-->
<!DOCTYPE svg
PUBLIC "-//W3C//DTD SVG 1.1//EN"
       "http://www.w3.org/Graphics/SVG/1.1/DTD/svg11.dtd">
<svg version="1.1" xmlns="http://www.w3.org/2000/svg" xmlns:xlink="http://www.w3.org/1999/xlink" width="22.4731" height="22.4976">
 <g>
  <rect height="22.4976" opacity="0" width="22.4731" x="0" y="0"/>
  <path d="M3.83301 22.4976L18.6401 22.4976C21.2036 22.4976 22.4731 21.228 22.4731 18.7134L22.4731 3.80859C22.4731 1.29395 21.2036 0.0244141 18.6401 0.0244141L3.83301 0.0244141C1.28174 0.0244141 0 1.28174 0 3.80859L0 18.7134C0 21.2402 1.28174 22.4976 3.83301 22.4976ZM3.85742 20.5322C2.63672 20.5322 1.96533 19.8853 1.96533 18.6157L1.96533 3.90625C1.96533 2.63672 2.63672 1.98975 3.85742 1.98975L18.6157 1.98975C19.8242 1.98975 20.5078 2.63672 20.5078 3.90625L20.5078 18.6157C20.5078 19.8853 19.8242 20.5322 18.6157 20.5322ZM7.16553 16.5039C9.26514 16.5039 10.6567 14.4897 10.6567 11.2427C10.6567 7.99561 9.26514 5.98145 7.16553 5.98145C5.06592 5.98145 3.67432 7.99561 3.67432 11.2427C3.67432 14.4897 5.06592 16.5039 7.16553 16.5039ZM7.16553 15.0269C6.00586 15.0269 5.27344 13.5864 5.27344 11.2427C5.27344 8.89893 6.00586 7.4585 7.16553 7.4585C8.3252 7.4585 9.05762 8.89893 9.05762 11.2427C9.05762 13.5864 8.3374 15.0269 7.16553 15.0269ZM15.4785 16.5039C17.5903 16.5039 19.043 15.2832 19.043 13.5132C19.043 12.2681 18.2861 11.2549 16.9678 10.9863L16.9678 10.9131C18.0908 10.6079 18.689 9.729 18.689 8.66699C18.689 7.08008 17.3706 5.98145 15.5029 5.98145C13.623 5.98145 12.3047 7.08008 12.3047 8.66699C12.3047 9.729 12.8906 10.5835 14.0259 10.9131L14.0259 10.9863C12.7075 11.2549 11.9507 12.2803 11.9507 13.5254C11.9507 15.3076 13.3667 16.5039 15.4785 16.5039ZM15.5151 15.2344C14.3433 15.2344 13.501 14.4897 13.501 13.4155C13.501 12.3657 14.3433 11.5967 15.5151 11.5967C16.687 11.5967 17.5049 12.3535 17.5049 13.4155C17.5049 14.4897 16.6626 15.2344 15.5151 15.2344ZM15.5029 10.4248C14.5386 10.4248 13.8672 9.74121 13.8672 8.81348C13.8672 7.88574 14.5386 7.25098 15.5029 7.25098C16.4551 7.25098 17.1265 7.88574 17.1265 8.81348C17.1265 9.74121 16.4551 10.4248 15.5029 10.4248Z" fill="#5ac8f5"/>
 </g>
</svg>
