<?xml version="1.0" encoding="UTF-8"?>
<!--Generator: Apple Native CoreSVG 175.5-->
<!DOCTYPE svg
PUBLIC "-//W3C//DTD SVG 1.1//EN"
       "http://www.w3.org/Graphics/SVG/1.1/DTD/svg11.dtd">
<svg version="1.1" xmlns="http://www.w3.org/2000/svg" xmlns:xlink="http://www.w3.org/1999/xlink" width="22.4731" height="22.4976">
 <g>
  <rect height="22.4976" opacity="0" width="22.4731" x="0" y="0"/>
  <path d="M3.83301 22.4976L18.6401 22.4976C21.2036 22.4976 22.4731 21.228 22.4731 18.7134L22.4731 3.80859C22.4731 1.29395 21.2036 0.0244141 18.6401 0.0244141L3.83301 0.0244141C1.28174 0.0244141 0 1.28174 0 3.80859L0 18.7134C0 21.2402 1.28174 22.4976 3.83301 22.4976ZM11.2549 4.83398C11.8164 4.83398 12.207 5.22461 12.207 5.78613L12.207 12.0483L12.0972 14.7339L13.3789 13.208L14.856 11.7065C15.0269 11.5112 15.2588 11.4258 15.5273 11.4258C16.0522 11.4258 16.4551 11.8164 16.4551 12.3413C16.4551 12.6099 16.3696 12.8296 16.1865 13.0005L11.9995 17.1753C11.7554 17.4194 11.5479 17.5415 11.2549 17.5415C10.9863 17.5415 10.7788 17.4316 10.5225 17.1753L6.32324 13.0005C6.15234 12.8296 6.0791 12.6099 6.0791 12.3413C6.0791 11.8164 6.46973 11.4258 6.99463 11.4258C7.26318 11.4258 7.49512 11.5234 7.66602 11.7065L9.15527 13.208L10.4126 14.7217L10.3027 12.0483L10.3027 5.78613C10.3027 5.22461 10.7056 4.83398 11.2549 4.83398Z" fill="#5ac8f5"/>
 </g>
</svg>
