<?xml version="1.0" encoding="UTF-8"?>
<!--Generator: Apple Native CoreSVG 175.5-->
<!DOCTYPE svg
PUBLIC "-//W3C//DTD SVG 1.1//EN"
       "http://www.w3.org/Graphics/SVG/1.1/DTD/svg11.dtd">
<svg version="1.1" xmlns="http://www.w3.org/2000/svg" xmlns:xlink="http://www.w3.org/1999/xlink" width="24.9023" height="24.9146">
 <g>
  <rect height="24.9146" opacity="0" width="24.9023" x="0" y="0"/>
  <path d="M12.4512 24.9146C19.2627 24.9146 24.9023 19.2749 24.9023 12.4634C24.9023 5.66406 19.2505 0.012207 12.439 0.012207C5.63965 0.012207 0 5.66406 0 12.4634C0 19.2749 5.65186 24.9146 12.4512 24.9146Z" fill="#5ac8f5" fill-opacity="0.25"/>
  <path d="M8.94775 19.458C7.65381 19.458 7.1167 18.7866 6.92139 17.4683L6.03027 11.2427L18.8843 11.2427L17.981 17.4683C17.7856 18.7744 17.2607 19.458 15.9546 19.458ZM10.5347 17.6636C10.6812 17.6636 10.8154 17.5903 10.9131 17.5049L12.439 15.9668L13.9893 17.5049C14.0869 17.5781 14.209 17.6636 14.3677 17.6636C14.6606 17.6636 14.9048 17.395 14.9048 17.1143C14.9048 16.9556 14.8438 16.8335 14.7583 16.7358L13.2202 15.1978L14.7583 13.6597C14.8682 13.5376 14.917 13.4277 14.917 13.269C14.917 12.9639 14.6851 12.7319 14.3677 12.7319C14.2212 12.7319 14.0991 12.793 14.0015 12.9028L12.439 14.4409L10.9009 12.9028C10.8032 12.793 10.6812 12.7441 10.5347 12.7441C10.2173 12.7441 9.98535 12.9761 9.98535 13.269C9.98535 13.4399 10.0464 13.5498 10.1562 13.6597L11.6821 15.1978L10.1562 16.7358C10.0464 16.8335 9.98535 16.9556 9.98535 17.1143C9.98535 17.395 10.2173 17.6636 10.5347 17.6636ZM5.66406 10.2173C4.90723 10.2173 4.5166 9.76562 4.5166 9.0332L4.5166 8.39844C4.5166 7.6416 4.94385 7.18994 5.66406 7.18994L19.2383 7.18994C19.9951 7.18994 20.3857 7.6416 20.3857 8.39844L20.3857 9.0332C20.3857 9.76562 19.9951 10.2173 19.2383 10.2173Z" fill="#5ac8f5"/>
 </g>
</svg>
