<?xml version="1.0" encoding="UTF-8"?>
<!--Generator: Apple Native CoreSVG 175.5-->
<!DOCTYPE svg
PUBLIC "-//W3C//DTD SVG 1.1//EN"
       "http://www.w3.org/Graphics/SVG/1.1/DTD/svg11.dtd">
<svg version="1.1" xmlns="http://www.w3.org/2000/svg" xmlns:xlink="http://www.w3.org/1999/xlink" width="22.4731" height="22.4976">
 <g>
  <rect height="22.4976" opacity="0" width="22.4731" x="0" y="0"/>
  <path d="M3.83301 22.4976L18.6401 22.4976C21.2036 22.4976 22.4731 21.228 22.4731 18.7134L22.4731 3.80859C22.4731 1.29395 21.2036 0.0244141 18.6401 0.0244141L3.83301 0.0244141C1.28174 0.0244141 0 1.28174 0 3.80859L0 18.7134C0 21.2402 1.28174 22.4976 3.83301 22.4976Z" fill="#5ac8f5" fill-opacity="0.25"/>
  <path d="M7.00684 16.6748C4.84619 16.6748 3.40576 14.5996 3.40576 11.2427C3.40576 7.88574 4.84619 5.81055 7.00684 5.81055C9.17969 5.81055 10.6079 7.88574 10.6079 11.2427C10.6079 14.5996 9.17969 16.6748 7.00684 16.6748ZM7.00684 15.1367C8.21533 15.1367 8.95996 13.6597 8.95996 11.2427C8.95996 8.82568 8.20312 7.34863 7.00684 7.34863C5.82275 7.34863 5.06592 8.82568 5.06592 11.2427C5.06592 13.6597 5.82275 15.1367 7.00684 15.1367ZM15.4785 16.6748C13.7695 16.6748 12.439 15.625 12.1094 14.4653C12.0605 14.3066 12.0361 14.1724 12.0361 14.0015C12.0361 13.562 12.3535 13.2446 12.7686 13.2446C13.1226 13.2446 13.3301 13.4399 13.4888 13.8428C13.8306 14.7217 14.502 15.21 15.4907 15.21C16.6992 15.21 17.5415 14.4775 17.5415 13.501C17.5415 12.4756 16.7725 11.8042 15.5884 11.8042L14.8438 11.8042C14.4409 11.8042 14.1602 11.4868 14.1602 11.084C14.1602 10.6201 14.4409 10.3271 14.8438 10.3271L15.5151 10.3271C16.5283 10.3271 17.2241 9.66797 17.2241 8.75244C17.2241 7.87354 16.5405 7.27539 15.5396 7.27539C14.5508 7.27539 13.9526 7.76367 13.6719 8.64258C13.5498 9.04541 13.3423 9.24072 12.9639 9.24072C12.5366 9.24072 12.2437 8.92334 12.2437 8.47168C12.2437 8.31299 12.2437 8.17871 12.2803 8.02002C12.6099 6.78711 13.8672 5.81055 15.5762 5.81055C17.4561 5.81055 18.7866 6.93359 18.7866 8.54492C18.7866 9.729 17.9688 10.7788 16.9189 10.9497L16.9189 11.0229C18.1885 11.1572 19.1284 12.2314 19.1284 13.5742C19.1284 15.3809 17.627 16.6748 15.4785 16.6748Z" fill="#5ac8f5"/>
 </g>
</svg>
