<?xml version="1.0" encoding="UTF-8"?>
<!--Generator: Apple Native CoreSVG 175.5-->
<!DOCTYPE svg
PUBLIC "-//W3C//DTD SVG 1.1//EN"
       "http://www.w3.org/Graphics/SVG/1.1/DTD/svg11.dtd">
<svg version="1.1" xmlns="http://www.w3.org/2000/svg" xmlns:xlink="http://www.w3.org/1999/xlink" width="22.4731" height="22.4976">
 <g>
  <rect height="22.4976" opacity="0" width="22.4731" x="0" y="0"/>
  <path d="M3.83301 22.4976L18.6401 22.4976C21.2036 22.4976 22.4731 21.228 22.4731 18.7134L22.4731 3.80859C22.4731 1.29395 21.2036 0.0244141 18.6401 0.0244141L3.83301 0.0244141C1.28174 0.0244141 0 1.28174 0 3.80859L0 18.7134C0 21.2402 1.28174 22.4976 3.83301 22.4976ZM4.69971 16.3818C4.26025 16.3818 3.96729 16.0889 3.96729 15.6372C3.96729 15.3809 4.04053 15.1611 4.24805 14.9536L7.56836 11.0474C8.1543 10.3516 8.82568 9.64355 8.82568 8.82568C8.82568 7.89795 8.1543 7.27539 7.15332 7.27539C6.25 7.27539 5.62744 7.72705 5.29785 8.6792C5.12695 9.05762 4.94385 9.26514 4.57764 9.26514C4.13818 9.26514 3.86963 8.95996 3.86963 8.5083C3.86963 8.36182 3.90625 8.21533 3.93066 8.05664C4.26025 6.7749 5.59082 5.81055 7.09229 5.81055C9.06982 5.81055 10.3394 6.93359 10.3394 8.69141C10.3394 9.94873 9.64355 10.8521 8.71582 11.9385L6.26221 14.7949L6.26221 14.8926L9.91211 14.8926C10.3149 14.8926 10.6201 15.1489 10.6201 15.625C10.6201 16.0767 10.3149 16.3818 9.91211 16.3818ZM15.3564 16.6748C13.623 16.6748 12.5977 15.686 12.3901 14.9902C12.3413 14.8438 12.3047 14.6729 12.3047 14.5386C12.3047 14.0991 12.5854 13.7939 12.9761 13.7939C13.3057 13.7939 13.5376 13.9282 13.7451 14.2822C14.0503 14.8438 14.624 15.21 15.332 15.21C16.7969 15.21 17.749 13.7329 17.7246 11.2305L17.6514 11.2305C17.3218 12.085 16.5039 12.8296 15.1245 12.8296C13.4766 12.8296 11.9995 11.6211 11.9995 9.46045C11.9995 7.23877 13.3789 5.81055 15.5029 5.81055C17.8711 5.81055 19.2261 7.59277 19.2261 10.8887C19.2261 14.6851 17.8711 16.6748 15.3564 16.6748ZM15.6006 11.5234C16.7725 11.5234 17.5903 10.6323 17.5903 9.39941C17.5903 8.10547 16.7603 7.18994 15.6006 7.18994C14.3799 7.18994 13.6108 8.05664 13.6108 9.375C13.6108 10.6323 14.4043 11.5234 15.6006 11.5234Z" fill="#5ac8f5"/>
 </g>
</svg>
