<?xml version="1.0" encoding="UTF-8"?>
<!--Generator: Apple Native CoreSVG 175.5-->
<!DOCTYPE svg
PUBLIC "-//W3C//DTD SVG 1.1//EN"
       "http://www.w3.org/Graphics/SVG/1.1/DTD/svg11.dtd">
<svg version="1.1" xmlns="http://www.w3.org/2000/svg" xmlns:xlink="http://www.w3.org/1999/xlink" width="24.9023" height="24.9146">
 <g>
  <rect height="24.9146" opacity="0" width="24.9023" x="0" y="0"/>
  <path d="M12.4512 24.9023C19.2627 24.9023 24.9023 19.2505 24.9023 12.4512C24.9023 5.63965 19.2505 0 12.439 0C5.63965 0 0 5.63965 0 12.4512C0 19.2505 5.62744 24.9023 12.4512 24.9023ZM9.43604 22.8027C6.93359 22.0703 4.78516 20.4346 3.39355 18.2861L7.51953 18.2251L9.22852 16.04L7.92236 12.0117L4.74854 10.73L1.63574 12.4878C1.64795 9.86328 2.56348 7.50732 4.08936 5.65186L5.24902 9.47266L8.3252 10.7178L11.7554 8.08105L11.7554 4.87061L8.65479 2.35596C9.83887 1.9043 11.1206 1.66016 12.439 1.66016C13.7573 1.66016 15.0391 1.9043 16.2231 2.35596L13.1348 4.87061L13.1348 8.08105L16.5649 10.7178L19.6289 9.47266L20.7886 5.65186C22.3145 7.50732 23.23 9.86328 23.2422 12.4878L20.1294 10.73L16.9556 12.0117L15.6494 16.04L17.3584 18.2251L21.4844 18.2861C20.0928 20.4346 17.9443 22.0703 15.4419 22.8027L16.3086 19.0674L14.7461 17.0776L10.1318 17.0776L8.58154 19.0674Z" fill="#5ac8f5"/>
 </g>
</svg>
