<?xml version="1.0" encoding="UTF-8"?>
<!--Generator: Apple Native CoreSVG 175.5-->
<!DOCTYPE svg
PUBLIC "-//W3C//DTD SVG 1.1//EN"
       "http://www.w3.org/Graphics/SVG/1.1/DTD/svg11.dtd">
<svg version="1.1" xmlns="http://www.w3.org/2000/svg" xmlns:xlink="http://www.w3.org/1999/xlink" width="33.6449" height="16.1499">
 <g>
  <rect height="16.1499" opacity="0" width="33.6449" x="0" y="0"/>
  <path d="M0.416794 13.269C-0.742874 14.7583 0.746383 15.9668 2.08916 15.1855L10.9393 10.1318L21.4373 15.7593C21.9256 16.0034 22.3406 16.1499 22.7435 16.1499C23.305 16.1499 23.8177 15.8936 24.306 15.271L33.2903 3.91846C34.2669 2.68555 33.0706 1.15967 31.5936 1.98975L22.7435 7.08008L12.2332 1.45264C11.7571 1.18408 11.3177 1.06201 10.927 1.06201C10.3533 1.06201 9.86504 1.31836 9.37675 1.94092ZM3.18779 12.793C3.04131 12.8662 2.96806 12.7441 3.06572 12.6343L10.7928 3.27148C10.9637 3.05176 11.1224 3.02734 11.3543 3.14941L22.304 8.99658C22.8167 9.26514 22.9754 9.19189 23.3782 8.93555L30.5315 4.38232C30.6414 4.30908 30.7635 4.43115 30.6658 4.54102L22.9021 13.9404C22.7312 14.1479 22.5603 14.1846 22.3406 14.0625L11.3787 8.21533C10.866 7.94678 10.7073 8.00781 10.3045 8.26416Z" fill="#5ac8f5"/>
 </g>
</svg>
