<?xml version="1.0" encoding="UTF-8"?>
<!--Generator: Apple Native CoreSVG 175.5-->
<!DOCTYPE svg
PUBLIC "-//W3C//DTD SVG 1.1//EN"
       "http://www.w3.org/Graphics/SVG/1.1/DTD/svg11.dtd">
<svg version="1.1" xmlns="http://www.w3.org/2000/svg" xmlns:xlink="http://www.w3.org/1999/xlink" width="24.9023" height="24.9146">
 <g>
  <rect height="24.9146" opacity="0" width="24.9023" x="0" y="0"/>
  <path d="M12.4512 24.9023C19.2627 24.9023 24.9023 19.2505 24.9023 12.4512C24.9023 5.63965 19.2505 0 12.439 0C5.63965 0 0 5.63965 0 12.4512C0 19.2505 5.65186 24.9023 12.4512 24.9023ZM12.4512 22.8271C6.68945 22.8271 2.0874 18.2129 2.0874 12.4512C2.0874 6.68945 6.67725 2.0752 12.439 2.0752C18.2007 2.0752 22.8271 6.68945 22.8271 12.4512C22.8271 18.2129 18.2129 22.8271 12.4512 22.8271ZM12.4512 13.3911C16.1255 13.3911 19.0063 12.0605 19.0063 10.376C19.0063 8.74023 16.1255 7.44629 12.4512 7.44629C8.77686 7.44629 5.896 8.74023 5.896 10.376C5.896 12.0605 8.77686 13.3911 12.4512 13.3911ZM12.4512 17.4438C16.1499 17.4438 19.0063 15.7837 19.0063 13.7573L19.0063 12.2803C17.749 13.5254 15.21 14.2578 12.4512 14.2578C9.70459 14.2578 7.16553 13.5254 5.896 12.2803L5.896 13.7573C5.896 15.7837 8.74023 17.4438 12.4512 17.4438Z" fill="#5ac8f5"/>
 </g>
</svg>
