<?xml version="1.0" encoding="UTF-8"?>
<!--Generator: Apple Native CoreSVG 175.5-->
<!DOCTYPE svg
PUBLIC "-//W3C//DTD SVG 1.1//EN"
       "http://www.w3.org/Graphics/SVG/1.1/DTD/svg11.dtd">
<svg version="1.1" xmlns="http://www.w3.org/2000/svg" xmlns:xlink="http://www.w3.org/1999/xlink" width="25.0122" height="25.7202">
 <g>
  <rect height="25.7202" opacity="0" width="25.0122" x="0" y="0"/>
  <path d="M14.7095 5.2124L14.7095 0.98877C14.7095 0.45166 14.27 0 13.7329 0C13.1958 0 12.7442 0.45166 12.7442 0.98877L12.7442 5.2124ZM22.4243 15.564C24.0845 15.564 25.0122 14.6484 25.0122 13.0127L25.0122 6.21338C25.0122 4.57764 24.0845 3.67432 22.4243 3.67432L6.48195 3.67432C5.39553 3.67432 4.88283 4.00391 4.26027 4.61426L1.0132 7.70264C-0.353983 9.021-0.317362 10.2539 1.001 11.5112L4.26027 14.624C4.88283 15.2222 5.39553 15.564 6.49416 15.564ZM14.7095 14.8682L12.7442 14.8682L12.7442 25.6348L14.7095 25.6348ZM19.4092 24.7192C19.4092 24.1821 18.9697 23.7305 18.4326 23.7305L9.02102 23.7305C8.48391 23.7305 8.04445 24.1821 8.04445 24.7192C8.04445 25.2563 8.48391 25.6958 9.02102 25.6958L18.4326 25.6958C18.9697 25.6958 19.4092 25.2563 19.4092 24.7192Z" fill="#5ac8f5"/>
 </g>
</svg>
