<?xml version="1.0" encoding="UTF-8"?>
<!--Generator: Apple Native CoreSVG 175.5-->
<!DOCTYPE svg
PUBLIC "-//W3C//DTD SVG 1.1//EN"
       "http://www.w3.org/Graphics/SVG/1.1/DTD/svg11.dtd">
<svg version="1.1" xmlns="http://www.w3.org/2000/svg" xmlns:xlink="http://www.w3.org/1999/xlink" width="24.9023" height="24.9146">
 <g>
  <rect height="24.9146" opacity="0" width="24.9023" x="0" y="0"/>
  <path d="M12.4512 24.9023C19.2627 24.9023 24.9023 19.2505 24.9023 12.4512C24.9023 5.63965 19.2505 0 12.439 0C5.63965 0 0 5.63965 0 12.4512C0 19.2505 5.65186 24.9023 12.4512 24.9023ZM12.4512 22.8271C6.68945 22.8271 2.0874 18.2129 2.0874 12.4512C2.0874 6.68945 6.67725 2.0752 12.439 2.0752C18.2007 2.0752 22.8271 6.68945 22.8271 12.4512C22.8271 18.2129 18.2129 22.8271 12.4512 22.8271Z" fill="#5ac8f5" fill-opacity="0.5"/>
  <path d="M6.34766 12.5122C6.34766 13.4155 6.84814 13.916 7.76367 13.916L11.7676 13.916L11.7676 18.3838L9.82666 18.3838C9.46045 18.3838 9.14307 18.7012 9.14307 19.0674C9.14307 19.4336 9.46045 19.7388 9.82666 19.7388L15.0513 19.7388C15.4175 19.7388 15.7349 19.4214 15.7349 19.0674C15.7349 18.7012 15.4175 18.3838 15.0513 18.3838L13.1226 18.3838L13.1226 13.916L17.1143 13.916C18.0298 13.916 18.5425 13.4155 18.5425 12.5122L18.5425 8.36182C18.5425 7.4585 18.0298 6.95801 17.1143 6.95801L13.1226 6.95801L13.1226 5.83496C13.1226 5.46875 12.8052 5.16357 12.439 5.16357C12.0728 5.16357 11.7676 5.46875 11.7676 5.83496L11.7676 6.95801L7.76367 6.95801C6.84814 6.95801 6.34766 7.4585 6.34766 8.36182ZM10.4492 11.2305L12.0605 8.93555C12.2681 8.63037 12.6221 8.61816 12.8418 8.93555L14.4409 11.2305C14.7095 11.6211 14.5752 11.9507 14.0991 11.9507L10.8154 11.9507C10.3027 11.9507 10.1807 11.6211 10.4492 11.2305Z" fill="#5ac8f5"/>
 </g>
</svg>
