<?xml version="1.0" encoding="UTF-8"?>
<!--Generator: Apple Native CoreSVG 175.5-->
<!DOCTYPE svg
PUBLIC "-//W3C//DTD SVG 1.1//EN"
       "http://www.w3.org/Graphics/SVG/1.1/DTD/svg11.dtd">
<svg version="1.1" xmlns="http://www.w3.org/2000/svg" xmlns:xlink="http://www.w3.org/1999/xlink" width="24.9023" height="24.9146">
 <g>
  <rect height="24.9146" opacity="0" width="24.9023" x="0" y="0"/>
  <path d="M12.4512 24.9023C19.2627 24.9023 24.9023 19.2505 24.9023 12.4512C24.9023 5.63965 19.2505 0 12.439 0C5.63965 0 0 5.63965 0 12.4512C0 19.2505 5.65186 24.9023 12.4512 24.9023ZM12.4512 22.8271C6.68945 22.8271 2.0874 18.2129 2.0874 12.4512C2.0874 6.68945 6.67725 2.0752 12.439 2.0752C18.2007 2.0752 22.8271 6.68945 22.8271 12.4512C22.8271 18.2129 18.2129 22.8271 12.4512 22.8271ZM8.26416 6.16455L16.6382 6.16455C16.9312 6.16455 17.1753 5.92041 17.1753 5.63965C17.1753 5.35889 16.9312 5.11475 16.6382 5.11475L8.26416 5.11475C7.97119 5.11475 7.73926 5.35889 7.73926 5.63965C7.73926 5.92041 7.97119 6.16455 8.26416 6.16455ZM12.4512 9.80225C13.9404 9.80225 15.2344 9.99756 16.1377 10.376L16.394 6.90918L8.5083 6.90918L8.76465 10.376C9.68018 10.0098 10.9619 9.80225 12.4512 9.80225ZM12.4512 13.7451C15.0635 13.7451 16.9189 13.0737 16.9189 12.1338C16.9189 11.2061 15.0391 10.5469 12.4512 10.5469C9.87549 10.5469 7.9834 11.2061 7.9834 12.1338C7.9834 13.0737 9.87549 13.7451 12.4512 13.7451ZM12.2314 16.7725L12.6709 16.7725C14.7949 16.7725 16.4185 15.5518 16.8213 13.501C15.9302 14.1113 14.3799 14.4653 12.4512 14.4653C10.5347 14.4653 8.97217 14.1113 8.08105 13.4888C8.47168 15.5518 10.1074 16.7725 12.2314 16.7725ZM12.4512 20.6177C13.501 20.6177 14.8804 20.3369 15.4907 19.751C15.6494 19.5801 15.6494 19.3604 15.5884 19.1162L14.9536 17.0288C14.27 17.3462 13.4644 17.5171 12.6709 17.5171L12.207 17.5171C11.438 17.5171 10.6323 17.3462 9.94873 17.041L9.31396 19.1162C9.25293 19.3604 9.25293 19.5801 9.42383 19.751C10.022 20.3369 11.4014 20.6177 12.4512 20.6177Z" fill="#5ac8f5"/>
 </g>
</svg>
