<?xml version="1.0" encoding="UTF-8"?>
<!--Generator: Apple Native CoreSVG 175.5-->
<!DOCTYPE svg
PUBLIC "-//W3C//DTD SVG 1.1//EN"
       "http://www.w3.org/Graphics/SVG/1.1/DTD/svg11.dtd">
<svg version="1.1" xmlns="http://www.w3.org/2000/svg" xmlns:xlink="http://www.w3.org/1999/xlink" width="22.7905" height="24.6582">
 <g>
  <rect height="24.6582" opacity="0" width="22.7905" x="0" y="0"/>
  <path d="M4.92554 17.2913L8.41675 17.2913C8.52661 17.2913 8.62427 17.3279 8.70972 17.4011L14.2151 22.3328C14.8132 22.8577 15.2527 23.1018 15.8386 23.1018C16.3147 23.1018 16.7053 22.8821 16.9861 22.467L15.5701 21.0632L9.67407 15.7776C9.42993 15.5579 9.28345 15.509 8.96606 15.509L5.01099 15.509C4.54712 15.509 4.3396 15.3015 4.3396 14.8499L4.3396 9.82056L2.87476 8.35571C2.59399 8.74634 2.4353 9.29565 2.4353 10.0159L2.4353 14.6912C2.4353 16.4612 3.26538 17.2913 4.92554 17.2913ZM17.218 15.4968L17.218 3.00903C17.218 2.21558 16.6321 1.5686 15.8142 1.5686C15.2283 1.5686 14.8621 1.83716 14.2151 2.41089L8.88062 7.14722L10.1868 8.46558L14.9475 4.14429C15.0085 4.08325 15.0818 4.04663 15.155 4.04663C15.2405 4.04663 15.3137 4.10767 15.3137 4.21753L15.3137 13.5925Z" fill="#5ac8f5" fill-opacity="0.5"/>
  <path d="M21.1853 24.3835C21.5515 24.7498 22.1619 24.7498 22.5159 24.3835C22.8821 24.0051 22.8821 23.4192 22.5159 23.053L1.61743 2.15454C1.25122 1.78833 0.640869 1.78833 0.274658 2.15454C-0.0915527 2.50854-0.0915527 3.1311 0.274658 3.48511Z" fill="#5ac8f5"/>
 </g>
</svg>
