<?xml version="1.0" encoding="UTF-8"?>
<!--Generator: Apple Native CoreSVG 175.5-->
<!DOCTYPE svg
PUBLIC "-//W3C//DTD SVG 1.1//EN"
       "http://www.w3.org/Graphics/SVG/1.1/DTD/svg11.dtd">
<svg version="1.1" xmlns="http://www.w3.org/2000/svg" xmlns:xlink="http://www.w3.org/1999/xlink" width="23.9621" height="29.3335">
 <g>
  <rect height="29.3335" opacity="0" width="23.9621" x="0" y="0"/>
  <path d="M11.3522 5.32227C12.8171 5.32227 14.0011 4.13818 14.0011 2.64893C14.0011 1.18408 12.8171 0 11.3522 0C9.86296 0 8.67888 1.18408 8.67888 2.64893C8.67888 4.13818 9.86296 5.32227 11.3522 5.32227ZM0.439135 28.9795C0.95183 29.4189 1.74529 29.3945 2.22136 28.8574L6.56706 23.8892C6.799 23.6206 6.93328 23.3276 6.9699 22.9858L7.51921 17.6392C7.53142 17.4561 7.72673 17.3828 7.8488 17.5293L11.3522 21.5698L11.3522 28.0273C11.3522 28.7231 11.9137 29.2969 12.6218 29.2969C13.3053 29.2969 13.8913 28.7231 13.8913 28.0273L13.8913 21.1548C13.8913 20.813 13.7814 20.5811 13.6227 20.3491L9.91179 14.9292L11.7184 9.53369C11.8161 9.24072 12.0114 9.13086 12.3044 9.13086L22.07 9.13086C22.7536 9.13086 23.3395 8.56934 23.3395 7.87354C23.3395 7.17773 22.7536 6.604 22.07 6.604L7.36052 6.604C6.33513 6.604 5.50505 6.89697 4.67497 7.71484L2.27019 10.144C1.46453 10.9619 1.90398 12.2925 3.01482 12.2925L5.28533 12.2925L4.79705 13.7451C4.5407 14.5264 4.41863 15.332 4.41863 16.1255L4.41863 22.522L0.317065 27.1973C-0.146803 27.7222-0.0979745 28.5156 0.439135 28.9795ZM22.07 10.4126C23.1076 10.4126 23.9621 9.55811 23.9621 8.49609C23.9621 7.4585 23.1076 6.604 22.07 6.604C21.008 6.604 20.1535 7.4585 20.1535 8.49609C20.1535 9.55811 21.008 10.4126 22.07 10.4126Z" fill="#5ac8f5"/>
 </g>
</svg>
