<?xml version="1.0" encoding="UTF-8"?>
<!--Generator: Apple Native CoreSVG 175.5-->
<!DOCTYPE svg
PUBLIC "-//W3C//DTD SVG 1.1//EN"
       "http://www.w3.org/Graphics/SVG/1.1/DTD/svg11.dtd">
<svg version="1.1" xmlns="http://www.w3.org/2000/svg" xmlns:xlink="http://www.w3.org/1999/xlink" width="22.4731" height="22.4976">
 <g>
  <rect height="22.4976" opacity="0" width="22.4731" x="0" y="0"/>
  <path d="M3.83301 22.4976L18.6401 22.4976C21.2036 22.4976 22.4731 21.228 22.4731 18.7134L22.4731 3.80859C22.4731 1.29395 21.2036 0.0244141 18.6401 0.0244141L3.83301 0.0244141C1.28174 0.0244141 0 1.28174 0 3.80859L0 18.7134C0 21.2402 1.28174 22.4976 3.83301 22.4976Z" fill="#5ac8f5" fill-opacity="0.25"/>
  <path d="M4.78516 16.3818C4.3335 16.3818 4.04053 16.0889 4.04053 15.6372C4.04053 15.3809 4.12598 15.1611 4.32129 14.9536L7.6416 11.0474C8.22754 10.3516 8.89893 9.64355 8.89893 8.82568C8.89893 7.89795 8.22754 7.27539 7.22656 7.27539C6.32324 7.27539 5.70068 7.72705 5.37109 8.6792C5.2002 9.05762 5.01709 9.26514 4.65088 9.26514C4.22363 9.26514 3.94287 8.95996 3.94287 8.5083C3.94287 8.36182 3.97949 8.21533 4.00391 8.05664C4.3335 6.7749 5.66406 5.81055 7.16553 5.81055C9.14307 5.81055 10.4248 6.93359 10.4248 8.69141C10.4248 9.94873 9.729 10.8521 8.80127 11.9385L6.32324 14.7949L6.32324 14.8926L9.98535 14.8926C10.3882 14.8926 10.6934 15.1489 10.6934 15.625C10.6934 16.0767 10.3882 16.3818 9.98535 16.3818ZM17.1631 16.6504C16.6626 16.6504 16.4185 16.2842 16.4185 15.7959L16.4185 14.3188L12.7441 14.3188C12.0972 14.3188 11.6577 13.916 11.6577 13.2446C11.6577 12.9028 11.731 12.6221 11.9385 12.2314C12.793 10.7056 14.0503 8.55713 15.1001 6.78711C15.5151 6.09131 15.9546 5.81055 16.687 5.81055C17.4316 5.81055 17.9443 6.28662 17.9443 7.01904L17.9443 12.9028L18.6157 12.9028C19.043 12.9028 19.3237 13.1714 19.3237 13.623C19.3237 14.0625 19.043 14.3188 18.6157 14.3188L17.9443 14.3188L17.9443 15.7959C17.9443 16.2964 17.6758 16.6504 17.1631 16.6504ZM16.4185 12.9028L16.4185 7.51953L16.333 7.51953C15.3442 9.22852 14.0625 11.4258 13.3179 12.854L13.3179 12.9028Z" fill="#5ac8f5"/>
 </g>
</svg>
