<?xml version="1.0" encoding="UTF-8"?>
<!--Generator: Apple Native CoreSVG 175.5-->
<!DOCTYPE svg
PUBLIC "-//W3C//DTD SVG 1.1//EN"
       "http://www.w3.org/Graphics/SVG/1.1/DTD/svg11.dtd">
<svg version="1.1" xmlns="http://www.w3.org/2000/svg" xmlns:xlink="http://www.w3.org/1999/xlink" width="24.9023" height="24.9146">
 <g>
  <rect height="24.9146" opacity="0" width="24.9023" x="0" y="0"/>
  <path d="M12.4512 24.9023C19.2627 24.9023 24.9023 19.2505 24.9023 12.4512C24.9023 5.63965 19.2505 0 12.439 0C5.63965 0 0 5.63965 0 12.4512C0 19.2505 5.65186 24.9023 12.4512 24.9023ZM12.4512 22.8271C6.68945 22.8271 2.0874 18.2129 2.0874 12.4512C2.0874 6.68945 6.67725 2.0752 12.439 2.0752C18.2007 2.0752 22.8271 6.68945 22.8271 12.4512C22.8271 18.2129 18.2129 22.8271 12.4512 22.8271ZM7.08008 16.8579L17.8345 16.8579C18.457 16.8579 18.8232 16.5283 18.8232 16.0522C18.8232 15.3687 18.1519 14.7705 17.5537 14.1602C17.0898 13.6841 17.0044 12.7197 16.9556 11.9507C16.8945 9.35059 16.1987 7.56836 14.4165 6.90918C14.1479 6.04248 13.4399 5.33447 12.4512 5.33447C11.4624 5.33447 10.7666 6.04248 10.4858 6.90918C8.70361 7.56836 8.00781 9.35059 7.95898 11.9507C7.89795 12.7197 7.80029 13.6841 7.34863 14.1602C6.7749 14.7827 6.0791 15.3687 6.0791 16.0522C6.0791 16.5283 6.44531 16.8579 7.08008 16.8579ZM12.4512 19.6777C13.5986 19.6777 14.4409 18.8599 14.5142 17.8711L10.3882 17.8711C10.4736 18.8599 11.3037 19.6777 12.4512 19.6777Z" fill="#5ac8f5"/>
 </g>
</svg>
