<?xml version="1.0" encoding="UTF-8"?>
<!--Generator: Apple Native CoreSVG 175.5-->
<!DOCTYPE svg
PUBLIC "-//W3C//DTD SVG 1.1//EN"
       "http://www.w3.org/Graphics/SVG/1.1/DTD/svg11.dtd">
<svg version="1.1" xmlns="http://www.w3.org/2000/svg" xmlns:xlink="http://www.w3.org/1999/xlink" width="25.5737" height="26.7456">
 <g>
  <rect height="26.7456" opacity="0" width="25.5737" x="0" y="0"/>
  <path d="M15.2832 26.7456C16.1621 26.7456 16.7847 25.9888 17.2363 24.8169L25.2319 3.93066C25.4517 3.36914 25.5737 2.86865 25.5737 2.45361C25.5737 1.66016 25.0854 1.17188 24.292 1.17188C23.877 1.17188 23.3765 1.29395 22.8149 1.51367L1.81885 9.55811C0.793457 9.94873 0 10.5713 0 11.4624C0 12.5854 0.854492 12.9639 2.02637 13.3179L8.61816 15.3198C9.39941 15.564 9.83887 15.5396 10.3638 15.0513L23.7549 2.53906C23.9136 2.39258 24.0967 2.41699 24.2188 2.52686C24.3408 2.64893 24.353 2.83203 24.2065 2.99072L11.7432 16.4307C11.2671 16.9312 11.2305 17.3462 11.4624 18.1641L13.4033 24.6094C13.7695 25.8423 14.1479 26.7456 15.2832 26.7456Z" fill="#5ac8f5"/>
 </g>
</svg>
