<?xml version="1.0" encoding="UTF-8"?>
<!--Generator: Apple Native CoreSVG 175.5-->
<!DOCTYPE svg
PUBLIC "-//W3C//DTD SVG 1.1//EN"
       "http://www.w3.org/Graphics/SVG/1.1/DTD/svg11.dtd">
<svg version="1.1" xmlns="http://www.w3.org/2000/svg" xmlns:xlink="http://www.w3.org/1999/xlink" width="22.2794" height="30.7983">
 <g>
  <rect height="30.7983" opacity="0" width="22.2794" x="0" y="0"/>
  <path d="M5.66561 8.11768L7.13045 9.58252C7.97274 8.19092 8.86385 6.84814 9.74276 5.52979C9.816 5.40771 9.92586 5.40771 9.9991 5.52979C11.6959 8.10547 13.5147 10.7422 14.8575 13.9404C15.419 15.2344 16.2003 17.2363 16.2003 18.1641C16.2003 18.3472 16.1881 18.4692 16.1637 18.6035L18.2266 20.6665C18.2877 20.2881 18.3243 19.8975 18.3243 19.4824C18.3243 17.041 17.3599 14.6118 16.6519 12.9883C15.3458 10.0464 13.295 6.81152 11.5128 4.05273C11.0855 3.40576 10.5728 3.02734 9.86483 3.02734C9.1324 3.02734 8.64412 3.40576 8.21688 4.05273C7.37459 5.33447 6.50789 6.72607 5.66561 8.11768ZM9.86483 27.7466C12.5015 27.7466 14.6744 26.8433 16.1637 25.293L14.711 23.8525C13.588 25.061 11.9034 25.7446 9.86483 25.7446C5.98299 25.7446 3.3951 23.2422 3.3951 19.4824C3.3951 17.5293 4.13973 15.6372 4.83553 13.9893L3.30965 12.4634C2.3575 14.6118 1.40535 17.041 1.40535 19.4824C1.40535 24.4385 4.7867 27.7466 9.86483 27.7466ZM18.544 7.4585C20.6436 7.4585 22.2794 5.82275 22.2794 3.73535C22.2794 1.63574 20.6436 0 18.544 0C16.4566 0 14.8209 1.63574 14.8209 3.73535C14.8209 5.82275 16.4566 7.4585 18.544 7.4585ZM18.544 5.7373C17.421 5.7373 16.5421 4.8584 16.5421 3.73535C16.5421 2.6001 17.421 1.72119 18.544 1.72119C19.6793 1.72119 20.5582 2.6001 20.5582 3.73535C20.5582 4.8584 19.6793 5.7373 18.544 5.7373ZM19.7037 26.8311C20.0821 27.1973 20.6803 27.1973 21.0343 26.8311C21.4005 26.4526 21.4127 25.8667 21.0343 25.5005L1.61287 6.0791C1.24666 5.71289 0.648518 5.71289 0.2701 6.0791C-0.0839039 6.44531-0.096111 7.04346 0.2701 7.40967Z" fill="#5ac8f5"/>
 </g>
</svg>
