<?xml version="1.0" encoding="UTF-8"?>
<!--Generator: Apple Native CoreSVG 175.5-->
<!DOCTYPE svg
PUBLIC "-//W3C//DTD SVG 1.1//EN"
       "http://www.w3.org/Graphics/SVG/1.1/DTD/svg11.dtd">
<svg version="1.1" xmlns="http://www.w3.org/2000/svg" xmlns:xlink="http://www.w3.org/1999/xlink" width="22.4731" height="22.4976">
 <g>
  <rect height="22.4976" opacity="0" width="22.4731" x="0" y="0"/>
  <path d="M3.83301 22.4976L18.6401 22.4976C21.2036 22.4976 22.4731 21.228 22.4731 18.7134L22.4731 3.80859C22.4731 1.29395 21.2036 0.0244141 18.6401 0.0244141L3.83301 0.0244141C1.28174 0.0244141 0 1.28174 0 3.80859L0 18.7134C0 21.2402 1.28174 22.4976 3.83301 22.4976Z" fill="#5ac8f5" fill-opacity="0.25"/>
  <path d="M7.26318 16.9434C6.82373 16.9434 6.51855 16.6504 6.51855 16.1987C6.51855 15.7715 6.72607 15.5273 7.17773 15.3809C8.11768 15.1123 8.93555 14.2334 8.93555 12.9028C8.93555 12.5 8.8623 12.0728 8.75244 11.6455L7.26318 11.6455C6.86035 11.6455 6.56738 11.377 6.56738 10.9619C6.56738 10.5591 6.86035 10.2905 7.26318 10.2905L8.42285 10.2905C8.30078 9.80225 8.21533 9.30176 8.21533 8.80127C8.21533 6.4209 9.80225 4.91943 12.3901 4.91943C13.1836 4.91943 13.8794 5.01709 14.4653 5.23682C14.9414 5.41992 15.1001 5.68848 15.1001 6.03027C15.1001 6.43311 14.8926 6.68945 14.4165 6.68945C14.0747 6.68945 13.562 6.40869 12.4878 6.40869C10.8398 6.40869 9.86328 7.33643 9.86328 8.69141C9.86328 9.30176 9.97314 9.81445 10.083 10.2905L13.5498 10.2905C13.9526 10.2905 14.2578 10.5591 14.2578 10.9619C14.2578 11.377 13.9526 11.6455 13.5498 11.6455L10.4126 11.6455C10.498 12.0117 10.5469 12.4023 10.5469 12.8418C10.5469 13.9038 10.1074 14.917 9.46045 15.4663L14.9292 15.4663C15.3687 15.4663 15.686 15.7593 15.686 16.1987C15.686 16.6626 15.3687 16.9434 14.9292 16.9434Z" fill="#5ac8f5"/>
 </g>
</svg>
