<?xml version="1.0" encoding="UTF-8"?>
<!--Generator: Apple Native CoreSVG 175.5-->
<!DOCTYPE svg
PUBLIC "-//W3C//DTD SVG 1.1//EN"
       "http://www.w3.org/Graphics/SVG/1.1/DTD/svg11.dtd">
<svg version="1.1" xmlns="http://www.w3.org/2000/svg" xmlns:xlink="http://www.w3.org/1999/xlink" width="26.4343" height="26.1108">
 <g>
  <rect height="26.1108" opacity="0" width="26.4343" x="0" y="0"/>
  <path d="M0.233404 12.2803L3.83448 23.4741C4.38379 25.2197 5.59229 26.1108 7.44776 26.1108L18.9956 26.1108C20.8511 26.1108 22.0596 25.2197 22.6089 23.4741L26.1856 12.3291C26.7715 10.5225 26.3198 9.09424 24.855 8.02002L15.5044 1.14746C13.9785 0.012207 12.4648 0.012207 10.939 1.14746L1.58838 8.02002C0.123541 9.09424-0.328119 10.5103 0.233404 12.2803ZM2.88233 14.1479L23.561 14.1479L20.7656 22.876C20.4727 23.8037 19.9844 24.1455 18.9956 24.1455L7.44776 24.1455C6.45899 24.1455 5.97071 23.8037 5.67774 22.876Z" fill="#5ac8f5"/>
 </g>
</svg>
