<?xml version="1.0" encoding="UTF-8"?>
<!--Generator: Apple Native CoreSVG 175.5-->
<!DOCTYPE svg
PUBLIC "-//W3C//DTD SVG 1.1//EN"
       "http://www.w3.org/Graphics/SVG/1.1/DTD/svg11.dtd">
<svg version="1.1" xmlns="http://www.w3.org/2000/svg" xmlns:xlink="http://www.w3.org/1999/xlink" width="25.0854" height="24.1577">
 <g>
  <rect height="24.1577" opacity="0" width="25.0854" x="0" y="0"/>
  <path d="M8.83789 24.1455L16.2476 24.1455C17.7979 24.1455 18.5303 23.645 19.3359 22.7783L24.0723 17.5537C24.8657 16.6748 25.0854 16.0767 25.0854 14.8682L25.0854 9.28955C25.0854 8.06885 24.8657 7.48291 24.0723 6.604L19.3359 1.37939C18.5303 0.512695 17.7979 0 16.2476 0L8.83789 0C7.2876 0 6.54297 0.512695 5.74951 1.37939L1.01318 6.604C0.20752 7.48291 0 8.06885 0 9.28955L0 14.8682C0 16.0767 0.20752 16.6748 1.01318 17.5537L5.74951 22.7783C6.54297 23.645 7.2876 24.1455 8.83789 24.1455Z" fill="#5ac8f5"/>
 </g>
</svg>
