<?xml version="1.0" encoding="UTF-8"?>
<!--Generator: Apple Native CoreSVG 175.5-->
<!DOCTYPE svg
PUBLIC "-//W3C//DTD SVG 1.1//EN"
       "http://www.w3.org/Graphics/SVG/1.1/DTD/svg11.dtd">
<svg version="1.1" xmlns="http://www.w3.org/2000/svg" xmlns:xlink="http://www.w3.org/1999/xlink" width="33.606" height="19.2017">
 <g>
  <rect height="19.2017" opacity="0" width="33.606" x="0" y="0"/>
  <path d="M15.0757 19.2017C16.0278 19.2017 16.8335 18.4692 16.8335 17.1143L16.8335 2.11182C16.8335 0.756836 16.0278 0.0244141 15.0757 0.0244141C14.5752 0.0244141 14.1724 0.183105 13.6719 0.476074L1.23291 7.80029C0.366211 8.31299 0 8.91113 0 9.60693C0 10.3149 0.366211 10.9131 1.23291 11.4258L13.6719 18.75C14.1602 19.043 14.5752 19.2017 15.0757 19.2017ZM14.5386 16.9434C14.4531 16.9434 14.3555 16.9189 14.2456 16.8457L2.63672 9.96094C2.46582 9.86328 2.36816 9.77783 2.36816 9.60693C2.36816 9.44824 2.46582 9.36279 2.63672 9.26514L14.2456 2.38037C14.3677 2.31934 14.4531 2.28271 14.5386 2.28271C14.7217 2.28271 14.8682 2.39258 14.8682 2.64893L14.8682 16.5771C14.8682 16.8335 14.7217 16.9434 14.5386 16.9434ZM31.8481 19.2017C32.8003 19.2017 33.606 18.4692 33.606 17.1143L33.606 2.11182C33.606 0.756836 32.8003 0.0244141 31.8481 0.0244141C31.3477 0.0244141 30.9448 0.183105 30.4443 0.476074L18.0054 7.80029C17.1387 8.31299 16.7725 8.91113 16.7725 9.60693C16.7725 10.3149 17.1387 10.9131 18.0054 11.4258L30.4443 18.75C30.9326 19.043 31.3477 19.2017 31.8481 19.2017ZM31.311 16.9434C31.2378 16.9434 31.1401 16.9189 31.0181 16.8457L19.4092 9.96094C19.2383 9.86328 19.1528 9.77783 19.1528 9.60693C19.1528 9.44824 19.2383 9.36279 19.4092 9.26514L31.0181 2.38037C31.1401 2.31934 31.2378 2.28271 31.311 2.28271C31.4941 2.28271 31.6406 2.39258 31.6406 2.64893L31.6406 16.5771C31.6406 16.8335 31.4941 16.9434 31.311 16.9434Z" fill="#5ac8f5"/>
 </g>
</svg>
