<?xml version="1.0" encoding="UTF-8"?>
<!--Generator: Apple Native CoreSVG 175.5-->
<!DOCTYPE svg
PUBLIC "-//W3C//DTD SVG 1.1//EN"
       "http://www.w3.org/Graphics/SVG/1.1/DTD/svg11.dtd">
<svg version="1.1" xmlns="http://www.w3.org/2000/svg" xmlns:xlink="http://www.w3.org/1999/xlink" width="23.6818" height="28.7231">
 <g>
  <rect height="28.7231" opacity="0" width="23.6818" x="0" y="0"/>
  <path d="M11.8532 6.10352C13.3303 6.10352 14.5143 4.91943 14.5143 3.44238C14.5143 1.96533 13.3303 0.769043 11.8532 0.769043C10.3762 0.769043 9.17987 1.96533 9.17987 3.44238C9.17987 4.91943 10.3762 6.10352 11.8532 6.10352ZM22.0217 8.39844C21.5212 7.89795 20.7521 7.91016 20.2516 8.39844L17.2731 11.3525L14.2946 8.34961C13.7087 7.75146 12.7809 7.38525 11.8532 7.38525L3.83319 7.38525C3.28387 7.38525 2.83221 7.71484 2.6369 8.25195L0.720393 14.0137C0.427424 14.9048 0.940119 15.5151 1.56268 15.6616C2.13641 15.8203 2.82 15.5762 3.08856 14.7949L4.73651 9.8877L7.38543 9.8877C7.62957 9.8877 7.80047 10.1074 7.71502 10.3516L6.09149 15.2344C5.55438 16.8213 6.04266 18.3472 7.82488 19.1284L13.0373 21.4111L14.7951 27.5757C15.0148 28.3447 15.7228 28.5767 16.321 28.418C16.9313 28.2593 17.4318 27.6978 17.1999 26.8799L15.2712 20.1416C15.1613 19.7876 14.9904 19.5312 14.5754 19.3481L10.5104 17.5537L12.6711 11.0474C12.7687 10.7788 13.0861 10.6812 13.2936 10.8887L16.382 14.0137C16.8703 14.502 17.676 14.502 18.1642 14.0137L22.0217 10.1685C22.5222 9.65576 22.5222 8.89893 22.0217 8.39844ZM6.50653 19.7388L5.89617 23.2056L0.647151 26.1353C-0.0974784 26.5503-0.134099 27.3315 0.207697 27.8809C0.52508 28.3936 1.18426 28.7109 1.88006 28.3203L7.65399 25.1221C8.00799 24.9146 8.13006 24.6826 8.25213 24.3042L9.33856 21.0693L7.34881 20.2026C7.04363 20.0684 6.76287 19.9097 6.50653 19.7388ZM23.0104 6.10352C23.4255 5.896 23.6818 5.49316 23.6818 5.05371L23.6818 1.2207C23.6818 0.549316 23.1691 0 22.4855 0L19.7756 0C19.1042 0 18.5671 0.549316 18.5671 1.2207L18.5671 5.05371C18.5671 5.49316 18.8234 5.896 19.2507 6.10352L21.1305 7.06787ZM20.4592 9.26514L21.8141 9.26514L21.8141 5.76172L20.4592 5.76172Z" fill="#5ac8f5"/>
 </g>
</svg>
