<?xml version="1.0" encoding="UTF-8"?>
<!--Generator: Apple Native CoreSVG 175.5-->
<!DOCTYPE svg
PUBLIC "-//W3C//DTD SVG 1.1//EN"
       "http://www.w3.org/Graphics/SVG/1.1/DTD/svg11.dtd">
<svg version="1.1" xmlns="http://www.w3.org/2000/svg" xmlns:xlink="http://www.w3.org/1999/xlink" width="41.333" height="20.2515">
 <g>
  <rect height="20.2515" opacity="0" width="41.333" x="0" y="0"/>
  <path d="M1.09863 20.2393C1.80664 20.2393 2.19727 19.7632 2.19727 19.0796L2.19727 3.77197L2.28271 3.77197L5.52979 18.4937C5.71289 19.2993 6.20117 19.9219 7.04346 19.9219C7.88574 19.9219 8.36182 19.2993 8.54492 18.457L11.792 3.77197L11.8774 3.77197L11.8774 19.0796C11.8774 19.7388 12.2314 20.2393 12.9639 20.2393C13.6841 20.2393 14.0747 19.7998 14.0747 19.0796L14.0747 1.83105C14.0747 0.805664 13.3667 0 12.2192 0C11.1938 0 10.5957 0.549316 10.376 1.58691L7.10449 16.6992L7.03125 16.6992L3.68652 1.58691C3.4668 0.549316 2.88086 0 1.84326 0C0.695801 0 0 0.805664 0 1.83105L0 19.0796C0 19.7266 0.341797 20.2393 1.09863 20.2393ZM18.9209 20.166C19.6411 20.166 20.105 19.751 20.105 18.9331L20.105 12.8418L22.583 12.8418C25.9277 12.8418 27.6489 9.8999 27.6489 6.54297C27.6489 3.21045 25.9277 0.268555 22.6929 0.268555L18.8843 0.268555C18.1396 0.268555 17.7246 0.756836 17.7246 1.51367L17.7246 18.9331C17.7246 19.7021 18.1396 20.166 18.9209 20.166ZM20.105 10.791L20.105 2.33154L22.0947 2.33154C24.3774 2.33154 25.3052 4.22363 25.3052 6.54297C25.3052 8.8623 24.4019 10.791 22.0947 10.791ZM31.8115 20.2393C32.6416 20.2393 32.9956 19.6533 32.9956 18.9209L32.9956 10.9497L38.9404 10.9497L38.9404 18.9209C38.9404 19.7021 39.3433 20.2393 40.1245 20.2393C40.9058 20.2393 41.333 19.7021 41.333 18.9209L41.333 1.31836C41.333 0.524902 40.9058 0 40.1245 0C39.3433 0 38.9404 0.524902 38.9404 1.31836L38.9404 8.8501L32.9956 8.8501L32.9956 1.31836C32.9956 0.57373 32.6416 0 31.8115 0C31.0303 0 30.6274 0.524902 30.6274 1.31836L30.6274 18.9209C30.6274 19.7021 31.0303 20.2393 31.8115 20.2393Z" fill="#5ac8f5"/>
 </g>
</svg>
