<?xml version="1.0" encoding="UTF-8"?>
<!--Generator: Apple Native CoreSVG 175.5-->
<!DOCTYPE svg
PUBLIC "-//W3C//DTD SVG 1.1//EN"
       "http://www.w3.org/Graphics/SVG/1.1/DTD/svg11.dtd">
<svg version="1.1" xmlns="http://www.w3.org/2000/svg" xmlns:xlink="http://www.w3.org/1999/xlink" width="31.3923" height="21.8384">
 <g>
  <rect height="21.8384" opacity="0" width="31.3923" x="0" y="0"/>
  <path d="M2.39183 21.8384L28.7346 21.8384C29.2717 21.8384 29.7234 21.3867 29.7234 20.8496C29.7234 20.3125 29.2717 19.873 28.7346 19.873L2.39183 19.873C1.85472 19.873 1.41526 20.3125 1.41526 20.8496C1.41526 21.3867 1.85472 21.8384 2.39183 21.8384Z" fill="#5ac8f5" fill-opacity="0.5"/>
  <path d="M6.8596 13.6597L27.7947 8.08105C30.1384 7.44629 31.8962 5.7251 31.2615 3.97949C30.6755 2.39258 28.3196 2.00195 26.22 2.70996L18.8835 5.22461C18.3708 5.39551 18.0046 5.3833 17.4187 5.10254L7.18919 0.268555C6.8596 0.12207 6.49339 0.0854492 6.1638 0.183105L5.32151 0.439453C5.02854 0.537109 4.93089 0.878906 5.19944 1.15967L12.1941 8.58154L12.426 7.42188L6.24925 9.5459L8.64183 9.61914L1.48851 7.08008C1.15892 6.97021 0.865947 7.01904 0.548564 7.31201L0.19456 7.6416C-0.0495803 7.86133-0.0617873 8.1543 0.145732 8.37402L4.4304 13.1836C4.99192 13.8184 5.822 13.9404 6.8596 13.6597Z" fill="#5ac8f5"/>
 </g>
</svg>
