<?xml version="1.0" encoding="UTF-8"?>
<!--Generator: Apple Native CoreSVG 175.5-->
<!DOCTYPE svg
PUBLIC "-//W3C//DTD SVG 1.1//EN"
       "http://www.w3.org/Graphics/SVG/1.1/DTD/svg11.dtd">
<svg version="1.1" xmlns="http://www.w3.org/2000/svg" xmlns:xlink="http://www.w3.org/1999/xlink" width="22.4731" height="22.4976">
 <g>
  <rect height="22.4976" opacity="0" width="22.4731" x="0" y="0"/>
  <path d="M6.32324 17.1509C5.63965 17.1509 5.13916 16.6504 5.13916 15.9668L5.13916 6.51855C5.13916 5.83496 5.63965 5.33447 6.32324 5.33447L16.1499 5.33447C16.8335 5.33447 17.334 5.83496 17.334 6.51855L17.334 15.9668C17.334 16.6504 16.8335 17.1509 16.1499 17.1509ZM8.83789 11.2793C9.21631 11.2793 9.52148 10.9985 9.52148 10.6079L9.52148 8.45947C9.52148 8.08105 9.21631 7.77588 8.83789 7.77588C8.47168 7.77588 8.17871 8.08105 8.17871 8.45947L8.17871 10.6079C8.17871 10.9985 8.47168 11.2793 8.83789 11.2793ZM13.623 11.2793C13.9893 11.2793 14.2944 10.9985 14.2944 10.6079L14.2944 8.45947C14.2944 8.08105 13.9893 7.77588 13.623 7.77588C13.2446 7.77588 12.9517 8.08105 12.9517 8.45947L12.9517 10.6079C12.9517 10.9985 13.2446 11.2793 13.623 11.2793ZM10.437 15.1123L12.0361 15.1123C12.2803 15.1123 12.3901 14.9902 12.3901 14.7583L12.3901 14.0015C12.3901 13.3423 11.8896 12.8418 11.2427 12.8418C10.5713 12.8418 10.083 13.3423 10.083 14.0015L10.083 14.7583C10.083 14.9902 10.1929 15.1123 10.437 15.1123ZM3.83301 22.4976L18.6401 22.4976C21.2036 22.4976 22.4731 21.228 22.4731 18.7134L22.4731 3.80859C22.4731 1.29395 21.2036 0.0244141 18.6401 0.0244141L3.83301 0.0244141C1.28174 0.0244141 0 1.28174 0 3.80859L0 18.7134C0 21.2402 1.28174 22.4976 3.83301 22.4976Z" fill="#5ac8f5"/>
 </g>
</svg>
