<?xml version="1.0" encoding="UTF-8"?>
<!--Generator: Apple Native CoreSVG 175.5-->
<!DOCTYPE svg
PUBLIC "-//W3C//DTD SVG 1.1//EN"
       "http://www.w3.org/Graphics/SVG/1.1/DTD/svg11.dtd">
<svg version="1.1" xmlns="http://www.w3.org/2000/svg" xmlns:xlink="http://www.w3.org/1999/xlink" width="24.9023" height="24.9146">
 <g>
  <rect height="24.9146" opacity="0" width="24.9023" x="0" y="0"/>
  <path d="M12.4512 24.9023C19.2627 24.9023 24.9023 19.2505 24.9023 12.4512C24.9023 5.63965 19.2505 0 12.439 0C5.63965 0 0 5.63965 0 12.4512C0 19.2505 5.65186 24.9023 12.4512 24.9023ZM5.24902 14.9292C5.24902 14.4043 5.60303 14.0625 6.18896 14.0625L9.05762 14.0625L9.05762 10.8398L6.18896 10.8398C5.60303 10.8398 5.24902 10.498 5.24902 9.96094C5.24902 9.39941 5.60303 9.06982 6.18896 9.06982L9.05762 9.06982L9.05762 6.20117C9.05762 5.60303 9.39941 5.26123 9.96094 5.26123C10.4858 5.26123 10.8276 5.60303 10.8276 6.20117L10.8276 9.06982L14.0747 9.06982L14.0747 6.20117C14.0747 5.60303 14.4043 5.26123 14.9536 5.26123C15.5029 5.26123 15.8447 5.60303 15.8447 6.20117L15.8447 9.06982L18.7134 9.06982C19.2993 9.06982 19.6533 9.39941 19.6533 9.96094C19.6533 10.498 19.2993 10.8398 18.7134 10.8398L15.8447 10.8398L15.8447 14.0625L18.7134 14.0625C19.2993 14.0625 19.6533 14.4043 19.6533 14.9292C19.6533 15.4907 19.2993 15.8325 18.7134 15.8325L15.8447 15.8325L15.8447 18.7012C15.8447 19.2993 15.5029 19.6411 14.9536 19.6411C14.4043 19.6411 14.0747 19.2993 14.0747 18.7012L14.0747 15.8325L10.8276 15.8325L10.8276 18.7012C10.8276 19.2993 10.4858 19.6411 9.96094 19.6411C9.39941 19.6411 9.05762 19.2993 9.05762 18.7012L9.05762 15.8325L6.18896 15.8325C5.60303 15.8325 5.24902 15.4907 5.24902 14.9292ZM10.8276 14.0625L14.0747 14.0625L14.0747 10.8398L10.8276 10.8398Z" fill="#5ac8f5"/>
 </g>
</svg>
