<?xml version="1.0" encoding="UTF-8"?>
<!--Generator: Apple Native CoreSVG 175.5-->
<!DOCTYPE svg
PUBLIC "-//W3C//DTD SVG 1.1//EN"
       "http://www.w3.org/Graphics/SVG/1.1/DTD/svg11.dtd">
<svg version="1.1" xmlns="http://www.w3.org/2000/svg" xmlns:xlink="http://www.w3.org/1999/xlink" width="24.5972" height="21.106">
 <g>
  <rect height="21.106" opacity="0" width="24.5972" x="0" y="0"/>
  <path d="M0.915527 1.84326L14.6362 1.84326C15.1489 1.84326 15.564 1.44043 15.564 0.915527C15.564 0.402832 15.1489 0 14.6362 0L0.915527 0C0.402832 0 0 0.402832 0 0.915527C0 1.44043 0.402832 1.84326 0.915527 1.84326ZM18.2861 1.84326L23.6572 1.84326C24.1699 1.84326 24.5972 1.44043 24.5972 0.915527C24.5972 0.402832 24.1699 0 23.6572 0L18.2861 0C17.7734 0 17.3706 0.402832 17.3706 0.915527C17.3706 1.44043 17.7734 1.84326 18.2861 1.84326ZM0.927734 8.23975L3.50342 8.23975C4.02832 8.23975 4.43115 7.83691 4.43115 7.31201C4.43115 6.79932 4.02832 6.39648 3.50342 6.39648L0.927734 6.39648C0.415039 6.39648 0 6.79932 0 7.31201C0 7.83691 0.415039 8.23975 0.927734 8.23975ZM7.16553 8.23975L13.5864 8.23975C14.1113 8.23975 14.5142 7.83691 14.5142 7.31201C14.5142 6.79932 14.1113 6.39648 13.5864 6.39648L7.16553 6.39648C6.65283 6.39648 6.23779 6.79932 6.23779 7.31201C6.23779 7.83691 6.65283 8.23975 7.16553 8.23975ZM17.2485 8.23975L23.6694 8.23975C24.1821 8.23975 24.5972 7.83691 24.5972 7.31201C24.5972 6.79932 24.1821 6.39648 23.6694 6.39648L17.2485 6.39648C16.7358 6.39648 16.3086 6.79932 16.3086 7.31201C16.3086 7.83691 16.7358 8.23975 17.2485 8.23975ZM0.927734 14.6362L6.29883 14.6362C6.81152 14.6362 7.22656 14.2212 7.22656 13.7085C7.22656 13.1958 6.81152 12.793 6.29883 12.793L0.927734 12.793C0.415039 12.793 0 13.1958 0 13.7085C0 14.2212 0.415039 14.6362 0.927734 14.6362ZM9.96094 14.6362L23.6694 14.6362C24.1821 14.6362 24.5972 14.2212 24.5972 13.7085C24.5972 13.1958 24.1821 12.793 23.6694 12.793L9.96094 12.793C9.43604 12.793 9.021 13.1958 9.021 13.7085C9.021 14.2212 9.43604 14.6362 9.96094 14.6362ZM0.915527 21.0205L13.9771 21.0205C14.4897 21.0205 14.9048 20.6177 14.9048 20.105C14.9048 19.5923 14.4897 19.1772 13.9771 19.1772L0.915527 19.1772C0.402832 19.1772 0 19.5923 0 20.105C0 20.6177 0.402832 21.0205 0.915527 21.0205Z" fill="#5ac8f5"/>
 </g>
</svg>
