<?xml version="1.0" encoding="UTF-8"?>
<!--Generator: Apple Native CoreSVG 175.5-->
<!DOCTYPE svg
PUBLIC "-//W3C//DTD SVG 1.1//EN"
       "http://www.w3.org/Graphics/SVG/1.1/DTD/svg11.dtd">
<svg version="1.1" xmlns="http://www.w3.org/2000/svg" xmlns:xlink="http://www.w3.org/1999/xlink" width="33.1177" height="23.3765">
 <g>
  <rect height="23.3765" opacity="0" width="33.1177" x="0" y="0"/>
  <path d="M33.1177 11.6699C33.1177 8.87451 30.8838 6.64062 28.1006 6.64062C26.0132 6.64062 24.1699 7.86133 23.4131 9.79004L15.9058 9.79004C15.686 9.79004 15.5029 9.86328 15.332 10.0342L14.0381 11.3159C13.855 11.4868 13.8306 11.8286 14.0381 12.0361L16.4673 14.4775C16.6748 14.6973 16.9922 14.6851 17.2119 14.4775L18.6035 13.0615L20.5933 15.0391C20.7886 15.2466 21.0938 15.2466 21.3135 15.0269L23.2544 13.1226C24.2188 15.4053 25.9888 16.7114 28.1006 16.7114C30.8716 16.7114 33.1177 14.4531 33.1177 11.6699ZM28.6011 11.9141C28.6011 11.1572 29.2236 10.5225 29.9927 10.5225C30.7739 10.5225 31.3843 11.1328 31.3843 11.9141C31.3843 12.6831 30.7617 13.3057 29.9927 13.3057C29.2236 13.3057 28.6011 12.6831 28.6011 11.9141ZM6.04248 16.6992C6.89697 16.6992 7.2876 16.1133 7.2876 15.332C7.2876 15.1978 7.2876 15.0513 7.2876 14.917C7.31201 13.3057 7.88574 12.6343 9.83887 11.2915C11.9385 9.87549 13.269 8.23975 13.269 5.88379C13.269 2.22168 10.2905 0.12207 6.57959 0.12207C3.8208 0.12207 1.40381 1.42822 0.366211 3.78418C0.109863 4.35791 0 4.91943 0 5.3833C0 6.0791 0.402832 6.56738 1.14746 6.56738C1.77002 6.56738 2.18506 6.20117 2.36816 5.60303C2.99072 3.28369 4.52881 2.40479 6.49414 2.40479C8.87451 2.40479 10.7422 3.74756 10.7422 5.87158C10.7422 7.61719 9.65576 8.59375 8.09326 9.69238C6.17676 11.0229 4.77295 12.4512 4.77295 14.5996C4.77295 14.856 4.77295 15.1123 4.77295 15.3687C4.77295 16.1499 5.2002 16.6992 6.04248 16.6992ZM6.04248 23.3765C7.01904 23.3765 7.78809 22.5952 7.78809 21.6431C7.78809 20.6787 7.01904 19.9097 6.04248 19.9097C5.09033 19.9097 4.30908 20.6787 4.30908 21.6431C4.30908 22.5952 5.09033 23.3765 6.04248 23.3765Z" fill="#5ac8f5"/>
 </g>
</svg>
