<?xml version="1.0" encoding="UTF-8"?>
<!--Generator: Apple Native CoreSVG 175.5-->
<!DOCTYPE svg
PUBLIC "-//W3C//DTD SVG 1.1//EN"
       "http://www.w3.org/Graphics/SVG/1.1/DTD/svg11.dtd">
<svg version="1.1" xmlns="http://www.w3.org/2000/svg" xmlns:xlink="http://www.w3.org/1999/xlink" width="27.4292" height="26.6724">
 <g>
  <rect height="26.6724" opacity="0" width="27.4292" x="0" y="0"/>
  <path d="M6.81152 26.6724L20.6177 26.6724C22.168 26.6724 22.9492 25.9766 22.9492 24.353L22.9492 22.0093L23.7915 22.0093C26.1719 22.0093 27.4292 20.813 27.4292 18.4326L27.4292 8.49609C27.4292 6.11572 26.1719 4.90723 23.7915 4.90723L3.62549 4.90723C1.37939 4.90723 0 6.11572 0 8.49609L0 18.4326C0 20.813 1.25732 22.0093 3.62549 22.0093L4.47998 22.0093L4.47998 24.353C4.47998 25.9766 5.26123 26.6724 6.81152 26.6724ZM7.78809 24.8413C7.12891 24.8413 6.81152 24.5239 6.81152 23.8647L6.81152 14.7949C6.81152 14.1479 7.14111 13.8306 7.78809 13.8306L19.6533 13.8306C20.3003 13.8306 20.6177 14.1479 20.6177 14.7949L20.6177 23.8647C20.6177 24.5239 20.3003 24.8413 19.6533 24.8413ZM4.83398 3.28369L22.5952 3.28369L22.5952 3.07617C22.5952 1.26953 21.1914 0.463867 19.2139 0.463867L8.21533 0.463867C6.32324 0.463867 4.83398 1.26953 4.83398 3.07617ZM9.81445 17.1021C10.4248 17.1021 10.9253 16.626 10.9253 16.0034C10.9253 15.3931 10.4248 14.917 9.81445 14.917C9.21631 14.917 8.71582 15.3931 8.71582 16.0034C8.71582 16.626 9.21631 17.1021 9.81445 17.1021ZM9.81445 20.459C10.4248 20.459 10.9253 19.9829 10.9253 19.3726C10.9253 18.7622 10.4248 18.2739 9.81445 18.2739C9.21631 18.2739 8.71582 18.7622 8.71582 19.3726C8.71582 19.9829 9.21631 20.459 9.81445 20.459ZM9.81445 23.8281C10.4248 23.8281 10.9253 23.3521 10.9253 22.7295C10.9253 22.1191 10.4248 21.6431 9.81445 21.6431C9.21631 21.6431 8.71582 22.1191 8.71582 22.7295C8.71582 23.3521 9.21631 23.8281 9.81445 23.8281ZM17.627 17.1021C18.2373 17.1021 18.7256 16.626 18.7256 16.0034C18.7256 15.3931 18.2373 14.917 17.627 14.917C17.0166 14.917 16.5283 15.3931 16.5283 16.0034C16.5283 16.626 17.0166 17.1021 17.627 17.1021ZM17.627 20.459C18.2373 20.459 18.7256 19.9829 18.7256 19.3726C18.7256 18.7622 18.2373 18.2739 17.627 18.2739C17.0166 18.2739 16.5283 18.7622 16.5283 19.3726C16.5283 19.9829 17.0166 20.459 17.627 20.459ZM17.627 23.8281C18.2373 23.8281 18.7256 23.3521 18.7256 22.7295C18.7256 22.1191 18.2373 21.6431 17.627 21.6431C17.0166 21.6431 16.5283 22.1191 16.5283 22.7295C16.5283 23.3521 17.0166 23.8281 17.627 23.8281ZM19.6533 8.94775C19.6533 8.10547 20.3735 7.37305 21.2402 7.37305C22.0703 7.37305 22.8027 8.10547 22.8027 8.94775C22.8027 9.81445 22.0703 10.498 21.2402 10.5103C20.3735 10.5103 19.6533 9.82666 19.6533 8.94775Z" fill="#5ac8f5"/>
 </g>
</svg>
