<?xml version="1.0" encoding="UTF-8"?>
<!--Generator: Apple Native CoreSVG 175.5-->
<!DOCTYPE svg
PUBLIC "-//W3C//DTD SVG 1.1//EN"
       "http://www.w3.org/Graphics/SVG/1.1/DTD/svg11.dtd">
<svg version="1.1" xmlns="http://www.w3.org/2000/svg" xmlns:xlink="http://www.w3.org/1999/xlink" width="22.4731" height="22.4976">
 <g>
  <rect height="22.4976" opacity="0" width="22.4731" x="0" y="0"/>
  <path d="M3.83301 22.4976L18.6401 22.4976C21.2036 22.4976 22.4731 21.228 22.4731 18.7134L22.4731 3.80859C22.4731 1.29395 21.2036 0.0244141 18.6401 0.0244141L3.83301 0.0244141C1.28174 0.0244141 0 1.28174 0 3.80859L0 18.7134C0 21.2402 1.28174 22.4976 3.83301 22.4976ZM19.0674 11.2427C19.0674 11.5112 18.9575 11.7188 18.7134 11.9751L15.0757 15.625C14.917 15.7959 14.6851 15.8813 14.4165 15.8813C13.9038 15.8813 13.5132 15.4907 13.5132 14.9658C13.5132 14.6851 13.623 14.4653 13.7817 14.2944L14.7339 13.3545L16.2598 12.085L13.5986 12.1948L8.88672 12.1948L6.22559 12.085L7.73926 13.3545L8.69141 14.2944C8.8501 14.4653 8.95996 14.6851 8.95996 14.9658C8.95996 15.4907 8.56934 15.8813 8.05664 15.8813C7.78809 15.8813 7.55615 15.7959 7.39746 15.625L3.75977 11.9751C3.51562 11.7188 3.40576 11.5112 3.40576 11.2427C3.40576 10.9619 3.51562 10.7544 3.75977 10.498L7.39746 6.86035C7.55615 6.68945 7.78809 6.5918 8.05664 6.5918C8.56934 6.5918 8.95996 7.00684 8.95996 7.51953C8.95996 7.80029 8.8623 8.02002 8.69141 8.20312L7.73926 9.13086L6.21338 10.4004L8.88672 10.3027L13.5986 10.3027L16.272 10.4004L14.7339 9.13086L13.7817 8.20312C13.6108 8.02002 13.5132 7.80029 13.5132 7.51953C13.5132 7.00684 13.9038 6.5918 14.4165 6.5918C14.6851 6.5918 14.917 6.68945 15.0757 6.86035L18.7134 10.498C18.9575 10.7544 19.0674 10.9619 19.0674 11.2427Z" fill="#5ac8f5"/>
 </g>
</svg>
