<?xml version="1.0" encoding="UTF-8"?>
<!--Generator: Apple Native CoreSVG 175.5-->
<!DOCTYPE svg
PUBLIC "-//W3C//DTD SVG 1.1//EN"
       "http://www.w3.org/Graphics/SVG/1.1/DTD/svg11.dtd">
<svg version="1.1" xmlns="http://www.w3.org/2000/svg" xmlns:xlink="http://www.w3.org/1999/xlink" width="24.9023" height="24.9146">
 <g>
  <rect height="24.9146" opacity="0" width="24.9023" x="0" y="0"/>
  <path d="M12.4512 24.9023C19.2627 24.9023 24.9023 19.2505 24.9023 12.4512C24.9023 5.63965 19.2505 0 12.439 0C5.63965 0 0 5.63965 0 12.4512C0 19.2505 5.65186 24.9023 12.4512 24.9023ZM8.23975 17.8833C6.0791 17.8833 4.63867 15.8081 4.63867 12.4512C4.63867 9.09424 6.0791 7.01904 8.23975 7.01904C10.4126 7.01904 11.8408 9.09424 11.8408 12.4512C11.8408 15.8081 10.4126 17.8833 8.23975 17.8833ZM8.23975 16.3452C9.44824 16.3452 10.1807 14.8682 10.1807 12.4512C10.1807 10.0342 9.43604 8.55713 8.23975 8.55713C7.05566 8.55713 6.29883 10.0342 6.29883 12.4512C6.29883 14.8682 7.05566 16.3452 8.23975 16.3452ZM16.8091 17.8833C14.624 17.8833 13.1714 16.6504 13.1714 14.8071C13.1714 13.5254 13.9404 12.4634 15.3198 12.1826L15.3198 12.1094C14.1479 11.7676 13.5376 10.8887 13.5376 9.79004C13.5376 8.1543 14.9048 7.01904 16.8335 7.01904C18.7622 7.01904 20.1294 8.1543 20.1294 9.79004C20.1294 10.8887 19.5068 11.792 18.3472 12.1094L18.3472 12.1826C19.7021 12.4634 20.4956 13.5132 20.4956 14.7949C20.4956 16.626 18.9941 17.8833 16.8091 17.8833ZM16.8457 16.5649C18.0298 16.5649 18.8965 15.7959 18.8965 14.6973C18.8965 13.5986 18.0542 12.8174 16.8457 12.8174C15.6494 12.8174 14.7827 13.6108 14.7827 14.6973C14.7827 15.7959 15.6494 16.5649 16.8457 16.5649ZM16.8335 11.6089C17.8223 11.6089 18.5059 10.9009 18.5059 9.94873C18.5059 8.99658 17.8223 8.3374 16.8335 8.3374C15.8447 8.3374 15.1611 8.99658 15.1611 9.94873C15.1611 10.9009 15.8447 11.6089 16.8335 11.6089Z" fill="#5ac8f5"/>
 </g>
</svg>
