<?xml version="1.0" encoding="UTF-8"?>
<!--Generator: Apple Native CoreSVG 175.5-->
<!DOCTYPE svg
PUBLIC "-//W3C//DTD SVG 1.1//EN"
       "http://www.w3.org/Graphics/SVG/1.1/DTD/svg11.dtd">
<svg version="1.1" xmlns="http://www.w3.org/2000/svg" xmlns:xlink="http://www.w3.org/1999/xlink" width="25.0596" height="25.7935">
 <g>
  <rect height="25.7935" opacity="0" width="25.0596" x="0" y="0"/>
  <path d="M21.2632 4.41895C21.5196 4.41895 21.7271 4.18701 21.7027 3.90625L21.6295 2.89307L22.4839 3.4668C22.6793 3.60107 22.9966 3.55225 23.1431 3.33252C23.3018 3.10059 23.192 2.771 22.9234 2.66113L22.0201 2.20947L22.9478 1.74561C23.1797 1.62354 23.2896 1.33057 23.1553 1.08643C23.0333 0.866699 22.6915 0.793457 22.4717 0.952148L21.6295 1.52588L21.7149 0.524902C21.7393 0.244141 21.5318 0 21.2632 0C20.9703 0 20.7628 0.219727 20.7872 0.512695L20.8604 1.53809L19.9937 0.952148C19.774 0.805664 19.4688 0.854492 19.3467 1.08643C19.2003 1.33057 19.2979 1.62354 19.542 1.74561L20.4576 2.20947L19.5543 2.66113C19.2979 2.771 19.188 3.07617 19.3345 3.33252C19.4566 3.55225 19.774 3.61328 19.9937 3.4668L20.8604 2.89307L20.7994 3.90625C20.7872 4.19922 20.9825 4.41895 21.2632 4.41895ZM21.2632 21.9238C21.5196 21.9238 21.7271 21.6919 21.7027 21.4233L21.6295 20.4102L22.4839 20.9839C22.6793 21.1182 22.9966 21.0693 23.1431 20.8374C23.3018 20.6055 23.192 20.2759 22.9234 20.1782L22.0201 19.7144L22.9478 19.2505C23.1797 19.1406 23.2896 18.8477 23.1553 18.5913C23.0333 18.3716 22.6915 18.2983 22.4717 18.457L21.6295 19.0308L21.7149 18.0298C21.7393 17.7612 21.5318 17.5171 21.2632 17.5171C20.9703 17.5171 20.7628 17.7368 20.7872 18.0176L20.8604 19.043L19.9937 18.457C19.774 18.3105 19.4688 18.3594 19.3467 18.5913C19.2003 18.8477 19.2979 19.1284 19.542 19.2505L20.4576 19.7144L19.5543 20.166C19.2979 20.2759 19.188 20.5811 19.3345 20.8374C19.4566 21.0571 19.774 21.1182 19.9937 20.9717L20.8604 20.3979L20.7994 21.4233C20.7872 21.7041 20.9825 21.9238 21.2632 21.9238Z" fill="#5ac8f5" fill-opacity="0.5"/>
  <path d="M1.10943 9.41162C2.86724 8.8501 4.68609 8.55713 6.41949 8.55713C8.66558 8.55713 10.3135 8.92334 12.4376 8.92334C14.6348 8.92334 16.002 7.43408 16.002 5.49316C16.002 3.50342 14.4761 2.0752 12.5962 2.0752C11.2046 2.0752 9.98394 2.9541 9.47125 4.11377C9.27594 4.5166 9.34918 4.98047 9.77642 5.2002C10.167 5.39551 10.6431 5.27344 10.8995 4.78516C11.168 4.1626 11.8272 3.67432 12.5962 3.67432C13.6094 3.67432 14.4029 4.38232 14.4029 5.49316C14.4029 6.604 13.6338 7.33643 12.4376 7.33643C10.4112 7.33643 8.73883 6.97021 6.41949 6.97021C4.42974 6.97021 2.41558 7.32422 0.62115 7.89795C0.108455 8.04443-0.0868577 8.48389 0.0352126 8.89893C0.157283 9.32617 0.560115 9.57031 1.10943 9.41162ZM20.2012 15.1245C23.0455 15.1245 25.0596 13.3179 25.0596 10.791C25.0596 8.30078 23.1431 6.49414 20.7628 6.49414C18.5533 6.49414 16.9175 8.03223 16.6246 10.0464C16.5513 10.5591 16.8321 10.9619 17.2715 11.0229C17.7232 11.084 18.1138 10.8032 18.2115 10.2295C18.419 8.94775 19.481 8.08105 20.7628 8.08105C22.252 8.08105 23.4605 9.19189 23.4605 10.791C23.4605 12.4146 22.1788 13.5376 20.2012 13.5376C16.4781 13.5376 12.462 11.4136 7.57916 11.4136C5.06451 11.4136 2.76959 11.8164 0.62115 12.5732C0.120662 12.7563-0.0868577 13.1836 0.0352126 13.5986C0.157283 14.0259 0.572322 14.2822 1.10943 14.0991C3.09918 13.3423 5.17437 13.0127 7.57916 13.0127C12.4498 13.0127 16.0875 15.1245 20.2012 15.1245ZM12.4498 23.7305C14.3296 23.7305 15.7823 22.3389 15.7823 20.3491C15.7823 17.4683 12.8404 15.8569 7.42047 15.8569C5.14996 15.8569 2.69635 16.2964 0.62115 17.0044C0.120662 17.1875-0.0868577 17.6147 0.0352126 18.0298C0.157283 18.457 0.572322 18.7134 1.10943 18.5303C3.05035 17.8345 5.2232 17.4561 7.42047 17.4561C11.8516 17.4561 14.1954 18.5669 14.1954 20.3491C14.1954 21.46 13.4141 22.1436 12.4498 22.1436C11.4854 22.1436 10.8995 21.4966 10.7286 20.4712C10.6553 20.0195 10.3257 19.6411 9.80084 19.6777C9.25152 19.7144 9.03179 20.1782 9.10504 20.6787C9.32476 22.3755 10.5821 23.7305 12.4498 23.7305Z" fill="#5ac8f5"/>
 </g>
</svg>
