<?xml version="1.0" encoding="UTF-8"?>
<!--Generator: Apple Native CoreSVG 175.5-->
<!DOCTYPE svg
PUBLIC "-//W3C//DTD SVG 1.1//EN"
       "http://www.w3.org/Graphics/SVG/1.1/DTD/svg11.dtd">
<svg version="1.1" xmlns="http://www.w3.org/2000/svg" xmlns:xlink="http://www.w3.org/1999/xlink" width="22.3877" height="25.2563">
 <g>
  <rect height="25.2563" opacity="0" width="22.3877" x="0" y="0"/>
  <path d="M8.87451 12.0117L13.501 12.0117C14.3066 12.0117 14.8804 11.438 14.8804 10.6323L14.8804 9.77783C14.8804 8.45947 13.916 7.53174 12.5244 7.53174L9.85107 7.53174C8.47168 7.53174 7.50732 8.45947 7.50732 9.77783L7.50732 10.6323C7.50732 11.438 8.08105 12.0117 8.87451 12.0117ZM9.5459 14.3188L12.8418 14.3188L12.8418 11.1816L9.5459 11.1816ZM8.88672 17.8589L13.501 17.8589C14.3066 17.8589 14.8804 17.2852 14.8804 16.4673L14.8804 14.6484C14.8804 13.8428 14.3066 13.2812 13.501 13.2812L8.88672 13.2812C8.08105 13.2812 7.50732 13.8428 7.50732 14.6484L7.50732 16.4673C7.50732 17.2852 8.08105 17.8589 8.88672 17.8589ZM9.5459 23.1201L12.8418 23.1201L12.8418 17.2119L9.5459 17.2119ZM1.44043 24.1333L20.9473 24.1333C21.4722 24.1333 21.9238 23.6938 21.9238 23.1689C21.9238 22.6196 21.4722 22.1924 20.9473 22.1924L1.44043 22.1924C0.915527 22.1924 0.463867 22.6196 0.463867 23.1689C0.463867 23.6938 0.915527 24.1333 1.44043 24.1333ZM2.01416 10.3516C2.01416 9.76562 1.55029 9.33838 1.01318 9.33838C0.45166 9.33838 0 9.77783 0 10.3516C0 10.9009 0.45166 11.3403 1.01318 11.3403C1.55029 11.3403 2.01416 10.9131 2.01416 10.3516ZM5.85938 10.3516C5.85938 9.61914 5.27344 9.0332 4.55322 9.0332C3.84521 9.0332 3.25928 9.61914 3.25928 10.3516C3.25928 11.0474 3.84521 11.6333 4.55322 11.6333C5.27344 11.6333 5.85938 11.0474 5.85938 10.3516ZM4.37012 3.84521C4.78516 3.44238 4.77295 2.80762 4.38232 2.4292C3.9917 2.02637 3.35693 2.02637 2.9541 2.4292C2.56348 2.81982 2.56348 3.44238 2.96631 3.83301C3.34473 4.22363 3.97949 4.24805 4.37012 3.84521ZM7.09229 6.56738C7.60498 6.05469 7.59277 5.22461 7.09229 4.72412C6.604 4.22363 5.77393 4.21143 5.26123 4.73633C4.76074 5.22461 4.76074 6.05469 5.26123 6.54297C5.77393 7.06787 6.604 7.08008 7.09229 6.56738ZM11.1938 2.01416C11.7554 2.01416 12.1826 1.55029 12.1826 1.00098C12.1826 0.439453 11.7432 0 11.1938 0C10.6323 0 10.1807 0.439453 10.1807 1.00098C10.1807 1.55029 10.6201 2.01416 11.1938 2.01416ZM11.1938 5.85938C11.9019 5.85938 12.4756 5.26123 12.4756 4.55322C12.4756 3.84521 11.9019 3.24707 11.1938 3.24707C10.4614 3.24707 9.8877 3.84521 9.8877 4.55322C9.8877 5.26123 10.4614 5.85938 11.1938 5.85938ZM18.0176 3.84521C18.4082 4.24805 19.043 4.22363 19.4214 3.83301C19.8242 3.44238 19.8242 2.81982 19.4336 2.4292C19.0308 2.02637 18.396 2.02637 18.0054 2.4292C17.6147 2.80762 17.6025 3.44238 18.0176 3.84521ZM15.2954 6.56738C15.7837 7.08008 16.6138 7.06787 17.1265 6.54297C17.627 6.05469 17.627 5.22461 17.1265 4.73633C16.6138 4.21143 15.7837 4.22363 15.2954 4.72412C14.7827 5.22461 14.7705 6.05469 15.2954 6.56738ZM20.3735 10.3516C20.3735 10.9131 20.8374 11.3403 21.3745 11.3403C21.936 11.3403 22.3877 10.9009 22.3877 10.3516C22.3877 9.77783 21.936 9.33838 21.3745 9.33838C20.8374 9.33838 20.3735 9.76562 20.3735 10.3516ZM16.5283 10.3516C16.5283 11.0474 17.1143 11.6333 17.8345 11.6333C18.5425 11.6333 19.1284 11.0474 19.1284 10.3516C19.1284 9.61914 18.5425 9.0332 17.8345 9.0332C17.1143 9.0332 16.5283 9.61914 16.5283 10.3516Z" fill="#5ac8f5"/>
 </g>
</svg>
