<?xml version="1.0" encoding="UTF-8"?>
<!--Generator: Apple Native CoreSVG 175.5-->
<!DOCTYPE svg
PUBLIC "-//W3C//DTD SVG 1.1//EN"
       "http://www.w3.org/Graphics/SVG/1.1/DTD/svg11.dtd">
<svg version="1.1" xmlns="http://www.w3.org/2000/svg" xmlns:xlink="http://www.w3.org/1999/xlink" width="14.5386" height="21.5454">
 <g>
  <rect height="21.5454" opacity="0" width="14.5386" x="0" y="0"/>
  <path d="M13.1592 21.5454C13.9648 21.5454 14.5386 20.9717 14.5386 20.1782L14.5386 1.45264C14.5386 0.65918 13.9648 0.012207 13.1348 0.012207C12.5732 0.012207 12.1826 0.256348 11.5601 0.854492L6.35986 5.7373C6.27441 5.81055 6.17676 5.84717 6.05469 5.84717L2.55127 5.84717C0.90332 5.84717 0 6.7627 0 8.52051L0 13.0615C0 14.8315 0.90332 15.7349 2.55127 15.7349L6.05469 15.7349C6.17676 15.7349 6.27441 15.7715 6.35986 15.8447L11.5601 20.7764C12.1216 21.3135 12.5977 21.5454 13.1592 21.5454Z" fill="#5ac8f5"/>
 </g>
</svg>
