<?xml version="1.0" encoding="UTF-8"?>
<!--Generator: Apple Native CoreSVG 175.5-->
<!DOCTYPE svg
PUBLIC "-//W3C//DTD SVG 1.1//EN"
       "http://www.w3.org/Graphics/SVG/1.1/DTD/svg11.dtd">
<svg version="1.1" xmlns="http://www.w3.org/2000/svg" xmlns:xlink="http://www.w3.org/1999/xlink" width="24.9023" height="29.6406">
 <g>
  <rect height="29.6406" opacity="0" width="24.9023" x="0" y="0"/>
  <path d="M0 14.8142C0 21.6257 5.65186 27.2654 12.4512 27.2654C19.2627 27.2654 24.9023 21.6257 24.9023 14.8142C24.9023 10.7126 22.8271 7.02611 19.6899 4.7434C19.1528 4.32836 18.4814 4.46263 18.1763 4.96312C17.8711 5.47582 18.0298 6.04955 18.5303 6.42797C21.1304 8.28343 22.8149 11.3474 22.8271 14.8142C22.8394 20.5759 18.2129 25.1902 12.4512 25.1902C6.68945 25.1902 2.0874 20.5759 2.0874 14.8142C2.0874 9.87035 5.48096 5.76879 10.0952 4.71898L10.0952 6.46459C10.0952 7.33129 10.6934 7.56322 11.3647 7.08715L15.2588 4.35277C15.8081 3.97435 15.8203 3.38842 15.2588 2.98558L11.377 0.251208C10.6934-0.237073 10.0952-0.00513969 10.0952 0.873767L10.0952 2.59496C4.38232 3.718 0 8.80834 0 14.8142Z" fill="#5ac8f5" fill-opacity="0.5"/>
  <path d="M6.50635 10.7493C6.39648 11.3108 6.32324 12.0432 6.32324 12.5315C6.32324 16.6575 8.77686 19.3918 12.5244 19.3918C14.9414 19.3918 16.0767 17.9758 16.3452 17.4997L15.6494 17.4997C16.3696 18.2322 16.687 19.0378 17.0532 20.1975C17.1265 20.4416 17.3218 20.5515 17.5049 20.5515C17.9077 20.5515 18.2495 20.1975 18.2495 19.7092C18.2495 18.9402 17.1631 17.6218 16.5771 17.0847C14.1479 14.8752 10.4858 16.1692 9.53369 13.7156C9.46045 13.5203 9.65576 13.3616 9.86328 13.5325C11.8286 15.2659 14.1846 13.862 16.5771 16.0349C16.7725 16.2058 16.98 16.1203 17.0288 15.925C17.0532 15.7663 17.0654 15.51 17.0654 15.2659C17.0654 12.5681 15.1855 11.2742 12.5488 11.2742C11.6577 11.2742 10.6445 11.4939 9.82666 11.4939C8.93555 11.4939 7.94678 11.3962 7.14111 10.5784C6.90918 10.3342 6.57959 10.3586 6.50635 10.7493Z" fill="#5ac8f5"/>
 </g>
</svg>
