<?xml version="1.0" encoding="UTF-8"?>
<!--Generator: Apple Native CoreSVG 175.5-->
<!DOCTYPE svg
PUBLIC "-//W3C//DTD SVG 1.1//EN"
       "http://www.w3.org/Graphics/SVG/1.1/DTD/svg11.dtd">
<svg version="1.1" xmlns="http://www.w3.org/2000/svg" xmlns:xlink="http://www.w3.org/1999/xlink" width="23.3688" height="23.1934">
 <g>
  <rect height="23.1934" opacity="0" width="23.3688" x="0" y="0"/>
  <path d="M6.30181 6.98853L1.00396 9.45435C-0.558541 10.1746-0.253365 12.3718 1.61431 12.384L10.5132 12.4207C10.6963 12.4207 10.7574 12.4817 10.7574 12.6648L10.7818 21.4905C10.7818 23.3093 12.9668 23.7366 13.7847 21.9666L16.1651 16.864ZM18.3135 12.2131L22.8057 2.56958C23.6236 0.787354 22.2198-0.396729 20.5108 0.408936L10.9405 4.85229ZM21.7681 20.4041C22.1343 20.7703 22.7447 20.7703 23.0987 20.4041C23.4527 20.0378 23.4649 19.4397 23.0987 19.0735L4.29986 0.274658C3.93365-0.0915527 3.32329-0.0915527 2.95708 0.274658C2.60308 0.628662 2.60308 1.25122 2.95708 1.60522Z" fill="#5ac8f5"/>
 </g>
</svg>
