<?xml version="1.0" encoding="UTF-8"?>
<!--Generator: Apple Native CoreSVG 175.5-->
<!DOCTYPE svg
PUBLIC "-//W3C//DTD SVG 1.1//EN"
       "http://www.w3.org/Graphics/SVG/1.1/DTD/svg11.dtd">
<svg version="1.1" xmlns="http://www.w3.org/2000/svg" xmlns:xlink="http://www.w3.org/1999/xlink" width="24.7681" height="27.1484">
 <g>
  <rect height="27.1484" opacity="0" width="24.7681" x="0" y="0"/>
  <path d="M11.3403 26.7639C12.0728 27.1667 12.7075 27.1667 13.4399 26.7639L16.8213 24.8352C17.4072 24.4934 17.5537 23.9075 17.2729 23.3826C17.0044 22.8699 16.3452 22.7356 15.7715 23.0652L13.4033 24.4202L13.4033 21.9421C13.4033 21.283 12.9761 20.7947 12.3901 20.7947C11.792 20.7947 11.3647 21.283 11.3647 21.9421L11.3647 24.4202L8.99658 23.0652C8.43506 22.7356 7.77588 22.8699 7.49512 23.3826C7.21436 23.9075 7.36084 24.4934 7.95898 24.8352ZM3.33252 22.2107C3.91846 22.5403 4.56543 22.4182 4.84619 21.8933C5.11475 21.3806 4.90723 20.7458 4.37012 20.4407L3.05176 19.7083L4.93164 18.6218C5.52979 18.2922 5.74951 17.6331 5.43213 17.1448C5.10254 16.6443 4.50439 16.4978 3.94287 16.803L1.97754 17.9138L1.97754 16.3269C1.97754 15.6677 1.55029 15.1794 0.98877 15.1794C0.402832 15.1794 0 15.6677 0 16.3269L0 18.2434C0 20.05 0.598145 20.6726 1.74561 21.3196ZM0.98877 12.5427C1.57471 12.5427 1.97754 12.0544 1.97754 11.3953L1.97754 9.07593L4.23584 10.3699C4.77295 10.675 5.3833 10.5408 5.7251 10.0403C6.04248 9.552 5.81055 8.89282 5.2002 8.56323L3.08838 7.35474L5.15137 6.18286C5.77393 5.82886 5.96924 5.15747 5.65186 4.65698C5.32227 4.1687 4.71191 4.07104 4.19922 4.36401L1.53809 5.87769C0.537109 6.45142 0 7.22046 0 8.57544L0 11.3953C0 12.0544 0.427246 12.5427 0.98877 12.5427ZM12.3901 6.03638C12.9761 6.03638 13.4033 5.5603 13.4033 4.90112L13.4033 2.63062L15.1245 3.61938C15.6738 3.93677 16.3574 3.8147 16.626 3.302C16.9067 2.78931 16.748 2.19116 16.1621 1.84937L13.5132 0.3479C12.7075-0.115967 12.0605-0.115967 11.2549 0.3479L8.60596 1.84937C8.02002 2.19116 7.87354 2.78931 8.14209 3.302C8.41064 3.8147 9.09424 3.93677 9.64355 3.61938L11.3647 2.63062L11.3647 4.90112C11.3647 5.5603 11.792 6.03638 12.3901 6.03638ZM23.7793 12.5427C24.353 12.5427 24.7681 12.0544 24.7681 11.3953L24.7681 8.57544C24.7681 7.09839 24.3774 6.52466 23.2422 5.87769L20.5688 4.36401C20.0562 4.07104 19.4458 4.1687 19.1284 4.65698C18.7988 5.15747 19.0063 5.82886 19.6289 6.18286L21.6919 7.35474L19.5679 8.56323C18.9697 8.89282 18.7256 9.552 19.0552 10.0403C19.3848 10.5408 20.0073 10.675 20.5322 10.3699L22.7905 9.07593L22.7905 11.3953C22.7905 12.0544 23.2056 12.5427 23.7793 12.5427ZM21.4355 22.2107L23.0225 21.3196C24.1699 20.6726 24.7681 20.05 24.7681 18.2434L24.7681 16.3269C24.7681 15.6677 24.3652 15.1794 23.7793 15.1794C23.2178 15.1794 22.7905 15.6677 22.7905 16.3269L22.7905 17.926L20.8252 16.803C20.2759 16.4978 19.6655 16.6443 19.3481 17.1448C19.0186 17.6331 19.2505 18.2922 19.8364 18.6218L21.7041 19.7083L20.3979 20.4407C19.873 20.7458 19.6533 21.3806 19.9341 21.8933C20.2026 22.4182 20.8618 22.5403 21.4355 22.2107ZM12.3901 18.28C12.9761 18.28 13.4033 17.7917 13.4033 17.1326L13.4033 14.4348L15.918 12.9944C16.5039 12.6648 16.7236 12.0056 16.394 11.5173C16.0767 11.0168 15.4785 10.8704 14.9292 11.1755L12.3901 12.616L9.85107 11.1755C9.30176 10.8704 8.70361 11.0168 8.37402 11.5173C8.04443 12.0056 8.26416 12.6648 8.8623 12.9944L11.3647 14.4348L11.3647 17.1326C11.3647 17.7917 11.792 18.28 12.3901 18.28Z" fill="#5ac8f5"/>
 </g>
</svg>
