<?xml version="1.0" encoding="UTF-8"?>
<!--Generator: Apple Native CoreSVG 175.5-->
<!DOCTYPE svg
PUBLIC "-//W3C//DTD SVG 1.1//EN"
       "http://www.w3.org/Graphics/SVG/1.1/DTD/svg11.dtd">
<svg version="1.1" xmlns="http://www.w3.org/2000/svg" xmlns:xlink="http://www.w3.org/1999/xlink" width="24.9023" height="24.9146">
 <g>
  <rect height="24.9146" opacity="0" width="24.9023" x="0" y="0"/>
  <path d="M12.4512 24.9023C19.2627 24.9023 24.9023 19.2505 24.9023 12.4512C24.9023 5.63965 19.2505 0 12.439 0C5.63965 0 0 5.63965 0 12.4512C0 19.2505 5.65186 24.9023 12.4512 24.9023ZM8.8501 17.7246C8.38623 17.7246 8.06885 17.4072 8.06885 16.9189L8.06885 9.10645L7.99561 9.10645L6.66504 10.0952C6.37207 10.3271 6.25 10.3394 6.04248 10.3394C5.67627 10.3394 5.32227 10.0098 5.32227 9.58252C5.32227 9.25293 5.48096 9.021 5.74951 8.83789L7.65381 7.53174C8.10547 7.22656 8.34961 7.10449 8.76465 7.10449C9.30176 7.10449 9.65576 7.48291 9.65576 8.00781L9.65576 16.9189C9.65576 17.4072 9.33838 17.7246 8.8501 17.7246ZM15.686 17.8833C13.5132 17.8833 12.0483 16.6504 12.0483 14.8071C12.0483 13.5254 12.8296 12.4634 14.1968 12.1826L14.1968 12.1094C13.0249 11.7676 12.4268 10.8887 12.4268 9.79004C12.4268 8.1543 13.7939 7.01904 15.7104 7.01904C17.6392 7.01904 19.0063 8.1543 19.0063 9.79004C19.0063 10.8887 18.396 11.792 17.2363 12.1094L17.2363 12.1826C18.5913 12.4634 19.3848 13.5132 19.3848 14.7949C19.3848 16.626 17.8833 17.8833 15.686 17.8833ZM15.7227 16.5649C16.9067 16.5649 17.7734 15.7959 17.7734 14.6973C17.7734 13.5986 16.9312 12.8174 15.7227 12.8174C14.5386 12.8174 13.6719 13.6108 13.6719 14.6973C13.6719 15.7959 14.5386 16.5649 15.7227 16.5649ZM15.7104 11.6089C16.6992 11.6089 17.395 10.9009 17.395 9.94873C17.395 8.99658 16.7114 8.3374 15.7104 8.3374C14.7339 8.3374 14.0381 8.99658 14.0381 9.94873C14.0381 10.9009 14.7339 11.6089 15.7104 11.6089Z" fill="#5ac8f5"/>
 </g>
</svg>
