<?xml version="1.0" encoding="UTF-8"?>
<!--Generator: Apple Native CoreSVG 175.5-->
<!DOCTYPE svg
PUBLIC "-//W3C//DTD SVG 1.1//EN"
       "http://www.w3.org/Graphics/SVG/1.1/DTD/svg11.dtd">
<svg version="1.1" xmlns="http://www.w3.org/2000/svg" xmlns:xlink="http://www.w3.org/1999/xlink" width="24.9023" height="24.9146">
 <g>
  <rect height="24.9146" opacity="0" width="24.9023" x="0" y="0"/>
  <path d="M12.4512 24.9023C19.2627 24.9023 24.9023 19.2505 24.9023 12.4512C24.9023 5.63965 19.2505 0 12.439 0C5.63965 0 0 5.63965 0 12.4512C0 19.2505 5.65186 24.9023 12.4512 24.9023ZM6.97021 16.4673L6.97021 8.43506C6.97021 7.92236 7.25098 7.65381 7.75146 7.65381L9.10645 7.65381C9.60693 7.65381 9.8877 7.91016 9.8877 8.43506L9.8877 12.1094C9.97314 11.9141 10.1318 11.7432 10.3882 11.5967L16.394 8.06885C16.6138 7.93457 16.8335 7.86133 17.0654 7.86133C17.5293 7.86133 17.9077 8.20312 17.9077 8.8501L17.9077 16.0889C17.9077 16.748 17.5293 17.0776 17.0654 17.0776C16.8335 17.0776 16.6138 17.0044 16.394 16.8701L10.3882 13.3423C10.1318 13.1958 9.97314 13.0249 9.8877 12.8296L9.8877 16.4673C9.8877 16.9922 9.60693 17.2485 9.10645 17.2485L7.75146 17.2485C7.25098 17.2485 6.97021 16.9922 6.97021 16.4673Z" fill="#5ac8f5"/>
 </g>
</svg>
