<?xml version="1.0" encoding="UTF-8"?>
<!--Generator: Apple Native CoreSVG 175.5-->
<!DOCTYPE svg
PUBLIC "-//W3C//DTD SVG 1.1//EN"
       "http://www.w3.org/Graphics/SVG/1.1/DTD/svg11.dtd">
<svg version="1.1" xmlns="http://www.w3.org/2000/svg" xmlns:xlink="http://www.w3.org/1999/xlink" width="34.729" height="22.4976">
 <g>
  <rect height="22.4976" opacity="0" width="34.729" x="0" y="0"/>
  <path d="M2.33154 10.2539L7.89795 10.2539C9.44824 10.2539 10.2295 9.47266 10.2295 7.86133L10.2295 2.40479C10.2295 0.793457 9.44824 0.0244141 7.89795 0.0244141L2.33154 0.0244141C0.78125 0.0244141 0 0.793457 0 2.40479L0 7.86133C0 9.47266 0.78125 10.2539 2.33154 10.2539ZM2.35596 8.53271C1.92871 8.53271 1.72119 8.31299 1.72119 7.86133L1.72119 2.40479C1.72119 1.96533 1.92871 1.74561 2.35596 1.74561L7.86133 1.74561C8.28857 1.74561 8.5083 1.96533 8.5083 2.40479L8.5083 7.86133C8.5083 8.31299 8.28857 8.53271 7.86133 8.53271ZM14.5874 10.2539L20.1416 10.2539C21.6919 10.2539 22.4731 9.47266 22.4731 7.86133L22.4731 2.40479C22.4731 0.793457 21.6919 0.0244141 20.1416 0.0244141L14.5874 0.0244141C13.0249 0.0244141 12.2437 0.793457 12.2437 2.40479L12.2437 7.86133C12.2437 9.47266 13.0249 10.2539 14.5874 10.2539ZM14.6118 8.53271C14.1724 8.53271 13.9648 8.31299 13.9648 7.86133L13.9648 2.40479C13.9648 1.96533 14.1724 1.74561 14.6118 1.74561L20.1172 1.74561C20.5444 1.74561 20.752 1.96533 20.752 2.40479L20.752 7.86133C20.752 8.31299 20.5444 8.53271 20.1172 8.53271ZM26.8311 10.2539L32.3975 10.2539C33.9478 10.2539 34.729 9.47266 34.729 7.86133L34.729 2.40479C34.729 0.793457 33.9478 0.0244141 32.3975 0.0244141L26.8311 0.0244141C25.2808 0.0244141 24.4995 0.793457 24.4995 2.40479L24.4995 7.86133C24.4995 9.47266 25.2808 10.2539 26.8311 10.2539ZM26.8555 8.53271C26.4282 8.53271 26.2207 8.31299 26.2207 7.86133L26.2207 2.40479C26.2207 1.96533 26.4282 1.74561 26.8555 1.74561L32.3608 1.74561C32.8003 1.74561 33.0078 1.96533 33.0078 2.40479L33.0078 7.86133C33.0078 8.31299 32.8003 8.53271 32.3608 8.53271ZM2.33154 22.4976L7.89795 22.4976C9.44824 22.4976 10.2295 21.7285 10.2295 20.1172L10.2295 14.6484C10.2295 13.0493 9.44824 12.2681 7.89795 12.2681L2.33154 12.2681C0.78125 12.2681 0 13.0493 0 14.6484L0 20.1172C0 21.7285 0.78125 22.4976 2.33154 22.4976ZM2.35596 20.7764C1.92871 20.7764 1.72119 20.5566 1.72119 20.1172L1.72119 14.6606C1.72119 14.209 1.92871 13.9893 2.35596 13.9893L7.86133 13.9893C8.28857 13.9893 8.5083 14.209 8.5083 14.6606L8.5083 20.1172C8.5083 20.5566 8.28857 20.7764 7.86133 20.7764ZM14.5874 22.4976L20.1416 22.4976C21.6919 22.4976 22.4731 21.7285 22.4731 20.1172L22.4731 14.6484C22.4731 13.0493 21.6919 12.2681 20.1416 12.2681L14.5874 12.2681C13.0249 12.2681 12.2437 13.0493 12.2437 14.6484L12.2437 20.1172C12.2437 21.7285 13.0249 22.4976 14.5874 22.4976ZM14.6118 20.7764C14.1724 20.7764 13.9648 20.5566 13.9648 20.1172L13.9648 14.6606C13.9648 14.209 14.1724 13.9893 14.6118 13.9893L20.1172 13.9893C20.5444 13.9893 20.752 14.209 20.752 14.6606L20.752 20.1172C20.752 20.5566 20.5444 20.7764 20.1172 20.7764ZM26.8311 22.4976L32.3975 22.4976C33.9478 22.4976 34.729 21.7285 34.729 20.1172L34.729 14.6484C34.729 13.0493 33.9478 12.2681 32.3975 12.2681L26.8311 12.2681C25.2808 12.2681 24.4995 13.0493 24.4995 14.6484L24.4995 20.1172C24.4995 21.7285 25.2808 22.4976 26.8311 22.4976ZM26.8555 20.7764C26.4282 20.7764 26.2207 20.5566 26.2207 20.1172L26.2207 14.6606C26.2207 14.209 26.4282 13.9893 26.8555 13.9893L32.3608 13.9893C32.8003 13.9893 33.0078 14.209 33.0078 14.6606L33.0078 20.1172C33.0078 20.5566 32.8003 20.7764 32.3608 20.7764Z" fill="#5ac8f5"/>
 </g>
</svg>
