<?xml version="1.0" encoding="UTF-8"?>
<!--Generator: Apple Native CoreSVG 175.5-->
<!DOCTYPE svg
PUBLIC "-//W3C//DTD SVG 1.1//EN"
       "http://www.w3.org/Graphics/SVG/1.1/DTD/svg11.dtd">
<svg version="1.1" xmlns="http://www.w3.org/2000/svg" xmlns:xlink="http://www.w3.org/1999/xlink" width="43.2983" height="19.8608">
 <g>
  <rect height="19.8608" opacity="0" width="43.2983" x="0" y="0"/>
  <path d="M40.5151 5.35889L38.0005 4.58984C36.4136 2.69775 33.6426 0 28.6011 0L25.7324 0C20.7031 0 18.7012 0.488281 15.6982 2.36816L13.7329 3.60107L14.9414 5.16357L16.748 4.04053C19.4458 2.36816 21.0693 1.96533 25.7324 1.96533L28.6011 1.96533C31.9214 1.96533 34.6069 3.34473 36.9141 6.55518L39.9048 7.33643C41.0278 7.61719 41.333 8.28857 41.333 9.22852L41.333 13.6597C41.333 14.5508 40.8813 15.0879 40.1123 15.0879L37.085 15.0879L37.085 17.0532L40.4663 17.0532C42.2241 17.0532 43.2983 15.9424 43.2983 14.1479L43.2983 9.22852C43.2983 7.51953 42.7856 6.06689 40.5151 5.35889ZM12.6343 17.0532L31.4697 17.0532L31.4697 15.0879L12.6343 15.0879ZM3.18604 17.0532L6.92139 17.0532L6.92139 15.0879L3.2959 15.0879C2.4292 15.0879 1.96533 14.5508 1.96533 13.5498L1.96533 11.377C1.96533 9.5459 3.25928 8.36182 5.61523 8.06885L10.6201 7.43408L9.24072 5.63965L5.35889 6.11572C1.98975 6.53076 0 8.47168 0 11.377L0 13.7939C0 15.8691 1.15967 17.0532 3.18604 17.0532ZM9.70459 19.8364C12.0483 19.8364 13.8794 18.0054 13.8794 15.6616C13.8794 13.3179 12.0483 11.4868 9.70459 11.4868C7.36084 11.4868 5.52979 13.3179 5.52979 15.6616C5.52979 18.0054 7.36084 19.8364 9.70459 19.8364ZM9.70459 17.8711C8.45947 17.8711 7.49512 16.9067 7.49512 15.6616C7.49512 14.4165 8.45947 13.4521 9.70459 13.4521C10.9497 13.4521 11.9141 14.4165 11.9141 15.6616C11.9141 16.9067 10.9497 17.8711 9.70459 17.8711ZM34.3628 19.8364C36.7065 19.8364 38.5376 18.0054 38.5376 15.6616C38.5376 13.3179 36.7065 11.4868 34.3628 11.4868C32.019 11.4868 30.188 13.3179 30.188 15.6616C30.188 18.0054 32.019 19.8364 34.3628 19.8364ZM34.3628 17.8711C33.1177 17.8711 32.1533 16.9067 32.1533 15.6616C32.1533 14.4165 33.1177 13.4521 34.3628 13.4521C35.6079 13.4521 36.5723 14.4165 36.5723 15.6616C36.5723 16.9067 35.6079 17.8711 34.3628 17.8711Z" fill="#5ac8f5" fill-opacity="0.5"/>
  <path d="M16.3696 9.47266L19.043 9.47266L19.043 10.5225C19.043 11.377 19.7998 11.6333 20.4346 11.2183L23.5107 9.24072C24.0967 8.8623 24.1089 8.12988 23.4985 7.73926L20.4468 5.77393C19.7998 5.34668 19.043 5.60303 19.043 6.46973L19.043 7.50732L16.3696 7.50732C15.2222 7.50732 14.7583 7.25098 14.0015 6.27441L10.6934 1.96533C9.66797 0.610352 8.45947 0.0732422 6.604 0.0732422L3.60107 0.0732422C3.06396 0.0732422 2.62451 0.512695 2.62451 1.0498C2.62451 1.58691 3.06396 2.03857 3.60107 2.03857L6.604 2.03857C7.95898 2.03857 8.47168 2.27051 9.15527 3.16162L12.439 7.49512C13.4888 8.87451 14.6606 9.47266 16.3696 9.47266Z" fill="#5ac8f5"/>
 </g>
</svg>
