<?xml version="1.0" encoding="UTF-8"?>
<!--Generator: Apple Native CoreSVG 175.5-->
<!DOCTYPE svg
PUBLIC "-//W3C//DTD SVG 1.1//EN"
       "http://www.w3.org/Graphics/SVG/1.1/DTD/svg11.dtd">
<svg version="1.1" xmlns="http://www.w3.org/2000/svg" xmlns:xlink="http://www.w3.org/1999/xlink" width="24.9023" height="24.9146">
 <g>
  <rect height="24.9146" opacity="0" width="24.9023" x="0" y="0"/>
  <path d="M12.4512 24.9023C19.2627 24.9023 24.9023 19.2505 24.9023 12.4512C24.9023 5.63965 19.2505 0 12.439 0C5.63965 0 0 5.63965 0 12.4512C0 19.2505 5.65186 24.9023 12.4512 24.9023ZM12.4512 22.8271C6.68945 22.8271 2.0874 18.2129 2.0874 12.4512C2.0874 6.68945 6.67725 2.0752 12.439 2.0752C18.2007 2.0752 22.8271 6.68945 22.8271 12.4512C22.8271 18.2129 18.2129 22.8271 12.4512 22.8271Z" fill="#5ac8f5" fill-opacity="0.5"/>
  <path d="M7.32422 12.6465C7.32422 12.9761 7.56836 13.2446 7.91016 13.2446L8.58154 13.2446L8.58154 17.7246C8.58154 18.2007 8.91113 18.5181 9.375 18.5181C9.83887 18.5181 10.1562 18.2007 10.1562 17.7246L10.1562 13.2446L11.9141 13.2446L14.2212 17.8223C14.4287 18.2617 14.7705 18.5303 15.2832 18.5303C15.8813 18.5303 16.272 18.1396 16.272 17.5415L16.272 13.2568L16.9678 13.2568C17.2974 13.2568 17.5537 12.9761 17.5537 12.6465C17.5537 12.2925 17.2974 12.0483 16.9678 12.0483L16.272 12.0483L16.272 7.53174C16.272 7.05566 15.9546 6.73828 15.4785 6.73828C15.0146 6.73828 14.6973 7.05566 14.6973 7.53174L14.6973 12.0483L12.9517 12.0483L10.6323 7.43408C10.4248 6.99463 10.083 6.72607 9.57031 6.72607C8.97217 6.72607 8.58154 7.1167 8.58154 7.70264L8.58154 12.0361L7.91016 12.0361C7.58057 12.0361 7.32422 12.2925 7.32422 12.6465ZM10.1562 12.0361L10.1562 9.55811L11.3037 12.0361ZM13.562 13.2568L14.6973 13.2568L14.6973 15.7227Z" fill="#5ac8f5"/>
 </g>
</svg>
