<?xml version="1.0" encoding="UTF-8"?>
<!--Generator: Apple Native CoreSVG 175.5-->
<!DOCTYPE svg
PUBLIC "-//W3C//DTD SVG 1.1//EN"
       "http://www.w3.org/Graphics/SVG/1.1/DTD/svg11.dtd">
<svg version="1.1" xmlns="http://www.w3.org/2000/svg" xmlns:xlink="http://www.w3.org/1999/xlink" width="24.9023" height="24.9146">
 <g>
  <rect height="24.9146" opacity="0" width="24.9023" x="0" y="0"/>
  <path d="M12.4512 24.9023C19.2627 24.9023 24.9023 19.2505 24.9023 12.4512C24.9023 5.63965 19.2505 0 12.439 0C5.63965 0 0 5.63965 0 12.4512C0 19.2505 5.65186 24.9023 12.4512 24.9023ZM12.4512 22.8271C6.68945 22.8271 2.0874 18.2129 2.0874 12.4512C2.0874 6.68945 6.67725 2.0752 12.439 2.0752C18.2007 2.0752 22.8271 6.68945 22.8271 12.4512C22.8271 18.2129 18.2129 22.8271 12.4512 22.8271Z" fill="#5ac8f5" fill-opacity="0.5"/>
  <path d="M12.4878 18.1763C15.4663 18.1763 17.2363 16.4307 17.2363 13.916L17.2363 13.0249C17.2363 12.3657 16.8457 11.9751 16.2109 11.9751L13.0615 11.9751C12.6221 11.9751 12.3535 12.2681 12.3535 12.6831C12.3535 13.0493 12.6221 13.3789 13.0615 13.3789L15.2954 13.3789L15.2954 14.1724C15.2954 15.6128 14.3433 16.5649 12.5122 16.5649C10.5469 16.5649 9.24072 14.8926 9.24072 12.3413C9.24072 9.81445 10.5347 8.10547 12.4756 8.10547C13.855 8.10547 14.8804 8.76465 15.3809 9.97314C15.5762 10.3882 15.8203 10.5591 16.1865 10.5591C16.6992 10.5591 17.0288 10.2417 17.0288 9.729C17.0288 9.52148 17.0044 9.36279 16.9189 9.16748C16.3452 7.62939 14.7217 6.49414 12.4512 6.49414C9.28955 6.49414 7.26318 8.77686 7.26318 12.3413C7.26318 15.918 9.28955 18.1763 12.4878 18.1763Z" fill="#5ac8f5"/>
 </g>
</svg>
