<?xml version="1.0" encoding="UTF-8"?>
<!--Generator: Apple Native CoreSVG 175.5-->
<!DOCTYPE svg
PUBLIC "-//W3C//DTD SVG 1.1//EN"
       "http://www.w3.org/Graphics/SVG/1.1/DTD/svg11.dtd">
<svg version="1.1" xmlns="http://www.w3.org/2000/svg" xmlns:xlink="http://www.w3.org/1999/xlink" width="24.3286" height="22.4976">
 <g>
  <rect height="22.4976" opacity="0" width="24.3286" x="0" y="0"/>
  <path d="M3.83301 22.4976L20.5078 22.4976C23.0591 22.4976 24.3286 21.228 24.3286 18.7134L24.3286 3.80859C24.3286 1.29395 23.0591 0.0244141 20.5078 0.0244141L3.83301 0.0244141C1.28174 0.0244141 0 1.28174 0 3.80859L0 18.7134C0 21.2402 1.28174 22.4976 3.83301 22.4976ZM3.6499 20.5322C2.56348 20.5322 1.96533 19.9585 1.96533 18.8232L1.96533 7.31201C1.96533 6.18896 2.56348 5.60303 3.6499 5.60303L20.6665 5.60303C21.7529 5.60303 22.3633 6.18896 22.3633 7.31201L22.3633 18.8232C22.3633 19.9585 21.7529 20.5322 20.6665 20.5322ZM9.79004 9.98535L10.5103 9.98535C10.9375 9.98535 11.0718 9.86328 11.0718 9.43604L11.0718 8.71582C11.0718 8.28857 10.9375 8.1543 10.5103 8.1543L9.79004 8.1543C9.36279 8.1543 9.21631 8.28857 9.21631 8.71582L9.21631 9.43604C9.21631 9.86328 9.36279 9.98535 9.79004 9.98535ZM13.8428 9.98535L14.563 9.98535C14.9902 9.98535 15.1367 9.86328 15.1367 9.43604L15.1367 8.71582C15.1367 8.28857 14.9902 8.1543 14.563 8.1543L13.8428 8.1543C13.4155 8.1543 13.269 8.28857 13.269 8.71582L13.269 9.43604C13.269 9.86328 13.4155 9.98535 13.8428 9.98535ZM17.8955 9.98535L18.6157 9.98535C19.043 9.98535 19.1895 9.86328 19.1895 9.43604L19.1895 8.71582C19.1895 8.28857 19.043 8.1543 18.6157 8.1543L17.8955 8.1543C17.4683 8.1543 17.334 8.28857 17.334 8.71582L17.334 9.43604C17.334 9.86328 17.4683 9.98535 17.8955 9.98535ZM5.7373 13.9771L6.44531 13.9771C6.88477 13.9771 7.01904 13.855 7.01904 13.4277L7.01904 12.7075C7.01904 12.2803 6.88477 12.1582 6.44531 12.1582L5.7373 12.1582C5.29785 12.1582 5.16357 12.2803 5.16357 12.7075L5.16357 13.4277C5.16357 13.855 5.29785 13.9771 5.7373 13.9771ZM9.79004 13.9771L10.5103 13.9771C10.9375 13.9771 11.0718 13.855 11.0718 13.4277L11.0718 12.7075C11.0718 12.2803 10.9375 12.1582 10.5103 12.1582L9.79004 12.1582C9.36279 12.1582 9.21631 12.2803 9.21631 12.7075L9.21631 13.4277C9.21631 13.855 9.36279 13.9771 9.79004 13.9771ZM13.8428 13.9771L14.563 13.9771C14.9902 13.9771 15.1367 13.855 15.1367 13.4277L15.1367 12.7075C15.1367 12.2803 14.9902 12.1582 14.563 12.1582L13.8428 12.1582C13.4155 12.1582 13.269 12.2803 13.269 12.7075L13.269 13.4277C13.269 13.855 13.4155 13.9771 13.8428 13.9771ZM17.8955 13.9771L18.6157 13.9771C19.043 13.9771 19.1895 13.855 19.1895 13.4277L19.1895 12.7075C19.1895 12.2803 19.043 12.1582 18.6157 12.1582L17.8955 12.1582C17.4683 12.1582 17.334 12.2803 17.334 12.7075L17.334 13.4277C17.334 13.855 17.4683 13.9771 17.8955 13.9771ZM5.7373 17.981L6.44531 17.981C6.88477 17.981 7.01904 17.8467 7.01904 17.4194L7.01904 16.6992C7.01904 16.272 6.88477 16.1499 6.44531 16.1499L5.7373 16.1499C5.29785 16.1499 5.16357 16.272 5.16357 16.6992L5.16357 17.4194C5.16357 17.8467 5.29785 17.981 5.7373 17.981ZM9.79004 17.981L10.5103 17.981C10.9375 17.981 11.0718 17.8467 11.0718 17.4194L11.0718 16.6992C11.0718 16.272 10.9375 16.1499 10.5103 16.1499L9.79004 16.1499C9.36279 16.1499 9.21631 16.272 9.21631 16.6992L9.21631 17.4194C9.21631 17.8467 9.36279 17.981 9.79004 17.981ZM13.8428 17.981L14.563 17.981C14.9902 17.981 15.1367 17.8467 15.1367 17.4194L15.1367 16.6992C15.1367 16.272 14.9902 16.1499 14.563 16.1499L13.8428 16.1499C13.4155 16.1499 13.269 16.272 13.269 16.6992L13.269 17.4194C13.269 17.8467 13.4155 17.981 13.8428 17.981Z" fill="#5ac8f5"/>
 </g>
</svg>
