<?xml version="1.0" encoding="UTF-8"?>
<!--Generator: Apple Native CoreSVG 175.5-->
<!DOCTYPE svg
PUBLIC "-//W3C//DTD SVG 1.1//EN"
       "http://www.w3.org/Graphics/SVG/1.1/DTD/svg11.dtd">
<svg version="1.1" xmlns="http://www.w3.org/2000/svg" xmlns:xlink="http://www.w3.org/1999/xlink" width="24.9023" height="24.9146">
 <g>
  <rect height="24.9146" opacity="0" width="24.9023" x="0" y="0"/>
  <path d="M12.4512 24.9023C19.2627 24.9023 24.9023 19.2505 24.9023 12.4512C24.9023 5.63965 19.2505 0 12.439 0C5.63965 0 0 5.63965 0 12.4512C0 19.2505 5.65186 24.9023 12.4512 24.9023Z" fill="#5ac8f5" fill-opacity="0.25"/>
  <path d="M9.8877 17.8589C9.39941 17.8589 9.13086 17.4927 9.13086 17.0044L9.13086 15.5273L5.45654 15.5273C4.82178 15.5273 4.38232 15.1245 4.38232 14.4531C4.38232 14.1113 4.45557 13.8306 4.66309 13.4399C5.50537 11.9141 6.7627 9.76562 7.82471 7.99561C8.22754 7.2998 8.69141 7.01904 9.42383 7.01904C10.1562 7.01904 10.6567 7.49512 10.6567 8.22754L10.6567 14.1113L11.3403 14.1113C11.7798 14.1113 12.0605 14.3799 12.0605 14.8315C12.0605 15.271 11.7798 15.5273 11.3403 15.5273L10.6567 15.5273L10.6567 17.0044C10.6567 17.5049 10.4004 17.8589 9.8877 17.8589ZM9.13086 14.1113L9.13086 8.72803L9.06982 8.72803C8.05664 10.437 6.7749 12.6343 6.03027 14.0625L6.03027 14.1113ZM15.1733 17.7368C14.6973 17.7368 14.3311 17.395 14.3311 16.9189C14.3311 16.6748 14.3677 16.5283 14.4653 16.333L18.3716 8.78906L18.3716 8.69141L13.9526 8.69141C13.5132 8.69141 13.2202 8.41064 13.2202 7.99561C13.2202 7.56836 13.5132 7.27539 13.9526 7.27539L19.0308 7.27539C19.7144 7.27539 20.1538 7.76367 20.1538 8.37402C20.1538 8.64258 20.105 8.87451 19.9097 9.27734L15.9912 17.1143C15.7593 17.5537 15.5151 17.7368 15.1733 17.7368Z" fill="#5ac8f5"/>
 </g>
</svg>
