<?xml version="1.0" encoding="UTF-8"?>
<!--Generator: Apple Native CoreSVG 175.5-->
<!DOCTYPE svg
PUBLIC "-//W3C//DTD SVG 1.1//EN"
       "http://www.w3.org/Graphics/SVG/1.1/DTD/svg11.dtd">
<svg version="1.1" xmlns="http://www.w3.org/2000/svg" xmlns:xlink="http://www.w3.org/1999/xlink" width="26.4526" height="22.4976">
 <g>
  <rect height="22.4976" opacity="0" width="26.4526" x="0" y="0"/>
  <path d="M3.83301 22.4976L14.4287 22.4854C15.8569 22.4854 17.0898 22.0459 18.0908 20.9961L25.293 13.562C26.0986 12.7441 26.4526 11.9995 26.4526 11.2427C26.4526 10.4736 26.0986 9.74121 25.293 8.92334L18.103 1.45264C17.1021 0.390625 15.8691 0.0244141 14.4409 0.0244141L3.83301 0.0244141C1.29395 0.0244141 0 1.28174 0 3.80859L0 18.7134C0 21.2402 1.29395 22.4976 3.83301 22.4976Z" fill="#5ac8f5" fill-opacity="0.25"/>
  <path d="M6.90918 16.3818C6.34766 16.3818 5.9082 15.9302 5.9082 15.3564C5.9082 15.0879 6.00586 14.8438 6.20117 14.6484L9.58252 11.2671L6.20117 7.87354C6.00586 7.67822 5.9082 7.43408 5.9082 7.16553C5.9082 6.604 6.34766 6.16455 6.90918 6.16455C7.18994 6.16455 7.40967 6.27441 7.60498 6.45752L11.0107 9.85107L14.4409 6.44531C14.6484 6.23779 14.8804 6.14014 15.1367 6.14014C15.6982 6.14014 16.1499 6.5918 16.1499 7.14111C16.1499 7.42188 16.0645 7.6416 15.8569 7.86133L12.4512 11.2671L15.8447 14.6362C16.04 14.8315 16.1377 15.0757 16.1377 15.3564C16.1377 15.9302 15.686 16.3818 15.1123 16.3818C14.8438 16.3818 14.5752 16.272 14.3921 16.0889L11.0107 12.6831L7.6416 16.0889C7.44629 16.272 7.18994 16.3818 6.90918 16.3818Z" fill="#5ac8f5"/>
 </g>
</svg>
