<?xml version="1.0" encoding="UTF-8"?>
<!--Generator: Apple Native CoreSVG 175.5-->
<!DOCTYPE svg
PUBLIC "-//W3C//DTD SVG 1.1//EN"
       "http://www.w3.org/Graphics/SVG/1.1/DTD/svg11.dtd">
<svg version="1.1" xmlns="http://www.w3.org/2000/svg" xmlns:xlink="http://www.w3.org/1999/xlink" width="25.7588" height="30.3833">
 <g>
  <rect height="30.3833" opacity="0" width="25.7588" x="0" y="0"/>
  <path d="M12.8752 30.3833C16.2077 30.3833 16.7326 27.9053 18.6736 27.9053C20.6511 27.9053 20.9685 30.3833 24.7771 30.3833L24.8381 30.3833C25.3142 30.3833 25.7048 29.9927 25.7048 29.5166C25.7048 29.0405 25.3142 28.6621 24.8381 28.6621L24.7771 28.6621C23.4709 28.6621 22.7263 28.1128 21.8108 27.4658C21.0173 26.8921 20.0285 26.1841 18.6736 26.1841C17.2698 26.1841 16.2688 26.9287 15.4753 27.5269C14.633 28.1616 13.9739 28.6621 12.8752 28.6621C11.7766 28.6621 11.1174 28.1616 10.2751 27.5269C9.48166 26.9287 8.48069 26.1841 7.07688 26.1841C5.7219 26.1841 4.73313 26.8921 3.93967 27.4658C3.02415 28.1128 2.29172 28.6621 0.973364 28.6621L0.912329 28.6621C0.436254 28.6621 0.0456294 29.0405 0.0456294 29.5166C0.0456294 29.9927 0.436254 30.3833 0.912329 30.3833L0.973364 30.3833C4.78196 30.3833 5.09934 27.9053 7.07688 27.9053C9.0178 27.9053 9.5427 30.3833 12.8752 30.3833ZM12.8752 27.2339C13.4367 27.2339 13.7175 27.0752 14.6208 26.3794C15.4143 25.7935 16.8059 24.7559 18.6736 24.7559C19.7722 24.7559 20.6755 25.061 21.7253 25.6958L25.2043 19.5312C26.2419 17.7124 25.8147 16.3818 23.9958 15.5518L15.1213 11.4746C14.6086 11.2427 13.8884 10.8521 12.8752 10.8521C11.8742 10.8521 11.154 11.2427 10.6291 11.4746L1.75461 15.5518C-0.0520268 16.3818-0.479273 17.7124 0.546118 19.5312L4.02512 25.6958C5.07493 25.061 5.97825 24.7559 7.07688 24.7559C8.94456 24.7559 10.3362 25.7935 11.1296 26.3794C12.0329 27.0752 12.3137 27.2339 12.8752 27.2339ZM12.8752 9.19189C13.9739 9.19189 14.6819 9.43604 15.8171 9.96094L22.2136 12.9028L21.1638 5.11475C20.9807 3.78418 20.1506 2.84424 18.8323 2.84424L6.9426 2.84424C5.62424 2.84424 4.83079 3.78418 4.61106 5.35889L3.56125 12.8906L9.93332 9.96094C11.0686 9.43604 11.7766 9.19189 12.8752 9.19189ZM7.49192 7.89795C7.19895 7.89795 7.00364 7.69043 7.00364 7.39746L7.00364 5.44434C7.00364 5.15137 7.19895 4.94385 7.49192 4.94385L11.2761 4.94385C11.6423 4.94385 11.8864 5.15137 11.8864 5.44434L11.8864 7.39746C11.8864 7.69043 11.6423 7.89795 11.2761 7.89795ZM14.3523 7.89795C14.0715 7.89795 13.8762 7.69043 13.8762 7.39746L13.8762 5.44434C13.8762 5.15137 14.0715 4.94385 14.3523 4.94385L18.1487 4.94385C18.5149 4.94385 18.759 5.15137 18.759 5.44434L18.759 7.39746C18.759 7.69043 18.5149 7.89795 18.1487 7.89795ZM7.8093 3.21045L17.9533 3.21045L17.9533 2.17285C17.9533 0.98877 17.2575 0.280762 16.0735 0.280762L9.68918 0.280762C8.5051 0.280762 7.8093 0.98877 7.8093 2.17285Z" fill="#5ac8f5"/>
 </g>
</svg>
