<?xml version="1.0" encoding="UTF-8"?>
<!--Generator: Apple Native CoreSVG 175.5-->
<!DOCTYPE svg
PUBLIC "-//W3C//DTD SVG 1.1//EN"
       "http://www.w3.org/Graphics/SVG/1.1/DTD/svg11.dtd">
<svg version="1.1" xmlns="http://www.w3.org/2000/svg" xmlns:xlink="http://www.w3.org/1999/xlink" width="33.9966" height="29.8828">
 <g>
  <rect height="29.8828" opacity="0" width="33.9966" x="0" y="0"/>
  <path d="M9.27734 15.2527C10.5225 15.2527 11.6333 14.7034 12.4268 13.8L11.145 12.5061C10.6689 13.092 10.022 13.4338 9.27734 13.4338C7.77588 13.4338 6.51855 12.0056 6.51855 10.2478C6.51855 9.56421 6.73828 8.94165 7.09229 8.46558L5.77393 7.14722C5.10254 7.97729 4.6875 9.06372 4.69971 10.2478C4.69971 13.0066 6.7627 15.2527 9.27734 15.2527ZM2.47803 26.4465L12.0605 26.4465C11.4746 26.1169 11.0352 25.3845 11.1206 24.6399L2.18506 24.6399C1.92871 24.6399 1.81885 24.5422 1.81885 24.3103C1.81885 21.283 5.27344 18.4509 9.26514 18.4509C10.791 18.4509 12.1826 18.8171 13.3667 19.5129C13.7451 19.0247 14.1968 18.5974 14.7461 18.219C13.1714 17.1814 11.2793 16.6443 9.26514 16.6443C4.15039 16.6443 0 20.3552 0 24.4202C0 25.7751 0.830078 26.4465 2.47803 26.4465ZM23.3398 15.155C26.2451 15.155 28.6133 12.5671 28.6133 9.41772C28.6133 6.29272 26.2573 3.83911 23.3398 3.83911C20.4346 3.83911 18.0542 6.34155 18.0664 9.44214C18.0786 12.5793 20.4346 15.155 23.3398 15.155ZM23.3398 13.3118C21.5576 13.3118 20.0317 11.6028 20.0317 9.44214C20.0195 7.31812 21.521 5.68237 23.3398 5.68237C25.1587 5.68237 26.6479 7.2937 26.6479 9.41772C26.6479 11.5784 25.1343 13.3118 23.3398 13.3118ZM15.6616 26.4465L25.0854 26.4465L23.2422 24.6033L15.0757 24.6033C14.7583 24.6033 14.6362 24.5178 14.6362 24.2615C14.6362 22.9675 15.918 20.9656 18.3228 19.6838L16.9922 18.3533C14.2334 19.989 12.6709 22.5037 12.6709 24.4934C12.6709 25.8362 13.6353 26.4465 15.6616 26.4465ZM29.9316 24.6033L31.6772 26.3489L32.3486 26.3C33.4717 26.0925 33.9966 25.4822 33.9966 24.4934C33.9966 21.2952 29.9561 16.6687 23.3276 16.6687C22.9004 16.6687 22.4854 16.7053 22.0825 16.7542L23.9502 18.6218C24.1333 18.5974 24.2798 18.5852 24.5117 18.5974C29.3579 19.0613 32.0312 22.3938 32.0312 24.2615C32.0312 24.5178 31.897 24.6033 31.5796 24.6033Z" fill="#5ac8f5" fill-opacity="0.5"/>
  <path d="M30.2612 29.6082C30.6274 29.9744 31.2378 29.9744 31.5918 29.6082C31.958 29.2419 31.9702 28.656 31.5918 28.2776L5.82275 2.50854C5.44434 2.13013 4.8584 2.14233 4.47998 2.50854C4.12598 2.86255 4.12598 3.48511 4.47998 3.83911Z" fill="#5ac8f5"/>
 </g>
</svg>
