<?xml version="1.0" encoding="UTF-8"?>
<!--Generator: Apple Native CoreSVG 175.5-->
<!DOCTYPE svg
PUBLIC "-//W3C//DTD SVG 1.1//EN"
       "http://www.w3.org/Graphics/SVG/1.1/DTD/svg11.dtd">
<svg version="1.1" xmlns="http://www.w3.org/2000/svg" xmlns:xlink="http://www.w3.org/1999/xlink" width="24.9023" height="24.9146">
 <g>
  <rect height="24.9146" opacity="0" width="24.9023" x="0" y="0"/>
  <path d="M0 12.4512C0 19.2505 5.65186 24.9023 12.4512 24.9023C19.2627 24.9023 24.9023 19.2505 24.9023 12.4512C24.9023 5.63965 19.2505 0 12.439 0C5.63965 0 0 5.63965 0 12.4512ZM2.0874 12.4512C2.0874 6.68945 6.67725 2.0752 12.439 2.0752C18.2007 2.0752 22.8149 6.68945 22.8271 12.4512C22.8271 13.8062 22.583 15.0879 22.0947 16.2598L2.81982 16.2598C2.34375 15.0879 2.0874 13.8062 2.0874 12.4512ZM3.75977 18.103L21.167 18.103C19.3237 20.9595 16.1255 22.8271 12.4512 22.8271C8.77686 22.8271 5.59082 20.9595 3.75977 18.103Z" fill="#5ac8f5"/>
 </g>
</svg>
