<?xml version="1.0" encoding="UTF-8"?>
<!--Generator: Apple Native CoreSVG 175.5-->
<!DOCTYPE svg
PUBLIC "-//W3C//DTD SVG 1.1//EN"
       "http://www.w3.org/Graphics/SVG/1.1/DTD/svg11.dtd">
<svg version="1.1" xmlns="http://www.w3.org/2000/svg" xmlns:xlink="http://www.w3.org/1999/xlink" width="30.6885" height="29.0894">
 <g>
  <rect height="29.0894" opacity="0" width="30.6885" x="0" y="0"/>
  <path d="M29.6387 15.5884C30.3467 15.2466 30.6885 14.7583 30.6885 14.27C30.6885 13.7817 30.3467 13.3301 29.6387 13.0859L23.8647 11.0962L26.3428 6.03027C26.4648 5.77393 26.5137 5.50537 26.5137 5.27344C26.5137 4.58984 26.001 4.08936 25.3174 4.08936C25.0854 4.08936 24.8291 4.12598 24.5728 4.26025L19.3359 6.82373L16.6016 0.976562C16.3086 0.32959 15.8325 0 15.3442 0C14.856 0 14.3921 0.32959 14.0869 0.976562L11.3647 6.82373L6.11572 4.26025C5.85938 4.12598 5.60303 4.08936 5.37109 4.08936C4.6875 4.08936 4.1748 4.58984 4.1748 5.27344C4.1748 5.50537 4.22363 5.77393 4.35791 6.03027L6.82373 11.0962L1.0498 13.0859C0.354004 13.3179 0 13.7939 0 14.2822C0 14.7583 0.354004 15.2466 1.0498 15.5884L6.5918 18.2373L3.60107 24.5728C3.45459 24.8535 3.39355 25.1221 3.39355 25.3784C3.39355 25.9888 3.80859 26.4282 4.39453 26.4282C4.63867 26.4282 4.90723 26.3428 5.18799 26.1719L12.2681 21.9849L14.209 27.9907C14.4287 28.6499 14.8804 28.9917 15.3442 28.9917C15.8203 28.9917 16.2598 28.6499 16.4795 27.9907L18.4326 21.9849L25.5005 26.1719C25.7812 26.3428 26.062 26.416 26.2939 26.416C26.8677 26.416 27.3071 26.001 27.3071 25.3906C27.3071 25.1343 27.2339 24.8535 27.0874 24.5728L24.0967 18.2373Z" fill="#5ac8f5"/>
 </g>
</svg>
