<?xml version="1.0" encoding="UTF-8"?>
<!--Generator: Apple Native CoreSVG 175.5-->
<!DOCTYPE svg
PUBLIC "-//W3C//DTD SVG 1.1//EN"
       "http://www.w3.org/Graphics/SVG/1.1/DTD/svg11.dtd">
<svg version="1.1" xmlns="http://www.w3.org/2000/svg" xmlns:xlink="http://www.w3.org/1999/xlink" width="28.7842" height="22.4976">
 <g>
  <rect height="22.4976" opacity="0" width="28.7842" x="0" y="0"/>
  <path d="M0 18.7134C0 21.2402 1.28174 22.4976 3.83301 22.4976L24.9512 22.4976C27.5146 22.4976 28.7842 21.228 28.7842 18.7134L28.7842 3.80859C28.7842 1.29395 27.5146 0.0244141 24.9512 0.0244141L3.83301 0.0244141C1.28174 0.0244141 0 1.28174 0 3.80859ZM1.96533 18.6157L1.96533 6.17676L26.8188 6.17676L26.8188 18.6157C26.8188 19.8853 26.1353 20.5322 24.9268 20.5322L3.85742 20.5322C2.63672 20.5322 1.96533 19.8853 1.96533 18.6157Z" fill="#5ac8f5"/>
  <path d="M3.86963 4.18701C3.27148 4.18701 2.7832 3.67432 2.7832 3.10059C2.7832 2.52686 3.27148 2.01416 3.86963 2.01416C4.46777 2.01416 4.96826 2.52686 4.96826 3.10059C4.96826 3.67432 4.46777 4.18701 3.86963 4.18701Z" fill="#1e1e1e"/>
  <path d="M7.37305 4.18701C6.7749 4.18701 6.28662 3.67432 6.28662 3.10059C6.28662 2.52686 6.7749 2.01416 7.37305 2.01416C7.97119 2.01416 8.47168 2.52686 8.47168 3.10059C8.47168 3.67432 7.97119 4.18701 7.37305 4.18701Z" fill="#1e1e1e"/>
  <path d="M10.8765 4.18701C10.2783 4.18701 9.79004 3.67432 9.79004 3.10059C9.79004 2.52686 10.2783 2.01416 10.8765 2.01416C11.4746 2.01416 11.9629 2.52686 11.9629 3.10059C11.9629 3.67432 11.4746 4.18701 10.8765 4.18701Z" fill="#1e1e1e"/>
 </g>
</svg>
