<?xml version="1.0" encoding="UTF-8"?>
<!--Generator: Apple Native CoreSVG 175.5-->
<!DOCTYPE svg
PUBLIC "-//W3C//DTD SVG 1.1//EN"
       "http://www.w3.org/Graphics/SVG/1.1/DTD/svg11.dtd">
<svg version="1.1" xmlns="http://www.w3.org/2000/svg" xmlns:xlink="http://www.w3.org/1999/xlink" width="21.3745" height="28.6255">
 <g>
  <rect height="28.6255" opacity="0" width="21.3745" x="0" y="0"/>
  <path d="M0 25.1465C0 26.0986 0.20752 26.6724 1.11084 27.1118C3.19824 28.0151 6.0791 28.6133 9.53369 28.6133C12.9517 28.6133 16.7969 28.1006 19.5557 26.7578C21.0205 26.062 21.3745 25.415 21.3745 23.9014L21.3745 5.16357C21.3745 3.18604 20.4956 2.28271 18.5913 2.28271L17.4438 2.28271L17.4438 1.79443C17.4438 0.585938 16.8335 0 15.7593 0C15.3931 0 14.9536 0.0854492 14.4287 0.256348C10.7422 1.46484 7.37305 2.23389 3.05176 2.23389L2.0752 2.23389C0.756836 2.23389 0 3.00293 0 4.19922ZM4.3335 11.4868L4.3335 7.36084C4.3335 7.18994 4.45557 7.04346 4.62646 7.03125C7.4707 6.92139 10.0098 6.4209 12.6099 5.46875C12.7563 5.40771 13.0127 5.46875 13.0127 5.76172L13.0127 10.0708C13.0127 10.1807 12.9517 10.2905 12.8418 10.3271C10.5713 11.2549 7.58057 11.7798 4.62646 11.7798C4.46777 11.7798 4.3335 11.6821 4.3335 11.4868ZM4.95605 26.5259C9.75342 26.3916 14.209 25.0488 16.626 23.2056C17.1875 22.7783 17.4438 22.3389 17.4438 21.2646L17.4438 4.24805L18.6035 4.24805C19.1406 4.24805 19.4092 4.54102 19.4092 5.16357L19.4092 23.7671C19.4092 24.4995 19.2993 24.7681 18.6035 25.0732C16.1743 26.1353 12.7563 26.8188 9.53369 26.8188C7.99561 26.8188 6.54297 26.7334 4.95605 26.5259Z" fill="#5ac8f5"/>
 </g>
</svg>
