<?xml version="1.0" encoding="UTF-8"?>
<!--Generator: Apple Native CoreSVG 175.5-->
<!DOCTYPE svg
PUBLIC "-//W3C//DTD SVG 1.1//EN"
       "http://www.w3.org/Graphics/SVG/1.1/DTD/svg11.dtd">
<svg version="1.1" xmlns="http://www.w3.org/2000/svg" xmlns:xlink="http://www.w3.org/1999/xlink" width="24.9023" height="24.9146">
 <g>
  <rect height="24.9146" opacity="0" width="24.9023" x="0" y="0"/>
  <path d="M12.4634 18.0908C15.564 18.0786 18.0786 15.564 18.0786 12.4512C18.0786 9.38721 15.5518 6.86035 12.4756 6.86035C9.38721 6.86035 6.83594 9.38721 6.83594 12.4512C6.83594 15.564 9.36279 18.103 12.4634 18.0908ZM12.4634 16.8457C10.0464 16.8457 8.08105 14.8926 8.08105 12.4512C8.08105 10.083 10.0586 8.10547 12.4634 8.10547C14.8682 8.10547 16.8335 10.0708 16.8335 12.4512C16.8335 14.8682 14.8804 16.8457 12.4634 16.8457ZM12.4634 15.4419C14.0869 15.4419 15.4297 14.0991 15.4297 12.4634C15.4297 10.8521 14.0869 9.50928 12.4634 9.50928C10.8276 9.50928 9.48486 10.8521 9.48486 12.4756C9.48486 14.0991 10.8276 15.4419 12.4634 15.4419ZM12.4634 14.0869C11.5601 14.0747 10.8521 13.3667 10.8521 12.4634C10.8521 11.6089 11.5601 10.8643 12.4756 10.8643C13.3423 10.8643 14.0625 11.5967 14.0625 12.4634C14.0625 13.3667 13.3423 14.0991 12.4634 14.0869ZM7.95898 14.5264L7.67822 13.5132L0.915527 15.7104L1.24512 16.7114ZM8.65479 15.9912L7.99561 15.1611L2.50244 19.2017L3.13721 20.0562ZM11.438 17.4683L10.4736 17.041L8.28857 23.7549L9.28955 24.0967ZM13.4888 7.58057L14.502 7.88574L16.626 1.34277L15.625 1.00098ZM16.2231 9.14307L16.8823 9.96094L22.4121 5.87158L21.7773 5.0415ZM16.9678 10.5591L17.334 11.5356L23.999 9.38721L23.6694 8.37402ZM12.4512 24.9023C19.2627 24.9023 24.9023 19.2505 24.9023 12.4512C24.9023 5.63965 19.2505 0 12.439 0C5.63965 0 0 5.63965 0 12.4512C0 19.2505 5.65186 24.9023 12.4512 24.9023ZM12.4512 22.8271C6.68945 22.8271 2.0874 18.2129 2.0874 12.4512C2.0874 6.68945 6.67725 2.0752 12.439 2.0752C18.2007 2.0752 22.8271 6.68945 22.8271 12.4512C22.8271 18.2129 18.2129 22.8271 12.4512 22.8271Z" fill="#5ac8f5"/>
 </g>
</svg>
