<?xml version="1.0" encoding="UTF-8"?>
<!--Generator: Apple Native CoreSVG 175.5-->
<!DOCTYPE svg
PUBLIC "-//W3C//DTD SVG 1.1//EN"
       "http://www.w3.org/Graphics/SVG/1.1/DTD/svg11.dtd">
<svg version="1.1" xmlns="http://www.w3.org/2000/svg" xmlns:xlink="http://www.w3.org/1999/xlink" width="16.9189" height="24.7437">
 <g>
  <rect height="24.7437" opacity="0" width="16.9189" x="0" y="0"/>
  <path d="M8.45947 24.7192C13.5376 24.7192 16.9189 21.4111 16.9189 16.4551C16.9189 14.0137 15.9668 11.5845 15.2466 9.96094C13.9404 7.01904 11.8896 3.78418 10.1074 1.02539C9.68018 0.378418 9.17969 0 8.45947 0C7.73926 0 7.23877 0.378418 6.81152 1.02539C5.0293 3.78418 2.97852 7.01904 1.67236 9.96094C0.964355 11.5845 0 14.0137 0 16.4551C0 21.4111 3.38135 24.7192 8.45947 24.7192ZM8.45947 22.7173C4.57764 22.7173 2.00195 20.2148 2.00195 16.4551C2.00195 14.4531 2.771 12.5122 3.45459 10.9253C4.82178 7.71484 6.62842 5.07812 8.3374 2.50244C8.42285 2.38037 8.52051 2.38037 8.59375 2.50244C10.2905 5.07812 12.1094 7.71484 13.4521 10.9131C14.1479 12.5122 14.9292 14.4531 14.9292 16.4551C14.9292 20.2148 12.3413 22.7173 8.45947 22.7173Z" fill="#5ac8f5"/>
 </g>
</svg>
