<?xml version="1.0" encoding="UTF-8"?>
<!--Generator: Apple Native CoreSVG 175.5-->
<!DOCTYPE svg
PUBLIC "-//W3C//DTD SVG 1.1//EN"
       "http://www.w3.org/Graphics/SVG/1.1/DTD/svg11.dtd">
<svg version="1.1" xmlns="http://www.w3.org/2000/svg" xmlns:xlink="http://www.w3.org/1999/xlink" width="28.7842" height="30.8472">
 <g>
  <rect height="30.8472" opacity="0" width="28.7842" x="0" y="0"/>
  <path d="M3.83301 28.2959L24.9512 28.2959C27.5146 28.2959 28.7842 27.0264 28.7842 24.5117L28.7842 17.7734C28.7842 16.6626 28.6377 16.1377 28.0884 15.4541L23.999 10.2051C22.522 8.31299 21.936 7.93457 19.7632 7.93457L17.6147 7.93457L17.6147 9.65576L19.9097 9.65576C20.8008 9.65576 21.3867 9.80225 22.0703 10.6934L26.2939 16.1621C26.77 16.7847 26.6113 17.0288 25.9399 17.0288L18.4082 17.0288C17.7246 17.0288 17.4072 17.5537 17.4072 18.0908L17.4072 18.1396C17.4072 19.6411 16.2354 21.2158 14.3921 21.2158C12.561 21.2158 11.3892 19.6411 11.3892 18.1396L11.3892 18.0908C11.3892 17.5537 11.0596 17.0288 10.376 17.0288L2.86865 17.0288C2.16064 17.0288 2.05078 16.7358 2.50244 16.1621L6.68945 10.73C7.39746 9.81445 7.9834 9.65576 8.87451 9.65576L11.1816 9.65576L11.1816 7.93457L9.021 7.93457C6.84814 7.93457 6.28662 8.31299 4.77295 10.2417L0.695801 15.4541C0.158691 16.1377 0 16.6626 0 17.7734L0 24.5117C0 27.0264 1.28174 28.2959 3.83301 28.2959Z" fill="#5ac8f5" fill-opacity="0.5"/>
  <path d="M14.3921 17.9932C14.917 17.9932 15.3687 17.5537 15.3687 17.041L15.3687 4.50439L15.2832 2.68555L16.1133 3.54004L17.9565 5.51758C18.1274 5.71289 18.3838 5.81055 18.6279 5.81055C19.1284 5.81055 19.5068 5.44434 19.5068 4.95605C19.5068 4.6875 19.4092 4.49219 19.2261 4.30908L15.1001 0.32959C14.856 0.0854492 14.6484 0 14.3921 0C14.1479 0 13.9282 0.0854492 13.6841 0.32959L9.55811 4.30908C9.375 4.49219 9.27734 4.6875 9.27734 4.95605C9.27734 5.44434 9.64355 5.81055 10.144 5.81055C10.3882 5.81055 10.6445 5.71289 10.8276 5.51758L12.6709 3.54004L13.501 2.67334L13.4277 4.50439L13.4277 17.041C13.4277 17.5537 13.8672 17.9932 14.3921 17.9932Z" fill="#5ac8f5"/>
 </g>
</svg>
