<?xml version="1.0" encoding="UTF-8"?>
<!--Generator: Apple Native CoreSVG 175.5-->
<!DOCTYPE svg
PUBLIC "-//W3C//DTD SVG 1.1//EN"
       "http://www.w3.org/Graphics/SVG/1.1/DTD/svg11.dtd">
<svg version="1.1" xmlns="http://www.w3.org/2000/svg" xmlns:xlink="http://www.w3.org/1999/xlink" width="25.8667" height="23.1567">
 <g>
  <rect height="23.1567" opacity="0" width="25.8667" x="0" y="0"/>
  <path d="M0 5.50537C0 14.6118 5.45654 20.5933 13.855 20.5933C19.7144 20.5933 23.8647 16.8091 23.8647 11.4624C23.8647 6.32324 19.6777 2.6123 13.9038 2.6123C11.9141 2.6123 9.8999 3.17383 7.66602 3.17383C5.78613 3.17383 4.1626 2.6001 2.81982 1.07422C2.11182 0.244141 0.708008 0.170898 0.366211 1.57471C0.0732422 2.75879 0 4.84619 0 5.50537ZM1.84326 5.50537C1.84326 4.69971 1.85547 3.79639 1.96533 3.13721C1.98975 2.97852 2.0752 2.96631 2.18506 3.06396C3.55225 4.30908 5.70068 5.01709 7.66602 5.01709C8.98438 5.01709 10.1807 4.84619 11.2549 4.69971C12.2314 4.56543 13.0859 4.45557 13.9038 4.45557C18.6646 4.45557 22.0215 7.37305 22.0215 11.4624C22.0215 15.7715 18.689 18.75 13.855 18.75C6.49414 18.75 1.84326 13.5986 1.84326 5.50537ZM7.14111 8.34961C7.91016 10.73 10.2173 11.6821 13.0981 12.3901C17.2363 13.3789 19.1284 14.1846 20.7886 16.2598C22.1436 17.9321 22.4731 19.9463 23.23 22.3633C23.4131 22.9492 23.8159 23.1567 24.2432 23.1567C25.1465 23.1567 25.8667 22.3145 25.8667 21.3013C25.8667 19.6167 23.9502 16.6992 22.6685 14.9536C21.0205 12.7686 18.2007 11.5112 13.7207 10.791C11.4014 10.4004 9.35059 9.79004 7.94678 7.95898C7.55615 7.43408 6.95801 7.80029 7.14111 8.34961Z" fill="#5ac8f5"/>
 </g>
</svg>
