<?xml version="1.0" encoding="UTF-8"?>
<!--Generator: Apple Native CoreSVG 175.5-->
<!DOCTYPE svg
PUBLIC "-//W3C//DTD SVG 1.1//EN"
       "http://www.w3.org/Graphics/SVG/1.1/DTD/svg11.dtd">
<svg version="1.1" xmlns="http://www.w3.org/2000/svg" xmlns:xlink="http://www.w3.org/1999/xlink" width="23.5356" height="28.894">
 <g>
  <rect height="28.894" opacity="0" width="23.5356" x="0" y="0"/>
  <path d="M11.78 6.97021C14.7585 6.97021 17.2487 5.24902 17.7248 2.74658C17.9079 1.7334 17.4074 0.976562 16.4065 0.695801C13.5256-0.0610352 10.0344-0.0610352 7.16574 0.695801C6.16476 0.976562 5.66427 1.7334 5.84738 2.74658C6.32345 5.24902 8.80148 6.97021 11.78 6.97021ZM11.78 5.37109C9.5217 5.37109 7.72726 4.13818 7.42209 2.4292C7.40988 2.34375 7.47092 2.27051 7.58078 2.23389C10.2053 1.53809 13.3669 1.53809 15.9792 2.23389C16.1013 2.27051 16.1623 2.34375 16.1501 2.4292C15.8449 4.13818 14.0505 5.37109 11.78 5.37109ZM10.8034 11.9263L12.7688 11.9263L12.7688 5.99365L10.8034 5.99365ZM11.7678 28.894C18.8601 28.894 23.572 26.7578 23.5354 23.584C23.5354 20.3857 20.6179 16.4185 16.9558 14.624C16.2844 12.3169 14.1604 10.7178 11.7678 10.7178C9.37521 10.7178 7.25119 12.3169 6.5798 14.624C2.91769 16.4185 0.000211955 20.3857 0.000211955 23.584C-0.0364091 26.7578 4.6755 28.894 11.7678 28.894ZM11.7678 27.1851C5.73752 27.1851 1.7214 25.769 1.7092 23.584C1.7214 20.7642 4.71213 17.1753 8.10568 15.8203C8.32541 13.8672 9.88791 12.4512 11.7678 12.4512C13.6477 12.4512 15.2102 13.8672 15.4299 15.8203C18.7868 17.1509 21.8142 20.7397 21.8264 23.584C21.8142 25.769 17.8103 27.1851 11.7678 27.1851ZM11.7678 19.9707C17.8103 19.9707 21.8142 21.3867 21.8264 23.584L23.5354 23.584C23.572 20.4102 18.8601 18.2617 11.7678 18.2617C4.6755 18.2617-0.0364091 20.4102 0.000211955 23.584L1.7092 23.584C1.7214 21.3867 5.73752 19.9707 11.7678 19.9707ZM11.7678 24.4995C13.9773 24.4995 16.1135 23.1323 16.1135 21.4722C14.8562 21.2769 13.3791 21.1548 11.7678 21.1548C10.1565 21.1548 8.67941 21.2769 7.42209 21.4722C7.42209 23.1323 9.55832 24.4995 11.7678 24.4995Z" fill="#5ac8f5"/>
 </g>
</svg>
