<?xml version="1.0" encoding="UTF-8"?>
<!--Generator: Apple Native CoreSVG 175.5-->
<!DOCTYPE svg
PUBLIC "-//W3C//DTD SVG 1.1//EN"
       "http://www.w3.org/Graphics/SVG/1.1/DTD/svg11.dtd">
<svg version="1.1" xmlns="http://www.w3.org/2000/svg" xmlns:xlink="http://www.w3.org/1999/xlink" width="20.5322" height="30.9937">
 <g>
  <rect height="30.9937" opacity="0" width="20.5322" x="0" y="0"/>
  <path d="M4.95605 13.7207C4.37012 13.7207 3.88184 13.2202 3.88184 12.6465C3.88184 12.0605 4.37012 11.5723 4.95605 11.5723C5.54199 11.5723 6.03027 12.0483 6.03027 12.6465C6.03027 13.2324 5.54199 13.7207 4.95605 13.7207ZM4.95605 18.1763C4.35791 18.1763 3.88184 17.688 3.88184 17.1021C3.88184 16.5161 4.35791 16.04 4.95605 16.04C5.54199 16.04 6.03027 16.5039 6.03027 17.1021C6.03027 17.688 5.54199 18.1763 4.95605 18.1763ZM4.95605 22.8882C4.37012 22.8882 3.88184 22.3999 3.88184 21.814C3.88184 21.2402 4.37012 20.7397 4.95605 20.7397C5.54199 20.7397 6.03027 21.228 6.03027 21.814C6.03027 22.4121 5.54199 22.8882 4.95605 22.8882ZM8.3252 13.4277C7.88574 13.4277 7.51953 13.0737 7.51953 12.6465C7.51953 12.2192 7.88574 11.8408 8.3252 11.8408L15.8691 11.8408C16.2964 11.8408 16.6504 12.2192 16.6504 12.6465C16.6504 13.0737 16.2964 13.4277 15.8691 13.4277ZM8.3252 17.8955C7.87354 17.8955 7.51953 17.5415 7.51953 17.1021C7.51953 16.6626 7.87354 16.3208 8.3252 16.3208L15.8691 16.3208C16.3086 16.3208 16.6504 16.6626 16.6504 17.1021C16.6504 17.5415 16.3086 17.8955 15.8691 17.8955ZM8.3252 22.6074C7.88574 22.6074 7.51953 22.2412 7.51953 21.814C7.51953 21.3867 7.87354 21.0327 8.3252 21.0327L15.8691 21.0327C16.3086 21.0327 16.6504 21.3867 16.6504 21.814C16.6504 22.2412 16.2964 22.6074 15.8691 22.6074ZM3.78418 29.5776L16.748 29.5776C19.2749 29.5776 20.5322 28.3081 20.5322 25.7446L20.5322 7.22656C20.5322 4.66309 19.2749 3.39355 16.8701 3.39355L16.5894 3.39355C16.5894 3.44238 16.5894 3.50342 16.5894 3.55225L16.5894 4.99268C16.5894 6.53076 15.5518 7.61719 14.0381 7.61719L6.49414 7.61719C4.98047 7.61719 3.94287 6.53076 3.94287 4.99268L3.94287 3.55225C3.94287 3.50342 3.94287 3.44238 3.94287 3.39355L3.66211 3.39355C1.25732 3.39355 0 4.66309 0 7.22656L0 25.7446C0 28.3081 1.25732 29.5776 3.78418 29.5776ZM6.49414 6.20117L14.0381 6.20117C14.7461 6.20117 15.1733 5.74951 15.1733 4.99268L15.1733 3.71094C15.1733 2.9541 14.7461 2.50244 14.0381 2.50244L12.915 2.50244C12.8296 1.12305 11.6821 0 10.2661 0C8.8501 0 7.70264 1.12305 7.61719 2.50244L6.49414 2.50244C5.78613 2.50244 5.35889 2.9541 5.35889 3.71094L5.35889 4.99268C5.35889 5.74951 5.78613 6.20117 6.49414 6.20117ZM10.2661 3.66211C9.68018 3.66211 9.2041 3.17383 9.2041 2.6001C9.2041 2.00195 9.68018 1.52588 10.2661 1.52588C10.8521 1.52588 11.3281 2.00195 11.3281 2.6001C11.3281 3.17383 10.8521 3.66211 10.2661 3.66211Z" fill="#5ac8f5"/>
 </g>
</svg>
