<?xml version="1.0" encoding="UTF-8"?>
<!--Generator: Apple Native CoreSVG 175.5-->
<!DOCTYPE svg
PUBLIC "-//W3C//DTD SVG 1.1//EN"
       "http://www.w3.org/Graphics/SVG/1.1/DTD/svg11.dtd">
<svg version="1.1" xmlns="http://www.w3.org/2000/svg" xmlns:xlink="http://www.w3.org/1999/xlink" width="39.8315" height="29.0405">
 <g>
  <rect height="29.0405" opacity="0" width="39.8315" x="0" y="0"/>
  <path d="M9.39941 16.8579C14.7339 16.8579 18.7744 14.3677 18.7744 11.0352C18.7744 7.69043 14.7339 5.18799 9.39941 5.18799C4.05273 5.18799 0 7.67822 0 11.0352C0 14.3799 4.05273 16.8579 9.39941 16.8579ZM9.38721 14.624C5.87158 14.624 3.2959 13.1714 3.2959 11.2061C3.2959 9.21631 5.87158 7.76367 9.38721 7.76367C12.915 7.76367 15.5029 9.21631 15.5029 11.2061C15.5029 13.1592 12.915 14.624 9.38721 14.624ZM4.40674 11.2061C4.40674 12.4634 6.62842 13.5254 9.375 13.5254C12.146 13.5254 14.3921 12.4634 14.3921 11.2061C14.3921 10.6934 14.0747 10.2661 13.5376 9.91211C12.7441 10.9619 11.1694 11.6577 9.375 11.6577C7.58057 11.6577 6.00586 10.9741 5.17578 9.92432C4.69971 10.2783 4.40674 10.7056 4.40674 11.2061ZM30.4565 16.8701C35.7666 16.8701 39.8315 14.3799 39.8315 11.0474C39.8315 7.70264 35.7666 5.2002 30.4565 5.2002C25.0977 5.2002 21.0571 7.69043 21.0571 11.0474C21.0571 14.3921 25.0977 16.8701 30.4565 16.8701ZM30.4321 14.6362C26.9165 14.6362 24.3408 13.1836 24.3408 11.2183C24.3408 9.22852 26.9165 7.77588 30.4321 7.77588C33.96 7.77588 36.5356 9.22852 36.5356 11.2183C36.5356 13.1714 33.96 14.6362 30.4321 14.6362ZM25.4517 11.2183C25.4517 12.4756 27.6733 13.5376 30.4199 13.5376C33.1909 13.5376 35.437 12.4756 35.437 11.2183C35.437 10.7056 35.1196 10.2783 34.5825 9.91211C33.7891 10.9741 32.2266 11.6699 30.4199 11.6699C28.6255 11.6699 27.0508 10.9863 26.2085 9.93652C25.7446 10.2905 25.4517 10.7178 25.4517 11.2183ZM19.9341 29.0405C25.2686 29.0405 29.3091 26.5381 29.3091 23.2056C29.3091 19.8608 25.2686 17.3706 19.9341 17.3706C14.5874 17.3706 10.5347 19.8486 10.5347 23.2056C10.5347 26.5503 14.5874 29.0405 19.9341 29.0405ZM19.9219 26.8066C16.394 26.8066 13.8306 25.3418 13.8306 23.3643C13.8306 21.3867 16.394 19.9341 19.9219 19.9341C23.4497 19.9341 26.0376 21.3867 26.0376 23.3643C26.0376 25.3296 23.4497 26.8066 19.9219 26.8066ZM14.9414 23.3643C14.9414 24.646 17.1509 25.6958 19.9097 25.6958C22.6807 25.6958 24.9268 24.646 24.9268 23.3643C24.9268 22.876 24.5972 22.4487 24.0723 22.0825C23.2788 23.1445 21.7041 23.8159 19.9097 23.8159C18.1152 23.8159 16.5283 23.1567 15.6982 22.1069C15.2344 22.4487 14.9414 22.8882 14.9414 23.3643Z" fill="#5ac8f5"/>
 </g>
</svg>
