<?xml version="1.0" encoding="UTF-8"?>
<!--Generator: Apple Native CoreSVG 175.5-->
<!DOCTYPE svg
PUBLIC "-//W3C//DTD SVG 1.1//EN"
       "http://www.w3.org/Graphics/SVG/1.1/DTD/svg11.dtd">
<svg version="1.1" xmlns="http://www.w3.org/2000/svg" xmlns:xlink="http://www.w3.org/1999/xlink" width="26.9043" height="26.8188">
 <g>
  <rect height="26.8188" opacity="0" width="26.9043" x="0" y="0"/>
  <path d="M7.50732 26.8188C8.10547 26.8188 8.52051 26.5015 9.26514 25.8423L13.4766 22.0947L21.3135 22.0947C24.9512 22.0947 26.9043 20.0806 26.9043 16.5039L26.9043 7.15332C26.9043 3.57666 24.9512 1.5625 21.3135 1.5625L5.59082 1.5625C1.95312 1.5625 0 3.56445 0 7.15332L0 16.5039C0 20.0928 1.95312 22.0947 5.59082 22.0947L6.17676 22.0947L6.17676 25.2686C6.17676 26.2085 6.65283 26.8188 7.50732 26.8188ZM8.00781 24.585L8.00781 21.0449C8.00781 20.3857 7.75146 20.1294 7.09229 20.1294L5.59082 20.1294C3.125 20.1294 1.96533 18.8721 1.96533 16.4917L1.96533 7.15332C1.96533 4.77295 3.125 3.52783 5.59082 3.52783L21.3135 3.52783C23.7671 3.52783 24.939 4.77295 24.939 7.15332L24.939 16.4917C24.939 18.8721 23.7671 20.1294 21.3135 20.1294L13.4033 20.1294C12.7197 20.1294 12.3779 20.2271 11.9141 20.7031Z" fill="#5ac8f5" fill-opacity="0.5"/>
  <path d="M7.48291 13.5742C8.44727 13.5742 9.22852 12.793 9.22852 11.8286C9.22852 10.8643 8.44727 10.083 7.48291 10.083C6.51855 10.083 5.7373 10.8643 5.7373 11.8286C5.7373 12.793 6.51855 13.5742 7.48291 13.5742Z" fill="#5ac8f5"/>
  <path d="M13.4644 13.5742C14.4165 13.5742 15.21 12.793 15.21 11.8286C15.21 10.8643 14.4165 10.083 13.4644 10.083C12.5 10.083 11.7065 10.8643 11.7065 11.8286C11.7065 12.793 12.5 13.5742 13.4644 13.5742Z" fill="#5ac8f5"/>
  <path d="M19.4336 13.5742C20.3979 13.5742 21.1792 12.793 21.1792 11.8286C21.1792 10.8643 20.3979 10.083 19.4336 10.083C18.4692 10.083 17.688 10.8643 17.688 11.8286C17.688 12.793 18.4692 13.5742 19.4336 13.5742Z" fill="#5ac8f5"/>
 </g>
</svg>
