<?xml version="1.0" encoding="UTF-8"?>
<!--Generator: Apple Native CoreSVG 175.5-->
<!DOCTYPE svg
PUBLIC "-//W3C//DTD SVG 1.1//EN"
       "http://www.w3.org/Graphics/SVG/1.1/DTD/svg11.dtd">
<svg version="1.1" xmlns="http://www.w3.org/2000/svg" xmlns:xlink="http://www.w3.org/1999/xlink" width="29.0051" height="29.4709">
 <g>
  <rect height="29.4709" opacity="0" width="29.0051" x="0" y="0"/>
  <path d="M9.30637 17.4637L10.4782 16.3162L2.38499 8.18637C1.49387 7.29525 1.50608 6.36752 2.38499 5.47641L4.10618 3.74301C4.97288 2.8641 5.92502 2.87631 6.81614 3.75521L15.532 12.4588L16.7527 11.3724L8.09788 2.65658C6.37669 0.947597 4.54563 0.947597 2.87327 2.61996L1.24973 4.2435C-0.422631 5.91586-0.422631 7.74691 1.28635 9.4559ZM8.51292 12.0316C8.69602 12.2147 8.98899 12.2147 9.15989 12.0316C9.33079 11.8607 9.34299 11.5799 9.15989 11.3968L4.59446 6.83139C4.43577 6.6849 4.13059 6.66049 3.94749 6.83139C3.77659 7.0267 3.76438 7.31967 3.94749 7.49057ZM10.0144 10.5423C10.1853 10.7254 10.5027 10.701 10.6614 10.5423C10.8445 10.3348 10.8445 10.054 10.6736 9.88314L6.10813 5.32992C5.92502 5.14682 5.63206 5.15902 5.47336 5.32992C5.29026 5.51303 5.30247 5.79379 5.47336 5.96469ZM25.7248 29.2679L27.9099 27.0829C28.1662 26.8143 28.1296 26.4237 27.8855 26.0453L25.3342 22.2367C25.0779 21.8582 24.6872 21.5897 24.2478 21.5287L23.1491 21.3578L17.2287 15.4373L16.0935 16.7435L22.4411 23.0667L23.8083 23.2987L26.1399 26.3993L25.029 27.5101L21.9406 25.1786L21.6965 23.8114L15.4099 17.5125L14.2624 18.8065L19.9875 24.5194L20.1584 25.618C20.2195 26.0575 20.5002 26.4481 20.8664 26.6922L24.6872 29.2801C25.0779 29.5365 25.4563 29.5365 25.7248 29.2679Z" fill="#5ac8f5" fill-opacity="0.5"/>
  <path d="M1.90891 27.8275C4.03294 29.9271 6.87717 29.9515 8.96458 27.8519C11.6501 25.1419 11.1618 22.0658 19.78 13.4842L18.718 12.41C9.31858 21.846 10.7468 23.6038 7.71946 26.6312C6.36448 27.9984 4.53342 28.0106 3.11741 26.619C1.7136 25.1908 1.73801 23.3719 3.08079 22.0169C6.13254 18.9774 7.89036 20.4178 17.3142 11.0184L16.2522 9.95639C7.67063 18.5746 4.59446 18.0863 1.8845 20.7596C-0.227319 22.847-0.202905 25.7035 1.90891 27.8275ZM5.38792 25.8866C6.21799 25.8866 6.90159 25.203 6.90159 24.3729C6.90159 23.5428 6.21799 22.8714 5.38792 22.8714C4.55784 22.8714 3.88645 23.5428 3.88645 24.3729C3.88645 25.203 4.55784 25.8866 5.38792 25.8866ZM17.0945 12.6297C19.8899 15.4251 24.3454 15.5228 27.0554 12.825C29.2527 10.6278 29.6311 7.16098 27.9953 4.35336L26.8113 5.54965C27.8366 7.64926 27.4948 10.0907 25.9079 11.6898C23.8449 13.7528 20.427 13.6551 18.2419 11.4945C16.0691 9.32162 15.9836 5.87924 18.0588 3.82846C19.6457 2.24154 22.1238 1.89975 24.1623 2.93734L25.3586 1.74105C22.5754 0.117519 19.1208 0.48373 16.9236 2.6932C14.2258 5.37875 14.3113 9.83432 17.0945 12.6297ZM20.7932 7.14877L22.5998 8.9432C23.5031 9.84652 24.6628 9.87094 25.5173 9.00424L28.0808 6.42855L27.0066 5.36654L24.675 7.67367C24.3454 8.00326 23.9304 8.02768 23.5764 7.67367L22.0871 6.17221C21.7331 5.806 21.6965 5.37875 22.0261 5.04916L24.3821 2.71762L23.2712 1.6434L20.7322 4.19467C19.8288 5.08578 19.8532 6.23324 20.7932 7.14877Z" fill="#5ac8f5"/>
 </g>
</svg>
