<?xml version="1.0" encoding="UTF-8"?>
<!--Generator: Apple Native CoreSVG 175.5-->
<!DOCTYPE svg
PUBLIC "-//W3C//DTD SVG 1.1//EN"
       "http://www.w3.org/Graphics/SVG/1.1/DTD/svg11.dtd">
<svg version="1.1" xmlns="http://www.w3.org/2000/svg" xmlns:xlink="http://www.w3.org/1999/xlink" width="20.1867" height="29.7485">
 <g>
  <rect height="29.7485" opacity="0" width="20.1867" x="0" y="0"/>
  <path d="M9.76562 6.05469C11.2305 6.05469 12.4268 4.87061 12.4268 3.36914C12.4268 1.9165 11.2305 0.720215 9.76562 0.720215C8.27637 0.720215 7.09229 1.9165 7.09229 3.36914C7.09229 4.87061 8.27637 6.05469 9.76562 6.05469ZM1.24512 29.4434C1.78223 29.7241 2.56348 29.6143 2.92969 28.9551L6.00586 23.4131L7.82471 19.3237C7.86133 19.2383 7.9834 19.2017 8.05664 19.2749L12.9395 22.8149L12.9395 28.3447C12.9395 29.0405 13.4888 29.5898 14.1724 29.5898C14.8682 29.5898 15.4053 29.0405 15.4053 28.3447L15.4053 22.2656C15.4053 21.9116 15.3076 21.5454 15.0269 21.2891L9.93652 16.4795L10.4126 12.6099C10.4248 12.4634 10.6201 12.4512 10.6689 12.5732L11.8042 15.271C11.9995 15.7471 12.439 16.0278 12.9395 16.0278L18.1763 16.0278C18.8599 16.0278 19.4092 15.4785 19.4092 14.7949C19.4092 14.1113 18.8599 13.562 18.1763 13.562L13.7451 13.562L11.9873 9.42383C11.5234 8.34961 10.8398 7.73926 9.27734 7.31201L8.56934 7.1167C6.87256 6.64062 5.71289 6.56738 4.3457 7.16553L2.46582 7.97119L2.46582 3.39355C2.46582 2.72217 1.9043 2.17285 1.23291 2.17285C0.549316 2.17285 0 2.72217 0 3.39355L0 9.99756C0 10.8765 0.915527 11.3525 1.72119 10.9985L5.2124 9.47266C5.37109 9.41162 5.51758 9.50928 5.49316 9.68018L3.73535 22.4243L0.756836 27.771C0.439453 28.3447 0.646973 29.1382 1.24512 29.4434ZM17.3462 11.6821L18.7012 11.6821L18.7012 0.671387C18.7012 0.292969 18.396 0 18.0176 0C17.6392 0 17.3462 0.292969 17.3462 0.671387ZM16.333 12.3901L19.7021 12.3901C20.105 12.3901 20.2759 12.0483 20.1416 11.6821C19.8364 10.7666 18.9941 10.1318 18.0176 10.1318C17.041 10.1318 16.1987 10.7666 15.8936 11.6821C15.7593 12.0483 15.9302 12.3901 16.333 12.3901Z" fill="#5ac8f5"/>
 </g>
</svg>
