<?xml version="1.0" encoding="UTF-8"?>
<!--Generator: Apple Native CoreSVG 175.5-->
<!DOCTYPE svg
PUBLIC "-//W3C//DTD SVG 1.1//EN"
       "http://www.w3.org/Graphics/SVG/1.1/DTD/svg11.dtd">
<svg version="1.1" xmlns="http://www.w3.org/2000/svg" xmlns:xlink="http://www.w3.org/1999/xlink" width="19.3237" height="26.1597">
 <g>
  <rect height="26.1597" opacity="0" width="19.3237" x="0" y="0"/>
  <path d="M1.33057 25.3906C1.92871 25.3906 2.33154 25.1709 2.92969 24.585L9.49707 18.0786C9.55811 18.0176 9.60693 17.9688 9.66797 17.9688C9.7168 17.9688 9.77783 18.0176 9.83887 18.0786L16.394 24.585C17.0044 25.1709 17.395 25.3906 17.9932 25.3906C18.8232 25.3906 19.3237 24.7559 19.3237 23.9258C19.3237 23.4619 19.1406 22.9126 18.9575 22.4121L11.3281 1.5625C10.9375 0.488281 10.3638 0 9.66797 0C8.95996 0 8.39844 0.488281 8.00781 1.5625L0.366211 22.4121C0.195312 22.9126 0 23.4619 0 23.9258C0 24.7559 0.500488 25.3906 1.33057 25.3906ZM2.17285 22.7295C2.13623 22.7051 2.12402 22.6562 2.14844 22.583L9.5459 2.64893C9.58252 2.55127 9.61914 2.51465 9.66797 2.51465C9.70459 2.51465 9.75342 2.55127 9.77783 2.64893L17.1753 22.583C17.1997 22.6562 17.1875 22.7051 17.1631 22.7295C17.1387 22.7417 17.0898 22.7295 17.0532 22.7051L10.2783 15.8325C10.0586 15.6128 9.83887 15.564 9.66797 15.564C9.48486 15.564 9.26514 15.6128 9.05762 15.8325L2.28271 22.7051C2.24609 22.7295 2.19727 22.7417 2.17285 22.7295Z" fill="#5ac8f5"/>
 </g>
</svg>
