<?xml version="1.0" encoding="UTF-8"?>
<!--Generator: Apple Native CoreSVG 175.5-->
<!DOCTYPE svg
PUBLIC "-//W3C//DTD SVG 1.1//EN"
       "http://www.w3.org/Graphics/SVG/1.1/DTD/svg11.dtd">
<svg version="1.1" xmlns="http://www.w3.org/2000/svg" xmlns:xlink="http://www.w3.org/1999/xlink" width="13.9404" height="28.6011">
 <g>
  <rect height="28.6011" opacity="0" width="13.9404" x="0" y="0"/>
  <path d="M3.18604 28.6011L10.7544 28.6011C12.7075 28.6011 13.9404 27.4048 13.9404 25.5615L13.9404 3.02734C13.9404 1.18408 12.7075 0 10.7544 0L3.18604 0C1.23291 0 0 1.18408 0 3.02734L0 25.5615C0 27.4048 1.23291 28.6011 3.18604 28.6011ZM3.39355 26.8188C2.41699 26.8188 1.80664 26.2329 1.80664 25.3052L1.80664 3.2959C1.80664 2.36816 2.41699 1.78223 3.39355 1.78223L10.5469 1.78223C11.5234 1.78223 12.1338 2.36816 12.1338 3.2959L12.1338 25.3052C12.1338 26.2329 11.5234 26.8188 10.5469 26.8188ZM7.71484 4.6875L10.3149 4.6875C10.7422 4.6875 11.084 4.35791 11.084 3.93066C11.084 3.49121 10.7422 3.16162 10.3149 3.16162L7.71484 3.16162C7.2876 3.16162 6.9458 3.49121 6.9458 3.93066C6.9458 4.35791 7.2876 4.6875 7.71484 4.6875ZM3.9917 9.22852C4.65088 9.22852 5.17578 8.71582 5.17578 8.04443C5.17578 7.39746 4.65088 6.86035 3.9917 6.86035C3.33252 6.86035 2.80762 7.39746 2.80762 8.04443C2.80762 8.71582 3.33252 9.22852 3.9917 9.22852ZM6.97021 9.22852C7.62939 9.22852 8.1543 8.71582 8.1543 8.04443C8.1543 7.39746 7.62939 6.86035 6.97021 6.86035C6.31104 6.86035 5.78613 7.39746 5.78613 8.04443C5.78613 8.71582 6.31104 9.22852 6.97021 9.22852ZM9.96094 9.22852C10.6201 9.22852 11.145 8.71582 11.145 8.04443C11.145 7.39746 10.6201 6.86035 9.96094 6.86035C9.30176 6.86035 8.77686 7.39746 8.77686 8.04443C8.77686 8.71582 9.30176 9.22852 9.96094 9.22852ZM3.9917 12.6465C4.65088 12.6465 5.17578 12.1216 5.17578 11.4624C5.17578 10.8154 4.65088 10.2783 3.9917 10.2783C3.33252 10.2783 2.80762 10.8154 2.80762 11.4624C2.80762 12.1216 3.33252 12.6465 3.9917 12.6465ZM6.97021 12.6465C7.62939 12.6465 8.1543 12.1216 8.1543 11.4624C8.1543 10.8154 7.62939 10.2783 6.97021 10.2783C6.31104 10.2783 5.78613 10.8154 5.78613 11.4624C5.78613 12.1216 6.31104 12.6465 6.97021 12.6465ZM9.96094 12.6465C10.6201 12.6465 11.145 12.1216 11.145 11.4624C11.145 10.8154 10.6201 10.2783 9.96094 10.2783C9.30176 10.2783 8.77686 10.8154 8.77686 11.4624C8.77686 12.1216 9.30176 12.6465 9.96094 12.6465ZM3.9917 16.0522C4.65088 16.0522 5.17578 15.5396 5.17578 14.8682C5.17578 14.2212 4.65088 13.6841 3.9917 13.6841C3.33252 13.6841 2.80762 14.2212 2.80762 14.8682C2.80762 15.5396 3.33252 16.0522 3.9917 16.0522ZM6.97021 16.0522C7.62939 16.0522 8.1543 15.5151 8.1543 14.8682C8.1543 14.209 7.62939 13.6841 6.97021 13.6841C6.31104 13.6841 5.78613 14.209 5.78613 14.8682C5.78613 15.5151 6.31104 16.0522 6.97021 16.0522ZM9.96094 16.0522C10.6201 16.0522 11.145 15.5151 11.145 14.8682C11.145 14.209 10.6201 13.6841 9.96094 13.6841C9.30176 13.6841 8.77686 14.209 8.77686 14.8682C8.77686 15.5151 9.30176 16.0522 9.96094 16.0522ZM3.72314 24.1577C4.23584 24.1577 4.63867 23.7427 4.63867 23.2422L4.63867 18.9209C4.63867 18.4082 4.23584 18.0054 3.72314 18.0054C3.22266 18.0054 2.80762 18.4082 2.80762 18.9209L2.80762 23.2422C2.80762 23.7427 3.22266 24.1577 3.72314 24.1577ZM6.37207 20.6177L7.55615 20.6177C7.97119 20.6177 8.20312 20.3735 8.20312 19.9829L8.20312 19.1895C8.20312 18.7866 7.97119 18.5425 7.55615 18.5425L6.37207 18.5425C5.98145 18.5425 5.7373 18.7866 5.7373 19.1895L5.7373 19.9829C5.7373 20.3735 5.98145 20.6177 6.37207 20.6177ZM6.37207 23.6084L7.55615 23.6084C7.97119 23.6084 8.20312 23.3765 8.20312 22.9736L8.20312 22.1802C8.20312 21.7773 7.97119 21.5454 7.55615 21.5454L6.37207 21.5454C5.98145 21.5454 5.7373 21.7773 5.7373 22.1802L5.7373 22.9736C5.7373 23.3765 5.98145 23.6084 6.37207 23.6084ZM10.2295 24.1577C10.73 24.1577 11.145 23.7427 11.145 23.2422L11.145 18.9209C11.145 18.4082 10.73 18.0054 10.2295 18.0054C9.7168 18.0054 9.31396 18.4082 9.31396 18.9209L9.31396 23.2422C9.31396 23.7427 9.7168 24.1577 10.2295 24.1577Z" fill="#5ac8f5"/>
 </g>
</svg>
