<?xml version="1.0" encoding="UTF-8"?>
<!--Generator: Apple Native CoreSVG 175.5-->
<!DOCTYPE svg
PUBLIC "-//W3C//DTD SVG 1.1//EN"
       "http://www.w3.org/Graphics/SVG/1.1/DTD/svg11.dtd">
<svg version="1.1" xmlns="http://www.w3.org/2000/svg" xmlns:xlink="http://www.w3.org/1999/xlink" width="24.9023" height="24.9146">
 <g>
  <rect height="24.9146" opacity="0" width="24.9023" x="0" y="0"/>
  <path d="M12.4512 24.9023C19.2627 24.9023 24.9023 19.2505 24.9023 12.4512C24.9023 5.63965 19.2505 0 12.439 0C5.63965 0 0 5.63965 0 12.4512C0 19.2505 5.65186 24.9023 12.4512 24.9023ZM12.4512 22.8271C6.68945 22.8271 2.0874 18.2129 2.0874 12.4512C2.0874 6.68945 6.67725 2.0752 12.439 2.0752C18.2007 2.0752 22.8271 6.68945 22.8271 12.4512C22.8271 18.2129 18.2129 22.8271 12.4512 22.8271Z" fill="#5ac8f5" fill-opacity="0.5"/>
  <path d="M11.0962 18.2495C14.6118 18.2495 16.6626 15.4907 16.6626 13.2935C16.6626 12.793 16.3696 12.4756 15.9424 12.4756C15.5518 12.4756 15.271 12.7075 15.1855 13.269C14.9658 15.0513 13.562 16.6748 11.5723 16.6748L11.5723 12.7808L14.1235 11.7188C14.4043 11.5967 14.5264 11.4136 14.5264 11.145C14.5264 10.8032 14.2944 10.5591 13.9526 10.5591C13.855 10.5591 13.7451 10.5835 13.6475 10.6201L11.5723 11.499L11.5723 10.3394L14.1235 9.27734C14.4043 9.14307 14.5264 8.97217 14.5264 8.70361C14.5264 8.36182 14.2944 8.10547 13.9526 8.10547C13.855 8.10547 13.7451 8.14209 13.6475 8.17871L11.5723 9.04541L11.5723 7.49512C11.5723 6.99463 11.2793 6.67725 10.8276 6.67725C10.3638 6.67725 10.0708 6.99463 10.0708 7.49512L10.0708 9.66797L8.61816 10.2905C8.3252 10.4126 8.20312 10.5835 8.20312 10.8643C8.20312 11.2061 8.44727 11.4502 8.78906 11.4502C8.88672 11.4502 8.98438 11.4258 9.09424 11.377L10.0708 10.9619L10.0708 12.1216L8.61816 12.7319C8.3252 12.854 8.20312 13.0371 8.20312 13.3057C8.20312 13.6475 8.44727 13.8916 8.78906 13.8916C8.88672 13.8916 8.98438 13.8672 9.09424 13.8306L10.0708 13.4033L10.0708 17.2852C10.0708 17.8467 10.4126 18.2495 11.0962 18.2495Z" fill="#5ac8f5"/>
 </g>
</svg>
