<?xml version="1.0" encoding="UTF-8"?>
<!--Generator: Apple Native CoreSVG 175.5-->
<!DOCTYPE svg
PUBLIC "-//W3C//DTD SVG 1.1//EN"
       "http://www.w3.org/Graphics/SVG/1.1/DTD/svg11.dtd">
<svg version="1.1" xmlns="http://www.w3.org/2000/svg" xmlns:xlink="http://www.w3.org/1999/xlink" width="22.4731" height="22.4976">
 <g>
  <rect height="22.4976" opacity="0" width="22.4731" x="0" y="0"/>
  <path d="M3.83301 22.4976L18.6401 22.4976C21.2036 22.4976 22.4731 21.228 22.4731 18.7134L22.4731 3.80859C22.4731 1.29395 21.2036 0.0244141 18.6401 0.0244141L3.83301 0.0244141C1.28174 0.0244141 0 1.28174 0 3.80859L0 18.7134C0 21.2402 1.28174 22.4976 3.83301 22.4976ZM3.85742 20.5322C2.63672 20.5322 1.96533 19.8853 1.96533 18.6157L1.96533 3.90625C1.96533 2.63672 2.63672 1.98975 3.85742 1.98975L18.6157 1.98975C19.8242 1.98975 20.5078 2.63672 20.5078 3.90625L20.5078 18.6157C20.5078 19.8853 19.8242 20.5322 18.6157 20.5322Z" fill="#5ac8f5" fill-opacity="0.5"/>
  <path d="M7.18994 16.5161C9.33838 16.5161 10.7788 15.1978 10.7788 13.0615C10.7788 11.1694 9.50928 9.80225 7.61719 9.80225C6.79932 9.80225 5.92041 10.2051 5.5542 10.7544L5.50537 10.7544L5.7373 7.61719L9.77783 7.61719C10.1196 7.61719 10.376 7.33643 10.376 6.93359C10.376 6.54297 10.1318 6.26221 9.77783 6.26221L5.57861 6.26221C4.94385 6.26221 4.5166 6.65283 4.47998 7.2876L4.1748 11.0962C4.13818 11.7432 4.46777 12.1582 5.0293 12.1582C5.40771 12.1582 5.63965 12.0605 6.03027 11.731C6.53076 11.3037 6.92139 11.1206 7.4585 11.1206C8.53271 11.1206 9.26514 11.9629 9.26514 13.0859C9.26514 14.3677 8.45947 15.1367 7.27539 15.1367C6.44531 15.1367 5.7251 14.6973 5.37109 13.9648C5.2002 13.6108 4.95605 13.4399 4.67529 13.4399C4.26025 13.4399 3.9917 13.7451 3.9917 14.1479C3.9917 14.3555 4.02832 14.5386 4.08936 14.6973C4.45557 15.7104 5.66406 16.5161 7.18994 16.5161ZM15.5884 16.5161C17.688 16.5161 19.0796 14.502 19.0796 11.2549C19.0796 8.00781 17.688 5.99365 15.5884 5.99365C13.4766 5.99365 12.0972 8.00781 12.0972 11.2549C12.0972 14.502 13.4766 16.5161 15.5884 16.5161ZM15.5884 15.0391C14.4165 15.0391 13.6963 13.5986 13.6963 11.2549C13.6963 8.91113 14.4165 7.4707 15.5884 7.4707C16.748 7.4707 17.4683 8.91113 17.4683 11.2549C17.4683 13.5986 16.7603 15.0391 15.5884 15.0391Z" fill="#5ac8f5"/>
 </g>
</svg>
