<?xml version="1.0" encoding="UTF-8"?>
<!--Generator: Apple Native CoreSVG 175.5-->
<!DOCTYPE svg
PUBLIC "-//W3C//DTD SVG 1.1//EN"
       "http://www.w3.org/Graphics/SVG/1.1/DTD/svg11.dtd">
<svg version="1.1" xmlns="http://www.w3.org/2000/svg" xmlns:xlink="http://www.w3.org/1999/xlink" width="28.8208" height="29.187">
 <g>
  <rect height="29.187" opacity="0" width="28.8208" x="0" y="0"/>
  <path d="M3.72314 22.7539L25.0977 22.7539C27.5757 22.7539 28.8208 21.521 28.8208 19.0796L28.8208 10.6567C28.8208 8.22754 27.5757 6.98242 25.0977 6.98242L17.0288 6.98242L17.0288 8.94775L25.0732 8.94775C26.2085 8.94775 26.8555 9.55811 26.8555 10.7666L26.8555 18.9697C26.8555 20.1782 26.2085 20.7886 25.0732 20.7886L3.74756 20.7886C2.58789 20.7886 1.96533 20.1782 1.96533 18.9697L1.96533 10.7666C1.96533 9.55811 2.58789 8.94775 3.74756 8.94775L11.792 8.94775L11.792 6.98242L3.72314 6.98242C1.25732 6.98242 0 8.21533 0 10.6567L0 19.0796C0 21.521 1.25732 22.7539 3.72314 22.7539Z" fill="#5ac8f5" fill-opacity="0.5"/>
  <path d="M14.3799 29.187C15.8447 29.187 17.0776 27.9663 17.0776 26.5015C17.0776 25.0244 15.8569 23.8159 14.3799 23.8159C12.9272 23.8159 11.7065 25.0244 11.7065 26.5015C11.7065 27.9785 12.915 29.187 14.3799 29.187ZM14.3799 27.5391C13.8062 27.5391 13.3423 27.0752 13.3423 26.5015C13.3423 25.9155 13.8062 25.4395 14.3799 25.4395C14.9658 25.4395 15.4419 25.9155 15.4419 26.5015C15.4419 27.0752 14.9658 27.5391 14.3799 27.5391ZM12.6343 25.4517L14.3921 24.5361L3.479 5.81055C3.22266 5.35889 2.67334 5.18799 2.12402 5.44434C1.62354 5.71289 1.51367 6.33545 1.78223 6.79932ZM1.53809 4.01611C2.00195 4.30908 2.52686 4.1748 2.88086 3.74756C3.52783 2.99072 4.32129 2.40479 5.23682 2.09961C5.76172 1.87988 6.09131 1.42822 5.98145 0.891113C5.84717 0.280762 5.24902-0.012207 4.54102 0.244141C3.33252 0.634766 2.18506 1.46484 1.31836 2.53906C0.866699 3.06396 1.0376 3.72314 1.53809 4.01611ZM13.0981 3.9917C13.5986 3.69873 13.7085 3.05176 13.3057 2.52686C12.4268 1.45264 11.2793 0.634766 10.083 0.256348C9.32617-0.0244141 8.75244 0.32959 8.63037 0.915527C8.55713 1.44043 8.8501 1.87988 9.38721 2.09961C10.2783 2.40479 11.084 2.99072 11.7188 3.73535C12.0972 4.19922 12.6099 4.27246 13.0981 3.9917ZM15.7227 3.9917C16.1987 4.27246 16.7114 4.19922 17.1021 3.73535C17.7246 2.99072 18.5303 2.40479 19.4336 2.09961C19.9707 1.87988 20.2637 1.44043 20.1904 0.915527C20.0684 0.32959 19.4946-0.0244141 18.7378 0.256348C17.5415 0.634766 16.3818 1.45264 15.5151 2.52686C15.1123 3.05176 15.21 3.69873 15.7227 3.9917ZM27.2827 4.01611C27.7832 3.72314 27.9541 3.06396 27.5024 2.53906C26.6357 1.46484 25.4883 0.634766 24.2798 0.244141C23.5718-0.012207 22.9736 0.280762 22.8394 0.891113C22.7173 1.42822 23.0591 1.87988 23.584 2.09961C24.4995 2.40479 25.293 2.99072 25.9399 3.74756C26.2939 4.1748 26.8188 4.30908 27.2827 4.01611ZM14.4043 10.3516C14.9414 10.3516 15.3931 9.91211 15.3931 9.375L15.3931 6.37207C15.3931 5.83496 14.9414 5.3833 14.4043 5.3833C13.8794 5.3833 13.4155 5.83496 13.4155 6.37207L13.4155 9.375C13.4155 9.91211 13.8794 10.3516 14.4043 10.3516ZM14.4043 16.8091C14.9414 16.8091 15.3931 16.3574 15.3931 15.8203L15.3931 12.8296C15.3931 12.2925 14.9414 11.8286 14.4043 11.8286C13.8794 11.8286 13.4155 12.2925 13.4155 12.8296L13.4155 15.8203C13.4155 16.3574 13.8794 16.8091 14.4043 16.8091Z" fill="#5ac8f5"/>
 </g>
</svg>
