<?xml version="1.0" encoding="UTF-8"?>
<!--Generator: Apple Native CoreSVG 175.5-->
<!DOCTYPE svg
PUBLIC "-//W3C//DTD SVG 1.1//EN"
       "http://www.w3.org/Graphics/SVG/1.1/DTD/svg11.dtd">
<svg version="1.1" xmlns="http://www.w3.org/2000/svg" xmlns:xlink="http://www.w3.org/1999/xlink" width="29.895" height="22.3511">
 <g>
  <rect height="22.3511" opacity="0" width="29.895" x="0" y="0"/>
  <path d="M2.0874 22.3511L18.457 22.3511C19.7632 22.3511 20.5444 21.7407 20.5444 20.7275C20.5444 17.5781 16.6016 13.2324 10.2661 13.2324C3.94287 13.2324 0 17.5781 0 20.7275C0 21.7407 0.78125 22.3511 2.0874 22.3511ZM10.2783 11.0474C12.8906 11.0474 15.1611 8.70361 15.1611 5.65186C15.1611 2.63672 12.8906 0.402832 10.2783 0.402832C7.66602 0.402832 5.39551 2.68555 5.39551 5.67627C5.39551 8.70361 7.65381 11.0474 10.2783 11.0474Z" fill="#5ac8f5" fill-opacity="0.5"/>
  <path d="M23.0347 11.7676C23.4375 11.7676 23.7793 11.5723 24.0234 11.2061L29.6021 2.41699C29.7363 2.18506 29.895 1.9165 29.895 1.63574C29.895 1.09863 29.4067 0.744629 28.894 0.744629C28.5767 0.744629 28.2837 0.927734 28.0518 1.29395L22.9858 9.42383L20.5811 6.31104C20.2881 5.92041 20.0195 5.81055 19.6777 5.81055C19.1528 5.81055 18.7378 6.23779 18.7378 6.78711C18.7378 7.04346 18.8477 7.31201 19.0186 7.54395L21.9971 11.2061C22.3022 11.6089 22.6318 11.7676 23.0347 11.7676Z" fill="#5ac8f5"/>
 </g>
</svg>
