<?xml version="1.0" encoding="UTF-8"?>
<!--Generator: Apple Native CoreSVG 175.5-->
<!DOCTYPE svg
PUBLIC "-//W3C//DTD SVG 1.1//EN"
       "http://www.w3.org/Graphics/SVG/1.1/DTD/svg11.dtd">
<svg version="1.1" xmlns="http://www.w3.org/2000/svg" xmlns:xlink="http://www.w3.org/1999/xlink" width="22.2168" height="22.229">
 <g>
  <rect height="22.229" opacity="0" width="22.2168" x="0" y="0"/>
  <path d="M20.7886 1.44043C19.5435 0.195312 17.7856 0 15.6982 0L6.48193 0C4.43115 0 2.67334 0.195312 1.42822 1.44043C0.183105 2.68555 0 4.43115 0 6.46973L0 15.6982C0 17.7856 0.183105 19.519 1.42822 20.7642C2.67334 22.0093 4.43115 22.2046 6.50635 22.2046L15.6982 22.2046C17.7856 22.2046 19.5435 22.0093 20.7886 20.7642C22.0337 19.519 22.2168 17.7856 22.2168 15.6982L22.2168 6.50635C22.2168 4.41895 22.0337 2.67334 20.7886 1.44043ZM7.00684 16.2354C6.45752 16.2354 6.00586 15.7837 6.00586 15.2222C6.00586 14.9536 6.10352 14.6973 6.29883 14.5142L9.69238 11.1206L6.29883 7.73926C6.10352 7.54395 6.00586 7.2998 6.00586 7.03125C6.00586 6.45752 6.45752 6.03027 7.00684 6.03027C7.2876 6.03027 7.51953 6.12793 7.70264 6.31104L11.1084 9.70459L14.5386 6.29883C14.7461 6.09131 14.978 6.00586 15.2466 6.00586C15.7959 6.00586 16.2476 6.44531 16.2476 7.00684C16.2476 7.2876 16.1621 7.50732 15.9546 7.72705L12.5488 11.1206L15.9424 14.502C16.1377 14.6851 16.2354 14.9414 16.2354 15.2222C16.2354 15.7837 15.7837 16.2354 15.2222 16.2354C14.9414 16.2354 14.6729 16.1377 14.4897 15.9424L11.1084 12.5488L7.73926 15.9424C7.55615 16.1377 7.2876 16.2354 7.00684 16.2354Z" fill="#5ac8f5"/>
 </g>
</svg>
