<?xml version="1.0" encoding="UTF-8"?>
<!--Generator: Apple Native CoreSVG 175.5-->
<!DOCTYPE svg
PUBLIC "-//W3C//DTD SVG 1.1//EN"
       "http://www.w3.org/Graphics/SVG/1.1/DTD/svg11.dtd">
<svg version="1.1" xmlns="http://www.w3.org/2000/svg" xmlns:xlink="http://www.w3.org/1999/xlink" width="24.9023" height="24.9146">
 <g>
  <rect height="24.9146" opacity="0" width="24.9023" x="0" y="0"/>
  <path d="M12.4512 24.9023C19.2627 24.9023 24.9023 19.2505 24.9023 12.4512C24.9023 5.63965 19.2505 0 12.439 0C5.63965 0 0 5.63965 0 12.4512C0 19.2505 5.65186 24.9023 12.4512 24.9023ZM10.2539 19.519C9.729 19.519 9.32617 19.1406 9.32617 18.6157C9.32617 18.1274 9.729 17.7246 10.2539 17.7246L11.8042 17.7246L11.8042 11.9873L10.4614 11.9873C9.94873 11.9873 9.5459 11.6089 9.5459 11.084C9.5459 10.5957 9.94873 10.1929 10.4614 10.1929L12.8296 10.1929C13.4766 10.1929 13.8184 10.6567 13.8184 11.3403L13.8184 17.7246L15.3687 17.7246C15.8936 17.7246 16.2964 18.1274 16.2964 18.6157C16.2964 19.1406 15.8936 19.519 15.3687 19.519ZM12.3413 8.11768C11.4258 8.11768 10.6934 7.38525 10.6934 6.45752C10.6934 5.52979 11.4258 4.79736 12.3413 4.79736C13.2568 4.79736 13.9771 5.52979 13.9771 6.45752C13.9771 7.38525 13.2568 8.11768 12.3413 8.11768Z" fill="#5ac8f5"/>
 </g>
</svg>
