<?xml version="1.0" encoding="UTF-8"?>
<!--Generator: Apple Native CoreSVG 175.5-->
<!DOCTYPE svg
PUBLIC "-//W3C//DTD SVG 1.1//EN"
       "http://www.w3.org/Graphics/SVG/1.1/DTD/svg11.dtd">
<svg version="1.1" xmlns="http://www.w3.org/2000/svg" xmlns:xlink="http://www.w3.org/1999/xlink" width="33.057" height="30.0659">
 <g>
  <rect height="30.0659" opacity="0" width="33.057" x="0" y="0"/>
  <path d="M26.9169 14.9536C30.3593 14.9536 33.057 12.1094 33.057 8.80127C33.057 5.34668 30.3593 2.56348 26.9169 2.56348C23.4623 2.56348 20.6913 5.34668 20.6913 8.80127C20.6913 12.1094 23.4623 14.9536 26.9169 14.9536ZM26.9169 13.3545C24.4022 13.3545 22.2904 11.2793 22.2904 8.80127C22.2904 6.22559 24.3412 4.1626 26.9169 4.1626C29.4559 4.1626 31.4579 6.20117 31.4579 8.80127C31.4579 11.3159 29.4071 13.3545 26.9169 13.3545ZM22.4003 3.16162C22.0951 2.85645 21.5946 2.85645 21.2894 3.16162C20.9598 3.4668 20.9598 3.96729 21.2894 4.29688L31.3602 14.3677C31.6654 14.6729 32.1781 14.6729 32.4833 14.3677C32.8007 14.0625 32.8007 13.5498 32.4833 13.2324ZM21.2894 13.2324C20.9598 13.5498 20.9598 14.0625 21.2894 14.3677C21.5946 14.6729 22.0951 14.6729 22.4003 14.3677L32.4833 4.29688C32.8007 3.96729 32.8007 3.4668 32.4833 3.16162C32.1781 2.85645 31.6654 2.85645 31.3602 3.16162ZM10.1444 6.62842C11.9877 6.62842 13.4525 5.11475 13.4525 3.33252C13.4525 1.50146 11.9877 0 10.1444 0C8.30115 0 6.86072 1.50146 6.86072 3.33252C6.86072 5.15137 8.30115 6.62842 10.1444 6.62842ZM3.78455 18.9819L13.2572 8.48389C12.3295 8.14209 11.3041 7.9834 10.1444 7.9834C5.88416 7.9834 3.35731 10.0464 3.35731 13.4888C3.35731 14.3066 3.40613 15.4175 3.52821 16.5649ZM16.5165 18.9941L16.7728 16.5649C16.8949 15.4175 16.9437 14.3066 16.9437 13.4888C16.9437 11.792 16.3456 10.4126 15.1737 9.47266L7.6786 17.8467C8.49647 17.7002 9.32654 17.6636 10.1444 17.6636C12.2562 17.6636 14.368 17.9321 16.5165 18.9941ZM6.49451 29.9805C7.37342 29.8584 7.94715 29.2358 7.83729 28.1494L7.23914 22.644L13.0619 22.644L12.4638 28.1494C12.3539 29.2358 12.9276 29.8584 13.7943 29.9805C14.6976 30.0781 15.3934 29.5166 15.5033 28.4546L16.2601 21.1914C14.3314 20.0806 12.1952 19.6533 10.1444 19.6533C8.10584 19.6533 5.96961 20.0806 4.0409 21.1914L4.79774 28.4546C4.9076 29.5166 5.6034 30.0781 6.49451 29.9805ZM15.1737 9.46045L18.0057 6.32324C18.494 5.76172 18.4574 5.16357 17.9813 4.76074C17.5419 4.37012 16.9681 4.37012 16.4432 4.94385L13.2572 8.48389C13.9652 8.74023 14.6 9.09424 15.1737 9.46045ZM0.281135 22.9004C0.720588 23.3521 1.31873 23.3398 1.83143 22.8149C2.51502 22.168 3.19862 21.6187 4.0409 21.1914L3.78455 18.9819C2.52723 19.5679 1.4286 20.4102 0.390998 21.3867C-0.0972833 21.8506-0.121697 22.4609 0.281135 22.9004ZM20.0199 22.9004C20.4227 22.4731 20.3983 21.8628 19.9222 21.3989C18.8724 20.4102 17.7738 19.5801 16.5165 18.9941L16.2601 21.1914C17.1024 21.6187 17.786 22.168 18.4696 22.8149C18.9823 23.3398 19.5805 23.3521 20.0199 22.9004Z" fill="#5ac8f5"/>
 </g>
</svg>
