<?xml version="1.0" encoding="UTF-8"?>
<!--Generator: Apple Native CoreSVG 175.5-->
<!DOCTYPE svg
PUBLIC "-//W3C//DTD SVG 1.1//EN"
       "http://www.w3.org/Graphics/SVG/1.1/DTD/svg11.dtd">
<svg version="1.1" xmlns="http://www.w3.org/2000/svg" xmlns:xlink="http://www.w3.org/1999/xlink" width="31.25" height="22.4731">
 <g>
  <rect height="22.4731" opacity="0" width="31.25" x="0" y="0"/>
  <path d="M0 11.2305C0 15.3442 1.95312 19.165 6.00586 21.1182C7.93457 22.0581 10.4126 22.4731 13.8428 22.4731L17.4072 22.4731C20.8374 22.4731 23.3154 22.0581 25.2441 21.1182C29.2969 19.165 31.25 15.3442 31.25 11.2305C31.25 7.55615 29.2725 3.74756 25.2441 1.80664C23.3154 0.866699 20.8374 0.45166 17.4072 0.45166L13.8428 0.45166C10.4126 0.45166 7.93457 0.866699 6.00586 1.80664C1.96533 3.74756 0 7.55615 0 11.2305ZM1.96533 11.2305C1.96533 7.27539 4.66309 3.88184 8.82568 2.89307C10.1562 2.57568 11.792 2.41699 13.8428 2.41699L17.4072 2.41699C20.6055 2.41699 22.7661 2.7832 24.3896 3.57666C27.417 5.0415 29.2847 7.95898 29.2847 11.2305C29.2847 16.2964 25.9033 19.9219 20.3979 20.3613C19.5068 20.459 18.5181 20.5078 17.4072 20.5078L13.8428 20.5078C10.6445 20.5078 8.48389 20.1416 6.86035 19.3481C3.74756 17.8467 1.96533 14.9048 1.96533 11.2305ZM2.2583 6.7749L29.0039 6.7749L29.0039 5.54199L2.2583 5.54199ZM15.6372 15.4907C17.0044 15.4907 18.1274 14.3799 18.1274 13.0615C18.1274 11.6699 16.98 10.5347 15.6372 10.5347C15.1367 10.5347 14.6973 10.6689 14.2822 10.9741L14.2822 8.99658L13.1592 9.48486L13.1592 13.0615C13.1592 14.4165 14.2334 15.4907 15.6372 15.4907ZM15.6372 14.3799C14.8926 14.3799 14.2822 13.7695 14.2822 13.0615C14.2822 12.3169 14.9048 11.6943 15.6372 11.6943C16.3696 11.6943 16.98 12.3291 16.98 13.0615C16.98 13.7695 16.3696 14.3799 15.6372 14.3799Z" fill="#5ac8f5"/>
 </g>
</svg>
