<?xml version="1.0" encoding="UTF-8"?>
<!--Generator: Apple Native CoreSVG 175.5-->
<!DOCTYPE svg
PUBLIC "-//W3C//DTD SVG 1.1//EN"
       "http://www.w3.org/Graphics/SVG/1.1/DTD/svg11.dtd">
<svg version="1.1" xmlns="http://www.w3.org/2000/svg" xmlns:xlink="http://www.w3.org/1999/xlink" width="33.3374" height="25.5493">
 <g>
  <rect height="25.5493" opacity="0" width="33.3374" x="0" y="0"/>
  <path d="M2.45361 19.8853L11.7065 14.2212C12.9028 13.4766 12.9395 12.0972 11.7065 11.3525L2.45361 5.68848C1.19629 4.91943 0 5.50537 0 6.95801L0 18.6035C0 20.0928 1.2207 20.6421 2.45361 19.8853ZM16.6626 25.5493C17.1387 25.5493 17.5659 25.1709 17.5659 24.6948L17.5659 0.866699C17.5659 0.390625 17.1387 0.0244141 16.6626 0.0244141C16.1865 0.0244141 15.7715 0.390625 15.7715 0.866699L15.7715 24.6948C15.7715 25.1709 16.1865 25.5493 16.6626 25.5493ZM30.8716 19.8853C32.1167 20.6421 33.3374 20.0928 33.3374 18.6035L33.3374 6.95801C33.3374 5.50537 32.1411 4.91943 30.8716 5.68848L21.6187 11.3525C20.3979 12.0972 20.4224 13.4766 21.6187 14.2212Z" fill="#5ac8f5"/>
 </g>
</svg>
