<?xml version="1.0" encoding="UTF-8"?>
<!--Generator: Apple Native CoreSVG 175.5-->
<!DOCTYPE svg
PUBLIC "-//W3C//DTD SVG 1.1//EN"
       "http://www.w3.org/Graphics/SVG/1.1/DTD/svg11.dtd">
<svg version="1.1" xmlns="http://www.w3.org/2000/svg" xmlns:xlink="http://www.w3.org/1999/xlink" width="23.8892" height="30.4203">
 <g>
  <rect height="30.4203" opacity="0" width="23.8892" x="0" y="0"/>
  <path d="M23.8892 19.9648C23.8892 19.4155 23.4985 19.0493 22.9248 19.0493L8.54492 19.0493C8.28857 19.0493 8.19092 18.9638 8.19092 18.6952L8.19092 4.43744C8.19092 3.82708 7.80029 3.41205 7.21436 3.41205C6.61621 3.41205 6.22559 3.82708 6.22559 4.43744L6.22559 19.9282C6.22559 20.5141 6.604 20.8925 7.20215 20.8925L22.9248 20.8925C23.4985 20.8925 23.8892 20.5263 23.8892 19.9648ZM0 10.5532C0 11.1025 0.390625 11.4687 0.952148 11.4687L15.4175 11.4687C15.6738 11.4687 15.7715 11.5663 15.7715 11.8227L15.7715 26.166C15.7715 26.7763 16.1621 27.1913 16.748 27.1913C17.3462 27.1913 17.7368 26.7763 17.7368 26.166L17.7368 10.602C17.7368 10.016 17.3462 9.62542 16.7603 9.62542L0.952148 9.62542C0.390625 9.62542 0 10.0038 0 10.5532Z" fill="#5ac8f5" fill-opacity="0.5"/>
  <path d="M0.268555 22.0888C0.268555 25.5922 2.6001 27.9482 6.11572 27.9482L6.35986 27.9482L6.35986 29.5473C6.35986 30.4506 7.04346 30.6581 7.72705 30.1454L10.8032 27.8871C11.3159 27.5087 11.3281 27.0815 10.8032 26.6909L7.72705 24.4448C7.04346 23.9565 6.35986 24.1518 6.35986 25.0307L6.35986 26.5322L6.12793 26.5322C3.479 26.5322 1.79443 24.6889 1.79443 22.0888L1.79443 20.27C1.79443 19.8549 1.45264 19.5009 1.0376 19.5009C0.622559 19.5009 0.268555 19.8549 0.268555 20.27ZM13.1714 3.83929L16.2598 6.08539C16.9312 6.58587 17.627 6.37835 17.627 5.49945L17.627 4.01019L17.8589 4.01019C20.5078 4.01019 22.1802 5.84124 22.1802 8.45355L22.1802 10.2724C22.1802 10.6874 22.522 11.0292 22.9492 11.0292C23.3643 11.0292 23.7061 10.6874 23.7061 10.2724L23.7061 8.44134C23.7061 4.95013 21.3745 2.59417 17.8711 2.59417L17.627 2.59417L17.627 0.982846C17.627 0.0795256 16.9312-0.127994 16.2598 0.384701L13.1714 2.643C12.6709 3.03363 12.6587 3.46087 13.1714 3.83929Z" fill="#5ac8f5"/>
 </g>
</svg>
