<?xml version="1.0" encoding="UTF-8"?>
<!--Generator: Apple Native CoreSVG 175.5-->
<!DOCTYPE svg
PUBLIC "-//W3C//DTD SVG 1.1//EN"
       "http://www.w3.org/Graphics/SVG/1.1/DTD/svg11.dtd">
<svg version="1.1" xmlns="http://www.w3.org/2000/svg" xmlns:xlink="http://www.w3.org/1999/xlink" width="24.9023" height="24.9146">
 <g>
  <rect height="24.9146" opacity="0" width="24.9023" x="0" y="0"/>
  <path d="M12.4512 24.9023C19.2627 24.9023 24.9023 19.2505 24.9023 12.4512C24.9023 5.63965 19.2505 0 12.439 0C5.63965 0 0 5.63965 0 12.4512C0 19.2505 5.65186 24.9023 12.4512 24.9023ZM12.6343 9.31396C12.5366 8.52051 12.854 7.75146 13.562 7.04346L17.334 10.8276C16.6504 11.5234 15.8569 11.853 15.0635 11.7676L13.208 13.4766L13.208 18.2251C13.208 18.6401 12.8906 18.9575 12.4878 18.9575C12.0605 18.9575 11.7554 18.6401 11.7554 18.2251L11.7554 14.8438L8.61816 17.7368C8.31299 18.0176 7.91016 18.042 7.60498 17.7979L6.604 18.5547C6.4209 18.689 6.22559 18.6646 6.05469 18.5181L5.85938 18.335C5.68848 18.1885 5.68848 17.9565 5.82275 17.7734L6.57959 16.7969C6.32324 16.4795 6.33545 16.0767 6.64062 15.7471ZM7.60498 16.3818L8.02002 16.7969L13.8184 11.2793C13.6963 11.1816 13.562 11.0718 13.4399 10.9497C13.2935 10.8032 13.1958 10.6812 13.1226 10.5347ZM18.0542 6.32324C19.2139 7.4585 19.165 8.99658 17.9688 10.1807L14.1968 6.40869C15.3809 5.22461 16.9067 5.17578 18.0542 6.32324Z" fill="#5ac8f5"/>
 </g>
</svg>
