<?xml version="1.0" encoding="UTF-8"?>
<!--Generator: Apple Native CoreSVG 175.5-->
<!DOCTYPE svg
PUBLIC "-//W3C//DTD SVG 1.1//EN"
       "http://www.w3.org/Graphics/SVG/1.1/DTD/svg11.dtd">
<svg version="1.1" xmlns="http://www.w3.org/2000/svg" xmlns:xlink="http://www.w3.org/1999/xlink" width="24.9023" height="24.9146">
 <g>
  <rect height="24.9146" opacity="0" width="24.9023" x="0" y="0"/>
  <path d="M12.4512 24.9023C19.2627 24.9023 24.9023 19.2505 24.9023 12.4512C24.9023 5.63965 19.2505 0 12.439 0C5.63965 0 0 5.63965 0 12.4512C0 19.2505 5.65186 24.9023 12.4512 24.9023ZM12.4512 22.8271C6.68945 22.8271 2.0874 18.2129 2.0874 12.4512C2.0874 6.68945 6.67725 2.0752 12.439 2.0752C18.2007 2.0752 22.8271 6.68945 22.8271 12.4512C22.8271 18.2129 18.2129 22.8271 12.4512 22.8271Z" fill="#5ac8f5" fill-opacity="0.5"/>
  <path d="M8.28857 17.7124C10.3638 17.7124 11.8042 16.4673 11.8042 14.7095C11.8042 13.4155 10.9009 12.3657 9.66797 12.2437L9.66797 12.1704C10.6812 11.9995 11.4746 10.9863 11.4746 9.83887C11.4746 8.27637 10.1929 7.18994 8.37402 7.18994C6.71387 7.18994 5.49316 8.12988 5.17578 9.32617C5.15137 9.48486 5.13916 9.60693 5.13916 9.76562C5.13916 10.2051 5.41992 10.5103 5.83496 10.5103C6.20117 10.5103 6.39648 10.3149 6.51855 9.92432C6.78711 9.06982 7.38525 8.59375 8.3374 8.59375C9.30176 8.59375 9.97314 9.17969 9.97314 10.0342C9.97314 10.9253 9.28955 11.5723 8.3252 11.5723L7.66602 11.5723C7.26318 11.5723 6.99463 11.853 6.99463 12.2925C6.99463 12.6831 7.26318 12.9883 7.66602 12.9883L8.37402 12.9883C9.53369 12.9883 10.2783 13.6475 10.2783 14.6362C10.2783 15.5884 9.47266 16.3086 8.30078 16.3086C7.33643 16.3086 6.66504 15.8325 6.34766 14.978C6.18896 14.5874 5.99365 14.3921 5.65186 14.3921C5.23682 14.3921 4.94385 14.6973 4.94385 15.1245C4.94385 15.2954 4.95605 15.4175 5.00488 15.5762C5.32227 16.6992 6.61621 17.7124 8.28857 17.7124ZM16.4062 17.7124C18.8354 17.7124 20.1416 15.7837 20.1416 12.1094C20.1416 8.91113 18.8232 7.18994 16.5405 7.18994C14.4897 7.18994 13.147 8.56934 13.147 10.7178C13.147 12.8174 14.5752 13.9893 16.1621 13.9893C17.5049 13.9893 18.2983 13.269 18.6279 12.439L18.7012 12.439C18.7256 14.8682 17.7856 16.3086 16.3818 16.3086C15.6738 16.3086 15.1245 15.9424 14.8193 15.4053C14.6362 15.0635 14.3921 14.9292 14.0747 14.9292C13.6963 14.9292 13.4277 15.2222 13.4277 15.6494C13.4277 15.7715 13.4766 15.9424 13.5254 16.0889C13.7207 16.7603 14.7217 17.7124 16.4062 17.7124ZM16.626 12.7319C15.4663 12.7319 14.6973 11.8652 14.6973 10.6445C14.6973 9.36279 15.4541 8.52051 16.6382 8.52051C17.7612 8.52051 18.5669 9.41162 18.5669 10.6689C18.5669 11.8652 17.7734 12.7319 16.626 12.7319Z" fill="#5ac8f5"/>
 </g>
</svg>
