<?xml version="1.0" encoding="UTF-8"?>
<!--Generator: Apple Native CoreSVG 175.5-->
<!DOCTYPE svg
PUBLIC "-//W3C//DTD SVG 1.1//EN"
       "http://www.w3.org/Graphics/SVG/1.1/DTD/svg11.dtd">
<svg version="1.1" xmlns="http://www.w3.org/2000/svg" xmlns:xlink="http://www.w3.org/1999/xlink" width="29.895" height="16.3452">
 <g>
  <rect height="16.3452" opacity="0" width="29.895" x="0" y="0"/>
  <path d="M3.83301 16.2109L26.062 16.2109C28.6133 16.2109 29.895 14.9414 29.895 12.4268L29.895 3.78418C29.895 1.26953 28.6133 0 26.062 0L3.83301 0C1.26953 0 0 1.25732 0 3.78418L0 12.4268C0 14.9536 1.26953 16.2109 3.83301 16.2109ZM3.85742 14.2456C2.63672 14.2456 1.96533 13.5864 1.96533 12.3291L1.96533 3.88184C1.96533 2.6123 2.63672 1.96533 3.85742 1.96533L26.0376 1.96533C27.2461 1.96533 27.9297 2.6123 27.9297 3.88184L27.9297 12.3291C27.9297 13.5864 27.2461 14.2456 26.0376 14.2456ZM4.69971 12.4268C5.15137 12.4146 5.50537 12.0605 5.50537 11.6333L5.50537 9.66797C5.50537 9.21631 5.13916 8.8623 4.69971 8.87451C4.26025 8.8623 3.90625 9.21631 3.90625 9.66797L3.90625 11.6211C3.90625 12.0728 4.24805 12.4146 4.69971 12.4268ZM7.65381 12.4268C8.10547 12.4146 8.44727 12.0605 8.44727 11.6333L8.44727 9.66797C8.44727 9.21631 8.09326 8.8623 7.65381 8.87451C7.21436 8.8623 6.84814 9.21631 6.84814 9.66797L6.84814 11.6211C6.84814 12.0728 7.20215 12.4146 7.65381 12.4268ZM10.8032 11.4502L15.7471 11.4502C16.1865 11.4502 16.5527 11.084 16.5527 10.6445C16.5527 10.2051 16.1865 9.85107 15.7471 9.85107L10.8032 9.85107C10.3638 9.85107 9.99756 10.2051 9.99756 10.6445C9.99756 11.084 10.3638 11.4502 10.8032 11.4502ZM24.7192 12.085C25.4761 12.0728 26.123 11.4258 26.123 10.6567C26.123 9.87549 25.4761 9.21631 24.7192 9.21631C23.938 9.21631 23.2788 9.87549 23.2788 10.6567C23.2788 11.4258 23.938 12.0972 24.7192 12.085Z" fill="#5ac8f5"/>
 </g>
</svg>
