<?xml version="1.0" encoding="UTF-8"?>
<!--Generator: Apple Native CoreSVG 175.5-->
<!DOCTYPE svg
PUBLIC "-//W3C//DTD SVG 1.1//EN"
       "http://www.w3.org/Graphics/SVG/1.1/DTD/svg11.dtd">
<svg version="1.1" xmlns="http://www.w3.org/2000/svg" xmlns:xlink="http://www.w3.org/1999/xlink" width="24.9023" height="24.9146">
 <g>
  <rect height="24.9146" opacity="0" width="24.9023" x="0" y="0"/>
  <path d="M12.4512 24.9146C19.2627 24.9146 24.9023 19.2749 24.9023 12.4634C24.9023 5.66406 19.2505 0.012207 12.439 0.012207C5.63965 0.012207 0 5.66406 0 12.4634C0 19.2749 5.65186 24.9146 12.4512 24.9146Z" fill="#5ac8f5" fill-opacity="0.25"/>
  <path d="M8.09326 17.8833L8.09326 7.05566C8.09326 5.98145 8.83789 5.26123 9.96094 5.26123L14.9658 5.26123C16.0889 5.26123 16.8335 5.98145 16.8335 7.05566L16.8335 17.8833C16.8335 18.9575 16.0889 19.6777 14.9658 19.6777L9.96094 19.6777C8.83789 19.6777 8.09326 18.9575 8.09326 17.8833ZM9.22852 17.3462L15.6982 17.3462L15.6982 7.59277L9.22852 7.59277ZM12.4756 18.9697C12.793 18.9697 13.0249 18.7012 13.0249 18.3838C13.0249 18.0786 12.793 17.8223 12.4756 17.8223C12.1582 17.8223 11.9019 18.0786 11.9019 18.3838C11.9019 18.7012 12.1582 18.9697 12.4756 18.9697ZM11.1694 6.48193C11.1694 6.64062 11.2915 6.73828 11.4258 6.73828L13.501 6.73828C13.6475 6.73828 13.7573 6.64062 13.7573 6.48193C13.7573 6.31104 13.6475 6.20117 13.501 6.20117L11.4258 6.20117C11.2915 6.20117 11.1694 6.31104 11.1694 6.48193Z" fill="#5ac8f5"/>
  <path d="M7.03125 14.6484C6.83594 14.8804 6.49414 14.8804 6.28662 14.624C5.81055 14.0259 5.52979 13.2812 5.52979 12.4634C5.52979 11.6577 5.81055 10.9009 6.28662 10.3149C6.49414 10.0586 6.83594 10.0464 7.03125 10.2783C7.20215 10.4858 7.14111 10.73 6.95801 10.9863C6.64062 11.3647 6.48193 11.9019 6.48193 12.4634C6.48193 13.0249 6.64062 13.5376 6.95801 13.9404C7.14111 14.1968 7.20215 14.4409 7.03125 14.6484ZM17.9077 14.6484C17.7368 14.4409 17.7979 14.1968 17.981 13.9404C18.2983 13.5376 18.4692 13.0249 18.4692 12.4634C18.4692 11.9019 18.2983 11.3647 17.981 10.9863C17.7979 10.73 17.7368 10.4858 17.9077 10.2783C18.103 10.0464 18.457 10.0586 18.6523 10.3149C19.1284 10.9009 19.4214 11.6577 19.4214 12.4634C19.4214 13.2812 19.1284 14.0259 18.6523 14.624C18.457 14.8804 18.103 14.8804 17.9077 14.6484Z" fill="#5ac8f5"/>
  <path d="M5.2124 16.1987C5.05371 16.4307 4.72412 16.4307 4.47998 16.1865C3.56445 15.1978 3.07617 13.8672 3.07617 12.4634C3.07617 11.0718 3.56445 9.74121 4.47998 8.74023C4.72412 8.49609 5.05371 8.49609 5.2124 8.72803C5.39551 8.93555 5.34668 9.19189 5.13916 9.43604C4.39453 10.2661 4.00391 11.3159 4.00391 12.4634C4.00391 13.6108 4.39453 14.6606 5.13916 15.4907C5.34668 15.7349 5.39551 16.0034 5.2124 16.1987ZM19.7266 16.1987C19.5435 16.0034 19.5923 15.7349 19.812 15.4907C20.5444 14.6606 20.9473 13.6108 20.9473 12.4634C20.9473 11.3159 20.5444 10.2661 19.812 9.43604C19.5923 9.19189 19.5435 8.93555 19.7266 8.72803C19.8975 8.49609 20.2271 8.49609 20.459 8.74023C21.3745 9.74121 21.875 11.0718 21.875 12.4634C21.875 13.8672 21.3745 15.1978 20.459 16.1865C20.2271 16.4307 19.8975 16.4307 19.7266 16.1987Z" fill="#5ac8f5"/>
 </g>
</svg>
