<?xml version="1.0" encoding="UTF-8"?>
<!--Generator: Apple Native CoreSVG 175.5-->
<!DOCTYPE svg
PUBLIC "-//W3C//DTD SVG 1.1//EN"
       "http://www.w3.org/Graphics/SVG/1.1/DTD/svg11.dtd">
<svg version="1.1" xmlns="http://www.w3.org/2000/svg" xmlns:xlink="http://www.w3.org/1999/xlink" width="24.9023" height="24.9146">
 <g>
  <rect height="24.9146" opacity="0" width="24.9023" x="0" y="0"/>
  <path d="M12.4512 24.9023C19.2627 24.9023 24.9023 19.2505 24.9023 12.4512C24.9023 5.63965 19.2505 0 12.439 0C5.63965 0 0 5.63965 0 12.4512C0 19.2505 5.65186 24.9023 12.4512 24.9023Z" fill="#5ac8f5" fill-opacity="0.25"/>
  <path d="M12.3291 18.3594C10.0342 18.3594 8.5083 17.2485 8.05664 16.0522C7.94678 15.8203 7.91016 15.6128 7.91016 15.4175C7.91016 14.8682 8.26416 14.5142 8.82568 14.5142C9.27734 14.5142 9.5459 14.7339 9.77783 15.1978C10.2173 16.1987 11.1328 16.7114 12.4512 16.7114C13.8306 16.7114 14.8926 16.1011 14.8926 14.9902C14.8926 14.1113 14.3799 13.7329 12.8906 13.3179L11.0596 12.793C9.10645 12.2559 8.08105 11.3525 8.08105 9.76562C8.08105 7.75146 9.87549 6.32324 12.4512 6.32324C14.5874 6.32324 16.1011 7.2998 16.5649 8.64258C16.6626 8.8623 16.6992 9.08203 16.6992 9.24072C16.6992 9.82666 16.3208 10.1196 15.7959 10.1196C15.3198 10.1196 15.0513 9.8877 14.8682 9.47266C14.4409 8.42285 13.6475 7.92236 12.3779 7.92236C11.0474 7.92236 10.1807 8.59375 10.1807 9.64355C10.1807 10.4126 10.6812 10.8765 11.8896 11.1938L13.5742 11.6455C15.7837 12.2314 17.0044 13.1592 17.0044 14.8193C17.0044 16.9922 15.1489 18.3594 12.3291 18.3594Z" fill="#5ac8f5"/>
 </g>
</svg>
