<?xml version="1.0" encoding="UTF-8"?>
<!--Generator: Apple Native CoreSVG 175.5-->
<!DOCTYPE svg
PUBLIC "-//W3C//DTD SVG 1.1//EN"
       "http://www.w3.org/Graphics/SVG/1.1/DTD/svg11.dtd">
<svg version="1.1" xmlns="http://www.w3.org/2000/svg" xmlns:xlink="http://www.w3.org/1999/xlink" width="27.6855" height="25.4517">
 <g>
  <rect height="25.4517" opacity="0" width="27.6855" x="0" y="0"/>
  <path d="M4.83398 25.4517C6.29883 25.4517 9.94873 23.8525 12.0239 22.3633C12.2314 22.2168 12.4023 22.1558 12.5732 22.1558C12.7319 22.168 12.8906 22.1802 13.0493 22.1802C21.8506 22.1802 27.6855 17.1753 27.6855 11.0962C27.6855 4.95605 21.5332 0 13.8428 0C6.15234 0 0 4.95605 0 11.0962C0 15.0024 2.40479 18.4326 6.32324 20.5322C6.50635 20.6299 6.56738 20.813 6.46973 20.9961C5.78613 22.1191 4.56543 23.4619 4.10156 24.0723C3.62549 24.6826 3.89404 25.4517 4.83398 25.4517ZM13.855 17.5049C13.3057 17.5049 12.9028 17.1143 12.9028 16.5649L12.9028 10.2905L13.0127 7.62939L11.7554 9.13086L10.2661 10.6323C10.0952 10.8154 9.85107 10.9131 9.59473 10.9131C9.06982 10.9131 8.6792 10.5225 8.6792 9.99756C8.6792 9.74121 8.75244 9.52148 8.92334 9.33838L13.1226 5.16357C13.3789 4.90723 13.5864 4.79736 13.855 4.79736C14.1479 4.79736 14.3555 4.91943 14.5996 5.16357L18.7866 9.33838C18.9575 9.52148 19.0552 9.74121 19.0552 9.99756C19.0552 10.5225 18.6523 10.9131 18.1274 10.9131C17.8589 10.9131 17.627 10.8276 17.4561 10.6323L15.979 9.13086L14.6973 7.60498L14.8071 10.2905L14.8071 16.5649C14.8071 17.1143 14.4165 17.5049 13.855 17.5049Z" fill="#5ac8f5"/>
 </g>
</svg>
