<?xml version="1.0" encoding="UTF-8"?>
<!--Generator: Apple Native CoreSVG 175.5-->
<!DOCTYPE svg
PUBLIC "-//W3C//DTD SVG 1.1//EN"
       "http://www.w3.org/Graphics/SVG/1.1/DTD/svg11.dtd">
<svg version="1.1" xmlns="http://www.w3.org/2000/svg" xmlns:xlink="http://www.w3.org/1999/xlink" width="35.1812" height="18.2983">
 <g>
  <rect height="18.2983" opacity="0" width="35.1812" x="0" y="0"/>
  <path d="M1.00113 18.2983L2.58804 18.2983C3.32047 18.2983 3.68668 17.9443 3.8942 17.4194L10.6325 0.78125C10.8034 0.378418 10.6081 0.0244141 10.1808 0.0244141L9.38736 0.0244141C8.96011 0.0244141 8.69156 0.231934 8.50845 0.598145L0.146638 16.9434C-0.195159 17.5659 0.0489813 18.2983 1.00113 18.2983ZM32.5929 18.2983L34.192 18.2983C35.132 18.2983 35.3761 17.5659 35.0343 16.9434L26.6847 0.598145C26.4894 0.231934 26.2209 0.0244141 25.7936 0.0244141L25.0002 0.0244141C24.5729 0.0244141 24.3898 0.378418 24.5485 0.78125L31.2868 17.4194C31.4943 17.9443 31.8605 18.2983 32.5929 18.2983Z" fill="#5ac8f5" fill-opacity="0.5"/>
  <path d="M9.83902 14.2578C9.83902 14.7339 10.2174 15.1123 10.6935 15.1123L11.4626 15.1123C11.9508 15.1123 12.317 14.7339 12.317 14.2578L12.317 13.3179L22.693 13.3179L22.693 14.2578C22.693 14.7339 23.0714 15.1123 23.5597 15.1123L24.3166 15.1123C24.8048 15.1123 25.1833 14.7339 25.1833 14.2578L25.1833 9.92432C25.1833 8.83789 25.0246 8.17871 24.3532 7.44629L23.7062 6.73828L23.0226 4.78516C22.6564 3.72314 21.9362 3.28369 21.0329 3.17383C20.6056 3.125 19.1896 3.08838 17.505 3.08838C15.8327 3.08838 14.4167 3.125 13.9772 3.17383C13.0739 3.28369 12.3659 3.72314 11.9875 4.78516L11.3161 6.73828L10.6569 7.44629C9.9855 8.17871 9.83902 8.83789 9.83902 9.92432ZM13.0861 6.7749C12.7809 6.7749 12.6711 6.54297 12.7687 6.26221L13.1715 5.05371C13.318 4.60205 13.5622 4.45557 13.9528 4.40674C14.4045 4.3457 15.6618 4.29688 17.505 4.29688C19.3605 4.29688 20.6056 4.3457 21.0573 4.40674C21.4479 4.45557 21.692 4.60205 21.8385 5.05371L22.2536 6.26221C22.3512 6.54297 22.2292 6.7749 21.924 6.7749ZM12.1828 10.8276C11.7799 10.8276 11.487 10.5347 11.487 10.1318L11.487 9.11865C11.487 8.72803 11.7799 8.43506 12.1828 8.43506C12.5856 8.43506 12.8786 8.71582 12.8786 9.11865L12.8786 10.1318C12.8786 10.5347 12.5856 10.8276 12.1828 10.8276ZM16.028 10.5103C15.7106 10.5103 15.5031 10.3027 15.5031 9.96094L15.5031 9.30176C15.5031 8.95996 15.7106 8.75244 16.028 8.75244L18.9577 8.75244C19.2873 8.75244 19.4948 8.95996 19.4948 9.30176L19.4948 9.96094C19.4948 10.3027 19.2873 10.5103 18.9577 10.5103ZM22.8883 10.8276C22.5099 10.8276 22.2047 10.5225 22.2047 10.1318L22.2047 9.11865C22.2047 8.72803 22.5099 8.43506 22.8883 8.43506C23.2912 8.43506 23.5841 8.71582 23.5841 9.11865L23.5841 10.1318C23.5841 10.5347 23.2912 10.8276 22.8883 10.8276Z" fill="#5ac8f5"/>
 </g>
</svg>
