<?xml version="1.0" encoding="UTF-8"?>
<!--Generator: Apple Native CoreSVG 175.5-->
<!DOCTYPE svg
PUBLIC "-//W3C//DTD SVG 1.1//EN"
       "http://www.w3.org/Graphics/SVG/1.1/DTD/svg11.dtd">
<svg version="1.1" xmlns="http://www.w3.org/2000/svg" xmlns:xlink="http://www.w3.org/1999/xlink" width="24.9023" height="24.9146">
 <g>
  <rect height="24.9146" opacity="0" width="24.9023" x="0" y="0"/>
  <path d="M12.4512 24.9023C19.2627 24.9023 24.9023 19.2505 24.9023 12.4512C24.9023 5.63965 19.2505 0 12.439 0C5.63965 0 0 5.63965 0 12.4512C0 19.2505 5.65186 24.9023 12.4512 24.9023ZM7.83691 16.3696C6.88477 16.3696 6.01807 16.2842 5.3833 15.6738C4.78516 15.0513 4.6875 14.1846 4.6875 13.2568L4.6875 11.6455C4.6875 10.7178 4.78516 9.85107 5.3833 9.22852C6.01807 8.61816 6.89697 8.52051 7.83691 8.52051L16.2964 8.52051C17.2241 8.52051 18.103 8.61816 18.7134 9.22852C19.3237 9.85107 19.4336 10.7178 19.4336 11.6455L19.4336 13.2568C19.4336 14.1846 19.3237 15.0513 18.7134 15.6738C18.103 16.2842 17.2363 16.3696 16.2964 16.3696ZM7.66602 14.9658L16.4551 14.9658C17.0532 14.9658 17.4805 14.856 17.7002 14.6362C17.8955 14.4409 18.0298 14.0137 18.0298 13.4033L18.0298 11.4868C18.0298 10.8887 17.8955 10.4614 17.7002 10.2661C17.4805 10.0342 17.041 9.92432 16.4551 9.92432L7.66602 9.92432C7.06787 9.92432 6.64062 10.0342 6.4209 10.2539C6.21338 10.4492 6.12793 10.8643 6.12793 11.4868L6.12793 13.4033C6.12793 14.0259 6.21338 14.4409 6.4209 14.6362C6.64062 14.856 7.05566 14.9658 7.66602 14.9658ZM7.72705 14.2212C7.39746 14.2212 7.17773 14.1846 7.04346 14.0503C6.92139 13.916 6.86035 13.7085 6.86035 13.3667L6.86035 11.5112C6.86035 11.1694 6.92139 10.9741 7.04346 10.8276C7.17773 10.7056 7.39746 10.6567 7.72705 10.6567L16.4062 10.6567C16.748 10.6567 16.9434 10.7056 17.0776 10.8276C17.2241 10.9741 17.2852 11.1816 17.2852 11.5112L17.2852 13.3667C17.2852 13.6963 17.2241 13.9038 17.0776 14.0503C16.9434 14.1846 16.748 14.2212 16.4062 14.2212ZM19.9829 13.9404L19.9829 10.9619C20.4224 10.9985 21.0449 11.5845 21.0449 12.4512C21.0449 13.3179 20.4224 13.9038 19.9829 13.9404Z" fill="#5ac8f5"/>
 </g>
</svg>
