<?xml version="1.0" encoding="UTF-8"?>
<!--Generator: Apple Native CoreSVG 175.5-->
<!DOCTYPE svg
PUBLIC "-//W3C//DTD SVG 1.1//EN"
       "http://www.w3.org/Graphics/SVG/1.1/DTD/svg11.dtd">
<svg version="1.1" xmlns="http://www.w3.org/2000/svg" xmlns:xlink="http://www.w3.org/1999/xlink" width="24.9023" height="24.9146">
 <g>
  <rect height="24.9146" opacity="0" width="24.9023" x="0" y="0"/>
  <path d="M12.4512 24.9023C19.2627 24.9023 24.9023 19.2505 24.9023 12.4512C24.9023 5.63965 19.2505 0 12.439 0C5.63965 0 0 5.63965 0 12.4512C0 19.2505 5.65186 24.9023 12.4512 24.9023ZM12.4512 22.8271C6.68945 22.8271 2.0874 18.2129 2.0874 12.4512C2.0874 6.68945 6.67725 2.0752 12.439 2.0752C18.2007 2.0752 22.8271 6.68945 22.8271 12.4512C22.8271 18.2129 18.2129 22.8271 12.4512 22.8271Z" fill="#5ac8f5" fill-opacity="0.5"/>
  <path d="M6.31104 17.4316L11.3525 17.4316C11.7432 17.4316 12.0361 17.1387 12.0361 16.6992C12.0361 16.2476 11.7432 15.9912 11.3525 15.9912L7.8125 15.9912L7.8125 15.9058L10.2051 13.1226C11.1084 12.0728 11.7798 11.1938 11.7798 9.97314C11.7798 8.27637 10.5347 7.18994 8.61816 7.18994C7.16553 7.18994 5.87158 8.11768 5.5542 9.36279C5.52979 9.52148 5.50537 9.65576 5.50537 9.80225C5.50537 10.2417 5.76172 10.5347 6.17676 10.5347C6.53076 10.5347 6.71387 10.3271 6.87256 9.96094C7.18994 9.04541 7.80029 8.59375 8.6792 8.59375C9.66797 8.59375 10.3027 9.2041 10.3027 10.1074C10.3027 10.9009 9.66797 11.5845 9.08203 12.2681L5.85938 16.0522C5.67627 16.2598 5.59082 16.4673 5.59082 16.7114C5.59082 17.1509 5.87158 17.4316 6.31104 17.4316ZM15.1855 17.5781C15.5151 17.5781 15.7471 17.395 15.9668 16.98L19.7754 9.36279C19.9585 8.97217 20.0073 8.75244 20.0073 8.49609C20.0073 7.89795 19.5801 7.43408 18.9209 7.43408L13.9893 7.43408C13.5742 7.43408 13.2935 7.71484 13.2935 8.12988C13.2935 8.53271 13.5742 8.80127 13.9893 8.80127L18.2861 8.80127L18.2861 8.89893L14.502 16.2231C14.3921 16.4062 14.3677 16.5527 14.3677 16.7847C14.3677 17.2485 14.7217 17.5781 15.1855 17.5781Z" fill="#5ac8f5"/>
 </g>
</svg>
