<?xml version="1.0" encoding="UTF-8"?>
<!--Generator: Apple Native CoreSVG 175.5-->
<!DOCTYPE svg
PUBLIC "-//W3C//DTD SVG 1.1//EN"
       "http://www.w3.org/Graphics/SVG/1.1/DTD/svg11.dtd">
<svg version="1.1" xmlns="http://www.w3.org/2000/svg" xmlns:xlink="http://www.w3.org/1999/xlink" width="24.9023" height="24.9146">
 <g>
  <rect height="24.9146" opacity="0" width="24.9023" x="0" y="0"/>
  <path d="M12.4512 24.9023C19.2627 24.9023 24.9023 19.2505 24.9023 12.4512C24.9023 5.63965 19.2505 0 12.439 0C5.63965 0 0 5.63965 0 12.4512C0 19.2505 5.65186 24.9023 12.4512 24.9023ZM8.49609 9.32617C9.05762 9.32617 9.42383 9.70459 9.42383 10.3149L9.42383 12.4756L9.24072 14.4409L11.0596 12.5L15.6616 7.88574C15.8447 7.70264 16.0889 7.59277 16.394 7.59277C16.9434 7.59277 17.3218 7.95898 17.3218 8.53271C17.3218 8.77686 17.1997 9.0332 17.0166 9.21631L12.3901 13.8184L10.4248 15.6616L12.2925 15.4663L14.563 15.4663C15.1733 15.4663 15.564 15.8325 15.564 16.3818C15.564 16.9434 15.1855 17.3096 14.5874 17.3096L8.63037 17.3096C7.9834 17.3096 7.56836 17.0166 7.56836 16.272L7.56836 10.3394C7.56836 9.74121 7.94678 9.32617 8.49609 9.32617Z" fill="#5ac8f5"/>
 </g>
</svg>
