<?xml version="1.0" encoding="UTF-8"?>
<!--Generator: Apple Native CoreSVG 175.5-->
<!DOCTYPE svg
PUBLIC "-//W3C//DTD SVG 1.1//EN"
       "http://www.w3.org/Graphics/SVG/1.1/DTD/svg11.dtd">
<svg version="1.1" xmlns="http://www.w3.org/2000/svg" xmlns:xlink="http://www.w3.org/1999/xlink" width="24.8305" height="22.9059">
 <g>
  <rect height="22.9059" opacity="0" width="24.8305" x="0" y="0"/>
  <path d="M0.2701 14.7305C0.648518 15.1089 1.21004 15.0967 1.57625 14.7305L3.72469 12.5821C11.2198 5.08696 15.4801 0.729053 16.9815 2.21831C18.0313 3.26812 15.4556 6.23442 12.2818 9.98198C8.97371 13.8882 5.32381 17.941 7.80184 20.4312C9.95028 22.5918 13.4293 19.8331 16.6641 16.6958C19.1178 14.3155 21.0221 12.4722 21.669 13.107C22.2183 13.6563 21.4371 14.7427 20.5094 16.3418C19.3375 18.3682 17.8482 20.5411 19.2642 21.9571C20.3507 23.0435 22.1939 22.4087 24.4644 20.0772C24.9283 19.6255 24.9405 19.064 24.5621 18.6856C24.1837 18.3194 23.6344 18.3316 23.2559 18.6978C21.4859 20.3458 20.7291 20.7974 20.4361 20.5044C20.0943 20.1626 20.5826 19.4302 21.8888 17.2818C23.5367 14.584 24.1348 12.9727 23.0118 11.8497C21.4737 10.2994 19.191 11.7032 15.3458 15.3653C11.5738 18.9419 9.90145 19.9063 9.10799 19.125C8.14364 18.1851 9.41317 16.0611 13.6612 11.1783C18.422 5.68511 20.2652 2.8897 18.2755 0.912158C15.8219-1.52925 13.0875 0.606982 2.43074 11.2759L0.2701 13.4244C-0.096111 13.7906-0.0839039 14.3521 0.2701 14.7305Z" fill="#5ac8f5"/>
 </g>
</svg>
