<?xml version="1.0" encoding="UTF-8"?>
<!--Generator: Apple Native CoreSVG 175.5-->
<!DOCTYPE svg
PUBLIC "-//W3C//DTD SVG 1.1//EN"
       "http://www.w3.org/Graphics/SVG/1.1/DTD/svg11.dtd">
<svg version="1.1" xmlns="http://www.w3.org/2000/svg" xmlns:xlink="http://www.w3.org/1999/xlink" width="19.9352" height="25.6958">
 <g>
  <rect height="25.6958" opacity="0" width="19.9352" x="0" y="0"/>
  <path d="M11.3049 25.6836C16.4684 25.6836 19.9352 22.2168 19.9352 16.5039L19.9352 13.8306C19.9352 11.0229 18.6047 9.375 16.3342 9.35059C16.0534 8.44727 15.3088 7.91016 14.2956 7.91016C13.9294 7.91016 13.5754 7.97119 13.2214 8.09326C12.9162 7.10449 12.1105 6.50635 11.0485 6.50635C10.7678 6.50635 10.4748 6.54297 10.1818 6.62842L10.1818 2.56348C10.1818 1.02539 9.15643 0 7.716 0C6.26336 0 5.22576 1.02539 5.22576 2.56348L5.22576 12.7441C5.22576 12.8174 5.20135 12.854 5.14031 12.854C5.09149 12.854 5.05486 12.8296 5.03045 12.7686L4.22479 10.8276C3.80975 9.87549 3.10174 9.36279 2.23504 9.36279C1.03875 9.36279 0.00115351 10.1196 0.00115351 11.4502C-0.0110535 11.8286 0.0743957 12.3169 0.22088 12.7319L2.36932 18.7744C3.99285 23.3521 7.00799 25.6836 11.3049 25.6836ZM11.3659 23.999C7.96014 23.999 5.34783 22.4243 3.85858 18.2495L1.69793 12.2314C1.6369 12.0483 1.60027 11.8896 1.60027 11.6699C1.60027 11.2549 1.91766 10.8887 2.40594 10.8887C2.82098 10.8887 3.06512 11.1328 3.23602 11.5479L4.90838 15.2588C5.17693 15.8813 5.54315 16.0767 5.9826 16.0767C6.49529 16.0767 6.8493 15.6616 6.8493 15.1123L6.8493 2.45361C6.8493 1.94092 7.21551 1.57471 7.716 1.57471C8.21649 1.57471 8.55828 1.94092 8.55828 2.45361L8.55828 11.4868C8.55828 11.9141 8.92449 12.2437 9.33953 12.2437C9.76678 12.2437 10.1086 11.9141 10.1086 11.4868L10.1086 8.23975C10.3161 8.14209 10.5969 8.06885 10.841 8.06885C11.4513 8.06885 11.8176 8.47168 11.8176 9.11865L11.8176 11.9507C11.8176 12.4023 12.1838 12.7075 12.5988 12.7075C13.0016 12.7075 13.3679 12.4023 13.3679 11.9507L13.3679 9.64355C13.5754 9.5459 13.8561 9.48486 14.0881 9.48486C14.6984 9.48486 15.0646 9.87549 15.0646 10.5225L15.0646 12.4268C15.0646 12.8662 15.443 13.1714 15.8581 13.1714C16.2487 13.1714 16.6149 12.8662 16.6149 12.4268L16.6149 11.0229C17.7013 11.0229 18.3239 12.1338 18.3239 14.0747L18.3239 16.3086C18.3239 21.2158 15.6872 23.999 11.3659 23.999Z" fill="#5ac8f5"/>
 </g>
</svg>
