<?xml version="1.0" encoding="UTF-8"?>
<!--Generator: Apple Native CoreSVG 175.5-->
<!DOCTYPE svg
PUBLIC "-//W3C//DTD SVG 1.1//EN"
       "http://www.w3.org/Graphics/SVG/1.1/DTD/svg11.dtd">
<svg version="1.1" xmlns="http://www.w3.org/2000/svg" xmlns:xlink="http://www.w3.org/1999/xlink" width="30.188" height="21.1548">
 <g>
  <rect height="21.1548" opacity="0" width="30.188" x="0" y="0"/>
  <path d="M0 16.1987C0 16.7603 0.219727 17.1143 0.708008 17.3462C2.06299 18.0176 2.81982 18.7866 3.66211 20.4468C3.91846 20.8984 4.29688 21.1304 4.79736 21.1304L25.3906 21.1304C25.8789 21.1304 26.2573 20.8984 26.5137 20.4468C27.356 18.7866 28.1128 18.0176 29.48 17.3462C29.9683 17.1143 30.188 16.7603 30.188 16.1987L30.188 4.94385C30.188 4.37012 29.9683 4.01611 29.48 3.79639C28.1128 3.125 27.356 2.34375 26.5137 0.695801C26.2573 0.231934 25.8789 0 25.3906 0L4.79736 0C4.29688 0 3.91846 0.231934 3.66211 0.695801C2.81982 2.34375 2.06299 3.125 0.708008 3.79639C0.219727 4.01611 0 4.37012 0 4.94385ZM5.01709 16.1377L5.01709 5.00488C5.01709 4.3457 5.46875 3.89404 6.12793 3.89404L24.0479 3.89404C24.7192 3.89404 25.1587 4.3457 25.1587 5.00488L25.1587 16.1377C25.1587 16.8091 24.7192 17.2485 24.0479 17.2485L6.12793 17.2485C5.46875 17.2485 5.01709 16.8091 5.01709 16.1377ZM6.56738 7.84912L8.20312 7.84912L8.20312 5.41992L6.83594 5.41992C6.65283 5.41992 6.56738 5.52979 6.56738 5.70068ZM6.56738 11.7798L8.20312 11.7798L8.20312 9.375L6.56738 9.375ZM6.56738 15.4419C6.56738 15.625 6.65283 15.7227 6.83594 15.7227L8.20312 15.7227L8.20312 13.3057L6.56738 13.3057ZM21.9849 7.84912L23.6206 7.84912L23.6206 5.70068C23.6206 5.52979 23.5352 5.41992 23.3521 5.41992L21.9849 5.41992ZM21.9849 11.7798L23.6206 11.7798L23.6206 9.375L21.9849 9.375ZM21.9849 15.7227L23.3521 15.7227C23.5352 15.7227 23.6206 15.625 23.6206 15.4419L23.6206 13.3057L21.9849 13.3057ZM9.74121 15.7227L20.4468 15.7227L20.4468 5.41992L9.74121 5.41992Z" fill="#5ac8f5"/>
 </g>
</svg>
