<?xml version="1.0" encoding="UTF-8"?>
<!--Generator: Apple Native CoreSVG 175.5-->
<!DOCTYPE svg
PUBLIC "-//W3C//DTD SVG 1.1//EN"
       "http://www.w3.org/Graphics/SVG/1.1/DTD/svg11.dtd">
<svg version="1.1" xmlns="http://www.w3.org/2000/svg" xmlns:xlink="http://www.w3.org/1999/xlink" width="32.1423" height="26.6479">
 <g>
  <rect height="26.6479" opacity="0" width="32.1423" x="0" y="0"/>
  <path d="M9.86153 26.6479L22.2761 26.6479C24.5344 26.6479 25.633 25.5615 25.6696 23.3154L25.8283 11.3281L28.819 12.0117C29.9543 12.2681 30.6867 11.8042 30.9675 10.6323L32.0539 6.29883C32.3469 5.13916 31.9074 4.3335 30.7966 3.86963L22.2028 0.20752C21.7146-0.012207 21.2629 0 20.8112 0.219727C19.1999 0.98877 17.8938 1.37939 16.0749 1.37939C14.2438 1.37939 12.9377 0.98877 11.3264 0.219727C10.8747 0 10.423-0.012207 9.93477 0.20752L1.34102 3.86963C0.230178 4.3335-0.197068 5.13916 0.0836937 6.29883L1.17012 10.6323C1.45088 11.8042 2.1833 12.2681 3.31856 12.0117L6.32149 11.3281L6.46797 23.3154C6.50459 25.5615 7.60322 26.6479 9.86153 26.6479ZM16.0749 5.18799C13.9875 5.18799 12.5227 4.11377 11.9001 2.34375C13.1818 2.83203 14.6223 3.10059 16.0749 3.10059C17.5153 3.10059 18.968 2.83203 20.2375 2.34375C19.6272 4.08936 18.1867 5.18799 16.0749 5.18799Z" fill="#5ac8f5"/>
 </g>
</svg>
