<?xml version="1.0" encoding="UTF-8"?>
<!--Generator: Apple Native CoreSVG 175.5-->
<!DOCTYPE svg
PUBLIC "-//W3C//DTD SVG 1.1//EN"
       "http://www.w3.org/Graphics/SVG/1.1/DTD/svg11.dtd">
<svg version="1.1" xmlns="http://www.w3.org/2000/svg" xmlns:xlink="http://www.w3.org/1999/xlink" width="22.4731" height="22.4976">
 <g>
  <rect height="22.4976" opacity="0" width="22.4731" x="0" y="0"/>
  <path d="M3.83301 22.4976L18.6401 22.4976C21.2036 22.4976 22.4731 21.228 22.4731 18.7134L22.4731 3.80859C22.4731 1.29395 21.2036 0.0244141 18.6401 0.0244141L3.83301 0.0244141C1.28174 0.0244141 0 1.28174 0 3.80859L0 18.7134C0 21.2402 1.28174 22.4976 3.83301 22.4976ZM7.84912 16.5161C7.37305 16.5161 7.06787 16.1987 7.06787 15.7104L7.06787 7.89795L6.99463 7.89795L5.66406 8.88672C5.37109 9.11865 5.24902 9.13086 5.0415 9.13086C4.67529 9.13086 4.32129 8.80127 4.32129 8.37402C4.32129 8.04443 4.47998 7.8125 4.74854 7.62939L6.65283 6.32324C7.10449 6.01807 7.34863 5.896 7.76367 5.896C8.28857 5.896 8.65479 6.27441 8.65479 6.79932L8.65479 15.7104C8.65479 16.1987 8.3374 16.5161 7.84912 16.5161ZM14.5142 16.6748C12.3535 16.6748 10.9131 14.5996 10.9131 11.2427C10.9131 7.88574 12.3535 5.81055 14.5142 5.81055C16.687 5.81055 18.1152 7.88574 18.1152 11.2427C18.1152 14.5996 16.687 16.6748 14.5142 16.6748ZM14.5142 15.1367C15.7227 15.1367 16.4673 13.6597 16.4673 11.2427C16.4673 8.82568 15.7104 7.34863 14.5142 7.34863C13.3301 7.34863 12.5732 8.82568 12.5732 11.2427C12.5732 13.6597 13.3301 15.1367 14.5142 15.1367Z" fill="#5ac8f5"/>
 </g>
</svg>
