<?xml version="1.0" encoding="UTF-8"?>
<!--Generator: Apple Native CoreSVG 175.5-->
<!DOCTYPE svg
PUBLIC "-//W3C//DTD SVG 1.1//EN"
       "http://www.w3.org/Graphics/SVG/1.1/DTD/svg11.dtd">
<svg version="1.1" xmlns="http://www.w3.org/2000/svg" xmlns:xlink="http://www.w3.org/1999/xlink" width="28.7842" height="28.2593">
 <g>
  <rect height="28.2593" opacity="0" width="28.7842" x="0" y="0"/>
  <path d="M3.83301 27.002L24.9512 27.002C27.5146 27.002 28.7842 25.7324 28.7842 23.2178L28.7842 15.9912C28.7842 14.8804 28.6377 14.3311 28.0884 13.6719L23.877 8.44727C22.4487 6.68945 21.5698 5.66406 19.4092 5.66406L17.6147 5.66406L17.6147 7.38525L19.5435 7.38525C20.4346 7.38525 21.3623 8.1665 21.9604 8.92334L26.2939 14.3799C26.7822 15.0024 26.6113 15.2466 25.9399 15.2466L18.1641 15.2466C17.5293 15.2466 17.2363 15.7349 17.2363 16.2354L17.2363 16.2842C17.2363 17.7002 16.1255 19.1895 14.3921 19.1895C12.6709 19.1895 11.5601 17.7002 11.5601 16.2842L11.5601 16.2354C11.5601 15.7349 11.2549 15.2466 10.6201 15.2466L2.86865 15.2466C2.16064 15.2466 2.02637 14.9658 2.50244 14.3799L6.82373 8.92334C7.42188 8.1665 8.34961 7.38525 9.24072 7.38525L11.1816 7.38525L11.1816 5.66406L9.38721 5.66406C7.21436 5.66406 6.34766 6.68945 4.91943 8.44727L0.695801 13.6719C0.158691 14.3311 0 14.8804 0 15.9912L0 23.2178C0 25.7324 1.28174 27.002 3.83301 27.002ZM3.85742 25.0366C2.63672 25.0366 1.96533 24.3774 1.96533 23.1079L1.96533 17.041L9.70459 17.041C9.99756 19.3237 11.9141 21.0083 14.3921 21.0083C16.8701 21.0083 18.7866 19.3115 19.0796 17.041L26.8188 17.041L26.8188 23.1079C26.8188 24.3774 26.1353 25.0366 24.9268 25.0366ZM14.3921 15.1001C14.6484 15.1001 14.856 15.0269 15.1001 14.7827L19.2261 10.8032C19.4092 10.6201 19.5068 10.4126 19.5068 10.1562C19.5068 9.65576 19.1284 9.30176 18.6279 9.30176C18.3838 9.30176 18.1274 9.39941 17.9565 9.59473L16.1133 11.5601L15.2832 12.4268L15.3687 10.5957L15.3687 0.939941C15.3687 0.427246 14.917 0 14.3921 0C13.8672 0 13.4277 0.427246 13.4277 0.939941L13.4277 10.5957L13.501 12.4268L12.6709 11.5601L10.8276 9.59473C10.6445 9.39941 10.3882 9.30176 10.144 9.30176C9.64355 9.30176 9.27734 9.65576 9.27734 10.1562C9.27734 10.4126 9.375 10.6201 9.55811 10.8032L13.6841 14.7827C13.9282 15.0269 14.1479 15.1001 14.3921 15.1001Z" fill="#5ac8f5"/>
 </g>
</svg>
