<?xml version="1.0" encoding="UTF-8"?>
<!--Generator: Apple Native CoreSVG 175.5-->
<!DOCTYPE svg
PUBLIC "-//W3C//DTD SVG 1.1//EN"
       "http://www.w3.org/Graphics/SVG/1.1/DTD/svg11.dtd">
<svg version="1.1" xmlns="http://www.w3.org/2000/svg" xmlns:xlink="http://www.w3.org/1999/xlink" width="24.9023" height="24.9146">
 <g>
  <rect height="24.9146" opacity="0" width="24.9023" x="0" y="0"/>
  <path d="M12.4512 24.9023C19.2627 24.9023 24.9023 19.2505 24.9023 12.4512C24.9023 5.63965 19.2505 0 12.439 0C5.63965 0 0 5.63965 0 12.4512C0 19.2505 5.65186 24.9023 12.4512 24.9023ZM7.18994 17.6636C5.93262 17.6636 5.28564 17.041 5.28564 15.7715L5.28564 11.0962L19.6167 11.0962L19.6167 15.7715C19.6167 17.041 18.9697 17.6636 17.7124 17.6636ZM7.77588 15.7715L9.27734 15.7715C9.63135 15.7715 9.87549 15.5396 9.87549 15.1978L9.87549 14.0625C9.87549 13.7207 9.63135 13.4888 9.27734 13.4888L7.77588 13.4888C7.43408 13.4888 7.18994 13.7207 7.18994 14.0625L7.18994 15.1978C7.18994 15.5396 7.43408 15.7715 7.77588 15.7715ZM5.28564 9.70459L5.28564 9.14307C5.28564 7.87354 5.93262 7.26318 7.18994 7.26318L17.7124 7.26318C18.9697 7.26318 19.6167 7.88574 19.6167 9.14307L19.6167 9.70459Z" fill="#5ac8f5"/>
 </g>
</svg>
