<?xml version="1.0" encoding="UTF-8"?>
<!--Generator: Apple Native CoreSVG 175.5-->
<!DOCTYPE svg
PUBLIC "-//W3C//DTD SVG 1.1//EN"
       "http://www.w3.org/Graphics/SVG/1.1/DTD/svg11.dtd">
<svg version="1.1" xmlns="http://www.w3.org/2000/svg" xmlns:xlink="http://www.w3.org/1999/xlink" width="29.541" height="12.3413">
 <g>
  <rect height="12.3413" opacity="0" width="29.541" x="0" y="0"/>
  <path d="M0 9.70459C0 11.145 0.866699 12.3413 2.39258 12.3413C2.68555 12.3413 3.13721 12.3169 3.77197 12.207L8.09326 11.5601C9.87549 11.3037 10.3638 10.5713 10.3638 9.04541C10.3638 8.58154 10.3638 8.14209 10.376 7.67822C10.376 7.2998 10.5469 7.14111 10.8276 7.06787C12.6221 6.66504 16.9189 6.66504 18.7134 7.06787C18.9941 7.14111 19.165 7.2998 19.165 7.67822C19.1772 8.14209 19.1772 8.58154 19.1772 9.04541C19.1772 10.5713 19.6655 11.3037 21.4478 11.5601L25.769 12.207C26.4038 12.3169 26.8555 12.3413 27.1484 12.3413C28.6743 12.3413 29.541 11.145 29.541 9.70459C29.541 9.36279 29.541 9.0332 29.541 8.70361C29.541 3.02734 23.1934 0.20752 14.7705 0.20752C6.35986 0.20752 0 3.02734 0 8.70361C0 9.0332 0 9.36279 0 9.70459ZM1.97754 9.41162C1.97754 9.2041 1.97754 9.00879 1.97754 8.80127C1.97754 3.89404 8.28857 2.05078 14.7705 2.05078C21.2524 2.05078 27.5635 3.89404 27.5635 8.80127C27.5635 9.00879 27.5635 9.2041 27.5635 9.41162C27.5635 10.0098 27.2827 10.5347 26.6602 10.5347C26.4893 10.5347 26.3062 10.5103 25.9644 10.4492L21.8628 9.68018C21.46 9.59473 21.1548 9.38721 21.1548 8.78906C21.1548 8.28857 21.1548 7.76367 21.1548 7.26318C21.1548 6.05469 20.7153 5.56641 20.0806 5.3833C18.1152 4.82178 11.4258 4.82178 9.46045 5.3833C8.82568 5.56641 8.38623 6.05469 8.38623 7.26318C8.38623 7.76367 8.38623 8.28857 8.38623 8.78906C8.38623 9.38721 8.08105 9.59473 7.67822 9.68018L3.57666 10.4492C3.23486 10.5103 3.06396 10.5347 2.88086 10.5347C2.2583 10.5347 1.97754 10.0098 1.97754 9.41162Z" fill="#5ac8f5"/>
 </g>
</svg>
