<?xml version="1.0" encoding="UTF-8"?>
<!--Generator: Apple Native CoreSVG 175.5-->
<!DOCTYPE svg
PUBLIC "-//W3C//DTD SVG 1.1//EN"
       "http://www.w3.org/Graphics/SVG/1.1/DTD/svg11.dtd">
<svg version="1.1" xmlns="http://www.w3.org/2000/svg" xmlns:xlink="http://www.w3.org/1999/xlink" width="26.9409" height="22.7417">
 <g>
  <rect height="22.7417" opacity="0" width="26.9409" x="0" y="0"/>
  <path d="M1.12305 22.7295C1.81885 22.7295 2.2583 22.2656 2.2583 21.5576L2.2583 13.4888L5.896 13.4888C6.04248 13.4888 6.21338 13.4766 6.35986 13.4766L11.1084 21.9971C11.4136 22.5464 11.7065 22.7417 12.2437 22.7417C12.9028 22.7417 13.3667 22.29 13.3667 21.6919C13.3667 21.4355 13.3057 21.2036 13.1348 20.8862L8.70361 13.1226C11.5601 12.3169 13.269 10.022 13.269 6.95801C13.269 3.07617 10.5469 0.598145 6.33545 0.598145L1.15967 0.598145C0.439453 0.598145 0 1.06201 0 1.80664L0 21.5576C0 22.2778 0.439453 22.7295 1.12305 22.7295ZM2.2583 11.4746L2.2583 2.62451L6.04248 2.62451C9.10645 2.62451 10.9253 4.24805 10.9253 7.03125C10.9253 9.85107 9.16748 11.4746 6.14014 11.4746ZM21.0327 22.4731C24.4507 22.4731 26.9409 20.5811 26.9409 17.8955C26.9409 15.6738 25.7935 14.4653 22.6685 13.7085L20.3003 13.1226C18.335 12.6465 17.4927 11.8774 17.4927 10.6567C17.4927 9.15527 18.8721 8.09326 20.9229 8.09326C22.6807 8.09326 23.8403 8.89893 24.4629 10.4736C24.6948 10.9497 25.0244 11.1206 25.4761 11.1206C26.0132 11.1206 26.3672 10.7666 26.3672 10.2295C26.3672 10.1196 26.355 9.98535 26.3306 9.83887C25.9033 7.75146 23.7671 6.27441 20.9229 6.27441C17.6392 6.27441 15.332 8.1665 15.332 10.7788C15.332 12.9761 16.7236 14.3066 19.6655 15.0024L22.0337 15.5762C24.0356 16.0522 24.7437 16.7725 24.7437 18.0664C24.7437 19.6289 23.291 20.6543 21.0327 20.6543C18.9087 20.6543 17.6636 19.7388 17.0776 18.1885C16.8701 17.7856 16.5771 17.5171 16.1011 17.5171C15.5273 17.5171 15.1733 17.8833 15.1611 18.4204C15.1611 18.5547 15.1733 18.6279 15.1978 18.7622C15.5884 20.8496 17.7002 22.4731 21.0327 22.4731Z" fill="#5ac8f5"/>
 </g>
</svg>
