<?xml version="1.0" encoding="UTF-8"?>
<!--Generator: Apple Native CoreSVG 175.5-->
<!DOCTYPE svg
PUBLIC "-//W3C//DTD SVG 1.1//EN"
       "http://www.w3.org/Graphics/SVG/1.1/DTD/svg11.dtd">
<svg version="1.1" xmlns="http://www.w3.org/2000/svg" xmlns:xlink="http://www.w3.org/1999/xlink" width="28.7842" height="22.4731">
 <g>
  <rect height="22.4731" opacity="0" width="28.7842" x="0" y="0"/>
  <path d="M5.07812 9.48486L8.10547 7.6416L5.07812 5.82275C4.07715 5.2124 4.91943 3.72314 6.01807 4.40674L9.63135 6.66504C10.3149 7.10449 10.3516 8.17871 9.63135 8.63037L6.01807 10.9009C4.91943 11.5845 4.08936 10.0708 5.07812 9.48486ZM10.3882 10.8765C10.3882 10.4248 10.7422 10.0586 11.1938 10.0586L15.9912 10.0586C16.4551 10.0586 16.8091 10.4248 16.8091 10.8765C16.8091 11.3281 16.4551 11.6943 15.9912 11.6943L11.1938 11.6943C10.7422 11.6943 10.3882 11.3281 10.3882 10.8765ZM3.83301 22.4731L24.9512 22.4731C27.5146 22.4731 28.7842 21.2158 28.7842 18.7012L28.7842 3.78418C28.7842 1.26953 27.5146 0 24.9512 0L3.83301 0C1.28174 0 0 1.26953 0 3.78418L0 18.7012C0 21.2158 1.28174 22.4731 3.83301 22.4731Z" fill="#5ac8f5"/>
 </g>
</svg>
