<?xml version="1.0" encoding="UTF-8"?>
<!--Generator: Apple Native CoreSVG 175.5-->
<!DOCTYPE svg
PUBLIC "-//W3C//DTD SVG 1.1//EN"
       "http://www.w3.org/Graphics/SVG/1.1/DTD/svg11.dtd">
<svg version="1.1" xmlns="http://www.w3.org/2000/svg" xmlns:xlink="http://www.w3.org/1999/xlink" width="24.9023" height="24.9146">
 <g>
  <rect height="24.9146" opacity="0" width="24.9023" x="0" y="0"/>
  <path d="M12.4512 24.9023C19.2627 24.9023 24.9023 19.2505 24.9023 12.4512C24.9023 5.63965 19.2505 0 12.439 0C5.63965 0 0 5.63965 0 12.4512C0 19.2505 5.65186 24.9023 12.4512 24.9023ZM7.82471 11.7432C7.82471 11.3647 8.08105 11.1084 8.43506 11.1084L9.2041 11.1084L9.2041 10.3149L8.43506 10.3149C8.08105 10.3149 7.82471 10.0342 7.82471 9.68018C7.82471 9.31396 8.08105 9.06982 8.43506 9.06982L9.2041 9.06982L9.2041 7.56836C9.2041 7.05566 9.52148 6.72607 10.022 6.72607L13.0615 6.72607C14.7827 6.72607 16.0889 7.6416 16.6626 9.06982L17.5171 9.06982C17.8711 9.06982 18.1274 9.31396 18.1274 9.68018C18.1274 10.0342 17.8711 10.3149 17.5171 10.3149L16.9434 10.3149C16.9556 10.4736 16.9556 10.5835 16.9556 10.7178C16.9556 10.8398 16.9556 10.9863 16.9312 11.1084L17.5171 11.1084C17.8711 11.1084 18.1274 11.3647 18.1274 11.7432C18.1274 12.085 17.8711 12.3535 17.5171 12.3535L16.6748 12.3535C16.1011 13.8062 14.7827 14.7339 13.0615 14.7339L10.8643 14.7339L10.8643 17.9443C10.8643 18.4204 10.5225 18.7622 10.0464 18.7622C9.57031 18.7622 9.2041 18.4204 9.2041 17.9443L9.2041 12.3535L8.43506 12.3535C8.08105 12.3535 7.82471 12.085 7.82471 11.7432ZM10.8765 13.2202L12.8052 13.2202C13.7085 13.2202 14.3921 12.915 14.8193 12.3535L10.8765 12.3535ZM10.8765 11.1084L15.3076 11.1084C15.332 10.9863 15.332 10.8398 15.332 10.7178C15.332 10.5713 15.332 10.437 15.3076 10.3149L10.8765 10.3149ZM10.8765 9.06982L14.8071 9.06982C14.3921 8.53271 13.7085 8.22754 12.8052 8.22754L10.8765 8.22754Z" fill="#5ac8f5"/>
 </g>
</svg>
