<?xml version="1.0" encoding="UTF-8"?>
<!--Generator: Apple Native CoreSVG 175.5-->
<!DOCTYPE svg
PUBLIC "-//W3C//DTD SVG 1.1//EN"
       "http://www.w3.org/Graphics/SVG/1.1/DTD/svg11.dtd">
<svg version="1.1" xmlns="http://www.w3.org/2000/svg" xmlns:xlink="http://www.w3.org/1999/xlink" width="28.4302" height="24.6948">
 <g>
  <rect height="24.6948" opacity="0" width="28.4302" x="0" y="0"/>
  <path d="M0 12.3413C0 20.0195 2.14844 24.6826 7.25098 24.6826L12.1216 24.6826L12.1216 22.7173L7.25098 22.7173C3.36914 22.7173 1.96533 18.7988 1.96533 12.3413C1.96533 5.88379 3.36914 1.96533 7.25098 1.96533L12.1216 1.96533L12.1216 0L7.25098 0C2.14844 0 0 4.65088 0 12.3413ZM5.79834 5.2002L8.08105 5.2002L8.08105 3.60107L5.79834 3.60107C5.35889 3.60107 5.00488 3.96729 5.00488 4.40674C5.00488 4.84619 5.35889 5.2002 5.79834 5.2002ZM4.96826 8.94775L7.25098 8.94775L7.25098 7.34863L4.96826 7.34863C4.52881 7.34863 4.1748 7.70264 4.1748 8.14209C4.1748 8.58154 4.52881 8.94775 4.96826 8.94775ZM4.66309 12.9883L6.9458 12.9883L6.9458 11.3892L4.66309 11.3892C4.22363 11.3892 3.85742 11.7554 3.85742 12.1948C3.85742 12.6343 4.22363 12.9883 4.66309 12.9883ZM4.96826 17.041L7.25098 17.041L7.25098 15.4419L4.96826 15.4419C4.52881 15.4419 4.1748 15.8081 4.1748 16.2476C4.1748 16.687 4.52881 17.041 4.96826 17.041ZM5.79834 20.7886L8.08105 20.7886L8.08105 19.1895L5.79834 19.1895C5.35889 19.1895 5.00488 19.5435 5.00488 19.9829C5.00488 20.4224 5.35889 20.7886 5.79834 20.7886ZM12.1216 22.7173C9.75342 22.7173 8.14209 18.5547 8.14209 12.3413C8.14209 6.11572 9.75342 1.96533 12.1216 1.96533C14.0137 1.96533 15.4175 4.62646 15.8936 8.87451L17.6025 7.32422C16.7847 2.79541 14.7827 0 12.1216 0C8.55713 0 6.17676 4.93164 6.17676 12.3413C6.17676 19.7388 8.55713 24.6826 12.1216 24.6826C14.7827 24.6826 16.7847 21.875 17.6147 17.3462L15.8936 15.8081C15.4175 20.0439 14.0137 22.7173 12.1216 22.7173Z" fill="#5ac8f5" fill-opacity="0.5"/>
  <path d="M15.332 13.0859L19.0308 16.3574C19.7388 17.0044 20.7886 16.6382 20.7886 15.6006L20.7886 13.3911L27.3804 13.3911C27.9785 13.3911 28.4302 12.9272 28.4302 12.3535C28.4302 11.7554 27.9785 11.3037 27.3804 11.3037L20.7886 11.3037L20.7886 9.06982C20.7886 8.06885 19.7754 7.6416 19.0308 8.30078L15.332 11.5845C14.8315 12.0239 14.8193 12.6343 15.332 13.0859Z" fill="#5ac8f5"/>
 </g>
</svg>
