<?xml version="1.0" encoding="UTF-8"?>
<!--Generator: Apple Native CoreSVG 175.5-->
<!DOCTYPE svg
PUBLIC "-//W3C//DTD SVG 1.1//EN"
       "http://www.w3.org/Graphics/SVG/1.1/DTD/svg11.dtd">
<svg version="1.1" xmlns="http://www.w3.org/2000/svg" xmlns:xlink="http://www.w3.org/1999/xlink" width="22.4731" height="22.7905">
 <g>
  <rect height="22.7905" opacity="0" width="22.4731" x="0" y="0"/>
  <path d="M3.83301 22.4731L18.6401 22.4731C21.2036 22.4731 22.4731 21.2036 22.4731 18.689L22.4731 3.78418C22.4731 1.26953 21.2036 0 18.6401 0L3.83301 0C1.28174 0 0 1.25732 0 3.78418L0 18.689C0 21.2158 1.28174 22.4731 3.83301 22.4731ZM12.561 4.82178C15.4785 4.82178 17.3828 6.79932 17.3828 9.74121L17.3828 11.3892C17.3828 11.9751 17.0166 12.3657 16.4795 12.3657C15.9302 12.3657 15.564 11.9873 15.564 11.4136L15.564 9.74121C15.564 7.89795 14.3677 6.64062 12.561 6.64062C10.8887 6.64062 9.77783 7.87354 9.77783 9.729L9.77783 13.3057L9.729 14.5508L10.1318 13.9771L11.5601 12.5C11.731 12.3169 11.9629 12.207 12.2314 12.207C12.7563 12.207 13.1714 12.6099 13.1714 13.1104C13.1714 13.3911 13.0737 13.6108 12.9028 13.7817L9.63135 16.98C9.39941 17.2119 9.13086 17.3096 8.8623 17.3096C8.58154 17.3096 8.31299 17.1997 8.08105 16.98L4.84619 13.7939C4.66309 13.6108 4.57764 13.4033 4.57764 13.1226C4.57764 12.6099 4.99268 12.207 5.51758 12.207C5.76172 12.207 6.00586 12.3169 6.16455 12.5L7.36084 13.7329L8.02002 14.563L7.95898 13.3057L7.95898 9.729C7.95898 6.78711 9.80225 4.82178 12.561 4.82178Z" fill="#5ac8f5"/>
 </g>
</svg>
