<?xml version="1.0" encoding="UTF-8"?>
<!--Generator: Apple Native CoreSVG 175.5-->
<!DOCTYPE svg
PUBLIC "-//W3C//DTD SVG 1.1//EN"
       "http://www.w3.org/Graphics/SVG/1.1/DTD/svg11.dtd">
<svg version="1.1" xmlns="http://www.w3.org/2000/svg" xmlns:xlink="http://www.w3.org/1999/xlink" width="24.9023" height="24.9146">
 <g>
  <rect height="24.9146" opacity="0" width="24.9023" x="0" y="0"/>
  <path d="M12.4512 24.9023C19.2627 24.9023 24.9023 19.2505 24.9023 12.4512C24.9023 5.63965 19.2505 0 12.439 0C5.63965 0 0 5.63965 0 12.4512C0 19.2505 5.65186 24.9023 12.4512 24.9023ZM12.4512 22.8271C6.68945 22.8271 2.0874 18.2129 2.0874 12.4512C2.0874 6.68945 6.67725 2.0752 12.439 2.0752C18.2007 2.0752 22.8271 6.68945 22.8271 12.4512C22.8271 18.2129 18.2129 22.8271 12.4512 22.8271ZM6.23779 14.2456C6.66504 14.2456 6.98242 13.916 6.98242 13.5132L6.98242 11.3647C6.98242 10.9619 6.66504 10.6323 6.23779 10.6323C5.83496 10.6323 5.51758 10.9619 5.51758 11.3647L5.51758 13.5132C5.51758 13.916 5.84717 14.2456 6.23779 14.2456ZM8.72803 16.333C9.14307 16.333 9.46045 16.0034 9.46045 15.5884L9.46045 9.27734C9.46045 8.8623 9.14307 8.54492 8.72803 8.54492C8.31299 8.54492 7.99561 8.8623 7.99561 9.27734L7.99561 15.5884C7.99561 16.0034 8.31299 16.333 8.72803 16.333ZM11.2061 19.2017C11.6089 19.2017 11.9263 18.8843 11.9263 18.457L11.9263 6.4209C11.9263 6.00586 11.6089 5.68848 11.2061 5.68848C10.791 5.68848 10.4614 6.00586 10.4614 6.4209L10.4614 18.457C10.4614 18.8965 10.7788 19.2017 11.2061 19.2017ZM13.6719 15.21C14.0869 15.21 14.4043 14.8926 14.4043 14.4897L14.4043 10.3882C14.4043 9.98535 14.0869 9.65576 13.6719 9.65576C13.269 9.65576 12.9395 9.98535 12.9395 10.3882L12.9395 14.4897C12.9395 14.8926 13.269 15.21 13.6719 15.21ZM16.1499 17.4927C16.5649 17.4927 16.8823 17.1753 16.8823 16.7603L16.8823 8.11768C16.8823 7.70264 16.5649 7.38525 16.1499 7.38525C15.7349 7.38525 15.4175 7.70264 15.4175 8.11768L15.4175 16.7603C15.4175 17.1753 15.7349 17.4927 16.1499 17.4927ZM18.6401 14.7339C19.0552 14.7339 19.3604 14.4287 19.3604 14.0015L19.3604 10.8765C19.3604 10.4492 19.0552 10.144 18.6401 10.144C18.2129 10.144 17.8955 10.4614 17.8955 10.8765L17.8955 14.0015C17.8955 14.4165 18.2129 14.7339 18.6401 14.7339Z" fill="#5ac8f5"/>
 </g>
</svg>
