<?xml version="1.0" encoding="UTF-8"?>
<!--Generator: Apple Native CoreSVG 175.5-->
<!DOCTYPE svg
PUBLIC "-//W3C//DTD SVG 1.1//EN"
       "http://www.w3.org/Graphics/SVG/1.1/DTD/svg11.dtd">
<svg version="1.1" xmlns="http://www.w3.org/2000/svg" xmlns:xlink="http://www.w3.org/1999/xlink" width="28.1372" height="32.9956">
 <g>
  <rect height="32.9956" opacity="0" width="28.1372" x="0" y="0"/>
  <path d="M0 31.7261C0 32.2632 0.439453 32.7026 0.976562 32.7026C1.52588 32.7026 1.96533 32.2632 1.96533 31.7261L1.96533 12.5977C1.96533 5.67627 6.18896 1.96533 14.0747 1.96533C21.9482 1.96533 26.1719 5.67627 26.1719 12.5977L26.1719 31.7261C26.1719 32.2632 26.6235 32.7026 27.1606 32.7026C27.6978 32.7026 28.1372 32.2632 28.1372 31.7261L28.1372 12.5977C28.1372 4.39453 23.2422 0 14.0747 0C4.89502 0 0 4.39453 0 12.5977ZM8.34961 27.0996L19.7876 27.0996C21.6797 27.0996 22.7783 25.7935 22.7783 23.9746L22.7783 16.6626C22.7783 13.9282 22.4121 11.2549 22.0093 9.58252C21.5576 7.70264 20.2637 6.46973 18.5059 6.26221C17.8467 6.18896 16.1377 6.04248 14.0747 6.04248C12.0117 6.04248 10.2905 6.18896 9.63135 6.26221C7.87354 6.46973 6.57959 7.70264 6.12793 9.58252C5.7251 11.2549 5.35889 13.9282 5.35889 16.6626L5.35889 23.9746C5.35889 25.7935 6.45752 27.0996 8.34961 27.0996ZM14.0747 20.1172C11.7188 20.105 9.5459 19.9951 8.45947 19.8608C7.95898 19.7998 7.71484 19.4946 7.71484 18.9331L7.71484 16.5771C7.71484 14.5386 7.93457 12.8906 8.09326 12.146C8.17871 11.7188 8.43506 11.4746 8.81348 11.4258C9.96094 11.2793 11.3647 11.2061 14.0747 11.2061C16.7603 11.2061 18.1763 11.2793 19.2871 11.4136C19.6899 11.4746 19.9585 11.7188 20.0439 12.146C20.2026 12.8906 20.4224 14.5386 20.4224 16.5771L20.4224 18.9331C20.4224 19.5068 20.1782 19.7998 19.6777 19.8608C18.042 20.0806 15.8936 20.105 14.0747 20.1172ZM11.5234 9.48486C11.084 9.48486 10.791 9.19189 10.791 8.75244C10.791 8.31299 11.084 8.02002 11.5234 8.02002L16.6138 8.02002C17.0532 8.02002 17.3462 8.31299 17.3462 8.75244C17.3462 9.19189 17.0532 9.48486 16.6138 9.48486ZM9.32617 24.9146C8.47168 24.9146 7.84912 24.2798 7.84912 23.4131C7.84912 22.5586 8.47168 21.936 9.32617 21.936C10.1929 21.936 10.8276 22.5586 10.8276 23.4131C10.8276 24.2798 10.1685 24.9146 9.32617 24.9146ZM18.7988 24.9146C17.9443 24.9146 17.3096 24.2798 17.3096 23.4131C17.3096 22.5586 17.9443 21.936 18.7988 21.936C19.6655 21.936 20.2881 22.5586 20.2881 23.4131C20.2881 24.2798 19.6411 24.9146 18.7988 24.9146ZM7.03125 31.5063L7.60498 31.5063C7.91016 31.5063 8.08105 31.3965 8.26416 31.1279L11.2061 26.3794L9.11865 26.3794L6.53076 30.542C6.25 30.9937 6.51855 31.5063 7.03125 31.5063ZM7.88574 30.2124L20.2759 30.2124L20.2759 28.5767L7.88574 28.5767ZM20.5811 31.5063L21.1426 31.5063C21.6431 31.5063 21.9116 30.9814 21.6431 30.542L19.0552 26.3794L16.9678 26.3794L19.9097 31.1279C20.0806 31.3965 20.2759 31.5063 20.5811 31.5063Z" fill="#5ac8f5"/>
 </g>
</svg>
