<?xml version="1.0" encoding="UTF-8"?>
<!--Generator: Apple Native CoreSVG 175.5-->
<!DOCTYPE svg
PUBLIC "-//W3C//DTD SVG 1.1//EN"
       "http://www.w3.org/Graphics/SVG/1.1/DTD/svg11.dtd">
<svg version="1.1" xmlns="http://www.w3.org/2000/svg" xmlns:xlink="http://www.w3.org/1999/xlink" width="22.4731" height="22.4976">
 <g>
  <rect height="22.4976" opacity="0" width="22.4731" x="0" y="0"/>
  <path d="M3.83301 22.4976L18.6401 22.4976C21.2036 22.4976 22.4731 21.228 22.4731 18.7134L22.4731 3.80859C22.4731 1.29395 21.2036 0.0244141 18.6401 0.0244141L3.83301 0.0244141C1.28174 0.0244141 0 1.28174 0 3.80859L0 18.7134C0 21.2402 1.28174 22.4976 3.83301 22.4976ZM3.85742 20.5322C2.63672 20.5322 1.96533 19.8853 1.96533 18.6157L1.96533 3.90625C1.96533 2.63672 2.63672 1.98975 3.85742 1.98975L18.6157 1.98975C19.8242 1.98975 20.5078 2.63672 20.5078 3.90625L20.5078 18.6157C20.5078 19.8853 19.8242 20.5322 18.6157 20.5322Z" fill="#5ac8f5" fill-opacity="0.5"/>
  <path d="M7.69043 16.8823C8.1665 16.8823 8.48389 16.5771 8.48389 16.0645L8.48389 12.1826C8.48389 9.91211 9.27734 8.61816 10.5713 8.28857L10.5713 16.2109C10.5713 16.6138 10.8521 16.8823 11.2427 16.8823C11.5845 16.8823 11.9019 16.6138 11.9019 16.2109L11.9019 8.27637C13.2202 8.58154 14.0381 9.87549 14.0381 12.1826L14.0381 16.0645C14.0381 16.5771 14.3555 16.8823 14.8193 16.8823C15.2954 16.8823 15.6128 16.5771 15.6128 16.0645L15.6128 12.085C15.6128 8.8623 14.1357 7.04346 11.9019 6.7627L11.9019 5.50537C11.9019 5.07812 11.5845 4.84619 11.2427 4.84619C10.8521 4.84619 10.5713 5.07812 10.5713 5.50537L10.5713 6.7749C8.3374 7.05566 6.88477 8.87451 6.88477 12.085L6.88477 16.0645C6.88477 16.5771 7.22656 16.8823 7.69043 16.8823Z" fill="#5ac8f5"/>
 </g>
</svg>
