<?xml version="1.0" encoding="UTF-8"?>
<!--Generator: Apple Native CoreSVG 175.5-->
<!DOCTYPE svg
PUBLIC "-//W3C//DTD SVG 1.1//EN"
       "http://www.w3.org/Graphics/SVG/1.1/DTD/svg11.dtd">
<svg version="1.1" xmlns="http://www.w3.org/2000/svg" xmlns:xlink="http://www.w3.org/1999/xlink" width="24.9023" height="24.9146">
 <g>
  <rect height="24.9146" opacity="0" width="24.9023" x="0" y="0"/>
  <path d="M12.4512 24.9023C19.2627 24.9023 24.9023 19.2505 24.9023 12.4512C24.9023 5.63965 19.2505 0 12.439 0C5.63965 0 0 5.63965 0 12.4512C0 19.2505 5.65186 24.9023 12.4512 24.9023Z" fill="#5ac8f5" fill-opacity="0.25"/>
  <path d="M9.021 17.7246C8.55713 17.7246 8.25195 17.4072 8.25195 16.9189L8.25195 9.10645L8.17871 9.10645L6.83594 10.0952C6.54297 10.3271 6.43311 10.3394 6.22559 10.3394C5.84717 10.3394 5.49316 10.0098 5.49316 9.58252C5.49316 9.25293 5.66406 9.021 5.92041 8.83789L7.83691 7.53174C8.27637 7.22656 8.53271 7.10449 8.94775 7.10449C9.46045 7.10449 9.82666 7.48291 9.82666 8.00781L9.82666 16.9189C9.82666 17.4072 9.50928 17.7246 9.021 17.7246ZM15.3564 17.8833C13.6353 17.8833 12.3047 16.8335 11.9629 15.6738C11.9263 15.5151 11.9019 15.3809 11.9019 15.21C11.9019 14.7705 12.2192 14.4531 12.6343 14.4531C12.9883 14.4531 13.208 14.6484 13.3545 15.0513C13.6963 15.9302 14.3677 16.4185 15.3687 16.4185C16.5771 16.4185 17.4072 15.686 17.4072 14.7095C17.4072 13.6841 16.6504 13.0127 15.4541 13.0127L14.7095 13.0127C14.3066 13.0127 14.0259 12.6953 14.0259 12.2925C14.0259 11.8286 14.3066 11.5356 14.7095 11.5356L15.3931 11.5356C16.394 11.5356 17.1021 10.8765 17.1021 9.96094C17.1021 9.08203 16.394 8.48389 15.4053 8.48389C14.4287 8.48389 13.8184 8.97217 13.5498 9.85107C13.4155 10.2539 13.2202 10.4492 12.8418 10.4492C12.4023 10.4492 12.1216 10.1318 12.1216 9.68018C12.1216 9.52148 12.1216 9.38721 12.1582 9.22852C12.4756 7.99561 13.7451 7.01904 15.4419 7.01904C17.334 7.01904 18.6523 8.14209 18.6523 9.75342C18.6523 10.9375 17.8345 11.9873 16.7969 12.1582L16.7969 12.2314C18.0664 12.3657 18.9941 13.4399 18.9941 14.7827C18.9941 16.5894 17.4927 17.8833 15.3564 17.8833Z" fill="#5ac8f5"/>
 </g>
</svg>
