<?xml version="1.0" encoding="UTF-8"?>
<!--Generator: Apple Native CoreSVG 175.5-->
<!DOCTYPE svg
PUBLIC "-//W3C//DTD SVG 1.1//EN"
       "http://www.w3.org/Graphics/SVG/1.1/DTD/svg11.dtd">
<svg version="1.1" xmlns="http://www.w3.org/2000/svg" xmlns:xlink="http://www.w3.org/1999/xlink" width="24.9756" height="23.8892">
 <g>
  <rect height="23.8892" opacity="0" width="24.9756" x="0" y="0"/>
  <path d="M12.4878 18.3472C20.2881 18.3472 24.9756 14.8315 24.9756 10.4736C24.9756 6.12793 20.2881 2.6123 12.4756 2.6123C4.6875 2.6123 0 6.12793 0 10.4736C0 14.8315 4.6875 18.3472 12.4878 18.3472ZM12.4878 23.8892C15.4541 23.8892 17.2119 22.4976 17.2119 20.1538L17.2119 19.5435C15.7349 19.8364 14.1602 20.0073 12.4878 20.0073C10.8154 20.0073 9.24072 19.8364 7.77588 19.5435L7.77588 20.1538C7.77588 22.4976 9.53369 23.8892 12.4878 23.8892Z" fill="#5ac8f5" fill-opacity="0.25"/>
  <path d="M10.4858 14.2334C10.022 14.2334 9.729 13.9038 9.729 13.3911L9.729 7.44629C9.729 6.90918 10.022 6.57959 10.4858 6.57959L12.7808 6.57959C14.4531 6.57959 15.5518 7.55615 15.5518 9.06982C15.5518 10.0586 14.9902 10.9009 14.0747 11.2671L15.21 13.0371C15.3198 13.208 15.3809 13.3667 15.3809 13.5742C15.3809 13.9771 15.0513 14.2578 14.6606 14.2578C14.3433 14.2578 14.1357 14.1235 13.9282 13.7695L12.5488 11.5234L11.2671 11.5234L11.2671 13.3911C11.2671 13.9038 10.9619 14.2334 10.4858 14.2334ZM11.2671 10.3271L12.5977 10.3271C13.5132 10.3271 14.0259 9.87549 14.0259 9.09424C14.0259 8.31299 13.501 7.82471 12.6221 7.82471L11.2671 7.82471Z" fill="#5ac8f5"/>
 </g>
</svg>
