<?xml version="1.0" encoding="UTF-8"?>
<!--Generator: Apple Native CoreSVG 175.5-->
<!DOCTYPE svg
PUBLIC "-//W3C//DTD SVG 1.1//EN"
       "http://www.w3.org/Graphics/SVG/1.1/DTD/svg11.dtd">
<svg version="1.1" xmlns="http://www.w3.org/2000/svg" xmlns:xlink="http://www.w3.org/1999/xlink" width="30.4321" height="19.3726">
 <g>
  <rect height="19.3726" opacity="0" width="30.4321" x="0" y="0"/>
  <path d="M0 15.6372C0 18.1274 1.25732 19.3726 3.78418 19.3726L26.6479 19.3726C29.1748 19.3726 30.4321 18.1274 30.4321 15.6372L30.4321 3.73535C30.4321 1.24512 29.1748 0 26.6479 0L6.73828 0C4.65088 0 3.44238 1.2085 2.81982 3.08838L0.415039 10.3882C0.12207 11.2427 0 11.9629 0 12.9272ZM11.9263 9.47266L11.9263 5.71289C11.9263 4.98047 12.3657 4.55322 13.0859 4.55322L24.3896 4.55322C25.1221 4.55322 25.5493 4.98047 25.5493 5.71289L25.5493 9.47266C25.5493 10.1685 25.1221 10.5957 24.3896 10.5957L13.0859 10.5957C12.3657 10.5957 11.9263 10.1685 11.9263 9.47266ZM4.37012 10.5957C3.68652 10.5957 3.32031 10.0464 3.60107 9.17969L4.83398 5.43213C5.00488 4.89502 5.27344 4.55322 6.14014 4.55322L7.53174 4.55322C8.25195 4.55322 8.69141 4.98047 8.69141 5.71289L8.69141 9.47266C8.69141 10.1685 8.25195 10.5957 7.53174 10.5957Z" fill="#5ac8f5"/>
 </g>
</svg>
