<?xml version="1.0" encoding="UTF-8"?>
<!--Generator: Apple Native CoreSVG 175.5-->
<!DOCTYPE svg
PUBLIC "-//W3C//DTD SVG 1.1//EN"
       "http://www.w3.org/Graphics/SVG/1.1/DTD/svg11.dtd">
<svg version="1.1" xmlns="http://www.w3.org/2000/svg" xmlns:xlink="http://www.w3.org/1999/xlink" width="24.9023" height="24.9146">
 <g>
  <rect height="24.9146" opacity="0" width="24.9023" x="0" y="0"/>
  <path d="M12.4512 24.9023C19.2627 24.9023 24.9023 19.2505 24.9023 12.4512C24.9023 5.63965 19.2505 0 12.439 0C5.63965 0 0 5.63965 0 12.4512C0 19.2505 5.65186 24.9023 12.4512 24.9023Z" fill="#5ac8f5" fill-opacity="0.25"/>
  <path d="M12.5488 18.4448C11.0718 18.4448 9.69238 17.9077 8.87451 16.5649C8.34961 15.7227 8.04443 14.4653 8.04443 12.7319C8.04443 8.53271 9.8877 6.45752 12.854 6.45752C14.4897 6.45752 15.8569 7.27539 16.2598 8.20312C16.333 8.38623 16.3696 8.55713 16.3696 8.76465C16.3696 9.2041 16.0278 9.50928 15.6128 9.50928C15.1733 9.50928 14.9292 9.28955 14.5264 8.88672C14.1602 8.44727 13.6719 8.06885 12.793 8.06885C11.0718 8.06885 9.8999 9.7168 9.8999 12.2925C9.8999 12.3291 9.8999 12.3657 9.8999 12.4268C9.92432 12.4268 9.96094 12.4268 9.99756 12.4268C10.4004 11.5112 11.377 10.6567 13.0737 10.6567C15.0635 10.6567 16.8701 11.9995 16.8701 14.3921C16.8701 16.9678 15.0879 18.4448 12.5488 18.4448ZM12.4634 16.9312C13.9404 16.9312 14.8926 15.9546 14.8926 14.4775C14.8926 13.0737 13.9038 12.0972 12.4756 12.0972C11.0596 12.0972 10.0464 13.0859 10.0464 14.4653C10.0464 15.8936 11.0596 16.9312 12.4634 16.9312Z" fill="#5ac8f5"/>
 </g>
</svg>
