<?xml version="1.0" encoding="UTF-8"?>
<!--Generator: Apple Native CoreSVG 175.5-->
<!DOCTYPE svg
PUBLIC "-//W3C//DTD SVG 1.1//EN"
       "http://www.w3.org/Graphics/SVG/1.1/DTD/svg11.dtd">
<svg version="1.1" xmlns="http://www.w3.org/2000/svg" xmlns:xlink="http://www.w3.org/1999/xlink" width="22.6104" height="22.8882">
 <g>
  <rect height="22.8882" opacity="0" width="22.6104" x="0" y="0"/>
  <path d="M0.316984 15.4053C-1.23331 19.8364 2.97812 22.8882 11.3033 22.8882C19.6285 22.8882 23.8521 19.8364 22.2896 15.4053L19.5553 7.55615L19.5553 3.43018C19.5553 1.51367 16.2594 0.0366211 11.3033 0.0366211C6.35946 0.0366211 3.07577 1.51367 3.07577 3.43018L3.07577 7.50732ZM2.18466 16.0156L4.32089 9.97314C5.61484 11.0474 8.08066 11.7188 11.3033 11.7188C14.4771 11.7188 16.9796 11.0474 18.2979 9.98535L20.422 16.0156C21.4351 18.9087 17.9928 20.9106 11.3033 20.9106C4.61386 20.9106 1.17148 18.9087 2.18466 16.0156ZM5.0411 3.43018C5.0411 2.63672 7.55575 1.87988 11.3033 1.87988C15.0753 1.87988 17.5899 2.63672 17.5899 3.43018C17.5899 4.21143 15.0753 4.98047 11.3033 4.98047C7.55575 4.98047 5.0411 4.21143 5.0411 3.43018Z" fill="#5ac8f5"/>
 </g>
</svg>
