<?xml version="1.0" encoding="UTF-8"?>
<!--Generator: Apple Native CoreSVG 175.5-->
<!DOCTYPE svg
PUBLIC "-//W3C//DTD SVG 1.1//EN"
       "http://www.w3.org/Graphics/SVG/1.1/DTD/svg11.dtd">
<svg version="1.1" xmlns="http://www.w3.org/2000/svg" xmlns:xlink="http://www.w3.org/1999/xlink" width="23.2165" height="31.0425">
 <g>
  <rect height="31.0425" opacity="0" width="23.2165" x="0" y="0"/>
  <path d="M17.5293 26.8188C22.3755 25.061 24.4385 20.6177 22.4854 15.2466L21.582 12.7441C20.6177 10.0952 18.7988 9.00879 16.6626 9.75342C16.0889 9.00879 15.21 8.75244 14.2578 9.09424C13.9038 9.22852 13.5986 9.41162 13.3057 9.63135C12.6831 8.82568 11.7188 8.53271 10.7178 8.88672C10.4492 8.98438 10.1929 9.13086 9.94873 9.30176L8.55713 5.49316C8.03223 4.04053 6.72607 3.43018 5.37109 3.91846C3.9917 4.41895 3.38135 5.7251 3.90625 7.17773L7.38525 16.748C7.40967 16.8091 7.39746 16.8579 7.33643 16.8823C7.2998 16.9067 7.25098 16.8823 7.21436 16.8457L5.78613 15.2832C5.07812 14.5264 4.22363 14.2944 3.40576 14.5874C2.29492 15.0024 1.57471 16.0645 2.03857 17.3218C2.14844 17.6758 2.39258 18.103 2.67334 18.457L6.7627 23.4009C9.86328 27.1362 13.4766 28.2959 17.5293 26.8188ZM17.0044 25.2197C13.8062 26.3916 10.8154 25.7935 7.9834 22.3877L3.89404 17.4683C3.77197 17.3218 3.68652 17.1875 3.61328 16.98C3.4668 16.5894 3.6377 16.1377 4.10156 15.9668C4.49219 15.8325 4.80957 15.979 5.11475 16.3086L7.94678 19.2261C8.41064 19.7144 8.82568 19.7632 9.24072 19.6167C9.7168 19.4458 9.91211 18.9331 9.729 18.4082L5.39551 6.51855C5.2124 6.03027 5.43213 5.56641 5.9082 5.39551C6.37207 5.22461 6.82373 5.45654 6.99463 5.94482L10.083 14.4287C10.2295 14.8315 10.6812 15.0146 11.084 14.8682C11.4746 14.7217 11.6943 14.2944 11.5479 13.9038L10.437 10.8398C10.5957 10.6812 10.8398 10.5225 11.0596 10.437C11.6333 10.2295 12.1094 10.4858 12.3291 11.084L13.3057 13.7573C13.4521 14.1724 13.916 14.3311 14.3066 14.1846C14.6729 14.0503 14.917 13.6475 14.7583 13.2202L13.9771 11.0474C14.1357 10.8887 14.3677 10.73 14.5996 10.6445C15.1733 10.437 15.6494 10.6934 15.8691 11.2915L16.5161 13.0737C16.6748 13.501 17.1265 13.6597 17.5171 13.5132C17.8955 13.3789 18.1274 12.9639 17.981 12.5488L17.5049 11.2305C18.5181 10.8643 19.4824 11.6943 20.1416 13.5254L20.9106 15.6128C22.583 20.2271 21.0693 23.7427 17.0044 25.2197Z" fill="#5ac8f5"/>
  <path d="M6.10352 0C2.73438 0 0 2.73438 0 6.10352C0 7.55615 0.512695 8.89893 1.35498 9.94873C1.5625 10.2051 1.80664 10.3027 2.03857 10.3027C2.63672 10.3027 3.14941 9.59473 2.63672 8.98438C1.97754 8.20312 1.59912 7.20215 1.59912 6.10352C1.59912 3.61328 3.61328 1.59912 6.10352 1.59912C8.59375 1.59912 10.5957 3.61328 10.5957 6.10352C10.5957 6.17676 10.5957 6.25 10.5957 6.35986C10.6079 6.90918 10.9863 7.15332 11.377 7.15332C11.7554 7.15332 12.146 6.88477 12.1826 6.45752C12.1948 6.37207 12.1948 6.26221 12.1948 6.10352C12.1948 2.73438 9.47266 0 6.10352 0Z" fill="#5ac8f5" fill-opacity="0.5"/>
 </g>
</svg>
