<?xml version="1.0" encoding="UTF-8"?>
<!--Generator: Apple Native CoreSVG 175.5-->
<!DOCTYPE svg
PUBLIC "-//W3C//DTD SVG 1.1//EN"
       "http://www.w3.org/Graphics/SVG/1.1/DTD/svg11.dtd">
<svg version="1.1" xmlns="http://www.w3.org/2000/svg" xmlns:xlink="http://www.w3.org/1999/xlink" width="23.6938" height="18.8354">
 <g>
  <rect height="18.8354" opacity="0" width="23.6938" x="0" y="0"/>
  <path d="M0 18.75L1.98975 18.75L1.98975 0L0 0ZM3.91846 18.75L5.05371 18.75L5.05371 0L3.91846 0ZM6.95801 18.75L10.2051 18.75L10.2051 0L6.95801 0ZM11.3892 18.75L13.4644 18.75L13.4644 0L11.3892 0ZM14.6973 18.75L17.9199 18.75L17.9199 0L14.6973 0ZM18.9087 18.75L21.4355 18.75L21.4355 0L18.9087 0ZM22.0581 18.75L23.6938 18.75L23.6938 0L22.0581 0Z" fill="#5ac8f5"/>
 </g>
</svg>
