<?xml version="1.0" encoding="UTF-8"?>
<!--Generator: Apple Native CoreSVG 175.5-->
<!DOCTYPE svg
PUBLIC "-//W3C//DTD SVG 1.1//EN"
       "http://www.w3.org/Graphics/SVG/1.1/DTD/svg11.dtd">
<svg version="1.1" xmlns="http://www.w3.org/2000/svg" xmlns:xlink="http://www.w3.org/1999/xlink" width="25.1343" height="29.9683">
 <g>
  <rect height="29.9683" opacity="0" width="25.1343" x="0" y="0"/>
  <path d="M12.0239 7.25098L12.0239 2.79541C12.0239 0.98877 11.0962 0.0244141 9.33838 0.0244141C6.38428 0.0488281 3.28369 2.69775 3.28369 5.27344C3.28369 7.76367 5.67627 9.08203 9.49707 10.4858L10.2661 8.75244C6.93359 7.48291 5.12695 6.73828 5.12695 5.27344C5.12695 3.71094 7.36084 1.86768 9.33838 1.86768C10.0586 1.86768 10.1685 1.96533 10.1685 2.79541L10.1685 7.80029ZM15.1855 9.30176L19.6289 9.30176C21.4233 9.30176 22.3999 8.37402 22.3999 6.64062C22.3999 3.67432 19.7144 0.57373 17.1387 0.57373C14.6606 0.57373 13.3301 2.96631 11.9507 6.78711L13.6841 7.56836C14.9292 4.22363 15.6738 2.41699 17.1387 2.41699C18.7134 2.41699 20.5444 4.63867 20.5444 6.64062C20.5444 7.36084 20.4712 7.44629 19.6289 7.44629L14.624 7.44629ZM13.1348 12.4756L13.1348 16.9312C13.1348 18.7378 14.0503 19.6777 15.7959 19.6777C18.7622 19.6777 21.8628 17.0166 21.8628 14.4409C21.8628 11.9507 19.4702 10.6323 15.6494 9.24072L14.8682 10.9619C18.2007 12.2314 20.0195 12.9761 20.0195 14.4409C20.0195 16.0034 17.7734 17.8467 15.7959 17.8223C15.0635 17.8223 14.9902 17.749 14.9902 16.9312L14.9902 11.9263ZM9.94873 10.4004L5.50537 10.4004C3.69873 10.4004 2.74658 11.3403 2.74658 13.0737C2.74658 16.0522 5.40771 19.1406 7.99561 19.1406C10.4858 19.1406 11.8042 16.7603 13.1958 12.9272L11.4624 12.146C10.1929 15.5029 9.46045 17.2852 7.99561 17.2852C6.40869 17.2852 4.60205 15.0757 4.60205 13.0737C4.60205 12.3413 4.6875 12.2559 5.50537 12.2559L10.5103 12.2559ZM12.561 13.3179C14.4775 13.3179 16.0522 11.7798 16.0522 9.86328C16.0522 7.93457 14.4775 6.38428 12.561 6.38428C10.6445 6.38428 9.09424 7.93457 9.09424 9.86328C9.09424 11.7798 10.6445 13.3179 12.561 13.3179ZM12.561 11.499C11.6455 11.499 10.9131 10.7788 10.9131 9.86328C10.9131 8.93555 11.6455 8.20312 12.561 8.20312C13.4766 8.20312 14.2334 8.93555 14.2334 9.86328C14.2334 10.7788 13.4766 11.499 12.561 11.499ZM12.561 29.9683C19.7144 29.9683 25.1343 28.4424 25.1343 25.8301C25.1343 24.1821 22.9614 22.9614 19.4946 22.29L18.4448 23.938C21.4722 24.3652 23.291 25.0977 23.291 25.8301C23.291 26.9531 18.9575 28.125 12.561 28.125C6.17676 28.125 1.84326 26.9531 1.84326 25.8301C1.84326 25.0977 3.66211 24.3652 6.68945 23.938L5.62744 22.29C2.17285 22.9614 0 24.1821 0 25.8301C0 28.4424 5.41992 29.9683 12.561 29.9683ZM4.6875 21.7896L5.9082 24.6582C6.09131 25.0732 6.604 25.1587 6.93359 24.6704L8.44727 22.4609C8.74023 22.0337 8.63037 21.5332 8.06885 21.4233L5.3833 20.9595C4.78516 20.8496 4.50439 21.3501 4.6875 21.7896ZM20.4468 21.7896C20.6299 21.3501 20.3369 20.8496 19.751 20.9595L17.0654 21.4233C16.5039 21.5332 16.394 22.0337 16.6748 22.4609L18.2007 24.6704C18.5303 25.1587 19.0308 25.0732 19.2139 24.6582Z" fill="#5ac8f5"/>
 </g>
</svg>
