<?xml version="1.0" encoding="UTF-8"?>
<!--Generator: Apple Native CoreSVG 175.5-->
<!DOCTYPE svg
PUBLIC "-//W3C//DTD SVG 1.1//EN"
       "http://www.w3.org/Graphics/SVG/1.1/DTD/svg11.dtd">
<svg version="1.1" xmlns="http://www.w3.org/2000/svg" xmlns:xlink="http://www.w3.org/1999/xlink" width="38.855" height="24.4263">
 <g>
  <rect height="24.4263" opacity="0" width="38.855" x="0" y="0"/>
  <path d="M1.06201 15.2832L5.10254 12.8052C5.61523 12.4878 5.62744 11.8896 5.10254 11.5723L1.06201 9.08203C0.512695 8.75244 0 9.021 0 9.65576L0 14.7217C0 15.3687 0.512695 15.6128 1.06201 15.2832ZM37.793 15.2832C38.3423 15.6128 38.855 15.3687 38.855 14.7217L38.855 9.65576C38.855 9.021 38.3423 8.75244 37.793 9.08203L33.7524 11.5723C33.2275 11.8896 33.2275 12.4878 33.7524 12.8052ZM7.84912 6.51855L8.49609 6.51855C8.91113 6.51855 9.21631 6.21338 9.21631 5.79834L9.21631 0.732422C9.21631 0.317383 8.91113 0.012207 8.49609 0.012207L7.84912 0.012207C7.43408 0.012207 7.12891 0.317383 7.12891 0.732422L7.12891 5.79834C7.12891 6.21338 7.43408 6.51855 7.84912 6.51855ZM7.84912 15.4663L8.49609 15.4663C8.91113 15.4663 9.21631 15.1611 9.21631 14.7461L9.21631 9.69238C9.21631 9.27734 8.91113 8.97217 8.49609 8.97217L7.84912 8.97217C7.43408 8.97217 7.12891 9.27734 7.12891 9.69238L7.12891 14.7461C7.12891 15.1611 7.43408 15.4663 7.84912 15.4663ZM7.84912 24.4263L8.49609 24.4263C8.91113 24.4263 9.21631 24.1211 9.21631 23.7183L9.21631 18.6401C9.21631 18.2251 8.91113 17.9199 8.49609 17.9199L7.84912 17.9199C7.43408 17.9199 7.12891 18.2251 7.12891 18.6401L7.12891 23.7183C7.12891 24.1211 7.43408 24.4263 7.84912 24.4263ZM30.3589 6.51855L31.0059 6.51855C31.4209 6.51855 31.7261 6.21338 31.7261 5.79834L31.7261 0.732422C31.7261 0.317383 31.4209 0.012207 31.0059 0.012207L30.3589 0.012207C29.9438 0.012207 29.6387 0.317383 29.6387 0.732422L29.6387 5.79834C29.6387 6.21338 29.9438 6.51855 30.3589 6.51855ZM30.3589 15.4663L31.0059 15.4663C31.4209 15.4663 31.7261 15.1611 31.7261 14.7461L31.7261 9.69238C31.7261 9.27734 31.4209 8.97217 31.0059 8.97217L30.3589 8.97217C29.9438 8.97217 29.6387 9.27734 29.6387 9.69238L29.6387 14.7461C29.6387 15.1611 29.9438 15.4663 30.3589 15.4663ZM30.3589 24.4263L31.0059 24.4263C31.4209 24.4263 31.7261 24.1211 31.7261 23.7183L31.7261 18.6401C31.7261 18.2251 31.4209 17.9199 31.0059 17.9199L30.3589 17.9199C29.9438 17.9199 29.6387 18.2251 29.6387 18.6401L29.6387 23.7183C29.6387 24.1211 29.9438 24.4263 30.3589 24.4263ZM19.4092 23.2788C23.7305 23.2788 25.6714 22.3022 25.6714 19.812L25.6714 5.2124C25.6592 2.64893 23.3154 1.13525 19.4214 1.14746C15.5518 1.14746 13.1836 2.63672 13.1836 5.2124L13.1836 19.812C13.1836 22.3022 15.1123 23.2788 19.4092 23.2788ZM19.4214 21.5576C16.1987 21.5454 14.9414 21.0449 14.9414 19.7632L14.9414 5.22461C14.9414 3.73535 16.4917 2.89307 19.4092 2.89307C22.3633 2.89307 23.938 3.73535 23.9258 5.2124L23.9258 19.7632C23.9258 21.0449 22.6562 21.5454 19.4214 21.5576ZM19.4214 10.4492C20.1904 10.4614 21.4844 10.5225 21.8994 10.5347C22.5708 10.5347 22.9004 10.2539 22.9492 9.5459L23.0835 7.95898C23.1934 6.67725 22.3511 6.18896 19.4336 6.17676C16.5161 6.17676 15.6616 6.67725 15.7715 7.97119L15.918 9.53369C15.9668 10.2539 16.272 10.5347 16.9556 10.5225C17.395 10.5347 18.6157 10.4614 19.4214 10.4492ZM19.4214 19.519C22.3267 19.5068 23.2544 19.0796 23.0591 17.749L22.937 16.98C22.7661 15.9058 21.936 15.5762 19.4336 15.5884C16.9189 15.5762 16.0889 15.918 15.918 16.98L15.8081 17.7368C15.6006 19.0918 16.5283 19.5068 19.4214 19.519ZM14.1357 9.97314L14.1357 7.66602L12.7075 7.65381C12.146 7.65381 11.731 8.06885 11.731 8.59375L11.7188 9.0332C11.7188 9.55811 12.146 9.98535 12.6953 9.98535ZM24.7314 9.98535L26.1597 9.98535C26.709 9.98535 27.1362 9.55811 27.1362 9.0332L27.124 8.60596C27.124 8.06885 26.709 7.65381 26.1475 7.65381L24.7314 7.65381Z" fill="#5ac8f5"/>
 </g>
</svg>
