<?xml version="1.0" encoding="UTF-8"?>
<!--Generator: Apple Native CoreSVG 175.5-->
<!DOCTYPE svg
PUBLIC "-//W3C//DTD SVG 1.1//EN"
       "http://www.w3.org/Graphics/SVG/1.1/DTD/svg11.dtd">
<svg version="1.1" xmlns="http://www.w3.org/2000/svg" xmlns:xlink="http://www.w3.org/1999/xlink" width="32.3975" height="12.5854">
 <g>
  <rect height="12.5854" opacity="0" width="32.3975" x="0" y="0"/>
  <path d="M4.10156 12.5366L21.6187 12.5366C24.7314 12.5366 25.7202 11.0352 25.7202 6.27441C25.7202 1.50146 24.7437 0 21.6187 0L4.10156 0C0.976562 0 0 1.50146 0 6.27441C0 11.0352 0.976562 12.5366 4.10156 12.5366ZM4.10156 5.39551C3.39355 5.39551 2.83203 4.83398 2.83203 4.12598C2.83203 3.43018 3.39355 2.88086 4.10156 2.88086C4.79736 2.88086 5.34668 3.43018 5.34668 4.12598C5.34668 4.83398 4.79736 5.39551 4.10156 5.39551Z" fill="#5ac8f5"/>
  <path d="M27.0996 9.7168L30.0659 9.7168C31.4697 9.7168 32.3975 8.81348 32.3975 7.50732L32.3975 5.01709C32.3975 3.72314 31.4697 2.80762 30.0659 2.80762L27.0996 2.80762C27.2949 3.77197 27.3804 4.91943 27.3804 6.27441C27.3804 7.60498 27.2827 8.75244 27.0996 9.7168Z" fill="#5ac8f5" fill-opacity="0.5"/>
 </g>
</svg>
