<?xml version="1.0" encoding="UTF-8"?>
<!--Generator: Apple Native CoreSVG 175.5-->
<!DOCTYPE svg
PUBLIC "-//W3C//DTD SVG 1.1//EN"
       "http://www.w3.org/Graphics/SVG/1.1/DTD/svg11.dtd">
<svg version="1.1" xmlns="http://www.w3.org/2000/svg" xmlns:xlink="http://www.w3.org/1999/xlink" width="22.4731" height="22.4976">
 <g>
  <rect height="22.4976" opacity="0" width="22.4731" x="0" y="0"/>
  <path d="M3.83301 22.4976L18.6401 22.4976C21.2036 22.4976 22.4731 21.228 22.4731 18.7134L22.4731 3.80859C22.4731 1.29395 21.2036 0.0244141 18.6401 0.0244141L3.83301 0.0244141C1.28174 0.0244141 0 1.28174 0 3.80859L0 18.7134C0 21.2402 1.28174 22.4976 3.83301 22.4976ZM3.85742 20.5322C2.63672 20.5322 1.96533 19.8853 1.96533 18.6157L1.96533 3.90625C1.96533 2.63672 2.63672 1.98975 3.85742 1.98975L18.6157 1.98975C19.8242 1.98975 20.5078 2.63672 20.5078 3.90625L20.5078 18.6157C20.5078 19.8853 19.8242 20.5322 18.6157 20.5322Z" fill="#5ac8f5" fill-opacity="0.5"/>
  <path d="M4.8584 16.2231L9.91211 16.2231C10.2905 16.2231 10.5835 15.9302 10.5835 15.4907C10.5835 15.0391 10.2905 14.7827 9.91211 14.7827L6.35986 14.7827L6.35986 14.6973L8.75244 11.9141C9.65576 10.8643 10.3271 9.98535 10.3271 8.76465C10.3271 7.06787 9.08203 5.98145 7.16553 5.98145C5.71289 5.98145 4.41895 6.90918 4.10156 8.1543C4.07715 8.31299 4.05273 8.44727 4.05273 8.59375C4.05273 9.0332 4.30908 9.32617 4.73633 9.32617C5.07812 9.32617 5.26123 9.11865 5.43213 8.75244C5.7373 7.83691 6.34766 7.38525 7.22656 7.38525C8.21533 7.38525 8.8501 7.99561 8.8501 8.89893C8.8501 9.69238 8.21533 10.376 7.62939 11.0596L4.40674 14.8438C4.22363 15.0513 4.13818 15.2588 4.13818 15.5029C4.13818 15.9424 4.41895 16.2231 4.8584 16.2231ZM15.271 16.5039C17.4194 16.5039 18.8599 15.1855 18.8599 13.0371C18.8599 11.1572 17.5781 9.79004 15.6982 9.79004C14.8804 9.79004 14.0015 10.1929 13.6353 10.7422L13.5864 10.7422L13.8184 7.60498L17.8589 7.60498C18.2007 7.60498 18.457 7.32422 18.457 6.92139C18.457 6.53076 18.2129 6.23779 17.8589 6.23779L13.6597 6.23779C13.0127 6.23779 12.5977 6.62842 12.5488 7.27539L12.2559 11.084C12.207 11.7188 12.5488 12.1338 13.1104 12.1338C13.4888 12.1338 13.7207 12.0361 14.0991 11.7188C14.6118 11.2793 14.9902 11.0962 15.5396 11.0962C16.6016 11.0962 17.3462 11.9507 17.3462 13.0737C17.3462 14.3555 16.5283 15.1245 15.3564 15.1245C14.5142 15.1245 13.8062 14.6851 13.4521 13.9526C13.269 13.5986 13.0371 13.4277 12.7563 13.4277C12.3413 13.4277 12.0605 13.7329 12.0605 14.1357C12.0605 14.3311 12.1094 14.5142 12.1704 14.6851C12.5366 15.6982 13.7451 16.5039 15.271 16.5039Z" fill="#5ac8f5"/>
 </g>
</svg>
