<?xml version="1.0" encoding="UTF-8"?>
<!--Generator: Apple Native CoreSVG 175.5-->
<!DOCTYPE svg
PUBLIC "-//W3C//DTD SVG 1.1//EN"
       "http://www.w3.org/Graphics/SVG/1.1/DTD/svg11.dtd">
<svg version="1.1" xmlns="http://www.w3.org/2000/svg" xmlns:xlink="http://www.w3.org/1999/xlink" width="22.4731" height="22.4976">
 <g>
  <rect height="22.4976" opacity="0" width="22.4731" x="0" y="0"/>
  <path d="M3.83301 22.4976L18.6401 22.4976C21.2036 22.4976 22.4731 21.228 22.4731 18.7134L22.4731 3.80859C22.4731 1.29395 21.2036 0.0244141 18.6401 0.0244141L3.83301 0.0244141C1.28174 0.0244141 0 1.28174 0 3.80859L0 18.7134C0 21.2402 1.28174 22.4976 3.83301 22.4976Z" fill="#5ac8f5" fill-opacity="0.25"/>
  <path d="M6.90918 16.6748C4.73633 16.6748 3.30811 14.5996 3.30811 11.2427C3.30811 7.88574 4.73633 5.81055 6.90918 5.81055C9.06982 5.81055 10.5103 7.88574 10.5103 11.2427C10.5103 14.5996 9.06982 16.6748 6.90918 16.6748ZM6.90918 15.1367C8.11768 15.1367 8.8501 13.6597 8.8501 11.2427C8.8501 8.82568 8.10547 7.34863 6.90918 7.34863C5.71289 7.34863 4.96826 8.82568 4.96826 11.2427C4.96826 13.6597 5.71289 15.1367 6.90918 15.1367ZM17.3096 16.6504C16.8091 16.6504 16.5405 16.2842 16.5405 15.7959L16.5405 14.3188L12.8784 14.3188C12.2314 14.3188 11.8042 13.916 11.8042 13.2446C11.8042 12.9028 11.8652 12.6221 12.085 12.2314C12.9272 10.7056 14.1846 8.55713 15.2344 6.78711C15.6494 6.09131 16.0889 5.81055 16.8213 5.81055C17.5659 5.81055 18.0786 6.28662 18.0786 7.01904L18.0786 12.9028L18.75 12.9028C19.1772 12.9028 19.4702 13.1714 19.4702 13.623C19.4702 14.0625 19.1895 14.3188 18.75 14.3188L18.0786 14.3188L18.0786 15.7959C18.0786 16.2964 17.8101 16.6504 17.3096 16.6504ZM16.5405 12.9028L16.5405 7.51953L16.4795 7.51953C15.4785 9.22852 14.1846 11.4258 13.4521 12.854L13.4521 12.9028Z" fill="#5ac8f5"/>
 </g>
</svg>
