<?xml version="1.0" encoding="UTF-8"?>
<!--Generator: Apple Native CoreSVG 175.5-->
<!DOCTYPE svg
PUBLIC "-//W3C//DTD SVG 1.1//EN"
       "http://www.w3.org/Graphics/SVG/1.1/DTD/svg11.dtd">
<svg version="1.1" xmlns="http://www.w3.org/2000/svg" xmlns:xlink="http://www.w3.org/1999/xlink" width="24.9023" height="24.9146">
 <g>
  <rect height="24.9146" opacity="0" width="24.9023" x="0" y="0"/>
  <path d="M12.4512 24.9146C19.2627 24.9146 24.9023 19.2749 24.9023 12.4634C24.9023 5.66406 19.2505 0.012207 12.439 0.012207C5.63965 0.012207 0 5.66406 0 12.4634C0 19.2749 5.65186 24.9146 12.4512 24.9146ZM9.33838 17.7368C8.63037 17.7368 8.42285 17.0898 8.70361 16.5405L9.08203 15.8081L4.43115 15.8081C3.83301 15.8081 3.6377 15.2344 3.86963 14.7705L7.54395 7.40967C7.66602 7.14111 7.92236 6.97021 8.19092 6.97021C8.45947 6.97021 8.70361 7.14111 8.8501 7.40967L11.0718 11.8286L13.7451 6.45752C13.8916 6.14014 14.1846 5.94482 14.502 5.94482C14.8315 5.94482 15.1123 6.15234 15.271 6.46973L20.3003 16.5405C20.5688 17.0898 20.3735 17.7368 19.6411 17.7368ZM6.11572 14.856L7.51953 14.856L8.19092 11.9507L8.8623 14.856L9.55811 14.856L9.92432 14.1235L8.45947 11.0474C8.41064 10.9131 8.28857 10.8643 8.19092 10.8643C8.06885 10.8643 7.99561 10.9131 7.94678 11.0474ZM11.6211 16.8091L13.5864 16.8091L14.502 12.7563L15.4175 16.8091L17.3828 16.8091L14.8682 11.499C14.7827 11.3403 14.6484 11.2549 14.502 11.2549C14.3433 11.2549 14.209 11.3403 14.1357 11.499Z" fill="#5ac8f5"/>
 </g>
</svg>
