<?xml version="1.0" encoding="UTF-8"?>
<!--Generator: Apple Native CoreSVG 175.5-->
<!DOCTYPE svg
PUBLIC "-//W3C//DTD SVG 1.1//EN"
       "http://www.w3.org/Graphics/SVG/1.1/DTD/svg11.dtd">
<svg version="1.1" xmlns="http://www.w3.org/2000/svg" xmlns:xlink="http://www.w3.org/1999/xlink" width="22.4731" height="22.4976">
 <g>
  <rect height="22.4976" opacity="0" width="22.4731" x="0" y="0"/>
  <path d="M3.83301 22.4976L18.6401 22.4976C21.2036 22.4976 22.4731 21.228 22.4731 18.7134L22.4731 3.80859C22.4731 1.29395 21.2036 0.0244141 18.6401 0.0244141L3.83301 0.0244141C1.28174 0.0244141 0 1.28174 0 3.80859L0 18.7134C0 21.2402 1.28174 22.4976 3.83301 22.4976Z" fill="#5ac8f5" fill-opacity="0.25"/>
  <path d="M7.48291 16.5161C7.00684 16.5161 6.70166 16.1987 6.70166 15.7104L6.70166 7.89795L6.62842 7.89795L5.29785 8.88672C5.00488 9.11865 4.87061 9.13086 4.67529 9.13086C4.30908 9.13086 3.95508 8.80127 3.95508 8.37402C3.95508 8.04443 4.11377 7.8125 4.38232 7.62939L6.28662 6.32324C6.72607 6.01807 6.98242 5.896 7.38525 5.896C7.92236 5.896 8.28857 6.27441 8.28857 6.79932L8.28857 15.7104C8.28857 16.1987 7.97119 16.5161 7.48291 16.5161ZM14.3677 16.687C13.0859 16.687 11.9995 16.1987 11.3525 14.978C10.9253 14.1968 10.6812 13.0737 10.6812 11.5356C10.6812 7.70264 12.1704 5.81055 14.5996 5.81055C16.04 5.81055 17.041 6.55518 17.3706 7.39746C17.4316 7.56836 17.4561 7.71484 17.4561 7.88574C17.4561 8.30078 17.1997 8.58154 16.8457 8.58154C16.5039 8.58154 16.2964 8.42285 16.0767 8.10547C15.7715 7.61719 15.271 7.27539 14.5386 7.27539C13.1226 7.27539 12.1704 8.76465 12.1704 11.1328C12.1704 11.1938 12.1704 11.2183 12.1704 11.2549L12.2559 11.2549C12.5732 10.4248 13.4033 9.66797 14.7583 9.66797C16.394 9.66797 17.8589 10.8643 17.8589 13.0249C17.8589 15.332 16.4062 16.687 14.3677 16.687ZM14.2822 15.2954C15.5029 15.2954 16.272 14.4409 16.272 13.0981C16.272 11.8408 15.4785 10.9741 14.2944 10.9741C13.1226 10.9741 12.3047 11.853 12.3047 13.0859C12.3047 14.3799 13.1226 15.2954 14.2822 15.2954Z" fill="#5ac8f5"/>
 </g>
</svg>
