<?xml version="1.0" encoding="UTF-8"?>
<!--Generator: Apple Native CoreSVG 175.5-->
<!DOCTYPE svg
PUBLIC "-//W3C//DTD SVG 1.1//EN"
       "http://www.w3.org/Graphics/SVG/1.1/DTD/svg11.dtd">
<svg version="1.1" xmlns="http://www.w3.org/2000/svg" xmlns:xlink="http://www.w3.org/1999/xlink" width="24.9023" height="24.9146">
 <g>
  <rect height="24.9146" opacity="0" width="24.9023" x="0" y="0"/>
  <path d="M12.4512 24.9023C19.2627 24.9023 24.9023 19.2505 24.9023 12.4512C24.9023 5.63965 19.2505 0 12.439 0C5.63965 0 0 5.63965 0 12.4512C0 19.2505 5.65186 24.9023 12.4512 24.9023ZM8.65479 17.7246C8.19092 17.7246 7.87354 17.4072 7.87354 16.9189L7.87354 9.10645L7.80029 9.10645L6.46973 10.0952C6.16455 10.3271 6.05469 10.3394 5.84717 10.3394C5.48096 10.3394 5.12695 10.0098 5.12695 9.58252C5.12695 9.25293 5.28564 9.021 5.54199 8.83789L7.4585 7.53174C7.91016 7.22656 8.1543 7.10449 8.56934 7.10449C9.08203 7.10449 9.44824 7.48291 9.44824 8.00781L9.44824 16.9189C9.44824 17.4072 9.14307 17.7246 8.65479 17.7246ZM15.5518 17.8833C13.8184 17.8833 12.7808 16.8945 12.5854 16.1987C12.5366 16.0522 12.5 15.8813 12.5 15.7471C12.5 15.3076 12.7563 15.0024 13.1592 15.0024C13.4888 15.0024 13.7329 15.1367 13.9404 15.4907C14.2334 16.0522 14.8071 16.4185 15.5273 16.4185C16.9678 16.4185 17.9443 14.9414 17.9199 12.439L17.8345 12.439C17.5049 13.2935 16.687 14.0381 15.3076 14.0381C13.6719 14.0381 12.1948 12.8296 12.1948 10.6689C12.1948 8.44727 13.5742 7.01904 15.6982 7.01904C18.0542 7.01904 19.4214 8.80127 19.4214 12.0972C19.4214 15.8936 18.0664 17.8833 15.5518 17.8833ZM15.7837 12.7319C16.9678 12.7319 17.7734 11.8408 17.7734 10.6079C17.7734 9.31396 16.9434 8.39844 15.7959 8.39844C14.5752 8.39844 13.7939 9.26514 13.7939 10.5835C13.7939 11.8408 14.5874 12.7319 15.7837 12.7319Z" fill="#5ac8f5"/>
 </g>
</svg>
