<?xml version="1.0" encoding="UTF-8"?>
<!--Generator: Apple Native CoreSVG 175.5-->
<!DOCTYPE svg
PUBLIC "-//W3C//DTD SVG 1.1//EN"
       "http://www.w3.org/Graphics/SVG/1.1/DTD/svg11.dtd">
<svg version="1.1" xmlns="http://www.w3.org/2000/svg" xmlns:xlink="http://www.w3.org/1999/xlink" width="21.3623" height="27.478">
 <g>
  <rect height="27.478" opacity="0" width="21.3623" x="0" y="0"/>
  <path d="M0 3.125L3.06396 3.125L3.06396 1.37939C3.06396 0.500488 2.6123 0 1.81885 0L1.2207 0C0.439453 0 0 0.524902 0 1.37939ZM0 24.2798L1.11084 27.0142C1.23291 27.2949 1.68457 27.3193 1.81885 27.0264L3.06396 24.2798L3.06396 4.55322L0 4.55322ZM12.3169 27.2827L18.3716 27.2827C20.1416 27.2827 21.3623 26.062 21.3623 24.292L21.3623 3.18604C21.3623 1.40381 20.1416 0.170898 18.3716 0.170898L12.3169 0.170898C10.5469 0.170898 9.33838 1.3916 9.33838 3.17383L9.33838 24.2798C9.33838 26.062 10.5469 27.2827 12.3169 27.2827ZM12.6465 25.5005C11.7188 25.5005 11.1206 24.9023 11.1206 24.0112L11.1206 3.45459C11.1206 2.56348 11.7188 1.96533 12.6465 1.96533L18.0542 1.96533C18.9697 1.96533 19.5679 2.56348 19.5679 3.45459L19.5679 23.999C19.5679 24.8901 18.9697 25.5005 18.0542 25.5005ZM20.2026 4.41895L20.2026 3.49121L14.3677 3.49121C14.1235 3.49121 13.916 3.68652 13.916 3.95508C13.916 4.19922 14.1113 4.41895 14.3555 4.41895ZM20.2026 6.35986L20.2026 5.45654L16.3086 5.45654C16.0522 5.45654 15.8691 5.63965 15.8691 5.92041C15.8691 6.16455 16.04 6.35986 16.2964 6.35986ZM20.2026 8.3252L20.2026 7.42188L16.3086 7.42188C16.0522 7.42188 15.8691 7.60498 15.8691 7.88574C15.8691 8.12988 16.04 8.3252 16.2964 8.3252ZM20.2026 10.2783L20.2026 9.36279L16.3086 9.36279C16.0522 9.36279 15.8691 9.5459 15.8691 9.81445C15.8691 10.083 16.04 10.2783 16.2964 10.2783ZM20.2026 12.2314L20.2026 11.3159L16.3086 11.3159C16.0522 11.3159 15.8691 11.5112 15.8691 11.792C15.8691 12.0239 16.04 12.2314 16.2964 12.2314ZM20.2026 14.1724L20.2026 13.2812L14.3677 13.2812C14.1235 13.2812 13.916 13.4644 13.916 13.7329C13.916 13.9893 14.1113 14.1724 14.3555 14.1724ZM20.2026 16.1499L20.2026 15.2344L16.3086 15.2344C16.0522 15.2344 15.8691 15.4175 15.8691 15.686C15.8691 15.9424 16.04 16.1499 16.2964 16.1499ZM20.2026 18.103L20.2026 17.1997L16.3086 17.1997C16.0522 17.1997 15.8691 17.3706 15.8691 17.6514C15.8691 17.8955 16.04 18.103 16.2964 18.103ZM20.2026 20.0439L20.2026 19.1406L16.3086 19.1406C16.0522 19.1406 15.8691 19.3359 15.8691 19.5923C15.8691 19.8364 16.04 20.0439 16.2964 20.0439ZM20.2026 21.9971L20.2026 21.0938L16.3086 21.0938C16.0522 21.0938 15.8691 21.2646 15.8691 21.5332C15.8691 21.8018 16.04 21.9971 16.2964 21.9971ZM20.2026 23.9502L20.2026 23.0347L14.3677 23.0347C14.1235 23.0347 13.916 23.23 13.916 23.4985C13.916 23.7427 14.1113 23.9502 14.3555 23.9502Z" fill="#5ac8f5"/>
 </g>
</svg>
