<?xml version="1.0" encoding="UTF-8"?>
<!--Generator: Apple Native CoreSVG 175.5-->
<!DOCTYPE svg
PUBLIC "-//W3C//DTD SVG 1.1//EN"
       "http://www.w3.org/Graphics/SVG/1.1/DTD/svg11.dtd">
<svg version="1.1" xmlns="http://www.w3.org/2000/svg" xmlns:xlink="http://www.w3.org/1999/xlink" width="24.9023" height="24.9146">
 <g>
  <rect height="24.9146" opacity="0" width="24.9023" x="0" y="0"/>
  <path d="M13.4521 24.2676L15.0024 23.8892C14.7827 23.1934 14.6729 22.4487 14.6729 21.6553C14.6729 17.3462 17.9321 14.0869 22.229 14.0869C22.8394 14.0869 23.4131 14.1602 23.9746 14.2822L24.353 12.7441C23.6694 12.5732 22.9614 12.4878 22.229 12.4878C17.1631 12.4878 13.0737 16.5771 13.0737 21.6553C13.0737 22.5708 13.1958 23.4497 13.4521 24.2676ZM0.744629 10.5347L0.439453 12.0972C1.17188 12.2803 1.9165 12.3779 2.69775 12.3779C7.76367 12.3779 11.853 8.28857 11.853 3.21045C11.853 2.34375 11.7432 1.51367 11.5112 0.744629L9.91211 0.939941C10.144 1.64795 10.2539 2.40479 10.2539 3.21045C10.2539 7.51953 6.99463 10.7788 2.69775 10.7788C2.02637 10.7788 1.37939 10.6934 0.744629 10.5347ZM12.4512 0C5.65186 0 0 5.63965 0 12.4512C0 19.2505 5.66406 24.9023 12.4634 24.9023C19.2749 24.9023 24.9023 19.2505 24.9023 12.4512C24.9023 5.63965 19.2627 0 12.4512 0ZM12.4512 1.66016C18.3472 1.66016 23.2422 6.55518 23.2422 12.4512C23.2422 18.3472 18.3594 23.2422 12.4634 23.2422C6.56738 23.2422 1.66016 18.3472 1.66016 12.4512C1.66016 6.55518 6.55518 1.66016 12.4512 1.66016Z" fill="#5ac8f5"/>
 </g>
</svg>
