<?xml version="1.0" encoding="UTF-8"?>
<!--Generator: Apple Native CoreSVG 175.5-->
<!DOCTYPE svg
PUBLIC "-//W3C//DTD SVG 1.1//EN"
       "http://www.w3.org/Graphics/SVG/1.1/DTD/svg11.dtd">
<svg version="1.1" xmlns="http://www.w3.org/2000/svg" xmlns:xlink="http://www.w3.org/1999/xlink" width="24.9023" height="24.9146">
 <g>
  <rect height="24.9146" opacity="0" width="24.9023" x="0" y="0"/>
  <path d="M12.4512 24.9023C19.2627 24.9023 24.9023 19.2505 24.9023 12.4512C24.9023 5.63965 19.2505 0 12.439 0C5.63965 0 0 5.63965 0 12.4512C0 19.2505 5.65186 24.9023 12.4512 24.9023ZM8.71582 18.2251C8.17871 18.2251 7.77588 17.8467 7.77588 17.3462C7.77588 17.0898 7.83691 16.9189 7.99561 16.687L11.1938 12.2681L8.17871 8.11768C7.97119 7.83691 7.91016 7.66602 7.91016 7.38525C7.91016 6.87256 8.36182 6.44531 8.89893 6.44531C9.32617 6.44531 9.57031 6.604 9.86328 7.00684L12.5366 10.8887L12.5977 10.8887L15.2344 7.01904C15.5029 6.604 15.7593 6.44531 16.1499 6.44531C16.687 6.44531 17.1021 6.83594 17.1021 7.33643C17.1021 7.56836 17.041 7.77588 16.8579 8.00781L13.6841 12.3291L16.8335 16.6382C17.0044 16.8579 17.0776 17.041 17.0776 17.2974C17.0776 17.8467 16.6504 18.2251 16.0767 18.2251C15.686 18.2251 15.4541 18.0786 15.1367 17.6392L12.4268 13.7695L12.3779 13.7695L9.65576 17.6392C9.32617 18.0786 9.11865 18.2251 8.71582 18.2251Z" fill="#5ac8f5"/>
 </g>
</svg>
