<?xml version="1.0" encoding="UTF-8"?>
<!--Generator: Apple Native CoreSVG 175.5-->
<!DOCTYPE svg
PUBLIC "-//W3C//DTD SVG 1.1//EN"
       "http://www.w3.org/Graphics/SVG/1.1/DTD/svg11.dtd">
<svg version="1.1" xmlns="http://www.w3.org/2000/svg" xmlns:xlink="http://www.w3.org/1999/xlink" width="24.7437" height="28.3081">
 <g>
  <rect height="28.3081" opacity="0" width="24.7437" x="0" y="0"/>
  <path d="M3.97949 4.22363L5.77393 4.22363L5.77393 0.842285C5.77393 0.366211 5.35889 0 4.88281 0C4.40674 0 3.97949 0.366211 3.97949 0.842285ZM2.74658 25.1709L6.99463 25.1709C8.77686 25.1709 9.74121 24.1821 9.74121 22.3633L9.74121 5.93262C9.74121 4.11377 8.77686 3.13721 6.99463 3.13721L2.74658 3.13721C0.964355 3.13721 0 4.11377 0 5.93262L0 22.3633C0 24.1821 0.964355 25.1709 2.74658 25.1709ZM2.85645 23.3276C2.19727 23.3276 1.84326 22.9614 1.84326 22.3389L1.84326 5.95703C1.84326 5.33447 2.19727 4.98047 2.85645 4.98047L6.89697 4.98047C7.54395 4.98047 7.89795 5.33447 7.89795 5.95703L7.89795 22.3389C7.89795 22.9614 7.54395 23.3276 6.89697 23.3276ZM4.88281 28.2959C5.35889 28.2959 5.77393 27.9297 5.77393 27.4536L5.77393 24.2188L3.97949 24.2188L3.97949 27.4536C3.97949 27.9297 4.40674 28.2959 4.88281 28.2959ZM18.9819 7.6416L20.7764 7.6416L20.7764 0.842285C20.7764 0.366211 20.3491 0 19.873 0C19.397 0 18.9819 0.366211 18.9819 0.842285ZM17.749 21.5454L21.9971 21.5454C23.7793 21.5454 24.7437 20.5688 24.7437 18.75L24.7437 9.5459C24.7437 7.72705 23.7793 6.75049 21.9971 6.75049L17.749 6.75049C15.9668 6.75049 15.0024 7.72705 15.0024 9.5459L15.0024 18.75C15.0024 20.5688 15.9668 21.5454 17.749 21.5454ZM17.8467 19.7021C17.1997 19.7021 16.8457 19.3481 16.8457 18.7256L16.8457 9.58252C16.8457 8.94775 17.1997 8.59375 17.8467 8.59375L21.8872 8.59375C22.5464 8.59375 22.9004 8.94775 22.9004 9.58252L22.9004 18.7256C22.9004 19.3481 22.5464 19.7021 21.8872 19.7021ZM19.873 28.2959C20.3491 28.2959 20.7764 27.9297 20.7764 27.4536L20.7764 20.6787L18.9819 20.6787L18.9819 27.4536C18.9819 27.9297 19.397 28.2959 19.873 28.2959Z" fill="#5ac8f5"/>
 </g>
</svg>
