<?xml version="1.0" encoding="UTF-8"?>
<!--Generator: Apple Native CoreSVG 175.5-->
<!DOCTYPE svg
PUBLIC "-//W3C//DTD SVG 1.1//EN"
       "http://www.w3.org/Graphics/SVG/1.1/DTD/svg11.dtd">
<svg version="1.1" xmlns="http://www.w3.org/2000/svg" xmlns:xlink="http://www.w3.org/1999/xlink" width="15.686" height="25.8667">
 <g>
  <rect height="25.8667" opacity="0" width="15.686" x="0" y="0"/>
  <path d="M0 22.6807C0 24.585 1.33057 25.8545 3.32031 25.8545L12.3657 25.8545C14.3555 25.8545 15.686 24.585 15.686 22.6807L15.686 3.17383C15.686 1.26953 14.3555 0 12.3657 0L3.32031 0C1.33057 0 0 1.26953 0 3.17383ZM1.96533 21.7163L1.96533 4.13818L13.7207 4.13818L13.7207 21.7163ZM7.86133 24.646C7.27539 24.646 6.79932 24.1699 6.79932 23.584C6.79932 23.0103 7.27539 22.5342 7.86133 22.5342C8.43506 22.5342 8.91113 23.0103 8.91113 23.584C8.91113 24.1699 8.43506 24.646 7.86133 24.646ZM5.52979 2.13623C5.52979 1.85547 5.7251 1.67236 5.99365 1.67236L9.70459 1.67236C9.97314 1.67236 10.1685 1.85547 10.1685 2.13623C10.1685 2.41699 9.97314 2.58789 9.70459 2.58789L5.99365 2.58789C5.7251 2.58789 5.52979 2.41699 5.52979 2.13623Z" fill="#5ac8f5"/>
 </g>
</svg>
