<?xml version="1.0" encoding="UTF-8"?>
<!--Generator: Apple Native CoreSVG 175.5-->
<!DOCTYPE svg
PUBLIC "-//W3C//DTD SVG 1.1//EN"
       "http://www.w3.org/Graphics/SVG/1.1/DTD/svg11.dtd">
<svg version="1.1" xmlns="http://www.w3.org/2000/svg" xmlns:xlink="http://www.w3.org/1999/xlink" width="24.202" height="30.6274">
 <g>
  <rect height="30.6274" opacity="0" width="24.202" x="0" y="0"/>
  <path d="M14.3509 5.33447C15.8157 5.33447 17.012 4.15039 17.012 2.64893C17.012 1.18408 15.8157 0 14.3509 0C12.8739 0 11.6776 1.18408 11.6776 2.64893C11.6776 4.15039 12.8739 5.33447 14.3509 5.33447ZM2.47346 20.0317L10.5179 20.0317C11.6409 20.0317 12.1292 18.7866 11.4945 18.0176L8.97981 14.9292L16.182 14.4531L22.9447 14.4531C23.6282 14.4531 24.202 13.9038 24.202 13.2202C24.202 12.5488 23.6282 11.9751 22.9447 11.9751L10.4324 11.9751L13.3866 9.00879C13.5208 8.88672 13.6917 8.80127 13.8748 8.82568L22.7371 9.97314C23.4574 10.0586 24.1165 9.50928 24.1165 8.75244C24.1165 8.14209 23.6649 7.60498 23.0423 7.53174L4.48762 5.18799C4.097 5.13916 3.743 5.27344 3.46223 5.52979L0.361648 8.63037C-0.126633 9.11865-0.114426 9.86328 0.361648 10.3638C0.801101 10.8276 1.60676 10.8765 2.10725 10.3638L4.78059 7.70264L7.67366 8.06885C7.94221 8.09326 8.05208 8.38623 7.85676 8.58154L5.12239 11.2793C4.06038 12.3291 3.99934 14.0259 5.12239 15.1489L7.51497 17.5659L2.47346 17.5659C1.78987 17.5659 1.24055 18.1152 1.24055 18.7988C1.24055 19.4702 1.78987 20.0317 2.47346 20.0317ZM14.4852 30.6274C14.8636 30.6274 15.1566 30.3345 15.1566 29.9561L15.1566 17.2363C15.1566 16.8579 14.8636 16.5649 14.4852 16.5649C14.1068 16.5649 13.8016 16.8579 13.8016 17.2363L13.8016 29.9561C13.8016 30.3345 14.1068 30.6274 14.4852 30.6274Z" fill="#5ac8f5"/>
 </g>
</svg>
