<?xml version="1.0" encoding="UTF-8"?>
<!--Generator: Apple Native CoreSVG 175.5-->
<!DOCTYPE svg
PUBLIC "-//W3C//DTD SVG 1.1//EN"
       "http://www.w3.org/Graphics/SVG/1.1/DTD/svg11.dtd">
<svg version="1.1" xmlns="http://www.w3.org/2000/svg" xmlns:xlink="http://www.w3.org/1999/xlink" width="23.8561" height="31.6528">
 <g>
  <rect height="31.6528" opacity="0" width="23.8561" x="0" y="0"/>
  <path d="M8.37402 24.0356C13.0737 24.0356 15.1733 22.9736 15.1733 20.2759L15.1733 4.43115C15.1733 1.64795 12.6099 0 8.37402 0C4.1626 0 1.59912 1.64795 1.59912 4.43115L1.59912 20.2759C1.59912 22.9736 3.68652 24.0356 8.37402 24.0356ZM8.38623 10.0464C7.48291 10.0464 6.11572 10.1196 5.62744 10.1196C4.88281 10.1196 4.52881 9.80225 4.46777 9.00879L4.30908 7.25098C4.18701 5.79834 5.13916 5.24902 8.38623 5.24902C11.6333 5.24902 12.5854 5.79834 12.4634 7.25098L12.3169 9.00879C12.2437 9.80225 11.9019 10.1196 11.145 10.1196C10.6689 10.1196 9.24072 10.0464 8.38623 10.0464ZM8.38623 20.1416C5.13916 20.1416 4.11377 19.6655 4.3457 18.1641L4.47998 17.3096C4.66309 16.1133 5.59082 15.7349 8.38623 15.7349C11.1816 15.7349 12.1094 16.1133 12.3047 17.3096L12.4268 18.1641C12.6709 19.6655 11.6333 20.1416 8.38623 20.1416ZM2.63672 9.61914L2.63672 7.08008L1.07422 7.08008C0.463867 7.08008 0 7.53174 0 8.11768L0 8.58154C0 9.15527 0.463867 9.61914 1.07422 9.61914ZM14.1357 9.61914L15.6982 9.61914C16.3086 9.61914 16.7725 9.15527 16.7725 8.58154L16.7725 8.11768C16.7725 7.53174 16.3086 7.08008 15.6982 7.08008L14.1357 7.08008Z" fill="#5ac8f5"/>
  <path d="M17.7734 25.5371C18.8354 24.4751 19.4702 23.1567 19.6289 21.6675C19.7144 21.0083 19.2871 20.5933 18.75 20.5933C18.1519 20.5933 17.8833 20.874 17.7734 21.5576C17.6392 22.5952 17.2119 23.4985 16.4795 24.2432C15.7104 25 14.8315 25.4395 13.8916 25.5371C13.1348 25.647 12.793 26.0376 12.793 26.5259C12.793 27.0508 13.1836 27.417 13.7573 27.417C14.8071 27.417 16.5161 26.7944 17.7734 25.5371Z" fill="#5ac8f5" fill-opacity="0.5"/>
  <path d="M20.8008 28.5767C22.6929 26.709 23.6938 24.3164 23.8525 21.7285C23.9014 21.0571 23.4375 20.7153 22.9614 20.7153C22.3511 20.7153 22.0337 21.0205 21.9727 21.8018C21.8506 23.8159 21.0205 25.7568 19.5068 27.2827C17.981 28.7964 16.0278 29.6265 14.0259 29.7485C13.3301 29.7974 12.915 30.1392 12.915 30.6641C12.915 31.2378 13.3423 31.6406 13.9648 31.6406C16.5527 31.6406 18.9331 30.4565 20.8008 28.5767Z" fill="#5ac8f5" fill-opacity="0.5"/>
 </g>
</svg>
