<?xml version="1.0" encoding="UTF-8"?>
<!--Generator: Apple Native CoreSVG 175.5-->
<!DOCTYPE svg
PUBLIC "-//W3C//DTD SVG 1.1//EN"
       "http://www.w3.org/Graphics/SVG/1.1/DTD/svg11.dtd">
<svg version="1.1" xmlns="http://www.w3.org/2000/svg" xmlns:xlink="http://www.w3.org/1999/xlink" width="24.9023" height="24.9146">
 <g>
  <rect height="24.9146" opacity="0" width="24.9023" x="0" y="0"/>
  <path d="M7.39746 11.9751C8.88672 11.9751 10.1196 12.3413 11.7554 13.3301C13.5864 14.4287 15.2222 15.0024 17.1875 15.0024C19.8242 15.0024 22.1924 13.8672 24.0601 11.7554L23.6694 8.89893C22.0337 11.6211 19.7998 13.0371 17.1875 13.0371C15.5762 13.0371 14.3066 12.5977 12.7563 11.6577C10.9375 10.5591 9.32617 10.0098 7.39746 10.0098C4.96826 10.0098 2.80762 10.9985 1.02539 12.8174L1.3916 15.4053C2.97852 13.147 5.0415 11.9751 7.39746 11.9751ZM10.2417 7.97119C10.9863 9.26514 11.2671 10.4858 11.2427 12.4268C11.2061 14.5752 11.5479 16.2598 12.5122 17.9443C13.7573 20.105 15.7227 21.5332 18.2373 22.168L20.2515 20.52C17.4805 20.2515 15.4175 19.0552 14.2212 16.98C13.4155 15.5762 13.1714 14.2822 13.208 12.4512C13.2324 10.3027 12.9028 8.66699 11.9507 7.00684C10.6445 4.74854 8.55713 3.30811 5.88379 2.75879L4.24805 4.47998C7.00684 4.72412 9.05762 5.92041 10.2417 7.97119ZM15.1367 8.44727C14.3921 9.7168 13.4766 10.5591 11.7676 11.5234C9.8877 12.5854 8.60596 13.6963 7.61719 15.3931C6.35986 17.5537 6.12793 20.0195 6.87256 22.5464L9.24072 23.3154C8.10547 20.813 8.11768 18.4326 9.32617 16.3696C10.1318 15.0024 11.1328 14.1357 12.7441 13.2324C14.6118 12.1826 15.8691 11.084 16.8335 9.41162C18.1274 7.17773 18.3228 4.61426 17.4683 2.01416L15.1123 1.3916C16.3452 4.00391 16.333 6.38428 15.1367 8.44727ZM12.4512 24.9023C19.2627 24.9023 24.9023 19.2505 24.9023 12.4512C24.9023 5.63965 19.2505 0 12.439 0C5.63965 0 0 5.63965 0 12.4512C0 19.2505 5.65186 24.9023 12.4512 24.9023ZM12.4512 22.8271C6.68945 22.8271 2.0874 18.2129 2.0874 12.4512C2.0874 6.68945 6.67725 2.0752 12.439 2.0752C18.2007 2.0752 22.8271 6.68945 22.8271 12.4512C22.8271 18.2129 18.2129 22.8271 12.4512 22.8271Z" fill="#5ac8f5"/>
 </g>
</svg>
