<?xml version="1.0" encoding="UTF-8"?>
<!--Generator: Apple Native CoreSVG 175.5-->
<!DOCTYPE svg
PUBLIC "-//W3C//DTD SVG 1.1//EN"
       "http://www.w3.org/Graphics/SVG/1.1/DTD/svg11.dtd">
<svg version="1.1" xmlns="http://www.w3.org/2000/svg" xmlns:xlink="http://www.w3.org/1999/xlink" width="30.6274" height="20.9839">
 <g>
  <rect height="20.9839" opacity="0" width="30.6274" x="0" y="0"/>
  <path d="M12.0972 20.6177L26.9165 20.6177C29.3945 20.6177 30.6274 19.397 30.6274 16.9678L30.6274 4.00391C30.6274 1.57471 29.3945 0.354004 26.9165 0.354004L12.0972 0.354004C9.64355 0.354004 8.39844 1.57471 8.39844 4.00391L8.39844 16.9678C8.39844 19.397 9.64355 20.6177 12.0972 20.6177ZM12.1216 18.6768C10.9741 18.6768 10.3394 18.0542 10.3394 16.8579L10.3394 4.11377C10.3394 2.90527 10.9741 2.29492 12.1216 2.29492L26.8921 2.29492C28.0273 2.29492 28.6865 2.90527 28.6865 4.11377L28.6865 16.8579C28.6865 18.0542 28.0273 18.6768 26.8921 18.6768Z" fill="#5ac8f5" fill-opacity="0.5"/>
  <path d="M0.683594 4.77295L4.07715 4.77295C4.5166 4.77295 4.77295 4.50439 4.77295 4.07715L4.77295 0.708008C4.77295 0.256348 4.5166 0 4.07715 0L0.683594 0C0.268555 0 0 0.280762 0 0.708008L0 4.07715C0 4.47998 0.268555 4.77295 0.683594 4.77295ZM0.683594 12.8662L4.07715 12.8662C4.5166 12.8662 4.77295 12.6099 4.77295 12.1826L4.77295 8.81348C4.77295 8.34961 4.5166 8.09326 4.07715 8.09326L0.683594 8.09326C0.268555 8.09326 0 8.37402 0 8.81348L0 12.1826C0 12.5854 0.268555 12.8662 0.683594 12.8662ZM0.683594 20.9595L4.08936 20.9595C4.5166 20.9595 4.77295 20.7031 4.77295 20.2759L4.77295 16.9067C4.77295 16.4429 4.5166 16.1865 4.08936 16.1865L0.683594 16.1865C0.268555 16.1865 0 16.4673 0 16.9067L0 20.2759C0 20.6787 0.268555 20.9595 0.683594 20.9595Z" fill="#5ac8f5"/>
 </g>
</svg>
