<?xml version="1.0" encoding="UTF-8"?>
<!--Generator: Apple Native CoreSVG 175.5-->
<!DOCTYPE svg
PUBLIC "-//W3C//DTD SVG 1.1//EN"
       "http://www.w3.org/Graphics/SVG/1.1/DTD/svg11.dtd">
<svg version="1.1" xmlns="http://www.w3.org/2000/svg" xmlns:xlink="http://www.w3.org/1999/xlink" width="22.4731" height="22.4976">
 <g>
  <rect height="22.4976" opacity="0" width="22.4731" x="0" y="0"/>
  <path d="M11.2427 2.17285C11.8408 2.17285 12.3169 1.68457 12.3169 1.08643C12.3169 0.488281 11.8408 0.012207 11.2427 0.012207C10.6445 0.012207 10.1562 0.488281 10.1562 1.08643C10.1562 1.68457 10.6445 2.17285 11.2427 2.17285ZM11.2427 5.5542C11.8408 5.5542 12.3169 5.07812 12.3169 4.47998C12.3169 3.88184 11.8408 3.39355 11.2427 3.39355C10.6445 3.39355 10.1562 3.88184 10.1562 4.47998C10.1562 5.07812 10.6445 5.5542 11.2427 5.5542ZM11.2427 8.93555C11.8408 8.93555 12.3169 8.45947 12.3169 7.86133C12.3169 7.26318 11.8408 6.7749 11.2427 6.7749C10.6445 6.7749 10.1562 7.26318 10.1562 7.86133C10.1562 8.45947 10.6445 8.93555 11.2427 8.93555ZM11.2427 12.3291C11.8408 12.3291 12.3169 11.8408 12.3169 11.2427C12.3169 10.6445 11.8408 10.1685 11.2427 10.1685C10.6445 10.1685 10.1562 10.6445 10.1562 11.2427C10.1562 11.8408 10.6445 12.3291 11.2427 12.3291ZM11.2427 15.7104C11.8408 15.7104 12.3169 15.2344 12.3169 14.6362C12.3169 14.0381 11.8408 13.5498 11.2427 13.5498C10.6445 13.5498 10.1562 14.0381 10.1562 14.6362C10.1562 15.2344 10.6445 15.7104 11.2427 15.7104ZM11.2427 19.0918C11.8408 19.0918 12.3169 18.6157 12.3169 18.0176C12.3169 17.4194 11.8408 16.9312 11.2427 16.9312C10.6445 16.9312 10.1562 17.4194 10.1562 18.0176C10.1562 18.6157 10.6445 19.0918 11.2427 19.0918ZM11.2427 22.4854C11.8408 22.4854 12.3169 21.9971 12.3169 21.3989C12.3169 20.8008 11.8408 20.3247 11.2427 20.3247C10.6445 20.3247 10.1562 20.8008 10.1562 21.3989C10.1562 21.9971 10.6445 22.4854 11.2427 22.4854ZM1.09863 12.3291C1.69678 12.3291 2.17285 11.8408 2.17285 11.2427C2.17285 10.6445 1.69678 10.1685 1.09863 10.1685C0.500488 10.1685 0.012207 10.6445 0.012207 11.2427C0.012207 11.8408 0.500488 12.3291 1.09863 12.3291ZM4.46777 12.3291C5.06592 12.3291 5.5542 11.8408 5.5542 11.2427C5.5542 10.6445 5.06592 10.1685 4.46777 10.1685C3.86963 10.1685 3.39355 10.6445 3.39355 11.2427C3.39355 11.8408 3.86963 12.3291 4.46777 12.3291ZM7.84912 12.3291C8.44727 12.3291 8.93555 11.8408 8.93555 11.2427C8.93555 10.6445 8.44727 10.1685 7.84912 10.1685C7.25098 10.1685 6.7749 10.6445 6.7749 11.2427C6.7749 11.8408 7.25098 12.3291 7.84912 12.3291ZM14.624 12.3291C15.2222 12.3291 15.7104 11.8408 15.7104 11.2427C15.7104 10.6445 15.2222 10.1685 14.624 10.1685C14.0259 10.1685 13.5498 10.6445 13.5498 11.2427C13.5498 11.8408 14.0259 12.3291 14.624 12.3291ZM18.0054 12.3291C18.6035 12.3291 19.0918 11.8408 19.0918 11.2427C19.0918 10.6445 18.6035 10.1685 18.0054 10.1685C17.4072 10.1685 16.9312 10.6445 16.9312 11.2427C16.9312 11.8408 17.4072 12.3291 18.0054 12.3291ZM21.3867 12.3291C21.9849 12.3291 22.4609 11.8408 22.4609 11.2427C22.4609 10.6445 21.9849 10.1685 21.3867 10.1685C20.7886 10.1685 20.3003 10.6445 20.3003 11.2427C20.3003 11.8408 20.7886 12.3291 21.3867 12.3291ZM0 21.521C0 22.1069 0.390625 22.4976 0.976562 22.4976L21.5088 22.4976C22.0947 22.4976 22.4731 22.1069 22.4731 21.521L22.4731 0.98877C22.4731 0.402832 22.0947 0.0244141 21.5088 0.0244141L0.976562 0.0244141C0.390625 0.0244141 0 0.402832 0 0.98877ZM1.96533 20.1782L1.96533 2.34375C1.96533 2.0752 2.06299 1.98975 2.31934 1.98975L20.1538 1.98975C20.4224 1.98975 20.5078 2.0752 20.5078 2.34375L20.5078 20.1782C20.5078 20.4346 20.4224 20.5322 20.1538 20.5322L2.31934 20.5322C2.06299 20.5322 1.96533 20.4346 1.96533 20.1782Z" fill="#5ac8f5"/>
 </g>
</svg>
