<?xml version="1.0" encoding="UTF-8"?>
<!--Generator: Apple Native CoreSVG 175.5-->
<!DOCTYPE svg
PUBLIC "-//W3C//DTD SVG 1.1//EN"
       "http://www.w3.org/Graphics/SVG/1.1/DTD/svg11.dtd">
<svg version="1.1" xmlns="http://www.w3.org/2000/svg" xmlns:xlink="http://www.w3.org/1999/xlink" width="24.9023" height="29.6406">
 <g>
  <rect height="29.6406" opacity="0" width="24.9023" x="0" y="0"/>
  <path d="M0 14.8142C0 21.6257 5.65186 27.2654 12.4512 27.2654C19.2627 27.2654 24.9023 21.6257 24.9023 14.8142C24.9023 10.7126 22.8271 7.02611 19.6899 4.7434C19.1528 4.32836 18.4814 4.46263 18.1763 4.96312C17.8711 5.47582 18.0298 6.04955 18.5303 6.42797C21.1304 8.28343 22.8149 11.3474 22.8271 14.8142C22.8394 20.5759 18.2129 25.1902 12.4512 25.1902C6.68945 25.1902 2.0874 20.5759 2.0874 14.8142C2.0874 9.87035 5.48096 5.76879 10.0952 4.71898L10.0952 6.46459C10.0952 7.33129 10.6934 7.56322 11.3647 7.08715L15.2588 4.35277C15.8081 3.97435 15.8203 3.38842 15.2588 2.98558L11.377 0.251208C10.6934-0.237073 10.0952-0.00513969 10.0952 0.873767L10.0952 2.59496C4.38232 3.718 0 8.80834 0 14.8142ZM8.28857 19.9656C10.5469 19.9656 11.7798 18.1467 11.7798 14.8508C11.7798 13.2517 11.438 12.0188 10.7788 11.2742C10.2295 10.6028 9.42383 10.2366 8.44727 10.2366C6.49414 10.2366 5.24902 11.5183 5.24902 13.5325C5.24902 15.3147 6.43311 16.572 8.08105 16.572C9.16748 16.572 10.0098 16.0227 10.376 15.156L10.3149 15.0705C10.3149 15.1194 10.3149 15.1804 10.3149 15.2292C10.3149 17.2434 9.50928 18.5618 8.27637 18.5618C7.69043 18.5618 7.20215 18.2688 6.92139 17.7683C6.71387 17.4387 6.51855 17.3044 6.20117 17.3044C5.81055 17.3044 5.49316 17.634 5.49316 18.0124C5.49316 18.1589 5.50537 18.281 5.59082 18.4519C5.83496 18.9524 6.67725 19.9656 8.28857 19.9656ZM8.49609 15.2781C7.48291 15.2781 6.79932 14.5578 6.79932 13.4592C6.79932 12.3118 7.4707 11.5915 8.49609 11.5915C9.49707 11.5915 10.1929 12.3728 10.1929 13.4836C10.1929 14.5456 9.49707 15.2781 8.49609 15.2781ZM16.5894 19.9534C18.6157 19.9534 19.9463 18.0369 19.9463 15.1072C19.9463 12.1531 18.6157 10.2121 16.5894 10.2121C14.5508 10.2121 13.2446 12.1531 13.2446 15.1194C13.2446 18.0491 14.563 19.9534 16.5894 19.9534ZM16.5894 18.4763C15.5151 18.4763 14.8315 17.1946 14.8315 15.1072C14.8315 12.9831 15.5029 11.6892 16.5894 11.6892C17.688 11.6892 18.3472 12.9709 18.3472 15.1072C18.3472 17.1946 17.6758 18.4763 16.5894 18.4763Z" fill="#5ac8f5"/>
 </g>
</svg>
