<?xml version="1.0" encoding="UTF-8"?>
<!--Generator: Apple Native CoreSVG 175.5-->
<!DOCTYPE svg
PUBLIC "-//W3C//DTD SVG 1.1//EN"
       "http://www.w3.org/Graphics/SVG/1.1/DTD/svg11.dtd">
<svg version="1.1" xmlns="http://www.w3.org/2000/svg" xmlns:xlink="http://www.w3.org/1999/xlink" width="24.9023" height="24.9146">
 <g>
  <rect height="24.9146" opacity="0" width="24.9023" x="0" y="0"/>
  <path d="M12.4512 24.9023C19.2627 24.9023 24.9023 19.2505 24.9023 12.4512C24.9023 5.63965 19.2505 0 12.439 0C5.63965 0 0 5.63965 0 12.4512C0 19.2505 5.65186 24.9023 12.4512 24.9023ZM4.65088 14.4165L4.65088 10.498L6.28662 10.498C6.51855 10.498 6.66504 10.6567 6.66504 10.8765L6.66504 14.0381C6.66504 14.2822 6.51855 14.4165 6.28662 14.4165ZM6.46973 17.7734C5.26123 17.7734 4.65088 17.1753 4.65088 15.9912L4.65088 15.3076L6.33545 15.3076C7.08008 15.3076 7.56836 14.8438 7.56836 14.0869L7.56836 10.8521C7.56836 10.083 7.08008 9.60693 6.33545 9.60693L4.65088 9.60693L4.65088 8.94775C4.65088 7.76367 5.26123 7.16553 6.46973 7.16553L11.9751 7.16553L11.9751 9.52148C10.5347 9.729 9.44824 10.9741 9.44824 12.4634C9.44824 13.9771 10.5347 15.2222 11.9751 15.4297L11.9751 17.7734ZM11.9751 14.5264C11.0229 14.3188 10.3394 13.501 10.3394 12.4634C10.3394 11.4502 11.0229 10.6323 11.9751 10.4248ZM12.8662 14.5264L12.8662 10.4248C13.8306 10.6323 14.5142 11.4502 14.5142 12.4634C14.5142 13.501 13.8306 14.3188 12.8662 14.5264ZM12.8662 17.7734L12.8662 15.4297C14.3188 15.2222 15.4053 13.9771 15.4053 12.4634C15.4053 10.9741 14.3188 9.729 12.8662 9.52148L12.8662 7.16553L18.4082 7.16553C19.6167 7.16553 20.2271 7.76367 20.2271 8.94775L20.2271 9.60693L18.5425 9.60693C17.7979 9.60693 17.3218 10.083 17.3218 10.8521L17.3218 14.0869C17.3218 14.8438 17.7979 15.3076 18.5425 15.3076L20.2271 15.3076L20.2271 15.9912C20.2271 17.1753 19.6167 17.7734 18.4082 17.7734ZM20.2271 14.4165L18.5913 14.4165C18.3716 14.4165 18.2251 14.2822 18.2251 14.0381L18.2251 10.8765C18.2251 10.6567 18.3716 10.498 18.5913 10.498L20.2271 10.498Z" fill="#5ac8f5"/>
 </g>
</svg>
