<?xml version="1.0" encoding="UTF-8"?>
<!--Generator: Apple Native CoreSVG 175.5-->
<!DOCTYPE svg
PUBLIC "-//W3C//DTD SVG 1.1//EN"
       "http://www.w3.org/Graphics/SVG/1.1/DTD/svg11.dtd">
<svg version="1.1" xmlns="http://www.w3.org/2000/svg" xmlns:xlink="http://www.w3.org/1999/xlink" width="24.9023" height="24.9146">
 <g>
  <rect height="24.9146" opacity="0" width="24.9023" x="0" y="0"/>
  <path d="M12.4512 24.9023C19.2627 24.9023 24.9023 19.2505 24.9023 12.4512C24.9023 5.63965 19.2505 0 12.439 0C5.63965 0 0 5.63965 0 12.4512C0 19.2505 5.65186 24.9023 12.4512 24.9023Z" fill="#5ac8f5" fill-opacity="0.25"/>
  <path d="M12.4512 19.1284C9.60693 19.1284 7.69043 17.2852 7.69043 14.5264C7.69043 13.147 8.27637 11.9385 8.6792 11.0107C9.43604 9.38721 10.6689 7.36084 11.731 5.7251C11.9507 5.40771 12.1704 5.27344 12.4512 5.27344C12.7319 5.27344 12.9395 5.40771 13.1714 5.7251C14.2212 7.36084 15.4541 9.38721 16.2109 11.0107C16.626 11.9385 17.1997 13.147 17.1997 14.5264C17.1997 17.2852 15.2954 19.1284 12.4512 19.1284Z" fill="#5ac8f5"/>
 </g>
</svg>
