<?xml version="1.0" encoding="UTF-8"?>
<!--Generator: Apple Native CoreSVG 175.5-->
<!DOCTYPE svg
PUBLIC "-//W3C//DTD SVG 1.1//EN"
       "http://www.w3.org/Graphics/SVG/1.1/DTD/svg11.dtd">
<svg version="1.1" xmlns="http://www.w3.org/2000/svg" xmlns:xlink="http://www.w3.org/1999/xlink" width="29.9072" height="25.5981">
 <g>
  <rect height="25.5981" opacity="0" width="29.9072" x="0" y="0"/>
  <path d="M3.83301 16.7847L26.0742 16.7847C28.6377 16.7847 29.9072 15.5151 29.9072 13.0005L29.9072 3.78418C29.9072 1.26953 28.6377 0 26.0742 0L3.83301 0C1.28174 0 0 1.25732 0 3.78418L0 13.0005C0 15.5273 1.28174 16.7847 3.83301 16.7847ZM3.85742 14.8193C2.63672 14.8193 1.96533 14.1602 1.96533 12.9028L1.96533 3.88184C1.96533 2.6123 2.63672 1.96533 3.85742 1.96533L26.0376 1.96533C27.2461 1.96533 27.9419 2.6123 27.9419 3.88184L27.9419 12.9028C27.9419 14.1602 27.2461 14.8193 26.0376 14.8193Z" fill="#5ac8f5" fill-opacity="0.5"/>
  <path d="M5.41992 8.30078C5.15137 8.69141 5.3833 9.24072 5.92041 9.24072L10.1318 9.24072C10.6689 9.24072 10.9009 8.69141 10.6323 8.30078L8.58154 5.28564C8.44727 5.06592 8.26416 4.95605 8.03223 4.95605C7.80029 4.95605 7.61719 5.06592 7.4707 5.28564ZM9.52148 23.5474C8.92334 22.7539 8.70361 22.2534 8.70361 21.3745C8.70361 19.2261 10.7178 18.0664 10.7178 15.2588C10.7178 12.7075 8.82568 12.0728 8.82568 9.06982L8.82568 8.55713L7.22656 8.55713L7.22656 9.06982C7.22656 12.8662 9.11865 13.2935 9.11865 15.2588C9.11865 17.7002 7.10449 18.6646 7.10449 21.4966C7.10449 22.644 7.4585 23.5107 8.22754 24.4873C8.89893 25.3296 10.2173 24.4873 9.52148 23.5474ZM12.3413 8.30078C12.0728 8.69141 12.3169 9.24072 12.854 9.24072L17.0532 9.24072C17.5903 9.24072 17.8223 8.69141 17.5537 8.30078L15.5151 5.28564C15.3687 5.06592 15.1855 4.95605 14.9536 4.95605C14.7217 4.95605 14.5386 5.06592 14.3921 5.28564ZM16.4429 23.5474C15.8447 22.7539 15.6372 22.2534 15.6372 21.3745C15.6372 19.2261 17.6392 18.0664 17.6392 15.2588C17.6392 12.7075 15.7471 12.0728 15.7471 9.06982L15.7471 8.55713L14.1479 8.55713L14.1479 9.06982C14.1479 12.8662 16.04 13.2935 16.04 15.2588C16.04 17.7002 14.0381 18.6646 14.0381 21.4966C14.0381 22.644 14.3921 23.5107 15.1489 24.4873C15.8203 25.3296 17.1509 24.4873 16.4429 23.5474ZM19.2749 8.30078C19.0063 8.69141 19.2383 9.24072 19.7754 9.24072L23.9868 9.24072C24.5239 9.24072 24.7559 8.69141 24.4873 8.30078L22.4365 5.28564C22.29 5.06592 22.1069 4.95605 21.875 4.95605C21.6431 4.95605 21.46 5.06592 21.3135 5.28564ZM23.3643 23.5474C22.7783 22.7539 22.5586 22.2534 22.5586 21.3745C22.5586 19.2261 24.5728 18.0664 24.5728 15.2588C24.5728 12.7075 22.6807 12.0728 22.6807 9.06982L22.6807 8.55713L21.0815 8.55713L21.0815 9.06982C21.0815 12.8662 22.9736 13.2935 22.9736 15.2588C22.9736 17.7002 20.9595 18.6646 20.9595 21.4966C20.9595 22.644 21.3135 23.5107 22.0825 24.4873C22.7417 25.3296 24.0723 24.4873 23.3643 23.5474Z" fill="#5ac8f5"/>
 </g>
</svg>
