<?xml version="1.0" encoding="UTF-8"?>
<!--Generator: Apple Native CoreSVG 175.5-->
<!DOCTYPE svg
PUBLIC "-//W3C//DTD SVG 1.1//EN"
       "http://www.w3.org/Graphics/SVG/1.1/DTD/svg11.dtd">
<svg version="1.1" xmlns="http://www.w3.org/2000/svg" xmlns:xlink="http://www.w3.org/1999/xlink" width="24.9023" height="24.9146">
 <g>
  <rect height="24.9146" opacity="0" width="24.9023" x="0" y="0"/>
  <path d="M12.4512 24.9023C19.2627 24.9023 24.9023 19.2505 24.9023 12.4512C24.9023 5.63965 19.2505 0 12.439 0C5.63965 0 0 5.63965 0 12.4512C0 19.2505 5.65186 24.9023 12.4512 24.9023ZM18.3594 6.50635C19.9829 8.11768 19.7632 10.9009 17.8955 12.7808C16.8091 13.855 15.4541 14.2822 14.1235 14.3311C12.3779 14.3677 11.3403 14.5142 9.87549 15.8081C9.98535 16.0767 9.93652 16.3696 9.70459 16.6016L7.21436 19.104C6.92139 19.4092 6.45752 19.4092 6.17676 19.104L5.74951 18.6646C5.44434 18.3594 5.45654 17.9443 5.74951 17.6514L8.25195 15.1367C8.48389 14.8926 8.81348 14.8438 9.08203 14.9902C10.3638 13.5132 10.5103 12.4634 10.5347 10.73C10.5469 9.42383 11.0107 8.04443 12.0728 6.95801C13.9526 5.10254 16.7358 4.89502 18.3594 6.50635ZM14.3311 6.7749L15.1001 7.53174L16.0889 6.54297C15.5273 6.44531 14.917 6.53076 14.3311 6.7749ZM15.7227 8.17871L16.7847 9.22852L18.042 7.94678C17.9199 7.71484 17.7612 7.49512 17.5659 7.2876C17.395 7.12891 17.2119 6.98242 17.0288 6.87256ZM17.4194 9.87549L18.0908 10.5469C18.3105 10.022 18.396 9.47266 18.3228 8.97217ZM12.3779 8.3374L13.3301 9.28955L14.4531 8.17871L13.5132 7.23877C13.2935 7.38525 13.0737 7.55615 12.8784 7.75146C12.6831 7.94678 12.5244 8.14209 12.3779 8.3374ZM13.9648 9.93652L15.0269 10.9985L16.1499 9.87549L15.1001 8.82568ZM15.6616 11.6333L16.5161 12.4878C16.7114 12.3535 16.9189 12.1826 17.1021 11.9873C17.2974 11.792 17.4927 11.5723 17.6392 11.3647L16.7969 10.5103ZM11.6577 10.9741L12.6953 9.93652L11.9141 9.16748C11.6455 9.76562 11.5601 10.3882 11.6577 10.9741ZM11.9995 11.9141C12.0972 12.1094 12.2437 12.2803 12.4146 12.4512C12.6099 12.6587 12.8418 12.8174 13.0981 12.9395L14.3921 11.6333L13.3423 10.5713ZM14.0869 13.208C14.6118 13.269 15.1611 13.1836 15.6982 12.9517L15.0269 12.2681Z" fill="#5ac8f5"/>
 </g>
</svg>
