<?xml version="1.0" encoding="UTF-8"?>
<!--Generator: Apple Native CoreSVG 175.5-->
<!DOCTYPE svg
PUBLIC "-//W3C//DTD SVG 1.1//EN"
       "http://www.w3.org/Graphics/SVG/1.1/DTD/svg11.dtd">
<svg version="1.1" xmlns="http://www.w3.org/2000/svg" xmlns:xlink="http://www.w3.org/1999/xlink" width="22.4731" height="18.4204">
 <g>
  <rect height="18.4204" opacity="0" width="22.4731" x="0" y="0"/>
  <path d="M0 17.4316C0 17.9688 0.439453 18.4204 0.976562 18.4204C1.52588 18.4204 1.96533 17.9688 1.96533 17.4316L1.96533 1.00098C1.96533 0.463867 1.52588 0.0244141 0.976562 0.0244141C0.439453 0.0244141 0 0.463867 0 1.00098ZM20.5078 17.4316C20.5078 17.9688 20.9595 18.4204 21.4966 18.4204C22.0337 18.4204 22.4731 17.9688 22.4731 17.4316L22.4731 1.00098C22.4731 0.463867 22.0337 0.0244141 21.4966 0.0244141C20.9595 0.0244141 20.5078 0.463867 20.5078 1.00098ZM11.3403 15.0146C13.7939 15.0146 15.5273 13.5864 15.5273 11.084C15.5273 8.76465 13.7695 7.4707 11.8408 7.4707C10.2051 7.4707 9.25293 8.30078 8.8623 9.17969C8.82568 9.17969 8.78906 9.17969 8.76465 9.17969C8.76465 9.13086 8.76465 9.09424 8.76465 9.05762C8.76465 6.55518 9.8999 4.94385 11.5723 4.94385C12.4268 4.94385 12.9028 5.32227 13.2568 5.74951C13.6475 6.14014 13.8794 6.34766 14.3066 6.34766C14.7095 6.34766 15.0391 6.05469 15.0391 5.62744C15.0391 5.43213 15.0024 5.26123 14.9292 5.09033C14.5386 4.18701 13.2202 3.39355 11.6455 3.39355C8.76465 3.39355 6.97021 5.40771 6.97021 9.47266C6.97021 11.1572 7.27539 12.3779 7.77588 13.1958C8.56934 14.4897 9.8999 15.0146 11.3403 15.0146ZM11.2549 13.5498C9.8999 13.5498 8.91113 12.5488 8.91113 11.1572C8.91113 9.81445 9.8877 8.8623 11.2671 8.8623C12.6587 8.8623 13.6108 9.80225 13.6108 11.1694C13.6108 12.6099 12.6953 13.5498 11.2549 13.5498Z" fill="#5ac8f5"/>
 </g>
</svg>
