<?xml version="1.0" encoding="UTF-8"?>
<!--Generator: Apple Native CoreSVG 175.5-->
<!DOCTYPE svg
PUBLIC "-//W3C//DTD SVG 1.1//EN"
       "http://www.w3.org/Graphics/SVG/1.1/DTD/svg11.dtd">
<svg version="1.1" xmlns="http://www.w3.org/2000/svg" xmlns:xlink="http://www.w3.org/1999/xlink" width="21.7041" height="21.5454">
 <g>
  <rect height="21.5454" opacity="0" width="21.7041" x="0" y="0"/>
  <path d="M2.47803 15.7349L5.98145 15.7349C6.09131 15.7349 6.18896 15.7715 6.27441 15.8447L11.7798 20.7764C12.3535 21.3013 12.8174 21.5454 13.3911 21.5454C14.1846 21.5454 14.7705 20.9717 14.7705 20.1782L14.7705 1.45264C14.7705 0.65918 14.1846 0.012207 13.3667 0.012207C12.793 0.012207 12.4146 0.280762 11.7798 0.854492L6.27441 5.7373C6.18896 5.81055 6.09131 5.84717 5.98145 5.84717L2.47803 5.84717C0.817871 5.84717 0 6.68945 0 8.45947L0 13.1348C0 14.9048 0.830078 15.7349 2.47803 15.7349ZM2.56348 13.9526C2.11182 13.9526 1.9043 13.7451 1.9043 13.2935L1.9043 8.30078C1.9043 7.83691 2.11182 7.62939 2.56348 7.62939L6.46973 7.62939C6.78711 7.62939 7.03125 7.56836 7.31201 7.31201L12.5122 2.58789C12.5732 2.52686 12.6343 2.49023 12.7197 2.49023C12.8052 2.49023 12.8784 2.55127 12.8784 2.66113L12.8784 18.8843C12.8784 18.9941 12.8052 19.0674 12.7197 19.0674C12.6587 19.0674 12.5854 19.0308 12.5122 18.9697L7.31201 14.27C7.03125 14.0259 6.78711 13.9526 6.46973 13.9526ZM18.8965 15.979C19.2993 16.2598 19.873 16.1743 20.2026 15.6982C21.1426 14.4653 21.7041 12.6465 21.7041 10.7788C21.7041 8.91113 21.1426 7.10449 20.2026 5.85938C19.873 5.3833 19.2993 5.28564 18.8965 5.57861C18.396 5.92041 18.3228 6.53076 18.7012 7.03125C19.4092 8.00781 19.812 9.36279 19.812 10.7788C19.812 12.1948 19.397 13.5376 18.7012 14.5264C18.335 15.0391 18.396 15.625 18.8965 15.979Z" fill="#5ac8f5"/>
 </g>
</svg>
