<?xml version="1.0" encoding="UTF-8"?>
<!--Generator: Apple Native CoreSVG 175.5-->
<!DOCTYPE svg
PUBLIC "-//W3C//DTD SVG 1.1//EN"
       "http://www.w3.org/Graphics/SVG/1.1/DTD/svg11.dtd">
<svg version="1.1" xmlns="http://www.w3.org/2000/svg" xmlns:xlink="http://www.w3.org/1999/xlink" width="27.6855" height="25.5737">
 <g>
  <rect height="25.5737" opacity="0" width="27.6855" x="0" y="0"/>
  <path d="M5.29785 25.5737C6.9458 25.5737 10.3149 23.9136 12.793 22.1436C21.3013 22.3755 27.6855 17.4927 27.6855 11.0962C27.6855 4.95605 21.5332 0 13.8428 0C6.15234 0 0 4.95605 0 11.0962C0 15.1001 2.56348 18.6523 6.4209 20.4346C5.87158 21.4966 4.84619 22.937 4.29688 23.6572C3.6499 24.5117 4.04053 25.5737 5.29785 25.5737ZM6.57959 23.5474C6.48193 23.584 6.44531 23.5107 6.50635 23.4253C7.18994 22.583 8.1665 21.3135 8.58154 20.5322C8.92334 19.8975 8.83789 19.3359 8.05664 18.9697C4.22363 17.1875 2.02637 14.3433 2.02637 11.0962C2.02637 6.09131 7.26318 2.01416 13.8428 2.01416C20.4346 2.01416 25.6714 6.09131 25.6714 11.0962C25.6714 16.0889 20.4346 20.166 13.8428 20.166C13.5986 20.166 13.2202 20.1538 12.7319 20.1416C12.2192 20.1416 11.8286 20.3003 11.3647 20.6665C9.86328 21.7529 7.69043 23.0957 6.57959 23.5474Z" fill="#5ac8f5" fill-opacity="0.5"/>
  <path d="M8.1543 12.9883C9.13086 12.9883 9.92432 12.1826 9.92432 11.2061C9.92432 10.2295 9.11865 9.43604 8.1543 9.43604C7.16553 9.43604 6.37207 10.2295 6.37207 11.2061C6.37207 12.1826 7.16553 12.9883 8.1543 12.9883Z" fill="#5ac8f5"/>
  <path d="M13.8428 12.9883C14.8193 12.9883 15.625 12.1826 15.625 11.2061C15.625 10.2295 14.8193 9.43604 13.8428 9.43604C12.8662 9.43604 12.0605 10.2295 12.0605 11.2061C12.0605 12.1826 12.8662 12.9883 13.8428 12.9883Z" fill="#5ac8f5"/>
  <path d="M19.5435 12.9883C20.52 12.9883 21.3135 12.1826 21.3135 11.2061C21.3135 10.2295 20.52 9.43604 19.5435 9.43604C18.5547 9.43604 17.7612 10.2295 17.7612 11.2061C17.7612 12.1826 18.5547 12.9883 19.5435 12.9883Z" fill="#5ac8f5"/>
 </g>
</svg>
