<?xml version="1.0" encoding="UTF-8"?>
<!--Generator: Apple Native CoreSVG 175.5-->
<!DOCTYPE svg
PUBLIC "-//W3C//DTD SVG 1.1//EN"
       "http://www.w3.org/Graphics/SVG/1.1/DTD/svg11.dtd">
<svg version="1.1" xmlns="http://www.w3.org/2000/svg" xmlns:xlink="http://www.w3.org/1999/xlink" width="24.9023" height="24.9146">
 <g>
  <rect height="24.9146" opacity="0" width="24.9023" x="0" y="0"/>
  <path d="M12.4512 24.9023C19.2627 24.9023 24.9023 19.2505 24.9023 12.4512C24.9023 5.63965 19.2505 0 12.439 0C5.63965 0 0 5.63965 0 12.4512C0 19.2505 5.65186 24.9023 12.4512 24.9023ZM12.4512 22.8271C6.68945 22.8271 2.0874 18.2129 2.0874 12.4512C2.0874 6.68945 6.67725 2.0752 12.439 2.0752C18.2007 2.0752 22.8271 6.68945 22.8271 12.4512C22.8271 18.2129 18.2129 22.8271 12.4512 22.8271ZM8.17871 10.1562C9.10645 10.1562 9.85107 9.38721 9.85107 8.45947C9.85107 7.54395 9.10645 6.7749 8.17871 6.7749C7.25098 6.7749 6.49414 7.54395 6.49414 8.45947C6.49414 9.38721 7.25098 10.1562 8.17871 10.1562ZM12.439 10.1562C13.3667 10.1562 14.1235 9.38721 14.1235 8.45947C14.1235 7.53174 13.3667 6.7749 12.439 6.7749C11.5112 6.78711 10.7422 7.53174 10.7422 8.45947C10.7422 9.38721 11.5112 10.1562 12.439 10.1562ZM16.6992 10.1562C17.627 10.1562 18.3838 9.38721 18.3838 8.45947C18.3838 7.53174 17.627 6.7749 16.6992 6.7749C15.7715 6.78711 15.0269 7.53174 15.0269 8.45947C15.0269 9.38721 15.7715 10.1562 16.6992 10.1562ZM8.17871 14.1357C9.10645 14.1357 9.85107 13.3667 9.85107 12.439C9.85107 11.5112 9.10645 10.7544 8.17871 10.7666C7.25098 10.7666 6.49414 11.5112 6.49414 12.439C6.49414 13.3667 7.25098 14.1357 8.17871 14.1357ZM12.439 14.1357C13.3667 14.1357 14.1235 13.3667 14.1235 12.439C14.1235 11.5112 13.3667 10.7544 12.439 10.7666C11.5112 10.7666 10.7422 11.5112 10.7422 12.439C10.7422 13.3667 11.5112 14.1357 12.439 14.1357ZM16.6992 14.1357C17.627 14.1357 18.3838 13.3667 18.3838 12.439C18.3838 11.5112 17.627 10.7544 16.6992 10.7666C15.7715 10.7666 15.0269 11.5112 15.0269 12.439C15.0269 13.3667 15.7715 14.1357 16.6992 14.1357ZM8.17871 18.1152C9.10645 18.1152 9.85107 17.3584 9.85107 16.4307C9.85107 15.5029 9.10645 14.7339 8.17871 14.7339C7.25098 14.7339 6.49414 15.5029 6.49414 16.4307C6.49414 17.3462 7.25098 18.1152 8.17871 18.1152ZM12.439 18.1152C13.3667 18.1152 14.1235 17.3462 14.1235 16.4307C14.1235 15.5029 13.3667 14.7339 12.439 14.7339C11.5112 14.7339 10.7422 15.5029 10.7422 16.4307C10.7422 17.3462 11.5112 18.1152 12.439 18.1152ZM16.6992 18.1152C17.627 18.1152 18.3838 17.3462 18.3838 16.4307C18.3838 15.5029 17.627 14.7339 16.6992 14.7339C15.7715 14.7339 15.0269 15.5029 15.0269 16.4307C15.0269 17.3462 15.7715 18.1152 16.6992 18.1152Z" fill="#5ac8f5"/>
 </g>
</svg>
