<?xml version="1.0" encoding="UTF-8"?>
<!--Generator: Apple Native CoreSVG 175.5-->
<!DOCTYPE svg
PUBLIC "-//W3C//DTD SVG 1.1//EN"
       "http://www.w3.org/Graphics/SVG/1.1/DTD/svg11.dtd">
<svg version="1.1" xmlns="http://www.w3.org/2000/svg" xmlns:xlink="http://www.w3.org/1999/xlink" width="24.3134" height="27.9907">
 <g>
  <rect height="27.9907" opacity="0" width="24.3134" x="0" y="0"/>
  <path d="M13.0096 26.5747C15.0238 26.5747 16.7816 26.0498 18.2098 25.0122L17.0013 23.8159C15.8295 24.5361 14.4745 24.8779 12.9486 24.8779C8.62732 24.8779 5.9906 22.1069 5.9906 17.1997L5.9906 12.8296L4.37927 11.2183L4.37927 17.395C4.37927 23.1079 7.84607 26.5747 13.0096 26.5747ZM20.0287 20.166L21.225 21.3623C21.4813 20.8374 21.7377 20.2759 21.9452 19.6655L24.0936 13.623C24.2401 13.2202 24.3134 12.8296 24.3134 12.4512C24.3011 11.2427 23.4467 10.2539 22.0306 10.2539C21.225 10.2539 20.4926 10.7544 20.0775 11.7188L19.2841 13.6597C19.2596 13.7207 19.223 13.7451 19.1742 13.7451C19.1132 13.7451 19.0887 13.7085 19.0887 13.6353L19.0887 3.84521C19.0887 2.4292 18.1976 1.52588 16.8304 1.52588C16.33 1.52588 15.8783 1.69678 15.5365 2.02637C15.3778 0.769043 14.5721 0 13.3636 0C12.1796 0 11.3495 0.793457 11.1664 2.00195C10.8612 1.68457 10.4218 1.52588 9.9823 1.52588C8.71277 1.52588 7.87048 2.41699 7.87048 3.75977L7.87048 5.12695C7.54089 4.77295 7.04041 4.58984 6.52771 4.58984C5.92957 4.58984 5.42908 4.84619 5.13611 5.27344L6.45447 6.5918L6.45447 6.50635C6.49109 6.31104 6.61316 6.18896 6.83289 6.18896C7.33337 6.18896 7.69958 6.55518 7.69958 7.08008L7.69958 7.83691L9.24988 9.39941L9.24988 3.97949C9.24988 3.4668 9.57947 3.10059 10.08 3.10059C10.5927 3.10059 10.9467 3.4668 10.9467 3.97949L10.9467 11.084L12.4969 12.6343L12.4969 2.47803C12.4969 1.95312 12.851 1.57471 13.3636 1.57471C13.8519 1.57471 14.2059 1.95312 14.2059 2.47803L14.2059 12.6953C14.2059 13.1226 14.5477 13.4399 14.975 13.4399C15.39 13.4399 15.7562 13.1226 15.7562 12.6953L15.7562 3.97949C15.7562 3.4668 16.1102 3.10059 16.6107 3.10059C17.1112 3.10059 17.4652 3.4668 17.4652 3.97949L17.4652 16.0034C17.4652 16.5527 17.8192 16.9678 18.3319 16.9678C18.7714 16.9678 19.1376 16.7725 19.4183 16.1621L21.1395 12.3291C21.3837 11.7554 21.8109 11.5234 22.2626 11.6821C22.7386 11.8286 22.8973 12.3169 22.6776 12.9395L20.4559 19.1528C20.3217 19.5068 20.1874 19.8486 20.0287 20.166ZM21.9696 26.7578C22.3236 27.1118 22.9462 27.124 23.3002 26.7578C23.6542 26.3794 23.6664 25.7935 23.3002 25.4272L1.60828 3.74756C1.24207 3.38135 0.643921 3.38135 0.265503 3.74756C-0.088501 4.11377-0.088501 4.72412 0.265503 5.07812Z" fill="#5ac8f5"/>
 </g>
</svg>
