<?xml version="1.0" encoding="UTF-8"?>
<!--Generator: Apple Native CoreSVG 175.5-->
<!DOCTYPE svg
PUBLIC "-//W3C//DTD SVG 1.1//EN"
       "http://www.w3.org/Graphics/SVG/1.1/DTD/svg11.dtd">
<svg version="1.1" xmlns="http://www.w3.org/2000/svg" xmlns:xlink="http://www.w3.org/1999/xlink" width="26.5015" height="26.5991">
 <g>
  <rect height="26.5991" opacity="0" width="26.5015" x="0" y="0"/>
  <path d="M14.3188 1.06201C14.3188 0.488281 13.8306 0 13.2446 0C12.6709 0 12.1826 0.488281 12.1826 1.06201L12.1826 4.82178C12.1826 5.40771 12.6709 5.896 13.2446 5.896C13.8306 5.896 14.3188 5.40771 14.3188 4.82178ZM18.4204 6.57959C18.0054 6.98242 18.0054 7.66602 18.4204 8.08105C18.8232 8.48389 19.519 8.48389 19.9341 8.08105L22.583 5.41992C22.998 5.00488 22.998 4.32129 22.583 3.90625C22.1802 3.50342 21.4966 3.50342 21.0938 3.90625ZM25.4272 14.3066C26.0132 14.3066 26.5015 13.8184 26.5015 13.2446C26.5015 12.6709 26.0132 12.1826 25.4272 12.1826L21.6675 12.1826C21.0938 12.1826 20.6055 12.6709 20.6055 13.2446C20.6055 13.8184 21.0938 14.3066 21.6675 14.3066ZM19.9341 18.4082C19.519 18.0054 18.8232 18.0054 18.4204 18.4082C18.0054 18.8232 18.0054 19.5068 18.4204 19.9097L21.0938 22.583C21.4966 22.9858 22.1802 22.9736 22.583 22.583C22.998 22.1802 22.998 21.4844 22.583 21.0693ZM14.3188 21.6675C14.3188 21.0815 13.8306 20.5933 13.2446 20.5933C12.6709 20.5933 12.1826 21.0815 12.1826 21.6675L12.1826 25.4272C12.1826 26.001 12.6709 26.4893 13.2446 26.4893C13.8306 26.4893 14.3188 26.001 14.3188 25.4272ZM3.90625 21.0693C3.50342 21.4722 3.50342 22.168 3.89404 22.5708C4.29688 22.9736 4.99268 22.9858 5.40771 22.583L8.06885 19.9219C8.47168 19.519 8.47168 18.8354 8.06885 18.4326C7.67822 18.0176 6.97021 18.0176 6.56738 18.4326ZM1.06201 12.1826C0.488281 12.1826 0 12.6709 0 13.2446C0 13.8184 0.488281 14.3066 1.06201 14.3066L4.84619 14.3066C5.41992 14.3066 5.9082 13.8184 5.9082 13.2446C5.9082 12.6709 5.41992 12.1826 4.84619 12.1826ZM6.44531 7.95898C6.84814 8.36182 7.53174 8.36182 7.94678 7.95898C8.34961 7.54395 8.34961 6.86035 7.94678 6.45752L5.29785 3.79639C4.89502 3.39355 4.21143 3.38135 3.79639 3.78418C3.39355 4.18701 3.39355 4.87061 3.79639 5.28564Z" fill="#5ac8f5"/>
 </g>
</svg>
