<?xml version="1.0" encoding="UTF-8"?>
<!--Generator: Apple Native CoreSVG 175.5-->
<!DOCTYPE svg
PUBLIC "-//W3C//DTD SVG 1.1//EN"
       "http://www.w3.org/Graphics/SVG/1.1/DTD/svg11.dtd">
<svg version="1.1" xmlns="http://www.w3.org/2000/svg" xmlns:xlink="http://www.w3.org/1999/xlink" width="26.9043" height="26.8188">
 <g>
  <rect height="26.8188" opacity="0" width="26.9043" x="0" y="0"/>
  <path d="M7.50732 26.8188C8.10547 26.8188 8.52051 26.5015 9.26514 25.8423L13.4766 22.0947L21.3135 22.0947C24.9512 22.0947 26.9043 20.0806 26.9043 16.5039L26.9043 7.15332C26.9043 3.57666 24.9512 1.5625 21.3135 1.5625L5.59082 1.5625C1.95312 1.5625 0 3.56445 0 7.15332L0 16.5039C0 20.0928 1.95312 22.0947 5.59082 22.0947L6.17676 22.0947L6.17676 25.2686C6.17676 26.2085 6.65283 26.8188 7.50732 26.8188ZM8.00781 24.585L8.00781 21.0449C8.00781 20.3857 7.75146 20.1294 7.09229 20.1294L5.59082 20.1294C3.125 20.1294 1.96533 18.8721 1.96533 16.4917L1.96533 7.15332C1.96533 4.77295 3.125 3.52783 5.59082 3.52783L21.3135 3.52783C23.7671 3.52783 24.939 4.77295 24.939 7.15332L24.939 16.4917C24.939 18.8721 23.7671 20.1294 21.3135 20.1294L13.4033 20.1294C12.7197 20.1294 12.3779 20.2271 11.9141 20.7031ZM7.80029 11.8286C7.80029 12.4268 8.22754 12.8296 8.8501 12.8296L12.439 12.8296L12.439 16.4307C12.439 17.041 12.854 17.4683 13.4399 17.4683C14.0625 17.4683 14.4775 17.0532 14.4775 16.4307L14.4775 12.8296L18.0786 12.8296C18.689 12.8296 19.1162 12.4268 19.1162 11.8286C19.1162 11.2183 18.7012 10.791 18.0786 10.791L14.4775 10.791L14.4775 7.20215C14.4775 6.57959 14.0625 6.15234 13.4399 6.15234C12.854 6.15234 12.439 6.57959 12.439 7.20215L12.439 10.791L8.8501 10.791C8.22754 10.791 7.80029 11.2183 7.80029 11.8286Z" fill="#5ac8f5"/>
 </g>
</svg>
