<?xml version="1.0" encoding="UTF-8"?>
<!--Generator: Apple Native CoreSVG 175.5-->
<!DOCTYPE svg
PUBLIC "-//W3C//DTD SVG 1.1//EN"
       "http://www.w3.org/Graphics/SVG/1.1/DTD/svg11.dtd">
<svg version="1.1" xmlns="http://www.w3.org/2000/svg" xmlns:xlink="http://www.w3.org/1999/xlink" width="34.8389" height="23.8159">
 <g>
  <rect height="23.8159" opacity="0" width="34.8389" x="0" y="0"/>
  <path d="M12.7197 14.3188C12.7197 17.2974 14.6484 19.1162 17.395 19.1162C19.4702 19.1162 20.8984 18.2861 21.8384 16.3208C22.3633 15.3198 22.7539 14.0991 23.1689 12.7075C23.3521 12.1338 23.6084 11.438 23.6084 11.1328C23.6084 10.7544 23.3276 10.498 22.9248 10.498C22.4854 10.498 22.229 10.7666 21.9116 11.3892L20.9595 13.4033C20.8862 13.6108 20.7764 13.6963 20.6665 13.6963C20.52 13.6963 20.4468 13.5986 20.4468 13.3911L20.4468 6.26221C20.4468 5.85938 20.105 5.51758 19.7021 5.51758C19.2871 5.51758 18.9575 5.85938 18.9575 6.26221L18.9575 11.3159C18.7744 11.2671 18.5791 11.1938 18.3838 11.1572L18.3838 5.27344C18.3838 4.8584 18.0542 4.52881 17.6392 4.52881C17.2241 4.52881 16.8945 4.8584 16.8945 5.27344L16.8945 11.084C16.687 11.1206 16.4795 11.1206 16.2964 11.1572L16.2964 5.85938C16.2964 5.44434 15.9424 5.11475 15.5396 5.11475C15.1245 5.11475 14.7949 5.44434 14.7949 5.85938L14.7949 11.6455C14.5752 11.731 14.4043 11.853 14.2212 11.9629L14.2212 7.9834C14.2212 7.56836 13.8794 7.22656 13.4766 7.22656C13.0615 7.22656 12.7197 7.56836 12.7197 7.9834ZM17.4194 23.8037C23.9258 23.8037 29.3335 18.4082 29.3335 11.9019C29.3335 5.39551 23.9258 0 17.4072 0C10.9009 0 5.51758 5.3833 5.51758 11.9019C5.51758 18.4082 10.9131 23.8037 17.4194 23.8037ZM17.4194 21.7285C11.9751 21.7285 7.60498 17.3584 7.60498 11.9019C7.60498 6.43311 11.9629 2.06299 17.4072 2.06299C22.8638 2.06299 27.2461 6.43311 27.2583 11.9019C27.2705 17.3462 22.8882 21.7285 17.4194 21.7285ZM0 11.9019C0 15.7715 1.25732 19.3237 3.38135 22.2168C3.75977 22.7417 4.40674 22.7905 4.89502 22.3999C5.33447 22.0215 5.39551 21.4355 5.0415 20.9473C3.18604 18.4204 2.0874 15.2832 2.0874 11.9019C2.0874 8.5083 3.18604 5.3833 5.0415 2.83203C5.39551 2.36816 5.34668 1.77002 4.89502 1.3916C4.40674 1.00098 3.75977 1.06201 3.38135 1.57471C1.25732 4.46777 0 8.03223 0 11.9019ZM34.8389 11.9019C34.8389 8.03223 33.5938 4.46777 31.4575 1.57471C31.0791 1.06201 30.4321 1.00098 29.9438 1.3916C29.4922 1.77002 29.4556 2.36816 29.7974 2.83203C31.665 5.3833 32.7515 8.5083 32.7515 11.9019C32.7515 15.2832 31.665 18.4204 29.7974 20.9473C29.4556 21.4355 29.5044 22.0215 29.9438 22.3999C30.4321 22.7905 31.0791 22.7417 31.4575 22.2168C33.5938 19.3237 34.8389 15.7715 34.8389 11.9019Z" fill="#5ac8f5"/>
 </g>
</svg>
