<?xml version="1.0" encoding="UTF-8"?>
<!--Generator: Apple Native CoreSVG 175.5-->
<!DOCTYPE svg
PUBLIC "-//W3C//DTD SVG 1.1//EN"
       "http://www.w3.org/Graphics/SVG/1.1/DTD/svg11.dtd">
<svg version="1.1" xmlns="http://www.w3.org/2000/svg" xmlns:xlink="http://www.w3.org/1999/xlink" width="24.9023" height="24.9146">
 <g>
  <rect height="24.9146" opacity="0" width="24.9023" x="0" y="0"/>
  <path d="M12.4512 24.9023C19.2627 24.9023 24.9023 19.2505 24.9023 12.4512C24.9023 5.63965 19.2505 0 12.439 0C5.63965 0 0 5.63965 0 12.4512C0 19.2505 5.65186 24.9023 12.4512 24.9023ZM12.4512 22.8271C6.68945 22.8271 2.0874 18.2129 2.0874 12.4512C2.0874 6.68945 6.67725 2.0752 12.439 2.0752C18.2007 2.0752 22.8271 6.68945 22.8271 12.4512C22.8271 18.2129 18.2129 22.8271 12.4512 22.8271ZM16.2598 9.42383C15.7227 9.42383 15.3687 9.79004 15.3687 10.376L15.3687 12.4878L15.5518 14.3921L13.7939 12.5122L9.30176 8.02002C9.11865 7.84912 8.89893 7.73926 8.60596 7.73926C8.06885 7.73926 7.70264 8.09326 7.70264 8.64258C7.70264 8.88672 7.82471 9.13086 7.99561 9.30176L12.5 13.7939L14.4043 15.5762L12.5977 15.3809L10.376 15.3809C9.79004 15.3809 9.41162 15.7349 9.41162 16.272C9.41162 16.8091 9.77783 17.1631 10.3516 17.1631L16.1377 17.1631C16.7603 17.1631 17.1631 16.8823 17.1631 16.1621L17.1631 10.4004C17.1631 9.82666 16.7969 9.42383 16.2598 9.42383Z" fill="#5ac8f5"/>
 </g>
</svg>
