<?xml version="1.0" encoding="UTF-8"?>
<!--Generator: Apple Native CoreSVG 175.5-->
<!DOCTYPE svg
PUBLIC "-//W3C//DTD SVG 1.1//EN"
       "http://www.w3.org/Graphics/SVG/1.1/DTD/svg11.dtd">
<svg version="1.1" xmlns="http://www.w3.org/2000/svg" xmlns:xlink="http://www.w3.org/1999/xlink" width="22.4731" height="22.4976">
 <g>
  <rect height="22.4976" opacity="0" width="22.4731" x="0" y="0"/>
  <path d="M3.83301 22.4976L18.6401 22.4976C21.2036 22.4976 22.4731 21.228 22.4731 18.7134L22.4731 3.80859C22.4731 1.29395 21.2036 0.0244141 18.6401 0.0244141L3.83301 0.0244141C1.28174 0.0244141 0 1.28174 0 3.80859L0 18.7134C0 21.2402 1.28174 22.4976 3.83301 22.4976ZM3.85742 20.5322C2.63672 20.5322 1.96533 19.8853 1.96533 18.6157L1.96533 3.90625C1.96533 2.63672 2.63672 1.98975 3.85742 1.98975L18.6157 1.98975C19.8242 1.98975 20.5078 2.63672 20.5078 3.90625L20.5078 18.6157C20.5078 19.8853 19.8242 20.5322 18.6157 20.5322ZM17.5537 12.7319C17.5537 9.80225 15.4297 8.02002 12.5854 8.02002L8.93555 8.02002L7.49512 8.05664L8.45947 7.2998L9.7168 6.0791C9.8877 5.93262 9.99756 5.70068 9.99756 5.44434C9.99756 4.94385 9.61914 4.56543 9.11865 4.56543C8.8623 4.56543 8.66699 4.63867 8.49609 4.82178L5.24902 8.11768C5.05371 8.3252 4.93164 8.58154 4.93164 8.8623C4.93164 9.15527 5.05371 9.39941 5.24902 9.60693L8.5083 12.9272C8.6792 13.0981 8.87451 13.1836 9.13086 13.1836C9.61914 13.1836 9.99756 12.8052 9.99756 12.2925C9.99756 12.0728 9.91211 11.8286 9.729 11.6699L8.20312 10.2051L7.49512 9.66797L8.93555 9.729L12.5854 9.729C14.3799 9.729 15.7593 10.7544 15.7593 12.6343C15.7593 14.563 14.4165 15.7471 12.5732 15.7471C12.4268 15.7471 10.9253 15.7471 10.8765 15.7471C10.3516 15.7471 9.94873 16.0522 9.94873 16.626C9.94873 17.1875 10.3516 17.4927 10.9009 17.4927C10.9619 17.4927 12.4268 17.4927 12.5732 17.4927C15.4175 17.4927 17.5537 15.6616 17.5537 12.7319Z" fill="#5ac8f5"/>
 </g>
</svg>
