<?xml version="1.0" encoding="UTF-8"?>
<!--Generator: Apple Native CoreSVG 175.5-->
<!DOCTYPE svg
PUBLIC "-//W3C//DTD SVG 1.1//EN"
       "http://www.w3.org/Graphics/SVG/1.1/DTD/svg11.dtd">
<svg version="1.1" xmlns="http://www.w3.org/2000/svg" xmlns:xlink="http://www.w3.org/1999/xlink" width="22.5098" height="22.4243">
 <g>
  <rect height="22.4243" opacity="0" width="22.5098" x="0" y="0"/>
  <path d="M21.0815 1.46484C19.8364 0.219727 18.0786 0.0244141 15.9912 0.0244141L6.48193 0.0244141C4.43115 0.0244141 2.67334 0.219727 1.42822 1.46484C0.183105 2.70996 0 4.45557 0 6.49414L0 15.918C0 18.0054 0.183105 19.7388 1.42822 20.9839C2.67334 22.229 4.43115 22.4243 6.50635 22.4243L15.9912 22.4243C18.0786 22.4243 19.8364 22.229 21.0815 20.9839C22.3267 19.7388 22.5098 18.0054 22.5098 15.918L22.5098 6.53076C22.5098 4.44336 22.3267 2.69775 21.0815 1.46484ZM20.5444 6.18896L20.5444 16.2476C20.5444 17.5171 20.3857 18.811 19.6411 19.5557C18.9087 20.2881 17.5903 20.459 16.333 20.459L6.17676 20.459C4.91943 20.459 3.60107 20.2881 2.85645 19.5557C2.12402 18.811 1.96533 17.5171 1.96533 16.2476L1.96533 6.22559C1.96533 4.94385 2.12402 3.62549 2.85645 2.89307C3.60107 2.14844 4.93164 1.98975 6.21338 1.98975L16.333 1.98975C17.5903 1.98975 18.9087 2.16064 19.6411 2.89307C20.3857 3.6377 20.5444 4.93164 20.5444 6.18896Z" fill="#5ac8f5" fill-opacity="0.5"/>
  <path d="M15.0879 14.2334C15.625 14.2334 15.979 13.8184 15.979 13.2568L15.979 7.49512C15.979 6.7749 15.5884 6.49414 14.9658 6.49414L9.16748 6.49414C8.59375 6.49414 8.22754 6.84814 8.22754 7.38525C8.22754 7.92236 8.60596 8.27637 9.19189 8.27637L11.4136 8.27637L13.2202 8.08105L11.3159 9.85107L6.82373 14.3555C6.65283 14.5264 6.53076 14.7705 6.53076 15.0146C6.53076 15.564 6.88477 15.918 7.42188 15.918C7.71484 15.918 7.94678 15.8081 8.11768 15.6372L12.6099 11.145L14.3677 9.26514L14.1846 11.1694L14.1846 13.2812C14.1846 13.855 14.5386 14.2334 15.0879 14.2334Z" fill="#5ac8f5"/>
 </g>
</svg>
