<?xml version="1.0" encoding="UTF-8"?>
<!--Generator: Apple Native CoreSVG 175.5-->
<!DOCTYPE svg
PUBLIC "-//W3C//DTD SVG 1.1//EN"
       "http://www.w3.org/Graphics/SVG/1.1/DTD/svg11.dtd">
<svg version="1.1" xmlns="http://www.w3.org/2000/svg" xmlns:xlink="http://www.w3.org/1999/xlink" width="22.4731" height="22.4976">
 <g>
  <rect height="22.4976" opacity="0" width="22.4731" x="0" y="0"/>
  <path d="M3.83301 22.4976L18.6401 22.4976C21.2036 22.4976 22.4731 21.228 22.4731 18.7134L22.4731 3.80859C22.4731 1.29395 21.2036 0.0244141 18.6401 0.0244141L3.83301 0.0244141C1.28174 0.0244141 0 1.28174 0 3.80859L0 18.7134C0 21.2402 1.28174 22.4976 3.83301 22.4976ZM3.85742 20.5322C2.63672 20.5322 1.96533 19.8853 1.96533 18.6157L1.96533 3.90625C1.96533 2.63672 2.63672 1.98975 3.85742 1.98975L18.6157 1.98975C19.8242 1.98975 20.5078 2.63672 20.5078 3.90625L20.5078 18.6157C20.5078 19.8853 19.8242 20.5322 18.6157 20.5322Z" fill="#5ac8f5" fill-opacity="0.5"/>
  <path d="M7.10449 16.4795C9.17969 16.4795 10.6323 15.2344 10.6323 13.4766C10.6323 12.1826 9.729 11.1328 8.49609 11.0229L8.49609 10.9497C9.50928 10.7788 10.3027 9.76562 10.3027 8.61816C10.3027 7.05566 9.00879 5.96924 7.18994 5.96924C5.54199 5.96924 4.32129 6.90918 4.00391 8.10547C3.96729 8.26416 3.96729 8.37402 3.96729 8.54492C3.96729 8.98438 4.23584 9.28955 4.66309 9.28955C5.0293 9.28955 5.22461 9.09424 5.34668 8.70361C5.61523 7.83691 6.20117 7.37305 7.15332 7.37305C8.11768 7.37305 8.80127 7.95898 8.80127 8.81348C8.80127 9.70459 8.11768 10.3516 7.14111 10.3516L6.48193 10.3516C6.09131 10.3516 5.81055 10.6323 5.81055 11.0718C5.81055 11.4624 6.0791 11.7676 6.48193 11.7676L7.20215 11.7676C8.36182 11.7676 9.10645 12.4146 9.10645 13.4033C9.10645 14.3555 8.28857 15.0757 7.1167 15.0757C6.15234 15.0757 5.49316 14.6118 5.16357 13.7451C5.01709 13.3667 4.80957 13.1714 4.46777 13.1714C4.05273 13.1714 3.75977 13.4644 3.75977 13.9038C3.75977 14.0747 3.78418 14.1968 3.8208 14.3433C4.15039 15.4663 5.44434 16.4795 7.10449 16.4795ZM15.3198 16.4795C17.4194 16.4795 18.811 14.4775 18.811 11.2305C18.811 7.97119 17.4194 5.96924 15.3198 5.96924C13.2202 5.96924 11.8286 7.97119 11.8286 11.2305C11.8286 14.4775 13.2202 16.4795 15.3198 16.4795ZM15.3198 15.0024C14.1602 15.0024 13.4277 13.562 13.4277 11.2305C13.4277 8.88672 14.1602 7.44629 15.3198 7.44629C16.4917 7.44629 17.2119 8.88672 17.2119 11.2305C17.2119 13.562 16.5039 15.0024 15.3198 15.0024Z" fill="#5ac8f5"/>
 </g>
</svg>
