<?xml version="1.0" encoding="UTF-8"?>
<!--Generator: Apple Native CoreSVG 175.5-->
<!DOCTYPE svg
PUBLIC "-//W3C//DTD SVG 1.1//EN"
       "http://www.w3.org/Graphics/SVG/1.1/DTD/svg11.dtd">
<svg version="1.1" xmlns="http://www.w3.org/2000/svg" xmlns:xlink="http://www.w3.org/1999/xlink" width="24.9023" height="24.9146">
 <g>
  <rect height="24.9146" opacity="0" width="24.9023" x="0" y="0"/>
  <path d="M12.4512 24.9023C19.2627 24.9023 24.9023 19.2505 24.9023 12.4512C24.9023 5.63965 19.2505 0 12.439 0C5.63965 0 0 5.63965 0 12.4512C0 19.2505 5.65186 24.9023 12.4512 24.9023ZM12.4512 22.8271C6.68945 22.8271 2.0874 18.2129 2.0874 12.4512C2.0874 6.68945 6.67725 2.0752 12.439 2.0752C18.2007 2.0752 22.8271 6.68945 22.8271 12.4512C22.8271 18.2129 18.2129 22.8271 12.4512 22.8271ZM8.75244 18.042C9.33838 18.042 9.68018 17.688 9.68018 17.0654L9.68018 9.96094L9.75342 9.96094L15.0757 17.4561C15.4053 17.9077 15.6494 18.042 16.0522 18.042C16.6504 18.042 17.0166 17.6758 17.0166 17.0288L17.0166 7.60498C17.0166 6.99463 16.6748 6.62842 16.0889 6.62842C15.5151 6.62842 15.1855 7.01904 15.1855 7.60498L15.1855 14.8438L15.1001 14.8438L9.79004 7.21436C9.47266 6.7749 9.2041 6.62842 8.80127 6.62842C8.20312 6.62842 7.86133 7.03125 7.86133 7.65381L7.86133 17.0654C7.86133 17.6636 8.19092 18.042 8.75244 18.042Z" fill="#5ac8f5"/>
 </g>
</svg>
