<?xml version="1.0" encoding="UTF-8"?>
<!--Generator: Apple Native CoreSVG 175.5-->
<!DOCTYPE svg
PUBLIC "-//W3C//DTD SVG 1.1//EN"
       "http://www.w3.org/Graphics/SVG/1.1/DTD/svg11.dtd">
<svg version="1.1" xmlns="http://www.w3.org/2000/svg" xmlns:xlink="http://www.w3.org/1999/xlink" width="24.9023" height="24.9146">
 <g>
  <rect height="24.9146" opacity="0" width="24.9023" x="0" y="0"/>
  <path d="M12.4512 24.9023C19.2627 24.9023 24.9023 19.2505 24.9023 12.4512C24.9023 5.63965 19.2505 0 12.439 0C5.63965 0 0 5.63965 0 12.4512C0 19.2505 5.65186 24.9023 12.4512 24.9023ZM12.4512 22.8271C6.68945 22.8271 2.0874 18.2129 2.0874 12.4512C2.0874 6.68945 6.67725 2.0752 12.439 2.0752C18.2007 2.0752 22.8271 6.68945 22.8271 12.4512C22.8271 18.2129 18.2129 22.8271 12.4512 22.8271Z" fill="#5ac8f5" fill-opacity="0.5"/>
  <path d="M9.83887 9.8877C10.9863 9.8877 11.9507 8.92334 11.9507 7.77588C11.9507 6.604 10.9863 5.63965 9.83887 5.63965C8.66699 5.63965 7.70264 6.604 7.70264 7.77588C7.70264 8.92334 8.65479 9.8877 9.83887 9.8877ZM15.0391 9.8877C16.2109 9.8877 17.1753 8.92334 17.1753 7.77588C17.1753 6.604 16.2109 5.63965 15.0391 5.63965C13.8916 5.63965 12.9272 6.604 12.9272 7.77588C12.9272 8.92334 13.8916 9.8877 15.0391 9.8877ZM7.22656 14.5752C8.38623 14.5752 9.35059 13.5986 9.35059 12.439C9.35059 11.2915 8.38623 10.3149 7.22656 10.3149C6.06689 10.3149 5.10254 11.2915 5.10254 12.439C5.10254 13.5986 6.05469 14.5752 7.22656 14.5752ZM12.439 14.5752C13.5986 14.5752 14.5752 13.5986 14.5752 12.439C14.5752 11.2915 13.5986 10.3149 12.439 10.3149C11.2915 10.3149 10.3149 11.2915 10.3149 12.439C10.3149 13.5986 11.2915 14.5752 12.439 14.5752ZM17.6514 14.5752C18.8232 14.5752 19.7876 13.5986 19.7876 12.439C19.7876 11.2915 18.8232 10.3149 17.6514 10.3149C16.5039 10.3149 15.5396 11.2915 15.5396 12.439C15.5396 13.5986 16.5039 14.5752 17.6514 14.5752ZM9.83887 19.2505C10.9863 19.2505 11.9507 18.2861 11.9507 17.1143C11.9507 15.9668 10.9863 15.0024 9.83887 15.0024C8.66699 15.0024 7.70264 15.9668 7.70264 17.1143C7.70264 18.2739 8.65479 19.2505 9.83887 19.2505ZM15.0391 19.2505C16.2109 19.2505 17.1753 18.2861 17.1753 17.1143C17.1753 15.9668 16.2109 15.0024 15.0391 15.0024C13.8916 15.0024 12.9272 15.9668 12.9272 17.1143C12.9272 18.2861 13.8916 19.2505 15.0391 19.2505Z" fill="#5ac8f5"/>
 </g>
</svg>
