<?xml version="1.0" encoding="UTF-8"?>
<!--Generator: Apple Native CoreSVG 175.5-->
<!DOCTYPE svg
PUBLIC "-//W3C//DTD SVG 1.1//EN"
       "http://www.w3.org/Graphics/SVG/1.1/DTD/svg11.dtd">
<svg version="1.1" xmlns="http://www.w3.org/2000/svg" xmlns:xlink="http://www.w3.org/1999/xlink" width="22.4731" height="22.4976">
 <g>
  <rect height="22.4976" opacity="0" width="22.4731" x="0" y="0"/>
  <path d="M3.83301 22.4976L18.6401 22.4976C21.2036 22.4976 22.4731 21.228 22.4731 18.7134L22.4731 3.80859C22.4731 1.29395 21.2036 0.0244141 18.6401 0.0244141L3.83301 0.0244141C1.28174 0.0244141 0 1.28174 0 3.80859L0 18.7134C0 21.2402 1.28174 22.4976 3.83301 22.4976ZM3.85742 20.5322C2.63672 20.5322 1.96533 19.8853 1.96533 18.6157L1.96533 3.90625C1.96533 2.63672 2.63672 1.98975 3.85742 1.98975L18.6157 1.98975C19.8242 1.98975 20.5078 2.63672 20.5078 3.90625L20.5078 18.6157C20.5078 19.8853 19.8242 20.5322 18.6157 20.5322ZM9.11865 18.0786L14.0869 18.0786C14.5874 18.0786 14.978 17.7124 14.978 17.2119C14.978 16.7358 14.5874 16.3574 14.0869 16.3574L12.5732 16.3574L12.5732 10.144C12.5732 9.48486 12.2437 9.04541 11.6211 9.04541L9.32617 9.04541C8.82568 9.04541 8.43506 9.42383 8.43506 9.8999C8.43506 10.4004 8.82568 10.7666 9.32617 10.7666L10.6323 10.7666L10.6323 16.3574L9.11865 16.3574C8.61816 16.3574 8.22754 16.7358 8.22754 17.2119C8.22754 17.7124 8.61816 18.0786 9.11865 18.0786ZM11.145 7.01904C12.0361 7.01904 12.7319 6.31104 12.7319 5.41992C12.7319 4.52881 12.0361 3.8208 11.145 3.8208C10.2661 3.8208 9.55811 4.52881 9.55811 5.41992C9.55811 6.31104 10.2661 7.01904 11.145 7.01904Z" fill="#5ac8f5"/>
 </g>
</svg>
