<?xml version="1.0" encoding="UTF-8"?>
<!--Generator: Apple Native CoreSVG 175.5-->
<!DOCTYPE svg
PUBLIC "-//W3C//DTD SVG 1.1//EN"
       "http://www.w3.org/Graphics/SVG/1.1/DTD/svg11.dtd">
<svg version="1.1" xmlns="http://www.w3.org/2000/svg" xmlns:xlink="http://www.w3.org/1999/xlink" width="26.001" height="30.5298">
 <g>
  <rect height="30.5298" opacity="0" width="26.001" x="0" y="0"/>
  <path d="M13.0005 26.123C15.7959 26.123 19.2261 25.9521 21.7163 25.6592C23.3643 25.4639 24.292 24.5605 24.292 22.9858L24.292 3.125C24.292 1.5625 23.3643 0.646973 21.7163 0.463867C19.2261 0.170898 15.7959 0 13.0005 0C10.1929 0 6.7627 0.170898 4.28467 0.463867C2.62451 0.646973 1.70898 1.5625 1.70898 3.125L1.70898 22.9858C1.70898 24.5605 2.62451 25.4639 4.28467 25.6592C6.7627 25.9399 10.1929 26.123 13.0005 26.123ZM13.0005 24.5239C10.083 24.5239 6.83594 24.353 4.71191 24.0967C3.67432 23.9746 3.30811 23.4375 3.30811 22.4976L3.30811 3.61328C3.30811 2.68555 3.67432 2.14844 4.71191 2.02637C6.83594 1.75781 10.083 1.59912 13.0005 1.59912C15.8691 1.59912 19.1162 1.75781 21.2891 2.02637C22.3267 2.14844 22.6929 2.68555 22.6929 3.61328L22.6929 22.4976C22.6929 23.4375 22.3267 23.9746 21.2891 24.0967C19.1162 24.353 15.8691 24.5239 13.0005 24.5239ZM3.94287 29.4922L5.3833 29.4922C6.29883 29.4922 7.00684 28.7842 7.00684 27.8809L7.00684 25.2441L2.33154 24.5361L2.33154 27.8809C2.33154 28.7842 3.02734 29.4922 3.94287 29.4922ZM20.6177 29.4922L22.0459 29.4922C22.9614 29.4922 23.6694 28.7842 23.6694 27.8809L23.6694 24.5361L18.9941 25.2441L18.9941 27.8809C18.9941 28.7842 19.7021 29.4922 20.6177 29.4922ZM2.50244 14.563L2.50244 8.26416L1.15967 8.26416C0.476074 8.26416 0 8.69141 0 9.33838L0 13.501C0 14.1357 0.476074 14.563 1.15967 14.563ZM23.4985 14.563L24.8413 14.563C25.5249 14.563 26.001 14.1357 26.001 13.501L26.001 9.33838C26.001 8.69141 25.5249 8.26416 24.8413 8.26416L23.4985 8.26416ZM4.56543 9.8999L21.4355 9.8999L21.4355 4.90723C21.4355 3.97949 21.0083 3.49121 20.0195 3.36914C15.8081 2.91748 10.1929 2.91748 5.99365 3.36914C5.00488 3.49121 4.56543 3.97949 4.56543 4.90723ZM4.56543 11.5601L4.56543 16.4185C4.56543 17.2363 4.94385 17.6514 5.70068 17.7856C9.41162 18.4204 16.4551 18.457 20.3003 17.7856C20.9717 17.6636 21.4355 17.2363 21.4355 16.4185L21.4355 11.5601ZM6.45752 22.6318C7.23877 22.6318 7.83691 22.0215 7.83691 21.2524C7.83691 20.4712 7.23877 19.873 6.45752 19.873C5.68848 19.873 5.07812 20.4712 5.07812 21.2524C5.07812 22.0215 5.68848 22.6318 6.45752 22.6318ZM10.6323 22.2656L15.3442 22.2656C15.9302 22.2656 16.3696 21.8262 16.3696 21.2402C16.3696 20.6421 15.9424 20.2148 15.3442 20.2148L10.6323 20.2148C10.0342 20.2148 9.60693 20.6421 9.60693 21.2402C9.60693 21.8262 10.0464 22.2656 10.6323 22.2656ZM19.5435 22.6318C20.3125 22.6318 20.9229 22.0215 20.9229 21.2524C20.9229 20.4712 20.3125 19.873 19.5435 19.873C18.7622 19.873 18.1641 20.4712 18.1641 21.2524C18.1641 22.0215 18.7622 22.6318 19.5435 22.6318Z" fill="#5ac8f5"/>
 </g>
</svg>
