<?xml version="1.0" encoding="UTF-8"?>
<!--Generator: Apple Native CoreSVG 175.5-->
<!DOCTYPE svg
PUBLIC "-//W3C//DTD SVG 1.1//EN"
       "http://www.w3.org/Graphics/SVG/1.1/DTD/svg11.dtd">
<svg version="1.1" xmlns="http://www.w3.org/2000/svg" xmlns:xlink="http://www.w3.org/1999/xlink" width="38.6719" height="17.2649">
 <g>
  <rect height="17.2649" opacity="0" width="38.6719" x="0" y="0"/>
  <path d="M18.4082 8.62633C18.4082 5.11071 14.6606 1.72936 10.8765 1.72936L10.5103 1.72936C8.74023 1.72936 7.93457 2.40075 7.4707 4.18297C7.17773 5.41588 7.01904 6.79528 7.01904 8.62633C7.01904 10.4452 7.17773 11.8246 7.4707 13.0819C7.93457 14.8519 8.74023 15.5111 10.5103 15.5111L10.8765 15.5111C14.6606 15.5111 18.4082 12.142 18.4082 8.62633ZM20.2637 8.62633C20.2637 12.142 24.0112 15.5111 27.8076 15.5111L28.1616 15.5111C29.9438 15.5111 30.7495 14.8519 31.2134 13.0819C31.4941 11.8246 31.6528 10.4452 31.6528 8.62633C31.6528 6.79528 31.4941 5.41588 31.2134 4.18297C30.7495 2.40075 29.9438 1.72936 28.1616 1.72936L27.8076 1.72936C24.0112 1.72936 20.2637 5.11071 20.2637 8.62633ZM4.05273 3.47497C4.50439 3.74352 5.0415 3.60924 5.31006 3.13317C5.57861 2.70592 5.43213 2.1444 4.98047 1.88805L1.92871 0.13024C1.48926-0.138315 0.952148 0.0203768 0.695801 0.496451C0.427246 0.923697 0.561523 1.46081 1.02539 1.71715ZM4.41895 7.6986L0.90332 7.6986C0.378418 7.6986 0 8.08922 0 8.61413C0 9.13903 0.378418 9.52965 0.90332 9.52965L4.41895 9.52965C4.94385 9.52965 5.33447 9.13903 5.33447 8.61413C5.33447 8.08922 4.94385 7.6986 4.41895 7.6986ZM4.05273 13.7533L1.02539 15.5111C0.561523 15.7797 0.427246 16.3046 0.695801 16.744C0.952148 17.2079 1.48926 17.3666 1.92871 17.1102L4.98047 15.3524C5.43213 15.0839 5.57861 14.5345 5.31006 14.0951C5.0415 13.6312 4.50439 13.4969 4.05273 13.7533ZM34.6191 3.47497L37.6587 1.71715C38.1104 1.46081 38.2446 0.923697 37.9883 0.496451C37.7197 0.0203768 37.1948-0.138315 36.7432 0.13024L33.6914 1.88805C33.252 2.1444 33.1055 2.70592 33.374 3.13317C33.6304 3.60924 34.1675 3.74352 34.6191 3.47497ZM34.2651 7.6986C33.7402 7.6986 33.3374 8.08922 33.3374 8.61413C33.3374 9.13903 33.7402 9.52965 34.2651 9.52965L37.7686 9.52965C38.2935 9.52965 38.6719 9.13903 38.6719 8.61413C38.6719 8.08922 38.2935 7.6986 37.7686 7.6986ZM34.6191 13.7533C34.1675 13.4969 33.6304 13.6312 33.374 14.0951C33.1055 14.5345 33.252 15.0839 33.6914 15.3524L36.7432 17.1102C37.1948 17.3666 37.7197 17.2079 37.9883 16.744C38.2446 16.3046 38.1104 15.7797 37.6587 15.5111Z" fill="#5ac8f5"/>
 </g>
</svg>
