<?xml version="1.0" encoding="UTF-8"?>
<!--Generator: Apple Native CoreSVG 175.5-->
<!DOCTYPE svg
PUBLIC "-//W3C//DTD SVG 1.1//EN"
       "http://www.w3.org/Graphics/SVG/1.1/DTD/svg11.dtd">
<svg version="1.1" xmlns="http://www.w3.org/2000/svg" xmlns:xlink="http://www.w3.org/1999/xlink" width="22.4731" height="22.7905">
 <g>
  <rect height="22.7905" opacity="0" width="22.4731" x="0" y="0"/>
  <path d="M3.83301 22.4731L18.6401 22.4731C21.2036 22.4731 22.4731 21.2036 22.4731 18.689L22.4731 3.78418C22.4731 1.26953 21.2036 0 18.6401 0L3.83301 0C1.28174 0 0 1.25732 0 3.78418L0 18.689C0 21.2158 1.28174 22.4731 3.83301 22.4731Z" fill="#5ac8f5" fill-opacity="0.25"/>
  <path d="M4.98047 12.5854C4.98047 9.81445 6.9458 7.9834 9.8999 7.9834L13.4644 7.9834L14.7217 8.04443L13.8916 7.38525L12.6587 6.18896C12.4756 6.03027 12.3779 5.78613 12.3779 5.54199C12.3779 5.00488 12.7563 4.60205 13.2812 4.60205C13.562 4.60205 13.7695 4.6875 13.9526 4.87061L17.1387 8.10547C17.3584 8.3374 17.4683 8.60596 17.4683 8.88672C17.4683 9.15527 17.3706 9.42383 17.1387 9.65576L13.9404 12.9272C13.7695 13.0981 13.5498 13.1958 13.269 13.1958C12.7686 13.1958 12.3779 12.7808 12.3779 12.2559C12.3779 11.9873 12.4756 11.7676 12.6587 11.5845L14.1357 10.1562L14.7095 9.75342L13.4644 9.80225L9.8999 9.80225C8.03223 9.80225 6.79932 10.9131 6.79932 12.5854C6.79932 14.3921 8.05664 15.5884 9.91211 15.5884L11.5723 15.5884C12.146 15.5884 12.5244 15.9546 12.5244 16.4917C12.5244 17.041 12.1338 17.4072 11.5479 17.4072L9.91211 17.4072C6.95801 17.4072 4.98047 15.5029 4.98047 12.5854Z" fill="#5ac8f5"/>
 </g>
</svg>
