<?xml version="1.0" encoding="UTF-8"?>
<!--Generator: Apple Native CoreSVG 175.5-->
<!DOCTYPE svg
PUBLIC "-//W3C//DTD SVG 1.1//EN"
       "http://www.w3.org/Graphics/SVG/1.1/DTD/svg11.dtd">
<svg version="1.1" xmlns="http://www.w3.org/2000/svg" xmlns:xlink="http://www.w3.org/1999/xlink" width="18.0908" height="32.3853">
 <g>
  <rect height="32.3853" opacity="0" width="18.0908" x="0" y="0"/>
  <path d="M3.36914 26.8188L14.7217 26.8188C16.8579 26.8188 18.0908 25.5493 18.0908 23.3887L18.0908 5.95703C18.0908 3.78418 16.8579 2.52686 14.7217 2.52686L11.499 2.52686L11.499 2.44141C11.499 0.98877 10.498 0 9.04541 0C7.59277 0 6.5918 0.98877 6.5918 2.44141L6.5918 2.52686L3.36914 2.52686C1.23291 2.52686 0 3.78418 0 5.95703L0 23.3887C0 25.5493 1.23291 26.8188 3.36914 26.8188ZM9.04541 3.35693C8.54492 3.35693 8.1543 2.9541 8.1543 2.45361C8.1543 1.96533 8.54492 1.5625 9.04541 1.5625C9.5459 1.5625 9.93652 1.96533 9.93652 2.45361C9.93652 2.9541 9.5459 3.35693 9.04541 3.35693ZM4.8584 23.3032C4.08936 23.3032 3.58887 22.8271 3.58887 22.0703L3.58887 8.49609C3.58887 7.75146 4.08936 7.25098 4.8584 7.25098L13.2568 7.25098C14.0259 7.25098 14.5264 7.75146 14.5264 8.49609L14.5264 22.0703C14.5264 22.8271 14.0259 23.3032 13.2568 23.3032ZM7.50732 20.8496L10.6079 20.8496C10.9741 20.8496 11.2427 20.5933 11.2427 20.2515C11.2427 19.8975 10.9741 19.6045 10.6079 19.6045L7.50732 19.6045C7.12891 19.6045 6.87256 19.8975 6.87256 20.2515C6.87256 20.5933 7.12891 20.8496 7.50732 20.8496ZM6.54297 18.2251L11.6089 18.2251C11.9629 18.2251 12.2314 17.9443 12.2314 17.5903C12.2314 17.2485 11.9629 16.98 11.6089 16.98L6.54297 16.98C6.16455 16.98 5.9082 17.2485 5.9082 17.5903C5.9082 17.9443 6.16455 18.2251 6.54297 18.2251ZM9.04541 15.2222C10.1318 15.2222 11.0352 14.3799 11.0352 13.2812C11.0352 12.6709 10.7178 12.0728 10.4248 11.5234L9.39941 9.64355C9.17969 9.22852 8.89893 9.24072 8.69141 9.64355L7.66602 11.5234C7.37305 12.0728 7.05566 12.6709 7.05566 13.2812C7.05566 14.3799 7.97119 15.2222 9.04541 15.2222ZM11.8896 32.1899L17.2119 32.1899C17.7002 32.1899 18.0908 31.7993 18.0908 31.311C18.0908 30.8105 17.7002 30.4077 17.2119 30.4077L11.8896 30.4077C10.4858 30.4077 9.76562 29.8218 9.76562 28.418L9.76562 25.4761L7.9834 25.4761L7.9834 28.418C7.9834 30.8105 9.49707 32.1899 11.8896 32.1899Z" fill="#5ac8f5"/>
 </g>
</svg>
