<?xml version="1.0" encoding="UTF-8"?>
<!--Generator: Apple Native CoreSVG 175.5-->
<!DOCTYPE svg
PUBLIC "-//W3C//DTD SVG 1.1//EN"
       "http://www.w3.org/Graphics/SVG/1.1/DTD/svg11.dtd">
<svg version="1.1" xmlns="http://www.w3.org/2000/svg" xmlns:xlink="http://www.w3.org/1999/xlink" width="19.0552" height="23.0591">
 <g>
  <rect height="23.0591" opacity="0" width="19.0552" x="0" y="0"/>
  <path d="M2.57568 23.0591C8.22754 23.0591 10.8887 20.813 10.8887 15.1367L10.8887 6.67725L10.791 3.36914L13.2202 6.04248L17.2241 10.0464C17.4194 10.2417 17.7124 10.3394 17.9932 10.3394C18.6035 10.3394 19.0552 9.87549 19.0552 9.27734C19.0552 8.98438 18.9453 8.72803 18.7134 8.48389L10.6079 0.366211C10.376 0.12207 10.0952 0 9.79004 0C9.49707 0 9.21631 0.12207 8.98438 0.366211L0.878906 8.48389C0.646973 8.72803 0.537109 8.98438 0.537109 9.27734C0.537109 9.87549 0.98877 10.3394 1.58691 10.3394C1.87988 10.3394 2.17285 10.2417 2.36816 10.0464L6.35986 6.04248L8.81348 3.35693L8.70361 6.67725L8.71582 15.0269C8.72803 19.4458 6.81152 20.9229 2.46582 20.9229C1.9043 20.9229 1.50146 20.8984 1.08643 20.8984C0.45166 20.8984 0 21.3013 0 21.936C0 22.5586 0.427246 22.8638 0.915527 22.9736C1.28174 23.0469 1.87988 23.0591 2.57568 23.0591Z" fill="#5ac8f5"/>
 </g>
</svg>
