<?xml version="1.0" encoding="UTF-8"?>
<!--Generator: Apple Native CoreSVG 175.5-->
<!DOCTYPE svg
PUBLIC "-//W3C//DTD SVG 1.1//EN"
       "http://www.w3.org/Graphics/SVG/1.1/DTD/svg11.dtd">
<svg version="1.1" xmlns="http://www.w3.org/2000/svg" xmlns:xlink="http://www.w3.org/1999/xlink" width="24.9023" height="24.9146">
 <g>
  <rect height="24.9146" opacity="0" width="24.9023" x="0" y="0"/>
  <path d="M12.4512 24.9023C19.2627 24.9023 24.9023 19.2505 24.9023 12.4512C24.9023 5.63965 19.2505 0 12.439 0C5.63965 0 0 5.63965 0 12.4512C0 19.2505 5.65186 24.9023 12.4512 24.9023Z" fill="#5ac8f5" fill-opacity="0.25"/>
  <path d="M12.4268 18.4448C9.75342 18.4448 7.95898 17.0898 7.95898 15.0513C7.95898 13.6475 8.98438 12.4756 10.498 12.1704L10.498 12.0972C9.21631 11.7065 8.45947 10.73 8.45947 9.52148C8.45947 7.70264 10.0952 6.45752 12.4512 6.45752C14.7949 6.45752 16.4429 7.70264 16.4429 9.52148C16.4429 10.73 15.6494 11.731 14.3921 12.0972L14.3921 12.1704C15.9058 12.4756 16.9312 13.6353 16.9312 15.0391C16.9312 17.0654 15.1001 18.4448 12.4268 18.4448ZM12.4634 17.0532C13.9282 17.0532 15.0146 16.1743 15.0146 14.9414C15.0146 13.7329 13.9648 12.854 12.4634 12.854C10.9863 12.854 9.8877 13.7451 9.8877 14.9414C9.8877 16.1743 10.9741 17.0532 12.4634 17.0532ZM12.4512 11.5234C13.6963 11.5234 14.5874 10.7544 14.5874 9.66797C14.5874 8.61816 13.7085 7.86133 12.4512 7.86133C11.1938 7.86133 10.3027 8.61816 10.3027 9.66797C10.3027 10.7544 11.1938 11.5234 12.4512 11.5234Z" fill="#5ac8f5"/>
 </g>
</svg>
