<?xml version="1.0" encoding="UTF-8"?>
<!--Generator: Apple Native CoreSVG 175.5-->
<!DOCTYPE svg
PUBLIC "-//W3C//DTD SVG 1.1//EN"
       "http://www.w3.org/Graphics/SVG/1.1/DTD/svg11.dtd">
<svg version="1.1" xmlns="http://www.w3.org/2000/svg" xmlns:xlink="http://www.w3.org/1999/xlink" width="24.9023" height="24.9146">
 <g>
  <rect height="24.9146" opacity="0" width="24.9023" x="0" y="0"/>
  <path d="M12.4512 24.9023C19.2627 24.9023 24.9023 19.2505 24.9023 12.4512C24.9023 5.63965 19.2505 0 12.439 0C5.63965 0 0 5.63965 0 12.4512C0 19.2505 5.65186 24.9023 12.4512 24.9023ZM12.4512 22.8271C6.68945 22.8271 2.0874 18.2129 2.0874 12.4512C2.0874 6.68945 6.67725 2.0752 12.439 2.0752C18.2007 2.0752 22.8271 6.68945 22.8271 12.4512C22.8271 18.2129 18.2129 22.8271 12.4512 22.8271Z" fill="#5ac8f5" fill-opacity="0.5"/>
  <path d="M19.5801 9.61914L13.9648 7.06787C13.3911 6.81152 12.915 6.67725 12.439 6.68945C11.9629 6.67725 11.499 6.81152 10.9131 7.06787L5.31006 9.61914C4.94385 9.79004 4.76074 10.0952 4.76074 10.376C4.76074 10.6689 4.94385 10.9497 5.31006 11.1206L7.6416 12.1826L11.2427 10.5103C11.2183 10.4614 11.2061 10.4248 11.2061 10.376C11.2061 9.98535 11.8408 9.7168 12.4634 9.7168C13.0859 9.7168 13.7085 9.98535 13.7085 10.376C13.7085 10.7788 13.0859 11.0596 12.4634 11.0596C12.2681 11.0596 12.085 11.0352 11.9141 10.9863L8.5083 12.5854L10.9131 13.6841C11.499 13.9648 11.9629 14.0747 12.439 14.0625C12.915 14.0747 13.3911 13.9648 13.9648 13.6841L19.5801 11.1206C19.9463 10.9497 20.1172 10.6689 20.1172 10.376C20.1172 10.0952 19.9463 9.79004 19.5801 9.61914ZM12.439 17.8223C15.8203 17.8223 17.9688 16.3696 17.9688 14.6729L17.9688 12.7441L14.2944 14.4287C13.623 14.7339 13.0127 14.8926 12.439 14.8682C11.8652 14.8926 11.2549 14.7339 10.5835 14.4287L8.47168 13.4644L8.47168 16.8945C9.43604 17.4683 10.791 17.8223 12.439 17.8223ZM6.90918 12.7441L6.90918 14.6729C6.90918 15.1611 7.18994 15.7593 7.66602 16.272L7.66602 13.0859ZM7.66602 18.0054L8.47168 18.0054L8.47168 16.8945C8.1665 16.7114 7.91016 16.5039 7.66602 16.272ZM7.26318 17.9932L7.26318 19.2261C7.26318 19.6655 7.54395 19.9585 7.99561 19.9585L8.14209 19.9585C8.59375 19.9585 8.88672 19.6655 8.88672 19.2261L8.88672 17.9932C8.88672 17.5415 8.59375 17.2607 8.14209 17.2607L7.99561 17.2607C7.54395 17.2607 7.26318 17.5415 7.26318 17.9932Z" fill="#5ac8f5"/>
 </g>
</svg>
