<?xml version="1.0" encoding="UTF-8"?>
<!--Generator: Apple Native CoreSVG 175.5-->
<!DOCTYPE svg
PUBLIC "-//W3C//DTD SVG 1.1//EN"
       "http://www.w3.org/Graphics/SVG/1.1/DTD/svg11.dtd">
<svg version="1.1" xmlns="http://www.w3.org/2000/svg" xmlns:xlink="http://www.w3.org/1999/xlink" width="26.2451" height="22.7173">
 <g>
  <rect height="22.7173" opacity="0" width="26.2451" x="0" y="0"/>
  <path d="M0 21.7529C0 22.3389 0.390625 22.7173 0.976562 22.7173L25.2563 22.7173C25.7935 22.7173 26.2451 22.29 26.2451 21.7407C26.2451 21.2036 25.7935 20.7642 25.2563 20.7642L2.30713 20.7642C2.05078 20.7642 1.96533 20.6787 1.96533 20.4224L1.96533 1.12305C1.96533 0.598145 1.52588 0.146484 0.98877 0.146484C0.439453 0.146484 0 0.598145 0 1.12305ZM1.80664 3.79639L0.317383 5.27344L5.77393 10.8032C6.33545 11.3647 6.84814 11.6089 7.42188 11.6089C7.99561 11.6089 8.53271 11.3525 9.06982 10.8032L13.562 6.20117C13.6719 6.09131 13.7939 6.03027 13.8916 6.03027C14.0015 6.03027 14.1235 6.09131 14.2334 6.20117L19.043 11.0718L17.0288 13.0859C16.5894 13.5254 16.8579 14.0869 17.4805 14.2456L24.6216 16.0522C25.1709 16.1987 25.6592 15.7349 25.5127 15.1733L23.7061 8.02002C23.5474 7.39746 22.9736 7.12891 22.5342 7.56836L20.5322 9.58252L15.5518 4.57764C15.0024 4.02832 14.4775 3.77197 13.8916 3.77197C13.3179 3.77197 12.7686 4.02832 12.2437 4.57764L7.75146 9.17969C7.6416 9.28955 7.53174 9.35059 7.42188 9.35059C7.31201 9.35059 7.20215 9.28955 7.09229 9.17969Z" fill="#5ac8f5"/>
 </g>
</svg>
