<?xml version="1.0" encoding="UTF-8"?>
<!--Generator: Apple Native CoreSVG 175.5-->
<!DOCTYPE svg
PUBLIC "-//W3C//DTD SVG 1.1//EN"
       "http://www.w3.org/Graphics/SVG/1.1/DTD/svg11.dtd">
<svg version="1.1" xmlns="http://www.w3.org/2000/svg" xmlns:xlink="http://www.w3.org/1999/xlink" width="24.9023" height="24.9146">
 <g>
  <rect height="24.9146" opacity="0" width="24.9023" x="0" y="0"/>
  <path d="M12.4512 24.9023C19.2627 24.9023 24.9023 19.2505 24.9023 12.4512C24.9023 5.63965 19.2505 0 12.439 0C5.63965 0 0 5.63965 0 12.4512C0 19.2505 5.65186 24.9023 12.4512 24.9023ZM12.4512 22.8271C6.68945 22.8271 2.0874 18.2129 2.0874 12.4512C2.0874 6.68945 6.67725 2.0752 12.439 2.0752C18.2007 2.0752 22.8271 6.68945 22.8271 12.4512C22.8271 18.2129 18.2129 22.8271 12.4512 22.8271ZM8.61816 16.2842C11.4746 19.1284 15.1001 20.9473 17.2363 18.7988C17.3218 18.7256 17.3828 18.6401 17.4561 18.5669C18.0054 17.9321 18.1519 17.1143 17.4438 16.5771C16.8823 16.1743 16.2964 15.7471 15.2832 15.0513C14.563 14.5508 14.0991 14.6729 13.5498 15.21L13.0615 15.6982C12.9272 15.8325 12.6831 15.8081 12.5244 15.7104C12.0972 15.4541 11.377 14.8926 10.6934 14.209C10.022 13.5254 9.42383 12.7808 9.17969 12.3779C9.10645 12.2437 9.04541 12.0239 9.2041 11.853L9.69238 11.3525C10.2417 10.7666 10.3516 10.3271 9.83887 9.61914L8.3374 7.48291C7.83691 6.7627 7.08008 6.92139 6.26221 7.51953C6.20117 7.56836 6.15234 7.61719 6.10352 7.65381C3.95508 9.81445 5.77393 13.4399 8.61816 16.2842ZM12.9517 12.6587C13.1226 12.6587 13.2935 12.6099 13.4033 12.5L16.3818 9.49707L17.1631 8.64258L17.0776 10.2783L17.0776 11.3037C17.0776 11.6455 17.3218 11.9141 17.6636 11.9507C18.0298 11.9629 18.335 11.6699 18.335 11.3037L18.335 7.32422C18.335 6.88477 18.0908 6.64062 17.6514 6.64062L13.6475 6.64062C13.2812 6.64062 13.0005 6.93359 13.0249 7.2998C13.0371 7.6416 13.2935 7.89795 13.6475 7.89795L14.7217 7.89795L16.333 7.8125L15.4785 8.59375L12.5122 11.5723C12.3657 11.7065 12.3169 11.8652 12.3169 12.0605C12.3169 12.4146 12.5854 12.6587 12.9517 12.6587Z" fill="#5ac8f5"/>
 </g>
</svg>
