<?xml version="1.0" encoding="UTF-8"?>
<!--Generator: Apple Native CoreSVG 175.5-->
<!DOCTYPE svg
PUBLIC "-//W3C//DTD SVG 1.1//EN"
       "http://www.w3.org/Graphics/SVG/1.1/DTD/svg11.dtd">
<svg version="1.1" xmlns="http://www.w3.org/2000/svg" xmlns:xlink="http://www.w3.org/1999/xlink" width="24.5605" height="26.7456">
 <g>
  <rect height="26.7456" opacity="0" width="24.5605" x="0" y="0"/>
  <path d="M0 21.7285C0 24.6216 5.16357 26.7456 12.2803 26.7456C19.397 26.7456 24.5605 24.6216 24.5605 21.7285C24.5605 21.3379 24.3774 20.752 24.0967 20.2271L13.4277 0.90332C13.0981 0.305176 12.6831 0.195312 12.2803 0.195312C11.8774 0.195312 11.4624 0.305176 11.1328 0.90332L0.463867 20.2271C0.183105 20.752 0 21.3379 0 21.7285ZM1.9043 21.7285C1.9043 21.5942 2.03857 21.3135 2.19727 21.0327L12.0605 3.22266C12.1094 3.11279 12.1826 3.07617 12.2803 3.07617C12.3779 3.07617 12.4512 3.11279 12.5 3.22266L22.3633 21.0327C22.522 21.3135 22.6562 21.5942 22.6562 21.7285C22.6562 23.2056 17.7734 24.8291 12.2803 24.8291C6.78711 24.8291 1.9043 23.2056 1.9043 21.7285Z" fill="#5ac8f5"/>
 </g>
</svg>
