<?xml version="1.0" encoding="UTF-8"?>
<!--Generator: Apple Native CoreSVG 175.5-->
<!DOCTYPE svg
PUBLIC "-//W3C//DTD SVG 1.1//EN"
       "http://www.w3.org/Graphics/SVG/1.1/DTD/svg11.dtd">
<svg version="1.1" xmlns="http://www.w3.org/2000/svg" xmlns:xlink="http://www.w3.org/1999/xlink" width="22.4731" height="22.4976">
 <g>
  <rect height="22.4976" opacity="0" width="22.4731" x="0" y="0"/>
  <path d="M3.83301 22.4976L18.6401 22.4976C21.2036 22.4976 22.4731 21.228 22.4731 18.7134L22.4731 3.80859C22.4731 1.29395 21.2036 0.0244141 18.6401 0.0244141L3.83301 0.0244141C1.28174 0.0244141 0 1.28174 0 3.80859L0 18.7134C0 21.2402 1.28174 22.4976 3.83301 22.4976ZM3.85742 20.5322C2.63672 20.5322 1.96533 19.8853 1.96533 18.6157L1.96533 3.90625C1.96533 2.63672 2.63672 1.98975 3.85742 1.98975L18.6157 1.98975C19.8242 1.98975 20.5078 2.63672 20.5078 3.90625L20.5078 18.6157C20.5078 19.8853 19.8242 20.5322 18.6157 20.5322ZM7.97119 16.9556C8.61816 16.9556 9.05762 16.626 9.2041 16.0156L11.1816 8.31299L11.2793 8.31299L13.2568 16.0156C13.4033 16.626 13.8428 16.9556 14.4897 16.9556C15.1367 16.9556 15.5518 16.6138 15.7104 15.9912L18.1396 6.72607C18.1763 6.5918 18.1885 6.46973 18.1885 6.35986C18.1885 5.81055 17.8223 5.43213 17.2485 5.43213C16.6748 5.43213 16.4062 5.70068 16.2598 6.39648L14.4287 14.1602L14.3433 14.1602L12.2925 6.26221C12.146 5.71289 11.8042 5.45654 11.2305 5.45654C10.6567 5.45654 10.3027 5.71289 10.1685 6.26221L8.11768 14.1602L8.03223 14.1602L6.21338 6.39648C6.06689 5.70068 5.79834 5.43213 5.22461 5.43213C4.65088 5.43213 4.28467 5.81055 4.28467 6.35986C4.28467 6.46973 4.29688 6.5918 4.3335 6.72607L6.75049 15.9912C6.90918 16.6138 7.32422 16.9556 7.97119 16.9556Z" fill="#5ac8f5"/>
 </g>
</svg>
