<?xml version="1.0" encoding="UTF-8"?>
<!--Generator: Apple Native CoreSVG 175.5-->
<!DOCTYPE svg
PUBLIC "-//W3C//DTD SVG 1.1//EN"
       "http://www.w3.org/Graphics/SVG/1.1/DTD/svg11.dtd">
<svg version="1.1" xmlns="http://www.w3.org/2000/svg" xmlns:xlink="http://www.w3.org/1999/xlink" width="29.8584" height="13.2446">
 <g>
  <rect height="13.2446" opacity="0" width="29.8584" x="0" y="0"/>
  <path d="M4.96826 11.8408L6.14014 11.8408L6.14014 1.41602L4.96826 1.41602ZM23.7183 11.8408L24.8901 11.8408L24.8901 1.41602L23.7183 1.41602ZM14.9292 7.18994C18.6035 7.18994 21.3257 4.89502 21.5942 1.41602L20.2881 1.41602C20.0806 4.22363 17.8833 6.0791 14.9292 6.0791C11.9629 6.0791 9.76562 4.22363 9.55811 1.41602L8.25195 1.41602C8.53271 4.89502 11.2549 7.18994 14.9292 7.18994Z" fill="#5ac8f5" fill-opacity="0.5"/>
  <path d="M3.30811 13.2446L26.5503 13.2446C28.7354 13.2446 29.8584 12.1216 29.8584 9.96094L29.8584 3.2959C29.8584 1.13525 28.7231 0.012207 26.5381 0.012207L3.2959 0.012207C1.11084 0.012207 0 1.13525 0 3.2959L0 9.96094C0 12.1216 1.12305 13.2446 3.30811 13.2446ZM3.60107 11.2793C2.56348 11.2793 1.96533 10.7056 1.96533 9.60693L1.96533 3.6499C1.96533 2.55127 2.56348 1.97754 3.61328 1.97754L26.2451 1.97754C27.2949 1.97754 27.8809 2.55127 27.8809 3.6499L27.8809 9.60693C27.8809 10.7056 27.2949 11.2793 26.2329 11.2793ZM14.9292 4.27246C16.5894 4.27246 17.8101 3.23486 17.9443 1.66016L11.9141 1.66016C12.0361 3.23486 13.2568 4.27246 14.9292 4.27246Z" fill="#5ac8f5"/>
 </g>
</svg>
