<?xml version="1.0" encoding="UTF-8"?>
<!--Generator: Apple Native CoreSVG 175.5-->
<!DOCTYPE svg
PUBLIC "-//W3C//DTD SVG 1.1//EN"
       "http://www.w3.org/Graphics/SVG/1.1/DTD/svg11.dtd">
<svg version="1.1" xmlns="http://www.w3.org/2000/svg" xmlns:xlink="http://www.w3.org/1999/xlink" width="24.9023" height="24.9146">
 <g>
  <rect height="24.9146" opacity="0" width="24.9023" x="0" y="0"/>
  <path d="M12.4512 24.9023C19.2627 24.9023 24.9023 19.2505 24.9023 12.4512C24.9023 5.63965 19.2505 0 12.439 0C5.63965 0 0 5.63965 0 12.4512C0 19.2505 5.65186 24.9023 12.4512 24.9023ZM12.4512 22.8271C6.68945 22.8271 2.0874 18.2129 2.0874 12.4512C2.0874 6.68945 6.67725 2.0752 12.439 2.0752C18.2007 2.0752 22.8271 6.68945 22.8271 12.4512C22.8271 18.2129 18.2129 22.8271 12.4512 22.8271ZM10.1685 20.5566C12.0483 20.5566 13.562 19.043 13.562 17.1753C13.562 16.1865 13.147 15.3076 12.3657 14.6118C12.2437 14.502 12.2192 14.4287 12.2192 14.2456L12.2314 8.41064C12.2314 7.08008 11.3892 6.16455 10.1685 6.16455C8.93555 6.16455 8.10547 7.08008 8.10547 8.41064L8.10547 14.2456C8.10547 14.4287 8.08105 14.502 7.93457 14.6118C7.16553 15.3076 6.7627 16.1865 6.7627 17.1753C6.7627 19.043 8.27637 20.5566 10.1685 20.5566ZM10.1685 19.5679C8.82568 19.5679 7.77588 18.5059 7.77588 17.1753C7.77588 16.3696 8.14209 15.6494 8.81348 15.1978C9.0332 15.0635 9.10645 14.9292 9.10645 14.6484L9.10645 8.44727C9.10645 7.67822 9.52148 7.18994 10.1685 7.18994C10.791 7.18994 11.2061 7.67822 11.2061 8.44727L11.2061 14.6484C11.2061 14.9292 11.2793 15.0635 11.499 15.1978C12.1704 15.6494 12.5488 16.3696 12.5488 17.1753C12.5488 18.5059 11.4746 19.5679 10.1685 19.5679ZM10.1562 18.7622C11.0474 18.7622 11.7554 18.042 11.7554 17.1631C11.7554 16.5527 11.4014 16.04 10.8887 15.7593C10.6934 15.6616 10.6323 15.5762 10.6323 15.2832L10.6323 14.0381C10.6323 13.7085 10.4248 13.501 10.1562 13.501C9.8877 13.501 9.69238 13.7085 9.69238 14.0381L9.69238 15.2832C9.69238 15.5762 9.63135 15.6616 9.41162 15.7593C8.92334 16.04 8.56934 16.5527 8.56934 17.1631C8.56934 18.0542 9.27734 18.7622 10.1562 18.7622ZM14.8438 15.1245C15.1245 15.1245 15.2954 14.8804 15.2954 14.5996L15.2832 13.7207L15.979 14.1113C16.2109 14.2456 16.4673 14.1846 16.5894 13.9771C16.7236 13.7329 16.6138 13.501 16.394 13.3545L15.2832 12.7075L15.2588 10.5469L17.1143 11.6455L17.1143 12.915C17.1143 13.1958 17.2852 13.3789 17.5537 13.3911C17.7979 13.3911 17.9688 13.1836 17.9688 12.9395L17.981 12.146L18.7622 12.5854C19.0186 12.7319 19.2993 12.7075 19.4458 12.4756C19.5801 12.2192 19.4702 11.9507 19.2261 11.8164L18.4326 11.3525L19.1162 10.9497C19.3237 10.8154 19.4214 10.5713 19.2993 10.3638C19.165 10.1318 18.8965 10.0952 18.6768 10.2295L17.5659 10.8521L15.686 9.80225L17.5781 8.74023L18.689 9.375C18.9209 9.50928 19.1895 9.48486 19.3115 9.25293C19.458 9.0332 19.3359 8.78906 19.1284 8.66699L18.457 8.25195L19.2383 7.8125C19.4946 7.65381 19.5801 7.38525 19.4458 7.15332C19.2993 6.92139 19.0186 6.84814 18.7866 6.99463L17.9932 7.44629L17.9932 6.66504C17.9932 6.39648 17.8223 6.20117 17.5781 6.20117C17.3096 6.20117 17.1387 6.39648 17.1387 6.68945L17.1265 7.95898L15.2588 9.05762L15.2832 6.88477L16.394 6.23779C16.6504 6.09131 16.7114 5.85938 16.6016 5.62744C16.4795 5.39551 16.2109 5.35889 15.979 5.48096L15.2832 5.88379L15.2954 5.00488C15.2954 4.72412 15.1245 4.49219 14.8438 4.49219C14.563 4.49219 14.3799 4.72412 14.3799 5.00488L14.3799 5.88379L13.6963 5.48096C13.4644 5.34668 13.208 5.40771 13.0859 5.62744C12.9517 5.85938 13.0493 6.09131 13.2812 6.23779L14.3921 6.88477L14.4165 9.05762L13.0615 8.25195C13.0981 8.59375 13.1226 8.94775 13.1348 9.31396L13.9893 9.80225L13.1348 10.2783L13.1348 11.3159L14.4165 10.5469L14.3921 12.7075L13.3301 13.3301C13.3789 13.562 13.6475 13.8794 13.8672 14.0259L14.3799 13.7085L14.3799 14.5996C14.3799 14.8926 14.563 15.1245 14.8438 15.1245Z" fill="#5ac8f5"/>
 </g>
</svg>
