<?xml version="1.0" encoding="UTF-8"?>
<!--Generator: Apple Native CoreSVG 175.5-->
<!DOCTYPE svg
PUBLIC "-//W3C//DTD SVG 1.1//EN"
       "http://www.w3.org/Graphics/SVG/1.1/DTD/svg11.dtd">
<svg version="1.1" xmlns="http://www.w3.org/2000/svg" xmlns:xlink="http://www.w3.org/1999/xlink" width="17.8467" height="29.0894">
 <g>
  <rect height="29.0894" opacity="0" width="17.8467" x="0" y="0"/>
  <path d="M8.91113 29.0771C13.3301 29.0771 15.9912 27.9785 15.9912 26.0986C15.9912 24.3774 13.6963 23.3032 9.83887 23.1445L9.83887 17.9077C14.6851 17.5659 17.8467 14.4653 17.8467 9.92432C17.8467 7.40967 16.7847 4.10156 15.2466 1.74561C14.5264 0.622559 12.1948 0 8.92334 0C5.62744 0 3.30811 0.622559 2.57568 1.74561C1.0376 4.10156 0 7.40967 0 9.92432C0 14.4775 3.16162 17.5659 8.00781 17.9077L8.00781 23.1445C4.13818 23.291 1.84326 24.3774 1.84326 26.0986C1.84326 27.9785 4.49219 29.0771 8.91113 29.0771ZM8.92334 3.01514C6.14014 3.01514 4.27246 2.69775 4.27246 2.33154C4.27246 1.97754 6.15234 1.67236 8.92334 1.67236C11.6943 1.67236 13.5742 1.97754 13.5742 2.33154C13.5742 2.69775 11.6943 3.01514 8.92334 3.01514Z" fill="#5ac8f5"/>
 </g>
</svg>
