<?xml version="1.0" encoding="UTF-8"?>
<!--Generator: Apple Native CoreSVG 175.5-->
<!DOCTYPE svg
PUBLIC "-//W3C//DTD SVG 1.1//EN"
       "http://www.w3.org/Graphics/SVG/1.1/DTD/svg11.dtd">
<svg version="1.1" xmlns="http://www.w3.org/2000/svg" xmlns:xlink="http://www.w3.org/1999/xlink" width="26.0132" height="26.1108">
 <g>
  <rect height="26.1108" opacity="0" width="26.0132" x="0" y="0"/>
  <path d="M22.876 24.8657C23.3887 25.3906 24.2676 25.3906 24.7559 24.8657C25.2686 24.3286 25.2563 23.4985 24.7559 22.9858L13.1592 11.3403C12.6465 10.8276 11.7554 10.8276 11.2671 11.3403C10.7666 11.8774 10.7788 12.7197 11.2671 13.2324ZM23.3154 24.0234L15.7837 16.4795L16.3818 15.8936L23.9136 23.4375C24.1333 23.645 24.1821 23.8892 23.9868 24.1089C23.7793 24.292 23.5352 24.2554 23.3154 24.0234Z" fill="#5ac8f5"/>
  <path d="M14.0747 21.1914C14.0747 20.6055 13.5864 20.1172 13.0005 20.1172C12.4268 20.1172 11.9385 20.6055 11.9385 21.1914L11.9385 24.9512C11.9385 25.5249 12.4268 26.0132 13.0005 26.0132C13.5864 26.0132 14.0747 25.5249 14.0747 24.9512Z" fill="#5ac8f5" fill-opacity="0.5"/>
  <path d="M3.83301 20.6543C3.43018 21.0571 3.43018 21.7529 3.8208 22.1558C4.22363 22.5586 4.91943 22.5708 5.33447 22.168L7.99561 19.5068C8.39844 19.104 8.39844 18.4204 7.99561 18.0176C7.60498 17.6025 6.89697 17.6025 6.49414 18.0176Z" fill="#5ac8f5" fill-opacity="0.5"/>
  <path d="M1.06201 11.9385C0.488281 11.9385 0 12.4268 0 13.0005C0 13.5742 0.488281 14.0625 1.06201 14.0625L4.84619 14.0625C5.41992 14.0625 5.9082 13.5742 5.9082 13.0005C5.9082 12.4268 5.41992 11.9385 4.84619 11.9385Z" fill="#5ac8f5" fill-opacity="0.5"/>
  <path d="M6.49414 8.00781C6.89697 8.41064 7.58057 8.41064 7.99561 8.00781C8.39844 7.59277 8.39844 6.90918 7.99561 6.50635L5.34668 3.84521C4.94385 3.44238 4.26025 3.43018 3.84521 3.83301C3.44238 4.23584 3.44238 4.91943 3.84521 5.33447Z" fill="#5ac8f5" fill-opacity="0.5"/>
  <path d="M14.0747 1.06201C14.0747 0.488281 13.5864 0 13.0005 0C12.4268 0 11.9385 0.488281 11.9385 1.06201L11.9385 4.82178C11.9385 5.40771 12.4268 5.896 13.0005 5.896C13.5864 5.896 14.0747 5.40771 14.0747 4.82178Z" fill="#5ac8f5" fill-opacity="0.5"/>
  <path d="M18.0054 6.50635C17.5903 6.90918 17.5903 7.59277 18.0054 8.00781C18.4082 8.41064 19.104 8.41064 19.519 8.00781L22.168 5.34668C22.583 4.93164 22.583 4.24805 22.168 3.83301C21.7651 3.43018 21.0815 3.43018 20.6787 3.83301Z" fill="#5ac8f5" fill-opacity="0.5"/>
  <path d="M24.939 14.0625C25.5249 14.0625 26.0132 13.5742 26.0132 13.0005C26.0132 12.4268 25.5249 11.9385 24.939 11.9385L21.1792 11.9385C20.6055 11.9385 20.1172 12.4268 20.1172 13.0005C20.1172 13.5742 20.6055 14.0625 21.1792 14.0625Z" fill="#5ac8f5" fill-opacity="0.5"/>
 </g>
</svg>
