<?xml version="1.0" encoding="UTF-8"?>
<!--Generator: Apple Native CoreSVG 175.5-->
<!DOCTYPE svg
PUBLIC "-//W3C//DTD SVG 1.1//EN"
       "http://www.w3.org/Graphics/SVG/1.1/DTD/svg11.dtd">
<svg version="1.1" xmlns="http://www.w3.org/2000/svg" xmlns:xlink="http://www.w3.org/1999/xlink" width="29.5645" height="29.187">
 <g>
  <rect height="29.187" opacity="0" width="29.5645" x="0" y="0"/>
  <path d="M12.4512 27.0386C18.5425 27.0386 23.7183 22.4854 24.6948 16.6504C24.1211 17.2363 23.2422 17.5415 22.4243 17.2852C22.1802 18.0664 21.6064 18.7256 20.8862 19.0674C20.1904 21.2891 18.6035 23.0591 16.4917 23.9746C15.8569 23.7671 15.6128 22.9126 15.9668 22.0459C15.979 20.4346 16.7114 18.9697 17.8345 17.981C16.7725 17.6514 15.6982 16.8701 15.0635 15.8081C14.7949 17.0166 13.7329 17.9077 12.4268 17.9077C10.9253 17.9077 9.7168 16.6992 9.7168 15.1855C9.7168 13.6963 10.9253 12.4878 12.4268 12.4878C13.1592 12.4878 13.8062 12.7808 14.27 13.2446C14.2334 12.1826 14.5142 11.1816 14.917 10.3027L4.43115 10.3027C3.61328 10.3027 3.36914 9.52148 3.85742 8.83789C5.65186 6.05469 8.81348 4.21143 12.4268 4.21143C12.7319 4.21143 13.0371 4.22363 13.3545 4.24805C12.9883 3.71094 12.9272 2.91748 13.2812 2.16064C13.0005 2.14844 12.7197 2.13623 12.439 2.13623C5.62744 2.13623 0 7.77588 0 14.5874C0 21.3867 5.63965 27.0386 12.4512 27.0386ZM2.4292 17.3096C2.22168 16.5527 2.64893 16.2109 3.28369 16.2964C6.7749 16.6992 9.48486 19.7632 9.36279 23.3521C9.36279 23.9746 8.88672 24.3896 8.23975 24.0723C5.34668 22.7783 3.23486 20.3125 2.4292 17.3096ZM14.8315 2.64893C14.5874 3.01514 14.8193 3.479 15.271 3.479L16.2231 3.479C16.2964 6.28662 17.7002 6.65283 17.7002 8.08105C17.7002 9.97314 16.1255 10.73 16.1255 12.9639C16.1255 13.855 16.4185 14.5508 17.0166 15.3198C17.5903 16.0522 18.6646 15.2832 18.0908 14.5264C17.6147 13.8916 17.4805 13.5254 17.4805 12.8662C17.4805 11.2183 19.0552 10.3027 19.0552 8.08105C19.0552 6.15234 17.6758 5.60303 17.5903 3.479L18.5425 3.479C18.9941 3.479 19.2261 3.01514 18.9819 2.64893L17.395 0.280762C17.2607 0.0854492 17.1021 0 16.9067 0C16.6992 0 16.5405 0.0976562 16.4307 0.280762ZM20.0562 2.64893C19.812 3.00293 20.0562 3.479 20.4956 3.479L21.4722 3.479C21.5454 6.28662 22.937 6.65283 22.937 8.08105C22.937 9.97314 21.3745 10.73 21.3745 12.9639C21.3745 13.8794 21.6553 14.5752 22.2534 15.3198C22.8271 16.0522 23.9014 15.2832 23.3276 14.5264C22.876 13.9038 22.7173 13.5498 22.7173 12.8662C22.7173 11.2183 24.292 10.3027 24.292 8.08105C24.292 6.14014 22.9004 5.60303 22.8149 3.479L23.7793 3.479C24.2432 3.479 24.4751 3.01514 24.2188 2.64893L22.6318 0.280762C22.4976 0.0854492 22.3389 0 22.1436 0C21.9482 0 21.7896 0.0976562 21.6675 0.280762ZM25.3052 2.64893C25.061 3.00293 25.293 3.479 25.7446 3.479L26.709 3.479C26.7822 6.28662 28.1738 6.65283 28.1738 8.08105C28.1738 9.97314 26.6113 10.73 26.6113 12.9639C26.6113 13.8794 26.9043 14.5752 27.4902 15.3198C28.0762 16.0522 29.1382 15.2832 28.5767 14.5264C28.1128 13.9038 27.9541 13.5498 27.9541 12.8662C27.9541 11.2183 29.5288 10.3027 29.5288 8.08105C29.5288 6.14014 28.1372 5.60303 28.0518 3.479L29.0283 3.479C29.4678 3.479 29.7119 3.00293 29.4678 2.64893L27.8687 0.280762C27.7344 0.0976562 27.5879 0 27.3804 0C27.1851 0 27.0264 0.0976562 26.8921 0.280762Z" fill="#5ac8f5"/>
 </g>
</svg>
