<?xml version="1.0" encoding="UTF-8"?>
<!--Generator: Apple Native CoreSVG 175.5-->
<!DOCTYPE svg
PUBLIC "-//W3C//DTD SVG 1.1//EN"
       "http://www.w3.org/Graphics/SVG/1.1/DTD/svg11.dtd">
<svg version="1.1" xmlns="http://www.w3.org/2000/svg" xmlns:xlink="http://www.w3.org/1999/xlink" width="32.019" height="28.6011">
 <g>
  <rect height="28.6011" opacity="0" width="32.019" x="0" y="0"/>
  <path d="M3.41797 21.3501L8.76465 21.3501C8.56934 20.7397 8.43506 20.1172 8.3374 19.4946L3.51562 19.4946C2.44141 19.4946 1.85547 18.8965 1.85547 17.8589L1.85547 3.49121C1.85547 2.45361 2.44141 1.85547 3.51562 1.85547L13.2935 1.85547C14.3799 1.85547 14.9658 2.45361 14.9658 3.49121L14.9658 6.93359C15.5273 6.71387 16.1499 6.54297 16.8213 6.40869L16.8213 3.45459C16.8213 1.18408 15.6616 0 13.4033 0L3.41797 0C1.15967 0 0 1.18408 0 3.45459L0 17.8955C0 20.1782 1.15967 21.3501 3.41797 21.3501ZM3.91846 13.6719C3.91846 16.0889 5.79834 18.0542 8.19092 18.1763C8.14209 17.5049 8.20312 16.272 8.31299 15.5518C7.2998 15.5029 6.50635 14.6851 6.50635 13.6597C6.50635 12.5977 7.36084 11.7432 8.42285 11.7432C8.77686 11.7432 9.11865 11.8286 9.38721 12.0117C9.76562 11.2183 10.2173 10.4858 10.7544 9.80225C10.0586 9.39941 9.27734 9.15527 8.42285 9.15527C5.92041 9.15527 3.91846 11.1694 3.91846 13.6719ZM8.41064 8.19092C9.76562 8.19092 10.8887 7.08008 10.8887 5.71289C10.8887 4.35791 9.77783 3.24707 8.41064 3.24707C7.04346 3.24707 5.93262 4.35791 5.93262 5.71289C5.93262 7.08008 7.05566 8.19092 8.41064 8.19092ZM8.41064 6.97021C7.71484 6.97021 7.15332 6.40869 7.15332 5.71289C7.15332 5.0293 7.71484 4.46777 8.41064 4.46777C9.10645 4.46777 9.66797 5.0293 9.66797 5.71289C9.66797 6.40869 9.10645 6.97021 8.41064 6.97021ZM20.9351 10.5591C23.9868 10.5591 26.1475 9.94873 26.1475 9.14307C26.1475 8.3252 23.9868 7.72705 20.9351 7.72705C17.8711 7.72705 15.7104 8.3252 15.7104 9.14307C15.7104 9.94873 17.8711 10.5591 20.9351 10.5591ZM20.9351 27.8564C25.0488 27.8564 26.7578 27.3193 28.3813 25.8057C30.6763 23.7183 32.019 20.6665 32.019 17.4561C32.019 14.856 31.1401 12.3779 29.541 10.5713C29.0527 9.96094 28.2349 9.83887 27.5391 10.2539C26.1963 11.2549 24.4995 11.9507 20.9351 11.9507C17.3706 11.9507 15.6738 11.2549 14.3188 10.2539C13.623 9.83887 12.8174 9.94873 12.3291 10.5713C10.73 12.3779 9.83887 14.8438 9.83887 17.4561C9.83887 20.6665 11.1816 23.7183 13.4766 25.8057C15.1001 27.3193 16.8213 27.8564 20.9351 27.8564ZM20.9351 25.769C17.4683 25.769 16.1255 25.4395 14.9048 24.2676C13.0005 22.5342 11.9385 20.0806 11.9385 17.4561C11.9385 15.2588 12.6953 13.1226 14.3066 11.4258L12.7441 11.853C14.4165 13.2568 17.1509 14.0381 20.9351 14.0381C24.7192 14.0381 27.4536 13.2568 29.126 11.8408L27.5513 11.4258C29.1748 13.1104 29.9316 15.2466 29.9316 17.4561C29.9316 20.0806 28.8574 22.5342 26.9653 24.2676C25.7202 25.4395 24.4019 25.769 20.9351 25.769Z" fill="#5ac8f5"/>
 </g>
</svg>
