<?xml version="1.0" encoding="UTF-8"?>
<!--Generator: Apple Native CoreSVG 175.5-->
<!DOCTYPE svg
PUBLIC "-//W3C//DTD SVG 1.1//EN"
       "http://www.w3.org/Graphics/SVG/1.1/DTD/svg11.dtd">
<svg version="1.1" xmlns="http://www.w3.org/2000/svg" xmlns:xlink="http://www.w3.org/1999/xlink" width="26.8677" height="16.9312">
 <g>
  <rect height="16.9312" opacity="0" width="26.8677" x="0" y="0"/>
  <path d="M12.207 11.0596C12.207 7.8125 9.80225 5.22461 6.70166 5.22461C5.24902 5.22461 3.86963 5.79834 2.85645 6.92139L2.52686 6.92139C3.23486 4.61426 5.3833 2.68555 8.05664 1.89209C8.43506 1.77002 8.71582 1.66016 8.88672 1.51367C9.08203 1.35498 9.19189 1.15967 9.19189 0.878906C9.19189 0.366211 8.80127 0.012207 8.22754 0.012207C7.84912 0.012207 7.55615 0.0854492 7.03125 0.256348C5.34668 0.805664 3.83301 1.77002 2.66113 3.00293C1.01318 4.71191 0 6.99463 0 9.70459C0 14.2822 2.90527 16.9312 6.31104 16.9312C9.66797 16.9312 12.207 14.3677 12.207 11.0596ZM26.8677 11.0596C26.8677 7.8125 24.4507 5.22461 21.3623 5.22461C19.9097 5.22461 18.5181 5.79834 17.5171 6.92139L17.1875 6.92139C17.8955 4.61426 20.0439 2.68555 22.7051 1.89209C23.0835 1.77002 23.3765 1.66016 23.5474 1.51367C23.7427 1.35498 23.8403 1.15967 23.8403 0.878906C23.8403 0.366211 23.4619 0.012207 22.8882 0.012207C22.4976 0.012207 22.2168 0.0854492 21.6797 0.256348C20.0073 0.805664 18.4814 1.77002 17.3096 3.00293C15.6738 4.71191 14.6606 6.99463 14.6606 9.70459C14.6606 14.2822 17.5659 16.9312 20.9717 16.9312C24.3286 16.9312 26.8677 14.3677 26.8677 11.0596Z" fill="#5ac8f5"/>
 </g>
</svg>
