<?xml version="1.0" encoding="UTF-8"?>
<!--Generator: Apple Native CoreSVG 175.5-->
<!DOCTYPE svg
PUBLIC "-//W3C//DTD SVG 1.1//EN"
       "http://www.w3.org/Graphics/SVG/1.1/DTD/svg11.dtd">
<svg version="1.1" xmlns="http://www.w3.org/2000/svg" xmlns:xlink="http://www.w3.org/1999/xlink" width="22.4731" height="22.4976">
 <g>
  <rect height="22.4976" opacity="0" width="22.4731" x="0" y="0"/>
  <path d="M3.83301 22.4976L18.6401 22.4976C21.2036 22.4976 22.4731 21.228 22.4731 18.7134L22.4731 3.80859C22.4731 1.29395 21.2036 0.0244141 18.6401 0.0244141L3.83301 0.0244141C1.28174 0.0244141 0 1.28174 0 3.80859L0 18.7134C0 21.2402 1.28174 22.4976 3.83301 22.4976ZM11.2549 17.5415C10.7056 17.5415 10.3027 17.1509 10.3027 16.5894L10.3027 10.3271L10.4126 7.65381L9.15527 9.16748L7.66602 10.6689C7.49512 10.8398 7.26318 10.9497 6.99463 10.9497C6.46973 10.9497 6.0791 10.5469 6.0791 10.0342C6.0791 9.76562 6.15234 9.5459 6.32324 9.375L10.5225 5.18799C10.7788 4.93164 10.9863 4.83398 11.2549 4.83398C11.5479 4.83398 11.7554 4.94385 11.9995 5.18799L16.1865 9.375C16.3696 9.5459 16.4551 9.76562 16.4551 10.0342C16.4551 10.5469 16.0522 10.9497 15.5273 10.9497C15.2588 10.9497 15.0269 10.8521 14.856 10.6689L13.3789 9.16748L12.0972 7.6416L12.207 10.3271L12.207 16.5894C12.207 17.1509 11.8164 17.5415 11.2549 17.5415Z" fill="#5ac8f5"/>
 </g>
</svg>
