<?xml version="1.0" encoding="UTF-8"?>
<!--Generator: Apple Native CoreSVG 175.5-->
<!DOCTYPE svg
PUBLIC "-//W3C//DTD SVG 1.1//EN"
       "http://www.w3.org/Graphics/SVG/1.1/DTD/svg11.dtd">
<svg version="1.1" xmlns="http://www.w3.org/2000/svg" xmlns:xlink="http://www.w3.org/1999/xlink" width="24.5605" height="24.0601">
 <g>
  <rect height="24.0601" opacity="0" width="24.5605" x="0" y="0"/>
  <path d="M0 18.457C0 21.5454 2.14844 23.5962 5.39551 23.5962C6.38428 23.5962 7.44629 23.2544 8.12988 22.7417C7.60498 22.3633 7.15332 21.9482 6.51855 21.1548C6.23779 21.2769 5.85938 21.3623 5.48096 21.3623C4.46777 21.3623 3.78418 20.7764 3.78418 19.9463C3.78418 19.1528 4.37012 18.6035 5.24902 18.6035C6.01807 18.6035 6.54297 19.0552 7.1167 19.6899C8.36182 21.0449 9.5459 22.6196 12.2803 22.6196C15.0146 22.6196 16.1987 21.0449 17.4438 19.6899C18.0176 19.0552 18.5425 18.6035 19.3115 18.6035C20.1782 18.6035 20.7764 19.1528 20.7764 19.9463C20.7764 20.7764 20.0928 21.3623 19.0674 21.3623C18.7012 21.3623 18.3228 21.2769 18.0298 21.1548C17.4072 21.9482 16.9556 22.3633 16.4307 22.7417C17.1143 23.2544 18.1763 23.5962 19.165 23.5962C22.4121 23.5962 24.5605 21.5454 24.5605 18.457C24.5605 15.5151 22.4365 13.3179 19.2017 12.9639C17.9688 10.0586 17.0898 6.86035 16.3818 3.79639C15.8203 1.31836 14.5508 0 12.2803 0C10.0098 0 8.74023 1.31836 8.17871 3.79639C7.4707 6.86035 6.5918 10.0586 5.35889 12.9639C2.12402 13.3179 0 15.5151 0 18.457Z" fill="#5ac8f5"/>
 </g>
</svg>
