<?xml version="1.0" encoding="UTF-8"?>
<!--Generator: Apple Native CoreSVG 175.5-->
<!DOCTYPE svg
PUBLIC "-//W3C//DTD SVG 1.1//EN"
       "http://www.w3.org/Graphics/SVG/1.1/DTD/svg11.dtd">
<svg version="1.1" xmlns="http://www.w3.org/2000/svg" xmlns:xlink="http://www.w3.org/1999/xlink" width="34.4971" height="27.8442">
 <g>
  <rect height="27.8442" opacity="0" width="34.4971" x="0" y="0"/>
  <path d="M7.75146 26.1597C8.23975 26.1597 8.58154 25.9155 9.15527 25.3784L12.7075 22.0703C12.0239 21.521 11.4624 20.6543 11.4624 18.6646L11.4624 10.5713C11.4624 6.83594 13.7329 4.60205 17.4805 4.60205L26.0254 4.60205L26.0132 4.15039C25.8301 1.63574 24.1821 0.012207 21.3867 0.012207L4.63867 0.012207C1.84326 0.012207 0 1.68457 0 4.60205L0 16.5894C0 19.4824 1.84326 21.3501 4.63867 21.3501L6.66504 21.3501L6.66504 24.9146C6.66504 25.6592 7.06787 26.1597 7.75146 26.1597Z" fill="#5ac8f5" fill-opacity="0.5"/>
  <path d="M27.478 27.8442C28.1738 27.8442 28.5645 27.356 28.5645 26.5991L28.5645 23.0469L29.8584 23.0469C32.6538 23.0469 34.4971 21.1792 34.4971 18.2739L34.4971 10.8521C34.4971 7.94678 32.6538 6.27441 29.8584 6.27441L17.7612 6.27441C14.8438 6.27441 13.1348 7.94678 13.1348 10.8643L13.1348 18.2739C13.1348 21.1792 14.8438 23.0469 17.7612 23.0469L21.6675 23.0469L26.0742 27.0752C26.6479 27.6001 26.9897 27.8442 27.478 27.8442Z" fill="#5ac8f5"/>
  <path d="M23.8647 16.1499C23.3154 16.1499 23.0225 15.8447 22.998 15.2832L22.8638 11.2915C22.8394 10.6934 23.2666 10.2783 23.8525 10.2783C24.4263 10.2783 24.8779 10.7056 24.8535 11.3037L24.707 15.2832C24.6826 15.8569 24.3896 16.1499 23.8647 16.1499ZM23.8525 19.6289C23.2178 19.6289 22.6685 19.1162 22.6685 18.4937C22.6685 17.8711 23.2056 17.3584 23.8525 17.3584C24.4873 17.3584 25.0244 17.8589 25.0244 18.4937C25.0244 19.1284 24.4751 19.6289 23.8525 19.6289Z" fill="#1e1e1e"/>
 </g>
</svg>
