<?xml version="1.0" encoding="UTF-8"?>
<!--Generator: Apple Native CoreSVG 175.5-->
<!DOCTYPE svg
PUBLIC "-//W3C//DTD SVG 1.1//EN"
       "http://www.w3.org/Graphics/SVG/1.1/DTD/svg11.dtd">
<svg version="1.1" xmlns="http://www.w3.org/2000/svg" xmlns:xlink="http://www.w3.org/1999/xlink" width="24.9023" height="24.9146">
 <g>
  <rect height="24.9146" opacity="0" width="24.9023" x="0" y="0"/>
  <path d="M12.4512 24.9023C19.2627 24.9023 24.9023 19.2505 24.9023 12.4512C24.9023 5.63965 19.2505 0 12.439 0C5.63965 0 0 5.63965 0 12.4512C0 19.2505 5.65186 24.9023 12.4512 24.9023ZM12.4512 22.8271C6.68945 22.8271 2.0874 18.2129 2.0874 12.4512C2.0874 6.68945 6.67725 2.0752 12.439 2.0752C18.2007 2.0752 22.8271 6.68945 22.8271 12.4512C22.8271 18.2129 18.2129 22.8271 12.4512 22.8271Z" fill="#5ac8f5" fill-opacity="0.5"/>
  <path d="M6.48193 18.2007C8.00781 19.7144 9.91211 19.5923 11.6821 17.8101L13.5132 15.9912C15.3198 14.1968 15.4663 12.2803 13.916 10.7422C13.501 10.3149 13.0249 10.022 12.6831 9.96094C12.3413 10.2051 11.9263 10.6567 11.731 11.084C12.2925 11.1694 12.7197 11.3647 13.0127 11.6455C13.9648 12.6099 13.8184 13.8794 12.5732 15.1123L10.8032 16.8823C9.60693 18.0786 8.34961 18.2129 7.38525 17.2729C6.43311 16.3208 6.54297 15.0513 7.77588 13.855L9.0332 12.5977C8.83789 12.1338 8.82568 11.4258 9.021 10.8276L6.84814 12.9761C5.07812 14.7583 4.93164 16.6626 6.48193 18.2007ZM17.981 6.66504C16.4551 5.15137 14.5508 5.27344 12.7808 7.05566L10.9497 8.8623C9.14307 10.6689 8.99658 12.5732 10.5469 14.1113C10.9619 14.5508 11.438 14.8315 11.7798 14.9048C12.1216 14.6484 12.5366 14.1968 12.7319 13.7817C12.1704 13.6963 11.7432 13.501 11.4502 13.208C10.498 12.2559 10.6445 10.9741 11.8896 9.75342L13.6597 7.9834C14.856 6.78711 16.1133 6.65283 17.0776 7.59277C18.0298 8.54492 17.9199 9.81445 16.687 11.0107L15.4297 12.2559C15.625 12.7319 15.6372 13.4277 15.4419 14.0381L17.6147 11.8774C19.3848 10.1074 19.5312 8.20312 17.981 6.66504Z" fill="#5ac8f5"/>
 </g>
</svg>
