<?xml version="1.0" encoding="UTF-8"?>
<!--Generator: Apple Native CoreSVG 175.5-->
<!DOCTYPE svg
PUBLIC "-//W3C//DTD SVG 1.1//EN"
       "http://www.w3.org/Graphics/SVG/1.1/DTD/svg11.dtd">
<svg version="1.1" xmlns="http://www.w3.org/2000/svg" xmlns:xlink="http://www.w3.org/1999/xlink" width="24.9023" height="24.9146">
 <g>
  <rect height="24.9146" opacity="0" width="24.9023" x="0" y="0"/>
  <path d="M12.4512 24.9146C19.2627 24.9146 24.9023 19.2749 24.9023 12.4634C24.9023 5.66406 19.2505 0.012207 12.439 0.012207C5.63965 0.012207 0 5.66406 0 12.4634C0 19.2749 5.65186 24.9146 12.4512 24.9146Z" fill="#5ac8f5" fill-opacity="0.25"/>
  <path d="M5.0293 11.0352C4.62646 11.1572 4.27246 10.9619 4.18701 10.6201C4.06494 10.2905 4.23584 9.92432 4.63867 9.81445C5.77393 9.46045 7.04346 9.2041 8.28857 9.2041C9.75342 9.2041 10.791 9.44824 12.0605 9.44824C12.7319 9.44824 13.1348 9.06982 13.1348 8.44727C13.1348 7.8125 12.7197 7.44629 12.1582 7.44629C11.7188 7.44629 11.377 7.71484 11.2183 8.06885C11.0352 8.45947 10.6567 8.55713 10.3394 8.39844C9.98535 8.23975 9.92432 7.83691 10.0708 7.54395C10.4004 6.7627 11.2183 6.17676 12.1582 6.17676C13.4033 6.17676 14.4287 7.1167 14.4287 8.44727C14.4287 9.74121 13.4888 10.7178 12.0605 10.7178C10.73 10.7178 9.69238 10.5103 8.28857 10.5103C7.21436 10.5103 6.11572 10.6689 5.0293 11.0352ZM16.8945 14.5996C14.2944 14.5996 12.0361 13.269 9.021 13.269C7.53174 13.269 6.26221 13.4766 5.0415 13.9404C4.62646 14.0869 4.27246 13.8794 4.18701 13.5376C4.06494 13.208 4.24805 12.854 4.62646 12.7197C5.98145 12.2559 7.4585 11.9751 9.021 11.9751C12.0972 11.9751 14.5996 13.3057 16.8945 13.3057C18.0664 13.3057 18.7866 12.7075 18.7866 11.7554C18.7866 10.8154 18.1152 10.2051 17.2363 10.2051C16.5039 10.2051 15.918 10.6934 15.7959 11.438C15.7227 11.8652 15.3931 12.085 15.0391 12.0361C14.7095 11.9873 14.4531 11.6577 14.5264 11.2549C14.6973 9.93652 15.8081 8.92334 17.2363 8.92334C18.7988 8.92334 20.0684 10.1196 20.0684 11.7554C20.0684 13.4033 18.7378 14.5996 16.8945 14.5996ZM12.0728 19.9463C10.8154 19.9463 9.97314 19.0552 9.83887 17.9321C9.77783 17.5659 9.94873 17.1753 10.4126 17.1509C10.8276 17.1143 11.084 17.4072 11.145 17.749C11.2427 18.3472 11.5234 18.6646 12.0728 18.6646C12.5977 18.6646 13.0005 18.335 13.0005 17.7002C13.0005 16.6748 11.6577 16.04 8.92334 16.04C7.56836 16.04 6.23779 16.272 5.0415 16.7114C4.62646 16.8457 4.27246 16.6382 4.18701 16.2842C4.06494 15.979 4.24805 15.625 4.62646 15.4907C5.94482 15.0269 7.51953 14.7583 8.92334 14.7583C12.3657 14.7583 14.2944 15.7959 14.2944 17.7002C14.2944 19.0186 13.3057 19.9463 12.0728 19.9463ZM17.2363 7.9834C17.0166 7.9834 16.8823 7.8125 16.8945 7.60498L16.9312 6.83594L16.2964 7.2876C16.1377 7.38525 15.8691 7.34863 15.7959 7.15332C15.7104 6.99463 15.7349 6.7627 15.9546 6.65283L16.626 6.33545L15.9546 5.98145C15.7471 5.87158 15.7104 5.62744 15.8081 5.48096C15.8936 5.28564 16.1377 5.26123 16.2964 5.3833L16.9312 5.82275L16.8823 5.05371C16.8701 4.83398 17.0166 4.66309 17.2363 4.66309C17.4438 4.66309 17.5781 4.83398 17.5659 5.06592L17.5293 5.82275L18.1641 5.3833C18.3105 5.26123 18.5791 5.31006 18.6646 5.48096C18.75 5.65186 18.7012 5.87158 18.4937 5.96924L17.8223 6.33545L18.4937 6.65283C18.7134 6.75049 18.7744 7.01904 18.6523 7.17773C18.5669 7.33643 18.3105 7.38525 18.1641 7.2876L17.5293 6.83594L17.5659 7.60498C17.5781 7.8125 17.4438 7.9834 17.2363 7.9834ZM16.9922 18.2373C16.8335 18.2373 16.7358 18.1152 16.748 17.9932L16.7725 17.627L16.4673 17.8467C16.3696 17.9199 16.1743 17.8833 16.1255 17.7734C16.0889 17.6514 16.0767 17.4805 16.2354 17.4072L16.5649 17.2729L16.2354 17.1143C16.0767 17.0288 16.0889 16.8579 16.1377 16.7725C16.1987 16.6382 16.3696 16.6138 16.4673 16.687L16.7725 16.9312L16.7358 16.5405C16.7236 16.4185 16.8335 16.2964 16.9922 16.2964C17.1143 16.2964 17.2241 16.4185 17.2119 16.5527L17.1753 16.9312L17.4805 16.687C17.5659 16.6138 17.7612 16.6504 17.8223 16.7725C17.8589 16.8823 17.8589 17.0288 17.7124 17.1021L17.3706 17.2729L17.7124 17.4072C17.8589 17.4805 17.8833 17.6758 17.8101 17.7856C17.749 17.8711 17.5659 17.9199 17.4805 17.8467L17.1753 17.627L17.2119 17.9932C17.2241 18.1152 17.1143 18.2373 16.9922 18.2373Z" fill="#5ac8f5"/>
 </g>
</svg>
