<?xml version="1.0" encoding="UTF-8"?>
<!--Generator: Apple Native CoreSVG 175.5-->
<!DOCTYPE svg
PUBLIC "-//W3C//DTD SVG 1.1//EN"
       "http://www.w3.org/Graphics/SVG/1.1/DTD/svg11.dtd">
<svg version="1.1" xmlns="http://www.w3.org/2000/svg" xmlns:xlink="http://www.w3.org/1999/xlink" width="24.9023" height="24.9146">
 <g>
  <rect height="24.9146" opacity="0" width="24.9023" x="0" y="0"/>
  <path d="M12.4512 24.9023C19.2627 24.9023 24.9023 19.2505 24.9023 12.4512C24.9023 5.63965 19.2505 0 12.439 0C5.63965 0 0 5.63965 0 12.4512C0 19.2505 5.65186 24.9023 12.4512 24.9023Z" fill="#5ac8f5" fill-opacity="0.25"/>
  <path d="M10.5957 17.8589C10.0952 17.8589 9.83887 17.4927 9.83887 17.0044L9.83887 15.5273L6.16455 15.5273C5.51758 15.5273 5.07812 15.1245 5.07812 14.4531C5.07812 14.1113 5.15137 13.8306 5.35889 13.4399C6.21338 11.9141 7.4707 9.76562 8.52051 7.99561C8.93555 7.2998 9.38721 7.01904 10.1196 7.01904C10.8521 7.01904 11.3647 7.49512 11.3647 8.22754L11.3647 14.1113L12.0361 14.1113C12.4756 14.1113 12.7686 14.3799 12.7686 14.8315C12.7686 15.271 12.4878 15.5273 12.0361 15.5273L11.3647 15.5273L11.3647 17.0044C11.3647 17.5049 11.1084 17.8589 10.5957 17.8589ZM9.83887 14.1113L9.83887 8.72803L9.76562 8.72803C8.76465 10.437 7.48291 12.6343 6.73828 14.0625L6.73828 14.1113ZM17.5171 17.7246C17.0532 17.7246 16.7358 17.4072 16.7358 16.9189L16.7358 9.10645L16.6626 9.10645L15.332 10.0952C15.0269 10.3271 14.917 10.3394 14.7095 10.3394C14.3433 10.3394 13.9893 10.0098 13.9893 9.58252C13.9893 9.25293 14.1479 9.021 14.4165 8.83789L16.3208 7.53174C16.7725 7.22656 17.0166 7.10449 17.4316 7.10449C17.9565 7.10449 18.3228 7.48291 18.3228 8.00781L18.3228 16.9189C18.3228 17.4072 18.0054 17.7246 17.5171 17.7246Z" fill="#5ac8f5"/>
 </g>
</svg>
