<?xml version="1.0" encoding="UTF-8"?>
<!--Generator: Apple Native CoreSVG 175.5-->
<!DOCTYPE svg
PUBLIC "-//W3C//DTD SVG 1.1//EN"
       "http://www.w3.org/Graphics/SVG/1.1/DTD/svg11.dtd">
<svg version="1.1" xmlns="http://www.w3.org/2000/svg" xmlns:xlink="http://www.w3.org/1999/xlink" width="24.9023" height="24.9146">
 <g>
  <rect height="24.9146" opacity="0" width="24.9023" x="0" y="0"/>
  <path d="M12.4512 24.9023C19.2627 24.9023 24.9023 19.2505 24.9023 12.4512C24.9023 5.63965 19.2505 0 12.439 0C5.63965 0 0 5.63965 0 12.4512C0 19.2505 5.65186 24.9023 12.4512 24.9023Z" fill="#5ac8f5" fill-opacity="0.25"/>
  <path d="M3.49121 12.4634C3.49121 12.1338 3.67432 11.8408 4.08936 11.5967L10.083 8.06885C10.3271 7.92236 10.5103 7.86133 10.7544 7.86133C11.2183 7.86133 11.5967 8.19092 11.5967 8.8501L11.5967 12.085C11.6943 11.9019 11.853 11.7432 12.0972 11.5967L18.0908 8.06885C18.335 7.92236 18.5303 7.86133 18.7744 7.86133C19.2261 7.86133 19.6167 8.19092 19.6167 8.8501L19.6167 16.0889C19.6167 16.748 19.2261 17.0776 18.7744 17.0776C18.5303 17.0776 18.335 17.0166 18.0908 16.8701L12.0972 13.3423C11.853 13.1958 11.6943 13.0371 11.5967 12.854L11.5967 16.0889C11.5967 16.748 11.2183 17.0776 10.7544 17.0776C10.5103 17.0776 10.3271 17.0166 10.083 16.8701L4.08936 13.3423C3.67432 13.0981 3.49121 12.8052 3.49121 12.4634Z" fill="#5ac8f5"/>
 </g>
</svg>
