<?xml version="1.0" encoding="UTF-8"?>
<!--Generator: Apple Native CoreSVG 175.5-->
<!DOCTYPE svg
PUBLIC "-//W3C//DTD SVG 1.1//EN"
       "http://www.w3.org/Graphics/SVG/1.1/DTD/svg11.dtd">
<svg version="1.1" xmlns="http://www.w3.org/2000/svg" xmlns:xlink="http://www.w3.org/1999/xlink" width="32.6416" height="27.063">
 <g>
  <rect height="27.063" opacity="0" width="32.6416" x="0" y="0"/>
  <path d="M3.83301 20.1172L21.7407 20.1172C24.2798 20.1172 25.5737 18.8477 25.5737 16.333L25.5737 6.46973C25.5737 3.95508 24.2798 2.68555 21.7407 2.68555L20.6665 2.68555L20.6665 1.31836C20.6665 0.488281 20.1904 0 19.3604 0L16.1621 0C15.332 0 14.856 0.488281 14.856 1.31836L14.856 2.68555L10.73 2.68555L10.73 1.31836C10.73 0.488281 10.2539 0 9.41162 0L6.21338 0C5.3833 0 4.90723 0.488281 4.90723 1.31836L4.90723 2.68555L3.83301 2.68555C1.26953 2.68555 0 3.94287 0 6.46973L0 16.333C0 18.8599 1.26953 20.1172 3.83301 20.1172ZM5.39551 12.207C4.93164 12.207 4.56543 11.8286 4.56543 11.3647C4.56543 10.9131 4.93164 10.5469 5.39551 10.5469L9.91211 10.5469C10.3638 10.5469 10.7544 10.9131 10.7544 11.3647C10.7544 11.8286 10.3638 12.207 9.91211 12.207ZM17.9077 14.7583C17.4438 14.7583 17.0898 14.3921 17.0898 13.916L17.0898 12.207L15.3564 12.207C14.9048 12.207 14.5386 11.8286 14.5386 11.3647C14.5386 10.9131 14.9048 10.5469 15.3564 10.5469L17.0898 10.5469L17.0898 8.82568C17.0898 8.34961 17.4438 7.99561 17.9077 7.99561C18.3838 7.99561 18.75 8.34961 18.75 8.82568L18.75 10.5469L20.4712 10.5469C20.9229 10.5469 21.2891 10.9131 21.2891 11.3647C21.2891 11.8286 20.9229 12.207 20.4712 12.207L18.75 12.207L18.75 13.916C18.75 14.3921 18.3838 14.7583 17.9077 14.7583ZM2.57568 22.0825C2.75879 23.1934 3.28369 23.8037 4.50439 23.8037L21.0815 23.8037C22.3022 23.8037 22.8271 23.1934 23.0103 22.0825ZM5.09033 25.4639C5.16357 26.5015 5.74951 27.0386 6.87256 27.0386L18.7012 27.0386C19.8364 27.0386 20.4224 26.5015 20.4956 25.4639ZM31.0425 21.7163C31.9214 21.7163 32.6416 21.0083 32.6416 20.1782C32.6416 19.3359 31.9336 18.6401 31.0425 18.6401C30.1636 18.6401 29.4434 19.3359 29.4434 20.1782C29.4434 21.0083 30.1758 21.7163 31.0425 21.7163ZM31.0425 16.2964C31.6406 16.2964 32.0679 15.8813 32.0923 15.2588L32.3486 6.61621C32.373 5.83496 31.8481 5.31006 31.0425 5.31006C30.2368 5.31006 29.7241 5.83496 29.7485 6.61621L30.0049 15.2588C30.0293 15.8813 30.4443 16.2964 31.0425 16.2964Z" fill="#5ac8f5"/>
 </g>
</svg>
