<?xml version="1.0" encoding="UTF-8"?>
<!--Generator: Apple Native CoreSVG 175.5-->
<!DOCTYPE svg
PUBLIC "-//W3C//DTD SVG 1.1//EN"
       "http://www.w3.org/Graphics/SVG/1.1/DTD/svg11.dtd">
<svg version="1.1" xmlns="http://www.w3.org/2000/svg" xmlns:xlink="http://www.w3.org/1999/xlink" width="24.9023" height="24.9146">
 <g>
  <rect height="24.9146" opacity="0" width="24.9023" x="0" y="0"/>
  <path d="M12.4512 24.9146C19.2627 24.9146 24.9023 19.2749 24.9023 12.4634C24.9023 5.66406 19.2505 0.012207 12.439 0.012207C5.63965 0.012207 0 5.66406 0 12.4634C0 19.2749 5.65186 24.9146 12.4512 24.9146ZM12.0483 18.1396C11.7432 18.1396 11.4868 18.0176 11.1938 17.7368L8.45947 15.1245C8.42285 15.0879 8.34961 15.0757 8.28857 15.0757L6.44531 15.0757C5.59082 15.0757 5.10254 14.5874 5.10254 13.6719L5.10254 11.2671C5.10254 10.3516 5.59082 9.86328 6.44531 9.86328L8.28857 9.86328C8.34961 9.86328 8.42285 9.85107 8.45947 9.81445L11.1938 7.22656C11.5234 6.92139 11.731 6.78711 12.0239 6.78711C12.4634 6.78711 12.7686 7.12891 12.7686 7.54395L12.7686 17.4194C12.7686 17.8223 12.4634 18.1396 12.0483 18.1396ZM14.9048 15.2954C14.5752 15.0513 14.5142 14.6729 14.7461 14.3311C15.0879 13.855 15.2954 13.1592 15.2954 12.4634C15.2954 11.7188 15.0879 11.0229 14.7583 10.5957C14.5142 10.2539 14.5874 9.86328 14.9048 9.61914C15.1733 9.39941 15.5884 9.49707 15.8081 9.77783C16.3086 10.4736 16.6138 11.4624 16.6138 12.4634C16.6138 13.4888 16.3208 14.4653 15.8081 15.1367C15.5762 15.4297 15.1733 15.5151 14.9048 15.2954ZM17.1265 16.9556C16.7969 16.7603 16.7603 16.3452 16.9922 16.0156C17.6758 15.1001 18.0542 13.7817 18.0542 12.4634C18.0542 11.1084 17.6758 9.83887 16.9922 8.87451C16.7725 8.55713 16.8213 8.1665 17.1265 7.94678C17.4316 7.72705 17.8101 7.80029 18.0298 8.11768C18.9087 9.33838 19.3604 10.8765 19.3604 12.4634C19.3604 14.0625 18.8721 15.6006 18.0298 16.7969C17.8223 17.0898 17.4561 17.1631 17.1265 16.9556Z" fill="#5ac8f5"/>
 </g>
</svg>
