<?xml version="1.0" encoding="UTF-8"?>
<!--Generator: Apple Native CoreSVG 175.5-->
<!DOCTYPE svg
PUBLIC "-//W3C//DTD SVG 1.1//EN"
       "http://www.w3.org/Graphics/SVG/1.1/DTD/svg11.dtd">
<svg version="1.1" xmlns="http://www.w3.org/2000/svg" xmlns:xlink="http://www.w3.org/1999/xlink" width="28.9917" height="27.478">
 <g>
  <rect height="27.478" opacity="0" width="28.9917" x="0" y="0"/>
  <path d="M14.5996 26.3428L18.2617 21.9727C18.6279 21.5454 18.6768 21.4478 18.8232 20.9961L19.0918 20.166L17.1265 17.7002L16.5405 20.459L12.915 24.7559C11.7676 26.1353 13.6475 27.478 14.5996 26.3428ZM23.5352 25.9766C24.2798 27.5024 26.5381 26.5625 25.7202 24.9023L23.23 19.8608C23.0347 19.4824 22.7661 19.0674 22.5342 18.7378L20.9595 16.5039L21.0693 16.1743C21.4966 14.9048 21.6553 14.1479 21.7407 12.8906L21.9849 9.36279C22.1069 7.69043 21.1182 6.4209 19.4092 6.4209C18.1152 6.4209 17.2485 7.06787 16.0645 8.22754L14.1968 10.0708C13.5864 10.6689 13.3911 11.1572 13.3301 11.9507L13.0981 14.8315C13.0371 15.564 13.4399 16.0767 14.1235 16.1011C14.8071 16.1499 15.2222 15.7471 15.2832 14.9658L15.5518 11.8042L16.4551 10.9985C16.7725 10.7056 17.1997 10.9009 17.1753 11.2305L16.98 13.9038C16.8701 15.2588 17.1875 15.9058 18.1274 17.0654L20.5933 20.166C20.8496 20.4834 20.874 20.6055 20.9839 20.8008ZM27.771 11.1816L24.9634 11.1816L23.1812 9.21631L22.9736 12.1582L23.6816 12.8662C24.0723 13.2568 24.4263 13.3789 25.1465 13.3789L27.771 13.3789C28.5156 13.3789 28.9917 12.9639 28.9917 12.2803C28.9917 11.6211 28.5034 11.1816 27.771 11.1816ZM20.7642 5.32227C22.2412 5.32227 23.4253 4.12598 23.4253 2.66113C23.4253 1.18408 22.2412 0 20.7642 0C19.2871 0 18.103 1.18408 18.103 2.66113C18.103 4.12598 19.2871 5.32227 20.7642 5.32227Z" fill="#5ac8f5"/>
  <path d="M5.12695 4.5166L12.1704 4.5166C12.5977 4.5166 12.9395 4.1626 12.9395 3.72314C12.9395 3.28369 12.5977 2.91748 12.1704 2.91748L5.12695 2.91748C4.6875 2.91748 4.35791 3.28369 4.35791 3.72314C4.35791 4.1626 4.6875 4.5166 5.12695 4.5166ZM0.756836 10.6323L9.11865 10.6323C9.55811 10.6323 9.8877 10.2783 9.8877 9.83887C9.8877 9.39941 9.55811 9.0332 9.11865 9.0332L0.756836 9.0332C0.32959 9.0332 0 9.41162 0 9.83887C0 10.2661 0.32959 10.6323 0.756836 10.6323ZM4.40674 16.748L9.05762 16.748C9.48486 16.748 9.81445 16.394 9.81445 15.9546C9.81445 15.5151 9.48486 15.1489 9.05762 15.1489L4.40674 15.1489C3.96729 15.1489 3.6377 15.5151 3.6377 15.9546C3.6377 16.394 3.96729 16.748 4.40674 16.748ZM1.19629 22.7905L7.56836 22.7905C7.99561 22.7905 8.3252 22.4365 8.3252 21.9971C8.3252 21.5576 7.99561 21.1914 7.56836 21.1914L1.19629 21.1914C0.769043 21.1914 0.439453 21.5576 0.439453 21.9971C0.439453 22.4365 0.769043 22.7905 1.19629 22.7905Z" fill="#5ac8f5" fill-opacity="0.5"/>
 </g>
</svg>
