<?xml version="1.0" encoding="UTF-8"?>
<!--Generator: Apple Native CoreSVG 175.5-->
<!DOCTYPE svg
PUBLIC "-//W3C//DTD SVG 1.1//EN"
       "http://www.w3.org/Graphics/SVG/1.1/DTD/svg11.dtd">
<svg version="1.1" xmlns="http://www.w3.org/2000/svg" xmlns:xlink="http://www.w3.org/1999/xlink" width="30.6152" height="23.23">
 <g>
  <rect height="23.23" opacity="0" width="30.6152" x="0" y="0"/>
  <path d="M0 0.98877C0 1.52588 0.439453 1.96533 0.976562 1.96533L29.6387 1.96533C30.1758 1.96533 30.6152 1.52588 30.6152 0.98877C30.6152 0.45166 30.1758 0 29.6387 0L0.976562 0C0.439453 0 0 0.45166 0 0.98877ZM3.67432 12.6343L21.1426 12.6343L21.1426 16.9189C21.1426 17.7856 22.229 18.2251 22.8638 17.5659L27.7588 12.5854C28.4668 11.8652 28.2349 10.5957 26.9531 10.5957L9.48486 10.5957L9.48486 6.31104C9.48486 5.44434 8.39844 5.00488 7.76367 5.66406L2.88086 10.6445C2.16064 11.3647 2.39258 12.6343 3.67432 12.6343ZM0 22.229C0 22.7661 0.439453 23.2178 0.976562 23.2178L29.6387 23.2178C30.1758 23.2178 30.6152 22.7661 30.6152 22.229C30.6152 21.6919 30.1758 21.2524 29.6387 21.2524L0.976562 21.2524C0.439453 21.2524 0 21.6919 0 22.229Z" fill="#5ac8f5"/>
 </g>
</svg>
