<?xml version="1.0" encoding="UTF-8"?>
<!--Generator: Apple Native CoreSVG 175.5-->
<!DOCTYPE svg
PUBLIC "-//W3C//DTD SVG 1.1//EN"
       "http://www.w3.org/Graphics/SVG/1.1/DTD/svg11.dtd">
<svg version="1.1" xmlns="http://www.w3.org/2000/svg" xmlns:xlink="http://www.w3.org/1999/xlink" width="24.9023" height="24.9146">
 <g>
  <rect height="24.9146" opacity="0" width="24.9023" x="0" y="0"/>
  <path d="M12.4512 24.9023C19.2627 24.9023 24.9023 19.2505 24.9023 12.4512C24.9023 5.63965 19.2505 0 12.439 0C5.63965 0 0 5.63965 0 12.4512C0 19.2505 5.65186 24.9023 12.4512 24.9023ZM6.78711 17.5903C6.33545 17.5903 6.04248 17.2974 6.04248 16.8457C6.04248 16.5894 6.12793 16.3818 6.32324 16.1621L9.64355 12.2681C10.2417 11.5601 10.9009 10.8521 10.9009 10.0342C10.9009 9.10645 10.2539 8.48389 9.22852 8.48389C8.3252 8.48389 7.70264 8.94775 7.37305 9.8877C7.21436 10.2661 7.01904 10.4736 6.65283 10.4736C6.22559 10.4736 5.95703 10.1807 5.95703 9.7168C5.95703 9.57031 5.98145 9.42383 6.00586 9.26514C6.33545 7.9834 7.66602 7.03125 9.16748 7.03125C11.145 7.03125 12.4268 8.14209 12.4268 9.8999C12.4268 11.1572 11.7432 12.0605 10.8032 13.147L8.34961 16.0156L8.34961 16.1011L11.9873 16.1011C12.3901 16.1011 12.6953 16.3696 12.6953 16.8335C12.6953 17.2852 12.3901 17.5903 11.9873 17.5903ZM17.749 17.7246C17.2729 17.7246 16.9678 17.4194 16.9678 16.9189L16.9678 9.11865L16.8945 9.11865L15.5518 10.1074C15.271 10.3271 15.1367 10.3394 14.9414 10.3394C14.5752 10.3394 14.2212 10.0098 14.2212 9.58252C14.2212 9.25293 14.3799 9.0332 14.6484 8.83789L16.5527 7.53174C16.9922 7.22656 17.2485 7.10449 17.6514 7.10449C18.1885 7.10449 18.5547 7.48291 18.5547 8.00781L18.5547 16.9189C18.5547 17.4194 18.2373 17.7246 17.749 17.7246Z" fill="#5ac8f5"/>
 </g>
</svg>
