<?xml version="1.0" encoding="UTF-8"?>
<!--Generator: Apple Native CoreSVG 175.5-->
<!DOCTYPE svg
PUBLIC "-//W3C//DTD SVG 1.1//EN"
       "http://www.w3.org/Graphics/SVG/1.1/DTD/svg11.dtd">
<svg version="1.1" xmlns="http://www.w3.org/2000/svg" xmlns:xlink="http://www.w3.org/1999/xlink" width="27.9053" height="24.5483">
 <g>
  <rect height="24.5483" opacity="0" width="27.9053" x="0" y="0"/>
  <path d="M1.29395 5.29785L26.6113 5.29785C27.3804 5.29785 27.9053 4.77295 27.9053 3.9917L27.9053 1.28174C27.9053 0.524902 27.3804 0 26.6113 0L1.29395 0C0.524902 0 0 0.524902 0 1.28174L0 3.9917C0 4.77295 0.524902 5.29785 1.29395 5.29785ZM2.80762 23.4619L25.0977 23.4619L25.0977 6.71387L2.80762 6.71387ZM6.84814 22.522L6.84814 10.7178C6.84814 9.65576 7.50732 9.00879 8.55713 9.00879L19.3481 9.00879C20.3979 9.00879 21.0571 9.65576 21.0571 10.7178L21.0571 22.522L19.519 22.522L19.519 11.1572C19.519 10.7666 19.2871 10.5347 18.9087 10.5347L8.99658 10.5347C8.61816 10.5347 8.38623 10.7666 8.38623 11.1572L8.38623 22.522ZM13.8184 21.2769C11.9507 21.2769 10.7056 20.2026 10.7056 18.5547C10.7056 17.1265 11.377 16.6016 11.377 15.6006C11.377 15.4541 11.3647 15.2466 11.3647 15.1489C11.3647 15.0024 11.4624 14.9048 11.6089 14.9048C11.9629 14.9048 12.4023 15.21 12.6221 15.6494C12.6587 14.6851 12.2192 13.9893 11.7188 13.3423C11.438 12.9761 11.6577 12.6587 12.1948 12.6587C14.3066 12.6587 17.334 14.1479 17.334 17.7246C17.334 19.8608 15.9424 21.2769 13.8184 21.2769ZM13.9404 20.1538C14.8804 20.1538 15.332 19.4702 15.332 18.6768C15.332 17.6758 14.6118 16.8579 13.9648 16.6138C14.0869 17.334 13.9526 17.8833 13.7329 18.2129C13.623 17.9443 13.4888 17.7368 13.2812 17.5903C13.1958 18.0908 12.6953 18.335 12.6953 19.0308C12.6953 19.7144 13.1958 20.1538 13.9404 20.1538ZM1.02539 24.4873L26.8799 24.4873C27.417 24.4873 27.8687 24.0356 27.8687 23.4985C27.8687 22.9614 27.417 22.522 26.8799 22.522L1.02539 22.522C0.488281 22.522 0.0366211 22.9614 0.0366211 23.4985C0.0366211 24.0356 0.488281 24.4873 1.02539 24.4873Z" fill="#5ac8f5"/>
 </g>
</svg>
