<?xml version="1.0" encoding="UTF-8"?>
<!--Generator: Apple Native CoreSVG 175.5-->
<!DOCTYPE svg
PUBLIC "-//W3C//DTD SVG 1.1//EN"
       "http://www.w3.org/Graphics/SVG/1.1/DTD/svg11.dtd">
<svg version="1.1" xmlns="http://www.w3.org/2000/svg" xmlns:xlink="http://www.w3.org/1999/xlink" width="23.9014" height="23.9136">
 <g>
  <rect height="23.9136" opacity="0" width="23.9014" x="0" y="0"/>
  <path d="M0.976562 7.78809C1.62354 7.78809 1.96533 7.42188 1.96533 6.78711L1.96533 3.90625C1.96533 2.63672 2.63672 1.98975 3.85742 1.98975L6.81152 1.98975C7.4585 1.98975 7.8125 1.63574 7.8125 1.00098C7.8125 0.366211 7.4585 0.0244141 6.81152 0.0244141L3.83301 0.0244141C1.28174 0.0244141 0 1.28174 0 3.79639L0 6.78711C0 7.42188 0.354004 7.78809 0.976562 7.78809ZM22.9126 7.78809C23.5596 7.78809 23.9014 7.42188 23.9014 6.78711L23.9014 3.79639C23.9014 1.28174 22.6196 0.0244141 20.0684 0.0244141L17.0776 0.0244141C16.4429 0.0244141 16.0889 0.366211 16.0889 1.00098C16.0889 1.63574 16.4429 1.98975 17.0776 1.98975L20.0317 1.98975C21.2402 1.98975 21.936 2.63672 21.936 3.90625L21.936 6.78711C21.936 7.42188 22.29 7.78809 22.9126 7.78809ZM3.83301 23.9136L6.81152 23.9136C7.4585 23.9136 7.8125 23.5596 7.8125 22.937C7.8125 22.3022 7.4585 21.9482 6.81152 21.9482L3.85742 21.9482C2.63672 21.9482 1.96533 21.3013 1.96533 20.0317L1.96533 17.1509C1.96533 16.5039 1.61133 16.1499 0.976562 16.1499C0.341797 16.1499 0 16.5039 0 17.1509L0 20.1294C0 22.6562 1.28174 23.9136 3.83301 23.9136ZM17.0776 23.9136L20.0684 23.9136C22.6196 23.9136 23.9014 22.644 23.9014 20.1294L23.9014 17.1509C23.9014 16.5039 23.5474 16.1499 22.9126 16.1499C22.2778 16.1499 21.936 16.5039 21.936 17.1509L21.936 20.0317C21.936 21.3013 21.2402 21.9482 20.0317 21.9482L17.0776 21.9482C16.4429 21.9482 16.0889 22.3022 16.0889 22.937C16.0889 23.5596 16.4429 23.9136 17.0776 23.9136Z" fill="#5ac8f5" fill-opacity="0.5"/>
  <path d="M7.2998 11.145C7.87354 11.145 8.28857 10.7422 8.28857 10.1562L8.28857 8.49609C8.28857 7.91016 7.87354 7.50732 7.2998 7.50732C6.72607 7.50732 6.32324 7.91016 6.32324 8.49609L6.32324 10.1562C6.32324 10.7422 6.72607 11.145 7.2998 11.145ZM10.9741 14.0259C10.9985 14.0259 11.0352 14.0259 11.0718 14.0259C12.3047 14.0259 12.9761 13.3545 12.9761 12.1216L12.9761 8.27637C12.9761 7.80029 12.6587 7.49512 12.1948 7.49512C11.7065 7.49512 11.3892 7.80029 11.3892 8.27637L11.3892 12.2314C11.3892 12.3535 11.3159 12.4146 11.2061 12.4146L10.7788 12.4146C10.3394 12.4146 9.99756 12.7563 9.99756 13.1958C9.99756 13.7207 10.3516 14.0259 10.9741 14.0259ZM16.5649 11.145C17.1265 11.145 17.5293 10.7422 17.5293 10.1562L17.5293 8.49609C17.5293 7.91016 17.1265 7.50732 16.5649 7.50732C15.979 7.50732 15.5762 7.91016 15.5762 8.49609L15.5762 10.1562C15.5762 10.7422 15.979 11.145 16.5649 11.145ZM11.8774 18.1274C13.3545 18.1274 14.8438 17.4927 15.9058 16.4307C16.0522 16.2964 16.1255 16.0889 16.1255 15.8447C16.1255 15.3809 15.7837 15.0513 15.332 15.0513C15.1001 15.0513 14.9292 15.1367 14.6973 15.3809C14.0259 16.0767 12.9639 16.5527 11.8774 16.5527C10.8521 16.5527 9.77783 16.1011 9.06982 15.3809C8.87451 15.1978 8.71582 15.0513 8.42285 15.0513C7.97119 15.0513 7.62939 15.3809 7.62939 15.8447C7.62939 16.0522 7.70264 16.2476 7.86133 16.4185C8.8501 17.5415 10.4004 18.1274 11.8774 18.1274Z" fill="#5ac8f5"/>
 </g>
</svg>
