<?xml version="1.0" encoding="UTF-8"?>
<!--Generator: Apple Native CoreSVG 175.5-->
<!DOCTYPE svg
PUBLIC "-//W3C//DTD SVG 1.1//EN"
       "http://www.w3.org/Graphics/SVG/1.1/DTD/svg11.dtd">
<svg version="1.1" xmlns="http://www.w3.org/2000/svg" xmlns:xlink="http://www.w3.org/1999/xlink" width="31.2866" height="21.7896">
 <g>
  <rect height="21.7896" opacity="0" width="31.2866" x="0" y="0"/>
  <path d="M10.5591 18.3594L13.7695 18.3594C12.1094 17.6636 10.9253 16.0034 10.9253 14.0869C10.9253 11.499 13.0615 9.36279 15.6494 9.36279C18.2251 9.36279 20.3613 11.499 20.3613 14.0869C20.3613 16.0034 19.1772 17.6636 17.5171 18.3594L20.7275 18.3594C21.7163 17.1997 22.3145 15.7104 22.3145 14.0869C22.3145 10.4248 19.2871 7.39746 15.6494 7.39746C11.9995 7.39746 8.97217 10.4248 8.97217 14.0869C8.97217 15.7104 9.57031 17.1997 10.5591 18.3594ZM2.64893 14.7583L5.65186 14.7583C6.28662 14.7583 6.7627 14.3188 6.75049 13.7695C6.73828 13.2202 6.27441 12.7808 5.65186 12.7808L2.64893 12.7808C2.01416 12.7808 1.5625 13.2202 1.5625 13.7695C1.5625 14.3188 2.01416 14.7583 2.64893 14.7583ZM9.35059 7.78809C9.729 7.39746 9.729 6.75049 9.27734 6.31104L7.15332 4.18701C6.70166 3.72314 6.0791 3.74756 5.68848 4.12598C5.29785 4.50439 5.28564 5.13916 5.74951 5.59082L7.87354 7.71484C8.31299 8.1665 8.97217 8.17871 9.35059 7.78809ZM21.936 7.78809C22.3267 8.1665 22.9736 8.1665 23.4131 7.71484L25.5371 5.59082C26.001 5.13916 25.9766 4.5166 25.5981 4.12598C25.2197 3.73535 24.585 3.72314 24.1333 4.18701L22.0093 6.31104C21.5576 6.75049 21.5454 7.40967 21.936 7.78809ZM25.6348 14.7583L28.6377 14.7583C29.2725 14.7583 29.7241 14.3188 29.7241 13.7695C29.7241 13.2202 29.2725 12.7808 28.6377 12.7808L25.6348 12.7808C25.0122 12.7808 24.5239 13.2202 24.5361 13.7695C24.5483 14.3188 25.0122 14.7583 25.6348 14.7583ZM15.6494 5.18799C16.1865 5.17578 16.6382 4.71191 16.6382 4.08936L16.6382 1.08643C16.6382 0.45166 16.1865 0 15.6494 0C15.1001 0 14.6484 0.45166 14.6484 1.08643L14.6484 4.08936C14.6484 4.71191 15.1001 5.2002 15.6494 5.18799ZM1.06201 19.9097L30.2246 19.9097C30.7983 19.9097 31.2866 19.4702 31.2866 18.9331C31.2866 18.396 30.7983 17.9565 30.2246 17.9565L1.06201 17.9565C0.488281 17.9565 0 18.396 0 18.9331C0 19.4702 0.488281 19.9097 1.06201 19.9097Z" fill="#5ac8f5"/>
 </g>
</svg>
