<?xml version="1.0" encoding="UTF-8"?>
<!--Generator: Apple Native CoreSVG 175.5-->
<!DOCTYPE svg
PUBLIC "-//W3C//DTD SVG 1.1//EN"
       "http://www.w3.org/Graphics/SVG/1.1/DTD/svg11.dtd">
<svg version="1.1" xmlns="http://www.w3.org/2000/svg" xmlns:xlink="http://www.w3.org/1999/xlink" width="30.4321" height="19.3726">
 <g>
  <rect height="19.3726" opacity="0" width="30.4321" x="0" y="0"/>
  <path d="M0 15.6372C0 18.1274 1.25732 19.3726 3.78418 19.3726L26.6479 19.3726C29.1748 19.3726 30.4321 18.1274 30.4321 15.6372L30.4321 3.73535C30.4321 1.24512 29.1748 0 26.6479 0L3.78418 0C1.25732 0 0 1.24512 0 3.73535ZM4.46777 9.47266L4.46777 5.71289C4.46777 4.98047 4.90723 4.55322 5.62744 4.55322L24.8047 4.55322C25.5249 4.55322 25.9644 4.98047 25.9644 5.71289L25.9644 9.47266C25.9644 10.1685 25.5249 10.5957 24.8047 10.5957L5.62744 10.5957C4.90723 10.5957 4.46777 10.1685 4.46777 9.47266Z" fill="#5ac8f5"/>
 </g>
</svg>
