<?xml version="1.0" encoding="UTF-8"?>
<!--Generator: Apple Native CoreSVG 175.5-->
<!DOCTYPE svg
PUBLIC "-//W3C//DTD SVG 1.1//EN"
       "http://www.w3.org/Graphics/SVG/1.1/DTD/svg11.dtd">
<svg version="1.1" xmlns="http://www.w3.org/2000/svg" xmlns:xlink="http://www.w3.org/1999/xlink" width="36.6821" height="31.2622">
 <g>
  <rect height="31.2622" opacity="0" width="36.6821" x="0" y="0"/>
  <path d="M0.976562 26.7944L35.6934 26.7944C36.2305 26.7944 36.6821 26.3428 36.6821 25.8057C36.6821 25.2686 36.2305 24.8291 35.6934 24.8291L0.976562 24.8291C0.439453 24.8291 0 25.2686 0 25.8057C0 26.3428 0.439453 26.7944 0.976562 26.7944ZM0.634766 22.0337C0.952148 22.3511 1.42822 22.3389 1.74561 22.0337L5.92041 17.8711C6.25 17.5537 6.25 17.0776 5.92041 16.7603C5.60303 16.4307 5.12695 16.4429 4.80957 16.7603L0.634766 20.9106C0.305176 21.2402 0.305176 21.7163 0.634766 22.0337ZM4.80957 22.0337C5.12695 22.3511 5.60303 22.3511 5.92041 22.0337C6.25 21.7163 6.25 21.228 5.92041 20.9106L1.74561 16.7603C1.42822 16.4307 0.952148 16.4307 0.634766 16.7603C0.305176 17.0776 0.305176 17.5659 0.634766 17.8711Z" fill="#5ac8f5" fill-opacity="0.5"/>
  <path d="M12.2314 31.2622C17.2852 31.2622 20.5933 24.8901 20.5933 16.7969C20.5933 9.92432 17.4805 4.38232 12.5977 4.38232C9.46045 4.38232 7.03125 7.05566 7.03125 10.4614C7.03125 15.5029 11.1816 19.6045 15.5029 21.6431C15.6738 21.7163 15.8203 21.7529 15.9668 21.7529C16.4551 21.7529 16.8213 21.3623 16.8213 20.9351C16.8213 20.6421 16.6626 20.3491 16.3086 20.1782C13.5132 18.8232 8.89893 15.3809 8.89893 10.4614C8.89893 8.08105 10.5103 6.23779 12.5977 6.23779C16.3452 6.23779 18.7378 11.0107 18.7378 16.7969C18.7378 23.7061 16.04 29.4067 12.4512 29.4067C11.2793 29.4067 10.73 28.6377 10.73 27.5391C10.73 24.1333 15.8936 17.4927 22.9858 17.4927C23.4131 17.4927 23.6572 17.6758 23.6572 17.9932C23.6572 19.0552 23.0835 19.8853 23.0835 20.9473C23.0835 21.875 23.7549 22.4365 24.6582 22.4365C27.1362 22.4365 30.1147 18.2007 31.1157 18.2007C32.019 18.2007 30.896 22.0093 33.96 22.0093C34.4727 22.0093 35.1196 21.875 35.6201 21.5454C35.9131 21.3501 36.1206 21.0571 36.1206 20.6787C36.1206 20.2148 35.8154 19.8364 35.3394 19.8364C34.9121 19.8364 34.5581 20.1904 34.1431 20.1904C32.8247 20.1904 34.082 16.1377 31.6528 16.1377C29.5166 16.1377 26.2085 20.2637 25.354 20.2637C25.2563 20.2637 25.1709 20.2026 25.1709 20.0562C25.1709 19.6167 25.708 18.6157 25.708 17.6392C25.708 16.4185 24.6948 15.6372 23.1201 15.6372C14.9658 15.6372 8.82568 23.291 8.82568 27.8931C8.82568 29.8584 9.93652 31.2622 12.2314 31.2622Z" fill="#5ac8f5"/>
 </g>
</svg>
