<?xml version="1.0" encoding="UTF-8"?>
<!--Generator: Apple Native CoreSVG 175.5-->
<!DOCTYPE svg
PUBLIC "-//W3C//DTD SVG 1.1//EN"
       "http://www.w3.org/Graphics/SVG/1.1/DTD/svg11.dtd">
<svg version="1.1" xmlns="http://www.w3.org/2000/svg" xmlns:xlink="http://www.w3.org/1999/xlink" width="20.5322" height="26.1841">
 <g>
  <rect height="26.1841" opacity="0" width="20.5322" x="0" y="0"/>
  <path d="M4.76074 11.6577C5.09033 11.6577 5.29785 11.4868 5.40771 11.0718L5.82275 9.86328L8.11768 9.86328L8.55713 11.0718C8.66699 11.4746 8.87451 11.6577 9.19189 11.6577C9.60693 11.6577 9.83887 11.4258 9.83887 11.0352C9.83887 10.9497 9.81445 10.791 9.76562 10.6323L7.97119 5.66406C7.78809 5.15137 7.48291 4.90723 6.95801 4.90723C6.46973 4.90723 6.17676 5.15137 5.99365 5.66406L4.19922 10.6323C4.13818 10.7788 4.11377 10.9497 4.11377 11.0352C4.11377 11.4258 4.35791 11.6577 4.76074 11.6577ZM6.10352 8.8501L6.93359 6.28662L7.00684 6.28662L7.84912 8.8501ZM11.9629 7.01904L15.686 7.01904C16.1133 7.01904 16.4429 6.68945 16.4429 6.26221C16.4429 5.84717 16.1133 5.51758 15.686 5.51758L11.9629 5.51758C11.5112 5.51758 11.1938 5.84717 11.1938 6.26221C11.1938 6.68945 11.5112 7.01904 11.9629 7.01904ZM11.9629 11.2793L15.686 11.2793C16.1133 11.2793 16.4429 10.9497 16.4429 10.5225C16.4429 10.1074 16.1133 9.77783 15.686 9.77783L11.9629 9.77783C11.5112 9.77783 11.1938 10.1074 11.1938 10.5225C11.1938 10.9497 11.5112 11.2793 11.9629 11.2793ZM4.05273 21.3745L4.90723 21.3745L6.51855 19.751C6.75049 19.5312 6.99463 19.4458 7.23877 19.4458C7.48291 19.4458 7.75146 19.5435 7.9834 19.751L8.98438 20.6665L11.4868 18.4448C11.7676 18.2007 12.0605 18.0908 12.3413 18.0908C12.6465 18.0908 12.9639 18.1885 13.1836 18.4448L15.625 21.2524L16.4795 21.2524L16.4795 15.4175C16.4795 14.3433 15.918 13.7939 14.8438 13.7939L5.70068 13.7939C4.66309 13.7939 4.05273 14.3433 4.05273 15.4175ZM8.08105 18.4448C7.34863 18.4448 6.7627 17.8345 6.7627 17.1265C6.7627 16.394 7.34863 15.7837 8.08105 15.8081C8.80127 15.8325 9.39941 16.394 9.39941 17.1265C9.39941 17.8345 8.80127 18.4448 8.08105 18.4448ZM0 22.3511C0 24.9023 1.25732 26.1719 3.78418 26.1719L16.748 26.1719C19.2749 26.1719 20.5322 24.9023 20.5322 22.3511L20.5322 3.83301C20.5322 1.29395 19.2749 0 16.748 0L3.78418 0C1.25732 0 0 1.29395 0 3.83301ZM1.96533 22.3145L1.96533 3.86963C1.96533 2.64893 2.6123 1.96533 3.88184 1.96533L16.6504 1.96533C17.9199 1.96533 18.5669 2.64893 18.5669 3.86963L18.5669 22.3145C18.5669 23.5352 17.9199 24.2065 16.6504 24.2065L3.88184 24.2065C2.6123 24.2065 1.96533 23.5352 1.96533 22.3145Z" fill="#5ac8f5"/>
 </g>
</svg>
