<?xml version="1.0" encoding="UTF-8"?>
<!--Generator: Apple Native CoreSVG 175.5-->
<!DOCTYPE svg
PUBLIC "-//W3C//DTD SVG 1.1//EN"
       "http://www.w3.org/Graphics/SVG/1.1/DTD/svg11.dtd">
<svg version="1.1" xmlns="http://www.w3.org/2000/svg" xmlns:xlink="http://www.w3.org/1999/xlink" width="27.5146" height="24.8657">
 <g>
  <rect height="24.8657" opacity="0" width="27.5146" x="0" y="0"/>
  <path d="M27.5146 12.4268C27.5024 10.9985 25.5615 9.96094 23.23 9.96094L18.3105 9.96094C17.627 9.96094 17.3706 9.85107 16.9678 9.38721L8.76465 0.439453C8.5083 0.146484 8.19092 0 7.82471 0L6.40869 0C6.09131 0 5.9082 0.280762 6.06689 0.622559L10.2905 9.96094L4.08936 10.6689L1.87988 6.61621C1.72119 6.31104 1.45264 6.17676 1.0498 6.17676L0.524902 6.17676C0.20752 6.17676 0 6.38428 0 6.70166L0 18.1519C0 18.4692 0.20752 18.6646 0.524902 18.6646L1.0498 18.6646C1.45264 18.6646 1.72119 18.5303 1.87988 18.2373L4.08936 14.1846L10.2905 14.8926L6.06689 24.231C5.9082 24.5605 6.09131 24.8535 6.40869 24.8535L7.82471 24.8535C8.19092 24.8535 8.5083 24.6948 8.76465 24.4141L16.9678 15.4541C17.3706 15.0024 17.627 14.8926 18.3105 14.8926L23.23 14.8926C25.5615 14.8926 27.5024 13.8428 27.5146 12.4268Z" fill="#5ac8f5"/>
 </g>
</svg>
