<?xml version="1.0" encoding="UTF-8"?>
<!--Generator: Apple Native CoreSVG 175.5-->
<!DOCTYPE svg
PUBLIC "-//W3C//DTD SVG 1.1//EN"
       "http://www.w3.org/Graphics/SVG/1.1/DTD/svg11.dtd">
<svg version="1.1" xmlns="http://www.w3.org/2000/svg" xmlns:xlink="http://www.w3.org/1999/xlink" width="28.7842" height="22.4731">
 <g>
  <rect height="22.4731" opacity="0" width="28.7842" x="0" y="0"/>
  <path d="M3.83301 22.4731L24.9512 22.4731C27.5146 22.4731 28.7842 21.2158 28.7842 18.7012L28.7842 3.78418C28.7842 1.26953 27.5146 0 24.9512 0L3.83301 0C1.28174 0 0 1.26953 0 3.78418L0 18.7012C0 21.2158 1.28174 22.4731 3.83301 22.4731ZM3.85742 20.5078C2.63672 20.5078 1.96533 19.8608 1.96533 18.5913L1.96533 3.89404C1.96533 2.62451 2.63672 1.96533 3.85742 1.96533L24.9268 1.96533C26.1353 1.96533 26.8188 2.62451 26.8188 3.89404L26.8188 18.5913C26.8188 19.8608 26.1353 20.5078 24.9268 20.5078ZM5.24902 17.5171C5.24902 18.1519 5.68848 18.5669 6.33545 18.5669L22.4854 18.5669C23.1323 18.5669 23.5718 18.1519 23.5718 17.5171L23.5718 15.686C23.5718 15.0391 23.1323 14.624 22.4854 14.624L6.33545 14.624C5.68848 14.624 5.24902 15.0391 5.24902 15.686ZM14.4043 3.97949C13.8794 3.97949 13.4277 4.41895 13.4277 4.93164L13.4277 8.47168L13.5132 10.5225L12.4634 9.42383L10.8765 7.83691C10.6812 7.65381 10.437 7.54395 10.1929 7.54395C9.68018 7.54395 9.31396 7.89795 9.31396 8.41064C9.31396 8.69141 9.42383 8.89893 9.63135 9.08203L13.6963 12.8784C13.9526 13.1104 14.1479 13.1958 14.4043 13.1958C14.6484 13.1958 14.856 13.1104 15.1123 12.8784L19.165 9.08203C19.3848 8.89893 19.4946 8.69141 19.4946 8.41064C19.4946 7.89795 19.1162 7.54395 18.5913 7.54395C18.3472 7.54395 18.1152 7.65381 17.9321 7.83691L16.3452 9.42383L15.2954 10.5225L15.3687 8.47168L15.3687 4.93164C15.3687 4.41895 14.9292 3.97949 14.4043 3.97949Z" fill="#5ac8f5"/>
 </g>
</svg>
