<?xml version="1.0" encoding="UTF-8"?>
<!--Generator: Apple Native CoreSVG 175.5-->
<!DOCTYPE svg
PUBLIC "-//W3C//DTD SVG 1.1//EN"
       "http://www.w3.org/Graphics/SVG/1.1/DTD/svg11.dtd">
<svg version="1.1" xmlns="http://www.w3.org/2000/svg" xmlns:xlink="http://www.w3.org/1999/xlink" width="22.4731" height="22.4976">
 <g>
  <rect height="22.4976" opacity="0" width="22.4731" x="0" y="0"/>
  <path d="M3.83301 22.4976L18.6401 22.4976C21.2036 22.4976 22.4731 21.228 22.4731 18.7134L22.4731 3.80859C22.4731 1.29395 21.2036 0.0244141 18.6401 0.0244141L3.83301 0.0244141C1.28174 0.0244141 0 1.28174 0 3.80859L0 18.7134C0 21.2402 1.28174 22.4976 3.83301 22.4976ZM6.38428 11.3647C6.38428 10.9985 6.65283 10.7422 6.99463 10.7422L7.78809 10.7422L7.78809 6.15234C7.78809 5.62744 8.11768 5.32227 8.61816 5.32227C9.10645 5.32227 9.42383 5.62744 9.42383 6.15234L9.42383 10.7422L9.99756 10.7422L14.0747 5.70068C14.2944 5.40771 14.5142 5.29785 14.7583 5.29785C15.1978 5.29785 15.5273 5.62744 15.5273 6.05469C15.5273 6.21338 15.4541 6.4209 15.3076 6.5918L11.9263 10.7422L15.1855 10.7422C15.5518 10.7422 15.7959 10.9985 15.7959 11.3647C15.7959 11.7065 15.5518 11.9995 15.1855 11.9995L11.9385 11.9995L15.3198 16.1865C15.4541 16.3696 15.5396 16.5771 15.5396 16.7358C15.5396 17.1631 15.1855 17.4927 14.7461 17.4927C14.5142 17.4927 14.2944 17.3828 14.0747 17.1021L10.022 11.9995L9.42383 11.9995L9.42383 16.6626C9.42383 17.1753 9.09424 17.4927 8.61816 17.4927C8.12988 17.4927 7.78809 17.1753 7.78809 16.6626L7.78809 11.9995L6.99463 11.9995C6.65283 11.9995 6.38428 11.7065 6.38428 11.3647Z" fill="#5ac8f5"/>
 </g>
</svg>
