<?xml version="1.0" encoding="UTF-8"?>
<!--Generator: Apple Native CoreSVG 175.5-->
<!DOCTYPE svg
PUBLIC "-//W3C//DTD SVG 1.1//EN"
       "http://www.w3.org/Graphics/SVG/1.1/DTD/svg11.dtd">
<svg version="1.1" xmlns="http://www.w3.org/2000/svg" xmlns:xlink="http://www.w3.org/1999/xlink" width="24.5605" height="24.0601">
 <g>
  <rect height="24.0601" opacity="0" width="24.5605" x="0" y="0"/>
  <path d="M5.39551 23.5962C6.53076 23.5962 7.69043 23.1323 8.6792 22.3389L7.42188 21.0693C6.82373 21.4966 6.14014 21.7285 5.40771 21.7285C3.479 21.7285 2.03857 20.4224 2.03857 18.5791C2.03857 15.9058 4.27246 14.563 6.82373 14.9536C8.30078 11.7065 9.05762 7.78809 9.8999 4.28467C10.2661 2.7832 10.9497 1.96533 12.2803 1.96533C13.6108 1.96533 14.2944 2.7832 14.6484 4.28467C15.5029 7.78809 16.2598 11.7065 17.7368 14.9536C20.2881 14.563 22.522 15.9058 22.522 18.5791C22.522 20.4224 21.0815 21.7285 19.1528 21.7285C18.4204 21.7285 17.7368 21.4966 17.1265 21.0693L15.8813 22.3389C16.8579 23.1323 18.0298 23.5962 19.165 23.5962C22.4121 23.5962 24.5605 21.5454 24.5605 18.457C24.5605 15.5151 22.4365 13.3179 19.2017 12.9639C18.0908 10.0586 17.2119 6.86035 16.5039 3.79639C15.9424 1.31836 14.5508 0 12.2803 0C10.0098 0 8.61816 1.31836 8.05664 3.79639C7.34863 6.86035 6.46973 10.0586 5.35889 12.9639C2.12402 13.3179 0 15.5151 0 18.457C0 21.5454 2.14844 23.5962 5.39551 23.5962ZM12.2803 23.9624C15.2588 23.9624 16.8335 22.5708 17.9199 21.167C18.1763 21.3257 18.457 21.4111 18.7622 21.4111C19.7388 21.4111 20.3003 20.7275 20.3003 20.0195C20.3003 19.3115 19.7754 18.6279 18.8599 18.6279C18.2007 18.6279 17.8223 18.9819 17.2729 19.5801C15.7593 21.2036 14.3921 21.9116 12.2803 21.9116C10.1685 21.9116 8.78906 21.2158 7.2876 19.5801C6.73828 18.9819 6.35986 18.6279 5.70068 18.6279C4.77295 18.6279 4.26025 19.3115 4.26025 20.0195C4.26025 20.7275 4.82178 21.4111 5.78613 21.4111C6.10352 21.4111 6.38428 21.3257 6.62842 21.167C7.72705 22.5708 9.30176 23.9624 12.2803 23.9624Z" fill="#5ac8f5"/>
 </g>
</svg>
