<?xml version="1.0" encoding="UTF-8"?>
<!--Generator: Apple Native CoreSVG 175.5-->
<!DOCTYPE svg
PUBLIC "-//W3C//DTD SVG 1.1//EN"
       "http://www.w3.org/Graphics/SVG/1.1/DTD/svg11.dtd">
<svg version="1.1" xmlns="http://www.w3.org/2000/svg" xmlns:xlink="http://www.w3.org/1999/xlink" width="24.9023" height="24.9146">
 <g>
  <rect height="24.9146" opacity="0" width="24.9023" x="0" y="0"/>
  <path d="M12.4512 24.9023C19.2627 24.9023 24.9023 19.2505 24.9023 12.4512C24.9023 5.63965 19.2505 0 12.439 0C5.63965 0 0 5.63965 0 12.4512C0 19.2505 5.65186 24.9023 12.4512 24.9023Z" fill="#5ac8f5" fill-opacity="0.25"/>
  <path d="M8.06885 17.8833C5.9082 17.8833 4.46777 15.8081 4.46777 12.4512C4.46777 9.09424 5.9082 7.01904 8.06885 7.01904C10.2417 7.01904 11.6699 9.09424 11.6699 12.4512C11.6699 15.8081 10.2417 17.8833 8.06885 17.8833ZM8.06885 16.3452C9.28955 16.3452 10.0098 14.8682 10.0098 12.4512C10.0098 10.0342 9.27734 8.55713 8.06885 8.55713C6.87256 8.55713 6.12793 10.0342 6.12793 12.4512C6.12793 14.8682 6.87256 16.3452 8.06885 16.3452ZM16.8213 17.8833C14.6484 17.8833 13.2202 15.8081 13.2202 12.4512C13.2202 9.09424 14.6484 7.01904 16.8213 7.01904C18.9819 7.01904 20.4224 9.09424 20.4224 12.4512C20.4224 15.8081 18.9819 17.8833 16.8213 17.8833ZM16.8213 16.3452C18.042 16.3452 18.7622 14.8682 18.7622 12.4512C18.7622 10.0342 18.0298 8.55713 16.8213 8.55713C15.625 8.55713 14.8804 10.0342 14.8804 12.4512C14.8804 14.8682 15.625 16.3452 16.8213 16.3452Z" fill="#5ac8f5"/>
 </g>
</svg>
