<?xml version="1.0" encoding="UTF-8"?>
<!--Generator: Apple Native CoreSVG 175.5-->
<!DOCTYPE svg
PUBLIC "-//W3C//DTD SVG 1.1//EN"
       "http://www.w3.org/Graphics/SVG/1.1/DTD/svg11.dtd">
<svg version="1.1" xmlns="http://www.w3.org/2000/svg" xmlns:xlink="http://www.w3.org/1999/xlink" width="22.4731" height="22.4976">
 <g>
  <rect height="22.4976" opacity="0" width="22.4731" x="0" y="0"/>
  <path d="M3.83301 22.4976L18.6401 22.4976C21.2036 22.4976 22.4731 21.228 22.4731 18.7134L22.4731 3.80859C22.4731 1.29395 21.2036 0.0244141 18.6401 0.0244141L3.83301 0.0244141C1.28174 0.0244141 0 1.28174 0 3.80859L0 18.7134C0 21.2402 1.28174 22.4976 3.83301 22.4976Z" fill="#5ac8f5" fill-opacity="0.25"/>
  <path d="M17.7246 11.2305C17.7246 11.5112 17.6025 11.731 17.3584 11.9629L13.1104 16.2231C12.9395 16.394 12.7197 16.4917 12.4512 16.4917C11.9263 16.4917 11.5356 16.0889 11.5356 15.564C11.5356 15.2954 11.6455 15.0635 11.8164 14.8926L13.3911 13.3423L14.9048 12.0728L12.2437 12.1704L5.70068 12.1704C5.15137 12.1704 4.76074 11.7798 4.76074 11.2305C4.76074 10.6689 5.15137 10.2783 5.70068 10.2783L12.2437 10.2783L14.9048 10.3882L13.3911 9.11865L11.8164 7.56836C11.6577 7.38525 11.5356 7.15332 11.5356 6.88477C11.5356 6.35986 11.9263 5.96924 12.4512 5.96924C12.7197 5.96924 12.9395 6.05469 13.1104 6.22559L17.3584 10.498C17.6147 10.7544 17.7246 10.9497 17.7246 11.2305Z" fill="#5ac8f5"/>
 </g>
</svg>
