<?xml version="1.0" encoding="UTF-8"?>
<!--Generator: Apple Native CoreSVG 175.5-->
<!DOCTYPE svg
PUBLIC "-//W3C//DTD SVG 1.1//EN"
       "http://www.w3.org/Graphics/SVG/1.1/DTD/svg11.dtd">
<svg version="1.1" xmlns="http://www.w3.org/2000/svg" xmlns:xlink="http://www.w3.org/1999/xlink" width="30.957" height="24.0601">
 <g>
  <rect height="24.0601" opacity="0" width="30.957" x="0" y="0"/>
  <path d="M20.6055 5.33447C22.0825 5.33447 23.2788 4.13818 23.2788 2.66113C23.2788 1.18408 22.0825 0 20.6055 0C19.1284 0 17.9443 1.18408 17.9443 2.66113C17.9443 4.13818 19.1284 5.33447 20.6055 5.33447ZM12.0361 23.9136C12.5854 24.1089 13.269 23.9746 13.623 23.2544L16.748 17.0044C16.9922 16.5283 16.9312 15.9668 16.5161 15.564L12.7441 11.7798L17.5171 9.39941C17.7368 9.27734 17.9932 9.33838 18.1641 9.50928L21.0083 12.3291C21.228 12.5488 21.5454 12.6953 21.875 12.6953L27.5146 12.6953C28.1982 12.6953 28.7598 12.146 28.7598 11.438C28.7598 10.7544 28.1982 10.1929 27.5146 10.1929L22.3877 10.1929L17.1265 4.91943C16.5039 4.29688 15.6494 3.94287 14.7583 3.94287L4.37012 3.94287C3.68652 3.94287 3.125 4.50439 3.125 5.18799C3.125 5.88379 3.68652 6.44531 4.37012 6.44531L12.207 6.44531C12.3413 6.44531 12.3901 6.65283 12.2681 6.71387L9.93652 7.87354C8.70361 8.48389 8.08105 9.64355 8.08105 10.8154C8.08105 11.8286 8.53271 12.8296 9.46045 13.501L14.0381 16.8335L11.3892 22.1436C10.9741 22.9858 11.4136 23.6694 12.0361 23.9136ZM1.24512 18.9453L7.49512 18.9453C7.9834 18.9453 8.41064 18.6646 8.63037 18.2617L10.0464 15.3931L8.77686 14.4531C8.3252 14.1235 7.93457 13.7207 7.6416 13.3057L6.61621 16.4429L1.24512 16.4429C0.561523 16.4429 0 17.0044 0 17.688C0 18.3716 0.561523 18.9453 1.24512 18.9453ZM28.1006 0.622559C26.4404 0.622559 25.2441 1.80664 25.2441 3.4668C25.2441 5.84717 27.3804 8.56934 27.6001 8.80127L28.5889 8.80127C28.8208 8.56934 30.957 5.84717 30.957 3.4668C30.957 1.80664 29.7607 0.622559 28.1006 0.622559ZM28.1006 1.97754C28.9795 1.97754 29.6021 2.6123 29.6021 3.4668C29.6021 4.65088 28.6987 6.23779 28.1006 7.20215C27.5024 6.23779 26.5991 4.65088 26.5991 3.4668C26.5991 2.6123 27.2217 1.97754 28.1006 1.97754ZM27.417 11.438L28.7598 11.438L28.7598 8.31299L27.417 8.31299Z" fill="#5ac8f5"/>
 </g>
</svg>
