<?xml version="1.0" encoding="UTF-8"?>
<!--Generator: Apple Native CoreSVG 175.5-->
<!DOCTYPE svg
PUBLIC "-//W3C//DTD SVG 1.1//EN"
       "http://www.w3.org/Graphics/SVG/1.1/DTD/svg11.dtd">
<svg version="1.1" xmlns="http://www.w3.org/2000/svg" xmlns:xlink="http://www.w3.org/1999/xlink" width="22.4731" height="22.4976">
 <g>
  <rect height="22.4976" opacity="0" width="22.4731" x="0" y="0"/>
  <path d="M3.83301 22.4976L18.6401 22.4976C21.2036 22.4976 22.4731 21.228 22.4731 18.7134L22.4731 3.80859C22.4731 1.29395 21.2036 0.0244141 18.6401 0.0244141L3.83301 0.0244141C1.28174 0.0244141 0 1.28174 0 3.80859L0 18.7134C0 21.2402 1.28174 22.4976 3.83301 22.4976ZM3.85742 20.5322C2.63672 20.5322 1.96533 19.8853 1.96533 18.6157L1.96533 3.90625C1.96533 2.63672 2.63672 1.98975 3.85742 1.98975L18.6157 1.98975C19.8242 1.98975 20.5078 2.63672 20.5078 3.90625L20.5078 18.6157C20.5078 19.8853 19.8242 20.5322 18.6157 20.5322Z" fill="#5ac8f5" fill-opacity="0.5"/>
  <path d="M7.10449 7.48291C6.33545 7.48291 6.04248 7.82471 5.63965 8.23975L3.4668 10.4248C3.03955 10.8643 3.02734 11.5967 3.4668 12.0361L5.63965 14.2456C6.04248 14.6606 6.44531 15.0024 7.10449 15.0024L15.3687 15.0024C16.0278 15.0024 16.4307 14.6606 16.8335 14.2456L19.0063 12.0361C19.4458 11.5967 19.4458 10.8643 19.0063 10.4248L16.8335 8.23975C16.4307 7.82471 16.1377 7.48291 15.3687 7.48291ZM6.83594 10.0342C7.49512 10.0342 8.04443 10.5957 8.04443 11.2427C8.04443 11.8896 7.49512 12.439 6.83594 12.439C6.18896 12.439 5.63965 11.8896 5.63965 11.2427C5.63965 10.5957 6.18896 10.0342 6.83594 10.0342ZM11.2427 10.9131C11.8896 10.9131 12.439 11.4624 12.439 12.1216C12.439 12.7686 11.8896 13.3179 11.2427 13.3179C10.5835 13.3179 10.0342 12.7686 10.0342 12.1216C10.0342 11.4624 10.5835 10.9131 11.2427 10.9131ZM15.6372 10.0342C16.2842 10.0342 16.8335 10.5957 16.8335 11.2427C16.8335 11.8896 16.2842 12.439 15.6372 12.439C14.978 12.439 14.4409 11.8896 14.4409 11.2427C14.4409 10.5957 14.978 10.0342 15.6372 10.0342Z" fill="#5ac8f5"/>
 </g>
</svg>
