<?xml version="1.0" encoding="UTF-8"?>
<!--Generator: Apple Native CoreSVG 175.5-->
<!DOCTYPE svg
PUBLIC "-//W3C//DTD SVG 1.1//EN"
       "http://www.w3.org/Graphics/SVG/1.1/DTD/svg11.dtd">
<svg version="1.1" xmlns="http://www.w3.org/2000/svg" xmlns:xlink="http://www.w3.org/1999/xlink" width="27.6611" height="28.5045">
 <g>
  <rect height="28.5045" opacity="0" width="27.6611" x="0" y="0"/>
  <path d="M2.6123 25.4278L17.9443 25.4278C19.8608 25.4278 20.5444 24.8785 20.5444 23.8043C20.5444 20.6549 16.6016 16.3092 10.2783 16.3092C3.94287 16.3092 0 20.6549 0 23.8043C0 24.8785 0.683594 25.4278 2.6123 25.4278ZM10.2783 14.1241C12.9028 14.1241 15.1611 11.7803 15.1611 8.72859C15.1611 5.71345 12.8906 3.47956 10.2783 3.47956C7.66602 3.47956 5.39551 5.76228 5.39551 8.753C5.39551 11.7803 7.66602 14.1241 10.2783 14.1241Z" fill="#5ac8f5"/>
  <path d="M19.3237 13.7579C19.7266 14.0386 20.3003 13.9532 20.6299 13.4771C21.5698 12.2442 22.1313 10.4254 22.1313 8.55769C22.1313 6.69001 21.5698 4.88337 20.6299 3.63826C20.3003 3.16218 19.7266 3.07673 19.3237 3.35749C18.8232 3.69929 18.75 4.30964 19.1284 4.81013C19.8364 5.78669 20.2393 7.14167 20.2393 8.55769C20.2393 9.9737 19.8242 11.3165 19.1284 12.3052C18.7622 12.8179 18.8232 13.4039 19.3237 13.7579Z" fill="#5ac8f5" fill-opacity="0.5"/>
  <path d="M23.8403 16.9439C24.292 17.2491 24.8535 17.1392 25.1831 16.6754C26.7456 14.5269 27.6611 11.5728 27.6611 8.55769C27.6611 5.54255 26.7578 2.56404 25.1831 0.440013C24.8535-0.0238539 24.292-0.133717 23.8403 0.171459C23.3887 0.476634 23.3154 1.05036 23.6694 1.55085C25.0122 3.43074 25.769 5.95759 25.769 8.55769C25.769 11.1578 24.9878 13.6724 23.6694 15.5645C23.3276 16.065 23.3887 16.6387 23.8403 16.9439Z" fill="#5ac8f5" fill-opacity="0.5"/>
 </g>
</svg>
