<?xml version="1.0" encoding="UTF-8"?>
<!--Generator: Apple Native CoreSVG 175.5-->
<!DOCTYPE svg
PUBLIC "-//W3C//DTD SVG 1.1//EN"
       "http://www.w3.org/Graphics/SVG/1.1/DTD/svg11.dtd">
<svg version="1.1" xmlns="http://www.w3.org/2000/svg" xmlns:xlink="http://www.w3.org/1999/xlink" width="26.9043" height="26.9653">
 <g>
  <rect height="26.9653" opacity="0" width="26.9043" x="0" y="0"/>
  <path d="M7.25098 26.9653C7.72705 26.9653 8.08105 26.7212 8.65479 26.1841L13.0615 22.1558L21.3135 22.1558C24.9512 22.1558 26.9043 20.1538 26.9043 16.5771L26.9043 7.22656C26.9043 3.6499 24.9512 1.63574 21.3135 1.63574L5.59082 1.63574C1.95312 1.63574 0 3.6377 0 7.22656L0 16.5771C0 20.166 1.95312 22.1558 5.59082 22.1558L6.16455 22.1558L6.16455 25.708C6.16455 26.4648 6.55518 26.9653 7.25098 26.9653Z" fill="#5ac8f5" fill-opacity="0.25"/>
  <path d="M5.50537 13.2812C5.10254 13.2812 4.77295 12.9517 4.77295 12.5366C4.77295 12.146 5.10254 11.8164 5.50537 11.8164L10.6812 11.8164C11.084 11.8164 11.4136 12.146 11.4136 12.5366C11.4136 12.9517 11.084 13.2812 10.6812 13.2812ZM13.2812 13.2812C12.8784 13.2812 12.5488 12.9517 12.5488 12.5366C12.5488 12.146 12.8784 11.8164 13.2812 11.8164L21.4233 11.8164C21.8262 11.8164 22.1436 12.146 22.1436 12.5366C22.1436 12.9517 21.8262 13.2812 21.4233 13.2812ZM5.50537 16.5649C5.10254 16.5649 4.77295 16.2476 4.77295 15.8447C4.77295 15.4297 5.10254 15.1001 5.50537 15.1001L7.6416 15.1001C8.04443 15.1001 8.36182 15.4297 8.36182 15.8447C8.36182 16.2476 8.04443 16.5649 7.6416 16.5649ZM10.2295 16.5649C9.82666 16.5649 9.50928 16.2476 9.50928 15.8447C9.50928 15.4297 9.82666 15.1001 10.2295 15.1001L16.5405 15.1001C16.9434 15.1001 17.2729 15.4297 17.2729 15.8447C17.2729 16.2476 16.9434 16.5649 16.5405 16.5649ZM19.1406 16.5649C18.7378 16.5649 18.4082 16.2476 18.4082 15.8447C18.4082 15.4297 18.7378 15.1001 19.1406 15.1001L21.4233 15.1001C21.8262 15.1001 22.1436 15.4297 22.1436 15.8447C22.1436 16.2476 21.8262 16.5649 21.4233 16.5649Z" fill="#5ac8f5"/>
 </g>
</svg>
