<?xml version="1.0" encoding="UTF-8"?>
<!--Generator: Apple Native CoreSVG 175.5-->
<!DOCTYPE svg
PUBLIC "-//W3C//DTD SVG 1.1//EN"
       "http://www.w3.org/Graphics/SVG/1.1/DTD/svg11.dtd">
<svg version="1.1" xmlns="http://www.w3.org/2000/svg" xmlns:xlink="http://www.w3.org/1999/xlink" width="19.8853" height="25.647">
 <g>
  <rect height="25.647" opacity="0" width="19.8853" x="0" y="0"/>
  <path d="M17.1387 20.9717L15.1733 20.9717L15.1733 21.7163C15.1733 22.9858 14.4897 23.6328 13.2812 23.6328L3.86963 23.6328C2.64893 23.6328 1.96533 22.9858 1.96533 21.7163L1.96533 3.88184C1.96533 2.6123 2.64893 1.96533 3.86963 1.96533L13.2812 1.96533C14.4897 1.96533 15.1733 2.6123 15.1733 3.88184L15.1733 16.333L17.1387 16.333L17.1387 3.78418C17.1387 1.26953 15.8691 0 13.3179 0L3.83301 0C1.29395 0 0 1.25732 0 3.78418L0 21.814C0 24.3408 1.29395 25.5981 3.83301 25.5981L13.3179 25.5981C15.8691 25.5981 17.1387 24.3286 17.1387 21.814ZM4.8584 6.23779C5.66406 6.23779 6.31104 5.57861 6.31104 4.79736C6.31104 3.97949 5.66406 3.33252 4.8584 3.33252C4.05273 3.33252 3.40576 3.97949 3.40576 4.79736C3.40576 5.57861 4.05273 6.23779 4.8584 6.23779ZM8.56934 6.23779C9.39941 6.23779 10.0342 5.57861 10.0342 4.79736C10.0342 3.97949 9.39941 3.33252 8.56934 3.33252C7.76367 3.33252 7.12891 3.97949 7.12891 4.79736C7.12891 5.57861 7.76367 6.23779 8.56934 6.23779ZM12.3047 6.23779C13.1104 6.23779 13.7451 5.57861 13.7451 4.79736C13.7451 3.97949 13.1104 3.33252 12.3047 3.33252C11.4868 3.33252 10.8521 3.97949 10.8521 4.79736C10.8521 5.57861 11.4868 6.23779 12.3047 6.23779ZM4.8584 9.81445C5.66406 9.81445 6.31104 9.16748 6.31104 8.36182C6.31104 7.54395 5.66406 6.89697 4.8584 6.89697C4.05273 6.89697 3.40576 7.54395 3.40576 8.36182C3.40576 9.16748 4.05273 9.81445 4.8584 9.81445ZM8.56934 9.81445C9.39941 9.81445 10.0342 9.16748 10.0342 8.36182C10.0342 7.54395 9.39941 6.89697 8.56934 6.89697C7.76367 6.89697 7.12891 7.54395 7.12891 8.36182C7.12891 9.16748 7.76367 9.81445 8.56934 9.81445ZM12.3047 9.81445C13.1104 9.81445 13.7451 9.16748 13.7451 8.36182C13.7451 7.54395 13.1104 6.89697 12.3047 6.89697C11.4868 6.89697 10.8521 7.54395 10.8521 8.36182C10.8521 9.16748 11.4868 9.81445 12.3047 9.81445ZM4.8584 13.4033C5.66406 13.4033 6.31104 12.7563 6.31104 11.9385C6.31104 11.145 5.66406 10.4858 4.8584 10.4858C4.05273 10.4858 3.40576 11.145 3.40576 11.9385C3.40576 12.7563 4.05273 13.4033 4.8584 13.4033ZM8.56934 13.4033C9.39941 13.4033 10.0342 12.7563 10.0342 11.9385C10.0342 11.145 9.39941 10.4858 8.56934 10.4858C7.76367 10.4858 7.12891 11.145 7.12891 11.9385C7.12891 12.7563 7.76367 13.4033 8.56934 13.4033ZM12.3047 13.4033C13.1104 13.4033 13.7451 12.7563 13.7451 11.9385C13.7451 11.145 13.1104 10.4858 12.3047 10.4858C11.4868 10.4858 10.8521 11.145 10.8521 11.9385C10.8521 12.7563 11.4868 13.4033 12.3047 13.4033ZM8.56934 22.2412C10.5713 22.2412 12.1704 20.6421 12.1704 18.6523C12.1704 16.6748 10.5713 15.0757 8.56934 15.0757C6.57959 15.0757 4.98047 16.6748 4.98047 18.6523C4.98047 20.6421 6.57959 22.2412 8.56934 22.2412ZM8.78906 20.0562L18.4814 20.0562C19.2383 20.0562 19.8853 19.4336 19.8853 18.6523C19.8853 17.8711 19.2383 17.2485 18.4814 17.2485L8.78906 17.2485C8.02002 17.2485 7.38525 17.8711 7.38525 18.6523C7.38525 19.4336 8.02002 20.0562 8.78906 20.0562Z" fill="#5ac8f5"/>
 </g>
</svg>
