<?xml version="1.0" encoding="UTF-8"?>
<!--Generator: Apple Native CoreSVG 175.5-->
<!DOCTYPE svg
PUBLIC "-//W3C//DTD SVG 1.1//EN"
       "http://www.w3.org/Graphics/SVG/1.1/DTD/svg11.dtd">
<svg version="1.1" xmlns="http://www.w3.org/2000/svg" xmlns:xlink="http://www.w3.org/1999/xlink" width="18.4326" height="18.5669">
 <g>
  <rect height="18.5669" opacity="0" width="18.4326" x="0" y="0"/>
  <path d="M1.74561 18.4326C2.69775 18.4326 3.4668 17.6514 3.4668 16.7114C3.4668 15.7471 2.70996 14.978 1.74561 14.978C0.793457 14.978 0 15.7837 0 16.748C0 17.6514 0.817871 18.4326 1.74561 18.4326ZM0.183105 10.9863C0.183105 11.5234 0.634766 11.9629 1.17188 11.9629C4.08936 11.9629 6.46973 14.3433 6.46973 17.2607C6.46973 17.7979 6.90918 18.2495 7.44629 18.2495C7.9834 18.2495 8.43506 17.7979 8.43506 17.2607C8.43506 13.2568 5.16357 9.99756 1.17188 9.99756C0.634766 9.99756 0.183105 10.4492 0.183105 10.9863ZM0.183105 6.14014C0.183105 6.67725 0.634766 7.1167 1.17188 7.1167C6.7749 7.1167 11.3159 11.6577 11.3159 17.2607C11.3159 17.7979 11.7554 18.2495 12.2925 18.2495C12.8296 18.2495 13.2812 17.7979 13.2812 17.2607C13.2812 10.5835 7.84912 5.15137 1.17188 5.15137C0.634766 5.15137 0.183105 5.60303 0.183105 6.14014ZM0.183105 0.976562C0.183105 1.51367 0.634766 1.96533 1.17188 1.96533C9.60693 1.96533 16.4673 8.82568 16.4673 17.2607C16.4673 17.7979 16.9189 18.2495 17.4561 18.2495C17.9932 18.2495 18.4326 17.7979 18.4326 17.2607C18.4326 7.75146 10.6812 0 1.17188 0C0.634766 0 0.183105 0.439453 0.183105 0.976562Z" fill="#5ac8f5"/>
 </g>
</svg>
