<?xml version="1.0" encoding="UTF-8"?>
<!--Generator: Apple Native CoreSVG 175.5-->
<!DOCTYPE svg
PUBLIC "-//W3C//DTD SVG 1.1//EN"
       "http://www.w3.org/Graphics/SVG/1.1/DTD/svg11.dtd">
<svg version="1.1" xmlns="http://www.w3.org/2000/svg" xmlns:xlink="http://www.w3.org/1999/xlink" width="30.2618" height="33.3862">
 <g>
  <rect height="33.3862" opacity="0" width="30.2618" x="0" y="0"/>
  <path d="M13.9648 0C10.6812 0 9.16748 5.07812 9.16748 7.22656C9.16748 10.1807 11.084 10.1685 11.084 10.8521C11.084 11.0229 10.9863 11.1328 10.6934 11.3159L6.68945 13.7939L5.7251 12.5732C5.3833 12.1216 5.52979 11.3525 6.34766 11.3525C7.1167 11.3525 7.61719 10.8398 7.61719 10.1562C7.61719 9.47266 7.06787 8.93555 6.39648 8.93555C5.71289 8.93555 5.16357 9.47266 5.16357 10.1562C5.16357 10.2295 5.16357 10.3027 5.17578 10.3638C5.34668 11.3281 3.89404 10.9985 4.43115 10.2783C4.58984 10.0708 4.67529 9.81445 4.67529 9.5459C4.67529 8.8623 4.12598 8.3252 3.44238 8.3252C2.771 8.3252 2.22168 8.8623 2.22168 9.5459C2.22168 10.083 2.55127 10.4858 3.01514 10.7056C3.75977 11.0474 2.90527 11.9385 2.50244 11.3525C2.27051 11.0229 1.89209 10.8032 1.46484 10.8032C0.793457 10.8032 0.244141 11.3403 0.244141 12.0239C0.244141 12.7075 0.793457 13.2568 1.46484 13.2568C1.70898 13.2568 1.92871 13.1836 2.12402 13.0615C2.67334 12.7197 3.125 12.7441 3.57666 13.3179L5.45654 15.7227C5.92041 16.333 6.70166 16.5894 7.38525 16.2231L9.2041 15.2466L8.8501 15.1978C8.47168 16.3208 8.20312 17.7612 8.6792 19.5557L8.81348 19.2505L7.14111 18.335C6.45752 17.9565 5.68848 18.2251 5.2124 18.8354L3.34473 21.2402C2.88086 21.8018 2.44141 21.8384 1.87988 21.4966C1.68457 21.3745 1.46484 21.3013 1.23291 21.3013C0.549316 21.3013 0 21.8506 0 22.5342C0 23.2056 0.549316 23.7549 1.23291 23.7549C1.64795 23.7549 2.03857 23.5352 2.2583 23.1934C2.66113 22.6196 3.52783 23.4985 2.771 23.8525C2.30713 24.0601 1.97754 24.4751 1.97754 25C1.97754 25.6836 2.52686 26.2329 3.21045 26.2329C3.88184 26.2329 4.43115 25.6836 4.43115 25C4.43115 24.7314 4.3457 24.4873 4.19922 24.2676C3.6499 23.5596 5.10254 23.23 4.94385 24.1943C4.91943 24.2432 4.91943 24.3164 4.91943 24.4019C4.91943 25.0732 5.46875 25.6226 6.15234 25.6226C6.83594 25.6226 7.37305 25.0732 7.37305 24.4019C7.37305 23.7183 6.87256 23.2056 6.10352 23.2056C5.29785 23.2056 5.13916 22.4365 5.48096 21.9849L6.45752 20.7642L11.0962 24.4751C11.7188 29.2358 15.7227 33.0811 21.7896 33.0811C26.6846 33.0811 29.3823 29.9561 30.0781 28.4546C30.835 26.8066 29.0771 25.6104 28.0029 26.709C26.2695 28.4668 24.1211 28.6987 22.5952 28.6987C20.2515 28.6987 17.749 26.8677 17.2485 24.0967L21.4478 20.7642L22.4121 21.9849C22.7661 22.4365 22.6074 23.2056 21.8018 23.2056C21.0205 23.2056 20.5322 23.7183 20.5322 24.4019C20.5322 25.0732 21.0693 25.6226 21.7529 25.6226C22.4365 25.6226 22.9858 25.0732 22.9858 24.4019C22.9858 24.3164 22.9858 24.2432 22.9614 24.1943C22.8027 23.23 24.2554 23.5596 23.7061 24.2676C23.5596 24.4873 23.4741 24.7314 23.4741 25C23.4741 25.6836 24.0234 26.2329 24.6948 26.2329C25.3784 26.2329 25.9277 25.6836 25.9277 25C25.9277 24.4751 25.5981 24.0601 25.1343 23.8525C24.3774 23.4985 25.2319 22.6196 25.647 23.1934C25.8667 23.5352 26.2573 23.7549 26.6724 23.7549C27.356 23.7549 27.9053 23.2056 27.9053 22.5342C27.9053 21.8506 27.356 21.3013 26.6724 21.3013C26.4404 21.3013 26.2207 21.3745 26.0132 21.4966C25.4639 21.8384 25.0122 21.8018 24.5605 21.2402L22.6929 18.8354C22.2168 18.2251 21.4478 17.9565 20.7642 18.335L19.104 19.2383L19.2383 19.5679C19.7266 17.7734 19.4458 16.3086 19.0674 15.1733L18.7134 15.2466L20.5322 16.2231C21.2158 16.5894 21.9971 16.333 22.4609 15.7227L24.3408 13.3179C24.7925 12.7441 25.2441 12.7197 25.7935 13.0615C25.9888 13.1836 26.2085 13.2568 26.4526 13.2568C27.124 13.2568 27.6733 12.7075 27.6733 12.0239C27.6733 11.3403 27.124 10.8032 26.4526 10.8032C26.0254 10.8032 25.647 11.0229 25.415 11.3525C25.0122 11.9385 24.1577 11.0474 24.9023 10.7056C25.3662 10.4858 25.6958 10.083 25.6958 9.5459C25.6958 8.8623 25.1465 8.3252 24.4751 8.3252C23.7915 8.3252 23.2422 8.8623 23.2422 9.5459C23.2422 9.81445 23.3276 10.0708 23.4863 10.2783C24.0234 10.9985 22.5708 11.3281 22.7417 10.3638C22.7539 10.3027 22.7539 10.2295 22.7539 10.1562C22.7539 9.47266 22.2046 8.93555 21.521 8.93555C20.8496 8.93555 20.3003 9.47266 20.3003 10.1562C20.3003 10.8398 20.8008 11.3525 21.5698 11.3525C22.3877 11.3525 22.5342 12.1216 22.1924 12.5732L21.228 13.7939L17.2363 11.3159C16.9312 11.1206 16.8335 11.0229 16.8335 10.8521C16.8335 10.1685 18.75 10.1562 18.75 7.22656C18.75 5.07812 17.2363 0 13.9648 0Z" fill="#5ac8f5"/>
 </g>
</svg>
