<?xml version="1.0" encoding="UTF-8"?>
<!--Generator: Apple Native CoreSVG 175.5-->
<!DOCTYPE svg
PUBLIC "-//W3C//DTD SVG 1.1//EN"
       "http://www.w3.org/Graphics/SVG/1.1/DTD/svg11.dtd">
<svg version="1.1" xmlns="http://www.w3.org/2000/svg" xmlns:xlink="http://www.w3.org/1999/xlink" width="22.4731" height="22.4976">
 <g>
  <rect height="22.4976" opacity="0" width="22.4731" x="0" y="0"/>
  <path d="M3.83301 22.4976L18.6401 22.4976C21.2036 22.4976 22.4731 21.228 22.4731 18.7134L22.4731 3.80859C22.4731 1.29395 21.2036 0.0244141 18.6401 0.0244141L3.83301 0.0244141C1.28174 0.0244141 0 1.28174 0 3.80859L0 18.7134C0 21.2402 1.28174 22.4976 3.83301 22.4976Z" fill="#5ac8f5" fill-opacity="0.25"/>
  <path d="M15.1855 8.11768C15.7349 8.11768 16.1133 8.53271 16.1133 9.13086L16.1133 15.0635C16.1133 15.8081 15.6982 16.1011 15.0513 16.1011L9.09424 16.1011C8.49609 16.1011 8.11768 15.7349 8.11768 15.1733C8.11768 14.624 8.5083 14.2578 9.11865 14.2578L11.3892 14.2578L13.2568 14.4531L11.2915 12.6099L6.66504 8.00781C6.48193 7.82471 6.37207 7.56836 6.37207 7.32422C6.37207 6.75049 6.73828 6.38428 7.2876 6.38428C7.59277 6.38428 7.83691 6.49414 8.02002 6.67725L12.6221 11.2915L14.4409 13.2324L14.2578 11.2671L14.2578 9.10645C14.2578 8.49609 14.624 8.11768 15.1855 8.11768Z" fill="#5ac8f5"/>
 </g>
</svg>
