<?xml version="1.0" encoding="UTF-8"?>
<!--Generator: Apple Native CoreSVG 175.5-->
<!DOCTYPE svg
PUBLIC "-//W3C//DTD SVG 1.1//EN"
       "http://www.w3.org/Graphics/SVG/1.1/DTD/svg11.dtd">
<svg version="1.1" xmlns="http://www.w3.org/2000/svg" xmlns:xlink="http://www.w3.org/1999/xlink" width="33.3862" height="22.4731">
 <g>
  <rect height="22.4731" opacity="0" width="33.3862" x="0" y="0"/>
  <path d="M10.3638 0.012207C4.67529 0.012207 0 6.53076 0 14.5386C0 18.3105 1.01318 22.4731 2.23389 22.4731C3.17383 22.4731 3.94287 21.2036 4.04053 19.9463C2.17285 19.397 0.793457 17.6636 0.793457 15.625C0.793457 14.4043 1.26953 13.3179 2.13623 12.4634C2.55127 6.93359 6.12793 2.0874 10.2417 2.0874C12.7075 2.0874 13.8306 3.93066 13.8306 7.33643L4.00391 12.4634C2.57568 13.208 1.9165 14.3799 1.9165 15.625C1.9165 17.4683 3.43018 18.9819 5.27344 18.9819C6.16455 18.9819 6.7627 18.7622 8.04443 18.0664L12.9761 15.3564C15.1367 14.1724 15.9058 12.7319 15.9058 9.68018L15.9058 6.98242C15.9058 2.69775 14.0259 0.012207 10.3638 0.012207ZM5.18799 17.7368C4.01611 17.7368 3.06396 16.7847 3.06396 15.625C3.06396 14.4653 4.01611 13.5132 5.18799 13.5132C6.34766 13.5132 7.2998 14.4653 7.2998 15.625C7.2998 16.7847 6.34766 17.7368 5.18799 17.7368ZM5.18799 16.9189C5.896 16.9189 6.46973 16.333 6.46973 15.625C6.46973 14.917 5.896 14.3311 5.18799 14.3311C4.46777 14.3311 3.89404 14.917 3.89404 15.625C3.89404 16.333 4.46777 16.9189 5.18799 16.9189ZM23.0225 0.012207C19.3604 0.012207 17.4805 2.69775 17.4805 6.98242L17.4805 9.68018C17.4805 12.7319 18.2495 14.1724 20.3979 15.3564L25.3418 18.0664C26.6235 18.7622 27.2217 18.9819 28.1128 18.9819C29.9561 18.9819 31.4697 17.4683 31.4697 15.625C31.4697 14.3799 30.8105 13.208 29.3701 12.4634L19.5557 7.33643C19.5557 3.93066 20.6787 2.0874 23.1445 2.0874C27.2583 2.0874 30.835 6.93359 31.25 12.4634C32.1167 13.3179 32.5928 14.4043 32.5928 15.625C32.5928 17.6636 31.2012 19.397 29.3335 19.9463C29.4312 21.2036 30.2124 22.4731 31.1523 22.4731C32.373 22.4731 33.3862 18.3105 33.3862 14.5386C33.3862 6.53076 28.7109 0.012207 23.0225 0.012207ZM28.1982 17.7368C27.0386 17.7368 26.0864 16.7847 26.0864 15.625C26.0864 14.4653 27.0386 13.5132 28.1982 13.5132C29.3701 13.5132 30.3223 14.4653 30.3223 15.625C30.3223 16.7847 29.3701 17.7368 28.1982 17.7368ZM28.1982 16.9189C28.9185 16.9189 29.4922 16.333 29.4922 15.625C29.4922 14.917 28.9185 14.3311 28.1982 14.3311C27.4902 14.3311 26.9043 14.917 26.9043 15.625C26.9043 16.333 27.4902 16.9189 28.1982 16.9189Z" fill="#5ac8f5"/>
 </g>
</svg>
