<?xml version="1.0" encoding="UTF-8"?>
<!--Generator: Apple Native CoreSVG 175.5-->
<!DOCTYPE svg
PUBLIC "-//W3C//DTD SVG 1.1//EN"
       "http://www.w3.org/Graphics/SVG/1.1/DTD/svg11.dtd">
<svg version="1.1" xmlns="http://www.w3.org/2000/svg" xmlns:xlink="http://www.w3.org/1999/xlink" width="12.8906" height="22.8394">
 <g>
  <rect height="22.8394" opacity="0" width="12.8906" x="0" y="0"/>
  <path d="M0.915527 22.7661C1.44043 22.7661 1.84326 22.3389 1.84326 21.8262L1.84326 0.927734C1.84326 0.415039 1.44043 0 0.915527 0C0.402832 0 0 0.415039 0 0.927734L0 21.8262C0 22.3389 0.402832 22.7661 0.915527 22.7661ZM10.9863 15.1245C11.8774 15.7227 12.8906 15.3809 12.8906 14.2944L12.8906 8.5083C12.8906 7.38525 11.9263 7.03125 10.9863 7.66602L6.9458 10.4126C6.25 10.8887 6.21338 11.9385 6.9458 12.4268Z" fill="#5ac8f5"/>
 </g>
</svg>
