<?xml version="1.0" encoding="UTF-8"?>
<!--Generator: Apple Native CoreSVG 175.5-->
<!DOCTYPE svg
PUBLIC "-//W3C//DTD SVG 1.1//EN"
       "http://www.w3.org/Graphics/SVG/1.1/DTD/svg11.dtd">
<svg version="1.1" xmlns="http://www.w3.org/2000/svg" xmlns:xlink="http://www.w3.org/1999/xlink" width="27.4292" height="26.6968">
 <g>
  <rect height="26.6968" opacity="0" width="27.4292" x="0" y="0"/>
  <path d="M4.83398 3.2959L22.5952 3.2959L22.5952 3.08838C22.5952 1.28174 21.1914 0.476074 19.2139 0.476074L8.21533 0.476074C6.32324 0.476074 4.83398 1.28174 4.83398 3.08838ZM6.81152 26.6968L20.6177 26.6968C22.168 26.6968 22.9492 25.9888 22.9492 24.3652L22.9492 22.0215L23.7915 22.0215C26.1719 22.0215 27.4292 20.8252 27.4292 18.4448L27.4292 8.5083C27.4292 6.12793 26.1719 4.91943 23.7915 4.91943L3.62549 4.91943C1.37939 4.91943 0 6.12793 0 8.5083L0 18.4448C0 20.8252 1.25732 22.0215 3.62549 22.0215L4.47998 22.0215L4.47998 24.3652C4.47998 25.9888 5.26123 26.6968 6.81152 26.6968ZM7.00684 10.6323C6.65283 10.6323 6.43311 10.4126 6.43311 10.0586L6.43311 8.91113C6.43311 8.55713 6.65283 8.34961 7.00684 8.34961L8.1665 8.34961C8.5083 8.34961 8.71582 8.55713 8.71582 8.91113L8.71582 10.0586C8.71582 10.4126 8.5083 10.6323 8.1665 10.6323ZM11.1328 10.6323C10.791 10.6323 10.5835 10.4126 10.5835 10.0586L10.5835 8.91113C10.5835 8.55713 10.791 8.34961 11.1328 8.34961L12.2925 8.34961C12.6465 8.34961 12.8662 8.55713 12.8662 8.91113L12.8662 10.0586C12.8662 10.4126 12.6465 10.6323 12.2925 10.6323ZM15.2832 10.6323C14.9292 10.6323 14.7095 10.4126 14.7095 10.0586L14.7095 8.91113C14.7095 8.55713 14.9292 8.34961 15.2832 8.34961L16.4307 8.34961C16.7847 8.34961 16.9922 8.55713 16.9922 8.91113L16.9922 10.0586C16.9922 10.4126 16.7847 10.6323 16.4307 10.6323ZM19.4092 10.6323C19.0552 10.6323 18.8477 10.4126 18.8477 10.0586L18.8477 8.91113C18.8477 8.55713 19.0552 8.34961 19.4092 8.34961L20.5688 8.34961C20.9106 8.34961 21.1304 8.55713 21.1304 8.91113L21.1304 10.0586C21.1304 10.4126 20.9106 10.6323 20.5688 10.6323ZM7.00684 14.856C6.65283 14.856 6.43311 14.6484 6.43311 14.3066L6.43311 13.147C6.43311 12.793 6.65283 12.5732 7.00684 12.5732L8.1665 12.5732C8.5083 12.5732 8.71582 12.793 8.71582 13.147L8.71582 14.3066C8.71582 14.6484 8.5083 14.856 8.1665 14.856ZM11.1328 14.856C10.791 14.856 10.5835 14.6484 10.5835 14.3066L10.5835 13.147C10.5835 12.793 10.791 12.5732 11.1328 12.5732L12.2925 12.5732C12.6465 12.5732 12.8662 12.793 12.8662 13.147L12.8662 14.3066C12.8662 14.6484 12.6465 14.856 12.2925 14.856ZM15.2832 14.856C14.9292 14.856 14.7095 14.6484 14.7095 14.3066L14.7095 13.147C14.7095 12.793 14.9292 12.5732 15.2832 12.5732L16.4307 12.5732C16.7847 12.5732 16.9922 12.793 16.9922 13.147L16.9922 14.3066C16.9922 14.6484 16.7847 14.856 16.4307 14.856ZM19.4092 14.856C19.0552 14.856 18.8477 14.6484 18.8477 14.3066L18.8477 13.147C18.8477 12.793 19.0552 12.5732 19.4092 12.5732L20.5688 12.5732C20.9106 12.5732 21.1304 12.793 21.1304 13.147L21.1304 14.3066C21.1304 14.6484 20.9106 14.856 20.5688 14.856ZM7.42188 24.8535C6.7627 24.8535 6.44531 24.5361 6.44531 23.877L6.44531 19.7021C6.44531 19.0552 6.7749 18.7378 7.42188 18.7378L20.0195 18.7378C20.6665 18.7378 20.9839 19.0552 20.9839 19.7021L20.9839 23.877C20.9839 24.5361 20.6665 24.8535 20.0195 24.8535ZM9.63135 22.7173L17.9565 22.7173C18.4692 22.7173 18.8721 22.3022 18.8721 21.7773C18.8721 21.2769 18.4692 20.8618 17.9565 20.8618L9.63135 20.8618C9.10645 20.8618 8.70361 21.2769 8.70361 21.7773C8.70361 22.3022 9.10645 22.7173 9.63135 22.7173Z" fill="#5ac8f5"/>
 </g>
</svg>
