<?xml version="1.0" encoding="UTF-8"?>
<!--Generator: Apple Native CoreSVG 175.5-->
<!DOCTYPE svg
PUBLIC "-//W3C//DTD SVG 1.1//EN"
       "http://www.w3.org/Graphics/SVG/1.1/DTD/svg11.dtd">
<svg version="1.1" xmlns="http://www.w3.org/2000/svg" xmlns:xlink="http://www.w3.org/1999/xlink" width="33.6182" height="19.2017">
 <g>
  <rect height="19.2017" opacity="0" width="33.6182" x="0" y="0"/>
  <path d="M1.75781 19.2017C2.2583 19.2017 2.67334 19.043 3.16162 18.75L15.6006 11.4258C16.4673 10.9131 16.8457 10.3149 16.8457 9.60693C16.8457 8.91113 16.4673 8.31299 15.6006 7.80029L3.16162 0.476074C2.66113 0.183105 2.2583 0.0244141 1.75781 0.0244141C0.805664 0.0244141 0 0.756836 0 2.11182L0 17.1143C0 18.4692 0.805664 19.2017 1.75781 19.2017ZM18.5303 19.2017C19.0308 19.2017 19.4458 19.043 19.9341 18.75L32.3853 11.4258C33.2397 10.9131 33.6182 10.3149 33.6182 9.60693C33.6182 8.91113 33.2397 8.31299 32.3853 7.80029L19.9341 0.476074C19.4458 0.183105 19.0308 0.0244141 18.5303 0.0244141C17.5781 0.0244141 16.7725 0.756836 16.7725 2.11182L16.7725 17.1143C16.7725 18.4692 17.5781 19.2017 18.5303 19.2017Z" fill="#5ac8f5"/>
 </g>
</svg>
