<?xml version="1.0" encoding="UTF-8"?>
<!--Generator: Apple Native CoreSVG 175.5-->
<!DOCTYPE svg
PUBLIC "-//W3C//DTD SVG 1.1//EN"
       "http://www.w3.org/Graphics/SVG/1.1/DTD/svg11.dtd">
<svg version="1.1" xmlns="http://www.w3.org/2000/svg" xmlns:xlink="http://www.w3.org/1999/xlink" width="24.9023" height="24.9146">
 <g>
  <rect height="24.9146" opacity="0" width="24.9023" x="0" y="0"/>
  <path d="M12.4512 24.9023C19.2627 24.9023 24.9023 19.2505 24.9023 12.4512C24.9023 5.63965 19.2505 0 12.439 0C5.63965 0 0 5.63965 0 12.4512C0 19.2505 5.65186 24.9023 12.4512 24.9023ZM8.1543 17.8833C6.43311 17.8833 5.09033 16.8335 4.76074 15.6738C4.71191 15.5151 4.6875 15.3809 4.6875 15.21C4.6875 14.7705 5.00488 14.4531 5.41992 14.4531C5.78613 14.4531 5.99365 14.6484 6.14014 15.0513C6.48193 15.9302 7.16553 16.4185 8.1665 16.4185C9.36279 16.4185 10.2051 15.686 10.2051 14.7095C10.2051 13.6841 9.43604 13.0127 8.23975 13.0127L7.50732 13.0127C7.09229 13.0127 6.82373 12.6953 6.82373 12.2925C6.82373 11.8286 7.09229 11.5356 7.50732 11.5356L8.17871 11.5356C9.17969 11.5356 9.8877 10.8765 9.8877 9.96094C9.8877 9.08203 9.19189 8.48389 8.19092 8.48389C7.21436 8.48389 6.61621 8.97217 6.33545 9.85107C6.20117 10.2539 6.00586 10.4492 5.62744 10.4492C5.2002 10.4492 4.90723 10.1318 4.90723 9.68018C4.90723 9.52148 4.90723 9.38721 4.94385 9.22852C5.27344 7.99561 6.53076 7.01904 8.22754 7.01904C10.1196 7.01904 11.438 8.14209 11.438 9.75342C11.438 10.9375 10.6201 11.9873 9.58252 12.1582L9.58252 12.2314C10.8521 12.3657 11.7798 13.4399 11.7798 14.7827C11.7798 16.5894 10.2783 17.8833 8.1543 17.8833ZM16.8701 17.8833C15.1367 17.8833 13.8062 16.8335 13.4766 15.6738C13.4277 15.5151 13.4033 15.3809 13.4033 15.21C13.4033 14.7705 13.7207 14.4531 14.1357 14.4531C14.502 14.4531 14.7095 14.6484 14.856 15.0513C15.1978 15.9302 15.8691 16.4185 16.8823 16.4185C18.0664 16.4185 18.9087 15.686 18.9087 14.7095C18.9087 13.6841 18.1519 13.0127 16.9556 13.0127L16.2109 13.0127C15.8081 13.0127 15.5273 12.6953 15.5273 12.2925C15.5273 11.8286 15.8081 11.5356 16.2109 11.5356L16.8945 11.5356C17.8955 11.5356 18.5913 10.8765 18.5913 9.96094C18.5913 9.08203 17.9077 8.48389 16.9067 8.48389C15.918 8.48389 15.3198 8.97217 15.0391 9.85107C14.917 10.2539 14.7095 10.4492 14.3311 10.4492C13.9038 10.4492 13.6108 10.1318 13.6108 9.68018C13.6108 9.52148 13.6108 9.38721 13.6475 9.22852C13.9771 7.99561 15.2344 7.01904 16.9434 7.01904C18.8354 7.01904 20.1538 8.14209 20.1538 9.75342C20.1538 10.9375 19.3359 11.9873 18.2861 12.1582L18.2861 12.2314C19.5679 12.3657 20.4956 13.4399 20.4956 14.7827C20.4956 16.5894 18.9941 17.8833 16.8701 17.8833Z" fill="#5ac8f5"/>
 </g>
</svg>
