<?xml version="1.0" encoding="UTF-8"?>
<!--Generator: Apple Native CoreSVG 175.5-->
<!DOCTYPE svg
PUBLIC "-//W3C//DTD SVG 1.1//EN"
       "http://www.w3.org/Graphics/SVG/1.1/DTD/svg11.dtd">
<svg version="1.1" xmlns="http://www.w3.org/2000/svg" xmlns:xlink="http://www.w3.org/1999/xlink" width="28.8183" height="29.3335">
 <g>
  <rect height="29.3335" opacity="0" width="28.8183" x="0" y="0"/>
  <path d="M18.4937 9.39941C18.7622 9.39941 18.9575 9.15527 18.9331 8.88672L18.8721 7.87354L19.7144 8.44727C19.9219 8.58154 20.2393 8.53271 20.3857 8.30078C20.5444 8.06885 20.4346 7.75146 20.166 7.6416L19.2505 7.18994L20.1904 6.72607C20.4224 6.604 20.5322 6.31104 20.3979 6.06689C20.2759 5.84717 19.9341 5.77393 19.7021 5.93262L18.8721 6.50635L18.9453 5.49316C18.9697 5.22461 18.7744 4.98047 18.4937 4.98047C18.2007 4.98047 18.0054 5.2002 18.0298 5.48096L18.0908 6.51855L17.2363 5.93262C17.0044 5.78613 16.7114 5.82275 16.5771 6.06689C16.4307 6.31104 16.5283 6.604 16.7725 6.72607L17.688 7.18994L16.7847 7.62939C16.5283 7.73926 16.4185 8.04443 16.5649 8.30078C16.687 8.53271 17.0044 8.58154 17.2363 8.44727L18.0908 7.87354L18.042 8.88672C18.0298 9.16748 18.2129 9.39941 18.4937 9.39941ZM25.1587 24.2554C25.4395 24.2554 25.647 24.0356 25.6226 23.7549L25.5615 22.7295L26.416 23.3154C26.6357 23.4619 26.9409 23.4131 27.063 23.1812C27.2095 22.9248 27.1118 22.6318 26.8677 22.522L25.9521 22.0581L26.8555 21.5942C27.124 21.4966 27.2217 21.1914 27.0874 20.9351C26.9653 20.7031 26.6357 20.6421 26.416 20.7886L25.5615 21.3623L25.6104 20.3491C25.6226 20.0684 25.4272 19.8486 25.1587 19.8486C24.8901 19.8486 24.6948 20.0806 24.7192 20.3491L24.7803 21.3745L23.9258 20.8008C23.7305 20.6665 23.4131 20.7153 23.2666 20.9351C23.1079 21.167 23.2178 21.4966 23.4863 21.6064L24.3896 22.0581L23.4619 22.522C23.23 22.644 23.1201 22.9248 23.2544 23.1812C23.3765 23.4009 23.7183 23.4741 23.938 23.3154L24.7803 22.7417L24.707 23.7427C24.6826 24.0112 24.8779 24.2554 25.1587 24.2554ZM2.771 29.3335L10.3394 29.3335C12.0239 29.3335 13.1104 28.2593 13.1104 26.6113L13.1104 2.72217C13.1104 1.07422 12.0239 0 10.3394 0L2.771 0C1.08643 0 0 1.07422 0 2.72217L0 26.6113C0 28.2593 1.08643 29.3335 2.771 29.3335ZM2.80762 27.3682C2.28271 27.3682 1.96533 27.0386 1.96533 26.5015L1.96533 2.83203C1.96533 2.29492 2.28271 1.96533 2.80762 1.96533L10.3027 1.96533C10.8276 1.96533 11.145 2.29492 11.145 2.83203L11.145 26.5015C11.145 27.0386 10.8276 27.3682 10.3027 27.3682ZM9.30176 9.68018C9.64355 9.68018 9.91211 9.39941 9.91211 9.05762L9.91211 4.23584C9.91211 3.89404 9.64355 3.61328 9.30176 3.61328C8.94775 3.61328 8.6792 3.89404 8.6792 4.23584L8.6792 9.05762C8.6792 9.39941 8.94775 9.68018 9.30176 9.68018ZM6.78711 9.68018C7.1167 9.68018 7.39746 9.39941 7.39746 9.05762L7.39746 4.23584C7.39746 3.89404 7.1167 3.61328 6.78711 3.61328C6.43311 3.61328 6.15234 3.89404 6.15234 4.23584L6.15234 9.05762C6.15234 9.39941 6.43311 9.68018 6.78711 9.68018ZM9.30176 17.6514C9.64355 17.6514 9.91211 17.3828 9.91211 17.0288L9.91211 12.207C9.91211 11.8652 9.64355 11.5967 9.30176 11.5967C8.94775 11.5967 8.6792 11.8652 8.6792 12.207L8.6792 17.0288C8.6792 17.3828 8.94775 17.6514 9.30176 17.6514ZM6.78711 17.6514C7.1167 17.6514 7.39746 17.3828 7.39746 17.0288L7.39746 12.207C7.39746 11.8652 7.1167 11.5967 6.78711 11.5967C6.43311 11.5967 6.15234 11.8652 6.15234 12.207L6.15234 17.0288C6.15234 17.3828 6.43311 17.6514 6.78711 17.6514ZM9.30176 25.647C9.64355 25.647 9.91211 25.3662 9.91211 25.0366L9.91211 20.2148C9.91211 19.8608 9.64355 19.5923 9.30176 19.5923C8.94775 19.5923 8.6792 19.8608 8.6792 20.2148L8.6792 25.0366C8.6792 25.3662 8.94775 25.647 9.30176 25.647ZM6.78711 25.647C7.1167 25.647 7.39746 25.3662 7.39746 25.0366L7.39746 20.2148C7.39746 19.8608 7.1167 19.5923 6.78711 19.5923C6.43311 19.5923 6.15234 19.8608 6.15234 20.2148L6.15234 25.0366C6.15234 25.3662 6.43311 25.647 6.78711 25.647ZM17.9321 13.1958C21.1914 13.1958 22.876 10.5469 25.7202 10.5469C26.3794 10.5469 26.9409 10.6812 27.6367 11.0718C28.0762 11.3159 28.4668 11.145 28.6621 10.8643C28.9062 10.5103 28.8818 9.97314 28.3447 9.66797C27.5391 9.19189 26.6602 8.95996 25.7202 8.95996C22.4121 8.95996 20.7275 11.6211 17.9321 11.6211C17.2729 11.6211 16.7114 11.4746 16.0034 11.0718C15.5884 10.8398 15.1855 10.9985 14.978 11.3159C14.7583 11.6577 14.7827 12.1948 15.2954 12.4878C16.1011 12.9883 16.9922 13.1958 17.9321 13.1958ZM17.9443 16.7847C21.1914 16.7847 22.8882 14.1357 25.7202 14.1357C26.3916 14.1357 26.9531 14.27 27.6489 14.6606C28.0762 14.9048 28.479 14.7339 28.6743 14.4531C28.9062 14.0991 28.894 13.562 28.3691 13.2568C27.5513 12.7808 26.6602 12.5488 25.7202 12.5488C22.4243 12.5488 20.7397 15.21 17.9443 15.21C17.2729 15.21 16.7114 15.0635 16.0156 14.6729C15.6006 14.4287 15.1855 14.5874 14.978 14.9048C14.7583 15.2466 14.7827 15.7837 15.3076 16.0767C16.1133 16.5771 17.0044 16.7847 17.9443 16.7847ZM17.9321 20.3735C21.1914 20.3735 22.876 17.7246 25.7202 17.7246C26.3794 17.7246 26.9409 17.8589 27.6367 18.2617C28.0762 18.5059 28.4668 18.3228 28.6621 18.042C28.9062 17.688 28.8818 17.1509 28.3447 16.8457C27.5391 16.3696 26.6602 16.1377 25.7202 16.1377C22.4121 16.1377 20.7275 18.7988 17.9321 18.7988C17.2729 18.7988 16.7114 18.6523 16.0034 18.2617C15.5884 18.0176 15.1855 18.1763 14.978 18.4937C14.7583 18.8354 14.7827 19.3848 15.2954 19.6777C16.1011 20.166 16.9922 20.3735 17.9321 20.3735Z" fill="#5ac8f5"/>
 </g>
</svg>
