<?xml version="1.0" encoding="UTF-8"?>
<!--Generator: Apple Native CoreSVG 175.5-->
<!DOCTYPE svg
PUBLIC "-//W3C//DTD SVG 1.1//EN"
       "http://www.w3.org/Graphics/SVG/1.1/DTD/svg11.dtd">
<svg version="1.1" xmlns="http://www.w3.org/2000/svg" xmlns:xlink="http://www.w3.org/1999/xlink" width="24.9023" height="24.9146">
 <g>
  <rect height="24.9146" opacity="0" width="24.9023" x="0" y="0"/>
  <path d="M12.4512 24.9023C19.2627 24.9023 24.9023 19.2505 24.9023 12.4512C24.9023 5.63965 19.2505 0 12.439 0C5.63965 0 0 5.63965 0 12.4512C0 19.2505 5.65186 24.9023 12.4512 24.9023ZM12.4512 22.8271C6.68945 22.8271 2.0874 18.2129 2.0874 12.4512C2.0874 6.68945 6.67725 2.0752 12.439 2.0752C18.2007 2.0752 22.8271 6.68945 22.8271 12.4512C22.8271 18.2129 18.2129 22.8271 12.4512 22.8271Z" fill="#5ac8f5" fill-opacity="0.5"/>
  <path d="M20.3857 12.4634C20.3857 11.6455 19.3115 11.0229 17.981 11.0229L15.3687 11.0229C15.0513 11.0229 14.9536 10.9863 14.7461 10.7666L10.4004 6.03027C10.2417 5.84717 10.0464 5.76172 9.82666 5.76172L9.06982 5.76172C8.81348 5.76172 8.66699 5.99365 8.77686 6.25L10.9497 11.0474L7.91016 11.4014L6.7749 9.32617C6.66504 9.13086 6.49414 9.0332 6.22559 9.0332L5.94482 9.0332C5.71289 9.0332 5.5542 9.19189 5.5542 9.42383L5.5542 15.4907C5.5542 15.7227 5.71289 15.8813 5.94482 15.8813L6.22559 15.8813C6.49414 15.8813 6.66504 15.7837 6.7749 15.6006L7.91016 13.5254L10.9497 13.8672L8.77686 18.6646C8.66699 18.9209 8.81348 19.1528 9.06982 19.1528L9.82666 19.1528C10.0464 19.1528 10.2417 19.0674 10.4004 18.8965L14.7461 14.1602C14.9536 13.9404 15.0513 13.8916 15.3687 13.8916L17.981 13.8916C19.3115 13.8916 20.3857 13.269 20.3857 12.4634Z" fill="#5ac8f5"/>
 </g>
</svg>
