<?xml version="1.0" encoding="UTF-8"?>
<!--Generator: Apple Native CoreSVG 175.5-->
<!DOCTYPE svg
PUBLIC "-//W3C//DTD SVG 1.1//EN"
       "http://www.w3.org/Graphics/SVG/1.1/DTD/svg11.dtd">
<svg version="1.1" xmlns="http://www.w3.org/2000/svg" xmlns:xlink="http://www.w3.org/1999/xlink" width="24.9023" height="24.9146">
 <g>
  <rect height="24.9146" opacity="0" width="24.9023" x="0" y="0"/>
  <path d="M12.4512 24.9023C19.2627 24.9023 24.9023 19.2505 24.9023 12.4512C24.9023 5.63965 19.2505 0 12.439 0C5.63965 0 0 5.63965 0 12.4512C0 19.2505 5.65186 24.9023 12.4512 24.9023ZM14.6729 9.09424C13.0371 7.83691 9.93652 6.92139 7.55615 7.8125C8.78906 6.51855 10.5347 5.68848 12.4512 5.68848C13.3789 5.68848 14.2578 5.896 15.0757 6.22559C15.4419 7.03125 15.271 8.02002 14.6729 9.09424ZM11.9995 12.3291C9.91211 11.4746 7.2876 10.8887 5.70068 11.9385C5.76172 11.0718 6.00586 10.2295 6.38428 9.48486C8.5083 7.53174 12.3535 8.45947 14.1846 9.8999C13.6353 10.7056 12.8784 11.5234 11.9995 12.3291ZM7.86133 12.2681C7.92236 14.9414 9.17969 17.4316 10.4126 18.8843C7.86133 18.0786 5.95703 15.7837 5.71289 13.0493C6.17676 12.4634 6.9458 12.2437 7.86133 12.2681ZM11.6821 13.208C11.792 15.2588 13.0005 17.8589 14.6362 18.8354C13.9404 19.0796 13.2202 19.2139 12.3047 19.2139C11.2061 18.8354 8.92334 15.8691 8.78906 12.3535C9.7168 12.4756 10.7422 12.793 11.6821 13.208ZM15.8325 18.2983C15.1611 18.2373 14.4897 17.7002 13.9404 16.9189C16.9556 14.5996 18.3472 12.0117 18.811 10.2295C19.0552 10.9131 19.2017 11.6699 19.2017 12.4512C19.2017 14.917 17.8223 17.1143 15.8325 18.2983ZM13.4644 16.1255C12.9639 15.1978 12.6343 14.0625 12.5977 13.0249C14.7339 11.1084 16.3452 8.75244 16.1133 6.81152C16.8945 7.31201 17.5659 7.97119 18.0786 8.75244C18.2739 9.75342 17.334 13.0737 13.4644 16.1255Z" fill="#5ac8f5"/>
 </g>
</svg>
