<?xml version="1.0" encoding="UTF-8"?>
<!--Generator: Apple Native CoreSVG 175.5-->
<!DOCTYPE svg
PUBLIC "-//W3C//DTD SVG 1.1//EN"
       "http://www.w3.org/Graphics/SVG/1.1/DTD/svg11.dtd">
<svg version="1.1" xmlns="http://www.w3.org/2000/svg" xmlns:xlink="http://www.w3.org/1999/xlink" width="27.8687" height="28.1445">
 <g>
  <rect height="28.1445" opacity="0" width="27.8687" x="0" y="0"/>
  <path d="M3.55225 27.7624L7.14111 21.549C7.36084 21.1584 7.23877 20.7434 6.87256 20.5358C6.50635 20.3161 6.09131 20.426 5.87158 20.8166L2.27051 27.0544C2.0752 27.3962 2.17285 27.8234 2.53906 28.0432C2.90527 28.2507 3.34473 28.1286 3.55225 27.7624ZM8.42285 27.7624L11.9995 21.549C12.2192 21.1584 12.1094 20.7434 11.7432 20.5358C11.3647 20.3161 10.9497 20.426 10.73 20.8166L7.14111 27.0544C6.9458 27.3962 7.03125 27.8234 7.40967 28.0432C7.77588 28.2507 8.21533 28.1286 8.42285 27.7624ZM13.2812 27.7624L16.8579 21.549C17.0776 21.1584 16.9678 20.7434 16.6016 20.5358C16.2231 20.3161 15.8081 20.426 15.5884 20.8166L11.9995 27.0544C11.8042 27.3962 11.8896 27.8234 12.2681 28.0432C12.6343 28.2507 13.0737 28.1286 13.2812 27.7624ZM18.103 27.7746L21.7163 21.5246C21.9238 21.1584 21.814 20.719 21.4478 20.5358C21.0938 20.3405 20.6665 20.426 20.459 20.8044L16.8701 27.03C16.6504 27.3962 16.7603 27.8234 17.1143 28.0432C17.4561 28.2507 17.9077 28.1286 18.103 27.7746Z" fill="#5ac8f5" fill-opacity="0.5"/>
  <path d="M5.7373 18.5827L20.8862 18.5827C24.8901 18.5827 27.8687 15.5432 27.8687 11.7834C27.8687 7.88936 24.6948 5.04513 20.5566 5.04513C19.0308 2.02999 16.1987 0.0890708 12.6709 0.0890708C8.08105 0.0890708 4.29688 3.69014 3.89404 8.21895C1.68457 8.86593 0 10.7824 0 13.3581C0 16.2512 2.09961 18.5827 5.7373 18.5827Z" fill="#5ac8f5"/>
 </g>
</svg>
