<?xml version="1.0" encoding="UTF-8"?>
<!--Generator: Apple Native CoreSVG 175.5-->
<!DOCTYPE svg
PUBLIC "-//W3C//DTD SVG 1.1//EN"
       "http://www.w3.org/Graphics/SVG/1.1/DTD/svg11.dtd">
<svg version="1.1" xmlns="http://www.w3.org/2000/svg" xmlns:xlink="http://www.w3.org/1999/xlink" width="24.9023" height="24.9146">
 <g>
  <rect height="24.9146" opacity="0" width="24.9023" x="0" y="0"/>
  <path d="M12.4512 24.9023C19.2627 24.9023 24.9023 19.2505 24.9023 12.4512C24.9023 5.63965 19.2505 0 12.439 0C5.63965 0 0 5.63965 0 12.4512C0 19.2505 5.65186 24.9023 12.4512 24.9023ZM12.4268 9.32617C11.5845 9.32617 10.9253 8.71582 10.9253 7.93457C10.9253 7.04346 11.5845 6.40869 12.4268 6.40869C13.3545 6.40869 13.9771 7.03125 13.9771 7.93457C13.9771 8.71582 13.3423 9.32617 12.4268 9.32617ZM7.55615 13.5254C6.83594 13.5254 6.35986 13.147 6.35986 12.4756C6.35986 11.792 6.81152 11.4136 7.55615 11.4136L17.3584 11.4136C18.0908 11.4136 18.5425 11.792 18.5425 12.4756C18.5425 13.147 18.0664 13.5254 17.3584 13.5254ZM12.4268 18.5181C11.5845 18.5181 10.9253 17.8955 10.9253 17.1143C10.9253 16.2231 11.5845 15.6006 12.4268 15.6006C13.3545 15.6006 13.9771 16.2231 13.9771 17.1143C13.9771 17.8955 13.3423 18.5181 12.4268 18.5181Z" fill="#5ac8f5"/>
 </g>
</svg>
