<?xml version="1.0" encoding="UTF-8"?>
<!--Generator: Apple Native CoreSVG 175.5-->
<!DOCTYPE svg
PUBLIC "-//W3C//DTD SVG 1.1//EN"
       "http://www.w3.org/Graphics/SVG/1.1/DTD/svg11.dtd">
<svg version="1.1" xmlns="http://www.w3.org/2000/svg" xmlns:xlink="http://www.w3.org/1999/xlink" width="22.4731" height="22.4976">
 <g>
  <rect height="22.4976" opacity="0" width="22.4731" x="0" y="0"/>
  <path d="M3.83301 22.4976L18.6401 22.4976C21.2036 22.4976 22.4731 21.228 22.4731 18.7134L22.4731 3.80859C22.4731 1.29395 21.2036 0.0244141 18.6401 0.0244141L3.83301 0.0244141C1.28174 0.0244141 0 1.28174 0 3.80859L0 18.7134C0 21.2402 1.28174 22.4976 3.83301 22.4976ZM6.97021 16.6504C5.26123 16.6504 3.93066 15.6006 3.58887 14.4409C3.55225 14.2944 3.52783 14.1602 3.52783 13.9893C3.52783 13.5376 3.8208 13.2324 4.26025 13.2324C4.61426 13.2324 4.82178 13.4277 4.98047 13.8184C5.32227 14.7095 5.99365 15.1855 6.98242 15.1855C8.19092 15.1855 9.0332 14.4531 9.0332 13.4766C9.0332 12.4512 8.26416 11.792 7.08008 11.792L6.33545 11.792C5.92041 11.792 5.63965 11.4746 5.63965 11.0718C5.63965 10.6079 5.93262 10.3149 6.33545 10.3149L7.00684 10.3149C8.02002 10.3149 8.71582 9.65576 8.71582 8.74023C8.71582 7.86133 8.02002 7.26318 7.01904 7.26318C6.04248 7.26318 5.44434 7.73926 5.16357 8.63037C5.0415 9.0332 4.83398 9.22852 4.45557 9.22852C4.01611 9.22852 3.73535 8.91113 3.73535 8.45947C3.73535 8.28857 3.73535 8.1665 3.77197 8.00781C4.10156 6.7749 5.35889 5.79834 7.06787 5.79834C8.93555 5.79834 10.2783 6.92139 10.2783 8.53271C10.2783 9.7168 9.46045 10.7666 8.41064 10.9375L8.41064 11.0107C9.68018 11.1328 10.6201 12.207 10.6201 13.5498C10.6201 15.3564 9.11865 16.6504 6.97021 16.6504ZM15.4419 16.6504C13.2812 16.6504 11.8408 14.5874 11.8408 11.2305C11.8408 7.86133 13.2812 5.79834 15.4419 5.79834C17.6147 5.79834 19.043 7.86133 19.043 11.2305C19.043 14.5874 17.6147 16.6504 15.4419 16.6504ZM15.4419 15.1123C16.6626 15.1123 17.395 13.6353 17.395 11.2305C17.395 8.81348 16.6504 7.33643 15.4419 7.33643C14.2578 7.33643 13.501 8.81348 13.501 11.2305C13.501 13.6353 14.2578 15.1123 15.4419 15.1123Z" fill="#5ac8f5"/>
 </g>
</svg>
