<?xml version="1.0" encoding="UTF-8"?>
<!--Generator: Apple Native CoreSVG 175.5-->
<!DOCTYPE svg
PUBLIC "-//W3C//DTD SVG 1.1//EN"
       "http://www.w3.org/Graphics/SVG/1.1/DTD/svg11.dtd">
<svg version="1.1" xmlns="http://www.w3.org/2000/svg" xmlns:xlink="http://www.w3.org/1999/xlink" width="24.9023" height="24.9146">
 <g>
  <rect height="24.9146" opacity="0" width="24.9023" x="0" y="0"/>
  <path d="M12.4512 24.9023C19.2627 24.9023 24.9023 19.2505 24.9023 12.4512C24.9023 5.63965 19.2505 0 12.439 0C5.63965 0 0 5.63965 0 12.4512C0 19.2505 5.65186 24.9023 12.4512 24.9023ZM12.4512 17.2729C9.80225 17.2729 7.61719 15.1123 7.61719 12.439C7.61719 9.80225 9.80225 7.6416 12.4512 7.6416C15.0879 7.6416 17.2729 9.80225 17.2729 12.439C17.2729 15.1123 15.0879 17.2729 12.4512 17.2729ZM12.4634 15.2832C13.9893 15.2832 15.2588 14.0015 15.2588 12.439C15.2588 10.9131 13.9893 9.64355 12.4634 9.64355C10.9253 9.64355 9.64355 10.9131 9.64355 12.439C9.64355 14.0015 10.9131 15.2832 12.4634 15.2832Z" fill="#5ac8f5"/>
 </g>
</svg>
