<?xml version="1.0" encoding="UTF-8"?>
<!--Generator: Apple Native CoreSVG 175.5-->
<!DOCTYPE svg
PUBLIC "-//W3C//DTD SVG 1.1//EN"
       "http://www.w3.org/Graphics/SVG/1.1/DTD/svg11.dtd">
<svg version="1.1" xmlns="http://www.w3.org/2000/svg" xmlns:xlink="http://www.w3.org/1999/xlink" width="24.9023" height="24.9146">
 <g>
  <rect height="24.9146" opacity="0" width="24.9023" x="0" y="0"/>
  <path d="M12.4512 24.9023C19.2627 24.9023 24.9023 19.2505 24.9023 12.4512C24.9023 5.63965 19.2505 0 12.439 0C5.63965 0 0 5.63965 0 12.4512C0 19.2505 5.65186 24.9023 12.4512 24.9023Z" fill="#5ac8f5" fill-opacity="0.25"/>
  <path d="M9.61914 18.3228C8.45947 18.3228 7.88574 17.7612 7.88574 16.6138L7.88574 10.7178C7.88574 9.59473 8.45947 9.00879 9.61914 9.00879L18.0298 9.00879C19.1895 9.00879 19.751 9.59473 19.751 10.7178L19.751 16.6138C19.751 17.7612 19.1895 18.3228 18.0298 18.3228ZM12.1338 15.8203C12.1338 16.1011 12.4268 16.2231 12.6709 16.0767L16.2842 13.9404C16.4917 13.8184 16.4795 13.5254 16.2598 13.4033L12.6709 11.2793C12.4268 11.145 12.1338 11.2305 12.1338 11.5234ZM7.14111 10.6445L7.14111 15.6616L6.84814 15.6616C5.70068 15.6616 5.12695 15.0879 5.12695 13.9526L5.12695 8.10547C5.12695 6.95801 5.70068 6.39648 6.84814 6.39648L15.271 6.39648C16.4307 6.39648 16.9922 6.95801 16.9922 8.10547L16.9922 8.25195L9.5459 8.25195C7.95898 8.25195 7.14111 9.06982 7.14111 10.6445Z" fill="#5ac8f5"/>
 </g>
</svg>
