<?xml version="1.0" encoding="UTF-8"?>
<!--Generator: Apple Native CoreSVG 175.5-->
<!DOCTYPE svg
PUBLIC "-//W3C//DTD SVG 1.1//EN"
       "http://www.w3.org/Graphics/SVG/1.1/DTD/svg11.dtd">
<svg version="1.1" xmlns="http://www.w3.org/2000/svg" xmlns:xlink="http://www.w3.org/1999/xlink" width="22.4731" height="22.4976">
 <g>
  <rect height="22.4976" opacity="0" width="22.4731" x="0" y="0"/>
  <path d="M3.83301 22.4976L18.6401 22.4976C21.2036 22.4976 22.4731 21.228 22.4731 18.7134L22.4731 3.80859C22.4731 1.29395 21.2036 0.0244141 18.6401 0.0244141L3.83301 0.0244141C1.28174 0.0244141 0 1.28174 0 3.80859L0 18.7134C0 21.2402 1.28174 22.4976 3.83301 22.4976ZM3.85742 20.5322C2.63672 20.5322 1.96533 19.8853 1.96533 18.6157L1.96533 3.90625C1.96533 2.63672 2.63672 1.98975 3.85742 1.98975L18.6157 1.98975C19.8242 1.98975 20.5078 2.63672 20.5078 3.90625L20.5078 18.6157C20.5078 19.8853 19.8242 20.5322 18.6157 20.5322ZM4.76074 16.2231L9.81445 16.2231C10.1929 16.2231 10.4858 15.9302 10.4858 15.4907C10.4858 15.0391 10.1929 14.7827 9.81445 14.7827L6.26221 14.7827L6.26221 14.6973L8.65479 11.9141C9.55811 10.8643 10.2295 9.98535 10.2295 8.76465C10.2295 7.06787 8.98438 5.98145 7.06787 5.98145C5.61523 5.98145 4.32129 6.90918 4.00391 8.1543C3.97949 8.31299 3.95508 8.44727 3.95508 8.59375C3.95508 9.0332 4.21143 9.32617 4.63867 9.32617C4.99268 9.32617 5.17578 9.11865 5.33447 8.75244C5.63965 7.83691 6.26221 7.38525 7.12891 7.38525C8.11768 7.38525 8.75244 7.99561 8.75244 8.89893C8.75244 9.69238 8.11768 10.376 7.53174 11.0596L4.30908 14.8438C4.12598 15.0513 4.04053 15.2588 4.04053 15.5029C4.04053 15.9424 4.32129 16.2231 4.76074 16.2231ZM15.4297 16.5161C17.4072 16.5161 18.8232 15.21 18.8232 12.9761C18.8232 10.8765 17.3828 9.7168 15.7959 9.7168C14.502 9.7168 13.6719 10.4492 13.3789 11.2549L13.2935 11.2549C13.2935 11.2183 13.2935 11.1938 13.2935 11.145C13.2935 8.83789 14.2212 7.38525 15.6006 7.38525C16.2964 7.38525 16.7969 7.72705 17.1021 8.20312C17.3096 8.5083 17.4927 8.65479 17.8345 8.65479C18.1641 8.65479 18.4326 8.38623 18.4326 7.9834C18.4326 7.82471 18.4082 7.67822 18.335 7.51953C18.0298 6.70166 17.0532 5.98145 15.6616 5.98145C13.3057 5.98145 11.853 7.8125 11.853 11.5234C11.853 13.0127 12.0972 14.0991 12.5122 14.8682C13.1348 16.04 14.1846 16.5161 15.4297 16.5161ZM15.3564 15.1733C14.2212 15.1733 13.4277 14.2822 13.4277 13.0249C13.4277 11.8286 14.209 10.9741 15.3564 10.9741C16.5039 10.9741 17.2852 11.8164 17.2852 13.0371C17.2852 14.3433 16.5283 15.1733 15.3564 15.1733Z" fill="#5ac8f5"/>
 </g>
</svg>
