<?xml version="1.0" encoding="UTF-8"?>
<!--Generator: Apple Native CoreSVG 175.5-->
<!DOCTYPE svg
PUBLIC "-//W3C//DTD SVG 1.1//EN"
       "http://www.w3.org/Graphics/SVG/1.1/DTD/svg11.dtd">
<svg version="1.1" xmlns="http://www.w3.org/2000/svg" xmlns:xlink="http://www.w3.org/1999/xlink" width="20.0815" height="31.8726">
 <g>
  <rect height="31.8726" opacity="0" width="20.0815" x="0" y="0"/>
  <path d="M6.31151 30.6152L13.77 30.6152C18.018 30.6152 20.1177 28.4668 20.081 24.1699C20.0322 19.2627 20.0078 15.6982 19.8857 13.0249C19.5317 5.16357 17.3222 2.85645 10.0469 2.85645C2.77147 2.85645 0.549787 5.16357 0.195783 13.0249C0.073713 15.6982 0.049299 19.2627 0.000470835 24.1699C-0.0361503 28.4668 2.06346 30.6152 6.31151 30.6152ZM6.31151 28.8208C3.07664 28.8208 1.77049 27.4902 1.7949 24.1943C1.84373 19.2871 1.88035 15.7471 2.00242 13.1104C2.3076 6.20117 3.77244 4.66309 10.0469 4.66309C16.3091 4.66309 17.7739 6.20117 18.0913 13.1104C18.2012 15.7471 18.2378 19.2871 18.2866 24.1943C18.311 27.4902 17.0049 28.8208 13.77 28.8208ZM10.0469 0C7.70311 0 6.05516 1.58691 6.05516 3.74756L7.77635 3.74756C7.77635 2.56348 8.70408 1.72119 10.0469 1.72119C11.3774 1.72119 12.3174 2.56348 12.3174 3.74756L14.0386 3.74756C14.0386 1.58691 12.3784 0 10.0469 0ZM6.03074 25.8057L14.063 25.8057C15.1616 25.8057 15.8818 25.0854 15.8818 23.999L15.8818 17.8101C15.8818 16.7114 15.1616 15.9912 14.063 15.9912L6.03074 15.9912C4.93211 15.9912 4.19969 16.7236 4.19969 17.8101L4.19969 23.999C4.19969 25.0732 4.93211 25.8057 6.03074 25.8057ZM6.32371 24.0967C6.07957 24.0967 5.92088 23.938 5.92088 23.7061L5.92088 18.103C5.92088 17.8589 6.07957 17.7002 6.32371 17.7002L13.7578 17.7002C14.0019 17.7002 14.1606 17.8589 14.1606 18.103L14.1606 23.7061C14.1606 23.938 14.0019 24.0967 13.7578 24.0967ZM5.17625 20.8008L14.9053 20.8008L14.9053 19.2627L5.17625 19.2627Z" fill="#5ac8f5"/>
 </g>
</svg>
