<?xml version="1.0" encoding="UTF-8"?>
<!--Generator: Apple Native CoreSVG 175.5-->
<!DOCTYPE svg
PUBLIC "-//W3C//DTD SVG 1.1//EN"
       "http://www.w3.org/Graphics/SVG/1.1/DTD/svg11.dtd">
<svg version="1.1" xmlns="http://www.w3.org/2000/svg" xmlns:xlink="http://www.w3.org/1999/xlink" width="14.6973" height="27.4048">
 <g>
  <rect height="27.4048" opacity="0" width="14.6973" x="0" y="0"/>
  <path d="M1.51367 24.6338L7.38525 24.6338C11.9507 24.6338 14.6973 22.3999 14.6973 18.6646C14.6973 15.7227 12.6831 13.6841 9.70459 13.3179L9.70459 13.2202C11.9263 12.8174 13.5864 10.7422 13.5864 8.41064C13.5864 5.2002 11.084 3.06396 7.36084 3.06396L1.51367 3.06396C0.598145 3.06396 0 3.66211 0 4.57764L0 23.1201C0 24.0356 0.598145 24.6338 1.51367 24.6338ZM2.33154 5.11475L6.82373 5.11475C9.59473 5.11475 11.2549 6.38428 11.2549 8.65479C11.2549 11.1328 9.38721 12.4878 6.15234 12.4878L2.33154 12.4878ZM2.33154 22.583L2.33154 14.5508L6.73828 14.5508C10.3516 14.5508 12.3291 15.9302 12.3291 18.5669C12.3291 21.1914 10.4126 22.583 7.01904 22.583ZM5.48096 26.5991C5.48096 27.0386 5.84717 27.4048 6.28662 27.4048C6.72607 27.4048 7.08008 27.0386 7.08008 26.5991L7.08008 0.891113C7.08008 0.45166 6.72607 0.0854492 6.28662 0.0854492C5.84717 0.0854492 5.48096 0.45166 5.48096 0.891113Z" fill="#5ac8f5"/>
 </g>
</svg>
