<?xml version="1.0" encoding="UTF-8"?>
<!--Generator: Apple Native CoreSVG 175.5-->
<!DOCTYPE svg
PUBLIC "-//W3C//DTD SVG 1.1//EN"
       "http://www.w3.org/Graphics/SVG/1.1/DTD/svg11.dtd">
<svg version="1.1" xmlns="http://www.w3.org/2000/svg" xmlns:xlink="http://www.w3.org/1999/xlink" width="30.5176" height="25.2319">
 <g>
  <rect height="25.2319" opacity="0" width="30.5176" x="0" y="0"/>
  <path d="M3.13721 21.0938L27.3804 21.0938C29.4434 21.0938 30.5176 20.0317 30.5176 17.9565L30.5176 3.96729C30.5176 1.9043 29.4434 0.842285 27.3804 0.842285L3.13721 0.842285C1.07422 0.842285 0 1.9043 0 3.96729L0 17.9565C0 20.0317 1.07422 21.0938 3.13721 21.0938ZM3.17383 19.1284C2.36816 19.1284 1.96533 18.7256 1.96533 17.9321L1.96533 4.00391C1.96533 3.19824 2.36816 2.80762 3.17383 2.80762L27.3438 2.80762C28.1494 2.80762 28.5522 3.19824 28.5522 4.00391L28.5522 17.9321C28.5522 18.7256 28.1494 19.1284 27.3438 19.1284ZM9.11865 25.2319L21.3989 25.2319C21.936 25.2319 22.3877 24.7925 22.3877 24.2432C22.3877 23.6938 21.936 23.2544 21.3989 23.2544L9.11865 23.2544C8.58154 23.2544 8.12988 23.6938 8.12988 24.2432C8.12988 24.7925 8.58154 25.2319 9.11865 25.2319ZM11.6943 16.333C12.2437 16.333 12.5488 15.9912 12.5488 15.3809L12.5488 14.1479L13.4277 14.1479C13.8794 14.1479 14.1846 13.855 14.1846 13.4033C14.1846 12.9639 13.8916 12.6587 13.4277 12.6587L12.5488 12.6587L12.5488 6.78711C12.5488 6.0791 11.9995 5.59082 11.1816 5.59082C10.3882 5.59082 9.8999 5.87158 9.44824 6.56738C8.26416 8.36182 6.81152 10.4736 5.87158 12.0361C5.63965 12.4023 5.5542 12.6953 5.5542 13.0249C5.5542 13.6963 6.01807 14.1479 6.75049 14.1479L10.8765 14.1479L10.8765 15.3809C10.8765 15.979 11.1816 16.333 11.6943 16.333ZM10.8765 12.6587L7.23877 12.6587L7.23877 12.5854C8.10547 11.0718 9.59473 8.87451 10.7788 7.06787L10.8765 7.06787ZM16.5771 16.272C17.1265 16.272 17.4438 15.9302 17.4438 15.3198L17.4438 12.8906L18.9087 11.3525L22.3022 15.8569C22.5342 16.1499 22.7661 16.272 23.0591 16.272C23.5229 16.272 23.8647 15.9424 23.8647 15.4785C23.8647 15.2588 23.7671 15.0269 23.6206 14.8193L20.1294 10.2905L23.3398 6.98242C23.5229 6.81152 23.6084 6.62842 23.6084 6.38428C23.6084 5.98145 23.2788 5.67627 22.8516 5.67627C22.5708 5.67627 22.4121 5.77393 22.1558 6.03027L17.5781 10.6689L17.4438 10.6689L17.4438 6.64062C17.4438 6.01807 17.1265 5.67627 16.5771 5.67627C16.0522 5.67627 15.7471 6.03027 15.7471 6.64062L15.7471 15.3198C15.7471 15.918 16.0522 16.272 16.5771 16.272Z" fill="#5ac8f5"/>
 </g>
</svg>
