<?xml version="1.0" encoding="UTF-8"?>
<!--Generator: Apple Native CoreSVG 175.5-->
<!DOCTYPE svg
PUBLIC "-//W3C//DTD SVG 1.1//EN"
       "http://www.w3.org/Graphics/SVG/1.1/DTD/svg11.dtd">
<svg version="1.1" xmlns="http://www.w3.org/2000/svg" xmlns:xlink="http://www.w3.org/1999/xlink" width="24.9023" height="24.9146">
 <g>
  <rect height="24.9146" opacity="0" width="24.9023" x="0" y="0"/>
  <path d="M12.4512 24.9023C19.2627 24.9023 24.9023 19.2505 24.9023 12.4512C24.9023 5.63965 19.2505 0 12.439 0C5.63965 0 0 5.63965 0 12.4512C0 19.2505 5.65186 24.9023 12.4512 24.9023ZM12.4512 22.8271C6.68945 22.8271 2.0874 18.2129 2.0874 12.4512C2.0874 6.68945 6.67725 2.0752 12.439 2.0752C18.2007 2.0752 22.8271 6.68945 22.8271 12.4512C22.8271 18.2129 18.2129 22.8271 12.4512 22.8271ZM5.43213 14.1968C5.43213 15.4907 6.31104 16.394 7.56836 16.394C7.95898 16.394 8.41064 16.2964 8.87451 16.0645C9.21631 16.3696 10.0464 16.7969 10.9985 16.8335C10.8154 15.979 10.2173 14.7827 9.86328 14.1357C10.7056 14.0625 11.1328 13.6108 11.3647 12.9883C11.6699 13.1958 11.9995 13.3301 12.439 13.3301C12.8784 13.3301 13.2202 13.1958 13.5132 12.9883C13.7451 13.6108 14.1846 14.0625 15.0146 14.1357C14.6606 14.7827 14.0747 15.979 13.8794 16.8335C14.8315 16.7969 15.6616 16.3696 16.0034 16.0645C16.4673 16.2964 16.9189 16.394 17.3096 16.394C18.5669 16.394 19.458 15.4907 19.458 14.1968C19.458 13.5376 19.165 12.8418 18.5669 12.207C19.043 11.6943 19.2505 11.0962 19.2505 10.4858C19.2505 9.19189 18.2495 7.9834 17.0044 7.84912C16.9678 6.57959 15.564 5.68848 14.2334 5.68848C13.5498 5.68848 12.915 5.9082 12.439 6.39648C11.9629 5.9082 11.3403 5.68848 10.6445 5.68848C9.32617 5.68848 7.92236 6.57959 7.87354 7.84912C6.62842 7.9834 5.62744 9.19189 5.62744 10.4858C5.62744 11.0962 5.83496 11.6943 6.31104 12.207C5.71289 12.8418 5.43213 13.5376 5.43213 14.1968ZM12.439 19.8364C12.9517 19.8364 13.2935 19.6655 13.2935 19.4092C13.2935 19.0796 13.1958 18.1274 13.1958 17.3462C13.1958 16.3696 13.9648 14.7827 14.917 12.9395L14.209 12.5366C13.4766 13.8672 13.1958 14.4531 12.8906 15.1245L12.854 12.5488L11.9751 12.5L11.9873 15.1367C11.6943 14.4531 11.377 13.8184 10.7178 12.7075L10.1685 13.4399C10.9131 14.7827 11.6821 16.3696 11.6821 17.3462C11.6821 18.1274 11.5845 19.0796 11.5845 19.4092C11.5845 19.6655 11.9263 19.8364 12.439 19.8364Z" fill="#5ac8f5"/>
 </g>
</svg>
