<?xml version="1.0" encoding="UTF-8"?>
<!--Generator: Apple Native CoreSVG 175.5-->
<!DOCTYPE svg
PUBLIC "-//W3C//DTD SVG 1.1//EN"
       "http://www.w3.org/Graphics/SVG/1.1/DTD/svg11.dtd">
<svg version="1.1" xmlns="http://www.w3.org/2000/svg" xmlns:xlink="http://www.w3.org/1999/xlink" width="18.3472" height="22.644">
 <g>
  <rect height="22.644" opacity="0" width="18.3472" x="0" y="0"/>
  <path d="M3.17383 22.644C3.85742 22.644 4.32129 22.168 4.32129 21.4478L4.32129 4.5166L4.43115 4.5166L13.0371 21.4722C13.3911 22.1802 13.9282 22.644 14.7827 22.644C15.7227 22.644 16.333 22.0337 16.333 21.106L16.333 1.45264C16.333 0.732422 15.8691 0.256348 15.1733 0.256348C14.4897 0.256348 14.0259 0.732422 14.0259 1.45264L14.0259 18.4326L13.9038 18.4326L5.31006 1.42822C4.95605 0.732422 4.40674 0.256348 3.56445 0.256348C2.6123 0.256348 2.01416 0.866699 2.01416 1.79443L2.01416 21.4478C2.01416 22.168 2.47803 22.644 3.17383 22.644ZM0 11.499C0 11.9385 0.341797 12.2925 0.78125 12.2925L17.5659 12.2925C18.0054 12.2925 18.3472 11.9385 18.3472 11.499C18.3472 11.0352 18.0054 10.7056 17.5659 10.7056L0.78125 10.7056C0.341797 10.7056 0 11.0352 0 11.499Z" fill="#5ac8f5"/>
 </g>
</svg>
