<?xml version="1.0" encoding="UTF-8"?>
<!--Generator: Apple Native CoreSVG 175.5-->
<!DOCTYPE svg
PUBLIC "-//W3C//DTD SVG 1.1//EN"
       "http://www.w3.org/Graphics/SVG/1.1/DTD/svg11.dtd">
<svg version="1.1" xmlns="http://www.w3.org/2000/svg" xmlns:xlink="http://www.w3.org/1999/xlink" width="37.7563" height="21.4478">
 <g>
  <rect height="21.4478" opacity="0" width="37.7563" x="0" y="0"/>
  <path d="M3.72314 7.17773L5.78613 7.17773L5.78613 3.05176C5.78613 2.44141 6.18896 2.05078 6.7627 2.05078L16.8701 2.05078C17.4561 2.05078 17.8467 2.44141 17.8467 3.05176L17.8467 12.7441L19.9097 12.7441L19.9097 3.03955C19.9097 1.2085 18.7256 0 16.9678 0L6.67725 0C4.90723 0 3.72314 1.2085 3.72314 3.03955ZM34.3018 7.17773L34.3018 3.03955C34.3018 1.2085 33.1177 0 31.3477 0L20.7886 0C19.0308 0 17.8467 1.2085 17.8467 3.03955L17.8467 12.7441L19.9097 12.7441L19.9097 3.05176C19.9097 2.44141 20.3003 2.05078 20.8862 2.05078L31.2622 2.05078C31.8359 2.05078 32.2388 2.44141 32.2388 3.05176L32.2388 7.17773ZM0 16.0156C0 17.7734 1.15967 18.9331 2.89307 18.9331L34.8633 18.9331C36.5967 18.9331 37.7563 17.7734 37.7563 16.0156L37.7563 8.59375C37.7563 6.84814 36.5967 5.67627 34.8633 5.67627L33.1787 5.67627C31.4575 5.67627 30.2979 6.84814 30.2979 8.59375L30.2979 11.5234L7.4707 11.5234L7.4707 8.59375C7.4707 6.84814 6.29883 5.67627 4.57764 5.67627L2.89307 5.67627C1.15967 5.67627 0 6.84814 0 8.59375ZM2.0752 15.9912L2.0752 8.61816C2.0752 8.08105 2.44141 7.72705 2.99072 7.72705L4.46777 7.72705C5.0293 7.72705 5.39551 8.08105 5.39551 8.61816L5.39551 13.5742L32.3608 13.5742L32.3608 8.61816C32.3608 8.08105 32.7393 7.72705 33.2886 7.72705L34.7656 7.72705C35.3149 7.72705 35.6934 8.08105 35.6934 8.61816L35.6934 15.9912C35.6934 16.5283 35.3149 16.8823 34.7656 16.8823L2.99072 16.8823C2.44141 16.8823 2.0752 16.5283 2.0752 15.9912ZM4.44336 21.4233L5.2002 21.4233C5.85938 21.4233 6.28662 21.0083 6.28662 20.3491L6.28662 17.7612L3.35693 17.7612L3.35693 20.3491C3.35693 21.0083 3.78418 21.4233 4.44336 21.4233ZM32.5562 21.4233L33.313 21.4233C33.9722 21.4233 34.3994 21.0083 34.3994 20.3491L34.3994 17.7612L31.4697 17.7612L31.4697 20.3491C31.4697 21.0083 31.9092 21.4233 32.5562 21.4233Z" fill="#5ac8f5"/>
 </g>
</svg>
