<?xml version="1.0" encoding="UTF-8"?>
<!--Generator: Apple Native CoreSVG 175.5-->
<!DOCTYPE svg
PUBLIC "-//W3C//DTD SVG 1.1//EN"
       "http://www.w3.org/Graphics/SVG/1.1/DTD/svg11.dtd">
<svg version="1.1" xmlns="http://www.w3.org/2000/svg" xmlns:xlink="http://www.w3.org/1999/xlink" width="24.9023" height="24.9146">
 <g>
  <rect height="24.9146" opacity="0" width="24.9023" x="0" y="0"/>
  <path d="M12.4512 24.9023C19.2627 24.9023 24.9023 19.2505 24.9023 12.4512C24.9023 5.63965 19.2505 0 12.439 0C5.63965 0 0 5.63965 0 12.4512C0 19.2505 5.65186 24.9023 12.4512 24.9023ZM12.4512 22.8271C6.68945 22.8271 2.0874 18.2129 2.0874 12.4512C2.0874 6.68945 6.67725 2.0752 12.439 2.0752C18.2007 2.0752 22.8271 6.68945 22.8271 12.4512C22.8271 18.2129 18.2129 22.8271 12.4512 22.8271Z" fill="#5ac8f5" fill-opacity="0.5"/>
  <path d="M5.46875 12.3779L10.3516 9.8877C10.4614 9.82666 10.5835 9.82666 10.6934 9.8877L15.5762 12.3779C16.1743 12.6831 16.4795 11.9629 16.0034 11.7065L11.1084 9.13086C10.6812 8.92334 10.3516 8.92334 9.93652 9.14307L5.0415 11.7065C4.56543 11.9629 4.8584 12.6831 5.46875 12.3779ZM5.26123 17.8833L18.2007 17.8833C18.4204 17.8833 18.6035 17.7002 18.6035 17.4683C18.6035 17.2485 18.4204 17.0654 18.2007 17.0654L14.8682 17.0654C14.8926 16.98 14.8926 16.8945 14.8926 16.7969L14.8926 12.7686C14.8193 12.7319 14.7339 12.6831 14.6484 12.6465L10.5225 10.5225L6.38428 12.6465C6.29883 12.6831 6.22559 12.7319 6.15234 12.7686L6.15234 16.7969C6.15234 16.8945 6.15234 16.9922 6.18896 17.0654L5.26123 17.0654C5.05371 17.0654 4.8584 17.2485 4.8584 17.4683C4.8584 17.7002 5.05371 17.8833 5.26123 17.8833ZM9.00879 17.0654L9.00879 13.8306C9.00879 13.5864 9.16748 13.4521 9.38721 13.4521L11.6455 13.4521C11.8774 13.4521 12.0239 13.5864 12.0239 13.8306L12.0239 17.0654ZM15.7837 17.4561L16.5894 17.4561L16.5894 9.58252C16.6382 9.57031 16.7114 9.57031 16.7725 9.57031C17.6025 9.57031 18.1152 9.97314 18.9331 9.97314C19.2749 9.97314 19.4336 9.92432 19.6045 9.85107C19.812 9.75342 19.8975 9.61914 19.8975 9.39941L19.8975 7.1167C19.8975 6.97021 19.812 6.86035 19.6167 6.86035C19.4702 6.86035 19.2871 6.97021 18.8965 6.97021C18.1274 6.97021 17.6025 6.55518 16.7603 6.55518C16.4062 6.55518 16.2476 6.604 16.0889 6.67725C15.8813 6.75049 15.7837 6.90918 15.7837 7.12891Z" fill="#5ac8f5"/>
 </g>
</svg>
