<?xml version="1.0" encoding="UTF-8"?>
<!--Generator: Apple Native CoreSVG 175.5-->
<!DOCTYPE svg
PUBLIC "-//W3C//DTD SVG 1.1//EN"
       "http://www.w3.org/Graphics/SVG/1.1/DTD/svg11.dtd">
<svg version="1.1" xmlns="http://www.w3.org/2000/svg" xmlns:xlink="http://www.w3.org/1999/xlink" width="24.9023" height="24.9146">
 <g>
  <rect height="24.9146" opacity="0" width="24.9023" x="0" y="0"/>
  <path d="M12.4512 24.9023C19.2627 24.9023 24.9023 19.2505 24.9023 12.4512C24.9023 5.63965 19.2505 0 12.439 0C5.63965 0 0 5.63965 0 12.4512C0 19.2505 5.65186 24.9023 12.4512 24.9023ZM9.82666 17.8589C9.32617 17.8589 9.08203 17.4927 9.08203 17.0044L9.08203 15.5273L5.40771 15.5273C4.76074 15.5273 4.32129 15.1245 4.32129 14.4531C4.32129 14.1113 4.39453 13.8306 4.60205 13.4399C5.45654 11.9141 6.71387 9.76562 7.76367 7.99561C8.17871 7.2998 8.61816 7.01904 9.35059 7.01904C10.0952 7.01904 10.6079 7.49512 10.6079 8.22754L10.6079 14.1113L11.2793 14.1113C11.7188 14.1113 11.9873 14.3799 11.9873 14.8315C11.9873 15.271 11.7188 15.5273 11.2793 15.5273L10.6079 15.5273L10.6079 17.0044C10.6079 17.5049 10.3394 17.8589 9.82666 17.8589ZM9.08203 14.1113L9.08203 8.72803L8.99658 8.72803C8.00781 10.437 6.72607 12.6343 5.98145 14.0625L5.98145 14.1113ZM16.5649 17.8833C14.9902 17.8833 13.7451 17.0532 13.3667 16.0034C13.2935 15.8325 13.2446 15.6372 13.2446 15.4297C13.2446 15.0146 13.5376 14.6973 13.9526 14.6973C14.2578 14.6973 14.502 14.8804 14.6851 15.2466C15.0513 16.0034 15.7837 16.4551 16.6382 16.4551C17.8589 16.4551 18.6768 15.6616 18.6768 14.3433C18.6768 13.1836 17.9321 12.3047 16.8213 12.3047C16.272 12.3047 15.8813 12.4878 15.3564 12.9395C14.9536 13.269 14.7217 13.3789 14.3311 13.3789C13.7573 13.3789 13.4033 12.9395 13.4521 12.2803L13.7451 8.36182C13.7939 7.69043 14.2334 7.2876 14.9048 7.2876L19.2261 7.2876C19.5923 7.2876 19.8486 7.59277 19.8486 7.99561C19.8486 8.41064 19.5801 8.70361 19.2261 8.70361L15.0635 8.70361L14.8315 11.9385L14.8804 11.9385C15.2588 11.3647 16.1621 10.9497 17.0044 10.9497C18.9453 10.9497 20.2515 12.3657 20.2515 14.3066C20.2515 16.5161 18.7744 17.8833 16.5649 17.8833Z" fill="#5ac8f5"/>
 </g>
</svg>
