<?xml version="1.0" encoding="UTF-8"?>
<!--Generator: Apple Native CoreSVG 175.5-->
<!DOCTYPE svg
PUBLIC "-//W3C//DTD SVG 1.1//EN"
       "http://www.w3.org/Graphics/SVG/1.1/DTD/svg11.dtd">
<svg version="1.1" xmlns="http://www.w3.org/2000/svg" xmlns:xlink="http://www.w3.org/1999/xlink" width="25.6592" height="25.8911">
 <g>
  <rect height="25.8911" opacity="0" width="25.6592" x="0" y="0"/>
  <path d="M8.5083 18.1274L17.1509 18.1274C18.5547 18.1274 19.2139 17.4683 19.2139 16.0645L19.2139 13.3545L23.8403 13.3545C24.8535 13.3545 25.6592 12.7563 25.6592 11.8164C25.6592 11.2427 25.3662 10.791 24.8169 10.3149L14.3433 1.07422C13.8306 0.634766 13.3789 0.341797 12.8296 0.341797C12.2803 0.341797 11.8286 0.634766 11.3159 1.07422L0.842285 10.3271C0.268555 10.8276 0 11.2427 0 11.8164C0 12.7563 0.805664 13.3545 1.81885 13.3545L6.44531 13.3545L6.44531 16.0645C6.44531 17.4683 7.10449 18.1274 8.5083 18.1274ZM8.38623 25.8911L17.2729 25.8911C18.4937 25.8911 19.2139 25.1709 19.2139 23.9624L19.2139 22.0825C19.2139 20.874 18.4937 20.1538 17.2729 20.1538L8.38623 20.1538C7.16553 20.1538 6.44531 20.874 6.44531 22.0825L6.44531 23.9624C6.44531 25.1709 7.16553 25.8911 8.38623 25.8911Z" fill="#5ac8f5"/>
 </g>
</svg>
