<?xml version="1.0" encoding="UTF-8"?>
<!--Generator: Apple Native CoreSVG 175.5-->
<!DOCTYPE svg
PUBLIC "-//W3C//DTD SVG 1.1//EN"
       "http://www.w3.org/Graphics/SVG/1.1/DTD/svg11.dtd">
<svg version="1.1" xmlns="http://www.w3.org/2000/svg" xmlns:xlink="http://www.w3.org/1999/xlink" width="24.9023" height="24.9146">
 <g>
  <rect height="24.9146" opacity="0" width="24.9023" x="0" y="0"/>
  <path d="M17.9077 21.2646C16.333 22.2534 14.4531 22.8271 12.439 22.8271C6.67725 22.8271 2.0752 18.2129 2.0752 12.4512C2.0752 10.437 2.64893 8.55713 3.6377 6.98242L2.17285 5.50537C0.793457 7.48291 0 9.8877 0 12.4512C0 19.2505 5.65186 24.9023 12.4512 24.9023C15.0146 24.9023 17.395 24.0967 19.3848 22.7417ZM22.7295 19.397C24.0967 17.4072 24.9023 15.0146 24.9023 12.4512C24.9023 5.63965 19.2505 0 12.439 0C9.87549 0 7.48291 0.805664 5.50537 2.17285L6.98242 3.6377C8.54492 2.64893 10.4126 2.0752 12.4268 2.0752C18.1885 2.0752 22.8149 6.68945 22.8149 12.4512C22.8149 14.4653 22.2412 16.333 21.2524 17.9199ZM22.9736 24.3286C23.3398 24.6948 23.9502 24.6826 24.3042 24.3164C24.6704 23.9502 24.6704 23.3521 24.3042 22.9858L1.9165 0.598145C1.55029 0.231934 0.952148 0.219727 0.57373 0.598145C0.219727 0.952148 0.219727 1.5625 0.57373 1.92871Z" fill="#5ac8f5"/>
 </g>
</svg>
