<?xml version="1.0" encoding="UTF-8"?>
<!--Generator: Apple Native CoreSVG 175.5-->
<!DOCTYPE svg
PUBLIC "-//W3C//DTD SVG 1.1//EN"
       "http://www.w3.org/Graphics/SVG/1.1/DTD/svg11.dtd">
<svg version="1.1" xmlns="http://www.w3.org/2000/svg" xmlns:xlink="http://www.w3.org/1999/xlink" width="26.4526" height="22.4976">
 <g>
  <rect height="22.4976" opacity="0" width="26.4526" x="0" y="0"/>
  <path d="M22.6196 22.4976C25.1709 22.4976 26.4526 21.2402 26.4526 18.7134L26.4526 3.80859C26.4526 1.28174 25.1709 0.0244141 22.6196 0.0244141L12.0117 0.0244141C10.5835 0.0244141 9.35059 0.390625 8.34961 1.45264L1.15967 8.92334C0.366211 9.74121 0 10.4736 0 11.2427C0 11.9995 0.354004 12.7441 1.15967 13.562L8.36182 20.9961C9.375 22.0459 10.5957 22.4854 12.0239 22.4854ZM22.5952 20.5322L11.9873 20.5322C11.0596 20.5322 10.4858 20.3125 9.83887 19.6533L2.68555 12.2681C2.27051 11.8408 2.14844 11.5479 2.14844 11.2427C2.14844 10.9253 2.28271 10.6323 2.68555 10.2051L9.82666 2.79541C10.4614 2.14844 11.0596 1.98975 11.9751 1.98975L22.5952 1.98975C23.8159 1.98975 24.4873 2.63672 24.4873 3.90625L24.4873 18.6157C24.4873 19.8853 23.8159 20.5322 22.5952 20.5322ZM11.3037 16.4185C11.5723 16.4185 11.8164 16.3086 11.9995 16.1133L15.4663 12.6343L18.9331 16.1133C19.1162 16.2964 19.3604 16.4185 19.6411 16.4185C20.1782 16.4185 20.6177 15.9668 20.6177 15.4297C20.6177 15.1489 20.5078 14.917 20.3247 14.7339L16.8579 11.2671L20.3369 7.77588C20.5322 7.56836 20.6299 7.36084 20.6299 7.09229C20.6299 6.54297 20.1904 6.11572 19.6533 6.11572C19.397 6.11572 19.1772 6.20117 18.9697 6.40869L15.4663 9.8999L11.9751 6.4209C11.792 6.22559 11.5723 6.14014 11.3037 6.14014C10.7666 6.14014 10.3271 6.55518 10.3271 7.10449C10.3271 7.37305 10.4248 7.60498 10.6201 7.78809L14.0869 11.2671L10.6201 14.7461C10.4248 14.917 10.3271 15.1611 10.3271 15.4297C10.3271 15.9668 10.7666 16.4185 11.3037 16.4185Z" fill="#5ac8f5"/>
 </g>
</svg>
