<?xml version="1.0" encoding="UTF-8"?>
<!--Generator: Apple Native CoreSVG 175.5-->
<!DOCTYPE svg
PUBLIC "-//W3C//DTD SVG 1.1//EN"
       "http://www.w3.org/Graphics/SVG/1.1/DTD/svg11.dtd">
<svg version="1.1" xmlns="http://www.w3.org/2000/svg" xmlns:xlink="http://www.w3.org/1999/xlink" width="22.4731" height="22.4976">
 <g>
  <rect height="22.4976" opacity="0" width="22.4731" x="0" y="0"/>
  <path d="M3.83301 22.4976L18.6401 22.4976C21.2036 22.4976 22.4731 21.228 22.4731 18.7134L22.4731 3.80859C22.4731 1.29395 21.2036 0.0244141 18.6401 0.0244141L3.83301 0.0244141C1.28174 0.0244141 0 1.28174 0 3.80859L0 18.7134C0 21.2402 1.28174 22.4976 3.83301 22.4976ZM3.85742 20.5322C2.63672 20.5322 1.96533 19.8853 1.96533 18.6157L1.96533 3.90625C1.96533 2.63672 2.63672 1.98975 3.85742 1.98975L18.6157 1.98975C19.8242 1.98975 20.5078 2.63672 20.5078 3.90625L20.5078 18.6157C20.5078 19.8853 19.8242 20.5322 18.6157 20.5322ZM8.00781 16.5039C10.1074 16.5039 11.499 14.4897 11.499 11.2427C11.499 7.99561 10.1074 5.98145 8.00781 5.98145C5.896 5.98145 4.5166 7.99561 4.5166 11.2427C4.5166 14.4897 5.896 16.5039 8.00781 16.5039ZM8.00781 15.0269C6.83594 15.0269 6.11572 13.5864 6.11572 11.2427C6.11572 8.89893 6.83594 7.4585 8.00781 7.4585C9.16748 7.4585 9.8877 8.89893 9.8877 11.2427C9.8877 13.5864 9.17969 15.0269 8.00781 15.0269ZM16.4795 16.3574C16.9556 16.3574 17.2607 16.0522 17.2607 15.5762L17.2607 6.93359C17.2607 6.4209 16.9067 6.05469 16.394 6.05469C16.0034 6.05469 15.7593 6.17676 15.332 6.46973L13.4766 7.73926C13.2202 7.92236 13.0615 8.14209 13.0615 8.45947C13.0615 8.87451 13.4033 9.19189 13.7573 9.19189C13.9526 9.19189 14.0747 9.17969 14.3555 8.95996L15.6616 7.99561L15.7349 7.99561L15.7349 15.5762C15.7349 16.0522 16.0278 16.3574 16.4795 16.3574Z" fill="#5ac8f5"/>
 </g>
</svg>
