<?xml version="1.0" encoding="UTF-8"?>
<!--Generator: Apple Native CoreSVG 175.5-->
<!DOCTYPE svg
PUBLIC "-//W3C//DTD SVG 1.1//EN"
       "http://www.w3.org/Graphics/SVG/1.1/DTD/svg11.dtd">
<svg version="1.1" xmlns="http://www.w3.org/2000/svg" xmlns:xlink="http://www.w3.org/1999/xlink" width="24.9023" height="24.939">
 <g>
  <rect height="24.939" opacity="0" width="24.9023" x="0" y="0"/>
  <path d="M12.4512 24.9023C19.2627 24.9023 24.9023 19.2627 24.9023 12.4512C24.9023 5.65186 19.2505 0 12.439 0C5.63965 0 0 5.65186 0 12.4512C0 19.2627 5.65186 24.9023 12.4512 24.9023ZM12.4512 22.8271C6.68945 22.8271 2.0874 18.2129 2.0874 12.4512C2.0874 6.68945 6.67725 2.0752 12.439 2.0752C18.2007 2.0752 22.8271 6.68945 22.8271 12.4512C22.8271 18.2129 18.2129 22.8271 12.4512 22.8271ZM12.4634 18.7378C13.0981 18.7378 13.4521 18.3594 13.4399 17.7002L13.3301 14.0381L16.6382 16.1865C16.8213 16.2964 17.0288 16.3696 17.2729 16.3696C17.7734 16.3696 18.2373 15.979 18.2373 15.3564C18.2373 14.9536 18.0542 14.6851 17.6514 14.4653L14.1846 12.5244L17.6514 10.5957C18.0542 10.376 18.2373 10.0952 18.2373 9.70459C18.2373 9.06982 17.7734 8.6792 17.2729 8.6792C17.0288 8.6792 16.8213 8.75244 16.6382 8.87451L13.3301 10.9863L13.4399 7.21436C13.4521 6.54297 13.0981 6.16455 12.4634 6.16455C11.8164 6.16455 11.4258 6.56738 11.438 7.21436L11.5479 10.9863L8.23975 8.88672C8.05664 8.76465 7.84912 8.70361 7.60498 8.70361C7.10449 8.70361 6.64062 9.08203 6.64062 9.7168C6.64062 10.1196 6.82373 10.3882 7.22656 10.6201L10.6689 12.5244L7.22656 14.4531C6.82373 14.6729 6.64062 14.9536 6.64062 15.3442C6.64062 15.9668 7.10449 16.3574 7.60498 16.3574C7.84912 16.3574 8.05664 16.2842 8.23975 16.1743L11.5479 14.0381L11.438 17.7002C11.4258 18.335 11.8164 18.7378 12.4634 18.7378Z" fill="#5ac8f5"/>
 </g>
</svg>
