<?xml version="1.0" encoding="UTF-8"?>
<!--Generator: Apple Native CoreSVG 175.5-->
<!DOCTYPE svg
PUBLIC "-//W3C//DTD SVG 1.1//EN"
       "http://www.w3.org/Graphics/SVG/1.1/DTD/svg11.dtd">
<svg version="1.1" xmlns="http://www.w3.org/2000/svg" xmlns:xlink="http://www.w3.org/1999/xlink" width="26.3184" height="22.3999">
 <g>
  <rect height="22.3999" opacity="0" width="26.3184" x="0" y="0"/>
  <path d="M0 11.1938C0 11.5967 0.158691 12.0605 0.622559 12.5L10.2539 21.5942C10.8398 22.1436 11.3281 22.3877 11.9263 22.3877C12.7563 22.3877 13.3545 21.7773 13.3545 20.9595L13.3545 16.0156L23.5107 16.0156C25.2808 16.0156 26.3184 15.0146 26.3184 13.269L26.3184 9.13086C26.3184 7.38525 25.2808 6.38428 23.5107 6.38428L13.3545 6.38428L13.3545 1.48926C13.3545 0.671387 12.7563 0 11.9019 0C11.3037 0 10.9009 0.256348 10.2539 0.866699L0.622559 9.87549C0.146484 10.3271 0 10.7788 0 11.1938Z" fill="#5ac8f5"/>
 </g>
</svg>
