<?xml version="1.0" encoding="UTF-8"?>
<!--Generator: Apple Native CoreSVG 175.5-->
<!DOCTYPE svg
PUBLIC "-//W3C//DTD SVG 1.1//EN"
       "http://www.w3.org/Graphics/SVG/1.1/DTD/svg11.dtd">
<svg version="1.1" xmlns="http://www.w3.org/2000/svg" xmlns:xlink="http://www.w3.org/1999/xlink" width="20.7886" height="16.2231">
 <g>
  <rect height="16.2231" opacity="0" width="20.7886" x="0" y="0"/>
  <path d="M0 13.269C0 15.0757 1.09863 16.2231 2.79541 16.2231L17.9932 16.2231C19.6899 16.2231 20.7886 15.0757 20.7886 13.269L20.7886 2.9541C20.7886 1.14746 19.6899 0 17.9932 0L2.79541 0C1.09863 0 0 1.14746 0 2.9541ZM1.96533 13.0249L1.96533 3.19824C1.96533 2.4292 2.40479 1.96533 3.125 1.96533L17.6758 1.96533C18.3838 1.96533 18.8232 2.4292 18.8232 3.19824L18.8232 13.0249C18.8232 13.7939 18.3838 14.2578 17.6758 14.2578L3.125 14.2578C2.40479 14.2578 1.96533 13.7939 1.96533 13.0249ZM12.4878 12.8418C15.1123 12.8418 17.2241 10.7178 17.2241 8.10547C17.2241 5.49316 15.1123 3.36914 12.4878 3.36914C9.87549 3.36914 7.76367 5.49316 7.76367 8.10547C7.76367 10.7178 9.87549 12.8418 12.4878 12.8418ZM12.4878 11.2793C10.7178 11.2793 9.32617 9.87549 9.32617 8.10547C9.32617 6.33545 10.7178 4.93164 12.4878 4.93164C14.27 4.93164 15.6616 6.33545 15.6616 8.10547C15.6616 9.87549 14.27 11.2793 12.4878 11.2793Z" fill="#5ac8f5"/>
 </g>
</svg>
