<?xml version="1.0" encoding="UTF-8"?>
<!--Generator: Apple Native CoreSVG 175.5-->
<!DOCTYPE svg
PUBLIC "-//W3C//DTD SVG 1.1//EN"
       "http://www.w3.org/Graphics/SVG/1.1/DTD/svg11.dtd">
<svg version="1.1" xmlns="http://www.w3.org/2000/svg" xmlns:xlink="http://www.w3.org/1999/xlink" width="24.9023" height="24.9146">
 <g>
  <rect height="24.9146" opacity="0" width="24.9023" x="0" y="0"/>
  <path d="M12.4512 24.9023C19.2627 24.9023 24.9023 19.2505 24.9023 12.4512C24.9023 5.63965 19.2505 0 12.439 0C5.63965 0 0 5.63965 0 12.4512C0 19.2505 5.65186 24.9023 12.4512 24.9023ZM12.4512 22.8271C6.68945 22.8271 2.0874 18.2129 2.0874 12.4512C2.0874 6.68945 6.67725 2.0752 12.439 2.0752C18.2007 2.0752 22.8271 6.68945 22.8271 12.4512C22.8271 18.2129 18.2129 22.8271 12.4512 22.8271Z" fill="#5ac8f5" fill-opacity="0.5"/>
  <path d="M12.4512 8.3374C13.3057 8.3374 14.0137 7.62939 14.0137 6.7749C14.0137 5.92041 13.3057 5.2124 12.4512 5.2124C11.5967 5.2124 10.8887 5.92041 10.8887 6.7749C10.8887 7.62939 11.5967 8.3374 12.4512 8.3374ZM7.10449 14.7583C8.38623 14.7583 9.41162 13.7207 9.41162 12.4512C9.41162 11.1816 8.38623 10.144 7.10449 10.144C5.83496 10.144 4.80957 11.1816 4.80957 12.4512C4.80957 13.7207 5.83496 14.7583 7.10449 14.7583ZM17.7979 14.7583C19.0674 14.7583 20.0928 13.7207 20.0928 12.4512C20.0928 11.1816 19.0674 10.144 17.7979 10.144C16.5161 10.144 15.4907 11.1816 15.4907 12.4512C15.4907 13.7207 16.5161 14.7583 17.7979 14.7583Z" fill="#5ac8f5"/>
 </g>
</svg>
