<?xml version="1.0" encoding="UTF-8"?>
<!--Generator: Apple Native CoreSVG 175.5-->
<!DOCTYPE svg
PUBLIC "-//W3C//DTD SVG 1.1//EN"
       "http://www.w3.org/Graphics/SVG/1.1/DTD/svg11.dtd">
<svg version="1.1" xmlns="http://www.w3.org/2000/svg" xmlns:xlink="http://www.w3.org/1999/xlink" width="24.9023" height="24.9146">
 <g>
  <rect height="24.9146" opacity="0" width="24.9023" x="0" y="0"/>
  <path d="M12.4512 24.9146C19.2627 24.9146 24.9023 19.2749 24.9023 12.4634C24.9023 5.66406 19.2505 0.012207 12.439 0.012207C5.63965 0.012207 0 5.66406 0 12.4634C0 19.2749 5.65186 24.9146 12.4512 24.9146Z" fill="#5ac8f5" fill-opacity="0.25"/>
  <path d="M9.69238 20.4102C8.45947 20.4102 7.6416 19.6167 7.6416 18.4204L7.6416 6.50635C7.6416 5.29785 8.45947 4.5166 9.69238 4.5166L15.1978 4.5166C16.4307 4.5166 17.2607 5.29785 17.2607 6.50635L17.2607 18.4204C17.2607 19.6167 16.4307 20.4102 15.1978 20.4102ZM9.85107 19.1772L15.0513 19.1772C15.686 19.1772 16.04 18.8354 16.04 18.2373L16.04 6.68945C16.04 6.09131 15.686 5.74951 15.0513 5.74951L14.1479 5.74951C14.0381 5.74951 13.9893 5.79834 13.9893 5.9082L13.9893 6.0791C13.9893 6.40869 13.7695 6.61621 13.4644 6.61621L11.4258 6.61621C11.1206 6.61621 10.9131 6.40869 10.9131 6.0791L10.9131 5.9082C10.9131 5.79834 10.8643 5.74951 10.7544 5.74951L9.85107 5.74951C9.2041 5.74951 8.8623 6.09131 8.8623 6.68945L8.8623 18.2373C8.8623 18.8354 9.2041 19.1772 9.85107 19.1772ZM10.8765 18.6279C10.6689 18.6279 10.5103 18.4814 10.5103 18.2739C10.5103 18.042 10.6689 17.8955 10.8765 17.8955L14.0259 17.8955C14.2334 17.8955 14.3921 18.042 14.3921 18.2739C14.3921 18.4814 14.2334 18.6279 14.0259 18.6279Z" fill="#5ac8f5"/>
 </g>
</svg>
