<?xml version="1.0" encoding="UTF-8"?>
<!--Generator: Apple Native CoreSVG 175.5-->
<!DOCTYPE svg
PUBLIC "-//W3C//DTD SVG 1.1//EN"
       "http://www.w3.org/Graphics/SVG/1.1/DTD/svg11.dtd">
<svg version="1.1" xmlns="http://www.w3.org/2000/svg" xmlns:xlink="http://www.w3.org/1999/xlink" width="27.6855" height="25.5737">
 <g>
  <rect height="25.5737" opacity="0" width="27.6855" x="0" y="0"/>
  <path d="M5.29785 25.5737C6.9458 25.5737 10.3149 23.9136 12.793 22.1436C21.3013 22.3755 27.6855 17.4927 27.6855 11.0962C27.6855 4.95605 21.5332 0 13.8428 0C6.15234 0 0 4.95605 0 11.0962C0 15.1001 2.56348 18.6523 6.4209 20.4346C5.87158 21.4966 4.84619 22.937 4.29688 23.6572C3.6499 24.5117 4.04053 25.5737 5.29785 25.5737ZM6.57959 23.5474C6.48193 23.584 6.44531 23.5107 6.50635 23.4253C7.18994 22.583 8.1665 21.3135 8.58154 20.5322C8.92334 19.8975 8.83789 19.3359 8.05664 18.9697C4.22363 17.1875 2.02637 14.3433 2.02637 11.0962C2.02637 6.09131 7.26318 2.01416 13.8428 2.01416C20.4346 2.01416 25.6714 6.09131 25.6714 11.0962C25.6714 16.0889 20.4346 20.166 13.8428 20.166C13.5986 20.166 13.2202 20.1538 12.7319 20.1416C12.2192 20.1416 11.8286 20.3003 11.3647 20.6665C9.86328 21.7529 7.69043 23.0957 6.57959 23.5474Z" fill="#5ac8f5" fill-opacity="0.5"/>
  <path d="M13.855 17.3096C14.3921 17.3096 14.7705 16.9312 14.7705 16.4062L14.7705 10.2905L14.6729 7.70264L15.918 9.17969L17.3584 10.6445C17.5171 10.8276 17.7368 10.9131 18.0054 10.9131C18.5059 10.9131 18.8965 10.5347 18.8965 10.0342C18.8965 9.79004 18.7988 9.57031 18.6401 9.39941L14.5752 5.34668C14.3433 5.11475 14.1357 4.99268 13.855 4.99268C13.5986 4.99268 13.3911 5.10254 13.147 5.34668L9.06982 9.39941C8.91113 9.57031 8.83789 9.79004 8.83789 10.0342C8.83789 10.5347 9.21631 10.9131 9.7168 10.9131C9.97314 10.9131 10.2051 10.8154 10.3638 10.6445L11.8164 9.17969L13.0371 7.72705L12.9395 10.2905L12.9395 16.4062C12.9395 16.9312 13.3301 17.3096 13.855 17.3096Z" fill="#5ac8f5"/>
 </g>
</svg>
