<?xml version="1.0" encoding="UTF-8"?>
<!--Generator: Apple Native CoreSVG 175.5-->
<!DOCTYPE svg
PUBLIC "-//W3C//DTD SVG 1.1//EN"
       "http://www.w3.org/Graphics/SVG/1.1/DTD/svg11.dtd">
<svg version="1.1" xmlns="http://www.w3.org/2000/svg" xmlns:xlink="http://www.w3.org/1999/xlink" width="35.8521" height="22.4976">
 <g>
  <rect height="22.4976" opacity="0" width="35.8521" x="0" y="0"/>
  <path d="M6.23779 13.6963L11.3281 13.6963C11.8286 13.6963 12.2192 13.3057 12.2192 12.8052C12.2192 12.2925 11.8286 11.9019 11.3281 11.9019L6.23779 11.9019C5.7373 11.9019 5.33447 12.2925 5.33447 12.8052C5.33447 13.3057 5.7373 13.6963 6.23779 13.6963ZM19.9829 16.4795C20.4834 16.4795 20.874 16.0889 20.874 15.5884L20.874 13.6963L22.7661 13.6963C23.2666 13.6963 23.6694 13.3057 23.6694 12.8052C23.6694 12.2925 23.2666 11.9019 22.7661 11.9019L20.874 11.9019L20.874 10.0098C20.874 9.50928 20.4834 9.10645 19.9829 9.10645C19.4824 9.10645 19.0796 9.50928 19.0796 10.0098L19.0796 11.9019L17.1875 11.9019C16.687 11.9019 16.2964 12.2925 16.2964 12.8052C16.2964 13.3057 16.687 13.6963 17.1875 13.6963L19.0796 13.6963L19.0796 15.5884C19.0796 16.0889 19.4824 16.4795 19.9829 16.4795ZM3.83301 22.4731L24.9512 22.4731C27.5146 22.4731 28.7842 21.2158 28.7842 18.7012L28.7842 6.89697C28.7842 4.38232 27.5146 3.125 24.9512 3.125L23.2666 3.125L23.2666 1.48926C23.2666 0.561523 22.7295 0 21.7896 0L18.1885 0C17.2607 0 16.7236 0.561523 16.7236 1.48926L16.7236 3.125L12.0728 3.125L12.0728 1.48926C12.0728 0.561523 11.5356 0 10.5957 0L6.99463 0C6.05469 0 5.52979 0.561523 5.52979 1.48926L5.52979 3.125L3.83301 3.125C1.28174 3.125 0 4.38232 0 6.89697L0 18.7012C0 21.2158 1.28174 22.4731 3.83301 22.4731ZM1.96533 18.5913L1.96533 7.00684C1.96533 5.7373 2.63672 5.09033 3.85742 5.09033L24.9268 5.09033C26.1353 5.09033 26.8188 5.7373 26.8188 7.00684L26.8188 18.5913C26.8188 19.8608 26.1353 20.5078 24.9268 20.5078L3.85742 20.5078C2.63672 20.5078 1.96533 19.8608 1.96533 18.5913ZM34.2529 19.4336C35.1196 19.4336 35.8521 18.7256 35.8521 17.8955C35.8521 17.0532 35.1318 16.3574 34.2529 16.3574C33.374 16.3574 32.6538 17.0532 32.6538 17.8955C32.6538 18.7256 33.3862 19.4336 34.2529 19.4336ZM34.2529 14.0137C34.8511 14.0137 35.2783 13.5986 35.3027 12.9761L35.5469 4.3335C35.5713 3.55225 35.0586 3.02734 34.2529 3.02734C33.4473 3.02734 32.9346 3.55225 32.959 4.3335L33.2153 12.9761C33.2397 13.5986 33.6548 14.0137 34.2529 14.0137Z" fill="#5ac8f5"/>
 </g>
</svg>
