<?xml version="1.0" encoding="UTF-8"?>
<!--Generator: Apple Native CoreSVG 175.5-->
<!DOCTYPE svg
PUBLIC "-//W3C//DTD SVG 1.1//EN"
       "http://www.w3.org/Graphics/SVG/1.1/DTD/svg11.dtd">
<svg version="1.1" xmlns="http://www.w3.org/2000/svg" xmlns:xlink="http://www.w3.org/1999/xlink" width="24.2554" height="23.1567">
 <g>
  <rect height="23.1567" opacity="0" width="24.2554" x="0" y="0"/>
  <path d="M7.8125 12.8906C7.8125 15.2588 9.68018 17.1509 12.0239 17.1509C14.3677 17.1509 16.2354 15.2588 16.2354 12.915C16.2354 12.5122 15.8936 12.1704 15.4907 12.1704C15.0757 12.1704 14.7339 12.5122 14.7339 12.915C14.7339 14.4287 13.5254 15.6372 12.0239 15.6372C10.5225 15.6372 9.31396 14.4287 9.31396 12.915C9.31396 11.6821 10.144 10.6567 11.2671 10.3271L11.2671 11.499C11.2671 11.9507 11.7554 12.1216 12.0972 11.8286L14.0869 10.1196C14.4165 9.82666 14.4165 9.43604 14.0869 9.15527L12.0972 7.4707C11.7554 7.17773 11.2671 7.34863 11.2671 7.80029L11.2671 8.80127C9.35059 9.09424 7.8125 10.8521 7.8125 12.8906ZM0 8.11768C0 13.3179 4.35791 18.4326 11.2427 22.8271C11.499 22.9858 11.8774 23.1567 12.1216 23.1567C12.3779 23.1567 12.7441 22.9858 13.0127 22.8271C19.8975 18.4326 24.2554 13.3179 24.2554 8.11768C24.2554 3.79639 21.2891 0.744629 17.3218 0.744629C15.0635 0.744629 13.2324 1.81885 12.1216 3.4668C11.0352 1.83105 9.19189 0.744629 6.92139 0.744629C2.96631 0.744629 0 3.79639 0 8.11768ZM1.96533 8.11768C1.96533 4.87061 4.06494 2.70996 6.89697 2.70996C9.2041 2.70996 10.5103 4.13818 11.3037 5.35889C11.6333 5.84717 11.8408 5.98145 12.1216 5.98145C12.4146 5.98145 12.5977 5.83496 12.9517 5.35889C13.7939 4.1626 15.0635 2.70996 17.3462 2.70996C20.1904 2.70996 22.29 4.87061 22.29 8.11768C22.29 12.6587 17.4927 17.5537 12.3779 20.9473C12.2559 21.0327 12.1704 21.0938 12.1216 21.0938C12.085 21.0938 11.9995 21.0327 11.8774 20.9473C6.7627 17.5537 1.96533 12.6587 1.96533 8.11768Z" fill="#5ac8f5"/>
 </g>
</svg>
