<?xml version="1.0" encoding="UTF-8"?>
<!--Generator: Apple Native CoreSVG 175.5-->
<!DOCTYPE svg
PUBLIC "-//W3C//DTD SVG 1.1//EN"
       "http://www.w3.org/Graphics/SVG/1.1/DTD/svg11.dtd">
<svg version="1.1" xmlns="http://www.w3.org/2000/svg" xmlns:xlink="http://www.w3.org/1999/xlink" width="33.2764" height="29.8828">
 <g>
  <rect height="29.8828" opacity="0" width="33.2764" x="0" y="0"/>
  <path d="M4.69971 10.4187C4.69971 13.0432 6.67725 15.094 8.94775 15.094C10.1929 15.094 11.3403 14.4714 12.1094 13.4827L5.88379 7.25708C5.16357 8.06274 4.6875 9.17358 4.69971 10.4187ZM2.14844 26.1169L11.4136 26.1169C10.144 24.2737 11.6943 20.5627 14.3311 18.5364C12.9639 17.6331 11.2183 16.9617 8.94775 16.9617C3.44238 16.9617 0 21.0266 0 24.408C0 25.5066 0.598145 26.1169 2.14844 26.1169ZM23.0103 14.8132C25.6226 14.8132 27.8809 12.4695 27.8809 9.41772C27.8809 6.40259 25.6104 4.1687 23.0103 4.1687C20.3979 4.1687 18.1152 6.45142 18.1274 9.44214C18.1274 12.4695 20.3857 14.8132 23.0103 14.8132ZM12.7319 24.4934C12.7319 25.5676 13.4155 26.1169 15.332 26.1169L24.7559 26.1169L17.1143 18.4753C14.3188 20.0134 12.7319 22.4915 12.7319 24.4934ZM31.3354 26.0071L31.8604 25.9949C32.8613 25.8118 33.2764 25.3235 33.2764 24.4934C33.2764 21.344 29.3335 16.9983 22.998 16.9983C22.7905 16.9983 22.5708 17.0227 22.3877 17.0471Z" fill="#5ac8f5" fill-opacity="0.5"/>
  <path d="M30.2612 29.6082C30.6274 29.9744 31.2378 29.9744 31.5918 29.6082C31.958 29.2419 31.9702 28.656 31.5918 28.2776L5.82275 2.50854C5.44434 2.13013 4.8584 2.14233 4.47998 2.50854C4.12598 2.86255 4.12598 3.48511 4.47998 3.83911Z" fill="#5ac8f5"/>
 </g>
</svg>
