<?xml version="1.0" encoding="UTF-8"?>
<!--Generator: Apple Native CoreSVG 175.5-->
<!DOCTYPE svg
PUBLIC "-//W3C//DTD SVG 1.1//EN"
       "http://www.w3.org/Graphics/SVG/1.1/DTD/svg11.dtd">
<svg version="1.1" xmlns="http://www.w3.org/2000/svg" xmlns:xlink="http://www.w3.org/1999/xlink" width="22.4731" height="22.4976">
 <g>
  <rect height="22.4976" opacity="0" width="22.4731" x="0" y="0"/>
  <path d="M3.83301 22.4976L18.6401 22.4976C21.2036 22.4976 22.4731 21.228 22.4731 18.7134L22.4731 3.80859C22.4731 1.29395 21.2036 0.0244141 18.6401 0.0244141L3.83301 0.0244141C1.28174 0.0244141 0 1.28174 0 3.80859L0 18.7134C0 21.2402 1.28174 22.4976 3.83301 22.4976ZM7.83691 16.5161C7.36084 16.5161 7.04346 16.1987 7.04346 15.7104L7.04346 7.89795L6.98242 7.89795L5.65186 8.88672C5.35889 9.11865 5.22461 9.13086 5.0293 9.13086C4.66309 9.13086 4.30908 8.80127 4.30908 8.37402C4.30908 8.04443 4.45557 7.8125 4.73633 7.62939L6.64062 6.32324C7.09229 6.01807 7.32422 5.88379 7.73926 5.88379C8.27637 5.88379 8.63037 6.27441 8.63037 6.79932L8.63037 15.7104C8.63037 16.1987 8.3252 16.5161 7.83691 16.5161ZM14.4043 16.6748C12.8296 16.6748 11.5845 15.8447 11.2061 14.7949C11.145 14.624 11.0962 14.4287 11.0962 14.2212C11.0962 13.8062 11.377 13.4888 11.8042 13.4888C12.1094 13.4888 12.3413 13.6719 12.5366 14.0381C12.9028 14.7827 13.623 15.2344 14.4775 15.2344C15.6982 15.2344 16.5283 14.4531 16.5283 13.1348C16.5283 11.9751 15.7715 11.0962 14.6729 11.0962C14.1235 11.0962 13.7329 11.2793 13.208 11.731C12.8052 12.0605 12.5732 12.1582 12.1826 12.1582C11.5967 12.1582 11.2427 11.731 11.2915 11.0718L11.5967 7.15332C11.6333 6.48193 12.0728 6.0791 12.7441 6.0791L17.0776 6.0791C17.4438 6.0791 17.688 6.38428 17.688 6.78711C17.688 7.20215 17.4316 7.49512 17.0776 7.49512L12.915 7.49512L12.6709 10.7178L12.7197 10.7178C13.0981 10.1562 14.0015 9.74121 14.8438 9.74121C16.7847 9.74121 18.0908 11.1572 18.0908 13.0981C18.0908 15.3076 16.626 16.6748 14.4043 16.6748Z" fill="#5ac8f5"/>
 </g>
</svg>
