<?xml version="1.0" encoding="UTF-8"?>
<!--Generator: Apple Native CoreSVG 175.5-->
<!DOCTYPE svg
PUBLIC "-//W3C//DTD SVG 1.1//EN"
       "http://www.w3.org/Graphics/SVG/1.1/DTD/svg11.dtd">
<svg version="1.1" xmlns="http://www.w3.org/2000/svg" xmlns:xlink="http://www.w3.org/1999/xlink" width="17.0776" height="25.1587">
 <g>
  <rect height="25.1587" opacity="0" width="17.0776" x="0" y="0"/>
  <path d="M8.54492 25.1587C13.8062 25.1587 17.0776 22.1313 17.0776 16.8701L17.0776 6.84814C17.0776 4.90723 15.7959 3.67432 13.7573 3.67432L1.96533 3.67432L1.96533 1.00098C1.96533 0.463867 1.52588 0.012207 0.976562 0.012207C0.439453 0.012207 0 0.463867 0 1.00098L0 16.8701C0 22.1313 3.27148 25.1587 8.54492 25.1587ZM8.54492 23.2422C4.52881 23.2422 1.96533 20.9595 1.96533 17.0044L1.96533 5.63965L13.501 5.63965C14.5264 5.63965 15.1123 6.20117 15.1123 7.16553L15.1123 17.0044C15.1123 20.9595 12.561 23.2422 8.54492 23.2422ZM4.26025 15.1001L12.8174 15.1001C13.4888 15.1001 13.8916 14.6973 13.8916 14.0503L13.8916 7.92236C13.8916 7.26318 13.4888 6.86035 12.8174 6.86035L4.26025 6.86035C3.60107 6.86035 3.18604 7.26318 3.18604 7.92236L3.18604 14.0503C3.18604 14.6973 3.60107 15.1001 4.26025 15.1001ZM6.81152 21.1426L10.2051 21.1426C10.6689 21.1426 11.0352 20.7764 11.0352 20.3125C11.0352 19.8486 10.6689 19.4824 10.2051 19.4824L6.81152 19.4824C6.35986 19.4824 5.98145 19.8486 5.98145 20.3125C5.98145 20.7764 6.35986 21.1426 6.81152 21.1426Z" fill="#5ac8f5"/>
 </g>
</svg>
