<?xml version="1.0" encoding="UTF-8"?>
<!--Generator: Apple Native CoreSVG 175.5-->
<!DOCTYPE svg
PUBLIC "-//W3C//DTD SVG 1.1//EN"
       "http://www.w3.org/Graphics/SVG/1.1/DTD/svg11.dtd">
<svg version="1.1" xmlns="http://www.w3.org/2000/svg" xmlns:xlink="http://www.w3.org/1999/xlink" width="29.5532" height="21.106">
 <g>
  <rect height="21.106" opacity="0" width="29.5532" x="0" y="0"/>
  <path d="M0.915527 1.84326L23.6572 1.84326C24.1699 1.84326 24.5972 1.44043 24.5972 0.915527C24.5972 0.402832 24.1699 0 23.6572 0L0.915527 0C0.402832 0 0 0.402832 0 0.915527C0 1.44043 0.402832 1.84326 0.915527 1.84326ZM0.915527 8.23975L8.54492 8.23975C9.06982 8.23975 9.48486 7.83691 9.48486 7.31201C9.48486 6.79932 9.06982 6.39648 8.54492 6.39648L0.915527 6.39648C0.402832 6.39648 0 6.79932 0 7.31201C0 7.83691 0.402832 8.23975 0.915527 8.23975ZM0.915527 14.6362L8.54492 14.6362C9.06982 14.6362 9.48486 14.2212 9.48486 13.7085C9.48486 13.1958 9.06982 12.793 8.54492 12.793L0.915527 12.793C0.402832 12.793 0 13.1958 0 13.7085C0 14.2212 0.402832 14.6362 0.915527 14.6362ZM0.915527 21.0205L8.54492 21.0205C9.06982 21.0205 9.48486 20.6177 9.48486 20.105C9.48486 19.5923 9.06982 19.1772 8.54492 19.1772L0.915527 19.1772C0.402832 19.1772 0 19.5923 0 20.105C0 20.6177 0.402832 21.0205 0.915527 21.0205ZM13.4399 20.8984L27.8931 20.8984C28.9062 20.8984 29.5532 20.2637 29.5532 19.2627L29.5532 8.1543C29.5532 7.17773 28.9062 6.53076 27.8931 6.53076L13.4399 6.53076C12.4268 6.53076 11.7798 7.17773 11.7798 8.1543L11.7798 19.2627C11.7798 20.2637 12.4268 20.8984 13.4399 20.8984ZM13.5376 10.022C13.2935 10.022 13.1348 9.85107 13.1348 9.61914L13.1348 8.27637C13.1348 8.03223 13.2935 7.86133 13.5376 7.86133L14.6851 7.86133C14.9414 7.86133 15.1001 8.03223 15.1001 8.27637L15.1001 9.61914C15.1001 9.85107 14.9414 10.022 14.6851 10.022ZM13.5376 13.1958C13.2935 13.1958 13.1348 13.0249 13.1348 12.8174L13.1348 11.4624C13.1348 11.2183 13.2935 11.0474 13.5376 11.0474L14.6851 11.0474C14.9414 11.0474 15.1001 11.2183 15.1001 11.4624L15.1001 12.8174C15.1001 13.0249 14.9414 13.1958 14.6851 13.1958ZM13.5376 16.3696C13.2935 16.3696 13.1348 16.2109 13.1348 15.9912L13.1348 14.6362C13.1348 14.3921 13.2935 14.2212 13.5376 14.2212L14.6851 14.2212C14.9414 14.2212 15.1001 14.3921 15.1001 14.6362L15.1001 15.9912C15.1001 16.2109 14.9414 16.3696 14.6851 16.3696ZM13.5376 19.5557C13.2935 19.5557 13.1348 19.397 13.1348 19.165L13.1348 17.8101C13.1348 17.5659 13.2935 17.395 13.5376 17.395L14.6851 17.395C14.9414 17.395 15.1001 17.5659 15.1001 17.8101L15.1001 19.165C15.1001 19.397 14.9414 19.5557 14.6851 19.5557ZM26.6479 10.022C26.3916 10.022 26.2329 9.85107 26.2329 9.61914L26.2329 8.27637C26.2329 8.03223 26.3916 7.86133 26.6479 7.86133L27.7954 7.86133C28.0396 7.86133 28.1982 8.03223 28.1982 8.27637L28.1982 9.61914C28.1982 9.85107 28.0396 10.022 27.7954 10.022ZM26.6479 13.1958C26.3916 13.1958 26.2329 13.0249 26.2329 12.8174L26.2329 11.4624C26.2329 11.2183 26.3916 11.0474 26.6479 11.0474L27.7954 11.0474C28.0396 11.0474 28.1982 11.2183 28.1982 11.4624L28.1982 12.8174C28.1982 13.0249 28.0396 13.1958 27.7954 13.1958ZM26.6479 16.3696C26.3916 16.3696 26.2329 16.2109 26.2329 15.9912L26.2329 14.6362C26.2329 14.3921 26.3916 14.2212 26.6479 14.2212L27.7954 14.2212C28.0396 14.2212 28.1982 14.3921 28.1982 14.6362L28.1982 15.9912C28.1982 16.2109 28.0396 16.3696 27.7954 16.3696ZM26.6479 19.5557C26.3916 19.5557 26.2329 19.397 26.2329 19.165L26.2329 17.8101C26.2329 17.5659 26.3916 17.395 26.6479 17.395L27.7954 17.395C28.0396 17.395 28.1982 17.5659 28.1982 17.8101L28.1982 19.165C28.1982 19.397 28.0396 19.5557 27.7954 19.5557ZM16.7969 19.0674C16.5649 19.0674 16.4185 18.9209 16.4185 18.6768L16.4185 15.0391C16.4185 14.7827 16.5649 14.6362 16.7969 14.6362L24.5361 14.6362C24.7681 14.6362 24.9146 14.7827 24.9146 15.0391L24.9146 18.6768C24.9146 18.9209 24.7681 19.0674 24.5361 19.0674ZM16.7969 12.8052C16.5649 12.8052 16.4185 12.6587 16.4185 12.4146L16.4185 8.74023C16.4185 8.49609 16.5649 8.34961 16.7969 8.34961L24.5361 8.34961C24.7681 8.34961 24.9146 8.49609 24.9146 8.74023L24.9146 12.4146C24.9146 12.6587 24.7681 12.8052 24.5361 12.8052Z" fill="#5ac8f5"/>
 </g>
</svg>
