<?xml version="1.0" encoding="UTF-8"?>
<!--Generator: Apple Native CoreSVG 175.5-->
<!DOCTYPE svg
PUBLIC "-//W3C//DTD SVG 1.1//EN"
       "http://www.w3.org/Graphics/SVG/1.1/DTD/svg11.dtd">
<svg version="1.1" xmlns="http://www.w3.org/2000/svg" xmlns:xlink="http://www.w3.org/1999/xlink" width="28.7476" height="25.5005">
 <g>
  <rect height="25.5005" opacity="0" width="28.7476" x="0" y="0"/>
  <path d="M0.964355 15.5884C1.53809 15.5884 1.96533 15.1489 1.96533 14.5996L1.96533 10.9009C1.96533 10.3516 1.53809 9.8999 0.964355 9.8999C0.415039 9.8999 0 10.3516 0 10.9009L0 14.5996C0 15.1489 0.415039 15.5884 0.964355 15.5884ZM5.07812 20.5811C5.63965 20.5811 6.06689 20.1416 6.06689 19.5923L6.06689 5.9082C6.06689 5.35889 5.63965 4.90723 5.07812 4.90723C4.52881 4.90723 4.10156 5.35889 4.10156 5.9082L4.10156 19.5923C4.10156 20.1416 4.52881 20.5811 5.07812 20.5811ZM9.17969 25.5005C9.74121 25.5005 10.1807 25.061 10.1807 24.5117L10.1807 0.98877C10.1807 0.439453 9.74121 0 9.17969 0C8.63037 0 8.21533 0.439453 8.21533 0.98877L8.21533 24.5117C8.21533 25.061 8.63037 25.5005 9.17969 25.5005ZM13.2935 19.0918C13.855 19.0918 14.2822 18.6646 14.2822 18.1152L14.2822 7.38525C14.2822 6.83594 13.855 6.39648 13.2935 6.39648C12.7319 6.39648 12.3169 6.83594 12.3169 7.38525L12.3169 18.1152C12.3169 18.6646 12.7319 19.0918 13.2935 19.0918ZM16.4185 13.6719C16.9678 13.0249 17.627 12.4878 18.3838 12.1216L18.3838 3.68652C18.3838 3.14941 17.9565 2.69775 17.4072 2.69775C16.8335 2.69775 16.4185 3.14941 16.4185 3.68652ZM20.5322 11.4746C21.1914 11.3892 21.8384 11.4014 22.4976 11.5234L22.4976 9.83887C22.4976 9.30176 22.0581 8.8501 21.5088 8.8501C20.9473 8.8501 20.5322 9.30176 20.5322 9.83887ZM21.3135 22.8394C24.0356 22.8394 26.2451 20.6299 26.2451 17.9077C26.2451 15.1978 24.0356 12.9883 21.3135 12.9883C18.6157 12.9883 16.394 15.21 16.394 17.9077C16.394 20.6177 18.6157 22.8394 21.3135 22.8394ZM21.3135 21.2036C19.519 21.2036 18.0298 19.7144 18.0298 17.9077C18.0298 16.1255 19.519 14.6362 21.3135 14.6362C23.1201 14.6362 24.5972 16.1133 24.5972 17.9077C24.5972 19.7144 23.1201 21.2036 21.3135 21.2036ZM27.7588 25.4272C28.3325 25.4272 28.7476 25 28.7476 24.4019C28.7476 24.1333 28.6011 23.877 28.4058 23.6694L24.707 19.9463L23.1689 21.3379L26.9165 25.061C27.1606 25.3052 27.417 25.4272 27.7588 25.4272Z" fill="#5ac8f5"/>
 </g>
</svg>
