<?xml version="1.0" encoding="UTF-8"?>
<!--Generator: Apple Native CoreSVG 175.5-->
<!DOCTYPE svg
PUBLIC "-//W3C//DTD SVG 1.1//EN"
       "http://www.w3.org/Graphics/SVG/1.1/DTD/svg11.dtd">
<svg version="1.1" xmlns="http://www.w3.org/2000/svg" xmlns:xlink="http://www.w3.org/1999/xlink" width="15.7593" height="33.3862">
 <g>
  <rect height="33.3862" opacity="0" width="15.7593" x="0" y="0"/>
  <path d="M7.87354 18.7012C12.3047 18.7012 15.7593 13.9893 15.7593 8.10547C15.7593 3.479 12.5366 0 7.87354 0C3.21045 0 0 3.479 0 8.10547C0 13.9893 3.44238 18.7012 7.87354 18.7012ZM7.87354 16.8701C4.46777 16.8701 1.84326 12.8906 1.84326 8.10547C1.84326 4.61426 4.32129 1.84326 7.87354 1.84326C11.4014 1.84326 13.9282 4.61426 13.9282 8.10547C13.9282 12.8906 11.2671 16.8701 7.87354 16.8701ZM6.16455 17.8589L5.59082 20.0562C5.44434 20.5444 5.7251 21.0693 6.34766 21.0693L9.41162 21.0693C10.0342 21.0693 10.3027 20.5444 10.1685 20.0562L9.57031 17.8589ZM7.72705 33.2153C8.20312 33.2153 8.59375 32.8125 8.59375 32.3364C8.59375 29.6631 11.0229 29.0405 11.0229 26.3306C11.0229 23.5474 8.6792 23.0225 8.70361 20.5933L6.97021 20.5933C6.95801 23.9136 9.30176 24.4263 9.30176 26.3306C9.30176 28.2715 6.86035 28.5645 6.86035 32.3364C6.86035 32.8125 7.25098 33.2153 7.72705 33.2153Z" fill="#5ac8f5"/>
 </g>
</svg>
