<?xml version="1.0" encoding="UTF-8"?>
<!--Generator: Apple Native CoreSVG 175.5-->
<!DOCTYPE svg
PUBLIC "-//W3C//DTD SVG 1.1//EN"
       "http://www.w3.org/Graphics/SVG/1.1/DTD/svg11.dtd">
<svg version="1.1" xmlns="http://www.w3.org/2000/svg" xmlns:xlink="http://www.w3.org/1999/xlink" width="15.0757" height="24.0356">
 <g>
  <rect height="24.0356" opacity="0" width="15.0757" x="0" y="0"/>
  <path d="M7.54395 24.0356C7.83691 24.0356 8.11768 23.9258 8.36182 23.6816L14.7461 17.1631C14.9536 16.9556 15.0757 16.626 15.0757 16.3696C15.0757 15.7104 14.6362 15.2832 14.0015 15.2832C13.6963 15.2832 13.4521 15.3931 13.2568 15.5884L10.4858 18.4448L8.5083 20.7275L8.63037 17.8955L8.63037 6.14014L8.5083 3.30811L10.4858 5.59082L13.2568 8.44727C13.4521 8.64258 13.6963 8.75244 14.0015 8.75244C14.6362 8.75244 15.0757 8.3252 15.0757 7.66602C15.0757 7.40967 14.9536 7.08008 14.7461 6.87256L8.36182 0.354004C8.11768 0.109863 7.83691 0 7.54395 0C7.23877 0 6.95801 0.109863 6.72607 0.354004L0.341797 6.87256C0.134277 7.08008 0 7.40967 0 7.66602C0 8.3252 0.439453 8.75244 1.07422 8.75244C1.3916 8.75244 1.63574 8.64258 1.81885 8.44727L4.60205 5.59082L6.56738 3.30811L6.45752 6.14014L6.45752 17.8955L6.56738 20.7275L4.60205 18.4448L1.81885 15.5884C1.63574 15.3931 1.3916 15.2832 1.07422 15.2832C0.439453 15.2832 0 15.7104 0 16.3696C0 16.626 0.134277 16.9556 0.341797 17.1631L6.72607 23.6816C6.95801 23.9258 7.23877 24.0356 7.54395 24.0356Z" fill="#5ac8f5"/>
 </g>
</svg>
