<?xml version="1.0" encoding="UTF-8"?>
<!--Generator: Apple Native CoreSVG 175.5-->
<!DOCTYPE svg
PUBLIC "-//W3C//DTD SVG 1.1//EN"
       "http://www.w3.org/Graphics/SVG/1.1/DTD/svg11.dtd">
<svg version="1.1" xmlns="http://www.w3.org/2000/svg" xmlns:xlink="http://www.w3.org/1999/xlink" width="24.9023" height="24.9146">
 <g>
  <rect height="24.9146" opacity="0" width="24.9023" x="0" y="0"/>
  <path d="M9.65576 23.6938L10.8521 23.9868C11.9019 20.7397 11.6577 17.0776 9.82666 13.9282C8.00781 10.791 4.98047 8.72803 1.66016 8.02002L1.31836 9.19189C4.30908 9.82666 7.04346 11.6943 8.71582 14.5752C10.3882 17.4683 10.6201 20.7642 9.65576 23.6938ZM4.62646 11.145L5.74951 9.08203C5.896 8.81348 5.81055 8.48389 5.54199 8.34961C5.26123 8.19092 4.91943 8.26416 4.77295 8.54492L3.66211 10.5957C3.50342 10.8765 3.60107 11.2183 3.88184 11.3525C4.15039 11.5112 4.46777 11.4258 4.62646 11.145ZM6.86035 12.7686L8.49609 11.0962C8.72803 10.8643 8.71582 10.5225 8.49609 10.3271C8.27637 10.0952 7.93457 10.0708 7.70264 10.3027L6.06689 11.9751C5.83496 12.1948 5.84717 12.561 6.0791 12.7563C6.29883 12.9761 6.62842 12.9883 6.86035 12.7686ZM8.59375 15.271L10.6323 14.1235C10.9253 13.9648 10.9985 13.623 10.8398 13.3667C10.6812 13.0981 10.3516 12.9883 10.083 13.147L8.04443 14.2822C7.76367 14.4409 7.67822 14.7949 7.84912 15.0513C8.00781 15.3198 8.31299 15.4175 8.59375 15.271ZM9.50928 18.103L11.7798 17.5171C12.0728 17.4316 12.2437 17.1265 12.1704 16.8335C12.085 16.5283 11.8042 16.3452 11.4868 16.4307L9.22852 17.0166C8.92334 17.0898 8.75244 17.395 8.82568 17.688C8.91113 17.9932 9.2041 18.1763 9.50928 18.103ZM9.68018 20.9717L12.0117 21.0327C12.3291 21.0449 12.5732 20.7886 12.5732 20.4834C12.5854 20.1904 12.3413 19.9341 12.0361 19.9219L9.70459 19.8608C9.38721 19.8486 9.14307 20.105 9.13086 20.4102C9.13086 20.7153 9.375 20.9595 9.68018 20.9717ZM23.2056 16.8579L23.5352 15.6616C20.52 15.0391 17.7856 13.1836 16.1133 10.3027C14.4531 7.39746 14.209 4.08936 15.1733 1.17188L13.9771 0.90332C12.9272 4.13818 13.1836 7.77588 15.0024 10.9375C16.8213 14.0991 19.8608 16.1255 23.2056 16.8579ZM15.1733 5.0415C15.4907 5.05371 15.7227 4.82178 15.7227 4.50439C15.7349 4.19922 15.4907 3.94287 15.1855 3.93066L12.854 3.85742C12.5366 3.86963 12.2925 4.11377 12.2925 4.43115C12.2803 4.73633 12.5122 4.98047 12.8296 4.98047ZM15.4663 7.80029C15.7715 7.71484 15.9424 7.42188 15.8447 7.12891C15.7837 6.82373 15.4907 6.64062 15.1855 6.72607L12.915 7.2998C12.5977 7.38525 12.4512 7.69043 12.5488 7.9834C12.5977 8.28857 12.8906 8.45947 13.1958 8.37402ZM16.7847 10.5591C17.0654 10.4004 17.1387 10.0952 16.9922 9.80225C16.8457 9.5459 16.5161 9.42383 16.2476 9.59473L14.1968 10.7544C13.9282 10.9009 13.855 11.2427 14.0137 11.5112C14.1357 11.7676 14.4775 11.8896 14.7461 11.7188ZM18.7988 12.7563C19.0308 12.5122 19.0186 12.1704 18.7866 11.9507C18.5791 11.7432 18.2251 11.731 18.0054 11.9629L16.3574 13.6353C16.1377 13.8428 16.1499 14.1968 16.3818 14.4043C16.5894 14.6118 16.9312 14.624 17.1509 14.4043ZM21.2036 14.3188C21.3623 14.0381 21.2524 13.7207 20.9839 13.5498C20.7153 13.4155 20.3735 13.501 20.2393 13.7695L19.1162 15.8203C18.9575 16.0889 19.0552 16.4307 19.3237 16.5771C19.5801 16.7236 19.9463 16.6382 20.0806 16.3574ZM12.4512 24.9023C19.2627 24.9023 24.9023 19.2505 24.9023 12.4512C24.9023 5.63965 19.2505 0 12.439 0C5.63965 0 0 5.63965 0 12.4512C0 19.2505 5.65186 24.9023 12.4512 24.9023ZM12.4512 23.2422C6.55518 23.2422 1.66016 18.3472 1.66016 12.4512C1.66016 6.55518 6.54297 1.66016 12.439 1.66016C18.335 1.66016 23.2422 6.55518 23.2422 12.4512C23.2422 18.3472 18.3472 23.2422 12.4512 23.2422Z" fill="#5ac8f5"/>
 </g>
</svg>
