<?xml version="1.0" encoding="UTF-8"?>
<!--Generator: Apple Native CoreSVG 175.5-->
<!DOCTYPE svg
PUBLIC "-//W3C//DTD SVG 1.1//EN"
       "http://www.w3.org/Graphics/SVG/1.1/DTD/svg11.dtd">
<svg version="1.1" xmlns="http://www.w3.org/2000/svg" xmlns:xlink="http://www.w3.org/1999/xlink" width="28.7842" height="28.5278">
 <g>
  <rect height="28.5278" opacity="0" width="28.7842" x="0" y="0"/>
  <path d="M3.83301 16.7358L24.9512 16.7358C27.5146 16.7358 28.7842 15.4907 28.7842 13.1226L28.7842 8.17871C28.7842 7.06787 28.7109 6.31104 28.0884 5.7251L23.7671 1.63574C22.4365 0.390625 21.4844 0 19.6777 0L9.10645 0C7.31201 0 6.34766 0.390625 5.0293 1.63574L0.695801 5.7251C0.0732422 6.31104 0 7.06787 0 8.17871L0 13.1226C0 15.4907 1.28174 16.7358 3.83301 16.7358ZM14.3921 11.2549C12.6709 11.2549 11.5601 9.76562 11.5601 8.34961L11.5601 8.30078C11.5601 7.78809 11.2549 7.31201 10.6201 7.31201L2.86865 7.31201C2.17285 7.31201 1.94092 6.99463 2.50244 6.46973L6.53076 2.67334C7.27539 1.97754 7.76367 1.70898 8.92334 1.70898L19.8608 1.70898C21.0327 1.70898 21.5088 1.97754 22.2534 2.67334L26.2817 6.46973C26.8677 7.01904 26.5991 7.31201 25.9277 7.31201L18.1641 7.31201C17.5293 7.31201 17.2363 7.78809 17.2363 8.30078L17.2363 8.34961C17.2363 9.76562 16.1255 11.2549 14.3921 11.2549ZM3.83301 28.0884L24.9512 28.0884C27.5024 28.0884 28.7842 26.8188 28.7842 24.3042L28.7842 19.812C28.7842 19.1162 28.3325 18.457 27.6001 18.457L18.1641 18.457C17.5293 18.457 17.2363 18.9331 17.2363 19.4336L17.2363 19.4824C17.2363 20.8984 16.1255 22.3999 14.3921 22.3999C12.6709 22.3999 11.5601 20.8984 11.5601 19.4824L11.5601 19.4336C11.5601 18.9331 11.2549 18.457 10.6201 18.457L1.18408 18.457C0.45166 18.457 0 19.1162 0 19.812L0 24.3042C0 26.8188 1.28174 28.0884 3.83301 28.0884Z" fill="#5ac8f5"/>
 </g>
</svg>
