<?xml version="1.0" encoding="UTF-8"?>
<!--Generator: Apple Native CoreSVG 175.5-->
<!DOCTYPE svg
PUBLIC "-//W3C//DTD SVG 1.1//EN"
       "http://www.w3.org/Graphics/SVG/1.1/DTD/svg11.dtd">
<svg version="1.1" xmlns="http://www.w3.org/2000/svg" xmlns:xlink="http://www.w3.org/1999/xlink" width="24.9023" height="24.9146">
 <g>
  <rect height="24.9146" opacity="0" width="24.9023" x="0" y="0"/>
  <path d="M12.4512 24.9146C19.2627 24.9146 24.9023 19.2749 24.9023 12.4634C24.9023 5.66406 19.2505 0.012207 12.439 0.012207C5.63965 0.012207 0 5.66406 0 12.4634C0 19.2749 5.65186 24.9146 12.4512 24.9146Z" fill="#5ac8f5" fill-opacity="0.25"/>
  <path d="M12.439 16.4795C12.207 16.4795 11.9873 16.3818 11.8042 16.1865L7.55615 11.8408C7.39746 11.6699 7.2998 11.4136 7.2998 11.2183C7.2998 10.73 7.62939 10.3882 8.10547 10.3882C8.37402 10.3882 8.56934 10.4614 8.72803 10.6323L9.43604 11.4136L11.731 13.9893L11.5845 11.6821L11.5845 5.9082C11.5845 5.41992 11.9263 5.06592 12.439 5.06592C12.915 5.06592 13.2812 5.41992 13.2812 5.9082L13.2812 11.6821L13.147 13.9771L15.4053 11.4258L16.1743 10.6323C16.3452 10.4614 16.5649 10.3882 16.8091 10.3882C17.2729 10.3882 17.6025 10.7544 17.6025 11.2183C17.6025 11.4502 17.5293 11.6455 17.334 11.853L13.0737 16.1865C12.9028 16.3696 12.6709 16.4795 12.439 16.4795ZM7.72705 19.1284C7.23877 19.1284 6.88477 18.7744 6.88477 18.2739C6.88477 17.7979 7.23877 17.4316 7.72705 17.4316L17.1875 17.4316C17.6758 17.4316 18.0176 17.7979 18.0176 18.2739C18.0176 18.7744 17.6758 19.1284 17.1875 19.1284Z" fill="#5ac8f5"/>
 </g>
</svg>
