<?xml version="1.0" encoding="UTF-8"?>
<!--Generator: Apple Native CoreSVG 175.5-->
<!DOCTYPE svg
PUBLIC "-//W3C//DTD SVG 1.1//EN"
       "http://www.w3.org/Graphics/SVG/1.1/DTD/svg11.dtd">
<svg version="1.1" xmlns="http://www.w3.org/2000/svg" xmlns:xlink="http://www.w3.org/1999/xlink" width="29.1748" height="19.4946">
 <g>
  <rect height="19.4946" opacity="0" width="29.1748" x="0" y="0"/>
  <path d="M5.98145 19.3237L21.875 19.3237C25.9888 19.3237 29.1748 16.2109 29.1748 12.2314C29.1748 8.21533 25.9155 5.18799 21.4844 5.18799C19.8608 1.96533 16.8823 0 13.2568 0C8.52051 0 4.5166 3.67432 4.08936 8.54492C1.64795 9.24072 0 11.2915 0 13.8916C0 16.8945 2.18506 19.3237 5.98145 19.3237ZM5.95703 17.3584C3.45459 17.3584 1.96533 16.0034 1.96533 13.9526C1.96533 12.1948 3.08838 10.9253 5.06592 10.4004C5.74951 10.2295 6.00586 9.91211 6.05469 9.2041C6.34766 5.06592 9.44824 1.96533 13.2568 1.96533C16.1987 1.96533 18.4692 3.60107 19.8364 6.40869C20.1294 7.00684 20.4834 7.21436 21.228 7.21436C25.0488 7.21436 27.1973 9.52148 27.1973 12.2803C27.1973 15.1245 24.9268 17.3584 22.0093 17.3584Z" fill="#5ac8f5"/>
 </g>
</svg>
