<?xml version="1.0" encoding="UTF-8"?>
<!--Generator: Apple Native CoreSVG 175.5-->
<!DOCTYPE svg
PUBLIC "-//W3C//DTD SVG 1.1//EN"
       "http://www.w3.org/Graphics/SVG/1.1/DTD/svg11.dtd">
<svg version="1.1" xmlns="http://www.w3.org/2000/svg" xmlns:xlink="http://www.w3.org/1999/xlink" width="25.1465" height="21.5454">
 <g>
  <rect height="21.5454" opacity="0" width="25.1465" x="0" y="0"/>
  <path d="M7.60498 21.5332L17.5415 21.5332C22.7051 21.5332 25.1465 19.0796 25.1465 13.9282L25.1465 8.3374L19.0063 8.3374C18.7744 8.91113 18.2251 9.26514 17.5415 9.26514L7.60498 9.26514C6.93359 9.26514 6.37207 8.91113 6.15234 8.3374L0 8.3374L0 13.9282C0 19.0796 2.44141 21.5332 7.60498 21.5332ZM12.5732 14.1602C11.9385 14.1724 11.4014 13.6353 11.4014 13.0127C11.4014 12.3657 11.9385 11.8408 12.5732 11.8408C13.208 11.8408 13.7451 12.3657 13.7451 13.0127C13.7451 13.5986 13.208 14.1479 12.5732 14.1602ZM0 7.09229L6.12793 7.09229C6.33545 6.50635 6.89697 6.15234 7.56836 6.15234L17.5293 6.15234C18.2007 6.15234 18.7622 6.50635 18.9819 7.09229L25.0977 7.09229L25.0977 6.66504C25.0977 2.16064 22.3633 0 17.4927 0L7.60498 0C2.74658 0 0 2.16064 0 6.66504Z" fill="#5ac8f5"/>
 </g>
</svg>
