<?xml version="1.0" encoding="UTF-8"?>
<!--Generator: Apple Native CoreSVG 175.5-->
<!DOCTYPE svg
PUBLIC "-//W3C//DTD SVG 1.1//EN"
       "http://www.w3.org/Graphics/SVG/1.1/DTD/svg11.dtd">
<svg version="1.1" xmlns="http://www.w3.org/2000/svg" xmlns:xlink="http://www.w3.org/1999/xlink" width="22.7293" height="29.1138">
 <g>
  <rect height="29.1138" opacity="0" width="22.7293" x="0" y="0"/>
  <path d="M6.39648 28.1006C9.91211 28.1006 12.7563 25.2441 12.7563 21.7285C12.7563 19.873 11.9995 18.2495 10.5347 16.9312C10.2783 16.6992 10.2173 16.5527 10.2173 16.1865L10.2295 5.15137C10.2295 2.67334 8.66699 0.976562 6.39648 0.976562C4.10156 0.976562 2.52686 2.67334 2.52686 5.15137L2.53906 16.1865C2.53906 16.5527 2.49023 16.6992 2.22168 16.9312C0.769043 18.2495 0 19.873 0 21.7285C0 25.2441 2.85645 28.1006 6.39648 28.1006ZM6.39648 26.3306C3.84521 26.3306 1.79443 24.2554 1.79443 21.7285C1.79443 20.2026 2.51465 18.8232 3.80859 17.9565C4.18701 17.7002 4.3335 17.4683 4.3335 16.9678L4.3335 5.22461C4.3335 3.75977 5.17578 2.771 6.39648 2.771C7.59277 2.771 8.43506 3.75977 8.43506 5.22461L8.43506 16.9678C8.43506 17.4683 8.58154 17.7002 8.95996 17.9565C10.2539 18.8232 10.9741 20.2026 10.9741 21.7285C10.9741 24.2554 8.91113 26.3306 6.39648 26.3306ZM6.38428 24.6826C8.02002 24.6826 9.33838 23.3643 9.33838 21.7163C9.33838 20.5688 8.69141 19.6289 7.75146 19.1162C7.36084 18.9087 7.22656 18.7622 7.22656 18.1641L7.22656 15.7227C7.22656 15.1367 6.84814 14.7583 6.38428 14.7583C5.9082 14.7583 5.54199 15.1367 5.54199 15.7227L5.54199 18.1641C5.54199 18.7622 5.40771 18.9087 5.01709 19.1162C4.07715 19.6289 3.43018 20.5688 3.43018 21.7163C3.43018 23.3643 4.74854 24.6826 6.38428 24.6826ZM22.3145 13.0371L20.6543 12.085L22.1313 11.2305C22.4487 11.0474 22.5708 10.6812 22.3999 10.376C22.2168 10.0464 21.8384 9.99756 21.4966 10.1929L19.4214 11.377L15.7837 9.31396L19.458 7.23877L21.5332 8.43506C21.8628 8.63037 22.229 8.56934 22.4365 8.25195C22.5952 7.93457 22.4731 7.56836 22.168 7.39746L20.6909 6.54297L22.3267 5.61523C22.7051 5.39551 22.8394 5.01709 22.6318 4.66309C22.4487 4.32129 22.0337 4.24805 21.7041 4.44336L20.0439 5.40771L20.0439 3.72314C20.0439 3.34473 19.7876 3.06396 19.4458 3.06396C19.0552 3.06396 18.8232 3.34473 18.8232 3.75977L18.811 6.12793L15.1733 8.26416L15.21 4.01611L17.2729 2.81982C17.6147 2.6123 17.749 2.27051 17.5659 1.94092C17.3828 1.63574 17.0166 1.5625 16.6992 1.74561L15.2222 2.6001L15.2344 0.744629C15.2344 0.32959 14.978 0 14.5752 0C14.1602 0 13.916 0.32959 13.916 0.744629L13.9282 2.6001L12.4512 1.74561C12.1338 1.5625 11.7554 1.63574 11.5845 1.94092C11.4014 2.27051 11.5356 2.6123 11.8774 2.81982L13.9404 4.01611L13.9771 8.26416L11.6577 6.89697L11.6577 8.3374L13.3545 9.31396L11.6577 10.2783L11.6577 11.731L13.9771 10.3638L13.9404 14.5874L12.0728 15.6616C12.2192 15.9912 12.5366 16.394 12.8418 16.626L13.9282 16.0034L13.916 17.8833C13.916 18.3105 14.1602 18.6279 14.5752 18.6279C14.978 18.6279 15.2344 18.2983 15.2344 17.8833L15.2222 16.0156L16.687 16.8579C17.0044 17.041 17.3706 16.9678 17.5537 16.6626C17.749 16.333 17.6025 15.9912 17.2607 15.7837L15.21 14.5874L15.1733 10.3638L18.7866 12.4878L18.7866 14.8682C18.7866 15.2466 19.0308 15.5396 19.4092 15.5518C19.751 15.5518 20.0073 15.2466 20.0073 14.9048L20.0195 13.208L21.6553 14.1724C22.0215 14.3799 22.4243 14.3311 22.6318 13.9771C22.8394 13.623 22.6807 13.2324 22.3145 13.0371Z" fill="#5ac8f5"/>
 </g>
</svg>
