<?xml version="1.0" encoding="UTF-8"?>
<!--Generator: Apple Native CoreSVG 175.5-->
<!DOCTYPE svg
PUBLIC "-//W3C//DTD SVG 1.1//EN"
       "http://www.w3.org/Graphics/SVG/1.1/DTD/svg11.dtd">
<svg version="1.1" xmlns="http://www.w3.org/2000/svg" xmlns:xlink="http://www.w3.org/1999/xlink" width="26.3184" height="22.3999">
 <g>
  <rect height="22.3999" opacity="0" width="26.3184" x="0" y="0"/>
  <path d="M14.3921 22.3877C14.9902 22.3877 15.4785 22.1436 16.0645 21.5942L25.6958 12.5C26.1597 12.0605 26.3184 11.5967 26.3184 11.1938C26.3184 10.7788 26.1719 10.3271 25.6958 9.87549L16.0645 0.866699C15.4175 0.256348 15.0146 0 14.4165 0C13.562 0 12.9517 0.671387 12.9517 1.48926L12.9517 6.10352L12.5977 6.10352C3.8208 6.10352 0 11.731 0 20.752C0 21.8018 0.598145 22.3877 1.25732 22.3877C1.77002 22.3877 2.33154 22.2656 2.75879 21.4844C4.88281 17.4927 7.87354 16.2964 12.5977 16.2964L12.9517 16.2964L12.9517 20.9595C12.9517 21.7773 13.562 22.3877 14.3921 22.3877Z" fill="#5ac8f5"/>
 </g>
</svg>
