<?xml version="1.0" encoding="UTF-8"?>
<!--Generator: Apple Native CoreSVG 175.5-->
<!DOCTYPE svg
PUBLIC "-//W3C//DTD SVG 1.1//EN"
       "http://www.w3.org/Graphics/SVG/1.1/DTD/svg11.dtd">
<svg version="1.1" xmlns="http://www.w3.org/2000/svg" xmlns:xlink="http://www.w3.org/1999/xlink" width="29.4434" height="27.4536">
 <g>
  <rect height="27.4536" opacity="0" width="29.4434" x="0" y="0"/>
  <path d="M14.7217 23.5962C19.6167 23.5962 23.5962 19.6411 23.5962 14.7095C23.5962 9.80225 19.6167 5.84717 14.7217 5.84717C9.82666 5.84717 5.83496 9.80225 5.83496 14.7095C5.83496 19.6289 9.82666 23.5962 14.7217 23.5962ZM14.7217 7.82471C18.5303 7.82471 21.6187 10.9131 21.6187 14.7095C21.6187 18.5181 18.5303 21.6064 14.7217 21.6064C10.9131 21.6064 7.8125 18.5181 7.8125 14.7095C7.8125 10.9131 10.9131 7.82471 14.7217 7.82471ZM19.1162 20.2271L20.3857 18.9209L15.3198 13.8672C14.978 13.5254 14.3799 13.5254 14.0503 13.8672C13.6841 14.2578 13.6841 14.7949 14.0503 15.1611ZM24.0845 25.5249C24.9146 25.5249 25.5981 24.8657 25.5981 24.0112C25.5981 23.1812 24.9268 22.4976 24.0845 22.4976C23.2422 22.4976 22.5586 23.1689 22.5586 24.0112C22.5586 24.8535 23.23 25.5249 24.0845 25.5249ZM27.9175 16.2354C28.7476 16.2354 29.4434 15.5518 29.4434 14.7095C29.4434 13.8794 28.7598 13.1958 27.9175 13.1958C27.0874 13.1958 26.3916 13.855 26.3916 14.7095C26.3916 15.5396 27.063 16.2354 27.9175 16.2354ZM24.0845 6.9458C24.9146 6.9458 25.5981 6.27441 25.5981 5.43213C25.5981 4.58984 24.9268 3.91846 24.0845 3.91846C23.2422 3.91846 22.5586 4.57764 22.5586 5.43213C22.5586 6.26221 23.23 6.9458 24.0845 6.9458ZM14.7217 3.03955C15.5518 3.03955 16.2354 2.36816 16.2354 1.51367C16.2354 0.683594 15.564 0 14.7217 0C13.8794 0 13.208 0.671387 13.208 1.51367C13.208 2.35596 13.8672 3.03955 14.7217 3.03955ZM5.37109 6.92139C6.20117 6.92139 6.88477 6.25 6.88477 5.40771C6.88477 4.56543 6.21338 3.89404 5.37109 3.89404C4.54102 3.89404 3.85742 4.55322 3.85742 5.40771C3.85742 6.23779 4.52881 6.92139 5.37109 6.92139ZM1.52588 16.2354C2.34375 16.2354 3.03955 15.5518 3.03955 14.7095C3.03955 13.8794 2.36816 13.1958 1.52588 13.1958C0.695801 13.1958 0 13.855 0 14.7095C0 15.5396 0.683594 16.2354 1.52588 16.2354ZM5.3833 25.5371C6.21338 25.5371 6.89697 24.8779 6.89697 24.0234C6.89697 23.1934 6.22559 22.5098 5.3833 22.5098C4.55322 22.5098 3.86963 23.1812 3.86963 24.0234C3.86963 24.8657 4.54102 25.5371 5.3833 25.5371Z" fill="#5ac8f5"/>
 </g>
</svg>
