<?xml version="1.0" encoding="UTF-8"?>
<!--Generator: Apple Native CoreSVG 175.5-->
<!DOCTYPE svg
PUBLIC "-//W3C//DTD SVG 1.1//EN"
       "http://www.w3.org/Graphics/SVG/1.1/DTD/svg11.dtd">
<svg version="1.1" xmlns="http://www.w3.org/2000/svg" xmlns:xlink="http://www.w3.org/1999/xlink" width="29.8462" height="25.9155">
 <g>
  <rect height="25.9155" opacity="0" width="29.8462" x="0" y="0"/>
  <path d="M0.976562 25.9033C1.52588 25.9033 1.96533 25.4639 1.96533 24.9268L1.96533 2.6123C1.96533 2.22168 2.22168 1.96533 2.58789 1.96533L27.2583 1.96533C27.6245 1.96533 27.8809 2.22168 27.8809 2.6123L27.8809 24.9268C27.8809 25.4639 28.3203 25.9033 28.8574 25.9033C29.4067 25.9033 29.8462 25.4639 29.8462 24.9268L29.8462 2.49023C29.8462 1.00098 28.8208 0 27.2827 0L2.55127 0C1.02539 0 0 1.00098 0 2.49023L0 24.9268C0 25.4639 0.439453 25.9033 0.976562 25.9033ZM3.80859 25.4761L26.0376 25.4761C26.2695 25.4761 26.4526 25.2808 26.4526 25.061L26.4526 3.79639C26.4526 3.56445 26.2695 3.38135 26.0376 3.38135L3.80859 3.38135C3.57666 3.38135 3.39355 3.56445 3.39355 3.79639L3.39355 25.061C3.39355 25.2808 3.57666 25.4761 3.80859 25.4761ZM12.5366 23.4131C12.1826 23.4131 11.9507 23.1689 11.9507 22.8271C11.9507 22.4731 12.1826 22.229 12.5366 22.229L17.3096 22.229C17.6636 22.229 17.8955 22.4731 17.8955 22.8271C17.8955 23.1689 17.6636 23.4131 17.3096 23.4131ZM5.48096 10.1074C5.23682 10.1074 5.05371 9.92432 5.05371 9.68018L5.05371 5.35889C5.05371 5.11475 5.23682 4.91943 5.48096 4.91943L10.2051 4.91943C10.4492 4.91943 10.6323 5.11475 10.6323 5.35889L10.6323 9.68018C10.6323 9.92432 10.4492 10.1074 10.2051 10.1074ZM12.5854 10.1074C12.3413 10.1074 12.1582 9.92432 12.1582 9.68018L12.1582 5.35889C12.1582 5.11475 12.3413 4.91943 12.5854 4.91943L17.2974 4.91943C17.5415 4.91943 17.7368 5.11475 17.7368 5.35889L17.7368 9.68018C17.7368 9.92432 17.5415 10.1074 17.2974 10.1074ZM19.6777 10.1074C19.4336 10.1074 19.2383 9.92432 19.2383 9.68018L19.2383 5.35889C19.2383 5.11475 19.4336 4.91943 19.6777 4.91943L24.3652 4.91943C24.6094 4.91943 24.7925 5.11475 24.7925 5.35889L24.7925 9.68018C24.7925 9.92432 24.6094 10.1074 24.4629 10.1074Z" fill="#5ac8f5"/>
 </g>
</svg>
