<?xml version="1.0" encoding="UTF-8"?>
<!--Generator: Apple Native CoreSVG 175.5-->
<!DOCTYPE svg
PUBLIC "-//W3C//DTD SVG 1.1//EN"
       "http://www.w3.org/Graphics/SVG/1.1/DTD/svg11.dtd">
<svg version="1.1" xmlns="http://www.w3.org/2000/svg" xmlns:xlink="http://www.w3.org/1999/xlink" width="22.4731" height="22.4976">
 <g>
  <rect height="22.4976" opacity="0" width="22.4731" x="0" y="0"/>
  <path d="M9.85107 11.2549L0.402832 1.80664C0.134277 2.34375 0 3.01514 0 3.80859L0 18.7134C0 19.5068 0.134277 20.166 0.402832 20.7153ZM11.2427 9.87549L20.6909 0.427246C20.1416 0.146484 19.458 0.0244141 18.6401 0.0244141L3.83301 0.0244141C3.01514 0.0244141 2.34375 0.146484 1.78223 0.415039ZM12.6221 11.2549L22.0703 20.7153C22.3511 20.166 22.4731 19.5068 22.4731 18.7134L22.4731 3.80859C22.4731 3.01514 22.3511 2.34375 22.0703 1.80664ZM11.2427 12.6465L1.78223 22.0947C2.34375 22.3633 3.01514 22.4976 3.83301 22.4976L18.6401 22.4976C19.458 22.4976 20.1416 22.3633 20.6909 22.0947Z" fill="#5ac8f5"/>
 </g>
</svg>
