<?xml version="1.0" encoding="UTF-8"?>
<!--Generator: Apple Native CoreSVG 175.5-->
<!DOCTYPE svg
PUBLIC "-//W3C//DTD SVG 1.1//EN"
       "http://www.w3.org/Graphics/SVG/1.1/DTD/svg11.dtd">
<svg version="1.1" xmlns="http://www.w3.org/2000/svg" xmlns:xlink="http://www.w3.org/1999/xlink" width="26.5381" height="31.897">
 <g>
  <rect height="31.897" opacity="0" width="26.5381" x="0" y="0"/>
  <path d="M15.3442 31.7993C20.2515 31.7993 23.1812 30.0659 23.1812 27.1851L23.1812 20.4834C25.293 18.6768 26.5381 15.7349 26.5381 12.4878C26.5381 4.98047 21.6675 0 14.3799 0C7.12891 0 2.29492 4.88281 2.29492 12.207C2.29492 12.6587 2.30713 13.0249 2.34375 13.3667L0.646973 16.4062C0.20752 17.1997 0 17.9443 0 18.6401C0 19.9951 0.854492 21.0815 2.29492 21.3989L2.29492 24.1577C2.29492 26.4648 3.89404 27.5757 5.99365 27.356L8.48389 27.0874L7.61719 26.1719L7.61719 27.1851C7.61719 30.0659 10.498 31.7993 15.3442 31.7993ZM15.3442 29.834C11.6821 29.834 9.47266 28.6743 9.47266 26.7944L9.47266 25.2441C9.47266 25.0732 9.375 25 9.2041 25.0122L5.7373 25.4028C4.79736 25.5005 4.26025 25.0854 4.26025 24.0112L4.26025 19.9585C4.26025 19.8364 4.1626 19.751 4.01611 19.751L3.36914 19.751C2.49023 19.751 1.98975 19.3115 1.98975 18.6035C1.98975 18.2495 2.11182 17.8223 2.35596 17.3828L4.37012 13.7695C4.28467 13.2324 4.24805 12.6953 4.24805 12.1826C4.24805 6.04248 8.28857 1.96533 14.3799 1.96533C20.4834 1.96533 24.5728 6.16455 24.5728 12.4878C24.5728 15.5273 23.3032 18.1641 21.2158 19.5068L21.2158 26.7944C21.2158 28.6743 19.0063 29.834 15.3442 29.834Z" fill="#5ac8f5" fill-opacity="0.5"/>
  <path d="M6.25 10.1318C6.25 12.4878 7.88574 14.0747 10.3027 14.0747C12.6831 14.0747 14.3066 12.6587 14.3066 10.5347C14.3066 9.65576 14.0015 8.91113 13.4399 8.44727C13.1958 8.23975 13.0249 8.1665 12.793 8.1665C12.439 8.1665 12.1704 8.39844 12.1704 8.74023C12.1704 9.11865 12.4146 9.24072 12.6587 9.47266C12.9028 9.7168 13.0493 10.0708 13.0493 10.5103C13.0493 11.8896 11.9629 12.8052 10.3149 12.8052C8.63037 12.8052 7.51953 11.7432 7.51953 10.1318C7.51953 9.15527 8.03223 8.25195 8.87451 7.77588L8.23975 6.64062C7.03125 7.34863 6.25 8.70361 6.25 10.1318ZM7.93457 6.86035C7.93457 8.37402 9.00879 9.39941 10.5835 9.39941C10.9131 9.39941 11.2183 9.10645 11.2183 8.76465C11.2183 8.42285 10.9253 8.12988 10.5835 8.12988C9.75342 8.12988 9.2041 7.62939 9.2041 6.86035C9.2041 6.05469 9.87549 5.46875 10.8032 5.46875C11.3037 5.46875 11.8164 5.65186 12.2314 5.96924L12.9761 4.93164C12.3413 4.45557 11.5967 4.19922 10.8154 4.19922C9.17969 4.19922 7.93457 5.33447 7.93457 6.86035ZM11.2793 6.68945C11.2671 7.06787 11.5356 7.36084 11.9141 7.36084C12.2803 7.36084 12.5244 7.1167 12.5366 6.73828C12.5977 5.59082 13.4155 4.79736 14.5508 4.78516C15.2222 4.78516 15.8203 5.13916 16.0522 5.70068C16.1499 5.88379 16.3452 5.88379 16.626 5.81055C16.7725 5.76172 16.9434 5.74951 17.1143 5.74951C18.2617 5.74951 19.1528 6.64062 19.1528 7.82471C19.1528 10.6934 14.9658 10.2051 14.9658 13.2568C14.9658 14.6362 16.0767 15.6128 17.6392 15.6128C17.749 15.6128 17.8589 15.6128 17.9932 15.6128C18.2007 16.8579 19.0063 17.7124 20.0073 17.7124C21.4478 17.7124 22.4731 16.0645 22.4731 13.7817C22.4731 12.8906 22.4121 12.3047 22.3633 11.7432L21.0693 12.1094C21.1304 12.6587 21.2036 13.1348 21.2036 13.7573C21.2036 15.2588 20.6665 16.4429 20.0073 16.4429C19.4336 16.4429 19.0552 15.7349 19.0552 14.7095C19.0552 14.5386 18.9331 14.4531 18.7744 14.4531C18.5791 14.4531 18.3472 14.4653 18.2007 14.4653C16.8945 14.4653 16.2476 14.0503 16.2476 13.2446C16.2476 11.0229 20.4346 11.6577 20.4346 7.82471C20.4346 5.92041 19.043 4.46777 17.2363 4.46777C17.1021 4.46777 16.9434 4.47998 16.7847 4.5166C16.2476 3.89404 15.4297 3.52783 14.5508 3.52783C12.7075 3.52783 11.3525 4.82178 11.2793 6.68945ZM18.7012 12.8418C18.7012 13.1836 18.9575 13.4521 19.3115 13.4888C21.5332 13.623 23.0469 12.2925 23.0469 10.1929C23.0469 8.39844 21.7407 7.04346 19.812 6.86035L19.6167 8.14209C20.9106 8.08105 21.7773 8.91113 21.7773 10.1929C21.7773 11.5112 20.813 12.3291 19.3359 12.2192C19.0063 12.1948 18.7012 12.5 18.7012 12.8418ZM15.6494 13.5376C15.271 13.6841 14.7827 13.7695 14.3311 13.7695C13.1958 13.7695 12.1216 13.2812 11.8286 12.6221L10.7666 13.501C11.4746 14.4653 12.7686 15.0391 14.2334 15.0391C14.8315 15.0391 15.4785 14.9414 16.0645 14.7461ZM13.3667 9.14307L13.7817 10.3638C15.4419 10.083 16.3208 9.08203 16.3208 7.43408C16.3208 7.10449 16.0156 6.79932 15.6738 6.79932C15.332 6.79932 15.0513 7.09229 15.0513 7.44629C15.0513 8.52051 14.5386 9.021 13.3667 9.14307Z" fill="#5ac8f5"/>
 </g>
</svg>
