<?xml version="1.0" encoding="UTF-8"?>
<!--Generator: Apple Native CoreSVG 175.5-->
<!DOCTYPE svg
PUBLIC "-//W3C//DTD SVG 1.1//EN"
       "http://www.w3.org/Graphics/SVG/1.1/DTD/svg11.dtd">
<svg version="1.1" xmlns="http://www.w3.org/2000/svg" xmlns:xlink="http://www.w3.org/1999/xlink" width="22.4731" height="18.4204">
 <g>
  <rect height="18.4204" opacity="0" width="22.4731" x="0" y="0"/>
  <path d="M0 17.4316C0 17.9688 0.439453 18.4204 0.976562 18.4204C1.52588 18.4204 1.96533 17.9688 1.96533 17.4316L1.96533 1.00098C1.96533 0.463867 1.52588 0.0244141 0.976562 0.0244141C0.439453 0.0244141 0 0.463867 0 1.00098ZM20.5078 17.4316C20.5078 17.9688 20.9595 18.4204 21.4966 18.4204C22.0337 18.4204 22.4731 17.9688 22.4731 17.4316L22.4731 1.00098C22.4731 0.463867 22.0337 0.0244141 21.4966 0.0244141C20.9595 0.0244141 20.5078 0.463867 20.5078 1.00098ZM11.8652 14.7583C12.5 14.7583 12.854 14.3433 12.854 13.6597L12.854 4.73633C12.854 4.02832 12.4756 3.6377 11.8164 3.6377C11.377 3.6377 11.0474 3.75977 10.5347 4.11377L8.3374 5.60303C8.06885 5.79834 7.95898 5.98145 7.95898 6.28662C7.95898 6.66504 8.26416 7.01904 8.65479 7.01904C8.83789 7.01904 8.95996 6.99463 9.24072 6.79932L10.8276 5.76172L10.9131 5.76172L10.9131 13.6597C10.9131 14.3433 11.2671 14.7583 11.8652 14.7583Z" fill="#5ac8f5"/>
 </g>
</svg>
