<?xml version="1.0" encoding="UTF-8"?>
<!--Generator: Apple Native CoreSVG 175.5-->
<!DOCTYPE svg
PUBLIC "-//W3C//DTD SVG 1.1//EN"
       "http://www.w3.org/Graphics/SVG/1.1/DTD/svg11.dtd">
<svg version="1.1" xmlns="http://www.w3.org/2000/svg" xmlns:xlink="http://www.w3.org/1999/xlink" width="22.4731" height="22.4976">
 <g>
  <rect height="22.4976" opacity="0" width="22.4731" x="0" y="0"/>
  <path d="M3.83301 22.4976L18.6401 22.4976C21.2036 22.4976 22.4731 21.228 22.4731 18.7134L22.4731 3.80859C22.4731 1.29395 21.2036 0.0244141 18.6401 0.0244141L3.83301 0.0244141C1.28174 0.0244141 0 1.28174 0 3.80859L0 18.7134C0 21.2402 1.28174 22.4976 3.83301 22.4976Z" fill="#5ac8f5" fill-opacity="0.25"/>
  <path d="M6.14014 11.2549C6.14014 7.56836 8.1665 5.2002 11.2549 5.2002C13.2568 5.2002 14.9658 6.33545 15.5518 7.9834C15.625 8.19092 15.6616 8.41064 15.6616 8.63037C15.6616 9.09424 15.3687 9.39941 14.8926 9.39941C14.4409 9.39941 14.2212 9.13086 14.0869 8.74023C13.6841 7.58057 12.5977 6.73828 11.2427 6.73828C9.16748 6.73828 7.83691 8.5083 7.83691 11.2427C7.83691 13.5864 8.77686 15.21 10.3394 15.6616L10.3394 11.2427C10.3394 10.8643 10.5957 10.5957 10.9619 10.5957C11.3281 10.5957 11.5845 10.8398 11.5845 11.2427L11.5845 11.7676C11.9751 11.0229 12.6953 10.6323 13.4521 10.6323C14.1357 10.6323 14.5996 10.9375 14.5996 11.3892C14.5996 11.7188 14.3433 11.9507 13.9771 11.9507C13.8306 11.9507 13.6597 11.9019 13.4033 11.9019C12.3413 11.9019 11.5967 12.7441 11.5967 13.9526L11.5967 15.7715C12.8784 15.6616 13.8672 14.8926 14.1724 13.8184C14.3066 13.3789 14.5508 13.1592 14.978 13.1592C15.4541 13.1592 15.7593 13.4644 15.7593 13.916C15.7471 14.1357 15.7104 14.3311 15.6494 14.5264C15.0513 16.1987 13.4766 17.3096 11.2549 17.3096C8.1665 17.3096 6.14014 14.9902 6.14014 11.2549Z" fill="#5ac8f5"/>
 </g>
</svg>
