<?xml version="1.0" encoding="UTF-8"?>
<!--Generator: Apple Native CoreSVG 175.5-->
<!DOCTYPE svg
PUBLIC "-//W3C//DTD SVG 1.1//EN"
       "http://www.w3.org/Graphics/SVG/1.1/DTD/svg11.dtd">
<svg version="1.1" xmlns="http://www.w3.org/2000/svg" xmlns:xlink="http://www.w3.org/1999/xlink" width="44.9341" height="19.4214">
 <g>
  <rect height="19.4214" opacity="0" width="44.9341" x="0" y="0"/>
  <path d="M36.377 4.43115L37.8052 5.57861L41.1499 2.16064C41.4307 1.86768 41.7725 1.75781 42.1631 1.75781L44.0186 1.75781C44.5801 1.75781 44.9341 1.40381 44.9341 0.878906C44.9341 0.354004 44.5801 0 44.0186 0L42.3706 0C41.333 0 40.4297 0.292969 39.7339 1.01318ZM3.18604 17.0776L5.09033 17.0776C5.01709 16.7114 4.95605 16.333 4.95605 15.9302C4.95605 13.3057 7.03125 11.2427 9.64355 11.2427C12.2681 11.2427 14.3311 13.3057 14.3311 15.9302C14.3311 16.333 14.2822 16.7114 14.1968 17.0776L29.7485 17.0776C29.6753 16.7114 29.6143 16.333 29.6143 15.9302C29.6143 13.3057 31.6895 11.2427 34.3018 11.2427C36.9263 11.2427 38.9893 13.3057 38.9893 15.9302C38.9893 16.333 38.9404 16.7114 38.855 17.0776L40.4663 17.0776C42.2241 17.0776 43.2983 15.9668 43.2983 14.1602L43.2983 9.25293C43.2983 7.54395 42.7856 6.09131 40.5151 5.3833L38.0005 4.61426C36.4136 2.72217 33.6426 0.0244141 28.6011 0.0244141L25.7324 0.0244141C20.7031 0.0244141 18.7012 0.512695 15.6982 2.39258L10.7788 5.48096L5.35889 6.14014C1.98975 6.55518 0 8.49609 0 11.4014L0 13.8184C0 15.8936 1.15967 17.0776 3.18604 17.0776ZM9.64355 19.1895C11.4746 19.1895 12.915 17.749 12.915 15.9302C12.915 14.1113 11.4624 12.6587 9.64355 12.6587C7.83691 12.6587 6.38428 14.1113 6.38428 15.9302C6.38428 17.7368 7.83691 19.1895 9.64355 19.1895ZM34.3018 19.1895C36.1206 19.1895 37.5732 17.7368 37.5732 15.9302C37.5732 14.1113 36.1206 12.6587 34.3018 12.6587C32.5073 12.6587 31.0425 14.1235 31.0425 15.9302C31.0425 17.7368 32.4951 19.1895 34.3018 19.1895Z" fill="#5ac8f5"/>
 </g>
</svg>
