<?xml version="1.0" encoding="UTF-8"?>
<!--Generator: Apple Native CoreSVG 175.5-->
<!DOCTYPE svg
PUBLIC "-//W3C//DTD SVG 1.1//EN"
       "http://www.w3.org/Graphics/SVG/1.1/DTD/svg11.dtd">
<svg version="1.1" xmlns="http://www.w3.org/2000/svg" xmlns:xlink="http://www.w3.org/1999/xlink" width="23.4741" height="26.9653">
 <g>
  <rect height="26.9653" opacity="0" width="23.4741" x="0" y="0"/>
  <path d="M5.32227 25.5859L18.1519 25.5859C20.4468 25.5859 21.7163 24.3774 21.7163 22.0703L21.7163 14.5752L21.8018 14.5752C22.876 14.3433 23.4741 13.4766 23.4741 12.2314L23.4741 9.021C23.4741 7.53174 22.644 6.5918 21.1548 6.5918L18.689 6.5918C19.3359 5.94482 19.7144 5.06592 19.7144 4.05273C19.7144 1.68457 17.8467 0 15.4785 0C13.7695 0 12.3535 0.939941 11.731 2.57568C11.1084 0.939941 9.70459 0 7.9834 0C5.62744 0 3.74756 1.68457 3.74756 4.05273C3.74756 5.06592 4.12598 5.94482 4.78516 6.5918L2.31934 6.5918C0.891113 6.5918 0 7.53174 0 9.021L0 12.2314C0 13.4766 0.585938 14.3433 1.66016 14.5752L1.74561 14.5752L1.74561 22.0703C1.74561 24.3774 3.01514 25.5859 5.32227 25.5859ZM10.6445 23.7549L5.29785 23.7549C4.28467 23.7549 3.71094 23.1812 3.71094 22.168L3.71094 14.6606L10.6445 14.6606ZM12.8174 23.7549L12.8174 14.6606L19.751 14.6606L19.751 22.168C19.751 23.1812 19.1772 23.7549 18.1641 23.7549ZM10.6445 12.8174L2.81982 12.8174C2.20947 12.8174 1.96533 12.561 1.96533 11.9507L1.96533 9.28955C1.96533 8.6792 2.20947 8.43506 2.81982 8.43506L10.6445 8.43506ZM12.8174 12.8174L12.8174 8.43506L20.6665 8.43506C21.2769 8.43506 21.5088 8.6792 21.5088 9.28955L21.5088 11.9507C21.5088 12.561 21.2769 12.8174 20.6665 12.8174ZM10.73 6.5918L8.82568 6.5918C6.90918 6.5918 5.78613 5.50537 5.78613 4.1626C5.78613 2.81982 6.7627 2.03857 8.10547 2.03857C9.55811 2.03857 10.73 3.13721 10.73 4.94385ZM12.7319 6.5918L12.7319 4.94385C12.7319 3.13721 13.9038 2.03857 15.3564 2.03857C16.6992 2.03857 17.6758 2.81982 17.6758 4.1626C17.6758 5.50537 16.5649 6.5918 14.6362 6.5918Z" fill="#5ac8f5"/>
 </g>
</svg>
