<?xml version="1.0" encoding="UTF-8"?>
<!--Generator: Apple Native CoreSVG 175.5-->
<!DOCTYPE svg
PUBLIC "-//W3C//DTD SVG 1.1//EN"
       "http://www.w3.org/Graphics/SVG/1.1/DTD/svg11.dtd">
<svg version="1.1" xmlns="http://www.w3.org/2000/svg" xmlns:xlink="http://www.w3.org/1999/xlink" width="24.9023" height="24.9146">
 <g>
  <rect height="24.9146" opacity="0" width="24.9023" x="0" y="0"/>
  <path d="M12.4512 24.9023C19.2627 24.9023 24.9023 19.2505 24.9023 12.4512C24.9023 5.63965 19.2505 0 12.439 0C5.63965 0 0 5.63965 0 12.4512C0 19.2505 5.65186 24.9023 12.4512 24.9023ZM12.4512 22.8271C6.68945 22.8271 2.0874 18.2129 2.0874 12.4512C2.0874 6.68945 6.67725 2.0752 12.439 2.0752C18.2007 2.0752 22.8271 6.68945 22.8271 12.4512C22.8271 18.2129 18.2129 22.8271 12.4512 22.8271Z" fill="#5ac8f5" fill-opacity="0.5"/>
  <path d="M10.022 19.4458L14.856 19.4458C15.9424 19.4458 16.6748 18.7378 16.6748 17.688L16.6748 7.20215C16.6748 6.15234 15.9424 5.44434 14.856 5.44434L10.022 5.44434C8.93555 5.44434 8.20312 6.15234 8.20312 7.20215L8.20312 17.688C8.20312 18.7378 8.93555 19.4458 10.022 19.4458ZM10.1562 18.3594C9.59473 18.3594 9.28955 18.0542 9.28955 17.5293L9.28955 7.36084C9.28955 6.83594 9.59473 6.53076 10.1562 6.53076L10.9619 6.53076C11.084 6.53076 11.1084 6.57959 11.1084 6.67725L11.1084 6.82373C11.1084 7.10449 11.2915 7.2998 11.5723 7.2998L13.3057 7.2998C13.5864 7.2998 13.7695 7.10449 13.7695 6.82373L13.7695 6.67725C13.7695 6.57959 13.8062 6.53076 13.9038 6.53076L14.7217 6.53076C15.2832 6.53076 15.5884 6.83594 15.5884 7.36084L15.5884 17.5293C15.5884 18.0542 15.2832 18.3594 14.7217 18.3594ZM11.0596 17.8833L13.8306 17.8833C14.0259 17.8833 14.1479 17.7612 14.1479 17.5659C14.1479 17.3584 14.0259 17.2241 13.8306 17.2241L11.0596 17.2241C10.8643 17.2241 10.73 17.3584 10.73 17.5659C10.73 17.7612 10.8643 17.8833 11.0596 17.8833Z" fill="#5ac8f5"/>
  <path d="M7.08008 14.5752C7.25098 14.3677 7.18994 14.1357 7.00684 13.8916C6.70166 13.501 6.55518 13.0005 6.55518 12.4512C6.55518 11.9019 6.70166 11.3892 7.00684 11.0107C7.18994 10.7666 7.25098 10.5347 7.08008 10.3271C6.89697 10.1074 6.56738 10.1074 6.35986 10.3516C5.896 10.9375 5.62744 11.6577 5.62744 12.4512C5.62744 13.2324 5.896 13.9648 6.35986 14.5386C6.56738 14.7827 6.89697 14.7949 7.08008 14.5752ZM17.7612 14.5752C17.9443 14.7949 18.2861 14.7827 18.4814 14.5386C18.9453 13.9648 19.2261 13.2324 19.2261 12.4512C19.2261 11.6577 18.9453 10.9375 18.4814 10.3516C18.2861 10.1074 17.9443 10.1074 17.7612 10.3271C17.5903 10.5347 17.6514 10.7666 17.8345 11.0107C18.1396 11.3892 18.2983 11.9019 18.2983 12.4512C18.2983 13.0005 18.1396 13.501 17.8345 13.8916C17.6514 14.1357 17.5903 14.3677 17.7612 14.5752Z" fill="#5ac8f5"/>
  <path d="M5.32227 16.0767C5.49316 15.8691 5.44434 15.625 5.24902 15.3931C4.52881 14.5874 4.15039 13.562 4.15039 12.4512C4.15039 11.3403 4.52881 10.3149 5.24902 9.50928C5.44434 9.27734 5.49316 9.021 5.32227 8.82568C5.16357 8.60596 4.84619 8.60596 4.61426 8.83789C3.72314 9.80225 3.24707 11.084 3.24707 12.4512C3.24707 13.8062 3.72314 15.0879 4.61426 16.0645C4.84619 16.2964 5.16357 16.2964 5.32227 16.0767ZM19.519 16.0767C19.6899 16.2964 20.0073 16.2964 20.2271 16.0645C21.1182 15.0879 21.6064 13.8062 21.6064 12.4512C21.6064 11.084 21.1182 9.80225 20.2271 8.83789C20.0073 8.60596 19.6899 8.60596 19.519 8.82568C19.3481 9.021 19.397 9.27734 19.6045 9.50928C20.3125 10.3149 20.7031 11.3403 20.7031 12.4512C20.7031 13.562 20.3125 14.5874 19.6045 15.3931C19.397 15.625 19.3481 15.8691 19.519 16.0767Z" fill="#5ac8f5"/>
 </g>
</svg>
