<?xml version="1.0" encoding="UTF-8"?>
<!--Generator: Apple Native CoreSVG 175.5-->
<!DOCTYPE svg
PUBLIC "-//W3C//DTD SVG 1.1//EN"
       "http://www.w3.org/Graphics/SVG/1.1/DTD/svg11.dtd">
<svg version="1.1" xmlns="http://www.w3.org/2000/svg" xmlns:xlink="http://www.w3.org/1999/xlink" width="22.4731" height="22.4976">
 <g>
  <rect height="22.4976" opacity="0" width="22.4731" x="0" y="0"/>
  <path d="M3.83301 22.4976L18.6401 22.4976C21.2036 22.4976 22.4731 21.228 22.4731 18.7134L22.4731 3.80859C22.4731 1.29395 21.2036 0.0244141 18.6401 0.0244141L3.83301 0.0244141C1.28174 0.0244141 0 1.28174 0 3.80859L0 18.7134C0 21.2402 1.28174 22.4976 3.83301 22.4976Z" fill="#5ac8f5" fill-opacity="0.25"/>
  <path d="M11.5479 17.334C8.93555 17.334 7.27539 15.6372 6.72607 13.1348L5.52979 13.1348C5.17578 13.1348 4.93164 12.854 4.93164 12.5C4.93164 12.1338 5.17578 11.8896 5.52979 11.8896L6.55518 11.8896C6.54297 11.6821 6.54297 11.4868 6.54297 11.2671C6.54297 11.0229 6.55518 10.8032 6.56738 10.5713L5.52979 10.5713C5.17578 10.5713 4.93164 10.2905 4.93164 9.94873C4.93164 9.57031 5.17578 9.32617 5.52979 9.32617L6.75049 9.32617C7.33643 6.82373 9.08203 5.22461 11.5479 5.22461C13.5864 5.22461 15.332 6.31104 15.9424 8.00781C16.0156 8.21533 16.0645 8.42285 16.0645 8.64258C16.0645 9.10645 15.7593 9.41162 15.2832 9.41162C14.8438 9.41162 14.624 9.24072 14.4775 8.75244C14.0869 7.4585 12.8784 6.75049 11.5967 6.75049C10.0342 6.75049 8.98438 7.8125 8.52051 9.32617L11.8164 9.32617C12.1704 9.32617 12.439 9.57031 12.439 9.94873C12.439 10.2905 12.1704 10.5713 11.8164 10.5713L8.26416 10.5713C8.25195 10.8032 8.23975 11.0229 8.23975 11.2671C8.23975 11.4746 8.25195 11.6821 8.26416 11.8896L11.8164 11.8896C12.1704 11.8896 12.439 12.1338 12.439 12.5C12.439 12.854 12.1704 13.1348 11.8164 13.1348L8.49609 13.1348C8.93555 14.7095 9.99756 15.8081 11.5967 15.8081C12.9761 15.8081 14.209 15.1245 14.563 13.8428C14.6973 13.4033 14.9536 13.1714 15.3809 13.1714C15.8447 13.1714 16.1499 13.4888 16.1499 13.9404C16.1499 14.1724 16.1011 14.3799 16.0278 14.5874C15.3687 16.4185 13.6841 17.334 11.5479 17.334Z" fill="#5ac8f5"/>
 </g>
</svg>
