<?xml version="1.0" encoding="UTF-8"?>
<!--Generator: Apple Native CoreSVG 175.5-->
<!DOCTYPE svg
PUBLIC "-//W3C//DTD SVG 1.1//EN"
       "http://www.w3.org/Graphics/SVG/1.1/DTD/svg11.dtd">
<svg version="1.1" xmlns="http://www.w3.org/2000/svg" xmlns:xlink="http://www.w3.org/1999/xlink" width="25.5249" height="29.0956">
 <g>
  <rect height="29.0956" opacity="0" width="25.5249" x="0" y="0"/>
  <path d="M6.92139 19.0827C7.43408 18.9606 7.72705 18.4724 7.58057 17.9597L6.55518 13.8947C6.44531 13.4919 6.27441 13.2111 5.95703 13.028C5.63965 12.8327 5.32227 12.8205 4.90723 12.9426L0.891113 14.0778C0.354004 14.2243 0.0854492 14.7248 0.231934 15.2131C0.366211 15.7258 0.866699 16.031 1.37939 15.8601L4.93164 14.8103L5.78613 18.4113C5.896 18.9362 6.4209 19.217 6.92139 19.0827ZM3.36914 25.9064L9.91211 25.9064C10.4858 25.9064 10.9131 25.5036 10.9131 24.9543C10.9131 24.405 10.4858 23.9899 9.91211 23.9899L3.38135 23.9899C2.53906 23.9899 1.97754 23.2941 1.97754 22.5373C1.97754 22.3176 2.01416 22.049 2.14844 21.8171L6.38428 14.2365L4.72412 13.26L0.45166 20.8771C0.158691 21.4143 0 21.988 0 22.5373C0 24.4294 1.29395 25.9064 3.36914 25.9064ZM18.4326 12.967L20.0928 12.0026L15.6616 4.08027C15.0391 2.95723 13.9038 2.3835 12.7686 2.3835C11.6211 2.3835 10.498 2.96943 9.86328 4.08027L6.49414 10.0983C6.17676 10.6477 6.34766 11.1726 6.82373 11.4533C7.31201 11.7219 7.88574 11.551 8.1665 11.0627L11.5356 5.02022C11.8164 4.53193 12.2925 4.32441 12.7686 4.32441C13.2446 4.32441 13.7085 4.53193 13.9771 5.02022ZM18.6035 13.26C19.0186 13.3698 19.3359 13.3698 19.6533 13.1745C19.9707 12.9792 20.1416 12.7229 20.2515 12.3078L21.2646 8.24287C21.4111 7.73018 21.1304 7.2419 20.6177 7.11982C20.1172 6.98555 19.5923 7.26631 19.4824 7.79121L18.6279 11.3923L15.0635 10.3425C14.563 10.1838 14.0625 10.4768 13.916 10.9895C13.7817 11.4777 14.0503 11.9782 14.5752 12.1247ZM13.5132 25.9064L22.1558 25.9064C24.231 25.9064 25.5249 24.4294 25.5249 22.5373C25.5249 21.988 25.3784 21.4265 25.0732 20.8771L21.8384 15.1032C21.5576 14.5783 20.9839 14.4563 20.52 14.737C20.0439 15.0178 19.8853 15.5915 20.1538 16.0798L23.3643 21.8171C23.4985 22.049 23.5596 22.3176 23.5596 22.5373C23.5596 23.2941 22.9736 23.9899 22.1313 23.9899L13.5132 23.9899ZM16.1499 28.8117C16.5283 29.2023 17.1021 29.1779 17.4561 28.8117C17.8345 28.4577 17.8345 27.8718 17.4438 27.4934L14.7583 24.9543L17.4438 22.4152C17.8345 22.0368 17.8345 21.4509 17.4561 21.0969C17.1021 20.7185 16.5283 20.7063 16.1499 21.0969L13.147 24.0021C12.8418 24.2951 12.7075 24.5881 12.7075 24.9543C12.7075 25.3205 12.8418 25.6013 13.147 25.8942Z" fill="#5ac8f5"/>
 </g>
</svg>
