<?xml version="1.0" encoding="UTF-8"?>
<!--Generator: Apple Native CoreSVG 175.5-->
<!DOCTYPE svg
PUBLIC "-//W3C//DTD SVG 1.1//EN"
       "http://www.w3.org/Graphics/SVG/1.1/DTD/svg11.dtd">
<svg version="1.1" xmlns="http://www.w3.org/2000/svg" xmlns:xlink="http://www.w3.org/1999/xlink" width="24.9023" height="24.9146">
 <g>
  <rect height="24.9146" opacity="0" width="24.9023" x="0" y="0"/>
  <path d="M12.4512 24.9023C19.2627 24.9023 24.9023 19.2505 24.9023 12.4512C24.9023 5.63965 19.2505 0 12.439 0C5.63965 0 0 5.63965 0 12.4512C0 19.2505 5.65186 24.9023 12.4512 24.9023Z" fill="#5ac8f5" fill-opacity="0.25"/>
  <path d="M7.83691 10.4614C7.83691 10.0952 8.09326 9.85107 8.44727 9.85107L9.21631 9.85107L9.21631 7.55615C9.21631 7.05566 9.53369 6.72607 10.0342 6.72607L13.0737 6.72607C15.1489 6.72607 16.6138 7.95898 16.9189 9.85107L17.5293 9.85107C17.8833 9.85107 18.1396 10.0952 18.1396 10.4614C18.1396 10.8154 17.8833 11.0962 17.5293 11.0962L16.9434 11.0962C16.7114 13.0615 15.1855 14.3921 13.0737 14.3921L10.8765 14.3921L10.8765 17.9321C10.8765 18.4204 10.5347 18.7622 10.0586 18.7622C9.58252 18.7622 9.21631 18.4204 9.21631 17.9321L9.21631 11.0962L8.44727 11.0962C8.09326 11.0962 7.83691 10.8154 7.83691 10.4614ZM10.8887 12.8906L12.8052 12.8906C14.1846 12.8906 15.0635 12.2314 15.2588 11.0962L10.8887 11.0962ZM10.8887 9.85107L15.2222 9.85107C14.978 8.80127 14.1235 8.21533 12.8052 8.21533L10.8887 8.21533Z" fill="#5ac8f5"/>
 </g>
</svg>
