<?xml version="1.0" encoding="UTF-8"?>
<!--Generator: Apple Native CoreSVG 175.5-->
<!DOCTYPE svg
PUBLIC "-//W3C//DTD SVG 1.1//EN"
       "http://www.w3.org/Graphics/SVG/1.1/DTD/svg11.dtd">
<svg version="1.1" xmlns="http://www.w3.org/2000/svg" xmlns:xlink="http://www.w3.org/1999/xlink" width="34.6802" height="27.5024">
 <g>
  <rect height="27.5024" opacity="0" width="34.6802" x="0" y="0"/>
  <path d="M3.13721 22.229L19.9097 22.229L19.9097 20.2637L3.17383 20.2637C2.33154 20.2637 1.96533 19.9219 1.96533 19.0674L1.96533 5.13916C1.96533 4.27246 2.33154 3.94287 3.17383 3.94287L27.3193 3.94287C28.1494 3.94287 28.5156 4.27246 28.5156 5.13916L28.5156 8.82568L30.481 8.82568L30.481 5.10254C30.481 2.96631 29.4434 1.97754 27.356 1.97754L3.13721 1.97754C1.0498 1.97754 0 2.96631 0 5.10254L0 19.0918C0 21.2402 1.0498 22.229 3.13721 22.229ZM8.43506 26.3672L20.0928 26.3672C19.9829 25.9521 19.9097 25.4883 19.9097 24.3896L8.43506 24.3896C7.88574 24.3896 7.44629 24.8291 7.44629 25.3784C7.44629 25.9277 7.88574 26.3672 8.43506 26.3672ZM24.1577 27.5024L32.0923 27.5024C33.8013 27.5024 34.6802 26.6357 34.6802 24.8901L34.6802 13.1104C34.6802 11.3647 33.8013 10.4858 32.0923 10.4858L24.1577 10.4858C22.4121 10.4858 21.5698 11.3647 21.5698 13.1104L21.5698 24.8901C21.5698 26.6357 22.4121 27.5024 24.1577 27.5024ZM28.125 16.7114C26.9531 16.7114 26.0132 15.7715 26.0254 14.5874C26.0376 13.4155 26.9531 12.5 28.125 12.5C29.2969 12.5 30.2246 13.4155 30.2246 14.5874C30.2246 15.7715 29.2969 16.7114 28.125 16.7114ZM28.1128 25.3906C26.0376 25.3906 24.3896 23.7183 24.3896 21.6431C24.3896 19.5557 26.0376 17.8955 28.1128 17.8833C30.1758 17.8711 31.8604 19.5557 31.8604 21.6431C31.8604 23.7183 30.1758 25.3906 28.1128 25.3906ZM28.1128 15.6372C28.6865 15.6372 29.1504 15.1733 29.1504 14.5874C29.1504 14.0015 28.6865 13.562 28.1128 13.562C27.5513 13.562 27.0874 14.0259 27.0874 14.5874C27.0874 15.1733 27.5391 15.6372 28.1128 15.6372ZM28.1128 23.2056C28.9917 23.2056 29.6997 22.5098 29.6997 21.6431C29.6997 20.7275 29.0039 20.0439 28.1128 20.0439C27.2461 20.0439 26.5503 20.7275 26.5503 21.6431C26.5503 22.5098 27.2461 23.2056 28.1128 23.2056Z" fill="#5ac8f5"/>
 </g>
</svg>
