<?xml version="1.0" encoding="UTF-8"?>
<!--Generator: Apple Native CoreSVG 175.5-->
<!DOCTYPE svg
PUBLIC "-//W3C//DTD SVG 1.1//EN"
       "http://www.w3.org/Graphics/SVG/1.1/DTD/svg11.dtd">
<svg version="1.1" xmlns="http://www.w3.org/2000/svg" xmlns:xlink="http://www.w3.org/1999/xlink" width="22.4731" height="22.4976">
 <g>
  <rect height="22.4976" opacity="0" width="22.4731" x="0" y="0"/>
  <path d="M3.83301 22.4976L18.6401 22.4976C21.2036 22.4976 22.4731 21.228 22.4731 18.7134L22.4731 3.80859C22.4731 1.29395 21.2036 0.0244141 18.6401 0.0244141L3.83301 0.0244141C1.28174 0.0244141 0 1.28174 0 3.80859L0 18.7134C0 21.2402 1.28174 22.4976 3.83301 22.4976ZM3.85742 20.5322C2.63672 20.5322 1.96533 19.8853 1.96533 18.6157L1.96533 3.90625C1.96533 2.63672 2.63672 1.98975 3.85742 1.98975L18.6157 1.98975C19.8242 1.98975 20.5078 2.63672 20.5078 3.90625L20.5078 18.6157C20.5078 19.8853 19.8242 20.5322 18.6157 20.5322Z" fill="#5ac8f5" fill-opacity="0.5"/>
  <path d="M7.17773 16.5039C9.25293 16.5039 10.7056 15.2588 10.7056 13.501C10.7056 12.207 9.80225 11.1572 8.56934 11.0352L8.56934 10.9619C9.58252 10.791 10.376 9.77783 10.376 8.63037C10.376 7.06787 9.08203 5.98145 7.26318 5.98145C5.61523 5.98145 4.39453 6.92139 4.07715 8.11768C4.04053 8.27637 4.04053 8.39844 4.04053 8.55713C4.04053 8.99658 4.30908 9.30176 4.73633 9.30176C5.10254 9.30176 5.29785 9.10645 5.41992 8.71582C5.68848 7.86133 6.27441 7.38525 7.22656 7.38525C8.19092 7.38525 8.87451 7.97119 8.87451 8.82568C8.87451 9.7168 8.19092 10.3638 7.21436 10.3638L6.55518 10.3638C6.16455 10.3638 5.896 10.6445 5.896 11.084C5.896 11.4746 6.15234 11.7798 6.55518 11.7798L7.27539 11.7798C8.43506 11.7798 9.17969 12.439 9.17969 13.4277C9.17969 14.3799 8.36182 15.1001 7.18994 15.1001C6.22559 15.1001 5.56641 14.624 5.23682 13.7695C5.09033 13.3789 4.88281 13.1836 4.54102 13.1836C4.12598 13.1836 3.83301 13.4888 3.83301 13.916C3.83301 14.0869 3.85742 14.209 3.89404 14.3677C4.22363 15.4907 5.51758 16.5039 7.17773 16.5039ZM13.0493 16.2231L18.103 16.2231C18.4937 16.2231 18.7866 15.9302 18.7866 15.4907C18.7866 15.0391 18.4937 14.7827 18.103 14.7827L14.5508 14.7827L14.5508 14.6973L16.9434 11.9141C17.8467 10.8643 18.5181 9.98535 18.5181 8.76465C18.5181 7.06787 17.2852 5.98145 15.3687 5.98145C13.916 5.98145 12.6221 6.90918 12.3047 8.1543C12.2681 8.31299 12.2437 8.44727 12.2437 8.59375C12.2437 9.0332 12.5 9.32617 12.9272 9.32617C13.2812 9.32617 13.4644 9.11865 13.623 8.75244C13.9282 7.83691 14.5508 7.38525 15.4297 7.38525C16.4062 7.38525 17.041 7.99561 17.041 8.89893C17.041 9.69238 16.4062 10.376 15.8203 11.0596L12.6099 14.8438C12.4146 15.0513 12.3413 15.2588 12.3413 15.5029C12.3413 15.9424 12.6221 16.2231 13.0493 16.2231Z" fill="#5ac8f5"/>
 </g>
</svg>
