<?xml version="1.0" encoding="UTF-8"?>
<!--Generator: Apple Native CoreSVG 175.5-->
<!DOCTYPE svg
PUBLIC "-//W3C//DTD SVG 1.1//EN"
       "http://www.w3.org/Graphics/SVG/1.1/DTD/svg11.dtd">
<svg version="1.1" xmlns="http://www.w3.org/2000/svg" xmlns:xlink="http://www.w3.org/1999/xlink" width="22.4731" height="22.4976">
 <g>
  <rect height="22.4976" opacity="0" width="22.4731" x="0" y="0"/>
  <path d="M3.83301 22.4976L18.6401 22.4976C21.2036 22.4976 22.4731 21.228 22.4731 18.7134L22.4731 3.80859C22.4731 1.29395 21.2036 0.0244141 18.6401 0.0244141L3.83301 0.0244141C1.28174 0.0244141 0 1.28174 0 3.80859L0 18.7134C0 21.2402 1.28174 22.4976 3.83301 22.4976ZM3.85742 20.5322C2.63672 20.5322 1.96533 19.8853 1.96533 18.6157L1.96533 3.90625C1.96533 2.63672 2.63672 1.98975 3.85742 1.98975L18.6157 1.98975C19.8242 1.98975 20.5078 2.63672 20.5078 3.90625L20.5078 18.6157C20.5078 19.8853 19.8242 20.5322 18.6157 20.5322ZM5.87158 16.7603C6.33545 16.7603 6.66504 16.4307 6.66504 15.9546L6.66504 12.0239L7.62939 12.0239C7.71484 12.0239 7.78809 12.0239 7.88574 12.0239L9.50928 16.2476C9.64355 16.6138 9.93652 16.7603 10.2539 16.7603C10.7666 16.7603 11.2915 16.3574 11.0107 15.6616L9.42383 11.7188C10.4614 11.3159 10.9985 10.022 10.9985 8.74023C10.9985 6.78711 10.0342 5.66406 7.97119 5.66406L5.99365 5.66406C5.39551 5.66406 5.06592 6.11572 5.06592 6.7749L5.06592 15.9546C5.06592 16.4307 5.39551 16.7603 5.87158 16.7603ZM6.66504 10.7788L6.66504 6.95801L7.80029 6.95801C8.87451 6.95801 9.375 7.65381 9.375 8.80127C9.375 9.96094 8.89893 10.7788 7.8125 10.7788ZM15.0146 16.2598C16.7725 16.2598 17.981 15.2466 17.981 13.5742C17.981 12.3901 17.3462 11.5479 15.9058 10.791L14.8193 10.2173C14.1846 9.8877 13.5254 9.47266 13.5254 8.66699C13.5254 7.91016 14.0869 7.42188 14.9292 7.42188C15.8569 7.42188 16.3208 8.00781 16.3818 8.83789C16.4185 9.22852 16.7236 9.46045 17.0532 9.46045C17.4805 9.46045 17.8833 9.14307 17.7856 8.47168C17.6147 7.14111 16.6016 6.12793 14.9292 6.12793C13.2568 6.12793 12.0239 7.15332 12.0239 8.72803C12.0239 10.0586 12.7808 10.9131 14.0747 11.5479L15.1245 12.0728C15.8203 12.4146 16.4917 12.9517 16.4917 13.6841C16.4917 14.4531 15.9546 14.9658 15.0146 14.9658C13.9526 14.9658 13.4888 14.4287 13.4033 13.5376C13.3545 13.1226 13.0737 12.915 12.7441 12.915C12.3291 12.915 11.9263 13.269 12.0239 13.9038C12.2192 15.3076 13.2935 16.2598 15.0146 16.2598ZM15.0024 17.5659C15.271 17.5659 15.5029 17.334 15.5029 17.0654L15.5029 5.35889C15.5029 5.07812 15.271 4.84619 15.0024 4.84619C14.7339 4.84619 14.4897 5.07812 14.4897 5.35889L14.4897 17.0654C14.4897 17.334 14.7339 17.5659 15.0024 17.5659Z" fill="#5ac8f5"/>
 </g>
</svg>
