<?xml version="1.0" encoding="UTF-8"?>
<!--Generator: Apple Native CoreSVG 175.5-->
<!DOCTYPE svg
PUBLIC "-//W3C//DTD SVG 1.1//EN"
       "http://www.w3.org/Graphics/SVG/1.1/DTD/svg11.dtd">
<svg version="1.1" xmlns="http://www.w3.org/2000/svg" xmlns:xlink="http://www.w3.org/1999/xlink" width="24.9023" height="24.9146">
 <g>
  <rect height="24.9146" opacity="0" width="24.9023" x="0" y="0"/>
  <path d="M12.4512 24.9146C19.2627 24.9146 24.9023 19.2749 24.9023 12.4634C24.9023 5.66406 19.2505 0.012207 12.439 0.012207C5.63965 0.012207 0 5.66406 0 12.4634C0 19.2749 5.65186 24.9146 12.4512 24.9146ZM8.77686 18.8354C7.4585 18.8354 6.75049 18.1641 6.75049 16.8213L6.75049 10.5103L18.1519 10.5103L18.1519 16.8213C18.1519 18.1641 17.4438 18.8354 16.1255 18.8354ZM10.2417 12.9272L14.6606 12.9272C14.9536 12.9272 15.1489 12.7441 15.1489 12.4512L15.1489 12.2314C15.1489 11.9385 14.9536 11.7554 14.6606 11.7554L10.2417 11.7554C9.96094 11.7554 9.75342 11.9385 9.75342 12.2314L9.75342 12.4512C9.75342 12.7441 9.96094 12.9272 10.2417 12.9272ZM6.88477 9.49707C6.12793 9.49707 5.74951 9.04541 5.74951 8.30078L5.74951 7.69043C5.74951 6.93359 6.17676 6.49414 6.88477 6.49414L18.0176 6.49414C18.7866 6.49414 19.165 6.93359 19.165 7.69043L19.165 8.30078C19.165 9.04541 18.7866 9.49707 18.0176 9.49707Z" fill="#5ac8f5"/>
 </g>
</svg>
