<?xml version="1.0" encoding="UTF-8"?>
<!--Generator: Apple Native CoreSVG 175.5-->
<!DOCTYPE svg
PUBLIC "-//W3C//DTD SVG 1.1//EN"
       "http://www.w3.org/Graphics/SVG/1.1/DTD/svg11.dtd">
<svg version="1.1" xmlns="http://www.w3.org/2000/svg" xmlns:xlink="http://www.w3.org/1999/xlink" width="19.3604" height="25.8667">
 <g>
  <rect height="25.8667" opacity="0" width="19.3604" x="0" y="0"/>
  <path d="M3.67432 15.4663L3.67432 22.6685C3.67432 24.5728 5.00488 25.8423 6.99463 25.8423L16.04 25.8423C18.0298 25.8423 19.3604 24.5728 19.3604 22.6685L19.3604 3.17383C19.3604 1.26953 18.0298 0 16.04 0L6.99463 0C5.00488 0 3.67432 1.26953 3.67432 3.17383L3.67432 10.3882L5.63965 10.3882L5.63965 3.49121C5.63965 2.51465 6.21338 1.96533 7.25098 1.96533L15.7959 1.96533C16.8213 1.96533 17.395 2.51465 17.395 3.49121L17.395 22.3511C17.395 23.3276 16.8213 23.877 15.7959 23.877L7.25098 23.877C6.21338 23.877 5.63965 23.3276 5.63965 22.3511L5.63965 15.4663Z" fill="#5ac8f5" fill-opacity="0.5"/>
  <path d="M0.891113 13.7817L8.8501 13.7817L11.4258 13.6597L8.76465 16.0522L8.06885 16.748C7.91016 16.9189 7.80029 17.1509 7.80029 17.4072C7.80029 17.9077 8.1665 18.2495 8.64258 18.2495C8.88672 18.2495 9.11865 18.1519 9.28955 17.981L13.7085 13.562C13.9282 13.3545 14.0381 13.1226 14.0381 12.915C14.0381 12.7075 13.9282 12.4512 13.7085 12.2559L9.28955 7.84912C9.11865 7.67822 8.88672 7.58057 8.64258 7.58057C8.1665 7.58057 7.80029 7.92236 7.80029 8.41064C7.80029 8.6792 7.91016 8.89893 8.06885 9.06982L8.76465 9.77783L11.4258 12.1582L8.8501 12.0361L0.891113 12.0361C0.341797 12.0361 0 12.4634 0 12.915C0 13.3667 0.341797 13.7817 0.891113 13.7817Z" fill="#5ac8f5"/>
 </g>
</svg>
