<?xml version="1.0" encoding="UTF-8"?>
<!--Generator: Apple Native CoreSVG 175.5-->
<!DOCTYPE svg
PUBLIC "-//W3C//DTD SVG 1.1//EN"
       "http://www.w3.org/Graphics/SVG/1.1/DTD/svg11.dtd">
<svg version="1.1" xmlns="http://www.w3.org/2000/svg" xmlns:xlink="http://www.w3.org/1999/xlink" width="25.0854" height="26.5503">
 <g>
  <rect height="26.5503" opacity="0" width="25.0854" x="0" y="0"/>
  <path d="M8.92334 16.5527C7.43408 16.5527 6.23779 15.3198 6.23779 13.8428C6.23779 12.3779 7.43408 11.1694 8.92334 11.1694C10.4004 11.1694 11.6089 12.3779 11.6089 13.8428C11.6089 15.3198 10.4004 16.5527 8.92334 16.5527ZM3.78418 24.5728C2.6123 24.5728 1.96533 23.938 1.96533 22.7173L1.96533 21.5332L4.82178 19.0308C5.31006 18.6157 5.77393 18.3838 6.28662 18.3838C6.82373 18.3838 7.33643 18.6157 7.8125 19.043L9.85107 20.8618L14.9658 16.3574C15.5029 15.8813 16.0522 15.686 16.6748 15.686C17.2852 15.686 17.8955 15.9058 18.396 16.3696L23.1201 20.813L23.1201 22.7173C23.1201 23.938 22.4487 24.5728 21.2891 24.5728ZM3.71094 26.5381L21.3745 26.5381C23.8281 26.5381 25.0854 25.293 25.0854 22.8638L25.0854 10.5835C25.0854 8.1543 23.8281 6.92139 21.3745 6.92139L3.71094 6.92139C1.23291 6.92139 0 8.1543 0 10.5835L0 22.8638C0 25.293 1.23291 26.5381 3.71094 26.5381ZM2.33154 4.95605L22.7661 4.95605C22.583 3.84521 22.0581 3.23486 20.8374 3.23486L4.26025 3.23486C3.03955 3.23486 2.51465 3.84521 2.33154 4.95605ZM4.84619 1.57471L20.2515 1.57471C20.1782 0.537109 19.5923 0 18.457 0L6.62842 0C5.50537 0 4.91943 0.537109 4.84619 1.57471Z" fill="#5ac8f5"/>
 </g>
</svg>
