<?xml version="1.0" encoding="UTF-8"?>
<!--Generator: Apple Native CoreSVG 175.5-->
<!DOCTYPE svg
PUBLIC "-//W3C//DTD SVG 1.1//EN"
       "http://www.w3.org/Graphics/SVG/1.1/DTD/svg11.dtd">
<svg version="1.1" xmlns="http://www.w3.org/2000/svg" xmlns:xlink="http://www.w3.org/1999/xlink" width="24.9146" height="26.8188">
 <g>
  <rect height="26.8188" opacity="0" width="24.9146" x="0" y="0"/>
  <path d="M17.1875 0C12.8784 0 9.48486 3.13721 9.48486 7.12891C9.48486 11.5479 12.1338 12.6465 12.8662 20.2759C12.9028 20.7031 13.1348 20.9717 13.5864 20.9717L20.8008 20.9717C21.2524 20.9717 21.4844 20.7031 21.521 20.2759C22.2534 12.6465 24.9146 11.5479 24.9146 7.12891C24.9146 3.13721 21.5088 0 17.1875 0ZM13.562 23.4619L20.8374 23.4619C21.228 23.4619 21.5454 23.1689 21.5454 22.7661C21.5454 22.3633 21.228 22.0703 20.8374 22.0703L13.562 22.0703C13.1592 22.0703 12.8662 22.3633 12.8662 22.7661C12.8662 23.1689 13.1592 23.4619 13.562 23.4619ZM17.1997 26.8066C18.9941 26.8066 20.5078 25.9033 20.6055 24.5605L13.7939 24.5605C13.8672 25.9033 15.3931 26.8066 17.1997 26.8066ZM6.68945 1.80664C2.96631 1.80664 0 4.54102 0 8.02002C0 11.8774 2.27051 12.8296 2.90527 19.3115C2.92969 19.7021 3.17383 19.9829 3.60107 19.9829L9.79004 19.9829C10.2173 19.9829 10.4492 19.7021 10.4858 19.3115C10.5713 18.4082 10.6934 17.627 10.8398 16.8945C9.79004 13.0005 8.06885 11.4136 8.06885 7.12891C8.06885 5.35889 8.61816 3.73535 9.57031 2.39258C8.70361 2.01416 7.72705 1.80664 6.68945 1.80664ZM3.57666 22.3022L9.81445 22.3022C10.2051 22.3022 10.5225 22.0093 10.5225 21.6187C10.5225 21.2158 10.2051 20.9229 9.81445 20.9229L3.57666 20.9229C3.18604 20.9229 2.89307 21.228 2.89307 21.6187C2.89307 21.9971 3.18604 22.3022 3.57666 22.3022ZM6.70166 25.354C8.31299 25.354 9.70459 24.4873 9.729 23.2422L3.68652 23.2422C3.71094 24.4873 5.07812 25.354 6.70166 25.354Z" fill="#5ac8f5"/>
 </g>
</svg>
