<?xml version="1.0" encoding="UTF-8"?>
<!--Generator: Apple Native CoreSVG 175.5-->
<!DOCTYPE svg
PUBLIC "-//W3C//DTD SVG 1.1//EN"
       "http://www.w3.org/Graphics/SVG/1.1/DTD/svg11.dtd">
<svg version="1.1" xmlns="http://www.w3.org/2000/svg" xmlns:xlink="http://www.w3.org/1999/xlink" width="24.9023" height="24.9146">
 <g>
  <rect height="24.9146" opacity="0" width="24.9023" x="0" y="0"/>
  <path d="M12.4512 24.9023C19.2627 24.9023 24.9023 19.2505 24.9023 12.4512C24.9023 5.63965 19.2505 0 12.439 0C5.63965 0 0 5.63965 0 12.4512C0 19.2505 5.65186 24.9023 12.4512 24.9023ZM12.4512 22.8271C6.68945 22.8271 2.0874 18.2129 2.0874 12.4512C2.0874 6.68945 6.67725 2.0752 12.439 2.0752C18.2007 2.0752 22.8271 6.68945 22.8271 12.4512C22.8271 18.2129 18.2129 22.8271 12.4512 22.8271Z" fill="#5ac8f5" fill-opacity="0.5"/>
  <path d="M9.42383 17.5415L19.4214 17.5415C20.1172 17.5415 20.3125 16.9189 20.0562 16.394L15.1733 6.61621C15.0024 6.31104 14.7339 6.11572 14.4287 6.11572C14.1113 6.11572 13.8306 6.29883 13.6963 6.604L8.80127 16.394C8.53271 16.9189 8.74023 17.5415 9.42383 17.5415ZM11.6333 16.6382L14.0747 11.499C14.2212 11.1694 14.5996 11.1694 14.7827 11.499L17.2119 16.6382L15.3198 16.6382L14.4287 12.7197L13.5254 16.6382ZM8.94775 14.7583L8.31299 11.9385L7.6416 14.7583L6.29883 14.7583L8.05664 11.0596C8.17871 10.7788 8.47168 10.8398 8.56934 11.0596L10.1562 14.4043L11.2793 12.1948L8.93555 7.53174C8.80127 7.27539 8.55713 7.10449 8.31299 7.10449C8.03223 7.10449 7.80029 7.27539 7.66602 7.53174L4.11377 14.6729C3.89404 15.1245 4.06494 15.6738 4.65088 15.6738L9.50928 15.6738L9.96094 14.7583Z" fill="#5ac8f5"/>
 </g>
</svg>
