<?xml version="1.0" encoding="UTF-8"?>
<!--Generator: Apple Native CoreSVG 175.5-->
<!DOCTYPE svg
PUBLIC "-//W3C//DTD SVG 1.1//EN"
       "http://www.w3.org/Graphics/SVG/1.1/DTD/svg11.dtd">
<svg version="1.1" xmlns="http://www.w3.org/2000/svg" xmlns:xlink="http://www.w3.org/1999/xlink" width="24.9023" height="29.8462">
 <g>
  <rect height="29.8462" opacity="0" width="24.9023" x="0" y="0"/>
  <path d="M12.4512 27.3682C19.2627 27.3682 24.9023 21.7163 24.9023 14.917C24.9023 8.10547 19.2505 2.46582 12.439 2.46582C5.63965 2.46582 0 8.10547 0 14.917C0 21.7163 5.65186 27.3682 12.4512 27.3682ZM12.4512 16.8945C11.3525 16.8945 10.4858 16.0156 10.4858 14.9292C10.4858 14.1602 10.9253 13.501 11.5967 13.147L11.5967 7.09229C11.5967 6.61621 11.9629 6.25 12.439 6.25C12.915 6.25 13.2935 6.61621 13.2935 7.09229L13.2935 13.1592C13.9771 13.4888 14.4165 14.1602 14.4165 14.9292C14.4165 16.0156 13.5376 16.8945 12.4512 16.8945ZM11.1328 3.125L13.7451 3.125L13.7451 1.34277C13.7451 0.610352 13.1714 0 12.439 0C11.731 0 11.1328 0.610352 11.1328 1.34277ZM20.0562 5.85938L21.8506 7.73926L23.2178 6.35986C23.4985 6.0791 23.6572 5.70068 23.6572 5.37109C23.6572 4.6875 23.1079 4.13818 22.3999 4.13818C21.9849 4.13818 21.6919 4.26025 21.3989 4.54102Z" fill="#5ac8f5"/>
 </g>
</svg>
