<?xml version="1.0" encoding="UTF-8"?>
<!--Generator: Apple Native CoreSVG 175.5-->
<!DOCTYPE svg
PUBLIC "-//W3C//DTD SVG 1.1//EN"
       "http://www.w3.org/Graphics/SVG/1.1/DTD/svg11.dtd">
<svg version="1.1" xmlns="http://www.w3.org/2000/svg" xmlns:xlink="http://www.w3.org/1999/xlink" width="27.7588" height="25.9888">
 <g>
  <rect height="25.9888" opacity="0" width="27.7588" x="0" y="0"/>
  <path d="M0 15.2344C0 16.1499 0.622559 16.7725 1.55029 16.7725L2.6123 16.7725L2.6123 17.9321C2.6123 22.1313 8.02002 25.9644 13.8794 25.9644C19.7388 25.9644 25.1465 22.1313 25.1465 17.9321L25.1465 16.7725L26.2085 16.7725C27.1362 16.7725 27.7588 16.1499 27.7588 15.2344L27.7588 10.7422C27.7588 9.81445 27.1362 9.19189 26.2085 9.19189L25.1465 9.19189L25.1465 8.04443C25.1465 3.84521 19.7388 0 13.8794 0C8.02002 0 2.6123 3.84521 2.6123 8.04443L2.6123 9.19189L1.55029 9.19189C0.622559 9.19189 0 9.81445 0 10.7422ZM8.03223 15.3687C6.72607 15.3687 5.66406 14.2944 5.66406 12.9883C5.66406 11.6821 6.72607 10.6079 8.03223 10.6079C9.36279 10.6079 10.4126 11.6821 10.4126 12.9883C10.4126 14.2944 9.36279 15.3687 8.03223 15.3687ZM19.7144 15.3687C18.396 15.3687 17.3462 14.2944 17.3462 12.9883C17.3462 11.6821 18.396 10.6079 19.7144 10.6079C21.0327 10.6079 22.0947 11.6821 22.0947 12.9883C22.0947 14.2944 21.0327 15.3687 19.7144 15.3687Z" fill="#5ac8f5"/>
 </g>
</svg>
