<?xml version="1.0" encoding="UTF-8"?>
<!--Generator: Apple Native CoreSVG 175.5-->
<!DOCTYPE svg
PUBLIC "-//W3C//DTD SVG 1.1//EN"
       "http://www.w3.org/Graphics/SVG/1.1/DTD/svg11.dtd">
<svg version="1.1" xmlns="http://www.w3.org/2000/svg" xmlns:xlink="http://www.w3.org/1999/xlink" width="30.4932" height="22.4487">
 <g>
  <rect height="22.4487" opacity="0" width="30.4932" x="0" y="0"/>
  <path d="M18.0664 5.31006C19.5312 5.31006 20.7275 4.11377 20.7275 2.64893C20.7275 1.19629 19.5312 0 18.0664 0C16.6016 0 15.4053 1.19629 15.4053 2.64893C15.4053 4.11377 16.6016 5.31006 18.0664 5.31006ZM13.7207 20.3857C13.4155 22.0337 15.8813 22.4243 16.1865 20.752L17.4438 13.8916C17.5659 13.2568 17.1509 12.561 16.4185 12.4634L12.2925 11.8774L14.8438 9.32617C15.0879 9.06982 15.4541 9.06982 15.6982 9.32617L22.8149 16.4429C23.291 16.9067 24.0845 16.9556 24.5728 16.4429C25.0488 15.9302 25.061 15.1733 24.5728 14.6851L15.1367 5.24902C14.563 4.67529 13.7817 4.3335 12.9395 4.3335L7.48291 4.3335C7.15332 4.3335 6.83594 4.46777 6.604 4.69971L2.86865 8.44727C2.38037 8.93555 2.38037 9.7168 2.86865 10.2051C3.35693 10.6934 4.12598 10.6934 4.61426 10.2051L8.00781 6.82373L10.1929 6.82373C10.4248 6.82373 10.5225 7.03125 10.3638 7.18994L6.99463 10.5469C5.3833 12.1704 6.23779 14.9292 8.81348 14.9292L14.7095 14.9292ZM6.65283 15.5273L6.32324 19.2993L1.24512 19.2993C0.561523 19.2993 0 19.8608 0 20.5444C0 21.228 0.561523 21.7896 1.24512 21.7896L7.48291 21.7896C8.10547 21.7896 8.60596 21.3135 8.71582 20.6909L9.5459 16.1133L8.81348 16.1133C7.95898 16.1133 7.22656 15.8936 6.65283 15.5273ZM25.2441 21.7896L28.9795 21.7896C29.8218 21.7896 30.4932 21.106 30.4932 20.2637C30.4932 19.4336 29.8218 18.75 28.9795 18.75L25.2441 18.75C24.3896 18.75 23.7061 19.4336 23.7061 20.2637C23.7061 21.106 24.3896 21.7896 25.2441 21.7896ZM27.7954 19.519L28.9185 19.519L28.9185 18.3105C28.9185 17.2974 28.1494 16.5161 27.1484 16.5161L25.8667 16.5161C25.5493 16.5161 25.293 16.7725 25.293 17.0898C25.293 17.4072 25.5493 17.6514 25.8667 17.6514L27.1484 17.6514C27.5269 17.6514 27.7954 17.9321 27.7954 18.3105Z" fill="#5ac8f5"/>
 </g>
</svg>
