<?xml version="1.0" encoding="UTF-8"?>
<!--Generator: Apple Native CoreSVG 175.5-->
<!DOCTYPE svg
PUBLIC "-//W3C//DTD SVG 1.1//EN"
       "http://www.w3.org/Graphics/SVG/1.1/DTD/svg11.dtd">
<svg version="1.1" xmlns="http://www.w3.org/2000/svg" xmlns:xlink="http://www.w3.org/1999/xlink" width="24.9023" height="24.9146">
 <g>
  <rect height="24.9146" opacity="0" width="24.9023" x="0" y="0"/>
  <path d="M12.4512 24.9023C19.2627 24.9023 24.9023 19.2505 24.9023 12.4512C24.9023 5.63965 19.2505 0 12.439 0C5.63965 0 0 5.63965 0 12.4512C0 19.2505 5.65186 24.9023 12.4512 24.9023Z" fill="#5ac8f5" fill-opacity="0.25"/>
  <path d="M9.55811 18.689C9.17969 18.2983 9.17969 17.688 9.55811 17.334L14.7339 12.4634L9.55811 7.60498C9.16748 7.23877 9.17969 6.61621 9.57031 6.25C9.93652 5.896 10.5225 5.93262 10.9131 6.29883L16.1499 11.2183C16.8701 11.8896 16.8579 13.0493 16.1499 13.7085L10.9131 18.6401C10.5591 18.9819 9.8999 19.0063 9.55811 18.689Z" fill="#5ac8f5"/>
 </g>
</svg>
