<?xml version="1.0" encoding="UTF-8"?>
<!--Generator: Apple Native CoreSVG 175.5-->
<!DOCTYPE svg
PUBLIC "-//W3C//DTD SVG 1.1//EN"
       "http://www.w3.org/Graphics/SVG/1.1/DTD/svg11.dtd">
<svg version="1.1" xmlns="http://www.w3.org/2000/svg" xmlns:xlink="http://www.w3.org/1999/xlink" width="29.3457" height="23.0835">
 <g>
  <rect height="23.0835" opacity="0" width="29.3457" x="0" y="0"/>
  <path d="M6.15234 23.0591L22.0459 23.0591C26.1597 23.0591 29.3457 19.9463 29.3457 15.9668C29.3457 11.9507 26.0986 8.92334 21.6553 8.92334C20.0317 5.70068 17.0532 3.73535 13.4399 3.73535C8.70361 3.73535 4.6875 7.40967 4.26025 12.2803C1.81885 12.9761 0.170898 15.0269 0.170898 17.6147C0.170898 20.6299 2.35596 23.0591 6.15234 23.0591ZM6.12793 21.0938C3.62549 21.0938 2.13623 19.7388 2.13623 17.6758C2.13623 15.918 3.25928 14.6606 5.23682 14.1357C5.92041 13.9648 6.17676 13.6475 6.22559 12.9395C6.51855 8.80127 9.61914 5.70068 13.4399 5.70068C16.3696 5.70068 18.6523 7.33643 20.0195 10.144C20.3003 10.7422 20.6543 10.9497 21.3989 10.9497C25.2197 10.9497 27.3804 13.2568 27.3804 16.0156C27.3804 18.8599 25.0977 21.0938 22.1802 21.0938ZM1.70898 11.1084C2.64893 11.1084 3.40576 10.3516 3.40576 9.39941C3.40576 8.45947 2.64893 7.70264 1.70898 7.70264C0.756836 7.70264 0 8.45947 0 9.39941C0 10.3516 0.756836 11.1084 1.70898 11.1084ZM19.6045 3.21045C20.4834 3.21045 21.2036 2.49023 21.2036 1.61133C21.2036 0.732422 20.4834 0 19.6045 0C18.7256 0 18.0054 0.732422 18.0054 1.61133C18.0054 2.49023 18.7256 3.21045 19.6045 3.21045ZM24.7437 7.43408C26.062 7.43408 27.124 6.37207 27.124 5.0293C27.124 3.69873 26.062 2.63672 24.7437 2.63672C23.4009 2.63672 22.3267 3.69873 22.3267 5.0293C22.3267 6.37207 23.4009 7.43408 24.7437 7.43408Z" fill="#5ac8f5" fill-opacity="0.5"/>
  <path d="M11.5479 18.8477C13.147 18.8477 14.1113 17.7002 14.1602 16.4551C14.1724 16.0278 13.916 15.7349 13.5254 15.7349C13.1592 15.7349 12.9761 15.9424 12.8784 16.3574C12.7441 16.98 12.3779 17.6392 11.5479 17.6392C10.3394 17.6392 9.96094 16.3452 9.96094 14.9414C9.96094 13.623 10.3638 12.2925 11.5356 12.2925C12.3657 12.2925 12.6953 12.9395 12.8418 13.562C12.9395 13.9771 13.1226 14.1846 13.4888 14.1846C13.8794 14.1846 14.1357 13.9038 14.1235 13.4644C14.0747 12.2192 13.1104 11.084 11.5112 11.084C9.52148 11.084 8.61816 12.8174 8.61816 14.9414C8.61816 17.0288 9.43604 18.8477 11.5479 18.8477ZM17.4561 18.8477C19.2261 18.8477 20.3491 17.334 20.3491 14.9658C20.3491 12.5854 19.2261 11.084 17.4561 11.084C15.6738 11.084 14.5386 12.5854 14.5386 14.9658C14.5386 17.334 15.6738 18.8477 17.4561 18.8477ZM17.4561 17.6392C16.4917 17.6392 15.8936 16.6504 15.8936 14.9658C15.8936 13.2812 16.4917 12.2925 17.4561 12.2925C18.4082 12.2925 19.0063 13.2812 19.0063 14.9658C19.0063 16.6504 18.4082 17.6392 17.4561 17.6392Z" fill="#5ac8f5"/>
 </g>
</svg>
