<?xml version="1.0" encoding="UTF-8"?>
<!--Generator: Apple Native CoreSVG 175.5-->
<!DOCTYPE svg
PUBLIC "-//W3C//DTD SVG 1.1//EN"
       "http://www.w3.org/Graphics/SVG/1.1/DTD/svg11.dtd">
<svg version="1.1" xmlns="http://www.w3.org/2000/svg" xmlns:xlink="http://www.w3.org/1999/xlink" width="32.666" height="26.8188">
 <g>
  <rect height="26.8188" opacity="0" width="32.666" x="0" y="0"/>
  <path d="M0 5.35889C0 10.3516 4.5166 17.749 8.75244 17.749L9.30176 17.749C13.5376 17.749 18.0542 10.3516 18.0542 5.35889C18.0542 2.66113 16.7236 1.28174 14.1479 1.28174L12.854 1.28174L12.854 3.24707L14.2456 3.24707C15.4785 3.24707 16.0889 3.97949 16.0889 5.33447C16.0889 9.2041 12.5 15.7837 9.021 15.7837C5.54199 15.7837 1.96533 9.2041 1.96533 5.33447C1.96533 3.97949 2.57568 3.24707 3.79639 3.24707L5.18799 3.24707L5.18799 1.28174L3.89404 1.28174C1.33057 1.28174 0 2.66113 0 5.35889ZM14.2212 26.8188C17.9321 26.8188 19.8608 23.8647 20.8862 17.9077C21.6675 13.4644 22.7417 12.0728 24.5239 12.0728C26.5747 12.0728 27.5635 14.1479 27.7466 18.396L29.7119 18.396C29.3457 12.8784 27.8198 10.1074 24.5239 10.1074C21.5454 10.1074 19.9341 12.1338 18.9575 17.4683C18.0908 22.2656 17.0044 24.8535 14.0991 24.8535C11.4624 24.8535 9.97314 21.9971 9.98535 16.9556L8.02002 16.9556C8.00781 23.291 10.2539 26.8188 14.2212 26.8188ZM5.79834 4.08936C6.79932 4.08936 7.62939 3.25928 7.62939 2.24609C7.62939 1.23291 6.79932 0.402832 5.79834 0.402832C4.78516 0.402832 3.95508 1.23291 3.95508 2.24609C3.95508 3.25928 4.78516 4.08936 5.79834 4.08936ZM12.2314 4.08936C13.2446 4.08936 14.0747 3.25928 14.0747 2.24609C14.0747 1.23291 13.2446 0.402832 12.2314 0.402832C11.2305 0.402832 10.4004 1.23291 10.4004 2.24609C10.4004 3.25928 11.2305 4.08936 12.2314 4.08936ZM28.8086 25.1953C30.9326 25.1953 32.666 23.4741 32.666 21.3257C32.666 19.2017 30.9326 17.4805 28.8086 17.4683C26.6724 17.4561 24.939 19.2017 24.939 21.3257C24.939 23.4741 26.6724 25.1953 28.8086 25.1953ZM28.8086 23.4741C27.6245 23.4741 26.6479 22.5098 26.6479 21.3257C26.6479 20.1294 27.6245 19.1772 28.8086 19.1772C29.9927 19.1772 30.957 20.1294 30.957 21.3257C30.957 22.5098 29.9927 23.4741 28.8086 23.4741Z" fill="#5ac8f5"/>
 </g>
</svg>
