<?xml version="1.0" encoding="UTF-8"?>
<!--Generator: Apple Native CoreSVG 175.5-->
<!DOCTYPE svg
PUBLIC "-//W3C//DTD SVG 1.1//EN"
       "http://www.w3.org/Graphics/SVG/1.1/DTD/svg11.dtd">
<svg version="1.1" xmlns="http://www.w3.org/2000/svg" xmlns:xlink="http://www.w3.org/1999/xlink" width="24.9023" height="24.9146">
 <g>
  <rect height="24.9146" opacity="0" width="24.9023" x="0" y="0"/>
  <path d="M12.4512 24.9023C19.2627 24.9023 24.9023 19.2505 24.9023 12.4512C24.9023 5.63965 19.2505 0 12.439 0C5.63965 0 0 5.63965 0 12.4512C0 19.2505 5.65186 24.9023 12.4512 24.9023ZM12.4512 22.8271C6.68945 22.8271 2.0874 18.2129 2.0874 12.4512C2.0874 6.68945 6.67725 2.0752 12.439 2.0752C18.2007 2.0752 22.8271 6.68945 22.8271 12.4512C22.8271 18.2129 18.2129 22.8271 12.4512 22.8271ZM8.99658 18.3838L15.9058 18.3838C17.2363 18.3838 17.9321 17.7002 17.9321 16.3818L17.9321 10.3638C17.9321 9.04541 17.2363 8.37402 15.9058 8.37402L14.0991 8.37402L14.0991 9.60693L15.8936 9.60693C16.4307 9.60693 16.6992 9.87549 16.6992 10.4248L16.6992 16.3452C16.6992 16.8823 16.4307 17.1631 15.8936 17.1631L9.00879 17.1631C8.47168 17.1631 8.20312 16.8945 8.20312 16.3452L8.20312 10.4248C8.20312 9.87549 8.47168 9.60693 9.00879 9.60693L10.8154 9.60693L10.8154 8.37402L8.99658 8.37402C7.67822 8.37402 6.98242 9.05762 6.97021 10.3638L6.97021 16.3818C6.98242 17.688 7.67822 18.3838 8.99658 18.3838ZM12.439 13.5864C12.7808 13.5864 13.0493 13.3301 13.0493 13.0005L13.0493 6.82373L13.0249 6.25L13.562 6.82373L14.1113 7.39746C14.209 7.50732 14.3555 7.56836 14.5386 7.56836C14.8682 7.56836 15.1001 7.34863 15.1001 7.03125C15.1001 6.88477 15.0513 6.73828 14.917 6.62842L12.8784 4.65088C12.7319 4.50439 12.5854 4.44336 12.439 4.44336C12.2925 4.44336 12.146 4.5166 12.0117 4.65088L9.96094 6.61621C9.82666 6.75049 9.79004 6.88477 9.79004 7.03125C9.79004 7.34863 10.022 7.56836 10.3394 7.56836C10.5103 7.56836 10.6689 7.50732 10.7666 7.39746L11.3159 6.82373L11.8652 6.25L11.8408 6.82373L11.8408 13.0005C11.8408 13.3301 12.1094 13.5864 12.439 13.5864Z" fill="#5ac8f5"/>
 </g>
</svg>
