<?xml version="1.0" encoding="UTF-8"?>
<!--Generator: Apple Native CoreSVG 175.5-->
<!DOCTYPE svg
PUBLIC "-//W3C//DTD SVG 1.1//EN"
       "http://www.w3.org/Graphics/SVG/1.1/DTD/svg11.dtd">
<svg version="1.1" xmlns="http://www.w3.org/2000/svg" xmlns:xlink="http://www.w3.org/1999/xlink" width="21.8158" height="29.2358">
 <g>
  <rect height="29.2358" opacity="0" width="21.8158" x="0" y="0"/>
  <path d="M8.74205 5.33447C10.2069 5.33447 11.391 4.13818 11.391 2.64893C11.391 1.18408 10.2069 0 8.74205 0C7.25279 0 6.0565 1.18408 6.0565 2.64893C6.0565 4.13818 7.25279 5.33447 8.74205 5.33447ZM14.3329 29.0649C15.0409 29.0649 15.5902 28.5034 15.5902 27.8198L15.5902 20.8862C15.5902 20.5933 15.4315 20.1782 15.0409 19.9219L10.5853 16.9556L10.5853 9.41162C10.5853 9.25293 10.7196 9.10645 10.8905 9.10645L20.5707 9.10645C21.2665 9.10645 21.8158 8.54492 21.8158 7.86133C21.8158 7.17773 21.2665 6.61621 20.5707 6.61621L6.80113 6.61621C5.62925 6.61621 4.99449 7.03125 4.39634 7.77588L1.14927 11.7676C0.368022 12.7197 1.00279 14.0991 2.01597 14.0991L5.60484 14.0991L5.60484 15.8203C5.60484 16.9556 6.2396 18.0176 7.26499 18.5669L13.0877 21.7041L13.0877 27.8198C13.0877 28.5034 13.6493 29.0649 14.3329 29.0649ZM4.33531 11.6821L5.67808 10.0098L5.67808 11.6821ZM0.29478 28.6377C0.770854 29.1748 1.5521 29.1992 2.07701 28.7476L6.97203 24.4629C7.21617 24.2432 7.31382 24.1455 7.39927 23.9136L8.70542 20.6665L6.70347 19.5923C6.50816 19.4824 6.31285 19.3604 6.12974 19.2261L5.14097 22.7539L0.41685 26.8799C-0.0836381 27.3193-0.144673 28.1372 0.29478 28.6377Z" fill="#5ac8f5"/>
 </g>
</svg>
