<?xml version="1.0" encoding="UTF-8"?>
<!--Generator: Apple Native CoreSVG 175.5-->
<!DOCTYPE svg
PUBLIC "-//W3C//DTD SVG 1.1//EN"
       "http://www.w3.org/Graphics/SVG/1.1/DTD/svg11.dtd">
<svg version="1.1" xmlns="http://www.w3.org/2000/svg" xmlns:xlink="http://www.w3.org/1999/xlink" width="25.8301" height="25.5981">
 <g>
  <rect height="25.5981" opacity="0" width="25.8301" x="0" y="0"/>
  <path d="M3.83301 19.9463L6.92139 19.9463L6.92139 17.981L3.85742 17.981C2.63672 17.981 1.96533 17.3218 1.96533 16.0522L1.96533 3.91846C1.96533 2.64893 2.63672 1.98975 3.85742 1.98975L16.0522 1.98975C17.2607 1.98975 17.9443 2.64893 17.9443 3.91846L17.9443 6.5918L19.9097 6.5918L19.9097 3.80859C19.9097 1.29395 18.6279 0.0244141 16.0889 0.0244141L3.83301 0.0244141C1.26953 0.0244141 0 1.29395 0 3.80859L0 16.1621C0 18.6768 1.26953 19.9463 3.83301 19.9463Z" fill="#5ac8f5" fill-opacity="0.5"/>
  <path d="M9.75342 25.5981L22.0093 25.5981C24.5483 25.5981 25.8301 24.3286 25.8301 21.814L25.8301 9.46045C25.8301 6.9458 24.5483 5.67627 22.0093 5.67627L9.75342 5.67627C7.18994 5.67627 5.92041 6.93359 5.92041 9.46045L5.92041 21.814C5.92041 24.3286 7.18994 25.5981 9.75342 25.5981ZM9.77783 23.6328C8.56934 23.6328 7.88574 22.9736 7.88574 21.7041L7.88574 9.57031C7.88574 8.30078 8.56934 7.6416 9.77783 7.6416L21.9727 7.6416C23.1812 7.6416 23.8647 8.30078 23.8647 9.57031L23.8647 21.7041C23.8647 22.9736 23.1812 23.6328 21.9727 23.6328ZM10.2295 15.6372C10.2295 16.2354 10.6567 16.6382 11.2793 16.6382L14.8682 16.6382L14.8682 20.2393C14.8682 20.8496 15.271 21.2769 15.8691 21.2769C16.4795 21.2769 16.9067 20.8618 16.9067 20.2393L16.9067 16.6382L20.5078 16.6382C21.1182 16.6382 21.5454 16.2354 21.5454 15.6372C21.5454 15.0269 21.1182 14.5996 20.5078 14.5996L16.9067 14.5996L16.9067 11.0107C16.9067 10.3882 16.4795 9.96094 15.8691 9.96094C15.271 9.96094 14.8682 10.3882 14.8682 11.0107L14.8682 14.5996L11.2793 14.5996C10.6445 14.5996 10.2295 15.0269 10.2295 15.6372Z" fill="#5ac8f5"/>
 </g>
</svg>
