<?xml version="1.0" encoding="UTF-8"?>
<!--Generator: Apple Native CoreSVG 175.5-->
<!DOCTYPE svg
PUBLIC "-//W3C//DTD SVG 1.1//EN"
       "http://www.w3.org/Graphics/SVG/1.1/DTD/svg11.dtd">
<svg version="1.1" xmlns="http://www.w3.org/2000/svg" xmlns:xlink="http://www.w3.org/1999/xlink" width="24.1516" height="25.7994">
 <g>
  <rect height="25.7994" opacity="0" width="24.1516" x="0" y="0"/>
  <path d="M3.83301 24.1119L18.1641 24.1119C20.3613 24.1119 21.6309 22.8423 21.6309 20.3277L21.6309 7.27838L19.6655 9.24372L19.6655 20.23C19.6655 21.4996 18.9819 22.1465 18.1396 22.1465L3.86963 22.1465C2.64893 22.1465 1.96533 21.4996 1.96533 20.23L1.96533 6.37506C1.96533 5.10553 2.64893 4.44635 3.86963 4.44635L14.9902 4.44635L16.9556 2.48102L3.83301 2.48102C1.29395 2.48102 0 3.75055 0 6.2652L0 20.3277C0 22.8546 1.29395 24.1119 3.83301 24.1119Z" fill="#5ac8f5" fill-opacity="0.5"/>
  <path d="M8.27637 16.2017L10.6567 15.1641L22.0581 3.77497L20.3857 2.12702L8.99658 13.5162L7.89795 15.8111C7.80029 16.0186 8.04443 16.2994 8.27637 16.2017ZM22.9614 2.88385L23.8403 1.98053C24.2554 1.54108 24.2554 0.955142 23.8403 0.55231L23.5596 0.259341C23.1812-0.119077 22.583-0.0702488 22.1802 0.320376L21.2891 1.19928Z" fill="#5ac8f5"/>
 </g>
</svg>
