<?xml version="1.0" encoding="UTF-8"?>
<!--Generator: Apple Native CoreSVG 175.5-->
<!DOCTYPE svg
PUBLIC "-//W3C//DTD SVG 1.1//EN"
       "http://www.w3.org/Graphics/SVG/1.1/DTD/svg11.dtd">
<svg version="1.1" xmlns="http://www.w3.org/2000/svg" xmlns:xlink="http://www.w3.org/1999/xlink" width="24.9023" height="24.9146">
 <g>
  <rect height="24.9146" opacity="0" width="24.9023" x="0" y="0"/>
  <path d="M12.4512 24.9146C19.2627 24.9146 24.9023 19.2749 24.9023 12.4634C24.9023 5.66406 19.2505 0.012207 12.439 0.012207C5.63965 0.012207 0 5.66406 0 12.4634C0 19.2749 5.65186 24.9146 12.4512 24.9146Z" fill="#5ac8f5" fill-opacity="0.25"/>
  <path d="M9.49707 11.3159L8.55713 11.3159C7.06787 11.3159 5.87158 10.1318 5.87158 8.66699C5.87158 7.17773 7.06787 5.98145 8.55713 5.98145C10.022 5.98145 11.2305 7.18994 11.2305 8.66699L11.2305 9.61914L13.501 9.61914L13.501 8.66699C13.501 7.18994 14.6973 5.98145 16.1743 5.98145C17.6514 5.98145 18.8477 7.17773 18.8477 8.66699C18.8477 10.1318 17.6514 11.3159 16.1743 11.3159L15.2222 11.3159L15.2222 13.623L16.1743 13.623C17.6514 13.623 18.8477 14.8071 18.8477 16.2842C18.8477 17.7612 17.6514 18.9575 16.1743 18.9575C14.6973 18.9575 13.501 17.749 13.501 16.2842L13.501 15.332L11.2305 15.332L11.2305 16.2842C11.2305 17.749 10.022 18.9575 8.55713 18.9575C7.06787 18.9575 5.87158 17.7612 5.87158 16.2842C5.87158 14.8071 7.06787 13.623 8.55713 13.623L9.49707 13.623ZM11.2305 13.6353L13.501 13.6353L13.501 11.3037L11.2305 11.3037ZM8.55713 9.63135L9.49707 9.63135L9.49707 8.66699C9.49707 8.14209 9.06982 7.70264 8.55713 7.70264C8.03223 7.70264 7.59277 8.14209 7.59277 8.66699C7.59277 9.19189 8.02002 9.63135 8.55713 9.63135ZM16.1743 9.63135C16.6992 9.63135 17.1387 9.19189 17.1387 8.66699C17.1387 8.14209 16.687 7.70264 16.1743 7.70264C15.6494 7.70264 15.2222 8.14209 15.2222 8.66699L15.2222 9.63135ZM8.55713 15.3076C8.03223 15.3076 7.59277 15.7471 7.59277 16.272C7.59277 16.7969 8.02002 17.2363 8.55713 17.2363C9.06982 17.2363 9.49707 16.7969 9.49707 16.272L9.49707 15.3076ZM16.1743 15.3076L15.2222 15.3076L15.2222 16.272C15.2222 16.7969 15.6494 17.2363 16.1743 17.2363C16.6992 17.2363 17.1387 16.7969 17.1387 16.272C17.1387 15.7471 16.687 15.3076 16.1743 15.3076Z" fill="#5ac8f5"/>
 </g>
</svg>
