<?xml version="1.0" encoding="UTF-8"?>
<!--Generator: Apple Native CoreSVG 175.5-->
<!DOCTYPE svg
PUBLIC "-//W3C//DTD SVG 1.1//EN"
       "http://www.w3.org/Graphics/SVG/1.1/DTD/svg11.dtd">
<svg version="1.1" xmlns="http://www.w3.org/2000/svg" xmlns:xlink="http://www.w3.org/1999/xlink" width="24.9023" height="24.9146">
 <g>
  <rect height="24.9146" opacity="0" width="24.9023" x="0" y="0"/>
  <path d="M12.4512 24.9023C19.2627 24.9023 24.9023 19.2505 24.9023 12.4512C24.9023 5.63965 19.2505 0 12.439 0C5.63965 0 0 5.63965 0 12.4512C0 19.2505 5.65186 24.9023 12.4512 24.9023ZM12.4512 22.8271C6.68945 22.8271 2.0874 18.2129 2.0874 12.4512C2.0874 6.68945 6.67725 2.0752 12.439 2.0752C18.2007 2.0752 22.8271 6.68945 22.8271 12.4512C22.8271 18.2129 18.2129 22.8271 12.4512 22.8271ZM5.95703 17.4316L11.0107 17.4316C11.3892 17.4316 11.6821 17.1387 11.6821 16.6992C11.6821 16.2476 11.3892 15.9912 11.0107 15.9912L7.4585 15.9912L7.4585 15.9058L9.85107 13.1226C10.7544 12.0728 11.4258 11.1938 11.4258 9.97314C11.4258 8.27637 10.1807 7.18994 8.26416 7.18994C6.81152 7.18994 5.51758 8.11768 5.2002 9.36279C5.17578 9.52148 5.15137 9.65576 5.15137 9.80225C5.15137 10.2417 5.40771 10.5347 5.83496 10.5347C6.17676 10.5347 6.35986 10.3271 6.53076 9.96094C6.83594 9.04541 7.44629 8.59375 8.3252 8.59375C9.31396 8.59375 9.94873 9.2041 9.94873 10.1074C9.94873 10.9009 9.31396 11.5845 8.72803 12.2681L5.50537 16.0522C5.32227 16.2598 5.23682 16.4673 5.23682 16.7114C5.23682 17.1509 5.51758 17.4316 5.95703 17.4316ZM16.6138 17.7246C18.6035 17.7246 20.0195 16.4185 20.0195 14.1846C20.0195 12.085 18.5791 10.9253 16.9922 10.9253C15.6982 10.9253 14.8682 11.6577 14.5752 12.4634L14.4897 12.4634C14.4897 12.4268 14.4897 12.4023 14.4897 12.3535C14.4897 10.0464 15.4175 8.59375 16.7969 8.59375C17.4927 8.59375 17.981 8.93555 18.2983 9.41162C18.5059 9.7168 18.689 9.86328 19.0308 9.86328C19.3604 9.86328 19.6289 9.59473 19.6289 9.19189C19.6289 9.0332 19.6045 8.88672 19.5312 8.72803C19.2139 7.91016 18.2373 7.18994 16.8579 7.18994C14.502 7.18994 13.0493 9.021 13.0493 12.7319C13.0493 14.2212 13.2935 15.3076 13.7085 16.0767C14.3311 17.2485 15.3809 17.7246 16.6138 17.7246ZM16.5527 16.3818C15.4175 16.3818 14.624 15.4907 14.624 14.2334C14.624 13.0371 15.4053 12.1826 16.5527 12.1826C17.7002 12.1826 18.4814 13.0249 18.4814 14.2456C18.4814 15.5518 17.7246 16.3818 16.5527 16.3818Z" fill="#5ac8f5"/>
 </g>
</svg>
