<?xml version="1.0" encoding="UTF-8"?>
<!--Generator: Apple Native CoreSVG 175.5-->
<!DOCTYPE svg
PUBLIC "-//W3C//DTD SVG 1.1//EN"
       "http://www.w3.org/Graphics/SVG/1.1/DTD/svg11.dtd">
<svg version="1.1" xmlns="http://www.w3.org/2000/svg" xmlns:xlink="http://www.w3.org/1999/xlink" width="21.4111" height="28.4058">
 <g>
  <rect height="28.4058" opacity="0" width="21.4111" x="0" y="0"/>
  <path d="M3.83301 28.4058L17.9443 28.4058C20.1294 28.4058 21.4111 27.1362 21.4111 24.6216L21.4111 10.7788C21.4111 8.26416 20.1172 6.99463 17.5781 6.99463L3.83301 6.99463C1.28174 6.99463 0 8.25195 0 10.7788L0 24.6216C0 27.1362 1.28174 28.4058 3.83301 28.4058ZM2.66113 5.0293L18.7378 5.0293C18.5547 3.91846 18.0298 3.30811 16.8091 3.30811L4.58984 3.30811C3.36914 3.30811 2.84424 3.91846 2.66113 5.0293ZM4.78516 1.64795L16.626 1.64795C16.5527 0.610352 15.9546 0.0732422 14.8315 0.0732422L6.56738 0.0732422C5.44434 0.0732422 4.8584 0.610352 4.78516 1.64795ZM9.28955 26.4648C9.09424 26.416 8.77686 26.0864 8.77686 25.5249C8.77686 23.4253 10.9253 20.8984 14.3677 20.8984C16.5894 20.8984 18.5303 22.0215 19.4458 23.5962L19.4458 24.5361C19.4458 25.8057 18.6279 26.4648 17.5537 26.4648ZM14.3677 19.5435C12.915 19.5435 11.6577 18.2373 11.6577 16.5771C11.6455 14.917 12.9272 13.6475 14.3799 13.6475C15.8325 13.6475 17.0654 14.8804 17.0654 16.5527C17.0654 18.2373 15.8203 19.5435 14.3677 19.5435ZM3.86963 26.4648C2.64893 26.4648 1.97754 25.8057 1.97754 24.5361L1.97754 23.3398C2.70996 22.0337 4.37012 20.874 6.56738 20.874C7.6416 20.874 8.47168 21.1182 9.25293 21.6187C8.05664 22.4976 7.21436 24.231 7.21436 25.5249C7.21436 25.8911 7.27539 26.2085 7.40967 26.4648ZM6.56738 19.7144C5.29785 19.7144 4.21143 18.5791 4.19922 17.1021C4.19922 15.6616 5.29785 14.563 6.56738 14.563C7.82471 14.563 8.92334 15.6372 8.92334 17.0898C8.92334 18.5791 7.83691 19.7144 6.56738 19.7144Z" fill="#5ac8f5"/>
 </g>
</svg>
