<?xml version="1.0" encoding="UTF-8"?>
<!--Generator: Apple Native CoreSVG 175.5-->
<!DOCTYPE svg
PUBLIC "-//W3C//DTD SVG 1.1//EN"
       "http://www.w3.org/Graphics/SVG/1.1/DTD/svg11.dtd">
<svg version="1.1" xmlns="http://www.w3.org/2000/svg" xmlns:xlink="http://www.w3.org/1999/xlink" width="28.8818" height="22.6929">
 <g>
  <rect height="22.6929" opacity="0" width="28.8818" x="0" y="0"/>
  <path d="M0 16.5283C0 18.1274 0.915527 19.2627 2.6123 19.2627L26.2817 19.2627C27.9663 19.2627 28.8818 18.1274 28.8818 16.5283L28.8818 12.8784C28.8818 10.8276 28.6011 9.59473 27.3438 8.21533L26.1108 6.88477L24.8291 3.21045C24.1333 1.2085 22.7783 0.366211 21.0938 0.170898C20.2759 0.0732422 17.6025 0 14.4409 0C11.2915 0 8.61816 0.0732422 7.80029 0.170898C6.10352 0.366211 4.74854 1.2085 4.05273 3.21045L2.771 6.88477L1.55029 8.21533C0.280762 9.59473 0 10.8276 0 12.8784ZM1.59912 16.04L1.59912 12.8784C1.59912 11.2183 1.79443 10.3516 2.81982 9.19189L4.26025 7.55615L5.49316 3.93066C5.99365 2.45361 6.84814 1.94092 7.9834 1.80664C8.76465 1.70898 11.2427 1.59912 14.4409 1.59912C17.6514 1.59912 20.1172 1.70898 20.8984 1.80664C22.0337 1.94092 22.8882 2.45361 23.3887 3.93066L24.6216 7.55615L26.0742 9.19189C27.0874 10.3516 27.2827 11.2183 27.2827 12.8784L27.2827 16.04C27.2827 17.0044 26.8921 17.6636 25.8423 17.6636L3.03955 17.6636C2.00195 17.6636 1.59912 17.0044 1.59912 16.04ZM6.604 7.34863L22.2778 7.34863C22.8271 7.34863 23.0225 6.9458 22.8394 6.43311L22.1191 4.29688C21.8506 3.50342 21.4355 3.23486 20.7275 3.13721C19.9341 3.02734 17.7246 2.94189 14.4409 2.94189C11.1572 2.94189 8.95996 3.02734 8.1543 3.13721C7.4585 3.23486 7.03125 3.50342 6.7627 4.29688L6.04248 6.43311C5.87158 6.9458 6.05469 7.34863 6.604 7.34863ZM5.01709 14.4165C5.71289 14.4165 6.22559 13.9038 6.22559 13.1958L6.22559 11.4014C6.22559 10.6934 5.71289 10.1929 5.01709 10.1929C4.30908 10.1929 3.79639 10.7056 3.79639 11.4014L3.79639 13.1958C3.79639 13.8916 4.30908 14.4165 5.01709 14.4165ZM11.8286 13.8672L17.0166 13.8672C17.5903 13.8672 17.9688 13.4888 17.9688 12.8906L17.9688 11.7065C17.9688 11.1084 17.5903 10.7544 17.0166 10.7544L11.8286 10.7544C11.2793 10.7544 10.9009 11.1084 10.9009 11.7065L10.9009 12.8906C10.9009 13.4888 11.2793 13.8672 11.8286 13.8672ZM23.9868 14.4165C24.6948 14.4165 25.2197 13.9038 25.2197 13.1958L25.2197 11.4014C25.2197 10.6934 24.6948 10.1929 23.9868 10.1929C23.3032 10.1929 22.7783 10.7178 22.7783 11.4014L22.7783 13.1958C22.7783 13.8916 23.3032 14.4165 23.9868 14.4165ZM2.24609 22.644L3.67432 22.644C4.58984 22.644 5.29785 21.936 5.29785 21.0327L5.29785 18.5425L0.622559 17.8711L0.622559 21.0327C0.622559 21.936 1.33057 22.644 2.24609 22.644ZM25.2075 22.644L26.6479 22.644C27.5635 22.644 28.2593 21.936 28.2593 21.0327L28.2593 17.8711L23.5962 18.5425L23.5962 21.0327C23.5962 21.936 24.292 22.644 25.2075 22.644Z" fill="#5ac8f5"/>
 </g>
</svg>
