<?xml version="1.0" encoding="UTF-8"?>
<!--Generator: Apple Native CoreSVG 175.5-->
<!DOCTYPE svg
PUBLIC "-//W3C//DTD SVG 1.1//EN"
       "http://www.w3.org/Graphics/SVG/1.1/DTD/svg11.dtd">
<svg version="1.1" xmlns="http://www.w3.org/2000/svg" xmlns:xlink="http://www.w3.org/1999/xlink" width="26.9043" height="26.8188">
 <g>
  <rect height="26.8188" opacity="0" width="26.9043" x="0" y="0"/>
  <path d="M7.50732 26.8188C8.10547 26.8188 8.52051 26.5015 9.26514 25.8423L13.4766 22.0947L21.3135 22.0947C24.9512 22.0947 26.9043 20.0806 26.9043 16.5039L26.9043 7.15332C26.9043 3.57666 24.9512 1.5625 21.3135 1.5625L5.59082 1.5625C1.95312 1.5625 0 3.56445 0 7.15332L0 16.5039C0 20.0928 1.95312 22.0947 5.59082 22.0947L6.17676 22.0947L6.17676 25.2686C6.17676 26.2085 6.65283 26.8188 7.50732 26.8188ZM8.00781 24.585L8.00781 21.0449C8.00781 20.3857 7.75146 20.1294 7.09229 20.1294L5.59082 20.1294C3.125 20.1294 1.96533 18.8721 1.96533 16.4917L1.96533 7.15332C1.96533 4.77295 3.125 3.52783 5.59082 3.52783L21.3135 3.52783C23.7671 3.52783 24.939 4.77295 24.939 7.15332L24.939 16.4917C24.939 18.8721 23.7671 20.1294 21.3135 20.1294L13.4033 20.1294C12.7197 20.1294 12.3779 20.2271 11.9141 20.7031ZM11.4868 18.1641L16.0889 18.1641C16.5527 18.1641 16.9189 17.8345 16.9189 17.3706C16.9189 16.9189 16.5527 16.5771 16.0889 16.5771L14.6851 16.5771L14.6851 10.8154C14.6851 10.2051 14.3799 9.80225 13.8062 9.80225L11.6821 9.80225C11.2183 9.80225 10.8521 10.1562 10.8521 10.5957C10.8521 11.0596 11.2183 11.3892 11.6821 11.3892L12.8906 11.3892L12.8906 16.5771L11.4868 16.5771C11.0229 16.5771 10.6689 16.9189 10.6689 17.3706C10.6689 17.8345 11.0229 18.1641 11.4868 18.1641ZM13.3667 7.92236C14.1968 7.92236 14.8438 7.26318 14.8438 6.44531C14.8438 5.61523 14.1968 4.96826 13.3667 4.96826C12.5488 4.96826 11.8896 5.61523 11.8896 6.44531C11.8896 7.26318 12.5488 7.92236 13.3667 7.92236Z" fill="#5ac8f5"/>
 </g>
</svg>
