<?xml version="1.0" encoding="UTF-8"?>
<!--Generator: Apple Native CoreSVG 175.5-->
<!DOCTYPE svg
PUBLIC "-//W3C//DTD SVG 1.1//EN"
       "http://www.w3.org/Graphics/SVG/1.1/DTD/svg11.dtd">
<svg version="1.1" xmlns="http://www.w3.org/2000/svg" xmlns:xlink="http://www.w3.org/1999/xlink" width="24.9023" height="24.9146">
 <g>
  <rect height="24.9146" opacity="0" width="24.9023" x="0" y="0"/>
  <path d="M12.4512 24.9023C19.2627 24.9023 24.9023 19.2505 24.9023 12.4512C24.9023 5.63965 19.2505 0 12.439 0C5.63965 0 0 5.63965 0 12.4512C0 19.2505 5.65186 24.9023 12.4512 24.9023Z" fill="#5ac8f5" fill-opacity="0.25"/>
  <path d="M6.89697 12.2925C6.39648 12.2925 5.99365 11.8896 5.99365 11.3892C5.99365 10.9009 6.39648 10.5103 6.89697 10.5103L7.50732 10.5103L9.43604 10.6323L6.04248 7.38525C5.67627 7.00684 5.65186 6.40869 6.03027 6.04248C6.39648 5.66406 6.99463 5.66406 7.36084 6.05469L10.6445 9.46045L10.5225 7.4707L10.5225 6.86035C10.5225 6.35986 10.9131 5.96924 11.4014 5.96924C11.9019 5.96924 12.3047 6.35986 12.3047 6.86035L12.3047 11.2427C12.3047 11.9995 11.9141 12.2925 11.2549 12.2925ZM13.501 18.9209C13.0005 18.9209 12.5977 18.5303 12.5977 18.0298L12.5977 13.6353C12.5977 12.8906 12.9883 12.5977 13.6475 12.5977L18.0054 12.5977C18.5059 12.5977 18.9087 12.9883 18.9087 13.501C18.9087 13.9893 18.5059 14.3799 18.0054 14.3799L17.395 14.3799L15.4663 14.2578L18.8599 17.5049C19.2261 17.8711 19.2505 18.4814 18.8721 18.8477C18.5059 19.2261 17.9077 19.2261 17.5415 18.8354L14.2578 15.4297L14.3799 17.4194L14.3799 18.0298C14.3799 18.5303 13.9893 18.9209 13.501 18.9209Z" fill="#5ac8f5"/>
 </g>
</svg>
