<?xml version="1.0" encoding="UTF-8"?>
<!--Generator: Apple Native CoreSVG 175.5-->
<!DOCTYPE svg
PUBLIC "-//W3C//DTD SVG 1.1//EN"
       "http://www.w3.org/Graphics/SVG/1.1/DTD/svg11.dtd">
<svg version="1.1" xmlns="http://www.w3.org/2000/svg" xmlns:xlink="http://www.w3.org/1999/xlink" width="28.5889" height="34.5093">
 <g>
  <rect height="34.5093" opacity="0" width="28.5889" x="0" y="0"/>
  <path d="M15.5151 24.1333C15.1367 24.1577 14.7461 24.1699 14.3677 24.1699C9.41162 24.1699 5.28564 21.875 5.28564 17.2607C5.28564 16.6504 5.40771 16.0889 5.60303 15.5518C5.28564 15.1367 4.78516 14.978 3.85742 14.8315C3.58887 15.5884 3.44238 16.394 3.44238 17.2485C3.44238 22.8516 8.25195 26.001 14.2578 26.001C14.8193 26.001 15.3809 25.9766 15.9546 25.9277ZM11.1694 7.53174C11.3159 8.41064 11.4502 8.93555 11.7554 9.27734C13.4766 8.58154 15.3687 8.20312 17.2363 8.20312C22.3511 8.20312 26.7578 11.377 26.7578 16.1987C26.7578 20.6421 21.9727 24.4507 17.4438 24.4507C16.5649 24.4507 15.9302 24.1089 15.9302 23.5229C15.9302 22.4976 17.3584 21.814 19.1284 21.814C21.228 21.814 22.8271 23.3521 22.8271 25.4639C22.8271 26.9287 21.9971 28.3569 20.6299 29.2236C20.2759 29.48 20.0195 29.7363 20.0195 30.1758C20.0195 30.6274 20.3857 31.0181 20.9595 31.0181C21.228 31.0181 21.3867 30.9448 21.6187 30.7983C23.4985 29.5776 24.6582 27.5391 24.6582 25.4272C24.6582 22.3022 22.168 19.9585 18.9819 19.9585C16.1865 19.9585 14.0747 21.4233 14.0747 23.584C14.0747 25.2197 15.4419 26.2817 17.4438 26.2817C22.9614 26.2817 28.5889 21.7041 28.5889 16.2109C28.5889 10.4004 23.4131 6.35986 17.2241 6.35986C15.1611 6.35986 13.0737 6.7749 11.1694 7.53174ZM8.78906 19.0308C9.06982 19.0308 9.26514 18.8354 9.31396 18.5669C10.1318 14.1724 10.4858 13.623 14.8193 13.0371C15.1123 13.0005 15.3198 12.793 15.3198 12.5122C15.3198 12.2314 15.1123 12.0239 14.8193 11.9873C10.498 11.4014 9.94873 10.8643 9.31396 6.46973C9.27734 6.18896 9.06982 5.98145 8.78906 5.98145C8.52051 5.98145 8.31299 6.17676 8.26416 6.45752C7.4707 10.8521 7.09229 11.4014 2.75879 11.9873C2.46582 12.0239 2.2583 12.2314 2.2583 12.5122C2.2583 12.793 2.46582 13.0005 2.75879 13.0371C7.08008 13.623 7.62939 14.1479 8.26416 18.5547C8.30078 18.8354 8.49609 19.0308 8.78906 19.0308ZM3.27148 10.0464C3.479 10.0464 3.6499 9.8999 3.68652 9.69238C4.08936 7.61719 3.93066 7.55615 6.17676 7.20215C6.40869 7.16553 6.54297 6.99463 6.54297 6.78711C6.54297 6.57959 6.40869 6.40869 6.17676 6.37207C3.93066 5.99365 4.08936 5.92041 3.68652 3.90625C3.6499 3.68652 3.49121 3.52783 3.27148 3.52783C3.05176 3.52783 2.90527 3.67432 2.85645 3.90625C2.44141 5.92041 2.6001 5.99365 0.366211 6.37207C0.146484 6.40869 0 6.57959 0 6.78711C0 7.01904 0.146484 7.16553 0.390625 7.20215C2.6001 7.55615 2.44141 7.61719 2.85645 9.65576C2.90527 9.8877 3.03955 10.0464 3.27148 10.0464ZM7.22656 4.46777C7.36084 4.46777 7.4707 4.35791 7.49512 4.22363C7.75146 2.83203 7.67822 2.79541 9.21631 2.51465C9.36279 2.47803 9.44824 2.36816 9.44824 2.23389C9.44824 2.09961 9.36279 1.97754 9.21631 1.95312C7.66602 1.66016 7.72705 1.61133 7.49512 0.256348C7.4707 0.109863 7.37305 0 7.22656 0C7.08008 0 6.98242 0.109863 6.9458 0.256348C6.65283 1.61133 6.7627 1.66016 5.22461 1.95312C5.09033 1.97754 4.99268 2.09961 4.99268 2.23389C4.99268 2.38037 5.09033 2.47803 5.23682 2.51465C6.7627 2.75879 6.65283 2.83203 6.9458 4.19922C6.98242 4.35791 7.08008 4.46777 7.22656 4.46777Z" fill="#5ac8f5"/>
 </g>
</svg>
