<?xml version="1.0" encoding="UTF-8"?>
<!--Generator: Apple Native CoreSVG 175.5-->
<!DOCTYPE svg
PUBLIC "-//W3C//DTD SVG 1.1//EN"
       "http://www.w3.org/Graphics/SVG/1.1/DTD/svg11.dtd">
<svg version="1.1" xmlns="http://www.w3.org/2000/svg" xmlns:xlink="http://www.w3.org/1999/xlink" width="22.4731" height="22.4976">
 <g>
  <rect height="22.4976" opacity="0" width="22.4731" x="0" y="0"/>
  <path d="M3.83301 22.4976L18.6401 22.4976C21.2036 22.4976 22.4731 21.228 22.4731 18.7134L22.4731 3.80859C22.4731 1.29395 21.2036 0.0244141 18.6401 0.0244141L3.83301 0.0244141C1.28174 0.0244141 0 1.28174 0 3.80859L0 18.7134C0 21.2402 1.28174 22.4976 3.83301 22.4976ZM3.85742 20.5322C2.63672 20.5322 1.96533 19.8853 1.96533 18.6157L1.96533 3.90625C1.96533 2.63672 2.63672 1.98975 3.85742 1.98975L18.6157 1.98975C19.8242 1.98975 20.5078 2.63672 20.5078 3.90625L20.5078 18.6157C20.5078 19.8853 19.8242 20.5322 18.6157 20.5322Z" fill="#5ac8f5" fill-opacity="0.5"/>
  <path d="M5.17578 13.6841L17.1997 13.6841C17.627 13.6841 17.9443 13.3545 17.9443 12.9272C17.9443 12.5122 17.627 12.1826 17.1997 12.1826L5.17578 12.1826C4.72412 12.1826 4.40674 12.5122 4.40674 12.9272C4.40674 13.3545 4.72412 13.6841 5.17578 13.6841ZM5.17578 17.8589L13.9771 17.8589C14.4165 17.8589 14.7339 17.5293 14.7339 17.1143C14.7339 16.687 14.4165 16.3574 13.9771 16.3574L5.17578 16.3574C4.72412 16.3574 4.40674 16.687 4.40674 17.1143C4.40674 17.5293 4.72412 17.8589 5.17578 17.8589ZM4.44336 5.28564L4.44336 8.26416C4.44336 9.021 4.89502 9.47266 5.65186 9.47266L8.63037 9.47266C9.38721 9.47266 9.83887 9.021 9.83887 8.26416L9.83887 5.28564C9.83887 4.52881 9.38721 4.07715 8.63037 4.07715L5.65186 4.07715C4.89502 4.07715 4.44336 4.52881 4.44336 5.28564Z" fill="#5ac8f5"/>
 </g>
</svg>
