<?xml version="1.0" encoding="UTF-8"?>
<!--Generator: Apple Native CoreSVG 175.5-->
<!DOCTYPE svg
PUBLIC "-//W3C//DTD SVG 1.1//EN"
       "http://www.w3.org/Graphics/SVG/1.1/DTD/svg11.dtd">
<svg version="1.1" xmlns="http://www.w3.org/2000/svg" xmlns:xlink="http://www.w3.org/1999/xlink" width="22.4731" height="22.4976">
 <g>
  <rect height="22.4976" opacity="0" width="22.4731" x="0" y="0"/>
  <path d="M3.83301 22.4976L18.6401 22.4976C21.2036 22.4976 22.4731 21.228 22.4731 18.7134L22.4731 3.80859C22.4731 1.29395 21.2036 0.0244141 18.6401 0.0244141L3.83301 0.0244141C1.28174 0.0244141 0 1.28174 0 3.80859L0 18.7134C0 21.2402 1.28174 22.4976 3.83301 22.4976Z" fill="#5ac8f5" fill-opacity="0.25"/>
  <path d="M10.9253 17.2363C8.81348 17.2363 7.61719 16.1865 7.32422 15.3076C7.27539 15.1611 7.23877 15.0146 7.23877 14.8804C7.23877 14.3921 7.59277 14.0625 8.08105 14.0625C8.47168 14.0625 8.72803 14.27 8.94775 14.563C9.46045 15.271 10.0464 15.625 10.9009 15.625C12.6465 15.625 13.8184 13.9771 13.7939 11.2183L13.6963 11.2183C13.2935 12.146 12.3047 12.9761 10.6323 12.9761C8.66699 12.9761 6.87256 11.6333 6.87256 9.26514C6.87256 6.82373 8.54492 5.24902 11.1572 5.24902C13.9893 5.24902 15.625 7.21436 15.625 10.8398C15.625 15.0635 13.9771 17.2363 10.9253 17.2363ZM11.2305 11.5479C12.6343 11.5479 13.6475 10.5591 13.6475 9.2041C13.6475 7.78809 12.6099 6.75049 11.2305 6.75049C9.79004 6.75049 8.81348 7.71484 8.81348 9.17969C8.81348 10.5591 9.81445 11.5479 11.2305 11.5479Z" fill="#5ac8f5"/>
 </g>
</svg>
