<?xml version="1.0" encoding="UTF-8"?>
<!--Generator: Apple Native CoreSVG 175.5-->
<!DOCTYPE svg
PUBLIC "-//W3C//DTD SVG 1.1//EN"
       "http://www.w3.org/Graphics/SVG/1.1/DTD/svg11.dtd">
<svg version="1.1" xmlns="http://www.w3.org/2000/svg" xmlns:xlink="http://www.w3.org/1999/xlink" width="22.4731" height="22.4976">
 <g>
  <rect height="22.4976" opacity="0" width="22.4731" x="0" y="0"/>
  <path d="M3.83301 22.4976L18.6401 22.4976C21.2036 22.4976 22.4731 21.228 22.4731 18.7134L22.4731 3.80859C22.4731 1.29395 21.2036 0.0244141 18.6401 0.0244141L3.83301 0.0244141C1.28174 0.0244141 0 1.28174 0 3.80859L0 18.7134C0 21.2402 1.28174 22.4976 3.83301 22.4976ZM3.85742 20.5322C2.63672 20.5322 1.96533 19.8853 1.96533 18.6157L1.96533 3.90625C1.96533 2.63672 2.63672 1.98975 3.85742 1.98975L18.6157 1.98975C19.8242 1.98975 20.5078 2.63672 20.5078 3.90625L20.5078 18.6157C20.5078 19.8853 19.8242 20.5322 18.6157 20.5322ZM7.55615 16.8335C8.14209 16.8335 8.48389 16.4795 8.48389 15.8569L8.48389 8.75244L8.55713 8.75244L13.8794 16.2476C14.209 16.6992 14.4531 16.8335 14.856 16.8335C15.4541 16.8335 15.8203 16.4673 15.8203 15.8203L15.8203 6.39648C15.8203 5.78613 15.4785 5.41992 14.8926 5.41992C14.3311 5.41992 13.9893 5.81055 13.9893 6.39648L13.9893 13.6353L13.916 13.6353L8.59375 6.00586C8.27637 5.56641 8.00781 5.41992 7.60498 5.41992C7.00684 5.41992 6.66504 5.82275 6.66504 6.44531L6.66504 15.8569C6.66504 16.4551 6.99463 16.8335 7.55615 16.8335Z" fill="#5ac8f5"/>
 </g>
</svg>
