<?xml version="1.0" encoding="UTF-8"?>
<!--Generator: Apple Native CoreSVG 175.5-->
<!DOCTYPE svg
PUBLIC "-//W3C//DTD SVG 1.1//EN"
       "http://www.w3.org/Graphics/SVG/1.1/DTD/svg11.dtd">
<svg version="1.1" xmlns="http://www.w3.org/2000/svg" xmlns:xlink="http://www.w3.org/1999/xlink" width="24.9023" height="24.9146">
 <g>
  <rect height="24.9146" opacity="0" width="24.9023" x="0" y="0"/>
  <path d="M12.4512 24.9023C19.2627 24.9023 24.9023 19.2505 24.9023 12.4512C24.9023 5.63965 19.2505 0 12.439 0C5.63965 0 0 5.63965 0 12.4512C0 19.2505 5.65186 24.9023 12.4512 24.9023ZM12.4512 22.8271C6.68945 22.8271 2.0874 18.2129 2.0874 12.4512C2.0874 6.68945 6.67725 2.0752 12.439 2.0752C18.2007 2.0752 22.8271 6.68945 22.8271 12.4512C22.8271 18.2129 18.2129 22.8271 12.4512 22.8271ZM12.439 18.9209C15.1978 18.9209 17.0532 17.1265 17.0532 14.4531C17.0532 13.1226 16.4917 11.9507 16.0889 11.0474C15.3564 9.47266 14.1602 7.50732 13.1348 5.92041C12.9272 5.61523 12.7075 5.48096 12.439 5.48096C12.1704 5.48096 11.9507 5.61523 11.7432 5.92041C10.7178 7.50732 9.52148 9.47266 8.78906 11.0474C8.38623 11.9507 7.82471 13.1226 7.82471 14.4531C7.82471 17.1265 9.68018 18.9209 12.439 18.9209Z" fill="#5ac8f5"/>
 </g>
</svg>
