<?xml version="1.0" encoding="UTF-8"?>
<!--Generator: Apple Native CoreSVG 175.5-->
<!DOCTYPE svg
PUBLIC "-//W3C//DTD SVG 1.1//EN"
       "http://www.w3.org/Graphics/SVG/1.1/DTD/svg11.dtd">
<svg version="1.1" xmlns="http://www.w3.org/2000/svg" xmlns:xlink="http://www.w3.org/1999/xlink" width="30.127" height="26.3184">
 <g>
  <rect height="26.3184" opacity="0" width="30.127" x="0" y="0"/>
  <path d="M15.7227 17.1936C11.0229 17.3767 7.53174 20.575 7.53174 23.3826C7.53174 24.2126 8.17871 24.7131 9.25293 24.7131L22.7417 24.7131C22.9004 24.7131 23.0469 24.7009 23.1934 24.6765ZM1.74561 19.7449L4.21143 19.7449C5.37109 19.7449 5.95703 19.1711 5.95703 18.0237L5.95703 15.4968C5.95703 14.3616 5.37109 13.7878 4.21143 13.7878L1.74561 13.7878C0.585938 13.7878 0 14.3494 0 15.4968L0 18.0237C0 19.1711 0.585938 19.7449 1.74561 19.7449ZM3.24707 4.70581L3.24707 9.22241C3.24707 10.3699 3.83301 10.9314 4.99268 10.9314L9.47266 10.9314ZM24.7681 17.4255L28.3691 17.4255C29.541 17.4255 30.127 16.8518 30.127 15.7166L30.127 8.59985C30.127 7.4646 29.541 6.89087 28.3691 6.89087L24.7681 6.89087C23.6084 6.89087 23.0225 7.4646 23.0225 8.59985L23.0225 15.7166C23.0225 16.8518 23.6084 17.4255 24.7681 17.4255ZM11.9507 6.79321C12.8906 5.78003 14.1724 5.08423 15.6128 4.98657L15.6128 3.28979C15.6128 2.15454 15.0269 1.58081 13.855 1.58081L6.72607 1.58081ZM19.0186 13.8611C19.6411 13.1042 20.0195 12.0789 20.0195 10.9558C20.0195 8.47778 18.1519 6.63452 16.0034 6.63452C14.8926 6.63452 13.8672 7.15942 13.1348 7.97729ZM26.5503 26.0437C26.9165 26.4099 27.5146 26.4099 27.8809 26.0437C28.2349 25.6653 28.2471 25.0916 27.8809 24.7131L3.68652 0.494385C3.30811 0.115967 2.72217 0.128174 2.34375 0.494385C1.98975 0.848389 1.98975 1.47095 2.34375 1.82495Z" fill="#5ac8f5"/>
 </g>
</svg>
