<?xml version="1.0" encoding="UTF-8"?>
<!--Generator: Apple Native CoreSVG 175.5-->
<!DOCTYPE svg
PUBLIC "-//W3C//DTD SVG 1.1//EN"
       "http://www.w3.org/Graphics/SVG/1.1/DTD/svg11.dtd">
<svg version="1.1" xmlns="http://www.w3.org/2000/svg" xmlns:xlink="http://www.w3.org/1999/xlink" width="26.2451" height="22.7173">
 <g>
  <rect height="22.7173" opacity="0" width="26.2451" x="0" y="0"/>
  <path d="M17.6636 6.68945L17.6636 14.5142C17.6636 15.1367 18.2495 15.3442 18.811 15.0146L25.1221 11.2305C25.6348 10.9253 25.6104 10.2783 25.1099 9.97314L18.7988 6.18896C18.2373 5.87158 17.6636 6.0791 17.6636 6.68945ZM0.45166 11.6455L19.4702 11.6455L19.4702 9.55811L0.45166 9.55811Z" fill="#5ac8f5"/>
  <path d="M0 21.7529C0 22.3389 0.390625 22.7173 0.976562 22.7173L25.2563 22.7173C25.7935 22.7173 26.2451 22.29 26.2451 21.7407C26.2451 21.2036 25.7935 20.7642 25.2563 20.7642L2.30713 20.7642C2.05078 20.7642 1.96533 20.6787 1.96533 20.4224L1.96533 1.12305C1.96533 0.598145 1.52588 0.146484 0.98877 0.146484C0.439453 0.146484 0 0.598145 0 1.12305Z" fill="#5ac8f5" fill-opacity="0.5"/>
 </g>
</svg>
