<?xml version="1.0" encoding="UTF-8"?>
<!--Generator: Apple Native CoreSVG 175.5-->
<!DOCTYPE svg
PUBLIC "-//W3C//DTD SVG 1.1//EN"
       "http://www.w3.org/Graphics/SVG/1.1/DTD/svg11.dtd">
<svg version="1.1" xmlns="http://www.w3.org/2000/svg" xmlns:xlink="http://www.w3.org/1999/xlink" width="24.9023" height="24.9146">
 <g>
  <rect height="24.9146" opacity="0" width="24.9023" x="0" y="0"/>
  <path d="M12.4512 24.9146C19.2627 24.9146 24.9023 19.2749 24.9023 12.4634C24.9023 5.66406 19.2505 0.012207 12.439 0.012207C5.63965 0.012207 0 5.66406 0 12.4634C0 19.2749 5.65186 24.9146 12.4512 24.9146ZM7.93457 13.8306C7.08008 13.8306 6.604 13.3667 6.604 12.5366L6.604 9.021C6.604 8.19092 7.08008 7.73926 7.93457 7.73926L11.7188 7.73926L11.7188 6.33545C11.7188 5.93262 12.0239 5.61523 12.4268 5.61523C12.8052 5.61523 13.1226 5.93262 13.1226 6.33545L13.1226 7.73926L16.1621 7.73926C16.7236 7.73926 16.9922 7.89795 17.2974 8.21533L18.9697 9.80225C19.6777 10.4614 19.6533 11.1084 18.9819 11.7554L17.2974 13.3545C16.9922 13.6597 16.7236 13.8306 16.1621 13.8306L13.1226 13.8306L13.1226 17.8955L14.8438 17.8955C15.2344 17.8955 15.5518 18.2129 15.5518 18.6035C15.5518 18.9819 15.2344 19.2993 14.8438 19.2993L9.99756 19.2993C9.60693 19.2993 9.28955 18.9819 9.28955 18.6035C9.28955 18.2129 9.60693 17.8955 9.99756 17.8955L11.7188 17.8955L11.7188 13.8306Z" fill="#5ac8f5"/>
 </g>
</svg>
