<?xml version="1.0" encoding="UTF-8"?>
<!--Generator: Apple Native CoreSVG 175.5-->
<!DOCTYPE svg
PUBLIC "-//W3C//DTD SVG 1.1//EN"
       "http://www.w3.org/Graphics/SVG/1.1/DTD/svg11.dtd">
<svg version="1.1" xmlns="http://www.w3.org/2000/svg" xmlns:xlink="http://www.w3.org/1999/xlink" width="24.9023" height="24.9146">
 <g>
  <rect height="24.9146" opacity="0" width="24.9023" x="0" y="0"/>
  <path d="M12.4512 24.9146C19.2627 24.9146 24.9023 19.2749 24.9023 12.4634C24.9023 5.66406 19.2505 0.012207 12.439 0.012207C5.63965 0.012207 0 5.66406 0 12.4634C0 19.2749 5.65186 24.9146 12.4512 24.9146Z" fill="#5ac8f5" fill-opacity="0.25"/>
  <path d="M3.88184 13.6719L3.88184 13.5498C3.88184 10.1807 8.31299 8.60596 12.4512 8.60596C16.5894 8.60596 21.0205 10.1807 21.0205 13.5498L21.0205 13.6719C21.0205 14.6118 20.5566 15.3442 19.6045 15.3442C18.8965 15.3442 18.0664 15.3076 16.6504 14.8804C15.8447 14.6362 15.4907 14.2456 15.4663 13.3545L15.4541 12.561C15.4541 12.4268 15.3809 12.3291 15.1978 12.2681C14.7705 12.1338 13.7817 11.9629 12.4512 11.9629C11.1206 11.9629 10.1318 12.1338 9.70459 12.2681C9.52148 12.3291 9.44824 12.4268 9.44824 12.561L9.43604 13.3545C9.42383 14.2456 9.06982 14.6362 8.25195 14.8804C6.83594 15.3076 6.00586 15.3442 5.29785 15.3442C4.3457 15.3442 3.88184 14.6118 3.88184 13.6719Z" fill="#5ac8f5"/>
 </g>
</svg>
