<?xml version="1.0" encoding="UTF-8"?>
<!--Generator: Apple Native CoreSVG 175.5-->
<!DOCTYPE svg
PUBLIC "-//W3C//DTD SVG 1.1//EN"
       "http://www.w3.org/Graphics/SVG/1.1/DTD/svg11.dtd">
<svg version="1.1" xmlns="http://www.w3.org/2000/svg" xmlns:xlink="http://www.w3.org/1999/xlink" width="24.9023" height="24.9146">
 <g>
  <rect height="24.9146" opacity="0" width="24.9023" x="0" y="0"/>
  <path d="M12.4512 24.9023C19.2627 24.9023 24.9023 19.2505 24.9023 12.4512C24.9023 5.63965 19.2505 0 12.439 0C5.63965 0 0 5.63965 0 12.4512C0 19.2505 5.65186 24.9023 12.4512 24.9023ZM12.4512 22.8271C6.68945 22.8271 2.0874 18.2129 2.0874 12.4512C2.0874 6.68945 6.67725 2.0752 12.439 2.0752C18.2007 2.0752 22.8271 6.68945 22.8271 12.4512C22.8271 18.2129 18.2129 22.8271 12.4512 22.8271Z" fill="#5ac8f5" fill-opacity="0.5"/>
  <path d="M6.7749 9.24072C6.38428 9.98535 6.49414 10.3516 7.17773 10.73L10.2539 12.3901L7.16553 14.1846C6.46973 14.5874 6.37207 14.9536 6.78711 15.686L6.81152 15.7349C7.22656 16.4795 7.60498 16.5771 8.30078 16.1499L11.2671 14.4409L11.2671 17.8711C11.2671 18.7012 11.5479 18.9697 12.4146 18.9697L12.4878 18.9697C13.3301 18.9697 13.6108 18.7012 13.6108 17.8711L13.6108 14.4409L16.5771 16.1499C17.3096 16.6016 17.6758 16.4917 18.0664 15.7349L18.0908 15.686C18.4692 14.9414 18.3838 14.5752 17.7124 14.1846L14.624 12.3901L17.7002 10.73C18.396 10.3516 18.4937 9.98535 18.103 9.24072L18.0664 9.15527C17.688 8.39844 17.3096 8.28857 16.5527 8.74023L13.6108 10.4492L13.6108 7.01904C13.6108 6.21338 13.3301 5.94482 12.4878 5.94482L12.4146 5.94482C11.5479 5.94482 11.2671 6.21338 11.2671 7.01904L11.2671 10.4492L8.3252 8.74023C7.56836 8.30078 7.18994 8.39844 6.81152 9.15527Z" fill="#5ac8f5"/>
 </g>
</svg>
