<?xml version="1.0" encoding="UTF-8"?>
<!--Generator: Apple Native CoreSVG 175.5-->
<!DOCTYPE svg
PUBLIC "-//W3C//DTD SVG 1.1//EN"
       "http://www.w3.org/Graphics/SVG/1.1/DTD/svg11.dtd">
<svg version="1.1" xmlns="http://www.w3.org/2000/svg" xmlns:xlink="http://www.w3.org/1999/xlink" width="32.4852" height="29.895">
 <g>
  <rect height="29.895" opacity="0" width="32.4852" x="0" y="0"/>
  <path d="M16.2365 22.4365C13.7829 22.4365 12.1594 21.582 12.1594 20.3247C12.1594 19.0674 13.7829 18.2251 16.2365 18.2251C18.7023 18.2251 20.3259 19.0674 20.3259 20.3247C20.3259 21.582 18.6901 22.4365 16.2365 22.4365ZM16.2365 6.34766C19.2394 6.34766 21.9738 4.30908 21.9738 1.96533C21.9738 1.2207 21.571 0.805664 20.6677 0.524902C19.508 0.183105 17.9699 0 16.2365 0C14.5153 0 12.9772 0.183105 11.8176 0.524902C10.9143 0.805664 10.5114 1.2085 10.5114 1.96533C10.5114 4.30908 13.2336 6.34766 16.2365 6.34766ZM15.26 13.8794L17.2253 13.8794L17.2253 5.61523L15.26 5.61523ZM12.9284 13.7695L16.2365 15.4663L19.5568 13.7695C18.6657 13.3789 17.5427 13.1592 16.2365 13.1592C14.9426 13.1592 13.8195 13.3789 12.9284 13.7695ZM16.2365 23.9136C19.5812 23.9136 21.8029 22.4731 21.8029 20.3247C21.8029 18.1885 19.5812 16.748 16.2365 16.748C12.8918 16.748 10.6823 18.1885 10.6823 20.3247C10.6823 22.4731 12.8918 23.9136 16.2365 23.9136ZM4.54218 10.6934C0.599311 8.66699-1.79327 13.8428 1.67353 15.5273L9.66914 19.4214C10.1086 17.5049 11.9396 16.1987 14.4909 15.7837ZM27.9431 10.6934L17.9943 15.7837C20.5456 16.1987 22.3767 17.5049 22.8039 19.4214L30.8117 15.5273C34.2785 13.8428 31.8859 8.66699 27.9431 10.6934ZM3.95625 22.7783C0.135444 24.5728 2.85761 29.6021 6.33662 27.832L12.9162 24.4873C10.8654 23.7427 9.57148 22.2778 9.57148 20.3247C9.57148 20.2759 9.57148 20.2148 9.57148 20.166ZM28.5168 22.7783L22.9138 20.166C22.9138 20.2148 22.9138 20.2759 22.9138 20.3247C22.9138 22.2778 21.6076 23.7427 19.569 24.4873L26.1486 27.832C29.6276 29.6021 32.3376 24.5728 28.5168 22.7783Z" fill="#5ac8f5"/>
 </g>
</svg>
