<?xml version="1.0" encoding="UTF-8"?>
<!--Generator: Apple Native CoreSVG 175.5-->
<!DOCTYPE svg
PUBLIC "-//W3C//DTD SVG 1.1//EN"
       "http://www.w3.org/Graphics/SVG/1.1/DTD/svg11.dtd">
<svg version="1.1" xmlns="http://www.w3.org/2000/svg" xmlns:xlink="http://www.w3.org/1999/xlink" width="22.3022" height="23.3401">
 <g>
  <rect height="23.3401" opacity="0" width="22.3022" x="0" y="0"/>
  <path d="M4.22363 11.3832C6.84814 11.3832 8.43506 9.22255 8.43506 5.78017C8.43506 2.33779 6.83594 0.213764 4.22363 0.213764C1.59912 0.213764 0 2.34999 0 5.78017C0 9.23476 1.58691 11.3832 4.22363 11.3832ZM4.22363 9.67421C2.80762 9.67421 1.96533 8.24599 1.96533 5.78017C1.96533 3.35097 2.81982 1.91054 4.22363 1.91054C5.62744 1.91054 6.46973 3.33876 6.46973 5.78017C6.46973 8.24599 5.63965 9.67421 4.22363 9.67421ZM18.0908 23.1264C20.7153 23.1264 22.3022 20.9657 22.3022 17.5355C22.3022 14.081 20.7031 11.9569 18.0908 11.9569C15.4663 11.9569 13.8672 14.0932 13.8672 17.5355C13.8672 20.9779 15.4541 23.1264 18.0908 23.1264ZM18.0908 21.4296C16.6748 21.4296 15.8325 19.9892 15.8325 17.5355C15.8325 15.0941 16.687 13.6659 18.0908 13.6659C19.4946 13.6659 20.3369 15.0819 20.3369 17.5355C20.3369 19.9892 19.5068 21.4296 18.0908 21.4296ZM3.34473 23.1752C3.79639 23.4315 4.45557 23.3949 4.84619 22.8334L19.1895 1.62978C19.6167 1.01943 19.3604 0.396869 18.9087 0.128315C18.4814-0.103619 17.8833-0.0547908 17.4561 0.555561L3.11279 21.6981C2.67334 22.3207 2.89307 22.9066 3.34473 23.1752Z" fill="#5ac8f5"/>
 </g>
</svg>
