<?xml version="1.0" encoding="UTF-8"?>
<!--Generator: Apple Native CoreSVG 175.5-->
<!DOCTYPE svg
PUBLIC "-//W3C//DTD SVG 1.1//EN"
       "http://www.w3.org/Graphics/SVG/1.1/DTD/svg11.dtd">
<svg version="1.1" xmlns="http://www.w3.org/2000/svg" xmlns:xlink="http://www.w3.org/1999/xlink" width="41.461" height="25.2075">
 <g>
  <rect height="25.2075" opacity="0" width="41.461" x="0" y="0"/>
  <path d="M17.6939 18.0054C20.0987 18.0054 22.9185 18.7256 25.0059 19.8242C25.5675 20.1172 26.1778 20.0073 26.544 19.5312L34.857 8.93555C35.6871 7.88574 35.5528 6.7749 34.5152 5.96924C31.0972 3.33252 24.5665 1.29395 17.6939 1.29395C10.8214 1.29395 4.2906 3.33252 0.884835 5.96924C-0.152762 6.7749-0.28704 7.88574 0.530831 8.93555L8.84382 19.5312C9.21003 20.0073 9.83259 20.1172 10.3941 19.8242C12.4815 18.7256 15.2891 18.0054 17.6939 18.0054ZM17.6939 16.04C15.4722 16.04 12.8843 16.626 10.3941 17.6392C10.0889 17.7612 9.95466 17.7368 9.71052 17.4316L2.49616 8.23975C2.25202 7.92236 2.30085 7.6416 2.61823 7.40967C6.81745 4.76074 12.2008 3.25928 17.6939 3.25928C23.1871 3.25928 28.5704 4.76074 32.7696 7.40967C33.0992 7.6416 33.1358 7.92236 32.9039 8.23975L25.6773 17.4316C25.4332 17.7368 25.2989 17.7612 24.9937 17.6392C22.5035 16.626 19.9278 16.04 17.6939 16.04Z" fill="#5ac8f5" fill-opacity="0.5"/>
  <path d="M39.8619 20.7886C40.7286 20.7886 41.461 20.0806 41.461 19.2505C41.461 18.4082 40.7408 17.7124 39.8619 17.7124C38.9708 17.7124 38.2628 18.4082 38.2628 19.2505C38.2628 20.0806 38.983 20.7886 39.8619 20.7886ZM39.8619 15.3687C40.46 15.3687 40.8751 14.9536 40.8995 14.3311L41.1558 5.68848C41.1802 4.90723 40.6676 4.38232 39.8619 4.38232C39.0562 4.38232 38.5313 4.90723 38.5557 5.68848L38.8121 14.3311C38.8365 14.9536 39.2637 15.3687 39.8619 15.3687ZM17.6939 25.2075C19.1954 25.2075 20.4405 23.9624 20.4405 22.4609C20.4405 20.9351 19.2076 19.7021 17.6939 19.7021C16.1925 19.7021 14.9473 20.9351 14.9473 22.4609C14.9473 23.9746 16.1802 25.2075 17.6939 25.2075ZM17.6939 23.584C17.0714 23.584 16.5587 23.0713 16.5587 22.4609C16.5587 21.8262 17.0714 21.3013 17.6939 21.3013C18.3165 21.3013 18.8414 21.8262 18.8414 22.4609C18.8414 23.0713 18.3165 23.584 17.6939 23.584ZM15.8873 21.3013L17.6329 20.3735L6.13386 0.610352C5.87751 0.158691 5.31599-0.0244141 4.76667 0.256348C4.26618 0.500488 4.15632 1.13525 4.42487 1.59912Z" fill="#5ac8f5"/>
 </g>
</svg>
