<?xml version="1.0" encoding="UTF-8"?>
<!--Generator: Apple Native CoreSVG 175.5-->
<!DOCTYPE svg
PUBLIC "-//W3C//DTD SVG 1.1//EN"
       "http://www.w3.org/Graphics/SVG/1.1/DTD/svg11.dtd">
<svg version="1.1" xmlns="http://www.w3.org/2000/svg" xmlns:xlink="http://www.w3.org/1999/xlink" width="18.8692" height="29.5532">
 <g>
  <rect height="29.5532" opacity="0" width="18.8692" x="0" y="0"/>
  <path d="M9.43563 14.4287C12.109 14.4287 14.7823 14.2578 16.9796 13.9282C18.6764 13.6841 19.2989 12.3901 18.5665 10.7056L14.941 2.53906C14.1842 0.817871 12.9268 0 11.0103 0L7.84872 0C5.94442 0 4.6871 0.817871 3.93026 2.53906L0.304774 10.7056C-0.427648 12.3901 0.182703 13.6841 1.89169 13.9282C4.07675 14.2578 6.75009 14.4287 9.43563 14.4287ZM8.41024 16.2476L10.4488 16.2476L10.4488 13.8916L8.41024 13.8916ZM7.55575 29.541L11.3033 29.541C14.4527 29.541 16.3082 27.9175 16.3082 25.1709C16.3082 23.4497 15.7711 20.8862 14.8311 18.2983C14.2818 16.7969 13.0977 15.918 11.4132 15.918L7.44589 15.918C5.76132 15.918 4.57723 16.7969 4.02792 18.2983C3.10018 20.8862 2.55087 23.4497 2.55087 25.1709C2.55087 27.9175 4.40634 29.541 7.55575 29.541Z" fill="#5ac8f5"/>
 </g>
</svg>
