<?xml version="1.0" encoding="UTF-8"?>
<!--Generator: Apple Native CoreSVG 175.5-->
<!DOCTYPE svg
PUBLIC "-//W3C//DTD SVG 1.1//EN"
       "http://www.w3.org/Graphics/SVG/1.1/DTD/svg11.dtd">
<svg version="1.1" xmlns="http://www.w3.org/2000/svg" xmlns:xlink="http://www.w3.org/1999/xlink" width="20.5322" height="26.1841">
 <g>
  <rect height="26.1841" opacity="0" width="20.5322" x="0" y="0"/>
  <path d="M5.49316 6.89697C5.0415 6.89697 4.71191 6.54297 4.71191 6.10352C4.71191 5.67627 5.0415 5.34668 5.49316 5.34668L15.0513 5.34668C15.4907 5.34668 15.8203 5.67627 15.8203 6.10352C15.8203 6.54297 15.4907 6.89697 15.0513 6.89697ZM5.49316 11.2915C5.0415 11.2915 4.71191 10.9375 4.71191 10.498C4.71191 10.0708 5.0415 9.74121 5.49316 9.74121L15.0513 9.74121C15.4907 9.74121 15.8203 10.0708 15.8203 10.498C15.8203 10.9375 15.4907 11.2915 15.0513 11.2915ZM5.49316 15.686C5.0415 15.686 4.71191 15.3442 4.71191 14.917C4.71191 14.4775 5.0415 14.1357 5.49316 14.1357L10.0098 14.1357C10.4736 14.1357 10.791 14.4775 10.791 14.917C10.791 15.3442 10.4736 15.686 10.0098 15.686ZM0 22.3511C0 24.9023 1.25732 26.1719 3.78418 26.1719L16.748 26.1719C19.2749 26.1719 20.5322 24.9023 20.5322 22.3511L20.5322 3.83301C20.5322 1.29395 19.2749 0 16.748 0L3.78418 0C1.25732 0 0 1.29395 0 3.83301Z" fill="#5ac8f5"/>
 </g>
</svg>
