<?xml version="1.0" encoding="UTF-8"?>
<!--Generator: Apple Native CoreSVG 175.5-->
<!DOCTYPE svg
PUBLIC "-//W3C//DTD SVG 1.1//EN"
       "http://www.w3.org/Graphics/SVG/1.1/DTD/svg11.dtd">
<svg version="1.1" xmlns="http://www.w3.org/2000/svg" xmlns:xlink="http://www.w3.org/1999/xlink" width="24.9023" height="24.9146">
 <g>
  <rect height="24.9146" opacity="0" width="24.9023" x="0" y="0"/>
  <path d="M12.4512 24.9023C19.2627 24.9023 24.9023 19.2505 24.9023 12.4512C24.9023 5.63965 19.2505 0 12.439 0C5.63965 0 0 5.63965 0 12.4512C0 19.2505 5.65186 24.9023 12.4512 24.9023ZM12.4512 22.8271C6.68945 22.8271 2.0874 18.2129 2.0874 12.4512C2.0874 6.68945 6.67725 2.0752 12.439 2.0752C18.2007 2.0752 22.8271 6.68945 22.8271 12.4512C22.8271 18.2129 18.2129 22.8271 12.4512 22.8271Z" fill="#5ac8f5" fill-opacity="0.5"/>
  <path d="M13.9404 17.2363L17.0288 12.8296C17.3096 12.439 17.1997 11.9385 16.8457 11.6943C16.4917 11.4502 15.979 11.5234 15.7104 11.9141L12.6343 16.3086ZM12.439 19.873C13.5254 19.873 14.3799 19.0186 14.3799 17.9321C14.3799 16.8579 13.5254 15.9912 12.439 15.9912C11.3647 15.9912 10.498 16.8579 10.498 17.9321C10.498 19.0186 11.3647 19.873 12.439 19.873ZM6.23779 10.5835C6.90918 10.5835 7.43408 10.0464 7.43408 9.38721C7.43408 8.71582 6.90918 8.17871 6.23779 8.17871C5.57861 8.17871 5.0415 8.71582 5.0415 9.38721C5.0415 10.0464 5.57861 10.5835 6.23779 10.5835ZM8.94775 8.00781C9.61914 8.00781 10.144 7.4585 10.144 6.79932C10.144 6.14014 9.61914 5.60303 8.94775 5.60303C8.28857 5.60303 7.75146 6.14014 7.75146 6.79932C7.75146 7.4585 8.28857 8.00781 8.94775 8.00781ZM12.439 6.92139C13.0859 6.92139 13.6353 6.37207 13.6353 5.7251C13.6353 5.05371 13.0859 4.52881 12.439 4.52881C11.7798 4.52881 11.2427 5.05371 11.2427 5.7251C11.2427 6.37207 11.7798 6.92139 12.439 6.92139ZM15.9302 8.00781C16.6016 8.00781 17.1265 7.4585 17.1265 6.79932C17.1265 6.14014 16.6016 5.59082 15.9302 5.59082C15.271 5.59082 14.7339 6.14014 14.7339 6.79932C14.7339 7.4585 15.271 8.00781 15.9302 8.00781ZM18.6401 10.5835C19.3115 10.5835 19.8364 10.0464 19.8364 9.38721C19.8364 8.71582 19.3115 8.17871 18.6401 8.17871C17.981 8.17871 17.4438 8.71582 17.4438 9.38721C17.4438 10.0464 17.981 10.5835 18.6401 10.5835Z" fill="#5ac8f5"/>
 </g>
</svg>
