<?xml version="1.0" encoding="UTF-8"?>
<!--Generator: Apple Native CoreSVG 175.5-->
<!DOCTYPE svg
PUBLIC "-//W3C//DTD SVG 1.1//EN"
       "http://www.w3.org/Graphics/SVG/1.1/DTD/svg11.dtd">
<svg version="1.1" xmlns="http://www.w3.org/2000/svg" xmlns:xlink="http://www.w3.org/1999/xlink" width="14.6973" height="27.9907">
 <g>
  <rect height="27.9907" opacity="0" width="14.6973" x="0" y="0"/>
  <path d="M1.51367 24.9268L7.38525 24.9268C11.9507 24.9268 14.6973 22.6929 14.6973 18.9575C14.6973 16.0156 12.6831 13.9771 9.70459 13.6108L9.70459 13.5132C11.9263 13.1104 13.5864 11.0352 13.5864 8.70361C13.5864 5.49316 11.084 3.35693 7.36084 3.35693L1.51367 3.35693C0.598145 3.35693 0 3.95508 0 4.87061L0 23.4131C0 24.3286 0.598145 24.9268 1.51367 24.9268ZM2.33154 12.7808L2.33154 5.40771L6.82373 5.40771C9.59473 5.40771 11.2549 6.67725 11.2549 8.94775C11.2549 11.4258 9.38721 12.7808 6.15234 12.7808ZM2.33154 22.876L2.33154 14.8438L6.73828 14.8438C10.3516 14.8438 12.3291 16.2231 12.3291 18.8599C12.3291 21.4844 10.4126 22.876 7.01904 22.876ZM4.50439 4.74854L4.50439 1.18408C4.50439 0.744629 4.15039 0.378418 3.71094 0.378418C3.25928 0.378418 2.90527 0.744629 2.90527 1.18408L2.90527 4.74854ZM8.34961 4.74854L8.34961 1.18408C8.34961 0.744629 7.99561 0.378418 7.54395 0.378418C7.10449 0.378418 6.75049 0.744629 6.75049 1.18408L6.75049 4.74854ZM4.50439 23.5474L2.90527 23.5474L2.90527 27.1973C2.90527 27.6367 3.25928 27.9907 3.71094 27.9907C4.15039 27.9907 4.50439 27.6367 4.50439 27.1973ZM8.34961 23.5474L6.75049 23.5474L6.75049 27.1973C6.75049 27.6367 7.10449 27.9907 7.54395 27.9907C7.99561 27.9907 8.34961 27.6367 8.34961 27.1973Z" fill="#5ac8f5"/>
 </g>
</svg>
