<?xml version="1.0" encoding="UTF-8"?>
<!--Generator: Apple Native CoreSVG 175.5-->
<!DOCTYPE svg
PUBLIC "-//W3C//DTD SVG 1.1//EN"
       "http://www.w3.org/Graphics/SVG/1.1/DTD/svg11.dtd">
<svg version="1.1" xmlns="http://www.w3.org/2000/svg" xmlns:xlink="http://www.w3.org/1999/xlink" width="24.9023" height="24.9146">
 <g>
  <rect height="24.9146" opacity="0" width="24.9023" x="0" y="0"/>
  <path d="M1.96533 7.27539C4.98047 10.4858 9.22852 12.3413 13.7451 12.3291C17.3096 12.3169 20.6909 11.1328 23.4497 8.95996L22.7539 7.59277C20.2393 9.69238 17.0776 10.8398 13.7451 10.8521C9.42383 10.8643 5.3833 8.98438 2.64893 5.76172ZM0.65918 14.2456C7.00684 19.6655 16.0889 20.6787 23.4131 16.8457L23.3765 15.1733C16.2598 19.2871 7.16553 18.2617 1.02539 12.5854ZM6.71387 22.6318L8.45947 23.0347C7.6416 21.0693 7.20215 18.9941 7.16553 16.8579C6.82373 10.791 9.43604 5.00488 14.0991 1.18408L12.5366 0.57373C7.91016 4.67529 5.35889 10.6445 5.68848 16.8823C5.71289 18.8354 6.06689 20.7642 6.71387 22.6318ZM14.7583 23.8403L16.1377 23.23C13.855 20.0073 12.6099 16.1865 12.6099 12.1948C12.6099 8.41064 13.7085 4.79736 15.7715 1.72119L14.3311 1.2085C12.2437 4.47998 11.1328 8.27637 11.1328 12.1948C11.1328 16.4062 12.4023 20.4224 14.7583 23.8403ZM21.9482 19.2993L22.937 18.1763C18.8354 15.8203 16.272 11.5112 16.2109 6.72607C16.1865 5.01709 16.4917 3.32031 17.1021 1.75781L15.6738 1.35498C15.0269 3.06396 14.7095 4.87061 14.7339 6.73828C14.7949 11.9263 17.5415 16.6626 21.9482 19.2993ZM7.15332 12.1826C8.19092 12.1826 9.04541 11.3159 9.04541 10.2661C9.04541 9.21631 8.19092 8.36182 7.15332 8.36182C6.09131 8.36182 5.23682 9.21631 5.23682 10.2661C5.23682 11.3159 6.09131 12.1826 7.15332 12.1826ZM16.5039 13.1958C17.5293 13.1958 18.3716 12.3535 18.3716 11.3037C18.3716 10.2783 17.5293 9.43604 16.5039 9.43604C15.4541 9.43604 14.6118 10.2783 14.6118 11.3037C14.6118 12.3535 15.4541 13.1958 16.5039 13.1958ZM12.8662 20.2515C13.916 20.2515 14.7583 19.4092 14.7583 18.3472C14.7583 17.2974 13.916 16.4429 12.8662 16.4429C11.8042 16.4429 10.9497 17.2974 10.9497 18.3472C10.9497 19.4092 11.8042 20.2515 12.8662 20.2515ZM12.4512 24.9023C19.2627 24.9023 24.9023 19.2505 24.9023 12.4512C24.9023 5.63965 19.2505 0 12.439 0C5.63965 0 0 5.63965 0 12.4512C0 19.2505 5.65186 24.9023 12.4512 24.9023ZM12.4512 23.2422C6.55518 23.2422 1.66016 18.3472 1.66016 12.4512C1.66016 6.55518 6.54297 1.66016 12.439 1.66016C18.335 1.66016 23.2422 6.55518 23.2422 12.4512C23.2422 18.3472 18.3472 23.2422 12.4512 23.2422Z" fill="#5ac8f5"/>
 </g>
</svg>
