<?xml version="1.0" encoding="UTF-8"?>
<!--Generator: Apple Native CoreSVG 175.5-->
<!DOCTYPE svg
PUBLIC "-//W3C//DTD SVG 1.1//EN"
       "http://www.w3.org/Graphics/SVG/1.1/DTD/svg11.dtd">
<svg version="1.1" xmlns="http://www.w3.org/2000/svg" xmlns:xlink="http://www.w3.org/1999/xlink" width="30.5176" height="25.2319">
 <g>
  <rect height="25.2319" opacity="0" width="30.5176" x="0" y="0"/>
  <path d="M3.13721 21.0938L27.3804 21.0938C29.4434 21.0938 30.5176 20.0317 30.5176 17.9565L30.5176 3.96729C30.5176 1.9043 29.4434 0.842285 27.3804 0.842285L3.13721 0.842285C1.07422 0.842285 0 1.9043 0 3.96729L0 17.9565C0 20.0317 1.07422 21.0938 3.13721 21.0938ZM3.17383 19.1284C2.36816 19.1284 1.96533 18.7256 1.96533 17.9321L1.96533 4.00391C1.96533 3.19824 2.36816 2.80762 3.17383 2.80762L27.3438 2.80762C28.1494 2.80762 28.5522 3.19824 28.5522 4.00391L28.5522 17.9321C28.5522 18.7256 28.1494 19.1284 27.3438 19.1284ZM9.11865 25.2319L21.3989 25.2319C21.936 25.2319 22.3877 24.7925 22.3877 24.2432C22.3877 23.6938 21.936 23.2544 21.3989 23.2544L9.11865 23.2544C8.58154 23.2544 8.12988 23.6938 8.12988 24.2432C8.12988 24.7925 8.58154 25.2319 9.11865 25.2319ZM18.9453 8.74023C19.5312 8.59375 19.7021 8.47168 19.7021 7.76367L19.7021 5.35889C19.7021 4.89502 19.5435 4.6875 18.8965 4.84619L15.3198 5.7373C14.7217 5.88379 14.5874 6.00586 14.5874 6.72607L14.5874 12.2314C14.5874 12.7686 14.5386 12.8784 13.9282 13.0371L12.8052 13.3423C11.6943 13.623 10.7666 14.2822 10.7666 15.4785C10.7666 16.5161 11.5479 17.2729 12.7686 17.2729C14.5142 17.2729 15.6982 16.0278 15.6982 14.2578L15.6982 10.0586C15.6982 9.60693 15.8081 9.48486 16.0767 9.43604Z" fill="#5ac8f5"/>
 </g>
</svg>
