<?xml version="1.0" encoding="UTF-8"?>
<!--Generator: Apple Native CoreSVG 175.5-->
<!DOCTYPE svg
PUBLIC "-//W3C//DTD SVG 1.1//EN"
       "http://www.w3.org/Graphics/SVG/1.1/DTD/svg11.dtd">
<svg version="1.1" xmlns="http://www.w3.org/2000/svg" xmlns:xlink="http://www.w3.org/1999/xlink" width="17.6636" height="27.4048">
 <g>
  <rect height="27.4048" opacity="0" width="17.6636" x="0" y="0"/>
  <path d="M9.32617 24.8413C14.7095 24.8413 17.6636 21.3989 17.6636 15.8203L17.6636 14.624C17.6636 13.855 17.1997 13.3789 16.4551 13.3789L9.729 13.3789L9.729 15.4297L15.332 15.4297L15.332 16.333C15.332 20.1782 13.0737 22.7051 9.33838 22.7051C5.16357 22.7051 2.45361 19.2017 2.45361 13.6597C2.45361 8.19092 5.16357 4.76074 9.32617 4.76074C12.0972 4.76074 14.4043 6.43311 15.0635 8.81348C15.2832 9.52148 15.5884 9.80225 16.2231 9.80225C16.8823 9.80225 17.3096 9.36279 17.2974 8.71582C17.2974 8.36182 17.2363 8.00781 17.1143 7.66602C16.04 4.66309 13.0005 2.62451 9.32617 2.62451C3.69873 2.62451 0 6.90918 0 13.6597C0 20.4956 3.67432 24.8413 9.32617 24.8413ZM9.21631 27.4048C9.66797 27.4048 10.0098 27.0752 10.0098 26.5991L10.0098 0.891113C10.0098 0.427246 9.66797 0.0976562 9.21631 0.0976562C8.76465 0.0976562 8.42285 0.427246 8.42285 0.891113L8.42285 26.5991C8.42285 27.0752 8.76465 27.4048 9.21631 27.4048Z" fill="#5ac8f5"/>
 </g>
</svg>
