<?xml version="1.0" encoding="UTF-8"?>
<!--Generator: Apple Native CoreSVG 175.5-->
<!DOCTYPE svg
PUBLIC "-//W3C//DTD SVG 1.1//EN"
       "http://www.w3.org/Graphics/SVG/1.1/DTD/svg11.dtd">
<svg version="1.1" xmlns="http://www.w3.org/2000/svg" xmlns:xlink="http://www.w3.org/1999/xlink" width="26.6846" height="26.6968">
 <g>
  <rect height="26.6968" opacity="0" width="26.6846" x="0" y="0"/>
  <path d="M5.62744 18.1396C6.95801 18.1396 7.38525 17.9932 8.22754 17.1509L10.5957 14.7827C11.4502 13.9282 11.4502 12.7563 10.5957 11.9019L8.22754 9.53369C7.38525 8.69141 6.95801 8.53271 5.62744 8.53271L2.56348 8.53271C1.00098 8.53271 0 9.43604 0 10.8276L0 15.8569C0 17.2363 1.00098 18.1396 2.56348 18.1396ZM5.62744 16.394L2.6123 16.394C2.05078 16.394 1.7334 16.0767 1.7334 15.5151L1.7334 11.1694C1.7334 10.6079 2.05078 10.2783 2.6123 10.2783L5.62744 10.2783C6.26221 10.2783 6.57959 10.3638 6.99463 10.7788L9.28955 13.0615C9.47266 13.2568 9.46045 13.4399 9.27734 13.623L6.99463 15.9058C6.57959 16.3208 6.26221 16.394 5.62744 16.394ZM8.54492 5.63965C8.54492 6.95801 8.70361 7.38525 9.5459 8.22754L11.9141 10.5957C12.7686 11.4502 13.9404 11.4502 14.7949 10.5957L17.1631 8.22754C18.0054 7.38525 18.1519 6.95801 18.1519 5.63965L18.1519 2.56348C18.1519 1.00098 17.2485 0 15.8569 0L10.8398 0C9.44824 0 8.54492 1.00098 8.54492 2.56348ZM10.2905 5.63965L10.2905 2.6123C10.2905 2.06299 10.6201 1.7334 11.1816 1.7334L15.5273 1.7334C16.0889 1.7334 16.4062 2.06299 16.4062 2.6123L16.4062 5.63965C16.4062 6.26221 16.333 6.57959 15.918 6.99463L13.623 9.28955C13.4399 9.47266 13.2568 9.47266 13.0737 9.28955L10.791 6.99463C10.376 6.57959 10.2905 6.26221 10.2905 5.63965ZM21.0571 8.54492C19.7266 8.54492 19.2993 8.69141 18.457 9.53369L16.0889 11.9019C15.2344 12.7563 15.2344 13.9282 16.0889 14.7827L18.457 17.1509C19.2993 17.9932 19.7266 18.1519 21.0571 18.1519L24.1211 18.1519C25.6836 18.1519 26.6846 17.2485 26.6846 15.8569L26.6846 10.8276C26.6846 9.44824 25.6836 8.54492 24.1211 8.54492ZM21.0571 10.2905L24.0723 10.2905C24.6338 10.2905 24.9512 10.6079 24.9512 11.1694L24.9512 15.5151C24.9512 16.0767 24.6338 16.4062 24.0723 16.4062L21.0571 16.4062C20.4224 16.4062 20.105 16.3208 19.6899 15.9058L17.395 13.623C17.2119 13.4277 17.2241 13.2446 17.4072 13.0615L19.6899 10.7788C20.105 10.3638 20.4224 10.2905 21.0571 10.2905ZM18.1519 21.0449C18.1519 19.7266 17.9932 19.2993 17.1509 18.457L14.7827 16.0767C13.9282 15.2344 12.7563 15.2344 11.9019 16.0767L9.53369 18.457C8.69141 19.2993 8.54492 19.7266 8.54492 21.0449L8.54492 24.1211C8.54492 25.6836 9.44824 26.6724 10.8398 26.6724L15.8569 26.6724C17.2485 26.6724 18.1519 25.6836 18.1519 24.1211ZM16.4062 21.0449L16.4062 24.0723C16.4062 24.6216 16.0767 24.939 15.5151 24.939L11.1694 24.939C10.6079 24.939 10.2905 24.6216 10.2905 24.0723L10.2905 21.0449C10.2905 20.4102 10.3638 20.0928 10.7788 19.6899L13.0737 17.395C13.2568 17.1997 13.4399 17.2119 13.623 17.395L15.918 19.6899C16.3208 20.0928 16.4062 20.4102 16.4062 21.0449Z" fill="#5ac8f5"/>
 </g>
</svg>
