<?xml version="1.0" encoding="UTF-8"?>
<!--Generator: Apple Native CoreSVG 175.5-->
<!DOCTYPE svg
PUBLIC "-//W3C//DTD SVG 1.1//EN"
       "http://www.w3.org/Graphics/SVG/1.1/DTD/svg11.dtd">
<svg version="1.1" xmlns="http://www.w3.org/2000/svg" xmlns:xlink="http://www.w3.org/1999/xlink" width="34.2041" height="24.9146">
 <g>
  <rect height="24.9146" opacity="0" width="34.2041" x="0" y="0"/>
  <path d="M0 12.4512C0 12.9761 0.427246 13.4277 0.939941 13.4277L33.2642 13.4277C33.7769 13.4277 34.2041 12.9761 34.2041 12.4512C34.2041 11.9263 33.7769 11.4868 33.2642 11.4868L0.939941 11.4868C0.427246 11.4868 0 11.9263 0 12.4512ZM17.1143 24.9023C23.9136 24.9023 29.5654 19.2505 29.5654 12.4512C29.5654 5.63965 23.9014 0 17.1021 0C10.2905 0 4.66309 5.63965 4.66309 12.4512C4.66309 19.2505 10.3027 24.9023 17.1143 24.9023ZM17.1143 22.8271C11.3525 22.8271 6.73828 18.2129 6.73828 12.4512C6.73828 6.68945 11.3403 2.0752 17.1021 2.0752C22.8516 2.0752 27.4902 6.68945 27.4902 12.4512C27.4902 18.2129 22.8638 22.8271 17.1143 22.8271Z" fill="#5ac8f5"/>
 </g>
</svg>
