<?xml version="1.0" encoding="UTF-8"?>
<!--Generator: Apple Native CoreSVG 175.5-->
<!DOCTYPE svg
PUBLIC "-//W3C//DTD SVG 1.1//EN"
       "http://www.w3.org/Graphics/SVG/1.1/DTD/svg11.dtd">
<svg version="1.1" xmlns="http://www.w3.org/2000/svg" xmlns:xlink="http://www.w3.org/1999/xlink" width="22.4731" height="22.522">
 <g>
  <rect height="22.522" opacity="0" width="22.4731" x="0" y="0"/>
  <path d="M3.83301 22.4731L18.6401 22.4731C21.2036 22.4731 22.4731 21.2036 22.4731 18.689L22.4731 3.78418C22.4731 1.26953 21.2036 0 18.6401 0L3.83301 0C1.28174 0 0 1.25732 0 3.78418L0 18.689C0 21.2158 1.28174 22.4731 3.83301 22.4731Z" fill="#5ac8f5" fill-opacity="0.25"/>
  <path d="M17.4683 12.5854C17.4683 15.5029 15.4907 17.4072 12.5488 17.4072L10.9009 17.4072C10.3149 17.4072 9.92432 17.041 9.92432 16.5039C9.92432 15.9546 10.3027 15.5884 10.8765 15.5884L12.5488 15.5884C14.3921 15.5884 15.6494 14.3921 15.6494 12.5854C15.6494 10.9253 14.4165 9.80225 12.561 9.80225L8.99658 9.80225L7.73926 9.75342L8.31299 10.1562L9.79004 11.5845C9.97314 11.7676 10.083 11.9873 10.083 12.2559C10.083 12.7808 9.68018 13.1958 9.17969 13.1958C8.89893 13.1958 8.6792 13.0981 8.5083 12.9272L5.31006 9.65576C5.07812 9.42383 4.98047 9.15527 4.98047 8.88672C4.98047 8.61816 5.09033 8.3374 5.31006 8.11768L8.49609 4.88281C8.6792 4.69971 8.88672 4.60205 9.16748 4.60205C9.69238 4.60205 10.083 5.01709 10.083 5.54199C10.083 5.78613 9.97314 6.03027 9.79004 6.18896L8.55713 7.38525L7.72705 8.04443L8.99658 7.9834L12.561 7.9834C15.5029 7.9834 17.4683 9.82666 17.4683 12.5854Z" fill="#5ac8f5"/>
 </g>
</svg>
