<?xml version="1.0" encoding="UTF-8"?>
<!--Generator: Apple Native CoreSVG 175.5-->
<!DOCTYPE svg
PUBLIC "-//W3C//DTD SVG 1.1//EN"
       "http://www.w3.org/Graphics/SVG/1.1/DTD/svg11.dtd">
<svg version="1.1" xmlns="http://www.w3.org/2000/svg" xmlns:xlink="http://www.w3.org/1999/xlink" width="28.7842" height="22.4731">
 <g>
  <rect height="22.4731" opacity="0" width="28.7842" x="0" y="0"/>
  <path d="M0.976562 0C0.390625 0 0 0.390625 0 0.976562L0 21.5088C0 22.0947 0.390625 22.4731 0.976562 22.4731L27.8198 22.4731C28.4058 22.4731 28.7842 22.0947 28.7842 21.5088L28.7842 0.976562C28.7842 0.390625 28.4058 0 27.8198 0ZM2.31934 1.96533L26.4648 1.96533C26.7334 1.96533 26.8188 2.06299 26.8188 2.31934L26.8188 20.1538C26.8188 20.4224 26.7334 20.5078 26.4648 20.5078L2.31934 20.5078C2.06299 20.5078 1.96533 20.4224 1.96533 20.1538L1.96533 2.31934C1.96533 2.06299 2.06299 1.96533 2.31934 1.96533ZM4.00391 3.28369C3.54004 3.28369 3.28369 3.54004 3.28369 3.9917L3.28369 18.4937C3.28369 18.9331 3.54004 19.2017 4.00391 19.2017L24.7925 19.2017C25.2441 19.2017 25.5127 18.9331 25.5127 18.4937L25.5127 3.9917C25.5127 3.54004 25.2441 3.28369 24.7925 3.28369ZM4.78516 4.5166L23.999 4.5166C24.1821 4.5166 24.2798 4.61426 24.2798 4.79736L24.2798 17.688C24.2798 17.8711 24.1821 17.9688 23.999 17.9688L4.78516 17.9688C4.60205 17.9688 4.5166 17.8711 4.5166 17.688L4.5166 4.79736C4.5166 4.61426 4.60205 4.5166 4.78516 4.5166ZM24.585 16.333L18.9453 11.0596C18.5181 10.6567 18.0298 10.4736 17.5171 10.4736C16.98 10.4736 16.5039 10.6323 16.0767 11.0352L11.7676 14.8926L10.0098 13.2935C9.61914 12.9272 9.16748 12.7563 8.71582 12.7563C8.30078 12.7563 7.89795 12.9272 7.49512 13.2812L3.86963 16.5649L3.86963 17.5415C3.86963 18.3228 4.30908 18.6523 4.95605 18.6523L23.4863 18.6523C24.1455 18.6523 24.585 18.3228 24.585 17.5415ZM10.2173 11.145C11.4502 11.145 12.4634 10.1318 12.4634 8.89893C12.4634 7.66602 11.4502 6.65283 10.2173 6.65283C8.98438 6.65283 7.97119 7.66602 7.97119 8.89893C7.97119 10.1318 8.98438 11.145 10.2173 11.145Z" fill="#5ac8f5"/>
 </g>
</svg>
