<?xml version="1.0" encoding="UTF-8"?>
<!--Generator: Apple Native CoreSVG 175.5-->
<!DOCTYPE svg
PUBLIC "-//W3C//DTD SVG 1.1//EN"
       "http://www.w3.org/Graphics/SVG/1.1/DTD/svg11.dtd">
<svg version="1.1" xmlns="http://www.w3.org/2000/svg" xmlns:xlink="http://www.w3.org/1999/xlink" width="26.355" height="23.1567">
 <g>
  <rect height="23.1567" opacity="0" width="26.355" x="0" y="0"/>
  <path d="M0.354004 1.47705C0.0976562 2.72217 0 4.3457 0 5.43213C0 14.563 5.43213 20.5933 13.7329 20.5933C19.0796 20.5933 21.5942 17.4438 22.1436 16.4307L20.6177 16.394C22.2046 18.0542 22.9126 19.8364 23.7183 22.3633C23.9014 22.9492 24.3042 23.1567 24.7314 23.1567C25.6348 23.1567 26.355 22.3755 26.355 21.3013C26.355 19.6167 23.938 16.687 22.6807 15.5029C17.334 10.5713 9.19189 13.4888 7.09229 8.04443C6.93359 7.62939 7.37305 7.26318 7.77588 7.67822C11.9873 11.8896 17.4072 8.3374 22.6807 13.1958C23.0957 13.562 23.584 13.3667 23.6572 12.9272C23.7183 12.5732 23.7549 12.0117 23.7549 11.4746C23.7549 5.51758 19.6045 2.64893 13.7695 2.64893C11.8164 2.64893 9.53369 3.125 7.73926 3.125C5.77393 3.125 3.56445 2.96631 1.80664 1.08643C1.30615 0.57373 0.549316 0.646973 0.354004 1.47705Z" fill="#5ac8f5"/>
 </g>
</svg>
