<?xml version="1.0" encoding="UTF-8"?>
<!--Generator: Apple Native CoreSVG 175.5-->
<!DOCTYPE svg
PUBLIC "-//W3C//DTD SVG 1.1//EN"
       "http://www.w3.org/Graphics/SVG/1.1/DTD/svg11.dtd">
<svg version="1.1" xmlns="http://www.w3.org/2000/svg" xmlns:xlink="http://www.w3.org/1999/xlink" width="35.2051" height="19.8853">
 <g>
  <rect height="19.8853" opacity="0" width="35.2051" x="0" y="0"/>
  <path d="M0 18.4937C0 19.2627 0.622559 19.8853 1.37939 19.8853L33.8257 19.8853C34.5825 19.8853 35.2051 19.2627 35.2051 18.4937C35.2051 17.7246 34.5825 17.1021 33.8257 17.1021L31.1523 17.1021L31.1523 2.6123C31.1523 0.90332 30.2368 0.0244141 28.54 0.0244141L6.66504 0.0244141C5.05371 0.0244141 4.05273 0.90332 4.05273 2.6123L4.05273 17.1021L1.37939 17.1021C0.622559 17.1021 0 17.7246 0 18.4937ZM6.01807 17.1021L6.01807 3.16162C6.01807 2.38037 6.40869 1.98975 7.18994 1.98975L28.0151 1.98975C28.7964 1.98975 29.187 2.38037 29.187 3.16162L29.187 17.1021Z" fill="#5ac8f5" fill-opacity="0.5"/>
  <path d="M14.6118 13.5254C14.6118 14.0137 15.1367 14.209 15.5396 13.9771L22.0093 10.1685C22.3999 9.92432 22.3999 9.39941 21.9971 9.17969L15.5396 5.37109C15.1367 5.12695 14.6118 5.31006 14.6118 5.82275Z" fill="#5ac8f5"/>
 </g>
</svg>
