<?xml version="1.0" encoding="UTF-8"?>
<!--Generator: Apple Native CoreSVG 175.5-->
<!DOCTYPE svg
PUBLIC "-//W3C//DTD SVG 1.1//EN"
       "http://www.w3.org/Graphics/SVG/1.1/DTD/svg11.dtd">
<svg version="1.1" xmlns="http://www.w3.org/2000/svg" xmlns:xlink="http://www.w3.org/1999/xlink" width="19.9341" height="27.7954">
 <g>
  <rect height="27.7954" opacity="0" width="19.9341" x="0" y="0"/>
  <path d="M8.63037 26.5747C12.915 26.5747 15.9424 24.2554 17.5659 19.6777L19.7144 13.6353C19.8608 13.2202 19.9341 12.8174 19.9341 12.4512C19.9341 11.1572 18.9575 10.2539 17.7124 10.2539C16.8701 10.2539 16.1133 10.7544 15.6982 11.7188L14.9048 13.6719C14.8804 13.7207 14.8438 13.7573 14.7949 13.7573C14.7339 13.7573 14.7095 13.7085 14.7095 13.6475L14.7095 3.85742C14.7095 2.4292 13.8184 1.52588 12.4512 1.52588C11.9507 1.52588 11.499 1.70898 11.1572 2.02637C10.9985 0.769043 10.1929 0 8.98438 0C7.80029 0 6.97021 0.793457 6.78711 2.00195C6.48193 1.69678 6.04248 1.52588 5.60303 1.52588C4.3335 1.52588 3.49121 2.41699 3.49121 3.77197L3.49121 5.12695C3.16162 4.78516 2.66113 4.60205 2.14844 4.60205C0.878906 4.60205 0 5.52979 0 6.90918L0 17.395C0 23.1079 3.4668 26.5747 8.63037 26.5747ZM8.56934 24.8901C4.24805 24.8901 1.61133 22.1069 1.61133 17.1997L1.61133 7.08008C1.61133 6.55518 1.94092 6.20117 2.45361 6.20117C2.9541 6.20117 3.32031 6.55518 3.32031 7.08008L3.32031 13.3179C3.32031 13.7695 3.68652 14.0747 4.07715 14.0747C4.49219 14.0747 4.87061 13.7695 4.87061 13.3179L4.87061 3.9917C4.87061 3.4668 5.2002 3.10059 5.70068 3.10059C6.21338 3.10059 6.56738 3.4668 6.56738 3.9917L6.56738 12.6953C6.56738 13.147 6.93359 13.4521 7.33643 13.4521C7.75146 13.4521 8.11768 13.147 8.11768 12.6953L8.11768 2.47803C8.11768 1.95312 8.47168 1.57471 8.98438 1.57471C9.47266 1.57471 9.82666 1.95312 9.82666 2.47803L9.82666 12.6953C9.82666 13.1226 10.1685 13.4521 10.5957 13.4521C11.0107 13.4521 11.377 13.1226 11.377 12.6953L11.377 3.9917C11.377 3.4668 11.731 3.10059 12.2314 3.10059C12.7319 3.10059 13.0859 3.4668 13.0859 3.9917L13.0859 16.0034C13.0859 16.6138 13.4399 16.9678 13.9526 16.9678C14.3921 16.9678 14.7583 16.7725 15.0391 16.1621L16.7969 12.2437C17.0288 11.7188 17.4805 11.5356 17.9077 11.6943C18.3838 11.8652 18.5303 12.3169 18.3105 12.915L16.0767 19.1528C14.5874 23.3154 11.9751 24.8901 8.56934 24.8901Z" fill="#5ac8f5"/>
 </g>
</svg>
