<?xml version="1.0" encoding="UTF-8"?>
<!--Generator: Apple Native CoreSVG 175.5-->
<!DOCTYPE svg
PUBLIC "-//W3C//DTD SVG 1.1//EN"
       "http://www.w3.org/Graphics/SVG/1.1/DTD/svg11.dtd">
<svg version="1.1" xmlns="http://www.w3.org/2000/svg" xmlns:xlink="http://www.w3.org/1999/xlink" width="24.9023" height="24.9146">
 <g>
  <rect height="24.9146" opacity="0" width="24.9023" x="0" y="0"/>
  <path d="M12.4512 24.9023C19.2627 24.9023 24.9023 19.2505 24.9023 12.4512C24.9023 5.63965 19.2505 0 12.439 0C5.63965 0 0 5.63965 0 12.4512C0 19.2505 5.65186 24.9023 12.4512 24.9023ZM12.4512 22.8271C6.68945 22.8271 2.0874 18.2129 2.0874 12.4512C2.0874 6.68945 6.67725 2.0752 12.439 2.0752C18.2007 2.0752 22.8271 6.68945 22.8271 12.4512C22.8271 18.2129 18.2129 22.8271 12.4512 22.8271ZM6.71387 8.21533C6.39648 8.53271 6.40869 9.09424 6.71387 9.39941L9.79004 12.4023C9.94873 12.5366 10.1685 12.6343 10.3638 12.6343C10.8154 12.6343 11.145 12.3169 11.145 11.8652C11.145 11.6455 11.0596 11.4502 10.9131 11.3037L9.61914 10.0464L9.10645 9.57031L9.68018 9.60693L17.6025 9.60693C18.0542 9.60693 18.396 9.25293 18.396 8.80127C18.396 8.34961 18.0664 8.02002 17.6025 8.02002L9.69238 8.02002L9.11865 8.03223L9.61914 7.58057L10.9131 6.32324C11.0596 6.17676 11.145 5.96924 11.145 5.76172C11.145 5.29785 10.8154 4.98047 10.3638 4.98047C10.1685 4.98047 9.93652 5.07812 9.79004 5.23682ZM18.1519 16.6992C18.4814 16.3696 18.457 15.8691 18.1519 15.5518L15.0757 12.5488C14.9414 12.4023 14.7095 12.3047 14.502 12.3047C14.0381 12.3047 13.7207 12.6221 13.7207 13.0737C13.7207 13.2935 13.8062 13.4888 13.9526 13.6353L15.2588 14.8926L15.7715 15.3687L15.1855 15.332L7.26318 15.332C6.82373 15.332 6.48193 15.6616 6.48193 16.1255C6.48193 16.5771 6.81152 16.9189 7.26318 16.9189L15.1733 16.9189L15.7715 16.9067L15.2588 17.3584L13.9648 18.6157C13.8184 18.7744 13.7207 18.9575 13.7207 19.1772C13.7207 19.6289 14.0625 19.9585 14.502 19.9585C14.6851 19.9585 14.917 19.8608 15.0757 19.7144Z" fill="#5ac8f5"/>
 </g>
</svg>
