<?xml version="1.0" encoding="UTF-8"?>
<!--Generator: Apple Native CoreSVG 175.5-->
<!DOCTYPE svg
PUBLIC "-//W3C//DTD SVG 1.1//EN"
       "http://www.w3.org/Graphics/SVG/1.1/DTD/svg11.dtd">
<svg version="1.1" xmlns="http://www.w3.org/2000/svg" xmlns:xlink="http://www.w3.org/1999/xlink" width="22.4731" height="22.4976">
 <g>
  <rect height="22.4976" opacity="0" width="22.4731" x="0" y="0"/>
  <path d="M3.83301 22.4976L18.6401 22.4976C21.2036 22.4976 22.4731 21.228 22.4731 18.7134L22.4731 3.80859C22.4731 1.29395 21.2036 0.0244141 18.6401 0.0244141L3.83301 0.0244141C1.28174 0.0244141 0 1.28174 0 3.80859L0 18.7134C0 21.2402 1.28174 22.4976 3.83301 22.4976ZM3.85742 20.5322C2.63672 20.5322 1.96533 19.8853 1.96533 18.6157L1.96533 3.90625C1.96533 2.63672 2.63672 1.98975 3.85742 1.98975L18.6157 1.98975C19.8242 1.98975 20.5078 2.63672 20.5078 3.90625L20.5078 18.6157C20.5078 19.8853 19.8242 20.5322 18.6157 20.5322ZM11.8652 16.7969C12.5 16.7969 12.854 16.3818 12.854 15.6982L12.854 6.7749C12.854 6.06689 12.4756 5.67627 11.8164 5.67627C11.377 5.67627 11.0474 5.79834 10.5347 6.15234L8.3374 7.6416C8.06885 7.83691 7.95898 8.02002 7.95898 8.3252C7.95898 8.70361 8.26416 9.05762 8.65479 9.05762C8.83789 9.05762 8.95996 9.0332 9.24072 8.83789L10.8276 7.80029L10.9131 7.80029L10.9131 15.6982C10.9131 16.3818 11.2671 16.7969 11.8652 16.7969Z" fill="#5ac8f5"/>
 </g>
</svg>
