<?xml version="1.0" encoding="UTF-8"?>
<!--Generator: Apple Native CoreSVG 175.5-->
<!DOCTYPE svg
PUBLIC "-//W3C//DTD SVG 1.1//EN"
       "http://www.w3.org/Graphics/SVG/1.1/DTD/svg11.dtd">
<svg version="1.1" xmlns="http://www.w3.org/2000/svg" xmlns:xlink="http://www.w3.org/1999/xlink" width="28.7842" height="22.4976">
 <g>
  <rect height="22.4976" opacity="0" width="28.7842" x="0" y="0"/>
  <path d="M3.83301 22.4976L24.9512 22.4976C27.5146 22.4976 28.7842 21.228 28.7842 18.7134L28.7842 3.80859C28.7842 1.29395 27.5146 0.0244141 24.9512 0.0244141L3.83301 0.0244141C1.28174 0.0244141 0 1.28174 0 3.80859L0 18.7134C0 21.2402 1.28174 22.4976 3.83301 22.4976ZM3.85742 20.5322C2.63672 20.5322 1.96533 19.8853 1.96533 18.6157L1.96533 3.90625C1.96533 2.63672 2.63672 1.98975 3.85742 1.98975L24.9268 1.98975C26.1353 1.98975 26.8188 2.63672 26.8188 3.90625L26.8188 18.6157C26.8188 19.8853 26.1353 20.5322 24.9268 20.5322ZM9.30176 20.9106L11.2183 20.9106L11.2183 1.62354L9.30176 1.62354ZM4.49219 7.82471L6.79932 7.82471C7.10449 7.82471 7.34863 7.60498 7.34863 7.27539L7.34863 4.99268C7.34863 4.65088 7.1167 4.43115 6.79932 4.43115L4.49219 4.43115C4.15039 4.43115 3.91846 4.65088 3.91846 4.99268L3.91846 7.27539C3.91846 7.60498 4.1626 7.82471 4.49219 7.82471ZM4.49219 12.9517L6.79932 12.9517C7.10449 12.9517 7.34863 12.7075 7.34863 12.4023L7.34863 10.0952C7.34863 9.77783 7.1167 9.53369 6.79932 9.53369L4.49219 9.53369C4.15039 9.53369 3.91846 9.77783 3.91846 10.0952L3.91846 12.4023C3.91846 12.7075 4.1626 12.9517 4.49219 12.9517ZM4.49219 18.0542L6.79932 18.0542C7.10449 18.0542 7.34863 17.8345 7.34863 17.5049L7.34863 15.2222C7.34863 14.8926 7.1167 14.6606 6.79932 14.6606L4.49219 14.6606C4.15039 14.6606 3.91846 14.8926 3.91846 15.2222L3.91846 17.5049C3.91846 17.8345 4.1626 18.0542 4.49219 18.0542Z" fill="#5ac8f5"/>
 </g>
</svg>
