<?xml version="1.0" encoding="UTF-8"?>
<!--Generator: Apple Native CoreSVG 175.5-->
<!DOCTYPE svg
PUBLIC "-//W3C//DTD SVG 1.1//EN"
       "http://www.w3.org/Graphics/SVG/1.1/DTD/svg11.dtd">
<svg version="1.1" xmlns="http://www.w3.org/2000/svg" xmlns:xlink="http://www.w3.org/1999/xlink" width="24.9023" height="24.9146">
 <g>
  <rect height="24.9146" opacity="0" width="24.9023" x="0" y="0"/>
  <path d="M12.4512 24.9023C19.2627 24.9023 24.9023 19.2505 24.9023 12.4512C24.9023 5.63965 19.2505 0 12.439 0C5.63965 0 0 5.63965 0 12.4512C0 19.2505 5.65186 24.9023 12.4512 24.9023ZM12.4512 22.8271C6.68945 22.8271 2.0874 18.2129 2.0874 12.4512C2.0874 6.68945 6.67725 2.0752 12.439 2.0752C18.2007 2.0752 22.8271 6.68945 22.8271 12.4512C22.8271 18.2129 18.2129 22.8271 12.4512 22.8271ZM12.3413 11.3403C16.4307 11.3403 18.8721 10.3027 18.8721 8.78906C18.8721 7.40967 16.9312 6.5918 14.2334 6.5918C12.2314 6.5918 10.6445 6.97021 9.46045 7.53174C9.06982 7.71484 8.98438 8.11768 9.13086 8.39844C9.28955 8.71582 9.69238 8.80127 10.022 8.65479C11.0718 8.21533 12.3779 7.78809 14.1846 7.78809C16.3818 7.78809 17.5903 8.27637 17.5903 8.77686C17.5903 9.375 15.6494 10.1074 12.2925 10.1074C8.97217 10.1074 7.31201 9.47266 7.31201 8.31299C7.31201 7.61719 7.93457 6.88477 9.81445 6.29883C10.1929 6.16455 10.3882 5.83496 10.2783 5.49316C10.1562 5.16357 9.85107 5.0293 9.41162 5.15137C7.15332 5.83496 6.01807 7.04346 6.01807 8.3374C6.01807 10.3149 8.25195 11.3403 12.3413 11.3403ZM12.5366 13.5254C14.6362 13.5254 16.5771 13.1836 17.9321 12.6099C18.2617 12.4878 18.4082 12.146 18.2617 11.8408C18.103 11.5601 17.7856 11.4868 17.4316 11.6211C16.2231 12.0972 14.4531 12.4023 12.5366 12.4023C11.1084 12.4023 9.50928 12.2314 8.23975 11.8652C7.88574 11.7676 7.56836 11.8896 7.4707 12.207C7.38525 12.5244 7.55615 12.8418 7.92236 12.9395C9.28955 13.3301 11.0474 13.5254 12.5366 13.5254ZM12.9883 15.6738C14.7583 15.6616 16.4062 15.4175 17.9077 14.917C18.3228 14.7583 18.4082 14.3921 18.2983 14.1357C18.1885 13.8306 17.8711 13.7329 17.4805 13.8672C16.0156 14.3433 14.5508 14.5752 12.9883 14.5752C12.3169 14.5752 11.6333 14.5264 11.0962 14.4531C10.7056 14.4043 10.4614 14.5752 10.3882 14.8682C10.3271 15.1733 10.498 15.4663 10.9131 15.5518C11.438 15.6372 12.1704 15.686 12.9883 15.6738ZM12.3779 17.7246C13.5986 17.8589 15.0757 17.8345 16.3452 17.4805C16.7114 17.3706 16.8579 17.041 16.7603 16.7603C16.6504 16.4429 16.3574 16.3086 15.9668 16.4185C14.9048 16.6992 13.6841 16.7847 12.5488 16.626C12.1704 16.6016 11.8896 16.7847 11.8408 17.1021C11.8164 17.4072 11.9751 17.6758 12.3779 17.7246ZM11.9141 19.8242C12.3535 19.873 12.8418 19.873 13.2935 19.8242C13.6719 19.7632 13.8428 19.519 13.8306 19.2139C13.7817 18.9331 13.562 18.7134 13.1592 18.7622C12.793 18.811 12.4023 18.8232 12.0361 18.7622C11.6455 18.7134 11.4136 18.9453 11.377 19.2017C11.3403 19.4946 11.499 19.7632 11.9141 19.8242Z" fill="#5ac8f5"/>
 </g>
</svg>
