<?xml version="1.0" encoding="UTF-8"?>
<!--Generator: Apple Native CoreSVG 175.5-->
<!DOCTYPE svg
PUBLIC "-//W3C//DTD SVG 1.1//EN"
       "http://www.w3.org/Graphics/SVG/1.1/DTD/svg11.dtd">
<svg version="1.1" xmlns="http://www.w3.org/2000/svg" xmlns:xlink="http://www.w3.org/1999/xlink" width="24.9023" height="24.9146">
 <g>
  <rect height="24.9146" opacity="0" width="24.9023" x="0" y="0"/>
  <path d="M12.4512 24.9023C19.2627 24.9023 24.9023 19.2505 24.9023 12.4512C24.9023 5.63965 19.2505 0 12.439 0C5.63965 0 0 5.63965 0 12.4512C0 19.2505 5.65186 24.9023 12.4512 24.9023ZM12.4512 22.8271C6.68945 22.8271 2.0874 18.2129 2.0874 12.4512C2.0874 6.68945 6.67725 2.0752 12.439 2.0752C18.2007 2.0752 22.8271 6.68945 22.8271 12.4512C22.8271 18.2129 18.2129 22.8271 12.4512 22.8271Z" fill="#5ac8f5" fill-opacity="0.5"/>
  <path d="M5.45654 14.8438C5.45654 15.3931 5.79834 15.7104 6.35986 15.7104L9.15527 15.7104L9.15527 18.5181C9.15527 19.0796 9.48486 19.4092 10.022 19.4092C10.5347 19.4092 10.8643 19.0796 10.8643 18.5181L10.8643 15.7104L14.0137 15.7104L14.0137 18.5181C14.0137 19.0796 14.3311 19.4092 14.8682 19.4092C15.3931 19.4092 15.7227 19.0796 15.7227 18.5181L15.7227 15.7104L18.5181 15.7104C19.0796 15.7104 19.4214 15.3931 19.4214 14.8438C19.4214 14.3311 19.0796 14.0015 18.5181 14.0015L15.7227 14.0015L15.7227 10.8887L18.5181 10.8887C19.0796 10.8887 19.4214 10.5469 19.4214 10.0342C19.4214 9.49707 19.0796 9.17969 18.5181 9.17969L15.7227 9.17969L15.7227 6.37207C15.7227 5.79834 15.3931 5.46875 14.8682 5.46875C14.3311 5.46875 14.0137 5.79834 14.0137 6.37207L14.0137 9.17969L10.8643 9.17969L10.8643 6.37207C10.8643 5.79834 10.5347 5.46875 10.022 5.46875C9.48486 5.46875 9.15527 5.79834 9.15527 6.37207L9.15527 9.17969L6.35986 9.17969C5.79834 9.17969 5.45654 9.49707 5.45654 10.0342C5.45654 10.5469 5.79834 10.8887 6.35986 10.8887L9.15527 10.8887L9.15527 14.0015L6.35986 14.0015C5.79834 14.0015 5.45654 14.3311 5.45654 14.8438ZM10.8765 14.0015L10.8765 10.8887L14.0259 10.8887L14.0259 14.0015Z" fill="#5ac8f5"/>
 </g>
</svg>
