<?xml version="1.0" encoding="UTF-8"?>
<!--Generator: Apple Native CoreSVG 175.5-->
<!DOCTYPE svg
PUBLIC "-//W3C//DTD SVG 1.1//EN"
       "http://www.w3.org/Graphics/SVG/1.1/DTD/svg11.dtd">
<svg version="1.1" xmlns="http://www.w3.org/2000/svg" xmlns:xlink="http://www.w3.org/1999/xlink" width="24.9023" height="24.9146">
 <g>
  <rect height="24.9146" opacity="0" width="24.9023" x="0" y="0"/>
  <path d="M12.4512 24.9023C19.2627 24.9023 24.9023 19.2505 24.9023 12.4512C24.9023 5.63965 19.2505 0 12.439 0C5.63965 0 0 5.63965 0 12.4512C0 19.2505 5.65186 24.9023 12.4512 24.9023ZM12.4512 22.8271C6.68945 22.8271 2.0874 18.2129 2.0874 12.4512C2.0874 6.68945 6.67725 2.0752 12.439 2.0752C18.2007 2.0752 22.8271 6.68945 22.8271 12.4512C22.8271 18.2129 18.2129 22.8271 12.4512 22.8271ZM6.53076 17.5537L12.9272 17.5537C14.6729 17.5537 15.9912 16.2476 15.9912 14.5386C15.9912 12.8784 14.6606 11.6089 12.8662 11.5723C12.1704 10.2783 10.9497 9.47266 9.46045 9.47266C7.49512 9.47266 5.84717 10.9985 5.63965 12.9395C4.66309 13.2568 3.96729 14.1235 3.96729 15.21C3.96729 16.5649 5.00488 17.5537 6.53076 17.5537ZM11.6943 8.94775C11.9141 9.17969 12.3047 9.15527 12.5366 8.93555C12.7319 8.71582 12.7441 8.3374 12.5366 8.11768L11.5967 7.20215C11.3647 6.98242 10.9985 6.98242 10.7788 7.20215C10.5713 7.40967 10.5713 7.78809 10.7788 8.02002ZM15.1733 7.83691C15.5029 7.83691 15.7593 7.56836 15.7593 7.25098L15.7593 5.95703C15.7593 5.62744 15.5029 5.37109 15.1733 5.37109C14.856 5.37109 14.5752 5.62744 14.5752 5.95703L14.5752 7.25098C14.5752 7.56836 14.856 7.83691 15.1733 7.83691ZM17.8223 8.93555C18.042 9.15527 18.4448 9.17969 18.6646 8.94775L19.5801 8.02002C19.7876 7.78809 19.7876 7.40967 19.5801 7.20215C19.3481 6.98242 18.9697 6.97021 18.7378 7.20215L17.8223 8.11768C17.6025 8.3374 17.6147 8.71582 17.8223 8.93555ZM19.519 12.1704L20.7886 12.1704C21.1182 12.1704 21.3745 11.9019 21.3745 11.5845C21.3745 11.2549 21.1182 11.0107 20.7886 11.0107L19.519 11.0107C19.1895 11.0107 18.9209 11.2549 18.9209 11.5845C18.9209 11.9019 19.1895 12.1704 19.519 12.1704ZM18.7378 15.9912C18.9697 16.2354 19.3481 16.1987 19.5801 15.979C19.7876 15.7471 19.7998 15.3687 19.5801 15.1611L18.6646 14.2578C18.4326 14.0259 18.0542 14.0259 17.8223 14.2578C17.6147 14.4775 17.6025 14.8438 17.8223 15.0757ZM18.1885 11.5845C18.1885 9.8999 16.8457 8.58154 15.1733 8.58154C14.1357 8.58154 13.2202 9.09424 12.6953 9.8877C12.9639 10.1318 13.1958 10.4004 13.3911 10.7178C15.2466 10.9619 16.6748 12.3047 16.8579 14.0869C17.688 13.501 18.1885 12.5977 18.1885 11.5845Z" fill="#5ac8f5"/>
 </g>
</svg>
