<?xml version="1.0" encoding="UTF-8"?>
<!--Generator: Apple Native CoreSVG 175.5-->
<!DOCTYPE svg
PUBLIC "-//W3C//DTD SVG 1.1//EN"
       "http://www.w3.org/Graphics/SVG/1.1/DTD/svg11.dtd">
<svg version="1.1" xmlns="http://www.w3.org/2000/svg" xmlns:xlink="http://www.w3.org/1999/xlink" width="28.7842" height="22.4731">
 <g>
  <rect height="22.4731" opacity="0" width="28.7842" x="0" y="0"/>
  <path d="M3.83301 22.4731L24.9512 22.4731C27.5146 22.4731 28.7842 21.2158 28.7842 18.7012L28.7842 3.78418C28.7842 1.26953 27.5146 0 24.9512 0L3.83301 0C1.28174 0 0 1.26953 0 3.78418L0 18.7012C0 21.2158 1.28174 22.4731 3.83301 22.4731Z" fill="#5ac8f5" fill-opacity="0.25"/>
  <path d="M9.47266 12.3169C8.76465 12.3169 8.26416 11.9385 8.26416 11.2671C8.26416 10.5835 8.74023 10.1929 9.47266 10.1929L19.3359 10.1929C20.0806 10.1929 20.5322 10.5835 20.5322 11.2671C20.5322 11.9385 20.0439 12.3169 19.3359 12.3169Z" fill="#5ac8f5"/>
 </g>
</svg>
