<?xml version="1.0" encoding="UTF-8"?>
<!--Generator: Apple Native CoreSVG 175.5-->
<!DOCTYPE svg
PUBLIC "-//W3C//DTD SVG 1.1//EN"
       "http://www.w3.org/Graphics/SVG/1.1/DTD/svg11.dtd">
<svg version="1.1" xmlns="http://www.w3.org/2000/svg" xmlns:xlink="http://www.w3.org/1999/xlink" width="24.9023" height="24.9146">
 <g>
  <rect height="24.9146" opacity="0" width="24.9023" x="0" y="0"/>
  <path d="M12.4512 24.9023C19.2627 24.9023 24.9023 19.2505 24.9023 12.4512C24.9023 5.63965 19.2505 0 12.439 0C5.63965 0 0 5.63965 0 12.4512C0 19.2505 5.65186 24.9023 12.4512 24.9023ZM8.08105 10.4614C8.08105 8.10547 9.87549 6.45752 12.4878 6.45752C15.1001 6.45752 16.8945 8.11768 16.8945 10.5591C16.8945 11.9263 16.3452 13.208 15.1733 14.7583C14.502 15.6494 13.562 16.8701 12.9028 17.688C12.5366 18.1396 12.3413 18.4326 11.8652 18.4326C11.3525 18.4326 11.0229 18.0664 11.0229 17.688C11.0229 17.4438 11.1206 17.2119 11.3281 16.9678C12.0728 16.0522 12.9028 15.0513 13.5986 14.1602C13.8794 13.8306 14.0625 13.562 14.1724 13.3789L14.0015 13.3789C13.5742 13.8184 12.6953 14.1113 11.853 14.1113C9.68018 14.1113 8.08105 12.5732 8.08105 10.4614ZM9.86328 10.3882C9.86328 11.7188 10.9863 12.6953 12.4878 12.6953C13.9771 12.6953 15.1001 11.731 15.1001 10.3882C15.1001 9.06982 13.9648 8.06885 12.4756 8.06885C10.9863 8.06885 9.86328 9.05762 9.86328 10.3882Z" fill="#5ac8f5"/>
 </g>
</svg>
