<?xml version="1.0" encoding="UTF-8"?>
<!--Generator: Apple Native CoreSVG 175.5-->
<!DOCTYPE svg
PUBLIC "-//W3C//DTD SVG 1.1//EN"
       "http://www.w3.org/Graphics/SVG/1.1/DTD/svg11.dtd">
<svg version="1.1" xmlns="http://www.w3.org/2000/svg" xmlns:xlink="http://www.w3.org/1999/xlink" width="24.9023" height="24.9146">
 <g>
  <rect height="24.9146" opacity="0" width="24.9023" x="0" y="0"/>
  <path d="M12.4512 24.9023C19.2627 24.9023 24.9023 19.2505 24.9023 12.4512C24.9023 5.63965 19.2505 0 12.439 0C5.63965 0 0 5.63965 0 12.4512C0 19.2505 5.65186 24.9023 12.4512 24.9023ZM9.16748 18.2251C8.54492 18.2251 8.1665 17.7979 8.1665 17.0776L8.1665 7.59277C8.1665 6.87256 8.54492 6.44531 9.16748 6.44531C9.82666 6.44531 10.1929 6.87256 10.1929 7.59277L10.1929 11.9019L10.2661 11.9019L15.2222 6.84814C15.5151 6.56738 15.7349 6.44531 16.04 6.44531C16.5649 6.44531 16.9678 6.83594 16.9678 7.31201C16.9678 7.59277 16.8823 7.80029 16.6504 8.04443L13.208 11.5845L16.9556 16.5039C17.1387 16.748 17.2485 17.0166 17.2485 17.2729C17.2485 17.8223 16.8457 18.2251 16.272 18.2251C15.918 18.2251 15.6494 18.0664 15.3931 17.7246L11.731 12.8906L10.1929 14.4775L10.1929 17.0776C10.1929 17.7979 9.82666 18.2251 9.16748 18.2251Z" fill="#5ac8f5"/>
 </g>
</svg>
