<?xml version="1.0" encoding="UTF-8"?>
<!--Generator: Apple Native CoreSVG 175.5-->
<!DOCTYPE svg
PUBLIC "-//W3C//DTD SVG 1.1//EN"
       "http://www.w3.org/Graphics/SVG/1.1/DTD/svg11.dtd">
<svg version="1.1" xmlns="http://www.w3.org/2000/svg" xmlns:xlink="http://www.w3.org/1999/xlink" width="27.7588" height="33.1909">
 <g>
  <rect height="33.1909" opacity="0" width="27.7588" x="0" y="0"/>
  <path d="M0 23.7549C0 26.2817 1.28174 27.5391 3.83301 27.5391L17.8345 27.5391C20.3857 27.5391 21.6675 26.2695 21.6675 23.7549L21.6675 11.8286C21.6675 9.31396 20.3857 8.04443 17.8345 8.04443L11.8042 8.04443L11.8042 2.13623C11.8042 1.62354 11.3647 1.19629 10.8398 1.19629C10.3149 1.19629 9.86328 1.62354 9.86328 2.13623L9.86328 8.04443L3.83301 8.04443C1.28174 8.04443 0 9.30176 0 11.8286ZM10.8398 19.6777C10.5835 19.6777 10.376 19.5923 10.1318 19.3481L6.00586 15.3687C5.82275 15.1855 5.71289 14.9902 5.71289 14.7217C5.71289 14.2334 6.0791 13.8672 6.5918 13.8672C6.82373 13.8672 7.09229 13.9648 7.26318 14.1602L9.33838 16.3574L9.93652 17.0044L9.86328 15.1733L9.86328 8.88672C9.86328 8.3374 10.2661 7.97119 10.8398 7.97119C11.4136 7.97119 11.8042 8.3374 11.8042 8.88672L11.8042 15.1733L11.731 16.9922L12.3291 16.3574L14.4043 14.1602C14.5752 13.9648 14.8315 13.8672 15.0635 13.8672C15.564 13.8672 15.9546 14.2334 15.9546 14.7217C15.9546 14.9902 15.8447 15.1855 15.6616 15.3687L11.5356 19.3481C11.2915 19.5923 11.084 19.6777 10.8398 19.6777ZM10.9619 33.1909L23.9258 33.1909C26.4893 33.1909 27.7588 31.9336 27.7588 29.4067L27.7588 17.2363C27.7588 14.7095 26.4893 13.4521 23.9258 13.4521L23.3276 13.4521L23.3276 23.938C23.3276 27.4048 21.5088 29.2114 18.0176 29.2114L7.12891 29.2114L7.12891 29.3335C7.12891 31.8848 8.3374 33.1909 10.9619 33.1909Z" fill="#5ac8f5"/>
 </g>
</svg>
