<?xml version="1.0" encoding="UTF-8"?>
<!--Generator: Apple Native CoreSVG 175.5-->
<!DOCTYPE svg
PUBLIC "-//W3C//DTD SVG 1.1//EN"
       "http://www.w3.org/Graphics/SVG/1.1/DTD/svg11.dtd">
<svg version="1.1" xmlns="http://www.w3.org/2000/svg" xmlns:xlink="http://www.w3.org/1999/xlink" width="24.7589" height="24.7651">
 <g>
  <rect height="24.7651" opacity="0" width="24.7589" x="0" y="0"/>
  <path d="M19.7845 1.15816L4.97742 1.15816C4.81873 1.15816 4.67224 1.17037 4.53796 1.19478L23.5809 20.2255C23.6053 20.1035 23.6176 19.9814 23.6176 19.8471L23.6176 4.94234C23.6176 2.42769 22.348 1.15816 19.7845 1.15816ZM4.97742 23.6313L19.7845 23.6313C19.9554 23.6313 20.1019 23.6191 20.2606 23.5947L1.18103 4.53951C1.15662 4.66158 1.14441 4.78365 1.14441 4.94234L1.14441 19.8471C1.14441 22.374 2.42615 23.6313 4.97742 23.6313ZM23.1537 24.4736C23.5199 24.8398 24.1302 24.8398 24.4843 24.4736C24.8505 24.1074 24.8505 23.5092 24.4843 23.143L1.60828 0.279255C1.24207-0.0869563 0.643921-0.0991634 0.265503 0.279255C-0.088501 0.633259-0.088501 1.24361 0.265503 1.60982Z" fill="#5ac8f5"/>
 </g>
</svg>
