<?xml version="1.0" encoding="UTF-8"?>
<!--Generator: Apple Native CoreSVG 175.5-->
<!DOCTYPE svg
PUBLIC "-//W3C//DTD SVG 1.1//EN"
       "http://www.w3.org/Graphics/SVG/1.1/DTD/svg11.dtd">
<svg version="1.1" xmlns="http://www.w3.org/2000/svg" xmlns:xlink="http://www.w3.org/1999/xlink" width="25.3174" height="26.9897">
 <g>
  <rect height="26.9897" opacity="0" width="25.3174" x="0" y="0"/>
  <path d="M0 14.0625C0 22.1069 5.44434 26.9897 12.9395 26.9897C14.9658 26.9897 16.8945 26.709 18.0908 26.3184C18.9331 26.0498 19.2017 25.6104 19.2017 25.1587C19.2017 24.707 18.8477 24.3652 18.396 24.3652C18.2495 24.3652 18.0542 24.3896 17.8223 24.4507C16.333 24.8169 15.0513 25.061 13.3301 25.061C6.65283 25.061 2.09961 21.0327 2.09961 14.1357C2.09961 7.53174 6.39648 2.92969 12.8662 2.92969C18.5913 2.92969 23.3765 6.45752 23.3765 12.793C23.3765 16.4917 22.1313 18.9819 20.1172 18.9819C18.7744 18.9819 18.0176 18.2007 18.0176 16.8701L18.0176 8.59375C18.0176 7.93457 17.6514 7.53174 17.0288 7.53174C16.4185 7.53174 16.04 7.93457 16.04 8.59375L16.04 9.98535L15.9302 9.98535C15.3076 8.48389 13.7817 7.53174 11.9629 7.53174C8.80127 7.53174 6.57959 10.2295 6.57959 14.0991C6.57959 18.0054 8.78906 20.7275 12.0117 20.7275C13.9038 20.7275 15.3687 19.7021 16.0767 17.9688L16.1865 17.9688C16.4185 19.6899 17.8711 20.7397 19.7998 20.7397C23.2056 20.7397 25.3174 17.395 25.3174 12.7075C25.3174 5.61523 20.105 1.01318 12.8906 1.01318C5.31006 1.01318 0 6.20117 0 14.0625ZM12.3413 18.7988C10.1562 18.7988 8.76465 16.98 8.76465 14.0869C8.76465 11.2427 10.1685 9.42383 12.3535 9.42383C14.5996 9.42383 16.0156 11.2061 16.0156 14.0381C16.0156 16.9312 14.563 18.7988 12.3413 18.7988Z" fill="#5ac8f5"/>
 </g>
</svg>
