<?xml version="1.0" encoding="UTF-8"?>
<!--Generator: Apple Native CoreSVG 175.5-->
<!DOCTYPE svg
PUBLIC "-//W3C//DTD SVG 1.1//EN"
       "http://www.w3.org/Graphics/SVG/1.1/DTD/svg11.dtd">
<svg version="1.1" xmlns="http://www.w3.org/2000/svg" xmlns:xlink="http://www.w3.org/1999/xlink" width="20.2881" height="25.3052">
 <g>
  <rect height="25.3052" opacity="0" width="20.2881" x="0" y="0"/>
  <path d="M20.2881 15.0635L20.2881 5.7251C20.2881 4.44336 19.7388 4.02832 18.7012 3.60107C17.2607 3.01514 12.6099 1.24512 11.1694 0.830078C10.8398 0.744629 10.4858 0.646973 10.144 0.646973C9.80225 0.646973 9.44824 0.720215 9.13086 0.830078C7.67822 1.33057 3.02734 3.00293 1.58691 3.60107C0.561523 4.04053 0 4.44336 0 5.7251L0 15.0635C0 19.519 2.38037 21.167 9.32617 25.061C9.64355 25.2319 9.94873 25.3052 10.144 25.3052C10.3394 25.3052 10.6567 25.2319 10.9619 25.061C17.8955 21.1548 20.2881 19.519 20.2881 15.0635ZM9.8877 23.0469C9.74121 23.0103 9.58252 22.9248 9.38721 22.8027C3.75977 19.3726 1.94092 18.3838 1.94092 14.6118L1.94092 6.10352C1.94092 5.68848 2.01416 5.51758 2.35596 5.39551C4.24805 4.74854 7.8125 3.45459 9.65576 2.72217C9.75342 2.68555 9.82666 2.66113 9.8877 2.64893Z" fill="#5ac8f5"/>
 </g>
</svg>
