<?xml version="1.0" encoding="UTF-8"?>
<!--Generator: Apple Native CoreSVG 175.5-->
<!DOCTYPE svg
PUBLIC "-//W3C//DTD SVG 1.1//EN"
       "http://www.w3.org/Graphics/SVG/1.1/DTD/svg11.dtd">
<svg version="1.1" xmlns="http://www.w3.org/2000/svg" xmlns:xlink="http://www.w3.org/1999/xlink" width="22.522" height="23.7671">
 <g>
  <rect height="23.7671" opacity="0" width="22.522" x="0" y="0"/>
  <path d="M8.30078 23.7427L14.209 23.7427C19.7266 23.7427 22.522 20.8374 22.522 15.8813C22.522 11.9995 19.3237 6.81152 15.3687 1.53809C14.5874 0.512695 14.1235 0 12.8052 0L9.7168 0C8.39844 0 7.93457 0.512695 7.15332 1.53809C3.19824 6.81152 0 11.9995 0 15.8813C0 20.8374 2.79541 23.7427 8.30078 23.7427ZM1.96533 15.8813C1.96533 12.6831 4.54102 8.3252 8.76465 2.53906C9.05762 2.14844 9.27734 1.96533 9.75342 1.96533L12.7686 1.96533C13.2446 1.96533 13.4521 2.14844 13.7451 2.53906C17.981 8.3252 20.5566 12.6831 20.5566 15.8813C20.5566 19.5923 18.4692 21.7773 14.209 21.7773L8.30078 21.7773C4.04053 21.7773 1.96533 19.5923 1.96533 15.8813ZM5.10254 5.93262L4.73633 7.89795L17.7856 7.89795L17.4194 5.93262ZM1.5625 16.6748L8.81348 16.6748L8.81348 14.7095L1.5625 14.7095ZM11.2671 18.8354C13.0371 18.8354 14.4165 17.4561 14.4165 15.6738C14.4165 13.916 13.0371 12.5244 11.2671 12.5244C9.49707 12.5244 8.10547 13.916 8.10547 15.6738C8.10547 17.4561 9.49707 18.8354 11.2671 18.8354ZM11.2671 17.1143C10.4614 17.1143 9.82666 16.4917 9.82666 15.6738C9.82666 14.8804 10.4614 14.2456 11.2671 14.2456C12.0728 14.2456 12.6953 14.8804 12.6953 15.6738C12.6953 16.4917 12.0728 17.1143 11.2671 17.1143ZM13.7085 16.6748L21.0205 16.6748L21.0205 14.7095L13.7085 14.7095Z" fill="#5ac8f5"/>
 </g>
</svg>
