<?xml version="1.0" encoding="UTF-8"?>
<!--Generator: Apple Native CoreSVG 175.5-->
<!DOCTYPE svg
PUBLIC "-//W3C//DTD SVG 1.1//EN"
       "http://www.w3.org/Graphics/SVG/1.1/DTD/svg11.dtd">
<svg version="1.1" xmlns="http://www.w3.org/2000/svg" xmlns:xlink="http://www.w3.org/1999/xlink" width="28.0259" height="29.1199">
 <g>
  <rect height="29.1199" opacity="0" width="28.0259" x="0" y="0"/>
  <path d="M1.34135 17.5323C-0.428673 19.3024-0.453087 21.5729 1.30473 23.3307L6.79789 28.8361C7.17631 29.2145 7.82328 29.2145 8.2017 28.8361C8.58012 28.4454 8.58012 27.8229 8.2017 27.4445L2.90385 22.1466C1.82963 21.0724 1.80521 19.8273 2.86723 18.7775L17.6866 3.95813C18.7364 2.90833 20.0059 2.90833 21.0557 3.97034L26.3658 9.26819C26.7442 9.64661 27.3545 9.65881 27.7329 9.2804C28.1236 8.90198 28.1236 8.27942 27.7329 7.88879L22.2398 2.39563C20.482 0.637817 18.2115 0.650024 16.4414 2.43225ZM3.09916 23.7701L4.49076 25.1617L24.1075 5.54504L22.7159 4.15344ZM21.6783 7.10754L20.5308 8.27942L24.0464 11.795C24.376 12.1368 24.9009 12.1368 25.2061 11.8073C25.5357 11.4899 25.5479 10.965 25.2183 10.6354ZM19.2613 9.52454L18.1016 10.6964L21.6294 14.212C21.959 14.5416 22.4839 14.5416 22.7891 14.2242C23.1065 13.9069 23.1187 13.382 22.8013 13.0646ZM16.8443 11.9415L15.6968 13.1134L19.2124 16.6412C19.542 16.9586 20.0669 16.9586 20.3721 16.6534C20.7017 16.3239 20.7139 15.799 20.3843 15.4816ZM14.4395 14.3585L13.2798 15.5182L16.8077 19.046C17.1372 19.3756 17.6621 19.3756 17.9673 19.046C18.2847 18.7286 18.2969 18.2037 17.9795 17.8864ZM12.0225 16.7755L10.8628 17.9352L14.3907 21.4752C14.708 21.7926 15.2329 21.7926 15.5503 21.4752C15.8677 21.1456 15.8799 20.6207 15.5625 20.3033ZM9.60551 19.1925L8.44584 20.3522L11.9737 23.8922C12.3033 24.2096 12.8282 24.2096 13.1333 23.8922C13.4507 23.5626 13.4629 23.0377 13.1455 22.7203ZM7.18851 21.6095L6.02885 22.7692L9.55668 26.3092C9.87406 26.6266 10.399 26.6266 10.7163 26.3092C11.0337 25.9918 11.0459 25.4547 10.7286 25.1373Z" fill="#5ac8f5"/>
 </g>
</svg>
