<?xml version="1.0" encoding="UTF-8"?>
<!--Generator: Apple Native CoreSVG 175.5-->
<!DOCTYPE svg
PUBLIC "-//W3C//DTD SVG 1.1//EN"
       "http://www.w3.org/Graphics/SVG/1.1/DTD/svg11.dtd">
<svg version="1.1" xmlns="http://www.w3.org/2000/svg" xmlns:xlink="http://www.w3.org/1999/xlink" width="23.7305" height="24.3286">
 <g>
  <rect height="24.3286" opacity="0" width="23.7305" x="0" y="0"/>
  <path d="M3.83301 11.8774L0.476074 18.457C0.158691 19.0796 0 19.7388 0 20.3613C0 22.1313 1.26953 23.645 3.41797 23.645L20.3125 23.645C22.4609 23.645 23.7305 22.1313 23.7305 20.3613C23.7305 19.7388 23.5718 19.0796 23.2544 18.4448L14.7705 1.81885C14.209 0.708008 13.0127 0 11.8652 0C10.73 0 9.52148 0.708008 8.95996 1.81885L6.01807 7.58057L7.4585 9.00879L10.6323 2.68555C10.9009 2.16064 11.3525 1.81885 11.8652 1.81885C12.3779 1.81885 12.8296 2.16064 13.0981 2.68555L19.7632 15.9668L3.96729 15.9668L5.29785 13.3423ZM3.41797 21.7285C2.52686 21.7285 2.00195 21.0449 2.00195 20.2881C2.00195 20.0317 2.06299 19.7632 2.18506 19.4946L3.01514 17.8589L20.7031 17.8345L21.5454 19.4946C21.6797 19.751 21.7407 20.0195 21.7407 20.2759C21.7407 21.0449 21.2158 21.7285 20.3125 21.7285ZM12.8906 14.4287L12.8906 5.87158C12.8906 5.26123 12.5244 4.87061 11.9141 4.87061C11.3159 4.87061 10.9497 5.26123 10.9497 5.87158L10.9497 12.4878ZM11.2427 17.4561L12.6221 16.0645L2.0874 5.54199C1.67236 5.13916 1.13525 5.12695 0.708008 5.54199C0.268555 5.96924 0.292969 6.53076 0.708008 6.9458Z" fill="#5ac8f5"/>
 </g>
</svg>
