<?xml version="1.0" encoding="UTF-8"?>
<!--Generator: Apple Native CoreSVG 175.5-->
<!DOCTYPE svg
PUBLIC "-//W3C//DTD SVG 1.1//EN"
       "http://www.w3.org/Graphics/SVG/1.1/DTD/svg11.dtd">
<svg version="1.1" xmlns="http://www.w3.org/2000/svg" xmlns:xlink="http://www.w3.org/1999/xlink" width="26.5824" height="30.8939">
 <g>
  <rect height="30.8939" opacity="0" width="26.5824" x="0" y="0"/>
  <path d="M20.166 12.2793C21.6431 12.2793 22.8394 11.083 22.8394 9.60591C22.8394 8.12886 21.6431 6.93257 20.166 6.93257C18.689 6.93257 17.5049 8.12886 17.5049 9.60591C17.5049 11.083 18.689 12.2793 20.166 12.2793ZM13.2935 0.780227C12.146-0.379441 10.7788-0.318406 8.99658 1.45161C8.00781 2.4648 7.48291 4.50337 7.16553 5.95601L5.35889 7.77486C4.79736 8.33638 4.91943 9.10542 5.41992 9.60591L9.021 13.1948C9.25293 13.4023 9.5459 13.5366 9.8877 13.5366L12.3291 13.5366C12.4146 13.5366 12.4512 13.6709 12.3779 13.7075L9.83887 14.977C7.67822 16.039 7.17773 18.9077 9.375 20.5312L13.8916 23.8271L11.2671 29.0761C10.9619 29.6865 11.2061 30.4433 11.8042 30.7363C12.3657 31.017 13.1226 30.8461 13.4644 30.187L16.4917 24.1323C16.7358 23.6318 16.7847 23.0214 16.2354 22.4721L12.5977 18.8466L17.334 16.4907C17.5659 16.3686 17.8223 16.4174 17.981 16.5883L24.4873 23.0825C24.9756 23.5708 25.7812 23.5463 26.2207 23.0825C26.6968 22.5942 26.709 21.8251 26.2207 21.3369L16.626 11.7421C16.1987 11.3149 15.7471 11.0708 15.1489 11.0708L10.4004 11.0708L7.18994 7.8603L8.14209 6.90816C9.59473 6.60298 11.6455 6.07808 12.6221 5.0771C14.4165 3.30708 14.4775 1.92769 13.2935 0.780227ZM12.3535 1.74458C12.9883 2.36714 12.7808 2.9897 11.6699 4.12495C10.9741 4.80855 9.66797 5.12593 8.6792 5.4189C8.94775 4.40571 9.27734 3.12398 9.97314 2.41597C11.0962 1.29292 11.6943 1.10982 12.3535 1.74458ZM1.23291 25.9145L7.42188 25.9145C7.94678 25.9145 8.37402 25.5361 8.59375 25.0844L9.92432 22.4355L8.65479 21.4956C8.20312 21.166 7.83691 20.7876 7.54395 20.3847L6.51855 23.4365L1.23291 23.4365C0.561523 23.4365 0 23.998 0 24.6694C0 25.3774 0.561523 25.9145 1.23291 25.9145Z" fill="#5ac8f5"/>
 </g>
</svg>
