<?xml version="1.0" encoding="UTF-8"?>
<!--Generator: Apple Native CoreSVG 175.5-->
<!DOCTYPE svg
PUBLIC "-//W3C//DTD SVG 1.1//EN"
       "http://www.w3.org/Graphics/SVG/1.1/DTD/svg11.dtd">
<svg version="1.1" xmlns="http://www.w3.org/2000/svg" xmlns:xlink="http://www.w3.org/1999/xlink" width="30.9937" height="37.2284">
 <g>
  <rect height="37.2284" opacity="0" width="30.9937" x="0" y="0"/>
  <path d="M15.4907 7.87813C9.57031 7.87813 4.77295 12.6877 4.77295 18.6081C4.77295 24.5285 9.57031 29.3259 15.4907 29.3259C21.4233 29.3259 26.2207 24.5285 26.2207 18.6081C26.2207 12.6877 21.4233 7.87813 15.4907 7.87813ZM15.4907 9.84346C20.3369 9.84346 24.2554 13.7741 24.2554 18.6081C24.2554 23.4421 20.3369 27.3606 15.4907 27.3606C10.6567 27.3606 6.73828 23.4421 6.73828 18.6081C6.73828 13.7741 10.6567 9.84346 15.4907 9.84346ZM15.4907 3.11739C6.93359 3.11739 0 10.051 0 18.6081C0 25.4318 4.41895 31.2302 10.5469 33.2932C10.4492 32.5852 10.6445 31.9016 11.0596 31.3767C5.77393 29.5456 1.96533 24.5285 1.96533 18.6081C1.96533 11.1374 8.02002 5.08272 15.4907 5.08272C22.9614 5.08272 29.0283 11.1374 29.0283 18.6081C29.0283 24.5041 25.2319 29.5334 19.9463 31.3767C20.3735 31.8894 20.5566 32.573 20.459 33.281C26.5869 31.2058 30.9937 25.4196 30.9937 18.6081C30.9937 10.051 24.0479 3.11739 15.4907 3.11739ZM12.4268 33.6228L14.856 36.8942C15.1855 37.3459 15.8081 37.3337 16.1499 36.8942L18.5913 33.6228C19.0796 32.9758 18.8232 32.1335 17.9443 32.1335L13.0615 32.1335C12.2192 32.1335 11.9263 32.9514 12.4268 33.6228ZM12.5244 23.9182C13.1348 23.9182 13.4644 23.5275 13.4644 22.8928L13.4644 19.9997L15.625 19.9997L17.6392 23.3078C17.9077 23.7595 18.1519 23.9182 18.5547 23.9182C19.0552 23.9182 19.397 23.6008 19.397 23.1369C19.397 22.8806 19.3359 22.6853 19.1895 22.4655L17.4438 19.7312C18.811 19.2795 19.6899 18.071 19.6899 16.6306C19.6899 14.5432 18.2007 13.2126 15.8447 13.2126L12.5244 13.2126C11.9263 13.2126 11.6089 13.6398 11.6089 14.2624L11.6089 22.8928C11.6089 23.5031 11.9263 23.9182 12.5244 23.9182ZM13.4644 18.6447L13.4644 14.6286L15.625 14.6286C16.9556 14.6286 17.8589 15.3732 17.8589 16.6794C17.8589 17.9367 16.98 18.6447 15.5762 18.6447Z" fill="#5ac8f5"/>
 </g>
</svg>
