<?xml version="1.0" encoding="UTF-8"?>
<!--Generator: Apple Native CoreSVG 175.5-->
<!DOCTYPE svg
PUBLIC "-//W3C//DTD SVG 1.1//EN"
       "http://www.w3.org/Graphics/SVG/1.1/DTD/svg11.dtd">
<svg version="1.1" xmlns="http://www.w3.org/2000/svg" xmlns:xlink="http://www.w3.org/1999/xlink" width="36.1328" height="16.527">
 <g>
  <rect height="16.527" opacity="0" width="36.1328" x="0" y="0"/>
  <path d="M6.50635 16.5215L11.9995 16.5215C11.7676 15.899 11.8408 15.3985 12.146 14.5562L6.17676 14.5562C4.91943 14.5562 3.60107 14.3853 2.85645 13.6529C2.12402 12.9083 1.96533 11.6021 1.96533 10.3448L1.96533 6.2066C1.96533 4.92486 2.12402 3.61871 2.85645 2.87408C3.60107 2.12945 4.93164 1.97076 6.21338 1.97076L14.4653 1.97076L16.04 0.00542535L6.48193 0.00542535C4.43115 0.00542535 2.67334 0.200738 1.42822 1.44586C0.183105 2.69097 0 4.43658 0 6.47515L0 10.0152C0 12.1026 0.183105 13.836 1.42822 15.0811C2.67334 16.3262 4.43115 16.5215 6.50635 16.5215ZM16.4795 16.5215L25.6958 16.5215C27.7832 16.5215 29.541 16.3262 30.7861 15.0811C32.0312 13.836 32.2144 12.1026 32.2144 10.0152L32.2144 6.51177C32.2144 4.42437 32.0312 2.69097 30.7861 1.44586C29.541 0.200738 27.7832 0.00542535 25.6958 0.00542535L20.52 0.00542535C20.7275 0.591363 20.6665 1.09185 20.3735 1.97076L26.0376 1.97076C27.2949 1.97076 28.6133 2.14166 29.3457 2.87408C30.0903 3.61871 30.249 4.91265 30.249 6.16998L30.249 10.3448C30.249 11.6021 30.0903 12.9083 29.3457 13.6529C28.6133 14.3853 27.2949 14.5562 26.0376 14.5562L18.0542 14.5562ZM33.8745 11.419C34.8389 11.358 36.1328 10.1251 36.1328 8.25738C36.1328 6.40191 34.8389 5.169 33.8745 5.10796ZM5.52979 13.1402L12.6831 13.1402L13.3301 11.3824L11.6089 11.3824C10.376 11.3824 9.375 10.418 9.375 9.18511C9.375 8.6358 9.58252 8.11089 9.92432 7.68365L13.3423 3.38677L5.56641 3.38677C4.69971 3.38677 4.19922 3.50884 3.86963 3.85064C3.52783 4.19244 3.39355 4.69293 3.39355 5.54742L3.39355 11.004C3.39355 11.8462 3.52783 12.3345 3.86963 12.6763C4.21143 13.0181 4.69971 13.1402 5.52979 13.1402ZM19.1772 13.1402L26.6968 13.1402C27.5269 13.1402 28.0151 13.0181 28.3569 12.6763C28.6987 12.3345 28.833 11.8462 28.833 11.004L28.833 5.523C28.833 4.68072 28.6987 4.19244 28.3569 3.85064C28.0151 3.50884 27.5269 3.38677 26.6968 3.38677L19.8364 3.38677L19.1895 5.14459L20.9229 5.14459C22.1436 5.14459 23.1445 6.09673 23.1445 7.34185C23.1445 7.89117 22.937 8.41607 22.5952 8.84332ZM11.0352 9.18511C11.0352 9.49029 11.2915 9.71002 11.6089 9.71002L15.7349 9.71002L13.5376 15.6426C13.2446 16.4239 14.0869 16.8511 14.5874 16.2286L21.2769 7.81793C21.3989 7.65923 21.4844 7.50054 21.4844 7.34185C21.4844 7.03668 21.228 6.81695 20.9229 6.81695L16.7847 6.81695L18.9819 0.884332C19.2749 0.103082 18.4448-0.324164 17.9443 0.298394L11.2427 8.69683C11.1206 8.86773 11.0352 9.02642 11.0352 9.18511Z" fill="#5ac8f5"/>
 </g>
</svg>
