<?xml version="1.0" encoding="UTF-8"?>
<!--Generator: Apple Native CoreSVG 175.5-->
<!DOCTYPE svg
PUBLIC "-//W3C//DTD SVG 1.1//EN"
       "http://www.w3.org/Graphics/SVG/1.1/DTD/svg11.dtd">
<svg version="1.1" xmlns="http://www.w3.org/2000/svg" xmlns:xlink="http://www.w3.org/1999/xlink" width="27.2461" height="21.5454">
 <g>
  <rect height="21.5454" opacity="0" width="27.2461" x="0" y="0"/>
  <path d="M2.47803 15.7349L5.98145 15.7349C6.09131 15.7349 6.18896 15.7715 6.27441 15.8447L11.7798 20.7764C12.3657 21.3013 12.8174 21.5454 13.4033 21.5454C14.1846 21.5454 14.7827 20.9717 14.7827 20.1782L14.7827 1.45264C14.7827 0.65918 14.1846 0.012207 13.3789 0.012207C12.793 0.012207 12.4146 0.280762 11.7798 0.854492L6.27441 5.7373C6.18896 5.81055 6.09131 5.84717 5.98145 5.84717L2.47803 5.84717C0.817871 5.84717 0 6.68945 0 8.45947L0 13.1348C0 14.9048 0.830078 15.7349 2.47803 15.7349ZM2.56348 13.9526C2.11182 13.9526 1.9043 13.7451 1.9043 13.2935L1.9043 8.30078C1.9043 7.83691 2.11182 7.62939 2.56348 7.62939L6.46973 7.62939C6.78711 7.62939 7.03125 7.56836 7.31201 7.31201L12.5122 2.58789C12.5732 2.52686 12.6343 2.49023 12.7197 2.49023C12.8052 2.49023 12.8784 2.55127 12.8784 2.66113L12.8784 18.8843C12.8784 18.9941 12.8052 19.0674 12.7197 19.0674C12.6587 19.0674 12.5854 19.0308 12.5122 18.9697L7.31201 14.27C7.03125 14.0259 6.78711 13.9526 6.46973 13.9526Z" fill="#5ac8f5"/>
  <path d="M18.9087 15.9668C19.3115 16.2476 19.8853 16.1621 20.2148 15.686C21.1548 14.4531 21.7163 12.6343 21.7163 10.7666C21.7163 8.89893 21.1548 7.09229 20.2148 5.84717C19.8853 5.37109 19.3115 5.27344 18.9087 5.56641C18.4082 5.9082 18.335 6.51855 18.7134 7.01904C19.4214 7.99561 19.8242 9.35059 19.8242 10.7666C19.8242 12.1826 19.4092 13.5254 18.7134 14.5142C18.3472 15.0269 18.4082 15.6128 18.9087 15.9668Z" fill="#5ac8f5" fill-opacity="0.5"/>
  <path d="M23.4253 19.1528C23.877 19.458 24.4385 19.3481 24.7681 18.8843C26.3306 16.7358 27.2461 13.7817 27.2461 10.7666C27.2461 7.75146 26.3428 4.77295 24.7681 2.64893C24.4385 2.18506 23.877 2.0752 23.4253 2.38037C22.9736 2.68555 22.9004 3.25928 23.2544 3.75977C24.585 5.63965 25.354 8.1665 25.354 10.7666C25.354 13.3667 24.5605 15.8691 23.2544 17.7734C22.9126 18.2739 22.9736 18.8477 23.4253 19.1528Z" fill="#5ac8f5" fill-opacity="0.5"/>
 </g>
</svg>
