<?xml version="1.0" encoding="UTF-8"?>
<!--Generator: Apple Native CoreSVG 175.5-->
<!DOCTYPE svg
PUBLIC "-//W3C//DTD SVG 1.1//EN"
       "http://www.w3.org/Graphics/SVG/1.1/DTD/svg11.dtd">
<svg version="1.1" xmlns="http://www.w3.org/2000/svg" xmlns:xlink="http://www.w3.org/1999/xlink" width="24.9023" height="24.9146">
 <g>
  <rect height="24.9146" opacity="0" width="24.9023" x="0" y="0"/>
  <path d="M12.4512 24.9023C19.2627 24.9023 24.9023 19.2505 24.9023 12.4512C24.9023 5.63965 19.2505 0 12.439 0C5.63965 0 0 5.63965 0 12.4512C0 19.2505 5.65186 24.9023 12.4512 24.9023ZM12.4512 22.8271C6.68945 22.8271 2.0874 18.2129 2.0874 12.4512C2.0874 6.68945 6.67725 2.0752 12.439 2.0752C18.2007 2.0752 22.8271 6.68945 22.8271 12.4512C22.8271 18.2129 18.2129 22.8271 12.4512 22.8271ZM8.60596 9.42383C8.06885 9.42383 7.70264 9.82666 7.70264 10.4004L7.70264 16.1621C7.70264 16.8823 8.10547 17.1631 8.72803 17.1631L14.5142 17.1631C15.0879 17.1631 15.4541 16.8091 15.4541 16.272C15.4541 15.7349 15.0757 15.3809 14.4897 15.3809L12.2681 15.3809L10.4614 15.5762L12.3657 13.7939L16.8701 9.30176C17.041 9.13086 17.1631 8.88672 17.1631 8.64258C17.1631 8.09326 16.7969 7.73926 16.2598 7.73926C15.9668 7.73926 15.7349 7.84912 15.564 8.02002L11.0718 12.5122L9.31396 14.3921L9.49707 12.4878L9.49707 10.376C9.49707 9.79004 9.14307 9.42383 8.60596 9.42383Z" fill="#5ac8f5"/>
 </g>
</svg>
