<?xml version="1.0" encoding="UTF-8"?>
<!--Generator: Apple Native CoreSVG 175.5-->
<!DOCTYPE svg
PUBLIC "-//W3C//DTD SVG 1.1//EN"
       "http://www.w3.org/Graphics/SVG/1.1/DTD/svg11.dtd">
<svg version="1.1" xmlns="http://www.w3.org/2000/svg" xmlns:xlink="http://www.w3.org/1999/xlink" width="24.9023" height="24.9146">
 <g>
  <rect height="24.9146" opacity="0" width="24.9023" x="0" y="0"/>
  <path d="M12.4512 24.9023C19.2627 24.9023 24.9023 19.2505 24.9023 12.4512C24.9023 5.63965 19.2505 0 12.439 0C5.63965 0 0 5.63965 0 12.4512C0 19.2505 5.65186 24.9023 12.4512 24.9023Z" fill="#5ac8f5" fill-opacity="0.25"/>
  <path d="M8.06885 17.8833C6.35986 17.8833 5.00488 16.8335 4.67529 15.6738C4.62646 15.5151 4.61426 15.3809 4.61426 15.21C4.61426 14.7583 4.91943 14.4531 5.34668 14.4531C5.70068 14.4531 5.92041 14.6484 6.06689 15.0513C6.39648 15.9302 7.09229 16.4185 8.08105 16.4185C9.28955 16.4185 10.1196 15.686 10.1196 14.7095C10.1196 13.6841 9.36279 13.0127 8.1543 13.0127L7.43408 13.0127C7.00684 13.0127 6.73828 12.6953 6.73828 12.2925C6.73828 11.8286 7.00684 11.5356 7.43408 11.5356L8.10547 11.5356C9.09424 11.5356 9.80225 10.8765 9.80225 9.96094C9.80225 9.08203 9.10645 8.48389 8.11768 8.48389C7.14111 8.48389 6.53076 8.97217 6.25 9.85107C6.12793 10.2539 5.92041 10.4492 5.54199 10.4492C5.11475 10.4492 4.82178 10.1318 4.82178 9.68018C4.82178 9.52148 4.83398 9.38721 4.8584 9.22852C5.18799 7.99561 6.44531 7.01904 8.1543 7.01904C10.0342 7.01904 11.3525 8.14209 11.3525 9.75342C11.3525 10.9375 10.5347 11.9873 9.50928 12.1582L9.50928 12.2314C10.7788 12.3657 11.6943 13.4399 11.6943 14.7827C11.6943 16.5894 10.2051 17.8833 8.06885 17.8833ZM16.8823 17.8955C15.6006 17.8955 14.5142 17.4072 13.8672 16.1865C13.4399 15.4053 13.1958 14.2822 13.1958 12.7441C13.1958 8.91113 14.6851 7.01904 17.1265 7.01904C18.5547 7.01904 19.5557 7.76367 19.8853 8.60596C19.9585 8.77686 19.9829 8.92334 19.9829 9.09424C19.9829 9.50928 19.7021 9.79004 19.3604 9.79004C19.0063 9.79004 18.811 9.63135 18.6035 9.31396C18.2861 8.82568 17.7734 8.48389 17.0532 8.48389C15.6372 8.48389 14.6851 9.97314 14.6851 12.3413C14.6851 12.4023 14.6851 12.4268 14.6851 12.4634L14.7705 12.4634C15.0757 11.6333 15.9302 10.8765 17.2607 10.8765C18.8965 10.8765 20.3857 12.0728 20.3857 14.2334C20.3857 16.5405 18.9209 17.8955 16.8823 17.8955ZM16.8091 16.5039C18.0176 16.5039 18.7866 15.6494 18.7866 14.3066C18.7866 13.0493 17.981 12.1826 16.8091 12.1826C15.625 12.1826 14.8193 13.0615 14.8193 14.2944C14.8193 15.5884 15.6372 16.5039 16.8091 16.5039Z" fill="#5ac8f5"/>
 </g>
</svg>
