<?xml version="1.0" encoding="UTF-8"?>
<!--Generator: Apple Native CoreSVG 175.5-->
<!DOCTYPE svg
PUBLIC "-//W3C//DTD SVG 1.1//EN"
       "http://www.w3.org/Graphics/SVG/1.1/DTD/svg11.dtd">
<svg version="1.1" xmlns="http://www.w3.org/2000/svg" xmlns:xlink="http://www.w3.org/1999/xlink" width="22.4731" height="22.4976">
 <g>
  <rect height="22.4976" opacity="0" width="22.4731" x="0" y="0"/>
  <path d="M3.83301 22.4976L18.6401 22.4976C21.2036 22.4976 22.4731 21.228 22.4731 18.7134L22.4731 3.80859C22.4731 1.29395 21.2036 0.0244141 18.6401 0.0244141L3.83301 0.0244141C1.28174 0.0244141 0 1.28174 0 3.80859L0 18.7134C0 21.2402 1.28174 22.4976 3.83301 22.4976ZM3.85742 20.5322C2.63672 20.5322 1.96533 19.8853 1.96533 18.6157L1.96533 3.90625C1.96533 2.63672 2.63672 1.98975 3.85742 1.98975L18.6157 1.98975C19.8242 1.98975 20.5078 2.63672 20.5078 3.90625L20.5078 18.6157C20.5078 19.8853 19.8242 20.5322 18.6157 20.5322ZM8.05664 16.8335C8.69141 16.8335 9.04541 16.4185 9.04541 15.7349L9.04541 13.1958L10.5347 11.6577L14.0991 16.3574C14.3433 16.687 14.5996 16.8335 14.9414 16.8335C15.4907 16.8335 15.8813 16.4429 15.8813 15.918C15.8813 15.6738 15.7837 15.4053 15.6128 15.1733L11.9629 10.4004L15.3198 6.95801C15.5273 6.72607 15.6128 6.51855 15.6128 6.25C15.6128 5.79834 15.2222 5.41992 14.7217 5.41992C14.4165 5.41992 14.209 5.52979 13.9282 5.81055L9.11865 10.7178L9.04541 10.7178L9.04541 6.51855C9.04541 5.83496 8.69141 5.41992 8.05664 5.41992C7.4585 5.41992 7.09229 5.83496 7.09229 6.51855L7.09229 15.7349C7.09229 16.4185 7.4585 16.8335 8.05664 16.8335Z" fill="#5ac8f5"/>
 </g>
</svg>
