<?xml version="1.0" encoding="UTF-8"?>
<!--Generator: Apple Native CoreSVG 175.5-->
<!DOCTYPE svg
PUBLIC "-//W3C//DTD SVG 1.1//EN"
       "http://www.w3.org/Graphics/SVG/1.1/DTD/svg11.dtd">
<svg version="1.1" xmlns="http://www.w3.org/2000/svg" xmlns:xlink="http://www.w3.org/1999/xlink" width="34.0332" height="25.9915">
 <g>
  <rect height="25.9915" opacity="0" width="34.0332" x="0" y="0"/>
  <path d="M15.1855 24.9037C14.6973 24.2445 14.502 23.8417 14.502 23.0849C14.502 21.3026 16.2109 20.2895 16.2109 17.9335C16.2109 15.8095 14.624 15.2846 14.624 12.7577L14.624 12.3061L13.2812 12.3061L13.2812 12.7577C13.2812 15.9315 14.8682 16.2978 14.8682 17.9335C14.8682 19.9965 13.1592 20.8144 13.1592 23.1825C13.1592 24.1591 13.4644 24.8915 14.0991 25.6972C14.6606 26.4174 15.7837 25.685 15.1855 24.9037ZM11.7554 12.1107C11.5356 12.4403 11.731 12.9042 12.1704 12.9042L15.7104 12.9042C16.1499 12.9042 16.3574 12.4525 16.1255 12.1107L14.4165 9.55947C14.2822 9.36416 14.1479 9.29092 13.9404 9.29092C13.7451 9.29092 13.5986 9.37637 13.4644 9.55947ZM21.0083 24.9037C20.5078 24.2445 20.3247 23.8417 20.3247 23.0849C20.3247 21.3026 22.0215 20.2895 22.0215 17.9335C22.0215 15.8095 20.4468 15.2846 20.4468 12.7577L20.4468 12.3061L19.104 12.3061L19.104 12.7577C19.104 15.9315 20.6787 16.2978 20.6787 17.9335C20.6787 19.9965 18.9941 20.8144 18.9941 23.1825C18.9941 24.1591 19.2993 24.8915 19.9341 25.6972C20.4956 26.4174 21.5942 25.685 21.0083 24.9037ZM17.5659 12.1107C17.3462 12.4403 17.5537 12.9042 18.0054 12.9042L21.521 12.9042C21.9727 12.9042 22.1802 12.4403 21.9604 12.1107L20.2393 9.55947C20.105 9.37637 19.9585 9.29092 19.7632 9.29092C19.5679 9.29092 19.4214 9.37637 19.2871 9.55947ZM26.8311 24.9037C26.3428 24.2445 26.1475 23.8417 26.1475 23.0849C26.1475 21.3026 27.8442 20.2895 27.8442 17.9335C27.8442 15.8095 26.2573 15.2846 26.2573 12.7577L26.2573 12.3061L24.9146 12.3061L24.9146 12.7577C24.9146 15.9315 26.5015 16.2978 26.5015 17.9335C26.5015 19.9965 24.8047 20.8144 24.8047 23.1825C24.8047 24.1591 25.1099 24.8915 25.7446 25.6972C26.3062 26.4174 27.417 25.685 26.8311 24.9037ZM23.4009 12.1107C23.1812 12.4403 23.3765 12.9042 23.8159 12.9042L27.356 12.9042C27.8076 12.9042 28.0151 12.4403 27.7832 12.1107L26.062 9.55947C25.9277 9.37637 25.7812 9.29092 25.5859 9.29092C25.3784 9.29092 25.2441 9.36416 25.1099 9.55947ZM34.0332 13.6977C34.0332 8.25332 30.896 4.85977 25.354 4.17617C21.2891 3.7001 14.1968 3.55361 10.3638 3.54141C7.04346 3.54141 5.34668 5.34805 5.63965 8.32656L6.00586 11.9032C6.11572 12.8554 5.61523 13.2948 4.58984 13.2948L1.44043 13.2948C0.598145 13.2948 0 13.9052 0 14.7353L0 20.5824C0 21.8886 1.00098 22.4135 2.28271 22.0961C3.78418 21.7177 5.3833 21.5346 7.26318 21.5346L25.8057 21.5346C30.9814 21.5346 34.0332 18.788 34.0332 13.6977ZM32.0679 13.6977C32.0679 17.5063 29.7241 19.5692 25.8423 19.5692L11.9019 19.5692C9.66797 19.5692 8.78906 18.8246 8.55713 16.7738L7.58057 8.10684C7.39746 6.36123 8.23975 5.50674 10.3638 5.50674C14.1968 5.50674 21.1792 5.70205 25.1831 6.15371C29.6143 6.66641 32.0679 9.38858 32.0679 13.6977Z" fill="#5ac8f5"/>
 </g>
</svg>
