<?xml version="1.0" encoding="UTF-8"?>
<!--Generator: Apple Native CoreSVG 175.5-->
<!DOCTYPE svg
PUBLIC "-//W3C//DTD SVG 1.1//EN"
       "http://www.w3.org/Graphics/SVG/1.1/DTD/svg11.dtd">
<svg version="1.1" xmlns="http://www.w3.org/2000/svg" xmlns:xlink="http://www.w3.org/1999/xlink" width="22.4731" height="22.4976">
 <g>
  <rect height="22.4976" opacity="0" width="22.4731" x="0" y="0"/>
  <path d="M3.83301 22.4976L18.6401 22.4976C21.2036 22.4976 22.4731 21.228 22.4731 18.7134L22.4731 3.80859C22.4731 1.29395 21.2036 0.0244141 18.6401 0.0244141L3.83301 0.0244141C1.28174 0.0244141 0 1.28174 0 3.80859L0 18.7134C0 21.2402 1.28174 22.4976 3.83301 22.4976Z" fill="#5ac8f5" fill-opacity="0.25"/>
  <path d="M6.39648 12.4634C6.39648 12.1216 6.65283 11.853 7.01904 11.853L15.4541 11.853C15.8081 11.853 16.0522 12.1216 16.0522 12.4634C16.0522 12.8296 15.8081 13.0981 15.4541 13.0981L9.63135 13.0981C9.25293 13.3667 9.08203 13.7939 9.08203 14.1846C9.08203 15.271 10.0708 15.8081 11.2549 15.8081C12.1826 15.8081 13.0371 15.4053 13.3667 14.5752C13.5498 14.1602 13.7939 14.0259 14.1113 14.0259C14.5874 14.0259 14.8682 14.3555 14.856 14.7949C14.8438 15.1123 14.7461 15.4175 14.5508 15.6982C13.8916 16.7847 12.6465 17.3096 11.2793 17.3096C9.21631 17.3096 7.48291 16.1865 7.48291 14.2456C7.48291 13.8794 7.61719 13.4521 7.84912 13.0981L7.01904 13.0981C6.65283 13.0981 6.39648 12.8296 6.39648 12.4634ZM6.43311 9.94873C6.43311 9.58252 6.67725 9.32617 7.04346 9.32617L12.854 9.32617C13.2324 9.04541 13.4155 8.61816 13.4155 8.22754C13.4155 7.15332 12.4146 6.604 11.2427 6.604C10.3027 6.604 9.46045 7.00684 9.11865 7.83691C8.94775 8.25195 8.69141 8.38623 8.38623 8.38623C7.89795 8.38623 7.62939 8.05664 7.62939 7.62939C7.6416 7.2998 7.75146 7.00684 7.93457 6.72607C8.60596 5.62744 9.83887 5.10254 11.2061 5.10254C13.269 5.10254 15.0024 6.22559 15.0024 8.1665C15.0024 8.53271 14.8804 8.95996 14.6362 9.32617L15.4785 9.32617C15.8325 9.32617 16.0889 9.58252 16.0889 9.94873C16.0889 10.2905 15.8325 10.5591 15.4785 10.5591L7.04346 10.5591C6.67725 10.5591 6.43311 10.2905 6.43311 9.94873Z" fill="#5ac8f5"/>
 </g>
</svg>
