<?xml version="1.0" encoding="UTF-8"?>
<!--Generator: Apple Native CoreSVG 175.5-->
<!DOCTYPE svg
PUBLIC "-//W3C//DTD SVG 1.1//EN"
       "http://www.w3.org/Graphics/SVG/1.1/DTD/svg11.dtd">
<svg version="1.1" xmlns="http://www.w3.org/2000/svg" xmlns:xlink="http://www.w3.org/1999/xlink" width="21.4111" height="28.3569">
 <g>
  <rect height="28.3569" opacity="0" width="21.4111" x="0" y="0"/>
  <path d="M3.83301 28.3569L17.9443 28.3569C20.1294 28.3569 21.4111 27.0874 21.4111 24.5728L21.4111 10.73C21.4111 8.21533 20.1172 6.9458 17.5781 6.9458L3.83301 6.9458C1.28174 6.9458 0 8.20312 0 10.73L0 24.5728C0 27.0874 1.28174 28.3569 3.83301 28.3569ZM3.85742 26.3916C2.63672 26.3916 1.96533 25.7324 1.96533 24.4629L1.96533 10.8276C1.96533 9.57031 2.63672 8.91113 3.85742 8.91113L17.5415 8.91113C18.75 8.91113 19.4458 9.57031 19.4458 10.8276L19.4458 24.4629C19.4458 25.7324 18.75 26.3916 17.9077 26.3916ZM2.66113 4.98047L18.7378 4.98047C18.5547 3.86963 18.0298 3.25928 16.8091 3.25928L4.58984 3.25928C3.36914 3.25928 2.84424 3.86963 2.66113 4.98047ZM4.78516 1.59912L16.626 1.59912C16.5527 0.561523 15.9546 0.0244141 14.8315 0.0244141L6.56738 0.0244141C5.44434 0.0244141 4.8584 0.561523 4.78516 1.59912Z" fill="#5ac8f5" fill-opacity="0.5"/>
  <path d="M8.43506 22.4854L15.3809 18.3716C15.9058 18.0786 15.8936 17.3706 15.3809 17.0654L8.43506 12.9517C7.91016 12.6465 7.21436 12.8784 7.21436 13.4766L7.21436 21.9604C7.21436 22.5464 7.86133 22.8271 8.43506 22.4854Z" fill="#5ac8f5"/>
 </g>
</svg>
