<?xml version="1.0" encoding="UTF-8"?>
<!--Generator: Apple Native CoreSVG 175.5-->
<!DOCTYPE svg
PUBLIC "-//W3C//DTD SVG 1.1//EN"
       "http://www.w3.org/Graphics/SVG/1.1/DTD/svg11.dtd">
<svg version="1.1" xmlns="http://www.w3.org/2000/svg" xmlns:xlink="http://www.w3.org/1999/xlink" width="35.4736" height="34.314">
 <g>
  <rect height="34.314" opacity="0" width="35.4736" x="0" y="0"/>
  <path d="M4.96826 30.3955L6.55518 27.6367C6.7749 27.2705 6.66504 26.8433 6.29883 26.6235C5.92041 26.416 5.50537 26.5259 5.28564 26.9043L3.68652 29.6875C3.479 30.0293 3.58887 30.4565 3.95508 30.6763C4.32129 30.8838 4.76074 30.7495 4.96826 30.3955ZM8.78906 33.8257L10.376 31.0791C10.5957 30.7007 10.4736 30.2734 10.1196 30.0659C9.74121 29.8462 9.32617 29.9683 9.10645 30.3467L7.50732 33.1177C7.2998 33.4717 7.40967 33.8989 7.77588 34.1064C8.14209 34.314 8.58154 34.1919 8.78906 33.8257ZM14.6851 30.3833L16.272 27.6245C16.4917 27.2583 16.3696 26.8311 16.0034 26.6113C15.6372 26.4038 15.2222 26.5137 15.0024 26.8921L13.4033 29.6753C13.1958 30.0171 13.2935 30.4443 13.6719 30.6641C14.0381 30.8716 14.4775 30.7373 14.6851 30.3833ZM18.4937 33.8135L20.0928 31.0669C20.3125 30.6885 20.1904 30.2612 19.8242 30.0537C19.458 29.834 19.043 29.9561 18.811 30.3345L17.2119 33.1055C17.0044 33.4595 17.1143 33.8867 17.4927 34.0942C17.8467 34.3018 18.2983 34.1797 18.4937 33.8135Z" fill="#5ac8f5" fill-opacity="0.25"/>
  <path d="M22.8394 6.604C19.4824 6.604 16.7969 9.30176 16.7969 12.6587C16.7969 12.8052 16.8091 12.9639 16.8213 13.0981L18.6646 13.2812C18.6157 13.0737 18.5913 12.8662 18.5913 12.6587C18.5913 10.2661 20.459 8.39844 22.8394 8.39844C25.2197 8.39844 27.0874 10.2661 27.0874 12.6587C27.0874 14.5874 25.8545 16.2109 24.0967 16.7725L24.1089 18.6157C26.8555 17.9932 28.8696 15.5518 28.8696 12.6587C28.8696 9.30176 26.1963 6.604 22.8394 6.604ZM15.7593 7.01904C16.1621 7.42187 16.8213 7.40967 17.1997 7.01904C17.5781 6.62842 17.5903 5.99365 17.1997 5.60303L15.3198 3.71094C14.9292 3.32031 14.2944 3.32031 13.9038 3.71094C13.5132 4.10156 13.501 4.74854 13.9038 5.15137ZM22.8394 4.66309C23.4009 4.66309 23.8525 4.19922 23.8525 3.6499L23.8525 1.01318C23.8525 0.45166 23.4009-3.55271e-15 22.8394-3.55271e-15C22.2778-3.55271e-15 21.8262 0.45166 21.8262 1.01318L21.8262 3.6499C21.8262 4.19922 22.2778 4.66309 22.8394 4.66309ZM28.479 7.01904C28.8574 7.40967 29.5166 7.42187 29.9194 7.01904L31.7871 5.15137C32.1777 4.74854 32.1777 4.10156 31.7871 3.71094C31.3965 3.32031 30.7617 3.32031 30.3711 3.71094L28.479 5.60303C28.0884 5.99365 28.1006 6.62842 28.479 7.01904ZM31.8237 13.6719L34.4727 13.6719C35.022 13.6719 35.4736 13.2202 35.4736 12.6587C35.4736 12.0972 35.022 11.6455 34.4727 11.6455L31.8237 11.6455C31.2866 11.6455 30.8105 12.0972 30.8105 12.6587C30.8105 13.2202 31.2866 13.6719 31.8237 13.6719ZM30.3711 21.6187C30.7617 22.0093 31.3965 21.9971 31.7871 21.6064C32.1777 21.2158 32.1777 20.5688 31.7871 20.1904L29.895 18.3105C29.5044 17.9321 28.8696 17.9199 28.479 18.3105C28.0884 18.7012 28.0884 19.3481 28.479 19.7388Z" fill="#5ac8f5" fill-opacity="0.5"/>
  <path d="M5.17578 24.6704L18.3838 24.6704C21.9116 24.6704 24.6582 21.9971 24.6582 18.5547C24.6582 15.1367 21.8872 12.561 18.2251 12.5122C16.7969 9.83887 14.2456 8.19092 11.2305 8.19092C7.18994 8.19092 3.80859 11.3159 3.40576 15.3198C1.37939 15.9668 0 17.7246 0 19.9463C0 22.6929 2.0752 24.6704 5.17578 24.6704ZM5.12695 22.7173C3.05176 22.7173 1.95312 21.521 1.95312 19.9951C1.95312 18.7012 2.70996 17.5537 4.50439 17.0776C5.09033 16.9189 5.31006 16.6504 5.35889 16.04C5.63965 12.6221 8.17871 10.1562 11.2305 10.1562C13.5986 10.1562 15.4419 11.4502 16.5771 13.7329C16.8457 14.2578 17.1387 14.4409 17.7612 14.4409C20.9229 14.4409 22.6929 16.333 22.6929 18.6157C22.6929 20.8862 20.8374 22.7173 18.4204 22.7173Z" fill="#5ac8f5"/>
 </g>
</svg>
