<?xml version="1.0" encoding="UTF-8"?>
<!--Generator: Apple Native CoreSVG 175.5-->
<!DOCTYPE svg
PUBLIC "-//W3C//DTD SVG 1.1//EN"
       "http://www.w3.org/Graphics/SVG/1.1/DTD/svg11.dtd">
<svg version="1.1" xmlns="http://www.w3.org/2000/svg" xmlns:xlink="http://www.w3.org/1999/xlink" width="24.9023" height="24.9146">
 <g>
  <rect height="24.9146" opacity="0" width="24.9023" x="0" y="0"/>
  <path d="M12.4512 24.9023C19.2627 24.9023 24.9023 19.2505 24.9023 12.4512C24.9023 5.63965 19.2505 0 12.439 0C5.63965 0 0 5.63965 0 12.4512C0 19.2505 5.65186 24.9023 12.4512 24.9023ZM12.4512 19.2139C8.78906 19.2139 5.71289 16.1255 5.71289 12.4634C5.71289 8.78906 8.77686 5.71289 12.4512 5.71289C16.1133 5.71289 19.2017 8.80127 19.2017 12.4634C19.2017 16.1377 16.1255 19.2139 12.4512 19.2139ZM7.65381 15.5762L9.59473 15.5396L10.5835 14.2456L9.99756 12.4146L8.17871 11.6699L6.73828 12.5C6.75049 13.6353 7.08008 14.6729 7.65381 15.5762ZM7.94678 8.89893L8.47168 10.6079L10.3027 11.3525L11.9263 10.1196L11.9263 8.19092L10.498 7.06787C9.48486 7.42188 8.61816 8.08105 7.94678 8.89893ZM16.9678 8.89893C16.3208 8.08105 15.4297 7.42188 14.4165 7.06787L13.0249 8.1665L13.0249 10.1196L14.624 11.3525L16.4551 10.6079ZM17.2607 15.6006C17.8345 14.7095 18.1763 13.6353 18.1885 12.5L16.748 11.6699L14.9292 12.4146L14.3433 14.2578L15.332 15.564ZM12.4634 18.1763C13.0127 18.1763 13.5498 18.103 14.0503 17.9443L14.4653 16.2231L13.562 15.0513L11.3403 15.0513L10.4614 16.1865L10.8765 17.9443C11.377 18.0908 11.9141 18.1763 12.4634 18.1763Z" fill="#5ac8f5"/>
 </g>
</svg>
