<?xml version="1.0" encoding="UTF-8"?>
<!--Generator: Apple Native CoreSVG 175.5-->
<!DOCTYPE svg
PUBLIC "-//W3C//DTD SVG 1.1//EN"
       "http://www.w3.org/Graphics/SVG/1.1/DTD/svg11.dtd">
<svg version="1.1" xmlns="http://www.w3.org/2000/svg" xmlns:xlink="http://www.w3.org/1999/xlink" width="24.939" height="25.9155">
 <g>
  <rect height="25.9155" opacity="0" width="24.939" x="0" y="0"/>
  <path d="M0 24.8901C0 25.4395 0.463867 25.9033 1.01318 25.9033L23.9258 25.9033C24.4751 25.9033 24.939 25.4395 24.939 24.8901C24.939 24.3286 24.4751 23.877 23.9258 23.877L23.2666 23.877L23.2666 1.81885C23.2666 0.732422 22.5098 0 21.3867 0L3.51562 0C2.39258 0 1.63574 0.732422 1.63574 1.81885L1.63574 23.877L1.01318 23.877C0.463867 23.877 0 24.3286 0 24.8901ZM3.61328 11.9629L3.61328 2.29492C3.61328 2.09961 3.73535 1.96533 3.91846 1.96533L11.6577 1.96533L11.6577 11.9629ZM13.2568 11.9629L13.2568 1.96533L20.9839 1.96533C21.167 1.96533 21.2891 2.09961 21.2891 2.29492L21.2891 11.9629ZM3.61328 23.877L3.61328 13.9282L11.6577 13.9282L11.6577 23.877ZM13.2568 23.877L13.2568 13.9282L21.2891 13.9282L21.2891 23.877Z" fill="#5ac8f5"/>
 </g>
</svg>
