<?xml version="1.0" encoding="UTF-8"?>
<!--Generator: Apple Native CoreSVG 175.5-->
<!DOCTYPE svg
PUBLIC "-//W3C//DTD SVG 1.1//EN"
       "http://www.w3.org/Graphics/SVG/1.1/DTD/svg11.dtd">
<svg version="1.1" xmlns="http://www.w3.org/2000/svg" xmlns:xlink="http://www.w3.org/1999/xlink" width="25.6592" height="22.3786">
 <g>
  <rect height="22.3786" opacity="0" width="25.6592" x="0" y="0"/>
  <path d="M12.8296 5.64119C16.1499 5.64119 16.687 3.16316 18.6279 3.16316C20.6055 3.16316 20.9229 5.64119 24.7314 5.64119L24.7925 5.64119C25.2686 5.64119 25.6592 5.25056 25.6592 4.77449C25.6592 4.29841 25.2686 3.92 24.7925 3.92L24.7314 3.92C23.4131 3.92 22.6807 3.37068 21.7651 2.72371C20.9717 2.14998 19.9829 1.44197 18.6279 1.44197C17.2241 1.44197 16.2231 2.1866 15.4297 2.78474C14.5874 3.41951 13.916 3.92 12.8296 3.92C11.731 3.92 11.0718 3.41951 10.2295 2.78474C9.43604 2.1866 8.43506 1.44197 7.03125 1.44197C5.67627 1.44197 4.6875 2.14998 3.89404 2.72371C2.97852 3.37068 2.23389 3.92 0.927734 3.92L0.866699 3.92C0.378418 3.92 0 4.29841 0 4.77449C0 5.25056 0.378418 5.64119 0.866699 5.64119L0.927734 5.64119C4.72412 5.64119 5.05371 3.16316 7.03125 3.16316C8.97217 3.16316 9.49707 5.64119 12.8296 5.64119Z" fill="#5ac8f5" fill-opacity="0.5"/>
  <path d="M7.03125 10.7803C8.3252 10.7803 8.95996 11.8546 10.2051 12.5382L10.2051 11.6104C10.2051 11.1954 10.2051 10.7681 10.2051 10.3409C9.97314 10.231 9.76562 10.0723 9.5459 9.92585C8.8623 9.47419 8.06885 9.05916 7.03125 9.05916C5.67627 9.05916 4.6875 9.76716 3.89404 10.3409C2.97852 11.0001 2.23389 11.5372 0.927734 11.5372L0.866699 11.5372C0.378418 11.5372 0 11.9278 0 12.4039C0 12.88 0.378418 13.2584 0.866699 13.2584L0.927734 13.2584C4.72412 13.2584 5.05371 10.7803 7.03125 10.7803ZM18.6279 10.7803C20.6055 10.7803 20.9229 13.2584 24.7314 13.2584L24.7925 13.2584C25.2686 13.2584 25.6592 12.88 25.6592 12.4039C25.6592 11.9278 25.2686 11.5372 24.7925 11.5372L24.7314 11.5372C23.4131 11.5372 22.6807 11.0001 21.7651 10.3409C20.9717 9.76716 19.9829 9.05916 18.6279 9.05916C17.5903 9.05916 16.7969 9.47419 16.1133 9.92585C15.8813 10.0723 15.686 10.231 15.4541 10.3409C15.4541 10.7681 15.4541 11.1832 15.4541 11.6104L15.4541 12.5382C16.6992 11.8546 17.334 10.7803 18.6279 10.7803Z" fill="#5ac8f5" fill-opacity="0.5"/>
  <path d="M9.60693 16.5177C8.82568 16.5177 8.5083 17.2745 8.95996 17.8482L12.0972 21.962C12.5488 22.5235 13.0981 22.5113 13.5376 21.962L16.6748 17.836C17.1143 17.2745 16.7969 16.5177 16.0278 16.5177ZM11.853 17.7139L13.7939 17.7139L13.7939 8.9615C13.7939 8.4488 13.3423 8.02156 12.8174 8.02156C12.2925 8.02156 11.853 8.4488 11.853 8.9615Z" fill="#5ac8f5"/>
 </g>
</svg>
