<?xml version="1.0" encoding="UTF-8"?>
<!--Generator: Apple Native CoreSVG 175.5-->
<!DOCTYPE svg
PUBLIC "-//W3C//DTD SVG 1.1//EN"
       "http://www.w3.org/Graphics/SVG/1.1/DTD/svg11.dtd">
<svg version="1.1" xmlns="http://www.w3.org/2000/svg" xmlns:xlink="http://www.w3.org/1999/xlink" width="30.1262" height="15.6128">
 <g>
  <rect height="15.6128" opacity="0" width="30.1262" x="0" y="0"/>
  <path d="M30.1262 7.80029C30.1262 3.4668 26.6594 0 22.3503 0C19.0788 0 16.2102 1.95312 15.0505 5.00488L3.00217 5.00488C2.68479 5.00488 2.46506 5.10254 2.22092 5.33447L0.170139 7.37305C-0.0251736 7.56836-0.0862088 7.9834 0.170139 8.23975L4.03977 12.1094C4.30832 12.3657 4.66233 12.3535 4.91867 12.1094L7.28684 9.7168L10.5705 13.0005C10.8147 13.2446 11.1687 13.2446 11.4372 12.9761L14.7209 9.7168C16.2224 13.4888 19.0056 15.5884 22.3503 15.5884C26.6472 15.5884 30.1262 12.1216 30.1262 7.80029ZM22.9607 7.80029C22.9607 6.66504 23.8762 5.76172 25.0114 5.76172C26.1467 5.76172 27.05 6.65283 27.05 7.80029C27.05 8.93555 26.1467 9.85107 25.0114 9.85107C23.8762 9.85107 22.9607 8.93555 22.9607 7.80029Z" fill="#5ac8f5"/>
 </g>
</svg>
