<?xml version="1.0" encoding="UTF-8"?>
<!--Generator: Apple Native CoreSVG 175.5-->
<!DOCTYPE svg
PUBLIC "-//W3C//DTD SVG 1.1//EN"
       "http://www.w3.org/Graphics/SVG/1.1/DTD/svg11.dtd">
<svg version="1.1" xmlns="http://www.w3.org/2000/svg" xmlns:xlink="http://www.w3.org/1999/xlink" width="23.1689" height="27.2757">
 <g>
  <rect height="27.2757" opacity="0" width="23.1689" x="0" y="0"/>
  <path d="M11.3892 11.0072C18.8721 11.0072 23.1689 9.11513 23.1689 6.53945C23.1689 4.17129 19.751 2.71865 14.8682 2.71865C11.2061 2.71865 8.34961 3.42666 6.18896 4.43984C5.60303 4.7206 5.46875 5.30654 5.68848 5.72158C5.92041 6.18545 6.53076 6.30752 7.01904 6.1C8.97217 5.28213 11.438 4.48867 14.7583 4.48867C18.8721 4.48867 21.2524 5.46523 21.2524 6.52724C21.2524 7.77236 17.5415 9.17617 11.3037 9.17617C5.17578 9.17617 1.9043 7.96767 1.9043 5.66054C1.9043 4.30556 3.14941 2.87734 6.68945 1.74209C7.2876 1.54677 7.54395 1.0707 7.37305 0.570212C7.20215 0.0697232 6.75049-0.125589 6.0791 0.0819303C1.97754 1.30263 0 3.43886 0 5.70937C0 9.17617 3.91846 11.0072 11.3892 11.0072ZM11.7554 15.0355C15.5762 15.0355 19.0918 14.4008 21.582 13.3876C22.0459 13.1923 22.2778 12.704 22.0459 12.2768C21.8262 11.8617 21.3867 11.7885 20.8374 11.996C18.5791 12.8627 15.2954 13.4486 11.7554 13.4486C9.14307 13.4486 6.14014 13.119 3.79639 12.4354C3.24707 12.2768 2.79541 12.4477 2.66113 12.9115C2.52686 13.3632 2.75879 13.7904 3.32031 13.9613C5.84717 14.6693 9.00879 15.0355 11.7554 15.0355ZM12.5854 19.015C15.7837 18.9906 18.7866 18.5268 21.5332 17.5868C22.1802 17.3671 22.2778 16.8544 22.1191 16.476C21.9482 16.0487 21.5088 15.9144 20.8862 16.122C18.1763 17.0009 15.4785 17.4159 12.5854 17.4159C11.3525 17.4159 10.0708 17.3305 9.06982 17.1962C8.47168 17.1229 8.10547 17.3549 8.03223 17.7943C7.94678 18.2338 8.17871 18.6488 8.81348 18.7587C9.75342 18.9296 11.0718 19.0272 12.5854 19.015ZM11.4746 22.7626C13.6963 23.0189 16.3696 22.9579 18.6646 22.3353C19.2139 22.1889 19.4214 21.7006 19.2871 21.2733C19.1406 20.8217 18.7134 20.6508 18.1274 20.7973C16.1499 21.31 13.8672 21.4809 11.7432 21.2123C11.1572 21.1513 10.7544 21.4198 10.6934 21.8715C10.6323 22.3231 10.8643 22.6894 11.4746 22.7626ZM10.6445 26.6322C11.4136 26.7421 12.3169 26.7299 13.1104 26.6322C13.6719 26.559 13.9282 26.205 13.8916 25.7533C13.8428 25.3505 13.5254 25.0575 12.9272 25.1308C12.2559 25.2162 11.4624 25.2162 10.7788 25.143C10.2295 25.0697 9.8877 25.3627 9.82666 25.7533C9.77783 26.1684 10.0342 26.5712 10.6445 26.6322Z" fill="#5ac8f5"/>
 </g>
</svg>
