<?xml version="1.0" encoding="UTF-8"?>
<!--Generator: Apple Native CoreSVG 175.5-->
<!DOCTYPE svg
PUBLIC "-//W3C//DTD SVG 1.1//EN"
       "http://www.w3.org/Graphics/SVG/1.1/DTD/svg11.dtd">
<svg version="1.1" xmlns="http://www.w3.org/2000/svg" xmlns:xlink="http://www.w3.org/1999/xlink" width="19.5068" height="27.7087">
 <g>
  <rect height="27.7087" opacity="0" width="19.5068" x="0" y="0"/>
  <path d="M2.30713 25.274L15.6616 27.63C18.0542 28.0573 19.5068 26.7267 19.5068 24.1022L19.5068 9.36829C19.5068 6.97571 18.2861 6.10901 15.9058 5.69397L2.94189 3.39905C1.15967 3.09387 0 4.05823 0 5.81604L0 22.6129C0 24.1266 0.769043 25.0055 2.30713 25.274ZM4.50439 10.174C4.08936 10.1007 3.84521 9.78333 3.84521 9.34387C3.84521 8.81897 4.24805 8.47717 4.83398 8.57483L14.4775 10.2594C14.917 10.3571 15.1611 10.6012 15.1611 11.0895C15.1611 11.6144 14.7949 11.9806 14.1968 11.8829ZM4.50439 15.0812C4.08936 15.0079 3.84521 14.6906 3.84521 14.2511C3.84521 13.7384 4.24805 13.3966 4.83398 13.4943L14.4775 15.1788C14.917 15.2643 15.1611 15.5206 15.1611 15.9967C15.1611 16.5338 14.7949 16.9 14.1968 16.8024ZM5.63965 2.19055L16.1987 4.04602C17.2363 4.24133 18.103 4.5221 18.811 4.91272L18.811 3.96057C18.811 1.3971 17.0898 0.164186 14.1968 0.676881Z" fill="#5ac8f5"/>
 </g>
</svg>
