<?xml version="1.0" encoding="UTF-8"?>
<!--Generator: Apple Native CoreSVG 175.5-->
<!DOCTYPE svg
PUBLIC "-//W3C//DTD SVG 1.1//EN"
       "http://www.w3.org/Graphics/SVG/1.1/DTD/svg11.dtd">
<svg version="1.1" xmlns="http://www.w3.org/2000/svg" xmlns:xlink="http://www.w3.org/1999/xlink" width="23.23" height="23.5474">
 <g>
  <rect height="23.5474" opacity="0" width="23.23" x="0" y="0"/>
  <path d="M6.20117 17.2974C9.729 20.8252 14.0137 23.5474 17.5171 23.5474C19.0918 23.5474 20.4712 22.998 21.582 21.7773C22.229 21.0571 22.6318 20.2148 22.6318 19.3848C22.6318 18.7744 22.3999 18.1885 21.8262 17.7734L18.0786 15.1123C17.5049 14.7217 17.0288 14.5264 16.5894 14.5264C16.04 14.5264 15.5396 14.8438 14.978 15.3931L14.1113 16.2476C13.9771 16.3818 13.8062 16.4429 13.6475 16.4429C13.4644 16.4429 13.2812 16.3696 13.1592 16.3086C12.4023 15.9058 11.1084 14.7949 9.8999 13.5986C8.70361 12.4023 7.59277 11.1084 7.20215 10.3516C7.14111 10.2173 7.06787 10.0464 7.06787 9.86328C7.06787 9.70459 7.1167 9.5459 7.25098 9.41162L8.11768 8.52051C8.65479 7.95898 8.98438 7.4707 8.98438 6.90918C8.98438 6.46973 8.77686 5.99365 8.37402 5.41992L5.74951 1.72119C5.32227 1.13525 4.72412 0.878906 4.06494 0.878906C3.25928 0.878906 2.4292 1.24512 1.70898 1.94092C0.524902 3.07617 0 4.47998 0 6.03027C0 9.53369 2.67334 13.7817 6.20117 17.2974Z" fill="#5ac8f5" fill-opacity="0.5"/>
  <path d="M22.3145 0.415039C22.0581 0.415039 21.8628 0.500488 21.6797 0.683594L16.4185 5.95703L14.5508 7.9834L14.7461 4.40674L14.7461 2.58789C14.7461 2.11182 14.3921 1.74561 13.916 1.72119C13.4277 1.69678 13.0005 2.0874 13.0005 2.58789L13.0005 9.65576C13.0005 10.3027 13.3179 10.6201 13.9648 10.6201L21.0571 10.6201C21.5576 10.6201 21.9604 10.2173 21.936 9.7168C21.9116 9.24072 21.5332 8.88672 21.0571 8.88672L19.2139 8.88672L15.625 9.08203L17.6758 7.21436L22.9248 1.94092C23.1323 1.74561 23.23 1.52588 23.23 1.26953C23.23 0.793457 22.8271 0.415039 22.3145 0.415039Z" fill="#5ac8f5"/>
 </g>
</svg>
