<?xml version="1.0" encoding="UTF-8"?>
<!--Generator: Apple Native CoreSVG 175.5-->
<!DOCTYPE svg
PUBLIC "-//W3C//DTD SVG 1.1//EN"
       "http://www.w3.org/Graphics/SVG/1.1/DTD/svg11.dtd">
<svg version="1.1" xmlns="http://www.w3.org/2000/svg" xmlns:xlink="http://www.w3.org/1999/xlink" width="35.5225" height="26.8433">
 <g>
  <rect height="26.8433" opacity="0" width="35.5225" x="0" y="0"/>
  <path d="M10.8521 7.77588C10.7788 8.04443 10.7544 8.3374 10.7544 8.70361L10.7544 12.5977L14.3921 12.5977C15.8447 12.5977 16.687 13.4521 16.687 14.9292C16.687 16.4062 15.8447 17.2607 14.3921 17.2607L10.7544 17.2607L10.7544 18.2129C10.7544 19.9829 11.377 20.6421 12.5 21.2891L22.0703 26.7334C22.1436 26.7822 22.2168 26.8188 22.3022 26.8433L22.3022 14.3188ZM23.9746 26.8433C24.0601 26.8188 24.1333 26.7822 24.2188 26.7334L33.7769 21.2891C34.9121 20.6421 35.5225 19.9829 35.5225 18.2129L35.5225 8.70361C35.5225 8.3374 35.498 8.04443 35.4248 7.77588L23.9746 14.3188ZM23.1445 12.854L28.3569 9.8999L16.7969 3.2959L12.3169 5.84717C12.0483 5.99365 11.8286 6.14014 11.6333 6.32324ZM30.0537 8.93555L34.6436 6.32324C34.4604 6.14014 34.2407 5.99365 33.9722 5.84717L25.354 0.939941C24.6094 0.512695 23.8647 0.280762 23.1445 0.280762C22.4121 0.280762 21.6675 0.512695 20.9229 0.939941L18.4448 2.34375Z" fill="#5ac8f5" fill-opacity="0.5"/>
  <path d="M15.4419 14.9292C15.4419 14.2944 14.9902 13.8428 14.3677 13.8428L6.16455 13.8428L2.40479 13.9648L2.40479 14.6484L5.7373 11.6211L7.42188 10.1318C7.69043 9.8999 7.77588 9.59473 7.77588 9.30176C7.77588 8.69141 7.31201 8.25195 6.70166 8.25195C6.4209 8.25195 6.16455 8.34961 5.92041 8.58154L0.378418 14.1113C0.134277 14.3433 0 14.624 0 14.9292C0 15.2344 0.134277 15.5151 0.378418 15.7471L5.88379 21.2402C6.15234 21.5088 6.4209 21.6064 6.70166 21.6064C7.31201 21.6064 7.77588 21.167 7.77588 20.5566C7.77588 20.2637 7.70264 19.9585 7.42188 19.7266L5.7373 18.2373L2.40479 15.21L2.40479 15.8936L6.16455 16.0156L14.3677 16.0156C14.9902 16.0156 15.4419 15.564 15.4419 14.9292Z" fill="#5ac8f5"/>
 </g>
</svg>
