<?xml version="1.0" encoding="UTF-8"?>
<!--Generator: Apple Native CoreSVG 175.5-->
<!DOCTYPE svg
PUBLIC "-//W3C//DTD SVG 1.1//EN"
       "http://www.w3.org/Graphics/SVG/1.1/DTD/svg11.dtd">
<svg version="1.1" xmlns="http://www.w3.org/2000/svg" xmlns:xlink="http://www.w3.org/1999/xlink" width="27.942" height="27.5757">
 <g>
  <rect height="27.5757" opacity="0" width="27.942" x="0" y="0"/>
  <path d="M0.256429 27.3193C0.586019 27.6367 1.11092 27.6245 1.44051 27.2949L7.45858 21.2769L6.2867 20.0928L0.256429 26.123C-0.0731605 26.4526-0.0975746 26.9897 0.256429 27.3193ZM15.7227 5.40771L14.1602 6.97021L17.1388 9.96094C17.3463 10.1807 17.3585 10.5591 17.1388 10.7666C16.9068 10.9863 16.5772 10.9863 16.3453 10.7666L13.3546 7.77588L11.6212 9.50928L14.5997 12.4878C14.8316 12.7197 14.8316 13.0737 14.6119 13.2935C14.38 13.5254 14.0382 13.5132 13.8062 13.2935L10.8277 10.3027L9.06991 12.0483L12.0606 15.0391C12.2804 15.2588 12.2926 15.6128 12.0728 15.8325C11.8409 16.0645 11.4991 16.0645 11.2672 15.8325L8.27645 12.8418L6.54305 14.5874L9.53377 17.5537C9.74129 17.7734 9.7535 18.1274 9.54598 18.3472C9.31405 18.6035 8.97225 18.6035 8.72811 18.3594L5.74959 15.3809L4.41903 16.6992C3.1617 17.9565 3.13729 19.4092 4.32137 20.6055L6.99471 23.291C8.17879 24.4751 9.65584 24.4263 10.9132 23.1689L22.1925 11.8774ZM15.3931 3.14941L24.4752 12.2314C24.8536 12.6099 25.4762 12.6099 25.8546 12.2314C26.2452 11.853 26.2452 11.2183 25.8546 10.8398L24.5484 9.53369L25.0489 9.0332C25.4273 8.65479 25.4395 8.03223 25.0489 7.65381L23.2789 5.88379L24.8048 4.35791L26.2696 5.82275C26.648 6.20117 27.2706 6.20117 27.649 5.82275C28.0396 5.43213 28.0396 4.80957 27.649 4.43115L23.5108 0.292969C23.1324-0.0976562 22.5098-0.0976562 22.1192 0.292969C21.7408 0.671387 21.7408 1.29395 22.1192 1.67236L23.5963 3.13721L22.0704 4.66309L19.9708 2.56348C19.5924 2.18506 18.9576 2.18506 18.5792 2.56348L18.0787 3.06396L16.7847 1.77002C16.3819 1.35498 15.7716 1.37939 15.3931 1.77002C15.0147 2.14844 14.9903 2.74658 15.3931 3.14941Z" fill="#5ac8f5"/>
 </g>
</svg>
