<?xml version="1.0" encoding="UTF-8"?>
<!--Generator: Apple Native CoreSVG 175.5-->
<!DOCTYPE svg
PUBLIC "-//W3C//DTD SVG 1.1//EN"
       "http://www.w3.org/Graphics/SVG/1.1/DTD/svg11.dtd">
<svg version="1.1" xmlns="http://www.w3.org/2000/svg" xmlns:xlink="http://www.w3.org/1999/xlink" width="34.729" height="22.4976">
 <g>
  <rect height="22.4976" opacity="0" width="34.729" x="0" y="0"/>
  <path d="M2.33154 10.2539L7.89795 10.2539C9.44824 10.2539 10.2295 9.47266 10.2295 7.86133L10.2295 2.40479C10.2295 0.793457 9.44824 0.0244141 7.89795 0.0244141L2.33154 0.0244141C0.78125 0.0244141 0 0.793457 0 2.40479L0 7.86133C0 9.47266 0.78125 10.2539 2.33154 10.2539ZM14.5874 10.2539L20.1416 10.2539C21.6919 10.2539 22.4731 9.47266 22.4731 7.86133L22.4731 2.40479C22.4731 0.793457 21.6919 0.0244141 20.1416 0.0244141L14.5874 0.0244141C13.0249 0.0244141 12.2437 0.793457 12.2437 2.40479L12.2437 7.86133C12.2437 9.47266 13.0249 10.2539 14.5874 10.2539ZM26.8311 10.2539L32.3975 10.2539C33.9478 10.2539 34.729 9.47266 34.729 7.86133L34.729 2.40479C34.729 0.793457 33.9478 0.0244141 32.3975 0.0244141L26.8311 0.0244141C25.2808 0.0244141 24.4995 0.793457 24.4995 2.40479L24.4995 7.86133C24.4995 9.47266 25.2808 10.2539 26.8311 10.2539ZM2.33154 22.4976L7.89795 22.4976C9.44824 22.4976 10.2295 21.7285 10.2295 20.1172L10.2295 14.6484C10.2295 13.0493 9.44824 12.2681 7.89795 12.2681L2.33154 12.2681C0.78125 12.2681 0 13.0493 0 14.6484L0 20.1172C0 21.7285 0.78125 22.4976 2.33154 22.4976ZM14.5874 22.4976L20.1416 22.4976C21.6919 22.4976 22.4731 21.7285 22.4731 20.1172L22.4731 14.6484C22.4731 13.0493 21.6919 12.2681 20.1416 12.2681L14.5874 12.2681C13.0249 12.2681 12.2437 13.0493 12.2437 14.6484L12.2437 20.1172C12.2437 21.7285 13.0249 22.4976 14.5874 22.4976ZM26.8311 22.4976L32.3975 22.4976C33.9478 22.4976 34.729 21.7285 34.729 20.1172L34.729 14.6484C34.729 13.0493 33.9478 12.2681 32.3975 12.2681L26.8311 12.2681C25.2808 12.2681 24.4995 13.0493 24.4995 14.6484L24.4995 20.1172C24.4995 21.7285 25.2808 22.4976 26.8311 22.4976Z" fill="#5ac8f5"/>
 </g>
</svg>
