<?xml version="1.0" encoding="UTF-8"?>
<!--Generator: Apple Native CoreSVG 175.5-->
<!DOCTYPE svg
PUBLIC "-//W3C//DTD SVG 1.1//EN"
       "http://www.w3.org/Graphics/SVG/1.1/DTD/svg11.dtd">
<svg version="1.1" xmlns="http://www.w3.org/2000/svg" xmlns:xlink="http://www.w3.org/1999/xlink" width="17.749" height="28.9185">
 <g>
  <rect height="28.9185" opacity="0" width="17.749" x="0" y="0"/>
  <path d="M8.87451 28.9185C14.4531 28.9185 17.749 26.7944 17.749 23.2056L17.749 5.7251C17.749 4.30908 17.2363 3.16162 16.3818 2.35596C15.9424 1.89209 15.3931 1.87988 15.1489 2.31934C14.5142 3.72314 11.8652 4.56543 8.87451 4.56543C5.88379 4.56543 3.22266 3.72314 2.58789 2.31934C2.34375 1.87988 1.79443 1.89209 1.36719 2.35596C0.512695 3.16162 0 4.30908 0 5.7251L0 23.2056C0 26.7944 3.2959 28.9185 8.87451 28.9185ZM8.87451 26.9531C4.37012 26.9531 1.95312 25.5127 1.95312 23.1445L1.95312 5.87158C1.95312 5.41992 2.0752 5.05371 2.31934 4.73633C3.71094 5.9082 6.12793 6.54297 8.87451 6.54297C11.6211 6.54297 14.0381 5.9082 15.4297 4.73633C15.6738 5.05371 15.7959 5.41992 15.7959 5.87158L15.7959 23.1445C15.7959 25.5127 13.3789 26.9531 8.87451 26.9531ZM8.87451 3.14941C11.6577 3.14941 13.916 2.45361 13.916 1.57471C13.916 0.720215 11.6577 0.012207 8.87451 0.012207C6.09131 0.012207 3.83301 0.720215 3.83301 1.57471C3.83301 2.45361 6.09131 3.14941 8.87451 3.14941Z" fill="#5ac8f5"/>
 </g>
</svg>
