<?xml version="1.0" encoding="UTF-8"?>
<!--Generator: Apple Native CoreSVG 175.5-->
<!DOCTYPE svg
PUBLIC "-//W3C//DTD SVG 1.1//EN"
       "http://www.w3.org/Graphics/SVG/1.1/DTD/svg11.dtd">
<svg version="1.1" xmlns="http://www.w3.org/2000/svg" xmlns:xlink="http://www.w3.org/1999/xlink" width="24.9023" height="24.9146">
 <g>
  <rect height="24.9146" opacity="0" width="24.9023" x="0" y="0"/>
  <path d="M12.4512 24.9146C19.2627 24.9146 24.9023 19.2749 24.9023 12.4634C24.9023 5.66406 19.2505 0.012207 12.439 0.012207C5.63965 0.012207 0 5.66406 0 12.4634C0 19.2749 5.65186 24.9146 12.4512 24.9146ZM6.79932 12.7686C6.28662 13.1714 5.76172 12.5 6.18896 12.1704L11.7798 7.73926C11.9873 7.58057 12.2192 7.49512 12.4512 7.49512C12.6831 7.49512 12.915 7.59277 13.1104 7.73926L18.7012 12.1704C19.1406 12.5 18.6157 13.1714 18.0908 12.7686L12.6465 8.49609C12.5977 8.44727 12.5 8.42285 12.4512 8.42285C12.3901 8.42285 12.3047 8.44727 12.2437 8.49609ZM8.11768 16.2231C7.44629 16.2231 7.04346 15.8447 7.04346 15.1489L7.04346 13.4277C7.20215 13.3545 7.34863 13.2568 7.54395 13.1348L12.4512 9.26514L17.3462 13.1348C17.5537 13.2568 17.688 13.3545 17.8589 13.4277L17.8589 15.1489C17.8589 15.8447 17.4561 16.2231 16.7847 16.2231ZM11.145 15.4053L13.7451 15.4053L13.7451 13.2202C13.7451 13.0249 13.623 12.8784 13.4033 12.8784L11.499 12.8784C11.2915 12.8784 11.145 13.0249 11.145 13.2202ZM5.7373 11.5845C5.24902 11.9385 5.2124 12.4268 5.3833 12.8418L3.38135 12.8418C2.96631 12.8418 2.85645 12.3779 3.125 12.1948L6.33545 9.94873C6.49414 9.83887 6.67725 9.79004 6.87256 9.79004L8.03223 9.79004ZM6.29883 15.1489C6.29883 15.564 6.39648 15.918 6.5918 16.2231L5.01709 16.2231C4.32129 16.2231 3.91846 15.8447 3.91846 15.1489L3.91846 13.562L6.29883 13.5498ZM19.165 11.5845L16.8701 9.79004L18.0176 9.79004C18.2251 9.79004 18.3838 9.83887 18.5547 9.94873L21.7651 12.1948C22.0581 12.4023 21.9238 12.8418 21.5088 12.8418L19.5068 12.8418C19.6777 12.4268 19.6411 11.9385 19.165 11.5845ZM18.6035 15.1489L18.6035 13.5498L20.9839 13.562L20.9839 15.1489C20.9839 15.8447 20.5811 16.2231 19.8853 16.2231L18.3105 16.2231C18.4937 15.918 18.6035 15.564 18.6035 15.1489Z" fill="#5ac8f5"/>
 </g>
</svg>
