<?xml version="1.0" encoding="UTF-8"?>
<!--Generator: Apple Native CoreSVG 175.5-->
<!DOCTYPE svg
PUBLIC "-//W3C//DTD SVG 1.1//EN"
       "http://www.w3.org/Graphics/SVG/1.1/DTD/svg11.dtd">
<svg version="1.1" xmlns="http://www.w3.org/2000/svg" xmlns:xlink="http://www.w3.org/1999/xlink" width="30.7251" height="19.2993">
 <g>
  <rect height="19.2993" opacity="0" width="30.7251" x="0" y="0"/>
  <path d="M3.83301 19.2871L26.8921 19.2871C29.4312 19.2871 30.7251 18.0176 30.7251 15.5029L30.7251 3.77197C30.7251 1.26953 29.4312 0 26.8921 0L3.83301 0C1.26953 0 0 1.25732 0 3.77197L0 15.5029C0 18.0176 1.26953 19.2871 3.83301 19.2871ZM3.85742 17.3218C2.63672 17.3218 1.96533 16.6626 1.96533 15.3931L1.96533 3.88184C1.96533 2.6123 2.63672 1.96533 3.85742 1.96533L26.8555 1.96533C28.064 1.96533 28.7598 2.6123 28.7598 3.88184L28.7598 15.3931C28.7598 16.6626 28.064 17.3218 26.8555 17.3218ZM4.95605 6.79932L6.0791 6.79932C6.4209 6.79932 6.62842 6.5918 6.62842 6.26221L6.62842 5.13916C6.62842 4.79736 6.4209 4.58984 6.0791 4.58984L4.95605 4.58984C4.62646 4.58984 4.41895 4.79736 4.41895 5.13916L4.41895 6.26221C4.41895 6.5918 4.62646 6.79932 4.95605 6.79932ZM8.88672 6.79932L10.0098 6.79932C10.3394 6.79932 10.5469 6.5918 10.5469 6.26221L10.5469 5.13916C10.5469 4.79736 10.3394 4.58984 10.0098 4.58984L8.88672 4.58984C8.54492 4.58984 8.3374 4.79736 8.3374 5.13916L8.3374 6.26221C8.3374 6.5918 8.54492 6.79932 8.88672 6.79932ZM12.8174 6.79932L13.9282 6.79932C14.27 6.79932 14.4775 6.5918 14.4775 6.26221L14.4775 5.13916C14.4775 4.79736 14.27 4.58984 13.9282 4.58984L12.8174 4.58984C12.4756 4.58984 12.2681 4.79736 12.2681 5.13916L12.2681 6.26221C12.2681 6.5918 12.4756 6.79932 12.8174 6.79932ZM16.7358 6.79932L17.8589 6.79932C18.2007 6.79932 18.4082 6.5918 18.4082 6.26221L18.4082 5.13916C18.4082 4.79736 18.2007 4.58984 17.8589 4.58984L16.7358 4.58984C16.4062 4.58984 16.1987 4.79736 16.1987 5.13916L16.1987 6.26221C16.1987 6.5918 16.4062 6.79932 16.7358 6.79932ZM20.6665 6.79932L21.7896 6.79932C22.1191 6.79932 22.3267 6.5918 22.3267 6.26221L22.3267 5.13916C22.3267 4.79736 22.1191 4.58984 21.7896 4.58984L20.6665 4.58984C20.3247 4.58984 20.1172 4.79736 20.1172 5.13916L20.1172 6.26221C20.1172 6.5918 20.3247 6.79932 20.6665 6.79932ZM24.5972 6.79932L25.708 6.79932C26.0498 6.79932 26.2573 6.5918 26.2573 6.26221L26.2573 5.13916C26.2573 4.79736 26.0498 4.58984 25.708 4.58984L24.5972 4.58984C24.2554 4.58984 24.0479 4.79736 24.0479 5.13916L24.0479 6.26221C24.0479 6.5918 24.2554 6.79932 24.5972 6.79932ZM4.95605 10.73L6.0791 10.73C6.4209 10.73 6.62842 10.5225 6.62842 10.1807L6.62842 9.06982C6.62842 8.72803 6.4209 8.52051 6.0791 8.52051L4.95605 8.52051C4.62646 8.52051 4.41895 8.72803 4.41895 9.06982L4.41895 10.1807C4.41895 10.5225 4.62646 10.73 4.95605 10.73ZM8.88672 10.73L10.0098 10.73C10.3394 10.73 10.5469 10.5225 10.5469 10.1807L10.5469 9.06982C10.5469 8.72803 10.3394 8.52051 10.0098 8.52051L8.88672 8.52051C8.54492 8.52051 8.3374 8.72803 8.3374 9.06982L8.3374 10.1807C8.3374 10.5225 8.54492 10.73 8.88672 10.73ZM12.8174 10.73L13.9282 10.73C14.27 10.73 14.4775 10.5225 14.4775 10.1807L14.4775 9.06982C14.4775 8.72803 14.27 8.52051 13.9282 8.52051L12.8174 8.52051C12.4756 8.52051 12.2681 8.72803 12.2681 9.06982L12.2681 10.1807C12.2681 10.5225 12.4756 10.73 12.8174 10.73ZM16.7358 10.73L17.8589 10.73C18.2007 10.73 18.4082 10.5225 18.4082 10.1807L18.4082 9.06982C18.4082 8.72803 18.2007 8.52051 17.8589 8.52051L16.7358 8.52051C16.4062 8.52051 16.1987 8.72803 16.1987 9.06982L16.1987 10.1807C16.1987 10.5225 16.4062 10.73 16.7358 10.73ZM20.6665 10.73L21.7896 10.73C22.1191 10.73 22.3267 10.5225 22.3267 10.1807L22.3267 9.06982C22.3267 8.72803 22.1191 8.52051 21.7896 8.52051L20.6665 8.52051C20.3247 8.52051 20.1172 8.72803 20.1172 9.06982L20.1172 10.1807C20.1172 10.5225 20.3247 10.73 20.6665 10.73ZM24.5972 10.73L25.708 10.73C26.0498 10.73 26.2573 10.5225 26.2573 10.1807L26.2573 9.06982C26.2573 8.72803 26.0498 8.52051 25.708 8.52051L24.5972 8.52051C24.2554 8.52051 24.0479 8.72803 24.0479 9.06982L24.0479 10.1807C24.0479 10.5225 24.2554 10.73 24.5972 10.73ZM4.95605 14.6606L6.0791 14.6606C6.4209 14.6606 6.62842 14.4531 6.62842 14.1113L6.62842 12.9883C6.62842 12.6587 6.4209 12.4512 6.0791 12.4512L4.95605 12.4512C4.62646 12.4512 4.41895 12.6587 4.41895 12.9883L4.41895 14.1113C4.41895 14.4531 4.62646 14.6606 4.95605 14.6606ZM9.00879 14.6606L21.6675 14.6606C22.0825 14.6606 22.3267 14.4165 22.3267 13.9893L22.3267 13.1104C22.3267 12.6953 22.0825 12.4512 21.6675 12.4512L9.00879 12.4512C8.58154 12.4512 8.3374 12.6953 8.3374 13.1104L8.3374 13.9893C8.3374 14.4165 8.58154 14.6606 9.00879 14.6606ZM24.5972 14.6606L25.708 14.6606C26.0498 14.6606 26.2573 14.4531 26.2573 14.1113L26.2573 12.9883C26.2573 12.6587 26.0498 12.4512 25.708 12.4512L24.5972 12.4512C24.2554 12.4512 24.0479 12.6587 24.0479 12.9883L24.0479 14.1113C24.0479 14.4531 24.2554 14.6606 24.5972 14.6606Z" fill="#5ac8f5"/>
 </g>
</svg>
