<?xml version="1.0" encoding="UTF-8"?>
<!--Generator: Apple Native CoreSVG 175.5-->
<!DOCTYPE svg
PUBLIC "-//W3C//DTD SVG 1.1//EN"
       "http://www.w3.org/Graphics/SVG/1.1/DTD/svg11.dtd">
<svg version="1.1" xmlns="http://www.w3.org/2000/svg" xmlns:xlink="http://www.w3.org/1999/xlink" width="24.9023" height="24.9146">
 <g>
  <rect height="24.9146" opacity="0" width="24.9023" x="0" y="0"/>
  <path d="M12.4512 24.9023C19.2627 24.9023 24.9023 19.2505 24.9023 12.4512C24.9023 5.63965 19.2505 0 12.439 0C5.63965 0 0 5.63965 0 12.4512C0 19.2505 5.65186 24.9023 12.4512 24.9023ZM12.4512 22.8271C6.68945 22.8271 2.0874 18.2129 2.0874 12.4512C2.0874 6.68945 6.67725 2.0752 12.439 2.0752C18.2007 2.0752 22.8271 6.68945 22.8271 12.4512C22.8271 18.2129 18.2129 22.8271 12.4512 22.8271Z" fill="#5ac8f5" fill-opacity="0.5"/>
  <path d="M7.76367 17.8101C7.76367 18.2495 8.09326 18.5547 8.52051 18.5547C8.94775 18.5547 9.22852 18.2373 9.22852 17.7979L9.22852 8.45947L10.8521 8.45947C12.1826 8.45947 12.7686 8.8623 12.7686 10.2661L12.7686 14.5142C12.7686 14.978 13.0737 15.271 13.501 15.271C13.9282 15.271 14.2212 14.978 14.2212 14.5142L14.2212 10.0586C14.2212 7.86133 13.2324 6.89697 11.2061 6.89697L8.72803 6.89697C8.1543 6.89697 7.76367 7.27539 7.76367 7.84912ZM10.2905 17.4805C10.2905 18.0542 10.6445 18.4204 11.2305 18.4204L13.7573 18.4204C15.8203 18.4204 16.7236 17.4561 16.7236 15.0146L16.7236 7.51953C16.7236 7.08008 16.4429 6.7749 16.0034 6.7749C15.564 6.7749 15.271 7.06787 15.271 7.51953L15.271 15.0146C15.271 16.5771 14.8315 16.8457 13.4644 16.8457L11.7432 16.8457L11.7432 10.7788C11.7432 10.3149 11.4502 10.0342 11.0352 10.0342C10.5957 10.0342 10.2905 10.3149 10.2905 10.7788Z" fill="#5ac8f5"/>
 </g>
</svg>
