<?xml version="1.0" encoding="UTF-8"?>
<!--Generator: Apple Native CoreSVG 175.5-->
<!DOCTYPE svg
PUBLIC "-//W3C//DTD SVG 1.1//EN"
       "http://www.w3.org/Graphics/SVG/1.1/DTD/svg11.dtd">
<svg version="1.1" xmlns="http://www.w3.org/2000/svg" xmlns:xlink="http://www.w3.org/1999/xlink" width="24.9023" height="24.9146">
 <g>
  <rect height="24.9146" opacity="0" width="24.9023" x="0" y="0"/>
  <path d="M12.4512 24.9023C19.2627 24.9023 24.9023 19.2505 24.9023 12.4512C24.9023 5.63965 19.2505 0 12.439 0C5.63965 0 0 5.63965 0 12.4512C0 19.2505 5.65186 24.9023 12.4512 24.9023ZM12.4512 22.8271C6.68945 22.8271 2.0874 18.2129 2.0874 12.4512C2.0874 6.68945 6.67725 2.0752 12.439 2.0752C18.2007 2.0752 22.8271 6.68945 22.8271 12.4512C22.8271 18.2129 18.2129 22.8271 12.4512 22.8271ZM8.81348 18.042C9.2041 18.042 9.41162 17.9077 9.729 17.4805L12.3657 13.7207L12.4146 13.7207L15.0513 17.4805C15.3564 17.9077 15.5762 18.042 15.9546 18.042C16.5039 18.042 16.9189 17.6758 16.9189 17.1509C16.9189 16.9067 16.8457 16.7236 16.687 16.5161L13.623 12.3291L16.7114 8.12988C16.8823 7.91016 16.9434 7.71484 16.9434 7.48291C16.9434 7.00684 16.5405 6.62842 16.0278 6.62842C15.6494 6.62842 15.4053 6.7749 15.1367 7.17773L12.5854 10.9375L12.5244 10.9375L9.92432 7.16553C9.64355 6.7749 9.41162 6.62842 8.99658 6.62842C8.47168 6.62842 8.04443 7.04346 8.04443 7.53174C8.04443 7.80029 8.10547 7.97119 8.30078 8.23975L11.2305 12.2681L8.11768 16.5649C7.97119 16.7847 7.91016 16.9556 7.91016 17.1997C7.91016 17.6758 8.30078 18.042 8.81348 18.042Z" fill="#5ac8f5"/>
 </g>
</svg>
