<?xml version="1.0" encoding="UTF-8"?>
<!--Generator: Apple Native CoreSVG 175.5-->
<!DOCTYPE svg
PUBLIC "-//W3C//DTD SVG 1.1//EN"
       "http://www.w3.org/Graphics/SVG/1.1/DTD/svg11.dtd">
<svg version="1.1" xmlns="http://www.w3.org/2000/svg" xmlns:xlink="http://www.w3.org/1999/xlink" width="32.6416" height="27.063">
 <g>
  <rect height="27.063" opacity="0" width="32.6416" x="0" y="0"/>
  <path d="M3.83301 20.1172L21.7407 20.1172C24.2798 20.1172 25.5737 18.8477 25.5737 16.333L25.5737 6.46973C25.5737 3.95508 24.2798 2.68555 21.7407 2.68555L20.6665 2.68555L20.6665 1.31836C20.6665 0.488281 20.1904 0 19.3604 0L16.1621 0C15.332 0 14.856 0.488281 14.856 1.31836L14.856 2.68555L10.73 2.68555L10.73 1.31836C10.73 0.488281 10.2539 0 9.41162 0L6.21338 0C5.3833 0 4.90723 0.488281 4.90723 1.31836L4.90723 2.68555L3.83301 2.68555C1.26953 2.68555 0 3.94287 0 6.46973L0 16.333C0 18.8599 1.26953 20.1172 3.83301 20.1172ZM3.85742 18.1519C2.63672 18.1519 1.96533 17.4927 1.96533 16.2354L1.96533 6.56738C1.96533 5.31006 2.63672 4.65088 3.85742 4.65088L21.7041 4.65088C22.9126 4.65088 23.6084 5.31006 23.6084 6.56738L23.6084 16.2354C23.6084 17.4927 22.9126 18.1519 21.7041 18.1519ZM5.62744 12.1826L10.0098 12.1826C10.4492 12.1826 10.8154 11.8164 10.8154 11.3647C10.8154 10.9253 10.4492 10.5713 10.0098 10.5713L5.62744 10.5713C5.17578 10.5713 4.82178 10.9253 4.82178 11.3647C4.82178 11.8164 5.17578 12.1826 5.62744 12.1826ZM17.7612 14.6484C18.2129 14.6484 18.5669 14.2944 18.5669 13.8428L18.5669 12.1826L20.2393 12.1826C20.6787 12.1826 21.0327 11.8164 21.0327 11.3647C21.0327 10.9253 20.6787 10.5713 20.2393 10.5713L18.5669 10.5713L18.5669 8.89893C18.5669 8.44727 18.2129 8.10547 17.7612 8.10547C17.3096 8.10547 16.9678 8.44727 16.9678 8.89893L16.9678 10.5713L15.2832 10.5713C14.8438 10.5713 14.4897 10.9253 14.4897 11.3647C14.4897 11.8164 14.8438 12.1826 15.2832 12.1826L16.9678 12.1826L16.9678 13.8428C16.9678 14.2944 17.3096 14.6484 17.7612 14.6484ZM2.57568 22.0825C2.75879 23.1934 3.28369 23.8037 4.50439 23.8037L21.0815 23.8037C22.3022 23.8037 22.8271 23.1934 23.0103 22.0825ZM5.09033 25.4639C5.16357 26.5015 5.74951 27.0386 6.87256 27.0386L18.7012 27.0386C19.8364 27.0386 20.4224 26.5015 20.4956 25.4639Z" fill="#5ac8f5" fill-opacity="0.5"/>
  <path d="M31.0425 21.7163C31.9214 21.7163 32.6416 21.0083 32.6416 20.1782C32.6416 19.3359 31.9336 18.6401 31.0425 18.6401C30.1636 18.6401 29.4434 19.3359 29.4434 20.1782C29.4434 21.0083 30.1758 21.7163 31.0425 21.7163ZM31.0425 16.2964C31.6406 16.2964 32.0679 15.8813 32.0923 15.2588L32.3486 6.61621C32.373 5.83496 31.8481 5.31006 31.0425 5.31006C30.2368 5.31006 29.7241 5.83496 29.7485 6.61621L30.0049 15.2588C30.0293 15.8813 30.4443 16.2964 31.0425 16.2964Z" fill="#5ac8f5"/>
 </g>
</svg>
