<?xml version="1.0" encoding="UTF-8"?>
<!--Generator: Apple Native CoreSVG 175.5-->
<!DOCTYPE svg
PUBLIC "-//W3C//DTD SVG 1.1//EN"
       "http://www.w3.org/Graphics/SVG/1.1/DTD/svg11.dtd">
<svg version="1.1" xmlns="http://www.w3.org/2000/svg" xmlns:xlink="http://www.w3.org/1999/xlink" width="24.9023" height="24.9146">
 <g>
  <rect height="24.9146" opacity="0" width="24.9023" x="0" y="0"/>
  <path d="M12.4512 24.9023C19.2627 24.9023 24.9023 19.2505 24.9023 12.4512C24.9023 5.63965 19.2505 0 12.439 0C5.63965 0 0 5.63965 0 12.4512C0 19.2505 5.65186 24.9023 12.4512 24.9023ZM6.57959 14.2822C5.56641 14.2822 4.73633 13.4644 4.73633 12.439C4.73633 11.4258 5.56641 10.6079 6.57959 10.6079C7.58057 10.6079 8.41064 11.4258 8.41064 12.439C8.41064 13.4644 7.59277 14.2822 6.57959 14.2822ZM12.4512 14.2822C11.438 14.2822 10.6079 13.4644 10.6079 12.439C10.6079 11.4258 11.438 10.6079 12.4512 10.6079C13.4644 10.6079 14.2822 11.4258 14.2822 12.439C14.2822 13.4644 13.4644 14.2822 12.4512 14.2822ZM18.335 14.2822C17.3096 14.2822 16.4917 13.4644 16.4917 12.439C16.4917 11.4258 17.3096 10.6079 18.335 10.6079C19.3359 10.6079 20.166 11.4258 20.166 12.439C20.166 13.4644 19.3359 14.2822 18.335 14.2822Z" fill="#5ac8f5"/>
 </g>
</svg>
