<?xml version="1.0" encoding="UTF-8"?>
<!--Generator: Apple Native CoreSVG 175.5-->
<!DOCTYPE svg
PUBLIC "-//W3C//DTD SVG 1.1//EN"
       "http://www.w3.org/Graphics/SVG/1.1/DTD/svg11.dtd">
<svg version="1.1" xmlns="http://www.w3.org/2000/svg" xmlns:xlink="http://www.w3.org/1999/xlink" width="48.3643" height="17.3838">
 <g>
  <rect height="17.3838" opacity="0" width="48.3643" x="0" y="0"/>
  <path d="M0 8.68582C0 11.8474 1.14746 14.7649 3.17383 16.9744C3.6377 17.4871 4.32129 17.4871 4.71191 17.0354C5.10254 16.596 4.98047 16.0222 4.54102 15.5218C2.90527 13.7029 1.98975 11.3103 1.98975 8.68582C1.98975 6.06131 2.90527 3.66873 4.54102 1.84988C4.98047 1.34939 5.10254 0.775662 4.71191 0.336209C4.32129-0.127659 3.6377-0.115452 3.17383 0.397244C1.14746 2.59451 0 5.5242 0 8.68582ZM4.89502 8.68582C4.89502 10.4803 5.50537 12.1526 6.56738 13.471C6.99463 14.0203 7.72705 14.0081 8.12988 13.5564C8.52051 13.117 8.36182 12.5677 7.97119 12.0428C7.23877 11.1272 6.88477 9.95535 6.88477 8.68582C6.88477 7.40408 7.25098 6.22 7.97119 5.32888C8.36182 4.80398 8.52051 4.25467 8.12988 3.81521C7.72705 3.35135 6.99463 3.35135 6.56738 3.90066C5.50537 5.21902 4.89502 6.89138 4.89502 8.68582ZM9.83887 9.57693C9.8877 10.5535 10.1929 11.4324 10.7666 12.0183C11.2061 12.4456 11.792 12.7019 12.4878 12.5799L17.0166 11.8108C17.7002 11.701 18.1763 11.4934 18.4814 11.1883C18.8843 10.7976 19.0063 10.2117 19.0063 9.43045L19.0186 8.20974C19.0186 8.01443 19.104 7.86795 19.2139 7.74588C19.3359 7.59939 19.519 7.53836 19.6533 7.50174C20.4834 7.30642 22.1802 7.11111 24.1821 7.11111C26.1963 7.11111 27.8809 7.30642 28.7109 7.50174C28.8452 7.53836 29.0283 7.59939 29.1504 7.74588C29.2725 7.86795 29.3579 8.01443 29.3579 8.20974L29.3579 9.43045C29.3579 10.2117 29.48 10.7976 29.8828 11.1883C30.188 11.4934 30.6641 11.701 31.3477 11.8108L35.8765 12.5799C36.5723 12.7019 37.1704 12.4456 37.5977 12.0183C38.1714 11.4324 38.4766 10.5535 38.5254 9.57693C38.5986 7.92898 38.0371 6.574 36.9141 5.46316C34.436 2.98513 29.4678 1.87429 24.1821 1.86209C18.8965 1.87429 13.9282 2.98513 11.4502 5.46316C10.3394 6.574 9.76562 7.92898 9.83887 9.57693ZM43.4814 8.68582C43.4814 6.89138 42.8589 5.21902 41.7969 3.90066C41.3696 3.35135 40.6372 3.35135 40.2344 3.81521C39.8438 4.25467 40.0024 4.80398 40.3931 5.32888C41.1255 6.2322 41.4917 7.41629 41.4917 8.68582C41.4917 9.95535 41.1255 11.1272 40.3931 12.0428C40.0024 12.5677 39.8438 13.117 40.2344 13.5564C40.6372 14.0081 41.3696 14.0203 41.7969 13.471C42.8589 12.1526 43.4814 10.4803 43.4814 8.68582ZM48.3643 8.68582C48.3643 5.5242 47.229 2.59451 45.2026 0.397244C44.7266-0.115452 44.043-0.127659 43.6523 0.336209C43.2617 0.775662 43.3838 1.34939 43.8232 1.84988C45.459 3.66873 46.3745 6.06131 46.3745 8.68582C46.3745 11.3103 45.459 13.7029 43.8232 15.5218C43.3838 16.0222 43.2617 16.596 43.6523 17.0354C44.043 17.4871 44.7266 17.4871 45.2026 16.9744C47.229 14.7649 48.3643 11.8474 48.3643 8.68582Z" fill="#5ac8f5"/>
 </g>
</svg>
