<?xml version="1.0" encoding="UTF-8"?>
<!--Generator: Apple Native CoreSVG 175.5-->
<!DOCTYPE svg
PUBLIC "-//W3C//DTD SVG 1.1//EN"
       "http://www.w3.org/Graphics/SVG/1.1/DTD/svg11.dtd">
<svg version="1.1" xmlns="http://www.w3.org/2000/svg" xmlns:xlink="http://www.w3.org/1999/xlink" width="18.4448" height="20.6909">
 <g>
  <rect height="20.6909" opacity="0" width="18.4448" x="0" y="0"/>
  <path d="M16.9922 20.6909C17.8833 20.6909 18.4448 19.9951 18.4448 18.9331L18.4448 1.77002C18.4448 0.708008 17.8833 0.0244141 16.9922 0.0244141C16.4917 0.0244141 16.0889 0.20752 15.5884 0.488281L1.36719 8.72803C0.341797 9.31396 0 9.70459 0 10.3516C0 10.9985 0.341797 11.3892 1.36719 11.9873L15.5884 20.2148C16.0889 20.4956 16.4917 20.6909 16.9922 20.6909ZM16.3574 18.3594C16.3086 18.3594 16.2598 18.335 16.2109 18.3105L2.70996 10.4858C2.64893 10.4614 2.58789 10.4126 2.58789 10.3516C2.58789 10.2905 2.64893 10.2539 2.70996 10.2173L16.2109 2.40479C16.2598 2.36816 16.3086 2.34375 16.3574 2.34375C16.4307 2.34375 16.4795 2.39258 16.4795 2.49023L16.4795 18.2129C16.4795 18.3105 16.4307 18.3594 16.3574 18.3594Z" fill="#5ac8f5"/>
 </g>
</svg>
