<?xml version="1.0" encoding="UTF-8"?>
<!--Generator: Apple Native CoreSVG 175.5-->
<!DOCTYPE svg
PUBLIC "-//W3C//DTD SVG 1.1//EN"
       "http://www.w3.org/Graphics/SVG/1.1/DTD/svg11.dtd">
<svg version="1.1" xmlns="http://www.w3.org/2000/svg" xmlns:xlink="http://www.w3.org/1999/xlink" width="24.9023" height="24.9146">
 <g>
  <rect height="24.9146" opacity="0" width="24.9023" x="0" y="0"/>
  <path d="M12.4512 24.9023C19.2627 24.9023 24.9023 19.2505 24.9023 12.4512C24.9023 5.63965 19.2505 0 12.439 0C5.63965 0 0 5.63965 0 12.4512C0 19.2505 5.65186 24.9023 12.4512 24.9023ZM12.4512 22.8271C6.68945 22.8271 2.0874 18.2129 2.0874 12.4512C2.0874 6.68945 6.67725 2.0752 12.439 2.0752C18.2007 2.0752 22.8271 6.68945 22.8271 12.4512C22.8271 18.2129 18.2129 22.8271 12.4512 22.8271Z" fill="#5ac8f5" fill-opacity="0.5"/>
  <path d="M8.99658 17.3584C8.99658 17.9199 9.38721 18.3105 9.96094 18.3105L10.4736 18.3105L10.4736 19.2749C10.4736 19.6289 10.7178 19.873 11.0596 19.873C11.4014 19.873 11.6455 19.6289 11.6455 19.2749L11.6455 18.3105L12.439 18.3105L12.439 19.2749C12.439 19.6289 12.6953 19.873 13.0249 19.873C13.3667 19.873 13.623 19.6289 13.623 19.2749L13.623 18.2739C15.6494 18.0542 16.8335 16.8823 16.8335 15.0879C16.8335 13.7085 16.0156 12.6831 14.7583 12.3047C15.6616 11.8652 16.2842 10.9009 16.2842 9.86328C16.2842 8.34961 15.2466 7.25098 13.623 7.00684L13.623 6.01807C13.623 5.66406 13.3667 5.41992 13.0249 5.41992C12.6953 5.41992 12.439 5.66406 12.439 6.01807L12.439 6.95801L11.6455 6.95801L11.6455 6.01807C11.6455 5.66406 11.4014 5.41992 11.0596 5.41992C10.7178 5.41992 10.4736 5.66406 10.4736 6.01807L10.4736 6.95801L9.96094 6.95801C9.39941 6.95801 8.99658 7.34863 8.99658 7.92236ZM10.5591 16.8823L10.5591 13.1714L12.6221 13.1714C14.3677 13.1714 15.271 13.7939 15.271 15.0269C15.271 16.2354 14.4043 16.8579 12.7563 16.8701ZM10.5591 11.7432L10.5591 8.37402L12.6465 8.37402C13.9648 8.37402 14.7217 8.94775 14.7217 9.98535C14.7217 11.1328 13.8672 11.7676 12.3047 11.7554Z" fill="#5ac8f5"/>
 </g>
</svg>
