<?xml version="1.0" encoding="UTF-8"?>
<!--Generator: Apple Native CoreSVG 175.5-->
<!DOCTYPE svg
PUBLIC "-//W3C//DTD SVG 1.1//EN"
       "http://www.w3.org/Graphics/SVG/1.1/DTD/svg11.dtd">
<svg version="1.1" xmlns="http://www.w3.org/2000/svg" xmlns:xlink="http://www.w3.org/1999/xlink" width="14.8926" height="19.8853">
 <g>
  <rect height="19.8853" opacity="0" width="14.8926" x="0" y="0"/>
  <path d="M1.62354 19.8853L4.40674 19.8853C5.46875 19.8853 6.03027 19.3237 6.03027 18.2495L6.03027 1.62354C6.03027 0.512695 5.46875 0 4.40674 0L1.62354 0C0.561523 0 0 0.561523 0 1.62354L0 18.2495C0 19.3237 0.561523 19.8853 1.62354 19.8853ZM10.498 19.8853L13.269 19.8853C14.3433 19.8853 14.8926 19.3237 14.8926 18.2495L14.8926 1.62354C14.8926 0.512695 14.3433 0 13.269 0L10.498 0C9.42383 0 8.8623 0.561523 8.8623 1.62354L8.8623 18.2495C8.8623 19.3237 9.42383 19.8853 10.498 19.8853Z" fill="#5ac8f5"/>
 </g>
</svg>
