<?xml version="1.0" encoding="UTF-8"?>
<!--Generator: Apple Native CoreSVG 175.5-->
<!DOCTYPE svg
PUBLIC "-//W3C//DTD SVG 1.1//EN"
       "http://www.w3.org/Graphics/SVG/1.1/DTD/svg11.dtd">
<svg version="1.1" xmlns="http://www.w3.org/2000/svg" xmlns:xlink="http://www.w3.org/1999/xlink" width="37.1582" height="23.2056">
 <g>
  <rect height="23.2056" opacity="0" width="37.1582" x="0" y="0"/>
  <path d="M15.3442 11.377C15.3442 10.73 14.9048 10.2783 14.27 10.2783L5.94482 10.2783L3.51562 10.3638L7.54395 6.46973C7.75146 6.26221 7.84912 5.96924 7.84912 5.68848C7.84912 5.06592 7.38525 4.62646 6.7749 4.62646C6.48193 4.62646 6.20117 4.73633 5.95703 4.98047L0.378418 10.5469C0.146484 10.791 0 11.0718 0 11.377C0 11.6699 0.146484 11.9629 0.378418 12.1948L5.95703 17.7612C6.20117 18.0054 6.48193 18.1152 6.7749 18.1152C7.38525 18.1152 7.84912 17.6758 7.84912 17.0532C7.84912 16.7603 7.75146 16.4795 7.54395 16.272L3.51562 12.3901L5.94482 12.4634L14.27 12.4634C14.9048 12.4634 15.3442 12.0117 15.3442 11.377ZM18.5791 23.2056C19.2139 23.2056 19.6655 22.7539 19.6655 22.1191L19.6655 1.06201C19.6655 0.439453 19.2139 0 18.5791 0C17.9443 0 17.4805 0.439453 17.4805 1.06201L17.4805 22.1191C17.4805 22.7539 17.9443 23.2056 18.5791 23.2056ZM21.814 11.377C21.814 12.0117 22.2534 12.4634 22.8882 12.4634L31.2012 12.4634L33.6426 12.3901L29.6143 16.272C29.4067 16.4795 29.3091 16.7603 29.3091 17.0532C29.3091 17.6758 29.7729 18.1152 30.3711 18.1152C30.6763 18.1152 30.957 18.0054 31.2012 17.7612L36.7798 12.1948C37.0117 11.9629 37.1582 11.6699 37.1582 11.377C37.1582 11.0718 37.0117 10.791 36.7798 10.5469L31.2012 4.98047C30.957 4.73633 30.6763 4.62646 30.3711 4.62646C29.7729 4.62646 29.3091 5.06592 29.3091 5.68848C29.3091 5.96924 29.4067 6.26221 29.6143 6.46973L33.6426 10.3638L31.2012 10.2783L22.8882 10.2783C22.2534 10.2783 21.814 10.73 21.814 11.377Z" fill="#5ac8f5"/>
 </g>
</svg>
