<?xml version="1.0" encoding="UTF-8"?>
<!--Generator: Apple Native CoreSVG 175.5-->
<!DOCTYPE svg
PUBLIC "-//W3C//DTD SVG 1.1//EN"
       "http://www.w3.org/Graphics/SVG/1.1/DTD/svg11.dtd">
<svg version="1.1" xmlns="http://www.w3.org/2000/svg" xmlns:xlink="http://www.w3.org/1999/xlink" width="32.019" height="32.1336">
 <g>
  <rect height="32.1336" opacity="0" width="32.019" x="0" y="0"/>
  <path d="M5.06592 21.7248L18.2739 21.7248C21.7285 21.7248 24.4141 19.1002 24.4141 15.7189C24.4141 12.362 21.6797 9.8229 18.0298 9.79848C16.6016 7.06411 14.0625 5.4894 11.1084 5.4894C7.14111 5.4894 3.77197 8.56557 3.40576 12.5817C1.33057 13.2042 0 14.9621 0 17.1105C0 19.8449 2.06299 21.7248 5.06592 21.7248ZM25.9399 15.5236C29.7485 14.8522 32.019 11.7638 32.019 9.74965C32.019 9.28579 31.7993 8.93178 31.4087 8.93178C30.8228 8.93178 29.9316 9.71303 28.2471 9.71303C25.2563 9.71303 23.3765 7.90639 23.3765 5.18422C23.3765 3.56069 24.2432 2.38881 24.2432 1.74184C24.2432 1.36342 23.9868 1.10708 23.4985 1.13149C21.2402 1.21694 18.3716 3.74379 17.7368 6.99086C18.1152 7.34487 18.4814 7.82094 18.7744 8.46792C22.8882 8.7853 25.8667 11.8737 25.9399 15.5236ZM15.2466 26.1803L12.5732 26.1803L12.5488 26.7052L13.9404 24.0685C14.0869 23.7999 13.9771 23.6046 13.7085 23.6046L11.1572 23.6046C10.8154 23.6046 10.7056 23.7267 10.5957 23.9708L9.0332 27.5231C8.91113 27.8161 9.04541 27.9992 9.35059 27.9992L11.5356 27.9992L11.6943 27.279L9.82666 31.7711C9.75342 31.942 9.79004 32.0641 9.91211 32.1129C10.022 32.1618 10.1562 32.1251 10.2661 31.9909L15.4297 26.7663C15.686 26.5099 15.6006 26.1803 15.2466 26.1803Z" fill="#5ac8f5"/>
 </g>
</svg>
