<?xml version="1.0" encoding="UTF-8"?>
<!--Generator: Apple Native CoreSVG 175.5-->
<!DOCTYPE svg
PUBLIC "-//W3C//DTD SVG 1.1//EN"
       "http://www.w3.org/Graphics/SVG/1.1/DTD/svg11.dtd">
<svg version="1.1" xmlns="http://www.w3.org/2000/svg" xmlns:xlink="http://www.w3.org/1999/xlink" width="22.3491" height="30.896">
 <g>
  <rect height="30.896" opacity="0" width="22.3491" x="0" y="0"/>
  <path d="M2.25631 10.2173L3.00094 8.56934C2.37838 8.38623 1.92672 7.78809 1.92672 7.06787C1.92672 5.92041 3.17183 5.15137 4.49019 5.56641C4.3193 4.32129 5.58883 3.39355 6.83394 4.00391C6.45553 2.57568 7.35885 1.77002 8.37203 1.77002C9.3608 1.77002 10.3618 2.52686 10.1665 3.97949C10.9599 3.45459 12.2905 3.56445 12.9619 4.07715C13.2793 3.34473 13.9384 2.91748 14.7075 2.91748C15.8061 2.91748 16.3798 3.79639 16.3432 5.01709C17.8569 4.77295 18.9433 5.45654 18.9433 6.87256C18.9433 7.6416 18.3574 8.3374 17.6128 8.55713L18.6015 10.0952C19.8344 9.49707 20.6889 8.21533 20.6889 6.75049C20.6889 4.65088 19.3462 3.17383 17.4052 3.125C16.8925 1.94092 15.9526 1.14746 14.622 1.14746C13.792 1.14746 13.0229 1.44043 12.437 1.97754C12.1318 1.89209 11.7168 1.86768 11.3628 1.94092C10.8378 0.756836 9.67818 0 8.37203 0C6.63863 0 5.50338 1.06201 5.28365 2.12402C4.35592 2.03857 3.57467 2.89307 3.57467 3.72314C1.70699 3.66211 0.181112 5.2002 0.181112 7.06787C0.181112 8.48389 1.0356 9.7168 2.25631 10.2173ZM5.62545 28.9185L13.2548 28.9185L13.1816 27.0996L9.33639 27.0996L7.94478 11.8286C7.7983 10.2417 8.78707 9.2041 10.435 9.2041C12.083 9.2041 13.0717 10.2417 12.9253 11.8286L11.7534 24.7559L13.6333 23.9258L14.7197 11.9019C14.8418 10.5469 15.7329 9.82666 16.8193 9.82666C18.1499 9.82666 19.3217 10.8032 19.0044 12.439L17.3686 20.9229L19.1875 21.0083L20.7866 12.5366C21.3115 9.81445 19.2851 8.00781 16.8193 8.00781C15.7207 8.00781 14.7563 8.44727 14.0727 9.24072C13.3891 8.11768 12.0708 7.38525 10.435 7.38525C8.79928 7.38525 7.48092 8.11768 6.79732 9.24072C6.11373 8.44727 5.14937 8.00781 4.05074 8.00781C1.58492 8.00781-0.441447 9.81445 0.0834554 12.5366L2.65914 26.1719C2.98873 27.9297 3.87984 28.9185 5.62545 28.9185ZM5.68648 27.0996C5.0151 27.0996 4.62447 26.7578 4.5024 26.0864L1.86568 12.439C1.5483 10.8032 2.72017 9.82666 4.05074 9.82666C5.13717 9.82666 6.02828 10.5469 6.13814 11.9019L7.51754 27.0996ZM17.1001 30.8716C18.2841 30.8716 19.3828 30.2002 19.8955 29.1748C21.3481 28.833 22.3491 27.5513 22.3491 26.062C22.3491 24.7192 21.519 23.584 20.396 23.0103C20.3227 21.2524 18.8823 20.0806 17.1001 20.0806C15.3422 20.0806 13.9262 21.2036 13.8164 22.8882C12.3515 23.2178 11.2651 24.5239 11.2651 26.0498C11.2651 27.771 12.5835 29.1382 14.2558 29.2847C14.8173 30.2246 15.9038 30.8716 17.1001 30.8716ZM17.1001 29.2969C16.1601 29.2969 15.2934 28.7109 15.3422 27.6123C14.0971 28.0029 12.8276 27.356 12.8276 26.0498C12.8276 24.7192 13.8774 23.9746 15.4155 24.231C15.0127 23.0957 15.6108 21.6553 17.1001 21.6553C18.5405 21.6553 19.2241 23.0347 18.8335 24.3164C19.9687 24.1943 20.7378 24.9268 20.7378 26.123C20.7378 27.1729 19.9931 27.7954 18.7724 27.6855C18.809 28.6255 17.9668 29.2969 17.1001 29.2969Z" fill="#5ac8f5"/>
 </g>
</svg>
