<?xml version="1.0" encoding="UTF-8"?>
<!--Generator: Apple Native CoreSVG 175.5-->
<!DOCTYPE svg
PUBLIC "-//W3C//DTD SVG 1.1//EN"
       "http://www.w3.org/Graphics/SVG/1.1/DTD/svg11.dtd">
<svg version="1.1" xmlns="http://www.w3.org/2000/svg" xmlns:xlink="http://www.w3.org/1999/xlink" width="28.894" height="22.8638">
 <g>
  <rect height="22.8638" opacity="0" width="28.894" x="0" y="0"/>
  <path d="M15.1123 8.48389C16.5894 8.48389 17.7856 7.2998 17.7856 5.82275C17.7856 4.3457 16.5894 3.14941 15.1123 3.14941C13.6353 3.14941 12.4512 4.3457 12.4512 5.82275C12.4512 7.2998 13.6353 8.48389 15.1123 8.48389ZM9.30176 14.3188C12.0483 14.6606 12.4146 16.2476 14.4409 16.2476C14.5142 16.2476 14.563 16.2476 14.6362 16.2354L15.8325 12.8784C15.9668 12.4878 16.1865 12.3413 16.6016 12.3413L27.4536 12.3413C28.1616 12.3413 28.7598 11.7432 28.7598 11.0229C28.7598 10.3271 28.1616 9.729 27.4536 9.729L7.00684 9.729L5.31006 4.18701C5.10254 3.479 4.38232 3.08838 3.71094 3.2959C3.02734 3.51562 2.64893 4.24805 2.84424 4.89502L4.74854 11.2549C4.93164 11.853 5.39551 12.3413 6.03027 12.3413L9.52148 12.3413C9.77783 12.3413 9.94873 12.5488 9.86328 12.8052ZM7.86133 3.8208C8.91113 3.8208 9.76562 2.96631 9.76562 1.9165C9.76562 0.866699 8.91113 0 7.86133 0C6.81152 0 5.95703 0.866699 5.95703 1.9165C5.95703 2.96631 6.81152 3.8208 7.86133 3.8208ZM0.683594 19.4702L1.9165 19.4702C5.17578 19.4702 5.92041 17.4683 8.17871 17.4683C10.437 17.4683 11.1816 19.4702 14.4409 19.4702C17.7124 19.4702 18.4448 17.4683 20.7153 17.4683C22.9736 17.4683 23.7061 19.4702 26.9775 19.4702L28.2104 19.4702C28.5889 19.4702 28.894 19.1772 28.894 18.7988C28.894 18.4204 28.5889 18.1152 28.2104 18.1152L26.9775 18.1152C24.6338 18.1152 23.8403 16.1133 20.7153 16.1133C17.5781 16.1133 16.7847 18.1152 14.4409 18.1152C12.0972 18.1152 11.3159 16.1133 8.17871 16.1133C5.05371 16.1133 4.26025 18.1152 1.9165 18.1152L0.683594 18.1152C0.292969 18.1152 0 18.4204 0 18.7988C0 19.1772 0.292969 19.4702 0.683594 19.4702ZM1.00098 22.8638C1.40381 22.8638 1.72119 22.5464 1.72119 22.1436C1.72119 21.7529 1.40381 21.4355 1.00098 21.4355C0.610352 21.4355 0.292969 21.7529 0.292969 22.1436C0.292969 22.5464 0.610352 22.8638 1.00098 22.8638ZM3.2959 22.4487C3.68652 22.4487 4.00391 22.1313 4.00391 21.7407C4.00391 21.3379 3.68652 21.0205 3.2959 21.0205C2.89307 21.0205 2.57568 21.3379 2.57568 21.7407C2.57568 22.1313 2.89307 22.4487 3.2959 22.4487ZM5.43213 21.4355C5.83496 21.4355 6.15234 21.1304 6.15234 20.7275C6.15234 20.3247 5.83496 20.0195 5.43213 20.0195C5.0415 20.0195 4.72412 20.3247 4.72412 20.7275C4.72412 21.1304 5.0415 21.4355 5.43213 21.4355ZM7.73926 20.8984C8.14209 20.8984 8.45947 20.5811 8.45947 20.1782C8.45947 19.7876 8.14209 19.4702 7.73926 19.4702C7.34863 19.4702 7.03125 19.7876 7.03125 20.1782C7.03125 20.5811 7.34863 20.8984 7.73926 20.8984ZM10.0464 21.4355C10.4492 21.4355 10.7544 21.1304 10.7544 20.7275C10.7544 20.3247 10.4492 20.0195 10.0464 20.0195C9.64355 20.0195 9.33838 20.3247 9.33838 20.7275C9.33838 21.1304 9.64355 21.4355 10.0464 21.4355ZM12.207 22.4487C12.6099 22.4487 12.9272 22.1313 12.9272 21.7407C12.9272 21.3379 12.6099 21.0205 12.207 21.0205C11.8164 21.0205 11.499 21.3379 11.499 21.7407C11.499 22.1313 11.8164 22.4487 12.207 22.4487ZM14.4653 22.8638C14.856 22.8638 15.1733 22.5464 15.1733 22.1436C15.1733 21.7529 14.856 21.4355 14.4653 21.4355C14.0625 21.4355 13.7451 21.7529 13.7451 22.1436C13.7451 22.5464 14.0625 22.8638 14.4653 22.8638ZM16.7114 22.4487C17.1143 22.4487 17.4194 22.1313 17.4194 21.7407C17.4194 21.3379 17.1143 21.0205 16.7114 21.0205C16.3086 21.0205 16.0034 21.3379 16.0034 21.7407C16.0034 22.1313 16.3086 22.4487 16.7114 22.4487ZM18.8721 21.4355C19.2749 21.4355 19.5923 21.1304 19.5923 20.7275C19.5923 20.3247 19.2749 20.0195 18.8721 20.0195C18.4814 20.0195 18.1641 20.3247 18.1641 20.7275C18.1641 21.1304 18.4814 21.4355 18.8721 21.4355ZM21.1792 20.8984C21.582 20.8984 21.8872 20.5811 21.8872 20.1782C21.8872 19.7876 21.582 19.4702 21.1792 19.4702C20.7764 19.4702 20.4712 19.7876 20.4712 20.1782C20.4712 20.5811 20.7764 20.8984 21.1792 20.8984ZM23.4863 21.4355C23.8892 21.4355 24.1943 21.1304 24.1943 20.7275C24.1943 20.3247 23.8892 20.0195 23.4863 20.0195C23.0835 20.0195 22.7783 20.3247 22.7783 20.7275C22.7783 21.1304 23.0835 21.4355 23.4863 21.4355ZM25.6348 22.4487C26.0376 22.4487 26.3428 22.1313 26.3428 21.7407C26.3428 21.3379 26.0376 21.0205 25.6348 21.0205C25.2319 21.0205 24.9268 21.3379 24.9268 21.7407C24.9268 22.1313 25.2319 22.4487 25.6348 22.4487ZM27.9053 22.8638C28.3081 22.8638 28.6255 22.5464 28.6255 22.1436C28.6255 21.7529 28.3081 21.4355 27.9053 21.4355C27.5146 21.4355 27.1973 21.7529 27.1973 22.1436C27.1973 22.5464 27.5146 22.8638 27.9053 22.8638Z" fill="#5ac8f5"/>
 </g>
</svg>
