<?xml version="1.0" encoding="UTF-8"?>
<!--Generator: Apple Native CoreSVG 175.5-->
<!DOCTYPE svg
PUBLIC "-//W3C//DTD SVG 1.1//EN"
       "http://www.w3.org/Graphics/SVG/1.1/DTD/svg11.dtd">
<svg version="1.1" xmlns="http://www.w3.org/2000/svg" xmlns:xlink="http://www.w3.org/1999/xlink" width="24.9023" height="24.9146">
 <g>
  <rect height="24.9146" opacity="0" width="24.9023" x="0" y="0"/>
  <path d="M12.4512 24.9023C19.2627 24.9023 24.9023 19.2505 24.9023 12.4512C24.9023 5.63965 19.2505 0 12.439 0C5.63965 0 0 5.63965 0 12.4512C0 19.2505 5.65186 24.9023 12.4512 24.9023ZM12.4512 22.8271C6.68945 22.8271 2.0874 18.2129 2.0874 12.4512C2.0874 6.68945 6.67725 2.0752 12.439 2.0752C18.2007 2.0752 22.8271 6.68945 22.8271 12.4512C22.8271 18.2129 18.2129 22.8271 12.4512 22.8271ZM7.99561 17.4805C7.99561 17.9077 8.27637 18.2007 8.71582 18.2007L16.0889 18.2007C16.5283 18.2007 16.8335 17.9077 16.8335 17.4805C16.8335 17.0532 16.5283 16.7725 16.0889 16.7725L10.8154 16.7725C11.3403 16.3452 11.7065 15.6006 11.8164 14.8071C11.8408 14.6118 11.853 14.4287 11.853 14.2456L14.7705 14.2456C15.1733 14.2456 15.4541 13.9771 15.4541 13.5864C15.4541 13.1958 15.1733 12.9395 14.7705 12.9395L11.7188 12.9395C11.6333 12.5732 11.5356 12.2192 11.4502 11.8774L14.7705 11.8774C15.1733 11.8774 15.4541 11.6089 15.4541 11.2183C15.4541 10.8276 15.1733 10.5713 14.7705 10.5713L11.2305 10.5713C11.2183 10.4492 11.2061 10.3271 11.2061 10.2051C11.2061 8.88672 12.146 7.9834 13.7573 7.9834C14.6606 7.9834 15.1978 8.20312 15.5762 8.25195C16.0278 8.27637 16.272 8.00781 16.272 7.60498C16.272 7.2876 16.1133 7.03125 15.686 6.86035C15.1123 6.62842 14.4165 6.54297 13.6719 6.54297C11.145 6.54297 9.60693 8.00781 9.60693 10.3027C9.60693 10.4004 9.61914 10.4736 9.63135 10.5713L8.70361 10.5713C8.31299 10.5713 8.02002 10.8276 8.02002 11.2183C8.02002 11.6089 8.31299 11.8774 8.70361 11.8774L9.83887 11.8774C9.91211 12.2314 10.022 12.5854 10.1074 12.9395L8.70361 12.9395C8.31299 12.9395 8.02002 13.1958 8.02002 13.5864C8.02002 13.9771 8.31299 14.2456 8.70361 14.2456L10.3027 14.2456C10.3149 14.3799 10.3027 14.502 10.2905 14.6484C10.1685 15.7227 9.46045 16.4551 8.63037 16.687C8.17871 16.8335 7.99561 17.0776 7.99561 17.4805Z" fill="#5ac8f5"/>
 </g>
</svg>
