<?xml version="1.0" encoding="UTF-8"?>
<!--Generator: Apple Native CoreSVG 175.5-->
<!DOCTYPE svg
PUBLIC "-//W3C//DTD SVG 1.1//EN"
       "http://www.w3.org/Graphics/SVG/1.1/DTD/svg11.dtd">
<svg version="1.1" xmlns="http://www.w3.org/2000/svg" xmlns:xlink="http://www.w3.org/1999/xlink" width="23.4741" height="27.6733">
 <g>
  <rect height="27.6733" opacity="0" width="23.4741" x="0" y="0"/>
  <path d="M4.15039 27.0264C4.72412 27.0264 4.95605 26.709 5.09033 26.1841L6.11572 22.3022L17.4316 22.3022L18.457 26.1841C18.6035 26.709 18.8721 27.0264 19.397 27.0264C20.0317 27.0264 20.3491 26.6602 20.3491 26.123C20.3491 26.001 20.3369 25.8789 20.3003 25.7446L18.3472 18.4326L19.0552 18.4326C19.8486 18.4326 20.4468 17.9321 20.4468 17.2363C20.4468 16.4795 19.9097 15.9912 19.1162 15.9912L5.17578 15.9912C4.26025 15.9912 3.73535 15.5151 3.73535 14.6362L3.73535 11.2915L5.61523 11.2915L5.61523 12.1948C5.61523 13.5864 6.29883 14.2334 7.72705 14.2334L15.9058 14.2334C17.3218 14.2334 18.0054 13.5864 18.0054 12.1948L18.0054 11.2915L22.3999 11.2915C23.0591 11.2915 23.4741 10.9253 23.4741 10.3516C23.4741 9.76562 23.0713 9.39941 22.4487 9.39941L0.964355 9.39941C0.378418 9.39941 0 9.77783 0 10.3516C0 10.9253 0.402832 11.2915 1.02539 11.2915L1.84326 11.2915L1.84326 15.8691C1.84326 17.4805 2.83203 18.4326 4.44336 18.4326L5.2002 18.4326L3.25928 25.7446C3.22266 25.8667 3.19824 25.9766 3.19824 26.1353C3.19824 26.6357 3.479 27.0264 4.15039 27.0264ZM6.62842 20.3979L7.14111 18.4326L16.4062 18.4326L16.9189 20.3979ZM7.67822 7.58057L15.9546 7.58057C17.3828 7.58057 18.0786 6.92139 18.0786 5.51758L18.0786 2.06299C18.0786 0.65918 17.3828 0 15.9546 0L7.67822 0C6.23779 0 5.5542 0.65918 5.5542 2.06299L5.5542 5.51758C5.5542 6.92139 6.23779 7.58057 7.67822 7.58057Z" fill="#5ac8f5"/>
 </g>
</svg>
