<?xml version="1.0" encoding="UTF-8"?>
<!--Generator: Apple Native CoreSVG 175.5-->
<!DOCTYPE svg
PUBLIC "-//W3C//DTD SVG 1.1//EN"
       "http://www.w3.org/Graphics/SVG/1.1/DTD/svg11.dtd">
<svg version="1.1" xmlns="http://www.w3.org/2000/svg" xmlns:xlink="http://www.w3.org/1999/xlink" width="28.8561" height="34.7046">
 <g>
  <rect height="34.7046" opacity="0" width="28.8561" x="0" y="0"/>
  <path d="M9.83887 28.6987C13.6475 32.5073 18.3838 32.2754 21.814 28.8452C24.5605 26.0986 25.1099 23.2544 23.938 19.812C23.3276 17.8711 22.3022 15.8203 21.0571 13.501C20.5566 12.5488 19.9585 11.3037 19.5435 10.8887C19.0796 10.4248 18.4326 10.4614 17.9443 10.9497C17.395 11.499 17.4194 12.1582 17.8345 13.3789L19.1528 17.1021C19.3115 17.4927 19.2749 17.7368 19.1406 17.8833C18.9575 18.0542 18.7378 18.0786 18.4326 17.7734L9.375 8.71582C8.87451 8.21533 8.03223 8.21533 7.53174 8.71582C7.01904 9.22852 7.01904 10.0586 7.53174 10.5713L14.0015 17.041C13.6841 17.1875 13.3545 17.3706 13.0249 17.6025L5.51758 10.0952C5.00488 9.58252 4.1748 9.58252 3.66211 10.0952C3.14941 10.5957 3.14941 11.438 3.66211 11.9385L11.084 19.3604C10.8276 19.6533 10.5957 19.9585 10.376 20.2759L3.58887 13.4888C3.07617 12.9883 2.24609 12.9883 1.7334 13.4888C1.2207 14.0015 1.2207 14.8315 1.7334 15.3442L9.10645 22.7173C8.95996 23.1323 8.8623 23.5474 8.77686 23.938L3.6499 18.811C3.13721 18.2983 2.30713 18.2983 1.79443 18.811C1.29395 19.3115 1.29395 20.1538 1.79443 20.6543ZM16.1255 11.1206L13.7207 8.71582C13.208 8.21533 12.3657 8.21533 11.8652 8.71582C11.8408 8.74023 11.8286 8.75244 11.8164 8.78906L16.2476 13.2324C16.1011 12.4756 16.04 11.7798 16.1255 11.1206ZM26.1475 28.8574C28.894 26.0986 29.4434 23.2422 28.2837 19.7998C27.6611 17.8711 26.6357 15.8325 25.3906 13.501C24.9023 12.5488 24.292 11.3037 23.877 10.9009C23.4131 10.437 22.7783 10.4614 22.2778 10.9497C22.1069 11.1084 21.9971 11.3037 21.9238 11.5112C22.1924 12.0117 22.4487 12.5244 22.7173 13.0127C23.9014 15.2588 24.939 17.3706 25.5371 19.3481C26.8799 23.4863 26.0742 26.9531 22.9858 30.0171C22.4609 30.5542 21.8994 31.0059 21.3135 31.3965C23.0469 31.1523 24.7192 30.2734 26.1475 28.8574Z" fill="#5ac8f5"/>
  <path d="M18.3228 8.70361C18.5303 8.70361 18.6768 8.56934 18.689 8.34961C19.043 5.48096 19.1772 5.40771 22.1069 4.91943C22.3389 4.89502 22.4731 4.77295 22.4731 4.56543C22.4731 4.37012 22.3389 4.24805 22.1558 4.21143C19.2017 3.6499 19.043 3.66211 18.689 0.793457C18.6768 0.57373 18.5303 0.439453 18.3228 0.439453C18.1396 0.439453 17.9932 0.57373 17.981 0.78125C17.6025 3.69873 17.5049 3.78418 14.5142 4.21143C14.3311 4.23584 14.1968 4.37012 14.1968 4.56543C14.1968 4.76074 14.3311 4.89502 14.5142 4.91943C17.5049 5.50537 17.5903 5.49316 17.981 8.37402C17.9932 8.56934 18.1396 8.70361 18.3228 8.70361ZM10.1562 5.40771C10.3027 5.40771 10.4004 5.33447 10.437 5.17578C10.7666 3.34473 10.7666 3.33252 12.6099 2.99072C12.7686 2.9541 12.8662 2.85645 12.8662 2.70996C12.8662 2.55127 12.7686 2.45361 12.6099 2.41699C10.7666 2.05078 10.8276 2.03857 10.437 0.244141C10.4004 0.0854492 10.3149 0 10.1562 0C10.0098 0 9.8999 0.0976562 9.87549 0.244141C9.48486 2.03857 9.5459 2.05078 7.70264 2.41699C7.53174 2.45361 7.44629 2.56348 7.44629 2.70996C7.44629 2.84424 7.53174 2.9541 7.70264 2.99072C9.5459 3.35693 9.53369 3.34473 9.87549 5.17578C9.8999 5.32227 10.0098 5.40771 10.1562 5.40771ZM3.51562 32.5684C3.68652 32.5684 3.78418 32.4585 3.80859 32.2876C4.26025 29.895 4.24805 29.8462 6.75049 29.3701C6.92139 29.3213 7.03125 29.2358 7.03125 29.0527C7.03125 28.8696 6.92139 28.7842 6.75049 28.7476C4.24805 28.2471 4.30908 28.1982 3.80859 25.8179C3.78418 25.647 3.68652 25.5371 3.51562 25.5371C3.34473 25.5371 3.24707 25.647 3.21045 25.8179C2.70996 28.1982 2.79541 28.2471 0.280762 28.7476C0.109863 28.7842 0 28.8696 0 29.0527C0 29.2358 0.109863 29.3213 0.280762 29.3701C2.79541 29.8584 2.75879 29.895 3.21045 32.2876C3.24707 32.4585 3.34473 32.5684 3.51562 32.5684Z" fill="#5ac8f5" fill-opacity="0.5"/>
 </g>
</svg>
