<?xml version="1.0" encoding="UTF-8"?>
<!--Generator: Apple Native CoreSVG 175.5-->
<!DOCTYPE svg
PUBLIC "-//W3C//DTD SVG 1.1//EN"
       "http://www.w3.org/Graphics/SVG/1.1/DTD/svg11.dtd">
<svg version="1.1" xmlns="http://www.w3.org/2000/svg" xmlns:xlink="http://www.w3.org/1999/xlink" width="17.8955" height="27.0142">
 <g>
  <rect height="27.0142" opacity="0" width="17.8955" x="0" y="0"/>
  <path d="M3.78418 27.002L14.1113 27.002C16.626 27.002 17.8955 25.7202 17.8955 23.1812L17.8955 3.83301C17.8955 1.28174 16.626 0 14.1113 0L3.78418 0C1.25732 0 0 1.28174 0 3.83301L0 23.1812C0 25.7202 1.25732 27.002 3.78418 27.002ZM3.88184 25.0366C2.6123 25.0366 1.96533 24.3652 1.96533 23.1445L1.96533 3.86963C1.96533 2.64893 2.6123 1.96533 3.88184 1.96533L14.0015 1.96533C15.271 1.96533 15.9302 2.64893 15.9302 3.86963L15.9302 23.1445C15.9302 24.3652 15.271 25.0366 14.0015 25.0366ZM4.69971 11.3281L13.1348 11.3281C13.916 11.3281 14.2334 11.0229 14.2334 10.2539L14.2334 4.71191C14.2334 3.94287 13.916 3.6377 13.1348 3.6377L4.69971 3.6377C3.93066 3.6377 3.61328 3.94287 3.61328 4.71191L3.61328 10.2539C3.61328 11.0229 3.93066 11.3281 4.69971 11.3281Z" fill="#5ac8f5"/>
 </g>
</svg>
