<?xml version="1.0" encoding="UTF-8"?>
<!--Generator: Apple Native CoreSVG 175.5-->
<!DOCTYPE svg
PUBLIC "-//W3C//DTD SVG 1.1//EN"
       "http://www.w3.org/Graphics/SVG/1.1/DTD/svg11.dtd">
<svg version="1.1" xmlns="http://www.w3.org/2000/svg" xmlns:xlink="http://www.w3.org/1999/xlink" width="22.4731" height="22.4976">
 <g>
  <rect height="22.4976" opacity="0" width="22.4731" x="0" y="0"/>
  <path d="M3.83301 22.4976L18.6401 22.4976C21.2036 22.4976 22.4731 21.228 22.4731 18.7134L22.4731 3.80859C22.4731 1.29395 21.2036 0.0244141 18.6401 0.0244141L3.83301 0.0244141C1.28174 0.0244141 0 1.28174 0 3.80859L0 18.7134C0 21.2402 1.28174 22.4976 3.83301 22.4976ZM3.85742 20.5322C2.63672 20.5322 1.96533 19.8853 1.96533 18.6157L1.96533 3.90625C1.96533 2.63672 2.63672 1.98975 3.85742 1.98975L18.6157 1.98975C19.8242 1.98975 20.5078 2.63672 20.5078 3.90625L20.5078 18.6157C20.5078 19.8853 19.8242 20.5322 18.6157 20.5322ZM7.08008 16.5039C9.14307 16.5039 10.5957 15.2588 10.5957 13.501C10.5957 12.207 9.69238 11.1572 8.45947 11.0352L8.45947 10.9619C9.47266 10.791 10.2661 9.77783 10.2661 8.63037C10.2661 7.06787 8.98438 5.98145 7.15332 5.98145C5.50537 5.98145 4.28467 6.92139 3.96729 8.11768C3.93066 8.27637 3.93066 8.39844 3.93066 8.55713C3.93066 8.99658 4.21143 9.30176 4.62646 9.30176C4.99268 9.30176 5.18799 9.10645 5.31006 8.71582C5.57861 7.86133 6.17676 7.38525 7.1167 7.38525C8.09326 7.38525 8.76465 7.97119 8.76465 8.82568C8.76465 9.7168 8.08105 10.3638 7.1167 10.3638L6.44531 10.3638C6.05469 10.3638 5.78613 10.6445 5.78613 11.084C5.78613 11.4746 6.05469 11.7798 6.44531 11.7798L7.16553 11.7798C8.3252 11.7798 9.06982 12.439 9.06982 13.4277C9.06982 14.3799 8.26416 15.1001 7.09229 15.1001C6.11572 15.1001 5.45654 14.624 5.12695 13.7695C4.98047 13.3789 4.78516 13.1836 4.43115 13.1836C4.02832 13.1836 3.73535 13.4888 3.73535 13.916C3.73535 14.0869 3.74756 14.209 3.79639 14.3677C4.11377 15.4907 5.40771 16.5039 7.08008 16.5039ZM15.5273 16.5039C17.5903 16.5039 19.043 15.2588 19.043 13.501C19.043 12.207 18.1396 11.1572 16.9067 11.0352L16.9067 10.9619C17.9199 10.791 18.7134 9.77783 18.7134 8.63037C18.7134 7.06787 17.4316 5.98145 15.6006 5.98145C13.9526 5.98145 12.7319 6.92139 12.4146 8.11768C12.3779 8.27637 12.3779 8.39844 12.3779 8.55713C12.3779 8.99658 12.6587 9.30176 13.0737 9.30176C13.4399 9.30176 13.6353 9.10645 13.7573 8.71582C14.0259 7.86133 14.624 7.38525 15.564 7.38525C16.5405 7.38525 17.2119 7.97119 17.2119 8.82568C17.2119 9.7168 16.5283 10.3638 15.564 10.3638L14.8926 10.3638C14.502 10.3638 14.2334 10.6445 14.2334 11.084C14.2334 11.4746 14.502 11.7798 14.8926 11.7798L15.6128 11.7798C16.7725 11.7798 17.5171 12.439 17.5171 13.4277C17.5171 14.3799 16.7114 15.1001 15.5396 15.1001C14.5752 15.1001 13.9038 14.624 13.5742 13.7695C13.4277 13.3789 13.2324 13.1836 12.8784 13.1836C12.4756 13.1836 12.1826 13.4888 12.1826 13.916C12.1826 14.0869 12.1948 14.209 12.2437 14.3677C12.561 15.4907 13.855 16.5039 15.5273 16.5039Z" fill="#5ac8f5"/>
 </g>
</svg>
