<?xml version="1.0" encoding="UTF-8"?>
<!--Generator: Apple Native CoreSVG 175.5-->
<!DOCTYPE svg
PUBLIC "-//W3C//DTD SVG 1.1//EN"
       "http://www.w3.org/Graphics/SVG/1.1/DTD/svg11.dtd">
<svg version="1.1" xmlns="http://www.w3.org/2000/svg" xmlns:xlink="http://www.w3.org/1999/xlink" width="26.2573" height="25.4517">
 <g>
  <rect height="25.4517" opacity="0" width="26.2573" x="0" y="0"/>
  <path d="M0 24.4629C0 25 0.439453 25.4517 0.976562 25.4517L25.2686 25.4517C25.8057 25.4517 26.2573 25 26.2573 24.4629C26.2573 23.9258 25.8057 23.4863 25.2686 23.4863L0.976562 23.4863C0.439453 23.4863 0 23.9258 0 24.4629ZM2.13623 10.4858C2.13623 10.9863 2.41699 11.2671 2.91748 11.2671L6.04248 11.2671C6.54297 11.2671 6.83594 10.9863 6.83594 10.4858L6.83594 10.1929C6.83594 9.7168 6.54297 9.42383 6.04248 9.42383L2.91748 9.42383C2.41699 9.42383 2.13623 9.7168 2.13623 10.1929ZM3.56445 20.9229L5.40771 20.9229L5.40771 10.6079L3.56445 10.6079ZM2.13623 21.6309C2.13623 22.1313 2.41699 22.4121 2.91748 22.4121L6.04248 22.4121C6.54297 22.4121 6.83594 22.1313 6.83594 21.6309L6.83594 21.3379C6.83594 20.8618 6.54297 20.5688 6.04248 20.5688L2.91748 20.5688C2.41699 20.5688 2.13623 20.8618 2.13623 21.3379ZM7.93457 10.4858C7.93457 10.9863 8.22754 11.2671 8.71582 11.2671L11.853 11.2671C12.3413 11.2671 12.6343 10.9863 12.6343 10.4858L12.6343 10.1929C12.6343 9.7168 12.3413 9.42383 11.853 9.42383L8.71582 9.42383C8.22754 9.42383 7.93457 9.7168 7.93457 10.1929ZM9.375 20.9229L11.2183 20.9229L11.2183 10.6079L9.375 10.6079ZM7.93457 21.6309C7.93457 22.1313 8.22754 22.4121 8.71582 22.4121L11.853 22.4121C12.3413 22.4121 12.6343 22.1313 12.6343 21.6309L12.6343 21.3379C12.6343 20.8618 12.3413 20.5688 11.853 20.5688L8.71582 20.5688C8.22754 20.5688 7.93457 20.8618 7.93457 21.3379ZM13.7451 10.4858C13.7451 10.9863 14.0381 11.2671 14.5264 11.2671L17.6636 11.2671C18.1519 11.2671 18.4448 10.9863 18.4448 10.4858L18.4448 10.1929C18.4448 9.7168 18.1519 9.42383 17.6636 9.42383L14.5264 9.42383C14.0381 9.42383 13.7451 9.7168 13.7451 10.1929ZM15.1855 20.9229L17.0288 20.9229L17.0288 10.6079L15.1855 10.6079ZM13.7451 21.6309C13.7451 22.1313 14.0381 22.4121 14.5264 22.4121L17.6636 22.4121C18.1519 22.4121 18.4448 22.1313 18.4448 21.6309L18.4448 21.3379C18.4448 20.8618 18.1519 20.5688 17.6636 20.5688L14.5264 20.5688C14.0381 20.5688 13.7451 20.8618 13.7451 21.3379ZM19.5557 10.4858C19.5557 10.9863 19.8364 11.2671 20.3369 11.2671L23.4619 11.2671C23.9624 11.2671 24.2432 10.9863 24.2432 10.4858L24.2432 10.1929C24.2432 9.7168 23.9624 9.42383 23.4619 9.42383L20.3369 9.42383C19.8364 9.42383 19.5557 9.7168 19.5557 10.1929ZM20.9839 20.9229L22.8271 20.9229L22.8271 10.6079L20.9839 10.6079ZM19.5557 21.6309C19.5557 22.1313 19.8364 22.4121 20.3369 22.4121L23.4619 22.4121C23.9624 22.4121 24.2432 22.1313 24.2432 21.6309L24.2432 21.3379C24.2432 20.8618 23.9624 20.5688 23.4619 20.5688L20.3369 20.5688C19.8364 20.5688 19.5557 20.8618 19.5557 21.3379ZM1.61133 8.36182L24.6338 8.36182C25.3052 8.36182 25.6958 7.87354 25.6958 7.37305C25.6958 7.00684 25.5005 6.68945 25.0488 6.43311L14.624 0.427246C14.1357 0.146484 13.623 0 13.1226 0C12.6221 0 12.1094 0.146484 11.6211 0.427246L1.19629 6.43311C0.744629 6.68945 0.549316 7.00684 0.549316 7.37305C0.549316 7.87354 0.927734 8.36182 1.61133 8.36182Z" fill="#5ac8f5"/>
 </g>
</svg>
