<?xml version="1.0" encoding="UTF-8"?>
<!--Generator: Apple Native CoreSVG 175.5-->
<!DOCTYPE svg
PUBLIC "-//W3C//DTD SVG 1.1//EN"
       "http://www.w3.org/Graphics/SVG/1.1/DTD/svg11.dtd">
<svg version="1.1" xmlns="http://www.w3.org/2000/svg" xmlns:xlink="http://www.w3.org/1999/xlink" width="30.5176" height="25.2319">
 <g>
  <rect height="25.2319" opacity="0" width="30.5176" x="0" y="0"/>
  <path d="M3.13721 21.0938L27.3804 21.0938C29.4434 21.0938 30.5176 20.0317 30.5176 17.9565L30.5176 3.96729C30.5176 1.9043 29.4434 0.842285 27.3804 0.842285L3.13721 0.842285C1.07422 0.842285 0 1.9043 0 3.96729L0 17.9565C0 20.0317 1.07422 21.0938 3.13721 21.0938ZM3.17383 19.1284C2.36816 19.1284 1.96533 18.7256 1.96533 17.9321L1.96533 4.00391C1.96533 3.19824 2.36816 2.80762 3.17383 2.80762L27.3438 2.80762C28.1494 2.80762 28.5522 3.19824 28.5522 4.00391L28.5522 17.9321C28.5522 18.7256 28.1494 19.1284 27.3438 19.1284ZM9.11865 25.2319L21.3989 25.2319C21.936 25.2319 22.3877 24.7925 22.3877 24.2432C22.3877 23.6938 21.936 23.2544 21.3989 23.2544L9.11865 23.2544C8.58154 23.2544 8.12988 23.6938 8.12988 24.2432C8.12988 24.7925 8.58154 25.2319 9.11865 25.2319ZM15.8569 15.8936C16.0889 15.8936 16.2476 15.7349 16.2964 15.5029C16.9678 11.9141 17.2974 11.2427 21.0327 10.7422C21.2769 10.7056 21.4355 10.5347 21.4355 10.3027C21.4355 10.0708 21.2769 9.8877 21.0327 9.85107C17.3096 9.35059 16.8335 8.64258 16.2964 5.11475C16.2598 4.87061 16.0889 4.71191 15.8569 4.71191C15.625 4.71191 15.4541 4.8584 15.4053 5.10254C14.7217 8.70361 14.4043 9.35059 10.6689 9.85107C10.4248 9.8877 10.2661 10.0708 10.2661 10.3027C10.2661 10.5347 10.4248 10.7056 10.6689 10.7422C14.4165 11.1206 14.8804 11.9141 15.4053 15.4907C15.4419 15.7349 15.6006 15.8936 15.8569 15.8936ZM11.0474 17.8833C11.2183 17.8833 11.3525 17.7734 11.3892 17.6025C11.731 15.8325 11.6089 15.7471 13.5498 15.4541C13.7207 15.4297 13.8306 15.2832 13.8306 15.1123C13.8306 14.9536 13.7207 14.8071 13.5498 14.7827C11.6089 14.4653 11.731 14.3799 11.3892 12.6587C11.3525 12.4756 11.2305 12.3413 11.0474 12.3413C10.8765 12.3413 10.7666 12.4634 10.7178 12.6587C10.3638 14.3799 10.5103 14.4653 8.56934 14.7827C8.38623 14.8071 8.28857 14.9536 8.28857 15.1123C8.28857 15.3076 8.38623 15.4297 8.59375 15.4541C10.5103 15.7471 10.3638 15.8325 10.7178 17.5659C10.7666 17.7612 10.8643 17.8833 11.0474 17.8833Z" fill="#5ac8f5"/>
 </g>
</svg>
