<?xml version="1.0" encoding="UTF-8"?>
<!--Generator: Apple Native CoreSVG 175.5-->
<!DOCTYPE svg
PUBLIC "-//W3C//DTD SVG 1.1//EN"
       "http://www.w3.org/Graphics/SVG/1.1/DTD/svg11.dtd">
<svg version="1.1" xmlns="http://www.w3.org/2000/svg" xmlns:xlink="http://www.w3.org/1999/xlink" width="31.311" height="25.4272">
 <g>
  <rect height="25.4272" opacity="0" width="31.311" x="0" y="0"/>
  <path d="M3.16162 11.3892C4.89502 11.3892 6.31104 9.97314 6.31104 8.21533C6.31104 6.49414 4.89502 5.06592 3.16162 5.06592C1.41602 5.06592 0 6.48193 0 8.21533C0 9.97314 1.42822 11.3892 3.16162 11.3892ZM3.16162 9.48486C2.47803 9.48486 1.9043 8.91113 1.9043 8.21533C1.9043 7.51953 2.47803 6.97021 3.16162 6.97021C3.83301 6.97021 4.40674 7.54395 4.40674 8.21533C4.40674 8.91113 3.85742 9.48486 3.16162 9.48486ZM15.6616 6.31104C17.395 6.31104 18.811 4.89502 18.811 3.14941C18.811 1.42822 17.395 0 15.6616 0C13.9038 0 12.5 1.41602 12.5 3.14941C12.5 4.89502 13.916 6.31104 15.6616 6.31104ZM15.6616 4.40674C14.978 4.40674 14.4043 3.83301 14.4043 3.14941C14.4043 2.45361 14.978 1.9043 15.6616 1.9043C16.333 1.9043 16.9067 2.47803 16.9067 3.14941C16.9067 3.83301 16.3574 4.40674 15.6616 4.40674ZM28.1494 11.3892C29.8828 11.3892 31.311 9.97314 31.311 8.21533C31.311 6.48193 29.895 5.06592 28.1494 5.06592C26.416 5.06592 25 6.49414 25 8.21533C25 9.97314 26.416 11.3892 28.1494 11.3892ZM28.1494 9.48486C27.4536 9.48486 26.9043 8.91113 26.9043 8.21533C26.9043 7.54395 27.478 6.97021 28.1494 6.97021C28.833 6.97021 29.4067 7.51953 29.4067 8.21533C29.4067 8.91113 28.833 9.48486 28.1494 9.48486ZM4.61426 10.5835L8.48389 12.9639C9.26514 13.4399 10.5591 13.4644 11.3647 12.3779L15.979 6.18896L14.2334 5.44434L10.022 11.0962C9.80225 11.4136 9.57031 11.4746 9.15527 11.2183L5.59082 9.021ZM26.6968 10.5713L25.7202 9.00879L22.1802 11.1816C21.7407 11.4624 21.4966 11.377 21.2524 11.0474L17.0776 5.41992L15.3442 6.17676L19.9707 12.3901C20.752 13.4399 22.0337 13.4399 22.7417 13.0005ZM6.15234 19.5312L25.1709 19.5312L25.1709 17.688L6.15234 17.688ZM3.10059 10.8521L5.59082 20.9961C6.05469 22.9126 7.06787 23.877 9.08203 23.877L22.229 23.877C24.2554 23.877 25.2563 22.9126 25.7324 20.9961L28.2227 10.8521L26.5015 10.0708L23.9014 20.7642C23.6938 21.6309 23.1689 22.0337 22.2534 22.0337L9.06982 22.0337C8.1543 22.0337 7.62939 21.6309 7.42188 20.7642L4.80957 10.0708Z" fill="#5ac8f5"/>
 </g>
</svg>
