<?xml version="1.0" encoding="UTF-8"?>
<!--Generator: Apple Native CoreSVG 175.5-->
<!DOCTYPE svg
PUBLIC "-//W3C//DTD SVG 1.1//EN"
       "http://www.w3.org/Graphics/SVG/1.1/DTD/svg11.dtd">
<svg version="1.1" xmlns="http://www.w3.org/2000/svg" xmlns:xlink="http://www.w3.org/1999/xlink" width="29.4678" height="19.104">
 <g>
  <rect height="19.104" opacity="0" width="29.4678" x="0" y="0"/>
  <path d="M0 1.11084L0 5.11475C0 5.78613 0.427246 6.20117 1.08643 6.20117L28.3813 6.20117C29.0405 6.20117 29.4678 5.78613 29.4678 5.11475L29.4678 1.11084C29.4678 0.45166 29.0405 0.0244141 28.3813 0.0244141L1.08643 0.0244141C0.427246 0.0244141 0 0.45166 0 1.11084ZM1.96533 2.31934C1.96533 2.13623 2.11182 1.98975 2.29492 1.98975L27.1729 1.98975C27.356 1.98975 27.5024 2.13623 27.5024 2.31934L27.5024 3.90625C27.5024 4.08936 27.356 4.23584 27.1729 4.23584L2.29492 4.23584C2.11182 4.23584 1.96533 4.08936 1.96533 3.90625ZM1.08643 19.104L5.09033 19.104C5.76172 19.104 6.17676 18.689 6.17676 18.0298L6.17676 4.88281L4.22363 4.88281L4.22363 16.8579C4.22363 17.0288 4.06494 17.1753 3.88184 17.1753L2.29492 17.1753C2.11182 17.1753 1.96533 17.0288 1.96533 16.8579L1.96533 4.72412L0 4.72412L0 18.0298C0 18.689 0.427246 19.104 1.08643 19.104ZM24.3652 19.104L28.3813 19.104C29.0405 19.104 29.4678 18.689 29.4678 18.0298L29.4678 4.72412L27.5024 4.72412L27.5024 16.8579C27.5024 17.0288 27.356 17.1753 27.1729 17.1753L25.5737 17.1753C25.3906 17.1753 25.2441 17.0288 25.2441 16.8579L25.2441 4.88281L23.2788 4.88281L23.2788 18.0298C23.2788 18.689 23.7061 19.104 24.3652 19.104Z" fill="#5ac8f5"/>
 </g>
</svg>
