<?xml version="1.0" encoding="UTF-8"?>
<!--Generator: Apple Native CoreSVG 175.5-->
<!DOCTYPE svg
PUBLIC "-//W3C//DTD SVG 1.1//EN"
       "http://www.w3.org/Graphics/SVG/1.1/DTD/svg11.dtd">
<svg version="1.1" xmlns="http://www.w3.org/2000/svg" xmlns:xlink="http://www.w3.org/1999/xlink" width="31.9948" height="24.939">
 <g>
  <rect height="24.939" opacity="0" width="31.9948" x="0" y="0"/>
  <path d="M20.1052 6.83594C21.9362 6.83594 23.401 5.31006 23.401 3.54004C23.401 1.69678 21.9362 0.195312 20.1052 0.195312C18.2619 0.195312 16.7848 1.69678 16.7848 3.54004C16.7848 5.34668 18.2619 6.83594 20.1052 6.83594ZM17.9811 19.4824C18.5182 19.0552 19.0309 18.335 19.5192 17.4316L21.7653 13.3545C22.8029 11.4746 22.4611 9.55811 20.6911 8.60596C18.9577 7.65381 17.1877 8.38623 16.1379 10.2905L13.8185 14.4775ZM0.439623 24.2798C1.07439 24.9512 2.16081 24.8901 2.94206 24.0967L8.19109 18.6768C8.37419 18.4937 8.48406 18.4448 8.75261 18.5547L13.1838 20.2271C14.1481 20.5933 15.1979 20.52 15.967 20.3735L12.9152 16.6016L9.80242 15.4663C8.37419 14.9414 7.1657 15.1123 6.00603 16.3086L0.549486 21.9482C-0.195143 22.7295-0.134108 23.7061 0.439623 24.2798ZM20.6178 24.4263C21.1183 24.0356 21.155 23.4253 20.6789 22.8516L17.9811 19.4824C17.3586 19.9219 16.675 20.2271 15.967 20.3735L19.0798 24.1943C19.5314 24.7437 20.1052 24.8535 20.6178 24.4263Z" fill="#5ac8f5" fill-opacity="0.5"/>
  <path d="M25.3542 24.7192L31.2135 24.7192C31.6652 24.7192 31.9948 24.4019 31.9948 23.9624C31.9948 23.5107 31.6652 23.1934 31.2135 23.1934L27.0754 23.1934L27.0754 23.1567L29.7243 20.3003C30.6642 19.2993 31.3722 18.4204 31.3722 17.1631C31.3722 15.4175 30.0173 14.2822 27.8932 14.2822C26.3185 14.2822 24.9147 15.2344 24.5363 16.5283C24.4997 16.6992 24.4753 16.8335 24.4753 16.9922C24.4753 17.4438 24.7682 17.749 25.2321 17.749C25.6471 17.749 25.8547 17.4927 26.0622 17.1509C26.3552 16.4795 26.9411 15.7837 27.9665 15.7837C29.0041 15.7837 29.7121 16.394 29.7121 17.2852C29.7121 18.0786 29.0285 18.75 28.3815 19.4458L24.8293 23.2666C24.634 23.4741 24.5241 23.6938 24.5241 23.9624C24.5241 24.4263 24.8415 24.7192 25.3542 24.7192ZM7.27556 12.3901C10.7179 12.3901 13.4157 9.5459 13.4157 6.23779C13.4157 2.7832 10.7179 0 7.27556 0C3.82097 0 1.04997 2.7832 1.04997 6.23779C1.04997 9.5459 3.82097 12.3901 7.27556 12.3901ZM7.27556 10.791C4.76091 10.791 2.6491 8.71582 2.6491 6.23779C2.6491 3.66211 4.69988 1.59912 7.27556 1.59912C9.81462 1.59912 11.8166 3.6377 11.8166 6.23779C11.8166 8.75244 9.76579 10.791 7.27556 10.791ZM2.75896 0.598145C2.45378 0.292969 1.94109 0.292969 1.63591 0.598145C1.31853 0.90332 1.31853 1.40381 1.63591 1.7334L11.7189 11.8042C12.0241 12.1094 12.5368 12.1094 12.842 11.8042C13.1593 11.499 13.1593 10.9863 12.842 10.6689ZM1.63591 10.6689C1.31853 10.9863 1.31853 11.499 1.63591 11.8042C1.94109 12.1094 2.45378 12.1094 2.75896 11.8042L12.842 1.7334C13.1593 1.40381 13.1593 0.90332 12.842 0.598145C12.5368 0.292969 12.0241 0.292969 11.7189 0.598145Z" fill="#5ac8f5"/>
 </g>
</svg>
