<?xml version="1.0" encoding="UTF-8"?>
<!--Generator: Apple Native CoreSVG 175.5-->
<!DOCTYPE svg
PUBLIC "-//W3C//DTD SVG 1.1//EN"
       "http://www.w3.org/Graphics/SVG/1.1/DTD/svg11.dtd">
<svg version="1.1" xmlns="http://www.w3.org/2000/svg" xmlns:xlink="http://www.w3.org/1999/xlink" width="23.8936" height="28.7231">
 <g>
  <rect height="28.7231" opacity="0" width="23.8936" x="0" y="0"/>
  <path d="M3.77197 26.5503L14.7827 26.5503C17.2729 26.5503 18.5425 25.2808 18.5425 22.8271L18.5425 13.623C17.8833 14.0137 17.2241 14.3555 16.5771 14.6362L16.5771 22.7295C16.5771 23.9258 15.8936 24.585 14.7461 24.585L3.79639 24.585C2.64893 24.585 1.96533 23.9258 1.96533 22.7295L1.96533 3.8208C1.96533 2.6123 2.64893 1.96533 3.79639 1.96533L15.0146 1.96533C15.7227 1.52588 16.4795 1.14746 17.2363 0.830078C16.687 0.280762 15.8325 0 14.7095 0L3.77197 0C1.29395 0 0 1.25732 0 3.71094L0 22.8271C0 25.2808 1.29395 26.5503 3.77197 26.5503ZM5.2002 7.08008C6.14014 7.08008 6.92139 6.29883 6.92139 5.34668C6.92139 4.40674 6.14014 3.6377 5.2002 3.6377C4.24805 3.6377 3.479 4.40674 3.479 5.34668C3.479 6.29883 4.24805 7.08008 5.2002 7.08008ZM4.1748 16.748L7.72705 16.748C8.1665 16.748 8.5083 16.4185 8.5083 15.979C8.5083 15.5518 8.1665 15.21 7.72705 15.21L4.1748 15.21C3.74756 15.21 3.40576 15.5518 3.40576 15.979C3.40576 16.4185 3.74756 16.748 4.1748 16.748ZM4.1748 19.7998L7.72705 19.7998C8.1665 19.7998 8.5083 19.4702 8.5083 19.0308C8.5083 18.5913 8.1665 18.2617 7.72705 18.2617L4.1748 18.2617C3.74756 18.2617 3.40576 18.5913 3.40576 19.0308C3.40576 19.4702 3.74756 19.7998 4.1748 19.7998ZM4.1748 22.8516L7.72705 22.8516C8.1665 22.8516 8.5083 22.5098 8.5083 22.0825C8.5083 21.6431 8.1665 21.3013 7.72705 21.3013L4.1748 21.3013C3.74756 21.3013 3.40576 21.6431 3.40576 22.0825C3.40576 22.5098 3.74756 22.8516 4.1748 22.8516ZM10.8154 16.748L14.3677 16.748C14.7949 16.748 15.1367 16.4185 15.1367 15.979C15.1367 15.5518 14.7949 15.21 14.3677 15.21L10.8154 15.21C10.376 15.21 10.0342 15.5518 10.0342 15.979C10.0342 16.4185 10.376 16.748 10.8154 16.748ZM10.8154 19.7998L14.3677 19.7998C14.7949 19.7998 15.1367 19.4702 15.1367 19.0308C15.1367 18.5913 14.7949 18.2617 14.3677 18.2617L10.8154 18.2617C10.376 18.2617 10.0342 18.5913 10.0342 19.0308C10.0342 19.4702 10.376 19.7998 10.8154 19.7998ZM10.8154 22.8516L14.3677 22.8516C14.7949 22.8516 15.1367 22.5098 15.1367 22.0825C15.1367 21.6431 14.7949 21.3013 14.3677 21.3013L10.8154 21.3013C10.376 21.3013 10.0342 21.6431 10.0342 22.0825C10.0342 22.5098 10.376 22.8516 10.8154 22.8516ZM3.54004 28.6987C4.12598 28.6987 4.5166 28.2959 4.5166 27.71L4.5166 25.3174L2.55127 25.3174L2.55127 27.71C2.55127 28.2959 2.9541 28.6987 3.54004 28.6987ZM15.0024 28.6987C15.6006 28.6987 15.9912 28.2959 15.9912 27.71L15.9912 25.3174L14.0259 25.3174L14.0259 27.71C14.0259 28.2959 14.4165 28.6987 15.0024 28.6987ZM13.0005 6.37207C16.2598 6.37207 17.9565 3.72314 20.8008 3.72314C21.46 3.72314 22.0093 3.85742 22.7173 4.24805C23.1567 4.49219 23.5474 4.32129 23.7427 4.04053C23.9746 3.68652 23.9624 3.14941 23.4253 2.84424C22.6074 2.36816 21.7285 2.13623 20.8008 2.13623C17.4927 2.13623 15.7959 4.79736 13.0005 4.79736C12.3413 4.79736 11.792 4.65088 11.084 4.24805C10.6689 4.01611 10.2539 4.1748 10.0586 4.49219C9.83887 4.83398 9.86328 5.37109 10.376 5.66406C11.1816 6.16455 12.0728 6.37207 13.0005 6.37207ZM13.0127 9.77783C16.2598 9.77783 17.9688 7.1167 20.8008 7.1167C21.4722 7.1167 22.0215 7.25098 22.7295 7.65381C23.1567 7.89795 23.5596 7.72705 23.7549 7.43408C23.9746 7.09229 23.9746 6.54297 23.4497 6.23779C22.6196 5.76172 21.7285 5.52979 20.8008 5.52979C17.5049 5.52979 15.8081 8.20312 13.0127 8.20312C12.3413 8.20312 11.792 8.04443 11.0962 7.65381C10.6812 7.40967 10.2539 7.58057 10.0586 7.89795C9.83887 8.23975 9.86328 8.77686 10.3882 9.06982C11.1938 9.55811 12.085 9.77783 13.0127 9.77783ZM13.0005 13.1714C16.2598 13.1714 17.9565 10.5225 20.8008 10.5225C21.46 10.5225 22.0093 10.6567 22.7173 11.0474C23.1567 11.2915 23.5474 11.1206 23.7427 10.8398C23.9746 10.4858 23.9624 9.94873 23.4253 9.64355C22.6074 9.16748 21.7285 8.93555 20.8008 8.93555C17.4927 8.93555 15.7959 11.5967 13.0005 11.5967C12.3413 11.5967 11.792 11.4502 11.084 11.0474C10.6689 10.8154 10.2539 10.9741 10.0586 11.2915C9.83887 11.6333 9.86328 12.1704 10.376 12.4634C11.1816 12.9639 12.0728 13.1714 13.0005 13.1714Z" fill="#5ac8f5"/>
 </g>
</svg>
