<?xml version="1.0" encoding="UTF-8"?>
<!--Generator: Apple Native CoreSVG 175.5-->
<!DOCTYPE svg
PUBLIC "-//W3C//DTD SVG 1.1//EN"
       "http://www.w3.org/Graphics/SVG/1.1/DTD/svg11.dtd">
<svg version="1.1" xmlns="http://www.w3.org/2000/svg" xmlns:xlink="http://www.w3.org/1999/xlink" width="24.9023" height="24.9146">
 <g>
  <rect height="24.9146" opacity="0" width="24.9023" x="0" y="0"/>
  <path d="M12.4512 24.9023C19.2627 24.9023 24.9023 19.2505 24.9023 12.4512C24.9023 5.63965 19.2505 0 12.439 0C5.63965 0 0 5.63965 0 12.4512C0 19.2505 5.65186 24.9023 12.4512 24.9023ZM6.98242 16.0278L6.98242 12.8174C6.98242 10.376 8.1543 9.2041 10.5957 9.2041L14.0625 9.2041L14.0625 7.59277C14.0625 6.7749 14.917 6.4209 15.5518 6.92139L18.5303 9.22852C19.3115 9.85107 19.3115 10.5957 18.5303 11.2183L15.5518 13.5376C14.917 14.0381 14.0625 13.6841 14.0625 12.8662L14.0625 11.2427L10.6323 11.2427C9.55811 11.2427 9.00879 11.7798 9.00879 12.915L9.00879 16.0278C9.00879 16.748 8.63037 17.1509 7.99561 17.1631C7.34863 17.1753 6.98242 16.748 6.98242 16.0278Z" fill="#5ac8f5"/>
 </g>
</svg>
