<?xml version="1.0" encoding="UTF-8"?>
<!--Generator: Apple Native CoreSVG 175.5-->
<!DOCTYPE svg
PUBLIC "-//W3C//DTD SVG 1.1//EN"
       "http://www.w3.org/Graphics/SVG/1.1/DTD/svg11.dtd">
<svg version="1.1" xmlns="http://www.w3.org/2000/svg" xmlns:xlink="http://www.w3.org/1999/xlink" width="25.0854" height="28.0884">
 <g>
  <rect height="28.0884" opacity="0" width="25.0854" x="0" y="0"/>
  <path d="M4.32129 9.26514L20.7642 9.26514C21.7896 9.26514 22.7417 9.49707 23.5352 9.8999L20.9351 3.62549C20.2637 1.96533 18.8232 1.08643 16.9434 1.08643L8.14209 1.08643C6.25 1.08643 4.82178 1.96533 4.15039 3.62549L1.53809 9.8999C2.34375 9.49707 3.2959 9.26514 4.32129 9.26514ZM4.32129 19.3481L20.7642 19.3481C23.3276 19.3481 25.0854 17.6025 25.0854 15.0635C25.0854 12.5244 23.3276 10.7544 20.7642 10.7544L4.32129 10.7544C1.75781 10.7544 0 12.5244 0 15.0635C0 17.6025 1.75781 19.3481 4.32129 19.3481ZM19.1895 15.0635C19.1895 14.3188 19.8364 13.6597 20.5933 13.6597C21.3501 13.6597 22.0093 14.3188 22.0093 15.0635C22.0093 15.8447 21.3501 16.4551 20.5933 16.4673C19.8364 16.4673 19.1895 15.8569 19.1895 15.0635ZM11.5601 25.3174L13.5254 25.3174L13.5254 18.4448L11.5601 18.4448ZM2.39258 26.2939L22.6929 26.2939C23.23 26.2939 23.6694 25.8545 23.6694 25.3174C23.6694 24.7681 23.23 24.3286 22.6929 24.3286L2.39258 24.3286C1.85547 24.3286 1.41602 24.7681 1.41602 25.3174C1.41602 25.8545 1.85547 26.2939 2.39258 26.2939ZM12.5366 28.0884C14.0503 28.0884 15.2954 26.8433 15.2954 25.3296C15.2954 23.8159 14.0503 22.5708 12.5366 22.5708C11.0352 22.5708 9.79004 23.8159 9.79004 25.3296C9.79004 26.8433 11.0352 28.0884 12.5366 28.0884Z" fill="#5ac8f5"/>
 </g>
</svg>
