<?xml version="1.0" encoding="UTF-8"?>
<!--Generator: Apple Native CoreSVG 175.5-->
<!DOCTYPE svg
PUBLIC "-//W3C//DTD SVG 1.1//EN"
       "http://www.w3.org/Graphics/SVG/1.1/DTD/svg11.dtd">
<svg version="1.1" xmlns="http://www.w3.org/2000/svg" xmlns:xlink="http://www.w3.org/1999/xlink" width="28.6865" height="22.4976">
 <g>
  <rect height="22.4976" opacity="0" width="28.6865" x="0" y="0"/>
  <path d="M0 18.7256C0 21.2402 1.28174 22.4976 3.83301 22.4976L24.8535 22.4976C27.3926 22.4976 28.6865 21.228 28.6865 18.7256L28.6865 14.7217C28.6865 13.916 28.4424 13.0127 27.7954 12.3169L23.1689 7.39746C22.0581 6.22559 21.2036 5.5542 19.5557 5.5542L8.89893 5.5542C7.4707 5.5542 6.62842 6.22559 5.51758 7.39746L0.891113 12.3169C0.244141 13.0127 0 13.916 0 14.7217ZM2.72217 13.3301L7.12891 8.42285C7.75146 7.73926 8.20312 7.36084 8.93555 7.36084L19.7388 7.36084C20.4712 7.36084 20.9351 7.72705 21.5576 8.42285L25.9644 13.3301C26.2939 13.7085 26.1108 14.27 25.5005 14.27L3.18604 14.27C2.57568 14.27 2.39258 13.7085 2.72217 13.3301ZM1.83105 1.75781L5.66406 5.62744C6.7627 6.75049 7.32422 7.1167 8.70361 7.1167L19.873 7.1167C21.3501 7.1167 21.9238 6.75049 23.0225 5.62744L26.8555 1.75781C27.478 1.13525 27.1729 0.012207 26.0864 0.012207L2.6001 0.012207C1.51367 0.012207 1.2085 1.13525 1.83105 1.75781ZM6.97021 12.5122C7.06787 12.8052 7.39746 12.9395 7.70264 12.8296L13.3179 10.7788C13.6353 10.6689 13.7817 10.376 13.6719 10.0586C13.562 9.75342 13.2568 9.61914 12.9395 9.74121L7.32422 11.792C7.00684 11.9019 6.86035 12.1948 6.97021 12.5122ZM7.15332 10.2783C7.26318 10.5957 7.58057 10.7178 7.88574 10.6079L11.7554 9.2041C12.0605 9.09424 12.2314 8.78906 12.1094 8.48389C11.9995 8.1665 11.6821 8.05664 11.3892 8.1665L7.50732 9.57031C7.18994 9.68018 7.04346 9.98535 7.15332 10.2783ZM19.4946 18.3716C19.4946 17.981 19.7876 17.7002 20.1904 17.7002L23.5596 17.7002C23.9502 17.7002 24.2432 17.981 24.2432 18.3716C24.2432 18.7622 23.9502 19.0308 23.5596 19.0308L20.1904 19.0308C19.812 19.0308 19.4946 18.7622 19.4946 18.3716Z" fill="#5ac8f5"/>
 </g>
</svg>
