<?xml version="1.0" encoding="UTF-8"?>
<!--Generator: Apple Native CoreSVG 175.5-->
<!DOCTYPE svg
PUBLIC "-//W3C//DTD SVG 1.1//EN"
       "http://www.w3.org/Graphics/SVG/1.1/DTD/svg11.dtd">
<svg version="1.1" xmlns="http://www.w3.org/2000/svg" xmlns:xlink="http://www.w3.org/1999/xlink" width="32.9346" height="21.2036">
 <g>
  <rect height="21.2036" opacity="0" width="32.9346" x="0" y="0"/>
  <path d="M1.28174 21.1914L4.22363 21.1914C4.99268 21.1914 5.50537 20.6543 5.50537 19.8608L5.50537 14.3799C5.50537 13.5864 4.99268 13.0615 4.22363 13.0615L1.28174 13.0615C0.512695 13.0615 0 13.5864 0 14.3799L0 19.8608C0 20.6543 0.512695 21.1914 1.28174 21.1914ZM10.4248 21.1914L13.3667 21.1914C14.1357 21.1914 14.6484 20.6543 14.6484 19.8608L14.6484 10.5713C14.6484 9.77783 14.1357 9.24072 13.3667 9.24072L10.4248 9.24072C9.65576 9.24072 9.14307 9.77783 9.14307 10.5713L9.14307 19.8608C9.14307 20.6543 9.65576 21.1914 10.4248 21.1914ZM19.5679 21.1914L22.5098 21.1914C23.2666 21.1914 23.7915 20.6543 23.7915 19.8608L23.7915 6.15234C23.7915 5.35889 23.2666 4.82178 22.5098 4.82178L19.5679 4.82178C18.7988 4.82178 18.2861 5.35889 18.2861 6.15234L18.2861 19.8608C18.2861 20.6543 18.7988 21.1914 19.5679 21.1914ZM28.6987 21.1914L31.665 21.1914C32.4219 21.1914 32.9346 20.6543 32.9346 19.8608L32.9346 1.33057C32.9346 0.537109 32.4219 0 31.665 0L28.6987 0C27.9419 0 27.417 0.537109 27.417 1.33057L27.417 19.8608C27.417 20.6543 27.9419 21.1914 28.6987 21.1914Z" fill="#5ac8f5"/>
 </g>
</svg>
