<?xml version="1.0" encoding="UTF-8"?>
<!--Generator: Apple Native CoreSVG 175.5-->
<!DOCTYPE svg
PUBLIC "-//W3C//DTD SVG 1.1//EN"
       "http://www.w3.org/Graphics/SVG/1.1/DTD/svg11.dtd">
<svg version="1.1" xmlns="http://www.w3.org/2000/svg" xmlns:xlink="http://www.w3.org/1999/xlink" width="24.9023" height="24.9146">
 <g>
  <rect height="24.9146" opacity="0" width="24.9023" x="0" y="0"/>
  <path d="M12.4512 24.9023C19.2627 24.9023 24.9023 19.2505 24.9023 12.4512C24.9023 5.63965 19.2505 0 12.439 0C5.63965 0 0 5.63965 0 12.4512C0 19.2505 5.65186 24.9023 12.4512 24.9023ZM12.4512 22.8271C6.68945 22.8271 2.0874 18.2129 2.0874 12.4512C2.0874 6.68945 6.67725 2.0752 12.439 2.0752C18.2007 2.0752 22.8271 6.68945 22.8271 12.4512C22.8271 18.2129 18.2129 22.8271 12.4512 22.8271ZM7.53174 12.4756C7.53174 15.8081 9.17969 17.981 11.7798 18.3105L11.7798 19.2871C11.7798 19.6533 12.0483 19.8975 12.3901 19.8975C12.7319 19.8975 12.9883 19.6533 12.9883 19.2871L12.9883 18.3228C14.856 18.1763 16.1987 17.1509 16.7236 15.686C16.7969 15.4907 16.8457 15.2832 16.8457 15.0635C16.8457 14.624 16.5527 14.3188 16.1011 14.3188C15.686 14.3188 15.4419 14.5508 15.3076 14.9658C15.0391 15.9668 14.1602 16.687 12.9883 16.8457L12.9883 8.14209C14.0869 8.3252 14.9414 9.08203 15.2222 10.0464C15.3687 10.5103 15.5762 10.6812 16.0156 10.6812C16.4673 10.6812 16.7603 10.3882 16.7603 9.93652C16.7603 9.729 16.7114 9.52148 16.6382 9.32617C16.1133 7.86133 14.7217 6.82373 12.9883 6.65283L12.9883 5.70068C12.9883 5.33447 12.7319 5.10254 12.3901 5.10254C12.0361 5.10254 11.7798 5.33447 11.7798 5.70068L11.7798 6.66504C9.19189 6.99463 7.53174 9.19189 7.53174 12.4756ZM9.16748 12.4756C9.16748 10.144 10.1562 8.52051 11.7798 8.17871L11.7798 16.8091C10.1562 16.4551 9.16748 14.8438 9.16748 12.4756Z" fill="#5ac8f5"/>
 </g>
</svg>
