<?xml version="1.0" encoding="UTF-8"?>
<!--Generator: Apple Native CoreSVG 175.5-->
<!DOCTYPE svg
PUBLIC "-//W3C//DTD SVG 1.1//EN"
       "http://www.w3.org/Graphics/SVG/1.1/DTD/svg11.dtd">
<svg version="1.1" xmlns="http://www.w3.org/2000/svg" xmlns:xlink="http://www.w3.org/1999/xlink" width="25.8301" height="25.5981">
 <g>
  <rect height="25.5981" opacity="0" width="25.8301" x="0" y="0"/>
  <path d="M9.75342 25.5981L22.0093 25.5981C24.5483 25.5981 25.8301 24.3286 25.8301 21.814L25.8301 9.46045C25.8301 6.9458 24.5483 5.67627 22.0093 5.67627L9.75342 5.67627C7.18994 5.67627 5.92041 6.93359 5.92041 9.46045L5.92041 21.814C5.92041 24.3286 7.18994 25.5981 9.75342 25.5981ZM0 16.1621C0 18.6768 1.26953 19.9463 3.83301 19.9463L4.24805 19.9463L4.24805 9.46045C4.24805 6.00586 6.27441 4.01611 9.75342 4.01611L19.9097 4.01611L19.9097 3.80859C19.9097 1.29395 18.6279 0.0244141 16.0889 0.0244141L3.83301 0.0244141C1.26953 0.0244141 0 1.29395 0 3.80859ZM10.9497 12.5C9.96094 12.4878 9.16748 11.7065 9.16748 10.7056C9.16748 9.729 9.96094 8.93555 10.9497 8.93555C11.9263 8.93555 12.7319 9.729 12.7319 10.7056C12.7319 11.7065 11.9263 12.5244 10.9497 12.5ZM20.8008 12.5C19.8242 12.4878 19.0186 11.7065 19.0186 10.7056C19.0186 9.729 19.8242 8.93555 20.8008 8.93555C21.7773 8.93555 22.583 9.729 22.583 10.7056C22.583 11.7065 21.7773 12.5244 20.8008 12.5ZM15.8691 17.4438C14.8926 17.4438 14.0991 16.6382 14.0991 15.6372C14.0991 14.6606 14.8926 13.8794 15.8691 13.8794C16.8457 13.8794 17.6514 14.6606 17.6514 15.6372C17.6514 16.6382 16.8457 17.4438 15.8691 17.4438ZM10.9497 22.3755C9.96094 22.3755 9.17969 21.5698 9.17969 20.5811C9.17969 19.5923 9.96094 18.811 10.9497 18.811C11.9263 18.811 12.7197 19.5923 12.7197 20.5811C12.7197 21.5698 11.9263 22.3755 10.9497 22.3755ZM20.8008 22.3755C19.8242 22.3755 19.0308 21.5698 19.0308 20.5811C19.0308 19.5923 19.8242 18.811 20.8008 18.811C21.7773 18.811 22.583 19.5923 22.583 20.5811C22.583 21.5698 21.7773 22.3755 20.8008 22.3755Z" fill="#5ac8f5"/>
 </g>
</svg>
