<?xml version="1.0" encoding="UTF-8"?>
<!--Generator: Apple Native CoreSVG 175.5-->
<!DOCTYPE svg
PUBLIC "-//W3C//DTD SVG 1.1//EN"
       "http://www.w3.org/Graphics/SVG/1.1/DTD/svg11.dtd">
<svg version="1.1" xmlns="http://www.w3.org/2000/svg" xmlns:xlink="http://www.w3.org/1999/xlink" width="21.6675" height="29.3579">
 <g>
  <rect height="29.3579" opacity="0" width="21.6675" x="0" y="0"/>
  <path d="M3.83301 27.5513L17.8345 27.5513C20.3857 27.5513 21.6675 26.2817 21.6675 23.7671L21.6675 11.8286C21.6675 9.31396 20.3857 8.04443 17.8345 8.04443L12.0483 8.04443L12.0483 17.0776C12.0483 17.7246 11.4868 18.2617 10.8276 18.2617C10.1685 18.2617 9.61914 17.7246 9.61914 17.0776L9.61914 8.04443L3.83301 8.04443C1.28174 8.04443 0 9.31396 0 11.8286L0 23.7671C0 26.2817 1.28174 27.5513 3.83301 27.5513ZM10.8276 9.00879C11.3525 9.00879 11.8042 8.56934 11.8042 8.05664L11.8042 4.50439L11.731 2.67334L12.5488 3.54004L14.4043 5.51758C14.5752 5.71289 14.8193 5.81055 15.0635 5.81055C15.564 5.81055 15.9546 5.44434 15.9546 4.94385C15.9546 4.6875 15.8447 4.49219 15.6616 4.30908L11.5356 0.32959C11.2915 0.0854492 11.084 0 10.8276 0C10.5835 0 10.376 0.0854492 10.1196 0.32959L5.99365 4.30908C5.81055 4.49219 5.71289 4.6875 5.71289 4.94385C5.71289 5.44434 6.0791 5.81055 6.5918 5.81055C6.82373 5.81055 7.09229 5.71289 7.26318 5.51758L9.10645 3.54004L9.93652 2.67334L9.86328 4.50439L9.86328 8.05664C9.86328 8.56934 10.3027 9.00879 10.8276 9.00879Z" fill="#5ac8f5"/>
 </g>
</svg>
