<?xml version="1.0" encoding="UTF-8"?>
<!--Generator: Apple Native CoreSVG 175.5-->
<!DOCTYPE svg
PUBLIC "-//W3C//DTD SVG 1.1//EN"
       "http://www.w3.org/Graphics/SVG/1.1/DTD/svg11.dtd">
<svg version="1.1" xmlns="http://www.w3.org/2000/svg" xmlns:xlink="http://www.w3.org/1999/xlink" width="22.4731" height="22.4976">
 <g>
  <rect height="22.4976" opacity="0" width="22.4731" x="0" y="0"/>
  <path d="M3.83301 22.4976L18.6401 22.4976C21.2036 22.4976 22.4731 21.228 22.4731 18.7134L22.4731 3.80859C22.4731 1.29395 21.2036 0.0244141 18.6401 0.0244141L3.83301 0.0244141C1.28174 0.0244141 0 1.28174 0 3.80859L0 18.7134C0 21.2402 1.28174 22.4976 3.83301 22.4976ZM11.1572 17.2363C9.15527 17.2363 7.69043 16.4307 7.18994 15.1489C7.10449 14.9536 7.05566 14.7583 7.05566 14.5386C7.05566 14.0503 7.39746 13.6963 7.91016 13.6963C8.27637 13.6963 8.58154 13.9038 8.80127 14.3066C9.21631 15.1367 10.0952 15.6494 11.1328 15.6494C12.5244 15.6494 13.562 14.624 13.562 13.2446C13.562 11.853 12.6709 10.9253 11.3403 10.9253C10.6934 10.9253 10.2173 11.1206 9.61914 11.6333C9.11865 12.0117 8.83789 12.1094 8.37402 12.1094C7.66602 12.1094 7.25098 11.6333 7.2998 10.9009L7.6416 6.72607C7.70264 5.99365 8.23975 5.52979 9.06982 5.52979L14.27 5.52979C14.7217 5.52979 15.0269 5.84717 15.0269 6.31104C15.0269 6.7627 14.7095 7.09229 14.27 7.09229L9.24072 7.09229L8.95996 10.498L9.04541 10.498C9.49707 9.87549 10.5469 9.42383 11.5723 9.42383C13.8794 9.42383 15.4785 10.9741 15.4785 13.1958C15.4785 15.6372 13.7207 17.2363 11.1572 17.2363Z" fill="#5ac8f5"/>
 </g>
</svg>
