<?xml version="1.0" encoding="UTF-8"?>
<!--Generator: Apple Native CoreSVG 175.5-->
<!DOCTYPE svg
PUBLIC "-//W3C//DTD SVG 1.1//EN"
       "http://www.w3.org/Graphics/SVG/1.1/DTD/svg11.dtd">
<svg version="1.1" xmlns="http://www.w3.org/2000/svg" xmlns:xlink="http://www.w3.org/1999/xlink" width="28.6785" height="32.4473">
 <g>
  <rect height="32.4473" opacity="0" width="28.6785" x="0" y="0"/>
  <path d="M20.4204 7.83129C18.6016 7.83129 17.1978 8.83227 16.209 11.1638C12.669 7.61157 7.07814 4.44995 1.49953 4.0227C0.254414 3.93725 0.0468947 4.90161 0.0224806 5.62182C-0.368144 11.7375 4.38039 17.0598 10.4839 17.7556C8.87258 21.3445 6.69973 24.7624 3.68459 27.6189C3.19631 28.0706 3.33059 28.7053 3.63576 29.157C5.07619 31.3787 9.58059 32.697 12.6201 31.6472C13.3526 31.3909 13.4746 30.988 13.4746 30.4265L13.4746 25.8977C16.8071 25.7146 22.0806 23.5173 21.2139 16.7424L21.0918 15.8879C23.5943 15.2532 25.291 13.6296 25.291 11.9939C25.291 9.99194 23.0816 7.83129 20.4204 7.83129ZM20.5303 9.58911C22.2759 9.58911 23.5332 10.8586 23.5332 11.9939C23.5332 12.9216 22.3003 13.9958 19.9321 14.3254C19.5659 14.3621 19.2974 14.6306 19.334 14.9724L19.4927 16.7913C20.0176 23.0657 15.1592 23.9568 12.3272 24.0911C11.9732 24.1033 11.7046 24.3474 11.7046 24.7136L11.7046 30.0603C11.7046 30.1824 11.6558 30.28 11.5215 30.2922C9.15334 30.7195 6.57766 29.865 5.35695 28.6077C5.2715 28.5222 5.23488 28.3879 5.33254 28.3025C8.62844 25.1409 10.8745 21.3079 12.5591 17.2795C12.791 16.718 12.5713 16.2664 11.9976 16.2419C6.18703 16.0955 1.82912 11.823 1.78029 6.04907C1.78029 5.86596 1.81691 5.81713 2.01223 5.84155C7.16359 6.47631 12.0342 9.39379 14.8296 12.2869C15.3301 12.7873 15.6841 13.0437 16.1724 13.0437C16.9658 13.0437 17.3443 12.6531 17.7471 11.8352C18.4551 10.3704 19.0777 9.58911 20.5303 9.58911ZM18.2476 9.27172L19.8955 8.69799C18.1988 4.76733 15.8672 2.05737 12.6934 0.23852C11.7534-0.298589 10.8013 0.104243 10.5449 1.11743C9.93459 3.33911 9.69045 5.47534 9.98342 7.69702L11.8999 8.60034C11.4605 6.37866 11.5459 4.43774 12.0586 2.36254C12.0952 2.14282 12.315 2.06957 12.4981 2.17944C14.9639 3.79077 16.8071 6.01245 18.2476 9.27172ZM21.336 12.3113C21.7388 12.3113 22.0806 11.9817 22.0806 11.5666C22.0806 11.1638 21.7388 10.8098 21.336 10.8098C20.9087 10.8098 20.5791 11.1638 20.5791 11.5666C20.5791 11.9817 20.9087 12.3113 21.336 12.3113ZM23.3745 13.8982L27.8301 14.533C28.6602 14.655 29.0508 13.4221 28.2085 13.0681L24.1802 11.3591Z" fill="#5ac8f5"/>
 </g>
</svg>
