<?xml version="1.0" encoding="UTF-8"?>
<!--Generator: Apple Native CoreSVG 175.5-->
<!DOCTYPE svg
PUBLIC "-//W3C//DTD SVG 1.1//EN"
       "http://www.w3.org/Graphics/SVG/1.1/DTD/svg11.dtd">
<svg version="1.1" xmlns="http://www.w3.org/2000/svg" xmlns:xlink="http://www.w3.org/1999/xlink" width="24.9023" height="24.9146">
 <g>
  <rect height="24.9146" opacity="0" width="24.9023" x="0" y="0"/>
  <path d="M12.4512 24.9023C19.2627 24.9023 24.9023 19.2505 24.9023 12.4512C24.9023 5.63965 19.2505 0 12.439 0C5.63965 0 0 5.63965 0 12.4512C0 19.2505 5.65186 24.9023 12.4512 24.9023ZM12.4512 22.8271C6.68945 22.8271 2.0874 18.2129 2.0874 12.4512C2.0874 6.68945 6.67725 2.0752 12.439 2.0752C18.2007 2.0752 22.8271 6.68945 22.8271 12.4512C22.8271 18.2129 18.2129 22.8271 12.4512 22.8271Z" fill="#5ac8f5" fill-opacity="0.5"/>
  <path d="M8.61816 13.6597L15.8936 13.6597C17.7856 13.6597 19.2383 12.1948 19.2383 10.4004C19.2383 8.52051 17.7124 7.16553 15.7349 7.16553C14.9902 5.7251 13.6353 4.78516 11.9507 4.78516C9.75342 4.78516 7.93457 6.51855 7.72705 8.69141C6.67725 9.00879 5.87158 9.91211 5.87158 11.1572C5.87158 12.5366 6.87256 13.6597 8.61816 13.6597ZM10.3027 18.8599L12.1704 15.625C12.3413 15.3442 12.2437 15.0146 11.9629 14.856C11.6943 14.7095 11.377 14.7949 11.2183 15.0757L9.33838 18.2983C9.17969 18.5669 9.26514 18.9087 9.5459 19.0674C9.81445 19.2139 10.144 19.1284 10.3027 18.8599ZM15.8447 18.8599L17.7246 15.625C17.8955 15.3442 17.7979 15.0146 17.5171 14.856C17.2485 14.7095 16.9312 14.7949 16.7603 15.0757L14.8926 18.2983C14.7339 18.5669 14.8193 18.9087 15.1001 19.0674C15.3687 19.2139 15.6982 19.1284 15.8447 18.8599ZM13.0737 18.8599L14.9414 15.625C15.1123 15.3442 15.0146 15.0146 14.7339 14.856C14.4653 14.7095 14.1479 14.7949 13.9771 15.0757L12.1094 18.2983C11.9507 18.5669 12.0361 18.9087 12.3169 19.0674C12.5854 19.2139 12.915 19.1284 13.0737 18.8599ZM7.51953 18.8599L9.38721 15.625C9.55811 15.3442 9.46045 15.0146 9.17969 14.856C8.92334 14.7095 8.59375 14.7949 8.43506 15.0757L6.55518 18.2983C6.39648 18.5669 6.48193 18.9087 6.7627 19.0674C7.03125 19.2139 7.36084 19.1284 7.51953 18.8599Z" fill="#5ac8f5"/>
 </g>
</svg>
