<?xml version="1.0" encoding="UTF-8"?>
<!--Generator: Apple Native CoreSVG 175.5-->
<!DOCTYPE svg
PUBLIC "-//W3C//DTD SVG 1.1//EN"
       "http://www.w3.org/Graphics/SVG/1.1/DTD/svg11.dtd">
<svg version="1.1" xmlns="http://www.w3.org/2000/svg" xmlns:xlink="http://www.w3.org/1999/xlink" width="28.7842" height="22.4976">
 <g>
  <rect height="22.4976" opacity="0" width="28.7842" x="0" y="0"/>
  <path d="M3.83301 22.4731L24.9512 22.4731C27.5146 22.4731 28.7842 21.2158 28.7842 18.7012L28.7842 6.89697C28.7842 4.38232 27.5146 3.125 24.9512 3.125L23.2666 3.125L23.2666 1.48926C23.2666 0.561523 22.7295 0 21.7896 0L18.1885 0C17.2607 0 16.7236 0.561523 16.7236 1.48926L16.7236 3.125L12.0728 3.125L12.0728 1.48926C12.0728 0.561523 11.5356 0 10.5957 0L6.99463 0C6.05469 0 5.52979 0.561523 5.52979 1.48926L5.52979 3.125L3.83301 3.125C1.28174 3.125 0 4.38232 0 6.89697L0 18.7012C0 21.2158 1.28174 22.4731 3.83301 22.4731Z" fill="#5ac8f5"/>
 </g>
</svg>
