<?xml version="1.0" encoding="UTF-8"?>
<!--Generator: Apple Native CoreSVG 175.5-->
<!DOCTYPE svg
PUBLIC "-//W3C//DTD SVG 1.1//EN"
       "http://www.w3.org/Graphics/SVG/1.1/DTD/svg11.dtd">
<svg version="1.1" xmlns="http://www.w3.org/2000/svg" xmlns:xlink="http://www.w3.org/1999/xlink" width="27.7588" height="33.1909">
 <g>
  <rect height="33.1909" opacity="0" width="27.7588" x="0" y="0"/>
  <path d="M3.83301 27.5391L17.8345 27.5391C20.3857 27.5391 21.6675 26.2695 21.6675 23.7549L21.6675 11.5845C21.6675 9.06982 20.3857 7.80029 17.8345 7.80029L14.4287 7.80029L14.4287 9.76562L17.7979 9.76562C19.0063 9.76562 19.7021 10.4126 19.7021 11.6821L19.7021 23.6572C19.7021 24.9268 19.0063 25.5737 17.7979 25.5737L3.85742 25.5737C2.63672 25.5737 1.96533 24.9268 1.96533 23.6572L1.96533 11.6821C1.96533 10.4126 2.63672 9.76562 3.85742 9.76562L7.23877 9.76562L7.23877 7.80029L3.83301 7.80029C1.28174 7.80029 0 9.05762 0 11.5845L0 23.7549C0 26.2817 1.28174 27.5391 3.83301 27.5391ZM10.9619 33.1909L23.9258 33.1909C26.4771 33.1909 27.7588 31.9336 27.7588 29.4067L27.7588 17.2363C27.7588 14.7095 26.4771 13.4521 23.9258 13.4521L21.0327 13.4521L21.0327 15.4175L23.9014 15.4175C25.1221 15.4175 25.7935 16.0645 25.7935 17.334L25.7935 29.3091C25.7935 30.5786 25.1221 31.2256 23.9014 31.2256L10.9985 31.2256C9.79004 31.2256 9.09424 30.5786 9.09424 29.3091L9.09424 26.5503L7.12891 26.5503L7.12891 29.4067C7.12891 31.9214 8.41064 33.1909 10.9619 33.1909Z" fill="#5ac8f5" fill-opacity="0.5"/>
  <path d="M10.8276 19.519C11.084 19.519 11.2915 19.4336 11.5356 19.1895L15.6616 15.21C15.8447 15.0269 15.9546 14.8315 15.9546 14.563C15.9546 14.0747 15.564 13.7085 15.0635 13.7085C14.8193 13.7085 14.5752 13.8062 14.4043 14.0015L12.5488 15.979L11.731 16.8335L11.8042 15.0146L11.8042 2.13623C11.8042 1.62354 11.3525 1.19629 10.8276 1.19629C10.3027 1.19629 9.86328 1.62354 9.86328 2.13623L9.86328 15.0146L9.93652 16.8457L9.10645 15.979L7.26318 14.0015C7.09229 13.8062 6.82373 13.7085 6.5918 13.7085C6.0791 13.7085 5.71289 14.0747 5.71289 14.563C5.71289 14.8315 5.81055 15.0269 5.99365 15.21L10.1196 19.1895C10.376 19.4336 10.5835 19.519 10.8276 19.519Z" fill="#5ac8f5"/>
 </g>
</svg>
