<?xml version="1.0" encoding="UTF-8"?>
<!--Generator: Apple Native CoreSVG 175.5-->
<!DOCTYPE svg
PUBLIC "-//W3C//DTD SVG 1.1//EN"
       "http://www.w3.org/Graphics/SVG/1.1/DTD/svg11.dtd">
<svg version="1.1" xmlns="http://www.w3.org/2000/svg" xmlns:xlink="http://www.w3.org/1999/xlink" width="15.918" height="21.5951">
 <g>
  <rect height="21.5951" opacity="0" width="15.918" x="0" y="0"/>
  <path d="M11.0352 0.000425673C8.93555-0.0239884 6.604 1.0014 5.05371 3.17425C4.82178 3.46722 4.61426 3.79681 4.39453 4.28509C7.04346 4.76117 9.19189 7.10492 9.19189 9.71722C9.19189 10.4619 9.04541 11.1454 8.78906 11.7558C10.4004 11.5239 11.4014 11.1577 12.3169 10.645C14.3311 9.48529 15.918 7.60541 15.918 4.90765C15.918 1.79486 13.7207 0.0248397 11.0352 0.000425673ZM11.499 5.23724C11.2549 5.44476 10.8765 5.42035 10.6812 5.164C10.4614 4.90765 10.498 4.54144 10.7544 4.33392L12.5488 2.82025C12.793 2.61273 13.1592 2.64935 13.3667 2.9057C13.5742 3.14984 13.562 3.51605 13.3057 3.72357ZM9.27734 21.5947L10.2295 21.5947C10.9863 21.5947 11.4746 21.204 11.4746 20.4472L11.4746 12.4028C10.437 12.7812 9.27734 13.0131 8.00781 13.0986L8.00781 20.4472C8.00781 21.204 8.5083 21.5947 9.27734 21.5947Z" fill="#5ac8f5"/>
  <path d="M4.44336 13.2573C6.33545 13.2573 8.02002 12.0854 8.02002 9.71722C8.02002 7.60541 6.03027 5.37152 3.44238 5.37152C1.25732 5.37152 0 7.10492 0 8.87494C0 11.5239 2.2583 13.2573 4.44336 13.2573ZM3.83301 11.4018C3.49121 11.707 2.90527 11.4018 2.18506 10.5351C1.47705 9.66839 1.29395 9.07025 1.63574 8.77728C1.98975 8.4599 2.56348 8.75287 3.2959 9.63177C3.9917 10.5229 4.1748 11.1088 3.83301 11.4018Z" fill="#5ac8f5" fill-opacity="0.5"/>
 </g>
</svg>
