<?xml version="1.0" encoding="UTF-8"?>
<!--Generator: Apple Native CoreSVG 175.5-->
<!DOCTYPE svg
PUBLIC "-//W3C//DTD SVG 1.1//EN"
       "http://www.w3.org/Graphics/SVG/1.1/DTD/svg11.dtd">
<svg version="1.1" xmlns="http://www.w3.org/2000/svg" xmlns:xlink="http://www.w3.org/1999/xlink" width="24.9023" height="24.9146">
 <g>
  <rect height="24.9146" opacity="0" width="24.9023" x="0" y="0"/>
  <path d="M12.4512 24.9023C19.2627 24.9023 24.9023 19.2505 24.9023 12.4512C24.9023 5.63965 19.2505 0 12.439 0C5.63965 0 0 5.63965 0 12.4512C0 19.2505 5.65186 24.9023 12.4512 24.9023ZM12.4512 22.8271C6.68945 22.8271 2.0874 18.2129 2.0874 12.4512C2.0874 6.68945 6.67725 2.0752 12.439 2.0752C18.2007 2.0752 22.8271 6.68945 22.8271 12.4512C22.8271 18.2129 18.2129 22.8271 12.4512 22.8271ZM10.0586 12.4634L5.84717 8.27637C5.78613 8.38623 5.74951 8.6792 5.74951 9.10645L5.74951 15.7959C5.74951 16.2109 5.78613 16.5161 5.87158 16.6504ZM12.4512 13.0981C12.6587 13.0981 12.8784 13.0249 13.1104 12.793L18.4448 7.4585C18.2861 7.33643 17.9321 7.22656 17.4194 7.22656L7.4585 7.22656C6.9458 7.22656 6.604 7.33643 6.44531 7.4585L11.7798 12.793C12.0239 13.0371 12.2437 13.0981 12.4512 13.0981ZM14.7949 12.4634L18.9819 16.6504C19.0674 16.5161 19.1162 16.2109 19.1162 15.7959L19.1162 9.10645C19.1162 8.6792 19.0674 8.38623 19.0063 8.27637ZM12.439 14.0625C11.9995 14.0625 11.6577 13.9038 11.1938 13.4766L10.8032 13.1226L6.46973 17.4438C6.61621 17.5781 6.95801 17.6636 7.4585 17.6636L17.4072 17.6636C17.9199 17.6636 18.2495 17.5781 18.396 17.4438L14.0747 13.1226L13.6841 13.4766C13.208 13.9038 12.8784 14.0625 12.439 14.0625Z" fill="#5ac8f5"/>
 </g>
</svg>
