<?xml version="1.0" encoding="UTF-8"?>
<!--Generator: Apple Native CoreSVG 175.5-->
<!DOCTYPE svg
PUBLIC "-//W3C//DTD SVG 1.1//EN"
       "http://www.w3.org/Graphics/SVG/1.1/DTD/svg11.dtd">
<svg version="1.1" xmlns="http://www.w3.org/2000/svg" xmlns:xlink="http://www.w3.org/1999/xlink" width="24.9023" height="24.9146">
 <g>
  <rect height="24.9146" opacity="0" width="24.9023" x="0" y="0"/>
  <path d="M12.4512 24.9023C19.2627 24.9023 24.9023 19.2505 24.9023 12.4512C24.9023 5.63965 19.2505 0 12.439 0C5.63965 0 0 5.63965 0 12.4512C0 19.2505 5.65186 24.9023 12.4512 24.9023ZM8.89893 17.3584C8.27637 17.3584 7.99561 17.0166 7.99561 16.5283L7.99561 8.34961C7.99561 7.87354 8.27637 7.53174 8.89893 7.53174L10.1318 7.53174C10.7666 7.53174 11.0474 7.87354 11.0474 8.34961L11.0474 16.5283C11.0474 17.0166 10.7666 17.3584 10.1318 17.3584ZM14.7949 17.3584C14.1602 17.3584 13.8794 17.0166 13.8794 16.5283L13.8794 8.34961C13.8794 7.87354 14.1602 7.53174 14.7949 7.53174L16.0278 7.53174C16.6382 7.53174 16.9189 7.87354 16.9189 8.34961L16.9189 16.5283C16.9189 17.0166 16.6382 17.3584 16.0278 17.3584Z" fill="#5ac8f5"/>
 </g>
</svg>
