<?xml version="1.0" encoding="UTF-8"?>
<!--Generator: Apple Native CoreSVG 175.5-->
<!DOCTYPE svg
PUBLIC "-//W3C//DTD SVG 1.1//EN"
       "http://www.w3.org/Graphics/SVG/1.1/DTD/svg11.dtd">
<svg version="1.1" xmlns="http://www.w3.org/2000/svg" xmlns:xlink="http://www.w3.org/1999/xlink" width="22.4731" height="22.4976">
 <g>
  <rect height="22.4976" opacity="0" width="22.4731" x="0" y="0"/>
  <path d="M3.83301 22.4976L18.6401 22.4976C21.2036 22.4976 22.4731 21.228 22.4731 18.7134L22.4731 3.80859C22.4731 1.29395 21.2036 0.0244141 18.6401 0.0244141L3.83301 0.0244141C1.28174 0.0244141 0 1.28174 0 3.80859L0 18.7134C0 21.2402 1.28174 22.4976 3.83301 22.4976Z" fill="#5ac8f5" fill-opacity="0.25"/>
  <path d="M6.29883 13.6108C6.29883 12.2803 7.37305 10.8398 9.17969 10.2051L9.375 7.25098C8.47168 6.73828 7.72705 6.15234 7.38525 5.7251C7.20215 5.49316 7.10449 5.26123 7.10449 5.05371C7.10449 4.66309 7.40967 4.38232 7.86133 4.38232L14.6484 4.38232C15.1001 4.38232 15.4053 4.66309 15.4053 5.05371C15.4053 5.26123 15.3076 5.48096 15.1489 5.71289C14.8071 6.14014 14.0503 6.72607 13.1348 7.25098L13.3423 10.2051C15.1367 10.8398 16.2109 12.2803 16.2109 13.6108C16.2109 14.1724 15.8569 14.5142 15.2832 14.5142L12.0361 14.5142L12.0361 16.7603C12.0361 18.1274 11.4868 19.2627 11.2549 19.2627C11.0229 19.2627 10.4736 18.1274 10.4736 16.7603L10.4736 14.5142L7.22656 14.5142C6.66504 14.5142 6.29883 14.1724 6.29883 13.6108Z" fill="#5ac8f5"/>
 </g>
</svg>
