<?xml version="1.0" encoding="UTF-8"?>
<!--Generator: Apple Native CoreSVG 175.5-->
<!DOCTYPE svg
PUBLIC "-//W3C//DTD SVG 1.1//EN"
       "http://www.w3.org/Graphics/SVG/1.1/DTD/svg11.dtd">
<svg version="1.1" xmlns="http://www.w3.org/2000/svg" xmlns:xlink="http://www.w3.org/1999/xlink" width="22.4731" height="22.4976">
 <g>
  <rect height="22.4976" opacity="0" width="22.4731" x="0" y="0"/>
  <path d="M3.83301 22.4976L18.6401 22.4976C21.2036 22.4976 22.4731 21.228 22.4731 18.7134L22.4731 3.80859C22.4731 1.29395 21.2036 0.0244141 18.6401 0.0244141L3.83301 0.0244141C1.28174 0.0244141 0 1.28174 0 3.80859L0 18.7134C0 21.2402 1.28174 22.4976 3.83301 22.4976ZM8.80127 16.6504C8.30078 16.6504 8.05664 16.2842 8.05664 15.7959L8.05664 14.3188L4.38232 14.3188C3.73535 14.3188 3.2959 13.916 3.2959 13.2446C3.2959 12.9028 3.36914 12.6221 3.57666 12.2314C4.43115 10.7056 5.68848 8.55713 6.73828 6.78711C7.15332 6.09131 7.59277 5.81055 8.3374 5.81055C9.06982 5.81055 9.58252 6.28662 9.58252 7.01904L9.58252 12.9028L10.2539 12.9028C10.6934 12.9028 10.9619 13.1714 10.9619 13.623C10.9619 14.0625 10.6934 14.3188 10.2539 14.3188L9.58252 14.3188L9.58252 15.7959C9.58252 16.2964 9.31396 16.6504 8.80127 16.6504ZM8.05664 12.9028L8.05664 7.51953L7.9834 7.51953C6.98242 9.22852 5.70068 11.4258 4.95605 12.854L4.95605 12.9028ZM15.564 16.6748C13.8306 16.6748 12.5 15.625 12.1704 14.4653C12.1216 14.3066 12.1094 14.1724 12.1094 14.0015C12.1094 13.562 12.4146 13.2446 12.8418 13.2446C13.1958 13.2446 13.4033 13.4399 13.562 13.8428C13.8916 14.7217 14.5752 15.21 15.5762 15.21C16.7725 15.21 17.6025 14.4775 17.6025 13.501C17.6025 12.4756 16.8457 11.8042 15.6494 11.8042L14.917 11.8042C14.502 11.8042 14.2212 11.4868 14.2212 11.084C14.2212 10.6201 14.502 10.3271 14.917 10.3271L15.6006 10.3271C16.5894 10.3271 17.2974 9.66797 17.2974 8.75244C17.2974 7.87354 16.6016 7.27539 15.6128 7.27539C14.6362 7.27539 14.0137 7.76367 13.7451 8.64258C13.6108 9.04541 13.4155 9.24072 13.0371 9.24072C12.5977 9.24072 12.3169 8.92334 12.3169 8.47168C12.3169 8.31299 12.3291 8.17871 12.3535 8.02002C12.6709 6.78711 13.9404 5.81055 15.6494 5.81055C17.5293 5.81055 18.8477 6.93359 18.8477 8.54492C18.8477 9.729 18.0298 10.7788 16.9922 10.9497L16.9922 11.0229C18.2617 11.1572 19.1895 12.2314 19.1895 13.5742C19.1895 15.3809 17.7002 16.6748 15.564 16.6748Z" fill="#5ac8f5"/>
 </g>
</svg>
