<?xml version="1.0" encoding="UTF-8"?>
<!--Generator: Apple Native CoreSVG 175.5-->
<!DOCTYPE svg
PUBLIC "-//W3C//DTD SVG 1.1//EN"
       "http://www.w3.org/Graphics/SVG/1.1/DTD/svg11.dtd">
<svg version="1.1" xmlns="http://www.w3.org/2000/svg" xmlns:xlink="http://www.w3.org/1999/xlink" width="24.9023" height="24.9146">
 <g>
  <rect height="24.9146" opacity="0" width="24.9023" x="0" y="0"/>
  <path d="M12.4512 24.9023C19.2627 24.9023 24.9023 19.2505 24.9023 12.4512C24.9023 5.63965 19.2505 0 12.439 0C5.63965 0 0 5.63965 0 12.4512C0 19.2505 5.65186 24.9023 12.4512 24.9023ZM12.4512 22.8271C6.68945 22.8271 2.0874 18.2129 2.0874 12.4512C2.0874 6.68945 6.67725 2.0752 12.439 2.0752C18.2007 2.0752 22.8271 6.68945 22.8271 12.4512C22.8271 18.2129 18.2129 22.8271 12.4512 22.8271ZM8.52051 14.0869L15.7959 14.0869C17.688 14.0869 19.1406 12.6221 19.1406 10.8276C19.1406 8.95996 17.6147 7.59277 15.6372 7.59277C14.8926 6.15234 13.5376 5.2124 11.853 5.2124C9.65576 5.2124 7.83691 6.9458 7.62939 9.13086C6.57959 9.43604 5.77393 10.3516 5.77393 11.5845C5.77393 12.9639 6.7749 14.0869 8.52051 14.0869ZM8.37402 17.5537L9.24072 16.0522C9.38721 15.7959 9.30176 15.4419 9.0332 15.2954C8.76465 15.1367 8.43506 15.2344 8.27637 15.5029L7.40967 16.9922C7.25098 17.2607 7.33643 17.6147 7.61719 17.7612C7.88574 17.9199 8.21533 17.8223 8.37402 17.5537ZM10.0952 19.4336L12.0605 16.0522C12.207 15.7837 12.1216 15.4419 11.8408 15.2954C11.5845 15.1367 11.2549 15.2222 11.0962 15.5029L9.13086 18.8843C8.98438 19.1406 9.06982 19.4946 9.35059 19.6411C9.60693 19.7998 9.93652 19.7021 10.0952 19.4336ZM13.9893 17.5537L14.856 16.0522C15.0146 15.7959 14.9292 15.4419 14.6484 15.2954C14.3921 15.1367 14.0503 15.2344 13.9038 15.5029L13.0249 16.9922C12.8784 17.2607 12.9639 17.6147 13.2446 17.7612C13.501 17.9199 13.8306 17.8223 13.9893 17.5537ZM15.7104 19.4336L17.6758 16.0522C17.8345 15.7837 17.7368 15.4419 17.4683 15.2954C17.1997 15.1367 16.8701 15.2222 16.7114 15.5029L14.7583 18.8843C14.5996 19.1406 14.6851 19.4946 14.9658 19.6411C15.2222 19.7998 15.564 19.7021 15.7104 19.4336Z" fill="#5ac8f5"/>
 </g>
</svg>
