<?xml version="1.0" encoding="UTF-8"?>
<!--Generator: Apple Native CoreSVG 175.5-->
<!DOCTYPE svg
PUBLIC "-//W3C//DTD SVG 1.1//EN"
       "http://www.w3.org/Graphics/SVG/1.1/DTD/svg11.dtd">
<svg version="1.1" xmlns="http://www.w3.org/2000/svg" xmlns:xlink="http://www.w3.org/1999/xlink" width="20.5322" height="26.1841">
 <g>
  <rect height="26.1841" opacity="0" width="20.5322" x="0" y="0"/>
  <path d="M5.63965 7.06787L14.9048 7.06787C15.332 7.06787 15.6494 6.73828 15.6494 6.31104C15.6494 5.896 15.332 5.56641 14.9048 5.56641L5.63965 5.56641C5.2002 5.56641 4.88281 5.896 4.88281 6.31104C4.88281 6.73828 5.2002 7.06787 5.63965 7.06787ZM5.63965 11.3281L14.9048 11.3281C15.332 11.3281 15.6494 10.9985 15.6494 10.5713C15.6494 10.1562 15.332 9.82666 14.9048 9.82666L5.63965 9.82666C5.2002 9.82666 4.88281 10.1562 4.88281 10.5713C4.88281 10.9985 5.2002 11.3281 5.63965 11.3281ZM5.63965 15.5884L10.022 15.5884C10.4614 15.5884 10.7788 15.271 10.7788 14.856C10.7788 14.4165 10.4614 14.0869 10.022 14.0869L5.63965 14.0869C5.2002 14.0869 4.88281 14.4165 4.88281 14.856C4.88281 15.271 5.2002 15.5884 5.63965 15.5884ZM0 22.3511C0 24.9023 1.25732 26.1719 3.78418 26.1719L16.748 26.1719C19.2749 26.1719 20.5322 24.9023 20.5322 22.3511L20.5322 3.83301C20.5322 1.29395 19.2749 0 16.748 0L3.78418 0C1.25732 0 0 1.29395 0 3.83301ZM1.96533 22.3145L1.96533 3.86963C1.96533 2.64893 2.6123 1.96533 3.88184 1.96533L16.6504 1.96533C17.9199 1.96533 18.5669 2.64893 18.5669 3.86963L18.5669 22.3145C18.5669 23.5352 17.9199 24.2065 16.6504 24.2065L3.88184 24.2065C2.6123 24.2065 1.96533 23.5352 1.96533 22.3145Z" fill="#5ac8f5"/>
 </g>
</svg>
