<?xml version="1.0" encoding="UTF-8"?>
<!--Generator: Apple Native CoreSVG 175.5-->
<!DOCTYPE svg
PUBLIC "-//W3C//DTD SVG 1.1//EN"
       "http://www.w3.org/Graphics/SVG/1.1/DTD/svg11.dtd">
<svg version="1.1" xmlns="http://www.w3.org/2000/svg" xmlns:xlink="http://www.w3.org/1999/xlink" width="30.6885" height="25.9766">
 <g>
  <rect height="25.9766" opacity="0" width="30.6885" x="0" y="0"/>
  <path d="M7.31201 22.6013L18.9941 22.6013L17.0166 20.636L7.31201 20.636C4.23584 20.636 1.96533 18.4875 1.96533 15.9973C1.96533 13.5559 3.44238 11.615 6.03027 11.615C6.20117 11.615 6.26221 11.5295 6.26221 11.3708C6.26221 10.8948 6.32324 10.4553 6.45752 10.0891L4.83398 8.46558C4.60205 8.95386 4.49219 9.51538 4.47998 10.1135C1.72119 10.553 0 13.0188 0 15.9973C0 19.5862 3.13721 22.6013 7.31201 22.6013ZM25.5737 22.3938C28.6011 21.7834 30.6885 19.4153 30.6885 16.5466C30.6885 13.9832 29.2114 11.7615 26.8311 10.7605C26.8555 5.31616 22.937 1.3855 17.9443 1.3855C14.6362 1.3855 12.2803 3.15552 10.8154 5.29175C10.0586 5.08423 9.22852 5.08423 8.45947 5.29175L10.3271 7.15942C10.6934 7.14722 11.0962 7.20825 11.4746 7.31812C11.6211 7.36694 11.7065 7.33032 11.7798 7.19604C12.9639 5.08423 14.7827 3.35083 17.9443 3.35083C21.9482 3.35083 24.7192 6.52466 24.9268 10.1501C24.9634 10.7117 24.9268 11.3708 24.8779 11.9446C24.8657 12.1033 24.9268 12.1887 25.0732 12.2253C27.2949 12.7136 28.7231 14.3372 28.7231 16.5466C28.7231 18.8171 26.7212 20.636 24.1211 20.636L23.8159 20.636ZM24.1455 25.7019C24.5117 26.0681 25.1099 26.0681 25.4761 25.7019C25.8423 25.3357 25.8423 24.7375 25.4761 24.3713L5.10254 4.01001C4.73633 3.63159 4.12598 3.65601 3.75977 4.01001C3.40576 4.36401 3.41797 4.99878 3.75977 5.34058Z" fill="#5ac8f5"/>
 </g>
</svg>
