<?xml version="1.0" encoding="UTF-8"?>
<!--Generator: Apple Native CoreSVG 175.5-->
<!DOCTYPE svg
PUBLIC "-//W3C//DTD SVG 1.1//EN"
       "http://www.w3.org/Graphics/SVG/1.1/DTD/svg11.dtd">
<svg version="1.1" xmlns="http://www.w3.org/2000/svg" xmlns:xlink="http://www.w3.org/1999/xlink" width="22.4731" height="18.4204">
 <g>
  <rect height="18.4204" opacity="0" width="22.4731" x="0" y="0"/>
  <path d="M0 17.4316C0 17.9688 0.439453 18.4204 0.976562 18.4204C1.52588 18.4204 1.96533 17.9688 1.96533 17.4316L1.96533 1.00098C1.96533 0.463867 1.52588 0.0244141 0.976562 0.0244141C0.439453 0.0244141 0 0.463867 0 1.00098ZM20.5078 17.4316C20.5078 17.9688 20.9595 18.4204 21.4966 18.4204C22.0337 18.4204 22.4731 17.9688 22.4731 17.4316L22.4731 1.00098C22.4731 0.463867 22.0337 0.0244141 21.4966 0.0244141C20.9595 0.0244141 20.5078 0.463867 20.5078 1.00098Z" fill="#5ac8f5" fill-opacity="0.5"/>
  <path d="M12.8296 14.7583C13.4155 14.7583 13.7451 14.3799 13.7451 13.7329L13.7451 12.4878L14.6729 12.4878C15.1611 12.4878 15.4907 12.1704 15.4907 11.6943C15.4907 11.2183 15.1733 10.8887 14.6729 10.8887L13.7451 10.8887L13.7451 4.67529C13.7451 3.90625 13.1592 3.39355 12.2803 3.39355C11.4258 3.39355 10.9009 3.69873 10.4126 4.43115C9.15527 6.33545 7.6416 8.58154 6.62842 10.2295C6.38428 10.6323 6.29883 10.9253 6.29883 11.2915C6.29883 12.0117 6.78711 12.4878 7.56836 12.4878L11.9507 12.4878L11.9507 13.7329C11.9507 14.3677 12.2803 14.7583 12.8296 14.7583ZM11.9507 10.8887L8.09326 10.8887L8.09326 10.8154C9.021 9.21631 10.5835 6.89697 11.8652 4.96826L11.9507 4.96826Z" fill="#5ac8f5"/>
 </g>
</svg>
