<?xml version="1.0" encoding="UTF-8"?>
<!--Generator: Apple Native CoreSVG 175.5-->
<!DOCTYPE svg
PUBLIC "-//W3C//DTD SVG 1.1//EN"
       "http://www.w3.org/Graphics/SVG/1.1/DTD/svg11.dtd">
<svg version="1.1" xmlns="http://www.w3.org/2000/svg" xmlns:xlink="http://www.w3.org/1999/xlink" width="35.5469" height="26.8433">
 <g>
  <rect height="26.8433" opacity="0" width="35.5469" x="0" y="0"/>
  <path d="M3.32031 23.4375L5.99365 23.4375L5.99365 21.4722L3.34473 21.4722C2.4292 21.4722 1.96533 21.0083 1.96533 20.0928L1.96533 4.15039C1.96533 3.23486 2.4292 2.75879 3.34473 2.75879L21.2036 2.75879C22.1069 2.75879 22.5952 3.23486 22.5952 4.15039L22.5952 22.0459L24.5605 21.3379L24.5605 4.11377C24.5605 1.94092 23.4131 0.793457 21.2402 0.793457L3.32031 0.793457C1.13525 0.793457 0 1.94092 0 4.11377L0 20.1294C0 22.3022 1.13525 23.4375 3.32031 23.4375ZM12.3047 23.4375L23.4375 23.4375L23.4375 21.4722L12.3047 21.4722ZM23.4863 9.49707L27.6855 9.49707C28.3081 9.49707 28.7476 9.60693 29.248 10.1562L33.0811 14.4653C33.4106 14.8315 33.5815 15.3442 33.5815 15.7837L33.5815 20.0928C33.5815 21.0083 33.1055 21.4722 32.1899 21.4722L30.2246 21.4722L30.2246 23.4375L32.2266 23.4375C34.3994 23.4375 35.5469 22.3022 35.5469 20.1294L35.5469 15.8203C35.5469 14.624 35.3516 14.0625 34.6802 13.3057L30.5298 8.61816C29.8096 7.8125 29.0039 7.53174 27.8076 7.53174L23.4863 7.53174ZM26.8433 15.9302L32.1655 15.9302C32.1655 15.6372 32.0557 15.4785 31.8726 15.271L28.2349 11.1816C27.9663 10.9009 27.6489 10.7178 27.3071 10.7178L25.7935 10.7178L25.7935 14.8926C25.7935 15.5396 26.1963 15.9302 26.8433 15.9302ZM9.05762 26.8433C11.3525 26.8433 13.2202 24.9756 13.2202 22.6685C13.2202 20.3735 11.3525 18.5059 9.05762 18.5059C6.75049 18.5059 4.87061 20.3735 4.87061 22.6685C4.87061 24.9756 6.75049 26.8433 9.05762 26.8433ZM9.05762 25.1831C7.66602 25.1831 6.53076 24.0601 6.53076 22.6685C6.53076 21.2891 7.66602 20.1538 9.05762 20.1538C10.437 20.1538 11.5601 21.2891 11.5601 22.6685C11.5601 24.0601 10.437 25.1831 9.05762 25.1831ZM26.6479 26.8433C28.9551 26.8433 30.8105 24.9756 30.8105 22.6685C30.8105 20.3735 28.9551 18.5059 26.6479 18.5059C24.3408 18.5059 22.4731 20.3735 22.4731 22.6685C22.4731 24.9756 24.3408 26.8433 26.6479 26.8433ZM26.6479 25.1831C25.2686 25.1831 24.1333 24.0601 24.1333 22.6685C24.1333 21.2891 25.2686 20.1538 26.6479 20.1538C28.0151 20.1538 29.1504 21.2891 29.1504 22.6685C29.1504 24.0601 28.0396 25.1831 26.6479 25.1831Z" fill="#5ac8f5"/>
 </g>
</svg>
