<?xml version="1.0" encoding="UTF-8"?>
<!--Generator: Apple Native CoreSVG 175.5-->
<!DOCTYPE svg
PUBLIC "-//W3C//DTD SVG 1.1//EN"
       "http://www.w3.org/Graphics/SVG/1.1/DTD/svg11.dtd">
<svg version="1.1" xmlns="http://www.w3.org/2000/svg" xmlns:xlink="http://www.w3.org/1999/xlink" width="27.2659" height="24.9146">
 <g>
  <rect height="24.9146" opacity="0" width="27.2659" x="0" y="0"/>
  <path d="M0 12.4512C0 19.2505 5.65186 24.9023 12.4512 24.9023C16.5649 24.9023 20.2148 22.8149 22.522 19.6899C22.937 19.1528 22.8027 18.4814 22.3145 18.1763C21.8018 17.8711 21.2158 18.0298 20.8496 18.5303C18.9697 21.1182 15.9302 22.8149 12.4512 22.8271C6.68945 22.8394 2.0752 18.2129 2.0752 12.4512C2.0752 6.68945 6.68945 2.0874 12.4512 2.0874C17.4072 2.0874 21.5088 5.48096 22.5586 10.0952L20.8008 10.0952C19.9341 10.0952 19.7144 10.6934 20.1782 11.3647L22.9126 15.2588C23.3032 15.8081 23.8892 15.8203 24.292 15.2588L27.0142 11.377C27.5024 10.6934 27.2705 10.0952 26.4038 10.0952L24.6704 10.0952C23.5596 4.38232 18.457 0 12.4512 0C5.65186 0 0 5.63965 0 12.4512ZM8.03223 17.2729C8.03223 18.1885 8.43506 18.6157 9.27734 18.6157L15.6006 18.6157C16.4429 18.6157 16.8457 18.1885 16.8457 17.2729L16.8457 12.4146C16.8457 11.5601 16.4917 11.1328 15.7715 11.084L15.7715 9.64355C15.7715 7.39746 14.4287 5.88379 12.439 5.88379C10.4492 5.88379 9.10645 7.39746 9.10645 9.64355L9.10645 11.084C8.38623 11.1328 8.03223 11.5601 8.03223 12.4146ZM10.376 11.0718L10.376 9.50928C10.376 8.06885 11.2061 7.1167 12.439 7.1167C13.6719 7.1167 14.502 8.06885 14.502 9.50928L14.502 11.0718Z" fill="#5ac8f5"/>
 </g>
</svg>
