<?xml version="1.0" encoding="UTF-8"?>
<!--Generator: Apple Native CoreSVG 175.5-->
<!DOCTYPE svg
PUBLIC "-//W3C//DTD SVG 1.1//EN"
       "http://www.w3.org/Graphics/SVG/1.1/DTD/svg11.dtd">
<svg version="1.1" xmlns="http://www.w3.org/2000/svg" xmlns:xlink="http://www.w3.org/1999/xlink" width="24.9023" height="24.9146">
 <g>
  <rect height="24.9146" opacity="0" width="24.9023" x="0" y="0"/>
  <path d="M12.4512 24.9023C19.2627 24.9023 24.9023 19.2505 24.9023 12.4512C24.9023 5.63965 19.2505 0 12.439 0C5.63965 0 0 5.63965 0 12.4512C0 19.2505 5.65186 24.9023 12.4512 24.9023ZM12.7441 18.5425C10.144 18.5425 8.47168 16.8457 7.93457 14.3433L6.73828 14.3433C6.38428 14.3433 6.12793 14.0625 6.12793 13.7085C6.12793 13.3423 6.38428 13.0981 6.73828 13.0981L7.76367 13.0981C7.73926 12.8906 7.73926 12.6953 7.73926 12.4756C7.73926 12.2314 7.75146 12.0117 7.77588 11.7798L6.73828 11.7798C6.38428 11.7798 6.12793 11.499 6.12793 11.1572C6.12793 10.7788 6.38428 10.5347 6.73828 10.5347L7.95898 10.5347C8.54492 8.03223 10.2905 6.43311 12.7441 6.43311C14.7949 6.43311 16.5283 7.51953 17.1509 9.21631C17.2241 9.42383 17.2729 9.63135 17.2729 9.85107C17.2729 10.3149 16.9678 10.6201 16.4917 10.6201C16.0522 10.6201 15.8325 10.4492 15.686 9.96094C15.2954 8.66699 14.0869 7.95898 12.793 7.95898C11.2427 7.95898 10.1929 9.021 9.729 10.5347L13.0249 10.5347C13.3789 10.5347 13.6475 10.7788 13.6475 11.1572C13.6475 11.499 13.3789 11.7798 13.0249 11.7798L9.47266 11.7798C9.46045 12.0117 9.43604 12.2314 9.43604 12.4756C9.43604 12.6831 9.44824 12.8906 9.47266 13.0981L13.0249 13.0981C13.3789 13.0981 13.6475 13.3423 13.6475 13.7085C13.6475 14.0625 13.3789 14.3433 13.0249 14.3433L9.70459 14.3433C10.144 15.918 11.2061 17.0166 12.793 17.0166C14.1846 17.0166 15.4175 16.333 15.7715 15.0513C15.9058 14.6118 16.1621 14.3799 16.5894 14.3799C17.0532 14.3799 17.3584 14.6973 17.3584 15.1489C17.3584 15.3809 17.3096 15.5884 17.2363 15.7959C16.5771 17.627 14.8804 18.5425 12.7441 18.5425Z" fill="#5ac8f5"/>
 </g>
</svg>
