<?xml version="1.0" encoding="UTF-8"?>
<!--Generator: Apple Native CoreSVG 175.5-->
<!DOCTYPE svg
PUBLIC "-//W3C//DTD SVG 1.1//EN"
       "http://www.w3.org/Graphics/SVG/1.1/DTD/svg11.dtd">
<svg version="1.1" xmlns="http://www.w3.org/2000/svg" xmlns:xlink="http://www.w3.org/1999/xlink" width="21.4111" height="28.3569">
 <g>
  <rect height="28.3569" opacity="0" width="21.4111" x="0" y="0"/>
  <path d="M3.83301 28.3569L17.9443 28.3569C20.1294 28.3569 21.4111 27.0874 21.4111 24.5728L21.4111 10.73C21.4111 8.21533 20.1172 6.9458 17.5781 6.9458L3.83301 6.9458C1.28174 6.9458 0 8.20312 0 10.73L0 24.5728C0 27.0874 1.28174 28.3569 3.83301 28.3569ZM2.66113 4.98047L18.7378 4.98047C18.5547 3.86963 18.0298 3.25928 16.8091 3.25928L4.58984 3.25928C3.36914 3.25928 2.84424 3.86963 2.66113 4.98047ZM4.78516 1.59912L16.626 1.59912C16.5527 0.561523 15.9546 0.0244141 14.8315 0.0244141L6.56738 0.0244141C5.44434 0.0244141 4.8584 0.561523 4.78516 1.59912ZM6.16455 22.6929L6.16455 17.688C6.16455 16.7969 6.53076 16.3574 7.26318 16.3086L7.26318 14.8315C7.26318 12.5122 8.66699 10.9619 10.7056 10.9619C12.7563 10.9619 14.1479 12.5122 14.1479 14.8315L14.1479 16.3086C14.8926 16.3574 15.2588 16.7969 15.2588 17.688L15.2588 22.6929C15.2588 23.6328 14.8438 24.0723 13.9648 24.0723L7.44629 24.0723C6.57959 24.0723 6.16455 23.6328 6.16455 22.6929ZM8.58154 16.2964L12.8296 16.2964L12.8296 14.6851C12.8296 13.2202 11.9873 12.2314 10.7056 12.2314C9.43604 12.2314 8.58154 13.2202 8.58154 14.6851Z" fill="#5ac8f5"/>
 </g>
</svg>
