<?xml version="1.0" encoding="UTF-8"?>
<!--Generator: Apple Native CoreSVG 175.5-->
<!DOCTYPE svg
PUBLIC "-//W3C//DTD SVG 1.1//EN"
       "http://www.w3.org/Graphics/SVG/1.1/DTD/svg11.dtd">
<svg version="1.1" xmlns="http://www.w3.org/2000/svg" xmlns:xlink="http://www.w3.org/1999/xlink" width="24.9023" height="24.9146">
 <g>
  <rect height="24.9146" opacity="0" width="24.9023" x="0" y="0"/>
  <path d="M12.4512 24.9023C19.2627 24.9023 24.9023 19.2505 24.9023 12.4512C24.9023 5.63965 19.2505 0 12.439 0C5.63965 0 0 5.63965 0 12.4512C0 19.2505 5.65186 24.9023 12.4512 24.9023Z" fill="#5ac8f5" fill-opacity="0.25"/>
  <path d="M12.4512 18.2251C11.8042 18.2251 11.4502 17.7612 11.4502 17.0776L11.4502 13.8306L7.89795 7.92236C7.77588 7.71484 7.72705 7.51953 7.72705 7.33643C7.72705 6.84814 8.12988 6.44531 8.65479 6.44531C9.10645 6.44531 9.35059 6.604 9.61914 7.08008L12.4268 11.9141L12.5 11.9141L15.332 7.08008C15.5884 6.61621 15.8203 6.44531 16.2598 6.44531C16.7969 6.44531 17.1753 6.83594 17.1753 7.36084C17.1753 7.53174 17.1265 7.73926 17.0044 7.92236L13.4766 13.8062L13.4766 17.0776C13.4766 17.7979 13.1104 18.2251 12.4512 18.2251Z" fill="#5ac8f5"/>
 </g>
</svg>
