<?xml version="1.0" encoding="UTF-8"?>
<!--Generator: Apple Native CoreSVG 175.5-->
<!DOCTYPE svg
PUBLIC "-//W3C//DTD SVG 1.1//EN"
       "http://www.w3.org/Graphics/SVG/1.1/DTD/svg11.dtd">
<svg version="1.1" xmlns="http://www.w3.org/2000/svg" xmlns:xlink="http://www.w3.org/1999/xlink" width="30.6885" height="23.2056">
 <g>
  <rect height="23.2056" opacity="0" width="30.6885" x="0" y="0"/>
  <path d="M24.1211 21.2158C27.8076 21.2158 30.6885 18.5181 30.6885 15.1611C30.6885 12.5977 29.2114 10.376 26.8311 9.375C26.8555 3.93066 22.937 0 17.9443 0C14.6362 0 12.2803 1.77002 10.8154 3.90625C7.8125 3.02734 4.54102 5.31006 4.47998 8.72803C1.72119 9.16748 0 11.6333 0 14.6118C0 18.2007 3.13721 21.2158 7.31201 21.2158Z" fill="#5ac8f5" fill-opacity="0.25"/>
  <path d="M15.3564 12.9028C14.7217 12.9028 14.3921 12.5366 14.3677 11.8896L14.1968 7.27539C14.1724 6.57959 14.6606 6.10352 15.3442 6.10352C16.0156 6.10352 16.5283 6.5918 16.5039 7.2876L16.333 11.8896C16.3086 12.5488 15.9668 12.9028 15.3564 12.9028ZM15.3442 16.9312C14.6118 16.9312 13.9771 16.333 13.9771 15.6128C13.9771 14.8926 14.5996 14.2944 15.3442 14.2944C16.0889 14.2944 16.7114 14.8804 16.7114 15.6128C16.7114 16.3452 16.0767 16.9312 15.3442 16.9312Z" fill="#5ac8f5"/>
 </g>
</svg>
