<?xml version="1.0" encoding="UTF-8"?>
<!--Generator: Apple Native CoreSVG 175.5-->
<!DOCTYPE svg
PUBLIC "-//W3C//DTD SVG 1.1//EN"
       "http://www.w3.org/Graphics/SVG/1.1/DTD/svg11.dtd">
<svg version="1.1" xmlns="http://www.w3.org/2000/svg" xmlns:xlink="http://www.w3.org/1999/xlink" width="24.5239" height="16.5894">
 <g>
  <rect height="16.5894" opacity="0" width="24.5239" x="0" y="0"/>
  <path d="M5.70068 16.5894C8.48389 16.5894 10.6689 15.1855 11.853 12.854L11.9751 12.854C13.0127 15.1978 15.1611 16.5894 18.0298 16.5894C21.0205 16.5894 23.3032 15.3076 24.2676 13.0127C24.3652 12.7686 24.4385 12.5122 24.4385 12.3169C24.4385 11.7188 24.0356 11.3281 23.4253 11.3281C23.0591 11.3281 22.7905 11.4868 22.5708 11.8164C21.46 13.7573 20.0684 14.6118 17.9443 14.6118C14.8926 14.6118 12.9395 12.3535 12.9395 8.99658L12.9395 8.83789L23.2178 8.83789C24.0356 8.83789 24.5239 8.3374 24.5239 7.48291C24.5239 3.08838 21.8384 0.012207 17.9199 0.012207C15.271 0.012207 13.3057 1.30615 12.2681 3.479L12.1704 3.479C11.5479 1.30615 9.43604 0.012207 6.66504 0.012207C4.02832 0.012207 1.74561 1.24512 0.90332 3.125C0.708008 3.49121 0.610352 3.86963 0.610352 4.18701C0.610352 4.79736 1.02539 5.2002 1.61133 5.2002C2.06299 5.2002 2.36816 5.01709 2.56348 4.61426C3.39355 2.79541 4.73633 2.01416 6.70166 2.01416C9.08203 2.01416 10.6812 3.52783 10.6812 5.71289L10.6812 7.05566L5.9082 7.31201C2.0874 7.50732 0 9.14307 0 11.8652C0 14.7217 2.23389 16.5894 5.70068 16.5894ZM5.77393 14.6362C3.67432 14.6362 2.30713 13.4644 2.30713 11.8286C2.30713 10.1929 3.66211 9.24072 6.15234 9.09424L10.6812 8.83789L10.6812 10.2539C10.6812 12.6709 8.53271 14.6362 5.77393 14.6362ZM12.9395 7.05566C13.1226 4.06494 15.0269 1.98975 17.749 1.98975C20.4346 1.98975 22.1436 4.01611 22.1924 7.05566Z" fill="#5ac8f5"/>
 </g>
</svg>
