<?xml version="1.0" encoding="UTF-8"?>
<!--Generator: Apple Native CoreSVG 175.5-->
<!DOCTYPE svg
PUBLIC "-//W3C//DTD SVG 1.1//EN"
       "http://www.w3.org/Graphics/SVG/1.1/DTD/svg11.dtd">
<svg version="1.1" xmlns="http://www.w3.org/2000/svg" xmlns:xlink="http://www.w3.org/1999/xlink" width="23.4497" height="26.9653">
 <g>
  <rect height="26.9653" opacity="0" width="23.4497" x="0" y="0"/>
  <path d="M1.74561 22.4854C1.74561 24.5239 2.94189 25.5859 4.98047 25.5859L10.7178 25.5859L10.7178 14.624L1.74561 14.624ZM12.7197 25.5859L18.4692 25.5859C20.4956 25.5859 21.7041 24.5239 21.7041 22.4854L21.7041 14.624L12.7197 14.624ZM0 11.499C0 12.8052 0.732422 13.3179 2.05078 13.3179L10.7178 13.3179L10.7178 6.71387L8.81348 6.71387C6.89697 6.71387 5.77393 5.50537 5.77393 4.1626C5.77393 2.81982 6.75049 2.03857 8.09326 2.03857C9.5459 2.03857 10.7178 3.13721 10.7178 4.94385L10.7178 6.71387L12.7197 6.71387L12.7197 4.94385C12.7197 3.13721 13.8916 2.03857 15.3442 2.03857C16.687 2.03857 17.6636 2.81982 17.6636 4.1626C17.6636 5.50537 16.5527 6.71387 14.624 6.71387L12.7197 6.71387L12.7197 13.3179L21.3989 13.3179C22.7173 13.3179 23.4497 12.8052 23.4497 11.499L23.4497 8.53271C23.4497 7.22656 22.7173 6.71387 21.3989 6.71387L18.5669 6.71387C19.2749 6.04248 19.7021 5.12695 19.7021 4.05273C19.7021 1.68457 17.8345 0 15.4663 0C13.7573 0 12.3413 0.939941 11.7188 2.57568C11.0962 0.939941 9.69238 0 7.97119 0C5.61523 0 3.73535 1.68457 3.73535 4.05273C3.73535 5.12695 4.1626 6.04248 4.88281 6.71387L2.05078 6.71387C0.793457 6.71387 0 7.22656 0 8.53271Z" fill="#5ac8f5"/>
 </g>
</svg>
