<?xml version="1.0" encoding="UTF-8"?>
<!--Generator: Apple Native CoreSVG 175.5-->
<!DOCTYPE svg
PUBLIC "-//W3C//DTD SVG 1.1//EN"
       "http://www.w3.org/Graphics/SVG/1.1/DTD/svg11.dtd">
<svg version="1.1" xmlns="http://www.w3.org/2000/svg" xmlns:xlink="http://www.w3.org/1999/xlink" width="24.5972" height="23.6694">
 <g>
  <rect height="23.6694" opacity="0" width="24.5972" x="0" y="0"/>
  <path d="M16.0034 23.6572C17.5537 23.6572 18.2861 23.1567 19.0918 22.29L23.584 17.3096C24.3896 16.4185 24.5972 15.8325 24.5972 14.624L24.5972 9.04541C24.5972 7.82471 24.3896 7.25098 23.584 6.35986L19.0918 1.37939C18.2861 0.512695 17.5537 0 16.0034 0L8.59375 0C7.04346 0 6.29883 0.512695 5.50537 1.37939L1.01318 6.35986C0.20752 7.25098 0 7.82471 0 9.04541L0 14.624C0 15.8325 0.20752 16.4185 1.01318 17.3096L5.50537 22.29C6.29883 23.1567 7.04346 23.6572 8.59375 23.6572ZM12.2925 1.96533L12.2925 21.7041L9.25293 21.7041C8.03223 21.7041 7.67822 21.4355 7.00684 20.7031L2.84424 16.1255C2.36816 15.5884 2.2583 15.2832 2.2583 14.3921L2.2583 9.27734C2.2583 8.38623 2.36816 8.08105 2.84424 7.54395L7.00684 2.96631C7.67822 2.22168 8.03223 1.96533 9.25293 1.96533Z" fill="#5ac8f5"/>
 </g>
</svg>
