<?xml version="1.0" encoding="UTF-8"?>
<!--Generator: Apple Native CoreSVG 175.5-->
<!DOCTYPE svg
PUBLIC "-//W3C//DTD SVG 1.1//EN"
       "http://www.w3.org/Graphics/SVG/1.1/DTD/svg11.dtd">
<svg version="1.1" xmlns="http://www.w3.org/2000/svg" xmlns:xlink="http://www.w3.org/1999/xlink" width="30.7251" height="19.2993">
 <g>
  <rect height="19.2993" opacity="0" width="30.7251" x="0" y="0"/>
  <path d="M3.83301 19.2871L26.8921 19.2871C29.4312 19.2871 30.7251 18.0176 30.7251 15.5029L30.7251 3.77197C30.7251 1.26953 29.4312 0 26.8921 0L3.83301 0C1.26953 0 0 1.25732 0 3.77197L0 15.5029C0 18.0176 1.26953 19.2871 3.83301 19.2871ZM3.85742 17.3218C2.63672 17.3218 1.96533 16.6626 1.96533 15.3931L1.96533 3.88184C1.96533 2.6123 2.63672 1.96533 3.85742 1.96533L26.8555 1.96533C28.064 1.96533 28.7598 2.6123 28.7598 3.88184L28.7598 15.3931C28.7598 16.6626 28.064 17.3218 26.8555 17.3218ZM11.6211 6.7749L12.5244 6.7749C12.7441 6.7749 12.8784 6.62842 12.8784 6.38428L12.8784 5.01709C12.8784 4.77295 12.7441 4.62646 12.5244 4.62646L11.6211 4.62646C11.4014 4.62646 11.2671 4.77295 11.2671 5.01709L11.2671 6.38428C11.2671 6.62842 11.4014 6.7749 11.6211 6.7749ZM14.3066 6.7749L15.1978 6.7749C15.4175 6.7749 15.5518 6.62842 15.5518 6.38428L15.5518 5.01709C15.5518 4.77295 15.4175 4.62646 15.1978 4.62646L14.3066 4.62646C14.0869 4.62646 13.9404 4.77295 13.9404 5.01709L13.9404 6.38428C13.9404 6.62842 14.0869 6.7749 14.3066 6.7749ZM16.9922 6.7749L17.8833 6.7749C18.0908 6.7749 18.2373 6.62842 18.2373 6.38428L18.2373 5.01709C18.2373 4.77295 18.0908 4.62646 17.8833 4.62646L16.9922 4.62646C16.7603 4.62646 16.626 4.77295 16.626 5.01709L16.626 6.38428C16.626 6.62842 16.7603 6.7749 16.9922 6.7749ZM19.6655 6.7749L20.5444 6.7749C20.7764 6.7749 20.9106 6.62842 20.9106 6.38428L20.9106 5.01709C20.9106 4.77295 20.7764 4.62646 20.5444 4.62646L19.6655 4.62646C19.4336 4.62646 19.2993 4.77295 19.2993 5.01709L19.2993 6.38428C19.2993 6.62842 19.4336 6.7749 19.6655 6.7749ZM22.3267 6.7749L23.2422 6.7749C23.4497 6.7749 23.5962 6.62842 23.5962 6.38428L23.5962 5.01709C23.5962 4.77295 23.4497 4.62646 23.2422 4.62646L22.3267 4.62646C22.1191 4.62646 21.9849 4.77295 21.9849 5.01709L21.9849 6.38428C21.9849 6.62842 22.1191 6.7749 22.3267 6.7749ZM25.0244 6.7749L25.9033 6.7749C26.1353 6.7749 26.2695 6.62842 26.2695 6.38428L26.2695 5.01709C26.2695 4.77295 26.1353 4.62646 25.9033 4.62646L25.0244 4.62646C24.7925 4.62646 24.6582 4.77295 24.6582 5.01709L24.6582 6.38428C24.6582 6.62842 24.7925 6.7749 25.0244 6.7749ZM11.6211 10.6934L12.5244 10.6934C12.7441 10.6934 12.8784 10.5591 12.8784 10.3027L12.8784 8.94775C12.8784 8.69141 12.7441 8.55713 12.5244 8.55713L11.6211 8.55713C11.4014 8.55713 11.2671 8.69141 11.2671 8.94775L11.2671 10.3027C11.2671 10.5591 11.4014 10.6934 11.6211 10.6934ZM14.3066 10.6934L15.1978 10.6934C15.4175 10.6934 15.5518 10.5591 15.5518 10.3027L15.5518 8.94775C15.5518 8.69141 15.4175 8.55713 15.1978 8.55713L14.3066 8.55713C14.0869 8.55713 13.9404 8.69141 13.9404 8.94775L13.9404 10.3027C13.9404 10.5591 14.0869 10.6934 14.3066 10.6934ZM16.9922 10.6934L17.8833 10.6934C18.0908 10.6934 18.2373 10.5591 18.2373 10.3027L18.2373 8.94775C18.2373 8.69141 18.0908 8.55713 17.8833 8.55713L16.9922 8.55713C16.7603 8.55713 16.626 8.69141 16.626 8.94775L16.626 10.3027C16.626 10.5591 16.7603 10.6934 16.9922 10.6934ZM19.6655 10.6934L20.5444 10.6934C20.7764 10.6934 20.9106 10.5591 20.9106 10.3027L20.9106 8.94775C20.9106 8.69141 20.7764 8.55713 20.5444 8.55713L19.6655 8.55713C19.4336 8.55713 19.2993 8.69141 19.2993 8.94775L19.2993 10.3027C19.2993 10.5591 19.4336 10.6934 19.6655 10.6934ZM22.3267 10.6934L23.2422 10.6934C23.4497 10.6934 23.5962 10.5591 23.5962 10.3027L23.5962 8.94775C23.5962 8.69141 23.4497 8.55713 23.2422 8.55713L22.3267 8.55713C22.1191 8.55713 21.9849 8.69141 21.9849 8.94775L21.9849 10.3027C21.9849 10.5591 22.1191 10.6934 22.3267 10.6934ZM25.0244 10.6934L25.9033 10.6934C26.1353 10.6934 26.2695 10.5591 26.2695 10.3027L26.2695 8.94775C26.2695 8.69141 26.1353 8.55713 25.9033 8.55713L25.0244 8.55713C24.7925 8.55713 24.6582 8.69141 24.6582 8.94775L24.6582 10.3027C24.6582 10.5591 24.7925 10.6934 25.0244 10.6934ZM11.6211 14.624L12.5244 14.624C12.7441 14.624 12.8784 14.4775 12.8784 14.2334L12.8784 12.8662C12.8784 12.6221 12.7441 12.4756 12.5244 12.4756L11.6211 12.4756C11.4014 12.4756 11.2671 12.6221 11.2671 12.8662L11.2671 14.2334C11.2671 14.4775 11.4014 14.624 11.6211 14.624ZM14.3066 14.624L23.2422 14.624C23.4497 14.624 23.5962 14.4775 23.5962 14.2334L23.5962 12.8662C23.5962 12.6221 23.4497 12.4756 23.2422 12.4756L14.3066 12.4756C14.0869 12.4756 13.9404 12.6221 13.9404 12.8662L13.9404 14.2334C13.9404 14.4775 14.0869 14.624 14.3066 14.624ZM25.0244 14.624L25.9033 14.624C26.1353 14.624 26.2695 14.4775 26.2695 14.2334L26.2695 12.8662C26.2695 12.6221 26.1353 12.4756 25.9033 12.4756L25.0244 12.4756C24.7925 12.4756 24.6582 12.6221 24.6582 12.8662L24.6582 14.2334C24.6582 14.4775 24.7925 14.624 25.0244 14.624ZM9.14307 8.95996L5.56641 5.5542C5.15137 5.16357 4.44336 5.32227 4.44336 5.96924L4.44336 13.3057C4.44336 13.9648 5.15137 14.1235 5.56641 13.7329L9.14307 10.3149C9.59473 9.8877 9.59473 9.38721 9.14307 8.95996Z" fill="#5ac8f5"/>
 </g>
</svg>
