<?xml version="1.0" encoding="UTF-8"?>
<!--Generator: Apple Native CoreSVG 175.5-->
<!DOCTYPE svg
PUBLIC "-//W3C//DTD SVG 1.1//EN"
       "http://www.w3.org/Graphics/SVG/1.1/DTD/svg11.dtd">
<svg version="1.1" xmlns="http://www.w3.org/2000/svg" xmlns:xlink="http://www.w3.org/1999/xlink" width="25.4913" height="27.8487">
 <g>
  <rect height="27.8487" opacity="0" width="25.4913" x="0" y="0"/>
  <path d="M2.49939 21.7063L12.0453 27.2361C13.7665 28.2249 14.9872 27.5535 14.9872 25.5149L14.9872 19.7898L12.9974 17.8001L12.9974 25.2098C12.9974 25.3318 12.9242 25.3807 12.8143 25.3196L3.47595 19.9241C3.06091 19.68 2.95105 19.4847 2.95105 18.9964L2.95105 9.23076C2.95105 8.74248 3.0365 8.31523 3.10974 7.9124L1.52283 6.31328C1.19324 6.58183 0.961304 7.0457 0.961304 7.65605L0.961304 19.033C0.961304 20.3269 1.29089 21.0227 2.49939 21.7063ZM13.913 22.2557L17.2455 24.1844C18.1976 24.7337 19.0155 24.7703 19.5404 24.3309L16.5497 21.3523C16.391 21.3035 16.1957 21.2181 16.0126 21.096L13.913 19.8997ZM18.1976 16.201L20.1874 18.2029L20.1874 11.3914C20.1874 10.1341 19.7723 9.41386 18.6859 8.76689L8.89587 3.12724C7.9071 2.55351 6.74744 2.77324 6.3446 3.7498L6.3446 3.90849L7.47986 5.06816L7.47986 4.79961C7.5531 4.76298 7.68738 4.77519 7.82166 4.84843L17.6483 10.5369C18.0389 10.7566 18.1976 10.9397 18.1976 11.4646ZM24.3744 21.5477C24.8016 21.2059 25.0458 20.5711 25.0458 19.6434L25.0458 8.58378C25.0458 7.31425 24.6429 6.59404 23.5443 5.95927L13.7665 0.307418C12.558-0.376176 11.0199 0.063277 11.0199 1.79668L11.0199 5.6541L13.0096 6.64287L13.0096 2.46806C13.0096 2.34599 13.1073 2.28496 13.2172 2.3582L22.5189 7.72929C22.9095 7.96123 23.056 8.13212 23.056 8.65703L23.056 20.0096C23.056 20.0828 23.0438 20.1561 23.0194 20.1927ZM23.8861 26.6258C24.2645 26.992 24.8627 26.992 25.2167 26.6258C25.5829 26.2596 25.5829 25.6614 25.2167 25.2952L1.60828 1.69902C1.24207 1.33281 0.643921 1.33281 0.265503 1.69902C-0.088501 2.05302-0.088501 2.67558 0.265503 3.02959Z" fill="#5ac8f5"/>
 </g>
</svg>
