<?xml version="1.0" encoding="UTF-8"?>
<!--Generator: Apple Native CoreSVG 175.5-->
<!DOCTYPE svg
PUBLIC "-//W3C//DTD SVG 1.1//EN"
       "http://www.w3.org/Graphics/SVG/1.1/DTD/svg11.dtd">
<svg version="1.1" xmlns="http://www.w3.org/2000/svg" xmlns:xlink="http://www.w3.org/1999/xlink" width="22.4731" height="22.4976">
 <g>
  <rect height="22.4976" opacity="0" width="22.4731" x="0" y="0"/>
  <path d="M3.83301 22.4976L18.6401 22.4976C21.2036 22.4976 22.4731 21.228 22.4731 18.7134L22.4731 3.80859C22.4731 1.29395 21.2036 0.0244141 18.6401 0.0244141L3.83301 0.0244141C1.28174 0.0244141 0 1.28174 0 3.80859L0 18.7134C0 21.2402 1.28174 22.4976 3.83301 22.4976Z" fill="#5ac8f5" fill-opacity="0.25"/>
  <path d="M8.76465 16.6504C8.27637 16.6504 8.02002 16.2842 8.02002 15.7959L8.02002 14.3188L4.3457 14.3188C3.71094 14.3188 3.25928 13.916 3.25928 13.2446C3.25928 12.9028 3.34473 12.6221 3.54004 12.2314C4.39453 10.7056 5.66406 8.55713 6.70166 6.78711C7.1167 6.09131 7.56836 5.81055 8.30078 5.81055C9.0332 5.81055 9.5459 6.28662 9.5459 7.01904L9.5459 12.9028L10.2295 12.9028C10.6567 12.9028 10.9375 13.1714 10.9375 13.623C10.9375 14.0625 10.6567 14.3188 10.2295 14.3188L9.5459 14.3188L9.5459 15.7959C9.5459 16.2964 9.28955 16.6504 8.76465 16.6504ZM8.02002 12.9028L8.02002 7.51953L7.94678 7.51953C6.9458 9.22852 5.66406 11.4258 4.91943 12.854L4.91943 12.9028ZM13.0005 16.3818C12.5488 16.3818 12.2681 16.0889 12.2681 15.6372C12.2681 15.3809 12.3413 15.1611 12.5366 14.9536L15.8569 11.0474C16.4551 10.3516 17.1265 9.64355 17.1265 8.82568C17.1265 7.89795 16.4551 7.27539 15.4541 7.27539C14.5508 7.27539 13.9282 7.72705 13.5986 8.6792C13.4277 9.05762 13.2446 9.26514 12.8784 9.26514C12.439 9.26514 12.1704 8.95996 12.1704 8.5083C12.1704 8.36182 12.207 8.21533 12.2314 8.05664C12.561 6.7749 13.8916 5.81055 15.3931 5.81055C17.3706 5.81055 18.6401 6.93359 18.6401 8.69141C18.6401 9.94873 17.9443 10.8521 17.0288 11.9385L14.5508 14.7949L14.5508 14.8926L18.2129 14.8926C18.6157 14.8926 18.9209 15.1489 18.9209 15.625C18.9209 16.0767 18.6157 16.3818 18.2129 16.3818Z" fill="#5ac8f5"/>
 </g>
</svg>
