<?xml version="1.0" encoding="UTF-8"?>
<!--Generator: Apple Native CoreSVG 175.5-->
<!DOCTYPE svg
PUBLIC "-//W3C//DTD SVG 1.1//EN"
       "http://www.w3.org/Graphics/SVG/1.1/DTD/svg11.dtd">
<svg version="1.1" xmlns="http://www.w3.org/2000/svg" xmlns:xlink="http://www.w3.org/1999/xlink" width="24.9023" height="24.9146">
 <g>
  <rect height="24.9146" opacity="0" width="24.9023" x="0" y="0"/>
  <path d="M12.4512 24.9146C19.2627 24.9146 24.9023 19.2749 24.9023 12.4634C24.9023 5.66406 19.2505 0.012207 12.439 0.012207C5.63965 0.012207 0 5.66406 0 12.4634C0 19.2749 5.65186 24.9146 12.4512 24.9146Z" fill="#5ac8f5" fill-opacity="0.25"/>
  <path d="M9.30176 19.6533C8.47168 19.6533 7.99561 19.1895 7.95898 18.3716L7.58057 9.65576L9.70459 11.7798L9.91211 17.3462C9.91211 17.5903 10.0952 17.7612 10.3516 17.7612C10.6201 17.7612 10.7788 17.5903 10.7666 17.3462L10.6079 12.6953L11.9873 14.0625L11.9873 17.3462C11.9873 17.5903 12.1582 17.7612 12.4268 17.7612C12.6953 17.7612 12.8906 17.5903 12.8906 17.3462L12.8906 14.978L14.1235 16.2109L14.0869 17.3462C14.0869 17.5903 14.2334 17.7612 14.5142 17.7612C14.7217 17.7612 14.9048 17.6392 14.9414 17.4316L14.978 17.0654L16.8091 18.8965L16.7725 19.0063C16.6138 19.397 16.1621 19.6533 15.6128 19.6533ZM17.9199 18.6768L6.40869 7.16553C6.18896 6.9458 6.18896 6.5918 6.40869 6.38428C6.61621 6.16455 6.97021 6.16455 7.18994 6.38428L18.689 17.8833C18.9209 18.103 18.9209 18.457 18.689 18.6646C18.4814 18.8965 18.1519 18.8965 17.9199 18.6768ZM17.1021 14.9536L15.1001 12.9395L15.1978 10.2173C15.21 9.96094 15.0391 9.79004 14.7705 9.79004C14.502 9.79004 14.3188 9.96094 14.3188 10.2173L14.2456 12.0972L12.8906 10.7422L12.8906 10.2173C12.8906 9.96094 12.7075 9.79004 12.4268 9.79004C12.3535 9.79004 12.2925 9.81445 12.2437 9.86328L12.2437 10.0952L9.22852 7.08008L9.47266 7.08008C9.47266 6.9458 9.47266 6.82373 9.47266 6.68945C9.47266 5.68848 10.144 5.0415 11.2061 5.0415L13.6719 5.0415C14.7461 5.0415 15.4175 5.68848 15.4175 6.68945L15.4175 7.67822L18.335 7.67822C18.6279 7.67822 18.8843 7.91016 18.8721 8.20312C18.8599 8.48389 18.6279 8.71582 18.335 8.71582L17.3706 8.71582ZM10.7056 7.67822L14.1602 7.67822L14.1602 6.7627C14.1602 6.44531 13.9282 6.22559 13.5986 6.22559L11.2671 6.22559C10.9375 6.22559 10.7056 6.44531 10.7056 6.7627Z" fill="#5ac8f5"/>
 </g>
</svg>
