<?xml version="1.0" encoding="UTF-8"?>
<!--Generator: Apple Native CoreSVG 175.5-->
<!DOCTYPE svg
PUBLIC "-//W3C//DTD SVG 1.1//EN"
       "http://www.w3.org/Graphics/SVG/1.1/DTD/svg11.dtd">
<svg version="1.1" xmlns="http://www.w3.org/2000/svg" xmlns:xlink="http://www.w3.org/1999/xlink" width="16.8213" height="16.2231">
 <g>
  <rect height="16.2231" opacity="0" width="16.8213" x="0" y="0"/>
  <path d="M15.7959 16.2231C16.394 16.2231 16.8213 15.7959 16.8213 15.1245C16.8213 14.563 16.5405 14.2456 16.0278 14.0015L2.88086 8.1543L2.88086 8.02002L16.0278 2.22168C16.5405 1.97754 16.8213 1.66016 16.8213 1.09863C16.8213 0.45166 16.3818 0.012207 15.7471 0.012207C15.4175 0.012207 15.21 0.0976562 14.9658 0.219727L1.24512 6.53076C0.537109 6.84814 0 7.40967 0 8.17871C0 8.95996 0.537109 9.49707 1.24512 9.82666L14.9658 15.9912C15.2222 16.1133 15.4419 16.2231 15.7959 16.2231Z" fill="#5ac8f5"/>
 </g>
</svg>
