<?xml version="1.0" encoding="UTF-8"?>
<!--Generator: Apple Native CoreSVG 175.5-->
<!DOCTYPE svg
PUBLIC "-//W3C//DTD SVG 1.1//EN"
       "http://www.w3.org/Graphics/SVG/1.1/DTD/svg11.dtd">
<svg version="1.1" xmlns="http://www.w3.org/2000/svg" xmlns:xlink="http://www.w3.org/1999/xlink" width="24.8657" height="24.9146">
 <g>
  <rect height="24.9146" opacity="0" width="24.8657" x="0" y="0"/>
  <path d="M16.5527 6.34766C17.6392 4.37012 18.0054 2.53906 17.3462 1.0376C15.8203 0.378418 14.1479 0 12.4023 0C8.8501 0 5.60303 1.55029 3.34473 4.00391C7.72705 2.28271 13.5864 4.01611 16.5527 6.34766ZM11.5967 12.2803C13.2568 10.7666 14.6484 9.24072 15.686 7.73926C12.3291 5.07812 5.34668 3.32031 1.35498 6.79932C0.585938 8.22754 0.109863 9.83887 0 11.5601C2.91748 9.59473 7.73926 10.6689 11.5967 12.2803ZM4.01611 12.0361C2.31934 11.9873 0.878906 12.4023 0 13.4766C0.427246 18.5547 4.01611 22.8394 8.76465 24.3042C6.49414 21.6675 4.11377 17.041 4.01611 12.0361ZM11.0596 13.7939C9.26514 13.0249 7.36084 12.4268 5.61523 12.207C5.84717 18.7012 10.0342 24.1821 12.0483 24.9023C13.6841 24.9268 15.1855 24.6704 16.5161 24.1821C13.5132 22.3999 11.2305 17.5903 11.0596 13.7939ZM18.5913 23.23C22.3145 21.0693 24.8657 17.0166 24.8657 12.4512C24.8657 10.9741 24.585 9.5459 24.0967 8.22754C23.291 11.5234 20.7764 16.333 15.1001 20.6665C16.1255 22.1313 17.3584 23.1323 18.5913 23.23ZM14.27 19.2993C21.4478 13.6841 23.2056 7.55615 22.8516 5.71289C21.875 4.23584 20.6055 2.96631 19.1162 2.00195C19.5679 5.56641 16.5894 9.91211 12.6343 13.4766C12.7075 15.4297 13.3301 17.5293 14.27 19.2993Z" fill="#5ac8f5"/>
 </g>
</svg>
