<?xml version="1.0" encoding="UTF-8"?>
<!--Generator: Apple Native CoreSVG 175.5-->
<!DOCTYPE svg
PUBLIC "-//W3C//DTD SVG 1.1//EN"
       "http://www.w3.org/Graphics/SVG/1.1/DTD/svg11.dtd">
<svg version="1.1" xmlns="http://www.w3.org/2000/svg" xmlns:xlink="http://www.w3.org/1999/xlink" width="35.1812" height="18.2983">
 <g>
  <rect height="18.2983" opacity="0" width="35.1812" x="0" y="0"/>
  <path d="M1.00113 18.2983L2.58804 18.2983C3.32047 18.2983 3.68668 17.9443 3.8942 17.4194L10.6325 0.78125C10.8034 0.378418 10.6081 0.0244141 10.1808 0.0244141L9.38736 0.0244141C8.96011 0.0244141 8.69156 0.231934 8.50845 0.598145L0.146638 16.9434C-0.195159 17.5659 0.0489813 18.2983 1.00113 18.2983ZM32.5929 18.2983L34.192 18.2983C35.132 18.2983 35.3761 17.5659 35.0343 16.9434L26.6847 0.598145C26.4894 0.231934 26.2209 0.0244141 25.7936 0.0244141L25.0002 0.0244141C24.5729 0.0244141 24.3898 0.378418 24.5485 0.78125L31.2868 17.4194C31.4943 17.9443 31.8605 18.2983 32.5929 18.2983Z" fill="#5ac8f5" fill-opacity="0.5"/>
  <path d="M17.5905 17.2363C21.6798 17.2363 25.0734 13.855 25.0734 9.76562C25.0734 5.66406 21.6676 2.28271 17.5783 2.28271C13.5011 2.28271 10.1198 5.66406 10.1198 9.76562C10.1198 13.855 13.5011 17.2363 17.5905 17.2363ZM12.6466 6.46973C13.6964 4.84619 15.4909 3.79639 17.5783 3.79639C19.6657 3.79639 21.4601 4.84619 22.5099 6.45752C22.7541 6.79932 22.6808 7.09229 22.2902 7.09229L12.8664 7.09229C12.5002 7.09229 12.4147 6.79932 12.6466 6.46973ZM17.5783 11.5723C16.7604 11.5723 16.1378 10.9497 16.1378 10.1318C16.1378 9.30176 16.7604 8.6792 17.5783 8.6792C18.4084 8.6792 19.0309 9.30176 19.0309 10.1318C19.0309 10.9497 18.4084 11.5723 17.5783 11.5723ZM11.841 11.3281C11.7433 10.9741 11.8654 10.8765 12.1706 10.9131C14.1847 11.1328 15.6984 12.8662 15.6252 14.9292C15.6252 15.2344 15.4787 15.3687 15.1735 15.21C13.5011 14.4775 12.2926 13.0615 11.841 11.3281ZM23.34 11.3281C22.8761 13.0615 21.6798 14.4775 20.0075 15.21C19.7023 15.3687 19.5436 15.2344 19.5436 14.9292C19.4704 12.8662 20.984 11.1328 22.9982 10.9131C23.2912 10.8643 23.4377 10.9741 23.34 11.3281Z" fill="#5ac8f5"/>
 </g>
</svg>
