<?xml version="1.0" encoding="UTF-8"?>
<!--Generator: Apple Native CoreSVG 175.5-->
<!DOCTYPE svg
PUBLIC "-//W3C//DTD SVG 1.1//EN"
       "http://www.w3.org/Graphics/SVG/1.1/DTD/svg11.dtd">
<svg version="1.1" xmlns="http://www.w3.org/2000/svg" xmlns:xlink="http://www.w3.org/1999/xlink" width="25.0977" height="29.6753">
 <g>
  <rect height="29.6753" opacity="0" width="25.0977" x="0" y="0"/>
  <path d="M9.00879 15.2222L16.0645 15.2222C18.3472 15.2222 19.7021 13.8306 19.7021 11.5479L19.7021 3.67432C19.7021 1.51367 18.3716 0 16.0645 0L9.00879 0C6.75049 0 5.37109 1.40381 5.37109 3.67432L5.37109 11.5479C5.37109 13.8306 6.75049 15.2222 9.00879 15.2222ZM9.21631 13.2568C7.8125 13.2568 7.23877 12.6221 7.23877 11.3159L7.23877 3.93066C7.23877 2.6001 7.8125 1.96533 9.21631 1.96533L15.8569 1.96533C17.2607 1.96533 17.8467 2.6001 17.8467 3.93066L17.8467 11.3159C17.8467 12.6221 17.2607 13.2568 15.8569 13.2568ZM8.02002 20.9229L17.0532 20.9229C18.0176 20.9229 18.7012 20.2637 18.7012 19.3359C18.7012 18.9453 18.4692 18.4448 18.1396 18.0664L15.4663 14.9048L13.0859 14.9048L16.1865 18.6401C16.3086 18.7988 16.2109 18.9575 16.04 18.9575L9.04541 18.9575C8.8623 18.9575 8.76465 18.7988 8.89893 18.6401L11.9995 14.9048L9.60693 14.9048L6.9458 18.0664C6.604 18.457 6.38428 18.9575 6.38428 19.3359C6.38428 20.2637 7.05566 20.9229 8.02002 20.9229ZM1.00098 29.5776L24.0723 29.5776C24.646 29.5776 25.0977 29.126 25.0977 28.5645C25.0977 27.9907 24.646 27.5513 24.0723 27.5513L1.00098 27.5513C0.439453 27.5513 0 27.9907 0 28.5645C0 29.126 0.439453 29.5776 1.00098 29.5776Z" fill="#5ac8f5"/>
 </g>
</svg>
