<?xml version="1.0" encoding="UTF-8"?>
<!--Generator: Apple Native CoreSVG 175.5-->
<!DOCTYPE svg
PUBLIC "-//W3C//DTD SVG 1.1//EN"
       "http://www.w3.org/Graphics/SVG/1.1/DTD/svg11.dtd">
<svg version="1.1" xmlns="http://www.w3.org/2000/svg" xmlns:xlink="http://www.w3.org/1999/xlink" width="28.7842" height="22.4731">
 <g>
  <rect height="22.4731" opacity="0" width="28.7842" x="0" y="0"/>
  <path d="M3.83301 22.4731L24.9512 22.4731C27.5146 22.4731 28.7842 21.2158 28.7842 18.7012L28.7842 3.78418C28.7842 1.26953 27.5146 0 24.9512 0L3.83301 0C1.28174 0 0 1.26953 0 3.78418L0 18.7012C0 21.2158 1.28174 22.4731 3.83301 22.4731ZM3.85742 20.5078C2.63672 20.5078 1.96533 19.8608 1.96533 18.5913L1.96533 3.89404C1.96533 2.62451 2.63672 1.96533 3.85742 1.96533L24.9268 1.96533C26.1353 1.96533 26.8188 2.62451 26.8188 3.89404L26.8188 18.5913C26.8188 19.8608 26.1353 20.5078 24.9268 20.5078Z" fill="#5ac8f5" fill-opacity="0.5"/>
  <path d="M5.46875 16.3696L12.2192 16.3696C13.3911 16.3696 13.9648 15.7959 13.9648 14.6606L13.9648 7.83691C13.9648 6.70166 13.3911 6.12793 12.2192 6.12793L5.46875 6.12793C4.30908 6.12793 3.72314 6.68945 3.72314 7.83691L3.72314 14.6606C3.72314 15.7959 4.30908 16.3696 5.46875 16.3696ZM5.83496 14.7705C5.49316 14.7705 5.32227 14.6118 5.32227 14.2944L5.32227 8.20312C5.32227 7.87354 5.49316 7.72705 5.83496 7.72705L11.853 7.72705C12.1948 7.72705 12.3657 7.88574 12.3657 8.20312L12.3657 14.2944C12.3657 14.6118 12.1948 14.7705 11.853 14.7705ZM20.4102 16.2354C21.2036 16.2354 21.9482 16.1621 22.4243 15.9668C22.7539 15.8325 22.9614 15.625 22.9614 15.3076C22.9614 15.0024 22.7295 14.7583 22.4243 14.7583C22.29 14.7583 22.1924 14.7949 22.0337 14.8193C21.6675 14.8682 21.3013 15.0146 20.5444 15.0146C18.1763 15.0146 16.7114 13.5864 16.7114 11.2671C16.7114 8.98438 18.2007 7.42188 20.3735 7.42188C22.5342 7.42188 23.9868 8.78906 23.9868 10.8154C23.9868 12.0239 23.6206 12.7808 23.0347 12.7808C22.6685 12.7808 22.5342 12.6221 22.5342 12.2681L22.5342 9.24072C22.5342 8.87451 22.2656 8.59375 21.9116 8.59375C21.6553 8.59375 21.3989 8.78906 21.3257 9.0332L21.3257 9.13086C21.0449 8.78906 20.6299 8.59375 20.0562 8.59375C18.7622 8.59375 17.8467 9.7168 17.8467 11.2671C17.8467 12.8662 18.7622 13.9526 20.0928 13.9526C20.6665 13.9526 21.1914 13.6963 21.5332 13.2324C21.8018 13.6963 22.3145 13.9526 22.9248 13.9526C24.292 13.9526 25.1953 12.6831 25.1953 10.7422C25.1953 8.08105 23.2178 6.23779 20.3735 6.23779C17.4316 6.23779 15.4175 8.27637 15.4175 11.2549C15.4175 14.2456 17.4194 16.2354 20.4102 16.2354ZM20.2759 12.7197C19.6167 12.7197 19.2017 12.1704 19.2017 11.2427C19.2017 10.3271 19.6167 9.79004 20.2881 9.79004C20.9473 9.79004 21.3623 10.3271 21.3623 11.2061C21.3623 12.146 20.9473 12.7197 20.2759 12.7197Z" fill="#5ac8f5"/>
 </g>
</svg>
