<?xml version="1.0" encoding="UTF-8"?>
<!--Generator: Apple Native CoreSVG 175.5-->
<!DOCTYPE svg
PUBLIC "-//W3C//DTD SVG 1.1//EN"
       "http://www.w3.org/Graphics/SVG/1.1/DTD/svg11.dtd">
<svg version="1.1" xmlns="http://www.w3.org/2000/svg" xmlns:xlink="http://www.w3.org/1999/xlink" width="22.4731" height="22.4976">
 <g>
  <rect height="22.4976" opacity="0" width="22.4731" x="0" y="0"/>
  <path d="M3.83301 22.4976L18.6401 22.4976C21.2036 22.4976 22.4731 21.228 22.4731 18.7134L22.4731 3.80859C22.4731 1.29395 21.2036 0.0244141 18.6401 0.0244141L3.83301 0.0244141C1.28174 0.0244141 0 1.28174 0 3.80859L0 18.7134C0 21.2402 1.28174 22.4976 3.83301 22.4976ZM7.99561 18.6646C7.14111 18.6646 6.64062 18.1885 6.61621 17.334L6.17676 7.38525L5.15137 7.38525C4.8584 7.38525 4.61426 7.15332 4.61426 6.86035C4.61426 6.55518 4.8584 6.31104 5.15137 6.31104L8.17871 6.31104L8.17871 5.29785C8.17871 4.24805 8.8623 3.58887 9.97314 3.58887L12.5122 3.58887C13.6108 3.58887 14.3188 4.24805 14.3188 5.29785L14.3188 6.31104L17.3218 6.31104C17.627 6.31104 17.8711 6.55518 17.8589 6.86035C17.8467 7.15332 17.627 7.38525 17.3218 7.38525L16.333 7.38525L15.9058 17.334C15.8691 18.1885 15.3442 18.6646 14.502 18.6646ZM9.08203 16.7114C9.36279 16.7114 9.52148 16.5283 9.52148 16.2842L9.27734 8.93555C9.27734 8.65479 9.08203 8.49609 8.82568 8.49609C8.53271 8.49609 8.36182 8.66699 8.36182 8.93555L8.61816 16.2842C8.61816 16.5283 8.82568 16.7114 9.08203 16.7114ZM11.2305 16.7114C11.5112 16.7114 11.6943 16.5283 11.6943 16.2842L11.6943 8.93555C11.6943 8.66699 11.5112 8.49609 11.2305 8.49609C10.9375 8.49609 10.7666 8.66699 10.7666 8.93555L10.7666 16.2842C10.7666 16.5283 10.9497 16.7114 11.2305 16.7114ZM13.3667 16.7114C13.623 16.7114 13.8306 16.5283 13.8306 16.2842L14.0869 8.93555C14.0869 8.66699 13.9282 8.49609 13.6353 8.49609C13.3667 8.49609 13.1836 8.65479 13.1714 8.93555L12.9272 16.2842C12.9272 16.5283 13.0981 16.7114 13.3667 16.7114ZM9.46045 6.31104L13.0005 6.31104L13.0005 5.35889C13.0005 5.0293 12.7686 4.82178 12.4268 4.82178L10.0342 4.82178C9.69238 4.82178 9.46045 5.0293 9.46045 5.35889Z" fill="#5ac8f5"/>
 </g>
</svg>
