<?xml version="1.0" encoding="UTF-8"?>
<!--Generator: Apple Native CoreSVG 175.5-->
<!DOCTYPE svg
PUBLIC "-//W3C//DTD SVG 1.1//EN"
       "http://www.w3.org/Graphics/SVG/1.1/DTD/svg11.dtd">
<svg version="1.1" xmlns="http://www.w3.org/2000/svg" xmlns:xlink="http://www.w3.org/1999/xlink" width="34.1156" height="30.9937">
 <g>
  <rect height="30.9937" opacity="0" width="34.1156" x="0" y="0"/>
  <path d="M15.4907 26.2085C21.4111 26.2085 26.2207 21.4111 26.2207 15.4907C26.2207 9.57031 21.4111 4.76074 15.4907 4.76074C9.57031 4.76074 4.76074 9.57031 4.76074 15.4907C4.76074 21.4111 9.57031 26.2085 15.4907 26.2085ZM15.4907 24.2432C10.6567 24.2432 6.72607 20.3247 6.72607 15.4907C6.72607 10.6567 10.6567 6.72607 15.4907 6.72607C20.3247 6.72607 24.2554 10.6567 24.2554 15.4907C24.2554 20.3247 20.3247 24.2432 15.4907 24.2432ZM15.4907 0C6.93359 0 0 6.93359 0 15.4907C0 24.0479 6.93359 30.9814 15.4907 30.9814C22.3022 30.9814 28.0884 26.5747 30.1636 20.459C29.4556 20.5566 28.772 20.3613 28.2593 19.9463C26.416 25.2319 21.3989 29.0161 15.4907 29.0161C8.02002 29.0161 1.96533 22.9614 1.96533 15.4907C1.96533 8.02002 8.02002 1.96533 15.4907 1.96533C21.4111 1.96533 26.4282 5.76172 28.2593 11.0596C28.7842 10.6323 29.4678 10.4492 30.1758 10.5469C28.1128 4.41895 22.3145 0 15.4907 0ZM30.5054 12.4146C29.834 11.9019 29.0161 12.207 29.0161 13.0493L29.0161 17.9443C29.0161 18.811 29.8584 19.0674 30.5054 18.5791L33.7769 16.1377C34.2285 15.8081 34.2285 15.1855 33.7769 14.856ZM12.5244 20.8008C13.1348 20.8008 13.4644 20.4102 13.4644 19.7754L13.4644 16.8823L15.625 16.8823L17.6392 20.1904C17.9077 20.6421 18.1519 20.8008 18.5547 20.8008C19.0552 20.8008 19.397 20.4834 19.397 20.0195C19.397 19.7632 19.3359 19.5679 19.1895 19.3481L17.4438 16.6138C18.811 16.1621 19.6899 14.9536 19.6899 13.5132C19.6899 11.4258 18.2007 10.0952 15.8447 10.0952L12.5244 10.0952C11.9263 10.0952 11.6089 10.5225 11.6089 11.145L11.6089 19.7754C11.6089 20.3857 11.9263 20.8008 12.5244 20.8008ZM13.4644 15.5273L13.4644 11.5112L15.625 11.5112C16.9556 11.5112 17.8589 12.2559 17.8589 13.562C17.8589 14.8193 16.98 15.5273 15.5762 15.5273Z" fill="#5ac8f5"/>
 </g>
</svg>
