<?xml version="1.0" encoding="UTF-8"?>
<!--Generator: Apple Native CoreSVG 175.5-->
<!DOCTYPE svg
PUBLIC "-//W3C//DTD SVG 1.1//EN"
       "http://www.w3.org/Graphics/SVG/1.1/DTD/svg11.dtd">
<svg version="1.1" xmlns="http://www.w3.org/2000/svg" xmlns:xlink="http://www.w3.org/1999/xlink" width="22.4731" height="22.4976">
 <g>
  <rect height="22.4976" opacity="0" width="22.4731" x="0" y="0"/>
  <path d="M3.83301 22.4976L18.6401 22.4976C21.2036 22.4976 22.4731 21.228 22.4731 18.7134L22.4731 3.80859C22.4731 1.29395 21.2036 0.0244141 18.6401 0.0244141L3.83301 0.0244141C1.28174 0.0244141 0 1.28174 0 3.80859L0 18.7134C0 21.2402 1.28174 22.4976 3.83301 22.4976Z" fill="#5ac8f5" fill-opacity="0.25"/>
  <path d="M7.08008 16.6748C5.37109 16.6748 4.02832 15.625 3.69873 14.4653C3.66211 14.3066 3.62549 14.1724 3.62549 14.0015C3.62549 13.562 3.93066 13.2446 4.37012 13.2446C4.72412 13.2446 4.93164 13.4399 5.09033 13.8428C5.41992 14.7217 6.10352 15.21 7.09229 15.21C8.30078 15.21 9.14307 14.4775 9.14307 13.501C9.14307 12.4756 8.37402 11.8042 7.17773 11.8042L6.44531 11.8042C6.03027 11.8042 5.74951 11.4868 5.74951 11.084C5.74951 10.6201 6.04248 10.3271 6.44531 10.3271L7.1167 10.3271C8.12988 10.3271 8.82568 9.66797 8.82568 8.75244C8.82568 7.87354 8.12988 7.27539 7.12891 7.27539C6.15234 7.27539 5.5542 7.76367 5.27344 8.64258C5.15137 9.04541 4.94385 9.24072 4.56543 9.24072C4.12598 9.24072 3.84521 8.92334 3.84521 8.47168C3.84521 8.31299 3.84521 8.17871 3.88184 8.02002C4.21143 6.78711 5.46875 5.81055 7.16553 5.81055C9.04541 5.81055 10.3882 6.93359 10.3882 8.54492C10.3882 9.729 9.57031 10.7788 8.52051 10.9497L8.52051 11.0229C9.79004 11.1572 10.7178 12.2314 10.7178 13.5742C10.7178 15.3809 9.22852 16.6748 7.08008 16.6748ZM15.5151 16.6748C13.9404 16.6748 12.6953 15.8447 12.3291 14.7949C12.2559 14.624 12.2192 14.4287 12.2192 14.2212C12.2192 13.8062 12.5 13.4888 12.9272 13.4888C13.2202 13.4888 13.4644 13.6719 13.6597 14.0381C14.0137 14.7949 14.7583 15.2466 15.6006 15.2466C16.8213 15.2466 17.6514 14.4531 17.6514 13.1348C17.6514 11.9751 16.8945 11.0962 15.7959 11.0962C15.2466 11.0962 14.8438 11.2793 14.3311 11.731C13.9282 12.0605 13.6841 12.1704 13.2935 12.1704C12.7197 12.1704 12.3657 11.731 12.4023 11.0718L12.7197 7.15332C12.7563 6.48193 13.1958 6.0791 13.855 6.0791L18.1885 6.0791C18.5547 6.0791 18.8232 6.38428 18.8232 6.78711C18.8232 7.20215 18.5425 7.49512 18.1885 7.49512L14.0259 7.49512L13.7817 10.73L13.8428 10.73C14.2212 10.1562 15.1123 9.74121 15.9546 9.74121C17.9077 9.74121 19.2261 11.1572 19.2261 13.0981C19.2261 15.3076 17.749 16.6748 15.5151 16.6748Z" fill="#5ac8f5"/>
 </g>
</svg>
