<?xml version="1.0" encoding="UTF-8"?>
<!--Generator: Apple Native CoreSVG 175.5-->
<!DOCTYPE svg
PUBLIC "-//W3C//DTD SVG 1.1//EN"
       "http://www.w3.org/Graphics/SVG/1.1/DTD/svg11.dtd">
<svg version="1.1" xmlns="http://www.w3.org/2000/svg" xmlns:xlink="http://www.w3.org/1999/xlink" width="22.4731" height="22.4976">
 <g>
  <rect height="22.4976" opacity="0" width="22.4731" x="0" y="0"/>
  <path d="M3.83301 22.4976L18.6401 22.4976C21.2036 22.4976 22.4731 21.228 22.4731 18.7134L22.4731 3.80859C22.4731 1.29395 21.2036 0.0244141 18.6401 0.0244141L3.83301 0.0244141C1.28174 0.0244141 0 1.28174 0 3.80859L0 18.7134C0 21.2402 1.28174 22.4976 3.83301 22.4976Z" fill="#5ac8f5" fill-opacity="0.25"/>
  <path d="M6.98242 6.70166L15.4907 6.70166C16.2964 6.70166 16.6504 7.00684 17.0166 7.48291L19.2505 10.4004C19.6411 10.9009 19.6411 11.5479 19.2505 12.0605L17.0166 15.0024C16.6504 15.4785 16.1743 15.7715 15.4907 15.7715L6.98242 15.7715C6.29883 15.7715 5.82275 15.4785 5.45654 15.0024L3.22266 12.0605C2.83203 11.5479 2.83203 10.9009 3.22266 10.4004L5.45654 7.48291C5.82275 7.00684 6.17676 6.70166 6.98242 6.70166ZM6.70166 9.99756C6.03027 9.99756 5.45654 10.5713 5.45654 11.2427C5.45654 11.9141 6.03027 12.4756 6.70166 12.4756C7.37305 12.4756 7.94678 11.9141 7.94678 11.2427C7.94678 10.5713 7.37305 9.99756 6.70166 9.99756ZM11.2427 11.5234C10.5591 11.5234 9.99756 12.0972 9.99756 12.7686C9.99756 13.4399 10.5591 14.0137 11.2427 14.0137C11.9141 14.0137 12.4756 13.4399 12.4756 12.7686C12.4756 12.0972 11.9141 11.5234 11.2427 11.5234ZM15.7715 9.99756C15.1001 9.99756 14.5386 10.5713 14.5386 11.2427C14.5386 11.9141 15.1001 12.4756 15.7715 12.4756C16.4429 12.4756 17.0166 11.9141 17.0166 11.2427C17.0166 10.5713 16.4429 9.99756 15.7715 9.99756Z" fill="#5ac8f5"/>
 </g>
</svg>
