<?xml version="1.0" encoding="UTF-8"?>
<!--Generator: Apple Native CoreSVG 175.5-->
<!DOCTYPE svg
PUBLIC "-//W3C//DTD SVG 1.1//EN"
       "http://www.w3.org/Graphics/SVG/1.1/DTD/svg11.dtd">
<svg version="1.1" xmlns="http://www.w3.org/2000/svg" xmlns:xlink="http://www.w3.org/1999/xlink" width="29.895" height="14.5386">
 <g>
  <rect height="14.5386" opacity="0" width="29.895" x="0" y="0"/>
  <path d="M23.999 10.3027C24.8413 10.2783 25.5493 9.58252 25.5493 8.74023C25.5493 7.88574 24.8413 7.16553 23.999 7.16553C23.1689 7.16553 22.4487 7.88574 22.4487 8.74023C22.4487 9.58252 23.1689 10.3149 23.999 10.3027ZM3.83301 14.4043L26.062 14.4043C28.6133 14.4043 29.895 13.1348 29.895 10.6201L29.895 3.77197C29.895 1.26953 28.6133 0 26.062 0L3.83301 0C1.26953 0 0 1.25732 0 3.77197L0 10.6201C0 13.147 1.26953 14.4043 3.83301 14.4043ZM3.85742 12.439C2.63672 12.439 1.96533 11.792 1.96533 10.5225L1.96533 3.88184C1.96533 2.6123 2.63672 1.96533 3.85742 1.96533L26.0376 1.96533C27.2461 1.96533 27.9297 2.6123 27.9297 3.88184L27.9297 10.5225C27.9297 11.792 27.2461 12.439 26.0376 12.439ZM28.7842 5.51758L28.7842 3.91846L1.13525 3.91846L1.13525 5.51758Z" fill="#5ac8f5"/>
 </g>
</svg>
