<?xml version="1.0" encoding="UTF-8"?>
<!--Generator: Apple Native CoreSVG 175.5-->
<!DOCTYPE svg
PUBLIC "-//W3C//DTD SVG 1.1//EN"
       "http://www.w3.org/Graphics/SVG/1.1/DTD/svg11.dtd">
<svg version="1.1" xmlns="http://www.w3.org/2000/svg" xmlns:xlink="http://www.w3.org/1999/xlink" width="24.9023" height="24.9146">
 <g>
  <rect height="24.9146" opacity="0" width="24.9023" x="0" y="0"/>
  <path d="M12.4512 24.9146C19.2627 24.9146 24.9023 19.2749 24.9023 12.4634C24.9023 5.66406 19.2505 0.012207 12.439 0.012207C5.63965 0.012207 0 5.66406 0 12.4634C0 19.2749 5.65186 24.9146 12.4512 24.9146ZM5.5542 16.6504L5.5542 13.2935C5.5542 12.3291 5.74951 11.7676 6.29883 11.0718L6.79932 10.437C7.01904 9.375 7.38525 8.27637 7.59277 7.84912C7.91016 7.18994 8.5083 6.79932 9.27734 6.70166C9.68018 6.65283 10.9497 6.61621 12.4634 6.61621C13.9648 6.61621 15.2466 6.65283 15.6372 6.70166C16.4185 6.81152 17.0166 7.18994 17.3218 7.84912C17.5293 8.27637 17.8955 9.375 18.1274 10.437L18.6157 11.0718C19.165 11.7676 19.3604 12.3291 19.3604 13.2935L19.3604 16.6504C19.3604 17.0776 19.0186 17.4194 18.5913 17.4194L17.8955 17.4194C17.4561 17.4194 17.1143 17.0776 17.1143 16.6504L17.1143 15.686C15.8203 15.7593 13.9648 15.8081 12.4634 15.8081C10.9619 15.8081 9.09424 15.7593 7.80029 15.686L7.80029 16.6504C7.80029 17.0776 7.4585 17.4194 7.03125 17.4194L6.33545 17.4194C5.896 17.4194 5.5542 17.0776 5.5542 16.6504ZM8.28857 9.8877C8.23975 10.0708 8.31299 10.1562 8.53271 10.144C9.43604 10.0708 10.498 10.022 12.4634 10.022C14.4165 10.022 15.4907 10.0708 16.3818 10.144C16.6016 10.1562 16.687 10.0708 16.626 9.8877C16.5039 9.27734 16.2476 8.49609 16.0767 8.20312C15.9058 7.93457 15.7593 7.82471 15.4541 7.78809C15.0391 7.71484 14.1113 7.70264 12.4634 7.70264C10.8032 7.70264 9.87549 7.72705 9.47266 7.78809C9.16748 7.82471 9.00879 7.93457 8.8501 8.20312C8.6792 8.5083 8.42285 9.27734 8.28857 9.8877ZM7.31201 13.3057C7.31201 13.8306 7.72705 14.2456 8.25195 14.2456C8.77686 14.2456 9.19189 13.8306 9.19189 13.3057C9.19189 12.7808 8.77686 12.3779 8.25195 12.3779C7.72705 12.3779 7.31201 12.7808 7.31201 13.3057ZM10.2417 13.3423C10.2417 13.7451 10.5225 14.0259 10.9253 14.0259L14.0015 14.0259C14.3921 14.0259 14.6729 13.7451 14.6729 13.3423C14.6729 12.9517 14.3921 12.6709 14.0015 12.6709L10.9253 12.6709C10.5225 12.6709 10.2417 12.9517 10.2417 13.3423ZM15.7349 13.3057C15.7349 13.8306 16.1377 14.2456 16.6626 14.2456C17.1997 14.2456 17.6147 13.8306 17.6147 13.3057C17.6147 12.7808 17.1997 12.3779 16.6626 12.3779C16.1377 12.3779 15.7349 12.7808 15.7349 13.3057Z" fill="#5ac8f5"/>
 </g>
</svg>
