<?xml version="1.0" encoding="UTF-8"?>
<!--Generator: Apple Native CoreSVG 175.5-->
<!DOCTYPE svg
PUBLIC "-//W3C//DTD SVG 1.1//EN"
       "http://www.w3.org/Graphics/SVG/1.1/DTD/svg11.dtd">
<svg version="1.1" xmlns="http://www.w3.org/2000/svg" xmlns:xlink="http://www.w3.org/1999/xlink" width="24.9023" height="24.9146">
 <g>
  <rect height="24.9146" opacity="0" width="24.9023" x="0" y="0"/>
  <path d="M12.4512 24.9023C19.2627 24.9023 24.9023 19.2505 24.9023 12.4512C24.9023 5.63965 19.2505 0 12.439 0C5.63965 0 0 5.63965 0 12.4512C0 19.2505 5.65186 24.9023 12.4512 24.9023ZM12.4512 22.8271C6.68945 22.8271 2.0874 18.2129 2.0874 12.4512C2.0874 6.68945 6.67725 2.0752 12.439 2.0752C18.2007 2.0752 22.8271 6.68945 22.8271 12.4512C22.8271 18.2129 18.2129 22.8271 12.4512 22.8271ZM8.58154 17.981L15.9912 17.981C16.4307 17.981 16.7358 17.7002 16.7358 17.2607C16.7358 16.8335 16.4307 16.5527 15.9912 16.5527L10.7056 16.5527C11.3281 16.0156 11.7554 15.0391 11.7554 14.0015C11.7554 13.5742 11.7065 13.1958 11.6211 12.8418L14.6729 12.8418C15.0635 12.8418 15.3442 12.5854 15.3442 12.1826C15.3442 11.792 15.0635 11.5356 14.6729 11.5356L11.3037 11.5356C11.1938 11.0718 11.0962 10.5713 11.0962 9.98535C11.0962 8.66699 12.0361 7.76367 13.6353 7.76367C14.6851 7.76367 15.1733 8.04443 15.5151 8.04443C15.9668 8.04443 16.1743 7.78809 16.1743 7.39746C16.1743 7.06787 16.0156 6.81152 15.5518 6.64062C14.9902 6.4209 14.3066 6.32324 13.5498 6.32324C11.0352 6.32324 9.49707 7.78809 9.49707 10.083C9.49707 10.5713 9.58252 11.0596 9.70459 11.5356L8.58154 11.5356C8.19092 11.5356 7.89795 11.792 7.89795 12.1826C7.89795 12.5854 8.19092 12.8418 8.58154 12.8418L10.022 12.8418C10.1318 13.2568 10.2051 13.6719 10.2051 14.0625C10.2051 15.3564 9.41162 16.2109 8.49609 16.4673C8.04443 16.6138 7.86133 16.8457 7.86133 17.2607C7.86133 17.688 8.14209 17.981 8.58154 17.981Z" fill="#5ac8f5"/>
 </g>
</svg>
