<?xml version="1.0" encoding="UTF-8"?>
<!--Generator: Apple Native CoreSVG 175.5-->
<!DOCTYPE svg
PUBLIC "-//W3C//DTD SVG 1.1//EN"
       "http://www.w3.org/Graphics/SVG/1.1/DTD/svg11.dtd">
<svg version="1.1" xmlns="http://www.w3.org/2000/svg" xmlns:xlink="http://www.w3.org/1999/xlink" width="22.11" height="25.8667">
 <g>
  <rect height="25.8667" opacity="0" width="22.11" x="0" y="0"/>
  <path d="M6.52771 25.8545L15.5975 25.8545C17.0746 25.8545 18.1366 25.1587 18.5883 23.9746L18.5883 23.9136L16.2689 21.6064L16.2689 21.7163L5.17273 21.7163L5.17273 10.5225L3.2074 8.55713L3.2074 22.6807C3.2074 24.585 4.53796 25.8545 6.52771 25.8545ZM11.0687 24.646C10.4828 24.646 10.0067 24.1699 10.0067 23.584C10.0067 23.0103 10.4828 22.5342 11.0687 22.5342C11.6425 22.5342 12.1185 23.0103 12.1185 23.584C12.1185 24.1699 11.6425 24.646 11.0687 24.646ZM18.9178 17.4438L18.9178 3.17383C18.9178 1.26953 17.5873 0 15.5975 0L6.52771 0C5.01404 0 3.92761 0.720215 3.50037 1.95312L3.50037 2.02637L5.70984 4.23584L5.70984 4.13818L16.9403 4.13818L16.9403 15.4785ZM11.0687 2.7832C10.6659 2.7832 10.3485 2.45361 10.3485 2.05078C10.3485 1.66016 10.6659 1.34277 11.0687 1.34277C11.4716 1.34277 11.7767 1.66016 11.7767 2.05078C11.7767 2.45361 11.4716 2.7832 11.0687 2.7832ZM20.5048 23.7549C20.871 24.1333 21.4813 24.1211 21.8353 23.7549C22.2015 23.4009 22.2015 22.8027 21.8353 22.4243L1.60828 2.20947C1.24207 1.84326 0.643921 1.83105 0.265503 2.20947C-0.088501 2.56348-0.088501 3.18604 0.265503 3.54004Z" fill="#5ac8f5"/>
 </g>
</svg>
