<?xml version="1.0" encoding="UTF-8"?>
<!--Generator: Apple Native CoreSVG 175.5-->
<!DOCTYPE svg
PUBLIC "-//W3C//DTD SVG 1.1//EN"
       "http://www.w3.org/Graphics/SVG/1.1/DTD/svg11.dtd">
<svg version="1.1" xmlns="http://www.w3.org/2000/svg" xmlns:xlink="http://www.w3.org/1999/xlink" width="30.0019" height="21.0571">
 <g>
  <rect height="21.0571" opacity="0" width="30.0019" x="0" y="0"/>
  <path d="M29.0498 1.9165C29.5625 1.9043 30.0019 1.47705 30.0019 0.964355C30.0019 0.463867 29.5747 0.012207 29.0498 0.012207L5.46577 0C4.94087 0 4.51362 0.45166 4.51362 0.964355C4.51362 1.47705 4.95308 1.9043 5.46577 1.9043ZM17.27 10.3638C22.7875 10.3638 26.5717 6.53076 26.5351 0.98877L24.643 0.98877C24.6796 5.40771 21.6645 8.45947 17.27 8.45947C12.8632 8.45947 9.8481 5.40771 9.88472 0.98877L7.99263 0.98877C7.95601 6.53076 11.728 10.3638 17.27 10.3638ZM10.5073 20.6299L19.3696 11.7554C18.2954 11.9507 17.8193 11.9141 16.5498 11.9141L9.1523 19.2871C8.76167 19.6777 8.76167 20.2271 9.1523 20.6299C9.55513 21.0205 10.1044 21.0205 10.5073 20.6299ZM7.55317 17.6758L13.7788 11.438C13.1074 11.2427 12.4482 10.9863 11.8623 10.6689L6.19819 16.3208C5.81978 16.7236 5.80757 17.2607 6.19819 17.6758C6.60103 18.0664 7.15034 18.0664 7.55317 17.6758ZM4.59907 14.7217L9.94575 9.36279C9.46968 8.94775 9.04243 8.47168 8.65181 7.95898L3.24409 13.3667C2.86567 13.7695 2.84126 14.3188 3.23189 14.7095C3.64692 15.1123 4.19624 15.1367 4.59907 14.7217ZM1.63276 11.7676L7.4311 5.96924C7.15034 5.33447 6.93062 4.66309 6.77192 3.93066L0.289991 10.4126C-0.0884272 10.8154-0.100634 11.3647 0.277784 11.7554C0.692823 12.1582 1.22993 12.1704 1.63276 11.7676Z" fill="#5ac8f5"/>
 </g>
</svg>
