<?xml version="1.0" encoding="UTF-8"?>
<!--Generator: Apple Native CoreSVG 175.5-->
<!DOCTYPE svg
PUBLIC "-//W3C//DTD SVG 1.1//EN"
       "http://www.w3.org/Graphics/SVG/1.1/DTD/svg11.dtd">
<svg version="1.1" xmlns="http://www.w3.org/2000/svg" xmlns:xlink="http://www.w3.org/1999/xlink" width="34.8389" height="23.8159">
 <g>
  <rect height="23.8159" opacity="0" width="34.8389" x="0" y="0"/>
  <path d="M17.4194 23.8037C23.9258 23.8037 29.3335 18.4082 29.3335 11.9019C29.3335 5.39551 23.9258 0 17.4072 0C10.9009 0 5.51758 5.3833 5.51758 11.9019C5.51758 18.4082 10.9131 23.8037 17.4194 23.8037ZM17.4194 21.7285C11.9751 21.7285 7.60498 17.3584 7.60498 11.9019C7.60498 6.43311 11.9629 2.06299 17.4072 2.06299C22.8638 2.06299 27.2461 6.43311 27.2583 11.9019C27.2705 17.3462 22.8882 21.7285 17.4194 21.7285ZM1.84326 6.92139C2.40479 7.08008 2.91748 6.82373 3.14941 6.26221C3.6377 5.0415 4.27246 3.88184 5.0415 2.83203C5.39551 2.36816 5.34668 1.77002 4.89502 1.3916C4.40674 1.00098 3.75977 1.06201 3.38135 1.57471C2.47803 2.7832 1.74561 4.12598 1.19629 5.54199C0.952148 6.15234 1.25732 6.72607 1.84326 6.92139ZM1.44043 15.3687C2.01416 15.2466 2.34375 14.7461 2.2583 14.1479C2.13623 13.4277 2.0874 12.6587 2.0874 11.9019C2.0874 11.1206 2.13623 10.376 2.2583 9.63135C2.34375 9.04541 2.01416 8.55713 1.42822 8.42285C0.842285 8.30078 0.292969 8.64258 0.195312 9.28955C0.0610352 10.1562 0 11.0229 0 11.9019C0 12.793 0.0610352 13.6597 0.195312 14.5142C0.292969 15.1489 0.854492 15.5029 1.44043 15.3687ZM4.89502 22.3999C5.34668 22.0093 5.39551 21.4233 5.0415 20.9473C4.27246 19.8975 3.6377 18.7378 3.14941 17.5171C2.91748 16.9556 2.40479 16.6992 1.84326 16.8701C1.25732 17.0654 0.952148 17.627 1.19629 18.2373C1.74561 19.6533 2.47803 20.9961 3.38135 22.2046C3.75977 22.7295 4.40674 22.7905 4.89502 22.3999ZM32.9956 6.92139C33.5815 6.72607 33.8867 6.15234 33.6548 5.54199C33.1055 4.12598 32.373 2.7832 31.4575 1.57471C31.0791 1.06201 30.4321 1.00098 29.9438 1.3916C29.4922 1.77002 29.4556 2.36816 29.7974 2.83203C30.5786 3.88184 31.2134 5.0415 31.7017 6.26221C31.9214 6.82373 32.4463 7.08008 32.9956 6.92139ZM33.3984 15.3687C33.9966 15.5029 34.5581 15.1489 34.6436 14.5142C34.7778 13.6597 34.8389 12.793 34.8389 11.9019C34.8389 11.0229 34.7778 10.1562 34.6436 9.28955C34.5581 8.64258 34.0088 8.30078 33.4106 8.42285C32.8247 8.55713 32.5073 9.04541 32.5806 9.63135C32.7026 10.376 32.7515 11.1206 32.7515 11.9019C32.7515 12.6587 32.7026 13.4277 32.5806 14.1479C32.5073 14.7461 32.8247 15.2466 33.3984 15.3687ZM29.9438 22.3999C30.4321 22.7905 31.0791 22.7295 31.4575 22.2046C32.373 20.9961 33.1055 19.6533 33.6548 18.2373C33.8867 17.627 33.5815 17.0654 32.9956 16.8701C32.4463 16.6992 31.9214 16.9556 31.7017 17.5171C31.2134 18.7378 30.5786 19.8975 29.7974 20.9473C29.4556 21.4233 29.4922 22.0093 29.9438 22.3999Z" fill="#5ac8f5"/>
 </g>
</svg>
