<?xml version="1.0" encoding="UTF-8"?>
<!--Generator: Apple Native CoreSVG 175.5-->
<!DOCTYPE svg
PUBLIC "-//W3C//DTD SVG 1.1//EN"
       "http://www.w3.org/Graphics/SVG/1.1/DTD/svg11.dtd">
<svg version="1.1" xmlns="http://www.w3.org/2000/svg" xmlns:xlink="http://www.w3.org/1999/xlink" width="22.4731" height="22.4976">
 <g>
  <rect height="22.4976" opacity="0" width="22.4731" x="0" y="0"/>
  <path d="M3.83301 22.4976L18.6401 22.4976C21.2036 22.4976 22.4731 21.228 22.4731 18.7134L22.4731 3.80859C22.4731 1.29395 21.2036 0.0244141 18.6401 0.0244141L3.83301 0.0244141C1.28174 0.0244141 0 1.28174 0 3.80859L0 18.7134C0 21.2402 1.28174 22.4976 3.83301 22.4976ZM3.85742 20.5322C2.63672 20.5322 1.96533 19.8853 1.96533 18.6157L1.96533 3.90625C1.96533 2.63672 2.63672 1.98975 3.85742 1.98975L18.6157 1.98975C19.8242 1.98975 20.5078 2.63672 20.5078 3.90625L20.5078 18.6157C20.5078 19.8853 19.8242 20.5322 18.6157 20.5322Z" fill="#5ac8f5" fill-opacity="0.5"/>
  <path d="M11.2671 3.6499C10.9985 3.6499 10.7788 3.77197 10.5469 4.00391L7.01904 7.51953C6.86035 7.67822 6.7627 7.89795 6.7627 8.1543C6.7627 8.65479 7.15332 9.0332 7.65381 9.0332C7.92236 9.0332 8.14209 8.93555 8.31299 8.76465L9.21631 7.83691L10.4492 6.35986L10.3516 8.94775L10.3516 13.5376L10.4492 16.1255L9.21631 14.6484L8.31299 13.7207C8.14209 13.5376 7.92236 13.4521 7.65381 13.4521C7.15332 13.4521 6.7627 13.8306 6.7627 14.3311C6.7627 14.5752 6.86035 14.8071 7.01904 14.9658L10.5469 18.4814C10.7788 18.7134 10.9985 18.8354 11.2671 18.8354C11.5234 18.8354 11.731 18.7134 11.9751 18.4814L15.5151 14.9658C15.6738 14.8071 15.7593 14.5752 15.7593 14.3311C15.7593 13.8306 15.3809 13.4521 14.8804 13.4521C14.6118 13.4521 14.3921 13.5498 14.2334 13.7207L13.3179 14.6484L12.085 16.1133L12.1826 13.5376L12.1826 8.94775L12.085 6.37207L13.3179 7.83691L14.2334 8.76465C14.3921 8.92334 14.6118 9.0332 14.8804 9.0332C15.3809 9.0332 15.7593 8.65479 15.7593 8.1543C15.7593 7.89795 15.6738 7.67822 15.5151 7.51953L11.9751 4.00391C11.731 3.77197 11.5234 3.6499 11.2671 3.6499Z" fill="#5ac8f5"/>
 </g>
</svg>
