<?xml version="1.0" encoding="UTF-8"?>
<!--Generator: Apple Native CoreSVG 175.5-->
<!DOCTYPE svg
PUBLIC "-//W3C//DTD SVG 1.1//EN"
       "http://www.w3.org/Graphics/SVG/1.1/DTD/svg11.dtd">
<svg version="1.1" xmlns="http://www.w3.org/2000/svg" xmlns:xlink="http://www.w3.org/1999/xlink" width="24.9023" height="24.9146">
 <g>
  <rect height="24.9146" opacity="0" width="24.9023" x="0" y="0"/>
  <path d="M12.4512 24.9023C19.2627 24.9023 24.9023 19.2505 24.9023 12.4512C24.9023 5.63965 19.2505 0 12.439 0C5.63965 0 0 5.63965 0 12.4512C0 19.2505 5.65186 24.9023 12.4512 24.9023ZM12.4512 22.8271C6.68945 22.8271 2.0874 18.2129 2.0874 12.4512C2.0874 6.68945 6.67725 2.0752 12.439 2.0752C18.2007 2.0752 22.8271 6.68945 22.8271 12.4512C22.8271 18.2129 18.2129 22.8271 12.4512 22.8271ZM12.439 19.0063C16.0034 19.0063 18.9819 16.0278 18.9819 12.4634C18.9819 8.91113 15.9912 5.92041 12.439 5.92041C8.87451 5.92041 5.9082 8.89893 5.9082 12.4634C5.9082 16.0156 8.88672 19.0063 12.439 19.0063ZM12.439 17.1021C9.92432 17.1021 7.8125 14.9902 7.8125 12.4634C7.8125 9.92432 9.8999 7.82471 12.439 7.82471C14.9658 7.82471 17.0654 9.93652 17.0654 12.4634C17.0654 15.0024 14.978 17.1021 12.439 17.1021Z" fill="#5ac8f5"/>
 </g>
</svg>
