<?xml version="1.0" encoding="UTF-8"?>
<!--Generator: Apple Native CoreSVG 175.5-->
<!DOCTYPE svg
PUBLIC "-//W3C//DTD SVG 1.1//EN"
       "http://www.w3.org/Graphics/SVG/1.1/DTD/svg11.dtd">
<svg version="1.1" xmlns="http://www.w3.org/2000/svg" xmlns:xlink="http://www.w3.org/1999/xlink" width="24.9023" height="24.9146">
 <g>
  <rect height="24.9146" opacity="0" width="24.9023" x="0" y="0"/>
  <path d="M12.4512 24.9023C19.2627 24.9023 24.9023 19.2505 24.9023 12.4512C24.9023 5.63965 19.2505 0 12.439 0C5.63965 0 0 5.63965 0 12.4512C0 19.2505 5.65186 24.9023 12.4512 24.9023ZM3.86963 6.70166C5.66406 3.91846 8.82568 2.0752 12.4268 2.0752C16.0278 2.0752 19.1895 3.91846 20.9961 6.68945C21.4966 7.38525 21.2524 8.1665 20.4346 8.1665L4.43115 8.1665C3.62549 8.1665 3.36914 7.38525 3.86963 6.70166ZM12.439 15.7715C10.9253 15.7715 9.729 14.563 9.729 13.0493C9.729 11.5601 10.9253 10.3516 12.439 10.3516C13.9404 10.3516 15.1489 11.5601 15.1489 13.0493C15.1489 14.563 13.9404 15.7715 12.439 15.7715ZM2.44141 15.1733C2.22168 14.4165 2.64893 14.0747 3.28369 14.1602C6.7749 14.563 9.48486 17.627 9.375 21.2158C9.36279 21.8384 8.89893 22.2534 8.23975 21.936C5.35889 20.6421 3.23486 18.1763 2.44141 15.1733ZM22.4365 15.1733C21.6431 18.1763 19.5312 20.6421 16.6382 21.936C15.9912 22.2534 15.5151 21.8384 15.5029 21.2158C15.3931 17.6392 18.0908 14.563 21.5942 14.1602C22.229 14.0747 22.6562 14.4165 22.4365 15.1733Z" fill="#5ac8f5"/>
 </g>
</svg>
