<?xml version="1.0" encoding="UTF-8"?>
<!--Generator: Apple Native CoreSVG 175.5-->
<!DOCTYPE svg
PUBLIC "-//W3C//DTD SVG 1.1//EN"
       "http://www.w3.org/Graphics/SVG/1.1/DTD/svg11.dtd">
<svg version="1.1" xmlns="http://www.w3.org/2000/svg" xmlns:xlink="http://www.w3.org/1999/xlink" width="30.0523" height="28.0865">
 <g>
  <rect height="28.0865" opacity="0" width="30.0523" x="0" y="0"/>
  <path d="M3.71094 20.4581L11.1694 20.4581L10.0464 18.7369L3.74756 18.7369C2.44141 18.7369 1.72119 18.0167 1.72119 16.6983L1.72119 4.57672C1.72119 3.25836 2.44141 2.52594 3.74756 2.52594L19.8486 2.52594C21.1426 2.52594 21.8628 3.25836 21.8628 4.57672L21.8628 10.7535L23.584 10.7535L23.584 4.46686C23.584 2.02545 22.3633 0.804749 19.8853 0.804749L3.71094 0.804749C1.23291 0.804749 0 2.01325 0 4.46686L0 16.8082C0 19.2618 1.23291 20.4581 3.71094 20.4581ZM24.353 27.4649C29.2114 25.6949 31.2744 21.2515 29.3213 15.8804L28.4058 13.378C27.4414 10.7413 25.6348 9.64264 23.4985 10.3995C22.9248 9.65485 22.0459 9.38629 21.0815 9.7403C20.7397 9.86237 20.4224 10.0455 20.1416 10.2774C19.519 9.45953 18.5425 9.16657 17.5537 9.53278C17.2852 9.63043 17.0288 9.76471 16.7847 9.94782L15.3931 6.12701C14.8682 4.67438 13.5498 4.06403 12.1948 4.56451C10.8276 5.0528 10.2051 6.37116 10.7422 7.82379L14.2212 17.3941C14.2456 17.4429 14.2334 17.504 14.1724 17.5284C14.1235 17.5406 14.0869 17.5284 14.0503 17.4796L12.6099 15.9293C11.9019 15.1724 11.0596 14.9405 10.2417 15.2335C9.13086 15.6363 8.41064 16.7105 8.8623 17.9678C8.98438 18.3096 9.22852 18.7491 9.50928 19.0909L13.5986 24.0347C16.687 27.7823 20.3125 28.942 24.353 27.4649ZM23.8403 25.8658C20.6299 27.0255 17.6392 26.4395 14.8193 23.0338L10.73 18.1021C10.6079 17.9556 10.5225 17.8214 10.4492 17.626C10.3027 17.2232 10.4736 16.7838 10.9375 16.6129C11.3159 16.4664 11.6333 16.6129 11.9385 16.9424L14.7705 19.8599C15.2466 20.3482 15.6616 20.397 16.0645 20.2505C16.5405 20.0797 16.748 19.5792 16.5527 19.0543L12.2314 7.16461C12.0483 6.67633 12.2559 6.21246 12.7319 6.04157C13.208 5.87067 13.6475 6.09039 13.8306 6.57867L16.9189 15.0626C17.0654 15.4654 17.5171 15.6485 17.9199 15.502C18.3105 15.3555 18.5181 14.9405 18.3716 14.5377L17.2607 11.4859C17.4194 11.315 17.6636 11.1563 17.8955 11.0831C18.4692 10.8755 18.9453 11.1197 19.165 11.7178L20.1294 14.3912C20.2881 14.8184 20.7397 14.9771 21.1304 14.8306C21.5088 14.6964 21.7407 14.2813 21.5942 13.8663L20.8008 11.6934C20.9595 11.5225 21.2036 11.3638 21.4233 11.2906C22.0093 11.0831 22.4854 11.3272 22.7051 11.9254L23.3521 13.7198C23.5107 14.1348 23.9624 14.2935 24.353 14.1592C24.7314 14.025 24.9634 13.6099 24.8047 13.1827L24.3286 11.8765C25.354 11.4981 26.3184 12.3404 26.9775 14.1592L27.7344 16.2589C29.4189 20.8731 27.8931 24.3887 23.8403 25.8658Z" fill="#5ac8f5"/>
 </g>
</svg>
