<?xml version="1.0" encoding="UTF-8"?>
<!--Generator: Apple Native CoreSVG 175.5-->
<!DOCTYPE svg
PUBLIC "-//W3C//DTD SVG 1.1//EN"
       "http://www.w3.org/Graphics/SVG/1.1/DTD/svg11.dtd">
<svg version="1.1" xmlns="http://www.w3.org/2000/svg" xmlns:xlink="http://www.w3.org/1999/xlink" width="24.9023" height="24.9146">
 <g>
  <rect height="24.9146" opacity="0" width="24.9023" x="0" y="0"/>
  <path d="M12.4512 24.9023C19.2627 24.9023 24.9023 19.2505 24.9023 12.4512C24.9023 5.63965 19.2505 0 12.439 0C5.63965 0 0 5.63965 0 12.4512C0 19.2505 5.65186 24.9023 12.4512 24.9023Z" fill="#5ac8f5" fill-opacity="0.25"/>
  <path d="M8.03223 8.78906C8.03223 6.50635 9.97314 4.77295 12.439 4.77295C14.917 4.77295 16.8701 6.56738 16.8701 8.8501C16.8701 11.377 15.1733 11.9263 14.9292 16.3086C14.917 16.5527 14.7583 16.7114 14.502 16.7114L10.376 16.7114C10.144 16.7114 9.99756 16.5527 9.97314 16.3086C9.70459 11.9263 8.03223 11.3159 8.03223 8.78906ZM10.5225 18.396C10.2417 18.396 10.0098 18.1641 10.0098 17.8833C10.0098 17.6025 10.2417 17.3706 10.5225 17.3706L14.3799 17.3706C14.6606 17.3706 14.9048 17.6025 14.9048 17.8833C14.9048 18.1641 14.6606 18.396 14.3799 18.396ZM12.4512 20.1172C11.5356 20.1172 10.8521 19.6899 10.791 19.043L14.1113 19.043C14.0381 19.6899 13.3667 20.1172 12.4512 20.1172Z" fill="#5ac8f5"/>
 </g>
</svg>
