<?xml version="1.0" encoding="UTF-8"?>
<!--Generator: Apple Native CoreSVG 175.5-->
<!DOCTYPE svg
PUBLIC "-//W3C//DTD SVG 1.1//EN"
       "http://www.w3.org/Graphics/SVG/1.1/DTD/svg11.dtd">
<svg version="1.1" xmlns="http://www.w3.org/2000/svg" xmlns:xlink="http://www.w3.org/1999/xlink" width="29.5532" height="28.5522">
 <g>
  <rect height="28.5522" opacity="0" width="29.5532" x="0" y="0"/>
  <path d="M8.91113 2.83203C11.853 2.83203 14.0381 2.20947 14.0381 1.41602C14.0381 0.598145 11.853 0 8.91113 0C5.96924 0 3.79639 0.598145 3.79639 1.41602C3.79639 2.20947 5.96924 2.83203 8.91113 2.83203ZM0 15.6128C0 20.1538 2.35596 22.4121 7.72705 22.6929L7.72705 20.8984C3.38135 20.6299 1.79443 18.7988 1.79443 15.4297L1.79443 7.2998C1.79443 6.32324 1.96533 5.41992 2.36816 4.63867C3.62549 5.61523 5.99365 6.12793 8.91113 6.12793C11.8408 6.12793 14.1968 5.61523 15.4541 4.63867C15.7227 5.01709 15.8325 5.44434 15.8691 5.9082C15.918 6.17676 15.9546 6.45752 15.979 6.73828C16.5894 6.73828 17.1997 6.73828 17.7979 6.73828C17.7856 6.4209 17.749 6.06689 17.7246 5.81055C17.6025 4.41895 17.1143 3.41797 16.5283 2.70996C16.272 2.36816 15.8325 2.34375 15.5151 2.6123C14.4531 3.55225 11.6699 4.3457 8.91113 4.3457C6.15234 4.3457 3.36914 3.55225 2.30713 2.6123C1.98975 2.34375 1.5625 2.36816 1.29395 2.70996C0.500488 3.69873 0 5.11475 0 7.18994ZM14.7827 28.479L24.1699 28.479C25.8911 28.479 27.3438 28.3203 28.3691 27.2827C29.3945 26.2573 29.5532 24.8169 29.5532 23.0957L29.5532 13.7939C29.5532 12.0728 29.3945 10.6323 28.3691 9.60693C27.3315 8.56934 25.8911 8.41064 24.1699 8.41064L14.7583 8.41064C13.0737 8.41064 11.6089 8.58154 10.5835 9.60693C9.55811 10.6323 9.39941 12.0728 9.39941 13.7695L9.39941 23.0957C9.39941 24.8169 9.55811 26.2573 10.5835 27.2827C11.6089 28.3203 13.0615 28.479 14.7827 28.479ZM17.688 19.7754C17.5293 20.3125 17.1753 20.9351 16.7236 21.3989C16.5771 21.521 16.3818 21.6187 16.1133 21.6187C15.8813 21.6187 15.7349 21.5332 15.5273 21.46C15.3931 21.4233 15.21 21.3257 14.9902 21.3257C14.4653 21.3257 14.2456 21.6309 13.8184 21.6309C13.5254 21.6309 13.2935 21.46 12.9761 21.106C12.3779 20.4468 11.9873 19.397 11.9873 18.4814C11.9873 17.9199 12.1216 17.4072 12.4878 16.9678C12.7808 16.5894 13.2324 16.3696 13.7695 16.3696C14.27 16.3696 14.5752 16.6748 14.856 16.6748C15.1733 16.6748 15.5273 16.3574 16.1865 16.3574C16.7358 16.3574 17.2119 16.5771 17.5171 17.0288C17.1143 17.2607 16.9556 17.5537 16.8823 17.7979C16.748 18.1396 16.7236 18.5547 16.8823 18.9697C17.0288 19.3481 17.2852 19.6045 17.688 19.7754ZM14.8071 16.1743C14.7827 15.4053 15.4175 14.6484 16.2598 14.5996C16.3208 15.3564 15.6616 16.272 14.8071 16.1743ZM20.5322 15.1123L20.5322 16.3574L21.521 16.3574L21.521 17.1753L20.5322 17.1753L20.5322 20.0684C20.5322 20.5444 20.7275 20.7397 21.1548 20.7397C21.2646 20.7397 21.46 20.7397 21.521 20.7031L21.521 21.582C21.4233 21.5942 21.1548 21.6187 20.9351 21.6187C19.8608 21.6187 19.4458 21.2402 19.4458 20.2026L19.4458 17.1753L18.7134 17.1753L18.7134 16.3574L19.4458 16.3574L19.4458 15.1123ZM25.061 21.582L23.938 21.582L22.0215 16.3574L23.1445 16.3574L24.4995 20.5444L25.7812 16.3574L26.9531 16.3574Z" fill="#5ac8f5"/>
 </g>
</svg>
