<?xml version="1.0" encoding="UTF-8"?>
<!--Generator: Apple Native CoreSVG 175.5-->
<!DOCTYPE svg
PUBLIC "-//W3C//DTD SVG 1.1//EN"
       "http://www.w3.org/Graphics/SVG/1.1/DTD/svg11.dtd">
<svg version="1.1" xmlns="http://www.w3.org/2000/svg" xmlns:xlink="http://www.w3.org/1999/xlink" width="43.2983" height="19.7144">
 <g>
  <rect height="19.7144" opacity="0" width="43.2983" x="0" y="0"/>
  <path d="M3.18604 17.2241L5.09033 17.2241C5.01709 16.8579 4.95605 16.4795 4.95605 16.0767C4.95605 13.4521 7.03125 11.3892 9.64355 11.3892C12.2681 11.3892 14.3311 13.4521 14.3311 16.0767C14.3311 16.4795 14.2822 16.8579 14.1968 17.2241L29.7485 17.2241C29.6753 16.8579 29.6143 16.4795 29.6143 16.0767C29.6143 13.4521 31.6895 11.3892 34.3018 11.3892C36.9263 11.3892 38.9893 13.4521 38.9893 16.0767C38.9893 16.4795 38.9404 16.8579 38.855 17.2241L40.4663 17.2241C42.2241 17.2241 43.2983 16.1133 43.2983 14.3066L43.2983 9.39941C43.2983 7.69043 42.7856 6.23779 40.5151 5.52979L38.0005 4.76074C36.4136 2.86865 33.6426 0.170898 28.6011 0.170898L25.7324 0.170898C20.7031 0.170898 18.7012 0.65918 15.6982 2.53906L10.7788 5.62744L5.35889 6.28662C1.98975 6.70166 0 8.64258 0 11.5479L0 13.9648C0 16.04 1.15967 17.2241 3.18604 17.2241ZM9.64355 19.3359C11.4746 19.3359 12.915 17.8955 12.915 16.0767C12.915 14.2578 11.4624 12.8052 9.64355 12.8052C7.83691 12.8052 6.38428 14.2578 6.38428 16.0767C6.38428 17.8833 7.83691 19.3359 9.64355 19.3359ZM34.3018 19.3359C36.1206 19.3359 37.5732 17.8833 37.5732 16.0767C37.5732 14.2578 36.1206 12.8052 34.3018 12.8052C32.5073 12.8052 31.0425 14.27 31.0425 16.0767C31.0425 17.8833 32.4951 19.3359 34.3018 19.3359Z" fill="#5ac8f5" fill-opacity="0.25"/>
  <path d="M16.3696 9.39941C14.6606 9.39941 13.4888 8.80127 12.439 7.42188L9.15527 3.08838C8.47168 2.19727 7.95898 1.96533 6.604 1.96533L3.60107 1.96533C3.06396 1.96533 2.62451 1.51367 2.62451 0.976562C2.62451 0.439453 3.06396 0 3.60107 0L6.604 0C8.45947 0 9.66797 0.537109 10.6934 1.89209L14.0015 6.20117C14.7583 7.17773 15.2222 7.43408 16.3696 7.43408L19.043 7.43408L19.043 6.39648C19.043 5.52979 19.7998 5.27344 20.4468 5.70068L23.4985 7.66602C24.1089 8.05664 24.0967 8.78906 23.5107 9.16748L20.4346 11.145C19.7998 11.5601 19.043 11.3037 19.043 10.4492L19.043 9.39941Z" fill="#5ac8f5"/>
 </g>
</svg>
