<?xml version="1.0" encoding="UTF-8"?>
<!--Generator: Apple Native CoreSVG 175.5-->
<!DOCTYPE svg
PUBLIC "-//W3C//DTD SVG 1.1//EN"
       "http://www.w3.org/Graphics/SVG/1.1/DTD/svg11.dtd">
<svg version="1.1" xmlns="http://www.w3.org/2000/svg" xmlns:xlink="http://www.w3.org/1999/xlink" width="24.9023" height="24.9146">
 <g>
  <rect height="24.9146" opacity="0" width="24.9023" x="0" y="0"/>
  <path d="M0 12.4512C0 19.2505 5.65186 24.9023 12.4512 24.9023C19.2627 24.9023 24.9023 19.2505 24.9023 12.4512C24.9023 5.63965 19.2505 0 12.439 0C5.63965 0 0 5.63965 0 12.4512ZM2.0874 12.4512C2.0874 11.0962 2.34375 9.81445 2.81982 8.63037L22.0947 8.63037C22.5708 9.81445 22.8271 11.0962 22.8271 12.4512C22.8394 18.2129 18.2129 22.8271 12.4512 22.8271C6.68945 22.8271 2.0874 18.2129 2.0874 12.4512ZM3.74756 6.78711C5.57861 3.94287 8.76465 2.0752 12.439 2.0752C16.1133 2.0752 19.3115 3.94287 21.1426 6.78711Z" fill="#5ac8f5"/>
 </g>
</svg>
