<?xml version="1.0" encoding="UTF-8"?>
<!--Generator: Apple Native CoreSVG 175.5-->
<!DOCTYPE svg
PUBLIC "-//W3C//DTD SVG 1.1//EN"
       "http://www.w3.org/Graphics/SVG/1.1/DTD/svg11.dtd">
<svg version="1.1" xmlns="http://www.w3.org/2000/svg" xmlns:xlink="http://www.w3.org/1999/xlink" width="25.3816" height="28.7476">
 <g>
  <rect height="28.7476" opacity="0" width="25.3816" x="0" y="0"/>
  <path d="M25.3816 26.8921L25.3816 17.1997C25.3816 15.7471 24.7225 15.0879 23.2698 15.0879L8.68241 15.0879C7.60819 15.0879 7.03446 15.8936 7.03446 16.7603C7.03446 17.3462 7.30302 17.9077 7.87675 18.2983L22.4641 28.3569C22.8548 28.6377 23.3064 28.7476 23.7337 28.7476C24.6126 28.7476 25.3816 28.1616 25.3816 26.8921ZM23.3919 26.123C23.3919 26.2085 23.3431 26.2817 23.2698 26.2817C23.2332 26.2817 23.1844 26.2695 23.1355 26.2329L9.7078 17.2974C9.65897 17.2607 9.64677 17.2119 9.64677 17.1875C9.64677 17.1265 9.69559 17.0898 9.75663 17.0898L23.0257 17.0898C23.3186 17.0898 23.3919 17.1631 23.3919 17.4561ZM25.3816 11.5601L25.3816 1.86768C25.3816 0.598145 24.6126 0.012207 23.7337 0.012207C23.3064 0.012207 22.8548 0.12207 22.4641 0.390625L7.87675 10.4614C7.30302 10.8521 7.03446 11.4136 7.03446 11.9995C7.03446 12.8662 7.60819 13.6719 8.68241 13.6719L23.2698 13.6719C24.7225 13.6719 25.3816 13.0127 25.3816 11.5601ZM23.3919 11.3037C23.3919 11.5845 23.3186 11.6699 23.0257 11.6699L9.76884 11.6699C9.7078 11.6699 9.64677 11.6333 9.64677 11.5723C9.64677 11.5356 9.65897 11.499 9.73222 11.4624L23.1355 2.52686C23.1844 2.49023 23.2332 2.47803 23.2698 2.47803C23.3431 2.47803 23.3919 2.55127 23.3919 2.63672Z" fill="#5ac8f5" fill-opacity="0.5"/>
  <path d="M3.9827 26.8555L6.4119 23.584C6.9246 22.9126 6.61942 22.0947 5.78934 22.0947L4.03153 22.0947L4.03153 6.66504L5.78934 6.66504C6.61942 6.66504 6.9246 5.84717 6.4119 5.17578L3.9827 1.9043C3.65311 1.45264 3.03056 1.45264 2.70097 1.9043L0.247353 5.17578C-0.240929 5.82275 0.0276262 6.66504 0.894325 6.66504L2.61552 6.66504L2.61552 22.0947L0.894325 22.0947C0.0520402 22.0947-0.265343 22.9126 0.247353 23.584L2.70097 26.8555C3.03056 27.2949 3.66532 27.2949 3.9827 26.8555Z" fill="#5ac8f5"/>
 </g>
</svg>
