<?xml version="1.0" encoding="UTF-8"?>
<!--Generator: Apple Native CoreSVG 175.5-->
<!DOCTYPE svg
PUBLIC "-//W3C//DTD SVG 1.1//EN"
       "http://www.w3.org/Graphics/SVG/1.1/DTD/svg11.dtd">
<svg version="1.1" xmlns="http://www.w3.org/2000/svg" xmlns:xlink="http://www.w3.org/1999/xlink" width="31.3133" height="15.6128">
 <g>
  <rect height="15.6128" opacity="0" width="31.3133" x="0" y="0"/>
  <path d="M0.855631 7.2876C5.22575 12.5488 9.52262 15.6128 15.6506 15.6128C21.7907 15.6128 26.0876 12.5488 30.4577 7.2876C31.9103 5.52979 31.5197 3.4668 29.237 3.19824C25.7091 2.79541 24.5495 0.0244141 20.8263 0.0244141C17.8966 0.0244141 16.1632 2.20947 15.6506 2.20947C15.1501 2.20947 13.4167 0.0244141 10.487 0.0244141C6.76383 0.0244141 5.60417 2.79541 2.07633 3.19824C-0.206381 3.4668-0.597006 5.52979 0.855631 7.2876ZM1.86881 6.04248C1.42936 5.54199 1.55143 4.98047 2.1984 4.87061L3.12614 4.6875C6.82487 3.9917 8.24088 1.9043 10.609 1.9043C11.8542 1.9043 12.7453 2.51465 13.5876 3.125C14.3932 3.71094 14.9548 4.08936 15.6506 4.08936C16.3586 4.08936 16.9079 3.71094 17.7257 3.125C18.568 2.51465 19.4591 1.9043 20.7043 1.9043C23.0724 1.9043 24.4884 3.9917 28.1872 4.6875L29.1149 4.87061C29.7619 4.98047 29.884 5.54199 29.4445 6.04248C26.0143 9.63135 21.7785 13.7329 15.6506 13.7329C9.53483 13.7329 5.29899 9.63135 1.86881 6.04248ZM15.6506 8.95996C17.3229 8.95996 17.6281 7.58057 20.1549 7.58057C22.7062 7.59277 25.8434 8.72803 29.8229 5.77393C30.4821 5.28564 30.0548 4.6875 29.4811 4.95605C26.9665 6.26221 24.2565 6.23779 21.8883 5.99365C21.2536 5.9082 20.631 5.82275 20.0329 5.82275C18.1408 5.82275 17.1276 6.49414 16.444 6.88477C15.9923 7.15332 15.8459 7.20215 15.6506 7.20215C15.4674 7.20215 15.3088 7.15332 14.8571 6.88477C14.1857 6.49414 13.1725 5.82275 11.2804 5.82275C10.6823 5.82275 10.0719 5.92041 9.46159 5.98145C7.08122 6.23779 4.35905 6.25 1.83219 4.95605C1.25846 4.6875 0.831217 5.28564 1.4904 5.77393C5.46989 8.71582 8.6071 7.59277 11.1584 7.58057C13.6852 7.58057 13.9904 8.95996 15.6506 8.95996Z" fill="#5ac8f5"/>
 </g>
</svg>
