<?xml version="1.0" encoding="UTF-8"?>
<!--Generator: Apple Native CoreSVG 175.5-->
<!DOCTYPE svg
PUBLIC "-//W3C//DTD SVG 1.1//EN"
       "http://www.w3.org/Graphics/SVG/1.1/DTD/svg11.dtd">
<svg version="1.1" xmlns="http://www.w3.org/2000/svg" xmlns:xlink="http://www.w3.org/1999/xlink" width="26.9043" height="26.9653">
 <g>
  <rect height="26.9653" opacity="0" width="26.9043" x="0" y="0"/>
  <path d="M7.25098 26.9653C7.72705 26.9653 8.08105 26.7212 8.65479 26.1841L13.0615 22.1558L21.3135 22.1558C24.9512 22.1558 26.9043 20.1538 26.9043 16.5771L26.9043 7.22656C26.9043 3.6499 24.9512 1.63574 21.3135 1.63574L5.59082 1.63574C1.95312 1.63574 0 3.6377 0 7.22656L0 16.5771C0 20.166 1.95312 22.1558 5.59082 22.1558L6.16455 22.1558L6.16455 25.708C6.16455 26.4648 6.55518 26.9653 7.25098 26.9653Z" fill="#5ac8f5" fill-opacity="0.25"/>
  <path d="M10.7788 16.6504C10.2539 17.041 9.63135 16.687 9.87549 15.9912L10.9375 12.8418L8.17871 10.8765C7.61719 10.4736 7.86133 9.82666 8.49609 9.82666L11.8896 9.82666L12.9028 6.70166C13.1104 6.0791 13.8306 6.0791 14.0259 6.70166L15.0269 9.82666L18.4204 9.82666C19.0552 9.82666 19.2993 10.4736 18.7378 10.8765L16.0034 12.8418L17.0532 15.9912C17.2852 16.687 16.6748 17.041 16.1377 16.6504L13.4644 14.6851Z" fill="#5ac8f5"/>
 </g>
</svg>
