<?xml version="1.0" encoding="UTF-8"?>
<!--Generator: Apple Native CoreSVG 175.5-->
<!DOCTYPE svg
PUBLIC "-//W3C//DTD SVG 1.1//EN"
       "http://www.w3.org/Graphics/SVG/1.1/DTD/svg11.dtd">
<svg version="1.1" xmlns="http://www.w3.org/2000/svg" xmlns:xlink="http://www.w3.org/1999/xlink" width="27.8687" height="32.019">
 <g>
  <rect height="32.019" opacity="0" width="27.8687" x="0" y="0"/>
  <path d="M5.7373 20.52L20.8862 20.52C24.8901 20.52 27.8687 17.4805 27.8687 13.7207C27.8687 9.82666 24.6948 6.98242 20.5566 6.98242C19.0308 3.96729 16.1987 2.02637 12.6709 2.02637C8.08105 2.02637 4.29688 5.62744 3.89404 10.1562C1.68457 10.8032 0 12.7197 0 15.2954C0 18.1885 2.09961 20.52 5.7373 20.52ZM7.31201 24.9146L8.12988 23.4741C8.34961 23.1079 8.23975 22.6685 7.87354 22.4487C7.50732 22.2412 7.08008 22.3755 6.86035 22.7295L6.03027 24.2065C5.83496 24.5483 5.92041 24.9756 6.29883 25.1953C6.66504 25.4028 7.10449 25.2808 7.31201 24.9146ZM12.6343 26.7822L14.5386 23.4863C14.7461 23.1079 14.6362 22.6807 14.2822 22.4731C13.9038 22.2534 13.4766 22.3755 13.269 22.7539L11.3525 26.0742C11.145 26.4282 11.2549 26.8555 11.6333 27.063C11.9873 27.2705 12.439 27.1484 12.6343 26.7822ZM20.105 24.9634L20.9229 23.5229C21.1426 23.1567 21.0327 22.7173 20.6665 22.4976C20.3003 22.29 19.873 22.4243 19.6533 22.7783L18.8232 24.2554C18.6279 24.5972 18.7134 25.0244 19.0918 25.2441C19.458 25.4517 19.8975 25.3174 20.105 24.9634ZM5.05371 30.1514C5.27344 30.1514 5.43213 29.9438 5.41992 29.7241L5.33447 28.5522L6.31104 29.2114C6.48193 29.3335 6.7627 29.2847 6.87256 29.1016C6.99463 28.9185 6.92139 28.6377 6.68945 28.5278L5.63965 28.0151L6.70166 27.4902C6.92139 27.3804 6.98242 27.124 6.88477 26.9287C6.78711 26.7334 6.48193 26.6968 6.31104 26.8188L5.33447 27.4902L5.43213 26.3184C5.45654 26.0864 5.27344 25.8911 5.05371 25.8911C4.79736 25.8911 4.63867 26.0864 4.65088 26.3184L4.73633 27.4902L3.74756 26.8188C3.57666 26.6968 3.32031 26.7212 3.19824 26.9287C3.08838 27.124 3.13721 27.3804 3.36914 27.4902L4.41895 28.0151L3.36914 28.5278C3.13721 28.6377 3.07617 28.9062 3.18604 29.1016C3.2959 29.3091 3.57666 29.3457 3.74756 29.2236L4.73633 28.5645L4.66309 29.7241C4.65088 29.9438 4.79736 30.1514 5.05371 30.1514ZM10.8765 32.019C11.1084 32.019 11.2549 31.8115 11.2427 31.5918L11.1694 30.4321L12.1338 31.0791C12.3169 31.2012 12.5854 31.1523 12.7075 30.9692C12.8296 30.7861 12.7563 30.5054 12.5244 30.3955L11.4746 29.895L12.5366 29.3701C12.7563 29.2603 12.8174 28.9917 12.7197 28.7964C12.6099 28.6011 12.3169 28.5645 12.1338 28.6865L11.1694 29.3701L11.2549 28.186C11.2793 27.9541 11.1084 27.7588 10.8765 27.7588C10.6201 27.7588 10.4736 27.9541 10.4858 28.186L10.5591 29.3701L9.58252 28.6865C9.39941 28.5645 9.14307 28.5889 9.021 28.7964C8.91113 28.9917 8.95996 29.248 9.19189 29.3701L10.2539 29.895L9.19189 30.4077C8.95996 30.5176 8.89893 30.7739 9.00879 30.9692C9.11865 31.1768 9.39941 31.2134 9.58252 31.0913L10.5591 30.4321L10.498 31.5918C10.4858 31.8115 10.6201 32.019 10.8765 32.019ZM17.8467 30.2002C18.0664 30.2002 18.2251 29.9927 18.2129 29.7607L18.1274 28.6011L19.104 29.2603C19.2749 29.3823 19.5435 29.3335 19.6655 29.1504C19.7876 28.9673 19.7144 28.6865 19.4824 28.5767L18.4326 28.064L19.4946 27.5391C19.7144 27.4292 19.7754 27.1606 19.6777 26.9775C19.5679 26.7822 19.2749 26.7456 19.104 26.8677L18.1274 27.5391L18.2251 26.3672C18.2495 26.123 18.0664 25.9277 17.8467 25.9277C17.5903 25.9277 17.4316 26.123 17.4438 26.3672L17.5293 27.5391L16.5405 26.8677C16.3696 26.7456 16.1133 26.77 15.9912 26.9775C15.8813 27.1606 15.9302 27.4292 16.1621 27.5391L17.2119 28.064L16.1621 28.5767C15.9302 28.6865 15.8691 28.9551 15.979 29.1504C16.0889 29.3457 16.3696 29.3823 16.5405 29.2603L17.5293 28.6133L17.4561 29.7607C17.4438 29.9927 17.5903 30.2002 17.8467 30.2002Z" fill="#5ac8f5"/>
 </g>
</svg>
