<?xml version="1.0" encoding="UTF-8"?>
<!--Generator: Apple Native CoreSVG 175.5-->
<!DOCTYPE svg
PUBLIC "-//W3C//DTD SVG 1.1//EN"
       "http://www.w3.org/Graphics/SVG/1.1/DTD/svg11.dtd">
<svg version="1.1" xmlns="http://www.w3.org/2000/svg" xmlns:xlink="http://www.w3.org/1999/xlink" width="36.5601" height="25.9155">
 <g>
  <rect height="25.9155" opacity="0" width="36.5601" x="0" y="0"/>
  <path d="M8.10547 24.8901L10.0708 24.8901L10.0708 2.29492C10.0708 2.09961 10.2051 1.96533 10.3882 1.96533L26.1719 1.96533C26.355 1.96533 26.4771 2.09961 26.4771 2.29492L26.4771 24.8901L28.4546 24.8901L28.4546 24.292L34.8389 24.8291C35.9985 24.939 36.5601 24.1577 36.5601 23.1567L36.5601 2.14844C36.5601 1.14746 35.9985 0.378418 34.8389 0.476074L28.1738 1.0376L28.1494 0.817871C27.8809 0.305176 27.2827 0 26.5747 0L9.98535 0C9.25293 0 8.6792 0.305176 8.41064 0.817871L8.38623 1.0376L1.70898 0.476074C0.561523 0.378418 0 1.14746 0 2.14844L0 23.1567C0 24.1577 0.561523 24.939 1.70898 24.8291L8.10547 24.292ZM1.86768 22.7295L1.86768 17.7002C1.86768 17.5903 1.95312 17.4927 2.0752 17.4927L8.10547 17.3462L8.10547 22.5342L2.12402 22.9492C1.97754 22.9614 1.86768 22.9004 1.86768 22.7295ZM1.86768 15.3931L1.86768 9.92432C1.86768 9.80225 1.95312 9.7168 2.0752 9.7168L8.10547 9.86328L8.10547 15.4541L2.0752 15.6006C1.95312 15.6006 1.86768 15.5029 1.86768 15.3931ZM1.86768 7.61719L1.86768 2.57568C1.86768 2.41699 1.97754 2.35596 2.12402 2.36816L8.10547 2.7832L8.10547 7.97119L2.0752 7.82471C1.95312 7.82471 1.86768 7.72705 1.86768 7.61719ZM28.4546 22.5342L28.4546 17.3462L34.4849 17.4927C34.6069 17.4927 34.6924 17.5903 34.6924 17.7002L34.6924 22.7295C34.6924 22.9004 34.5825 22.9614 34.436 22.9492ZM28.4546 15.4541L28.4546 9.86328L34.4727 9.7168C34.6069 9.7168 34.6924 9.80225 34.6924 9.92432L34.6924 15.3931C34.6924 15.5029 34.6069 15.6006 34.4727 15.6006ZM28.4546 7.97119L28.4546 2.7832L34.436 2.36816C34.5825 2.35596 34.6924 2.41699 34.6924 2.57568L34.6924 7.61719C34.6924 7.72705 34.6069 7.82471 34.4849 7.82471ZM6.46973 24.8901C6.46973 25.4395 6.92139 25.9033 7.48291 25.9033L29.1016 25.9033C29.6631 25.9033 30.127 25.4395 30.127 24.8901C30.127 24.3286 29.6631 23.877 29.1016 23.877L7.48291 23.877C6.92139 23.877 6.46973 24.3286 6.46973 24.8901ZM17.7368 24.8901L19.3359 24.8901L19.3359 1.01318L17.7368 1.01318Z" fill="#5ac8f5"/>
 </g>
</svg>
