<?xml version="1.0" encoding="UTF-8"?>
<!--Generator: Apple Native CoreSVG 175.5-->
<!DOCTYPE svg
PUBLIC "-//W3C//DTD SVG 1.1//EN"
       "http://www.w3.org/Graphics/SVG/1.1/DTD/svg11.dtd">
<svg version="1.1" xmlns="http://www.w3.org/2000/svg" xmlns:xlink="http://www.w3.org/1999/xlink" width="24.9023" height="24.9146">
 <g>
  <rect height="24.9146" opacity="0" width="24.9023" x="0" y="0"/>
  <path d="M12.4512 24.9023C19.2627 24.9023 24.9023 19.2505 24.9023 12.4512C24.9023 5.63965 19.2505 0 12.439 0C5.63965 0 0 5.63965 0 12.4512C0 19.2505 5.65186 24.9023 12.4512 24.9023Z" fill="#5ac8f5" fill-opacity="0.25"/>
  <path d="M8.53271 17.8833C6.35986 17.8833 4.93164 15.8081 4.93164 12.4512C4.93164 9.09424 6.35986 7.01904 8.53271 7.01904C10.6934 7.01904 12.1338 9.09424 12.1338 12.4512C12.1338 15.8081 10.6934 17.8833 8.53271 17.8833ZM8.53271 16.3452C9.74121 16.3452 10.4736 14.8682 10.4736 12.4512C10.4736 10.0342 9.7168 8.55713 8.53271 8.55713C7.33643 8.55713 6.5918 10.0342 6.5918 12.4512C6.5918 14.8682 7.33643 16.3452 8.53271 16.3452ZM15.2588 17.7368C14.7705 17.7368 14.4043 17.395 14.4043 16.9189C14.4043 16.6748 14.4409 16.5283 14.5508 16.333L18.4448 8.78906L18.4448 8.69141L14.0381 8.69141C13.5864 8.69141 13.3057 8.41064 13.3057 7.99561C13.3057 7.56836 13.5864 7.27539 14.0381 7.27539L19.104 7.27539C19.7876 7.27539 20.2271 7.76367 20.2271 8.37402C20.2271 8.64258 20.1782 8.87451 19.9829 9.27734L16.0645 17.1143C15.8325 17.5537 15.6006 17.7368 15.2588 17.7368Z" fill="#5ac8f5"/>
 </g>
</svg>
