<?xml version="1.0" encoding="UTF-8"?>
<!--Generator: Apple Native CoreSVG 175.5-->
<!DOCTYPE svg
PUBLIC "-//W3C//DTD SVG 1.1//EN"
       "http://www.w3.org/Graphics/SVG/1.1/DTD/svg11.dtd">
<svg version="1.1" xmlns="http://www.w3.org/2000/svg" xmlns:xlink="http://www.w3.org/1999/xlink" width="22.4731" height="22.4976">
 <g>
  <rect height="22.4976" opacity="0" width="22.4731" x="0" y="0"/>
  <path d="M3.83301 22.4976L18.6401 22.4976C21.2036 22.4976 22.4731 21.228 22.4731 18.7134L22.4731 3.80859C22.4731 1.29395 21.2036 0.0244141 18.6401 0.0244141L3.83301 0.0244141C1.28174 0.0244141 0 1.28174 0 3.80859L0 18.7134C0 21.2402 1.28174 22.4976 3.83301 22.4976ZM9.87549 17.2119C9.46045 17.2119 9.11865 17.041 8.80127 16.6138L5.7373 12.854C5.5542 12.6099 5.44434 12.3413 5.44434 12.0605C5.44434 11.5112 5.87158 11.0596 6.43311 11.0596C6.7749 11.0596 7.04346 11.1694 7.34863 11.5723L9.82666 14.7705L15.0391 6.39648C15.271 6.03027 15.5884 5.83496 15.918 5.83496C16.4429 5.83496 16.9434 6.20117 16.9434 6.7749C16.9434 7.04346 16.7969 7.32422 16.6382 7.58057L10.9009 16.6138C10.6445 17.0166 10.2905 17.2119 9.87549 17.2119Z" fill="#5ac8f5"/>
 </g>
</svg>
