<?xml version="1.0" encoding="UTF-8"?>
<!--Generator: Apple Native CoreSVG 175.5-->
<!DOCTYPE svg
PUBLIC "-//W3C//DTD SVG 1.1//EN"
       "http://www.w3.org/Graphics/SVG/1.1/DTD/svg11.dtd">
<svg version="1.1" xmlns="http://www.w3.org/2000/svg" xmlns:xlink="http://www.w3.org/1999/xlink" width="18.6416" height="30.0659">
 <g>
  <rect height="30.0659" opacity="0" width="18.6416" x="0" y="0"/>
  <path d="M9.32691 16.5771C12.0003 16.5771 14.637 16.4185 16.7976 16.1011C18.4822 15.8447 18.9827 14.6118 18.4212 12.8662L15.1985 2.66113C14.6248 0.830078 13.1599 0 11.1702 0L7.47144 0C5.4817 0 4.01685 0.830078 3.44312 2.66113L0.220468 12.8662C-0.341056 14.6118 0.159432 15.8447 1.844 16.1011C4.00465 16.4185 6.64137 16.5771 9.32691 16.5771ZM8.33814 15.9058L8.33814 29.1504L10.3035 29.1504L10.3035 15.9058ZM3.83375 29.9927L14.8079 29.9927C15.2595 29.9927 15.5647 29.6753 15.5647 29.1992C15.5647 28.2715 14.8079 27.6245 13.6482 27.6245L4.99342 27.6245C3.83375 27.6245 3.08912 28.2715 3.08912 29.1992C3.08912 29.6753 3.38209 29.9927 3.83375 29.9927Z" fill="#5ac8f5"/>
 </g>
</svg>
