<?xml version="1.0" encoding="UTF-8"?>
<!--Generator: Apple Native CoreSVG 175.5-->
<!DOCTYPE svg
PUBLIC "-//W3C//DTD SVG 1.1//EN"
       "http://www.w3.org/Graphics/SVG/1.1/DTD/svg11.dtd">
<svg version="1.1" xmlns="http://www.w3.org/2000/svg" xmlns:xlink="http://www.w3.org/1999/xlink" width="29.2847" height="22.4976">
 <g>
  <rect height="22.4976" opacity="0" width="29.2847" x="0" y="0"/>
  <path d="M8.22754 22.4976L21.0449 22.4976C23.4497 22.4976 24.5117 21.3745 24.8779 18.9819L26.8433 5.70068L24.8779 5.82275L22.9248 18.9575C22.7417 20.166 22.0947 20.6543 21.0205 20.6543L8.26416 20.6543C7.16553 20.6543 6.53076 20.166 6.35986 18.9575L4.40674 5.82275L2.44141 5.70068L4.40674 18.9819C4.76074 21.3867 5.83496 22.4976 8.22754 22.4976ZM2.31934 6.73828L26.9653 6.73828C28.4668 6.73828 29.2847 5.79834 29.2847 4.30908L29.2847 2.45361C29.2847 0.964355 28.4668 0.0244141 26.9653 0.0244141L2.31934 0.0244141C0.891113 0.0244141 0 0.964355 0 2.45361L0 4.30908C0 5.79834 0.817871 6.73828 2.31934 6.73828ZM2.81982 4.89502C2.20947 4.89502 1.96533 4.63867 1.96533 4.02832L1.96533 2.73438C1.96533 2.12402 2.20947 1.86768 2.81982 1.86768L26.4771 1.86768C27.0874 1.86768 27.3193 2.12402 27.3193 2.73438L27.3193 4.02832C27.3193 4.63867 27.0874 4.89502 26.4771 4.89502ZM11.1084 18.103C11.3525 18.103 11.5723 17.981 11.7554 17.8101L14.6362 14.917L17.5293 17.8101C17.7002 17.9688 17.9199 18.103 18.1885 18.103C18.7012 18.103 19.1284 17.6636 19.1284 17.1509C19.1284 16.8701 19.0063 16.6748 18.8354 16.4917L15.9668 13.6108L18.8477 10.6934C19.0308 10.498 19.1406 10.3149 19.1406 10.0586C19.1406 9.53369 18.7256 9.11865 18.1885 9.11865C17.9565 9.11865 17.749 9.21631 17.5537 9.41162L14.6362 12.3047L11.7432 9.42383C11.5479 9.24072 11.3525 9.14307 11.1084 9.14307C10.5835 9.14307 10.1562 9.5459 10.1562 10.0586C10.1562 10.3271 10.2783 10.5347 10.4492 10.7056L13.3179 13.6108L10.4492 16.5039C10.2783 16.6748 10.1562 16.8823 10.1562 17.1509C10.1562 17.6636 10.5835 18.103 11.1084 18.103Z" fill="#5ac8f5"/>
 </g>
</svg>
