<?xml version="1.0" encoding="UTF-8"?>
<!--Generator: Apple Native CoreSVG 175.5-->
<!DOCTYPE svg
PUBLIC "-//W3C//DTD SVG 1.1//EN"
       "http://www.w3.org/Graphics/SVG/1.1/DTD/svg11.dtd">
<svg version="1.1" xmlns="http://www.w3.org/2000/svg" xmlns:xlink="http://www.w3.org/1999/xlink" width="22.11" height="25.8667">
 <g>
  <rect height="25.8667" opacity="0" width="22.11" x="0" y="0"/>
  <path d="M6.5155 25.8545L15.5853 25.8545C17.0624 25.8545 18.1244 25.1587 18.576 23.9746L18.576 23.9136L16.2567 21.6064L16.2567 21.7163L5.16052 21.7163L5.16052 10.5225L3.19519 8.55713L3.19519 22.6807C3.19519 24.585 4.52576 25.8545 6.5155 25.8545ZM11.0565 24.646C10.4706 24.646 9.99451 24.1699 9.99451 23.584C9.99451 23.0103 10.4706 22.5342 11.0565 22.5342C11.6302 22.5342 12.1063 23.0103 12.1063 23.584C12.1063 24.1699 11.6302 24.646 11.0565 24.646ZM18.9056 17.4438L18.9056 3.17383C18.9056 1.26953 17.5751 0 15.5853 0L6.5155 0C5.00183 0 3.91541 0.720215 3.48816 1.95312L3.48816 2.02637L5.69763 4.23584L5.69763 4.13818L16.9281 4.13818L16.9281 15.4785ZM8.88367 2.13623C8.88367 1.85547 9.06677 1.67236 9.33533 1.67236L13.0585 1.67236C13.327 1.67236 13.5101 1.85547 13.5101 2.13623C13.5101 2.41699 13.327 2.58789 13.0585 2.58789L9.33533 2.58789C9.06677 2.58789 8.88367 2.41699 8.88367 2.13623ZM20.5048 23.7549C20.871 24.1333 21.4813 24.1211 21.8353 23.7549C22.2015 23.4009 22.2015 22.8027 21.8353 22.4243L1.60828 2.20947C1.24207 1.84326 0.643921 1.83105 0.265503 2.20947C-0.088501 2.56348-0.088501 3.18604 0.265503 3.54004Z" fill="#5ac8f5"/>
 </g>
</svg>
