<?xml version="1.0" encoding="UTF-8"?>
<!--Generator: Apple Native CoreSVG 175.5-->
<!DOCTYPE svg
PUBLIC "-//W3C//DTD SVG 1.1//EN"
       "http://www.w3.org/Graphics/SVG/1.1/DTD/svg11.dtd">
<svg version="1.1" xmlns="http://www.w3.org/2000/svg" xmlns:xlink="http://www.w3.org/1999/xlink" width="31.6284" height="25.5981">
 <g>
  <rect height="25.5981" opacity="0" width="31.6284" x="0" y="0"/>
  <path d="M3.83301 19.9463L6.51855 19.9463L6.51855 17.981L3.85742 17.981C2.63672 17.981 1.96533 17.3218 1.96533 16.0522L1.96533 3.91846C1.96533 2.64893 2.63672 1.98975 3.85742 1.98975L21.6064 1.98975C22.8149 1.98975 23.4985 2.64893 23.4985 3.91846L23.4985 7.05566L25.4639 7.05566L25.4639 3.80859C25.4639 1.29395 24.1821 0.0244141 21.6431 0.0244141L3.83301 0.0244141C1.26953 0.0244141 0 1.29395 0 3.80859L0 16.1621C0 18.6768 1.26953 19.9463 3.83301 19.9463ZM9.99756 25.5981L27.8076 25.5981C30.3589 25.5981 31.6284 24.3286 31.6284 21.814L31.6284 10.6079C31.6284 8.09326 30.3589 6.83594 27.8076 6.83594L26.2329 6.83594C25.3174 6.83594 25.0366 6.72607 24.5117 6.15234L23.6328 5.2002C23.0103 4.5166 22.4121 4.19922 21.46 4.19922L16.3452 4.19922C15.3809 4.19922 14.7949 4.5166 14.1602 5.2002L13.2935 6.15234C12.7563 6.72607 12.4756 6.83594 11.5601 6.83594L9.99756 6.83594C7.43408 6.83594 6.16455 8.09326 6.16455 10.6079L6.16455 21.814C6.16455 24.3286 7.43408 25.5981 9.99756 25.5981ZM10.022 23.6328C8.80127 23.6328 8.12988 22.9736 8.12988 21.7041L8.12988 10.7178C8.12988 9.44824 8.80127 8.80127 10.022 8.80127L12.0361 8.80127C13.0859 8.80127 13.7329 8.58154 14.3555 7.91016L15.4053 6.75049C15.7959 6.34766 16.1621 6.16455 16.8213 6.16455L20.9717 6.16455C21.6431 6.16455 21.9971 6.34766 22.3877 6.75049L23.4497 7.91016C24.0723 8.58154 24.707 8.80127 25.7568 8.80127L27.771 8.80127C28.9917 8.80127 29.6631 9.44824 29.6631 10.7178L29.6631 21.7041C29.6631 22.9736 28.9917 23.6328 27.771 23.6328ZM18.9087 21.9849C22.168 21.9849 24.8169 19.3481 24.8169 16.0645C24.8169 12.8052 22.168 10.1562 18.9087 10.1562C15.6372 10.1562 13.0005 12.8052 13.0005 16.0645C13.0005 19.3481 15.6372 21.9849 18.9087 21.9849ZM18.9087 20.1172C16.687 20.1172 14.8682 18.2983 14.8682 16.0645C14.8682 13.8428 16.687 12.0361 18.9087 12.0361C21.1304 12.0361 22.937 13.8428 22.937 16.0645C22.937 18.2983 21.1304 20.1172 18.9087 20.1172ZM26.4038 13.2568C27.1606 13.2568 27.7832 12.6465 27.7832 11.8896C27.7832 11.1328 27.1606 10.5103 26.4038 10.5103C25.647 10.5103 25.0366 11.1328 25.0366 11.8896C25.0366 12.6465 25.647 13.2568 26.4038 13.2568Z" fill="#5ac8f5"/>
 </g>
</svg>
