<?xml version="1.0" encoding="UTF-8"?>
<!--Generator: Apple Native CoreSVG 175.5-->
<!DOCTYPE svg
PUBLIC "-//W3C//DTD SVG 1.1//EN"
       "http://www.w3.org/Graphics/SVG/1.1/DTD/svg11.dtd">
<svg version="1.1" xmlns="http://www.w3.org/2000/svg" xmlns:xlink="http://www.w3.org/1999/xlink" width="26.3062" height="22.4976">
 <g>
  <rect height="22.4976" opacity="0" width="26.3062" x="0" y="0"/>
  <path d="M2.33154 10.2539L5.09033 10.2539C6.64062 10.2539 7.42188 9.47266 7.42188 7.86133L7.42188 2.40479C7.42188 0.793457 6.64062 0.0244141 5.09033 0.0244141L2.33154 0.0244141C0.78125 0.0244141 0 0.793457 0 2.40479L0 7.86133C0 9.47266 0.78125 10.2539 2.33154 10.2539ZM11.7798 10.2539L14.5386 10.2539C16.0889 10.2539 16.8701 9.47266 16.8701 7.86133L16.8701 2.40479C16.8701 0.793457 16.0889 0.0244141 14.5386 0.0244141L11.7798 0.0244141C10.2295 0.0244141 9.44824 0.793457 9.44824 2.40479L9.44824 7.86133C9.44824 9.47266 10.2295 10.2539 11.7798 10.2539ZM21.228 10.2539L23.9746 10.2539C25.5249 10.2539 26.3062 9.47266 26.3062 7.86133L26.3062 2.40479C26.3062 0.793457 25.5249 0.0244141 23.9746 0.0244141L21.228 0.0244141C19.6655 0.0244141 18.8843 0.793457 18.8843 2.40479L18.8843 7.86133C18.8843 9.47266 19.6655 10.2539 21.228 10.2539ZM2.33154 22.4976L5.09033 22.4976C6.64062 22.4976 7.42188 21.7285 7.42188 20.1172L7.42188 14.6484C7.42188 13.0493 6.64062 12.2681 5.09033 12.2681L2.33154 12.2681C0.78125 12.2681 0 13.0493 0 14.6484L0 20.1172C0 21.7285 0.78125 22.4976 2.33154 22.4976ZM11.7798 22.4976L14.5386 22.4976C16.0889 22.4976 16.8701 21.7285 16.8701 20.1172L16.8701 14.6484C16.8701 13.0493 16.0889 12.2681 14.5386 12.2681L11.7798 12.2681C10.2295 12.2681 9.44824 13.0493 9.44824 14.6484L9.44824 20.1172C9.44824 21.7285 10.2295 22.4976 11.7798 22.4976ZM21.228 22.4976L23.9746 22.4976C25.5249 22.4976 26.3062 21.7285 26.3062 20.1172L26.3062 14.6484C26.3062 13.0493 25.5249 12.2681 23.9746 12.2681L21.228 12.2681C19.6655 12.2681 18.8843 13.0493 18.8843 14.6484L18.8843 20.1172C18.8843 21.7285 19.6655 22.4976 21.228 22.4976Z" fill="#5ac8f5"/>
 </g>
</svg>
