<?xml version="1.0" encoding="UTF-8"?>
<!--Generator: Apple Native CoreSVG 175.5-->
<!DOCTYPE svg
PUBLIC "-//W3C//DTD SVG 1.1//EN"
       "http://www.w3.org/Graphics/SVG/1.1/DTD/svg11.dtd">
<svg version="1.1" xmlns="http://www.w3.org/2000/svg" xmlns:xlink="http://www.w3.org/1999/xlink" width="23.9456" height="29.2114">
 <g>
  <rect height="29.2114" opacity="0" width="23.9456" x="0" y="0"/>
  <path d="M2.97546 18.3716C2.97546 19.4092 3.67126 20.0928 4.7699 20.0928L11.3739 20.0928L11.3739 25.7935C11.3739 27.6611 12.1552 29.2114 12.4603 29.2114C12.7533 29.2114 13.5345 27.6611 13.5345 25.7935L13.5345 20.2637L14.2426 20.2637L6.72302 12.7197C4.36707 14.0991 2.97546 16.272 2.97546 18.3716ZM5.95398 0.756836C5.08728 0.756836 4.52576 1.30615 4.52576 2.05078C4.52576 2.40479 4.66003 2.80762 4.97742 3.22266C5.59998 4.05273 7.07703 5.2124 8.87146 6.22559L8.7616 7.82471L20.9076 19.9585C21.5546 19.7021 21.933 19.1406 21.933 18.3716C21.933 15.7959 19.87 13.0737 16.4398 11.8286L16.037 6.22559C17.8192 5.2124 19.2719 4.07715 19.9066 3.25928C20.2362 2.83203 20.3949 2.41699 20.3949 2.05078C20.3949 1.30615 19.8212 0.756836 18.9667 0.756836ZM0.265503 4.12598L22.3358 26.1719C22.7142 26.5381 23.3124 26.5381 23.6664 26.1719C24.0326 25.8057 24.0448 25.2075 23.6664 24.8413L1.60828 2.79541C1.24207 2.4292 0.631714 2.41699 0.265503 2.79541C-0.088501 3.14941-0.088501 3.75977 0.265503 4.12598Z" fill="#5ac8f5"/>
 </g>
</svg>
