<?xml version="1.0" encoding="UTF-8"?>
<!--Generator: Apple Native CoreSVG 175.5-->
<!DOCTYPE svg
PUBLIC "-//W3C//DTD SVG 1.1//EN"
       "http://www.w3.org/Graphics/SVG/1.1/DTD/svg11.dtd">
<svg version="1.1" xmlns="http://www.w3.org/2000/svg" xmlns:xlink="http://www.w3.org/1999/xlink" width="30.5176" height="25.2319">
 <g>
  <rect height="25.2319" opacity="0" width="30.5176" x="0" y="0"/>
  <path d="M3.13721 21.0938L27.3804 21.0938C29.4678 21.0938 30.5176 20.105 30.5176 17.9565L30.5176 3.96729C30.5176 1.83105 29.4678 0.842285 27.3804 0.842285L3.13721 0.842285C1.0498 0.842285 0 1.83105 0 3.96729L0 17.9565C0 20.105 1.0498 21.0938 3.13721 21.0938ZM9.11865 25.2319L21.3989 25.2319C21.936 25.2319 22.3877 24.7925 22.3877 24.2432C22.3877 23.6938 21.936 23.2544 21.3989 23.2544L9.11865 23.2544C8.58154 23.2544 8.12988 23.6938 8.12988 24.2432C8.12988 24.7925 8.58154 25.2319 9.11865 25.2319Z" fill="#5ac8f5" fill-opacity="0.25"/>
  <path d="M11.6089 16.5039C11.0718 16.5039 10.7544 16.1377 10.7544 15.5151L10.7544 14.2456L6.50635 14.2456C5.74951 14.2456 5.27344 13.7817 5.27344 13.0859C5.27344 12.7441 5.34668 12.439 5.59082 12.0605C6.56738 10.4492 8.04443 8.28857 9.27734 6.43311C9.74121 5.71289 10.2539 5.41992 11.084 5.41992C11.9141 5.41992 12.5 5.93262 12.5 6.66504L12.5 12.7075L13.4033 12.7075C13.8672 12.7075 14.1724 13.0249 14.1724 13.4766C14.1724 13.9526 13.855 14.2456 13.4033 14.2456L12.5 14.2456L12.5 15.5151C12.5 16.1499 12.1704 16.5039 11.6089 16.5039ZM10.7544 12.7075L10.7544 6.95801L10.6689 6.95801C9.42383 8.82568 7.91016 11.0718 7.00684 12.6343L7.00684 12.7075ZM16.6382 16.4307C16.1011 16.4307 15.7715 16.0645 15.7715 15.4541L15.7715 6.50635C15.7715 5.88379 16.1011 5.51758 16.6382 5.51758C17.2241 5.51758 17.5293 5.87158 17.5293 6.50635L17.5293 10.6567L17.688 10.6567L22.3877 5.88379C22.6685 5.61523 22.8271 5.51758 23.1079 5.51758C23.5474 5.51758 23.8892 5.82275 23.8892 6.25C23.8892 6.49414 23.8159 6.68945 23.6084 6.86035L20.3247 10.2661L23.9136 14.9292C24.0723 15.1489 24.1577 15.3809 24.1577 15.6128C24.1577 16.0889 23.8037 16.4307 23.3154 16.4307C23.0225 16.4307 22.7783 16.3086 22.5464 16.0034L19.043 11.3647L17.5293 12.9517L17.5293 15.4541C17.5293 16.0767 17.2241 16.4307 16.6382 16.4307Z" fill="#5ac8f5"/>
 </g>
</svg>
