<?xml version="1.0" encoding="UTF-8"?>
<!--Generator: Apple Native CoreSVG 175.5-->
<!DOCTYPE svg
PUBLIC "-//W3C//DTD SVG 1.1//EN"
       "http://www.w3.org/Graphics/SVG/1.1/DTD/svg11.dtd">
<svg version="1.1" xmlns="http://www.w3.org/2000/svg" xmlns:xlink="http://www.w3.org/1999/xlink" width="36.3801" height="25.5493">
 <g>
  <rect height="25.5493" opacity="0" width="36.3801" x="0" y="0"/>
  <path d="M0.91555 14.2212L10.1563 19.8853C11.3159 20.5933 12.6221 20.0928 12.6221 18.6035L12.6221 6.95801C12.6221 5.50537 11.3404 4.96826 10.1563 5.68848L0.91555 11.3525C-0.31736 12.0972-0.292946 13.4766 0.91555 14.2212ZM2.2217 13.0371C2.0386 12.915 1.92873 12.7197 2.2217 12.5244L10.4126 7.4585C10.5347 7.37305 10.8399 7.33643 10.8399 7.66602L10.8399 17.9077C10.8399 18.2129 10.5591 18.2129 10.4126 18.1152ZM18.1885 25.5493C18.6646 25.5493 19.0918 25.1709 19.0918 24.6948L19.0918 0.866699C19.0918 0.390625 18.6646 0.0244141 18.1885 0.0244141C17.7124 0.0244141 17.2974 0.390625 17.2974 0.866699L17.2974 24.6948C17.2974 25.1709 17.7124 25.5493 18.1885 25.5493ZM26.2207 19.8853L35.4737 14.2212C36.6699 13.4766 36.6944 12.0972 35.4737 11.3525L26.2207 5.68848C25.0366 4.96826 23.7549 5.50537 23.7549 6.95801L23.7549 18.6035C23.7549 20.0928 25.0611 20.5933 26.2207 19.8853ZM25.9644 18.1152C25.8179 18.2007 25.5371 18.2129 25.5371 17.9077L25.5371 7.66602C25.5371 7.33643 25.8423 7.37305 25.9644 7.4585L34.1553 12.5244C34.4483 12.7197 34.3506 12.9272 34.1553 13.0371Z" fill="#5ac8f5"/>
 </g>
</svg>
