<?xml version="1.0" encoding="UTF-8"?>
<!--Generator: Apple Native CoreSVG 175.5-->
<!DOCTYPE svg
PUBLIC "-//W3C//DTD SVG 1.1//EN"
       "http://www.w3.org/Graphics/SVG/1.1/DTD/svg11.dtd">
<svg version="1.1" xmlns="http://www.w3.org/2000/svg" xmlns:xlink="http://www.w3.org/1999/xlink" width="16.4047" height="27.5757">
 <g>
  <rect height="27.5757" opacity="0" width="16.4047" x="0" y="0"/>
  <path d="M8.20359 5.26123C9.66843 5.26123 10.8403 4.10156 10.8403 2.63672C10.8403 1.17188 9.66843 0 8.20359 0C6.73875 0 5.56687 1.17188 5.56687 2.63672C5.56687 4.10156 6.73875 5.26123 8.20359 5.26123ZM8.20359 17.0776C8.70408 17.0776 8.89939 17.4194 9.18015 18.2983C9.59519 19.5312 10.8281 24.646 11.2431 26.1475C11.4507 26.9043 11.8413 27.2217 12.415 27.2217C13.1963 27.2217 13.6723 26.5137 13.4526 25.7446C13.3672 25.415 11.5971 18.0176 11.3408 16.4917C11.1333 15.1489 11.0845 12.439 11.0845 11.1572C11.0845 10.9619 11.3042 10.8887 11.4262 11.0596C12.3418 12.3413 14.0141 14.7339 14.3437 15.1245C14.7099 15.5396 15.2959 15.6128 15.772 15.3442C16.3945 15.0146 16.541 14.3433 16.2846 13.8794C16.187 13.6963 16.0527 13.5132 15.9306 13.3301L12.769 8.6792C11.768 7.20215 10.5229 6.54297 8.20359 6.54297C5.88425 6.54297 4.63914 7.20215 3.63816 8.6792L0.47654 13.3301C0.35447 13.5132 0.220192 13.6963 0.122536 13.8794C-0.133812 14.3433 0.000465792 15.0146 0.635231 15.3442C1.11131 15.6128 1.69724 15.5396 2.05125 15.1245C2.38084 14.7339 4.06541 12.3535 4.98093 11.0596C5.0908 10.9009 5.32273 10.9619 5.32273 11.1694C5.32273 12.4512 5.2617 15.1489 5.05418 16.4917C4.81004 18.0176 3.04002 25.415 2.95457 25.7446C2.73484 26.5137 3.21092 27.2217 3.99217 27.2217C4.5659 27.2217 4.95652 26.9043 5.16404 26.1475C5.57908 24.646 6.81199 19.5312 7.22703 18.2983C7.50779 17.4194 7.7031 17.0776 8.20359 17.0776Z" fill="#5ac8f5"/>
 </g>
</svg>
