<?xml version="1.0" encoding="UTF-8"?>
<!--Generator: Apple Native CoreSVG 175.5-->
<!DOCTYPE svg
PUBLIC "-//W3C//DTD SVG 1.1//EN"
       "http://www.w3.org/Graphics/SVG/1.1/DTD/svg11.dtd">
<svg version="1.1" xmlns="http://www.w3.org/2000/svg" xmlns:xlink="http://www.w3.org/1999/xlink" width="16.4474" height="27.478">
 <g>
  <rect height="27.478" opacity="0" width="16.4474" x="0" y="0"/>
  <path d="M2.04306 26.3428L5.71738 21.9727C6.07138 21.5454 6.13241 21.4478 6.2789 20.9961L6.54745 20.166L4.58212 17.7002L3.98398 20.459L0.358489 24.7559C-0.788972 26.1353 1.10312 27.478 2.04306 26.3428ZM10.9786 25.9766C11.7354 27.5024 13.9815 26.5625 13.1637 24.9023L10.6734 19.8608C10.4781 19.4824 10.2218 19.0674 9.98984 18.7378L8.41513 16.5039L8.52499 16.1743C8.94003 14.9048 9.09872 14.1479 9.19638 12.8906L9.44052 9.36279C9.56259 7.69043 8.57382 6.4209 6.85263 6.4209C5.57089 6.4209 4.69198 7.06787 3.5079 8.22754L1.64023 10.0708C1.02988 10.6689 0.834563 11.1572 0.773528 11.9507L0.553801 14.8315C0.492766 15.564 0.895598 16.0767 1.56698 16.1011C2.25058 16.1499 2.66562 15.7471 2.72665 14.9658L3.00741 11.8042L3.89853 10.9985C4.22812 10.7056 4.64316 10.9009 4.63095 11.2305L4.43564 13.9038C4.32577 15.2588 4.64316 15.9058 5.57089 17.0654L8.04892 20.166C8.29306 20.4834 8.31747 20.6055 8.42734 20.8008ZM15.2267 11.1816L12.4068 11.1816L10.6368 9.21631L10.4293 12.1582L11.1373 12.8662C11.5279 13.2568 11.8697 13.3789 12.6021 13.3789L15.2267 13.3789C15.9591 13.3789 16.4474 12.9639 16.4474 12.2803C16.4474 11.6211 15.9469 11.1816 15.2267 11.1816ZM8.21982 5.32227C9.68466 5.32227 10.8687 4.12598 10.8687 2.66113C10.8687 1.18408 9.68466 0 8.21982 0C6.74277 0 5.55868 1.18408 5.55868 2.66113C5.55868 4.12598 6.74277 5.32227 8.21982 5.32227Z" fill="#5ac8f5"/>
 </g>
</svg>
