<?xml version="1.0" encoding="UTF-8"?>
<!--Generator: Apple Native CoreSVG 175.5-->
<!DOCTYPE svg
PUBLIC "-//W3C//DTD SVG 1.1//EN"
       "http://www.w3.org/Graphics/SVG/1.1/DTD/svg11.dtd">
<svg version="1.1" xmlns="http://www.w3.org/2000/svg" xmlns:xlink="http://www.w3.org/1999/xlink" width="15.8936" height="22.0825">
 <g>
  <rect height="22.0825" opacity="0" width="15.8936" x="0" y="0"/>
  <path d="M5.07812 22.0459L5.31006 22.0459C11.9385 22.0459 15.8936 16.8701 15.8936 12.7075C15.8936 12.0605 15.5518 11.5723 14.8438 11.5723C14.1357 11.5723 13.8184 11.9873 13.7207 12.7075C13.3057 16.3818 10.4126 19.7388 5.96924 19.751L5.96924 1.2085C5.96924 0.488281 5.49316 0 4.79736 0C4.10156 0 3.6377 0.476074 3.6377 1.2085L3.6377 20.5933C3.6377 21.4966 4.18701 22.0459 5.07812 22.0459ZM0.756836 8.71582C0.90332 8.71582 1.06201 8.6792 1.2085 8.61816L11.0718 4.46777C11.4746 4.30908 11.6333 4.06494 11.6333 3.68652C11.6333 3.23486 11.3281 2.91748 10.8765 2.91748C10.73 2.91748 10.5713 2.9541 10.437 3.01514L0.561523 7.16553C0.158691 7.32422 0 7.56836 0 7.94678C0 8.38623 0.305176 8.71582 0.756836 8.71582ZM0.756836 13.5132C0.90332 13.5132 1.06201 13.4644 1.2085 13.4155L11.0718 9.26514C11.4746 9.10645 11.6333 8.8623 11.6333 8.48389C11.6333 8.03223 11.3281 7.71484 10.8765 7.71484C10.73 7.71484 10.5713 7.75146 10.437 7.8125L0.561523 11.9629C0.158691 12.1216 0 12.3657 0 12.7441C0 13.1958 0.305176 13.5132 0.756836 13.5132Z" fill="#5ac8f5"/>
 </g>
</svg>
