<?xml version="1.0" encoding="UTF-8"?>
<!--Generator: Apple Native CoreSVG 175.5-->
<!DOCTYPE svg
PUBLIC "-//W3C//DTD SVG 1.1//EN"
       "http://www.w3.org/Graphics/SVG/1.1/DTD/svg11.dtd">
<svg version="1.1" xmlns="http://www.w3.org/2000/svg" xmlns:xlink="http://www.w3.org/1999/xlink" width="12.1094" height="27.0386">
 <g>
  <rect height="27.0386" opacity="0" width="12.1094" x="0" y="0"/>
  <path d="M0 24.3286C0 25.9399 1.07422 26.9653 2.7832 26.9653L9.32617 26.9653C11.0352 26.9653 12.1094 25.9399 12.1094 24.3286L12.1094 2.63672C12.1094 1.0376 11.0352 0 9.32617 0L2.7832 0C1.07422 0 0 1.0376 0 2.63672ZM6.06689 16.7969C5.18799 16.7969 4.49219 16.1011 4.49219 15.2466C4.49219 14.3677 5.18799 13.6841 6.06689 13.6841C6.92139 13.6841 7.61719 14.3677 7.61719 15.2466C7.61719 16.1011 6.92139 16.7969 6.06689 16.7969ZM6.06689 11.9873C3.78418 11.9873 1.9165 10.1196 1.9165 7.83691C1.9165 5.5542 3.78418 3.68652 6.06689 3.68652C8.34961 3.68652 10.2051 5.5542 10.2051 7.83691C10.2051 10.1196 8.34961 11.9873 6.06689 11.9873ZM6.06689 9.50928C6.99463 9.50928 7.73926 8.76465 7.73926 7.83691C7.73926 6.90918 6.99463 6.15234 6.06689 6.15234C5.13916 6.15234 4.38232 6.90918 4.38232 7.83691C4.38232 8.76465 5.13916 9.50928 6.06689 9.50928Z" fill="#5ac8f5"/>
 </g>
</svg>
