<?xml version="1.0" encoding="UTF-8"?>
<!--Generator: Apple Native CoreSVG 175.5-->
<!DOCTYPE svg
PUBLIC "-//W3C//DTD SVG 1.1//EN"
       "http://www.w3.org/Graphics/SVG/1.1/DTD/svg11.dtd">
<svg version="1.1" xmlns="http://www.w3.org/2000/svg" xmlns:xlink="http://www.w3.org/1999/xlink" width="22.4731" height="22.4976">
 <g>
  <rect height="22.4976" opacity="0" width="22.4731" x="0" y="0"/>
  <path d="M3.83301 22.4976L18.6401 22.4976C21.2036 22.4976 22.4731 21.228 22.4731 18.7134L22.4731 3.80859C22.4731 1.29395 21.2036 0.0244141 18.6401 0.0244141L3.83301 0.0244141C1.28174 0.0244141 0 1.28174 0 3.80859L0 18.7134C0 21.2402 1.28174 22.4976 3.83301 22.4976Z" fill="#5ac8f5" fill-opacity="0.25"/>
  <path d="M7.9834 16.4062C7.38525 16.4062 6.93359 15.9668 6.93359 15.3931C6.93359 14.9048 7.15332 14.624 7.67822 14.3799L14.0625 11.2427L14.0625 11.1694L7.67822 7.95898C7.16553 7.71484 6.93359 7.40967 6.93359 6.93359C6.93359 6.37207 7.37305 5.93262 7.95898 5.93262C8.23975 5.93262 8.39844 5.99365 8.60596 6.09131L16.1133 10.1318C16.6016 10.4126 16.8579 10.7666 16.8579 11.2427C16.8579 11.7676 16.626 12.085 16.1133 12.3535L8.60596 16.2598C8.41064 16.3452 8.23975 16.4062 7.9834 16.4062Z" fill="#5ac8f5"/>
 </g>
</svg>
