<?xml version="1.0" encoding="UTF-8"?>
<!--Generator: Apple Native CoreSVG 175.5-->
<!DOCTYPE svg
PUBLIC "-//W3C//DTD SVG 1.1//EN"
       "http://www.w3.org/Graphics/SVG/1.1/DTD/svg11.dtd">
<svg version="1.1" xmlns="http://www.w3.org/2000/svg" xmlns:xlink="http://www.w3.org/1999/xlink" width="15.686" height="25.8667">
 <g>
  <rect height="25.8667" opacity="0" width="15.686" x="0" y="0"/>
  <path d="M3.57666 23.877C2.53906 23.877 1.96533 23.3276 1.96533 22.3511L1.96533 3.49121C1.96533 2.51465 2.53906 1.96533 3.57666 1.96533L12.1216 1.96533C13.147 1.96533 13.7207 2.51465 13.7207 3.49121L13.7207 22.3511C13.7207 23.3276 13.147 23.877 12.1216 23.877Z" fill="#5ac8f5" fill-opacity="0.25"/>
  <path d="M3.32031 25.8423L12.3657 25.8423C14.3555 25.8423 15.686 24.5728 15.686 22.6685L15.686 3.17383C15.686 1.26953 14.3555 0 12.3657 0L3.32031 0C1.33057 0 0 1.26953 0 3.17383L0 22.6685C0 24.5728 1.33057 25.8423 3.32031 25.8423ZM3.57666 23.877C2.53906 23.877 1.96533 23.3276 1.96533 22.3511L1.96533 3.49121C1.96533 2.51465 2.53906 1.96533 3.57666 1.96533L12.1216 1.96533C13.147 1.96533 13.7207 2.51465 13.7207 3.49121L13.7207 22.3511C13.7207 23.3276 13.147 23.877 12.1216 23.877ZM5.95703 24.1577L9.74121 24.1577L9.74121 23.4619C9.74121 22.9614 9.41162 22.6196 8.91113 22.6196L6.79932 22.6196C6.28662 22.6196 5.95703 22.9614 5.95703 23.4619Z" fill="#5ac8f5"/>
 </g>
</svg>
