<?xml version="1.0" encoding="UTF-8"?>
<!--Generator: Apple Native CoreSVG 175.5-->
<!DOCTYPE svg
PUBLIC "-//W3C//DTD SVG 1.1//EN"
       "http://www.w3.org/Graphics/SVG/1.1/DTD/svg11.dtd">
<svg version="1.1" xmlns="http://www.w3.org/2000/svg" xmlns:xlink="http://www.w3.org/1999/xlink" width="24.9023" height="24.9146">
 <g>
  <rect height="24.9146" opacity="0" width="24.9023" x="0" y="0"/>
  <path d="M12.4512 24.9023C19.2627 24.9023 24.9023 19.2505 24.9023 12.4512C24.9023 5.63965 19.2505 0 12.439 0C5.63965 0 0 5.63965 0 12.4512C0 19.2505 5.65186 24.9023 12.4512 24.9023ZM12.4512 22.8271C6.68945 22.8271 2.0874 18.2129 2.0874 12.4512C2.0874 6.68945 6.67725 2.0752 12.439 2.0752C18.2007 2.0752 22.8271 6.68945 22.8271 12.4512C22.8271 18.2129 18.2129 22.8271 12.4512 22.8271ZM4.12598 13.6108C4.12598 14.5142 4.57764 15.2344 5.50537 15.2344C6.18896 15.2344 6.99463 15.1978 8.36182 14.7827C9.15527 14.5264 9.49707 14.1602 9.50928 13.3057L9.52148 12.5366C9.52148 12.4023 9.59473 12.3047 9.77783 12.2437C10.1929 12.1094 11.145 11.9385 12.439 11.9385C13.7329 11.9385 14.6851 12.1094 15.1001 12.2437C15.2832 12.3047 15.3564 12.4023 15.3564 12.5366L15.3687 13.3057C15.3931 14.1602 15.7349 14.5264 16.5161 14.7827C17.8833 15.1978 18.689 15.2344 19.3726 15.2344C20.3003 15.2344 20.752 14.5142 20.752 13.6108L20.752 13.4888C20.752 10.2173 16.4551 8.69141 12.439 8.69141C8.42285 8.69141 4.12598 10.2173 4.12598 13.4888Z" fill="#5ac8f5"/>
 </g>
</svg>
