<?xml version="1.0" encoding="UTF-8"?>
<!--Generator: Apple Native CoreSVG 175.5-->
<!DOCTYPE svg
PUBLIC "-//W3C//DTD SVG 1.1//EN"
       "http://www.w3.org/Graphics/SVG/1.1/DTD/svg11.dtd">
<svg version="1.1" xmlns="http://www.w3.org/2000/svg" xmlns:xlink="http://www.w3.org/1999/xlink" width="24.9023" height="24.9146">
 <g>
  <rect height="24.9146" opacity="0" width="24.9023" x="0" y="0"/>
  <path d="M12.4512 24.9023C19.2627 24.9023 24.9023 19.2505 24.9023 12.4512C24.9023 5.63965 19.2505 0 12.439 0C5.63965 0 0 5.63965 0 12.4512C0 19.2505 5.65186 24.9023 12.4512 24.9023ZM15.7959 13.4277L11.2427 8.88672L17.1875 6.06689C18.2129 5.57861 19.0674 6.45752 18.6035 7.4585ZM5.3833 13.5132C4.22363 13.5132 4.08936 12.2925 4.93164 11.8774L8.06885 10.3882L11.1938 13.5132ZM12.8418 19.7388C12.4512 20.5811 11.2183 20.459 11.2183 19.2993L11.2183 13.5376L14.2944 16.626ZM17.8833 18.6279L6.27441 7.01904C6.03027 6.7749 6.03027 6.40869 6.27441 6.18896C6.50635 5.93262 6.86035 5.94482 7.1167 6.18896L18.7256 17.7856C18.9697 18.0176 18.9575 18.3838 18.7256 18.6279C18.5059 18.8477 18.1152 18.8599 17.8833 18.6279Z" fill="#5ac8f5"/>
 </g>
</svg>
