<?xml version="1.0" encoding="UTF-8"?>
<!--Generator: Apple Native CoreSVG 175.5-->
<!DOCTYPE svg
PUBLIC "-//W3C//DTD SVG 1.1//EN"
       "http://www.w3.org/Graphics/SVG/1.1/DTD/svg11.dtd">
<svg version="1.1" xmlns="http://www.w3.org/2000/svg" xmlns:xlink="http://www.w3.org/1999/xlink" width="28.8208" height="20.8618">
 <g>
  <rect height="20.8618" opacity="0" width="28.8208" x="0" y="0"/>
  <path d="M5.18799 15.3564C5.18799 15.8325 5.56641 16.2231 6.04248 16.2231L22.7783 16.2231C23.2544 16.2231 23.6328 15.8325 23.6328 15.3564C23.6328 14.8804 23.2544 14.502 22.7783 14.502L6.04248 14.502C5.56641 14.502 5.18799 14.8804 5.18799 15.3564ZM0 15.3564C0 18.457 2.40479 20.8618 5.79834 20.8618L23.0225 20.8618C26.416 20.8618 28.8208 18.457 28.8208 15.3564C28.8208 14.4409 28.5522 13.623 28.2349 12.854L24.1211 2.97852C23.3154 1.02539 21.6553 0.0244141 19.4702 0.0244141L9.35059 0.0244141C7.16553 0.0244141 5.50537 1.02539 4.69971 2.97852L0.57373 12.854C0.268555 13.6108 0 14.4409 0 15.3564ZM1.96533 15.3564C1.96533 13.3423 3.49121 11.8164 5.79834 11.8164L23.0225 11.8164C25.3296 11.8164 26.8555 13.3423 26.8555 15.3564C26.8555 17.6147 25.3296 18.8965 23.0225 18.8965L5.79834 18.8965C3.49121 18.8965 1.96533 17.3706 1.96533 15.3564ZM3.94287 10.1685L6.604 3.479C7.06787 2.31934 8.06885 1.7334 9.44824 1.7334L19.3726 1.7334C20.752 1.7334 21.7651 2.31934 22.2168 3.479L24.8779 10.1685C24.3042 9.96094 23.6938 9.85107 23.0225 9.85107L5.79834 9.85107C5.12695 9.85107 4.50439 9.96094 3.94287 10.1685Z" fill="#5ac8f5"/>
 </g>
</svg>
