<?xml version="1.0" encoding="UTF-8"?>
<!--Generator: Apple Native CoreSVG 175.5-->
<!DOCTYPE svg
PUBLIC "-//W3C//DTD SVG 1.1//EN"
       "http://www.w3.org/Graphics/SVG/1.1/DTD/svg11.dtd">
<svg version="1.1" xmlns="http://www.w3.org/2000/svg" xmlns:xlink="http://www.w3.org/1999/xlink" width="22.4731" height="18.4204">
 <g>
  <rect height="18.4204" opacity="0" width="22.4731" x="0" y="0"/>
  <path d="M0 17.4316C0 17.9688 0.439453 18.4204 0.976562 18.4204C1.52588 18.4204 1.96533 17.9688 1.96533 17.4316L1.96533 1.00098C1.96533 0.463867 1.52588 0.0244141 0.976562 0.0244141C0.439453 0.0244141 0 0.463867 0 1.00098ZM20.5078 17.4316C20.5078 17.9688 20.9595 18.4204 21.4966 18.4204C22.0337 18.4204 22.4731 17.9688 22.4731 17.4316L22.4731 1.00098C22.4731 0.463867 22.0337 0.0244141 21.4966 0.0244141C20.9595 0.0244141 20.5078 0.463867 20.5078 1.00098Z" fill="#5ac8f5"/>
 </g>
</svg>
