<?xml version="1.0" encoding="UTF-8"?>
<!--Generator: Apple Native CoreSVG 175.5-->
<!DOCTYPE svg
PUBLIC "-//W3C//DTD SVG 1.1//EN"
       "http://www.w3.org/Graphics/SVG/1.1/DTD/svg11.dtd">
<svg version="1.1" xmlns="http://www.w3.org/2000/svg" xmlns:xlink="http://www.w3.org/1999/xlink" width="28.5645" height="22.9523">
 <g>
  <rect height="22.9523" opacity="0" width="28.5645" x="0" y="0"/>
  <path d="M6.50635 0.373855L0.341797 6.66048C0.134277 6.8802 0 7.19759 0 7.46614C0 8.11311 0.439453 8.55257 1.07422 8.55257C1.3916 8.55257 1.63574 8.4427 1.84326 8.23518L4.38232 5.61067L6.34766 3.34016L6.22559 6.15999L6.22559 21.846C6.22559 22.493 6.67725 22.9447 7.32422 22.9447C7.95898 22.9447 8.41064 22.493 8.41064 21.846L8.41064 6.15999L8.30078 3.34016L10.2539 5.61067L12.8052 8.23518C13.0127 8.4427 13.2446 8.55257 13.562 8.55257C14.1968 8.55257 14.6362 8.11311 14.6362 7.46614C14.6362 7.19759 14.5142 6.8802 14.2944 6.66048L8.14209 0.373855C7.69043-0.102219 6.97021-0.126633 6.50635 0.373855ZM22.0703 22.5907L28.2227 16.2796C28.4424 16.0721 28.5645 15.7547 28.5645 15.474C28.5645 14.827 28.125 14.3997 27.4902 14.3997C27.1729 14.3997 26.9409 14.4974 26.7334 14.7049L24.1943 17.3294L22.229 19.6121L22.3389 16.7923L22.3389 1.10628C22.3389 0.471511 21.8872 0.00764388 21.2524 0.00764388C20.6055 0.00764388 20.1538 0.471511 20.1538 1.10628L20.1538 16.7923L20.2759 19.6121L18.3105 17.3294L15.7715 14.7049C15.564 14.4974 15.3198 14.3997 15.0146 14.3997C14.3799 14.3997 13.9282 14.827 13.9282 15.474C13.9282 15.7547 14.0625 16.0721 14.2822 16.2796L20.4346 22.5907C20.8862 23.0667 21.5942 23.0789 22.0703 22.5907Z" fill="#5ac8f5"/>
 </g>
</svg>
