<?xml version="1.0" encoding="UTF-8"?>
<!--Generator: Apple Native CoreSVG 175.5-->
<!DOCTYPE svg
PUBLIC "-//W3C//DTD SVG 1.1//EN"
       "http://www.w3.org/Graphics/SVG/1.1/DTD/svg11.dtd">
<svg version="1.1" xmlns="http://www.w3.org/2000/svg" xmlns:xlink="http://www.w3.org/1999/xlink" width="21.6675" height="26.9653">
 <g>
  <rect height="26.9653" opacity="0" width="21.6675" x="0" y="0"/>
  <path d="M3.83301 26.355L17.8345 26.355C20.3857 26.355 21.6675 25.0854 21.6675 22.5708L21.6675 10.3882C21.6675 7.87354 20.3857 6.604 17.8345 6.604L14.4287 6.604L14.4287 8.56934L17.7979 8.56934C19.0063 8.56934 19.7021 9.22852 19.7021 10.498L19.7021 22.4609C19.7021 23.7305 19.0063 24.3896 17.7979 24.3896L3.85742 24.3896C2.63672 24.3896 1.96533 23.7305 1.96533 22.4609L1.96533 10.498C1.96533 9.22852 2.63672 8.56934 3.85742 8.56934L7.23877 8.56934L7.23877 6.604L3.83301 6.604C1.28174 6.604 0 7.87354 0 10.3882L0 22.5708C0 25.0854 1.28174 26.355 3.83301 26.355ZM10.8276 18.3228C11.084 18.3228 11.2915 18.2495 11.5356 18.0054L15.6616 14.0137C15.8447 13.8306 15.9546 13.6353 15.9546 13.3789C15.9546 12.8784 15.564 12.5244 15.0635 12.5244C14.8193 12.5244 14.5752 12.6221 14.4043 12.8174L12.5488 14.7827L11.731 15.6494L11.8042 13.8184L11.8042 0.952148C11.8042 0.439453 11.3525 0 10.8276 0C10.3027 0 9.86328 0.439453 9.86328 0.952148L9.86328 13.8184L9.93652 15.6494L9.10645 14.7827L7.26318 12.8174C7.09229 12.6221 6.82373 12.5244 6.5918 12.5244C6.0791 12.5244 5.71289 12.8784 5.71289 13.3789C5.71289 13.6353 5.81055 13.8306 5.99365 14.0137L10.1196 18.0054C10.376 18.2495 10.5835 18.3228 10.8276 18.3228Z" fill="#5ac8f5"/>
 </g>
</svg>
