<?xml version="1.0" encoding="UTF-8"?>
<!--Generator: Apple Native CoreSVG 175.5-->
<!DOCTYPE svg
PUBLIC "-//W3C//DTD SVG 1.1//EN"
       "http://www.w3.org/Graphics/SVG/1.1/DTD/svg11.dtd">
<svg version="1.1" xmlns="http://www.w3.org/2000/svg" xmlns:xlink="http://www.w3.org/1999/xlink" width="30.6885" height="23.2056">
 <g>
  <rect height="23.2056" opacity="0" width="30.6885" x="0" y="0"/>
  <path d="M24.1211 21.2158C27.8076 21.2158 30.6885 18.5181 30.6885 15.1611C30.6885 12.5977 29.2114 10.376 26.8311 9.375C26.8555 3.93066 22.937 0 17.9443 0C14.6362 0 12.2803 1.77002 10.8154 3.90625C7.8125 3.02734 4.54102 5.31006 4.47998 8.72803C1.72119 9.16748 0 11.6333 0 14.6118C0 18.2007 3.13721 21.2158 7.31201 21.2158ZM24.1211 19.2505L7.31201 19.2505C4.23584 19.2505 1.96533 17.1021 1.96533 14.6118C1.96533 12.1704 3.44238 10.2295 6.03027 10.2295C6.20117 10.2295 6.26221 10.144 6.26221 9.98535C6.26221 6.22559 8.97217 5.11475 11.4746 5.93262C11.6211 5.98145 11.7065 5.94482 11.7798 5.81055C12.9639 3.69873 14.7827 1.96533 17.9443 1.96533C21.9482 1.96533 24.7192 5.13916 24.9268 8.76465C24.9634 9.32617 24.9268 9.98535 24.8779 10.5591C24.8657 10.7178 24.9268 10.8032 25.0732 10.8398C27.2949 11.3281 28.7231 12.9517 28.7231 15.1611C28.7231 17.4316 26.7212 19.2505 24.1211 19.2505Z" fill="#5ac8f5" fill-opacity="0.5"/>
  <path d="M10.4492 16.1987C11.792 17.5293 13.6719 17.5293 15.0269 16.1987L17.4927 13.7329C18.8354 12.4023 18.8232 10.5103 17.4927 9.16748C17.0654 8.72803 16.5894 8.49609 16.2231 8.38623L15.5884 9.00879C15.4663 9.14307 15.3076 9.31396 15.1367 9.55811C15.6494 9.47266 16.1499 9.66797 16.5649 10.0952C17.395 10.9131 17.4072 12.0605 16.5527 12.9028L14.1968 15.271C13.3667 16.1011 12.1948 16.1011 11.377 15.2832C10.5469 14.4409 10.5469 13.2812 11.377 12.4512L12.4146 11.4136C12.2559 10.8521 12.2803 10.2173 12.5366 9.5459L10.4492 11.6211C9.11865 12.9517 9.11865 14.856 10.4492 16.1987ZM20.874 5.78613C19.5435 4.44336 17.6392 4.44336 16.2964 5.77393L13.8306 8.23975C12.5 9.57031 12.5122 11.4746 13.8428 12.8174C14.27 13.2568 14.7705 13.4888 15.1001 13.5986L15.7471 12.9639C15.9546 12.7197 15.9912 12.6587 16.1011 12.4756C15.6372 12.4878 15.1489 12.2803 14.7583 11.8896C13.9282 11.0596 13.916 9.92432 14.7705 9.08203L17.1265 6.71387C17.9688 5.87158 19.1284 5.87158 19.9463 6.70166C20.7642 7.54395 20.7764 8.70361 19.9463 9.53369L18.9087 10.5469C19.0674 11.1328 19.043 11.7676 18.7866 12.439L20.874 10.3516C22.2046 9.00879 22.1924 7.1167 20.874 5.78613Z" fill="#5ac8f5"/>
 </g>
</svg>
