<?xml version="1.0" encoding="UTF-8"?>
<!--Generator: Apple Native CoreSVG 175.5-->
<!DOCTYPE svg
PUBLIC "-//W3C//DTD SVG 1.1//EN"
       "http://www.w3.org/Graphics/SVG/1.1/DTD/svg11.dtd">
<svg version="1.1" xmlns="http://www.w3.org/2000/svg" xmlns:xlink="http://www.w3.org/1999/xlink" width="37.8052" height="18.0298">
 <g>
  <rect height="18.0298" opacity="0" width="37.8052" x="0" y="0"/>
  <path d="M4.3457 18.0176C6.21338 18.0176 7.95898 17.0044 8.70361 15.4419L8.74023 15.4419L8.74023 17.0288C8.74023 17.627 9.15527 18.0298 9.729 18.0298C10.3271 18.0298 10.73 17.627 10.73 16.98L10.73 8.89893C10.73 6.25 8.78906 4.55322 5.7251 4.55322C3.43018 4.55322 1.55029 5.5542 0.842285 7.1167C0.708008 7.40967 0.622559 7.70264 0.622559 7.95898C0.622559 8.49609 1.01318 8.8501 1.53809 8.8501C1.9165 8.8501 2.20947 8.70361 2.39258 8.36182C3.06396 6.97021 4.10156 6.31104 5.66406 6.31104C7.55615 6.31104 8.66699 7.36084 8.66699 9.05762L8.66699 10.0952L4.77295 10.3149C1.70898 10.4858 0 11.9019 0 14.1479C0 16.4795 1.78223 18.0176 4.3457 18.0176ZM4.84619 16.3208C3.21045 16.3208 2.11182 15.4297 2.11182 14.1113C2.11182 12.8296 3.13721 11.9751 5.0293 11.853L8.66699 11.6211L8.66699 12.8906C8.66699 14.8193 6.97021 16.3208 4.84619 16.3208ZM14.1357 18.0176C14.7217 18.0176 15.1489 17.6147 15.1489 16.9922L15.1489 15.2344L15.1855 15.2344C15.979 16.9556 17.5781 18.0298 19.5923 18.0298C22.9248 18.0298 25.1221 15.3809 25.1221 11.2915C25.1221 7.20215 22.9126 4.55322 19.6167 4.55322C17.6392 4.55322 16.0278 5.63965 15.271 7.33643L15.21 7.33643L15.21 1.09863C15.21 0.439453 14.7949 0.012207 14.1846 0.012207C13.562 0.012207 13.147 0.439453 13.147 1.09863L13.147 16.9922C13.147 17.627 13.5498 18.0176 14.1357 18.0176ZM19.1406 16.2476C16.8335 16.2476 15.21 14.2822 15.21 11.3037C15.21 8.31299 16.8457 6.34766 19.1406 6.34766C21.5088 6.34766 22.998 8.26416 22.998 11.2915C22.998 14.3433 21.4966 16.2476 19.1406 16.2476ZM32.5439 18.0298C34.9365 18.0298 36.9995 16.7114 37.6953 14.8438C37.7563 14.6362 37.8052 14.4409 37.8052 14.27C37.8052 13.7451 37.4268 13.3789 36.9141 13.3789C36.4502 13.3789 36.2183 13.562 35.9375 14.0991C35.3027 15.4907 34.2041 16.2476 32.5562 16.2476C30.1636 16.2476 28.6011 14.3555 28.6011 11.3037C28.6011 8.27637 30.1758 6.33545 32.5562 6.33545C34.1309 6.33545 35.2661 7.08008 35.9131 8.5083C36.1816 9.021 36.4258 9.2041 36.8774 9.2041C37.4023 9.2041 37.7686 8.8623 37.7686 8.3252C37.7686 8.17871 37.7197 7.99561 37.6831 7.83691C37.0728 5.96924 34.9854 4.55322 32.5073 4.55322C28.8696 4.55322 26.4893 7.22656 26.4893 11.3159C26.4893 15.4297 28.894 18.0298 32.5439 18.0298Z" fill="#5ac8f5"/>
 </g>
</svg>
