<?xml version="1.0" encoding="UTF-8"?>
<!--Generator: Apple Native CoreSVG 175.5-->
<!DOCTYPE svg
PUBLIC "-//W3C//DTD SVG 1.1//EN"
       "http://www.w3.org/Graphics/SVG/1.1/DTD/svg11.dtd">
<svg version="1.1" xmlns="http://www.w3.org/2000/svg" xmlns:xlink="http://www.w3.org/1999/xlink" width="21.0779" height="26.5991">
 <g>
  <rect height="26.5991" opacity="0" width="21.0779" x="0" y="0"/>
  <path d="M8.17504 24.6216C8.65111 24.4873 8.94408 24.3408 9.13939 23.9746L11.8249 19.1406C11.8738 19.0552 11.9104 19.0186 12.0203 19.0186L18.5876 19.0186L18.5876 25.2075C18.5876 25.9155 19.1492 26.4526 19.8205 26.4526C20.5286 26.4526 21.0779 25.9155 21.0779 25.2075L21.0779 17.9199C21.0779 17.1021 20.6384 16.6138 19.7839 16.5405L14.2541 16.04L14.2541 9.09424C14.2541 7.73926 13.302 6.61621 11.6296 6.61621L11.0437 6.61621C10.0549 6.61621 9.29808 6.78711 8.32152 7.51953L4.21996 10.5957C3.51195 11.1084 3.56078 12.146 4.28099 12.6221L9.29808 15.9546L9.29808 16.272L7.11303 22.3267L0.911854 24.0356C0.252674 24.2188-0.137951 24.8901 0.0451549 25.5493C0.240467 26.2451 0.863026 26.5991 1.57103 26.416ZM7.11303 11.5234L8.96849 10.1318C9.11498 10.0342 9.29808 10.1074 9.29808 10.2905L9.29808 12.9761ZM11.6296 5.33447C13.0823 5.33447 14.2786 4.13818 14.2786 2.64893C14.2786 1.19629 13.0823 0 11.6296 0C10.1404 0 8.94408 1.19629 8.94408 2.64893C8.94408 4.13818 10.1404 5.33447 11.6296 5.33447Z" fill="#5ac8f5"/>
 </g>
</svg>
