<?xml version="1.0" encoding="UTF-8"?>
<!--Generator: Apple Native CoreSVG 175.5-->
<!DOCTYPE svg
PUBLIC "-//W3C//DTD SVG 1.1//EN"
       "http://www.w3.org/Graphics/SVG/1.1/DTD/svg11.dtd">
<svg version="1.1" xmlns="http://www.w3.org/2000/svg" xmlns:xlink="http://www.w3.org/1999/xlink" width="29.1138" height="16.7358">
 <g>
  <rect height="16.7358" opacity="0" width="29.1138" x="0" y="0"/>
  <path d="M1.5625 16.7358C2.44141 16.7358 3.16162 16.0278 3.16162 15.1611C3.16162 14.3066 2.44141 13.5986 1.5625 13.5986C0.708008 13.5986 0 14.3066 0 15.1611C0 16.0156 0.708008 16.7358 1.5625 16.7358ZM4.88281 7.84912C5.74951 7.84912 6.45752 7.14111 6.45752 6.28662C6.45752 5.41992 5.74951 4.71191 4.88281 4.71191C4.02832 4.71191 3.30811 5.41992 3.30811 6.28662C3.30811 7.14111 4.02832 7.84912 4.88281 7.84912ZM14.5508 3.6499C15.4053 3.6499 16.1255 2.92969 16.1255 2.06299C16.1255 1.2085 15.4053 0.500488 14.5508 0.500488C13.7085 0.500488 12.9883 1.2085 12.9883 2.06299C12.9883 2.92969 13.7085 3.6499 14.5508 3.6499ZM24.2676 7.84912C25.1221 7.84912 25.8301 7.14111 25.8301 6.28662C25.8301 5.41992 25.1221 4.71191 24.2676 4.71191C23.4009 4.71191 22.6929 5.41992 22.6929 6.28662C22.6929 7.14111 23.4009 7.84912 24.2676 7.84912ZM27.5513 16.7358C28.4058 16.7358 29.1138 16.0156 29.1138 15.1611C29.1138 14.2944 28.4058 13.5864 27.5513 13.5864C26.6602 13.5864 25.9521 14.2944 25.9521 15.1611C25.9521 16.0156 26.6602 16.7358 27.5513 16.7358ZM9.61914 16.3452L19.397 16.3452C19.9829 16.3452 20.4834 15.8447 20.4834 15.271C20.4834 14.6729 19.9829 14.1846 19.397 14.1846L9.61914 14.1846C9.021 14.1846 8.52051 14.6851 8.52051 15.271C8.52051 15.8447 9.0332 16.3452 9.61914 16.3452Z" fill="#5ac8f5"/>
 </g>
</svg>
