<?xml version="1.0" encoding="UTF-8"?>
<!--Generator: Apple Native CoreSVG 175.5-->
<!DOCTYPE svg
PUBLIC "-//W3C//DTD SVG 1.1//EN"
       "http://www.w3.org/Graphics/SVG/1.1/DTD/svg11.dtd">
<svg version="1.1" xmlns="http://www.w3.org/2000/svg" xmlns:xlink="http://www.w3.org/1999/xlink" width="24.9023" height="24.9146">
 <g>
  <rect height="24.9146" opacity="0" width="24.9023" x="0" y="0"/>
  <path d="M12.4512 24.9023C19.2627 24.9023 24.9023 19.2505 24.9023 12.4512C24.9023 5.63965 19.2505 0 12.439 0C5.63965 0 0 5.63965 0 12.4512C0 19.2505 5.65186 24.9023 12.4512 24.9023ZM12.4512 19.6045C8.53271 19.6045 5.29785 16.3696 5.29785 12.4512C5.29785 10.7056 5.95703 9.06982 7.01904 7.83691C7.36084 7.43408 7.91016 7.38525 8.25195 7.73926C8.58154 8.06885 8.54492 8.55713 8.26416 8.89893C7.44629 9.86328 6.95801 11.0718 6.95801 12.4512C6.95801 15.5273 9.375 17.9443 12.4512 17.9443C15.5396 17.9443 17.9321 15.5273 17.9321 12.4512C17.9321 9.60693 15.918 7.34863 13.1836 7.00684L13.1836 8.09326C13.1836 8.52051 12.8662 8.87451 12.4268 8.87451C11.9751 8.87451 11.6699 8.52051 11.6699 8.09326L11.6699 6.10352C11.6699 5.63965 11.9385 5.29785 12.4634 5.29785C16.3696 5.29785 19.6045 8.53271 19.6045 12.4512C19.6045 16.3696 16.3696 19.6045 12.4512 19.6045ZM13.6475 13.5376C13.0249 14.1479 12.146 14.0259 11.6577 13.2812L9.44824 9.99756C9.11865 9.50928 9.63135 9.021 10.1318 9.32617L13.4155 11.5356C14.1357 12.0361 14.2578 12.8906 13.6475 13.5376Z" fill="#5ac8f5"/>
 </g>
</svg>
