<?xml version="1.0" encoding="UTF-8"?>
<!--Generator: Apple Native CoreSVG 175.5-->
<!DOCTYPE svg
PUBLIC "-//W3C//DTD SVG 1.1//EN"
       "http://www.w3.org/Graphics/SVG/1.1/DTD/svg11.dtd">
<svg version="1.1" xmlns="http://www.w3.org/2000/svg" xmlns:xlink="http://www.w3.org/1999/xlink" width="28.8818" height="22.6929">
 <g>
  <rect height="22.6929" opacity="0" width="28.8818" x="0" y="0"/>
  <path d="M14.4409 19.2871C18.5425 19.2871 23.999 19.0796 26.3062 18.811C27.9663 18.6279 28.8818 17.7124 28.8818 16.1499L28.8818 14.0015C28.8818 11.9385 28.4668 10.791 27.3438 9.32617L26.3062 7.99561C25.8667 5.79834 25.0488 3.49121 24.6338 2.58789C23.9746 1.2085 22.7173 0.390625 21.0938 0.170898C20.2759 0.0610352 17.6025 0 14.4409 0C11.2915 0 8.61816 0.0732422 7.80029 0.170898C6.17676 0.366211 4.90723 1.2085 4.26025 2.58789C3.83301 3.49121 3.02734 5.79834 2.57568 7.99561L1.55029 9.32617C0.415039 10.791 0 11.9385 0 14.0015L0 16.1499C0 17.7124 0.927734 18.6279 2.57568 18.811C4.89502 19.0796 10.3394 19.2871 14.4409 19.2871ZM1.62354 22.644L3.05176 22.644C3.96729 22.644 4.67529 21.936 4.67529 21.0327L4.67529 17.9932L0 15.7715L0 21.0327C0 21.936 0.708008 22.644 1.62354 22.644ZM25.8301 22.644L27.2705 22.644C28.186 22.644 28.8818 21.936 28.8818 21.0327L28.8818 15.7715L24.2188 17.9932L24.2188 21.0327C24.2188 21.936 24.9146 22.644 25.8301 22.644ZM10.4614 10.4248C10.4614 10.2905 10.5225 10.1807 10.6201 10.0586L15.6616 3.72314C16.04 3.24707 16.6748 3.56445 16.4551 4.1626L14.7949 8.61816L17.9077 8.61816C18.1396 8.61816 18.3472 8.80127 18.3472 9.021C18.3472 9.14307 18.2861 9.27734 18.1641 9.38721L13.147 15.7227C12.7563 16.1987 12.1094 15.8691 12.3413 15.2832L14.0137 10.8154L10.8887 10.8154C10.6567 10.8154 10.4614 10.6445 10.4614 10.4248Z" fill="#5ac8f5"/>
 </g>
</svg>
