<?xml version="1.0" encoding="UTF-8"?>
<!--Generator: Apple Native CoreSVG 175.5-->
<!DOCTYPE svg
PUBLIC "-//W3C//DTD SVG 1.1//EN"
       "http://www.w3.org/Graphics/SVG/1.1/DTD/svg11.dtd">
<svg version="1.1" xmlns="http://www.w3.org/2000/svg" xmlns:xlink="http://www.w3.org/1999/xlink" width="24.9023" height="24.9146">
 <g>
  <rect height="24.9146" opacity="0" width="24.9023" x="0" y="0"/>
  <path d="M12.4512 24.9023C19.2627 24.9023 24.9023 19.2505 24.9023 12.4512C24.9023 5.63965 19.2505 0 12.439 0C5.63965 0 0 5.63965 0 12.4512C0 19.2505 5.65186 24.9023 12.4512 24.9023Z" fill="#5ac8f5" fill-opacity="0.25"/>
  <path d="M12.4512 18.3594C9.24072 18.3594 7.00684 15.8936 7.00684 12.3413C7.00684 8.77686 9.24072 6.31104 12.4512 6.31104C15.6738 6.31104 17.9077 8.77686 17.9077 12.3413C17.9077 15.8936 15.6738 18.3594 12.4512 18.3594ZM12.4512 16.7725C14.5264 16.7725 15.8813 15.0146 15.8813 12.3413C15.8813 9.65576 14.5264 7.89795 12.4512 7.89795C10.376 7.89795 9.021 9.65576 9.021 12.3413C9.021 15.0146 10.376 16.7725 12.4512 16.7725Z" fill="#5ac8f5"/>
 </g>
</svg>
