<?xml version="1.0" encoding="UTF-8"?>
<!--Generator: Apple Native CoreSVG 175.5-->
<!DOCTYPE svg
PUBLIC "-//W3C//DTD SVG 1.1//EN"
       "http://www.w3.org/Graphics/SVG/1.1/DTD/svg11.dtd">
<svg version="1.1" xmlns="http://www.w3.org/2000/svg" xmlns:xlink="http://www.w3.org/1999/xlink" width="22.4731" height="22.4976">
 <g>
  <rect height="22.4976" opacity="0" width="22.4731" x="0" y="0"/>
  <path d="M3.83301 22.4976L18.6401 22.4976C21.2036 22.4976 22.4731 21.228 22.4731 18.7134L22.4731 3.80859C22.4731 1.29395 21.2036 0.0244141 18.6401 0.0244141L3.83301 0.0244141C1.28174 0.0244141 0 1.28174 0 3.80859L0 18.7134C0 21.2402 1.28174 22.4976 3.83301 22.4976ZM3.85742 20.5322C2.63672 20.5322 1.96533 19.8853 1.96533 18.6157L1.96533 3.90625C1.96533 2.63672 2.63672 1.98975 3.85742 1.98975L18.6157 1.98975C19.8242 1.98975 20.5078 2.63672 20.5078 3.90625L20.5078 18.6157C20.5078 19.8853 19.8242 20.5322 18.6157 20.5322ZM7.38525 16.7725L14.8071 16.7725C15.2344 16.7725 15.5396 16.4917 15.5396 16.0522C15.5396 15.625 15.2344 15.3442 14.8071 15.3442L9.50928 15.3442C10.1318 14.8071 10.5591 13.8306 10.5591 12.793C10.5591 12.3657 10.5103 11.9873 10.4248 11.6333L13.4766 11.6333C13.8672 11.6333 14.1602 11.377 14.1602 10.9741C14.1602 10.5835 13.8672 10.3271 13.4766 10.3271L10.1074 10.3271C9.99756 9.86328 9.8999 9.36279 9.8999 8.77686C9.8999 7.4585 10.8398 6.55518 12.439 6.55518C13.4888 6.55518 13.9893 6.83594 14.3188 6.83594C14.7705 6.83594 14.978 6.57959 14.978 6.18896C14.978 5.85938 14.8193 5.60303 14.3555 5.43213C13.7939 5.2124 13.1226 5.11475 12.3535 5.11475C9.83887 5.11475 8.30078 6.57959 8.30078 8.87451C8.30078 9.36279 8.38623 9.85107 8.5083 10.3271L7.38525 10.3271C6.99463 10.3271 6.71387 10.5835 6.71387 10.9741C6.71387 11.377 6.99463 11.6333 7.38525 11.6333L8.82568 11.6333C8.93555 12.0483 9.00879 12.4634 9.00879 12.854C9.00879 14.1479 8.21533 15.0024 7.2998 15.2588C6.86035 15.4053 6.66504 15.6372 6.66504 16.0522C6.66504 16.4795 6.95801 16.7725 7.38525 16.7725Z" fill="#5ac8f5"/>
 </g>
</svg>
