<?xml version="1.0" encoding="UTF-8"?>
<!--Generator: Apple Native CoreSVG 175.5-->
<!DOCTYPE svg
PUBLIC "-//W3C//DTD SVG 1.1//EN"
       "http://www.w3.org/Graphics/SVG/1.1/DTD/svg11.dtd">
<svg version="1.1" xmlns="http://www.w3.org/2000/svg" xmlns:xlink="http://www.w3.org/1999/xlink" width="24.9023" height="24.9146">
 <g>
  <rect height="24.9146" opacity="0" width="24.9023" x="0" y="0"/>
  <path d="M12.4512 24.9023C19.2627 24.9023 24.9023 19.2505 24.9023 12.4512C24.9023 5.63965 19.2505 0 12.439 0C5.63965 0 0 5.63965 0 12.4512C0 19.2505 5.65186 24.9023 12.4512 24.9023ZM5.77393 11.3525C6.25 8.6792 8.30078 6.50635 10.9253 5.9082C11.0962 6.34766 11.1694 6.81152 11.1694 7.31201C11.1694 9.70459 9.35059 11.5112 6.97021 11.5112C6.54297 11.5112 6.14014 11.4502 5.77393 11.3525ZM12.4268 19.2383C8.74023 19.2383 5.67627 16.1743 5.67627 12.4878C5.67627 12.4268 5.67627 12.3657 5.67627 12.3047C6.09131 12.4146 6.53076 12.4634 6.97021 12.4634C9.82666 12.4634 12.1216 10.1562 12.1216 7.31201C12.1216 6.7627 12.0483 6.23779 11.8896 5.74951C12.0728 5.7373 12.2437 5.7251 12.4268 5.7251C16.1133 5.7251 19.1895 8.78906 19.1895 12.4878C19.1895 12.5366 19.1895 12.5854 19.1895 12.6343C18.7622 12.5244 18.3472 12.4634 17.9077 12.4634C15.0391 12.4634 12.7563 14.7827 12.7563 17.627C12.7563 18.1763 12.8296 18.7134 13.0005 19.2139C12.8174 19.2383 12.6099 19.2383 12.4268 19.2383ZM13.9648 19.0552C13.7817 18.6157 13.7085 18.1396 13.7085 17.627C13.7085 15.2344 15.5151 13.4155 17.9077 13.4155C18.335 13.4155 18.7134 13.4766 19.0918 13.5986C18.6523 16.2598 16.5771 18.4326 13.9648 19.0552Z" fill="#5ac8f5"/>
 </g>
</svg>
