<?xml version="1.0" encoding="UTF-8"?>
<!--Generator: Apple Native CoreSVG 175.5-->
<!DOCTYPE svg
PUBLIC "-//W3C//DTD SVG 1.1//EN"
       "http://www.w3.org/Graphics/SVG/1.1/DTD/svg11.dtd">
<svg version="1.1" xmlns="http://www.w3.org/2000/svg" xmlns:xlink="http://www.w3.org/1999/xlink" width="24.9023" height="24.9146">
 <g>
  <rect height="24.9146" opacity="0" width="24.9023" x="0" y="0"/>
  <path d="M12.4512 24.9023C19.2627 24.9023 24.9023 19.2505 24.9023 12.4512C24.9023 5.63965 19.2505 0 12.439 0C5.63965 0 0 5.63965 0 12.4512C0 19.2505 5.65186 24.9023 12.4512 24.9023ZM7.61719 17.9688L7.61719 7.70264C7.61719 7.10449 8.02002 6.71387 8.61816 6.71387L11.1694 6.71387C13.269 6.71387 14.2822 7.70264 14.2822 9.97314L14.2822 14.5752C14.2822 15.0513 13.9893 15.3564 13.5376 15.3564C13.0981 15.3564 12.7808 15.0513 12.7808 14.5752L12.7808 10.1929C12.7808 8.74023 12.1826 8.3374 10.8032 8.3374L9.13086 8.3374L9.13086 17.9565C9.13086 18.4204 8.83789 18.75 8.39844 18.75C7.95898 18.75 7.61719 18.4326 7.61719 17.9688ZM10.2295 17.627L10.2295 10.7178C10.2295 10.2417 10.5469 9.94873 10.9985 9.94873C11.4258 9.94873 11.731 10.2417 11.731 10.7178L11.731 16.98L13.501 16.98C14.917 16.98 15.3687 16.6992 15.3687 15.0879L15.3687 7.36084C15.3687 6.88477 15.6738 6.57959 16.1255 6.57959C16.5771 6.57959 16.8701 6.89697 16.8701 7.36084L16.8701 15.0879C16.8701 17.6147 15.9424 18.6035 13.8062 18.6035L11.1938 18.6035C10.5957 18.6035 10.2295 18.2251 10.2295 17.627Z" fill="#5ac8f5"/>
 </g>
</svg>
