<?xml version="1.0" encoding="UTF-8"?>
<!--Generator: Apple Native CoreSVG 175.5-->
<!DOCTYPE svg
PUBLIC "-//W3C//DTD SVG 1.1//EN"
       "http://www.w3.org/Graphics/SVG/1.1/DTD/svg11.dtd">
<svg version="1.1" xmlns="http://www.w3.org/2000/svg" xmlns:xlink="http://www.w3.org/1999/xlink" width="24.9023" height="24.9146">
 <g>
  <rect height="24.9146" opacity="0" width="24.9023" x="0" y="0"/>
  <path d="M12.4512 24.9023C19.2627 24.9023 24.9023 19.2505 24.9023 12.4512C24.9023 5.63965 19.2505 0 12.439 0C5.63965 0 0 5.63965 0 12.4512C0 19.2505 5.65186 24.9023 12.4512 24.9023ZM9.10645 17.8833C6.93359 17.8833 5.49316 15.8081 5.49316 12.4512C5.49316 9.09424 6.93359 7.01904 9.10645 7.01904C11.2793 7.01904 12.7075 9.09424 12.7075 12.4512C12.7075 15.8081 11.2793 17.8833 9.10645 17.8833ZM9.10645 16.3452C10.3149 16.3452 11.0474 14.8682 11.0474 12.4512C11.0474 10.0342 10.3027 8.55713 9.10645 8.55713C7.91016 8.55713 7.16553 10.0342 7.16553 12.4512C7.16553 14.8682 7.91016 16.3452 9.10645 16.3452ZM17.8467 17.7246C17.3828 17.7246 17.0654 17.4072 17.0654 16.9189L17.0654 9.10645L17.0044 9.10645L15.6616 10.0952C15.3687 10.3271 15.2466 10.3394 15.0391 10.3394C14.6729 10.3394 14.3188 10.0098 14.3188 9.58252C14.3188 9.25293 14.4775 9.021 14.7461 8.83789L16.6626 7.53174C17.1021 7.22656 17.3462 7.10449 17.7612 7.10449C18.2983 7.10449 18.6523 7.48291 18.6523 8.00781L18.6523 16.9189C18.6523 17.4072 18.3472 17.7246 17.8467 17.7246Z" fill="#5ac8f5"/>
 </g>
</svg>
