<?xml version="1.0" encoding="UTF-8"?>
<!--Generator: Apple Native CoreSVG 175.5-->
<!DOCTYPE svg
PUBLIC "-//W3C//DTD SVG 1.1//EN"
       "http://www.w3.org/Graphics/SVG/1.1/DTD/svg11.dtd">
<svg version="1.1" xmlns="http://www.w3.org/2000/svg" xmlns:xlink="http://www.w3.org/1999/xlink" width="24.9023" height="24.9878">
 <g>
  <rect height="24.9878" opacity="0" width="24.9023" x="0" y="0"/>
  <path d="M12.4512 24.9878C19.2627 24.9878 24.9023 19.3359 24.9023 12.5366C24.9023 5.7251 19.2505 0.0854492 12.439 0.0854492C5.63965 0.0854492 0 5.7251 0 12.5366C0 19.3359 5.65186 24.9878 12.4512 24.9878ZM12.4512 22.9126C6.68945 22.9126 2.0874 18.2861 2.0874 12.5366C2.0874 6.7749 6.67725 2.16064 12.439 2.16064C18.2007 2.16064 22.8271 6.7749 22.8271 12.5366C22.8271 18.2861 18.2129 22.9126 12.4512 22.9126Z" fill="#5ac8f5" fill-opacity="0.5"/>
  <path d="M9.04541 19.3481L15.8325 19.3481C17.1021 19.3481 17.6147 18.6768 17.7979 17.4194L18.6768 11.377L6.21338 11.377L7.08008 17.4194C7.26318 18.6768 7.78809 19.3481 9.04541 19.3481ZM10.5835 17.5903C10.2783 17.5903 10.0464 17.3462 10.0464 17.0654C10.0464 16.9189 10.1074 16.7969 10.2173 16.6992L11.6943 15.21L10.2173 13.7085C10.1074 13.6108 10.0464 13.4888 10.0464 13.3423C10.0464 13.0615 10.2783 12.8174 10.5835 12.8174C10.7178 12.8174 10.8398 12.8784 10.9375 12.9761L12.4268 14.4653L13.9404 12.9761C14.0381 12.8784 14.1602 12.8052 14.2944 12.8052C14.5996 12.8052 14.8315 13.0493 14.8315 13.3423C14.8315 13.4766 14.7827 13.5986 14.6729 13.7085L13.1836 15.21L14.6729 16.6992C14.7583 16.7969 14.8193 16.9189 14.8193 17.0654C14.8193 17.3462 14.5874 17.5903 14.2944 17.5903C14.1479 17.5903 14.0259 17.5171 13.9282 17.4316L12.4268 15.9546L10.9497 17.4316C10.8521 17.5293 10.7178 17.5903 10.5835 17.5903ZM5.85938 10.3882L19.0186 10.3882C19.751 10.3882 20.1294 9.94873 20.1294 9.22852L20.1294 8.60596C20.1294 7.87354 19.751 7.44629 19.0186 7.44629L5.85938 7.44629C5.16357 7.44629 4.74854 7.87354 4.74854 8.60596L4.74854 9.22852C4.74854 9.94873 5.12695 10.3882 5.85938 10.3882Z" fill="#5ac8f5"/>
 </g>
</svg>
