<?xml version="1.0" encoding="UTF-8"?>
<!--Generator: Apple Native CoreSVG 175.5-->
<!DOCTYPE svg
PUBLIC "-//W3C//DTD SVG 1.1//EN"
       "http://www.w3.org/Graphics/SVG/1.1/DTD/svg11.dtd">
<svg version="1.1" xmlns="http://www.w3.org/2000/svg" xmlns:xlink="http://www.w3.org/1999/xlink" width="24.9023" height="24.9146">
 <g>
  <rect height="24.9146" opacity="0" width="24.9023" x="0" y="0"/>
  <path d="M12.4512 24.9023C19.2627 24.9023 24.9023 19.2505 24.9023 12.4512C24.9023 5.63965 19.2505 0 12.439 0C5.63965 0 0 5.63965 0 12.4512C0 19.2505 5.65186 24.9023 12.4512 24.9023ZM12.4512 22.8271C6.68945 22.8271 2.0874 18.2129 2.0874 12.4512C2.0874 6.68945 6.67725 2.0752 12.439 2.0752C18.2007 2.0752 22.8271 6.68945 22.8271 12.4512C22.8271 18.2129 18.2129 22.8271 12.4512 22.8271ZM10.376 18.5547C10.8398 18.5547 11.1572 18.2251 11.1572 17.749L11.1572 16.5161L14.0137 16.5161C14.3677 16.5161 14.5996 16.2598 14.5996 15.9058C14.5996 15.564 14.3677 15.3076 14.0137 15.3076L11.1572 15.3076L11.1572 14.1113L13.2446 14.1113C15.5273 14.1113 16.9678 12.5977 16.9678 10.4858C16.9678 8.38623 15.5396 6.84814 13.2568 6.84814L10.3638 6.84814C9.8877 6.84814 9.57031 7.17773 9.57031 7.66602L9.57031 12.915L8.48389 12.915C8.11768 12.915 7.88574 13.1714 7.88574 13.5132C7.88574 13.855 8.11768 14.1235 8.48389 14.1235L9.57031 14.1235L9.57031 15.3076L8.49609 15.3076C8.14209 15.3076 7.89795 15.564 7.89795 15.9058C7.89795 16.2598 8.14209 16.5161 8.49609 16.5161L9.57031 16.5161L9.57031 17.749C9.57031 18.2251 9.91211 18.5547 10.376 18.5547ZM11.1694 12.6831L11.1694 8.31299L12.9761 8.31299C14.563 8.31299 15.3687 9.15527 15.3687 10.498C15.3687 11.853 14.5508 12.7075 12.9761 12.7075Z" fill="#5ac8f5"/>
 </g>
</svg>
