<?xml version="1.0" encoding="UTF-8"?>
<!--Generator: Apple Native CoreSVG 175.5-->
<!DOCTYPE svg
PUBLIC "-//W3C//DTD SVG 1.1//EN"
       "http://www.w3.org/Graphics/SVG/1.1/DTD/svg11.dtd">
<svg version="1.1" xmlns="http://www.w3.org/2000/svg" xmlns:xlink="http://www.w3.org/1999/xlink" width="27.062" height="24.6948">
 <g>
  <rect height="24.6948" opacity="0" width="27.062" x="0" y="0"/>
  <path d="M15.8071 12.3413C15.8071 19.5557 18.0898 24.3652 21.4345 24.3652C24.7793 24.3652 27.062 19.5557 27.062 12.3413C27.062 5.12695 24.7793 0.305176 21.4345 0.305176C18.0898 0.305176 15.8071 5.12695 15.8071 12.3413ZM9.32516 12.3413C9.32516 20.0195 11.4614 24.6826 16.5761 24.6826L17.9555 24.6826C16.9301 23.7793 16.0757 22.4609 15.4531 20.7886L13.8051 20.7886C13.3657 20.7886 12.9995 20.4224 12.9995 19.9829C12.9995 19.5435 13.3657 19.1895 13.8051 19.1895L14.9404 19.1895C14.7451 18.4814 14.5986 17.7246 14.4887 17.041L12.9751 17.041C12.5356 17.041 12.1694 16.687 12.1694 16.2476C12.1694 15.8081 12.5356 15.4419 12.9751 15.4419L14.2934 15.4419C14.208 14.6484 14.1591 13.7451 14.1469 12.9883L12.6577 12.9883C12.2182 12.9883 11.8642 12.6343 11.8642 12.1948C11.8642 11.7554 12.2182 11.3892 12.6577 11.3892L14.1591 11.3892C14.1714 10.5835 14.2202 9.74121 14.3178 8.94775L12.9751 8.94775C12.5356 8.94775 12.1694 8.58154 12.1694 8.14209C12.1694 7.70264 12.5356 7.34863 12.9751 7.34863L14.5376 7.34863C14.6596 6.5918 14.8183 5.88379 15.0258 5.2002L13.8051 5.2002C13.3657 5.2002 12.9995 4.84619 12.9995 4.40674C12.9995 3.96729 13.3657 3.60107 13.8051 3.60107L15.563 3.60107C16.1733 2.06299 16.9912 0.842285 17.9555 0L16.5761 0C11.4614 0 9.32516 4.65088 9.32516 12.3413ZM3.78317 2.29492C3.41696 2.29492 3.03854 2.46582 2.89206 2.89307C2.00094 5.3833 1.51266 8.05664 1.51266 10.9619C1.51266 13.855 1.98874 16.5405 2.89206 19.0308L4.62546 18.4082C3.78317 16.1133 3.35592 13.6475 3.35592 10.9619C3.35592 8.26416 3.78317 5.81055 4.62546 3.51562C4.90622 2.771 4.3569 2.29492 3.78317 2.29492ZM0.584929 18.0054C-0.1597 18.2739-0.171907 19.2383 0.426237 19.6045L4.27145 21.9849C4.79635 22.3022 5.38229 22.0825 5.5654 21.5088L6.99362 17.2485C7.21335 16.5894 6.62741 15.8081 5.83395 16.0889Z" fill="#5ac8f5"/>
 </g>
</svg>
