<?xml version="1.0" encoding="UTF-8"?>
<!--Generator: Apple Native CoreSVG 175.5-->
<!DOCTYPE svg
PUBLIC "-//W3C//DTD SVG 1.1//EN"
       "http://www.w3.org/Graphics/SVG/1.1/DTD/svg11.dtd">
<svg version="1.1" xmlns="http://www.w3.org/2000/svg" xmlns:xlink="http://www.w3.org/1999/xlink" width="25.8191" height="30.84">
 <g>
  <rect height="30.84" opacity="0" width="25.8191" x="0" y="0"/>
  <path d="M25.8191 10.0916C25.8191 7.54038 24.5618 6.25864 22.035 6.25864L10.5237 6.25864C8.00907 6.25864 6.73954 7.54038 6.73954 10.0916L6.73954 26.7665C6.73954 29.3177 8.00907 30.5995 10.5237 30.5995L22.035 30.5995C24.5496 30.5995 25.8191 29.3177 25.8191 26.7665ZM23.8538 10.1283L23.8538 26.742C23.8538 27.9383 23.2068 28.6341 21.9373 28.6341L10.6336 28.6341C9.36405 28.6341 8.70488 27.9383 8.70488 26.742L8.70488 10.1283C8.70488 8.90757 9.36405 8.22397 10.6336 8.22397L21.9373 8.22397C23.2068 8.22397 23.8538 8.90757 23.8538 10.1283ZM8.44853 23.7391L7.11796 23.971C5.87284 24.1908 5.1038 23.6292 4.89628 22.433L2.03984 6.20981C1.83232 5.00132 2.34501 4.23227 3.60234 4.01255L14.7351 2.04722C15.9803 1.82749 16.7371 2.37681 16.9446 3.5853L17.7015 7.76011L19.618 7.41831L18.8855 3.21909C18.4461 0.692235 16.969-0.333155 14.491 0.0940907L3.16288 2.08384C0.684856 2.52329-0.340535 4.00034 0.0989182 6.5272L2.96757 22.8114C3.41923 25.326 4.89628 26.3514 7.3621 25.9242L8.44853 25.7289Z" fill="#5ac8f5"/>
 </g>
</svg>
