<?xml version="1.0" encoding="UTF-8"?>
<!--Generator: Apple Native CoreSVG 175.5-->
<!DOCTYPE svg
PUBLIC "-//W3C//DTD SVG 1.1//EN"
       "http://www.w3.org/Graphics/SVG/1.1/DTD/svg11.dtd">
<svg version="1.1" xmlns="http://www.w3.org/2000/svg" xmlns:xlink="http://www.w3.org/1999/xlink" width="22.4731" height="22.4976">
 <g>
  <rect height="22.4976" opacity="0" width="22.4731" x="0" y="0"/>
  <path d="M3.83301 22.4976L18.6401 22.4976C21.2036 22.4976 22.4731 21.228 22.4731 18.7134L22.4731 3.80859C22.4731 1.29395 21.2036 0.0244141 18.6401 0.0244141L3.83301 0.0244141C1.28174 0.0244141 0 1.28174 0 3.80859L0 18.7134C0 21.2402 1.28174 22.4976 3.83301 22.4976ZM3.85742 20.5322C2.63672 20.5322 1.96533 19.8853 1.96533 18.6157L1.96533 3.90625C1.96533 2.63672 2.63672 1.98975 3.85742 1.98975L18.6157 1.98975C19.8242 1.98975 20.5078 2.63672 20.5078 3.90625L20.5078 18.6157C20.5078 19.8853 19.8242 20.5322 18.6157 20.5322ZM18.8232 11.2549C18.8232 10.9741 18.7134 10.7666 18.4814 10.5347L14.9536 7.00684C14.7949 6.83594 14.5752 6.75049 14.3188 6.75049C13.8184 6.75049 13.4399 7.14111 13.4399 7.6416C13.4399 7.89795 13.5376 8.12988 13.7085 8.28857L14.6362 9.19189L16.1255 10.437L13.5376 10.3394L8.94775 10.3394L6.35986 10.437L7.83691 9.19189L8.76465 8.28857C8.93555 8.12988 9.0332 7.89795 9.0332 7.6416C9.0332 7.14111 8.65479 6.75049 8.1543 6.75049C7.89795 6.75049 7.67822 6.83594 7.51953 7.00684L3.9917 10.5347C3.75977 10.7666 3.6499 10.9741 3.6499 11.2549C3.6499 11.5112 3.75977 11.7065 3.9917 11.9507L7.51953 15.5029C7.67822 15.6616 7.89795 15.7471 8.1543 15.7471C8.65479 15.7471 9.0332 15.3564 9.0332 14.8682C9.0332 14.5996 8.92334 14.3799 8.76465 14.209L7.83691 13.2935L6.37207 12.0728L8.94775 12.1582L13.5376 12.1582L16.1133 12.0728L14.6362 13.2935L13.7085 14.209C13.5498 14.3799 13.4399 14.5996 13.4399 14.8682C13.4399 15.3564 13.8184 15.7471 14.3188 15.7471C14.5752 15.7471 14.7949 15.6616 14.9536 15.5029L18.4814 11.9507C18.7134 11.7065 18.8232 11.5112 18.8232 11.2549Z" fill="#5ac8f5"/>
 </g>
</svg>
