<?xml version="1.0" encoding="UTF-8"?>
<!--Generator: Apple Native CoreSVG 175.5-->
<!DOCTYPE svg
PUBLIC "-//W3C//DTD SVG 1.1//EN"
       "http://www.w3.org/Graphics/SVG/1.1/DTD/svg11.dtd">
<svg version="1.1" xmlns="http://www.w3.org/2000/svg" xmlns:xlink="http://www.w3.org/1999/xlink" width="22.4731" height="22.4976">
 <g>
  <rect height="22.4976" opacity="0" width="22.4731" x="0" y="0"/>
  <path d="M3.83301 22.4976L18.6401 22.4976C21.2036 22.4976 22.4731 21.228 22.4731 18.7134L22.4731 3.80859C22.4731 1.29395 21.2036 0.0244141 18.6401 0.0244141L3.83301 0.0244141C1.28174 0.0244141 0 1.28174 0 3.80859L0 18.7134C0 21.2402 1.28174 22.4976 3.83301 22.4976ZM3.85742 20.5322C2.63672 20.5322 1.96533 19.8853 1.96533 18.6157L1.96533 3.90625C1.96533 2.63672 2.63672 1.98975 3.85742 1.98975L18.6157 1.98975C19.8242 1.98975 20.5078 2.63672 20.5078 3.90625L20.5078 18.6157C20.5078 19.8853 19.8242 20.5322 18.6157 20.5322ZM7.26318 16.5039C9.36279 16.5039 10.7544 14.4897 10.7544 11.2427C10.7544 7.99561 9.36279 5.98145 7.26318 5.98145C5.16357 5.98145 3.77197 7.99561 3.77197 11.2427C3.77197 14.4897 5.16357 16.5039 7.26318 16.5039ZM7.26318 15.0269C6.10352 15.0269 5.37109 13.5864 5.37109 11.2427C5.37109 8.89893 6.10352 7.4585 7.26318 7.4585C8.42285 7.4585 9.15527 8.89893 9.15527 11.2427C9.15527 13.5864 8.43506 15.0269 7.26318 15.0269ZM12.9395 16.2231L17.9932 16.2231C18.3838 16.2231 18.6768 15.9302 18.6768 15.4907C18.6768 15.0391 18.3838 14.7827 17.9932 14.7827L14.4409 14.7827L14.4409 14.6973L16.8335 11.9141C17.7368 10.8643 18.4082 9.98535 18.4082 8.76465C18.4082 7.06787 17.1753 5.98145 15.2588 5.98145C13.8062 5.98145 12.5122 6.90918 12.1948 8.1543C12.1704 8.31299 12.1338 8.44727 12.1338 8.59375C12.1338 9.0332 12.3901 9.32617 12.8174 9.32617C13.1714 9.32617 13.3545 9.11865 13.5132 8.75244C13.8184 7.83691 14.4409 7.38525 15.3198 7.38525C16.2964 7.38525 16.9434 7.99561 16.9434 8.89893C16.9434 9.69238 16.2964 10.376 15.7227 11.0596L12.5 14.8438C12.3047 15.0513 12.2314 15.2588 12.2314 15.5029C12.2314 15.9424 12.5122 16.2231 12.9395 16.2231Z" fill="#5ac8f5"/>
 </g>
</svg>
