<?xml version="1.0" encoding="UTF-8"?>
<!--Generator: Apple Native CoreSVG 175.5-->
<!DOCTYPE svg
PUBLIC "-//W3C//DTD SVG 1.1//EN"
       "http://www.w3.org/Graphics/SVG/1.1/DTD/svg11.dtd">
<svg version="1.1" xmlns="http://www.w3.org/2000/svg" xmlns:xlink="http://www.w3.org/1999/xlink" width="24.9023" height="24.9146">
 <g>
  <rect height="24.9146" opacity="0" width="24.9023" x="0" y="0"/>
  <path d="M12.4512 24.9023C19.2627 24.9023 24.9023 19.2505 24.9023 12.4512C24.9023 5.63965 19.2505 0 12.439 0C5.63965 0 0 5.63965 0 12.4512C0 19.2505 5.65186 24.9023 12.4512 24.9023ZM12.4512 22.8271C6.68945 22.8271 2.0874 18.2129 2.0874 12.4512C2.0874 6.68945 6.67725 2.0752 12.439 2.0752C18.2007 2.0752 22.8271 6.68945 22.8271 12.4512C22.8271 18.2129 18.2129 22.8271 12.4512 22.8271Z" fill="#5ac8f5" fill-opacity="0.5"/>
  <path d="M8.55713 12.4512C8.55713 14.5874 10.3271 16.3574 12.4512 16.3574C13.0493 16.3574 13.6108 16.1987 14.0869 15.918C12.9517 17.7979 10.8521 18.8965 8.3252 18.8965C7.91016 18.8965 7.61719 19.2139 7.61719 19.5923C7.61719 19.9707 7.91016 20.2881 8.3252 20.2881C12.8174 20.2881 16.3452 17.2119 16.3452 12.4512C16.3452 10.3149 14.5752 8.54492 12.4512 8.54492C11.853 8.54492 11.2915 8.70361 10.8154 8.98438C11.9507 7.10449 14.0503 6.00586 16.5894 6.00586C16.9922 6.00586 17.2852 5.68848 17.2852 5.29785C17.2852 4.91943 16.98 4.61426 16.5894 4.61426C12.085 4.61426 8.55713 7.69043 8.55713 12.4512ZM9.94873 12.4512C9.94873 11.0596 11.0596 9.94873 12.4512 9.94873C13.8428 9.94873 14.9536 11.0596 14.9536 12.4512C14.9536 13.8428 13.8428 14.9536 12.4512 14.9536C11.0596 14.9536 9.94873 13.8428 9.94873 12.4512ZM11.2427 12.4512C11.2427 13.1104 11.792 13.6597 12.4512 13.6597C13.1104 13.6597 13.6597 13.0981 13.6597 12.4512C13.6597 11.792 13.1104 11.2427 12.4512 11.2427C11.792 11.2427 11.2427 11.792 11.2427 12.4512Z" fill="#5ac8f5"/>
 </g>
</svg>
