<?xml version="1.0" encoding="UTF-8"?>
<!--Generator: Apple Native CoreSVG 175.5-->
<!DOCTYPE svg
PUBLIC "-//W3C//DTD SVG 1.1//EN"
       "http://www.w3.org/Graphics/SVG/1.1/DTD/svg11.dtd">
<svg version="1.1" xmlns="http://www.w3.org/2000/svg" xmlns:xlink="http://www.w3.org/1999/xlink" width="22.7783" height="23.2056">
 <g>
  <rect height="23.2056" opacity="0" width="22.7783" x="0" y="0"/>
  <path d="M7.78809 23.2056C12.4634 23.2056 15.6738 20.0562 15.6738 14.4775L15.6738 6.21338L15.5029 2.4292L14.9414 2.64893L17.5293 5.66406L20.9595 9.17969C21.1548 9.375 21.3989 9.48486 21.7041 9.48486C22.3389 9.48486 22.7783 9.04541 22.7783 8.39844C22.7783 8.12988 22.6562 7.8125 22.4487 7.60498L15.4053 0.427246C15.1733 0.183105 14.8804 0.0732422 14.5874 0.0732422C14.2822 0.0732422 14.0015 0.183105 13.7695 0.427246L6.72607 7.60498C6.51855 7.8125 6.38428 8.12988 6.38428 8.39844C6.38428 9.04541 6.83594 9.48486 7.4585 9.48486C7.77588 9.48486 8.02002 9.375 8.21533 9.17969L11.6455 5.66406L14.2334 2.64893L13.6597 2.4292L13.501 6.21338L13.501 14.6606C13.501 18.8232 11.1938 21.0327 7.91016 21.0327C4.62646 21.0327 2.17285 18.8232 2.17285 14.6606L2.17285 11.853C2.17285 11.1816 1.68457 10.7422 1.08643 10.7422C0.488281 10.7422 0 11.1816 0 11.853L0 14.6729C0 20.1416 3.11279 23.2056 7.78809 23.2056Z" fill="#5ac8f5"/>
 </g>
</svg>
