<?xml version="1.0" encoding="UTF-8"?>
<!--Generator: Apple Native CoreSVG 175.5-->
<!DOCTYPE svg
PUBLIC "-//W3C//DTD SVG 1.1//EN"
       "http://www.w3.org/Graphics/SVG/1.1/DTD/svg11.dtd">
<svg version="1.1" xmlns="http://www.w3.org/2000/svg" xmlns:xlink="http://www.w3.org/1999/xlink" width="41.2181" height="28.1804">
 <g>
  <rect height="28.1804" opacity="0" width="41.2181" x="0" y="0"/>
  <path d="M26.4783 26.9991C32.4842 28.5983 37.0496 25.8151 38.7342 19.5407L41.0291 11.0079C41.6394 8.70081 40.7727 7.19934 38.4168 6.56458L26.3318 3.32972C23.9881 2.70716 22.511 3.54944 21.8763 5.88098L20.8753 9.54309L21.7054 14.255L23.7928 6.47913C24.0857 5.3927 24.7693 4.98987 25.8435 5.28284L37.8797 8.49329C38.9661 8.78626 39.3445 9.48206 39.0516 10.5929L36.781 19.0402C35.4383 24.1061 31.8006 26.3278 26.9788 25.0582C23.2434 24.0328 21.1438 21.4816 21.156 17.9293L19.4959 20.9445C20.4236 23.923 22.8406 26.0104 26.4783 26.9991ZM26.0877 14.1085C26.991 14.3649 27.9187 13.8278 28.1751 12.9122C28.4192 11.9967 27.8821 11.0568 26.9544 10.8004C26.0633 10.5563 25.1233 11.1056 24.867 12.0211C24.635 12.9366 25.1722 13.8644 26.0877 14.1085ZM33.2532 16.025C34.1565 16.257 35.0843 15.7199 35.3406 14.8043C35.5848 13.8888 35.0476 12.9611 34.1321 12.7169C33.2166 12.4606 32.2889 13.0099 32.0569 13.9132C31.8006 14.8287 32.3377 15.7687 33.2532 16.025ZM28.1141 20.7003C29.469 21.0543 30.5555 21.6647 31.825 22.8121C32.3011 23.2638 32.9358 22.9708 32.8992 22.3239C32.826 20.1754 31.2268 18.3932 28.8831 17.7828C26.5393 17.1481 24.2688 17.9049 23.1214 19.7116C22.7796 20.2365 23.1824 20.8224 23.8294 20.6759C25.4529 20.3219 26.7713 20.3219 28.1141 20.7003Z" fill="#5ac8f5" fill-opacity="0.5"/>
  <path d="M14.7474 23.8497C20.7776 22.214 23.3167 17.5631 21.6443 11.2643L19.3494 2.71936C18.7268 0.412235 17.2254-0.43005 14.8816 0.204715L2.78446 3.41516C0.428506 4.03772-0.425986 5.51477 0.196573 7.85852L2.46708 16.4034C4.13944 22.6779 8.70487 25.4489 14.7474 23.8497ZM14.2225 21.9088C9.42509 23.1661 5.78739 20.9323 4.43241 15.8785L2.1619 7.41907C1.86894 6.33264 2.25956 5.64905 3.33378 5.34388L15.3699 2.12122C16.4441 1.82825 17.1521 2.24329 17.4329 3.34192L19.6912 11.8014C21.0462 16.8673 19.0198 20.6271 14.2225 21.9088ZM13.5633 19.4064C16.139 18.6984 17.7869 16.7452 17.8724 14.3283C17.8846 13.7057 17.3597 13.4738 16.8348 13.8766C15.1746 15.0485 13.4168 15.5123 12.5867 15.7443C11.7444 15.964 9.99882 16.4523 7.94804 16.257C7.30106 16.1715 6.94706 16.6476 7.28886 17.1481C8.5828 19.2233 10.9754 20.0778 13.5633 19.4064ZM7.59403 11.6305C8.47294 11.3986 8.90019 11.8014 9.2664 11.7159C9.52274 11.6549 9.64481 11.3131 9.52274 10.8737C9.25419 9.78723 8.09452 9.12805 7.0203 9.44544C5.92167 9.71399 5.25028 10.8615 5.55546 11.9235C5.68974 12.3751 5.95829 12.6071 6.21464 12.546C6.58085 12.4362 6.72733 11.8624 7.59403 11.6305ZM14.8206 9.66516C15.6995 9.43323 16.1145 9.84827 16.493 9.76282C16.7615 9.68958 16.8714 9.34778 16.7493 8.90833C16.4808 7.8219 15.3333 7.17493 14.2591 7.49231C13.1482 7.76087 12.4768 8.89612 12.782 9.95813C12.9163 10.4098 13.1726 10.6539 13.4412 10.5807C13.8074 10.4708 13.9539 9.8971 14.8206 9.66516Z" fill="#5ac8f5"/>
 </g>
</svg>
