<?xml version="1.0" encoding="UTF-8"?>
<!--Generator: Apple Native CoreSVG 175.5-->
<!DOCTYPE svg
PUBLIC "-//W3C//DTD SVG 1.1//EN"
       "http://www.w3.org/Graphics/SVG/1.1/DTD/svg11.dtd">
<svg version="1.1" xmlns="http://www.w3.org/2000/svg" xmlns:xlink="http://www.w3.org/1999/xlink" width="23.2422" height="22.4976">
 <g>
  <rect height="22.4976" opacity="0" width="23.2422" x="0" y="0"/>
  <path d="M3.83301 22.4976L19.4092 22.4976C21.9604 22.4976 23.2422 21.228 23.2422 18.7134L23.2422 3.80859C23.2422 1.29395 21.9604 0.0244141 19.4092 0.0244141L3.83301 0.0244141C1.28174 0.0244141 0 1.28174 0 3.80859L0 18.7134C0 21.2402 1.28174 22.4976 3.83301 22.4976ZM3.85742 20.5322C2.63672 20.5322 1.96533 19.8853 1.96533 18.6157L1.96533 3.90625C1.96533 2.63672 2.63672 1.98975 3.85742 1.98975L19.3726 1.98975C20.5811 1.98975 21.2769 2.63672 21.2769 3.90625L21.2769 18.6157C21.2769 19.8853 20.5811 20.5322 19.3726 20.5322ZM7.44629 16.333C8.44727 16.333 9.26514 15.5151 9.26514 14.502C9.26514 13.501 8.44727 12.6709 7.44629 12.6709C6.4209 12.6709 5.60303 13.501 5.60303 14.502C5.60303 15.5151 6.4209 16.333 7.44629 16.333ZM15.8081 16.333C16.8091 16.333 17.6392 15.5151 17.6392 14.502C17.6392 13.501 16.8091 12.6709 15.8081 12.6709C14.7949 12.6709 13.9771 13.501 13.9771 14.502C13.9771 15.5151 14.7949 16.333 15.8081 16.333ZM11.6211 9.81445C12.6221 9.81445 13.4521 8.99658 13.4521 7.9834C13.4521 6.97021 12.6221 6.15234 11.6211 6.15234C10.6079 6.15234 9.77783 6.97021 9.77783 7.9834C9.77783 8.99658 10.6079 9.81445 11.6211 9.81445Z" fill="#5ac8f5"/>
 </g>
</svg>
