<?xml version="1.0" encoding="UTF-8"?>
<!--Generator: Apple Native CoreSVG 175.5-->
<!DOCTYPE svg
PUBLIC "-//W3C//DTD SVG 1.1//EN"
       "http://www.w3.org/Graphics/SVG/1.1/DTD/svg11.dtd">
<svg version="1.1" xmlns="http://www.w3.org/2000/svg" xmlns:xlink="http://www.w3.org/1999/xlink" width="27.6842" height="27.701">
 <g>
  <rect height="27.701" opacity="0" width="27.6842" x="0" y="0"/>
  <path d="M1.36881 16.5422L11.1466 26.32C12.9533 28.1266 14.7355 28.1388 16.5299 26.3566L26.3566 16.5177C28.1388 14.7355 28.1266 12.9411 26.32 11.1344L16.5544 1.36881C14.7477-0.43783 12.9655-0.462244 11.1711 1.33219L1.33219 11.1588C-0.462244 12.9533-0.43783 14.7355 1.36881 16.5422ZM2.78483 15.1872C1.91813 14.3083 1.89371 13.3927 2.79703 12.4894L12.4894 2.79703C13.3927 1.89371 14.3083 1.90592 15.1872 2.78483L24.904 12.5016C25.7707 13.3683 25.7951 14.2961 24.8918 15.1994L15.1994 24.8918C14.2961 25.7951 13.3561 25.7707 12.5016 24.9162Z" fill="#5ac8f5"/>
 </g>
</svg>
