<?xml version="1.0" encoding="UTF-8"?>
<!--Generator: Apple Native CoreSVG 175.5-->
<!DOCTYPE svg
PUBLIC "-//W3C//DTD SVG 1.1//EN"
       "http://www.w3.org/Graphics/SVG/1.1/DTD/svg11.dtd">
<svg version="1.1" xmlns="http://www.w3.org/2000/svg" xmlns:xlink="http://www.w3.org/1999/xlink" width="22.4731" height="22.4976">
 <g>
  <rect height="22.4976" opacity="0" width="22.4731" x="0" y="0"/>
  <path d="M6.32324 17.1509C5.63965 17.1509 5.13916 16.6504 5.13916 15.9668L5.13916 6.51855C5.13916 5.83496 5.63965 5.33447 6.32324 5.33447L16.1499 5.33447C16.8335 5.33447 17.334 5.83496 17.334 6.51855L17.334 15.9668C17.334 16.6504 16.8335 17.1509 16.1499 17.1509ZM11.2549 10.3882C11.9507 10.3882 12.5244 9.82666 12.5244 9.11865C12.5244 8.41064 11.9507 7.84912 11.2549 7.84912C10.5469 7.84912 9.97314 8.41064 9.97314 9.11865C9.97314 9.82666 10.5469 10.3882 11.2549 10.3882ZM8.49609 14.6362C9.2041 14.6362 9.77783 14.0747 9.77783 13.3667C9.77783 12.6587 9.2041 12.085 8.49609 12.085C7.80029 12.085 7.22656 12.6587 7.22656 13.3667C7.22656 14.0747 7.80029 14.6362 8.49609 14.6362ZM14.0015 14.6362C14.7095 14.6362 15.271 14.0747 15.271 13.3667C15.271 12.6587 14.7095 12.085 14.0015 12.085C13.2935 12.085 12.7197 12.6587 12.7197 13.3667C12.7197 14.0747 13.2935 14.6362 14.0015 14.6362ZM3.83301 22.4976L18.6401 22.4976C21.2036 22.4976 22.4731 21.228 22.4731 18.7134L22.4731 3.80859C22.4731 1.29395 21.2036 0.0244141 18.6401 0.0244141L3.83301 0.0244141C1.28174 0.0244141 0 1.28174 0 3.80859L0 18.7134C0 21.2402 1.28174 22.4976 3.83301 22.4976Z" fill="#5ac8f5"/>
 </g>
</svg>
