<?xml version="1.0" encoding="UTF-8"?>
<!--Generator: Apple Native CoreSVG 175.5-->
<!DOCTYPE svg
PUBLIC "-//W3C//DTD SVG 1.1//EN"
       "http://www.w3.org/Graphics/SVG/1.1/DTD/svg11.dtd">
<svg version="1.1" xmlns="http://www.w3.org/2000/svg" xmlns:xlink="http://www.w3.org/1999/xlink" width="20.105" height="25.8423">
 <g>
  <rect height="25.8423" opacity="0" width="20.105" x="0" y="0"/>
  <path d="M3.83301 25.8423L16.272 25.8423C18.8232 25.8423 20.105 24.585 20.105 22.0703L20.105 3.8208C20.105 1.30615 18.8232 0.0366211 16.272 0.0366211L3.83301 0.0366211C1.28174 0.0366211 0 1.30615 0 3.8208L0 22.0703C0 24.585 1.28174 25.8423 3.83301 25.8423ZM3.85742 23.877C2.63672 23.877 1.96533 23.23 1.96533 21.9604L1.96533 3.93066C1.96533 2.66113 2.63672 2.00195 3.85742 2.00195L16.2476 2.00195C17.4561 2.00195 18.1396 2.66113 18.1396 3.93066L18.1396 21.9604C18.1396 23.23 17.4561 23.877 16.2476 23.877ZM0.244141 9.00879L4.73633 9.00879C6.61621 9.00879 7.54395 8.09326 7.54395 6.25L7.54395 0.415039L6.06689 0.415039L6.06689 6.15234C6.06689 7.03125 5.56641 7.53174 4.69971 7.53174L0.244141 7.53174Z" fill="#5ac8f5"/>
 </g>
</svg>
