<?xml version="1.0" encoding="UTF-8"?>
<!--Generator: Apple Native CoreSVG 175.5-->
<!DOCTYPE svg
PUBLIC "-//W3C//DTD SVG 1.1//EN"
       "http://www.w3.org/Graphics/SVG/1.1/DTD/svg11.dtd">
<svg version="1.1" xmlns="http://www.w3.org/2000/svg" xmlns:xlink="http://www.w3.org/1999/xlink" width="30.2002" height="20.0806">
 <g>
  <rect height="20.0806" opacity="0" width="30.2002" x="0" y="0"/>
  <path d="M4.76074 20.0684L17.5171 20.0684C20.4956 20.0684 22.2778 18.335 22.2778 15.3564L22.2778 4.69971C22.2778 1.7334 20.4956 0 17.5171 0L4.76074 0C1.9165 0 0 1.7334 0 4.69971L0 15.3564C0 18.335 1.78223 20.0684 4.76074 20.0684ZM5.10254 18.2251C3.10059 18.2251 1.96533 17.1875 1.96533 15.0757L1.96533 4.99268C1.96533 2.86865 3.10059 1.83105 5.10254 1.83105L17.1753 1.83105C19.165 1.83105 20.3125 2.86865 20.3125 4.99268L20.3125 15.0757C20.3125 17.1875 19.165 18.2251 17.1753 18.2251ZM21.9971 6.61621L21.9971 8.93555L27.8076 4.13818C27.9175 4.05273 27.9907 3.9917 28.1006 3.9917C28.2471 3.9917 28.3081 4.11377 28.3081 4.28467L28.3081 15.7837C28.3081 15.9546 28.2471 16.0645 28.1006 16.0645C27.9907 16.0645 27.9175 16.0034 27.8076 15.9302L21.9971 11.1328L21.9971 13.4399L26.8921 17.5903C27.3804 17.9932 27.9175 18.2739 28.418 18.2739C29.4922 18.2739 30.2002 17.4805 30.2002 16.3452L30.2002 3.72314C30.2002 2.58789 29.4922 1.79443 28.418 1.79443C27.9175 1.79443 27.3804 2.0752 26.8921 2.47803Z" fill="#5ac8f5" fill-opacity="0.5"/>
  <path d="M15.21 5.11475C14.9536 5.11475 14.7583 5.2002 14.5752 5.3833L9.57031 10.3882L7.69043 12.439L7.89795 8.94775L7.89795 7.2998C7.89795 6.82373 7.54395 6.43311 7.06787 6.43311C6.56738 6.43311 6.16455 6.79932 6.16455 7.2998L6.16455 14.0869C6.16455 14.7339 6.46973 15.0513 7.12891 15.0513L13.9282 15.0513C14.4287 15.0513 14.8071 14.6484 14.8071 14.1479C14.8071 13.6597 14.4043 13.3179 13.9282 13.3179L12.2559 13.3179L8.76465 13.5254L10.8276 11.6455L15.8203 6.62842C16.0278 6.43311 16.1133 6.22559 16.1133 5.95703C16.1133 5.48096 15.7227 5.11475 15.21 5.11475Z" fill="#5ac8f5"/>
 </g>
</svg>
