<?xml version="1.0" encoding="UTF-8"?>
<!--Generator: Apple Native CoreSVG 175.5-->
<!DOCTYPE svg
PUBLIC "-//W3C//DTD SVG 1.1//EN"
       "http://www.w3.org/Graphics/SVG/1.1/DTD/svg11.dtd">
<svg version="1.1" xmlns="http://www.w3.org/2000/svg" xmlns:xlink="http://www.w3.org/1999/xlink" width="24.9023" height="24.9146">
 <g>
  <rect height="24.9146" opacity="0" width="24.9023" x="0" y="0"/>
  <path d="M12.4512 24.9023C19.2627 24.9023 24.9023 19.2505 24.9023 12.4512C24.9023 5.63965 19.2505 0 12.439 0C5.63965 0 0 5.63965 0 12.4512C0 19.2505 5.65186 24.9023 12.4512 24.9023ZM12.4512 22.8271C6.68945 22.8271 2.0874 18.2129 2.0874 12.4512C2.0874 6.68945 6.67725 2.0752 12.439 2.0752C18.2007 2.0752 22.8271 6.68945 22.8271 12.4512C22.8271 18.2129 18.2129 22.8271 12.4512 22.8271Z" fill="#5ac8f5" fill-opacity="0.5"/>
  <path d="M8.78906 17.5659C9.26514 17.5659 9.57031 17.2607 9.57031 16.7847L9.57031 8.14209C9.57031 7.62939 9.21631 7.26318 8.70361 7.26318C8.31299 7.26318 8.06885 7.38525 7.6416 7.67822L5.78613 8.94775C5.52979 9.13086 5.37109 9.35059 5.37109 9.66797C5.37109 10.083 5.71289 10.4004 6.06689 10.4004C6.26221 10.4004 6.38428 10.3882 6.66504 10.1685L7.97119 9.2041L8.04443 9.2041L8.04443 16.7847C8.04443 17.2607 8.3374 17.5659 8.78906 17.5659ZM15.4663 17.7246C17.4438 17.7246 18.8599 16.4185 18.8599 14.1846C18.8599 12.085 17.4316 10.9253 15.8325 10.9253C14.5386 10.9253 13.7207 11.6577 13.4155 12.4634L13.3301 12.4634C13.3301 12.4268 13.3301 12.4023 13.3301 12.3535C13.3301 10.0464 14.2578 8.59375 15.6372 8.59375C16.3452 8.59375 16.8335 8.93555 17.1387 9.41162C17.3462 9.7168 17.5415 9.86328 17.8711 9.86328C18.2129 9.86328 18.4692 9.59473 18.4692 9.19189C18.4692 9.0332 18.4448 8.88672 18.3838 8.72803C18.0664 7.91016 17.0898 7.18994 15.6982 7.18994C13.3423 7.18994 11.9019 9.021 11.9019 12.7319C11.9019 14.2212 12.1338 15.3076 12.5488 16.0767C13.1714 17.2485 14.2212 17.7246 15.4663 17.7246ZM15.3931 16.3818C14.2578 16.3818 13.4644 15.4907 13.4644 14.2334C13.4644 13.0371 14.2578 12.1826 15.3931 12.1826C16.5405 12.1826 17.3218 13.0249 17.3218 14.2456C17.3218 15.5518 16.5771 16.3818 15.3931 16.3818Z" fill="#5ac8f5"/>
 </g>
</svg>
