<?xml version="1.0" encoding="UTF-8"?>
<!--Generator: Apple Native CoreSVG 175.5-->
<!DOCTYPE svg
PUBLIC "-//W3C//DTD SVG 1.1//EN"
       "http://www.w3.org/Graphics/SVG/1.1/DTD/svg11.dtd">
<svg version="1.1" xmlns="http://www.w3.org/2000/svg" xmlns:xlink="http://www.w3.org/1999/xlink" width="24.9023" height="24.9146">
 <g>
  <rect height="24.9146" opacity="0" width="24.9023" x="0" y="0"/>
  <path d="M12.4512 24.9023C19.2627 24.9023 24.9023 19.2505 24.9023 12.4512C24.9023 5.63965 19.2505 0 12.439 0C5.63965 0 0 5.63965 0 12.4512C0 19.2505 5.65186 24.9023 12.4512 24.9023ZM12.4512 22.8271C6.68945 22.8271 2.0874 18.2129 2.0874 12.4512C2.0874 6.68945 6.67725 2.0752 12.439 2.0752C18.2007 2.0752 22.8271 6.68945 22.8271 12.4512C22.8271 18.2129 18.2129 22.8271 12.4512 22.8271ZM5.98145 11.3892C6.33545 11.4868 6.72607 11.5356 7.14111 11.5356C9.44824 11.5356 11.2061 9.79004 11.2061 7.4707C11.2061 6.98242 11.1328 6.53076 10.9741 6.10352C8.42285 6.68945 6.43311 8.78906 5.98145 11.3892ZM12.4268 19.0308C12.6099 19.0308 12.8052 19.0308 12.9883 19.0063C12.8174 18.5181 12.7441 18.0054 12.7441 17.4683C12.7441 14.7095 14.9658 12.4634 17.7368 12.4634C18.1641 12.4634 18.5669 12.5244 18.9819 12.6343C18.9819 12.5854 18.9819 12.5366 18.9819 12.4878C18.9819 8.89893 16.0034 5.93262 12.4268 5.93262C12.2437 5.93262 12.085 5.94482 11.9019 5.95703C12.0605 6.43311 12.1338 6.93359 12.1338 7.4707C12.1338 10.2295 9.8999 12.4634 7.14111 12.4634C6.71387 12.4634 6.28662 12.4146 5.88379 12.3047C5.88379 12.3657 5.88379 12.4268 5.88379 12.4878C5.88379 16.0645 8.8501 19.0308 12.4268 19.0308ZM13.916 18.8599C16.4551 18.2495 18.457 16.1499 18.8843 13.562C18.5181 13.4521 18.1519 13.3911 17.7368 13.3911C15.4175 13.3911 13.6719 15.1489 13.6719 17.4683C13.6719 17.9688 13.7451 18.4326 13.916 18.8599Z" fill="#5ac8f5"/>
 </g>
</svg>
