<?xml version="1.0" encoding="UTF-8"?>
<!--Generator: Apple Native CoreSVG 175.5-->
<!DOCTYPE svg
PUBLIC "-//W3C//DTD SVG 1.1//EN"
       "http://www.w3.org/Graphics/SVG/1.1/DTD/svg11.dtd">
<svg version="1.1" xmlns="http://www.w3.org/2000/svg" xmlns:xlink="http://www.w3.org/1999/xlink" width="24.4873" height="24.4995">
 <g>
  <rect height="24.4995" opacity="0" width="24.4873" x="0" y="0"/>
  <path d="M12.2437 18.457C15.6372 18.457 18.4692 15.6372 18.4692 12.2437C18.4692 8.83789 15.6372 6.01807 12.2437 6.01807C8.8501 6.01807 6.03027 8.83789 6.03027 12.2437C6.03027 15.6372 8.8501 18.457 12.2437 18.457ZM1.42822 13.6719C2.20947 13.6719 2.85645 13.0249 2.85645 12.2437C2.85645 11.4502 2.20947 10.8154 1.42822 10.8154C0.646973 10.8154 0 11.4502 0 12.2437C0 13.0249 0.646973 13.6719 1.42822 13.6719ZM4.58984 6.01807C5.3833 6.01807 6.01807 5.37109 6.01807 4.58984C6.01807 3.80859 5.3833 3.16162 4.58984 3.16162C3.80859 3.16162 3.16162 3.80859 3.16162 4.58984C3.16162 5.37109 3.80859 6.01807 4.58984 6.01807ZM12.2437 2.85645C13.0249 2.85645 13.6719 2.20947 13.6719 1.42822C13.6719 0.646973 13.0249 0 12.2437 0C11.4624 0 10.8154 0.646973 10.8154 1.42822C10.8154 2.20947 11.4624 2.85645 12.2437 2.85645ZM19.8975 6.01807C20.6787 6.01807 21.3257 5.37109 21.3257 4.58984C21.3257 3.80859 20.6787 3.16162 19.8975 3.16162C19.1162 3.16162 18.4692 3.80859 18.4692 4.58984C18.4692 5.37109 19.1162 6.01807 19.8975 6.01807ZM23.0591 13.6719C23.8403 13.6719 24.4873 13.0249 24.4873 12.2437C24.4873 11.4502 23.8403 10.8154 23.0591 10.8154C22.2778 10.8154 21.6309 11.4502 21.6309 12.2437C21.6309 13.0249 22.2778 13.6719 23.0591 13.6719ZM19.8975 21.3257C20.6787 21.3257 21.3257 20.6787 21.3257 19.8975C21.3257 19.104 20.6787 18.4692 19.8975 18.4692C19.1162 18.4692 18.4692 19.104 18.4692 19.8975C18.4692 20.6787 19.1162 21.3257 19.8975 21.3257ZM12.2437 24.4873C13.0249 24.4873 13.6719 23.8403 13.6719 23.0591C13.6719 22.2656 13.0249 21.6309 12.2437 21.6309C11.4624 21.6309 10.8154 22.2656 10.8154 23.0591C10.8154 23.8403 11.4624 24.4873 12.2437 24.4873ZM4.58984 21.3257C5.3833 21.3257 6.01807 20.6787 6.01807 19.8975C6.01807 19.104 5.3833 18.4692 4.58984 18.4692C3.80859 18.4692 3.16162 19.104 3.16162 19.8975C3.16162 20.6787 3.80859 21.3257 4.58984 21.3257Z" fill="#5ac8f5"/>
 </g>
</svg>
