<?xml version="1.0" encoding="UTF-8"?>
<!--Generator: Apple Native CoreSVG 175.5-->
<!DOCTYPE svg
PUBLIC "-//W3C//DTD SVG 1.1//EN"
       "http://www.w3.org/Graphics/SVG/1.1/DTD/svg11.dtd">
<svg version="1.1" xmlns="http://www.w3.org/2000/svg" xmlns:xlink="http://www.w3.org/1999/xlink" width="24.9023" height="24.9146">
 <g>
  <rect height="24.9146" opacity="0" width="24.9023" x="0" y="0"/>
  <path d="M12.4512 24.9023C19.2627 24.9023 24.9023 19.2505 24.9023 12.4512C24.9023 5.63965 19.2505 0 12.439 0C5.63965 0 0 5.63965 0 12.4512C0 19.2505 5.65186 24.9023 12.4512 24.9023ZM12.4512 22.8271C6.68945 22.8271 2.0874 18.2129 2.0874 12.4512C2.0874 6.68945 6.67725 2.0752 12.439 2.0752C18.2007 2.0752 22.8271 6.68945 22.8271 12.4512C22.8271 18.2129 18.2129 22.8271 12.4512 22.8271Z" fill="#5ac8f5" fill-opacity="0.5"/>
  <path d="M6.28662 14.8315C5.49316 16.2109 6.11572 17.5537 7.67822 17.5537L17.2363 17.5537C18.7866 17.5537 19.4214 16.2109 18.6157 14.8315L13.9893 6.78711C13.2324 5.46875 11.6943 5.43213 10.9009 6.79932ZM7.88574 15.4785L12.2437 7.87354C12.3413 7.69043 12.5488 7.70264 12.6465 7.87354L17.0288 15.4785C17.1387 15.6616 17.0898 15.8569 16.8335 15.8569L8.06885 15.8569C7.82471 15.8569 7.76367 15.6616 7.88574 15.4785Z" fill="#5ac8f5"/>
 </g>
</svg>
