<?xml version="1.0" encoding="UTF-8"?>
<!--Generator: Apple Native CoreSVG 175.5-->
<!DOCTYPE svg
PUBLIC "-//W3C//DTD SVG 1.1//EN"
       "http://www.w3.org/Graphics/SVG/1.1/DTD/svg11.dtd">
<svg version="1.1" xmlns="http://www.w3.org/2000/svg" xmlns:xlink="http://www.w3.org/1999/xlink" width="24.9023" height="24.9146">
 <g>
  <rect height="24.9146" opacity="0" width="24.9023" x="0" y="0"/>
  <path d="M12.4512 24.9146C19.2627 24.9146 24.9023 19.2749 24.9023 12.4634C24.9023 5.66406 19.2505 0.012207 12.439 0.012207C5.63965 0.012207 0 5.66406 0 12.4634C0 19.2749 5.65186 24.9146 12.4512 24.9146ZM16.1011 18.8232L8.75244 18.8232C8.36182 18.8232 8.14209 18.3716 8.42285 18.0542L12.0605 13.9526C12.2681 13.7573 12.6221 13.7573 12.8052 13.9526L16.4307 18.0542C16.7114 18.3716 16.5161 18.8232 16.1011 18.8232ZM18.1396 7.15332C19.0674 7.15332 19.6045 7.69043 19.6045 8.59375L19.6045 15.1489C19.6045 16.0645 19.043 16.5771 18.1396 16.5771L16.4917 16.5771L15.3564 15.2954L17.9932 15.2954C18.1885 15.2954 18.2617 15.2344 18.2617 15.0391L18.2617 8.71582C18.2617 8.49609 18.1885 8.42285 17.9932 8.42285L6.87256 8.42285C6.67725 8.42285 6.61621 8.49609 6.61621 8.71582L6.61621 15.0391C6.61621 15.2344 6.67725 15.2954 6.87256 15.2954L9.50928 15.2954L8.36182 16.5771L6.71387 16.5771C5.81055 16.5771 5.27344 16.0645 5.27344 15.1489L5.27344 8.59375C5.27344 7.70264 5.83496 7.15332 6.71387 7.15332Z" fill="#5ac8f5"/>
 </g>
</svg>
