<?xml version="1.0" encoding="UTF-8"?>
<!--Generator: Apple Native CoreSVG 175.5-->
<!DOCTYPE svg
PUBLIC "-//W3C//DTD SVG 1.1//EN"
       "http://www.w3.org/Graphics/SVG/1.1/DTD/svg11.dtd">
<svg version="1.1" xmlns="http://www.w3.org/2000/svg" xmlns:xlink="http://www.w3.org/1999/xlink" width="29.126" height="19.3726">
 <g>
  <rect height="19.3726" opacity="0" width="29.126" x="0" y="0"/>
  <path d="M7.53174 19.3604L21.5942 19.3604C26.6724 19.3604 29.126 16.9678 29.126 12.0239L29.126 8.20312L0 8.20312L0 12.0239C0 16.9678 2.45361 19.3604 7.53174 19.3604ZM14.563 12.7319C13.916 12.7319 13.3911 12.207 13.3911 11.5601C13.3911 10.9131 13.916 10.376 14.563 10.376C15.21 10.376 15.7471 10.9131 15.7471 11.5601C15.7471 12.207 15.21 12.7319 14.563 12.7319ZM0 6.97021L29.126 6.97021L29.126 6.604C29.126 2.17285 26.4648 0 21.6187 0L7.53174 0C2.68555 0 0 2.17285 0 6.604Z" fill="#5ac8f5"/>
 </g>
</svg>
