<?xml version="1.0" encoding="UTF-8"?>
<!--Generator: Apple Native CoreSVG 175.5-->
<!DOCTYPE svg
PUBLIC "-//W3C//DTD SVG 1.1//EN"
       "http://www.w3.org/Graphics/SVG/1.1/DTD/svg11.dtd">
<svg version="1.1" xmlns="http://www.w3.org/2000/svg" xmlns:xlink="http://www.w3.org/1999/xlink" width="24.9023" height="24.939">
 <g>
  <rect height="24.939" opacity="0" width="24.9023" x="0" y="0"/>
  <path d="M12.4512 24.9023C19.2627 24.9023 24.9023 19.2505 24.9023 12.4512C24.9023 5.63965 19.2505 0 12.439 0C5.63965 0 0 5.63965 0 12.4512C0 19.2505 5.65186 24.9023 12.4512 24.9023Z" fill="#5ac8f5" fill-opacity="0.25"/>
  <path d="M8.21533 17.8833C6.05469 17.8833 4.61426 15.8081 4.61426 12.4512C4.61426 9.08203 6.05469 7.01904 8.21533 7.01904C10.3882 7.01904 11.8164 9.08203 11.8164 12.4512C11.8164 15.8081 10.3882 17.8833 8.21533 17.8833ZM8.21533 16.3452C9.42383 16.3452 10.1685 14.856 10.1685 12.4512C10.1685 10.0342 9.41162 8.55713 8.21533 8.55713C7.03125 8.55713 6.27441 10.0342 6.27441 12.4512C6.27441 14.856 7.03125 16.3452 8.21533 16.3452ZM16.687 17.8833C14.978 17.8833 13.6475 16.8335 13.3057 15.6616C13.269 15.5151 13.2446 15.3809 13.2446 15.21C13.2446 14.7705 13.5498 14.4531 13.9771 14.4531C14.3311 14.4531 14.5386 14.6484 14.6973 15.0391C15.0391 15.9302 15.7104 16.4185 16.6992 16.4185C17.9077 16.4185 18.75 15.686 18.75 14.7095C18.75 13.6841 17.981 13.0127 16.7969 13.0127L16.0522 13.0127C15.6372 13.0127 15.3687 12.6953 15.3687 12.2925C15.3687 11.8286 15.6494 11.5356 16.0522 11.5356L16.7236 11.5356C17.7368 11.5356 18.4326 10.8765 18.4326 9.96094C18.4326 9.08203 17.7368 8.48389 16.748 8.48389C15.7593 8.48389 15.1611 8.95996 14.8804 9.85107C14.7583 10.2539 14.5508 10.4492 14.1724 10.4492C13.7451 10.4492 13.4521 10.1318 13.4521 9.68018C13.4521 9.52148 13.4521 9.38721 13.4888 9.22852C13.8184 7.99561 15.0757 7.01904 16.7847 7.01904C18.6523 7.01904 19.9951 8.14209 19.9951 9.75342C19.9951 10.9375 19.1772 11.9873 18.1274 12.1582L18.1274 12.2314C19.397 12.3657 20.3369 13.4277 20.3369 14.7827C20.3369 16.5894 18.8354 17.8833 16.687 17.8833Z" fill="#5ac8f5"/>
 </g>
</svg>
