<?xml version="1.0" encoding="UTF-8"?>
<!--Generator: Apple Native CoreSVG 175.5-->
<!DOCTYPE svg
PUBLIC "-//W3C//DTD SVG 1.1//EN"
       "http://www.w3.org/Graphics/SVG/1.1/DTD/svg11.dtd">
<svg version="1.1" xmlns="http://www.w3.org/2000/svg" xmlns:xlink="http://www.w3.org/1999/xlink" width="22.4731" height="22.4976">
 <g>
  <rect height="22.4976" opacity="0" width="22.4731" x="0" y="0"/>
  <path d="M3.83301 22.4976L18.6401 22.4976C21.2036 22.4976 22.4731 21.228 22.4731 18.7134L22.4731 3.80859C22.4731 1.29395 21.2036 0.0244141 18.6401 0.0244141L3.83301 0.0244141C1.28174 0.0244141 0 1.28174 0 3.80859L0 18.7134C0 21.2402 1.28174 22.4976 3.83301 22.4976ZM3.85742 20.5322C2.63672 20.5322 1.96533 19.8853 1.96533 18.6157L1.96533 3.90625C1.96533 2.63672 2.63672 1.98975 3.85742 1.98975L18.6157 1.98975C19.8242 1.98975 20.5078 2.63672 20.5078 3.90625L20.5078 18.6157C20.5078 19.8853 19.8242 20.5322 18.6157 20.5322ZM7.44629 16.5039C9.5459 16.5039 10.9375 14.4897 10.9375 11.2427C10.9375 7.99561 9.5459 5.98145 7.44629 5.98145C5.34668 5.98145 3.95508 7.99561 3.95508 11.2427C3.95508 14.4897 5.34668 16.5039 7.44629 16.5039ZM7.44629 15.0269C6.28662 15.0269 5.5542 13.5864 5.5542 11.2427C5.5542 8.89893 6.28662 7.4585 7.44629 7.4585C8.60596 7.4585 9.33838 8.89893 9.33838 11.2427C9.33838 13.5864 8.61816 15.0269 7.44629 15.0269ZM13.9648 16.3696C14.2944 16.3696 14.5386 16.1865 14.7461 15.7715L18.5547 8.1543C18.75 7.76367 18.7866 7.54395 18.7866 7.2876C18.7866 6.68945 18.3594 6.22559 17.7002 6.22559L12.7808 6.22559C12.3535 6.22559 12.0728 6.50635 12.0728 6.92139C12.0728 7.32422 12.3535 7.59277 12.7808 7.59277L17.0654 7.59277L17.0654 7.69043L13.2812 15.0146C13.1836 15.1978 13.147 15.3442 13.147 15.5762C13.147 16.04 13.501 16.3696 13.9648 16.3696Z" fill="#5ac8f5"/>
 </g>
</svg>
