<?xml version="1.0" encoding="UTF-8"?>
<!--Generator: Apple Native CoreSVG 175.5-->
<!DOCTYPE svg
PUBLIC "-//W3C//DTD SVG 1.1//EN"
       "http://www.w3.org/Graphics/SVG/1.1/DTD/svg11.dtd">
<svg version="1.1" xmlns="http://www.w3.org/2000/svg" xmlns:xlink="http://www.w3.org/1999/xlink" width="22.8027" height="19.8853">
 <g>
  <rect height="19.8853" opacity="0" width="22.8027" x="0" y="0"/>
  <path d="M18.396 19.8853L21.1792 19.8853C22.2534 19.8853 22.8027 19.3237 22.8027 18.2495L22.8027 1.62354C22.8027 0.512695 22.2534 0 21.1792 0L18.396 0C17.334 0 16.7725 0.561523 16.7725 1.62354L16.7725 18.2495C16.7725 19.3237 17.334 19.8853 18.396 19.8853ZM1.75781 19.519C2.2583 19.519 2.66113 19.3604 3.16162 19.0674L15.6006 11.7554C16.4673 11.2427 16.8335 10.6323 16.8335 9.93652C16.8335 9.22852 16.4673 8.63037 15.6006 8.11768L3.16162 0.793457C2.66113 0.500488 2.2583 0.341797 1.75781 0.341797C0.793457 0.341797 0 1.07422 0 2.44141L0 17.4316C0 18.7988 0.793457 19.519 1.75781 19.519Z" fill="#5ac8f5"/>
 </g>
</svg>
