<?xml version="1.0" encoding="UTF-8"?>
<!--Generator: Apple Native CoreSVG 175.5-->
<!DOCTYPE svg
PUBLIC "-//W3C//DTD SVG 1.1//EN"
       "http://www.w3.org/Graphics/SVG/1.1/DTD/svg11.dtd">
<svg version="1.1" xmlns="http://www.w3.org/2000/svg" xmlns:xlink="http://www.w3.org/1999/xlink" width="24.6948" height="12.5366">
 <g>
  <rect height="12.5366" opacity="0" width="24.6948" x="0" y="0"/>
  <path d="M0.915527 12.5366L23.7671 12.5366C24.2798 12.5366 24.6948 12.1216 24.6948 11.5967C24.6948 11.084 24.2798 10.6812 23.7671 10.6812L0.915527 10.6812C0.402832 10.6812 0 11.084 0 11.5967C0 12.1216 0.402832 12.5366 0.915527 12.5366ZM0.915527 7.20215L23.7671 7.20215C24.2798 7.20215 24.6948 6.79932 24.6948 6.28662C24.6948 5.76172 24.2798 5.34668 23.7671 5.34668L0.915527 5.34668C0.402832 5.34668 0 5.76172 0 6.28662C0 6.79932 0.402832 7.20215 0.915527 7.20215ZM0.915527 1.87988L23.7671 1.87988C24.2798 1.87988 24.6948 1.47705 24.6948 0.964355C24.6948 0.45166 24.2798 0.0366211 23.7671 0.0366211L0.915527 0.0366211C0.402832 0.0366211 0 0.45166 0 0.964355C0 1.47705 0.402832 1.87988 0.915527 1.87988Z" fill="#5ac8f5"/>
 </g>
</svg>
