<?xml version="1.0" encoding="UTF-8"?>
<!--Generator: Apple Native CoreSVG 175.5-->
<!DOCTYPE svg
PUBLIC "-//W3C//DTD SVG 1.1//EN"
       "http://www.w3.org/Graphics/SVG/1.1/DTD/svg11.dtd">
<svg version="1.1" xmlns="http://www.w3.org/2000/svg" xmlns:xlink="http://www.w3.org/1999/xlink" width="22.4731" height="22.4976">
 <g>
  <rect height="22.4976" opacity="0" width="22.4731" x="0" y="0"/>
  <path d="M3.83301 22.4976L18.6401 22.4976C21.2036 22.4976 22.4731 21.228 22.4731 18.7134L22.4731 3.80859C22.4731 1.29395 21.2036 0.0244141 18.6401 0.0244141L3.83301 0.0244141C1.28174 0.0244141 0 1.28174 0 3.80859L0 18.7134C0 21.2402 1.28174 22.4976 3.83301 22.4976ZM3.85742 20.5322C2.63672 20.5322 1.96533 19.8853 1.96533 18.6157L1.96533 3.90625C1.96533 2.63672 2.63672 1.98975 3.85742 1.98975L18.6157 1.98975C19.8242 1.98975 20.5078 2.63672 20.5078 3.90625L20.5078 18.6157C20.5078 19.8853 19.8242 20.5322 18.6157 20.5322ZM6.44531 13.562C6.44531 14.0991 6.79932 14.4287 7.34863 14.4287L10.498 14.4287L10.498 16.6138C10.498 17.9443 11.0352 19.043 11.2549 19.043C11.4746 19.043 12.0117 17.9443 12.0117 16.6138L12.0117 14.4287L15.1611 14.4287C15.7227 14.4287 16.0645 14.0991 16.0645 13.562C16.0645 12.2681 15.0146 10.8765 13.2812 10.2539L13.0737 7.38525C13.9648 6.88477 14.6973 6.31104 15.0269 5.896C15.1855 5.67627 15.271 5.45654 15.271 5.26123C15.271 4.88281 14.978 4.61426 14.5386 4.61426L7.97119 4.61426C7.53174 4.61426 7.23877 4.88281 7.23877 5.26123C7.23877 5.45654 7.32422 5.68848 7.50732 5.9082C7.83691 6.32324 8.55713 6.89697 9.43604 7.38525L9.24072 10.2539C7.49512 10.8765 6.44531 12.2681 6.44531 13.562Z" fill="#5ac8f5"/>
 </g>
</svg>
