<?xml version="1.0" encoding="UTF-8"?>
<!--Generator: Apple Native CoreSVG 175.5-->
<!DOCTYPE svg
PUBLIC "-//W3C//DTD SVG 1.1//EN"
       "http://www.w3.org/Graphics/SVG/1.1/DTD/svg11.dtd">
<svg version="1.1" xmlns="http://www.w3.org/2000/svg" xmlns:xlink="http://www.w3.org/1999/xlink" width="29.9805" height="31.8495">
 <g>
  <rect height="31.8495" opacity="0" width="29.9805" x="0" y="0"/>
  <path d="M3.83301 27.1736L26.1475 27.1736C28.6865 27.1736 29.9805 25.904 29.9805 23.3894L29.9805 10.6086C29.9805 8.09396 28.6865 6.83664 26.1475 6.83664L22.6562 6.83664C21.6919 6.83664 21.3989 6.64133 20.8496 6.03097L19.873 4.93234C19.2627 4.26095 18.6401 3.89474 17.3828 3.89474L12.5122 3.89474C11.2549 3.89474 10.6323 4.26095 10.022 4.93234L9.04541 6.03097C8.49609 6.62912 8.19092 6.83664 7.23877 6.83664L3.83301 6.83664C1.28174 6.83664 0 8.09396 0 10.6086L0 23.3894C0 25.904 1.28174 27.1736 3.83301 27.1736ZM14.9902 23.5725C11.2915 23.5725 8.3252 20.6184 8.3252 16.8952C8.3252 13.1843 11.2915 10.2302 14.9902 10.2302C18.689 10.2302 21.6431 13.1843 21.6431 16.8952C21.6431 20.6184 18.6768 23.5725 14.9902 23.5725ZM14.9902 21.717C17.6514 21.717 19.7998 19.5808 19.7998 16.8952C19.7998 14.2219 17.6514 12.0735 14.9902 12.0735C12.3291 12.0735 10.1685 14.2219 10.1685 16.8952C10.1685 19.5808 12.3413 21.717 14.9902 21.717ZM22.4609 12.403C22.4609 11.573 23.1812 10.8405 24.0479 10.8405C24.8779 10.8405 25.6104 11.573 25.6104 12.403C25.6104 13.2697 24.8779 13.9655 24.0479 13.9778C23.1812 13.9778 22.4609 13.282 22.4609 12.403Z" fill="#5ac8f5" fill-opacity="0.5"/>
  <path d="M1.63574 1.7341L5.06592 4.67599C5.28564 4.8591 5.51758 5.00558 5.77393 5.00558C6.04248 5.00558 6.27441 4.8591 6.49414 4.67599L9.92432 1.7341C10.9375 0.879607 9.74121-0.682893 8.61816 0.33029L5.77393 2.93039L2.94189 0.33029C1.80664-0.682893 0.622559 0.879607 1.63574 1.7341Z" fill="#5ac8f5"/>
 </g>
</svg>
