<?xml version="1.0" encoding="UTF-8"?>
<!--Generator: Apple Native CoreSVG 175.5-->
<!DOCTYPE svg
PUBLIC "-//W3C//DTD SVG 1.1//EN"
       "http://www.w3.org/Graphics/SVG/1.1/DTD/svg11.dtd">
<svg version="1.1" xmlns="http://www.w3.org/2000/svg" xmlns:xlink="http://www.w3.org/1999/xlink" width="27.7222" height="22.4976">
 <g>
  <rect height="22.4976" opacity="0" width="27.7222" x="0" y="0"/>
  <path d="M3.83301 22.3389L24.2554 22.3389C26.4404 22.3389 27.7222 21.0693 27.7222 18.5547L27.7222 6.01807C27.7222 3.50342 26.4282 2.23389 23.8892 2.23389L12.1704 2.23389C11.3403 2.23389 10.8398 2.03857 10.2295 1.51367L9.48486 0.90332C8.6792 0.219727 8.05664 0 6.84814 0L3.36914 0C1.23291 0 0 1.2207 0 3.67432L0 18.5547C0 21.0815 1.28174 22.3389 3.83301 22.3389ZM13.6353 14.6362C13.0371 14.6362 12.6953 14.3311 12.6953 13.7085C12.6953 13.6597 12.6953 13.6108 12.6953 13.562C12.6953 12.4023 13.3301 11.792 14.1602 11.2061C15.1978 10.4858 15.686 10.1074 15.686 9.31396C15.686 8.42285 14.9902 7.82471 13.9282 7.82471C13.1592 7.82471 12.5488 8.20312 12.1338 8.89893L11.9263 9.17969C11.7065 9.44824 11.4502 9.64355 11.0596 9.64355C10.6689 9.64355 10.2417 9.36279 10.2417 8.83789C10.2417 8.63037 10.2905 8.43506 10.3516 8.25195C10.6689 7.17773 11.9873 6.23779 14.0015 6.23779C16.0034 6.23779 17.7368 7.27539 17.7368 9.22852C17.7368 10.6201 16.9189 11.3159 15.7837 12.0605C14.9658 12.5854 14.5874 13.0005 14.5874 13.6597C14.5874 13.7085 14.5874 13.7573 14.5874 13.7939C14.5874 14.27 14.2334 14.6362 13.6353 14.6362ZM13.6108 18.1274C12.9395 18.1274 12.3413 17.5781 12.3413 16.9067C12.3413 16.2354 12.9272 15.686 13.6108 15.686C14.3066 15.686 14.8804 16.2231 14.8804 16.9067C14.8804 17.5903 14.2944 18.1274 13.6108 18.1274Z" fill="#5ac8f5"/>
 </g>
</svg>
