<?xml version="1.0" encoding="UTF-8"?>
<!--Generator: Apple Native CoreSVG 175.5-->
<!DOCTYPE svg
PUBLIC "-//W3C//DTD SVG 1.1//EN"
       "http://www.w3.org/Graphics/SVG/1.1/DTD/svg11.dtd">
<svg version="1.1" xmlns="http://www.w3.org/2000/svg" xmlns:xlink="http://www.w3.org/1999/xlink" width="22.4731" height="22.4976">
 <g>
  <rect height="22.4976" opacity="0" width="22.4731" x="0" y="0"/>
  <path d="M3.83301 22.4976L18.6401 22.4976C21.2036 22.4976 22.4731 21.228 22.4731 18.7134L22.4731 3.80859C22.4731 1.29395 21.2036 0.0244141 18.6401 0.0244141L3.83301 0.0244141C1.28174 0.0244141 0 1.28174 0 3.80859L0 18.7134C0 21.2402 1.28174 22.4976 3.83301 22.4976Z" fill="#5ac8f5" fill-opacity="0.25"/>
  <path d="M10.9863 13.855C10.3394 13.855 9.98535 13.5132 9.98535 12.854C9.98535 12.8052 9.98535 12.7441 9.98535 12.6953C9.98535 11.4502 10.6567 10.791 11.5601 10.1562C12.6587 9.38721 13.1836 8.97217 13.1836 8.11768C13.1836 7.16553 12.439 6.51855 11.3037 6.51855C10.4736 6.51855 9.81445 6.93359 9.36279 7.66602L9.14307 7.97119C8.91113 8.26416 8.64258 8.47168 8.20312 8.47168C7.78809 8.47168 7.33643 8.1665 7.33643 7.60498C7.33643 7.38525 7.38525 7.17773 7.44629 6.98242C7.80029 5.82275 9.21631 4.80957 11.377 4.80957C13.5254 4.80957 15.3931 5.92041 15.3931 8.02002C15.3931 9.53369 14.5142 10.2661 13.2935 11.0718C12.4268 11.6455 12.0117 12.0972 12.0117 12.8052C12.0117 12.8418 12.0117 12.9028 12.0117 12.9517C12.0117 13.4521 11.6333 13.855 10.9863 13.855ZM10.9619 17.6025C10.2295 17.6025 9.59473 17.0166 9.59473 16.2964C9.59473 15.5762 10.2173 14.978 10.9619 14.978C11.7065 14.978 12.3291 15.564 12.3291 16.2964C12.3291 17.0288 11.6943 17.6025 10.9619 17.6025Z" fill="#5ac8f5"/>
 </g>
</svg>
