<?xml version="1.0" encoding="UTF-8"?>
<!--Generator: Apple Native CoreSVG 175.5-->
<!DOCTYPE svg
PUBLIC "-//W3C//DTD SVG 1.1//EN"
       "http://www.w3.org/Graphics/SVG/1.1/DTD/svg11.dtd">
<svg version="1.1" xmlns="http://www.w3.org/2000/svg" xmlns:xlink="http://www.w3.org/1999/xlink" width="24.9023" height="25.0122">
 <g>
  <rect height="25.0122" opacity="0" width="24.9023" x="0" y="0"/>
  <path d="M12.4512 25.0122C19.2627 25.0122 24.9023 19.3604 24.9023 12.561C24.9023 5.74951 19.2505 0.109863 12.439 0.109863C5.63965 0.109863 0 5.74951 0 12.561C0 19.3604 5.65186 25.0122 12.4512 25.0122ZM6.10352 15.0146L10.8643 6.72607C11.6821 5.32227 13.269 5.37109 14.0503 6.71387L18.8232 15.0146C19.6533 16.4551 19.0063 17.8345 17.395 17.8345L7.54395 17.8345C5.92041 17.8345 5.28564 16.4551 6.10352 15.0146ZM7.76367 15.686C7.62939 15.8813 7.70264 16.0645 7.94678 16.0645L16.98 16.0645C17.2363 16.0645 17.2974 15.8813 17.1753 15.686L12.6587 7.84912C12.561 7.66602 12.3535 7.65381 12.2559 7.84912Z" fill="#5ac8f5"/>
 </g>
</svg>
