<?xml version="1.0" encoding="UTF-8"?>
<!--Generator: Apple Native CoreSVG 175.5-->
<!DOCTYPE svg
PUBLIC "-//W3C//DTD SVG 1.1//EN"
       "http://www.w3.org/Graphics/SVG/1.1/DTD/svg11.dtd">
<svg version="1.1" xmlns="http://www.w3.org/2000/svg" xmlns:xlink="http://www.w3.org/1999/xlink" width="12.6193" height="26.6584">
 <g>
  <rect height="26.6584" opacity="0" width="12.6193" x="0" y="0"/>
  <path d="M4.02848 24.5536C3.29605 24.6024 2.45377 24.9564 1.91666 25.4569C1.73355 25.6278 1.74576 25.8353 1.94107 25.9696C2.53922 26.4212 3.43033 26.6532 4.17496 26.5555C4.88297 26.5067 5.72525 26.1283 6.28678 25.6278C6.5065 25.4325 6.46988 25.2005 6.21353 25.054C5.61539 24.6878 4.73648 24.4925 4.02848 24.5536ZM1.465 20.4276C1.30631 20.1956 1.08658 20.1834 0.903475 20.4032C0.415194 20.9647 0.0611902 21.807 0.0123621 22.515C-0.0608801 23.2718 0.195468 24.1629 0.671542 24.7245C0.830233 24.9198 1.02555 24.9198 1.18424 24.7367C1.66031 24.2118 2.00211 23.3573 2.03873 22.6126C2.07535 21.9046 1.84342 21.0257 1.465 20.4276ZM7.47086 21.2454C6.78726 21.4774 6.06705 22.0389 5.67642 22.6615C5.54215 22.8812 5.60318 23.0643 5.83512 23.1497C6.53092 23.4427 7.45865 23.4427 8.14224 23.162C8.81363 22.9178 9.53385 22.3441 9.93668 21.7215C10.0832 21.4774 10.0099 21.2699 9.74137 21.1844C9.05777 20.9769 8.14224 21.0013 7.47086 21.2454ZM3.95523 17.9251C3.73551 17.7176 3.51578 17.7542 3.40592 18.0228C3.07633 18.682 2.95426 19.5975 3.08853 20.2933C3.22281 21.0501 3.69889 21.8436 4.28482 22.2708C4.48014 22.4173 4.68766 22.3807 4.78531 22.1488C5.1149 21.5262 5.21256 20.6107 5.06607 19.8783C4.91959 19.1825 4.48014 18.4012 3.95523 17.9251ZM12.61 16.5213C12.6588 16.2406 12.5124 16.0819 12.2194 16.1185C11.5114 16.2039 10.7057 16.5946 10.1808 17.0951C9.65592 17.5711 9.22867 18.3646 9.1066 19.1092C9.06998 19.3534 9.20426 19.512 9.4484 19.4998C10.2052 19.4754 11.0475 19.1092 11.5602 18.5721C12.0851 18.0594 12.5124 17.2293 12.61 16.5213ZM5.60318 15.4715C5.33463 15.3739 5.15152 15.4959 5.15152 15.7889C5.10269 16.5091 5.35904 17.3758 5.77408 17.9984C6.16471 18.6331 6.93375 19.158 7.66617 19.3289C7.8981 19.3656 8.069 19.2435 8.08121 19.0116C8.11783 18.2547 7.84928 17.388 7.42203 16.8143C7.00699 16.2406 6.28678 15.7035 5.60318 15.4715ZM7.64176 12.6151C7.11685 12.1512 6.27457 11.8338 5.54215 11.7728C5.26139 11.7606 5.12711 11.9437 5.16373 12.2122C5.32242 12.9203 5.79849 13.7137 6.36002 14.1898C6.89713 14.6781 7.77603 15.0077 8.53287 14.9832C8.7526 14.971 8.88687 14.8001 8.85025 14.5804C8.70377 13.8602 8.22769 13.0789 7.64176 12.6151ZM12.5978 11.016C12.5612 10.723 12.3659 10.6131 12.1095 10.723C11.4504 10.9793 10.7545 11.5653 10.3761 12.1756C9.98551 12.8104 9.76578 13.7015 9.85123 14.3973C9.87564 14.6414 10.0587 14.7635 10.2907 14.6903C10.9987 14.495 11.7189 13.9212 12.0851 13.262C12.4757 12.6273 12.6711 11.7362 12.5978 11.016ZM6.98258 8.51351C6.3234 8.26937 5.42008 8.25716 4.72428 8.45248C4.45572 8.53793 4.38248 8.74545 4.51676 8.96517C4.88297 9.58773 5.60318 10.1737 6.3234 10.4422C7.00699 10.723 7.93473 10.723 8.63053 10.4422C8.85025 10.3446 8.91129 10.137 8.78922 9.94174C8.39859 9.30697 7.67838 8.75765 6.98258 8.51351ZM11.0719 5.31527C10.9499 5.07113 10.7179 5.0223 10.5104 5.1932C10.0099 5.68148 9.54605 6.46273 9.39957 7.17074C9.24088 7.89095 9.33853 8.79427 9.66812 9.42904C9.77799 9.64877 9.98551 9.7098 10.1686 9.56332C10.7668 9.12386 11.2428 8.34261 11.3771 7.59799C11.5236 6.88998 11.4015 5.98666 11.0719 5.31527ZM4.7609 4.99789C4.05289 4.8514 3.16178 4.96127 2.5148 5.25424C2.25846 5.3641 2.19742 5.58383 2.38053 5.80355C2.8566 6.34066 3.65006 6.81674 4.35807 6.97543C5.09049 7.17074 6.00601 7.04867 6.64078 6.67025C6.8483 6.53597 6.88492 6.32845 6.73844 6.15756C6.27457 5.59603 5.49332 5.13216 4.7609 4.99789ZM8.37418 1.23812C8.21549 1.0184 7.98355 0.993981 7.80045 1.21371C7.33658 1.78744 6.99478 2.61752 6.95816 3.31332C6.88492 4.02133 7.12906 4.91244 7.5441 5.535C7.67838 5.73031 7.8859 5.75472 8.069 5.58383C8.60611 5.04672 8.97232 4.20443 8.98453 3.4598C9.03336 2.75179 8.78922 1.86068 8.37418 1.23812ZM2.07535 0.00521184C1.78238-0.0314093 1.6359 0.127282 1.66031 0.408044C1.77017 1.14047 2.17301 1.95834 2.66129 2.47103C3.17398 3.04476 4.00406 3.43539 4.74869 3.47201C4.99283 3.48422 5.12711 3.33773 5.10269 3.09359C5.01724 2.38558 4.61441 1.5433 4.08951 1.04281C3.58902 0.542321 2.78336 0.115075 2.07535 0.00521184Z" fill="#5ac8f5"/>
 </g>
</svg>
