<?xml version="1.0" encoding="UTF-8"?>
<!--Generator: Apple Native CoreSVG 175.5-->
<!DOCTYPE svg
PUBLIC "-//W3C//DTD SVG 1.1//EN"
       "http://www.w3.org/Graphics/SVG/1.1/DTD/svg11.dtd">
<svg version="1.1" xmlns="http://www.w3.org/2000/svg" xmlns:xlink="http://www.w3.org/1999/xlink" width="24.6948" height="14.563">
 <g>
  <rect height="14.563" opacity="0" width="24.6948" x="0" y="0"/>
  <path d="M6.05469 14.5386L18.7012 14.5386C19.2505 14.5386 19.6899 14.1113 19.6899 13.562C19.6899 13.0127 19.2505 12.5732 18.7012 12.5732L6.05469 12.5732C5.50537 12.5732 5.07812 13.0127 5.07812 13.562C5.07812 14.1113 5.50537 14.5386 6.05469 14.5386ZM3.55225 8.25195L21.2158 8.25195C21.7651 8.25195 22.1924 7.82471 22.1924 7.27539C22.1924 6.72607 21.7651 6.28662 21.2158 6.28662L3.55225 6.28662C3.00293 6.28662 2.56348 6.72607 2.56348 7.27539C2.56348 7.82471 3.00293 8.25195 3.55225 8.25195ZM0.976562 1.96533L23.7183 1.96533C24.2676 1.96533 24.6948 1.53809 24.6948 0.98877C24.6948 0.439453 24.2676 0 23.7183 0L0.976562 0C0.427246 0 0 0.439453 0 0.98877C0 1.53809 0.427246 1.96533 0.976562 1.96533Z" fill="#5ac8f5"/>
 </g>
</svg>
