<?xml version="1.0" encoding="UTF-8"?>
<!--Generator: Apple Native CoreSVG 175.5-->
<!DOCTYPE svg
PUBLIC "-//W3C//DTD SVG 1.1//EN"
       "http://www.w3.org/Graphics/SVG/1.1/DTD/svg11.dtd">
<svg version="1.1" xmlns="http://www.w3.org/2000/svg" xmlns:xlink="http://www.w3.org/1999/xlink" width="19.7998" height="26.4282">
 <g>
  <rect height="26.4282" opacity="0" width="19.7998" x="0" y="0"/>
  <path d="M13.623 0L10.3149 0C8.23975 0 6.9458 1.26953 6.9458 3.2959L6.9458 5.44434L8.78906 5.44434L8.78906 3.2959C8.78906 2.40479 9.36279 1.85547 10.3149 1.85547L13.623 1.85547C16.2598 1.85547 17.9565 3.68652 17.9565 6.51855L17.9565 25.4639C17.9565 26.0132 18.335 26.4038 18.8721 26.4038C19.4092 26.4038 19.7998 26.0132 19.7998 25.4639L19.7998 6.51855C19.7998 2.55127 17.395 0 13.623 0ZM0 14.917C0 15.3564 0.366211 15.7104 0.805664 15.7104L14.9292 15.7104C15.3687 15.7104 15.7227 15.3564 15.7227 14.917C15.7227 14.4775 15.3809 14.1113 14.9536 14.1113L14.8804 14.1113C14.7827 11.4868 13.1104 9.21631 10.8032 8.14209L10.8032 7.20215C10.8032 5.51758 9.58252 4.27246 7.86133 4.27246C6.14014 4.27246 4.91943 5.51758 4.91943 7.20215L4.91943 8.14209C2.6123 9.21631 0.939941 11.4868 0.842285 14.1113L0.78125 14.1113C0.354004 14.1113 0 14.4775 0 14.917Z" fill="#5ac8f5"/>
  <path d="M3.77197 19.0308C4.27246 19.0308 4.66309 18.6401 4.66309 18.1274C4.66309 17.627 4.27246 17.2363 3.77197 17.2363C3.27148 17.2363 2.86865 17.627 2.86865 18.1274C2.86865 18.6401 3.27148 19.0308 3.77197 19.0308ZM7.84912 19.0308C8.34961 19.0308 8.74023 18.6401 8.74023 18.1274C8.74023 17.627 8.34961 17.2363 7.84912 17.2363C7.34863 17.2363 6.9458 17.627 6.9458 18.1274C6.9458 18.6401 7.34863 19.0308 7.84912 19.0308ZM11.9141 19.0308C12.4146 19.0308 12.8052 18.6401 12.8052 18.1274C12.8052 17.627 12.4146 17.2363 11.9141 17.2363C11.4136 17.2363 11.0107 17.627 11.0107 18.1274C11.0107 18.6401 11.4136 19.0308 11.9141 19.0308Z" fill="#5ac8f5" fill-opacity="0.5"/>
  <path d="M3.77197 22.3755C4.27246 22.3755 4.66309 21.9727 4.66309 21.4722C4.66309 20.9717 4.27246 20.5811 3.77197 20.5811C3.27148 20.5811 2.86865 20.9717 2.86865 21.4722C2.86865 21.9727 3.27148 22.3755 3.77197 22.3755ZM7.84912 22.3755C8.34961 22.3755 8.74023 21.9727 8.74023 21.4722C8.74023 20.9717 8.34961 20.5811 7.84912 20.5811C7.34863 20.5811 6.9458 20.9717 6.9458 21.4722C6.9458 21.9727 7.34863 22.3755 7.84912 22.3755ZM11.9141 22.3755C12.4146 22.3755 12.8052 21.9727 12.8052 21.4722C12.8052 20.9717 12.4146 20.5811 11.9141 20.5811C11.4136 20.5811 11.0107 20.9717 11.0107 21.4722C11.0107 21.9727 11.4136 22.3755 11.9141 22.3755Z" fill="#5ac8f5" fill-opacity="0.5"/>
  <path d="M3.77197 25.7202C4.27246 25.7202 4.66309 25.3174 4.66309 24.8169C4.66309 24.3164 4.27246 23.9258 3.77197 23.9258C3.27148 23.9258 2.86865 24.3164 2.86865 24.8169C2.86865 25.3174 3.27148 25.7202 3.77197 25.7202ZM7.84912 25.7202C8.34961 25.7202 8.74023 25.3174 8.74023 24.8169C8.74023 24.3164 8.34961 23.9258 7.84912 23.9258C7.34863 23.9258 6.9458 24.3164 6.9458 24.8169C6.9458 25.3174 7.34863 25.7202 7.84912 25.7202ZM11.9141 25.7202C12.4146 25.7202 12.8052 25.3174 12.8052 24.8169C12.8052 24.3164 12.4146 23.9258 11.9141 23.9258C11.4136 23.9258 11.0107 24.3164 11.0107 24.8169C11.0107 25.3174 11.4136 25.7202 11.9141 25.7202Z" fill="#5ac8f5" fill-opacity="0.5"/>
 </g>
</svg>
