<?xml version="1.0" encoding="UTF-8"?>
<!--Generator: Apple Native CoreSVG 175.5-->
<!DOCTYPE svg
PUBLIC "-//W3C//DTD SVG 1.1//EN"
       "http://www.w3.org/Graphics/SVG/1.1/DTD/svg11.dtd">
<svg version="1.1" xmlns="http://www.w3.org/2000/svg" xmlns:xlink="http://www.w3.org/1999/xlink" width="28.7842" height="22.4976">
 <g>
  <rect height="22.4976" opacity="0" width="28.7842" x="0" y="0"/>
  <path d="M5.33447 10.9619L6.35986 10.9619C6.67725 10.9619 6.87256 10.7666 6.87256 10.4492L6.87256 9.41162C6.87256 9.10645 6.67725 8.91113 6.35986 8.91113L5.33447 8.91113C5.01709 8.91113 4.82178 9.10645 4.82178 9.41162L4.82178 10.4492C4.82178 10.7666 5.01709 10.9619 5.33447 10.9619ZM8.75244 10.9619L9.79004 10.9619C10.1074 10.9619 10.2905 10.7666 10.2905 10.4492L10.2905 9.41162C10.2905 9.10645 10.1074 8.91113 9.79004 8.91113L8.75244 8.91113C8.44727 8.91113 8.25195 9.10645 8.25195 9.41162L8.25195 10.4492C8.25195 10.7666 8.44727 10.9619 8.75244 10.9619ZM12.1704 10.9619L13.1958 10.9619C13.5132 10.9619 13.7085 10.7666 13.7085 10.4492L13.7085 9.41162C13.7085 9.10645 13.5132 8.91113 13.1958 8.91113L12.1704 8.91113C11.853 8.91113 11.6699 9.10645 11.6699 9.41162L11.6699 10.4492C11.6699 10.7666 11.853 10.9619 12.1704 10.9619ZM15.5884 10.9619L16.626 10.9619C16.9312 10.9619 17.1143 10.7666 17.1143 10.4492L17.1143 9.41162C17.1143 9.10645 16.9312 8.91113 16.626 8.91113L15.5884 8.91113C15.271 8.91113 15.0757 9.10645 15.0757 9.41162L15.0757 10.4492C15.0757 10.7666 15.271 10.9619 15.5884 10.9619ZM18.9941 10.9619L20.0317 10.9619C20.3491 10.9619 20.5444 10.7666 20.5444 10.4492L20.5444 9.41162C20.5444 9.10645 20.3491 8.91113 20.0317 8.91113L18.9941 8.91113C18.689 8.91113 18.5059 9.10645 18.5059 9.41162L18.5059 10.4492C18.5059 10.7666 18.689 10.9619 18.9941 10.9619ZM22.4243 10.9619L23.4497 10.9619C23.7671 10.9619 23.9624 10.7666 23.9624 10.4492L23.9624 9.41162C23.9624 9.10645 23.7671 8.91113 23.4497 8.91113L22.4243 8.91113C22.1069 8.91113 21.9116 9.10645 21.9116 9.41162L21.9116 10.4492C21.9116 10.7666 22.1069 10.9619 22.4243 10.9619ZM5.33447 14.3799L6.35986 14.3799C6.67725 14.3799 6.87256 14.1846 6.87256 13.8672L6.87256 12.8418C6.87256 12.5366 6.67725 12.3413 6.35986 12.3413L5.33447 12.3413C5.01709 12.3413 4.82178 12.5366 4.82178 12.8418L4.82178 13.8672C4.82178 14.1846 5.01709 14.3799 5.33447 14.3799ZM8.75244 14.3799L9.79004 14.3799C10.1074 14.3799 10.2905 14.1846 10.2905 13.8672L10.2905 12.8418C10.2905 12.5366 10.1074 12.3413 9.79004 12.3413L8.75244 12.3413C8.44727 12.3413 8.25195 12.5366 8.25195 12.8418L8.25195 13.8672C8.25195 14.1846 8.44727 14.3799 8.75244 14.3799ZM12.1704 14.3799L13.1958 14.3799C13.5132 14.3799 13.7085 14.1846 13.7085 13.8672L13.7085 12.8418C13.7085 12.5366 13.5132 12.3413 13.1958 12.3413L12.1704 12.3413C11.853 12.3413 11.6699 12.5366 11.6699 12.8418L11.6699 13.8672C11.6699 14.1846 11.853 14.3799 12.1704 14.3799ZM15.5884 14.3799L16.626 14.3799C16.9312 14.3799 17.1143 14.1846 17.1143 13.8672L17.1143 12.8418C17.1143 12.5366 16.9312 12.3413 16.626 12.3413L15.5884 12.3413C15.271 12.3413 15.0757 12.5366 15.0757 12.8418L15.0757 13.8672C15.0757 14.1846 15.271 14.3799 15.5884 14.3799ZM18.9941 14.3799L20.0317 14.3799C20.3491 14.3799 20.5444 14.1846 20.5444 13.8672L20.5444 12.8418C20.5444 12.5366 20.3491 12.3413 20.0317 12.3413L18.9941 12.3413C18.689 12.3413 18.5059 12.5366 18.5059 12.8418L18.5059 13.8672C18.5059 14.1846 18.689 14.3799 18.9941 14.3799ZM22.4243 14.3799L23.4497 14.3799C23.7671 14.3799 23.9624 14.1846 23.9624 13.8672L23.9624 12.8418C23.9624 12.5366 23.7671 12.3413 23.4497 12.3413L22.4243 12.3413C22.1069 12.3413 21.9116 12.5366 21.9116 12.8418L21.9116 13.8672C21.9116 14.1846 22.1069 14.3799 22.4243 14.3799ZM5.33447 17.8101L6.35986 17.8101C6.67725 17.8101 6.87256 17.6147 6.87256 17.2974L6.87256 16.272C6.87256 15.9546 6.67725 15.7593 6.35986 15.7593L5.33447 15.7593C5.01709 15.7593 4.82178 15.9546 4.82178 16.272L4.82178 17.2974C4.82178 17.6147 5.01709 17.8101 5.33447 17.8101ZM8.8623 17.8101L19.9219 17.8101C20.3247 17.8101 20.5444 17.5781 20.5444 17.1875L20.5444 16.3818C20.5444 15.9912 20.3247 15.7593 19.9219 15.7593L8.8623 15.7593C8.47168 15.7593 8.25195 15.9912 8.25195 16.3818L8.25195 17.1875C8.25195 17.5781 8.47168 17.8101 8.8623 17.8101ZM22.4243 17.8101L23.4497 17.8101C23.7671 17.8101 23.9624 17.6147 23.9624 17.2974L23.9624 16.272C23.9624 15.9546 23.7671 15.7593 23.4497 15.7593L22.4243 15.7593C22.1069 15.7593 21.9116 15.9546 21.9116 16.272L21.9116 17.2974C21.9116 17.6147 22.1069 17.8101 22.4243 17.8101ZM0 18.7134C0 21.2402 1.28174 22.4976 3.83301 22.4976L24.9512 22.4976C27.5146 22.4976 28.7842 21.228 28.7842 18.7134L28.7842 3.80859C28.7842 1.29395 27.5146 0.0244141 24.9512 0.0244141L3.83301 0.0244141C1.28174 0.0244141 0 1.28174 0 3.80859ZM3.86963 4.18701C3.27148 4.18701 2.7832 3.67432 2.7832 3.10059C2.7832 2.52686 3.27148 2.01416 3.86963 2.01416C4.46777 2.01416 4.96826 2.52686 4.96826 3.10059C4.96826 3.67432 4.46777 4.18701 3.86963 4.18701ZM7.37305 4.18701C6.7749 4.18701 6.28662 3.67432 6.28662 3.10059C6.28662 2.52686 6.7749 2.01416 7.37305 2.01416C7.97119 2.01416 8.47168 2.52686 8.47168 3.10059C8.47168 3.67432 7.97119 4.18701 7.37305 4.18701ZM10.8765 4.18701C10.2783 4.18701 9.79004 3.67432 9.79004 3.10059C9.79004 2.52686 10.2783 2.01416 10.8765 2.01416C11.4746 2.01416 11.9629 2.52686 11.9629 3.10059C11.9629 3.67432 11.4746 4.18701 10.8765 4.18701ZM1.96533 18.6157L1.96533 6.17676L26.8188 6.17676L26.8188 18.6157C26.8188 19.8853 26.1353 20.5322 24.9268 20.5322L3.85742 20.5322C2.63672 20.5322 1.96533 19.8853 1.96533 18.6157Z" fill="#5ac8f5"/>
 </g>
</svg>
