<?xml version="1.0" encoding="UTF-8"?>
<!--Generator: Apple Native CoreSVG 175.5-->
<!DOCTYPE svg
PUBLIC "-//W3C//DTD SVG 1.1//EN"
       "http://www.w3.org/Graphics/SVG/1.1/DTD/svg11.dtd">
<svg version="1.1" xmlns="http://www.w3.org/2000/svg" xmlns:xlink="http://www.w3.org/1999/xlink" width="25.8301" height="25.5737">
 <g>
  <rect height="25.5737" opacity="0" width="25.8301" x="0" y="0"/>
  <path d="M16.0889 0.012207L3.83301 0.012207C1.28174 0.012207 0 1.28174 0 3.79639L0 16.1377C0 18.6523 1.28174 19.9219 3.83301 19.9219L16.0889 19.9219C18.6401 19.9219 19.9097 18.6646 19.9097 16.1377L19.9097 3.79639C19.9097 1.26953 18.6401 0.012207 16.0889 0.012207ZM25.8301 9.43604C25.8301 6.92139 24.5605 5.66406 22.0093 5.66406L21.582 5.66406L21.582 16.1377C21.582 19.5923 19.5557 21.5942 16.0889 21.5942L5.92041 21.5942L5.92041 21.7896C5.92041 24.3042 7.20215 25.5737 9.75342 25.5737L22.0093 25.5737C24.5605 25.5737 25.8301 24.3164 25.8301 21.7896Z" fill="#5ac8f5" fill-opacity="0.25"/>
  <path d="M5.99365 15.7349C5.35889 15.7349 4.99268 15.3198 4.99268 14.6118L4.99268 5.10254C4.99268 4.38232 5.35889 3.96729 5.99365 3.96729C6.64062 3.96729 7.00684 4.37012 7.00684 5.10254L7.00684 8.88672L12.8906 8.88672L12.8906 5.10254C12.8906 4.38232 13.269 3.96729 13.8916 3.96729C14.5508 3.96729 14.917 4.37012 14.917 5.10254L14.917 14.6118C14.917 15.332 14.5508 15.7349 13.8916 15.7349C13.269 15.7349 12.8906 15.3198 12.8906 14.6118L12.8906 10.4614L7.00684 10.4614L7.00684 14.6118C7.00684 15.332 6.64062 15.7349 5.99365 15.7349Z" fill="#5ac8f5"/>
 </g>
</svg>
