<?xml version="1.0" encoding="UTF-8"?>
<!--Generator: Apple Native CoreSVG 175.5-->
<!DOCTYPE svg
PUBLIC "-//W3C//DTD SVG 1.1//EN"
       "http://www.w3.org/Graphics/SVG/1.1/DTD/svg11.dtd">
<svg version="1.1" xmlns="http://www.w3.org/2000/svg" xmlns:xlink="http://www.w3.org/1999/xlink" width="24.9023" height="24.9146">
 <g>
  <rect height="24.9146" opacity="0" width="24.9023" x="0" y="0"/>
  <path d="M12.4512 24.9023C19.2627 24.9023 24.9023 19.2505 24.9023 12.4512C24.9023 5.63965 19.2505 0 12.439 0C5.63965 0 0 5.63965 0 12.4512C0 19.2505 5.65186 24.9023 12.4512 24.9023Z" fill="#5ac8f5" fill-opacity="0.25"/>
  <path d="M8.30078 17.7124C6.62842 17.7124 5.33447 16.6992 5.01709 15.5762C4.96826 15.4175 4.95605 15.2954 4.95605 15.1245C4.95605 14.6973 5.24902 14.3921 5.66406 14.3921C6.00586 14.3921 6.20117 14.5874 6.35986 14.978C6.67725 15.8325 7.34863 16.3086 8.31299 16.3086C9.48486 16.3086 10.2905 15.5884 10.2905 14.6362C10.2905 13.6475 9.5459 12.9883 8.38623 12.9883L7.67822 12.9883C7.27539 12.9883 7.00684 12.6831 7.00684 12.2925C7.00684 11.853 7.27539 11.5723 7.67822 11.5723L8.3374 11.5723C9.30176 11.5723 9.98535 10.9253 9.98535 10.0342C9.98535 9.17969 9.31396 8.59375 8.34961 8.59375C7.39746 8.59375 6.79932 9.06982 6.53076 9.92432C6.40869 10.3149 6.21338 10.5103 5.84717 10.5103C5.43213 10.5103 5.15137 10.2051 5.15137 9.76562C5.15137 9.60693 5.16357 9.48486 5.18799 9.32617C5.50537 8.12988 6.72607 7.18994 8.38623 7.18994C10.2051 7.18994 11.4868 8.27637 11.4868 9.83887C11.4868 10.9863 10.6934 11.9995 9.68018 12.1704L9.68018 12.2437C10.9131 12.3657 11.8164 13.4155 11.8164 14.7095C11.8164 16.4673 10.376 17.7124 8.30078 17.7124ZM16.4185 17.7124C14.7339 17.7124 13.7329 16.7603 13.5376 16.0889C13.4888 15.9424 13.4399 15.7715 13.4399 15.6494C13.4399 15.2222 13.7085 14.9292 14.0869 14.9292C14.4043 14.9292 14.6484 15.0635 14.8315 15.4053C15.1367 15.9424 15.686 16.3086 16.394 16.3086C17.7979 16.3086 18.7378 14.8682 18.7134 12.439L18.6401 12.439C18.3105 13.269 17.5171 13.9893 16.1743 13.9893C14.5874 13.9893 13.1592 12.8174 13.1592 10.7178C13.1592 8.56934 14.502 7.18994 16.5527 7.18994C18.8354 7.18994 20.1538 8.91113 20.1538 12.1094C20.1538 15.7837 18.8477 17.7124 16.4185 17.7124ZM16.6382 12.7319C17.7856 12.7319 18.5791 11.8652 18.5791 10.6689C18.5791 9.41162 17.7734 8.52051 16.6504 8.52051C15.4663 8.52051 14.7095 9.36279 14.7095 10.6445C14.7095 11.8652 15.4785 12.7319 16.6382 12.7319Z" fill="#5ac8f5"/>
 </g>
</svg>
