<?xml version="1.0" encoding="UTF-8"?>
<!--Generator: Apple Native CoreSVG 175.5-->
<!DOCTYPE svg
PUBLIC "-//W3C//DTD SVG 1.1//EN"
       "http://www.w3.org/Graphics/SVG/1.1/DTD/svg11.dtd">
<svg version="1.1" xmlns="http://www.w3.org/2000/svg" xmlns:xlink="http://www.w3.org/1999/xlink" width="18.75" height="28.3813">
 <g>
  <rect height="28.3813" opacity="0" width="18.75" x="0" y="0"/>
  <path d="M0 20.5078C0 23.877 2.09961 26.0254 5.3833 26.0254C7.83691 26.0254 9.66797 24.9512 10.8154 22.876L11.9141 20.9106C14.4897 16.1987 18.75 15.5884 18.75 9.53369C18.75 3.8208 15.0513 0 9.50928 0C3.8208 0 0 3.84521 0 9.58252Z" fill="#5ac8f5" fill-opacity="0.25"/>
  <path d="M3.56445 17.1265C3.56445 14.7705 6.16455 15.0635 6.16455 13.7085C6.16455 12.4878 3.56445 11.5967 3.56445 8.87451C3.56445 5.76172 5.94482 3.52783 9.48486 3.52783C13.0371 3.52783 15.4175 5.9082 15.4175 9.44824C15.4175 9.97314 14.978 10.4126 14.4531 10.4126C13.9404 10.4126 13.501 9.97314 13.501 9.44824C13.501 7.03125 11.9263 5.44434 9.48486 5.44434C7.08008 5.44434 5.48096 6.89697 5.48096 8.87451C5.48096 11.4258 9.22852 12.0117 9.22852 15.6494C9.22852 17.6758 7.94678 19.2993 6.04248 19.3115C4.56543 19.3115 3.56445 18.4326 3.56445 17.1265Z" fill="#5ac8f5"/>
 </g>
</svg>
