<?xml version="1.0" encoding="UTF-8"?>
<!--Generator: Apple Native CoreSVG 175.5-->
<!DOCTYPE svg
PUBLIC "-//W3C//DTD SVG 1.1//EN"
       "http://www.w3.org/Graphics/SVG/1.1/DTD/svg11.dtd">
<svg version="1.1" xmlns="http://www.w3.org/2000/svg" xmlns:xlink="http://www.w3.org/1999/xlink" width="24.9023" height="24.9146">
 <g>
  <rect height="24.9146" opacity="0" width="24.9023" x="0" y="0"/>
  <path d="M12.4512 24.9023C19.2627 24.9023 24.9023 19.2505 24.9023 12.4512C24.9023 5.63965 19.2505 0 12.439 0C5.63965 0 0 5.63965 0 12.4512C0 19.2505 5.65186 24.9023 12.4512 24.9023ZM5.34668 16.2842C4.89502 16.2842 4.61426 15.979 4.61426 15.5273C4.61426 15.4053 4.62646 15.2588 4.67529 15.0146L5.896 9.59473C6.04248 8.92334 6.46973 8.61816 7.09229 8.61816C7.72705 8.61816 8.17871 8.87451 8.3252 9.59473L9.55811 15.0146C9.59473 15.1611 9.63135 15.4053 9.63135 15.5273C9.63135 15.9668 9.33838 16.2842 8.89893 16.2842C8.43506 16.2842 8.19092 16.04 8.10547 15.5762L7.91016 14.6118L6.29883 14.6118L6.11572 15.5518C6.03027 16.0278 5.82275 16.2842 5.34668 16.2842ZM6.49414 13.4644L7.70264 13.4644L7.10449 10.4126L7.06787 10.4126ZM11.3892 16.1743C10.8765 16.1743 10.5957 15.8447 10.5957 15.332L10.5957 9.55811C10.5957 9.0332 10.8521 8.72803 11.3892 8.72803L13.1714 8.72803C14.4409 8.72803 14.9414 9.63135 14.9414 10.5835C14.9414 11.3037 14.4775 12.085 13.7695 12.1948L13.7695 12.2681C14.563 12.2925 15.1123 13.1714 15.1123 14.0503C15.1123 15.271 14.4409 16.1743 13.2324 16.1743ZM12.146 15.0391L12.6953 15.0391C13.2935 15.0391 13.5376 14.5264 13.5376 13.916C13.5376 13.3057 13.2812 12.8296 12.6831 12.8296L12.146 12.8296ZM12.146 11.8286L12.6221 11.8286C13.208 11.8286 13.4521 11.4136 13.4521 10.8276C13.4521 10.2783 13.2568 9.86328 12.7075 9.86328L12.146 9.86328ZM18.0664 16.333C16.9678 16.333 16.272 15.8203 16.0156 14.917C15.9668 14.7949 15.9546 14.624 15.9546 14.502C15.9546 14.0869 16.2598 13.8062 16.6016 13.8062C16.9067 13.8062 17.2119 13.9282 17.334 14.3677C17.4316 14.7705 17.6636 15.1001 18.0908 15.1001C18.5181 15.1001 18.75 14.7339 18.75 14.2456C18.75 13.6353 18.3594 13.3667 17.8345 13.1104L17.3828 12.8784C16.4795 12.4146 15.9302 11.8042 15.9302 10.73C15.9302 9.38721 16.7969 8.55713 18.0664 8.55713C19.0674 8.55713 19.7876 9.17969 20.0317 9.93652C20.105 10.0952 20.1294 10.2661 20.1294 10.4126C20.1294 10.8032 19.8853 11.0718 19.4946 11.0718C19.1162 11.0718 18.8354 10.8887 18.7744 10.5713C18.7012 10.1685 18.4814 9.79004 18.0664 9.79004C17.6392 9.79004 17.4683 10.1807 17.4683 10.5957C17.4683 11.1938 17.8345 11.4746 18.3838 11.7432L18.8232 11.9751C19.873 12.5122 20.2759 13.0981 20.2759 14.1235C20.2759 15.564 19.3604 16.333 18.0664 16.333Z" fill="#5ac8f5"/>
 </g>
</svg>
