<?xml version="1.0" encoding="UTF-8"?>
<!--Generator: Apple Native CoreSVG 175.5-->
<!DOCTYPE svg
PUBLIC "-//W3C//DTD SVG 1.1//EN"
       "http://www.w3.org/Graphics/SVG/1.1/DTD/svg11.dtd">
<svg version="1.1" xmlns="http://www.w3.org/2000/svg" xmlns:xlink="http://www.w3.org/1999/xlink" width="25.2175" height="25.9644">
 <g>
  <rect height="25.9644" opacity="0" width="25.2175" x="0" y="0"/>
  <path d="M4.9914 9.09424L6.95673 9.09424L6.95673 7.34863C6.95673 4.29688 9.41035 1.96533 12.6086 1.96533C15.8068 1.96533 18.2604 4.29688 18.2604 7.34863L18.2604 9.09424L20.2258 9.09424L20.2258 7.34863C20.2258 3.18604 16.9299 0 12.6086 0C8.29951 0 4.9914 3.18604 4.9914 7.34863ZM4.07587 25.9521L21.1413 25.9521C24.1198 25.9521 25.5358 24.2188 25.1574 21.0449L24.1076 12.0117C23.8513 9.82666 22.5329 8.64258 20.4089 8.64258L4.80829 8.64258C2.68427 8.64258 1.37812 9.82666 1.12177 12.0117L0.0597596 21.0449C-0.318658 24.2188 1.10956 25.9521 4.07587 25.9521ZM4.07587 23.9868C2.53779 23.9868 1.79316 23.0347 2.00068 21.2769L3.06269 12.2437C3.18476 11.1816 3.79511 10.6079 4.80829 10.6079L20.4089 10.6079C21.4343 10.6079 22.0446 11.1816 22.1667 12.2437L23.2165 21.2769C23.424 23.0347 22.6794 23.9868 21.1413 23.9868ZM11.4855 18.8477L13.7316 18.8477C14.5617 18.8477 15.05 18.3838 15.05 17.5537L15.05 16.6748C18.3215 16.1255 21.3732 14.3677 22.716 10.9985L20.9094 10.1807C19.6398 13.5864 16.3073 14.917 12.6086 14.917C8.90986 14.917 5.57734 13.5864 4.30781 10.1807L2.51337 10.9985C3.84394 14.3677 6.8957 16.1255 10.1672 16.6748L10.1672 17.5537C10.1672 18.3838 10.6555 18.8477 11.4855 18.8477Z" fill="#5ac8f5"/>
 </g>
</svg>
