<?xml version="1.0" encoding="UTF-8"?>
<!--Generator: Apple Native CoreSVG 175.5-->
<!DOCTYPE svg
PUBLIC "-//W3C//DTD SVG 1.1//EN"
       "http://www.w3.org/Graphics/SVG/1.1/DTD/svg11.dtd">
<svg version="1.1" xmlns="http://www.w3.org/2000/svg" xmlns:xlink="http://www.w3.org/1999/xlink" width="22.4731" height="22.4976">
 <g>
  <rect height="22.4976" opacity="0" width="22.4731" x="0" y="0"/>
  <path d="M3.83301 22.4976L18.6401 22.4976C21.2036 22.4976 22.4731 21.228 22.4731 18.7134L22.4731 3.80859C22.4731 1.29395 21.2036 0.0244141 18.6401 0.0244141L3.83301 0.0244141C1.28174 0.0244141 0 1.28174 0 3.80859L0 18.7134C0 21.2402 1.28174 22.4976 3.83301 22.4976ZM3.85742 20.5322C2.63672 20.5322 1.96533 19.8853 1.96533 18.6157L1.96533 3.90625C1.96533 2.63672 2.63672 1.98975 3.85742 1.98975L18.6157 1.98975C19.8242 1.98975 20.5078 2.63672 20.5078 3.90625L20.5078 18.6157C20.5078 19.8853 19.8242 20.5322 18.6157 20.5322ZM5.52979 7.00684C5.2002 7.32422 5.2124 7.88574 5.52979 8.19092L8.59375 11.1938C8.75244 11.3281 8.98438 11.4258 9.16748 11.4258C9.63135 11.4258 9.94873 11.1084 9.94873 10.6567C9.94873 10.437 9.86328 10.2417 9.7168 10.0952L8.42285 8.83789L7.91016 8.36182L8.48389 8.39844L16.4185 8.39844C16.8701 8.39844 17.1997 8.04443 17.1997 7.59277C17.1997 7.14111 16.8701 6.81152 16.4185 6.81152L8.49609 6.81152L7.92236 6.82373L8.42285 6.37207L9.7168 5.11475C9.86328 4.96826 9.94873 4.76074 9.94873 4.55322C9.94873 4.08936 9.63135 3.77197 9.16748 3.77197C8.97217 3.77197 8.74023 3.86963 8.59375 4.02832ZM16.9556 15.4907C17.2852 15.1611 17.2729 14.6606 16.9556 14.3433L13.8794 11.3403C13.7451 11.1938 13.5132 11.0962 13.3057 11.0962C12.8418 11.0962 12.5244 11.4136 12.5244 11.8652C12.5244 12.085 12.6099 12.2803 12.7563 12.4268L14.0747 13.6841L14.5752 14.1602L13.9893 14.1235L6.06689 14.1235C5.62744 14.1235 5.28564 14.4531 5.28564 14.917C5.28564 15.3687 5.61523 15.7104 6.06689 15.7104L13.9771 15.7104L14.5752 15.6982L14.0747 16.1499L12.7686 17.4072C12.6221 17.5659 12.5244 17.749 12.5244 17.9688C12.5244 18.4204 12.8662 18.75 13.3057 18.75C13.4888 18.75 13.7207 18.6523 13.8794 18.5059Z" fill="#5ac8f5"/>
 </g>
</svg>
