<?xml version="1.0" encoding="UTF-8"?>
<!--Generator: Apple Native CoreSVG 175.5-->
<!DOCTYPE svg
PUBLIC "-//W3C//DTD SVG 1.1//EN"
       "http://www.w3.org/Graphics/SVG/1.1/DTD/svg11.dtd">
<svg version="1.1" xmlns="http://www.w3.org/2000/svg" xmlns:xlink="http://www.w3.org/1999/xlink" width="24.3774" height="24.2554">
 <g>
  <rect height="24.2554" opacity="0" width="24.3774" x="0" y="0"/>
  <path d="M7.48291 24.2432L16.8579 24.2432C21.8018 24.2432 24.3774 21.6797 24.3774 16.7603L24.3774 7.48291C24.3774 2.56348 21.8018 0 16.8579 0L7.48291 0C2.56348 0 0 2.56348 0 7.48291L0 16.7603C0 21.6797 2.56348 24.2432 7.48291 24.2432ZM7.21436 22.2778C3.75977 22.2778 1.96533 20.4712 1.96533 17.0288L1.96533 7.21436C1.96533 3.75977 3.75977 1.96533 7.21436 1.96533L17.1997 1.96533C20.6177 1.96533 22.4121 3.74756 22.4121 7.14111L22.4121 17.1021C22.4121 20.4956 20.6177 22.2778 17.1997 22.2778ZM12.1826 17.8955C15.3809 17.8955 17.9565 15.271 17.9565 12.1216C17.9565 8.93555 15.3198 6.37207 12.1826 6.37207C11.6211 6.37207 11.1084 6.4209 10.6567 6.55518L10.6567 9.82666C11.1084 9.49707 11.6455 9.31396 12.1826 9.31396C13.6841 9.31396 14.9658 10.6079 14.9658 12.1216C14.9658 13.6353 13.7085 14.8682 12.1826 14.8682C10.6323 14.8682 9.41162 13.6597 9.41162 12.1216L9.41162 7.05566C7.58057 8.08105 6.4209 9.98535 6.4209 12.1216C6.4209 15.332 8.99658 17.8955 12.1826 17.8955ZM12.1826 13.6475C13.0005 13.6475 13.6963 12.9272 13.6963 12.1216C13.6963 11.3403 12.9761 10.6201 12.1826 10.6201C11.3892 10.6201 10.6812 11.3037 10.6812 12.1216C10.6812 12.9639 11.3647 13.6475 12.1826 13.6475Z" fill="#5ac8f5"/>
 </g>
</svg>
