<?xml version="1.0" encoding="UTF-8"?>
<!--Generator: Apple Native CoreSVG 175.5-->
<!DOCTYPE svg
PUBLIC "-//W3C//DTD SVG 1.1//EN"
       "http://www.w3.org/Graphics/SVG/1.1/DTD/svg11.dtd">
<svg version="1.1" xmlns="http://www.w3.org/2000/svg" xmlns:xlink="http://www.w3.org/1999/xlink" width="12.3535" height="27.4048">
 <g>
  <rect height="27.4048" opacity="0" width="12.3535" x="0" y="0"/>
  <path d="M4.71191 27.3315L7.6416 27.3315C9.10645 27.3315 9.85107 26.5991 9.85107 25.061L9.85107 12.0972C9.85107 10.8154 10.1562 9.8877 10.6201 9.17969L11.4136 8.00781C11.9751 7.14111 12.3535 6.32324 12.3535 5.28564L12.3535 4.28467L0 4.28467L0 5.28564C0 6.32324 0.378418 7.14111 0.939941 8.00781L1.72119 9.17969C2.19727 9.8877 2.49023 10.8154 2.49023 12.0972L2.49023 25.061C2.49023 26.5991 3.24707 27.3315 4.71191 27.3315ZM6.17676 17.9443C5.17578 17.9443 4.52881 17.2119 4.52881 16.1865L4.52881 12.8418C4.52881 11.8042 5.17578 11.1084 6.17676 11.1328C7.16553 11.145 7.82471 11.8408 7.82471 12.8418L7.82471 16.1865C7.82471 17.2119 7.16553 17.9443 6.17676 17.9443ZM6.17676 17.0776C6.71387 17.0776 7.17773 16.626 7.17773 16.0767C7.17773 15.5273 6.71387 15.0635 6.17676 15.0635C5.62744 15.0635 5.16357 15.5273 5.16357 16.0767C5.16357 16.626 5.62744 17.0776 6.17676 17.0776ZM0 2.85645L12.3535 2.85645L12.3535 2.27051C12.3535 0.732422 11.5967 0 10.1318 0L2.22168 0C0.756836 0 0 0.732422 0 2.27051Z" fill="#5ac8f5"/>
 </g>
</svg>
