<?xml version="1.0" encoding="UTF-8"?>
<!--Generator: Apple Native CoreSVG 175.5-->
<!DOCTYPE svg
PUBLIC "-//W3C//DTD SVG 1.1//EN"
       "http://www.w3.org/Graphics/SVG/1.1/DTD/svg11.dtd">
<svg version="1.1" xmlns="http://www.w3.org/2000/svg" xmlns:xlink="http://www.w3.org/1999/xlink" width="25.4517" height="24.2798">
 <g>
  <rect height="24.2798" opacity="0" width="25.4517" x="0" y="0"/>
  <path d="M18.6523 21.9727L20.6177 21.9727L20.6177 12.8906C20.6177 8.43506 17.1753 4.99268 12.7319 4.99268C8.27637 4.99268 4.8584 8.43506 4.8584 12.8906L4.8584 21.9727L6.82373 21.9727L6.82373 12.8906C6.82373 9.52148 9.375 6.95801 12.7319 6.95801C16.1011 6.95801 18.6523 9.52148 18.6523 12.8906ZM22.1069 22.9614C22.644 22.9614 23.1079 22.522 23.1079 21.9849C23.1079 21.4355 22.644 20.9839 22.1069 20.9839L3.34473 20.9839C2.80762 20.9839 2.38037 21.4355 2.38037 21.9849C2.38037 22.522 2.80762 22.9614 3.34473 22.9614ZM13.7207 13.1592C13.7207 12.6221 13.269 12.1704 12.7319 12.1704C12.1948 12.1704 11.7554 12.6221 11.7554 13.1592L11.7554 21.9727L13.7207 21.9727ZM1.26953 13.9771C1.97754 13.9771 2.53906 13.4155 2.53906 12.7197C2.53906 12.0117 1.97754 11.4502 1.26953 11.4502C0.561523 11.4502 0 12.0117 0 12.7197C0 13.4155 0.561523 13.9771 1.26953 13.9771ZM4.15039 5.41992C4.8584 5.41992 5.41992 4.84619 5.41992 4.15039C5.41992 3.44238 4.8584 2.88086 4.15039 2.88086C3.45459 2.88086 2.88086 3.44238 2.88086 4.15039C2.88086 4.84619 3.45459 5.41992 4.15039 5.41992ZM12.7319 2.53906C13.4277 2.53906 13.9893 1.97754 13.9893 1.26953C13.9893 0.57373 13.4277 0 12.7319 0C12.0239 0 11.4624 0.57373 11.4624 1.26953C11.4624 1.97754 12.0239 2.53906 12.7319 2.53906ZM21.3013 5.41992C22.0093 5.41992 22.5708 4.84619 22.5708 4.15039C22.5708 3.44238 22.0093 2.88086 21.3013 2.88086C20.5933 2.88086 20.0317 3.44238 20.0317 4.15039C20.0317 4.84619 20.5933 5.41992 21.3013 5.41992ZM24.1943 13.9771C24.8901 13.9771 25.4517 13.4155 25.4517 12.7197C25.4517 12.0117 24.8901 11.4502 24.1943 11.4502C23.4863 11.4502 22.9248 12.0117 22.9248 12.7197C22.9248 13.4155 23.4863 13.9771 24.1943 13.9771Z" fill="#5ac8f5"/>
 </g>
</svg>
