<?xml version="1.0" encoding="UTF-8"?>
<!--Generator: Apple Native CoreSVG 175.5-->
<!DOCTYPE svg
PUBLIC "-//W3C//DTD SVG 1.1//EN"
       "http://www.w3.org/Graphics/SVG/1.1/DTD/svg11.dtd">
<svg version="1.1" xmlns="http://www.w3.org/2000/svg" xmlns:xlink="http://www.w3.org/1999/xlink" width="19.7144" height="23.3765">
 <g>
  <rect height="23.3765" opacity="0" width="19.7144" x="0" y="0"/>
  <path d="M1.74561 16.6504C2.39258 16.6504 2.83203 16.2231 2.84424 15.564L2.9541 1.34277C2.9541 1.34277 2.9541 1.34277 2.9541 1.34277C2.9541 0.646973 2.39258 0.170898 1.7334 0.170898C1.07422 0.170898 0.512695 0.646973 0.512695 1.34277C0.512695 1.34277 0.512695 1.34277 0.512695 1.34277L0.646973 15.564C0.65918 16.2231 1.09863 16.6504 1.74561 16.6504ZM1.7334 23.3765C2.69775 23.3765 3.4668 22.5952 3.4668 21.6431C3.4668 20.6787 2.69775 19.9097 1.7334 19.9097C0.78125 19.9097 0 20.6787 0 21.6431C0 22.5952 0.78125 23.3765 1.7334 23.3765ZM12.5 16.6992C13.3423 16.6992 13.7329 16.1133 13.7329 15.332C13.7329 15.1978 13.7329 15.0513 13.7329 14.917C13.7573 13.3057 14.3433 12.6343 16.2964 11.2915C18.3838 9.87549 19.7144 8.23975 19.7144 5.88379C19.7144 2.22168 16.7358 0.12207 13.0371 0.12207C10.2783 0.12207 7.84912 1.42822 6.81152 3.78418C6.55518 4.35791 6.44531 4.91943 6.44531 5.3833C6.44531 6.0791 6.84814 6.56738 7.59277 6.56738C8.21533 6.56738 8.64258 6.20117 8.81348 5.60303C9.44824 3.28369 10.9741 2.40479 12.9517 2.40479C15.332 2.40479 17.1875 3.74756 17.1875 5.87158C17.1875 7.61719 16.1011 8.59375 14.5386 9.69238C12.6221 11.0229 11.2183 12.4512 11.2183 14.5996C11.2183 14.856 11.2183 15.1123 11.2183 15.3687C11.2183 16.1499 11.6455 16.6992 12.5 16.6992ZM12.5 23.3765C13.4644 23.3765 14.2334 22.5952 14.2334 21.6431C14.2334 20.6787 13.4644 19.9097 12.5 19.9097C11.5479 19.9097 10.7666 20.6787 10.7666 21.6431C10.7666 22.5952 11.5479 23.3765 12.5 23.3765Z" fill="#5ac8f5"/>
 </g>
</svg>
