<?xml version="1.0" encoding="UTF-8"?>
<!--Generator: Apple Native CoreSVG 175.5-->
<!DOCTYPE svg
PUBLIC "-//W3C//DTD SVG 1.1//EN"
       "http://www.w3.org/Graphics/SVG/1.1/DTD/svg11.dtd">
<svg version="1.1" xmlns="http://www.w3.org/2000/svg" xmlns:xlink="http://www.w3.org/1999/xlink" width="33.9233" height="23.3765">
 <g>
  <rect height="23.3765" opacity="0" width="33.9233" x="0" y="0"/>
  <path d="M0 14.2456C0 16.1255 0.964355 17.0776 2.88086 17.0776L7.31201 17.0776C9.2041 17.0776 10.2173 17.5903 11.4502 19.2017C13.5254 21.875 16.7114 23.3276 20.0073 23.3276L24.2798 23.3276C25.2075 23.3276 25.7935 22.7417 25.7935 21.8262L25.7935 1.46484C25.7935 0.57373 25.1953 0 24.2798 0L20.0073 0C16.7114 0 13.5254 1.45264 11.4502 4.12598C10.2173 5.7373 9.2041 6.26221 7.31201 6.26221L2.88086 6.26221C0.964355 6.26221 0 7.20215 0 9.08203ZM1.84326 14.0503L1.84326 9.27734C1.84326 8.5083 2.28271 8.10547 3.01514 8.10547L7.31201 8.10547C9.79004 8.10547 11.3159 7.32422 12.9028 5.26123C14.624 3.02734 17.2607 1.84326 20.0073 1.84326L23.5352 1.84326C23.8037 1.84326 23.9502 1.98975 23.9502 2.24609L23.9502 21.0815C23.9502 21.3379 23.8037 21.4844 23.5352 21.4844L20.0073 21.4844C17.2607 21.4844 14.624 20.3125 12.9028 18.0664C11.3159 16.0034 9.79004 15.2344 7.31201 15.2344L3.01514 15.2344C2.28271 15.2344 1.84326 14.8315 1.84326 14.0503ZM24.6948 8.92334L31.9458 8.92334C33.0322 8.92334 33.9233 8.03223 33.9233 6.9458C33.9233 5.85938 33.0322 4.96826 31.9458 4.96826L24.6948 4.96826ZM24.6948 18.3594L31.9458 18.3594C33.0322 18.3594 33.9233 17.4683 33.9233 16.3818C33.9233 15.2954 33.0322 14.4043 31.9458 14.4043L24.6948 14.4043Z" fill="#5ac8f5"/>
 </g>
</svg>
