<?xml version="1.0" encoding="UTF-8"?>
<!--Generator: Apple Native CoreSVG 175.5-->
<!DOCTYPE svg
PUBLIC "-//W3C//DTD SVG 1.1//EN"
       "http://www.w3.org/Graphics/SVG/1.1/DTD/svg11.dtd">
<svg version="1.1" xmlns="http://www.w3.org/2000/svg" xmlns:xlink="http://www.w3.org/1999/xlink" width="24.0112" height="28.2104">
 <g>
  <rect height="28.2104" opacity="0" width="24.0112" x="0" y="0"/>
  <path d="M11.3647 28.2104C11.792 28.2104 12.3047 28.0396 12.915 27.6978L22.4854 22.2046C23.6084 21.5576 24.0112 20.8862 24.0112 19.519L24.0112 8.45947C24.0112 6.99463 23.4985 6.25 22.583 6.25C22.168 6.25 21.6675 6.40869 21.0938 6.73828L11.499 12.2681C10.3516 12.9395 9.94873 13.623 9.94873 14.9536L9.94873 26.0132C9.94873 27.4292 10.437 28.2104 11.3647 28.2104ZM6.12793 25.2319C6.35986 25.2319 6.604 25.1587 6.84814 24.9878L6.84814 11.9263C6.84814 11.4502 6.92139 11.3281 7.32422 11.1084L18.6401 4.57764C18.6768 3.78418 18.1763 3.27148 17.4561 3.27148C17.1509 3.27148 16.8091 3.36914 16.4429 3.56445L6.20117 9.46045C5.00488 10.144 4.8584 10.4004 4.8584 11.7676L4.8584 23.4619C4.8584 24.5117 5.39551 25.2319 6.12793 25.2319ZM1.25732 22.4121C1.47705 22.4121 1.7334 22.3389 1.97754 22.168L1.97754 9.10645C1.97754 8.66699 2.06299 8.49609 2.44141 8.28857L13.7573 1.77002C13.8062 0.964355 13.2812 0.463867 12.5977 0.463867C12.2803 0.463867 11.9385 0.549316 11.5723 0.769043L1.33057 6.65283C0.134277 7.34863 0 7.56836 0 8.95996L0 20.6421C0 21.6919 0.500488 22.4121 1.25732 22.4121Z" fill="#5ac8f5"/>
 </g>
</svg>
