<?xml version="1.0" encoding="UTF-8"?>
<!--Generator: Apple Native CoreSVG 175.5-->
<!DOCTYPE svg
PUBLIC "-//W3C//DTD SVG 1.1//EN"
       "http://www.w3.org/Graphics/SVG/1.1/DTD/svg11.dtd">
<svg version="1.1" xmlns="http://www.w3.org/2000/svg" xmlns:xlink="http://www.w3.org/1999/xlink" width="24.9023" height="25.2075">
 <g>
  <rect height="25.2075" opacity="0" width="24.9023" x="0" y="0"/>
  <path d="M12.4512 24.9023C19.2627 24.9023 24.9023 19.2627 24.9023 12.4512C24.9023 5.65186 19.2505 0 12.439 0C5.63965 0 0 5.65186 0 12.4512C0 19.2627 5.65186 24.9023 12.4512 24.9023Z" fill="#5ac8f5" fill-opacity="0.25"/>
  <path d="M6.18896 13.8306C6.18896 11.0596 8.1543 9.22852 11.0962 9.22852L14.6729 9.22852L15.9302 9.27734L15.1001 8.63037L13.8672 7.43408C13.6841 7.26318 13.5742 7.03125 13.5742 6.7749C13.5742 6.25 13.9648 5.83496 14.4897 5.83496C14.7705 5.83496 14.978 5.93262 15.1611 6.11572L18.3472 9.35059C18.5669 9.57031 18.6768 9.85107 18.6768 10.1196C18.6768 10.4004 18.5791 10.6689 18.3472 10.8887L15.1489 14.1602C14.978 14.3311 14.7583 14.4287 14.4775 14.4287C13.9771 14.4287 13.5742 14.0137 13.5742 13.4888C13.5742 13.2324 13.6841 13.0005 13.8672 12.8174L15.3442 11.4014L15.918 10.9863L14.6729 11.0474L11.0962 11.0474C9.24072 11.0474 8.00781 12.1582 8.00781 13.8306C8.00781 15.625 9.26514 16.8213 11.1084 16.8213L12.7808 16.8213C13.3545 16.8213 13.7329 17.1997 13.7329 17.7368C13.7329 18.2861 13.3423 18.6401 12.7563 18.6401L11.1084 18.6401C8.1665 18.6401 6.18896 16.7358 6.18896 13.8306Z" fill="#5ac8f5"/>
 </g>
</svg>
