<?xml version="1.0" encoding="UTF-8"?>
<!--Generator: Apple Native CoreSVG 175.5-->
<!DOCTYPE svg
PUBLIC "-//W3C//DTD SVG 1.1//EN"
       "http://www.w3.org/Graphics/SVG/1.1/DTD/svg11.dtd">
<svg version="1.1" xmlns="http://www.w3.org/2000/svg" xmlns:xlink="http://www.w3.org/1999/xlink" width="15.686" height="25.8667">
 <g>
  <rect height="25.8667" opacity="0" width="15.686" x="0" y="0"/>
  <path d="M0 22.6685C0 24.5728 1.33057 25.8423 3.32031 25.8423L12.3657 25.8423C14.3555 25.8423 15.686 24.5728 15.686 22.6685L15.686 3.17383C15.686 1.26953 14.3555 0 12.3657 0L3.32031 0C1.33057 0 0 1.26953 0 3.17383ZM1.96533 22.3511L1.96533 3.49121C1.96533 2.51465 2.53906 1.96533 3.57666 1.96533L12.1216 1.96533C13.147 1.96533 13.7207 2.51465 13.7207 3.49121L13.7207 22.3511C13.7207 23.3276 13.147 23.877 12.1216 23.877L3.57666 23.877C2.53906 23.877 1.96533 23.3276 1.96533 22.3511Z" fill="#5ac8f5" fill-opacity="0.5"/>
  <path d="M3.4668 16.0278C3.4668 16.7236 3.79639 17.0654 4.45557 17.0654L8.59375 17.0654C9.26514 17.0654 9.59473 16.7236 9.59473 16.0278L9.59473 12.854C9.59473 12.1582 9.26514 11.8042 8.59375 11.8042L4.45557 11.8042C3.79639 11.8042 3.4668 12.1582 3.4668 12.854ZM7.65381 12.5122L8.8623 12.5122L8.8623 10.7788C8.8623 9.87549 9.35059 9.28955 10.1807 9.28955C11.0107 9.28955 11.4868 9.87549 11.4868 10.7788L11.4868 11.6455C11.4868 11.9751 11.7676 12.2559 12.0972 12.2559C12.4268 12.2559 12.6953 11.9751 12.6953 11.6455L12.6953 10.7788C12.6953 9.24072 11.7065 8.11768 10.1807 8.11768C8.65479 8.11768 7.65381 9.24072 7.65381 10.8887Z" fill="#5ac8f5"/>
 </g>
</svg>
