<?xml version="1.0" encoding="UTF-8"?>
<!--Generator: Apple Native CoreSVG 175.5-->
<!DOCTYPE svg
PUBLIC "-//W3C//DTD SVG 1.1//EN"
       "http://www.w3.org/Graphics/SVG/1.1/DTD/svg11.dtd">
<svg version="1.1" xmlns="http://www.w3.org/2000/svg" xmlns:xlink="http://www.w3.org/1999/xlink" width="35.6735" height="22.3022">
 <g>
  <rect height="22.3022" opacity="0" width="35.6735" x="0" y="0"/>
  <path d="M32.1011 1.96533C32.8701 1.96533 33.627 2.06299 34.3594 2.24609C35.7144 2.58789 36.2759 0.720215 34.7989 0.317383C34.1031 0.134277 33.1021 0 32.1011 0C25.2285 0 19.5645 6.27441 19.5645 13.8306C19.5645 18.8721 21.7007 22.29 24.96 22.29C28.2315 22.29 30.3677 18.8721 30.3677 13.8306C30.3677 6.27441 24.7158 0 17.8311 0C10.9463 0 5.30667 6.27441 5.30667 13.8306C5.30667 18.8721 7.4429 22.29 10.7144 22.29C13.9615 22.29 16.0977 18.8721 16.0977 13.8306C16.0977 6.27441 10.4458 0 3.57327 0C2.57229 0 1.57132 0.134277 0.875514 0.317383C-0.601536 0.720215-0.040013 2.58789 1.30276 2.24609C2.04739 2.06299 2.80423 1.96533 3.57327 1.96533C9.33499 1.96533 14.1324 7.34863 14.1324 13.8306C14.1324 17.749 12.7285 20.3247 10.7144 20.3247C8.68801 20.3247 7.272 17.7368 7.272 13.8306C7.272 7.34863 12.0694 1.96533 17.8311 1.96533C23.605 1.96533 28.4024 7.34863 28.4024 13.8306C28.4024 17.7368 26.9741 20.3247 24.96 20.3247C22.9458 20.3247 21.5298 17.749 21.5298 13.8306C21.5298 7.34863 26.3272 1.96533 32.1011 1.96533Z" fill="#5ac8f5"/>
 </g>
</svg>
