<?xml version="1.0" encoding="UTF-8"?>
<!--Generator: Apple Native CoreSVG 175.5-->
<!DOCTYPE svg
PUBLIC "-//W3C//DTD SVG 1.1//EN"
       "http://www.w3.org/Graphics/SVG/1.1/DTD/svg11.dtd">
<svg version="1.1" xmlns="http://www.w3.org/2000/svg" xmlns:xlink="http://www.w3.org/1999/xlink" width="26.4404" height="17.1021">
 <g>
  <rect height="17.1021" opacity="0" width="26.4404" x="0" y="0"/>
  <path d="M0 13.5742C0 15.8813 1.26953 17.1021 3.56445 17.1021L22.8638 17.1021C25.1709 17.1021 26.4404 15.8813 26.4404 13.5742L26.4404 3.50342C26.4404 1.2085 25.1709 0 22.8638 0L3.56445 0C1.26953 0 0 1.2085 0 3.50342ZM7.06787 10.3516C6.06689 10.3516 5.24902 9.5459 5.24902 8.54492C5.24902 7.54395 6.06689 6.73828 7.06787 6.73828C8.06885 6.73828 8.87451 7.54395 8.87451 8.54492C8.87451 9.5459 8.06885 10.3516 7.06787 10.3516ZM13.2324 10.3516C12.2314 10.3516 11.4258 9.5459 11.4258 8.54492C11.4258 7.54395 12.2314 6.73828 13.2324 6.73828C14.2334 6.73828 15.0391 7.54395 15.0391 8.54492C15.0391 9.5459 14.2334 10.3516 13.2324 10.3516ZM19.397 10.3516C18.396 10.3516 17.5903 9.5459 17.5903 8.54492C17.5903 7.54395 18.396 6.73828 19.397 6.73828C20.3979 6.73828 21.2036 7.54395 21.2036 8.54492C21.2036 9.5459 20.3979 10.3516 19.397 10.3516Z" fill="#5ac8f5"/>
 </g>
</svg>
