<?xml version="1.0" encoding="UTF-8"?>
<!--Generator: Apple Native CoreSVG 175.5-->
<!DOCTYPE svg
PUBLIC "-//W3C//DTD SVG 1.1//EN"
       "http://www.w3.org/Graphics/SVG/1.1/DTD/svg11.dtd">
<svg version="1.1" xmlns="http://www.w3.org/2000/svg" xmlns:xlink="http://www.w3.org/1999/xlink" width="30.3711" height="28.8574">
 <g>
  <rect height="28.8574" opacity="0" width="30.3711" x="0" y="0"/>
  <path d="M6.70166 2.05688L10.6812 6.04858C10.7788 6.04858 10.8765 6.04858 10.9741 6.04858L24.2065 6.04858L24.2065 5.84106C24.2065 3.32642 22.9126 2.05688 20.3735 2.05688ZM0 17.3523C0 19.8792 1.26953 21.1365 3.83301 21.1365L4.35791 21.1365L4.35791 11.4929C4.35791 9.86938 4.80957 8.58765 5.65186 7.69653L1.02539 3.05786C0.341797 3.6438 0 4.57153 0 5.84106ZM12.3535 7.70874L29.7729 25.1282C30.1636 24.6155 30.3711 23.9075 30.3711 23.0042L30.3711 11.4929C30.3711 8.97827 29.0771 7.70874 26.5381 7.70874ZM6.03027 23.0042C6.03027 25.531 7.2998 26.7883 9.86328 26.7883L24.7437 26.7883L6.84814 8.88062C6.31104 9.47876 6.03027 10.3577 6.03027 11.4929Z" fill="#5ac8f5" fill-opacity="0.5"/>
  <path d="M28.54 28.5828C28.9062 28.949 29.5166 28.949 29.8706 28.5828C30.2368 28.2043 30.2368 27.6184 29.8706 27.2522L2.94189 0.299072C2.57568-0.0549316 1.97754-0.0671387 1.59912 0.299072C1.24512 0.665283 1.24512 1.27563 1.59912 1.62964Z" fill="#5ac8f5"/>
 </g>
</svg>
