<?xml version="1.0" encoding="UTF-8"?>
<!--Generator: Apple Native CoreSVG 175.5-->
<!DOCTYPE svg
PUBLIC "-//W3C//DTD SVG 1.1//EN"
       "http://www.w3.org/Graphics/SVG/1.1/DTD/svg11.dtd">
<svg version="1.1" xmlns="http://www.w3.org/2000/svg" xmlns:xlink="http://www.w3.org/1999/xlink" width="26.1597" height="21.0083">
 <g>
  <rect height="21.0083" opacity="0" width="26.1597" x="0" y="0"/>
  <path d="M6.46973 20.9839L19.6777 20.9839C20.5688 20.9839 21.3989 20.6787 22.0093 20.0928C24.6216 17.6147 26.1597 14.0259 26.1597 10.498C26.1597 6.97021 24.6216 3.38135 22.0093 0.90332C21.3989 0.317383 20.5688 0 19.6777 0L6.46973 0C5.54199 0 4.66309 0.354004 4.02832 1.00098C1.51367 3.4668 0 7.01904 0 10.498C0 14.0259 1.53809 17.6147 4.15039 20.0928C4.76074 20.6787 5.57861 20.9839 6.46973 20.9839ZM6.46973 19.0796C6.05469 19.0796 5.74951 18.9697 5.50537 18.7256C3.2959 16.6382 1.96533 13.5742 1.96533 10.5591C1.96533 7.54395 3.30811 4.44336 5.52979 2.36816C5.77393 2.13623 6.06689 2.02637 6.46973 2.02637L19.6777 2.02637C20.0928 2.02637 20.4102 2.14844 20.6543 2.39258C22.8516 4.47998 24.1943 7.54395 24.1943 10.5591C24.1943 13.5742 22.8516 16.6382 20.6543 18.7256C20.4102 18.9697 20.0928 19.0796 19.6777 19.0796Z" fill="#5ac8f5" fill-opacity="0.5"/>
  <path d="M7.9834 15.4297C8.58154 15.4297 9.06982 14.978 9.06982 14.3677L9.06982 6.7627C9.06982 6.15234 8.58154 5.66406 7.9834 5.66406C7.37305 5.66406 6.92139 6.15234 6.92139 6.7627L6.92139 14.3677C6.92139 14.978 7.37305 15.4297 7.9834 15.4297ZM18.1641 15.4297C18.7744 15.4297 19.2383 14.9658 19.2383 14.3555L19.2383 6.7627C19.2383 6.15234 18.7744 5.66406 18.1641 5.66406C17.5537 5.66406 17.0898 6.15234 17.0898 6.7627L17.0898 14.3555C17.0898 14.9536 17.5537 15.4297 18.1641 15.4297Z" fill="#5ac8f5"/>
 </g>
</svg>
