<?xml version="1.0" encoding="UTF-8"?>
<!--Generator: Apple Native CoreSVG 175.5-->
<!DOCTYPE svg
PUBLIC "-//W3C//DTD SVG 1.1//EN"
       "http://www.w3.org/Graphics/SVG/1.1/DTD/svg11.dtd">
<svg version="1.1" xmlns="http://www.w3.org/2000/svg" xmlns:xlink="http://www.w3.org/1999/xlink" width="18.9072" height="26.8188">
 <g>
  <rect height="26.8188" opacity="0" width="18.9072" x="0" y="0"/>
  <path d="M5.31921 4.60205C5.31921 6.75049 6.77185 8.54492 8.7616 9.04541L8.7616 10.5347L11.0321 12.8052L11.0321 9.04541C13.0219 8.55713 14.4867 6.75049 14.4867 4.60205C14.4867 2.0752 12.4481 0 9.89685 0C7.35779 0 5.31921 2.0752 5.31921 4.60205ZM8.7616 20.3735C8.7616 23.9746 9.40857 25.9399 9.89685 25.9399C10.3607 25.9399 11.0199 24.1943 11.0199 21.167L11.0199 19.4702L8.7616 17.2119ZM8.5907 4.8584C7.74841 4.8584 7.01599 4.12598 7.01599 3.27148C7.01599 2.4292 7.74841 1.70898 8.5907 1.70898C9.44519 1.70898 10.1532 2.4292 10.1532 3.27148C10.1532 4.12598 9.44519 4.8584 8.5907 4.8584Z" fill="#5ac8f5" fill-opacity="0.5"/>
  <path d="M17.3065 23.7305C17.6727 24.0967 18.2831 24.0967 18.6371 23.7305C18.9911 23.3643 19.0033 22.7783 18.6371 22.3999L1.60828 5.3833C1.24207 5.0293 0.631714 5.01709 0.265503 5.3833C-0.088501 5.7373-0.088501 6.35986 0.265503 6.71387Z" fill="#5ac8f5"/>
 </g>
</svg>
