<?xml version="1.0" encoding="UTF-8"?>
<!--Generator: Apple Native CoreSVG 175.5-->
<!DOCTYPE svg
PUBLIC "-//W3C//DTD SVG 1.1//EN"
       "http://www.w3.org/Graphics/SVG/1.1/DTD/svg11.dtd">
<svg version="1.1" xmlns="http://www.w3.org/2000/svg" xmlns:xlink="http://www.w3.org/1999/xlink" width="24.9023" height="24.9146">
 <g>
  <rect height="24.9146" opacity="0" width="24.9023" x="0" y="0"/>
  <path d="M7.16553 14.1724C8.44727 14.1724 9.47266 13.1348 9.47266 11.8652C9.47266 10.5957 8.44727 9.55811 7.16553 9.55811C5.896 9.55811 4.87061 10.5957 4.87061 11.8652C4.87061 13.1348 5.896 14.1724 7.16553 14.1724ZM17.7368 14.1724C19.0063 14.1724 20.0317 13.1348 20.0317 11.8652C20.0317 10.5957 19.0063 9.55811 17.7368 9.55811C16.4551 9.55811 15.4297 10.5957 15.4297 11.8652C15.4297 13.1348 16.4551 14.1724 17.7368 14.1724ZM12.4512 19.8608C13.7207 19.8608 14.7583 18.8354 14.7583 17.5659C14.7583 16.2842 13.7207 15.2588 12.4512 15.2588C11.1816 15.2588 10.144 16.2842 10.144 17.5659C10.144 18.8354 11.1816 19.8608 12.4512 19.8608ZM12.4512 24.9023C19.2627 24.9023 24.9023 19.2505 24.9023 12.4512C24.9023 5.63965 19.2505 0 12.439 0C5.63965 0 0 5.63965 0 12.4512C0 19.2505 5.65186 24.9023 12.4512 24.9023ZM12.4512 22.8271C6.68945 22.8271 2.0874 18.2129 2.0874 12.4512C2.0874 6.68945 6.67725 2.0752 12.439 2.0752C18.2007 2.0752 22.8271 6.68945 22.8271 12.4512C22.8271 18.2129 18.2129 22.8271 12.4512 22.8271Z" fill="#5ac8f5"/>
 </g>
</svg>
