<?xml version="1.0" encoding="UTF-8"?>
<!--Generator: Apple Native CoreSVG 175.5-->
<!DOCTYPE svg
PUBLIC "-//W3C//DTD SVG 1.1//EN"
       "http://www.w3.org/Graphics/SVG/1.1/DTD/svg11.dtd">
<svg version="1.1" xmlns="http://www.w3.org/2000/svg" xmlns:xlink="http://www.w3.org/1999/xlink" width="24.9023" height="24.9146">
 <g>
  <rect height="24.9146" opacity="0" width="24.9023" x="0" y="0"/>
  <path d="M12.4512 24.9023C19.2627 24.9023 24.9023 19.2505 24.9023 12.4512C24.9023 5.63965 19.2505 0 12.439 0C5.63965 0 0 5.63965 0 12.4512C0 19.2505 5.65186 24.9023 12.4512 24.9023ZM12.4512 22.8271C6.68945 22.8271 2.0874 18.2129 2.0874 12.4512C2.0874 6.68945 6.67725 2.0752 12.439 2.0752C18.2007 2.0752 22.8271 6.68945 22.8271 12.4512C22.8271 18.2129 18.2129 22.8271 12.4512 22.8271ZM9.92432 18.7988C10.6689 19.5312 11.4014 19.5435 12.1582 18.7866L18.0542 12.9272C18.5303 12.4756 18.8721 12.146 18.8721 11.4014L18.8721 9.10645C18.8721 8.55713 18.7256 8.23975 18.3594 7.86133L17.2974 6.81152C16.9189 6.44531 16.6016 6.21338 16.0522 6.21338L13.6841 6.21338C12.9517 6.21338 12.6099 6.55518 12.146 7.03125L6.29883 12.9395C5.54199 13.6963 5.5542 14.4165 6.28662 15.1489ZM14.6118 10.4736C14.27 10.144 14.27 9.58252 14.6118 9.24072C14.9414 8.89893 15.5029 8.89893 15.8325 9.24072C16.1743 9.57031 16.1743 10.1196 15.8325 10.4614C15.4907 10.8154 14.9536 10.8154 14.6118 10.4736Z" fill="#5ac8f5"/>
 </g>
</svg>
