<?xml version="1.0" encoding="UTF-8"?>
<!--Generator: Apple Native CoreSVG 175.5-->
<!DOCTYPE svg
PUBLIC "-//W3C//DTD SVG 1.1//EN"
       "http://www.w3.org/Graphics/SVG/1.1/DTD/svg11.dtd">
<svg version="1.1" xmlns="http://www.w3.org/2000/svg" xmlns:xlink="http://www.w3.org/1999/xlink" width="28.7842" height="30.7007">
 <g>
  <rect height="30.7007" opacity="0" width="28.7842" x="0" y="0"/>
  <path d="M3.83301 28.2227L24.9512 28.2227C27.5146 28.2227 28.7842 26.9531 28.7842 24.4385L28.7842 17.2119C28.7842 16.1011 28.6377 15.5518 28.0884 14.8926L23.877 9.66797C22.4487 7.91016 21.5698 6.88477 19.4092 6.88477L17.6147 6.88477L17.6147 8.60596L19.5435 8.60596C20.4346 8.60596 21.3623 9.38721 21.9604 10.144L26.2939 15.6006C26.7822 16.2231 26.6113 16.4673 25.9399 16.4673L18.4082 16.4673C17.7246 16.4673 17.4072 16.9922 17.4072 17.5293L17.4072 17.5781C17.4072 19.0796 16.2354 20.6543 14.3921 20.6543C12.561 20.6543 11.3892 19.0796 11.3892 17.5781L11.3892 17.5293C11.3892 16.9922 11.0596 16.4673 10.376 16.4673L2.86865 16.4673C2.16064 16.4673 2.02637 16.1865 2.50244 15.6006L6.82373 10.144C7.42188 9.38721 8.34961 8.60596 9.24072 8.60596L11.1816 8.60596L11.1816 6.88477L9.38721 6.88477C7.21436 6.88477 6.34766 7.91016 4.91943 9.66797L0.695801 14.8926C0.158691 15.5518 0 16.1011 0 17.2119L0 24.4385C0 26.9531 1.28174 28.2227 3.83301 28.2227ZM14.3921 16.3208C14.6484 16.3208 14.856 16.2476 15.1001 16.0034L19.2261 12.0239C19.4092 11.8408 19.5068 11.6333 19.5068 11.377C19.5068 10.8765 19.1284 10.5225 18.6279 10.5225C18.3838 10.5225 18.1274 10.6201 17.9565 10.8154L16.1133 12.7808L15.2832 13.6475L15.3687 11.8164L15.3687 0.939941C15.3687 0.427246 14.917 0 14.3921 0C13.8672 0 13.4277 0.427246 13.4277 0.939941L13.4277 11.8164L13.501 13.6475L12.6709 12.7808L10.8276 10.8154C10.6445 10.6201 10.3882 10.5225 10.144 10.5225C9.64355 10.5225 9.27734 10.8765 9.27734 11.377C9.27734 11.6333 9.375 11.8408 9.55811 12.0239L13.6841 16.0034C13.9282 16.2476 14.1479 16.3208 14.3921 16.3208Z" fill="#5ac8f5"/>
 </g>
</svg>
