<?xml version="1.0" encoding="UTF-8"?>
<!--Generator: Apple Native CoreSVG 175.5-->
<!DOCTYPE svg
PUBLIC "-//W3C//DTD SVG 1.1//EN"
       "http://www.w3.org/Graphics/SVG/1.1/DTD/svg11.dtd">
<svg version="1.1" xmlns="http://www.w3.org/2000/svg" xmlns:xlink="http://www.w3.org/1999/xlink" width="24.9023" height="24.9146">
 <g>
  <rect height="24.9146" opacity="0" width="24.9023" x="0" y="0"/>
  <path d="M12.4512 24.9023C19.2627 24.9023 24.9023 19.2505 24.9023 12.4512C24.9023 5.63965 19.2505 0 12.439 0C5.63965 0 0 5.63965 0 12.4512C0 19.2505 5.65186 24.9023 12.4512 24.9023Z" fill="#5ac8f5" fill-opacity="0.25"/>
  <path d="M6.12793 17.5903C5.67627 17.5903 5.3833 17.2974 5.3833 16.8457C5.3833 16.5894 5.48096 16.3818 5.66406 16.1621L8.98438 12.2681C9.58252 11.5601 10.2417 10.8521 10.2417 10.0342C10.2417 9.10645 9.59473 8.48389 8.56934 8.48389C7.67822 8.48389 7.04346 8.94775 6.71387 9.8877C6.55518 10.2661 6.35986 10.4736 5.99365 10.4736C5.56641 10.4736 5.29785 10.1807 5.29785 9.7168C5.29785 9.57031 5.32227 9.42383 5.34668 9.26514C5.67627 7.9834 7.01904 7.03125 8.5083 7.03125C10.4858 7.03125 11.7798 8.14209 11.7798 9.8999C11.7798 11.1572 11.084 12.0605 10.1562 13.147L7.69043 16.0034L7.69043 16.1011L11.3281 16.1011C11.731 16.1011 12.0361 16.3574 12.0361 16.8335C12.0361 17.2852 11.731 17.5903 11.3281 17.5903ZM15.2832 17.7368C14.8071 17.7368 14.4409 17.395 14.4409 16.9189C14.4409 16.6748 14.4653 16.5283 14.5752 16.333L18.4814 8.80127L18.4814 8.69141L14.0503 8.69141C13.623 8.69141 13.3301 8.42285 13.3301 7.99561C13.3301 7.56836 13.623 7.27539 14.0503 7.27539L19.1406 7.27539C19.8242 7.27539 20.2637 7.76367 20.2637 8.37402C20.2637 8.64258 20.2148 8.87451 20.0195 9.27734L16.1011 17.1265C15.8691 17.5537 15.625 17.7368 15.2832 17.7368Z" fill="#5ac8f5"/>
 </g>
</svg>
