<?xml version="1.0" encoding="UTF-8"?>
<!--Generator: Apple Native CoreSVG 175.5-->
<!DOCTYPE svg
PUBLIC "-//W3C//DTD SVG 1.1//EN"
       "http://www.w3.org/Graphics/SVG/1.1/DTD/svg11.dtd">
<svg version="1.1" xmlns="http://www.w3.org/2000/svg" xmlns:xlink="http://www.w3.org/1999/xlink" width="34.6802" height="13.0249">
 <g>
  <rect height="13.0249" opacity="0" width="34.6802" x="0" y="0"/>
  <path d="M0 6.06689C0 10.0342 4.08936 13.0249 9.10645 13.0249C12.7075 13.0249 15.625 11.7676 17.334 9.43604C19.0552 11.7676 21.9604 13.0249 25.5615 13.0249C30.5908 13.0249 34.6802 10.0342 34.6802 6.06689C34.6802 4.69971 34.2773 3.84521 33.4595 3.84521C33.1787 3.84521 32.8735 4.01611 32.6782 4.30908C32.0435 5.22461 30.9814 5.7251 29.6631 5.7251C25.9888 5.7251 24.939 1.25732 20.5322 1.25732C18.3228 1.25732 16.7725 2.52686 16.4551 4.60205L18.2129 4.60205C17.8955 2.52686 16.3574 1.25732 14.1357 1.25732C9.74121 1.25732 8.69141 5.7251 5.01709 5.7251C3.78418 5.7251 2.72217 5.23682 1.97754 4.29688C1.75781 4.01611 1.48926 3.84521 1.2085 3.84521C0.390625 3.84521 0 4.69971 0 6.06689Z" fill="#5ac8f5"/>
 </g>
</svg>
