<?xml version="1.0" encoding="UTF-8"?>
<!--Generator: Apple Native CoreSVG 175.5-->
<!DOCTYPE svg
PUBLIC "-//W3C//DTD SVG 1.1//EN"
       "http://www.w3.org/Graphics/SVG/1.1/DTD/svg11.dtd">
<svg version="1.1" xmlns="http://www.w3.org/2000/svg" xmlns:xlink="http://www.w3.org/1999/xlink" width="19.8486" height="24.2554">
 <g>
  <rect height="24.2554" opacity="0" width="19.8486" x="0" y="0"/>
  <path d="M6.15234 24.2432L13.6963 24.2432C17.8467 24.2432 19.8486 22.2412 19.8486 18.0908L19.8486 8.12988L14.6851 8.12988C14.4653 8.61816 13.9526 8.95996 13.3057 8.95996L6.54297 8.95996C5.92041 8.95996 5.39551 8.61816 5.17578 8.12988L0 8.12988L0 18.0908C0 22.2412 2.00195 24.2432 6.15234 24.2432ZM0 6.89697L5.17578 6.89697C5.39551 6.39648 5.92041 6.05469 6.54297 6.05469L13.3057 6.05469C13.9526 6.05469 14.4653 6.39648 14.6851 6.89697L19.8486 6.89697L19.8486 6.15234C19.8486 2.00195 17.8467 0 13.6963 0L6.15234 0C2.00195 0 0 2.00195 0 6.15234Z" fill="#5ac8f5"/>
 </g>
</svg>
