<?xml version="1.0" encoding="UTF-8"?>
<!--Generator: Apple Native CoreSVG 175.5-->
<!DOCTYPE svg
PUBLIC "-//W3C//DTD SVG 1.1//EN"
       "http://www.w3.org/Graphics/SVG/1.1/DTD/svg11.dtd">
<svg version="1.1" xmlns="http://www.w3.org/2000/svg" xmlns:xlink="http://www.w3.org/1999/xlink" width="24.9023" height="24.9146">
 <g>
  <rect height="24.9146" opacity="0" width="24.9023" x="0" y="0"/>
  <path d="M12.4512 24.9146C19.2627 24.9146 24.9023 19.2749 24.9023 12.4634C24.9023 5.66406 19.2505 0.012207 12.439 0.012207C5.63965 0.012207 0 5.66406 0 12.4634C0 19.2749 5.65186 24.9146 12.4512 24.9146ZM4.30908 8.69141C4.30908 7.27539 5.05371 6.50635 6.4209 6.50635L6.48193 6.50635C6.67725 6.25 6.99463 6.0791 7.34863 6.0791C7.94678 6.0791 8.44727 6.57959 8.44727 7.18994C8.44727 7.78809 7.94678 8.30078 7.34863 8.30078C6.99463 8.30078 6.68945 8.14209 6.49414 7.89795L6.37207 7.89795C5.9082 7.89795 5.70068 8.12988 5.70068 8.69141C5.70068 10.7666 7.54395 13.5742 8.92334 13.5742C10.2905 13.5742 12.146 10.7666 12.146 8.69141C12.146 8.14209 11.9263 7.89795 11.4624 7.89795L11.3281 7.89795C11.1328 8.14209 10.8276 8.30078 10.498 8.30078C9.87549 8.30078 9.38721 7.78809 9.38721 7.18994C9.38721 6.57959 9.87549 6.0791 10.498 6.0791C10.8398 6.0791 11.1572 6.25 11.3525 6.50635L11.4136 6.50635C12.8052 6.50635 13.5376 7.27539 13.5376 8.69141C13.5376 11.2671 11.499 14.3677 9.60693 14.8804C9.69238 16.8823 10.3394 17.981 11.3892 17.981C12.5977 17.981 13.1104 16.98 13.5376 14.5752C14.0381 11.9141 14.8804 10.8154 16.4673 10.8154C18.042 10.8154 18.8843 12.0117 19.1528 14.4897C20.0073 14.7461 20.6421 15.5518 20.6421 16.4795C20.6421 17.6392 19.7021 18.5791 18.5303 18.5791C17.3584 18.5791 16.4429 17.6514 16.4429 16.4795C16.4429 15.5884 17.0044 14.8315 17.7856 14.5386C17.6514 12.915 17.2119 12.1948 16.4673 12.1948C15.686 12.1948 15.2466 12.915 14.9048 14.856C14.3799 17.9688 13.3179 19.3726 11.438 19.3726C9.48486 19.3726 8.34961 17.7368 8.22754 14.8804C6.33545 14.3555 4.30908 11.2427 4.30908 8.69141ZM17.7002 16.4795C17.7002 16.9434 18.0664 17.334 18.5303 17.334C18.9941 17.334 19.3848 16.9434 19.3848 16.4795C19.3848 16.0156 19.0063 15.6372 18.5303 15.6372C18.0664 15.6372 17.7002 16.0156 17.7002 16.4795Z" fill="#5ac8f5"/>
 </g>
</svg>
