<?xml version="1.0" encoding="UTF-8"?>
<!--Generator: Apple Native CoreSVG 175.5-->
<!DOCTYPE svg
PUBLIC "-//W3C//DTD SVG 1.1//EN"
       "http://www.w3.org/Graphics/SVG/1.1/DTD/svg11.dtd">
<svg version="1.1" xmlns="http://www.w3.org/2000/svg" xmlns:xlink="http://www.w3.org/1999/xlink" width="26.8438" height="27.0142">
 <g>
  <rect height="27.0142" opacity="0" width="26.8438" x="0" y="0"/>
  <path d="M16.6738 12.6221L20.1772 12.6221L20.1772 13.7817C20.1772 14.3677 20.6289 14.8193 21.227 14.8193L22.1547 14.8193C22.7651 14.8193 23.2168 14.3677 23.2168 13.7817L23.2168 8.45947C23.2168 7.1167 23.0459 6.29883 22.2036 5.40771L21.4101 4.54102L20.58 2.14844C20.1284 0.854492 19.2373 0.305176 18.1386 0.170898C17.6015 0.109863 15.8559 0.0610352 13.8051 0.0610352C11.7421 0.0610352 9.99654 0.109863 9.47164 0.170898C8.37301 0.305176 7.46968 0.854492 7.01802 2.14844L6.81051 2.771L8.00679 3.96729C8.00679 3.90625 8.019 3.88184 8.04342 3.8208L8.48287 2.47803C8.66597 1.92871 8.94674 1.75781 9.42281 1.68457C9.97213 1.62354 11.5224 1.55029 13.8051 1.55029C16.0756 1.55029 17.6137 1.62354 18.163 1.68457C18.6391 1.75781 18.9199 1.92871 19.103 2.47803L19.6157 3.95508C19.7378 4.32129 19.6035 4.60205 19.2128 4.60205L8.64156 4.60205L11.437 7.38525L11.437 7.34863C11.5346 7.14111 11.7177 7.01904 11.9863 7.01904L15.5874 7.01904C15.978 7.01904 16.2343 7.27539 16.2343 7.69043L16.2343 8.49609C16.2343 8.92334 15.978 9.17969 15.5874 9.17969L13.2192 9.17969ZM20.4091 9.57031C19.9331 9.57031 19.5669 9.2041 19.5669 8.71582L19.5669 7.4707C19.5669 6.99463 19.9331 6.62842 20.4091 6.62842C20.8974 6.62842 21.2636 6.98242 21.2636 7.4707L21.2636 8.71582C21.2636 9.2041 20.8974 9.57031 20.4091 9.57031ZM5.44332 14.8193L6.37105 14.8193C6.9692 14.8193 7.43306 14.3677 7.43306 13.7817L7.43306 12.6221L9.28853 12.6221L4.58883 7.93457C4.46676 8.22754 4.38131 8.48389 4.38131 8.92334L4.38131 13.7817C4.38131 14.3677 4.84517 14.8193 5.44332 14.8193ZM10.6313 16.8701L9.70357 16.1743C9.36177 15.9302 8.97115 15.8081 8.55611 15.8081L6.57857 15.8081C6.09029 15.8081 5.90718 16.394 6.29781 16.6748L8.16549 18.042C8.75142 18.4692 8.66597 19.0308 7.99459 19.3359L1.91549 21.9604C-0.416057 22.9614-0.623577 24.4873 1.31734 25.9399L2.24508 26.6235C2.58687 26.8799 2.9775 27.002 3.39254 27.002L5.37008 27.002C5.85836 27.002 6.04146 26.416 5.65084 26.1353L3.78316 24.7559C3.20943 24.3408 3.28267 23.7671 3.95406 23.4741L10.0332 20.8374C12.3647 19.8364 12.5722 18.3228 10.6313 16.8701ZM23.4121 16.8945L22.4843 16.1987C22.1425 15.9424 21.7519 15.8325 21.3247 15.8325L20.104 15.8325L24.2177 19.9341C25.0966 19.043 24.8281 17.9443 23.4121 16.8945ZM17.455 20.7886L14.6962 21.9849C12.3647 22.9858 12.1572 24.4995 14.0981 25.9521L15.0258 26.6357C15.3676 26.8921 15.7583 27.0142 16.1733 27.0142L18.1508 27.0142C18.6391 27.0142 18.8222 26.4282 18.4316 26.1475L16.5639 24.7803C15.9902 24.353 16.0512 23.7915 16.7348 23.4863L19.1152 22.4609Z" fill="#5ac8f5" fill-opacity="0.5"/>
  <path d="M25.2431 26.2085C25.6093 26.5747 26.2075 26.5747 26.5737 26.2085C26.9277 25.8301 26.9399 25.2441 26.5737 24.8779L2.39156 0.695801C2.02535 0.32959 1.4272 0.317383 1.04879 0.695801C0.694782 1.0498 0.682575 1.66016 1.04879 2.02637Z" fill="#5ac8f5"/>
 </g>
</svg>
