<?xml version="1.0" encoding="UTF-8"?>
<!--Generator: Apple Native CoreSVG 175.5-->
<!DOCTYPE svg
PUBLIC "-//W3C//DTD SVG 1.1//EN"
       "http://www.w3.org/Graphics/SVG/1.1/DTD/svg11.dtd">
<svg version="1.1" xmlns="http://www.w3.org/2000/svg" xmlns:xlink="http://www.w3.org/1999/xlink" width="16.3208" height="30.5786">
 <g>
  <rect height="30.5786" opacity="0" width="16.3208" x="0" y="0"/>
  <path d="M7.31201 30.0781C7.82471 30.5054 8.52051 30.5664 9.00879 30.0903L12.7808 26.3184C13.2568 25.8301 13.2324 25.0977 12.7686 24.6216L10.8765 22.7417L13.6353 19.9951C14.1113 19.5312 14.0869 18.7866 13.623 18.2983L11.0718 15.7349C14.4287 14.1235 16.3208 11.3892 16.3208 8.14209C16.3208 3.6377 12.6709 0 8.1665 0C3.62549 0 0 3.61328 0 8.14209C0 11.4136 1.87988 14.3188 4.84619 15.625L4.84619 27.1484C4.84619 27.5513 4.96826 28.0151 5.32227 28.3325ZM8.1665 28.1494L6.81152 26.8066L6.81152 14.209C3.94287 13.562 1.95312 11.084 1.95312 8.14209C1.95312 4.72412 4.72412 1.96533 8.1665 1.96533C11.5967 1.96533 14.3555 4.72412 14.3555 8.14209C14.3555 11.0596 12.3535 13.562 9.28955 14.2944L9.28955 16.7603L11.6821 19.165L9.09424 21.7163L9.09424 23.7427L10.8276 25.4517ZM8.1665 7.77588C9.25293 7.77588 10.144 6.88477 10.144 5.78613C10.144 4.69971 9.25293 3.8208 8.1665 3.8208C7.05566 3.8208 6.18896 4.69971 6.18896 5.78613C6.18896 6.88477 7.06787 7.77588 8.1665 7.77588Z" fill="#5ac8f5"/>
 </g>
</svg>
