<?xml version="1.0" encoding="UTF-8"?>
<!--Generator: Apple Native CoreSVG 175.5-->
<!DOCTYPE svg
PUBLIC "-//W3C//DTD SVG 1.1//EN"
       "http://www.w3.org/Graphics/SVG/1.1/DTD/svg11.dtd">
<svg version="1.1" xmlns="http://www.w3.org/2000/svg" xmlns:xlink="http://www.w3.org/1999/xlink" width="26.3184" height="22.3999">
 <g>
  <rect height="22.3999" opacity="0" width="26.3184" x="0" y="0"/>
  <path d="M26.3184 11.1938C26.3184 10.7788 26.1719 10.3271 25.6958 9.87549L16.0645 0.866699C15.4175 0.256348 15.0146 0 14.4165 0C13.562 0 12.9517 0.671387 12.9517 1.48926L12.9517 6.10352L3.05176 6.10352C1.12305 6.10352 0 7.20215 0 9.09424L0 13.3057C0 15.1978 1.12305 16.2964 3.05176 16.2964L12.9517 16.2964L12.9517 20.9595C12.9517 21.7773 13.562 22.3877 14.3921 22.3877C14.9902 22.3877 15.4785 22.1436 16.0645 21.5942L25.6958 12.5C26.1597 12.0605 26.3184 11.5967 26.3184 11.1938ZM24.1211 11.1938C24.1211 11.2671 24.0967 11.3281 23.999 11.4258L15.2954 19.6533C15.2344 19.7266 15.1611 19.7632 15.0879 19.7632C14.9902 19.7632 14.917 19.6899 14.917 19.5801L14.917 14.856C14.917 14.5752 14.7949 14.4531 14.5142 14.4531L3.07617 14.4531C2.29492 14.4531 1.84326 14.0015 1.84326 13.208L1.84326 9.19189C1.84326 8.39844 2.29492 7.94678 3.07617 7.94678L14.5142 7.94678C14.7949 7.94678 14.917 7.82471 14.917 7.54395L14.917 2.69775C14.917 2.6001 14.9902 2.52686 15.1001 2.52686C15.1733 2.52686 15.2466 2.57568 15.3076 2.62451L23.999 10.9619C24.0845 11.0474 24.1211 11.1206 24.1211 11.1938Z" fill="#5ac8f5"/>
 </g>
</svg>
