<?xml version="1.0" encoding="UTF-8"?>
<!--Generator: Apple Native CoreSVG 175.5-->
<!DOCTYPE svg
PUBLIC "-//W3C//DTD SVG 1.1//EN"
       "http://www.w3.org/Graphics/SVG/1.1/DTD/svg11.dtd">
<svg version="1.1" xmlns="http://www.w3.org/2000/svg" xmlns:xlink="http://www.w3.org/1999/xlink" width="26.9043" height="26.9653">
 <g>
  <rect height="26.9653" opacity="0" width="26.9043" x="0" y="0"/>
  <path d="M7.25098 26.9653C7.72705 26.9653 8.08105 26.7212 8.65479 26.1841L13.0615 22.1558L21.3135 22.1558C24.9512 22.1558 26.9043 20.1538 26.9043 16.5771L26.9043 7.22656C26.9043 3.6499 24.9512 1.63574 21.3135 1.63574L5.59082 1.63574C1.95312 1.63574 0 3.6377 0 7.22656L0 16.5771C0 20.166 1.95312 22.1558 5.59082 22.1558L6.16455 22.1558L6.16455 25.708C6.16455 26.4648 6.55518 26.9653 7.25098 26.9653ZM10.4004 14.8315C7.4585 11.9019 5.59082 8.1665 7.8125 5.94482C7.84912 5.896 7.89795 5.84717 7.9834 5.79834C8.82568 5.17578 9.59473 5.0293 10.1196 5.77393L11.6699 7.95898C12.1948 8.70361 12.0728 9.15527 11.499 9.75342L11.0107 10.2783C10.8398 10.4492 10.9009 10.6689 10.9863 10.8032C11.2305 11.2305 11.8408 11.9995 12.5366 12.6953C13.2568 13.4033 13.9771 13.9893 14.4165 14.2578C14.5996 14.3555 14.8438 14.3799 14.9902 14.2334L15.4785 13.7451C16.04 13.1714 16.5283 13.0493 17.2729 13.5742C18.2983 14.2944 18.9087 14.7217 19.5068 15.1367C20.2393 15.6982 20.0806 16.5527 19.5068 17.1875C19.4458 17.2729 19.3848 17.3584 19.2993 17.4438C17.0776 19.6411 13.3423 17.7856 10.4004 14.8315Z" fill="#5ac8f5"/>
 </g>
</svg>
