<?xml version="1.0" encoding="UTF-8"?>
<!--Generator: Apple Native CoreSVG 175.5-->
<!DOCTYPE svg
PUBLIC "-//W3C//DTD SVG 1.1//EN"
       "http://www.w3.org/Graphics/SVG/1.1/DTD/svg11.dtd">
<svg version="1.1" xmlns="http://www.w3.org/2000/svg" xmlns:xlink="http://www.w3.org/1999/xlink" width="38.5132" height="15.2466">
 <g>
  <rect height="15.2466" opacity="0" width="38.5132" x="0" y="0"/>
  <path d="M9.97314 15.2344C14.1724 15.2344 17.5781 11.8286 17.5781 7.61719C17.5781 3.41797 14.1724 0 9.97314 0C5.76172 0 2.34375 3.41797 2.34375 7.61719C2.34375 11.8286 5.76172 15.2344 9.97314 15.2344ZM9.97314 13.1714C6.89697 13.1714 4.40674 10.6934 4.40674 7.61719C4.40674 4.55322 6.89697 2.06299 9.97314 2.06299C13.0249 2.06299 15.5151 4.56543 15.5151 7.61719C15.5151 10.6812 13.0249 13.1714 9.97314 13.1714ZM28.5645 15.2344C32.7637 15.2344 36.1694 11.8286 36.1694 7.61719C36.1694 3.41797 32.7637 0 28.5645 0C24.353 0 20.9351 3.41797 20.9351 7.61719C20.9351 11.8286 24.353 15.2344 28.5645 15.2344ZM28.5645 13.1714C25.5005 13.1714 22.998 10.6812 22.998 7.61719C22.998 4.56543 25.5005 2.06299 28.5645 2.06299C31.6284 2.06299 34.1064 4.55322 34.1064 7.61719C34.1064 10.6934 31.6284 13.1714 28.5645 13.1714ZM3.14941 6.11572L0.915527 6.11572C0.317383 6.11572 0 6.4209 0 7.03125L0 7.53174C0 8.14209 0.317383 8.45947 0.915527 8.45947L3.14941 8.45947ZM35.3638 8.45947L37.6099 8.45947C38.208 8.45947 38.5132 8.14209 38.5132 7.53174L38.5132 7.03125C38.5132 6.4209 38.208 6.11572 37.6099 6.11572L35.3638 6.11572ZM16.98 8.05664C17.5903 7.67822 18.4448 7.48291 19.2627 7.48291C20.0684 7.48291 20.9229 7.67822 21.5454 8.05664L21.5454 5.84717C20.8496 5.51758 19.9463 5.39551 19.2627 5.39551C18.5669 5.39551 17.6636 5.51758 16.98 5.84717Z" fill="#5ac8f5"/>
 </g>
</svg>
