<?xml version="1.0" encoding="UTF-8"?>
<!--Generator: Apple Native CoreSVG 175.5-->
<!DOCTYPE svg
PUBLIC "-//W3C//DTD SVG 1.1//EN"
       "http://www.w3.org/Graphics/SVG/1.1/DTD/svg11.dtd">
<svg version="1.1" xmlns="http://www.w3.org/2000/svg" xmlns:xlink="http://www.w3.org/1999/xlink" width="23.9014" height="23.9136">
 <g>
  <rect height="23.9136" opacity="0" width="23.9014" x="0" y="0"/>
  <path d="M0.976562 7.78809C1.62354 7.78809 1.96533 7.42188 1.96533 6.78711L1.96533 3.90625C1.96533 2.63672 2.63672 1.98975 3.85742 1.98975L6.81152 1.98975C7.4585 1.98975 7.8125 1.63574 7.8125 1.00098C7.8125 0.366211 7.4585 0.0244141 6.81152 0.0244141L3.83301 0.0244141C1.28174 0.0244141 0 1.28174 0 3.79639L0 6.78711C0 7.42188 0.354004 7.78809 0.976562 7.78809ZM22.9126 7.78809C23.5596 7.78809 23.9014 7.42188 23.9014 6.78711L23.9014 3.79639C23.9014 1.28174 22.6196 0.0244141 20.0684 0.0244141L17.0776 0.0244141C16.4429 0.0244141 16.0889 0.366211 16.0889 1.00098C16.0889 1.63574 16.4429 1.98975 17.0776 1.98975L20.0317 1.98975C21.2402 1.98975 21.936 2.63672 21.936 3.90625L21.936 6.78711C21.936 7.42188 22.29 7.78809 22.9126 7.78809ZM3.83301 23.9136L6.81152 23.9136C7.4585 23.9136 7.8125 23.5596 7.8125 22.937C7.8125 22.3022 7.4585 21.9482 6.81152 21.9482L3.85742 21.9482C2.63672 21.9482 1.96533 21.3013 1.96533 20.0317L1.96533 17.1509C1.96533 16.5039 1.61133 16.1499 0.976562 16.1499C0.341797 16.1499 0 16.5039 0 17.1509L0 20.1294C0 22.6562 1.28174 23.9136 3.83301 23.9136ZM17.0776 23.9136L20.0684 23.9136C22.6196 23.9136 23.9014 22.644 23.9014 20.1294L23.9014 17.1509C23.9014 16.5039 23.5474 16.1499 22.9126 16.1499C22.2778 16.1499 21.936 16.5039 21.936 17.1509L21.936 20.0317C21.936 21.3013 21.2402 21.9482 20.0317 21.9482L17.0776 21.9482C16.4429 21.9482 16.0889 22.3022 16.0889 22.937C16.0889 23.5596 16.4429 23.9136 17.0776 23.9136ZM6.86035 17.0288L17.0532 17.0288C18.2861 17.0288 18.9087 16.4185 18.9087 15.1978L18.9087 10.6567L5.00488 10.6567L5.00488 15.1978C5.00488 16.4185 5.62744 17.0288 6.86035 17.0288ZM7.43408 15.1978C7.09229 15.1978 6.86035 14.9658 6.86035 14.624L6.86035 13.5376C6.86035 13.1958 7.09229 12.9639 7.43408 12.9639L8.87451 12.9639C9.21631 12.9639 9.46045 13.1958 9.46045 13.5376L9.46045 14.624C9.46045 14.9658 9.21631 15.1978 8.87451 15.1978ZM5.00488 9.30176L18.9087 9.30176L18.9087 8.76465C18.9087 7.54395 18.2861 6.93359 17.0532 6.93359L6.86035 6.93359C5.62744 6.93359 5.00488 7.54395 5.00488 8.76465Z" fill="#5ac8f5"/>
 </g>
</svg>
