<?xml version="1.0" encoding="UTF-8"?>
<!--Generator: Apple Native CoreSVG 175.5-->
<!DOCTYPE svg
PUBLIC "-//W3C//DTD SVG 1.1//EN"
       "http://www.w3.org/Graphics/SVG/1.1/DTD/svg11.dtd">
<svg version="1.1" xmlns="http://www.w3.org/2000/svg" xmlns:xlink="http://www.w3.org/1999/xlink" width="38.5864" height="20.7153">
 <g>
  <rect height="20.7153" opacity="0" width="38.5864" x="0" y="0"/>
  <path d="M0.0610352 9.26514L9.27734 9.26514C9.49707 8.75244 9.99756 8.42285 10.6079 8.42285L27.9663 8.42285C28.5767 8.42285 29.0894 8.75244 29.3091 9.26514L38.5254 9.26514C37.915 3.17383 33.4595 0 25.5371 0L13.0493 0C5.13916 0 0.683594 3.17383 0.0610352 9.26514ZM25.5371 20.6909C33.9233 20.6909 38.4888 17.1387 38.5864 10.498L29.3091 10.498C29.0894 11.0107 28.5767 11.3403 27.9663 11.3403L10.6079 11.3403C9.99756 11.3403 9.49707 11.0107 9.27734 10.498L0 10.498C0.0854492 16.9067 4.94385 20.6909 13.0493 20.6909ZM19.2871 15.4297C18.6035 15.4419 18.042 14.8682 18.042 14.1968C18.042 13.5132 18.6035 12.9517 19.2871 12.9517C19.9707 12.9517 20.5322 13.5132 20.5322 14.1968C20.5322 14.8315 19.9707 15.4053 19.2871 15.4297Z" fill="#5ac8f5"/>
 </g>
</svg>
