<?xml version="1.0" encoding="UTF-8"?>
<!--Generator: Apple Native CoreSVG 175.5-->
<!DOCTYPE svg
PUBLIC "-//W3C//DTD SVG 1.1//EN"
       "http://www.w3.org/Graphics/SVG/1.1/DTD/svg11.dtd">
<svg version="1.1" xmlns="http://www.w3.org/2000/svg" xmlns:xlink="http://www.w3.org/1999/xlink" width="28.7842" height="22.522">
 <g>
  <rect height="22.522" opacity="0" width="28.7842" x="0" y="0"/>
  <path d="M2.47803 22.522L26.3062 22.522C27.8198 22.522 28.7842 21.5576 28.7842 20.0806L28.7842 2.46582C28.7842 1.00098 27.8198 0.0366211 26.3062 0.0366211L2.47803 0.0366211C0.976562 0.0366211 0 1.00098 0 2.46582L0 20.0806C0 21.5576 0.976562 22.522 2.47803 22.522ZM2.49023 20.5566C2.09961 20.5566 1.84326 20.2881 1.84326 19.9219L1.84326 18.5425C1.84326 18.2007 2.0874 17.9565 2.44141 17.9565L4.01611 17.9565C4.37012 17.9565 4.60205 18.2007 4.60205 18.5425L4.60205 19.9585C4.60205 20.3003 4.37012 20.5566 4.01611 20.5566ZM2.44141 16.5161C2.0874 16.5161 1.84326 16.2476 1.84326 15.9302L1.84326 14.5386C1.84326 14.1724 2.0752 13.9404 2.44141 13.9404L4.01611 13.9404C4.37012 13.9404 4.60205 14.1724 4.60205 14.5386L4.60205 15.9302C4.60205 16.2476 4.37012 16.5161 4.01611 16.5161ZM2.44141 12.561C2.0874 12.561 1.84326 12.3047 1.84326 11.9873L1.84326 10.5957C1.84326 10.2295 2.0752 9.99756 2.44141 9.99756L4.01611 9.99756C4.37012 9.99756 4.60205 10.2295 4.60205 10.5957L4.60205 11.9873C4.60205 12.3047 4.37012 12.561 4.01611 12.561ZM2.44141 8.64258C2.0874 8.64258 1.84326 8.37402 1.84326 8.06885L1.84326 6.66504C1.84326 6.31104 2.0752 6.06689 2.44141 6.06689L4.01611 6.06689C4.37012 6.06689 4.60205 6.31104 4.60205 6.66504L4.60205 8.06885C4.60205 8.37402 4.37012 8.64258 4.01611 8.64258ZM2.44141 4.60205C2.0874 4.60205 1.84326 4.3457 1.84326 4.02832L1.84326 2.64893C1.84326 2.2583 2.09961 2.00195 2.49023 2.00195L4.01611 2.00195C4.37012 2.00195 4.60205 2.24609 4.60205 2.6001L4.60205 4.02832C4.60205 4.3457 4.37012 4.60205 4.01611 4.60205ZM24.7681 20.5566C24.4141 20.5566 24.1821 20.3003 24.1821 19.9585L24.1821 18.5425C24.1821 18.2007 24.4141 17.9565 24.7681 17.9565L26.3428 17.9565C26.709 17.9565 26.9409 18.2007 26.9409 18.5425L26.9409 19.9219C26.9409 20.2881 26.6968 20.5566 26.2939 20.5566ZM24.7681 16.5161C24.4141 16.5161 24.1821 16.2476 24.1821 15.9302L24.1821 14.5386C24.1821 14.1724 24.4141 13.9404 24.7681 13.9404L26.3428 13.9404C26.709 13.9404 26.9409 14.1724 26.9409 14.5386L26.9409 15.9302C26.9409 16.2476 26.709 16.5161 26.3428 16.5161ZM24.7681 12.561C24.4141 12.561 24.1821 12.3047 24.1821 11.9873L24.1821 10.5957C24.1821 10.2295 24.4141 9.99756 24.7681 9.99756L26.3428 9.99756C26.709 9.99756 26.9409 10.2295 26.9409 10.5957L26.9409 11.9873C26.9409 12.3047 26.709 12.561 26.3428 12.561ZM24.7681 8.64258C24.4141 8.64258 24.1821 8.37402 24.1821 8.06885L24.1821 6.66504C24.1821 6.31104 24.4141 6.06689 24.7681 6.06689L26.3428 6.06689C26.709 6.06689 26.9409 6.31104 26.9409 6.66504L26.9409 8.06885C26.9409 8.37402 26.709 8.64258 26.3428 8.64258ZM5.96924 11.2793C5.96924 10.7666 6.37207 10.3516 6.88477 10.3516L21.8994 10.3516C22.4121 10.3516 22.8271 10.7666 22.8271 11.2793C22.8271 11.792 22.4121 12.1948 21.8994 12.1948L6.88477 12.1948C6.37207 12.1948 5.96924 11.792 5.96924 11.2793ZM24.7681 4.60205C24.4141 4.60205 24.1821 4.3457 24.1821 4.02832L24.1821 2.6001C24.1821 2.24609 24.4141 2.00195 24.7681 2.00195L26.2939 2.00195C26.6968 2.00195 26.9409 2.2583 26.9409 2.64893L26.9409 4.02832C26.9409 4.3457 26.709 4.60205 26.3428 4.60205Z" fill="#5ac8f5"/>
 </g>
</svg>
