<?xml version="1.0" encoding="UTF-8"?>
<!--Generator: Apple Native CoreSVG 175.5-->
<!DOCTYPE svg
PUBLIC "-//W3C//DTD SVG 1.1//EN"
       "http://www.w3.org/Graphics/SVG/1.1/DTD/svg11.dtd">
<svg version="1.1" xmlns="http://www.w3.org/2000/svg" xmlns:xlink="http://www.w3.org/1999/xlink" width="22.4731" height="22.4976">
 <g>
  <rect height="22.4976" opacity="0" width="22.4731" x="0" y="0"/>
  <path d="M3.83301 22.4976L18.6401 22.4976C21.2036 22.4976 22.4731 21.228 22.4731 18.7134L22.4731 3.80859C22.4731 1.29395 21.2036 0.0244141 18.6401 0.0244141L3.83301 0.0244141C1.28174 0.0244141 0 1.28174 0 3.80859L0 18.7134C0 21.2402 1.28174 22.4976 3.83301 22.4976ZM14.5142 16.4062C14.27 16.4062 14.0991 16.3452 13.9038 16.2598L6.39648 12.3535C5.87158 12.085 5.65186 11.7676 5.65186 11.2427C5.65186 10.7666 5.896 10.4126 6.39648 10.1318L13.9038 6.09131C14.1113 5.99365 14.27 5.93262 14.5386 5.93262C15.1367 5.93262 15.564 6.37207 15.564 6.93359C15.564 7.40967 15.3442 7.71484 14.8315 7.95898L8.44727 11.1694L8.44727 11.2427L14.8315 14.3799C15.3564 14.624 15.564 14.9048 15.564 15.3931C15.564 15.9668 15.1245 16.4062 14.5142 16.4062Z" fill="#5ac8f5"/>
 </g>
</svg>
