<?xml version="1.0" encoding="UTF-8"?>
<!--Generator: Apple Native CoreSVG 175.5-->
<!DOCTYPE svg
PUBLIC "-//W3C//DTD SVG 1.1//EN"
       "http://www.w3.org/Graphics/SVG/1.1/DTD/svg11.dtd">
<svg version="1.1" xmlns="http://www.w3.org/2000/svg" xmlns:xlink="http://www.w3.org/1999/xlink" width="35.3978" height="18.8354">
 <g>
  <rect height="18.8354" opacity="0" width="35.3978" x="0" y="0"/>
  <path d="M17.7039 16.6992C20.1087 16.6992 22.9163 17.4316 25.0037 18.5181C25.5653 18.8232 26.1878 18.7012 26.554 18.2251L34.867 7.6416C35.6849 6.5918 35.5506 5.48096 34.513 4.66309C31.1072 2.03857 24.5765 0 17.7039 0C10.8314 0 4.30061 2.03857 0.882638 4.66309C-0.15496 5.48096-0.289237 6.5918 0.540841 7.6416L8.85383 18.2251C9.22004 18.7012 9.83039 18.8232 10.3919 18.5181C12.4793 17.4316 15.2991 16.6992 17.7039 16.6992ZM17.7039 14.7339C15.47 14.7339 12.8944 15.3198 10.4041 16.3452C10.0989 16.4673 9.96467 16.4429 9.72053 16.1377L2.49397 6.93359C2.26203 6.62842 2.29865 6.33545 2.62824 6.11572C6.82746 3.4668 12.2108 1.96533 17.7039 1.96533C23.1971 1.96533 28.5804 3.4668 32.7796 6.11572C33.1092 6.33545 33.1458 6.62842 32.9017 6.93359L25.6873 16.1377C25.4432 16.4429 25.3089 16.4673 25.0037 16.3452C22.5135 15.3198 19.9256 14.7339 17.7039 14.7339ZM15.9583 13.2812L19.4373 13.2812C19.8524 13.2812 20.1942 12.9517 20.1942 12.5244C20.1942 12.1216 19.8646 11.8042 19.4373 11.8042L18.5096 11.8042L18.5096 7.59277C18.5096 7.08008 18.2288 6.70166 17.7161 6.70166L16.1048 6.70166C15.6898 6.70166 15.348 7.00684 15.348 7.42188C15.348 7.86133 15.6898 8.17871 16.1048 8.17871L16.8738 8.17871L16.8738 11.8042L15.9583 11.8042C15.5433 11.8042 15.2015 12.1094 15.2015 12.5244C15.2015 12.9639 15.5433 13.2812 15.9583 13.2812ZM17.3865 5.5542C18.0823 5.5542 18.6317 4.98047 18.6317 4.29688C18.6317 3.60107 18.0701 3.03955 17.3865 3.03955C16.6907 3.03955 16.117 3.60107 16.117 4.29688C16.117 4.98047 16.6907 5.5542 17.3865 5.5542Z" fill="#5ac8f5"/>
 </g>
</svg>
