<?xml version="1.0" encoding="UTF-8"?>
<!--Generator: Apple Native CoreSVG 175.5-->
<!DOCTYPE svg
PUBLIC "-//W3C//DTD SVG 1.1//EN"
       "http://www.w3.org/Graphics/SVG/1.1/DTD/svg11.dtd">
<svg version="1.1" xmlns="http://www.w3.org/2000/svg" xmlns:xlink="http://www.w3.org/1999/xlink" width="34.5703" height="13.9771">
 <g>
  <rect height="13.9771" opacity="0" width="34.5703" x="0" y="0"/>
  <path d="M9.43604 13.9771C12.7197 13.9771 15.5273 12.9028 17.2852 10.9741C19.043 12.9028 21.8506 13.9771 25.1343 13.9771C30.4443 13.9771 34.5703 10.7544 34.5703 6.604C34.5703 4.87061 33.8501 3.84521 32.5806 3.84521C32.0557 3.84521 31.604 4.06494 31.189 4.5166C30.6763 5.07812 29.895 5.46875 29.0039 5.46875C25.9399 5.46875 25.2319 1.25732 20.2148 1.25732C19.0918 1.25732 18.0908 1.57471 17.2852 2.14844C16.4795 1.57471 15.4785 1.25732 14.3555 1.25732C9.33838 1.25732 8.63037 5.46875 5.56641 5.46875C4.67529 5.46875 3.89404 5.07812 3.38135 4.5166C2.96631 4.06494 2.51465 3.84521 1.98975 3.84521C0.720215 3.84521 0 4.87061 0 6.604C0 10.7544 4.12598 13.9771 9.43604 13.9771ZM9.43604 12.0117C5.23682 12.0117 1.96533 9.61914 1.96533 6.5918C1.96533 6.25 2.27051 6.22559 2.46582 6.35986C3.19824 7.05566 4.37012 7.43408 5.56641 7.43408C7.70264 7.43408 9.11865 6.23779 10.3271 5.2002C11.5723 4.15039 12.6221 3.22266 14.3555 3.22266C15.5151 3.22266 16.4185 3.73535 16.8823 4.57764C17.0654 4.93164 17.5049 4.94385 17.6758 4.57764C18.1396 3.73535 19.0552 3.22266 20.2148 3.22266C21.9482 3.22266 22.998 4.15039 24.2432 5.2002C25.4517 6.23779 26.8677 7.43408 29.0039 7.43408C30.2002 7.43408 31.3721 7.04346 32.1411 6.31104C32.3486 6.16455 32.605 6.17676 32.605 6.5918C32.605 9.61914 29.3335 12.0117 25.1343 12.0117C21.5088 12.0117 18.7988 10.5591 17.7734 8.20312C17.5781 7.75146 16.9922 7.73926 16.7969 8.20312C15.7837 10.5591 13.0737 12.0117 9.43604 12.0117Z" fill="#5ac8f5"/>
 </g>
</svg>
