<?xml version="1.0" encoding="UTF-8"?>
<!--Generator: Apple Native CoreSVG 175.5-->
<!DOCTYPE svg
PUBLIC "-//W3C//DTD SVG 1.1//EN"
       "http://www.w3.org/Graphics/SVG/1.1/DTD/svg11.dtd">
<svg version="1.1" xmlns="http://www.w3.org/2000/svg" xmlns:xlink="http://www.w3.org/1999/xlink" width="26.3306" height="25.8179">
 <g>
  <rect height="25.8179" opacity="0" width="26.3306" x="0" y="0"/>
  <path d="M0.854492 1.84326L25.4761 1.84326C25.9766 1.84326 26.3306 1.45264 26.3306 0.915527C26.3306 0.378418 25.9766 0 25.4761 0L0.854492 0C0.341797 0 0 0.378418 0 0.915527C0 1.45264 0.341797 1.84326 0.854492 1.84326ZM2.38037 11.5601L5.0415 11.5601C6.53076 11.5601 7.27539 10.8154 7.27539 9.26514L7.27539 6.71387C7.27539 5.16357 6.53076 4.43115 5.0415 4.43115L2.38037 4.43115C0.891113 4.43115 0.146484 5.16357 0.146484 6.71387L0.146484 9.26514C0.146484 10.8154 0.891113 11.5601 2.38037 11.5601ZM11.8286 11.5601L14.4897 11.5601C15.979 11.5601 16.7236 10.8154 16.7236 9.26514L16.7236 6.71387C16.7236 5.16357 15.979 4.43115 14.4897 4.43115L11.8286 4.43115C10.3394 4.43115 9.59473 5.16357 9.59473 6.71387L9.59473 9.26514C9.59473 10.8154 10.3394 11.5601 11.8286 11.5601ZM21.2769 11.5601L23.9258 11.5601C25.415 11.5601 26.1597 10.8154 26.1597 9.26514L26.1597 6.71387C26.1597 5.16357 25.415 4.43115 23.9258 4.43115L21.2769 4.43115C19.7754 4.43115 19.0308 5.16357 19.0308 6.71387L19.0308 9.26514C19.0308 10.8154 19.7754 11.5601 21.2769 11.5601ZM0.854492 15.8569L25.4761 15.8569C25.9766 15.8569 26.3306 15.4785 26.3306 14.9414C26.3306 14.4043 25.9766 14.0137 25.4761 14.0137L0.854492 14.0137C0.341797 14.0137 0 14.4043 0 14.9414C0 15.4785 0.341797 15.8569 0.854492 15.8569ZM2.39258 25.5737L5.05371 25.5737C6.54297 25.5737 7.2876 24.8413 7.2876 23.291L7.2876 20.7275C7.2876 19.1772 6.54297 18.4448 5.05371 18.4448L2.39258 18.4448C0.90332 18.4448 0.158691 19.1772 0.158691 20.7275L0.158691 23.291C0.158691 24.8413 0.90332 25.5737 2.39258 25.5737ZM11.8408 25.5737L14.502 25.5737C15.9912 25.5737 16.7358 24.8413 16.7358 23.291L16.7358 20.7275C16.7358 19.1772 15.9912 18.4448 14.502 18.4448L11.8408 18.4448C10.3516 18.4448 9.60693 19.1772 9.60693 20.7275L9.60693 23.291C9.60693 24.8413 10.3516 25.5737 11.8408 25.5737ZM21.2891 25.5737L23.938 25.5737C25.4395 25.5737 26.1841 24.8413 26.1841 23.291L26.1841 20.7275C26.1841 19.1772 25.4395 18.4448 23.938 18.4448L21.2891 18.4448C19.7998 18.4448 19.0552 19.1772 19.0552 20.7275L19.0552 23.291C19.0552 24.8413 19.7998 25.5737 21.2891 25.5737Z" fill="#5ac8f5"/>
 </g>
</svg>
