<?xml version="1.0" encoding="UTF-8"?>
<!--Generator: Apple Native CoreSVG 175.5-->
<!DOCTYPE svg
PUBLIC "-//W3C//DTD SVG 1.1//EN"
       "http://www.w3.org/Graphics/SVG/1.1/DTD/svg11.dtd">
<svg version="1.1" xmlns="http://www.w3.org/2000/svg" xmlns:xlink="http://www.w3.org/1999/xlink" width="24.9023" height="24.9146">
 <g>
  <rect height="24.9146" opacity="0" width="24.9023" x="0" y="0"/>
  <path d="M12.4512 24.9023C19.2627 24.9023 24.9023 19.2505 24.9023 12.4512C24.9023 5.63965 19.2505 0 12.439 0C5.63965 0 0 5.63965 0 12.4512C0 19.2505 5.65186 24.9023 12.4512 24.9023ZM12.4512 22.8271C6.68945 22.8271 2.0874 18.2129 2.0874 12.4512C2.0874 6.68945 6.67725 2.0752 12.439 2.0752C18.2007 2.0752 22.8271 6.68945 22.8271 12.4512C22.8271 18.2129 18.2129 22.8271 12.4512 22.8271Z" fill="#5ac8f5" fill-opacity="0.5"/>
  <path d="M7.14111 16.2964C7.14111 16.9922 7.49512 17.4072 8.11768 17.395C8.74023 17.3828 9.09424 16.9922 9.09424 16.2964L9.09424 12.9028C9.09424 11.792 9.63135 11.2793 10.6812 11.2793L13.8672 11.2793L13.8672 13.1958C13.8672 13.9893 14.7583 14.3555 15.4297 13.7817L18.335 11.2549C19.0674 10.6201 19.0674 9.97314 18.335 9.33838L15.4297 6.82373C14.7583 6.23779 13.8672 6.61621 13.8672 7.39746L13.8672 9.31396L10.6445 9.31396C8.27637 9.31396 7.14111 10.4492 7.14111 12.8052Z" fill="#5ac8f5"/>
 </g>
</svg>
