<?xml version="1.0" encoding="UTF-8"?>
<!--Generator: Apple Native CoreSVG 175.5-->
<!DOCTYPE svg
PUBLIC "-//W3C//DTD SVG 1.1//EN"
       "http://www.w3.org/Graphics/SVG/1.1/DTD/svg11.dtd">
<svg version="1.1" xmlns="http://www.w3.org/2000/svg" xmlns:xlink="http://www.w3.org/1999/xlink" width="22.4731" height="22.4976">
 <g>
  <rect height="22.4976" opacity="0" width="22.4731" x="0" y="0"/>
  <path d="M3.83301 22.4976L18.6401 22.4976C21.2036 22.4976 22.4731 21.228 22.4731 18.7134L22.4731 3.80859C22.4731 1.29395 21.2036 0.0244141 18.6401 0.0244141L3.83301 0.0244141C1.28174 0.0244141 0 1.28174 0 3.80859L0 18.7134C0 21.2402 1.28174 22.4976 3.83301 22.4976ZM11.8896 16.9678C11.2671 16.9678 10.9009 16.5405 10.9009 15.8325L10.9009 7.70264L10.8154 7.70264L9.17969 8.76465C8.88672 8.97217 8.76465 8.99658 8.56934 8.99658C8.1665 8.99658 7.84912 8.63037 7.84912 8.23975C7.84912 7.92236 7.97119 7.72705 8.23975 7.53174L10.5103 5.99365C11.0352 5.62744 11.377 5.50537 11.8408 5.50537C12.5244 5.50537 12.915 5.9082 12.915 6.64062L12.915 15.8325C12.915 16.5405 12.5488 16.9678 11.8896 16.9678Z" fill="#5ac8f5"/>
 </g>
</svg>
