<?xml version="1.0" encoding="UTF-8"?>
<!--Generator: Apple Native CoreSVG 175.5-->
<!DOCTYPE svg
PUBLIC "-//W3C//DTD SVG 1.1//EN"
       "http://www.w3.org/Graphics/SVG/1.1/DTD/svg11.dtd">
<svg version="1.1" xmlns="http://www.w3.org/2000/svg" xmlns:xlink="http://www.w3.org/1999/xlink" width="20.5322" height="26.1841">
 <g>
  <rect height="26.1841" opacity="0" width="20.5322" x="0" y="0"/>
  <path d="M0 22.3511C0 24.9023 1.25732 26.1719 3.78418 26.1719L16.748 26.1719C19.2749 26.1719 20.5322 24.9023 20.5322 22.3511L20.5322 3.83301C20.5322 1.29395 19.2749 0 16.748 0L3.78418 0C1.25732 0 0 1.29395 0 3.83301ZM1.96533 22.3145L1.96533 3.86963C1.96533 2.64893 2.6123 1.96533 3.88184 1.96533L16.6504 1.96533C17.9199 1.96533 18.5669 2.64893 18.5669 3.86963L18.5669 22.3145C18.5669 23.5352 17.9199 24.2065 16.6504 24.2065L3.88184 24.2065C2.6123 24.2065 1.96533 23.5352 1.96533 22.3145Z" fill="#5ac8f5" fill-opacity="0.5"/>
  <path d="M4.69971 22.5464L15.7837 22.5464C16.5649 22.5464 16.8701 22.2412 16.8701 21.4722L16.8701 14.1602C16.8701 13.3911 16.5649 13.0859 15.7837 13.0859L4.69971 13.0859C3.93066 13.0859 3.61328 13.3911 3.61328 14.1602L3.61328 21.4722C3.61328 22.2412 3.93066 22.5464 4.69971 22.5464Z" fill="#5ac8f5"/>
 </g>
</svg>
