<?xml version="1.0" encoding="UTF-8"?>
<!--Generator: Apple Native CoreSVG 175.5-->
<!DOCTYPE svg
PUBLIC "-//W3C//DTD SVG 1.1//EN"
       "http://www.w3.org/Graphics/SVG/1.1/DTD/svg11.dtd">
<svg version="1.1" xmlns="http://www.w3.org/2000/svg" xmlns:xlink="http://www.w3.org/1999/xlink" width="24.7314" height="30.3833">
 <g>
  <rect height="30.3833" opacity="0" width="24.7314" x="0" y="0"/>
  <path d="M24.7314 9.86328C24.7314 7.31201 23.4741 6.03027 20.9473 6.03027L9.43604 6.03027C6.90918 6.03027 5.65186 7.31201 5.65186 9.86328L5.65186 26.5381C5.65186 29.0894 6.92139 30.3711 9.43604 30.3711L20.9473 30.3711C23.4619 30.3711 24.7314 29.0894 24.7314 26.5381ZM22.7661 9.8999L22.7661 26.5137C22.7661 27.71 22.1191 28.4058 20.8496 28.4058L9.53369 28.4058C8.26416 28.4058 7.61719 27.71 7.61719 26.5137L7.61719 9.8999C7.61719 8.6792 8.26416 7.99561 9.53369 7.99561L20.8496 7.99561C22.1191 7.99561 22.7661 8.6792 22.7661 9.8999ZM19.0796 3.83301C19.0796 1.28174 17.8223 0 15.2954 0L3.78418 0C1.25732 0 0 1.28174 0 3.83301L0 20.3735C0 22.9248 1.26953 24.2065 3.78418 24.2065L6.44531 24.2065L6.44531 22.2412L3.88184 22.2412C2.6123 22.2412 1.96533 21.5454 1.96533 20.3491L1.96533 3.86963C1.96533 2.64893 2.6123 1.96533 3.88184 1.96533L15.1978 1.96533C16.4673 1.96533 17.1143 2.64893 17.1143 3.86963L17.1143 6.86035L19.0796 6.86035Z" fill="#5ac8f5"/>
 </g>
</svg>
