<?xml version="1.0" encoding="UTF-8"?>
<!--Generator: Apple Native CoreSVG 175.5-->
<!DOCTYPE svg
PUBLIC "-//W3C//DTD SVG 1.1//EN"
       "http://www.w3.org/Graphics/SVG/1.1/DTD/svg11.dtd">
<svg version="1.1" xmlns="http://www.w3.org/2000/svg" xmlns:xlink="http://www.w3.org/1999/xlink" width="28.7842" height="22.4731">
 <g>
  <rect height="22.4731" opacity="0" width="28.7842" x="0" y="0"/>
  <path d="M3.83301 22.4731L24.9512 22.4731C27.5146 22.4731 28.7842 21.2158 28.7842 18.7012L28.7842 3.78418C28.7842 1.26953 27.5146 0 24.9512 0L3.83301 0C1.28174 0 0 1.26953 0 3.78418L0 18.7012C0 21.2158 1.28174 22.4731 3.83301 22.4731ZM10.3027 16.3696C9.74121 16.3696 9.28955 15.918 9.28955 15.3564C9.28955 15.0879 9.39941 14.8315 9.58252 14.6484L12.9761 11.2549L9.58252 7.87354C9.39941 7.67822 9.28955 7.43408 9.28955 7.16553C9.28955 6.5918 9.74121 6.16455 10.3027 6.16455C10.5835 6.16455 10.8032 6.26221 10.9985 6.44531L14.4043 9.83887L17.8345 6.43311C18.042 6.22559 18.2617 6.14014 18.5303 6.14014C19.0918 6.14014 19.5312 6.57959 19.5312 7.14111C19.5312 7.42188 19.458 7.6416 19.2383 7.86133L15.8447 11.2549L19.2261 14.6362C19.4336 14.8193 19.519 15.0757 19.519 15.3564C19.519 15.918 19.0796 16.3696 18.5059 16.3696C18.2251 16.3696 17.9688 16.272 17.7856 16.0767L14.4043 12.6831L11.0352 16.0767C10.8398 16.272 10.5835 16.3696 10.3027 16.3696Z" fill="#5ac8f5"/>
 </g>
</svg>
