<?xml version="1.0" encoding="UTF-8"?>
<!--Generator: Apple Native CoreSVG 175.5-->
<!DOCTYPE svg
PUBLIC "-//W3C//DTD SVG 1.1//EN"
       "http://www.w3.org/Graphics/SVG/1.1/DTD/svg11.dtd">
<svg version="1.1" xmlns="http://www.w3.org/2000/svg" xmlns:xlink="http://www.w3.org/1999/xlink" width="22.4731" height="22.4976">
 <g>
  <rect height="22.4976" opacity="0" width="22.4731" x="0" y="0"/>
  <path d="M3.83301 22.4976L18.6401 22.4976C21.2036 22.4976 22.4731 21.228 22.4731 18.7134L22.4731 3.80859C22.4731 1.29395 21.2036 0.0244141 18.6401 0.0244141L3.83301 0.0244141C1.28174 0.0244141 0 1.28174 0 3.80859L0 18.7134C0 21.2402 1.28174 22.4976 3.83301 22.4976ZM3.85742 20.5322C2.63672 20.5322 1.96533 19.8853 1.96533 18.6157L1.96533 3.90625C1.96533 2.63672 2.63672 1.98975 3.85742 1.98975L18.6157 1.98975C19.8242 1.98975 20.5078 2.63672 20.5078 3.90625L20.5078 18.6157C20.5078 19.8853 19.8242 20.5322 18.6157 20.5322ZM5.76172 7.75146C6.83594 7.76367 7.73926 6.86035 7.73926 5.74951C7.73926 4.66309 6.83594 3.78418 5.76172 3.78418C4.66309 3.78418 3.77197 4.66309 3.77197 5.74951C3.77197 6.86035 4.66309 7.72705 5.76172 7.75146ZM16.7358 7.75146C17.8101 7.76367 18.7012 6.86035 18.7012 5.74951C18.7012 4.66309 17.8101 3.78418 16.7358 3.78418C15.6372 3.78418 14.7339 4.66309 14.7339 5.74951C14.7339 6.86035 15.6372 7.72705 16.7358 7.75146ZM5.76172 13.2446C6.83594 13.2446 7.73926 12.3535 7.73926 11.2427C7.73926 10.1562 6.83594 9.27734 5.76172 9.27734C4.66309 9.27734 3.78418 10.1562 3.78418 11.2427C3.78418 12.3535 4.66309 13.2446 5.76172 13.2446ZM16.7236 13.2446C17.8101 13.2446 18.7012 12.3535 18.7012 11.2427C18.7012 10.1562 17.8101 9.27734 16.7236 9.27734C15.6372 9.27734 14.7461 10.1562 14.7461 11.2427C14.7461 12.3535 15.6372 13.2446 16.7236 13.2446ZM5.76172 18.7378C6.83594 18.7378 7.73926 17.8467 7.73926 16.748C7.73926 15.6494 6.83594 14.7705 5.76172 14.7705C4.66309 14.7705 3.78418 15.6494 3.78418 16.748C3.78418 17.8467 4.66309 18.7378 5.76172 18.7378ZM16.7358 18.7378C17.8101 18.7378 18.7012 17.8467 18.7012 16.748C18.7012 15.6494 17.8101 14.7705 16.7358 14.7705C15.6372 14.7705 14.7583 15.6494 14.7583 16.748C14.7583 17.8467 15.6372 18.7378 16.7358 18.7378Z" fill="#5ac8f5"/>
 </g>
</svg>
