<?xml version="1.0" encoding="UTF-8"?>
<!--Generator: Apple Native CoreSVG 175.5-->
<!DOCTYPE svg
PUBLIC "-//W3C//DTD SVG 1.1//EN"
       "http://www.w3.org/Graphics/SVG/1.1/DTD/svg11.dtd">
<svg version="1.1" xmlns="http://www.w3.org/2000/svg" xmlns:xlink="http://www.w3.org/1999/xlink" width="20.5322" height="26.1841">
 <g>
  <rect height="26.1841" opacity="0" width="20.5322" x="0" y="0"/>
  <path d="M3.78418 26.1719L16.748 26.1719C19.2749 26.1719 20.5322 24.8901 20.5322 22.3511L20.5322 11.2671C20.5322 9.69238 20.3491 9.00879 19.3726 8.00781L12.6465 1.15967C11.7188 0.20752 10.9497 0 9.58252 0L3.78418 0C1.26953 0 0 1.29395 0 3.83301L0 22.3511C0 24.9023 1.25732 26.1719 3.78418 26.1719ZM3.86963 24.2065C2.6123 24.2065 1.96533 23.5352 1.96533 22.3145L1.96533 3.86963C1.96533 2.66113 2.6123 1.96533 3.88184 1.96533L9.31396 1.96533L9.31396 9.05762C9.31396 10.5957 10.083 11.3525 11.6089 11.3525L18.5669 11.3525L18.5669 22.3145C18.5669 23.5352 17.9199 24.2065 16.6504 24.2065ZM11.8286 9.50928C11.3403 9.50928 11.1572 9.31396 11.1572 8.82568L11.1572 2.34375L18.1885 9.50928Z" fill="#5ac8f5"/>
 </g>
</svg>
