<?xml version="1.0" encoding="UTF-8"?>
<!--Generator: Apple Native CoreSVG 175.5-->
<!DOCTYPE svg
PUBLIC "-//W3C//DTD SVG 1.1//EN"
       "http://www.w3.org/Graphics/SVG/1.1/DTD/svg11.dtd">
<svg version="1.1" xmlns="http://www.w3.org/2000/svg" xmlns:xlink="http://www.w3.org/1999/xlink" width="24.9023" height="24.9146">
 <g>
  <rect height="24.9146" opacity="0" width="24.9023" x="0" y="0"/>
  <path d="M12.4512 24.9146C19.2627 24.9146 24.9023 19.2749 24.9023 12.4634C24.9023 5.66406 19.2505 0.012207 12.439 0.012207C5.63965 0.012207 0 5.66406 0 12.4634C0 19.2749 5.65186 24.9146 12.4512 24.9146ZM8.49609 13.7207C6.70166 13.7207 5.66406 12.5732 5.66406 11.145C5.66406 9.87549 6.49414 8.92334 7.58057 8.61816C7.78809 6.35986 9.66797 4.57764 11.9263 4.57764C13.6719 4.57764 15.0635 5.54199 15.8325 7.03125C17.8711 7.03125 19.4458 8.43506 19.4458 10.3638C19.4458 12.2192 17.9443 13.7207 15.9912 13.7207ZM10.2295 19.0796C10.0708 19.3604 9.729 19.4702 9.44824 19.2993C9.16748 19.1528 9.06982 18.7866 9.24072 18.5181L11.1694 15.1855C11.3403 14.8926 11.6699 14.8071 11.9385 14.9658C12.2314 15.1245 12.3413 15.4785 12.1582 15.7593ZM15.9546 19.0796C15.8081 19.3604 15.4663 19.4702 15.1855 19.2993C14.8926 19.1528 14.8071 18.7866 14.9658 18.5181L16.8945 15.1855C17.0654 14.8926 17.395 14.8071 17.6758 14.9658C17.9688 15.1245 18.0664 15.4785 17.8955 15.7593ZM13.0981 19.0796C12.9272 19.3604 12.5854 19.4702 12.3169 19.2993C12.0239 19.1528 11.9385 18.7866 12.0972 18.5181L14.0259 15.1855C14.1968 14.8926 14.5264 14.8071 14.8071 14.9658C15.1001 15.1245 15.1978 15.4785 15.0146 15.7593ZM7.36084 19.0796C7.20215 19.3604 6.86035 19.4702 6.57959 19.2993C6.29883 19.1528 6.20117 18.7866 6.35986 18.5181L8.30078 15.1855C8.45947 14.8926 8.80127 14.8071 9.06982 14.9658C9.36279 15.1245 9.46045 15.4785 9.28955 15.7593Z" fill="#5ac8f5"/>
 </g>
</svg>
