<?xml version="1.0" encoding="UTF-8"?>
<!--Generator: Apple Native CoreSVG 175.5-->
<!DOCTYPE svg
PUBLIC "-//W3C//DTD SVG 1.1//EN"
       "http://www.w3.org/Graphics/SVG/1.1/DTD/svg11.dtd">
<svg version="1.1" xmlns="http://www.w3.org/2000/svg" xmlns:xlink="http://www.w3.org/1999/xlink" width="27.2722" height="24.9146">
 <g>
  <rect height="24.9146" opacity="0" width="27.2722" x="0" y="0"/>
  <path d="M14.821 24.9023C21.6203 24.9023 27.2722 19.2505 27.2722 12.4512C27.2722 5.63965 21.6203 0 14.821 0C8.00946 0 2.36981 5.62744 2.36981 12.439L4.44501 12.439C4.44501 6.67725 9.05926 2.0874 14.821 2.0874C20.5827 2.0874 25.197 6.68945 25.197 12.4512C25.197 18.2129 20.5827 22.8516 14.821 22.8271C11.342 22.8149 8.29022 21.1304 6.42255 18.5303C6.04413 18.0298 5.4704 17.8711 4.9577 18.1763C4.46942 18.4814 4.33514 19.1528 4.75018 19.6899C7.06952 22.8027 10.7072 24.9023 14.821 24.9023ZM0.868346 10.0952C-0.01056 10.0952-0.230287 10.6934 0.245788 11.377L2.98016 15.2588C3.38299 15.8203 3.96893 15.8081 4.35956 15.2588L7.09393 11.3647C7.5578 10.6934 7.33807 10.0952 6.47137 10.0952Z" fill="#5ac8f5" fill-opacity="0.5"/>
  <path d="M14.8088 18.5059C17.4089 18.5059 19.301 17.0532 19.301 15.0269C19.301 13.3179 18.361 12.4023 16.0295 11.8408L14.2961 11.4136C12.9289 11.0718 12.343 10.5957 12.343 9.77783C12.343 8.75244 13.2951 8.04443 14.7111 8.04443C15.9929 8.04443 16.7741 8.59375 17.2014 9.76562C17.3967 10.1929 17.7263 10.3882 18.0681 10.3882C18.7028 10.3882 19.069 9.82666 18.8493 9.09424C18.5075 7.80029 17.0427 6.43311 14.7111 6.43311C12.2331 6.43311 10.4631 7.86133 10.4631 9.85107C10.4631 11.5234 11.5373 12.5488 13.7712 13.0737L15.5168 13.4888C16.884 13.8062 17.3967 14.27 17.3967 15.1611C17.3967 16.2109 16.3835 16.8945 14.8088 16.8945C13.3806 16.8945 12.5139 16.3574 12.0744 15.1978C11.8913 14.7827 11.5617 14.5874 11.2199 14.5874C10.5974 14.5874 10.2678 15.0879 10.402 15.8203C10.695 17.3218 12.4528 18.5059 14.8088 18.5059ZM14.0886 19.7021C14.0886 20.105 14.4182 20.4468 14.821 20.4468C15.2238 20.4468 15.5656 20.105 15.5656 19.7021L15.5656 5.2124C15.5656 4.80957 15.2238 4.46777 14.821 4.46777C14.4182 4.46777 14.0886 4.80957 14.0886 5.2124Z" fill="#5ac8f5"/>
 </g>
</svg>
