<?xml version="1.0" encoding="UTF-8"?>
<!--Generator: Apple Native CoreSVG 175.5-->
<!DOCTYPE svg
PUBLIC "-//W3C//DTD SVG 1.1//EN"
       "http://www.w3.org/Graphics/SVG/1.1/DTD/svg11.dtd">
<svg version="1.1" xmlns="http://www.w3.org/2000/svg" xmlns:xlink="http://www.w3.org/1999/xlink" width="22.4731" height="22.4976">
 <g>
  <rect height="22.4976" opacity="0" width="22.4731" x="0" y="0"/>
  <path d="M3.83301 22.4976L18.6401 22.4976C21.2036 22.4976 22.4731 21.228 22.4731 18.7134L22.4731 3.80859C22.4731 1.29395 21.2036 0.0244141 18.6401 0.0244141L3.83301 0.0244141C1.28174 0.0244141 0 1.28174 0 3.80859L0 18.7134C0 21.2402 1.28174 22.4976 3.83301 22.4976Z" fill="#5ac8f5" fill-opacity="0.25"/>
  <path d="M7.89795 16.6748C5.7251 16.6748 4.29688 14.5996 4.29688 11.2427C4.29688 7.88574 5.7251 5.81055 7.89795 5.81055C10.0708 5.81055 11.499 7.88574 11.499 11.2427C11.499 14.5996 10.0708 16.6748 7.89795 16.6748ZM7.89795 15.1367C9.10645 15.1367 9.83887 13.6597 9.83887 11.2427C9.83887 8.82568 9.09424 7.34863 7.89795 7.34863C6.70166 7.34863 5.95703 8.82568 5.95703 11.2427C5.95703 13.6597 6.70166 15.1367 7.89795 15.1367ZM16.6382 16.5161C16.1743 16.5161 15.8691 16.1987 15.8691 15.7104L15.8691 7.89795L15.7959 7.89795L14.4531 8.88672C14.1602 9.11865 14.0381 9.13086 13.8306 9.13086C13.4644 9.13086 13.1104 8.80127 13.1104 8.37402C13.1104 8.04443 13.2812 7.8125 13.5376 7.62939L15.4541 6.32324C15.8936 6.01807 16.1499 5.896 16.5527 5.896C17.0898 5.896 17.4561 6.27441 17.4561 6.79932L17.4561 15.7104C17.4561 16.1987 17.1387 16.5161 16.6382 16.5161Z" fill="#5ac8f5"/>
 </g>
</svg>
