<?xml version="1.0" encoding="UTF-8"?>
<!--Generator: Apple Native CoreSVG 175.5-->
<!DOCTYPE svg
PUBLIC "-//W3C//DTD SVG 1.1//EN"
       "http://www.w3.org/Graphics/SVG/1.1/DTD/svg11.dtd">
<svg version="1.1" xmlns="http://www.w3.org/2000/svg" xmlns:xlink="http://www.w3.org/1999/xlink" width="20.2881" height="25.3052">
 <g>
  <rect height="25.3052" opacity="0" width="20.2881" x="0" y="0"/>
  <path d="M10.144 25.3052C10.3394 25.3052 10.6567 25.2319 10.9619 25.061C17.9077 21.167 20.2881 19.519 20.2881 15.0635L20.2881 5.7251C20.2881 4.44336 19.7388 4.04053 18.7012 3.60107C17.2607 3.00293 12.6099 1.33057 11.1694 0.830078C10.8398 0.720215 10.4858 0.646973 10.144 0.646973C9.80225 0.646973 9.44824 0.744629 9.13086 0.830078C7.69043 1.24512 3.02734 3.01514 1.58691 3.60107C0.561523 4.02832 0 4.44336 0 5.7251L0 15.0635C0 19.519 2.39258 21.1548 9.32617 25.061C9.64355 25.2319 9.94873 25.3052 10.144 25.3052ZM10.144 23.0957C9.94873 23.0957 9.75342 23.0225 9.38721 22.8027C3.74756 19.3848 1.94092 18.3838 1.94092 14.6118L1.94092 6.10352C1.94092 5.68848 2.01416 5.52979 2.35596 5.39551C4.21143 4.66309 7.8125 3.45459 9.65576 2.72217C9.85107 2.63672 10.0098 2.6123 10.144 2.6123C10.2783 2.6123 10.437 2.64893 10.6323 2.72217C12.4756 3.45459 16.0522 4.74854 17.9443 5.39551C18.2739 5.51758 18.3472 5.68848 18.3472 6.10352L18.3472 14.6118C18.3472 18.3838 16.5405 19.3726 10.9009 22.8027C10.5469 23.0225 10.3394 23.0957 10.144 23.0957Z" fill="#5ac8f5" fill-opacity="0.5"/>
  <path d="M5.98145 17.5537C6.26221 17.5537 6.50635 17.4438 6.68945 17.2485L10.144 13.7817L13.623 17.2485C13.8062 17.4316 14.0381 17.5537 14.3188 17.5537C14.8682 17.5537 15.2954 17.1021 15.2954 16.5649C15.2954 16.2842 15.1978 16.0645 15.0024 15.8691L11.5356 12.4023L15.0146 8.91113C15.2222 8.70361 15.3076 8.49609 15.3076 8.22754C15.3076 7.69043 14.8804 7.25098 14.3311 7.25098C14.0747 7.25098 13.8672 7.34863 13.6597 7.55615L10.144 11.0352L6.66504 7.56836C6.48193 7.37305 6.26221 7.27539 5.98145 7.27539C5.44434 7.27539 5.00488 7.70264 5.00488 8.23975C5.00488 8.5083 5.11475 8.74023 5.29785 8.92334L8.76465 12.4023L5.29785 15.8813C5.11475 16.0645 5.00488 16.2964 5.00488 16.5649C5.00488 17.1021 5.44434 17.5537 5.98145 17.5537Z" fill="#5ac8f5"/>
 </g>
</svg>
