<?xml version="1.0" encoding="UTF-8"?>
<!--Generator: Apple Native CoreSVG 175.5-->
<!DOCTYPE svg
PUBLIC "-//W3C//DTD SVG 1.1//EN"
       "http://www.w3.org/Graphics/SVG/1.1/DTD/svg11.dtd">
<svg version="1.1" xmlns="http://www.w3.org/2000/svg" xmlns:xlink="http://www.w3.org/1999/xlink" width="32.7515" height="27.9419">
 <g>
  <rect height="27.9419" opacity="0" width="32.7515" x="0" y="0"/>
  <path d="M3.83301 12.207L12.5366 12.207C15.0879 12.207 16.3696 10.9375 16.3696 8.42285L16.3696 3.77197C16.3696 1.25732 15.0879 0 12.5366 0L3.83301 0C1.28174 0 0 1.25732 0 3.77197L0 8.42285C0 10.9375 1.28174 12.207 3.83301 12.207ZM3.85742 10.2417C2.63672 10.2417 1.96533 9.58252 1.96533 8.31299L1.96533 3.88184C1.96533 2.6123 2.63672 1.96533 3.85742 1.96533L12.5122 1.96533C13.7207 1.96533 14.4043 2.6123 14.4043 3.88184L14.4043 8.31299C14.4043 9.58252 13.7207 10.2417 12.5122 10.2417ZM20.2026 27.9297L28.9185 27.9297C31.4575 27.9297 32.7515 26.6602 32.7515 24.1455L32.7515 19.5068C32.7515 16.9922 31.4575 15.7227 28.9185 15.7227L20.2026 15.7227C17.6636 15.7227 16.3696 16.98 16.3696 19.5068L16.3696 24.1455C16.3696 26.6724 17.6636 27.9297 20.2026 27.9297ZM20.2393 25.9644C19.0186 25.9644 18.335 25.3174 18.335 24.0479L18.335 19.6045C18.335 18.3472 19.0186 17.688 20.2393 17.688L28.8818 17.688C30.0903 17.688 30.7861 18.3472 30.7861 19.6045L30.7861 24.0479C30.7861 25.3174 30.0903 25.9644 28.8818 25.9644Z" fill="#5ac8f5" fill-opacity="0.5"/>
  <path d="M26.1108 13.4399C26.4893 13.9648 26.9165 13.9526 27.2949 13.4399L29.5654 10.3516C30.0659 9.68018 29.8706 8.99658 28.9673 8.99658L27.356 8.99658L27.356 8.74023C27.356 5.23682 25 2.90527 21.5088 2.90527L19.6777 2.90527C19.2627 2.90527 18.9209 3.25928 18.9209 3.67432C18.9209 4.08936 19.2627 4.43115 19.6777 4.43115L21.4966 4.43115C24.0967 4.43115 25.9399 6.10352 25.9399 8.75244L25.9399 8.99658L24.4507 8.99658C23.5718 8.99658 23.3643 9.68018 23.8647 10.3516ZM11.2305 25.0244L13.0615 25.0244C13.4766 25.0244 13.8306 24.6704 13.8306 24.2554C13.8306 23.8403 13.4766 23.4985 13.0615 23.4985L11.2427 23.4985C8.64258 23.4985 6.79932 21.814 6.79932 19.165L6.79932 18.9331L8.30078 18.9331C9.16748 18.9331 9.375 18.2495 8.88672 17.5659L6.62842 14.4897C6.25 13.9648 5.82275 13.9771 5.44434 14.4897L3.18604 17.5659C2.67334 18.2495 2.88086 18.9331 3.77197 18.9331L5.3833 18.9331L5.3833 19.1772C5.3833 22.6929 7.73926 25.0244 11.2305 25.0244Z" fill="#5ac8f5"/>
 </g>
</svg>
