<?xml version="1.0" encoding="UTF-8"?>
<!--Generator: Apple Native CoreSVG 175.5-->
<!DOCTYPE svg
PUBLIC "-//W3C//DTD SVG 1.1//EN"
       "http://www.w3.org/Graphics/SVG/1.1/DTD/svg11.dtd">
<svg version="1.1" xmlns="http://www.w3.org/2000/svg" xmlns:xlink="http://www.w3.org/1999/xlink" width="24.9023" height="24.9146">
 <g>
  <rect height="24.9146" opacity="0" width="24.9023" x="0" y="0"/>
  <path d="M12.4512 24.9023C19.2627 24.9023 24.9023 19.2505 24.9023 12.4512C24.9023 5.63965 19.2505 0 12.439 0C5.63965 0 0 5.63965 0 12.4512C0 19.2505 5.65186 24.9023 12.4512 24.9023ZM12.4512 22.8271C6.68945 22.8271 2.0874 18.2129 2.0874 12.4512C2.0874 6.68945 6.67725 2.0752 12.439 2.0752C18.2007 2.0752 22.8271 6.68945 22.8271 12.4512C22.8271 18.2129 18.2129 22.8271 12.4512 22.8271ZM8.61816 14.0015L15.8813 14.0015C17.7856 14.0015 19.2261 12.5488 19.2261 10.7422C19.2261 8.87451 17.7002 7.51953 15.7227 7.51953C14.9902 6.0791 13.6353 5.12695 11.9507 5.12695C9.74121 5.12695 7.93457 6.86035 7.72705 9.04541C6.67725 9.35059 5.85938 10.2661 5.85938 11.499C5.85938 12.8784 6.87256 14.0015 8.61816 14.0015ZM8.19092 16.5649L16.7114 16.5649C17.0166 16.5649 17.2729 16.3208 17.2729 16.0034C17.2729 15.6982 17.0166 15.4541 16.7114 15.4541L8.19092 15.4541C7.88574 15.4541 7.6416 15.6982 7.6416 16.0034C7.6416 16.3208 7.88574 16.5649 8.19092 16.5649ZM8.19092 19.043L16.7114 19.043C17.0166 19.043 17.2729 18.7988 17.2729 18.4937C17.2729 18.1885 17.0166 17.9443 16.7114 17.9443L8.19092 17.9443C7.88574 17.9443 7.6416 18.1885 7.6416 18.4937C7.6416 18.7988 7.88574 19.043 8.19092 19.043Z" fill="#5ac8f5"/>
 </g>
</svg>
