<?xml version="1.0" encoding="UTF-8"?>
<!--Generator: Apple Native CoreSVG 175.5-->
<!DOCTYPE svg
PUBLIC "-//W3C//DTD SVG 1.1//EN"
       "http://www.w3.org/Graphics/SVG/1.1/DTD/svg11.dtd">
<svg version="1.1" xmlns="http://www.w3.org/2000/svg" xmlns:xlink="http://www.w3.org/1999/xlink" width="29.1382" height="27.7039">
 <g>
  <rect height="27.7039" opacity="0" width="29.1382" x="0" y="0"/>
  <path d="M11.5356 16.5192C11.5356 17.2272 11.9995 17.6666 12.7441 17.6666L16.4062 17.6666C17.1631 17.6666 17.6147 17.2272 17.6147 16.5192L17.6147 12.5519L15.271 10.5865C14.8438 10.2325 14.3066 10.2325 13.8916 10.5865L11.5356 12.5519ZM13.2324 15.7135L13.2324 13.3453L14.2822 12.4542C14.4653 12.3077 14.6973 12.3077 14.8682 12.4542L15.918 13.3453L15.918 15.7135C15.918 15.8966 15.8325 15.9943 15.6372 15.9943L13.5132 15.9943C13.3301 15.9943 13.2324 15.8966 13.2324 15.7135Z" fill="#5ac8f5" fill-opacity="0.25"/>
  <path d="M7.53174 20.0958C7.53174 21.0724 8.1543 21.6583 9.22852 21.6583L19.9341 21.6583C20.9961 21.6583 21.6309 21.0724 21.6309 20.0958L21.6309 10.5988L15.3687 5.34973C14.8804 4.95911 14.27 4.95911 13.7939 5.34973L7.53174 10.5988ZM9.26514 19.3512L9.26514 11.441L14.1846 7.30286C14.4043 7.11975 14.7461 7.10754 14.9658 7.30286L19.8975 11.441L19.8975 19.3512C19.8975 19.7296 19.6899 19.9371 19.3115 19.9371L9.83887 19.9371C9.47266 19.9371 9.26514 19.7296 9.26514 19.3512Z" fill="#5ac8f5" fill-opacity="0.5"/>
  <path d="M3.51562 22.9401C3.51562 24.649 4.52881 25.6378 6.27441 25.6378L22.8882 25.6378C24.6216 25.6378 25.6348 24.649 25.6348 22.9401L25.6348 9.30481L23.9014 9.18274L23.9014 22.6837C23.9014 23.4772 23.4741 23.9166 22.7051 23.9166L6.45752 23.9166C5.67627 23.9166 5.24902 23.4772 5.24902 22.6837L5.24902 9.19495L3.51562 9.30481ZM0 12.0148C0 12.5031 0.354004 12.8326 0.891113 12.8326C1.11084 12.8326 1.28174 12.7594 1.44043 12.6373L14.1479 1.98059C14.4043 1.74866 14.7339 1.73645 15.0024 1.98059L27.71 12.6373C27.8564 12.7594 28.0273 12.8326 28.2593 12.8326C28.7842 12.8326 29.1382 12.5031 29.1382 12.0148C29.1382 11.6974 29.0161 11.4777 28.7476 11.2579L16.04 0.576782C15.1367-0.192261 14.0259-0.192261 13.1104 0.576782L0.390625 11.2579C0.12207 11.4777 0 11.6974 0 12.0148ZM22.5708 6.54602L25.6348 9.13391L25.6348 3.49426C25.6348 2.95715 25.293 2.61536 24.7559 2.61536L23.4497 2.61536C22.9248 2.61536 22.5708 2.95715 22.5708 3.49426Z" fill="#5ac8f5"/>
 </g>
</svg>
