<?xml version="1.0" encoding="UTF-8"?>
<!--Generator: Apple Native CoreSVG 175.5-->
<!DOCTYPE svg
PUBLIC "-//W3C//DTD SVG 1.1//EN"
       "http://www.w3.org/Graphics/SVG/1.1/DTD/svg11.dtd">
<svg version="1.1" xmlns="http://www.w3.org/2000/svg" xmlns:xlink="http://www.w3.org/1999/xlink" width="15.4663" height="23.2056">
 <g>
  <rect height="23.2056" opacity="0" width="15.4663" x="0" y="0"/>
  <path d="M1.50146 23.2056C2.41699 23.2056 3.01514 22.583 3.01514 21.6553L3.01514 14.7583L7.99561 14.7583C12.4023 14.7583 15.4663 11.731 15.4663 7.40967C15.4663 3.06396 12.4146 0.0732422 8.00781 0.0732422L1.50146 0.0732422C0.598145 0.0732422 0 0.683594 0 1.62354L0 21.6553C0 22.5952 0.598145 23.2056 1.50146 23.2056ZM3.01514 11.9751L3.01514 2.83203L7.44629 2.83203C10.5835 2.83203 12.3901 4.49219 12.3901 7.40967C12.3901 10.3027 10.5835 11.9751 7.44629 11.9751Z" fill="#5ac8f5"/>
 </g>
</svg>
