<?xml version="1.0" encoding="UTF-8"?>
<!--Generator: Apple Native CoreSVG 175.5-->
<!DOCTYPE svg
PUBLIC "-//W3C//DTD SVG 1.1//EN"
       "http://www.w3.org/Graphics/SVG/1.1/DTD/svg11.dtd">
<svg version="1.1" xmlns="http://www.w3.org/2000/svg" xmlns:xlink="http://www.w3.org/1999/xlink" width="32.1533" height="21.7536">
 <g>
  <rect height="21.7536" opacity="0" width="32.1533" x="0" y="0"/>
  <path d="M11.7554 10.8707C11.731 13.2267 11.9263 15.485 12.5732 17.7921C13.3179 20.3067 14.7339 21.1979 17.7124 21.1979L18.396 21.1979C25.6714 21.1979 32.1533 16.4493 32.1533 10.8707C32.1533 5.29209 25.6714 0.519144 18.396 0.519144L17.7124 0.519144C14.7461 0.519144 13.3301 1.42246 12.5732 3.93711C11.9263 6.25645 11.731 8.51475 11.7554 10.8707ZM13.7207 10.8707C13.7085 8.2462 13.9282 6.35411 14.4653 4.48643C14.9048 3.02159 15.7959 2.47227 17.7124 2.47227L18.396 2.47227C24.5361 2.47227 30.188 6.41514 30.188 10.8707C30.188 15.3263 24.5361 19.2447 18.396 19.2447L17.7124 19.2447C15.7715 19.2447 14.8926 18.6954 14.4653 17.255C13.9282 15.3873 13.7085 13.4952 13.7207 10.8707ZM0.976562 5.24327C0.45166 5.24327 0 5.69493 0 6.23204C0 6.76914 0.463867 7.2086 0.976562 7.2086L10.2661 7.2208C10.3516 6.57383 10.437 5.90245 10.5713 5.24327ZM0.976562 9.88194C0.45166 9.88194 0 10.358 0 10.8829C0 11.42 0.45166 11.8473 0.976562 11.8473L10.1074 11.8473C10.0952 11.4933 10.0952 10.2481 10.1074 9.88194ZM0.976562 14.5328C0.45166 14.5328 0 14.9967 0 15.5216C0 16.0587 0.45166 16.4981 0.976562 16.4981L10.5713 16.5104C10.437 15.839 10.3516 15.1798 10.2661 14.545ZM4.22363 20.026C3.19824 21.0147 4.52881 22.3697 5.57861 21.4176C7.9834 19.1593 8.47168 14.9601 6.87256 10.9317L6.64062 10.3458C5.29785 6.94004 5.52979 3.49766 7.2876 1.71543C8.31299 0.726664 6.99463-0.628316 5.92041 0.323832C3.51562 2.59434 3.03955 6.76914 4.63867 10.7975L4.88281 11.3834C6.23779 14.8136 5.99365 18.2315 4.22363 20.026Z" fill="#5ac8f5"/>
 </g>
</svg>
