<?xml version="1.0" encoding="UTF-8"?>
<!--Generator: Apple Native CoreSVG 175.5-->
<!DOCTYPE svg
PUBLIC "-//W3C//DTD SVG 1.1//EN"
       "http://www.w3.org/Graphics/SVG/1.1/DTD/svg11.dtd">
<svg version="1.1" xmlns="http://www.w3.org/2000/svg" xmlns:xlink="http://www.w3.org/1999/xlink" width="24.9023" height="24.9146">
 <g>
  <rect height="24.9146" opacity="0" width="24.9023" x="0" y="0"/>
  <path d="M12.4512 24.9146C19.2627 24.9146 24.9023 19.2749 24.9023 12.4634C24.9023 5.66406 19.2505 0.012207 12.439 0.012207C5.63965 0.012207 0 5.66406 0 12.4634C0 19.2749 5.65186 24.9146 12.4512 24.9146ZM7.05566 17.5659C5.74951 17.5659 5.09033 16.9067 5.09033 15.6372L5.09033 12.1826C5.09033 11.5967 5.18799 11.3525 5.45654 10.9863L7.66602 7.99561C8.38623 6.99463 8.82568 6.7627 9.92432 6.7627L15.0024 6.7627C16.1011 6.7627 16.5283 6.99463 17.2607 7.99561L19.4702 10.9863C19.7388 11.3525 19.8364 11.5967 19.8364 12.1826L19.8364 15.6372C19.8364 16.9067 19.1895 17.5659 17.8711 17.5659ZM6.86035 11.7676L10.4736 11.7676C10.8032 11.7676 10.9863 12.0239 10.9863 12.2803L10.9863 12.439C10.9863 13.3057 11.5479 13.855 12.4634 13.855C13.3789 13.855 13.9771 13.3057 13.9771 12.439L13.9771 12.2803C13.9771 12.0239 14.1235 11.7676 14.4531 11.7676L18.0664 11.7676C18.2617 11.7676 18.3105 11.5845 18.2251 11.4746L16.04 8.5083C15.7959 8.1665 15.5273 8.02002 15.0879 8.02002L9.85107 8.02002C9.41162 8.02002 9.14307 8.1543 8.88672 8.5083L6.71387 11.4746C6.62842 11.6089 6.66504 11.7676 6.86035 11.7676Z" fill="#5ac8f5"/>
 </g>
</svg>
