<?xml version="1.0" encoding="UTF-8"?>
<!--Generator: Apple Native CoreSVG 175.5-->
<!DOCTYPE svg
PUBLIC "-//W3C//DTD SVG 1.1//EN"
       "http://www.w3.org/Graphics/SVG/1.1/DTD/svg11.dtd">
<svg version="1.1" xmlns="http://www.w3.org/2000/svg" xmlns:xlink="http://www.w3.org/1999/xlink" width="18.5059" height="25.3052">
 <g>
  <rect height="25.3052" opacity="0" width="18.5059" x="0" y="0"/>
  <path d="M18.5059 11.5112C18.5059 11.2183 18.4082 10.9619 18.1763 10.7178L10.0708 2.6001C9.83887 2.35596 9.55811 2.23389 9.25293 2.23389C8.94775 2.23389 8.66699 2.35596 8.43506 2.6001L0.341797 10.7178C0.109863 10.9619 0 11.2183 0 11.5112C0 12.1094 0.439453 12.5732 1.0498 12.5732C1.34277 12.5732 1.63574 12.4756 1.81885 12.2803L4.60205 9.5459L8.98438 4.74854L8.28857 4.50439L8.1665 8.14209L8.1665 24.231C8.1665 24.8657 8.61816 25.3052 9.25293 25.3052C9.8877 25.3052 10.3394 24.8657 10.3394 24.231L10.3394 8.14209L10.2173 4.50439L9.53369 4.74854L13.9038 9.5459L16.687 12.2803C16.8823 12.4756 17.1631 12.5732 17.4561 12.5732C18.0664 12.5732 18.5059 12.1094 18.5059 11.5112ZM18.5059 1.14746C18.5059 0.512695 18.0786 0.0488281 17.4561 0.0488281L1.07422 0.0488281C0.439453 0.0488281 0 0.512695 0 1.14746C0 1.78223 0.439453 2.23389 1.07422 2.23389L17.4561 2.23389C18.0786 2.23389 18.5059 1.78223 18.5059 1.14746Z" fill="#5ac8f5"/>
 </g>
</svg>
