<?xml version="1.0" encoding="UTF-8"?>
<!--Generator: Apple Native CoreSVG 175.5-->
<!DOCTYPE svg
PUBLIC "-//W3C//DTD SVG 1.1//EN"
       "http://www.w3.org/Graphics/SVG/1.1/DTD/svg11.dtd">
<svg version="1.1" xmlns="http://www.w3.org/2000/svg" xmlns:xlink="http://www.w3.org/1999/xlink" width="30.5176" height="25.2319">
 <g>
  <rect height="25.2319" opacity="0" width="30.5176" x="0" y="0"/>
  <path d="M3.13721 21.0938L27.3804 21.0938C29.4678 21.0938 30.5176 20.105 30.5176 17.9565L30.5176 3.96729C30.5176 1.83105 29.4678 0.842285 27.3804 0.842285L3.13721 0.842285C1.0498 0.842285 0 1.83105 0 3.96729L0 17.9565C0 20.105 1.0498 21.0938 3.13721 21.0938ZM9.11865 25.2319L21.3989 25.2319C21.936 25.2319 22.3877 24.7925 22.3877 24.2432C22.3877 23.6938 21.936 23.2544 21.3989 23.2544L9.11865 23.2544C8.58154 23.2544 8.12988 23.6938 8.12988 24.2432C8.12988 24.7925 8.58154 25.2319 9.11865 25.2319ZM19.1284 8.59375L16.1255 9.32617C15.8325 9.39941 15.7227 9.50928 15.7227 9.98535L15.7227 14.3799C15.7227 16.2354 14.4775 17.5415 12.6465 17.5415C11.3647 17.5415 10.5469 16.7603 10.5469 15.6616C10.5469 14.4043 11.5234 13.7207 12.6831 13.4155L13.8672 13.1104C14.502 12.9395 14.5508 12.8174 14.5508 12.2437L14.5508 6.49414C14.5508 5.7251 14.6973 5.60303 15.3198 5.44434L19.0796 4.5166C19.7632 4.3335 19.9219 4.55322 19.9219 5.0415L19.9219 7.56836C19.9219 8.31299 19.751 8.44727 19.1284 8.59375Z" fill="#5ac8f5"/>
 </g>
</svg>
