<?xml version="1.0" encoding="UTF-8"?>
<!--Generator: Apple Native CoreSVG 175.5-->
<!DOCTYPE svg
PUBLIC "-//W3C//DTD SVG 1.1//EN"
       "http://www.w3.org/Graphics/SVG/1.1/DTD/svg11.dtd">
<svg version="1.1" xmlns="http://www.w3.org/2000/svg" xmlns:xlink="http://www.w3.org/1999/xlink" width="34.1738" height="28.894">
 <g>
  <rect height="28.894" opacity="0" width="34.1738" x="0" y="0"/>
  <path d="M17.1041 28.8818C18.5933 28.8818 19.8507 27.6367 19.8507 26.123C19.8507 24.6094 18.6055 23.3643 17.1041 23.3643C15.5904 23.3643 14.3453 24.6094 14.3453 26.123C14.3453 27.6367 15.5782 28.8818 17.1041 28.8818ZM17.1041 27.2461C16.4693 27.2461 15.9688 26.7456 15.9688 26.123C15.9688 25.5005 16.4693 24.9756 17.1041 24.9756C17.7144 24.9756 18.2515 25.5005 18.2515 26.123C18.2515 26.7456 17.7144 27.2461 17.1041 27.2461ZM15.2974 24.9756L17.0308 24.0479L6.0201 5.12695C5.75154 4.66309 5.19002 4.49219 4.65291 4.76074C4.15242 5.01709 4.04256 5.65186 4.31111 6.11572ZM17.0919 21.7041C19.399 21.7041 22.0601 22.4121 24.0743 23.4497C24.648 23.7671 25.2828 23.6328 25.6734 23.1323L33.6568 12.9761C34.4625 11.9507 34.316 10.8276 33.2906 10.022C29.9703 7.4585 23.6471 5.50537 17.0919 5.50537C10.5367 5.50537 4.20125 7.4585 0.880939 10.022C-0.144452 10.8276-0.290936 11.9507 0.526935 12.9761L8.49813 23.1323C8.90096 23.6328 9.52352 23.7671 10.0972 23.4497C12.1114 22.4121 14.7847 21.7041 17.0919 21.7041ZM17.0919 19.6655C14.9312 19.6655 12.441 20.2271 10.0362 21.228C9.77986 21.3257 9.69442 21.3257 9.4869 21.0571L2.52889 12.207C2.32137 11.9385 2.35799 11.731 2.65096 11.5356C6.77693 8.91113 12.0748 7.49512 17.0919 7.49512C22.0968 7.49512 27.4068 8.91113 31.5328 11.5356C31.8136 11.731 31.8624 11.9385 31.6427 12.207L24.6969 21.0571C24.4893 21.3257 24.4039 21.3257 24.1475 21.228C21.7428 20.2271 19.2403 19.6655 17.0919 19.6655ZM1.77205 0.976562C1.77205 1.51367 2.22371 1.96533 2.76082 1.96533L9.43807 1.96533C9.97518 1.96533 10.4146 1.51367 10.4146 0.976562C10.4146 0.439453 9.97518 0 9.43807 0L2.76082 0C2.22371 0 1.77205 0.439453 1.77205 0.976562ZM12.7584 0.976562C12.7584 1.51367 13.21 1.96533 13.7471 1.96533L20.4244 1.96533C20.9615 1.96533 21.4132 1.51367 21.4132 0.976562C21.4132 0.439453 20.9615 0 20.4244 0L13.7471 0C13.21 0 12.7584 0.439453 12.7584 0.976562ZM23.7569 0.976562C23.7569 1.51367 24.1964 1.96533 24.7335 1.96533L31.4107 1.96533C31.9478 1.96533 32.3995 1.51367 32.3995 0.976562C32.3995 0.439453 31.9478 0 31.4107 0L24.7335 0C24.1964 0 23.7569 0.439453 23.7569 0.976562Z" fill="#5ac8f5"/>
 </g>
</svg>
