<?xml version="1.0" encoding="UTF-8"?>
<!--Generator: Apple Native CoreSVG 175.5-->
<!DOCTYPE svg
PUBLIC "-//W3C//DTD SVG 1.1//EN"
       "http://www.w3.org/Graphics/SVG/1.1/DTD/svg11.dtd">
<svg version="1.1" xmlns="http://www.w3.org/2000/svg" xmlns:xlink="http://www.w3.org/1999/xlink" width="26.3746" height="29.4556">
 <g>
  <rect height="29.4556" opacity="0" width="26.3746" x="0" y="0"/>
  <path d="M13.1852 29.4556C16.7619 29.4556 19.0812 23.6328 19.0812 14.7217C19.0812 5.84717 16.7619 0.0244141 13.1852 0.0244141C9.60855 0.0244141 7.28921 5.84717 7.28921 14.7217C7.28921 23.6328 9.60855 29.4556 13.1852 29.4556ZM13.1852 27.6611C10.8048 27.6611 9.23013 22.5586 9.23013 14.7217C9.23013 6.89697 10.8048 1.81885 13.1852 1.81885C15.5778 1.81885 17.1525 6.89697 17.1525 14.7217C17.1525 22.5586 15.5778 27.6611 13.1852 27.6611ZM0.428862 22.2168C2.2233 25.3052 8.41226 24.4141 16.1393 19.9585C23.8542 15.5151 27.736 10.6079 25.9416 7.50732C24.1471 4.41895 17.9582 5.31006 10.2555 9.75342C2.52847 14.2456-1.32895 19.1284 0.428862 22.2168ZM2.00357 21.3135C0.80728 19.2627 4.42056 15.3687 11.2321 11.438C17.9826 7.53174 23.1828 6.34766 24.3668 8.42285C25.5753 10.4614 21.9499 14.3677 15.1872 18.2617C8.38785 22.1924 3.19986 23.3765 2.00357 21.3135ZM25.9416 22.2168C27.7116 19.1284 23.8419 14.2456 16.1149 9.75342C8.41226 5.31006 2.2355 4.41895 0.428862 7.50732C-1.35337 10.6079 2.51626 15.5151 10.2311 19.9585C17.9704 24.4141 24.1593 25.3052 25.9416 22.2168ZM24.3668 21.3135C23.1828 23.3765 17.9948 22.1924 11.1955 18.2617C4.42056 14.3677 0.795072 10.4614 2.00357 8.42285C3.18765 6.34766 8.40005 7.53174 15.1505 11.438C21.9499 15.3687 25.5631 19.2627 24.3668 21.3135ZM13.1974 17.334C14.6256 17.334 15.7853 16.1743 15.7853 14.7339C15.7853 13.3057 14.6256 12.146 13.1974 12.146C11.757 12.146 10.5973 13.3057 10.5973 14.7339C10.5973 16.1743 11.757 17.334 13.1974 17.334Z" fill="#5ac8f5"/>
 </g>
</svg>
