<?xml version="1.0" encoding="UTF-8"?>
<!--Generator: Apple Native CoreSVG 175.5-->
<!DOCTYPE svg
PUBLIC "-//W3C//DTD SVG 1.1//EN"
       "http://www.w3.org/Graphics/SVG/1.1/DTD/svg11.dtd">
<svg version="1.1" xmlns="http://www.w3.org/2000/svg" xmlns:xlink="http://www.w3.org/1999/xlink" width="14.2212" height="25.5737">
 <g>
  <rect height="25.5737" opacity="0" width="14.2212" x="0" y="0"/>
  <path d="M0.720215 25.5737L13.4888 25.5737C13.8916 25.5737 14.2212 25.2686 14.2212 24.8535C14.2212 24.4385 13.8916 24.1211 13.4888 24.1211L0.720215 24.1211C0.32959 24.1211 0 24.4385 0 24.8535C0 25.2686 0.32959 25.5737 0.720215 25.5737Z" fill="#5ac8f5"/>
  <path d="M7.10449 21.8262C11.499 21.8262 14.2212 19.1895 14.2212 15.3564L14.2212 4.87061C14.2212 4.18701 13.7695 3.73535 13.0737 3.73535C12.3901 3.73535 11.9629 4.18701 11.9629 4.87061L11.9629 15.1733C11.9629 17.8955 10.1685 19.751 7.10449 19.751C4.05273 19.751 2.2583 17.8955 2.2583 15.1733L2.2583 4.87061C2.2583 4.18701 1.80664 3.73535 1.11084 3.73535C0.427246 3.73535 0 4.18701 0 4.87061L0 15.3564C0 19.1895 2.70996 21.8262 7.10449 21.8262Z" fill="#5ac8f5" fill-opacity="0.5"/>
 </g>
</svg>
