<?xml version="1.0" encoding="UTF-8"?>
<!--Generator: Apple Native CoreSVG 175.5-->
<!DOCTYPE svg
PUBLIC "-//W3C//DTD SVG 1.1//EN"
       "http://www.w3.org/Graphics/SVG/1.1/DTD/svg11.dtd">
<svg version="1.1" xmlns="http://www.w3.org/2000/svg" xmlns:xlink="http://www.w3.org/1999/xlink" width="23.938" height="23.4985">
 <g>
  <rect height="23.4985" opacity="0" width="23.938" x="0" y="0"/>
  <path d="M2.11182 6.92139L4.80957 6.92139C6.14014 6.92139 6.92139 6.14014 6.92139 4.76074L6.92139 2.16064C6.92139 0.78125 6.14014 0 4.80957 0L2.11182 0C0.78125 0 0 0.78125 0 2.16064L0 4.76074C0 6.14014 0.78125 6.92139 2.11182 6.92139ZM2.34375 5.24902C1.9043 5.24902 1.68457 5.01709 1.68457 4.55322L1.68457 2.36816C1.68457 1.9165 1.9043 1.68457 2.34375 1.68457L4.57764 1.68457C5.00488 1.68457 5.24902 1.9165 5.24902 2.36816L5.24902 4.55322C5.24902 5.01709 5.00488 5.24902 4.57764 5.24902ZM10.6079 6.92139L13.3179 6.92139C14.6484 6.92139 15.4175 6.14014 15.4175 4.76074L15.4175 2.16064C15.4175 0.78125 14.6484 0 13.3179 0L10.6079 0C9.27734 0 8.5083 0.78125 8.5083 2.16064L8.5083 4.76074C8.5083 6.14014 9.27734 6.92139 10.6079 6.92139ZM10.8398 5.24902C10.4004 5.24902 10.1807 5.01709 10.1807 4.55322L10.1807 2.36816C10.1807 1.9165 10.4004 1.68457 10.8398 1.68457L13.0859 1.68457C13.5132 1.68457 13.7451 1.9165 13.7451 2.36816L13.7451 4.55322C13.7451 5.01709 13.5132 5.24902 13.0859 5.24902ZM19.1284 6.92139L21.8262 6.92139C23.1567 6.92139 23.938 6.14014 23.938 4.76074L23.938 2.16064C23.938 0.78125 23.1567 0 21.8262 0L19.1284 0C17.7979 0 17.0166 0.78125 17.0166 2.16064L17.0166 4.76074C17.0166 6.14014 17.7979 6.92139 19.1284 6.92139ZM19.3604 5.24902C18.9209 5.24902 18.689 5.01709 18.689 4.55322L18.689 2.36816C18.689 1.9165 18.9209 1.68457 19.3604 1.68457L21.5942 1.68457C22.0215 1.68457 22.2534 1.9165 22.2534 2.36816L22.2534 4.55322C22.2534 5.01709 22.0215 5.24902 21.5942 5.24902ZM2.11182 15.1855L4.80957 15.1855C6.14014 15.1855 6.92139 14.4165 6.92139 13.0371L6.92139 10.4248C6.92139 9.04541 6.14014 8.26416 4.80957 8.26416L2.11182 8.26416C0.78125 8.26416 0 9.04541 0 10.4248L0 13.0371C0 14.4165 0.78125 15.1855 2.11182 15.1855ZM2.34375 13.5132C1.9043 13.5132 1.68457 13.2812 1.68457 12.8174L1.68457 10.6201C1.68457 10.1685 1.9043 9.93652 2.34375 9.93652L4.57764 9.93652C5.00488 9.93652 5.24902 10.1685 5.24902 10.6201L5.24902 12.8174C5.24902 13.2812 5.00488 13.5132 4.57764 13.5132ZM10.6079 15.1855L13.3179 15.1855C14.6484 15.1855 15.4175 14.4165 15.4175 13.0371L15.4175 10.4248C15.4175 9.04541 14.6484 8.26416 13.3179 8.26416L10.6079 8.26416C9.27734 8.26416 8.5083 9.04541 8.5083 10.4248L8.5083 13.0371C8.5083 14.4165 9.27734 15.1855 10.6079 15.1855ZM10.8398 13.5132C10.4004 13.5132 10.1807 13.2812 10.1807 12.8174L10.1807 10.6201C10.1807 10.1685 10.4004 9.93652 10.8398 9.93652L13.0859 9.93652C13.5132 9.93652 13.7451 10.1685 13.7451 10.6201L13.7451 12.8174C13.7451 13.2812 13.5132 13.5132 13.0859 13.5132ZM19.1284 15.1855L21.8262 15.1855C23.1567 15.1855 23.938 14.4165 23.938 13.0371L23.938 10.4248C23.938 9.04541 23.1567 8.26416 21.8262 8.26416L19.1284 8.26416C17.7979 8.26416 17.0166 9.04541 17.0166 10.4248L17.0166 13.0371C17.0166 14.4165 17.7979 15.1855 19.1284 15.1855ZM19.3604 13.5132C18.9209 13.5132 18.689 13.2812 18.689 12.8174L18.689 10.6201C18.689 10.1685 18.9209 9.93652 19.3604 9.93652L21.5942 9.93652C22.0215 9.93652 22.2534 10.1685 22.2534 10.6201L22.2534 12.8174C22.2534 13.2812 22.0215 13.5132 21.5942 13.5132ZM2.11182 23.4497L4.80957 23.4497C6.14014 23.4497 6.92139 22.6685 6.92139 21.2891L6.92139 18.689C6.92139 17.3096 6.14014 16.5283 4.80957 16.5283L2.11182 16.5283C0.78125 16.5283 0 17.3096 0 18.689L0 21.2891C0 22.6685 0.78125 23.4497 2.11182 23.4497ZM2.34375 21.7651C1.9043 21.7651 1.68457 21.5332 1.68457 21.0815L1.68457 18.8965C1.68457 18.4326 1.9043 18.2007 2.34375 18.2007L4.57764 18.2007C5.00488 18.2007 5.24902 18.4326 5.24902 18.8965L5.24902 21.0815C5.24902 21.5332 5.00488 21.7651 4.57764 21.7651ZM19.1284 23.4497L21.8262 23.4497C23.1567 23.4497 23.938 22.6685 23.938 21.2891L23.938 18.689C23.938 17.3096 23.1567 16.5283 21.8262 16.5283L19.1284 16.5283C17.7979 16.5283 17.0166 17.3096 17.0166 18.689L17.0166 21.2891C17.0166 22.6685 17.7979 23.4497 19.1284 23.4497ZM19.3604 21.7651C18.9209 21.7651 18.689 21.5332 18.689 21.0815L18.689 18.8965C18.689 18.4326 18.9209 18.2007 19.3604 18.2007L21.5942 18.2007C22.0215 18.2007 22.2534 18.4326 22.2534 18.8965L22.2534 21.0815C22.2534 21.5332 22.0215 21.7651 21.5942 21.7651Z" fill="#5ac8f5" fill-opacity="0.5"/>
  <path d="M10.6079 23.4497L13.3057 23.4497C14.6362 23.4497 15.4175 22.6685 15.4175 21.2891L15.4175 18.689C15.4175 17.3096 14.6362 16.5283 13.3057 16.5283L10.6079 16.5283C9.27734 16.5283 8.49609 17.3096 8.49609 18.689L8.49609 21.2891C8.49609 22.6685 9.27734 23.4497 10.6079 23.4497Z" fill="#5ac8f5"/>
 </g>
</svg>
