<?xml version="1.0" encoding="UTF-8"?>
<!--Generator: Apple Native CoreSVG 175.5-->
<!DOCTYPE svg
PUBLIC "-//W3C//DTD SVG 1.1//EN"
       "http://www.w3.org/Graphics/SVG/1.1/DTD/svg11.dtd">
<svg version="1.1" xmlns="http://www.w3.org/2000/svg" xmlns:xlink="http://www.w3.org/1999/xlink" width="23.2788" height="23.0835">
 <g>
  <rect height="23.0835" opacity="0" width="23.2788" x="0" y="0"/>
  <path d="M0 13.7085C0 16.8701 2.11182 18.9819 5.27344 18.9819C6.88477 18.9819 8.49609 18.335 9.30176 17.3706L9.10645 16.9189C8.76465 18.689 7.58057 20.0073 6.93359 20.752C6.17676 21.6919 6.54297 22.937 7.86133 22.937L15.4175 22.937C16.7358 22.937 17.1021 21.6919 16.333 20.752C15.6982 20.0073 14.5142 18.689 14.1724 16.9189L13.9771 17.3706C14.7827 18.335 16.394 18.9819 18.0054 18.9819C21.167 18.9819 23.2788 16.8701 23.2788 13.7085C23.2788 10.791 20.9106 8.42285 18.0176 8.42285C16.6748 8.42285 15.2954 8.94775 14.1968 9.83887L14.3311 9.96094C16.1865 8.74023 16.9067 6.87256 16.9067 5.28564C16.9067 2.36816 14.5386 0 11.6333 0C8.74023 0 6.37207 2.36816 6.37207 5.28564C6.37207 6.87256 7.09229 8.70361 8.92334 9.96094L9.0332 9.80225C7.9834 8.94775 6.604 8.42285 5.26123 8.42285C2.36816 8.42285 0 10.791 0 13.7085ZM1.7334 13.7451C1.7334 11.7798 3.32031 10.2051 5.26123 10.2051C6.7627 10.2051 7.80029 10.6934 8.63037 11.0229C9.00879 11.145 9.31396 11.2427 9.61914 11.2427C10.0586 11.2427 10.4858 10.9497 10.4858 10.3882C10.4858 10.0708 10.3638 9.75342 10.144 9.49707C9.05762 8.22754 8.10547 7.22656 8.10547 5.32227C8.10547 3.35693 9.68018 1.78223 11.6333 1.78223C13.5986 1.78223 15.1733 3.35693 15.1733 5.32227C15.1733 7.22656 14.2212 8.22754 13.1348 9.49707C12.915 9.75342 12.793 10.0708 12.793 10.3882C12.793 10.9497 13.2202 11.2427 13.6597 11.2427C13.9648 11.2427 14.2578 11.145 14.6362 11.0229C15.4663 10.7056 16.5039 10.2051 18.0176 10.2051C19.9585 10.2051 21.5454 11.7798 21.5454 13.7451C21.5454 15.8569 20.1294 17.2485 18.0054 17.2485C16.5283 17.2485 15.1123 16.6626 14.3066 15.9302C13.5742 15.2832 12.5244 15.5884 12.5732 16.6992C12.6953 17.9565 13.5498 19.8364 14.4043 20.874C14.5874 21.0815 14.4775 21.2524 14.2944 21.2524L8.98438 21.2524C8.80127 21.2524 8.69141 21.0815 8.87451 20.874C9.729 19.8364 10.5713 17.9565 10.7056 16.6992C10.7544 15.5884 9.70459 15.2832 8.95996 15.9302C8.1543 16.6626 6.75049 17.2485 5.27344 17.2485C3.14941 17.2485 1.7334 15.8569 1.7334 13.7451Z" fill="#5ac8f5"/>
 </g>
</svg>
