<?xml version="1.0" encoding="UTF-8"?>
<!--Generator: Apple Native CoreSVG 175.5-->
<!DOCTYPE svg
PUBLIC "-//W3C//DTD SVG 1.1//EN"
       "http://www.w3.org/Graphics/SVG/1.1/DTD/svg11.dtd">
<svg version="1.1" xmlns="http://www.w3.org/2000/svg" xmlns:xlink="http://www.w3.org/1999/xlink" width="27.124" height="27.1606">
 <g>
  <rect height="27.1606" opacity="0" width="27.124" x="0" y="0"/>
  <path d="M13.5742 23.4619C19.0186 23.4619 23.4253 19.0674 23.4253 13.5986C23.4253 8.17871 18.9941 3.74756 13.5742 3.74756C8.09326 3.74756 3.71094 8.14209 3.71094 13.5986C3.71094 19.0918 8.08105 23.4619 13.5742 23.4619ZM13.5742 22.2656C8.74023 22.2656 4.90723 18.4326 4.90723 13.5986C4.90723 8.80127 8.76465 4.94385 13.5742 4.94385C18.3472 4.94385 22.229 8.82568 22.229 13.5986C22.229 18.4082 18.3716 22.2656 13.5742 22.2656ZM13.562 1.30615C13.916 1.30615 14.1846 1.02539 14.1846 0.683594C14.1846 0.341797 13.916 0.0366211 13.562 0.0366211C13.2324 0.0366211 12.9272 0.341797 12.9272 0.683594C12.9272 1.02539 13.2324 1.30615 13.562 1.30615ZM15.8203 1.50146C16.1499 1.50146 16.4551 1.2085 16.4551 0.878906C16.4551 0.537109 16.1499 0.231934 15.8203 0.231934C15.4541 0.231934 15.1855 0.537109 15.1855 0.878906C15.1855 1.2085 15.4541 1.50146 15.8203 1.50146ZM17.9932 2.0752C18.3105 2.0752 18.6157 1.79443 18.6157 1.46484C18.6157 1.12305 18.3105 0.817871 17.9932 0.817871C17.627 0.817871 17.3584 1.12305 17.3584 1.46484C17.3584 1.79443 17.627 2.0752 17.9932 2.0752ZM20.0317 3.03955C20.3613 3.03955 20.6543 2.75879 20.6543 2.41699C20.6543 2.0752 20.3613 1.78223 20.0317 1.78223C19.6777 1.78223 19.397 2.0752 19.397 2.41699C19.397 2.75879 19.6777 3.03955 20.0317 3.03955ZM21.875 4.3335C22.2168 4.3335 22.5098 4.04053 22.5098 3.72314C22.5098 3.36914 22.2168 3.07617 21.875 3.07617C21.5332 3.07617 21.2646 3.36914 21.2646 3.72314C21.2646 4.04053 21.5332 4.3335 21.875 4.3335ZM23.4741 5.92041C23.8159 5.92041 24.1089 5.63965 24.1089 5.31006C24.1089 4.95605 23.8159 4.66309 23.4741 4.66309C23.1201 4.66309 22.8394 4.95605 22.8394 5.31006C22.8394 5.63965 23.1201 5.92041 23.4741 5.92041ZM24.7681 7.77588C25.0977 7.77588 25.3906 7.49512 25.3906 7.15332C25.3906 6.82373 25.0977 6.51855 24.7681 6.51855C24.4141 6.51855 24.1455 6.82373 24.1455 7.15332C24.1455 7.49512 24.4141 7.77588 24.7681 7.77588ZM25.7202 9.82666C26.0498 9.82666 26.3428 9.5459 26.3428 9.2041C26.3428 8.8623 26.0498 8.55713 25.7202 8.55713C25.354 8.55713 25.0854 8.8623 25.0854 9.2041C25.0854 9.5459 25.354 9.82666 25.7202 9.82666ZM26.2939 11.9995C26.6235 11.9995 26.9287 11.7065 26.9287 11.3647C26.9287 11.0352 26.6235 10.73 26.2939 10.73C25.9277 10.73 25.6592 11.0352 25.6592 11.3647C25.6592 11.7065 25.9277 11.9995 26.2939 11.9995ZM26.4893 14.2334C26.8188 14.2334 27.124 13.9404 27.124 13.623C27.124 13.269 26.8188 12.9761 26.4893 12.9761C26.1353 12.9761 25.8545 13.269 25.8545 13.623C25.8545 13.9404 26.1353 14.2334 26.4893 14.2334ZM26.2939 16.4795C26.6235 16.4795 26.9287 16.1743 26.9287 15.8325C26.9287 15.5029 26.6235 15.21 26.2939 15.21C25.9277 15.21 25.6592 15.5029 25.6592 15.8325C25.6592 16.1743 25.9277 16.4795 26.2939 16.4795ZM25.7202 18.6401C26.0498 18.6401 26.3428 18.3472 26.3428 17.9932C26.3428 17.6758 26.0498 17.3706 25.7202 17.3706C25.354 17.3706 25.0854 17.6758 25.0854 17.9932C25.0854 18.3472 25.354 18.6401 25.7202 18.6401ZM24.7681 20.6909C25.0977 20.6909 25.3906 20.3857 25.3906 20.0439C25.3906 19.7021 25.0977 19.4214 24.7681 19.4214C24.4141 19.4214 24.1455 19.7021 24.1455 20.0439C24.1455 20.3857 24.4141 20.6909 24.7681 20.6909ZM23.4741 22.5342C23.8159 22.5342 24.1089 22.2412 24.1089 21.8994C24.1089 21.5576 23.8159 21.2769 23.4741 21.2769C23.1201 21.2769 22.8394 21.5576 22.8394 21.8994C22.8394 22.2412 23.1201 22.5342 23.4741 22.5342ZM21.875 24.1333C22.2168 24.1333 22.5098 23.8403 22.5098 23.4863C22.5098 23.1567 22.2168 22.876 21.875 22.876C21.5332 22.876 21.2646 23.1567 21.2646 23.4863C21.2646 23.8403 21.5332 24.1333 21.875 24.1333ZM20.0317 25.4272C20.3613 25.4272 20.6543 25.1221 20.6543 24.7803C20.6543 24.4507 20.3613 24.1577 20.0317 24.1577C19.6777 24.1577 19.397 24.4507 19.397 24.7803C19.397 25.1221 19.6777 25.4272 20.0317 25.4272ZM17.9932 26.3916C18.3105 26.3916 18.6157 26.0864 18.6157 25.7446C18.6157 25.4028 18.3105 25.1221 17.9932 25.1221C17.627 25.1221 17.3584 25.4028 17.3584 25.7446C17.3584 26.0864 17.627 26.3916 17.9932 26.3916ZM15.8203 26.9653C16.1499 26.9653 16.4551 26.6602 16.4551 26.3184C16.4551 25.9888 16.1499 25.708 15.8203 25.708C15.4541 25.708 15.1855 25.9888 15.1855 26.3184C15.1855 26.6602 15.4541 26.9653 15.8203 26.9653ZM13.562 27.1606C13.916 27.1606 14.1846 26.8677 14.1846 26.5137C14.1846 26.1963 13.916 25.9033 13.562 25.9033C13.2324 25.9033 12.9272 26.1963 12.9272 26.5137C12.9272 26.8677 13.2324 27.1606 13.562 27.1606ZM11.3037 26.9653C11.6577 26.9653 11.9263 26.6602 11.9263 26.3184C11.9263 25.9888 11.6577 25.708 11.3037 25.708C10.9741 25.708 10.6689 25.9888 10.6689 26.3184C10.6689 26.6602 10.9741 26.9653 11.3037 26.9653ZM9.13086 26.3916C9.48486 26.3916 9.75342 26.0864 9.75342 25.7446C9.75342 25.4028 9.48486 25.1221 9.13086 25.1221C8.80127 25.1221 8.5083 25.4028 8.5083 25.7446C8.5083 26.0864 8.80127 26.3916 9.13086 26.3916ZM7.09229 25.4272C7.4585 25.4272 7.72705 25.1221 7.72705 24.7803C7.72705 24.4507 7.4585 24.1577 7.09229 24.1577C6.75049 24.1577 6.45752 24.4507 6.45752 24.7803C6.45752 25.1221 6.75049 25.4272 7.09229 25.4272ZM5.23682 24.1333C5.59082 24.1333 5.87158 23.8403 5.87158 23.4863C5.87158 23.1567 5.59082 22.876 5.23682 22.876C4.90723 22.876 4.60205 23.1567 4.60205 23.4863C4.60205 23.8403 4.90723 24.1333 5.23682 24.1333ZM3.6377 22.5342C3.9917 22.5342 4.27246 22.2412 4.27246 21.8994C4.27246 21.5576 3.9917 21.2769 3.6377 21.2769C3.30811 21.2769 3.01514 21.5576 3.01514 21.8994C3.01514 22.2412 3.30811 22.5342 3.6377 22.5342ZM2.35596 20.6909C2.69775 20.6909 2.99072 20.3857 2.99072 20.0439C2.99072 19.7021 2.69775 19.4214 2.35596 19.4214C2.01416 19.4214 1.72119 19.7021 1.72119 20.0439C1.72119 20.3857 2.01416 20.6909 2.35596 20.6909ZM1.40381 18.6401C1.77002 18.6401 2.03857 18.3472 2.03857 17.9932C2.03857 17.6758 1.77002 17.3706 1.40381 17.3706C1.06201 17.3706 0.769043 17.6758 0.769043 17.9932C0.769043 18.3472 1.06201 18.6401 1.40381 18.6401ZM0.817871 16.4795C1.18408 16.4795 1.45264 16.1743 1.45264 15.8325C1.45264 15.5029 1.18408 15.21 0.817871 15.21C0.488281 15.21 0.195312 15.5029 0.195312 15.8325C0.195312 16.1743 0.488281 16.4795 0.817871 16.4795ZM0.634766 14.2334C0.98877 14.2334 1.25732 13.9404 1.25732 13.623C1.25732 13.269 0.98877 12.9761 0.634766 12.9761C0.292969 12.9761 0 13.269 0 13.623C0 13.9404 0.292969 14.2334 0.634766 14.2334ZM0.817871 11.9995C1.18408 11.9995 1.45264 11.7065 1.45264 11.3647C1.45264 11.0352 1.18408 10.73 0.817871 10.73C0.488281 10.73 0.195312 11.0352 0.195312 11.3647C0.195312 11.7065 0.488281 11.9995 0.817871 11.9995ZM1.40381 9.82666C1.77002 9.82666 2.03857 9.5459 2.03857 9.2041C2.03857 8.8623 1.77002 8.55713 1.40381 8.55713C1.06201 8.55713 0.769043 8.8623 0.769043 9.2041C0.769043 9.5459 1.06201 9.82666 1.40381 9.82666ZM2.35596 7.77588C2.69775 7.77588 2.99072 7.49512 2.99072 7.15332C2.99072 6.82373 2.69775 6.51855 2.35596 6.51855C2.01416 6.51855 1.72119 6.82373 1.72119 7.15332C1.72119 7.49512 2.01416 7.77588 2.35596 7.77588ZM3.6377 5.92041C3.9917 5.92041 4.27246 5.63965 4.27246 5.31006C4.27246 4.95605 3.9917 4.66309 3.6377 4.66309C3.30811 4.66309 3.01514 4.95605 3.01514 5.31006C3.01514 5.63965 3.30811 5.92041 3.6377 5.92041ZM5.23682 4.3335C5.59082 4.3335 5.87158 4.04053 5.87158 3.72314C5.87158 3.36914 5.59082 3.07617 5.23682 3.07617C4.90723 3.07617 4.60205 3.36914 4.60205 3.72314C4.60205 4.04053 4.90723 4.3335 5.23682 4.3335ZM7.09229 3.03955C7.4585 3.03955 7.72705 2.75879 7.72705 2.41699C7.72705 2.0752 7.4585 1.78223 7.09229 1.78223C6.75049 1.78223 6.45752 2.0752 6.45752 2.41699C6.45752 2.75879 6.75049 3.03955 7.09229 3.03955ZM9.13086 2.0752C9.48486 2.0752 9.75342 1.79443 9.75342 1.46484C9.75342 1.12305 9.48486 0.817871 9.13086 0.817871C8.80127 0.817871 8.5083 1.12305 8.5083 1.46484C8.5083 1.79443 8.80127 2.0752 9.13086 2.0752ZM11.3037 1.50146C11.6577 1.50146 11.9263 1.2085 11.9263 0.878906C11.9263 0.537109 11.6577 0.231934 11.3037 0.231934C10.9741 0.231934 10.6689 0.537109 10.6689 0.878906C10.6689 1.2085 10.9741 1.50146 11.3037 1.50146ZM10.6567 16.8457C10.6567 17.5781 11.1206 17.8101 11.8164 17.4072L17.3462 14.2334C17.9443 13.8916 17.9443 13.3545 17.3462 13.0005L11.8164 9.81445C11.1328 9.43604 10.6567 9.65576 10.6567 10.376Z" fill="#5ac8f5"/>
 </g>
</svg>
