<?xml version="1.0" encoding="UTF-8"?>
<!--Generator: Apple Native CoreSVG 175.5-->
<!DOCTYPE svg
PUBLIC "-//W3C//DTD SVG 1.1//EN"
       "http://www.w3.org/Graphics/SVG/1.1/DTD/svg11.dtd">
<svg version="1.1" xmlns="http://www.w3.org/2000/svg" xmlns:xlink="http://www.w3.org/1999/xlink" width="24.9023" height="24.9146">
 <g>
  <rect height="24.9146" opacity="0" width="24.9023" x="0" y="0"/>
  <path d="M12.4512 24.9023C19.2627 24.9023 24.9023 19.2505 24.9023 12.4512C24.9023 5.63965 19.2505 0 12.439 0C5.63965 0 0 5.63965 0 12.4512C0 19.2505 5.65186 24.9023 12.4512 24.9023ZM5.60303 17.8955L5.60303 9.06982C5.60303 8.63037 5.77393 8.31299 6.16455 8.09326L9.27734 6.31104C9.41162 6.25 9.5459 6.17676 9.65576 6.11572L9.65576 16.9922L6.89697 18.4814C6.68945 18.5913 6.51855 18.6646 6.34766 18.6646C5.87158 18.6646 5.60303 18.3838 5.60303 17.8955ZM10.5469 16.8701L10.5469 6.00586C10.6934 6.03027 10.8032 6.0791 10.9253 6.15234L14.1602 8.12988L14.1602 18.8477C14.0747 18.8232 13.9648 18.7866 13.855 18.7378ZM15.0635 18.8354L15.0635 8.00781L17.9565 6.40869C18.1641 6.28662 18.335 6.23779 18.5059 6.23779C18.9697 6.23779 19.2505 6.49414 19.2505 6.99463L19.2505 15.8325C19.2505 16.2598 19.0674 16.5771 18.6768 16.8091L15.2588 18.75C15.1855 18.7866 15.1245 18.811 15.0635 18.8354Z" fill="#5ac8f5"/>
 </g>
</svg>
