<?xml version="1.0" encoding="UTF-8"?>
<!--Generator: Apple Native CoreSVG 175.5-->
<!DOCTYPE svg
PUBLIC "-//W3C//DTD SVG 1.1//EN"
       "http://www.w3.org/Graphics/SVG/1.1/DTD/svg11.dtd">
<svg version="1.1" xmlns="http://www.w3.org/2000/svg" xmlns:xlink="http://www.w3.org/1999/xlink" width="34.2163" height="23.1202">
 <g>
  <rect height="23.1202" opacity="0" width="34.2163" x="0" y="0"/>
  <path d="M0 11.554C0 11.8958 0.146484 12.2254 0.427246 12.4695L8.58154 19.8304C9.09424 20.2943 9.77783 20.2943 10.2051 19.8182C10.6323 19.3299 10.5591 18.6463 10.0708 18.2069L2.73438 11.554L10.0708 4.90119C10.5591 4.46174 10.6323 3.76593 10.2051 3.28986C9.77783 2.81379 9.09424 2.81379 8.58154 3.27765L0.427246 10.6263C0.146484 10.8826 0 11.2122 0 11.554ZM13.7695 23.0775C14.4165 23.2484 15.0024 22.8944 15.1978 22.2474L21.2769 1.40998C21.4478 0.82404 21.167 0.238102 20.52 0.0672039C19.8853-0.103695 19.3359 0.140446 19.1162 0.897282L13.0737 21.6248C12.8784 22.284 13.0859 22.8944 13.7695 23.0775ZM34.2163 11.554C34.2163 11.2122 34.082 10.8826 33.8013 10.6263L25.647 3.27765C25.1221 2.81379 24.4507 2.81379 24.0234 3.28986C23.5962 3.76593 23.6572 4.46174 24.1455 4.90119L31.4941 11.554L24.1455 18.2069C23.6572 18.6463 23.5962 19.3299 24.0234 19.8182C24.4507 20.2943 25.1221 20.2943 25.647 19.8304L33.8013 12.4695C34.082 12.2254 34.2163 11.8958 34.2163 11.554Z" fill="#5ac8f5"/>
 </g>
</svg>
