<?xml version="1.0" encoding="UTF-8"?>
<!--Generator: Apple Native CoreSVG 175.5-->
<!DOCTYPE svg
PUBLIC "-//W3C//DTD SVG 1.1//EN"
       "http://www.w3.org/Graphics/SVG/1.1/DTD/svg11.dtd">
<svg version="1.1" xmlns="http://www.w3.org/2000/svg" xmlns:xlink="http://www.w3.org/1999/xlink" width="24.9023" height="24.9146">
 <g>
  <rect height="24.9146" opacity="0" width="24.9023" x="0" y="0"/>
  <path d="M12.4512 24.9023C19.2627 24.9023 24.9023 19.2505 24.9023 12.4512C24.9023 5.63965 19.2505 0 12.439 0C5.63965 0 0 5.63965 0 12.4512C0 19.2505 5.65186 24.9023 12.4512 24.9023ZM12.4512 22.8271C6.68945 22.8271 2.0874 18.2129 2.0874 12.4512C2.0874 6.68945 6.67725 2.0752 12.439 2.0752C18.2007 2.0752 22.8271 6.68945 22.8271 12.4512C22.8271 18.2129 18.2129 22.8271 12.4512 22.8271Z" fill="#5ac8f5" fill-opacity="0.5"/>
  <path d="M6.70166 15.8936L12.7563 15.8936C14.4043 15.8936 15.6616 14.6362 15.6616 13.0249C15.6616 11.4502 14.3921 10.2417 12.6953 10.2051C12.0361 8.98438 10.8765 8.22754 9.47266 8.22754C7.61719 8.22754 6.05469 9.66797 5.84717 11.5112C4.93164 11.8164 4.28467 12.6343 4.28467 13.6719C4.28467 14.9414 5.24902 15.8936 6.70166 15.8936ZM11.5845 7.72705C11.8042 7.94678 12.1704 7.92236 12.3779 7.72705C12.5732 7.51953 12.5977 7.15332 12.3779 6.9458L11.499 6.0791C11.2793 5.87158 10.9375 5.87158 10.7178 6.0791C10.5103 6.27441 10.5103 6.62842 10.7178 6.84814ZM14.8682 6.67725C15.1855 6.67725 15.4297 6.43311 15.4297 6.12793L15.4297 4.89502C15.4297 4.60205 15.1855 4.3457 14.8682 4.3457C14.5752 4.3457 14.3188 4.60205 14.3188 4.89502L14.3188 6.12793C14.3188 6.43311 14.5752 6.67725 14.8682 6.67725ZM17.3828 7.71484C17.5903 7.92236 17.9688 7.94678 18.1885 7.72705L19.043 6.84814C19.2505 6.64062 19.2383 6.27441 19.043 6.0791C18.8232 5.87158 18.4814 5.85938 18.2617 6.0791L17.3828 6.9458C17.1631 7.15332 17.1875 7.50732 17.3828 7.71484ZM18.9819 10.7788L20.1904 10.7788C20.5078 10.7788 20.752 10.5347 20.752 10.2295C20.752 9.91211 20.5078 9.68018 20.1904 9.68018L18.9819 9.68018C18.689 9.68018 18.4326 9.91211 18.4326 10.2295C18.4326 10.5347 18.689 10.7788 18.9819 10.7788ZM18.2617 14.4043C18.4814 14.624 18.8232 14.5996 19.043 14.3921C19.2383 14.1724 19.2505 13.8062 19.043 13.6108L18.1885 12.7563C17.9688 12.5488 17.6025 12.5488 17.3828 12.7563C17.1875 12.9639 17.1631 13.3301 17.3828 13.5376ZM17.7368 10.2295C17.7368 8.63037 16.4673 7.38525 14.8682 7.38525C13.9038 7.38525 13.0371 7.87354 12.5366 8.61816C12.793 8.8501 13.0005 9.10645 13.1958 9.41162C14.9536 9.64355 16.2964 10.9131 16.4795 12.5977C17.2607 12.0483 17.7368 11.1938 17.7368 10.2295ZM7.17773 18.4814L7.87354 17.2852C8.00781 17.0654 7.93457 16.8091 7.70264 16.6748C7.49512 16.5527 7.22656 16.6382 7.10449 16.8457L6.40869 18.042C6.29883 18.2373 6.35986 18.5303 6.57959 18.6279C6.78711 18.7622 7.05566 18.689 7.17773 18.4814ZM8.74023 19.7754L9.38721 18.6401C9.49707 18.4448 9.44824 18.1641 9.21631 18.042C8.99658 17.9199 8.74023 17.9932 8.60596 18.2129L7.94678 19.3359C7.82471 19.5435 7.91016 19.8242 8.12988 19.9341C8.3374 20.0684 8.61816 19.9829 8.74023 19.7754ZM11.1206 18.4814L11.8164 17.2852C11.9385 17.0776 11.853 16.8091 11.6455 16.687C11.4258 16.5527 11.1572 16.626 11.0352 16.8335L10.3516 18.0298C10.2417 18.2373 10.2905 18.5181 10.5103 18.6401C10.7422 18.75 10.9985 18.6768 11.1206 18.4814ZM12.6709 19.7754L13.3301 18.6523C13.4399 18.4448 13.3667 18.1519 13.147 18.042C12.9395 17.9321 12.6831 17.9932 12.5488 18.2129L11.8896 19.3359C11.7554 19.5557 11.8408 19.8242 12.0728 19.9463C12.2803 20.0684 12.5488 19.9829 12.6709 19.7754Z" fill="#5ac8f5"/>
 </g>
</svg>
