<?xml version="1.0" encoding="UTF-8"?>
<!--Generator: Apple Native CoreSVG 175.5-->
<!DOCTYPE svg
PUBLIC "-//W3C//DTD SVG 1.1//EN"
       "http://www.w3.org/Graphics/SVG/1.1/DTD/svg11.dtd">
<svg version="1.1" xmlns="http://www.w3.org/2000/svg" xmlns:xlink="http://www.w3.org/1999/xlink" width="33.4839" height="19.3726">
 <g>
  <rect height="19.3726" opacity="0" width="33.4839" x="0" y="0"/>
  <path d="M0 15.6372C0 18.1274 1.25732 19.3726 3.78418 19.3726L27.3193 19.3726C31.3721 19.3726 33.4839 17.0044 33.4839 14.209C33.4839 12.5 32.7148 10.6445 31.0669 9.021L26.0742 4.06494C22.9126 0.939941 20.874 0 17.1387 0L3.78418 0C1.25732 0 0 1.24512 0 3.73535ZM12.915 9.83887L12.915 5.34668C12.915 4.61426 13.3423 4.18701 14.0747 4.18701L17.4194 4.18701C20.8984 4.18701 22.5342 4.63867 24.2676 6.34766L27.0752 9.14307C27.8442 9.91211 27.3926 10.9619 26.5625 10.9619L14.0747 10.9619C13.3423 10.9619 12.915 10.5347 12.915 9.83887Z" fill="#5ac8f5"/>
 </g>
</svg>
