<?xml version="1.0" encoding="UTF-8"?>
<!--Generator: Apple Native CoreSVG 175.5-->
<!DOCTYPE svg
PUBLIC "-//W3C//DTD SVG 1.1//EN"
       "http://www.w3.org/Graphics/SVG/1.1/DTD/svg11.dtd">
<svg version="1.1" xmlns="http://www.w3.org/2000/svg" xmlns:xlink="http://www.w3.org/1999/xlink" width="24.9023" height="24.9146">
 <g>
  <rect height="24.9146" opacity="0" width="24.9023" x="0" y="0"/>
  <path d="M12.4512 24.9023C19.2627 24.9023 24.9023 19.2505 24.9023 12.4512C24.9023 5.63965 19.2505 0 12.439 0C5.63965 0 0 5.63965 0 12.4512C0 19.2505 5.65186 24.9023 12.4512 24.9023ZM12.4512 22.8271C6.68945 22.8271 2.0874 18.2129 2.0874 12.4512C2.0874 6.68945 6.67725 2.0752 12.439 2.0752C18.2007 2.0752 22.8271 6.68945 22.8271 12.4512C22.8271 18.2129 18.2129 22.8271 12.4512 22.8271ZM7.18994 12.2192C7.18994 12.5488 7.4585 12.8296 7.78809 12.8296L8.53271 12.8296L9.32617 17.7612C9.39941 18.2373 9.75342 18.5059 10.1929 18.5059C10.6323 18.5059 10.9863 18.2617 11.0718 17.7734L11.8896 12.8174L12.9883 12.8174L13.8306 17.7734C13.916 18.2617 14.27 18.5059 14.7095 18.5059C15.1367 18.5059 15.5029 18.2373 15.5762 17.7612L16.3452 12.8174L17.0776 12.8174C17.4194 12.8174 17.6758 12.5366 17.6758 12.207C17.6758 11.853 17.4194 11.6089 17.0776 11.6089L16.5405 11.6089L17.1387 7.75146C17.1631 7.62939 17.1875 7.53174 17.1875 7.39746C17.1875 6.97021 16.8579 6.71387 16.4307 6.71387C16.0522 6.71387 15.7227 6.93359 15.6616 7.36084L15.1123 11.6089L14.0503 11.6089L13.3423 7.50732C13.269 7.00684 12.8662 6.72607 12.4268 6.72607C11.9629 6.72607 11.5967 7.00684 11.5112 7.51953L10.8154 11.6211L9.77783 11.6211L9.25293 7.37305C9.19189 6.9458 8.8623 6.72607 8.47168 6.72607C8.03223 6.72607 7.69043 6.99463 7.69043 7.42188C7.69043 7.56836 7.72705 7.69043 7.73926 7.80029L8.3374 11.6211L7.78809 11.6211C7.4585 11.6211 7.18994 11.8652 7.18994 12.2192ZM9.93652 12.8052L10.6445 12.8052L10.2295 15.6738ZM12.1094 11.6211L12.439 9.22852L12.793 11.6211ZM14.2212 12.8052L14.9902 12.8052L14.6606 15.7471Z" fill="#5ac8f5"/>
 </g>
</svg>
