<?xml version="1.0" encoding="UTF-8"?>
<!--Generator: Apple Native CoreSVG 175.5-->
<!DOCTYPE svg
PUBLIC "-//W3C//DTD SVG 1.1//EN"
       "http://www.w3.org/Graphics/SVG/1.1/DTD/svg11.dtd">
<svg version="1.1" xmlns="http://www.w3.org/2000/svg" xmlns:xlink="http://www.w3.org/1999/xlink" width="25.8301" height="25.5981">
 <g>
  <rect height="25.5981" opacity="0" width="25.8301" x="0" y="0"/>
  <path d="M9.75342 25.5981L22.0093 25.5981C24.5483 25.5981 25.8301 24.3286 25.8301 21.814L25.8301 9.46045C25.8301 6.9458 24.5483 5.67627 22.0093 5.67627L9.75342 5.67627C7.18994 5.67627 5.92041 6.93359 5.92041 9.46045L5.92041 21.814C5.92041 24.3286 7.18994 25.5981 9.75342 25.5981ZM0 16.1621C0 18.6768 1.26953 19.9463 3.83301 19.9463L4.24805 19.9463L4.24805 9.46045C4.24805 6.00586 6.27441 4.01611 9.75342 4.01611L19.9097 4.01611L19.9097 3.80859C19.9097 1.29395 18.6279 0.0244141 16.0889 0.0244141L3.83301 0.0244141C1.26953 0.0244141 0 1.29395 0 3.80859ZM12.8662 21.106C12.2437 21.582 11.5967 21.0938 11.8408 20.3735L13.0371 16.7969L9.96094 14.5996C9.38721 14.1846 9.58252 13.3545 10.3638 13.3667L14.1357 13.4033L15.271 9.80225C15.5029 9.09424 16.3086 9.09424 16.5283 9.80225L17.6758 13.4033L21.4355 13.3667C22.229 13.3545 22.3999 14.1846 21.8384 14.5996L18.7744 16.7969L19.9707 20.3735C20.2148 21.0938 19.5557 21.582 18.9331 21.106L15.9058 18.8965Z" fill="#5ac8f5"/>
 </g>
</svg>
