<?xml version="1.0" encoding="UTF-8"?>
<!--Generator: Apple Native CoreSVG 175.5-->
<!DOCTYPE svg
PUBLIC "-//W3C//DTD SVG 1.1//EN"
       "http://www.w3.org/Graphics/SVG/1.1/DTD/svg11.dtd">
<svg version="1.1" xmlns="http://www.w3.org/2000/svg" xmlns:xlink="http://www.w3.org/1999/xlink" width="16.7969" height="22.7661">
 <g>
  <rect height="22.7661" opacity="0" width="16.7969" x="0" y="0"/>
  <path d="M0 1.62354C0 2.2583 0.476074 2.67334 1.11084 2.67334L7.22656 2.67334L7.22656 21.6064C7.22656 22.2534 7.75146 22.7661 8.39844 22.7661C9.04541 22.7661 9.55811 22.2534 9.55811 21.6064L9.55811 2.67334L15.686 2.67334C16.3086 2.67334 16.7969 2.2583 16.7969 1.62354C16.7969 0.98877 16.3086 0.57373 15.686 0.57373L1.11084 0.57373C0.476074 0.57373 0 0.98877 0 1.62354ZM3.16162 11.9141C2.24609 12.2925 2.83203 13.7573 3.80859 13.3667L13.6353 9.28955C14.4775 8.94775 14.0625 7.39746 12.9028 7.88574ZM3.16162 16.7114C2.24609 17.0898 2.83203 18.5669 3.80859 18.1763L13.6353 14.0869C14.4775 13.7451 14.0625 12.207 12.9028 12.6831Z" fill="#5ac8f5"/>
 </g>
</svg>
