<?xml version="1.0" encoding="UTF-8"?>
<!--Generator: Apple Native CoreSVG 175.5-->
<!DOCTYPE svg
PUBLIC "-//W3C//DTD SVG 1.1//EN"
       "http://www.w3.org/Graphics/SVG/1.1/DTD/svg11.dtd">
<svg version="1.1" xmlns="http://www.w3.org/2000/svg" xmlns:xlink="http://www.w3.org/1999/xlink" width="24.9023" height="24.9146">
 <g>
  <rect height="24.9146" opacity="0" width="24.9023" x="0" y="0"/>
  <path d="M12.4512 24.9023C19.2627 24.9023 24.9023 19.2505 24.9023 12.4512C24.9023 5.63965 19.2505 0 12.439 0C5.63965 0 0 5.63965 0 12.4512C0 19.2505 5.65186 24.9023 12.4512 24.9023ZM12.4512 22.8271C6.68945 22.8271 2.0874 18.2129 2.0874 12.4512C2.0874 6.68945 6.67725 2.0752 12.439 2.0752C18.2007 2.0752 22.8271 6.68945 22.8271 12.4512C22.8271 18.2129 18.2129 22.8271 12.4512 22.8271Z" fill="#5ac8f5" fill-opacity="0.5"/>
  <path d="M10.9375 16.8701C13.5132 16.1621 14.6362 14.1724 13.9038 11.4746L12.915 7.8125C12.6465 6.82373 11.9995 6.46973 11.0107 6.72607L5.81055 8.10547C4.80957 8.37402 4.44336 9.00879 4.71191 10.0098L5.68848 13.6841C6.39648 16.3696 8.36182 17.5415 10.9375 16.8701ZM10.437 14.9902C9.35059 15.271 8.28857 14.8926 7.71484 14.0137C7.60498 13.8428 7.71484 13.6963 7.92236 13.6963C8.63037 13.7573 9.43604 13.6353 10.0342 13.4888C10.6201 13.3301 11.3892 13.0249 11.9751 12.6221C12.146 12.5 12.3291 12.5854 12.3047 12.793C12.2681 13.8428 11.5479 14.6973 10.437 14.9902ZM7.80029 11.5601C7.40967 11.6699 7.36084 11.9141 7.18994 11.9507C7.10449 11.9629 7.01904 11.8774 6.97021 11.7432C6.83594 11.2793 7.12891 10.8032 7.58057 10.7056C8.03223 10.5835 8.48389 10.8521 8.61816 11.2793C8.66699 11.438 8.63037 11.5601 8.53271 11.5967C8.3374 11.6455 8.1543 11.4502 7.80029 11.5601ZM10.9863 10.7056C10.6079 10.791 10.5469 11.0596 10.3882 11.0718C10.3149 11.1084 10.2173 10.9985 10.1562 10.8643C10.0464 10.4248 10.3271 9.93652 10.7666 9.82666C11.2427 9.7168 11.6943 9.96094 11.8042 10.4248C11.8652 10.5835 11.8042 10.7056 11.731 10.73C11.5479 10.791 11.3525 10.5835 10.9863 10.7056ZM19.397 9.47266L14.1968 8.06885C14.0991 8.04443 13.9893 8.03223 13.9038 8.02002L14.7827 11.2305C15.0879 12.3535 15.1001 13.4155 14.856 14.3311C14.9902 14.3555 15.1245 14.3677 15.2588 14.4043C16.1865 14.6362 16.8091 15.3442 16.8457 16.1743C16.8457 16.3818 16.6504 16.4917 16.4917 16.333C15.979 15.8569 15.5273 15.625 14.9658 15.4663C14.7949 15.4175 14.5996 15.3687 14.4287 15.3564C14.0015 16.1621 13.3179 16.8213 12.4023 17.2852C12.8906 17.688 13.5132 18.0176 14.27 18.2129C16.8335 18.8965 18.7988 17.7124 19.5068 15.0269L20.4956 11.3647C20.7642 10.376 20.3979 9.729 19.397 9.47266ZM17.1875 13.4521C16.8335 13.3789 16.6138 12.9883 16.7236 12.6221C16.7969 12.2681 17.1753 12.0605 17.5415 12.1582C17.8955 12.2437 18.1152 12.6221 18.0176 12.9761C17.9077 13.3301 17.5415 13.5498 17.1875 13.4521Z" fill="#5ac8f5"/>
 </g>
</svg>
