<?xml version="1.0" encoding="UTF-8"?>
<!--Generator: Apple Native CoreSVG 175.5-->
<!DOCTYPE svg
PUBLIC "-//W3C//DTD SVG 1.1//EN"
       "http://www.w3.org/Graphics/SVG/1.1/DTD/svg11.dtd">
<svg version="1.1" xmlns="http://www.w3.org/2000/svg" xmlns:xlink="http://www.w3.org/1999/xlink" width="33.6426" height="26.1841">
 <g>
  <rect height="26.1841" opacity="0" width="33.6426" x="0" y="0"/>
  <path d="M12.6099 3.74756C13.6475 3.74756 14.4775 2.92969 14.4775 1.87988C14.4775 0.842285 13.6475 0 12.6099 0C11.5723 0 10.73 0.842285 10.73 1.87988C10.73 2.92969 11.5723 3.74756 12.6099 3.74756ZM1.23291 20.3857L7.91016 20.3857C8.27637 20.3857 8.43506 20.3491 8.70361 20.2881L15.4663 18.6523C15.5762 18.6279 15.6738 18.7256 15.6616 18.8354L15.21 22.522L12.561 20.6299C11.9995 20.2271 11.2183 20.3613 10.8276 20.9229C10.4126 21.4844 10.5347 22.2656 11.0962 22.6685L15.1855 25.5493C16.0889 26.1841 17.1875 25.9766 17.4194 25.0488L20.7886 11.5356C20.8374 11.377 20.9961 11.2793 21.1548 11.3159L32.1655 13.501C33.1055 13.6963 33.6426 12.9883 33.6426 12.2925C33.6426 11.7554 33.3374 11.2061 32.6538 11.0718L21.8018 8.88672C18.5791 8.25195 16.5771 7.94678 14.2822 7.94678L11.2183 7.94678L11.2183 4.82178C11.2183 4.11377 10.6567 3.57666 9.97314 3.57666C9.26514 3.57666 8.71582 4.11377 8.71582 4.82178L8.71582 9.17969C8.71582 9.86328 9.26514 10.4248 9.97314 10.4248L15.1245 10.4248C15.3564 10.4248 15.5151 10.6323 15.4541 10.8521L14.4531 14.7095C14.2944 15.332 13.8672 15.8081 13.2568 16.0278L7.88574 17.8955L1.23291 17.8955C0.537109 17.8955 0 18.457 0 19.1528C0 19.8486 0.537109 20.3857 1.23291 20.3857ZM19.5679 7.21436C21.0327 7.21436 22.229 6.01807 22.229 4.52881C22.229 3.06396 21.0327 1.87988 19.5679 1.87988C18.0786 1.87988 16.8945 3.06396 16.8945 4.52881C16.8945 6.01807 18.0786 7.21436 19.5679 7.21436Z" fill="#5ac8f5"/>
 </g>
</svg>
