<?xml version="1.0" encoding="UTF-8"?>
<!--Generator: Apple Native CoreSVG 175.5-->
<!DOCTYPE svg
PUBLIC "-//W3C//DTD SVG 1.1//EN"
       "http://www.w3.org/Graphics/SVG/1.1/DTD/svg11.dtd">
<svg version="1.1" xmlns="http://www.w3.org/2000/svg" xmlns:xlink="http://www.w3.org/1999/xlink" width="31.1035" height="27.6611">
 <g>
  <rect height="27.6611" opacity="0" width="31.1035" x="0" y="0"/>
  <path d="M3.83301 25.0793L23.3643 25.0793L21.3989 23.114L3.85742 23.114C2.63672 23.114 1.96533 22.467 1.96533 21.1975L1.96533 6.48804C1.96533 5.5603 2.34375 4.96216 3.05176 4.74243L1.51367 3.20435C0.500488 3.76587 0 4.82788 0 6.39038L0 21.2952C0 23.822 1.28174 25.0793 3.83301 25.0793ZM9.69238 4.57153L24.9268 4.57153C26.1353 4.57153 26.8188 5.21851 26.8188 6.48804L26.8188 6.92749C27.5269 6.92749 28.1494 6.92749 28.7842 6.92749L28.7842 6.39038C28.7842 3.87573 27.5146 2.6062 24.9512 2.6062L7.73926 2.6062ZM9.68018 22.1741L20.1294 22.1741L18.9941 21.0388L9.68018 21.0388C9.35059 21.0388 9.10645 21.2708 9.10645 21.6125C9.10645 21.9543 9.35059 22.1741 9.68018 22.1741ZM20.7764 15.6433L22.3755 17.2546L22.3755 10.7971C22.3755 10.2356 22.6562 9.94263 23.1934 9.94263L28.6865 9.94263C29.2236 9.94263 29.5044 10.2356 29.5044 10.7971L29.5044 22.6379C29.5044 23.175 29.2603 23.4436 28.772 23.4802L28.5889 23.4802L29.8828 24.762L29.9316 24.762C30.7007 24.4568 31.1035 23.7854 31.1035 22.7966L31.1035 10.6384C31.1035 9.18579 30.2246 8.34351 28.7231 8.34351L23.1567 8.34351C21.6553 8.34351 20.7764 9.18579 20.7764 10.6384ZM24.9634 11.7249L26.8799 11.7249C27.1973 11.7249 27.4414 11.4685 27.4414 11.1511C27.4414 10.8459 27.1973 10.6018 26.8799 10.6018L24.9634 10.6018C24.646 10.6018 24.4019 10.8459 24.4019 11.1511C24.4019 11.4685 24.646 11.7249 24.9634 11.7249ZM27.7588 27.3865C28.125 27.7527 28.7231 27.7527 29.0894 27.3865C29.4434 27.0203 29.4678 26.4221 29.1016 26.0559L3.34473 0.299072C2.97852-0.0671387 2.38037-0.0793457 2.00195 0.299072C1.64795 0.653076 1.64795 1.26343 2.00195 1.62964Z" fill="#5ac8f5"/>
 </g>
</svg>
