<?xml version="1.0" encoding="UTF-8"?>
<!--Generator: Apple Native CoreSVG 175.5-->
<!DOCTYPE svg
PUBLIC "-//W3C//DTD SVG 1.1//EN"
       "http://www.w3.org/Graphics/SVG/1.1/DTD/svg11.dtd">
<svg version="1.1" xmlns="http://www.w3.org/2000/svg" xmlns:xlink="http://www.w3.org/1999/xlink" width="23.143" height="19.7876">
 <g>
  <rect height="19.7876" opacity="0" width="23.143" x="0" y="0"/>
  <path d="M4.55173 19.7876L22.1665 19.7876C22.7036 19.7876 23.143 19.3481 23.143 18.811C23.143 18.2739 22.7036 17.8223 22.1665 17.8223L6.52927 17.8223Z" fill="#5ac8f5" fill-opacity="0.5"/>
  <path d="M3.33102 18.6646L16.6489 5.35889L14.5127 3.21045L1.18259 16.5283L0.0229193 19.2383C-0.086944 19.5312 0.218232 19.873 0.511201 19.751ZM17.7231 4.30908L18.956 3.10059C19.5786 2.47803 19.603 1.80664 19.0537 1.24512L18.6386 0.830078C18.0893 0.280762 17.4179 0.341797 16.7954 0.939941L15.5625 2.16064Z" fill="#5ac8f5"/>
 </g>
</svg>
