<?xml version="1.0" encoding="UTF-8"?>
<!--Generator: Apple Native CoreSVG 175.5-->
<!DOCTYPE svg
PUBLIC "-//W3C//DTD SVG 1.1//EN"
       "http://www.w3.org/Graphics/SVG/1.1/DTD/svg11.dtd">
<svg version="1.1" xmlns="http://www.w3.org/2000/svg" xmlns:xlink="http://www.w3.org/1999/xlink" width="24.9023" height="24.9146">
 <g>
  <rect height="24.9146" opacity="0" width="24.9023" x="0" y="0"/>
  <path d="M12.4512 24.9023C19.2627 24.9023 24.9023 19.2505 24.9023 12.4512C24.9023 5.63965 19.2505 0 12.439 0C5.63965 0 0 5.63965 0 12.4512C0 19.2505 5.65186 24.9023 12.4512 24.9023ZM12.4512 22.8271C6.68945 22.8271 2.0874 18.2129 2.0874 12.4512C2.0874 6.68945 6.67725 2.0752 12.439 2.0752C18.2007 2.0752 22.8271 6.68945 22.8271 12.4512C22.8271 18.2129 18.2129 22.8271 12.4512 22.8271Z" fill="#5ac8f5" fill-opacity="0.5"/>
  <path d="M8.45947 17.7124C10.5591 17.7124 11.9507 15.6982 11.9507 12.4512C11.9507 9.2041 10.5591 7.18994 8.45947 7.18994C6.35986 7.18994 4.96826 9.2041 4.96826 12.4512C4.96826 15.6982 6.35986 17.7124 8.45947 17.7124ZM8.45947 16.2354C7.2998 16.2354 6.56738 14.7949 6.56738 12.4512C6.56738 10.1074 7.2998 8.66699 8.45947 8.66699C9.61914 8.66699 10.3516 10.1074 10.3516 12.4512C10.3516 14.7949 9.63135 16.2354 8.45947 16.2354ZM14.1357 17.4316L19.1895 17.4316C19.5801 17.4316 19.873 17.1387 19.873 16.6992C19.873 16.2476 19.5801 15.9912 19.1895 15.9912L15.6372 15.9912L15.6372 15.9058L18.0298 13.1226C18.9331 12.0728 19.6045 11.1938 19.6045 9.97314C19.6045 8.27637 18.3716 7.18994 16.4551 7.18994C14.9902 7.18994 13.7085 8.11768 13.3911 9.36279C13.3545 9.52148 13.3301 9.65576 13.3301 9.80225C13.3301 10.2417 13.5864 10.5347 14.0137 10.5347C14.3677 10.5347 14.5508 10.3271 14.7095 9.96094C15.0146 9.04541 15.6372 8.59375 16.5161 8.59375C17.4927 8.59375 18.1274 9.2041 18.1274 10.1074C18.1274 10.9009 17.4927 11.5845 16.9067 12.2681L13.6963 16.0522C13.501 16.2598 13.4277 16.4673 13.4277 16.7114C13.4277 17.1509 13.6963 17.4316 14.1357 17.4316Z" fill="#5ac8f5"/>
 </g>
</svg>
