<?xml version="1.0" encoding="UTF-8"?>
<!--Generator: Apple Native CoreSVG 175.5-->
<!DOCTYPE svg
PUBLIC "-//W3C//DTD SVG 1.1//EN"
       "http://www.w3.org/Graphics/SVG/1.1/DTD/svg11.dtd">
<svg version="1.1" xmlns="http://www.w3.org/2000/svg" xmlns:xlink="http://www.w3.org/1999/xlink" width="23.23" height="23.5474">
 <g>
  <rect height="23.5474" opacity="0" width="23.23" x="0" y="0"/>
  <path d="M6.20117 17.2974C9.729 20.8252 14.0137 23.5474 17.5171 23.5474C19.0918 23.5474 20.4712 22.998 21.582 21.7773C22.229 21.0571 22.6318 20.2148 22.6318 19.3848C22.6318 18.7744 22.3999 18.1885 21.8262 17.7734L18.0786 15.1123C17.5049 14.7217 17.0288 14.5264 16.5894 14.5264C16.04 14.5264 15.5396 14.8438 14.978 15.3931L14.1113 16.2476C13.9771 16.3818 13.8062 16.4429 13.6475 16.4429C13.4644 16.4429 13.2812 16.3696 13.1592 16.3086C12.4023 15.9058 11.1084 14.7949 9.8999 13.5986C8.70361 12.4023 7.59277 11.1084 7.20215 10.3516C7.14111 10.2173 7.06787 10.0464 7.06787 9.86328C7.06787 9.70459 7.1167 9.5459 7.25098 9.41162L8.11768 8.52051C8.65479 7.95898 8.98438 7.4707 8.98438 6.90918C8.98438 6.46973 8.77686 5.99365 8.37402 5.41992L5.74951 1.72119C5.32227 1.13525 4.72412 0.878906 4.06494 0.878906C3.25928 0.878906 2.4292 1.24512 1.70898 1.94092C0.524902 3.07617 0 4.47998 0 6.03027C0 9.53369 2.67334 13.7817 6.20117 17.2974Z" fill="#5ac8f5" fill-opacity="0.5"/>
  <path d="M13.916 10.6201C14.1602 10.6201 14.3677 10.5469 14.5508 10.3638L19.812 5.09033L21.6797 3.06396L21.4844 6.64062L21.4844 8.45947C21.4844 8.93555 21.8384 9.30176 22.3145 9.32617C22.8027 9.35059 23.23 8.95996 23.23 8.45947L23.23 1.3916C23.23 0.744629 22.9126 0.415039 22.2656 0.415039L15.1733 0.415039C14.6729 0.415039 14.27 0.830078 14.2944 1.33057C14.3188 1.80664 14.6973 2.16064 15.1733 2.16064L17.0166 2.16064L20.6055 1.96533L18.5547 3.83301L13.3057 9.10645C13.0981 9.30176 13.0005 9.52148 13.0005 9.77783C13.0005 10.2539 13.4033 10.6201 13.916 10.6201Z" fill="#5ac8f5"/>
 </g>
</svg>
