<?xml version="1.0" encoding="UTF-8"?>
<!--Generator: Apple Native CoreSVG 175.5-->
<!DOCTYPE svg
PUBLIC "-//W3C//DTD SVG 1.1//EN"
       "http://www.w3.org/Graphics/SVG/1.1/DTD/svg11.dtd">
<svg version="1.1" xmlns="http://www.w3.org/2000/svg" xmlns:xlink="http://www.w3.org/1999/xlink" width="28.5522" height="28.1372">
 <g>
  <rect height="28.1372" opacity="0" width="28.5522" x="0" y="0"/>
  <path d="M1.12305 25.4272C1.80664 25.4272 2.24609 24.9756 2.24609 24.2554L2.24609 16.1743L6.11572 16.1743C6.18896 16.1743 6.28662 16.1743 6.35986 16.1743L11.1084 24.6948C11.4136 25.2319 11.7065 25.4395 12.2314 25.4395C12.8906 25.4395 13.3667 24.9878 13.3667 24.3896C13.3667 24.1333 13.3057 23.9014 13.1348 23.584L8.69141 15.8203C11.5479 15.0146 13.2568 12.7197 13.2568 9.65576C13.2568 5.77393 10.5469 3.2959 6.33545 3.2959L1.15967 3.2959C0.439453 3.2959 0 3.75977 0 4.50439L0 24.2554C0 24.9756 0.439453 25.4272 1.12305 25.4272ZM2.24609 14.1724L2.24609 5.31006L6.04248 5.31006C9.09424 5.31006 10.9253 6.93359 10.9253 9.729C10.9253 12.561 9.16748 14.1724 6.14014 14.1724ZM21.7773 24.6338C25.4272 24.6338 28.5522 22.583 28.5522 18.8599C28.5522 15.9912 26.8433 14.2822 22.998 13.2935L20.9595 12.7563C18.6035 12.1704 17.5049 11.1084 17.5049 9.47266C17.5049 7.70264 19.0796 6.17676 21.7651 6.17676C23.9502 6.17676 25.4639 7.26318 26.0498 9.30176C26.2817 9.98535 26.6235 10.2661 27.1851 10.2661C27.832 10.2661 28.2471 9.82666 28.2471 9.09424C28.2471 8.92334 28.2227 8.72803 28.1738 8.49609C27.5146 5.79834 24.9512 4.01611 21.7651 4.01611C17.9688 4.01611 15.271 6.29883 15.271 9.60693C15.271 12.3657 16.98 14.0869 20.6177 15.0146L22.6562 15.5396C25.3174 16.2354 26.3306 17.1875 26.3306 19.0186C26.3306 21.2036 24.6582 22.4731 21.8018 22.4731C19.2261 22.4731 17.5781 21.3257 17.0776 19.2261C16.8701 18.5791 16.4917 18.2495 15.9302 18.2495C15.2954 18.2495 14.8804 18.7256 14.8804 19.4336C14.8804 19.6289 14.9048 19.812 14.9658 20.0195C15.6494 22.9492 18.5303 24.6338 21.7773 24.6338ZM21.7163 28.1372C22.229 28.1372 22.644 27.7344 22.644 27.2217L22.644 1.51367C22.644 1.00098 22.229 0.585938 21.7163 0.585938C21.2036 0.585938 20.8008 1.00098 20.8008 1.51367L20.8008 27.2217C20.8008 27.7344 21.2036 28.1372 21.7163 28.1372Z" fill="#5ac8f5"/>
 </g>
</svg>
