<?xml version="1.0" encoding="UTF-8"?>
<!--Generator: Apple Native CoreSVG 175.5-->
<!DOCTYPE svg
PUBLIC "-//W3C//DTD SVG 1.1//EN"
       "http://www.w3.org/Graphics/SVG/1.1/DTD/svg11.dtd">
<svg version="1.1" xmlns="http://www.w3.org/2000/svg" xmlns:xlink="http://www.w3.org/1999/xlink" width="24.9023" height="24.9146">
 <g>
  <rect height="24.9146" opacity="0" width="24.9023" x="0" y="0"/>
  <path d="M12.4512 24.9023C19.2627 24.9023 24.9023 19.2505 24.9023 12.4512C24.9023 5.63965 19.2505 0 12.439 0C5.63965 0 0 5.63965 0 12.4512C0 19.2505 5.65186 24.9023 12.4512 24.9023ZM7.55615 18.2983C6.99463 18.2983 6.64062 17.9077 6.64062 17.2607L6.64062 7.61719C6.64062 6.92139 7.12891 6.44531 7.83691 6.44531C8.44727 6.44531 8.8501 6.72607 9.06982 7.26318L12.4268 15.625L12.4878 15.625L15.8203 7.26318C16.0522 6.72607 16.4551 6.44531 17.0654 6.44531C17.7612 6.44531 18.2495 6.92139 18.2495 7.61719L18.2495 17.2607C18.2495 17.9199 17.9077 18.2983 17.3096 18.2983C16.7603 18.2983 16.4185 17.9077 16.4185 17.2607L16.4185 10.022L16.3086 10.022L13.4033 17.2485C13.2202 17.7002 12.9028 17.9077 12.439 17.9077C11.9629 17.9077 11.6699 17.7002 11.4746 17.2485L8.59375 10.022L8.47168 10.022L8.47168 17.2607C8.47168 17.9199 8.12988 18.2983 7.55615 18.2983Z" fill="#5ac8f5"/>
 </g>
</svg>
