<?xml version="1.0" encoding="UTF-8"?>
<!--Generator: Apple Native CoreSVG 175.5-->
<!DOCTYPE svg
PUBLIC "-//W3C//DTD SVG 1.1//EN"
       "http://www.w3.org/Graphics/SVG/1.1/DTD/svg11.dtd">
<svg version="1.1" xmlns="http://www.w3.org/2000/svg" xmlns:xlink="http://www.w3.org/1999/xlink" width="27.7588" height="33.1909">
 <g>
  <rect height="33.1909" opacity="0" width="27.7588" x="0" y="0"/>
  <path d="M3.83301 27.5391L17.8345 27.5391C20.3857 27.5391 21.6675 26.2695 21.6675 23.7549L21.6675 11.5845C21.6675 9.06982 20.3857 7.80029 17.8345 7.80029L14.4287 7.80029L14.4287 9.76562L17.7979 9.76562C19.0063 9.76562 19.7021 10.4126 19.7021 11.6821L19.7021 23.6572C19.7021 24.9268 19.0063 25.5737 17.7979 25.5737L3.85742 25.5737C2.63672 25.5737 1.96533 24.9268 1.96533 23.6572L1.96533 11.6821C1.96533 10.4126 2.63672 9.76562 3.85742 9.76562L7.23877 9.76562L7.23877 7.80029L3.83301 7.80029C1.28174 7.80029 0 9.05762 0 11.5845L0 23.7549C0 26.2817 1.28174 27.5391 3.83301 27.5391ZM10.9619 33.1909L23.9258 33.1909C26.4771 33.1909 27.7588 31.9336 27.7588 29.4067L27.7588 17.2363C27.7588 14.7095 26.4771 13.4521 23.9258 13.4521L21.0327 13.4521L21.0327 15.4175L23.9014 15.4175C25.1221 15.4175 25.7935 16.0645 25.7935 17.334L25.7935 29.3091C25.7935 30.5786 25.1221 31.2256 23.9014 31.2256L10.9985 31.2256C9.79004 31.2256 9.09424 30.5786 9.09424 29.3091L9.09424 26.5503L7.12891 26.5503L7.12891 29.4067C7.12891 31.9214 8.41064 33.1909 10.9619 33.1909ZM10.8276 17.981C11.3525 17.981 11.8042 17.5537 11.8042 17.041L11.8042 4.49219L11.731 2.67334L12.5488 3.54004L14.4043 5.50537C14.5752 5.70068 14.8193 5.79834 15.0635 5.79834C15.564 5.79834 15.9546 5.44434 15.9546 4.94385C15.9546 4.67529 15.8447 4.47998 15.6616 4.29688L11.5356 0.317383C11.2915 0.0732422 11.084 0 10.8276 0C10.5835 0 10.376 0.0732422 10.1196 0.317383L5.99365 4.29688C5.81055 4.47998 5.71289 4.67529 5.71289 4.94385C5.71289 5.44434 6.0791 5.79834 6.5918 5.79834C6.82373 5.79834 7.09229 5.70068 7.26318 5.50537L9.10645 3.54004L9.93652 2.67334L9.86328 4.49219L9.86328 17.041C9.86328 17.5537 10.3027 17.981 10.8276 17.981Z" fill="#5ac8f5"/>
 </g>
</svg>
