<?xml version="1.0" encoding="UTF-8"?>
<!--Generator: Apple Native CoreSVG 175.5-->
<!DOCTYPE svg
PUBLIC "-//W3C//DTD SVG 1.1//EN"
       "http://www.w3.org/Graphics/SVG/1.1/DTD/svg11.dtd">
<svg version="1.1" xmlns="http://www.w3.org/2000/svg" xmlns:xlink="http://www.w3.org/1999/xlink" width="28.1738" height="25.7202">
 <g>
  <rect height="25.7202" opacity="0" width="28.1738" x="0" y="0"/>
  <path d="M0 2.63672C0 3.13721 0.415039 3.56445 0.90332 3.56445L5.0293 3.56445L6.98242 16.9678C7.23877 18.7012 8.1543 19.7876 9.92432 19.7876L24.1699 19.7876C24.646 19.7876 25.061 19.397 25.061 18.8721C25.061 18.3472 24.646 17.9565 24.1699 17.9565L10.1318 17.9565C9.43604 17.9565 9.00879 17.4683 8.89893 16.7236L8.70361 15.4419L24.1943 15.4419C25.9766 15.4419 26.8921 14.3433 27.1484 12.5977L28.125 6.14014C28.1494 5.98145 28.1738 5.78613 28.1738 5.67627C28.1738 5.09033 27.7344 4.6875 27.063 4.6875L7.14111 4.6875L6.89697 3.13721C6.7749 2.19727 6.43311 1.72119 5.18799 1.72119L0.90332 1.72119C0.415039 1.72119 0 2.14844 0 2.63672ZM8.89893 23.7427C8.89893 24.8535 9.77783 25.7202 10.8887 25.7202C11.9873 25.7202 12.8662 24.8535 12.8662 23.7427C12.8662 22.644 11.9873 21.7651 10.8887 21.7651C9.77783 21.7651 8.89893 22.644 8.89893 23.7427ZM20.3125 23.7427C20.3125 24.8535 21.2036 25.7202 22.3022 25.7202C23.4131 25.7202 24.292 24.8535 24.292 23.7427C24.292 22.644 23.4131 21.7651 22.3022 21.7651C21.2036 21.7651 20.3125 22.644 20.3125 23.7427Z" fill="#5ac8f5"/>
 </g>
</svg>
