<?xml version="1.0" encoding="UTF-8"?>
<!--Generator: Apple Native CoreSVG 175.5-->
<!DOCTYPE svg
PUBLIC "-//W3C//DTD SVG 1.1//EN"
       "http://www.w3.org/Graphics/SVG/1.1/DTD/svg11.dtd">
<svg version="1.1" xmlns="http://www.w3.org/2000/svg" xmlns:xlink="http://www.w3.org/1999/xlink" width="24.9023" height="24.9146">
 <g>
  <rect height="24.9146" opacity="0" width="24.9023" x="0" y="0"/>
  <path d="M12.4512 24.9023C19.2627 24.9023 24.9023 19.2505 24.9023 12.4512C24.9023 5.63965 19.2505 0 12.439 0C5.63965 0 0 5.63965 0 12.4512C0 19.2505 5.65186 24.9023 12.4512 24.9023Z" fill="#5ac8f5" fill-opacity="0.25"/>
  <path d="M12.4512 18.8232C11.9873 18.8232 11.6699 18.4814 11.6699 17.9688L11.6699 16.1621L9.36279 16.1621C9.00879 16.1621 8.75244 15.8936 8.75244 15.5396C8.75244 15.1855 8.99658 14.917 9.36279 14.917L11.6699 14.917L11.6699 13.9526L9.36279 13.9526C9.00879 13.9526 8.75244 13.6841 8.75244 13.3301C8.75244 12.9639 8.99658 12.6953 9.36279 12.6953L11.084 12.6953L8.02002 7.76367C7.91016 7.58057 7.86133 7.43408 7.86133 7.23877C7.86133 6.82373 8.20312 6.49414 8.65479 6.49414C8.97217 6.49414 9.2041 6.61621 9.38721 6.90918L12.4634 12.0972L15.5396 6.92139C15.7104 6.64062 15.9546 6.50635 16.2598 6.50635C16.7114 6.50635 17.0532 6.83594 17.0532 7.25098C17.0532 7.44629 17.0166 7.59277 16.8945 7.77588L13.8428 12.6953L15.5884 12.6953C15.9546 12.6953 16.2109 12.9639 16.2109 13.3301C16.2109 13.6841 15.9546 13.9526 15.5884 13.9526L13.2568 13.9526L13.2568 14.917L15.5884 14.917C15.9546 14.917 16.2109 15.1855 16.2109 15.5396C16.2109 15.8936 15.9546 16.1621 15.5884 16.1621L13.2568 16.1621L13.2568 17.981C13.2568 18.4937 12.9272 18.8232 12.4512 18.8232Z" fill="#5ac8f5"/>
 </g>
</svg>
