<?xml version="1.0" encoding="UTF-8"?>
<!--Generator: Apple Native CoreSVG 175.5-->
<!DOCTYPE svg
PUBLIC "-//W3C//DTD SVG 1.1//EN"
       "http://www.w3.org/Graphics/SVG/1.1/DTD/svg11.dtd">
<svg version="1.1" xmlns="http://www.w3.org/2000/svg" xmlns:xlink="http://www.w3.org/1999/xlink" width="24.9023" height="24.9146">
 <g>
  <rect height="24.9146" opacity="0" width="24.9023" x="0" y="0"/>
  <path d="M12.4512 24.9146C19.2627 24.9146 24.9023 19.2749 24.9023 12.4634C24.9023 5.66406 19.2505 0.012207 12.439 0.012207C5.63965 0.012207 0 5.66406 0 12.4634C0 19.2749 5.65186 24.9146 12.4512 24.9146ZM9.70459 20.4102C8.47168 20.4102 7.65381 19.6167 7.65381 18.4204L7.65381 9.85107L8.87451 11.084L8.87451 18.2373C8.87451 18.8354 9.21631 19.1772 9.86328 19.1772L15.0513 19.1772C15.625 19.1772 15.9424 18.9209 16.0278 18.4326L16.0278 18.2373L17.0044 19.2139L17.0044 19.2749C16.7236 19.9951 16.1011 20.4102 15.21 20.4102ZM10.8887 18.6279C10.6812 18.6279 10.5225 18.4814 10.5225 18.2739C10.5225 18.042 10.6812 17.8955 10.8887 17.8955L14.0381 17.8955C14.2578 17.8955 14.3921 18.042 14.3921 18.2739C14.3921 18.4814 14.2578 18.6279 14.0381 18.6279ZM17.2607 15.1001L16.04 13.8794L16.04 6.68945C16.04 6.09131 15.6982 5.74951 15.0513 5.74951L9.86328 5.74951C9.26514 5.74951 8.93555 6.04248 8.88672 6.54297L8.88672 6.72607L7.88574 5.71289L7.88574 5.67627C8.1543 4.95605 8.78906 4.5166 9.70459 4.5166L15.21 4.5166C16.4429 4.5166 17.2607 5.29785 17.2607 6.50635ZM18.0664 18.8843L6.00586 6.83594C5.79834 6.62842 5.79834 6.26221 6.00586 6.03027C6.23779 5.81055 6.604 5.81055 6.82373 6.03027L18.8721 18.0786C19.0918 18.2983 19.0918 18.6401 18.8721 18.8843C18.6401 19.0918 18.2739 19.0918 18.0664 18.8843ZM11.5356 7.43408C11.2305 7.43408 10.9863 7.20215 10.9863 6.89697C10.9863 6.604 11.2305 6.35986 11.5356 6.35986L13.3545 6.35986C13.6597 6.35986 13.9038 6.604 13.9038 6.89697C13.9038 7.20215 13.6597 7.43408 13.3545 7.43408Z" fill="#5ac8f5"/>
 </g>
</svg>
