<?xml version="1.0" encoding="UTF-8"?>
<!--Generator: Apple Native CoreSVG 175.5-->
<!DOCTYPE svg
PUBLIC "-//W3C//DTD SVG 1.1//EN"
       "http://www.w3.org/Graphics/SVG/1.1/DTD/svg11.dtd">
<svg version="1.1" xmlns="http://www.w3.org/2000/svg" xmlns:xlink="http://www.w3.org/1999/xlink" width="22.1656" height="26.2802">
 <g>
  <rect height="26.2802" opacity="0" width="22.1656" x="0" y="0"/>
  <path d="M1.12269 8.12913L2.03821 8.45872C2.99036 8.81272 3.88148 8.37327 4.23548 7.39671L5.95667 2.67258C6.31068 1.69602 5.90784 0.804909 4.9557 0.450905L4.04017 0.121315C3.08802-0.232689 2.20911 0.206765 1.8429 1.19553L0.133918 5.90745C-0.232293 6.88401 0.170539 7.77512 1.12269 8.12913ZM17.1993 8.12913L18.1271 8.45872C19.0792 8.81272 19.9581 8.37327 20.3121 7.39671L22.0333 2.67258C22.3995 1.69602 21.9845 0.804909 21.0446 0.450905L20.1168 0.121315C19.1647-0.232689 18.298 0.206765 17.9318 1.19553L16.2106 5.90745C15.8566 6.88401 16.2594 7.78733 17.1993 8.12913ZM2.55091 26.2322L3.52747 26.2322C4.54066 26.2322 5.22425 25.5241 5.22425 24.4865L5.22425 19.4695C5.22425 18.4197 4.54066 17.7116 3.52747 17.7116L2.55091 17.7116C1.54993 17.7116 0.86634 18.4197 0.86634 19.4695L0.86634 24.4865C0.86634 25.5241 1.54993 26.2322 2.55091 26.2322ZM18.6276 26.2322L19.6041 26.2322C20.6173 26.2322 21.3009 25.5241 21.3009 24.4865L21.3009 19.4695C21.3009 18.4197 20.6173 17.7116 19.6041 17.7116L18.6276 17.7116C17.6266 17.7116 16.943 18.4197 16.943 19.4695L16.943 24.4865C16.943 25.5241 17.6266 26.2322 18.6276 26.2322ZM4.25989 5.27268L8.99622 5.27268L8.99622 3.30735L4.25989 3.30735ZM13.2931 5.27268L17.9196 5.27268L17.9196 3.30735L13.2931 3.30735ZM10.0949 22.2282L12.0602 22.2282L12.0602 6.44456L10.0949 6.44456ZM4.25989 22.9607L17.9196 22.9607L17.9196 20.9953L4.25989 20.9953ZM11.0836 7.45774C12.8414 7.45774 14.233 6.05393 14.233 4.28391C14.233 2.51389 12.8414 1.12229 11.0836 1.12229C9.31361 1.12229 7.9098 2.51389 7.9098 4.28391C7.9098 6.05393 9.31361 7.45774 11.0836 7.45774ZM11.0836 5.84641C10.2047 5.84641 9.50892 5.16282 9.50892 4.28391C9.50892 3.41721 10.2047 2.72141 11.0836 2.72141C11.9503 2.72141 12.6339 3.41721 12.6339 4.28391C12.6339 5.16282 11.9503 5.84641 11.0836 5.84641Z" fill="#5ac8f5"/>
 </g>
</svg>
