<?xml version="1.0" encoding="UTF-8"?>
<!--Generator: Apple Native CoreSVG 175.5-->
<!DOCTYPE svg
PUBLIC "-//W3C//DTD SVG 1.1//EN"
       "http://www.w3.org/Graphics/SVG/1.1/DTD/svg11.dtd">
<svg version="1.1" xmlns="http://www.w3.org/2000/svg" xmlns:xlink="http://www.w3.org/1999/xlink" width="26.6724" height="19.8853">
 <g>
  <rect height="19.8853" opacity="0" width="26.6724" x="0" y="0"/>
  <path d="M4.40674 19.8853C5.48096 19.8853 6.03027 19.3237 6.03027 18.2495L6.03027 1.62354C6.03027 0.561523 5.48096 0 4.40674 0L1.63574 0C0.561523 0 0 0.512695 0 1.62354L0 18.2495C0 19.3237 0.561523 19.8853 1.63574 19.8853ZM11.5967 19.519C12.0972 19.519 12.5122 19.3604 13.0005 19.0674L25.4395 11.7554C26.3062 11.2427 26.6724 10.6323 26.6724 9.93652C26.6724 9.22852 26.3062 8.63037 25.4395 8.11768L13.0005 0.793457C12.5 0.500488 12.0972 0.341797 11.5967 0.341797C10.6445 0.341797 9.83887 1.07422 9.83887 2.44141L9.83887 17.4316C9.83887 18.7988 10.6445 19.519 11.5967 19.519Z" fill="#5ac8f5"/>
 </g>
</svg>
