<?xml version="1.0" encoding="UTF-8"?>
<!--Generator: Apple Native CoreSVG 175.5-->
<!DOCTYPE svg
PUBLIC "-//W3C//DTD SVG 1.1//EN"
       "http://www.w3.org/Graphics/SVG/1.1/DTD/svg11.dtd">
<svg version="1.1" xmlns="http://www.w3.org/2000/svg" xmlns:xlink="http://www.w3.org/1999/xlink" width="33.9966" height="20.813">
 <g>
  <rect height="20.813" opacity="0" width="33.9966" x="0" y="0"/>
  <path d="M1.37939 19.8608L22.8271 19.8608C22.4854 19.3115 22.29 18.6646 22.2656 17.9077C22.2656 17.627 22.2534 17.3584 22.2534 17.0776L1.37939 17.0776C0.622559 17.0776 0 17.7002 0 18.4692C0 19.2383 0.622559 19.8608 1.37939 19.8608ZM4.05273 17.9932L6.01807 17.9932L6.01807 3.13721C6.01807 2.35596 6.40869 1.96533 7.18994 1.96533L31.0303 1.96533C30.9448 0.671387 30.1514 0 28.7964 0L6.66504 0C5.05371 0 4.05273 0.878906 4.05273 2.58789Z" fill="#5ac8f5" fill-opacity="0.5"/>
  <path d="M26.0498 20.0195L31.6162 20.0195C33.1299 20.0195 33.9966 19.1895 33.9966 17.7368L33.9966 5.57861C33.9966 4.12598 33.1177 3.28369 31.6162 3.28369L26.0498 3.28369C24.5361 3.28369 23.6694 4.12598 23.6694 5.57861L23.6694 17.7368C23.6694 19.1895 24.5361 20.0195 26.0498 20.0195ZM26.0742 18.4204C25.5371 18.4204 25.2686 18.1274 25.2686 17.5781L25.2686 5.7373C25.2686 5.17578 25.5371 4.88281 26.0742 4.88281L31.5796 4.88281C32.1167 4.88281 32.3975 5.17578 32.3975 5.7373L32.3975 17.5781C32.3975 18.1274 32.1167 18.4204 31.5796 18.4204ZM27.1606 17.7979L30.481 17.7979C30.7251 17.7979 30.9082 17.627 30.9082 17.3706C30.9082 17.1387 30.7251 16.9556 30.481 16.9556L27.1606 16.9556C26.9165 16.9556 26.7578 17.1387 26.7578 17.3706C26.7578 17.6392 26.9043 17.7979 27.1606 17.7979ZM27.8564 6.66504L29.7729 6.66504C30.0903 6.66504 30.3345 6.40869 30.3345 6.09131C30.3345 5.78613 30.0903 5.54199 29.7729 5.54199L27.8564 5.54199C27.5269 5.54199 27.2949 5.78613 27.2949 6.09131C27.2949 6.40869 27.5269 6.66504 27.8564 6.66504Z" fill="#5ac8f5"/>
 </g>
</svg>
