<?xml version="1.0" encoding="UTF-8"?>
<!--Generator: Apple Native CoreSVG 175.5-->
<!DOCTYPE svg
PUBLIC "-//W3C//DTD SVG 1.1//EN"
       "http://www.w3.org/Graphics/SVG/1.1/DTD/svg11.dtd">
<svg version="1.1" xmlns="http://www.w3.org/2000/svg" xmlns:xlink="http://www.w3.org/1999/xlink" width="29.3457" height="23.0835">
 <g>
  <rect height="23.0835" opacity="0" width="29.3457" x="0" y="0"/>
  <path d="M6.15234 23.0591L22.0459 23.0591C26.1597 23.0591 29.3457 19.9463 29.3457 15.9668C29.3457 11.9507 26.0986 8.92334 21.6553 8.92334C20.0317 5.70068 17.0532 3.73535 13.4399 3.73535C8.70361 3.73535 4.6875 7.40967 4.26025 12.2803C1.81885 12.9761 0.170898 15.0269 0.170898 17.6147C0.170898 20.6299 2.35596 23.0591 6.15234 23.0591ZM10.4736 18.9697C8.30078 18.9697 7.44629 17.0898 7.44629 14.9414C7.44629 12.7563 8.37402 10.9619 10.437 10.9619C12.0728 10.9619 13.0859 12.1338 13.1226 13.4155C13.1348 13.8672 12.8662 14.1602 12.4756 14.1602C12.0972 14.1602 11.9019 13.9526 11.792 13.5132C11.6577 12.8784 11.3159 12.2192 10.4614 12.2192C9.25293 12.2192 8.83789 13.5864 8.83789 14.9414C8.83789 16.3818 9.22852 17.7124 10.4736 17.7124C11.3281 17.7124 11.6943 17.041 11.8286 16.4062C11.9385 15.9668 12.1338 15.7593 12.5122 15.7593C12.9028 15.7593 13.1714 16.0645 13.1592 16.5039C13.1226 17.7856 12.1094 18.9697 10.4736 18.9697ZM16.687 18.9697C14.8438 18.9697 13.6841 17.4072 13.6841 14.9658C13.6841 12.5122 14.8438 10.9619 16.6748 10.9619C18.5181 10.9619 19.6655 12.5122 19.6655 14.9658C19.6655 17.4072 18.5181 18.9697 16.687 18.9697ZM20.6299 19.4458C20.3857 19.4458 20.2026 19.2505 20.2026 18.9941C20.2026 18.8477 20.2759 18.6523 20.3857 18.5425L21.3623 17.5537C21.6309 17.2729 21.9116 16.9434 21.9116 16.6626C21.9116 16.4795 21.7773 16.3452 21.582 16.3452C21.3867 16.3452 21.2646 16.4673 21.1914 16.7114C21.106 16.8823 20.9717 17.1021 20.6665 17.1021C20.4102 17.1021 20.1904 16.9067 20.1904 16.5894C20.1904 16.0522 20.7153 15.4053 21.5698 15.4053C22.3755 15.4053 22.9614 15.9302 22.9614 16.6382C22.9614 17.1387 22.6074 17.6025 22.1069 18.0908L21.7041 18.5181L22.6685 18.5181C22.9126 18.5181 23.1201 18.7378 23.1201 18.9697C23.1201 19.2261 22.9248 19.4458 22.6685 19.4458ZM16.687 17.7124C17.6758 17.7124 18.2861 16.6992 18.2861 14.9658C18.2861 13.2324 17.6758 12.2192 16.6748 12.2192C15.686 12.2192 15.0757 13.2324 15.0757 14.9658C15.0757 16.6992 15.686 17.7124 16.687 17.7124ZM1.70898 11.1084C2.64893 11.1084 3.40576 10.3516 3.40576 9.39941C3.40576 8.45947 2.64893 7.70264 1.70898 7.70264C0.756836 7.70264 0 8.45947 0 9.39941C0 10.3516 0.756836 11.1084 1.70898 11.1084ZM19.6045 3.21045C20.4834 3.21045 21.2036 2.49023 21.2036 1.61133C21.2036 0.732422 20.4834 0 19.6045 0C18.7256 0 18.0054 0.732422 18.0054 1.61133C18.0054 2.49023 18.7256 3.21045 19.6045 3.21045ZM24.7437 7.43408C26.062 7.43408 27.124 6.37207 27.124 5.0293C27.124 3.69873 26.062 2.63672 24.7437 2.63672C23.4009 2.63672 22.3267 3.69873 22.3267 5.0293C22.3267 6.37207 23.4009 7.43408 24.7437 7.43408Z" fill="#5ac8f5"/>
 </g>
</svg>
