<?xml version="1.0" encoding="UTF-8"?>
<!--Generator: Apple Native CoreSVG 175.5-->
<!DOCTYPE svg
PUBLIC "-//W3C//DTD SVG 1.1//EN"
       "http://www.w3.org/Graphics/SVG/1.1/DTD/svg11.dtd">
<svg version="1.1" xmlns="http://www.w3.org/2000/svg" xmlns:xlink="http://www.w3.org/1999/xlink" width="22.4731" height="22.4976">
 <g>
  <rect height="22.4976" opacity="0" width="22.4731" x="0" y="0"/>
  <path d="M3.83301 22.4976L18.6401 22.4976C21.2036 22.4976 22.4731 21.228 22.4731 18.7134L22.4731 3.80859C22.4731 1.29395 21.2036 0.0244141 18.6401 0.0244141L3.83301 0.0244141C1.28174 0.0244141 0 1.28174 0 3.80859L0 18.7134C0 21.2402 1.28174 22.4976 3.83301 22.4976ZM8.28857 10.0952L7.34863 10.0952C5.85938 10.0952 4.67529 8.91113 4.67529 7.43408C4.67529 5.95703 5.85938 4.76074 7.34863 4.76074C8.81348 4.76074 10.022 5.96924 10.022 7.43408L10.022 8.38623L12.2925 8.38623L12.2925 7.43408C12.2925 5.96924 13.4888 4.76074 14.9658 4.76074C16.4429 4.76074 17.6392 5.95703 17.6392 7.43408C17.6392 8.91113 16.4429 10.0952 14.9658 10.0952L14.0137 10.0952L14.0137 12.4023L14.9658 12.4023C16.4429 12.4023 17.6392 13.5864 17.6392 15.0513C17.6392 16.5405 16.4429 17.7368 14.9658 17.7368C13.4888 17.7368 12.2925 16.5283 12.2925 15.0513L12.2925 14.0991L10.022 14.0991L10.022 15.0513C10.022 16.5283 8.81348 17.7368 7.34863 17.7368C5.85938 17.7368 4.67529 16.5405 4.67529 15.0513C4.67529 13.5864 5.85938 12.4023 7.34863 12.4023L8.28857 12.4023ZM10.022 12.4146L12.2925 12.4146L12.2925 10.083L10.022 10.083ZM7.34863 8.39844L8.28857 8.39844L8.28857 7.43408C8.28857 6.92139 7.86133 6.46973 7.34863 6.46973C6.82373 6.46973 6.38428 6.92139 6.38428 7.43408C6.38428 7.97119 6.81152 8.39844 7.34863 8.39844ZM14.9658 8.39844C15.4907 8.39844 15.9302 7.97119 15.9302 7.43408C15.9302 6.92139 15.4785 6.46973 14.9658 6.46973C14.4409 6.46973 14.0137 6.92139 14.0137 7.43408L14.0137 8.39844ZM7.34863 14.0747C6.82373 14.0747 6.38428 14.5264 6.38428 15.0391C6.38428 15.5762 6.81152 16.0034 7.34863 16.0034C7.86133 16.0034 8.28857 15.5762 8.28857 15.0391L8.28857 14.0747ZM14.9658 14.0747L14.0137 14.0747L14.0137 15.0391C14.0137 15.5762 14.4409 16.0034 14.9658 16.0034C15.4907 16.0034 15.9302 15.5762 15.9302 15.0391C15.9302 14.5264 15.4785 14.0747 14.9658 14.0747Z" fill="#5ac8f5"/>
 </g>
</svg>
