<?xml version="1.0" encoding="UTF-8"?>
<!--Generator: Apple Native CoreSVG 175.5-->
<!DOCTYPE svg
PUBLIC "-//W3C//DTD SVG 1.1//EN"
       "http://www.w3.org/Graphics/SVG/1.1/DTD/svg11.dtd">
<svg version="1.1" xmlns="http://www.w3.org/2000/svg" xmlns:xlink="http://www.w3.org/1999/xlink" width="25.7568" height="23.5962">
 <g>
  <rect height="23.5962" opacity="0" width="25.7568" x="0" y="0"/>
  <path d="M17.4194 22.4121C17.688 22.4121 18.0054 22.29 18.2129 22.0825L25.3906 15.0391C25.6348 14.8071 25.7568 14.5142 25.7568 14.2212C25.7568 13.916 25.6348 13.6353 25.3906 13.4033L18.2129 6.35986C18.0054 6.15234 17.688 6.01807 17.4194 6.01807C16.7725 6.01807 16.3452 6.46973 16.3452 7.09229C16.3452 7.40967 16.4429 7.65381 16.6382 7.84912L20.1538 11.2793L23.1812 13.855L23.3887 13.2935L19.6045 13.1348L4.02832 13.1348C2.73438 13.1348 2.17285 12.5732 2.17285 11.2427L2.17285 4.02832C2.17285 2.73438 2.73438 2.17285 4.02832 2.17285L10.8643 2.17285C11.5356 2.17285 11.9751 1.68457 11.9751 1.08643C11.9751 0.488281 11.5356 0 10.8643 0L4.02832 0C1.18408 0 0 1.18408 0 4.02832L0 11.2427C0 14.0015 1.18408 15.3076 4.02832 15.3076L19.6045 15.3076L23.3887 15.1367L23.1812 14.5752L20.1538 17.1631L16.6382 20.5933C16.4429 20.7886 16.3452 21.0205 16.3452 21.3379C16.3452 21.9727 16.7725 22.4121 17.4194 22.4121Z" fill="#5ac8f5"/>
 </g>
</svg>
