<?xml version="1.0" encoding="UTF-8"?>
<!--Generator: Apple Native CoreSVG 175.5-->
<!DOCTYPE svg
PUBLIC "-//W3C//DTD SVG 1.1//EN"
       "http://www.w3.org/Graphics/SVG/1.1/DTD/svg11.dtd">
<svg version="1.1" xmlns="http://www.w3.org/2000/svg" xmlns:xlink="http://www.w3.org/1999/xlink" width="34.8511" height="23.3032">
 <g>
  <rect height="23.3032" opacity="0" width="34.8511" x="0" y="0"/>
  <path d="M3.39355 23.2666L31.4575 23.2666C33.5449 23.2666 34.8511 21.9849 34.8511 19.9219L34.8511 16.0278C34.8511 13.9648 33.5449 12.6831 31.4575 12.6831L3.39355 12.6831C1.30615 12.6831 0 13.9648 0 16.0278L0 19.9219C0 21.9849 1.30615 23.2666 3.39355 23.2666ZM4.62646 18.335C4.10156 18.335 3.73535 17.9688 3.73535 17.4561C3.73535 16.9312 4.10156 16.5527 4.62646 16.5527L8.89893 16.5527C9.41162 16.5527 9.79004 16.9312 9.79004 17.4561C9.79004 17.9688 9.41162 18.335 8.89893 18.335ZM15.271 19.6045C14.3677 19.6045 13.623 18.8599 13.623 17.9565C13.623 17.0776 14.3677 16.333 15.271 16.333C16.1621 16.333 16.9067 17.0776 16.9067 17.9565C16.9067 18.8599 16.1621 19.6045 15.271 19.6045ZM20.0317 19.6045C19.1284 19.6045 18.3838 18.8599 18.3838 17.9565C18.3838 17.0776 19.1284 16.333 20.0317 16.333C20.9229 16.333 21.6675 17.0776 21.6675 17.9565C21.6675 18.8599 20.9229 19.6045 20.0317 19.6045ZM24.7925 19.6045C23.8892 19.6045 23.1445 18.8599 23.1445 17.9565C23.1445 17.0776 23.8892 16.333 24.7925 16.333C25.6836 16.333 26.4282 17.0776 26.4282 17.9565C26.4282 18.8599 25.6836 19.6045 24.7925 19.6045ZM29.5532 19.6045C28.6499 19.6045 27.9053 18.8599 27.9053 17.9688C27.9053 17.0776 28.6499 16.333 29.5532 16.333C30.4565 16.333 31.2012 17.0776 31.2012 17.9688C31.2012 18.8599 30.4565 19.6045 29.5532 19.6045ZM17.4194 0C14.624 0 11.9019 0.830078 9.76562 2.31934C9.36279 2.62451 9.26514 3.125 9.52148 3.50342C9.81445 3.89404 10.3149 3.95508 10.7178 3.66211C12.561 2.38037 14.9658 1.63574 17.4194 1.63574C19.9097 1.63574 22.29 2.36816 24.1333 3.66211C24.5361 3.95508 25.0366 3.89404 25.3174 3.50342C25.5981 3.11279 25.5005 2.6123 25.0854 2.31934C22.9248 0.830078 20.2148 0 17.4194 0ZM17.4194 3.8208C15.3931 3.8208 13.4155 4.41895 11.8896 5.50537C11.499 5.79834 11.4014 6.28662 11.6821 6.67725C11.9385 7.04346 12.4512 7.12891 12.8784 6.83594C14.0747 5.98145 15.7227 5.48096 17.4194 5.48096C19.1284 5.48096 20.7764 5.98145 21.9727 6.83594C22.3999 7.12891 22.9126 7.04346 23.1689 6.67725C23.4497 6.28662 23.3521 5.79834 22.9492 5.50537C21.4722 4.41895 19.4946 3.8208 17.4194 3.8208ZM17.4194 7.6416C16.1499 7.6416 14.8804 8.02002 14.0259 8.66699C13.6475 8.93555 13.5376 9.44824 13.7939 9.82666C14.0991 10.2417 14.6118 10.3149 15.0513 10.0098C15.6494 9.55811 16.5283 9.30176 17.4194 9.30176C18.3472 9.30176 19.2261 9.55811 19.7998 10.0098C20.2393 10.3271 20.7642 10.2539 21.0693 9.82666C21.3135 9.44824 21.2036 8.94775 20.8374 8.66699C19.9341 8.02002 18.6646 7.6416 17.4194 7.6416Z" fill="#5ac8f5"/>
 </g>
</svg>
