<?xml version="1.0" encoding="UTF-8"?>
<!--Generator: Apple Native CoreSVG 175.5-->
<!DOCTYPE svg
PUBLIC "-//W3C//DTD SVG 1.1//EN"
       "http://www.w3.org/Graphics/SVG/1.1/DTD/svg11.dtd">
<svg version="1.1" xmlns="http://www.w3.org/2000/svg" xmlns:xlink="http://www.w3.org/1999/xlink" width="22.4731" height="22.4976">
 <g>
  <rect height="22.4976" opacity="0" width="22.4731" x="0" y="0"/>
  <path d="M3.83301 22.4976L18.6401 22.4976C21.2036 22.4976 22.4731 21.228 22.4731 18.7134L22.4731 3.80859C22.4731 1.29395 21.2036 0.0244141 18.6401 0.0244141L3.83301 0.0244141C1.28174 0.0244141 0 1.28174 0 3.80859L0 18.7134C0 21.2402 1.28174 22.4976 3.83301 22.4976ZM3.85742 20.5322C2.63672 20.5322 1.96533 19.8853 1.96533 18.6157L1.96533 3.90625C1.96533 2.63672 2.63672 1.98975 3.85742 1.98975L18.6157 1.98975C19.8242 1.98975 20.5078 2.63672 20.5078 3.90625L20.5078 18.6157C20.5078 19.8853 19.8242 20.5322 18.6157 20.5322Z" fill="#5ac8f5" fill-opacity="0.5"/>
  <path d="M4.89502 16.2231L9.94873 16.2231C10.3394 16.2231 10.6323 15.9302 10.6323 15.4907C10.6323 15.0391 10.3394 14.7827 9.94873 14.7827L6.39648 14.7827L6.39648 14.6973L8.78906 11.9141C9.69238 10.8643 10.3638 9.98535 10.3638 8.76465C10.3638 7.06787 9.13086 5.98145 7.21436 5.98145C5.76172 5.98145 4.46777 6.90918 4.15039 8.1543C4.12598 8.31299 4.08936 8.44727 4.08936 8.59375C4.08936 9.0332 4.3457 9.32617 4.77295 9.32617C5.12695 9.32617 5.31006 9.11865 5.46875 8.75244C5.77393 7.83691 6.39648 7.38525 7.27539 7.38525C8.25195 7.38525 8.89893 7.99561 8.89893 8.89893C8.89893 9.69238 8.25195 10.376 7.67822 11.0596L4.45557 14.8438C4.26025 15.0513 4.18701 15.2588 4.18701 15.5029C4.18701 15.9424 4.46777 16.2231 4.89502 16.2231ZM15.2344 16.5039C17.6636 16.5039 18.9819 14.5752 18.9819 10.9009C18.9819 7.70264 17.6636 5.98145 15.3687 5.98145C13.3179 5.98145 11.9751 7.36084 11.9751 9.50928C11.9751 11.6089 13.4033 12.7808 15.0024 12.7808C16.3452 12.7808 17.1387 12.0605 17.4561 11.2305L17.5293 11.2305C17.5537 13.6597 16.626 15.1001 15.21 15.1001C14.5142 15.1001 13.9526 14.7339 13.6597 14.1968C13.4644 13.855 13.2324 13.7207 12.915 13.7207C12.5366 13.7207 12.2681 14.0137 12.2681 14.4409C12.2681 14.563 12.3047 14.7339 12.3535 14.8804C12.561 15.5518 13.5498 16.5039 15.2344 16.5039ZM15.4663 11.5234C14.3066 11.5234 13.5254 10.6567 13.5254 9.43604C13.5254 8.1543 14.2822 7.31201 15.4663 7.31201C16.5894 7.31201 17.395 8.20312 17.395 9.46045C17.395 10.6567 16.6016 11.5234 15.4663 11.5234Z" fill="#5ac8f5"/>
 </g>
</svg>
