<?xml version="1.0" encoding="UTF-8"?>
<!--Generator: Apple Native CoreSVG 175.5-->
<!DOCTYPE svg
PUBLIC "-//W3C//DTD SVG 1.1//EN"
       "http://www.w3.org/Graphics/SVG/1.1/DTD/svg11.dtd">
<svg version="1.1" xmlns="http://www.w3.org/2000/svg" xmlns:xlink="http://www.w3.org/1999/xlink" width="24.9023" height="24.9146">
 <g>
  <rect height="24.9146" opacity="0" width="24.9023" x="0" y="0"/>
  <path d="M12.4512 24.9146C19.2627 24.9146 24.9023 19.2749 24.9023 12.4634C24.9023 5.66406 19.2505 0.012207 12.439 0.012207C5.63965 0.012207 0 5.66406 0 12.4634C0 19.2749 5.65186 24.9146 12.4512 24.9146ZM12.4512 19.5312C12.3047 19.5312 12.1338 19.519 11.9995 19.519L11.6211 20.1782C11.5234 20.4102 11.2915 20.5322 11.0352 20.4834C10.791 20.4468 10.6079 20.2637 10.5591 19.9951L10.4736 19.2383C10.1685 19.165 9.8877 19.043 9.59473 18.9331L9.04541 19.4214C8.8623 19.6167 8.59375 19.6411 8.37402 19.519C8.1543 19.3848 8.05664 19.165 8.09326 18.8965L8.25195 18.1519C7.9834 17.9565 7.73926 17.749 7.55615 17.5781L6.86035 17.8589C6.61621 17.9688 6.37207 17.9077 6.18896 17.6758C6.04248 17.5171 6.00586 17.2485 6.14014 17.0288L6.54297 16.3818C6.38428 16.1011 6.23779 15.8569 6.10352 15.5762L5.33447 15.625C5.09033 15.625 4.87061 15.4785 4.78516 15.2466C4.69971 15.0024 4.77295 14.7583 4.96826 14.5996L5.57861 14.1235C5.49316 13.8062 5.45654 13.501 5.40771 13.208L4.69971 12.9883C4.44336 12.8906 4.29688 12.7075 4.29688 12.4512C4.29688 12.1948 4.44336 11.9995 4.69971 11.9019L5.40771 11.6821C5.45654 11.3892 5.49316 11.1084 5.57861 10.7788L4.96826 10.3027C4.77295 10.1196 4.69971 9.8877 4.79736 9.66797C4.87061 9.41162 5.10254 9.27734 5.34668 9.28955L6.10352 9.31396C6.23779 9.06982 6.38428 8.78906 6.55518 8.52051L6.14014 7.86133C6.00586 7.65381 6.04248 7.38525 6.20117 7.21436C6.37207 7.00684 6.604 6.9458 6.84814 7.04346L7.55615 7.32422C7.75146 7.12891 8.00781 6.93359 8.25195 6.75049L8.09326 6.00586C8.05664 5.7251 8.1665 5.50537 8.37402 5.3833C8.59375 5.24902 8.8623 5.29785 9.04541 5.48096L9.59473 5.95703C9.8877 5.85938 10.1562 5.7373 10.4736 5.65186L10.5591 4.88281C10.6079 4.65088 10.791 4.45557 11.0229 4.41895C11.2793 4.37012 11.5234 4.47998 11.6211 4.71191L11.9995 5.39551C12.1338 5.3833 12.3047 5.37109 12.4512 5.37109C12.6221 5.37109 12.7563 5.3833 12.915 5.39551L13.269 4.71191C13.3789 4.50439 13.623 4.37012 13.8794 4.41895C14.1113 4.45557 14.2944 4.65088 14.3311 4.88281L14.4409 5.65186C14.7461 5.7373 15.0269 5.84717 15.3076 5.95703L15.8569 5.48096C16.04 5.28564 16.3086 5.24902 16.5405 5.3833C16.748 5.50537 16.8335 5.7251 16.7969 6.00586L16.626 6.75049C16.8945 6.93359 17.1387 7.12891 17.334 7.32422L18.0542 7.04346C18.2983 6.9458 18.5181 7.01904 18.7012 7.21436C18.8599 7.39746 18.8843 7.66602 18.75 7.87354L18.3472 8.52051C18.4937 8.75244 18.6401 9.00879 18.7988 9.31396L19.5557 9.28955C19.7998 9.27734 20.0317 9.41162 20.1172 9.66797C20.2026 9.8999 20.1294 10.1318 19.9219 10.3027L19.3237 10.7788C19.3848 11.0718 19.458 11.3647 19.4946 11.6821L20.2026 11.9141C20.459 11.9995 20.6055 12.1948 20.6055 12.4512C20.6055 12.7075 20.4712 12.8906 20.2026 12.9883L19.4946 13.208C19.458 13.5376 19.3848 13.8428 19.3237 14.1235L19.9219 14.5996C20.1172 14.7461 20.2026 14.9902 20.1172 15.2466C20.0317 15.4785 19.812 15.625 19.5679 15.625L18.7988 15.5762C18.6646 15.8569 18.5181 16.1133 18.3472 16.3818L18.75 17.0288C18.8843 17.2363 18.8721 17.5049 18.7134 17.6758C18.5181 17.9077 18.2983 17.9688 18.042 17.8589L17.334 17.5781C17.1509 17.749 16.9189 17.9565 16.626 18.1519L16.7969 18.8965C16.8335 19.1772 16.748 19.397 16.5405 19.519C16.2842 19.6411 16.04 19.6167 15.8569 19.4214L15.3076 18.9331C15.0269 19.043 14.7339 19.1528 14.4409 19.2383L14.3311 20.0073C14.2944 20.2637 14.1113 20.4468 13.8794 20.4834C13.6108 20.5322 13.3789 20.4102 13.269 20.1782L12.915 19.519C12.7563 19.519 12.6099 19.5312 12.4512 19.5312ZM6.84814 12.4634C6.84814 14.3066 7.67822 15.918 8.99658 16.9434L10.9497 13.7695C10.5957 13.3789 10.4248 12.9395 10.4248 12.4756C10.4248 11.9995 10.5957 11.5601 10.9497 11.1694L9.04541 7.91016C7.70264 8.94775 6.84814 10.5835 6.84814 12.4634ZM12.4512 6.7749C11.6211 6.7749 10.8398 6.9458 10.1318 7.26318L12.0239 10.498C12.1948 10.4614 12.3291 10.4492 12.4268 10.4492C13.2935 10.4492 13.9893 10.9497 14.3555 11.8286L18.0176 11.8286C17.7246 8.94775 15.3931 6.7749 12.4512 6.7749ZM12.4512 18.1274C15.3931 18.1274 17.7246 15.9546 18.0176 13.0859L14.3555 13.0859C13.9893 13.9893 13.2935 14.502 12.4268 14.502C12.3413 14.502 12.1948 14.4897 12.0239 14.4531L10.083 17.627C10.8032 17.9443 11.5967 18.1274 12.4512 18.1274ZM11.731 12.4634C11.731 12.854 12.0605 13.1836 12.439 13.1836C12.854 13.1836 13.1836 12.854 13.1836 12.4634C13.1836 12.085 12.854 11.792 12.439 11.792C12.0605 11.792 11.731 12.0972 11.731 12.4634Z" fill="#5ac8f5"/>
 </g>
</svg>
