<?xml version="1.0" encoding="UTF-8"?>
<!--Generator: Apple Native CoreSVG 175.5-->
<!DOCTYPE svg
PUBLIC "-//W3C//DTD SVG 1.1//EN"
       "http://www.w3.org/Graphics/SVG/1.1/DTD/svg11.dtd">
<svg version="1.1" xmlns="http://www.w3.org/2000/svg" xmlns:xlink="http://www.w3.org/1999/xlink" width="22.4731" height="22.4976">
 <g>
  <rect height="22.4976" opacity="0" width="22.4731" x="0" y="0"/>
  <path d="M3.83301 22.4976L18.6401 22.4976C21.2036 22.4976 22.4731 21.228 22.4731 18.7134L22.4731 3.80859C22.4731 1.29395 21.2036 0.0244141 18.6401 0.0244141L3.83301 0.0244141C1.28174 0.0244141 0 1.28174 0 3.80859L0 18.7134C0 21.2402 1.28174 22.4976 3.83301 22.4976ZM3.85742 20.5322C2.63672 20.5322 1.96533 19.8853 1.96533 18.6157L1.96533 3.90625C1.96533 2.63672 2.63672 1.98975 3.85742 1.98975L18.6157 1.98975C19.8242 1.98975 20.5078 2.63672 20.5078 3.90625L20.5078 18.6157C20.5078 19.8853 19.8242 20.5322 18.6157 20.5322Z" fill="#5ac8f5" fill-opacity="0.5"/>
  <path d="M6.5918 13.501C6.5918 14.1113 6.99463 14.5142 7.66602 14.5142L12.2559 14.5142L12.2559 15.7715C12.2559 16.4185 12.5854 16.7969 13.1348 16.7969C13.7207 16.7969 14.0503 16.4307 14.0503 15.7715L14.0503 14.5142L14.8682 14.5142C15.4175 14.5142 15.7471 14.1846 15.7471 13.6719C15.7471 13.208 15.4175 12.9028 14.8682 12.9028L14.0503 12.9028L14.0503 10.2661C14.0503 9.60693 13.7207 9.24072 13.1348 9.24072C12.5854 9.24072 12.2559 9.61914 12.2559 10.2661L12.2559 12.9028L8.8623 12.9028C9.96094 10.8521 11.0229 9.021 12.1582 6.93359C12.2559 6.72607 12.3291 6.54297 12.3291 6.35986C12.3291 5.87158 12.0239 5.46875 11.4624 5.46875C11.084 5.46875 10.8154 5.65186 10.5957 6.05469C9.30176 8.3374 8.10547 10.437 6.79932 12.7319C6.65283 12.9761 6.5918 13.2446 6.5918 13.501Z" fill="#5ac8f5"/>
 </g>
</svg>
