<?xml version="1.0" encoding="UTF-8"?>
<!--Generator: Apple Native CoreSVG 175.5-->
<!DOCTYPE svg
PUBLIC "-//W3C//DTD SVG 1.1//EN"
       "http://www.w3.org/Graphics/SVG/1.1/DTD/svg11.dtd">
<svg version="1.1" xmlns="http://www.w3.org/2000/svg" xmlns:xlink="http://www.w3.org/1999/xlink" width="27.6842" height="27.701">
 <g>
  <rect height="27.701" opacity="0" width="27.6842" x="0" y="0"/>
  <path d="M1.36881 16.5422L11.1466 26.32C12.9533 28.1266 14.7355 28.1388 16.5299 26.3566L26.3566 16.5177C28.1388 14.7355 28.1266 12.9411 26.32 11.1344L16.5544 1.36881C14.7477-0.43783 12.9655-0.462244 11.1711 1.33219L1.33219 11.1588C-0.462244 12.9533-0.43783 14.7355 1.36881 16.5422Z" fill="#5ac8f5" fill-opacity="0.25"/>
  <path d="M7.87516 13.8566C7.87516 13.2218 8.32682 12.7824 8.96158 12.7824L12.7824 12.7824L12.7824 8.96158C12.7824 8.32682 13.2096 7.87516 13.82 7.87516C14.467 7.87516 14.8942 8.32682 14.8942 8.96158L14.8942 12.7824L18.7272 12.7824C19.362 12.7824 19.8014 13.2218 19.8014 13.8566C19.8014 14.4792 19.3498 14.8942 18.7272 14.8942L14.8942 14.8942L14.8942 18.7272C14.8942 19.362 14.467 19.8014 13.82 19.8014C13.2096 19.8014 12.7824 19.3498 12.7824 18.7272L12.7824 14.8942L8.96158 14.8942C8.32682 14.8942 7.87516 14.4792 7.87516 13.8566Z" fill="#5ac8f5"/>
 </g>
</svg>
