<?xml version="1.0" encoding="UTF-8"?>
<!--Generator: Apple Native CoreSVG 175.5-->
<!DOCTYPE svg
PUBLIC "-//W3C//DTD SVG 1.1//EN"
       "http://www.w3.org/Graphics/SVG/1.1/DTD/svg11.dtd">
<svg version="1.1" xmlns="http://www.w3.org/2000/svg" xmlns:xlink="http://www.w3.org/1999/xlink" width="23.9624" height="23.9868">
 <g>
  <rect height="23.9868" opacity="0" width="23.9624" x="0" y="0"/>
  <path d="M2.86865 21.7651L21.0815 21.7651C22.8149 21.7651 23.9624 20.6177 23.9624 18.8965L23.9624 2.86865C23.9624 1.14746 22.8149 0 21.0815 0L2.86865 0C1.14746 0 0 1.14746 0 2.86865L0 18.8965C0 20.6177 1.14746 21.7651 2.86865 21.7651ZM2.89307 19.7998C2.33154 19.7998 1.96533 19.4092 1.96533 18.811L1.96533 2.9541C1.96533 2.36816 2.33154 1.96533 2.89307 1.96533L21.0693 1.96533C21.6187 1.96533 21.9971 2.36816 21.9971 2.9541L21.9971 18.811C21.9971 19.4092 21.6187 19.7998 21.0693 19.7998ZM5.63965 5.3833C6.29883 5.3833 6.84814 4.84619 6.84814 4.18701C6.84814 3.51562 6.29883 2.97852 5.63965 2.97852C4.96826 2.97852 4.41895 3.51562 4.41895 4.18701C4.41895 4.84619 4.96826 5.3833 5.63965 5.3833ZM9.86328 5.3833C10.5225 5.3833 11.0718 4.84619 11.0718 4.18701C11.0718 3.51562 10.5225 2.97852 9.86328 2.97852C9.19189 2.97852 8.64258 3.51562 8.64258 4.18701C8.64258 4.84619 9.19189 5.3833 9.86328 5.3833ZM14.0869 5.3833C14.7461 5.3833 15.2954 4.84619 15.2954 4.18701C15.2954 3.51562 14.7461 2.97852 14.0869 2.97852C13.4155 2.97852 12.8662 3.51562 12.8662 4.18701C12.8662 4.84619 13.4155 5.3833 14.0869 5.3833ZM18.3105 5.3833C18.9819 5.3833 19.5312 4.84619 19.5312 4.18701C19.5312 3.51562 18.9819 2.97852 18.3105 2.97852C17.6514 2.97852 17.1021 3.51562 17.1021 4.18701C17.1021 4.84619 17.6514 5.3833 18.3105 5.3833ZM1.18408 8.02002L22.7905 8.02002L22.7905 6.4209L1.18408 6.4209ZM4.77295 18.3594L19.1895 18.3594C19.8853 18.3594 20.3369 17.9077 20.3369 17.2241L20.3369 10.6079C20.3369 9.91211 19.8853 9.46045 19.1895 9.46045L4.77295 9.46045C4.07715 9.46045 3.6377 9.91211 3.6377 10.6079L3.6377 17.2241C3.6377 17.9077 4.07715 18.3594 4.77295 18.3594ZM5.31006 17.0044C5.12695 17.0044 4.99268 16.8701 4.99268 16.687L4.99268 11.145C4.99268 10.9619 5.12695 10.8154 5.31006 10.8154L18.6646 10.8154C18.8354 10.8154 18.9819 10.9619 18.9819 11.145L18.9819 16.687C18.9819 16.8701 18.8354 17.0044 18.6646 17.0044ZM3.49121 23.9624C4.07715 23.9624 4.46777 23.5718 4.46777 22.9858L4.46777 20.5444L2.50244 20.5444L2.50244 22.9858C2.50244 23.5718 2.90527 23.9624 3.49121 23.9624ZM20.4712 23.9624C21.0571 23.9624 21.4478 23.5718 21.4478 22.9858L21.4478 20.5444L19.4824 20.5444L19.4824 22.9858C19.4824 23.5718 19.8853 23.9624 20.4712 23.9624Z" fill="#5ac8f5"/>
 </g>
</svg>
