<?xml version="1.0" encoding="UTF-8"?>
<!--Generator: Apple Native CoreSVG 175.5-->
<!DOCTYPE svg
PUBLIC "-//W3C//DTD SVG 1.1//EN"
       "http://www.w3.org/Graphics/SVG/1.1/DTD/svg11.dtd">
<svg version="1.1" xmlns="http://www.w3.org/2000/svg" xmlns:xlink="http://www.w3.org/1999/xlink" width="24.9023" height="24.9146">
 <g>
  <rect height="24.9146" opacity="0" width="24.9023" x="0" y="0"/>
  <path d="M12.4512 24.9146C19.2627 24.9146 24.9023 19.2749 24.9023 12.4634C24.9023 5.66406 19.2505 0.012207 12.439 0.012207C5.63965 0.012207 0 5.66406 0 12.4634C0 19.2749 5.65186 24.9146 12.4512 24.9146ZM6.93359 17.0044C6.27441 17.0044 5.896 16.6626 5.896 16.1743C5.896 15.4663 6.604 14.856 7.20215 14.2334C7.66602 13.7329 7.76367 12.7441 7.82471 11.9629C7.87354 9.26514 8.59375 7.43408 10.437 6.75049C10.73 5.84717 11.438 5.12695 12.4634 5.12695C13.4888 5.12695 14.209 5.84717 14.4897 6.75049C16.333 7.43408 17.0532 9.26514 17.1143 11.9629C17.1631 12.7441 17.2485 13.7329 17.7246 14.2334C18.3472 14.8438 19.0308 15.4663 19.0308 16.1743C19.0308 16.6626 18.6523 17.0044 18.0054 17.0044ZM12.4634 19.9219C11.2793 19.9219 10.4248 19.0674 10.3394 18.0664L14.5874 18.0664C14.5142 19.0674 13.6475 19.9219 12.4634 19.9219Z" fill="#5ac8f5"/>
 </g>
</svg>
