<?xml version="1.0" encoding="UTF-8"?>
<!--Generator: Apple Native CoreSVG 175.5-->
<!DOCTYPE svg
PUBLIC "-//W3C//DTD SVG 1.1//EN"
       "http://www.w3.org/Graphics/SVG/1.1/DTD/svg11.dtd">
<svg version="1.1" xmlns="http://www.w3.org/2000/svg" xmlns:xlink="http://www.w3.org/1999/xlink" width="30.3711" height="24.7437">
 <g>
  <rect height="24.7437" opacity="0" width="30.3711" x="0" y="0"/>
  <path d="M3.83301 19.0796L6.86035 19.0796L6.86035 17.1143L3.85742 17.1143C2.63672 17.1143 1.96533 16.4673 1.96533 15.1978L1.96533 3.89404C1.96533 2.62451 2.63672 1.96533 3.85742 1.96533L20.3369 1.96533C21.5454 1.96533 22.2412 2.62451 22.2412 3.89404L22.2412 6.44531L24.2065 6.44531L24.2065 3.78418C24.2065 1.26953 22.9126 0 20.3735 0L3.83301 0C1.26953 0 0 1.26953 0 3.78418L0 15.2954C0 17.8223 1.26953 19.0796 3.83301 19.0796ZM9.86328 24.7314L26.5381 24.7314C29.0771 24.7314 30.3711 23.4619 30.3711 20.9473L30.3711 9.43604C30.3711 6.92139 29.0771 5.65186 26.5381 5.65186L9.86328 5.65186C7.2998 5.65186 6.03027 6.92139 6.03027 9.43604L6.03027 20.9473C6.03027 23.4741 7.2998 24.7314 9.86328 24.7314ZM9.8877 22.7661C8.66699 22.7661 7.99561 22.1191 7.99561 20.8496L7.99561 9.5459C7.99561 8.27637 8.66699 7.61719 9.8877 7.61719L26.5015 7.61719C27.71 7.61719 28.4058 8.27637 28.4058 9.5459L28.4058 20.8496C28.4058 22.1191 27.71 22.7661 26.5015 22.7661ZM14.8804 19.4702C14.8804 20.0317 15.4541 20.2393 15.9058 19.9707L23.0957 15.7471C23.5352 15.4785 23.5229 14.8926 23.0835 14.6484L15.9058 10.4126C15.4541 10.1562 14.8804 10.3516 14.8804 10.9131Z" fill="#5ac8f5"/>
 </g>
</svg>
