<?xml version="1.0" encoding="UTF-8"?>
<!--Generator: Apple Native CoreSVG 175.5-->
<!DOCTYPE svg
PUBLIC "-//W3C//DTD SVG 1.1//EN"
       "http://www.w3.org/Graphics/SVG/1.1/DTD/svg11.dtd">
<svg version="1.1" xmlns="http://www.w3.org/2000/svg" xmlns:xlink="http://www.w3.org/1999/xlink" width="24.9023" height="24.9146">
 <g>
  <rect height="24.9146" opacity="0" width="24.9023" x="0" y="0"/>
  <path d="M12.4512 24.9023C19.2627 24.9023 24.9023 19.2505 24.9023 12.4512C24.9023 5.63965 19.2505 0 12.439 0C5.63965 0 0 5.63965 0 12.4512C0 19.2505 5.65186 24.9023 12.4512 24.9023ZM12.4512 18.3594C9.22852 18.3594 6.99463 15.8691 6.99463 12.3291C6.99463 8.77686 9.22852 6.29883 12.4512 6.29883C15.6738 6.29883 17.9077 8.77686 17.9077 12.3291C17.9077 14.4287 17.1265 16.1377 15.8325 17.1753L16.5894 18.1885C16.8213 18.5059 16.8823 18.6523 16.8823 18.8843C16.8823 19.3237 16.5894 19.6289 16.1377 19.6289C15.8203 19.6289 15.5884 19.5068 15.3442 19.165L14.4653 17.9932C13.855 18.2251 13.1836 18.3594 12.4512 18.3594ZM12.4512 16.7603C12.8174 16.7603 13.147 16.7114 13.4521 16.6138L12.8418 15.7715C12.6587 15.5396 12.5977 15.3564 12.5977 15.1367C12.5977 14.7339 12.9395 14.4165 13.3545 14.4165C13.6475 14.4165 13.8428 14.5142 14.0381 14.7705L14.7583 15.7349C15.4785 14.978 15.8936 13.7939 15.8936 12.3291C15.8936 9.64355 14.5264 7.89795 12.4512 7.89795C10.376 7.89795 9.021 9.64355 9.021 12.3291C9.021 15.0146 10.376 16.7603 12.4512 16.7603Z" fill="#5ac8f5"/>
 </g>
</svg>
