<?xml version="1.0" encoding="UTF-8"?>
<!--Generator: Apple Native CoreSVG 175.5-->
<!DOCTYPE svg
PUBLIC "-//W3C//DTD SVG 1.1//EN"
       "http://www.w3.org/Graphics/SVG/1.1/DTD/svg11.dtd">
<svg version="1.1" xmlns="http://www.w3.org/2000/svg" xmlns:xlink="http://www.w3.org/1999/xlink" width="24.5972" height="21.106">
 <g>
  <rect height="21.106" opacity="0" width="24.5972" x="0" y="0"/>
  <path d="M0.915527 1.92871L23.6572 1.92871C24.1699 1.92871 24.5972 1.51367 24.5972 1.00098C24.5972 0.488281 24.1699 0.0854492 23.6572 0.0854492L0.915527 0.0854492C0.402832 0.0854492 0 0.488281 0 1.00098C0 1.51367 0.402832 1.92871 0.915527 1.92871ZM0.915527 8.31299L23.6572 8.31299C24.1699 8.31299 24.5972 7.91016 24.5972 7.39746C24.5972 6.88477 24.1699 6.46973 23.6572 6.46973L0.915527 6.46973C0.402832 6.46973 0 6.88477 0 7.39746C0 7.91016 0.402832 8.31299 0.915527 8.31299ZM15.3076 14.7095L23.6572 14.7095C24.1699 14.7095 24.5972 14.3066 24.5972 13.7939C24.5972 13.269 24.1699 12.8662 23.6572 12.8662L15.3076 12.8662C14.7949 12.8662 14.3921 13.269 14.3921 13.7939C14.3921 14.3066 14.7949 14.7095 15.3076 14.7095ZM15.3076 21.106L23.6572 21.106C24.1699 21.106 24.5972 20.7031 24.5972 20.1904C24.5972 19.6655 24.1699 19.2627 23.6572 19.2627L15.3076 19.2627C14.7949 19.2627 14.3921 19.6655 14.3921 20.1904C14.3921 20.7031 14.7949 21.106 15.3076 21.106Z" fill="#5ac8f5" fill-opacity="0.5"/>
  <path d="M0.012207 12.7563L0.012207 15.5151C0.012207 17.2485 1.23291 18.3105 2.9541 18.3105L6.55518 18.3105L6.55518 19.5801C6.55518 20.5688 7.49512 20.9473 8.26416 20.3247L11.5723 17.6758C12.0728 17.2852 12.0728 16.5894 11.5723 16.1865L8.26416 13.5498C7.51953 12.9639 6.55518 13.3301 6.55518 14.2944L6.55518 15.5151L3.22266 15.5151C2.94189 15.5151 2.80762 15.3564 2.80762 15.0879L2.80762 12.7563C2.80762 11.7676 2.29492 11.145 1.40381 11.145C0.512695 11.145 0.012207 11.7676 0.012207 12.7563Z" fill="#5ac8f5"/>
 </g>
</svg>
