<?xml version="1.0" encoding="UTF-8"?>
<!--Generator: Apple Native CoreSVG 175.5-->
<!DOCTYPE svg
PUBLIC "-//W3C//DTD SVG 1.1//EN"
       "http://www.w3.org/Graphics/SVG/1.1/DTD/svg11.dtd">
<svg version="1.1" xmlns="http://www.w3.org/2000/svg" xmlns:xlink="http://www.w3.org/1999/xlink" width="17.0532" height="22.7661">
 <g>
  <rect height="22.7661" opacity="0" width="17.0532" x="0" y="0"/>
  <path d="M0 13.2568C0 13.6963 0.354004 14.0503 0.793457 14.0503L3.32031 14.0503L3.32031 21.5942C3.32031 22.2412 3.83301 22.7661 4.47998 22.7661C5.12695 22.7661 5.65186 22.2412 5.65186 21.5942L5.65186 14.0503L10.144 14.0503C14.3677 14.0503 17.0532 11.2427 17.0532 7.32422C17.0532 3.41797 14.3921 0.57373 10.1685 0.57373L4.47998 0.57373C3.77197 0.57373 3.32031 1.0498 3.32031 1.78223L3.32031 12.4634L0.793457 12.4634C0.354004 12.4634 0 12.8174 0 13.2568ZM5.65186 12.0239L5.65186 2.64893L9.59473 2.64893C12.9517 2.64893 14.6606 4.45557 14.6606 7.32422C14.6606 10.2051 12.9272 12.0239 9.59473 12.0239ZM0 17.981C0 18.4204 0.354004 18.7866 0.793457 18.7866L11.5845 18.7866C12.0239 18.7866 12.3779 18.4204 12.3779 17.981C12.3779 17.5537 12.0239 17.1875 11.5845 17.1875L0.793457 17.1875C0.354004 17.1875 0 17.5537 0 17.981Z" fill="#5ac8f5"/>
 </g>
</svg>
