<?xml version="1.0" encoding="UTF-8"?>
<!--Generator: Apple Native CoreSVG 175.5-->
<!DOCTYPE svg
PUBLIC "-//W3C//DTD SVG 1.1//EN"
       "http://www.w3.org/Graphics/SVG/1.1/DTD/svg11.dtd">
<svg version="1.1" xmlns="http://www.w3.org/2000/svg" xmlns:xlink="http://www.w3.org/1999/xlink" width="19.9707" height="24.646">
 <g>
  <rect height="24.646" opacity="0" width="19.9707" x="0" y="0"/>
  <path d="M9.98535 24.646C10.1807 24.646 10.4858 24.5728 10.791 24.4141C17.7368 20.7764 19.9707 18.9575 19.9707 14.5752L19.9707 5.37109C19.9707 4.11377 19.4336 3.71094 18.4082 3.28369C16.98 2.69775 12.4146 1.0376 10.9985 0.549316C10.6689 0.439453 10.3271 0.378418 9.98535 0.378418C9.64355 0.378418 9.30176 0.45166 8.98438 0.549316C7.55615 1.01318 2.99072 2.70996 1.5625 3.28369C0.549316 3.69873 0 4.11377 0 5.37109L0 14.5752C0 18.9575 2.35596 20.5688 9.17969 24.4141C9.49707 24.585 9.79004 24.646 9.98535 24.646Z" fill="#5ac8f5" fill-opacity="0.25"/>
  <path d="M11.1572 6.7627C11.1572 6.21338 11.6943 6.05469 12.0972 6.32324L15.1978 8.43506C15.5762 8.69141 15.5884 9.17969 15.2344 9.41162L12.1094 11.5356C11.6943 11.8042 11.1572 11.6333 11.1572 11.0718L11.1572 9.74121L4.99268 9.74121C4.54102 9.74121 4.1626 9.375 4.1626 8.92334C4.1626 8.47168 4.54102 8.09326 4.99268 8.09326L11.1572 8.09326ZM4.43115 15.8447C4.07715 15.6006 4.07715 15.1123 4.45557 14.856L7.56836 12.7441C7.95898 12.4878 8.5083 12.6465 8.5083 13.1836L8.5083 14.5264L14.6729 14.5264C15.1245 14.5264 15.4907 14.9048 15.4907 15.3564C15.4907 15.8081 15.1245 16.1743 14.6729 16.1743L8.5083 16.1743L8.5083 17.5049C8.5083 18.0542 7.95898 18.2251 7.55615 17.9688Z" fill="#5ac8f5"/>
 </g>
</svg>
