<?xml version="1.0" encoding="UTF-8"?>
<!--Generator: Apple Native CoreSVG 175.5-->
<!DOCTYPE svg
PUBLIC "-//W3C//DTD SVG 1.1//EN"
       "http://www.w3.org/Graphics/SVG/1.1/DTD/svg11.dtd">
<svg version="1.1" xmlns="http://www.w3.org/2000/svg" xmlns:xlink="http://www.w3.org/1999/xlink" width="27.6855" height="25.5737">
 <g>
  <rect height="25.5737" opacity="0" width="27.6855" x="0" y="0"/>
  <path d="M5.29785 25.5737C6.9458 25.5737 10.3149 23.9136 12.793 22.1436C21.3013 22.3755 27.6855 17.4927 27.6855 11.0962C27.6855 4.95605 21.5332 0 13.8428 0C6.15234 0 0 4.95605 0 11.0962C0 15.1001 2.56348 18.6523 6.4209 20.4346C5.87158 21.4966 4.84619 22.937 4.29688 23.6572C3.6499 24.5117 4.04053 25.5737 5.29785 25.5737ZM6.57959 23.5474C6.48193 23.584 6.44531 23.5107 6.50635 23.4253C7.18994 22.583 8.1665 21.3135 8.58154 20.5322C8.92334 19.8975 8.83789 19.3359 8.05664 18.9697C4.22363 17.1875 2.02637 14.3433 2.02637 11.0962C2.02637 6.09131 7.26318 2.01416 13.8428 2.01416C20.4346 2.01416 25.6714 6.09131 25.6714 11.0962C25.6714 16.0889 20.4346 20.166 13.8428 20.166C13.5986 20.166 13.2202 20.1538 12.7319 20.1416C12.2192 20.1416 11.8286 20.3003 11.3647 20.6665C9.86328 21.7529 7.69043 23.0957 6.57959 23.5474Z" fill="#5ac8f5" fill-opacity="0.5"/>
  <path d="M12.5122 17.0044C12.915 17.0044 13.2568 16.8091 13.501 16.4429L19.0796 7.65381C19.2139 7.42188 19.3726 7.14111 19.3726 6.87256C19.3726 6.33545 18.8843 5.98145 18.3838 5.98145C18.0664 5.98145 17.7612 6.16455 17.5293 6.53076L12.4634 14.6606L10.0586 11.5479C9.76562 11.1572 9.49707 11.0474 9.16748 11.0474C8.63037 11.0474 8.21533 11.4746 8.21533 12.0239C8.21533 12.2803 8.3252 12.5488 8.49609 12.7808L11.4746 16.4429C11.7798 16.8457 12.1094 17.0044 12.5122 17.0044Z" fill="#5ac8f5"/>
 </g>
</svg>
