<?xml version="1.0" encoding="UTF-8"?>
<!--Generator: Apple Native CoreSVG 175.5-->
<!DOCTYPE svg
PUBLIC "-//W3C//DTD SVG 1.1//EN"
       "http://www.w3.org/Graphics/SVG/1.1/DTD/svg11.dtd">
<svg version="1.1" xmlns="http://www.w3.org/2000/svg" xmlns:xlink="http://www.w3.org/1999/xlink" width="24.9023" height="24.9146">
 <g>
  <rect height="24.9146" opacity="0" width="24.9023" x="0" y="0"/>
  <path d="M12.4512 24.9146C19.2627 24.9146 24.9023 19.2749 24.9023 12.4634C24.9023 5.66406 19.2505 0.012207 12.439 0.012207C5.63965 0.012207 0 5.66406 0 12.4634C0 19.2749 5.65186 24.9146 12.4512 24.9146ZM10.3394 16.7236C9.2041 16.7236 8.54492 16.1987 8.39844 15.1978L7.40967 8.23975L5.45654 8.23975C5.06592 8.23975 4.79736 7.97119 4.79736 7.58057C4.79736 7.17773 5.06592 6.90918 5.45654 6.90918L7.59277 6.90918C8.1665 6.90918 8.61816 7.27539 8.69141 7.8125L8.80127 8.65479L18.9819 8.65479C19.3481 8.65479 19.5679 8.87451 19.5679 9.17969C19.5679 9.22852 19.5557 9.33838 19.5312 9.41162L19.0308 12.8296C18.8965 13.7451 18.4204 14.3066 17.4805 14.3066L9.63135 14.3066L9.68018 14.7827C9.729 15.1733 9.98535 15.4053 10.3638 15.4053L17.1875 15.4053C17.5781 15.4053 17.8345 15.6616 17.8345 16.0522C17.8345 16.4673 17.5781 16.7236 17.1875 16.7236ZM10.5347 19.812C9.91211 19.812 9.41162 19.3237 9.41162 18.689C9.41162 18.042 9.91211 17.5537 10.5347 17.5537C11.1694 17.5537 11.6699 18.042 11.6699 18.689C11.6699 19.3237 11.1694 19.812 10.5347 19.812ZM16.1621 19.812C15.5396 19.812 15.0146 19.3237 15.0146 18.689C15.0146 18.042 15.5396 17.5537 16.1621 17.5537C16.7969 17.5537 17.2974 18.042 17.2974 18.689C17.2974 19.3237 16.7969 19.812 16.1621 19.812Z" fill="#5ac8f5"/>
 </g>
</svg>
