<?xml version="1.0" encoding="UTF-8"?>
<!--Generator: Apple Native CoreSVG 175.5-->
<!DOCTYPE svg
PUBLIC "-//W3C//DTD SVG 1.1//EN"
       "http://www.w3.org/Graphics/SVG/1.1/DTD/svg11.dtd">
<svg version="1.1" xmlns="http://www.w3.org/2000/svg" xmlns:xlink="http://www.w3.org/1999/xlink" width="34.1156" height="30.9937">
 <g>
  <rect height="30.9937" opacity="0" width="34.1156" x="0" y="0"/>
  <path d="M18.6249 26.2085C24.5453 26.2085 29.3549 21.4111 29.3549 15.4907C29.3549 9.57031 24.5453 4.76074 18.6249 4.76074C12.7045 4.76074 7.8949 9.57031 7.8949 15.4907C7.8949 21.4111 12.7045 26.2085 18.6249 26.2085ZM18.6249 0C11.8011 0 6.00281 4.41895 3.93982 10.5469C4.64783 10.4492 5.33142 10.6323 5.85632 11.0596C7.68738 5.76172 12.7045 1.96533 18.6249 1.96533C26.0956 1.96533 32.1503 8.02002 32.1503 15.4907C32.1503 22.9614 26.0956 29.0161 18.6249 29.0161C12.7167 29.0161 7.69958 25.2319 5.85632 19.9463C5.34363 20.3613 4.66003 20.5566 3.95203 20.459C6.02722 26.5747 11.8134 30.9814 18.6249 30.9814C27.182 30.9814 34.1156 24.0479 34.1156 15.4907C34.1156 6.93359 27.182 0 18.6249 0ZM3.61023 12.4146L0.338745 14.856C-0.112915 15.1855-0.112915 15.8081 0.338745 16.1377L3.61023 18.5791C4.2572 19.0674 5.09949 18.811 5.09949 17.9443L5.09949 13.0493C5.09949 12.207 4.28162 11.9019 3.61023 12.4146ZM15.5487 20.9717C14.9384 20.9717 14.6088 20.5444 14.6088 19.8975L14.6088 11.0229C14.6088 10.3638 14.9384 9.92432 15.5365 9.92432L18.9911 9.92432C21.4081 9.92432 22.9462 11.3037 22.9462 13.4521C22.9462 14.9414 22.0428 16.1865 20.6512 16.6504L22.4335 19.458C22.58 19.7021 22.641 19.8853 22.641 20.1538C22.641 20.6421 22.287 20.9717 21.7743 20.9717C21.347 20.9717 21.1029 20.8008 20.8221 20.3491L18.7469 16.9312L16.5253 16.9312L16.5253 19.8975C16.5253 20.5688 16.1835 20.9717 15.5487 20.9717ZM16.5253 15.5273L18.7103 15.5273C20.1385 15.5273 21.0541 14.7949 21.0541 13.501C21.0541 12.1582 20.1263 11.4014 18.7469 11.4014L16.5253 11.4014Z" fill="#5ac8f5"/>
 </g>
</svg>
