<?xml version="1.0" encoding="UTF-8"?>
<!--Generator: Apple Native CoreSVG 175.5-->
<!DOCTYPE svg
PUBLIC "-//W3C//DTD SVG 1.1//EN"
       "http://www.w3.org/Graphics/SVG/1.1/DTD/svg11.dtd">
<svg version="1.1" xmlns="http://www.w3.org/2000/svg" xmlns:xlink="http://www.w3.org/1999/xlink" width="22.9126" height="24.0601">
 <g>
  <rect height="24.0601" opacity="0" width="22.9126" x="0" y="0"/>
  <path d="M0 14.3066C0 17.4072 2.0752 19.4824 5.18799 19.4824C6.79932 19.4824 8.30078 18.811 9.15527 17.8589L8.92334 17.4072C8.59375 19.1772 7.39746 20.4956 6.75049 21.2402C5.99365 22.1802 6.35986 23.4253 7.67822 23.4253L15.2344 23.4253C16.5527 23.4253 16.9189 22.1802 16.1499 21.2402C15.5151 20.4956 14.3188 19.1772 13.9893 17.4072L13.7573 17.8589C14.6118 18.811 16.1133 19.4824 17.7246 19.4824C20.8374 19.4824 22.9126 17.4072 22.9126 14.3066C22.9126 9.15527 15.6128 6.62842 12.6465 0.891113C12.3901 0.390625 12.1094 0 11.4502 0C10.791 0 10.5225 0.390625 10.2661 0.891113C7.2998 6.62842 0 9.15527 0 14.3066ZM1.79443 14.2822C1.79443 10.1685 8.58154 8.1543 11.4502 1.98975C14.3188 8.1543 21.1182 10.1685 21.1182 14.2822C21.1182 16.394 19.7144 17.7856 17.6025 17.7856C16.1255 17.7856 14.9292 17.1509 14.1357 16.4185C13.3911 15.7715 12.3413 16.0767 12.3901 17.1875C12.5122 18.4448 13.3667 20.3247 14.2212 21.3623C14.4043 21.5698 14.2944 21.7407 14.1113 21.7407L8.80127 21.7407C8.61816 21.7407 8.5083 21.5698 8.69141 21.3623C9.5459 20.3247 10.3882 18.4448 10.5225 17.1875C10.5713 16.0767 9.52148 15.7715 8.77686 16.4185C7.97119 17.1509 6.78711 17.7856 5.31006 17.7856C3.19824 17.7856 1.79443 16.394 1.79443 14.2822Z" fill="#5ac8f5"/>
 </g>
</svg>
