<?xml version="1.0" encoding="UTF-8"?>
<!--Generator: Apple Native CoreSVG 175.5-->
<!DOCTYPE svg
PUBLIC "-//W3C//DTD SVG 1.1//EN"
       "http://www.w3.org/Graphics/SVG/1.1/DTD/svg11.dtd">
<svg version="1.1" xmlns="http://www.w3.org/2000/svg" xmlns:xlink="http://www.w3.org/1999/xlink" width="15.7959" height="22.7661">
 <g>
  <rect height="22.7661" opacity="0" width="15.7959" x="0" y="0"/>
  <path d="M4.26025 22.7661C4.94385 22.7661 5.43213 22.2534 5.43213 21.5698L5.43213 12.3169L13.8306 12.3169C14.4531 12.3169 14.917 11.9141 14.917 11.2793C14.917 10.6445 14.4531 10.2417 13.8306 10.2417L5.43213 10.2417L5.43213 2.67334L14.7095 2.67334C15.3442 2.67334 15.7959 2.27051 15.7959 1.62354C15.7959 0.98877 15.3442 0.57373 14.7095 0.57373L4.26025 0.57373C3.54004 0.57373 3.08838 1.0498 3.08838 1.78223L3.08838 21.5698C3.08838 22.2656 3.56445 22.7661 4.26025 22.7661ZM0 17.8223C0 18.2495 0.354004 18.6157 0.793457 18.6157L10.7422 18.6157C11.1816 18.6157 11.5479 18.2495 11.5479 17.8223C11.5479 17.3828 11.1816 17.0166 10.7422 17.0166L0.793457 17.0166C0.354004 17.0166 0 17.3828 0 17.8223Z" fill="#5ac8f5"/>
 </g>
</svg>
