<?xml version="1.0" encoding="UTF-8"?>
<!--Generator: Apple Native CoreSVG 175.5-->
<!DOCTYPE svg
PUBLIC "-//W3C//DTD SVG 1.1//EN"
       "http://www.w3.org/Graphics/SVG/1.1/DTD/svg11.dtd">
<svg version="1.1" xmlns="http://www.w3.org/2000/svg" xmlns:xlink="http://www.w3.org/1999/xlink" width="22.4731" height="22.4976">
 <g>
  <rect height="22.4976" opacity="0" width="22.4731" x="0" y="0"/>
  <path d="M3.83301 22.4976L18.6401 22.4976C21.2036 22.4976 22.4731 21.228 22.4731 18.7134L22.4731 3.80859C22.4731 1.29395 21.2036 0.0244141 18.6401 0.0244141L3.83301 0.0244141C1.28174 0.0244141 0 1.28174 0 3.80859L0 18.7134C0 21.2402 1.28174 22.4976 3.83301 22.4976Z" fill="#5ac8f5" fill-opacity="0.25"/>
  <path d="M8.64258 17.7734L4.90723 14.0137C4.13818 13.2568 4.13818 12.5122 4.91943 11.731L10.9375 5.63965C11.4136 5.15137 11.7554 4.79736 12.5122 4.79736L14.978 4.79736C15.5396 4.79736 15.8691 5.0415 16.2598 5.41992L17.3462 6.49414C17.7368 6.88477 17.8833 7.21436 17.8833 7.78809L17.8833 10.144C17.8833 10.9253 17.5171 11.2549 17.041 11.731L10.9497 17.7612C10.1685 18.5425 9.41162 18.5303 8.64258 17.7734ZM13.4888 9.19189C13.8306 9.5459 14.3921 9.5459 14.7461 9.17969C15.1001 8.82568 15.1001 8.26416 14.7461 7.92236C14.3921 7.56836 13.8306 7.56836 13.4888 7.92236C13.1348 8.27637 13.1348 8.8501 13.4888 9.19189Z" fill="#5ac8f5"/>
 </g>
</svg>
