<?xml version="1.0" encoding="UTF-8"?>
<!--Generator: Apple Native CoreSVG 175.5-->
<!DOCTYPE svg
PUBLIC "-//W3C//DTD SVG 1.1//EN"
       "http://www.w3.org/Graphics/SVG/1.1/DTD/svg11.dtd">
<svg version="1.1" xmlns="http://www.w3.org/2000/svg" xmlns:xlink="http://www.w3.org/1999/xlink" width="24.9023" height="24.9146">
 <g>
  <rect height="24.9146" opacity="0" width="24.9023" x="0" y="0"/>
  <path d="M12.9395 21.6797C14.502 21.6797 18.7744 16.0645 18.7744 13.9648C18.7744 12.7808 16.1377 10.4736 14.7583 10.4736C14.1602 10.4736 13.1958 11.3281 12.5 11.3281C11.8042 11.3281 10.2417 9.96094 10.2417 9.36279C10.2417 9.021 10.5347 8.82568 10.8765 8.82568C11.4746 8.82568 12.4146 9.82666 13.3667 9.82666C14.1602 9.82666 14.5874 9.27734 14.5874 8.48389C14.5874 8.06885 14.3555 7.65381 14.0137 7.1167C15.271 6.50635 17.7856 5.18799 18.6035 3.50342C17.688 2.0874 15.2588 1.15967 12.4268 1.15967C8.23975 1.15967 4.11377 3.62549 3.74756 6.01807C3.61328 7.2998 4.58984 8.70361 6.29883 10.1929L8.08105 11.7432C8.64258 12.2437 8.97217 12.4756 8.97217 12.793C8.97217 13.3179 8.38623 13.6841 8.38623 14.3555C8.38623 14.9658 8.6792 15.4907 9.31396 15.9546C11.2915 17.4438 11.7676 17.6514 11.7676 18.103C11.7798 18.9087 11.3037 19.519 11.3037 20.2637C11.3037 20.9351 12.1704 21.6797 12.9395 21.6797ZM12.4512 24.9023C19.2627 24.9023 24.9023 19.2505 24.9023 12.4512C24.9023 5.63965 19.2505 0 12.439 0C5.63965 0 0 5.63965 0 12.4512C0 19.2505 5.65186 24.9023 12.4512 24.9023ZM12.4512 23.2422C6.55518 23.2422 1.66016 18.3472 1.66016 12.4512C1.66016 6.55518 6.54297 1.66016 12.439 1.66016C18.335 1.66016 23.2422 6.55518 23.2422 12.4512C23.2422 18.3472 18.3472 23.2422 12.4512 23.2422Z" fill="#5ac8f5"/>
 </g>
</svg>
