<?xml version="1.0" encoding="UTF-8"?>
<!--Generator: Apple Native CoreSVG 175.5-->
<!DOCTYPE svg
PUBLIC "-//W3C//DTD SVG 1.1//EN"
       "http://www.w3.org/Graphics/SVG/1.1/DTD/svg11.dtd">
<svg version="1.1" xmlns="http://www.w3.org/2000/svg" xmlns:xlink="http://www.w3.org/1999/xlink" width="26.9531" height="31.4331">
 <g>
  <rect height="31.4331" opacity="0" width="26.9531" x="0" y="0"/>
  <path d="M3.83301 27.9663L23.1201 27.9663C25.6714 27.9663 26.9531 26.6968 26.9531 24.1821L26.9531 12.0361C26.9531 10.2783 26.5869 9.49707 25.4272 8.58154L15.9912 1.15967C15.1123 0.45166 14.3799 0 13.4766 0C12.5732 0 11.8408 0.45166 10.9619 1.15967L1.52588 8.58154C0.366211 9.49707 0 10.2783 0 12.0361L0 24.1821C0 26.709 1.28174 27.9663 3.83301 27.9663ZM3.75977 26.0986C2.53906 26.0986 1.86768 25.4517 1.86768 24.1821L1.86768 11.7065C1.86768 10.8276 2.09961 10.4004 2.68555 9.94873L12.0117 2.67334C12.6099 2.20947 12.9395 1.95312 13.4766 1.95312C14.0015 1.95312 14.3433 2.20947 14.9414 2.67334L24.2676 9.94873C24.8535 10.4004 25.0854 10.8276 25.0854 11.7065L25.0854 24.1821C25.0854 25.4517 24.3896 26.0986 23.1934 26.0986ZM1.37939 25.6592L2.66113 26.9287L12.0239 17.7002C12.5366 17.1753 13.0127 16.9434 13.501 16.9434C13.9771 16.9434 14.4531 17.1753 14.978 17.7002L24.3408 26.9287L25.6104 25.6592L16.04 16.2598C15.1855 15.4053 14.3555 15.0635 13.501 15.0635C12.6343 15.0635 11.8164 15.4053 10.9619 16.2598ZM9.05762 18.4692L10.3394 17.2119L2.70996 9.66797L1.44043 10.9375ZM16.6626 17.2119L17.9321 18.4692L25.5493 10.9375L24.2798 9.66797Z" fill="#5ac8f5"/>
 </g>
</svg>
