<?xml version="1.0" encoding="UTF-8"?>
<!--Generator: Apple Native CoreSVG 175.5-->
<!DOCTYPE svg
PUBLIC "-//W3C//DTD SVG 1.1//EN"
       "http://www.w3.org/Graphics/SVG/1.1/DTD/svg11.dtd">
<svg version="1.1" xmlns="http://www.w3.org/2000/svg" xmlns:xlink="http://www.w3.org/1999/xlink" width="16.4067" height="29.6997">
 <g>
  <rect height="29.6997" opacity="0" width="16.4067" x="0" y="0"/>
  <path d="M6.12793 5.33447C7.59277 5.33447 8.80127 4.12598 8.80127 2.66113C8.80127 1.2085 7.59277 0 6.12793 0C4.66309 0 3.4668 1.2085 3.4668 2.66113C3.4668 4.12598 4.66309 5.33447 6.12793 5.33447ZM12.4756 24.707C12.9883 24.4629 13.3179 23.8647 12.9883 23.0347L10.8398 17.6514C10.7788 17.4805 10.6567 17.3462 10.3882 17.1509L6.45752 14.2456L6.75049 9.91211C6.7627 9.66797 6.9458 9.59473 7.17773 9.66797L9.729 10.5347C9.97314 10.6079 10.2783 10.6445 10.5469 10.6079L15.2832 10.083C16.9678 9.8877 16.6626 7.43408 15.0024 7.61719L10.4126 8.14209L5.7373 6.5918C4.02832 6.01807 2.55127 6.98242 2.40479 8.69141L2.06299 12.9639C1.95312 14.2456 2.62451 15.4907 3.72314 16.1255L8.71582 19.0186L10.6934 23.9502C11.0352 24.8169 11.8896 25 12.4756 24.707ZM1.0498 26.9043C1.55029 27.1362 2.18506 27.063 2.62451 26.416L5.85938 21.5942C5.95703 21.4355 6.04248 21.2158 6.05469 20.9473L6.18896 18.7744L3.41797 17.1631L3.57666 20.5688L0.598145 25.0366C0.0732422 25.8423 0.45166 26.6235 1.0498 26.9043ZM10.5103 28.5645L15.2954 26.9775C15.6494 26.8555 15.8325 26.6113 15.8325 26.1963L15.8325 11.1694C15.686 11.2061 15.5273 11.2427 15.3564 11.2671L14.4775 11.3647L14.4775 25.8179L10.1074 27.2705C9.63135 27.4414 9.50928 27.8564 9.64355 28.186C9.74121 28.479 10.0708 28.7109 10.5103 28.5645ZM0.671387 29.6753L5.67627 29.6753C6.05469 29.6753 6.37207 29.3579 6.37207 28.9917C6.37207 28.6133 6.05469 28.3203 5.67627 28.3203L0.671387 28.3203C0.292969 28.3203 0 28.6133 0 28.9917C0 29.3579 0.292969 29.6753 0.671387 29.6753Z" fill="#5ac8f5"/>
 </g>
</svg>
