<?xml version="1.0" encoding="UTF-8"?>
<!--Generator: Apple Native CoreSVG 175.5-->
<!DOCTYPE svg
PUBLIC "-//W3C//DTD SVG 1.1//EN"
       "http://www.w3.org/Graphics/SVG/1.1/DTD/svg11.dtd">
<svg version="1.1" xmlns="http://www.w3.org/2000/svg" xmlns:xlink="http://www.w3.org/1999/xlink" width="15.3833" height="23.0591">
 <g>
  <rect height="23.0591" opacity="0" width="15.3833" x="0" y="0"/>
  <path d="M0.983521 23.0591C1.55725 23.0591 1.83801 22.7539 1.93567 22.2534L4.35266 9.94873L3.13196 10.9375L12.2384 10.9375L11.0177 9.94873L13.4347 22.2534C13.5323 22.7539 13.8131 23.0591 14.3868 23.0591C15.2047 23.0591 15.4855 22.4976 15.3512 21.8384L13.0685 10.2173C12.922 9.44824 12.275 8.88672 11.5304 8.88672L3.85217 8.88672C3.10754 8.88672 2.46057 9.44824 2.31409 10.2173L0.0313725 21.8384C-0.102905 22.4976 0.190064 23.0591 0.983521 23.0591ZM3.58362 9.87549L11.799 9.87549L8.7594 0.805664C8.57629 0.292969 8.2345 0 7.7096 0C7.16028 0 6.78186 0.292969 6.61096 0.805664Z" fill="#5ac8f5"/>
 </g>
</svg>
