<?xml version="1.0" encoding="UTF-8"?>
<!--Generator: Apple Native CoreSVG 175.5-->
<!DOCTYPE svg
PUBLIC "-//W3C//DTD SVG 1.1//EN"
       "http://www.w3.org/Graphics/SVG/1.1/DTD/svg11.dtd">
<svg version="1.1" xmlns="http://www.w3.org/2000/svg" xmlns:xlink="http://www.w3.org/1999/xlink" width="24.9023" height="24.9146">
 <g>
  <rect height="24.9146" opacity="0" width="24.9023" x="0" y="0"/>
  <path d="M2.0874 12.4512C2.0874 11.3403 2.2583 10.2661 2.57568 9.27734L0.65918 8.47168C0.244141 9.729 0 11.0596 0 12.4512C0 13.8306 0.244141 15.1733 0.671387 16.4307L2.57568 15.625C2.2583 14.6362 2.0874 13.562 2.0874 12.4512ZM7.70264 3.19824L6.92139 1.31836C4.50439 2.52686 2.51465 4.5166 1.30615 6.93359L3.21045 7.72705C4.18701 5.78613 5.77393 4.19922 7.70264 3.19824ZM12.439 2.0752C13.5498 2.0752 14.624 2.24609 15.6372 2.57568L16.4185 0.671387C15.1611 0.244141 13.8184 0 12.439 0C11.0596 0 9.70459 0.244141 8.44727 0.671387L9.25293 2.57568C10.2539 2.24609 11.3281 2.0752 12.439 2.0752ZM21.6919 7.71484L23.584 6.93359C22.3633 4.5166 20.3735 2.52686 17.9565 1.30615L17.1753 3.19824C19.104 4.18701 20.7031 5.77393 21.6919 7.71484ZM22.8271 12.4512C22.8271 13.562 22.6562 14.6362 22.3389 15.6372L24.231 16.4429C24.6582 15.1855 24.9023 13.8306 24.9023 12.4512C24.9023 11.0596 24.6582 9.7168 24.231 8.45947L22.3267 9.26514C22.6562 10.2661 22.8271 11.3403 22.8271 12.4512ZM12.4512 24.9023C17.2363 24.9023 21.5088 22.0825 23.584 17.9688L21.6919 17.1875C21.2646 17.9932 20.7642 18.7378 20.166 19.397C18.9453 17.9565 16.1377 16.6016 12.4512 16.6016C8.76465 16.6016 5.95703 17.9565 4.73633 19.397C4.15039 18.7256 3.62549 17.9932 3.21045 17.1875L1.31836 17.9688C3.39355 22.0825 7.66602 24.9023 12.4512 24.9023ZM12.4512 14.5264C14.7949 14.5508 16.6382 12.5488 16.6382 9.92432C16.6382 7.4585 14.7949 5.41992 12.4512 5.41992C10.1074 5.41992 8.25195 7.4585 8.26416 9.92432C8.27637 12.5488 10.1074 14.502 12.4512 14.5264Z" fill="#5ac8f5"/>
 </g>
</svg>
