<?xml version="1.0" encoding="UTF-8"?>
<!--Generator: Apple Native CoreSVG 175.5-->
<!DOCTYPE svg
PUBLIC "-//W3C//DTD SVG 1.1//EN"
       "http://www.w3.org/Graphics/SVG/1.1/DTD/svg11.dtd">
<svg version="1.1" xmlns="http://www.w3.org/2000/svg" xmlns:xlink="http://www.w3.org/1999/xlink" width="29.8828" height="22.4243">
 <g>
  <rect height="22.4243" opacity="0" width="29.8828" x="0" y="0"/>
  <path d="M17.9565 22.3999C18.5547 22.3999 19.043 22.1558 19.6289 21.6064L29.2603 12.5122C29.7363 12.0728 29.8828 11.6089 29.8828 11.2061C29.8828 10.791 29.7363 10.3271 29.2603 9.8877L19.6289 0.878906C18.9819 0.268555 18.5791 0 17.981 0C17.1265 0 16.5283 0.683594 16.5283 1.50146L16.5283 6.23779L8.60596 6.23779C6.49414 6.23779 5.59082 7.1167 5.59082 9.19189L5.59082 11.7432L3.01514 11.7432C0.90332 11.7432 0 12.6099 0 14.6851L0 19.3726C0 21.4478 0.90332 22.3267 3.01514 22.3267L10.376 22.3267C12.4878 22.3267 13.3911 21.4478 13.3911 19.3726L13.3911 16.5894L16.5283 16.5894L16.5283 20.9717C16.5283 21.7896 17.1265 22.3999 17.9565 22.3999ZM11.9995 19.4824L7.06787 17.4194C5.87158 16.9189 5.43213 16.394 5.37109 15.4297C5.35889 15.1855 5.61523 15.1367 5.7251 15.3687C6.09131 16.1743 6.92139 16.5894 8.14209 16.5894L12.1582 16.5894L12.1582 19.4092C12.1582 19.4824 12.0728 19.519 11.9995 19.4824Z" fill="#5ac8f5"/>
 </g>
</svg>
