<?xml version="1.0" encoding="UTF-8"?>
<!--Generator: Apple Native CoreSVG 175.5-->
<!DOCTYPE svg
PUBLIC "-//W3C//DTD SVG 1.1//EN"
       "http://www.w3.org/Graphics/SVG/1.1/DTD/svg11.dtd">
<svg version="1.1" xmlns="http://www.w3.org/2000/svg" xmlns:xlink="http://www.w3.org/1999/xlink" width="26.0986" height="20.3491">
 <g>
  <rect height="20.3491" opacity="0" width="26.0986" x="0" y="0"/>
  <path d="M26.0986 11.6577C26.0986 7.56836 23.9624 4.12598 18.75 2.35596L12.5488 0.292969C12.3413 0.20752 12.1094 0.146484 11.8164 0.146484C11.084 0.146484 10.4858 0.720215 10.4858 1.59912C10.4858 2.17285 10.7666 2.6001 11.4258 2.88086L15.8691 4.77295C16.2354 4.91943 16.3574 5.10254 16.3574 5.31006C16.3574 5.54199 16.1621 5.76172 15.8203 5.76172L1.57471 5.76172C0.622559 5.76172 0 6.35986 0 7.21436C0 8.02002 0.622559 8.64258 1.57471 8.64258L11.3037 8.64258C11.8164 8.64258 12.0728 8.89893 12.0728 9.24072C12.0728 9.5459 11.8164 9.81445 11.3037 9.81445L8.39844 9.81445C7.97119 9.81445 7.73926 10.0586 7.73926 10.5591C7.73926 11.6577 8.44727 12.5366 9.92432 12.5366L11.3037 12.5366C11.8164 12.5366 12.0728 12.793 12.0728 13.1348C12.0728 13.4399 11.8164 13.7085 11.3037 13.7085L9.81445 13.7085C9.375 13.7085 9.16748 13.9404 9.16748 14.4531C9.16748 15.6006 10.0342 16.4429 11.3647 16.4429L12.0728 16.4429C12.5977 16.4429 12.8418 16.7114 12.8418 17.041C12.8418 17.3462 12.5977 17.6147 12.0728 17.6147L10.9863 17.6147C10.7178 17.6147 10.5713 17.7734 10.5713 18.042C10.5713 19.2627 11.9507 20.3491 14.209 20.3491L16.6504 20.3491C22.6196 20.3491 26.0986 17.2241 26.0986 11.6577Z" fill="#5ac8f5"/>
 </g>
</svg>
