<?xml version="1.0" encoding="UTF-8"?>
<!--Generator: Apple Native CoreSVG 175.5-->
<!DOCTYPE svg
PUBLIC "-//W3C//DTD SVG 1.1//EN"
       "http://www.w3.org/Graphics/SVG/1.1/DTD/svg11.dtd">
<svg version="1.1" xmlns="http://www.w3.org/2000/svg" xmlns:xlink="http://www.w3.org/1999/xlink" width="24.9023" height="24.9146">
 <g>
  <rect height="24.9146" opacity="0" width="24.9023" x="0" y="0"/>
  <path d="M12.4512 24.9023C19.2627 24.9023 24.9023 19.2505 24.9023 12.4512C24.9023 5.63965 19.2505 0 12.439 0C5.63965 0 0 5.63965 0 12.4512C0 19.2505 5.65186 24.9023 12.4512 24.9023ZM8.31299 18.3472C7.73926 18.3472 7.37305 17.9932 7.37305 17.4805C7.37305 17.2852 7.39746 17.1021 7.50732 16.8213L11.0352 7.32422C11.2915 6.66504 11.7554 6.32324 12.439 6.32324C13.1348 6.32324 13.6108 6.66504 13.855 7.32422L17.395 16.8213C17.4927 17.1021 17.5293 17.2852 17.5293 17.4805C17.5293 17.9932 17.1509 18.3472 16.5894 18.3472C16.1255 18.3472 15.8081 18.1274 15.6128 17.5415L14.6973 14.8682L10.2051 14.8682L9.28955 17.5415C9.09424 18.1396 8.76465 18.3472 8.31299 18.3472ZM10.7056 13.3423L14.1846 13.3423L12.5122 8.48389L12.3779 8.48389Z" fill="#5ac8f5"/>
 </g>
</svg>
