<?xml version="1.0" encoding="UTF-8"?>
<!--Generator: Apple Native CoreSVG 175.5-->
<!DOCTYPE svg
PUBLIC "-//W3C//DTD SVG 1.1//EN"
       "http://www.w3.org/Graphics/SVG/1.1/DTD/svg11.dtd">
<svg version="1.1" xmlns="http://www.w3.org/2000/svg" xmlns:xlink="http://www.w3.org/1999/xlink" width="23.845" height="27.5757">
 <g>
  <rect height="27.5757" opacity="0" width="23.845" x="0" y="0"/>
  <path d="M10.9483 3.89404L12.9136 3.89404L12.9136 0.98877C12.9136 0.45166 12.4619 0 11.9248 0C11.3877 0 10.9483 0.45166 10.9483 0.98877ZM7.84766 11.1938L19.2002 11.1938C19.896 11.1938 20.3843 10.9985 20.8359 10.5591L23.1797 8.3252C24.0708 7.4707 24.0708 6.66504 23.1553 5.76172L20.8359 3.51562C20.3965 3.08838 19.9082 2.90527 19.2124 2.90527L7.84766 2.90527C6.76124 2.90527 6.11427 3.50342 6.11427 4.62646L6.11427 9.47266C6.11427 10.5835 6.76124 11.1938 7.84766 11.1938ZM4.63722 21.4111L15.9898 21.4111C17.0884 21.4111 17.7232 20.8008 17.7232 19.6899L17.7232 14.8315C17.7232 13.7207 17.0884 13.1104 15.9898 13.1104L4.62501 13.1104C3.94141 13.1104 3.45313 13.3057 3.00147 13.7329L0.694344 15.979C-0.221183 16.8701-0.23339 17.688 0.66993 18.5547L3.00147 20.7764C3.46534 21.2158 3.95362 21.4111 4.63722 21.4111ZM10.9483 13.8916L12.9136 13.8916L12.9136 10.3394L10.9483 10.3394ZM10.9483 26.5869L12.9136 26.5869L12.9136 20.0317L10.9483 20.0317ZM7.70118 27.5024L16.1362 27.5024C16.6733 27.5024 17.1128 27.063 17.1128 26.5259C17.1128 25.9888 16.6733 25.5371 16.1362 25.5371L7.70118 25.5371C7.16407 25.5371 6.72462 25.9888 6.72462 26.5259C6.72462 27.063 7.16407 27.5024 7.70118 27.5024Z" fill="#5ac8f5"/>
 </g>
</svg>
