<?xml version="1.0" encoding="UTF-8"?>
<!--Generator: Apple Native CoreSVG 175.5-->
<!DOCTYPE svg
PUBLIC "-//W3C//DTD SVG 1.1//EN"
       "http://www.w3.org/Graphics/SVG/1.1/DTD/svg11.dtd">
<svg version="1.1" xmlns="http://www.w3.org/2000/svg" xmlns:xlink="http://www.w3.org/1999/xlink" width="22.4731" height="22.4976">
 <g>
  <rect height="22.4976" opacity="0" width="22.4731" x="0" y="0"/>
  <path d="M3.83301 22.4976L18.6401 22.4976C21.2036 22.4976 22.4731 21.228 22.4731 18.7134L22.4731 3.80859C22.4731 1.29395 21.2036 0.0244141 18.6401 0.0244141L3.83301 0.0244141C1.28174 0.0244141 0 1.28174 0 3.80859L0 18.7134C0 21.2402 1.28174 22.4976 3.83301 22.4976ZM4.58984 16.3818C4.13818 16.3818 3.84521 16.0889 3.84521 15.6372C3.84521 15.3809 3.93066 15.1611 4.12598 14.9536L7.44629 11.0474C8.04443 10.3516 8.70361 9.64355 8.70361 8.82568C8.70361 7.89795 8.04443 7.27539 7.03125 7.27539C6.12793 7.27539 5.50537 7.72705 5.18799 8.6792C5.00488 9.05762 4.82178 9.26514 4.46777 9.26514C4.02832 9.26514 3.75977 8.95996 3.75977 8.5083C3.75977 8.36182 3.78418 8.21533 3.80859 8.05664C4.13818 6.7749 5.46875 5.81055 6.97021 5.81055C8.94775 5.81055 10.2295 6.93359 10.2295 8.69141C10.2295 9.94873 9.53369 10.8521 8.60596 11.9385L6.14014 14.7949L6.14014 14.8926L9.80225 14.8926C10.1929 14.8926 10.498 15.1489 10.498 15.625C10.498 16.0767 10.1929 16.3818 9.80225 16.3818ZM15.4541 16.6748C13.269 16.6748 11.8286 15.4419 11.8286 13.5986C11.8286 12.3169 12.5977 11.2549 13.9648 10.9741L13.9648 10.9009C12.793 10.5591 12.1948 9.68018 12.1948 8.58154C12.1948 6.9458 13.5498 5.81055 15.4785 5.81055C17.4194 5.81055 18.7744 6.9458 18.7744 8.58154C18.7744 9.68018 18.1641 10.5835 17.0044 10.9009L17.0044 10.9741C18.3472 11.2549 19.1406 12.3047 19.1406 13.5864C19.1406 15.4175 17.6514 16.6748 15.4541 16.6748ZM15.4907 15.3564C16.687 15.3564 17.5537 14.5874 17.5537 13.4888C17.5537 12.3901 16.7114 11.6089 15.4907 11.6089C14.2944 11.6089 13.4399 12.4023 13.4399 13.4888C13.4399 14.5874 14.2944 15.3564 15.4907 15.3564ZM15.4785 10.4004C16.4673 10.4004 17.1631 9.69238 17.1631 8.74023C17.1631 7.78809 16.4673 7.12891 15.4785 7.12891C14.502 7.12891 13.8062 7.78809 13.8062 8.74023C13.8062 9.69238 14.502 10.4004 15.4785 10.4004Z" fill="#5ac8f5"/>
 </g>
</svg>
