<?xml version="1.0" encoding="UTF-8"?>
<!--Generator: Apple Native CoreSVG 175.5-->
<!DOCTYPE svg
PUBLIC "-//W3C//DTD SVG 1.1//EN"
       "http://www.w3.org/Graphics/SVG/1.1/DTD/svg11.dtd">
<svg version="1.1" xmlns="http://www.w3.org/2000/svg" xmlns:xlink="http://www.w3.org/1999/xlink" width="24.9023" height="24.9146">
 <g>
  <rect height="24.9146" opacity="0" width="24.9023" x="0" y="0"/>
  <path d="M12.4512 24.9146C19.2627 24.9146 24.9023 19.2749 24.9023 12.4634C24.9023 5.66406 19.2505 0.012207 12.439 0.012207C5.63965 0.012207 0 5.66406 0 12.4634C0 19.2749 5.65186 24.9146 12.4512 24.9146ZM7.26318 18.0786C5.94482 18.0786 5.28564 17.4438 5.28564 16.1133L5.28564 9.85107C5.28564 8.53271 5.94482 7.88574 7.26318 7.88574L8.60596 7.88574L8.60596 7.23877C8.60596 6.23779 9.26514 5.63965 10.3027 5.63965L14.5996 5.63965C15.6372 5.63965 16.2964 6.23779 16.2964 7.23877L16.2964 7.88574L17.6392 7.88574C18.9575 7.88574 19.6289 8.53271 19.6289 9.85107L19.6289 16.1133C19.6289 17.4438 18.9575 18.0786 17.6392 18.0786ZM9.82666 7.88574L15.0879 7.88574L15.0879 7.2998C15.0879 6.97021 14.8804 6.7749 14.5386 6.7749L10.3882 6.7749C10.0342 6.7749 9.82666 6.97021 9.82666 7.2998ZM9.47266 13.5376C9.47266 13.8794 9.69238 14.0991 10.0342 14.0991L11.3281 14.0991L11.3281 15.3931C11.3281 15.7227 11.5601 15.9424 11.8896 15.9424L13.0127 15.9424C13.3545 15.9424 13.5742 15.7227 13.5742 15.3931L13.5742 14.0991L14.8682 14.0991C15.21 14.0991 15.4297 13.8794 15.4297 13.5376L15.4297 12.3901C15.4297 12.0605 15.21 11.8408 14.8682 11.8408L13.5742 11.8408L13.5742 10.5469C13.5742 10.2173 13.3545 9.99756 13.0127 9.99756L11.8896 9.99756C11.5601 9.99756 11.3281 10.2173 11.3281 10.5469L11.3281 11.8408L10.0342 11.8408C9.69238 11.8408 9.47266 12.0605 9.47266 12.3901Z" fill="#5ac8f5"/>
 </g>
</svg>
