<?xml version="1.0" encoding="UTF-8"?>
<!--Generator: Apple Native CoreSVG 175.5-->
<!DOCTYPE svg
PUBLIC "-//W3C//DTD SVG 1.1//EN"
       "http://www.w3.org/Graphics/SVG/1.1/DTD/svg11.dtd">
<svg version="1.1" xmlns="http://www.w3.org/2000/svg" xmlns:xlink="http://www.w3.org/1999/xlink" width="22.4731" height="22.4976">
 <g>
  <rect height="22.4976" opacity="0" width="22.4731" x="0" y="0"/>
  <path d="M3.83301 22.4976L18.6401 22.4976C21.2036 22.4976 22.4731 21.228 22.4731 18.7134L22.4731 3.80859C22.4731 1.29395 21.2036 0.0244141 18.6401 0.0244141L3.83301 0.0244141C1.28174 0.0244141 0 1.28174 0 3.80859L0 18.7134C0 21.2402 1.28174 22.4976 3.83301 22.4976Z" fill="#5ac8f5" fill-opacity="0.25"/>
  <path d="M8.47168 17.0166C7.8125 17.0166 7.4707 16.5405 7.4707 15.8691L7.4707 6.53076C7.4707 5.84717 7.8125 5.3833 8.45947 5.3833L14.5142 5.3833C15.0024 5.3833 15.3564 5.68848 15.3564 6.21338C15.3564 6.71387 15.0024 7.04346 14.5142 7.04346L9.49707 7.04346L9.49707 10.4004L14.0259 10.4004C14.5142 10.4004 14.8682 10.6934 14.8682 11.2061C14.8682 11.7188 14.5142 11.9751 14.0259 11.9751L9.49707 11.9751L9.49707 15.8691C9.49707 16.5649 9.13086 17.0166 8.47168 17.0166Z" fill="#5ac8f5"/>
 </g>
</svg>
