<?xml version="1.0" encoding="UTF-8"?>
<!--Generator: Apple Native CoreSVG 175.5-->
<!DOCTYPE svg
PUBLIC "-//W3C//DTD SVG 1.1//EN"
       "http://www.w3.org/Graphics/SVG/1.1/DTD/svg11.dtd">
<svg version="1.1" xmlns="http://www.w3.org/2000/svg" xmlns:xlink="http://www.w3.org/1999/xlink" width="19.458" height="26.9653">
 <g>
  <rect height="26.9653" opacity="0" width="19.458" x="0" y="0"/>
  <path d="M0 17.5293C0 22.9126 3.52783 26.0986 8.37402 26.0986C12.2559 26.0986 14.6606 24.4751 16.2598 21.2158C17.1997 19.4092 17.9199 17.2363 18.689 14.7217C19.0063 13.6963 19.458 12.3901 19.458 11.8042C19.458 11.145 18.9819 10.7056 18.2861 10.7056C17.5171 10.7056 17.0532 11.1938 16.4917 12.3535L14.7949 15.918C14.624 16.3086 14.4287 16.4551 14.2334 16.4551C13.9771 16.4551 13.8062 16.3086 13.8062 15.8813L13.8062 3.07617C13.8062 2.35596 13.2202 1.77002 12.5 1.77002C11.7798 1.77002 11.1938 2.35596 11.1938 3.07617L11.1938 12.2314C10.8643 12.1094 10.498 12.0117 10.1074 11.9385L10.1074 1.31836C10.1074 0.598145 9.52148 0 8.80127 0C8.08105 0 7.48291 0.598145 7.48291 1.31836L7.48291 11.8042C7.10449 11.8286 6.71387 11.8896 6.33545 11.9507L6.33545 2.35596C6.33545 1.63574 5.74951 1.0498 5.0293 1.0498C4.30908 1.0498 3.72314 1.63574 3.72314 2.35596L3.72314 12.7808C3.32031 12.9761 2.9541 13.1836 2.62451 13.4033L2.62451 6.15234C2.62451 5.43213 2.03857 4.84619 1.31836 4.84619C0.598145 4.84619 0 5.43213 0 6.15234Z" fill="#5ac8f5"/>
 </g>
</svg>
