<?xml version="1.0" encoding="UTF-8"?>
<!--Generator: Apple Native CoreSVG 175.5-->
<!DOCTYPE svg
PUBLIC "-//W3C//DTD SVG 1.1//EN"
       "http://www.w3.org/Graphics/SVG/1.1/DTD/svg11.dtd">
<svg version="1.1" xmlns="http://www.w3.org/2000/svg" xmlns:xlink="http://www.w3.org/1999/xlink" width="11.8896" height="27.0386">
 <g>
  <rect height="27.0386" opacity="0" width="11.8896" x="0" y="0"/>
  <path d="M3.18604 26.9653L8.71582 26.9653C10.6567 26.9653 11.8896 25.769 11.8896 23.9258L11.8896 3.03955C11.8896 1.19629 10.6567 0 8.71582 0L3.18604 0C1.23291 0 0 1.19629 0 3.03955L0 23.9258C0 25.769 1.23291 26.9653 3.18604 26.9653ZM3.39355 25.1831C2.41699 25.1831 1.80664 24.5972 1.80664 23.6694L1.80664 3.30811C1.80664 2.36816 2.41699 1.78223 3.39355 1.78223L8.49609 1.78223C9.48486 1.78223 10.083 2.36816 10.083 3.30811L10.083 23.6694C10.083 24.5972 9.48486 25.1831 8.49609 25.1831ZM5.94482 10.2783C7.87354 10.2783 9.43604 8.71582 9.43604 6.79932C9.43604 4.8584 7.87354 3.30811 5.94482 3.30811C4.01611 3.30811 2.46582 4.8584 2.46582 6.79932C2.46582 8.71582 4.01611 10.2783 5.94482 10.2783ZM4.19922 13.8184C4.94385 13.8184 5.54199 13.208 5.54199 12.4756C5.54199 11.731 4.94385 11.1328 4.19922 11.1328C3.45459 11.1328 2.85645 11.731 2.85645 12.4756C2.85645 13.208 3.45459 13.8184 4.19922 13.8184ZM7.70264 13.8184C8.44727 13.8184 9.0332 13.208 9.0332 12.4756C9.0332 11.731 8.44727 11.1328 7.70264 11.1328C6.95801 11.1328 6.35986 11.731 6.35986 12.4756C6.35986 13.208 6.95801 13.8184 7.70264 13.8184ZM4.19922 17.2119C4.94385 17.2119 5.54199 16.6016 5.54199 15.8569C5.54199 15.1245 4.94385 14.5142 4.19922 14.5142C3.45459 14.5142 2.85645 15.1245 2.85645 15.8569C2.85645 16.6016 3.45459 17.2119 4.19922 17.2119ZM4.19922 20.5933C4.94385 20.5933 5.54199 19.9829 5.54199 19.2505C5.54199 18.5059 4.94385 17.8955 4.19922 17.8955C3.45459 17.8955 2.85645 18.5059 2.85645 19.2505C2.85645 19.9829 3.45459 20.5933 4.19922 20.5933ZM7.69043 20.5933C8.39844 20.5933 8.97217 20.0317 8.97217 19.3237L8.97217 15.7837C8.97217 15.0757 8.39844 14.5142 7.69043 14.5142C6.99463 14.5142 6.43311 15.0757 6.43311 15.7837L6.43311 19.3237C6.43311 20.0073 6.99463 20.5933 7.69043 20.5933Z" fill="#5ac8f5"/>
 </g>
</svg>
