<?xml version="1.0" encoding="UTF-8"?>
<!--Generator: Apple Native CoreSVG 175.5-->
<!DOCTYPE svg
PUBLIC "-//W3C//DTD SVG 1.1//EN"
       "http://www.w3.org/Graphics/SVG/1.1/DTD/svg11.dtd">
<svg version="1.1" xmlns="http://www.w3.org/2000/svg" xmlns:xlink="http://www.w3.org/1999/xlink" width="20.5322" height="26.1841">
 <g>
  <rect height="26.1841" opacity="0" width="20.5322" x="0" y="0"/>
  <path d="M7.04346 12.3779C5.52979 12.3779 4.32129 11.2427 4.32129 9.28955C4.32129 8.26416 4.66309 7.2998 5.34668 6.55518C6.03027 5.82275 7.01904 5.34668 7.82471 5.34668C8.1665 5.34668 8.34961 5.54199 8.34961 5.78613C8.34961 6.05469 8.20312 6.20117 7.75146 6.29883C7.21436 6.40869 6.7627 6.64062 6.37207 6.97021C5.94482 7.31201 5.66406 7.75146 5.56641 8.19092L5.82275 8.19092C6.18896 7.72705 6.72607 7.51953 7.38525 7.51953C8.6792 7.51953 9.5459 8.45947 9.5459 9.8877C9.5459 11.3647 8.52051 12.3779 7.04346 12.3779ZM13.7085 12.3657C12.207 12.3657 10.9985 11.2305 10.9985 9.27734C10.9985 8.25195 11.3403 7.2876 12.0239 6.54297C12.6831 5.83496 13.6963 5.33447 14.4897 5.33447C14.8438 5.33447 15.0269 5.52979 15.0269 5.77393C15.0269 6.04248 14.8804 6.18896 14.4287 6.28662C13.8794 6.40869 13.4033 6.62842 13.0127 6.98242C12.6099 7.32422 12.3413 7.75146 12.2437 8.17871L12.4878 8.17871C12.8662 7.71484 13.4033 7.50732 14.0503 7.50732C15.3442 7.50732 16.2231 8.44727 16.2231 9.87549C16.2231 11.3525 15.1978 12.3657 13.7085 12.3657ZM5.39551 16.4917C4.95605 16.4917 4.62646 16.1621 4.62646 15.7349C4.62646 15.3198 4.95605 14.9902 5.39551 14.9902L15.1611 14.9902C15.5884 14.9902 15.918 15.3198 15.918 15.7349C15.918 16.1621 15.5884 16.4917 15.1611 16.4917ZM5.39551 20.752C4.95605 20.752 4.62646 20.4346 4.62646 20.0073C4.62646 19.5801 4.95605 19.2505 5.39551 19.2505L10.0586 19.2505C10.4858 19.2505 10.8154 19.5801 10.8154 20.0073C10.8154 20.4346 10.4858 20.752 10.0586 20.752ZM0 22.3511C0 24.9023 1.25732 26.1719 3.78418 26.1719L16.748 26.1719C19.2749 26.1719 20.5322 24.9023 20.5322 22.3511L20.5322 3.83301C20.5322 1.29395 19.2749 0 16.748 0L3.78418 0C1.25732 0 0 1.29395 0 3.83301Z" fill="#5ac8f5"/>
 </g>
</svg>
