<?xml version="1.0" encoding="UTF-8"?>
<!--Generator: Apple Native CoreSVG 175.5-->
<!DOCTYPE svg
PUBLIC "-//W3C//DTD SVG 1.1//EN"
       "http://www.w3.org/Graphics/SVG/1.1/DTD/svg11.dtd">
<svg version="1.1" xmlns="http://www.w3.org/2000/svg" xmlns:xlink="http://www.w3.org/1999/xlink" width="29.5166" height="22.4976">
 <g>
  <rect height="22.4976" opacity="0" width="29.5166" x="0" y="0"/>
  <path d="M10.498 0.0244141C3.22266 0.0244141 0 3.35693 0 10.1929L0 18.7134C0 21.2402 1.28174 22.4976 3.83301 22.4976L25.6836 22.4976C28.2349 22.4976 29.5166 21.228 29.5166 18.7134L29.5166 10.1929C29.5166 3.35693 26.2939 0.0244141 19.0308 0.0244141ZM10.498 2.01416L19.0186 2.01416C24.9512 2.01416 27.5513 4.60205 27.5513 10.083L27.5513 18.6157C27.5513 19.8853 26.8677 20.5322 25.6592 20.5322L3.85742 20.5322C2.63672 20.5322 1.96533 19.8853 1.96533 18.6157L1.96533 10.083C1.96533 4.60205 4.56543 2.01416 10.498 2.01416ZM8.27637 16.7603L13.8916 16.7603C14.3677 16.7603 14.7095 16.4551 14.7095 15.9546C14.7095 15.4541 14.3555 15.1611 13.8916 15.1611L9.25293 15.1611L9.25293 6.5918C9.25293 5.9082 8.91113 5.49316 8.27637 5.49316C7.6416 5.49316 7.31201 5.93262 7.31201 6.5918L7.31201 15.6616C7.31201 16.3086 7.6416 16.7603 8.27637 16.7603ZM18.9331 16.8945C19.5801 16.8945 19.9219 16.4795 19.9219 15.7959L19.9219 7.22656L22.9614 7.22656C23.4253 7.22656 23.7671 6.92139 23.7671 6.43311C23.7671 5.92041 23.4253 5.62744 22.9614 5.62744L14.9658 5.62744C14.502 5.62744 14.1602 5.92041 14.1602 6.43311C14.1602 6.92139 14.502 7.22656 14.9658 7.22656L17.981 7.22656L17.981 15.7959C17.981 16.4551 18.3105 16.8945 18.9331 16.8945Z" fill="#5ac8f5"/>
 </g>
</svg>
