<?xml version="1.0" encoding="UTF-8"?>
<!--Generator: Apple Native CoreSVG 175.5-->
<!DOCTYPE svg
PUBLIC "-//W3C//DTD SVG 1.1//EN"
       "http://www.w3.org/Graphics/SVG/1.1/DTD/svg11.dtd">
<svg version="1.1" xmlns="http://www.w3.org/2000/svg" xmlns:xlink="http://www.w3.org/1999/xlink" width="22.4731" height="22.4976">
 <g>
  <rect height="22.4976" opacity="0" width="22.4731" x="0" y="0"/>
  <path d="M2.33154 10.2539L7.89795 10.2539C9.44824 10.2539 10.2295 9.47266 10.2295 7.86133L10.2295 2.40479C10.2295 0.793457 9.44824 0.0244141 7.89795 0.0244141L2.33154 0.0244141C0.78125 0.0244141 0 0.793457 0 2.40479L0 7.86133C0 9.47266 0.78125 10.2539 2.33154 10.2539ZM2.35596 8.53271C1.92871 8.53271 1.72119 8.31299 1.72119 7.86133L1.72119 2.40479C1.72119 1.96533 1.92871 1.74561 2.35596 1.74561L7.86133 1.74561C8.28857 1.74561 8.5083 1.96533 8.5083 2.40479L8.5083 7.86133C8.5083 8.31299 8.28857 8.53271 7.86133 8.53271ZM4.06494 6.4209L6.15234 6.4209C6.32324 6.4209 6.39648 6.34766 6.39648 6.14014L6.39648 4.11377C6.39648 3.91846 6.32324 3.84521 6.15234 3.84521L4.06494 3.84521C3.88184 3.84521 3.8208 3.91846 3.8208 4.11377L3.8208 6.14014C3.8208 6.34766 3.88184 6.4209 4.06494 6.4209ZM14.5874 10.2539L20.1416 10.2539C21.6919 10.2539 22.4731 9.47266 22.4731 7.86133L22.4731 2.40479C22.4731 0.793457 21.6919 0.0244141 20.1416 0.0244141L14.5874 0.0244141C13.0249 0.0244141 12.2437 0.793457 12.2437 2.40479L12.2437 7.86133C12.2437 9.47266 13.0249 10.2539 14.5874 10.2539ZM14.6118 8.53271C14.1724 8.53271 13.9648 8.31299 13.9648 7.86133L13.9648 2.40479C13.9648 1.96533 14.1724 1.74561 14.6118 1.74561L20.1172 1.74561C20.5444 1.74561 20.752 1.96533 20.752 2.40479L20.752 7.86133C20.752 8.31299 20.5444 8.53271 20.1172 8.53271ZM16.3818 6.4209L18.4692 6.4209C18.6523 6.4209 18.7256 6.34766 18.7256 6.14014L18.7256 4.11377C18.7256 3.91846 18.6523 3.84521 18.4692 3.84521L16.3818 3.84521C16.2109 3.84521 16.1499 3.91846 16.1499 4.11377L16.1499 6.14014C16.1499 6.34766 16.2109 6.4209 16.3818 6.4209ZM2.33154 22.4976L7.89795 22.4976C9.44824 22.4976 10.2295 21.7285 10.2295 20.1172L10.2295 14.6484C10.2295 13.0493 9.44824 12.2681 7.89795 12.2681L2.33154 12.2681C0.78125 12.2681 0 13.0493 0 14.6484L0 20.1172C0 21.7285 0.78125 22.4976 2.33154 22.4976ZM2.35596 20.7764C1.92871 20.7764 1.72119 20.5566 1.72119 20.1172L1.72119 14.6606C1.72119 14.209 1.92871 13.9893 2.35596 13.9893L7.86133 13.9893C8.28857 13.9893 8.5083 14.209 8.5083 14.6606L8.5083 20.1172C8.5083 20.5566 8.28857 20.7764 7.86133 20.7764ZM4.06494 18.6768L6.15234 18.6768C6.32324 18.6768 6.39648 18.6035 6.39648 18.3838L6.39648 16.3696C6.39648 16.1743 6.32324 16.1011 6.15234 16.1011L4.06494 16.1011C3.88184 16.1011 3.8208 16.1743 3.8208 16.3696L3.8208 18.3838C3.8208 18.6035 3.88184 18.6768 4.06494 18.6768ZM13.0737 15.4297L15.1611 15.4297C15.332 15.4297 15.4053 15.3564 15.4053 15.1489L15.4053 13.1226C15.4053 12.9272 15.332 12.854 15.1611 12.854L13.0737 12.854C12.8906 12.854 12.8296 12.9272 12.8296 13.1226L12.8296 15.1489C12.8296 15.3564 12.8906 15.4297 13.0737 15.4297ZM19.5557 15.4297L21.6431 15.4297C21.814 15.4297 21.8872 15.3564 21.8872 15.1489L21.8872 13.1226C21.8872 12.9272 21.814 12.854 21.6431 12.854L19.5557 12.854C19.3726 12.854 19.3115 12.9272 19.3115 13.1226L19.3115 15.1489C19.3115 15.3564 19.3726 15.4297 19.5557 15.4297ZM16.3452 18.6768L18.4326 18.6768C18.6035 18.6768 18.6768 18.6035 18.6768 18.3838L18.6768 16.3696C18.6768 16.1743 18.6035 16.1011 18.4326 16.1011L16.3452 16.1011C16.1621 16.1011 16.1011 16.1743 16.1011 16.3696L16.1011 18.3838C16.1011 18.6035 16.1621 18.6768 16.3452 18.6768ZM13.0737 21.9116L15.1611 21.9116C15.332 21.9116 15.4053 21.8384 15.4053 21.6309L15.4053 19.6045C15.4053 19.4092 15.332 19.3359 15.1611 19.3359L13.0737 19.3359C12.8906 19.3359 12.8296 19.4092 12.8296 19.6045L12.8296 21.6309C12.8296 21.8384 12.8906 21.9116 13.0737 21.9116ZM19.5557 21.9116L21.6431 21.9116C21.814 21.9116 21.8872 21.8384 21.8872 21.6309L21.8872 19.6045C21.8872 19.4092 21.814 19.3359 21.6431 19.3359L19.5557 19.3359C19.3726 19.3359 19.3115 19.4092 19.3115 19.6045L19.3115 21.6309C19.3115 21.8384 19.3726 21.9116 19.5557 21.9116Z" fill="#5ac8f5"/>
 </g>
</svg>
