<?xml version="1.0" encoding="UTF-8"?>
<!--Generator: Apple Native CoreSVG 175.5-->
<!DOCTYPE svg
PUBLIC "-//W3C//DTD SVG 1.1//EN"
       "http://www.w3.org/Graphics/SVG/1.1/DTD/svg11.dtd">
<svg version="1.1" xmlns="http://www.w3.org/2000/svg" xmlns:xlink="http://www.w3.org/1999/xlink" width="24.9023" height="24.9146">
 <g>
  <rect height="24.9146" opacity="0" width="24.9023" x="0" y="0"/>
  <path d="M12.4512 24.9023C19.2627 24.9023 24.9023 19.2505 24.9023 12.4512C24.9023 5.63965 19.2505 0 12.439 0C5.63965 0 0 5.63965 0 12.4512C0 19.2505 5.65186 24.9023 12.4512 24.9023ZM9.80225 17.8589C9.30176 17.8589 9.0332 17.4927 9.0332 17.0044L9.0332 15.5273L5.3833 15.5273C4.73633 15.5273 4.29688 15.1245 4.29688 14.4531C4.29688 14.1113 4.37012 13.8306 4.57764 13.4399C5.41992 11.9141 6.67725 9.76562 7.73926 7.99561C8.14209 7.2998 8.59375 7.01904 9.32617 7.01904C10.0586 7.01904 10.5713 7.49512 10.5713 8.22754L10.5713 14.1113L11.2549 14.1113C11.6821 14.1113 11.9629 14.3799 11.9629 14.8315C11.9629 15.271 11.6821 15.5273 11.2549 15.5273L10.5713 15.5273L10.5713 17.0044C10.5713 17.5049 10.3149 17.8589 9.80225 17.8589ZM9.0332 14.1113L9.0332 8.72803L8.97217 8.72803C7.97119 10.437 6.67725 12.6343 5.94482 14.0625L5.94482 14.1113ZM16.6748 17.8833C14.9292 17.8833 13.9038 16.8945 13.6963 16.1987C13.6475 16.0522 13.6108 15.8813 13.6108 15.7471C13.6108 15.3076 13.8916 15.0024 14.2822 15.0024C14.6118 15.0024 14.8438 15.1367 15.0513 15.4907C15.3564 16.0522 15.9302 16.4185 16.6504 16.4185C18.103 16.4185 19.0552 14.9414 19.0308 12.439L18.9575 12.439C18.6279 13.2935 17.8101 14.0381 16.4307 14.0381C14.7827 14.0381 13.3057 12.8296 13.3057 10.6689C13.3057 8.44727 14.6973 7.01904 16.8091 7.01904C19.1772 7.01904 20.5322 8.80127 20.5322 12.0972C20.5322 15.8936 19.1772 17.8833 16.6748 17.8833ZM16.9067 12.7319C18.0786 12.7319 18.8965 11.8408 18.8965 10.6079C18.8965 9.31396 18.0664 8.39844 16.9067 8.39844C15.686 8.39844 14.917 9.26514 14.917 10.5835C14.917 11.8408 15.7227 12.7319 16.9067 12.7319Z" fill="#5ac8f5"/>
 </g>
</svg>
