<?xml version="1.0" encoding="UTF-8"?>
<!--Generator: Apple Native CoreSVG 175.5-->
<!DOCTYPE svg
PUBLIC "-//W3C//DTD SVG 1.1//EN"
       "http://www.w3.org/Graphics/SVG/1.1/DTD/svg11.dtd">
<svg version="1.1" xmlns="http://www.w3.org/2000/svg" xmlns:xlink="http://www.w3.org/1999/xlink" width="24.9023" height="24.9146">
 <g>
  <rect height="24.9146" opacity="0" width="24.9023" x="0" y="0"/>
  <path d="M12.4512 24.9023C19.2627 24.9023 24.9023 19.2505 24.9023 12.4512C24.9023 5.63965 19.2505 0 12.439 0C5.63965 0 0 5.63965 0 12.4512C0 19.2505 5.65186 24.9023 12.4512 24.9023ZM12.4512 22.8271C6.68945 22.8271 2.0874 18.2129 2.0874 12.4512C2.0874 6.68945 6.67725 2.0752 12.439 2.0752C18.2007 2.0752 22.8271 6.68945 22.8271 12.4512C22.8271 18.2129 18.2129 22.8271 12.4512 22.8271ZM16.9312 16.9434C17.3706 16.9434 17.7368 16.6138 17.7368 15.979L17.7368 8.95996C17.7368 8.3252 17.3706 7.99561 16.9312 7.99561C16.6992 7.99561 16.4917 8.06885 16.272 8.20312L10.4492 11.6211C10.0464 11.853 9.87549 12.146 9.87549 12.4634C9.87549 12.793 10.0464 13.0859 10.4492 13.3179L16.272 16.7358C16.4917 16.8701 16.6992 16.9434 16.9312 16.9434ZM7.89795 17.1021L9.2041 17.1021C9.69238 17.1021 9.96094 16.8579 9.96094 16.3574L9.96094 8.55713C9.96094 8.04443 9.69238 7.80029 9.2041 7.80029L7.89795 7.80029C7.40967 7.80029 7.14111 8.05664 7.14111 8.55713L7.14111 16.3574C7.14111 16.8579 7.40967 17.1021 7.89795 17.1021Z" fill="#5ac8f5"/>
 </g>
</svg>
