<?xml version="1.0" encoding="UTF-8"?>
<!--Generator: Apple Native CoreSVG 175.5-->
<!DOCTYPE svg
PUBLIC "-//W3C//DTD SVG 1.1//EN"
       "http://www.w3.org/Graphics/SVG/1.1/DTD/svg11.dtd">
<svg version="1.1" xmlns="http://www.w3.org/2000/svg" xmlns:xlink="http://www.w3.org/1999/xlink" width="24.9023" height="24.9146">
 <g>
  <rect height="24.9146" opacity="0" width="24.9023" x="0" y="0"/>
  <path d="M12.4512 24.9146C19.2627 24.9146 24.9023 19.2749 24.9023 12.4634C24.9023 5.66406 19.2505 0.012207 12.439 0.012207C5.63965 0.012207 0 5.66406 0 12.4634C0 19.2749 5.65186 24.9146 12.4512 24.9146Z" fill="#5ac8f5" fill-opacity="0.25"/>
  <path d="M5.9082 11.9019C5.9082 11.2183 6.34766 10.8032 7.05566 10.8032L7.34863 10.8032L7.34863 17.1143C7.34863 17.5415 7.03125 17.8223 6.62842 17.8223C6.21338 17.8223 5.9082 17.5537 5.9082 17.1143ZM7.87354 18.7256C8.3374 18.4692 8.48389 18.1396 8.48389 17.5171L8.48389 8.02002C8.48389 6.81152 9.08203 6.21338 10.3027 6.21338L17.1265 6.21338C18.3472 6.21338 18.9575 6.81152 18.9575 8.02002L18.9575 16.9189C18.9575 18.1396 18.3472 18.7256 17.1265 18.7256ZM10.8521 9.7168L16.5771 9.7168C16.8213 9.7168 16.98 9.5459 16.98 9.31396C16.98 9.10645 16.8213 8.94775 16.5771 8.94775L10.8521 8.94775C10.6201 8.94775 10.4614 9.10645 10.4614 9.31396C10.4614 9.5459 10.6201 9.7168 10.8521 9.7168ZM10.8521 11.7798L16.5771 11.7798C16.8213 11.7798 16.98 11.6089 16.98 11.3892C16.98 11.1572 16.8213 10.9985 16.5771 10.9985L10.8521 10.9985C10.6201 10.9985 10.4614 11.1572 10.4614 11.3892C10.4614 11.6089 10.6201 11.7798 10.8521 11.7798ZM14.4775 13.8672L16.5771 13.8672C16.8213 13.8672 16.98 13.6963 16.98 13.4888C16.98 13.269 16.8213 13.0981 16.5771 13.0981L14.4775 13.0981C14.2456 13.0981 14.0869 13.269 14.0869 13.4888C14.0869 13.6963 14.2456 13.8672 14.4775 13.8672ZM14.4775 15.9424L16.5771 15.9424C16.8213 15.9424 16.98 15.7837 16.98 15.5518C16.98 15.332 16.8213 15.1611 16.5771 15.1611L14.4775 15.1611C14.2456 15.1611 14.0869 15.332 14.0869 15.5518C14.0869 15.7837 14.2456 15.9424 14.4775 15.9424ZM11.1206 15.9424L12.5854 15.9424C13.0249 15.9424 13.2935 15.686 13.2935 15.2466L13.2935 13.7939C13.2935 13.3545 13.0249 13.0981 12.5854 13.0981L11.1206 13.0981C10.7056 13.0981 10.4492 13.3545 10.4492 13.7939L10.4492 15.2466C10.4492 15.686 10.7056 15.9424 11.1206 15.9424Z" fill="#5ac8f5"/>
 </g>
</svg>
