<?xml version="1.0" encoding="UTF-8"?>
<!--Generator: Apple Native CoreSVG 175.5-->
<!DOCTYPE svg
PUBLIC "-//W3C//DTD SVG 1.1//EN"
       "http://www.w3.org/Graphics/SVG/1.1/DTD/svg11.dtd">
<svg version="1.1" xmlns="http://www.w3.org/2000/svg" xmlns:xlink="http://www.w3.org/1999/xlink" width="22.4731" height="22.4976">
 <g>
  <rect height="22.4976" opacity="0" width="22.4731" x="0" y="0"/>
  <path d="M3.83301 22.4976L18.6401 22.4976C21.2036 22.4976 22.4731 21.228 22.4731 18.7134L22.4731 3.80859C22.4731 1.29395 21.2036 0.0244141 18.6401 0.0244141L3.83301 0.0244141C1.28174 0.0244141 0 1.28174 0 3.80859L0 18.7134C0 21.2402 1.28174 22.4976 3.83301 22.4976ZM3.85742 20.5322C2.63672 20.5322 1.96533 19.8853 1.96533 18.6157L1.96533 3.90625C1.96533 2.63672 2.63672 1.98975 3.85742 1.98975L18.6157 1.98975C19.8242 1.98975 20.5078 2.63672 20.5078 3.90625L20.5078 18.6157C20.5078 19.8853 19.8242 20.5322 18.6157 20.5322ZM5.88379 15.6494L16.6382 15.6494C17.2607 15.6494 17.627 15.3198 17.627 14.8438C17.627 14.1602 16.9556 13.562 16.3574 12.9517C15.8936 12.4756 15.8081 11.5112 15.7593 10.7422C15.7104 8.14209 15.0024 6.35986 13.2202 5.70068C12.9517 4.83398 12.2437 4.12598 11.2549 4.12598C10.2661 4.12598 9.57031 4.83398 9.28955 5.70068C7.50732 6.35986 6.81152 8.14209 6.7627 10.7422C6.71387 11.5112 6.604 12.4756 6.15234 12.9517C5.57861 13.5742 4.88281 14.1602 4.88281 14.8438C4.88281 15.3198 5.24902 15.6494 5.88379 15.6494ZM11.2549 18.4692C12.4023 18.4692 13.2446 17.6514 13.3301 16.6626L9.19189 16.6626C9.27734 17.6514 10.1074 18.4692 11.2549 18.4692Z" fill="#5ac8f5"/>
 </g>
</svg>
