<?xml version="1.0" encoding="UTF-8"?>
<!--Generator: Apple Native CoreSVG 175.5-->
<!DOCTYPE svg
PUBLIC "-//W3C//DTD SVG 1.1//EN"
       "http://www.w3.org/Graphics/SVG/1.1/DTD/svg11.dtd">
<svg version="1.1" xmlns="http://www.w3.org/2000/svg" xmlns:xlink="http://www.w3.org/1999/xlink" width="30.5474" height="33.9966">
 <g>
  <rect height="33.9966" opacity="0" width="30.5474" x="0" y="0"/>
  <path d="M13.9648 0.0732422C10.498 0.0732422 8.92334 5.34668 8.92334 7.53174C8.92334 10.5225 10.8398 10.7666 10.8398 11.1938C10.8398 11.3403 10.7056 11.438 10.5103 11.5723L6.68945 14.0991L5.7251 12.8784C5.3833 12.4268 5.52979 11.6577 6.34766 11.6577C7.1167 11.6577 7.61719 11.145 7.61719 10.4614C7.61719 9.77783 7.06787 9.24072 6.39648 9.24072C5.71289 9.24072 5.16357 9.77783 5.16357 10.4614C5.16357 10.5591 5.17578 10.6323 5.18799 10.7056C5.31006 11.6211 3.90625 11.2915 4.43115 10.5835C4.58984 10.376 4.67529 10.1196 4.67529 9.85107C4.67529 9.16748 4.12598 8.63037 3.44238 8.63037C2.771 8.63037 2.22168 9.16748 2.22168 9.85107C2.22168 10.3882 2.55127 10.791 3.01514 11.0107C3.75977 11.3525 2.90527 12.2437 2.50244 11.6577C2.27051 11.3281 1.89209 11.1084 1.46484 11.1084C0.793457 11.1084 0.244141 11.6455 0.244141 12.3291C0.244141 13.0127 0.793457 13.562 1.46484 13.562C1.70898 13.562 1.92871 13.4888 2.12402 13.3667C2.67334 13.0249 3.125 13.0493 3.57666 13.623L5.45654 16.0278C5.92041 16.6382 6.70166 16.9067 7.38525 16.5283L8.89893 15.6982L8.41064 15.6128C8.08105 16.7236 7.86133 18.0786 7.93457 19.7388L8.56934 19.4214L7.14111 18.6401C6.45752 18.2617 5.68848 18.5303 5.2124 19.1406L3.34473 21.5454C2.88086 22.1069 2.44141 22.1436 1.87988 21.8018C1.68457 21.6797 1.46484 21.6064 1.23291 21.6064C0.549316 21.6064 0 22.1558 0 22.8394C0 23.5107 0.549316 24.0601 1.23291 24.0601C1.64795 24.0601 2.03857 23.8403 2.2583 23.4985C2.66113 22.9248 3.52783 23.8037 2.771 24.1577C2.30713 24.3652 1.97754 24.7803 1.97754 25.3052C1.97754 25.9888 2.52686 26.5381 3.21045 26.5381C3.88184 26.5381 4.43115 25.9888 4.43115 25.3052C4.43115 25.0366 4.3457 24.7925 4.19922 24.5728C3.66211 23.877 5.06592 23.5474 4.94385 24.4629C4.93164 24.5361 4.91943 24.6216 4.91943 24.707C4.91943 25.3784 5.46875 25.9277 6.15234 25.9277C6.83594 25.9277 7.37305 25.3784 7.37305 24.707C7.37305 24.0234 6.87256 23.5107 6.10352 23.5107C5.29785 23.5107 5.13916 22.7417 5.48096 22.29L6.45752 21.0693L10.6934 24.4629C10.4248 29.6143 15.1489 33.9966 21.3013 33.9966C26.9043 33.9966 29.6509 30.4077 30.3101 29.0161C31.2744 26.9653 29.0894 25.5737 27.5269 26.9165C25.9766 28.2471 24.0967 28.5156 22.5952 28.5156C20.4346 28.5156 17.627 26.8677 17.4805 24.2432L21.4478 21.0693L22.4121 22.29C22.7661 22.7417 22.6074 23.5107 21.8018 23.5107C21.0205 23.5107 20.5322 24.0234 20.5322 24.707C20.5322 25.3784 21.0693 25.9277 21.7529 25.9277C22.4365 25.9277 22.9858 25.3784 22.9858 24.707C22.9858 24.6094 22.9736 24.5239 22.9614 24.4507C22.8516 23.5474 24.2432 23.877 23.7061 24.5728C23.5596 24.7925 23.4741 25.0366 23.4741 25.3052C23.4741 25.9888 24.0234 26.5381 24.6948 26.5381C25.3784 26.5381 25.9277 25.9888 25.9277 25.3052C25.9277 24.7803 25.5981 24.3652 25.1343 24.1577C24.3774 23.8037 25.2319 22.9248 25.647 23.4985C25.8667 23.8403 26.2573 24.0601 26.6724 24.0601C27.356 24.0601 27.9053 23.5107 27.9053 22.8394C27.9053 22.1558 27.356 21.6064 26.6724 21.6064C26.4404 21.6064 26.2207 21.6797 26.0132 21.8018C25.4639 22.1436 25.0122 22.1069 24.5605 21.5454L22.6929 19.1406C22.2168 18.5303 21.4478 18.2617 20.7642 18.6401L19.3481 19.4092L19.9829 19.7266C20.0562 18.0786 19.8486 16.7236 19.5068 15.6128L19.0186 15.6982L20.5322 16.5283C21.2158 16.9067 21.9971 16.6382 22.4609 16.0278L24.3408 13.623C24.7925 13.0493 25.2441 13.0249 25.7935 13.3667C25.9888 13.4888 26.2085 13.562 26.4526 13.562C27.124 13.562 27.6733 13.0127 27.6733 12.3291C27.6733 11.6455 27.124 11.1084 26.4526 11.1084C26.0254 11.1084 25.647 11.3281 25.415 11.6577C25.0122 12.2437 24.1577 11.3525 24.9023 11.0107C25.3662 10.791 25.6958 10.3882 25.6958 9.85107C25.6958 9.16748 25.1465 8.63037 24.4751 8.63037C23.7915 8.63037 23.2422 9.16748 23.2422 9.85107C23.2422 10.1196 23.3276 10.376 23.4863 10.5835C24.0112 11.2915 22.6196 11.6211 22.7295 10.7178C22.7417 10.6445 22.7539 10.5591 22.7539 10.4614C22.7539 9.77783 22.2046 9.24072 21.521 9.24072C20.8496 9.24072 20.3003 9.77783 20.3003 10.4614C20.3003 11.145 20.8008 11.6577 21.5698 11.6577C22.3877 11.6577 22.5342 12.4268 22.1924 12.8784L21.228 14.0991L17.3828 11.5723C17.1753 11.4258 17.041 11.3403 17.041 11.1938C17.041 10.7666 18.9941 10.498 18.9941 7.53174C18.9941 5.34668 17.4194 0.0732422 13.9648 0.0732422ZM13.9648 1.94092C15.9424 1.94092 17.1143 5.7251 17.1143 7.53174C17.1143 9.729 15.21 9.59473 15.21 11.1816C15.21 12.5122 18.3594 14.3677 18.3594 19.104C18.3594 21.1548 17.7612 21.9727 15.3687 23.5352C15.2344 27.8687 19.3115 30.3345 22.9614 30.3345C24.2065 30.3345 26.4648 30.0903 28.2349 28.6011C28.3936 28.4546 28.5889 28.6011 28.4546 28.833C27.6367 30.0659 25.4272 32.1899 21.3013 32.1899C15.6982 32.1899 11.792 28.2593 12.6587 23.6206C10.1562 22.0337 9.55811 21.1792 9.55811 19.104C9.55811 14.3677 12.7075 12.5122 12.7075 11.1816C12.7075 9.58252 10.8032 9.729 10.8032 7.53174C10.8032 5.7251 11.9751 1.94092 13.9648 1.94092Z" fill="#5ac8f5"/>
 </g>
</svg>
