<?xml version="1.0" encoding="UTF-8"?>
<!--Generator: Apple Native CoreSVG 175.5-->
<!DOCTYPE svg
PUBLIC "-//W3C//DTD SVG 1.1//EN"
       "http://www.w3.org/Graphics/SVG/1.1/DTD/svg11.dtd">
<svg version="1.1" xmlns="http://www.w3.org/2000/svg" xmlns:xlink="http://www.w3.org/1999/xlink" width="25.8922" height="24.7367">
 <g>
  <rect height="24.7367" opacity="0" width="25.8922" x="0" y="0"/>
  <path d="M0.536016 15.707C1.17078 16.3418 2.45252 16.5004 3.44129 15.6093C3.77088 15.3164 4.45447 14.5839 5.76063 13.2778C11.9984 6.95454 16.1122 2.80415 16.9911 3.59761C17.6991 4.22017 15.5385 7.27193 13.4877 10.104C9.64246 15.4628 6.5785 19.1738 8.849 21.4443C10.6679 23.2631 13.4999 21.4321 17.8578 17.6113C20.3114 15.4506 22.1547 13.705 22.6918 14.2543C23.0946 14.645 22.4721 15.6826 21.5565 17.2695C20.3724 19.2959 18.8954 21.4687 20.3114 22.8847C21.288 23.8491 23.1801 23.434 25.5116 21.1513C25.9266 20.7363 26.0243 20.2724 25.6947 19.9428C25.3773 19.6376 24.9379 19.6865 24.6083 19.9917C22.9115 21.6518 21.8007 22.1767 21.5199 21.8837C21.1903 21.5664 21.7885 20.4799 23.0336 18.2949C24.6083 15.5361 25.4506 13.8027 24.12 12.5087C22.3378 10.7753 20.226 12.6308 16.3197 16.061C12.6454 19.2959 11.5712 19.8208 11.1073 19.3691C10.4847 18.7343 11.4369 17.6113 15.5507 11.8618C19.3959 6.47847 21.6298 3.12154 19.5424 1.10738C16.6981-1.66362 13.036 0.521438 3.00184 10.4458C1.67127 11.7641 0.938849 12.4599 0.64588 12.7773C-0.294062 13.8149-0.0987492 15.0722 0.536016 15.707Z" fill="#5ac8f5"/>
 </g>
</svg>
