<?xml version="1.0" encoding="UTF-8"?>
<!--Generator: Apple Native CoreSVG 175.5-->
<!DOCTYPE svg
PUBLIC "-//W3C//DTD SVG 1.1//EN"
       "http://www.w3.org/Graphics/SVG/1.1/DTD/svg11.dtd">
<svg version="1.1" xmlns="http://www.w3.org/2000/svg" xmlns:xlink="http://www.w3.org/1999/xlink" width="24.9023" height="24.9146">
 <g>
  <rect height="24.9146" opacity="0" width="24.9023" x="0" y="0"/>
  <path d="M12.4512 24.9146C19.2627 24.9146 24.9023 19.2749 24.9023 12.4634C24.9023 5.66406 19.2505 0.012207 12.439 0.012207C5.63965 0.012207 0 5.66406 0 12.4634C0 19.2749 5.65186 24.9146 12.4512 24.9146ZM7.8125 12.2803C7.8125 12.6831 7.4707 12.9883 7.01904 12.9883L5.40771 12.9883C4.98047 12.9883 4.65088 12.6587 4.65088 12.2803C4.65088 11.9019 4.98047 11.5845 5.40771 11.5845L7.01904 11.5845C7.4585 11.5845 7.8125 11.8774 7.8125 12.2803ZM9.15527 9.15527C8.87451 9.44824 8.43506 9.41162 8.12988 9.11865L6.98242 7.95898C6.66504 7.62939 6.65283 7.20215 6.92139 6.93359C7.18994 6.66504 7.62939 6.64062 7.94678 6.97021L9.11865 8.12988C9.42383 8.42285 9.44824 8.87451 9.15527 9.15527ZM12.439 7.39746C12.0483 7.39746 11.7432 7.05566 11.7432 6.61621L11.7432 5.00488C11.7432 4.56543 12.0605 4.24805 12.439 4.24805C12.8174 4.24805 13.147 4.56543 13.147 5.00488L13.147 6.61621C13.147 7.04346 12.8296 7.39746 12.439 7.39746ZM15.7349 9.15527C15.4419 8.87451 15.4419 8.43506 15.7593 8.12988L16.9312 6.97021C17.2241 6.65283 17.688 6.65283 17.9688 6.93359C18.2251 7.21436 18.2129 7.62939 17.8955 7.95898L16.7603 9.11865C16.4551 9.42383 16.0156 9.43604 15.7349 9.15527ZM17.0776 12.2803C17.0776 11.8774 17.4194 11.5845 17.8589 11.5845L19.4824 11.5845C19.9097 11.5845 20.2271 11.9019 20.2271 12.2803C20.2271 12.6709 19.9097 12.9883 19.4824 12.9883L17.8589 12.9883C17.4194 12.9883 17.0776 12.6709 17.0776 12.2803ZM8.89893 13.5864C8.77686 13.2324 8.69141 12.8418 8.69141 12.439C8.69141 10.3882 10.4004 8.6792 12.439 8.6792C14.4897 8.6792 16.1865 10.3882 16.1865 12.439C16.1865 12.8418 16.1011 13.2324 15.979 13.5864ZM6.27441 15.3931C6.01807 15.3931 5.83496 15.21 5.83496 14.9536C5.83496 14.6973 6.01807 14.5142 6.27441 14.5142L19.7876 14.5142C20.0439 14.5142 20.2271 14.6973 20.2271 14.9536C20.2271 15.21 20.0439 15.3931 19.7876 15.3931ZM5.10254 17.1265C4.84619 17.1265 4.65088 16.9312 4.65088 16.6748C4.65088 16.4307 4.84619 16.2354 5.10254 16.2354L18.6035 16.2354C18.8599 16.2354 19.043 16.4307 19.043 16.6748C19.043 16.9312 18.8599 17.1265 18.6035 17.1265ZM6.27441 18.8477C6.01807 18.8477 5.83496 18.6646 5.83496 18.4082C5.83496 18.1519 6.01807 17.9688 6.27441 17.9688L19.7876 17.9688C20.0439 17.9688 20.2271 18.1519 20.2271 18.4082C20.2271 18.6646 20.0439 18.8477 19.7876 18.8477Z" fill="#5ac8f5"/>
 </g>
</svg>
