<?xml version="1.0" encoding="UTF-8"?>
<!--Generator: Apple Native CoreSVG 175.5-->
<!DOCTYPE svg
PUBLIC "-//W3C//DTD SVG 1.1//EN"
       "http://www.w3.org/Graphics/SVG/1.1/DTD/svg11.dtd">
<svg version="1.1" xmlns="http://www.w3.org/2000/svg" xmlns:xlink="http://www.w3.org/1999/xlink" width="25.293" height="29.1997">
 <g>
  <rect height="29.1997" opacity="0" width="25.293" x="0" y="0"/>
  <path d="M5.98145 20.7949L10.0342 19.1225C10.3394 19.0005 10.4858 18.8906 10.6689 18.7075L22.3511 7.11081C23.4985 5.97556 23.4863 4.64499 22.3267 3.47312L19.7632 0.885229C18.5913-0.274439 17.2607-0.298853 16.1133 0.836401L4.41895 12.4331C4.23584 12.604 4.12598 12.7383 4.00391 13.0434L2.29492 17.0962C2.03857 17.7065 2.09961 18.3169 2.56348 18.7807L4.29688 20.5263C4.74854 20.978 5.35889 21.0635 5.98145 20.7949ZM5.79834 18.9028C5.5542 18.9883 5.37109 18.9883 5.15137 18.7685L4.32129 17.9385C4.10156 17.7187 4.10156 17.5234 4.19922 17.3037L5.71289 13.7514L17.3462 2.20359C17.7002 1.874 18.1152 1.84958 18.4448 2.17917L21.0205 4.77927C21.3501 5.12107 21.3257 5.53611 20.9839 5.8779L9.35059 17.4258ZM1.2207 21.4052L2.69775 21.4052C3.03955 21.4052 3.18604 21.3442 3.45459 21.1245L4.60205 20.2456L2.84424 18.4511L0.866699 20.5385C0.500488 20.917 0.683594 21.4052 1.2207 21.4052ZM4.60205 13.7514L9.59473 18.7685L10.7422 17.6333L5.74951 12.604ZM14.7339 3.70505L19.7266 8.72214L20.874 7.5991L15.8813 2.5698ZM0.976562 25.7632L24.3042 25.7632C24.8413 25.7632 25.293 25.3115 25.293 24.7744C25.293 24.2373 24.8413 23.7978 24.3042 23.7978L0.976562 23.7978C0.439453 23.7978 0 24.2373 0 24.7744C0 25.3115 0.439453 25.7632 0.976562 25.7632Z" fill="#5ac8f5"/>
 </g>
</svg>
