<?xml version="1.0" encoding="UTF-8"?>
<!--Generator: Apple Native CoreSVG 175.5-->
<!DOCTYPE svg
PUBLIC "-//W3C//DTD SVG 1.1//EN"
       "http://www.w3.org/Graphics/SVG/1.1/DTD/svg11.dtd">
<svg version="1.1" xmlns="http://www.w3.org/2000/svg" xmlns:xlink="http://www.w3.org/1999/xlink" width="27.1851" height="25.8179">
 <g>
  <rect height="25.8179" opacity="0" width="27.1851" x="0" y="0"/>
  <path d="M0 12.8418C0 16.0278 1.77002 17.7734 5.11475 17.7734L9.35059 17.7734C13.5742 18.2617 18.0054 19.6533 21.8384 22.0093L21.8384 19.8364C18.103 17.5415 13.7939 16.2842 9.27734 15.8081L5.11475 15.8081C2.88086 15.8081 1.96533 14.9414 1.96533 12.8418L1.96533 11.0474C1.96533 8.93555 2.88086 8.08105 5.11475 8.08105L9.16748 8.08105C13.7695 7.61719 18.1763 6.31104 21.8384 4.04053L21.8384 1.87988C18.1641 4.22363 13.2568 5.70068 9.42383 6.11572L5.11475 6.11572C1.77002 6.11572 0 7.83691 0 11.0474ZM11.3525 17.6147L9.49707 17.6147L10.5225 22.8149C10.6201 23.3643 10.3394 23.7183 9.94873 23.8525C9.53369 23.999 8.99658 23.8647 8.71582 23.2788L5.95703 17.3828L3.95508 17.3828L6.7749 23.6328C7.77588 25.8667 9.50928 26.001 10.6934 25.6348C11.8896 25.2563 12.6221 24.1455 12.3047 22.522ZM7.70264 7.04346L7.70264 16.8457L9.68018 16.8457L9.68018 7.04346ZM21.1426 20.7886C21.1426 22.5952 22.3633 23.8037 24.1577 23.8037C25.9766 23.8037 27.1851 22.5952 27.1851 20.7886L27.1851 3.01514C27.1851 1.2085 25.9766 0 24.1577 0C22.3633 0 21.1426 1.2085 21.1426 3.01514ZM23.1201 20.7886L23.1201 3.01514C23.1201 2.38037 23.5229 1.96533 24.1577 1.96533C24.7925 1.96533 25.2197 2.38037 25.2197 3.01514L25.2197 20.7886C25.2197 21.4233 24.7925 21.8384 24.1577 21.8384C23.5229 21.8384 23.1201 21.4233 23.1201 20.7886Z" fill="#5ac8f5"/>
 </g>
</svg>
