<?xml version="1.0" encoding="UTF-8"?>
<!--Generator: Apple Native CoreSVG 175.5-->
<!DOCTYPE svg
PUBLIC "-//W3C//DTD SVG 1.1//EN"
       "http://www.w3.org/Graphics/SVG/1.1/DTD/svg11.dtd">
<svg version="1.1" xmlns="http://www.w3.org/2000/svg" xmlns:xlink="http://www.w3.org/1999/xlink" width="22.4731" height="22.4976">
 <g>
  <rect height="22.4976" opacity="0" width="22.4731" x="0" y="0"/>
  <path d="M3.83301 22.4976L18.6401 22.4976C21.2036 22.4976 22.4731 21.228 22.4731 18.7134L22.4731 3.80859C22.4731 1.29395 21.2036 0.0244141 18.6401 0.0244141L3.83301 0.0244141C1.28174 0.0244141 0 1.28174 0 3.80859L0 18.7134C0 21.2402 1.28174 22.4976 3.83301 22.4976ZM3.85742 20.5322C2.63672 20.5322 1.96533 19.8853 1.96533 18.6157L1.96533 3.90625C1.96533 2.63672 2.63672 1.98975 3.85742 1.98975L18.6157 1.98975C19.8242 1.98975 20.5078 2.63672 20.5078 3.90625L20.5078 18.6157C20.5078 19.8853 19.8242 20.5322 18.6157 20.5322ZM11.2427 16.8335C11.8774 16.8335 12.2314 16.4185 12.2314 15.7349L12.2314 12.5488L15.6616 6.83594C15.7715 6.66504 15.8203 6.46973 15.8203 6.29883C15.8203 5.79834 15.4541 5.41992 14.9414 5.41992C14.5264 5.41992 14.2944 5.57861 14.0381 6.03027L11.3037 10.7178L11.2183 10.7178L8.48389 6.03027C8.22754 5.56641 7.99561 5.41992 7.55615 5.41992C7.05566 5.41992 6.66504 5.81055 6.66504 6.27441C6.66504 6.45752 6.71387 6.64062 6.82373 6.83594L10.2783 12.5732L10.2783 15.7349C10.2783 16.394 10.6201 16.8335 11.2427 16.8335Z" fill="#5ac8f5"/>
 </g>
</svg>
