<?xml version="1.0" encoding="UTF-8"?>
<!--Generator: Apple Native CoreSVG 175.5-->
<!DOCTYPE svg
PUBLIC "-//W3C//DTD SVG 1.1//EN"
       "http://www.w3.org/Graphics/SVG/1.1/DTD/svg11.dtd">
<svg version="1.1" xmlns="http://www.w3.org/2000/svg" xmlns:xlink="http://www.w3.org/1999/xlink" width="22.4731" height="22.4976">
 <g>
  <rect height="22.4976" opacity="0" width="22.4731" x="0" y="0"/>
  <path d="M3.83301 22.4976L18.6401 22.4976C21.2036 22.4976 22.4731 21.228 22.4731 18.7134L22.4731 3.80859C22.4731 1.29395 21.2036 0.0244141 18.6401 0.0244141L3.83301 0.0244141C1.28174 0.0244141 0 1.28174 0 3.80859L0 18.7134C0 21.2402 1.28174 22.4976 3.83301 22.4976ZM8.75244 18.1152C7.05566 18.1152 6.04248 17.1387 6.04248 15.1733L6.04248 13.6108C6.04248 12.7075 5.82275 12.4878 5.2002 12.3169C4.13818 12.0361 4.13818 10.4736 5.2002 10.1929C5.82275 10.0342 6.04248 9.81445 6.04248 8.91113L6.04248 7.34863C6.04248 5.3833 7.05566 4.39453 8.75244 4.39453C9.50928 4.39453 9.93652 4.76074 9.93652 5.27344C9.93652 5.78613 9.55811 6.10352 9.05762 6.10352C8.20312 6.10352 7.88574 6.48193 7.88574 7.51953L7.88574 9.22852C7.88574 10.3516 7.18994 11.1694 6.05469 11.3647L6.05469 11.1328C7.18994 11.3403 7.88574 12.1582 7.88574 13.2812L7.88574 15.0024C7.88574 16.04 8.20312 16.4062 9.05762 16.4062C9.55811 16.4062 9.93652 16.7358 9.93652 17.2485C9.93652 17.7612 9.50928 18.1152 8.75244 18.1152ZM13.7573 18.1152C13.0005 18.1152 12.5732 17.7612 12.5732 17.2485C12.5732 16.7358 12.9517 16.4062 13.4521 16.4062C14.3066 16.4062 14.624 16.04 14.624 15.0024L14.624 13.2812C14.624 12.1582 15.3198 11.3403 16.4551 11.1328L16.4551 11.3647C15.3198 11.1694 14.624 10.3516 14.624 9.22852L14.624 7.51953C14.624 6.48193 14.3066 6.10352 13.4521 6.10352C12.9517 6.10352 12.5732 5.78613 12.5732 5.27344C12.5732 4.76074 13.0005 4.39453 13.7573 4.39453C15.4541 4.39453 16.4673 5.3833 16.4673 7.34863L16.4673 8.91113C16.4673 9.81445 16.687 10.0342 17.3096 10.1929C18.3716 10.4614 18.3716 12.0483 17.3096 12.3169C16.687 12.4878 16.4673 12.7075 16.4673 13.6108L16.4673 15.1733C16.4673 17.1387 15.4541 18.1152 13.7573 18.1152Z" fill="#5ac8f5"/>
 </g>
</svg>
