<?xml version="1.0" encoding="UTF-8"?>
<!--Generator: Apple Native CoreSVG 175.5-->
<!DOCTYPE svg
PUBLIC "-//W3C//DTD SVG 1.1//EN"
       "http://www.w3.org/Graphics/SVG/1.1/DTD/svg11.dtd">
<svg version="1.1" xmlns="http://www.w3.org/2000/svg" xmlns:xlink="http://www.w3.org/1999/xlink" width="24.9023" height="24.9146">
 <g>
  <rect height="24.9146" opacity="0" width="24.9023" x="0" y="0"/>
  <path d="M12.4512 24.9023C19.2627 24.9023 24.9023 19.2505 24.9023 12.4512C24.9023 5.63965 19.2505 0 12.439 0C5.63965 0 0 5.63965 0 12.4512C0 19.2505 5.65186 24.9023 12.4512 24.9023ZM12.4512 22.8271C6.68945 22.8271 2.0874 18.2129 2.0874 12.4512C2.0874 6.68945 6.67725 2.0752 12.439 2.0752C18.2007 2.0752 22.8271 6.68945 22.8271 12.4512C22.8271 18.2129 18.2129 22.8271 12.4512 22.8271ZM12.4268 19.751C12.8906 19.751 13.2446 19.4092 13.2446 18.9331L13.2446 13.3301L13.1104 11.1084L15.2588 13.5376L16.0522 14.3555C16.2231 14.5142 16.4429 14.5874 16.6626 14.5874C17.1143 14.5874 17.4316 14.2334 17.4316 13.7939C17.4316 13.562 17.3706 13.3545 17.1753 13.1714L13.0371 8.97217C12.8662 8.80127 12.6465 8.69141 12.4268 8.69141C12.207 8.69141 11.9873 8.78906 11.8164 8.97217L7.69043 13.1836C7.54395 13.3423 7.44629 13.5986 7.44629 13.7939C7.44629 14.2578 7.76367 14.5874 8.22754 14.5874C8.48389 14.5874 8.66699 14.5142 8.82568 14.3555L9.52148 13.5864L11.7432 11.0962L11.6089 13.3301L11.6089 18.9331C11.6089 19.4092 11.9385 19.751 12.4268 19.751ZM7.86133 7.75146L17.0288 7.75146C17.5049 7.75146 17.8345 7.40967 17.8345 6.9458C17.8345 6.46973 17.5049 6.12793 17.0288 6.12793L7.86133 6.12793C7.38525 6.12793 7.04346 6.46973 7.04346 6.9458C7.04346 7.40967 7.38525 7.75146 7.86133 7.75146Z" fill="#5ac8f5"/>
 </g>
</svg>
