<?xml version="1.0" encoding="UTF-8"?>
<!--Generator: Apple Native CoreSVG 175.5-->
<!DOCTYPE svg
PUBLIC "-//W3C//DTD SVG 1.1//EN"
       "http://www.w3.org/Graphics/SVG/1.1/DTD/svg11.dtd">
<svg version="1.1" xmlns="http://www.w3.org/2000/svg" xmlns:xlink="http://www.w3.org/1999/xlink" width="25.8301" height="25.5981">
 <g>
  <rect height="25.5981" opacity="0" width="25.8301" x="0" y="0"/>
  <path d="M3.83301 19.9463L6.92139 19.9463L6.92139 17.981L3.85742 17.981C2.63672 17.981 1.96533 17.3218 1.96533 16.0522L1.96533 3.91846C1.96533 2.64893 2.63672 1.98975 3.85742 1.98975L16.0522 1.98975C17.2607 1.98975 17.9443 2.64893 17.9443 3.91846L17.9443 6.5918L19.9097 6.5918L19.9097 3.80859C19.9097 1.29395 18.6279 0.0244141 16.0889 0.0244141L3.83301 0.0244141C1.26953 0.0244141 0 1.29395 0 3.80859L0 16.1621C0 18.6768 1.26953 19.9463 3.83301 19.9463Z" fill="#5ac8f5" fill-opacity="0.5"/>
  <path d="M11.3037 17.6514C11.3037 20.3979 13.0859 22.0947 15.6494 22.0947C17.5537 22.0947 18.8477 21.3135 19.7266 19.519C20.2026 18.5913 20.5688 17.4805 20.9595 16.1865C21.1182 15.6616 21.3501 15.0024 21.3501 14.7217C21.3501 14.3677 21.0938 14.1235 20.7275 14.1235C20.3247 14.1235 20.0806 14.3799 19.7876 14.9658L18.9209 16.8091C18.8354 17.0166 18.75 17.0776 18.6401 17.0776C18.5181 17.0776 18.4448 16.9922 18.4448 16.7969L18.4448 10.2173C18.4448 9.85107 18.1274 9.53369 17.7612 9.53369C17.3706 9.53369 17.0654 9.85107 17.0654 10.2173L17.0654 14.8926C16.9067 14.8438 16.7358 14.7949 16.5405 14.7461L16.5405 9.31396C16.5405 8.93555 16.2354 8.63037 15.8569 8.63037C15.4785 8.63037 15.1733 8.93555 15.1733 9.31396L15.1733 14.6851C14.9902 14.6973 14.7949 14.7217 14.6118 14.7583L14.6118 9.85107C14.6118 9.46045 14.3066 9.16748 13.9038 9.16748C13.5376 9.16748 13.2202 9.46045 13.2202 9.85107L13.2202 15.1978C13.0127 15.2832 12.854 15.3931 12.7075 15.4785L12.7075 11.8042C12.7075 11.4258 12.3779 11.1084 12.0117 11.1084C11.6333 11.1084 11.3037 11.4258 11.3037 11.8042ZM9.75342 25.5981L22.0093 25.5981C24.5483 25.5981 25.8301 24.3286 25.8301 21.814L25.8301 9.46045C25.8301 6.9458 24.5483 5.67627 22.0093 5.67627L9.75342 5.67627C7.18994 5.67627 5.92041 6.93359 5.92041 9.46045L5.92041 21.814C5.92041 24.3286 7.18994 25.5981 9.75342 25.5981ZM9.77783 23.6328C8.56934 23.6328 7.88574 22.9736 7.88574 21.7041L7.88574 9.57031C7.88574 8.30078 8.56934 7.6416 9.77783 7.6416L21.9727 7.6416C23.1812 7.6416 23.8647 8.30078 23.8647 9.57031L23.8647 21.7041C23.8647 22.9736 23.1812 23.6328 21.9727 23.6328Z" fill="#5ac8f5"/>
 </g>
</svg>
