<?xml version="1.0" encoding="UTF-8"?>
<!--Generator: Apple Native CoreSVG 175.5-->
<!DOCTYPE svg
PUBLIC "-//W3C//DTD SVG 1.1//EN"
       "http://www.w3.org/Graphics/SVG/1.1/DTD/svg11.dtd">
<svg version="1.1" xmlns="http://www.w3.org/2000/svg" xmlns:xlink="http://www.w3.org/1999/xlink" width="24.9023" height="24.9146">
 <g>
  <rect height="24.9146" opacity="0" width="24.9023" x="0" y="0"/>
  <path d="M12.4512 24.9023C19.2627 24.9023 24.9023 19.2505 24.9023 12.4512C24.9023 5.63965 19.2505 0 12.439 0C5.63965 0 0 5.63965 0 12.4512C0 19.2505 5.65186 24.9023 12.4512 24.9023ZM12.4512 22.8271C6.68945 22.8271 2.0874 18.2129 2.0874 12.4512C2.0874 6.68945 6.67725 2.0752 12.439 2.0752C18.2007 2.0752 22.8271 6.68945 22.8271 12.4512C22.8271 18.2129 18.2129 22.8271 12.4512 22.8271Z" fill="#5ac8f5" fill-opacity="0.5"/>
  <path d="M8.52051 13.9648L15.7959 13.9648C17.688 13.9648 19.1406 12.5 19.1406 10.7056C19.1406 8.83789 17.6147 7.4707 15.6372 7.4707C14.8926 6.03027 13.5376 5.09033 11.853 5.09033C9.65576 5.09033 7.83691 6.82373 7.62939 9.00879C6.57959 9.31396 5.77393 10.2295 5.77393 11.4624C5.77393 12.8418 6.7749 13.9648 8.52051 13.9648ZM9.21631 17.1753L9.93652 15.9302C10.083 15.686 9.99756 15.3198 9.729 15.1733C9.46045 15.0146 9.11865 15.1245 8.97217 15.3809L8.25195 16.6138C8.10547 16.8701 8.19092 17.2363 8.45947 17.3828C8.72803 17.5415 9.06982 17.4316 9.21631 17.1753ZM12.561 17.1753L13.2812 15.9302C13.4277 15.686 13.3545 15.3198 13.0737 15.1733C12.8174 15.0146 12.4634 15.1245 12.3291 15.3809L11.6089 16.6138C11.4624 16.8701 11.5356 17.2363 11.8164 17.3828C12.0728 17.5415 12.4268 17.4316 12.561 17.1753ZM15.9058 17.1753L16.626 15.9302C16.7725 15.686 16.6992 15.3198 16.4185 15.1733C16.1499 15.0146 15.8081 15.1245 15.6616 15.3809L14.9414 16.6138C14.7949 16.8701 14.8804 17.2363 15.1489 17.3828C15.4175 17.5415 15.7593 17.4316 15.9058 17.1753ZM7.77588 19.5923C8.21533 19.5923 8.58154 19.2139 8.58154 18.7744C8.58154 18.335 8.21533 17.9688 7.77588 17.9688C7.32422 17.9688 6.95801 18.335 6.95801 18.7744C6.95801 19.2139 7.32422 19.5923 7.77588 19.5923ZM11.1206 19.5923C11.5723 19.5923 11.9385 19.2139 11.9385 18.7744C11.9385 18.335 11.5723 17.9688 11.1206 17.9688C10.6812 17.9688 10.3149 18.335 10.3149 18.7744C10.3149 19.2139 10.6812 19.5923 11.1206 19.5923ZM14.4653 19.5923C14.9048 19.5923 15.2832 19.2139 15.2832 18.7744C15.2832 18.335 14.9048 17.9688 14.4653 17.9688C14.0259 17.9688 13.6475 18.335 13.6475 18.7744C13.6475 19.2139 14.0259 19.5923 14.4653 19.5923Z" fill="#5ac8f5"/>
 </g>
</svg>
