<?xml version="1.0" encoding="UTF-8"?>
<!--Generator: Apple Native CoreSVG 175.5-->
<!DOCTYPE svg
PUBLIC "-//W3C//DTD SVG 1.1//EN"
       "http://www.w3.org/Graphics/SVG/1.1/DTD/svg11.dtd">
<svg version="1.1" xmlns="http://www.w3.org/2000/svg" xmlns:xlink="http://www.w3.org/1999/xlink" width="24.9634" height="30.7495">
 <g>
  <rect height="30.7495" opacity="0" width="24.9634" x="0" y="0"/>
  <path d="M5.92041 7.22656L15.2954 7.22656C16.6992 7.22656 18.103 8.09326 18.103 10.1074L18.103 24.6216L21.1792 24.6216C23.6938 24.6216 24.9634 23.3276 24.9634 20.7886L24.9634 3.83301C24.9634 1.29395 23.6938 0 21.1792 0L9.70459 0C7.18994 0 5.92041 1.28174 5.92041 3.83301ZM11.6821 3.4668L11.6821 3.21045C11.6821 2.83203 11.9263 2.49023 12.4634 2.49023L18.4204 2.49023C18.9453 2.49023 19.2017 2.83203 19.2017 3.21045L19.2017 3.4668C19.2017 3.83301 18.9453 4.18701 18.4204 4.18701L12.4634 4.18701C11.9263 4.18701 11.6821 3.83301 11.6821 3.4668ZM0 26.8799C0 29.4312 1.25732 30.7129 3.78418 30.7129L15.2588 30.7129C17.7856 30.7129 19.043 29.4189 19.043 26.8799L19.043 9.92432C19.043 7.37305 17.7856 6.09131 15.2588 6.09131L3.78418 6.09131C1.25732 6.09131 0 7.36084 0 9.92432ZM1.96533 26.8433L1.96533 9.94873C1.96533 8.74023 2.6123 8.05664 3.86963 8.05664L15.1611 8.05664C16.4185 8.05664 17.0776 8.74023 17.0776 9.94873L17.0776 26.8433C17.0776 28.064 16.4185 28.7476 15.1611 28.7476L3.86963 28.7476C2.6123 28.7476 1.96533 28.064 1.96533 26.8433ZM4.18701 18.3838C4.18701 18.8354 4.50439 19.165 4.95605 19.165L10.2417 19.165L12.4268 19.0796L11.1572 20.166L9.96094 21.3379C9.81445 21.4844 9.729 21.6675 9.729 21.8872C9.729 22.3022 10.0464 22.644 10.4736 22.644C10.6812 22.644 10.8643 22.5586 10.9985 22.4243L14.4165 18.9941C14.6118 18.7988 14.7217 18.6279 14.7217 18.3838C14.7217 18.1763 14.624 18.0054 14.4165 17.7979L10.9985 14.3555C10.8643 14.2212 10.6812 14.1479 10.4736 14.1479C10.0464 14.1479 9.729 14.4775 9.729 14.8926C9.729 15.1123 9.82666 15.2954 9.96094 15.4419L11.1572 16.626L12.4268 17.7002L10.2417 17.627L4.95605 17.627C4.5166 17.627 4.18701 17.9321 4.18701 18.3838Z" fill="#5ac8f5"/>
 </g>
</svg>
