<?xml version="1.0" encoding="UTF-8"?>
<!--Generator: Apple Native CoreSVG 175.5-->
<!DOCTYPE svg
PUBLIC "-//W3C//DTD SVG 1.1//EN"
       "http://www.w3.org/Graphics/SVG/1.1/DTD/svg11.dtd">
<svg version="1.1" xmlns="http://www.w3.org/2000/svg" xmlns:xlink="http://www.w3.org/1999/xlink" width="18.1152" height="22.7173">
 <g>
  <rect height="22.7173" opacity="0" width="18.1152" x="0" y="0"/>
  <path d="M2.40479 21.5576C2.40479 22.2046 2.92969 22.7173 3.57666 22.7173C4.22363 22.7173 4.73633 22.2046 4.73633 21.5576L4.73633 14.3188L9.13086 14.3188C13.2812 14.3188 16.1377 11.5112 16.1377 7.40967C16.1377 3.33252 13.4766 0.549316 9.25293 0.549316L3.57666 0.549316C2.85645 0.549316 2.40479 1.02539 2.40479 1.75781ZM4.73633 12.2681L4.73633 2.62451L8.6792 2.62451C12.0361 2.62451 13.7451 4.37012 13.7451 7.40967C13.7451 10.4614 11.8774 12.2681 8.58154 12.2681ZM0.769043 8.08105L17.3218 8.08105C17.7734 8.08105 18.1152 7.71484 18.1152 7.27539C18.1152 6.82373 17.7734 6.48193 17.3218 6.48193L0.769043 6.48193C0.32959 6.48193 0 6.82373 0 7.27539C0 7.71484 0.32959 8.08105 0.769043 8.08105Z" fill="#5ac8f5"/>
 </g>
</svg>
