<?xml version="1.0" encoding="UTF-8"?>
<!--Generator: Apple Native CoreSVG 175.5-->
<!DOCTYPE svg
PUBLIC "-//W3C//DTD SVG 1.1//EN"
       "http://www.w3.org/Graphics/SVG/1.1/DTD/svg11.dtd">
<svg version="1.1" xmlns="http://www.w3.org/2000/svg" xmlns:xlink="http://www.w3.org/1999/xlink" width="29.4067" height="23.6694">
 <g>
  <rect height="23.6694" opacity="0" width="29.4067" x="0" y="0"/>
  <path d="M9.30176 19.4702L8.47168 18.2739C7.70264 18.7378 6.79932 18.9819 5.81055 18.9819C3.72314 18.9819 2.29492 17.8589 2.29492 16.1499C2.29492 14.4897 3.6377 13.4277 6.04248 13.269L6.93359 13.208L6.56738 11.438L5.77393 11.5112C2.0752 11.8286 0 13.4399 0 16.1743C0 19.0063 2.16064 20.9106 5.32227 20.9106C6.81152 20.9106 8.22754 20.3613 9.30176 19.4702ZM8.27637 6.49414L9.48486 4.73633C8.71582 4.46777 7.86133 4.3335 6.88477 4.3335C4.1748 4.3335 1.9043 5.59082 1.0376 7.44629C0.854492 7.8125 0.744629 8.19092 0.744629 8.49609C0.744629 9.11865 1.15967 9.52148 1.74561 9.52148C2.18506 9.52148 2.49023 9.33838 2.68555 8.93555C3.51562 7.10449 4.87061 6.32324 6.83594 6.32324C7.36084 6.32324 7.84912 6.38428 8.27637 6.49414Z" fill="#5ac8f5" fill-opacity="0.5"/>
  <path d="M17.5781 23.6572C24.0356 23.6572 29.4067 18.2861 29.4067 11.8286C29.4067 5.37109 24.0234 0 17.5659 0C11.1084 0 5.74951 5.37109 5.74951 11.8286C5.74951 18.2861 11.1206 23.6572 17.5781 23.6572ZM17.5781 21.6675C12.0972 21.6675 7.75146 17.3096 7.75146 11.8286C7.75146 6.34766 12.085 1.97754 17.5659 1.97754C23.0469 1.97754 27.4048 6.34766 27.4292 11.8286C27.4414 17.3096 23.0591 21.6675 17.5781 21.6675ZM18.2861 22.5586L20.8984 22.5342L20.8984 8.52051C20.8984 4.94385 18.6646 2.51465 14.8926 1.98975C14.4165 1.92871 13.916 1.89209 13.4155 1.87988L10.7788 4.56543C11.499 4.35791 12.2803 4.24805 13.2202 4.24805C16.3086 4.24805 18.1396 5.94482 18.1396 8.80127L18.1396 10.5957L11.8652 10.9741C10.0464 11.0962 8.53271 11.499 7.38525 12.1704L7.88574 15.0269C8.63037 13.916 10.1318 13.2568 12.207 13.1104L18.1396 12.7197L18.1396 14.8682C18.1396 17.8345 15.7471 20.1904 12.5732 20.4834L14.5874 22.2046C16.1865 21.582 17.4683 20.5322 18.1274 19.2261L18.2861 19.2261Z" fill="#5ac8f5"/>
 </g>
</svg>
