<?xml version="1.0" encoding="UTF-8"?>
<!--Generator: Apple Native CoreSVG 175.5-->
<!DOCTYPE svg
PUBLIC "-//W3C//DTD SVG 1.1//EN"
       "http://www.w3.org/Graphics/SVG/1.1/DTD/svg11.dtd">
<svg version="1.1" xmlns="http://www.w3.org/2000/svg" xmlns:xlink="http://www.w3.org/1999/xlink" width="24.9023" height="24.9146">
 <g>
  <rect height="24.9146" opacity="0" width="24.9023" x="0" y="0"/>
  <path d="M12.4512 24.9023C19.2627 24.9023 24.9023 19.2505 24.9023 12.4512C24.9023 5.63965 19.2505 0 12.439 0C5.63965 0 0 5.63965 0 12.4512C0 19.2505 5.65186 24.9023 12.4512 24.9023ZM12.4512 22.8271C6.68945 22.8271 2.0874 18.2129 2.0874 12.4512C2.0874 6.68945 6.67725 2.0752 12.439 2.0752C18.2007 2.0752 22.8271 6.68945 22.8271 12.4512C22.8271 18.2129 18.2129 22.8271 12.4512 22.8271Z" fill="#5ac8f5" fill-opacity="0.5"/>
  <path d="M13.0615 18.0054C13.6963 18.0054 14.0503 17.5903 14.0503 16.9067L14.0503 7.9834C14.0503 7.27539 13.6719 6.88477 13.0127 6.88477C12.561 6.88477 12.2437 7.00684 11.731 7.36084L9.53369 8.8501C9.26514 9.04541 9.15527 9.22852 9.15527 9.53369C9.15527 9.91211 9.44824 10.2661 9.83887 10.2661C10.0342 10.2661 10.1562 10.2417 10.437 10.0464L12.0117 9.00879L12.1094 9.00879L12.1094 16.9067C12.1094 17.5903 12.4634 18.0054 13.0615 18.0054Z" fill="#5ac8f5"/>
 </g>
</svg>
