<?xml version="1.0" encoding="UTF-8"?>
<!--Generator: Apple Native CoreSVG 175.5-->
<!DOCTYPE svg
PUBLIC "-//W3C//DTD SVG 1.1//EN"
       "http://www.w3.org/Graphics/SVG/1.1/DTD/svg11.dtd">
<svg version="1.1" xmlns="http://www.w3.org/2000/svg" xmlns:xlink="http://www.w3.org/1999/xlink" width="36.6806" height="13.0249">
 <g>
  <rect height="13.0249" opacity="0" width="36.6806" x="0" y="0"/>
  <path d="M4.89346 5.32227C6.37051 5.32227 7.55459 4.13818 7.55459 2.66113C7.55459 1.19629 6.37051 0 4.89346 0C3.42862 0 2.24453 1.19629 2.24453 2.66113C2.24453 4.13818 3.42862 5.32227 4.89346 5.32227ZM12.8769 12.6831L16.3681 12.6831C19.2611 12.6831 20.079 11.0352 19.8349 9.14307L19.0292 2.73438L25.2914 2.73438C25.9994 2.73438 26.5487 2.17285 26.5487 1.46484C26.5487 0.769043 25.9994 0.219727 25.2914 0.219727L17.4789 0.219727C16.7587 0.219727 16.2094 0.720215 16.2094 1.57471L16.2094 8.04443L14.122 8.04443C13.0111 8.04443 12.0712 7.6416 11.5341 6.78711C11.412 6.5918 11.412 6.29883 11.6439 6.03027L14.7812 2.30713C15.5136 1.45264 14.9276 0.219727 13.8656 0.219727L9.45889 0.219727C8.76309 0.219727 8.20157 0.769043 8.20157 1.46484C8.20157 2.18506 8.73868 2.73438 9.45889 2.73438L11.2411 2.73438L9.41006 4.89502C8.10391 6.44531 6.94424 7.51953 4.99112 8.38623L3.08682 9.24072L3.68496 7.12891C3.88028 6.43311 3.42862 5.74951 2.78164 5.60303C2.09805 5.43213 1.41446 5.84717 1.24356 6.49414L0.0594764 11.1206C-0.270113 12.3657 0.828519 13.0005 1.91495 12.5244L5.85782 10.7788C6.26065 10.6201 6.49258 10.6323 6.79776 10.8765C8.06729 11.9507 10.0937 12.6831 12.8769 12.6831ZM26.3534 9.85107L35.4232 9.85107C36.119 9.85107 36.6806 9.28955 36.6806 8.58154C36.6806 7.88574 36.119 7.32422 35.4232 7.32422L26.2314 7.32422C26.1337 7.32422 26.0116 7.32422 25.8773 7.33643L20.8481 7.75146L21.0189 8.97217C21.1044 9.69238 21.0922 10.3516 20.9457 10.9375Z" fill="#5ac8f5"/>
 </g>
</svg>
