<?xml version="1.0" encoding="UTF-8"?>
<!--Generator: Apple Native CoreSVG 175.5-->
<!DOCTYPE svg
PUBLIC "-//W3C//DTD SVG 1.1//EN"
       "http://www.w3.org/Graphics/SVG/1.1/DTD/svg11.dtd">
<svg version="1.1" xmlns="http://www.w3.org/2000/svg" xmlns:xlink="http://www.w3.org/1999/xlink" width="24.0601" height="25.6958">
 <g>
  <rect height="25.6958" opacity="0" width="24.0601" x="0" y="0"/>
  <path d="M0 17.1753C0 20.7886 2.2583 23.8159 5.28564 23.8159L7.43408 23.8159C5.23682 22.2168 4.3335 19.7998 4.3335 17.0532C4.3457 14.0015 5.52979 11.8164 6.57959 10.498L4.83398 10.498C2.11182 10.498 0 13.4277 0 17.1753ZM6.01807 17.0776C6.01807 21.5332 9.49707 24.9756 15.1733 24.9756L16.8335 24.9756C18.4082 24.9756 19.5801 24.8657 20.2393 24.6826C21.1914 24.4507 22.1069 23.8647 22.1069 22.7173C22.1069 22.2412 21.9849 21.8994 21.8384 21.6431C21.7407 21.4844 21.7651 21.3623 21.9116 21.3013C22.6685 20.9839 23.291 20.2759 23.291 19.3115C23.291 18.7622 23.1323 18.2739 22.8638 17.9443C22.7295 17.7612 22.7417 17.5903 22.9736 17.4683C23.5107 17.1509 23.9014 16.4673 23.9014 15.6738C23.9014 15.1001 23.7183 14.502 23.4009 14.209C23.2056 14.0381 23.2422 13.916 23.4375 13.7329C23.8159 13.4155 24.0601 12.8662 24.0601 12.1704C24.0601 10.9985 23.1445 10.0342 21.936 10.0342L17.6392 10.0342C16.5527 10.0342 15.8325 9.47266 15.8325 8.56934C15.8325 6.9458 17.8711 3.94287 17.8711 1.79443C17.8711 0.65918 17.1387 0 16.1865 0C15.3076 0 14.8804 0.598145 14.4165 1.51367C12.5977 5.0415 10.1807 7.89795 8.3374 10.3394C6.7749 12.4146 6.01807 14.209 6.01807 17.0776Z" fill="#5ac8f5"/>
 </g>
</svg>
