<?xml version="1.0" encoding="UTF-8"?>
<!--Generator: Apple Native CoreSVG 175.5-->
<!DOCTYPE svg
PUBLIC "-//W3C//DTD SVG 1.1//EN"
       "http://www.w3.org/Graphics/SVG/1.1/DTD/svg11.dtd">
<svg version="1.1" xmlns="http://www.w3.org/2000/svg" xmlns:xlink="http://www.w3.org/1999/xlink" width="24.939" height="23.0835">
 <g>
  <rect height="23.0835" opacity="0" width="24.939" x="0" y="0"/>
  <path d="M5.22461 23.0469L19.7266 23.0469C22.6196 23.0469 24.939 21.0205 24.939 18.0298C24.939 15.0391 22.6196 13.0127 19.7266 13.0127L5.22461 13.0127C2.33154 13.0127 0 15.0391 0 18.0298C0 21.0205 2.33154 23.0469 5.22461 23.0469ZM20.0317 21.2036C18.2739 21.1914 16.8701 19.7754 16.8701 18.0176C16.8701 16.272 18.2739 14.856 20.0317 14.856C21.7896 14.856 23.2178 16.2598 23.2056 18.0054C23.1934 19.7754 21.7896 21.2158 20.0317 21.2036ZM5.7251 8.45947C7.33643 8.47168 8.61816 7.15332 8.63037 5.54199C8.64258 3.94287 7.33643 2.66113 5.7251 2.66113C4.11377 2.66113 2.83203 3.95508 2.83203 5.5542C2.83203 7.16553 4.11377 8.44727 5.7251 8.45947Z" fill="#5ac8f5"/>
  <path d="M5.7251 11.1328L19.2261 11.1328C22.3755 11.1328 24.939 8.88672 24.939 5.56641C24.939 2.24609 22.3755 0 19.2261 0L5.7251 0C2.57568 0 0 2.24609 0 5.56641C0 8.88672 2.57568 11.1328 5.7251 11.1328ZM5.7251 9.28955C3.67432 9.28955 1.84326 7.78809 1.84326 5.56641C1.84326 3.34473 3.67432 1.84326 5.7251 1.84326L19.2261 1.84326C21.2646 1.84326 23.0957 3.34473 23.0957 5.56641C23.0957 7.78809 21.2646 9.28955 19.2261 9.28955Z" fill="#5ac8f5" fill-opacity="0.5"/>
 </g>
</svg>
