<?xml version="1.0" encoding="UTF-8"?>
<!--Generator: Apple Native CoreSVG 175.5-->
<!DOCTYPE svg
PUBLIC "-//W3C//DTD SVG 1.1//EN"
       "http://www.w3.org/Graphics/SVG/1.1/DTD/svg11.dtd">
<svg version="1.1" xmlns="http://www.w3.org/2000/svg" xmlns:xlink="http://www.w3.org/1999/xlink" width="34.1156" height="30.9937">
 <g>
  <rect height="30.9937" opacity="0" width="34.1156" x="0" y="0"/>
  <path d="M15.4907 0C6.93359 0 0 6.93359 0 15.4907C0 24.0479 6.93359 30.9814 15.4907 30.9814C22.3022 30.9814 28.0884 26.5747 30.1636 20.459C29.4556 20.5566 28.772 20.3613 28.2593 19.9463C26.416 25.2319 21.3989 29.0161 15.4907 29.0161C8.02002 29.0161 1.96533 22.9614 1.96533 15.4907C1.96533 8.02002 8.02002 1.96533 15.4907 1.96533C21.4111 1.96533 26.4282 5.76172 28.2593 11.0596C28.7842 10.6323 29.4678 10.4492 30.1758 10.5469C28.1128 4.41895 22.3145 0 15.4907 0Z" fill="#5ac8f5" fill-opacity="0.5"/>
  <path d="M15.4907 26.2085C21.4111 26.2085 26.2207 21.4111 26.2207 15.4907C26.2207 9.57031 21.4111 4.76074 15.4907 4.76074C9.57031 4.76074 4.76074 9.57031 4.76074 15.4907C4.76074 21.4111 9.57031 26.2085 15.4907 26.2085ZM30.5054 12.4146C29.834 11.9019 29.0161 12.207 29.0161 13.0493L29.0161 17.9443C29.0161 18.811 29.8584 19.0674 30.5054 18.5791L33.7769 16.1377C34.2285 15.8081 34.2285 15.1855 33.7769 14.856ZM13.269 20.8374C12.6465 20.8374 12.3169 20.3857 12.3169 19.7388L12.3169 10.8643C12.3169 10.2173 12.6465 9.77783 13.269 9.77783C13.8916 9.77783 14.2334 10.2051 14.2334 10.8643L14.2334 19.2505L18.7744 19.2505C19.2383 19.2505 19.5801 19.5435 19.5801 20.0317C19.5801 20.5322 19.2383 20.8374 18.7744 20.8374Z" fill="#5ac8f5"/>
 </g>
</svg>
