<?xml version="1.0" encoding="UTF-8"?>
<!--Generator: Apple Native CoreSVG 175.5-->
<!DOCTYPE svg
PUBLIC "-//W3C//DTD SVG 1.1//EN"
       "http://www.w3.org/Graphics/SVG/1.1/DTD/svg11.dtd">
<svg version="1.1" xmlns="http://www.w3.org/2000/svg" xmlns:xlink="http://www.w3.org/1999/xlink" width="32.0826" height="21.627">
 <g>
  <rect height="21.627" opacity="0" width="32.0826" x="0" y="0"/>
  <path d="M23.584 14.8846C28.1494 15.1531 30.957 12.7361 31.9458 10.1849C32.3486 9.19609 31.8237 8.31718 30.8716 8.31718C30.1392 8.31718 29.541 8.63456 28.2471 8.63456C25.1343 8.63456 23.4863 6.90117 23.4863 4.06913C23.4863 2.68974 23.9136 1.9329 23.9136 1.24931C23.9136 0.248333 23.0469-0.252155 21.9727 0.126263C19.3848 0.968548 17.1875 3.72734 17.1875 7.10868C17.1875 8.19511 17.3828 9.24492 17.7734 10.2093L19.7998 10.1726C19.2505 9.26933 18.9819 8.19511 18.9819 7.07206C18.9819 4.7039 20.3857 2.87284 21.9849 1.99394L22.1191 2.09159C21.9116 2.67753 21.7285 3.4954 21.7285 4.43534C21.7285 7.95097 24.292 10.3558 27.832 10.3558C28.6987 10.3558 29.5044 10.2093 30.0659 10.0262L30.1514 10.1116C29.3335 11.6619 27.1362 13.3709 23.584 13.0901Z" fill="#5ac8f5" fill-opacity="0.5"/>
  <path d="M5.17578 21.1101L18.3838 21.1101C21.9116 21.1101 24.6582 18.4368 24.6582 14.9944C24.6582 11.5765 21.8872 9.00077 18.2251 8.95195C16.7969 6.27861 14.2456 4.64286 11.2305 4.64286C7.18994 4.64286 3.80859 7.75566 3.40576 11.7718C1.37939 12.4065 0 14.1643 0 16.386C0 19.1326 2.0752 21.1101 5.17578 21.1101ZM5.12695 19.157C3.05176 19.157 1.95312 17.9607 1.95312 16.4349C1.95312 15.1409 2.70996 14.0057 4.50439 13.5174C5.09033 13.3709 5.31006 13.1023 5.35889 12.4798C5.63965 9.06181 8.17871 6.59599 11.2305 6.59599C13.5986 6.59599 15.4419 7.90214 16.5771 10.1726C16.8457 10.6976 17.1387 10.8807 17.7612 10.8807C20.9229 10.8807 22.6929 12.785 22.6929 15.0555C22.6929 17.326 20.8374 19.157 18.4204 19.157Z" fill="#5ac8f5"/>
 </g>
</svg>
