<?xml version="1.0" encoding="UTF-8"?>
<!--Generator: Apple Native CoreSVG 175.5-->
<!DOCTYPE svg
PUBLIC "-//W3C//DTD SVG 1.1//EN"
       "http://www.w3.org/Graphics/SVG/1.1/DTD/svg11.dtd">
<svg version="1.1" xmlns="http://www.w3.org/2000/svg" xmlns:xlink="http://www.w3.org/1999/xlink" width="27.4902" height="27.0993">
 <g>
  <rect height="27.0993" opacity="0" width="27.4902" x="0" y="0"/>
  <path d="M13.7451 25.4332C14.0625 25.4332 14.3677 25.4088 14.6973 25.3843L15.3931 26.7149C15.5396 26.9957 15.7959 27.13 16.1377 27.0933C16.4429 27.0323 16.6504 26.8004 16.6992 26.483L16.9067 25.0059C17.5171 24.835 18.1152 24.6031 18.689 24.359L19.7876 25.3477C20.0195 25.5675 20.3125 25.6041 20.6177 25.4454C20.8862 25.2867 20.9961 25.0059 20.9351 24.6763L20.6299 23.2237C21.1426 22.8697 21.6431 22.4669 22.0947 22.0152L23.4497 22.5767C23.7549 22.711 24.0479 22.6378 24.2798 22.3692C24.4873 22.1373 24.4995 21.8321 24.3286 21.5513L23.5352 20.2818C23.9014 19.7813 24.1943 19.2198 24.4751 18.6339L25.9766 18.7071C26.2939 18.7315 26.5503 18.5484 26.6602 18.2554C26.7578 17.9503 26.6724 17.6573 26.416 17.462L25.2441 16.5343C25.4028 15.9361 25.5249 15.3135 25.5859 14.6544L26.9897 14.2027C27.3071 14.1051 27.4902 13.8731 27.4902 13.5435C27.4902 13.2139 27.3071 12.982 26.9897 12.8721L25.5859 12.4327C25.5249 11.7735 25.4028 11.1632 25.2441 10.5528L26.416 9.62507C26.6602 9.42976 26.7578 9.149 26.6602 8.84382C26.5503 8.55085 26.2939 8.36775 25.9766 8.39216L24.4751 8.44099C24.1943 7.85505 23.9014 7.31794 23.5352 6.79304L24.3286 5.52351C24.4995 5.26716 24.4751 4.96199 24.2798 4.73005C24.0479 4.4615 23.7549 4.40046 23.4497 4.52253L22.0947 5.07185C21.6431 4.6324 21.1426 4.21736 20.6299 3.86335L20.9351 2.42292C21.0083 2.08113 20.8862 1.80036 20.6177 1.65388C20.3125 1.48298 20.0195 1.5196 19.7876 1.75154L18.689 2.7281C18.1152 2.47175 17.5171 2.26423 16.9067 2.08113L16.6992 0.616283C16.6504 0.2989 16.4307 0.0669665 16.1255 0.00593137C15.7959-0.0306897 15.5273 0.103588 15.3931 0.372142L14.6973 1.70271C14.3677 1.67829 14.0625 1.66609 13.7451 1.66609C13.4155 1.66609 13.1226 1.67829 12.793 1.70271L12.085 0.372142C11.9507 0.103588 11.6821-0.0306897 11.3525 0.00593137C11.0474 0.0669665 10.8276 0.2989 10.791 0.616283L10.5713 2.08113C9.96094 2.26423 9.375 2.45954 8.78906 2.7281L7.69043 1.75154C7.4585 1.5196 7.16553 1.49519 6.86035 1.65388C6.5918 1.80036 6.46973 2.08113 6.54297 2.42292L6.84814 3.86335C6.34766 4.21736 5.83496 4.6324 5.3833 5.07185L4.02832 4.52253C3.72314 4.40046 3.44238 4.4615 3.21045 4.73005C3.00293 4.96199 2.97852 5.26716 3.14941 5.52351L3.94287 6.79304C3.58887 7.31794 3.28369 7.85505 3.00293 8.44099L1.51367 8.39216C1.19629 8.36775 0.927734 8.55085 0.817871 8.84382C0.720215 9.149 0.817871 9.42976 1.06201 9.62507L2.23389 10.5528C2.0752 11.1632 1.95312 11.7735 1.9165 12.4205L0.488281 12.8721C0.170898 12.982 0 13.2139 0 13.5435C0 13.8731 0.170898 14.1051 0.488281 14.2027L1.9165 14.6544C1.95312 15.3135 2.0752 15.9361 2.23389 16.5343L1.06201 17.462C0.817871 17.6451 0.732422 17.9381 0.817871 18.2554C0.927734 18.5484 1.19629 18.7315 1.51367 18.7071L3.00293 18.6339C3.28369 19.2198 3.58887 19.7813 3.94287 20.2818L3.14941 21.5513C2.97852 21.8321 3.00293 22.1373 3.21045 22.3692C3.44238 22.6378 3.72314 22.711 4.02832 22.5767L5.3833 22.0152C5.83496 22.4669 6.34766 22.8697 6.84814 23.2237L6.54297 24.6763C6.48193 25.0059 6.5918 25.2867 6.86035 25.4454C7.16553 25.6041 7.4585 25.5675 7.69043 25.3477L8.78906 24.359C9.375 24.6031 9.96094 24.835 10.5713 25.0059L10.791 26.483C10.8276 26.8004 11.0474 27.0323 11.3525 27.0933C11.6821 27.13 11.9385 26.9957 12.085 26.7149L12.793 25.3843C13.1104 25.4088 13.4155 25.4332 13.7451 25.4332ZM13.7451 23.5899C8.1543 23.5899 3.83301 19.1221 3.83301 13.5557C3.83301 7.97712 8.1543 3.50935 13.7451 3.50935C19.3359 3.50935 23.6572 7.97712 23.6572 13.5557C23.6572 19.1221 19.3359 23.5899 13.7451 23.5899ZM11.6089 11.5416L12.9639 10.6871L8.82568 3.60701L7.42188 4.40046ZM16.5771 14.3248L24.8169 14.3248L24.8047 12.7501L16.5771 12.7501ZM12.9761 16.4366L11.6333 15.5577L7.2998 22.65L8.69141 23.4678ZM13.7207 16.7662C15.4785 16.7662 16.9067 15.338 16.9067 13.5679C16.9067 11.7979 15.4785 10.3697 13.7207 10.3697C11.9507 10.3697 10.5225 11.7979 10.5225 13.5679C10.5225 15.338 11.9507 16.7662 13.7207 16.7662ZM13.7207 15.045C12.8784 15.045 12.2437 14.398 12.2437 13.5679C12.2437 12.7379 12.8784 12.0909 13.7207 12.0909C14.5508 12.0909 15.1855 12.7379 15.1855 13.5679C15.1855 14.398 14.5508 15.045 13.7207 15.045Z" fill="#5ac8f5"/>
 </g>
</svg>
