<?xml version="1.0" encoding="UTF-8"?>
<!--Generator: Apple Native CoreSVG 175.5-->
<!DOCTYPE svg
PUBLIC "-//W3C//DTD SVG 1.1//EN"
       "http://www.w3.org/Graphics/SVG/1.1/DTD/svg11.dtd">
<svg version="1.1" xmlns="http://www.w3.org/2000/svg" xmlns:xlink="http://www.w3.org/1999/xlink" width="28.9429" height="26.9897">
 <g>
  <rect height="26.9897" opacity="0" width="28.9429" x="0" y="0"/>
  <path d="M0 18.3716C0 19.873 1.23291 21.106 2.73438 21.106C3.79639 21.106 4.73633 20.4712 5.17578 19.5679L23.584 24.9512C23.877 26.123 24.9512 26.9897 26.2207 26.9897C27.71 26.9897 28.9429 25.769 28.9429 24.2676C28.9429 23.1323 28.2349 22.1558 27.2583 21.7529L26.7334 9.44824C27.7832 9.08203 28.54 8.08105 28.54 6.89697C28.54 5.39551 27.3193 4.1748 25.8301 4.1748C24.8291 4.1748 23.9624 4.71191 23.4741 5.49316L13.3057 2.70996C13.269 1.23291 12.0605 0.0366211 10.5957 0.0366211C9.09424 0.0366211 7.86133 1.26953 7.86133 2.771C7.86133 3.57666 8.21533 4.29688 8.77686 4.80957L3.11279 15.6982C2.97852 15.6616 2.85645 15.6494 2.73438 15.6494C1.23291 15.6494 0 16.8701 0 18.3716ZM4.71191 16.5161L10.3882 5.45654C11.3403 5.57861 12.2559 5.12695 12.7441 4.37012L23.1567 7.22656C23.2422 8.28857 24.0112 9.2041 25.0244 9.50928L25.4517 21.6431C24.646 21.875 23.9868 22.4731 23.6938 23.2422L5.37109 17.8589C5.29785 17.334 5.07812 16.9067 4.71191 16.5161Z" fill="#5ac8f5"/>
 </g>
</svg>
