<?xml version="1.0" encoding="UTF-8"?>
<!--Generator: Apple Native CoreSVG 175.5-->
<!DOCTYPE svg
PUBLIC "-//W3C//DTD SVG 1.1//EN"
       "http://www.w3.org/Graphics/SVG/1.1/DTD/svg11.dtd">
<svg version="1.1" xmlns="http://www.w3.org/2000/svg" xmlns:xlink="http://www.w3.org/1999/xlink" width="28.6987" height="18.0298">
 <g>
  <rect height="18.0298" opacity="0" width="28.6987" x="0" y="0"/>
  <path d="M1.07422 17.7612L11.2183 17.7612C11.8286 17.7612 12.2192 17.3706 12.2192 16.7725C12.2192 16.1865 11.8286 15.7959 11.2183 15.7959L3.08838 15.7959L3.08838 15.7349L7.84912 11.0962C10.7544 8.27637 11.6211 6.81152 11.6211 4.93164C11.6211 2.13623 9.13086 0 5.82275 0C3.23486 0 1.00098 1.40381 0.268555 3.55225C0.12207 3.96729 0.0610352 4.30908 0.0610352 4.61426C0.0610352 5.22461 0.415039 5.62744 1.01318 5.62744C1.58691 5.62744 1.83105 5.35889 2.01416 4.74854C2.11182 4.37012 2.24609 4.02832 2.44141 3.71094C3.10059 2.62451 4.29688 1.92871 5.82275 1.92871C7.80029 1.92871 9.375 3.32031 9.375 5.05371C9.375 6.45752 8.81348 7.40967 6.39648 9.79004L0.683594 15.4663C0.170898 15.979 0 16.2842 0 16.7358C0 17.3706 0.427246 17.7612 1.07422 17.7612ZM15.7471 17.7368L20.5811 17.7368C25.4883 17.7368 28.6987 14.2334 28.6987 8.97217C28.6987 3.74756 25.4883 0.280762 20.5811 0.280762L15.7471 0.280762C15.0757 0.280762 14.6484 0.720215 14.6484 1.40381L14.6484 16.6016C14.6484 17.2974 15.0757 17.7368 15.7471 17.7368ZM16.8579 15.7349L16.8579 2.2583L20.4346 2.2583C24.0845 2.2583 26.4404 4.94385 26.4404 8.98438C26.4404 13.0371 24.0845 15.7349 20.4346 15.7349Z" fill="#5ac8f5"/>
 </g>
</svg>
