<?xml version="1.0" encoding="UTF-8"?>
<!--Generator: Apple Native CoreSVG 175.5-->
<!DOCTYPE svg
PUBLIC "-//W3C//DTD SVG 1.1//EN"
       "http://www.w3.org/Graphics/SVG/1.1/DTD/svg11.dtd">
<svg version="1.1" xmlns="http://www.w3.org/2000/svg" xmlns:xlink="http://www.w3.org/1999/xlink" width="23.9258" height="31.7545">
 <g>
  <rect height="31.7545" opacity="0" width="23.9258" x="0" y="0"/>
  <path d="M21.2769 11.8062C22.7417 11.8062 23.9258 10.6099 23.9258 9.12065C23.9258 7.65581 22.7417 6.47173 21.2769 6.47173C19.7876 6.47173 18.5913 7.65581 18.5913 9.12065C18.5913 10.6099 19.7876 11.8062 21.2769 11.8062ZM10.3516 21.3765L14.8804 24.6846L12.2437 29.9458C11.9385 30.544 12.1826 31.313 12.8052 31.6304C13.3667 31.899 14.1235 31.7403 14.4531 31.0689L17.5415 24.8921C17.8101 24.3428 17.7124 23.7935 17.2852 23.3785L14.9536 21.1934L18.9209 21.1934C19.6411 21.1934 20.166 20.6319 20.166 19.9483L20.166 14.98C20.166 12.9415 18.5181 11.2691 16.4551 11.2691L11.8774 11.2691L12.6709 8.48589C12.854 7.83891 12.5 7.15532 11.8286 6.96001C11.1694 6.76469 10.4858 7.15532 10.3027 7.80229L9.06982 12.148C8.83789 12.9781 9.32617 13.7349 10.2051 13.7349L14.6606 13.7349C14.7095 13.7349 14.7461 13.8082 14.6973 13.8448L10.8154 15.8101C8.63037 16.9087 8.36182 19.9117 10.3516 21.3765ZM15.0513 18.7642L17.5171 17.5923C17.627 17.5435 17.7612 17.6167 17.7612 17.7388L17.7612 18.7642ZM8.54492 21.1568L7.48291 24.2818L1.26953 24.2818C0.561523 24.2818 0 24.8433 0 25.5269C0 26.2349 0.561523 26.7964 1.26953 26.7964L8.37402 26.7964C8.83789 26.7964 9.30176 26.5279 9.50928 26.0762L10.9253 23.2442L9.65576 22.3287C9.2041 21.9869 8.82568 21.584 8.54492 21.1568ZM10.9863 5.49516L11.9873 5.49516C12.7197 4.60405 13.562 3.10259 13.562 2.10161C13.562 0.868698 12.7075 0.0142061 11.499 0.0142061C10.2661 0.0142061 9.39941 0.868698 9.39941 2.10161C9.39941 3.21245 10.2417 4.70171 10.9863 5.49516ZM10.791 18.3125L12.1704 18.3125L12.1704 5.0435L10.791 5.0435Z" fill="#5ac8f5"/>
 </g>
</svg>
