<?xml version="1.0" encoding="UTF-8"?>
<!--Generator: Apple Native CoreSVG 175.5-->
<!DOCTYPE svg
PUBLIC "-//W3C//DTD SVG 1.1//EN"
       "http://www.w3.org/Graphics/SVG/1.1/DTD/svg11.dtd">
<svg version="1.1" xmlns="http://www.w3.org/2000/svg" xmlns:xlink="http://www.w3.org/1999/xlink" width="22.4731" height="22.4976">
 <g>
  <rect height="22.4976" opacity="0" width="22.4731" x="0" y="0"/>
  <path d="M3.83301 22.4976L18.6401 22.4976C21.2036 22.4976 22.4731 21.228 22.4731 18.7134L22.4731 3.80859C22.4731 1.29395 21.2036 0.0244141 18.6401 0.0244141L3.83301 0.0244141C1.28174 0.0244141 0 1.28174 0 3.80859L0 18.7134C0 21.2402 1.28174 22.4976 3.83301 22.4976Z" fill="#5ac8f5" fill-opacity="0.25"/>
  <path d="M5.59082 7.6416C4.45557 7.61719 3.54004 6.72607 3.54004 5.57861C3.54004 4.45557 4.45557 3.55225 5.59082 3.55225C6.70166 3.55225 7.62939 4.45557 7.62939 5.57861C7.62939 6.72607 6.70166 7.66602 5.59082 7.6416ZM16.9067 7.6416C15.7715 7.61719 14.8438 6.72607 14.8438 5.57861C14.8438 4.45557 15.7715 3.55225 16.9067 3.55225C18.0176 3.55225 18.9331 4.45557 18.9331 5.57861C18.9331 6.72607 18.0176 7.66602 16.9067 7.6416ZM11.2427 13.3057C10.1074 13.3057 9.2041 12.3901 9.2041 11.2427C9.2041 10.1196 10.1074 9.21631 11.2427 9.21631C12.3535 9.21631 13.2812 10.1196 13.2812 11.2427C13.2812 12.3901 12.3535 13.3057 11.2427 13.3057ZM5.59082 18.9697C4.45557 18.9697 3.55225 18.0542 3.55225 16.9189C3.55225 15.7837 4.45557 14.8804 5.59082 14.8804C6.70166 14.8804 7.62939 15.7837 7.62939 16.9189C7.62939 18.0542 6.70166 18.9697 5.59082 18.9697ZM16.9067 18.9697C15.7715 18.9697 14.8682 18.0542 14.8682 16.9189C14.8682 15.7837 15.7715 14.8804 16.9067 14.8804C18.0176 14.8804 18.9331 15.7837 18.9331 16.9189C18.9331 18.0542 18.0176 18.9697 16.9067 18.9697Z" fill="#5ac8f5"/>
 </g>
</svg>
