<?xml version="1.0" encoding="UTF-8"?>
<!--Generator: Apple Native CoreSVG 175.5-->
<!DOCTYPE svg
PUBLIC "-//W3C//DTD SVG 1.1//EN"
       "http://www.w3.org/Graphics/SVG/1.1/DTD/svg11.dtd">
<svg version="1.1" xmlns="http://www.w3.org/2000/svg" xmlns:xlink="http://www.w3.org/1999/xlink" width="30.2002" height="21.5454">
 <g>
  <rect height="21.5454" opacity="0" width="30.2002" x="0" y="0"/>
  <path d="M13.1592 21.5454C13.9648 21.5454 14.5386 20.9717 14.5386 20.1782L14.5386 1.45264C14.5386 0.65918 13.9648 0.012207 13.1348 0.012207C12.561 0.012207 12.1704 0.256348 11.5601 0.854492L6.34766 5.7373C6.27441 5.81055 6.16455 5.84717 6.04248 5.84717L2.55127 5.84717C0.891113 5.84717 0 6.7627 0 8.52051L0 13.0615C0 14.8315 0.891113 15.7349 2.55127 15.7349L6.04248 15.7349C6.16455 15.7349 6.27441 15.7715 6.34766 15.8447L11.5601 20.7764C12.1094 21.3135 12.5854 21.5454 13.1592 21.5454Z" fill="#5ac8f5"/>
  <path d="M19.4702 11.792L29.0405 11.792C29.7241 11.792 30.2002 11.4258 30.2002 10.7788C30.2002 10.1196 29.7607 9.74121 29.0405 9.74121L19.4702 9.74121C18.7622 9.74121 18.2983 10.1196 18.2983 10.7788C18.2983 11.4258 18.7866 11.792 19.4702 11.792Z" fill="#5ac8f5" fill-opacity="0.5"/>
 </g>
</svg>
