<?xml version="1.0" encoding="UTF-8"?>
<!--Generator: Apple Native CoreSVG 175.5-->
<!DOCTYPE svg
PUBLIC "-//W3C//DTD SVG 1.1//EN"
       "http://www.w3.org/Graphics/SVG/1.1/DTD/svg11.dtd">
<svg version="1.1" xmlns="http://www.w3.org/2000/svg" xmlns:xlink="http://www.w3.org/1999/xlink" width="32.9108" height="31.1485">
 <g>
  <rect height="31.1485" opacity="0" width="32.9108" x="0" y="0"/>
  <path d="M4.15903 10.3191C4.56186 10.3923 4.98911 10.1482 5.06235 9.72096C5.1478 9.30592 4.89145 8.9153 4.46421 8.81764L0.936373 8.06081C0.484713 7.96315 0.0696741 8.25612 0.00863891 8.69557C-0.0523963 9.0984 0.216158 9.48903 0.61899 9.57448ZM5.39194 6.25417C5.69712 6.55934 6.1976 6.55934 6.49057 6.25417C6.78354 5.94899 6.79575 5.47292 6.49057 5.16774L3.9271 2.61647C3.60971 2.29909 3.14585 2.31129 2.84067 2.61647C2.53549 2.92165 2.52329 3.38551 2.84067 3.7029ZM9.94516 5.04567C10.3602 4.96022 10.6532 4.53297 10.5555 4.14235L9.79868 0.614517C9.70102 0.187271 9.28598-0.069077 8.88315 0.0163722C8.46811 0.101821 8.17514 0.504653 8.2728 0.9319L9.02963 4.44752C9.12729 4.85036 9.51792 5.14333 9.94516 5.04567ZM27.0838 27.2991C30.1234 24.2717 30.6117 20.4876 28.5243 16.1052L25.7777 10.3069C25.5824 9.90407 25.3504 9.57448 25.0941 9.31813C24.1786 8.4026 22.848 8.45143 21.9691 9.34254C21.3709 9.92848 21.1878 10.8196 21.5907 11.7962L22.3963 13.7371C22.4207 13.7859 22.4207 13.8347 22.3841 13.8714C22.3353 13.9202 22.2865 13.908 22.2376 13.8591L15.3163 6.93776C14.3153 5.92458 13.0457 5.92458 12.0814 6.88893C11.7274 7.24293 11.5321 7.68239 11.5199 8.14626C10.5189 7.37721 9.40805 7.40163 8.55356 8.26833C7.71128 9.0984 7.68686 10.2459 8.40708 11.2224C7.96762 11.2224 7.55258 11.4177 7.2352 11.7351C6.34409 12.6262 6.3685 13.8469 7.32065 14.8113L8.28501 15.7634C7.80893 15.7512 7.33286 15.971 6.96665 16.3494C6.06333 17.2405 6.11215 18.5222 7.07651 19.4866L14.4984 26.9085C18.5389 30.949 23.4339 30.949 27.0838 27.2991ZM25.8509 26.1516C22.7992 29.2034 18.9662 29.1057 15.4994 25.6267L8.34604 18.4734C7.96762 18.1072 7.95542 17.6189 8.30942 17.2527C8.66342 16.8987 9.17612 16.8987 9.54233 17.2649L13.9613 21.6839C14.2787 22.0012 14.7425 21.9524 15.0355 21.6716C15.3285 21.3787 15.3773 20.9026 15.0599 20.5852L8.4559 13.9812C8.08969 13.615 8.06528 13.1267 8.41928 12.7727C8.78549 12.4187 9.29819 12.4187 9.6644 12.7849L15.8167 18.9373C16.1341 19.2547 16.6102 19.218 16.891 18.9251C17.1839 18.6321 17.2328 18.156 16.9154 17.8386L9.68881 10.6121C9.3226 10.2459 9.3104 9.73317 9.6644 9.37917C10.0062 9.02516 10.5311 9.04958 10.8973 9.41579L18.1239 16.6423C18.4168 16.9353 18.8929 16.9231 19.1859 16.6301C19.4911 16.325 19.5155 15.8489 19.2225 15.5437L13.058 9.37917C12.6917 9.01295 12.6795 8.51247 13.0457 8.15846C13.3998 7.79225 13.9002 7.80446 14.2665 8.18288L22.7625 16.679C23.1898 17.1062 23.7025 17.1062 24.0565 16.74C24.3617 16.4348 24.4959 16.032 24.2518 15.4094L22.7259 11.3933C22.5184 10.8562 22.7137 10.4046 23.1288 10.2092C23.5926 10.0017 23.9955 10.2092 24.2762 10.7952L27.1082 16.7888C29.0003 20.7927 28.2557 23.7346 25.8509 26.1516ZM15.2064 5.7903C14.8402 6.13209 14.6571 6.58376 14.6327 7.04762L16.1707 8.28053C15.8167 7.92653 15.8045 7.41383 16.1585 7.04762C16.5125 6.69362 17.013 6.71803 17.3915 7.08424L21.5296 11.2346L22.5184 9.91627L18.4413 5.83913C17.4159 4.82594 16.1707 4.82594 15.2064 5.7903ZM30.2088 26.2127C33.2362 23.1731 33.7245 19.3889 31.6493 15.0066L28.8905 9.19606C28.39 8.12184 27.5477 7.56032 26.5467 7.56032C25.7655 7.56032 24.3983 8.10963 24.3983 9.70876C24.3983 9.84303 24.3983 9.97731 24.4227 10.1238L25.8753 10.5266C25.8021 10.3679 25.7533 10.2092 25.7533 10.0017C25.7533 9.6111 26.0707 9.22047 26.5956 9.22047C26.9251 9.22047 27.2669 9.45241 27.45 9.84303L30.221 15.6902C32.1131 19.6819 31.3929 22.6482 28.9637 25.0408C27.9872 26.0173 26.9251 26.6765 25.8387 26.9939L24.0565 28.8738C26.2415 28.9348 28.3778 28.0315 30.2088 26.2127Z" fill="#5ac8f5"/>
 </g>
</svg>
