<?xml version="1.0" encoding="UTF-8"?>
<!--Generator: Apple Native CoreSVG 175.5-->
<!DOCTYPE svg
PUBLIC "-//W3C//DTD SVG 1.1//EN"
       "http://www.w3.org/Graphics/SVG/1.1/DTD/svg11.dtd">
<svg version="1.1" xmlns="http://www.w3.org/2000/svg" xmlns:xlink="http://www.w3.org/1999/xlink" width="22.4731" height="22.4976">
 <g>
  <rect height="22.4976" opacity="0" width="22.4731" x="0" y="0"/>
  <path d="M3.83301 22.4976L18.6401 22.4976C21.2036 22.4976 22.4731 21.228 22.4731 18.7134L22.4731 3.80859C22.4731 1.29395 21.2036 0.0244141 18.6401 0.0244141L3.83301 0.0244141C1.28174 0.0244141 0 1.28174 0 3.80859L0 18.7134C0 21.2402 1.28174 22.4976 3.83301 22.4976ZM6.44531 13.5742C6.44531 13.3057 6.50635 13.0371 6.65283 12.7808C8.00781 10.4126 9.22852 8.25195 10.5713 5.896C10.8032 5.48096 11.0718 5.28564 11.4746 5.28564C12.0483 5.28564 12.3657 5.71289 12.3657 6.21338C12.3657 6.40869 12.2925 6.604 12.1948 6.81152C11.0229 8.95996 9.93652 10.8398 8.80127 12.9517L12.2925 12.9517L12.2925 10.2417C12.2925 9.57031 12.6343 9.17969 13.1958 9.17969C13.8062 9.17969 14.1479 9.55811 14.1479 10.2417L14.1479 12.9517L14.9902 12.9517C15.5518 12.9517 15.8936 13.269 15.8936 13.7573C15.8936 14.2822 15.5518 14.624 14.9902 14.624L14.1479 14.624L14.1479 15.918C14.1479 16.6016 13.8062 16.98 13.1958 16.98C12.6343 16.98 12.2925 16.5894 12.2925 15.918L12.2925 14.624L7.55615 14.624C6.86035 14.624 6.44531 14.209 6.44531 13.5742Z" fill="#5ac8f5"/>
 </g>
</svg>
