<?xml version="1.0" encoding="UTF-8"?>
<!--Generator: Apple Native CoreSVG 175.5-->
<!DOCTYPE svg
PUBLIC "-//W3C//DTD SVG 1.1//EN"
       "http://www.w3.org/Graphics/SVG/1.1/DTD/svg11.dtd">
<svg version="1.1" xmlns="http://www.w3.org/2000/svg" xmlns:xlink="http://www.w3.org/1999/xlink" width="24.9268" height="22.3755">
 <g>
  <rect height="22.3755" opacity="0" width="24.9268" x="0" y="0"/>
  <path d="M7.03125 0L1.14746 0C0.500488 0 0 0.476074 0 1.09863C0 1.72119 0.500488 2.20947 1.14746 2.20947L6.51855 2.20947C6.95801 2.20947 7.27539 2.40479 7.4585 2.80762L15.5029 20.874C15.9546 21.8994 16.6992 22.3755 17.8223 22.3755L23.7793 22.3755C24.4141 22.3755 24.9268 21.8872 24.9268 21.2769C24.9268 20.6665 24.4141 20.166 23.7793 20.166L18.3716 20.166C17.8833 20.166 17.5781 19.9829 17.3828 19.5801L9.375 1.52588C8.95996 0.57373 8.08105 0 7.03125 0ZM23.7793 0L15.8813 0C15.2344 0 14.7339 0.463867 14.7339 1.08643C14.7339 1.70898 15.2344 2.18506 15.8813 2.18506L23.7793 2.18506C24.4263 2.18506 24.9146 1.70898 24.9146 1.08643C24.9146 0.463867 24.4263 0 23.7793 0Z" fill="#5ac8f5"/>
 </g>
</svg>
