<?xml version="1.0" encoding="UTF-8"?>
<!--Generator: Apple Native CoreSVG 175.5-->
<!DOCTYPE svg
PUBLIC "-//W3C//DTD SVG 1.1//EN"
       "http://www.w3.org/Graphics/SVG/1.1/DTD/svg11.dtd">
<svg version="1.1" xmlns="http://www.w3.org/2000/svg" xmlns:xlink="http://www.w3.org/1999/xlink" width="24.9023" height="24.9146">
 <g>
  <rect height="24.9146" opacity="0" width="24.9023" x="0" y="0"/>
  <path d="M12.4512 24.9023C19.2627 24.9023 24.9023 19.2505 24.9023 12.4512C24.9023 5.63965 19.2505 0 12.439 0C5.63965 0 0 5.63965 0 12.4512C0 19.2505 5.65186 24.9023 12.4512 24.9023Z" fill="#5ac8f5" fill-opacity="0.25"/>
  <path d="M12.4634 19.043C8.8623 19.043 5.85938 16.04 5.85938 12.4512C5.85938 10.6323 6.66504 8.82568 8.03223 7.61719C8.88672 6.79932 10.0708 8.03223 9.17969 8.8623C8.17871 9.79004 7.61719 11.0596 7.61719 12.4512C7.61719 15.1489 9.76562 17.3096 12.4634 17.3096C15.1611 17.3096 17.3218 15.1489 17.3218 12.4512C17.3096 11.0596 16.7358 9.79004 15.7471 8.87451C14.856 8.04443 16.04 6.81152 16.9067 7.61719C18.2617 8.8501 19.0674 10.6445 19.0674 12.4512C19.0674 16.04 16.0645 19.043 12.4634 19.043ZM12.4634 12.7319C11.9751 12.7319 11.6333 12.3779 11.6333 11.8774L11.6333 6.37207C11.6333 5.85938 11.9751 5.50537 12.4634 5.50537C12.9517 5.50537 13.3057 5.85938 13.3057 6.37207L13.3057 11.8774C13.3057 12.3779 12.9517 12.7319 12.4634 12.7319Z" fill="#5ac8f5"/>
 </g>
</svg>
