<?xml version="1.0" encoding="UTF-8"?>
<!--Generator: Apple Native CoreSVG 175.5-->
<!DOCTYPE svg
PUBLIC "-//W3C//DTD SVG 1.1//EN"
       "http://www.w3.org/Graphics/SVG/1.1/DTD/svg11.dtd">
<svg version="1.1" xmlns="http://www.w3.org/2000/svg" xmlns:xlink="http://www.w3.org/1999/xlink" width="24.9023" height="24.9146">
 <g>
  <rect height="24.9146" opacity="0" width="24.9023" x="0" y="0"/>
  <path d="M12.4512 24.9023C19.2627 24.9023 24.9023 19.2505 24.9023 12.4512C24.9023 5.63965 19.2505 0 12.439 0C5.63965 0 0 5.63965 0 12.4512C0 19.2505 5.65186 24.9023 12.4512 24.9023ZM8.65479 18.2251C8.06885 18.2251 7.72705 17.8345 7.72705 17.2119L7.72705 7.50732C7.72705 6.86035 8.08105 6.44531 8.70361 6.44531C9.11865 6.44531 9.39941 6.604 9.7168 7.05566L15.1855 14.9048L15.2832 14.9048L15.2832 7.4585C15.2832 6.84814 15.625 6.44531 16.2109 6.44531C16.8213 6.44531 17.1753 6.82373 17.1753 7.4585L17.1753 17.1753C17.1753 17.8467 16.7969 18.2251 16.1743 18.2251C15.7593 18.2251 15.5029 18.0786 15.1733 17.6147L9.69238 9.8999L9.60693 9.8999L9.60693 17.2119C9.60693 17.8589 9.25293 18.2251 8.65479 18.2251Z" fill="#5ac8f5"/>
 </g>
</svg>
