<?xml version="1.0" encoding="UTF-8"?>
<!--Generator: Apple Native CoreSVG 175.5-->
<!DOCTYPE svg
PUBLIC "-//W3C//DTD SVG 1.1//EN"
       "http://www.w3.org/Graphics/SVG/1.1/DTD/svg11.dtd">
<svg version="1.1" xmlns="http://www.w3.org/2000/svg" xmlns:xlink="http://www.w3.org/1999/xlink" width="29.4678" height="19.104">
 <g>
  <rect height="19.104" opacity="0" width="29.4678" x="0" y="0"/>
  <path d="M0 1.11084L0 18.0298C0 18.689 0.427246 19.104 1.08643 19.104L5.09033 19.104C5.76172 19.104 6.17676 18.689 6.17676 18.0298L6.17676 6.20117L23.2788 6.20117L23.2788 18.0298C23.2788 18.689 23.7061 19.104 24.3652 19.104L28.3813 19.104C29.0405 19.104 29.4678 18.689 29.4678 18.0298L29.4678 1.11084C29.4678 0.45166 29.0405 0.0244141 28.3813 0.0244141L1.08643 0.0244141C0.427246 0.0244141 0 0.45166 0 1.11084Z" fill="#5ac8f5"/>
 </g>
</svg>
