<?xml version="1.0" encoding="UTF-8"?>
<!--Generator: Apple Native CoreSVG 175.5-->
<!DOCTYPE svg
PUBLIC "-//W3C//DTD SVG 1.1//EN"
       "http://www.w3.org/Graphics/SVG/1.1/DTD/svg11.dtd">
<svg version="1.1" xmlns="http://www.w3.org/2000/svg" xmlns:xlink="http://www.w3.org/1999/xlink" width="24.9023" height="24.9146">
 <g>
  <rect height="24.9146" opacity="0" width="24.9023" x="0" y="0"/>
  <path d="M12.4512 24.9023C19.2627 24.9023 24.9023 19.2505 24.9023 12.4512C24.9023 5.63965 19.2505 0 12.439 0C5.63965 0 0 5.63965 0 12.4512C0 19.2505 5.65186 24.9023 12.4512 24.9023ZM12.4512 22.8271C6.68945 22.8271 2.0874 18.2129 2.0874 12.4512C2.0874 6.68945 6.67725 2.0752 12.439 2.0752C18.2007 2.0752 22.8271 6.68945 22.8271 12.4512C22.8271 18.2129 18.2129 22.8271 12.4512 22.8271ZM8.37402 12.4512C8.37402 14.978 9.729 16.6382 11.8286 16.9189L11.8286 17.8345C11.8286 18.1885 12.085 18.4326 12.4268 18.4326C12.7808 18.4326 13.0371 18.1885 13.0371 17.8345L13.0371 16.9312C14.5874 16.748 15.686 15.8691 16.04 14.7827C16.0767 14.6484 16.1133 14.502 16.1133 14.3555C16.1133 13.9282 15.8081 13.6353 15.3809 13.6353C15.0391 13.6353 14.8071 13.8306 14.6729 14.1479C14.3921 14.8438 13.8428 15.332 13.0371 15.4907L13.0371 9.41162C13.8306 9.57031 14.3799 10.0708 14.6606 10.7422C14.8071 11.0962 15.0513 11.2793 15.3931 11.2793C15.8203 11.2793 16.1011 10.9863 16.1011 10.5469C16.1011 10.4004 16.0645 10.2661 16.0278 10.144C15.6738 9.05762 14.563 8.1665 13.0371 7.9834L13.0371 7.08008C13.0371 6.72607 12.7808 6.46973 12.4268 6.46973C12.085 6.46973 11.8286 6.72607 11.8286 7.08008L11.8286 7.99561C9.729 8.27637 8.37402 9.94873 8.37402 12.4512ZM9.92432 12.4512C9.92432 10.8032 10.6567 9.729 11.8286 9.43604L11.8286 15.4663C10.6567 15.1855 9.92432 14.1235 9.92432 12.4512Z" fill="#5ac8f5"/>
 </g>
</svg>
