<?xml version="1.0" encoding="UTF-8"?>
<!--Generator: Apple Native CoreSVG 175.5-->
<!DOCTYPE svg
PUBLIC "-//W3C//DTD SVG 1.1//EN"
       "http://www.w3.org/Graphics/SVG/1.1/DTD/svg11.dtd">
<svg version="1.1" xmlns="http://www.w3.org/2000/svg" xmlns:xlink="http://www.w3.org/1999/xlink" width="24.9023" height="24.9146">
 <g>
  <rect height="24.9146" opacity="0" width="24.9023" x="0" y="0"/>
  <path d="M12.4512 24.9146C19.2627 24.9146 24.9023 19.2749 24.9023 12.4634C24.9023 5.66406 19.2505 0.012207 12.439 0.012207C5.63965 0.012207 0 5.66406 0 12.4634C0 19.2749 5.65186 24.9146 12.4512 24.9146ZM9.47266 7.2876C9.729 7.05566 10.0464 6.88477 10.4248 6.75049C10.7056 5.84717 11.4258 5.12695 12.439 5.12695C13.4644 5.12695 14.1846 5.84717 14.4653 6.75049C16.3086 7.43408 17.041 9.26514 17.0898 11.9629C17.1387 12.7441 17.2241 13.7329 17.7002 14.2334C18.3228 14.8438 19.0063 15.4663 19.0063 16.1743C19.0063 16.3574 18.9331 16.5283 18.8232 16.6382ZM14.7705 17.0044L6.90918 17.0044C6.26221 17.0044 5.87158 16.6626 5.87158 16.1743C5.87158 15.4663 6.57959 14.856 7.18994 14.2334C7.6416 13.7329 7.75146 12.7441 7.80029 11.9629C7.8125 11.3159 7.84912 10.7178 7.94678 10.1685ZM12.439 19.9219C11.2549 19.9219 10.4004 19.0674 10.3149 18.0664L14.5752 18.0664C14.4897 19.0674 13.623 19.9219 12.439 19.9219ZM18.3716 19.2017L5.68848 6.51855C5.48096 6.31104 5.46875 5.94482 5.68848 5.71289C5.92041 5.48096 6.28662 5.48096 6.51855 5.71289L19.1895 18.396C19.4092 18.6279 19.4092 18.9697 19.1895 19.2017C18.9697 19.4214 18.5913 19.4214 18.3716 19.2017Z" fill="#5ac8f5"/>
 </g>
</svg>
