<?xml version="1.0" encoding="UTF-8"?>
<!--Generator: Apple Native CoreSVG 175.5-->
<!DOCTYPE svg
PUBLIC "-//W3C//DTD SVG 1.1//EN"
       "http://www.w3.org/Graphics/SVG/1.1/DTD/svg11.dtd">
<svg version="1.1" xmlns="http://www.w3.org/2000/svg" xmlns:xlink="http://www.w3.org/1999/xlink" width="29.1748" height="29.2603">
 <g>
  <rect height="29.2603" opacity="0" width="29.1748" x="0" y="0"/>
  <path d="M12.2681 5.59082C13.7329 5.59082 14.917 4.40674 14.917 2.92969C14.917 1.46484 13.7329 0.280762 12.2681 0.280762C10.7788 0.280762 9.59473 1.46484 9.59473 2.92969C9.59473 4.40674 10.7788 5.59082 12.2681 5.59082ZM13.0737 17.0532L19.7876 19.1284L26.2085 22.0459C27.8687 22.7905 28.8452 20.459 27.2827 19.7388L16.2231 14.7461L16.2231 8.81348C16.2231 8.3252 16.3452 8.26416 16.6992 8.12988L20.0317 6.7749C20.4468 6.604 20.4834 6.50635 20.6909 6.26221L24.1943 2.19727C24.6582 1.66016 24.5728 0.866699 24.0479 0.427246C23.5229-0.0244141 22.7173 0.0488281 22.2778 0.57373L18.9331 4.46777L3.54004 10.7544C3.10059 10.9253 2.81982 11.1084 2.63672 11.2915L8.91113 11.2915L10.8032 10.5347C11.1816 10.3882 11.3159 10.5225 11.3159 10.7544L11.3159 14.6362C11.3159 15.918 11.9019 16.6992 13.0737 17.0532ZM11.9629 27.6978C11.6821 28.6621 12.4512 29.2603 13.1958 29.2603C13.7085 29.2603 14.2334 28.9795 14.3921 28.3569L16.1865 21.8628C16.2109 21.7407 16.2231 21.6187 16.2231 21.521L16.2231 19.2261L13.3057 18.335L13.6841 21.4478ZM0.683594 13.8672L10.1074 13.8672L10.1074 12.5122L0.683594 12.5122C0.292969 12.5122 0 12.8052 0 13.1836C0 13.562 0.292969 13.8672 0.683594 13.8672ZM28.5034 13.8672C28.8818 13.8672 29.1748 13.562 29.1748 13.1836C29.1748 12.8052 28.8818 12.5122 28.5034 12.5122L17.4438 12.5122L17.4438 13.4277L17.4438 13.8672Z" fill="#5ac8f5"/>
 </g>
</svg>
