<?xml version="1.0" encoding="UTF-8"?>
<!--Generator: Apple Native CoreSVG 175.5-->
<!DOCTYPE svg
PUBLIC "-//W3C//DTD SVG 1.1//EN"
       "http://www.w3.org/Graphics/SVG/1.1/DTD/svg11.dtd">
<svg version="1.1" xmlns="http://www.w3.org/2000/svg" xmlns:xlink="http://www.w3.org/1999/xlink" width="25.9155" height="24.939">
 <g>
  <rect height="24.939" opacity="0" width="25.9155" x="0" y="0"/>
  <path d="M0 0.976562C0 1.51367 0.45166 1.96533 0.98877 1.96533L24.9268 1.96533C25.4639 1.96533 25.9155 1.51367 25.9155 0.976562C25.9155 0.439453 25.4639 0 24.9268 0L0.98877 0C0.45166 0 0 0.439453 0 0.976562ZM3.83301 5.77393L22.3877 5.77393C22.9858 5.77393 23.3521 5.63965 23.6694 5.33447L24.7192 4.29688C25.061 3.96729 24.9512 3.28369 24.353 3.28369L5.79834 3.28369C5.2002 3.28369 4.83398 3.41797 4.5166 3.72314L3.4668 4.76074C3.125 5.09033 3.23486 5.77393 3.83301 5.77393ZM3.83301 12.0728L22.3877 12.0728C22.9858 12.0728 23.3521 11.9507 23.6694 11.6455L24.7192 10.5957C25.061 10.2783 24.9512 9.59473 24.353 9.59473L5.79834 9.59473C5.2002 9.59473 4.83398 9.729 4.5166 10.0342L3.4668 11.0718C3.125 11.4014 3.23486 12.0728 3.83301 12.0728ZM3.83301 18.3472L22.3877 18.3472C22.9858 18.3472 23.3521 18.2129 23.6694 17.8955L24.7192 16.8579C25.061 16.5405 24.9512 15.8691 24.353 15.8691L5.79834 15.8691C5.2002 15.8691 4.83398 15.9912 4.5166 16.3086L3.4668 17.3462C3.125 17.6758 3.23486 18.3472 3.83301 18.3472ZM3.83301 24.6582L22.3877 24.6582C22.9858 24.6582 23.3521 24.5117 23.6694 24.1943L24.7192 23.1567C25.061 22.8394 24.9512 22.1558 24.353 22.1558L5.79834 22.1558C5.2002 22.1558 4.83398 22.29 4.5166 22.6074L3.4668 23.645C3.125 23.9746 3.23486 24.6582 3.83301 24.6582ZM0.98877 4.79736C1.44043 4.79736 1.81885 4.41895 1.81885 3.96729C1.81885 3.50342 1.44043 3.13721 0.98877 3.13721C0.524902 3.13721 0.146484 3.50342 0.146484 3.96729C0.146484 4.41895 0.524902 4.79736 0.98877 4.79736ZM0.98877 7.62939C1.44043 7.62939 1.81885 7.23877 1.81885 6.78711C1.81885 6.33545 1.44043 5.95703 0.98877 5.95703C0.524902 5.95703 0.146484 6.33545 0.146484 6.78711C0.146484 7.23877 0.524902 7.62939 0.98877 7.62939ZM0.98877 10.4492C1.44043 10.4492 1.81885 10.0708 1.81885 9.61914C1.81885 9.15527 1.44043 8.78906 0.98877 8.78906C0.524902 8.78906 0.146484 9.15527 0.146484 9.61914C0.146484 10.0708 0.524902 10.4492 0.98877 10.4492ZM0.98877 13.2812C1.44043 13.2812 1.81885 12.8906 1.81885 12.439C1.81885 11.9873 1.44043 11.6089 0.98877 11.6089C0.524902 11.6089 0.146484 11.9873 0.146484 12.439C0.146484 12.8906 0.524902 13.2812 0.98877 13.2812ZM0.98877 16.1011C1.44043 16.1011 1.81885 15.7227 1.81885 15.271C1.81885 14.8071 1.44043 14.4409 0.98877 14.4409C0.524902 14.4409 0.146484 14.8071 0.146484 15.271C0.146484 15.7227 0.524902 16.1011 0.98877 16.1011ZM0.98877 18.9331C1.44043 18.9331 1.81885 18.5425 1.81885 18.0908C1.81885 17.6392 1.44043 17.2607 0.98877 17.2607C0.524902 17.2607 0.146484 17.6392 0.146484 18.0908C0.146484 18.5425 0.524902 18.9331 0.98877 18.9331ZM0.98877 24.9268C1.51367 24.9268 1.96533 24.4873 1.96533 23.9502L1.96533 21.0693C1.96533 20.5322 1.52588 20.0928 0.98877 20.0928C0.45166 20.0928 0 20.5322 0 21.0693L0 23.9502C0 24.4873 0.45166 24.9268 0.98877 24.9268Z" fill="#5ac8f5"/>
 </g>
</svg>
