<?xml version="1.0" encoding="UTF-8"?>
<!--Generator: Apple Native CoreSVG 175.5-->
<!DOCTYPE svg
PUBLIC "-//W3C//DTD SVG 1.1//EN"
       "http://www.w3.org/Graphics/SVG/1.1/DTD/svg11.dtd">
<svg version="1.1" xmlns="http://www.w3.org/2000/svg" xmlns:xlink="http://www.w3.org/1999/xlink" width="18.1519" height="22.7173">
 <g>
  <rect height="22.7173" opacity="0" width="18.1519" x="0" y="0"/>
  <path d="M2.4292 21.5576C2.4292 22.2046 2.9541 22.7173 3.60107 22.7173C4.24805 22.7173 4.76074 22.2046 4.76074 21.5576L4.76074 14.3188L9.15527 14.3188C13.3057 14.3188 16.1621 11.5112 16.1621 7.40967C16.1621 3.33252 13.501 0.549316 9.27734 0.549316L3.60107 0.549316C2.88086 0.549316 2.4292 1.02539 2.4292 1.75781ZM4.76074 12.2681L4.76074 2.62451L8.70361 2.62451C12.0605 2.62451 13.7695 4.37012 13.7695 7.40967C13.7695 10.4614 11.9019 12.2681 8.60596 12.2681ZM0 5.78613C0 6.22559 0.354004 6.57959 0.793457 6.57959L17.3462 6.57959C17.7856 6.57959 18.1519 6.22559 18.1519 5.78613C18.1519 5.34668 17.7856 4.99268 17.3462 4.99268L0.793457 4.99268C0.354004 4.99268 0 5.34668 0 5.78613ZM0 9.66797C0 10.1074 0.354004 10.4614 0.793457 10.4614L17.3462 10.4614C17.7856 10.4614 18.1519 10.1074 18.1519 9.66797C18.1519 9.22852 17.7856 8.87451 17.3462 8.87451L0.793457 8.87451C0.354004 8.87451 0 9.22852 0 9.66797Z" fill="#5ac8f5"/>
 </g>
</svg>
