<?xml version="1.0" encoding="UTF-8"?>
<!--Generator: Apple Native CoreSVG 175.5-->
<!DOCTYPE svg
PUBLIC "-//W3C//DTD SVG 1.1//EN"
       "http://www.w3.org/Graphics/SVG/1.1/DTD/svg11.dtd">
<svg version="1.1" xmlns="http://www.w3.org/2000/svg" xmlns:xlink="http://www.w3.org/1999/xlink" width="28.7842" height="22.4976">
 <g>
  <rect height="22.4976" opacity="0" width="28.7842" x="0" y="0"/>
  <path d="M14.3433 18.0542C18.0908 18.0542 21.1304 15.0146 21.1304 11.2549C21.1304 7.50732 18.0908 4.46777 14.3433 4.46777C10.5835 4.46777 7.54395 7.50732 7.54395 11.2549C7.54395 15.0146 10.5835 18.0542 14.3433 18.0542ZM14.3433 16.4795C11.438 16.4795 9.11865 14.1602 9.11865 11.2549C9.11865 8.34961 11.438 6.04248 14.3433 6.04248C17.2485 6.04248 19.5557 8.34961 19.5557 11.2549C19.5557 14.1602 17.2485 16.4795 14.3433 16.4795ZM0 6.45752L1.96533 6.45752L1.96533 3.90625C1.96533 2.63672 2.63672 1.98975 3.85742 1.98975L6.38428 1.98975L6.38428 0.0244141L3.83301 0.0244141C1.28174 0.0244141 0 1.28174 0 3.80859ZM0 14.3921L1.96533 14.3921L1.96533 8.12988L0 8.12988ZM3.83301 22.4976L6.38428 22.4976L6.38428 20.5322L3.85742 20.5322C2.63672 20.5322 1.96533 19.8853 1.96533 18.6157L1.96533 16.0645L0 16.0645L0 18.7134C0 21.2402 1.28174 22.4976 3.83301 22.4976ZM8.05664 22.4976L13.562 22.4976L13.562 20.5322L8.05664 20.5322ZM15.2222 22.4976L20.7275 22.4976L20.7275 20.5322L15.2222 20.5322ZM24.9512 22.4976C27.5024 22.4976 28.7842 21.2402 28.7842 18.7134L28.7842 16.0645L26.8188 16.0645L26.8188 18.6157C26.8188 19.8853 26.1475 20.5322 24.9268 20.5322L22.3999 20.5322L22.3999 22.4976ZM28.7842 6.45752L28.7842 3.80859C28.7842 1.28174 27.5024 0.0244141 24.9512 0.0244141L22.3999 0.0244141L22.3999 1.98975L24.9268 1.98975C26.1475 1.98975 26.8188 2.63672 26.8188 3.90625L26.8188 6.45752ZM28.7842 14.3921L28.7842 8.12988L26.8188 8.12988L26.8188 14.3921ZM8.05664 1.98975L13.562 1.98975L13.562 0.0244141L8.05664 0.0244141ZM15.2222 1.98975L20.7275 1.98975L20.7275 0.0244141L15.2222 0.0244141Z" fill="#5ac8f5"/>
 </g>
</svg>
