<?xml version="1.0" encoding="UTF-8"?>
<!--Generator: Apple Native CoreSVG 175.5-->
<!DOCTYPE svg
PUBLIC "-//W3C//DTD SVG 1.1//EN"
       "http://www.w3.org/Graphics/SVG/1.1/DTD/svg11.dtd">
<svg version="1.1" xmlns="http://www.w3.org/2000/svg" xmlns:xlink="http://www.w3.org/1999/xlink" width="25" height="25.0122">
 <g>
  <rect height="25.0122" opacity="0" width="25" x="0" y="0"/>
  <path d="M0 12.5C0 15.9302 1.3916 19.0308 3.62549 21.2891C3.78418 21.4478 3.95508 21.4478 4.08936 21.2769L4.63867 20.6543C4.78516 20.4956 4.77295 20.3491 4.62646 20.1904C2.69775 18.2007 1.48926 15.4785 1.48926 12.5C1.48926 6.49414 6.46973 1.50146 12.5 1.50146C18.5303 1.50146 23.5107 6.49414 23.5107 12.5C23.5107 15.4785 22.3022 18.2007 20.3735 20.1904C20.2271 20.3491 20.2148 20.4956 20.3613 20.6543L20.9106 21.2769C21.0449 21.4478 21.2158 21.4478 21.3745 21.2891C23.6084 19.043 25 15.9302 25 12.5C25 5.65186 19.397 0 12.5 0C5.60303 0 0 5.65186 0 12.5ZM3.55225 12.5C3.55225 14.8682 4.46777 17.0044 5.98145 18.6157C6.14014 18.7866 6.31104 18.7744 6.45752 18.6157L7.00684 18.0054C7.16553 17.8467 7.14111 17.7002 6.99463 17.5293C5.78613 16.1865 5.05371 14.4287 5.05371 12.5C5.05371 8.42285 8.41064 5.05371 12.5 5.05371C16.5894 5.05371 19.9463 8.42285 19.9463 12.5C19.9463 14.4287 19.2139 16.1865 18.0054 17.5171C17.8589 17.688 17.8345 17.8345 17.9932 17.9932L18.5547 18.6157C18.689 18.7744 18.8721 18.7866 19.0186 18.6157C20.52 17.0044 21.4478 14.8682 21.4478 12.5C21.4478 7.59277 17.4316 3.55225 12.5 3.55225C7.56836 3.55225 3.55225 7.59277 3.55225 12.5ZM4.60205 23.584C4.23584 23.999 4.45557 24.585 5.0293 24.585L19.9463 24.585C20.52 24.585 20.7397 23.9868 20.3857 23.584L13.0127 15.2466C12.7319 14.9292 12.2437 14.9292 11.9629 15.2466ZM7.10449 12.5C7.10449 13.7939 7.55615 14.978 8.3374 15.918C8.47168 16.0889 8.64258 16.0889 8.80127 15.918L9.375 15.3198C9.52148 15.1733 9.50928 15.0146 9.39941 14.8438C8.89893 14.1968 8.60596 13.3667 8.60596 12.5C8.60596 10.376 10.376 8.60596 12.5 8.60596C14.624 8.60596 16.394 10.376 16.394 12.5C16.394 13.3667 16.1011 14.1968 15.6006 14.8438C15.4785 15.0146 15.4663 15.1733 15.625 15.332L16.1987 15.918C16.3452 16.0889 16.5283 16.0889 16.6626 15.918C17.4438 14.978 17.8955 13.7939 17.8955 12.5C17.8955 9.5459 15.4663 7.10449 12.5 7.10449C9.53369 7.10449 7.10449 9.5459 7.10449 12.5Z" fill="#5ac8f5"/>
 </g>
</svg>
