<?xml version="1.0" encoding="UTF-8"?>
<!--Generator: Apple Native CoreSVG 175.5-->
<!DOCTYPE svg
PUBLIC "-//W3C//DTD SVG 1.1//EN"
       "http://www.w3.org/Graphics/SVG/1.1/DTD/svg11.dtd">
<svg version="1.1" xmlns="http://www.w3.org/2000/svg" xmlns:xlink="http://www.w3.org/1999/xlink" width="24.9023" height="24.9146">
 <g>
  <rect height="24.9146" opacity="0" width="24.9023" x="0" y="0"/>
  <path d="M12.4512 24.9023C19.2627 24.9023 24.9023 19.2505 24.9023 12.4512C24.9023 5.63965 19.2505 0 12.439 0C5.63965 0 0 5.63965 0 12.4512C0 19.2505 5.65186 24.9023 12.4512 24.9023ZM21.4355 12.4634C21.4355 12.8052 21.2524 13.0981 20.8374 13.3423L14.856 16.8701C14.5996 17.0166 14.4165 17.0776 14.1724 17.0776C13.7085 17.0776 13.3301 16.748 13.3301 16.0889L13.3301 12.854C13.2324 13.0371 13.0737 13.1958 12.8296 13.3423L6.83594 16.8701C6.5918 17.0166 6.39648 17.0776 6.15234 17.0776C5.70068 17.0776 5.31006 16.748 5.31006 16.0889L5.31006 8.8501C5.31006 8.19092 5.70068 7.86133 6.15234 7.86133C6.39648 7.86133 6.5918 7.92236 6.83594 8.06885L12.8296 11.5967C13.0737 11.7432 13.2324 11.9019 13.3301 12.085L13.3301 8.8501C13.3301 8.19092 13.7085 7.86133 14.1724 7.86133C14.4165 7.86133 14.5996 7.92236 14.856 8.06885L20.8374 11.5967C21.2524 11.8408 21.4355 12.1338 21.4355 12.4634Z" fill="#5ac8f5"/>
 </g>
</svg>
