<?xml version="1.0" encoding="UTF-8"?>
<!--Generator: Apple Native CoreSVG 175.5-->
<!DOCTYPE svg
PUBLIC "-//W3C//DTD SVG 1.1//EN"
       "http://www.w3.org/Graphics/SVG/1.1/DTD/svg11.dtd">
<svg version="1.1" xmlns="http://www.w3.org/2000/svg" xmlns:xlink="http://www.w3.org/1999/xlink" width="22.4731" height="22.4976">
 <g>
  <rect height="22.4976" opacity="0" width="22.4731" x="0" y="0"/>
  <path d="M3.83301 22.4976L18.6401 22.4976C21.2036 22.4976 22.4731 21.228 22.4731 18.7134L22.4731 3.80859C22.4731 1.29395 21.2036 0.0244141 18.6401 0.0244141L3.83301 0.0244141C1.28174 0.0244141 0 1.28174 0 3.80859L0 18.7134C0 21.2402 1.28174 22.4976 3.83301 22.4976ZM3.85742 20.5322C2.63672 20.5322 1.96533 19.8853 1.96533 18.6157L1.96533 3.90625C1.96533 2.63672 2.63672 1.98975 3.85742 1.98975L18.6157 1.98975C19.8242 1.98975 20.5078 2.63672 20.5078 3.90625L20.5078 18.6157C20.5078 19.8853 19.8242 20.5322 18.6157 20.5322ZM15.0635 8.21533C14.5264 8.21533 14.1724 8.58154 14.1724 9.16748L14.1724 11.2793L14.3555 13.1836L12.5977 11.3037L8.10547 6.81152C7.93457 6.64062 7.70264 6.53076 7.40967 6.53076C6.87256 6.53076 6.51855 6.88477 6.51855 7.43408C6.51855 7.67822 6.62842 7.92236 6.79932 8.09326L11.3037 12.5854L13.208 14.3677L11.4014 14.1724L9.17969 14.1724C8.59375 14.1724 8.21533 14.5264 8.21533 15.0635C8.21533 15.6006 8.58154 15.9546 9.15527 15.9546L14.9414 15.9546C15.564 15.9546 15.9668 15.6738 15.9668 14.9536L15.9668 9.19189C15.9668 8.61816 15.6006 8.21533 15.0635 8.21533Z" fill="#5ac8f5"/>
 </g>
</svg>
