<?xml version="1.0" encoding="UTF-8"?>
<!--Generator: Apple Native CoreSVG 175.5-->
<!DOCTYPE svg
PUBLIC "-//W3C//DTD SVG 1.1//EN"
       "http://www.w3.org/Graphics/SVG/1.1/DTD/svg11.dtd">
<svg version="1.1" xmlns="http://www.w3.org/2000/svg" xmlns:xlink="http://www.w3.org/1999/xlink" width="26.9043" height="26.9653">
 <g>
  <rect height="26.9653" opacity="0" width="26.9043" x="0" y="0"/>
  <path d="M7.25098 26.9653C7.72705 26.9653 8.08105 26.7212 8.65479 26.1841L13.0615 22.1558L21.3135 22.1558C24.9512 22.1558 26.9043 20.1538 26.9043 16.5771L26.9043 7.22656C26.9043 3.6499 24.9512 1.63574 21.3135 1.63574L5.59082 1.63574C1.95312 1.63574 0 3.6377 0 7.22656L0 16.5771C0 20.166 1.95312 22.1558 5.59082 22.1558L6.16455 22.1558L6.16455 25.708C6.16455 26.4648 6.55518 26.9653 7.25098 26.9653Z" fill="#5ac8f5" fill-opacity="0.25"/>
  <path d="M12.0972 17.8589C11.6699 17.8589 11.3403 17.688 11.0107 17.2607L7.94678 13.501C7.76367 13.2568 7.66602 12.9883 7.66602 12.7075C7.66602 12.1582 8.08105 11.7065 8.64258 11.7065C8.98438 11.7065 9.26514 11.8164 9.55811 12.2192L12.0361 15.4175L17.2607 7.04346C17.4805 6.67725 17.7979 6.48193 18.1274 6.48193C18.6646 6.48193 19.165 6.84814 19.165 7.42188C19.165 7.69043 19.0063 7.9834 18.8477 8.22754L13.1104 17.2607C12.8662 17.6636 12.5122 17.8589 12.0972 17.8589Z" fill="#5ac8f5"/>
 </g>
</svg>
