<?xml version="1.0" encoding="UTF-8"?>
<!--Generator: Apple Native CoreSVG 175.5-->
<!DOCTYPE svg
PUBLIC "-//W3C//DTD SVG 1.1//EN"
       "http://www.w3.org/Graphics/SVG/1.1/DTD/svg11.dtd">
<svg version="1.1" xmlns="http://www.w3.org/2000/svg" xmlns:xlink="http://www.w3.org/1999/xlink" width="22.4731" height="22.4976">
 <g>
  <rect height="22.4976" opacity="0" width="22.4731" x="0" y="0"/>
  <path d="M6.57959 16.98L15.9668 16.98C16.626 16.98 17.1143 16.4917 17.1143 15.8325L17.1143 6.67725C17.1143 6.01807 16.626 5.52979 15.9668 5.52979L6.57959 5.52979C5.92041 5.52979 5.43213 6.01807 5.43213 6.67725L5.43213 15.8325C5.43213 16.4917 5.92041 16.98 6.57959 16.98ZM7.23877 10.6445C7.03125 10.437 7.03125 10.1929 7.23877 9.98535L8.98438 8.25195C9.19189 8.03223 9.44824 8.03223 9.64355 8.23975L10.0708 8.66699C10.3027 8.87451 10.2905 9.14307 10.0708 9.35059L8.3374 11.0718C8.11768 11.3037 7.86133 11.3037 7.67822 11.0718ZM14.8682 11.0718C14.6851 11.3037 14.4165 11.2915 14.209 11.0718L12.4634 9.35059C12.2437 9.14307 12.2437 8.87451 12.4634 8.66699L12.9028 8.22754C13.0981 8.02002 13.3667 8.03223 13.562 8.23975L15.3076 9.98535C15.5151 10.1929 15.5151 10.437 15.3076 10.6445ZM10.9619 15.1978C10.6934 15.1978 10.4858 15.0146 10.4858 14.7461L10.4858 12.5732C10.4858 12.2925 10.6934 12.085 10.9619 12.085L11.5723 12.085C11.8408 12.085 12.0605 12.2925 12.0605 12.5732L12.0605 14.7461C12.0605 15.0269 11.853 15.1978 11.5723 15.1978ZM3.83301 22.4976L18.6401 22.4976C21.2036 22.4976 22.4731 21.228 22.4731 18.7134L22.4731 3.80859C22.4731 1.29395 21.2036 0.0244141 18.6401 0.0244141L3.83301 0.0244141C1.28174 0.0244141 0 1.28174 0 3.80859L0 18.7134C0 21.2402 1.28174 22.4976 3.83301 22.4976ZM3.85742 20.5322C2.63672 20.5322 1.96533 19.8853 1.96533 18.6157L1.96533 3.90625C1.96533 2.63672 2.63672 1.98975 3.85742 1.98975L18.6157 1.98975C19.8242 1.98975 20.5078 2.63672 20.5078 3.90625L20.5078 18.6157C20.5078 19.8853 19.8242 20.5322 18.6157 20.5322Z" fill="#5ac8f5"/>
 </g>
</svg>
