<?xml version="1.0" encoding="UTF-8"?>
<!--Generator: Apple Native CoreSVG 175.5-->
<!DOCTYPE svg
PUBLIC "-//W3C//DTD SVG 1.1//EN"
       "http://www.w3.org/Graphics/SVG/1.1/DTD/svg11.dtd">
<svg version="1.1" xmlns="http://www.w3.org/2000/svg" xmlns:xlink="http://www.w3.org/1999/xlink" width="28.2593" height="23.6694">
 <g>
  <rect height="23.6694" opacity="0" width="28.2593" x="0" y="0"/>
  <path d="M1.35498 11.3525C5.2002 12.7075 9.53369 13.3667 14.1235 13.3667C18.7256 13.3667 23.0591 12.7075 26.9043 11.3525L26.8921 9.28955C23.1445 10.7544 18.8354 11.4746 14.1235 11.4746C9.42383 11.4746 5.11475 10.7544 1.36719 9.27734ZM12.2314 15.5762L16.0278 15.5762C16.8823 15.5762 17.3828 15.1001 17.3828 14.2456L17.3828 12.3657L10.8765 12.3657L10.8765 14.2456C10.8765 15.1001 11.377 15.5762 12.2314 15.5762ZM3.77197 23.6572L24.4873 23.6572C27.0142 23.6572 28.2593 22.4365 28.2593 19.9341L28.2593 8.05664C28.2593 5.5542 27.0142 4.3335 24.4873 4.3335L3.77197 4.3335C1.25732 4.3335 0 5.5542 0 8.05664L0 19.9341C0 22.4365 1.25732 23.6572 3.77197 23.6572ZM3.79639 21.7041C2.6001 21.7041 1.96533 21.0938 1.96533 19.8364L1.96533 8.1543C1.96533 6.90918 2.6001 6.28662 3.79639 6.28662L24.4629 6.28662C25.6592 6.28662 26.2939 6.90918 26.2939 8.1543L26.2939 19.8364C26.2939 21.0938 25.6592 21.7041 24.4629 21.7041ZM7.93457 5.39551L9.82666 5.39551L9.82666 3.23486C9.82666 2.30713 10.376 1.78223 11.3281 1.78223L16.9312 1.78223C17.8833 1.78223 18.4204 2.30713 18.4204 3.23486L18.4204 5.37109L20.3125 5.37109L20.3125 3.36914C20.3125 1.07422 19.104 0 16.8945 0L11.3525 0C9.26514 0 7.93457 1.07422 7.93457 3.36914Z" fill="#5ac8f5"/>
 </g>
</svg>
