<?xml version="1.0" encoding="UTF-8"?>
<!--Generator: Apple Native CoreSVG 175.5-->
<!DOCTYPE svg
PUBLIC "-//W3C//DTD SVG 1.1//EN"
       "http://www.w3.org/Graphics/SVG/1.1/DTD/svg11.dtd">
<svg version="1.1" xmlns="http://www.w3.org/2000/svg" xmlns:xlink="http://www.w3.org/1999/xlink" width="26.1597" height="28.8696">
 <g>
  <rect height="28.8696" opacity="0" width="26.1597" x="0" y="0"/>
  <path d="M17.8223 23.3521C19.1284 23.3521 19.9707 22.29 19.9707 20.6421C19.9707 18.9941 19.1284 17.9443 17.8223 17.9443C16.5161 17.9443 15.6738 18.9941 15.6738 20.6421C15.6738 22.29 16.5161 23.3521 17.8223 23.3521ZM17.8223 21.8628C17.4683 21.8628 17.2607 21.4111 17.2607 20.6421C17.2607 19.8853 17.4805 19.4336 17.8223 19.4336C18.1519 19.4336 18.3838 19.8853 18.3838 20.6421C18.3838 21.4111 18.1641 21.8628 17.8223 21.8628ZM17.4927 28.186C17.8589 28.4058 18.3716 28.2959 18.6279 27.9297L24.5483 19.165C24.8413 18.7378 24.7314 18.2007 24.3164 17.9688C23.9502 17.7612 23.4863 17.8833 23.2178 18.2739L17.2607 27.0142C16.9556 27.4536 17.0532 27.9541 17.4927 28.186ZM24.0112 28.2349C25.3174 28.2349 26.1597 27.1606 26.1597 25.5127C26.1597 23.8647 25.3174 22.8149 24.0112 22.8149C22.7051 22.8149 21.8628 23.8647 21.8628 25.5127C21.8628 27.1606 22.7051 28.2349 24.0112 28.2349ZM24.0112 26.7334C23.6572 26.7334 23.4497 26.2939 23.4497 25.5127C23.4497 24.7559 23.6694 24.3042 24.0112 24.3042C24.3408 24.3042 24.5728 24.7559 24.5728 25.5127C24.5728 26.2939 24.3652 26.7334 24.0112 26.7334ZM11.1572 3.6499L13.1836 3.6499L13.1836 1.02539C13.1836 0.463867 12.7319 0 12.1704 0C11.6089 0 11.1572 0.463867 11.1572 1.02539ZM1.01318 15.4907C1.37939 15.4907 1.72119 15.2588 1.98975 14.856C2.79541 13.623 3.6499 13.1104 4.80957 13.1104C5.94482 13.1104 6.71387 13.623 7.42188 14.8438C7.67822 15.2954 7.93457 15.4907 8.27637 15.4907C8.64258 15.4907 8.89893 15.2954 9.14307 14.8438C9.80225 13.7207 10.9985 13.0371 12.1704 13.0371C13.3423 13.0371 14.5386 13.7207 15.1978 14.8438C15.4419 15.2954 15.6982 15.4907 16.0645 15.4907C16.4062 15.4907 16.6626 15.2954 16.9312 14.8438C17.627 13.623 18.396 13.1104 19.5312 13.1104C20.6909 13.1104 21.5454 13.623 22.3633 14.856C22.6318 15.2588 22.9614 15.4907 23.3276 15.4907C23.938 15.4907 24.3408 14.9902 24.3408 14.3311C24.3408 9.48486 20.52 2.68555 12.1704 2.68555C3.8208 2.68555 0 9.48486 0 14.3311C0 14.9902 0.402832 15.4907 1.01318 15.4907ZM9.31396 28.2227C11.5112 28.2227 13.1836 26.5503 13.1836 24.3286L13.1836 12.4512L11.1572 12.4512L11.1572 24.3286C11.1572 25.3906 10.3882 26.1597 9.31396 26.1597C8.23975 26.1597 7.49512 25.3906 7.49512 24.3286C7.49512 23.6206 7.05566 23.1445 6.43311 23.1445C5.82275 23.1445 5.43213 23.6206 5.43213 24.3286C5.43213 26.5503 7.10449 28.2227 9.31396 28.2227Z" fill="#5ac8f5"/>
 </g>
</svg>
