<?xml version="1.0" encoding="UTF-8"?>
<!--Generator: Apple Native CoreSVG 175.5-->
<!DOCTYPE svg
PUBLIC "-//W3C//DTD SVG 1.1//EN"
       "http://www.w3.org/Graphics/SVG/1.1/DTD/svg11.dtd">
<svg version="1.1" xmlns="http://www.w3.org/2000/svg" xmlns:xlink="http://www.w3.org/1999/xlink" width="31.6406" height="29.9927">
 <g>
  <rect height="29.9927" opacity="0" width="31.6406" x="0" y="0"/>
  <path d="M30.5542 16.0767C31.2866 15.7227 31.6406 15.2222 31.6406 14.7095C31.6406 14.209 31.2866 13.7451 30.5542 13.4888L24.6094 11.438L27.1606 6.22559C27.2827 5.95703 27.3438 5.68848 27.3438 5.44434C27.3438 4.73633 26.8066 4.21143 26.0986 4.21143C25.8545 4.21143 25.5981 4.26025 25.3296 4.39453L19.9341 7.03125L17.1265 1.01318C16.8213 0.341797 16.3208 0 15.8203 0C15.3198 0 14.8315 0.341797 14.5142 1.01318L11.7188 7.03125L6.31104 4.39453C6.04248 4.26025 5.78613 4.21143 5.54199 4.21143C4.83398 4.21143 4.29688 4.73633 4.29688 5.44434C4.29688 5.68848 4.35791 5.95703 4.49219 6.22559L7.03125 11.438L1.08643 13.4888C0.366211 13.7329 0 14.2212 0 14.7217C0 15.2222 0.366211 15.7227 1.08643 16.0767L6.78711 18.811L3.71094 25.3296C3.56445 25.6226 3.50342 25.9033 3.50342 26.1597C3.50342 26.7944 3.93066 27.2461 4.52881 27.2461C4.78516 27.2461 5.06592 27.1606 5.35889 26.9897L12.6465 22.6807L14.6484 28.8574C14.8682 29.541 15.3442 29.895 15.8203 29.895C16.3086 29.895 16.7725 29.541 16.9922 28.8574L19.0063 22.6807L26.2817 26.9897C26.5747 27.1606 26.8555 27.2339 27.1118 27.2339C27.6978 27.2339 28.1494 26.8066 28.1494 26.1719C28.1494 25.9155 28.0762 25.6226 27.9297 25.3296L24.8535 18.811ZM29.0283 14.7339L29.0283 14.8193L22.7783 17.5537C22.5464 17.6514 22.4243 17.8101 22.4243 18.0054C22.4243 18.0786 22.4609 18.1763 22.5098 18.2617L25.7202 24.7437L25.6592 24.8169L18.4692 20.2759C18.3594 20.2148 18.2495 20.166 18.1519 20.166C17.9565 20.166 17.7979 20.3125 17.7368 20.5566L15.8569 26.8799L15.7837 26.8799L13.916 20.5566C13.8428 20.3125 13.6841 20.166 13.4888 20.166C13.3911 20.166 13.2812 20.2148 13.1714 20.2759L5.99365 24.8169L5.92041 24.7437L9.13086 18.2617C9.19189 18.1763 9.21631 18.0786 9.21631 18.0054C9.21631 17.8101 9.09424 17.6514 8.87451 17.5537L2.6123 14.8193L2.6123 14.7339L9.10645 12.7319C9.35059 12.6587 9.48486 12.5 9.48486 12.3047C9.48486 12.207 9.46045 12.1094 9.39941 12.0117L6.48193 6.44531L6.54297 6.38428L12.1582 9.33838C12.2559 9.39941 12.3535 9.42383 12.4512 9.42383C12.6343 9.42383 12.7808 9.31396 12.8662 9.09424L15.7837 2.56348L15.8569 2.56348L18.7744 9.09424C18.8599 9.31396 19.0063 9.42383 19.1895 9.42383C19.2871 9.42383 19.3848 9.39941 19.4946 9.33838L25.0977 6.38428L25.1587 6.44531L22.2412 12.0117C22.1802 12.1094 22.1558 12.207 22.1558 12.3047C22.1558 12.5 22.29 12.6587 22.5342 12.7319Z" fill="#5ac8f5"/>
 </g>
</svg>
