<?xml version="1.0" encoding="UTF-8"?>
<!--Generator: Apple Native CoreSVG 175.5-->
<!DOCTYPE svg
PUBLIC "-//W3C//DTD SVG 1.1//EN"
       "http://www.w3.org/Graphics/SVG/1.1/DTD/svg11.dtd">
<svg version="1.1" xmlns="http://www.w3.org/2000/svg" xmlns:xlink="http://www.w3.org/1999/xlink" width="14.0991" height="21.228">
 <g>
  <rect height="21.228" opacity="0" width="14.0991" x="0" y="0"/>
  <path d="M0 20.0928C0 20.7275 0.488281 21.2158 1.12305 21.2158C1.42822 21.2158 1.69678 21.106 1.9165 20.874L11.5845 11.4258C11.8164 11.1938 11.9385 10.9253 11.9385 10.6079C11.9385 10.2905 11.8164 10.0098 11.5967 9.79004L1.9165 0.32959C1.68457 0.12207 1.42822 0 1.11084 0C0.488281 0 0 0.476074 0 1.12305C0 1.42822 0.109863 1.70898 0.32959 1.9165L9.98535 11.3525L9.98535 9.85107L0.32959 19.2993C0.109863 19.519 0 19.7876 0 20.0928ZM11.9141 20.1538C11.9141 20.7764 12.3657 21.2158 13.0005 21.2158C13.6353 21.2158 14.0991 20.7764 14.0991 20.1538L14.0991 1.08643C14.0991 0.45166 13.6353 0 13.0005 0C12.3657 0 11.9141 0.45166 11.9141 1.08643Z" fill="#5ac8f5"/>
 </g>
</svg>
