<?xml version="1.0" encoding="UTF-8"?>
<!--Generator: Apple Native CoreSVG 175.5-->
<!DOCTYPE svg
PUBLIC "-//W3C//DTD SVG 1.1//EN"
       "http://www.w3.org/Graphics/SVG/1.1/DTD/svg11.dtd">
<svg version="1.1" xmlns="http://www.w3.org/2000/svg" xmlns:xlink="http://www.w3.org/1999/xlink" width="35.2051" height="19.8853">
 <g>
  <rect height="19.8853" opacity="0" width="35.2051" x="0" y="0"/>
  <path d="M0 18.4937C0 19.2627 0.622559 19.8853 1.37939 19.8853L33.8257 19.8853C34.5825 19.8853 35.2051 19.2627 35.2051 18.4937C35.2051 17.7246 34.5825 17.1021 33.8257 17.1021L31.1523 17.1021L31.1523 2.6123C31.1523 0.90332 30.2368 0.0244141 28.54 0.0244141L6.66504 0.0244141C5.05371 0.0244141 4.05273 0.90332 4.05273 2.6123L4.05273 17.1021L1.37939 17.1021C0.622559 17.1021 0 17.7246 0 18.4937ZM6.01807 17.1021L6.01807 3.16162C6.01807 2.38037 6.40869 1.98975 7.18994 1.98975L28.0151 1.98975C28.7964 1.98975 29.187 2.38037 29.187 3.16162L29.187 17.1021Z" fill="#5ac8f5" fill-opacity="0.5"/>
  <path d="M13.2324 12.7686C13.2324 13.4644 13.562 13.8062 14.2212 13.8062L18.3594 13.8062C19.0186 13.8062 19.3481 13.4644 19.3481 12.7686L19.3481 9.59473C19.3481 8.89893 19.0186 8.54492 18.3594 8.54492L14.2212 8.54492C13.562 8.54492 13.2324 8.89893 13.2324 9.59473ZM17.4194 9.25293L18.6279 9.25293L18.6279 7.51953C18.6279 6.61621 19.1162 6.03027 19.9463 6.03027C20.7764 6.03027 21.2524 6.61621 21.2524 7.51953L21.2524 8.38623C21.2524 8.71582 21.5332 8.99658 21.8628 8.99658C22.1924 8.99658 22.4609 8.71582 22.4609 8.38623L22.4609 7.51953C22.4609 5.98145 21.4722 4.8584 19.9463 4.8584C18.4082 4.8584 17.4194 5.98145 17.4194 7.62939Z" fill="#5ac8f5"/>
 </g>
</svg>
