<?xml version="1.0" encoding="UTF-8"?>
<!--Generator: Apple Native CoreSVG 175.5-->
<!DOCTYPE svg
PUBLIC "-//W3C//DTD SVG 1.1//EN"
       "http://www.w3.org/Graphics/SVG/1.1/DTD/svg11.dtd">
<svg version="1.1" xmlns="http://www.w3.org/2000/svg" xmlns:xlink="http://www.w3.org/1999/xlink" width="27.2449" height="23.839">
 <g>
  <rect height="23.839" opacity="0" width="27.2449" x="0" y="0"/>
  <path d="M21.5576 23.2171C26.4038 21.4593 28.4668 17.016 26.5137 11.6449L25.6104 9.14242C24.646 6.4935 22.8271 5.40707 20.6909 6.1517C20.1172 5.40707 19.2383 5.15072 18.2861 5.49252C17.9321 5.6268 17.627 5.8099 17.334 6.02963C16.7114 5.22396 15.7471 4.931 14.7461 5.285C14.4775 5.38266 14.2212 5.52914 13.9771 5.70004L12.5854 1.89145C12.0605 0.438809 10.7422-0.171543 9.38721 0.316738C8.02002 0.817227 7.40967 2.12338 7.93457 3.57602L11.4136 13.1463C11.438 13.2074 11.4258 13.2562 11.3647 13.2806C11.3281 13.305 11.2793 13.2806 11.2427 13.244L9.81445 11.6815C9.10645 10.9246 8.25195 10.6927 7.43408 10.9857C6.32324 11.4007 5.60303 12.4627 6.06689 13.7201C6.17676 14.0741 6.4209 14.5013 6.70166 14.8553L10.791 19.7992C13.8916 23.5345 17.5049 24.6942 21.5576 23.2171ZM21.0327 21.618C17.8345 22.7899 14.8438 22.1917 12.0117 18.786L7.92236 13.8665C7.80029 13.7201 7.71484 13.5858 7.6416 13.3783C7.49512 12.9876 7.66602 12.536 8.12988 12.3651C8.52051 12.2308 8.83789 12.3773 9.14307 12.7069L11.9751 15.6244C12.439 16.1126 12.854 16.1615 13.269 16.015C13.7451 15.8441 13.9404 15.3314 13.7451 14.8065L9.42383 2.91684C9.24072 2.42855 9.46045 1.96469 9.93652 1.79379C10.4004 1.62289 10.8521 1.85482 11.0229 2.34311L14.1113 10.827C14.2578 11.2298 14.7095 11.4129 15.1123 11.2664C15.5029 11.12 15.7227 10.6927 15.5762 10.3021L14.4653 7.23813C14.624 7.07943 14.8682 6.92074 15.0879 6.83529C15.6616 6.62777 16.1377 6.88412 16.3574 7.48227L17.334 10.1556C17.4805 10.5706 17.9443 10.7293 18.335 10.5829C18.7012 10.4486 18.9453 10.0457 18.7866 9.6185L17.9932 7.44564C18.1641 7.28695 18.396 7.12826 18.6279 7.04281C19.2017 6.83529 19.6777 7.09164 19.8975 7.68979L20.5444 9.47201C20.7031 9.89926 21.1548 10.0579 21.5454 9.91146C21.9238 9.77719 22.1558 9.36215 22.0093 8.94711L21.5332 7.62875C22.5464 7.26254 23.5107 8.09262 24.1699 9.92367L24.939 12.0111C26.6113 16.6253 25.0977 20.141 21.0327 21.618Z" fill="#5ac8f5"/>
  <path d="M5.96924 3.06332C2.38037 5.23617 0 9.30111 0 14.306C0 14.7454 0.378418 15.1239 0.793457 15.1117C1.2207 15.0995 1.52588 14.7699 1.53809 14.3304C1.64795 9.94809 3.52783 6.5057 6.51855 4.56479Z" fill="#5ac8f5" fill-opacity="0.5"/>
 </g>
</svg>
