<?xml version="1.0" encoding="UTF-8"?>
<!--Generator: Apple Native CoreSVG 175.5-->
<!DOCTYPE svg
PUBLIC "-//W3C//DTD SVG 1.1//EN"
       "http://www.w3.org/Graphics/SVG/1.1/DTD/svg11.dtd">
<svg version="1.1" xmlns="http://www.w3.org/2000/svg" xmlns:xlink="http://www.w3.org/1999/xlink" width="24.8657" height="26.5991">
 <g>
  <rect height="26.5991" opacity="0" width="24.8657" x="0" y="0"/>
  <path d="M24.8657 8.56934C24.8657 4.61426 22.29 1.30615 19.1772 1.30615L15.2832 1.30615C13.7329 0.488281 11.853 0 9.75342 0L8.11768 0C6.65283 0 5.3833 0.0854492 4.54102 0.305176C2.90527 0.695801 1.87988 1.84326 1.87988 3.28369C1.87988 3.57666 1.92871 3.85742 2.00195 4.11377C1.19629 4.73633 0.744629 5.61523 0.744629 6.604C0.744629 7.08008 0.830078 7.54395 1.01318 7.93457C0.463867 8.49609 0.146484 9.31396 0.146484 10.1685C0.146484 10.7178 0.292969 11.3037 0.524902 11.731C0.195312 12.207 0 12.8784 0 13.5742C0 15.3442 1.37939 16.7358 3.13721 16.7358L7.59277 16.7358C7.86133 16.7358 8.03223 16.8579 8.03223 17.0898C8.03223 18.3594 6.03027 21.3379 6.03027 23.7305C6.03027 25.3784 7.17773 26.5503 8.75244 26.5503C9.91211 26.5503 10.6934 25.9521 11.4502 24.4873C12.8906 21.7285 14.5996 19.2749 17.3828 15.8813L19.6167 15.8813C22.522 15.8813 24.8657 12.5977 24.8657 8.56934ZM17.9932 8.63037C17.9932 11.1816 17.4194 12.8052 15.8325 14.9414C14.0625 17.2974 11.5967 20.1416 9.83887 23.6572C9.38721 24.5361 9.10645 24.7437 8.6792 24.7437C8.17871 24.7437 7.83691 24.3896 7.83691 23.7305C7.83691 21.814 9.83887 18.9331 9.83887 17.0898C9.83887 15.7471 8.74023 14.9292 7.33643 14.9292L3.13721 14.9292C2.38037 14.9292 1.80664 14.3555 1.80664 13.5742C1.80664 13.0127 1.97754 12.6587 2.44141 12.207C2.66113 12.0117 2.68555 11.7554 2.50244 11.5356C2.12402 10.9741 1.95312 10.6323 1.95312 10.1685C1.95312 9.60693 2.22168 9.14307 2.75879 8.72803C3.05176 8.5083 3.17383 8.20312 2.99072 7.83691C2.69775 7.2876 2.55127 7.03125 2.55127 6.604C2.55127 5.98145 2.9541 5.49316 3.80859 5.05371C4.07715 4.90723 4.13818 4.6875 4.01611 4.41895C3.73535 3.69873 3.69873 3.58887 3.69873 3.28369C3.69873 2.72217 4.10156 2.27051 4.95605 2.05078C5.65186 1.86768 6.7627 1.79443 8.10547 1.79443L9.61914 1.79443C14.6484 1.80664 17.9932 4.66309 17.9932 8.63037ZM23.0591 8.56934C23.0591 11.5967 21.4233 14.0747 19.6167 14.0747C19.2627 14.0747 18.9087 14.0747 18.5547 14.0747C19.4214 12.4268 19.7998 10.7178 19.7998 8.66699C19.7998 6.48193 19.0186 4.57764 17.6147 3.125C18.1274 3.125 18.6523 3.125 19.1772 3.125C21.2402 3.125 23.0591 5.60303 23.0591 8.56934Z" fill="#5ac8f5"/>
 </g>
</svg>
