<?xml version="1.0" encoding="UTF-8"?>
<!--Generator: Apple Native CoreSVG 175.5-->
<!DOCTYPE svg
PUBLIC "-//W3C//DTD SVG 1.1//EN"
       "http://www.w3.org/Graphics/SVG/1.1/DTD/svg11.dtd">
<svg version="1.1" xmlns="http://www.w3.org/2000/svg" xmlns:xlink="http://www.w3.org/1999/xlink" width="30.7251" height="19.2993">
 <g>
  <rect height="19.2993" opacity="0" width="30.7251" x="0" y="0"/>
  <path d="M3.83301 19.2871L26.8921 19.2871C29.4312 19.2871 30.7251 18.0176 30.7251 15.5029L30.7251 3.77197C30.7251 1.26953 29.4312 0 26.8921 0L3.83301 0C1.26953 0 0 1.25732 0 3.77197L0 15.5029C0 18.0176 1.26953 19.2871 3.83301 19.2871Z" fill="#5ac8f5" fill-opacity="0.25"/>
  <path d="M4.47998 6.68945C4.24805 6.68945 4.10156 6.53076 4.10156 6.28662L4.10156 4.87061C4.10156 4.61426 4.24805 4.46777 4.47998 4.46777L5.40771 4.46777C5.62744 4.46777 5.76172 4.61426 5.76172 4.87061L5.76172 6.28662C5.76172 6.53076 5.62744 6.68945 5.40771 6.68945ZM7.25098 6.68945C7.00684 6.68945 6.87256 6.53076 6.87256 6.28662L6.87256 4.87061C6.87256 4.61426 7.00684 4.46777 7.25098 4.46777L8.1665 4.46777C8.39844 4.46777 8.53271 4.61426 8.53271 4.87061L8.53271 6.28662C8.53271 6.53076 8.39844 6.68945 8.1665 6.68945ZM10.0098 6.68945C9.77783 6.68945 9.63135 6.53076 9.63135 6.28662L9.63135 4.87061C9.63135 4.61426 9.77783 4.46777 10.0098 4.46777L10.9375 4.46777C11.1572 4.46777 11.2915 4.61426 11.2915 4.87061L11.2915 6.28662C11.2915 6.53076 11.1572 6.68945 10.9375 6.68945ZM12.7686 6.68945C12.5366 6.68945 12.4023 6.53076 12.4023 6.28662L12.4023 4.87061C12.4023 4.61426 12.5366 4.46777 12.7686 4.46777L13.6841 4.46777C13.916 4.46777 14.0625 4.61426 14.0625 4.87061L14.0625 6.28662C14.0625 6.53076 13.916 6.68945 13.6841 6.68945ZM15.5151 6.68945C15.2954 6.68945 15.1489 6.53076 15.1489 6.28662L15.1489 4.87061C15.1489 4.61426 15.2954 4.46777 15.5151 4.46777L16.4673 4.46777C16.6748 4.46777 16.8213 4.61426 16.8213 4.87061L16.8213 6.28662C16.8213 6.53076 16.6748 6.68945 16.4673 6.68945ZM18.2983 6.68945C18.0664 6.68945 17.9199 6.53076 17.9199 6.28662L17.9199 4.87061C17.9199 4.61426 18.0664 4.46777 18.2983 4.46777L19.2139 4.46777C19.4336 4.46777 19.5923 4.61426 19.5923 4.87061L19.5923 6.28662C19.5923 6.53076 19.4336 6.68945 19.2139 6.68945ZM4.47998 10.73C4.24805 10.73 4.10156 10.5957 4.10156 10.3271L4.10156 8.92334C4.10156 8.65479 4.24805 8.52051 4.47998 8.52051L5.40771 8.52051C5.62744 8.52051 5.76172 8.65479 5.76172 8.92334L5.76172 10.3271C5.76172 10.5957 5.62744 10.73 5.40771 10.73ZM7.25098 10.73C7.00684 10.73 6.87256 10.5957 6.87256 10.3271L6.87256 8.92334C6.87256 8.65479 7.00684 8.52051 7.25098 8.52051L8.1665 8.52051C8.39844 8.52051 8.53271 8.65479 8.53271 8.92334L8.53271 10.3271C8.53271 10.5957 8.39844 10.73 8.1665 10.73ZM10.0098 10.73C9.77783 10.73 9.63135 10.5957 9.63135 10.3271L9.63135 8.92334C9.63135 8.65479 9.77783 8.52051 10.0098 8.52051L10.9375 8.52051C11.1572 8.52051 11.2915 8.65479 11.2915 8.92334L11.2915 10.3271C11.2915 10.5957 11.1572 10.73 10.9375 10.73ZM12.7686 10.73C12.5366 10.73 12.4023 10.5957 12.4023 10.3271L12.4023 8.92334C12.4023 8.65479 12.5366 8.52051 12.7686 8.52051L13.6841 8.52051C13.916 8.52051 14.0625 8.65479 14.0625 8.92334L14.0625 10.3271C14.0625 10.5957 13.916 10.73 13.6841 10.73ZM15.5151 10.73C15.2954 10.73 15.1489 10.5957 15.1489 10.3271L15.1489 8.92334C15.1489 8.65479 15.2954 8.52051 15.5151 8.52051L16.4673 8.52051C16.6748 8.52051 16.8213 8.65479 16.8213 8.92334L16.8213 10.3271C16.8213 10.5957 16.6748 10.73 16.4673 10.73ZM18.2983 10.73C18.0664 10.73 17.9199 10.5957 17.9199 10.3271L17.9199 8.92334C17.9199 8.65479 18.0664 8.52051 18.2983 8.52051L19.2139 8.52051C19.4336 8.52051 19.5923 8.65479 19.5923 8.92334L19.5923 10.3271C19.5923 10.5957 19.4336 10.73 19.2139 10.73ZM4.47998 14.7827C4.24805 14.7827 4.10156 14.6362 4.10156 14.3799L4.10156 12.9639C4.10156 12.7197 4.24805 12.561 4.47998 12.561L5.40771 12.561C5.62744 12.561 5.76172 12.7197 5.76172 12.9639L5.76172 14.3799C5.76172 14.6362 5.62744 14.7827 5.40771 14.7827ZM7.25098 14.7827C7.00684 14.7827 6.87256 14.6362 6.87256 14.3799L6.87256 12.9639C6.87256 12.7197 7.00684 12.561 7.25098 12.561L16.4673 12.561C16.6748 12.561 16.8213 12.7197 16.8213 12.9639L16.8213 14.3799C16.8213 14.6362 16.6748 14.7827 16.4673 14.7827ZM18.2983 14.7827C18.0664 14.7827 17.9199 14.6362 17.9199 14.3799L17.9199 12.9639C17.9199 12.7197 18.0664 12.561 18.2983 12.561L19.2139 12.561C19.4336 12.561 19.5923 12.7197 19.5923 12.9639L19.5923 14.3799C19.5923 14.6362 19.4336 14.7827 19.2139 14.7827ZM21.7163 8.93555L25.4028 5.43213C25.8301 5.0293 26.5625 5.18799 26.5625 5.85938L26.5625 13.4155C26.5625 14.0991 25.8301 14.2578 25.4028 13.855L21.7163 10.3394C21.2524 9.8999 21.2524 9.375 21.7163 8.93555Z" fill="#5ac8f5"/>
 </g>
</svg>
