<?xml version="1.0" encoding="UTF-8"?>
<!--Generator: Apple Native CoreSVG 175.5-->
<!DOCTYPE svg
PUBLIC "-//W3C//DTD SVG 1.1//EN"
       "http://www.w3.org/Graphics/SVG/1.1/DTD/svg11.dtd">
<svg version="1.1" xmlns="http://www.w3.org/2000/svg" xmlns:xlink="http://www.w3.org/1999/xlink" width="24.9023" height="24.9146">
 <g>
  <rect height="24.9146" opacity="0" width="24.9023" x="0" y="0"/>
  <path d="M12.4512 24.9023C19.2627 24.9023 24.9023 19.2627 24.9023 12.4512C24.9023 5.65186 19.2505 0 12.439 0C5.63965 0 0 5.65186 0 12.4512C0 19.2627 5.65186 24.9023 12.4512 24.9023ZM12.5122 19.4824C8.92334 19.4824 6.0791 17.0776 5.46875 13.5742L4.13818 13.5742C3.54004 13.5742 3.43018 13.0127 3.74756 12.561L5.76172 9.7168C6.12793 9.22852 6.71387 9.25293 7.04346 9.7168L9.09424 12.561C9.41162 13.0127 9.28955 13.5742 8.69141 13.5742L7.37305 13.5742C7.93457 15.7959 10.0098 17.4805 12.5122 17.4805C13.7329 17.4805 14.6362 17.1021 15.5396 16.4062C16.04 16.0278 16.6138 15.9546 17.0532 16.4307C17.5049 16.8945 17.3584 17.5537 16.748 18.0298C15.6616 18.9331 14.0869 19.4824 12.5122 19.4824ZM12.4878 5.37109C16.0767 5.37109 18.9087 7.77588 19.5312 11.2793L20.7886 11.2793C21.3867 11.2793 21.4966 11.8408 21.1792 12.2925L19.165 15.1245C18.7988 15.625 18.2129 15.5884 17.8711 15.1245L15.8325 12.2925C15.5151 11.8408 15.6372 11.2793 16.2231 11.2793L17.627 11.2793C17.0654 9.04541 14.9902 7.36084 12.4878 7.36084C11.2671 7.36084 10.3638 7.75146 9.46045 8.44727C8.95996 8.81348 8.37402 8.89893 7.94678 8.42285C7.50732 7.95898 7.6416 7.2998 8.25195 6.81152C9.33838 5.92041 10.9131 5.37109 12.4878 5.37109Z" fill="#5ac8f5"/>
 </g>
</svg>
