<?xml version="1.0" encoding="UTF-8"?>
<!--Generator: Apple Native CoreSVG 175.5-->
<!DOCTYPE svg
PUBLIC "-//W3C//DTD SVG 1.1//EN"
       "http://www.w3.org/Graphics/SVG/1.1/DTD/svg11.dtd">
<svg version="1.1" xmlns="http://www.w3.org/2000/svg" xmlns:xlink="http://www.w3.org/1999/xlink" width="23.1934" height="22.5464">
 <g>
  <rect height="22.5464" opacity="0" width="23.1934" x="0" y="0"/>
  <path d="M1.74561 13.623L21.4233 13.623C22.3999 13.623 22.937 13.1104 22.937 12.2559C22.937 11.853 22.7539 11.4258 22.4121 11.0596L13.0859 0.769043C12.6709 0.317383 12.1948 0.012207 11.5845 0.012207C10.9985 0.012207 10.498 0.341797 10.0952 0.769043L0.756836 11.0596C0.415039 11.4258 0.219727 11.853 0.231934 12.2559C0.244141 13.1104 0.769043 13.623 1.74561 13.623ZM1.98975 22.5464L21.2036 22.5464C22.4487 22.5464 23.1934 21.7773 23.1934 20.5322L23.1934 18.3228C23.1934 17.0776 22.4487 16.3086 21.2036 16.3086L1.98975 16.3086C0.744629 16.3086 0 17.0776 0 18.3228L0 20.5322C0 21.7773 0.744629 22.5464 1.98975 22.5464Z" fill="#5ac8f5"/>
 </g>
</svg>
