<?xml version="1.0" encoding="UTF-8"?>
<!--Generator: Apple Native CoreSVG 175.5-->
<!DOCTYPE svg
PUBLIC "-//W3C//DTD SVG 1.1//EN"
       "http://www.w3.org/Graphics/SVG/1.1/DTD/svg11.dtd">
<svg version="1.1" xmlns="http://www.w3.org/2000/svg" xmlns:xlink="http://www.w3.org/1999/xlink" width="24.9023" height="24.9146">
 <g>
  <rect height="24.9146" opacity="0" width="24.9023" x="0" y="0"/>
  <path d="M12.4512 24.9023C19.2627 24.9023 24.9023 19.2505 24.9023 12.4512C24.9023 5.63965 19.2505 0 12.439 0C5.63965 0 0 5.63965 0 12.4512C0 19.2505 5.65186 24.9023 12.4512 24.9023ZM12.4512 22.8271C6.68945 22.8271 2.0874 18.2129 2.0874 12.4512C2.0874 6.68945 6.67725 2.0752 12.439 2.0752C18.2007 2.0752 22.8271 6.68945 22.8271 12.4512C22.8271 18.2129 18.2129 22.8271 12.4512 22.8271ZM10.0342 17.688C10.5347 17.688 10.791 17.3462 10.791 16.8701L10.791 15.4297L11.4502 15.4297C11.8652 15.4297 12.1338 15.1855 12.1338 14.7583C12.1338 14.3188 11.8652 14.0625 11.4502 14.0625L10.791 14.0625L10.791 8.34961C10.791 7.6416 10.2905 7.18994 9.58252 7.18994C8.87451 7.18994 8.44727 7.4585 8.04443 8.12988C7.03125 9.83887 5.79834 11.9385 4.96826 13.4155C4.77295 13.7939 4.69971 14.0625 4.69971 14.3921C4.69971 15.0391 5.12695 15.4297 5.74951 15.4297L9.31396 15.4297L9.31396 16.8701C9.31396 17.334 9.55811 17.688 10.0342 17.688ZM9.31396 14.0625L6.29883 14.0625L6.29883 14.0137C7.01904 12.6343 8.27637 10.4858 9.24072 8.83789L9.31396 8.83789ZM14.1357 17.4316L19.1895 17.4316C19.5801 17.4316 19.873 17.1387 19.873 16.6992C19.873 16.2476 19.5801 15.9912 19.1895 15.9912L15.6372 15.9912L15.6372 15.9058L18.0298 13.1226C18.9331 12.0728 19.6045 11.1938 19.6045 9.97314C19.6045 8.27637 18.3716 7.18994 16.4551 7.18994C15.0024 7.18994 13.7085 8.11768 13.3911 9.36279C13.3545 9.52148 13.3301 9.65576 13.3301 9.80225C13.3301 10.2417 13.5864 10.5347 14.0137 10.5347C14.3677 10.5347 14.5508 10.3271 14.7095 9.96094C15.0146 9.04541 15.6372 8.59375 16.5161 8.59375C17.4927 8.59375 18.1274 9.2041 18.1274 10.1074C18.1274 10.9009 17.4927 11.5845 16.9067 12.2681L13.6963 16.0522C13.501 16.2598 13.4277 16.4673 13.4277 16.7114C13.4277 17.1509 13.7085 17.4316 14.1357 17.4316Z" fill="#5ac8f5"/>
 </g>
</svg>
