<?xml version="1.0" encoding="UTF-8"?>
<!--Generator: Apple Native CoreSVG 175.5-->
<!DOCTYPE svg
PUBLIC "-//W3C//DTD SVG 1.1//EN"
       "http://www.w3.org/Graphics/SVG/1.1/DTD/svg11.dtd">
<svg version="1.1" xmlns="http://www.w3.org/2000/svg" xmlns:xlink="http://www.w3.org/1999/xlink" width="27.6842" height="27.701">
 <g>
  <rect height="27.701" opacity="0" width="27.6842" x="0" y="0"/>
  <path d="M1.36881 16.5422L11.1466 26.32C12.9533 28.1266 14.7355 28.1388 16.5299 26.3566L26.3566 16.5177C28.1388 14.7355 28.1266 12.9411 26.32 11.1344L16.5544 1.36881C14.7477-0.43783 12.9655-0.462244 11.1711 1.33219L1.33219 11.1588C-0.462244 12.9533-0.43783 14.7355 1.36881 16.5422Z" fill="#5ac8f5" fill-opacity="0.25"/>
  <path d="M16.8351 21.6203C16.5055 21.6203 16.2614 21.4616 16.1149 21.132L14.4792 17.8239C14.3937 17.6774 14.3571 17.6042 14.2228 17.4455L12.7336 15.5778C12.3185 15.0529 11.9279 14.4547 11.9889 13.6125L12.111 11.9279C12.1354 11.6715 11.8791 11.5251 11.6838 11.7082L10.9513 12.3551L10.8048 14.2228C10.7682 14.7111 10.4753 14.9674 10.0602 14.943C9.62076 14.9064 9.36442 14.6012 9.40104 14.1252L9.54752 12.4162C9.59635 11.9401 9.71842 11.6349 10.0846 11.2809L11.2687 10.1335C12.0255 9.40104 12.7336 9.01041 13.5148 9.01041C14.6379 9.01041 15.297 9.77945 15.2116 10.9391L15.0773 12.9899C15.0285 13.7345 14.8576 14.235 14.6256 15.0285L14.5402 15.2848L15.4679 16.591C15.6022 16.7619 15.7609 16.9938 15.8952 17.3112L17.4211 20.3996C17.5187 20.5949 17.5675 20.7536 17.5675 20.9245C17.5675 21.3273 17.2502 21.6203 16.8351 21.6203ZM9.8527 21.6325C9.44987 21.6325 9.19352 21.3517 9.19352 20.9489C9.19352 20.6803 9.32779 20.4972 9.5109 20.2775L11.696 17.6896L12.05 15.9928L13.234 17.4943L13.112 18.007C13.0509 18.2633 13.0387 18.2633 12.7824 18.5807L10.4264 21.3761C10.2799 21.547 10.0724 21.6325 9.8527 21.6325ZM17.2502 13.3683C16.8229 13.3683 16.6154 13.2951 16.3835 13.0509L15.8708 12.5382L15.9928 10.7316L17.1159 11.9767L19.069 11.9767C19.5573 11.9767 19.8625 12.2453 19.8625 12.6725C19.8625 13.0998 19.5695 13.3683 19.069 13.3683ZM14.4914 8.26578C13.6247 8.26578 12.9045 7.53336 12.9045 6.66666C12.9045 5.77555 13.6125 5.05533 14.4914 5.05533C15.3825 5.05533 16.1027 5.77555 16.1027 6.66666C16.1027 7.52115 15.3581 8.26578 14.4914 8.26578Z" fill="#5ac8f5"/>
 </g>
</svg>
