<?xml version="1.0" encoding="UTF-8"?>
<!--Generator: Apple Native CoreSVG 175.5-->
<!DOCTYPE svg
PUBLIC "-//W3C//DTD SVG 1.1//EN"
       "http://www.w3.org/Graphics/SVG/1.1/DTD/svg11.dtd">
<svg version="1.1" xmlns="http://www.w3.org/2000/svg" xmlns:xlink="http://www.w3.org/1999/xlink" width="22.4731" height="22.4976">
 <g>
  <rect height="22.4976" opacity="0" width="22.4731" x="0" y="0"/>
  <path d="M3.83301 22.4976L18.6401 22.4976C21.2036 22.4976 22.4731 21.228 22.4731 18.7134L22.4731 3.80859C22.4731 1.29395 21.2036 0.0244141 18.6401 0.0244141L3.83301 0.0244141C1.28174 0.0244141 0 1.28174 0 3.80859L0 18.7134C0 21.2402 1.28174 22.4976 3.83301 22.4976ZM3.85742 20.5322C2.63672 20.5322 1.96533 19.8853 1.96533 18.6157L1.96533 3.90625C1.96533 2.63672 2.63672 1.98975 3.85742 1.98975L18.6157 1.98975C19.8242 1.98975 20.5078 2.63672 20.5078 3.90625L20.5078 18.6157C20.5078 19.8853 19.8242 20.5322 18.6157 20.5322Z" fill="#5ac8f5" fill-opacity="0.5"/>
  <path d="M7.33643 16.5039C9.41162 16.5039 10.8643 15.2588 10.8643 13.501C10.8643 12.207 9.96094 11.1572 8.72803 11.0352L8.72803 10.9619C9.74121 10.791 10.5347 9.77783 10.5347 8.63037C10.5347 7.06787 9.25293 5.98145 7.42188 5.98145C5.77393 5.98145 4.55322 6.92139 4.23584 8.11768C4.19922 8.27637 4.19922 8.39844 4.19922 8.55713C4.19922 8.99658 4.47998 9.30176 4.89502 9.30176C5.26123 9.30176 5.45654 9.10645 5.57861 8.71582C5.84717 7.86133 6.43311 7.38525 7.38525 7.38525C8.34961 7.38525 9.0332 7.97119 9.0332 8.82568C9.0332 9.7168 8.34961 10.3638 7.37305 10.3638L6.71387 10.3638C6.32324 10.3638 6.05469 10.6445 6.05469 11.084C6.05469 11.4746 6.32324 11.7798 6.71387 11.7798L7.43408 11.7798C8.59375 11.7798 9.33838 12.439 9.33838 13.4277C9.33838 14.3799 8.52051 15.1001 7.34863 15.1001C6.38428 15.1001 5.7251 14.624 5.39551 13.7695C5.24902 13.3789 5.0415 13.1836 4.69971 13.1836C4.29688 13.1836 3.9917 13.4888 3.9917 13.916C3.9917 14.0869 4.01611 14.209 4.05273 14.3677C4.38232 15.4907 5.67627 16.5039 7.33643 16.5039ZM13.9893 16.3696C14.3188 16.3696 14.5508 16.1865 14.7705 15.7715L18.5791 8.1543C18.7622 7.76367 18.811 7.54395 18.811 7.2876C18.811 6.68945 18.3838 6.22559 17.7246 6.22559L12.793 6.22559C12.3779 6.22559 12.0972 6.50635 12.0972 6.92139C12.0972 7.32422 12.3779 7.59277 12.793 7.59277L17.0898 7.59277L17.0898 7.69043L13.3057 15.0146C13.1958 15.1978 13.1714 15.3442 13.1714 15.5762C13.1714 16.04 13.5254 16.3696 13.9893 16.3696Z" fill="#5ac8f5"/>
 </g>
</svg>
