<?xml version="1.0" encoding="UTF-8"?>
<!--Generator: Apple Native CoreSVG 175.5-->
<!DOCTYPE svg
PUBLIC "-//W3C//DTD SVG 1.1//EN"
       "http://www.w3.org/Graphics/SVG/1.1/DTD/svg11.dtd">
<svg version="1.1" xmlns="http://www.w3.org/2000/svg" xmlns:xlink="http://www.w3.org/1999/xlink" width="27.0508" height="23.3765">
 <g>
  <rect height="23.3765" opacity="0" width="27.0508" x="0" y="0"/>
  <path d="M15.4419 5.33447C16.9067 5.33447 18.103 4.15039 18.103 2.66113C18.103 1.19629 16.9067 0 15.4419 0C13.9526 0 12.7686 1.19629 12.7686 2.66113C12.7686 4.15039 13.9526 5.33447 15.4419 5.33447ZM17.3584 13.7451C18.0786 13.7451 18.6523 13.1836 18.6523 12.4634C18.6523 11.7432 18.0786 11.1816 17.3584 11.1816L12.8784 11.1816L12.8784 6.5918C12.8784 5.06592 11.5967 4.08936 10.1807 4.38232L2.63672 5.94482C-0.0976562 6.50635-0.842285 9.74121 1.14746 11.4868L5.83496 15.6128L5.83496 22.0825C5.83496 22.7783 6.4209 23.3643 7.1167 23.3643C7.8125 23.3643 8.39844 22.7783 8.39844 22.0825L8.39844 15.1245C8.39844 14.6729 8.30078 14.4287 8.02002 14.1235L4.40674 10.4858C4.21143 10.2783 4.30908 9.99756 4.55322 9.94873L9.63135 9.00879C10.1318 8.91113 10.3149 9.08203 10.3149 9.52148L10.3149 12.4634C10.3149 13.1836 10.9009 13.7451 11.5967 13.7451ZM24.2554 18.5913L26.0376 18.5913C26.6479 18.5913 27.0508 18.1885 27.0508 17.5781L27.0508 6.61621C27.0508 6.04248 26.6479 5.63965 26.062 5.63965L24.2065 5.63965C19.8486 5.63965 17.2119 6.7749 14.4409 9.99756L16.2354 9.99756C16.2842 9.99756 16.333 9.99756 16.3696 9.99756C18.5547 7.84912 20.8008 7.04346 24.2065 7.04346L25.6348 7.04346L25.6348 17.1631L24.2554 17.1631C23.8037 17.1631 23.4741 16.9434 23.2666 16.5649L22.1558 14.3433C21.9727 13.9771 21.6064 13.8916 21.3135 13.9893C20.9473 14.1113 20.6665 14.502 20.8984 14.978L22.0215 17.2119C22.4487 18.0542 23.291 18.5913 24.2554 18.5913ZM9.58252 17.9077C10.7544 17.0654 11.6943 16.0156 12.5366 14.9292L11.5967 14.9292C11.3281 14.9292 11.0596 14.8804 10.8032 14.7827C10.4248 15.2466 10.022 15.6616 9.58252 16.0645ZM0.720215 19.873L2.81982 19.873C3.4668 19.873 4.08936 19.8364 4.65088 19.751L4.65088 18.335C4.10156 18.4204 3.4668 18.4692 2.81982 18.4692L0.720215 18.4692C0.317383 18.4692 0 18.7622 0 19.1772C0 19.5435 0.317383 19.873 0.720215 19.873Z" fill="#5ac8f5"/>
 </g>
</svg>
