<?xml version="1.0" encoding="UTF-8"?>
<!--Generator: Apple Native CoreSVG 175.5-->
<!DOCTYPE svg
PUBLIC "-//W3C//DTD SVG 1.1//EN"
       "http://www.w3.org/Graphics/SVG/1.1/DTD/svg11.dtd">
<svg version="1.1" xmlns="http://www.w3.org/2000/svg" xmlns:xlink="http://www.w3.org/1999/xlink" width="32.2266" height="20.1782">
 <g>
  <rect height="20.1782" opacity="0" width="32.2266" x="0" y="0"/>
  <path d="M3.50342 16.3818C3.50342 16.5771 3.61328 16.6748 3.79639 16.6748L13.3423 16.6748C12.0483 15.3564 11.2915 13.0249 11.2915 10.0708C11.2915 7.12891 12.0483 4.80957 13.3179 3.50342L3.79639 3.50342C3.61328 3.50342 3.50342 3.60107 3.50342 3.79639ZM12.7563 10.0708C12.7563 13.8794 14.0747 16.4307 16.0645 16.4307C18.1152 16.4307 19.4946 13.8794 19.4946 10.0708C19.4946 6.26221 18.1152 3.72314 16.0645 3.72314C14.0747 3.72314 12.7563 6.26221 12.7563 10.0708ZM18.8599 16.6748L28.4302 16.6748C28.6133 16.6748 28.7231 16.5771 28.7231 16.3818L28.7231 3.79639C28.7231 3.60107 28.6133 3.50342 28.4302 3.50342L18.8721 3.50342C20.1782 4.80957 20.9473 7.12891 20.9473 10.0708C20.9473 13.0249 20.166 15.3564 18.8599 16.6748Z" fill="#5ac8f5" fill-opacity="0.5"/>
  <path d="M0 19.2017C0 19.7876 0.390625 20.1782 0.976562 20.1782L31.2622 20.1782C31.8481 20.1782 32.2266 19.7876 32.2266 19.2017L32.2266 0.964355C32.2266 0.378418 31.8481 0 31.2622 0L0.976562 0C0.390625 0 0 0.378418 0 0.964355ZM2.23389 17.1997L2.23389 2.97852C2.23389 2.49023 2.51465 2.23389 2.96631 2.23389L29.2603 2.23389C29.7241 2.23389 29.9927 2.49023 29.9927 2.97852L29.9927 17.1997C29.9927 17.6758 29.7241 17.9443 29.2603 17.9443L2.96631 17.9443C2.51465 17.9443 2.23389 17.6758 2.23389 17.1997Z" fill="#5ac8f5"/>
 </g>
</svg>
