<?xml version="1.0" encoding="UTF-8"?>
<!--Generator: Apple Native CoreSVG 175.5-->
<!DOCTYPE svg
PUBLIC "-//W3C//DTD SVG 1.1//EN"
       "http://www.w3.org/Graphics/SVG/1.1/DTD/svg11.dtd">
<svg version="1.1" xmlns="http://www.w3.org/2000/svg" xmlns:xlink="http://www.w3.org/1999/xlink" width="28.7842" height="22.4731">
 <g>
  <rect height="22.4731" opacity="0" width="28.7842" x="0" y="0"/>
  <path d="M3.83301 22.4731L24.9512 22.4731C27.5146 22.4731 28.7842 21.2158 28.7842 18.7012L28.7842 3.78418C28.7842 1.26953 27.5146 0 24.9512 0L3.83301 0C1.28174 0 0 1.26953 0 3.78418L0 18.7012C0 21.2158 1.28174 22.4731 3.83301 22.4731ZM3.85742 20.5078C2.63672 20.5078 1.96533 19.8608 1.96533 18.5913L1.96533 3.89404C1.96533 2.62451 2.63672 1.96533 3.85742 1.96533L24.9268 1.96533C26.1353 1.96533 26.8188 2.62451 26.8188 3.89404L26.8188 18.5913C26.8188 19.8608 26.1353 20.5078 24.9268 20.5078Z" fill="#5ac8f5" fill-opacity="0.5"/>
  <path d="M10.2417 16.394C10.5103 16.394 10.7544 16.2842 10.9375 16.0889L14.4043 12.6221L17.8711 16.0889C18.0542 16.272 18.2983 16.394 18.5791 16.394C19.1162 16.394 19.5557 15.9546 19.5557 15.4053C19.5557 15.1245 19.4458 14.9048 19.2627 14.7095L15.7959 11.2427L19.2749 7.75146C19.4702 7.54395 19.5679 7.33643 19.5679 7.06787C19.5679 6.53076 19.1284 6.09131 18.5913 6.09131C18.335 6.09131 18.1152 6.18896 17.9077 6.39648L14.4043 9.87549L10.9131 6.40869C10.73 6.21338 10.5103 6.11572 10.2417 6.11572C9.69238 6.11572 9.26514 6.54297 9.26514 7.08008C9.26514 7.34863 9.36279 7.58057 9.55811 7.76367L13.0249 11.2427L9.55811 14.7217C9.36279 14.9048 9.26514 15.1367 9.26514 15.4053C9.26514 15.9546 9.69238 16.394 10.2417 16.394Z" fill="#5ac8f5"/>
 </g>
</svg>
