<?xml version="1.0" encoding="UTF-8"?>
<!--Generator: Apple Native CoreSVG 175.5-->
<!DOCTYPE svg
PUBLIC "-//W3C//DTD SVG 1.1//EN"
       "http://www.w3.org/Graphics/SVG/1.1/DTD/svg11.dtd">
<svg version="1.1" xmlns="http://www.w3.org/2000/svg" xmlns:xlink="http://www.w3.org/1999/xlink" width="28.2593" height="23.6694">
 <g>
  <rect height="23.6694" opacity="0" width="28.2593" x="0" y="0"/>
  <path d="M12.2314 15.5396C11.377 15.5396 10.8765 15.0635 10.8765 14.209L10.8765 13.2202C7.2876 12.9761 3.71094 12.2437 0 10.8398L0 8.82568C4.56543 10.8276 9.14307 11.5356 14.1235 11.5356C19.1162 11.5356 23.6938 10.8276 28.2593 8.82568L28.2593 10.8398C24.5483 12.2437 20.9717 12.9761 17.3828 13.2202L17.3828 14.209C17.3828 15.0635 16.8823 15.5396 16.0278 15.5396ZM3.77197 23.6572L24.4873 23.6572C27.0142 23.6572 28.2593 22.4365 28.2593 19.9341L28.2593 8.05664C28.2593 5.5542 27.0142 4.3335 24.4873 4.3335L3.77197 4.3335C1.25732 4.3335 0 5.5542 0 8.05664L0 19.9341C0 22.4365 1.25732 23.6572 3.77197 23.6572ZM7.93457 5.39551L9.82666 5.39551L9.82666 3.23486C9.82666 2.30713 10.376 1.78223 11.3281 1.78223L16.9312 1.78223C17.8833 1.78223 18.4204 2.30713 18.4204 3.23486L18.4204 5.37109L20.3125 5.37109L20.3125 3.36914C20.3125 1.07422 19.104 0 16.8945 0L11.3525 0C9.26514 0 7.93457 1.07422 7.93457 3.36914Z" fill="#5ac8f5"/>
 </g>
</svg>
