<?xml version="1.0" encoding="UTF-8"?>
<!--Generator: Apple Native CoreSVG 175.5-->
<!DOCTYPE svg
PUBLIC "-//W3C//DTD SVG 1.1//EN"
       "http://www.w3.org/Graphics/SVG/1.1/DTD/svg11.dtd">
<svg version="1.1" xmlns="http://www.w3.org/2000/svg" xmlns:xlink="http://www.w3.org/1999/xlink" width="27.6842" height="27.701">
 <g>
  <rect height="27.701" opacity="0" width="27.6842" x="0" y="0"/>
  <path d="M1.36881 16.5422L11.1466 26.32C12.9533 28.1266 14.7355 28.1388 16.5299 26.3566L26.3566 16.5177C28.1388 14.7355 28.1266 12.9411 26.32 11.1344L16.5544 1.36881C14.7477-0.43783 12.9655-0.462244 11.1711 1.33219L1.33219 11.1588C-0.462244 12.9533-0.43783 14.7355 1.36881 16.5422ZM2.78483 15.1872C1.91813 14.3083 1.89371 13.3927 2.79703 12.4894L12.4894 2.79703C13.3927 1.89371 14.3083 1.90592 15.1872 2.78483L24.904 12.5016C25.7707 13.3683 25.7951 14.2961 24.8918 15.1994L15.1994 24.8918C14.2961 25.7951 13.3561 25.7707 12.5016 24.9162ZM8.18033 13.8444C8.18033 14.4425 8.60758 14.8454 9.23014 14.8454L12.819 14.8454L12.819 18.4464C12.819 19.0568 13.234 19.484 13.82 19.484C14.4425 19.484 14.8576 19.069 14.8576 18.4464L14.8576 14.8454L18.4587 14.8454C19.069 14.8454 19.4963 14.4425 19.4963 13.8444C19.4963 13.234 19.0812 12.8068 18.4587 12.8068L14.8576 12.8068L14.8576 9.21793C14.8576 8.59537 14.4425 8.16813 13.82 8.16813C13.234 8.16813 12.819 8.59537 12.819 9.21793L12.819 12.8068L9.23014 12.8068C8.60758 12.8068 8.18033 13.234 8.18033 13.8444Z" fill="#5ac8f5"/>
 </g>
</svg>
