<?xml version="1.0" encoding="UTF-8"?>
<!--Generator: Apple Native CoreSVG 175.5-->
<!DOCTYPE svg
PUBLIC "-//W3C//DTD SVG 1.1//EN"
       "http://www.w3.org/Graphics/SVG/1.1/DTD/svg11.dtd">
<svg version="1.1" xmlns="http://www.w3.org/2000/svg" xmlns:xlink="http://www.w3.org/1999/xlink" width="24.9023" height="24.9146">
 <g>
  <rect height="24.9146" opacity="0" width="24.9023" x="0" y="0"/>
  <path d="M12.4512 24.9146C19.2627 24.9146 24.9023 19.2749 24.9023 12.4634C24.9023 5.66406 19.2505 0.012207 12.439 0.012207C5.63965 0.012207 0 5.66406 0 12.4634C0 19.2749 5.65186 24.9146 12.4512 24.9146ZM10.4736 20.1294C8.26416 20.1294 7.16553 19.0063 7.17773 16.748C7.21436 14.1724 7.22656 12.3047 7.2876 10.9131C7.43408 7.66602 8.17871 6.22559 10.3638 5.77393C10.498 4.77295 11.3159 4.06494 12.439 4.06494C13.562 4.06494 14.3799 4.77295 14.5142 5.77393C16.6992 6.22559 17.4438 7.66602 17.5903 10.9131C17.6514 12.3047 17.6636 14.1724 17.7002 16.748C17.7124 19.0063 16.6138 20.1294 14.4043 20.1294ZM11.3892 5.62744C11.7188 5.60303 12.0605 5.59082 12.439 5.59082C12.8174 5.59082 13.1592 5.60303 13.4888 5.62744C13.3057 5.26123 12.9272 5.01709 12.439 5.01709C11.9507 5.01709 11.5723 5.26123 11.3892 5.62744ZM9.39941 14.209L15.4785 14.209L15.4785 13.3911C15.4785 12.854 15.1367 12.5 14.5752 12.5L10.3149 12.5C9.75342 12.5 9.39941 12.854 9.39941 13.3911ZM10.3149 17.5903L14.5752 17.5903C15.1367 17.5903 15.4785 17.2363 15.4785 16.687L15.4785 15.0024L9.39941 15.0024L9.39941 16.687C9.39941 17.2363 9.75342 17.5903 10.3149 17.5903Z" fill="#5ac8f5"/>
 </g>
</svg>
