<?xml version="1.0" encoding="UTF-8"?>
<!--Generator: Apple Native CoreSVG 175.5-->
<!DOCTYPE svg
PUBLIC "-//W3C//DTD SVG 1.1//EN"
       "http://www.w3.org/Graphics/SVG/1.1/DTD/svg11.dtd">
<svg version="1.1" xmlns="http://www.w3.org/2000/svg" xmlns:xlink="http://www.w3.org/1999/xlink" width="24.8291" height="26.4526">
 <g>
  <rect height="26.4526" opacity="0" width="24.8291" x="0" y="0"/>
  <path d="M10.1318 26.3184L21.4111 26.3184C23.6694 26.3184 24.8291 25.1343 24.8291 22.8516L24.8291 10.9497C24.8291 9.86328 24.6216 9.31396 23.999 8.69141L19.4824 4.1748C18.8477 3.54004 18.2129 3.28369 17.2241 3.28369L10.1318 3.28369C7.87354 3.28369 6.70166 4.46777 6.70166 6.7627L6.70166 22.8516C6.70166 25.1343 7.87354 26.3184 10.1318 26.3184ZM10.1929 24.353C9.17969 24.353 8.66699 23.8403 8.66699 22.8271L8.66699 6.7627C8.66699 5.77393 9.19189 5.24902 10.2051 5.24902L17.1631 5.24902C17.7124 5.24902 18.0786 5.39551 18.457 5.77393L22.4243 9.76562C22.7539 10.1074 22.8638 10.4126 22.8638 11.084L22.8638 22.8271C22.8638 23.8403 22.3389 24.353 21.3257 24.353ZM7.4707 22.7295L7.4707 20.7642L3.49121 20.7642C2.47803 20.7642 1.96533 20.2515 1.96533 19.2505L1.96533 3.479C1.96533 2.49023 2.47803 1.96533 3.50342 1.96533L10.4492 1.96533C10.9985 1.96533 11.3647 2.11182 11.7432 2.49023L13.4888 4.24805L16.1255 4.24805L12.7808 0.891113C12.146 0.256348 11.5112 0 10.5103 0L3.41797 0C1.15967 0 0 1.18408 0 3.479L0 19.2749C0 21.5576 1.15967 22.7295 3.41797 22.7295ZM10.6323 21.2036C10.6323 22.1436 11.2305 22.7417 12.1582 22.7417L13.6353 22.7417L13.6353 17.5415C13.6353 17.4316 13.5742 17.3706 13.4521 17.3706L10.6323 17.3706ZM10.6323 16.1377L14.1724 16.1377C14.624 16.1377 14.8682 16.394 14.8682 16.8091L14.8682 22.7417L16.9189 22.7417L16.9189 13.1958L12.1582 13.1958C11.2305 13.1958 10.6323 13.7817 10.6323 14.7339ZM18.1641 22.7417L19.3604 22.7417C20.3003 22.7417 20.8862 22.1436 20.8862 21.2036L20.8862 14.7339C20.8862 13.7817 20.3003 13.1958 19.3604 13.1958L18.1641 13.1958ZM6.71387 19.165L6.71387 13.9893L3.95508 13.9893L3.95508 17.6147C3.95508 18.5669 4.55322 19.165 5.48096 19.165ZM6.71387 12.7563L6.71387 9.81445L5.48096 9.81445C4.55322 9.81445 3.95508 10.4004 3.95508 11.3525L3.95508 12.7563Z" fill="#5ac8f5"/>
 </g>
</svg>
