<?xml version="1.0" encoding="UTF-8"?>
<!--Generator: Apple Native CoreSVG 175.5-->
<!DOCTYPE svg
PUBLIC "-//W3C//DTD SVG 1.1//EN"
       "http://www.w3.org/Graphics/SVG/1.1/DTD/svg11.dtd">
<svg version="1.1" xmlns="http://www.w3.org/2000/svg" xmlns:xlink="http://www.w3.org/1999/xlink" width="21.3501" height="29.6997">
 <g>
  <rect height="29.6997" opacity="0" width="21.3501" x="0" y="0"/>
  <path d="M5.12695 9.21631C6.5918 9.21631 7.77588 8.03223 7.77588 6.54297C7.77588 5.07812 6.5918 3.89404 5.12695 3.89404C3.6499 3.89404 2.45361 5.07812 2.45361 6.54297C2.45361 8.03223 3.6499 9.21631 5.12695 9.21631ZM11.7798 21.9971L15.564 16.7969L17.9565 21.167C18.7622 24.9146 18.8599 27.7832 18.8599 28.2227C18.8599 28.9795 19.4214 29.541 20.105 29.541C20.813 29.541 21.3501 28.9795 21.3501 28.2593C21.3501 28.1372 21.2891 24.8657 20.3979 20.4712L20.3491 20.2515C19.3237 15.21 16.1133 5.88379 7.82471 0.378418C7.40967 0.12207 7.04346 0 6.61621 0L1.24512 0C0.561523 0 0 0.561523 0 1.24512C0 1.96533 0.561523 2.52686 1.24512 2.52686L6.51855 2.52686C7.82471 3.43018 8.95996 4.40674 9.99756 5.45654C10.144 5.59082 10.1562 5.81055 10.0586 5.96924L5.83496 13.1836C5.32227 14.0869 5.94482 15.0757 6.92139 15.0757L12.6831 15.0757L9.65576 20.6421L9.53369 20.8618L5.81055 27.6733C5.46875 28.2837 5.68848 29.0649 6.29883 29.3823C6.87256 29.6875 7.65381 29.5532 8.02002 28.8818ZM9.09424 12.5732L10.0342 10.9741C10.1807 10.6934 10.4736 10.7544 10.5957 10.9375L11.6943 12.5732Z" fill="#5ac8f5"/>
 </g>
</svg>
