<?xml version="1.0" encoding="UTF-8"?>
<!--Generator: Apple Native CoreSVG 175.5-->
<!DOCTYPE svg
PUBLIC "-//W3C//DTD SVG 1.1//EN"
       "http://www.w3.org/Graphics/SVG/1.1/DTD/svg11.dtd">
<svg version="1.1" xmlns="http://www.w3.org/2000/svg" xmlns:xlink="http://www.w3.org/1999/xlink" width="25.8667" height="15.7349">
 <g>
  <rect height="15.7349" opacity="0" width="25.8667" x="0" y="0"/>
  <path d="M23.9014 12.1216C23.9014 13.147 23.3521 13.7329 22.3755 13.7329L3.51562 13.7329C2.52686 13.7329 1.97754 13.147 1.97754 12.1216L1.97754 10.5469C1.97754 10.3638 2.0874 10.2539 2.27051 10.2539L2.55127 10.2539C3.05176 10.2539 3.40576 9.92432 3.40576 9.42383L3.40576 6.26221C3.40576 5.76172 3.05176 5.43213 2.55127 5.43213L2.27051 5.43213C2.0874 5.43213 1.97754 5.32227 1.97754 5.13916L1.97754 3.57666C1.97754 2.55127 2.52686 1.96533 3.51562 1.96533L22.3755 1.96533C23.3521 1.96533 23.9014 2.55127 23.9014 3.57666Z" fill="#5ac8f5" fill-opacity="0.25"/>
  <path d="M25.8667 12.3657L25.8667 3.32031C25.8667 1.33057 24.5972 0 22.6929 0L3.19824 0C1.29395 0 0 1.33057 0 3.32031L0 12.3657C0 14.3555 1.29395 15.6982 3.19824 15.6982L22.6929 15.6982C24.5972 15.6982 25.8667 14.3555 25.8667 12.3657ZM23.9014 12.1216C23.9014 13.147 23.3521 13.7329 22.3755 13.7329L3.51562 13.7329C2.52686 13.7329 1.97754 13.147 1.97754 12.1216L1.97754 10.5469C1.97754 10.3638 2.0874 10.2539 2.27051 10.2539L2.55127 10.2539C3.05176 10.2539 3.40576 9.92432 3.40576 9.42383L3.40576 6.26221C3.40576 5.76172 3.05176 5.43213 2.55127 5.43213L2.27051 5.43213C2.0874 5.43213 1.97754 5.32227 1.97754 5.13916L1.97754 3.57666C1.97754 2.55127 2.52686 1.96533 3.51562 1.96533L22.3755 1.96533C23.3521 1.96533 23.9014 2.55127 23.9014 3.57666ZM9.69238 12.8296L16.1987 12.8296C16.5283 12.8296 16.7603 12.5977 16.7603 12.2559C16.7603 11.9141 16.5283 11.6943 16.1987 11.6943L9.69238 11.6943C9.36279 11.6943 9.13086 11.9141 9.13086 12.2559C9.13086 12.5977 9.36279 12.8296 9.69238 12.8296Z" fill="#5ac8f5"/>
 </g>
</svg>
