<?xml version="1.0" encoding="UTF-8"?>
<!--Generator: Apple Native CoreSVG 175.5-->
<!DOCTYPE svg
PUBLIC "-//W3C//DTD SVG 1.1//EN"
       "http://www.w3.org/Graphics/SVG/1.1/DTD/svg11.dtd">
<svg version="1.1" xmlns="http://www.w3.org/2000/svg" xmlns:xlink="http://www.w3.org/1999/xlink" width="24.2554" height="23.1567">
 <g>
  <rect height="23.1567" opacity="0" width="24.2554" x="0" y="0"/>
  <path d="M13.0005 8.08105L13.0005 12.6221L12.915 14.6729L13.9648 13.5742L15.0757 12.4512C15.2588 12.2681 15.4907 12.1582 15.7471 12.1582C16.2476 12.1582 16.6382 12.5244 16.6382 13.0371C16.6382 13.3301 16.5161 13.5376 16.3208 13.7207L12.7319 17.0044C12.4634 17.2607 12.2681 17.334 12.0239 17.334C11.7798 17.334 11.5845 17.2607 11.3159 17.0044L7.72705 13.7207C7.53174 13.5376 7.40967 13.3301 7.40967 13.0371C7.40967 12.5244 7.77588 12.1582 8.30078 12.1582C8.54492 12.1582 8.80127 12.2681 8.97217 12.4512L10.083 13.5742L11.1328 14.6729L11.0596 12.6221L11.0596 8.08105C11.0596 7.56836 11.499 7.14111 12.0239 7.14111C12.5488 7.14111 13.0005 7.56836 13.0005 8.08105ZM12.1216 23.1567C12.3779 23.1567 12.7441 22.9858 13.0127 22.8271C19.8975 18.4326 24.2554 13.3179 24.2554 8.11768C24.2554 3.79639 21.2891 0.744629 17.4438 0.744629C15.0635 0.744629 13.2324 2.06299 12.1216 4.07715C11.0352 2.0752 9.19189 0.744629 6.79932 0.744629C2.96631 0.744629 0 3.79639 0 8.11768C0 13.3179 4.35791 18.4326 11.2427 22.8271C11.499 22.9858 11.8774 23.1567 12.1216 23.1567Z" fill="#5ac8f5"/>
 </g>
</svg>
