<?xml version="1.0" encoding="UTF-8"?>
<!--Generator: Apple Native CoreSVG 175.5-->
<!DOCTYPE svg
PUBLIC "-//W3C//DTD SVG 1.1//EN"
       "http://www.w3.org/Graphics/SVG/1.1/DTD/svg11.dtd">
<svg version="1.1" xmlns="http://www.w3.org/2000/svg" xmlns:xlink="http://www.w3.org/1999/xlink" width="22.4731" height="22.4976">
 <g>
  <rect height="22.4976" opacity="0" width="22.4731" x="0" y="0"/>
  <path d="M6.32324 17.1509C5.63965 17.1509 5.13916 16.6504 5.13916 15.9668L5.13916 6.51855C5.13916 5.83496 5.63965 5.33447 6.32324 5.33447L16.1499 5.33447C16.8335 5.33447 17.334 5.83496 17.334 6.51855L17.334 15.9668C17.334 16.6504 16.8335 17.1509 16.1499 17.1509ZM11.2549 9.96094C11.9507 9.96094 12.5244 9.38721 12.5244 8.6792C12.5244 7.9834 11.9507 7.40967 11.2549 7.40967C10.5469 7.40967 9.97314 7.9834 9.97314 8.6792C9.97314 9.38721 10.5469 9.96094 11.2549 9.96094ZM8.49609 15.0757C9.2041 15.0757 9.77783 14.502 9.77783 13.7939C9.77783 13.0981 9.2041 12.5244 8.49609 12.5244C7.80029 12.5244 7.22656 13.0981 7.22656 13.7939C7.22656 14.502 7.80029 15.0757 8.49609 15.0757ZM14.0015 15.0757C14.7095 15.0757 15.271 14.502 15.271 13.7939C15.271 13.0981 14.7095 12.5244 14.0015 12.5244C13.2935 12.5244 12.7197 13.0981 12.7197 13.7939C12.7197 14.502 13.2935 15.0757 14.0015 15.0757ZM3.83301 22.4976L18.6401 22.4976C21.2036 22.4976 22.4731 21.228 22.4731 18.7134L22.4731 3.80859C22.4731 1.29395 21.2036 0.0244141 18.6401 0.0244141L3.83301 0.0244141C1.28174 0.0244141 0 1.28174 0 3.80859L0 18.7134C0 21.2402 1.28174 22.4976 3.83301 22.4976Z" fill="#5ac8f5"/>
 </g>
</svg>
