<?xml version="1.0" encoding="UTF-8"?>
<!--Generator: Apple Native CoreSVG 175.5-->
<!DOCTYPE svg
PUBLIC "-//W3C//DTD SVG 1.1//EN"
       "http://www.w3.org/Graphics/SVG/1.1/DTD/svg11.dtd">
<svg version="1.1" xmlns="http://www.w3.org/2000/svg" xmlns:xlink="http://www.w3.org/1999/xlink" width="22.9126" height="19.2993">
 <g>
  <rect height="19.2993" opacity="0" width="22.9126" x="0" y="0"/>
  <path d="M1.14746 19.2993C1.78223 19.2993 2.24609 18.8599 2.24609 18.2129C2.24609 17.7856 2.20947 17.3828 2.20947 16.8091C2.20947 12.2803 3.78418 10.437 8.26416 10.437L16.687 10.437L19.6899 10.2539L15.564 14.0137L12.854 16.7725C12.6709 16.9678 12.561 17.2607 12.561 17.5537C12.561 18.1641 13.0249 18.6035 13.6353 18.6035C13.916 18.6035 14.1846 18.4937 14.4287 18.2617L22.5342 10.1685C22.7905 9.92432 22.9126 9.64355 22.9126 9.33838C22.9126 9.04541 22.7905 8.75244 22.5342 8.52051L14.4531 0.45166C14.1846 0.183105 13.916 0.0854492 13.6353 0.0854492C13.0249 0.0854492 12.561 0.524902 12.561 1.13525C12.561 1.42822 12.6587 1.70898 12.854 1.9043L15.564 4.66309L19.6777 8.42285L16.687 8.25195L8.1543 8.25195C2.36816 8.25195 0 10.791 0 16.6992C0 17.4072 0.0244141 18.0176 0.109863 18.3838C0.20752 18.8843 0.500488 19.2993 1.14746 19.2993Z" fill="#5ac8f5"/>
 </g>
</svg>
