<?xml version="1.0" encoding="UTF-8"?>
<!--Generator: Apple Native CoreSVG 175.5-->
<!DOCTYPE svg
PUBLIC "-//W3C//DTD SVG 1.1//EN"
       "http://www.w3.org/Graphics/SVG/1.1/DTD/svg11.dtd">
<svg version="1.1" xmlns="http://www.w3.org/2000/svg" xmlns:xlink="http://www.w3.org/1999/xlink" width="25.6592" height="22.3999">
 <g>
  <rect height="22.3999" opacity="0" width="25.6592" x="0" y="0"/>
  <path d="M0 4.78516C0 5.26123 0.378418 5.65186 0.866699 5.65186L0.927734 5.65186C4.72412 5.65186 5.05371 3.17383 7.03125 3.17383C8.97217 3.17383 9.49707 5.65186 12.8296 5.65186C16.1499 5.65186 16.687 3.17383 18.6279 3.17383C20.6055 3.17383 20.9229 5.65186 24.7314 5.65186L24.7925 5.65186C25.2686 5.65186 25.6592 5.26123 25.6592 4.78516C25.6592 4.30908 25.2686 3.93066 24.7925 3.93066L24.7314 3.93066C23.4131 3.93066 22.6807 3.38135 21.7651 2.73438C20.9717 2.16064 19.9829 1.45264 18.6279 1.45264C17.2241 1.45264 16.2231 2.19727 15.4297 2.79541C14.5874 3.43018 13.916 3.93066 12.8296 3.93066C11.731 3.93066 11.0718 3.43018 10.2295 2.79541C9.43604 2.19727 8.43506 1.45264 7.03125 1.45264C5.67627 1.45264 4.6875 2.16064 3.89404 2.73438C2.97852 3.38135 2.23389 3.93066 0.927734 3.93066L0.866699 3.93066C0.378418 3.93066 0 4.30908 0 4.78516ZM7.03125 9.06982C5.67627 9.06982 4.6875 9.77783 3.89404 10.3516C2.97852 11.0107 2.23389 11.5479 0.927734 11.5479L0.866699 11.5479C0.378418 11.5479 0 11.9385 0 12.4146C0 12.8906 0.378418 13.269 0.866699 13.269L0.927734 13.269C4.72412 13.269 5.05371 10.791 7.03125 10.791C7.42188 10.791 7.71484 10.9253 7.99561 11.0718L9.08203 9.66797C8.49609 9.33838 7.83691 9.06982 7.03125 9.06982ZM24.7925 11.5479L24.7314 11.5479C23.4131 11.5479 22.6807 11.0107 21.7651 10.3516C20.9717 9.77783 19.9829 9.06982 18.6279 9.06982C17.8101 9.06982 17.1509 9.33838 16.5527 9.68018L17.6392 11.084C17.9321 10.9131 18.2251 10.791 18.6279 10.791C20.6055 10.791 20.9229 13.269 24.7314 13.269L24.7925 13.269C25.2686 13.269 25.6592 12.8906 25.6592 12.4146C25.6592 11.9385 25.2686 11.5479 24.7925 11.5479ZM9.60693 13.9038L16.0278 13.9038C16.7969 13.9038 17.1143 13.147 16.6748 12.5732L13.5376 8.45947C13.0981 7.89795 12.5488 7.88574 12.0972 8.45947L8.95996 12.561C8.5083 13.147 8.82568 13.9038 9.60693 13.9038ZM11.853 12.6953L11.853 21.4478C11.853 21.9604 12.2925 22.3999 12.8174 22.3999C13.3423 22.3999 13.7939 21.9604 13.7939 21.4478L13.7939 12.6953Z" fill="#5ac8f5"/>
 </g>
</svg>
