<?xml version="1.0" encoding="UTF-8"?>
<!--Generator: Apple Native CoreSVG 175.5-->
<!DOCTYPE svg
PUBLIC "-//W3C//DTD SVG 1.1//EN"
       "http://www.w3.org/Graphics/SVG/1.1/DTD/svg11.dtd">
<svg version="1.1" xmlns="http://www.w3.org/2000/svg" xmlns:xlink="http://www.w3.org/1999/xlink" width="16.7114" height="23.6206">
 <g>
  <rect height="23.6206" opacity="0" width="16.7114" x="0" y="0"/>
  <path d="M10.8887 0C4.91943 0 0 6.86035 0 15.271C0 19.2261 1.06201 23.5962 2.34375 23.5962C3.33252 23.5962 4.15039 22.2778 4.24805 20.9473C2.28271 20.3735 0.830078 18.5547 0.830078 16.4185C0.830078 15.1367 1.33057 13.9893 2.24609 13.0859C2.68555 7.2876 6.43311 2.19727 10.7544 2.19727C13.3423 2.19727 14.5264 4.12598 14.5264 7.70264L4.21143 13.0859C2.70996 13.8794 2.01416 15.1001 2.01416 16.4185C2.01416 18.3472 3.60107 19.9463 5.52979 19.9463C6.48193 19.9463 7.10449 19.7021 8.44727 18.9819L13.6353 16.1255C15.9058 14.8804 16.7114 13.3667 16.7114 10.1685L16.7114 7.32422C16.7114 2.83203 14.7339 0 10.8887 0ZM5.44434 18.6279C4.21143 18.6279 3.22266 17.627 3.22266 16.4062C3.22266 15.1855 4.21143 14.1846 5.44434 14.1846C6.66504 14.1846 7.66602 15.1855 7.66602 16.4062C7.66602 17.627 6.66504 18.6279 5.44434 18.6279ZM5.44434 17.7612C6.18896 17.7612 6.79932 17.1509 6.79932 16.4062C6.79932 15.6738 6.18896 15.0513 5.44434 15.0513C4.6875 15.0513 4.08936 15.6738 4.08936 16.4062C4.08936 17.1509 4.6875 17.7612 5.44434 17.7612Z" fill="#5ac8f5"/>
  <path d="M5.44434 18.6279C4.21143 18.6279 3.22266 17.627 3.22266 16.4062C3.22266 15.1855 4.21143 14.1846 5.44434 14.1846C6.66504 14.1846 7.66602 15.1855 7.66602 16.4062C7.66602 17.627 6.66504 18.6279 5.44434 18.6279ZM5.44434 17.7612C6.18896 17.7612 6.79932 17.1509 6.79932 16.4062C6.79932 15.6738 6.18896 15.0513 5.44434 15.0513C4.6875 15.0513 4.08936 15.6738 4.08936 16.4062C4.08936 17.1509 4.6875 17.7612 5.44434 17.7612Z" fill="#5ac8f5" fill-opacity="0.25"/>
 </g>
</svg>
