<?xml version="1.0" encoding="UTF-8"?>
<!--Generator: Apple Native CoreSVG 175.5-->
<!DOCTYPE svg
PUBLIC "-//W3C//DTD SVG 1.1//EN"
       "http://www.w3.org/Graphics/SVG/1.1/DTD/svg11.dtd">
<svg version="1.1" xmlns="http://www.w3.org/2000/svg" xmlns:xlink="http://www.w3.org/1999/xlink" width="15.6587" height="30.7739">
 <g>
  <rect height="30.7739" opacity="0" width="15.6587" x="0" y="0"/>
  <path d="M1.78223 29.9805C2.49023 29.9805 3.01514 29.4434 3.01514 28.7842L3.01514 22.937L6.43311 19.2993C6.49414 19.2383 6.604 19.2383 6.66504 19.3115L9.93652 23.6938L12.7197 29.2236C13.4888 30.7739 15.6616 29.6631 14.917 28.186L9.2041 16.7358C8.69141 15.7104 8.43506 14.3311 8.31299 12.9272C8.27637 12.4756 8.56934 12.2559 8.95996 12.4512L11.2183 13.5986L13.3057 17.7734C14.0503 19.2505 16.2842 18.2495 15.4907 16.6748L13.2202 12.146C13.0981 11.9019 12.915 11.7188 12.6709 11.5967L9.42383 9.97314C8.45947 9.48486 7.4707 9.30176 6.55518 9.06982C5.50537 8.81348 4.56543 8.48389 3.93066 7.58057L2.45361 5.43213L2.45361 1.2085C2.45361 0.549316 1.89209 0 1.2207 0C0.549316 0 0 0.549316 0 1.2085L0 5.82275C0 6.09131 0.0610352 6.27441 0.219727 6.50635L2.80762 10.2417C3.03955 10.5835 3.18604 10.8032 3.23486 11.377C3.33252 12.7319 3.62549 15.2466 4.1748 17.0654L0.805664 21.7407C0.646973 21.9849 0.585938 22.2168 0.585938 22.4487L0.585938 28.7842C0.585938 29.4434 1.11084 29.9805 1.78223 29.9805ZM7.39746 7.75146C8.8623 7.75146 10.0464 6.56738 10.0464 5.07812C10.0464 3.61328 8.8623 2.4292 7.39746 2.4292C5.9082 2.4292 4.72412 3.61328 4.72412 5.07812C4.72412 6.56738 5.9082 7.75146 7.39746 7.75146Z" fill="#5ac8f5"/>
 </g>
</svg>
