<?xml version="1.0" encoding="UTF-8"?>
<!--Generator: Apple Native CoreSVG 175.5-->
<!DOCTYPE svg
PUBLIC "-//W3C//DTD SVG 1.1//EN"
       "http://www.w3.org/Graphics/SVG/1.1/DTD/svg11.dtd">
<svg version="1.1" xmlns="http://www.w3.org/2000/svg" xmlns:xlink="http://www.w3.org/1999/xlink" width="24.9023" height="24.9146">
 <g>
  <rect height="24.9146" opacity="0" width="24.9023" x="0" y="0"/>
  <path d="M12.4512 24.9023C19.2627 24.9023 24.9023 19.2505 24.9023 12.4512C24.9023 5.63965 19.2505 0 12.439 0C5.63965 0 0 5.63965 0 12.4512C0 19.2505 5.65186 24.9023 12.4512 24.9023ZM12.4512 22.8271C6.68945 22.8271 2.0874 18.2129 2.0874 12.4512C2.0874 6.68945 6.67725 2.0752 12.439 2.0752C18.2007 2.0752 22.8271 6.68945 22.8271 12.4512C22.8271 18.2129 18.2129 22.8271 12.4512 22.8271ZM7.18994 15.3931L13.2446 15.3931C14.8926 15.3931 16.1499 14.1357 16.1499 12.5244C16.1499 10.9497 14.8804 9.75342 13.1958 9.7168C12.5366 8.48389 11.3647 7.72705 9.96094 7.72705C8.10547 7.72705 6.54297 9.16748 6.34766 11.0107C5.41992 11.3281 4.77295 12.1338 4.77295 13.1714C4.77295 14.4531 5.74951 15.3931 7.18994 15.3931ZM7.66602 17.981L8.36182 16.7847C8.49609 16.5771 8.42285 16.3086 8.19092 16.1865C7.9834 16.0522 7.71484 16.1377 7.60498 16.3452L6.90918 17.5415C6.78711 17.749 6.84814 18.0298 7.06787 18.1396C7.27539 18.2617 7.55615 18.1885 7.66602 17.981ZM9.22852 19.2749L9.87549 18.1519C9.99756 17.9443 9.93652 17.6636 9.70459 17.5415C9.48486 17.4316 9.22852 17.4927 9.09424 17.7124L8.43506 18.8354C8.31299 19.0552 8.39844 19.3237 8.63037 19.4458C8.82568 19.5679 9.10645 19.4824 9.22852 19.2749ZM11.6089 17.981L12.3047 16.7969C12.439 16.5771 12.3535 16.3208 12.1338 16.1865C11.9141 16.0645 11.6455 16.1255 11.5234 16.333L10.8398 17.5293C10.73 17.7368 10.7788 18.0176 11.0107 18.1396C11.2305 18.2495 11.4868 18.1763 11.6089 17.981ZM13.1592 19.2871L13.8184 18.1519C13.9282 17.9443 13.8672 17.6514 13.6475 17.5415C13.4277 17.4316 13.1714 17.5049 13.0371 17.7124L12.3779 18.8354C12.2559 19.0552 12.3413 19.3237 12.561 19.4458C12.7686 19.5679 13.0371 19.4824 13.1592 19.2871ZM20.166 9.41162C20.166 9.19189 20.0684 9.04541 19.8853 9.04541C19.6167 9.04541 19.165 9.38721 18.3838 9.38721C16.9556 9.38721 16.0522 8.55713 16.0522 7.23877C16.0522 6.48193 16.4795 5.93262 16.4795 5.61523C16.4795 5.44434 16.333 5.32227 16.1133 5.33447C14.9536 5.3833 13.5132 6.75049 13.3179 8.43506C13.4521 8.58154 13.562 8.74023 13.6841 8.89893C15.4907 9.11865 16.8213 10.4614 16.9922 12.1948C18.9575 11.9873 20.166 10.437 20.166 9.41162Z" fill="#5ac8f5"/>
 </g>
</svg>
