<?xml version="1.0" encoding="UTF-8"?>
<!--Generator: Apple Native CoreSVG 175.5-->
<!DOCTYPE svg
PUBLIC "-//W3C//DTD SVG 1.1//EN"
       "http://www.w3.org/Graphics/SVG/1.1/DTD/svg11.dtd">
<svg version="1.1" xmlns="http://www.w3.org/2000/svg" xmlns:xlink="http://www.w3.org/1999/xlink" width="28.4302" height="18.2007">
 <g>
  <rect height="18.2007" opacity="0" width="28.4302" x="0" y="0"/>
  <path d="M21.9727 18.1885C24.0601 18.1885 25.647 17.1997 26.3916 15.4419L26.4648 15.4419L26.4648 17.1753C26.4648 17.8101 26.8677 18.2007 27.4414 18.2007C28.0273 18.2007 28.4302 17.7979 28.4302 17.1631L28.4302 5.59082C28.4302 4.96826 28.0273 4.52881 27.4414 4.52881C26.8677 4.52881 26.4648 4.96826 26.4648 5.59082L26.4648 7.31201L26.3916 7.31201C25.647 5.59082 23.9868 4.55322 21.9727 4.55322C18.6646 4.55322 16.4551 7.2998 16.4551 11.377C16.4551 15.4785 18.6646 18.1885 21.9727 18.1885ZM22.4609 16.4062C20.0806 16.4062 18.5669 14.4653 18.5669 11.377C18.5669 8.28857 20.0806 6.33545 22.4609 6.33545C24.8413 6.33545 26.4038 8.34961 26.4038 11.4014C26.4038 14.4531 24.8657 16.4062 22.4609 16.4062ZM1.02539 18.103C1.67236 18.103 1.98975 17.8589 2.22168 17.1753L3.79639 12.8662L10.9985 12.8662L12.5732 17.1753C12.8052 17.8589 13.1226 18.103 13.7573 18.103C14.4043 18.103 14.8193 17.7124 14.8193 17.1021C14.8193 16.8945 14.7827 16.6992 14.6851 16.4429L8.95996 1.19629C8.6792 0.45166 8.17871 0.0732422 7.39746 0.0732422C6.64062 0.0732422 6.12793 0.439453 5.85938 1.18408L0.134277 16.4551C0.0366211 16.7114 0 16.9067 0 17.1143C0 17.7246 0.390625 18.103 1.02539 18.103ZM4.39453 11.0107L7.36084 2.79541L7.42188 2.79541L10.3882 11.0107Z" fill="#5ac8f5"/>
 </g>
</svg>
