<?xml version="1.0" encoding="UTF-8"?>
<!--Generator: Apple Native CoreSVG 175.5-->
<!DOCTYPE svg
PUBLIC "-//W3C//DTD SVG 1.1//EN"
       "http://www.w3.org/Graphics/SVG/1.1/DTD/svg11.dtd">
<svg version="1.1" xmlns="http://www.w3.org/2000/svg" xmlns:xlink="http://www.w3.org/1999/xlink" width="24.9023" height="24.9146">
 <g>
  <rect height="24.9146" opacity="0" width="24.9023" x="0" y="0"/>
  <path d="M12.4512 24.9146C19.2627 24.9146 24.9023 19.2749 24.9023 12.4634C24.9023 5.66406 19.2505 0.012207 12.439 0.012207C5.63965 0.012207 0 5.66406 0 12.4634C0 19.2749 5.65186 24.9146 12.4512 24.9146ZM7.03125 15.4785C5.54199 15.4785 4.54102 14.5142 4.54102 13.1958C4.54102 12.1216 5.2002 11.2915 6.15234 10.9619C6.35986 9.08203 7.97119 7.58057 9.8877 7.58057C11.3281 7.58057 12.5366 8.37402 13.2202 9.63135C14.9536 9.66797 16.2598 10.9131 16.2598 12.5366C16.2598 14.1968 14.9658 15.4785 13.269 15.4785ZM20.3979 9.32617C20.3979 10.376 19.1528 11.9873 17.1265 12.1826C16.9556 10.4004 15.5884 9.021 13.7207 8.78906C13.5986 8.63037 13.4766 8.45947 13.3423 8.30078C13.5498 6.56738 15.0391 5.17578 16.2231 5.11475C16.4551 5.11475 16.6016 5.22461 16.6016 5.41992C16.6016 5.7251 16.1621 6.29883 16.1621 7.08008C16.1621 8.43506 17.0898 9.30176 18.5669 9.30176C19.3726 9.30176 19.8364 8.93555 20.1172 8.93555C20.3003 8.93555 20.3979 9.08203 20.3979 9.32617ZM8.63037 18.2739L9.46045 16.3452C9.52148 16.2109 9.60693 16.1621 9.79004 16.1621L11.1572 16.1621C11.3159 16.1621 11.3647 16.272 11.2915 16.4307L10.6934 17.5659L11.9629 17.5659C12.1582 17.5659 12.2192 17.749 12.085 17.8955L9.30176 20.7275C9.15527 20.8496 8.97217 20.752 9.0332 20.5933L9.87549 18.5547L8.78906 18.5547C8.63037 18.5547 8.55713 18.4326 8.63037 18.2739Z" fill="#5ac8f5"/>
 </g>
</svg>
