<?xml version="1.0" encoding="UTF-8"?>
<!--Generator: Apple Native CoreSVG 175.5-->
<!DOCTYPE svg
PUBLIC "-//W3C//DTD SVG 1.1//EN"
       "http://www.w3.org/Graphics/SVG/1.1/DTD/svg11.dtd">
<svg version="1.1" xmlns="http://www.w3.org/2000/svg" xmlns:xlink="http://www.w3.org/1999/xlink" width="20.3979" height="27.5269">
 <g>
  <rect height="27.5269" opacity="0" width="20.3979" x="0" y="0"/>
  <path d="M3.38135 27.5024L17.0166 27.5024C19.043 27.5024 20.3979 26.2085 20.3979 24.2798L20.3979 3.23486C20.3979 1.30615 19.043 0 17.0166 0L3.38135 0C1.35498 0 0 1.30615 0 3.23486L0 24.2798C0 26.2085 1.35498 27.5024 3.38135 27.5024ZM1.96533 23.3643L1.96533 4.15039L18.4326 4.15039L18.4326 23.3643ZM10.2173 26.2939C9.61914 26.2939 9.15527 25.8179 9.15527 25.2319C9.15527 24.6582 9.61914 24.1821 10.2173 24.1821C10.791 24.1821 11.2671 24.6582 11.2671 25.2319C11.2671 25.8179 10.791 26.2939 10.2173 26.2939ZM10.1929 2.90527C9.82666 2.90527 9.53369 2.6001 9.53369 2.23389C9.53369 1.87988 9.82666 1.5625 10.1929 1.5625C10.5591 1.5625 10.8643 1.87988 10.8643 2.23389C10.8643 2.6001 10.5591 2.90527 10.1929 2.90527Z" fill="#5ac8f5"/>
 </g>
</svg>
