<?xml version="1.0" encoding="UTF-8"?>
<!--Generator: Apple Native CoreSVG 175.5-->
<!DOCTYPE svg
PUBLIC "-//W3C//DTD SVG 1.1//EN"
       "http://www.w3.org/Graphics/SVG/1.1/DTD/svg11.dtd">
<svg version="1.1" xmlns="http://www.w3.org/2000/svg" xmlns:xlink="http://www.w3.org/1999/xlink" width="24.9023" height="24.9146">
 <g>
  <rect height="24.9146" opacity="0" width="24.9023" x="0" y="0"/>
  <path d="M12.4512 24.9023C19.2627 24.9023 24.9023 19.2505 24.9023 12.4512C24.9023 5.63965 19.2505 0 12.439 0C5.63965 0 0 5.63965 0 12.4512C0 19.2505 5.65186 24.9023 12.4512 24.9023ZM12.4756 18.9453C11.8042 18.9453 11.4014 18.5303 11.4136 17.8589L11.5234 14.0869L8.11768 16.2964C7.93457 16.4185 7.71484 16.4917 7.4585 16.4917C6.9458 16.4917 6.45752 16.0889 6.45752 15.4419C6.45752 15.0146 6.65283 14.7461 7.06787 14.5142L10.6201 12.5244L7.06787 10.5591C6.65283 10.3271 6.45752 10.0342 6.45752 9.63135C6.45752 8.97217 6.9458 8.58154 7.4585 8.58154C7.71484 8.58154 7.93457 8.64258 8.11768 8.76465L11.5234 10.9375L11.4136 7.04346C11.4014 6.37207 11.8042 5.95703 12.4756 5.95703C13.1348 5.95703 13.501 6.34766 13.4888 7.04346L13.3789 10.9375L16.7847 8.75244C16.9678 8.63037 17.1875 8.55713 17.4438 8.55713C17.9565 8.55713 18.4448 8.95996 18.4448 9.60693C18.4448 10.022 18.2495 10.3149 17.8345 10.5469L14.2578 12.5122L17.8345 14.5264C18.2495 14.7583 18.4448 15.0269 18.4448 15.4541C18.4448 16.1011 17.9565 16.5039 17.4438 16.5039C17.1875 16.5039 16.9678 16.4307 16.7847 16.3086L13.3789 14.0869L13.4888 17.8589C13.501 18.5547 13.1348 18.9453 12.4756 18.9453Z" fill="#5ac8f5"/>
 </g>
</svg>
