<?xml version="1.0" encoding="UTF-8"?>
<!--Generator: Apple Native CoreSVG 175.5-->
<!DOCTYPE svg
PUBLIC "-//W3C//DTD SVG 1.1//EN"
       "http://www.w3.org/Graphics/SVG/1.1/DTD/svg11.dtd">
<svg version="1.1" xmlns="http://www.w3.org/2000/svg" xmlns:xlink="http://www.w3.org/1999/xlink" width="29.9072" height="25.2319">
 <g>
  <rect height="25.2319" opacity="0" width="29.9072" x="0" y="0"/>
  <path d="M3.83301 18.6646L26.0742 18.6646C28.6377 18.6646 29.9072 17.395 29.9072 14.8804L29.9072 5.7251C29.9072 3.21045 28.6377 1.94092 26.0742 1.94092L3.83301 1.94092C1.28174 1.94092 0 3.19824 0 5.7251L0 14.8804C0 17.395 1.28174 18.6646 3.83301 18.6646ZM3.85742 16.6992C2.63672 16.6992 1.96533 16.04 1.96533 14.7705L1.96533 5.83496C1.96533 4.56543 2.63672 3.90625 3.85742 3.90625L26.0376 3.90625C27.2461 3.90625 27.9419 4.56543 27.9419 5.83496L27.9419 14.7705C27.9419 16.04 27.2461 16.6992 26.0376 16.6992ZM14.9292 25.2319C16.4307 25.2319 17.688 23.9868 17.688 22.4854C17.688 20.9595 16.4429 19.7266 14.9292 19.7266C13.4277 19.7266 12.1826 20.9595 12.1826 22.4854C12.1826 23.999 13.4155 25.2319 14.9292 25.2319ZM14.9292 23.6084C14.3066 23.6084 13.7939 23.0957 13.7939 22.4854C13.7939 21.8506 14.3066 21.3257 14.9292 21.3257C15.5518 21.3257 16.0767 21.8506 16.0767 22.4854C16.0767 23.0957 15.5518 23.6084 14.9292 23.6084ZM13.1226 21.3257L14.8682 20.3979L3.35693 0.622559C3.10059 0.170898 2.53906-0.012207 1.98975 0.268555C1.48926 0.512695 1.37939 1.14746 1.66016 1.61133Z" fill="#5ac8f5"/>
 </g>
</svg>
