<?xml version="1.0" encoding="UTF-8"?>
<!--Generator: Apple Native CoreSVG 175.5-->
<!DOCTYPE svg
PUBLIC "-//W3C//DTD SVG 1.1//EN"
       "http://www.w3.org/Graphics/SVG/1.1/DTD/svg11.dtd">
<svg version="1.1" xmlns="http://www.w3.org/2000/svg" xmlns:xlink="http://www.w3.org/1999/xlink" width="24.9023" height="24.9146">
 <g>
  <rect height="24.9146" opacity="0" width="24.9023" x="0" y="0"/>
  <path d="M12.4512 24.9023C19.2627 24.9023 24.9023 19.2505 24.9023 12.4512C24.9023 5.63965 19.2505 0 12.439 0C5.63965 0 0 5.63965 0 12.4512C0 19.2505 5.65186 24.9023 12.4512 24.9023ZM12.4512 22.8271C6.68945 22.8271 2.0874 18.2129 2.0874 12.4512C2.0874 6.68945 6.67725 2.0752 12.439 2.0752C18.2007 2.0752 22.8271 6.68945 22.8271 12.4512C22.8271 18.2129 18.2129 22.8271 12.4512 22.8271Z" fill="#5ac8f5" fill-opacity="0.5"/>
  <path d="M6.7749 17.1997C6.7749 18.0786 7.31201 18.6035 8.22754 18.6035L16.6748 18.6035C17.5903 18.6035 18.1152 18.0786 18.1152 17.1997L18.1152 12.1094L12.8296 7.66602C12.5854 7.4585 12.3047 7.4707 12.0605 7.66602L6.7749 12.0972ZM14.1113 17.3828L10.791 17.3828L10.791 13.3057C10.791 13.0127 10.9863 12.8174 11.2915 12.8174L13.6108 12.8174C13.9282 12.8174 14.1113 13.0127 14.1113 13.3057ZM4.73633 11.4502C4.73633 11.731 4.95605 12.0117 5.32227 12.0117C5.51758 12.0117 5.66406 11.9019 5.79834 11.7798L12.1582 6.45752C12.3657 6.27441 12.5488 6.29883 12.7441 6.45752L19.0918 11.7798C19.2505 11.9019 19.3848 12.0117 19.5679 12.0117C19.8853 12.0117 20.1538 11.792 20.1538 11.4746C20.1538 11.2671 20.0928 11.1328 19.9463 10.9985L13.3301 5.44434C12.793 4.99268 12.1094 4.99268 11.5845 5.44434L4.94385 10.9985C4.80957 11.1328 4.73633 11.2915 4.73633 11.4502ZM16.5039 8.54492L18.1152 9.91211L18.1152 6.93359C18.1152 6.66504 17.9443 6.46973 17.6636 6.46973L16.9678 6.46973C16.6992 6.46973 16.5039 6.66504 16.5039 6.93359Z" fill="#5ac8f5"/>
 </g>
</svg>
