<?xml version="1.0" encoding="UTF-8"?>
<!--Generator: Apple Native CoreSVG 175.5-->
<!DOCTYPE svg
PUBLIC "-//W3C//DTD SVG 1.1//EN"
       "http://www.w3.org/Graphics/SVG/1.1/DTD/svg11.dtd">
<svg version="1.1" xmlns="http://www.w3.org/2000/svg" xmlns:xlink="http://www.w3.org/1999/xlink" width="17.4683" height="27.6245">
 <g>
  <rect height="27.6245" opacity="0" width="17.4683" x="0" y="0"/>
  <path d="M0 12.7808C0 17.5659 3.16162 20.9229 7.8125 21.3135L7.8125 24.1577L3.28369 24.1577C2.771 24.1577 2.35596 24.5728 2.35596 25.0854C2.35596 25.5981 2.771 26.001 3.28369 26.001L14.1846 26.001C14.6973 26.001 15.1123 25.5981 15.1123 25.0854C15.1123 24.5728 14.6973 24.1577 14.1846 24.1577L9.65576 24.1577L9.65576 21.3135C14.3188 20.9229 17.4683 17.5659 17.4683 12.7808L17.4683 10.3027C17.4683 9.79004 17.0654 9.38721 16.5527 9.38721C16.04 9.38721 15.625 9.79004 15.625 10.3027L15.625 12.7075C15.625 16.8701 12.915 19.6289 8.74023 19.6289C4.55322 19.6289 1.84326 16.8701 1.84326 12.7075L1.84326 10.3027C1.84326 9.79004 1.44043 9.38721 0.915527 9.38721C0.402832 9.38721 0 9.79004 0 10.3027ZM8.74023 17.0044C11.1694 17.0044 12.8052 15.1855 12.8052 12.5854L12.8052 4.41895C12.8052 1.80664 11.1694 0 8.74023 0C6.29883 0 4.66309 1.80664 4.66309 4.41895L4.66309 12.5854C4.66309 15.1855 6.29883 17.0044 8.74023 17.0044Z" fill="#5ac8f5"/>
 </g>
</svg>
