<?xml version="1.0" encoding="UTF-8"?>
<!--Generator: Apple Native CoreSVG 175.5-->
<!DOCTYPE svg
PUBLIC "-//W3C//DTD SVG 1.1//EN"
       "http://www.w3.org/Graphics/SVG/1.1/DTD/svg11.dtd">
<svg version="1.1" xmlns="http://www.w3.org/2000/svg" xmlns:xlink="http://www.w3.org/1999/xlink" width="25.1804" height="25.6886">
 <g>
  <rect height="25.6886" opacity="0" width="25.1804" x="0" y="0"/>
  <path d="M21.8967 7.21075C23.7156 7.21075 25.1804 5.68487 25.1804 3.91485C25.1804 2.07159 23.7156 0.570121 21.8967 0.570121C20.0412 0.570121 18.5764 2.07159 18.5764 3.91485C18.5764 5.72149 20.0412 7.21075 21.8967 7.21075ZM2.23119 24.6546C2.85375 25.326 3.94017 25.2649 4.72142 24.4715L9.97045 19.0516C10.1536 18.8685 10.2634 18.8196 10.532 18.9295L14.6335 20.4798C17.2703 21.493 19.7605 20.6263 20.9079 18.5267L23.5447 13.7293C24.5823 11.8494 24.2405 9.93291 22.4704 8.98077C20.7493 8.02862 18.9548 8.74883 17.9172 10.6653L14.4993 16.9031L11.5818 15.8411C10.1536 15.3162 8.94506 15.4871 7.78539 16.6834L2.34105 22.3231C1.58422 23.1043 1.64525 24.0809 2.23119 24.6546ZM12.0701 7.1375L15.2317 4.34209C15.6467 3.96368 15.6467 3.43877 15.2317 3.06035L12.0701 0.277152C11.4231-0.296579 10.5808 0.0696323 10.5808 0.924124L10.5808 2.80401L6.9309 2.80401C6.43041 2.80401 6.01537 3.20684 6.01537 3.70733C6.01537 4.22002 6.43041 4.59844 6.9309 4.59844L10.5808 4.59844L10.5808 6.46612C10.5808 7.35723 11.4719 7.66241 12.0701 7.1375ZM0.265858 11.4954L3.04906 14.657C3.42748 15.0843 3.96459 15.0721 4.3308 14.657L7.114 11.4954C7.68773 10.8606 7.32152 10.0062 6.46703 10.0062L4.58715 10.0062L4.58715 6.35625C4.58715 5.85577 4.19652 5.45293 3.68383 5.45293C3.18334 5.45293 2.79271 5.85577 2.79271 6.35625L2.79271 10.0062L0.925038 10.0062C0.0339248 10.0062-0.271251 10.9095 0.265858 11.4954Z" fill="#5ac8f5"/>
 </g>
</svg>
