<?xml version="1.0" encoding="UTF-8"?>
<!--Generator: Apple Native CoreSVG 175.5-->
<!DOCTYPE svg
PUBLIC "-//W3C//DTD SVG 1.1//EN"
       "http://www.w3.org/Graphics/SVG/1.1/DTD/svg11.dtd">
<svg version="1.1" xmlns="http://www.w3.org/2000/svg" xmlns:xlink="http://www.w3.org/1999/xlink" width="20.5322" height="26.1841">
 <g>
  <rect height="26.1841" opacity="0" width="20.5322" x="0" y="0"/>
  <path d="M3.78418 26.1841L16.748 26.1841C19.2749 26.1841 20.5322 24.9146 20.5322 22.3633L20.5322 3.84521C20.5322 1.30615 19.2627 0.012207 16.748 0.012207L8.59375 0.012207C7.49512 0.012207 6.79932 0.280762 6.09131 1.00098L0.90332 6.17676C0.219727 6.87256 0 7.4707 0 8.6792L0 22.3633C0 24.9023 1.25732 26.1841 3.78418 26.1841ZM7.80029 4.96826C7.80029 4.5166 8.1543 4.1626 8.60596 4.1626C9.04541 4.1626 9.38721 4.50439 9.38721 4.96826L9.38721 8.93555C9.38721 9.38721 9.04541 9.74121 8.60596 9.74121C8.1543 9.74121 7.80029 9.38721 7.80029 8.93555ZM10.376 4.96826C10.376 4.5166 10.73 4.1626 11.1938 4.1626C11.6333 4.1626 11.9873 4.5166 11.9873 4.96826L11.9873 8.93555C11.9873 9.38721 11.6211 9.74121 11.1938 9.74121C10.7422 9.74121 10.376 9.38721 10.376 8.93555ZM12.9761 4.96826C12.9761 4.5166 13.3301 4.1626 13.7695 4.1626C14.2212 4.1626 14.563 4.50439 14.563 4.96826L14.5752 8.93555C14.5752 9.375 14.209 9.74121 13.7695 9.74121C13.3423 9.74121 12.9761 9.38721 12.9761 8.93555ZM15.5762 4.96826C15.5762 4.5166 15.918 4.1626 16.3696 4.1626C16.8091 4.1626 17.1509 4.50439 17.1509 4.96826L17.1509 8.92334C17.1509 9.38721 16.8091 9.74121 16.3696 9.74121C15.9302 9.74121 15.5762 9.38721 15.5762 8.92334Z" fill="#5ac8f5"/>
 </g>
</svg>
