<?xml version="1.0" encoding="UTF-8"?>
<!--Generator: Apple Native CoreSVG 175.5-->
<!DOCTYPE svg
PUBLIC "-//W3C//DTD SVG 1.1//EN"
       "http://www.w3.org/Graphics/SVG/1.1/DTD/svg11.dtd">
<svg version="1.1" xmlns="http://www.w3.org/2000/svg" xmlns:xlink="http://www.w3.org/1999/xlink" width="22.4731" height="22.4976">
 <g>
  <rect height="22.4976" opacity="0" width="22.4731" x="0" y="0"/>
  <path d="M3.83301 22.4976L18.6401 22.4976C21.2036 22.4976 22.4731 21.228 22.4731 18.7134L22.4731 3.80859C22.4731 1.29395 21.2036 0.0244141 18.6401 0.0244141L3.83301 0.0244141C1.28174 0.0244141 0 1.28174 0 3.80859L0 18.7134C0 21.2402 1.28174 22.4976 3.83301 22.4976ZM3.85742 20.5322C2.63672 20.5322 1.96533 19.8853 1.96533 18.6157L1.96533 3.90625C1.96533 2.63672 2.63672 1.98975 3.85742 1.98975L18.6157 1.98975C19.8242 1.98975 20.5078 2.63672 20.5078 3.90625L20.5078 18.6157C20.5078 19.8853 19.8242 20.5322 18.6157 20.5322ZM4.78516 16.2231L9.83887 16.2231C10.2173 16.2231 10.5103 15.9302 10.5103 15.4907C10.5103 15.0391 10.2173 14.7827 9.83887 14.7827L6.28662 14.7827L6.28662 14.6973L8.6792 11.9141C9.58252 10.8643 10.2539 9.98535 10.2539 8.76465C10.2539 7.06787 9.00879 5.98145 7.09229 5.98145C5.63965 5.98145 4.3457 6.90918 4.02832 8.1543C4.00391 8.31299 3.97949 8.44727 3.97949 8.59375C3.97949 9.0332 4.23584 9.32617 4.66309 9.32617C5.00488 9.32617 5.18799 9.11865 5.35889 8.75244C5.66406 7.83691 6.27441 7.38525 7.15332 7.38525C8.14209 7.38525 8.77686 7.99561 8.77686 8.89893C8.77686 9.69238 8.14209 10.376 7.55615 11.0596L4.3335 14.8438C4.15039 15.0513 4.06494 15.2588 4.06494 15.5029C4.06494 15.9424 4.3457 16.2231 4.78516 16.2231ZM15.3198 16.5039C17.4438 16.5039 18.8965 15.2832 18.8965 13.5132C18.8965 12.2681 18.1274 11.2549 16.8213 10.9863L16.8213 10.9131C17.9443 10.6079 18.5425 9.729 18.5425 8.66699C18.5425 7.08008 17.2241 5.98145 15.3442 5.98145C13.4766 5.98145 12.1582 7.08008 12.1582 8.66699C12.1582 9.729 12.7441 10.5835 13.8794 10.9131L13.8794 10.9863C12.5488 11.2549 11.8042 12.2803 11.8042 13.5254C11.8042 15.3076 13.208 16.5039 15.3198 16.5039ZM15.3564 15.2344C14.1968 15.2344 13.3545 14.4897 13.3545 13.4155C13.3545 12.3657 14.1968 11.5967 15.3564 11.5967C16.5405 11.5967 17.3584 12.3535 17.3584 13.4155C17.3584 14.4897 16.5161 15.2344 15.3564 15.2344ZM15.3442 10.4248C14.3921 10.4248 13.7207 9.74121 13.7207 8.81348C13.7207 7.88574 14.3921 7.25098 15.3442 7.25098C16.3086 7.25098 16.98 7.88574 16.98 8.81348C16.98 9.74121 16.3086 10.4248 15.3442 10.4248Z" fill="#5ac8f5"/>
 </g>
</svg>
