<?xml version="1.0" encoding="UTF-8"?>
<!--Generator: Apple Native CoreSVG 175.5-->
<!DOCTYPE svg
PUBLIC "-//W3C//DTD SVG 1.1//EN"
       "http://www.w3.org/Graphics/SVG/1.1/DTD/svg11.dtd">
<svg version="1.1" xmlns="http://www.w3.org/2000/svg" xmlns:xlink="http://www.w3.org/1999/xlink" width="24.9023" height="24.9146">
 <g>
  <rect height="24.9146" opacity="0" width="24.9023" x="0" y="0"/>
  <path d="M12.4512 24.9146C19.2627 24.9146 24.9023 19.2749 24.9023 12.4634C24.9023 5.66406 19.2505 0.012207 12.439 0.012207C5.63965 0.012207 0 5.66406 0 12.4634C0 19.2749 5.65186 24.9146 12.4512 24.9146Z" fill="#5ac8f5" fill-opacity="0.25"/>
  <path d="M7.88574 17.1021C5.96924 17.1021 4.69971 15.918 4.69971 14.209C4.69971 12.854 5.59082 11.7432 6.88477 11.3892C7.10449 8.83789 9.21631 6.86035 11.7554 6.86035C13.6841 6.86035 15.271 7.89795 16.1133 9.63135C18.457 9.59473 20.2026 11.1938 20.2026 13.3423C20.2026 15.4663 18.5059 17.1021 16.333 17.1021Z" fill="#5ac8f5"/>
 </g>
</svg>
