<?xml version="1.0" encoding="UTF-8"?>
<!--Generator: Apple Native CoreSVG 175.5-->
<!DOCTYPE svg
PUBLIC "-//W3C//DTD SVG 1.1//EN"
       "http://www.w3.org/Graphics/SVG/1.1/DTD/svg11.dtd">
<svg version="1.1" xmlns="http://www.w3.org/2000/svg" xmlns:xlink="http://www.w3.org/1999/xlink" width="27.4902" height="28.3325">
 <g>
  <rect height="28.3325" opacity="0" width="27.4902" x="0" y="0"/>
  <path d="M20.6543 12.9761C22.4609 12.9761 23.4497 12.0117 23.4497 10.2295L23.4497 5.98145C23.4497 4.19922 22.4609 3.23486 20.6543 3.23486L11.438 3.23486C9.61914 3.23486 8.64258 4.19922 8.64258 5.98145L8.64258 10.2295C8.64258 12.0117 9.61914 12.9761 11.438 12.9761ZM20.6177 11.1328L11.4746 11.1328C10.8398 11.1328 10.4858 10.7788 10.4858 10.1196L10.4858 6.0791C10.4858 5.43213 10.8398 5.07812 11.4746 5.07812L20.6177 5.07812C21.2524 5.07812 21.6064 5.43213 21.6064 6.0791L21.6064 10.1196C21.6064 10.7788 21.2524 11.1328 20.6177 11.1328ZM20.6543 25.0732C22.4609 25.0732 23.4497 24.1089 23.4497 22.3267L23.4497 18.0786C23.4497 16.3086 22.4609 15.332 20.6543 15.332L2.79541 15.332C0.976562 15.332 0 16.3086 0 18.0786L0 22.3267C0 24.1089 0.976562 25.0732 2.79541 25.0732ZM20.6177 23.23L2.83203 23.23C2.19727 23.23 1.84326 22.876 1.84326 22.229L1.84326 18.1885C1.84326 17.5293 2.19727 17.1753 2.83203 17.1753L20.6177 17.1753C21.2524 17.1753 21.6064 17.5293 21.6064 18.1885L21.6064 22.229C21.6064 22.876 21.2524 23.23 20.6177 23.23Z" fill="#5ac8f5" fill-opacity="0.5"/>
  <path d="M26.5991 28.2959C27.0752 28.2959 27.4902 27.9297 27.4902 27.4536L27.4902 0.842285C27.4902 0.366211 27.0752 0 26.5991 0C26.123 0 25.6958 0.366211 25.6958 0.842285L25.6958 27.4536C25.6958 27.9297 26.123 28.2959 26.5991 28.2959Z" fill="#5ac8f5"/>
 </g>
</svg>
