<?xml version="1.0" encoding="UTF-8"?>
<!--Generator: Apple Native CoreSVG 175.5-->
<!DOCTYPE svg
PUBLIC "-//W3C//DTD SVG 1.1//EN"
       "http://www.w3.org/Graphics/SVG/1.1/DTD/svg11.dtd">
<svg version="1.1" xmlns="http://www.w3.org/2000/svg" xmlns:xlink="http://www.w3.org/1999/xlink" width="32.604" height="29.3091">
 <g>
  <rect height="29.3091" opacity="0" width="32.604" x="0" y="0"/>
  <path d="M6.61522 7.06787C7.94579 7.06787 9.02001 5.98145 9.02001 4.65088C9.02001 3.30811 7.94579 2.24609 6.61522 2.24609C5.27245 2.24609 4.19823 3.30811 4.19823 4.65088C4.19823 5.98145 5.27245 7.06787 6.61522 7.06787ZM5.16259 26.8921C5.76073 26.8921 6.23681 26.416 6.23681 25.8179L6.23681 21.2891C6.23681 21.0815 6.40771 20.9229 6.61522 20.9229C6.81054 20.9229 6.98144 21.0815 6.98144 21.2891L6.98144 25.8179C6.98144 26.416 7.4453 26.8921 8.05565 26.8921C8.6538 26.8921 9.12987 26.416 9.12987 25.8179L9.12987 21.2891L10.6191 21.2891C11.2295 21.2891 11.4858 20.7764 11.3027 20.1904L9.06884 13.0493C8.91015 12.5244 9.61815 12.3169 9.77685 12.854L11.1684 17.3096C11.5957 18.6768 13.5854 18.1396 13.1582 16.748L11.8642 12.6221C11.022 9.91211 10.1308 8.3252 6.98144 8.3252L6.23681 8.3252C3.08739 8.3252 2.18407 9.91211 1.34179 12.6221L0.0600491 16.748C-0.367197 18.1396 1.61034 18.6768 2.0498 17.3096L3.4414 12.854C3.60009 12.3169 4.3081 12.5244 4.1372 13.0493L1.91552 20.1904C1.73241 20.7764 1.98876 21.2891 2.5869 21.2891L4.07616 21.2891L4.07616 25.8179C4.07616 26.416 4.56444 26.8921 5.16259 26.8921ZM27.3916 7.06787C28.7344 7.06787 29.7964 5.98145 29.7964 4.65088C29.7964 3.30811 28.7344 2.24609 27.3916 2.24609C26.061 2.24609 24.9746 3.30811 24.9746 4.65088C24.9746 5.98145 26.061 7.06787 27.3916 7.06787ZM25.939 26.8921C26.5493 26.8921 27.0132 26.416 27.0132 25.8179L27.0132 17.9565C27.0132 17.7612 27.1963 17.5903 27.3916 17.5903C27.5869 17.5903 27.7578 17.7612 27.7578 17.9565L27.7578 25.8179C27.7578 26.416 28.2461 26.8921 28.8442 26.8921C29.4424 26.8921 29.9184 26.416 29.9184 25.8179L29.9184 12.9028C29.9184 12.6953 30.0771 12.5488 30.2847 12.5488C30.48 12.5488 30.6387 12.6953 30.6387 12.9028L30.6387 17.1631C30.6387 17.7246 31.0781 18.1641 31.6274 18.1641C32.1645 18.1641 32.604 17.7246 32.604 17.1631L32.604 12.4023C32.604 9.96094 30.8096 8.3374 28.1973 8.3374L26.5859 8.3374C23.9614 8.3374 22.167 9.96094 22.167 12.4023L22.167 17.1631C22.167 17.7246 22.6064 18.1641 23.1558 18.1641C23.7051 18.1641 24.1445 17.7246 24.1445 17.1631L24.1445 12.9028C24.1445 12.6953 24.3032 12.5488 24.4985 12.5488C24.6938 12.5488 24.8647 12.6953 24.8647 12.9028L24.8647 25.8179C24.8647 26.416 25.3408 26.8921 25.939 26.8921ZM17.3208 29.2969C17.8701 29.2969 18.3096 28.894 18.3096 28.3447L18.3096 0.952148C18.3096 0.402832 17.8701 0 17.3208 0C16.7715 0 16.3442 0.402832 16.3442 0.952148L16.3442 28.3447C16.3442 28.894 16.7715 29.2969 17.3208 29.2969Z" fill="#5ac8f5"/>
 </g>
</svg>
