<?xml version="1.0" encoding="UTF-8"?>
<!--Generator: Apple Native CoreSVG 175.5-->
<!DOCTYPE svg
PUBLIC "-//W3C//DTD SVG 1.1//EN"
       "http://www.w3.org/Graphics/SVG/1.1/DTD/svg11.dtd">
<svg version="1.1" xmlns="http://www.w3.org/2000/svg" xmlns:xlink="http://www.w3.org/1999/xlink" width="31.8403" height="25.1343">
 <g>
  <rect height="25.1343" opacity="0" width="31.8403" x="0" y="0"/>
  <path d="M13.3789 15.3442C17.041 15.3442 19.873 12.4512 19.873 8.38623C19.873 6.45752 19.3115 4.73633 18.3105 3.38135L15.8936 5.81055C16.5039 6.56738 16.8701 7.53174 16.8701 8.58154C16.8701 10.8276 15.2954 12.439 13.2568 12.439C11.6089 12.439 10.3149 11.3647 10.3149 10.1074C10.3149 9.68018 10.6567 9.41162 11.0229 9.41162C11.3159 9.41162 11.5845 9.59473 11.6943 9.99756C11.853 10.5957 12.3657 11.0474 13.1836 11.0474C14.4897 11.0474 15.3076 10.1196 15.3076 8.6792C15.3076 6.9458 13.8428 5.60303 11.9507 5.60303C9.63135 5.60303 7.70264 7.58057 7.70264 10.1074C7.70264 13.0371 10.0952 15.3442 13.3789 15.3442ZM11.9385 4.00391C12.915 4.01611 13.9526 4.28467 14.7827 4.80957L17.3218 2.28271C15.9546 1.01318 14.0869 0.20752 11.9385 0.0610352ZM8.17871 5.40771C8.83789 4.84619 9.60693 4.43115 10.4492 4.19922L10.4492 0.0244141C8.30078 0.134277 6.35986 0.817871 4.73633 1.94092ZM0.183105 9.33838L6.17676 9.33838C6.26221 8.3252 6.65283 7.32422 7.20215 6.51855L3.57666 2.86865C1.81885 4.47998 0.610352 6.71387 0.183105 9.33838ZM0 11.499C0 14.4653 0.817871 17.0898 2.29492 19.2383L7.44629 14.0625C6.73828 13.1104 6.28662 11.9995 6.15234 10.8154L0.012207 10.8154C0 11.0596 0 11.2793 0 11.499ZM3.19824 20.4224C5.34668 22.8516 8.45947 24.4751 12.2437 24.9634L12.2437 16.8457C10.7666 16.6504 9.46045 16.04 8.45947 15.1367ZM13.7329 25.1099C14.0625 25.1343 14.4043 25.1343 14.7583 25.1343C18.4204 25.1343 21.7041 24.0723 24.4141 22.2412L17.8101 15.6738C16.7114 16.394 15.3442 16.8701 13.7329 16.9312ZM25.5981 21.3745C28.6987 18.8721 30.8838 15.2344 31.7993 11.2427C32.0312 10.2295 31.2378 9.61914 30.4321 9.61914L21.3623 9.61914C21.228 11.3281 20.4346 13.2812 18.9575 14.7339Z" fill="#5ac8f5"/>
 </g>
</svg>
