<?xml version="1.0" encoding="UTF-8"?>
<!--Generator: Apple Native CoreSVG 175.5-->
<!DOCTYPE svg
PUBLIC "-//W3C//DTD SVG 1.1//EN"
       "http://www.w3.org/Graphics/SVG/1.1/DTD/svg11.dtd">
<svg version="1.1" xmlns="http://www.w3.org/2000/svg" xmlns:xlink="http://www.w3.org/1999/xlink" width="30.7251" height="32.4829">
 <g>
  <rect height="32.4829" opacity="0" width="30.7251" x="0" y="0"/>
  <path d="M15.3564 32.4829C15.8325 32.4829 16.4429 32.2266 16.9312 32.0557L23.2788 29.7241C23.7549 29.5532 23.938 29.126 23.938 28.8452C23.938 28.2593 23.5229 27.7588 22.876 27.7588C22.5708 27.7588 22.1313 27.9297 21.8506 28.0396L14.6118 30.7373L16.1255 30.7373L8.87451 28.0396C8.59375 27.9297 8.17871 27.7588 7.86133 27.7588C7.25098 27.7588 6.79932 28.2349 6.79932 28.8452C6.79932 29.126 6.97021 29.5532 7.4585 29.7241L13.7939 32.0557C14.3066 32.2388 14.8926 32.4829 15.3564 32.4829ZM3.83301 25.8789L26.8921 25.8789C29.4312 25.8789 30.7251 24.6094 30.7251 22.0947L30.7251 10.3638C30.7251 7.86133 29.4312 6.5918 26.8921 6.5918L3.83301 6.5918C1.26953 6.5918 0 7.84912 0 10.3638L0 22.0947C0 24.6094 1.26953 25.8789 3.83301 25.8789ZM4.62646 13.3057C4.28467 13.3057 4.07715 13.0859 4.07715 12.7441L4.07715 11.5845C4.07715 11.2427 4.28467 11.0229 4.62646 11.0229L5.78613 11.0229C6.14014 11.0229 6.35986 11.2427 6.35986 11.5845L6.35986 12.7441C6.35986 13.0859 6.14014 13.3057 5.78613 13.3057ZM8.6792 13.3057C8.3252 13.3057 8.11768 13.0859 8.11768 12.7441L8.11768 11.5845C8.11768 11.2427 8.3252 11.0229 8.6792 11.0229L9.83887 11.0229C10.1807 11.0229 10.4004 11.2427 10.4004 11.5845L10.4004 12.7441C10.4004 13.0859 10.1807 13.3057 9.83887 13.3057ZM12.7319 13.3057C12.3901 13.3057 12.1704 13.0859 12.1704 12.7441L12.1704 11.5845C12.1704 11.2427 12.3901 11.0229 12.7319 11.0229L13.8794 11.0229C14.2334 11.0229 14.4531 11.2427 14.4531 11.5845L14.4531 12.7441C14.4531 13.0859 14.2334 13.3057 13.8794 13.3057ZM16.7847 13.3057C16.4429 13.3057 16.2231 13.0859 16.2231 12.7441L16.2231 11.5845C16.2231 11.2427 16.4429 11.0229 16.7847 11.0229L17.9443 11.0229C18.2861 11.0229 18.5059 11.2427 18.5059 11.5845L18.5059 12.7441C18.5059 13.0859 18.2861 13.3057 17.9443 13.3057ZM20.8374 13.3057C20.4834 13.3057 20.2637 13.0859 20.2637 12.7441L20.2637 11.5845C20.2637 11.2427 20.4834 11.0229 20.8374 11.0229L21.9971 11.0229C22.3389 11.0229 22.5464 11.2427 22.5464 11.5845L22.5464 12.7441C22.5464 13.0859 22.3389 13.3057 21.9971 13.3057ZM24.8901 13.3057C24.5361 13.3057 24.3164 13.0859 24.3164 12.7441L24.3164 11.5845C24.3164 11.2427 24.5361 11.0229 24.8901 11.0229L26.0376 11.0229C26.3916 11.0229 26.5991 11.2427 26.5991 11.5845L26.5991 12.7441C26.5991 13.0859 26.3916 13.3057 26.0376 13.3057ZM4.62646 17.3584C4.28467 17.3584 4.07715 17.1387 4.07715 16.7969L4.07715 15.6372C4.07715 15.2954 4.28467 15.0757 4.62646 15.0757L5.78613 15.0757C6.14014 15.0757 6.35986 15.2954 6.35986 15.6372L6.35986 16.7969C6.35986 17.1387 6.14014 17.3584 5.78613 17.3584ZM8.6792 17.3584C8.3252 17.3584 8.11768 17.1387 8.11768 16.7969L8.11768 15.6372C8.11768 15.2954 8.3252 15.0757 8.6792 15.0757L9.83887 15.0757C10.1807 15.0757 10.4004 15.2954 10.4004 15.6372L10.4004 16.7969C10.4004 17.1387 10.1807 17.3584 9.83887 17.3584ZM12.7319 17.3584C12.3901 17.3584 12.1704 17.1387 12.1704 16.7969L12.1704 15.6372C12.1704 15.2954 12.3901 15.0757 12.7319 15.0757L13.8794 15.0757C14.2334 15.0757 14.4531 15.2954 14.4531 15.6372L14.4531 16.7969C14.4531 17.1387 14.2334 17.3584 13.8794 17.3584ZM16.7847 17.3584C16.4429 17.3584 16.2231 17.1387 16.2231 16.7969L16.2231 15.6372C16.2231 15.2954 16.4429 15.0757 16.7847 15.0757L17.9443 15.0757C18.2861 15.0757 18.5059 15.2954 18.5059 15.6372L18.5059 16.7969C18.5059 17.1387 18.2861 17.3584 17.9443 17.3584ZM20.8374 17.3584C20.4834 17.3584 20.2637 17.1387 20.2637 16.7969L20.2637 15.6372C20.2637 15.2954 20.4834 15.0757 20.8374 15.0757L21.9971 15.0757C22.3389 15.0757 22.5464 15.2954 22.5464 15.6372L22.5464 16.7969C22.5464 17.1387 22.3389 17.3584 21.9971 17.3584ZM24.8901 17.3584C24.5361 17.3584 24.3164 17.1387 24.3164 16.7969L24.3164 15.6372C24.3164 15.2954 24.5361 15.0757 24.8901 15.0757L26.0376 15.0757C26.3916 15.0757 26.5991 15.2954 26.5991 15.6372L26.5991 16.7969C26.5991 17.1387 26.3916 17.3584 26.0376 17.3584ZM4.62646 21.4111C4.28467 21.4111 4.07715 21.1914 4.07715 20.8496L4.07715 19.6899C4.07715 19.3481 4.28467 19.1284 4.62646 19.1284L5.78613 19.1284C6.14014 19.1284 6.35986 19.3481 6.35986 19.6899L6.35986 20.8496C6.35986 21.1914 6.14014 21.4111 5.78613 21.4111ZM8.81348 21.4111C8.37402 21.4111 8.11768 21.1548 8.11768 20.7153L8.11768 19.812C8.11768 19.3848 8.37402 19.1284 8.81348 19.1284L21.8628 19.1284C22.29 19.1284 22.5464 19.3848 22.5464 19.812L22.5464 20.7153C22.5464 21.1548 22.29 21.4111 21.8628 21.4111ZM24.8901 21.4111C24.5361 21.4111 24.3164 21.1914 24.3164 20.8496L24.3164 19.6899C24.3164 19.3481 24.5361 19.1284 24.8901 19.1284L26.0376 19.1284C26.3916 19.1284 26.5991 19.3481 26.5991 19.6899L26.5991 20.8496C26.5991 21.1914 26.3916 21.4111 26.0376 21.4111Z" fill="#5ac8f5"/>
 </g>
</svg>
