<?xml version="1.0" encoding="UTF-8"?>
<!--Generator: Apple Native CoreSVG 175.5-->
<!DOCTYPE svg
PUBLIC "-//W3C//DTD SVG 1.1//EN"
       "http://www.w3.org/Graphics/SVG/1.1/DTD/svg11.dtd">
<svg version="1.1" xmlns="http://www.w3.org/2000/svg" xmlns:xlink="http://www.w3.org/1999/xlink" width="17.9199" height="22.3267">
 <g>
  <rect height="22.3267" opacity="0" width="17.9199" x="0" y="0"/>
  <path d="M3.24707 22.3145C6.67725 22.3145 8.54492 20.5078 9.14307 16.748L10.9253 5.61523C11.3281 3.14941 12.561 2.05078 14.856 2.05078C15.6982 2.05078 16.4062 2.23389 16.9312 2.28271C17.2852 2.29492 17.5415 2.19727 17.7124 2.00195C17.8467 1.87988 17.9199 1.68457 17.9199 1.45264C17.9199 0.915527 17.5415 0.549316 16.9434 0.32959C16.4185 0.134277 15.6006 0 14.7095 0C11.2793 0 9.27734 1.84326 8.69141 5.45654L6.92139 16.4917C6.49414 19.1284 5.3833 20.2393 3.05176 20.2393C2.6123 20.2393 2.19727 20.166 1.96533 20.1172C1.62354 20.0439 1.29395 19.9829 0.976562 19.9829C0.354004 19.9829 0 20.3613 0 20.874C0 21.4111 0.32959 21.7896 0.939941 21.9971C1.51367 22.2046 2.28271 22.3145 3.24707 22.3145ZM2.91748 11.4746L15.3931 11.4746C15.9546 11.4746 16.3086 11.145 16.3086 10.6079C16.3086 10.0464 15.9546 9.69238 15.3931 9.69238L2.91748 9.69238C2.34375 9.69238 1.98975 10.0464 1.98975 10.6079C1.98975 11.1328 2.34375 11.4746 2.91748 11.4746Z" fill="#5ac8f5"/>
 </g>
</svg>
