<?xml version="1.0" encoding="UTF-8"?>
<!--Generator: Apple Native CoreSVG 175.5-->
<!DOCTYPE svg
PUBLIC "-//W3C//DTD SVG 1.1//EN"
       "http://www.w3.org/Graphics/SVG/1.1/DTD/svg11.dtd">
<svg version="1.1" xmlns="http://www.w3.org/2000/svg" xmlns:xlink="http://www.w3.org/1999/xlink" width="25.6592" height="19.0063">
 <g>
  <rect height="19.0063" opacity="0" width="25.6592" x="0" y="0"/>
  <path d="M12.8296 4.19922C16.1499 4.19922 16.687 1.72119 18.6279 1.72119C20.6055 1.72119 20.9229 4.19922 24.7314 4.19922L24.7925 4.19922C25.2686 4.19922 25.6592 3.80859 25.6592 3.33252C25.6592 2.85645 25.2686 2.47803 24.7925 2.47803L24.7314 2.47803C23.4131 2.47803 22.6807 1.92871 21.7651 1.28174C20.9717 0.708008 19.9829 0 18.6279 0C17.2241 0 16.2231 0.744629 15.4297 1.34277C14.5874 1.97754 13.916 2.47803 12.8296 2.47803C11.731 2.47803 11.0718 1.97754 10.2295 1.34277C9.43604 0.744629 8.43506 0 7.03125 0C5.67627 0 4.6875 0.708008 3.89404 1.28174C2.97852 1.92871 2.23389 2.47803 0.927734 2.47803L0.866699 2.47803C0.378418 2.47803 0 2.85645 0 3.33252C0 3.80859 0.378418 4.19922 0.866699 4.19922L0.927734 4.19922C4.72412 4.19922 5.05371 1.72119 7.03125 1.72119C8.97217 1.72119 9.49707 4.19922 12.8296 4.19922ZM12.8296 11.5723C16.1499 11.5723 16.687 9.09424 18.6279 9.09424C20.6055 9.09424 20.9229 11.5723 24.7314 11.5723L24.7925 11.5723C25.2686 11.5723 25.6592 11.1938 25.6592 10.7178C25.6592 10.2417 25.2686 9.85107 24.7925 9.85107L24.7314 9.85107C23.4131 9.85107 22.6807 9.31396 21.7651 8.65479C20.9717 8.08105 19.9829 7.37305 18.6279 7.37305C17.2241 7.37305 16.2231 8.12988 15.4297 8.71582C14.5874 9.35059 13.916 9.85107 12.8296 9.85107C11.731 9.85107 11.0718 9.35059 10.2295 8.71582C9.43604 8.12988 8.43506 7.37305 7.03125 7.37305C5.67627 7.37305 4.6875 8.08105 3.89404 8.65479C2.97852 9.31396 2.23389 9.85107 0.927734 9.85107L0.866699 9.85107C0.378418 9.85107 0 10.2417 0 10.7178C0 11.1938 0.378418 11.5723 0.866699 11.5723L0.927734 11.5723C4.72412 11.5723 5.05371 9.09424 7.03125 9.09424C8.97217 9.09424 9.49707 11.5723 12.8296 11.5723ZM12.8296 18.9575C16.1499 18.9575 16.687 16.4795 18.6279 16.4795C20.6055 16.4795 20.9229 18.9575 24.7314 18.9575L24.7925 18.9575C25.2686 18.9575 25.6592 18.5669 25.6592 18.0908C25.6592 17.6147 25.2686 17.2363 24.7925 17.2363L24.7314 17.2363C23.4131 17.2363 22.6807 16.687 21.7651 16.04C20.9717 15.4541 19.9829 14.7583 18.6279 14.7583C17.2241 14.7583 16.2231 15.5029 15.4297 16.0889C14.5874 16.7358 13.916 17.2363 12.8296 17.2363C11.731 17.2363 11.0718 16.7358 10.2295 16.0889C9.43604 15.5029 8.43506 14.7583 7.03125 14.7583C5.67627 14.7583 4.6875 15.4541 3.89404 16.04C2.97852 16.687 2.23389 17.2363 0.927734 17.2363L0.866699 17.2363C0.378418 17.2363 0 17.6147 0 18.0908C0 18.5669 0.378418 18.9575 0.866699 18.9575L0.927734 18.9575C4.72412 18.9575 5.05371 16.4795 7.03125 16.4795C8.97217 16.4795 9.49707 18.9575 12.8296 18.9575Z" fill="#5ac8f5"/>
 </g>
</svg>
