<?xml version="1.0" encoding="UTF-8"?>
<!--Generator: Apple Native CoreSVG 175.5-->
<!DOCTYPE svg
PUBLIC "-//W3C//DTD SVG 1.1//EN"
       "http://www.w3.org/Graphics/SVG/1.1/DTD/svg11.dtd">
<svg version="1.1" xmlns="http://www.w3.org/2000/svg" xmlns:xlink="http://www.w3.org/1999/xlink" width="29.5166" height="22.4976">
 <g>
  <rect height="22.4976" opacity="0" width="29.5166" x="0" y="0"/>
  <path d="M10.498 22.4976L19.0308 22.4976C26.2939 22.4976 29.5166 19.165 29.5166 12.3169L29.5166 3.80859C29.5166 1.29395 28.2349 0.0244141 25.6836 0.0244141L3.83301 0.0244141C1.28174 0.0244141 0 1.28174 0 3.80859L0 12.3169C0 19.165 3.22266 22.4976 10.498 22.4976ZM10.498 20.5078C4.56543 20.5078 1.96533 17.9077 1.96533 12.439L1.96533 3.90625C1.96533 2.63672 2.63672 1.98975 3.85742 1.98975L25.6592 1.98975C26.8677 1.98975 27.5513 2.63672 27.5513 3.90625L27.5513 12.439C27.5513 17.9077 24.9512 20.5078 19.0186 20.5078Z" fill="#5ac8f5" fill-opacity="0.5"/>
  <path d="M9.46045 16.7358L15.0757 16.7358C15.5518 16.7358 15.8936 16.4307 15.8936 15.9302C15.8936 15.4297 15.5518 15.1367 15.0757 15.1367L10.437 15.1367L10.437 6.56738C10.437 5.88379 10.0952 5.46875 9.46045 5.46875C8.82568 5.46875 8.49609 5.9082 8.49609 6.56738L8.49609 15.6372C8.49609 16.2842 8.82568 16.7358 9.46045 16.7358ZM19.9463 17.0166C20.5688 17.0166 20.9229 16.6016 20.9229 15.918L20.9229 6.57959C20.9229 5.87158 20.5444 5.48096 19.8975 5.48096C19.4458 5.48096 19.1284 5.60303 18.6035 5.95703L16.4062 7.44629C16.1377 7.6416 16.0278 7.82471 16.0278 8.12988C16.0278 8.5083 16.333 8.8623 16.7236 8.8623C16.9067 8.8623 17.041 8.83789 17.3096 8.64258L18.8965 7.60498L18.9819 7.60498L18.9819 15.918C18.9819 16.6016 19.3359 17.0166 19.9463 17.0166Z" fill="#5ac8f5"/>
 </g>
</svg>
