<?xml version="1.0" encoding="UTF-8"?>
<!--Generator: Apple Native CoreSVG 175.5-->
<!DOCTYPE svg
PUBLIC "-//W3C//DTD SVG 1.1//EN"
       "http://www.w3.org/Graphics/SVG/1.1/DTD/svg11.dtd">
<svg version="1.1" xmlns="http://www.w3.org/2000/svg" xmlns:xlink="http://www.w3.org/1999/xlink" width="24.9023" height="24.9146">
 <g>
  <rect height="24.9146" opacity="0" width="24.9023" x="0" y="0"/>
  <path d="M12.4512 24.9146C19.2627 24.9146 24.9023 19.2749 24.9023 12.4634C24.9023 5.66406 19.2505 0.012207 12.439 0.012207C5.63965 0.012207 0 5.66406 0 12.4634C0 19.2749 5.65186 24.9146 12.4512 24.9146Z" fill="#5ac8f5" fill-opacity="0.25"/>
  <path d="M11.2915 17.8955C10.9619 17.8955 10.7056 17.749 10.3882 17.4561L5.0293 12.4268C4.77295 12.1826 4.6875 11.9385 4.6875 11.6943C4.6875 11.4624 4.77295 11.2183 5.0293 10.9741L10.3882 5.98145C10.7422 5.63965 10.9497 5.50537 11.2793 5.50537C11.7554 5.50537 12.0972 5.87158 12.0972 6.32324L12.0972 8.88672L12.2925 8.88672C17.1387 8.88672 19.2749 11.9873 19.2749 17.0044C19.2749 17.5903 18.9209 17.8955 18.5669 17.8955C18.2739 17.8955 17.9688 17.8223 17.7368 17.395C16.5649 15.1855 14.9048 14.5142 12.2925 14.5142L12.0972 14.5142L12.0972 17.1143C12.0972 17.5537 11.7554 17.8955 11.2915 17.8955Z" fill="#5ac8f5"/>
 </g>
</svg>
