<?xml version="1.0" encoding="UTF-8"?>
<!--Generator: Apple Native CoreSVG 175.5-->
<!DOCTYPE svg
PUBLIC "-//W3C//DTD SVG 1.1//EN"
       "http://www.w3.org/Graphics/SVG/1.1/DTD/svg11.dtd">
<svg version="1.1" xmlns="http://www.w3.org/2000/svg" xmlns:xlink="http://www.w3.org/1999/xlink" width="20.3979" height="27.5269">
 <g>
  <rect height="27.5269" opacity="0" width="20.3979" x="0" y="0"/>
  <path d="M1.96533 23.9502L1.96533 3.56445C1.96533 2.56348 2.57568 1.96533 3.62549 1.96533L16.7725 1.96533C17.8101 1.96533 18.4326 2.56348 18.4326 3.56445L18.4326 23.9502C18.4326 24.9512 17.8101 25.5371 16.7725 25.5371L3.62549 25.5371C2.57568 25.5371 1.96533 24.9512 1.96533 23.9502Z" fill="#5ac8f5" fill-opacity="0.25"/>
  <path d="M0 24.2798C0 26.2085 1.35498 27.5024 3.38135 27.5024L17.0166 27.5024C19.043 27.5024 20.3979 26.2085 20.3979 24.2798L20.3979 3.23486C20.3979 1.30615 19.043 0 17.0166 0L3.38135 0C1.35498 0 0 1.30615 0 3.23486ZM1.96533 23.9502L1.96533 3.56445C1.96533 2.56348 2.57568 1.96533 3.62549 1.96533L16.7725 1.96533C17.8101 1.96533 18.4326 2.56348 18.4326 3.56445L18.4326 23.9502C18.4326 24.9512 17.8101 25.5371 16.7725 25.5371L3.62549 25.5371C2.57568 25.5371 1.96533 24.9512 1.96533 23.9502ZM6.73828 24.6094L13.6597 24.6094C14.0015 24.6094 14.2334 24.3774 14.2334 24.0356C14.2334 23.6938 14.0015 23.4741 13.6597 23.4741L6.73828 23.4741C6.40869 23.4741 6.17676 23.6938 6.17676 24.0356C6.17676 24.3774 6.40869 24.6094 6.73828 24.6094Z" fill="#5ac8f5"/>
 </g>
</svg>
