<?xml version="1.0" encoding="UTF-8"?>
<!--Generator: Apple Native CoreSVG 175.5-->
<!DOCTYPE svg
PUBLIC "-//W3C//DTD SVG 1.1//EN"
       "http://www.w3.org/Graphics/SVG/1.1/DTD/svg11.dtd">
<svg version="1.1" xmlns="http://www.w3.org/2000/svg" xmlns:xlink="http://www.w3.org/1999/xlink" width="24.9023" height="24.9146">
 <g>
  <rect height="24.9146" opacity="0" width="24.9023" x="0" y="0"/>
  <path d="M12.4512 24.9023C19.2627 24.9023 24.9023 19.2505 24.9023 12.4512C24.9023 5.63965 19.2505 0 12.439 0C5.63965 0 0 5.63965 0 12.4512C0 19.2505 5.65186 24.9023 12.4512 24.9023ZM9.19189 17.6147C8.59375 17.6147 8.14209 17.1753 8.14209 16.6016C8.14209 16.1133 8.36182 15.8325 8.88672 15.5884L15.2588 12.4512L15.2588 12.3779L8.88672 9.16748C8.37402 8.92334 8.14209 8.61816 8.14209 8.14209C8.14209 7.58057 8.58154 7.14111 9.16748 7.14111C9.44824 7.14111 9.60693 7.20215 9.80225 7.2998L17.3096 11.3403C17.8101 11.6211 18.0664 11.9751 18.0664 12.4512C18.0664 12.9761 17.8345 13.2935 17.3096 13.562L9.80225 17.4683C9.61914 17.5537 9.44824 17.6147 9.19189 17.6147Z" fill="#5ac8f5"/>
 </g>
</svg>
