<?xml version="1.0" encoding="UTF-8"?>
<!--Generator: Apple Native CoreSVG 175.5-->
<!DOCTYPE svg
PUBLIC "-//W3C//DTD SVG 1.1//EN"
       "http://www.w3.org/Graphics/SVG/1.1/DTD/svg11.dtd">
<svg version="1.1" xmlns="http://www.w3.org/2000/svg" xmlns:xlink="http://www.w3.org/1999/xlink" width="28.7842" height="22.7661">
 <g>
  <rect height="22.7661" opacity="0" width="28.7842" x="0" y="0"/>
  <path d="M3.83301 22.7661L24.9512 22.7661C27.5146 22.7661 28.7842 21.4966 28.7842 18.9819L28.7842 4.07715C28.7842 1.5625 27.5146 0.292969 24.9512 0.292969L3.83301 0.292969C1.28174 0.292969 0 1.55029 0 4.07715L0 18.9819C0 21.5088 1.28174 22.7661 3.83301 22.7661ZM3.85742 20.8008C2.63672 20.8008 1.96533 20.1416 1.96533 18.8843L1.96533 4.1748C1.96533 2.90527 2.63672 2.2583 3.85742 2.2583L24.9268 2.2583C26.1353 2.2583 26.8188 2.90527 26.8188 4.1748L26.8188 18.8843C26.8188 20.1416 26.1353 20.8008 24.9268 20.8008Z" fill="#5ac8f5" fill-opacity="0.5"/>
  <path d="M4.69971 11.377L13.3179 11.377C14.0869 11.377 14.3921 11.0596 14.3921 10.2783L14.3921 4.88281C14.3921 4.10156 14.0869 3.78418 13.3179 3.78418L4.69971 3.78418C3.94287 3.78418 3.6377 4.10156 3.6377 4.88281L3.6377 10.2783C3.6377 11.0596 3.94287 11.377 4.69971 11.377Z" fill="#5ac8f5"/>
 </g>
</svg>
