<?xml version="1.0" encoding="UTF-8"?>
<!--Generator: Apple Native CoreSVG 175.5-->
<!DOCTYPE svg
PUBLIC "-//W3C//DTD SVG 1.1//EN"
       "http://www.w3.org/Graphics/SVG/1.1/DTD/svg11.dtd">
<svg version="1.1" xmlns="http://www.w3.org/2000/svg" xmlns:xlink="http://www.w3.org/1999/xlink" width="34.1738" height="30.1392">
 <g>
  <rect height="30.1392" opacity="0" width="34.1738" x="0" y="0"/>
  <path d="M17.0919 22.9736C19.399 22.9736 22.0723 23.6694 24.0743 24.7192C24.648 25.0244 25.2828 24.9023 25.6734 24.4019L33.6568 14.2334C34.4625 13.208 34.316 12.085 33.2906 11.2793C30.422 9.08203 25.2828 7.31201 19.6676 6.87256L19.6676 8.93555C24.0133 9.32617 28.1759 10.6689 31.5328 12.8052C31.8136 13.0005 31.8624 13.1958 31.6427 13.4766L24.6969 22.3267C24.4893 22.583 24.4039 22.583 24.1475 22.4976C21.7428 21.4966 19.2403 20.9351 17.0919 20.9351C14.9312 20.9351 12.441 21.4966 10.0362 22.4976C9.77986 22.583 9.69442 22.583 9.4869 22.3267L2.52889 13.4766C2.32137 13.1958 2.35799 13.0005 2.65096 12.8052C5.99568 10.6689 10.1705 9.32617 14.5162 8.93555L14.5162 6.87256C8.90096 7.31201 3.74959 9.06982 0.880939 11.2915C-0.144452 12.085-0.290936 13.208 0.526935 14.2334L8.49813 24.4019C8.90096 24.9023 9.52352 25.0244 10.0972 24.7192C12.1114 23.6694 14.7847 22.9736 17.0919 22.9736Z" fill="#5ac8f5" fill-opacity="0.5"/>
  <path d="M17.0919 30.1392C18.5811 30.1392 19.8385 28.894 19.8385 27.3926C19.8385 25.8789 18.5933 24.6338 17.0919 24.6338C15.5782 24.6338 14.3331 25.8789 14.3331 27.3926C14.3331 28.9062 15.566 30.1392 17.0919 30.1392ZM17.0919 28.5156C16.4571 28.5156 15.9566 28.0151 15.9566 27.3926C15.9566 26.7578 16.4571 26.2329 17.0919 26.2329C17.7022 26.2329 18.2393 26.77 18.2393 27.3926C18.2393 28.0151 17.7022 28.5156 17.0919 28.5156ZM17.0186 25.3052L6.00789 6.38428C5.73934 5.93262 5.17781 5.74951 4.6407 6.03027C4.14022 6.28662 4.03035 6.90918 4.29891 7.37305L15.2852 26.2329ZM17.0919 17.688C17.629 17.688 18.0684 17.2485 18.0684 16.7114L18.0684 13.5986C18.0684 13.0615 17.629 12.6099 17.0919 12.6099C16.5548 12.6099 16.1031 13.0615 16.1031 13.5986L16.1031 16.7114C16.1031 17.2485 16.5548 17.688 17.0919 17.688ZM17.0919 10.9741C17.629 10.9741 18.0684 10.5225 18.0684 9.98535L18.0684 6.87256C18.0684 6.33545 17.629 5.896 17.0919 5.896C16.5548 5.896 16.1031 6.33545 16.1031 6.87256L16.1031 9.98535C16.1031 10.5225 16.5548 10.9741 17.0919 10.9741ZM3.71297 4.18701C4.17684 4.45557 4.70174 4.32129 5.05574 3.89404C5.72713 3.10059 6.56942 2.49023 7.53377 2.16064C8.05867 1.96533 8.38826 1.51367 8.2784 0.964355C8.14412 0.354004 7.54598 0.0732422 6.82576 0.317383C5.56844 0.744629 4.39656 1.58691 3.49324 2.69775C3.05379 3.23486 3.21248 3.88184 3.71297 4.18701ZM15.7003 4.1626C16.2008 3.85742 16.3228 3.22266 15.8956 2.68555C14.9923 1.57471 13.796 0.744629 12.5753 0.32959C11.8062 0.0610352 11.2325 0.402832 11.1226 0.98877C11.0372 1.52588 11.3424 1.96533 11.8673 2.16064C12.8194 2.49023 13.6617 3.10059 14.3209 3.88184C14.7115 4.3457 15.2242 4.43115 15.7003 4.1626ZM18.4713 4.1626C18.9596 4.43115 19.46 4.3457 19.8629 3.88184C20.5098 3.10059 21.3521 2.49023 22.3043 2.16064C22.8292 1.96533 23.1466 1.52588 23.0489 0.98877C22.939 0.402832 22.3775 0.0610352 21.6085 0.32959C20.3756 0.744629 19.1793 1.57471 18.276 2.68555C17.8487 3.22266 17.9708 3.85742 18.4713 4.1626ZM30.4708 4.18701C30.9713 3.88184 31.13 3.23486 30.6905 2.69775C29.7872 1.58691 28.6031 0.744629 27.3458 0.317383C26.6256 0.0732422 26.0396 0.354004 25.9054 0.964355C25.7833 1.51367 26.1251 1.96533 26.65 2.16064C27.6143 2.49023 28.4566 3.10059 29.1158 3.89404C29.482 4.32129 29.9947 4.45557 30.4708 4.18701Z" fill="#5ac8f5"/>
 </g>
</svg>
