<?xml version="1.0" encoding="UTF-8"?>
<!--Generator: Apple Native CoreSVG 175.5-->
<!DOCTYPE svg
PUBLIC "-//W3C//DTD SVG 1.1//EN"
       "http://www.w3.org/Graphics/SVG/1.1/DTD/svg11.dtd">
<svg version="1.1" xmlns="http://www.w3.org/2000/svg" xmlns:xlink="http://www.w3.org/1999/xlink" width="24.0479" height="15.1001">
 <g>
  <rect height="15.1001" opacity="0" width="24.0479" x="0" y="0"/>
  <path d="M0 7.54395C0 7.83691 0.12207 8.11768 0.366211 8.34961L6.88477 14.7461C7.09229 14.9536 7.40967 15.0757 7.67822 15.0757C8.3252 15.0757 8.75244 14.6362 8.75244 14.0015C8.75244 13.6841 8.65479 13.4521 8.45947 13.2568L5.59082 10.4858L3.30811 8.5083L6.14014 8.63037L17.8955 8.63037L20.7275 8.5083L18.4448 10.4858L15.5884 13.2568C15.3931 13.4521 15.2954 13.6841 15.2954 14.0015C15.2954 14.6362 15.7227 15.0757 16.3696 15.0757C16.6382 15.0757 16.9556 14.9536 17.1631 14.7461L23.6816 8.34961C23.9258 8.11768 24.0479 7.83691 24.0479 7.54395C24.0479 7.23877 23.9258 6.95801 23.6816 6.72607L17.1631 0.32959C16.9556 0.12207 16.6382 0 16.3696 0C15.7227 0 15.2954 0.439453 15.2954 1.07422C15.2954 1.3916 15.3931 1.62354 15.5884 1.81885L18.4448 4.60205L20.7275 6.56738L17.8955 6.44531L6.14014 6.44531L3.30811 6.56738L5.59082 4.60205L8.45947 1.81885C8.65479 1.62354 8.75244 1.3916 8.75244 1.07422C8.75244 0.439453 8.3252 0 7.67822 0C7.40967 0 7.09229 0.12207 6.88477 0.32959L0.366211 6.72607C0.12207 6.95801 0 7.23877 0 7.54395Z" fill="#5ac8f5"/>
 </g>
</svg>
