<?xml version="1.0" encoding="UTF-8"?>
<!--Generator: Apple Native CoreSVG 175.5-->
<!DOCTYPE svg
PUBLIC "-//W3C//DTD SVG 1.1//EN"
       "http://www.w3.org/Graphics/SVG/1.1/DTD/svg11.dtd">
<svg version="1.1" xmlns="http://www.w3.org/2000/svg" xmlns:xlink="http://www.w3.org/1999/xlink" width="30.6885" height="23.2056">
 <g>
  <rect height="23.2056" opacity="0" width="30.6885" x="0" y="0"/>
  <path d="M24.1211 21.2158C27.8076 21.2158 30.6885 18.5181 30.6885 15.1611C30.6885 12.5977 29.2114 10.376 26.8311 9.375C26.8555 3.93066 22.937 0 17.9443 0C14.6362 0 12.2803 1.77002 10.8154 3.90625C7.8125 3.02734 4.54102 5.31006 4.47998 8.72803C1.72119 9.16748 0 11.6333 0 14.6118C0 18.2007 3.13721 21.2158 7.31201 21.2158ZM7.20215 13.9771L11.438 8.49609C11.7065 8.1665 11.9751 8.02002 12.2437 8.02002C12.4756 8.02002 12.6953 8.11768 12.9395 8.23975L18.4204 11.1816L22.6074 8.92334C23.3521 8.52051 24.0234 9.24072 23.4985 9.93652L19.2383 15.4419C18.9819 15.7593 18.7012 15.9058 18.4204 15.9058C18.2129 15.9058 17.9932 15.8203 17.7368 15.686L12.2559 12.7563L8.09326 15.0146C7.37305 15.3931 6.62842 14.7217 7.20215 13.9771Z" fill="#5ac8f5"/>
 </g>
</svg>
