<?xml version="1.0" encoding="UTF-8"?>
<!--Generator: Apple Native CoreSVG 175.5-->
<!DOCTYPE svg
PUBLIC "-//W3C//DTD SVG 1.1//EN"
       "http://www.w3.org/Graphics/SVG/1.1/DTD/svg11.dtd">
<svg version="1.1" xmlns="http://www.w3.org/2000/svg" xmlns:xlink="http://www.w3.org/1999/xlink" width="24.1307" height="24.1569">
 <g>
  <rect height="24.1569" opacity="0" width="24.1307" x="0" y="0"/>
  <path d="M1.90838 22.2164C4.49627 24.7921 8.12175 24.8165 10.9904 21.9479L21.9645 10.9737C24.821 8.11728 24.7966 4.4918 22.2209 1.90391C19.633-0.671778 16.0075-0.683985 13.1511 2.17246L2.17693 13.1344C-0.691722 16.003-0.667308 19.6285 1.90838 22.2164ZM3.20232 20.9347C1.35906 19.1036 1.59099 16.5401 3.58074 14.526L14.5304 3.57627C16.508 1.58652 19.0837 1.3668 20.9391 3.19785C22.7824 5.0167 22.5749 7.59238 20.5485 9.60654L9.61101 20.5562C7.63347 22.5338 5.04558 22.7657 3.20232 20.9347ZM7.82879 9.11826L15.0431 16.3326L16.3493 15.0265L9.12273 7.81211Z" fill="#5ac8f5"/>
 </g>
</svg>
