<?xml version="1.0" encoding="UTF-8"?>
<!--Generator: Apple Native CoreSVG 175.5-->
<!DOCTYPE svg
PUBLIC "-//W3C//DTD SVG 1.1//EN"
       "http://www.w3.org/Graphics/SVG/1.1/DTD/svg11.dtd">
<svg version="1.1" xmlns="http://www.w3.org/2000/svg" xmlns:xlink="http://www.w3.org/1999/xlink" width="24.9023" height="24.9146">
 <g>
  <rect height="24.9146" opacity="0" width="24.9023" x="0" y="0"/>
  <path d="M12.4512 24.9023C19.2627 24.9023 24.9023 19.2505 24.9023 12.4512C24.9023 5.63965 19.2505 0 12.439 0C5.63965 0 0 5.63965 0 12.4512C0 19.2505 5.65186 24.9023 12.4512 24.9023ZM15.4419 20.2271C15.1123 20.2271 14.8682 20.0684 14.7217 19.7388L13.0981 16.4307C13.0005 16.2842 12.9639 16.2109 12.8296 16.0522L11.3403 14.1846C10.9253 13.6597 10.5347 13.0615 10.5957 12.2192L10.73 10.5347C10.7422 10.2783 10.498 10.1318 10.2905 10.3149L9.55811 10.9619L9.41162 12.8296C9.375 13.3179 9.09424 13.5742 8.66699 13.5498C8.22754 13.5132 7.97119 13.208 8.02002 12.7319L8.1543 11.0229C8.20312 10.5469 8.3374 10.2417 8.69141 9.8877L9.87549 8.74023C10.6445 8.00781 11.3403 7.61719 12.1338 7.61719C13.2446 7.61719 13.9038 8.38623 13.8306 9.5459L13.6841 11.5967C13.6353 12.3413 13.4766 12.8418 13.2324 13.6353L13.1592 13.8916L14.0869 15.1978C14.209 15.3687 14.3677 15.6006 14.5142 15.918L16.0278 19.0063C16.1255 19.2017 16.1865 19.3604 16.1865 19.5312C16.1865 19.9341 15.8691 20.2271 15.4419 20.2271ZM8.45947 20.2393C8.06885 20.2393 7.80029 19.9585 7.80029 19.5557C7.80029 19.2871 7.94678 19.104 8.12988 18.8843L10.3149 16.2964L10.6567 14.5996L11.853 16.1011L11.731 16.6138C11.6577 16.8701 11.6455 16.8701 11.3892 17.1875L9.0332 19.9829C8.89893 20.1538 8.6792 20.2393 8.45947 20.2393ZM15.8691 11.9751C15.4297 11.9751 15.2344 11.9019 14.9902 11.6577L14.4775 11.145L14.5996 9.33838L15.7227 10.5835L17.688 10.5835C18.1763 10.5835 18.4814 10.8521 18.4814 11.2793C18.4814 11.7065 18.1885 11.9751 17.688 11.9751ZM13.0981 6.87256C12.2314 6.87256 11.5112 6.14014 11.5112 5.27344C11.5112 4.38232 12.2192 3.66211 13.0981 3.66211C13.9893 3.66211 14.7095 4.38232 14.7095 5.27344C14.7095 6.12793 13.9771 6.87256 13.0981 6.87256Z" fill="#5ac8f5"/>
 </g>
</svg>
