<?xml version="1.0" encoding="UTF-8"?>
<!--Generator: Apple Native CoreSVG 175.5-->
<!DOCTYPE svg
PUBLIC "-//W3C//DTD SVG 1.1//EN"
       "http://www.w3.org/Graphics/SVG/1.1/DTD/svg11.dtd">
<svg version="1.1" xmlns="http://www.w3.org/2000/svg" xmlns:xlink="http://www.w3.org/1999/xlink" width="23.1567" height="27.5024">
 <g>
  <rect height="27.5024" opacity="0" width="23.1567" x="0" y="0"/>
  <path d="M2.83203 26.4526L9.41162 26.4526C8.91113 25.8789 8.52051 25.2075 8.25195 24.4873L2.91748 24.4873C2.35596 24.4873 1.96533 24.1089 1.96533 23.5229L1.96533 3.75977C1.96533 3.17383 2.35596 2.7832 2.91748 2.7832L18.2617 2.7832C18.8354 2.7832 19.2139 3.17383 19.2139 3.75977L19.2139 14.7705C19.9219 14.9292 20.5688 15.1978 21.1792 15.564L21.1792 3.73535C21.1792 1.98975 20.0439 0.817871 18.3594 0.817871L2.83203 0.817871C1.13525 0.817871 0 1.98975 0 3.73535L0 23.5474C0 25.293 1.13525 26.4526 2.83203 26.4526ZM4.60205 6.06689C5.2002 6.06689 5.67627 5.57861 5.67627 4.98047C5.67627 4.39453 5.2002 3.90625 4.60205 3.90625C4.01611 3.90625 3.52783 4.39453 3.52783 4.98047C3.52783 5.57861 4.01611 6.06689 4.60205 6.06689ZM7.71484 6.06689C8.31299 6.06689 8.78906 5.57861 8.78906 4.98047C8.78906 4.39453 8.31299 3.90625 7.71484 3.90625C7.12891 3.90625 6.65283 4.39453 6.65283 4.98047C6.65283 5.57861 7.12891 6.06689 7.71484 6.06689ZM1.07422 8.78906L20.1172 8.78906L20.1172 7.18994L1.07422 7.18994ZM7.71484 11.4868L13.4766 11.4868C13.8428 11.4868 14.0869 11.2305 14.0869 10.8643C14.0869 10.498 13.8428 10.2539 13.4766 10.2539L7.71484 10.2539C7.34863 10.2539 7.09229 10.498 7.09229 10.8643C7.09229 11.2305 7.34863 11.4868 7.71484 11.4868ZM0.90332 23.0713L7.77588 23.0713C7.66602 22.4854 7.65381 22.0215 7.69043 21.4722L0.90332 21.4722Z" fill="#5ac8f5" fill-opacity="0.5"/>
  <path d="M14.856 27.5024C18.0664 27.5024 20.6543 24.9268 20.6543 21.7041C20.6543 18.4692 18.0664 15.8936 14.856 15.8936C11.6333 15.8936 9.04541 18.4692 9.04541 21.7041C9.04541 24.9268 11.6333 27.5024 14.856 27.5024ZM14.856 26.2695C12.2314 26.2695 10.2783 24.3042 10.2783 21.7041C10.2783 19.0918 12.2314 17.1265 14.856 17.1265C17.4561 17.1265 19.4214 19.0918 19.4214 21.7041C19.4214 24.3042 17.4561 26.2695 14.856 26.2695ZM14.856 25.354C16.8579 25.354 18.5059 23.7183 18.5059 21.7041C18.5059 19.6899 16.8579 18.0542 14.856 18.0542C12.8296 18.0542 11.1938 19.6899 11.1938 21.7041C11.1938 23.7183 12.8296 25.354 14.856 25.354ZM14.856 24.2432C13.3667 24.2432 12.3047 23.1812 12.3047 21.7041C12.3047 20.2148 13.3667 19.165 14.856 19.165C16.3452 19.165 17.395 20.2148 17.395 21.7041C17.395 23.1934 16.333 24.2432 14.856 24.2432ZM17.3584 27.5024C20.5688 27.5024 23.1567 24.9268 23.1567 21.7041C23.1567 18.4692 20.5688 15.8936 17.3584 15.8936C16.6626 15.8936 16.0034 16.0156 15.4053 16.2476L16.8213 17.1631C17.0044 17.1387 17.1753 17.1265 17.3584 17.1265C19.9707 17.1265 21.9238 19.0918 21.9238 21.7041C21.9238 24.3042 19.9707 26.2695 17.3584 26.2695C17.1753 26.2695 16.9922 26.2573 16.8213 26.2451L15.8081 27.2949C16.3086 27.4414 16.8213 27.5024 17.3584 27.5024Z" fill="#5ac8f5"/>
 </g>
</svg>
