<?xml version="1.0" encoding="UTF-8"?>
<!--Generator: Apple Native CoreSVG 175.5-->
<!DOCTYPE svg
PUBLIC "-//W3C//DTD SVG 1.1//EN"
       "http://www.w3.org/Graphics/SVG/1.1/DTD/svg11.dtd">
<svg version="1.1" xmlns="http://www.w3.org/2000/svg" xmlns:xlink="http://www.w3.org/1999/xlink" width="24.9023" height="24.9146">
 <g>
  <rect height="24.9146" opacity="0" width="24.9023" x="0" y="0"/>
  <path d="M12.4512 24.9023C19.2627 24.9023 24.9023 19.2505 24.9023 12.4512C24.9023 5.63965 19.2505 0 12.439 0C5.63965 0 0 5.63965 0 12.4512C0 19.2505 5.65186 24.9023 12.4512 24.9023ZM14.0869 18.1885C13.5132 18.1885 13.1714 17.7856 13.1714 17.1265L13.1714 15.8447L8.65479 15.8447C7.84912 15.8447 7.33643 15.3564 7.33643 14.6118C7.33643 14.2334 7.43408 13.9282 7.69043 13.501C8.72803 11.8042 10.2783 9.50928 11.5845 7.53174C12.085 6.7749 12.6343 6.45752 13.5132 6.45752C14.4287 6.45752 15.0391 6.99463 15.0391 7.78809L15.0391 14.1846L15.9912 14.1846C16.5039 14.1846 16.8335 14.5264 16.8335 15.0269C16.8335 15.5151 16.4917 15.8447 15.9912 15.8447L15.0391 15.8447L15.0391 17.1265C15.0391 17.7979 14.6973 18.1885 14.0869 18.1885ZM13.1714 14.1846L13.1714 8.09326L13.0737 8.09326C11.7676 10.083 10.1685 12.4634 9.2041 14.1113L9.2041 14.1846Z" fill="#5ac8f5"/>
 </g>
</svg>
