<?xml version="1.0" encoding="UTF-8"?>
<!--Generator: Apple Native CoreSVG 175.5-->
<!DOCTYPE svg
PUBLIC "-//W3C//DTD SVG 1.1//EN"
       "http://www.w3.org/Graphics/SVG/1.1/DTD/svg11.dtd">
<svg version="1.1" xmlns="http://www.w3.org/2000/svg" xmlns:xlink="http://www.w3.org/1999/xlink" width="22.4731" height="22.4976">
 <g>
  <rect height="22.4976" opacity="0" width="22.4731" x="0" y="0"/>
  <path d="M3.83301 22.4976L18.6401 22.4976C21.2036 22.4976 22.4731 21.228 22.4731 18.7134L22.4731 3.80859C22.4731 1.29395 21.2036 0.0244141 18.6401 0.0244141L3.83301 0.0244141C1.28174 0.0244141 0 1.28174 0 3.80859L0 18.7134C0 21.2402 1.28174 22.4976 3.83301 22.4976ZM3.85742 20.5322C2.63672 20.5322 1.96533 19.8853 1.96533 18.6157L1.96533 3.90625C1.96533 2.63672 2.63672 1.98975 3.85742 1.98975L18.6157 1.98975C19.8242 1.98975 20.5078 2.63672 20.5078 3.90625L20.5078 18.6157C20.5078 19.8853 19.8242 20.5322 18.6157 20.5322ZM6.88477 5.54199L3.86963 8.61816C3.73535 8.77686 3.62549 9.00879 3.62549 9.17969C3.62549 9.63135 3.96729 9.97314 4.41895 9.97314C4.62646 9.97314 4.82178 9.87549 4.96826 9.729L6.22559 8.42285L6.68945 7.92236L6.66504 8.52051L6.66504 16.4307C6.66504 16.8701 7.00684 17.1997 7.4585 17.1997C7.92236 17.1997 8.26416 16.8701 8.26416 16.4307L8.26416 8.5083L8.22754 7.92236L8.70361 8.42285L9.96094 9.74121C10.1074 9.8877 10.3027 9.97314 10.5103 9.97314C10.9619 9.97314 11.2915 9.64355 11.2915 9.17969C11.2915 8.98438 11.1816 8.75244 11.0474 8.61816L8.04443 5.54199C7.75146 5.23682 7.23877 5.18799 6.88477 5.54199ZM15.6128 16.9678L18.6035 13.9038C18.75 13.7451 18.8599 13.5254 18.8599 13.3301C18.8599 12.8662 18.5425 12.5488 18.0786 12.5488C17.8589 12.5488 17.6514 12.6343 17.5171 12.7808L16.2598 14.0747L15.7959 14.5752L15.8203 14.0015L15.8203 6.0791C15.8203 5.62744 15.4785 5.29785 15.0269 5.29785C14.5752 5.29785 14.2334 5.62744 14.2334 6.0791L14.2334 14.0137L14.2578 14.5874L13.7939 14.0747L12.5366 12.7808C12.3779 12.6221 12.1948 12.5488 11.9751 12.5488C11.5112 12.5488 11.2061 12.8662 11.2061 13.3301C11.2061 13.5132 11.2915 13.7329 11.438 13.9038L14.4409 16.9678C14.7217 17.2607 15.2832 17.3096 15.6128 16.9678Z" fill="#5ac8f5"/>
 </g>
</svg>
