<?xml version="1.0" encoding="UTF-8"?>
<!--Generator: Apple Native CoreSVG 175.5-->
<!DOCTYPE svg
PUBLIC "-//W3C//DTD SVG 1.1//EN"
       "http://www.w3.org/Graphics/SVG/1.1/DTD/svg11.dtd">
<svg version="1.1" xmlns="http://www.w3.org/2000/svg" xmlns:xlink="http://www.w3.org/1999/xlink" width="24.9023" height="25.2319">
 <g>
  <rect height="25.2319" opacity="0" width="24.9023" x="0" y="0"/>
  <path d="M0.146484 19.3726L0.146484 23.0713C0.146484 24.5483 0.854492 25.2319 2.35596 25.2319L6.26221 25.2319C3.58887 23.938 1.59912 22.0093 0.146484 19.3726ZM24.8047 19.3726C23.3521 22.0093 21.3623 23.938 18.7012 25.2319L22.5952 25.2319C24.0967 25.2319 24.8047 24.5483 24.8047 23.0713ZM12.4512 25.061C19.2627 25.061 24.9023 19.4092 24.9023 12.6099C24.9023 5.79834 19.2505 0.158691 12.439 0.158691C5.63965 0.158691 0 5.79834 0 12.6099C0 19.4092 5.65186 25.061 12.4512 25.061ZM12.4512 22.9858C6.68945 22.9858 2.0874 18.3716 2.0874 12.6099C2.0874 6.84814 6.67725 2.23389 12.439 2.23389C18.2007 2.23389 22.8271 6.84814 22.8271 12.6099C22.8271 18.3716 18.2129 22.9858 12.4512 22.9858Z" fill="#5ac8f5" fill-opacity="0.5"/>
  <path d="M8.26416 9.61914L11.8896 13.2446C12.2314 13.5986 12.7563 13.5864 13.0981 13.2446L18.6646 7.67822C19.0063 7.34863 19.0186 6.81152 18.6646 6.48193C18.3105 6.15234 17.8101 6.14014 17.4683 6.48193L12.4878 11.4624L9.47266 8.42285C9.11865 8.08105 8.60596 8.08105 8.26416 8.42285C7.93457 8.75244 7.92236 9.27734 8.26416 9.61914Z" fill="#5ac8f5"/>
 </g>
</svg>
