<?xml version="1.0" encoding="UTF-8"?>
<!--Generator: Apple Native CoreSVG 175.5-->
<!DOCTYPE svg
PUBLIC "-//W3C//DTD SVG 1.1//EN"
       "http://www.w3.org/Graphics/SVG/1.1/DTD/svg11.dtd">
<svg version="1.1" xmlns="http://www.w3.org/2000/svg" xmlns:xlink="http://www.w3.org/1999/xlink" width="27.0874" height="24.3042">
 <g>
  <rect height="24.3042" opacity="0" width="27.0874" x="0" y="0"/>
  <path d="M0 15.5273C2.05078 18.8721 7.40967 24.0234 14.624 24.0234C19.2261 24.0234 20.4834 21.8872 23.1567 21.8872C25.3784 21.8872 26.2573 23.3765 26.5991 23.9624C26.6968 24.1455 26.8555 24.2676 26.9653 23.9136C27.0264 23.6572 27.0874 23.3154 27.0874 22.9004C27.0874 21.7285 26.7334 19.4946 24.7803 17.041C25.2075 15.8325 25.2563 14.502 25.2563 13.7207C25.2563 10.1685 23.2544 3.9917 16.626 0C18.0054 1.95312 19.8608 4.90723 19.8608 9.021C19.8608 10.5103 19.4458 12.146 19.1162 12.9639C15.5151 10.8765 8.63037 5.13916 5.87158 2.20947C8.08105 5.60303 10.7056 8.6792 13.6108 11.9019C9.70459 9.43604 6.06689 6.66504 2.67334 3.62549C5.92041 8.34961 10.0342 13.0005 15.4541 17.3828C13.9038 18.2373 12.3047 18.9209 9.58252 18.9209C6.26221 18.9209 2.20947 17.3096 0 15.5273Z" fill="#5ac8f5"/>
 </g>
</svg>
