<?xml version="1.0" encoding="UTF-8"?>
<!--Generator: Apple Native CoreSVG 175.5-->
<!DOCTYPE svg
PUBLIC "-//W3C//DTD SVG 1.1//EN"
       "http://www.w3.org/Graphics/SVG/1.1/DTD/svg11.dtd">
<svg version="1.1" xmlns="http://www.w3.org/2000/svg" xmlns:xlink="http://www.w3.org/1999/xlink" width="26.9775" height="24.9878">
 <g>
  <rect height="24.9878" opacity="0" width="26.9775" x="0" y="0"/>
  <path d="M19.2261 24.9634C19.8975 24.9634 20.3369 24.5728 20.9106 23.5962L26.4771 14.0381C26.8188 13.4521 26.9775 12.9761 26.9775 12.4878C26.9775 11.9873 26.8188 11.5234 26.4771 10.9375L20.9106 1.37939C20.3369 0.402832 19.8975 0.012207 19.2261 0.012207C18.5547 0.012207 18.1152 0.402832 17.5293 1.37939L11.9751 10.9375C11.6211 11.5234 11.4746 11.9873 11.4746 12.4878C11.4746 12.9761 11.6333 13.4521 11.9751 14.0381L17.5293 23.5962C18.1152 24.5728 18.5547 24.9634 19.2261 24.9634ZM19.2261 22.4121C19.165 22.4121 19.1284 22.3755 19.104 22.3145L13.7817 13.0249C13.6597 12.8296 13.5986 12.6587 13.5986 12.4878C13.5986 12.3169 13.6597 12.146 13.7695 11.9507L19.104 2.64893C19.1284 2.6001 19.165 2.56348 19.2261 2.56348C19.2871 2.56348 19.3115 2.6001 19.3481 2.64893L24.6704 11.9507C24.7925 12.146 24.8413 12.3169 24.8413 12.4878C24.8413 12.6587 24.7925 12.8296 24.6704 13.0249L19.3481 22.3145C19.3115 22.3755 19.2871 22.4121 19.2261 22.4121ZM13.1226 24.9756C13.623 24.9756 14.0259 24.6094 14.1968 24.2676L7.6416 12.9517C7.54395 12.7808 7.4707 12.6221 7.4707 12.4878C7.4707 12.3535 7.54395 12.1948 7.6416 12.0239L14.1968 0.708008C14.0259 0.366211 13.623 0 13.1226 0C12.7441 0 12.3169 0.219727 12.0483 0.671387L5.85938 11.1572C5.54199 11.6699 5.33447 12.0361 5.33447 12.4878C5.33447 12.9272 5.54199 13.3057 5.85938 13.8184L12.0605 24.3042C12.3413 24.7681 12.7441 24.9756 13.1226 24.9756ZM7.15332 24.4751C7.59277 24.4751 7.94678 24.1211 7.94678 23.6694C7.94678 23.2178 7.59277 22.8638 7.15332 22.8638C6.70166 22.8638 6.34766 23.2178 6.34766 23.6694C6.34766 24.1211 6.70166 24.4751 7.15332 24.4751ZM5.88379 22.2046C6.33545 22.2046 6.68945 21.8506 6.68945 21.3989C6.68945 20.9595 6.33545 20.6055 5.88379 20.6055C5.44434 20.6055 5.09033 20.9595 5.09033 21.3989C5.09033 21.8506 5.44434 22.2046 5.88379 22.2046ZM4.61426 19.9463C5.06592 19.9463 5.41992 19.5801 5.41992 19.1406C5.41992 18.7012 5.06592 18.335 4.61426 18.335C4.1748 18.335 3.8208 18.7012 3.8208 19.1406C3.8208 19.5801 4.1748 19.9463 4.61426 19.9463ZM3.33252 17.7002C3.78418 17.7002 4.13818 17.334 4.13818 16.8945C4.13818 16.4551 3.78418 16.0889 3.33252 16.0889C2.89307 16.0889 2.53906 16.4551 2.53906 16.8945C2.53906 17.334 2.89307 17.7002 3.33252 17.7002ZM2.0752 15.4175C2.51465 15.4175 2.86865 15.0635 2.86865 14.624C2.86865 14.1724 2.51465 13.8184 2.0752 13.8184C1.63574 13.8184 1.26953 14.1724 1.26953 14.624C1.26953 15.0635 1.63574 15.4175 2.0752 15.4175ZM0.805664 13.1592C1.24512 13.1592 1.59912 12.8052 1.59912 12.3657C1.59912 11.9141 1.24512 11.5601 0.805664 11.5601C0.354004 11.5601 0 11.9141 0 12.3657C0 12.8052 0.354004 13.1592 0.805664 13.1592ZM2.0752 10.9009C2.51465 10.9009 2.86865 10.5469 2.86865 10.1074C2.86865 9.65576 2.51465 9.30176 2.0752 9.30176C1.63574 9.30176 1.26953 9.65576 1.26953 10.1074C1.26953 10.5469 1.63574 10.9009 2.0752 10.9009ZM3.33252 8.63037C3.78418 8.63037 4.13818 8.27637 4.13818 7.82471C4.13818 7.38525 3.78418 7.03125 3.33252 7.03125C2.89307 7.03125 2.53906 7.38525 2.53906 7.82471C2.53906 8.27637 2.89307 8.63037 3.33252 8.63037ZM4.61426 6.38428C5.06592 6.38428 5.41992 6.01807 5.41992 5.57861C5.41992 5.13916 5.06592 4.77295 4.61426 4.77295C4.1748 4.77295 3.8208 5.13916 3.8208 5.57861C3.8208 6.01807 4.1748 6.38428 4.61426 6.38428ZM5.88379 4.10156C6.33545 4.10156 6.68945 3.74756 6.68945 3.30811C6.68945 2.85645 6.33545 2.50244 5.88379 2.50244C5.44434 2.50244 5.09033 2.85645 5.09033 3.30811C5.09033 3.74756 5.44434 4.10156 5.88379 4.10156ZM7.15332 1.84326C7.59277 1.84326 7.94678 1.48926 7.94678 1.0498C7.94678 0.598145 7.59277 0.244141 7.15332 0.244141C6.70166 0.244141 6.34766 0.598145 6.34766 1.0498C6.34766 1.48926 6.70166 1.84326 7.15332 1.84326Z" fill="#5ac8f5"/>
 </g>
</svg>
