<?xml version="1.0" encoding="UTF-8"?>
<!--Generator: Apple Native CoreSVG 175.5-->
<!DOCTYPE svg
PUBLIC "-//W3C//DTD SVG 1.1//EN"
       "http://www.w3.org/Graphics/SVG/1.1/DTD/svg11.dtd">
<svg version="1.1" xmlns="http://www.w3.org/2000/svg" xmlns:xlink="http://www.w3.org/1999/xlink" width="25.2175" height="25.9644">
 <g>
  <rect height="25.9644" opacity="0" width="25.2175" x="0" y="0"/>
  <path d="M4.9914 9.09424L6.95673 9.09424L6.95673 7.34863C6.95673 4.29688 9.41035 1.96533 12.6086 1.96533C15.8068 1.96533 18.2604 4.29688 18.2604 7.34863L18.2604 9.09424L20.2258 9.09424L20.2258 7.34863C20.2258 3.18604 16.9299 0 12.6086 0C8.29951 0 4.9914 3.18604 4.9914 7.34863ZM12.6086 14.917C16.6857 14.917 20.299 13.3057 22.3742 9.10645C21.8371 8.78906 21.1779 8.64258 20.4089 8.64258L4.80829 8.64258C4.03925 8.64258 3.38007 8.78906 2.84296 9.10645C4.93037 13.3057 8.53144 14.917 12.6086 14.917ZM25.1574 21.0449L24.1076 12.0117C24.0344 11.4136 23.8879 10.9375 23.6437 10.5225C21.593 14.2334 18.4435 16.1011 15.05 16.687L15.05 17.5537C15.05 18.3838 14.5617 18.8477 13.7316 18.8477L11.4855 18.8477C10.6555 18.8477 10.1672 18.3838 10.1672 17.5537L10.1672 16.687C6.77363 16.1011 3.62421 14.2456 1.57343 10.5347C1.3415 10.9375 1.19501 11.4136 1.12177 12.0117L0.0597596 21.0449C-0.318658 24.2188 1.10956 25.9521 4.07587 25.9521L21.1413 25.9521C24.1198 25.9521 25.5358 24.2188 25.1574 21.0449Z" fill="#5ac8f5"/>
 </g>
</svg>
