<?xml version="1.0" encoding="UTF-8"?>
<!--Generator: Apple Native CoreSVG 175.5-->
<!DOCTYPE svg
PUBLIC "-//W3C//DTD SVG 1.1//EN"
       "http://www.w3.org/Graphics/SVG/1.1/DTD/svg11.dtd">
<svg version="1.1" xmlns="http://www.w3.org/2000/svg" xmlns:xlink="http://www.w3.org/1999/xlink" width="17.8589" height="29.5288">
 <g>
  <rect height="29.5288" opacity="0" width="17.8589" x="0" y="0"/>
  <path d="M0.976562 2.00195L16.8823 2.00195C17.4194 2.00195 17.8589 1.55029 17.8589 1.01318C17.8589 0.476074 17.4194 0.0366211 16.8823 0.0366211L0.976562 0.0366211C0.439453 0.0366211 0 0.476074 0 1.01318C0 1.55029 0.439453 2.00195 0.976562 2.00195ZM8.93555 16.394C13.8794 16.394 17.4194 15.1367 17.4194 13.3545C17.4194 11.5845 13.855 10.3394 8.93555 10.3394C4.01611 10.3394 0.439453 11.5845 0.439453 13.3545C0.439453 15.1367 4.01611 16.394 8.93555 16.394ZM8.52051 22.2046L9.33838 22.2046C13.4399 22.2046 16.5771 19.812 17.2852 15.8325C15.625 17.0166 12.6587 17.688 8.93555 17.688C5.22461 17.688 2.23389 17.0166 0.585938 15.8203C1.26953 19.812 4.41895 22.2046 8.52051 22.2046ZM8.93555 29.5288C10.9131 29.5288 13.5498 28.9917 14.7095 27.832C15.0269 27.5146 15.0391 27.0996 14.9048 26.6602L13.7085 22.6685C12.3779 23.2544 10.8643 23.5596 9.35059 23.5596L8.47168 23.5596C6.98242 23.5596 5.48096 23.2666 4.15039 22.6929L2.9541 26.6602C2.81982 27.0996 2.84424 27.5146 3.14941 27.832C4.32129 28.9917 6.9458 29.5288 8.93555 29.5288ZM15.979 10.0952L16.4551 3.35693L1.40381 3.35693L1.89209 10.0952C3.6377 9.375 6.09131 8.98438 8.93555 8.98438C11.7798 8.98438 14.2334 9.375 15.979 10.0952Z" fill="#5ac8f5"/>
 </g>
</svg>
