<?xml version="1.0" encoding="UTF-8"?>
<!--Generator: Apple Native CoreSVG 175.5-->
<!DOCTYPE svg
PUBLIC "-//W3C//DTD SVG 1.1//EN"
       "http://www.w3.org/Graphics/SVG/1.1/DTD/svg11.dtd">
<svg version="1.1" xmlns="http://www.w3.org/2000/svg" xmlns:xlink="http://www.w3.org/1999/xlink" width="22.4731" height="22.4976">
 <g>
  <rect height="22.4976" opacity="0" width="22.4731" x="0" y="0"/>
  <path d="M3.83301 22.4976L18.6401 22.4976C21.2036 22.4976 22.4731 21.228 22.4731 18.7134L22.4731 3.80859C22.4731 1.29395 21.2036 0.0244141 18.6401 0.0244141L3.83301 0.0244141C1.28174 0.0244141 0 1.28174 0 3.80859L0 18.7134C0 21.2402 1.28174 22.4976 3.83301 22.4976ZM3.85742 20.5322C2.63672 20.5322 1.96533 19.8853 1.96533 18.6157L1.96533 3.90625C1.96533 2.63672 2.63672 1.98975 3.85742 1.98975L18.6157 1.98975C19.8242 1.98975 20.5078 2.63672 20.5078 3.90625L20.5078 18.6157C20.5078 19.8853 19.8242 20.5322 18.6157 20.5322Z" fill="#5ac8f5" fill-opacity="0.5"/>
  <path d="M11.2427 17.6514C14.7949 17.6514 17.6392 14.7949 17.6392 11.2427C17.6392 7.69043 14.7949 4.83398 11.2427 4.83398C7.67822 4.83398 4.83398 7.69043 4.83398 11.2427C4.83398 14.7949 7.67822 17.6514 11.2427 17.6514ZM8.20312 12.6709C7.42188 12.6709 6.7749 12.0239 6.7749 11.2427C6.7749 10.4614 7.42188 9.81445 8.20312 9.81445C8.99658 9.81445 9.63135 10.4614 9.63135 11.2427C9.63135 12.0239 8.99658 12.6709 8.20312 12.6709ZM14.27 12.6709C13.4888 12.6709 12.8418 12.0239 12.8418 11.2427C12.8418 10.4614 13.4888 9.81445 14.27 9.81445C15.0513 9.81445 15.6982 10.4614 15.6982 11.2427C15.6982 12.0239 15.0513 12.6709 14.27 12.6709ZM11.2427 15.9302C10.4492 15.9302 9.81445 15.271 9.81445 14.502C9.81445 13.7207 10.4492 13.0615 11.2427 13.0615C12.0239 13.0615 12.6587 13.7207 12.6587 14.502C12.6587 15.271 12.0239 15.9302 11.2427 15.9302Z" fill="#5ac8f5"/>
 </g>
</svg>
