<?xml version="1.0" encoding="UTF-8"?>
<!--Generator: Apple Native CoreSVG 175.5-->
<!DOCTYPE svg
PUBLIC "-//W3C//DTD SVG 1.1//EN"
       "http://www.w3.org/Graphics/SVG/1.1/DTD/svg11.dtd">
<svg version="1.1" xmlns="http://www.w3.org/2000/svg" xmlns:xlink="http://www.w3.org/1999/xlink" width="27.4902" height="28.3325">
 <g>
  <rect height="28.3325" opacity="0" width="27.4902" x="0" y="0"/>
  <path d="M6.83594 12.9761L16.0522 12.9761C17.8711 12.9761 18.8477 12.0117 18.8477 10.2295L18.8477 5.98145C18.8477 4.19922 17.8711 3.23486 16.0522 3.23486L6.83594 3.23486C5.0293 3.23486 4.04053 4.19922 4.04053 5.98145L4.04053 10.2295C4.04053 12.0117 5.0293 12.9761 6.83594 12.9761ZM6.87256 11.1328C6.23779 11.1328 5.88379 10.7788 5.88379 10.1196L5.88379 6.0791C5.88379 5.43213 6.23779 5.07812 6.87256 5.07812L16.0156 5.07812C16.6504 5.07812 17.0044 5.43213 17.0044 6.0791L17.0044 10.1196C17.0044 10.7788 16.6504 11.1328 16.0156 11.1328ZM6.83594 25.0732L24.6948 25.0732C26.5137 25.0732 27.4902 24.1089 27.4902 22.3267L27.4902 18.0786C27.4902 16.3086 26.5137 15.332 24.6948 15.332L6.83594 15.332C5.0293 15.332 4.04053 16.3086 4.04053 18.0786L4.04053 22.3267C4.04053 24.1089 5.0293 25.0732 6.83594 25.0732ZM6.87256 23.23C6.23779 23.23 5.88379 22.876 5.88379 22.229L5.88379 18.1885C5.88379 17.5293 6.23779 17.1753 6.87256 17.1753L24.6582 17.1753C25.293 17.1753 25.647 17.5293 25.647 18.1885L25.647 22.229C25.647 22.876 25.293 23.23 24.6582 23.23Z" fill="#5ac8f5" fill-opacity="0.5"/>
  <path d="M0.891113 28.2959C1.37939 28.2959 1.79443 27.9297 1.79443 27.4536L1.79443 0.842285C1.79443 0.366211 1.37939 0 0.891113 0C0.415039 0 0 0.366211 0 0.842285L0 27.4536C0 27.9297 0.415039 28.2959 0.891113 28.2959Z" fill="#5ac8f5"/>
 </g>
</svg>
