<?xml version="1.0" encoding="UTF-8"?>
<!--Generator: Apple Native CoreSVG 175.5-->
<!DOCTYPE svg
PUBLIC "-//W3C//DTD SVG 1.1//EN"
       "http://www.w3.org/Graphics/SVG/1.1/DTD/svg11.dtd">
<svg version="1.1" xmlns="http://www.w3.org/2000/svg" xmlns:xlink="http://www.w3.org/1999/xlink" width="43.6013" height="25.3098">
 <g>
  <rect height="25.3098" opacity="0" width="43.6013" x="0" y="0"/>
  <path d="M22.6441 10.4515L23.7061 12.2826L24.1334 11.5379C24.7071 11.7577 25.5982 12.0628 26.5992 12.6244C29.5533 14.3456 30.713 17.0555 33.7647 18.8255C34.6436 19.3504 35.5958 19.7289 36.316 19.8143C37.1949 19.8998 37.9639 19.6312 38.5133 18.6791L43.4327 10.1708C43.8111 9.49936 43.5181 8.88901 42.8956 8.5228C42.3585 8.21763 41.2232 7.93686 39.9293 7.19224C36.963 5.48325 35.8155 2.76108 32.7638 0.991064C31.8848 0.478368 30.9205 0.0999505 30.2125 0.0145013C29.3336-0.070948 28.5645 0.209814 28.0152 1.16196ZM20.9596 17.0433L19.8853 15.2L14.9049 23.8304C14.6485 24.2699 14.8194 24.8436 15.2467 25.1C15.6983 25.3563 16.2476 25.2098 16.4918 24.7582Z" fill="#5ac8f5" fill-opacity="0.5"/>
  <path d="M28.6988 23.8304L15.5885 1.16196C15.0391 0.209814 14.2701-0.070948 13.3912 0.0145013C12.671 0.0999505 11.7188 0.478368 10.8399 0.991064C7.78817 2.76108 6.6285 5.48325 3.66219 7.19224C2.36825 7.93686 1.2452 8.21763 0.708089 8.5228C0.0733236 8.88901-0.207438 9.49936 0.17098 10.1708L5.07821 18.6791C5.62752 19.6312 6.40877 19.8998 7.27547 19.8143C7.99569 19.7289 8.96004 19.3504 9.82674 18.8255C12.8907 17.0555 14.0382 14.3456 17.0045 12.6244C17.9932 12.0628 18.8966 11.7577 19.4703 11.5379L27.0997 24.7582C27.356 25.2098 27.9054 25.3563 28.357 25.1C28.7843 24.8436 28.943 24.2699 28.6988 23.8304Z" fill="#5ac8f5"/>
 </g>
</svg>
