<?xml version="1.0" encoding="UTF-8"?>
<!--Generator: Apple Native CoreSVG 175.5-->
<!DOCTYPE svg
PUBLIC "-//W3C//DTD SVG 1.1//EN"
       "http://www.w3.org/Graphics/SVG/1.1/DTD/svg11.dtd">
<svg version="1.1" xmlns="http://www.w3.org/2000/svg" xmlns:xlink="http://www.w3.org/1999/xlink" width="24.9023" height="24.9146">
 <g>
  <rect height="24.9146" opacity="0" width="24.9023" x="0" y="0"/>
  <path d="M12.4512 24.9023C19.2627 24.9023 24.9023 19.2505 24.9023 12.4512C24.9023 5.63965 19.2505 0 12.439 0C5.63965 0 0 5.63965 0 12.4512C0 19.2505 5.65186 24.9023 12.4512 24.9023ZM12.4512 22.8271C6.68945 22.8271 2.0874 18.2129 2.0874 12.4512C2.0874 6.68945 6.67725 2.0752 12.439 2.0752C18.2007 2.0752 22.8271 6.68945 22.8271 12.4512C22.8271 18.2129 18.2129 22.8271 12.4512 22.8271Z" fill="#5ac8f5" fill-opacity="0.5"/>
  <path d="M5.81055 17.0532C5.81055 17.627 6.18896 18.0054 6.7627 18.0054L18.396 18.0054C18.7622 18.0054 19.0796 17.7002 19.0796 17.334C19.0796 16.9678 18.7622 16.6626 18.396 16.6626L7.17773 16.6626C7.15332 16.6626 7.16553 16.6504 7.16553 16.6382L7.16553 7.21436C7.16553 6.84814 6.84814 6.54297 6.48193 6.54297C6.11572 6.54297 5.81055 6.84814 5.81055 7.21436ZM6.90918 14.3188L9.5459 11.6699C9.61914 11.5845 9.68018 11.5845 9.74121 11.6699L11.8774 13.855C12.1826 14.1357 12.4756 14.2822 12.8174 14.2822C13.1714 14.2822 13.4888 14.1357 13.7695 13.855L16.0767 11.499L16.9434 12.3901C17.2485 12.6953 17.688 12.5244 17.8101 12.085L18.7012 8.56934C18.811 8.17871 18.4448 7.83691 18.042 7.93457L14.5508 8.80127C14.1113 8.91113 13.9282 9.38721 14.2334 9.66797L15.1123 10.5469L12.915 12.7563C12.854 12.8418 12.8052 12.8418 12.7441 12.7686L10.5835 10.5469C10.3027 10.2539 9.99756 10.1196 9.64355 10.1196C9.27734 10.1196 8.98438 10.2539 8.70361 10.5469L5.95703 13.3545Z" fill="#5ac8f5"/>
 </g>
</svg>
