<?xml version="1.0" encoding="UTF-8"?>
<!--Generator: Apple Native CoreSVG 175.5-->
<!DOCTYPE svg
PUBLIC "-//W3C//DTD SVG 1.1//EN"
       "http://www.w3.org/Graphics/SVG/1.1/DTD/svg11.dtd">
<svg version="1.1" xmlns="http://www.w3.org/2000/svg" xmlns:xlink="http://www.w3.org/1999/xlink" width="22.4731" height="22.4976">
 <g>
  <rect height="22.4976" opacity="0" width="22.4731" x="0" y="0"/>
  <path d="M3.83301 22.4976L18.6401 22.4976C21.2036 22.4976 22.4731 21.228 22.4731 18.7134L22.4731 3.80859C22.4731 1.29395 21.2036 0.0244141 18.6401 0.0244141L3.83301 0.0244141C1.28174 0.0244141 0 1.28174 0 3.80859L0 18.7134C0 21.2402 1.28174 22.4976 3.83301 22.4976ZM3.85742 20.5322C2.63672 20.5322 1.96533 19.8853 1.96533 18.6157L1.96533 3.90625C1.96533 2.63672 2.63672 1.98975 3.85742 1.98975L18.6157 1.98975C19.8242 1.98975 20.5078 2.63672 20.5078 3.90625L20.5078 18.6157C20.5078 19.8853 19.8242 20.5322 18.6157 20.5322ZM11.2427 16.9678C14.0991 16.9678 16.0156 15.3198 16.0156 12.7563L16.0156 6.51855C16.0156 5.83496 15.6616 5.41992 15.0269 5.41992C14.4287 5.41992 14.0625 5.83496 14.0625 6.51855L14.0625 12.5732C14.0625 14.2822 12.9517 15.3564 11.2427 15.3564C9.53369 15.3564 8.41064 14.2822 8.41064 12.5732L8.41064 6.51855C8.41064 5.83496 8.05664 5.41992 7.43408 5.41992C6.82373 5.41992 6.46973 5.83496 6.46973 6.51855L6.46973 12.7563C6.46973 15.3198 8.38623 16.9678 11.2427 16.9678Z" fill="#5ac8f5"/>
 </g>
</svg>
