<?xml version="1.0" encoding="UTF-8"?>
<!--Generator: Apple Native CoreSVG 175.5-->
<!DOCTYPE svg
PUBLIC "-//W3C//DTD SVG 1.1//EN"
       "http://www.w3.org/Graphics/SVG/1.1/DTD/svg11.dtd">
<svg version="1.1" xmlns="http://www.w3.org/2000/svg" xmlns:xlink="http://www.w3.org/1999/xlink" width="22.4731" height="22.4976">
 <g>
  <rect height="22.4976" opacity="0" width="22.4731" x="0" y="0"/>
  <path d="M3.83301 22.4976L18.6401 22.4976C21.2036 22.4976 22.4731 21.228 22.4731 18.7134L22.4731 3.80859C22.4731 1.29395 21.2036 0.0244141 18.6401 0.0244141L3.83301 0.0244141C1.28174 0.0244141 0 1.28174 0 3.80859L0 18.7134C0 21.2402 1.28174 22.4976 3.83301 22.4976ZM7.06787 16.687C5.49316 16.687 4.24805 15.8569 3.86963 14.8071C3.80859 14.6484 3.77197 14.4531 3.77197 14.2334C3.77197 13.8184 4.04053 13.501 4.47998 13.501C4.76074 13.501 5.01709 13.6841 5.2002 14.0503C5.56641 14.8071 6.29883 15.2588 7.15332 15.2588C8.37402 15.2588 9.2041 14.4653 9.2041 13.147C9.2041 11.9873 8.44727 11.1206 7.34863 11.1206C6.79932 11.1206 6.39648 11.3037 5.88379 11.7432C5.46875 12.085 5.23682 12.1948 4.84619 12.1948C4.26025 12.1948 3.91846 11.7554 3.95508 11.084L4.27246 7.16553C4.30908 6.50635 4.74854 6.10352 5.40771 6.10352L9.74121 6.10352C10.1074 6.10352 10.3516 6.39648 10.3516 6.79932C10.3516 7.21436 10.0952 7.50732 9.74121 7.50732L5.57861 7.50732L5.33447 10.7422L5.39551 10.7422C5.76172 10.1685 6.66504 9.75342 7.50732 9.75342C9.46045 9.75342 10.7666 11.1694 10.7666 13.1226C10.7666 15.3198 9.28955 16.687 7.06787 16.687ZM15.7227 16.687C13.5498 16.687 12.1216 14.6118 12.1216 11.2549C12.1216 7.89795 13.5498 5.82275 15.7227 5.82275C17.8955 5.82275 19.3237 7.89795 19.3237 11.2549C19.3237 14.6118 17.8955 16.687 15.7227 16.687ZM15.7227 15.1489C16.9312 15.1489 17.6636 13.6719 17.6636 11.2549C17.6636 8.83789 16.9189 7.36084 15.7227 7.36084C14.5264 7.36084 13.7817 8.83789 13.7817 11.2549C13.7817 13.6719 14.5264 15.1489 15.7227 15.1489Z" fill="#5ac8f5"/>
 </g>
</svg>
