<?xml version="1.0" encoding="UTF-8"?>
<!--Generator: Apple Native CoreSVG 175.5-->
<!DOCTYPE svg
PUBLIC "-//W3C//DTD SVG 1.1//EN"
       "http://www.w3.org/Graphics/SVG/1.1/DTD/svg11.dtd">
<svg version="1.1" xmlns="http://www.w3.org/2000/svg" xmlns:xlink="http://www.w3.org/1999/xlink" width="22.9645" height="26.1108">
 <g>
  <rect height="26.1108" opacity="0" width="22.9645" x="0" y="0"/>
  <path d="M4.26336 5.33447C5.74041 5.33447 6.92449 4.15039 6.92449 2.67334C6.92449 1.19629 5.74041 0 4.26336 0C2.78631 0 1.59002 1.19629 1.59002 2.67334C1.59002 4.15039 2.78631 5.33447 4.26336 5.33447ZM8.46258 25.9155C9.06072 26.0864 9.78093 25.7812 9.97625 25.0488L11.8195 18.3594C12.0514 17.5049 11.6974 16.8945 10.8429 16.6504L5.47185 15.1245L5.88689 10.4126C5.91131 10.2661 6.0822 10.1807 6.19207 10.2783L8.6823 12.0605C9.12175 12.3779 9.68328 12.3779 10.1349 12.0605L14.4684 8.95996C15.03 8.56934 15.1642 7.78809 14.7614 7.22656C14.3708 6.66504 13.5895 6.54297 13.028 6.93359L9.41472 9.53369L6.43621 7.39746C5.81365 6.93359 5.05681 6.61621 4.11687 6.61621C2.54217 6.61621 1.35808 7.60498 1.26043 9.00879L0.845388 14.8193C0.723317 16.5527 1.5656 17.8345 3.49431 18.1152L9.07293 18.9209L7.58367 24.3896C7.38836 25.1221 7.79119 25.7324 8.46258 25.9155ZM19.6442 10.8154C21.4631 10.8154 22.9645 9.31396 22.9645 7.48291C22.9645 5.65186 21.4631 4.1748 19.6442 4.1748C17.801 4.1748 16.3117 5.65186 16.3117 7.48291C16.3117 9.31396 17.801 10.8154 19.6442 10.8154ZM19.6442 9.46045C18.5212 9.46045 17.6667 8.60596 17.6667 7.48291C17.6667 6.38428 18.5212 5.52979 19.6442 5.52979C20.7551 5.52979 21.6095 6.38428 21.6095 7.48291C21.6095 8.60596 20.7551 9.46045 19.6442 9.46045ZM11.5754 26.0254L18.4479 26.0254C19.1437 26.0254 19.339 25.1465 18.7775 24.7681L16.3605 23.1689C16.6047 22.7783 16.7634 22.3511 16.8732 21.8872L19.7175 10.5469L18.3625 10.2295L15.5304 21.5698C15.0788 23.4009 13.4797 24.646 11.5754 24.646C11.1847 24.646 10.8918 24.9634 10.8918 25.3418C10.8918 25.708 11.1847 26.0254 11.5754 26.0254ZM2.49334 21.3867L4.93474 20.8618C5.23992 20.813 5.42302 20.5322 5.42302 20.2271C5.42302 19.9097 5.19109 19.6655 4.91033 19.6289L0.79656 18.9209C0.112966 18.811-0.0945536 19.397 0.112966 19.8486L0.3449 20.3003C0.772146 21.1792 1.46795 21.6064 2.49334 21.3867ZM0.71111 26.0254L5.99675 26.0254C6.39959 26.0254 6.69256 25.708 6.69256 25.3418C6.69256 24.9634 6.39959 24.646 5.99675 24.646C5.2033 24.646 4.61736 24.3286 4.40984 23.3765L3.68963 20.1294L2.34685 20.4224L2.92058 23.0591L0.332692 24.7681C-0.241038 25.1465-0.0457255 26.0254 0.71111 26.0254Z" fill="#5ac8f5"/>
 </g>
</svg>
