<?xml version="1.0" encoding="UTF-8"?>
<!--Generator: Apple Native CoreSVG 175.5-->
<!DOCTYPE svg
PUBLIC "-//W3C//DTD SVG 1.1//EN"
       "http://www.w3.org/Graphics/SVG/1.1/DTD/svg11.dtd">
<svg version="1.1" xmlns="http://www.w3.org/2000/svg" xmlns:xlink="http://www.w3.org/1999/xlink" width="24.2692" height="28.064">
 <g>
  <rect height="28.064" opacity="0" width="24.2692" x="0" y="0"/>
  <path d="M15.8692 5.33447C17.3462 5.33447 18.5303 4.15039 18.5303 2.67334C18.5303 1.19629 17.3462 0 15.8692 0C14.3799 0 13.1958 1.19629 13.1958 2.67334C13.1958 4.15039 14.3799 5.33447 15.8692 5.33447ZM3.63774 14.1968C4.38237 14.5386 5.05376 14.209 5.34673 13.623L7.58061 9.16748L10.254 9.16748C10.5347 9.16748 10.73 9.43604 10.5835 9.69238L8.23979 14.3433C7.37309 16.0645 8.43511 18.2251 10.7056 18.0908L17.0166 17.7002L14.6851 22.876C14.3921 23.5352 14.6729 24.3408 15.3321 24.585C16.0645 24.8657 16.6993 24.646 17.0166 23.938L20.2637 16.8091C20.6177 16.04 20.1172 14.978 19.1285 14.978L13.4034 14.978L15.9424 9.91211C16.0401 9.69238 16.3086 9.63135 16.4795 9.81445L19.4703 12.6709C20.0684 13.2446 21.1304 13.147 21.5455 12.3291L24.1211 7.15332C24.4385 6.50635 24.2432 5.7251 23.5596 5.40771C22.9126 5.10254 22.1436 5.37109 21.8262 6.00586L20.0196 9.57031L18.5547 8.09326C17.566 7.10449 16.5162 6.5918 14.9048 6.5918L6.78716 6.5918C6.29888 6.5918 5.85942 6.87256 5.6519 7.2998L3.0396 12.4878C2.72222 13.1226 2.96636 13.8672 3.63774 14.1968ZM0.134324 26.7334C0.537156 27.5757 1.42827 27.5879 1.84331 27.4048L8.28862 24.5972C8.55718 24.4751 8.78911 24.2676 8.92339 23.9868L11.2793 19.2383L10.7789 19.2749C9.75347 19.3359 8.86235 19.043 8.20317 18.5425L6.75054 22.4365L0.805711 25C0.134324 25.293-0.207472 26.0498 0.134324 26.7334ZM21.4356 27.9419C22.9371 27.9419 24.1211 26.77 24.1211 25.2686C24.1211 23.7915 22.9371 22.6074 21.4356 22.6074C19.9585 22.6074 18.7867 23.7915 18.7867 25.2686C18.7867 26.77 19.9585 27.9419 21.4356 27.9419Z" fill="#5ac8f5"/>
 </g>
</svg>
