<?xml version="1.0" encoding="UTF-8"?>
<!--Generator: Apple Native CoreSVG 175.5-->
<!DOCTYPE svg
PUBLIC "-//W3C//DTD SVG 1.1//EN"
       "http://www.w3.org/Graphics/SVG/1.1/DTD/svg11.dtd">
<svg version="1.1" xmlns="http://www.w3.org/2000/svg" xmlns:xlink="http://www.w3.org/1999/xlink" width="31.897" height="26.5991">
 <g>
  <rect height="26.5991" opacity="0" width="31.897" x="0" y="0"/>
  <path d="M0 9.81445C0 12.9883 1.33057 15.979 3.58887 18.0542C4.5166 18.9087 5.48096 19.458 6.90918 19.751C6.68945 19.104 6.53076 18.4326 6.43311 17.749C5.81055 17.5171 5.31006 17.1997 4.82178 16.7358C2.89307 14.9658 1.79443 12.4634 1.79443 9.81445C1.79443 7.92236 2.35596 6.0791 3.56445 4.55322C5.0415 5.61523 7.22656 6.10352 9.92432 6.21338C10.5957 5.49316 11.2427 4.89502 11.9507 4.40674C11.6333 4.44336 11.3037 4.44336 10.9375 4.44336C7.36084 4.44336 5.61523 3.74756 4.26025 2.74658C3.6377 2.34375 2.89307 2.44141 2.45361 3.00293C0.90332 4.77295 0 7.20215 0 9.81445ZM19.8853 26.5991C24.3164 26.5991 26.1841 26.0376 27.9541 24.3896C30.4443 22.1191 31.897 18.8354 31.897 15.3564C31.897 12.5366 30.957 9.83887 29.1992 7.87354C28.7231 7.26318 27.9175 7.16553 27.2339 7.58057C25.7324 8.6792 23.7183 9.43604 19.8853 9.43604C16.0522 9.43604 14.0381 8.6792 12.5366 7.58057C11.853 7.16553 11.0352 7.26318 10.5713 7.87354C8.81348 9.83887 7.86133 12.5366 7.86133 15.3564C7.86133 18.8354 9.32617 22.1191 11.8042 24.3896C13.5742 26.0376 15.4541 26.5991 19.8853 26.5991ZM19.8853 24.6338C16.0034 24.6338 14.5264 24.2432 13.147 22.9492C11.0352 21.0083 9.82666 18.2739 9.82666 15.3564C9.82666 13.0249 10.5957 10.8032 12.1704 9.00879L11.2793 9.24072C13.2568 10.7666 16.3574 11.4014 19.8853 11.4014C23.4131 11.4014 26.5137 10.7666 28.479 9.24072L27.6001 9.00879C29.1748 10.8032 29.9316 13.0249 29.9316 15.3564C29.9316 18.2739 28.7354 21.0083 26.6235 22.9492C25.2441 24.2432 23.7549 24.6338 19.8853 24.6338Z" fill="#5ac8f5" fill-opacity="0.5"/>
  <path d="M10.9375 2.91748C14.0015 2.91748 16.1743 2.29492 16.1743 1.48926C16.1743 0.683594 14.0015 0.0732422 10.9375 0.0732422C7.88574 0.0732422 5.7251 0.683594 5.7251 1.48926C5.7251 2.29492 7.88574 2.91748 10.9375 2.91748ZM19.8853 7.76367C23.2788 7.76367 25.6592 7.08008 25.6592 6.20117C25.6592 5.32227 23.2788 4.65088 19.8853 4.65088C16.4917 4.65088 14.1113 5.32227 14.1113 6.20117C14.1113 7.08008 16.4917 7.76367 19.8853 7.76367Z" fill="#5ac8f5"/>
 </g>
</svg>
