<?xml version="1.0" encoding="UTF-8"?>
<!--Generator: Apple Native CoreSVG 175.5-->
<!DOCTYPE svg
PUBLIC "-//W3C//DTD SVG 1.1//EN"
       "http://www.w3.org/Graphics/SVG/1.1/DTD/svg11.dtd">
<svg version="1.1" xmlns="http://www.w3.org/2000/svg" xmlns:xlink="http://www.w3.org/1999/xlink" width="29.0432" height="30.8528">
 <g>
  <rect height="30.8528" opacity="0" width="29.0432" x="0" y="0"/>
  <path d="M8.31284 28.2377C10.8275 30.7645 15.4417 30.9721 17.9442 28.494C20.0804 26.37 20.1537 23.6356 18.1273 21.5971C16.3084 19.766 13.5619 19.6439 12.0482 21.182C10.3026 22.952 11.4622 24.7587 10.388 25.8451C9.48471 26.7606 8.67905 26.431 8.19076 26.9071C7.83676 27.2367 7.81235 27.7372 8.31284 28.2377ZM18.2738 19.7416C19.2992 20.4618 20.1659 21.5116 20.4955 22.4393C21.4476 22.0975 22.1678 21.4872 22.7904 20.5961C22.9002 20.4374 23.0223 20.2665 23.12 20.0956C22.0824 17.288 19.2381 15.3348 16.2962 15.3104C16.162 15.4691 16.0277 15.6522 15.9056 15.8353C15.2953 16.7265 14.9779 17.642 14.9901 18.5941C15.9544 18.5819 17.2484 19.0214 18.2738 19.7416ZM25.3416 5.14198C24.6703 5.72792 20.471 9.76844 17.224 14.1019C20.0804 14.4804 22.5829 16.2138 23.9256 18.8139C26.8553 14.0775 28.5277 8.66981 28.8451 7.7909C29.7728 5.20301 27.2459 3.53065 25.3416 5.14198Z" fill="#5ac8f5"/>
  <path d="M2.22153 14.8466C3.3934 19.2655 6.18881 21.768 9.92416 21.9389C10.2049 21.2064 10.6078 20.4008 11.3158 19.766C11.8773 19.0458 12.5975 18.4965 13.4154 18.1547C13.513 17.3002 13.745 16.4701 14.0379 15.7865C13.4886 16.2382 12.7684 16.6044 11.9505 16.8241C9.85092 17.3612 7.70248 16.7387 6.53061 14.8832C6.24985 14.4315 6.55502 14.0287 7.09213 14.1019C8.69125 14.285 10.2293 13.9188 11.1571 13.6503C12.0238 13.4061 13.513 12.9545 14.7581 12.0634C15.2342 11.7094 15.6859 11.9047 15.6737 12.4418C15.6615 12.8812 15.6126 13.2719 15.5028 13.6137C16.4915 12.3685 17.8831 10.6473 19.3236 9.01161L17.5658 2.50526C16.992 0.417857 15.5516-0.387807 13.4154 0.173716L2.56332 3.06678C0.4393 3.62831-0.390778 5.04432 0.170745 7.16835ZM6.43295 10.0004C5.6395 10.2201 5.50522 10.745 5.16342 10.8549C4.91928 10.9159 4.67514 10.6962 4.55307 10.2567C4.27231 9.26795 4.88266 8.24256 5.92026 7.97401C6.89682 7.68104 7.97104 8.26698 8.22739 9.29237C8.33725 9.71961 8.23959 10.0126 7.97104 10.0858C7.64145 10.1713 7.23862 9.80506 6.43295 10.0004ZM13.1346 8.19374C12.3289 8.38905 12.2069 8.93836 11.8529 9.03602C11.6087 9.09706 11.3646 8.88954 11.2425 8.46229C10.9496 7.46131 11.5843 6.43592 12.6097 6.16737C13.6107 5.89881 14.6605 6.47254 14.9168 7.48573C15.0389 7.88856 14.929 8.20594 14.6727 8.26698C14.3431 8.35243 13.9403 7.9618 13.1346 8.19374Z" fill="#5ac8f5" fill-opacity="0.5"/>
 </g>
</svg>
