<?xml version="1.0" encoding="UTF-8"?>
<!--Generator: Apple Native CoreSVG 175.5-->
<!DOCTYPE svg
PUBLIC "-//W3C//DTD SVG 1.1//EN"
       "http://www.w3.org/Graphics/SVG/1.1/DTD/svg11.dtd">
<svg version="1.1" xmlns="http://www.w3.org/2000/svg" xmlns:xlink="http://www.w3.org/1999/xlink" width="26.0864" height="26.1108">
 <g>
  <rect height="26.1108" opacity="0" width="26.0864" x="0" y="0"/>
  <path d="M0 17.3096C0 21.2402 3.55225 25.2197 6.90918 25.2197C9.94873 25.2197 11.4502 22.4609 13.2935 17.5903C13.3911 17.5903 13.501 17.5781 13.5986 17.5659C13.7451 17.5537 13.8794 17.5415 14.0137 17.5049L14.0137 22.6929C14.0137 24.9268 15.1489 26.0986 17.2974 26.0986C21.228 26.0986 25.2197 22.5464 25.2197 19.1895C25.2197 16.1499 22.4487 14.6484 17.5781 12.8052C17.5781 12.7075 17.5659 12.5977 17.5537 12.5C17.5415 12.3535 17.5293 12.2192 17.4927 12.0728L22.6929 12.0728C24.9146 12.0728 26.0864 10.9375 26.0864 8.78906C26.0864 4.8584 22.5342 0.866699 19.1772 0.866699C16.1377 0.866699 14.6362 3.6377 12.793 8.5083C12.6953 8.5083 12.5854 8.52051 12.4878 8.53271C12.3413 8.54492 12.207 8.55713 12.0728 8.59375L12.0728 3.40576C12.0728 1.17188 10.9375 0 8.78906 0C4.8584 0 0.866699 3.55225 0.866699 6.90918C0.866699 9.94873 3.6377 11.4502 8.49609 13.2935C8.5083 13.4033 8.5083 13.5254 8.52051 13.623C8.53271 13.7573 8.56934 13.8916 8.58154 14.0259L3.39355 14.0259C1.17188 14.0259 0 15.1489 0 17.3096ZM10.2173 13.0493C10.2173 11.4868 11.4746 10.2173 13.0371 10.2173C14.5996 10.2173 15.8691 11.4868 15.8691 13.0493C15.8691 14.6118 14.5996 15.8813 13.0371 15.8813C11.4868 15.8813 10.2173 14.6118 10.2173 13.0493ZM11.3647 13.0493C11.3647 13.9771 12.0972 14.7095 13.0371 14.7095C13.9648 14.7095 14.6973 13.9771 14.6973 13.0493C14.6973 12.1216 13.9526 11.377 13.0371 11.377C12.0972 11.377 11.3647 12.1094 11.3647 13.0493Z" fill="#5ac8f5"/>
 </g>
</svg>
