<?xml version="1.0" encoding="UTF-8"?>
<!--Generator: Apple Native CoreSVG 175.5-->
<!DOCTYPE svg
PUBLIC "-//W3C//DTD SVG 1.1//EN"
       "http://www.w3.org/Graphics/SVG/1.1/DTD/svg11.dtd">
<svg version="1.1" xmlns="http://www.w3.org/2000/svg" xmlns:xlink="http://www.w3.org/1999/xlink" width="48.7061" height="23.0103">
 <g>
  <rect height="23.0103" opacity="0" width="48.7061" x="0" y="0"/>
  <path d="M2.99072 23.0103L18.335 23.0103C20.3613 23.0103 21.3257 22.3999 21.3257 21.0571C21.3257 17.8589 17.2852 13.2324 10.6689 13.2324C4.04053 13.2324 0 17.8589 0 21.0571C0 22.3999 0.964355 23.0103 2.99072 23.0103ZM2.41699 21.167C2.09961 21.167 1.96533 21.0815 1.96533 20.8252C1.96533 18.8232 5.06592 15.0757 10.6689 15.0757C16.2598 15.0757 19.3604 18.8232 19.3604 20.8252C19.3604 21.0815 19.2383 21.167 18.9209 21.167ZM10.6689 11.5479C13.562 11.5479 15.9424 8.95996 15.9424 5.81055C15.9424 2.69775 13.5986 0.231934 10.6689 0.231934C7.76367 0.231934 5.3833 2.73438 5.39551 5.83496C5.39551 8.97217 7.76367 11.5479 10.6689 11.5479ZM10.6689 9.70459C8.87451 9.70459 7.36084 7.99561 7.36084 5.83496C7.34863 3.71094 8.8501 2.0752 10.6689 2.0752C12.4878 2.0752 13.9771 3.68652 13.9771 5.81055C13.9771 7.97119 12.4634 9.70459 10.6689 9.70459Z" fill="#5ac8f5"/>
  <path d="M24.3408 13.2324C22.3022 13.2324 20.5078 13.6841 18.9941 14.3921C19.5557 14.8193 20.0806 15.271 20.5322 15.7593C21.6187 15.3442 22.9004 15.0757 24.3408 15.0757C29.9438 15.0757 33.0444 18.8232 33.0444 20.8252C33.0444 21.0815 32.9102 21.167 32.5928 21.167L22.8394 21.167C22.8271 21.8262 22.7051 22.4487 22.3145 23.0103L32.0068 23.0103C34.0454 23.0103 35.0098 22.3999 35.0098 21.0571C35.0098 17.8589 30.9692 13.2324 24.3408 13.2324ZM24.353 11.5479C27.2583 11.5479 29.6265 8.95996 29.6265 5.81055C29.6265 2.69775 27.2827 0.231934 24.353 0.231934C21.4478 0.231934 19.0674 2.73438 19.0796 5.83496C19.0918 8.97217 21.4478 11.5479 24.353 11.5479ZM24.353 9.70459C22.5708 9.70459 21.0449 7.99561 21.0449 5.83496C21.0327 3.71094 22.5342 2.0752 24.353 2.0752C26.1719 2.0752 27.6611 3.68652 27.6611 5.81055C27.6611 7.97119 26.1475 9.70459 24.353 9.70459Z" fill="#5ac8f5" fill-opacity="0.5"/>
  <path d="M38.0371 13.2324C35.9985 13.2324 34.1919 13.6841 32.6782 14.4043C33.252 14.8193 33.7646 15.271 34.2163 15.7837C35.3027 15.3442 36.5967 15.0757 38.0371 15.0757C43.6401 15.0757 46.7407 18.8232 46.7407 20.8252C46.7407 21.0815 46.6064 21.167 46.2891 21.167L36.5234 21.167C36.5112 21.8262 36.3892 22.4487 35.9863 23.0103L45.7031 23.0103C47.7417 23.0103 48.7061 22.3999 48.7061 21.0571C48.7061 17.8589 44.6655 13.2324 38.0371 13.2324ZM38.0371 11.5479C40.9424 11.5479 43.3105 8.95996 43.3105 5.81055C43.3105 2.69775 40.9668 0.231934 38.0371 0.231934C35.144 0.231934 32.7637 2.73438 32.7637 5.83496C32.7759 8.97217 35.144 11.5479 38.0371 11.5479ZM38.0371 9.70459C36.2549 9.70459 34.729 7.99561 34.729 5.83496C34.729 3.71094 36.2305 2.0752 38.0371 2.0752C39.856 2.0752 41.3452 3.68652 41.3452 5.81055C41.3452 7.97119 39.8438 9.70459 38.0371 9.70459Z" fill="#5ac8f5" fill-opacity="0.25"/>
 </g>
</svg>
