<?xml version="1.0" encoding="UTF-8"?>
<!--Generator: Apple Native CoreSVG 175.5-->
<!DOCTYPE svg
PUBLIC "-//W3C//DTD SVG 1.1//EN"
       "http://www.w3.org/Graphics/SVG/1.1/DTD/svg11.dtd">
<svg version="1.1" xmlns="http://www.w3.org/2000/svg" xmlns:xlink="http://www.w3.org/1999/xlink" width="24.9023" height="24.9146">
 <g>
  <rect height="24.9146" opacity="0" width="24.9023" x="0" y="0"/>
  <path d="M12.4512 24.9023C19.2627 24.9023 24.9023 19.2505 24.9023 12.4512C24.9023 5.63965 19.2505 0 12.439 0C5.63965 0 0 5.63965 0 12.4512C0 19.2505 5.65186 24.9023 12.4512 24.9023ZM12.1948 15.0635C11.5479 15.0635 11.1816 14.7217 11.1816 14.0625C11.1816 14.0137 11.1816 13.9526 11.1816 13.9038C11.1816 12.6587 11.8652 11.9995 12.7686 11.3647C13.8672 10.5957 14.3921 10.1807 14.3921 9.32617C14.3921 8.37402 13.6475 7.72705 12.5122 7.72705C11.6699 7.72705 11.0229 8.14209 10.5713 8.87451L10.3516 9.17969C10.1196 9.47266 9.83887 9.68018 9.41162 9.68018C8.99658 9.68018 8.54492 9.375 8.54492 8.81348C8.54492 8.59375 8.59375 8.38623 8.65479 8.19092C8.99658 7.03125 10.4126 6.01807 12.5854 6.01807C14.7339 6.01807 16.6016 7.12891 16.6016 9.22852C16.6016 10.7422 15.7227 11.4746 14.502 12.2803C13.623 12.854 13.2202 13.3057 13.2202 14.0137C13.2202 14.0503 13.2202 14.1113 13.2202 14.1602C13.2202 14.6606 12.8296 15.0635 12.1948 15.0635ZM12.1704 18.811C11.438 18.811 10.8032 18.2251 10.8032 17.5049C10.8032 16.7847 11.4258 16.1865 12.1704 16.1865C12.915 16.1865 13.5376 16.7725 13.5376 17.5049C13.5376 18.2373 12.9028 18.811 12.1704 18.811Z" fill="#5ac8f5"/>
 </g>
</svg>
