<?xml version="1.0" encoding="UTF-8"?>
<!--Generator: Apple Native CoreSVG 175.5-->
<!DOCTYPE svg
PUBLIC "-//W3C//DTD SVG 1.1//EN"
       "http://www.w3.org/Graphics/SVG/1.1/DTD/svg11.dtd">
<svg version="1.1" xmlns="http://www.w3.org/2000/svg" xmlns:xlink="http://www.w3.org/1999/xlink" width="24.9023" height="24.9146">
 <g>
  <rect height="24.9146" opacity="0" width="24.9023" x="0" y="0"/>
  <path d="M12.4512 24.9023C19.2627 24.9023 24.9023 19.2505 24.9023 12.4512C24.9023 5.63965 19.2505 0 12.439 0C5.63965 0 0 5.63965 0 12.4512C0 19.2505 5.65186 24.9023 12.4512 24.9023ZM12.4512 22.8271C6.68945 22.8271 2.0874 18.2129 2.0874 12.4512C2.0874 6.68945 6.67725 2.0752 12.439 2.0752C18.2007 2.0752 22.8271 6.68945 22.8271 12.4512C22.8271 18.2129 18.2129 22.8271 12.4512 22.8271Z" fill="#5ac8f5" fill-opacity="0.5"/>
  <path d="M9.38721 19.4946C9.63135 19.4946 9.79004 19.3848 10.0708 19.1284L12.2559 17.1509L16.333 17.1509C18.103 17.1509 19.0796 16.1621 19.0796 14.3921L19.0796 9.79004C19.0796 8.04443 18.103 7.04346 16.333 7.04346L8.56934 7.04346C6.79932 7.04346 5.82275 8.03223 5.82275 9.79004L5.82275 14.3921C5.82275 16.1621 6.79932 17.1509 8.56934 17.1509L8.8623 17.1509L8.8623 18.8965C8.8623 19.2627 9.05762 19.4946 9.38721 19.4946ZM12.4512 13.2324C12.1338 13.2324 11.9629 13.0493 11.9507 12.7319L11.8774 9.46045C11.8652 9.13086 12.1094 8.87451 12.439 8.87451C12.7808 8.87451 13.0371 9.13086 13.0249 9.46045L12.9395 12.7319C12.9395 13.0493 12.7563 13.2324 12.4512 13.2324ZM12.4512 15.2344C12.085 15.2344 11.7554 14.9414 11.7554 14.5752C11.7554 14.209 12.0728 13.9038 12.4512 13.9038C12.8296 13.9038 13.147 14.1968 13.147 14.5752C13.147 14.9414 12.8174 15.2344 12.4512 15.2344Z" fill="#5ac8f5"/>
 </g>
</svg>
