<?xml version="1.0" encoding="UTF-8"?>
<!--Generator: Apple Native CoreSVG 175.5-->
<!DOCTYPE svg
PUBLIC "-//W3C//DTD SVG 1.1//EN"
       "http://www.w3.org/Graphics/SVG/1.1/DTD/svg11.dtd">
<svg version="1.1" xmlns="http://www.w3.org/2000/svg" xmlns:xlink="http://www.w3.org/1999/xlink" width="28.7842" height="22.4731">
 <g>
  <rect height="22.4731" opacity="0" width="28.7842" x="0" y="0"/>
  <path d="M14.4043 7.88574C15.3564 7.88574 16.1133 7.1167 16.1133 6.16455C16.1133 5.23682 15.3564 4.45557 14.4043 4.45557C13.4644 4.45557 12.6953 5.23682 12.6953 6.16455C12.6953 7.1167 13.4644 7.88574 14.4043 7.88574ZM14.4043 12.9395C15.3564 12.9395 16.1133 12.1704 16.1133 11.2305C16.1133 10.2783 15.3564 9.52148 14.4043 9.52148C13.4644 9.52148 12.6953 10.2783 12.6953 11.2305C12.6953 12.1704 13.4644 12.9395 14.4043 12.9395ZM14.4043 18.0054C15.3564 18.0054 16.1133 17.2241 16.1133 16.2964C16.1133 15.332 15.3564 14.5752 14.4043 14.5752C13.4644 14.5752 12.6953 15.332 12.6953 16.2964C12.6953 17.2241 13.4644 18.0054 14.4043 18.0054ZM19.4824 12.9395C20.4102 12.9395 21.1914 12.1704 21.1914 11.2305C21.1914 10.2783 20.4102 9.52148 19.4824 9.52148C18.5181 9.52148 17.749 10.2783 17.749 11.2305C17.749 12.1704 18.5181 12.9395 19.4824 12.9395ZM9.33838 12.9395C10.3027 12.9395 11.0596 12.1704 11.0596 11.2305C11.0596 10.2783 10.3027 9.52148 9.33838 9.52148C8.41064 9.52148 7.62939 10.2783 7.62939 11.2305C7.62939 12.1704 8.41064 12.9395 9.33838 12.9395ZM3.83301 22.4731L13.5742 22.4731L13.5742 20.5078L3.85742 20.5078C2.63672 20.5078 1.96533 19.8608 1.96533 18.5913L1.96533 12.0728L0 12.0728L0 18.7012C0 21.2158 1.28174 22.4731 3.83301 22.4731ZM15.2466 22.4731L24.9512 22.4731C27.5146 22.4731 28.7842 21.2158 28.7842 18.7012L28.7842 12.0728L26.8188 12.0728L26.8188 18.5913C26.8188 19.8608 26.1353 20.5078 24.9268 20.5078L15.2466 20.5078ZM26.8188 10.4126L28.7842 10.4126L28.7842 3.78418C28.7842 1.26953 27.5146 0 24.9512 0L15.2466 0L15.2466 1.96533L24.9268 1.96533C26.1353 1.96533 26.8188 2.62451 26.8188 3.89404ZM0 10.4126L1.96533 10.4126L1.96533 3.89404C1.96533 2.62451 2.63672 1.96533 3.85742 1.96533L13.5742 1.96533L13.5742 0L3.83301 0C1.28174 0 0 1.26953 0 3.78418Z" fill="#5ac8f5"/>
 </g>
</svg>
