<?xml version="1.0" encoding="UTF-8"?>
<!--Generator: Apple Native CoreSVG 175.5-->
<!DOCTYPE svg
PUBLIC "-//W3C//DTD SVG 1.1//EN"
       "http://www.w3.org/Graphics/SVG/1.1/DTD/svg11.dtd">
<svg version="1.1" xmlns="http://www.w3.org/2000/svg" xmlns:xlink="http://www.w3.org/1999/xlink" width="22.2168" height="22.229">
 <g>
  <rect height="22.229" opacity="0" width="22.2168" x="0" y="0"/>
  <path d="M0 10.7178L5.85938 10.7178C4.21143 9.98535 3.07617 8.61816 3.07617 6.98242C3.07617 5.07812 4.46777 3.66211 6.35986 3.66211C7.9834 3.66211 9.44824 4.6875 10.3027 6.35986L10.3027 0L11.9019 0L11.9019 6.35986C12.7563 4.6875 14.2212 3.66211 15.8569 3.66211C17.7368 3.66211 19.1406 5.07812 19.1406 6.98242C19.1406 8.61816 17.9932 9.98535 16.3452 10.7178L22.2168 10.7178L22.2168 12.1704L13.1714 12.1704C13.9282 13.7329 16.4307 16.0889 18.2373 16.272C18.9087 16.333 19.2871 16.7603 19.2871 17.4072C19.2871 17.9688 18.8232 18.5059 18.0786 18.4082C16.0767 18.1152 12.854 15.7593 11.9995 13.0737L11.9019 13.0737L11.9019 22.2046L10.3027 22.2046L10.3027 13.0737L10.2173 13.0737C9.36279 15.7593 6.14014 18.1152 4.12598 18.4082C3.38135 18.5059 2.91748 17.9688 2.91748 17.4072C2.91748 16.7603 3.2959 16.3452 3.97949 16.272C5.78613 16.0645 8.27637 13.7329 9.0332 12.1704L0 12.1704ZM9.68018 10.5225L10.0708 10.5225L10.0708 10.144C10.0708 7.67822 8.38623 5.52979 6.45752 5.52979C5.51758 5.52979 4.91943 6.15234 4.91943 7.1167C4.91943 8.76465 7.10449 10.5225 9.68018 10.5225ZM12.5366 10.5225C15.1001 10.5225 17.2852 8.76465 17.2852 7.1167C17.2852 6.15234 16.6992 5.52979 15.7593 5.52979C13.8184 5.52979 12.146 7.67822 12.146 10.144L12.146 10.5225ZM20.7886 1.44043C19.5435 0.195312 17.7856 0 15.6982 0L6.48193 0C4.43115 0 2.67334 0.195312 1.42822 1.44043C0.183105 2.68555 0 4.43115 0 6.46973L0 15.6982C0 17.7856 0.183105 19.519 1.42822 20.7642C2.67334 22.0093 4.43115 22.2046 6.50635 22.2046L15.6982 22.2046C17.7856 22.2046 19.5435 22.0093 20.7886 20.7642C22.0337 19.519 22.2168 17.7856 22.2168 15.6982L22.2168 6.50635C22.2168 4.41895 22.0337 2.67334 20.7886 1.44043Z" fill="#5ac8f5"/>
 </g>
</svg>
