<?xml version="1.0" encoding="UTF-8"?>
<!--Generator: Apple Native CoreSVG 175.5-->
<!DOCTYPE svg
PUBLIC "-//W3C//DTD SVG 1.1//EN"
       "http://www.w3.org/Graphics/SVG/1.1/DTD/svg11.dtd">
<svg version="1.1" xmlns="http://www.w3.org/2000/svg" xmlns:xlink="http://www.w3.org/1999/xlink" width="16.7114" height="23.6206">
 <g>
  <rect height="23.6206" opacity="0" width="16.7114" x="0" y="0"/>
  <path d="M5.82275 0C1.97754 0 0 2.83203 0 7.32422L0 10.1685C0 13.3667 0.805664 14.8804 3.07617 16.1255L8.26416 18.9819C9.60693 19.7021 10.2295 19.9463 11.1694 19.9463C13.1104 19.9463 14.6973 18.3472 14.6973 16.4185C14.6973 15.1001 14.0015 13.8794 12.5 13.0859L2.18506 7.70264C2.18506 4.12598 3.35693 2.19727 5.94482 2.19727C10.2783 2.19727 14.0259 7.2876 14.4653 13.0859C15.3809 13.9893 15.8813 15.1367 15.8813 16.4185C15.8813 18.5547 14.4165 20.3735 12.4634 20.9473C12.561 22.2778 13.3789 23.5962 14.3677 23.5962C15.6494 23.5962 16.7114 19.2261 16.7114 15.271C16.7114 6.86035 11.792 0 5.82275 0ZM11.2549 18.6279C10.0464 18.6279 9.04541 17.627 9.04541 16.4062C9.04541 15.1855 10.0464 14.1846 11.2549 14.1846C12.4878 14.1846 13.4888 15.1855 13.4888 16.4062C13.4888 17.627 12.4878 18.6279 11.2549 18.6279ZM11.2549 17.7612C12.0117 17.7612 12.6221 17.1509 12.6221 16.4062C12.6221 15.6738 12.0117 15.0513 11.2549 15.0513C10.5225 15.0513 9.91211 15.6738 9.91211 16.4062C9.91211 17.1509 10.5225 17.7612 11.2549 17.7612Z" fill="#5ac8f5"/>
  <path d="M11.2549 18.6279C10.0464 18.6279 9.04541 17.627 9.04541 16.4062C9.04541 15.1855 10.0464 14.1846 11.2549 14.1846C12.4878 14.1846 13.4888 15.1855 13.4888 16.4062C13.4888 17.627 12.4878 18.6279 11.2549 18.6279ZM11.2549 17.7612C12.0117 17.7612 12.6221 17.1509 12.6221 16.4062C12.6221 15.6738 12.0117 15.0513 11.2549 15.0513C10.5225 15.0513 9.91211 15.6738 9.91211 16.4062C9.91211 17.1509 10.5225 17.7612 11.2549 17.7612Z" fill="#5ac8f5" fill-opacity="0.25"/>
 </g>
</svg>
