<?xml version="1.0" encoding="UTF-8"?>
<!--Generator: Apple Native CoreSVG 175.5-->
<!DOCTYPE svg
PUBLIC "-//W3C//DTD SVG 1.1//EN"
       "http://www.w3.org/Graphics/SVG/1.1/DTD/svg11.dtd">
<svg version="1.1" xmlns="http://www.w3.org/2000/svg" xmlns:xlink="http://www.w3.org/1999/xlink" width="38.5864" height="20.7153">
 <g>
  <rect height="20.7153" opacity="0" width="38.5864" x="0" y="0"/>
  <path d="M0 10.3516C0 16.9556 4.71191 20.6909 13.0493 20.6909L25.5371 20.6909C33.8745 20.6909 38.5864 16.9556 38.5864 10.3516C38.5864 3.73535 33.8745 0 25.5371 0L13.0493 0C4.71191 0 0 3.73535 0 10.3516ZM1.96533 10.3516C1.96533 4.96826 5.94482 1.96533 13.0493 1.96533L25.5371 1.96533C32.6294 1.96533 36.6211 4.96826 36.6211 10.3516C36.6211 15.7227 32.6294 18.7256 25.5371 18.7256L13.0493 18.7256C5.94482 18.7256 1.96533 15.7227 1.96533 10.3516ZM1.00098 10.3394L37.5854 10.3394L37.5854 9.10645L1.00098 9.10645ZM10.6079 11.1816L27.9663 11.1816C28.8208 11.1816 29.4434 10.5835 29.4434 9.729C29.4434 8.8623 28.8208 8.26416 27.9663 8.26416L10.6079 8.26416C9.77783 8.26416 9.14307 8.8623 9.14307 9.729C9.14307 10.5835 9.77783 11.1816 10.6079 11.1816ZM19.2871 14.8315C19.9707 14.8193 20.5322 14.2456 20.5322 13.6108C20.5322 12.915 19.9707 12.3657 19.2871 12.3657C18.6035 12.3657 18.042 12.915 18.042 13.6108C18.042 14.2822 18.6035 14.856 19.2871 14.8315Z" fill="#5ac8f5"/>
 </g>
</svg>
