<?xml version="1.0" encoding="UTF-8"?>
<!--Generator: Apple Native CoreSVG 175.5-->
<!DOCTYPE svg
PUBLIC "-//W3C//DTD SVG 1.1//EN"
       "http://www.w3.org/Graphics/SVG/1.1/DTD/svg11.dtd">
<svg version="1.1" xmlns="http://www.w3.org/2000/svg" xmlns:xlink="http://www.w3.org/1999/xlink" width="27.6855" height="25.4517">
 <g>
  <rect height="25.4517" opacity="0" width="27.6855" x="0" y="0"/>
  <path d="M4.83398 25.4517C6.29883 25.4517 9.94873 23.8525 12.0239 22.3633C12.2314 22.2168 12.4023 22.1558 12.5732 22.1558C12.7319 22.168 12.8906 22.1802 13.0493 22.1802C21.8506 22.1802 27.6855 17.1753 27.6855 11.0962C27.6855 4.95605 21.5332 0 13.8428 0C6.15234 0 0 4.95605 0 11.0962C0 15.0024 2.40479 18.4326 6.32324 20.5322C6.50635 20.6299 6.56738 20.813 6.46973 20.9961C5.78613 22.1191 4.56543 23.4619 4.10156 24.0723C3.62549 24.6826 3.89404 25.4517 4.83398 25.4517ZM7.97119 13.0493C6.95801 13.0493 6.12793 12.2192 6.12793 11.2061C6.12793 10.1929 6.95801 9.375 7.97119 9.375C8.97217 9.375 9.80225 10.1929 9.80225 11.2061C9.80225 12.2192 8.98438 13.0493 7.97119 13.0493ZM13.8428 13.0493C12.8296 13.0493 11.9995 12.2192 11.9995 11.2061C11.9995 10.1929 12.8296 9.375 13.8428 9.375C14.856 9.375 15.686 10.1929 15.686 11.2061C15.686 12.2192 14.856 13.0493 13.8428 13.0493ZM19.7266 13.0493C18.7012 13.0493 17.8833 12.2192 17.8833 11.2061C17.8833 10.1929 18.7012 9.375 19.7266 9.375C20.7275 9.375 21.5576 10.1929 21.5576 11.2061C21.5576 12.2192 20.7275 13.0493 19.7266 13.0493Z" fill="#5ac8f5"/>
 </g>
</svg>
