<?xml version="1.0" encoding="UTF-8"?>
<!--Generator: Apple Native CoreSVG 175.5-->
<!DOCTYPE svg
PUBLIC "-//W3C//DTD SVG 1.1//EN"
       "http://www.w3.org/Graphics/SVG/1.1/DTD/svg11.dtd">
<svg version="1.1" xmlns="http://www.w3.org/2000/svg" xmlns:xlink="http://www.w3.org/1999/xlink" width="29.9683" height="19.8364">
 <g>
  <rect height="19.8364" opacity="0" width="29.9683" x="0" y="0"/>
  <path d="M3.91846 19.8242L17.0288 19.8242C19.4824 19.8242 20.9473 18.4082 20.9473 15.9546L20.9473 3.85742C20.9473 1.41602 19.6045 0 17.1509 0L3.91846 0C1.57471 0 0 1.41602 0 3.85742L0 15.9546C0 18.4082 1.46484 19.8242 3.91846 19.8242ZM22.6074 13.5132L27.0508 17.3584C27.4658 17.7246 27.9541 17.9565 28.3936 17.9565C29.3457 17.9565 29.9683 17.2607 29.9683 16.2598L29.9683 3.56445C29.9683 2.56348 29.3457 1.86768 28.3936 1.86768C27.9541 1.86768 27.4658 2.09961 27.0508 2.46582L22.6074 6.29883ZM6.28662 15.0879C5.74951 15.0879 5.34668 14.7095 5.34668 14.209C5.34668 13.9404 5.44434 13.7207 5.65186 13.5132L10.791 8.34961L12.9272 6.40869L9.31396 6.62842L7.60498 6.62842C7.1167 6.62842 6.70166 6.26221 6.70166 5.77393C6.70166 5.24902 7.09229 4.83398 7.60498 4.83398L14.624 4.83398C15.2954 4.83398 15.6128 5.16357 15.6128 5.83496L15.6128 12.8296C15.6128 13.3423 15.1978 13.7329 14.6729 13.7329C14.1846 13.7329 13.8184 13.3179 13.8184 12.8296L13.8184 11.145L14.0381 7.54395L12.0972 9.65576L6.95801 14.8071C6.7627 15.0024 6.56738 15.0879 6.28662 15.0879Z" fill="#5ac8f5"/>
 </g>
</svg>
