<?xml version="1.0" encoding="UTF-8"?>
<!--Generator: Apple Native CoreSVG 175.5-->
<!DOCTYPE svg
PUBLIC "-//W3C//DTD SVG 1.1//EN"
       "http://www.w3.org/Graphics/SVG/1.1/DTD/svg11.dtd">
<svg version="1.1" xmlns="http://www.w3.org/2000/svg" xmlns:xlink="http://www.w3.org/1999/xlink" width="35.1396" height="25.6958">
 <g>
  <rect height="25.6958" opacity="0" width="35.1396" x="0" y="0"/>
  <path d="M4.78903 25.3052L10.1357 24.2676C12.9433 23.7183 14.1762 22.2046 14.1762 19.2139L14.1762 4.44336C14.1762 1.77002 12.3208 0 9.53757 0C7.18161 0 5.16745 1.67236 4.49607 4.1748L0.211398 20.4224C-0.679715 23.8037 1.32224 25.9644 4.78903 25.3052ZM12.2109 4.44336L12.2109 19.2139C12.2109 21.2646 11.6372 21.9604 9.7573 22.3267L4.3862 23.3643C2.79929 23.6816 1.67624 22.6685 2.15232 20.8496L6.41257 4.67529C6.83982 3.05176 8.09714 1.96533 9.53757 1.96533C11.1245 1.96533 12.2109 2.96631 12.2109 4.44336ZM30.3506 25.3052C33.8174 25.9644 35.8193 23.8037 34.9282 20.4224L30.6435 4.1748C29.9843 1.67236 27.958 0 25.602 0C22.8188 0 20.9756 1.77002 20.9756 4.44336L20.9756 19.2139C20.9756 22.2046 22.1963 23.7183 25.0161 24.2676ZM22.9409 4.44336C22.9409 2.96631 24.0151 1.96533 25.602 1.96533C27.0425 1.96533 28.2998 3.05176 28.727 4.67529L32.9995 20.8496C33.4634 22.6685 32.3403 23.6816 30.7534 23.3643L25.3823 22.3267C23.5146 21.9604 22.9409 21.2646 22.9409 19.2139Z" fill="#5ac8f5" fill-opacity="0.25"/>
  <path d="M14.1762 17.6636L14.1762 15.6616L12.4551 16.0278L8.25583 12.2437C7.87741 11.9019 7.21823 11.9141 6.87644 12.3047C6.51023 12.7075 6.55905 13.3545 6.94968 13.6963L10.0991 16.5161L6.25388 17.3462C5.75339 17.4438 5.39939 17.9688 5.49704 18.4937C5.60691 19.0063 6.15622 19.3604 6.66892 19.2505ZM20.9756 15.6616L20.9756 17.6636L28.4829 19.2505C28.9956 19.3604 29.5449 19.0063 29.6426 18.4937C29.7524 17.9688 29.3984 17.4438 28.8857 17.3462L25.0405 16.5161L28.2021 13.6963C28.5927 13.3545 28.6416 12.7075 28.2754 12.3047C27.9214 11.9141 27.2622 11.9019 26.8838 12.2437L22.6967 16.0278Z" fill="#5ac8f5" fill-opacity="0.5"/>
  <path d="M20.9756 17.6636L20.9756 15.6616L18.5586 15.1367L18.5586 1.61133C18.5586 1.07422 18.1191 0.622559 17.582 0.622559C17.0449 0.622559 16.5932 1.07422 16.5932 1.61133L16.5932 15.1367L14.1762 15.6616L14.1762 17.6636L17.582 16.9312Z" fill="#5ac8f5"/>
 </g>
</svg>
