<?xml version="1.0" encoding="UTF-8"?>
<!--Generator: Apple Native CoreSVG 175.5-->
<!DOCTYPE svg
PUBLIC "-//W3C//DTD SVG 1.1//EN"
       "http://www.w3.org/Graphics/SVG/1.1/DTD/svg11.dtd">
<svg version="1.1" xmlns="http://www.w3.org/2000/svg" xmlns:xlink="http://www.w3.org/1999/xlink" width="28.7354" height="25.5981">
 <g>
  <rect height="25.5981" opacity="0" width="28.7354" x="0" y="0"/>
  <path d="M1.84326 25.5981L11.5479 25.5981C13.0005 25.5981 13.6597 24.9512 13.6597 23.4985L13.6597 8.91113C13.6597 7.83691 12.854 7.26318 11.9873 7.26318C11.4014 7.26318 10.8398 7.53174 10.437 8.09326L0.378418 22.6929C0.109863 23.0835 0 23.5352 0 23.9502C0 24.8413 0.585938 25.5981 1.84326 25.5981ZM2.6123 23.6084C2.53906 23.6084 2.46582 23.5718 2.46582 23.4863C2.46582 23.4497 2.47803 23.4131 2.50244 23.3521L11.4502 9.93652C11.4868 9.8877 11.5234 9.86328 11.5601 9.86328C11.6211 9.86328 11.6577 9.92432 11.6577 9.98535L11.6577 23.2544C11.6577 23.5352 11.5723 23.6084 11.2915 23.6084ZM17.1875 25.5981L26.8799 25.5981C28.1494 25.5981 28.7354 24.8413 28.7354 23.9502C28.7354 23.5352 28.6133 23.0835 28.3447 22.6929L18.2861 8.09326C17.8955 7.53174 17.3218 7.26318 16.7358 7.26318C15.8691 7.26318 15.0757 7.83691 15.0757 8.91113L15.0757 23.4985C15.0757 24.9512 15.7349 25.5981 17.1875 25.5981ZM17.4438 23.6084C17.1509 23.6084 17.0776 23.5352 17.0776 23.2544L17.0776 9.99756C17.0776 9.92432 17.1143 9.86328 17.1631 9.86328C17.1997 9.86328 17.2485 9.8877 17.2852 9.94873L26.2207 23.3521C26.2573 23.4131 26.2695 23.4497 26.2695 23.4863C26.2695 23.5718 26.1963 23.6084 26.1108 23.6084ZM1.89209 4.21143L5.16357 6.64062C5.83496 7.15332 6.64062 6.84814 6.64062 6.00586L6.64062 4.26025L22.0825 4.26025L22.0825 6.00586C22.0825 6.84814 22.9004 7.15332 23.5718 6.64062L26.8433 4.21143C27.2949 3.86963 27.2827 3.24707 26.8433 2.91748L23.5718 0.476074C22.9248-0.012207 22.0825 0.244141 22.0825 1.12305L22.0825 2.84424L6.64062 2.84424L6.64062 1.12305C6.64062 0.268555 5.83496-0.0366211 5.16357 0.476074L1.89209 2.91748C1.44043 3.24707 1.45264 3.88184 1.89209 4.21143Z" fill="#5ac8f5"/>
 </g>
</svg>
