<?xml version="1.0" encoding="UTF-8"?>
<!--Generator: Apple Native CoreSVG 175.5-->
<!DOCTYPE svg
PUBLIC "-//W3C//DTD SVG 1.1//EN"
       "http://www.w3.org/Graphics/SVG/1.1/DTD/svg11.dtd">
<svg version="1.1" xmlns="http://www.w3.org/2000/svg" xmlns:xlink="http://www.w3.org/1999/xlink" width="28.0518" height="22.1313">
 <g>
  <rect height="22.1313" opacity="0" width="28.0518" x="0" y="0"/>
  <path d="M0 17.334C0 17.9443 0.45166 18.3472 1.12305 18.3472L3.90625 18.3472C5.93262 18.3472 7.09229 17.7734 8.56934 16.0645L15.9668 7.43408C17.0166 6.21338 17.8955 5.76172 19.2383 5.76172L21.7285 5.76172L21.7285 8.52051C21.7285 9.00879 22.0093 9.28955 22.5098 9.28955C22.7417 9.28955 22.9614 9.2041 23.1445 9.05762L27.7588 5.23682C28.1494 4.91943 28.1494 4.41895 27.7588 4.07715L23.1445 0.244141C22.9614 0.0976562 22.7417 0.0244141 22.5098 0.0244141C22.0093 0.0244141 21.7285 0.292969 21.7285 0.78125L21.7285 3.72314L19.1772 3.72314C17.1387 3.72314 15.9668 4.29688 14.502 6.00586L7.1167 14.6362C6.05469 15.8691 5.2124 16.3208 3.96729 16.3208L1.12305 16.3208C0.463867 16.3208 0 16.7236 0 17.334ZM0 4.74854C0 5.34668 0.463867 5.76172 1.12305 5.76172L3.96729 5.76172C5.22461 5.76172 6.06689 6.21338 7.1167 7.44629L14.502 16.0767C15.9668 17.7734 17.1387 18.3472 19.1772 18.3472L21.7285 18.3472L21.7285 21.3745C21.7285 21.8628 22.0093 22.1313 22.5098 22.1313C22.7417 22.1313 22.9614 22.0581 23.1445 21.9116L27.7588 18.0908C28.1494 17.7612 28.1494 17.2729 27.7588 16.9312L23.1445 13.0981C22.9614 12.9517 22.7417 12.8662 22.5098 12.8662C22.0093 12.8662 21.7285 13.147 21.7285 13.6353L21.7285 16.3208L19.2383 16.3208C17.8955 16.3208 17.0166 15.8691 15.9668 14.6362L8.56934 6.00586C7.09229 4.30908 5.93262 3.73535 3.90625 3.73535L1.12305 3.73535C0.45166 3.73535 0 4.13818 0 4.74854Z" fill="#5ac8f5"/>
 </g>
</svg>
