<?xml version="1.0" encoding="UTF-8"?>
<!--Generator: Apple Native CoreSVG 175.5-->
<!DOCTYPE svg
PUBLIC "-//W3C//DTD SVG 1.1//EN"
       "http://www.w3.org/Graphics/SVG/1.1/DTD/svg11.dtd">
<svg version="1.1" xmlns="http://www.w3.org/2000/svg" xmlns:xlink="http://www.w3.org/1999/xlink" width="15.6982" height="25.8667">
 <g>
  <rect height="25.8667" opacity="0" width="15.6982" x="0" y="0"/>
  <path d="M3.32031 25.8423L12.3779 25.8423C14.3677 25.8423 15.6982 24.5728 15.6982 22.6685L15.6982 3.17383C15.6982 1.26953 14.3677 0 12.3779 0L3.32031 0C1.33057 0 0 1.26953 0 3.17383L0 22.6685C0 24.5728 1.33057 25.8423 3.32031 25.8423ZM3.57666 23.877C2.53906 23.877 1.96533 23.3276 1.96533 22.3511L1.96533 3.49121C1.96533 2.51465 2.53906 1.96533 3.57666 1.96533L12.1338 1.96533C13.1592 1.96533 13.7329 2.51465 13.7329 3.49121L13.7329 22.3511C13.7329 23.3276 13.1592 23.877 12.1338 23.877Z" fill="#5ac8f5" fill-opacity="0.5"/>
  <path d="M4.1626 22.2168L5.31006 22.2168C5.57861 22.2168 5.78613 22.0337 5.78613 21.7773L5.78613 20.5933C5.78613 20.3369 5.57861 20.1538 5.31006 20.1538L4.1626 20.1538C3.89404 20.1538 3.71094 20.3369 3.71094 20.5933L3.71094 21.7773C3.71094 22.0337 3.89404 22.2168 4.1626 22.2168ZM7.25098 22.2168L8.41064 22.2168C8.6792 22.2168 8.88672 22.0337 8.88672 21.7773L8.88672 20.5933C8.88672 20.3369 8.6792 20.1538 8.41064 20.1538L7.25098 20.1538C6.99463 20.1538 6.81152 20.3369 6.81152 20.5933L6.81152 21.7773C6.81152 22.0337 6.99463 22.2168 7.25098 22.2168ZM10.3516 22.2168L11.499 22.2168C11.7798 22.2168 11.9751 22.0337 11.9751 21.7773L11.9751 20.5933C11.9751 20.3369 11.7798 20.1538 11.499 20.1538L10.3516 20.1538C10.0952 20.1538 9.91211 20.3369 9.91211 20.5933L9.91211 21.7773C9.91211 22.0337 10.0952 22.2168 10.3516 22.2168ZM4.1626 12.4023L5.31006 12.4023C5.57861 12.4023 5.78613 12.2192 5.78613 11.9507L5.78613 10.7788C5.78613 10.5103 5.57861 10.3271 5.31006 10.3271L4.1626 10.3271C3.89404 10.3271 3.71094 10.5103 3.71094 10.7788L3.71094 11.9507C3.71094 12.2192 3.89404 12.4023 4.1626 12.4023ZM7.25098 12.4023L8.41064 12.4023C8.6792 12.4023 8.88672 12.2192 8.88672 11.9507L8.88672 10.7788C8.88672 10.5103 8.6792 10.3271 8.41064 10.3271L7.25098 10.3271C6.99463 10.3271 6.81152 10.5103 6.81152 10.7788L6.81152 11.9507C6.81152 12.2192 6.99463 12.4023 7.25098 12.4023ZM4.1626 9.08203L5.31006 9.08203C5.57861 9.08203 5.78613 8.89893 5.78613 8.64258L5.78613 7.4585C5.78613 7.18994 5.57861 7.00684 5.31006 7.00684L4.1626 7.00684C3.89404 7.00684 3.71094 7.18994 3.71094 7.4585L3.71094 8.64258C3.71094 8.89893 3.89404 9.08203 4.1626 9.08203ZM7.25098 9.08203L8.41064 9.08203C8.6792 9.08203 8.88672 8.89893 8.88672 8.64258L8.88672 7.4585C8.88672 7.18994 8.6792 7.00684 8.41064 7.00684L7.25098 7.00684C6.99463 7.00684 6.81152 7.18994 6.81152 7.4585L6.81152 8.64258C6.81152 8.89893 6.99463 9.08203 7.25098 9.08203ZM10.3516 9.08203L11.499 9.08203C11.7798 9.08203 11.9751 8.89893 11.9751 8.64258L11.9751 7.4585C11.9751 7.18994 11.7798 7.00684 11.499 7.00684L10.3516 7.00684C10.0952 7.00684 9.91211 7.18994 9.91211 7.4585L9.91211 8.64258C9.91211 8.89893 10.0952 9.08203 10.3516 9.08203ZM4.1626 5.77393L5.31006 5.77393C5.57861 5.77393 5.78613 5.59082 5.78613 5.32227L5.78613 4.15039C5.78613 3.88184 5.57861 3.69873 5.31006 3.69873L4.1626 3.69873C3.89404 3.69873 3.71094 3.88184 3.71094 4.15039L3.71094 5.32227C3.71094 5.59082 3.89404 5.77393 4.1626 5.77393ZM7.25098 5.77393L8.41064 5.77393C8.6792 5.77393 8.88672 5.59082 8.88672 5.32227L8.88672 4.15039C8.88672 3.88184 8.6792 3.69873 8.41064 3.69873L7.25098 3.69873C6.99463 3.69873 6.81152 3.88184 6.81152 4.15039L6.81152 5.32227C6.81152 5.59082 6.99463 5.77393 7.25098 5.77393ZM10.3516 5.77393L11.499 5.77393C11.7798 5.77393 11.9751 5.59082 11.9751 5.32227L11.9751 4.15039C11.9751 3.88184 11.7798 3.69873 11.499 3.69873L10.3516 3.69873C10.0952 3.69873 9.91211 3.88184 9.91211 4.15039L9.91211 5.32227C9.91211 5.59082 10.0952 5.77393 10.3516 5.77393Z" fill="#5ac8f5"/>
 </g>
</svg>
