<?xml version="1.0" encoding="UTF-8"?>
<!--Generator: Apple Native CoreSVG 175.5-->
<!DOCTYPE svg
PUBLIC "-//W3C//DTD SVG 1.1//EN"
       "http://www.w3.org/Graphics/SVG/1.1/DTD/svg11.dtd">
<svg version="1.1" xmlns="http://www.w3.org/2000/svg" xmlns:xlink="http://www.w3.org/1999/xlink" width="24.9023" height="24.9146">
 <g>
  <rect height="24.9146" opacity="0" width="24.9023" x="0" y="0"/>
  <path d="M12.4512 24.9146C19.2627 24.9146 24.9023 19.2749 24.9023 12.4634C24.9023 5.66406 19.2505 0.012207 12.439 0.012207C5.63965 0.012207 0 5.66406 0 12.4634C0 19.2749 5.65186 24.9146 12.4512 24.9146ZM7.82471 12.2192C7.82471 12.6221 7.48291 12.9272 7.03125 12.9272L5.41992 12.9272C4.99268 12.9272 4.66309 12.6099 4.66309 12.2192C4.66309 11.8408 4.99268 11.5234 5.41992 11.5234L7.03125 11.5234C7.4707 11.5234 7.82471 11.8286 7.82471 12.2192ZM9.16748 9.11865C8.88672 9.39941 8.44727 9.36279 8.14209 9.06982L6.99463 7.91016C6.67725 7.59277 6.66504 7.16553 6.93359 6.88477C7.20215 6.61621 7.6416 6.5918 7.95898 6.90918L9.13086 8.08105C9.43604 8.38623 9.46045 8.82568 9.16748 9.11865ZM12.4512 7.34863C12.0605 7.34863 11.7554 6.99463 11.7554 6.56738L11.7554 4.95605C11.7554 4.5166 12.0728 4.19922 12.4512 4.19922C12.8296 4.19922 13.1592 4.5166 13.1592 4.95605L13.1592 6.56738C13.1592 6.99463 12.8418 7.34863 12.4512 7.34863ZM15.7471 9.11865C15.4541 8.82568 15.4541 8.39844 15.7715 8.08105L16.9434 6.90918C17.2363 6.604 17.7002 6.604 17.981 6.88477C18.2373 7.17773 18.2251 7.59277 17.9077 7.91016L16.7725 9.06982C16.4673 9.375 16.0278 9.375 15.7471 9.11865ZM17.0898 12.2192C17.0898 11.8286 17.4316 11.5234 17.8711 11.5234L19.4946 11.5234C19.9219 11.5234 20.2393 11.8408 20.2393 12.2192C20.2393 12.6099 19.9219 12.9272 19.4946 12.9272L17.8711 12.9272C17.4316 12.9272 17.0898 12.6221 17.0898 12.2192ZM8.91113 13.5498C8.78906 13.1714 8.70361 12.793 8.70361 12.3901C8.70361 10.3394 10.4126 8.63037 12.4512 8.63037C14.502 8.63037 16.1987 10.3394 16.1987 12.3901C16.1987 12.793 16.1133 13.1714 15.9912 13.5498ZM5.40771 15.8447C5.0293 15.8447 4.66309 15.5396 4.66309 15.1489C4.66309 14.7461 5.01709 14.4653 5.40771 14.4653L19.5068 14.4653C19.8975 14.4653 20.2393 14.7461 20.2393 15.1489C20.2393 15.5396 19.8853 15.8447 19.5068 15.8447ZM6.28662 18.0786C5.95703 18.0786 5.68848 17.7979 5.68848 17.4805C5.68848 17.1509 5.95703 16.8701 6.28662 16.8701C6.62842 16.8701 6.88477 17.1509 6.88477 17.4805C6.88477 17.7979 6.62842 18.0786 6.28662 18.0786ZM9.375 18.0786C9.04541 18.0786 8.77686 17.7979 8.77686 17.4805C8.77686 17.1509 9.04541 16.8701 9.375 16.8701C9.70459 16.8701 9.98535 17.1509 9.98535 17.4805C9.98535 17.7979 9.70459 18.0786 9.375 18.0786ZM12.4634 18.0786C12.1338 18.0786 11.8652 17.7979 11.8652 17.4805C11.8652 17.1509 12.1338 16.8701 12.4634 16.8701C12.8052 16.8701 13.0737 17.1509 13.0737 17.4805C13.0737 17.7979 12.8052 18.0786 12.4634 18.0786ZM15.564 18.0786C15.2344 18.0786 14.9536 17.7979 14.9536 17.4805C14.9536 17.1509 15.2344 16.8701 15.564 16.8701C15.8936 16.8701 16.1499 17.1509 16.1499 17.4805C16.1499 17.7979 15.8936 18.0786 15.564 18.0786ZM18.6401 18.0786C18.3228 18.0786 18.042 17.7979 18.042 17.4805C18.042 17.1509 18.3228 16.8701 18.6401 16.8701C18.9697 16.8701 19.2505 17.1509 19.2505 17.4805C19.2505 17.7979 18.9697 18.0786 18.6401 18.0786ZM7.8125 19.7754C7.49512 19.7754 7.22656 19.5068 7.22656 19.1772C7.22656 18.8477 7.49512 18.5669 7.8125 18.5669C8.1543 18.5669 8.42285 18.8477 8.42285 19.1772C8.42285 19.5068 8.1543 19.7754 7.8125 19.7754ZM10.9131 19.7754C10.5835 19.7754 10.3149 19.5068 10.3149 19.1772C10.3149 18.8477 10.5835 18.5669 10.9131 18.5669C11.2427 18.5669 11.5234 18.8477 11.5234 19.1772C11.5234 19.5068 11.2427 19.7754 10.9131 19.7754ZM14.0015 19.7754C13.6719 19.7754 13.4033 19.5068 13.4033 19.1772C13.4033 18.8477 13.6719 18.5669 14.0015 18.5669C14.3433 18.5669 14.5996 18.8477 14.5996 19.1772C14.5996 19.5068 14.3433 19.7754 14.0015 19.7754ZM17.1021 19.7754C16.7603 19.7754 16.4917 19.5068 16.4917 19.1772C16.4917 18.8477 16.7603 18.5669 17.1021 18.5669C17.4194 18.5669 17.688 18.8477 17.688 19.1772C17.688 19.5068 17.4194 19.7754 17.1021 19.7754Z" fill="#5ac8f5"/>
 </g>
</svg>
