<?xml version="1.0" encoding="UTF-8"?>
<!--Generator: Apple Native CoreSVG 175.5-->
<!DOCTYPE svg
PUBLIC "-//W3C//DTD SVG 1.1//EN"
       "http://www.w3.org/Graphics/SVG/1.1/DTD/svg11.dtd">
<svg version="1.1" xmlns="http://www.w3.org/2000/svg" xmlns:xlink="http://www.w3.org/1999/xlink" width="29.6352" height="24.9146">
 <g>
  <rect height="24.9146" opacity="0" width="29.6352" x="0" y="0"/>
  <path d="M14.3571 5.29785C13.82 5.29785 13.3806 5.7251 13.3806 6.26221L13.3806 13.0737C13.3806 13.3545 13.466 13.5986 13.6735 13.8672L16.6887 17.8467C17.0915 18.3716 17.653 18.457 18.1535 18.1152C18.6052 17.7979 18.6418 17.2241 18.2756 16.7236L14.2106 11.2427L15.3215 14.6606L15.3215 6.26221C15.3215 5.7251 14.8942 5.29785 14.3571 5.29785ZM14.821 0C8.81512 0 3.71258 4.38232 2.60174 10.0952L0.868346 10.0952C-0.01056 10.0952-0.230287 10.6934 0.245788 11.377L2.98016 15.2588C3.38299 15.8203 3.96893 15.8081 4.35956 15.2588L7.09393 11.3647C7.5578 10.6934 7.33807 10.0952 6.47137 10.0952L4.71356 10.0952C5.76337 5.48096 9.86493 2.0874 14.821 2.0874C18.3 2.09961 21.3517 3.77197 23.2194 6.37207C23.5856 6.87256 24.1716 7.03125 24.6721 6.71387C25.1725 6.4209 25.3068 5.74951 24.8918 5.2124C22.5724 2.09961 18.9348 0 14.821 0ZM14.821 24.9023C20.8268 24.9023 25.9294 20.5078 27.0402 14.8071L28.7614 14.8071C29.6403 14.8071 29.8723 14.209 29.384 13.5254L26.6618 9.64355C26.259 9.08203 25.673 9.09424 25.2824 9.64355L22.548 13.5376C22.072 14.209 22.3039 14.8071 23.1706 14.8071L24.9406 14.8071C23.8786 19.4092 19.7648 22.8271 14.821 22.8271C11.342 22.8149 8.29022 21.1304 6.42255 18.5303C6.04413 18.0298 5.4704 17.8711 4.9577 18.1763C4.46942 18.4814 4.33514 19.1528 4.75018 19.6899C7.06952 22.8027 10.7072 24.9023 14.821 24.9023Z" fill="#5ac8f5"/>
 </g>
</svg>
