<?xml version="1.0" encoding="UTF-8"?>
<!--Generator: Apple Native CoreSVG 175.5-->
<!DOCTYPE svg
PUBLIC "-//W3C//DTD SVG 1.1//EN"
       "http://www.w3.org/Graphics/SVG/1.1/DTD/svg11.dtd">
<svg version="1.1" xmlns="http://www.w3.org/2000/svg" xmlns:xlink="http://www.w3.org/1999/xlink" width="24.9023" height="24.9146">
 <g>
  <rect height="24.9146" opacity="0" width="24.9023" x="0" y="0"/>
  <path d="M12.4512 24.9023C19.2627 24.9023 24.9023 19.2505 24.9023 12.4512C24.9023 5.63965 19.2505 0 12.439 0C5.63965 0 0 5.63965 0 12.4512C0 19.2505 5.65186 24.9023 12.4512 24.9023Z" fill="#5ac8f5" fill-opacity="0.25"/>
  <path d="M16.394 9.32617C16.9434 9.32617 17.3218 9.74121 17.3218 10.3394L17.3218 16.272C17.3218 17.0166 16.9067 17.3096 16.2598 17.3096L10.3027 17.3096C9.70459 17.3096 9.32617 16.9434 9.32617 16.3818C9.32617 15.8325 9.7168 15.4663 10.3271 15.4663L12.5977 15.4663L14.4653 15.6616L12.5 13.8184L7.87354 9.21631C7.69043 9.0332 7.56836 8.77686 7.56836 8.53271C7.56836 7.95898 7.94678 7.59277 8.49609 7.59277C8.80127 7.59277 9.0332 7.70264 9.22852 7.88574L13.8306 12.5L15.6494 14.4409L15.4663 12.4756L15.4663 10.3149C15.4663 9.70459 15.8325 9.32617 16.394 9.32617Z" fill="#5ac8f5"/>
 </g>
</svg>
