<?xml version="1.0" encoding="UTF-8"?>
<!--Generator: Apple Native CoreSVG 175.5-->
<!DOCTYPE svg
PUBLIC "-//W3C//DTD SVG 1.1//EN"
       "http://www.w3.org/Graphics/SVG/1.1/DTD/svg11.dtd">
<svg version="1.1" xmlns="http://www.w3.org/2000/svg" xmlns:xlink="http://www.w3.org/1999/xlink" width="31.8115" height="22.1795">
 <g>
  <rect height="22.1795" opacity="0" width="31.8115" x="0" y="0"/>
  <path d="M11.792 11.0837C11.792 13.3786 11.9507 15.6125 12.5854 17.8586C13.3301 20.3488 14.7095 21.2399 17.6392 21.2399L18.3228 21.2399C25.4761 21.2399 31.8115 16.5646 31.8115 11.0837C31.8115 5.6149 25.4761 0.927401 18.3228 0.927401L17.6392 0.927401C14.7217 0.927401 13.3423 1.81851 12.5854 4.30875C11.9507 6.56705 11.792 8.80094 11.792 11.0837ZM13.7817 11.0837C13.7817 8.5568 13.9771 6.68912 14.502 4.85807C14.9292 3.44205 15.7837 2.91715 17.6392 2.91715L18.3228 2.91715C24.3164 2.91715 29.8218 6.73795 29.8218 11.0837C29.8218 15.4294 24.3164 19.2502 18.3228 19.2502L17.6392 19.2502C15.7593 19.2502 14.917 18.7253 14.502 17.3214C13.9771 15.466 13.7817 13.6227 13.7817 11.0837ZM0.817871 7.18961C0.305176 7.32389 0 7.7023 0 8.19058C0 8.83756 0.512695 9.2526 1.23291 9.06949L9.8999 6.76236C10.0342 5.72476 10.144 5.39517 10.2661 4.66275ZM0.817871 11.5353C0.305176 11.6696 0 12.0602 0 12.5485C0 13.1955 0.537109 13.6105 1.23291 13.4274L9.60693 11.1813C9.61914 10.4733 9.61914 9.97281 9.64355 9.17935ZM0.817871 15.8932C0.305176 16.0275 0 16.4181 0 16.8942C0 17.5534 0.512695 17.9684 1.23291 17.7731L9.87549 15.4782C9.77783 14.8556 9.7168 14.2087 9.66797 13.5373ZM0.817871 20.2511C0.305176 20.3854 0 20.7638 0 21.2521C0 21.9113 0.524902 22.3263 1.23291 22.131L10.8643 19.5553C10.6445 19.0182 10.4126 18.2736 10.2783 17.7243Z" fill="#5ac8f5" fill-opacity="0.5"/>
  <path d="M17.1997 15.6613C17.6025 15.6613 17.8833 15.466 18.0542 14.9533L18.8599 12.6217L22.7783 12.6217L23.5718 14.9533C23.7427 15.466 24.0234 15.6613 24.4263 15.6613C24.9146 15.6613 25.2441 15.3561 25.2441 14.8922C25.2441 14.7213 25.2075 14.5627 25.1343 14.3185L22.0459 6.02994C21.8384 5.45621 21.3989 5.16324 20.8008 5.16324C20.2026 5.16324 19.7998 5.45621 19.5801 6.02994L16.5039 14.3185C16.4062 14.5627 16.3818 14.7213 16.3818 14.8922C16.3818 15.3561 16.6992 15.6613 17.1997 15.6613ZM19.2993 11.2912L20.7642 7.05533L20.874 7.05533L22.3267 11.2912Z" fill="#5ac8f5"/>
 </g>
</svg>
