<?xml version="1.0" encoding="UTF-8"?>
<!--Generator: Apple Native CoreSVG 175.5-->
<!DOCTYPE svg
PUBLIC "-//W3C//DTD SVG 1.1//EN"
       "http://www.w3.org/Graphics/SVG/1.1/DTD/svg11.dtd">
<svg version="1.1" xmlns="http://www.w3.org/2000/svg" xmlns:xlink="http://www.w3.org/1999/xlink" width="23.9258" height="25.8179">
 <g>
  <rect height="25.8179" opacity="0" width="23.9258" x="0" y="0"/>
  <path d="M11.5601 25.8179L12.3535 25.8179C14.3433 25.8179 15.3076 24.939 15.3076 23.0835L15.3076 18.6768L19.104 20.8862C19.6777 21.2158 20.2026 21.3745 20.6787 21.3745C21.5576 21.3745 22.3022 20.8252 22.9492 19.7144L23.3521 19.0186C23.7305 18.3594 23.9258 17.7612 23.9258 17.2241C23.9258 16.3696 23.4253 15.6616 22.4487 15.1001L18.6401 12.9028L22.4365 10.7056C23.4253 10.144 23.9136 9.43604 23.9136 8.58154C23.9136 8.05664 23.7183 7.4585 23.3398 6.79932L22.9492 6.11572C22.29 4.99268 21.5454 4.44336 20.6543 4.44336C20.1782 4.44336 19.6655 4.60205 19.0918 4.93164L15.3076 7.1167L15.3076 2.73438C15.3076 0.878906 14.3433 0 12.3535 0L11.5601 0C9.57031 0 8.61816 0.878906 8.61816 2.73438L8.61816 7.1167L4.83398 4.93164C4.27246 4.60205 3.74756 4.44336 3.27148 4.44336C2.38037 4.44336 1.63574 4.99268 0.976562 6.11572L0.585938 6.79932C0.20752 7.4585 0.012207 8.05664 0.012207 8.58154C0.012207 9.43604 0.512695 10.144 1.48926 10.7056L5.28564 12.9028L1.48926 15.1001C0.500488 15.6616 0 16.3696 0 17.2241C0 17.7612 0.195312 18.3594 0.57373 19.0186L0.976562 19.7144C1.62354 20.8252 2.36816 21.3745 3.24707 21.3745C3.72314 21.3745 4.26025 21.2158 4.82178 20.8862L8.61816 18.6768L8.61816 23.0835C8.61816 24.939 9.57031 25.8179 11.5601 25.8179ZM11.8896 23.9868C10.8887 23.9868 10.5591 23.6938 10.5591 22.7295L10.5591 15.8325C10.5591 15.6494 10.4492 15.5273 10.2905 15.5273C10.2417 15.5273 10.1929 15.5396 10.1318 15.5762L4.1626 19.0308C3.84521 19.2139 3.58887 19.2993 3.35693 19.2993C2.99072 19.2993 2.72217 19.043 2.41699 18.5059L2.33154 18.3838C2.13623 18.0298 2.02637 17.749 2.02637 17.5049C2.02637 17.1509 2.24609 16.8823 2.75879 16.6016L8.82568 13.0859C8.93555 13.0249 8.99658 12.9272 8.99658 12.8296C8.99658 12.7197 8.93555 12.6221 8.81348 12.561L2.771 9.21631C2.27051 8.92334 2.03857 8.65479 2.03857 8.30078C2.03857 8.06885 2.13623 7.78809 2.33154 7.43408L2.41699 7.2998C2.72217 6.75049 3.00293 6.50635 3.36914 6.50635C3.60107 6.50635 3.85742 6.5918 4.1748 6.7749L10.1074 10.2173C10.1685 10.2539 10.2173 10.2661 10.2783 10.2661C10.4492 10.2661 10.5591 10.144 10.5591 9.94873L10.5591 3.08838C10.5591 2.12402 10.8887 1.83105 11.8896 1.83105L12.0361 1.83105C13.0371 1.83105 13.3667 2.12402 13.3667 3.08838L13.3667 9.94873C13.3667 10.1318 13.4766 10.2661 13.6353 10.2661C13.6963 10.2661 13.7451 10.2539 13.8062 10.2173L19.7632 6.7749C20.0806 6.5918 20.3369 6.50635 20.5566 6.50635C20.9229 6.50635 21.2036 6.75049 21.521 7.2998L21.5942 7.43408C21.7896 7.78809 21.8994 8.06885 21.8994 8.30078C21.8994 8.65479 21.6675 8.92334 21.167 9.21631L15.1245 12.561C15.0024 12.6221 14.9292 12.7197 14.9292 12.8296C14.9292 12.9272 15.0024 13.0127 15.1123 13.0859L21.1792 16.6016C21.6797 16.8823 21.9116 17.1509 21.9116 17.5049C21.9116 17.749 21.7896 18.0298 21.5942 18.3838L21.521 18.5059C21.2036 19.043 20.9351 19.2993 20.5688 19.2993C20.3369 19.2993 20.0806 19.2017 19.7754 19.0308L13.7939 15.5762C13.7329 15.5396 13.6963 15.5273 13.6353 15.5273C13.4766 15.5273 13.3667 15.6494 13.3667 15.8325L13.3667 22.7295C13.3667 23.6938 13.0371 23.9868 12.0361 23.9868Z" fill="#5ac8f5"/>
 </g>
</svg>
