<?xml version="1.0" encoding="UTF-8"?>
<!--Generator: Apple Native CoreSVG 175.5-->
<!DOCTYPE svg
PUBLIC "-//W3C//DTD SVG 1.1//EN"
       "http://www.w3.org/Graphics/SVG/1.1/DTD/svg11.dtd">
<svg version="1.1" xmlns="http://www.w3.org/2000/svg" xmlns:xlink="http://www.w3.org/1999/xlink" width="28.1128" height="27.7466">
 <g>
  <rect height="27.7466" opacity="0" width="28.1128" x="0" y="0"/>
  <path d="M14.0625 4.71191C14.9536 4.71191 15.6616 3.91846 15.6616 2.89307C15.6616 1.84326 15.332 1.15967 14.7461 0.476074C14.3555-0.012207 13.8306-0.0244141 13.4277 0.402832C12.8418 1.11084 12.4634 1.80664 12.4634 2.89307C12.4634 3.91846 13.1836 4.71191 14.0625 4.71191ZM13.3667 10.3394L14.7217 10.3394L14.7217 3.40576L13.3667 3.40576ZM6.09131 14.1113L22.0337 14.1113L22.0337 13.2568C22.0337 10.8398 20.7886 9.60693 18.335 9.60693L9.79004 9.60693C7.34863 9.60693 6.09131 10.8398 6.09131 13.2568ZM1.92871 26.8921L26.1841 26.8921L26.1841 19.4214C26.1841 17.0044 24.939 15.7715 22.4976 15.7715L5.62744 15.7715C3.18604 15.7715 1.92871 17.0044 1.92871 19.4214ZM14.0503 21.7407C12.8418 21.7407 11.9873 23.1567 10.2417 23.1567C8.55713 23.1567 7.75146 21.7407 6.62842 21.7407C5.48096 21.7407 4.67529 23.1567 2.39258 23.1567L1.92871 23.1567L1.92871 21.5454L2.39258 21.5454C4.12598 21.5454 4.96826 20.1294 6.62842 20.1294C8.25195 20.1294 8.91113 21.5454 10.2417 21.5454C11.8042 21.5454 12.3901 20.1294 14.0503 20.1294C15.7104 20.1294 16.2964 21.5454 17.8711 21.5454C19.2017 21.5454 19.8486 20.1294 21.4844 20.1294C23.1201 20.1294 23.9746 21.5454 25.6958 21.5454L26.1841 21.5454L26.1841 23.1567L25.6958 23.1567C23.4253 23.1567 22.6074 21.7407 21.4844 21.7407C20.3369 21.7407 19.5435 23.1567 17.8711 23.1567C16.1133 23.1567 15.2466 21.7407 14.0503 21.7407ZM0.976562 27.7466L27.1362 27.7466C27.6733 27.7466 28.1128 27.2949 28.1128 26.7578C28.1128 26.2207 27.6733 25.7812 27.1362 25.7812L0.976562 25.7812C0.439453 25.7812 0 26.2207 0 26.7578C0 27.2949 0.439453 27.7466 0.976562 27.7466Z" fill="#5ac8f5"/>
 </g>
</svg>
