<?xml version="1.0" encoding="UTF-8"?>
<!--Generator: Apple Native CoreSVG 175.5-->
<!DOCTYPE svg
PUBLIC "-//W3C//DTD SVG 1.1//EN"
       "http://www.w3.org/Graphics/SVG/1.1/DTD/svg11.dtd">
<svg version="1.1" xmlns="http://www.w3.org/2000/svg" xmlns:xlink="http://www.w3.org/1999/xlink" width="26.2677" height="23.0103">
 <g>
  <rect height="23.0103" opacity="0" width="26.2677" x="0" y="0"/>
  <path d="M20.9821 23.0103C23.9118 23.0103 26.2677 20.7153 26.2677 17.8467C26.2677 16.2598 25.4743 14.7095 24.8029 13.4521L22.0807 8.38623C21.7878 7.83691 21.5192 7.60498 20.9821 7.60498C20.4328 7.60498 20.1642 7.83691 19.8713 8.38623L17.1735 13.4521C16.5021 14.7095 15.7087 16.2598 15.7087 17.8467C15.7087 20.7153 18.0524 23.0103 20.9821 23.0103ZM20.9821 21.3989C18.9435 21.3989 17.32 19.8364 17.32 17.8467C17.32 16.6382 17.9425 15.4663 18.6017 14.209L20.8722 9.99756C20.9333 9.87549 21.0431 9.87549 21.1164 9.99756L23.3503 14.209C24.0217 15.4663 24.6564 16.6382 24.6564 17.8467C24.6564 19.8364 23.0207 21.3989 20.9821 21.3989ZM4.95427 8.23975C10.3864 8.23975 13.3283 3.6377 18.443 3.6377C19.6393 3.6377 20.7013 3.90625 21.9465 4.61426C22.4714 4.90723 22.9596 4.71191 23.216 4.3457C23.5212 3.90625 23.4845 3.24707 22.8009 2.84424C21.4216 2.05078 20.0055 1.67236 18.443 1.67236C12.901 1.67236 9.98356 6.27441 4.95427 6.27441C3.74577 6.27441 2.68376 6.00586 1.43864 5.29785C0.913741 5.00488 0.425459 5.2002 0.169112 5.57861C-0.11165 6.01807-0.087236 6.67725 0.584151 7.06787C1.96355 7.86133 3.37956 8.23975 4.95427 8.23975ZM4.96647 14.7949C9.80046 14.7949 12.6813 11.0962 16.9172 10.3638C17.2956 9.64355 17.6862 8.94775 18.0646 8.22754C12.6447 8.48389 9.89812 12.8296 4.96647 12.8296C3.75798 12.8296 2.69597 12.5488 1.45085 11.8408C0.938155 11.5479 0.437666 11.7432 0.193526 12.1216C-0.0994431 12.561-0.075029 13.2202 0.596358 13.6108C1.97575 14.4043 3.40397 14.7949 4.96647 14.7949ZM4.95427 21.3379C8.64079 21.3379 11.2043 19.165 14.0973 17.8345C14.0363 17.2974 14.1828 16.333 14.4025 15.6128C11.1554 16.9189 8.61638 19.3726 4.95427 19.3726C3.74577 19.3726 2.68376 19.104 1.43864 18.3838C0.913741 18.0908 0.425459 18.2861 0.169112 18.6646C-0.11165 19.104-0.087236 19.7754 0.584151 20.1538C1.96355 20.9595 3.37956 21.3379 4.95427 21.3379Z" fill="#5ac8f5"/>
 </g>
</svg>
