<?xml version="1.0" encoding="UTF-8"?>
<!--Generator: Apple Native CoreSVG 175.5-->
<!DOCTYPE svg
PUBLIC "-//W3C//DTD SVG 1.1//EN"
       "http://www.w3.org/Graphics/SVG/1.1/DTD/svg11.dtd">
<svg version="1.1" xmlns="http://www.w3.org/2000/svg" xmlns:xlink="http://www.w3.org/1999/xlink" width="25.8301" height="25.5737">
 <g>
  <rect height="25.5737" opacity="0" width="25.8301" x="0" y="0"/>
  <path d="M9.75342 25.5737L22.0093 25.5737C24.5483 25.5737 25.8301 24.3042 25.8301 21.7896L25.8301 9.44824C25.8301 6.93359 24.5483 5.66406 22.0093 5.66406L9.75342 5.66406C7.18994 5.66406 5.92041 6.92139 5.92041 9.44824L5.92041 21.7896C5.92041 24.3164 7.18994 25.5737 9.75342 25.5737ZM0 16.1499C0 18.6646 1.26953 19.9219 3.83301 19.9219L4.24805 19.9219L4.24805 9.44824C4.24805 5.99365 6.27441 3.9917 9.75342 3.9917L19.9097 3.9917L19.9097 3.79639C19.9097 1.28174 18.6279 0.012207 16.0889 0.012207L3.83301 0.012207C1.26953 0.012207 0 1.26953 0 3.79639ZM9.92432 15.6372C9.92432 14.9902 10.3638 14.563 11.0107 14.563L14.8315 14.563L14.8315 10.7422C14.8315 10.1074 15.2466 9.65576 15.8691 9.65576C16.5039 9.65576 16.9434 10.0952 16.9434 10.7422L16.9434 14.563L20.7764 14.563C21.3989 14.563 21.8506 14.9902 21.8506 15.6372C21.8506 16.2476 21.3989 16.6748 20.7764 16.6748L16.9434 16.6748L16.9434 20.5078C16.9434 21.1304 16.5039 21.582 15.8691 21.582C15.2466 21.582 14.8315 21.1304 14.8315 20.5078L14.8315 16.6748L11.0107 16.6748C10.376 16.6748 9.92432 16.2476 9.92432 15.6372Z" fill="#5ac8f5"/>
 </g>
</svg>
