<?xml version="1.0" encoding="UTF-8"?>
<!--Generator: Apple Native CoreSVG 175.5-->
<!DOCTYPE svg
PUBLIC "-//W3C//DTD SVG 1.1//EN"
       "http://www.w3.org/Graphics/SVG/1.1/DTD/svg11.dtd">
<svg version="1.1" xmlns="http://www.w3.org/2000/svg" xmlns:xlink="http://www.w3.org/1999/xlink" width="22.4731" height="22.522">
 <g>
  <rect height="22.522" opacity="0" width="22.4731" x="0" y="0"/>
  <path d="M3.83301 22.4731L18.6401 22.4731C21.2036 22.4731 22.4731 21.2036 22.4731 18.689L22.4731 3.78418C22.4731 1.26953 21.2036 0 18.6401 0L3.83301 0C1.28174 0 0 1.25732 0 3.78418L0 18.689C0 21.2158 1.28174 22.4731 3.83301 22.4731ZM3.85742 20.5078C2.63672 20.5078 1.96533 19.8608 1.96533 18.5913L1.96533 3.88184C1.96533 2.62451 2.63672 1.96533 3.85742 1.96533L18.6157 1.96533C19.8242 1.96533 20.5078 2.62451 20.5078 3.88184L20.5078 18.5913C20.5078 19.8608 19.8242 20.5078 18.6157 20.5078ZM17.5537 12.7075C17.5537 9.77783 15.4297 7.99561 12.5854 7.99561L8.93555 7.99561L7.49512 8.04443L8.45947 7.27539L9.7168 6.05469C9.8877 5.9082 9.99756 5.67627 9.99756 5.43213C9.99756 4.91943 9.61914 4.54102 9.11865 4.54102C8.8623 4.54102 8.66699 4.62646 8.49609 4.80957L5.24902 8.09326C5.05371 8.30078 4.93164 8.55713 4.93164 8.8501C4.93164 9.13086 5.05371 9.375 5.24902 9.58252L8.5083 12.915C8.6792 13.0859 8.87451 13.1592 9.13086 13.1592C9.61914 13.1592 9.99756 12.7808 9.99756 12.2803C9.99756 12.0483 9.91211 11.8042 9.729 11.6455L8.20312 10.1807L7.49512 9.65576L8.93555 9.70459L12.5854 9.70459C14.3799 9.70459 15.7593 10.73 15.7593 12.6099C15.7593 14.5386 14.4165 15.7227 12.5732 15.7227C12.4268 15.7227 10.9253 15.7227 10.8765 15.7227C10.3516 15.7227 9.94873 16.04 9.94873 16.6016C9.94873 17.1631 10.3516 17.4683 10.9009 17.4683C10.9619 17.4683 12.4268 17.4683 12.5732 17.4683C15.4175 17.4683 17.5537 15.6494 17.5537 12.7075Z" fill="#5ac8f5"/>
 </g>
</svg>
