<?xml version="1.0" encoding="UTF-8"?>
<!--Generator: Apple Native CoreSVG 175.5-->
<!DOCTYPE svg
PUBLIC "-//W3C//DTD SVG 1.1//EN"
       "http://www.w3.org/Graphics/SVG/1.1/DTD/svg11.dtd">
<svg version="1.1" xmlns="http://www.w3.org/2000/svg" xmlns:xlink="http://www.w3.org/1999/xlink" width="24.9023" height="24.9146">
 <g>
  <rect height="24.9146" opacity="0" width="24.9023" x="0" y="0"/>
  <path d="M12.4512 24.9146C19.2627 24.9146 24.9023 19.2749 24.9023 12.4634C24.9023 5.66406 19.2505 0.012207 12.439 0.012207C5.63965 0.012207 0 5.66406 0 12.4634C0 19.2749 5.65186 24.9146 12.4512 24.9146ZM6.604 9.15527L6.65283 9.06982C7.04346 8.27637 7.43408 8.19092 8.21533 8.63037L11.2427 10.4004L11.2427 6.87256C11.2427 6.03027 11.5356 5.74951 12.4268 5.74951L12.5122 5.74951C13.3789 5.74951 13.6719 6.03027 13.6719 6.87256L13.6719 10.4004L16.6992 8.63037C17.4927 8.1665 17.8833 8.27637 18.2617 9.06982L18.3105 9.15527C18.7012 9.92432 18.6035 10.3027 17.8833 10.6934L14.7095 12.4023L17.8955 14.2456C18.5913 14.6484 18.6768 15.0269 18.2983 15.7959L18.2617 15.8569C17.8711 16.6382 17.4927 16.748 16.7236 16.2964L13.6719 14.5264L13.6719 18.0542C13.6719 18.9087 13.3789 19.1895 12.5122 19.1895L12.4268 19.1895C11.5356 19.1895 11.2427 18.9087 11.2427 18.0542L11.2427 14.5264L8.19092 16.2964C7.4707 16.7236 7.08008 16.626 6.65283 15.8569L6.62842 15.7959C6.20117 15.0391 6.29883 14.6729 7.01904 14.2456L10.2051 12.4023L7.03125 10.6934C6.31104 10.3149 6.21338 9.93652 6.604 9.15527Z" fill="#5ac8f5"/>
 </g>
</svg>
