<?xml version="1.0" encoding="UTF-8"?>
<!--Generator: Apple Native CoreSVG 175.5-->
<!DOCTYPE svg
PUBLIC "-//W3C//DTD SVG 1.1//EN"
       "http://www.w3.org/Graphics/SVG/1.1/DTD/svg11.dtd">
<svg version="1.1" xmlns="http://www.w3.org/2000/svg" xmlns:xlink="http://www.w3.org/1999/xlink" width="22.4731" height="22.4976">
 <g>
  <rect height="22.4976" opacity="0" width="22.4731" x="0" y="0"/>
  <path d="M3.83301 22.4976L18.6401 22.4976C21.2036 22.4976 22.4731 21.228 22.4731 18.7134L22.4731 3.80859C22.4731 1.29395 21.2036 0.0244141 18.6401 0.0244141L3.83301 0.0244141C1.28174 0.0244141 0 1.28174 0 3.80859L0 18.7134C0 21.2402 1.28174 22.4976 3.83301 22.4976Z" fill="#5ac8f5" fill-opacity="0.25"/>
  <path d="M4.78516 16.3818C4.3335 16.3818 4.05273 16.0889 4.05273 15.6372C4.05273 15.3809 4.12598 15.1733 4.32129 14.9536L7.6416 11.0596C8.23975 10.3516 8.89893 9.65576 8.89893 8.82568C8.89893 7.89795 8.25195 7.27539 7.22656 7.27539C6.33545 7.27539 5.70068 7.73926 5.3833 8.6792C5.22461 9.05762 5.0293 9.27734 4.66309 9.27734C4.22363 9.27734 3.95508 8.97217 3.95508 8.5083C3.95508 8.36182 3.97949 8.22754 4.01611 8.05664C4.3335 6.7749 5.66406 5.82275 7.16553 5.82275C9.14307 5.82275 10.4248 6.9458 10.4248 8.69141C10.4248 9.94873 9.74121 10.8643 8.80127 11.9385L6.34766 14.8071L6.34766 14.8926L9.99756 14.8926C10.3882 14.8926 10.6934 15.1611 10.6934 15.625C10.6934 16.0767 10.3882 16.3818 9.99756 16.3818ZM13.147 16.3818C12.6953 16.3818 12.4023 16.0889 12.4023 15.6372C12.4023 15.3809 12.4878 15.1733 12.6831 14.9536L16.0034 11.0596C16.6016 10.3516 17.2607 9.65576 17.2607 8.82568C17.2607 7.89795 16.6016 7.27539 15.5884 7.27539C14.6851 7.27539 14.0625 7.73926 13.7451 8.6792C13.562 9.05762 13.3789 9.27734 13.0127 9.27734C12.5854 9.27734 12.3169 8.97217 12.3169 8.5083C12.3169 8.36182 12.3413 8.22754 12.3657 8.05664C12.6953 6.7749 14.0259 5.82275 15.5273 5.82275C17.5049 5.82275 18.7866 6.9458 18.7866 8.69141C18.7866 9.94873 18.0908 10.8643 17.1631 11.9385L14.7095 14.8071L14.7095 14.8926L18.3594 14.8926C18.75 14.8926 19.0552 15.1611 19.0552 15.625C19.0552 16.0767 18.75 16.3818 18.3594 16.3818Z" fill="#5ac8f5"/>
 </g>
</svg>
