<?xml version="1.0" encoding="UTF-8"?>
<!--Generator: Apple Native CoreSVG 175.5-->
<!DOCTYPE svg
PUBLIC "-//W3C//DTD SVG 1.1//EN"
       "http://www.w3.org/Graphics/SVG/1.1/DTD/svg11.dtd">
<svg version="1.1" xmlns="http://www.w3.org/2000/svg" xmlns:xlink="http://www.w3.org/1999/xlink" width="22.4731" height="22.7661">
 <g>
  <rect height="22.7661" opacity="0" width="22.4731" x="0" y="0"/>
  <path d="M3.83301 22.7661L18.6401 22.7661C21.2036 22.7661 22.4731 21.5088 22.4731 18.9941L22.4731 4.07715C22.4731 1.5625 21.2036 0.292969 18.6401 0.292969L3.83301 0.292969C1.28174 0.292969 0 1.5625 0 4.07715L0 18.9941C0 21.5088 1.28174 22.7661 3.83301 22.7661ZM3.85742 20.8008C2.63672 20.8008 1.96533 20.1538 1.96533 18.8843L1.96533 4.18701C1.96533 2.91748 2.63672 2.2583 3.85742 2.2583L18.6157 2.2583C19.8242 2.2583 20.5078 2.91748 20.5078 4.18701L20.5078 18.8843C20.5078 20.1538 19.8242 20.8008 18.6157 20.8008ZM8.09326 18.7012L14.4043 18.7012C15.2222 18.7012 15.7227 18.2495 15.7593 17.4194L16.1743 7.77588L17.1387 7.77588C17.4316 7.77588 17.6514 7.53174 17.6636 7.25098C17.6758 6.97021 17.4316 6.72607 17.1387 6.72607L14.2212 6.72607L14.2212 5.7373C14.2212 4.73633 13.5376 4.10156 12.4756 4.10156L10.0098 4.10156C8.93555 4.10156 8.27637 4.73633 8.27637 5.7373L8.27637 6.72607L5.33447 6.72607C5.05371 6.72607 4.80957 6.97021 4.80957 7.25098C4.80957 7.53174 5.05371 7.77588 5.33447 7.77588L6.33545 7.77588L6.7627 17.4194C6.78711 18.2495 7.26318 18.7012 8.09326 18.7012ZM9.14307 16.8213C8.89893 16.8213 8.70361 16.6504 8.70361 16.4062L8.44727 9.27734C8.44727 9.00879 8.61816 8.83789 8.89893 8.83789C9.14307 8.83789 9.33838 9.00879 9.33838 9.26514L9.57031 16.394C9.57031 16.6382 9.42383 16.8213 9.14307 16.8213ZM11.2305 16.8091C10.9619 16.8091 10.7788 16.6382 10.7788 16.394L10.7788 9.26514C10.7788 9.00879 10.9497 8.83789 11.2305 8.83789C11.499 8.83789 11.6821 9.00879 11.6821 9.26514L11.6821 16.394C11.6821 16.6382 11.499 16.8091 11.2305 16.8091ZM13.3057 16.8213C13.0371 16.8213 12.8784 16.6382 12.8784 16.394L13.1104 9.26514C13.1226 9.00879 13.3057 8.83789 13.562 8.83789C13.8428 8.83789 14.0015 9.00879 14.0015 9.27734L13.7451 16.4062C13.7451 16.6504 13.5498 16.8213 13.3057 16.8213ZM9.50928 6.72607L9.50928 5.81055C9.50928 5.49316 9.74121 5.28564 10.0708 5.28564L12.3901 5.28564C12.7197 5.28564 12.9517 5.49316 12.9517 5.81055L12.9517 6.72607Z" fill="#5ac8f5"/>
 </g>
</svg>
