<?xml version="1.0" encoding="UTF-8"?>
<!--Generator: Apple Native CoreSVG 175.5-->
<!DOCTYPE svg
PUBLIC "-//W3C//DTD SVG 1.1//EN"
       "http://www.w3.org/Graphics/SVG/1.1/DTD/svg11.dtd">
<svg version="1.1" xmlns="http://www.w3.org/2000/svg" xmlns:xlink="http://www.w3.org/1999/xlink" width="26.9043" height="26.8188">
 <g>
  <rect height="26.8188" opacity="0" width="26.9043" x="0" y="0"/>
  <path d="M7.50732 26.8188C8.10547 26.8188 8.52051 26.5015 9.26514 25.8423L13.4766 22.0947L21.3135 22.0947C24.9512 22.0947 26.9043 20.0806 26.9043 16.5039L26.9043 7.15332C26.9043 3.57666 24.9512 1.5625 21.3135 1.5625L5.59082 1.5625C1.95312 1.5625 0 3.56445 0 7.15332L0 16.5039C0 20.0928 1.95312 22.0947 5.59082 22.0947L6.17676 22.0947L6.17676 25.2686C6.17676 26.2085 6.65283 26.8188 7.50732 26.8188ZM8.00781 24.585L8.00781 21.0449C8.00781 20.3857 7.75146 20.1294 7.09229 20.1294L5.59082 20.1294C3.125 20.1294 1.96533 18.8721 1.96533 16.4917L1.96533 7.15332C1.96533 4.77295 3.125 3.52783 5.59082 3.52783L21.3135 3.52783C23.7671 3.52783 24.939 4.77295 24.939 7.15332L24.939 16.4917C24.939 18.8721 23.7671 20.1294 21.3135 20.1294L13.4033 20.1294C12.7197 20.1294 12.3779 20.2271 11.9141 20.7031Z" fill="#5ac8f5" fill-opacity="0.5"/>
  <path d="M12.1338 17.627C12.5366 17.627 12.8784 17.4316 13.1104 17.0532L18.689 8.27637C18.8354 8.04443 18.9941 7.76367 18.9941 7.49512C18.9941 6.9458 18.5059 6.5918 17.9932 6.5918C17.6758 6.5918 17.3706 6.78711 17.1509 7.14111L12.0728 15.271L9.66797 12.1582C9.38721 11.7676 9.10645 11.6699 8.77686 11.6699C8.23975 11.6699 7.83691 12.0972 7.83691 12.6343C7.83691 12.9028 7.93457 13.1592 8.10547 13.3911L11.084 17.0532C11.4014 17.4561 11.7188 17.627 12.1338 17.627Z" fill="#5ac8f5"/>
 </g>
</svg>
