<?xml version="1.0" encoding="UTF-8"?>
<!--Generator: Apple Native CoreSVG 175.5-->
<!DOCTYPE svg
PUBLIC "-//W3C//DTD SVG 1.1//EN"
       "http://www.w3.org/Graphics/SVG/1.1/DTD/svg11.dtd">
<svg version="1.1" xmlns="http://www.w3.org/2000/svg" xmlns:xlink="http://www.w3.org/1999/xlink" width="24.9023" height="29.6406">
 <g>
  <rect height="29.6406" opacity="0" width="24.9023" x="0" y="0"/>
  <path d="M0 14.8142C0 21.6257 5.65186 27.2654 12.4512 27.2654C19.2627 27.2654 24.9023 21.6257 24.9023 14.8142C24.9023 10.7126 22.8271 7.02611 19.6899 4.7434C19.1528 4.32836 18.4814 4.46263 18.1763 4.96312C17.8711 5.47582 18.0298 6.04955 18.5303 6.42797C21.1304 8.28343 22.8149 11.3474 22.8271 14.8142C22.8394 20.5759 18.2129 25.1902 12.4512 25.1902C6.68945 25.1902 2.0874 20.5759 2.0874 14.8142C2.0874 9.87035 5.48096 5.76879 10.0952 4.71898L10.0952 6.46459C10.0952 7.33129 10.6934 7.56322 11.3647 7.08715L15.2588 4.35277C15.8081 3.97435 15.8203 3.38842 15.2588 2.98558L11.377 0.251208C10.6934-0.237073 10.0952-0.00513969 10.0952 0.873767L10.0952 2.59496C4.38232 3.718 0 8.80834 0 14.8142Z" fill="#5ac8f5" fill-opacity="0.5"/>
  <path d="M9.86328 19.9289C10.3394 19.9289 10.6323 19.5871 10.6323 19.0134L10.6323 18.0002L11.2183 18.0002C11.6333 18.0002 11.9141 17.7317 11.9141 17.3044C11.9141 16.8894 11.6333 16.6208 11.2183 16.6208L10.6323 16.6208L10.6323 11.4328C10.6323 10.676 10.1074 10.322 9.41162 10.322C8.75244 10.322 8.37402 10.5661 7.99561 11.2131C7.1167 12.678 6.01807 14.5578 5.18799 16.0593C4.99268 16.4255 4.93164 16.6697 4.93164 17.0237C4.93164 17.6096 5.29785 18.0002 5.93262 18.0002L9.13086 18.0002L9.13086 19.0134C9.13086 19.5871 9.39941 19.9289 9.86328 19.9289ZM6.53076 16.6208L6.53076 16.5842C7.38525 14.9851 8.22754 13.3982 9.08203 11.8113L9.13086 11.8113L9.13086 16.6208ZM16.0522 19.9656C18.0786 19.9656 19.4214 18.6594 19.4214 16.6941C19.4214 14.8996 18.2129 13.6179 16.4673 13.6179C15.6982 13.6179 14.856 13.9963 14.5386 14.6189L14.5996 14.6189L14.8193 11.8601L18.4692 11.8601C18.8232 11.8601 19.1406 11.5671 19.1406 11.1521C19.1406 10.737 18.8232 10.4685 18.4692 10.4685L14.563 10.4685C13.9282 10.4685 13.5742 10.8347 13.5254 11.4817L13.2568 14.9973C13.208 15.6077 13.5254 15.9006 14.0503 15.9006C14.4531 15.9006 14.6362 15.8274 14.978 15.5588C15.4541 15.1316 15.8203 14.9607 16.3086 14.9607C17.2607 14.9607 17.8955 15.6565 17.8955 16.7185C17.8955 17.7927 17.1387 18.574 16.1255 18.574C15.4053 18.574 14.7827 18.1589 14.4653 17.5242C14.2822 17.2068 14.0747 17.0359 13.7573 17.0359C13.3545 17.0359 13.0859 17.3288 13.0859 17.7439C13.0859 17.9148 13.1226 18.0735 13.1836 18.2322C13.5132 19.1111 14.5874 19.9656 16.0522 19.9656Z" fill="#5ac8f5"/>
 </g>
</svg>
