<?xml version="1.0" encoding="UTF-8"?>
<!--Generator: Apple Native CoreSVG 175.5-->
<!DOCTYPE svg
PUBLIC "-//W3C//DTD SVG 1.1//EN"
       "http://www.w3.org/Graphics/SVG/1.1/DTD/svg11.dtd">
<svg version="1.1" xmlns="http://www.w3.org/2000/svg" xmlns:xlink="http://www.w3.org/1999/xlink" width="15.8813" height="27.1606">
 <g>
  <rect height="27.1606" opacity="0" width="15.8813" x="0" y="0"/>
  <path d="M6.39648 27.124C9.91211 27.124 12.7563 24.2676 12.7563 20.752C12.7563 18.8965 11.9995 17.2729 10.5347 15.9546C10.2783 15.7227 10.2173 15.5762 10.2173 15.21L10.2295 4.1748C10.2295 1.69678 8.66699 0 6.39648 0C4.10156 0 2.52686 1.69678 2.52686 4.1748L2.53906 15.21C2.53906 15.5762 2.49023 15.7227 2.22168 15.9546C0.769043 17.2729 0 18.8965 0 20.752C0 24.2676 2.85645 27.124 6.39648 27.124ZM6.39648 25.354C3.84521 25.354 1.79443 23.2788 1.79443 20.752C1.79443 19.2261 2.51465 17.8467 3.80859 16.98C4.18701 16.7236 4.3335 16.4917 4.3335 15.9912L4.3335 4.24805C4.3335 2.7832 5.17578 1.79443 6.39648 1.79443C7.59277 1.79443 8.43506 2.7832 8.43506 4.24805L8.43506 15.9912C8.43506 16.4917 8.58154 16.7236 8.95996 16.98C10.2539 17.8467 10.9741 19.2261 10.9741 20.752C10.9741 23.2788 8.91113 25.354 6.39648 25.354Z" fill="#5ac8f5" fill-opacity="0.25"/>
  <path d="M12.5122 4.47998L15.1611 4.47998C15.5884 4.47998 15.8813 4.15039 15.8813 3.77197C15.8813 3.39355 15.5884 3.06396 15.1611 3.06396L12.5122 3.06396C12.085 3.06396 11.792 3.39355 11.792 3.77197C11.792 4.15039 12.085 4.47998 12.5122 4.47998ZM12.5122 7.91016L15.1611 7.91016C15.5884 7.91016 15.8813 7.58057 15.8813 7.20215C15.8813 6.82373 15.5884 6.49414 15.1611 6.49414L12.5122 6.49414C12.085 6.49414 11.792 6.82373 11.792 7.20215C11.792 7.58057 12.085 7.91016 12.5122 7.91016ZM12.5122 11.3403L15.1611 11.3403C15.5884 11.3403 15.8813 11.0107 15.8813 10.6323C15.8813 10.2539 15.5884 9.91211 15.1611 9.91211L12.5122 9.91211C12.085 9.91211 11.792 10.2539 11.792 10.6323C11.792 11.0107 12.085 11.3403 12.5122 11.3403ZM12.5122 14.7705L15.1611 14.7705C15.5884 14.7705 15.8813 14.4409 15.8813 14.0625C15.8813 13.6719 15.5884 13.3423 15.1611 13.3423L12.5122 13.3423C12.085 13.3423 11.792 13.6719 11.792 14.0625C11.792 14.4409 12.085 14.7705 12.5122 14.7705Z" fill="#5ac8f5" fill-opacity="0.5"/>
  <path d="M6.38428 23.7061C8.02002 23.7061 9.33838 22.3877 9.33838 20.7397C9.33838 19.5923 8.69141 18.6523 7.75146 18.1396C7.36084 17.9321 7.22656 17.7856 7.22656 17.1875L7.22656 3.96729C7.22656 3.38135 6.84814 3.00293 6.38428 3.00293C5.9082 3.00293 5.54199 3.38135 5.54199 3.96729L5.54199 17.1875C5.54199 17.7856 5.40771 17.9321 5.01709 18.1396C4.07715 18.6523 3.43018 19.5923 3.43018 20.7397C3.43018 22.3877 4.74854 23.7061 6.38428 23.7061Z" fill="#5ac8f5"/>
 </g>
</svg>
