<?xml version="1.0" encoding="UTF-8"?>
<!--Generator: Apple Native CoreSVG 175.5-->
<!DOCTYPE svg
PUBLIC "-//W3C//DTD SVG 1.1//EN"
       "http://www.w3.org/Graphics/SVG/1.1/DTD/svg11.dtd">
<svg version="1.1" xmlns="http://www.w3.org/2000/svg" xmlns:xlink="http://www.w3.org/1999/xlink" width="22.4731" height="22.4976">
 <g>
  <rect height="22.4976" opacity="0" width="22.4731" x="0" y="0"/>
  <path d="M3.83301 22.4976L18.6401 22.4976C21.2036 22.4976 22.4731 21.228 22.4731 18.7134L22.4731 3.80859C22.4731 1.29395 21.2036 0.0244141 18.6401 0.0244141L3.83301 0.0244141C1.28174 0.0244141 0 1.28174 0 3.80859L0 18.7134C0 21.2402 1.28174 22.4976 3.83301 22.4976ZM3.85742 20.5322C2.63672 20.5322 1.96533 19.8853 1.96533 18.6157L1.96533 3.90625C1.96533 2.63672 2.63672 1.98975 3.85742 1.98975L18.6157 1.98975C19.8242 1.98975 20.5078 2.63672 20.5078 3.90625L20.5078 18.6157C20.5078 19.8853 19.8242 20.5322 18.6157 20.5322Z" fill="#5ac8f5" fill-opacity="0.5"/>
  <path d="M7.17773 16.5039C9.27734 16.5039 10.6689 14.4897 10.6689 11.2427C10.6689 7.99561 9.27734 5.98145 7.17773 5.98145C5.07812 5.98145 3.68652 7.99561 3.68652 11.2427C3.68652 14.4897 5.07812 16.5039 7.17773 16.5039ZM7.17773 15.0269C6.01807 15.0269 5.28564 13.5864 5.28564 11.2427C5.28564 8.89893 6.01807 7.4585 7.17773 7.4585C8.34961 7.4585 9.06982 8.89893 9.06982 11.2427C9.06982 13.5864 8.36182 15.0269 7.17773 15.0269ZM15.2588 16.5039C17.688 16.5039 19.0063 14.5752 19.0063 10.9009C19.0063 7.70264 17.688 5.98145 15.3931 5.98145C13.3423 5.98145 11.9995 7.36084 11.9995 9.50928C11.9995 11.6089 13.4277 12.7808 15.0269 12.7808C16.3696 12.7808 17.1631 12.0605 17.4805 11.2305L17.5537 11.2305C17.5781 13.6597 16.6504 15.1001 15.2344 15.1001C14.5386 15.1001 13.9771 14.7339 13.6841 14.1968C13.4888 13.855 13.2568 13.7207 12.9395 13.7207C12.561 13.7207 12.2925 14.0137 12.2925 14.4409C12.2925 14.563 12.3291 14.7339 12.3779 14.8804C12.5854 15.5518 13.5742 16.5039 15.2588 16.5039ZM15.4907 11.5234C14.3311 11.5234 13.5498 10.6567 13.5498 9.43604C13.5498 8.1543 14.3066 7.31201 15.4907 7.31201C16.6138 7.31201 17.4194 8.20312 17.4194 9.46045C17.4194 10.6567 16.626 11.5234 15.4907 11.5234Z" fill="#5ac8f5"/>
 </g>
</svg>
