<?xml version="1.0" encoding="UTF-8"?>
<!--Generator: Apple Native CoreSVG 175.5-->
<!DOCTYPE svg
PUBLIC "-//W3C//DTD SVG 1.1//EN"
       "http://www.w3.org/Graphics/SVG/1.1/DTD/svg11.dtd">
<svg version="1.1" xmlns="http://www.w3.org/2000/svg" xmlns:xlink="http://www.w3.org/1999/xlink" width="29.1902" height="28.3323">
 <g>
  <rect height="28.3323" opacity="0" width="29.1902" x="0" y="0"/>
  <path d="M3.19958 12.2313L24.1102 17.8588C26.454 18.4935 28.8343 17.871 29.1639 16.0521C29.4325 14.3797 27.6014 12.8661 25.4164 12.4388L17.8114 10.9252C17.2865 10.8275 16.9813 10.62 16.6151 10.0951L10.1576 0.80553C9.95007 0.512561 9.6693 0.317249 9.32751 0.2318L8.46081 0.0120731C8.15563-0.0611691 7.9237 0.207386 8.00915 0.585804L10.3529 10.5101L11.1219 9.6068L4.71325 8.34948L6.76403 9.61901L1.83239 3.85729C1.58825 3.57653 1.3319 3.49108 0.892449 3.58873L0.428581 3.68639C0.0989915 3.74742-0.0474928 4.00377 0.0135423 4.29674L1.30749 10.62C1.47839 11.4256 2.14977 11.9505 3.19958 12.2313ZM1.41735 25.0853L27.7601 25.0853C28.2972 25.0853 28.7367 24.6337 28.7367 24.0965C28.7367 23.5594 28.2972 23.12 27.7601 23.12L1.41735 23.12C0.880242 23.12 0.440788 23.5594 0.440788 24.0965C0.440788 24.6337 0.880242 25.0853 1.41735 25.0853Z" fill="#5ac8f5"/>
 </g>
</svg>
