<?xml version="1.0" encoding="UTF-8"?>
<!--Generator: Apple Native CoreSVG 175.5-->
<!DOCTYPE svg
PUBLIC "-//W3C//DTD SVG 1.1//EN"
       "http://www.w3.org/Graphics/SVG/1.1/DTD/svg11.dtd">
<svg version="1.1" xmlns="http://www.w3.org/2000/svg" xmlns:xlink="http://www.w3.org/1999/xlink" width="24.9023" height="24.9146">
 <g>
  <rect height="24.9146" opacity="0" width="24.9023" x="0" y="0"/>
  <path d="M12.9639 21.8384C15.2832 21.8384 17.2363 18.2983 17.7368 17.4683C18.3716 16.4307 18.0786 15.3931 18.0786 14.7827C18.0786 14.4043 19.3726 13.4644 19.3726 12.3535C19.3726 11.2305 16.8701 10.3027 16.8701 9.85107C16.8701 9.55811 17.1143 9.2041 17.3584 9.2041C17.8345 9.2041 19.1528 10.9009 19.9585 10.9009C20.4468 10.9009 20.5933 10.4736 20.7886 10.4736C21.1182 10.4736 21.3745 14.0991 23.0591 14.8438L23.5718 13.7207C22.0215 13.3179 22.5952 9.14307 20.9229 9.14307C20.3857 9.14307 20.0562 9.61914 19.8486 9.61914C19.7144 9.61914 19.397 9.35059 18.6768 8.76465C18.3228 8.48389 17.9565 8.10547 17.2974 8.10547C16.4917 8.10547 15.7104 9.021 15.7104 9.86328C15.7104 11.1938 18.1396 11.8896 18.1396 12.3535C18.1396 12.6343 18.0298 12.854 17.5781 13.3667C17.0776 13.9282 16.8457 14.3066 16.8457 14.7827C16.8457 14.9902 16.8701 15.1855 16.8823 15.3687C16.9434 16.1865 16.9067 16.4917 16.6748 16.8823C16.1133 17.749 14.5142 20.6055 12.9639 20.6055C11.5845 20.6055 11.7065 18.6279 11.7065 16.7969C11.7065 15.0146 10.2905 13.6719 8.41064 13.6719C6.95801 13.6719 6.26221 12.9639 6.26221 11.5967C6.26221 9.69238 8.26416 8.44727 10.1685 8.44727C11.4502 8.44727 12.4634 9.09424 13.4644 9.09424C14.2822 9.09424 14.856 7.87354 14.856 6.97021C14.856 5.83496 12.4512 4.57764 11.7188 4.57764C11.1206 4.57764 10.8643 4.93164 10.8154 5.70068L11.0596 5.67627L10.6689 5.37109C10.1562 4.99268 9.75342 4.77295 9.28955 4.77295C8.11768 4.77295 8.06885 6.34766 7.44629 6.34766C7.2876 6.34766 7.17773 6.23779 7.17773 6.06689C7.17773 5.52979 8.48389 4.43115 8.49609 2.91748L8.5083 1.92871L7.34863 1.92871L7.34863 3.02734C7.34863 4.49219 6.04248 5.0293 6.04248 6.18896C6.04248 6.89697 6.54297 7.36084 7.31201 7.36084C8.76465 7.36084 8.78906 5.82275 9.375 5.82275C9.83887 5.83496 10.376 6.64062 11.3037 6.64062C11.8652 6.64062 12.1338 6.25 12.1094 5.56641L11.7676 5.67627C12.5122 5.94482 13.6963 6.53076 13.6963 7.08008C13.6963 7.39746 13.562 7.86133 13.3057 7.86133C12.7808 7.86133 11.4014 7.21436 10.1685 7.21436C7.59277 7.21436 5.0293 9.00879 5.0293 11.5967C5.0293 13.6597 6.25 14.9048 8.41064 14.9048C9.59473 14.9048 10.4736 15.6982 10.4736 16.7969C10.4736 18.6035 10.2661 21.8384 12.9639 21.8384ZM16.2598 5.01709C16.5283 5.01709 16.7725 5.27344 17.2241 5.27344C17.5049 5.27344 17.7124 5.01709 17.7124 4.6875C17.7124 4.08936 17.041 3.6377 16.1621 3.6377C15.1245 3.6377 14.5264 3.97949 14.5264 4.57764C14.5264 4.96826 14.8193 5.24902 15.21 5.24902C15.6128 5.24902 15.7959 5.01709 16.2598 5.01709ZM12.4512 24.9023C19.2627 24.9023 24.9023 19.2505 24.9023 12.4512C24.9023 5.63965 19.2505 0 12.439 0C5.63965 0 0 5.63965 0 12.4512C0 19.2505 5.65186 24.9023 12.4512 24.9023ZM12.4512 23.2422C6.55518 23.2422 1.66016 18.3472 1.66016 12.4512C1.66016 6.55518 6.54297 1.66016 12.439 1.66016C18.335 1.66016 23.2422 6.55518 23.2422 12.4512C23.2422 18.3472 18.3472 23.2422 12.4512 23.2422Z" fill="#5ac8f5"/>
 </g>
</svg>
