<?xml version="1.0" encoding="UTF-8"?>
<!--Generator: Apple Native CoreSVG 175.5-->
<!DOCTYPE svg
PUBLIC "-//W3C//DTD SVG 1.1//EN"
       "http://www.w3.org/Graphics/SVG/1.1/DTD/svg11.dtd">
<svg version="1.1" xmlns="http://www.w3.org/2000/svg" xmlns:xlink="http://www.w3.org/1999/xlink" width="24.9023" height="24.9146">
 <g>
  <rect height="24.9146" opacity="0" width="24.9023" x="0" y="0"/>
  <path d="M12.4512 24.9023C19.2627 24.9023 24.9023 19.2505 24.9023 12.4512C24.9023 5.63965 19.2505 0 12.439 0C5.63965 0 0 5.63965 0 12.4512C0 19.2505 5.65186 24.9023 12.4512 24.9023Z" fill="#5ac8f5" fill-opacity="0.25"/>
  <path d="M4.96826 15.2588C4.82178 14.856 4.96826 14.5752 5.41992 14.5752C7.93457 14.5752 9.92432 15.7227 11.1328 17.3584L11.1328 19.7388C11.1328 19.873 11.1572 20.0195 11.2183 20.1294C8.3374 19.7388 5.84717 17.8345 4.96826 15.2588ZM8.12988 8.81348C8.12988 8.09326 8.30078 7.37305 8.63037 6.62842C8.74023 6.31104 9.13086 6.26221 9.38721 6.53076L10.8276 8.00781L12.0728 6.39648C12.2803 6.11572 12.6343 6.11572 12.8296 6.39648L14.0625 8.00781L15.4907 6.53076C15.7471 6.26221 16.1377 6.31104 16.2842 6.62842C16.6016 7.37305 16.748 8.09326 16.748 8.81348C16.748 11.0229 15.2954 12.854 12.9883 13.1104L12.9883 18.5181C14.0625 16.2842 16.3696 14.5752 19.458 14.5752C19.8975 14.5752 20.0562 14.856 19.9097 15.2588C18.8843 18.1885 15.7837 20.2515 12.439 20.2515C12.146 20.2515 11.9019 20.0439 11.9019 19.7388L11.9019 13.1104C9.59473 12.8662 8.12988 11.0229 8.12988 8.81348Z" fill="#5ac8f5"/>
 </g>
</svg>
