<?xml version="1.0" encoding="UTF-8"?>
<!--Generator: Apple Native CoreSVG 175.5-->
<!DOCTYPE svg
PUBLIC "-//W3C//DTD SVG 1.1//EN"
       "http://www.w3.org/Graphics/SVG/1.1/DTD/svg11.dtd">
<svg version="1.1" xmlns="http://www.w3.org/2000/svg" xmlns:xlink="http://www.w3.org/1999/xlink" width="23.2422" height="22.4976">
 <g>
  <rect height="22.4976" opacity="0" width="23.2422" x="0" y="0"/>
  <path d="M3.83301 22.4976L19.4092 22.4976C21.9604 22.4976 23.2422 21.228 23.2422 18.7134L23.2422 3.80859C23.2422 1.29395 21.9604 0.0244141 19.4092 0.0244141L3.83301 0.0244141C1.28174 0.0244141 0 1.28174 0 3.80859L0 18.7134C0 21.2402 1.28174 22.4976 3.83301 22.4976Z" fill="#5ac8f5" fill-opacity="0.25"/>
  <path d="M7.31201 17.2363C6.26221 17.2363 5.40771 16.3818 5.40771 15.332C5.40771 14.3066 6.26221 13.4399 7.31201 13.4399C8.34961 13.4399 9.19189 14.3066 9.19189 15.332C9.19189 16.3818 8.34961 17.2363 7.31201 17.2363ZM15.9424 17.2363C14.8926 17.2363 14.0503 16.3818 14.0503 15.332C14.0503 14.3066 14.8926 13.4399 15.9424 13.4399C16.9678 13.4399 17.8345 14.3066 17.8345 15.332C17.8345 16.3818 16.9678 17.2363 15.9424 17.2363ZM11.6211 9.0332C10.5713 9.0332 9.7168 8.17871 9.7168 7.12891C9.7168 6.09131 10.5713 5.24902 11.6211 5.24902C12.6587 5.24902 13.5132 6.09131 13.5132 7.12891C13.5132 8.17871 12.6587 9.0332 11.6211 9.0332Z" fill="#5ac8f5"/>
 </g>
</svg>
