<?xml version="1.0" encoding="UTF-8"?>
<!--Generator: Apple Native CoreSVG 175.5-->
<!DOCTYPE svg
PUBLIC "-//W3C//DTD SVG 1.1//EN"
       "http://www.w3.org/Graphics/SVG/1.1/DTD/svg11.dtd">
<svg version="1.1" xmlns="http://www.w3.org/2000/svg" xmlns:xlink="http://www.w3.org/1999/xlink" width="24.9023" height="24.9146">
 <g>
  <rect height="24.9146" opacity="0" width="24.9023" x="0" y="0"/>
  <path d="M12.4512 24.9023C19.2627 24.9023 24.9023 19.2505 24.9023 12.4512C24.9023 5.63965 19.2505 0 12.439 0C5.63965 0 0 5.63965 0 12.4512C0 19.2505 5.65186 24.9023 12.4512 24.9023ZM12.4512 22.8271C6.68945 22.8271 2.0874 18.2129 2.0874 12.4512C2.0874 6.68945 6.67725 2.0752 12.439 2.0752C18.2007 2.0752 22.8271 6.68945 22.8271 12.4512C22.8271 18.2129 18.2129 22.8271 12.4512 22.8271Z" fill="#5ac8f5" fill-opacity="0.5"/>
  <path d="M5.44434 12.0361L5.93262 14.8926C6.10352 15.9668 7.56836 15.7349 7.39746 14.6606L7.03125 12.3169L8.74023 11.6455C8.88672 11.6089 8.95996 11.6333 9.021 11.7432L10.498 14.7095C10.9497 15.5884 11.3281 15.8813 11.6699 16.1255L16.3574 19.5435C17.2363 20.1904 18.2251 18.9453 17.2852 18.2251L13.7207 15.5029C13.5864 15.3931 13.5864 15.2344 13.7451 15.1489L16.1377 13.7329L19.3726 15.2832C20.3125 15.7227 21.1304 14.27 19.9829 13.7329L16.5039 12.146C16.0767 11.9507 15.686 11.9629 15.2954 12.207L13.6475 13.1958C13.501 13.2812 13.3545 13.2446 13.2812 13.1226L11.8774 10.2173C11.8164 10.1074 11.853 10.0342 11.9629 9.97314L13.1714 9.42383C13.501 9.26514 13.8672 9.15527 13.9648 8.77686L14.7827 5.98145C15.0879 4.93164 13.6475 4.5166 13.3545 5.56641L12.6221 8.11768L11.5723 8.54492C10.4614 8.98438 8.89893 9.66797 6.88477 10.6323L6.03027 11.0352C5.5542 11.2549 5.37109 11.5845 5.44434 12.0361ZM8.60596 8.94775C9.55811 8.94775 10.3394 8.17871 10.3394 7.26318C10.3394 6.29883 9.57031 5.52979 8.60596 5.52979C7.67822 5.52979 6.93359 6.29883 6.93359 7.26318C6.93359 8.19092 7.69043 8.94775 8.60596 8.94775Z" fill="#5ac8f5"/>
 </g>
</svg>
