<?xml version="1.0" encoding="UTF-8"?>
<!--Generator: Apple Native CoreSVG 175.5-->
<!DOCTYPE svg
PUBLIC "-//W3C//DTD SVG 1.1//EN"
       "http://www.w3.org/Graphics/SVG/1.1/DTD/svg11.dtd">
<svg version="1.1" xmlns="http://www.w3.org/2000/svg" xmlns:xlink="http://www.w3.org/1999/xlink" width="25.2135" height="27.1362">
 <g>
  <rect height="27.1362" opacity="0" width="25.2135" x="0" y="0"/>
  <path d="M17.1509 5.33447C18.6279 5.33447 19.7998 4.15039 19.7998 2.66113C19.7998 1.18408 18.6279 0 17.1509 0C15.6616 0 14.4653 1.18408 14.4653 2.66113C14.4653 4.15039 15.6616 5.33447 17.1509 5.33447ZM8.83789 27.124C9.52148 27.124 10.1074 26.5625 10.1074 25.8667L10.1074 14.4043C12.8906 13.9526 15.3076 12.1094 16.4673 9.59473C16.5649 9.33838 16.8579 9.21631 17.3462 9.38721L23.5229 11.4624C24.3774 11.7432 24.9634 11.2793 25.1465 10.6812C25.3418 10.0708 25.1221 9.32617 24.3286 9.06982L5.82275 2.89307C4.96826 2.6001 4.37012 3.07617 4.18701 3.67432C3.9917 4.28467 4.22363 5.01709 5.01709 5.28564L11.6699 7.50732C11.9751 7.61719 12.1338 7.9834 11.9385 8.30078C11.2305 9.41162 10.1807 10.083 8.83789 10.083L2.52686 10.083L2.52686 3.74756C2.52686 3.00293 2.02637 2.49023 1.25732 2.49023C0.500488 2.49023 0 3.00293 0 3.74756L0 11.2427C0 12.0728 0.415039 12.4634 1.0498 12.5732L6.64062 13.501L7.58057 19.0186L7.58057 25.8667C7.58057 26.5625 8.14209 27.124 8.83789 27.124Z" fill="#5ac8f5"/>
 </g>
</svg>
