<?xml version="1.0" encoding="UTF-8"?>
<!--Generator: Apple Native CoreSVG 175.5-->
<!DOCTYPE svg
PUBLIC "-//W3C//DTD SVG 1.1//EN"
       "http://www.w3.org/Graphics/SVG/1.1/DTD/svg11.dtd">
<svg version="1.1" xmlns="http://www.w3.org/2000/svg" xmlns:xlink="http://www.w3.org/1999/xlink" width="9.87549" height="20.4224">
 <g>
  <rect height="20.4224" opacity="0" width="9.87549" x="0" y="0"/>
  <path d="M0 17.9077C0 18.5059 0.427246 18.9087 1.07422 18.9087L8.80127 18.9087C9.44824 18.9087 9.87549 18.5059 9.87549 17.9077C9.87549 17.3218 9.44824 16.9189 8.80127 16.9189L6.34766 16.9189L6.34766 7.60498C6.34766 6.9458 5.92041 6.50635 5.28564 6.50635L1.41602 6.50635C0.78125 6.50635 0.341797 6.89697 0.341797 7.48291C0.341797 8.09326 0.78125 8.49609 1.41602 8.49609L4.08936 8.49609L4.08936 16.9189L1.07422 16.9189C0.427246 16.9189 0 17.3218 0 17.9077ZM3.02734 1.77002C3.02734 2.74658 3.80859 3.52783 4.78516 3.52783C5.77393 3.52783 6.53076 2.74658 6.53076 1.77002C6.53076 0.78125 5.77393 0 4.78516 0C3.80859 0 3.02734 0.78125 3.02734 1.77002Z" fill="#5ac8f5"/>
 </g>
</svg>
