<?xml version="1.0" encoding="UTF-8"?>
<!--Generator: Apple Native CoreSVG 175.5-->
<!DOCTYPE svg
PUBLIC "-//W3C//DTD SVG 1.1//EN"
       "http://www.w3.org/Graphics/SVG/1.1/DTD/svg11.dtd">
<svg version="1.1" xmlns="http://www.w3.org/2000/svg" xmlns:xlink="http://www.w3.org/1999/xlink" width="29.0894" height="23.645">
 <g>
  <rect height="23.645" opacity="0" width="29.0894" x="0" y="0"/>
  <path d="M0 19.9097C0 22.3267 1.24512 23.5962 3.6499 23.5962L18.75 23.5962C21.1792 23.5962 22.4487 22.3511 22.4487 19.9585L22.4487 14.8071C22.4487 14.563 22.644 14.4531 22.8882 14.6484C23.5596 15.1611 24.353 15.5762 25.4028 15.5762C27.478 15.5762 29.0894 13.9404 29.0894 11.8408C29.0894 9.75342 27.478 8.11768 25.4028 8.11768C24.353 8.11768 23.5596 8.53271 22.8882 9.04541C22.644 9.24072 22.4487 9.13086 22.4487 8.88672L22.4487 3.6377C22.4487 1.24512 21.1792 0 18.75 0L3.6499 0C1.24512 0 0 1.26953 0 3.68652L0 8.92334C0 9.7168 0.622559 10.2417 1.35498 10.2417C1.75781 10.2417 2.18506 10.0708 2.56348 9.70459C3.13721 9.16748 3.84521 8.48389 5.26123 8.48389C7.10449 8.48389 8.55713 9.94873 8.55713 11.8164C8.55713 13.6841 7.10449 15.1489 5.26123 15.1489C3.84521 15.1489 3.13721 14.4531 2.56348 13.916C2.18506 13.562 1.75781 13.3911 1.35498 13.3911C0.622559 13.3911 0 13.916 0 14.7095Z" fill="#5ac8f5"/>
 </g>
</svg>
