<?xml version="1.0" encoding="UTF-8"?>
<!--Generator: Apple Native CoreSVG 175.5-->
<!DOCTYPE svg
PUBLIC "-//W3C//DTD SVG 1.1//EN"
       "http://www.w3.org/Graphics/SVG/1.1/DTD/svg11.dtd">
<svg version="1.1" xmlns="http://www.w3.org/2000/svg" xmlns:xlink="http://www.w3.org/1999/xlink" width="24.9023" height="24.9146">
 <g>
  <rect height="24.9146" opacity="0" width="24.9023" x="0" y="0"/>
  <path d="M12.4512 24.9023C19.2627 24.9023 24.9023 19.2505 24.9023 12.4512C24.9023 5.63965 19.2505 0 12.439 0C5.63965 0 0 5.63965 0 12.4512C0 19.2505 5.65186 24.9023 12.4512 24.9023ZM12.4512 22.8271C6.68945 22.8271 2.0874 18.2129 2.0874 12.4512C2.0874 6.68945 6.67725 2.0752 12.439 2.0752C18.2007 2.0752 22.8271 6.68945 22.8271 12.4512C22.8271 18.2129 18.2129 22.8271 12.4512 22.8271Z" fill="#5ac8f5" fill-opacity="0.5"/>
  <path d="M8.75244 17.5659C9.21631 17.5659 9.52148 17.2607 9.52148 16.7847L9.52148 8.14209C9.52148 7.62939 9.16748 7.26318 8.66699 7.26318C8.26416 7.26318 8.02002 7.38525 7.59277 7.67822L5.7373 8.94775C5.48096 9.13086 5.33447 9.35059 5.33447 9.66797C5.33447 10.083 5.67627 10.4004 6.03027 10.4004C6.22559 10.4004 6.33545 10.3882 6.62842 10.1685L7.92236 9.2041L7.99561 9.2041L7.99561 16.7847C7.99561 17.2607 8.30078 17.5659 8.75244 17.5659ZM15.4419 17.7124C17.8711 17.7124 19.1895 15.7837 19.1895 12.1094C19.1895 8.91113 17.8589 7.18994 15.5762 7.18994C13.5254 7.18994 12.1826 8.56934 12.1826 10.7178C12.1826 12.8174 13.6108 13.9893 15.21 13.9893C16.5405 13.9893 17.334 13.269 17.6636 12.439L17.7368 12.439C17.7612 14.8682 16.8213 16.3086 15.4175 16.3086C14.7095 16.3086 14.1602 15.9424 13.8672 15.4053C13.6719 15.0635 13.4399 14.9292 13.1226 14.9292C12.7319 14.9292 12.4756 15.2222 12.4756 15.6494C12.4756 15.7715 12.5122 15.9424 12.561 16.0889C12.7563 16.7603 13.7573 17.7124 15.4419 17.7124ZM15.6616 12.7319C14.502 12.7319 13.7329 11.8652 13.7329 10.6445C13.7329 9.36279 14.4897 8.52051 15.6738 8.52051C16.7969 8.52051 17.6025 9.41162 17.6025 10.6689C17.6025 11.8652 16.8091 12.7319 15.6616 12.7319Z" fill="#5ac8f5"/>
 </g>
</svg>
