<?xml version="1.0" encoding="UTF-8"?>
<!--Generator: Apple Native CoreSVG 175.5-->
<!DOCTYPE svg
PUBLIC "-//W3C//DTD SVG 1.1//EN"
       "http://www.w3.org/Graphics/SVG/1.1/DTD/svg11.dtd">
<svg version="1.1" xmlns="http://www.w3.org/2000/svg" xmlns:xlink="http://www.w3.org/1999/xlink" width="24.9023" height="24.9146">
 <g>
  <rect height="24.9146" opacity="0" width="24.9023" x="0" y="0"/>
  <path d="M12.4512 24.9146C19.2627 24.9146 24.9023 19.2749 24.9023 12.4634C24.9023 5.66406 19.2505 0.012207 12.439 0.012207C5.63965 0.012207 0 5.66406 0 12.4634C0 19.2749 5.65186 24.9146 12.4512 24.9146Z" fill="#5ac8f5" fill-opacity="0.25"/>
  <path d="M18.0664 13.0493C18.0664 16.1987 15.564 18.7256 12.4512 18.7256C9.33838 18.7256 6.83594 16.1987 6.83594 13.0981C6.83594 12.6221 7.23877 12.2314 7.70264 12.2314C8.19092 12.2314 8.58154 12.6221 8.58154 13.0981C8.58154 15.2466 10.3027 16.98 12.4512 16.98C14.6118 16.98 16.3208 15.2466 16.3208 13.0981C16.3208 10.9375 14.6118 9.21631 12.4512 9.21631C12.2925 9.21631 12.1338 9.22852 12.0117 9.25293L13.2202 10.4492C13.3667 10.6079 13.4644 10.8032 13.4644 11.0229C13.4644 11.4746 13.1226 11.8286 12.6587 11.8286C12.4634 11.8286 12.2437 11.7188 12.1094 11.5845L9.66797 9.15527C9.36279 8.8501 9.375 8.28857 9.66797 7.9834L12.085 5.52979C12.2314 5.37109 12.439 5.26123 12.6587 5.26123C13.1226 5.26123 13.4644 5.62744 13.4644 6.0791C13.4644 6.29883 13.3667 6.51855 13.2446 6.65283L12.3657 7.55615C12.4512 7.54395 12.5854 7.53174 12.6953 7.53174C15.5273 7.53174 18.0664 9.96094 18.0664 13.0493Z" fill="#5ac8f5"/>
 </g>
</svg>
