<?xml version="1.0" encoding="UTF-8"?>
<!--Generator: Apple Native CoreSVG 175.5-->
<!DOCTYPE svg
PUBLIC "-//W3C//DTD SVG 1.1//EN"
       "http://www.w3.org/Graphics/SVG/1.1/DTD/svg11.dtd">
<svg version="1.1" xmlns="http://www.w3.org/2000/svg" xmlns:xlink="http://www.w3.org/1999/xlink" width="28.3177" height="26.6235">
 <g>
  <rect height="26.6235" opacity="0" width="28.3177" x="0" y="0"/>
  <path d="M17.6636 0.708008L12.9883 13.5864C12.8296 14.0381 13.0493 14.5264 13.501 14.6851C13.9526 14.856 14.4409 14.6118 14.5996 14.1846L19.2993 1.30615C19.458 0.854492 19.2261 0.366211 18.7744 0.195312C18.335 0.0244141 17.8223 0.268555 17.6636 0.708008ZM12.2925 13.1226L16.8213 0.646973C14.4653 0.0488281 12.2192 0.524902 10.5591 1.98975L10.3271 1.9043C8.81348 1.35498 7.39746 2.14844 6.73828 3.94287L1.40381 18.6157C1.01318 19.7021 1.47705 20.6787 2.55127 21.0938C3.66211 21.46 4.66309 21.0205 5.0415 19.9585L9.15527 8.63037L8.58154 8.98438C9.11865 10.7422 10.4126 12.207 12.2925 13.1226ZM3.36914 20.8618L2.09961 20.3979L0 26.1597L1.26953 26.6235Z" fill="#5ac8f5"/>
  <path d="M18.4204 13.2446C18.811 12.8906 18.8354 12.3413 18.5059 11.9629C18.1519 11.5723 17.5781 11.5234 17.2119 11.8896C16.8457 12.2681 16.8213 12.8174 17.1753 13.1836C17.5171 13.5254 18.0664 13.5864 18.4204 13.2446ZM20.166 8.76465C20.3369 8.31299 20.0806 7.78809 19.6167 7.62939C19.1528 7.4585 18.6279 7.67822 18.457 8.1543C18.2861 8.63037 18.5181 9.17969 18.9941 9.35059C19.4702 9.52148 19.9829 9.26514 20.166 8.76465ZM21.7041 4.28467C21.6064 3.79639 21.1914 3.479 20.6787 3.55225C20.166 3.62549 19.8242 4.02832 19.8975 4.52881C19.9585 5.01709 20.3979 5.35889 20.9106 5.31006C21.4233 5.23682 21.7529 4.78516 21.7041 4.28467Z" fill="#5ac8f5" fill-opacity="0.5"/>
  <path d="M20.6909 15.7104C21.0693 15.3564 21.0815 14.7827 20.7275 14.3921C20.4102 14.0625 19.8486 14.0381 19.4702 14.3799C19.1162 14.7095 19.0918 15.2832 19.4092 15.625C19.7754 15.9912 20.3247 16.04 20.6909 15.7104ZM23.291 9.93652C23.4619 9.47266 23.2178 8.95996 22.7417 8.78906C22.2778 8.61816 21.7896 8.83789 21.6187 9.32617C21.4478 9.77783 21.6675 10.2905 22.1436 10.4614C22.6196 10.6323 23.1201 10.4004 23.291 9.93652ZM25 3.85742C24.9512 3.35693 24.4751 3.01514 23.9868 3.07617C23.5107 3.16162 23.1445 3.60107 23.2056 4.11377C23.2788 4.56543 23.7305 4.91943 24.231 4.87061C24.7192 4.79736 25.0732 4.3457 25 3.85742Z" fill="#5ac8f5" fill-opacity="0.5"/>
  <path d="M22.937 18.1519C23.2788 17.8101 23.3276 17.2852 22.998 16.8823C22.6562 16.5161 22.0825 16.5161 21.7285 16.8701C21.3867 17.1997 21.3257 17.749 21.6553 18.1152C21.9971 18.4937 22.583 18.4937 22.937 18.1519ZM26.4404 11.0596C26.6113 10.5957 26.3672 10.083 25.9033 9.91211C25.4272 9.74121 24.9023 9.97314 24.7314 10.437C24.5605 10.9009 24.7925 11.4624 25.2686 11.6333C25.7446 11.8042 26.2695 11.5356 26.4404 11.0596ZM28.3081 3.43018C28.2227 2.92969 27.7954 2.57568 27.3071 2.63672C26.8066 2.68555 26.4648 3.17383 26.5381 3.6377C26.5991 4.13818 27.0386 4.47998 27.5269 4.40674C28.0273 4.35791 28.3813 3.89404 28.3081 3.43018Z" fill="#5ac8f5" fill-opacity="0.5"/>
 </g>
</svg>
