<?xml version="1.0" encoding="UTF-8"?>
<!--Generator: Apple Native CoreSVG 175.5-->
<!DOCTYPE svg
PUBLIC "-//W3C//DTD SVG 1.1//EN"
       "http://www.w3.org/Graphics/SVG/1.1/DTD/svg11.dtd">
<svg version="1.1" xmlns="http://www.w3.org/2000/svg" xmlns:xlink="http://www.w3.org/1999/xlink" width="29.5166" height="22.4976">
 <g>
  <rect height="22.4976" opacity="0" width="29.5166" x="0" y="0"/>
  <path d="M10.498 0.0244141C3.22266 0.0244141 0 3.35693 0 10.1929L0 18.7134C0 21.2402 1.28174 22.4976 3.83301 22.4976L25.6836 22.4976C28.2349 22.4976 29.5166 21.228 29.5166 18.7134L29.5166 10.1929C29.5166 3.35693 26.2939 0.0244141 19.0308 0.0244141ZM10.498 2.01416L19.0186 2.01416C24.9512 2.01416 27.5513 4.60205 27.5513 10.083L27.5513 18.6157C27.5513 19.8853 26.8677 20.5322 25.6592 20.5322L3.85742 20.5322C2.63672 20.5322 1.96533 19.8853 1.96533 18.6157L1.96533 10.083C1.96533 4.60205 4.56543 2.01416 10.498 2.01416Z" fill="#5ac8f5" fill-opacity="0.5"/>
  <path d="M8.20312 16.7603L13.5864 16.7603C14.0625 16.7603 14.4043 16.4551 14.4043 15.9546C14.4043 15.4541 14.0503 15.1611 13.5864 15.1611L9.19189 15.1611L9.19189 6.5918C9.19189 5.9082 8.8501 5.49316 8.20312 5.49316C7.58057 5.49316 7.25098 5.93262 7.25098 6.5918L7.25098 15.6616C7.25098 16.3086 7.58057 16.7603 8.20312 16.7603ZM16.4673 16.7603L22.6196 16.7603C23.0835 16.7603 23.4375 16.4429 23.4375 15.9546C23.4375 15.4541 23.0835 15.1611 22.6196 15.1611L18.2861 15.1611L18.2861 15.0757L21.1792 12.0605C22.2778 10.9131 23.0225 9.93652 23.0225 8.58154C23.0225 6.72607 21.5332 5.49316 19.2749 5.49316C17.5415 5.49316 16.0034 6.54297 15.6128 7.91016C15.564 8.09326 15.5518 8.23975 15.5518 8.39844C15.5518 8.87451 15.8691 9.17969 16.333 9.17969C16.7725 9.17969 16.9922 8.91113 17.1997 8.56934C17.5415 7.82471 18.1641 7.04346 19.3604 7.04346C20.52 7.04346 21.2891 7.71484 21.2891 8.72803C21.2891 9.61914 20.5444 10.3638 19.8242 11.1206L15.918 15.2344C15.7104 15.4663 15.6006 15.6982 15.6006 15.9546C15.6006 16.4429 15.9302 16.7603 16.4673 16.7603Z" fill="#5ac8f5"/>
 </g>
</svg>
