<?xml version="1.0" encoding="UTF-8"?>
<!--Generator: Apple Native CoreSVG 175.5-->
<!DOCTYPE svg
PUBLIC "-//W3C//DTD SVG 1.1//EN"
       "http://www.w3.org/Graphics/SVG/1.1/DTD/svg11.dtd">
<svg version="1.1" xmlns="http://www.w3.org/2000/svg" xmlns:xlink="http://www.w3.org/1999/xlink" width="24.9023" height="24.9146">
 <g>
  <rect height="24.9146" opacity="0" width="24.9023" x="0" y="0"/>
  <path d="M12.4512 24.9023C19.2627 24.9023 24.9023 19.2505 24.9023 12.4512C24.9023 5.63965 19.2505 0 12.439 0C5.63965 0 0 5.63965 0 12.4512C0 19.2505 5.65186 24.9023 12.4512 24.9023ZM12.4512 22.8271C6.68945 22.8271 2.0874 18.2129 2.0874 12.4512C2.0874 6.68945 6.67725 2.0752 12.439 2.0752C18.2007 2.0752 22.8271 6.68945 22.8271 12.4512C22.8271 18.2129 18.2129 22.8271 12.4512 22.8271Z" fill="#5ac8f5" fill-opacity="0.5"/>
  <path d="M12.439 17.6147C17.2852 17.6147 20.6543 13.6841 20.6543 12.4634C20.6543 11.2305 17.2729 7.2998 12.439 7.2998C7.60498 7.2998 4.21143 11.2305 4.21143 12.4634C4.21143 13.6841 7.6416 17.6147 12.439 17.6147ZM12.439 15.8325C10.5591 15.8325 9.05762 14.2944 9.05762 12.4634C9.04541 10.5713 10.5591 9.08203 12.439 9.08203C14.3066 9.08203 15.8203 10.5713 15.8203 12.4634C15.8203 14.2944 14.3066 15.8325 12.439 15.8325ZM12.4512 13.9404C13.2446 13.9404 13.9282 13.2446 13.9282 12.4634C13.9282 11.6699 13.2446 10.9741 12.4512 10.9741C11.6455 10.9741 10.9497 11.6699 10.9497 12.4634C10.9497 13.2446 11.6455 13.9404 12.4512 13.9404Z" fill="#5ac8f5"/>
 </g>
</svg>
