<?xml version="1.0" encoding="UTF-8"?>
<!--Generator: Apple Native CoreSVG 175.5-->
<!DOCTYPE svg
PUBLIC "-//W3C//DTD SVG 1.1//EN"
       "http://www.w3.org/Graphics/SVG/1.1/DTD/svg11.dtd">
<svg version="1.1" xmlns="http://www.w3.org/2000/svg" xmlns:xlink="http://www.w3.org/1999/xlink" width="29.2236" height="29.1138">
 <g>
  <rect height="29.1138" opacity="0" width="29.2236" x="0" y="0"/>
  <path d="M0.854492 1.79443L28.3691 1.79443C28.8452 1.79443 29.2236 1.36719 29.2236 0.891113C29.2236 0.415039 28.8452 0 28.3691 0L0.854492 0C0.366211 0 0 0.415039 0 0.891113C0 1.36719 0.366211 1.79443 0.854492 1.79443ZM10.0098 12.6953L19.2139 12.6953C21.0327 12.6953 22.0093 11.731 22.0093 9.94873L22.0093 6.54297C22.0093 4.76074 21.0327 3.79639 19.2139 3.79639L10.0098 3.79639C8.19092 3.79639 7.21436 4.76074 7.21436 6.54297L7.21436 9.94873C7.21436 11.731 8.19092 12.6953 10.0098 12.6953ZM0.854492 18.1885L28.3691 18.1885C28.8452 18.1885 29.2236 17.7734 29.2236 17.2974C29.2236 16.8213 28.8452 16.394 28.3691 16.394L0.854492 16.394C0.366211 16.394 0 16.8213 0 17.2974C0 17.7734 0.366211 18.1885 0.854492 18.1885ZM5.68848 29.1016L23.5352 29.1016C25.354 29.1016 26.3306 28.1372 26.3306 26.355L26.3306 22.9492C26.3306 21.167 25.354 20.2026 23.5352 20.2026L5.68848 20.2026C3.86963 20.2026 2.89307 21.167 2.89307 22.9492L2.89307 26.355C2.89307 28.1372 3.86963 29.1016 5.68848 29.1016Z" fill="#5ac8f5"/>
 </g>
</svg>
