<?xml version="1.0" encoding="UTF-8"?>
<!--Generator: Apple Native CoreSVG 175.5-->
<!DOCTYPE svg
PUBLIC "-//W3C//DTD SVG 1.1//EN"
       "http://www.w3.org/Graphics/SVG/1.1/DTD/svg11.dtd">
<svg version="1.1" xmlns="http://www.w3.org/2000/svg" xmlns:xlink="http://www.w3.org/1999/xlink" width="23.5718" height="30.2612">
 <g>
  <rect height="30.2612" opacity="0" width="23.5718" x="0" y="0"/>
  <path d="M10.6567 27.8442C15.1367 27.8442 18.75 25.5981 20.3979 21.7651C20.6177 21.2524 20.5444 20.8374 20.3125 20.6055C20.0928 20.3857 19.7266 20.3491 19.2871 20.52C18.3716 20.874 17.2485 21.0938 15.8447 21.0938C10.3882 21.0938 6.87256 17.6758 6.87256 12.3291C6.87256 10.8521 7.15332 9.375 7.53174 8.60596C7.77588 8.12988 7.75146 7.70264 7.54395 7.4585C7.31201 7.18994 6.89697 7.10449 6.32324 7.32422C2.57568 8.8501 0 12.7686 0 17.3218C0 23.2666 4.37012 27.8442 10.6567 27.8442ZM10.6812 25.9766C5.48096 25.9766 1.85547 22.1802 1.85547 17.1753C1.85547 14.1113 3.28369 11.3892 5.5542 9.65576C5.26123 10.4614 5.09033 11.6699 5.09033 12.8418C5.09033 18.8599 9.24072 22.8882 15.3809 22.8882C16.4795 22.8882 17.4805 22.7417 17.9932 22.5708C16.4673 24.6826 13.7451 25.9766 10.6812 25.9766ZM17.2485 5.18799L14.4775 5.18799L14.4775 5.12695L17.3218 1.37939C17.5781 1.0376 17.6758 0.842285 17.6758 0.622559C17.6758 0.231934 17.3828 0 16.9678 0L13.0615 0C12.6831 0 12.4146 0.256348 12.4146 0.634766C12.4146 1.02539 12.6831 1.26953 13.0615 1.26953L15.6738 1.26953L15.6738 1.33057L12.793 5.06592C12.5366 5.39551 12.4512 5.57861 12.4512 5.83496C12.4512 6.18896 12.7197 6.44531 13.1348 6.44531L17.2485 6.44531C17.627 6.44531 17.8955 6.21338 17.8955 5.81055C17.8955 5.43213 17.627 5.18799 17.2485 5.18799ZM22.9614 9.86328L21.0083 9.86328L21.0083 9.81445L23.0347 7.15332C23.2666 6.84814 23.3643 6.66504 23.3643 6.43311C23.3643 6.0791 23.0835 5.85938 22.7051 5.85938L19.7144 5.85938C19.3726 5.85938 19.1162 6.10352 19.1162 6.44531C19.1162 6.83594 19.3726 7.06787 19.7144 7.06787L21.4722 7.06787L21.4722 7.1167L19.4702 9.75342C19.2383 10.0464 19.1528 10.2417 19.1528 10.4858C19.1528 10.8154 19.4092 11.0596 19.7876 11.0596L22.9614 11.0596C23.3276 11.0596 23.5718 10.8398 23.5718 10.4614C23.5718 10.0952 23.3276 9.86328 22.9614 9.86328ZM17.5781 14.0259L15.918 14.0259L15.918 13.9771L17.6392 11.6943C17.8589 11.3892 17.9565 11.2183 17.9565 11.0107C17.9565 10.6689 17.688 10.4614 17.3218 10.4614L14.6973 10.4614C14.3677 10.4614 14.1235 10.6812 14.1235 11.0229C14.1235 11.3892 14.3677 11.5967 14.6973 11.5967L16.1621 11.5967L16.1621 11.6577L14.4653 13.9282C14.2456 14.209 14.1602 14.3921 14.1602 14.624C14.1602 14.9414 14.4043 15.1733 14.7583 15.1733L17.5781 15.1733C17.9199 15.1733 18.1519 14.9414 18.1519 14.5996C18.1519 14.2578 17.9199 14.0259 17.5781 14.0259Z" fill="#5ac8f5"/>
 </g>
</svg>
