<?xml version="1.0" encoding="UTF-8"?>
<!--Generator: Apple Native CoreSVG 175.5-->
<!DOCTYPE svg
PUBLIC "-//W3C//DTD SVG 1.1//EN"
       "http://www.w3.org/Graphics/SVG/1.1/DTD/svg11.dtd">
<svg version="1.1" xmlns="http://www.w3.org/2000/svg" xmlns:xlink="http://www.w3.org/1999/xlink" width="29.5898" height="28.6011">
 <g>
  <rect height="28.6011" opacity="0" width="29.5898" x="0" y="0"/>
  <path d="M19.7632 28.479C26.5015 28.479 29.5898 26.0864 29.5898 20.6421L29.5898 11.3525C29.5898 9.05762 29.0405 7.50732 28.1738 6.40869C27.8809 6.04248 27.417 6.01807 27.0508 6.31104C25.8789 7.33643 22.8271 8.21533 19.7632 8.21533C16.7114 8.21533 13.6597 7.33643 12.4878 6.31104C12.1216 6.01807 11.6577 6.04248 11.3647 6.40869C10.498 7.50732 9.94873 9.05762 9.94873 11.3525L9.94873 20.6421C9.94873 26.0864 13.0371 28.479 19.7632 28.479Z" fill="#5ac8f5" fill-opacity="0.5"/>
  <path d="M2.81982 21.3745L8.3252 21.3745L8.3252 18.6523C8.17871 18.6646 8.04443 18.6646 7.89795 18.6646C5.35889 18.6646 3.2959 16.6138 3.2959 14.0625C3.2959 11.5112 5.35889 9.49707 7.89795 9.47266C8.06885 9.47266 8.21533 9.49707 8.39844 9.50928C8.47168 8.8501 8.59375 8.22754 8.75244 7.65381C8.49609 7.75146 8.21533 7.80029 7.91016 7.80029C6.44531 7.80029 5.23682 6.64062 5.24902 5.16357C5.26123 3.69873 6.44531 2.51465 7.91016 2.51465C9.05762 2.51465 10.022 3.27148 10.3394 4.28467C10.3516 4.35791 10.3638 4.44336 10.3638 4.5166C11.5356 3.23486 13.208 2.33154 15.6006 1.86768L15.6006 1.68457C15.2832 0.561523 14.4043 0 12.9761 0L2.81982 0C0.939941 0 0 0.952148 0 2.84424L0 18.5181C0 20.4346 0.952148 21.3745 2.81982 21.3745ZM7.89795 6.53076C8.65479 6.53076 9.26514 5.92041 9.26514 5.16357C9.26514 4.40674 8.66699 3.80859 7.89795 3.80859C7.15332 3.80859 6.53076 4.40674 6.53076 5.16357C6.53076 5.92041 7.14111 6.53076 7.89795 6.53076ZM7.89795 16.0156C8.04443 16.0156 8.19092 15.9912 8.3252 15.9668L8.3252 12.1582C8.19092 12.1338 8.04443 12.1216 7.89795 12.1216C6.82373 12.1216 5.95703 12.9639 5.95703 14.0625C5.95703 15.1489 6.82373 16.0156 7.89795 16.0156ZM19.7632 6.54297C22.9004 6.54297 25.415 5.85938 25.415 4.98047C25.415 4.07715 22.9004 3.40576 19.7632 3.40576C16.6382 3.40576 14.1235 4.07715 14.1235 4.98047C14.1235 5.85938 16.6382 6.54297 19.7632 6.54297Z" fill="#5ac8f5"/>
 </g>
</svg>
