<?xml version="1.0" encoding="UTF-8"?>
<!--Generator: Apple Native CoreSVG 175.5-->
<!DOCTYPE svg
PUBLIC "-//W3C//DTD SVG 1.1//EN"
       "http://www.w3.org/Graphics/SVG/1.1/DTD/svg11.dtd">
<svg version="1.1" xmlns="http://www.w3.org/2000/svg" xmlns:xlink="http://www.w3.org/1999/xlink" width="30.5536" height="30.9983">
 <g>
  <rect height="30.9983" opacity="0" width="30.5536" x="0" y="0"/>
  <path d="M10.7658 12.9174C10.1311 13.5644 10.1433 14.3578 10.7658 14.9804L16.0271 20.2416C16.6496 20.8642 17.4431 20.8764 18.0779 20.2294L20.0554 18.2641C19.5793 17.7025 19.6037 16.9213 20.1286 16.3964C20.6535 15.8715 21.4226 15.8471 21.9841 16.3231L29.174 9.14541C30.9929 7.32656 31.0173 5.36123 29.2229 3.55459L27.4407 1.78457C25.6218-0.0220746 23.6809 0.00233946 21.8498 1.83339L14.6843 9.02334C15.1604 9.58486 15.136 10.3661 14.6111 10.8788C14.074 11.3915 13.3049 11.4159 12.7434 10.9398ZM12.3283 13.5399L13.0974 12.7709C14.0129 12.9662 14.8308 12.6732 15.5632 11.9408C16.3078 11.2084 16.5764 10.3783 16.3689 9.49941L23.0461 2.83437C24.0959 1.78457 25.2678 1.78457 26.2932 2.82216L28.1853 4.70205C29.2229 5.73964 29.2229 6.91152 28.1731 7.96132L21.508 14.6386C20.6291 14.4311 19.799 14.6996 19.0544 15.4442C18.322 16.1644 18.0412 16.9945 18.2243 17.9101L17.4675 18.6669C17.2112 18.9232 16.8938 18.9477 16.613 18.6791L12.3161 14.3822C12.0476 14.1137 12.072 13.7963 12.3283 13.5399ZM18.9201 9.74355C18.7126 9.93886 18.7126 10.244 18.9323 10.4638C19.1032 10.6347 19.4328 10.6591 19.6159 10.4638L24.6574 5.37343C24.8528 5.19033 24.865 4.89736 24.6574 4.68984C24.4865 4.51894 24.1692 4.49453 23.9739 4.68984ZM20.5559 11.3915C20.3606 11.5746 20.3728 11.9042 20.5559 12.0873C20.7634 12.2826 21.0686 12.2826 21.2639 12.0873L26.3176 7.0458C26.5129 6.85048 26.5129 6.54531 26.3176 6.33779C26.1345 6.14248 25.8049 6.16689 25.6218 6.33779ZM2.98997 23.4154L0.18235 27.5902C-0.037377 27.9076-0.0739981 28.2372 0.157936 28.4569L2.53831 30.8495C2.77024 31.0692 3.08762 31.0326 3.41721 30.8251L7.59202 28.0175C7.95823 27.7733 8.20237 27.4071 8.2634 26.9921L8.45872 25.7103L15.5388 18.6425L14.489 17.5927L6.96946 25.1244L6.7009 26.6259L3.13645 29.3358L1.6594 27.8588L4.36936 24.2943L5.88303 24.038L13.4026 16.5062L12.3528 15.4564L5.28489 22.5487L4.00315 22.744C3.60032 22.7929 3.2219 23.0492 2.98997 23.4154Z" fill="#5ac8f5"/>
 </g>
</svg>
