<?xml version="1.0" encoding="UTF-8"?>
<!--Generator: Apple Native CoreSVG 175.5-->
<!DOCTYPE svg
PUBLIC "-//W3C//DTD SVG 1.1//EN"
       "http://www.w3.org/Graphics/SVG/1.1/DTD/svg11.dtd">
<svg version="1.1" xmlns="http://www.w3.org/2000/svg" xmlns:xlink="http://www.w3.org/1999/xlink" width="24.7681" height="26.4344">
 <g>
  <rect height="26.4344" opacity="0" width="24.7681" x="0" y="0"/>
  <path d="M1.74561 20.9992L10.2295 25.8087C11.6699 26.6388 13.0737 26.6388 14.5386 25.8087L23.0225 20.9992C24.1577 20.3522 24.7681 19.693 24.7681 17.923L24.7681 8.42594C24.7681 6.70474 24.1455 6.08219 23.1079 5.48404L14.5996 0.650057C13.0859-0.22885 11.6455-0.204436 10.1685 0.650057L1.67236 5.48404C0.622559 6.08219 0 6.70474 0 8.42594L0 17.923C0 19.693 0.622559 20.3522 1.74561 20.9992ZM22.7905 13.2111L22.7905 17.862C22.7905 18.5334 22.5586 18.9118 21.875 19.3024L13.7451 23.9167C12.7686 24.4782 11.9751 24.4538 11.0352 23.9167L2.90527 19.3024C2.20947 18.9118 1.97754 18.5334 1.97754 17.862L1.97754 13.2111Z" fill="#5ac8f5"/>
 </g>
</svg>
