<?xml version="1.0" encoding="UTF-8"?>
<!--Generator: Apple Native CoreSVG 175.5-->
<!DOCTYPE svg
PUBLIC "-//W3C//DTD SVG 1.1//EN"
       "http://www.w3.org/Graphics/SVG/1.1/DTD/svg11.dtd">
<svg version="1.1" xmlns="http://www.w3.org/2000/svg" xmlns:xlink="http://www.w3.org/1999/xlink" width="35.6689" height="25.9155">
 <g>
  <rect height="25.9155" opacity="0" width="35.6689" x="0" y="0"/>
  <path d="M0.976562 25.9033C1.52588 25.9033 1.96533 25.4639 1.96533 24.9268L1.96533 2.6123C1.96533 2.22168 2.22168 1.96533 2.58789 1.96533L33.0811 1.96533C33.4473 1.96533 33.7036 2.22168 33.7036 2.6123L33.7036 24.9268C33.7036 25.4639 34.1431 25.9033 34.6924 25.9033C35.2295 25.9033 35.6689 25.4639 35.6689 24.9268L35.6689 2.49023C35.6689 1.00098 34.6558 0 33.1177 0L2.55127 0C1.02539 0 0 1.00098 0 2.49023L0 24.9268C0 25.4639 0.439453 25.9033 0.976562 25.9033ZM3.80859 25.4761L31.8726 25.4761C32.0923 25.4761 32.2754 25.2808 32.2754 25.061L32.2754 3.79639C32.2754 3.56445 32.0923 3.38135 31.8726 3.38135L3.80859 3.38135C3.57666 3.38135 3.39355 3.56445 3.39355 3.79639L3.39355 25.061C3.39355 25.2808 3.57666 25.4761 3.80859 25.4761ZM5.48096 10.1074C5.23682 10.1074 5.05371 9.92432 5.05371 9.68018L5.05371 5.35889C5.05371 5.11475 5.23682 4.91943 5.48096 4.91943L9.8877 4.91943C10.1318 4.91943 10.3271 5.11475 10.3271 5.35889L10.3271 9.68018C10.3271 9.92432 10.1318 10.1074 9.8877 10.1074ZM12.2803 10.1074C12.0361 10.1074 11.8408 9.92432 11.8408 9.68018L11.8408 5.35889C11.8408 5.11475 12.0361 4.91943 12.2803 4.91943L16.6748 4.91943C16.9189 4.91943 17.1143 5.11475 17.1143 5.35889L17.1143 9.68018C17.1143 9.92432 16.9189 10.1074 16.6748 10.1074ZM19.0552 10.1074C18.811 10.1074 18.6279 9.92432 18.6279 9.68018L18.6279 5.35889C18.6279 5.11475 18.811 4.91943 19.0552 4.91943L23.4375 4.91943C23.6694 4.91943 23.8647 5.11475 23.8647 5.35889L23.8647 9.68018C23.8647 9.92432 23.6694 10.1074 23.5352 10.1074ZM25.8057 10.1074C25.5615 10.1074 25.3784 9.92432 25.3784 9.68018L25.3784 5.35889C25.3784 5.11475 25.5615 4.91943 25.8057 4.91943L30.188 4.91943C30.4321 4.91943 30.6152 5.11475 30.6152 5.35889L30.6152 9.68018C30.6152 9.92432 30.4321 10.1074 30.2856 10.1074ZM15.21 23.4131C14.856 23.4131 14.6118 23.1689 14.6118 22.8271C14.6118 22.4731 14.856 22.229 15.21 22.229L20.4712 22.229C20.813 22.229 21.0571 22.4731 21.0571 22.8271C21.0571 23.1689 20.813 23.4131 20.4712 23.4131Z" fill="#5ac8f5"/>
 </g>
</svg>
