<?xml version="1.0" encoding="UTF-8"?>
<!--Generator: Apple Native CoreSVG 175.5-->
<!DOCTYPE svg
PUBLIC "-//W3C//DTD SVG 1.1//EN"
       "http://www.w3.org/Graphics/SVG/1.1/DTD/svg11.dtd">
<svg version="1.1" xmlns="http://www.w3.org/2000/svg" xmlns:xlink="http://www.w3.org/1999/xlink" width="24.6826" height="27.4048">
 <g>
  <rect height="27.4048" opacity="0" width="24.6826" x="0" y="0"/>
  <path d="M12.3413 11.8774C19.7388 11.8774 24.6826 9.50928 24.6826 5.94482C24.6826 2.38037 19.7388 0 12.3413 0C4.93164 0 0 2.38037 0 5.94482C0 9.50928 4.93164 11.8774 12.3413 11.8774ZM12.3413 9.91211C6.11572 9.91211 1.96533 8.31299 1.96533 5.94482C1.96533 3.57666 6.11572 1.96533 12.3413 1.96533C18.5669 1.96533 22.7173 3.57666 22.7173 5.94482C22.7173 8.31299 18.5669 9.91211 12.3413 9.91211ZM12.3413 18.0542C20.0195 18.0542 24.6826 15.918 24.6826 10.8032L24.6826 5.94482L22.7173 5.94482L22.7173 10.8032C22.7173 14.6851 18.7988 16.0889 12.3413 16.0889C5.88379 16.0889 1.96533 14.6851 1.96533 10.8032L1.96533 5.94482L0 5.94482L0 10.8032C0 15.918 4.65088 18.0542 12.3413 18.0542ZM5.2002 12.2559L5.2002 9.97314L3.60107 9.97314L3.60107 12.2559C3.60107 12.6953 3.96729 13.0615 4.40674 13.0615C4.84619 13.0615 5.2002 12.6953 5.2002 12.2559ZM8.94775 13.0859L8.94775 10.8032L7.34863 10.8032L7.34863 13.0859C7.34863 13.5254 7.70264 13.8916 8.14209 13.8916C8.58154 13.8916 8.94775 13.5254 8.94775 13.0859ZM12.9883 13.4033L12.9883 11.1206L11.3892 11.1206L11.3892 13.4033C11.3892 13.8428 11.7554 14.1968 12.1948 14.1968C12.6343 14.1968 12.9883 13.8428 12.9883 13.4033ZM17.041 13.0859L17.041 10.8032L15.4419 10.8032L15.4419 13.0859C15.4419 13.5254 15.8081 13.8916 16.2476 13.8916C16.687 13.8916 17.041 13.5254 17.041 13.0859ZM20.7886 12.2559L20.7886 9.97314L19.1895 9.97314L19.1895 12.2559C19.1895 12.6953 19.5435 13.0615 19.9829 13.0615C20.4224 13.0615 20.7886 12.6953 20.7886 12.2559Z" fill="#5ac8f5" fill-opacity="0.5"/>
  <path d="M2.35596 23.6938C2.35596 24.0601 2.52686 24.4507 2.97852 24.5972C5.39551 25.4028 8.12988 25.8667 10.9619 25.8667C13.7817 25.8667 16.5161 25.415 18.9453 24.5972L18.335 22.8516C16.1011 23.6084 13.5742 24.0234 10.9619 24.0234C8.3374 24.0234 5.81055 23.6084 3.57666 22.8516C2.83203 22.583 2.35596 23.1323 2.35596 23.6938ZM17.8955 26.7822C18.1641 27.5269 19.1162 27.5513 19.4946 26.9531L21.9238 23.1445C22.2412 22.6196 22.0337 22.0459 21.46 21.8384L17.2119 20.3613C16.5527 20.1294 15.7715 20.7153 16.0522 21.5088Z" fill="#5ac8f5"/>
 </g>
</svg>
