<?xml version="1.0" encoding="UTF-8"?>
<!--Generator: Apple Native CoreSVG 175.5-->
<!DOCTYPE svg
PUBLIC "-//W3C//DTD SVG 1.1//EN"
       "http://www.w3.org/Graphics/SVG/1.1/DTD/svg11.dtd">
<svg version="1.1" xmlns="http://www.w3.org/2000/svg" xmlns:xlink="http://www.w3.org/1999/xlink" width="22.4731" height="22.4976">
 <g>
  <rect height="22.4976" opacity="0" width="22.4731" x="0" y="0"/>
  <path d="M3.83301 22.4976L18.6401 22.4976C21.2036 22.4976 22.4731 21.228 22.4731 18.7134L22.4731 3.80859C22.4731 1.29395 21.2036 0.0244141 18.6401 0.0244141L3.83301 0.0244141C1.28174 0.0244141 0 1.28174 0 3.80859L0 18.7134C0 21.2402 1.28174 22.4976 3.83301 22.4976Z" fill="#5ac8f5" fill-opacity="0.25"/>
  <path d="M15.1855 14.3677C14.624 14.3677 14.2578 13.9771 14.2578 13.3789L14.2578 11.2183L14.4409 9.25293L12.6221 11.1938L8.02002 15.8081C7.83691 15.9912 7.59277 16.1011 7.2876 16.1011C6.73828 16.1011 6.37207 15.7349 6.37207 15.1611C6.37207 14.917 6.48193 14.6606 6.66504 14.4775L11.2915 9.86328L13.2568 8.03223L11.3892 8.22754L9.11865 8.22754C8.5083 8.22754 8.11768 7.86133 8.11768 7.31201C8.11768 6.75049 8.49609 6.38428 9.09424 6.38428L15.0513 6.38428C15.6982 6.38428 16.1133 6.67725 16.1133 7.42188L16.1133 13.3545C16.1133 13.9404 15.7349 14.3677 15.1855 14.3677Z" fill="#5ac8f5"/>
 </g>
</svg>
