<?xml version="1.0" encoding="UTF-8"?>
<!--Generator: Apple Native CoreSVG 175.5-->
<!DOCTYPE svg
PUBLIC "-//W3C//DTD SVG 1.1//EN"
       "http://www.w3.org/Graphics/SVG/1.1/DTD/svg11.dtd">
<svg version="1.1" xmlns="http://www.w3.org/2000/svg" xmlns:xlink="http://www.w3.org/1999/xlink" width="24.5972" height="21.106">
 <g>
  <rect height="21.106" opacity="0" width="24.5972" x="0" y="0"/>
  <path d="M0.915527 1.84326L23.6572 1.84326C24.1699 1.84326 24.5972 1.44043 24.5972 0.915527C24.5972 0.402832 24.1699 0 23.6572 0L0.915527 0C0.402832 0 0 0.402832 0 0.915527C0 1.44043 0.402832 1.84326 0.915527 1.84326ZM0.915527 14.6362L23.6572 14.6362C24.1699 14.6362 24.5972 14.2212 24.5972 13.7085C24.5972 13.1958 24.1699 12.793 23.6572 12.793L0.915527 12.793C0.402832 12.793 0 13.1958 0 13.7085C0 14.2212 0.402832 14.6362 0.915527 14.6362ZM9.93652 8.23975L23.6572 8.23975C24.1699 8.23975 24.5972 7.83691 24.5972 7.31201C24.5972 6.79932 24.1699 6.39648 23.6572 6.39648L9.93652 6.39648C9.41162 6.39648 9.00879 6.79932 9.00879 7.31201C9.00879 7.83691 9.41162 8.23975 9.93652 8.23975ZM9.93652 21.0205L23.6572 21.0205C24.1699 21.0205 24.5972 20.6177 24.5972 20.105C24.5972 19.5923 24.1699 19.1772 23.6572 19.1772L9.93652 19.1772C9.41162 19.1772 9.00879 19.5923 9.00879 20.105C9.00879 20.6177 9.41162 21.0205 9.93652 21.0205Z" fill="#5ac8f5"/>
 </g>
</svg>
