<?xml version="1.0" encoding="UTF-8"?>
<!--Generator: Apple Native CoreSVG 175.5-->
<!DOCTYPE svg
PUBLIC "-//W3C//DTD SVG 1.1//EN"
       "http://www.w3.org/Graphics/SVG/1.1/DTD/svg11.dtd">
<svg version="1.1" xmlns="http://www.w3.org/2000/svg" xmlns:xlink="http://www.w3.org/1999/xlink" width="22.8852" height="29.2847">
 <g>
  <rect height="29.2847" opacity="0" width="22.8852" x="0" y="0"/>
  <path d="M8.65479 10.6689C10.1318 10.6689 11.3281 9.47266 11.3281 7.99561C11.3281 6.51855 10.1318 5.33447 8.65479 5.33447C7.17773 5.33447 5.99365 6.51855 5.99365 7.99561C5.99365 9.47266 7.17773 10.6689 8.65479 10.6689ZM2.16064 26.709L9.49707 28.5522C10.5347 28.8086 11.2305 28.0518 11.0962 27.0874L10.4126 22.4121L16.2231 22.4121L20.7642 27.0142C21.2402 27.4902 22.0337 27.4902 22.5098 27.0142C23.0225 26.5381 22.998 25.7324 22.5098 25.2441L17.7124 20.4224C17.3828 20.0928 17.2485 19.9951 16.6992 19.9341L11.438 19.4092L10.1074 15.3931C10.0098 15.1123 10.2295 14.8315 10.5347 14.8926L20.1538 16.8091C20.7764 16.9312 21.4722 16.6016 21.5942 15.8569C21.7041 15.1855 21.3135 14.5386 20.6421 14.4043L7.34863 11.7554C6.17676 11.5234 5.5542 11.3525 5.0293 10.8398L2.46582 8.30078L2.46582 2.62451C2.46582 1.94092 1.9165 1.3916 1.24512 1.3916C0.537109 1.3916 0 1.94092 0 2.62451L0 8.60596C0 9.11865 0.0610352 9.41162 0.427246 9.77783L3.28369 12.6221C3.86963 13.2202 3.94287 13.4277 4.15039 14.0259L8.00781 25.6226L2.75879 24.3042C2.09961 24.1333 1.42822 24.5483 1.28174 25.2197C1.13525 25.8667 1.51367 26.5381 2.16064 26.709ZM4.78516 3.05176C5.61523 3.05176 6.31104 2.38037 6.31104 1.52588C6.31104 0.683594 5.61523 0 4.78516 0C3.91846 0 3.27148 0.683594 3.27148 1.52588C3.27148 2.38037 3.91846 3.05176 4.78516 3.05176Z" fill="#5ac8f5"/>
 </g>
</svg>
