<?xml version="1.0" encoding="UTF-8"?>
<!--Generator: Apple Native CoreSVG 175.5-->
<!DOCTYPE svg
PUBLIC "-//W3C//DTD SVG 1.1//EN"
       "http://www.w3.org/Graphics/SVG/1.1/DTD/svg11.dtd">
<svg version="1.1" xmlns="http://www.w3.org/2000/svg" xmlns:xlink="http://www.w3.org/1999/xlink" width="24.9023" height="24.9146">
 <g>
  <rect height="24.9146" opacity="0" width="24.9023" x="0" y="0"/>
  <path d="M12.4512 24.9146C19.2627 24.9146 24.9023 19.2749 24.9023 12.4634C24.9023 5.66406 19.2505 0.012207 12.439 0.012207C5.63965 0.012207 0 5.66406 0 12.4634C0 19.2749 5.65186 24.9146 12.4512 24.9146Z" fill="#5ac8f5" fill-opacity="0.25"/>
  <path d="M10.9863 12.0483C10.9863 11.2427 11.6455 10.5957 12.4512 10.5957C13.269 10.5957 13.916 11.2427 13.916 12.0483C13.916 12.5977 13.5986 13.0737 13.1592 13.3179L13.1592 19.8486C13.1592 20.3125 12.8662 20.6177 12.4512 20.6177C12.0483 20.6177 11.7554 20.3003 11.7554 19.8486L11.7554 13.3301C11.3037 13.0859 10.9863 12.6099 10.9863 12.0483Z" fill="#5ac8f5"/>
  <path d="M7.61719 12.0483C7.61719 10.9741 7.99561 9.93652 8.65479 9.10645C8.94775 8.71582 9.49707 8.69141 9.81445 9.04541C10.0586 9.33838 10.0342 9.7168 9.729 10.1318C9.32617 10.6812 9.09424 11.3525 9.09424 12.0483C9.09424 12.8052 9.31396 13.4644 9.7168 13.9893C10.0342 14.4165 10.0708 14.7827 9.81445 15.0879C9.50928 15.4297 8.94775 15.4175 8.65479 15.0269C7.99561 14.1968 7.61719 13.147 7.61719 12.0483ZM15.8081 12.0483C15.8081 11.3525 15.5762 10.6812 15.1855 10.1318C14.8804 9.7168 14.8438 9.33838 15.0879 9.04541C15.4053 8.69141 15.9546 8.71582 16.2476 9.10645C16.9067 9.93652 17.2852 10.9741 17.2852 12.0483C17.2852 13.147 16.9067 14.1968 16.2476 15.0269C15.9546 15.4175 15.3931 15.4297 15.0879 15.0879C14.8315 14.7827 14.8682 14.4165 15.1855 13.9893C15.5884 13.4644 15.8081 12.8052 15.8081 12.0483Z" fill="#5ac8f5"/>
  <path d="M4.54102 12.0483C4.54102 10.1562 5.23682 8.36182 6.49414 6.99463C6.81152 6.61621 7.31201 6.604 7.61719 6.95801C7.88574 7.25098 7.84912 7.69043 7.53174 8.06885C6.55518 9.11865 6.01807 10.5347 6.01807 12.0483C6.01807 13.5986 6.55518 14.9902 7.53174 16.0645C7.84912 16.4551 7.88574 16.8701 7.60498 17.1753C7.31201 17.5171 6.81152 17.4927 6.49414 17.1387C5.22461 15.7593 4.54102 13.9771 4.54102 12.0483ZM18.8965 12.0483C18.8965 10.5347 18.3594 9.11865 17.3828 8.06885C17.0532 7.69043 17.0166 7.25098 17.2852 6.95801C17.5903 6.604 18.0908 6.61621 18.4082 6.99463C19.6655 8.36182 20.3735 10.1562 20.3735 12.0483C20.3735 13.9771 19.6777 15.7593 18.4082 17.1387C18.0908 17.4927 17.5903 17.5171 17.2974 17.1753C17.0166 16.8701 17.0532 16.4551 17.3828 16.0645C18.3594 14.9902 18.8965 13.5986 18.8965 12.0483Z" fill="#5ac8f5"/>
 </g>
</svg>
