<?xml version="1.0" encoding="UTF-8"?>
<!--Generator: Apple Native CoreSVG 175.5-->
<!DOCTYPE svg
PUBLIC "-//W3C//DTD SVG 1.1//EN"
       "http://www.w3.org/Graphics/SVG/1.1/DTD/svg11.dtd">
<svg version="1.1" xmlns="http://www.w3.org/2000/svg" xmlns:xlink="http://www.w3.org/1999/xlink" width="15.0024" height="22.7623">
 <g>
  <rect height="22.7623" opacity="0" width="15.0024" x="0" y="0"/>
  <path d="M1.0376 2.64701L5.13916 2.64701C8.1543 2.64701 10.0098 4.17289 10.0098 6.99271C10.0098 9.84916 8.19092 11.314 5.0415 11.314L1.5625 11.314C0.65918 11.314 0.20752 11.9244 0.20752 12.5713C0.20752 12.962 0.354004 13.3526 0.683594 13.6578L9.93652 22.3858C11.1084 23.4844 12.6221 21.9341 11.4746 20.8599L3.54004 13.4136L5.11475 13.4136C10.2295 13.4136 12.4146 10.1787 12.4146 6.91947C12.4146 4.91752 11.7065 3.24515 10.3027 2.15873L14.1968 2.15873C14.6362 2.15873 15.0024 1.80472 15.0024 1.36527C15.0024 0.913611 14.6362 0.559607 14.1968 0.559607L1.0376 0.559607C0.463867 0.559607 0 1.03568 0 1.60941C0 2.17094 0.463867 2.64701 1.0376 2.64701ZM0.976562 7.81058L14.1968 7.81058C14.6362 7.81058 15.0024 7.45658 15.0024 7.00492C15.0024 6.56547 14.6362 6.21146 14.1968 6.21146L0.976562 6.21146C0.537109 6.21146 0.170898 6.56547 0.170898 7.00492C0.170898 7.45658 0.537109 7.81058 0.976562 7.81058Z" fill="#5ac8f5"/>
 </g>
</svg>
