<?xml version="1.0" encoding="UTF-8"?>
<!--Generator: Apple Native CoreSVG 175.5-->
<!DOCTYPE svg
PUBLIC "-//W3C//DTD SVG 1.1//EN"
       "http://www.w3.org/Graphics/SVG/1.1/DTD/svg11.dtd">
<svg version="1.1" xmlns="http://www.w3.org/2000/svg" xmlns:xlink="http://www.w3.org/1999/xlink" width="39.2944" height="25.4517">
 <g>
  <rect height="25.4517" opacity="0" width="39.2944" x="0" y="0"/>
  <path d="M2.80762 21.1182L18.4082 21.1182L18.4082 19.1528L2.84424 19.1528C2.30713 19.1528 1.96533 18.811 1.96533 18.2739L1.96533 3.69873C1.96533 3.14941 2.30713 2.81982 2.84424 2.81982L26.2573 2.81982C26.7944 2.81982 27.1362 3.14941 27.1362 3.69873L27.1362 7.33643L29.1016 7.33643L29.1016 3.66211C29.1016 1.9043 28.0396 0.854492 26.2817 0.854492L2.80762 0.854492C1.06201 0.854492 0 1.9043 0 3.66211L0 18.2983C0 20.0562 1.06201 21.1182 2.80762 21.1182ZM10.6934 24.0234L18.4082 24.0234L18.4082 20.9595L10.6934 20.9595ZM10.6201 25.4517L18.4814 25.4517C19.0186 25.4517 19.458 25.0122 19.458 24.4629C19.458 23.9136 19.0186 23.4741 18.4814 23.4741L10.6201 23.4741C10.083 23.4741 9.63135 23.9136 9.63135 24.4629C9.63135 25.0122 10.083 25.4517 10.6201 25.4517ZM16.6016 19.1284C16.6016 21.2646 17.6514 22.2534 19.7388 22.2534L36.1694 22.2534C38.2568 22.2534 39.2944 21.2646 39.2944 19.1284L39.2944 9.80225C39.2944 7.66602 38.2568 6.66504 36.1694 6.66504L19.7388 6.66504C17.6514 6.66504 16.6016 7.66602 16.6016 9.80225ZM18.5669 19.0918L18.5669 9.83887C18.5669 8.97217 18.9331 8.63037 19.7754 8.63037L36.1328 8.63037C36.9629 8.63037 37.3291 8.97217 37.3291 9.83887L37.3291 19.0918C37.3291 19.9463 36.9629 20.2881 36.1328 20.2881L19.7754 20.2881C18.9331 20.2881 18.5669 19.9463 18.5669 19.0918ZM24.7192 24.0234L31.189 24.0234L31.189 21.0938L24.7192 21.0938ZM24.646 25.4517L31.25 25.4517C31.7993 25.4517 32.2388 25.0122 32.2388 24.4629C32.2388 23.9136 31.7993 23.4741 31.25 23.4741L24.646 23.4741C24.1089 23.4741 23.6572 23.9136 23.6572 24.4629C23.6572 25.0122 24.1089 25.4517 24.646 25.4517Z" fill="#5ac8f5"/>
 </g>
</svg>
