<?xml version="1.0" encoding="UTF-8"?>
<!--Generator: Apple Native CoreSVG 175.5-->
<!DOCTYPE svg
PUBLIC "-//W3C//DTD SVG 1.1//EN"
       "http://www.w3.org/Graphics/SVG/1.1/DTD/svg11.dtd">
<svg version="1.1" xmlns="http://www.w3.org/2000/svg" xmlns:xlink="http://www.w3.org/1999/xlink" width="22.4731" height="22.4976">
 <g>
  <rect height="22.4976" opacity="0" width="22.4731" x="0" y="0"/>
  <path d="M3.83301 22.4976L18.6401 22.4976C21.2036 22.4976 22.4731 21.228 22.4731 18.7134L22.4731 3.80859C22.4731 1.29395 21.2036 0.0244141 18.6401 0.0244141L3.83301 0.0244141C1.28174 0.0244141 0 1.28174 0 3.80859L0 18.7134C0 21.2402 1.28174 22.4976 3.83301 22.4976ZM4.78516 11.2305C4.78516 10.9497 4.88281 10.7544 5.13916 10.498L9.38721 6.22559C9.55811 6.05469 9.79004 5.96924 10.0464 5.96924C10.5835 5.96924 10.9619 6.35986 10.9619 6.88477C10.9619 7.15332 10.8521 7.38525 10.6812 7.56836L9.11865 9.11865L7.60498 10.3882L10.2661 10.2783L16.7969 10.2783C17.3462 10.2783 17.749 10.6689 17.749 11.2305C17.749 11.7798 17.3584 12.1704 16.7969 12.1704L10.2661 12.1704L7.59277 12.0728L9.11865 13.3423L10.6812 14.8926C10.8643 15.0635 10.9619 15.2954 10.9619 15.564C10.9619 16.0889 10.5835 16.4917 10.0464 16.4917C9.79004 16.4917 9.55811 16.394 9.38721 16.2231L5.13916 11.9629C4.90723 11.731 4.78516 11.5112 4.78516 11.2305Z" fill="#5ac8f5"/>
 </g>
</svg>
