<?xml version="1.0" encoding="UTF-8"?>
<!--Generator: Apple Native CoreSVG 175.5-->
<!DOCTYPE svg
PUBLIC "-//W3C//DTD SVG 1.1//EN"
       "http://www.w3.org/Graphics/SVG/1.1/DTD/svg11.dtd">
<svg version="1.1" xmlns="http://www.w3.org/2000/svg" xmlns:xlink="http://www.w3.org/1999/xlink" width="33.8379" height="22.1802">
 <g>
  <rect height="22.1802" opacity="0" width="33.8379" x="0" y="0"/>
  <path d="M2.44141 10.6079L14.1235 10.6079C15.7471 10.6079 16.5649 9.79004 16.5649 8.10547L16.5649 2.50244C16.5649 0.817871 15.7471 0.012207 14.1235 0.012207L2.44141 0.012207C0.817871 0.012207 0 0.817871 0 2.50244L0 8.10547C0 9.79004 0.817871 10.6079 2.44141 10.6079ZM5.39551 22.1802L15.6128 22.1802C17.2485 22.1802 18.0664 21.3623 18.0664 19.6899L18.0664 15.6494C18.0664 13.9648 17.2485 13.147 15.6128 13.147L5.39551 13.147C3.75977 13.147 2.94189 13.9648 2.94189 15.6494L2.94189 19.6899C2.94189 21.3623 3.75977 22.1802 5.39551 22.1802ZM22.9126 20.5811L31.3843 20.5811C33.02 20.5811 33.8379 19.7632 33.8379 18.0786L33.8379 4.24805C33.8379 2.56348 33.02 1.74561 31.3843 1.74561L22.9126 1.74561C21.2769 1.74561 20.459 2.56348 20.459 4.24805L20.459 18.0786C20.459 19.7632 21.2769 20.5811 22.9126 20.5811Z" fill="#5ac8f5"/>
 </g>
</svg>
