<?xml version="1.0" encoding="UTF-8"?>
<!--Generator: Apple Native CoreSVG 175.5-->
<!DOCTYPE svg
PUBLIC "-//W3C//DTD SVG 1.1//EN"
       "http://www.w3.org/Graphics/SVG/1.1/DTD/svg11.dtd">
<svg version="1.1" xmlns="http://www.w3.org/2000/svg" xmlns:xlink="http://www.w3.org/1999/xlink" width="26.123" height="26.1108">
 <g>
  <rect height="26.1108" opacity="0" width="26.123" x="0" y="0"/>
  <path d="M11.8286 26.0986L14.2944 26.0986C15.2344 26.0986 15.9546 25.5249 16.1743 24.6216L16.6992 22.3389L17.0898 22.2046L19.0796 23.4253C19.873 23.9258 20.7886 23.8037 21.46 23.1323L23.1689 21.4355C23.8403 20.7642 23.9624 19.8364 23.4619 19.0552L22.2168 17.0776L22.3633 16.7114L24.646 16.1743C25.5371 15.9546 26.123 15.2222 26.123 14.2944L26.123 11.8774C26.123 10.9497 25.5493 10.2173 24.646 9.99756L22.3877 9.44824L22.229 9.05762L23.4741 7.08008C23.9746 6.29883 23.8525 5.3833 23.1812 4.69971L21.4722 2.99072C20.813 2.33154 19.8975 2.20947 19.104 2.69775L17.1143 3.91846L16.6992 3.75977L16.1743 1.47705C15.9546 0.57373 15.2344 0 14.2944 0L11.8286 0C10.8887 0 10.1685 0.57373 9.94873 1.47705L9.41162 3.75977L8.99658 3.91846L7.01904 2.69775C6.22559 2.20947 5.29785 2.33154 4.63867 2.99072L2.94189 4.69971C2.27051 5.3833 2.13623 6.29883 2.64893 7.08008L3.88184 9.05762L3.73535 9.44824L1.47705 9.99756C0.57373 10.2173 0 10.9497 0 11.8774L0 14.2944C0 15.2222 0.585938 15.9546 1.47705 16.1743L3.75977 16.7114L3.89404 17.0776L2.66113 19.0552C2.14844 19.8364 2.28271 20.7642 2.9541 21.4355L4.65088 23.1323C5.32227 23.8037 6.25 23.9258 7.04346 23.4253L9.021 22.2046L9.41162 22.3389L9.94873 24.6216C10.1685 25.5249 10.8887 26.0986 11.8286 26.0986ZM12.0239 24.1943C11.8164 24.1943 11.7065 24.1089 11.6699 23.9136L10.9375 20.8862C10.1929 20.7031 9.49707 20.4102 8.97217 20.0806L6.31104 21.7163C6.16455 21.8262 6.00586 21.8018 5.85938 21.6553L4.41895 20.2148C4.28467 20.0806 4.27246 19.9341 4.37012 19.7632L6.00586 17.1265C5.7251 16.6138 5.40771 15.918 5.2124 15.1733L2.18506 14.4531C1.98975 14.4165 1.9043 14.3066 1.9043 14.0991L1.9043 12.0605C1.9043 11.8408 1.97754 11.7432 2.18506 11.7065L5.2002 10.9741C5.39551 10.1807 5.76172 9.46045 5.98145 9.00879L4.35791 6.37207C4.24805 6.18896 4.26025 6.04248 4.39453 5.896L5.84717 4.47998C5.99365 4.3335 6.12793 4.30908 6.31104 4.41895L8.94775 6.01807C9.47266 5.7251 10.2173 5.41992 10.9497 5.2124L11.6699 2.18506C11.7065 1.98975 11.8164 1.9043 12.0239 1.9043L14.0991 1.9043C14.3066 1.9043 14.4165 1.98975 14.4409 2.18506L15.1855 5.23682C15.9424 5.43213 16.6016 5.7373 17.1509 6.03027L19.7998 4.41895C19.9951 4.30908 20.1172 4.3335 20.2759 4.47998L21.7163 5.896C21.8628 6.04248 21.8628 6.18896 21.7529 6.37207L20.1294 9.00879C20.3613 9.46045 20.7153 10.1807 20.9106 10.9741L23.938 11.7065C24.1333 11.7432 24.2188 11.8408 24.2188 12.0605L24.2188 14.0991C24.2188 14.3066 24.1211 14.4165 23.938 14.4531L20.8984 15.1733C20.7031 15.918 20.3979 16.6138 20.105 17.1265L21.7407 19.7632C21.8384 19.9341 21.8384 20.0806 21.6919 20.2148L20.2637 21.6553C20.105 21.8018 19.9585 21.8262 19.7998 21.7163L17.1387 20.0806C16.6138 20.4102 15.9302 20.7031 15.1855 20.8862L14.4409 23.9136C14.4165 24.1089 14.3066 24.1943 14.0991 24.1943ZM13.0615 17.7124C15.6128 17.7124 17.7124 15.6128 17.7124 13.0493C17.7124 10.5103 15.6128 8.41064 13.0615 8.41064C10.5103 8.41064 8.39844 10.5103 8.39844 13.0493C8.39844 15.6006 10.498 17.7124 13.0615 17.7124ZM13.0615 15.8203C11.5479 15.8203 10.3027 14.5752 10.3027 13.0493C10.3027 11.5479 11.5479 10.3027 13.0615 10.3027C14.5508 10.3027 15.7959 11.5479 15.7959 13.0493C15.7959 14.563 14.5508 15.8203 13.0615 15.8203Z" fill="#5ac8f5"/>
 </g>
</svg>
