<?xml version="1.0" encoding="UTF-8"?>
<!--Generator: Apple Native CoreSVG 175.5-->
<!DOCTYPE svg
PUBLIC "-//W3C//DTD SVG 1.1//EN"
       "http://www.w3.org/Graphics/SVG/1.1/DTD/svg11.dtd">
<svg version="1.1" xmlns="http://www.w3.org/2000/svg" xmlns:xlink="http://www.w3.org/1999/xlink" width="24.9023" height="26.3306">
 <g>
  <rect height="26.3306" opacity="0" width="24.9023" x="0" y="0"/>
  <path d="M12.4512 25.6104C19.2627 25.6104 24.9023 19.9585 24.9023 13.1592C24.9023 9.41162 23.1934 6.16455 20.8496 4.02832C19.7754 3.05176 18.396 4.50439 19.458 5.51758C21.5332 7.40967 22.8149 10.1196 22.8271 13.1592C22.8394 18.9209 18.2129 23.5352 12.4512 23.5352C6.68945 23.5352 2.0874 18.9209 2.0874 13.1592C2.09961 10.0952 3.38135 7.39746 5.44434 5.50537C6.51855 4.47998 5.12695 3.03955 4.05273 4.01611C1.69678 6.15234 0 9.41162 0 13.1592C0 19.9585 5.65186 25.6104 12.4512 25.6104ZM12.4512 13.0371C13.0371 13.0371 13.4399 12.6099 13.4399 11.9995L13.4399 1.0376C13.4399 0.415039 13.0371 0 12.4512 0C11.8652 0 11.4746 0.415039 11.4746 1.0376L11.4746 11.9995C11.4746 12.6099 11.8652 13.0371 12.4512 13.0371Z" fill="#5ac8f5"/>
 </g>
</svg>
