<?xml version="1.0" encoding="UTF-8"?>
<!--Generator: Apple Native CoreSVG 175.5-->
<!DOCTYPE svg
PUBLIC "-//W3C//DTD SVG 1.1//EN"
       "http://www.w3.org/Graphics/SVG/1.1/DTD/svg11.dtd">
<svg version="1.1" xmlns="http://www.w3.org/2000/svg" xmlns:xlink="http://www.w3.org/1999/xlink" width="23.8037" height="29.3091">
 <g>
  <rect height="29.3091" opacity="0" width="23.8037" x="0" y="0"/>
  <path d="M11.9019 26.5015C14.3921 26.5015 17.5415 26.416 19.7754 26.2817L19.7754 28.0029C19.7754 28.7354 20.3491 29.3091 21.0938 29.3091L22.4731 29.3091C23.2178 29.3091 23.8037 28.7354 23.8037 28.0029L23.8037 22.1802C23.8037 20.4956 23.4619 19.5435 22.5342 18.3472L21.6919 17.2729C21.3257 15.4663 20.6665 13.5864 20.3247 12.854C19.7754 11.7188 18.75 11.0352 17.4194 10.8765C16.7603 10.791 14.4897 10.73 11.9019 10.73C9.31396 10.73 7.04346 10.791 6.38428 10.8765C5.05371 11.0352 4.01611 11.7188 3.479 12.854C3.13721 13.5864 2.47803 15.4663 2.11182 17.2729L1.26953 18.3472C0.341797 19.5435 0 20.4956 0 22.1802L0 28.0029C0 28.7354 0.585938 29.3091 1.33057 29.3091L2.70996 29.3091C3.45459 29.3091 4.02832 28.7354 4.02832 28.0029L4.02832 26.2817C6.26221 26.416 9.41162 26.5015 11.9019 26.5015ZM4.21143 16.4429C4.44336 15.3442 4.93164 13.916 5.26123 13.3423C5.52979 12.8662 5.82275 12.6709 6.35986 12.5854C7.1167 12.4878 8.81348 12.4268 11.9019 12.4268C14.9902 12.4268 16.687 12.4634 17.4438 12.5854C17.981 12.6709 18.2617 12.8662 18.5425 13.3423C18.8843 13.9038 19.3237 15.3442 19.5923 16.4429C19.6899 16.8091 19.5312 16.9556 19.1528 16.9189C17.4927 16.8091 15.5151 16.7114 11.9019 16.7114C8.28857 16.7114 6.31104 16.8091 4.65088 16.9189C4.27246 16.9556 4.12598 16.8091 4.21143 16.4429ZM4.69971 23.8159C3.79639 23.8159 3.08838 23.1079 3.08838 22.2046C3.08838 21.2891 3.79639 20.6055 4.69971 20.6055C5.61523 20.6055 6.29883 21.2891 6.29883 22.2046C6.29883 23.1079 5.61523 23.8159 4.69971 23.8159ZM9.26514 23.4131C8.58154 23.4131 8.10547 22.937 8.10547 22.2534C8.10547 21.5698 8.58154 21.106 9.26514 21.106L14.5386 21.106C15.2222 21.106 15.6982 21.5698 15.6982 22.2534C15.6982 22.937 15.2222 23.4131 14.5386 23.4131ZM19.104 23.8159C18.1885 23.8159 17.5049 23.1079 17.5049 22.2046C17.5049 21.2891 18.1885 20.6055 19.104 20.6055C20.0073 20.6055 20.7031 21.2891 20.7031 22.2046C20.7031 23.1079 20.0073 23.8159 19.104 23.8159Z" fill="#5ac8f5"/>
  <path d="M11.8774 6.92139C13.147 6.92139 14.3311 7.2876 15.2344 8.02002C15.7593 8.39844 16.3086 8.56934 16.748 8.17871C17.2119 7.77588 17.2241 7.04346 16.6626 6.604C15.3442 5.54199 13.6719 4.93164 11.8774 4.93164C10.083 4.93164 8.41064 5.54199 7.09229 6.604C6.53076 7.04346 6.54297 7.77588 7.00684 8.17871C7.44629 8.56934 7.9834 8.39844 8.52051 8.02002C9.46045 7.31201 10.6079 6.92139 11.8774 6.92139Z" fill="#5ac8f5" fill-opacity="0.5"/>
  <path d="M11.853 2.02637C14.4897 2.02637 16.8701 2.94189 18.689 4.57764C19.2017 5.0293 19.7632 5.13916 20.2026 4.76074C20.6665 4.35791 20.6665 3.68652 20.1416 3.21045C17.9443 1.18408 15.0146 0.0366211 11.853 0.0366211C8.69141 0.0366211 5.77393 1.18408 3.56445 3.21045C3.05176 3.68652 3.05176 4.35791 3.50342 4.76074C3.95508 5.13916 4.5166 5.0293 5.01709 4.57764C6.84814 2.94189 9.22852 2.02637 11.853 2.02637Z" fill="#5ac8f5" fill-opacity="0.5"/>
 </g>
</svg>
