<?xml version="1.0" encoding="UTF-8"?>
<!--Generator: Apple Native CoreSVG 175.5-->
<!DOCTYPE svg
PUBLIC "-//W3C//DTD SVG 1.1//EN"
       "http://www.w3.org/Graphics/SVG/1.1/DTD/svg11.dtd">
<svg version="1.1" xmlns="http://www.w3.org/2000/svg" xmlns:xlink="http://www.w3.org/1999/xlink" width="17.041" height="15.979">
 <g>
  <rect height="15.979" opacity="0" width="17.041" x="0" y="0"/>
  <path d="M0 13.0249C0 14.8315 1.09863 15.979 2.79541 15.979L14.2456 15.979C15.9424 15.979 17.041 14.8315 17.041 13.0249L17.041 2.9541C17.041 1.14746 15.9058 0 14.2456 0L2.79541 0C1.09863 0 0 1.14746 0 2.9541ZM1.96533 12.7808L1.96533 3.19824C1.96533 2.4292 2.40479 1.96533 3.125 1.96533L13.916 1.96533C14.624 1.96533 15.0757 2.4292 15.0757 3.19824L15.0757 12.7808C15.0757 13.5498 14.624 14.0137 13.916 14.0137L3.125 14.0137C2.40479 14.0137 1.96533 13.5498 1.96533 12.7808ZM8.52051 12.7197C11.1328 12.7197 13.2568 10.5957 13.2568 7.9834C13.2568 5.37109 11.1328 3.24707 8.52051 3.24707C5.9082 3.24707 3.78418 5.37109 3.78418 7.9834C3.78418 10.5957 5.9082 12.7197 8.52051 12.7197ZM8.52051 11.1572C6.75049 11.1572 5.34668 9.75342 5.34668 7.9834C5.34668 6.21338 6.75049 4.80957 8.52051 4.80957C10.2905 4.80957 11.6943 6.21338 11.6943 7.9834C11.6943 9.75342 10.2905 11.1572 8.52051 11.1572Z" fill="#5ac8f5"/>
 </g>
</svg>
