<?xml version="1.0" encoding="UTF-8"?>
<!--Generator: Apple Native CoreSVG 175.5-->
<!DOCTYPE svg
PUBLIC "-//W3C//DTD SVG 1.1//EN"
       "http://www.w3.org/Graphics/SVG/1.1/DTD/svg11.dtd">
<svg version="1.1" xmlns="http://www.w3.org/2000/svg" xmlns:xlink="http://www.w3.org/1999/xlink" width="24.939" height="24.939">
 <g>
  <rect height="24.939" opacity="0" width="24.939" x="0" y="0"/>
  <path d="M0 12.4634C0 19.3359 5.59082 24.9268 12.4634 24.9268C19.3359 24.9268 24.939 19.3359 24.939 12.4634C24.939 6.22559 20.3247 1.0376 14.3311 0.146484C14.5752 0.500488 14.7339 0.939941 14.7339 1.41602C14.7339 2.02637 14.4897 2.56348 14.0991 2.96631C18.6279 3.75977 22.0947 7.71484 22.0947 12.4634C22.0947 17.7734 17.7856 22.0947 12.4634 22.0947C7.15332 22.0947 2.83203 17.7734 2.83203 12.4634C2.83203 7.15332 7.15332 2.83203 12.4634 2.83203C13.2446 2.83203 13.8794 2.19727 13.8794 1.41602C13.8794 0.634766 13.2446 0 12.4634 0C5.59082 0 0 5.59082 0 12.4634Z" fill="#5ac8f5" fill-opacity="0.5"/>
  <path d="M7.44629 13.2324C7.44629 13.5254 7.67822 13.7451 7.97119 13.7451L11.8164 13.7451L9.76562 19.2505C9.49707 19.9829 10.2783 20.3979 10.7544 19.7998L16.9922 11.9751C17.1021 11.8286 17.1753 11.6699 17.1753 11.5356C17.1753 11.2427 16.9434 11.0229 16.6504 11.0229L12.8052 11.0229L14.856 5.50537C15.1245 4.77295 14.3433 4.37012 13.8672 4.95605L7.62939 12.793C7.51953 12.9395 7.44629 13.0981 7.44629 13.2324Z" fill="#5ac8f5"/>
 </g>
</svg>
