<?xml version="1.0" encoding="UTF-8"?>
<!--Generator: Apple Native CoreSVG 175.5-->
<!DOCTYPE svg
PUBLIC "-//W3C//DTD SVG 1.1//EN"
       "http://www.w3.org/Graphics/SVG/1.1/DTD/svg11.dtd">
<svg version="1.1" xmlns="http://www.w3.org/2000/svg" xmlns:xlink="http://www.w3.org/1999/xlink" width="36.5449" height="24.8496">
 <g>
  <rect height="24.8496" opacity="0" width="36.5449" x="0" y="0"/>
  <path d="M3.56445 23.637L27.6001 23.637C29.895 23.637 31.1646 22.4285 31.1646 20.1213L31.1646 10.1482L29.1992 12.1135L29.1992 20.219C29.1992 21.2322 28.6255 21.8059 27.6123 21.8059L3.55225 21.8059C2.53906 21.8059 1.96533 21.2322 1.96533 20.219L1.96533 9.95289C1.96533 8.93971 2.53906 8.36598 3.55225 8.36598L23.4497 8.36598L25.293 6.53492L3.56445 6.53492C1.26953 6.53492 0 7.74342 0 10.0505L0 20.1213C0 22.4285 1.26953 23.637 3.56445 23.637Z" fill="#5ac8f5" fill-opacity="0.5"/>
  <path d="M21.1548 15.7146L23.645 14.616L34.3994 3.87379L32.6782 2.17701L21.9482 12.9192L20.7764 15.324C20.6665 15.5315 20.9229 15.8245 21.1548 15.7146ZM35.3027 2.95826L36.2183 2.03053C36.6455 1.57887 36.6577 0.980723 36.2305 0.565684L35.9375 0.272715C35.5469-0.11791 34.9365-0.0812891 34.5215 0.33375L33.606 1.23707Z" fill="#5ac8f5"/>
  <path d="M6.48193 16.8254C7.44629 16.8254 8.22754 16.0442 8.22754 15.0798C8.22754 14.1155 7.44629 13.3342 6.48193 13.3342C5.51758 13.3342 4.73633 14.1155 4.73633 15.0798C4.73633 16.0442 5.51758 16.8254 6.48193 16.8254Z" fill="#5ac8f5"/>
  <path d="M11.7432 16.8254C12.7075 16.8254 13.4888 16.0442 13.4888 15.0798C13.4888 14.1155 12.7075 13.3342 11.7432 13.3342C10.7788 13.3342 9.99756 14.1155 9.99756 15.0798C9.99756 16.0442 10.7788 16.8254 11.7432 16.8254Z" fill="#5ac8f5"/>
  <path d="M17.0044 16.8254C17.9688 16.8254 18.75 16.0442 18.75 15.0798C18.75 14.1155 17.9688 13.3342 17.0044 13.3342C16.04 13.3342 15.2588 14.1155 15.2588 15.0798C15.2588 16.0442 16.04 16.8254 17.0044 16.8254Z" fill="#5ac8f5"/>
 </g>
</svg>
