<?xml version="1.0" encoding="UTF-8"?>
<!--Generator: Apple Native CoreSVG 175.5-->
<!DOCTYPE svg
PUBLIC "-//W3C//DTD SVG 1.1//EN"
       "http://www.w3.org/Graphics/SVG/1.1/DTD/svg11.dtd">
<svg version="1.1" xmlns="http://www.w3.org/2000/svg" xmlns:xlink="http://www.w3.org/1999/xlink" width="22.4731" height="22.4976">
 <g>
  <rect height="22.4976" opacity="0" width="22.4731" x="0" y="0"/>
  <path d="M3.83301 22.4976L18.6401 22.4976C21.2036 22.4976 22.4731 21.228 22.4731 18.7134L22.4731 3.80859C22.4731 1.29395 21.2036 0.0244141 18.6401 0.0244141L3.83301 0.0244141C1.28174 0.0244141 0 1.28174 0 3.80859L0 18.7134C0 21.2402 1.28174 22.4976 3.83301 22.4976ZM3.85742 20.5322C2.63672 20.5322 1.96533 19.8853 1.96533 18.6157L1.96533 3.90625C1.96533 2.63672 2.63672 1.98975 3.85742 1.98975L18.6157 1.98975C19.8242 1.98975 20.5078 2.63672 20.5078 3.90625L20.5078 18.6157C20.5078 19.8853 19.8242 20.5322 18.6157 20.5322Z" fill="#5ac8f5" fill-opacity="0.5"/>
  <path d="M7.77588 16.3574C8.25195 16.3574 8.54492 16.0522 8.54492 15.5762L8.54492 6.93359C8.54492 6.4209 8.20312 6.05469 7.69043 6.05469C7.2876 6.05469 7.05566 6.17676 6.62842 6.46973L4.77295 7.73926C4.50439 7.92236 4.35791 8.14209 4.35791 8.45947C4.35791 8.87451 4.69971 9.19189 5.05371 9.19189C5.24902 9.19189 5.37109 9.17969 5.65186 8.95996L6.95801 7.99561L7.01904 7.99561L7.01904 15.5762C7.01904 16.0522 7.32422 16.3574 7.77588 16.3574ZM14.1479 16.5039C16.2964 16.5039 17.7246 15.1855 17.7246 13.0371C17.7246 11.1572 16.4551 9.79004 14.5752 9.79004C13.7573 9.79004 12.8784 10.1929 12.5122 10.7422L12.4634 10.7422L12.6953 7.60498L16.7358 7.60498C17.0776 7.60498 17.334 7.32422 17.334 6.92139C17.334 6.53076 17.0898 6.23779 16.7358 6.23779L12.5366 6.23779C11.8896 6.23779 11.4746 6.62842 11.4258 7.27539L11.1328 11.084C11.084 11.7188 11.4258 12.1338 11.9873 12.1338C12.3657 12.1338 12.5854 12.0361 12.9761 11.7188C13.4888 11.2793 13.8672 11.0962 14.4043 11.0962C15.4785 11.0962 16.2109 11.9507 16.2109 13.0737C16.2109 14.3555 15.4053 15.1245 14.2212 15.1245C13.3911 15.1245 12.6831 14.6851 12.3291 13.9526C12.146 13.5986 11.9141 13.4277 11.6333 13.4277C11.2183 13.4277 10.9375 13.7329 10.9375 14.1357C10.9375 14.3311 10.9863 14.5142 11.0474 14.6851C11.4136 15.6982 12.6221 16.5039 14.1479 16.5039Z" fill="#5ac8f5"/>
 </g>
</svg>
