<?xml version="1.0" encoding="UTF-8"?>
<!--Generator: Apple Native CoreSVG 175.5-->
<!DOCTYPE svg
PUBLIC "-//W3C//DTD SVG 1.1//EN"
       "http://www.w3.org/Graphics/SVG/1.1/DTD/svg11.dtd">
<svg version="1.1" xmlns="http://www.w3.org/2000/svg" xmlns:xlink="http://www.w3.org/1999/xlink" width="27.2283" height="28.0884">
 <g>
  <rect height="28.0884" opacity="0" width="27.2283" x="0" y="0"/>
  <path d="M13.2233 5.31006C14.7003 5.31006 15.8966 4.10156 15.8966 2.66113C15.8966 1.18408 14.7003 0 13.2233 0C11.7584 0 10.5743 1.18408 10.5743 2.66113C10.5743 4.10156 11.7584 5.31006 13.2233 5.31006ZM3.7262 25.1587C3.06702 25.8179 3.2135 26.6235 3.70178 27.063C4.14124 27.4536 4.89807 27.5391 5.50842 26.9287L10.1593 22.2778C10.257 22.1802 10.2936 22.1436 10.379 21.9849L12.674 17.6758C13.0035 17.041 13.9069 17.0166 14.4684 17.4316L19.6686 21.3745L19.6686 26.7456C19.6686 27.5757 20.1813 28.0884 20.9381 28.0884C21.6949 28.0884 22.2076 27.5757 22.2076 26.7456L22.2076 20.7642C22.2076 20.3979 22.0612 20.0806 21.7316 19.7876L15.8722 14.7583L15.8722 9.28955C15.8722 8.98438 16.0797 8.74023 16.4459 8.6792L26.1627 7.20215C26.8463 7.09229 27.3224 6.43311 27.2125 5.74951C27.1149 5.06592 26.4679 4.58984 25.7843 4.69971L6.42395 7.62939L6.42395 3.74756L3.9093 3.74756L3.9093 9.10645C3.9093 9.8999 4.55627 10.4614 5.36194 10.3394L9.54895 9.70459C9.92737 9.64355 10.2081 9.8877 10.2081 10.2661L10.2081 15.21L8.19397 20.6909ZM4.22668 5.12695C5.66711 5.12695 7.26624 4.45557 8.20618 3.39355C8.52356 3.03955 8.52356 2.57568 8.20618 2.20947C7.26624 1.14746 5.66711 0.476074 4.22668 0.476074C2.79846 0.476074 1.19934 1.14746 0.247192 2.20947C-0.0823975 2.57568-0.0823975 3.03955 0.247192 3.40576C1.19934 4.45557 2.79846 5.12695 4.22668 5.12695Z" fill="#5ac8f5"/>
 </g>
</svg>
