<?xml version="1.0" encoding="UTF-8"?>
<!--Generator: Apple Native CoreSVG 175.5-->
<!DOCTYPE svg
PUBLIC "-//W3C//DTD SVG 1.1//EN"
       "http://www.w3.org/Graphics/SVG/1.1/DTD/svg11.dtd">
<svg version="1.1" xmlns="http://www.w3.org/2000/svg" xmlns:xlink="http://www.w3.org/1999/xlink" width="27.6842" height="27.701">
 <g>
  <rect height="27.701" opacity="0" width="27.6842" x="0" y="0"/>
  <path d="M1.36881 16.5422L11.1466 26.32C12.9533 28.1266 14.7355 28.1388 16.5299 26.3566L26.3566 16.5177C28.1388 14.7355 28.1266 12.9411 26.32 11.1344L16.5544 1.36881C14.7477-0.43783 12.9655-0.462244 11.1711 1.33219L1.33219 11.1588C-0.462244 12.9533-0.43783 14.7355 1.36881 16.5422ZM2.78483 15.1872C1.91813 14.3083 1.89371 13.3927 2.79703 12.4894L12.4894 2.79703C13.3927 1.89371 14.3083 1.90592 15.1872 2.78483L24.904 12.5016C25.7707 13.3683 25.7951 14.2961 24.8918 15.1994L15.1994 24.8918C14.2961 25.7951 13.3561 25.7707 12.5016 24.9162Z" fill="#5ac8f5" fill-opacity="0.5"/>
  <path d="M13.6003 16.3713C14.2106 16.3713 14.5768 15.9806 14.5768 15.5046C14.5768 15.4557 14.5768 15.3947 14.5768 15.3581C14.5768 14.6745 14.9797 14.235 15.8341 13.6735C17.0182 12.8922 17.8605 12.1842 17.8605 10.7194C17.8605 8.69303 16.0539 7.5944 13.9787 7.5944C11.8791 7.5944 10.4997 8.59537 10.1701 9.71842C10.0968 9.91373 10.0602 10.109 10.0602 10.3166C10.0602 10.8659 10.4875 11.1588 10.9025 11.1588C11.3175 11.1588 11.5861 10.9635 11.8058 10.6706L12.0255 10.3776C12.4528 9.66959 13.0876 9.25455 13.8932 9.25455C15.0163 9.25455 15.7365 9.88932 15.7365 10.8171C15.7365 11.6471 15.2238 12.05 14.1496 12.7946C13.2829 13.4049 12.6237 14.0519 12.6237 15.2482C12.6237 15.297 12.6237 15.3581 12.6237 15.4069C12.6237 16.0417 12.9655 16.3713 13.6003 16.3713ZM13.5636 20.0089C14.2716 20.0089 14.882 19.4474 14.882 18.7394C14.882 18.0314 14.2838 17.4699 13.5636 17.4699C12.8556 17.4699 12.2575 18.0436 12.2575 18.7394C12.2575 19.4352 12.8678 20.0089 13.5636 20.0089Z" fill="#5ac8f5"/>
 </g>
</svg>
