<?xml version="1.0" encoding="UTF-8"?>
<!--Generator: Apple Native CoreSVG 175.5-->
<!DOCTYPE svg
PUBLIC "-//W3C//DTD SVG 1.1//EN"
       "http://www.w3.org/Graphics/SVG/1.1/DTD/svg11.dtd">
<svg version="1.1" xmlns="http://www.w3.org/2000/svg" xmlns:xlink="http://www.w3.org/1999/xlink" width="27.7191" height="27.8412">
 <g>
  <rect height="27.8412" opacity="0" width="27.7191" x="0" y="0"/>
  <path d="M6.46821 24.4492L9.10492 24.4492C9.36127 24.4492 9.54438 24.5224 9.72748 24.7055L11.6074 26.5732C13.1455 28.1235 14.5737 28.1113 16.1118 26.5732L17.9916 24.7055C18.1747 24.5224 18.3579 24.4492 18.6142 24.4492L21.2509 24.4492C23.436 24.4492 24.4492 23.4482 24.4492 21.2509L24.4492 18.6142C24.4492 18.3579 24.5224 18.187 24.7055 17.9916L26.561 16.1118C28.1113 14.5737 28.0991 13.1577 26.561 11.6074L24.7055 9.72748C24.5224 9.54438 24.4492 9.36127 24.4492 9.11713L24.4492 6.46821C24.4492 4.29535 23.4482 3.26996 21.2509 3.26996L18.6142 3.26996C18.3579 3.26996 18.1747 3.20893 17.9916 3.02582L16.1118 1.15815C14.5737-0.392146 13.1455-0.379939 11.6074 1.15815L9.72748 3.02582C9.54438 3.20893 9.36127 3.26996 9.10492 3.26996L6.46821 3.26996C4.28315 3.26996 3.26996 4.27094 3.26996 6.46821L3.26996 9.11713C3.26996 9.36127 3.20893 9.54438 3.02582 9.72748L1.15815 11.6074C-0.392146 13.1577-0.379939 14.5737 1.15815 16.1118L3.02582 17.9916C3.20893 18.187 3.26996 18.3579 3.26996 18.6142L3.26996 21.2509C3.26996 23.436 4.28315 24.4492 6.46821 24.4492ZM6.46821 22.5082C5.38178 22.5082 5.21088 22.3373 5.21088 21.2509L5.21088 17.9672C5.21088 17.601 5.10102 17.3203 4.83246 17.0517L2.52533 14.7568C1.75629 13.9755 1.75629 13.7558 2.52533 12.9746L4.83246 10.6796C5.10102 10.4111 5.21088 10.1303 5.21088 9.7519L5.21088 6.46821C5.21088 5.36957 5.36957 5.21088 6.46821 5.21088L9.7519 5.21088C10.1303 5.21088 10.4111 5.11322 10.6796 4.83246L12.9746 2.52533C13.7558 1.75629 13.9755 1.75629 14.7446 2.52533L17.0517 4.83246C17.308 5.11322 17.601 5.21088 17.9672 5.21088L21.2509 5.21088C22.3373 5.21088 22.5082 5.38178 22.5082 6.46821L22.5082 9.7519C22.5082 10.1303 22.6303 10.4111 22.8989 10.6796L25.206 12.9746C25.975 13.7558 25.975 13.9755 25.206 14.7568L22.8989 17.0517C22.6303 17.3203 22.5082 17.601 22.5082 17.9672L22.5082 21.2509C22.5082 22.3373 22.3373 22.5082 21.2509 22.5082L17.9672 22.5082C17.601 22.5082 17.308 22.6181 17.0517 22.8989L14.7446 25.206C13.9755 25.975 13.7558 25.975 12.9746 25.206L10.6796 22.8989C10.4111 22.6181 10.1303 22.5082 9.7519 22.5082Z" fill="#5ac8f5" fill-opacity="0.5"/>
  <path d="M12.5351 19.6518C12.9379 19.6518 13.2797 19.4565 13.5239 19.0903L19.1025 10.3012C19.2368 10.0693 19.3955 9.80072 19.3955 9.51996C19.3955 8.98285 18.9072 8.62885 18.4067 8.62885C18.0893 8.62885 17.7841 8.81196 17.5522 9.17817L12.4863 17.308L10.0815 14.1953C9.78852 13.8046 9.51996 13.6948 9.19037 13.6948C8.65326 13.6948 8.23822 14.122 8.23822 14.6713C8.23822 14.9277 8.34809 15.1962 8.51899 15.4282L11.4975 19.0903C11.8027 19.4931 12.1323 19.6518 12.5351 19.6518Z" fill="#5ac8f5"/>
 </g>
</svg>
