<?xml version="1.0" encoding="UTF-8"?>
<!--Generator: Apple Native CoreSVG 175.5-->
<!DOCTYPE svg
PUBLIC "-//W3C//DTD SVG 1.1//EN"
       "http://www.w3.org/Graphics/SVG/1.1/DTD/svg11.dtd">
<svg version="1.1" xmlns="http://www.w3.org/2000/svg" xmlns:xlink="http://www.w3.org/1999/xlink" width="35.6323" height="20.1782">
 <g>
  <rect height="20.1782" opacity="0" width="35.6323" x="0" y="0"/>
  <path d="M34.5947 20.1782C35.1685 20.1782 35.6323 19.7388 35.6323 19.165L35.6323 1.0376C35.6323 0.463867 35.1685 0.012207 34.5947 0.012207C34.021 0.012207 33.5449 0.463867 33.5449 1.0376L33.5449 19.165C33.5449 19.7388 34.021 20.1782 34.5947 20.1782ZM1.75781 19.6899C2.2583 19.6899 2.66113 19.5312 3.16162 19.2383L15.6006 11.9141C16.4673 11.4014 16.8335 10.791 16.8335 10.0952C16.8335 9.39941 16.4673 8.78906 15.6006 8.27637L3.16162 0.952148C2.66113 0.65918 2.2583 0.500488 1.75781 0.500488C0.793457 0.500488 0 1.23291 0 2.6001L0 17.5903C0 18.9575 0.793457 19.6899 1.75781 19.6899ZM2.29492 17.4316C2.11182 17.4316 1.95312 17.3096 1.95312 17.0654L1.95312 3.125C1.95312 2.88086 2.11182 2.75879 2.29492 2.75879C2.36816 2.75879 2.46582 2.79541 2.58789 2.86865L14.1968 9.75342C14.3677 9.85107 14.4531 9.92432 14.4531 10.0952C14.4531 10.2539 14.3555 10.3394 14.1968 10.437L2.58789 17.3218C2.46582 17.395 2.36816 17.4316 2.29492 17.4316ZM18.5303 19.6899C19.0308 19.6899 19.4458 19.5312 19.9341 19.2383L32.373 11.9141C33.2397 11.4014 33.606 10.791 33.606 10.0952C33.606 9.39941 33.2397 8.78906 32.373 8.27637L19.9341 0.952148C19.4336 0.65918 19.0308 0.500488 18.5303 0.500488C17.5781 0.500488 16.7725 1.23291 16.7725 2.6001L16.7725 17.5903C16.7725 18.9575 17.5781 19.6899 18.5303 19.6899ZM19.0674 17.4316C18.8843 17.4316 18.7378 17.3096 18.7378 17.0654L18.7378 3.125C18.7378 2.88086 18.8843 2.75879 19.0674 2.75879C19.1406 2.75879 19.2383 2.79541 19.3604 2.86865L30.9692 9.75342C31.1401 9.85107 31.2256 9.92432 31.2256 10.0952C31.2256 10.2539 31.1401 10.3394 30.9692 10.437L19.3604 17.3218C19.2383 17.395 19.1406 17.4316 19.0674 17.4316Z" fill="#5ac8f5"/>
 </g>
</svg>
