<?xml version="1.0" encoding="UTF-8"?>
<!--Generator: Apple Native CoreSVG 175.5-->
<!DOCTYPE svg
PUBLIC "-//W3C//DTD SVG 1.1//EN"
       "http://www.w3.org/Graphics/SVG/1.1/DTD/svg11.dtd">
<svg version="1.1" xmlns="http://www.w3.org/2000/svg" xmlns:xlink="http://www.w3.org/1999/xlink" width="35.1812" height="18.2983">
 <g>
  <rect height="18.2983" opacity="0" width="35.1812" x="0" y="0"/>
  <path d="M1.00113 18.2983L2.58804 18.2983C3.32047 18.2983 3.68668 17.9443 3.8942 17.4194C6.12808 11.8774 8.38638 6.32324 10.6325 0.78125C10.8034 0.378418 10.6081 0.0244141 10.1808 0.0244141L9.38736 0.0244141C8.96011 0.0244141 8.69156 0.231934 8.50845 0.598145C5.71304 6.04248 2.94205 11.4868 0.146638 16.9434C-0.195159 17.5659 0.0489813 18.2983 1.00113 18.2983ZM32.5929 18.2983L34.192 18.2983C35.132 18.2983 35.3761 17.5659 35.0343 16.9434C32.2633 11.4868 29.4679 6.04248 26.6847 0.598145C26.4894 0.231934 26.2209 0.0244141 25.7936 0.0244141L25.0002 0.0244141C24.5729 0.0244141 24.3898 0.378418 24.5485 0.78125C26.7946 6.32324 29.0529 11.8774 31.2868 17.4194C31.4943 17.9443 31.8605 18.2983 32.5929 18.2983ZM17.3097 3.35693L17.8468 3.35693C18.3473 3.35693 18.7379 2.97852 18.7379 2.46582C18.7379 1.95312 18.7379 1.42822 18.7379 0.915527C18.7379 0.402832 18.3473 0.0244141 17.8468 0.0244141L17.3097 0.0244141C16.8092 0.0244141 16.4186 0.402832 16.4186 0.915527C16.4186 1.42822 16.4186 1.95312 16.4186 2.46582C16.4186 2.97852 16.8092 3.35693 17.3097 3.35693ZM17.3097 10.3149L17.8468 10.3149C18.3473 10.3149 18.7379 9.94873 18.7379 9.43604C18.7379 8.58154 18.7379 7.70264 18.7379 6.84814C18.7379 6.33545 18.3473 5.96924 17.8468 5.96924L17.3097 5.96924C16.8092 5.96924 16.4186 6.33545 16.4186 6.84814C16.4186 7.70264 16.4186 8.58154 16.4186 9.43604C16.4186 9.94873 16.8092 10.3149 17.3097 10.3149ZM17.3097 18.2983L17.8468 18.2983C18.3473 18.2983 18.7379 17.9199 18.7379 17.4072C18.7379 16.2476 18.7379 15.0757 18.7379 13.9038C18.7379 13.3911 18.3473 13.0249 17.8468 13.0249L17.3097 13.0249C16.8092 13.0249 16.4186 13.3911 16.4186 13.9038C16.4186 15.0757 16.4186 16.2476 16.4186 17.4072C16.4186 17.9199 16.8092 18.2983 17.3097 18.2983Z" fill="#5ac8f5"/>
 </g>
</svg>
