<?xml version="1.0" encoding="UTF-8"?>
<!--Generator: Apple Native CoreSVG 175.5-->
<!DOCTYPE svg
PUBLIC "-//W3C//DTD SVG 1.1//EN"
       "http://www.w3.org/Graphics/SVG/1.1/DTD/svg11.dtd">
<svg version="1.1" xmlns="http://www.w3.org/2000/svg" xmlns:xlink="http://www.w3.org/1999/xlink" width="24.9023" height="25.8218">
 <g>
  <rect height="25.8218" opacity="0" width="24.9023" x="0" y="0"/>
  <path d="M0 12.9048C0 17.0186 2.09961 20.6563 5.2124 22.9756C5.74951 23.3906 6.4209 23.2564 6.72607 22.7559C7.03125 22.2554 6.87256 21.6694 6.37207 21.3032C3.77197 19.4356 2.0874 16.3838 2.0752 12.9048C2.06299 10.9028 2.62451 9.04737 3.60107 7.47267L2.13623 5.99561C0.793457 7.98536 0 10.3535 0 12.9048ZM12.4512 2.52882C18.2129 2.52882 22.8516 7.14308 22.8271 12.9048C22.8149 14.9067 22.2534 16.7622 21.2646 18.3369L22.7417 19.8018C24.0845 17.812 24.9023 15.4561 24.9023 12.9048C24.9023 6.09327 19.2627 0.453622 12.4512 0.453622C9.8999 0.453622 7.51953 1.24708 5.52979 2.58985L7.01904 4.07911C8.59375 3.10255 10.4492 2.52882 12.4512 2.52882ZM16.5894 20.4609L15.686 24.8066C15.5518 25.4902 15.9546 25.9053 16.6626 25.8076L21.2646 25.1362ZM10.8398 7.89991L12.085 9.14503L12.3779 8.33936L12.5122 8.33936L13.1958 10.2559L15.979 13.0391L13.8062 7.21632C13.5742 6.58155 13.1104 6.25196 12.439 6.25196C11.7798 6.25196 11.3281 6.58155 11.084 7.21632ZM9.375 17.1284L10.376 14.2476L8.99658 12.8682L7.66602 16.4326C7.56836 16.689 7.53174 16.8843 7.53174 17.0674C7.53174 17.5679 7.89795 17.9097 8.43506 17.9097C8.87451 17.9097 9.19189 17.69 9.375 17.1284ZM22.9858 24.7822C23.3521 25.1484 23.9502 25.1362 24.3164 24.77C24.6704 24.4038 24.6826 23.8057 24.3164 23.4395L1.9165 1.05177C1.55029 0.685556 0.952148 0.673349 0.57373 1.05177C0.219727 1.40577 0.219727 2.01612 0.57373 2.38233Z" fill="#5ac8f5"/>
 </g>
</svg>
