<?xml version="1.0" encoding="UTF-8"?>
<!--Generator: Apple Native CoreSVG 175.5-->
<!DOCTYPE svg
PUBLIC "-//W3C//DTD SVG 1.1//EN"
       "http://www.w3.org/Graphics/SVG/1.1/DTD/svg11.dtd">
<svg version="1.1" xmlns="http://www.w3.org/2000/svg" xmlns:xlink="http://www.w3.org/1999/xlink" width="24.5972" height="21.106">
 <g>
  <rect height="21.106" opacity="0" width="24.5972" x="0" y="0"/>
  <path d="M15.3076 1.84326L23.6572 1.84326C24.1699 1.84326 24.5972 1.44043 24.5972 0.915527C24.5972 0.402832 24.1699 0 23.6572 0L15.3076 0C14.7949 0 14.3921 0.402832 14.3921 0.915527C14.3921 1.44043 14.7949 1.84326 15.3076 1.84326ZM15.3076 8.23975L23.6572 8.23975C24.1699 8.23975 24.5972 7.83691 24.5972 7.31201C24.5972 6.79932 24.1699 6.39648 23.6572 6.39648L15.3076 6.39648C14.7949 6.39648 14.3921 6.79932 14.3921 7.31201C14.3921 7.83691 14.7949 8.23975 15.3076 8.23975ZM0.915527 14.6362L23.6572 14.6362C24.1699 14.6362 24.5972 14.2212 24.5972 13.7085C24.5972 13.1958 24.1699 12.793 23.6572 12.793L0.915527 12.793C0.402832 12.793 0 13.1958 0 13.7085C0 14.2212 0.402832 14.6362 0.915527 14.6362ZM0.915527 21.0205L23.6572 21.0205C24.1699 21.0205 24.5972 20.6177 24.5972 20.105C24.5972 19.5923 24.1699 19.1772 23.6572 19.1772L0.915527 19.1772C0.402832 19.1772 0 19.5923 0 20.105C0 20.6177 0.402832 21.0205 0.915527 21.0205ZM0.012207 8.34961C0.012207 9.33838 0.512695 9.96094 1.40381 9.96094C2.29492 9.96094 2.80762 9.33838 2.80762 8.34961L2.80762 6.01807C2.80762 5.74951 2.94189 5.59082 3.22266 5.59082L6.55518 5.59082L6.55518 6.81152C6.55518 7.77588 7.51953 8.14209 8.26416 7.55615L11.5723 4.91943C12.0728 4.5166 12.0728 3.8208 11.5723 3.43018L8.26416 0.78125C7.49512 0.158691 6.55518 0.537109 6.55518 1.52588L6.55518 2.79541L2.9541 2.79541C1.23291 2.79541 0.012207 3.85742 0.012207 5.59082Z" fill="#5ac8f5"/>
 </g>
</svg>
