<?xml version="1.0" encoding="UTF-8"?>
<!--Generator: Apple Native CoreSVG 175.5-->
<!DOCTYPE svg
PUBLIC "-//W3C//DTD SVG 1.1//EN"
       "http://www.w3.org/Graphics/SVG/1.1/DTD/svg11.dtd">
<svg version="1.1" xmlns="http://www.w3.org/2000/svg" xmlns:xlink="http://www.w3.org/1999/xlink" width="24.9023" height="24.9146">
 <g>
  <rect height="24.9146" opacity="0" width="24.9023" x="0" y="0"/>
  <path d="M12.4512 24.9023C19.2627 24.9023 24.9023 19.2505 24.9023 12.4512C24.9023 5.63965 19.2505 0 12.439 0C5.63965 0 0 5.63965 0 12.4512C0 19.2505 5.65186 24.9023 12.4512 24.9023ZM12.4512 22.8271C6.68945 22.8271 2.0874 18.2129 2.0874 12.4512C2.0874 6.68945 6.67725 2.0752 12.439 2.0752C18.2007 2.0752 22.8271 6.68945 22.8271 12.4512C22.8271 18.2129 18.2129 22.8271 12.4512 22.8271Z" fill="#5ac8f5" fill-opacity="0.5"/>
  <path d="M7.78809 14.7095C7.78809 15.3198 8.19092 15.7227 8.8623 15.7227L13.4521 15.7227L13.4521 16.98C13.4521 17.627 13.7817 18.0054 14.3311 18.0054C14.917 18.0054 15.2466 17.6392 15.2466 16.98L15.2466 15.7227L16.0645 15.7227C16.6016 15.7227 16.9434 15.3931 16.9434 14.8804C16.9434 14.4165 16.6016 14.1113 16.0645 14.1113L15.2466 14.1113L15.2466 11.4746C15.2466 10.8154 14.917 10.4492 14.3311 10.4492C13.7817 10.4492 13.4521 10.8276 13.4521 11.4746L13.4521 14.1113L10.0586 14.1113C11.1572 12.0605 12.2192 10.2295 13.3545 8.14209C13.4521 7.93457 13.5132 7.75146 13.5132 7.56836C13.5132 7.08008 13.2202 6.67725 12.6587 6.67725C12.2803 6.67725 12.0117 6.86035 11.7798 7.26318C10.498 9.5459 9.30176 11.6455 7.99561 13.9404C7.84912 14.1846 7.78809 14.4531 7.78809 14.7095Z" fill="#5ac8f5"/>
 </g>
</svg>
