<?xml version="1.0" encoding="UTF-8"?>
<!--Generator: Apple Native CoreSVG 175.5-->
<!DOCTYPE svg
PUBLIC "-//W3C//DTD SVG 1.1//EN"
       "http://www.w3.org/Graphics/SVG/1.1/DTD/svg11.dtd">
<svg version="1.1" xmlns="http://www.w3.org/2000/svg" xmlns:xlink="http://www.w3.org/1999/xlink" width="28.7842" height="22.4976">
 <g>
  <rect height="22.4976" opacity="0" width="28.7842" x="0" y="0"/>
  <path d="M0 8.60596L0 6.86035L18.9087 6.86035C20.8984 6.86035 21.9482 7.89795 21.9482 9.85107L21.9482 22.4976L20.2026 22.4976L20.2026 10.0464C20.2026 9.14307 19.6777 8.60596 18.7866 8.60596L14.978 8.60596L14.978 22.4976L13.2324 22.4976L13.2324 8.60596ZM3.83301 22.4854L24.9512 22.4854C27.5146 22.4854 28.7842 21.228 28.7842 18.7134L28.7842 3.79639C28.7842 1.28174 27.5146 0.012207 24.9512 0.012207L3.83301 0.012207C1.28174 0.012207 0 1.28174 0 3.79639L0 18.7134C0 21.228 1.28174 22.4854 3.83301 22.4854Z" fill="#5ac8f5"/>
 </g>
</svg>
