<?xml version="1.0" encoding="UTF-8"?>
<!--Generator: Apple Native CoreSVG 175.5-->
<!DOCTYPE svg
PUBLIC "-//W3C//DTD SVG 1.1//EN"
       "http://www.w3.org/Graphics/SVG/1.1/DTD/svg11.dtd">
<svg version="1.1" xmlns="http://www.w3.org/2000/svg" xmlns:xlink="http://www.w3.org/1999/xlink" width="24.9023" height="24.9146">
 <g>
  <rect height="24.9146" opacity="0" width="24.9023" x="0" y="0"/>
  <path d="M12.4512 24.9023C19.2627 24.9023 24.9023 19.2505 24.9023 12.4512C24.9023 5.63965 19.2505 0 12.439 0C5.63965 0 0 5.63965 0 12.4512C0 19.2505 5.65186 24.9023 12.4512 24.9023Z" fill="#5ac8f5" fill-opacity="0.25"/>
  <path d="M7.38525 12.4756C7.38525 9.08203 9.09424 6.82373 11.7676 6.48193L11.7676 5.48096C11.7676 5.10254 12.0361 4.8584 12.4023 4.8584C12.7563 4.8584 13.0127 5.10254 13.0127 5.48096L13.0127 6.46973C14.8071 6.64062 16.2354 7.71484 16.7847 9.21631C16.8579 9.42383 16.9067 9.64355 16.9067 9.85107C16.9067 10.3149 16.6016 10.6201 16.1377 10.6201C15.686 10.6201 15.4663 10.4492 15.3198 9.96094C15.0269 8.97217 14.1479 8.20312 13.0127 8.00781L13.0127 16.98C14.2212 16.8213 15.1245 16.0767 15.4053 15.0513C15.5396 14.6118 15.7959 14.3799 16.2231 14.3799C16.6992 14.3799 16.9922 14.6973 16.9922 15.1489C16.9922 15.3809 16.9434 15.5884 16.8701 15.7959C16.333 17.2974 14.9414 18.3594 13.0127 18.5059L13.0127 19.5068C13.0127 19.8853 12.7563 20.1416 12.4023 20.1416C12.0483 20.1416 11.7676 19.8853 11.7676 19.5068L11.7676 18.4937C9.08203 18.1641 7.38525 15.918 7.38525 12.4756ZM9.08203 12.4756C9.08203 14.917 10.0952 16.5771 11.7676 16.9434L11.7676 8.04443C10.0952 8.39844 9.08203 10.0708 9.08203 12.4756Z" fill="#5ac8f5"/>
 </g>
</svg>
