<?xml version="1.0" encoding="UTF-8"?>
<!--Generator: Apple Native CoreSVG 175.5-->
<!DOCTYPE svg
PUBLIC "-//W3C//DTD SVG 1.1//EN"
       "http://www.w3.org/Graphics/SVG/1.1/DTD/svg11.dtd">
<svg version="1.1" xmlns="http://www.w3.org/2000/svg" xmlns:xlink="http://www.w3.org/1999/xlink" width="27.2583" height="24.939">
 <g>
  <rect height="24.939" opacity="0" width="27.2583" x="0" y="0"/>
  <path d="M0 2.31934C0 3.60107 1.0376 4.63867 2.31934 4.63867C3.60107 4.63867 4.63867 3.60107 4.63867 2.31934C4.63867 1.0376 3.60107 0 2.31934 0C1.0376 0 0 1.0376 0 2.31934ZM1.48926 6.56738C1.48926 7.00684 1.86768 7.39746 2.31934 7.39746C2.7832 7.39746 3.16162 7.00684 3.16162 6.56738C3.16162 6.10352 2.7832 5.7251 2.31934 5.7251C1.86768 5.7251 1.48926 6.10352 1.48926 6.56738ZM1.48926 9.32617C1.48926 9.76562 1.86768 10.1562 2.31934 10.1562C2.7832 10.1562 3.16162 9.76562 3.16162 9.32617C3.16162 8.8623 2.7832 8.48389 2.31934 8.48389C1.86768 8.48389 1.48926 8.8623 1.48926 9.32617ZM1.34277 15.1001C1.34277 15.6372 1.79443 16.0889 2.31934 16.0889C2.85645 16.0889 3.30811 15.6372 3.30811 15.1001L3.30811 12.2314C3.30811 11.6943 2.85645 11.2427 2.31934 11.2427C1.78223 11.2427 1.34277 11.6943 1.34277 12.2314ZM8.38623 24.9268L24.939 24.9268C26.2085 24.9268 27.2583 23.8892 27.2583 22.6074L27.2583 2.31934C27.2583 1.0376 26.2085 0 24.939 0L5.26123 0C5.81055 0.561523 6.06689 1.29395 6.06689 2.31934L6.06689 22.6074C6.06689 23.8892 7.10449 24.9268 8.38623 24.9268Z" fill="#5ac8f5"/>
 </g>
</svg>
