<?xml version="1.0" encoding="UTF-8"?>
<!--Generator: Apple Native CoreSVG 175.5-->
<!DOCTYPE svg
PUBLIC "-//W3C//DTD SVG 1.1//EN"
       "http://www.w3.org/Graphics/SVG/1.1/DTD/svg11.dtd">
<svg version="1.1" xmlns="http://www.w3.org/2000/svg" xmlns:xlink="http://www.w3.org/1999/xlink" width="27.771" height="28.1616">
 <g>
  <rect height="28.1616" opacity="0" width="27.771" x="0" y="0"/>
  <path d="M11.6821 5.43213L18.8843 5.43213C17.2363 2.20947 13.8794 0 10.0098 0C4.47998 0 0 4.47998 0 10.0098C0 14.1968 2.55127 17.7612 6.18896 19.2749L6.18896 10.8765C6.18896 7.42188 8.21533 5.43213 11.6821 5.43213Z" fill="#5ac8f5" fill-opacity="0.5"/>
  <path d="M7.84912 23.23C7.84912 25.7446 9.13086 27.0142 11.6821 27.0142L23.938 27.0142C26.4893 27.0142 27.771 25.7446 27.771 23.23L27.771 10.8765C27.771 8.36182 26.4893 7.09229 23.938 7.09229L11.6821 7.09229C9.13086 7.09229 7.84912 8.36182 7.84912 10.8765Z" fill="#5ac8f5"/>
 </g>
</svg>
