<?xml version="1.0" encoding="UTF-8"?>
<!--Generator: Apple Native CoreSVG 175.5-->
<!DOCTYPE svg
PUBLIC "-//W3C//DTD SVG 1.1//EN"
       "http://www.w3.org/Graphics/SVG/1.1/DTD/svg11.dtd">
<svg version="1.1" xmlns="http://www.w3.org/2000/svg" xmlns:xlink="http://www.w3.org/1999/xlink" width="30.188" height="21.1548">
 <g>
  <rect height="21.1548" opacity="0" width="30.188" x="0" y="0"/>
  <path d="M0 16.1987C0 16.7603 0.219727 17.1143 0.708008 17.3462C2.06299 18.0176 2.81982 18.7866 3.66211 20.4468C3.91846 20.8984 4.29688 21.1304 4.79736 21.1304L25.3906 21.1304C25.8789 21.1304 26.2573 20.8984 26.5137 20.4468C27.356 18.7866 28.1128 18.0176 29.48 17.3462C29.9683 17.1143 30.188 16.7603 30.188 16.1987L30.188 4.94385C30.188 4.37012 29.9683 4.01611 29.48 3.79639C28.1128 3.125 27.356 2.34375 26.5137 0.695801C26.2573 0.231934 25.8789 0 25.3906 0L4.79736 0C4.29688 0 3.91846 0.231934 3.66211 0.695801C2.81982 2.34375 2.06299 3.125 0.708008 3.79639C0.219727 4.01611 0 4.37012 0 4.94385ZM1.96533 15.918L1.96533 5.22461C3.44238 4.61426 4.39453 3.62549 5.16357 1.96533L25.0244 1.96533C25.7812 3.62549 26.7456 4.61426 28.2227 5.22461L28.2227 15.918C26.7456 16.5283 25.7812 17.5171 25.0244 19.165L5.16357 19.165C4.39453 17.5171 3.44238 16.5283 1.96533 15.918ZM5.32227 15.9668C5.32227 16.6138 5.76172 17.041 6.39648 17.041L23.7793 17.041C24.4263 17.041 24.8535 16.6138 24.8535 15.9668L24.8535 5.17578C24.8535 4.54102 24.4263 4.10156 23.7793 4.10156L6.39648 4.10156C5.76172 4.10156 5.32227 4.54102 5.32227 5.17578ZM6.79932 15.2954L6.79932 13.2202L8.41064 13.2202L8.41064 15.564L7.08008 15.564C6.89697 15.564 6.79932 15.4785 6.79932 15.2954ZM6.79932 11.7432L6.79932 9.41162L8.41064 9.41162L8.41064 11.7432ZM6.79932 7.93457L6.79932 5.84717C6.79932 5.67627 6.89697 5.57861 7.08008 5.57861L8.41064 5.57861L8.41064 7.93457ZM21.7773 7.93457L21.7773 5.57861L23.1079 5.57861C23.291 5.57861 23.3765 5.67627 23.3765 5.84717L23.3765 7.93457ZM21.7773 11.7432L21.7773 9.41162L23.3765 9.41162L23.3765 11.7432ZM21.7773 15.564L21.7773 13.2202L23.3765 13.2202L23.3765 15.2954C23.3765 15.4785 23.291 15.564 23.1079 15.564ZM9.8877 15.564L9.8877 5.57861L20.3003 5.57861L20.3003 15.564Z" fill="#5ac8f5"/>
 </g>
</svg>
