<?xml version="1.0" encoding="UTF-8"?>
<!--Generator: Apple Native CoreSVG 175.5-->
<!DOCTYPE svg
PUBLIC "-//W3C//DTD SVG 1.1//EN"
       "http://www.w3.org/Graphics/SVG/1.1/DTD/svg11.dtd">
<svg version="1.1" xmlns="http://www.w3.org/2000/svg" xmlns:xlink="http://www.w3.org/1999/xlink" width="24.9023" height="24.9146">
 <g>
  <rect height="24.9146" opacity="0" width="24.9023" x="0" y="0"/>
  <path d="M12.4512 24.9023C19.2627 24.9023 24.9023 19.2505 24.9023 12.4512C24.9023 5.63965 19.2505 0 12.439 0C5.63965 0 0 5.63965 0 12.4512C0 19.2505 5.65186 24.9023 12.4512 24.9023ZM12.4512 22.8271C6.68945 22.8271 2.0874 18.2129 2.0874 12.4512C2.0874 6.68945 6.67725 2.0752 12.439 2.0752C18.2007 2.0752 22.8271 6.68945 22.8271 12.4512C22.8271 18.2129 18.2129 22.8271 12.4512 22.8271ZM12.4146 18.2617C15.0024 18.2617 16.7725 16.9189 16.7725 14.9536C16.7725 13.5986 15.7837 12.4756 14.3188 12.1826L14.3188 12.1094C15.5396 11.7554 16.3086 10.7788 16.3086 9.59473C16.3086 7.84912 14.7095 6.64062 12.439 6.64062C10.1562 6.64062 8.56934 7.84912 8.56934 9.59473C8.56934 10.7788 9.30176 11.731 10.5469 12.1094L10.5469 12.1826C9.08203 12.4756 8.09326 13.6108 8.09326 14.9658C8.09326 16.9434 9.82666 18.2617 12.4146 18.2617ZM12.4512 16.9189C10.9985 16.9189 9.94873 16.0645 9.94873 14.8682C9.94873 13.7085 11.0107 12.8418 12.4512 12.8418C13.9038 12.8418 14.9292 13.6963 14.9292 14.8682C14.9292 16.0645 13.8794 16.9189 12.4512 16.9189ZM12.439 11.5601C11.2183 11.5601 10.3516 10.8032 10.3516 9.75342C10.3516 8.72803 11.2183 7.9834 12.439 7.9834C13.6597 7.9834 14.5142 8.72803 14.5142 9.75342C14.5142 10.8032 13.6475 11.5601 12.439 11.5601Z" fill="#5ac8f5"/>
 </g>
</svg>
