<?xml version="1.0" encoding="UTF-8"?>
<!--Generator: Apple Native CoreSVG 175.5-->
<!DOCTYPE svg
PUBLIC "-//W3C//DTD SVG 1.1//EN"
       "http://www.w3.org/Graphics/SVG/1.1/DTD/svg11.dtd">
<svg version="1.1" xmlns="http://www.w3.org/2000/svg" xmlns:xlink="http://www.w3.org/1999/xlink" width="24.9023" height="24.9146">
 <g>
  <rect height="24.9146" opacity="0" width="24.9023" x="0" y="0"/>
  <path d="M12.4512 7.55615L7.69043 11.2183L9.59473 17.0776L15.3076 17.0776L17.2119 11.2183ZM16.7358 1.95312L12.439 0.549316L8.12988 1.95312L12.439 5.41992ZM11.7798 0.964355L11.7798 9.04541L13.1348 9.04541L13.1348 0.964355ZM20.9717 5.0293L19.3726 10.3149L24.1821 13.0127L23.3032 7.94678ZM23.7549 9.26514L23.2422 8.02002L15.7471 11.0474L16.2598 12.3047ZM15.2588 23.5962L19.3359 21.8262L22.1191 18.2983L16.5039 18.2129ZM19.7754 21.3257L14.8071 14.9414L13.7207 15.7715L18.7012 22.1436ZM9.63135 23.5474L8.38623 18.1641L2.771 18.2495L5.5542 21.7773ZM5.11475 21.2769L6.18896 22.0947L11.1694 15.7227L10.083 14.8926ZM3.93066 5.0293L1.59912 7.94678L0.720215 13.0127L5.52979 10.3149ZM1.14746 9.26514L8.64258 12.3047L9.15527 11.0474L1.66016 8.02002ZM12.4512 24.9023C19.2627 24.9023 24.9023 19.2505 24.9023 12.4512C24.9023 5.63965 19.2505 0 12.439 0C5.63965 0 0 5.63965 0 12.4512C0 19.2505 5.65186 24.9023 12.4512 24.9023ZM12.4512 23.2422C6.55518 23.2422 1.66016 18.3472 1.66016 12.4512C1.66016 6.55518 6.54297 1.66016 12.439 1.66016C18.335 1.66016 23.2422 6.55518 23.2422 12.4512C23.2422 18.3472 18.3472 23.2422 12.4512 23.2422Z" fill="#5ac8f5"/>
 </g>
</svg>
