<?xml version="1.0" encoding="UTF-8"?>
<!--Generator: Apple Native CoreSVG 175.5-->
<!DOCTYPE svg
PUBLIC "-//W3C//DTD SVG 1.1//EN"
       "http://www.w3.org/Graphics/SVG/1.1/DTD/svg11.dtd">
<svg version="1.1" xmlns="http://www.w3.org/2000/svg" xmlns:xlink="http://www.w3.org/1999/xlink" width="24.9023" height="24.9146">
 <g>
  <rect height="24.9146" opacity="0" width="24.9023" x="0" y="0"/>
  <path d="M12.4512 24.9023C19.2627 24.9023 24.9023 19.2505 24.9023 12.4512C24.9023 5.63965 19.2505 0 12.439 0C5.63965 0 0 5.63965 0 12.4512C0 19.2505 5.65186 24.9023 12.4512 24.9023ZM12.4512 22.8271C6.68945 22.8271 2.0874 18.2129 2.0874 12.4512C2.0874 6.68945 6.67725 2.0752 12.439 2.0752C18.2007 2.0752 22.8271 6.68945 22.8271 12.4512C22.8271 18.2129 18.2129 22.8271 12.4512 22.8271ZM18.457 18.6401C18.6768 18.8599 19.0186 18.8599 19.2383 18.6401C19.458 18.4204 19.458 18.0786 19.2383 17.8589L7.2876 5.9082C7.06787 5.68848 6.71387 5.68848 6.50635 5.9082C6.27441 6.11572 6.28662 6.46973 6.50635 6.68945ZM9.729 18.1519L16.6382 18.1519L8.28857 9.80225C8.12988 10.0464 8.04443 10.376 8.04443 10.7666L8.04443 16.4795C8.04443 17.6025 8.60596 18.1519 9.729 18.1519ZM19.4458 16.7358C19.519 16.5405 19.5679 16.2842 19.5679 16.0156L19.5679 10.7666C19.5679 9.68018 19.0063 9.11865 17.8833 9.11865L11.8286 9.11865ZM5.37109 13.916C5.37109 15.0146 5.93262 15.564 7.04346 15.564L7.32422 15.564L7.32422 10.6934C7.32422 10.083 7.4585 9.59473 7.71484 9.22852L5.66406 7.18994C5.46875 7.44629 5.37109 7.80029 5.37109 8.25195ZM11.0962 8.38623L16.8823 8.38623L16.8823 8.25195C16.8823 7.14111 16.333 6.5918 15.21 6.5918L9.30176 6.5918Z" fill="#5ac8f5"/>
 </g>
</svg>
