<?xml version="1.0" encoding="UTF-8"?>
<!--Generator: Apple Native CoreSVG 175.5-->
<!DOCTYPE svg
PUBLIC "-//W3C//DTD SVG 1.1//EN"
       "http://www.w3.org/Graphics/SVG/1.1/DTD/svg11.dtd">
<svg version="1.1" xmlns="http://www.w3.org/2000/svg" xmlns:xlink="http://www.w3.org/1999/xlink" width="24.9023" height="24.9146">
 <g>
  <rect height="24.9146" opacity="0" width="24.9023" x="0" y="0"/>
  <path d="M12.4512 24.9146C19.2627 24.9146 24.9023 19.2749 24.9023 12.4634C24.9023 5.66406 19.2505 0.012207 12.439 0.012207C5.63965 0.012207 0 5.66406 0 12.4634C0 19.2749 5.65186 24.9146 12.4512 24.9146Z" fill="#5ac8f5" fill-opacity="0.25"/>
  <path d="M9.76562 9.83887C8.54492 9.83887 7.56836 8.83789 7.56836 7.6416C7.56836 6.44531 8.55713 5.45654 9.76562 5.45654C10.9497 5.45654 11.9507 6.44531 11.9507 7.6416C11.9507 8.83789 10.9497 9.83887 9.76562 9.83887ZM15.1367 9.83887C13.9526 9.83887 12.9517 8.83789 12.9517 7.6416C12.9517 6.44531 13.9526 5.45654 15.1367 5.45654C16.3452 5.45654 17.334 6.44531 17.334 7.6416C17.334 8.83789 16.3452 9.83887 15.1367 9.83887ZM7.08008 14.6606C5.87158 14.6606 4.88281 13.6475 4.88281 12.4634C4.88281 11.2793 5.88379 10.2783 7.08008 10.2783C8.27637 10.2783 9.26514 11.2793 9.26514 12.4634C9.26514 13.6597 8.27637 14.6606 7.08008 14.6606ZM12.4512 14.6606C11.2671 14.6606 10.2661 13.6597 10.2661 12.4634C10.2661 11.2793 11.2671 10.2783 12.4512 10.2783C13.6475 10.2783 14.6484 11.2793 14.6484 12.4634C14.6484 13.6597 13.6475 14.6606 12.4512 14.6606ZM17.8223 14.6606C16.6382 14.6606 15.6494 13.6597 15.6494 12.4634C15.6494 11.2793 16.6382 10.2783 17.8223 10.2783C19.0308 10.2783 20.0317 11.2793 20.0317 12.4634C20.0317 13.6597 19.0308 14.6606 17.8223 14.6606ZM9.76562 19.4702C8.54492 19.4702 7.56836 18.4692 7.56836 17.2852C7.56836 16.0889 8.55713 15.0879 9.76562 15.0879C10.9497 15.0879 11.9507 16.0889 11.9507 17.2852C11.9507 18.4814 10.9497 19.4702 9.76562 19.4702ZM15.1367 19.4702C13.9526 19.4702 12.9517 18.4814 12.9517 17.2852C12.9517 16.0889 13.9526 15.0879 15.1367 15.0879C16.3452 15.0879 17.334 16.0889 17.334 17.2852C17.334 18.4814 16.3452 19.4702 15.1367 19.4702Z" fill="#5ac8f5"/>
 </g>
</svg>
