<?xml version="1.0" encoding="UTF-8"?>
<!--Generator: Apple Native CoreSVG 175.5-->
<!DOCTYPE svg
PUBLIC "-//W3C//DTD SVG 1.1//EN"
       "http://www.w3.org/Graphics/SVG/1.1/DTD/svg11.dtd">
<svg version="1.1" xmlns="http://www.w3.org/2000/svg" xmlns:xlink="http://www.w3.org/1999/xlink" width="22.4731" height="22.4976">
 <g>
  <rect height="22.4976" opacity="0" width="22.4731" x="0" y="0"/>
  <path d="M3.83301 22.4976L18.6401 22.4976C21.2036 22.4976 22.4731 21.228 22.4731 18.7134L22.4731 3.80859C22.4731 1.29395 21.2036 0.0244141 18.6401 0.0244141L3.83301 0.0244141C1.28174 0.0244141 0 1.28174 0 3.80859L0 18.7134C0 21.2402 1.28174 22.4976 3.83301 22.4976ZM3.85742 20.5322C2.63672 20.5322 1.96533 19.8853 1.96533 18.6157L1.96533 3.90625C1.96533 2.63672 2.63672 1.98975 3.85742 1.98975L18.6157 1.98975C19.8242 1.98975 20.5078 2.63672 20.5078 3.90625L20.5078 18.6157C20.5078 19.8853 19.8242 20.5322 18.6157 20.5322Z" fill="#5ac8f5" fill-opacity="0.5"/>
  <path d="M5.11475 16.2231L10.1685 16.2231C10.5469 16.2231 10.8398 15.9302 10.8398 15.4907C10.8398 15.0391 10.5469 14.7827 10.1685 14.7827L6.61621 14.7827L6.61621 14.6973L9.00879 11.9141C9.91211 10.8643 10.5835 9.98535 10.5835 8.76465C10.5835 7.06787 9.33838 5.98145 7.42188 5.98145C5.96924 5.98145 4.67529 6.90918 4.35791 8.1543C4.3335 8.31299 4.30908 8.44727 4.30908 8.59375C4.30908 9.0332 4.56543 9.32617 4.99268 9.32617C5.33447 9.32617 5.51758 9.11865 5.68848 8.75244C5.99365 7.83691 6.604 7.38525 7.48291 7.38525C8.47168 7.38525 9.10645 7.99561 9.10645 8.89893C9.10645 9.69238 8.47168 10.376 7.88574 11.0596L4.66309 14.8438C4.47998 15.0513 4.39453 15.2588 4.39453 15.5029C4.39453 15.9424 4.67529 16.2231 5.11475 16.2231ZM13.9893 16.3696C14.3188 16.3696 14.5508 16.1865 14.7705 15.7715L18.5791 8.1543C18.7622 7.76367 18.811 7.54395 18.811 7.2876C18.811 6.68945 18.3838 6.22559 17.7246 6.22559L12.793 6.22559C12.3779 6.22559 12.0972 6.50635 12.0972 6.92139C12.0972 7.32422 12.3779 7.59277 12.793 7.59277L17.0898 7.59277L17.0898 7.69043L13.3057 15.0146C13.1958 15.1978 13.1714 15.3442 13.1714 15.5762C13.1714 16.04 13.5254 16.3696 13.9893 16.3696Z" fill="#5ac8f5"/>
 </g>
</svg>
