<?xml version="1.0" encoding="UTF-8"?>
<!--Generator: Apple Native CoreSVG 175.5-->
<!DOCTYPE svg
PUBLIC "-//W3C//DTD SVG 1.1//EN"
       "http://www.w3.org/Graphics/SVG/1.1/DTD/svg11.dtd">
<svg version="1.1" xmlns="http://www.w3.org/2000/svg" xmlns:xlink="http://www.w3.org/1999/xlink" width="29.1016" height="23.4741">
 <g>
  <rect height="23.4741" opacity="0" width="29.1016" x="0" y="0"/>
  <path d="M13.3179 1.31836L7.03125 0.634766C5.92041 0.512695 5.13916 1.2085 5.13916 2.2583C5.13916 3.32031 5.92041 4.02832 7.03125 3.90625L13.3179 3.21045ZM14.4287 4.52881C15.686 4.52881 16.6992 3.51562 16.6992 2.2583C16.6992 1.01318 15.686 0 14.4287 0C13.1836 0 12.1704 1.01318 12.1704 2.2583C12.1704 3.51562 13.1836 4.52881 14.4287 4.52881ZM15.5396 1.31836L15.5396 3.21045L21.8384 3.90625C22.937 4.02832 23.7183 3.32031 23.7183 2.2583C23.7183 1.2085 22.937 0.512695 21.8384 0.634766ZM13.3545 3.6499L13.3545 6.54297L15.5151 6.54297L15.5151 3.6499ZM11.0229 8.88672L17.8101 8.88672L17.8101 7.2876C17.8101 6.32324 17.2119 5.7251 16.2476 5.7251L12.5732 5.7251C11.6211 5.7251 11.0229 6.32324 11.0229 7.2876ZM14.4165 21.0571C16.4551 21.0571 17.688 20.2271 19.0552 18.9697C19.6045 18.4204 20.3247 18.1396 20.9595 18.1396C22.168 18.1396 23.1323 19.0308 23.1323 20.6421L23.1323 22.3389C23.1323 22.8516 23.3643 23.0835 23.877 23.0835L28.3447 23.0835C28.8574 23.0835 29.1016 22.8516 29.1016 22.3389L29.1016 21.2036C29.1016 14.2578 25 11.9263 21.0449 11.9263L20.52 11.9263C20.1782 11.9263 19.9463 11.731 19.8486 11.4624L19.104 9.44824C18.8843 8.83789 18.6768 8.6792 18.1396 8.6792L10.6812 8.6792C10.144 8.6792 9.94873 8.83789 9.7168 9.44824L8.98438 11.4624C8.87451 11.731 8.64258 11.9263 8.31299 11.9263L1.13525 11.9263L1.13525 18.0664L7.89795 18.0664C8.65479 18.0664 9.0332 18.1641 9.57031 18.7866C10.7666 20.0928 12.3657 21.0571 14.4165 21.0571ZM0.976562 21.1426C1.52588 21.1426 1.96533 20.6909 1.96533 20.1538L1.96533 10.1807C1.96533 9.64355 1.52588 9.19189 0.976562 9.19189C0.439453 9.19189 0 9.64355 0 10.1807L0 20.1538C0 20.6909 0.439453 21.1426 0.976562 21.1426Z" fill="#5ac8f5"/>
 </g>
</svg>
