<?xml version="1.0" encoding="UTF-8"?>
<!--Generator: Apple Native CoreSVG 175.5-->
<!DOCTYPE svg
PUBLIC "-//W3C//DTD SVG 1.1//EN"
       "http://www.w3.org/Graphics/SVG/1.1/DTD/svg11.dtd">
<svg version="1.1" xmlns="http://www.w3.org/2000/svg" xmlns:xlink="http://www.w3.org/1999/xlink" width="43.2983" height="31.0883">
 <g>
  <rect height="31.0883" opacity="0" width="43.2983" x="0" y="0"/>
  <path d="M3.18604 22.6669L6.92139 22.6669L6.92139 20.7016L3.2959 20.7016C2.4292 20.7016 1.96533 20.1645 1.96533 19.1635L1.96533 16.9907C1.96533 15.1596 3.25928 13.9755 5.61523 13.6826L11.4502 12.9501L16.748 9.65425C19.4458 7.98188 21.0693 7.57905 25.7324 7.57905L28.6011 7.57905C31.9214 7.57905 34.6069 8.95845 36.9141 12.1689L39.9048 12.9501C41.0278 13.2309 41.333 13.9023 41.333 14.8422L41.333 19.2734C41.333 20.1645 40.8813 20.7016 40.1123 20.7016L37.085 20.7016L37.085 22.6669L40.4663 22.6669C42.2241 22.6669 43.2983 21.5561 43.2983 19.7617L43.2983 14.8422C43.2983 13.1333 42.7856 11.6806 40.5151 10.9726L38.0005 10.2036C36.4136 8.31147 33.6426 5.61372 28.6011 5.61372L25.7324 5.61372C20.7031 5.61372 18.7012 6.102 15.6982 7.98188L10.7788 11.0703L5.35889 11.7294C1.98975 12.1445 0 14.0854 0 16.9907L0 19.4077C0 21.4829 1.15967 22.6669 3.18604 22.6669ZM12.6343 22.6669L31.4697 22.6669L31.4697 20.7016L12.6343 20.7016ZM9.70459 25.4501C12.0483 25.4501 13.8794 23.6191 13.8794 21.2753C13.8794 18.9316 12.0483 17.1005 9.70459 17.1005C7.36084 17.1005 5.52979 18.9316 5.52979 21.2753C5.52979 23.6191 7.36084 25.4501 9.70459 25.4501ZM9.70459 23.4848C8.45947 23.4848 7.49512 22.5205 7.49512 21.2753C7.49512 20.0302 8.45947 19.0659 9.70459 19.0659C10.9497 19.0659 11.9141 20.0302 11.9141 21.2753C11.9141 22.5205 10.9497 23.4848 9.70459 23.4848ZM34.3628 25.4501C36.7065 25.4501 38.5376 23.6191 38.5376 21.2753C38.5376 18.9316 36.7065 17.1005 34.3628 17.1005C32.019 17.1005 30.188 18.9316 30.188 21.2753C30.188 23.6191 32.019 25.4501 34.3628 25.4501ZM34.3628 23.4848C33.1177 23.4848 32.1533 22.5205 32.1533 21.2753C32.1533 20.0302 33.1177 19.0659 34.3628 19.0659C35.6079 19.0659 36.5723 20.0302 36.5723 21.2753C36.5723 22.5205 35.6079 23.4848 34.3628 23.4848Z" fill="#5ac8f5" fill-opacity="0.5"/>
  <path d="M25.708 25.8041C26.0986 25.1694 25.8057 24.5346 25.0488 24.5346L18.9819 24.5346C18.2251 24.5346 17.9199 25.1694 18.3105 25.8041L21.2891 30.6259C21.6675 31.2485 22.3755 31.2363 22.7417 30.6259Z" fill="#5ac8f5"/>
 </g>
</svg>
