<?xml version="1.0" encoding="UTF-8"?>
<!--Generator: Apple Native CoreSVG 175.5-->
<!DOCTYPE svg
PUBLIC "-//W3C//DTD SVG 1.1//EN"
       "http://www.w3.org/Graphics/SVG/1.1/DTD/svg11.dtd">
<svg version="1.1" xmlns="http://www.w3.org/2000/svg" xmlns:xlink="http://www.w3.org/1999/xlink" width="24.9023" height="24.9146">
 <g>
  <rect height="24.9146" opacity="0" width="24.9023" x="0" y="0"/>
  <path d="M12.4512 24.9023C19.2627 24.9023 24.9023 19.2505 24.9023 12.4512C24.9023 5.63965 19.2505 0 12.439 0C5.63965 0 0 5.63965 0 12.4512C0 19.2505 5.65186 24.9023 12.4512 24.9023Z" fill="#5ac8f5" fill-opacity="0.25"/>
  <path d="M16.394 15.5762C15.8325 15.5762 15.4663 15.1855 15.4663 14.5874L15.4663 12.4268L15.6494 10.4614L13.8306 12.4023L9.22852 17.0166C9.0332 17.1997 8.80127 17.3096 8.49609 17.3096C7.94678 17.3096 7.56836 16.9434 7.56836 16.3696C7.56836 16.1255 7.69043 15.8691 7.87354 15.686L12.5 11.0718L14.4653 9.24072L12.5977 9.43604L10.3271 9.43604C9.7168 9.43604 9.32617 9.06982 9.32617 8.52051C9.32617 7.95898 9.70459 7.59277 10.3027 7.59277L16.2598 7.59277C16.9067 7.59277 17.3218 7.88574 17.3218 8.63037L17.3218 14.563C17.3218 15.1489 16.9434 15.5762 16.394 15.5762Z" fill="#5ac8f5"/>
 </g>
</svg>
