<?xml version="1.0" encoding="UTF-8"?>
<!--Generator: Apple Native CoreSVG 175.5-->
<!DOCTYPE svg
PUBLIC "-//W3C//DTD SVG 1.1//EN"
       "http://www.w3.org/Graphics/SVG/1.1/DTD/svg11.dtd">
<svg version="1.1" xmlns="http://www.w3.org/2000/svg" xmlns:xlink="http://www.w3.org/1999/xlink" width="18.8599" height="23.0591">
 <g>
  <rect height="23.0591" opacity="0" width="18.8599" x="0" y="0"/>
  <path d="M0 6.38428C0 10.0586 2.58789 12.4878 6.51855 12.4878L8.49609 12.4878L8.49609 21.936C8.49609 22.6196 8.92334 23.0591 9.61914 23.0591C10.3027 23.0591 10.7544 22.6196 10.7544 21.936L10.7544 2.55127L13.4033 2.55127L13.4033 21.936C13.4033 22.6196 13.8306 23.0591 14.5142 23.0591C15.21 23.0591 15.6616 22.6196 15.6616 21.936L15.6616 2.55127L17.7246 2.55127C18.4204 2.55127 18.8599 2.0874 18.8599 1.40381C18.8599 0.720215 18.4204 0.292969 17.7246 0.292969L6.45752 0.292969C2.56348 0.292969 0 2.70996 0 6.38428Z" fill="#5ac8f5"/>
 </g>
</svg>
