<?xml version="1.0" encoding="UTF-8"?>
<!--Generator: Apple Native CoreSVG 175.5-->
<!DOCTYPE svg
PUBLIC "-//W3C//DTD SVG 1.1//EN"
       "http://www.w3.org/Graphics/SVG/1.1/DTD/svg11.dtd">
<svg version="1.1" xmlns="http://www.w3.org/2000/svg" xmlns:xlink="http://www.w3.org/1999/xlink" width="24.9023" height="24.9146">
 <g>
  <rect height="24.9146" opacity="0" width="24.9023" x="0" y="0"/>
  <path d="M12.4512 24.9146C19.2627 24.9146 24.9023 19.2749 24.9023 12.4634C24.9023 5.66406 19.2505 0.012207 12.439 0.012207C5.63965 0.012207 0 5.66406 0 12.4634C0 19.2749 5.65186 24.9146 12.4512 24.9146ZM9.39941 15.4053C6.45752 12.4756 4.58984 8.74023 6.79932 6.51855C6.84814 6.46973 6.89697 6.4209 6.97021 6.37207C7.8125 5.74951 8.59375 5.60303 9.10645 6.34766L10.6567 8.53271C11.1816 9.27734 11.0718 9.729 10.4858 10.3271L9.99756 10.8521C9.83887 11.0229 9.8999 11.2427 9.97314 11.3892C10.2295 11.8164 10.8398 12.5732 11.5356 13.269C12.2437 13.9771 12.9761 14.563 13.4155 14.8315C13.5864 14.9292 13.8428 14.9536 13.9771 14.8071L14.4775 14.3188C15.0391 13.7573 15.5273 13.6353 16.272 14.1479C17.2852 14.8682 17.9077 15.2954 18.4937 15.7227C19.2261 16.272 19.0674 17.1265 18.5059 17.7612C18.4326 17.8467 18.3716 17.9321 18.2861 18.0176C16.0767 20.2271 12.3291 18.3594 9.39941 15.4053Z" fill="#5ac8f5"/>
 </g>
</svg>
