<?xml version="1.0" encoding="UTF-8"?>
<!--Generator: Apple Native CoreSVG 175.5-->
<!DOCTYPE svg
PUBLIC "-//W3C//DTD SVG 1.1//EN"
       "http://www.w3.org/Graphics/SVG/1.1/DTD/svg11.dtd">
<svg version="1.1" xmlns="http://www.w3.org/2000/svg" xmlns:xlink="http://www.w3.org/1999/xlink" width="24.9023" height="24.9146">
 <g>
  <rect height="24.9146" opacity="0" width="24.9023" x="0" y="0"/>
  <path d="M12.4512 24.9023C19.2627 24.9023 24.9023 19.2505 24.9023 12.4512C24.9023 5.63965 19.2505 0 12.439 0C5.63965 0 0 5.63965 0 12.4512C0 19.2505 5.65186 24.9023 12.4512 24.9023ZM12.4512 22.8271C6.68945 22.8271 2.0874 18.2129 2.0874 12.4512C2.0874 6.68945 6.67725 2.0752 12.439 2.0752C18.2007 2.0752 22.8271 6.68945 22.8271 12.4512C22.8271 18.2129 18.2129 22.8271 12.4512 22.8271Z" fill="#5ac8f5" fill-opacity="0.5"/>
  <path d="M9.99756 17.688C10.4858 17.688 10.7422 17.3462 10.7422 16.8701L10.7422 15.4297L11.4136 15.4297C11.8286 15.4297 12.0972 15.1855 12.0972 14.7583C12.0972 14.3188 11.8286 14.0625 11.4136 14.0625L10.7422 14.0625L10.7422 8.34961C10.7422 7.6416 10.2539 7.18994 9.53369 7.18994C8.82568 7.18994 8.39844 7.4585 8.00781 8.12988C6.98242 9.83887 5.74951 11.9385 4.93164 13.4155C4.73633 13.7939 4.66309 14.0625 4.66309 14.3921C4.66309 15.0391 5.09033 15.4297 5.70068 15.4297L9.26514 15.4297L9.26514 16.8701C9.26514 17.334 9.52148 17.688 9.99756 17.688ZM9.26514 14.0625L6.25 14.0625L6.25 14.0137C6.97021 12.6343 8.22754 10.4858 9.2041 8.83789L9.26514 8.83789ZM16.7236 17.7246C18.7012 17.7246 20.1172 16.4185 20.1172 14.1846C20.1172 12.085 18.689 10.9253 17.1021 10.9253C15.7959 10.9253 14.978 11.6577 14.6729 12.4634L14.5874 12.4634C14.5874 12.4268 14.5874 12.4023 14.5874 12.3535C14.5874 10.0464 15.5151 8.59375 16.8945 8.59375C17.6025 8.59375 18.0908 8.93555 18.396 9.41162C18.6035 9.7168 18.7988 9.86328 19.1284 9.86328C19.4702 9.86328 19.7266 9.59473 19.7266 9.19189C19.7266 9.0332 19.7021 8.88672 19.6411 8.72803C19.3237 7.91016 18.3472 7.18994 16.9556 7.18994C14.5996 7.18994 13.1592 9.021 13.1592 12.7319C13.1592 14.2212 13.3911 15.3076 13.8062 16.0767C14.4409 17.2485 15.4907 17.7246 16.7236 17.7246ZM16.6504 16.3818C15.5151 16.3818 14.7339 15.4907 14.7339 14.2334C14.7339 13.0371 15.5151 12.1826 16.6626 12.1826C17.8101 12.1826 18.5791 13.0249 18.5791 14.2456C18.5791 15.5518 17.8345 16.3818 16.6504 16.3818Z" fill="#5ac8f5"/>
 </g>
</svg>
