<?xml version="1.0" encoding="UTF-8"?>
<!--Generator: Apple Native CoreSVG 175.5-->
<!DOCTYPE svg
PUBLIC "-//W3C//DTD SVG 1.1//EN"
       "http://www.w3.org/Graphics/SVG/1.1/DTD/svg11.dtd">
<svg version="1.1" xmlns="http://www.w3.org/2000/svg" xmlns:xlink="http://www.w3.org/1999/xlink" width="26.062" height="24.2065">
 <g>
  <rect height="24.2065" opacity="0" width="26.062" x="0" y="0"/>
  <path d="M8.55713 8.14209C10.7788 8.14209 12.6343 6.29883 12.6343 4.07715C12.6343 1.85547 10.7788 0 8.55713 0C6.33545 0 4.47998 1.85547 4.47998 4.07715C4.47998 6.29883 6.33545 8.14209 8.55713 8.14209ZM8.55713 6.17676C7.40967 6.17676 6.44531 5.2124 6.44531 4.07715C6.44531 2.92969 7.40967 1.96533 8.55713 1.96533C9.70459 1.96533 10.6689 2.92969 10.6689 4.07715C10.6689 5.2124 9.70459 6.17676 8.55713 6.17676ZM17.5049 8.14209C19.7266 8.14209 21.582 6.29883 21.582 4.07715C21.582 1.85547 19.7266 0 17.5049 0C15.2832 0 13.4277 1.85547 13.4277 4.07715C13.4277 6.29883 15.2832 8.14209 17.5049 8.14209ZM17.5049 6.17676C16.3574 6.17676 15.3931 5.2124 15.3931 4.07715C15.3931 2.92969 16.3574 1.96533 17.5049 1.96533C18.6523 1.96533 19.6167 2.92969 19.6167 4.07715C19.6167 5.2124 18.6523 6.17676 17.5049 6.17676ZM4.07715 16.1743C6.31104 16.1743 8.1665 14.3188 8.1665 12.0972C8.1665 9.87549 6.31104 8.02002 4.07715 8.02002C1.85547 8.02002 0 9.87549 0 12.0972C0 14.3188 1.85547 16.1743 4.07715 16.1743ZM4.07715 14.209C2.92969 14.209 1.96533 13.2446 1.96533 12.0972C1.96533 10.9497 2.92969 9.98535 4.07715 9.98535C5.22461 9.98535 6.20117 10.9497 6.20117 12.0972C6.20117 13.2446 5.22461 14.209 4.07715 14.209ZM13.0371 16.1743C15.2588 16.1743 17.1143 14.3188 17.1143 12.0972C17.1143 9.87549 15.2588 8.02002 13.0371 8.02002C10.8032 8.02002 8.94775 9.87549 8.94775 12.0972C8.94775 14.3188 10.8032 16.1743 13.0371 16.1743ZM13.0371 14.209C11.8774 14.209 10.9131 13.2446 10.9131 12.0972C10.9131 10.9497 11.8774 9.98535 13.0371 9.98535C14.1846 9.98535 15.1489 10.9497 15.1489 12.0972C15.1489 13.2446 14.1846 14.209 13.0371 14.209ZM21.9849 16.1743C24.2065 16.1743 26.062 14.3188 26.062 12.0972C26.062 9.87549 24.2065 8.02002 21.9849 8.02002C19.7632 8.02002 17.8955 9.87549 17.8955 12.0972C17.8955 14.3188 19.7632 16.1743 21.9849 16.1743ZM21.9849 14.209C20.8374 14.209 19.8608 13.2446 19.8608 12.0972C19.8608 10.9497 20.8374 9.98535 21.9849 9.98535C23.1323 9.98535 24.0967 10.9497 24.0967 12.0972C24.0967 13.2446 23.1323 14.209 21.9849 14.209ZM8.55713 24.1943C10.7788 24.1943 12.6343 22.3267 12.6343 20.1172C12.6343 17.8833 10.7788 16.04 8.55713 16.04C6.33545 16.04 4.47998 17.8833 4.47998 20.1172C4.47998 22.3389 6.33545 24.1943 8.55713 24.1943ZM8.55713 22.229C7.40967 22.229 6.44531 21.2646 6.44531 20.1172C6.44531 18.9697 7.40967 18.0054 8.55713 18.0054C9.70459 18.0054 10.6689 18.9697 10.6689 20.1172C10.6689 21.2646 9.70459 22.229 8.55713 22.229ZM17.5049 24.1943C19.7266 24.1943 21.582 22.3389 21.582 20.1172C21.582 17.8833 19.7266 16.04 17.5049 16.04C15.2832 16.04 13.4277 17.8833 13.4277 20.1172C13.4277 22.3389 15.2832 24.1943 17.5049 24.1943ZM17.5049 22.229C16.3574 22.229 15.3931 21.2646 15.3931 20.1172C15.3931 18.9697 16.3574 18.0054 17.5049 18.0054C18.6523 18.0054 19.6167 18.9697 19.6167 20.1172C19.6167 21.2646 18.6523 22.229 17.5049 22.229Z" fill="#5ac8f5"/>
 </g>
</svg>
