<?xml version="1.0" encoding="UTF-8"?>
<!--Generator: Apple Native CoreSVG 175.5-->
<!DOCTYPE svg
PUBLIC "-//W3C//DTD SVG 1.1//EN"
       "http://www.w3.org/Graphics/SVG/1.1/DTD/svg11.dtd">
<svg version="1.1" xmlns="http://www.w3.org/2000/svg" xmlns:xlink="http://www.w3.org/1999/xlink" width="29.5166" height="22.4976">
 <g>
  <rect height="22.4976" opacity="0" width="29.5166" x="0" y="0"/>
  <path d="M10.498 22.4976L19.0308 22.4976C26.2939 22.4976 29.5166 19.165 29.5166 12.3169L29.5166 3.80859C29.5166 1.29395 28.2349 0.0244141 25.6836 0.0244141L3.83301 0.0244141C1.28174 0.0244141 0 1.28174 0 3.80859L0 12.3169C0 19.165 3.22266 22.4976 10.498 22.4976Z" fill="#5ac8f5" fill-opacity="0.25"/>
  <path d="M6.39648 17.0532C5.76172 17.0532 5.41992 16.6016 5.41992 15.918L5.41992 6.56738C5.41992 5.896 5.74951 5.41992 6.39648 5.41992L10.022 5.41992C12.5732 5.41992 14.209 6.87256 14.209 9.13086C14.209 10.7056 13.2324 12.0239 11.7676 12.5122L13.6475 15.4541C13.8062 15.7104 13.8794 15.9058 13.8794 16.1865C13.8794 16.6992 13.4888 17.0532 12.9517 17.0532C12.5122 17.0532 12.2559 16.8701 11.9507 16.394L9.76562 12.8052L7.42188 12.8052L7.42188 15.918C7.42188 16.626 7.06787 17.0532 6.39648 17.0532ZM7.42188 11.3281L9.7168 11.3281C11.2427 11.3281 12.1948 10.5591 12.1948 9.17969C12.1948 7.77588 11.2183 6.97021 9.76562 6.97021L7.42188 6.97021ZM17.2974 16.9189C16.5894 16.9189 16.1743 16.5039 16.1743 15.7959L16.1743 6.54297C16.1743 5.82275 16.5894 5.40771 17.2974 5.40771L21.0083 5.40771C23.1689 5.40771 24.5728 6.53076 24.5728 8.25195C24.5728 9.50928 23.8037 10.4858 22.5586 10.791L22.5586 10.8643C24.231 11.084 25.2563 12.146 25.2563 13.6841C25.2563 15.6616 23.584 16.9189 20.9839 16.9189ZM18.1396 10.2905L20.0317 10.2905C21.7163 10.2905 22.6318 9.68018 22.6318 8.55713C22.6318 7.53174 21.8628 6.90918 20.5933 6.90918L18.1396 6.90918ZM18.1396 15.4297L20.1782 15.4297C22.2656 15.4297 23.2422 14.856 23.2422 13.6108C23.2422 12.3901 22.3389 11.6821 20.813 11.6821L18.1396 11.6821Z" fill="#5ac8f5"/>
 </g>
</svg>
