<?xml version="1.0" encoding="UTF-8"?>
<!--Generator: Apple Native CoreSVG 175.5-->
<!DOCTYPE svg
PUBLIC "-//W3C//DTD SVG 1.1//EN"
       "http://www.w3.org/Graphics/SVG/1.1/DTD/svg11.dtd">
<svg version="1.1" xmlns="http://www.w3.org/2000/svg" xmlns:xlink="http://www.w3.org/1999/xlink" width="22.4731" height="22.4976">
 <g>
  <rect height="22.4976" opacity="0" width="22.4731" x="0" y="0"/>
  <path d="M3.83301 22.4976L18.6401 22.4976C21.2036 22.4976 22.4731 21.228 22.4731 18.7134L22.4731 3.80859C22.4731 1.29395 21.2036 0.0244141 18.6401 0.0244141L3.83301 0.0244141C1.28174 0.0244141 0 1.28174 0 3.80859L0 18.7134C0 21.2402 1.28174 22.4976 3.83301 22.4976ZM3.85742 20.5322C2.63672 20.5322 1.96533 19.8853 1.96533 18.6157L1.96533 3.90625C1.96533 2.63672 2.63672 1.98975 3.85742 1.98975L18.6157 1.98975C19.8242 1.98975 20.5078 2.63672 20.5078 3.90625L20.5078 18.6157C20.5078 19.8853 19.8242 20.5322 18.6157 20.5322ZM7.17773 11.2427C7.17773 13.7695 8.53271 15.4297 10.6323 15.7104L10.6323 16.626C10.6323 16.98 10.8887 17.2241 11.2305 17.2241C11.5845 17.2241 11.8408 16.98 11.8408 16.626L11.8408 15.7227C13.3911 15.5396 14.4897 14.6606 14.8438 13.5742C14.8804 13.4399 14.917 13.2935 14.917 13.147C14.917 12.7197 14.6118 12.4268 14.1846 12.4268C13.855 12.4268 13.6108 12.6221 13.4766 12.9395C13.208 13.6353 12.6587 14.1235 11.8408 14.2822L11.8408 8.20312C12.6465 8.36182 13.1958 8.8623 13.4644 9.53369C13.6108 9.8877 13.855 10.0708 14.1968 10.0708C14.624 10.0708 14.9048 9.77783 14.9048 9.33838C14.9048 9.19189 14.8682 9.05762 14.8315 8.93555C14.4775 7.84912 13.3789 6.95801 11.8408 6.7749L11.8408 5.87158C11.8408 5.51758 11.5845 5.26123 11.2305 5.26123C10.8887 5.26123 10.6323 5.51758 10.6323 5.87158L10.6323 6.78711C8.53271 7.06787 7.17773 8.74023 7.17773 11.2427ZM8.72803 11.2427C8.72803 9.59473 9.46045 8.52051 10.6323 8.22754L10.6323 14.2578C9.46045 13.9771 8.72803 12.915 8.72803 11.2427Z" fill="#5ac8f5"/>
 </g>
</svg>
