<?xml version="1.0" encoding="UTF-8"?>
<!--Generator: Apple Native CoreSVG 175.5-->
<!DOCTYPE svg
PUBLIC "-//W3C//DTD SVG 1.1//EN"
       "http://www.w3.org/Graphics/SVG/1.1/DTD/svg11.dtd">
<svg version="1.1" xmlns="http://www.w3.org/2000/svg" xmlns:xlink="http://www.w3.org/1999/xlink" width="25.8301" height="25.5737">
 <g>
  <rect height="25.5737" opacity="0" width="25.8301" x="0" y="0"/>
  <path d="M16.0889 0.012207L3.83301 0.012207C1.28174 0.012207 0 1.28174 0 3.79639L0 16.1377C0 18.6523 1.28174 19.9219 3.83301 19.9219L16.0889 19.9219C18.6401 19.9219 19.9097 18.6646 19.9097 16.1377L19.9097 3.79639C19.9097 1.26953 18.6401 0.012207 16.0889 0.012207ZM25.8301 9.43604C25.8301 6.92139 24.5605 5.66406 22.0093 5.66406L21.582 5.66406L21.582 16.1377C21.582 19.5923 19.5557 21.5942 16.0889 21.5942L5.92041 21.5942L5.92041 21.7896C5.92041 24.3042 7.20215 25.5737 9.75342 25.5737L22.0093 25.5737C24.5605 25.5737 25.8301 24.3164 25.8301 21.7896Z" fill="#5ac8f5" fill-opacity="0.25"/>
  <path d="M6.72607 15.7349C6.09131 15.7349 5.7373 15.2832 5.7373 14.6118L5.7373 5.26123C5.7373 4.57764 6.0791 4.10156 6.72607 4.10156L10.3516 4.10156C12.9028 4.10156 14.5142 5.5542 14.5142 7.82471C14.5142 9.38721 13.562 10.7056 12.0972 11.1938L13.9771 14.1479C14.1235 14.3921 14.1968 14.5996 14.1968 14.8682C14.1968 15.3931 13.8184 15.7349 13.2812 15.7349C12.8296 15.7349 12.5854 15.5518 12.2803 15.0757L10.0952 11.4868L7.75146 11.4868L7.75146 14.6118C7.75146 15.3076 7.39746 15.7349 6.72607 15.7349ZM7.75146 10.0098L10.0464 10.0098C11.5601 10.0098 12.5244 9.24072 12.5244 7.87354C12.5244 6.45752 11.5356 5.65186 10.0952 5.65186L7.75146 5.65186Z" fill="#5ac8f5"/>
 </g>
</svg>
