<?xml version="1.0" encoding="UTF-8"?>
<!--Generator: Apple Native CoreSVG 175.5-->
<!DOCTYPE svg
PUBLIC "-//W3C//DTD SVG 1.1//EN"
       "http://www.w3.org/Graphics/SVG/1.1/DTD/svg11.dtd">
<svg version="1.1" xmlns="http://www.w3.org/2000/svg" xmlns:xlink="http://www.w3.org/1999/xlink" width="24.9023" height="24.9146">
 <g>
  <rect height="24.9146" opacity="0" width="24.9023" x="0" y="0"/>
  <path d="M12.4512 24.9146C19.2627 24.9146 24.9023 19.2749 24.9023 12.4634C24.9023 5.66406 19.2505 0.012207 12.439 0.012207C5.63965 0.012207 0 5.66406 0 12.4634C0 19.2749 5.65186 24.9146 12.4512 24.9146Z" fill="#5ac8f5" fill-opacity="0.25"/>
  <path d="M9.97314 19.6655C8.8501 19.6655 8.09326 18.9453 8.09326 17.8589L8.09326 7.06787C8.09326 5.96924 8.8501 5.26123 9.97314 5.26123L14.9536 5.26123C16.0767 5.26123 16.8335 5.96924 16.8335 7.06787L16.8335 17.8589C16.8335 18.9453 16.0767 19.6655 14.9536 19.6655ZM10.1074 18.5425L14.8193 18.5425C15.3931 18.5425 15.7104 18.2373 15.7104 17.7002L15.7104 7.21436C15.7104 6.67725 15.3931 6.38428 14.8193 6.38428L10.1074 6.38428C9.53369 6.38428 9.21631 6.67725 9.21631 7.21436L9.21631 17.7002C9.21631 18.2373 9.53369 18.5425 10.1074 18.5425ZM11.6211 7.89795C11.3403 7.89795 11.145 7.67822 11.145 7.40967C11.145 7.14111 11.3403 6.92139 11.6211 6.92139L13.2812 6.92139C13.562 6.92139 13.7695 7.14111 13.7695 7.40967C13.7695 7.67822 13.562 7.89795 13.2812 7.89795ZM11.0474 18.0664C10.8398 18.0664 10.7056 17.9199 10.7056 17.7246C10.7056 17.5171 10.8398 17.3828 11.0474 17.3828L13.9038 17.3828C14.0991 17.3828 14.2212 17.5171 14.2212 17.7246C14.2212 17.9199 14.0991 18.0664 13.9038 18.0664Z" fill="#5ac8f5"/>
  <path d="M6.9458 14.6484C6.75049 14.8804 6.40869 14.8804 6.18896 14.624C5.71289 14.0259 5.44434 13.2812 5.44434 12.4634C5.44434 11.6577 5.71289 10.9009 6.18896 10.3149C6.40869 10.0586 6.75049 10.0464 6.9458 10.2783C7.1167 10.4858 7.05566 10.73 6.86035 10.9863C6.55518 11.377 6.39648 11.9019 6.39648 12.4634C6.39648 13.0249 6.55518 13.5376 6.86035 13.9404C7.05566 14.1968 7.1167 14.4409 6.9458 14.6484ZM17.9443 14.6484C17.7734 14.4409 17.8345 14.1968 18.0298 13.9404C18.335 13.5376 18.5059 13.0249 18.5059 12.4634C18.5059 11.9019 18.335 11.377 18.0298 10.9863C17.8345 10.73 17.7734 10.4858 17.9443 10.2783C18.1396 10.0464 18.4937 10.0586 18.7012 10.3149C19.1772 10.9009 19.458 11.6577 19.458 12.4634C19.458 13.2812 19.1772 14.0259 18.7012 14.624C18.4937 14.8804 18.1396 14.8804 17.9443 14.6484Z" fill="#5ac8f5"/>
  <path d="M5.12695 16.1987C4.95605 16.4307 4.63867 16.4307 4.39453 16.1865C3.479 15.1978 2.99072 13.8672 2.99072 12.4634C2.99072 11.0718 3.479 9.74121 4.39453 8.74023C4.63867 8.49609 4.95605 8.49609 5.12695 8.72803C5.29785 8.93555 5.24902 9.19189 5.05371 9.43604C4.30908 10.2661 3.91846 11.3159 3.91846 12.4634C3.91846 13.6108 4.30908 14.6606 5.05371 15.4907C5.24902 15.7349 5.29785 16.0034 5.12695 16.1987ZM19.7632 16.1987C19.5923 16.0034 19.6411 15.7349 19.8486 15.4907C20.5811 14.6606 20.9839 13.6108 20.9839 12.4634C20.9839 11.3159 20.5811 10.2661 19.8486 9.43604C19.6411 9.19189 19.5923 8.93555 19.7632 8.72803C19.9463 8.49609 20.2637 8.49609 20.4956 8.74023C21.4111 9.74121 21.9116 11.0718 21.9116 12.4634C21.9116 13.8672 21.4111 15.1978 20.4956 16.1865C20.2637 16.4307 19.9463 16.4307 19.7632 16.1987Z" fill="#5ac8f5"/>
 </g>
</svg>
