<?xml version="1.0" encoding="UTF-8"?>
<!--Generator: Apple Native CoreSVG 175.5-->
<!DOCTYPE svg
PUBLIC "-//W3C//DTD SVG 1.1//EN"
       "http://www.w3.org/Graphics/SVG/1.1/DTD/svg11.dtd">
<svg version="1.1" xmlns="http://www.w3.org/2000/svg" xmlns:xlink="http://www.w3.org/1999/xlink" width="28.7842" height="22.4731">
 <g>
  <rect height="22.4731" opacity="0" width="28.7842" x="0" y="0"/>
  <path d="M3.83301 22.4731L24.9512 22.4731C27.5146 22.4731 28.7842 21.2158 28.7842 18.7012L28.7842 3.78418C28.7842 1.26953 27.5146 0 24.9512 0L3.83301 0C1.28174 0 0 1.26953 0 3.78418L0 18.7012C0 21.2158 1.28174 22.4731 3.83301 22.4731ZM3.85742 20.5078C2.63672 20.5078 1.96533 19.8608 1.96533 18.5913L1.96533 3.89404C1.96533 2.62451 2.63672 1.96533 3.85742 1.96533L24.9268 1.96533C26.1353 1.96533 26.8188 2.62451 26.8188 3.89404L26.8188 18.5913C26.8188 19.8608 26.1353 20.5078 24.9268 20.5078ZM8.74023 11.2305C8.74023 11.8286 9.16748 12.2314 9.79004 12.2314L13.3789 12.2314L13.3789 15.8325C13.3789 16.4429 13.7939 16.8701 14.3799 16.8701C15.0024 16.8701 15.4297 16.4551 15.4297 15.8325L15.4297 12.2314L19.0308 12.2314C19.6411 12.2314 20.0562 11.8286 20.0562 11.2305C20.0562 10.6201 19.6411 10.1929 19.0308 10.1929L15.4297 10.1929L15.4297 6.604C15.4297 5.98145 15.0024 5.5542 14.3799 5.5542C13.7939 5.5542 13.3789 5.98145 13.3789 6.604L13.3789 10.1929L9.79004 10.1929C9.16748 10.1929 8.74023 10.6201 8.74023 11.2305Z" fill="#5ac8f5"/>
 </g>
</svg>
