<?xml version="1.0" encoding="UTF-8"?>
<!--Generator: Apple Native CoreSVG 175.5-->
<!DOCTYPE svg
PUBLIC "-//W3C//DTD SVG 1.1//EN"
       "http://www.w3.org/Graphics/SVG/1.1/DTD/svg11.dtd">
<svg version="1.1" xmlns="http://www.w3.org/2000/svg" xmlns:xlink="http://www.w3.org/1999/xlink" width="24.9512" height="26.0376">
 <g>
  <rect height="26.0376" opacity="0" width="24.9512" x="0" y="0"/>
  <path d="M15.1001 14.0625L22.3022 18.1763C22.3633 18.2007 22.3999 18.2373 22.3999 18.2983C22.3999 18.3594 22.3633 18.3838 22.3022 18.4204L13.0127 23.7305C12.8174 23.8403 12.6465 23.9014 12.4756 23.9014C12.3047 23.9014 12.1338 23.8403 11.9263 23.7305L2.63672 18.4204C2.58789 18.3838 2.55127 18.3594 2.55127 18.2983C2.55127 18.2373 2.58789 18.2007 2.63672 18.1763L10.1685 13.8672L8.14209 12.6831L1.36719 16.6016C0.378418 17.1875 0 17.627 0 18.2983C0 18.9697 0.378418 19.4092 1.36719 19.9829L10.9253 25.5371C11.5112 25.8789 11.9751 26.0376 12.4756 26.0376C12.9639 26.0376 13.4399 25.8789 14.0259 25.5371L23.5718 19.9829C24.5605 19.4092 24.9512 18.9697 24.9512 18.2983C24.9512 17.627 24.5605 17.1875 23.5718 16.6016L17.1021 12.854ZM12.4756 16.0278C12.9639 16.0278 13.4399 15.8691 14.0259 15.5273L23.5718 9.98535C24.5605 9.39941 24.9512 8.95996 24.9512 8.28857C24.9512 7.61719 24.5605 7.17773 23.5718 6.604L14.0259 1.0498C13.4399 0.708008 12.9639 0.549316 12.4756 0.549316C11.9751 0.549316 11.5112 0.708008 10.9253 1.0498L1.36719 6.604C0.378418 7.17773 0 7.61719 0 8.28857C0 8.95996 0.378418 9.39941 1.36719 9.98535L10.9253 15.5273C11.5112 15.8691 11.9751 16.0278 12.4756 16.0278ZM12.4756 13.8916C12.3047 13.8916 12.1338 13.8428 11.9263 13.7207L2.63672 8.41064C2.58789 8.38623 2.55127 8.34961 2.55127 8.28857C2.55127 8.22754 2.58789 8.20312 2.63672 8.1665L11.9263 2.85645C12.1338 2.74658 12.3047 2.68555 12.4756 2.68555C12.6465 2.68555 12.8174 2.74658 13.0127 2.85645L22.3022 8.1665C22.3633 8.20312 22.3999 8.22754 22.3999 8.28857C22.3999 8.34961 22.3633 8.38623 22.3022 8.41064L13.0127 13.7207C12.8174 13.8428 12.6465 13.8916 12.4756 13.8916Z" fill="#5ac8f5"/>
 </g>
</svg>
