<?xml version="1.0" encoding="UTF-8"?>
<!--Generator: Apple Native CoreSVG 175.5-->
<!DOCTYPE svg
PUBLIC "-//W3C//DTD SVG 1.1//EN"
       "http://www.w3.org/Graphics/SVG/1.1/DTD/svg11.dtd">
<svg version="1.1" xmlns="http://www.w3.org/2000/svg" xmlns:xlink="http://www.w3.org/1999/xlink" width="24.9023" height="24.9146">
 <g>
  <rect height="24.9146" opacity="0" width="24.9023" x="0" y="0"/>
  <path d="M7.32422 14.8315C6.00586 14.8315 4.95605 13.7573 4.95605 12.4512C4.95605 11.145 6.00586 10.0708 7.32422 10.0708C8.64258 10.0708 9.70459 11.145 9.70459 12.4512C9.70459 13.7573 8.64258 14.8315 7.32422 14.8315ZM17.5781 14.8315C16.2598 14.8315 15.1978 13.7573 15.1978 12.4512C15.1978 11.145 16.2598 10.0708 17.5781 10.0708C18.8965 10.0708 19.9463 11.145 19.9463 12.4512C19.9463 13.7573 18.8965 14.8315 17.5781 14.8315ZM12.4512 24.9023C19.2627 24.9023 24.9023 19.2505 24.9023 12.4512C24.9023 5.63965 19.2505 0 12.439 0C5.63965 0 0 5.63965 0 12.4512C0 19.2505 5.65186 24.9023 12.4512 24.9023Z" fill="#5ac8f5"/>
 </g>
</svg>
