<?xml version="1.0" encoding="UTF-8"?>
<!--Generator: Apple Native CoreSVG 175.5-->
<!DOCTYPE svg
PUBLIC "-//W3C//DTD SVG 1.1//EN"
       "http://www.w3.org/Graphics/SVG/1.1/DTD/svg11.dtd">
<svg version="1.1" xmlns="http://www.w3.org/2000/svg" xmlns:xlink="http://www.w3.org/1999/xlink" width="25.8545" height="15.7349">
 <g>
  <rect height="15.7349" opacity="0" width="25.8545" x="0" y="0"/>
  <path d="M3.50342 13.7329C2.51465 13.7329 1.96533 13.147 1.96533 12.1216L1.96533 3.57666C1.96533 2.55127 2.51465 1.96533 3.50342 1.96533L22.3633 1.96533C23.3398 1.96533 23.8892 2.55127 23.8892 3.57666L23.8892 12.1216C23.8892 13.147 23.3398 13.7329 22.3633 13.7329Z" fill="#5ac8f5" fill-opacity="0.25"/>
  <path d="M3.18604 15.6982L22.6807 15.6982C24.585 15.6982 25.8545 14.3555 25.8545 12.3657L25.8545 3.32031C25.8545 1.33057 24.585 0 22.6807 0L3.18604 0C1.28174 0 0 1.33057 0 3.32031L0 12.3657C0 14.3555 1.28174 15.6982 3.18604 15.6982ZM3.50342 13.7329C2.51465 13.7329 1.96533 13.147 1.96533 12.1216L1.96533 3.57666C1.96533 2.55127 2.51465 1.96533 3.50342 1.96533L22.3633 1.96533C23.3398 1.96533 23.8892 2.55127 23.8892 3.57666L23.8892 12.1216C23.8892 13.147 23.3398 13.7329 22.3633 13.7329ZM9.68018 12.8296L16.1865 12.8296C16.5161 12.8296 16.748 12.5977 16.748 12.2559C16.748 11.9141 16.5161 11.6943 16.1865 11.6943L9.68018 11.6943C9.35059 11.6943 9.11865 11.9141 9.11865 12.2559C9.11865 12.5977 9.35059 12.8296 9.68018 12.8296ZM3.79639 10.1929C4.28467 10.1929 4.66309 9.80225 4.66309 9.31396L4.66309 6.35986C4.66309 5.88379 4.28467 5.50537 3.79639 5.50537C3.32031 5.50537 2.94189 5.88379 2.94189 6.35986L2.94189 9.31396C2.94189 9.80225 3.32031 10.1929 3.79639 10.1929Z" fill="#5ac8f5"/>
 </g>
</svg>
