<?xml version="1.0" encoding="UTF-8"?>
<!--Generator: Apple Native CoreSVG 175.5-->
<!DOCTYPE svg
PUBLIC "-//W3C//DTD SVG 1.1//EN"
       "http://www.w3.org/Graphics/SVG/1.1/DTD/svg11.dtd">
<svg version="1.1" xmlns="http://www.w3.org/2000/svg" xmlns:xlink="http://www.w3.org/1999/xlink" width="43.2983" height="19.8608">
 <g>
  <rect height="19.8608" opacity="0" width="43.2983" x="0" y="0"/>
  <path d="M17.041 8.21533C17.041 10.2905 18.5669 11.6699 20.813 11.6699L25.6714 11.6699L25.6714 12.793C25.6714 13.4766 26.1597 13.7207 26.7578 13.3301L29.6021 11.4624C30.0537 11.1694 30.0781 10.6079 29.6021 10.2783L26.77 8.42285C26.1719 8.02002 25.6714 8.25195 25.6714 8.95996L25.6714 10.022L20.813 10.022C19.5679 10.022 18.75 9.33838 18.75 8.31299C18.75 7.16553 19.5801 6.38428 20.8252 6.38428L27.9419 6.38428C28.4546 6.38428 28.8086 6.05469 28.8086 5.56641C28.8086 5.07812 28.4546 4.72412 27.9297 4.72412L20.8252 4.72412C18.5669 4.72412 17.041 6.14014 17.041 8.21533ZM3.11279 17.0532L6.90918 17.0532L6.90918 15.0879L3.22266 15.0879C2.4292 15.0879 1.96533 14.5508 1.96533 13.623L1.96533 11.7676C1.96533 9.58252 3.43018 8.34961 6.48193 7.95898L11.4502 7.33643L16.748 4.04053C19.4458 2.35596 21.0449 1.96533 25.7324 1.96533L35.2661 1.96533C37.3779 1.96533 38.6108 2.53906 39.5996 3.97949L40.1489 4.77295C40.8936 5.84717 41.333 7.16553 41.333 8.3252L41.333 13.6597C41.333 14.6362 40.9546 15.0879 40.0879 15.0879L36.9629 15.0879L36.9629 17.0532L40.1978 17.0532C42.334 17.0532 43.2983 15.9546 43.2983 13.5376L43.2983 8.3252C43.2983 6.79932 42.7246 5.05371 41.7725 3.66211L41.2231 2.85645C39.8193 0.817871 38.0981 0 35.2661 0L25.7324 0C20.7031 0 18.689 0.488281 15.6982 2.35596L10.7788 5.44434L6.22559 6.00586C2.06299 6.51855 0 8.42285 0 11.7676L0 13.8672C0 15.8569 1.17188 17.0532 3.11279 17.0532ZM12.6343 17.0532L31.3477 17.0532L31.3477 15.0879L12.6343 15.0879ZM9.70459 19.8364C12.0483 19.8364 13.8794 18.0054 13.8794 15.6616C13.8794 13.3179 12.0483 11.4868 9.70459 11.4868C7.36084 11.4868 5.52979 13.3179 5.52979 15.6616C5.52979 18.0054 7.36084 19.8364 9.70459 19.8364ZM9.70459 17.8711C8.45947 17.8711 7.49512 16.9067 7.49512 15.6616C7.49512 14.4165 8.45947 13.4521 9.70459 13.4521C10.9497 13.4521 11.9141 14.4165 11.9141 15.6616C11.9141 16.9067 10.9497 17.8711 9.70459 17.8711ZM34.2407 19.8364C36.5845 19.8364 38.4155 18.0054 38.4155 15.6616C38.4155 13.3179 36.5845 11.4868 34.2407 11.4868C31.897 11.4868 30.0659 13.3179 30.0659 15.6616C30.0659 18.0054 31.897 19.8364 34.2407 19.8364ZM34.2407 17.8711C32.9956 17.8711 32.0312 16.9067 32.0312 15.6616C32.0312 14.4165 32.9956 13.4521 34.2407 13.4521C35.4858 13.4521 36.4502 14.4165 36.4502 15.6616C36.4502 16.9067 35.4858 17.8711 34.2407 17.8711Z" fill="#5ac8f5"/>
 </g>
</svg>
