<?xml version="1.0" encoding="UTF-8"?>
<!--Generator: Apple Native CoreSVG 175.5-->
<!DOCTYPE svg
PUBLIC "-//W3C//DTD SVG 1.1//EN"
       "http://www.w3.org/Graphics/SVG/1.1/DTD/svg11.dtd">
<svg version="1.1" xmlns="http://www.w3.org/2000/svg" xmlns:xlink="http://www.w3.org/1999/xlink" width="31.2744" height="28.3081">
 <g>
  <rect height="28.3081" opacity="0" width="31.2744" x="0" y="0"/>
  <path d="M0.891113 28.2959C1.37939 28.2959 1.79443 27.9297 1.79443 27.4536L1.79443 0.842285C1.79443 0.366211 1.37939 0 0.891113 0C0.415039 0 0 0.366211 0 0.842285L0 27.4536C0 27.9297 0.415039 28.2959 0.891113 28.2959ZM6.54297 25.8789L10.791 25.8789C12.5732 25.8789 13.5376 24.8901 13.5376 23.0713L13.5376 5.22461C13.5376 3.40576 12.5732 2.4292 10.791 2.4292L6.54297 2.4292C4.77295 2.4292 3.79639 3.40576 3.79639 5.22461L3.79639 23.0713C3.79639 24.8901 4.77295 25.8789 6.54297 25.8789ZM6.65283 24.0356C5.99365 24.0356 5.63965 23.6694 5.63965 23.0469L5.63965 5.24902C5.63965 4.62646 5.99365 4.27246 6.65283 4.27246L10.6934 4.27246C11.3403 4.27246 11.6943 4.62646 11.6943 5.24902L11.6943 23.0469C11.6943 23.6694 11.3403 24.0356 10.6934 24.0356ZM18.6279 28.2959C19.104 28.2959 19.519 27.9297 19.519 27.4536L19.519 0.842285C19.519 0.366211 19.104 0 18.6279 0C18.1519 0 17.7246 0.366211 17.7246 0.842285L17.7246 27.4536C17.7246 27.9297 18.1519 28.2959 18.6279 28.2959ZM24.2798 21.5454L28.5278 21.5454C30.3101 21.5454 31.2744 20.5688 31.2744 18.75L31.2744 9.5459C31.2744 7.72705 30.3101 6.75049 28.5278 6.75049L24.2798 6.75049C22.4976 6.75049 21.5332 7.72705 21.5332 9.5459L21.5332 18.75C21.5332 20.5688 22.4976 21.5454 24.2798 21.5454ZM24.3774 19.7021C23.7305 19.7021 23.3765 19.3481 23.3765 18.7256L23.3765 9.58252C23.3765 8.94775 23.7305 8.59375 24.3774 8.59375L28.418 8.59375C29.0771 8.59375 29.4312 8.94775 29.4312 9.58252L29.4312 18.7256C29.4312 19.3481 29.0771 19.7021 28.418 19.7021Z" fill="#5ac8f5"/>
 </g>
</svg>
