<?xml version="1.0" encoding="UTF-8"?>
<!--Generator: Apple Native CoreSVG 175.5-->
<!DOCTYPE svg
PUBLIC "-//W3C//DTD SVG 1.1//EN"
       "http://www.w3.org/Graphics/SVG/1.1/DTD/svg11.dtd">
<svg version="1.1" xmlns="http://www.w3.org/2000/svg" xmlns:xlink="http://www.w3.org/1999/xlink" width="30.6885" height="17.8589">
 <g>
  <rect height="17.8589" opacity="0" width="30.6885" x="0" y="0"/>
  <path d="M6.93359 2.53906L23.6084 2.53906C24.1577 2.53906 24.5972 2.11182 24.5972 1.5625C24.5972 1.00098 24.1577 0.57373 23.6084 0.57373L6.93359 0.57373C6.37207 0.57373 5.94482 1.00098 5.94482 1.5625C5.94482 2.11182 6.37207 2.53906 6.93359 2.53906ZM9.97314 9.92432L26.6602 9.92432C27.2095 9.92432 27.6367 9.48486 27.6367 8.93555C27.6367 8.38623 27.2095 7.95898 26.6602 7.95898L9.97314 7.95898C9.42383 7.95898 8.99658 8.38623 8.99658 8.93555C8.99658 9.48486 9.42383 9.92432 9.97314 9.92432ZM13.0249 17.2974L29.7119 17.2974C30.2612 17.2974 30.6885 16.8701 30.6885 16.3208C30.6885 15.7593 30.2612 15.332 29.7119 15.332L13.0249 15.332C12.4756 15.332 12.0483 15.7593 12.0483 16.3208C12.0483 16.8701 12.4756 17.2974 13.0249 17.2974ZM1.53809 3.08838C2.39258 3.08838 3.07617 2.40479 3.07617 1.5625C3.07617 0.708008 2.39258 0.0244141 1.53809 0.0244141C0.683594 0.0244141 0 0.708008 0 1.5625C0 2.40479 0.683594 3.08838 1.53809 3.08838ZM4.58984 10.4736C5.43213 10.4736 6.12793 9.79004 6.12793 8.93555C6.12793 8.08105 5.43213 7.39746 4.58984 7.39746C3.73535 7.39746 3.05176 8.08105 3.05176 8.93555C3.05176 9.79004 3.73535 10.4736 4.58984 10.4736ZM7.62939 17.8589C8.48389 17.8589 9.16748 17.1631 9.16748 16.3208C9.16748 15.4663 8.48389 14.7827 7.62939 14.7827C6.78711 14.7827 6.09131 15.4663 6.09131 16.3208C6.09131 17.1631 6.78711 17.8589 7.62939 17.8589Z" fill="#5ac8f5"/>
 </g>
</svg>
