<?xml version="1.0" encoding="UTF-8"?>
<!--Generator: Apple Native CoreSVG 175.5-->
<!DOCTYPE svg
PUBLIC "-//W3C//DTD SVG 1.1//EN"
       "http://www.w3.org/Graphics/SVG/1.1/DTD/svg11.dtd">
<svg version="1.1" xmlns="http://www.w3.org/2000/svg" xmlns:xlink="http://www.w3.org/1999/xlink" width="22.4731" height="22.4976">
 <g>
  <rect height="22.4976" opacity="0" width="22.4731" x="0" y="0"/>
  <path d="M3.83301 22.4976L18.6401 22.4976C21.2036 22.4976 22.4731 21.228 22.4731 18.7134L22.4731 3.80859C22.4731 1.29395 21.2036 0.0244141 18.6401 0.0244141L3.83301 0.0244141C1.28174 0.0244141 0 1.28174 0 3.80859L0 18.7134C0 21.2402 1.28174 22.4976 3.83301 22.4976ZM3.85742 20.5322C2.63672 20.5322 1.96533 19.8853 1.96533 18.6157L1.96533 3.90625C1.96533 2.63672 2.63672 1.98975 3.85742 1.98975L18.6157 1.98975C19.8242 1.98975 20.5078 2.63672 20.5078 3.90625L20.5078 18.6157C20.5078 19.8853 19.8242 20.5322 18.6157 20.5322ZM4.98047 16.2231L10.0342 16.2231C10.4126 16.2231 10.7056 15.9302 10.7056 15.4907C10.7056 15.0391 10.4126 14.7827 10.0342 14.7827L6.48193 14.7827L6.48193 14.6973L8.87451 11.9141C9.77783 10.8643 10.4492 9.98535 10.4492 8.76465C10.4492 7.06787 9.2041 5.98145 7.2876 5.98145C5.83496 5.98145 4.54102 6.90918 4.23584 8.1543C4.19922 8.31299 4.1748 8.44727 4.1748 8.59375C4.1748 9.0332 4.43115 9.32617 4.8584 9.32617C5.2124 9.32617 5.39551 9.11865 5.5542 8.75244C5.85938 7.83691 6.48193 7.38525 7.34863 7.38525C8.3374 7.38525 8.97217 7.99561 8.97217 8.89893C8.97217 9.69238 8.3374 10.376 7.75146 11.0596L4.52881 14.8438C4.3457 15.0513 4.27246 15.2588 4.27246 15.5029C4.27246 15.9424 4.54102 16.2231 4.98047 16.2231ZM13.0859 16.2231L18.1396 16.2231C18.5181 16.2231 18.811 15.9302 18.811 15.4907C18.811 15.0391 18.5181 14.7827 18.1396 14.7827L14.5874 14.7827L14.5874 14.6973L16.98 11.9141C17.8833 10.8643 18.5547 9.98535 18.5547 8.76465C18.5547 7.06787 17.3096 5.98145 15.3931 5.98145C13.9404 5.98145 12.6465 6.90918 12.3291 8.1543C12.3047 8.31299 12.2803 8.44727 12.2803 8.59375C12.2803 9.0332 12.5366 9.32617 12.9517 9.32617C13.3057 9.32617 13.4888 9.11865 13.6597 8.75244C13.9648 7.83691 14.5752 7.38525 15.4541 7.38525C16.4429 7.38525 17.0776 7.99561 17.0776 8.89893C17.0776 9.69238 16.4429 10.376 15.8569 11.0596L12.6343 14.8438C12.4512 15.0513 12.3657 15.2588 12.3657 15.5029C12.3657 15.9424 12.6465 16.2231 13.0859 16.2231Z" fill="#5ac8f5"/>
 </g>
</svg>
