<?xml version="1.0" encoding="UTF-8"?>
<!--Generator: Apple Native CoreSVG 175.5-->
<!DOCTYPE svg
PUBLIC "-//W3C//DTD SVG 1.1//EN"
       "http://www.w3.org/Graphics/SVG/1.1/DTD/svg11.dtd">
<svg version="1.1" xmlns="http://www.w3.org/2000/svg" xmlns:xlink="http://www.w3.org/1999/xlink" width="24.9023" height="24.9146">
 <g>
  <rect height="24.9146" opacity="0" width="24.9023" x="0" y="0"/>
  <path d="M12.4512 24.9023C19.2627 24.9023 24.9023 19.2505 24.9023 12.4512C24.9023 5.63965 19.2505 0 12.439 0C5.63965 0 0 5.63965 0 12.4512C0 19.2505 5.65186 24.9023 12.4512 24.9023ZM12.4512 22.8271C6.68945 22.8271 2.0874 18.2129 2.0874 12.4512C2.0874 6.68945 6.67725 2.0752 12.439 2.0752C18.2007 2.0752 22.8271 6.68945 22.8271 12.4512C22.8271 18.2129 18.2129 22.8271 12.4512 22.8271Z" fill="#5ac8f5" fill-opacity="0.5"/>
  <path d="M14.6118 9.2041C15.1855 8.1543 15.3564 7.20215 15.0024 6.4209C14.209 6.09131 13.3545 5.896 12.4512 5.896C10.5957 5.896 8.89893 6.70166 7.70264 7.95898C10.0098 7.09229 13.0249 7.9834 14.6118 9.2041ZM12.0117 12.3291C12.8662 11.5479 13.5986 10.7544 14.1357 9.97314C12.3535 8.58154 8.63037 7.67822 6.56738 9.57031C6.20117 10.3027 5.96924 11.1206 5.9082 11.9629C7.44629 10.9375 9.98535 11.499 12.0117 12.3291ZM7.99561 12.2681C7.1167 12.2559 6.37207 12.4634 5.92041 13.0371C6.15234 15.686 8.00781 17.9077 10.4858 18.689C9.28955 17.2852 8.05664 14.8682 7.99561 12.2681ZM11.7065 13.1836C10.791 12.7808 9.80225 12.4756 8.89893 12.3535C9.0332 15.7715 11.2427 18.6401 12.3047 19.0063C13.1958 19.0063 13.9038 18.8721 14.5752 18.6401C12.9883 17.688 11.8164 15.1733 11.7065 13.1836ZM15.7349 18.1152C17.6636 16.9678 18.9941 14.8438 18.9941 12.4512C18.9941 11.6943 18.8477 10.9619 18.6157 10.2905C18.1641 12.0239 16.8213 14.5264 13.8916 16.7847C14.4287 17.5415 15.0757 18.0542 15.7349 18.1152ZM13.4277 16.0156C17.1875 13.0615 18.0908 9.83887 17.9077 8.8623C17.4072 8.10547 16.7603 7.4707 16.0034 6.98242C16.2231 8.8623 14.6606 11.145 12.5977 13.0127C12.6343 14.0137 12.9517 15.1123 13.4277 16.0156Z" fill="#5ac8f5"/>
 </g>
</svg>
