<?xml version="1.0" encoding="UTF-8"?>
<!--Generator: Apple Native CoreSVG 175.5-->
<!DOCTYPE svg
PUBLIC "-//W3C//DTD SVG 1.1//EN"
       "http://www.w3.org/Graphics/SVG/1.1/DTD/svg11.dtd">
<svg version="1.1" xmlns="http://www.w3.org/2000/svg" xmlns:xlink="http://www.w3.org/1999/xlink" width="30.9326" height="20.6177">
 <g>
  <rect height="20.6177" opacity="0" width="30.9326" x="0" y="0"/>
  <path d="M0 19.5557C0 20.1904 0.402832 20.5933 1.0376 20.5933L1.77002 20.5933C2.39258 20.5933 2.80762 20.1904 2.80762 19.5557L2.80762 17.749C2.94189 17.7856 3.34473 17.8101 3.6377 17.8101L27.2949 17.8101C27.5879 17.8101 27.9907 17.7856 28.125 17.749L28.125 19.5557C28.125 20.1904 28.54 20.5933 29.1626 20.5933L29.895 20.5933C30.5298 20.5933 30.9326 20.1904 30.9326 19.5557L30.9326 12.2803C30.9326 9.94873 29.6387 8.66699 27.3071 8.66699L3.62549 8.66699C1.29395 8.66699 0 9.94873 0 12.2803ZM2.92969 6.92139L6.03027 6.92139L6.03027 5.16357C6.03027 4.02832 6.66504 3.40576 7.82471 3.40576L12.3779 3.40576C13.5254 3.40576 14.1602 4.02832 14.1602 5.16357L14.1602 6.92139L16.9312 6.92139L16.9312 5.16357C16.9312 4.02832 17.5659 3.40576 18.7866 3.40576L23.0591 3.40576C24.2798 3.40576 24.9146 4.02832 24.9146 5.16357L24.9146 6.92139L28.0273 6.92139L28.0273 3.41797C28.0273 1.15967 26.8066 0 24.6094 0L6.33545 0C4.13818 0 2.92969 1.15967 2.92969 3.41797Z" fill="#5ac8f5"/>
 </g>
</svg>
