<?xml version="1.0" encoding="UTF-8"?>
<!--Generator: Apple Native CoreSVG 175.5-->
<!DOCTYPE svg
PUBLIC "-//W3C//DTD SVG 1.1//EN"
       "http://www.w3.org/Graphics/SVG/1.1/DTD/svg11.dtd">
<svg version="1.1" xmlns="http://www.w3.org/2000/svg" xmlns:xlink="http://www.w3.org/1999/xlink" width="28.7842" height="22.4976">
 <g>
  <rect height="22.4976" opacity="0" width="28.7842" x="0" y="0"/>
  <path d="M0 16.3086L0 14.3433L13.4155 14.3433L13.4155 8.17871L0 8.17871L0 6.21338L13.4155 6.21338L13.4155 0.0244141L15.3809 0.0244141L15.3809 6.21338L28.7842 6.21338L28.7842 8.17871L15.3809 8.17871L15.3809 14.3433L28.7842 14.3433L28.7842 16.3086L15.3809 16.3086L15.3809 22.4976L13.4155 22.4976L13.4155 16.3086ZM3.83301 22.4976L24.9512 22.4976C27.5146 22.4976 28.7842 21.228 28.7842 18.7134L28.7842 3.79639C28.7842 1.28174 27.5146 0.0244141 24.9512 0.0244141L3.83301 0.0244141C1.28174 0.0244141 0 1.28174 0 3.79639L0 18.7134C0 21.228 1.28174 22.4976 3.83301 22.4976Z" fill="#5ac8f5"/>
 </g>
</svg>
