<?xml version="1.0" encoding="UTF-8"?>
<!--Generator: Apple Native CoreSVG 175.5-->
<!DOCTYPE svg
PUBLIC "-//W3C//DTD SVG 1.1//EN"
       "http://www.w3.org/Graphics/SVG/1.1/DTD/svg11.dtd">
<svg version="1.1" xmlns="http://www.w3.org/2000/svg" xmlns:xlink="http://www.w3.org/1999/xlink" width="24.9023" height="24.9146">
 <g>
  <rect height="24.9146" opacity="0" width="24.9023" x="0" y="0"/>
  <path d="M12.4512 24.9023C19.2627 24.9023 24.9023 19.2505 24.9023 12.4512C24.9023 5.63965 19.2505 0 12.439 0C5.63965 0 0 5.63965 0 12.4512C0 19.2505 5.65186 24.9023 12.4512 24.9023ZM12.4512 22.8271C6.68945 22.8271 2.0874 18.2129 2.0874 12.4512C2.0874 6.68945 6.67725 2.0752 12.439 2.0752C18.2007 2.0752 22.8271 6.68945 22.8271 12.4512C22.8271 18.2129 18.2129 22.8271 12.4512 22.8271ZM9.65576 17.981L15.9424 17.981C16.4062 17.981 16.748 17.6758 16.748 17.1875C16.748 16.6748 16.4062 16.3818 15.9424 16.3818L11.4868 16.3818L11.4868 16.2964L14.3799 13.208C15.4663 12.0483 16.2231 11.084 16.2231 9.729C16.2231 7.87354 14.7339 6.64062 12.4756 6.64062C10.7422 6.64062 9.2041 7.69043 8.81348 9.05762C8.76465 9.24072 8.74023 9.38721 8.74023 9.5459C8.74023 10.022 9.06982 10.3271 9.53369 10.3271C9.97314 10.3271 10.1929 10.0586 10.4004 9.7168C10.73 8.97217 11.3647 8.19092 12.561 8.19092C13.7207 8.19092 14.4897 8.8623 14.4897 9.87549C14.4897 10.7666 13.7329 11.5112 13.0249 12.2681L9.11865 16.4551C8.89893 16.687 8.80127 16.9312 8.80127 17.1875C8.80127 17.6758 9.11865 17.981 9.65576 17.981Z" fill="#5ac8f5"/>
 </g>
</svg>
