<?xml version="1.0" encoding="UTF-8"?>
<!--Generator: Apple Native CoreSVG 175.5-->
<!DOCTYPE svg
PUBLIC "-//W3C//DTD SVG 1.1//EN"
       "http://www.w3.org/Graphics/SVG/1.1/DTD/svg11.dtd">
<svg version="1.1" xmlns="http://www.w3.org/2000/svg" xmlns:xlink="http://www.w3.org/1999/xlink" width="24.9023" height="24.9146">
 <g>
  <rect height="24.9146" opacity="0" width="24.9023" x="0" y="0"/>
  <path d="M12.4512 24.9023C19.2627 24.9023 24.9023 19.2505 24.9023 12.4512C24.9023 5.63965 19.2505 0 12.439 0C5.63965 0 0 5.63965 0 12.4512C0 19.2505 5.65186 24.9023 12.4512 24.9023ZM5.99365 17.5903C5.54199 17.5903 5.24902 17.2974 5.24902 16.8457C5.24902 16.5894 5.33447 16.3818 5.52979 16.1621L8.8501 12.2681C9.44824 11.5601 10.1074 10.8643 10.1074 10.0342C10.1074 9.10645 9.46045 8.48389 8.43506 8.48389C7.54395 8.48389 6.90918 8.94775 6.5918 9.8877C6.4209 10.2661 6.23779 10.4858 5.87158 10.4858C5.43213 10.4858 5.16357 10.1807 5.16357 9.7168C5.16357 9.57031 5.18799 9.43604 5.2124 9.26514C5.54199 7.9834 6.87256 7.03125 8.37402 7.03125C10.3516 7.03125 11.6333 8.1543 11.6333 9.8999C11.6333 11.1572 10.9497 12.0728 10.0098 13.147L7.55615 16.0156L7.55615 16.1011L11.2061 16.1011C11.5967 16.1011 11.9019 16.3696 11.9019 16.8335C11.9019 17.2852 11.5967 17.5903 11.2061 17.5903ZM14.3555 17.5903C13.9038 17.5903 13.6108 17.2974 13.6108 16.8457C13.6108 16.5894 13.6963 16.3818 13.8916 16.1621L17.2119 12.2681C17.8101 11.5601 18.4692 10.8643 18.4692 10.0342C18.4692 9.10645 17.8101 8.48389 16.7969 8.48389C15.8936 8.48389 15.271 8.94775 14.9414 9.8877C14.7705 10.2661 14.5874 10.4858 14.2212 10.4858C13.7939 10.4858 13.5254 10.1807 13.5254 9.7168C13.5254 9.57031 13.5498 9.43604 13.5742 9.26514C13.9038 7.9834 15.2344 7.03125 16.7358 7.03125C18.7134 7.03125 19.9951 8.1543 19.9951 9.8999C19.9951 11.1572 19.2993 12.0728 18.3716 13.147L15.918 16.0156L15.918 16.1011L19.5557 16.1011C19.9585 16.1011 20.2637 16.3696 20.2637 16.8335C20.2637 17.2852 19.9585 17.5903 19.5557 17.5903Z" fill="#5ac8f5"/>
 </g>
</svg>
