<?xml version="1.0" encoding="UTF-8"?>
<!--Generator: Apple Native CoreSVG 175.5-->
<!DOCTYPE svg
PUBLIC "-//W3C//DTD SVG 1.1//EN"
       "http://www.w3.org/Graphics/SVG/1.1/DTD/svg11.dtd">
<svg version="1.1" xmlns="http://www.w3.org/2000/svg" xmlns:xlink="http://www.w3.org/1999/xlink" width="18.75" height="28.3813">
 <g>
  <rect height="28.3813" opacity="0" width="18.75" x="0" y="0"/>
  <path d="M0 20.5078C0 23.877 2.09961 26.0254 5.3833 26.0254C7.83691 26.0254 9.66797 24.9512 10.8276 22.876L11.9263 20.9106C14.502 16.1987 18.75 15.5884 18.75 9.53369C18.75 3.8208 15.0513 0 9.50928 0C3.83301 0 0 3.84521 0 9.58252ZM1.84326 20.3857L1.84326 9.58252C1.84326 4.93164 4.90723 1.84326 9.50928 1.84326C13.9526 1.84326 16.9067 4.93164 16.9067 9.53369C16.9067 14.5996 12.9395 15.4785 10.2783 20.0806L9.21631 21.8994C8.34961 23.4131 7.14111 24.1333 5.46875 24.1333C3.21045 24.1333 1.84326 22.7173 1.84326 20.3857ZM3.75977 16.9556C3.75977 18.2251 4.71191 19.0674 6.14014 19.0674C7.9834 19.0552 9.24072 17.4927 9.24072 15.5273C9.24072 12.0117 5.60303 11.4258 5.60303 8.94775C5.60303 7.03125 7.16553 5.61523 9.49707 5.61523C11.8652 5.61523 13.3911 7.15332 13.3911 9.50928C13.3911 10.0098 13.8062 10.437 14.3066 10.437C14.8071 10.437 15.2344 10.0098 15.2344 9.50928C15.2344 6.0791 12.9395 3.77197 9.49707 3.77197C6.06689 3.77197 3.75977 5.93262 3.75977 8.94775C3.75977 11.5967 6.26221 12.4634 6.26221 13.6475C6.26221 14.9658 3.75977 14.6729 3.75977 16.9556Z" fill="#5ac8f5"/>
 </g>
</svg>
