<?xml version="1.0" encoding="UTF-8"?>
<!--Generator: Apple Native CoreSVG 175.5-->
<!DOCTYPE svg
PUBLIC "-//W3C//DTD SVG 1.1//EN"
       "http://www.w3.org/Graphics/SVG/1.1/DTD/svg11.dtd">
<svg version="1.1" xmlns="http://www.w3.org/2000/svg" xmlns:xlink="http://www.w3.org/1999/xlink" width="34.6802" height="27.5024">
 <g>
  <rect height="27.5024" opacity="0" width="34.6802" x="0" y="0"/>
  <path d="M3.13721 22.229L14.4531 22.229L14.4531 20.2637L3.17383 20.2637C2.33154 20.2637 1.96533 19.9219 1.96533 19.0674L1.96533 5.13916C1.96533 4.27246 2.33154 3.94287 3.17383 3.94287L27.3193 3.94287C28.1494 3.94287 28.5156 4.27246 28.5156 5.13916L28.5156 16.2354L30.481 16.2354L30.481 5.10254C30.481 2.96631 29.4434 1.97754 27.356 1.97754L3.13721 1.97754C1.0498 1.97754 0 2.96631 0 5.10254L0 19.0918C0 21.2402 1.0498 22.229 3.13721 22.229ZM9.11865 26.3672L14.6484 26.3672C14.502 25.8179 14.4653 25.4028 14.4653 24.3896L9.11865 24.3896C8.58154 24.3896 8.12988 24.8291 8.12988 25.3784C8.12988 25.9277 8.58154 26.3672 9.11865 26.3672ZM18.7134 27.5024L32.0923 27.5024C33.8013 27.5024 34.6802 26.6357 34.6802 24.8901L34.6802 20.52C34.6802 18.7622 33.8013 17.8955 32.0923 17.8955L18.7134 17.8955C16.9678 17.8955 16.1255 18.7622 16.1255 20.4468L16.1255 24.8901C16.1255 26.6357 16.9678 27.5024 18.7134 27.5024ZM30.6641 23.3398C29.8828 23.3398 29.2603 22.7051 29.2603 21.9238C29.2603 21.1548 29.8828 20.5322 30.6641 20.5322C31.4331 20.5322 32.0557 21.1548 32.0557 21.9238C32.0557 22.7051 31.4331 23.3398 30.6641 23.3398Z" fill="#5ac8f5"/>
 </g>
</svg>
