<?xml version="1.0" encoding="UTF-8"?>
<!--Generator: Apple Native CoreSVG 175.5-->
<!DOCTYPE svg
PUBLIC "-//W3C//DTD SVG 1.1//EN"
       "http://www.w3.org/Graphics/SVG/1.1/DTD/svg11.dtd">
<svg version="1.1" xmlns="http://www.w3.org/2000/svg" xmlns:xlink="http://www.w3.org/1999/xlink" width="28.7842" height="22.4731">
 <g>
  <rect height="22.4731" opacity="0" width="28.7842" x="0" y="0"/>
  <path d="M3.83301 22.4731L13.5742 22.4731L13.5742 20.5078L3.85742 20.5078C2.63672 20.5078 1.96533 19.8608 1.96533 18.5913L1.96533 12.0728L0 12.0728L0 18.7012C0 21.2158 1.28174 22.4731 3.83301 22.4731ZM15.2466 22.4731L24.9512 22.4731C27.5146 22.4731 28.7842 21.2158 28.7842 18.7012L28.7842 12.0728L26.8188 12.0728L26.8188 18.5913C26.8188 19.8608 26.1353 20.5078 24.9268 20.5078L15.2466 20.5078ZM26.8188 10.4126L28.7842 10.4126L28.7842 3.78418C28.7842 1.26953 27.5146 0 24.9512 0L15.2466 0L15.2466 1.96533L24.9268 1.96533C26.1353 1.96533 26.8188 2.62451 26.8188 3.89404ZM0 10.4126L1.96533 10.4126L1.96533 3.89404C1.96533 2.62451 2.63672 1.96533 3.85742 1.96533L13.5742 1.96533L13.5742 0L3.83301 0C1.28174 0 0 1.26953 0 3.78418Z" fill="#5ac8f5" fill-opacity="0.5"/>
  <path d="M14.4043 14.7217C16.2964 14.7217 17.8711 13.147 17.8711 11.2305C17.8711 9.33838 16.2964 7.77588 14.4043 7.77588C12.4878 7.77588 10.9253 9.33838 10.9253 11.2305C10.9253 13.147 12.4878 14.7217 14.4043 14.7217Z" fill="#5ac8f5"/>
  <path d="M4.69971 3.6377C3.94287 3.6377 3.6377 3.95508 3.6377 4.73633L3.6377 10.4126L9.22852 10.4126C9.58252 8.21533 11.3525 6.45752 13.5742 6.10352L13.5742 3.6377ZM24.0845 3.6377L15.2466 3.6377L15.2466 6.10352C17.4316 6.45752 19.2017 8.21533 19.5557 10.4126L25.1587 10.4126L25.1587 4.73633C25.1587 3.95508 24.8535 3.6377 24.0845 3.6377ZM4.69971 18.8477L13.5742 18.8477L13.5742 16.3818C11.3525 16.0278 9.58252 14.2578 9.22852 12.0728L3.6377 12.0728L3.6377 17.749C3.6377 18.5303 3.94287 18.8477 4.69971 18.8477ZM24.0845 18.8477C24.8535 18.8477 25.1587 18.5303 25.1587 17.749L25.1587 12.0728L19.5557 12.0728C19.2017 14.2578 17.4316 16.0278 15.2466 16.3818L15.2466 18.8477Z" fill="#5ac8f5"/>
 </g>
</svg>
