<?xml version="1.0" encoding="UTF-8"?>
<!--Generator: Apple Native CoreSVG 175.5-->
<!DOCTYPE svg
PUBLIC "-//W3C//DTD SVG 1.1//EN"
       "http://www.w3.org/Graphics/SVG/1.1/DTD/svg11.dtd">
<svg version="1.1" xmlns="http://www.w3.org/2000/svg" xmlns:xlink="http://www.w3.org/1999/xlink" width="24.9023" height="24.9146">
 <g>
  <rect height="24.9146" opacity="0" width="24.9023" x="0" y="0"/>
  <path d="M12.4512 24.9023C19.2627 24.9023 24.9023 19.2505 24.9023 12.4512C24.9023 5.63965 19.2505 0 12.439 0C5.63965 0 0 5.63965 0 12.4512C0 19.2505 5.65186 24.9023 12.4512 24.9023ZM12.4512 22.8271C6.68945 22.8271 2.0874 18.2129 2.0874 12.4512C2.0874 6.68945 6.67725 2.0752 12.439 2.0752C18.2007 2.0752 22.8271 6.68945 22.8271 12.4512C22.8271 18.2129 18.2129 22.8271 12.4512 22.8271ZM10.1685 20.5566C12.0483 20.5566 13.562 19.043 13.562 17.1753C13.562 16.1865 13.147 15.3076 12.3657 14.6118C12.2437 14.502 12.2192 14.4287 12.2192 14.2456L12.2314 8.41064C12.2314 7.08008 11.3892 6.16455 10.1685 6.16455C8.93555 6.16455 8.10547 7.08008 8.10547 8.41064L8.10547 14.2456C8.10547 14.4287 8.08105 14.502 7.93457 14.6118C7.16553 15.3076 6.7627 16.1865 6.7627 17.1753C6.7627 19.043 8.27637 20.5566 10.1685 20.5566ZM10.1685 19.5679C8.82568 19.5679 7.77588 18.5059 7.77588 17.1753C7.77588 16.3696 8.14209 15.6494 8.81348 15.1978C9.0332 15.0635 9.10645 14.9292 9.10645 14.6484L9.10645 8.44727C9.10645 7.67822 9.52148 7.18994 10.1685 7.18994C10.791 7.18994 11.2061 7.67822 11.2061 8.44727L11.2061 14.6484C11.2061 14.9292 11.2793 15.0635 11.499 15.1978C12.1704 15.6494 12.5488 16.3696 12.5488 17.1753C12.5488 18.5059 11.4746 19.5679 10.1685 19.5679ZM10.1562 18.7622C11.0474 18.7622 11.7554 18.042 11.7554 17.1631C11.7554 16.5527 11.4014 16.04 10.8887 15.7593C10.6934 15.6616 10.6323 15.5762 10.6323 15.2832L10.6323 8.99658C10.6323 8.66699 10.4248 8.45947 10.1562 8.45947C9.8877 8.45947 9.69238 8.66699 9.69238 8.99658L9.69238 15.2832C9.69238 15.5762 9.63135 15.6616 9.41162 15.7593C8.92334 16.04 8.56934 16.5527 8.56934 17.1631C8.56934 18.0542 9.27734 18.7622 10.1562 18.7622ZM13.2324 6.49414C13.5986 6.49414 13.8672 6.18896 13.8672 5.85938L13.8672 4.45557C13.8672 4.11377 13.5986 3.83301 13.2324 3.83301C12.8784 3.83301 12.5977 4.11377 12.5977 4.45557L12.5977 5.85938C12.5977 6.20117 12.8784 6.49414 13.2324 6.49414ZM16.1499 7.70264C16.3818 7.94678 16.8091 7.94678 17.0532 7.70264L18.0298 6.71387C18.2617 6.46973 18.2739 6.05469 18.0176 5.81055C17.7734 5.56641 17.3828 5.56641 17.1509 5.81055L16.1499 6.81152C15.8936 7.05566 15.9058 7.4585 16.1499 7.70264ZM17.9688 11.2427L19.3604 11.2427C19.7144 11.2427 19.9951 10.9375 19.9951 10.6201C19.9951 10.2661 19.7144 9.97314 19.3604 9.97314L17.9688 9.97314C17.627 9.97314 17.3462 10.2661 17.3462 10.6201C17.3462 10.9375 17.627 11.2427 17.9688 11.2427ZM17.1509 15.4175C17.3828 15.6494 17.7734 15.6616 18.0176 15.4175C18.2739 15.1733 18.2739 14.7461 18.0298 14.5264L17.041 13.5254C16.7969 13.2812 16.394 13.2812 16.1499 13.5254C15.9058 13.7695 15.8936 14.1846 16.1499 14.4165ZM13.1226 13.8184C14.9658 13.8794 16.4551 12.4634 16.4551 10.6201C16.4551 8.81348 15.0269 7.38525 13.2324 7.38525C13.147 7.38525 13.0615 7.38525 12.9761 7.40967C13.0859 7.72705 13.1348 8.05664 13.1348 8.41064Z" fill="#5ac8f5"/>
 </g>
</svg>
