<?xml version="1.0" encoding="UTF-8"?>
<!--Generator: Apple Native CoreSVG 175.5-->
<!DOCTYPE svg
PUBLIC "-//W3C//DTD SVG 1.1//EN"
       "http://www.w3.org/Graphics/SVG/1.1/DTD/svg11.dtd">
<svg version="1.1" xmlns="http://www.w3.org/2000/svg" xmlns:xlink="http://www.w3.org/1999/xlink" width="32.3853" height="22.4243">
 <g>
  <rect height="22.4243" opacity="0" width="32.3853" x="0" y="0"/>
  <path d="M17.9932 22.3877C18.8232 22.3877 19.4214 21.7773 19.4214 20.9595L19.4214 16.2964L19.7754 16.2964C24.5117 16.2964 27.4902 17.4927 29.6265 21.4844C30.0537 22.2656 30.6152 22.3877 31.1279 22.3877C31.7749 22.3877 32.3853 21.8018 32.3853 20.752C32.3853 11.731 28.5522 6.10352 19.7754 6.10352L19.4214 6.10352L19.4214 1.48926C19.4214 0.671387 18.8232 0 17.9688 0C17.3706 0 16.9678 0.256348 16.3208 0.866699L6.68945 9.87549C6.23779 10.2905 6.06689 10.7544 6.06689 11.1938C6.06689 11.6089 6.23779 12.085 6.68945 12.5L16.3208 21.5942C16.9067 22.1436 17.395 22.3877 17.9932 22.3877ZM11.9263 22.3999C12.7563 22.3999 13.3545 21.8994 13.3545 21.3379L13.3545 20.9229L5.51758 13.6841C4.77295 13.0005 4.3335 12.1338 4.3335 11.2061C4.3335 10.2783 4.74854 9.41162 5.51758 8.71582L13.3545 1.53809L13.3545 1.12305C13.3545 0.537109 12.7563 0.012207 11.9019 0.012207C11.3037 0.012207 10.9009 0.268555 10.2539 0.878906L0.610352 9.8877C0.146484 10.3394 0 10.791 0 11.2061C0 11.6089 0.146484 12.0728 0.610352 12.5122L10.2539 21.6064C10.8276 22.1558 11.3281 22.3999 11.9263 22.3999Z" fill="#5ac8f5"/>
 </g>
</svg>
