<?xml version="1.0" encoding="UTF-8"?>
<!--Generator: Apple Native CoreSVG 175.5-->
<!DOCTYPE svg
PUBLIC "-//W3C//DTD SVG 1.1//EN"
       "http://www.w3.org/Graphics/SVG/1.1/DTD/svg11.dtd">
<svg version="1.1" xmlns="http://www.w3.org/2000/svg" xmlns:xlink="http://www.w3.org/1999/xlink" width="24.9023" height="24.9146">
 <g>
  <rect height="24.9146" opacity="0" width="24.9023" x="0" y="0"/>
  <path d="M12.4512 24.9023C19.2627 24.9023 24.9023 19.2505 24.9023 12.4512C24.9023 5.63965 19.2505 0 12.439 0C5.63965 0 0 5.63965 0 12.4512C0 19.2505 5.65186 24.9023 12.4512 24.9023ZM12.4512 22.8271C6.68945 22.8271 2.0874 18.2129 2.0874 12.4512C2.0874 6.68945 6.67725 2.0752 12.439 2.0752C18.2007 2.0752 22.8271 6.68945 22.8271 12.4512C22.8271 18.2129 18.2129 22.8271 12.4512 22.8271Z" fill="#5ac8f5" fill-opacity="0.5"/>
  <path d="M12.5977 19.7632C13.7085 19.7632 14.7827 19.6289 15.4785 19.397C15.9912 19.2383 16.272 18.9209 16.272 18.5059C16.272 18.103 15.9668 17.7979 15.564 17.7979C15.4663 17.7979 15.3198 17.8345 15.1855 17.8711C14.3799 18.0542 13.7207 18.1763 12.8052 18.1763C9.21631 18.1763 6.97021 16.0034 6.97021 12.5122C6.97021 9.0332 9.22852 6.67725 12.561 6.67725C15.8203 6.67725 18.0054 8.71582 18.0054 11.7798C18.0054 13.6719 17.395 14.8804 16.5039 14.8804C15.918 14.8804 15.625 14.5752 15.625 13.9893L15.625 9.48486C15.625 8.98438 15.3076 8.64258 14.8071 8.64258C14.3555 8.64258 14.0503 9.00879 14.0503 9.30176L14.0503 9.5459C13.5986 9.021 12.854 8.64258 12.0728 8.64258C10.2051 8.64258 8.87451 10.2417 8.87451 12.4878C8.87451 14.7583 10.2051 16.3696 12.1094 16.3696C13.0249 16.3696 13.8062 15.9424 14.2822 15.1978C14.624 15.918 15.3687 16.3696 16.333 16.3696C18.2983 16.3696 19.6045 14.4897 19.6045 11.731C19.6045 7.80029 16.7358 5.10254 12.5732 5.10254C8.26416 5.10254 5.29785 8.10547 5.29785 12.4756C5.29785 16.8457 8.22754 19.7632 12.5977 19.7632ZM12.3901 14.7339C11.3525 14.7339 10.7056 13.8672 10.7056 12.4512C10.7056 11.0474 11.3647 10.1685 12.4023 10.1685C13.4521 10.1685 14.1235 11.0229 14.1235 12.4146C14.1235 13.8428 13.4399 14.7339 12.3901 14.7339Z" fill="#5ac8f5"/>
 </g>
</svg>
