<?xml version="1.0" encoding="UTF-8"?>
<!--Generator: Apple Native CoreSVG 175.5-->
<!DOCTYPE svg
PUBLIC "-//W3C//DTD SVG 1.1//EN"
       "http://www.w3.org/Graphics/SVG/1.1/DTD/svg11.dtd">
<svg version="1.1" xmlns="http://www.w3.org/2000/svg" xmlns:xlink="http://www.w3.org/1999/xlink" width="33.6621" height="31.1485">
 <g>
  <rect height="31.1485" opacity="0" width="33.6621" x="0" y="0"/>
  <path d="M4.17124 10.3191C4.56186 10.3923 4.98911 10.1482 5.06235 9.72096C5.1478 9.30592 4.89145 8.9153 4.46421 8.81764L0.936373 8.06081C0.484713 7.96315 0.0696741 8.25612 0.00863891 8.69557C-0.0523963 9.0984 0.216158 9.48903 0.61899 9.57448ZM5.40415 6.25417C5.70932 6.55934 6.1976 6.55934 6.49057 6.25417C6.78354 5.94899 6.79575 5.47292 6.49057 5.16774L3.9271 2.61647C3.60971 2.29909 3.14585 2.31129 2.84067 2.61647C2.53549 2.92165 2.52329 3.38551 2.84067 3.7029ZM9.94516 5.04567C10.3602 4.96022 10.6532 4.53297 10.5555 4.14235L9.79868 0.614517C9.70102 0.187271 9.29819-0.069077 8.88315 0.0163722C8.46811 0.101821 8.17514 0.504653 8.2728 0.9319L9.02963 4.44752C9.12729 4.85036 9.53012 5.14333 9.94516 5.04567ZM14.6449 26.9207C18.4535 30.7293 23.1898 30.4973 26.62 27.0672C29.3665 24.3206 29.9159 21.4763 28.744 18.034C28.1336 16.093 27.1082 14.0423 25.8631 11.7229C25.3626 10.7708 24.7645 9.52565 24.3617 9.11061C23.8856 8.64674 23.2386 8.68336 22.7503 9.17165C22.201 9.72096 22.2254 10.3801 22.6405 11.6008L23.971 15.324C24.1175 15.7146 24.0809 15.9588 23.9466 16.1052C23.7635 16.2761 23.5438 16.3006 23.2386 15.9954L14.181 6.93776C13.6805 6.43727 12.8504 6.43727 12.3377 6.93776C11.825 7.45045 11.825 8.28053 12.3377 8.79323L18.8075 15.263C18.4901 15.4094 18.1605 15.5925 17.8309 15.8245L10.3236 8.31715C9.81088 7.80446 8.98081 7.80446 8.46811 8.31715C7.95542 8.81764 7.95542 9.65993 8.46811 10.1604L15.89 17.5823C15.6336 17.8753 15.4017 18.1804 15.182 18.4978L8.39487 11.7107C7.88217 11.2102 7.0521 11.2102 6.5394 11.7107C6.02671 12.2234 6.02671 13.0535 6.5394 13.5662L13.9124 20.9392C13.766 21.3543 13.6683 21.7693 13.5829 22.1599L8.4559 17.033C7.94321 16.5203 7.11313 16.5203 6.60044 17.033C6.09995 17.5335 6.09995 18.3757 6.60044 18.8762ZM20.9315 9.34254L18.5267 6.93776C18.014 6.43727 17.1717 6.43727 16.6712 6.93776C16.6468 6.96217 16.6346 6.97438 16.6224 7.011L21.0536 11.4544C20.9071 10.6975 20.846 10.0017 20.9315 9.34254ZM30.9535 27.0794C33.7 24.3206 34.2494 21.4641 33.0897 18.0217C32.4671 16.093 31.4417 14.0545 30.1966 11.7229C29.7083 10.7708 29.098 9.52565 28.683 9.12282C28.2191 8.65895 27.5843 8.68336 27.0838 9.17165C26.9251 9.33034 26.8031 9.52565 26.7298 9.73317C26.9984 10.2337 27.2547 10.7464 27.5233 11.2346C28.7074 13.4807 29.745 15.5925 30.3431 17.5701C31.6859 21.7083 30.8802 25.1751 27.7918 28.239C27.2669 28.7761 26.7054 29.2278 26.1195 29.6184C27.8529 29.3743 29.5252 28.4954 30.9535 27.0794Z" fill="#5ac8f5"/>
 </g>
</svg>
