<?xml version="1.0" encoding="UTF-8"?>
<!--Generator: Apple Native CoreSVG 175.5-->
<!DOCTYPE svg
PUBLIC "-//W3C//DTD SVG 1.1//EN"
       "http://www.w3.org/Graphics/SVG/1.1/DTD/svg11.dtd">
<svg version="1.1" xmlns="http://www.w3.org/2000/svg" xmlns:xlink="http://www.w3.org/1999/xlink" width="29.6997" height="21.3013">
 <g>
  <rect height="21.3013" opacity="0" width="29.6997" x="0" y="0"/>
  <path d="M9.38721 21.2891L24.5605 21.2891C27.6245 21.2891 29.6997 19.104 29.6997 16.3696C29.6997 13.9648 27.9907 11.9629 25.708 11.499C25.5249 8.52051 23.0957 6.10352 20.0562 6.10352C18.0664 6.10352 16.3452 7.09229 15.2954 8.64258C14.7705 8.47168 14.2944 8.38623 13.7451 8.38623C11.4014 8.38623 9.47266 10.0952 9.13086 12.3779C6.70166 12.4512 4.78516 14.4287 4.78516 16.8213C4.78516 19.3115 6.62842 21.2891 9.38721 21.2891ZM3.58887 14.9292C4.24805 12.6465 5.82275 11.2305 7.99561 10.8154C8.89893 7.99561 11.2549 6.604 13.9526 6.604C14.2578 6.604 14.5386 6.64062 14.7949 6.67725C15.8569 5.11475 17.4927 4.35791 19.5801 4.35791C19.165 3.24707 17.9077 2.27051 15.9546 2.27051C15.3809 2.27051 14.917 2.38037 14.4043 2.53906C13.3301 0.976562 11.6333 0 9.68018 0C6.66504 0 4.1748 2.40479 3.9917 5.3833C1.68457 5.87158 0 7.86133 0 10.2539C0 12.4023 1.30615 14.2578 3.58887 14.9292Z" fill="#5ac8f5"/>
 </g>
</svg>
