<?xml version="1.0" encoding="UTF-8"?>
<!--Generator: Apple Native CoreSVG 175.5-->
<!DOCTYPE svg
PUBLIC "-//W3C//DTD SVG 1.1//EN"
       "http://www.w3.org/Graphics/SVG/1.1/DTD/svg11.dtd">
<svg version="1.1" xmlns="http://www.w3.org/2000/svg" xmlns:xlink="http://www.w3.org/1999/xlink" width="31.2744" height="28.3081">
 <g>
  <rect height="28.3081" opacity="0" width="31.2744" x="0" y="0"/>
  <path d="M12.6465 28.2959C13.1226 28.2959 13.5376 27.9297 13.5376 27.4536L13.5376 0.842285C13.5376 0.366211 13.1226 0 12.6465 0C12.1704 0 11.7432 0.366211 11.7432 0.842285L11.7432 27.4536C11.7432 27.9297 12.1704 28.2959 12.6465 28.2959ZM30.3711 28.2959C30.8472 28.2959 31.2744 27.9297 31.2744 27.4536L31.2744 0.842285C31.2744 0.366211 30.8472 0 30.3711 0C29.895 0 29.48 0.366211 29.48 0.842285L29.48 27.4536C29.48 27.9297 29.895 28.2959 30.3711 28.2959Z" fill="#5ac8f5"/>
  <path d="M2.74658 25.8789L6.99463 25.8789C8.77686 25.8789 9.74121 24.8901 9.74121 23.0713L9.74121 5.22461C9.74121 3.40576 8.77686 2.4292 6.99463 2.4292L2.74658 2.4292C0.964355 2.4292 0 3.40576 0 5.22461L0 23.0713C0 24.8901 0.964355 25.8789 2.74658 25.8789ZM20.4834 21.5454L24.7192 21.5454C26.5015 21.5454 27.478 20.5688 27.478 18.75L27.478 9.5459C27.478 7.72705 26.5015 6.75049 24.7192 6.75049L20.4834 6.75049C18.7012 6.75049 17.7246 7.72705 17.7246 9.5459L17.7246 18.75C17.7246 20.5688 18.7012 21.5454 20.4834 21.5454Z" fill="#5ac8f5" fill-opacity="0.5"/>
 </g>
</svg>
