<?xml version="1.0" encoding="UTF-8"?>
<!--Generator: Apple Native CoreSVG 175.5-->
<!DOCTYPE svg
PUBLIC "-//W3C//DTD SVG 1.1//EN"
       "http://www.w3.org/Graphics/SVG/1.1/DTD/svg11.dtd">
<svg version="1.1" xmlns="http://www.w3.org/2000/svg" xmlns:xlink="http://www.w3.org/1999/xlink" width="22.9248" height="31.5308">
 <g>
  <rect height="31.5308" opacity="0" width="22.9248" x="0" y="0"/>
  <path d="M6.26221 8.5083L0.292969 14.4409C-0.0976562 14.8438-0.0976562 15.4907 0.292969 15.8936C0.695801 16.2842 1.34277 16.2964 1.74561 15.8936L6.26221 11.377ZM14.1357 31.5186C20.3003 31.5186 22.9248 30.1636 22.9248 26.8433L22.9248 5.65186C22.9248 2.0874 19.6899 0 14.1357 0C8.59375 0 5.34668 2.0874 5.34668 5.65186L5.34668 26.8433C5.34668 30.1636 7.9834 31.5186 14.1357 31.5186ZM14.1357 29.4922C9.42383 29.4922 7.38525 28.6987 7.38525 26.7456L7.38525 5.65186C7.38525 3.36914 9.87549 2.03857 14.1357 2.03857C18.4082 2.03857 20.8862 3.36914 20.8862 5.65186L20.8862 26.7456C20.8862 28.6987 18.8599 29.4922 14.1357 29.4922ZM14.1479 13.1104C15.2344 13.1104 17.0898 13.1958 17.7002 13.1958C18.6279 13.1958 19.0186 12.8418 19.104 11.8896L19.2993 9.59473C19.458 7.83691 18.2251 7.12891 14.1479 7.12891C10.0586 7.12891 8.82568 7.83691 8.98438 9.59473L9.17969 11.8896C9.26514 12.8418 9.66797 13.1958 10.5835 13.1958C11.2061 13.1958 12.9883 13.1104 14.1479 13.1104ZM14.1479 26.1353C18.2495 26.1353 19.5068 25.5249 19.2505 23.7305L19.0918 22.6196C18.8965 21.1548 17.6758 20.6665 14.1479 20.6665C10.6079 20.6665 9.38721 21.1548 9.19189 22.6196L9.0332 23.7305C8.77686 25.5249 10.0342 26.1353 14.1479 26.1353Z" fill="#5ac8f5"/>
 </g>
</svg>
