<?xml version="1.0" encoding="UTF-8"?>
<!--Generator: Apple Native CoreSVG 175.5-->
<!DOCTYPE svg
PUBLIC "-//W3C//DTD SVG 1.1//EN"
       "http://www.w3.org/Graphics/SVG/1.1/DTD/svg11.dtd">
<svg version="1.1" xmlns="http://www.w3.org/2000/svg" xmlns:xlink="http://www.w3.org/1999/xlink" width="19.9707" height="24.646">
 <g>
  <rect height="24.646" opacity="0" width="19.9707" x="0" y="0"/>
  <path d="M9.98535 24.646C10.1807 24.646 10.4858 24.5728 10.791 24.4141C17.7368 20.7764 19.9707 18.9575 19.9707 14.5752L19.9707 5.37109C19.9707 4.11377 19.4336 3.71094 18.4082 3.28369C16.98 2.69775 12.4146 1.0376 10.9985 0.549316C10.6689 0.439453 10.3271 0.378418 9.98535 0.378418C9.64355 0.378418 9.30176 0.45166 8.98438 0.549316C7.55615 1.01318 2.99072 2.70996 1.5625 3.28369C0.549316 3.69873 0 4.11377 0 5.37109L0 14.5752C0 18.9575 2.35596 20.5688 9.17969 24.4141C9.49707 24.585 9.79004 24.646 9.98535 24.646ZM8.61816 18.0176C8.20312 18.0176 7.86133 17.8589 7.54395 17.4316L4.47998 13.6719C4.29688 13.4277 4.18701 13.147 4.18701 12.8784C4.18701 12.3169 4.61426 11.8652 5.17578 11.8652C5.51758 11.8652 5.78613 11.9873 6.09131 12.3901L8.56934 15.5884L13.7817 7.21436C14.0137 6.83594 14.3311 6.65283 14.6606 6.65283C15.1855 6.65283 15.686 7.01904 15.686 7.58057C15.686 7.86133 15.5396 8.14209 15.3809 8.38623L9.64355 17.4316C9.38721 17.8223 9.0332 18.0176 8.61816 18.0176Z" fill="#5ac8f5"/>
 </g>
</svg>
