<?xml version="1.0" encoding="UTF-8"?>
<!--Generator: Apple Native CoreSVG 175.5-->
<!DOCTYPE svg
PUBLIC "-//W3C//DTD SVG 1.1//EN"
       "http://www.w3.org/Graphics/SVG/1.1/DTD/svg11.dtd">
<svg version="1.1" xmlns="http://www.w3.org/2000/svg" xmlns:xlink="http://www.w3.org/1999/xlink" width="22.8516" height="21.228">
 <g>
  <rect height="21.228" opacity="0" width="22.8516" x="0" y="0"/>
  <path d="M1.11084 21.2036C1.42822 21.2036 1.69678 21.0815 1.9165 20.874L11.5845 11.4258C11.8164 11.1938 11.9385 10.9131 11.9385 10.6079C11.9385 10.2905 11.8164 9.98535 11.5845 9.79004L1.9043 0.32959C1.69678 0.12207 1.42822 0 1.11084 0C0.476074 0 0 0.488281 0 1.12305C0 1.41602 0.12207 1.70898 0.317383 1.9165L9.87549 11.2549L9.87549 9.94873L0.317383 19.2993C0.12207 19.5068 0 19.7876 0 20.0928C0 20.7275 0.476074 21.2036 1.11084 21.2036ZM12.0239 21.2036C12.3413 21.2036 12.6099 21.0815 12.8174 20.874L22.4854 11.4258C22.7173 11.1938 22.8516 10.9131 22.8516 10.6079C22.8516 10.2905 22.7173 9.98535 22.4854 9.79004L12.8174 0.32959C12.5977 0.12207 12.3413 0 12.0239 0C11.3892 0 10.9009 0.488281 10.9009 1.12305C10.9009 1.41602 11.0352 1.70898 11.2305 1.9165L20.7764 11.2549L20.7764 9.94873L11.2305 19.2993C11.0352 19.5068 10.9009 19.7876 10.9009 20.0928C10.9009 20.7275 11.3892 21.2036 12.0239 21.2036Z" fill="#5ac8f5"/>
 </g>
</svg>
