<?xml version="1.0" encoding="UTF-8"?>
<!--Generator: Apple Native CoreSVG 175.5-->
<!DOCTYPE svg
PUBLIC "-//W3C//DTD SVG 1.1//EN"
       "http://www.w3.org/Graphics/SVG/1.1/DTD/svg11.dtd">
<svg version="1.1" xmlns="http://www.w3.org/2000/svg" xmlns:xlink="http://www.w3.org/1999/xlink" width="24.9023" height="24.9146">
 <g>
  <rect height="24.9146" opacity="0" width="24.9023" x="0" y="0"/>
  <path d="M12.4512 24.9023C19.2627 24.9023 24.9023 19.2505 24.9023 12.4512C24.9023 5.63965 19.2505 0 12.439 0C5.63965 0 0 5.63965 0 12.4512C0 19.2505 5.65186 24.9023 12.4512 24.9023Z" fill="#5ac8f5" fill-opacity="0.25"/>
  <path d="M8.34961 17.8833C6.17676 17.8833 4.74854 15.8081 4.74854 12.4512C4.74854 9.09424 6.17676 7.01904 8.34961 7.01904C10.5103 7.01904 11.9507 9.09424 11.9507 12.4512C11.9507 15.8081 10.5103 17.8833 8.34961 17.8833ZM8.34961 16.3452C9.55811 16.3452 10.2905 14.8682 10.2905 12.4512C10.2905 10.0342 9.5459 8.55713 8.34961 8.55713C7.15332 8.55713 6.40869 10.0342 6.40869 12.4512C6.40869 14.8682 7.15332 16.3452 8.34961 16.3452ZM14.1968 17.5903C13.7451 17.5903 13.4644 17.2974 13.4644 16.8457C13.4644 16.5894 13.5376 16.3696 13.7451 16.1621L17.0532 12.2559C17.6514 11.5601 18.3105 10.8521 18.3105 10.0342C18.3105 9.10645 17.6636 8.48389 16.6504 8.48389C15.7471 8.48389 15.1123 8.93555 14.7949 9.8877C14.6362 10.2661 14.4409 10.4736 14.0747 10.4736C13.6353 10.4736 13.3667 10.1685 13.3667 9.7168C13.3667 9.57031 13.3911 9.42383 13.4277 9.26514C13.7573 7.9834 15.0879 7.01904 16.5894 7.01904C18.5669 7.01904 19.8364 8.14209 19.8364 9.8999C19.8364 11.1572 19.1528 12.0605 18.2129 13.147L15.7593 16.0034L15.7593 16.1011L19.4092 16.1011C19.812 16.1011 20.1172 16.3574 20.1172 16.8335C20.1172 17.2852 19.812 17.5903 19.4092 17.5903Z" fill="#5ac8f5"/>
 </g>
</svg>
