<?xml version="1.0" encoding="UTF-8"?>
<!--Generator: Apple Native CoreSVG 175.5-->
<!DOCTYPE svg
PUBLIC "-//W3C//DTD SVG 1.1//EN"
       "http://www.w3.org/Graphics/SVG/1.1/DTD/svg11.dtd">
<svg version="1.1" xmlns="http://www.w3.org/2000/svg" xmlns:xlink="http://www.w3.org/1999/xlink" width="28.3813" height="28.9673">
 <g>
  <rect height="28.9673" opacity="0" width="28.3813" x="0" y="0"/>
  <path d="M5.32227 19.7876C8.23975 19.7876 10.6445 17.3828 10.6445 14.4653C10.6445 11.5601 8.23975 9.15527 5.32227 9.15527C2.38037 9.15527 0 11.5601 0 14.4653C0 17.3828 2.38037 19.7876 5.32227 19.7876ZM14.1846 10.6323C17.1021 10.6323 19.5068 8.22754 19.5068 5.31006C19.5068 2.39258 17.1021 0 14.1846 0C11.2549 0 8.8623 2.39258 8.8623 5.31006C8.8623 8.22754 11.2549 10.6323 14.1846 10.6323ZM23.0713 19.7876C25.9766 19.7876 28.3813 17.3828 28.3813 14.4653C28.3813 11.5601 25.9766 9.15527 23.0713 9.15527C20.1294 9.15527 17.7368 11.5601 17.7368 14.4653C17.7368 17.3828 20.1294 19.7876 23.0713 19.7876ZM14.1846 28.9429C17.1021 28.9429 19.5068 26.5381 19.5068 23.6206C19.5068 20.7153 17.1021 18.3105 14.1846 18.3105C11.2549 18.3105 8.8623 20.7153 8.8623 23.6206C8.8623 26.5381 11.2549 28.9429 14.1846 28.9429Z" fill="#5ac8f5"/>
 </g>
</svg>
