<?xml version="1.0" encoding="UTF-8"?>
<!--Generator: Apple Native CoreSVG 175.5-->
<!DOCTYPE svg
PUBLIC "-//W3C//DTD SVG 1.1//EN"
       "http://www.w3.org/Graphics/SVG/1.1/DTD/svg11.dtd">
<svg version="1.1" xmlns="http://www.w3.org/2000/svg" xmlns:xlink="http://www.w3.org/1999/xlink" width="24.9023" height="24.9146">
 <g>
  <rect height="24.9146" opacity="0" width="24.9023" x="0" y="0"/>
  <path d="M12.4512 24.9023C19.2627 24.9023 24.9023 19.2505 24.9023 12.4512C24.9023 5.63965 19.2505 0 12.439 0C5.63965 0 0 5.63965 0 12.4512C0 19.2505 5.65186 24.9023 12.4512 24.9023ZM12.4512 22.8271C6.68945 22.8271 2.0874 18.2129 2.0874 12.4512C2.0874 6.68945 6.67725 2.0752 12.439 2.0752C18.2007 2.0752 22.8271 6.68945 22.8271 12.4512C22.8271 18.2129 18.2129 22.8271 12.4512 22.8271ZM5.54199 16.1621C6.04248 16.1621 6.29883 15.8691 6.29883 15.3809L6.29883 13.9893L6.73828 13.1592L7.92236 15.5518C8.10547 15.9424 8.3252 16.1621 8.72803 16.1621C9.08203 16.1621 9.42383 15.8813 9.42383 15.4541C9.42383 15.2466 9.24072 14.8193 9.14307 14.6362L7.87354 12.1704L9.00879 10.1562C9.14307 9.91211 9.26514 9.69238 9.26514 9.39941C9.26514 9.04541 8.99658 8.72803 8.59375 8.72803C8.17871 8.72803 7.9834 9.00879 7.8125 9.36279L6.37207 12.085L6.29883 12.085L6.29883 9.50928C6.29883 9.0332 6.03027 8.72803 5.52979 8.72803C5.05371 8.72803 4.78516 9.04541 4.78516 9.50928L4.78516 15.3809C4.78516 15.8203 5.00488 16.1621 5.54199 16.1621ZM10.9985 16.1499C11.499 16.1499 11.7554 15.8691 11.7554 15.3687L11.7554 13.7695L12.439 13.7695C13.8062 13.7695 14.5386 12.6587 14.5386 11.3159C14.5386 9.91211 13.8306 8.83789 12.5488 8.83789L10.9985 8.83789C10.498 8.83789 10.2417 9.13086 10.2417 9.63135L10.2417 15.3687C10.2417 15.8569 10.5103 16.1499 10.9985 16.1499ZM11.7554 12.6099L11.7554 10.022L12.146 10.022C12.854 10.022 13.0371 10.6079 13.0371 11.3159C13.0371 12.0239 12.8418 12.6099 12.1338 12.6099ZM16.272 16.1621C16.8091 16.1621 17.0288 15.8203 17.0288 15.3564L17.0288 13.0127L18.5913 13.0127L18.5913 15.3564C18.5913 15.8691 18.8477 16.1621 19.3359 16.1621C19.8242 16.1621 20.105 15.9058 20.105 15.3564L20.105 9.53369C20.105 9.00879 19.8486 8.72803 19.3359 8.72803C18.8599 8.72803 18.5913 9.021 18.5913 9.53369L18.5913 11.7798L17.0288 11.7798L17.0288 9.53369C17.0288 9.0332 16.7725 8.72803 16.272 8.72803C15.7593 8.72803 15.5151 9.021 15.5151 9.53369L15.5151 15.3564C15.5151 15.8813 15.7593 16.1621 16.272 16.1621Z" fill="#5ac8f5"/>
 </g>
</svg>
