<?xml version="1.0" encoding="UTF-8"?>
<!--Generator: Apple Native CoreSVG 175.5-->
<!DOCTYPE svg
PUBLIC "-//W3C//DTD SVG 1.1//EN"
       "http://www.w3.org/Graphics/SVG/1.1/DTD/svg11.dtd">
<svg version="1.1" xmlns="http://www.w3.org/2000/svg" xmlns:xlink="http://www.w3.org/1999/xlink" width="22.4731" height="22.4976">
 <g>
  <rect height="22.4976" opacity="0" width="22.4731" x="0" y="0"/>
  <path d="M3.83301 22.4976L18.6401 22.4976C21.2036 22.4976 22.4731 21.228 22.4731 18.7134L22.4731 3.80859C22.4731 1.29395 21.2036 0.0244141 18.6401 0.0244141L3.83301 0.0244141C1.28174 0.0244141 0 1.28174 0 3.80859L0 18.7134C0 21.2402 1.28174 22.4976 3.83301 22.4976ZM3.85742 20.5322C2.63672 20.5322 1.96533 19.8853 1.96533 18.6157L1.96533 3.90625C1.96533 2.63672 2.63672 1.98975 3.85742 1.98975L18.6157 1.98975C19.8242 1.98975 20.5078 2.63672 20.5078 3.90625L20.5078 18.6157C20.5078 19.8853 19.8242 20.5322 18.6157 20.5322ZM10.9985 13.7695C11.6211 13.7695 11.9873 13.3789 11.9873 12.9028C11.9873 12.854 11.9873 12.793 11.9873 12.7563C11.9873 12.0728 12.3901 11.6333 13.2324 11.0718C14.4165 10.2905 15.2588 9.58252 15.2588 8.11768C15.2588 6.09131 13.4521 4.99268 11.377 4.99268C9.28955 4.99268 7.91016 5.99365 7.56836 7.1167C7.50732 7.31201 7.4707 7.50732 7.4707 7.71484C7.4707 8.26416 7.89795 8.55713 8.30078 8.55713C8.72803 8.55713 8.98438 8.36182 9.2041 8.06885L9.42383 7.77588C9.85107 7.06787 10.498 6.65283 11.3037 6.65283C12.4146 6.65283 13.1348 7.2876 13.1348 8.21533C13.1348 9.04541 12.6221 9.44824 11.5601 10.1929C10.6812 10.8032 10.022 11.4502 10.022 12.6465C10.022 12.6953 10.022 12.7563 10.022 12.8052C10.022 13.4399 10.376 13.7695 10.9985 13.7695ZM10.9741 17.4072C11.6821 17.4072 12.2925 16.8457 12.2925 16.1377C12.2925 15.4297 11.6943 14.8682 10.9741 14.8682C10.2539 14.8682 9.65576 15.4419 9.65576 16.1377C9.65576 16.8335 10.2661 17.4072 10.9741 17.4072Z" fill="#5ac8f5"/>
 </g>
</svg>
