<?xml version="1.0" encoding="UTF-8"?>
<!--Generator: Apple Native CoreSVG 175.5-->
<!DOCTYPE svg
PUBLIC "-//W3C//DTD SVG 1.1//EN"
       "http://www.w3.org/Graphics/SVG/1.1/DTD/svg11.dtd">
<svg version="1.1" xmlns="http://www.w3.org/2000/svg" xmlns:xlink="http://www.w3.org/1999/xlink" width="24.9023" height="29.6485">
 <g>
  <rect height="29.6485" opacity="0" width="24.9023" x="0" y="0"/>
  <path d="M0 14.8181C0 21.6297 5.65186 27.2693 12.4512 27.2693C19.2627 27.2693 24.9023 21.6297 24.9023 14.8181C24.9023 8.81228 20.52 3.72195 14.8071 2.5989L14.8071 0.865506C14.8071-0.0011928 14.209-0.233126 13.5498 0.242948L9.65576 2.96512C9.09424 3.35574 9.08203 3.94168 9.65576 4.34451L13.5376 7.07889C14.209 7.56717 14.8071 7.33523 14.8071 6.45633L14.8071 4.72293C19.4214 5.77273 22.8149 9.8743 22.8149 14.8181C22.8149 20.5799 18.2129 25.1941 12.4512 25.1941C6.68945 25.1941 2.06299 20.5799 2.0752 14.8181C2.0874 11.3513 3.77197 8.28738 6.37207 6.43191C6.87256 6.05349 7.03125 5.47976 6.72607 4.96707C6.4209 4.46658 5.74951 4.3323 5.2124 4.74734C2.0752 7.03006 0 10.7166 0 14.8181Z" fill="#5ac8f5" fill-opacity="0.5"/>
  <path d="M8.58154 19.9573C10.5591 19.9573 11.8286 18.6512 11.8286 16.6492C11.8286 14.8792 10.6079 13.6219 8.95996 13.6219C7.8125 13.6219 6.9458 14.1956 6.61621 15.0501L6.67725 15.1355C6.67725 15.0623 6.67725 15.0501 6.67725 14.989C6.67725 12.9749 7.49512 11.6443 8.75244 11.6443C9.38721 11.6443 9.79004 11.8885 10.0708 12.3523C10.2783 12.6697 10.4736 12.804 10.8398 12.804C11.2061 12.804 11.4624 12.5232 11.4624 12.1326C11.4624 11.9617 11.4258 11.803 11.377 11.6687C11.0474 10.8509 10.1074 10.2283 8.81348 10.2283C6.48193 10.2283 5.18799 12.0594 5.18799 15.3308C5.18799 16.6248 5.3833 17.6746 5.81055 18.4314C6.34766 19.4446 7.34863 19.9573 8.58154 19.9573ZM8.52051 18.6023C7.51953 18.6023 6.79932 17.8211 6.79932 16.7224C6.79932 15.6482 7.50732 14.9036 8.52051 14.9036C9.53369 14.9036 10.2417 15.636 10.2417 16.7224C10.2417 17.8821 9.57031 18.6023 8.52051 18.6023ZM16.626 19.9573C18.6523 19.9573 19.9829 18.0408 19.9829 15.1111C19.9829 12.157 18.6523 10.2161 16.626 10.2161C14.5874 10.2161 13.269 12.157 13.269 15.1233C13.269 18.053 14.5996 19.9573 16.626 19.9573ZM16.626 18.4803C15.5396 18.4803 14.856 17.1985 14.856 15.1111C14.856 12.9871 15.5273 11.6931 16.626 11.6931C17.7124 11.6931 18.3838 12.9749 18.3838 15.1111C18.3838 17.1985 17.7002 18.4803 16.626 18.4803Z" fill="#5ac8f5"/>
 </g>
</svg>
