<?xml version="1.0" encoding="UTF-8"?>
<!--Generator: Apple Native CoreSVG 175.5-->
<!DOCTYPE svg
PUBLIC "-//W3C//DTD SVG 1.1//EN"
       "http://www.w3.org/Graphics/SVG/1.1/DTD/svg11.dtd">
<svg version="1.1" xmlns="http://www.w3.org/2000/svg" xmlns:xlink="http://www.w3.org/1999/xlink" width="28.7842" height="20.8618">
 <g>
  <rect height="20.8618" opacity="0" width="28.7842" x="0" y="0"/>
  <path d="M4.95605 17.7246C5.32227 17.7246 5.65186 17.4438 5.65186 17.0654L5.65186 11.8652C5.65186 11.499 5.32227 11.1938 4.95605 11.1938C4.57764 11.1938 4.28467 11.499 4.28467 11.8652L4.28467 17.0654C4.28467 17.4438 4.57764 17.7246 4.95605 17.7246ZM7.82471 17.7246C8.20312 17.7246 8.52051 17.4438 8.52051 17.0654L8.52051 11.8652C8.52051 11.499 8.20312 11.1938 7.82471 11.1938C7.44629 11.1938 7.16553 11.499 7.16553 11.8652L7.16553 17.0654C7.16553 17.4438 7.44629 17.7246 7.82471 17.7246ZM10.6934 17.7246C11.0718 17.7246 11.3892 17.4438 11.3892 17.0654L11.3892 11.8652C11.3892 11.499 11.0718 11.1938 10.6934 11.1938C10.3149 11.1938 10.0342 11.499 10.0342 11.8652L10.0342 17.0654C10.0342 17.4438 10.3149 17.7246 10.6934 17.7246ZM14.4165 17.7979C14.9048 17.7856 15.332 17.395 15.332 16.8701C15.332 16.3696 14.9048 15.9546 14.4165 15.9546C13.8916 15.9546 13.4766 16.3696 13.4766 16.8701C13.4766 17.395 13.8916 17.7856 14.4165 17.7979ZM14.4165 15.3809C14.9048 15.3687 15.332 14.978 15.332 14.4531C15.332 13.9526 14.9048 13.5254 14.4165 13.5254C13.8916 13.5254 13.4766 13.9526 13.4766 14.4531C13.4766 14.978 13.8916 15.3687 14.4165 15.3809ZM14.4165 12.9517C14.9048 12.9395 15.332 12.5366 15.332 12.0117C15.332 11.5234 14.9048 11.0962 14.4165 11.0962C13.8916 11.0962 13.4766 11.5234 13.4766 12.0117C13.4766 12.5488 13.8916 12.9395 14.4165 12.9517ZM17.9688 17.7246C18.3472 17.7246 18.6646 17.4438 18.6646 17.0654L18.6646 11.8652C18.6646 11.499 18.3472 11.1938 17.9688 11.1938C17.5903 11.1938 17.3096 11.499 17.3096 11.8652L17.3096 17.0654C17.3096 17.4438 17.5903 17.7246 17.9688 17.7246ZM20.8374 17.7246C21.2158 17.7246 21.5454 17.4438 21.5454 17.0654L21.5454 11.8652C21.5454 11.499 21.2158 11.1938 20.8374 11.1938C20.4712 11.1938 20.1782 11.499 20.1782 11.8652L20.1782 17.0654C20.1782 17.4438 20.4712 17.7246 20.8374 17.7246ZM23.7183 17.7246C24.0845 17.7246 24.4141 17.4438 24.4141 17.0654L24.4141 11.8652C24.4141 11.499 24.0845 11.1938 23.7183 11.1938C23.3398 11.1938 23.0469 11.499 23.0469 11.8652L23.0469 17.0654C23.0469 17.4438 23.3398 17.7246 23.7183 17.7246ZM3.83301 20.8618L24.9512 20.8618C27.5024 20.8618 28.7842 19.6045 28.7842 17.0776L28.7842 9.7168C28.7842 8.04443 28.3936 6.97021 27.3804 5.95703L23.3276 1.77002C22.1436 0.549316 21.1426 0.0244141 19.519 0.0244141L9.26514 0.0244141C7.65381 0.0244141 6.64062 0.549316 5.46875 1.77002L1.40381 5.95703C0.402832 6.97021 0 8.04443 0 9.7168L0 17.0776C0 19.6045 1.28174 20.8618 3.83301 20.8618ZM3.85742 18.8965C2.63672 18.8965 1.96533 18.2495 1.96533 16.98L1.96533 11.145C1.96533 10.376 2.30713 10.022 3.05176 10.022L25.7324 10.022C26.4771 10.022 26.8188 10.376 26.8188 11.145L26.8188 16.98C26.8188 18.2495 26.1475 18.8965 24.9268 18.8965ZM2.88086 8.25195C2.45361 8.25195 2.33154 7.86133 2.58789 7.59277L7.06787 2.85645C7.82471 2.05078 8.36182 1.79443 9.36279 1.79443L19.4214 1.79443C20.4224 1.79443 20.9717 2.05078 21.7163 2.85645L26.2085 7.59277C26.4526 7.86133 26.3428 8.25195 25.9033 8.25195Z" fill="#5ac8f5"/>
 </g>
</svg>
