<?xml version="1.0" encoding="UTF-8"?>
<!--Generator: Apple Native CoreSVG 175.5-->
<!DOCTYPE svg
PUBLIC "-//W3C//DTD SVG 1.1//EN"
       "http://www.w3.org/Graphics/SVG/1.1/DTD/svg11.dtd">
<svg version="1.1" xmlns="http://www.w3.org/2000/svg" xmlns:xlink="http://www.w3.org/1999/xlink" width="19.9707" height="24.646">
 <g>
  <rect height="24.646" opacity="0" width="19.9707" x="0" y="0"/>
  <path d="M9.98535 24.646C10.1807 24.646 10.4858 24.5728 10.791 24.4141C17.7368 20.7764 19.9707 18.9575 19.9707 14.5752L19.9707 5.37109C19.9707 4.11377 19.4336 3.71094 18.4082 3.28369C16.98 2.69775 12.4146 1.0376 10.9985 0.549316C10.6689 0.439453 10.3271 0.378418 9.98535 0.378418C9.64355 0.378418 9.30176 0.45166 8.98438 0.549316C7.55615 1.01318 2.99072 2.70996 1.5625 3.28369C0.549316 3.69873 0 4.11377 0 5.37109L0 14.5752C0 18.9575 2.35596 20.5688 9.17969 24.4141C9.49707 24.585 9.79004 24.646 9.98535 24.646Z" fill="#5ac8f5"/>
 </g>
</svg>
