<?xml version="1.0" encoding="UTF-8"?>
<!--Generator: Apple Native CoreSVG 175.5-->
<!DOCTYPE svg
PUBLIC "-//W3C//DTD SVG 1.1//EN"
       "http://www.w3.org/Graphics/SVG/1.1/DTD/svg11.dtd">
<svg version="1.1" xmlns="http://www.w3.org/2000/svg" xmlns:xlink="http://www.w3.org/1999/xlink" width="24.9023" height="24.9146">
 <g>
  <rect height="24.9146" opacity="0" width="24.9023" x="0" y="0"/>
  <path d="M12.4512 18.4448C15.7227 18.4448 18.4448 15.7227 18.4448 12.4512C18.4448 9.16748 15.7227 6.44531 12.4512 6.44531C9.17969 6.44531 6.45752 9.16748 6.45752 12.4512C6.45752 15.7227 9.17969 18.4448 12.4512 18.4448ZM12.4512 16.6016C10.1929 16.6016 8.30078 14.6973 8.30078 12.4512C8.30078 10.1685 10.1807 8.28857 12.4512 8.28857C14.7095 8.28857 16.6016 10.1807 16.6016 12.4512C16.6016 14.7095 14.7217 16.6016 12.4512 16.6016ZM22.7173 8.28857L22.7173 6.45752L12.5122 6.44531L12.5122 8.28857ZM21.228 19.3848L22.7783 18.4082L17.7368 9.66797L16.1499 10.5835ZM10.9009 23.4009L12.5122 24.2676L17.5781 15.5273L15.9912 14.5996ZM2.18506 16.6016L2.18506 18.4326L12.3901 18.4448L12.3901 16.6016ZM3.67432 5.49316L2.12402 6.48193L7.16553 15.2222L8.75244 14.3066ZM14.0015 1.47705L12.3901 0.622559L7.32422 9.36279L8.91113 10.2905ZM12.4512 24.9023C19.2627 24.9023 24.9023 19.2505 24.9023 12.4512C24.9023 5.63965 19.2505 0 12.439 0C5.63965 0 0 5.63965 0 12.4512C0 19.2505 5.65186 24.9023 12.4512 24.9023ZM12.4512 22.8271C6.68945 22.8271 2.0874 18.2129 2.0874 12.4512C2.0874 6.68945 6.67725 2.0752 12.439 2.0752C18.2007 2.0752 22.8271 6.68945 22.8271 12.4512C22.8271 18.2129 18.2129 22.8271 12.4512 22.8271Z" fill="#5ac8f5"/>
 </g>
</svg>
