<?xml version="1.0" encoding="UTF-8"?>
<!--Generator: Apple Native CoreSVG 175.5-->
<!DOCTYPE svg
PUBLIC "-//W3C//DTD SVG 1.1//EN"
       "http://www.w3.org/Graphics/SVG/1.1/DTD/svg11.dtd">
<svg version="1.1" xmlns="http://www.w3.org/2000/svg" xmlns:xlink="http://www.w3.org/1999/xlink" width="24.9023" height="24.9146">
 <g>
  <rect height="24.9146" opacity="0" width="24.9023" x="0" y="0"/>
  <path d="M12.4512 24.9023C19.2627 24.9023 24.9023 19.2505 24.9023 12.4512C24.9023 5.63965 19.2505 0 12.439 0C5.63965 0 0 5.63965 0 12.4512C0 19.2505 5.65186 24.9023 12.4512 24.9023ZM12.4512 22.8271C6.68945 22.8271 2.0874 18.2129 2.0874 12.4512C2.0874 6.68945 6.67725 2.0752 12.439 2.0752C18.2007 2.0752 22.8271 6.68945 22.8271 12.4512C22.8271 18.2129 18.2129 22.8271 12.4512 22.8271Z" fill="#5ac8f5" fill-opacity="0.5"/>
  <path d="M5.98145 17.4316L11.0229 17.4316C11.4136 17.4316 11.7065 17.1387 11.7065 16.6992C11.7065 16.2476 11.4136 15.9912 11.0229 15.9912L7.48291 15.9912L7.48291 15.9058L9.87549 13.1226C10.7788 12.0728 11.4502 11.1938 11.4502 9.97314C11.4502 8.27637 10.2051 7.18994 8.28857 7.18994C6.83594 7.18994 5.54199 8.11768 5.22461 9.36279C5.2002 9.52148 5.17578 9.65576 5.17578 9.80225C5.17578 10.2417 5.43213 10.5347 5.84717 10.5347C6.20117 10.5347 6.38428 10.3271 6.54297 9.96094C6.86035 9.04541 7.4707 8.59375 8.34961 8.59375C9.33838 8.59375 9.97314 9.2041 9.97314 10.1074C9.97314 10.9009 9.33838 11.5845 8.75244 12.2681L5.52979 16.0522C5.34668 16.2598 5.26123 16.4673 5.26123 16.7114C5.26123 17.1509 5.54199 17.4316 5.98145 17.4316ZM16.5161 17.7124C18.6401 17.7124 20.0928 16.4917 20.0928 14.7217C20.0928 13.4766 19.3237 12.4634 18.0176 12.1948L18.0176 12.1216C19.1406 11.8164 19.7266 10.9375 19.7266 9.87549C19.7266 8.28857 18.4204 7.18994 16.5405 7.18994C14.6729 7.18994 13.3545 8.28857 13.3545 9.87549C13.3545 10.9375 13.9404 11.792 15.0757 12.1216L15.0757 12.1948C13.7451 12.4634 13.0005 13.4888 13.0005 14.7339C13.0005 16.5161 14.4043 17.7124 16.5161 17.7124ZM16.5527 16.4429C15.3931 16.4429 14.5508 15.6982 14.5508 14.624C14.5508 13.5742 15.3931 12.8052 16.5527 12.8052C17.7368 12.8052 18.5547 13.562 18.5547 14.624C18.5547 15.6982 17.7124 16.4429 16.5527 16.4429ZM16.5405 11.6333C15.5884 11.6333 14.917 10.9497 14.917 10.022C14.917 9.09424 15.5884 8.45947 16.5405 8.45947C17.5049 8.45947 18.1763 9.09424 18.1763 10.022C18.1763 10.9497 17.4927 11.6333 16.5405 11.6333Z" fill="#5ac8f5"/>
 </g>
</svg>
