<?xml version="1.0" encoding="UTF-8"?>
<!--Generator: Apple Native CoreSVG 175.5-->
<!DOCTYPE svg
PUBLIC "-//W3C//DTD SVG 1.1//EN"
       "http://www.w3.org/Graphics/SVG/1.1/DTD/svg11.dtd">
<svg version="1.1" xmlns="http://www.w3.org/2000/svg" xmlns:xlink="http://www.w3.org/1999/xlink" width="22.4731" height="22.4976">
 <g>
  <rect height="22.4976" opacity="0" width="22.4731" x="0" y="0"/>
  <path d="M3.83301 22.4976L18.6401 22.4976C21.2036 22.4976 22.4731 21.228 22.4731 18.7134L22.4731 3.80859C22.4731 1.29395 21.2036 0.0244141 18.6401 0.0244141L3.83301 0.0244141C1.28174 0.0244141 0 1.28174 0 3.80859L0 18.7134C0 21.2402 1.28174 22.4976 3.83301 22.4976Z" fill="#5ac8f5" fill-opacity="0.25"/>
  <path d="M11.2671 17.2363C8.65479 17.2363 6.87256 15.5762 6.87256 13.1592C6.87256 11.792 7.43408 10.4126 8.72803 8.69141C9.375 7.82471 10.144 6.86035 10.9741 5.77393C11.1572 5.52979 11.4136 5.26123 11.8164 5.26123C12.4268 5.26123 12.6709 5.65186 12.6709 6.03027C12.6709 6.27441 12.561 6.46973 12.3779 6.72607C11.7554 7.51953 10.9375 8.54492 10.2905 9.375C9.8999 9.8877 9.74121 10.1074 9.60693 10.3271L9.74121 10.3638C10.1562 9.93652 11.0352 9.60693 11.8774 9.60693C14.0747 9.60693 15.6494 11.1572 15.6494 13.2324C15.6494 15.5762 13.8672 17.2363 11.2671 17.2363ZM11.2671 15.6494C12.7686 15.6494 13.8794 14.6362 13.8794 13.3301C13.8794 11.9995 12.7686 11.0352 11.2671 11.0352C9.77783 11.0352 8.65479 11.9995 8.65479 13.3057C8.65479 14.6362 9.79004 15.6494 11.2671 15.6494Z" fill="#5ac8f5"/>
 </g>
</svg>
