<?xml version="1.0" encoding="UTF-8"?>
<!--Generator: Apple Native CoreSVG 175.5-->
<!DOCTYPE svg
PUBLIC "-//W3C//DTD SVG 1.1//EN"
       "http://www.w3.org/Graphics/SVG/1.1/DTD/svg11.dtd">
<svg version="1.1" xmlns="http://www.w3.org/2000/svg" xmlns:xlink="http://www.w3.org/1999/xlink" width="23.8561" height="31.6528">
 <g>
  <rect height="31.6528" opacity="0" width="23.8561" x="0" y="0"/>
  <path d="M15.4821 24.0356C20.1696 24.0356 22.257 22.9736 22.257 20.2759L22.257 4.43115C22.257 1.64795 19.6935 0 15.4821 0C11.2462 0 8.68274 1.64795 8.68274 4.43115L8.68274 20.2759C8.68274 22.9736 10.7824 24.0356 15.4821 24.0356ZM15.4699 10.0464C14.6154 10.0464 13.1871 10.1196 12.7111 10.1196C11.9542 10.1196 11.6124 9.80225 11.5392 9.00879L11.3927 7.25098C11.2706 5.79834 12.2228 5.24902 15.4699 5.24902C18.7169 5.24902 19.6691 5.79834 19.547 7.25098L19.3883 9.00879C19.3273 9.80225 18.9733 10.1196 18.2286 10.1196C17.7404 10.1196 16.3732 10.0464 15.4699 10.0464ZM15.4699 20.1416C12.2228 20.1416 11.1852 19.6655 11.4293 18.1641L11.5514 17.3096C11.7467 16.1133 12.6744 15.7349 15.4699 15.7349C18.2653 15.7349 19.193 16.1133 19.3761 17.3096L19.5104 18.1641C19.7423 19.6655 18.7169 20.1416 15.4699 20.1416ZM21.2194 9.61914L22.7819 9.61914C23.3922 9.61914 23.8561 9.15527 23.8561 8.58154L23.8561 8.11768C23.8561 7.53174 23.3922 7.08008 22.7819 7.08008L21.2194 7.08008ZM9.72034 9.61914L9.72034 7.08008L8.15784 7.08008C7.54749 7.08008 7.08362 7.53174 7.08362 8.11768L7.08362 8.58154C7.08362 9.15527 7.54749 9.61914 8.15784 9.61914ZM6.08265 25.5371C7.33997 26.7944 9.04895 27.417 10.0988 27.417C10.6725 27.417 11.0631 27.0508 11.0631 26.5259C11.0631 26.0376 10.7213 25.647 9.96448 25.5371C9.02454 25.4395 8.14563 25 7.37659 24.2432C6.64417 23.4985 6.21692 22.5952 6.08265 21.5576C5.97278 20.874 5.70423 20.5933 5.10608 20.5933C4.56897 20.5933 4.14173 21.0083 4.22718 21.6675C4.38587 23.1567 5.02063 24.4751 6.08265 25.5371ZM3.0553 28.5767C4.92298 30.4565 7.30335 31.6406 9.89124 31.6406C10.5138 31.6406 10.941 31.2378 10.941 30.6641C10.941 30.1392 10.526 29.7974 9.8302 29.7485C7.82825 29.6265 5.87513 28.7964 4.34925 27.2827C2.83557 25.7568 2.0055 23.8159 1.88343 21.8018C1.82239 21.0205 1.50501 20.7153 0.894657 20.7153C0.418583 20.7153-0.0452844 21.0571 0.00354374 21.7285C0.162235 24.3164 1.16321 26.709 3.0553 28.5767Z" fill="#5ac8f5"/>
 </g>
</svg>
