<?xml version="1.0" encoding="UTF-8"?>
<!--Generator: Apple Native CoreSVG 175.5-->
<!DOCTYPE svg
PUBLIC "-//W3C//DTD SVG 1.1//EN"
       "http://www.w3.org/Graphics/SVG/1.1/DTD/svg11.dtd">
<svg version="1.1" xmlns="http://www.w3.org/2000/svg" xmlns:xlink="http://www.w3.org/1999/xlink" width="23.8525" height="24.0845">
 <g>
  <rect height="24.0845" opacity="0" width="23.8525" x="0" y="0"/>
  <path d="M0 9.74121C0 15.1123 4.37012 19.4824 9.74121 19.4824C11.8652 19.4824 13.8062 18.7988 15.4053 17.6514L21.4111 23.6694C21.6919 23.9502 22.0581 24.0845 22.4487 24.0845C23.2788 24.0845 23.8525 23.4619 23.8525 22.644C23.8525 22.2534 23.7061 21.8994 23.4497 21.6431L17.4805 15.6372C18.7378 14.0015 19.4824 11.9629 19.4824 9.74121C19.4824 4.37012 15.1123 0 9.74121 0C4.37012 0 0 4.37012 0 9.74121ZM2.0874 9.74121C2.0874 5.51758 5.51758 2.0874 9.74121 2.0874C13.9648 2.0874 17.395 5.51758 17.395 9.74121C17.395 13.9648 13.9648 17.395 9.74121 17.395C5.51758 17.395 2.0874 13.9648 2.0874 9.74121ZM5.18799 10.437L8.71582 10.437C8.87451 10.437 8.97217 10.5469 8.97217 10.7056L8.98438 14.1846C8.98438 14.9414 9.77783 15.0146 10.022 14.4775L13.7573 6.51855C14.0625 5.85938 13.5132 5.31006 12.854 5.61523L4.90723 9.38721C4.35791 9.64355 4.45557 10.437 5.18799 10.437Z" fill="#5ac8f5"/>
 </g>
</svg>
