<?xml version="1.0" encoding="UTF-8"?>
<!--Generator: Apple Native CoreSVG 175.5-->
<!DOCTYPE svg
PUBLIC "-//W3C//DTD SVG 1.1//EN"
       "http://www.w3.org/Graphics/SVG/1.1/DTD/svg11.dtd">
<svg version="1.1" xmlns="http://www.w3.org/2000/svg" xmlns:xlink="http://www.w3.org/1999/xlink" width="22.4731" height="22.4976">
 <g>
  <rect height="22.4976" opacity="0" width="22.4731" x="0" y="0"/>
  <path d="M3.83301 22.4976L18.6401 22.4976C21.2036 22.4976 22.4731 21.228 22.4731 18.7134L22.4731 3.80859C22.4731 1.29395 21.2036 0.0244141 18.6401 0.0244141L3.83301 0.0244141C1.28174 0.0244141 0 1.28174 0 3.80859L0 18.7134C0 21.2402 1.28174 22.4976 3.83301 22.4976ZM3.85742 20.5322C2.63672 20.5322 1.96533 19.8853 1.96533 18.6157L1.96533 3.90625C1.96533 2.63672 2.63672 1.98975 3.85742 1.98975L18.6157 1.98975C19.8242 1.98975 20.5078 2.63672 20.5078 3.90625L20.5078 18.6157C20.5078 19.8853 19.8242 20.5322 18.6157 20.5322Z" fill="#5ac8f5" fill-opacity="0.5"/>
  <path d="M9.8999 17.041C13.4155 17.041 15.4663 14.2822 15.4663 12.085C15.4663 11.5845 15.1855 11.2671 14.7461 11.2671C14.3555 11.2671 14.0747 11.499 13.9893 12.0605C13.7695 13.8428 12.3657 15.4663 10.376 15.4663L10.376 11.5723L12.9272 10.5103C13.208 10.3882 13.3301 10.2051 13.3301 9.93652C13.3301 9.59473 13.0981 9.35059 12.7563 9.35059C12.6587 9.35059 12.5488 9.375 12.4512 9.41162L10.376 10.2905L10.376 9.13086L12.9272 8.06885C13.208 7.93457 13.3301 7.76367 13.3301 7.49512C13.3301 7.15332 13.0981 6.89697 12.7563 6.89697C12.6587 6.89697 12.5488 6.93359 12.4512 6.97021L10.376 7.83691L10.376 6.28662C10.376 5.78613 10.083 5.46875 9.63135 5.46875C9.16748 5.46875 8.87451 5.78613 8.87451 6.28662L8.87451 8.45947L7.42188 9.08203C7.12891 9.2041 7.01904 9.375 7.01904 9.65576C7.01904 9.99756 7.25098 10.2417 7.59277 10.2417C7.69043 10.2417 7.78809 10.2173 7.89795 10.1685L8.87451 9.75342L8.87451 10.9131L7.42188 11.5234C7.12891 11.6455 7.01904 11.8286 7.01904 12.0972C7.01904 12.439 7.25098 12.6831 7.59277 12.6831C7.69043 12.6831 7.78809 12.6587 7.89795 12.6221L8.87451 12.1948L8.87451 16.0767C8.87451 16.6382 9.21631 17.041 9.8999 17.041Z" fill="#5ac8f5"/>
 </g>
</svg>
