<?xml version="1.0" encoding="UTF-8"?>
<!--Generator: Apple Native CoreSVG 175.5-->
<!DOCTYPE svg
PUBLIC "-//W3C//DTD SVG 1.1//EN"
       "http://www.w3.org/Graphics/SVG/1.1/DTD/svg11.dtd">
<svg version="1.1" xmlns="http://www.w3.org/2000/svg" xmlns:xlink="http://www.w3.org/1999/xlink" width="22.4731" height="22.4976">
 <g>
  <rect height="22.4976" opacity="0" width="22.4731" x="0" y="0"/>
  <path d="M3.83301 22.4976L18.6401 22.4976C21.2036 22.4976 22.4731 21.228 22.4731 18.7134L22.4731 3.80859C22.4731 1.29395 21.2036 0.0244141 18.6401 0.0244141L3.83301 0.0244141C1.28174 0.0244141 0 1.28174 0 3.80859L0 18.7134C0 21.2402 1.28174 22.4976 3.83301 22.4976ZM17.4683 12.6099C17.4683 15.5273 15.4907 17.4316 12.5488 17.4316L10.9009 17.4316C10.3149 17.4316 9.92432 17.0654 9.92432 16.5161C9.92432 15.979 10.3027 15.6128 10.8765 15.6128L12.5488 15.6128C14.3921 15.6128 15.6494 14.4165 15.6494 12.6099C15.6494 10.9375 14.4165 9.82666 12.561 9.82666L8.99658 9.82666L7.73926 9.77783L8.31299 10.1807L9.79004 11.6089C9.97314 11.792 10.083 12.0117 10.083 12.2803C10.083 12.8052 9.68018 13.2202 9.17969 13.2202C8.89893 13.2202 8.6792 13.1226 8.5083 12.9517L5.31006 9.68018C5.07812 9.44824 4.98047 9.17969 4.98047 8.91113C4.98047 8.63037 5.09033 8.36182 5.31006 8.12988L8.49609 4.89502C8.6792 4.71191 8.88672 4.62646 9.16748 4.62646C9.69238 4.62646 10.083 5.0293 10.083 5.56641C10.083 5.81055 9.97314 6.05469 9.79004 6.21338L8.55713 7.40967L7.72705 8.06885L8.99658 8.00781L12.561 8.00781C15.5029 8.00781 17.4683 9.83887 17.4683 12.6099Z" fill="#5ac8f5"/>
 </g>
</svg>
