<?xml version="1.0" encoding="UTF-8"?>
<!--Generator: Apple Native CoreSVG 175.5-->
<!DOCTYPE svg
PUBLIC "-//W3C//DTD SVG 1.1//EN"
       "http://www.w3.org/Graphics/SVG/1.1/DTD/svg11.dtd">
<svg version="1.1" xmlns="http://www.w3.org/2000/svg" xmlns:xlink="http://www.w3.org/1999/xlink" width="24.9023" height="24.9146">
 <g>
  <rect height="24.9146" opacity="0" width="24.9023" x="0" y="0"/>
  <path d="M12.4512 24.9023C19.2627 24.9023 24.9023 19.2505 24.9023 12.4512C24.9023 5.63965 19.2505 0 12.439 0C5.63965 0 0 5.63965 0 12.4512C0 19.2505 5.65186 24.9023 12.4512 24.9023ZM16.1987 6.90918C16.4185 7.04346 16.626 7.21436 16.8335 7.38525L7.36084 16.8335C7.17773 16.6382 7.01904 16.4429 6.88477 16.2109L8.1543 14.9414C8.3374 14.7705 8.3252 14.5142 8.1543 14.3433C7.9834 14.1846 7.73926 14.1846 7.58057 14.3433L6.43311 15.4541C5.96924 14.5508 5.70068 13.5376 5.70068 12.4634C5.70068 8.78906 8.76465 5.71289 12.439 5.71289C13.5132 5.71289 14.5386 5.99365 15.4541 6.45752L14.3311 7.58057C14.1846 7.75146 14.1724 7.99561 14.3311 8.1543C14.5142 8.3374 14.7583 8.3374 14.917 8.1543ZM13.9038 9.17969C14.0747 9.00879 14.0747 8.76465 13.9038 8.59375C13.7451 8.43506 13.4888 8.43506 13.3301 8.59375L12.4268 9.49707C12.2437 9.68018 12.2437 9.93652 12.4268 10.083C12.5854 10.2417 12.8296 10.2417 12.9883 10.083ZM11.9995 11.084C12.146 10.9375 12.146 10.6689 11.9995 10.5225C11.8286 10.3394 11.5723 10.3394 11.4136 10.5225L10.498 11.4258C10.3394 11.5967 10.3394 11.8408 10.498 12.0239C10.6445 12.1704 10.9253 12.1704 11.0718 12.0239ZM10.0708 13.0005C10.2173 12.8418 10.2295 12.5977 10.0708 12.439C9.91211 12.2559 9.66797 12.2559 9.48486 12.439L8.58154 13.3423C8.42285 13.501 8.42285 13.7695 8.58154 13.916C8.75244 14.0869 9.00879 14.0991 9.16748 13.916ZM18.4448 9.46045C18.9087 10.3638 19.1895 11.3892 19.1895 12.4634C19.1895 16.1377 16.1133 19.2139 12.439 19.2139C11.3647 19.2139 10.3516 18.9331 9.43604 18.4692L10.5713 17.3096C10.73 17.1509 10.73 16.9067 10.5713 16.7358C10.4004 16.5649 10.1562 16.5649 9.98535 16.7358L8.6792 18.0176C8.45947 17.8711 8.25195 17.7124 8.06885 17.5415L17.5171 8.08105C17.7002 8.28857 17.8589 8.49609 18.0054 8.71582L16.7603 9.96094C16.5771 10.1196 16.5771 10.376 16.7603 10.5469C16.9189 10.7178 17.1631 10.7178 17.334 10.5469ZM16.3208 11.5601C16.4795 11.4014 16.4795 11.1328 16.3208 10.9619C16.1499 10.8154 15.8936 10.8032 15.7349 10.9619L14.8315 11.9019C14.6851 12.0605 14.6729 12.3047 14.8315 12.4634C15.0024 12.6465 15.2344 12.6465 15.4175 12.4634ZM14.3921 13.4766C14.5752 13.3179 14.5752 13.0615 14.3921 12.8906C14.2456 12.7441 13.9771 12.7441 13.8306 12.8906L12.8906 13.8062C12.7441 13.9648 12.7441 14.2456 12.8906 14.3921C13.0737 14.5508 13.3179 14.5508 13.4888 14.3921ZM12.4756 15.4053C12.6465 15.2222 12.6465 14.9658 12.4756 14.8193C12.3169 14.6606 12.0728 14.6606 11.9141 14.8193L11.0107 15.7227C10.8276 15.8936 10.8276 16.1377 11.0107 16.3086C11.145 16.4673 11.4136 16.4673 11.5723 16.3086Z" fill="#5ac8f5"/>
 </g>
</svg>
