<?xml version="1.0" encoding="UTF-8"?>
<!--Generator: Apple Native CoreSVG 175.5-->
<!DOCTYPE svg
PUBLIC "-//W3C//DTD SVG 1.1//EN"
       "http://www.w3.org/Graphics/SVG/1.1/DTD/svg11.dtd">
<svg version="1.1" xmlns="http://www.w3.org/2000/svg" xmlns:xlink="http://www.w3.org/1999/xlink" width="16.7692" height="30.1147">
 <g>
  <rect height="30.1147" opacity="0" width="16.7692" x="0" y="0"/>
  <path d="M4.18379 28.3081C5.20918 28.3081 5.84395 27.7344 5.83174 26.7334L5.5876 13.0249C5.5876 12.5977 5.7707 12.2803 6.14912 12.1094C7.76045 11.4014 8.45625 10.6567 8.3708 8.52051L8.02901 1.02539C8.00459 0.488281 7.68721 0.183105 7.18672 0.183105C6.71065 0.183105 6.41768 0.500488 6.41768 1.0498L6.50313 8.3374C6.50313 8.76465 6.23457 9.0332 5.83174 9.0332C5.4167 9.0332 5.12373 8.77686 5.12373 8.37402L5.00166 0.830078C4.98945 0.305176 4.68428 0 4.18379 0C3.6833 0 3.39033 0.305176 3.37813 0.830078L3.25606 8.37402C3.25606 8.77686 2.96309 9.0332 2.54805 9.0332C2.14522 9.0332 1.86445 8.76465 1.86445 8.3374L1.9499 1.0498C1.9499 0.500488 1.66914 0.183105 1.18086 0.183105C0.680373 0.183105 0.36299 0.488281 0.338576 1.02539L0.00898618 8.52051C-0.0886701 10.6567 0.607131 11.4014 2.21846 12.1094C2.59688 12.2803 2.77998 12.5977 2.77998 13.0249L2.54805 26.7334C2.53584 27.7344 3.1584 28.3081 4.18379 28.3081ZM13.7297 17.6636L13.4733 26.6724C13.4367 27.7344 14.0837 28.3081 15.0969 28.3081C16.1345 28.3081 16.7692 27.7832 16.7692 26.8066L16.7692 0.915527C16.7692 0.292969 16.342 0 15.9025 0C15.4387 0 15.1335 0.244141 14.7429 0.817871C12.7775 3.57666 11.4836 8.74023 11.4836 13.623L11.4836 14.2212C11.4836 15.0635 11.7888 15.686 12.3991 16.0889L13.1193 16.5771C13.5588 16.8823 13.7541 17.2241 13.7297 17.6636Z" fill="#5ac8f5"/>
 </g>
</svg>
