<?xml version="1.0" encoding="UTF-8"?>
<!--Generator: Apple Native CoreSVG 175.5-->
<!DOCTYPE svg
PUBLIC "-//W3C//DTD SVG 1.1//EN"
       "http://www.w3.org/Graphics/SVG/1.1/DTD/svg11.dtd">
<svg version="1.1" xmlns="http://www.w3.org/2000/svg" xmlns:xlink="http://www.w3.org/1999/xlink" width="24.9023" height="29.6406">
 <g>
  <rect height="29.6406" opacity="0" width="24.9023" x="0" y="0"/>
  <path d="M0 14.8142C0 21.6257 5.65186 27.2654 12.4512 27.2654C19.2627 27.2654 24.9023 21.6257 24.9023 14.8142C24.9023 10.7126 22.8271 7.02611 19.6899 4.7434C19.1528 4.32836 18.4814 4.46263 18.1763 4.96312C17.8711 5.47582 18.0298 6.04955 18.5303 6.42797C21.1304 8.28343 22.8149 11.3474 22.8271 14.8142C22.8394 20.5759 18.2129 25.1902 12.4512 25.1902C6.68945 25.1902 2.0874 20.5759 2.0874 14.8142C2.0874 9.87035 5.48096 5.76879 10.0952 4.71898L10.0952 6.46459C10.0952 7.33129 10.6934 7.56322 11.3647 7.08715L15.2588 4.35277C15.8081 3.97435 15.8203 3.38842 15.2588 2.98558L11.377 0.251208C10.6934-0.237073 10.0952-0.00513969 10.0952 0.873767L10.0952 2.59496C4.38232 3.718 0 8.80834 0 14.8142Z" fill="#5ac8f5" fill-opacity="0.5"/>
  <path d="M8.59375 19.9534C10.5103 19.9534 11.8774 18.7937 11.8774 17.1457C11.8774 15.9495 11.0474 14.9851 9.8877 14.8508L9.8877 14.9119C10.8276 14.741 11.5723 13.801 11.5723 12.7024C11.5723 11.2375 10.376 10.2121 8.66699 10.2121C7.18994 10.2121 5.95703 11.0422 5.70068 12.2263C5.66406 12.3728 5.65186 12.4949 5.65186 12.6291C5.65186 13.0686 5.93262 13.3738 6.34766 13.3738C6.70166 13.3738 6.92139 13.1907 7.05566 12.8C7.31201 12.031 7.82471 11.6282 8.63037 11.6282C9.48486 11.6282 10.0708 12.1409 10.0708 12.8855C10.0708 13.6667 9.48486 14.2405 8.61816 14.2405L8.09326 14.2405C7.69043 14.2405 7.42188 14.5212 7.42188 14.9485C7.42188 15.3513 7.70264 15.6565 8.09326 15.6565L8.6792 15.6565C9.70459 15.6565 10.3516 16.2302 10.3516 17.0847C10.3516 17.9148 9.61914 18.5495 8.60596 18.5495C7.75146 18.5495 7.14111 18.1223 6.87256 17.3655C6.72607 16.9626 6.50635 16.7917 6.17676 16.7917C5.76172 16.7917 5.46875 17.1091 5.46875 17.5364C5.46875 17.6706 5.48096 17.8049 5.51758 17.9392C5.78613 19.0867 7.10449 19.9534 8.59375 19.9534ZM16.4673 19.9534C18.4937 19.9534 19.8242 18.0369 19.8242 15.1072C19.8242 12.1531 18.4937 10.2121 16.4673 10.2121C14.4287 10.2121 13.1104 12.1409 13.1104 15.1072C13.1104 18.0369 14.4409 19.9534 16.4673 19.9534ZM16.4673 18.4763C15.3931 18.4763 14.6973 17.1946 14.6973 15.1072C14.6973 12.9831 15.3809 11.6892 16.4673 11.6892C17.5537 11.6892 18.2251 12.9709 18.2251 15.1072C18.2251 17.1946 17.5415 18.4763 16.4673 18.4763Z" fill="#5ac8f5"/>
 </g>
</svg>
