<?xml version="1.0" encoding="UTF-8"?>
<!--Generator: Apple Native CoreSVG 175.5-->
<!DOCTYPE svg
PUBLIC "-//W3C//DTD SVG 1.1//EN"
       "http://www.w3.org/Graphics/SVG/1.1/DTD/svg11.dtd">
<svg version="1.1" xmlns="http://www.w3.org/2000/svg" xmlns:xlink="http://www.w3.org/1999/xlink" width="25.0122" height="25.7202">
 <g>
  <rect height="25.7202" opacity="0" width="25.0122" x="0" y="0"/>
  <path d="M10.3027 5.2124L12.2681 5.2124L12.2681 0.98877C12.2681 0.45166 11.8164 0 11.2793 0C10.7422 0 10.3027 0.45166 10.3027 0.98877ZM2.58789 15.564L18.5181 15.5518C19.6289 15.5518 20.1294 15.2222 20.752 14.624L24.0112 11.5112C25.3296 10.2539 25.3662 9.021 23.999 7.70264L20.752 4.61426C20.1294 4.00391 19.6289 3.67432 18.5303 3.67432L2.58789 3.67432C0.927734 3.67432 0 4.57764 0 6.21338L0 13.0127C0 14.6484 0.927734 15.564 2.58789 15.564ZM10.3027 14.8682L10.3027 25.6348L12.2681 25.6348L12.2681 14.8682ZM5.60303 24.7192C5.60303 25.2563 6.05469 25.6958 6.5918 25.6958L15.9912 25.6958C16.5283 25.6958 16.98 25.2563 16.98 24.7192C16.98 24.1821 16.5283 23.7305 15.9912 23.7305L6.5918 23.7305C6.05469 23.7305 5.60303 24.1821 5.60303 24.7192Z" fill="#5ac8f5"/>
 </g>
</svg>
