<?xml version="1.0" encoding="UTF-8"?>
<!--Generator: Apple Native CoreSVG 175.5-->
<!DOCTYPE svg
PUBLIC "-//W3C//DTD SVG 1.1//EN"
       "http://www.w3.org/Graphics/SVG/1.1/DTD/svg11.dtd">
<svg version="1.1" xmlns="http://www.w3.org/2000/svg" xmlns:xlink="http://www.w3.org/1999/xlink" width="26.4203" height="28.186">
 <g>
  <rect height="28.186" opacity="0" width="26.4203" x="0" y="0"/>
  <path d="M0 8.3252L10.4614 8.3252L10.4614 3.03955C10.4614 1.17188 9.26514 0 7.36084 0L3.22266 0C1.24512 0 0 1.17188 0 3.03955ZM0 18.1763L10.4614 18.1763L10.4614 9.98535L0 9.98535ZM3.22266 28.1738L7.36084 28.1738C9.26514 28.1738 10.4614 26.9897 10.4614 25.1221L10.4614 19.8486L0 19.8486L0 25.1221C0 26.9897 1.24512 28.1738 3.22266 28.1738ZM12.1216 9.69238L17.9565 13.0615L20.5933 8.48389C21.521 6.87256 21.0815 5.24902 19.4214 4.29688L15.8569 2.23389C14.4897 1.44043 13.1592 1.55029 12.2192 2.45361C12.207 2.73438 12.1704 3.01514 12.1216 3.30811ZM12.1216 23.1567L17.1265 14.502L12.1216 11.6211ZM20.2759 20.9106L24.8413 18.2739C26.4526 17.3462 26.8677 15.7104 25.9155 14.0503L23.8647 10.4858C23.4253 9.7168 22.8516 9.22852 22.2046 9.00879C22.1313 9.16748 22.0459 9.30176 21.9727 9.44824L17.8223 16.6504ZM12.8906 25.1709L18.8232 21.7407L16.8457 18.3105Z" fill="#5ac8f5"/>
 </g>
</svg>
