<?xml version="1.0" encoding="UTF-8"?>
<!--Generator: Apple Native CoreSVG 175.5-->
<!DOCTYPE svg
PUBLIC "-//W3C//DTD SVG 1.1//EN"
       "http://www.w3.org/Graphics/SVG/1.1/DTD/svg11.dtd">
<svg version="1.1" xmlns="http://www.w3.org/2000/svg" xmlns:xlink="http://www.w3.org/1999/xlink" width="46.6797" height="23.0103">
 <g>
  <rect height="23.0103" opacity="0" width="46.6797" x="0" y="0"/>
  <path d="M15.6738 23.0103L31.0059 23.0103C33.0322 23.0103 34.0088 22.3999 34.0088 21.0571C34.0088 17.8589 29.9683 13.2324 23.3398 13.2324C16.7114 13.2324 12.6709 17.8589 12.6709 21.0571C12.6709 22.3999 13.6353 23.0103 15.6738 23.0103ZM15.0879 21.167C14.7705 21.167 14.6362 21.0815 14.6362 20.8252C14.6362 18.8232 17.7368 15.0757 23.3398 15.0757C28.9429 15.0757 32.0435 18.8232 32.0435 20.8252C32.0435 21.0815 31.9092 21.167 31.5918 21.167ZM23.3398 11.5479C26.2451 11.5479 28.6133 8.95996 28.6133 5.81055C28.6133 2.69775 26.2817 0.231934 23.3398 0.231934C20.4468 0.231934 18.0664 2.73438 18.0786 5.83496C18.0786 8.97217 20.4468 11.5479 23.3398 11.5479ZM23.3398 9.70459C21.5576 9.70459 20.0439 7.99561 20.0439 5.83496C20.0317 3.71094 21.5332 2.0752 23.3398 2.0752C25.1709 2.0752 26.6479 3.68652 26.6479 5.81055C26.6479 7.97119 25.1465 9.70459 23.3398 9.70459Z" fill="#5ac8f5"/>
  <path d="M2.47803 23.0103L12.0605 23.0103C11.4746 22.6807 11.0352 21.9482 11.1206 21.2036L2.18506 21.2036C1.92871 21.2036 1.81885 21.106 1.81885 20.874C1.81885 17.8467 5.27344 15.0146 9.26514 15.0146C10.791 15.0146 12.1826 15.3809 13.3667 16.0767C13.7451 15.5884 14.1968 15.1611 14.7461 14.7827C13.1714 13.7451 11.2793 13.208 9.26514 13.208C4.15039 13.208 0 16.9189 0 20.9839C0 22.3389 0.830078 23.0103 2.47803 23.0103ZM9.27734 11.8164C11.792 11.8164 13.855 9.55811 13.855 6.78711C13.855 4.07715 11.8164 1.89209 9.27734 1.89209C6.7627 1.89209 4.6875 4.11377 4.69971 6.81152C4.69971 9.57031 6.7627 11.8164 9.27734 11.8164ZM9.27734 9.99756C7.77588 9.99756 6.51855 8.56934 6.51855 6.81152C6.51855 5.09033 7.76367 3.71094 9.27734 3.71094C10.8154 3.71094 12.0483 5.06592 12.0483 6.78711C12.0483 8.56934 10.7788 9.99756 9.27734 9.99756ZM44.2017 23.0103C45.8496 23.0103 46.6797 22.3389 46.6797 20.9839C46.6797 16.9189 42.5293 13.208 37.4146 13.208C35.4004 13.208 33.5083 13.7451 31.9336 14.7827C32.4829 15.1611 32.9346 15.5884 33.313 16.0767C34.4971 15.3809 35.8765 15.0146 37.4146 15.0146C41.4062 15.0146 44.8608 17.8467 44.8608 20.874C44.8608 21.106 44.751 21.2036 44.4946 21.2036L35.5591 21.2036C35.6445 21.9482 35.1929 22.6807 34.6191 23.0103ZM37.4023 11.8164C39.917 11.8164 41.98 9.57031 41.98 6.81152C41.9922 4.11377 39.917 1.89209 37.4023 1.89209C34.8633 1.89209 32.8247 4.07715 32.8247 6.78711C32.8247 9.55811 34.8877 11.8164 37.4023 11.8164ZM37.4023 9.99756C35.9009 9.99756 34.6313 8.56934 34.6313 6.78711C34.6313 5.06592 35.8643 3.71094 37.4023 3.71094C38.916 3.71094 40.1611 5.09033 40.1611 6.81152C40.1611 8.56934 38.8916 9.99756 37.4023 9.99756Z" fill="#5ac8f5" fill-opacity="0.5"/>
 </g>
</svg>
