<?xml version="1.0" encoding="UTF-8"?>
<!--Generator: Apple Native CoreSVG 175.5-->
<!DOCTYPE svg
PUBLIC "-//W3C//DTD SVG 1.1//EN"
       "http://www.w3.org/Graphics/SVG/1.1/DTD/svg11.dtd">
<svg version="1.1" xmlns="http://www.w3.org/2000/svg" xmlns:xlink="http://www.w3.org/1999/xlink" width="24.9023" height="24.9146">
 <g>
  <rect height="24.9146" opacity="0" width="24.9023" x="0" y="0"/>
  <path d="M12.4512 24.9023C19.2627 24.9023 24.9023 19.2505 24.9023 12.4512C24.9023 5.63965 19.2505 0 12.439 0C5.63965 0 0 5.63965 0 12.4512C0 19.2505 5.65186 24.9023 12.4512 24.9023Z" fill="#5ac8f5" fill-opacity="0.25"/>
  <path d="M12.4512 14.7217C11.8164 14.7217 11.4624 14.3677 11.4502 13.7207L11.2915 7.06787C11.2793 6.4209 11.7554 5.95703 12.439 5.95703C13.1104 5.95703 13.6108 6.43311 13.5986 7.08008L13.4277 13.7207C13.4155 14.3799 13.0615 14.7217 12.4512 14.7217ZM12.4512 18.811C11.7188 18.811 11.084 18.2251 11.084 17.5049C11.084 16.7847 11.7065 16.1865 12.4512 16.1865C13.1958 16.1865 13.8184 16.7725 13.8184 17.5049C13.8184 18.2373 13.1836 18.811 12.4512 18.811Z" fill="#5ac8f5"/>
 </g>
</svg>
