<?xml version="1.0" encoding="UTF-8"?>
<!--Generator: Apple Native CoreSVG 175.5-->
<!DOCTYPE svg
PUBLIC "-//W3C//DTD SVG 1.1//EN"
       "http://www.w3.org/Graphics/SVG/1.1/DTD/svg11.dtd">
<svg version="1.1" xmlns="http://www.w3.org/2000/svg" xmlns:xlink="http://www.w3.org/1999/xlink" width="24.9023" height="24.9146">
 <g>
  <rect height="24.9146" opacity="0" width="24.9023" x="0" y="0"/>
  <path d="M12.4512 24.9023C19.2627 24.9023 24.9023 19.2505 24.9023 12.4512C24.9023 5.63965 19.2505 0 12.439 0C5.63965 0 0 5.63965 0 12.4512C0 19.2505 5.65186 24.9023 12.4512 24.9023ZM12.4512 22.8271C6.68945 22.8271 2.0874 18.2129 2.0874 12.4512C2.0874 6.68945 6.67725 2.0752 12.439 2.0752C18.2007 2.0752 22.8271 6.68945 22.8271 12.4512C22.8271 18.2129 18.2129 22.8271 12.4512 22.8271ZM8.30078 13.5254L16.9922 13.5254C17.2363 13.2324 17.4072 12.915 17.5659 12.561C17.6758 12.2925 17.6514 12.0605 17.5049 11.9019C17.3828 11.792 17.1875 11.7676 16.9434 11.853C16.4795 12.0483 15.9058 12.1338 15.2466 12.1338C12.5366 12.1338 10.8154 10.4614 10.8154 7.8125C10.8154 7.1167 10.9253 6.37207 11.1328 5.98145C11.2671 5.7251 11.2427 5.50537 11.1328 5.34668C10.9985 5.18799 10.7422 5.15137 10.4492 5.27344C8.55713 6.05469 7.27539 8.02002 7.27539 10.3027C7.27539 11.5356 7.65381 12.6343 8.30078 13.5254ZM6.45752 15.271L19.5679 15.271C19.812 15.271 19.9951 15.0879 19.9951 14.8438C19.9951 14.5874 19.812 14.4043 19.5679 14.4043L6.45752 14.4043C6.21338 14.4043 6.03027 14.5996 6.03027 14.8438C6.03027 15.0879 6.21338 15.271 6.45752 15.271ZM5.32227 16.9434L18.4204 16.9434C18.6646 16.9434 18.8477 16.7603 18.8477 16.5161C18.8477 16.2598 18.6646 16.0767 18.4204 16.0767L5.32227 16.0767C5.07812 16.0767 4.88281 16.272 4.88281 16.5161C4.88281 16.7603 5.07812 16.9434 5.32227 16.9434ZM6.45752 18.6157L19.5679 18.6157C19.812 18.6157 19.9951 18.4326 19.9951 18.1885C19.9951 17.9321 19.812 17.749 19.5679 17.749L6.45752 17.749C6.21338 17.749 6.03027 17.9443 6.03027 18.1885C6.03027 18.4326 6.21338 18.6157 6.45752 18.6157Z" fill="#5ac8f5"/>
 </g>
</svg>
