<?xml version="1.0" encoding="UTF-8"?>
<!--Generator: Apple Native CoreSVG 175.5-->
<!DOCTYPE svg
PUBLIC "-//W3C//DTD SVG 1.1//EN"
       "http://www.w3.org/Graphics/SVG/1.1/DTD/svg11.dtd">
<svg version="1.1" xmlns="http://www.w3.org/2000/svg" xmlns:xlink="http://www.w3.org/1999/xlink" width="21.0602" height="27.1606">
 <g>
  <rect height="27.1606" opacity="0" width="21.0602" x="0" y="0"/>
  <path d="M9.04696 0C7.05721 0 5.59237 1.26953 5.28719 3.22266L5.27498 4.02832L6.98397 5.7373L6.98397 4.24805C6.98397 2.7832 7.81405 1.79443 9.04696 1.79443C10.2432 1.79443 11.0855 2.7832 11.0855 4.24805L11.0855 9.83887L12.8678 11.6333L12.8678 4.24805C12.8678 1.70898 11.3175 0 9.04696 0ZM9.04696 27.124C12.233 27.124 14.8575 24.7803 15.3092 21.7285C15.3458 21.4478 15.358 21.167 15.3458 20.8984L13.1119 18.6646C13.4415 19.2993 13.6246 20.0073 13.6246 20.752C13.6246 23.2788 11.5616 25.354 9.04696 25.354C6.49569 25.354 4.4449 23.2788 4.4449 20.752C4.4449 19.2261 5.16512 17.8467 6.45906 16.98C6.83748 16.7236 6.98397 16.4917 6.98397 15.9912L6.98397 12.439L5.18953 10.6445L5.18953 15.21C5.18953 15.5762 5.14071 15.7227 4.87215 15.9546C3.41951 17.2729 2.65047 18.8965 2.65047 20.752C2.65047 24.2676 5.50692 27.124 9.04696 27.124ZM9.03475 23.7061C10.6705 23.7061 11.9888 22.3877 11.9888 20.7397C11.9888 19.5923 11.3419 18.6523 10.4019 18.1396C10.0113 17.9321 9.87703 17.7856 9.87703 17.1875L9.87703 15.3198L8.19246 13.6353L8.19246 17.1875C8.19246 17.7856 8.05819 17.9321 7.66756 18.1396C6.72762 18.6523 6.08065 19.5923 6.08065 20.7397C6.08065 22.3877 7.39901 23.7061 9.03475 23.7061ZM15.1627 4.47998L17.8116 4.47998C18.2388 4.47998 18.5318 4.15039 18.5318 3.77197C18.5318 3.39355 18.2388 3.06396 17.8116 3.06396L15.1627 3.06396C14.7354 3.06396 14.4425 3.39355 14.4425 3.77197C14.4425 4.15039 14.7354 4.47998 15.1627 4.47998ZM15.1627 7.91016L17.8116 7.91016C18.2388 7.91016 18.5318 7.58057 18.5318 7.20215C18.5318 6.82373 18.2388 6.49414 17.8116 6.49414L15.1627 6.49414C14.7354 6.49414 14.4425 6.82373 14.4425 7.20215C14.4425 7.58057 14.7354 7.91016 15.1627 7.91016ZM15.1627 11.3403L17.8116 11.3403C18.2388 11.3403 18.5318 11.0107 18.5318 10.6323C18.5318 10.2539 18.2388 9.91211 17.8116 9.91211L15.1627 9.91211C14.7354 9.91211 14.4425 10.2539 14.4425 10.6323C14.4425 11.0107 14.7354 11.3403 15.1627 11.3403ZM19.4596 22.8882C19.8258 23.2544 20.4361 23.2544 20.7901 22.8882C21.1441 22.522 21.1563 21.9238 20.7901 21.5576L1.61287 2.39258C1.24666 2.02637 0.648518 2.01416 0.2701 2.39258C-0.0839039 2.74658-0.096111 3.36914 0.2701 3.72314Z" fill="#5ac8f5"/>
 </g>
</svg>
