<?xml version="1.0" encoding="UTF-8"?>
<!--Generator: Apple Native CoreSVG 175.5-->
<!DOCTYPE svg
PUBLIC "-//W3C//DTD SVG 1.1//EN"
       "http://www.w3.org/Graphics/SVG/1.1/DTD/svg11.dtd">
<svg version="1.1" xmlns="http://www.w3.org/2000/svg" xmlns:xlink="http://www.w3.org/1999/xlink" width="31.8404" height="25.1343">
 <g>
  <rect height="25.1343" opacity="0" width="31.8404" x="0" y="0"/>
  <path d="M14.8071 25.1343C23.4619 25.1343 30.0171 19.2139 31.7993 11.2427C32.0068 10.3149 31.4087 9.61914 30.4321 9.61914L18.8354 9.61914L18.8354 11.5845L30.6763 11.5845L29.8828 10.9009C28.1616 18.1396 22.2778 23.1689 14.8071 23.1689C7.1167 23.1689 1.95312 18.3716 1.95312 11.5112C1.95312 5.95703 5.88379 1.97754 11.0962 1.97754C15.1123 1.97754 17.981 4.58984 17.981 8.26416C17.981 11.3159 16.0645 13.5132 13.3789 13.5132C11.1084 13.5132 9.53369 12.0239 9.53369 10.1074C9.53369 8.59375 10.5347 7.43408 11.9507 7.43408C13.0981 7.43408 13.7695 8.11768 13.7695 9.021C13.7695 9.70459 13.3545 10.1929 12.7563 10.1929C12.2681 10.1929 12.0972 9.94873 11.9629 9.70459C11.8286 9.48486 11.6455 9.33838 11.3037 9.33838C10.9131 9.33838 10.498 9.65576 10.498 10.2539C10.498 11.0718 11.2549 12.1582 12.7441 12.1582C14.4043 12.1582 15.7349 10.9131 15.7349 9.021C15.7349 7.03125 14.0747 5.46875 11.9507 5.46875C9.55811 5.46875 7.56836 7.50732 7.56836 10.1074C7.56836 13.1104 10.022 15.4785 13.3789 15.4785C18.1641 15.4785 19.9463 11.2061 19.9463 8.26416C19.9463 3.4668 16.2354 0.012207 11.0962 0.012207C4.77295 0.012207 0 4.83398 0 11.5112C0 19.4946 5.96924 25.1343 14.8071 25.1343ZM17.2241 2.38037L12.6587 6.95801L13.7085 8.00781L18.2739 3.43018ZM10.4614 0.439453L10.4614 7.04346L11.9385 7.04346L11.9385 0.439453ZM4.02832 3.34473L8.8501 8.17871L9.8877 7.1167L5.07812 2.29492ZM1.47705 10.8154L8.53271 10.8154L8.53271 9.33838L1.47705 9.33838ZM4.08936 19.519L9.92432 13.6841L8.88672 12.6343L3.06396 18.4692ZM12.2437 23.9868L13.7207 23.9868L13.7207 14.8193L12.2437 14.8193ZM23.5474 21.4233L24.585 20.3735L16.9922 12.7686L15.9546 13.8184Z" fill="#5ac8f5"/>
 </g>
</svg>
