<?xml version="1.0" encoding="UTF-8"?>
<!--Generator: Apple Native CoreSVG 175.5-->
<!DOCTYPE svg
PUBLIC "-//W3C//DTD SVG 1.1//EN"
       "http://www.w3.org/Graphics/SVG/1.1/DTD/svg11.dtd">
<svg version="1.1" xmlns="http://www.w3.org/2000/svg" xmlns:xlink="http://www.w3.org/1999/xlink" width="24.9023" height="24.9146">
 <g>
  <rect height="24.9146" opacity="0" width="24.9023" x="0" y="0"/>
  <path d="M12.4512 24.9023C19.2627 24.9023 24.9023 19.2505 24.9023 12.4512C24.9023 5.63965 19.2505 0 12.439 0C5.63965 0 0 5.63965 0 12.4512C0 19.2505 5.65186 24.9023 12.4512 24.9023ZM12.4512 22.8271C6.68945 22.8271 2.0874 18.2129 2.0874 12.4512C2.0874 6.68945 6.67725 2.0752 12.439 2.0752C18.2007 2.0752 22.8271 6.68945 22.8271 12.4512C22.8271 18.2129 18.2129 22.8271 12.4512 22.8271Z" fill="#5ac8f5" fill-opacity="0.5"/>
  <path d="M7.50732 18.5669C8.1665 18.5669 8.70361 18.0176 8.70361 17.3584C8.70361 16.6992 8.1665 16.1621 7.50732 16.1621C6.84814 16.1621 6.31104 16.6992 6.31104 17.3584C6.31104 18.0176 6.84814 18.5669 7.50732 18.5669ZM5.40771 13.6475C6.0791 13.6475 6.61621 13.1104 6.61621 12.4512C6.61621 11.792 6.0791 11.2549 5.40771 11.2549C4.76074 11.2549 4.21143 11.792 4.21143 12.4512C4.21143 13.1104 4.76074 13.6475 5.40771 13.6475ZM7.48291 8.74023C8.14209 8.74023 8.6792 8.19092 8.6792 7.54395C8.6792 6.87256 8.14209 6.34766 7.48291 6.34766C6.82373 6.34766 6.28662 6.87256 6.28662 7.54395C6.28662 8.19092 6.82373 8.74023 7.48291 8.74023ZM12.439 6.5918C13.0859 6.5918 13.6353 6.04248 13.6353 5.39551C13.6353 4.72412 13.0859 4.18701 12.439 4.18701C11.7798 4.18701 11.2427 4.72412 11.2427 5.39551C11.2427 6.04248 11.7798 6.5918 12.439 6.5918ZM19.4702 13.6475C20.1172 13.6475 20.6665 13.1104 20.6665 12.4512C20.6665 11.792 20.1172 11.2549 19.4702 11.2549C18.7988 11.2549 18.2739 11.792 18.2739 12.4512C18.2739 13.1104 18.7988 13.6475 19.4702 13.6475ZM17.3706 18.5669C18.0298 18.5669 18.5669 18.0176 18.5669 17.3584C18.5669 16.6992 18.0298 16.1621 17.3706 16.1621C16.7114 16.1621 16.1743 16.6992 16.1743 17.3584C16.1743 18.0176 16.7114 18.5669 17.3706 18.5669ZM10.498 14.3311C11.4868 15.2954 12.8418 15.0757 13.6597 13.9282L18.4326 7.26318C18.8721 6.65283 18.2251 6.01807 17.6147 6.44531L10.8887 11.1572C9.729 11.9629 9.52148 13.3301 10.498 14.3311Z" fill="#5ac8f5"/>
 </g>
</svg>
