<?xml version="1.0" encoding="UTF-8"?>
<!--Generator: Apple Native CoreSVG 175.5-->
<!DOCTYPE svg
PUBLIC "-//W3C//DTD SVG 1.1//EN"
       "http://www.w3.org/Graphics/SVG/1.1/DTD/svg11.dtd">
<svg version="1.1" xmlns="http://www.w3.org/2000/svg" xmlns:xlink="http://www.w3.org/1999/xlink" width="23.401" height="24.939">
 <g>
  <rect height="24.939" opacity="0" width="23.401" x="0" y="0"/>
  <path d="M20.1052 6.83594C21.9362 6.83594 23.401 5.31006 23.401 3.54004C23.401 1.69678 21.9362 0.195312 20.1052 0.195312C18.2619 0.195312 16.7848 1.69678 16.7848 3.54004C16.7848 5.34668 18.2619 6.83594 20.1052 6.83594ZM17.9811 19.4824C18.5182 19.0552 19.0309 18.335 19.5192 17.4316L21.7653 13.3545C22.8029 11.4746 22.4611 9.55811 20.6911 8.60596C18.9577 7.65381 17.1877 8.38623 16.1379 10.2905L13.8185 14.4775ZM0.439623 24.2798C1.07439 24.9512 2.16081 24.8901 2.94206 24.0967L8.19109 18.6768C8.37419 18.4937 8.48406 18.4448 8.75261 18.5547L13.1838 20.2271C14.1481 20.5933 15.1979 20.52 15.967 20.3735L12.9152 16.6016L9.80242 15.4663C8.37419 14.9414 7.1657 15.1123 6.00603 16.3086L0.549486 21.9482C-0.195143 22.7295-0.134108 23.7061 0.439623 24.2798ZM20.6178 24.4263C21.1183 24.0356 21.155 23.4253 20.6789 22.8516L17.9811 19.4824C17.3586 19.9219 16.675 20.2271 15.967 20.3735L19.0798 24.1943C19.5314 24.7437 20.1052 24.8535 20.6178 24.4263Z" fill="#5ac8f5" fill-opacity="0.5"/>
  <path d="M7.27556 12.3901C10.7179 12.3901 13.4157 9.5459 13.4157 6.23779C13.4157 2.7832 10.7179 0 7.27556 0C3.82097 0 1.04997 2.7832 1.04997 6.23779C1.04997 9.5459 3.82097 12.3901 7.27556 12.3901Z" fill="#5ac8f5"/>
 </g>
</svg>
