<?xml version="1.0" encoding="UTF-8"?>
<!--Generator: Apple Native CoreSVG 175.5-->
<!DOCTYPE svg
PUBLIC "-//W3C//DTD SVG 1.1//EN"
       "http://www.w3.org/Graphics/SVG/1.1/DTD/svg11.dtd">
<svg version="1.1" xmlns="http://www.w3.org/2000/svg" xmlns:xlink="http://www.w3.org/1999/xlink" width="30.7995" height="18.2983">
 <g>
  <rect height="18.2983" opacity="0" width="30.7995" x="0" y="0"/>
  <path d="M0.807436 18.2983L2.28449 18.2983C2.90705 18.2983 3.20001 18.0054 3.29767 17.5781C4.71369 11.9873 4.81134 6.22559 2.95587 0.537109C2.8338 0.158691 2.57746 0.0244141 2.17462 0.0244141L1.69855 0.0244141C1.32013 0.0244141 1.02716 0.256348 1.13703 0.744629C2.50421 6.72607 2.10138 11.8164 0.0750138 17.1997C-0.144713 17.8101 0.123842 18.2983 0.807436 18.2983ZM28.554 18.2983L29.909 18.2983C30.6658 18.2983 30.8978 17.7734 30.7635 17.1997C29.0423 9.26514 24.5501 3.86963 20.2044 0.439453C19.765 0.0854492 19.5208 0.0244141 19.2156 0.0244141L18.6663 0.0244141C18.3001 0.0244141 18.056 0.463867 18.3611 0.78125C23.7322 6.25 26.2591 11.2183 27.3577 17.2974C27.4554 17.8589 27.6995 18.2983 28.554 18.2983ZM11.9769 3.19824L12.4529 3.19824C13.0023 3.19824 13.2098 2.68555 12.9046 2.23389C12.3675 1.42822 11.8182 0.744629 11.3909 0.305176C11.1834 0.0854492 11.0003 0.0244141 10.6585 0.0244141L10.2923 0.0244141C9.87726 0.0244141 9.60871 0.378418 9.87726 0.78125C10.4876 1.70898 10.8294 2.29492 11.0613 2.70996C11.2689 3.08838 11.513 3.19824 11.9769 3.19824ZM14.2474 9.17969L15.2239 9.17969C15.8099 9.17969 15.9808 8.78906 15.8221 8.3252C15.5291 7.4707 15.1995 6.62842 14.9432 6.03027C14.7479 5.63965 14.5526 5.49316 14.0887 5.49316L13.3441 5.49316C12.8802 5.49316 12.5506 5.76172 12.7581 6.33545C13.0267 7.14111 13.2464 7.92236 13.3685 8.48389C13.4905 8.92334 13.7225 9.17969 14.2474 9.17969ZM15.4681 18.2983L16.4324 18.2983C16.9818 18.2983 17.2625 18.0054 17.2503 17.4316C17.2015 15.7837 16.994 13.6597 16.6522 12.3047C16.5301 11.8164 16.2127 11.6333 15.7733 11.6333L15.0408 11.6333C14.4671 11.6333 14.1985 11.8408 14.2962 12.5488C14.4549 13.7695 14.577 15.564 14.6136 17.4438C14.6136 18.0298 14.9188 18.2983 15.4681 18.2983Z" fill="#5ac8f5"/>
 </g>
</svg>
