<?xml version="1.0" encoding="UTF-8"?>
<!--Generator: Apple Native CoreSVG 175.5-->
<!DOCTYPE svg
PUBLIC "-//W3C//DTD SVG 1.1//EN"
       "http://www.w3.org/Graphics/SVG/1.1/DTD/svg11.dtd">
<svg version="1.1" xmlns="http://www.w3.org/2000/svg" xmlns:xlink="http://www.w3.org/1999/xlink" width="37.7441" height="31.189">
 <g>
  <rect height="31.189" opacity="0" width="37.7441" x="0" y="0"/>
  <path d="M18.8721 6.83594C21.8506 6.83594 24.8535 4.80957 24.8535 2.20947C24.8535 1.40381 24.4141 0.854492 23.3765 0.537109C22.0825 0.158691 20.4834 0 18.8721 0C17.2729 0 15.6738 0.158691 14.3799 0.537109C13.3423 0.854492 12.9028 1.40381 12.9028 2.20947C12.9028 4.80957 15.8936 6.83594 18.8721 6.83594ZM18.8721 5.23682C16.6138 5.23682 14.8193 4.00391 14.5142 2.29492C14.502 2.22168 14.563 2.14844 14.6729 2.09961C15.9668 1.75781 17.4072 1.58691 18.8721 1.58691C20.3369 1.58691 21.7773 1.75781 23.0835 2.09961C23.1934 2.14844 23.2544 2.22168 23.2422 2.29492C22.937 4.00391 21.1426 5.23682 18.8721 5.23682ZM18.0786 5.85938L18.0786 14.0015L19.6777 14.0015L19.6777 5.85938ZM2.6123 19.5435C4.05273 19.5435 5.22461 18.3594 5.22461 16.9189C5.22461 15.4785 4.06494 14.3066 2.6123 14.3066C1.18408 14.3066 0 15.4785 0 16.9189C0 18.3594 1.18408 19.5435 2.6123 19.5435ZM2.6123 18.1885C1.92871 18.1885 1.35498 17.6147 1.35498 16.9189C1.35498 16.2354 1.92871 15.6616 2.6123 15.6616C3.32031 15.6616 3.86963 16.2231 3.86963 16.9189C3.86963 17.6147 3.2959 18.1885 2.6123 18.1885ZM9.7168 19.5435C11.4868 19.5435 12.9395 18.0908 12.9395 16.333C12.9395 14.563 11.4868 13.1104 9.7168 13.1104C7.95898 13.1104 6.51855 14.563 6.51855 16.333C6.51855 18.0908 7.95898 19.5435 9.7168 19.5435ZM9.7168 17.9443C8.83789 17.9443 8.11768 17.2119 8.11768 16.333C8.11768 15.4419 8.83789 14.7095 9.7168 14.7095C10.6079 14.7095 11.3403 15.4419 11.3403 16.333C11.3403 17.2119 10.6079 17.9443 9.7168 17.9443ZM18.8843 22.4121C21.4111 22.4121 23.4497 20.3735 23.4497 17.8467C23.4497 15.3076 21.4111 13.269 18.8843 13.269C16.3452 13.269 14.3066 15.3076 14.3066 17.8467C14.3066 20.3735 16.3452 22.4121 18.8843 22.4121ZM18.8721 20.813C17.2241 20.813 15.9058 19.4946 15.9058 17.8467C15.9058 16.1865 17.2241 14.8682 18.8721 14.8682C20.52 14.8682 21.8506 16.1865 21.8506 17.8467C21.8506 19.4946 20.52 20.813 18.8721 20.813ZM28.0273 19.5435C29.7852 19.5435 31.2256 18.0908 31.2256 16.333C31.2256 14.563 29.7852 13.1104 28.0273 13.1104C26.2573 13.1104 24.8047 14.563 24.8047 16.333C24.8047 18.0908 26.2573 19.5435 28.0273 19.5435ZM28.0273 17.9443C27.1362 17.9443 26.4038 17.2119 26.4038 16.333C26.4038 15.4419 27.1362 14.7095 28.0273 14.7095C28.9062 14.7095 29.6265 15.4419 29.6265 16.333C29.6265 17.2119 28.9062 17.9443 28.0273 17.9443ZM35.1318 19.5435C36.5601 19.5435 37.7441 18.3594 37.7441 16.9189C37.7441 15.4785 36.5601 14.3066 35.1318 14.3066C33.6792 14.3066 32.5195 15.4785 32.5195 16.9189C32.5195 18.3594 33.6914 19.5435 35.1318 19.5435ZM35.1318 18.1885C34.4482 18.1885 33.8745 17.6147 33.8745 16.9189C33.8745 16.2231 34.4238 15.6616 35.1318 15.6616C35.8154 15.6616 36.3892 16.2354 36.3892 16.9189C36.3892 17.6147 35.8154 18.1885 35.1318 18.1885ZM18.8843 31.1646C20.6299 31.1646 22.0703 29.7363 22.0703 27.9785C22.0703 26.2207 20.6299 24.7925 18.8843 24.7925C17.1265 24.7925 15.686 26.2207 15.686 27.9785C15.686 29.7363 17.1265 31.1646 18.8843 31.1646ZM18.8843 29.5654C18.0054 29.5654 17.2852 28.8574 17.2852 27.9785C17.2852 27.0996 18.0054 26.3916 18.8843 26.3916C19.751 26.3916 20.4712 27.0996 20.4712 27.9785C20.4712 28.8574 19.751 29.5654 18.8843 29.5654ZM3.69873 18.75L2.09961 18.75C2.16064 22.7783 7.73926 24.9634 10.8032 21.7529L9.93652 20.4224C7.92236 22.937 3.75977 21.521 3.69873 18.75ZM10.5103 18.75L8.91113 18.75C8.83789 22.998 14.0381 24.9268 17.6147 21.6309L16.0889 20.8252C13.6353 22.6807 10.4492 21.4966 10.5103 18.75ZM27.2339 18.75C27.2949 21.4966 24.1089 22.6807 21.6553 20.8252L20.1294 21.6309C23.7061 24.9268 28.9062 22.998 28.833 18.75ZM34.0454 18.75C33.9844 21.521 29.8218 22.937 27.8076 20.4224L26.9409 21.7529C30.0049 24.9634 35.5835 22.7783 35.6445 18.75ZM18.0786 21.5942L18.0786 25.7935L19.6777 25.7935L19.6777 21.5942Z" fill="#5ac8f5"/>
 </g>
</svg>
