<?xml version="1.0" encoding="UTF-8"?>
<!--Generator: Apple Native CoreSVG 175.5-->
<!DOCTYPE svg
PUBLIC "-//W3C//DTD SVG 1.1//EN"
       "http://www.w3.org/Graphics/SVG/1.1/DTD/svg11.dtd">
<svg version="1.1" xmlns="http://www.w3.org/2000/svg" xmlns:xlink="http://www.w3.org/1999/xlink" width="22.4731" height="22.4976">
 <g>
  <rect height="22.4976" opacity="0" width="22.4731" x="0" y="0"/>
  <path d="M3.83301 22.4976L18.6401 22.4976C21.2036 22.4976 22.4731 21.228 22.4731 18.7134L22.4731 3.80859C22.4731 1.29395 21.2036 0.0244141 18.6401 0.0244141L3.83301 0.0244141C1.28174 0.0244141 0 1.28174 0 3.80859L0 18.7134C0 21.2402 1.28174 22.4976 3.83301 22.4976Z" fill="#5ac8f5" fill-opacity="0.25"/>
  <path d="M11.3403 17.2363C9.86328 17.2363 8.48389 16.6992 7.66602 15.3564C7.14111 14.5142 6.83594 13.2568 6.83594 11.5234C6.83594 7.32422 8.6792 5.24902 11.6577 5.24902C13.2812 5.24902 14.6484 6.06689 15.0513 6.99463C15.1245 7.17773 15.1611 7.34863 15.1611 7.55615C15.1611 7.99561 14.8193 8.30078 14.4043 8.30078C13.9648 8.30078 13.7207 8.08105 13.3179 7.67822C12.9517 7.23877 12.4634 6.86035 11.5845 6.86035C9.86328 6.86035 8.69141 8.5083 8.69141 11.084C8.69141 11.1206 8.69141 11.1572 8.69141 11.2183C8.71582 11.2183 8.75244 11.2183 8.78906 11.2183C9.19189 10.3027 10.1807 9.44824 11.8652 9.44824C13.855 9.44824 15.6616 10.791 15.6616 13.1836C15.6616 15.7593 13.8794 17.2363 11.3403 17.2363ZM11.2549 15.7227C12.7319 15.7227 13.6841 14.7461 13.6841 13.269C13.6841 11.8652 12.6953 10.8887 11.2671 10.8887C9.85107 10.8887 8.83789 11.8774 8.83789 13.2568C8.83789 14.6851 9.86328 15.7227 11.2549 15.7227Z" fill="#5ac8f5"/>
 </g>
</svg>
