<?xml version="1.0" encoding="UTF-8"?>
<!--Generator: Apple Native CoreSVG 175.5-->
<!DOCTYPE svg
PUBLIC "-//W3C//DTD SVG 1.1//EN"
       "http://www.w3.org/Graphics/SVG/1.1/DTD/svg11.dtd">
<svg version="1.1" xmlns="http://www.w3.org/2000/svg" xmlns:xlink="http://www.w3.org/1999/xlink" width="24.0356" height="22.1069">
 <g>
  <rect height="22.1069" opacity="0" width="24.0356" x="0" y="0"/>
  <path d="M12.0239 22.1069C16.4551 22.1069 18.3228 21.5454 20.0928 19.8975C22.583 17.627 24.0356 14.3433 24.0356 10.8521C24.0356 8.03223 23.0957 5.34668 21.3379 3.38135C20.8618 2.771 20.0562 2.66113 19.3726 3.08838C17.8711 4.18701 15.8569 4.93164 12.0239 4.93164C8.17871 4.93164 6.16455 4.18701 4.67529 3.08838C3.9917 2.66113 3.17383 2.771 2.69775 3.38135C0.952148 5.34668 0 8.03223 0 10.8521C0 14.3433 1.45264 17.627 3.94287 19.8975C5.71289 21.5454 7.58057 22.1069 12.0239 22.1069ZM12.0239 20.1416C8.14209 20.1416 6.66504 19.751 5.27344 18.457C3.16162 16.5161 1.96533 13.7695 1.96533 10.8521C1.96533 8.53271 2.72217 6.31104 4.30908 4.5166L3.41797 4.74854C5.3833 6.26221 8.49609 6.89697 12.0239 6.89697C15.5396 6.89697 18.6523 6.26221 20.6177 4.74854L19.7266 4.5166C21.3135 6.31104 22.0703 8.53271 22.0703 10.8521C22.0703 13.7695 20.874 16.5161 18.7622 18.457C17.3828 19.751 15.8936 20.1416 12.0239 20.1416Z" fill="#5ac8f5" fill-opacity="0.5"/>
  <path d="M12.0239 3.27148C15.4175 3.27148 17.7856 2.58789 17.7856 1.70898C17.7856 0.817871 15.4175 0.158691 12.0239 0.158691C8.61816 0.158691 6.25 0.817871 6.25 1.70898C6.25 2.58789 8.61816 3.27148 12.0239 3.27148Z" fill="#5ac8f5"/>
 </g>
</svg>
