<?xml version="1.0" encoding="UTF-8"?>
<!--Generator: Apple Native CoreSVG 175.5-->
<!DOCTYPE svg
PUBLIC "-//W3C//DTD SVG 1.1//EN"
       "http://www.w3.org/Graphics/SVG/1.1/DTD/svg11.dtd">
<svg version="1.1" xmlns="http://www.w3.org/2000/svg" xmlns:xlink="http://www.w3.org/1999/xlink" width="22.4731" height="22.4976">
 <g>
  <rect height="22.4976" opacity="0" width="22.4731" x="0" y="0"/>
  <path d="M3.83301 22.4976L18.6401 22.4976C21.2036 22.4976 22.4731 21.228 22.4731 18.7134L22.4731 3.80859C22.4731 1.29395 21.2036 0.0244141 18.6401 0.0244141L3.83301 0.0244141C1.28174 0.0244141 0 1.28174 0 3.80859L0 18.7134C0 21.2402 1.28174 22.4976 3.83301 22.4976Z" fill="#5ac8f5" fill-opacity="0.25"/>
  <path d="M8.36182 17.4805C7.97119 17.0898 7.97119 16.4795 8.34961 16.1255L13.5254 11.2549L8.34961 6.39648C7.95898 6.03027 7.97119 5.40771 8.37402 5.0415C8.72803 4.6875 9.31396 4.72412 9.70459 5.09033L14.9414 10.0098C15.6616 10.6812 15.6616 11.8408 14.9414 12.5L9.70459 17.4316C9.35059 17.7734 8.69141 17.7979 8.36182 17.4805Z" fill="#5ac8f5"/>
 </g>
</svg>
