<?xml version="1.0" encoding="UTF-8"?>
<!--Generator: Apple Native CoreSVG 175.5-->
<!DOCTYPE svg
PUBLIC "-//W3C//DTD SVG 1.1//EN"
       "http://www.w3.org/Graphics/SVG/1.1/DTD/svg11.dtd">
<svg version="1.1" xmlns="http://www.w3.org/2000/svg" xmlns:xlink="http://www.w3.org/1999/xlink" width="24.9023" height="24.9146">
 <g>
  <rect height="24.9146" opacity="0" width="24.9023" x="0" y="0"/>
  <path d="M12.4512 24.9146C19.2627 24.9146 24.9023 19.2749 24.9023 12.4634C24.9023 5.66406 19.2505 0.012207 12.439 0.012207C5.63965 0.012207 0 5.66406 0 12.4634C0 19.2749 5.65186 24.9146 12.4512 24.9146Z" fill="#5ac8f5" fill-opacity="0.25"/>
  <path d="M5.87158 15.1123C5.46875 15.1123 5.16357 14.8193 5.16357 14.4653C5.16357 14.1113 5.46875 13.8062 5.87158 13.8062L7.39746 13.8062C7.80029 13.8062 8.10547 14.0991 8.10547 14.4653C8.10547 14.8315 7.80029 15.1123 7.39746 15.1123ZM8.42285 11.5234L7.33643 10.437C7.04346 10.1318 7.04346 9.74121 7.2876 9.47266C7.54395 9.22852 7.95898 9.2041 8.25195 9.49707L9.33838 10.5835C9.60693 10.8643 9.64355 11.2915 9.38721 11.5479C9.13086 11.8164 8.70361 11.792 8.42285 11.5234ZM12.439 9.8999C12.0728 9.8999 11.7798 9.58252 11.7798 9.2041L11.7798 6.90918L11.8164 6.48193L11.7554 6.54297L10.9009 7.38525C10.7788 7.49512 10.6079 7.56836 10.4492 7.56836C10.1196 7.56836 9.8877 7.33643 9.8877 7.00684C9.8877 6.84814 9.93652 6.70166 10.083 6.55518L11.9995 4.76074C12.146 4.62646 12.2925 4.56543 12.439 4.56543C12.5854 4.56543 12.7319 4.62646 12.8784 4.76074L14.7949 6.55518C14.9536 6.70166 14.9902 6.84814 14.9902 7.00684C14.9902 7.33643 14.7583 7.56836 14.4287 7.56836C14.27 7.56836 14.0869 7.50732 13.9893 7.38525L13.2202 6.5918L13.0615 6.44531L13.0981 6.90918L13.0981 9.2041C13.0981 9.58252 12.8052 9.8999 12.439 9.8999ZM15.5151 11.5479C15.2466 11.2915 15.2588 10.8765 15.5518 10.5835L16.626 9.49707C16.9189 9.21631 17.334 9.2041 17.5903 9.47266C17.8345 9.74121 17.8223 10.1318 17.5415 10.437L16.4673 11.5234C16.1743 11.8042 15.7715 11.8042 15.5151 11.5479ZM17.4927 15.1123C17.0898 15.1123 16.7725 14.8315 16.7725 14.4653C16.7725 14.0991 17.0898 13.8062 17.4927 13.8062L19.0063 13.8062C19.4214 13.8062 19.7144 14.0991 19.7144 14.4653C19.7144 14.8193 19.4214 15.1123 19.0063 15.1123ZM15.9424 14.5996C15.9424 14.978 15.8691 15.3564 15.7349 15.7104L9.14307 15.7104C9.00879 15.3564 8.93555 14.978 8.93555 14.5996C8.93555 12.6953 10.5347 11.1084 12.439 11.1084C14.3555 11.1084 15.9424 12.6953 15.9424 14.5996ZM5.85938 17.7734C5.50537 17.7734 5.16357 17.4927 5.16357 17.1265C5.16357 16.7603 5.49316 16.4795 5.85938 16.4795L19.0186 16.4795C19.397 16.4795 19.7144 16.7603 19.7144 17.1265C19.7144 17.4927 19.3848 17.7734 19.0186 17.7734Z" fill="#5ac8f5"/>
 </g>
</svg>
