<?xml version="1.0" encoding="UTF-8"?>
<!--Generator: Apple Native CoreSVG 175.5-->
<!DOCTYPE svg
PUBLIC "-//W3C//DTD SVG 1.1//EN"
       "http://www.w3.org/Graphics/SVG/1.1/DTD/svg11.dtd">
<svg version="1.1" xmlns="http://www.w3.org/2000/svg" xmlns:xlink="http://www.w3.org/1999/xlink" width="19.8486" height="24.2554">
 <g>
  <rect height="24.2554" opacity="0" width="19.8486" x="0" y="0"/>
  <path d="M6.15234 24.2432L13.6963 24.2432C17.8467 24.2432 19.8486 22.2412 19.8486 18.0908L19.8486 6.15234C19.8486 2.00195 17.8467 0 13.6963 0L6.15234 0C2.00195 0 0 2.00195 0 6.15234L0 18.0908C0 22.2412 2.00195 24.2432 6.15234 24.2432ZM6.15234 22.2778C3.23486 22.2778 1.96533 21.0083 1.96533 18.0908L1.96533 6.15234C1.96533 3.23486 3.23486 1.96533 6.15234 1.96533L13.6963 1.96533C16.6138 1.96533 17.8833 3.23486 17.8833 6.15234L17.8833 18.0908C17.8833 21.0083 16.6138 22.2778 13.6963 22.2778ZM0.98877 8.12988L18.8599 8.12988L18.8599 6.89697L0.98877 6.89697ZM6.54297 8.95996L13.3057 8.95996C14.1479 8.95996 14.7705 8.36182 14.7705 7.50732C14.7705 6.65283 14.1479 6.05469 13.3057 6.05469L6.54297 6.05469C5.7373 6.05469 5.07812 6.65283 5.07812 7.50732C5.07812 8.36182 5.7373 8.95996 6.54297 8.95996Z" fill="#5ac8f5"/>
 </g>
</svg>
