<?xml version="1.0" encoding="UTF-8"?>
<!--Generator: Apple Native CoreSVG 175.5-->
<!DOCTYPE svg
PUBLIC "-//W3C//DTD SVG 1.1//EN"
       "http://www.w3.org/Graphics/SVG/1.1/DTD/svg11.dtd">
<svg version="1.1" xmlns="http://www.w3.org/2000/svg" xmlns:xlink="http://www.w3.org/1999/xlink" width="20.5322" height="26.1841">
 <g>
  <rect height="26.1841" opacity="0" width="20.5322" x="0" y="0"/>
  <path d="M0 22.3511C0 24.9023 1.25732 26.1719 3.78418 26.1719L16.748 26.1719C19.2749 26.1719 20.5322 24.9023 20.5322 22.3511L20.5322 3.83301C20.5322 1.29395 19.2749 0 16.748 0L3.78418 0C1.25732 0 0 1.29395 0 3.83301ZM1.96533 22.3145L1.96533 3.86963C1.96533 2.64893 2.6123 1.96533 3.88184 1.96533L16.6504 1.96533C17.9199 1.96533 18.5669 2.64893 18.5669 3.86963L18.5669 22.3145C18.5669 23.5352 17.9199 24.2065 16.6504 24.2065L3.88184 24.2065C2.6123 24.2065 1.96533 23.5352 1.96533 22.3145ZM4.61426 13.0859C4.61426 13.6841 5.0415 14.0869 5.66406 14.0869L9.25293 14.0869L9.25293 17.688C9.25293 18.2983 9.66797 18.7256 10.2539 18.7256C10.8765 18.7256 11.2915 18.3105 11.2915 17.688L11.2915 14.0869L14.8926 14.0869C15.5029 14.0869 15.9302 13.6841 15.9302 13.0859C15.9302 12.4756 15.5151 12.0483 14.8926 12.0483L11.2915 12.0483L11.2915 8.45947C11.2915 7.83691 10.8765 7.40967 10.2539 7.40967C9.66797 7.40967 9.25293 7.83691 9.25293 8.45947L9.25293 12.0483L5.66406 12.0483C5.0415 12.0483 4.61426 12.4756 4.61426 13.0859Z" fill="#5ac8f5"/>
 </g>
</svg>
