<?xml version="1.0" encoding="UTF-8"?>
<!--Generator: Apple Native CoreSVG 175.5-->
<!DOCTYPE svg
PUBLIC "-//W3C//DTD SVG 1.1//EN"
       "http://www.w3.org/Graphics/SVG/1.1/DTD/svg11.dtd">
<svg version="1.1" xmlns="http://www.w3.org/2000/svg" xmlns:xlink="http://www.w3.org/1999/xlink" width="11.8408" height="26.9897">
 <g>
  <rect height="26.9897" opacity="0" width="11.8408" x="0" y="0"/>
  <path d="M2.86865 26.9653L8.97217 26.9653C10.7788 26.9653 11.8408 25.9033 11.8408 24.0967L11.8408 2.86865C11.8408 1.06201 10.7788 0 8.97217 0L2.86865 0C1.06201 0 0 1.06201 0 2.86865L0 24.0967C0 25.9033 1.06201 26.9653 2.86865 26.9653ZM3.74756 10.5469C2.86865 10.5469 2.18506 9.83887 2.18506 8.98438C2.18506 8.11768 2.86865 7.42188 3.74756 7.42188C4.60205 7.42188 5.29785 8.11768 5.29785 8.98438C5.29785 9.83887 4.60205 10.5469 3.74756 10.5469ZM8.06885 10.5469C7.20215 10.5469 6.50635 9.83887 6.50635 8.98438C6.50635 8.11768 7.20215 7.42188 8.06885 7.42188C8.93555 7.42188 9.63135 8.11768 9.63135 8.98438C9.63135 9.83887 8.93555 10.5469 8.06885 10.5469ZM3.74756 15.0513C2.86865 15.0513 2.18506 14.3433 2.18506 13.4888C2.18506 12.6221 2.86865 11.9263 3.74756 11.9263C4.60205 11.9263 5.29785 12.6221 5.29785 13.4888C5.29785 14.3433 4.60205 15.0513 3.74756 15.0513ZM3.74756 19.5435C2.86865 19.5435 2.18506 18.8599 2.18506 17.981C2.18506 17.1265 2.86865 16.4185 3.74756 16.4185C4.60205 16.4185 5.29785 17.1265 5.29785 17.981C5.29785 18.8599 4.60205 19.5435 3.74756 19.5435ZM8.05664 19.5435C7.23877 19.5435 6.5918 18.8965 6.5918 18.0542L6.5918 13.4155C6.5918 12.5854 7.23877 11.9263 8.05664 11.9263C8.88672 11.9263 9.57031 12.5854 9.57031 13.4155L9.57031 18.0542C9.57031 18.8965 8.88672 19.5435 8.05664 19.5435Z" fill="#5ac8f5"/>
 </g>
</svg>
