<?xml version="1.0" encoding="UTF-8"?>
<!--Generator: Apple Native CoreSVG 175.5-->
<!DOCTYPE svg
PUBLIC "-//W3C//DTD SVG 1.1//EN"
       "http://www.w3.org/Graphics/SVG/1.1/DTD/svg11.dtd">
<svg version="1.1" xmlns="http://www.w3.org/2000/svg" xmlns:xlink="http://www.w3.org/1999/xlink" width="24.9023" height="24.9146">
 <g>
  <rect height="24.9146" opacity="0" width="24.9023" x="0" y="0"/>
  <path d="M12.4512 24.9146C19.2627 24.9146 24.9023 19.2749 24.9023 12.4634C24.9023 5.66406 19.2505 0.012207 12.439 0.012207C5.63965 0.012207 0 5.66406 0 12.4634C0 19.2749 5.65186 24.9146 12.4512 24.9146ZM6.7627 17.627C5.2002 17.627 4.13818 16.6138 4.13818 15.21C4.13818 14.0991 4.83398 13.208 5.84717 12.8784C6.06689 10.8765 7.76367 9.30176 9.79004 9.30176C11.3159 9.30176 12.5854 10.1318 13.2935 11.4624C15.1489 11.499 16.5283 12.8174 16.5283 14.5264C16.5283 16.2842 15.1489 17.627 13.3667 17.627ZM20.8374 11.1694C20.8374 12.2681 19.5435 13.9648 17.395 14.1846C17.2363 12.2925 15.7715 10.8643 13.8184 10.6079C13.6963 10.4248 13.5742 10.2661 13.4277 10.1074C13.6353 8.26416 15.21 6.79932 16.4551 6.73828C16.687 6.73828 16.8457 6.86035 16.8457 7.04346C16.8457 7.37305 16.394 7.99561 16.394 8.81348C16.394 10.2295 17.3706 11.145 18.9209 11.145C19.7754 11.145 20.2393 10.7544 20.5444 10.7544C20.7397 10.7544 20.8374 10.9375 20.8374 11.1694Z" fill="#5ac8f5"/>
 </g>
</svg>
