<?xml version="1.0" encoding="UTF-8"?>
<!--Generator: Apple Native CoreSVG 175.5-->
<!DOCTYPE svg
PUBLIC "-//W3C//DTD SVG 1.1//EN"
       "http://www.w3.org/Graphics/SVG/1.1/DTD/svg11.dtd">
<svg version="1.1" xmlns="http://www.w3.org/2000/svg" xmlns:xlink="http://www.w3.org/1999/xlink" width="21.875" height="23.3521">
 <g>
  <rect height="23.3521" opacity="0" width="21.875" x="0" y="0"/>
  <path d="M8.81348 12.5488C9.42383 13.0615 9.98535 13.0615 10.5713 12.5488L15.6128 8.1543C15.979 7.82471 15.979 7.25098 15.625 6.88477C15.271 6.53076 14.7339 6.53076 14.3311 6.88477L9.68018 10.9131L6.84814 8.5083C6.48193 8.19092 5.896 8.25195 5.57861 8.61816C5.24902 9.00879 5.31006 9.58252 5.70068 9.91211ZM5.48096 23.3521L14.7827 23.3521C18.2129 23.3521 20.2637 21.2646 20.2637 17.7734L20.2637 5.60303C20.2637 2.11182 18.2129 0.0366211 14.7827 0.0366211L5.48096 0.0366211C2.05078 0.0366211 0 2.11182 0 5.60303L0 17.7734C0 21.2646 2.05078 23.3521 5.48096 23.3521ZM5.39551 21.3867C3.24707 21.3867 1.96533 20.0806 1.96533 17.8589L1.96533 5.57861C1.96533 3.36914 3.24707 2.06299 5.39551 2.06299L14.8682 2.06299C17.0288 2.06299 18.2983 3.36914 18.2983 5.57861L18.2983 17.8589C18.2983 20.0806 17.0288 21.3867 14.8682 21.3867ZM20.0439 10.4126L20.5933 10.4126C21.3745 10.4126 21.875 9.87549 21.875 9.0332L21.875 6.99463C21.875 6.12793 21.3745 5.59082 20.5933 5.59082L20.0439 5.59082Z" fill="#5ac8f5"/>
 </g>
</svg>
