<?xml version="1.0" encoding="UTF-8"?>
<!--Generator: Apple Native CoreSVG 175.5-->
<!DOCTYPE svg
PUBLIC "-//W3C//DTD SVG 1.1//EN"
       "http://www.w3.org/Graphics/SVG/1.1/DTD/svg11.dtd">
<svg version="1.1" xmlns="http://www.w3.org/2000/svg" xmlns:xlink="http://www.w3.org/1999/xlink" width="24.7382" height="27.0142">
 <g>
  <rect height="27.0142" opacity="0" width="24.7382" x="0" y="0"/>
  <path d="M4.38515 13.7085C4.38515 14.3066 4.84901 14.7583 5.45936 14.7583L6.3871 14.7583C6.98524 14.7583 7.4369 14.3066 7.4369 13.7085L7.4369 12.561L20.181 12.561L20.181 13.7085C20.181 14.3066 20.6327 14.7583 21.2308 14.7583L22.1586 14.7583C22.7689 14.7583 23.2206 14.3066 23.2206 13.7085L23.2206 8.38623C23.2206 7.05566 23.0619 6.23779 22.2196 5.34668L21.414 4.47998L20.5839 2.0874C20.1322 0.78125 19.2411 0.244141 18.1425 0.109863C17.6054 0.0366211 15.872 0 13.809 0C11.746 0 10.0004 0.0366211 9.47548 0.109863C8.37684 0.244141 7.47352 0.78125 7.03407 2.0874L6.20399 4.47998L5.39833 5.34668C4.55604 6.23779 4.38515 7.05566 4.38515 8.38623ZM8.38905 4.54102C8.01063 4.54102 7.87636 4.24805 7.99843 3.89404L8.48671 2.40479C8.66981 1.86768 8.96278 1.68457 9.43886 1.61133C9.98817 1.55029 11.5263 1.48926 13.809 1.48926C16.0917 1.48926 17.6176 1.55029 18.1669 1.61133C18.643 1.68457 18.9359 1.86768 19.119 2.40479L19.6195 3.89404C19.7416 4.24805 19.6073 4.54102 19.2289 4.54102ZM7.27821 9.49707C6.77772 9.49707 6.41151 9.14307 6.41151 8.64258L6.41151 7.39746C6.41151 6.92139 6.77772 6.56738 7.27821 6.56738C7.76649 6.56738 8.1205 6.90918 8.1205 7.39746L8.1205 8.64258C8.1205 9.14307 7.76649 9.49707 7.27821 9.49707ZM11.9901 9.11865C11.5995 9.11865 11.3554 8.8501 11.3554 8.42285L11.3554 7.62939C11.3554 7.21436 11.5995 6.95801 11.9901 6.95801L15.5912 6.95801C15.9818 6.95801 16.2504 7.21436 16.2504 7.62939L16.2504 8.42285C16.2504 8.8501 15.9818 9.11865 15.5912 9.11865ZM20.413 9.49707C19.9369 9.49707 19.5707 9.14307 19.5707 8.64258L19.5707 7.39746C19.5707 6.93359 19.9369 6.56738 20.413 6.56738C20.9135 6.56738 21.2675 6.90918 21.2675 7.39746L21.2675 8.64258C21.2675 9.14307 20.9135 9.49707 20.413 9.49707ZM10.6351 16.8701L9.70741 16.1743C9.36561 15.9302 8.97499 15.8081 8.55995 15.8081L6.58241 15.8081C6.09413 15.8081 5.91102 16.394 6.30165 16.6748L8.16932 18.042C8.75526 18.4692 8.68202 19.0308 7.99843 19.3359L1.93153 21.9604C-0.412218 22.9614-0.631945 24.4995 1.32118 25.9399L2.24891 26.6235C2.59071 26.8799 2.98134 27.002 3.40858 27.002L5.37391 27.002C5.8744 27.002 6.0453 26.416 5.66688 26.1353L3.79921 24.7559C3.21327 24.3408 3.28651 23.7671 3.9579 23.4741L10.037 20.8374C12.3685 19.8364 12.5883 18.3105 10.6351 16.8701ZM23.4159 16.8945L22.4882 16.1987C22.1464 15.9424 21.7558 15.8325 21.3407 15.8325L19.3632 15.8325C18.8749 15.8325 18.6918 16.4062 19.0824 16.6992L20.9501 18.0664C21.5238 18.4814 21.4506 19.0552 20.7792 19.3481L14.7001 21.9849C12.3685 22.9858 12.1488 24.5117 14.1019 25.9521L15.0297 26.6357C15.3715 26.8921 15.7621 27.0142 16.1771 27.0142L18.1547 27.0142C18.643 27.0142 18.8261 26.4282 18.4354 26.1475L16.5678 24.7803C15.994 24.353 16.0673 23.7915 16.7387 23.4863L22.8178 20.8618C25.1493 19.8608 25.369 18.3228 23.4159 16.8945Z" fill="#5ac8f5"/>
 </g>
</svg>
