<?xml version="1.0" encoding="UTF-8"?>
<!--Generator: Apple Native CoreSVG 175.5-->
<!DOCTYPE svg
PUBLIC "-//W3C//DTD SVG 1.1//EN"
       "http://www.w3.org/Graphics/SVG/1.1/DTD/svg11.dtd">
<svg version="1.1" xmlns="http://www.w3.org/2000/svg" xmlns:xlink="http://www.w3.org/1999/xlink" width="25.9562" height="30.0903">
 <g>
  <rect height="30.0903" opacity="0" width="25.9562" x="0" y="0"/>
  <path d="M12.9659 17.041C17.5191 17.041 21.2178 13.3423 21.2178 8.78906C21.2178 8.61816 21.2178 8.45947 21.2056 8.28857C23.2442 8.08105 24.8311 6.35986 24.8311 4.26025C24.8311 2.03857 23.0245 0.231934 20.7906 0.231934C19.4478 0.231934 18.2515 0.891113 17.5191 1.9165C16.213 1.0376 14.6505 0.537109 12.9659 0.537109C11.2813 0.537109 9.71882 1.0376 8.41267 1.9165C7.68025 0.891113 6.48396 0.231934 5.14119 0.231934C2.9073 0.231934 1.10066 2.03857 1.10066 4.26025C1.10066 6.35986 2.68757 8.08105 4.72615 8.28857C4.71394 8.45947 4.71394 8.61816 4.71394 8.78906C4.71394 13.3423 8.41267 17.041 12.9659 17.041ZM9.77986 8.23975C9.21834 8.23975 8.73005 7.76367 8.73005 7.17773C8.73005 6.5918 9.21834 6.11572 9.77986 6.11572C10.3658 6.11572 10.8419 6.5918 10.8419 7.17773C10.8419 7.76367 10.3658 8.23975 9.77986 8.23975ZM16.1641 8.23975C15.5782 8.23975 15.1021 7.76367 15.1021 7.17773C15.1021 6.5918 15.5782 6.11572 16.1641 6.11572C16.7257 6.11572 17.2139 6.5918 17.2139 7.17773C17.2139 7.76367 16.7257 8.23975 16.1641 8.23975ZM5.14119 1.97754C5.94685 1.97754 6.65486 2.39258 7.05769 3.03955C6.11775 3.9917 5.39753 5.2002 5.03132 6.53076C4.94587 6.53076 4.87263 6.51855 4.8116 6.50635C3.70076 6.34766 2.85847 5.40771 2.85847 4.26025C2.85847 3.00293 3.88386 1.97754 5.14119 1.97754ZM20.7906 1.97754C22.0479 1.97754 23.0733 3.00293 23.0733 4.26025C23.0733 5.39551 22.231 6.35986 21.1202 6.50635C21.0469 6.51855 20.9493 6.53076 20.9005 6.53076C20.5343 5.2002 19.814 3.9917 18.8741 3.03955C19.2769 2.39258 19.9849 1.97754 20.7906 1.97754ZM12.9903 16.0156C10.8907 16.0156 9.21834 14.3311 9.21834 12.2437C9.21834 10.1685 10.9029 8.47168 12.9903 8.47168C15.0655 8.47168 16.7623 10.1562 16.7623 12.2437C16.7623 14.3188 15.0533 16.0156 12.9903 16.0156ZM12.9659 12.7197C13.6983 12.7197 14.8702 11.6211 14.8702 11.3159C14.8702 10.8154 14.0645 10.1196 12.9659 10.1196C11.8673 10.1196 11.025 10.8154 11.025 11.3159C11.025 11.6211 12.2457 12.7197 12.9659 12.7197ZM23.5006 15.3198L19.0206 13.2935L14.1378 16.5527L11.8184 16.5527L6.93562 13.2935L2.45564 15.3198C0.31941 16.2842-0.58391 18.8354 0.392652 20.9473C0.89314 21.9971 1.75984 22.7539 2.80964 23.1079C3.45662 20.752 5.23884 19.0796 7.39949 19.0796C10.1339 19.0796 12.2701 21.7651 12.2701 25.1221C12.2701 26.6113 11.8428 27.9663 11.147 29.0283C12.2945 29.187 13.6495 29.1748 14.8092 29.0283C14.1134 27.9663 13.6861 26.6113 13.6861 25.1221C13.6861 21.7651 15.8223 19.0796 18.5567 19.0796C20.7174 19.0796 22.4996 20.752 23.1466 23.1079C24.1964 22.7539 25.0631 21.9971 25.5636 20.9473C26.5401 18.8354 25.6368 16.2842 23.5006 15.3198ZM7.39949 30.0903C9.5113 30.0903 11.1593 27.8687 11.1593 25.1221C11.1593 22.4121 9.5113 20.1904 7.39949 20.1904C5.28767 20.1904 3.63972 22.4121 3.63972 25.1221C3.63972 27.8687 5.28767 30.0903 7.39949 30.0903ZM18.5567 30.0903C20.6685 30.0903 22.3165 27.8687 22.3165 25.1221C22.3165 22.4121 20.6685 20.1904 18.5567 20.1904C16.4449 20.1904 14.7969 22.4121 14.7969 25.1221C14.7969 27.8687 16.4449 30.0903 18.5567 30.0903Z" fill="#5ac8f5"/>
 </g>
</svg>
