<?xml version="1.0" encoding="UTF-8"?>
<!--Generator: Apple Native CoreSVG 175.5-->
<!DOCTYPE svg
PUBLIC "-//W3C//DTD SVG 1.1//EN"
       "http://www.w3.org/Graphics/SVG/1.1/DTD/svg11.dtd">
<svg version="1.1" xmlns="http://www.w3.org/2000/svg" xmlns:xlink="http://www.w3.org/1999/xlink" width="24.7711" height="26.1841">
 <g>
  <rect height="26.1841" opacity="0" width="24.7711" x="0" y="0"/>
  <path d="M2.10876 6.23779L2.10876 22.3511C2.10876 24.9023 3.36609 26.1719 5.89294 26.1719L18.8568 26.1719C19.931 26.1719 20.7611 25.9277 21.3226 25.4395ZM22.641 19.9829L22.641 3.83301C22.641 1.29395 21.3837 0 18.8568 0L5.89294 0C4.81873 0 3.98865 0.256348 3.41492 0.744629ZM23.1659 25.1953C23.5443 25.5737 24.1425 25.5737 24.4965 25.1953C24.8627 24.8291 24.8627 24.231 24.4965 23.8525L1.60828 0.976562C1.24207 0.610352 0.643921 0.610352 0.265503 0.976562C-0.088501 1.34277-0.088501 1.95312 0.265503 2.30713Z" fill="#5ac8f5"/>
 </g>
</svg>
