<?xml version="1.0" encoding="UTF-8"?>
<!--Generator: Apple Native CoreSVG 175.5-->
<!DOCTYPE svg
PUBLIC "-//W3C//DTD SVG 1.1//EN"
       "http://www.w3.org/Graphics/SVG/1.1/DTD/svg11.dtd">
<svg version="1.1" xmlns="http://www.w3.org/2000/svg" xmlns:xlink="http://www.w3.org/1999/xlink" width="30.7995" height="18.2983">
 <g>
  <rect height="18.2983" opacity="0" width="30.7995" x="0" y="0"/>
  <path d="M2.24548 18.2983C3.09997 18.2983 3.34411 17.8589 3.44176 17.2974C4.5404 11.2183 7.06725 6.25 12.4383 0.78125C12.7435 0.463867 12.4994 0.0244141 12.1332 0.0244141L11.5839 0.0244141C11.2787 0.0244141 11.0345 0.0854492 10.5951 0.439453C6.24938 3.86963 1.75719 9.26514 0.0360024 17.1997C-0.0982749 17.7734 0.133659 18.2983 0.890495 18.2983ZM29.9921 18.2983C30.6757 18.2983 30.9442 17.8101 30.7245 17.1997C28.6981 11.8164 28.2953 6.72607 29.6625 0.744629C29.7723 0.256348 29.4794 0.0244141 29.1009 0.0244141L28.6249 0.0244141C28.222 0.0244141 27.9657 0.158691 27.8436 0.537109C25.9882 6.22559 26.0858 11.9873 27.5018 17.5781C27.5995 18.0054 27.8924 18.2983 28.515 18.2983ZM18.8226 3.19824C19.2865 3.19824 19.5306 3.08838 19.7382 2.70996C19.9701 2.29492 20.3119 1.70898 20.9222 0.78125C21.1908 0.378418 20.9222 0.0244141 20.5072 0.0244141L20.141 0.0244141C19.7992 0.0244141 19.6161 0.0854492 19.4086 0.305176C18.9813 0.744629 18.432 1.42822 17.8949 2.23389C17.5897 2.68555 17.7972 3.19824 18.3465 3.19824ZM16.5521 9.17969C17.077 9.17969 17.309 8.92334 17.431 8.48389C17.5531 7.92236 17.7728 7.14111 18.0414 6.33545C18.2489 5.76172 17.9193 5.49316 17.4554 5.49316L16.7108 5.49316C16.2469 5.49316 16.0516 5.63965 15.8563 6.03027C15.6 6.62842 15.2704 7.4707 14.9652 8.3252C14.8187 8.78906 14.9896 9.17969 15.5756 9.17969ZM15.3314 18.2983C15.8807 18.2983 16.1859 18.0298 16.1859 17.4438C16.2225 15.564 16.3446 13.7695 16.5033 12.5488C16.6009 11.8408 16.3324 11.6333 15.7587 11.6333L15.0262 11.6333C14.5868 11.6333 14.2694 11.8164 14.1473 12.3047C13.8055 13.6597 13.598 15.7837 13.5492 17.4316C13.537 18.0054 13.8177 18.2983 14.3671 18.2983Z" fill="#5ac8f5"/>
 </g>
</svg>
