<?xml version="1.0" encoding="UTF-8"?>
<!--Generator: Apple Native CoreSVG 175.5-->
<!DOCTYPE svg
PUBLIC "-//W3C//DTD SVG 1.1//EN"
       "http://www.w3.org/Graphics/SVG/1.1/DTD/svg11.dtd">
<svg version="1.1" xmlns="http://www.w3.org/2000/svg" xmlns:xlink="http://www.w3.org/1999/xlink" width="24.9023" height="24.9146">
 <g>
  <rect height="24.9146" opacity="0" width="24.9023" x="0" y="0"/>
  <path d="M12.4512 24.9023C19.2627 24.9023 24.9023 19.2505 24.9023 12.4512C24.9023 5.63965 19.2505 0 12.439 0C5.63965 0 0 5.63965 0 12.4512C0 19.2505 5.65186 24.9023 12.4512 24.9023ZM5.96924 17.5903C5.51758 17.5903 5.22461 17.2974 5.22461 16.8457C5.22461 16.5894 5.31006 16.3696 5.50537 16.1621L8.82568 12.2559C9.42383 11.5601 10.083 10.8521 10.083 10.0342C10.083 9.10645 9.42383 8.48389 8.41064 8.48389C7.51953 8.48389 6.88477 8.93555 6.56738 9.8877C6.38428 10.2661 6.21338 10.4736 5.84717 10.4736C5.40771 10.4736 5.13916 10.1685 5.13916 9.7168C5.13916 9.57031 5.16357 9.42383 5.18799 9.26514C5.51758 7.9834 6.84814 7.01904 8.34961 7.01904C10.3271 7.01904 11.6089 8.14209 11.6089 9.8999C11.6089 11.1572 10.9131 12.0605 9.98535 13.147L7.53174 16.0034L7.53174 16.1011L11.1816 16.1011C11.5723 16.1011 11.8774 16.3574 11.8774 16.8335C11.8774 17.2852 11.5723 17.5903 11.1816 17.5903ZM16.8335 17.8833C15.1245 17.8833 13.7695 16.8335 13.4399 15.6738C13.3911 15.5151 13.3789 15.3809 13.3789 15.21C13.3789 14.7705 13.6841 14.4531 14.1113 14.4531C14.4653 14.4531 14.6851 14.6484 14.8315 15.0513C15.1733 15.9302 15.8569 16.4185 16.8457 16.4185C18.0542 16.4185 18.8843 15.686 18.8843 14.7095C18.8843 13.6841 18.1274 13.0127 16.9189 13.0127L16.1987 13.0127C15.7715 13.0127 15.5029 12.6953 15.5029 12.2925C15.5029 11.8286 15.7715 11.5356 16.1987 11.5356L16.8701 11.5356C17.8589 11.5356 18.5669 10.8765 18.5669 9.96094C18.5669 9.08203 17.8711 8.48389 16.8823 8.48389C15.9058 8.48389 15.2954 8.97217 15.0146 9.85107C14.8804 10.2539 14.6973 10.4492 14.3188 10.4492C13.8794 10.4492 13.5864 10.1318 13.5864 9.68018C13.5864 9.52148 13.5986 9.38721 13.623 9.22852C13.9526 7.99561 15.21 7.01904 16.9189 7.01904C18.7988 7.01904 20.1172 8.14209 20.1172 9.75342C20.1172 10.9375 19.2993 11.9873 18.2739 12.1582L18.2739 12.2314C19.5435 12.3657 20.459 13.4399 20.459 14.7827C20.459 16.5894 18.9697 17.8833 16.8335 17.8833Z" fill="#5ac8f5"/>
 </g>
</svg>
