<?xml version="1.0" encoding="UTF-8"?>
<!--Generator: Apple Native CoreSVG 175.5-->
<!DOCTYPE svg
PUBLIC "-//W3C//DTD SVG 1.1//EN"
       "http://www.w3.org/Graphics/SVG/1.1/DTD/svg11.dtd">
<svg version="1.1" xmlns="http://www.w3.org/2000/svg" xmlns:xlink="http://www.w3.org/1999/xlink" width="24.9023" height="24.9146">
 <g>
  <rect height="24.9146" opacity="0" width="24.9023" x="0" y="0"/>
  <path d="M12.4512 24.9023C19.2627 24.9023 24.9023 19.2505 24.9023 12.4512C24.9023 5.63965 19.2505 0 12.439 0C5.63965 0 0 5.63965 0 12.4512C0 19.2505 5.65186 24.9023 12.4512 24.9023ZM18.6401 18.8354L6.32324 6.51855C6.10352 6.29883 6.09131 5.94482 6.32324 5.71289C6.54297 5.48096 6.90918 5.48096 7.12891 5.71289L19.4458 18.0298C19.6777 18.2617 19.6777 18.6157 19.4458 18.8354C19.2261 19.0796 18.8721 19.0796 18.6401 18.8354ZM9.64355 18.335C8.48389 18.335 7.91016 17.7734 7.91016 16.626L7.91016 10.73C7.91016 10.3149 7.99561 9.99756 8.1543 9.74121L16.7725 18.335ZM19.6655 16.8701L11.8164 9.0332L18.0542 9.0332C19.2139 9.0332 19.7876 9.61914 19.7876 10.73L19.7876 16.1377C19.7876 16.4185 19.7388 16.6626 19.6655 16.8701ZM5.15137 13.9648L5.15137 8.14209C5.15137 7.67822 5.24902 7.2998 5.44434 7.03125L7.56836 9.14307C7.2998 9.50928 7.16553 10.022 7.16553 10.6567L7.16553 15.6738L6.87256 15.6738C5.7251 15.6738 5.15137 15.1123 5.15137 13.9648ZM11.0596 8.26416L9.21631 6.40869L15.2954 6.40869C16.4551 6.40869 17.0166 6.98242 17.0166 8.14209L17.0166 8.26416Z" fill="#5ac8f5"/>
 </g>
</svg>
