<?xml version="1.0" encoding="UTF-8"?>
<!--Generator: Apple Native CoreSVG 175.5-->
<!DOCTYPE svg
PUBLIC "-//W3C//DTD SVG 1.1//EN"
       "http://www.w3.org/Graphics/SVG/1.1/DTD/svg11.dtd">
<svg version="1.1" xmlns="http://www.w3.org/2000/svg" xmlns:xlink="http://www.w3.org/1999/xlink" width="22.4731" height="22.4976">
 <g>
  <rect height="22.4976" opacity="0" width="22.4731" x="0" y="0"/>
  <path d="M3.83301 22.4976L18.6401 22.4976C21.2036 22.4976 22.4731 21.228 22.4731 18.7134L22.4731 3.80859C22.4731 1.29395 21.2036 0.0244141 18.6401 0.0244141L3.83301 0.0244141C1.28174 0.0244141 0 1.28174 0 3.80859L0 18.7134C0 21.2402 1.28174 22.4976 3.83301 22.4976ZM3.85742 20.5322C2.63672 20.5322 1.96533 19.8853 1.96533 18.6157L1.96533 3.90625C1.96533 2.63672 2.63672 1.98975 3.85742 1.98975L18.6157 1.98975C19.8242 1.98975 20.5078 2.63672 20.5078 3.90625L20.5078 18.6157C20.5078 19.8853 19.8242 20.5322 18.6157 20.5322Z" fill="#5ac8f5" fill-opacity="0.5"/>
  <path d="M9.17969 17.3462C9.64355 17.3462 9.97314 17.0166 9.97314 16.5405L9.97314 15.3076L12.8174 15.3076C13.1714 15.3076 13.4033 15.0513 13.4033 14.6973C13.4033 14.3555 13.1714 14.0991 12.8174 14.0991L9.97314 14.0991L9.97314 12.9028L12.0605 12.9028C14.3311 12.9028 15.7715 11.3892 15.7715 9.27734C15.7715 7.17773 14.3433 5.63965 12.0728 5.63965L9.16748 5.63965C8.69141 5.63965 8.38623 5.96924 8.38623 6.45752L8.38623 11.7065L7.2876 11.7065C6.93359 11.7065 6.68945 11.9629 6.68945 12.3047C6.68945 12.6465 6.93359 12.915 7.2876 12.915L8.38623 12.915L8.38623 14.0991L7.2998 14.0991C6.9458 14.0991 6.71387 14.3555 6.71387 14.6973C6.71387 15.0513 6.9458 15.3076 7.2998 15.3076L8.38623 15.3076L8.38623 16.5405C8.38623 17.0166 8.71582 17.3462 9.17969 17.3462ZM9.98535 11.4746L9.98535 7.10449L11.792 7.10449C13.3667 7.10449 14.1724 7.94678 14.1724 9.28955C14.1724 10.6445 13.3545 11.499 11.792 11.499Z" fill="#5ac8f5"/>
 </g>
</svg>
