<?xml version="1.0" encoding="UTF-8"?>
<!--Generator: Apple Native CoreSVG 175.5-->
<!DOCTYPE svg
PUBLIC "-//W3C//DTD SVG 1.1//EN"
       "http://www.w3.org/Graphics/SVG/1.1/DTD/svg11.dtd">
<svg version="1.1" xmlns="http://www.w3.org/2000/svg" xmlns:xlink="http://www.w3.org/1999/xlink" width="24.9023" height="24.9146">
 <g>
  <rect height="24.9146" opacity="0" width="24.9023" x="0" y="0"/>
  <path d="M12.4512 24.9023C19.2627 24.9023 24.9023 19.2505 24.9023 12.4512C24.9023 5.63965 19.2505 0 12.439 0C5.63965 0 0 5.63965 0 12.4512C0 19.2505 5.65186 24.9023 12.4512 24.9023ZM12.4512 22.8271C6.68945 22.8271 2.0874 18.2129 2.0874 12.4512C2.0874 6.68945 6.67725 2.0752 12.439 2.0752C18.2007 2.0752 22.8271 6.68945 22.8271 12.4512C22.8271 18.2129 18.2129 22.8271 12.4512 22.8271Z" fill="#5ac8f5" fill-opacity="0.5"/>
  <path d="M9.8877 17.688C10.376 17.688 10.6323 17.3462 10.6323 16.8701L10.6323 15.4297L11.3037 15.4297C11.7188 15.4297 11.9873 15.1855 11.9873 14.7583C11.9873 14.3188 11.7188 14.0625 11.3037 14.0625L10.6323 14.0625L10.6323 8.34961C10.6323 7.6416 10.144 7.18994 9.42383 7.18994C8.71582 7.18994 8.28857 7.4585 7.89795 8.12988C6.87256 9.83887 5.63965 11.9385 4.82178 13.4155C4.61426 13.7939 4.55322 14.0625 4.55322 14.3921C4.55322 15.0391 4.98047 15.4297 5.59082 15.4297L9.15527 15.4297L9.15527 16.8701C9.15527 17.334 9.41162 17.688 9.8877 17.688ZM9.15527 14.0625L6.14014 14.0625L6.14014 14.0137C6.86035 12.6343 8.11768 10.4858 9.09424 8.83789L9.15527 8.83789ZM16.7725 17.7124C18.8965 17.7124 20.3491 16.4917 20.3491 14.7217C20.3491 13.4766 19.5801 12.4634 18.2739 12.1948L18.2739 12.1216C19.3848 11.8164 19.9829 10.9375 19.9829 9.87549C19.9829 8.28857 18.6646 7.18994 16.7969 7.18994C14.9292 7.18994 13.6108 8.28857 13.6108 9.87549C13.6108 10.9375 14.1846 11.792 15.3198 12.1216L15.3198 12.1948C14.0015 12.4634 13.2446 13.4888 13.2446 14.7339C13.2446 16.5161 14.6606 17.7124 16.7725 17.7124ZM16.8091 16.4429C15.6372 16.4429 14.7949 15.6982 14.7949 14.624C14.7949 13.5742 15.6372 12.8052 16.8091 12.8052C17.981 12.8052 18.7988 13.562 18.7988 14.624C18.7988 15.6982 17.9565 16.4429 16.8091 16.4429ZM16.7969 11.6333C15.8447 11.6333 15.1611 10.9497 15.1611 10.022C15.1611 9.09424 15.8325 8.45947 16.7969 8.45947C17.749 8.45947 18.4204 9.09424 18.4204 10.022C18.4204 10.9497 17.749 11.6333 16.7969 11.6333Z" fill="#5ac8f5"/>
 </g>
</svg>
