<?xml version="1.0" encoding="UTF-8"?>
<!--Generator: Apple Native CoreSVG 175.5-->
<!DOCTYPE svg
PUBLIC "-//W3C//DTD SVG 1.1//EN"
       "http://www.w3.org/Graphics/SVG/1.1/DTD/svg11.dtd">
<svg version="1.1" xmlns="http://www.w3.org/2000/svg" xmlns:xlink="http://www.w3.org/1999/xlink" width="19.4542" height="19.7652">
 <g>
  <rect height="19.7652" opacity="0" width="19.4542" x="0" y="0"/>
  <path d="M3.33494 18.6533L9.91453 12.0738L7.76609 9.93752L1.1865 16.5171L0.026835 19.2271C-0.0952353 19.52 0.222148 19.8618 0.515116 19.7398ZM13.247 8.75344L16.6528 5.34768L14.5166 3.19924L11.1108 6.61721ZM17.727 4.29787L18.9599 3.08938C19.5825 2.46682 19.6191 1.80764 19.0576 1.23391L18.6426 0.831075C18.081 0.269551 17.4096 0.330586 16.7993 0.928731L15.5542 2.14943ZM17.6538 17.8355C18.02 18.2017 18.6304 18.2017 18.9844 17.8355C19.3384 17.4571 19.3506 16.8711 18.9844 16.5049L3.64012 1.16066C3.27391 0.794454 2.65135 0.782246 2.29734 1.16066C1.93113 1.51467 1.93113 2.13723 2.29734 2.49123Z" fill="#5ac8f5"/>
 </g>
</svg>
