<?xml version="1.0" encoding="UTF-8"?>
<!--Generator: Apple Native CoreSVG 175.5-->
<!DOCTYPE svg
PUBLIC "-//W3C//DTD SVG 1.1//EN"
       "http://www.w3.org/Graphics/SVG/1.1/DTD/svg11.dtd">
<svg version="1.1" xmlns="http://www.w3.org/2000/svg" xmlns:xlink="http://www.w3.org/1999/xlink" width="22.4731" height="22.4976">
 <g>
  <rect height="22.4976" opacity="0" width="22.4731" x="0" y="0"/>
  <path d="M3.83301 22.4976L18.6401 22.4976C21.2036 22.4976 22.4731 21.228 22.4731 18.7134L22.4731 3.80859C22.4731 1.29395 21.2036 0.0244141 18.6401 0.0244141L3.83301 0.0244141C1.28174 0.0244141 0 1.28174 0 3.80859L0 18.7134C0 21.2402 1.28174 22.4976 3.83301 22.4976ZM3.85742 20.5322C2.63672 20.5322 1.96533 19.8853 1.96533 18.6157L1.96533 3.90625C1.96533 2.63672 2.63672 1.98975 3.85742 1.98975L18.6157 1.98975C19.8242 1.98975 20.5078 2.63672 20.5078 3.90625L20.5078 18.6157C20.5078 19.8853 19.8242 20.5322 18.6157 20.5322Z" fill="#5ac8f5" fill-opacity="0.5"/>
  <path d="M8.69141 16.4795C9.17969 16.4795 9.43604 16.1377 9.43604 15.6616L9.43604 14.2212L10.1074 14.2212C10.5225 14.2212 10.791 13.9771 10.791 13.5498C10.791 13.1104 10.5225 12.854 10.1074 12.854L9.43604 12.854L9.43604 7.14111C9.43604 6.43311 8.94775 5.98145 8.23975 5.98145C7.53174 5.98145 7.09229 6.25 6.70166 6.92139C5.67627 8.63037 4.44336 10.73 3.62549 12.207C3.43018 12.5854 3.35693 12.854 3.35693 13.1836C3.35693 13.8306 3.78418 14.2212 4.39453 14.2212L7.95898 14.2212L7.95898 15.6616C7.95898 16.1255 8.21533 16.4795 8.69141 16.4795ZM7.95898 12.854L4.94385 12.854L4.94385 12.8052C5.66406 11.4258 6.92139 9.27734 7.89795 7.62939L7.95898 7.62939ZM15.5762 16.5039C17.7002 16.5039 19.1528 15.2832 19.1528 13.5132C19.1528 12.2681 18.3838 11.2549 17.0776 10.9863L17.0776 10.9131C18.1885 10.6079 18.7866 9.729 18.7866 8.66699C18.7866 7.08008 17.4683 5.98145 15.6006 5.98145C13.7329 5.98145 12.4146 7.08008 12.4146 8.66699C12.4146 9.729 12.9883 10.5835 14.1235 10.9131L14.1235 10.9863C12.8052 11.2549 12.0483 12.2803 12.0483 13.5254C12.0483 15.3076 13.4644 16.5039 15.5762 16.5039ZM15.6128 15.2344C14.4531 15.2344 13.6108 14.4897 13.6108 13.4155C13.6108 12.3657 14.4531 11.5967 15.6128 11.5967C16.7847 11.5967 17.6025 12.3535 17.6025 13.4155C17.6025 14.4897 16.7603 15.2344 15.6128 15.2344ZM15.6006 10.4248C14.6484 10.4248 13.9648 9.74121 13.9648 8.81348C13.9648 7.88574 14.6362 7.25098 15.6006 7.25098C16.5527 7.25098 17.2241 7.88574 17.2241 8.81348C17.2241 9.74121 16.5527 10.4248 15.6006 10.4248Z" fill="#5ac8f5"/>
 </g>
</svg>
