<?xml version="1.0" encoding="UTF-8"?>
<!--Generator: Apple Native CoreSVG 175.5-->
<!DOCTYPE svg
PUBLIC "-//W3C//DTD SVG 1.1//EN"
       "http://www.w3.org/Graphics/SVG/1.1/DTD/svg11.dtd">
<svg version="1.1" xmlns="http://www.w3.org/2000/svg" xmlns:xlink="http://www.w3.org/1999/xlink" width="21.5088" height="19.0552">
 <g>
  <rect height="19.0552" opacity="0" width="21.5088" x="0" y="0"/>
  <path d="M2.18506 17.5415L2.18506 1.07422C2.18506 0.439453 1.7334 0 1.08643 0C0.45166 0 0 0.439453 0 1.07422L0 17.5415C0 18.1641 0.45166 18.5913 1.08643 18.5913C1.7334 18.5913 2.18506 18.1641 2.18506 17.5415ZM21.5088 9.30176C21.5088 8.65479 21.0693 8.20312 20.4346 8.20312L8.10547 8.20312L5.49316 8.30078L9.49707 4.62646L12.1948 1.87988C12.4023 1.68457 12.5122 1.3916 12.5122 1.09863C12.5122 0.488281 12.0361 0.0366211 11.438 0.0366211C11.1328 0.0366211 10.8765 0.158691 10.6201 0.402832L2.52686 8.47168C2.28271 8.71582 2.14844 8.99658 2.14844 9.30176C2.14844 9.59473 2.28271 9.8877 2.52686 10.1196L10.6201 18.1885C10.8765 18.4326 11.1328 18.5425 11.438 18.5425C12.0361 18.5425 12.5122 18.103 12.5122 17.4927C12.5122 17.1997 12.4023 16.9067 12.1948 16.6992L9.49707 13.9648L5.48096 10.3027L8.10547 10.3882L20.4346 10.3882C21.0693 10.3882 21.5088 9.93652 21.5088 9.30176Z" fill="#5ac8f5"/>
 </g>
</svg>
