<?xml version="1.0" encoding="UTF-8"?>
<!--Generator: Apple Native CoreSVG 175.5-->
<!DOCTYPE svg
PUBLIC "-//W3C//DTD SVG 1.1//EN"
       "http://www.w3.org/Graphics/SVG/1.1/DTD/svg11.dtd">
<svg version="1.1" xmlns="http://www.w3.org/2000/svg" xmlns:xlink="http://www.w3.org/1999/xlink" width="24.9023" height="24.9146">
 <g>
  <rect height="24.9146" opacity="0" width="24.9023" x="0" y="0"/>
  <path d="M12.4512 24.9023C19.2627 24.9023 24.9023 19.2505 24.9023 12.4512C24.9023 5.63965 19.2505 0 12.439 0C5.63965 0 0 5.63965 0 12.4512C0 19.2505 5.65186 24.9023 12.4512 24.9023ZM12.4512 22.8271C6.68945 22.8271 2.0874 18.2129 2.0874 12.4512C2.0874 6.68945 6.67725 2.0752 12.439 2.0752C18.2007 2.0752 22.8271 6.68945 22.8271 12.4512C22.8271 18.2129 18.2129 22.8271 12.4512 22.8271Z" fill="#5ac8f5" fill-opacity="0.5"/>
  <path d="M7.00684 16.7114L17.8589 16.7114C18.9697 16.7114 19.6045 16.0889 19.6045 14.978L19.6045 8.76465C19.6045 7.6416 18.9819 7.01904 17.8589 7.01904L7.00684 7.01904C5.896 7.01904 5.26123 7.6416 5.26123 8.76465L5.26123 14.978C5.26123 16.0889 5.9082 16.7114 7.00684 16.7114ZM7.14111 15.1733C6.88477 15.1733 6.81152 15.1001 6.81152 14.8438L6.81152 8.89893C6.81152 8.63037 6.88477 8.55713 7.14111 8.55713L17.7246 8.55713C17.981 8.55713 18.0664 8.64258 18.0664 8.89893L18.0664 14.8438C18.0664 15.0879 17.981 15.1733 17.7246 15.1733ZM9.27734 19.1895L15.625 19.1895C16.04 19.1895 16.3818 18.8354 16.3818 18.4082C16.3818 18.0054 16.0278 17.6514 15.625 17.6514L9.27734 17.6514C8.8623 17.6514 8.49609 18.0054 8.49609 18.4082C8.49609 18.8354 8.8501 19.1895 9.27734 19.1895Z" fill="#5ac8f5"/>
 </g>
</svg>
