<?xml version="1.0" encoding="UTF-8"?>
<!--Generator: Apple Native CoreSVG 175.5-->
<!DOCTYPE svg
PUBLIC "-//W3C//DTD SVG 1.1//EN"
       "http://www.w3.org/Graphics/SVG/1.1/DTD/svg11.dtd">
<svg version="1.1" xmlns="http://www.w3.org/2000/svg" xmlns:xlink="http://www.w3.org/1999/xlink" width="22.4731" height="22.4976">
 <g>
  <rect height="22.4976" opacity="0" width="22.4731" x="0" y="0"/>
  <path d="M3.83301 22.4976L18.6401 22.4976C21.2036 22.4976 22.4731 21.228 22.4731 18.7134L22.4731 3.80859C22.4731 1.29395 21.2036 0.0244141 18.6401 0.0244141L3.83301 0.0244141C1.28174 0.0244141 0 1.28174 0 3.80859L0 18.7134C0 21.2402 1.28174 22.4976 3.83301 22.4976Z" fill="#5ac8f5" fill-opacity="0.25"/>
  <path d="M7.88574 4.6875L14.5874 4.6875C15.1245 4.6875 15.5151 5.07812 15.5151 5.62744L15.5151 16.8945C15.5151 17.4316 15.1245 17.8223 14.5874 17.8223L7.88574 17.8223C7.34863 17.8223 6.95801 17.4316 6.95801 16.8945L6.95801 5.62744C6.95801 5.07812 7.34863 4.6875 7.88574 4.6875ZM8.80127 12.4268C8.55713 12.4268 8.38623 12.5977 8.38623 12.854L8.38623 15.9668C8.38623 16.2231 8.55713 16.394 8.80127 16.394L13.6719 16.394C13.916 16.394 14.0869 16.2231 14.0869 15.9668L14.0869 12.854C14.0869 12.5977 13.916 12.4268 13.6719 12.4268Z" fill="#5ac8f5"/>
 </g>
</svg>
