<?xml version="1.0" encoding="UTF-8"?>
<!--Generator: Apple Native CoreSVG 175.5-->
<!DOCTYPE svg
PUBLIC "-//W3C//DTD SVG 1.1//EN"
       "http://www.w3.org/Graphics/SVG/1.1/DTD/svg11.dtd">
<svg version="1.1" xmlns="http://www.w3.org/2000/svg" xmlns:xlink="http://www.w3.org/1999/xlink" width="24.9023" height="24.9146">
 <g>
  <rect height="24.9146" opacity="0" width="24.9023" x="0" y="0"/>
  <path d="M12.4512 24.9023C19.2627 24.9023 24.9023 19.2505 24.9023 12.4512C24.9023 5.63965 19.2505 0 12.439 0C5.63965 0 0 5.63965 0 12.4512C0 19.2505 5.65186 24.9023 12.4512 24.9023ZM4.56543 11.3037C4.56543 9.16748 6.09131 7.77588 8.43506 7.77588L13.2446 7.77588L13.2446 6.21338C13.2446 5.79834 13.5132 5.52979 13.9282 5.52979C14.0991 5.52979 14.3066 5.60303 14.4531 5.7251L17.2974 8.10547C17.6514 8.39844 17.6514 8.8501 17.2974 9.14307L14.4531 11.5112C14.3066 11.6333 14.0991 11.6943 13.9282 11.6943C13.5132 11.6943 13.2446 11.438 13.2446 10.9985L13.2446 9.44824L8.30078 9.44824C7.08008 9.44824 6.25 10.2173 6.25 11.3892L6.25 12.085C6.25 12.5366 5.88379 12.915 5.39551 12.915C4.94385 12.915 4.56543 12.5366 4.56543 12.085ZM20.3491 13.6353C20.3491 15.7837 18.8232 17.1753 16.4795 17.1753L11.6699 17.1753L11.6699 18.7378C11.6699 19.165 11.4136 19.4336 10.9863 19.4336C10.8154 19.4336 10.6201 19.3604 10.4736 19.2383L7.61719 16.8579C7.26318 16.5649 7.26318 16.1011 7.61719 15.8081L10.4736 13.4521C10.6079 13.3423 10.8154 13.269 10.9863 13.269C11.4136 13.269 11.6699 13.5254 11.6699 13.9526L11.6699 15.5029L16.6138 15.5029C17.8345 15.5029 18.6646 14.7339 18.6646 13.5498L18.6646 12.8662C18.6646 12.3901 19.0186 12.0361 19.519 12.0361C19.9951 12.0361 20.3491 12.3901 20.3491 12.8662Z" fill="#5ac8f5"/>
 </g>
</svg>
