<?xml version="1.0" encoding="UTF-8"?>
<!--Generator: Apple Native CoreSVG 175.5-->
<!DOCTYPE svg
PUBLIC "-//W3C//DTD SVG 1.1//EN"
       "http://www.w3.org/Graphics/SVG/1.1/DTD/svg11.dtd">
<svg version="1.1" xmlns="http://www.w3.org/2000/svg" xmlns:xlink="http://www.w3.org/1999/xlink" width="21.031" height="20.0073">
 <g>
  <rect height="20.0073" opacity="0" width="21.031" x="0" y="0"/>
  <path d="M12.0589 12.561C13.7801 11.8164 14.5979 9.83887 13.8533 8.12988L11.3997 2.51465C10.6307 0.78125 8.66532-0.0244141 6.94413 0.708008C5.23514 1.45264 4.41727 3.45459 5.1619 5.15137L7.62772 10.7666C8.37235 12.4512 10.3499 13.2935 12.0589 12.561ZM10.826 11.5601C9.64188 11.5601 8.71415 10.6323 8.71415 9.46045C8.71415 8.30078 9.64188 7.36084 10.826 7.36084C11.9856 7.36084 12.9134 8.30078 12.9134 9.46045C12.9134 10.6323 11.9978 11.5601 10.826 11.5601ZM10.826 10.6934C11.5218 10.6934 12.0467 10.144 12.0467 9.46045C12.0467 8.78906 11.5218 8.22754 10.826 8.22754C10.1058 8.22754 9.58085 8.78906 9.58085 9.46045C9.58085 10.144 10.1058 10.6934 10.826 10.6934ZM0.266883 8.97217C-0.648644 12.1216 0.840614 15.0269 3.97782 16.2598L6.28495 17.1753C10.118 18.6768 14.012 17.8711 15.5501 13.5864C16.3924 11.2671 16.136 9.21631 15.013 7.87354C15.8797 10.1196 14.781 12.6587 12.5349 13.6475C10.2278 14.6118 7.56669 13.5498 6.5535 11.2427L4.08768 5.62744C3.95341 5.33447 3.85575 5.05371 3.79472 4.74854C2.45194 5.87158 0.889442 6.87256 0.266883 8.97217ZM16.6609 13.9893C15.7942 16.4062 14.1707 18.0054 12.1077 18.6768C13.0476 19.519 14.2806 20.0073 15.6355 20.0073C18.6141 20.0073 21.031 17.5903 21.031 14.5996C21.031 12.0972 19.3343 9.99756 17.0393 9.375C17.3567 10.8887 17.2347 12.4268 16.6609 13.9893Z" fill="#5ac8f5"/>
 </g>
</svg>
