<?xml version="1.0" encoding="UTF-8"?>
<!--Generator: Apple Native CoreSVG 175.5-->
<!DOCTYPE svg
PUBLIC "-//W3C//DTD SVG 1.1//EN"
       "http://www.w3.org/Graphics/SVG/1.1/DTD/svg11.dtd">
<svg version="1.1" xmlns="http://www.w3.org/2000/svg" xmlns:xlink="http://www.w3.org/1999/xlink" width="24.9023" height="24.9146">
 <g>
  <rect height="24.9146" opacity="0" width="24.9023" x="0" y="0"/>
  <path d="M12.4512 24.9023C19.2627 24.9023 24.9023 19.2505 24.9023 12.4512C24.9023 5.63965 19.2505 0 12.439 0C5.63965 0 0 5.63965 0 12.4512C0 19.2505 5.65186 24.9023 12.4512 24.9023ZM12.4512 22.8271C6.68945 22.8271 2.0874 18.2129 2.0874 12.4512C2.0874 6.68945 6.67725 2.0752 12.439 2.0752C18.2007 2.0752 22.8271 6.68945 22.8271 12.4512C22.8271 18.2129 18.2129 22.8271 12.4512 22.8271ZM7.31201 17.8345C7.77588 17.8345 8.11768 17.5049 8.11768 17.0288L8.11768 7.86133C8.11768 7.38525 7.77588 7.05566 7.31201 7.05566C6.83594 7.05566 6.48193 7.38525 6.48193 7.86133L6.48193 17.0288C6.48193 17.5049 6.83594 17.8345 7.31201 17.8345ZM20.1172 12.4634C20.1172 11.9873 19.7632 11.6455 19.2993 11.6455L13.6963 11.6455L11.4624 11.7798L13.9404 9.58252L14.7095 8.82568C14.8804 8.66699 14.9536 8.44727 14.9536 8.22754C14.9536 7.76367 14.5996 7.44629 14.1479 7.44629C13.9282 7.44629 13.7207 7.51953 13.5498 7.70264L9.33838 11.8408C9.15527 12.0239 9.05762 12.2314 9.05762 12.4634C9.05762 12.6831 9.14307 12.9028 9.33838 13.0737L13.5376 17.1753C13.6963 17.334 13.9526 17.4438 14.1602 17.4438C14.624 17.4438 14.9536 17.1265 14.9536 16.6504C14.9536 16.4062 14.8804 16.2109 14.7095 16.0645L13.9282 15.3442L11.4502 13.147L13.6963 13.2812L19.2993 13.2812C19.7632 13.2812 20.1172 12.9517 20.1172 12.4634Z" fill="#5ac8f5"/>
 </g>
</svg>
