<?xml version="1.0" encoding="UTF-8"?>
<!--Generator: Apple Native CoreSVG 175.5-->
<!DOCTYPE svg
PUBLIC "-//W3C//DTD SVG 1.1//EN"
       "http://www.w3.org/Graphics/SVG/1.1/DTD/svg11.dtd">
<svg version="1.1" xmlns="http://www.w3.org/2000/svg" xmlns:xlink="http://www.w3.org/1999/xlink" width="26.2955" height="21.9116">
 <g>
  <rect height="21.9116" opacity="0" width="26.2955" x="0" y="0"/>
  <path d="M20.1553 5.33447C21.6324 5.33447 22.8287 4.15039 22.8287 2.67334C22.8287 1.19629 21.6324 0 20.1553 0C18.6783 0 17.4942 1.19629 17.4942 2.67334C17.4942 4.15039 18.6783 5.33447 20.1553 5.33447ZM11.6959 21.7529C12.4283 21.7529 12.9898 21.1548 12.9898 20.4468L12.9898 14.7583C12.9898 14.2212 12.7457 13.8428 12.4283 13.5254L8.65632 9.74121L13.2218 8.58154C13.4537 8.52051 13.649 8.69141 13.649 8.92334L13.649 11.3525C13.649 11.6943 13.7833 12.0239 14.0274 12.2681L17.9093 16.1743C18.4219 16.6748 19.252 16.6748 19.7647 16.1743C20.2652 15.6738 20.2774 14.8315 19.7647 14.3311L16.2369 10.8276L16.2369 8.36182L18.19 10.5835C18.4464 10.8643 18.8004 11.0352 19.1666 11.0352L25.0137 11.0352C25.734 11.0352 26.2955 10.4614 26.2955 9.729C26.2955 9.00879 25.734 8.44727 25.0137 8.44727L19.7647 8.44727L16.6519 4.8584C15.6876 3.74756 14.1983 3.30811 12.7701 3.66211L6.11726 5.33447C3.50496 5.99365 3.0533 9.22852 5.12849 10.9131L10.4019 15.21L10.4019 20.4468C10.4019 21.1548 10.9757 21.7529 11.6959 21.7529ZM0.379958 21.3745C0.880446 21.875 1.72273 21.875 2.23543 21.3745L6.77644 16.8335C7.00838 16.5894 7.08162 16.3696 7.15486 15.979L7.44783 14.3311L4.55476 11.9751L4.55476 15.3687L0.379958 19.5312C-0.132738 20.0317-0.120531 20.874 0.379958 21.3745Z" fill="#5ac8f5"/>
 </g>
</svg>
