<?xml version="1.0" encoding="UTF-8"?>
<!--Generator: Apple Native CoreSVG 175.5-->
<!DOCTYPE svg
PUBLIC "-//W3C//DTD SVG 1.1//EN"
       "http://www.w3.org/Graphics/SVG/1.1/DTD/svg11.dtd">
<svg version="1.1" xmlns="http://www.w3.org/2000/svg" xmlns:xlink="http://www.w3.org/1999/xlink" width="24.2346" height="25.7529">
 <g>
  <rect height="25.7529" opacity="0" width="24.2346" x="0" y="0"/>
  <path d="M12.4365 24.8088C13.0591 24.8088 13.5474 24.3205 13.5474 23.7102L13.5474 14.6526L17.1973 11.2834C18.5889 11.4665 20.0537 10.8928 21.3355 9.61107L14.6216 2.885C13.3276 4.16673 12.7905 5.60716 12.9858 7.01097L1.6333 19.2302C1.16944 19.7307 1.0962 20.4265 1.66993 21.0002L0.107426 23.0144C-0.0390588 23.2097-0.0512659 23.4905 0.168461 23.7102L0.522465 24.0764C0.729984 24.2839 1.01075 24.2961 1.23047 24.1252L3.24463 22.5505C3.79395 23.1243 4.50196 23.051 4.99024 22.5871L11.3257 16.7278L11.3257 23.7102C11.3257 24.3205 11.814 24.8088 12.4365 24.8088ZM2.89063 20.2312L13.6572 8.80541C13.8647 9.15941 14.1089 9.489 14.4141 9.81859C14.707 10.1238 15.0488 10.4045 15.3662 10.5998L4.01368 21.3542ZM15.8423 1.65209L22.5684 8.37816C24.7168 6.25414 24.8022 3.53197 22.7393 1.48119C20.6885-0.54518 17.9907-0.496352 15.8423 1.65209Z" fill="#5ac8f5"/>
 </g>
</svg>
