<?xml version="1.0" encoding="UTF-8"?>
<!--Generator: Apple Native CoreSVG 175.5-->
<!DOCTYPE svg
PUBLIC "-//W3C//DTD SVG 1.1//EN"
       "http://www.w3.org/Graphics/SVG/1.1/DTD/svg11.dtd">
<svg version="1.1" xmlns="http://www.w3.org/2000/svg" xmlns:xlink="http://www.w3.org/1999/xlink" width="24.9023" height="24.9146">
 <g>
  <rect height="24.9146" opacity="0" width="24.9023" x="0" y="0"/>
  <path d="M12.4512 24.9023C19.2627 24.9023 24.9023 19.2505 24.9023 12.4512C24.9023 5.63965 19.2505 0 12.439 0C5.63965 0 0 5.63965 0 12.4512C0 19.2505 5.65186 24.9023 12.4512 24.9023ZM12.4512 19.2139C8.78906 19.2139 5.71289 16.1255 5.71289 12.4634C5.71289 8.78906 8.77686 5.71289 12.4512 5.71289C16.1133 5.71289 19.2017 8.80127 19.2017 12.4634C19.2017 16.1377 16.1255 19.2139 12.4512 19.2139ZM12.4512 17.2363C15.0635 17.2363 17.2119 15.0757 17.2119 12.4634C17.2119 9.86328 15.0513 7.69043 12.4512 7.69043C9.83887 7.69043 7.69043 9.85107 7.69043 12.4634C7.69043 15.0635 9.86328 17.2363 12.4512 17.2363Z" fill="#5ac8f5"/>
 </g>
</svg>
