<?xml version="1.0" encoding="UTF-8"?>
<!--Generator: Apple Native CoreSVG 175.5-->
<!DOCTYPE svg
PUBLIC "-//W3C//DTD SVG 1.1//EN"
       "http://www.w3.org/Graphics/SVG/1.1/DTD/svg11.dtd">
<svg version="1.1" xmlns="http://www.w3.org/2000/svg" xmlns:xlink="http://www.w3.org/1999/xlink" width="34.1919" height="22.4731">
 <g>
  <rect height="22.4731" opacity="0" width="34.1919" x="0" y="0"/>
  <path d="M4.71191 18.8477L18.4692 18.8477C19.3115 17.0044 21.2891 15.4663 23.6572 14.7705C22.4365 13.8062 21.6431 12.2559 21.6431 10.498C21.6309 8.11768 23.1201 6.06689 25.1587 5.39551L25.1587 4.73633C25.1587 4.04053 24.7681 3.6377 24.0845 3.6377L4.71191 3.6377C4.02832 3.6377 3.6377 4.04053 3.6377 4.73633L3.6377 17.749C3.6377 18.4448 4.02832 18.8477 4.71191 18.8477Z" fill="#5ac8f5" fill-opacity="0.25"/>
  <path d="M3.83301 22.4731L18.0054 22.4731C17.749 21.8994 17.7368 21.2036 17.8711 20.5078L3.86963 20.5078C2.64893 20.5078 1.96533 19.8608 1.96533 18.5913L1.96533 3.89404C1.96533 2.62451 2.64893 1.96533 3.86963 1.96533L24.9268 1.96533C26.1353 1.96533 26.8311 2.62451 26.8311 3.89404L26.8311 5.06592C27.5146 5.07812 28.125 5.16357 28.7964 5.45654L28.7964 3.78418C28.7964 1.26953 27.5146 0 24.9634 0L3.83301 0C1.29395 0 0 1.26953 0 3.78418L0 18.7012C0 21.2158 1.29395 22.4731 3.83301 22.4731ZM20.9229 22.4731L32.7026 22.4731C33.6182 22.4731 34.1919 22.0459 34.1919 21.3135C34.1919 19.043 31.3599 15.918 26.8188 15.918C22.2534 15.918 19.4336 19.043 19.4336 21.3135C19.4336 22.0459 19.9951 22.4731 20.9229 22.4731ZM26.8188 14.3555C28.6865 14.3555 30.3223 12.6709 30.3223 10.4736C30.3223 8.31299 28.6865 6.71387 26.8188 6.71387C24.939 6.71387 23.3032 8.3374 23.3032 10.498C23.3032 12.6709 24.939 14.3555 26.8188 14.3555Z" fill="#5ac8f5"/>
 </g>
</svg>
