<?xml version="1.0" encoding="UTF-8"?>
<!--Generator: Apple Native CoreSVG 175.5-->
<!DOCTYPE svg
PUBLIC "-//W3C//DTD SVG 1.1//EN"
       "http://www.w3.org/Graphics/SVG/1.1/DTD/svg11.dtd">
<svg version="1.1" xmlns="http://www.w3.org/2000/svg" xmlns:xlink="http://www.w3.org/1999/xlink" width="31.1035" height="22.4976">
 <g>
  <rect height="22.4976" opacity="0" width="31.1035" x="0" y="0"/>
  <path d="M3.83301 22.4976L20.0439 22.4976C19.751 22.0947 19.5435 21.6064 19.458 21.0449C19.4336 20.8862 19.4214 20.7153 19.4092 20.5322L3.85742 20.5322C2.63672 20.5322 1.96533 19.8853 1.96533 18.6157L1.96533 3.90625C1.96533 2.63672 2.63672 1.98975 3.85742 1.98975L24.9268 1.98975C26.1353 1.98975 26.8188 2.63672 26.8188 3.90625L26.8188 4.3457C27.5269 4.3457 28.1494 4.3457 28.7842 4.3457L28.7842 3.80859C28.7842 1.29395 27.5146 0.0244141 24.9512 0.0244141L3.83301 0.0244141C1.28174 0.0244141 0 1.28174 0 3.80859L0 18.7134C0 21.2402 1.28174 22.4976 3.83301 22.4976ZM9.68018 19.5923L19.3604 19.5923C19.3604 19.2261 19.3604 18.8354 19.3604 18.457L9.68018 18.457C9.35059 18.457 9.10645 18.689 9.10645 19.0308C9.10645 19.3726 9.35059 19.5923 9.68018 19.5923ZM23.1567 22.4976L28.7231 22.4976C30.2368 22.4976 31.1035 21.6675 31.1035 20.2148L31.1035 8.05664C31.1035 6.604 30.2246 5.76172 28.7231 5.76172L23.1567 5.76172C21.6553 5.76172 20.7764 6.604 20.7764 8.05664L20.7764 20.2148C20.7764 21.6675 21.6431 22.4976 23.1567 22.4976ZM23.1934 20.8984C22.6562 20.8984 22.3755 20.6177 22.3755 20.0562L22.3755 8.21533C22.3755 7.65381 22.6562 7.36084 23.1934 7.36084L28.6865 7.36084C29.2236 7.36084 29.5044 7.65381 29.5044 8.21533L29.5044 20.0562C29.5044 20.6177 29.2236 20.8984 28.6865 20.8984ZM24.2676 20.2759L27.5879 20.2759C27.832 20.2759 28.0151 20.105 28.0151 19.8486C28.0151 19.6167 27.832 19.4336 27.5879 19.4336L24.2676 19.4336C24.0234 19.4336 23.8647 19.6167 23.8647 19.8486C23.8647 20.1172 24.0112 20.2759 24.2676 20.2759ZM24.9634 9.14307L26.8799 9.14307C27.1973 9.14307 27.4414 8.88672 27.4414 8.56934C27.4414 8.26416 27.1973 8.02002 26.8799 8.02002L24.9634 8.02002C24.646 8.02002 24.4019 8.26416 24.4019 8.56934C24.4019 8.88672 24.646 9.14307 24.9634 9.14307Z" fill="#5ac8f5"/>
 </g>
</svg>
