<?xml version="1.0" encoding="UTF-8"?>
<!--Generator: Apple Native CoreSVG 175.5-->
<!DOCTYPE svg
PUBLIC "-//W3C//DTD SVG 1.1//EN"
       "http://www.w3.org/Graphics/SVG/1.1/DTD/svg11.dtd">
<svg version="1.1" xmlns="http://www.w3.org/2000/svg" xmlns:xlink="http://www.w3.org/1999/xlink" width="24.9023" height="24.9146">
 <g>
  <rect height="24.9146" opacity="0" width="24.9023" x="0" y="0"/>
  <path d="M12.4512 24.9146C19.2627 24.9146 24.9023 19.2749 24.9023 12.4634C24.9023 5.66406 19.2505 0.012207 12.439 0.012207C5.63965 0.012207 0 5.66406 0 12.4634C0 19.2749 5.65186 24.9146 12.4512 24.9146ZM3.32031 13.9893C3.32031 12.0239 4.90723 10.4614 6.86035 10.4614C7.58057 10.4614 8.23975 10.6689 8.80127 11.0352L9.70459 9.98535L8.82568 8.38623L8.10547 8.38623C7.82471 8.38623 7.59277 8.1665 7.59277 7.89795C7.59277 7.59277 7.82471 7.37305 8.10547 7.37305L10.4736 7.37305C10.7666 7.37305 11.0107 7.60498 11.0107 7.89795C11.0107 8.1665 10.7544 8.38623 10.4736 8.38623L9.97314 8.38623L10.7178 9.729L15.5151 9.10645L14.7461 7.20215L13.3423 7.20215C13.0371 7.20215 12.8174 6.95801 12.8174 6.67725C12.8174 6.39648 13.0493 6.17676 13.3423 6.17676L14.8926 6.17676C15.2588 6.17676 15.4419 6.28662 15.5762 6.5918L17.1997 10.5713C17.4683 10.4858 17.7734 10.4614 18.0664 10.4614C20.0195 10.4614 21.6064 12.0239 21.6064 13.9893C21.6064 15.9424 20.0195 17.5293 18.0664 17.5293C16.1133 17.5293 14.5264 15.9424 14.5264 13.9893C14.5264 12.6831 15.2344 11.5601 16.272 10.9497L15.9424 10.1562L12.7563 13.8794C12.4756 14.1846 12.2192 14.3066 11.7065 14.3066L10.3882 14.3066C10.2173 16.1133 8.70361 17.5293 6.86035 17.5293C4.90723 17.5293 3.32031 15.9424 3.32031 13.9893ZM4.35791 13.9648C4.35791 15.3809 5.48096 16.4795 6.87256 16.4795C8.25195 16.4795 9.375 15.3809 9.375 13.9648C9.375 13.4155 9.19189 12.9028 8.89893 12.4878L7.69043 13.8306C7.69043 13.8428 7.70264 13.916 7.70264 13.9771C7.70264 14.4653 7.33643 14.8315 6.87256 14.8315C6.38428 14.8315 6.01807 14.4653 6.01807 13.9771C6.01807 13.5132 6.39648 13.1104 6.95801 13.147L8.11768 11.8042C7.75146 11.5967 7.32422 11.4624 6.87256 11.4624C5.48096 11.4624 4.35791 12.5854 4.35791 13.9648ZM15.564 13.9648C15.564 15.3809 16.687 16.4795 18.0908 16.4795C19.4702 16.4795 20.5933 15.3809 20.5933 13.9648C20.5933 12.5854 19.4702 11.4624 18.0908 11.4624C17.9077 11.4624 17.749 11.4868 17.5903 11.5234L18.2495 13.147C18.6279 13.2324 18.9209 13.562 18.9209 13.9771C18.9209 14.4653 18.5547 14.8315 18.0908 14.8315C17.6025 14.8315 17.2363 14.4653 17.2363 13.9771C17.2363 13.8428 17.2729 13.7085 17.334 13.5986L16.6504 11.9141C16.0034 12.3657 15.564 13.1104 15.564 13.9648ZM11.2427 10.6812L12.4146 12.7686L14.7339 10.083ZM9.59473 11.731C9.96094 12.1826 10.2295 12.7319 10.3394 13.3301L11.5845 13.3301L10.2783 10.9741Z" fill="#5ac8f5"/>
 </g>
</svg>
