<?xml version="1.0" encoding="UTF-8"?>
<!--Generator: Apple Native CoreSVG 175.5-->
<!DOCTYPE svg
PUBLIC "-//W3C//DTD SVG 1.1//EN"
       "http://www.w3.org/Graphics/SVG/1.1/DTD/svg11.dtd">
<svg version="1.1" xmlns="http://www.w3.org/2000/svg" xmlns:xlink="http://www.w3.org/1999/xlink" width="22.4731" height="22.7173">
 <g>
  <rect height="22.7173" opacity="0" width="22.4731" x="0" y="0"/>
  <path d="M3.83301 22.7173L18.6401 22.7173C21.2036 22.7173 22.4731 21.4478 22.4731 18.9331L22.4731 4.02832C22.4731 1.51367 21.2036 0.244141 18.6401 0.244141L3.83301 0.244141C1.28174 0.244141 0 1.50146 0 4.02832L0 18.9331C0 21.46 1.28174 22.7173 3.83301 22.7173ZM3.85742 20.752C2.63672 20.752 1.96533 20.105 1.96533 18.8354L1.96533 4.12598C1.96533 2.85645 2.63672 2.20947 3.85742 2.20947L18.6157 2.20947C19.8242 2.20947 20.5078 2.85645 20.5078 4.12598L20.5078 18.8354C20.5078 20.105 19.8242 20.752 18.6157 20.752Z" fill="#5ac8f5" fill-opacity="0.5"/>
  <path d="M7.62939 17.9321C7.94678 17.9321 8.12988 17.749 8.69141 17.1997L11.1816 14.7461C11.2183 14.7095 11.2671 14.7095 11.3037 14.7461L13.8062 17.1997C14.3555 17.749 14.5386 17.9321 14.856 17.9321C15.271 17.9321 15.5273 17.6392 15.5273 17.1509L15.5273 6.87256C15.5273 5.68848 14.917 5.06592 13.7207 5.06592L8.76465 5.06592C7.58057 5.06592 6.97021 5.68848 6.97021 6.87256L6.97021 17.1509C6.97021 17.6392 7.22656 17.9321 7.62939 17.9321Z" fill="#5ac8f5"/>
 </g>
</svg>
