<?xml version="1.0" encoding="UTF-8"?>
<!--Generator: Apple Native CoreSVG 175.5-->
<!DOCTYPE svg
PUBLIC "-//W3C//DTD SVG 1.1//EN"
       "http://www.w3.org/Graphics/SVG/1.1/DTD/svg11.dtd">
<svg version="1.1" xmlns="http://www.w3.org/2000/svg" xmlns:xlink="http://www.w3.org/1999/xlink" width="22.4731" height="22.4976">
 <g>
  <rect height="22.4976" opacity="0" width="22.4731" x="0" y="0"/>
  <path d="M3.83301 22.4976L18.6401 22.4976C21.2036 22.4976 22.4731 21.228 22.4731 18.7134L22.4731 3.80859C22.4731 1.29395 21.2036 0.0244141 18.6401 0.0244141L3.83301 0.0244141C1.28174 0.0244141 0 1.28174 0 3.80859L0 18.7134C0 21.2402 1.28174 22.4976 3.83301 22.4976ZM3.85742 20.5322C2.63672 20.5322 1.96533 19.8853 1.96533 18.6157L1.96533 3.90625C1.96533 2.63672 2.63672 1.98975 3.85742 1.98975L18.6157 1.98975C19.8242 1.98975 20.5078 2.63672 20.5078 3.90625L20.5078 18.6157C20.5078 19.8853 19.8242 20.5322 18.6157 20.5322Z" fill="#5ac8f5" fill-opacity="0.5"/>
  <path d="M3.80859 6.72607C3.80859 7.25098 4.13818 7.58057 4.66309 7.58057L6.70166 7.58057C7.22656 7.58057 7.55615 7.25098 7.55615 6.72607L7.55615 4.67529C7.55615 4.15039 7.22656 3.8208 6.70166 3.8208L4.66309 3.8208C4.13818 3.8208 3.80859 4.15039 3.80859 4.67529ZM9.375 6.72607C9.375 7.25098 9.70459 7.58057 10.2295 7.58057L12.2681 7.58057C12.8052 7.58057 13.1348 7.25098 13.1348 6.72607L13.1348 4.67529C13.1348 4.15039 12.8052 3.8208 12.2681 3.8208L10.2295 3.8208C9.70459 3.8208 9.375 4.15039 9.375 4.67529ZM14.9292 6.72607C14.9292 7.25098 15.2588 7.58057 15.7837 7.58057L17.8223 7.58057C18.3472 7.58057 18.6768 7.25098 18.6768 6.72607L18.6768 4.67529C18.6768 4.15039 18.3472 3.8208 17.8223 3.8208L15.7837 3.8208C15.2588 3.8208 14.9292 4.15039 14.9292 4.67529ZM3.80859 12.2803C3.80859 12.8052 4.13818 13.1348 4.66309 13.1348L6.70166 13.1348C7.22656 13.1348 7.55615 12.8052 7.55615 12.2803L7.55615 10.2295C7.55615 9.70459 7.22656 9.375 6.70166 9.375L4.66309 9.375C4.13818 9.375 3.80859 9.70459 3.80859 10.2295ZM9.375 12.2803C9.375 12.8052 9.70459 13.1348 10.2295 13.1348L12.2681 13.1348C12.8052 13.1348 13.1348 12.8052 13.1348 12.2803L13.1348 10.2295C13.1348 9.70459 12.8052 9.375 12.2681 9.375L10.2295 9.375C9.70459 9.375 9.375 9.70459 9.375 10.2295ZM14.9292 12.2803C14.9292 12.8052 15.2588 13.1348 15.7837 13.1348L17.8223 13.1348C18.3472 13.1348 18.6768 12.8052 18.6768 12.2803L18.6768 10.2295C18.6768 9.70459 18.3472 9.375 17.8223 9.375L15.7837 9.375C15.2588 9.375 14.9292 9.70459 14.9292 10.2295ZM3.80859 17.8345C3.80859 18.3594 4.13818 18.689 4.66309 18.689L6.70166 18.689C7.22656 18.689 7.55615 18.3594 7.55615 17.8345L7.55615 15.7837C7.55615 15.2588 7.22656 14.9292 6.70166 14.9292L4.66309 14.9292C4.13818 14.9292 3.80859 15.2588 3.80859 15.7837ZM9.375 17.8345C9.375 18.3594 9.70459 18.689 10.2295 18.689L12.2681 18.689C12.8052 18.689 13.1348 18.3594 13.1348 17.8345L13.1348 15.7837C13.1348 15.2588 12.8052 14.9292 12.2681 14.9292L10.2295 14.9292C9.70459 14.9292 9.375 15.2588 9.375 15.7837ZM14.9292 17.8345C14.9292 18.3594 15.2588 18.689 15.7837 18.689L17.8223 18.689C18.3472 18.689 18.6768 18.3594 18.6768 17.8345L18.6768 15.7837C18.6768 15.2588 18.3472 14.9292 17.8223 14.9292L15.7837 14.9292C15.2588 14.9292 14.9292 15.2588 14.9292 15.7837Z" fill="#5ac8f5"/>
 </g>
</svg>
