<?xml version="1.0" encoding="UTF-8"?>
<!--Generator: Apple Native CoreSVG 175.5-->
<!DOCTYPE svg
PUBLIC "-//W3C//DTD SVG 1.1//EN"
       "http://www.w3.org/Graphics/SVG/1.1/DTD/svg11.dtd">
<svg version="1.1" xmlns="http://www.w3.org/2000/svg" xmlns:xlink="http://www.w3.org/1999/xlink" width="24.6826" height="27.0988">
 <g>
  <rect height="27.0988" opacity="0" width="24.6826" x="0" y="0"/>
  <path d="M12.3413 11.2606C19.5557 11.2606 24.3652 8.97789 24.3652 5.63316C24.3652 2.28843 19.5557 0.00571982 12.3413 0.00571982C5.12695 0.00571982 0.317383 2.28843 0.317383 5.63316C0.317383 8.97789 5.12695 11.2606 12.3413 11.2606ZM12.3413 17.7547C20.0195 17.7547 24.6826 15.6063 24.6826 10.5038L24.6826 9.11217C23.7793 10.1498 22.4609 10.992 20.7886 11.6146L20.7886 13.2748C20.7886 13.7142 20.4224 14.0682 19.9829 14.0682C19.5435 14.0682 19.1895 13.7142 19.1895 13.2748L19.1895 12.1395C18.4814 12.3226 17.7246 12.4691 17.041 12.579L17.041 14.1048C17.041 14.5443 16.687 14.8983 16.2476 14.8983C15.8081 14.8983 15.4419 14.5443 15.4419 14.1048L15.4419 12.7865C14.6484 12.8597 13.7451 12.9208 12.9883 12.933L12.9883 14.41C12.9883 14.8495 12.6343 15.2157 12.1948 15.2157C11.7554 15.2157 11.3892 14.8495 11.3892 14.41L11.3892 12.9208C10.5835 12.9086 9.74121 12.8475 8.94775 12.7621L8.94775 14.1048C8.94775 14.5443 8.58154 14.8983 8.14209 14.8983C7.70264 14.8983 7.34863 14.5443 7.34863 14.1048L7.34863 12.5301C6.5918 12.4081 5.88379 12.2494 5.2002 12.0541L5.2002 13.2748C5.2002 13.7142 4.84619 14.0682 4.40674 14.0682C3.96729 14.0682 3.60107 13.7142 3.60107 13.2748L3.60107 11.5047C2.06299 10.8944 0.842285 10.0887 0 9.11217L0 10.5038C0 15.6063 4.65088 17.7547 12.3413 17.7547Z" fill="#5ac8f5" fill-opacity="0.5"/>
  <path d="M22.1191 23.2845C22.1191 22.723 21.6431 22.1615 20.8984 22.4422C18.6035 23.2845 16.1499 23.7118 13.4521 23.7118C10.7666 23.7118 8.30078 23.2845 6.00586 22.4422L5.3833 24.1756C7.87354 25.0912 10.5591 25.555 13.4521 25.555C16.3574 25.555 19.0308 25.079 21.521 24.1756C21.9482 24.0292 22.1191 23.6507 22.1191 23.2845ZM6.44531 26.5072L8.28857 21.2337C8.56934 20.4403 7.78809 19.8544 7.12891 20.0863L2.88086 21.5755C2.30713 21.7709 2.09961 22.3446 2.41699 22.8695L4.83398 26.6781C5.2124 27.2762 6.17676 27.2518 6.44531 26.5072Z" fill="#5ac8f5"/>
 </g>
</svg>
