<?xml version="1.0" encoding="UTF-8"?>
<!--Generator: Apple Native CoreSVG 175.5-->
<!DOCTYPE svg
PUBLIC "-//W3C//DTD SVG 1.1//EN"
       "http://www.w3.org/Graphics/SVG/1.1/DTD/svg11.dtd">
<svg version="1.1" xmlns="http://www.w3.org/2000/svg" xmlns:xlink="http://www.w3.org/1999/xlink" width="25.7599" height="25.8667">
 <g>
  <rect height="25.8667" opacity="0" width="25.7599" x="0" y="0"/>
  <path d="M6.64062 12.8296L6.64062 17.4561L1.79443 22.3145L3.54004 24.0479L8.30078 19.2993L13.1104 19.2871C13.8916 19.2871 14.7217 19.0063 15.2954 18.4448L25.4028 8.48389C25.8911 7.99561 25.8667 7.21436 25.4028 6.73828C24.9268 6.25 24.1333 6.25 23.6572 6.73828L13.9404 16.4673C13.5864 16.8091 13.1592 17.0166 12.6587 17.0166L9.25293 17.0166L9.06982 16.7969L9.06982 13.1348C9.06982 12.6343 9.26514 12.1948 9.60693 11.853L19.2017 2.28271C19.6777 1.79443 19.6655 1.01318 19.2017 0.524902C18.7256 0.0488281 17.9321 0.0366211 17.4561 0.537109L7.49512 10.6445C6.89697 11.2549 6.65283 12.0361 6.64062 12.8296ZM2.28271 25.8667C3.55225 25.8667 4.57764 24.8291 4.57764 23.5718C4.57764 22.3022 3.55225 21.2646 2.28271 21.2769C1.02539 21.2769 0 22.3022 0 23.5718C0 24.8291 1.02539 25.8667 2.28271 25.8667Z" fill="#5ac8f5"/>
 </g>
</svg>
