<?xml version="1.0" encoding="UTF-8"?>
<!--Generator: Apple Native CoreSVG 175.5-->
<!DOCTYPE svg
PUBLIC "-//W3C//DTD SVG 1.1//EN"
       "http://www.w3.org/Graphics/SVG/1.1/DTD/svg11.dtd">
<svg version="1.1" xmlns="http://www.w3.org/2000/svg" xmlns:xlink="http://www.w3.org/1999/xlink" width="22.4731" height="22.4976">
 <g>
  <rect height="22.4976" opacity="0" width="22.4731" x="0" y="0"/>
  <path d="M3.83301 22.4976L18.6401 22.4976C21.2036 22.4976 22.4731 21.228 22.4731 18.7134L22.4731 3.80859C22.4731 1.29395 21.2036 0.0244141 18.6401 0.0244141L3.83301 0.0244141C1.28174 0.0244141 0 1.28174 0 3.80859L0 18.7134C0 21.2402 1.28174 22.4976 3.83301 22.4976ZM3.85742 20.5322C2.63672 20.5322 1.96533 19.8853 1.96533 18.6157L1.96533 3.90625C1.96533 2.63672 2.63672 1.98975 3.85742 1.98975L18.6157 1.98975C19.8242 1.98975 20.5078 2.63672 20.5078 3.90625L20.5078 18.6157C20.5078 19.8853 19.8242 20.5322 18.6157 20.5322Z" fill="#5ac8f5" fill-opacity="0.5"/>
  <path d="M11.438 18.4448C11.7798 18.4448 12.0361 18.2007 12.0361 17.8467L12.0361 17.0288L12.1948 17.0288C14.4653 17.0288 15.9058 15.7837 15.9058 13.8062C15.9058 12.4268 15.0879 11.4014 13.8184 11.0229C14.7217 10.5835 15.3564 9.61914 15.3564 8.58154C15.3564 6.89697 14.0747 5.67627 12.1948 5.67627L12.0361 5.67627L12.0361 4.74854C12.0361 4.40674 11.7798 4.1626 11.438 4.1626C11.1084 4.1626 10.8521 4.40674 10.8521 4.74854L10.8521 5.67627L9.021 5.67627C8.45947 5.67627 8.05664 6.06689 8.05664 6.64062L8.05664 16.0767C8.05664 16.6382 8.44727 17.0288 9.021 17.0288L10.8521 17.0288L10.8521 17.8467C10.8521 18.2007 11.1084 18.4448 11.438 18.4448ZM9.63135 15.6006L9.63135 11.8896L10.8521 11.8896L10.8521 15.5884ZM12.0361 15.5762L12.0361 11.9019C13.5742 11.9873 14.3433 12.6099 14.3433 13.7451C14.3433 14.8926 13.5742 15.5151 12.0361 15.5762ZM9.63135 10.4736L9.63135 7.09229L10.8521 7.09229L10.8521 10.4736ZM12.0361 10.4126L12.0361 7.1167C13.1714 7.21436 13.7817 7.76367 13.7817 8.70361C13.7817 9.65576 13.1958 10.2539 12.0361 10.4126Z" fill="#5ac8f5"/>
 </g>
</svg>
