<?xml version="1.0" encoding="UTF-8"?>
<!--Generator: Apple Native CoreSVG 175.5-->
<!DOCTYPE svg
PUBLIC "-//W3C//DTD SVG 1.1//EN"
       "http://www.w3.org/Graphics/SVG/1.1/DTD/svg11.dtd">
<svg version="1.1" xmlns="http://www.w3.org/2000/svg" xmlns:xlink="http://www.w3.org/1999/xlink" width="22.4731" height="22.4976">
 <g>
  <rect height="22.4976" opacity="0" width="22.4731" x="0" y="0"/>
  <path d="M3.83301 22.4976L18.6401 22.4976C21.2036 22.4976 22.4731 21.228 22.4731 18.7134L22.4731 3.80859C22.4731 1.29395 21.2036 0.0244141 18.6401 0.0244141L3.83301 0.0244141C1.28174 0.0244141 0 1.28174 0 3.80859L0 18.7134C0 21.2402 1.28174 22.4976 3.83301 22.4976Z" fill="#5ac8f5" fill-opacity="0.25"/>
  <path d="M7.04346 16.6748C4.88281 16.6748 3.44238 14.5996 3.44238 11.2427C3.44238 7.88574 4.88281 5.81055 7.04346 5.81055C9.21631 5.81055 10.6445 7.88574 10.6445 11.2427C10.6445 14.5996 9.21631 16.6748 7.04346 16.6748ZM7.04346 15.1367C8.26416 15.1367 8.98438 13.6597 8.98438 11.2427C8.98438 8.82568 8.25195 7.34863 7.04346 7.34863C5.85938 7.34863 5.10254 8.82568 5.10254 11.2427C5.10254 13.6597 5.85938 15.1367 7.04346 15.1367ZM15.3809 16.6748C13.6353 16.6748 12.6221 15.686 12.4023 14.9902C12.3535 14.8438 12.3169 14.6729 12.3169 14.5386C12.3169 14.0991 12.5977 13.7939 12.9883 13.7939C13.3179 13.7939 13.562 13.9282 13.7573 14.2822C14.0625 14.8438 14.6362 15.21 15.3564 15.21C16.8091 15.21 17.7612 13.7329 17.7368 11.2305L17.6636 11.2305C17.334 12.085 16.5283 12.8296 15.1367 12.8296C13.4888 12.8296 12.0239 11.6211 12.0239 9.46045C12.0239 7.23877 13.4033 5.81055 15.5151 5.81055C17.8833 5.81055 19.2505 7.59277 19.2505 10.8887C19.2505 14.6851 17.8833 16.6748 15.3809 16.6748ZM15.625 11.5234C16.7847 11.5234 17.6025 10.6323 17.6025 9.39941C17.6025 8.10547 16.7725 7.18994 15.625 7.18994C14.4043 7.18994 13.623 8.05664 13.623 9.375C13.623 10.6323 14.4287 11.5234 15.625 11.5234Z" fill="#5ac8f5"/>
 </g>
</svg>
