<?xml version="1.0" encoding="UTF-8"?>
<!--Generator: Apple Native CoreSVG 175.5-->
<!DOCTYPE svg
PUBLIC "-//W3C//DTD SVG 1.1//EN"
       "http://www.w3.org/Graphics/SVG/1.1/DTD/svg11.dtd">
<svg version="1.1" xmlns="http://www.w3.org/2000/svg" xmlns:xlink="http://www.w3.org/1999/xlink" width="24.9023" height="24.9146">
 <g>
  <rect height="24.9146" opacity="0" width="24.9023" x="0" y="0"/>
  <path d="M12.4512 24.9023C19.2627 24.9023 24.9023 19.2505 24.9023 12.4512C24.9023 5.63965 19.2505 0 12.439 0C5.63965 0 0 5.63965 0 12.4512C0 19.2505 5.65186 24.9023 12.4512 24.9023Z" fill="#5ac8f5" fill-opacity="0.25"/>
  <path d="M9.58252 18.1641C9.021 18.1641 8.69141 17.8467 8.69141 17.334C8.69141 17.0776 8.80127 16.8213 9.021 16.5771L13.0493 12.2681C13.7817 11.4868 14.563 10.7178 14.563 9.80225C14.563 8.76465 13.7695 8.06885 12.5732 8.06885C11.3525 8.06885 10.6934 8.87451 10.3516 9.63135C10.144 9.98535 9.91211 10.2661 9.46045 10.2661C8.97217 10.2661 8.63037 9.94873 8.63037 9.46045C8.63037 9.28955 8.65479 9.14307 8.71582 8.94775C9.11865 7.54395 10.7056 6.45752 12.4878 6.45752C14.8193 6.45752 16.3574 7.73926 16.3574 9.64355C16.3574 11.0474 15.5762 12.0483 14.4531 13.2324L11.4868 16.4185L11.4868 16.5039L16.0645 16.5039C16.5527 16.5039 16.9067 16.8091 16.9067 17.334C16.9067 17.8467 16.5527 18.1641 16.0645 18.1641Z" fill="#5ac8f5"/>
 </g>
</svg>
