<?xml version="1.0" encoding="UTF-8"?>
<!--Generator: Apple Native CoreSVG 175.5-->
<!DOCTYPE svg
PUBLIC "-//W3C//DTD SVG 1.1//EN"
       "http://www.w3.org/Graphics/SVG/1.1/DTD/svg11.dtd">
<svg version="1.1" xmlns="http://www.w3.org/2000/svg" xmlns:xlink="http://www.w3.org/1999/xlink" width="28.7842" height="28.5278">
 <g>
  <rect height="28.5278" opacity="0" width="28.7842" x="0" y="0"/>
  <path d="M3.83301 18.5303L24.9512 18.5303C27.5146 18.5303 28.7842 17.2729 28.7842 14.917L28.7842 8.17871C28.7842 7.06787 28.7109 6.31104 28.0884 5.7251L23.7671 1.63574C22.4365 0.390625 21.4844 0 19.6777 0L9.10645 0C7.31201 0 6.34766 0.390625 5.0293 1.63574L0.695801 5.7251C0.0732422 6.31104 0 7.06787 0 8.17871L0 14.917C0 17.2729 1.28174 18.5303 3.83301 18.5303ZM14.3921 11.2549C12.6709 11.2549 11.5601 9.76562 11.5601 8.34961L11.5601 8.30078C11.5601 7.78809 11.2549 7.31201 10.6201 7.31201L2.86865 7.31201C2.17285 7.31201 1.94092 6.99463 2.50244 6.46973L6.53076 2.67334C7.27539 1.97754 7.76367 1.70898 8.92334 1.70898L19.8608 1.70898C21.0327 1.70898 21.5088 1.97754 22.2534 2.67334L26.2817 6.46973C26.8677 7.01904 26.5991 7.31201 25.9277 7.31201L18.1641 7.31201C17.5293 7.31201 17.2363 7.78809 17.2363 8.30078L17.2363 8.34961C17.2363 9.76562 16.1255 11.2549 14.3921 11.2549ZM3.85742 16.7358C2.63672 16.7358 1.96533 16.0767 1.96533 14.8071L1.96533 9.10645L9.70459 9.10645C9.99756 11.377 11.9141 13.0737 14.3921 13.0737C16.8701 13.0737 18.7866 11.377 19.0796 9.10645L26.8188 9.10645L26.8188 14.8071C26.8188 16.0767 26.1353 16.7358 24.9268 16.7358ZM3.83301 28.0884L24.9512 28.0884C27.5024 28.0884 28.7842 26.8188 28.7842 24.3042L28.7842 18.0908C28.7842 17.395 28.3325 16.7358 27.6001 16.7358L18.1641 16.7358C17.5293 16.7358 17.2363 17.2119 17.2363 17.7246L17.2363 17.7734C17.2363 19.1895 16.1255 20.6787 14.3921 20.6787C12.6709 20.6787 11.5601 19.1895 11.5601 17.7734L11.5601 17.7246C11.5601 17.2119 11.2549 16.7358 10.6201 16.7358L1.18408 16.7358C0.45166 16.7358 0 17.395 0 18.0908L0 24.3042C0 26.8188 1.28174 28.0884 3.83301 28.0884ZM3.85742 26.123C2.63672 26.123 1.96533 25.4639 1.96533 24.1943L1.96533 18.5303L9.70459 18.5303C9.99756 20.8008 11.9141 22.4976 14.3921 22.4976C16.8701 22.4976 18.7866 20.8008 19.0796 18.5303L26.8188 18.5303L26.8188 24.1943C26.8188 25.4639 26.1353 26.123 24.9268 26.123Z" fill="#5ac8f5"/>
 </g>
</svg>
