<?xml version="1.0" encoding="UTF-8"?>
<!--Generator: Apple Native CoreSVG 175.5-->
<!DOCTYPE svg
PUBLIC "-//W3C//DTD SVG 1.1//EN"
       "http://www.w3.org/Graphics/SVG/1.1/DTD/svg11.dtd">
<svg version="1.1" xmlns="http://www.w3.org/2000/svg" xmlns:xlink="http://www.w3.org/1999/xlink" width="23.614" height="23.173">
 <g>
  <rect height="23.173" opacity="0" width="23.614" x="0" y="0"/>
  <path d="M4.79506 6.05062C6.27211 6.05062 7.45619 4.86654 7.45619 3.38948C7.45619 1.92464 6.27211 0.728352 4.79506 0.728352C3.31801 0.728352 2.13392 1.92464 2.13392 3.38948C2.13392 4.86654 3.31801 6.05062 4.79506 6.05062ZM0.0343146 11.1776L0.742322 15.5477C1.02308 17.159 3.22035 16.8294 2.964 15.2303L2.34144 11.4583L4.81947 10.494C5.19789 10.3475 5.52748 10.3963 5.68617 10.7503L7.96888 15.2669C8.65248 16.6219 9.214 17.0369 9.77553 17.4398L17.1364 22.8475C18.4303 23.7996 19.9806 21.9198 18.528 20.8455L12.8029 16.6463C12.5221 16.4388 12.5465 16.0604 12.8517 15.8895L16.7457 13.6434L21.8483 16.0848C23.3131 16.7684 24.4728 14.7298 22.7638 13.9119L17.3195 11.3241C16.6481 11.0067 16.0255 11.1043 15.4884 11.4217L12.9249 12.9232C12.5831 13.1185 12.339 13.0208 12.2169 12.7645L10.1539 8.56527C9.95863 8.17464 10.0075 7.79622 10.4347 7.5887L12.3146 6.73421C12.9371 6.44124 13.1691 6.23372 13.34 5.63558L14.5363 1.49739C14.9757-0.0651053 12.8761-0.638836 12.4245 0.923664L11.2648 4.9764L0.864393 9.55404C0.156385 9.85921-0.0999628 10.3963 0.0343146 11.1776Z" fill="#5ac8f5"/>
 </g>
</svg>
