<?xml version="1.0" encoding="UTF-8"?>
<!--Generator: Apple Native CoreSVG 175.5-->
<!DOCTYPE svg
PUBLIC "-//W3C//DTD SVG 1.1//EN"
       "http://www.w3.org/Graphics/SVG/1.1/DTD/svg11.dtd">
<svg version="1.1" xmlns="http://www.w3.org/2000/svg" xmlns:xlink="http://www.w3.org/1999/xlink" width="24.9023" height="24.9146">
 <g>
  <rect height="24.9146" opacity="0" width="24.9023" x="0" y="0"/>
  <path d="M12.4512 24.9023C19.2627 24.9023 24.9023 19.2505 24.9023 12.4512C24.9023 5.63965 19.2505 0 12.439 0C5.63965 0 0 5.63965 0 12.4512C0 19.2505 5.65186 24.9023 12.4512 24.9023ZM17.9077 16.4673C17.9077 16.9922 17.627 17.2485 17.1265 17.2485L15.7715 17.2485C15.271 17.2485 14.9902 16.9922 14.9902 16.4673L14.9902 12.8296C14.9048 13.0249 14.7461 13.1958 14.4897 13.3423L8.48389 16.8701C8.26416 17.0044 8.04443 17.0776 7.82471 17.0776C7.34863 17.0776 6.97021 16.748 6.97021 16.0889L6.97021 8.8501C6.97021 8.20312 7.34863 7.86133 7.82471 7.86133C8.04443 7.86133 8.26416 7.93457 8.48389 8.06885L14.4897 11.5967C14.7461 11.7432 14.9048 11.9141 14.9902 12.1094L14.9902 8.43506C14.9902 7.91016 15.271 7.65381 15.7715 7.65381L17.1265 7.65381C17.627 7.65381 17.9077 7.92236 17.9077 8.43506Z" fill="#5ac8f5"/>
 </g>
</svg>
