<?xml version="1.0" encoding="UTF-8"?>
<!--Generator: Apple Native CoreSVG 175.5-->
<!DOCTYPE svg
PUBLIC "-//W3C//DTD SVG 1.1//EN"
       "http://www.w3.org/Graphics/SVG/1.1/DTD/svg11.dtd">
<svg version="1.1" xmlns="http://www.w3.org/2000/svg" xmlns:xlink="http://www.w3.org/1999/xlink" width="40.2222" height="24.2065">
 <g>
  <rect height="24.2065" opacity="0" width="40.2222" x="0" y="0"/>
  <path d="M14.6973 11.8896C18.0664 11.8774 20.8618 10.6934 23.0713 8.27637C20.8252 5.41992 18.4326 4.07715 14.7827 4.06494C11.145 4.05273 8.78906 5.22461 6.40869 8.3252C8.65479 10.7544 11.5601 11.9019 14.6973 11.8896ZM6.7749 19.2993C8.60596 17.5415 10.0952 14.7705 10.3271 12.6221C8.69141 12.0117 6.68945 10.8398 5.51758 9.58252C4.94385 10.4736 4.3335 11.438 3.79639 12.5122C2.66113 14.7827 1.36719 15.8325 0.537109 16.6138C0.20752 16.9189 0 17.2729 0 17.749C0 18.457 0.756836 18.8477 2.0874 18.8477L3.55225 18.8477C4.93164 18.8477 5.87158 19.0186 6.7749 19.2993ZM14.6729 22.1069C17.4683 22.1069 19.4336 20.6421 21.0815 19.8242C19.2139 18.0542 18.0176 15.4419 17.8345 13.0371C16.8213 13.3179 15.7959 13.4521 14.7339 13.4521C13.6719 13.4644 12.6465 13.3179 11.6577 13.0615C11.4624 15.3076 10.2417 18.0298 8.37402 19.8853C9.96094 20.5078 11.8774 22.1069 14.6729 22.1069ZM22.5098 19.2383C23.6206 18.9697 24.5972 18.811 26.0254 18.811C27.1973 18.811 28.3325 18.6279 28.894 18.3105C27.5513 16.5649 25.1465 11.4136 23.8892 9.46045C22.6318 10.7666 20.5933 12.0361 19.1895 12.5854C19.4092 14.7827 20.6177 17.334 22.5098 19.2383ZM3.41797 24.1821C5.54199 24.1821 7.71484 23.2422 8.74023 21.814C7.54395 21.0205 6.03027 20.2759 4.58984 20.2148C3.94287 20.3857 3.22266 20.4224 2.47803 20.5688C1.42822 20.7642 0.476074 21.1914 0.476074 22.2046C0.476074 23.4863 1.75781 24.1821 3.41797 24.1821ZM25.5127 24.2065C27.1729 24.2065 28.4546 23.5107 28.4546 22.229C28.4546 21.228 27.5024 20.4346 26.4526 20.3491C25.6958 20.3125 25.1099 20.3003 24.3408 20.2515C22.937 20.3247 21.4233 21.0693 20.1904 21.8384C21.2158 23.2788 23.3887 24.2065 25.5127 24.2065ZM30.1025 17.7734C31.8237 16.98 32.6172 15.9912 34.9609 15.9912C38.147 15.9912 40.2222 14.8438 40.2222 13.0371C40.2222 8.87451 38.0127 6.04248 34.6924 6.04248C31.8115 6.04248 30.0171 7.76367 29.3213 10.5347C28.8086 12.4512 28.1372 13.1592 27.5146 13.6963C28.1006 14.5508 29.1016 16.3086 30.1025 17.7734ZM34.9854 11.8164C34.3994 11.8164 33.9355 11.3403 33.9355 10.7666C33.9355 10.2051 34.3994 9.729 34.9854 9.729C35.5469 9.729 36.0229 10.2051 36.0229 10.7666C36.0229 11.3403 35.5469 11.8164 34.9854 11.8164Z" fill="#5ac8f5"/>
 </g>
</svg>
