<?xml version="1.0" encoding="UTF-8"?>
<!--Generator: Apple Native CoreSVG 175.5-->
<!DOCTYPE svg
PUBLIC "-//W3C//DTD SVG 1.1//EN"
       "http://www.w3.org/Graphics/SVG/1.1/DTD/svg11.dtd">
<svg version="1.1" xmlns="http://www.w3.org/2000/svg" xmlns:xlink="http://www.w3.org/1999/xlink" width="34.375" height="22.2534">
 <g>
  <rect height="22.2534" opacity="0" width="34.375" x="0" y="0"/>
  <path d="M2.80762 10.6201L14.0381 10.6201C15.9058 10.6201 16.8457 9.7168 16.8457 7.83691L16.8457 2.771C16.8457 0.90332 15.9058 0 14.0381 0L2.80762 0C0.939941 0 0 0.90332 0 2.771L0 7.83691C0 9.7168 0.939941 10.6201 2.80762 10.6201ZM2.9541 8.77686C2.23389 8.77686 1.84326 8.39844 1.84326 7.6416L1.84326 2.97852C1.84326 2.20947 2.23389 1.84326 2.9541 1.84326L13.8916 1.84326C14.6118 1.84326 15.0024 2.20947 15.0024 2.97852L15.0024 7.6416C15.0024 8.39844 14.6118 8.77686 13.8916 8.77686ZM5.92041 22.1924L15.5518 22.1924C17.4194 22.1924 18.3594 21.2769 18.3594 19.4092L18.3594 15.9668C18.3594 14.0991 17.4194 13.1958 15.5518 13.1958L5.92041 13.1958C4.05273 13.1958 3.11279 14.0991 3.11279 15.9668L3.11279 19.4092C3.11279 21.2769 4.05273 22.1924 5.92041 22.1924ZM6.06689 20.3491C5.34668 20.3491 4.95605 19.9707 4.95605 19.2139L4.95605 16.1621C4.95605 15.4053 5.34668 15.0391 6.06689 15.0391L15.3931 15.0391C16.1255 15.0391 16.5161 15.4053 16.5161 16.1621L16.5161 19.2139C16.5161 19.9707 16.1255 20.3491 15.3931 20.3491ZM23.5962 20.7642L31.5674 20.7642C33.4351 20.7642 34.375 19.8608 34.375 17.981L34.375 4.41895C34.375 2.55127 33.4351 1.64795 31.5674 1.64795L23.5962 1.64795C21.7285 1.64795 20.7886 2.55127 20.7886 4.41895L20.7886 17.981C20.7886 19.8608 21.7285 20.7642 23.5962 20.7642ZM23.7305 18.9209C23.0225 18.9209 22.6318 18.5425 22.6318 17.7856L22.6318 4.62646C22.6318 3.85742 23.0225 3.49121 23.7305 3.49121L31.4087 3.49121C32.1411 3.49121 32.5317 3.85742 32.5317 4.62646L32.5317 17.7856C32.5317 18.5425 32.1411 18.9209 31.4087 18.9209Z" fill="#5ac8f5"/>
 </g>
</svg>
