<?xml version="1.0" encoding="UTF-8"?>
<!--Generator: Apple Native CoreSVG 175.5-->
<!DOCTYPE svg
PUBLIC "-//W3C//DTD SVG 1.1//EN"
       "http://www.w3.org/Graphics/SVG/1.1/DTD/svg11.dtd">
<svg version="1.1" xmlns="http://www.w3.org/2000/svg" xmlns:xlink="http://www.w3.org/1999/xlink" width="29.5166" height="22.4976">
 <g>
  <rect height="22.4976" opacity="0" width="29.5166" x="0" y="0"/>
  <path d="M10.498 0.0244141C3.22266 0.0244141 0 3.35693 0 10.1929L0 18.7134C0 21.2402 1.28174 22.4976 3.83301 22.4976L25.6836 22.4976C28.2349 22.4976 29.5166 21.228 29.5166 18.7134L29.5166 10.1929C29.5166 3.35693 26.2939 0.0244141 19.0308 0.0244141ZM5.94482 16.9312C5.41992 16.9312 5.0415 16.5649 5.0415 16.0767C5.0415 15.7837 5.11475 15.6128 5.39551 15.21L11.1572 7.20215L11.1572 7.10449L5.84717 7.10449C5.37109 7.10449 5.00488 6.79932 5.00488 6.28662C5.00488 5.77393 5.37109 5.44434 5.84717 5.44434L12.8296 5.44434C13.3789 5.44434 13.7695 5.82275 13.7695 6.34766C13.7695 6.65283 13.7085 6.81152 13.4521 7.15332L7.67822 15.1733L7.67822 15.271L13.3423 15.271C13.8184 15.271 14.1724 15.5762 14.1724 16.1011C14.1724 16.6016 13.8184 16.9312 13.3423 16.9312ZM16.9922 17.0776C16.3452 17.0776 15.9912 16.626 15.9912 15.9424L15.9912 6.5918C15.9912 5.92041 16.333 5.44434 16.9922 5.44434L20.6177 5.44434C23.1689 5.44434 24.7803 6.89697 24.7803 9.15527C24.7803 10.73 23.8281 12.0483 22.3633 12.5366L24.2432 15.4785C24.3896 15.7349 24.4629 15.9302 24.4629 16.2109C24.4629 16.7236 24.0845 17.0776 23.5474 17.0776C23.0957 17.0776 22.8516 16.8945 22.5464 16.4185L20.3613 12.8296L18.0176 12.8296L18.0176 15.9424C18.0176 16.6504 17.6636 17.0776 16.9922 17.0776ZM18.0176 11.3525L20.3125 11.3525C21.8262 11.3525 22.7905 10.5835 22.7905 9.2041C22.7905 7.80029 21.8018 6.99463 20.3613 6.99463L18.0176 6.99463Z" fill="#5ac8f5"/>
 </g>
</svg>
