<?xml version="1.0" encoding="UTF-8"?>
<!--Generator: Apple Native CoreSVG 175.5-->
<!DOCTYPE svg
PUBLIC "-//W3C//DTD SVG 1.1//EN"
       "http://www.w3.org/Graphics/SVG/1.1/DTD/svg11.dtd">
<svg version="1.1" xmlns="http://www.w3.org/2000/svg" xmlns:xlink="http://www.w3.org/1999/xlink" width="24.9023" height="24.9146">
 <g>
  <rect height="24.9146" opacity="0" width="24.9023" x="0" y="0"/>
  <path d="M12.4512 24.9023C19.2627 24.9023 24.9023 19.2505 24.9023 12.4512C24.9023 5.63965 19.2505 0 12.439 0C5.63965 0 0 5.63965 0 12.4512C0 19.2505 5.65186 24.9023 12.4512 24.9023ZM12.4512 22.8271C6.68945 22.8271 2.0874 18.2129 2.0874 12.4512C2.0874 6.68945 6.67725 2.0752 12.439 2.0752C18.2007 2.0752 22.8271 6.68945 22.8271 12.4512C22.8271 18.2129 18.2129 22.8271 12.4512 22.8271ZM6.00586 11.9019L6.00586 17.0288C6.00586 17.4683 6.31104 17.7246 6.71387 17.7246C7.1167 17.7124 7.43408 17.4561 7.43408 17.0288L7.43408 10.8154L7.15332 10.8154C6.45752 10.8154 6.00586 11.2183 6.00586 11.9019ZM7.94678 18.6157L17.0532 18.6157C18.2617 18.6157 18.8599 18.0298 18.8599 16.8457L18.8599 8.06885C18.8599 6.87256 18.2617 6.29883 17.0532 6.29883L10.3516 6.29883C9.14307 6.29883 8.54492 6.87256 8.54492 8.06885L8.54492 17.4194C8.54492 18.0298 8.39844 18.3716 7.94678 18.6157ZM10.8887 9.74121C10.6567 9.74121 10.4858 9.58252 10.4858 9.35059C10.4858 9.14307 10.6445 8.98438 10.8887 8.98438L16.5283 8.98438C16.748 8.98438 16.9067 9.14307 16.9067 9.35059C16.9067 9.58252 16.748 9.74121 16.5283 9.74121ZM10.8887 11.7676C10.6567 11.7676 10.4858 11.6089 10.4858 11.3892C10.4858 11.1694 10.6445 11.0107 10.8887 11.0107L16.5283 11.0107C16.748 11.0107 16.9067 11.1694 16.9067 11.3892C16.9067 11.6089 16.748 11.7676 16.5283 11.7676ZM14.4531 13.8306C14.2212 13.8306 14.0625 13.6719 14.0625 13.4644C14.0625 13.2446 14.2212 13.0615 14.4531 13.0615L16.5283 13.0615C16.748 13.0615 16.9067 13.2446 16.9067 13.4644C16.9067 13.6719 16.748 13.8306 16.5283 13.8306ZM14.4531 15.8691C14.2212 15.8691 14.0625 15.7104 14.0625 15.4907C14.0625 15.271 14.2212 15.1123 14.4531 15.1123L16.5283 15.1123C16.748 15.1123 16.9067 15.271 16.9067 15.4907C16.9067 15.7104 16.748 15.8691 16.5283 15.8691ZM11.1572 15.8691C10.73 15.8691 10.4858 15.625 10.4858 15.1978L10.4858 13.7451C10.4858 13.3301 10.73 13.0615 11.1572 13.0615L12.5977 13.0615C13.0249 13.0615 13.2812 13.3301 13.2812 13.7451L13.2812 15.1978C13.2812 15.625 13.0249 15.8691 12.5977 15.8691Z" fill="#5ac8f5"/>
 </g>
</svg>
