<?xml version="1.0" encoding="UTF-8"?>
<!--Generator: Apple Native CoreSVG 175.5-->
<!DOCTYPE svg
PUBLIC "-//W3C//DTD SVG 1.1//EN"
       "http://www.w3.org/Graphics/SVG/1.1/DTD/svg11.dtd">
<svg version="1.1" xmlns="http://www.w3.org/2000/svg" xmlns:xlink="http://www.w3.org/1999/xlink" width="22.4731" height="22.4976">
 <g>
  <rect height="22.4976" opacity="0" width="22.4731" x="0" y="0"/>
  <path d="M3.83301 22.4976L18.6401 22.4976C21.2036 22.4976 22.4731 21.228 22.4731 18.7134L22.4731 3.80859C22.4731 1.29395 21.2036 0.0244141 18.6401 0.0244141L3.83301 0.0244141C1.28174 0.0244141 0 1.28174 0 3.80859L0 18.7134C0 21.2402 1.28174 22.4976 3.83301 22.4976Z" fill="#5ac8f5" fill-opacity="0.25"/>
  <path d="M11.4258 18.7744C11.0718 18.7744 10.8032 18.5181 10.8032 18.1396L10.8032 17.2852C8.10547 16.9678 6.39648 14.7217 6.39648 11.2549C6.39648 7.86133 8.12988 5.60303 10.8032 5.27344L10.8032 4.43115C10.8032 4.05273 11.0718 3.80859 11.4258 3.80859C11.7798 3.80859 12.0483 4.05273 12.0483 4.43115L12.0483 5.24902C13.8306 5.43213 15.2466 6.49414 15.7959 7.99561C15.8569 8.20312 15.9058 8.39844 15.9058 8.61816C15.9058 9.06982 15.6006 9.38721 15.1367 9.38721C14.6851 9.38721 14.4775 9.21631 14.3066 8.71582C14.0381 7.72705 13.1592 6.98242 12.0483 6.79932L12.0483 10.9009L15.2466 10.9009C15.7593 10.9009 16.0889 11.2183 16.0889 11.7554L16.0889 12.3901C16.0889 15.2466 14.6606 17.0898 12.0483 17.2974L12.0483 18.1396C12.0483 18.5181 11.7798 18.7744 11.4258 18.7744ZM10.8032 15.7227L10.8032 6.82373C9.14307 7.17773 8.09326 8.83789 8.09326 11.2549C8.09326 13.7085 9.13086 15.3687 10.8032 15.7227ZM12.0483 15.7715C13.562 15.5396 14.4531 14.3677 14.4531 12.6709L14.4531 12.3901L12.0483 12.3901Z" fill="#5ac8f5"/>
 </g>
</svg>
