<?xml version="1.0" encoding="UTF-8"?>
<!--Generator: Apple Native CoreSVG 175.5-->
<!DOCTYPE svg
PUBLIC "-//W3C//DTD SVG 1.1//EN"
       "http://www.w3.org/Graphics/SVG/1.1/DTD/svg11.dtd">
<svg version="1.1" xmlns="http://www.w3.org/2000/svg" xmlns:xlink="http://www.w3.org/1999/xlink" width="33.1177" height="25.8667">
 <g>
  <rect height="25.8667" opacity="0" width="33.1177" x="0" y="0"/>
  <path d="M20.752 25.8423L29.7974 25.8423C31.7871 25.8423 33.1177 24.5728 33.1177 22.6685L33.1177 3.17383C33.1177 1.26953 31.7871 0 29.7974 0L20.752 0C18.7622 0 17.4194 1.26953 17.4194 3.17383L17.4194 22.6685C17.4194 24.5728 18.7622 25.8423 20.752 25.8423ZM1.08643 22.937C1.72119 22.937 2.17285 22.4976 2.17285 21.8628L2.17285 20.0073C2.17285 15.4663 4.94385 14.0015 8.49609 14.0015L9.30176 14.0015L12.6831 13.8916L12.6831 13.208L9.36279 16.2354L8.02002 17.3828C7.73926 17.6147 7.66602 17.9199 7.66602 18.2129C7.66602 18.811 8.12988 19.2627 8.72803 19.2627C9.021 19.2627 9.27734 19.1528 9.5459 18.8965L14.7095 13.7451C14.9536 13.5132 15.0879 13.2324 15.0879 12.9272C15.0879 12.6221 14.9536 12.3413 14.7095 12.1094L9.52148 6.93359C9.27734 6.68945 9.021 6.5918 8.72803 6.5918C8.12988 6.5918 7.66602 7.03125 7.66602 7.6416C7.66602 7.93457 7.73926 8.23975 8.02002 8.47168L9.36279 9.61914L12.6831 12.6465L12.6831 11.9629L9.30176 11.853L8.49609 11.853C4.1626 11.853 0 13.8428 0 20.0073L0 21.8628C0 22.4976 0.45166 22.937 1.08643 22.937Z" fill="#5ac8f5"/>
 </g>
</svg>
