<?xml version="1.0" encoding="UTF-8"?>
<!--Generator: Apple Native CoreSVG 175.5-->
<!DOCTYPE svg
PUBLIC "-//W3C//DTD SVG 1.1//EN"
       "http://www.w3.org/Graphics/SVG/1.1/DTD/svg11.dtd">
<svg version="1.1" xmlns="http://www.w3.org/2000/svg" xmlns:xlink="http://www.w3.org/1999/xlink" width="22.4731" height="22.4976">
 <g>
  <rect height="22.4976" opacity="0" width="22.4731" x="0" y="0"/>
  <path d="M11.2793 18.2129C15.0879 18.2129 18.2373 15.0513 18.2373 11.2549C18.2373 7.4707 15.0635 4.29688 11.2793 4.29688C7.48291 4.29688 4.3335 7.4585 4.3335 11.2549C4.3335 15.0391 7.50732 18.2129 11.2793 18.2129ZM11.2793 16.4917C8.44727 16.4917 6.04248 14.0991 6.04248 11.2549C6.04248 8.39844 8.43506 6.01807 11.2793 6.01807C14.1235 6.01807 16.5283 8.41064 16.5283 11.2549C16.5283 14.1113 14.1357 16.4917 11.2793 16.4917ZM11.2793 15.2344C13.4521 15.2344 15.2588 13.4155 15.2588 11.2549C15.2588 9.10645 13.4399 7.27539 11.2793 7.27539C9.11865 7.27539 7.31201 9.09424 7.31201 11.2549C7.31201 13.4033 9.13086 15.2344 11.2793 15.2344ZM3.83301 22.4976L18.6401 22.4976C21.2036 22.4976 22.4731 21.228 22.4731 18.7134L22.4731 3.80859C22.4731 1.29395 21.2036 0.0244141 18.6401 0.0244141L3.83301 0.0244141C1.28174 0.0244141 0 1.28174 0 3.80859L0 18.7134C0 21.2402 1.28174 22.4976 3.83301 22.4976ZM3.85742 20.5322C2.63672 20.5322 1.96533 19.8853 1.96533 18.6157L1.96533 3.90625C1.96533 2.63672 2.63672 1.98975 3.85742 1.98975L18.6157 1.98975C19.8242 1.98975 20.5078 2.63672 20.5078 3.90625L20.5078 18.6157C20.5078 19.8853 19.8242 20.5322 18.6157 20.5322Z" fill="#5ac8f5"/>
 </g>
</svg>
