<?xml version="1.0" encoding="UTF-8"?>
<!--Generator: Apple Native CoreSVG 175.5-->
<!DOCTYPE svg
PUBLIC "-//W3C//DTD SVG 1.1//EN"
       "http://www.w3.org/Graphics/SVG/1.1/DTD/svg11.dtd">
<svg version="1.1" xmlns="http://www.w3.org/2000/svg" xmlns:xlink="http://www.w3.org/1999/xlink" width="28.7842" height="22.4976">
 <g>
  <rect height="22.4976" opacity="0" width="28.7842" x="0" y="0"/>
  <path d="M0 16.3208L0 14.3555L8.30078 14.3555L8.30078 8.1665L0 8.1665L0 6.20117L8.30078 6.20117L8.30078 0.0244141L10.2661 0.0244141L10.2661 6.20117L18.5303 6.20117L18.5303 0.0244141L20.4956 0.0244141L20.4956 6.20117L28.7842 6.20117L28.7842 8.1665L20.4956 8.1665L20.4956 14.3555L28.7842 14.3555L28.7842 16.3208L20.4956 16.3208L20.4956 22.4976L18.5303 22.4976L18.5303 16.3208L10.2661 16.3208L10.2661 22.4976L8.30078 22.4976L8.30078 16.3208ZM10.2661 14.3555L18.5303 14.3555L18.5303 8.1665L10.2661 8.1665ZM3.83301 22.4854L24.9512 22.4854C27.5146 22.4854 28.7842 21.228 28.7842 18.7134L28.7842 3.79639C28.7842 1.28174 27.5146 0.012207 24.9512 0.012207L3.83301 0.012207C1.28174 0.012207 0 1.28174 0 3.79639L0 18.7134C0 21.228 1.28174 22.4854 3.83301 22.4854Z" fill="#5ac8f5"/>
 </g>
</svg>
