<?xml version="1.0" encoding="UTF-8"?>
<!--Generator: Apple Native CoreSVG 175.5-->
<!DOCTYPE svg
PUBLIC "-//W3C//DTD SVG 1.1//EN"
       "http://www.w3.org/Graphics/SVG/1.1/DTD/svg11.dtd">
<svg version="1.1" xmlns="http://www.w3.org/2000/svg" xmlns:xlink="http://www.w3.org/1999/xlink" width="13.1592" height="18.0786">
 <g>
  <rect height="18.0786" opacity="0" width="13.1592" x="0" y="0"/>
  <path d="M1.11084 18.0786C1.80664 18.0786 2.2583 17.6392 2.2583 16.9434L2.2583 11.8774L4.3335 9.66797L10.9741 17.4683C11.3647 17.9199 11.6333 18.0786 12.0483 18.0786C12.6953 18.0786 13.1592 17.6392 13.1592 17.041C13.1592 16.7358 13.0127 16.4307 12.7197 16.0889L5.93262 8.06885L12.0605 1.77002C12.3047 1.51367 12.4146 1.28174 12.4146 1.01318C12.4146 0.463867 11.9629 0.0366211 11.4014 0.0366211C11.0718 0.0366211 10.8154 0.134277 10.498 0.463867L2.36816 8.98438L2.2583 8.98438L2.2583 1.15967C2.2583 0.476074 1.80664 0.0366211 1.11084 0.0366211C0.427246 0.0366211 0 0.476074 0 1.15967L0 16.9434C0 17.6392 0.427246 18.0786 1.11084 18.0786Z" fill="#5ac8f5"/>
 </g>
</svg>
