<?xml version="1.0" encoding="UTF-8"?>
<!--Generator: Apple Native CoreSVG 175.5-->
<!DOCTYPE svg
PUBLIC "-//W3C//DTD SVG 1.1//EN"
       "http://www.w3.org/Graphics/SVG/1.1/DTD/svg11.dtd">
<svg version="1.1" xmlns="http://www.w3.org/2000/svg" xmlns:xlink="http://www.w3.org/1999/xlink" width="22.9126" height="24.4995">
 <g>
  <rect height="24.4995" opacity="0" width="22.9126" x="0" y="0"/>
  <path d="M0 14.5386C0 17.4438 2.2583 19.7021 5.16357 19.7021C6.78711 19.7021 8.45947 19.165 9.16748 17.7368L9.28955 17.7368C9.30176 19.3604 7.51953 20.7031 6.78711 21.46C5.9082 22.3755 6.44531 23.645 7.58057 23.645L15.332 23.645C16.4673 23.645 16.9922 22.3755 16.1255 21.46C15.3931 20.7031 13.6108 19.3604 13.623 17.7368L13.7451 17.7368C14.4531 19.165 16.1255 19.7021 17.7368 19.7021C20.6543 19.7021 22.9126 17.4438 22.9126 14.5386C22.9126 9.06982 15.6372 6.7627 12.7197 0.878906C12.4756 0.378418 12.0972 0 11.4502 0C10.8032 0 10.437 0.378418 10.1929 0.878906C7.27539 6.7627 0 9.06982 0 14.5386Z" fill="#5ac8f5"/>
 </g>
</svg>
