<?xml version="1.0" encoding="UTF-8"?>
<!--Generator: Apple Native CoreSVG 175.5-->
<!DOCTYPE svg
PUBLIC "-//W3C//DTD SVG 1.1//EN"
       "http://www.w3.org/Graphics/SVG/1.1/DTD/svg11.dtd">
<svg version="1.1" xmlns="http://www.w3.org/2000/svg" xmlns:xlink="http://www.w3.org/1999/xlink" width="29.1382" height="27.7039">
 <g>
  <rect height="27.7039" opacity="0" width="29.1382" x="0" y="0"/>
  <path d="M6.27441 25.6378L22.7905 25.6378C24.5239 25.6378 25.5371 24.649 25.5371 22.9401L25.5371 9.45129L23.5718 8.10852L23.5718 22.4396C23.5718 23.233 23.1445 23.6725 22.3755 23.6725L6.68945 23.6725C5.9082 23.6725 5.48096 23.233 5.48096 22.4396L5.48096 8.12073L3.51562 9.45129L3.51562 22.9401C3.51562 24.649 4.52881 25.6378 6.27441 25.6378ZM0 12.0514C0 12.5519 0.390625 13.028 1.0498 13.028C1.3916 13.028 1.67236 12.8448 1.92871 12.6373L14.1479 2.38342C14.4165 2.13928 14.7461 2.13928 15.0146 2.38342L27.2339 12.6373C27.478 12.8448 27.7588 13.028 28.1006 13.028C28.6743 13.028 29.1382 12.674 29.1382 12.088C29.1382 11.7218 29.0161 11.4777 28.7598 11.2579L16.0522 0.576782C15.1489-0.192261 14.0259-0.192261 13.1104 0.576782L0.390625 11.2579C0.12207 11.4777 0 11.7706 0 12.0514ZM22.4731 6.54602L25.5371 9.13391L25.5371 3.49426C25.5371 2.95715 25.1953 2.61536 24.6582 2.61536L23.3521 2.61536C22.8271 2.61536 22.4731 2.95715 22.4731 3.49426Z" fill="#5ac8f5" fill-opacity="0.5"/>
  <path d="M18.0298 12.8204C18.6279 12.674 18.7988 12.5397 18.7988 11.8195L18.7988 9.40247C18.7988 8.9386 18.6401 8.73108 17.981 8.88977L14.3799 9.78088C13.7695 9.92737 13.6353 10.0616 13.6353 10.7941L13.6353 16.3483C13.6353 16.8976 13.5986 16.9952 12.9639 17.1661L11.8408 17.4713C10.7178 17.7643 9.77783 18.4235 9.77783 19.632C9.77783 20.6818 10.5591 21.4386 11.8042 21.4386C13.562 21.4386 14.7583 20.1813 14.7583 18.3868L14.7583 14.151C14.7583 13.6871 14.856 13.5773 15.1367 13.5162Z" fill="#5ac8f5"/>
 </g>
</svg>
