<?xml version="1.0" encoding="UTF-8"?>
<!--Generator: Apple Native CoreSVG 175.5-->
<!DOCTYPE svg
PUBLIC "-//W3C//DTD SVG 1.1//EN"
       "http://www.w3.org/Graphics/SVG/1.1/DTD/svg11.dtd">
<svg version="1.1" xmlns="http://www.w3.org/2000/svg" xmlns:xlink="http://www.w3.org/1999/xlink" width="24.9023" height="24.9146">
 <g>
  <rect height="24.9146" opacity="0" width="24.9023" x="0" y="0"/>
  <path d="M12.4512 24.9023C19.2627 24.9023 24.9023 19.2505 24.9023 12.4512C24.9023 5.63965 19.2505 0 12.439 0C5.63965 0 0 5.63965 0 12.4512C0 19.2505 5.65186 24.9023 12.4512 24.9023ZM12.4512 22.8271C6.68945 22.8271 2.0874 18.2129 2.0874 12.4512C2.0874 6.68945 6.67725 2.0752 12.439 2.0752C18.2007 2.0752 22.8271 6.68945 22.8271 12.4512C22.8271 18.2129 18.2129 22.8271 12.4512 22.8271ZM7.54395 19.8975C7.8125 19.8975 8.02002 19.7632 8.23975 19.5435L10.5103 17.3096C10.73 17.1143 10.7666 17.0532 10.8765 16.7603L11.8896 14.1235C12.0361 13.7451 12.3779 13.6475 12.7686 13.8794L14.6851 15.0024L12.915 16.5161C12.7441 16.6626 12.6221 16.8701 12.6221 17.1021C12.6221 17.4683 12.8906 17.7979 13.2812 17.7979C13.5376 17.7979 13.7329 17.7002 13.9771 17.4927L16.394 15.4419C16.6138 15.2588 16.687 15.0757 16.687 14.856C16.687 14.6362 16.5527 14.4409 16.2598 14.2456L13.6719 12.5488L14.1846 10.7788C14.2456 10.5225 14.4897 10.4858 14.6484 10.7178L15.332 11.7188C15.5273 12.0117 15.8691 12.085 16.1865 11.9507L18.5547 10.9009C18.9697 10.7178 19.1284 10.3516 18.9453 9.99756C18.7744 9.64355 18.4326 9.50928 18.0054 9.69238L16.1865 10.498L14.917 8.70361C14.3066 7.83691 13.501 7.4707 12.3047 7.55615L9.46045 7.77588C9.06982 7.80029 8.77686 8.06885 8.71582 8.49609L8.37402 11.0718C8.31299 11.5356 8.53271 11.853 9.00879 11.8896C9.38721 11.9263 9.68018 11.7065 9.74121 11.2427L10.0342 9.2041L11.1084 9.14307C11.3403 9.11865 11.4746 9.26514 11.4136 9.49707L9.49707 16.2598L7.1167 18.6279C6.93359 18.811 6.84814 18.9941 6.84814 19.1895C6.84814 19.5557 7.12891 19.8975 7.54395 19.8975ZM14.5386 7.27539C15.4175 7.27539 16.1377 6.55518 16.1377 5.71289C16.1377 4.82178 15.4297 4.11377 14.5386 4.11377C13.6597 4.11377 12.9639 4.82178 12.9639 5.71289C12.9639 6.55518 13.6597 7.27539 14.5386 7.27539Z" fill="#5ac8f5"/>
 </g>
</svg>
