<?xml version="1.0" encoding="UTF-8"?>
<!--Generator: Apple Native CoreSVG 175.5-->
<!DOCTYPE svg
PUBLIC "-//W3C//DTD SVG 1.1//EN"
       "http://www.w3.org/Graphics/SVG/1.1/DTD/svg11.dtd">
<svg version="1.1" xmlns="http://www.w3.org/2000/svg" xmlns:xlink="http://www.w3.org/1999/xlink" width="10.6449" height="23.8159">
 <g>
  <rect height="23.8159" opacity="0" width="10.6449" x="0" y="0"/>
  <path d="M5.37109 9.8999C8.22754 9.92432 10.6812 7.67822 10.6445 4.93164C10.6079 2.22168 8.22754 0 5.37109 0C2.74658 0 1.13525 1.62354 0.366211 2.75879C0.109863 3.14941 0 3.57666 0 4.05273L0 5.84717C0 6.32324 0.12207 6.75049 0.366211 7.14111C1.11084 8.27637 2.74658 9.86328 5.37109 9.8999ZM2.22168 6.88477C1.9043 6.88477 1.64795 6.62842 1.64795 6.29883L1.64795 3.58887C1.64795 3.25928 1.9043 3.00293 2.22168 3.00293C2.56348 3.00293 2.80762 3.25928 2.80762 3.58887L2.80762 6.29883C2.80762 6.62842 2.56348 6.88477 2.22168 6.88477ZM5.99365 19.751L9.43604 19.751L9.43604 9.7168C8.47168 10.4614 7.27539 10.9497 5.99365 11.0474ZM7.18994 23.7793L8.22754 23.7793C8.97217 23.7793 9.43604 23.4131 9.43604 22.6929L9.43604 20.9717L5.99365 20.9717L5.99365 22.6929C5.99365 23.4131 6.46973 23.7793 7.18994 23.7793Z" fill="#5ac8f5"/>
 </g>
</svg>
