<?xml version="1.0" encoding="UTF-8"?>
<!--Generator: Apple Native CoreSVG 175.5-->
<!DOCTYPE svg
PUBLIC "-//W3C//DTD SVG 1.1//EN"
       "http://www.w3.org/Graphics/SVG/1.1/DTD/svg11.dtd">
<svg version="1.1" xmlns="http://www.w3.org/2000/svg" xmlns:xlink="http://www.w3.org/1999/xlink" width="24.9023" height="25.2319">
 <g>
  <rect height="25.2319" opacity="0" width="24.9023" x="0" y="0"/>
  <path d="M0.12207 19.3726L0.12207 23.0713C0.12207 24.5483 0.830078 25.2319 2.33154 25.2319L6.23779 25.2319C3.56445 23.9258 1.57471 21.9971 0.12207 19.3726ZM24.7803 19.3726C23.3276 21.9971 21.3379 23.9258 18.6768 25.2319L22.5708 25.2319C24.0723 25.2319 24.7803 24.5483 24.7803 23.0713ZM12.4512 25.061C19.2627 25.061 24.9023 19.4092 24.9023 12.6099C24.9023 5.79834 19.2505 0.158691 12.439 0.158691C5.63965 0.158691 0 5.79834 0 12.6099C0 19.4092 5.65186 25.061 12.4512 25.061Z" fill="#5ac8f5" fill-opacity="0.25"/>
  <path d="M8.08105 9.60693C7.72705 9.25293 7.73926 8.71582 8.08105 8.37402C8.43506 8.02002 8.95996 8.02002 9.32617 8.37402L12.439 11.499L17.5659 6.37207C17.9199 6.01807 18.4326 6.03027 18.7988 6.37207C19.165 6.71387 19.1528 7.27539 18.7988 7.61719L13.0737 13.3545C12.7197 13.7085 12.1704 13.7207 11.8164 13.3545Z" fill="#5ac8f5"/>
 </g>
</svg>
