<?xml version="1.0" encoding="UTF-8"?>
<!--Generator: Apple Native CoreSVG 175.5-->
<!DOCTYPE svg
PUBLIC "-//W3C//DTD SVG 1.1//EN"
       "http://www.w3.org/Graphics/SVG/1.1/DTD/svg11.dtd">
<svg version="1.1" xmlns="http://www.w3.org/2000/svg" xmlns:xlink="http://www.w3.org/1999/xlink" width="23.9181" height="25.9155">
 <g>
  <rect height="25.9155" opacity="0" width="23.9181" x="0" y="0"/>
  <path d="M2.83203 25.6348L12.1582 25.6348C12.085 25.5005 12.0117 25.3662 11.9507 25.2075L11.377 23.6694L2.91748 23.6694C2.35596 23.6694 1.96533 23.291 1.96533 22.7051L1.96533 2.94189C1.96533 2.35596 2.35596 1.96533 2.91748 1.96533L18.2617 1.96533C18.8354 1.96533 19.2139 2.35596 19.2139 2.94189L19.2139 15.8203C19.8853 15.6494 20.5933 15.6616 21.1792 15.8569L21.1792 2.91748C21.1792 1.17188 20.0439 0 18.3594 0L2.83203 0C1.13525 0 0 1.17188 0 2.91748L0 22.7295C0 24.4751 1.13525 25.6348 2.83203 25.6348ZM4.60205 5.24902C5.2002 5.24902 5.67627 4.76074 5.67627 4.1626C5.67627 3.57666 5.2002 3.08838 4.60205 3.08838C4.01611 3.08838 3.52783 3.57666 3.52783 4.1626C3.52783 4.76074 4.01611 5.24902 4.60205 5.24902ZM7.71484 5.24902C8.31299 5.24902 8.78906 4.76074 8.78906 4.1626C8.78906 3.57666 8.31299 3.08838 7.71484 3.08838C7.12891 3.08838 6.65283 3.57666 6.65283 4.1626C6.65283 4.76074 7.12891 5.24902 7.71484 5.24902ZM14.0991 4.78516L17.0166 4.78516C17.3828 4.78516 17.627 4.54102 17.627 4.1626C17.627 3.79639 17.3828 3.55225 17.0166 3.55225L14.0991 3.55225C13.7329 3.55225 13.4888 3.79639 13.4888 4.1626C13.4888 4.54102 13.7329 4.78516 14.0991 4.78516ZM1.07422 7.97119L20.0928 7.97119L20.0928 6.37207L1.07422 6.37207ZM4.19922 15.8203C4.19922 19.3481 7.05566 22.2046 10.5957 22.2046C10.6812 22.2046 10.7422 22.2046 10.8276 22.2046C10.6689 21.7651 10.5225 21.3257 10.3638 20.8862C10.3394 20.8862 10.2905 20.8862 10.2661 20.8862C8.1665 20.8862 5.51758 18.8354 5.51758 15.8203C5.51758 13.0005 7.77588 10.7422 10.5957 10.7422C13.3911 10.7422 15.6616 13.0005 15.6616 15.7715C15.6616 15.8325 15.6616 15.9058 15.6494 15.9668C16.1499 16.0889 16.6382 16.2964 16.9556 16.4551C16.98 16.2476 16.98 16.0278 16.98 15.8203C16.98 12.2925 14.1235 9.42383 10.5957 9.42383C7.05566 9.42383 4.19922 12.2925 4.19922 15.8203ZM17.3218 19.1895C18.7134 19.1895 19.0308 18.2739 20.1172 18.2739C21.0693 18.2739 21.4233 19.0063 22.6685 19.1528L22.7539 18.042C21.8384 17.8711 21.3013 17.1265 20.1172 17.1265C18.7378 17.1265 18.2861 18.042 17.3218 18.042C16.3574 18.042 15.8936 17.1265 14.5142 17.1265C13.3423 17.1265 12.793 17.8711 11.8774 18.042L11.9629 19.1528C13.208 19.0063 13.562 18.2739 14.5142 18.2739C15.6006 18.2739 15.918 19.1895 17.3218 19.1895ZM14.6606 25.6592L19.9707 25.6592C20.5933 25.6592 21.1304 25.3052 21.3745 24.6582L23.8525 17.981C24.0479 17.4316 23.7793 17.0288 23.4131 16.8945C23.0347 16.7603 22.5586 16.8823 22.3511 17.4194L19.9951 23.7305C19.9097 23.9624 19.7632 24.0601 19.5679 24.0601L15.0635 24.0601C14.8682 24.0601 14.7217 23.9624 14.6362 23.7305L12.2803 17.4194C12.085 16.8823 11.5967 16.7603 11.2305 16.8945C10.8521 17.0288 10.5957 17.4316 10.791 17.981L13.269 24.6582C13.501 25.3052 14.0503 25.6592 14.6606 25.6592Z" fill="#5ac8f5"/>
 </g>
</svg>
