<?xml version="1.0" encoding="UTF-8"?>
<!--Generator: Apple Native CoreSVG 175.5-->
<!DOCTYPE svg
PUBLIC "-//W3C//DTD SVG 1.1//EN"
       "http://www.w3.org/Graphics/SVG/1.1/DTD/svg11.dtd">
<svg version="1.1" xmlns="http://www.w3.org/2000/svg" xmlns:xlink="http://www.w3.org/1999/xlink" width="30.7558" height="28.4302">
 <g>
  <rect height="28.4302" opacity="0" width="30.7558" x="0" y="0"/>
  <path d="M21.228 28.3936L26.8799 28.3936C28.4912 28.3936 29.2969 27.5757 29.4678 25.8179L30.7495 12.5244C30.8105 11.8408 30.4199 11.3892 29.7485 11.3892L18.3472 11.3892C17.688 11.3892 17.2974 11.853 17.3584 12.5244L18.6401 25.8179C18.811 27.5757 19.6045 28.3936 21.228 28.3936ZM21.3013 26.4893C20.813 26.4893 20.5688 26.2695 20.5078 25.7446L19.3359 13.2935L28.772 13.2935L27.5879 25.7446C27.5391 26.2695 27.2949 26.4893 26.8066 26.4893ZM23.2544 12.0117L24.939 12.0117L25.0122 10.8643C25.061 10.2539 25.2441 9.8999 25.6958 9.57031L29.7729 6.64062C30.7007 5.98145 29.7241 4.57764 28.7354 5.29785L24.8047 8.14209C23.8647 8.82568 23.4619 9.57031 23.3521 10.7666ZM3.72314 26.3184L17.0166 26.3184C17.0044 26.1963 16.9922 26.0986 16.98 25.9766L16.8335 24.353L3.74756 24.353C2.57568 24.353 1.96533 23.7305 1.96533 22.5464L1.96533 9.94873C1.96533 9.48486 1.98975 9.28955 2.17285 9.04541L4.55322 5.896C4.73633 5.65186 4.79736 5.44434 4.79736 5.13916L4.79736 2.9541C4.79736 2.28271 5.10254 1.96533 5.71289 1.96533L15.9546 1.96533C16.5527 1.96533 16.8579 2.28271 16.8579 2.9541L16.8579 5.13916C16.8579 5.44434 16.9312 5.65186 17.1021 5.896L19.4824 9.04541C19.6533 9.25293 19.6777 9.39941 19.6777 9.7168L21.6553 9.7168C21.6431 8.95996 21.5332 8.60596 21.1548 8.09326L18.8232 5.00488L18.8232 2.68555C18.8232 0.952148 17.8101 0 15.9668 0L5.68848 0C3.85742 0 2.83203 0.952148 2.83203 2.68555L2.83203 5.00488L0.512695 8.09326C0.109863 8.63037 0 8.99658 0 9.85107L0 22.644C0 25.0854 1.24512 26.3184 3.72314 26.3184ZM7.51953 5.43213L14.0991 5.43213C14.5264 5.43213 14.8804 5.07812 14.8804 4.63867C14.8804 4.21143 14.5264 3.83301 14.0991 3.83301L7.51953 3.83301C7.09229 3.83301 6.73828 4.21143 6.73828 4.63867C6.73828 5.07812 7.09229 5.43213 7.51953 5.43213Z" fill="#5ac8f5"/>
 </g>
</svg>
