<?xml version="1.0" encoding="UTF-8"?>
<!--Generator: Apple Native CoreSVG 175.5-->
<!DOCTYPE svg
PUBLIC "-//W3C//DTD SVG 1.1//EN"
       "http://www.w3.org/Graphics/SVG/1.1/DTD/svg11.dtd">
<svg version="1.1" xmlns="http://www.w3.org/2000/svg" xmlns:xlink="http://www.w3.org/1999/xlink" width="29.8462" height="25.9155">
 <g>
  <rect height="25.9155" opacity="0" width="29.8462" x="0" y="0"/>
  <path d="M0.976562 25.9033C1.52588 25.9033 1.96533 25.4639 1.96533 24.9268L1.96533 2.6123C1.96533 2.22168 2.22168 1.96533 2.58789 1.96533L27.2583 1.96533C27.6245 1.96533 27.8809 2.22168 27.8809 2.6123L27.8809 24.9268C27.8809 25.4639 28.3203 25.9033 28.8574 25.9033C29.4067 25.9033 29.8462 25.4639 29.8462 24.9268L29.8462 2.49023C29.8462 1.00098 28.8208 0 27.2827 0L2.55127 0C1.02539 0 0 1.00098 0 2.49023L0 24.9268C0 25.4639 0.439453 25.9033 0.976562 25.9033Z" fill="#5ac8f5" fill-opacity="0.5"/>
  <path d="M15.4419 25.4761L26.0376 25.4761C26.2695 25.4761 26.4526 25.2808 26.4526 25.061L26.4526 3.79639C26.4526 3.56445 26.2695 3.38135 26.0376 3.38135L15.4419 3.38135C15.21 3.38135 15.0269 3.56445 15.0269 3.79639L15.0269 25.061C15.0269 25.2808 15.21 25.4761 15.4419 25.4761ZM17.7856 16.3452C17.4438 16.3452 17.1997 16.1011 17.1997 15.7471L17.1997 13.6108C17.1997 13.2568 17.4438 13.0249 17.7856 13.0249C18.1396 13.0249 18.3716 13.2568 18.3716 13.6108L18.3716 15.7471C18.3716 16.1011 18.1396 16.3452 17.7856 16.3452Z" fill="#5ac8f5"/>
 </g>
</svg>
