<?xml version="1.0" encoding="UTF-8"?>
<!--Generator: Apple Native CoreSVG 175.5-->
<!DOCTYPE svg
PUBLIC "-//W3C//DTD SVG 1.1//EN"
       "http://www.w3.org/Graphics/SVG/1.1/DTD/svg11.dtd">
<svg version="1.1" xmlns="http://www.w3.org/2000/svg" xmlns:xlink="http://www.w3.org/1999/xlink" width="22.4731" height="22.4976">
 <g>
  <rect height="22.4976" opacity="0" width="22.4731" x="0" y="0"/>
  <path d="M3.83301 22.4976L18.6401 22.4976C21.2036 22.4976 22.4731 21.228 22.4731 18.7134L22.4731 3.80859C22.4731 1.29395 21.2036 0.0244141 18.6401 0.0244141L3.83301 0.0244141C1.28174 0.0244141 0 1.28174 0 3.80859L0 18.7134C0 21.2402 1.28174 22.4976 3.83301 22.4976ZM8.60596 16.5161C8.14209 16.5161 7.82471 16.1987 7.82471 15.7104L7.82471 7.89795L7.75146 7.89795L6.4209 8.89893C6.11572 9.11865 6.00586 9.13086 5.79834 9.13086C5.43213 9.13086 5.07812 8.80127 5.07812 8.37402C5.07812 8.04443 5.23682 7.82471 5.49316 7.62939L7.40967 6.32324C7.86133 6.01807 8.10547 5.896 8.52051 5.896C9.04541 5.896 9.39941 6.27441 9.39941 6.79932L9.39941 15.7104C9.39941 16.1987 9.08203 16.5161 8.60596 16.5161ZM15.21 16.5161C14.7339 16.5161 14.4165 16.1987 14.4165 15.7104L14.4165 7.89795L14.3555 7.89795L13.0249 8.89893C12.7319 9.11865 12.5977 9.13086 12.4023 9.13086C12.0361 9.13086 11.6821 8.80127 11.6821 8.37402C11.6821 8.04443 11.8286 7.82471 12.1094 7.62939L14.0015 6.32324C14.4531 6.01807 14.6973 5.896 15.1123 5.896C15.6494 5.896 16.0034 6.27441 16.0034 6.79932L16.0034 15.7104C16.0034 16.1987 15.686 16.5161 15.21 16.5161Z" fill="#5ac8f5"/>
 </g>
</svg>
