<?xml version="1.0" encoding="UTF-8"?>
<!--Generator: Apple Native CoreSVG 175.5-->
<!DOCTYPE svg
PUBLIC "-//W3C//DTD SVG 1.1//EN"
       "http://www.w3.org/Graphics/SVG/1.1/DTD/svg11.dtd">
<svg version="1.1" xmlns="http://www.w3.org/2000/svg" xmlns:xlink="http://www.w3.org/1999/xlink" width="24.9023" height="24.9146">
 <g>
  <rect height="24.9146" opacity="0" width="24.9023" x="0" y="0"/>
  <path d="M12.4512 24.9023C19.2627 24.9023 24.9023 19.2505 24.9023 12.4512C24.9023 5.63965 19.2505 0 12.439 0C5.63965 0 0 5.63965 0 12.4512C0 19.2505 5.65186 24.9023 12.4512 24.9023ZM12.4512 22.8271C6.68945 22.8271 2.0874 18.2129 2.0874 12.4512C2.0874 6.68945 6.67725 2.0752 12.439 2.0752C18.2007 2.0752 22.8271 6.68945 22.8271 12.4512C22.8271 18.2129 18.2129 22.8271 12.4512 22.8271Z" fill="#5ac8f5" fill-opacity="0.5"/>
  <path d="M12.6221 9.39941L6.81152 15.6494C6.51855 15.9668 6.50635 16.3574 6.75049 16.6626L6.00586 17.6147C5.88379 17.7856 5.896 18.0054 6.05469 18.1519L6.23779 18.335C6.38428 18.4814 6.5918 18.5059 6.7749 18.3716L7.73926 17.627C8.03223 17.8711 8.42285 17.8589 8.72803 17.5781L11.7676 14.7583L11.7676 18.0542C11.7676 18.4448 12.0728 18.7622 12.4756 18.7622C12.8662 18.7622 13.1836 18.4448 13.1836 18.0542L13.1836 13.4399L14.9658 11.7798C15.7471 11.8652 16.5161 11.5479 17.1753 10.8643L13.5132 7.20215C12.8418 7.88574 12.5366 8.63037 12.6221 9.39941ZM7.73926 16.2598L13.0859 10.5835C13.1714 10.7178 13.269 10.8398 13.4033 10.9863C13.5132 11.1084 13.6475 11.2183 13.7817 11.3037L8.12988 16.6626ZM17.8833 6.49414C16.7725 5.3833 15.2832 5.43213 14.1357 6.57959L17.7979 10.2417C18.9575 9.09424 18.9941 7.60498 17.8833 6.49414Z" fill="#5ac8f5"/>
 </g>
</svg>
