<?xml version="1.0" encoding="UTF-8"?>
<!--Generator: Apple Native CoreSVG 175.5-->
<!DOCTYPE svg
PUBLIC "-//W3C//DTD SVG 1.1//EN"
       "http://www.w3.org/Graphics/SVG/1.1/DTD/svg11.dtd">
<svg version="1.1" xmlns="http://www.w3.org/2000/svg" xmlns:xlink="http://www.w3.org/1999/xlink" width="24.9023" height="24.9146">
 <g>
  <rect height="24.9146" opacity="0" width="24.9023" x="0" y="0"/>
  <path d="M2.79541 17.8345C4.63867 16.4429 4.57764 14.0991 5.27344 14.0991C5.65186 14.0991 6.03027 14.4287 6.68945 15.271C7.8125 16.7236 8.55713 17.4438 9.31396 17.4438C10.022 17.4438 10.8887 16.4062 10.8887 15.5762C10.8887 15.1855 10.1562 14.6851 10.1562 14.3921C10.1562 14.2212 10.3271 14.1357 10.5713 14.1357C12.2925 14.1357 13.8062 12.6953 13.8062 11.5479C13.8062 10.73 12.4756 9.97314 12.4756 9.44824C12.4756 9.22852 12.6587 9.08203 12.8784 9.08203C13.0249 9.08203 13.1958 9.14307 13.4155 9.30176C14.7461 10.3516 15.3687 9.80225 15.4907 9.13086C15.5396 8.8501 15.6982 8.55713 16.394 8.21533C17.8467 7.44629 18.8721 6.39648 18.8721 5.57861C18.8721 4.66309 17.2119 3.88184 17.2119 3.52783C17.2119 3.33252 17.5171 3.16162 18.3228 2.91748C17.0654 1.77002 15.0635 0.927734 12.439 0.927734C5.54199 1.19629 1.06201 6.12793 1.02539 12.4512C1.01318 14.4287 1.63574 16.394 2.79541 17.8345ZM17.8955 22.7661C20.2881 21.2402 22.0459 19.3848 23.1689 17.2363C22.9614 15.6738 22.2168 14.7705 21.167 14.7705C20.8862 14.7705 20.5322 14.8193 20.2148 14.9292C19.7876 15.0635 19.7021 15.0391 19.3604 14.6484C18.8721 14.0869 18.4448 13.8916 17.7734 13.8916C16.5039 13.8916 15.7715 14.5508 15.2222 16.1987C15.0635 16.6992 14.8438 16.8701 13.9893 17.1997L13.4766 17.3828C12.5244 17.749 12.2803 18.4326 12.6099 19.873C12.9028 21.1426 13.5132 21.7896 14.3799 21.7896C15.1611 21.7896 15.6372 21.5088 16.1743 21.5088C16.9556 21.4844 17.3462 21.9971 17.8955 22.7661ZM15.3931 11.7065C16.1865 11.7065 16.5405 10.9985 17.4316 10.73C18.0176 10.5591 18.335 9.96094 18.335 9.44824C18.335 9.0332 18.1274 8.6792 17.6758 8.6792C17.1997 8.6792 16.7603 9.04541 16.4673 9.66797C16.3086 10.022 16.04 10.1929 15.3931 10.376C14.8804 10.5347 14.6973 10.7178 14.6973 11.1084C14.6973 11.5234 15.0269 11.7065 15.3931 11.7065ZM11.853 17.3462C12.5488 17.3462 13.2324 16.5405 13.2324 15.8203C13.2324 14.9292 12.8662 14.5142 12.439 14.5142C11.9751 14.5142 11.6821 15.0635 11.6821 15.8936C11.6821 16.3696 11.2671 16.3818 11.2671 16.8579C11.2671 17.1509 11.499 17.3462 11.853 17.3462ZM9.7168 19.5801C10.2539 19.5801 10.5835 19.2993 10.5835 18.8599C10.5835 18.5181 10.3271 18.2983 9.96094 18.2983C8.48389 18.2983 8.42285 17.4683 7.71484 17.4683C7.32422 17.4683 7.05566 17.7002 7.05566 18.042C7.05566 18.3105 7.32422 18.5181 7.69043 18.5181C8.47168 18.5181 8.10547 19.5801 9.7168 19.5801ZM12.4512 24.9023C19.2627 24.9023 24.9023 19.2505 24.9023 12.4512C24.9023 5.63965 19.2505 0 12.439 0C5.63965 0 0 5.63965 0 12.4512C0 19.2505 5.65186 24.9023 12.4512 24.9023ZM12.4512 23.2422C6.55518 23.2422 1.66016 18.3472 1.66016 12.4512C1.66016 6.55518 6.54297 1.66016 12.439 1.66016C18.335 1.66016 23.2422 6.55518 23.2422 12.4512C23.2422 18.3472 18.3472 23.2422 12.4512 23.2422Z" fill="#5ac8f5"/>
 </g>
</svg>
