<?xml version="1.0" encoding="UTF-8"?>
<!--Generator: Apple Native CoreSVG 175.5-->
<!DOCTYPE svg
PUBLIC "-//W3C//DTD SVG 1.1//EN"
       "http://www.w3.org/Graphics/SVG/1.1/DTD/svg11.dtd">
<svg version="1.1" xmlns="http://www.w3.org/2000/svg" xmlns:xlink="http://www.w3.org/1999/xlink" width="24.9023" height="24.9146">
 <g>
  <rect height="24.9146" opacity="0" width="24.9023" x="0" y="0"/>
  <path d="M12.4512 24.9146C19.2627 24.9146 24.9023 19.2749 24.9023 12.4634C24.9023 5.66406 19.2505 0.012207 12.439 0.012207C5.63965 0.012207 0 5.66406 0 12.4634C0 19.2749 5.65186 24.9146 12.4512 24.9146ZM8.99658 7.06787C10.2295 7.06787 11.3403 7.56836 11.9263 8.39844C12.0361 8.55713 12.0483 8.58154 12.0483 8.74023L12.0483 17.4927C12.0483 17.6392 11.9385 17.7368 11.8042 17.7368C11.731 17.7368 11.6821 17.7124 11.6089 17.6514C10.9131 17.0654 10.083 16.7847 9.21631 16.7847C8.20312 16.7847 7.22656 17.1387 6.51855 17.749C6.39648 17.8467 6.26221 17.8955 6.10352 17.8955C5.83496 17.8955 5.65186 17.7246 5.65186 17.4683L5.65186 9.11865C5.65186 8.89893 5.65186 8.82568 5.7251 8.71582C6.32324 7.66602 7.69043 7.06787 8.99658 7.06787ZM15.918 7.06787C17.2241 7.06787 18.5913 7.66602 19.1895 8.71582C19.2627 8.81348 19.2749 8.89893 19.2749 9.11865L19.2749 17.4683C19.2749 17.7246 19.0796 17.8955 18.811 17.8955C18.6523 17.8955 18.5303 17.8467 18.396 17.749C17.7002 17.1387 16.7236 16.7847 15.6982 16.7847C14.8438 16.7847 14.0015 17.0654 13.3057 17.6514C13.2446 17.7124 13.1836 17.7368 13.1104 17.7368C12.9761 17.7368 12.8784 17.6392 12.8784 17.4927L12.8784 8.74023C12.8784 8.58154 12.8784 8.55713 12.9883 8.39844C13.5864 7.56836 14.6851 7.06787 15.918 7.06787Z" fill="#5ac8f5"/>
 </g>
</svg>
