<?xml version="1.0" encoding="UTF-8"?>
<!--Generator: Apple Native CoreSVG 175.5-->
<!DOCTYPE svg
PUBLIC "-//W3C//DTD SVG 1.1//EN"
       "http://www.w3.org/Graphics/SVG/1.1/DTD/svg11.dtd">
<svg version="1.1" xmlns="http://www.w3.org/2000/svg" xmlns:xlink="http://www.w3.org/1999/xlink" width="22.5633" height="28.9429">
 <g>
  <rect height="28.9429" opacity="0" width="22.5633" x="0" y="0"/>
  <path d="M12.5732 15.0269L22.1924 5.40771C22.9248 4.6875 22.5098 3.79639 21.4966 3.479C19.1772 2.73438 16.6748 2.52686 13.4033 2.72217L12.7563 2.03857C11.7188 0.927734 10.2417 0.927734 9.14307 2.00195C8.08105 3.10059 8.05664 4.61426 9.17969 5.61523L9.86328 6.23779C9.65576 9.47266 9.85107 11.9873 10.5957 14.3433C10.9253 15.3687 11.8042 15.7959 12.5732 15.0269ZM9.70459 3.85742L10.9985 2.55127L8.81348 0.390625C8.44727 0.0244141 7.88574 0.0244141 7.51953 0.390625C7.16553 0.744629 7.15332 1.30615 7.51953 1.67236ZM18.0908 14.2578C19.8975 14.2578 21.3867 12.7563 21.3867 10.9741C21.3867 10.1929 21.106 9.43604 20.5566 8.83789L15.9546 13.4399C16.5527 13.9771 17.3096 14.2578 18.0908 14.2578ZM2.30713 16.6382L11.5723 8.11768L10.2295 6.70166L0.976562 15.21ZM1.9043 17.5781C2.96631 17.5781 3.80859 16.748 3.80859 15.6738C3.80859 14.6118 2.96631 13.7695 1.9043 13.7695C0.830078 13.7695 0 14.6118 0 15.6738C0 16.748 0.830078 17.5781 1.9043 17.5781ZM6.86035 21.9116L8.25195 20.5322L2.18506 14.4897L0.805664 15.8691ZM7.22656 23.1812C8.28857 23.1812 9.13086 22.3511 9.13086 21.2769C9.13086 20.2148 8.27637 19.3726 7.22656 19.3726C6.15234 19.3726 5.32227 20.2148 5.32227 21.2769C5.32227 22.3511 6.15234 23.1812 7.22656 23.1812ZM6.23779 27.2217L8.20312 27.2217L8.20312 21.3257L6.23779 21.3257ZM1.40381 28.9429L14.3921 28.9429C14.8438 28.9429 15.1489 28.6133 15.1489 28.1372C15.1489 27.2217 14.3555 26.5747 13.1226 26.5747L2.67334 26.5747C1.44043 26.5747 0.646973 27.2217 0.646973 28.1372C0.646973 28.6133 0.952148 28.9429 1.40381 28.9429Z" fill="#5ac8f5"/>
 </g>
</svg>
