<?xml version="1.0" encoding="UTF-8"?>
<!--Generator: Apple Native CoreSVG 175.5-->
<!DOCTYPE svg
PUBLIC "-//W3C//DTD SVG 1.1//EN"
       "http://www.w3.org/Graphics/SVG/1.1/DTD/svg11.dtd">
<svg version="1.1" xmlns="http://www.w3.org/2000/svg" xmlns:xlink="http://www.w3.org/1999/xlink" width="35.4736" height="25.8179">
 <g>
  <rect height="25.8179" opacity="0" width="35.4736" x="0" y="0"/>
  <path d="M22.8394 8.39844C25.2197 8.39844 27.0874 10.2661 27.0874 12.6587C27.0874 14.5874 25.8545 16.2231 24.0967 16.7847L24.1089 18.6279C26.8555 18.0054 28.8696 15.564 28.8696 12.6587C28.8696 9.30176 26.1963 6.604 22.8394 6.604C19.4824 6.604 16.7969 9.30176 16.7969 12.6587C16.7969 12.8174 16.8091 12.9639 16.8213 13.0981L18.6646 13.2812C18.6157 13.0737 18.5913 12.8784 18.5913 12.6587C18.5913 10.2661 20.459 8.39844 22.8394 8.39844ZM15.7593 7.01904C16.1621 7.42188 16.8213 7.40967 17.1997 7.01904C17.5781 6.62842 17.5903 5.99365 17.1997 5.60303L15.3198 3.72314C14.9292 3.33252 14.2944 3.33252 13.9038 3.72314C13.5132 4.11377 13.501 4.76074 13.9038 5.15137ZM22.8394 4.67529C23.4009 4.67529 23.8525 4.19922 23.8525 3.66211L23.8525 1.01318C23.8525 0.463867 23.4009 0 22.8394 0C22.2778 0 21.8262 0.463867 21.8262 1.01318L21.8262 3.66211C21.8262 4.19922 22.2778 4.67529 22.8394 4.67529ZM28.479 7.01904C28.8574 7.40967 29.5166 7.42188 29.9194 7.01904L31.7871 5.15137C32.1777 4.76074 32.1777 4.11377 31.7871 3.72314C31.3965 3.33252 30.7617 3.33252 30.3711 3.72314L28.479 5.60303C28.0884 5.99365 28.1006 6.62842 28.479 7.01904ZM31.8237 13.6719L34.4727 13.6719C35.022 13.6719 35.4736 13.2202 35.4736 12.6587C35.4736 12.1094 35.022 11.6455 34.4727 11.6455L31.8237 11.6455C31.2866 11.6455 30.8105 12.1094 30.8105 12.6587C30.8105 13.2202 31.2866 13.6719 31.8237 13.6719ZM30.3711 21.6187C30.7617 22.0093 31.3965 21.9971 31.7871 21.6064C32.1777 21.2158 32.1777 20.5688 31.7871 20.1904L29.895 18.3228C29.5044 17.9443 28.8696 17.9321 28.479 18.3228C28.0884 18.7134 28.0884 19.3604 28.479 19.751Z" fill="#5ac8f5" fill-opacity="0.5"/>
  <path d="M5.17578 24.6704L18.3838 24.6704C21.9116 24.6704 24.6582 21.9971 24.6582 18.5547C24.6582 15.1367 21.8872 12.561 18.2251 12.5122C16.7969 9.83887 14.2456 8.20312 11.2305 8.20312C7.18994 8.20312 3.80859 11.3159 3.40576 15.332C1.37939 15.9668 0 17.7246 0 19.9463C0 22.6929 2.0752 24.6704 5.17578 24.6704ZM5.12695 22.7173C3.05176 22.7173 1.95312 21.521 1.95312 19.9951C1.95312 18.7012 2.70996 17.5659 4.50439 17.0776C5.09033 16.9312 5.31006 16.6626 5.35889 16.04C5.63965 12.6221 8.17871 10.1562 11.2305 10.1562C13.5986 10.1562 15.4419 11.4624 16.5771 13.7329C16.8457 14.2578 17.1387 14.4409 17.7612 14.4409C20.9229 14.4409 22.6929 16.3452 22.6929 18.6157C22.6929 20.8862 20.8374 22.7173 18.4204 22.7173Z" fill="#5ac8f5"/>
 </g>
</svg>
