<?xml version="1.0" encoding="UTF-8"?>
<!--Generator: Apple Native CoreSVG 175.5-->
<!DOCTYPE svg
PUBLIC "-//W3C//DTD SVG 1.1//EN"
       "http://www.w3.org/Graphics/SVG/1.1/DTD/svg11.dtd">
<svg version="1.1" xmlns="http://www.w3.org/2000/svg" xmlns:xlink="http://www.w3.org/1999/xlink" width="24.9023" height="24.9146">
 <g>
  <rect height="24.9146" opacity="0" width="24.9023" x="0" y="0"/>
  <path d="M12.4512 24.9023C19.2627 24.9023 24.9023 19.2505 24.9023 12.4512C24.9023 5.63965 19.2505 0 12.439 0C5.63965 0 0 5.63965 0 12.4512C0 19.2505 5.65186 24.9023 12.4512 24.9023ZM12.4512 22.8271C6.68945 22.8271 2.0874 18.2129 2.0874 12.4512C2.0874 6.68945 6.67725 2.0752 12.439 2.0752C18.2007 2.0752 22.8271 6.68945 22.8271 12.4512C22.8271 18.2129 18.2129 22.8271 12.4512 22.8271Z" fill="#5ac8f5" fill-opacity="0.5"/>
  <path d="M5.70068 10.4736C6.73828 10.1318 7.8125 9.96094 8.8623 9.96094C10.2173 9.96094 11.2183 10.1807 12.5122 10.1807C13.916 10.1807 14.8071 9.21631 14.8071 7.97119C14.8071 6.68945 13.8184 5.77393 12.6099 5.77393C11.6943 5.77393 10.9009 6.34766 10.5957 7.09229C10.4492 7.38525 10.5103 7.77588 10.8643 7.93457C11.1572 8.08105 11.5234 7.9834 11.7065 7.60498C11.853 7.26318 12.1826 7.00684 12.6099 7.00684C13.1592 7.00684 13.562 7.36084 13.562 7.97119C13.562 8.58154 13.1714 8.94775 12.5122 8.94775C11.2915 8.94775 10.2783 8.71582 8.8623 8.71582C7.65381 8.71582 6.40869 8.95996 5.31006 9.30176C4.91943 9.41162 4.76074 9.76562 4.87061 10.083C4.96826 10.4126 5.31006 10.6079 5.70068 10.4736ZM17.1997 13.9404C19.0063 13.9404 20.2881 12.7808 20.2881 11.1694C20.2881 9.59473 19.0552 8.43506 17.5415 8.43506C16.1499 8.43506 15.0757 9.42383 14.9048 10.7056C14.8438 11.0962 15.0879 11.4136 15.4053 11.4502C15.7471 11.499 16.0645 11.2915 16.1377 10.8643C16.2598 10.1562 16.8213 9.68018 17.5415 9.68018C18.396 9.68018 19.043 10.2661 19.043 11.1694C19.043 12.0972 18.3472 12.6953 17.1997 12.6953C14.978 12.6953 12.561 11.4014 9.57031 11.4014C8.04443 11.4014 6.61621 11.6699 5.29785 12.1216C4.93164 12.2559 4.76074 12.5977 4.87061 12.915C4.95605 13.2446 5.29785 13.4399 5.70068 13.3057C6.88477 12.854 8.11768 12.6465 9.57031 12.6465C12.4878 12.6465 14.6851 13.9404 17.1997 13.9404ZM12.5244 19.1284C13.7207 19.1284 14.6851 18.2251 14.6851 16.9556C14.6851 15.1001 12.8174 14.0991 9.47266 14.0991C8.10547 14.0991 6.57959 14.3555 5.29785 14.8071C4.94385 14.9414 4.76074 15.2832 4.87061 15.5762C4.95605 15.9058 5.29785 16.1255 5.70068 15.9912C6.86035 15.564 8.1543 15.3198 9.47266 15.3198C12.1216 15.3198 13.4399 15.9546 13.4399 16.9556C13.4399 17.5659 13.0371 17.8955 12.5244 17.8955C11.9873 17.8955 11.7188 17.5781 11.6211 17.0044C11.5723 16.6748 11.3159 16.3696 10.9253 16.4062C10.4736 16.4307 10.3149 16.8213 10.3638 17.1753C10.498 18.2617 11.3159 19.1284 12.5244 19.1284Z" fill="#5ac8f5"/>
 </g>
</svg>
