<?xml version="1.0" encoding="UTF-8"?>
<!--Generator: Apple Native CoreSVG 175.5-->
<!DOCTYPE svg
PUBLIC "-//W3C//DTD SVG 1.1//EN"
       "http://www.w3.org/Graphics/SVG/1.1/DTD/svg11.dtd">
<svg version="1.1" xmlns="http://www.w3.org/2000/svg" xmlns:xlink="http://www.w3.org/1999/xlink" width="15.918" height="21.5951">
 <g>
  <rect height="21.5951" opacity="0" width="15.918" x="0" y="0"/>
  <path d="M4.88281 0.000425673C2.19727 0.0248397 0 1.79486 0 4.90765C0 7.60541 1.58691 9.48529 3.60107 10.645C4.5166 11.1577 5.51758 11.5239 7.12891 11.7558C6.87256 11.1454 6.72607 10.4619 6.72607 9.71722C6.72607 7.10492 8.87451 4.76117 11.5234 4.28509C11.3037 3.79681 11.0962 3.46722 10.8643 3.17425C9.31396 1.0014 6.98242-0.0239884 4.88281 0.000425673ZM4.41895 5.23724L2.6123 3.72357C2.35596 3.51605 2.34375 3.14984 2.55127 2.9057C2.75879 2.64935 3.125 2.61273 3.36914 2.82025L5.16357 4.33392C5.41992 4.54144 5.45654 4.90765 5.24902 5.164C5.0415 5.42035 4.66309 5.44476 4.41895 5.23724ZM11.4746 13.2573C13.6597 13.2573 15.918 11.5239 15.918 8.87494C15.918 7.10492 14.6729 5.37152 12.4756 5.37152C9.8877 5.37152 7.91016 7.60541 7.91016 9.71722C7.91016 12.0854 9.58252 13.2573 11.4746 13.2573ZM12.085 11.4018C11.7432 11.1088 11.9263 10.5229 12.6221 9.63177C13.3545 8.75287 13.9282 8.4599 14.2822 8.77728C14.624 9.07025 14.4409 9.66839 13.7329 10.5351C13.0127 11.4018 12.4268 11.707 12.085 11.4018ZM6.65283 21.5947C7.40967 21.5947 7.91016 21.204 7.91016 20.4472L7.91016 13.0986C6.64062 13.0131 5.48096 12.7812 4.44336 12.4028L4.44336 20.4472C4.44336 21.204 4.93164 21.5947 5.68848 21.5947Z" fill="#5ac8f5"/>
 </g>
</svg>
