<?xml version="1.0" encoding="UTF-8"?>
<!--Generator: Apple Native CoreSVG 175.5-->
<!DOCTYPE svg
PUBLIC "-//W3C//DTD SVG 1.1//EN"
       "http://www.w3.org/Graphics/SVG/1.1/DTD/svg11.dtd">
<svg version="1.1" xmlns="http://www.w3.org/2000/svg" xmlns:xlink="http://www.w3.org/1999/xlink" width="27.1484" height="22.4976">
 <g>
  <rect height="22.4976" opacity="0" width="27.1484" x="0" y="0"/>
  <path d="M2.33154 10.2539L10.2295 10.2539C11.7798 10.2539 12.561 9.47266 12.561 7.86133L12.561 2.40479C12.561 0.793457 11.7798 0.0244141 10.2295 0.0244141L2.33154 0.0244141C0.78125 0.0244141 0 0.793457 0 2.40479L0 7.86133C0 9.47266 0.78125 10.2539 2.33154 10.2539ZM2.35596 8.53271C1.92871 8.53271 1.72119 8.31299 1.72119 7.86133L1.72119 2.40479C1.72119 1.96533 1.92871 1.74561 2.35596 1.74561L10.1929 1.74561C10.6201 1.74561 10.8398 1.96533 10.8398 2.40479L10.8398 7.86133C10.8398 8.31299 10.6201 8.53271 10.1929 8.53271ZM16.9189 10.2539L24.8169 10.2539C26.3672 10.2539 27.1484 9.47266 27.1484 7.86133L27.1484 2.40479C27.1484 0.793457 26.3672 0.0244141 24.8169 0.0244141L16.9189 0.0244141C15.3687 0.0244141 14.5874 0.793457 14.5874 2.40479L14.5874 7.86133C14.5874 9.47266 15.3687 10.2539 16.9189 10.2539ZM16.9556 8.53271C16.5161 8.53271 16.3086 8.31299 16.3086 7.86133L16.3086 2.40479C16.3086 1.96533 16.5161 1.74561 16.9556 1.74561L24.7925 1.74561C25.2197 1.74561 25.4272 1.96533 25.4272 2.40479L25.4272 7.86133C25.4272 8.31299 25.2197 8.53271 24.7925 8.53271ZM2.33154 22.4976L10.2295 22.4976C11.7798 22.4976 12.561 21.7285 12.561 20.1172L12.561 14.6484C12.561 13.0493 11.7798 12.2681 10.2295 12.2681L2.33154 12.2681C0.78125 12.2681 0 13.0493 0 14.6484L0 20.1172C0 21.7285 0.78125 22.4976 2.33154 22.4976ZM2.35596 20.7764C1.92871 20.7764 1.72119 20.5566 1.72119 20.1172L1.72119 14.6606C1.72119 14.209 1.92871 13.9893 2.35596 13.9893L10.1929 13.9893C10.6201 13.9893 10.8398 14.209 10.8398 14.6606L10.8398 20.1172C10.8398 20.5566 10.6201 20.7764 10.1929 20.7764ZM16.9189 22.4976L24.8169 22.4976C26.3672 22.4976 27.1484 21.7285 27.1484 20.1172L27.1484 14.6484C27.1484 13.0493 26.3672 12.2681 24.8169 12.2681L16.9189 12.2681C15.3687 12.2681 14.5874 13.0493 14.5874 14.6484L14.5874 20.1172C14.5874 21.7285 15.3687 22.4976 16.9189 22.4976ZM16.9556 20.7764C16.5161 20.7764 16.3086 20.5566 16.3086 20.1172L16.3086 14.6606C16.3086 14.209 16.5161 13.9893 16.9556 13.9893L24.7925 13.9893C25.2197 13.9893 25.4272 14.209 25.4272 14.6606L25.4272 20.1172C25.4272 20.5566 25.2197 20.7764 24.7925 20.7764Z" fill="#5ac8f5"/>
 </g>
</svg>
