<?xml version="1.0" encoding="UTF-8"?>
<!--Generator: Apple Native CoreSVG 175.5-->
<!DOCTYPE svg
PUBLIC "-//W3C//DTD SVG 1.1//EN"
       "http://www.w3.org/Graphics/SVG/1.1/DTD/svg11.dtd">
<svg version="1.1" xmlns="http://www.w3.org/2000/svg" xmlns:xlink="http://www.w3.org/1999/xlink" width="24.9023" height="24.9146">
 <g>
  <rect height="24.9146" opacity="0" width="24.9023" x="0" y="0"/>
  <path d="M12.4512 24.9146C19.2627 24.9146 24.9023 19.2749 24.9023 12.4634C24.9023 5.66406 19.2505 0.012207 12.439 0.012207C5.63965 0.012207 0 5.66406 0 12.4634C0 19.2749 5.65186 24.9146 12.4512 24.9146Z" fill="#5ac8f5" fill-opacity="0.25"/>
  <path d="M7.95898 17.1021C6.12793 17.1021 4.73633 16.0034 4.73633 13.9282C4.73633 12.5366 5.60303 11.4136 6.7749 10.9253C6.95801 9.64355 8.05664 8.70361 9.36279 8.70361C9.50928 8.70361 9.69238 8.71582 9.86328 8.75244C10.7056 7.60498 12.0605 6.86035 13.5986 6.86035C16.2109 6.86035 18.2373 8.94775 18.2373 11.499C18.2373 11.6089 18.2373 11.7432 18.2251 11.8774C19.3481 12.146 20.1904 13.1836 20.1904 14.4409C20.1904 15.918 19.0186 17.1021 17.5171 17.1021Z" fill="#5ac8f5"/>
 </g>
</svg>
