<?xml version="1.0" encoding="UTF-8"?>
<!--Generator: Apple Native CoreSVG 175.5-->
<!DOCTYPE svg
PUBLIC "-//W3C//DTD SVG 1.1//EN"
       "http://www.w3.org/Graphics/SVG/1.1/DTD/svg11.dtd">
<svg version="1.1" xmlns="http://www.w3.org/2000/svg" xmlns:xlink="http://www.w3.org/1999/xlink" width="26.2451" height="22.7173">
 <g>
  <rect height="22.7173" opacity="0" width="26.2451" x="0" y="0"/>
  <path d="M0.976562 22.7173L25.2563 22.7173C25.7935 22.7173 26.2451 22.29 26.2451 21.7407C26.2451 21.2036 25.7935 20.7642 25.2563 20.7642L2.30713 20.7642C2.05078 20.7642 1.96533 20.6787 1.96533 20.4224L1.96533 1.12305C1.96533 0.598145 1.52588 0.146484 0.98877 0.146484C0.439453 0.146484 0 0.598145 0 1.12305L0 21.7529C0 22.3389 0.390625 22.7173 0.976562 22.7173ZM7.58057 16.5649C8.64258 16.5649 9.52148 15.6616 9.52148 14.624C9.52148 13.5986 8.64258 12.6831 7.58057 12.6831C6.51855 12.6831 5.62744 13.5986 5.62744 14.624C5.62744 15.6616 6.51855 16.5649 7.58057 16.5649ZM12.2559 8.76465C13.3057 8.76465 14.1968 7.86133 14.1968 6.82373C14.1968 5.79834 13.3057 4.88281 12.2559 4.88281C11.1938 4.88281 10.3027 5.79834 10.3027 6.82373C10.3027 7.86133 11.1938 8.76465 12.2559 8.76465ZM17.9199 14.6851C18.9697 14.6851 19.8608 13.7817 19.8608 12.7441C19.8608 11.7188 18.9697 10.8032 17.9199 10.8032C16.8579 10.8032 15.9668 11.7188 15.9668 12.7441C15.9668 13.7817 16.8579 14.6851 17.9199 14.6851ZM22.5952 6.89697C23.645 6.89697 24.5361 5.99365 24.5361 4.95605C24.5361 3.93066 23.645 3.01514 22.5952 3.01514C21.5332 3.01514 20.6421 3.93066 20.6421 4.95605C20.6421 5.99365 21.5332 6.89697 22.5952 6.89697Z" fill="#5ac8f5"/>
 </g>
</svg>
