<?xml version="1.0" encoding="UTF-8"?>
<!--Generator: Apple Native CoreSVG 175.5-->
<!DOCTYPE svg
PUBLIC "-//W3C//DTD SVG 1.1//EN"
       "http://www.w3.org/Graphics/SVG/1.1/DTD/svg11.dtd">
<svg version="1.1" xmlns="http://www.w3.org/2000/svg" xmlns:xlink="http://www.w3.org/1999/xlink" width="24.9023" height="24.9146">
 <g>
  <rect height="24.9146" opacity="0" width="24.9023" x="0" y="0"/>
  <path d="M12.4512 24.9023C19.2627 24.9023 24.9023 19.2505 24.9023 12.4512C24.9023 5.63965 19.2505 0 12.439 0C5.63965 0 0 5.63965 0 12.4512C0 19.2505 5.65186 24.9023 12.4512 24.9023ZM12.4512 22.8271C6.68945 22.8271 2.0874 18.2129 2.0874 12.4512C2.0874 6.68945 6.67725 2.0752 12.439 2.0752C18.2007 2.0752 22.8271 6.68945 22.8271 12.4512C22.8271 18.2129 18.2129 22.8271 12.4512 22.8271ZM12.439 17.2852C16.2231 17.2852 19.1895 14.8193 19.1895 11.7676C19.1895 8.72803 16.2231 6.26221 12.439 6.26221C8.65479 6.26221 5.68848 8.72803 5.68848 11.7676C5.68848 13.6841 6.89697 15.3442 8.69141 16.3696C8.83789 16.4551 8.83789 16.5894 8.76465 16.7236C8.56934 17.1387 8.21533 17.5049 7.95898 17.7979C7.61719 18.1885 7.71484 18.6157 8.25195 18.6157C8.92334 18.6157 10.144 18.1152 11.3525 17.3706C11.4746 17.2974 11.5479 17.2485 11.6821 17.2607C11.9141 17.2729 12.1704 17.2852 12.439 17.2852Z" fill="#5ac8f5"/>
 </g>
</svg>
