<?xml version="1.0" encoding="UTF-8"?>
<!--Generator: Apple Native CoreSVG 175.5-->
<!DOCTYPE svg
PUBLIC "-//W3C//DTD SVG 1.1//EN"
       "http://www.w3.org/Graphics/SVG/1.1/DTD/svg11.dtd">
<svg version="1.1" xmlns="http://www.w3.org/2000/svg" xmlns:xlink="http://www.w3.org/1999/xlink" width="24.9023" height="24.9146">
 <g>
  <rect height="24.9146" opacity="0" width="24.9023" x="0" y="0"/>
  <path d="M12.4512 24.9146C19.2627 24.9146 24.9023 19.2749 24.9023 12.4634C24.9023 5.66406 19.2505 0.012207 12.439 0.012207C5.63965 0.012207 0 5.66406 0 12.4634C0 19.2749 5.65186 24.9146 12.4512 24.9146Z" fill="#5ac8f5" fill-opacity="0.25"/>
  <path d="M9.96094 19.6777C8.83789 19.6777 8.08105 18.9453 8.08105 17.8589L8.08105 7.06787C8.08105 5.96924 8.83789 5.24902 9.96094 5.24902L14.9414 5.24902C16.0645 5.24902 16.8213 5.96924 16.8213 7.06787L16.8213 17.8589C16.8213 18.9453 16.0645 19.6777 14.9414 19.6777ZM10.0952 18.5547L14.8071 18.5547C15.3809 18.5547 15.6982 18.2373 15.6982 17.7002L15.6982 7.21436C15.6982 6.67725 15.3809 6.37207 14.8071 6.37207L13.9648 6.37207C13.8672 6.37207 13.8184 6.4209 13.8184 6.51855L13.8184 6.66504C13.8184 6.95801 13.6353 7.17773 13.3423 7.17773L11.5601 7.17773C11.2671 7.17773 11.084 6.95801 11.084 6.66504L11.084 6.51855C11.084 6.43311 11.0596 6.37207 10.9253 6.37207L10.0952 6.37207C9.52148 6.37207 9.2041 6.67725 9.2041 7.21436L9.2041 17.7002C9.2041 18.2373 9.52148 18.5547 10.0952 18.5547ZM11.0352 18.0664C10.8276 18.0664 10.6934 17.9321 10.6934 17.7246C10.6934 17.5171 10.8276 17.3828 11.0352 17.3828L13.8916 17.3828C14.0869 17.3828 14.209 17.5171 14.209 17.7246C14.209 17.9321 14.0869 18.0664 13.8916 18.0664Z" fill="#5ac8f5"/>
  <path d="M6.93359 14.6484C6.73828 14.8804 6.39648 14.8804 6.17676 14.624C5.70068 14.0259 5.43213 13.2812 5.43213 12.4634C5.43213 11.6577 5.70068 10.9009 6.17676 10.3149C6.39648 10.0586 6.73828 10.0464 6.93359 10.2783C7.10449 10.4858 7.04346 10.73 6.84814 10.9863C6.54297 11.377 6.38428 11.9019 6.38428 12.4634C6.38428 13.0249 6.54297 13.5376 6.84814 13.9404C7.04346 14.1968 7.10449 14.4409 6.93359 14.6484ZM17.9321 14.6484C17.7612 14.4409 17.8223 14.1968 18.0176 13.9404C18.3228 13.5376 18.4937 13.0249 18.4937 12.4634C18.4937 11.9019 18.3228 11.377 18.0176 10.9863C17.8223 10.73 17.7612 10.4858 17.9321 10.2783C18.1274 10.0464 18.4814 10.0586 18.689 10.3149C19.165 10.9009 19.4458 11.6577 19.4458 12.4634C19.4458 13.2812 19.165 14.0259 18.689 14.624C18.4814 14.8804 18.1274 14.8804 17.9321 14.6484Z" fill="#5ac8f5"/>
  <path d="M5.11475 16.1987C4.94385 16.4307 4.62646 16.4307 4.38232 16.1865C3.4668 15.1978 2.97852 13.8672 2.97852 12.4634C2.97852 11.0718 3.4668 9.74121 4.38232 8.74023C4.62646 8.49609 4.94385 8.49609 5.11475 8.72803C5.28564 8.93555 5.23682 9.19189 5.0415 9.43604C4.29688 10.2661 3.90625 11.3159 3.90625 12.4634C3.90625 13.6108 4.29688 14.6606 5.0415 15.4907C5.23682 15.7349 5.28564 16.0034 5.11475 16.1987ZM19.751 16.1987C19.5801 16.0034 19.6289 15.7349 19.8364 15.4907C20.5688 14.6606 20.9717 13.6108 20.9717 12.4634C20.9717 11.3159 20.5688 10.2661 19.8364 9.43604C19.6289 9.19189 19.5801 8.93555 19.751 8.72803C19.9341 8.49609 20.2515 8.49609 20.4834 8.74023C21.3989 9.74121 21.8994 11.0718 21.8994 12.4634C21.8994 13.8672 21.3989 15.1978 20.4834 16.1865C20.2515 16.4307 19.9341 16.4307 19.751 16.1987Z" fill="#5ac8f5"/>
 </g>
</svg>
