<?xml version="1.0" encoding="UTF-8"?>
<!--Generator: Apple Native CoreSVG 175.5-->
<!DOCTYPE svg
PUBLIC "-//W3C//DTD SVG 1.1//EN"
       "http://www.w3.org/Graphics/SVG/1.1/DTD/svg11.dtd">
<svg version="1.1" xmlns="http://www.w3.org/2000/svg" xmlns:xlink="http://www.w3.org/1999/xlink" width="24.9023" height="24.9146">
 <g>
  <rect height="24.9146" opacity="0" width="24.9023" x="0" y="0"/>
  <path d="M12.4512 24.9023C19.2627 24.9023 24.9023 19.2505 24.9023 12.4512C24.9023 5.63965 19.2505 0 12.439 0C5.63965 0 0 5.63965 0 12.4512C0 19.2505 5.65186 24.9023 12.4512 24.9023ZM12.4512 22.8271C6.68945 22.8271 2.0874 18.2129 2.0874 12.4512C2.0874 6.68945 6.67725 2.0752 12.439 2.0752C18.2007 2.0752 22.8271 6.68945 22.8271 12.4512C22.8271 18.2129 18.2129 22.8271 12.4512 22.8271ZM12.439 18.2617C15.0146 18.2617 16.748 15.9302 16.748 12.4512C16.748 8.97217 15.0146 6.64062 12.439 6.64062C9.85107 6.64062 8.11768 8.97217 8.11768 12.4512C8.11768 15.9302 9.85107 18.2617 12.439 18.2617ZM12.439 16.6992C10.9741 16.6992 9.99756 15.0024 9.99756 12.4512C9.99756 9.8999 10.9741 8.20312 12.439 8.20312C13.8916 8.20312 14.8804 9.8999 14.8804 12.4512C14.8804 15.0024 13.8916 16.6992 12.439 16.6992Z" fill="#5ac8f5"/>
 </g>
</svg>
