<?xml version="1.0" encoding="UTF-8"?>
<!--Generator: Apple Native CoreSVG 175.5-->
<!DOCTYPE svg
PUBLIC "-//W3C//DTD SVG 1.1//EN"
       "http://www.w3.org/Graphics/SVG/1.1/DTD/svg11.dtd">
<svg version="1.1" xmlns="http://www.w3.org/2000/svg" xmlns:xlink="http://www.w3.org/1999/xlink" width="20.5322" height="30.9937">
 <g>
  <rect height="30.9937" opacity="0" width="20.5322" x="0" y="0"/>
  <path d="M4.88281 13.0127L15.6494 13.0127C16.0645 13.0127 16.4185 12.6709 16.4185 12.2559C16.4185 11.8408 16.0645 11.4868 15.6494 11.4868L4.88281 11.4868C4.46777 11.4868 4.11377 11.8408 4.11377 12.2559C4.11377 12.6709 4.46777 13.0127 4.88281 13.0127ZM4.88281 17.3462L15.6494 17.3462C16.0767 17.3462 16.4185 17.0044 16.4185 16.5771C16.4185 16.1621 16.0767 15.8325 15.6494 15.8325L4.88281 15.8325C4.45557 15.8325 4.11377 16.1621 4.11377 16.5771C4.11377 17.0044 4.45557 17.3462 4.88281 17.3462ZM4.88281 21.9116L10.3027 21.9116C10.7178 21.9116 11.0596 21.5698 11.0596 21.1548C11.0596 20.7397 10.73 20.3979 10.3027 20.3979L4.88281 20.3979C4.45557 20.3979 4.11377 20.7397 4.11377 21.1548C4.11377 21.5698 4.46777 21.9116 4.88281 21.9116ZM3.78418 29.5776L16.748 29.5776C19.2749 29.5776 20.5322 28.3081 20.5322 25.7446L20.5322 7.23877C20.5322 4.73633 19.3237 3.40576 16.8823 3.40576L16.5894 3.40576C16.6016 3.50342 16.6016 3.61328 16.6016 3.71094L16.6016 4.80957C16.6016 5.00488 16.5894 5.2002 16.5527 5.37109L16.8457 5.37109C17.9932 5.37109 18.5669 6.11572 18.5669 7.26318L18.5669 25.7202C18.5669 26.9409 17.9199 27.6123 16.6504 27.6123L3.88184 27.6123C2.6123 27.6123 1.96533 26.9409 1.96533 25.7202L1.96533 7.26318C1.96533 6.11572 2.53906 5.37109 3.68652 5.37109L3.97949 5.37109C3.94287 5.2002 3.93066 5.00488 3.93066 4.80957L3.93066 3.71094C3.93066 3.61328 3.93066 3.50342 3.94287 3.40576L3.6499 3.40576C1.2085 3.40576 0 4.73633 0 7.23877L0 25.7446C0 28.3081 1.25732 29.5776 3.78418 29.5776ZM6.49414 6.20117L14.0381 6.20117C14.7461 6.20117 15.1733 5.74951 15.1733 4.99268L15.1733 3.71094C15.1733 2.9541 14.7461 2.50244 14.0381 2.50244L12.915 2.50244C12.8296 1.12305 11.6821 0 10.2661 0C8.8501 0 7.70264 1.12305 7.61719 2.50244L6.49414 2.50244C5.78613 2.50244 5.35889 2.9541 5.35889 3.71094L5.35889 4.99268C5.35889 5.74951 5.78613 6.20117 6.49414 6.20117ZM10.2661 3.66211C9.68018 3.66211 9.2041 3.17383 9.2041 2.6001C9.2041 2.00195 9.68018 1.52588 10.2661 1.52588C10.8521 1.52588 11.3281 2.00195 11.3281 2.6001C11.3281 3.17383 10.8521 3.66211 10.2661 3.66211Z" fill="#5ac8f5"/>
 </g>
</svg>
