<?xml version="1.0" encoding="UTF-8"?>
<!--Generator: Apple Native CoreSVG 175.5-->
<!DOCTYPE svg
PUBLIC "-//W3C//DTD SVG 1.1//EN"
       "http://www.w3.org/Graphics/SVG/1.1/DTD/svg11.dtd">
<svg version="1.1" xmlns="http://www.w3.org/2000/svg" xmlns:xlink="http://www.w3.org/1999/xlink" width="22.4731" height="22.4976">
 <g>
  <rect height="22.4976" opacity="0" width="22.4731" x="0" y="0"/>
  <path d="M3.83301 22.4976L18.6401 22.4976C21.2036 22.4976 22.4731 21.228 22.4731 18.7134L22.4731 3.80859C22.4731 1.29395 21.2036 0.0244141 18.6401 0.0244141L3.83301 0.0244141C1.28174 0.0244141 0 1.28174 0 3.80859L0 18.7134C0 21.2402 1.28174 22.4976 3.83301 22.4976Z" fill="#5ac8f5" fill-opacity="0.25"/>
  <path d="M7.86133 17.1387C7.20215 17.1387 6.7627 16.7847 6.604 16.1377L4.11377 6.5918C4.07715 6.45752 4.06494 6.32324 4.06494 6.21338C4.06494 5.63965 4.44336 5.24902 5.0293 5.24902C5.62744 5.24902 5.9082 5.52979 6.05469 6.25L7.93457 14.2456L8.02002 14.2456L10.1318 6.10352C10.2661 5.54199 10.6323 5.27344 11.2305 5.27344C11.8286 5.27344 12.1826 5.54199 12.3291 6.10352L14.4409 14.2456L14.5264 14.2456L16.4185 6.25C16.5649 5.52979 16.8457 5.24902 17.4438 5.24902C18.0298 5.24902 18.4082 5.63965 18.4082 6.21338C18.4082 6.32324 18.396 6.45752 18.3594 6.5918L15.8569 16.1377C15.6982 16.7847 15.2588 17.1387 14.5874 17.1387C13.9282 17.1387 13.4644 16.7969 13.3179 16.1621L11.2793 8.23975L11.1816 8.23975L9.14307 16.1621C8.99658 16.7969 8.53271 17.1387 7.86133 17.1387Z" fill="#5ac8f5"/>
 </g>
</svg>
