<?xml version="1.0" encoding="UTF-8"?>
<!--Generator: Apple Native CoreSVG 175.5-->
<!DOCTYPE svg
PUBLIC "-//W3C//DTD SVG 1.1//EN"
       "http://www.w3.org/Graphics/SVG/1.1/DTD/svg11.dtd">
<svg version="1.1" xmlns="http://www.w3.org/2000/svg" xmlns:xlink="http://www.w3.org/1999/xlink" width="24.3408" height="28.8696">
 <g>
  <rect height="28.8696" opacity="0" width="24.3408" x="0" y="0"/>
  <path d="M11.1572 3.6499L13.1836 3.6499L13.1836 1.02539C13.1836 0.463867 12.7319 0 12.1704 0C11.6089 0 11.1572 0.463867 11.1572 1.02539ZM1.01318 15.4907C1.36719 15.4907 1.70898 15.2588 1.97754 14.856C2.79541 13.623 3.6499 13.1104 4.80957 13.1104C5.94482 13.1104 6.71387 13.623 7.40967 14.8438C7.67822 15.2954 7.93457 15.4907 8.27637 15.4907C8.63037 15.4907 8.89893 15.2954 9.14307 14.8438C9.80225 13.7207 10.9985 13.0371 12.1704 13.0371C13.3423 13.0371 14.5386 13.7207 15.1978 14.8438C15.4419 15.2954 15.6982 15.4907 16.0645 15.4907C16.4062 15.4907 16.6626 15.2954 16.9189 14.8438C17.627 13.623 18.396 13.1104 19.5312 13.1104C20.6909 13.1104 21.5454 13.623 22.3511 14.856C22.6196 15.2588 22.9614 15.4907 23.3276 15.4907C23.938 15.4907 24.3408 14.9902 24.3408 14.3311C24.3408 9.48486 20.52 2.68555 12.1704 2.68555C3.8208 2.68555 0 9.48486 0 14.3311C0 14.9902 0.402832 15.4907 1.01318 15.4907ZM12.1704 11.1328C10.6934 11.1328 9.27734 11.792 8.38623 12.8784C8.3252 12.9639 8.27637 12.9639 8.21533 12.8784C7.40967 11.7676 6.27441 11.2061 4.80957 11.2061C3.24707 11.2061 1.94092 11.8408 0.866699 13.1592L1.97754 13.2568C2.53906 8.48389 6.64062 4.58984 12.1704 4.58984C17.688 4.58984 21.7896 8.45947 22.3511 13.2324L23.4619 13.1348C22.3877 11.8408 21.0938 11.2061 19.5312 11.2061C18.0664 11.2061 16.9312 11.7676 16.1133 12.8784C16.0645 12.9639 16.0156 12.9517 15.9546 12.8784C15.0635 11.792 13.6353 11.1328 12.1704 11.1328ZM9.30176 28.2227C11.5112 28.2227 13.1836 26.5503 13.1836 24.3286L13.1836 12.4512L11.1572 12.4512L11.1572 24.3286C11.1572 25.3906 10.3882 26.1597 9.30176 26.1597C8.23975 26.1597 7.48291 25.3906 7.48291 24.3286C7.48291 23.6206 7.05566 23.1445 6.43311 23.1445C5.82275 23.1445 5.41992 23.6206 5.41992 24.3286C5.41992 26.5503 7.10449 28.2227 9.30176 28.2227Z" fill="#5ac8f5"/>
 </g>
</svg>
