<?xml version="1.0" encoding="UTF-8"?>
<!--Generator: Apple Native CoreSVG 175.5-->
<!DOCTYPE svg
PUBLIC "-//W3C//DTD SVG 1.1//EN"
       "http://www.w3.org/Graphics/SVG/1.1/DTD/svg11.dtd">
<svg version="1.1" xmlns="http://www.w3.org/2000/svg" xmlns:xlink="http://www.w3.org/1999/xlink" width="22.4731" height="22.4976">
 <g>
  <rect height="22.4976" opacity="0" width="22.4731" x="0" y="0"/>
  <path d="M3.83301 22.4976L18.6401 22.4976C21.2036 22.4976 22.4731 21.228 22.4731 18.7134L22.4731 3.80859C22.4731 1.29395 21.2036 0.0244141 18.6401 0.0244141L3.83301 0.0244141C1.28174 0.0244141 0 1.28174 0 3.80859L0 18.7134C0 21.2402 1.28174 22.4976 3.83301 22.4976ZM3.85742 20.5322C2.63672 20.5322 1.96533 19.8853 1.96533 18.6157L1.96533 3.90625C1.96533 2.63672 2.63672 1.98975 3.85742 1.98975L18.6157 1.98975C19.8242 1.98975 20.5078 2.63672 20.5078 3.90625L20.5078 18.6157C20.5078 19.8853 19.8242 20.5322 18.6157 20.5322ZM11.2183 17.0532C13.8184 17.0532 15.5762 15.7104 15.5762 13.7451C15.5762 12.3901 14.5874 11.2671 13.1348 10.9741L13.1348 10.9009C14.3433 10.5469 15.1123 9.57031 15.1123 8.38623C15.1123 6.64062 13.5132 5.43213 11.2427 5.43213C8.97217 5.43213 7.37305 6.64062 7.37305 8.38623C7.37305 9.57031 8.11768 10.5225 9.35059 10.9009L9.35059 10.9741C7.88574 11.2671 6.89697 12.4023 6.89697 13.7573C6.89697 15.7349 8.63037 17.0532 11.2183 17.0532ZM11.2549 15.7104C9.81445 15.7104 8.75244 14.856 8.75244 13.6597C8.75244 12.5 9.82666 11.6333 11.2549 11.6333C12.7075 11.6333 13.7329 12.4878 13.7329 13.6597C13.7329 14.856 12.6831 15.7104 11.2549 15.7104ZM11.2427 10.3516C10.022 10.3516 9.16748 9.59473 9.16748 8.54492C9.16748 7.51953 10.022 6.7749 11.2427 6.7749C12.4634 6.7749 13.3179 7.51953 13.3179 8.54492C13.3179 9.59473 12.4512 10.3516 11.2427 10.3516Z" fill="#5ac8f5"/>
 </g>
</svg>
