<?xml version="1.0" encoding="UTF-8"?>
<!--Generator: Apple Native CoreSVG 175.5-->
<!DOCTYPE svg
PUBLIC "-//W3C//DTD SVG 1.1//EN"
       "http://www.w3.org/Graphics/SVG/1.1/DTD/svg11.dtd">
<svg version="1.1" xmlns="http://www.w3.org/2000/svg" xmlns:xlink="http://www.w3.org/1999/xlink" width="22.4731" height="22.4976">
 <g>
  <rect height="22.4976" opacity="0" width="22.4731" x="0" y="0"/>
  <path d="M4.04053 12.4146L4.04053 10.083C4.04053 9.60693 4.37012 9.28955 4.84619 9.28955L5.39551 9.28955L5.39551 8.6792C5.39551 6.51855 8.20312 4.52881 11.2427 4.52881C14.27 4.52881 17.0776 6.51855 17.0776 8.6792L17.0776 9.28955L17.627 9.28955C18.103 9.28955 18.4326 9.60693 18.4326 10.083L18.4326 12.4146C18.4326 12.8906 18.103 13.208 17.627 13.208L17.0776 13.208L17.0776 13.8062C17.0776 15.979 14.27 17.9688 11.2427 17.9688C8.20312 17.9688 5.39551 15.979 5.39551 13.8062L5.39551 13.208L4.84619 13.208C4.37012 13.208 4.04053 12.8906 4.04053 12.4146ZM8.10547 12.7197C8.92334 12.7197 9.58252 12.0605 9.58252 11.2427C9.58252 10.437 8.92334 9.77783 8.10547 9.77783C7.2998 9.77783 6.62842 10.437 6.62842 11.2427C6.62842 12.0605 7.2998 12.7197 8.10547 12.7197ZM14.3677 12.7197C15.1733 12.7197 15.8447 12.0605 15.8447 11.2427C15.8447 10.437 15.1733 9.77783 14.3677 9.77783C13.562 9.77783 12.8906 10.437 12.8906 11.2427C12.8906 12.0605 13.562 12.7197 14.3677 12.7197ZM3.83301 22.4976L18.6401 22.4976C21.2036 22.4976 22.4731 21.228 22.4731 18.7134L22.4731 3.80859C22.4731 1.29395 21.2036 0.0244141 18.6401 0.0244141L3.83301 0.0244141C1.28174 0.0244141 0 1.28174 0 3.80859L0 18.7134C0 21.2402 1.28174 22.4976 3.83301 22.4976Z" fill="#5ac8f5"/>
 </g>
</svg>
