<?xml version="1.0" encoding="UTF-8"?>
<!--Generator: Apple Native CoreSVG 175.5-->
<!DOCTYPE svg
PUBLIC "-//W3C//DTD SVG 1.1//EN"
       "http://www.w3.org/Graphics/SVG/1.1/DTD/svg11.dtd">
<svg version="1.1" xmlns="http://www.w3.org/2000/svg" xmlns:xlink="http://www.w3.org/1999/xlink" width="20.5322" height="26.1597">
 <g>
  <rect height="26.1597" opacity="0" width="20.5322" x="0" y="0"/>
  <path d="M7.18994 7.82471L16.3452 7.82471C16.7847 7.82471 17.1387 7.4585 17.1387 7.01904C17.1387 6.57959 16.7847 6.22559 16.3452 6.22559L7.18994 6.22559C6.75049 6.22559 6.39648 6.57959 6.39648 7.01904C6.39648 7.4585 6.75049 7.82471 7.18994 7.82471ZM7.18994 11.1816L14.1357 11.1816C14.5752 11.1816 14.9292 10.8154 14.9292 10.376C14.9292 9.93652 14.5752 9.58252 14.1357 9.58252L7.18994 9.58252C6.75049 9.58252 6.39648 9.93652 6.39648 10.376C6.39648 10.8154 6.75049 11.1816 7.18994 11.1816ZM3.74756 26.1597L19.5557 26.1597C20.0928 26.1597 20.5322 25.7324 20.5322 25.1831C20.5322 24.7559 20.2393 24.3774 19.8486 24.2432C18.3105 23.6328 17.9932 21.6431 19.5068 20.1172C19.9707 19.6533 20.5322 19.0552 20.5322 17.8345L20.5322 3.83301C20.5322 1.29395 19.2749 0 16.748 0L3.78418 0C1.25732 0 0 1.28174 0 3.83301L0 22.3877C0 24.9023 1.26953 26.1597 3.74756 26.1597ZM1.96533 19.104L1.96533 3.86963C1.96533 2.64893 2.6123 1.96533 3.86963 1.96533L16.6504 1.96533C17.9199 1.96533 18.5669 2.64893 18.5669 3.86963L18.5669 17.5659C18.5669 18.2251 18.1885 18.6035 17.5049 18.6035L3.95508 18.6035C3.16162 18.6035 2.50244 18.7744 1.96533 19.104ZM3.85742 24.1943C2.62451 24.1943 1.96533 23.5352 1.96533 22.3755C1.96533 21.2769 2.74658 20.5688 3.96729 20.5688L16.4917 20.5688C16.6504 20.5688 16.7969 20.5566 16.9189 20.5322C16.3452 21.8018 16.4429 23.1445 17.0898 24.1943ZM3.40576 19.6533L5.00488 19.6533L5.00488 1.48926L3.40576 1.48926Z" fill="#5ac8f5"/>
 </g>
</svg>
