<?xml version="1.0" encoding="UTF-8"?>
<!--Generator: Apple Native CoreSVG 175.5-->
<!DOCTYPE svg
PUBLIC "-//W3C//DTD SVG 1.1//EN"
       "http://www.w3.org/Graphics/SVG/1.1/DTD/svg11.dtd">
<svg version="1.1" xmlns="http://www.w3.org/2000/svg" xmlns:xlink="http://www.w3.org/1999/xlink" width="22.4731" height="22.4976">
 <g>
  <rect height="22.4976" opacity="0" width="22.4731" x="0" y="0"/>
  <path d="M3.83301 22.4976L18.6401 22.4976C21.2036 22.4976 22.4731 21.228 22.4731 18.7134L22.4731 3.80859C22.4731 1.29395 21.2036 0.0244141 18.6401 0.0244141L3.83301 0.0244141C1.28174 0.0244141 0 1.28174 0 3.80859L0 18.7134C0 21.2402 1.28174 22.4976 3.83301 22.4976ZM7.09229 16.5039C5.43213 16.5039 4.12598 15.4907 3.80859 14.3677C3.75977 14.209 3.74756 14.0869 3.74756 13.916C3.74756 13.4888 4.04053 13.1836 4.45557 13.1836C4.79736 13.1836 5.00488 13.3789 5.15137 13.7695C5.48096 14.624 6.14014 15.1001 7.10449 15.1001C8.27637 15.1001 9.08203 14.3799 9.08203 13.4277C9.08203 12.439 8.34961 11.7798 7.17773 11.7798L6.46973 11.7798C6.06689 11.7798 5.79834 11.4746 5.79834 11.084C5.79834 10.6445 6.06689 10.3638 6.46973 10.3638L7.12891 10.3638C8.09326 10.3638 8.77686 9.7168 8.77686 8.82568C8.77686 7.97119 8.10547 7.38525 7.14111 7.38525C6.18896 7.38525 5.59082 7.86133 5.32227 8.71582C5.2002 9.10645 5.01709 9.30176 4.65088 9.30176C4.22363 9.30176 3.94287 8.99658 3.94287 8.55713C3.94287 8.39844 3.95508 8.27637 3.97949 8.11768C4.29688 6.92139 5.51758 5.98145 7.17773 5.98145C8.99658 5.98145 10.2783 7.06787 10.2783 8.63037C10.2783 9.77783 9.48486 10.791 8.48389 10.9619L8.48389 11.0352C9.7168 11.1572 10.6079 12.207 10.6079 13.501C10.6079 15.2588 9.16748 16.5039 7.09229 16.5039ZM15.21 16.5039C13.5254 16.5039 12.5244 15.5518 12.3291 14.8804C12.2803 14.7339 12.2314 14.563 12.2314 14.4409C12.2314 14.0137 12.5 13.7207 12.8784 13.7207C13.1958 13.7207 13.4399 13.855 13.6353 14.1968C13.9282 14.7339 14.4775 15.1001 15.1855 15.1001C16.5894 15.1001 17.5293 13.6597 17.5049 11.2305L17.4316 11.2305C17.1021 12.0605 16.3086 12.7808 14.978 12.7808C13.3789 12.7808 11.9507 11.6089 11.9507 9.50928C11.9507 7.36084 13.2935 5.98145 15.3442 5.98145C17.627 5.98145 18.9453 7.70264 18.9453 10.9009C18.9453 14.5752 17.6392 16.5039 15.21 16.5039ZM15.4297 11.5234C16.5771 11.5234 17.3706 10.6567 17.3706 9.46045C17.3706 8.20312 16.5649 7.31201 15.4419 7.31201C14.2578 7.31201 13.501 8.1543 13.501 9.43604C13.501 10.6567 14.27 11.5234 15.4297 11.5234Z" fill="#5ac8f5"/>
 </g>
</svg>
