<?xml version="1.0" encoding="UTF-8"?>
<!--Generator: Apple Native CoreSVG 175.5-->
<!DOCTYPE svg
PUBLIC "-//W3C//DTD SVG 1.1//EN"
       "http://www.w3.org/Graphics/SVG/1.1/DTD/svg11.dtd">
<svg version="1.1" xmlns="http://www.w3.org/2000/svg" xmlns:xlink="http://www.w3.org/1999/xlink" width="31.0547" height="18.9819">
 <g>
  <rect height="18.9819" opacity="0" width="31.0547" x="0" y="0"/>
  <path d="M5.13916 14.9292C5.66406 14.9292 6.0791 14.502 6.0791 13.9648L6.0791 4.94385C6.0791 4.43115 5.66406 4.00391 5.13916 4.00391C4.60205 4.00391 4.18701 4.43115 4.18701 4.94385L4.18701 13.9648C4.18701 14.502 4.60205 14.9292 5.13916 14.9292ZM8.95996 14.1968C9.50928 14.1968 9.94873 13.7451 9.94873 13.1958C9.94873 12.6587 9.50928 12.1948 8.95996 12.1948C8.42285 12.1948 7.95898 12.6587 7.95898 13.1958C7.95898 13.7451 8.42285 14.1968 8.95996 14.1968ZM12.2437 14.1968C12.7808 14.1968 13.2324 13.7451 13.2324 13.1958C13.2324 12.6587 12.7808 12.1948 12.2437 12.1948C11.6943 12.1948 11.2427 12.6587 11.2427 13.1958C11.2427 13.7451 11.6943 14.1968 12.2437 14.1968ZM15.5273 14.1968C16.0645 14.1968 16.5161 13.7451 16.5161 13.1958C16.5161 12.6587 16.0645 12.1948 15.5273 12.1948C14.978 12.1948 14.5264 12.6587 14.5264 13.1958C14.5264 13.7451 14.978 14.1968 15.5273 14.1968ZM18.7988 14.1968C19.3237 14.1968 19.7754 13.7451 19.7754 13.1958C19.7754 12.6587 19.3237 12.1948 18.7988 12.1948C18.2495 12.1948 17.8101 12.6587 17.8101 13.1958C17.8101 13.7451 18.2495 14.1968 18.7988 14.1968ZM22.0581 14.1968C22.5952 14.1968 23.0469 13.7451 23.0469 13.1958C23.0469 12.6587 22.5952 12.1948 22.0581 12.1948C21.5088 12.1948 21.0693 12.6587 21.0693 13.1958C21.0693 13.7451 21.5088 14.1968 22.0581 14.1968ZM10.5957 10.4614C11.145 10.4614 11.5845 10.0098 11.5845 9.46045C11.5845 8.91113 11.145 8.45947 10.5957 8.45947C10.0586 8.45947 9.60693 8.91113 9.60693 9.46045C9.60693 10.0098 10.0586 10.4614 10.5957 10.4614ZM13.8794 10.4614C14.4287 10.4614 14.8682 10.0098 14.8682 9.46045C14.8682 8.91113 14.4287 8.45947 13.8794 8.45947C13.3301 8.45947 12.8784 8.91113 12.8784 9.46045C12.8784 10.0098 13.3301 10.4614 13.8794 10.4614ZM17.1509 10.4614C17.688 10.4614 18.1396 10.0098 18.1396 9.46045C18.1396 8.91113 17.688 8.45947 17.1509 8.45947C16.6138 8.45947 16.1621 8.91113 16.1621 9.46045C16.1621 10.0098 16.6138 10.4614 17.1509 10.4614ZM20.4224 10.4614C20.9473 10.4614 21.3989 10.0098 21.3989 9.46045C21.3989 8.91113 20.9473 8.45947 20.4224 8.45947C19.873 8.45947 19.4336 8.91113 19.4336 9.46045C19.4336 10.0098 19.873 10.4614 20.4224 10.4614ZM8.95996 6.72607C9.50928 6.72607 9.94873 6.27441 9.94873 5.7373C9.94873 5.18799 9.50928 4.73633 8.95996 4.73633C8.42285 4.73633 7.95898 5.18799 7.95898 5.7373C7.95898 6.27441 8.42285 6.72607 8.95996 6.72607ZM12.2437 6.72607C12.7808 6.72607 13.2324 6.27441 13.2324 5.7373C13.2324 5.18799 12.7808 4.73633 12.2437 4.73633C11.6943 4.73633 11.2427 5.18799 11.2427 5.7373C11.2427 6.27441 11.6943 6.72607 12.2437 6.72607ZM15.5273 6.72607C16.0645 6.72607 16.5161 6.27441 16.5161 5.7373C16.5161 5.18799 16.0645 4.73633 15.5273 4.73633C14.978 4.73633 14.5264 5.18799 14.5264 5.7373C14.5264 6.27441 14.978 6.72607 15.5273 6.72607ZM18.7988 6.72607C19.3237 6.72607 19.7754 6.27441 19.7754 5.7373C19.7754 5.18799 19.3237 4.73633 18.7988 4.73633C18.2495 4.73633 17.8101 5.18799 17.8101 5.7373C17.8101 6.27441 18.2495 6.72607 18.7988 6.72607ZM22.0581 6.72607C22.5952 6.72607 23.0469 6.27441 23.0469 5.7373C23.0469 5.18799 22.5952 4.73633 22.0581 4.73633C21.5088 4.73633 21.0693 5.18799 21.0693 5.7373C21.0693 6.27441 21.5088 6.72607 22.0581 6.72607ZM25.8789 14.9292C26.4038 14.9292 26.8311 14.502 26.8311 13.9648L26.8311 4.94385C26.8311 4.43115 26.4038 4.00391 25.8789 4.00391C25.354 4.00391 24.9268 4.43115 24.9268 4.94385L24.9268 13.9648C24.9268 14.502 25.354 14.9292 25.8789 14.9292ZM3.83301 18.9575L27.2217 18.9575C29.7729 18.9575 31.0547 17.688 31.0547 15.1733L31.0547 3.78418C31.0547 1.26953 29.7729 0 27.2217 0L3.83301 0C1.26953 0 0 1.26953 0 3.78418L0 15.1733C0 17.688 1.26953 18.9575 3.83301 18.9575ZM3.85742 16.9922C2.63672 16.9922 1.96533 16.333 1.96533 15.0635L1.96533 3.89404C1.96533 2.62451 2.63672 1.96533 3.85742 1.96533L27.1973 1.96533C28.418 1.96533 29.0894 2.62451 29.0894 3.89404L29.0894 15.0635C29.0894 16.333 28.4058 16.9922 27.1973 16.9922Z" fill="#5ac8f5"/>
 </g>
</svg>
