<?xml version="1.0" encoding="UTF-8"?>
<!--Generator: Apple Native CoreSVG 175.5-->
<!DOCTYPE svg
PUBLIC "-//W3C//DTD SVG 1.1//EN"
       "http://www.w3.org/Graphics/SVG/1.1/DTD/svg11.dtd">
<svg version="1.1" xmlns="http://www.w3.org/2000/svg" xmlns:xlink="http://www.w3.org/1999/xlink" width="24.9023" height="24.9146">
 <g>
  <rect height="24.9146" opacity="0" width="24.9023" x="0" y="0"/>
  <path d="M12.4512 24.9146C19.2627 24.9146 24.9023 19.2749 24.9023 12.4634C24.9023 5.66406 19.2505 0.012207 12.439 0.012207C5.63965 0.012207 0 5.66406 0 12.4634C0 19.2749 5.65186 24.9146 12.4512 24.9146ZM5.54199 16.6382L5.54199 13.2935C5.54199 12.3169 5.74951 11.7554 6.28662 11.0718L6.78711 10.4248C7.00684 9.36279 7.37305 8.26416 7.58057 7.83691C7.89795 7.17773 8.49609 6.78711 9.26514 6.68945C9.66797 6.64062 10.9375 6.61621 12.4512 6.61621C13.9526 6.61621 15.2344 6.64062 15.625 6.68945C16.4062 6.79932 17.0044 7.17773 17.3096 7.83691C17.5171 8.26416 17.8833 9.36279 18.1152 10.4248L18.6035 11.0718C19.1528 11.7554 19.3481 12.3169 19.3481 13.2935L19.3481 16.6382C19.3481 17.0776 19.0063 17.4194 18.5791 17.4194L17.8833 17.4194C17.4438 17.4194 17.1021 17.0776 17.1021 16.6382L17.1021 15.6738C15.8081 15.7593 13.9526 15.8081 12.4512 15.8081C10.9497 15.8081 9.08203 15.7593 7.78809 15.6738L7.78809 16.6382C7.78809 17.0776 7.44629 17.4194 7.01904 17.4194L6.32324 17.4194C5.88379 17.4194 5.54199 17.0776 5.54199 16.6382ZM10.376 11.6699C10.376 11.8042 10.4858 11.9141 10.6323 11.9141L12.207 11.9141L11.438 14.0137C11.2915 14.3921 11.6943 14.5996 11.9385 14.2944L14.4409 11.0596C14.4775 10.9863 14.5264 10.9009 14.5264 10.8276C14.5264 10.6812 14.4165 10.5713 14.27 10.5713L12.6953 10.5835L13.4766 8.47168C13.6108 8.09326 13.2324 7.91016 12.9883 8.21533L10.4614 11.4502C10.4004 11.5234 10.376 11.5967 10.376 11.6699Z" fill="#5ac8f5"/>
 </g>
</svg>
