<?xml version="1.0" encoding="UTF-8"?>
<!--Generator: Apple Native CoreSVG 175.5-->
<!DOCTYPE svg
PUBLIC "-//W3C//DTD SVG 1.1//EN"
       "http://www.w3.org/Graphics/SVG/1.1/DTD/svg11.dtd">
<svg version="1.1" xmlns="http://www.w3.org/2000/svg" xmlns:xlink="http://www.w3.org/1999/xlink" width="29.4678" height="21.5454">
 <g>
  <rect height="21.5454" opacity="0" width="29.4678" x="0" y="0"/>
  <path d="M2.47803 15.7349L5.98145 15.7349C6.09131 15.7349 6.18896 15.7715 6.27441 15.8447L11.7798 20.7764C12.3657 21.3013 12.8174 21.5454 13.4033 21.5454C14.1846 21.5454 14.7827 20.9717 14.7827 20.1782L14.7827 1.45264C14.7827 0.65918 14.1846 0.012207 13.3789 0.012207C12.793 0.012207 12.4146 0.280762 11.7798 0.854492L6.27441 5.7373C6.18896 5.81055 6.09131 5.84717 5.98145 5.84717L2.47803 5.84717C0.817871 5.84717 0 6.68945 0 8.45947L0 13.1348C0 14.9048 0.830078 15.7349 2.47803 15.7349ZM2.56348 13.9526C2.11182 13.9526 1.9043 13.7451 1.9043 13.2935L1.9043 8.30078C1.9043 7.83691 2.11182 7.62939 2.56348 7.62939L6.46973 7.62939C6.78711 7.62939 7.03125 7.56836 7.31201 7.31201L12.5122 2.58789C12.5732 2.52686 12.6343 2.49023 12.7197 2.49023C12.8052 2.49023 12.8784 2.55127 12.8784 2.66113L12.8784 18.8843C12.8784 18.9941 12.8052 19.0674 12.7197 19.0674C12.6587 19.0674 12.5854 19.0308 12.5122 18.9697L7.31201 14.27C7.03125 14.0259 6.78711 13.9526 6.46973 13.9526ZM28.7842 7.87354L25.8911 7.87354L25.8911 7.80029L28.8696 3.88184C29.1382 3.54004 29.2358 3.33252 29.2358 3.10059C29.2358 2.69775 28.9185 2.45361 28.5034 2.45361L24.4019 2.45361C23.999 2.45361 23.7183 2.70996 23.7183 3.11279C23.7183 3.52783 23.999 3.78418 24.4019 3.78418L27.1362 3.78418L27.1362 3.83301L24.1211 7.75146C23.8525 8.09326 23.7671 8.30078 23.7671 8.56934C23.7671 8.93555 24.0601 9.2041 24.4873 9.2041L28.7842 9.2041C29.187 9.2041 29.4678 8.94775 29.4678 8.53271C29.4678 8.14209 29.187 7.87354 28.7842 7.87354ZM21.6064 12.7563L19.5679 12.7563L19.5679 12.7075L21.6797 9.94873C21.9238 9.63135 22.0337 9.42383 22.0337 9.19189C22.0337 8.81348 21.7285 8.59375 21.3257 8.59375L18.2129 8.59375C17.8345 8.59375 17.5781 8.83789 17.5781 9.2041C17.5781 9.61914 17.8345 9.85107 18.2129 9.85107L20.0439 9.85107L20.0439 9.8999L17.9443 12.6465C17.7124 12.9639 17.6147 13.1592 17.6147 13.4155C17.6147 13.7695 17.8833 14.0259 18.2739 14.0259L21.6064 14.0259C21.9849 14.0259 22.2412 13.7939 22.2412 13.3911C22.2412 13.0127 21.9849 12.7563 21.6064 12.7563ZM27.124 17.2485L25.3906 17.2485L25.3906 17.1997L27.1729 14.8193C27.417 14.4897 27.5024 14.3188 27.5024 14.0991C27.5024 13.7329 27.2217 13.5132 26.8555 13.5132L24.1089 13.5132C23.7427 13.5132 23.4985 13.7451 23.4985 14.1113C23.4985 14.4897 23.7427 14.7095 24.1089 14.7095L25.6226 14.7095L25.6226 14.7583L23.8525 17.1387C23.6328 17.4438 23.5229 17.627 23.5229 17.8589C23.5229 18.2007 23.8037 18.4448 24.1699 18.4448L27.124 18.4448C27.4658 18.4448 27.71 18.2129 27.71 17.8345C27.71 17.4805 27.4658 17.2485 27.124 17.2485Z" fill="#5ac8f5"/>
 </g>
</svg>
