<?xml version="1.0" encoding="UTF-8"?>
<!--Generator: Apple Native CoreSVG 175.5-->
<!DOCTYPE svg
PUBLIC "-//W3C//DTD SVG 1.1//EN"
       "http://www.w3.org/Graphics/SVG/1.1/DTD/svg11.dtd">
<svg version="1.1" xmlns="http://www.w3.org/2000/svg" xmlns:xlink="http://www.w3.org/1999/xlink" width="24.9023" height="24.9146">
 <g>
  <rect height="24.9146" opacity="0" width="24.9023" x="0" y="0"/>
  <path d="M12.4512 24.9023C19.2627 24.9023 24.9023 19.2505 24.9023 12.4512C24.9023 5.63965 19.2505 0 12.439 0C5.63965 0 0 5.63965 0 12.4512C0 19.2505 5.65186 24.9023 12.4512 24.9023ZM12.4512 22.8271C6.68945 22.8271 2.0874 18.2129 2.0874 12.4512C2.0874 6.68945 6.67725 2.0752 12.439 2.0752C18.2007 2.0752 22.8271 6.68945 22.8271 12.4512C22.8271 18.2129 18.2129 22.8271 12.4512 22.8271ZM9.25293 18.042C9.8877 18.042 10.2417 17.627 10.2417 16.9434L10.2417 14.4043L11.731 12.8662L15.2954 17.5659C15.5396 17.8955 15.7959 18.042 16.1377 18.042C16.687 18.042 17.0776 17.6514 17.0776 17.1265C17.0776 16.8823 16.98 16.6138 16.7969 16.3818L13.1592 11.6089L16.5039 8.1665C16.7236 7.93457 16.8091 7.72705 16.8091 7.4585C16.8091 7.00684 16.4185 6.62842 15.918 6.62842C15.6128 6.62842 15.4053 6.73828 15.1245 7.01904L10.3149 11.9263L10.2417 11.9263L10.2417 7.72705C10.2417 7.04346 9.8877 6.62842 9.25293 6.62842C8.65479 6.62842 8.28857 7.04346 8.28857 7.72705L8.28857 16.9434C8.28857 17.627 8.65479 18.042 9.25293 18.042Z" fill="#5ac8f5"/>
 </g>
</svg>
