<?xml version="1.0" encoding="UTF-8"?>
<!--Generator: Apple Native CoreSVG 175.5-->
<!DOCTYPE svg
PUBLIC "-//W3C//DTD SVG 1.1//EN"
       "http://www.w3.org/Graphics/SVG/1.1/DTD/svg11.dtd">
<svg version="1.1" xmlns="http://www.w3.org/2000/svg" xmlns:xlink="http://www.w3.org/1999/xlink" width="24.9023" height="24.9146">
 <g>
  <rect height="24.9146" opacity="0" width="24.9023" x="0" y="0"/>
  <path d="M12.4512 24.9023C19.2627 24.9023 24.9023 19.2505 24.9023 12.4512C24.9023 5.63965 19.2505 0 12.439 0C5.63965 0 0 5.63965 0 12.4512C0 19.2505 5.65186 24.9023 12.4512 24.9023ZM7.39746 14.7095L7.39746 7.91016C7.39746 7.4707 7.76367 7.09229 8.22754 7.09229C8.65479 7.09229 9.0332 7.4707 9.0332 7.91016L9.0332 12.1826C9.21631 12.0728 9.39941 11.9507 9.63135 11.853L9.63135 5.61523C9.63135 5.17578 9.99756 4.82178 10.437 4.82178C10.8765 4.82178 11.2549 5.17578 11.2549 5.61523L11.2549 11.3281C11.4624 11.2915 11.6699 11.2671 11.8896 11.2427L11.8896 4.99268C11.8896 4.56543 12.2437 4.18701 12.6953 4.18701C13.147 4.18701 13.501 4.56543 13.501 4.99268L13.501 11.3159C13.7085 11.377 13.916 11.4502 14.1113 11.499L14.1113 6.05469C14.1113 5.61523 14.4653 5.24902 14.917 5.24902C15.3442 5.24902 15.7104 5.61523 15.7104 6.05469L15.7104 13.7207C15.7104 13.9404 15.7959 14.0381 15.9546 14.0381C16.0645 14.0381 16.1621 13.9648 16.2598 13.7329L17.2852 11.5845C17.627 10.8887 17.8955 10.5957 18.3838 10.5957C18.7988 10.5957 19.104 10.8765 19.104 11.2793C19.104 11.6211 18.8354 12.3901 18.6401 13.0127C18.1885 14.5142 17.7612 15.8081 17.1997 16.8945C16.1865 18.9697 14.6606 19.8608 12.439 19.8608C9.47266 19.8608 7.39746 17.8955 7.39746 14.7095Z" fill="#5ac8f5"/>
 </g>
</svg>
