<?xml version="1.0" encoding="UTF-8"?>
<!--Generator: Apple Native CoreSVG 175.5-->
<!DOCTYPE svg
PUBLIC "-//W3C//DTD SVG 1.1//EN"
       "http://www.w3.org/Graphics/SVG/1.1/DTD/svg11.dtd">
<svg version="1.1" xmlns="http://www.w3.org/2000/svg" xmlns:xlink="http://www.w3.org/1999/xlink" width="24.3774" height="24.2554">
 <g>
  <rect height="24.2554" opacity="0" width="24.3774" x="0" y="0"/>
  <path d="M7.48291 24.2432L16.8579 24.2432C21.8018 24.2432 24.3774 21.6797 24.3774 16.7603L24.3774 7.48291C24.3774 2.56348 21.8018 0 16.8579 0L7.48291 0C2.56348 0 0 2.56348 0 7.48291L0 16.7603C0 21.6797 2.56348 24.2432 7.48291 24.2432ZM12.1826 18.0786C8.89893 18.0786 6.23779 15.4297 6.23779 12.1216C6.23779 9.91211 7.43408 7.95898 9.32617 6.89697L9.32617 12.1216C9.32617 13.7085 10.5835 14.9536 12.1826 14.9536C13.7573 14.9536 15.0513 13.6841 15.0513 12.1216C15.0513 10.5591 13.7329 9.22852 12.1826 9.22852C11.6333 9.22852 11.0718 9.41162 10.6079 9.75342L10.6079 6.38428C11.0718 6.23779 11.6089 6.18896 12.1826 6.18896C15.4175 6.18896 18.1396 8.83789 18.1396 12.1216C18.1396 15.3687 15.4785 18.0786 12.1826 18.0786ZM12.1826 13.6963C11.3403 13.6963 10.6323 12.9883 10.6323 12.1216C10.6323 11.2793 11.3647 10.5713 12.1826 10.5713C13.0005 10.5713 13.7451 11.3159 13.7451 12.1216C13.7451 12.9517 13.0249 13.6963 12.1826 13.6963Z" fill="#5ac8f5"/>
 </g>
</svg>
