<?xml version="1.0" encoding="UTF-8"?>
<!--Generator: Apple Native CoreSVG 175.5-->
<!DOCTYPE svg
PUBLIC "-//W3C//DTD SVG 1.1//EN"
       "http://www.w3.org/Graphics/SVG/1.1/DTD/svg11.dtd">
<svg version="1.1" xmlns="http://www.w3.org/2000/svg" xmlns:xlink="http://www.w3.org/1999/xlink" width="24.9023" height="24.9146">
 <g>
  <rect height="24.9146" opacity="0" width="24.9023" x="0" y="0"/>
  <path d="M12.4512 24.9146C19.2627 24.9146 24.9023 19.2749 24.9023 12.4634C24.9023 5.66406 19.2505 0.012207 12.439 0.012207C5.63965 0.012207 0 5.66406 0 12.4634C0 19.2749 5.65186 24.9146 12.4512 24.9146Z" fill="#5ac8f5" fill-opacity="0.25"/>
  <path d="M12.4512 17.4438C12.1704 17.4438 11.9141 17.4438 11.6699 17.4316C11.5356 17.4194 11.4624 17.4561 11.3281 17.5415C10.083 18.2983 8.82568 18.8232 8.12988 18.8232C7.58057 18.8232 7.48291 18.3838 7.83691 17.981C8.09326 17.688 8.45947 17.2974 8.66699 16.8823C8.74023 16.7358 8.74023 16.5894 8.58154 16.5161C6.73828 15.4419 5.49316 13.7329 5.49316 11.7676C5.49316 8.61816 8.54492 6.0791 12.4512 6.0791C16.3574 6.0791 19.4092 8.61816 19.4092 11.7676C19.4092 14.9048 16.3574 17.4438 12.4512 17.4438Z" fill="#5ac8f5"/>
 </g>
</svg>
