<?xml version="1.0" encoding="UTF-8"?>
<!--Generator: Apple Native CoreSVG 175.5-->
<!DOCTYPE svg
PUBLIC "-//W3C//DTD SVG 1.1//EN"
       "http://www.w3.org/Graphics/SVG/1.1/DTD/svg11.dtd">
<svg version="1.1" xmlns="http://www.w3.org/2000/svg" xmlns:xlink="http://www.w3.org/1999/xlink" width="24.9023" height="24.9146">
 <g>
  <rect height="24.9146" opacity="0" width="24.9023" x="0" y="0"/>
  <path d="M12.4512 24.9146C19.2627 24.9146 24.9023 19.2749 24.9023 12.4634C24.9023 5.66406 19.2505 0.012207 12.439 0.012207C5.63965 0.012207 0 5.66406 0 12.4634C0 19.2749 5.65186 24.9146 12.4512 24.9146ZM9.30176 19.7144C8.95996 19.7144 8.75244 19.458 8.75244 19.0796L8.75244 17.2852L8.44727 17.2852C6.62842 17.2852 5.61523 16.2598 5.61523 14.4409L5.61523 9.69238C5.61523 7.89795 6.62842 6.87256 8.44727 6.87256L16.4551 6.87256C18.2739 6.87256 19.2871 7.89795 19.2871 9.69238L19.2871 14.4409C19.2871 16.2598 18.2739 17.2852 16.4551 17.2852L12.2559 17.2852L10.0098 19.3237C9.7168 19.6045 9.5459 19.7144 9.30176 19.7144Z" fill="#5ac8f5"/>
 </g>
</svg>
