<?xml version="1.0" encoding="UTF-8"?>
<!--Generator: Apple Native CoreSVG 175.5-->
<!DOCTYPE svg
PUBLIC "-//W3C//DTD SVG 1.1//EN"
       "http://www.w3.org/Graphics/SVG/1.1/DTD/svg11.dtd">
<svg version="1.1" xmlns="http://www.w3.org/2000/svg" xmlns:xlink="http://www.w3.org/1999/xlink" width="24.9023" height="24.9146">
 <g>
  <rect height="24.9146" opacity="0" width="24.9023" x="0" y="0"/>
  <path d="M12.4512 24.9023C19.2627 24.9023 24.9023 19.2505 24.9023 12.4512C24.9023 5.63965 19.2505 0 12.439 0C5.63965 0 0 5.63965 0 12.4512C0 19.2505 5.65186 24.9023 12.4512 24.9023ZM12.4512 22.8271C6.68945 22.8271 2.0874 18.2129 2.0874 12.4512C2.0874 6.68945 6.67725 2.0752 12.439 2.0752C18.2007 2.0752 22.8271 6.68945 22.8271 12.4512C22.8271 18.2129 18.2129 22.8271 12.4512 22.8271Z" fill="#5ac8f5" fill-opacity="0.5"/>
  <path d="M8.03223 17.2607C8.03223 18.1763 8.43506 18.6035 9.27734 18.6035L15.6006 18.6035C16.4429 18.6035 16.8457 18.1763 16.8457 17.2607L16.8457 12.4023C16.8457 11.5479 16.4917 11.1328 15.7715 11.084L15.7715 9.63135C15.7715 7.38525 14.4287 5.88379 12.439 5.88379C10.4492 5.88379 9.10645 7.38525 9.10645 9.63135L9.10645 11.084C8.38623 11.1328 8.03223 11.5479 8.03223 12.4023ZM10.376 11.0718L10.376 9.49707C10.376 8.06885 11.2061 7.1167 12.439 7.1167C13.6719 7.1167 14.502 8.06885 14.502 9.49707L14.502 11.0718Z" fill="#5ac8f5"/>
 </g>
</svg>
