<?xml version="1.0" encoding="UTF-8"?>
<!--Generator: Apple Native CoreSVG 175.5-->
<!DOCTYPE svg
PUBLIC "-//W3C//DTD SVG 1.1//EN"
       "http://www.w3.org/Graphics/SVG/1.1/DTD/svg11.dtd">
<svg version="1.1" xmlns="http://www.w3.org/2000/svg" xmlns:xlink="http://www.w3.org/1999/xlink" width="20.749" height="29.0405">
 <g>
  <rect height="29.0405" opacity="0" width="20.749" x="0" y="0"/>
  <path d="M9.50629 5.33447C10.9589 5.33447 12.1674 4.13818 12.1674 2.67334C12.1674 1.2085 10.9589 0 9.50629 0C8.04144 0 6.83295 1.2085 6.83295 2.67334C6.83295 4.13818 8.04144 5.33447 9.50629 5.33447ZM1.26654 8.92334L5.23383 8.92334C5.41693 8.92334 5.57562 9.06982 5.55121 9.25293L5.17279 14.4043C5.03851 16.2476 6.11273 17.395 7.67523 17.7124L12.7778 18.7866L13.8764 24.2554C14.0229 25 14.7797 25.354 15.3412 25.2441C16.0248 25.1099 16.4643 24.4385 16.33 23.7549L15.0849 17.4683C14.9872 16.98 14.5722 16.6382 14.1083 16.4795L10.1655 15.2466L10.5073 10.4858C10.5439 10.1196 10.8857 9.98535 11.1664 10.2173L13.0341 11.7676C13.2661 11.9507 13.5346 12.0605 13.8398 12.0605L19.5038 12.0605C20.1996 12.0605 20.749 11.499 20.749 10.8032C20.749 10.1074 20.1996 9.55811 19.5038 9.55811L14.2914 9.55811L11.5693 7.2876C10.8857 6.72607 10.2631 6.40869 9.28656 6.40869L2.96332 6.40869L4.36713 1.74561C4.56244 1.07422 4.18402 0.366211 3.52484 0.170898C2.85346-0.0244141 2.13324 0.354004 1.93793 1.02539L0.0702525 7.2998C-0.173888 8.12988 0.216737 8.92334 1.26654 8.92334ZM6.5766 28.9307C7.17474 29.1138 7.91937 28.8452 8.15131 28.1006L10.019 21.8628C10.0678 21.6919 10.08 21.5088 10.08 21.3135L10.08 19.4214L7.4433 18.8599C7.38226 18.8477 7.33344 18.8477 7.28461 18.8354L7.55316 21.3135L5.73432 27.3804C5.539 28.0273 5.91742 28.7354 6.5766 28.9307Z" fill="#5ac8f5"/>
 </g>
</svg>
