<?xml version="1.0" encoding="UTF-8"?>
<!--Generator: Apple Native CoreSVG 175.5-->
<!DOCTYPE svg
PUBLIC "-//W3C//DTD SVG 1.1//EN"
       "http://www.w3.org/Graphics/SVG/1.1/DTD/svg11.dtd">
<svg version="1.1" xmlns="http://www.w3.org/2000/svg" xmlns:xlink="http://www.w3.org/1999/xlink" width="28.4546" height="18.396">
 <g>
  <rect height="18.396" opacity="0" width="28.4546" x="0" y="0"/>
  <path d="M2.45361 18.396L19.2627 18.396L19.2627 0.012207L2.45361 0.012207C0.98877 0.012207 0 1.02539 0 2.56348L0 15.8447C0 17.3828 0.98877 18.396 2.45361 18.396ZM3.74756 15.4297C3.02734 15.4297 2.56348 14.9658 2.56348 14.2456L2.56348 4.1626C2.56348 3.44238 3.02734 2.97852 3.74756 2.97852L15.8936 2.97852C16.6138 2.97852 17.0776 3.44238 17.0776 4.1626L17.0776 14.2456C17.0776 14.9658 16.6138 15.4297 15.8936 15.4297ZM4.24805 14.0747L15.3809 14.0747C15.5762 14.0747 15.7227 13.9404 15.7227 13.7451L15.7227 4.66309C15.7227 4.46777 15.5762 4.3335 15.3809 4.3335L4.24805 4.3335C4.06494 4.3335 3.91846 4.46777 3.91846 4.66309L3.91846 13.7451C3.91846 13.9404 4.06494 14.0747 4.24805 14.0747ZM20.6177 12.6953L28.4546 12.6953L28.4546 2.56348C28.4546 1.02539 27.4658 0.012207 26.001 0.012207L20.6177 0.012207ZM22.6318 5.43213C22.4976 5.43213 22.3877 5.33447 22.3877 5.2002L22.3877 3.22266C22.3877 3.10059 22.4976 2.97852 22.6318 2.97852L26.2573 2.97852C26.3916 2.97852 26.5015 3.10059 26.5015 3.22266L26.5015 5.2002C26.5015 5.33447 26.3916 5.43213 26.2573 5.43213ZM23.0347 7.66602C22.6562 7.66602 22.3877 7.40967 22.3877 7.03125C22.3877 6.64062 22.6562 6.38428 23.0347 6.38428L25.8545 6.38428C26.2329 6.38428 26.5015 6.64062 26.5015 7.03125C26.5015 7.40967 26.2329 7.66602 25.8545 7.66602ZM23.0347 9.91211C22.6562 9.91211 22.3877 9.65576 22.3877 9.26514C22.3877 8.88672 22.6562 8.64258 23.0347 8.64258L25.8545 8.64258C26.2329 8.64258 26.5015 8.88672 26.5015 9.26514C26.5015 9.65576 26.2329 9.91211 25.8545 9.91211ZM20.6177 18.396L26.001 18.396C27.4658 18.396 28.4546 17.3828 28.4546 15.8447L28.4546 14.0503L20.6177 14.0503Z" fill="#5ac8f5"/>
 </g>
</svg>
