<?xml version="1.0" encoding="UTF-8"?>
<!--Generator: Apple Native CoreSVG 175.5-->
<!DOCTYPE svg
PUBLIC "-//W3C//DTD SVG 1.1//EN"
       "http://www.w3.org/Graphics/SVG/1.1/DTD/svg11.dtd">
<svg version="1.1" xmlns="http://www.w3.org/2000/svg" xmlns:xlink="http://www.w3.org/1999/xlink" width="28.7842" height="22.4731">
 <g>
  <rect height="22.4731" opacity="0" width="28.7842" x="0" y="0"/>
  <path d="M3.83301 22.4731L24.9512 22.4731C27.5146 22.4731 28.7842 21.2158 28.7842 18.7012L28.7842 3.78418C28.7842 1.26953 27.5146 0 24.9512 0L3.83301 0C1.28174 0 0 1.26953 0 3.78418L0 18.7012C0 21.2158 1.28174 22.4731 3.83301 22.4731Z" fill="#5ac8f5" fill-opacity="0.25"/>
  <path d="M11.3647 5.67627C12.7197 5.67627 13.7695 6.44531 14.3921 7.59277C15.0269 6.44531 16.0889 5.67627 17.4194 5.67627C19.5557 5.67627 21.0938 7.2876 21.0938 9.52148C21.0938 12.8174 17.5781 15.8325 15.0269 17.5049C14.8315 17.6514 14.5874 17.8101 14.4165 17.8101C14.27 17.8101 13.9893 17.6392 13.7695 17.5049C11.1938 15.8691 7.70264 12.8174 7.70264 9.52148C7.70264 7.2876 9.24072 5.67627 11.3647 5.67627Z" fill="#5ac8f5"/>
 </g>
</svg>
