<?xml version="1.0" encoding="UTF-8"?>
<!--Generator: Apple Native CoreSVG 175.5-->
<!DOCTYPE svg
PUBLIC "-//W3C//DTD SVG 1.1//EN"
       "http://www.w3.org/Graphics/SVG/1.1/DTD/svg11.dtd">
<svg version="1.1" xmlns="http://www.w3.org/2000/svg" xmlns:xlink="http://www.w3.org/1999/xlink" width="28.6865" height="22.4976">
 <g>
  <rect height="22.4976" opacity="0" width="28.6865" x="0" y="0"/>
  <path d="M0 18.7134C0 21.228 1.28174 22.4854 3.83301 22.4854L24.8535 22.4854C27.3926 22.4854 28.6865 21.2158 28.6865 18.7134L28.6865 14.7095C28.6865 13.9038 28.4424 13.0005 27.7954 12.3047L23.1689 7.38525C22.0581 6.21338 21.2036 5.54199 19.5557 5.54199L8.89893 5.54199C7.4707 5.54199 6.62842 6.21338 5.51758 7.38525L0.891113 12.3047C0.244141 13.0005 0 13.9038 0 14.7095ZM1.96533 18.6035L1.96533 16.2231L26.7212 16.2231L26.7212 18.6035C26.7212 19.873 26.0254 20.52 24.8169 20.52L3.85742 20.52C2.63672 20.52 1.96533 19.873 1.96533 18.6035ZM2.72217 13.3179L7.12891 8.41064C7.75146 7.72705 8.20312 7.34863 8.93555 7.34863L19.7388 7.34863C20.4712 7.34863 20.9351 7.71484 21.5576 8.41064L25.9644 13.3179C26.2939 13.6963 26.1108 14.2578 25.5005 14.2578L3.18604 14.2578C2.57568 14.2578 2.39258 13.6963 2.72217 13.3179ZM1.83105 1.74561L5.66406 5.61523C6.7627 6.73828 7.32422 7.10449 8.70361 7.10449L19.873 7.10449C21.3501 7.10449 21.9238 6.73828 23.0225 5.61523L26.8555 1.74561C27.478 1.12305 27.1729 0 26.0864 0L2.6001 0C1.51367 0 1.2085 1.12305 1.83105 1.74561ZM4.21143 1.77002L24.4751 1.77002L21.2158 5.0415C20.874 5.39551 20.5322 5.54199 19.9585 5.54199L8.72803 5.54199C8.14209 5.54199 7.8125 5.39551 7.4707 5.0415ZM6.97021 12.5C7.06787 12.793 7.39746 12.9272 7.70264 12.8174L13.3179 10.7666C13.6353 10.6567 13.7817 10.3638 13.6719 10.0464C13.562 9.74121 13.2568 9.60693 12.9395 9.729L7.32422 11.7798C7.00684 11.8896 6.86035 12.1826 6.97021 12.5ZM7.15332 10.2661C7.26318 10.5835 7.58057 10.7056 7.88574 10.5957L11.7554 9.19189C12.0605 9.08203 12.2314 8.77686 12.1094 8.47168C11.9995 8.1543 11.6821 8.04443 11.3892 8.1543L7.50732 9.55811C7.18994 9.66797 7.04346 9.97314 7.15332 10.2661ZM19.5679 18.3716C19.5679 18.75 19.873 19.0063 20.2393 19.0063L23.5107 19.0063C23.8892 19.0063 24.1699 18.75 24.1699 18.3716C24.1699 17.9932 23.8892 17.7246 23.5107 17.7246L20.2393 17.7246C19.8486 17.7246 19.5679 17.9932 19.5679 18.3716Z" fill="#5ac8f5"/>
 </g>
</svg>
