<?xml version="1.0" encoding="UTF-8"?>
<!--Generator: Apple Native CoreSVG 175.5-->
<!DOCTYPE svg
PUBLIC "-//W3C//DTD SVG 1.1//EN"
       "http://www.w3.org/Graphics/SVG/1.1/DTD/svg11.dtd">
<svg version="1.1" xmlns="http://www.w3.org/2000/svg" xmlns:xlink="http://www.w3.org/1999/xlink" width="24.9023" height="24.9146">
 <g>
  <rect height="24.9146" opacity="0" width="24.9023" x="0" y="0"/>
  <path d="M12.4512 24.9023C19.2627 24.9023 24.9023 19.2505 24.9023 12.4512C24.9023 5.63965 19.2505 0 12.439 0C5.63965 0 0 5.63965 0 12.4512C0 19.2505 5.65186 24.9023 12.4512 24.9023ZM12.4512 22.8271C6.68945 22.8271 2.0874 18.2129 2.0874 12.4512C2.0874 6.68945 6.67725 2.0752 12.439 2.0752C18.2007 2.0752 22.8271 6.68945 22.8271 12.4512C22.8271 18.2129 18.2129 22.8271 12.4512 22.8271ZM7.04346 18.5913C8.77686 20.2881 11.145 20.2271 12.8174 18.5669L17.8101 13.5864C18.0542 13.3423 18.0786 12.8662 17.8101 12.6221C17.5537 12.3657 17.0898 12.3657 16.8335 12.6343L11.9019 17.5537C10.7666 18.7012 9.15527 18.7012 8.05664 17.6147C6.92139 16.5039 6.95801 14.9048 8.09326 13.7451L14.8193 7.01904C15.5396 6.29883 16.5527 6.26221 17.1997 6.89697C17.8589 7.55615 17.7979 8.53271 17.0654 9.26514L10.498 15.8325C10.2783 16.0767 10.0098 16.0645 9.79004 15.8691C9.55811 15.6738 9.57031 15.3687 9.80225 15.1489L14.3921 10.5591C14.6729 10.2783 14.6973 9.8877 14.4165 9.61914C14.1357 9.33838 13.7451 9.35059 13.4644 9.63135L8.87451 14.2334C8.12988 14.978 8.09326 16.1377 8.80127 16.8579C9.52148 17.5903 10.6323 17.5659 11.4014 16.7969L18.0054 10.1929C19.2993 8.89893 19.3481 7.14111 18.1396 5.93262C16.9067 4.72412 15.1489 4.74854 13.855 6.04248L7.08008 12.8052C5.40771 14.4775 5.40771 16.98 7.04346 18.5913Z" fill="#5ac8f5"/>
 </g>
</svg>
