<?xml version="1.0" encoding="UTF-8"?>
<!--Generator: Apple Native CoreSVG 175.5-->
<!DOCTYPE svg
PUBLIC "-//W3C//DTD SVG 1.1//EN"
       "http://www.w3.org/Graphics/SVG/1.1/DTD/svg11.dtd">
<svg version="1.1" xmlns="http://www.w3.org/2000/svg" xmlns:xlink="http://www.w3.org/1999/xlink" width="24.9023" height="24.9146">
 <g>
  <rect height="24.9146" opacity="0" width="24.9023" x="0" y="0"/>
  <path d="M12.4512 24.9023C19.2627 24.9023 24.9023 19.2505 24.9023 12.4512C24.9023 5.63965 19.2505 0 12.439 0C5.63965 0 0 5.63965 0 12.4512C0 19.2505 5.65186 24.9023 12.4512 24.9023ZM12.4512 22.8271C6.68945 22.8271 2.0874 18.2129 2.0874 12.4512C2.0874 6.68945 6.67725 2.0752 12.439 2.0752C18.2007 2.0752 22.8271 6.68945 22.8271 12.4512C22.8271 18.2129 18.2129 22.8271 12.4512 22.8271ZM13.9282 18.5669C14.3311 18.5669 14.6606 18.2983 14.6606 17.8589C14.6606 17.6025 14.5264 17.395 14.3433 17.2241L10.73 13.855L11.0596 13.855C13.4644 13.855 14.6484 12.5122 14.9048 10.9741L16.04 10.9741C16.394 10.9741 16.6382 10.7056 16.6382 10.376C16.6382 10.022 16.394 9.76562 16.04 9.76562L14.917 9.76562C14.8315 9.13086 14.5874 8.56934 14.1968 8.12988L15.979 8.12988C16.333 8.12988 16.5771 7.84912 16.5771 7.51953C16.5771 7.16553 16.333 6.92139 15.979 6.92139L13.4155 6.92139C13.0249 6.92139 12.6343 6.92139 12.2437 6.92139L8.95996 6.92139C8.55713 6.92139 8.23975 7.22656 8.23975 7.6416C8.23975 8.03223 8.55713 8.37402 8.95996 8.37402L11.1572 8.37402C12.2437 8.37402 13.0005 8.88672 13.2324 9.76562L8.94775 9.76562C8.60596 9.76562 8.34961 10.022 8.34961 10.376C8.34961 10.7056 8.60596 10.9741 8.94775 10.9741L13.2568 10.9741C13.0371 11.9263 12.2314 12.4023 10.9985 12.4023L9.21631 12.4023C8.71582 12.4023 8.34961 12.7197 8.34961 13.2324C8.34961 13.6475 8.54492 13.8428 8.78906 14.0747L13.208 18.2373C13.4766 18.4937 13.6719 18.5669 13.9282 18.5669Z" fill="#5ac8f5"/>
 </g>
</svg>
