<?xml version="1.0" encoding="UTF-8"?>
<!--Generator: Apple Native CoreSVG 175.5-->
<!DOCTYPE svg
PUBLIC "-//W3C//DTD SVG 1.1//EN"
       "http://www.w3.org/Graphics/SVG/1.1/DTD/svg11.dtd">
<svg version="1.1" xmlns="http://www.w3.org/2000/svg" xmlns:xlink="http://www.w3.org/1999/xlink" width="20.4359" height="26.9409">
 <g>
  <rect height="26.9409" opacity="0" width="20.4359" x="0" y="0"/>
  <path d="M12.7602 5.32227C14.2372 5.32227 15.4213 4.13818 15.4213 2.66113C15.4213 1.18408 14.2372 0 12.7602 0C11.2831 0 10.099 1.18408 10.099 2.66113C10.099 4.13818 11.2831 5.32227 12.7602 5.32227ZM8.58537 15.9424L13.2607 18.5669L10.2455 21.1548C9.59855 21.7041 9.61076 22.4243 10.0014 22.8638C10.4042 23.3154 11.1244 23.4253 11.7958 22.8516L16.0072 19.2627C16.581 18.7744 16.4955 17.7246 15.7997 17.2729L11.2221 14.27L12.1254 11.1084C12.2475 10.6567 12.7724 10.5957 13.0409 10.9863L14.3837 12.9517C14.7011 13.4033 15.2748 13.5864 15.7997 13.3423L19.6694 11.6211C20.3529 11.3159 20.6093 10.7178 20.3163 10.0952C20.0112 9.48486 19.4252 9.30176 18.7416 9.60693L15.6777 10.9619L13.5658 8.04443C12.4672 6.53076 11.1 5.9082 8.85392 6.0791L4.56926 6.38428C3.88566 6.43311 3.4218 6.87256 3.32414 7.58057L2.75041 11.9263C2.64055 12.6831 3.01896 13.208 3.69035 13.2812C4.37394 13.3423 4.8134 12.9517 4.91105 12.1948L5.43596 8.64258L7.15715 8.52051C7.53557 8.48389 7.91398 8.75244 7.77971 9.22852L6.77873 12.7197C6.19279 14.7827 7.53557 15.3442 8.58537 15.9424ZM0.418866 26.4893C0.870526 26.8677 1.56633 26.9165 2.18889 26.3184L6.14396 22.3999C6.47355 22.0703 6.5468 21.9971 6.75432 21.4844L8.41447 17.1875L8.01164 16.9678C7.08391 16.4673 6.43693 15.9546 5.99748 15.4053L4.54484 20.5444L0.44328 24.6338C-0.203692 25.2686-0.081622 26.0498 0.418866 26.4893Z" fill="#5ac8f5"/>
 </g>
</svg>
