<?xml version="1.0" encoding="UTF-8"?>
<!--Generator: Apple Native CoreSVG 175.5-->
<!DOCTYPE svg
PUBLIC "-//W3C//DTD SVG 1.1//EN"
       "http://www.w3.org/Graphics/SVG/1.1/DTD/svg11.dtd">
<svg version="1.1" xmlns="http://www.w3.org/2000/svg" xmlns:xlink="http://www.w3.org/1999/xlink" width="24.9023" height="24.9146">
 <g>
  <rect height="24.9146" opacity="0" width="24.9023" x="0" y="0"/>
  <path d="M12.4512 24.9023C19.2627 24.9023 24.9023 19.2505 24.9023 12.4512C24.9023 5.63965 19.2505 0 12.439 0C5.63965 0 0 5.63965 0 12.4512C0 19.2505 5.65186 24.9023 12.4512 24.9023ZM12.4512 22.8271C6.68945 22.8271 2.0874 18.2129 2.0874 12.4512C2.0874 6.68945 6.67725 2.0752 12.439 2.0752C18.2007 2.0752 22.8271 6.68945 22.8271 12.4512C22.8271 18.2129 18.2129 22.8271 12.4512 22.8271Z" fill="#5ac8f5" fill-opacity="0.5"/>
  <path d="M4.91943 12.4512C4.91943 16.5649 8.3374 19.9829 12.439 19.9829C16.5649 19.9829 19.9829 16.5649 19.9829 12.4512C19.9829 8.3252 16.5771 4.91943 12.4512 4.91943C8.3374 4.91943 4.91943 8.3252 4.91943 12.4512ZM6.67725 12.4512C6.67725 11.7676 6.79932 11.0962 7.01904 10.4858L17.8955 10.4858C18.1152 11.0962 18.2373 11.7676 18.2373 12.4512C18.2251 15.6738 15.6494 18.2373 12.439 18.2373C9.22852 18.2373 6.67725 15.6738 6.67725 12.4512ZM7.92236 8.87451C8.95996 7.53174 10.5957 6.66504 12.4512 6.66504C14.3066 6.66504 15.9424 7.53174 17.0044 8.87451Z" fill="#5ac8f5"/>
 </g>
</svg>
