<?xml version="1.0" encoding="UTF-8"?>
<!--Generator: Apple Native CoreSVG 175.5-->
<!DOCTYPE svg
PUBLIC "-//W3C//DTD SVG 1.1//EN"
       "http://www.w3.org/Graphics/SVG/1.1/DTD/svg11.dtd">
<svg version="1.1" xmlns="http://www.w3.org/2000/svg" xmlns:xlink="http://www.w3.org/1999/xlink" width="26.9043" height="26.9653">
 <g>
  <rect height="26.9653" opacity="0" width="26.9043" x="0" y="0"/>
  <path d="M7.25098 26.9653C7.72705 26.9653 8.08105 26.7212 8.65479 26.1841L13.0615 22.1558L21.3135 22.1558C24.9512 22.1558 26.9043 20.1538 26.9043 16.5771L26.9043 7.22656C26.9043 3.6499 24.9512 1.63574 21.3135 1.63574L5.59082 1.63574C1.95312 1.63574 0 3.6377 0 7.22656L0 16.5771C0 20.166 1.95312 22.1558 5.59082 22.1558L6.16455 22.1558L6.16455 25.708C6.16455 26.4648 6.55518 26.9653 7.25098 26.9653Z" fill="#5ac8f5" fill-opacity="0.25"/>
  <path d="M13.4644 14.1602C12.8296 14.1602 12.4756 13.8062 12.4634 13.1592L12.3047 6.51855C12.2925 5.87158 12.7686 5.39551 13.4521 5.39551C14.1235 5.39551 14.624 5.88379 14.6118 6.53076L14.4287 13.1592C14.4165 13.8184 14.0625 14.1602 13.4644 14.1602ZM13.4644 18.2495C12.7319 18.2495 12.0972 17.6758 12.0972 16.9434C12.0972 16.2231 12.7197 15.6372 13.4644 15.6372C14.1968 15.6372 14.8193 16.2109 14.8193 16.9434C14.8193 17.688 14.1846 18.2495 13.4644 18.2495Z" fill="#5ac8f5"/>
 </g>
</svg>
