<?xml version="1.0" encoding="UTF-8"?>
<!--Generator: Apple Native CoreSVG 175.5-->
<!DOCTYPE svg
PUBLIC "-//W3C//DTD SVG 1.1//EN"
       "http://www.w3.org/Graphics/SVG/1.1/DTD/svg11.dtd">
<svg version="1.1" xmlns="http://www.w3.org/2000/svg" xmlns:xlink="http://www.w3.org/1999/xlink" width="24.9023" height="24.9146">
 <g>
  <rect height="24.9146" opacity="0" width="24.9023" x="0" y="0"/>
  <path d="M12.4512 24.9146C19.2627 24.9146 24.9023 19.2749 24.9023 12.4634C24.9023 5.66406 19.2505 0.012207 12.439 0.012207C5.63965 0.012207 0 5.66406 0 12.4634C0 19.2749 5.65186 24.9146 12.4512 24.9146Z" fill="#5ac8f5" fill-opacity="0.25"/>
  <path d="M9.60693 17.6636C9.28955 17.6636 9.05762 17.5171 8.72803 17.2241L3.52783 12.3413C3.28369 12.0972 3.21045 11.8652 3.21045 11.6455C3.21045 11.4014 3.28369 11.1816 3.52783 10.9375L8.72803 6.0791C9.06982 5.76172 9.27734 5.61523 9.59473 5.61523C10.0708 5.61523 10.376 5.9082 10.376 6.21338L10.376 6.51855L6.23779 10.3149C5.82275 10.6812 5.61523 11.1572 5.61523 11.6455C5.61523 12.1338 5.83496 12.5977 6.23779 12.9639L10.376 16.7847L10.376 17.0898C10.376 17.3828 10.0708 17.6636 9.60693 17.6636ZM12.9272 17.6636C12.6343 17.6636 12.3657 17.5171 12.0483 17.2241L6.86035 12.3413C6.604 12.085 6.53076 11.8652 6.53076 11.6455C6.53076 11.4014 6.604 11.1938 6.86035 10.9375L12.0483 6.0791C12.3901 5.76172 12.6099 5.61523 12.915 5.61523C13.3667 5.61523 13.6963 5.99365 13.6963 6.4209L13.6963 8.92334L13.8916 8.92334C18.5913 8.92334 20.6665 11.9141 20.6665 16.7847C20.6665 17.3462 20.3735 17.6636 20.0073 17.6636C19.7144 17.6636 19.4092 17.5781 19.1895 17.1753C18.0786 15.0269 16.4429 14.3799 13.8916 14.3799L13.6963 14.3799L13.6963 16.8823C13.6963 17.3462 13.3667 17.6636 12.9272 17.6636Z" fill="#5ac8f5"/>
 </g>
</svg>
