<?xml version="1.0" encoding="UTF-8"?>
<!--Generator: Apple Native CoreSVG 175.5-->
<!DOCTYPE svg
PUBLIC "-//W3C//DTD SVG 1.1//EN"
       "http://www.w3.org/Graphics/SVG/1.1/DTD/svg11.dtd">
<svg version="1.1" xmlns="http://www.w3.org/2000/svg" xmlns:xlink="http://www.w3.org/1999/xlink" width="24.9023" height="24.9146">
 <g>
  <rect height="24.9146" opacity="0" width="24.9023" x="0" y="0"/>
  <path d="M12.4512 24.9023C19.2627 24.9023 24.9023 19.2505 24.9023 12.4512C24.9023 5.63965 19.2505 0 12.439 0C5.63965 0 0 5.63965 0 12.4512C0 19.2505 5.65186 24.9023 12.4512 24.9023Z" fill="#5ac8f5" fill-opacity="0.25"/>
  <path d="M12.6099 19.9951C8.10547 19.9951 5.09033 16.98 5.09033 12.4756C5.09033 7.97119 8.14209 4.87061 12.5854 4.87061C16.8823 4.87061 19.8364 7.65381 19.8364 11.7065C19.8364 14.5508 18.4937 16.4917 16.4673 16.4917C15.4663 16.4917 14.6973 16.0278 14.3433 15.2832C13.855 16.0522 13.0493 16.4917 12.1094 16.4917C10.144 16.4917 8.77686 14.8315 8.77686 12.4878C8.77686 10.1685 10.144 8.52051 12.0728 8.52051C12.8784 8.52051 13.6353 8.91113 14.1113 9.44824L14.1113 9.2041C14.1113 8.89893 14.4287 8.52051 14.8926 8.52051C15.4053 8.52051 15.7349 8.87451 15.7349 9.39941L15.7349 14.0381C15.7349 14.6362 16.04 14.9536 16.6382 14.9536C17.5537 14.9536 18.1885 13.7085 18.1885 11.7554C18.1885 8.60596 15.9302 6.50635 12.5732 6.50635C9.14307 6.50635 6.82373 8.93555 6.82373 12.5122C6.82373 16.1133 9.13086 18.3472 12.8296 18.3472C13.7695 18.3472 14.4531 18.2251 15.2832 18.0298C15.4297 17.9932 15.5762 17.9565 15.6738 17.9565C16.0889 17.9565 16.4062 18.2739 16.4062 18.689C16.4062 19.1162 16.1133 19.4458 15.5884 19.6167C14.8682 19.8486 13.7573 19.9951 12.6099 19.9951ZM12.4023 14.7949C13.4766 14.7949 14.1846 13.8794 14.1846 12.4146C14.1846 10.9863 13.4888 10.1074 12.4146 10.1074C11.3525 10.1074 10.6689 11.0107 10.6689 12.4512C10.6689 13.9038 11.3403 14.7949 12.4023 14.7949Z" fill="#5ac8f5"/>
 </g>
</svg>
