<?xml version="1.0" encoding="UTF-8"?>
<!--Generator: Apple Native CoreSVG 175.5-->
<!DOCTYPE svg
PUBLIC "-//W3C//DTD SVG 1.1//EN"
       "http://www.w3.org/Graphics/SVG/1.1/DTD/svg11.dtd">
<svg version="1.1" xmlns="http://www.w3.org/2000/svg" xmlns:xlink="http://www.w3.org/1999/xlink" width="26.9043" height="26.9653">
 <g>
  <rect height="26.9653" opacity="0" width="26.9043" x="0" y="0"/>
  <path d="M7.25098 26.9653C7.72705 26.9653 8.08105 26.7212 8.65479 26.1841L13.0615 22.1558L21.3135 22.1558C24.9512 22.1558 26.9043 20.1538 26.9043 16.5771L26.9043 7.22656C26.9043 3.6499 24.9512 1.63574 21.3135 1.63574L5.59082 1.63574C1.95312 1.63574 0 3.6377 0 7.22656L0 16.5771C0 20.166 1.95312 22.1558 5.59082 22.1558L6.16455 22.1558L6.16455 25.708C6.16455 26.4648 6.55518 26.9653 7.25098 26.9653ZM7.37305 10.5713C7.37305 9.06982 8.5083 8.02002 10.022 8.02002C11.6577 8.02002 12.7563 9.32617 12.7563 11.0352C12.7563 14.2334 10.2051 15.7471 8.93555 15.7471C8.58154 15.7471 8.31299 15.4785 8.31299 15.1611C8.31299 14.856 8.44727 14.6606 8.92334 14.5386C9.74121 14.3188 10.7056 13.6475 11.1694 12.6099L11.0718 12.6099C10.7422 13.0249 10.2173 13.1104 9.69238 13.1104C8.26416 13.1104 7.37305 11.9995 7.37305 10.5713ZM14.1724 10.5713C14.1724 9.06982 15.2954 8.02002 16.8091 8.02002C18.4448 8.02002 19.5557 9.32617 19.5557 11.0352C19.5557 14.2334 17.0044 15.7471 15.7349 15.7471C15.3809 15.7471 15.1123 15.4785 15.1123 15.1611C15.1123 14.856 15.2588 14.6606 15.7104 14.5386C16.5405 14.3188 17.5049 13.6475 17.9688 12.6099L17.8711 12.6099C17.5415 13.0249 17.0166 13.1104 16.4795 13.1104C15.0635 13.1104 14.1724 11.9995 14.1724 10.5713Z" fill="#5ac8f5"/>
 </g>
</svg>
