<?xml version="1.0" encoding="UTF-8"?>
<!--Generator: Apple Native CoreSVG 175.5-->
<!DOCTYPE svg
PUBLIC "-//W3C//DTD SVG 1.1//EN"
       "http://www.w3.org/Graphics/SVG/1.1/DTD/svg11.dtd">
<svg version="1.1" xmlns="http://www.w3.org/2000/svg" xmlns:xlink="http://www.w3.org/1999/xlink" width="22.4731" height="22.4976">
 <g>
  <rect height="22.4976" opacity="0" width="22.4731" x="0" y="0"/>
  <path d="M3.83301 22.4976L18.6401 22.4976C21.2036 22.4976 22.4731 21.228 22.4731 18.7134L22.4731 3.80859C22.4731 1.29395 21.2036 0.0244141 18.6401 0.0244141L3.83301 0.0244141C1.28174 0.0244141 0 1.28174 0 3.80859L0 18.7134C0 21.2402 1.28174 22.4976 3.83301 22.4976ZM3.85742 20.5322C2.63672 20.5322 1.96533 19.8853 1.96533 18.6157L1.96533 3.90625C1.96533 2.63672 2.63672 1.98975 3.85742 1.98975L18.6157 1.98975C19.8242 1.98975 20.5078 2.63672 20.5078 3.90625L20.5078 18.6157C20.5078 19.8853 19.8242 20.5322 18.6157 20.5322Z" fill="#5ac8f5" fill-opacity="0.5"/>
  <path d="M6.49414 16.9067C7.05566 16.9067 7.39746 16.5405 7.39746 15.9058L7.39746 8.8623L7.49512 8.8623L10.3027 15.8936C10.4858 16.333 10.7788 16.5405 11.2305 16.5405C11.6821 16.5405 11.9873 16.333 12.1582 15.8936L14.9902 8.8623L15.0879 8.8623L15.0879 15.9058C15.0879 16.5283 15.4175 16.9067 15.9546 16.9067C16.5283 16.9067 16.8579 16.5405 16.8579 15.9058L16.8579 6.55518C16.8579 5.88379 16.3818 5.41992 15.7104 5.41992C15.1245 5.41992 14.7339 5.68848 14.5142 6.21338L11.2793 14.3311L11.2183 14.3311L7.95898 6.21338C7.75146 5.68848 7.36084 5.41992 6.7749 5.41992C6.09131 5.41992 5.62744 5.88379 5.62744 6.55518L5.62744 15.9058C5.62744 16.5283 5.95703 16.9067 6.49414 16.9067Z" fill="#5ac8f5"/>
 </g>
</svg>
