<?xml version="1.0" encoding="UTF-8"?>
<!--Generator: Apple Native CoreSVG 175.5-->
<!DOCTYPE svg
PUBLIC "-//W3C//DTD SVG 1.1//EN"
       "http://www.w3.org/Graphics/SVG/1.1/DTD/svg11.dtd">
<svg version="1.1" xmlns="http://www.w3.org/2000/svg" xmlns:xlink="http://www.w3.org/1999/xlink" width="27.6842" height="27.701">
 <g>
  <rect height="27.701" opacity="0" width="27.6842" x="0" y="0"/>
  <path d="M1.36881 16.5422L11.1466 26.32C12.9533 28.1266 14.7355 28.1388 16.5299 26.3566L26.3566 16.5177C28.1388 14.7355 28.1266 12.9411 26.32 11.1344L16.5544 1.36881C14.7477-0.43783 12.9655-0.462244 11.1711 1.33219L1.33219 11.1588C-0.462244 12.9533-0.43783 14.7355 1.36881 16.5422ZM8.37565 17.4211L8.37565 14.2106C8.37565 11.7692 9.53531 10.5973 11.9889 10.5973L15.4557 10.5973L15.4557 8.986C15.4557 8.16813 16.298 7.81412 16.945 8.31461L19.9235 10.6217C20.7047 11.2443 20.7047 11.9889 19.9235 12.6115L16.945 14.9308C16.298 15.4313 15.4557 15.0773 15.4557 14.2594L15.4557 12.6359L12.0133 12.6359C10.9391 12.6359 10.402 13.173 10.402 14.3083L10.402 17.4211C10.402 18.1413 10.0236 18.5441 9.38883 18.5563C8.72965 18.5685 8.37565 18.1413 8.37565 17.4211Z" fill="#5ac8f5"/>
 </g>
</svg>
