<?xml version="1.0" encoding="UTF-8"?>
<!--Generator: Apple Native CoreSVG 175.5-->
<!DOCTYPE svg
PUBLIC "-//W3C//DTD SVG 1.1//EN"
       "http://www.w3.org/Graphics/SVG/1.1/DTD/svg11.dtd">
<svg version="1.1" xmlns="http://www.w3.org/2000/svg" xmlns:xlink="http://www.w3.org/1999/xlink" width="28.0269" height="31.7993">
 <g>
  <rect height="31.7993" opacity="0" width="28.0269" x="0" y="0"/>
  <path d="M3.04451 19.5801L11.7115 19.5801L11.7115 23.7793L13.3595 23.7793L13.3595 19.5801L17.6685 19.5801C21.3429 19.5801 23.3936 17.7002 23.3936 14.6606C23.3936 9.61914 18.2911 3.94287 13.3595 1.23291L13.3595 0.830078C13.3595 0.378418 12.9932 0 12.5416 0C12.0899 0 11.7115 0.378418 11.7115 0.830078L11.7115 1.57471C11.7115 5.76172 7.85408 13.3179 2.37313 17.2852C1.17684 18.1519 1.84822 19.5801 3.04451 19.5801ZM13.3595 17.5415L13.3595 3.08838C15.3248 5.32227 16.1671 8.30078 16.1671 10.8643C16.1671 13.7329 15.1295 16.2354 13.3595 17.5415ZM0.102619 24.8779L0.957111 27.771C0.981526 27.8564 1.00594 27.9297 1.03035 28.0029C1.73836 27.9663 2.31209 27.7222 3.16658 27.124C3.97225 26.5381 5.29061 25.5737 7.12166 25.5737C8.73299 25.5737 9.9659 26.3184 10.8936 27.002C12.0777 27.8931 12.3585 28.0518 12.92 28.0518C13.4815 28.0518 13.7623 27.8931 14.9464 27.002C15.8619 26.3306 17.1192 25.5737 18.7183 25.5737C20.5494 25.5737 21.8678 26.5381 22.6856 27.124C23.5279 27.7222 24.1627 27.9907 25.066 28.0151L27.6295 25.1221C28.4962 24.1089 27.8736 22.7539 26.4576 22.7539L1.64071 22.7539C0.322346 22.7539-0.251385 23.6572 0.102619 24.8779ZM0.0904123 30.3345C0.0904123 30.8105 0.481037 31.2012 0.957111 31.2012L1.01815 31.2012C4.82674 31.2012 5.14412 28.7231 7.12166 28.7231C9.06258 28.7231 9.58748 31.2012 12.92 31.2012C16.2525 31.2012 16.7774 28.7231 18.7183 28.7231C20.6959 28.7231 21.0133 31.2012 24.8219 31.2012L26.067 31.2012C26.543 31.2012 26.9215 30.8105 26.9215 30.3345C26.9215 29.8584 26.543 29.48 26.067 29.48L24.8219 29.48C23.5157 29.48 22.7711 28.9307 21.8555 28.2837C21.0621 27.71 20.0733 27.002 18.7183 27.002C17.3145 27.002 16.3136 27.7466 15.5201 28.3447C14.6778 28.9795 14.0186 29.48 12.92 29.48C11.8214 29.48 11.1622 28.9795 10.3199 28.3447C9.52645 27.7466 8.52547 27.002 7.12166 27.002C5.76668 27.002 4.77791 27.71 3.98446 28.2837C3.06893 28.9307 2.3243 29.48 1.01815 29.48L0.957111 29.48C0.481037 29.48 0.0904123 29.8584 0.0904123 30.3345Z" fill="#5ac8f5"/>
 </g>
</svg>
