<?xml version="1.0" encoding="UTF-8"?>
<!--Generator: Apple Native CoreSVG 175.5-->
<!DOCTYPE svg
PUBLIC "-//W3C//DTD SVG 1.1//EN"
       "http://www.w3.org/Graphics/SVG/1.1/DTD/svg11.dtd">
<svg version="1.1" xmlns="http://www.w3.org/2000/svg" xmlns:xlink="http://www.w3.org/1999/xlink" width="28.7354" height="25.5981">
 <g>
  <rect height="25.5981" opacity="0" width="28.7354" x="0" y="0"/>
  <path d="M0 23.9502C0 24.8413 0.585938 25.5981 1.84326 25.5981L11.5479 25.5981C13.0005 25.5981 13.6597 24.9512 13.6597 23.4985L13.6597 8.91113C13.6597 7.83691 12.854 7.26318 11.9873 7.26318C11.4014 7.26318 10.8398 7.53174 10.437 8.09326L0.378418 22.6929C0.109863 23.0835 0 23.5352 0 23.9502ZM15.0757 23.4985C15.0757 24.9512 15.7349 25.5981 17.1875 25.5981L26.8799 25.5981C28.1494 25.5981 28.7354 24.8413 28.7354 23.9502C28.7354 23.5352 28.6133 23.0835 28.3447 22.6929L18.2861 8.09326C17.8955 7.53174 17.3218 7.26318 16.7358 7.26318C15.8691 7.26318 15.0757 7.83691 15.0757 8.91113ZM1.89209 4.27246L5.16357 6.70166C5.83496 7.21436 6.64062 6.90918 6.64062 6.06689L6.64062 4.32129L22.0825 4.32129L22.0825 6.06689C22.0825 6.90918 22.9004 7.21436 23.5718 6.70166L26.8433 4.27246C27.2949 3.93066 27.2827 3.30811 26.8433 2.97852L23.5718 0.537109C22.9248 0.0488281 22.0825 0.305176 22.0825 1.18408L22.0825 2.90527L6.64062 2.90527L6.64062 1.18408C6.64062 0.32959 5.83496 0.0244141 5.16357 0.537109L1.89209 2.97852C1.44043 3.30811 1.45264 3.94287 1.89209 4.27246Z" fill="#5ac8f5"/>
 </g>
</svg>
