<?xml version="1.0" encoding="UTF-8"?>
<!--Generator: Apple Native CoreSVG 175.5-->
<!DOCTYPE svg
PUBLIC "-//W3C//DTD SVG 1.1//EN"
       "http://www.w3.org/Graphics/SVG/1.1/DTD/svg11.dtd">
<svg version="1.1" xmlns="http://www.w3.org/2000/svg" xmlns:xlink="http://www.w3.org/1999/xlink" width="24.9023" height="24.9146">
 <g>
  <rect height="24.9146" opacity="0" width="24.9023" x="0" y="0"/>
  <path d="M2.0874 12.4512C2.0874 11.3403 2.2583 10.2661 2.57568 9.27734L0.65918 8.47168C0.244141 9.729 0 11.0596 0 12.4512C0 13.8306 0.244141 15.1733 0.671387 16.4307L2.57568 15.625C2.2583 14.6362 2.0874 13.562 2.0874 12.4512ZM7.70264 3.19824L6.92139 1.31836C4.50439 2.52686 2.51465 4.5166 1.30615 6.93359L3.21045 7.72705C4.18701 5.78613 5.77393 4.19922 7.70264 3.19824ZM12.439 2.0752C13.5498 2.0752 14.624 2.24609 15.6372 2.57568L16.4185 0.671387C15.1611 0.244141 13.8184 0 12.439 0C11.0596 0 9.70459 0.244141 8.44727 0.671387L9.25293 2.57568C10.2539 2.24609 11.3281 2.0752 12.439 2.0752ZM21.6919 7.71484L23.584 6.93359C22.3633 4.5166 20.3735 2.52686 17.9565 1.30615L17.1753 3.19824C19.104 4.18701 20.7031 5.77393 21.6919 7.71484ZM22.8271 12.4512C22.8271 13.562 22.6562 14.6362 22.3389 15.6372L24.231 16.4429C24.6582 15.1855 24.9023 13.8306 24.9023 12.4512C24.9023 11.0596 24.6582 9.7168 24.231 8.45947L22.3267 9.26514C22.6562 10.2661 22.8271 11.3403 22.8271 12.4512ZM17.1753 21.6919L17.9565 23.5962C20.3857 22.3755 22.3755 20.3857 23.5718 17.9688L21.7041 17.1875C20.7153 19.1284 19.1162 20.7031 17.1753 21.6919ZM12.4512 22.8271C11.3281 22.8271 10.2539 22.6562 9.25293 22.3267L8.45947 24.231C9.7168 24.6582 11.0718 24.9023 12.4512 24.9023C13.8306 24.9023 15.1733 24.6582 16.4185 24.2432L15.625 22.3389C14.624 22.6562 13.562 22.8271 12.4512 22.8271ZM3.21045 17.1875L1.31836 17.9688C2.53906 20.3857 4.50439 22.3755 6.92139 23.584L7.70264 21.6797C5.77393 20.6909 4.18701 19.1162 3.21045 17.1875ZM12.439 18.5669C14.9902 18.5669 16.6992 16.8701 16.6992 16.0645C16.6992 15.7837 16.4185 15.6494 16.1621 15.7715C15.271 16.2476 14.209 16.7969 12.439 16.7969C10.6689 16.7969 9.60693 16.2476 8.72803 15.7715C8.45947 15.6494 8.17871 15.7837 8.17871 16.0645C8.17871 16.8701 9.8877 18.5669 12.439 18.5669ZM8.82568 11.377C9.59473 11.377 10.2783 10.6812 10.2783 9.70459C10.2783 8.71582 9.60693 8.02002 8.82568 8.02002C8.05664 8.02002 7.38525 8.71582 7.38525 9.70459C7.38525 10.6812 8.05664 11.377 8.82568 11.377ZM16.0645 11.377C16.8335 11.377 17.5171 10.6812 17.5171 9.70459C17.5171 8.71582 16.8457 8.02002 16.0645 8.02002C15.2954 8.02002 14.624 8.71582 14.624 9.70459C14.624 10.6812 15.2954 11.377 16.0645 11.377Z" fill="#5ac8f5"/>
 </g>
</svg>
