<?xml version="1.0" encoding="UTF-8"?>
<!--Generator: Apple Native CoreSVG 175.5-->
<!DOCTYPE svg
PUBLIC "-//W3C//DTD SVG 1.1//EN"
       "http://www.w3.org/Graphics/SVG/1.1/DTD/svg11.dtd">
<svg version="1.1" xmlns="http://www.w3.org/2000/svg" xmlns:xlink="http://www.w3.org/1999/xlink" width="22.4731" height="22.4976">
 <g>
  <rect height="22.4976" opacity="0" width="22.4731" x="0" y="0"/>
  <path d="M3.83301 22.4976L18.6401 22.4976C21.2036 22.4976 22.4731 21.228 22.4731 18.7134L22.4731 3.80859C22.4731 1.29395 21.2036 0.0244141 18.6401 0.0244141L3.83301 0.0244141C1.28174 0.0244141 0 1.28174 0 3.80859L0 18.7134C0 21.2402 1.28174 22.4976 3.83301 22.4976Z" fill="#5ac8f5" fill-opacity="0.25"/>
  <path d="M4.55322 16.3818C4.10156 16.3818 3.80859 16.0889 3.80859 15.6372C3.80859 15.3809 3.89404 15.1611 4.08936 14.9536L7.40967 11.0474C8.00781 10.3516 8.66699 9.64355 8.66699 8.82568C8.66699 7.89795 8.00781 7.27539 6.99463 7.27539C6.10352 7.27539 5.46875 7.72705 5.15137 8.6792C4.98047 9.05762 4.79736 9.26514 4.43115 9.26514C3.9917 9.26514 3.72314 8.95996 3.72314 8.5083C3.72314 8.36182 3.74756 8.21533 3.78418 8.05664C4.10156 6.7749 5.43213 5.81055 6.93359 5.81055C8.91113 5.81055 10.1929 6.93359 10.1929 8.69141C10.1929 9.94873 9.49707 10.8521 8.56934 11.9385L6.11572 14.7949L6.11572 14.8926L9.76562 14.8926C10.1562 14.8926 10.4614 15.1489 10.4614 15.625C10.4614 16.0767 10.1562 16.3818 9.76562 16.3818ZM15.5518 16.687C14.27 16.687 13.1958 16.1987 12.5488 14.978C12.1216 14.1968 11.8652 13.0737 11.8652 11.5356C11.8652 7.70264 13.3667 5.81055 15.7959 5.81055C17.2241 5.81055 18.2373 6.55518 18.5547 7.39746C18.6279 7.56836 18.6523 7.71484 18.6523 7.88574C18.6523 8.30078 18.3716 8.58154 18.0298 8.58154C17.6758 8.58154 17.4927 8.42285 17.2729 8.10547C16.9556 7.61719 16.4429 7.27539 15.7349 7.27539C14.3188 7.27539 13.3545 8.76465 13.3545 11.1328C13.3545 11.1938 13.3545 11.2183 13.3545 11.2549L13.4521 11.2549C13.7451 10.4248 14.5996 9.66797 15.9424 9.66797C17.5659 9.66797 19.0552 10.8643 19.0552 13.0249C19.0552 15.332 17.5903 16.687 15.5518 16.687ZM15.4785 15.2954C16.687 15.2954 17.4683 14.4409 17.4683 13.0981C17.4683 11.8408 16.6626 10.9741 15.4785 10.9741C14.3066 10.9741 13.501 11.853 13.501 13.0859C13.501 14.3799 14.3188 15.2954 15.4785 15.2954Z" fill="#5ac8f5"/>
 </g>
</svg>
