<?xml version="1.0" encoding="UTF-8"?>
<!--Generator: Apple Native CoreSVG 175.5-->
<!DOCTYPE svg
PUBLIC "-//W3C//DTD SVG 1.1//EN"
       "http://www.w3.org/Graphics/SVG/1.1/DTD/svg11.dtd">
<svg version="1.1" xmlns="http://www.w3.org/2000/svg" xmlns:xlink="http://www.w3.org/1999/xlink" width="22.4731" height="22.4976">
 <g>
  <rect height="22.4976" opacity="0" width="22.4731" x="0" y="0"/>
  <path d="M3.83301 22.4976L18.6401 22.4976C21.2036 22.4976 22.4731 21.228 22.4731 18.7134L22.4731 3.80859C22.4731 1.29395 21.2036 0.0244141 18.6401 0.0244141L3.83301 0.0244141C1.28174 0.0244141 0 1.28174 0 3.80859L0 18.7134C0 21.2402 1.28174 22.4976 3.83301 22.4976ZM5.83496 10.9985C5.83496 10.6323 6.10352 10.376 6.44531 10.376L7.00684 10.376L6.39648 6.44531C6.37207 6.32324 6.34766 6.20117 6.34766 6.05469C6.34766 5.60303 6.68945 5.32227 7.15332 5.32227C7.55615 5.32227 7.89795 5.5542 7.95898 5.99365L8.49609 10.376L9.57031 10.376L10.2783 6.15234C10.3638 5.61523 10.7544 5.32227 11.2305 5.32227C11.6943 5.32227 12.1094 5.61523 12.1826 6.14014L12.9028 10.3638L14.0015 10.3638L14.563 5.98145C14.624 5.54199 14.9658 5.31006 15.3564 5.31006C15.8081 5.31006 16.1499 5.57861 16.1499 6.01807C16.1499 6.16455 16.1255 6.26221 16.1011 6.38428L15.4785 10.3638L16.0278 10.3638C16.394 10.3638 16.6504 10.6201 16.6504 10.9863C16.6504 11.3281 16.394 11.6211 16.0278 11.6211L15.271 11.6211L14.4775 16.7114C14.4043 17.2119 14.0259 17.4927 13.5864 17.4927C13.1226 17.4927 12.7563 17.2363 12.6709 16.7236L11.8042 11.6211L10.6812 11.6211L9.83887 16.7236C9.75342 17.2363 9.38721 17.4927 8.92334 17.4927C8.47168 17.4927 8.10547 17.2119 8.03223 16.7114L7.21436 11.6333L6.44531 11.6333C6.10352 11.6333 5.83496 11.3403 5.83496 10.9985ZM8.66699 11.6089L8.95996 14.563L9.38721 11.6089ZM10.9009 10.376L11.6089 10.376L11.2427 7.91016ZM13.0859 11.6089L13.5376 14.6362L13.8672 11.6089Z" fill="#5ac8f5"/>
 </g>
</svg>
