<?xml version="1.0" encoding="UTF-8"?>
<!--Generator: Apple Native CoreSVG 175.5-->
<!DOCTYPE svg
PUBLIC "-//W3C//DTD SVG 1.1//EN"
       "http://www.w3.org/Graphics/SVG/1.1/DTD/svg11.dtd">
<svg version="1.1" xmlns="http://www.w3.org/2000/svg" xmlns:xlink="http://www.w3.org/1999/xlink" width="24.9023" height="24.9146">
 <g>
  <rect height="24.9146" opacity="0" width="24.9023" x="0" y="0"/>
  <path d="M12.4512 24.9146C19.2627 24.9146 24.9023 19.2749 24.9023 12.4634C24.9023 5.66406 19.2505 0.012207 12.439 0.012207C5.63965 0.012207 0 5.66406 0 12.4634C0 19.2749 5.65186 24.9146 12.4512 24.9146ZM12.4512 6.03027C15.9912 6.03027 18.8965 8.93555 18.8965 12.4634C18.8965 14.1724 18.2129 15.7959 16.9922 16.9922L16.3208 16.2354C17.3096 15.2222 17.8711 13.855 17.8711 12.4634C17.8711 9.50928 15.4175 7.05566 12.4512 7.05566C9.49707 7.05566 7.05566 9.50928 7.05566 12.4634C7.05566 13.855 7.60498 15.2222 8.58154 16.2354L7.91016 16.9922C6.68945 15.7959 6.03027 14.1724 6.03027 12.4634C6.03027 8.93555 8.91113 6.03027 12.4512 6.03027ZM12.4512 7.8125C15.0024 7.8125 17.1021 9.91211 17.1021 12.4634C17.1021 13.6597 16.6504 14.7827 15.8203 15.6616L15.1245 14.8804C15.7349 14.2212 16.0645 13.3545 16.0645 12.4634C16.0645 10.4736 14.4287 8.83789 12.4512 8.83789C10.4736 8.83789 8.8501 10.4736 8.8501 12.4634C8.8501 13.3545 9.16748 14.209 9.76562 14.8926L9.08203 15.6616C8.25195 14.7949 7.8125 13.6597 7.8125 12.4634C7.8125 9.91211 9.8999 7.8125 12.4512 7.8125ZM12.4512 9.59473C14.0137 9.59473 15.3198 10.9009 15.3198 12.4634C15.3198 13.1592 15.0635 13.7939 14.624 14.3066L13.916 13.501C14.1479 13.208 14.2822 12.8296 14.2822 12.4634C14.2822 11.4624 13.4521 10.6323 12.4512 10.6323C11.4502 10.6323 10.6323 11.4624 10.6323 12.4634C10.6323 12.8296 10.7544 13.208 10.9863 13.5132L10.2783 14.3188C9.83887 13.7939 9.59473 13.1714 9.59473 12.4634C9.59473 10.9009 10.8887 9.59473 12.4512 9.59473ZM8.77686 18.7988C8.38623 18.7988 8.1665 18.335 8.44727 18.0298L12.085 13.9282C12.2925 13.7207 12.6465 13.7207 12.8296 13.9282L16.4551 18.0298C16.7358 18.335 16.5405 18.7988 16.1255 18.7988Z" fill="#5ac8f5"/>
 </g>
</svg>
