<?xml version="1.0" encoding="UTF-8"?>
<!--Generator: Apple Native CoreSVG 175.5-->
<!DOCTYPE svg
PUBLIC "-//W3C//DTD SVG 1.1//EN"
       "http://www.w3.org/Graphics/SVG/1.1/DTD/svg11.dtd">
<svg version="1.1" xmlns="http://www.w3.org/2000/svg" xmlns:xlink="http://www.w3.org/1999/xlink" width="24.9023" height="24.9146">
 <g>
  <rect height="24.9146" opacity="0" width="24.9023" x="0" y="0"/>
  <path d="M12.4512 24.9023C19.2627 24.9023 24.9023 19.2505 24.9023 12.4512C24.9023 5.63965 19.2505 0 12.439 0C5.63965 0 0 5.63965 0 12.4512C0 19.2505 5.65186 24.9023 12.4512 24.9023ZM12.4512 22.8271C6.68945 22.8271 2.0874 18.2129 2.0874 12.4512C2.0874 6.68945 6.67725 2.0752 12.439 2.0752C18.2007 2.0752 22.8271 6.68945 22.8271 12.4512C22.8271 18.2129 18.2129 22.8271 12.4512 22.8271Z" fill="#5ac8f5" fill-opacity="0.5"/>
  <path d="M7.80029 19.0186C8.12988 19.0186 8.34961 18.7622 8.34961 18.457L8.34961 14.856C8.58154 14.7583 9.05762 14.6118 9.81445 14.6118C11.9873 14.6118 13.3545 15.686 15.4663 15.686C16.394 15.686 16.7725 15.5884 17.2363 15.3687C17.749 15.1367 17.981 14.7827 17.981 14.2334L17.981 8.21533C17.981 7.86133 17.7979 7.60498 17.2974 7.60498C16.9434 7.60498 16.4062 7.86133 15.4053 7.86133C13.3301 7.86133 11.9507 6.7749 9.75342 6.7749C8.80127 6.7749 8.42285 6.88477 7.9834 7.08008C7.48291 7.2998 7.22656 7.69043 7.22656 8.21533L7.22656 18.457C7.22656 18.75 7.49512 19.0186 7.80029 19.0186ZM8.1665 12.0728L8.1665 10.0342C8.26416 9.83887 8.76465 9.55811 9.70459 9.55811C9.8999 9.55811 10.1562 9.57031 10.3638 9.59473L10.3638 7.76367C11.1816 7.83691 11.9019 8.06885 12.6343 8.30078L12.6343 10.1318C13.3789 10.3638 14.0869 10.5469 14.9048 10.6201L14.9048 8.78906C15.0757 8.80127 15.2588 8.80127 15.4541 8.80127C16.1011 8.80127 16.6504 8.74023 17.0654 8.61816L17.0654 10.4492C16.748 10.5347 16.1621 10.6445 15.4541 10.6445C15.2466 10.6445 15.0635 10.6323 14.9048 10.6201L14.9048 12.6709C15.0635 12.6831 15.2344 12.6953 15.4541 12.6953C16.1011 12.6953 16.6504 12.6221 17.0654 12.5L17.0654 14.2456C16.9678 14.4531 16.4673 14.7339 15.5273 14.7339C15.2954 14.7339 15.0879 14.7217 14.9048 14.6851L14.9048 12.6709C14.0869 12.5854 13.4033 12.4268 12.6343 12.1704L12.6343 14.1479C11.9385 13.9282 11.2061 13.7207 10.3638 13.6597L10.3638 11.6455C10.1562 11.6211 9.99756 11.5967 9.70459 11.5967C8.76465 11.5967 8.26416 11.8774 8.1665 12.0728ZM10.3638 11.6455C11.2061 11.731 11.8286 11.9385 12.6343 12.1704L12.6343 10.1318C11.8774 9.8999 11.2061 9.68018 10.3638 9.59473Z" fill="#5ac8f5"/>
 </g>
</svg>
