<?xml version="1.0" encoding="UTF-8"?>
<!--Generator: Apple Native CoreSVG 175.5-->
<!DOCTYPE svg
PUBLIC "-//W3C//DTD SVG 1.1//EN"
       "http://www.w3.org/Graphics/SVG/1.1/DTD/svg11.dtd">
<svg version="1.1" xmlns="http://www.w3.org/2000/svg" xmlns:xlink="http://www.w3.org/1999/xlink" width="29.9805" height="24.0601">
 <g>
  <rect height="24.0601" opacity="0" width="29.9805" x="0" y="0"/>
  <path d="M3.83301 23.2788L26.1475 23.2788C28.6865 23.2788 29.9805 22.0093 29.9805 19.4946L29.9805 6.71387C29.9805 4.19922 28.6865 2.94189 26.1475 2.94189L22.6562 2.94189C21.6919 2.94189 21.3989 2.74658 20.8496 2.13623L19.873 1.0376C19.2627 0.366211 18.6401 0 17.3828 0L12.5122 0C11.2549 0 10.6323 0.366211 10.022 1.0376L9.04541 2.13623C8.49609 2.73438 8.19092 2.94189 7.23877 2.94189L3.83301 2.94189C1.28174 2.94189 0 4.19922 0 6.71387L0 19.4946C0 22.0093 1.28174 23.2788 3.83301 23.2788ZM6.51855 12.5122L8.47168 9.76562C8.82568 9.27734 9.38721 9.31396 9.70459 9.76562L11.6943 12.5122C12.0117 12.9517 11.8774 13.4888 11.3037 13.4888L10.022 13.4888C10.5713 15.6616 12.5854 17.2974 15.0146 17.2974C16.1987 17.2974 17.0776 16.9189 17.9565 16.2231C18.4448 15.8691 18.9941 15.7959 19.4214 16.2598C19.8608 16.7114 19.7144 17.3584 19.1284 17.8101C18.0664 18.689 16.5405 19.2139 15.0146 19.2139C11.5356 19.2139 8.78906 16.8823 8.19092 13.4888L6.89697 13.4888C6.32324 13.4888 6.21338 12.9517 6.51855 12.5122ZM10.5835 8.49609C10.144 8.04443 10.2905 7.40967 10.8765 6.95801C11.9385 6.0791 13.4644 5.54199 14.9902 5.54199C18.4692 5.54199 21.2158 7.87354 21.814 11.2671L23.0347 11.2671C23.6084 11.2671 23.7183 11.8042 23.4131 12.2437L21.46 15.0024C21.106 15.4907 20.5444 15.4541 20.2148 15.0024L18.2373 12.2437C17.9199 11.8164 18.0542 11.2671 18.6157 11.2671L19.9829 11.2671C19.4336 9.10645 17.4194 7.4707 14.9902 7.4707C13.8062 7.4707 12.915 7.82471 12.0483 8.53271C11.5601 8.89893 11.0229 8.95996 10.5835 8.49609Z" fill="#5ac8f5"/>
 </g>
</svg>
