<?xml version="1.0" encoding="UTF-8"?>
<!--Generator: Apple Native CoreSVG 175.5-->
<!DOCTYPE svg
PUBLIC "-//W3C//DTD SVG 1.1//EN"
       "http://www.w3.org/Graphics/SVG/1.1/DTD/svg11.dtd">
<svg version="1.1" xmlns="http://www.w3.org/2000/svg" xmlns:xlink="http://www.w3.org/1999/xlink" width="26.1597" height="21.2524">
 <g>
  <rect height="21.2524" opacity="0" width="26.1597" x="0" y="0"/>
  <path d="M3.83301 18.8599L22.3267 18.8599C24.8901 18.8599 26.1597 17.5903 26.1597 15.0757L26.1597 6.20117C26.1597 3.68652 24.8901 2.41699 22.3267 2.41699L3.83301 2.41699C1.28174 2.41699 0 3.67432 0 6.20117L0 15.0757C0 17.6025 1.28174 18.8599 3.83301 18.8599ZM4.21143 3.22266L6.17676 3.22266L6.17676 1.00098C6.17676 0.415039 5.77393 0.0244141 5.18799 0.0244141C4.60205 0.0244141 4.21143 0.415039 4.21143 1.00098ZM8.1543 3.22266L10.1196 3.22266L10.1196 1.00098C10.1196 0.415039 9.7168 0.0244141 9.13086 0.0244141C8.54492 0.0244141 8.1543 0.415039 8.1543 1.00098ZM12.0972 3.22266L14.0625 3.22266L14.0625 1.00098C14.0625 0.415039 13.6597 0.0244141 13.0737 0.0244141C12.4878 0.0244141 12.0972 0.415039 12.0972 1.00098ZM16.04 3.22266L18.0054 3.22266L18.0054 1.00098C18.0054 0.415039 17.6147 0.0244141 17.0288 0.0244141C16.4429 0.0244141 16.04 0.415039 16.04 1.00098ZM19.9829 3.22266L21.9482 3.22266L21.9482 1.00098C21.9482 0.415039 21.5576 0.0244141 20.9717 0.0244141C20.3857 0.0244141 19.9829 0.415039 19.9829 1.00098ZM4.21143 18.0786L4.21143 20.2637C4.21143 20.8496 4.60205 21.2524 5.18799 21.2524C5.77393 21.2524 6.17676 20.8496 6.17676 20.2637L6.17676 18.0786ZM8.1543 18.0786L8.1543 20.2637C8.1543 20.8496 8.54492 21.2524 9.13086 21.2524C9.7168 21.2524 10.1196 20.8496 10.1196 20.2637L10.1196 18.0786ZM12.0972 18.0786L12.0972 20.2637C12.0972 20.8496 12.4878 21.2524 13.0737 21.2524C13.6597 21.2524 14.0625 20.8496 14.0625 20.2637L14.0625 18.0786ZM16.04 18.0786L16.04 20.2637C16.04 20.8496 16.4429 21.2524 17.0288 21.2524C17.6147 21.2524 18.0054 20.8496 18.0054 20.2637L18.0054 18.0786ZM19.9829 18.0786L19.9829 20.2637C19.9829 20.8496 20.3857 21.2524 20.9717 21.2524C21.5576 21.2524 21.9482 20.8496 21.9482 20.2637L21.9482 18.0786Z" fill="#5ac8f5"/>
 </g>
</svg>
