<?xml version="1.0" encoding="UTF-8"?>
<!--Generator: Apple Native CoreSVG 175.5-->
<!DOCTYPE svg
PUBLIC "-//W3C//DTD SVG 1.1//EN"
       "http://www.w3.org/Graphics/SVG/1.1/DTD/svg11.dtd">
<svg version="1.1" xmlns="http://www.w3.org/2000/svg" xmlns:xlink="http://www.w3.org/1999/xlink" width="20.8359" height="26.1353">
 <g>
  <rect height="26.1353" opacity="0" width="20.8359" x="0" y="0"/>
  <path d="M7.56531 26.1353L13.205 26.1353C14.0472 26.1353 14.5721 25.769 14.7919 24.9756L15.1947 23.6694C15.3656 23.0713 15.6219 22.6929 16.037 22.3755C16.0858 22.3389 16.1346 22.3022 16.1835 22.2534L14.4379 20.52C14.035 20.6055 13.5834 20.6543 13.0951 20.6543L6.77185 20.6543C4.98962 20.6543 3.92761 19.5557 3.92761 17.749L3.92761 10.4126C3.92761 10.2783 3.92761 10.144 3.93982 10.022L2.15759 8.25195C2.15759 8.38623 2.14539 8.53271 2.14539 8.6792L2.14539 18.0054C2.14539 19.8975 2.89001 21.2891 4.26941 22.0459C4.9408 22.3999 5.34363 22.8516 5.57556 23.6694L5.96619 24.9756C6.19812 25.7568 6.74744 26.1353 7.56531 26.1353ZM7.56531 0C6.74744 0 6.19812 0.378418 5.96619 1.15967L5.57556 2.47803C5.38025 3.125 5.02625 3.55225 4.61121 3.88184L6.3446 5.61523C6.67419 5.52979 7.04041 5.48096 7.43103 5.48096L13.9984 5.48096C15.7806 5.48096 16.8427 6.57959 16.8427 8.39844L16.8427 15.5029C16.8427 15.6982 16.8427 15.8936 16.8427 16.0889L18.6005 17.8589C18.6127 17.5781 18.6249 17.2974 18.6249 17.0044L18.6249 8.12988C18.6249 6.23779 17.8802 4.8584 16.5009 4.08936C15.8295 3.73535 15.4266 3.28369 15.1947 2.47803L14.7919 1.15967C14.5721 0.390625 14.035 0 13.205 0ZM18.3563 12.207L18.7958 12.207C19.4305 12.207 19.8456 11.7798 19.8456 11.084L19.8456 9.43604C19.8456 8.74023 19.4305 8.31299 18.7958 8.31299L18.3563 8.31299Z" fill="#5ac8f5" fill-opacity="0.5"/>
  <path d="M19.2352 23.2056C19.6014 23.584 20.1996 23.584 20.5658 23.2056C20.9198 22.8394 20.932 22.2534 20.5658 21.875L1.60828 2.92969C1.24207 2.56348 0.643921 2.55127 0.265503 2.92969C-0.088501 3.28369-0.088501 3.90625 0.265503 4.26025Z" fill="#5ac8f5"/>
 </g>
</svg>
