<?xml version="1.0" encoding="UTF-8"?>
<!--Generator: Apple Native CoreSVG 175.5-->
<!DOCTYPE svg
PUBLIC "-//W3C//DTD SVG 1.1//EN"
       "http://www.w3.org/Graphics/SVG/1.1/DTD/svg11.dtd">
<svg version="1.1" xmlns="http://www.w3.org/2000/svg" xmlns:xlink="http://www.w3.org/1999/xlink" width="35.4614" height="26.8677">
 <g>
  <rect height="26.8677" opacity="0" width="35.4614" x="0" y="0"/>
  <path d="M10.8154 17.1387L10.8154 18.103C10.8154 19.8486 11.4136 20.4956 12.5244 21.1304L22.1313 26.5747C22.8149 26.9653 23.4619 26.9653 24.1577 26.5747L33.7524 21.1304C34.8755 20.4956 35.4614 19.8486 35.4614 18.103L35.4614 8.43506C35.4614 7.16553 34.9976 6.37207 33.9722 5.78613L25.3296 0.878906C23.8525 0.0244141 22.4243 0.0244141 20.9473 0.878906L12.3169 5.78613C11.2793 6.37207 10.8154 7.16553 10.8154 8.43506L10.8154 12.5L12.6709 12.5L12.6709 8.82568L22.1802 14.2578L22.1802 24.3896L13.623 19.519C12.915 19.1284 12.6709 18.7134 12.6709 18.042L12.6709 17.1387ZM32.666 19.519L24.0967 24.3896L24.0967 14.2578L33.606 8.82568L33.606 18.042C33.606 18.7134 33.3618 19.1284 32.666 19.519ZM23.1445 12.5488L13.7207 7.21436L17.4927 5.05371L26.9165 10.4126ZM28.8818 9.30176L19.4214 3.95508L21.7651 2.62451C22.7051 2.0874 23.5718 2.0752 24.5239 2.62451L32.5684 7.21436ZM15.4419 14.8193C15.4419 14.1846 14.9902 13.7329 14.3677 13.7329L6.16455 13.7329L2.40479 13.855L2.40479 14.5386L5.7373 11.5112L7.42188 10.022C7.69043 9.79004 7.77588 9.48486 7.77588 9.19189C7.77588 8.58154 7.31201 8.14209 6.70166 8.14209C6.4209 8.14209 6.16455 8.23975 5.92041 8.47168L0.378418 14.0015C0.134277 14.2334 0 14.5142 0 14.8193C0 15.1245 0.134277 15.4053 0.378418 15.6372L5.88379 21.1304C6.15234 21.3989 6.4209 21.4966 6.70166 21.4966C7.31201 21.4966 7.77588 21.0571 7.77588 20.4468C7.77588 20.1538 7.70264 19.8486 7.42188 19.6167L5.7373 18.1274L2.40479 15.1001L2.40479 15.7837L6.16455 15.9058L14.3677 15.9058C14.9902 15.9058 15.4419 15.4541 15.4419 14.8193Z" fill="#5ac8f5"/>
 </g>
</svg>
