<?xml version="1.0" encoding="UTF-8"?>
<!--Generator: Apple Native CoreSVG 175.5-->
<!DOCTYPE svg
PUBLIC "-//W3C//DTD SVG 1.1//EN"
       "http://www.w3.org/Graphics/SVG/1.1/DTD/svg11.dtd">
<svg version="1.1" xmlns="http://www.w3.org/2000/svg" xmlns:xlink="http://www.w3.org/1999/xlink" width="16.6748" height="22.2046">
 <g>
  <rect height="22.2046" opacity="0" width="16.6748" x="0" y="0"/>
  <path d="M1.0498 22.1558L15.6128 22.1558C16.2231 22.1558 16.6748 21.7529 16.6748 21.1426C16.6748 20.52 16.2231 20.1416 15.6128 20.1416L3.86963 20.1416L3.86963 20.0806C5.61523 19.4946 6.88477 17.3584 6.88477 14.7095C6.88477 11.6699 5.59082 9.92432 5.59082 6.83594C5.59082 4.00391 7.55615 2.0752 10.9619 2.0752C13.0371 2.0752 13.9771 2.63672 14.6484 2.63672C15.271 2.63672 15.564 2.27051 15.564 1.7334C15.564 1.2207 15.2588 0.866699 14.5752 0.585938C13.501 0.158691 12.2437 0 10.7788 0C6.09131 0 3.19824 2.73438 3.19824 7.00684C3.19824 9.75342 4.58984 12.5244 4.58984 14.8071C4.58984 17.5659 2.91748 19.3726 0.964355 19.9219C0.292969 20.1294 0 20.4834 0 21.106C0 21.7163 0.439453 22.1558 1.0498 22.1558ZM0.183105 8.82568C0.183105 9.32617 0.585938 9.7168 1.07422 9.7168L12.9761 9.7168C13.4644 9.7168 13.8672 9.32617 13.8672 8.82568C13.8672 8.3252 13.4644 7.93457 12.9761 7.93457L1.07422 7.93457C0.585938 7.93457 0.183105 8.3252 0.183105 8.82568ZM0.183105 13.4766C0.183105 13.9771 0.585938 14.3677 1.07422 14.3677L12.9761 14.3677C13.4644 14.3677 13.8672 13.9771 13.8672 13.4766C13.8672 12.9761 13.4644 12.5854 12.9761 12.5854L1.07422 12.5854C0.585938 12.5854 0.183105 12.9761 0.183105 13.4766Z" fill="#5ac8f5"/>
 </g>
</svg>
