<?xml version="1.0" encoding="UTF-8"?>
<!--Generator: Apple Native CoreSVG 175.5-->
<!DOCTYPE svg
PUBLIC "-//W3C//DTD SVG 1.1//EN"
       "http://www.w3.org/Graphics/SVG/1.1/DTD/svg11.dtd">
<svg version="1.1" xmlns="http://www.w3.org/2000/svg" xmlns:xlink="http://www.w3.org/1999/xlink" width="24.9023" height="24.9146">
 <g>
  <rect height="24.9146" opacity="0" width="24.9023" x="0" y="0"/>
  <path d="M12.4512 24.9023C19.2627 24.9023 24.9023 19.2505 24.9023 12.4512C24.9023 5.63965 19.2505 0 12.439 0C5.63965 0 0 5.63965 0 12.4512C0 19.2505 5.65186 24.9023 12.4512 24.9023ZM12.4512 22.8271C6.68945 22.8271 2.0874 18.2129 2.0874 12.4512C2.0874 6.68945 6.67725 2.0752 12.439 2.0752C18.2007 2.0752 22.8271 6.68945 22.8271 12.4512C22.8271 18.2129 18.2129 22.8271 12.4512 22.8271ZM9.77783 20.1538L15.1123 20.1538C15.979 20.1538 16.5894 19.751 16.8579 19.0552L16.8579 18.9819L15.9058 18.0298L15.9058 18.2373C15.8325 18.7134 15.5151 18.9575 14.9536 18.9575L9.92432 18.9575C9.30176 18.9575 8.97217 18.6401 8.97217 18.0542L8.97217 11.084L7.78809 9.8999L7.78809 18.2251C7.78809 19.3848 8.58154 20.1538 9.77783 20.1538ZM10.9253 18.4326L13.9771 18.4326C14.1846 18.4326 14.3188 18.2983 14.3188 18.0908C14.3188 17.8711 14.1846 17.7246 13.9771 17.7246L10.9253 17.7246C10.7178 17.7246 10.5713 17.8711 10.5713 18.0908C10.5713 18.2983 10.7178 18.4326 10.9253 18.4326ZM17.1021 15.0146L17.1021 6.66504C17.1021 5.50537 16.3086 4.74854 15.1123 4.74854L9.77783 4.74854C8.88672 4.74854 8.26416 5.16357 8.00781 5.85938L8.00781 5.9082L8.98438 6.88477L8.98438 6.70166C9.021 6.20117 9.35059 5.93262 9.92432 5.93262L14.9536 5.93262C15.5884 5.93262 15.918 6.25 15.918 6.83594L15.918 13.8306ZM17.8833 18.6646C18.0908 18.8843 18.4448 18.8843 18.6646 18.6646C18.8843 18.4448 18.8843 18.1152 18.6646 17.8833L6.98242 6.21338C6.7627 5.99365 6.40869 5.99365 6.18896 6.21338C5.98145 6.4209 5.98145 6.78711 6.18896 6.99463ZM11.5479 7.56836L13.3179 7.56836C13.6108 7.56836 13.8428 7.33643 13.8428 7.04346C13.8428 6.7627 13.6108 6.53076 13.3179 6.53076L11.5479 6.53076C11.2549 6.53076 11.0229 6.7627 11.0229 7.04346C11.0229 7.33643 11.2549 7.56836 11.5479 7.56836Z" fill="#5ac8f5"/>
 </g>
</svg>
