<?xml version="1.0" encoding="UTF-8"?>
<!--Generator: Apple Native CoreSVG 175.5-->
<!DOCTYPE svg
PUBLIC "-//W3C//DTD SVG 1.1//EN"
       "http://www.w3.org/Graphics/SVG/1.1/DTD/svg11.dtd">
<svg version="1.1" xmlns="http://www.w3.org/2000/svg" xmlns:xlink="http://www.w3.org/1999/xlink" width="23.2422" height="22.4976">
 <g>
  <rect height="22.4976" opacity="0" width="23.2422" x="0" y="0"/>
  <path d="M3.83301 22.4976L19.4092 22.4976C21.9604 22.4976 23.2422 21.228 23.2422 18.7134L23.2422 3.80859C23.2422 1.29395 21.9604 0.0244141 19.4092 0.0244141L3.83301 0.0244141C1.28174 0.0244141 0 1.28174 0 3.80859L0 18.7134C0 21.2402 1.28174 22.4976 3.83301 22.4976ZM7.31201 16.5039C6.26221 16.5039 5.40771 15.6494 5.40771 14.5996C5.40771 13.562 6.26221 12.7075 7.31201 12.7075C8.34961 12.7075 9.19189 13.562 9.19189 14.5996C9.19189 15.6494 8.34961 16.5039 7.31201 16.5039ZM15.9424 16.5039C14.8926 16.5039 14.0503 15.6494 14.0503 14.5996C14.0503 13.562 14.8926 12.7075 15.9424 12.7075C16.9678 12.7075 17.8345 13.562 17.8345 14.5996C17.8345 15.6494 16.9678 16.5039 15.9424 16.5039ZM11.6211 9.79004C10.5713 9.79004 9.7168 8.93555 9.7168 7.88574C9.7168 6.84814 10.5713 5.99365 11.6211 5.99365C12.6587 5.99365 13.5132 6.84814 13.5132 7.88574C13.5132 8.93555 12.6587 9.79004 11.6211 9.79004Z" fill="#5ac8f5"/>
 </g>
</svg>
