<?xml version="1.0" encoding="UTF-8"?>
<!--Generator: Apple Native CoreSVG 175.5-->
<!DOCTYPE svg
PUBLIC "-//W3C//DTD SVG 1.1//EN"
       "http://www.w3.org/Graphics/SVG/1.1/DTD/svg11.dtd">
<svg version="1.1" xmlns="http://www.w3.org/2000/svg" xmlns:xlink="http://www.w3.org/1999/xlink" width="20.5322" height="26.1841">
 <g>
  <rect height="26.1841" opacity="0" width="20.5322" x="0" y="0"/>
  <path d="M0 22.3633C0 24.9146 1.25732 26.1841 3.78418 26.1841L16.748 26.1841C19.2749 26.1841 20.5322 24.9023 20.5322 22.3633L20.5322 8.6792C20.5322 7.4707 20.3125 6.87256 19.6289 6.17676L14.4409 1.00098C13.7329 0.280762 13.0371 0.012207 11.9385 0.012207L3.78418 0.012207C1.26953 0.012207 0 1.30615 0 3.84521ZM1.96533 22.3267L1.96533 3.88184C1.96533 2.67334 2.6123 1.97754 3.88184 1.97754L11.8652 1.97754C12.561 1.97754 13.0249 2.16064 13.4644 2.62451L18.0054 7.21436C18.4326 7.6416 18.5669 8.03223 18.5669 8.82568L18.5669 22.3267C18.5669 23.5474 17.9199 24.2188 16.6504 24.2188L3.86963 24.2188C2.6123 24.2188 1.96533 23.5474 1.96533 22.3267ZM4.44336 20.459C4.44336 21.5088 5.09033 22.1558 6.12793 22.1558L7.78809 22.1558L7.78809 16.1011C7.78809 15.979 7.71484 15.918 7.59277 15.918L4.44336 15.918ZM4.44336 14.563L8.41064 14.563C8.87451 14.563 9.14307 14.8438 9.14307 15.2954L9.14307 22.1558L11.4868 22.1558L11.4868 11.3281L6.12793 11.3281C5.09033 11.3281 4.44336 11.9751 4.44336 13.0371ZM12.8418 22.1558L14.4165 22.1558C15.4541 22.1558 16.1133 21.5088 16.1133 20.459L16.1133 13.0371C16.1133 11.9751 15.4541 11.3281 14.4165 11.3281L12.8418 11.3281Z" fill="#5ac8f5"/>
 </g>
</svg>
