<?xml version="1.0" encoding="UTF-8"?>
<!--Generator: Apple Native CoreSVG 175.5-->
<!DOCTYPE svg
PUBLIC "-//W3C//DTD SVG 1.1//EN"
       "http://www.w3.org/Graphics/SVG/1.1/DTD/svg11.dtd">
<svg version="1.1" xmlns="http://www.w3.org/2000/svg" xmlns:xlink="http://www.w3.org/1999/xlink" width="21.6797" height="23.9624">
 <g>
  <rect height="23.9624" opacity="0" width="21.6797" x="0" y="0"/>
  <path d="M0.927734 23.9624C1.44043 23.9624 1.85547 23.5596 1.85547 23.0469L1.85547 16.2598C2.16064 16.1255 3.30811 15.686 5.10254 15.686C9.61914 15.686 12.4512 17.8955 16.748 17.8955C18.6523 17.8955 19.3604 17.688 20.2881 17.2729C21.1304 16.8945 21.6797 16.2598 21.6797 15.1367L21.6797 2.74658C21.6797 2.0874 21.1182 1.70898 20.4102 1.70898C19.812 1.70898 18.689 2.22168 16.5894 2.22168C12.2925 2.22168 9.47266 0.012207 4.94385 0.012207C3.03955 0.012207 2.31934 0.219727 1.3916 0.634766C0.549316 1.01318 0 1.64795 0 2.75879L0 23.0469C0 23.5474 0.427246 23.9624 0.927734 23.9624ZM1.85547 10.6812L1.85547 6.54297C2.02637 6.14014 3.03955 5.57861 4.94385 5.57861C5.33447 5.57861 5.87158 5.60303 6.29883 5.65186L6.29883 1.92871C7.94678 2.09961 9.39941 2.57568 10.8887 3.01514L10.8887 6.73828C12.4023 7.20215 13.8184 7.59277 15.4663 7.73926L15.4663 4.01611C15.8325 4.05273 16.1987 4.06494 16.5894 4.06494C17.9199 4.06494 19.0186 3.90625 19.8364 3.67432L19.8364 7.39746C19.2261 7.56836 18.0542 7.78809 16.5894 7.78809C16.2109 7.78809 15.8203 7.76367 15.4663 7.73926L15.4663 11.8774C15.8203 11.9141 16.1621 11.9263 16.5894 11.9263C17.9199 11.9263 19.0186 11.7676 19.8364 11.5356L19.8364 15.0879C19.6655 15.4907 18.6523 16.0522 16.748 16.0522C16.3086 16.0522 15.8813 16.0278 15.4663 15.979L15.4663 11.8774C13.8184 11.6943 12.4512 11.3892 10.8887 10.8765L10.8887 14.8682C9.47266 14.4409 8.00781 14.0259 6.29883 13.8794L6.29883 9.79004C5.83496 9.74121 5.51758 9.7168 4.94385 9.7168C3.03955 9.7168 2.02637 10.2783 1.85547 10.6812ZM6.29883 9.79004C7.9834 9.97314 9.26514 10.4004 10.8887 10.8765L10.8887 6.73828C9.36279 6.28662 7.99561 5.82275 6.29883 5.65186Z" fill="#5ac8f5"/>
 </g>
</svg>
