<?xml version="1.0" encoding="UTF-8"?>
<!--Generator: Apple Native CoreSVG 175.5-->
<!DOCTYPE svg
PUBLIC "-//W3C//DTD SVG 1.1//EN"
       "http://www.w3.org/Graphics/SVG/1.1/DTD/svg11.dtd">
<svg version="1.1" xmlns="http://www.w3.org/2000/svg" xmlns:xlink="http://www.w3.org/1999/xlink" width="24.9023" height="24.9146">
 <g>
  <rect height="24.9146" opacity="0" width="24.9023" x="0" y="0"/>
  <path d="M12.4512 24.9023C19.2627 24.9023 24.9023 19.2505 24.9023 12.4512C24.9023 5.63965 19.2505 0 12.439 0C5.63965 0 0 5.63965 0 12.4512C0 19.2505 5.65186 24.9023 12.4512 24.9023ZM12.4512 22.8271C6.68945 22.8271 2.0874 18.2129 2.0874 12.4512C2.0874 6.68945 6.67725 2.0752 12.439 2.0752C18.2007 2.0752 22.8271 6.68945 22.8271 12.4512C22.8271 18.2129 18.2129 22.8271 12.4512 22.8271Z" fill="#5ac8f5" fill-opacity="0.5"/>
  <path d="M9.31396 18.042C9.94873 18.042 10.3027 17.627 10.3027 16.9556L10.3027 13.916L12.5732 13.916L14.6851 17.395C14.978 17.8711 15.2344 18.042 15.6616 18.042C16.1865 18.042 16.5527 17.7002 16.5527 17.2119C16.5527 16.9434 16.4795 16.748 16.3208 16.5039L14.4897 13.6353C15.9302 13.1592 16.8579 11.8774 16.8579 10.3638C16.8579 8.1665 15.2832 6.7749 12.8052 6.7749L9.30176 6.7749C8.6792 6.7749 8.34961 7.21436 8.34961 7.87354L8.34961 16.9556C8.34961 17.6025 8.69141 18.042 9.31396 18.042ZM10.3027 12.4878L10.3027 8.26416L12.5732 8.26416C13.9771 8.26416 14.9292 9.04541 14.9292 10.4126C14.9292 11.7432 14.0015 12.4878 12.5244 12.4878Z" fill="#5ac8f5"/>
 </g>
</svg>
