<?xml version="1.0" encoding="UTF-8"?>
<!--Generator: Apple Native CoreSVG 175.5-->
<!DOCTYPE svg
PUBLIC "-//W3C//DTD SVG 1.1//EN"
       "http://www.w3.org/Graphics/SVG/1.1/DTD/svg11.dtd">
<svg version="1.1" xmlns="http://www.w3.org/2000/svg" xmlns:xlink="http://www.w3.org/1999/xlink" width="25.2197" height="28.8452">
 <g>
  <rect height="28.8452" opacity="0" width="25.2197" x="0" y="0"/>
  <path d="M11.2793 18.5303C11.8408 18.5303 12.1094 18.1641 12.793 18.1641C13.5132 18.1641 13.6841 18.5303 14.3066 18.5303C14.9292 18.5303 15.3442 17.9321 15.7349 17.395C16.1865 16.7603 16.3452 16.1255 16.3574 16.0767C16.3208 16.0645 15.1367 15.6006 15.1367 14.2334C15.1367 13.0615 16.0645 12.5244 16.1255 12.4878C15.4907 11.5967 14.5752 11.5723 14.3066 11.5723C13.6108 11.5723 13.0493 11.9873 12.6831 11.9873C12.3047 11.9873 11.8164 11.5967 11.2061 11.5967C10.0586 11.5967 8.91113 12.5366 8.91113 14.3311C8.91113 15.4419 9.33838 16.6016 9.86328 17.3584C10.3149 17.9932 10.7056 18.5303 11.2793 18.5303ZM12.7441 11.4868C13.1592 11.4868 13.6841 11.2061 13.9893 10.8276C14.27 10.4858 14.4653 10.0098 14.4653 9.5459C14.4653 9.47266 14.4653 9.41162 14.4531 9.36279C13.9893 9.375 13.4399 9.66797 13.0981 10.0464C12.8296 10.3516 12.6099 10.8276 12.6099 11.3037C12.6099 11.377 12.6099 11.4502 12.6221 11.4624C12.6465 11.4868 12.6831 11.4868 12.7441 11.4868ZM2.46582 28.8452L4.23584 28.8452C5.22461 28.8452 5.87158 28.3813 6.14014 27.4658L6.65283 25.7324L18.5669 25.7324L19.0796 27.4658C19.3481 28.3813 20.0073 28.8452 20.9961 28.8452L22.7661 28.8452C24.353 28.8452 25.2197 27.9297 25.2197 26.2573L25.2197 2.6001C25.2197 0.927734 24.353 0.012207 22.7661 0.012207L20.9961 0.012207C20.0073 0.012207 19.3481 0.476074 19.0796 1.3916L18.5669 3.125L6.65283 3.125L6.14014 1.3916C5.87158 0.476074 5.22461 0.012207 4.23584 0.012207L2.46582 0.012207C0.878906 0.012207 0 0.927734 0 2.6001L0 26.2573C0 27.9297 0.878906 28.8452 2.46582 28.8452ZM2.58789 26.8799C2.19727 26.8799 1.96533 26.6357 1.96533 26.2451L1.96533 2.6123C1.96533 2.22168 2.19727 1.97754 2.58789 1.97754L3.93066 1.97754C4.15039 1.97754 4.3457 2.11182 4.41895 2.34375L4.99268 4.30908C5.15137 4.83398 5.45654 5.09033 6.10352 5.09033L19.1284 5.09033C19.7632 5.09033 20.0684 4.83398 20.2271 4.30908L20.8008 2.34375C20.874 2.11182 21.0693 1.97754 21.2891 1.97754L22.6318 1.97754C23.0225 1.97754 23.2544 2.22168 23.2544 2.6123L23.2544 26.2451C23.2544 26.6357 23.0225 26.8799 22.6318 26.8799L21.2891 26.8799C21.0693 26.8799 20.874 26.7456 20.8008 26.5137L20.2271 24.5361C20.0684 24.0234 19.7632 23.7671 19.1284 23.7671L6.10352 23.7671C5.45654 23.7671 5.15137 24.0234 4.99268 24.5361L4.41895 26.5137C4.3457 26.7456 4.15039 26.8799 3.93066 26.8799Z" fill="#5ac8f5"/>
 </g>
</svg>
