<?xml version="1.0" encoding="UTF-8"?>
<!--Generator: Apple Native CoreSVG 175.5-->
<!DOCTYPE svg
PUBLIC "-//W3C//DTD SVG 1.1//EN"
       "http://www.w3.org/Graphics/SVG/1.1/DTD/svg11.dtd">
<svg version="1.1" xmlns="http://www.w3.org/2000/svg" xmlns:xlink="http://www.w3.org/1999/xlink" width="22.4731" height="22.4976">
 <g>
  <rect height="22.4976" opacity="0" width="22.4731" x="0" y="0"/>
  <path d="M3.83301 22.4976L18.6401 22.4976C21.2036 22.4976 22.4731 21.228 22.4731 18.7134L22.4731 3.80859C22.4731 1.29395 21.2036 0.0244141 18.6401 0.0244141L3.83301 0.0244141C1.28174 0.0244141 0 1.28174 0 3.80859L0 18.7134C0 21.2402 1.28174 22.4976 3.83301 22.4976ZM3.85742 20.5322C2.63672 20.5322 1.96533 19.8853 1.96533 18.6157L1.96533 3.90625C1.96533 2.63672 2.63672 1.98975 3.85742 1.98975L18.6157 1.98975C19.8242 1.98975 20.5078 2.63672 20.5078 3.90625L20.5078 18.6157C20.5078 19.8853 19.8242 20.5322 18.6157 20.5322Z" fill="#5ac8f5" fill-opacity="0.5"/>
  <path d="M6.33545 11.2671C6.33545 14.5996 7.9834 16.7725 10.5835 17.1021L10.5835 18.0786C10.5835 18.4448 10.8521 18.689 11.1938 18.689C11.5356 18.689 11.792 18.4448 11.792 18.0786L11.792 17.1143C13.6597 16.9678 15.0024 15.9424 15.5273 14.4775C15.6006 14.2822 15.6494 14.0747 15.6494 13.855C15.6494 13.4155 15.3564 13.1104 14.9048 13.1104C14.4897 13.1104 14.2456 13.3423 14.1113 13.7573C13.8428 14.7583 12.9639 15.4785 11.792 15.6372L11.792 6.93359C12.8906 7.1167 13.7573 7.87354 14.0259 8.83789C14.1724 9.30176 14.3921 9.47266 14.8193 9.47266C15.271 9.47266 15.564 9.17969 15.564 8.72803C15.564 8.52051 15.5151 8.31299 15.4419 8.11768C14.917 6.65283 13.5254 5.61523 11.792 5.44434L11.792 4.49219C11.792 4.12598 11.5356 3.89404 11.1938 3.89404C10.8398 3.89404 10.5835 4.12598 10.5835 4.49219L10.5835 5.45654C7.99561 5.78613 6.33545 7.9834 6.33545 11.2671ZM7.97119 11.2671C7.97119 8.93555 8.97217 7.31201 10.5835 6.97021L10.5835 15.6006C8.95996 15.2466 7.97119 13.6353 7.97119 11.2671Z" fill="#5ac8f5"/>
 </g>
</svg>
