<?xml version="1.0" encoding="UTF-8"?>
<!--Generator: Apple Native CoreSVG 175.5-->
<!DOCTYPE svg
PUBLIC "-//W3C//DTD SVG 1.1//EN"
       "http://www.w3.org/Graphics/SVG/1.1/DTD/svg11.dtd">
<svg version="1.1" xmlns="http://www.w3.org/2000/svg" xmlns:xlink="http://www.w3.org/1999/xlink" width="22.4731" height="22.4976">
 <g>
  <rect height="22.4976" opacity="0" width="22.4731" x="0" y="0"/>
  <path d="M3.83301 22.4976L18.6401 22.4976C21.2036 22.4976 22.4731 21.228 22.4731 18.7134L22.4731 3.80859C22.4731 1.29395 21.2036 0.0244141 18.6401 0.0244141L3.83301 0.0244141C1.28174 0.0244141 0 1.28174 0 3.80859L0 18.7134C0 21.2402 1.28174 22.4976 3.83301 22.4976ZM7.20215 16.6748C5.49316 16.6748 4.1626 15.625 3.8208 14.4653C3.78418 14.3066 3.75977 14.1724 3.75977 14.0015C3.75977 13.562 4.07715 13.2446 4.49219 13.2446C4.84619 13.2446 5.05371 13.4399 5.2124 13.8428C5.5542 14.7217 6.22559 15.21 7.22656 15.21C8.42285 15.21 9.26514 14.4775 9.26514 13.501C9.26514 12.4756 8.49609 11.8042 7.31201 11.8042L6.56738 11.8042C6.16455 11.8042 5.88379 11.4868 5.88379 11.084C5.88379 10.6201 6.16455 10.3271 6.56738 10.3271L7.25098 10.3271C8.25195 10.3271 8.94775 9.66797 8.94775 8.75244C8.94775 7.87354 8.25195 7.27539 7.26318 7.27539C6.27441 7.27539 5.67627 7.76367 5.39551 8.64258C5.27344 9.04541 5.06592 9.24072 4.6875 9.24072C4.26025 9.24072 3.96729 8.92334 3.96729 8.47168C3.96729 8.31299 3.96729 8.17871 4.00391 8.02002C4.3335 6.78711 5.59082 5.81055 7.2998 5.81055C9.19189 5.81055 10.5103 6.93359 10.5103 8.54492C10.5103 9.729 9.69238 10.7788 8.64258 10.9497L8.64258 11.0229C9.91211 11.1572 10.8521 12.2314 10.8521 13.5742C10.8521 15.3809 9.35059 16.6748 7.20215 16.6748ZM14.0747 16.5283C13.5986 16.5283 13.2202 16.1865 13.2202 15.7104C13.2202 15.4663 13.2568 15.3198 13.3667 15.1245L17.2607 7.58057L17.2607 7.48291L12.8418 7.48291C12.4146 7.48291 12.1216 7.20215 12.1216 6.78711C12.1216 6.35986 12.4146 6.06689 12.8418 6.06689L17.9199 6.06689C18.6035 6.06689 19.043 6.55518 19.043 7.16553C19.043 7.43408 18.9941 7.66602 18.811 8.06885L14.8804 15.9058C14.6606 16.3452 14.4165 16.5283 14.0747 16.5283Z" fill="#5ac8f5"/>
 </g>
</svg>
