<?xml version="1.0" encoding="UTF-8"?>
<!--Generator: Apple Native CoreSVG 175.5-->
<!DOCTYPE svg
PUBLIC "-//W3C//DTD SVG 1.1//EN"
       "http://www.w3.org/Graphics/SVG/1.1/DTD/svg11.dtd">
<svg version="1.1" xmlns="http://www.w3.org/2000/svg" xmlns:xlink="http://www.w3.org/1999/xlink" width="35.1685" height="22.229">
 <g>
  <rect height="22.229" opacity="0" width="35.1685" x="0" y="0"/>
  <path d="M13.269 22.2168L25.1587 22.2168C26.77 22.2168 27.7344 21.3013 27.7344 19.7021L27.7344 17.4805C27.7344 17.4194 27.771 17.395 27.8198 17.395L29.2725 17.395C29.3335 17.395 29.3579 17.4194 29.3579 17.4805L29.3579 18.8477C29.3579 20.2271 30.2734 21.0693 31.7627 21.0693L32.7759 21.0693C34.2529 21.0693 35.1685 20.2393 35.1685 18.8477L35.1685 10.0342C35.1685 8.64258 34.2529 7.8125 32.7759 7.8125L31.7627 7.8125C30.2734 7.8125 29.3579 8.65479 29.3579 10.0342L29.3579 11.1694C29.3579 11.2183 29.3335 11.2549 29.2725 11.2549L27.8198 11.2549C27.771 11.2549 27.7344 11.2183 27.7344 11.1694L27.7344 9.09424C27.7344 7.58057 26.7944 6.66504 25.2319 6.66504L24.2676 6.66504L22.2168 4.43115C21.7407 3.90625 21.2524 3.69873 20.6543 3.69873L11.1694 3.69873C10.5591 3.69873 10.0708 3.93066 9.59473 4.43115L7.54395 6.66504L6.20117 6.66504C4.66309 6.66504 3.71094 7.58057 3.71094 9.09424L3.71094 16.7969C3.71094 18.3228 4.65088 19.2383 6.20117 19.2383L9.64355 19.2383L11.7065 21.4844C12.1826 21.9971 12.6221 22.2168 13.269 22.2168ZM13.5254 20.2515C13.2812 20.2515 13.208 20.2148 13.0493 20.0562L10.498 17.2729L6.21338 17.2729C5.87158 17.2729 5.67627 17.0776 5.67627 16.7114L5.67627 9.19189C5.67627 8.82568 5.87158 8.63037 6.21338 8.63037L8.42285 8.63037L10.9497 5.88379C11.1084 5.70068 11.1938 5.66406 11.4014 5.66406L20.4102 5.66406C20.6299 5.66406 20.7275 5.70068 20.874 5.88379L23.4131 8.63037L25.2197 8.63037C25.5615 8.63037 25.769 8.83789 25.769 9.19189L25.769 12.6953C25.769 13.0249 25.9644 13.2202 26.2817 13.2202L30.8228 13.2202C31.1401 13.2202 31.3354 13.0249 31.3354 12.6953L31.3354 10.1196C31.3354 9.8999 31.4819 9.77783 31.7871 9.77783L32.7637 9.77783C33.0566 9.77783 33.2031 9.91211 33.2031 10.1196L33.2031 18.75C33.2031 18.9697 33.0566 19.104 32.7637 19.104L31.7871 19.104C31.4819 19.104 31.3354 18.9819 31.3354 18.75L31.3354 15.9424C31.3354 15.6128 31.1401 15.4175 30.8228 15.4175L26.2817 15.4175C25.9644 15.4175 25.769 15.6128 25.769 15.9424L25.769 19.6289C25.769 20.0317 25.5615 20.2515 25.1465 20.2515ZM0.976562 17.7856C1.52588 17.7856 1.96533 17.3218 1.96533 16.7969L1.96533 13.9404L4.56543 13.9404L4.56543 11.9751L1.96533 11.9751L1.96533 9.10645C1.96533 8.56934 1.51367 8.12988 0.976562 8.12988C0.439453 8.12988 0 8.58154 0 9.10645L0 16.7969C0 17.334 0.45166 17.7856 0.976562 17.7856ZM15.8691 4.93164L17.8467 4.93164L17.8467 1.96533L21.6797 1.96533C22.2168 1.96533 22.6562 1.50146 22.6562 0.976562C22.6562 0.439453 22.2168 0 21.6797 0L12.0117 0C11.4746 0 11.0352 0.45166 11.0352 0.98877C11.0352 1.52588 11.4868 1.96533 12.0117 1.96533L15.8691 1.96533Z" fill="#5ac8f5"/>
 </g>
</svg>
