<?xml version="1.0" encoding="UTF-8"?>
<!--Generator: Apple Native CoreSVG 175.5-->
<!DOCTYPE svg
PUBLIC "-//W3C//DTD SVG 1.1//EN"
       "http://www.w3.org/Graphics/SVG/1.1/DTD/svg11.dtd">
<svg version="1.1" xmlns="http://www.w3.org/2000/svg" xmlns:xlink="http://www.w3.org/1999/xlink" width="24.9023" height="24.9146">
 <g>
  <rect height="24.9146" opacity="0" width="24.9023" x="0" y="0"/>
  <path d="M12.4512 24.9146C19.2627 24.9146 24.9023 19.2749 24.9023 12.4634C24.9023 5.66406 19.2505 0.012207 12.439 0.012207C5.63965 0.012207 0 5.66406 0 12.4634C0 19.2749 5.65186 24.9146 12.4512 24.9146Z" fill="#5ac8f5" fill-opacity="0.25"/>
  <path d="M8.39844 13.7085C6.604 13.7085 5.56641 12.5488 5.56641 11.1328C5.56641 9.83887 6.39648 8.91113 7.48291 8.58154C7.69043 6.34766 9.57031 4.55322 11.8286 4.55322C13.5742 4.55322 14.9658 5.52979 15.7349 7.00684C17.7734 7.00684 19.3481 8.42285 19.3481 10.3516C19.3481 12.1948 17.8467 13.7085 15.8936 13.7085ZM10.3271 17.2852L11.3525 14.917C11.4258 14.7461 11.5234 14.6851 11.7432 14.6851L13.4277 14.6851C13.6108 14.6851 13.6597 14.8193 13.5864 14.9902L12.8418 16.4062L14.3799 16.4062C14.624 16.4062 14.6851 16.626 14.5264 16.8091L11.1206 20.2637C11.0352 20.3735 10.9497 20.3857 10.8765 20.3735C10.8032 20.3125 10.7788 20.2271 10.8276 20.1172L11.8408 17.6147L10.5347 17.6147C10.3149 17.6147 10.2295 17.4561 10.3271 17.2852Z" fill="#5ac8f5"/>
 </g>
</svg>
