<?xml version="1.0" encoding="UTF-8"?>
<!--Generator: Apple Native CoreSVG 175.5-->
<!DOCTYPE svg
PUBLIC "-//W3C//DTD SVG 1.1//EN"
       "http://www.w3.org/Graphics/SVG/1.1/DTD/svg11.dtd">
<svg version="1.1" xmlns="http://www.w3.org/2000/svg" xmlns:xlink="http://www.w3.org/1999/xlink" width="37.3169" height="18.7622">
 <g>
  <rect height="18.7622" opacity="0" width="37.3169" x="0" y="0"/>
  <path d="M0 8.02002C0 11.9507 2.85645 14.6973 7.14111 14.6973L7.93457 14.6973L7.93457 12.7319L6.9458 12.7319C3.97949 12.7319 1.96533 10.7544 1.96533 8.02002C1.96533 6.66504 2.68555 5.83496 3.9917 5.83496L7.43408 5.83496L7.43408 3.86963L3.9917 3.86963C1.46484 3.86963 0 5.43213 0 8.02002ZM37.3169 8.02002C37.3169 5.43213 35.8643 3.86963 33.3252 3.86963L29.8828 3.86963L29.8828 5.83496L33.3252 5.83496C34.6313 5.83496 35.3516 6.66504 35.3516 8.02002C35.3516 10.7544 33.3374 12.7319 30.3711 12.7319L29.3823 12.7319L29.3823 14.6973L30.188 14.6973C34.4604 14.6973 37.3169 11.9507 37.3169 8.02002Z" fill="#5ac8f5"/>
  <path d="M18.6646 18.7256C25.9033 18.7256 31.0547 15.9058 31.0547 11.7676L31.0547 5.66406C31.0547 2.00195 26.6724 0 18.6646 0C10.6445 0 6.26221 2.00195 6.26221 5.66406L6.26221 11.7676C6.26221 15.9058 11.4136 18.7256 18.6646 18.7256Z" fill="#5ac8f5" fill-opacity="0.25"/>
  <path d="M12.0483 6.73828C12.0483 6.18896 12.5 5.7251 13.0615 5.7251L24.2676 5.7251C24.8413 5.7251 25.293 6.18896 25.293 6.73828C25.293 7.2998 24.8413 7.76367 24.2676 7.76367L13.0615 7.76367C12.5 7.76367 12.0483 7.2998 12.0483 6.73828ZM12.0483 11.4502C12.0483 10.8887 12.5 10.4248 13.0615 10.4248L24.2676 10.4248C24.8413 10.4248 25.293 10.8887 25.293 11.4502C25.293 12.0117 24.8413 12.4634 24.2676 12.4634L13.0615 12.4634C12.5 12.4634 12.0483 12.0117 12.0483 11.4502Z" fill="#5ac8f5"/>
 </g>
</svg>
