<?xml version="1.0" encoding="UTF-8"?>
<!--Generator: Apple Native CoreSVG 175.5-->
<!DOCTYPE svg
PUBLIC "-//W3C//DTD SVG 1.1//EN"
       "http://www.w3.org/Graphics/SVG/1.1/DTD/svg11.dtd">
<svg version="1.1" xmlns="http://www.w3.org/2000/svg" xmlns:xlink="http://www.w3.org/1999/xlink" width="24.9023" height="24.9146">
 <g>
  <rect height="24.9146" opacity="0" width="24.9023" x="0" y="0"/>
  <path d="M12.4512 24.9146C19.2627 24.9146 24.9023 19.2749 24.9023 12.4634C24.9023 5.66406 19.2505 0.012207 12.439 0.012207C5.63965 0.012207 0 5.66406 0 12.4634C0 19.2749 5.65186 24.9146 12.4512 24.9146Z" fill="#5ac8f5" fill-opacity="0.25"/>
  <path d="M14.209 18.8965C12.4512 20.6665 9.38721 19.3848 6.53076 16.5161C3.6377 13.6353 2.35596 10.5835 4.11377 8.80127C4.76074 8.1665 5.22461 8.37402 5.77393 9.021L7.16553 10.73C7.66602 11.3525 7.4707 11.7432 7.03125 12.2314L6.93359 12.3535C6.5918 12.7563 6.95801 13.4644 8.26416 14.7705C9.66797 16.1377 10.2295 16.4429 10.6812 16.0889L10.791 15.9912C11.2549 15.5762 11.6333 15.3442 12.2803 15.8691L14.0015 17.2729C14.6606 17.7734 14.8682 18.2739 14.209 18.8965ZM9.58252 10.8765C9.16748 10.8765 8.92334 10.6079 8.92334 10.1807L8.92334 9.09424C8.92334 8.64258 9.16748 8.42285 9.58252 8.42285L10.6934 8.42285C11.1328 8.42285 11.377 8.64258 11.377 9.09424L11.377 10.1807C11.377 10.6079 11.1328 10.8765 10.6934 10.8765ZM12.8174 10.8765C12.3901 10.8765 12.1094 10.6079 12.1094 10.1807L12.1094 9.09424C12.1094 8.64258 12.3901 8.42285 12.8174 8.42285L13.9282 8.42285C14.3433 8.42285 14.5874 8.64258 14.5874 9.09424L14.5874 10.1807C14.5874 10.6079 14.3433 10.8765 13.9282 10.8765ZM16.0156 10.8765C15.6006 10.8765 15.3564 10.6079 15.3564 10.1807L15.3564 9.09424C15.3564 8.64258 15.6006 8.42285 16.0156 8.42285L17.1265 8.42285C17.5537 8.42285 17.8223 8.64258 17.8223 9.09424L17.8223 10.1807C17.8223 10.6079 17.5537 10.8765 17.1265 10.8765ZM19.2383 10.8765C18.8232 10.8765 18.5791 10.6079 18.5791 10.1807L18.5791 9.09424C18.5791 8.64258 18.8232 8.42285 19.2383 8.42285L20.3491 8.42285C20.8008 8.42285 21.0449 8.64258 21.0449 9.09424L21.0449 10.1807C21.0449 10.6079 20.8008 10.8765 20.3491 10.8765ZM9.58252 14.0991C9.14307 14.0991 8.92334 13.855 8.92334 13.4155L8.92334 12.3169C8.92334 11.8652 9.14307 11.6455 9.58252 11.6455L10.6689 11.6455C11.1328 11.6455 11.377 11.8652 11.377 12.3169L11.377 13.4155C11.377 13.855 11.1328 14.0991 10.6689 14.0991ZM12.8052 14.0991C12.3779 14.0991 12.1094 13.855 12.1094 13.4155L12.1094 12.3169C12.1094 11.8652 12.3779 11.6455 12.8052 11.6455L17.1509 11.6455C17.5781 11.6455 17.8223 11.8652 17.8223 12.3169L17.8223 13.4155C17.8223 13.855 17.5781 14.0991 17.1509 14.0991ZM19.2505 14.0991C18.8477 14.0991 18.5791 13.855 18.5791 13.4155L18.5791 12.3169C18.5791 11.8652 18.8477 11.6455 19.2505 11.6455L20.3735 11.6455C20.813 11.6455 21.0449 11.8652 21.0449 12.3169L21.0449 13.4155C21.0449 13.855 20.813 14.0991 20.3735 14.0991Z" fill="#5ac8f5"/>
 </g>
</svg>
