<?xml version="1.0" encoding="UTF-8"?>
<!--Generator: Apple Native CoreSVG 175.5-->
<!DOCTYPE svg
PUBLIC "-//W3C//DTD SVG 1.1//EN"
       "http://www.w3.org/Graphics/SVG/1.1/DTD/svg11.dtd">
<svg version="1.1" xmlns="http://www.w3.org/2000/svg" xmlns:xlink="http://www.w3.org/1999/xlink" width="16.4307" height="33.1909">
 <g>
  <rect height="33.1909" opacity="0" width="16.4307" x="0" y="0"/>
  <path d="M8.21533 9.00879C9.65576 9.00879 10.8276 7.83691 10.8276 6.37207C10.8276 4.91943 9.65576 3.75977 8.21533 3.75977C6.75049 3.75977 5.57861 4.91943 5.57861 6.37207C5.57861 7.83691 6.75049 9.00879 8.21533 9.00879ZM6.44531 33.1909C7.08008 33.1909 7.62939 32.6416 7.62939 32.0068L7.62939 25.6104L8.21533 20.8618L8.78906 25.6104L8.78906 32.0068C8.78906 32.6416 9.33838 33.1909 9.97314 33.1909C10.6201 33.1909 11.1572 32.6416 11.1572 32.0068L11.1572 14.978C11.1572 14.8315 11.3525 14.8071 11.4136 14.9292C12.9028 17.688 13.7817 20.1538 14.1357 21.228C14.3555 21.8262 15.0269 22.168 15.6372 21.9604C16.1255 21.8018 16.4307 21.3379 16.4307 20.8496C16.4307 20.7275 16.4062 20.5933 16.3696 20.4712C16.2964 20.2148 14.2456 14.1235 11.7065 11.2427C11.1694 10.6323 10.376 10.2661 9.52148 10.2661L6.89697 10.2661C6.04248 10.2661 5.24902 10.6323 4.72412 11.2427C2.17285 14.1235 0.134277 20.2148 0.0610352 20.4712C0.012207 20.5933 0 20.7397 0 20.8618C0 21.3379 0.305176 21.8018 0.793457 21.9604C1.40381 22.168 2.06299 21.8262 2.28271 21.228C2.64893 20.1538 3.51562 17.688 5.01709 14.9292C5.07812 14.8071 5.27344 14.8315 5.27344 14.978L5.27344 32.0068C5.27344 32.6416 5.81055 33.1909 6.44531 33.1909ZM8.21533 1.35498C12.5977 1.35498 15.0757 5.39551 15.0757 12.3657L15.0757 20.8618L16.4307 20.8618L16.4307 12.3657C16.4307 4.5166 13.4766 0 8.21533 0C2.96631 0 0.012207 4.5166 0.012207 12.3657L0.012207 20.874L1.36719 20.874L1.36719 12.3657C1.36719 5.39551 3.83301 1.35498 8.21533 1.35498Z" fill="#5ac8f5"/>
 </g>
</svg>
