<?xml version="1.0" encoding="UTF-8"?>
<!--Generator: Apple Native CoreSVG 175.5-->
<!DOCTYPE svg
PUBLIC "-//W3C//DTD SVG 1.1//EN"
       "http://www.w3.org/Graphics/SVG/1.1/DTD/svg11.dtd">
<svg version="1.1" xmlns="http://www.w3.org/2000/svg" xmlns:xlink="http://www.w3.org/1999/xlink" width="28.1104" height="26.1475">
 <g>
  <rect height="26.1475" opacity="0" width="28.1104" x="0" y="0"/>
  <path d="M5.25088 5.10864C3.2001 6.15845 1.41787 7.52563 0.123929 9.07593C-0.0469695 9.28345-0.0469695 9.552 0.16055 9.77173L1.85733 11.4563C2.08926 11.6882 2.43106 11.6882 2.66299 11.4441C4.20108 9.82056 5.94668 8.58765 7.93643 7.79419ZM13.5272 6.64673C13.7104 6.61011 13.9057 6.5979 14.0888 6.5979C18.6542 6.67114 22.4628 8.41675 25.4657 11.4807C25.6977 11.7004 26.0272 11.6882 26.2592 11.4563L27.9438 9.77173C28.1635 9.552 28.1513 9.28345 27.9926 9.07593C25.0507 5.58472 19.7162 2.93579 14.0522 2.93579C12.8192 2.93579 11.5985 3.05786 10.2191 3.33862ZM10.6952 10.5286C8.31485 11.1755 6.28848 12.4573 4.98233 14.0076C4.81143 14.2273 4.82364 14.4836 5.03116 14.6912L6.92325 16.571C7.17959 16.8152 7.50918 16.7908 7.75332 16.5222C9.20596 14.9109 11.5131 13.7878 13.9057 13.7512ZM22.3285 15.448L23.0854 14.6912C23.3051 14.4714 23.3051 14.2273 23.1342 14.0076C21.9013 12.4817 19.7528 11.1267 17.4335 10.553ZM14.0644 17.1936C12.3188 17.1936 10.7929 18.1213 10.0116 19.1833C9.88955 19.3787 9.93838 19.5984 10.1215 19.7815L13.0878 22.6379C13.5639 23.1018 13.7958 23.2239 14.0644 23.2239C14.3329 23.2239 14.5648 23.0896 15.0531 22.6379L18.0072 19.7815C18.2025 19.5984 18.2514 19.3298 18.0805 19.1101C17.2748 18.0847 15.7856 17.1936 14.0644 17.1936ZM24.3427 22.1375C24.7089 22.5037 25.3192 22.5037 25.6732 22.1375C26.0272 21.759 26.0395 21.1731 25.6732 20.8069L5.15323 0.274658C4.78701-0.0915527 4.17666-0.0915527 3.81045 0.274658C3.44424 0.628662 3.44424 1.26343 3.81045 1.60522Z" fill="#5ac8f5"/>
 </g>
</svg>
