<?xml version="1.0" encoding="UTF-8"?>
<!--Generator: Apple Native CoreSVG 175.5-->
<!DOCTYPE svg
PUBLIC "-//W3C//DTD SVG 1.1//EN"
       "http://www.w3.org/Graphics/SVG/1.1/DTD/svg11.dtd">
<svg version="1.1" xmlns="http://www.w3.org/2000/svg" xmlns:xlink="http://www.w3.org/1999/xlink" width="20.5322" height="26.1841">
 <g>
  <rect height="26.1841" opacity="0" width="20.5322" x="0" y="0"/>
  <path d="M4.71191 9.13086C4.71191 8.77686 5.00488 8.47168 5.37109 8.47168L7.06787 8.47168L8.09326 4.23584C8.26416 3.55225 9.17969 3.57666 9.33838 4.24805L10.4736 9.91211L11.6577 5.96924C11.8774 5.31006 12.7563 5.29785 12.9272 5.94482L13.5864 8.47168L15.1611 8.47168C15.5396 8.47168 15.8203 8.76465 15.8203 9.13086C15.8203 9.48486 15.5273 9.77783 15.1611 9.77783L13.1836 9.77783C12.8052 9.77783 12.5488 9.58252 12.4756 9.21631L12.2559 8.3374L11.0474 12.5854C10.8276 13.269 9.91211 13.269 9.76562 12.561L8.6792 7.2876L8.20312 9.25293C8.11768 9.58252 7.87354 9.77783 7.49512 9.77783L5.37109 9.77783C5.00488 9.77783 4.71191 9.48486 4.71191 9.13086ZM4.71191 15.686C4.71191 15.2588 5.0415 14.917 5.49316 14.917L15.0513 14.917C15.4907 14.917 15.8203 15.2588 15.8203 15.686C15.8203 16.1255 15.4907 16.4673 15.0513 16.4673L5.49316 16.4673C5.0415 16.4673 4.71191 16.1255 4.71191 15.686ZM4.71191 20.0928C4.71191 19.6533 5.0415 19.3115 5.49316 19.3115L10.0098 19.3115C10.4736 19.3115 10.791 19.6533 10.791 20.0928C10.791 20.52 10.4736 20.8618 10.0098 20.8618L5.49316 20.8618C5.0415 20.8618 4.71191 20.52 4.71191 20.0928ZM0 22.3511C0 24.9023 1.25732 26.1719 3.78418 26.1719L16.748 26.1719C19.2749 26.1719 20.5322 24.9023 20.5322 22.3511L20.5322 3.83301C20.5322 1.29395 19.2749 0 16.748 0L3.78418 0C1.25732 0 0 1.29395 0 3.83301Z" fill="#5ac8f5"/>
 </g>
</svg>
