<?xml version="1.0" encoding="UTF-8"?>
<!--Generator: Apple Native CoreSVG 175.5-->
<!DOCTYPE svg
PUBLIC "-//W3C//DTD SVG 1.1//EN"
       "http://www.w3.org/Graphics/SVG/1.1/DTD/svg11.dtd">
<svg version="1.1" xmlns="http://www.w3.org/2000/svg" xmlns:xlink="http://www.w3.org/1999/xlink" width="18.3737" height="29.5288">
 <g>
  <rect height="29.5288" opacity="0" width="18.3737" x="0" y="0"/>
  <path d="M1.12413 1.96533L17.2618 1.96533C17.7989 1.96533 18.2384 1.51367 18.2384 0.976562C18.2384 0.439453 17.7989 0 17.2618 0L1.12413 0C0.587017 0 0.135357 0.439453 0.135357 0.976562C0.135357 1.51367 0.587017 1.96533 1.12413 1.96533ZM2.10069 11.2671L4.05381 11.0596L3.40684 1.50146L1.4293 1.55029ZM14.3199 11.0596L16.2853 11.2671L16.9444 1.55029L14.9791 1.50146ZM9.19297 17.5781C14.6495 17.5781 18.3727 15.9302 18.3727 13.3789C18.3727 10.8276 14.6251 9.17969 9.19297 9.17969C3.76084 9.17969 0.00107921 10.8276 0.00107921 13.3789C0.00107921 15.9302 3.77305 17.5781 9.19297 17.5781ZM9.19297 15.6128C4.98155 15.6128 1.99083 14.624 1.99083 13.3789C1.99083 12.1338 4.98155 11.145 9.19297 11.145C13.4044 11.145 16.3951 12.1338 16.3951 13.3789C16.3951 14.624 13.441 15.6128 9.19297 15.6128ZM8.75352 22.29L9.63243 22.29C14.7838 22.29 18.4459 18.5791 18.3727 13.3789L16.3951 13.3789C16.4684 17.5171 13.6974 20.3247 9.63243 20.3247L8.75352 20.3247C4.67637 20.3247 1.91758 17.5293 1.99083 13.3789L0.00107921 13.3789C-0.072163 18.5913 3.58995 22.29 8.75352 22.29ZM9.21739 29.4922C11.4391 29.4922 14.0758 28.9551 15.2355 27.7954C15.5528 27.478 15.565 27.063 15.443 26.6235L13.4166 19.9707L11.671 20.9717L13.6974 27.6733L13.795 26.4282C13.0016 27.1362 11.1339 27.5269 9.21739 27.5269C7.30088 27.5269 5.421 27.1362 4.63975 26.4282L4.7252 27.6733L6.76377 20.9717L5.01817 19.9707L2.9918 26.6235C2.86973 27.063 2.88194 27.478 3.18711 27.7954C4.35899 28.9551 6.9835 29.4922 9.21739 29.4922Z" fill="#5ac8f5"/>
 </g>
</svg>
