<?xml version="1.0" encoding="UTF-8"?>
<!--Generator: Apple Native CoreSVG 175.5-->
<!DOCTYPE svg
PUBLIC "-//W3C//DTD SVG 1.1//EN"
       "http://www.w3.org/Graphics/SVG/1.1/DTD/svg11.dtd">
<svg version="1.1" xmlns="http://www.w3.org/2000/svg" xmlns:xlink="http://www.w3.org/1999/xlink" width="23.0347" height="25.6958">
 <g>
  <rect height="25.6958" opacity="0" width="23.0347" x="0" y="0"/>
  <path d="M1.84326 20.8008L21.1914 20.8008C22.3389 20.8008 23.0347 20.2148 23.0347 19.3237C23.0347 18.103 21.7896 17.0044 20.7397 15.918C19.9341 15.0757 19.7144 13.3423 19.6167 11.9385C19.5312 7.25098 18.2861 4.02832 15.0391 2.85645C14.5752 1.25732 13.3179 0 11.5112 0C9.7168 0 8.44727 1.25732 7.99561 2.85645C4.74854 4.02832 3.50342 7.25098 3.41797 11.9385C3.32031 13.3423 3.10059 15.0757 2.29492 15.918C1.23291 17.0044 0 18.103 0 19.3237C0 20.2148 0.683594 20.8008 1.84326 20.8008ZM11.5112 25.6958C13.5864 25.6958 15.1001 24.1821 15.2588 22.4731L7.77588 22.4731C7.93457 24.1821 9.44824 25.6958 11.5112 25.6958Z" fill="#5ac8f5"/>
 </g>
</svg>
