<?xml version="1.0" encoding="UTF-8"?>
<!--Generator: Apple Native CoreSVG 175.5-->
<!DOCTYPE svg
PUBLIC "-//W3C//DTD SVG 1.1//EN"
       "http://www.w3.org/Graphics/SVG/1.1/DTD/svg11.dtd">
<svg version="1.1" xmlns="http://www.w3.org/2000/svg" xmlns:xlink="http://www.w3.org/1999/xlink" width="13.1592" height="27.0386">
 <g>
  <rect height="27.0386" opacity="0" width="13.1592" x="0" y="0"/>
  <path d="M0 24.3286C0 25.9399 1.07422 26.9653 2.7832 26.9653L10.376 26.9653C12.085 26.9653 13.1592 25.9399 13.1592 24.3286L13.1592 2.63672C13.1592 1.0376 12.085 0 10.376 0L2.7832 0C1.07422 0 0 1.0376 0 2.63672ZM1.80664 24.0723L1.80664 2.89307C1.80664 2.20947 2.2583 1.78223 2.99072 1.78223L10.1685 1.78223C10.9131 1.78223 11.3525 2.20947 11.3525 2.89307L11.3525 24.0723C11.3525 24.7559 10.9131 25.1831 10.1685 25.1831L2.99072 25.1831C2.2583 25.1831 1.80664 24.7559 1.80664 24.0723ZM6.5918 11.6821C8.71582 11.6821 10.437 9.94873 10.437 7.83691C10.437 5.71289 8.71582 3.97949 6.5918 3.97949C4.46777 3.97949 2.73438 5.71289 2.73438 7.83691C2.73438 9.94873 4.46777 11.6821 6.5918 11.6821ZM6.5918 9.38721C5.7251 9.38721 5.0293 8.69141 5.0293 7.83691C5.0293 6.97021 5.7251 6.27441 6.5918 6.27441C7.4585 6.27441 8.14209 6.97021 8.14209 7.83691C8.14209 8.69141 7.4585 9.38721 6.5918 9.38721ZM6.5918 15.8447C7.37305 15.8447 8.00781 15.21 8.00781 14.4287C8.00781 13.6353 7.37305 13.0005 6.5918 13.0005C5.79834 13.0005 5.15137 13.6353 5.15137 14.4287C5.15137 15.21 5.79834 15.8447 6.5918 15.8447Z" fill="#5ac8f5"/>
 </g>
</svg>
