<?xml version="1.0" encoding="UTF-8"?>
<!--Generator: Apple Native CoreSVG 175.5-->
<!DOCTYPE svg
PUBLIC "-//W3C//DTD SVG 1.1//EN"
       "http://www.w3.org/Graphics/SVG/1.1/DTD/svg11.dtd">
<svg version="1.1" xmlns="http://www.w3.org/2000/svg" xmlns:xlink="http://www.w3.org/1999/xlink" width="24.9023" height="24.9146">
 <g>
  <rect height="24.9146" opacity="0" width="24.9023" x="0" y="0"/>
  <path d="M12.4512 24.9023C19.2627 24.9023 24.9023 19.2505 24.9023 12.4512C24.9023 5.63965 19.2505 0 12.439 0C5.63965 0 0 5.63965 0 12.4512C0 19.2505 5.65186 24.9023 12.4512 24.9023ZM9.021 13.3057L12.439 13.3057C12.7808 13.3057 13.0737 13.0493 13.0737 12.7075L13.0737 8.26416C13.0737 7.92236 12.793 7.65381 12.439 7.65381C12.0972 7.65381 11.8286 7.92236 11.8286 8.26416L11.8286 12.0972L9.021 12.0972C8.66699 12.0972 8.39844 12.3535 8.39844 12.7075C8.39844 13.0615 8.66699 13.3057 9.021 13.3057ZM12.4512 19.2017C8.76465 19.2017 5.68848 16.1377 5.68848 12.4512C5.68848 8.76465 8.75244 5.68848 12.439 5.68848C16.1377 5.68848 19.2139 8.76465 19.2139 12.4512C19.2139 16.1377 16.1377 19.2017 12.4512 19.2017Z" fill="#5ac8f5"/>
 </g>
</svg>
