<?xml version="1.0" encoding="UTF-8"?>
<!--Generator: Apple Native CoreSVG 175.5-->
<!DOCTYPE svg
PUBLIC "-//W3C//DTD SVG 1.1//EN"
       "http://www.w3.org/Graphics/SVG/1.1/DTD/svg11.dtd">
<svg version="1.1" xmlns="http://www.w3.org/2000/svg" xmlns:xlink="http://www.w3.org/1999/xlink" width="29.3457" height="23.0835">
 <g>
  <rect height="23.0835" opacity="0" width="29.3457" x="0" y="0"/>
  <path d="M6.15234 23.0591L22.0459 23.0591C26.1597 23.0591 29.3457 19.9463 29.3457 15.9668C29.3457 11.9507 26.0986 8.92334 21.6553 8.92334C20.0317 5.70068 17.0532 3.73535 13.4399 3.73535C8.70361 3.73535 4.6875 7.40967 4.26025 12.2803C1.81885 12.9761 0.170898 15.0269 0.170898 17.6147C0.170898 20.6299 2.35596 23.0591 6.15234 23.0591ZM11.438 18.9697C9.26514 18.9697 8.41064 17.0898 8.41064 14.9414C8.41064 12.7563 9.33838 10.9619 11.4014 10.9619C13.0493 10.9619 14.0503 12.1338 14.0991 13.4155C14.1113 13.8672 13.8428 14.1602 13.4399 14.1602C13.0615 14.1602 12.8662 13.9526 12.7563 13.5132C12.6221 12.8784 12.2803 12.2192 11.4258 12.2192C10.2173 12.2192 9.80225 13.5864 9.80225 14.9414C9.80225 16.3818 10.2051 17.7124 11.438 17.7124C12.2925 17.7124 12.6587 17.041 12.793 16.4062C12.9028 15.9668 13.0981 15.7593 13.4766 15.7593C13.8794 15.7593 14.1479 16.0645 14.1357 16.5039C14.0869 17.7856 13.0859 18.9697 11.438 18.9697ZM17.6514 18.9697C15.8203 18.9697 14.6484 17.4072 14.6484 14.9658C14.6484 12.5122 15.8203 10.9619 17.6514 10.9619C19.4824 10.9619 20.6421 12.5122 20.6421 14.9658C20.6421 17.4072 19.4824 18.9697 17.6514 18.9697ZM17.6514 17.7124C18.6401 17.7124 19.2505 16.6992 19.2505 14.9658C19.2505 13.2324 18.6401 12.2192 17.6514 12.2192C16.6626 12.2192 16.04 13.2324 16.04 14.9658C16.04 16.6992 16.6626 17.7124 17.6514 17.7124ZM1.70898 11.1084C2.64893 11.1084 3.40576 10.3516 3.40576 9.39941C3.40576 8.45947 2.64893 7.70264 1.70898 7.70264C0.756836 7.70264 0 8.45947 0 9.39941C0 10.3516 0.756836 11.1084 1.70898 11.1084ZM19.6045 3.21045C20.4834 3.21045 21.2036 2.49023 21.2036 1.61133C21.2036 0.732422 20.4834 0 19.6045 0C18.7256 0 18.0054 0.732422 18.0054 1.61133C18.0054 2.49023 18.7256 3.21045 19.6045 3.21045ZM24.7437 7.43408C26.062 7.43408 27.124 6.37207 27.124 5.0293C27.124 3.69873 26.062 2.63672 24.7437 2.63672C23.4009 2.63672 22.3267 3.69873 22.3267 5.0293C22.3267 6.37207 23.4009 7.43408 24.7437 7.43408Z" fill="#5ac8f5"/>
 </g>
</svg>
