<?xml version="1.0" encoding="UTF-8"?>
<!--Generator: Apple Native CoreSVG 175.5-->
<!DOCTYPE svg
PUBLIC "-//W3C//DTD SVG 1.1//EN"
       "http://www.w3.org/Graphics/SVG/1.1/DTD/svg11.dtd">
<svg version="1.1" xmlns="http://www.w3.org/2000/svg" xmlns:xlink="http://www.w3.org/1999/xlink" width="22.4731" height="22.4976">
 <g>
  <rect height="22.4976" opacity="0" width="22.4731" x="0" y="0"/>
  <path d="M3.83301 22.4976L18.6401 22.4976C21.2036 22.4976 22.4731 21.228 22.4731 18.7134L22.4731 3.80859C22.4731 1.29395 21.2036 0.0244141 18.6401 0.0244141L3.83301 0.0244141C1.28174 0.0244141 0 1.28174 0 3.80859L0 18.7134C0 21.2402 1.28174 22.4976 3.83301 22.4976Z" fill="#5ac8f5" fill-opacity="0.25"/>
  <path d="M7.2876 8.11768C7.84912 8.11768 8.21533 8.49609 8.21533 9.10645L8.21533 11.2671L8.03223 13.2324L9.85107 11.2915L14.4531 6.67725C14.6484 6.49414 14.8804 6.38428 15.1855 6.38428C15.7349 6.38428 16.1133 6.75049 16.1133 7.32422C16.1133 7.56836 15.9912 7.82471 15.8081 8.00781L11.1816 12.6099L9.21631 14.4531L11.084 14.2578L13.3545 14.2578C13.9648 14.2578 14.3555 14.624 14.3555 15.1733C14.3555 15.7349 13.9771 16.1011 13.3789 16.1011L7.42188 16.1011C6.7749 16.1011 6.37207 15.8081 6.37207 15.0635L6.37207 9.13086C6.37207 8.53271 6.73828 8.11768 7.2876 8.11768Z" fill="#5ac8f5"/>
 </g>
</svg>
