<?xml version="1.0" encoding="UTF-8"?>
<!--Generator: Apple Native CoreSVG 175.5-->
<!DOCTYPE svg
PUBLIC "-//W3C//DTD SVG 1.1//EN"
       "http://www.w3.org/Graphics/SVG/1.1/DTD/svg11.dtd">
<svg version="1.1" xmlns="http://www.w3.org/2000/svg" xmlns:xlink="http://www.w3.org/1999/xlink" width="29.7974" height="21.4722">
 <g>
  <rect height="21.4722" opacity="0" width="29.7974" x="0" y="0"/>
  <path d="M8.21533 0.0854492C4.47998 0.0610352 0 3.80859 0 7.43408C0 10.437 3.00293 12.8052 5.43213 12.793C8.81348 12.7808 13.4766 8.8623 13.4766 5.59082C13.4766 2.4292 11.0352 0.109863 8.21533 0.0854492ZM4.27246 11.1084C3.58887 11.1084 2.53906 10.2539 1.87988 9.19189C1.23291 8.10547 1.25732 7.26318 1.94092 7.26318C2.6123 7.26318 3.67432 8.10547 4.32129 9.19189C4.96826 10.2539 4.94385 11.1084 4.27246 11.1084ZM7.67822 5.66406C7.2876 5.11475 7.42188 4.38232 7.95898 4.00391L9.65576 2.771C10.1807 2.38037 10.9253 2.51465 11.2915 3.06396C11.7065 3.60107 11.5845 4.30908 11.0474 4.71191L9.35059 5.92041C8.78906 6.32324 8.04443 6.20117 7.67822 5.66406ZM8.81348 21.4722L10.3394 21.4722C11.0962 21.4722 11.5967 21.0815 11.5967 20.3369L11.5967 11.2183C10.4004 12.2925 8.98438 13.147 7.55615 13.5986L7.55615 20.3369C7.55615 21.0815 8.04443 21.4722 8.81348 21.4722ZM21.582 0.0854492C18.7622 0.109863 16.3208 2.4292 16.3208 5.59082C16.3208 8.8623 20.9839 12.7808 24.3652 12.793C26.7944 12.8052 29.7974 10.437 29.7974 7.43408C29.7974 3.80859 25.3174 0.0610352 21.582 0.0854492ZM25.5249 11.1084C24.8535 11.1084 24.8291 10.2539 25.4761 9.19189C26.123 8.10547 27.1851 7.26318 27.8564 7.26318C28.54 7.26318 28.5645 8.10547 27.9175 9.19189C27.2705 10.2539 26.2085 11.1084 25.5249 11.1084ZM22.1191 5.66406C21.7529 6.20117 21.0083 6.32324 20.459 5.92041L18.7622 4.71191C18.2129 4.30908 18.0908 3.60107 18.5059 3.06396C18.8721 2.51465 19.6167 2.38037 20.1416 2.771L21.8506 4.00391C22.3877 4.38232 22.5098 5.11475 22.1191 5.66406ZM20.9839 21.4722C21.7529 21.4722 22.2412 21.0815 22.2412 20.3369L22.2412 13.5986C20.813 13.147 19.397 12.2925 18.2007 11.2183L18.2007 20.3369C18.2007 21.0815 18.7012 21.4722 19.458 21.4722Z" fill="#5ac8f5"/>
 </g>
</svg>
