<?xml version="1.0" encoding="UTF-8"?>
<!--Generator: Apple Native CoreSVG 175.5-->
<!DOCTYPE svg
PUBLIC "-//W3C//DTD SVG 1.1//EN"
       "http://www.w3.org/Graphics/SVG/1.1/DTD/svg11.dtd">
<svg version="1.1" xmlns="http://www.w3.org/2000/svg" xmlns:xlink="http://www.w3.org/1999/xlink" width="28.1738" height="29.3823">
 <g>
  <rect height="29.3823" opacity="0" width="28.1738" x="0" y="0"/>
  <path d="M8.99658 18.3594L12.207 18.3594C10.5591 17.6636 9.375 16.0034 9.375 14.0869C9.375 11.499 11.499 9.375 14.0869 9.375C16.6748 9.375 18.7988 11.499 18.7988 14.0869C18.7988 16.0034 17.6147 17.6636 15.9668 18.3594L19.165 18.3594C20.166 17.2119 20.7642 15.7104 20.7642 14.0869C20.7642 10.4248 17.7246 7.39746 14.0869 7.39746C10.437 7.39746 7.40967 10.4248 7.40967 14.0869C7.40967 15.7104 8.00781 17.2119 8.99658 18.3594ZM1.08643 14.7583L4.08936 14.7583C4.72412 14.7583 5.2002 14.3188 5.18799 13.7695C5.17578 13.2324 4.72412 12.7808 4.08936 12.7808L1.08643 12.7808C0.45166 12.7808 0 13.2202 0 13.7695C0 14.3188 0.45166 14.7583 1.08643 14.7583ZM7.78809 7.78809C8.1665 7.39746 8.1665 6.7627 7.71484 6.31104L5.59082 4.18701C5.13916 3.73535 4.5166 3.74756 4.12598 4.12598C3.73535 4.50439 3.73535 5.13916 4.18701 5.59082L6.31104 7.71484C6.7627 8.1665 7.40967 8.17871 7.78809 7.78809ZM14.0869 5.18799C14.6362 5.17578 15.0757 4.71191 15.0757 4.08936L15.0757 1.08643C15.0757 0.45166 14.6362 0 14.0869 0C13.5376 0 13.0981 0.45166 13.0981 1.08643L13.0981 4.08936C13.0981 4.71191 13.5376 5.2002 14.0869 5.18799ZM20.3857 7.78809C20.7642 8.1665 21.4111 8.1665 21.8628 7.71484L23.9868 5.59082C24.4385 5.13916 24.4263 4.5166 24.0356 4.12598C23.6694 3.73535 23.0347 3.73535 22.5708 4.18701L20.4468 6.31104C20.0073 6.7627 19.9951 7.40967 20.3857 7.78809ZM24.0845 14.7583L27.0874 14.7583C27.7222 14.7583 28.1738 14.3188 28.1738 13.7695C28.1738 13.2324 27.7222 12.7808 27.0874 12.7808L24.0845 12.7808C23.4497 12.7808 22.9736 13.2202 22.9858 13.7695C22.998 14.3188 23.4497 14.7583 24.0845 14.7583Z" fill="#5ac8f5" fill-opacity="0.5"/>
  <path d="M2.6123 19.4946L27.4048 19.4946C27.832 19.4946 28.1738 19.165 28.1738 18.7256C28.1738 18.2861 27.832 17.9565 27.4048 17.9565L2.6123 17.9565C2.17285 17.9565 1.84326 18.2861 1.84326 18.7256C1.84326 19.165 2.17285 19.4946 2.6123 19.4946ZM0.769043 24.1943L25.5615 24.1943C25.9888 24.1943 26.3306 23.8525 26.3306 23.4131C26.3306 22.9736 25.9888 22.644 25.5615 22.644L0.769043 22.644C0.341797 22.644 0 22.9736 0 23.4131C0 23.8525 0.341797 24.1943 0.769043 24.1943ZM2.6123 28.8818L27.4048 28.8818C27.832 28.8818 28.1738 28.5522 28.1738 28.1128C28.1738 27.6611 27.832 27.3315 27.4048 27.3315L2.6123 27.3315C2.17285 27.3315 1.84326 27.6611 1.84326 28.1128C1.84326 28.5522 2.17285 28.8818 2.6123 28.8818Z" fill="#5ac8f5"/>
 </g>
</svg>
