<?xml version="1.0" encoding="UTF-8"?>
<!--Generator: Apple Native CoreSVG 175.5-->
<!DOCTYPE svg
PUBLIC "-//W3C//DTD SVG 1.1//EN"
       "http://www.w3.org/Graphics/SVG/1.1/DTD/svg11.dtd">
<svg version="1.1" xmlns="http://www.w3.org/2000/svg" xmlns:xlink="http://www.w3.org/1999/xlink" width="24.9023" height="24.9146">
 <g>
  <rect height="24.9146" opacity="0" width="24.9023" x="0" y="0"/>
  <path d="M12.4512 24.9146C19.2627 24.9146 24.9023 19.2749 24.9023 12.4634C24.9023 5.66406 19.2505 0.012207 12.439 0.012207C5.63965 0.012207 0 5.66406 0 12.4634C0 19.2749 5.65186 24.9146 12.4512 24.9146ZM8.53271 16.394C5.60303 13.4521 3.72314 9.7168 5.94482 7.50732C5.99365 7.4585 6.04248 7.40967 6.10352 7.36084C6.9458 6.73828 7.71484 6.5918 8.23975 7.33643L9.79004 9.52148C10.3271 10.2661 10.1929 10.7178 9.63135 11.3037L9.14307 11.8408C8.97217 11.9995 9.021 12.2314 9.11865 12.3657C9.36279 12.7808 9.98535 13.562 10.6689 14.2578C11.377 14.9536 12.1094 15.5518 12.561 15.8081C12.7197 15.918 12.9761 15.9302 13.1104 15.7837L13.623 15.2832C14.1846 14.7339 14.6606 14.5996 15.3931 15.1245C16.4307 15.8325 17.0532 16.272 17.627 16.6992C18.3594 17.2485 18.2129 18.103 17.6392 18.75C17.5659 18.8354 17.5049 18.9087 17.4194 18.9941C15.21 21.2036 11.4624 19.3359 8.53271 16.394ZM13.0005 12.6587C12.6099 12.6587 12.3291 12.4023 12.3291 12.0361C12.3291 11.8286 12.3901 11.6821 12.5366 11.5356L15.6006 8.47168L16.4673 7.66602L14.8071 7.75146L13.7207 7.75146C13.3545 7.75146 13.0737 7.48291 13.0615 7.12891C13.0371 6.7627 13.3423 6.44531 13.7207 6.44531L17.8467 6.44531C18.2861 6.44531 18.5425 6.70166 18.5425 7.15332L18.5425 11.2549C18.5425 11.6333 18.2373 11.9385 17.8589 11.9263C17.5049 11.8896 17.2485 11.6089 17.2485 11.2549L17.2485 10.2051L17.3218 8.52051L16.5161 9.41162L13.4521 12.4878C13.3545 12.6099 13.1836 12.6587 13.0005 12.6587Z" fill="#5ac8f5"/>
 </g>
</svg>
