<?xml version="1.0" encoding="UTF-8"?>
<!--Generator: Apple Native CoreSVG 175.5-->
<!DOCTYPE svg
PUBLIC "-//W3C//DTD SVG 1.1//EN"
       "http://www.w3.org/Graphics/SVG/1.1/DTD/svg11.dtd">
<svg version="1.1" xmlns="http://www.w3.org/2000/svg" xmlns:xlink="http://www.w3.org/1999/xlink" width="11.792" height="27.0386">
 <g>
  <rect height="27.0386" opacity="0" width="11.792" x="0" y="0"/>
  <path d="M0 24.3286C0 25.9399 1.07422 26.9653 2.7832 26.9653L9.00879 26.9653C10.7056 26.9653 11.792 25.9399 11.792 24.3286L11.792 2.63672C11.792 1.0376 10.7056 0 9.00879 0L2.7832 0C1.07422 0 0 1.0376 0 2.63672ZM3.68652 15.3442C2.84424 15.3442 2.16064 14.6606 2.16064 13.8306C2.16064 12.9883 2.84424 12.3169 3.68652 12.3169C4.52881 12.3169 5.18799 12.9883 5.18799 13.8306C5.18799 14.6606 4.52881 15.3442 3.68652 15.3442ZM8.12988 15.3442C7.27539 15.3442 6.604 14.6606 6.604 13.8306C6.604 12.9883 7.27539 12.3169 8.12988 12.3169C8.95996 12.3169 9.63135 12.9883 9.63135 13.8306C9.63135 14.6606 8.95996 15.3442 8.12988 15.3442ZM5.896 10.7544C3.72314 10.7544 1.9165 8.97217 1.9165 6.7749C1.9165 4.57764 3.72314 2.79541 5.896 2.79541C8.08105 2.79541 9.87549 4.57764 9.87549 6.7749C9.87549 8.97217 8.08105 10.7544 5.896 10.7544ZM5.9082 8.37402C6.79932 8.37402 7.51953 7.66602 7.51953 6.7749C7.51953 5.88379 6.79932 5.16357 5.9082 5.16357C5.01709 5.16357 4.28467 5.88379 4.28467 6.7749C4.28467 7.66602 5.01709 8.37402 5.9082 8.37402Z" fill="#5ac8f5"/>
 </g>
</svg>
