<?xml version="1.0" encoding="UTF-8"?>
<!--Generator: Apple Native CoreSVG 175.5-->
<!DOCTYPE svg
PUBLIC "-//W3C//DTD SVG 1.1//EN"
       "http://www.w3.org/Graphics/SVG/1.1/DTD/svg11.dtd">
<svg version="1.1" xmlns="http://www.w3.org/2000/svg" xmlns:xlink="http://www.w3.org/1999/xlink" width="25.9155" height="28.8818">
 <g>
  <rect height="28.8818" opacity="0" width="25.9155" x="0" y="0"/>
  <path d="M4.71191 20.0378C5.10254 19.5984 4.98047 19.0247 4.54102 18.5242C2.90527 16.7053 1.98975 14.3127 1.98975 11.6882C1.98975 9.52759 2.6123 7.55005 3.73535 5.9021L2.30713 4.47388C0.817871 6.50024 0 9.00269 0 11.6882C0 14.8499 1.14746 17.7795 3.17383 19.9768C3.6377 20.4895 4.32129 20.4895 4.71191 20.0378ZM8.37402 16.5588C8.76465 16.1194 8.60596 15.5701 8.21533 15.0452C7.48291 14.1418 7.12891 12.9578 7.12891 11.6882C7.12891 10.9802 7.27539 10.3088 7.53174 9.68628L6.00586 8.1604C5.43213 9.22241 5.13916 10.4309 5.13916 11.6882C5.13916 13.4827 5.74951 15.155 6.81152 16.4734C7.23877 17.0349 7.97119 17.0227 8.37402 16.5588ZM12.9639 25.6897C13.5376 25.6897 13.8916 25.2747 13.8916 24.6399L13.8916 16.0583L12.0239 14.1907L12.0239 24.6399C12.0239 25.2625 12.4023 25.6897 12.9639 25.6897ZM20.0317 14.9597C20.52 13.9709 20.7764 12.8601 20.7764 11.6882C20.7764 9.8938 20.166 8.22144 19.104 6.90308C18.6768 6.34155 17.9443 6.35376 17.5415 6.81763C17.1509 7.25708 17.3218 7.79419 17.7002 8.3313C18.396 9.27124 18.7866 10.4187 18.7866 11.6882C18.7866 12.2986 18.689 12.8845 18.4692 13.4094ZM23.7671 18.7073C25.1465 16.6931 25.9155 14.2761 25.9155 11.6882C25.9155 8.52661 24.7681 5.59692 22.7417 3.39966C22.2778 2.88696 21.5942 2.88696 21.2036 3.33862C20.813 3.77808 20.9351 4.35181 21.3745 4.85229C23.0103 6.67114 23.9258 9.06372 23.9258 11.6882C23.9258 13.7512 23.3521 15.6433 22.3145 17.2546Z" fill="#5ac8f5" fill-opacity="0.5"/>
  <path d="M23.6206 23.5046C23.9868 23.8708 24.585 23.8708 24.9512 23.5046C25.3052 23.1262 25.3174 22.5403 24.9512 22.1741L3.05176 0.274658C2.68555-0.0915527 2.0752-0.0915527 1.70898 0.274658C1.35498 0.628662 1.35498 1.25122 1.70898 1.60522Z" fill="#5ac8f5"/>
 </g>
</svg>
