<?xml version="1.0" encoding="UTF-8"?>
<!--Generator: Apple Native CoreSVG 175.5-->
<!DOCTYPE svg
PUBLIC "-//W3C//DTD SVG 1.1//EN"
       "http://www.w3.org/Graphics/SVG/1.1/DTD/svg11.dtd">
<svg version="1.1" xmlns="http://www.w3.org/2000/svg" xmlns:xlink="http://www.w3.org/1999/xlink" width="24.9023" height="24.9146">
 <g>
  <rect height="24.9146" opacity="0" width="24.9023" x="0" y="0"/>
  <path d="M12.4512 24.9023C19.2627 24.9023 24.9023 19.2505 24.9023 12.4512C24.9023 5.63965 19.2505 0 12.439 0C5.63965 0 0 5.63965 0 12.4512C0 19.2505 5.65186 24.9023 12.4512 24.9023ZM12.4512 22.8271C6.68945 22.8271 2.0874 18.2129 2.0874 12.4512C2.0874 6.68945 6.67725 2.0752 12.439 2.0752C18.2007 2.0752 22.8271 6.68945 22.8271 12.4512C22.8271 18.2129 18.2129 22.8271 12.4512 22.8271Z" fill="#5ac8f5" fill-opacity="0.5"/>
  <path d="M6.17676 12.439C6.17676 12.7075 6.29883 12.9272 6.51855 13.147L10.6445 17.2852C10.8032 17.4438 11.0229 17.5415 11.2793 17.5415C11.7798 17.5415 12.1582 17.1509 12.1582 16.6504C12.1582 16.3818 12.0605 16.1621 11.8896 16.0034L10.3638 14.4897L8.88672 13.2568L11.4746 13.3423L17.8345 13.3423C18.3716 13.3423 18.75 12.9639 18.75 12.439C18.75 11.9019 18.3594 11.5234 17.8345 11.5234L11.4746 11.5234L8.89893 11.6211L10.3638 10.3882L11.8896 8.87451C12.0483 8.70361 12.1582 8.48389 12.1582 8.21533C12.1582 7.71484 11.7798 7.33643 11.2793 7.33643C11.0229 7.33643 10.8032 7.42188 10.6445 7.58057L6.51855 11.731C6.27441 11.9751 6.17676 12.1704 6.17676 12.439Z" fill="#5ac8f5"/>
 </g>
</svg>
