<?xml version="1.0" encoding="UTF-8"?>
<!--Generator: Apple Native CoreSVG 175.5-->
<!DOCTYPE svg
PUBLIC "-//W3C//DTD SVG 1.1//EN"
       "http://www.w3.org/Graphics/SVG/1.1/DTD/svg11.dtd">
<svg version="1.1" xmlns="http://www.w3.org/2000/svg" xmlns:xlink="http://www.w3.org/1999/xlink" width="22.4731" height="22.4976">
 <g>
  <rect height="22.4976" opacity="0" width="22.4731" x="0" y="0"/>
  <path d="M3.83301 22.4976L18.6401 22.4976C21.2036 22.4976 22.4731 21.228 22.4731 18.7134L22.4731 3.80859C22.4731 1.29395 21.2036 0.0244141 18.6401 0.0244141L3.83301 0.0244141C1.28174 0.0244141 0 1.28174 0 3.80859L0 18.7134C0 21.2402 1.28174 22.4976 3.83301 22.4976Z" fill="#5ac8f5" fill-opacity="0.25"/>
  <path d="M6.9458 16.6748C5.22461 16.6748 3.88184 15.625 3.55225 14.4653C3.50342 14.3066 3.49121 14.1724 3.49121 14.0015C3.49121 13.562 3.79639 13.2446 4.21143 13.2446C4.57764 13.2446 4.78516 13.4399 4.93164 13.8428C5.27344 14.7217 5.96924 15.21 6.95801 15.21C8.1665 15.21 8.99658 14.4775 8.99658 13.501C8.99658 12.4756 8.22754 11.8042 7.03125 11.8042L6.29883 11.8042C5.88379 11.8042 5.61523 11.4868 5.61523 11.084C5.61523 10.6201 5.88379 10.3271 6.29883 10.3271L6.98242 10.3271C7.97119 10.3271 8.6792 9.66797 8.6792 8.75244C8.6792 7.87354 7.9834 7.27539 6.98242 7.27539C6.01807 7.27539 5.40771 7.76367 5.12695 8.64258C4.99268 9.04541 4.79736 9.24072 4.41895 9.24072C3.9917 9.24072 3.69873 8.92334 3.69873 8.47168C3.69873 8.31299 3.69873 8.17871 3.73535 8.02002C4.06494 6.78711 5.32227 5.81055 7.01904 5.81055C8.91113 5.81055 10.2295 6.93359 10.2295 8.54492C10.2295 9.729 9.41162 10.7788 8.37402 10.9497L8.37402 11.0229C9.64355 11.1572 10.5713 12.2314 10.5713 13.5742C10.5713 15.3809 9.06982 16.6748 6.9458 16.6748ZM15.6616 16.6748C13.9282 16.6748 12.5977 15.625 12.2681 14.4653C12.2192 14.3066 12.207 14.1724 12.207 14.0015C12.207 13.562 12.5122 13.2446 12.9272 13.2446C13.2935 13.2446 13.501 13.4399 13.6475 13.8428C13.9893 14.7217 14.6729 15.21 15.6738 15.21C16.8701 15.21 17.7002 14.4775 17.7002 13.501C17.7002 12.4756 16.9434 11.8042 15.7471 11.8042L15.0024 11.8042C14.5996 11.8042 14.3188 11.4868 14.3188 11.084C14.3188 10.6201 14.5996 10.3271 15.0024 10.3271L15.6982 10.3271C16.687 10.3271 17.3828 9.66797 17.3828 8.75244C17.3828 7.87354 16.6992 7.27539 15.6982 7.27539C14.7217 7.27539 14.1113 7.76367 13.8306 8.64258C13.7085 9.04541 13.501 9.24072 13.1226 9.24072C12.6953 9.24072 12.4023 8.92334 12.4023 8.47168C12.4023 8.31299 12.4023 8.17871 12.439 8.02002C12.7686 6.78711 14.0259 5.81055 15.7349 5.81055C17.627 5.81055 18.9453 6.93359 18.9453 8.54492C18.9453 9.729 18.1274 10.7788 17.0776 10.9497L17.0776 11.0229C18.3594 11.1572 19.2871 12.2314 19.2871 13.5742C19.2871 15.3809 17.7856 16.6748 15.6616 16.6748Z" fill="#5ac8f5"/>
 </g>
</svg>
