<?xml version="1.0" encoding="UTF-8"?>
<!--Generator: Apple Native CoreSVG 175.5-->
<!DOCTYPE svg
PUBLIC "-//W3C//DTD SVG 1.1//EN"
       "http://www.w3.org/Graphics/SVG/1.1/DTD/svg11.dtd">
<svg version="1.1" xmlns="http://www.w3.org/2000/svg" xmlns:xlink="http://www.w3.org/1999/xlink" width="24.9023" height="24.9146">
 <g>
  <rect height="24.9146" opacity="0" width="24.9023" x="0" y="0"/>
  <path d="M12.4512 24.9023C19.2627 24.9023 24.9023 19.2505 24.9023 12.4512C24.9023 5.63965 19.2505 0 12.439 0C5.63965 0 0 5.63965 0 12.4512C0 19.2505 5.65186 24.9023 12.4512 24.9023ZM12.4512 22.8271C6.68945 22.8271 2.0874 18.2129 2.0874 12.4512C2.0874 6.68945 6.67725 2.0752 12.439 2.0752C18.2007 2.0752 22.8271 6.68945 22.8271 12.4512C22.8271 18.2129 18.2129 22.8271 12.4512 22.8271Z" fill="#5ac8f5" fill-opacity="0.5"/>
  <path d="M9.74121 17.688C10.2417 17.688 10.498 17.3462 10.498 16.8701L10.498 15.4297L11.1572 15.4297C11.5845 15.4297 11.853 15.1855 11.853 14.7583C11.853 14.3188 11.5723 14.0625 11.1572 14.0625L10.498 14.0625L10.498 8.34961C10.498 7.6416 9.99756 7.18994 9.28955 7.18994C8.58154 7.18994 8.1543 7.4585 7.75146 8.12988C6.73828 9.83887 5.50537 11.9385 4.67529 13.4155C4.47998 13.7939 4.40674 14.0625 4.40674 14.3921C4.40674 15.0391 4.83398 15.4297 5.45654 15.4297L9.021 15.4297L9.021 16.8701C9.021 17.334 9.26514 17.688 9.74121 17.688ZM9.021 14.0625L6.00586 14.0625L6.00586 14.0137C6.72607 12.6343 7.9834 10.4858 8.94775 8.83789L9.021 8.83789ZM18.1641 17.688C18.6523 17.688 18.9087 17.3462 18.9087 16.8701L18.9087 15.4297L19.5801 15.4297C19.9951 15.4297 20.2637 15.1855 20.2637 14.7583C20.2637 14.3188 19.9951 14.0625 19.5801 14.0625L18.9087 14.0625L18.9087 8.34961C18.9087 7.6416 18.4204 7.18994 17.7002 7.18994C16.9922 7.18994 16.5649 7.4585 16.1743 8.12988C15.1489 9.83887 13.916 11.9385 13.0981 13.4155C12.8906 13.7939 12.8296 14.0625 12.8296 14.3921C12.8296 15.0391 13.2446 15.4297 13.8672 15.4297L17.4316 15.4297L17.4316 16.8701C17.4316 17.334 17.688 17.688 18.1641 17.688ZM17.4316 14.0625L14.4165 14.0625L14.4165 14.0137C15.1367 12.6343 16.394 10.4858 17.3706 8.83789L17.4316 8.83789Z" fill="#5ac8f5"/>
 </g>
</svg>
