<?xml version="1.0" encoding="UTF-8"?>
<!--Generator: Apple Native CoreSVG 175.5-->
<!DOCTYPE svg
PUBLIC "-//W3C//DTD SVG 1.1//EN"
       "http://www.w3.org/Graphics/SVG/1.1/DTD/svg11.dtd">
<svg version="1.1" xmlns="http://www.w3.org/2000/svg" xmlns:xlink="http://www.w3.org/1999/xlink" width="22.4731" height="22.4976">
 <g>
  <rect height="22.4976" opacity="0" width="22.4731" x="0" y="0"/>
  <path d="M3.83301 22.4976L18.6401 22.4976C21.2036 22.4976 22.4731 21.228 22.4731 18.7134L22.4731 3.80859C22.4731 1.29395 21.2036 0.0244141 18.6401 0.0244141L3.83301 0.0244141C1.28174 0.0244141 0 1.28174 0 3.80859L0 18.7134C0 21.2402 1.28174 22.4976 3.83301 22.4976ZM4.91943 16.3818C4.46777 16.3818 4.1748 16.0889 4.1748 15.6372C4.1748 15.3809 4.27246 15.1733 4.45557 14.9536L7.77588 11.0596C8.37402 10.3516 9.0332 9.64355 9.0332 8.82568C9.0332 7.89795 8.38623 7.27539 7.36084 7.27539C6.46973 7.27539 5.83496 7.73926 5.51758 8.6792C5.34668 9.05762 5.15137 9.26514 4.79736 9.26514C4.35791 9.26514 4.08936 8.97217 4.08936 8.5083C4.08936 8.36182 4.11377 8.21533 4.13818 8.05664C4.46777 6.7749 5.81055 5.82275 7.2998 5.82275C9.27734 5.82275 10.5713 6.93359 10.5713 8.69141C10.5713 9.94873 9.87549 10.8521 8.94775 11.9385L6.48193 14.7949L6.48193 14.8926L10.1318 14.8926C10.5225 14.8926 10.8276 15.1489 10.8276 15.625C10.8276 16.0767 10.5225 16.3818 10.1318 16.3818ZM14.0747 16.5283C13.5986 16.5283 13.2324 16.1865 13.2324 15.7104C13.2324 15.4663 13.2568 15.3198 13.3667 15.1245L17.2729 7.59277L17.2729 7.48291L12.8418 7.48291C12.4146 7.48291 12.1216 7.21436 12.1216 6.78711C12.1216 6.35986 12.4146 6.06689 12.8418 6.06689L17.9321 6.06689C18.6157 6.06689 19.0552 6.55518 19.0552 7.16553C19.0552 7.43408 19.0063 7.66602 18.811 8.06885L14.8926 15.918C14.6606 16.3452 14.4165 16.5283 14.0747 16.5283Z" fill="#5ac8f5"/>
 </g>
</svg>
