<?xml version="1.0" encoding="UTF-8"?>
<!--Generator: Apple Native CoreSVG 175.5-->
<!DOCTYPE svg
PUBLIC "-//W3C//DTD SVG 1.1//EN"
       "http://www.w3.org/Graphics/SVG/1.1/DTD/svg11.dtd">
<svg version="1.1" xmlns="http://www.w3.org/2000/svg" xmlns:xlink="http://www.w3.org/1999/xlink" width="24.9023" height="24.9146">
 <g>
  <rect height="24.9146" opacity="0" width="24.9023" x="0" y="0"/>
  <path d="M12.4512 24.9023C19.2627 24.9023 24.9023 19.2505 24.9023 12.4512C24.9023 5.63965 19.2505 0 12.439 0C5.63965 0 0 5.63965 0 12.4512C0 19.2505 5.65186 24.9023 12.4512 24.9023ZM12.4512 22.8271C6.68945 22.8271 2.0874 18.2129 2.0874 12.4512C2.0874 6.68945 6.67725 2.0752 12.439 2.0752C18.2007 2.0752 22.8271 6.68945 22.8271 12.4512C22.8271 18.2129 18.2129 22.8271 12.4512 22.8271ZM10.73 18.7378C13.6719 18.7378 15.4541 16.626 15.4541 13.7695L15.4541 10.1318L15.4053 8.6792L16.1621 9.65576L17.3828 10.9131C17.5415 11.0718 17.7612 11.1938 18.0176 11.1938C18.5181 11.1938 18.9087 10.8032 18.9087 10.3149C18.9087 10.0586 18.8232 9.85107 18.6401 9.68018L15.3442 6.44531C15.1489 6.23779 14.8804 6.11572 14.5996 6.11572C14.3188 6.11572 14.0625 6.23779 13.8672 6.44531L10.5347 9.69238C10.3638 9.86328 10.2783 10.0708 10.2783 10.3271C10.2783 10.8032 10.6689 11.1938 11.1694 11.1938C11.4014 11.1938 11.6333 11.0962 11.8042 10.9253L13.269 9.39941L13.7939 8.6792L13.7451 10.1318L13.7451 13.7695C13.7451 15.564 12.7075 16.9434 10.8276 16.9434C8.91113 16.9434 7.71484 15.6006 7.71484 13.7573C7.71484 13.623 7.71484 12.1094 7.71484 12.0605C7.71484 11.5479 7.40967 11.145 6.84814 11.145C6.28662 11.145 5.96924 11.5479 5.96924 12.085C5.96924 12.146 5.96924 13.623 5.96924 13.7573C5.96924 16.6138 7.80029 18.7378 10.73 18.7378Z" fill="#5ac8f5"/>
 </g>
</svg>
