<?xml version="1.0" encoding="UTF-8"?>
<!--Generator: Apple Native CoreSVG 175.5-->
<!DOCTYPE svg
PUBLIC "-//W3C//DTD SVG 1.1//EN"
       "http://www.w3.org/Graphics/SVG/1.1/DTD/svg11.dtd">
<svg version="1.1" xmlns="http://www.w3.org/2000/svg" xmlns:xlink="http://www.w3.org/1999/xlink" width="24.9023" height="24.9146">
 <g>
  <rect height="24.9146" opacity="0" width="24.9023" x="0" y="0"/>
  <path d="M12.4512 24.9146C19.2627 24.9146 24.9023 19.2749 24.9023 12.4634C24.9023 5.66406 19.2505 0.012207 12.439 0.012207C5.63965 0.012207 0 5.66406 0 12.4634C0 19.2749 5.65186 24.9146 12.4512 24.9146ZM5.29785 16.1133L5.29785 11.4746C7.17773 12.1582 8.94775 12.4878 10.7544 12.6099L10.7544 13.1226C10.7544 13.5742 11.0107 13.8428 11.4502 13.8428L13.4766 13.8428C13.916 13.8428 14.1724 13.5742 14.1724 13.1226L14.1724 12.6099C15.979 12.4878 17.749 12.1582 19.6411 11.4746L19.6411 16.1133C19.6411 17.4438 18.9697 18.0908 17.6514 18.0908L7.27539 18.0908C5.95703 18.0908 5.29785 17.4438 5.29785 16.1133ZM5.29785 10.3516L5.29785 9.85107C5.29785 8.53271 5.95703 7.88574 7.27539 7.88574L8.61816 7.88574L8.61816 7.25098C8.61816 6.25 9.27734 5.63965 10.3027 5.63965L14.624 5.63965C15.6494 5.63965 16.3086 6.25 16.3086 7.25098L16.3086 7.88574L17.6514 7.88574C18.9697 7.88574 19.6411 8.53271 19.6411 9.85107L19.6411 10.3516C17.2607 11.3159 14.9658 11.6577 12.4634 11.6577C9.96094 11.6577 7.66602 11.3159 5.29785 10.3516ZM9.82666 7.88574L15.1001 7.88574L15.1001 7.31201C15.1001 6.98242 14.8804 6.78711 14.5386 6.78711L10.3882 6.78711C10.0342 6.78711 9.82666 6.98242 9.82666 7.31201Z" fill="#5ac8f5"/>
 </g>
</svg>
