<?xml version="1.0" encoding="UTF-8"?>
<!--Generator: Apple Native CoreSVG 175.5-->
<!DOCTYPE svg
PUBLIC "-//W3C//DTD SVG 1.1//EN"
       "http://www.w3.org/Graphics/SVG/1.1/DTD/svg11.dtd">
<svg version="1.1" xmlns="http://www.w3.org/2000/svg" xmlns:xlink="http://www.w3.org/1999/xlink" width="26.9043" height="26.9653">
 <g>
  <rect height="26.9653" opacity="0" width="26.9043" x="0" y="0"/>
  <path d="M7.25098 26.9653C7.72705 26.9653 8.08105 26.7212 8.65479 26.1841L13.0615 22.1558L21.3135 22.1558C24.9512 22.1558 26.9043 20.1538 26.9043 16.5771L26.9043 7.22656C26.9043 3.6499 24.9512 1.63574 21.3135 1.63574L5.59082 1.63574C1.95312 1.63574 0 3.6377 0 7.22656L0 16.5771C0 20.166 1.95312 22.1558 5.59082 22.1558L6.16455 22.1558L6.16455 25.708C6.16455 26.4648 6.55518 26.9653 7.25098 26.9653ZM13.4644 8.43506C12.5 8.43506 11.731 7.65381 11.731 6.70166C11.731 5.74951 12.5 4.96826 13.4644 4.96826C14.4287 4.96826 15.1978 5.74951 15.1978 6.70166C15.1978 7.65381 14.4287 8.43506 13.4644 8.43506ZM13.4644 13.6353C12.5 13.6353 11.731 12.8662 11.731 11.9019C11.731 10.9375 12.5 10.1685 13.4644 10.1685C14.4287 10.1685 15.1978 10.9375 15.1978 11.9019C15.1978 12.8662 14.4287 13.6353 13.4644 13.6353ZM13.4644 18.8232C12.5 18.8232 11.731 18.0542 11.731 17.1021C11.731 16.1377 12.5 15.3687 13.4644 15.3687C14.4287 15.3687 15.1978 16.1377 15.1978 17.1021C15.1978 18.0542 14.4287 18.8232 13.4644 18.8232Z" fill="#5ac8f5"/>
 </g>
</svg>
