<?xml version="1.0" encoding="UTF-8"?>
<!--Generator: Apple Native CoreSVG 175.5-->
<!DOCTYPE svg
PUBLIC "-//W3C//DTD SVG 1.1//EN"
       "http://www.w3.org/Graphics/SVG/1.1/DTD/svg11.dtd">
<svg version="1.1" xmlns="http://www.w3.org/2000/svg" xmlns:xlink="http://www.w3.org/1999/xlink" width="24.9023" height="24.9146">
 <g>
  <rect height="24.9146" opacity="0" width="24.9023" x="0" y="0"/>
  <path d="M7.38525 12.854C7.38525 17.3706 8.74023 21.8384 11.438 24.6582L12.9761 23.8159C10.5713 21.2158 9.33838 17.0654 9.33838 12.854C9.33838 8.38623 10.6201 3.94287 12.9761 1.08643L11.4258 0.256348C8.78906 3.30811 7.38525 8.08105 7.38525 12.854ZM12.0117 16.9434C16.7725 16.9434 21.5454 15.5518 24.5972 12.9028L23.7793 11.3525C20.9229 13.7207 16.4795 14.9902 12.0117 14.9902C7.78809 14.9902 3.6377 13.7573 1.0376 11.3525L0.20752 12.8906C3.01514 15.5884 7.48291 16.9434 12.0117 16.9434ZM12.4512 24.9023C19.2627 24.9023 24.9023 19.2505 24.9023 12.4512C24.9023 5.63965 19.2505 0 12.439 0C5.63965 0 0 5.63965 0 12.4512C0 19.2505 5.65186 24.9023 12.4512 24.9023ZM12.4512 22.8271C6.68945 22.8271 2.0874 18.2129 2.0874 12.4512C2.0874 6.68945 6.67725 2.0752 12.439 2.0752C18.2007 2.0752 22.8271 6.68945 22.8271 12.4512C22.8271 18.2129 18.2129 22.8271 12.4512 22.8271Z" fill="#5ac8f5"/>
 </g>
</svg>
