<?xml version="1.0" encoding="UTF-8"?>
<!--Generator: Apple Native CoreSVG 175.5-->
<!DOCTYPE svg
PUBLIC "-//W3C//DTD SVG 1.1//EN"
       "http://www.w3.org/Graphics/SVG/1.1/DTD/svg11.dtd">
<svg version="1.1" xmlns="http://www.w3.org/2000/svg" xmlns:xlink="http://www.w3.org/1999/xlink" width="24.9023" height="24.9146">
 <g>
  <rect height="24.9146" opacity="0" width="24.9023" x="0" y="0"/>
  <path d="M12.4512 24.9146C19.2627 24.9146 24.9023 19.2749 24.9023 12.4634C24.9023 5.66406 19.2505 0.012207 12.439 0.012207C5.63965 0.012207 0 5.66406 0 12.4634C0 19.2749 5.65186 24.9146 12.4512 24.9146ZM8.58154 18.4692C7.18994 18.4692 6.45752 17.749 6.45752 16.3696L6.45752 9.0332C6.45752 7.65381 7.18994 6.92139 8.58154 6.92139L15.1733 6.92139L13.855 8.23975L8.60596 8.23975C8.05664 8.23975 7.77588 8.5083 7.77588 9.09424L7.77588 16.2964C7.77588 16.8823 8.05664 17.1509 8.60596 17.1509L16.04 17.1509C16.4062 17.1509 16.687 16.8823 16.687 16.2964L16.687 11.1206L17.9932 9.81445L17.9932 16.3696C17.9932 17.749 17.2607 18.4692 16.0522 18.4692ZM10.9619 14.3311C10.7178 14.4287 10.4614 14.1846 10.5713 13.9404L11.1572 12.7319L16.9189 6.95801L18.0176 8.02002L12.2314 13.8062ZM18.5547 7.4707L17.4683 6.39648L18.0176 5.85938C18.2861 5.57861 18.689 5.57861 18.9453 5.83496L19.104 5.99365C19.3481 6.23779 19.3604 6.604 19.0796 6.88477Z" fill="#5ac8f5"/>
 </g>
</svg>
