<?xml version="1.0" encoding="UTF-8"?>
<!--Generator: Apple Native CoreSVG 175.5-->
<!DOCTYPE svg
PUBLIC "-//W3C//DTD SVG 1.1//EN"
       "http://www.w3.org/Graphics/SVG/1.1/DTD/svg11.dtd">
<svg version="1.1" xmlns="http://www.w3.org/2000/svg" xmlns:xlink="http://www.w3.org/1999/xlink" width="21.031" height="20.0073">
 <g>
  <rect height="20.0073" opacity="0" width="21.031" x="0" y="0"/>
  <path d="M8.97217 12.561C10.6812 13.2935 12.6587 12.4512 13.4033 10.7666L15.8691 5.15137C16.6138 3.45459 15.7959 1.45264 14.0869 0.708008C12.3657-0.0244141 10.3882 0.78125 9.63135 2.51465L7.17773 8.12988C6.4209 9.83887 7.25098 11.8164 8.97217 12.561ZM10.2051 11.5601C9.0332 11.5601 8.11768 10.6323 8.11768 9.46045C8.11768 8.30078 9.04541 7.36084 10.2051 7.36084C11.3892 7.36084 12.3169 8.30078 12.3169 9.46045C12.3169 10.6323 11.3892 11.5601 10.2051 11.5601ZM10.2051 10.6934C10.9253 10.6934 11.438 10.144 11.438 9.46045C11.438 8.78906 10.9253 8.22754 10.2051 8.22754C9.50928 8.22754 8.98438 8.78906 8.98438 9.46045C8.98438 10.144 9.50928 10.6934 10.2051 10.6934ZM20.7642 8.97217C20.1294 6.87256 18.5669 5.87158 17.2363 4.74854C17.1631 5.05371 17.0776 5.33447 16.9434 5.62744L14.4775 11.2427C13.4644 13.5498 10.8032 14.6118 8.49609 13.6475C6.23779 12.6587 5.15137 10.1196 6.01807 7.87354C4.89502 9.21631 4.63867 11.2671 5.48096 13.5864C7.00684 17.8711 10.9131 18.6768 14.7461 17.1753L17.0532 16.2598C20.1904 15.0269 21.6797 12.1216 20.7642 8.97217ZM4.37012 13.9893C3.79639 12.4268 3.66211 10.8887 3.9917 9.375C1.69678 9.99756 0 12.0972 0 14.5996C0 17.5903 2.41699 20.0073 5.3833 20.0073C6.73828 20.0073 7.9834 19.519 8.92334 18.6768C6.86035 18.0054 5.23682 16.4062 4.37012 13.9893Z" fill="#5ac8f5"/>
 </g>
</svg>
