<?xml version="1.0" encoding="UTF-8"?>
<!--Generator: Apple Native CoreSVG 175.5-->
<!DOCTYPE svg
PUBLIC "-//W3C//DTD SVG 1.1//EN"
       "http://www.w3.org/Graphics/SVG/1.1/DTD/svg11.dtd">
<svg version="1.1" xmlns="http://www.w3.org/2000/svg" xmlns:xlink="http://www.w3.org/1999/xlink" width="24.2554" height="23.1567">
 <g>
  <rect height="23.1567" opacity="0" width="24.2554" x="0" y="0"/>
  <path d="M12.1216 23.1567C12.3779 23.1567 12.7441 22.9858 13.0127 22.8271C19.8975 18.4326 24.2554 13.3179 24.2554 8.11768C24.2554 3.79639 21.2891 0.744629 17.4438 0.744629C15.0635 0.744629 13.2324 2.06299 12.1216 4.07715C11.0352 2.0752 9.19189 0.744629 6.79932 0.744629C2.96631 0.744629 0 3.79639 0 8.11768C0 13.3179 4.35791 18.4326 11.2427 22.8271C11.499 22.9858 11.8774 23.1567 12.1216 23.1567Z" fill="#5ac8f5" fill-opacity="0.25"/>
  <path d="M13.0005 16.4917C13.0005 17.0044 12.5488 17.4316 12.0239 17.4316C11.499 17.4316 11.0596 17.0044 11.0596 16.4917L11.0596 11.9751L11.1328 9.93652L10.083 11.0229L8.97217 12.1582C8.80127 12.3291 8.54492 12.439 8.30078 12.439C7.77588 12.439 7.40967 12.085 7.40967 11.5601C7.40967 11.2793 7.53174 11.0718 7.72705 10.8887L11.3159 7.59277C11.5845 7.34863 11.7798 7.26318 12.0239 7.26318C12.2681 7.26318 12.4634 7.34863 12.7319 7.59277L16.3208 10.8887C16.5161 11.0718 16.6382 11.2793 16.6382 11.5601C16.6382 12.085 16.2476 12.439 15.7471 12.439C15.4907 12.439 15.2588 12.3291 15.0757 12.1582L13.9648 11.0229L12.915 9.93652L13.0005 11.9751Z" fill="#5ac8f5"/>
 </g>
</svg>
