<?xml version="1.0" encoding="UTF-8"?>
<!--Generator: Apple Native CoreSVG 175.5-->
<!DOCTYPE svg
PUBLIC "-//W3C//DTD SVG 1.1//EN"
       "http://www.w3.org/Graphics/SVG/1.1/DTD/svg11.dtd">
<svg version="1.1" xmlns="http://www.w3.org/2000/svg" xmlns:xlink="http://www.w3.org/1999/xlink" width="24.9023" height="24.9146">
 <g>
  <rect height="24.9146" opacity="0" width="24.9023" x="0" y="0"/>
  <path d="M12.4512 24.9023C19.2627 24.9023 24.9023 19.2505 24.9023 12.4512C24.9023 5.63965 19.2505 0 12.439 0C5.63965 0 0 5.63965 0 12.4512C0 19.2505 5.65186 24.9023 12.4512 24.9023ZM12.4634 18.75C11.9141 18.75 11.5112 18.3594 11.5112 17.7979L11.5112 11.5356L11.6211 8.8623L10.3638 10.376L8.87451 11.8774C8.70361 12.0483 8.45947 12.1582 8.20312 12.1582C7.67822 12.1582 7.2876 11.7554 7.2876 11.2427C7.2876 10.9741 7.36084 10.7544 7.53174 10.5835L11.731 6.39648C11.9873 6.14014 12.1948 6.04248 12.4634 6.04248C12.7441 6.04248 12.9639 6.15234 13.208 6.39648L17.395 10.5835C17.5659 10.7544 17.6636 10.9741 17.6636 11.2427C17.6636 11.7554 17.2607 12.1582 16.7358 12.1582C16.4673 12.1582 16.2354 12.0605 16.0645 11.8774L14.5874 10.376L13.3057 8.8501L13.4155 11.5356L13.4155 17.7979C13.4155 18.3594 13.0249 18.75 12.4634 18.75Z" fill="#5ac8f5"/>
 </g>
</svg>
