<?xml version="1.0" encoding="UTF-8"?>
<!--Generator: Apple Native CoreSVG 175.5-->
<!DOCTYPE svg
PUBLIC "-//W3C//DTD SVG 1.1//EN"
       "http://www.w3.org/Graphics/SVG/1.1/DTD/svg11.dtd">
<svg version="1.1" xmlns="http://www.w3.org/2000/svg" xmlns:xlink="http://www.w3.org/1999/xlink" width="22.4976" height="25.5005">
 <g>
  <rect height="25.5005" opacity="0" width="22.4976" x="0" y="0"/>
  <path d="M0.964355 15.5884C1.53809 15.5884 1.96533 15.1489 1.96533 14.5996L1.96533 10.9009C1.96533 10.3516 1.53809 9.8999 0.964355 9.8999C0.415039 9.8999 0 10.3516 0 10.9009L0 14.5996C0 15.1489 0.415039 15.5884 0.964355 15.5884ZM5.07812 20.5811C5.63965 20.5811 6.06689 20.1416 6.06689 19.5923L6.06689 5.9082C6.06689 5.35889 5.63965 4.90723 5.07812 4.90723C4.52881 4.90723 4.10156 5.35889 4.10156 5.9082L4.10156 19.5923C4.10156 20.1416 4.52881 20.5811 5.07812 20.5811ZM9.17969 25.5005C9.74121 25.5005 10.1807 25.061 10.1807 24.5117L10.1807 0.98877C10.1807 0.439453 9.74121 0 9.17969 0C8.63037 0 8.21533 0.439453 8.21533 0.98877L8.21533 24.5117C8.21533 25.061 8.63037 25.5005 9.17969 25.5005ZM13.2935 19.0918C13.855 19.0918 14.2822 18.6646 14.2822 18.1152L14.2822 7.38525C14.2822 6.83594 13.855 6.39648 13.2935 6.39648C12.7319 6.39648 12.3169 6.83594 12.3169 7.38525L12.3169 18.1152C12.3169 18.6646 12.7319 19.0918 13.2935 19.0918ZM17.4072 22.7905C17.9565 22.7905 18.3838 22.3511 18.3838 21.814L18.3838 3.68652C18.3838 3.14941 17.9565 2.69775 17.4072 2.69775C16.8335 2.69775 16.4185 3.14941 16.4185 3.68652L16.4185 21.814C16.4185 22.3511 16.8335 22.7905 17.4072 22.7905ZM21.5088 16.6382C22.0581 16.6382 22.4976 16.1987 22.4976 15.6616L22.4976 9.83887C22.4976 9.30176 22.0581 8.8501 21.5088 8.8501C20.9473 8.8501 20.5322 9.30176 20.5322 9.83887L20.5322 15.6616C20.5322 16.1987 20.9473 16.6382 21.5088 16.6382Z" fill="#5ac8f5"/>
 </g>
</svg>
