<?xml version="1.0" encoding="UTF-8"?>
<!--Generator: Apple Native CoreSVG 175.5-->
<!DOCTYPE svg
PUBLIC "-//W3C//DTD SVG 1.1//EN"
       "http://www.w3.org/Graphics/SVG/1.1/DTD/svg11.dtd">
<svg version="1.1" xmlns="http://www.w3.org/2000/svg" xmlns:xlink="http://www.w3.org/1999/xlink" width="20.5322" height="26.1841">
 <g>
  <rect height="26.1841" opacity="0" width="20.5322" x="0" y="0"/>
  <path d="M4.50439 4.04053C4.00391 4.04053 3.71094 4.35791 3.71094 4.87061L3.71094 6.90918C3.71094 7.42188 4.00391 7.73926 4.50439 7.73926L11.9873 7.73926C12.4756 7.73926 12.7686 7.42188 12.7686 6.90918L12.7686 4.87061C12.7686 4.35791 12.4756 4.04053 11.9873 4.04053ZM4.50439 8.83789C4.00391 8.83789 3.71094 9.15527 3.71094 9.65576L3.71094 11.7065C3.71094 12.207 4.00391 12.5244 4.50439 12.5244L16.0522 12.5244C16.5405 12.5244 16.8335 12.207 16.8335 11.6943L16.8335 9.65576C16.8335 9.15527 16.5405 8.83789 16.0522 8.83789ZM4.50439 13.6353C4.00391 13.6353 3.71094 13.9404 3.71094 14.4409L3.71094 16.5039C3.71094 17.0166 4.00391 17.3218 4.50439 17.3218L14.0381 17.3218C14.5264 17.3218 14.8193 17.0166 14.8193 16.5039L14.8193 14.4409C14.8193 13.9404 14.5264 13.6353 14.0381 13.6353ZM4.50439 18.4204C4.00391 18.4204 3.71094 18.7378 3.71094 19.2505L3.71094 21.2891C3.71094 21.8018 4.00391 22.1191 4.50439 22.1191L10.022 22.1191C10.498 22.1191 10.8032 21.8018 10.8032 21.2891L10.8032 19.2505C10.8032 18.7378 10.498 18.4204 10.022 18.4204ZM0 22.3511C0 24.9023 1.25732 26.1719 3.78418 26.1719L16.748 26.1719C19.2749 26.1719 20.5322 24.9023 20.5322 22.3511L20.5322 3.83301C20.5322 1.29395 19.2749 0 16.748 0L3.78418 0C1.25732 0 0 1.29395 0 3.83301ZM1.96533 22.3145L1.96533 3.86963C1.96533 2.64893 2.6123 1.96533 3.88184 1.96533L16.6504 1.96533C17.9199 1.96533 18.5669 2.64893 18.5669 3.86963L18.5669 22.3145C18.5669 23.5352 17.9199 24.2065 16.6504 24.2065L3.88184 24.2065C2.6123 24.2065 1.96533 23.5352 1.96533 22.3145Z" fill="#5ac8f5"/>
 </g>
</svg>
