<?xml version="1.0" encoding="UTF-8"?>
<!--Generator: Apple Native CoreSVG 175.5-->
<!DOCTYPE svg
PUBLIC "-//W3C//DTD SVG 1.1//EN"
       "http://www.w3.org/Graphics/SVG/1.1/DTD/svg11.dtd">
<svg version="1.1" xmlns="http://www.w3.org/2000/svg" xmlns:xlink="http://www.w3.org/1999/xlink" width="28.0029" height="21.9116">
 <g>
  <rect height="21.9116" opacity="0" width="28.0029" x="0" y="0"/>
  <path d="M1.25732 17.0532C2.0752 17.0532 2.50244 16.626 2.50244 15.8081L2.50244 6.10352C2.50244 5.28564 2.0752 4.8584 1.25732 4.8584C0.427246 4.8584 0 5.28564 0 6.10352L0 15.8081C0 16.626 0.427246 17.0532 1.25732 17.0532ZM7.62939 13.9771C8.44727 13.9771 8.87451 13.5498 8.87451 12.7197L8.87451 9.19189C8.87451 8.36182 8.44727 7.93457 7.62939 7.93457C6.81152 7.93457 6.38428 8.36182 6.38428 9.19189L6.38428 12.7197C6.38428 13.5498 6.81152 13.9771 7.62939 13.9771ZM14.0015 21.9116C14.8193 21.9116 15.2588 21.4844 15.2588 20.6665L15.2588 1.24512C15.2588 0.427246 14.8193 0 14.0015 0C13.1836 0 12.7441 0.427246 12.7441 1.24512L12.7441 20.6665C12.7441 21.4844 13.1836 21.9116 14.0015 21.9116ZM20.3735 13.9771C21.1914 13.9771 21.6187 13.5498 21.6187 12.7197L21.6187 9.19189C21.6187 8.36182 21.1914 7.93457 20.3735 7.93457C19.5557 7.93457 19.1284 8.36182 19.1284 9.19189L19.1284 12.7197C19.1284 13.5498 19.5557 13.9771 20.3735 13.9771ZM26.7456 17.0532C27.5757 17.0532 28.0029 16.626 28.0029 15.8081L28.0029 6.10352C28.0029 5.28564 27.5757 4.8584 26.7456 4.8584C25.9277 4.8584 25.5005 5.28564 25.5005 6.10352L25.5005 15.8081C25.5005 16.626 25.9277 17.0532 26.7456 17.0532Z" fill="#5ac8f5"/>
 </g>
</svg>
