<?xml version="1.0" encoding="UTF-8"?>
<!--Generator: Apple Native CoreSVG 175.5-->
<!DOCTYPE svg
PUBLIC "-//W3C//DTD SVG 1.1//EN"
       "http://www.w3.org/Graphics/SVG/1.1/DTD/svg11.dtd">
<svg version="1.1" xmlns="http://www.w3.org/2000/svg" xmlns:xlink="http://www.w3.org/1999/xlink" width="22.4731" height="22.4976">
 <g>
  <rect height="22.4976" opacity="0" width="22.4731" x="0" y="0"/>
  <path d="M3.83301 22.4976L18.6401 22.4976C21.2036 22.4976 22.4731 21.228 22.4731 18.7134L22.4731 3.80859C22.4731 1.29395 21.2036 0.0244141 18.6401 0.0244141L3.83301 0.0244141C1.28174 0.0244141 0 1.28174 0 3.80859L0 18.7134C0 21.2402 1.28174 22.4976 3.83301 22.4976Z" fill="#5ac8f5" fill-opacity="0.25"/>
  <path d="M8.72803 16.6504C8.22754 16.6504 7.97119 16.2842 7.97119 15.7959L7.97119 14.3188L4.29688 14.3188C3.66211 14.3188 3.22266 13.916 3.22266 13.2446C3.22266 12.9028 3.2959 12.6221 3.50342 12.2314C4.3457 10.7056 5.60303 8.55713 6.66504 6.78711C7.06787 6.09131 7.51953 5.81055 8.26416 5.81055C8.99658 5.81055 9.49707 6.28662 9.49707 7.01904L9.49707 12.9028L10.1807 12.9028C10.6201 12.9028 10.8887 13.1714 10.8887 13.623C10.8887 14.0625 10.6201 14.3188 10.1807 14.3188L9.49707 14.3188L9.49707 15.7959C9.49707 16.2964 9.22852 16.6504 8.72803 16.6504ZM7.97119 12.9028L7.97119 7.51953L7.91016 7.51953C6.89697 9.22852 5.61523 11.4258 4.88281 12.854L4.88281 12.9028ZM15.6616 16.687C14.3921 16.687 13.3057 16.1987 12.6709 14.978C12.2437 14.1968 11.9873 13.0737 11.9873 11.5356C11.9873 7.70264 13.4888 5.81055 15.9058 5.81055C17.334 5.81055 18.3472 6.55518 18.6768 7.39746C18.7378 7.56836 18.7744 7.71484 18.7744 7.88574C18.7744 8.30078 18.4937 8.58154 18.1396 8.58154C17.7979 8.58154 17.6025 8.42285 17.3828 8.10547C17.0654 7.61719 16.5649 7.27539 15.8447 7.27539C14.4287 7.27539 13.4644 8.76465 13.4644 11.1328C13.4644 11.1938 13.4644 11.2183 13.4644 11.2549L13.562 11.2549C13.8672 10.4248 14.7095 9.66797 16.0522 9.66797C17.688 9.66797 19.165 10.8643 19.165 13.0249C19.165 15.332 17.7124 16.687 15.6616 16.687ZM15.5884 15.2954C16.8091 15.2954 17.5659 14.4409 17.5659 13.0981C17.5659 11.8408 16.7847 10.9741 15.6006 10.9741C14.4165 10.9741 13.6108 11.853 13.6108 13.0859C13.6108 14.3799 14.4287 15.2954 15.5884 15.2954Z" fill="#5ac8f5"/>
 </g>
</svg>
