<?xml version="1.0" encoding="UTF-8"?>
<!--Generator: Apple Native CoreSVG 175.5-->
<!DOCTYPE svg
PUBLIC "-//W3C//DTD SVG 1.1//EN"
       "http://www.w3.org/Graphics/SVG/1.1/DTD/svg11.dtd">
<svg version="1.1" xmlns="http://www.w3.org/2000/svg" xmlns:xlink="http://www.w3.org/1999/xlink" width="24.9023" height="29.6406">
 <g>
  <rect height="29.6406" opacity="0" width="24.9023" x="0" y="0"/>
  <path d="M0 14.8142C0 21.6257 5.65186 27.2654 12.4512 27.2654C19.2627 27.2654 24.9023 21.6257 24.9023 14.8142C24.9023 10.7126 22.8271 7.02611 19.6899 4.7434C19.1528 4.32836 18.4814 4.46263 18.1763 4.96312C17.8711 5.47582 18.0298 6.04955 18.5303 6.42797C21.1304 8.28343 22.8149 11.3474 22.8271 14.8142C22.8394 20.5759 18.2129 25.1902 12.4512 25.1902C6.68945 25.1902 2.0874 20.5759 2.0874 14.8142C2.0874 9.87035 5.48096 5.76879 10.0952 4.71898L10.0952 6.46459C10.0952 7.33129 10.6934 7.56322 11.3647 7.08715L15.2588 4.35277C15.8081 3.97435 15.8203 3.38842 15.2588 2.98558L11.377 0.251208C10.6934-0.237073 10.0952-0.00513969 10.0952 0.873767L10.0952 2.59496C4.38232 3.718 0 8.80834 0 14.8142ZM8.52051 19.9534C10.498 19.9534 11.7676 18.6472 11.7676 16.6453C11.7676 14.8752 10.5469 13.6179 8.89893 13.6179C7.75146 13.6179 6.88477 14.1916 6.55518 15.0461L6.61621 15.1316C6.61621 15.0583 6.61621 15.0461 6.61621 14.9851C6.61621 12.9709 7.43408 11.6404 8.69141 11.6404C9.32617 11.6404 9.729 11.8845 10.0098 12.3484C10.2173 12.6658 10.4126 12.8 10.7788 12.8C11.145 12.8 11.4014 12.5193 11.4014 12.1286C11.4014 11.9578 11.3647 11.7991 11.3159 11.6648C10.9863 10.8469 10.0464 10.2244 8.75244 10.2244C6.4209 10.2244 5.12695 12.0554 5.12695 15.3269C5.12695 16.6208 5.32227 17.6706 5.74951 18.4275C6.28662 19.4407 7.2876 19.9534 8.52051 19.9534ZM8.45947 18.5984C7.4585 18.5984 6.73828 17.8171 6.73828 16.7185C6.73828 15.6443 7.44629 14.8996 8.45947 14.8996C9.47266 14.8996 10.1807 15.6321 10.1807 16.7185C10.1807 17.8782 9.50928 18.5984 8.45947 18.5984ZM16.5649 19.9534C18.5913 19.9534 19.9219 18.0369 19.9219 15.1072C19.9219 12.1531 18.5913 10.2121 16.5649 10.2121C14.5264 10.2121 13.208 12.1531 13.208 15.1194C13.208 18.0491 14.5386 19.9534 16.5649 19.9534ZM16.5649 18.4763C15.4785 18.4763 14.7949 17.1946 14.7949 15.1072C14.7949 12.9831 15.4663 11.6892 16.5649 11.6892C17.6514 11.6892 18.3228 12.9709 18.3228 15.1072C18.3228 17.1946 17.6392 18.4763 16.5649 18.4763Z" fill="#5ac8f5"/>
 </g>
</svg>
