<?xml version="1.0" encoding="UTF-8"?>
<!--Generator: Apple Native CoreSVG 175.5-->
<!DOCTYPE svg
PUBLIC "-//W3C//DTD SVG 1.1//EN"
       "http://www.w3.org/Graphics/SVG/1.1/DTD/svg11.dtd">
<svg version="1.1" xmlns="http://www.w3.org/2000/svg" xmlns:xlink="http://www.w3.org/1999/xlink" width="23.3643" height="22.8149">
 <g>
  <rect height="22.8149" opacity="0" width="23.3643" x="0" y="0"/>
  <path d="M2.88086 16.7114C2.88086 15.9912 2.29492 15.3931 1.55029 15.3931C0.830078 15.3931 0.244141 15.9912 0.244141 16.7114C0.244141 17.4438 0.830078 18.0176 1.55029 18.0176C2.29492 18.0176 2.88086 17.4438 2.88086 16.7114ZM2.88086 21.4966C2.88086 20.7764 2.29492 20.166 1.55029 20.166C0.830078 20.166 0.244141 20.7764 0.244141 21.4966C0.244141 22.229 0.830078 22.8149 1.55029 22.8149C2.29492 22.8149 2.88086 22.229 2.88086 21.4966ZM22.9248 16.7114C22.9248 16.1743 22.4854 15.7715 21.8872 15.7715L5.45654 15.7715C4.8584 15.7715 4.41895 16.1743 4.41895 16.7114C4.41895 17.2485 4.8584 17.6636 5.45654 17.6636L21.8872 17.6636C22.4854 17.6636 22.9248 17.2485 22.9248 16.7114ZM22.9248 21.4966C22.9248 20.9595 22.4854 20.5566 21.8872 20.5566L5.45654 20.5566C4.8584 20.5566 4.41895 20.9595 4.41895 21.4966C4.41895 22.0337 4.8584 22.4487 5.45654 22.4487L21.8872 22.4487C22.4854 22.4487 22.9248 22.0337 22.9248 21.4966ZM3.38135 0.292969C0.891113 0.292969 0 1.37939 0 3.74756L0 9.42383C0 11.792 0.891113 12.8784 3.38135 12.8784L19.9829 12.8784C22.4731 12.8784 23.3643 11.792 23.3643 9.42383L23.3643 3.74756C23.3643 1.37939 22.4731 0.292969 19.9829 0.292969ZM1.96533 9.48486L1.96533 3.68652C1.96533 2.6001 2.31934 2.12402 3.39355 2.12402L19.9707 2.12402C21.0449 2.12402 21.3989 2.6001 21.3989 3.68652L21.3989 9.48486C21.3989 10.5713 21.0449 11.0474 19.9707 11.0474L3.39355 11.0474C2.31934 11.0474 1.96533 10.5713 1.96533 9.48486Z" fill="#5ac8f5"/>
 </g>
</svg>
