<?xml version="1.0" encoding="UTF-8"?>
<!--Generator: Apple Native CoreSVG 175.5-->
<!DOCTYPE svg
PUBLIC "-//W3C//DTD SVG 1.1//EN"
       "http://www.w3.org/Graphics/SVG/1.1/DTD/svg11.dtd">
<svg version="1.1" xmlns="http://www.w3.org/2000/svg" xmlns:xlink="http://www.w3.org/1999/xlink" width="22.4731" height="22.4976">
 <g>
  <rect height="22.4976" opacity="0" width="22.4731" x="0" y="0"/>
  <path d="M3.83301 22.4976L18.6401 22.4976C21.2036 22.4976 22.4731 21.228 22.4731 18.7134L22.4731 3.80859C22.4731 1.29395 21.2036 0.0244141 18.6401 0.0244141L3.83301 0.0244141C1.28174 0.0244141 0 1.28174 0 3.80859L0 18.7134C0 21.2402 1.28174 22.4976 3.83301 22.4976Z" fill="#5ac8f5" fill-opacity="0.25"/>
  <path d="M6.43311 17.1631C5.74951 17.1631 5.24902 16.6626 5.24902 15.979L5.24902 6.53076C5.24902 5.84717 5.74951 5.34668 6.43311 5.34668L16.1133 5.34668C16.7969 5.34668 17.2974 5.84717 17.2974 6.53076L17.2974 15.979C17.2974 16.6626 16.7969 17.1631 16.1133 17.1631ZM10.9741 10.3394L11.5479 10.3394C11.853 10.3394 12.085 10.144 12.085 9.82666L12.085 7.76367C12.085 7.4585 11.853 7.25098 11.5479 7.25098L10.9741 7.25098C10.6689 7.25098 10.4614 7.4585 10.4614 7.76367L10.4614 9.82666C10.4614 10.144 10.6689 10.3394 10.9741 10.3394ZM7.61719 15.1489L9.58252 15.1489C9.87549 15.1489 10.083 14.9414 10.083 14.6362L10.083 14.0503C10.083 13.7451 9.87549 13.5254 9.58252 13.5254L7.61719 13.5254C7.2998 13.5254 7.09229 13.7451 7.09229 14.0503L7.09229 14.6362C7.09229 14.9414 7.2998 15.1489 7.61719 15.1489ZM12.9883 15.1489L14.9292 15.1489C15.2466 15.1489 15.4541 14.9414 15.4541 14.6362L15.4541 14.0503C15.4541 13.7451 15.2466 13.5254 14.9292 13.5254L12.9883 13.5254C12.6709 13.5254 12.4634 13.7451 12.4634 14.0503L12.4634 14.6362C12.4634 14.9414 12.6709 15.1489 12.9883 15.1489Z" fill="#5ac8f5"/>
 </g>
</svg>
