<?xml version="1.0" encoding="UTF-8"?>
<!--Generator: Apple Native CoreSVG 175.5-->
<!DOCTYPE svg
PUBLIC "-//W3C//DTD SVG 1.1//EN"
       "http://www.w3.org/Graphics/SVG/1.1/DTD/svg11.dtd">
<svg version="1.1" xmlns="http://www.w3.org/2000/svg" xmlns:xlink="http://www.w3.org/1999/xlink" width="22.4731" height="22.4976">
 <g>
  <rect height="22.4976" opacity="0" width="22.4731" x="0" y="0"/>
  <path d="M3.83301 22.4976L18.6401 22.4976C21.2036 22.4976 22.4731 21.228 22.4731 18.7134L22.4731 3.80859C22.4731 1.29395 21.2036 0.0244141 18.6401 0.0244141L3.83301 0.0244141C1.28174 0.0244141 0 1.28174 0 3.80859L0 18.7134C0 21.2402 1.28174 22.4976 3.83301 22.4976ZM3.85742 20.5322C2.63672 20.5322 1.96533 19.8853 1.96533 18.6157L1.96533 3.90625C1.96533 2.63672 2.63672 1.98975 3.85742 1.98975L18.6157 1.98975C19.8242 1.98975 20.5078 2.63672 20.5078 3.90625L20.5078 18.6157C20.5078 19.8853 19.8242 20.5322 18.6157 20.5322ZM2.84424 21.2524L19.6533 21.2524C18.9331 17.8223 15.4907 15.332 11.2549 15.332C7.00684 15.332 3.56445 17.8223 2.84424 21.2524ZM11.2427 13.2935C13.5742 13.3179 15.4175 11.3281 15.4175 8.71582C15.4175 6.26221 13.5742 4.23584 11.2427 4.23584C8.91113 4.23584 7.05566 6.26221 7.06787 8.71582C7.08008 11.3281 8.91113 13.269 11.2427 13.2935Z" fill="#5ac8f5"/>
 </g>
</svg>
