<?xml version="1.0" encoding="UTF-8"?>
<!--Generator: Apple Native CoreSVG 175.5-->
<!DOCTYPE svg
PUBLIC "-//W3C//DTD SVG 1.1//EN"
       "http://www.w3.org/Graphics/SVG/1.1/DTD/svg11.dtd">
<svg version="1.1" xmlns="http://www.w3.org/2000/svg" xmlns:xlink="http://www.w3.org/1999/xlink" width="11.499" height="27.4292">
 <g>
  <rect height="27.4292" opacity="0" width="11.499" x="0" y="0"/>
  <path d="M0 16.4551C0 17.0654 0.476074 17.5415 1.08643 17.5415C1.68457 17.5415 2.16064 17.0654 2.16064 16.4551L2.16064 11.7554C2.16064 11.5356 2.34375 11.3647 2.56348 11.3647C2.7832 11.3647 2.9541 11.5356 2.9541 11.7554L2.9541 25.9888C2.9541 26.6479 3.49121 27.1729 4.15039 27.1729C4.80957 27.1729 5.34668 26.6479 5.34668 25.9888L5.34668 17.334C5.34668 17.1143 5.52979 16.9189 5.74951 16.9189C5.96924 16.9189 6.16455 17.1143 6.16455 17.334L6.16455 25.9888C6.16455 26.6479 6.68945 27.1729 7.34863 27.1729C8.00781 27.1729 8.54492 26.6479 8.54492 25.9888L8.54492 11.7554C8.54492 11.5356 8.71582 11.3647 8.93555 11.3647C9.15527 11.3647 9.33838 11.5356 9.33838 11.7554L9.33838 16.4551C9.33838 17.0654 9.81445 17.5415 10.4126 17.5415C11.0229 17.5415 11.499 17.0654 11.499 16.4551L11.499 11.2061C11.499 8.5083 9.52148 6.72607 6.62842 6.72607L4.87061 6.72607C1.97754 6.72607 0 8.5083 0 11.2061ZM5.74951 5.32227C7.22656 5.32227 8.41064 4.13818 8.41064 2.66113C8.41064 1.18408 7.22656 0 5.74951 0C4.27246 0 3.08838 1.18408 3.08838 2.66113C3.08838 4.13818 4.27246 5.32227 5.74951 5.32227Z" fill="#5ac8f5"/>
 </g>
</svg>
