<?xml version="1.0" encoding="UTF-8"?>
<!--Generator: Apple Native CoreSVG 175.5-->
<!DOCTYPE svg
PUBLIC "-//W3C//DTD SVG 1.1//EN"
       "http://www.w3.org/Graphics/SVG/1.1/DTD/svg11.dtd">
<svg version="1.1" xmlns="http://www.w3.org/2000/svg" xmlns:xlink="http://www.w3.org/1999/xlink" width="24.9023" height="24.9146">
 <g>
  <rect height="24.9146" opacity="0" width="24.9023" x="0" y="0"/>
  <path d="M12.4512 24.9023C19.2627 24.9023 24.9023 19.2505 24.9023 12.4512C24.9023 5.63965 19.2505 0 12.439 0C5.63965 0 0 5.63965 0 12.4512C0 19.2505 5.65186 24.9023 12.4512 24.9023Z" fill="#5ac8f5" fill-opacity="0.25"/>
  <path d="M12.4634 6.9458C11.9751 6.9458 11.5967 6.56738 11.5967 6.06689C11.5967 5.57861 11.9751 5.18799 12.4634 5.18799C12.9517 5.18799 13.3423 5.57861 13.3423 6.06689C13.3423 6.56738 12.9517 6.9458 12.4634 6.9458ZM15.2222 7.69043C14.7827 7.43408 14.6484 6.89697 14.9048 6.46973C15.1489 6.05469 15.686 5.92041 16.1011 6.16455C16.5283 6.39648 16.6748 6.9458 16.4185 7.37305C16.1865 7.80029 15.6616 7.93457 15.2222 7.69043ZM17.2363 9.7168C16.9922 9.26514 17.1265 8.74023 17.5537 8.5083C18.0054 8.23975 18.5303 8.39844 18.7622 8.82568C19.0063 9.24072 18.8721 9.79004 18.4326 10.022C18.0298 10.2783 17.4805 10.1318 17.2363 9.7168ZM17.981 12.4512C17.981 11.9629 18.3594 11.5845 18.8599 11.5845C19.3481 11.5845 19.7388 11.9629 19.7388 12.4512C19.7388 12.9395 19.3481 13.3301 18.8599 13.3301C18.3594 13.3301 17.981 12.9395 17.981 12.4512ZM17.2363 15.21C17.4927 14.7705 18.0298 14.6362 18.4448 14.8926C18.8721 15.1367 19.0063 15.6738 18.7622 16.0889C18.5303 16.5161 17.981 16.6626 17.5537 16.4062C17.1265 16.1743 16.9922 15.6494 17.2363 15.21ZM15.21 17.2241C15.6616 16.98 16.1865 17.1143 16.4185 17.5415C16.6626 17.9932 16.5283 18.5181 16.1011 18.75C15.686 18.9941 15.1367 18.8599 14.9048 18.4204C14.6484 18.0176 14.7827 17.4683 15.21 17.2241ZM12.4634 17.9688C12.9517 17.9688 13.3423 18.3472 13.3423 18.8477C13.3423 19.3359 12.9517 19.7266 12.4634 19.7266C11.9751 19.7266 11.5967 19.3359 11.5967 18.8477C11.5967 18.3472 11.9751 17.9688 12.4634 17.9688ZM9.7168 17.2241C10.144 17.4805 10.2905 18.0176 10.022 18.4326C9.79004 18.8599 9.25293 18.9941 8.83789 18.75C8.41064 18.5181 8.25195 17.9688 8.52051 17.5415C8.75244 17.1143 9.27734 16.98 9.7168 17.2241ZM7.70264 15.1978C7.94678 15.6494 7.8125 16.1743 7.38525 16.4062C6.93359 16.6626 6.40869 16.5161 6.17676 16.0889C5.93262 15.6738 6.06689 15.1245 6.49414 14.8926C6.90918 14.6362 7.44629 14.7705 7.70264 15.1978ZM6.95801 12.4634C6.95801 12.9395 6.57959 13.3301 6.0791 13.3301C5.59082 13.3301 5.2002 12.9395 5.2002 12.4512C5.2002 11.9629 5.59082 11.5845 6.0791 11.5845C6.57959 11.5845 6.95801 11.9751 6.95801 12.4634ZM7.70264 9.7168C7.44629 10.1318 6.90918 10.2783 6.48193 10.022C6.06689 9.77783 5.93262 9.24072 6.17676 8.82568C6.40869 8.39844 6.95801 8.23975 7.38525 8.5083C7.8125 8.74023 7.94678 9.26514 7.70264 9.7168ZM9.7168 7.69043C9.27734 7.93457 8.75244 7.80029 8.52051 7.37305C8.26416 6.92139 8.41064 6.39648 8.83789 6.16455C9.25293 5.92041 9.80225 6.05469 10.022 6.48193C10.2905 6.89697 10.144 7.43408 9.7168 7.69043ZM12.4512 16.7969C10.0586 16.7969 8.10547 14.8438 8.10547 12.4512C8.10547 10.0586 10.0586 8.10547 12.4512 8.10547C14.8438 8.10547 16.7969 10.0586 16.7969 12.4512C16.7969 14.8438 14.8438 16.7969 12.4512 16.7969Z" fill="#5ac8f5"/>
 </g>
</svg>
