<?xml version="1.0" encoding="UTF-8"?>
<!--Generator: Apple Native CoreSVG 175.5-->
<!DOCTYPE svg
PUBLIC "-//W3C//DTD SVG 1.1//EN"
       "http://www.w3.org/Graphics/SVG/1.1/DTD/svg11.dtd">
<svg version="1.1" xmlns="http://www.w3.org/2000/svg" xmlns:xlink="http://www.w3.org/1999/xlink" width="17.0288" height="22.522">
 <g>
  <rect height="22.522" opacity="0" width="17.0288" x="0" y="0"/>
  <path d="M8.41064 0C5.9082 0 3.62549 0.976562 2.45361 3.07617C2.16064 3.51562 1.98975 3.94287 1.97754 4.45557C1.97754 5.0415 2.34375 5.48096 3.01514 5.48096C3.45459 5.48096 3.80859 5.29785 4.06494 4.69971C4.77295 2.9541 6.51855 2.05078 8.48389 2.05078C10.9497 2.05078 13.0127 3.28369 13.0127 5.56641C13.0127 6.5918 12.4634 7.75146 11.2427 8.27637L13.8306 8.27637C14.7583 7.54395 15.2588 6.49414 15.2588 5.41992C15.2588 1.95312 12.1338 0 8.41064 0ZM0.78125 9.59473L16.2354 9.59473C16.6992 9.59473 17.0288 9.24072 17.0288 8.80127C17.0288 8.3374 16.6992 8.00781 16.2354 8.00781L0.78125 8.00781C0.341797 8.00781 0 8.3374 0 8.80127C0 9.24072 0.341797 9.59473 0.78125 9.59473ZM0.78125 13.855L16.2354 13.855C16.6992 13.855 17.0288 13.501 17.0288 13.0615C17.0288 12.5977 16.6992 12.2681 16.2354 12.2681L0.78125 12.2681C0.341797 12.2681 0 12.5977 0 13.0615C0 13.501 0.341797 13.855 0.78125 13.855ZM8.53271 22.5098C11.731 22.5098 14.0625 21.167 15.1489 19.043C15.4297 18.6035 15.625 18.1885 15.625 17.6514C15.625 17.0532 15.1978 16.6382 14.5996 16.6382C13.9893 16.6382 13.6841 16.9556 13.4644 17.4316C12.6831 19.4458 10.9863 20.459 8.47168 20.459C5.51758 20.459 3.6377 18.8354 3.6377 16.9067C3.6377 15.5518 4.35791 14.27 6.16455 13.5498L3.40576 13.5498C2.13623 14.3066 1.37939 15.5884 1.37939 17.0044C1.37939 20.0562 4.15039 22.5098 8.53271 22.5098Z" fill="#5ac8f5"/>
 </g>
</svg>
