<?xml version="1.0" encoding="UTF-8"?>
<!--Generator: Apple Native CoreSVG 175.5-->
<!DOCTYPE svg
PUBLIC "-//W3C//DTD SVG 1.1//EN"
       "http://www.w3.org/Graphics/SVG/1.1/DTD/svg11.dtd">
<svg version="1.1" xmlns="http://www.w3.org/2000/svg" xmlns:xlink="http://www.w3.org/1999/xlink" width="24.9023" height="24.9146">
 <g>
  <rect height="24.9146" opacity="0" width="24.9023" x="0" y="0"/>
  <path d="M12.4512 24.9023C19.2627 24.9023 24.9023 19.2505 24.9023 12.4512C24.9023 5.63965 19.2505 0 12.439 0C5.63965 0 0 5.63965 0 12.4512C0 19.2505 5.65186 24.9023 12.4512 24.9023ZM12.4512 22.8271C6.68945 22.8271 2.0874 18.2129 2.0874 12.4512C2.0874 6.68945 6.67725 2.0752 12.439 2.0752C18.2007 2.0752 22.8271 6.68945 22.8271 12.4512C22.8271 18.2129 18.2129 22.8271 12.4512 22.8271ZM5.15137 15.5884C5.16357 15.8325 5.31006 15.9424 5.5542 15.9424C6.89697 15.918 8.00781 15.2954 8.98438 14.1479C10.022 15.1733 11.2183 15.7959 12.4756 16.0767L12.2803 17.6758C12.2314 18.0786 12.4512 18.2983 12.915 18.2373C14.3066 18.0054 15.8325 17.0288 16.6504 15.8447C18.6646 15.2344 20.5322 13.9648 20.5322 12.439C20.5322 10.9741 18.8232 9.75342 16.8945 9.09424C16.1865 6.73828 13.0737 5.65186 10.8643 6.87256C10.6323 6.99463 10.6079 7.18994 10.791 7.44629C11.3037 8.11768 11.4746 8.5083 11.5845 9.05762C10.6323 9.41162 9.76562 9.94873 8.98438 10.7422C8.00781 9.59473 6.89697 8.94775 5.5542 8.94775C5.31006 8.94775 5.16357 9.05762 5.15137 9.27734C5.0293 10.4492 5.56641 11.6943 6.40869 12.439C5.56641 13.1714 5.0415 14.4287 5.15137 15.5884ZM17.5903 12.8418C17.2241 12.8418 16.9312 12.561 16.9312 12.1948C16.9312 11.8286 17.2241 11.5479 17.5903 11.5479C17.9443 11.5479 18.2373 11.8286 18.2373 12.1948C18.2373 12.561 17.9443 12.8418 17.5903 12.8418Z" fill="#5ac8f5"/>
 </g>
</svg>
