<?xml version="1.0" encoding="UTF-8"?>
<!--Generator: Apple Native CoreSVG 175.5-->
<!DOCTYPE svg
PUBLIC "-//W3C//DTD SVG 1.1//EN"
       "http://www.w3.org/Graphics/SVG/1.1/DTD/svg11.dtd">
<svg version="1.1" xmlns="http://www.w3.org/2000/svg" xmlns:xlink="http://www.w3.org/1999/xlink" width="22.5098" height="22.7173">
 <g>
  <rect height="22.7173" opacity="0" width="22.5098" x="0" y="0"/>
  <path d="M21.0815 1.74561C19.8364 0.500488 18.0786 0.305176 15.9912 0.305176L6.48193 0.305176C4.43115 0.305176 2.67334 0.500488 1.42822 1.74561C0.183105 2.99072 0 4.73633 0 6.78711L0 16.1987C0 18.2861 0.183105 20.0317 1.42822 21.2769C2.67334 22.522 4.43115 22.7173 6.50635 22.7173L15.9912 22.7173C18.0786 22.7173 19.8364 22.522 21.0815 21.2769C22.3267 20.0317 22.5098 18.2861 22.5098 16.1987L22.5098 6.81152C22.5098 4.72412 22.3267 2.99072 21.0815 1.74561ZM20.5444 6.48193L20.5444 16.5405C20.5444 17.7979 20.3857 19.104 19.6411 19.8364C18.9087 20.5811 17.5903 20.752 16.333 20.752L6.17676 20.752C4.91943 20.752 3.60107 20.5811 2.85645 19.8364C2.12402 19.104 1.96533 17.7979 1.96533 16.5405L1.96533 6.51855C1.96533 5.22461 2.12402 3.91846 2.85645 3.17383C3.60107 2.44141 4.93164 2.27051 6.21338 2.27051L16.333 2.27051C17.5903 2.27051 18.9087 2.44141 19.6411 3.18604C20.3857 3.91846 20.5444 5.22461 20.5444 6.48193Z" fill="#5ac8f5" fill-opacity="0.5"/>
  <path d="M6.0791 13.7817C6.0791 16.8945 8.09326 18.7866 10.9619 18.7866C13.1226 18.7866 14.5996 17.9199 15.5884 15.8936C16.1255 14.8438 16.5405 13.5864 16.98 12.1338C17.1631 11.5356 17.4194 10.791 17.4194 10.4614C17.4194 10.0708 17.1265 9.80225 16.7236 9.80225C16.2598 9.80225 15.9912 10.083 15.6616 10.7544L14.6729 12.8418C14.5752 13.0615 14.4775 13.1348 14.3677 13.1348C14.2212 13.1348 14.1357 13.0371 14.1357 12.8296L14.1357 5.39551C14.1357 4.96826 13.7817 4.61426 13.3545 4.61426C12.9272 4.61426 12.5854 4.96826 12.5854 5.39551L12.5854 10.6689C12.3901 10.6201 12.1948 10.5469 11.9873 10.5103L11.9873 4.35791C11.9873 3.94287 11.6455 3.57666 11.2061 3.57666C10.7788 3.57666 10.4248 3.94287 10.4248 4.35791L10.4248 10.4248C10.2173 10.4492 10.0098 10.4736 9.80225 10.5103L9.80225 4.96826C9.80225 4.54102 9.44824 4.19922 9.021 4.19922C8.59375 4.19922 8.23975 4.54102 8.23975 4.96826L8.23975 11.0107C8.02002 11.1084 7.83691 11.2305 7.6416 11.3403L7.6416 7.18994C7.6416 6.7627 7.2876 6.39648 6.87256 6.39648C6.43311 6.39648 6.0791 6.7627 6.0791 7.18994Z" fill="#5ac8f5"/>
 </g>
</svg>
