<?xml version="1.0" encoding="UTF-8"?>
<!--Generator: Apple Native CoreSVG 175.5-->
<!DOCTYPE svg
PUBLIC "-//W3C//DTD SVG 1.1//EN"
       "http://www.w3.org/Graphics/SVG/1.1/DTD/svg11.dtd">
<svg version="1.1" xmlns="http://www.w3.org/2000/svg" xmlns:xlink="http://www.w3.org/1999/xlink" width="33.2764" height="22.3511">
 <g>
  <rect height="22.3511" opacity="0" width="33.2764" x="0" y="0"/>
  <path d="M15.332 22.3511L30.6641 22.3511C32.5928 22.3511 33.2764 21.8018 33.2764 20.7275C33.2764 17.5781 29.3335 13.2324 22.998 13.2324C16.6748 13.2324 12.7319 17.5781 12.7319 20.7275C12.7319 21.8018 13.4155 22.3511 15.332 22.3511ZM23.0103 11.0474C25.6226 11.0474 27.8809 8.70361 27.8809 5.65186C27.8809 2.63672 25.6104 0.402832 23.0103 0.402832C20.3979 0.402832 18.1152 2.68555 18.1274 5.67627C18.1274 8.70361 20.3857 11.0474 23.0103 11.0474ZM2.14844 22.3511L11.4136 22.3511C10.144 20.5078 11.6943 16.7969 14.3311 14.7705C12.9639 13.8672 11.2183 13.1958 8.94775 13.1958C3.44238 13.1958 0 17.2607 0 20.6421C0 21.7407 0.598145 22.3511 2.14844 22.3511ZM8.94775 11.3281C11.2305 11.3281 13.1958 9.27734 13.1958 6.62842C13.1958 4.00391 11.2183 2.06299 8.94775 2.06299C6.68945 2.06299 4.6875 4.05273 4.69971 6.65283C4.69971 9.27734 6.67725 11.3281 8.94775 11.3281Z" fill="#5ac8f5"/>
 </g>
</svg>
