<?xml version="1.0" encoding="UTF-8"?>
<!--Generator: Apple Native CoreSVG 175.5-->
<!DOCTYPE svg
PUBLIC "-//W3C//DTD SVG 1.1//EN"
       "http://www.w3.org/Graphics/SVG/1.1/DTD/svg11.dtd">
<svg version="1.1" xmlns="http://www.w3.org/2000/svg" xmlns:xlink="http://www.w3.org/1999/xlink" width="20.5322" height="26.1841">
 <g>
  <rect height="26.1841" opacity="0" width="20.5322" x="0" y="0"/>
  <path d="M4.79736 6.604C4.1626 6.604 3.62549 6.0791 3.62549 5.43213C3.62549 4.80957 4.1626 4.26025 4.79736 4.26025C5.44434 4.26025 5.96924 4.79736 5.96924 5.43213C5.96924 6.09131 5.44434 6.604 4.79736 6.604ZM4.79736 10.4614C4.15039 10.4614 3.62549 9.92432 3.62549 9.28955C3.62549 8.64258 4.15039 8.12988 4.79736 8.12988C5.44434 8.12988 5.96924 8.63037 5.96924 9.28955C5.96924 9.92432 5.44434 10.4614 4.79736 10.4614ZM4.79736 14.4897C4.1626 14.4897 3.62549 13.9404 3.62549 13.3179C3.62549 12.6709 4.1626 12.146 4.79736 12.146C5.44434 12.146 5.96924 12.6587 5.96924 13.3179C5.96924 13.9526 5.44434 14.4897 4.79736 14.4897ZM8.34961 6.23779C7.91016 6.23779 7.55615 5.88379 7.55615 5.43213C7.55615 5.00488 7.91016 4.65088 8.34961 4.65088L16.1255 4.65088C16.5527 4.65088 16.9067 5.00488 16.9067 5.43213C16.9067 5.88379 16.5527 6.23779 16.1255 6.23779ZM8.34961 10.0708C7.89795 10.0708 7.55615 9.729 7.55615 9.28955C7.55615 8.83789 7.89795 8.49609 8.34961 8.49609L16.1255 8.49609C16.5649 8.49609 16.9067 8.83789 16.9067 9.28955C16.9067 9.729 16.5649 10.0708 16.1255 10.0708ZM8.34961 14.0991C7.91016 14.0991 7.55615 13.7451 7.55615 13.3179C7.55615 12.8784 7.89795 12.5244 8.34961 12.5244L16.1255 12.5244C16.5649 12.5244 16.9067 12.8784 16.9067 13.3179C16.9067 13.7451 16.5527 14.0991 16.1255 14.0991ZM0 22.3511C0 24.9023 1.25732 26.1719 3.78418 26.1719L16.748 26.1719C19.2749 26.1719 20.5322 24.9023 20.5322 22.3511L20.5322 3.83301C20.5322 1.29395 19.2749 0 16.748 0L3.78418 0C1.25732 0 0 1.29395 0 3.83301Z" fill="#5ac8f5"/>
 </g>
</svg>
