<?xml version="1.0" encoding="UTF-8"?>
<!--Generator: Apple Native CoreSVG 175.5-->
<!DOCTYPE svg
PUBLIC "-//W3C//DTD SVG 1.1//EN"
       "http://www.w3.org/Graphics/SVG/1.1/DTD/svg11.dtd">
<svg version="1.1" xmlns="http://www.w3.org/2000/svg" xmlns:xlink="http://www.w3.org/1999/xlink" width="24.9023" height="24.9146">
 <g>
  <rect height="24.9146" opacity="0" width="24.9023" x="0" y="0"/>
  <path d="M12.4512 24.9023C19.2627 24.9023 24.9023 19.2505 24.9023 12.4512C24.9023 5.63965 19.2505 0 12.439 0C5.63965 0 0 5.63965 0 12.4512C0 19.2505 5.65186 24.9023 12.4512 24.9023ZM12.4512 22.8271C6.68945 22.8271 2.0874 18.2129 2.0874 12.4512C2.0874 6.68945 6.67725 2.0752 12.439 2.0752C18.2007 2.0752 22.8271 6.68945 22.8271 12.4512C22.8271 18.2129 18.2129 22.8271 12.4512 22.8271Z" fill="#5ac8f5" fill-opacity="0.5"/>
  <path d="M10.3516 10.8643L11.7554 10.8643L11.7554 11.8652L8.70361 11.8652C8.34961 11.8652 8.10547 11.9629 7.87354 12.1704L6.68945 13.3179C6.22559 13.7573 6.22559 14.1846 6.68945 14.624L7.87354 15.7593C8.10547 15.979 8.36182 16.0767 8.70361 16.0767L11.7554 16.0767L11.7554 18.0664L10.2417 18.0664C9.87549 18.0664 9.58252 18.3594 9.58252 18.7378C9.58252 19.1162 9.87549 19.4214 10.2417 19.4214L14.5996 19.4214C14.978 19.4214 15.2832 19.1162 15.2832 18.7378C15.2832 18.3594 14.978 18.0664 14.5996 18.0664L13.1104 18.0664L13.1104 16.0767L14.502 16.0767C15.0513 16.0767 15.3809 15.7593 15.3809 15.1978L15.3809 12.7319C15.3809 12.1704 15.0513 11.8652 14.502 11.8652L13.1104 11.8652L13.1104 10.8643L16.1499 10.8643C16.4917 10.8643 16.748 10.7666 16.98 10.5469L18.1763 9.41162C18.6279 8.98438 18.6279 8.55713 18.1641 8.10547L16.98 6.95801C16.748 6.75049 16.5039 6.65283 16.1499 6.65283L13.1104 6.65283L13.1104 5.63965C13.1104 5.27344 12.8052 4.95605 12.4268 4.95605C12.0483 4.95605 11.7554 5.27344 11.7554 5.63965L11.7554 6.65283L10.3516 6.65283C9.80225 6.65283 9.47266 6.95801 9.47266 7.53174L9.47266 9.99756C9.47266 10.5469 9.80225 10.8643 10.3516 10.8643Z" fill="#5ac8f5"/>
 </g>
</svg>
