<?xml version="1.0" encoding="UTF-8"?>
<!--Generator: Apple Native CoreSVG 175.5-->
<!DOCTYPE svg
PUBLIC "-//W3C//DTD SVG 1.1//EN"
       "http://www.w3.org/Graphics/SVG/1.1/DTD/svg11.dtd">
<svg version="1.1" xmlns="http://www.w3.org/2000/svg" xmlns:xlink="http://www.w3.org/1999/xlink" width="25.1657" height="26.4826">
 <g>
  <rect height="26.4826" opacity="0" width="25.1657" x="0" y="0"/>
  <path d="M4.72439 21.1942C8.10574 24.5755 12.5003 25.5887 14.6609 25.7962C15.2957 25.8695 15.6497 25.4788 15.6985 25.076C15.7473 24.6487 15.4788 24.1849 14.8684 24.0994C12.9153 23.8309 8.88699 22.952 5.94509 19.9857C1.15994 15.1883 0.256617 7.93732 4.16287 4.03107C7.33669 0.869452 12.6223 1.27228 16.5164 3.37189L17.7859 2.13898C13.0496-0.705255 6.67752-0.937188 2.94216 2.81037C-1.5012 7.26594-0.915258 15.5545 4.72439 21.1942ZM9.16775 17.5443C13.1594 21.536 19.5803 23.1107 23.1692 19.534C26.0989 16.5921 25.7205 11.3675 22.5833 6.87531L21.3382 8.12043C23.8284 11.807 24.3167 15.9451 21.9485 18.3133C19.0677 21.1942 14.3069 19.827 11.0354 16.7386ZM10.7669 15.7254L21.7288 4.7757L19.9099 2.96906L8.96023 13.9066L7.95925 16.2381C7.84939 16.4945 8.10574 16.763 8.37429 16.6654ZM22.6199 3.8968L23.5965 2.92023C24.0603 2.45637 24.0847 1.77277 23.6087 1.33332L23.2913 1.04035C22.8762 0.649726 22.2171 0.649726 21.7776 1.08918L20.8133 2.07795Z" fill="#5ac8f5"/>
 </g>
</svg>
