<?xml version="1.0" encoding="UTF-8"?>
<!--Generator: Apple Native CoreSVG 175.5-->
<!DOCTYPE svg
PUBLIC "-//W3C//DTD SVG 1.1//EN"
       "http://www.w3.org/Graphics/SVG/1.1/DTD/svg11.dtd">
<svg version="1.1" xmlns="http://www.w3.org/2000/svg" xmlns:xlink="http://www.w3.org/1999/xlink" width="39.8315" height="29.0405">
 <g>
  <rect height="29.0405" opacity="0" width="39.8315" x="0" y="0"/>
  <path d="M9.39941 16.8579C14.7339 16.8579 18.7744 14.3677 18.7744 11.0352C18.7744 7.69043 14.7339 5.18799 9.39941 5.18799C4.05273 5.18799 0 7.67822 0 11.0352C0 14.3799 4.05273 16.8579 9.39941 16.8579ZM9.38721 14.4653C5.99365 14.4653 3.50342 13.0615 3.50342 11.1816C3.50342 9.26514 5.99365 7.86133 9.38721 7.86133C12.8052 7.86133 15.2954 9.26514 15.2954 11.1816C15.2954 13.0615 12.8052 14.4653 9.38721 14.4653ZM9.38721 11.7432C11.145 11.7432 12.7441 11.0229 13.5376 9.94873C12.6709 9.31396 11.084 8.88672 9.38721 8.88672C7.66602 8.88672 6.09131 9.31396 5.22461 9.98535C6.03027 11.0229 7.6416 11.7432 9.38721 11.7432ZM30.4565 16.8579C35.7666 16.8579 39.8315 14.3677 39.8315 11.0352C39.8315 7.69043 35.7666 5.18799 30.4565 5.18799C25.0977 5.18799 21.0571 7.67822 21.0571 11.0352C21.0571 14.3799 25.0977 16.8579 30.4565 16.8579ZM30.4321 14.4653C27.0386 14.4653 24.5483 13.0615 24.5483 11.1816C24.5483 9.26514 27.0386 7.86133 30.4321 7.86133C33.8501 7.86133 36.3281 9.26514 36.3281 11.1816C36.3281 13.0615 33.8501 14.4653 30.4321 14.4653ZM30.4443 11.7432C32.1899 11.7432 33.8013 11.0229 34.5947 9.94873C33.7158 9.31396 32.1289 8.88672 30.4443 8.88672C28.7109 8.88672 27.1362 9.31396 26.2817 9.98535C27.0752 11.0229 28.6865 11.7432 30.4443 11.7432ZM19.9097 29.0405C25.2441 29.0405 29.2847 26.5381 29.2847 23.2056C29.2847 19.8608 25.2441 17.3706 19.9097 17.3706C14.563 17.3706 10.5103 19.8486 10.5103 23.2056C10.5103 26.5503 14.563 29.0405 19.9097 29.0405ZM19.8975 26.6479C16.5039 26.6479 14.0137 25.2441 14.0137 23.3398C14.0137 21.4478 16.5039 20.0317 19.8975 20.0317C23.3032 20.0317 25.8057 21.4478 25.8057 23.3398C25.8057 25.2441 23.3032 26.6479 19.8975 26.6479ZM19.8975 23.9014C21.6553 23.9014 23.2666 23.2056 24.0479 22.1313C23.1812 21.4844 21.5942 21.0693 19.8975 21.0693C18.1885 21.0693 16.6016 21.4844 15.7349 22.168C16.5283 23.2056 18.1519 23.9014 19.8975 23.9014Z" fill="#5ac8f5"/>
 </g>
</svg>
