<?xml version="1.0" encoding="UTF-8"?>
<!--Generator: Apple Native CoreSVG 175.5-->
<!DOCTYPE svg
PUBLIC "-//W3C//DTD SVG 1.1//EN"
       "http://www.w3.org/Graphics/SVG/1.1/DTD/svg11.dtd">
<svg version="1.1" xmlns="http://www.w3.org/2000/svg" xmlns:xlink="http://www.w3.org/1999/xlink" width="24.9023" height="24.9146">
 <g>
  <rect height="24.9146" opacity="0" width="24.9023" x="0" y="0"/>
  <path d="M12.4512 24.9023C19.2627 24.9023 24.9023 19.2505 24.9023 12.4512C24.9023 5.63965 19.2505 0 12.439 0C5.63965 0 0 5.63965 0 12.4512C0 19.2505 5.65186 24.9023 12.4512 24.9023ZM12.4512 22.8271C6.68945 22.8271 2.0874 18.2129 2.0874 12.4512C2.0874 6.68945 6.67725 2.0752 12.439 2.0752C18.2007 2.0752 22.8271 6.68945 22.8271 12.4512C22.8271 18.2129 18.2129 22.8271 12.4512 22.8271ZM7.92236 18.5913L16.98 18.5913C18.0908 18.5913 18.5913 17.9932 18.5913 16.7603L18.5913 7.89795C18.5913 6.81152 18.0908 6.31104 16.98 6.31104L7.92236 6.31104C6.95801 6.31104 6.31104 6.95801 6.31104 7.89795L6.31104 16.7603C6.31104 17.8467 6.95801 18.5913 7.92236 18.5913ZM8.6792 16.8091C8.3374 16.8091 8.09326 16.5649 8.09326 16.2109L8.09326 8.69141C8.09326 8.3374 8.3374 8.09326 8.6792 8.09326L16.2231 8.09326C16.5649 8.09326 16.8091 8.3374 16.8091 8.69141L16.8091 16.2109C16.8091 16.5649 16.5649 16.8091 16.2231 16.8091Z" fill="#5ac8f5"/>
 </g>
</svg>
