<?xml version="1.0" encoding="UTF-8"?>
<!--Generator: Apple Native CoreSVG 175.5-->
<!DOCTYPE svg
PUBLIC "-//W3C//DTD SVG 1.1//EN"
       "http://www.w3.org/Graphics/SVG/1.1/DTD/svg11.dtd">
<svg version="1.1" xmlns="http://www.w3.org/2000/svg" xmlns:xlink="http://www.w3.org/1999/xlink" width="16.7725" height="33.0688">
 <g>
  <rect height="33.0688" opacity="0" width="16.7725" x="0" y="0"/>
  <path d="M8.38623 26.9409C7.32422 26.9409 6.38428 26.6113 5.65186 26.0132C5.0293 25.5737 4.5166 25.5981 4.1748 25.9521C3.79639 26.3184 3.8208 26.8555 4.21143 27.2705C4.96826 28.0029 6.61621 28.772 8.38623 28.772C10.1685 28.772 11.8164 28.0029 12.561 27.2705C12.9517 26.8555 12.9761 26.3184 12.5977 25.9521C12.2559 25.5981 11.7432 25.5737 11.1206 26.0132C10.4004 26.6113 9.46045 26.9409 8.38623 26.9409Z" fill="#5ac8f5" fill-opacity="0.5"/>
  <path d="M8.38623 31.2256C6.23779 31.2256 4.27246 30.4321 2.771 29.0894C2.24609 28.6377 1.69678 28.6011 1.34277 28.9551C0.927734 29.3579 0.952148 29.9438 1.3916 30.3955C3.21045 32.2144 5.7373 33.0566 8.38623 33.0566C11.0474 33.0566 13.5742 32.2144 15.3931 30.3955C15.8203 29.9438 15.8447 29.3579 15.4419 28.9551C15.0757 28.6011 14.5264 28.6377 14.0015 29.0894C12.5 30.4321 10.5469 31.2256 8.38623 31.2256Z" fill="#5ac8f5" fill-opacity="0.5"/>
  <path d="M8.38623 24.0356C13.0737 24.0356 15.1855 22.9736 15.1855 20.2759L15.1855 4.43115C15.1855 1.64795 12.6099 0 8.38623 0C4.1626 0 1.59912 1.64795 1.59912 4.43115L1.59912 20.2759C1.59912 22.9736 3.69873 24.0356 8.38623 24.0356ZM2.63672 9.61914L2.63672 7.08008L1.07422 7.08008C0.476074 7.08008 0 7.53174 0 8.11768L0 8.58154C0 9.15527 0.476074 9.61914 1.07422 9.61914ZM14.1357 9.61914L15.6982 9.61914C16.3086 9.61914 16.7725 9.15527 16.7725 8.58154L16.7725 8.11768C16.7725 7.53174 16.3086 7.08008 15.6982 7.08008L14.1357 7.08008ZM8.38623 10.0464C7.53174 10.0464 6.11572 10.1196 5.62744 10.1196C4.88281 10.1196 4.54102 9.80225 4.46777 9.00879L4.30908 7.25098C4.18701 5.79834 5.13916 5.24902 8.38623 5.24902C11.6333 5.24902 12.5977 5.79834 12.4756 7.25098L12.3169 9.00879C12.2437 9.80225 11.9141 10.1196 11.145 10.1196C10.6689 10.1196 9.30176 10.0464 8.38623 10.0464ZM8.38623 20.1416C5.13916 20.1416 4.12598 19.6655 4.3457 18.1641L4.47998 17.3096C4.66309 16.1133 5.59082 15.7349 8.38623 15.7349C11.1938 15.7349 12.1094 16.1133 12.3047 17.3096L12.439 18.1641C12.6709 19.6655 11.6333 20.1416 8.38623 20.1416Z" fill="#5ac8f5"/>
 </g>
</svg>
