<?xml version="1.0" encoding="UTF-8"?>
<!--Generator: Apple Native CoreSVG 175.5-->
<!DOCTYPE svg
PUBLIC "-//W3C//DTD SVG 1.1//EN"
       "http://www.w3.org/Graphics/SVG/1.1/DTD/svg11.dtd">
<svg version="1.1" xmlns="http://www.w3.org/2000/svg" xmlns:xlink="http://www.w3.org/1999/xlink" width="28.7842" height="22.4731">
 <g>
  <rect height="22.4731" opacity="0" width="28.7842" x="0" y="0"/>
  <path d="M3.83301 22.4731L24.9512 22.4731C27.5146 22.4731 28.7842 21.2158 28.7842 18.7012L28.7842 3.78418C28.7842 1.26953 27.5146 0 24.9512 0L3.83301 0C1.28174 0 0 1.26953 0 3.78418L0 18.7012C0 21.2158 1.28174 22.4731 3.83301 22.4731ZM3.85742 20.5078C2.63672 20.5078 1.96533 19.8608 1.96533 18.5913L1.96533 3.89404C1.96533 2.62451 2.63672 1.96533 3.85742 1.96533L24.9268 1.96533C26.1353 1.96533 26.8188 2.62451 26.8188 3.89404L26.8188 18.5913C26.8188 19.8608 26.1353 20.5078 24.9268 20.5078Z" fill="#5ac8f5" fill-opacity="0.5"/>
  <path d="M13.0737 17.0288C13.4766 17.0288 13.8184 16.8335 14.0503 16.4551L19.6411 7.67822C19.7754 7.43408 19.9341 7.16553 19.9341 6.89697C19.9341 6.34766 19.4458 5.99365 18.9331 5.99365C18.6157 5.99365 18.3105 6.18896 18.0908 6.54297L13.0249 14.6729L10.6079 11.5601C10.3271 11.1694 10.0464 11.0718 9.7168 11.0718C9.17969 11.0718 8.77686 11.499 8.77686 12.0361C8.77686 12.3047 8.87451 12.561 9.05762 12.793L12.0239 16.4551C12.3413 16.8579 12.6587 17.0288 13.0737 17.0288Z" fill="#5ac8f5"/>
 </g>
</svg>
