<?xml version="1.0" encoding="UTF-8"?>
<!--Generator: Apple Native CoreSVG 175.5-->
<!DOCTYPE svg
PUBLIC "-//W3C//DTD SVG 1.1//EN"
       "http://www.w3.org/Graphics/SVG/1.1/DTD/svg11.dtd">
<svg version="1.1" xmlns="http://www.w3.org/2000/svg" xmlns:xlink="http://www.w3.org/1999/xlink" width="22.4731" height="22.4976">
 <g>
  <rect height="22.4976" opacity="0" width="22.4731" x="0" y="0"/>
  <path d="M3.83301 22.4976L18.6401 22.4976C21.2036 22.4976 22.4731 21.228 22.4731 18.7134L22.4731 3.80859C22.4731 1.29395 21.2036 0.0244141 18.6401 0.0244141L3.83301 0.0244141C1.28174 0.0244141 0 1.28174 0 3.80859L0 18.7134C0 21.2402 1.28174 22.4976 3.83301 22.4976ZM3.85742 20.5322C2.63672 20.5322 1.96533 19.8853 1.96533 18.6157L1.96533 3.90625C1.96533 2.63672 2.63672 1.98975 3.85742 1.98975L18.6157 1.98975C19.8242 1.98975 20.5078 2.63672 20.5078 3.90625L20.5078 18.6157C20.5078 19.8853 19.8242 20.5322 18.6157 20.5322ZM6.83594 16.0522C6.83594 16.9678 7.23877 17.395 8.08105 17.395L14.4043 17.395C15.2588 17.395 15.6616 16.9678 15.6616 16.0522L15.6616 11.1938C15.6616 10.3394 15.3076 9.92432 14.5752 9.87549L14.5752 8.42285C14.5752 6.17676 13.2324 4.67529 11.2427 4.67529C9.25293 4.67529 7.91016 6.17676 7.91016 8.42285L7.91016 9.87549C7.18994 9.92432 6.83594 10.3394 6.83594 11.1938ZM9.17969 9.86328L9.17969 8.28857C9.17969 6.86035 10.0098 5.9082 11.2427 5.9082C12.4756 5.9082 13.3057 6.86035 13.3057 8.28857L13.3057 9.86328Z" fill="#5ac8f5"/>
 </g>
</svg>
