<?xml version="1.0" encoding="UTF-8"?>
<!--Generator: Apple Native CoreSVG 175.5-->
<!DOCTYPE svg
PUBLIC "-//W3C//DTD SVG 1.1//EN"
       "http://www.w3.org/Graphics/SVG/1.1/DTD/svg11.dtd">
<svg version="1.1" xmlns="http://www.w3.org/2000/svg" xmlns:xlink="http://www.w3.org/1999/xlink" width="28.7066" height="10.7788">
 <g>
  <rect height="10.7788" opacity="0" width="28.7066" x="0" y="0"/>
  <path d="M14.3496 0C9.06397 0 4.09571 1.11084 1.61768 3.58887C0.494634 4.71191-0.0668898 6.06689 0.0063524 7.70264C0.0551805 8.69141 0.360356 9.57031 0.934087 10.144C1.36133 10.5835 1.95948 10.8276 2.65528 10.7178L7.18409 9.94873C7.86768 9.83887 8.34375 9.63135 8.64893 9.31396C9.05176 8.92334 9.17383 8.3374 9.17383 7.56836L9.17383 6.33545C9.17383 6.14014 9.25928 5.99365 9.38135 5.87158C9.50342 5.7251 9.68653 5.66406 9.82081 5.62744C10.6509 5.43213 12.3355 5.24902 14.3496 5.24902C16.3638 5.24902 18.0361 5.39551 18.8784 5.63965C19.0005 5.67627 19.1714 5.74951 19.3057 5.87158C19.4155 5.99365 19.4888 6.12793 19.501 6.32324L19.5132 7.56836C19.5254 8.3374 19.6475 8.92334 20.0381 9.31396C20.3555 9.63135 20.8315 9.83887 21.5151 9.94873L25.9829 10.7056C26.7031 10.8276 27.3135 10.5713 27.7896 10.1074C28.3633 9.5459 28.6807 8.69141 28.7051 7.69043C28.7417 6.04248 28.1069 4.6875 27.0083 3.58887C24.5303 1.11084 19.6353 0 14.3496 0Z" fill="#5ac8f5"/>
 </g>
</svg>
