<?xml version="1.0" encoding="UTF-8"?>
<!--Generator: Apple Native CoreSVG 175.5-->
<!DOCTYPE svg
PUBLIC "-//W3C//DTD SVG 1.1//EN"
       "http://www.w3.org/Graphics/SVG/1.1/DTD/svg11.dtd">
<svg version="1.1" xmlns="http://www.w3.org/2000/svg" xmlns:xlink="http://www.w3.org/1999/xlink" width="28.2837" height="21.9849">
 <g>
  <rect height="21.9849" opacity="0" width="28.2837" x="0" y="0"/>
  <path d="M3.77197 15.6982L24.5117 15.6982C27.0386 15.6982 28.2837 14.4653 28.2837 11.9751L28.2837 3.72314C28.2837 1.2207 27.0386 0 24.5117 0L3.77197 0C1.25732 0 0 1.2207 0 3.72314L0 11.9751C0 14.4653 1.25732 15.6982 3.77197 15.6982ZM3.79639 13.7329C2.6001 13.7329 1.96533 13.1226 1.96533 11.8774L1.96533 3.8208C1.96533 2.57568 2.6001 1.95312 3.79639 1.95312L24.4873 1.95312C25.6836 1.95312 26.3184 2.57568 26.3184 3.8208L26.3184 11.8774C26.3184 13.1226 25.6836 13.7329 24.4873 13.7329Z" fill="#5ac8f5" fill-opacity="0.5"/>
  <path d="M1.2207 21.8872L3.79639 21.8872C4.15039 21.8872 4.43115 21.6187 4.43115 21.2646L4.43115 18.7134C4.43115 18.335 4.1626 18.0664 3.79639 18.0664L1.2207 18.0664C0.830078 18.0664 0.57373 18.335 0.57373 18.7134L0.57373 21.2646C0.57373 21.6187 0.842285 21.8872 1.2207 21.8872ZM7.04346 21.8872L9.61914 21.8872C9.97314 21.8872 10.2539 21.6187 10.2539 21.2646L10.2539 18.7134C10.2539 18.335 9.98535 18.0664 9.61914 18.0664L7.04346 18.0664C6.65283 18.0664 6.39648 18.335 6.39648 18.7134L6.39648 21.2646C6.39648 21.6187 6.66504 21.8872 7.04346 21.8872ZM12.8662 21.8872L15.4419 21.8872C15.7959 21.8872 16.0767 21.6187 16.0767 21.2646L16.0767 18.7134C16.0767 18.335 15.8081 18.0664 15.4419 18.0664L12.8662 18.0664C12.4756 18.0664 12.2192 18.335 12.2192 18.7134L12.2192 21.2646C12.2192 21.6187 12.4878 21.8872 12.8662 21.8872ZM18.689 21.8872L21.2646 21.8872C21.6187 21.8872 21.8994 21.6187 21.8994 21.2646L21.8994 18.7134C21.8994 18.335 21.6309 18.0664 21.2646 18.0664L18.689 18.0664C18.2983 18.0664 18.042 18.335 18.042 18.7134L18.042 21.2646C18.042 21.6187 18.3105 21.8872 18.689 21.8872ZM24.5117 21.8872L27.0874 21.8872C27.4414 21.8872 27.7222 21.6187 27.7222 21.2646L27.7222 18.7134C27.7222 18.335 27.4536 18.0664 27.0874 18.0664L24.5117 18.0664C24.1211 18.0664 23.8647 18.335 23.8647 18.7134L23.8647 21.2646C23.8647 21.6187 24.1333 21.8872 24.5117 21.8872Z" fill="#5ac8f5"/>
 </g>
</svg>
