<?xml version="1.0" encoding="UTF-8"?>
<!--Generator: Apple Native CoreSVG 175.5-->
<!DOCTYPE svg
PUBLIC "-//W3C//DTD SVG 1.1//EN"
       "http://www.w3.org/Graphics/SVG/1.1/DTD/svg11.dtd">
<svg version="1.1" xmlns="http://www.w3.org/2000/svg" xmlns:xlink="http://www.w3.org/1999/xlink" width="30.7959" height="23.8647">
 <g>
  <rect height="23.8647" opacity="0" width="30.7959" x="0" y="0"/>
  <path d="M11.5472 0C13.6834 0.476074 16.723 1.3916 18.4076 1.95312C22.6556 3.36914 24.1571 5.18799 24.1571 9.27734C24.1571 12.2559 22.7655 13.8306 20.7269 13.8306C20.0433 13.8306 19.2865 13.6353 18.493 13.269L18.493 5.84717C18.493 5.00488 18.4076 4.26025 17.5775 3.9917C16.8939 3.77197 16.5521 4.37012 16.5521 5.18799L16.5521 23.8281L11.5472 22.2534ZM17.4798 20.5933L17.4798 23.4497L27.7093 19.812C29.2352 19.2627 30.1873 18.7378 30.5413 18.2617C31.1029 17.5293 30.8465 16.3818 28.6371 15.6128C26.3665 14.8438 23.681 14.5752 21.5448 14.7461C20.2264 14.856 18.6395 15.271 17.4798 15.6616L17.4798 18.7378L22.8631 16.7847C23.7664 16.4551 25.036 16.4307 25.8172 16.687C26.5619 16.9434 26.4886 17.3584 25.5365 17.7002ZM1.84262 20.0684C4.10092 20.874 6.98178 21.521 10.534 20.7642L10.534 18.1763L8.16586 19.043C7.1893 19.4092 5.61459 19.4702 5.06528 19.2749C4.28403 19.0186 4.44272 18.5059 5.48031 18.1274L10.534 16.3208L10.534 13.4521L3.60043 15.9546C2.66049 16.3086 1.73276 16.5649 0.658537 17.2974C-0.513338 18.0908-0.122713 19.3726 1.84262 20.0684Z" fill="#5ac8f5"/>
 </g>
</svg>
