<?xml version="1.0" encoding="UTF-8"?>
<!--Generator: Apple Native CoreSVG 175.5-->
<!DOCTYPE svg
PUBLIC "-//W3C//DTD SVG 1.1//EN"
       "http://www.w3.org/Graphics/SVG/1.1/DTD/svg11.dtd">
<svg version="1.1" xmlns="http://www.w3.org/2000/svg" xmlns:xlink="http://www.w3.org/1999/xlink" width="20.6665" height="25.5493">
 <g>
  <rect height="25.5493" opacity="0" width="20.6665" x="0" y="0"/>
  <path d="M4.79736 25.5249L9.74121 25.5249C10.2539 25.5249 10.5591 25.2441 10.5591 24.7559C10.5591 24.2798 10.2539 24.0112 9.74121 24.0112L5.87158 24.0112L5.87158 23.9624L9.92432 19.0186C10.3149 18.5425 10.437 18.2495 10.437 17.9077C10.437 17.3096 10.0464 16.98 9.38721 16.98L4.49219 16.98C3.96729 16.98 3.67432 17.2729 3.67432 17.749C3.67432 18.2373 3.96729 18.5059 4.49219 18.5059L8.41064 18.5059L8.41064 18.5547L4.1748 23.6816C3.86963 24.0479 3.78418 24.2432 3.78418 24.5972C3.78418 25.1343 4.1748 25.5249 4.79736 25.5249ZM13.6108 18.75L19.7754 18.75C20.3369 18.75 20.6665 18.4448 20.6665 17.9199C20.6665 17.4072 20.3369 17.1143 19.7754 17.1143L14.7583 17.1143L14.7583 17.0654L19.9829 10.7666C20.3979 10.2661 20.5322 9.98535 20.5322 9.64355C20.5322 8.98438 20.105 8.58154 19.3237 8.58154L13.3179 8.58154C12.7563 8.58154 12.439 8.88672 12.439 9.39941C12.439 9.92432 12.7563 10.2173 13.3179 10.2173L18.3228 10.2173L18.3228 10.2661L12.9517 16.7603C12.6343 17.1387 12.5122 17.3828 12.5122 17.7246C12.5122 18.335 12.9395 18.75 13.6108 18.75ZM1.2085 12.1826L8.97217 12.1826C9.55811 12.1826 9.8877 11.8652 9.8877 11.3159C9.8877 10.791 9.55811 10.4858 8.97217 10.4858L2.45361 10.4858L2.45361 10.437L9.28955 2.19727C9.68018 1.72119 9.77783 1.45264 9.77783 1.08643C9.77783 0.415039 9.31396 0 8.5083 0L0.915527 0C0.341797 0 0 0.305176 0 0.842285C0 1.37939 0.341797 1.69678 0.915527 1.69678L7.43408 1.69678L7.43408 1.7334L0.439453 10.1929C0.158691 10.5225 0.0854492 10.7666 0.0854492 11.1206C0.0854492 11.7554 0.524902 12.1826 1.2085 12.1826Z" fill="#5ac8f5"/>
 </g>
</svg>
