<?xml version="1.0" encoding="UTF-8"?>
<!--Generator: Apple Native CoreSVG 175.5-->
<!DOCTYPE svg
PUBLIC "-//W3C//DTD SVG 1.1//EN"
       "http://www.w3.org/Graphics/SVG/1.1/DTD/svg11.dtd">
<svg version="1.1" xmlns="http://www.w3.org/2000/svg" xmlns:xlink="http://www.w3.org/1999/xlink" width="22.4731" height="22.7661">
 <g>
  <rect height="22.7661" opacity="0" width="22.4731" x="0" y="0"/>
  <path d="M3.83301 22.7661L18.6401 22.7661C21.2036 22.7661 22.4731 21.5088 22.4731 18.9941L22.4731 4.07715C22.4731 1.5625 21.2036 0.292969 18.6401 0.292969L3.83301 0.292969C1.28174 0.292969 0 1.5625 0 4.07715L0 18.9941C0 21.5088 1.28174 22.7661 3.83301 22.7661ZM3.85742 20.8008C2.63672 20.8008 1.96533 20.1538 1.96533 18.8843L1.96533 4.18701C1.96533 2.91748 2.63672 2.2583 3.85742 2.2583L18.6157 2.2583C19.8242 2.2583 20.5078 2.91748 20.5078 4.18701L20.5078 18.8843C20.5078 20.1538 19.8242 20.8008 18.6157 20.8008ZM8.49609 17.1997L16.6504 17.1997C17.7734 17.1997 18.335 16.6626 18.335 15.5396L18.335 9.82666C18.335 8.74023 17.7734 8.17871 16.6504 8.17871L8.49609 8.17871C7.37305 8.17871 6.81152 8.74023 6.81152 9.82666L6.81152 15.5396C6.81152 16.6626 7.37305 17.1997 8.49609 17.1997ZM6.09131 9.75342C6.09131 8.23975 6.88477 7.43408 8.42285 7.43408L15.6494 7.44629L15.6494 7.31201C15.6494 6.20117 15.1001 5.63965 13.9771 5.63965L5.81055 5.63965C4.69971 5.63965 4.13818 6.18896 4.13818 7.31201L4.13818 12.9761C4.13818 14.0747 4.69971 14.624 5.81055 14.624L6.09131 14.624Z" fill="#5ac8f5"/>
 </g>
</svg>
