<?xml version="1.0" encoding="UTF-8"?>
<!--Generator: Apple Native CoreSVG 175.5-->
<!DOCTYPE svg
PUBLIC "-//W3C//DTD SVG 1.1//EN"
       "http://www.w3.org/Graphics/SVG/1.1/DTD/svg11.dtd">
<svg version="1.1" xmlns="http://www.w3.org/2000/svg" xmlns:xlink="http://www.w3.org/1999/xlink" width="22.4731" height="22.4976">
 <g>
  <rect height="22.4976" opacity="0" width="22.4731" x="0" y="0"/>
  <path d="M3.83301 22.4976L18.6401 22.4976C21.2036 22.4976 22.4731 21.228 22.4731 18.7134L22.4731 3.80859C22.4731 1.29395 21.2036 0.0244141 18.6401 0.0244141L3.83301 0.0244141C1.28174 0.0244141 0 1.28174 0 3.80859L0 18.7134C0 21.2402 1.28174 22.4976 3.83301 22.4976ZM3.85742 20.5322C2.63672 20.5322 1.96533 19.8853 1.96533 18.6157L1.96533 3.90625C1.96533 2.63672 2.63672 1.98975 3.85742 1.98975L18.6157 1.98975C19.8242 1.98975 20.5078 2.63672 20.5078 3.90625L20.5078 18.6157C20.5078 19.8853 19.8242 20.5322 18.6157 20.5322Z" fill="#5ac8f5" fill-opacity="0.5"/>
  <path d="M8.37402 10.1196L8.37402 12.3779L7.4585 12.3779C6.01807 12.3779 4.87061 13.5254 4.87061 14.9414C4.87061 16.3818 6.01807 17.5415 7.4585 17.5415C8.87451 17.5415 10.0464 16.3696 10.0464 14.9414L10.0464 14.0137L12.2681 14.0137L12.2681 14.9414C12.2681 16.3696 13.4277 17.5415 14.856 17.5415C16.2842 17.5415 17.4438 16.3818 17.4438 14.9414C17.4438 13.5254 16.2842 12.3779 14.856 12.3779L13.9282 12.3779L13.9282 10.1196L14.856 10.1196C16.2842 10.1196 17.4438 8.97217 17.4438 7.54395C17.4438 6.11572 16.2842 4.95605 14.856 4.95605C13.4277 4.95605 12.2681 6.12793 12.2681 7.54395L12.2681 8.47168L10.0464 8.47168L10.0464 7.54395C10.0464 6.12793 8.87451 4.95605 7.4585 4.95605C6.01807 4.95605 4.87061 6.11572 4.87061 7.54395C4.87061 8.97217 6.01807 10.1196 7.4585 10.1196ZM10.0464 12.3901L10.0464 10.1074L12.2681 10.1074L12.2681 12.3901ZM7.4585 8.48389C6.93359 8.48389 6.51855 8.06885 6.51855 7.54395C6.51855 7.04346 6.9458 6.604 7.4585 6.604C7.95898 6.604 8.37402 7.04346 8.37402 7.54395L8.37402 8.48389ZM14.856 8.48389L13.9282 8.48389L13.9282 7.54395C13.9282 7.04346 14.3555 6.604 14.856 6.604C15.3564 6.604 15.7959 7.04346 15.7959 7.54395C15.7959 8.06885 15.3687 8.48389 14.856 8.48389ZM7.4585 13.9893L8.37402 13.9893L8.37402 14.9292C8.37402 15.4541 7.95898 15.8691 7.4585 15.8691C6.93359 15.8691 6.51855 15.4541 6.51855 14.9292C6.51855 14.4287 6.9458 13.9893 7.4585 13.9893ZM14.856 13.9893C15.3564 13.9893 15.7959 14.4287 15.7959 14.9292C15.7959 15.4541 15.3687 15.8691 14.856 15.8691C14.3555 15.8691 13.9282 15.4541 13.9282 14.9292L13.9282 13.9893Z" fill="#5ac8f5"/>
 </g>
</svg>
