<?xml version="1.0" encoding="UTF-8"?>
<!--Generator: Apple Native CoreSVG 175.5-->
<!DOCTYPE svg
PUBLIC "-//W3C//DTD SVG 1.1//EN"
       "http://www.w3.org/Graphics/SVG/1.1/DTD/svg11.dtd">
<svg version="1.1" xmlns="http://www.w3.org/2000/svg" xmlns:xlink="http://www.w3.org/1999/xlink" width="30.9204" height="23.5962">
 <g>
  <rect height="23.5962" opacity="0" width="30.9204" x="0" y="0"/>
  <path d="M15.4663 18.6401C16.1377 18.6401 16.687 18.0908 16.687 17.4194L16.687 11.2793C16.687 10.9863 16.5771 10.7178 16.3452 10.4492L13.147 6.88477C12.9517 6.66504 13.0859 6.33545 13.3911 6.33545L17.3096 6.33545C17.7856 6.33545 17.9321 6.67725 17.9321 7.00684L17.9321 10.0464C17.9321 10.7178 18.4814 11.2549 19.1528 11.2549L24.0723 11.2549C24.7437 11.2549 25.2808 10.7178 25.2808 10.0464C25.2808 9.375 24.7437 8.82568 24.0723 8.82568L20.3735 8.82568L20.3735 4.50439C20.3735 3.13721 19.2871 2.05078 17.9199 2.05078L11.9263 2.05078C10.6812 2.05078 9.58252 2.80762 9.09424 3.94287C8.61816 5.10254 8.88672 6.39648 9.76562 7.2876L14.2456 11.792L14.2456 17.4194C14.2456 18.0908 14.7949 18.6401 15.4663 18.6401ZM6.62842 23.4497C10.3149 23.4497 13.269 20.4956 13.269 16.8091C13.269 13.1348 10.3149 10.1685 6.62842 10.1685C2.9541 10.1685 0 13.1348 0 16.8091C0 20.4956 2.9541 23.4497 6.62842 23.4497ZM6.62842 21.7285C3.93066 21.7285 1.72119 19.519 1.72119 16.8091C1.72119 14.0991 3.93066 11.8896 6.62842 11.8896C9.33838 11.8896 11.5479 14.0991 11.5479 16.8091C11.5479 19.519 9.33838 21.7285 6.62842 21.7285ZM27.5635 13.1592C28.5522 14.0503 29.1992 15.3564 29.1992 16.8091C29.1992 19.519 26.9897 21.7285 24.292 21.7285C21.582 21.7285 19.3726 19.519 19.3726 16.8091C19.3726 16.1255 19.5068 15.4541 19.7632 14.8682C20.0439 14.209 19.7632 13.7451 19.3359 13.5986C18.9331 13.4399 18.457 13.5742 18.2373 14.0991C17.8589 14.9414 17.6514 15.8447 17.6514 16.8091C17.6514 20.4956 20.6055 23.4497 24.292 23.4497C27.9663 23.4497 30.9204 20.4956 30.9204 16.8091C30.9204 14.8071 30.0537 13.0493 28.6499 11.8164C28.1982 11.4258 27.6855 11.5234 27.3804 11.853C27.0874 12.1826 27.0386 12.6953 27.5635 13.1592ZM24.292 5.33447C25.7568 5.33447 26.9409 4.13818 26.9409 2.66113C26.9409 1.19629 25.7568 0 24.292 0C22.8027 0 21.6064 1.19629 21.6064 2.66113C21.6064 4.13818 22.8027 5.33447 24.292 5.33447Z" fill="#5ac8f5"/>
 </g>
</svg>
