<?xml version="1.0" encoding="UTF-8"?>
<!--Generator: Apple Native CoreSVG 175.5-->
<!DOCTYPE svg
PUBLIC "-//W3C//DTD SVG 1.1//EN"
       "http://www.w3.org/Graphics/SVG/1.1/DTD/svg11.dtd">
<svg version="1.1" xmlns="http://www.w3.org/2000/svg" xmlns:xlink="http://www.w3.org/1999/xlink" width="27.1851" height="26.062">
 <g>
  <rect height="26.062" opacity="0" width="27.1851" x="0" y="0"/>
  <path d="M5.11475 17.7856L7.73926 17.7856L7.73926 6.11572L5.11475 6.11572C1.78223 6.11572 0 7.84912 0 11.0596L0 12.8418C0 16.04 1.78223 17.7856 5.11475 17.7856ZM9.41162 17.7979C12.8662 18.1763 17.1875 19.1895 20.5444 20.8374C20.5444 20.7153 20.5444 20.5811 20.5444 20.459L20.5444 3.479C20.5444 3.33252 20.5444 3.21045 20.5444 3.06396C17.1509 4.72412 12.561 5.77393 9.41162 6.11572ZM24.6948 23.8159C26.1841 23.8159 27.1851 22.8027 27.1851 21.3379L27.1851 2.49023C27.1851 1.01318 26.1841 0 24.6948 0C23.23 0 22.2168 1.01318 22.2168 2.49023L22.2168 21.3379C22.2168 22.8027 23.23 23.8159 24.6948 23.8159ZM9.97314 26.0498C11.4868 26.0498 12.5977 24.9878 12.207 23.1079L11.5234 19.8242C10.5957 19.6655 9.21631 19.5557 6.12793 19.4702C5.9082 19.4702 5.52979 19.4458 5.13916 19.4458L7.18994 23.9258C7.80029 25.2563 8.55713 26.0498 9.97314 26.0498Z" fill="#5ac8f5"/>
 </g>
</svg>
