<?xml version="1.0" encoding="UTF-8"?>
<!--Generator: Apple Native CoreSVG 175.5-->
<!DOCTYPE svg
PUBLIC "-//W3C//DTD SVG 1.1//EN"
       "http://www.w3.org/Graphics/SVG/1.1/DTD/svg11.dtd">
<svg version="1.1" xmlns="http://www.w3.org/2000/svg" xmlns:xlink="http://www.w3.org/1999/xlink" width="24.9023" height="24.9146">
 <g>
  <rect height="24.9146" opacity="0" width="24.9023" x="0" y="0"/>
  <path d="M12.4512 24.9023C19.2627 24.9023 24.9023 19.2505 24.9023 12.4512C24.9023 5.63965 19.2505 0 12.439 0C5.63965 0 0 5.63965 0 12.4512C0 19.2505 5.65186 24.9023 12.4512 24.9023Z" fill="#5ac8f5" fill-opacity="0.25"/>
  <path d="M7.32422 14.7461C6.00586 14.7461 4.95605 13.6719 4.95605 12.3657C4.95605 11.0474 6.00586 9.98535 7.32422 9.98535C8.64258 9.98535 9.70459 11.0474 9.70459 12.3657C9.70459 13.6719 8.64258 14.7461 7.32422 14.7461ZM17.5781 14.7461C16.2598 14.7461 15.1978 13.6719 15.1978 12.3657C15.1978 11.0474 16.2598 9.98535 17.5781 9.98535C18.8965 9.98535 19.9463 11.0474 19.9463 12.3657C19.9463 13.6719 18.8965 14.7461 17.5781 14.7461ZM10.9497 17.041L13.9526 17.041C14.3433 17.041 14.5386 17.2363 14.5386 17.627L14.5386 18.5425C14.5386 19.7021 13.623 20.6299 12.4512 20.6299C11.2671 20.6299 10.3638 19.7144 10.3638 18.5425L10.3638 17.627C10.3638 17.2363 10.5591 17.041 10.9497 17.041Z" fill="#5ac8f5"/>
 </g>
</svg>
