<?xml version="1.0" encoding="UTF-8"?>
<!--Generator: Apple Native CoreSVG 175.5-->
<!DOCTYPE svg
PUBLIC "-//W3C//DTD SVG 1.1//EN"
       "http://www.w3.org/Graphics/SVG/1.1/DTD/svg11.dtd">
<svg version="1.1" xmlns="http://www.w3.org/2000/svg" xmlns:xlink="http://www.w3.org/1999/xlink" width="27.8687" height="28.0703">
 <g>
  <rect height="28.0703" opacity="0" width="27.8687" x="0" y="0"/>
  <path d="M5.7373 18.5457L20.8862 18.5457C24.8901 18.5457 27.8687 15.5061 27.8687 11.7463C27.8687 7.8523 24.6948 5.00807 20.5566 5.00807C19.0308 1.99293 16.1987 0.0520112 12.6709 0.0520112C8.08105 0.0520112 4.29688 3.65309 3.89404 8.18189C1.68457 8.82887 0 10.7454 0 13.3211C0 16.2141 2.09961 18.5457 5.7373 18.5457ZM6.05469 24.2586L7.6416 21.4998C7.87354 21.1336 7.75146 20.7063 7.38525 20.4866C7.01904 20.2791 6.604 20.3889 6.37207 20.7673L4.77295 23.5505C4.56543 23.8923 4.67529 24.3196 5.05371 24.5393C5.40771 24.7468 5.84717 24.6126 6.05469 24.2586ZM9.87549 27.6887L11.4624 24.9421C11.6821 24.5637 11.5723 24.1365 11.2061 23.929C10.8276 23.7092 10.4126 23.8313 10.1929 24.2097L8.59375 26.9807C8.38623 27.3347 8.49609 27.762 8.8623 27.9695C9.22852 28.177 9.66797 28.0549 9.87549 27.6887ZM15.7715 24.2463L17.3584 21.4876C17.5781 21.1213 17.4561 20.6941 17.0898 20.4744C16.7236 20.2669 16.3086 20.3767 16.0889 20.7551L14.4897 23.5383C14.2822 23.8801 14.3799 24.3074 14.7583 24.5271C15.1245 24.7346 15.564 24.6004 15.7715 24.2463ZM19.5923 27.6765L21.1792 24.9299C21.3989 24.5515 21.2769 24.1243 20.9106 23.9168C20.5444 23.697 20.1294 23.8191 19.9097 24.1975L18.2983 26.9685C18.103 27.3225 18.2007 27.7498 18.5791 27.9573C18.9453 28.1648 19.3848 28.0427 19.5923 27.6765Z" fill="#5ac8f5"/>
 </g>
</svg>
