<?xml version="1.0" encoding="UTF-8"?>
<!--Generator: Apple Native CoreSVG 175.5-->
<!DOCTYPE svg
PUBLIC "-//W3C//DTD SVG 1.1//EN"
       "http://www.w3.org/Graphics/SVG/1.1/DTD/svg11.dtd">
<svg version="1.1" xmlns="http://www.w3.org/2000/svg" xmlns:xlink="http://www.w3.org/1999/xlink" width="28.7842" height="22.4731">
 <g>
  <rect height="22.4731" opacity="0" width="28.7842" x="0" y="0"/>
  <path d="M9.46045 1.47705L5.40771 1.47705L5.40771 11.9019C5.40771 12.793 5.96924 13.1348 6.55518 13.1348L8.3252 13.1348C8.91113 13.1348 9.46045 12.793 9.46045 11.9019ZM16.4185 1.47705L12.3657 1.47705L12.3657 11.9019C12.3657 12.793 12.9272 13.1348 13.501 13.1348L15.2832 13.1348C15.8691 13.1348 16.4185 12.793 16.4185 11.9019ZM23.3765 1.47705L19.3237 1.47705L19.3237 11.9019C19.3237 12.793 19.873 13.1348 20.459 13.1348L22.2412 13.1348C22.8271 13.1348 23.3765 12.793 23.3765 11.9019ZM6.87256 10.9497L6.87256 21.0938L8.00781 21.0938L8.00781 10.9497ZM13.8306 10.9497L13.8306 21.0938L14.9658 21.0938L14.9658 10.9497ZM20.7886 10.9497L20.7886 21.0938L21.9238 21.0938L21.9238 10.9497ZM3.83301 22.4731L24.9512 22.4731C27.5146 22.4731 28.7842 21.2158 28.7842 18.7012L28.7842 3.78418C28.7842 1.26953 27.5146 0 24.9512 0L3.83301 0C1.28174 0 0 1.26953 0 3.78418L0 18.7012C0 21.2158 1.28174 22.4731 3.83301 22.4731ZM3.85742 20.5078C2.63672 20.5078 1.96533 19.8608 1.96533 18.5913L1.96533 3.89404C1.96533 2.62451 2.63672 1.96533 3.85742 1.96533L24.9268 1.96533C26.1353 1.96533 26.8188 2.62451 26.8188 3.89404L26.8188 18.5913C26.8188 19.8608 26.1353 20.5078 24.9268 20.5078Z" fill="#5ac8f5"/>
 </g>
</svg>
