<?xml version="1.0" encoding="UTF-8"?>
<!--Generator: Apple Native CoreSVG 175.5-->
<!DOCTYPE svg
PUBLIC "-//W3C//DTD SVG 1.1//EN"
       "http://www.w3.org/Graphics/SVG/1.1/DTD/svg11.dtd">
<svg version="1.1" xmlns="http://www.w3.org/2000/svg" xmlns:xlink="http://www.w3.org/1999/xlink" width="24.9023" height="24.9146">
 <g>
  <rect height="24.9146" opacity="0" width="24.9023" x="0" y="0"/>
  <path d="M12.4512 24.9023C19.2627 24.9023 24.9023 19.2505 24.9023 12.4512C24.9023 5.63965 19.2505 0 12.439 0C5.63965 0 0 5.63965 0 12.4512C0 19.2505 5.65186 24.9023 12.4512 24.9023Z" fill="#5ac8f5" fill-opacity="0.25"/>
  <path d="M5.98145 17.5903C5.54199 17.5903 5.24902 17.2974 5.24902 16.8457C5.24902 16.5894 5.32227 16.3696 5.52979 16.1621L8.8501 12.2559C9.43604 11.5601 10.1074 10.8521 10.1074 10.0342C10.1074 9.10645 9.43604 8.48389 8.43506 8.48389C7.53174 8.48389 6.90918 8.93555 6.57959 9.8877C6.40869 10.2661 6.22559 10.4736 5.85938 10.4736C5.43213 10.4736 5.15137 10.1685 5.15137 9.7168C5.15137 9.57031 5.18799 9.42383 5.2124 9.26514C5.54199 7.9834 6.87256 7.01904 8.37402 7.01904C10.3516 7.01904 11.6211 8.14209 11.6211 9.8999C11.6211 11.1572 10.9253 12.0605 10.0098 13.147L7.53174 16.0034L7.53174 16.1011L11.1938 16.1011C11.5967 16.1011 11.9019 16.3574 11.9019 16.8335C11.9019 17.2852 11.5967 17.5903 11.1938 17.5903ZM18.3716 17.8589C17.8711 17.8589 17.6147 17.4927 17.6147 17.0044L17.6147 15.5273L13.9526 15.5273C13.3057 15.5273 12.8662 15.1245 12.8662 14.4531C12.8662 14.1113 12.9395 13.8306 13.147 13.4399C13.9893 11.9141 15.2466 9.76562 16.3086 7.99561C16.7114 7.2998 17.1631 7.01904 17.8955 7.01904C18.6401 7.01904 19.1406 7.49512 19.1406 8.22754L19.1406 14.1113L19.8242 14.1113C20.2515 14.1113 20.5322 14.3799 20.5322 14.8315C20.5322 15.271 20.2515 15.5273 19.8242 15.5273L19.1406 15.5273L19.1406 17.0044C19.1406 17.5049 18.8843 17.8589 18.3716 17.8589ZM17.6147 14.1113L17.6147 8.72803L17.5415 8.72803C16.5405 10.437 15.271 12.6343 14.5264 14.0625L14.5264 14.1113Z" fill="#5ac8f5"/>
 </g>
</svg>
