<?xml version="1.0" encoding="UTF-8"?>
<!--Generator: Apple Native CoreSVG 175.5-->
<!DOCTYPE svg
PUBLIC "-//W3C//DTD SVG 1.1//EN"
       "http://www.w3.org/Graphics/SVG/1.1/DTD/svg11.dtd">
<svg version="1.1" xmlns="http://www.w3.org/2000/svg" xmlns:xlink="http://www.w3.org/1999/xlink" width="18.457" height="20.6909">
 <g>
  <rect height="20.6909" opacity="0" width="18.457" x="0" y="0"/>
  <path d="M1.46484 20.6909C1.95312 20.6909 2.36816 20.4956 2.85645 20.2148L17.0898 11.9873C18.103 11.3892 18.457 10.9985 18.457 10.3516C18.457 9.70459 18.103 9.31396 17.0898 8.72803L2.85645 0.488281C2.36816 0.20752 1.95312 0.0244141 1.46484 0.0244141C0.561523 0.0244141 0 0.708008 0 1.77002L0 18.9331C0 19.9951 0.561523 20.6909 1.46484 20.6909ZM2.0874 18.3594C2.01416 18.3594 1.96533 18.3105 1.96533 18.2129L1.96533 2.49023C1.96533 2.39258 2.01416 2.34375 2.0874 2.34375C2.13623 2.34375 2.18506 2.36816 2.23389 2.40479L15.7471 10.2173C15.8081 10.2539 15.8569 10.2905 15.8569 10.3516C15.8569 10.4126 15.8081 10.4614 15.7471 10.4858L2.23389 18.3105C2.18506 18.335 2.13623 18.3594 2.0874 18.3594Z" fill="#5ac8f5"/>
 </g>
</svg>
