<?xml version="1.0" encoding="UTF-8"?>
<!--Generator: Apple Native CoreSVG 175.5-->
<!DOCTYPE svg
PUBLIC "-//W3C//DTD SVG 1.1//EN"
       "http://www.w3.org/Graphics/SVG/1.1/DTD/svg11.dtd">
<svg version="1.1" xmlns="http://www.w3.org/2000/svg" xmlns:xlink="http://www.w3.org/1999/xlink" width="32.0648" height="22.3511">
 <g>
  <rect height="22.3511" opacity="0" width="32.0648" x="0" y="0"/>
  <path d="M0.32959 6.31104L3.60107 8.74023C4.28467 9.25293 5.09033 8.94775 5.09033 8.11768L5.09033 6.604L8.23975 6.604C8.77686 6.604 9.2041 6.18896 9.2041 5.65186C9.2041 5.12695 8.77686 4.69971 8.23975 4.69971L5.09033 4.69971L5.09033 3.22266C5.09033 2.34375 4.26025 2.0874 3.60107 2.57568L0.32959 5.0293C-0.109863 5.35889-0.109863 5.98145 0.32959 6.31104ZM22.8638 5.65186C22.8638 6.18896 23.2788 6.604 23.8159 6.604L26.9653 6.604L26.9653 8.11768C26.9653 8.94775 27.7832 9.25293 28.4546 8.74023L31.7261 6.31104C32.1777 5.98145 32.1777 5.35889 31.7261 5.0293L28.4546 2.57568C27.8076 2.0874 26.9653 2.34375 26.9653 3.22266L26.9653 4.69971L23.8159 4.69971C23.2788 4.69971 22.8638 5.12695 22.8638 5.65186ZM7.83691 22.3511L24.2188 22.3511C25.5249 22.3511 26.3062 21.7407 26.3062 20.7275C26.3062 17.5781 22.3633 13.2324 16.0278 13.2324C9.70459 13.2324 5.76172 17.5781 5.76172 20.7275C5.76172 21.7407 6.54297 22.3511 7.83691 22.3511ZM16.04 11.0474C18.6523 11.0474 20.9229 8.70361 20.9229 5.65186C20.9229 2.63672 18.6523 0.402832 16.04 0.402832C13.4277 0.402832 11.1572 2.68555 11.1572 5.67627C11.1572 8.70361 13.4155 11.0474 16.04 11.0474Z" fill="#5ac8f5"/>
 </g>
</svg>
