<?xml version="1.0" encoding="UTF-8"?>
<!--Generator: Apple Native CoreSVG 175.5-->
<!DOCTYPE svg
PUBLIC "-//W3C//DTD SVG 1.1//EN"
       "http://www.w3.org/Graphics/SVG/1.1/DTD/svg11.dtd">
<svg version="1.1" xmlns="http://www.w3.org/2000/svg" xmlns:xlink="http://www.w3.org/1999/xlink" width="29.9805" height="24.0601">
 <g>
  <rect height="24.0601" opacity="0" width="29.9805" x="0" y="0"/>
  <path d="M3.83301 23.2788L26.1475 23.2788C28.6865 23.2788 29.9805 22.0093 29.9805 19.4946L29.9805 6.71387C29.9805 4.19922 28.6865 2.94189 26.1475 2.94189L22.6562 2.94189C21.6919 2.94189 21.3989 2.74658 20.8496 2.13623L19.873 1.0376C19.2627 0.366211 18.6401 0 17.3828 0L12.5122 0C11.2549 0 10.6323 0.366211 10.022 1.0376L9.04541 2.13623C8.49609 2.73438 8.19092 2.94189 7.23877 2.94189L3.83301 2.94189C1.28174 2.94189 0 4.19922 0 6.71387L0 19.4946C0 22.0093 1.28174 23.2788 3.83301 23.2788ZM3.85742 21.3135C2.66113 21.3135 1.96533 20.6665 1.96533 19.397L1.96533 6.82373C1.96533 5.5542 2.66113 4.90723 3.85742 4.90723L7.72705 4.90723C8.82568 4.90723 9.42383 4.69971 10.0342 4.01611L10.9863 2.94189C11.6821 2.16064 12.0483 1.96533 13.1226 1.96533L16.7725 1.96533C17.8467 1.96533 18.2129 2.16064 18.9087 2.94189L19.8608 4.01611C20.4712 4.69971 21.0693 4.90723 22.168 4.90723L26.1108 4.90723C27.3193 4.90723 28.0151 5.5542 28.0151 6.82373L28.0151 19.397C28.0151 20.6665 27.3193 21.3135 26.1108 21.3135Z" fill="#5ac8f5" fill-opacity="0.5"/>
  <path d="M6.7749 12.5122C6.48193 12.9395 6.5918 13.4521 7.14111 13.4521L8.38623 13.4521C8.97217 16.7358 11.6333 19.0063 15.0146 19.0063C16.4917 19.0063 17.9688 18.4937 19.0063 17.6392C19.5679 17.1997 19.7144 16.5771 19.2871 16.1377C18.8721 15.6982 18.3472 15.7715 17.8711 16.1133C17.0166 16.7847 16.1621 17.1509 15.0146 17.1509C12.6587 17.1509 10.6934 15.564 10.1562 13.4521L11.4136 13.4521C11.9629 13.4521 12.0972 12.9395 11.792 12.5122L9.86328 9.85107C9.55811 9.41162 9.00879 9.375 8.66699 9.85107ZM10.7178 8.61816C11.1206 9.05762 11.6577 8.99658 12.1216 8.64258C12.9761 7.95898 13.8428 7.61719 14.9902 7.61719C17.3462 7.61719 19.2993 9.2041 19.8364 11.3037L18.5059 11.3037C17.9688 11.3037 17.8345 11.8286 18.1396 12.2437L20.0562 14.917C20.3735 15.3564 20.9229 15.3931 21.2646 14.917L23.1567 12.2437C23.4497 11.8164 23.3398 11.3037 22.7905 11.3037L21.6064 11.3037C21.0205 8.02002 18.3594 5.74951 14.9902 5.74951C13.5132 5.74951 12.0239 6.27441 10.9985 7.12891C10.437 7.56836 10.2905 8.17871 10.7178 8.61816Z" fill="#5ac8f5"/>
 </g>
</svg>
