<?xml version="1.0" encoding="UTF-8"?>
<!--Generator: Apple Native CoreSVG 175.5-->
<!DOCTYPE svg
PUBLIC "-//W3C//DTD SVG 1.1//EN"
       "http://www.w3.org/Graphics/SVG/1.1/DTD/svg11.dtd">
<svg version="1.1" xmlns="http://www.w3.org/2000/svg" xmlns:xlink="http://www.w3.org/1999/xlink" width="21.3745" height="28.6255">
 <g>
  <rect height="28.6255" opacity="0" width="21.3745" x="0" y="0"/>
  <path d="M17.2119 4.24805L18.6035 4.24805C19.1406 4.24805 19.4092 4.54102 19.4092 5.16357L19.4092 23.7671C19.4092 24.4995 19.2993 24.7681 18.6035 25.0732C16.1743 26.1353 12.7563 26.8188 9.53369 26.8188C7.65381 26.8188 5.84717 26.6968 3.97949 26.3794L3.97949 26.5381C9.14307 26.6113 14.0747 25.1587 16.3208 23.4375C17.1875 22.7783 17.4438 22.3389 17.4438 21.2646L17.4438 1.79443C17.4438 0.585938 16.8335 0 15.7593 0C15.3931 0 14.9536 0.0854492 14.4287 0.256348C10.7422 1.46484 7.37305 2.23389 3.05176 2.23389L2.0752 2.23389C0.756836 2.23389 0 3.00293 0 4.19922L0 25.1465C0 26.0986 0.20752 26.6724 1.11084 27.1118C3.19824 28.0151 6.32324 28.6133 9.53369 28.6133C12.9517 28.6133 16.7969 28.1006 19.5557 26.7578C21.0205 26.062 21.3745 25.415 21.3745 23.9014L21.3745 5.16357C21.3745 3.18604 20.4956 2.28271 18.5913 2.28271L17.2119 2.28271ZM1.96533 24.231L1.96533 4.72412C1.96533 4.38232 2.14844 4.1748 2.46582 4.1748L3.13721 4.1748C7.40967 4.1748 11.4014 3.32031 14.8071 2.24609C15.2222 2.11182 15.4785 2.22168 15.4785 2.6001L15.4785 20.8374C15.4785 21.4966 15.3931 21.7651 14.7705 22.168C12.2314 23.8647 8.11768 24.9146 2.39258 24.6704C2.0874 24.6582 1.96533 24.5239 1.96533 24.231ZM4.45557 7.39746L4.45557 11.4014C4.45557 11.5967 4.58984 11.6821 4.74854 11.6821C7.61719 11.6821 10.5225 11.1694 12.7197 10.2905C12.8296 10.2417 12.8906 10.1318 12.8906 10.022L12.8906 5.84717C12.8906 5.56641 12.6343 5.50537 12.5 5.56641C9.97314 6.48193 7.50732 6.97021 4.74854 7.08008C4.57764 7.09229 4.45557 7.22656 4.45557 7.39746Z" fill="#5ac8f5"/>
 </g>
</svg>
