<?xml version="1.0" encoding="UTF-8"?>
<!--Generator: Apple Native CoreSVG 175.5-->
<!DOCTYPE svg
PUBLIC "-//W3C//DTD SVG 1.1//EN"
       "http://www.w3.org/Graphics/SVG/1.1/DTD/svg11.dtd">
<svg version="1.1" xmlns="http://www.w3.org/2000/svg" xmlns:xlink="http://www.w3.org/1999/xlink" width="24.9023" height="24.9146">
 <g>
  <rect height="24.9146" opacity="0" width="24.9023" x="0" y="0"/>
  <path d="M12.4512 24.9023C19.2627 24.9023 24.9023 19.2505 24.9023 12.4512C24.9023 5.63965 19.2505 0 12.439 0C5.63965 0 0 5.63965 0 12.4512C0 19.2505 5.65186 24.9023 12.4512 24.9023ZM12.4512 22.8271C6.68945 22.8271 2.0874 18.2129 2.0874 12.4512C2.0874 6.68945 6.67725 2.0752 12.439 2.0752C18.2007 2.0752 22.8271 6.68945 22.8271 12.4512C22.8271 18.2129 18.2129 22.8271 12.4512 22.8271ZM8.08105 6.75049L5.06592 9.82666C4.93164 9.98535 4.82178 10.2173 4.82178 10.3882C4.82178 10.8398 5.16357 11.1816 5.61523 11.1816C5.82275 11.1816 6.01807 11.084 6.16455 10.9375L7.42188 9.63135L7.88574 9.13086L7.86133 9.729L7.86133 17.6392C7.86133 18.0786 8.20312 18.4082 8.65479 18.4082C9.11865 18.4082 9.44824 18.0786 9.44824 17.6392L9.44824 9.7168L9.42383 9.13086L9.8877 9.63135L11.1572 10.9497C11.3037 11.0962 11.499 11.1816 11.7065 11.1816C12.1582 11.1816 12.4756 10.8521 12.4756 10.3882C12.4756 10.1929 12.3779 9.96094 12.2437 9.82666L9.24072 6.75049C8.94775 6.44531 8.43506 6.39648 8.08105 6.75049ZM16.8091 18.1763L19.7998 15.1123C19.9463 14.9536 20.0562 14.7339 20.0562 14.5386C20.0562 14.0747 19.7266 13.7573 19.2749 13.7573C19.0552 13.7573 18.8477 13.8428 18.7134 13.9893L17.4561 15.2832L16.9922 15.7837L17.0166 15.21L17.0166 7.2876C17.0166 6.83594 16.6748 6.50635 16.2231 6.50635C15.7715 6.50635 15.4297 6.83594 15.4297 7.2876L15.4297 15.2222L15.4541 15.7959L14.9902 15.2832L13.7329 13.9893C13.5742 13.8306 13.3911 13.7573 13.1714 13.7573C12.7075 13.7573 12.4023 14.0747 12.4023 14.5386C12.4023 14.7217 12.4878 14.9414 12.6221 15.1123L15.625 18.1763C15.918 18.4692 16.4795 18.5181 16.8091 18.1763Z" fill="#5ac8f5"/>
 </g>
</svg>
