<?xml version="1.0" encoding="UTF-8"?>
<!--Generator: Apple Native CoreSVG 175.5-->
<!DOCTYPE svg
PUBLIC "-//W3C//DTD SVG 1.1//EN"
       "http://www.w3.org/Graphics/SVG/1.1/DTD/svg11.dtd">
<svg version="1.1" xmlns="http://www.w3.org/2000/svg" xmlns:xlink="http://www.w3.org/1999/xlink" width="21.4111" height="28.3569">
 <g>
  <rect height="28.3569" opacity="0" width="21.4111" x="0" y="0"/>
  <path d="M3.83301 28.3569L17.9443 28.3569C20.1294 28.3569 21.4111 27.0874 21.4111 24.5728L21.4111 10.73C21.4111 8.21533 20.1172 6.9458 17.5781 6.9458L3.83301 6.9458C1.28174 6.9458 0 8.20312 0 10.73L0 24.5728C0 27.0874 1.28174 28.3569 3.83301 28.3569ZM3.85742 26.3916C2.63672 26.3916 1.96533 25.7324 1.96533 24.4629L1.96533 10.8276C1.96533 9.57031 2.63672 8.91113 3.85742 8.91113L17.5415 8.91113C18.75 8.91113 19.4458 9.57031 19.4458 10.8276L19.4458 24.4629C19.4458 25.7324 18.75 26.3916 17.9077 26.3916ZM2.66113 4.98047L18.7378 4.98047C18.5547 3.86963 18.0298 3.25928 16.8091 3.25928L4.58984 3.25928C3.36914 3.25928 2.84424 3.86963 2.66113 4.98047ZM4.78516 1.59912L16.626 1.59912C16.5527 0.561523 15.9546 0.0244141 14.8315 0.0244141L6.56738 0.0244141C5.44434 0.0244141 4.8584 0.561523 4.78516 1.59912ZM9.74121 26.7212L18.4448 26.7212C19.812 26.7212 20.2148 25.9277 20.2148 25.1221C19.9951 23.1934 17.9199 20.9717 14.5996 20.9717C11.084 20.9717 8.88672 23.4985 8.88672 25.4761C8.88672 26.3062 9.24072 26.7212 9.74121 26.7212ZM14.5996 19.4946C16.0522 19.4946 17.2974 18.1885 17.2974 16.5039C17.2974 14.8315 16.0522 13.5986 14.5996 13.5986C13.147 13.5986 11.8774 14.8682 11.8896 16.5283C11.8896 18.1885 13.147 19.4946 14.5996 19.4946ZM6.79932 20.9473C3.8208 20.9473 1.85547 23.0957 1.78223 25.061C1.78223 25.9766 2.20947 26.7212 3.41797 26.7212L7.69043 26.7212C7.54395 26.3428 7.4707 25.9155 7.4707 25.4761C7.4707 23.999 8.17871 22.6196 9.32617 21.5698C8.65479 21.1548 7.8125 20.9473 6.79932 20.9473ZM6.79932 19.6655C8.06885 19.6655 9.15527 18.5303 9.15527 17.041C9.15527 15.5884 8.05664 14.5142 6.79932 14.5142C5.52979 14.5142 4.43115 15.6128 4.43115 17.0532C4.44336 18.5303 5.52979 19.6655 6.79932 19.6655Z" fill="#5ac8f5"/>
 </g>
</svg>
