<?xml version="1.0" encoding="UTF-8"?>
<!--Generator: Apple Native CoreSVG 175.5-->
<!DOCTYPE svg
PUBLIC "-//W3C//DTD SVG 1.1//EN"
       "http://www.w3.org/Graphics/SVG/1.1/DTD/svg11.dtd">
<svg version="1.1" xmlns="http://www.w3.org/2000/svg" xmlns:xlink="http://www.w3.org/1999/xlink" width="16.6748" height="31.604">
 <g>
  <rect height="31.604" opacity="0" width="16.6748" x="0" y="0"/>
  <path d="M1.46484 29.9316C2.03857 29.9316 2.63672 29.6021 3.11279 29.1504L8.00781 24.5117C8.14209 24.3774 8.23975 24.3164 8.3374 24.3164C8.43506 24.3164 8.53271 24.3774 8.66699 24.5117L13.562 29.1504C14.0381 29.6021 14.624 29.9316 15.21 29.9316C16.04 29.9316 16.6748 29.1626 16.6748 28.3447C16.6748 27.8564 16.4795 27.3193 16.2231 26.6357L10.022 10.6323C9.60693 9.57031 9.0332 9.11865 8.3374 9.11865C7.6416 9.11865 7.06787 9.57031 6.65283 10.6323L0.45166 26.6357C0.195312 27.3193 0 27.8564 0 28.3447C0 29.1626 0.622559 29.9316 1.46484 29.9316ZM2.24609 27.2705C2.20947 27.2217 2.19727 27.1729 2.22168 27.0874L8.1543 11.8774C8.19092 11.7798 8.25195 11.6943 8.3374 11.6943C8.43506 11.6943 8.47168 11.792 8.52051 11.8774L14.4531 27.0874C14.4775 27.1729 14.4775 27.2339 14.4287 27.2705C14.4043 27.2827 14.3555 27.3193 14.2822 27.2461L9.28955 22.7173C8.93555 22.3877 8.64258 22.2046 8.3374 22.2046C8.03223 22.2046 7.73926 22.3877 7.38525 22.7173L2.39258 27.2461C2.35596 27.2827 2.28271 27.3193 2.24609 27.2705ZM8.3374 7.44629C8.92334 7.44629 9.31396 7.03125 9.31396 6.38428L9.31396 1.0498C9.31396 0.402832 8.92334 0 8.3374 0C7.75146 0 7.34863 0.402832 7.34863 1.0498L7.34863 6.38428C7.34863 7.03125 7.75146 7.44629 8.3374 7.44629Z" fill="#5ac8f5"/>
 </g>
</svg>
