<?xml version="1.0" encoding="UTF-8"?>
<!--Generator: Apple Native CoreSVG 175.5-->
<!DOCTYPE svg
PUBLIC "-//W3C//DTD SVG 1.1//EN"
       "http://www.w3.org/Graphics/SVG/1.1/DTD/svg11.dtd">
<svg version="1.1" xmlns="http://www.w3.org/2000/svg" xmlns:xlink="http://www.w3.org/1999/xlink" width="16.04" height="27.8931">
 <g>
  <rect height="27.8931" opacity="0" width="16.04" x="0" y="0"/>
  <path d="M8.02002 27.8809C12.7319 27.8809 16.04 24.7192 16.04 20.2393L16.04 7.6416C16.04 3.14941 12.7319 0 8.02002 0C3.32031 0 0 3.14941 0 7.6416L0 20.2393C0 24.7192 3.32031 27.8809 8.02002 27.8809ZM8.02002 12.8296C5.40771 12.8296 3.34473 10.7788 3.34473 8.1665C3.34473 5.5542 5.40771 3.49121 8.02002 3.49121C10.6323 3.49121 12.6831 5.5542 12.6831 8.1665C12.6831 10.7788 10.6323 12.8296 8.02002 12.8296ZM8.02002 24.353C5.40771 24.353 3.34473 22.29 3.34473 19.6777C3.34473 17.0654 5.40771 15.0146 8.02002 15.0146C10.6323 15.0146 12.6831 17.0654 12.6831 19.6777C12.6831 22.29 10.6323 24.353 8.02002 24.353ZM8.02002 9.8999C8.98438 9.8999 9.729 9.14307 9.729 8.1665C9.729 7.18994 8.98438 6.43311 8.02002 6.43311C7.05566 6.43311 6.29883 7.18994 6.29883 8.1665C6.29883 9.14307 7.05566 9.8999 8.02002 9.8999ZM8.02002 22.6929C9.7168 22.6929 11.0229 21.3867 11.0229 19.6777C11.0229 17.9688 9.7168 16.6626 8.02002 16.6626C6.31104 16.6626 5.00488 17.9688 5.00488 19.6777C5.00488 21.3867 6.31104 22.6929 8.02002 22.6929Z" fill="#5ac8f5"/>
 </g>
</svg>
