<?xml version="1.0" encoding="UTF-8"?>
<!--Generator: Apple Native CoreSVG 175.5-->
<!DOCTYPE svg
PUBLIC "-//W3C//DTD SVG 1.1//EN"
       "http://www.w3.org/Graphics/SVG/1.1/DTD/svg11.dtd">
<svg version="1.1" xmlns="http://www.w3.org/2000/svg" xmlns:xlink="http://www.w3.org/1999/xlink" width="29.8828" height="22.4243">
 <g>
  <rect height="22.4243" opacity="0" width="29.8828" x="0" y="0"/>
  <path d="M3.01514 22.3267L10.376 22.3267C12.4878 22.3267 13.3911 21.4478 13.3911 19.3726L13.3911 16.5894L16.5283 16.5894L16.5283 20.9717C16.5283 21.7896 17.1265 22.3999 17.9565 22.3999C18.5547 22.3999 19.043 22.1558 19.6289 21.6064L29.2603 12.5122C29.7363 12.0728 29.8828 11.6089 29.8828 11.2061C29.8828 10.791 29.7363 10.3271 29.2603 9.8877L19.6289 0.878906C18.9819 0.268555 18.5791 0 17.981 0C17.1265 0 16.5283 0.683594 16.5283 1.50146L16.5283 6.23779L8.60596 6.23779C6.49414 6.23779 5.59082 7.1167 5.59082 9.19189L5.59082 11.7432L3.01514 11.7432C0.90332 11.7432 0 12.6099 0 14.6851L0 19.3726C0 21.4478 0.90332 22.3267 3.01514 22.3267ZM3.16162 20.4102C2.35596 20.4102 1.96533 19.9707 1.96533 19.0796L1.96533 14.978C1.96533 14.0869 2.35596 13.6597 3.16162 13.6597L5.61523 13.6597L5.61523 14.2456C5.61523 14.9902 5.84717 15.5273 6.53076 15.9546L11.4258 18.9453L11.4258 19.0796C11.4258 19.9707 11.0352 20.4102 10.2295 20.4102ZM18.6646 19.7754C18.5547 19.7754 18.4937 19.7021 18.4937 19.5923L18.4937 14.8682C18.4937 14.5874 18.3594 14.4653 18.0786 14.4653L8.75244 14.4653C7.94678 14.4653 7.55615 14.0259 7.55615 13.1348L7.55615 9.28955C7.55615 8.38623 7.94678 7.95898 8.75244 7.95898L18.0786 7.95898C18.3594 7.95898 18.4937 7.83691 18.4937 7.55615L18.4937 2.70996C18.4937 2.6123 18.5547 2.53906 18.6646 2.53906C18.7378 2.53906 18.811 2.58789 18.8721 2.63672L27.5635 10.9741C27.6611 11.0596 27.6978 11.1328 27.6978 11.2061C27.6978 11.2793 27.6611 11.3403 27.5635 11.438L18.8721 19.6655C18.7988 19.7388 18.7256 19.7754 18.6646 19.7754Z" fill="#5ac8f5"/>
 </g>
</svg>
