<?xml version="1.0" encoding="UTF-8"?>
<!--Generator: Apple Native CoreSVG 175.5-->
<!DOCTYPE svg
PUBLIC "-//W3C//DTD SVG 1.1//EN"
       "http://www.w3.org/Graphics/SVG/1.1/DTD/svg11.dtd">
<svg version="1.1" xmlns="http://www.w3.org/2000/svg" xmlns:xlink="http://www.w3.org/1999/xlink" width="29.9805" height="31.8495">
 <g>
  <rect height="31.8495" opacity="0" width="29.9805" x="0" y="0"/>
  <path d="M1.63574 1.7341L5.06592 4.67599C5.28564 4.8591 5.51758 5.00558 5.77393 5.00558C6.04248 5.00558 6.27441 4.8591 6.49414 4.67599L9.92432 1.7341C10.9375 0.879607 9.74121-0.682893 8.61816 0.33029L5.77393 2.93039L2.94189 0.33029C1.80664-0.682893 0.622559 0.879607 1.63574 1.7341ZM3.83301 27.1736L26.1475 27.1736C28.6865 27.1736 29.9805 25.904 29.9805 23.3894L29.9805 10.6086C29.9805 8.09396 28.6865 6.83664 26.1475 6.83664L22.6562 6.83664C21.6919 6.83664 21.3989 6.64133 20.8496 6.03097L19.873 4.93234C19.2627 4.26095 18.6401 3.89474 17.3828 3.89474L12.5122 3.89474C11.2549 3.89474 10.6323 4.26095 10.022 4.93234L9.04541 6.03097C8.49609 6.62912 8.19092 6.83664 7.23877 6.83664L3.83301 6.83664C1.28174 6.83664 0 8.09396 0 10.6086L0 23.3894C0 25.904 1.28174 27.1736 3.83301 27.1736ZM3.85742 25.2082C2.66113 25.2082 1.96533 24.5612 1.96533 23.2917L1.96533 10.7185C1.96533 9.44894 2.66113 8.80197 3.85742 8.80197L7.72705 8.80197C8.82568 8.80197 9.42383 8.59445 10.0342 7.91086L10.9863 6.83664C11.6821 6.05539 12.0483 5.86008 13.1226 5.86008L16.7725 5.86008C17.8467 5.86008 18.2129 6.05539 18.9087 6.83664L19.8608 7.91086C20.4712 8.59445 21.0693 8.80197 22.168 8.80197L26.1108 8.80197C27.3193 8.80197 28.0151 9.44894 28.0151 10.7185L28.0151 23.2917C28.0151 24.5612 27.3193 25.2082 26.1108 25.2082ZM14.9902 23.4504C18.6768 23.4504 21.6431 20.4963 21.6431 16.7732C21.6431 13.0622 18.689 10.1081 14.9902 10.1081C11.2915 10.1081 8.3252 13.0622 8.3252 16.7732C8.3252 20.4963 11.2915 23.4504 14.9902 23.4504ZM14.9902 21.5949C12.3413 21.5949 10.1685 19.4587 10.1685 16.7732C10.1685 14.0998 12.3291 11.9514 14.9902 11.9514C17.6514 11.9514 19.7998 14.0998 19.7998 16.7732C19.7998 19.4587 17.6514 21.5949 14.9902 21.5949ZM22.1436 12.281C22.1436 13.1355 22.8394 13.8069 23.6816 13.8069C24.4873 13.8069 25.1953 13.1233 25.1953 12.281C25.1953 11.4753 24.4873 10.7673 23.6816 10.7673C22.8394 10.7673 22.1436 11.4753 22.1436 12.281Z" fill="#5ac8f5"/>
 </g>
</svg>
