<?xml version="1.0" encoding="UTF-8"?>
<!--Generator: Apple Native CoreSVG 175.5-->
<!DOCTYPE svg
PUBLIC "-//W3C//DTD SVG 1.1//EN"
       "http://www.w3.org/Graphics/SVG/1.1/DTD/svg11.dtd">
<svg version="1.1" xmlns="http://www.w3.org/2000/svg" xmlns:xlink="http://www.w3.org/1999/xlink" width="24.9023" height="24.9146">
 <g>
  <rect height="24.9146" opacity="0" width="24.9023" x="0" y="0"/>
  <path d="M12.4512 24.9023C19.2627 24.9023 24.9023 19.2505 24.9023 12.4512C24.9023 5.63965 19.2505 0 12.439 0C5.63965 0 0 5.63965 0 12.4512C0 19.2505 5.65186 24.9023 12.4512 24.9023ZM5.9082 17.5903C5.45654 17.5903 5.17578 17.2974 5.17578 16.8457C5.17578 16.5894 5.24902 16.3696 5.45654 16.1621L8.76465 12.2559C9.36279 11.5601 10.022 10.8521 10.022 10.0342C10.022 9.10645 9.36279 8.48389 8.36182 8.48389C7.4585 8.48389 6.82373 8.93555 6.50635 9.8877C6.33545 10.2661 6.15234 10.4736 5.78613 10.4736C5.34668 10.4736 5.07812 10.1685 5.07812 9.7168C5.07812 9.57031 5.10254 9.42383 5.13916 9.26514C5.46875 7.9834 6.79932 7.01904 8.30078 7.01904C10.2783 7.01904 11.5479 8.14209 11.5479 9.8999C11.5479 11.1572 10.8521 12.0605 9.92432 13.147L7.4707 16.0034L7.4707 16.1011L11.1206 16.1011C11.5234 16.1011 11.8286 16.3574 11.8286 16.8335C11.8286 17.2852 11.5234 17.5903 11.1206 17.5903ZM16.5649 17.8833C14.8315 17.8833 13.7939 16.8945 13.5986 16.1987C13.5498 16.0522 13.5132 15.8813 13.5132 15.7471C13.5132 15.3076 13.7939 15.0024 14.1846 15.0024C14.5142 15.0024 14.7461 15.1367 14.9536 15.4907C15.2588 16.0522 15.8325 16.4185 16.5405 16.4185C18.0054 16.4185 18.9575 14.9414 18.9331 12.439L18.8599 12.439C18.5181 13.2935 17.7002 14.0381 16.333 14.0381C14.6851 14.0381 13.208 12.8296 13.208 10.6689C13.208 8.44727 14.5874 7.01904 16.7114 7.01904C19.0674 7.01904 20.4346 8.80127 20.4346 12.0972C20.4346 15.8936 19.0796 17.8833 16.5649 17.8833ZM16.7969 12.7319C17.981 12.7319 18.7988 11.8408 18.7988 10.6079C18.7988 9.31396 17.9688 8.39844 16.8091 8.39844C15.5884 8.39844 14.8193 9.26514 14.8193 10.5835C14.8193 11.8408 15.6006 12.7319 16.7969 12.7319Z" fill="#5ac8f5"/>
 </g>
</svg>
