<?xml version="1.0" encoding="UTF-8"?>
<!--Generator: Apple Native CoreSVG 175.5-->
<!DOCTYPE svg
PUBLIC "-//W3C//DTD SVG 1.1//EN"
       "http://www.w3.org/Graphics/SVG/1.1/DTD/svg11.dtd">
<svg version="1.1" xmlns="http://www.w3.org/2000/svg" xmlns:xlink="http://www.w3.org/1999/xlink" width="22.4731" height="22.4976">
 <g>
  <rect height="22.4976" opacity="0" width="22.4731" x="0" y="0"/>
  <path d="M3.83301 22.4976L18.6401 22.4976C21.2036 22.4976 22.4731 21.228 22.4731 18.7134L22.4731 3.80859C22.4731 1.29395 21.2036 0.0244141 18.6401 0.0244141L3.83301 0.0244141C1.28174 0.0244141 0 1.28174 0 3.80859L0 18.7134C0 21.2402 1.28174 22.4976 3.83301 22.4976ZM8.54492 17.0166C7.89795 17.0166 7.54395 16.5405 7.54395 15.8691L7.54395 6.53076C7.54395 5.84717 7.88574 5.3833 8.54492 5.3833L12.0483 5.3833C14.4897 5.3833 16.1499 6.9458 16.1499 9.26514C16.1499 11.5845 14.5142 13.1226 12.0361 13.1226L9.57031 13.1226L9.57031 15.8691C9.57031 16.5649 9.21631 17.0166 8.54492 17.0166ZM9.57031 11.5845L11.7676 11.5845C13.2446 11.5845 14.1479 10.6934 14.1479 9.26514C14.1479 7.82471 13.2324 6.93359 11.7676 6.93359L9.57031 6.93359Z" fill="#5ac8f5"/>
 </g>
</svg>
