<?xml version="1.0" encoding="UTF-8"?>
<!--Generator: Apple Native CoreSVG 175.5-->
<!DOCTYPE svg
PUBLIC "-//W3C//DTD SVG 1.1//EN"
       "http://www.w3.org/Graphics/SVG/1.1/DTD/svg11.dtd">
<svg version="1.1" xmlns="http://www.w3.org/2000/svg" xmlns:xlink="http://www.w3.org/1999/xlink" width="27.6842" height="27.701">
 <g>
  <rect height="27.701" opacity="0" width="27.6842" x="0" y="0"/>
  <path d="M1.36881 16.5422L11.1466 26.32C12.9533 28.1266 14.7355 28.1388 16.5299 26.3566L26.3566 16.5177C28.1388 14.7355 28.1266 12.9411 26.32 11.1344L16.5544 1.36881C14.7477-0.43783 12.9655-0.462244 11.1711 1.33219L1.33219 11.1588C-0.462244 12.9533-0.43783 14.7355 1.36881 16.5422Z" fill="#5ac8f5" fill-opacity="0.25"/>
  <path d="M12.4772 19.8136C12.05 19.8136 11.7204 19.6427 11.3908 19.2155L8.33903 15.4557C8.14371 15.2116 8.04606 14.943 8.04606 14.6623C8.04606 14.113 8.4611 13.6613 9.02262 13.6613C9.36442 13.6613 9.64518 13.7712 9.93815 14.174L12.4284 17.3722L17.6408 8.9982C17.8605 8.63199 18.1779 8.43668 18.5075 8.43668C19.0446 8.43668 19.5451 8.80289 19.5451 9.37662C19.5451 9.64518 19.3864 9.92594 19.2399 10.1823L13.4904 19.2155C13.2463 19.6183 12.8922 19.8136 12.4772 19.8136Z" fill="#5ac8f5"/>
 </g>
</svg>
