<?xml version="1.0" encoding="UTF-8"?>
<!--Generator: Apple Native CoreSVG 175.5-->
<!DOCTYPE svg
PUBLIC "-//W3C//DTD SVG 1.1//EN"
       "http://www.w3.org/Graphics/SVG/1.1/DTD/svg11.dtd">
<svg version="1.1" xmlns="http://www.w3.org/2000/svg" xmlns:xlink="http://www.w3.org/1999/xlink" width="29.9157" height="28.5917">
 <g>
  <rect height="28.5917" opacity="0" width="29.9157" x="0" y="0"/>
  <path d="M0.74209 25.4348L2.86611 27.571C3.94033 28.6574 5.17324 28.5842 6.33291 27.3024L19.6996 12.5686L18.4911 11.3478L5.22207 25.9475C4.78262 26.4479 4.36758 26.57 3.78164 25.9841L2.3168 24.5314C1.73086 23.9577 1.86514 23.5305 2.36562 23.0788L16.7089 9.57783L15.4882 8.36933L0.998437 21.9802C-0.234473 23.1276-0.332129 24.3483 0.74209 25.4348ZM8.76211 2.69306C8.23721 3.20576 8.20059 3.92597 8.49355 4.41425C8.78652 4.86591 9.36025 5.15888 10.1659 4.95136C11.997 4.52412 13.9013 4.45087 15.6835 5.62275L14.9511 7.4416C14.5238 8.47919 14.7436 9.21162 15.4149 9.89521L18.2836 12.7883C18.8939 13.3986 19.4066 13.423 20.1146 13.301L21.4452 13.0568L22.2753 13.8991L22.2265 14.5949C22.1776 15.2175 22.3363 15.6936 22.9467 16.2917L23.8988 17.2194C24.497 17.8176 25.266 17.8542 25.852 17.2683L29.4896 13.6184C30.0756 13.0324 30.0512 12.2878 29.453 11.6896L28.4887 10.7375C27.8905 10.1394 27.4267 9.94404 26.8285 9.99287L26.1083 10.0539L25.3026 9.26044L25.6078 7.85664C25.7665 7.14863 25.5712 6.59931 24.8388 5.86689L22.0922 3.13252C17.9174-1.01788 12.3754-0.920219 8.76211 2.69306ZM10.6298 3.15693C13.6693 0.93525 17.7831 1.31367 20.5663 4.09687L23.6059 7.11201C23.8988 7.40498 23.9477 7.63691 23.8622 8.06416L23.4594 9.91962L25.3393 11.7751L26.5722 11.7019C26.8896 11.6896 26.9872 11.7141 27.2313 11.9582L27.9516 12.6784L24.8998 15.7302L24.1796 15.01C23.9354 14.7658 23.8988 14.6682 23.911 14.3386L23.9965 13.1179L22.1288 11.2624L20.2245 11.5798C19.8217 11.6652 19.6386 11.6286 19.3334 11.3356L16.831 8.8332C16.5136 8.54023 16.477 8.33271 16.6723 7.86884L17.7709 5.25654C15.8178 3.43769 13.2787 2.65644 10.7396 3.40107C10.5443 3.4499 10.4711 3.29121 10.6298 3.15693Z" fill="#5ac8f5"/>
 </g>
</svg>
