<?xml version="1.0" encoding="UTF-8"?>
<!--Generator: Apple Native CoreSVG 175.5-->
<!DOCTYPE svg
PUBLIC "-//W3C//DTD SVG 1.1//EN"
       "http://www.w3.org/Graphics/SVG/1.1/DTD/svg11.dtd">
<svg version="1.1" xmlns="http://www.w3.org/2000/svg" xmlns:xlink="http://www.w3.org/1999/xlink" width="22.4731" height="22.4976">
 <g>
  <rect height="22.4976" opacity="0" width="22.4731" x="0" y="0"/>
  <path d="M3.83301 22.4976L18.6401 22.4976C21.2036 22.4976 22.4731 21.228 22.4731 18.7134L22.4731 3.80859C22.4731 1.29395 21.2036 0.0244141 18.6401 0.0244141L3.83301 0.0244141C1.28174 0.0244141 0 1.28174 0 3.80859L0 18.7134C0 21.2402 1.28174 22.4976 3.83301 22.4976ZM3.85742 20.5322C2.63672 20.5322 1.96533 19.8853 1.96533 18.6157L1.96533 3.90625C1.96533 2.63672 2.63672 1.98975 3.85742 1.98975L18.6157 1.98975C19.8242 1.98975 20.5078 2.63672 20.5078 3.90625L20.5078 18.6157C20.5078 19.8853 19.8242 20.5322 18.6157 20.5322ZM11.3403 17.0532C13.7939 17.0532 15.5273 15.625 15.5273 13.1226C15.5273 10.8032 13.7695 9.50928 11.8408 9.50928C10.2051 9.50928 9.25293 10.3394 8.8623 11.2183C8.82568 11.2183 8.78906 11.2183 8.76465 11.2183C8.76465 11.1694 8.76465 11.1328 8.76465 11.0962C8.76465 8.59375 9.8999 6.98242 11.5723 6.98242C12.4268 6.98242 12.9028 7.36084 13.2568 7.78809C13.6475 8.17871 13.8794 8.38623 14.3066 8.38623C14.7095 8.38623 15.0391 8.09326 15.0391 7.66602C15.0391 7.4707 15.0024 7.2998 14.9292 7.12891C14.5386 6.22559 13.2202 5.43213 11.6455 5.43213C8.76465 5.43213 6.97021 7.44629 6.97021 11.5112C6.97021 13.1958 7.27539 14.4165 7.77588 15.2344C8.56934 16.5283 9.8999 17.0532 11.3403 17.0532ZM11.2549 15.5884C9.8999 15.5884 8.91113 14.5874 8.91113 13.1958C8.91113 11.853 9.8877 10.9009 11.2671 10.9009C12.6587 10.9009 13.6108 11.8408 13.6108 13.208C13.6108 14.6484 12.6953 15.5884 11.2549 15.5884Z" fill="#5ac8f5"/>
 </g>
</svg>
