<?xml version="1.0" encoding="UTF-8"?>
<!--Generator: Apple Native CoreSVG 175.5-->
<!DOCTYPE svg
PUBLIC "-//W3C//DTD SVG 1.1//EN"
       "http://www.w3.org/Graphics/SVG/1.1/DTD/svg11.dtd">
<svg version="1.1" xmlns="http://www.w3.org/2000/svg" xmlns:xlink="http://www.w3.org/1999/xlink" width="25.769" height="21.3013">
 <g>
  <rect height="21.3013" opacity="0" width="25.769" x="0" y="0"/>
  <path d="M7.39746 21.2891L18.3716 21.2891C23.3521 21.2891 25.769 18.8965 25.769 13.9282L25.769 7.36084C25.769 2.39258 23.3521 0 18.3716 0L7.39746 0C2.41699 0 0 2.39258 0 7.36084L0 13.9282C0 18.8965 2.41699 21.2891 7.39746 21.2891ZM7.39746 19.3237C3.6499 19.3237 1.96533 17.6514 1.96533 13.9282L1.96533 7.36084C1.96533 3.6377 3.6499 1.96533 7.39746 1.96533L18.3716 1.96533C22.1191 1.96533 23.8037 3.6377 23.8037 7.36084L23.8037 13.9282C23.8037 17.6514 22.1191 19.3237 18.3716 19.3237ZM0.98877 8.19092L24.7803 8.19092L24.7803 6.95801L0.98877 6.95801ZM7.99561 9.0332L17.7734 9.0332C18.6279 9.0332 19.2383 8.43506 19.2383 7.56836C19.2383 6.71387 18.6279 6.11572 17.7734 6.11572L7.99561 6.11572C7.16553 6.11572 6.53076 6.71387 6.53076 7.56836C6.53076 8.43506 7.16553 9.0332 7.99561 9.0332ZM12.8906 13.1958C13.5376 13.1836 14.0625 12.6465 14.0625 12.0361C14.0625 11.3892 13.5376 10.8521 12.8906 10.8521C12.2314 10.8521 11.7065 11.3892 11.7065 12.0361C11.7065 12.6709 12.2314 13.208 12.8906 13.1958Z" fill="#5ac8f5"/>
 </g>
</svg>
