<?xml version="1.0" encoding="UTF-8"?>
<!--Generator: Apple Native CoreSVG 175.5-->
<!DOCTYPE svg
PUBLIC "-//W3C//DTD SVG 1.1//EN"
       "http://www.w3.org/Graphics/SVG/1.1/DTD/svg11.dtd">
<svg version="1.1" xmlns="http://www.w3.org/2000/svg" xmlns:xlink="http://www.w3.org/1999/xlink" width="20.5322" height="26.1841">
 <g>
  <rect height="26.1841" opacity="0" width="20.5322" x="0" y="0"/>
  <path d="M5.51758 9.85107L7.58057 9.85107C7.94678 9.85107 8.17871 9.65576 8.26416 9.33838L9.31396 5.10254L8.25195 5.10254L9.79004 12.561C9.92432 13.2446 10.8154 13.2446 11.0229 12.5854L12.7563 6.5918L11.7676 6.56738L12.4146 9.30176C12.4878 9.65576 12.7319 9.85107 13.0981 9.85107L15.0146 9.85107C15.3687 9.85107 15.6494 9.57031 15.6494 9.22852C15.6494 8.87451 15.3809 8.59375 15.0146 8.59375L13.2202 8.59375L13.5376 8.83789L12.8418 6.14014C12.6831 5.50537 11.8286 5.51758 11.6211 6.16455L9.85107 11.9507L10.8765 11.9507L9.36279 4.49219C9.21631 3.83301 8.3252 3.8208 8.1665 4.47998L7.06787 8.97217L7.43408 8.59375L5.51758 8.59375C5.16357 8.59375 4.88281 8.88672 4.88281 9.22852C4.88281 9.57031 5.16357 9.85107 5.51758 9.85107ZM5.63965 16.3452L14.9048 16.3452C15.332 16.3452 15.6494 16.0156 15.6494 15.5884C15.6494 15.1733 15.332 14.8438 14.9048 14.8438L5.63965 14.8438C5.2002 14.8438 4.88281 15.1733 4.88281 15.5884C4.88281 16.0156 5.2002 16.3452 5.63965 16.3452ZM5.63965 20.6055L10.022 20.6055C10.4614 20.6055 10.7788 20.2759 10.7788 19.8608C10.7788 19.4336 10.4614 19.104 10.022 19.104L5.63965 19.104C5.2002 19.104 4.88281 19.4336 4.88281 19.8608C4.88281 20.2759 5.2002 20.6055 5.63965 20.6055ZM0 22.3511C0 24.9023 1.25732 26.1719 3.78418 26.1719L16.748 26.1719C19.2749 26.1719 20.5322 24.9023 20.5322 22.3511L20.5322 3.83301C20.5322 1.29395 19.2749 0 16.748 0L3.78418 0C1.25732 0 0 1.29395 0 3.83301ZM1.96533 22.3145L1.96533 3.86963C1.96533 2.64893 2.6123 1.96533 3.88184 1.96533L16.6504 1.96533C17.9199 1.96533 18.5669 2.64893 18.5669 3.86963L18.5669 22.3145C18.5669 23.5352 17.9199 24.2065 16.6504 24.2065L3.88184 24.2065C2.6123 24.2065 1.96533 23.5352 1.96533 22.3145Z" fill="#5ac8f5"/>
 </g>
</svg>
