<?xml version="1.0" encoding="UTF-8"?>
<!--Generator: Apple Native CoreSVG 175.5-->
<!DOCTYPE svg
PUBLIC "-//W3C//DTD SVG 1.1//EN"
       "http://www.w3.org/Graphics/SVG/1.1/DTD/svg11.dtd">
<svg version="1.1" xmlns="http://www.w3.org/2000/svg" xmlns:xlink="http://www.w3.org/1999/xlink" width="22.4731" height="22.4976">
 <g>
  <rect height="22.4976" opacity="0" width="22.4731" x="0" y="0"/>
  <path d="M3.83301 22.4976L18.6401 22.4976C21.2036 22.4976 22.4731 21.228 22.4731 18.7134L22.4731 3.80859C22.4731 1.29395 21.2036 0.0244141 18.6401 0.0244141L3.83301 0.0244141C1.28174 0.0244141 0 1.28174 0 3.80859L0 18.7134C0 21.2402 1.28174 22.4976 3.83301 22.4976ZM6.65283 16.4307C6.65283 16.0156 6.84814 15.7593 7.31201 15.6128C8.1665 15.3687 8.89893 14.624 9.021 13.5132C9.0332 13.3667 9.04541 13.2324 9.0332 13.0981L7.38525 13.0981C6.98242 13.0981 6.68945 12.8174 6.68945 12.4146C6.68945 12.0117 6.98242 11.7432 7.38525 11.7432L8.83789 11.7432C8.75244 11.377 8.64258 11.0229 8.55713 10.6567L7.38525 10.6567C6.98242 10.6567 6.68945 10.376 6.68945 9.97314C6.68945 9.57031 6.98242 9.30176 7.38525 9.30176L8.34961 9.30176C8.3374 9.2041 8.3252 9.13086 8.3252 9.0332C8.3252 6.65283 9.92432 5.15137 12.5122 5.15137C13.2812 5.15137 14.0015 5.23682 14.5996 5.48096C15.0391 5.65186 15.1978 5.92041 15.1978 6.25C15.1978 6.66504 14.9658 6.93359 14.4775 6.90918C14.0869 6.86035 13.5376 6.64062 12.6099 6.64062C10.9497 6.64062 9.97314 7.56836 9.97314 8.92334C9.97314 9.05762 9.98535 9.17969 9.99756 9.30176L13.6475 9.30176C14.0625 9.30176 14.3555 9.57031 14.3555 9.97314C14.3555 10.376 14.0625 10.6567 13.6475 10.6567L10.2295 10.6567C10.3149 11.0107 10.4126 11.3647 10.5103 11.7432L13.6475 11.7432C14.0625 11.7432 14.3555 12.0117 14.3555 12.4146C14.3555 12.8174 14.0625 13.0981 13.6475 13.0981L10.6445 13.0981C10.6445 13.2935 10.6323 13.4766 10.6079 13.6597C10.4858 14.4897 10.1196 15.2588 9.57031 15.6982L15.0146 15.6982C15.4663 15.6982 15.7837 15.9912 15.7837 16.4307C15.7837 16.8823 15.4663 17.1753 15.0146 17.1753L7.39746 17.1753C6.9458 17.1753 6.65283 16.8823 6.65283 16.4307Z" fill="#5ac8f5"/>
 </g>
</svg>
