<?xml version="1.0" encoding="UTF-8"?>
<!--Generator: Apple Native CoreSVG 175.5-->
<!DOCTYPE svg
PUBLIC "-//W3C//DTD SVG 1.1//EN"
       "http://www.w3.org/Graphics/SVG/1.1/DTD/svg11.dtd">
<svg version="1.1" xmlns="http://www.w3.org/2000/svg" xmlns:xlink="http://www.w3.org/1999/xlink" width="24.3774" height="24.3042">
 <g>
  <rect height="24.3042" opacity="0" width="24.3774" x="0" y="0"/>
  <path d="M6.50635 24.3042L17.8589 24.3042C19.9463 24.3042 21.7041 24.1089 22.9492 22.8638C24.1943 21.6187 24.3774 19.873 24.3774 17.7856L24.3774 6.53076C24.3774 4.44336 24.1943 2.70996 22.9492 1.46484C21.7041 0.219727 19.9463 0.0244141 17.8589 0.0244141L6.48193 0.0244141C4.43115 0.0244141 2.67334 0.219727 1.42822 1.46484C0.183105 2.70996 0 4.45557 0 6.50635L0 17.7856C0 19.873 0.183105 21.6187 1.42822 22.8638C2.67334 24.1089 4.43115 24.3042 6.50635 24.3042ZM6.17676 22.3389C4.91943 22.3389 3.60107 22.168 2.85645 21.4233C2.12402 20.6909 1.96533 19.3848 1.96533 18.1274L1.96533 6.23779C1.96533 4.94385 2.12402 3.6377 2.85645 2.89307C3.60107 2.16064 4.93164 1.98975 6.21338 1.98975L18.2007 1.98975C19.458 1.98975 20.7764 2.16064 21.5088 2.90527C22.2534 3.6377 22.4121 4.94385 22.4121 6.20117L22.4121 18.1274C22.4121 19.3848 22.2534 20.6909 21.5088 21.4233C20.7764 22.168 19.458 22.3389 18.2007 22.3389Z" fill="#5ac8f5" fill-opacity="0.5"/>
  <path d="M6.70166 9.48486C7.69043 9.59473 8.45947 8.5083 8.39844 7.6416C7.40967 7.67822 6.67725 8.55713 6.70166 9.48486ZM10.0708 13.7085C9.60693 13.501 9.30176 13.1958 9.13086 12.7563C8.94775 12.2803 8.97217 11.792 9.13086 11.377C9.21631 11.0962 9.39941 10.7544 9.87549 10.4736C9.52148 9.94873 8.95996 9.68018 8.30078 9.68018C7.55615 9.68018 7.12891 10.0708 6.75049 10.0708C6.43311 10.0708 6.0791 9.69238 5.48096 9.69238C4.83398 9.69238 4.30908 9.96094 3.96729 10.4004C3.55225 10.9131 3.38135 11.5356 3.38135 12.1826C3.38135 13.2446 3.84521 14.4897 4.54102 15.271C4.91943 15.6738 5.2002 15.8813 5.52979 15.8813C6.03027 15.8813 6.29883 15.5151 6.89697 15.5151C7.16553 15.5151 7.38525 15.625 7.54395 15.6738C7.78809 15.7593 7.95898 15.8691 8.23975 15.8691C8.54492 15.8691 8.78906 15.7471 8.94775 15.6006C9.47266 15.0757 9.8999 14.3311 10.0708 13.7085ZM13.4155 8.23975L12.146 8.23975L12.146 9.68018L11.2671 9.68018L11.2671 10.6567L12.146 10.6567L12.146 14.1968C12.146 15.4297 12.6343 15.8691 13.8794 15.8691C14.1479 15.8691 14.4531 15.8325 14.563 15.8203L14.563 14.7827C14.502 14.8193 14.2822 14.8193 14.1479 14.8193C13.6475 14.8193 13.4155 14.6118 13.4155 14.0503L13.4155 10.6567L14.5874 10.6567L14.5874 9.68018L13.4155 9.68018ZM18.7256 15.8203L20.9473 9.68018L19.5679 9.68018L18.0786 14.6118L16.4917 9.68018L15.1489 9.68018L17.4072 15.8203Z" fill="#5ac8f5"/>
 </g>
</svg>
