<?xml version="1.0" encoding="UTF-8"?>
<!--Generator: Apple Native CoreSVG 175.5-->
<!DOCTYPE svg
PUBLIC "-//W3C//DTD SVG 1.1//EN"
       "http://www.w3.org/Graphics/SVG/1.1/DTD/svg11.dtd">
<svg version="1.1" xmlns="http://www.w3.org/2000/svg" xmlns:xlink="http://www.w3.org/1999/xlink" width="30.2251" height="22.4976">
 <g>
  <rect height="22.4976" opacity="0" width="30.2251" x="0" y="0"/>
  <path d="M0.293238 8.48389C0.720484 8.91113 1.29421 8.8623 1.70925 8.45947L2.88113 7.2998L4.68777 5.3833L4.68777 18.7134C4.68777 21.2402 5.98171 22.4976 8.52078 22.4976L18.4573 22.4976C19.1531 22.4976 19.5559 22.1436 19.5437 21.521C19.5315 20.8862 19.1531 20.5322 18.4573 20.5322L8.5574 20.5322C7.3367 20.5322 6.6531 19.8853 6.6531 18.6157L6.6531 5.35889L8.47195 7.2998L9.64382 8.45947C10.0589 8.8623 10.6448 8.91113 11.0598 8.48389C11.4749 8.08105 11.4505 7.48291 11.0354 7.06787L6.92166 2.96631C6.1282 2.18506 5.23709 2.18506 4.44363 2.96631L0.329859 7.06787C-0.097387 7.48291-0.109594 8.08105 0.293238 8.48389ZM10.6814 1.00098C10.6936 1.62354 11.072 1.98975 11.7678 1.98975L21.68 1.98975C22.9007 1.98975 23.572 2.63672 23.572 3.90625L23.572 17.1631L21.7532 15.21L20.5813 14.0625C20.1663 13.6597 19.5926 13.6108 19.1653 14.0259C18.7503 14.4409 18.7747 15.0391 19.1897 15.4541L23.3035 19.5435C24.1092 20.3369 24.9881 20.3369 25.7937 19.5435L29.8953 15.4541C30.3225 15.0391 30.3347 14.4409 29.9319 14.0259C29.5169 13.6108 28.9309 13.6475 28.5159 14.0625L27.344 15.21L25.5374 17.1387L25.5374 3.80859C25.5374 1.28174 24.2556 0.0244141 21.7044 0.0244141L11.7678 0.0244141C11.072 0.0244141 10.6692 0.378418 10.6814 1.00098Z" fill="#5ac8f5"/>
 </g>
</svg>
