<?xml version="1.0" encoding="UTF-8"?>
<!--Generator: Apple Native CoreSVG 175.5-->
<!DOCTYPE svg
PUBLIC "-//W3C//DTD SVG 1.1//EN"
       "http://www.w3.org/Graphics/SVG/1.1/DTD/svg11.dtd">
<svg version="1.1" xmlns="http://www.w3.org/2000/svg" xmlns:xlink="http://www.w3.org/1999/xlink" width="20.3369" height="28.6255">
 <g>
  <rect height="28.6255" opacity="0" width="20.3369" x="0" y="0"/>
  <path d="M9.59473 26.4038C16.04 26.4038 20.3369 22.0459 20.3369 15.4785C20.3369 4.55322 11.0352 0 4.57764 0C3.43018 0 2.69775 0.402832 2.69775 1.18408C2.69775 1.48926 2.83203 1.80664 3.08838 2.09961C4.54102 3.83301 5.99365 5.896 6.01807 8.30078C6.01807 8.8501 5.95703 9.33838 5.56641 10.022L6.17676 9.8999C5.62744 8.10547 4.15039 6.83594 2.85645 6.83594C2.35596 6.83594 2.01416 7.20215 2.01416 7.75146C2.01416 8.06885 2.09961 8.81348 2.09961 9.35059C2.09961 12.085 0 13.6841 0 18.0908C0 23.0835 3.8208 26.4038 9.59473 26.4038ZM9.87549 22.9736C7.59277 22.9736 6.0791 21.5942 6.0791 19.5435C6.0791 17.395 7.60498 16.626 7.80029 15.2466C7.82471 15.1367 7.89795 15.1001 7.9834 15.1733C8.54492 15.6738 8.91113 16.2842 9.21631 16.9922C9.86328 16.1133 10.1685 14.2578 9.96094 12.2559C9.94873 12.146 10.022 12.085 10.1318 12.1216C12.8052 13.3789 14.1968 16.04 14.1968 18.4204C14.1968 20.8374 12.7808 22.9736 9.87549 22.9736Z" fill="#5ac8f5"/>
 </g>
</svg>
