<?xml version="1.0" encoding="UTF-8"?>
<!--Generator: Apple Native CoreSVG 175.5-->
<!DOCTYPE svg
PUBLIC "-//W3C//DTD SVG 1.1//EN"
       "http://www.w3.org/Graphics/SVG/1.1/DTD/svg11.dtd">
<svg version="1.1" xmlns="http://www.w3.org/2000/svg" xmlns:xlink="http://www.w3.org/1999/xlink" width="24.9023" height="24.9146">
 <g>
  <rect height="24.9146" opacity="0" width="24.9023" x="0" y="0"/>
  <path d="M12.4512 24.9146C19.2627 24.9146 24.9023 19.2749 24.9023 12.4634C24.9023 5.66406 19.2505 0.012207 12.439 0.012207C5.63965 0.012207 0 5.66406 0 12.4634C0 19.2749 5.65186 24.9146 12.4512 24.9146Z" fill="#5ac8f5" fill-opacity="0.25"/>
  <path d="M8.95996 10.9375C8.47168 10.9375 8.08105 10.5347 8.08105 10.0586C8.08105 9.58252 8.47168 9.17969 8.95996 9.17969L11.5967 9.17969L11.5967 6.53076C11.5967 6.06689 11.9995 5.66406 12.4756 5.66406C12.9517 5.66406 13.3667 6.05469 13.3667 6.53076L13.3667 9.17969L15.979 9.17969C16.4551 9.17969 16.8579 9.58252 16.8579 10.0586C16.8579 10.5347 16.4551 10.9375 15.979 10.9375L13.3667 10.9375L13.3667 13.5742C13.3667 14.0503 12.9517 14.4531 12.4756 14.4531C11.9995 14.4531 11.5967 14.0381 11.5967 13.5742L11.5967 10.9375ZM8.97217 18.457C8.47168 18.457 8.08105 18.0298 8.08105 17.5903C8.08105 17.1143 8.47168 16.6992 8.97217 16.6992L15.9668 16.6992C16.4551 16.6992 16.8579 17.1143 16.8579 17.5903C16.8579 18.0298 16.4551 18.457 15.9668 18.457Z" fill="#5ac8f5"/>
 </g>
</svg>
