<?xml version="1.0" encoding="UTF-8"?>
<!--Generator: Apple Native CoreSVG 175.5-->
<!DOCTYPE svg
PUBLIC "-//W3C//DTD SVG 1.1//EN"
       "http://www.w3.org/Graphics/SVG/1.1/DTD/svg11.dtd">
<svg version="1.1" xmlns="http://www.w3.org/2000/svg" xmlns:xlink="http://www.w3.org/1999/xlink" width="23.3887" height="27.1851">
 <g>
  <rect height="27.1851" opacity="0" width="23.3887" x="0" y="0"/>
  <path d="M5.05371 2.55127C8.95996 2.55127 12.6831 8.31299 18.5669 8.31299C21.6309 8.31299 23.3887 6.39648 23.3887 3.93066C23.3887 3.11279 23.1812 2.20947 22.7417 1.36719C22.2046 0.32959 20.6055 1.01318 21.2036 2.16064C21.5454 2.81982 21.7285 3.49121 21.7285 4.08936C21.7285 5.60303 20.6421 6.5918 18.5669 6.5918C13.6108 6.5918 9.8877 0.830078 5.05371 0.830078C1.89209 0.830078 0 2.91748 0 5.35889C0 6.15234 0.183105 6.95801 0.598145 7.75146C1.13525 8.77686 2.70996 8.06885 2.13623 6.95801C1.81885 6.34766 1.67236 5.74951 1.67236 5.2124C1.67236 3.68652 2.86865 2.55127 5.05371 2.55127ZM10.9741 15.1123L12.5732 15.1001C12.3413 10.3394 15.7104 8.08105 15.7104 4.21143C15.7104 2.0752 14.2334 0.341797 12.2803 0.341797C10.5591 0.341797 9.16748 1.63574 9.11865 3.39355L10.7178 3.85742C10.7422 2.7832 11.3525 2.06299 12.2803 2.06299C13.2812 2.06299 13.9893 2.92969 13.9893 4.21143C13.9893 7.12891 10.7178 9.64355 10.9741 15.1123ZM2.09961 15.9912C2.09961 21.3989 6.0791 27.1851 14.0015 27.1851C17.4194 27.1851 20.0317 25.5737 20.0317 23.5474C20.0317 22.5952 19.3604 21.875 18.0786 21.7285C17.749 21.6797 17.4194 21.814 17.3584 22.2168C17.1509 23.9014 15.9912 25.0977 14.4287 25.0977C13.3179 25.0977 12.6343 24.4385 12.6343 23.584C12.6343 20.6543 21.1426 20.4834 21.1426 14.6851C21.1426 12.0239 19.2627 10.1807 16.7603 10.1807C14.4287 10.1807 12.5977 11.4868 11.7676 13.7329C11.9385 10.4858 10.083 8.83789 7.80029 8.83789C4.21143 8.83789 2.09961 12.1216 2.09961 15.9912Z" fill="#5ac8f5"/>
 </g>
</svg>
