<?xml version="1.0" encoding="UTF-8"?>
<!--Generator: Apple Native CoreSVG 175.5-->
<!DOCTYPE svg
PUBLIC "-//W3C//DTD SVG 1.1//EN"
       "http://www.w3.org/Graphics/SVG/1.1/DTD/svg11.dtd">
<svg version="1.1" xmlns="http://www.w3.org/2000/svg" xmlns:xlink="http://www.w3.org/1999/xlink" width="43.5425" height="25.6958">
 <g>
  <rect height="25.6958" opacity="0" width="43.5425" x="0" y="0"/>
  <path d="M4.71191 21.1914C5.10254 20.752 4.98047 20.1782 4.54102 19.6777C2.90527 17.8589 1.98975 15.4663 1.98975 12.8418C1.98975 10.2173 2.90527 7.82471 4.54102 6.00586C4.98047 5.50537 5.10254 4.93164 4.71191 4.49219C4.32129 4.02832 3.6377 4.04053 3.17383 4.55322C1.14746 6.75049 0 9.68018 0 12.8418C0 16.0034 1.14746 18.9209 3.17383 21.1304C3.6377 21.6431 4.32129 21.6431 4.71191 21.1914ZM8.12988 17.7124C8.52051 17.2729 8.36182 16.7236 7.97119 16.1987C7.23877 15.2832 6.88477 14.1113 6.88477 12.8418C6.88477 11.5723 7.23877 10.3882 7.97119 9.48486C8.36182 8.95996 8.52051 8.41064 8.12988 7.97119C7.72705 7.50732 6.99463 7.50732 6.56738 8.05664C5.50537 9.375 4.89502 11.0474 4.89502 12.8418C4.89502 14.6362 5.50537 16.3086 6.56738 17.627C6.99463 18.1763 7.72705 18.1641 8.12988 17.7124ZM38.8306 21.1914C39.2212 21.6431 39.9048 21.6431 40.3687 21.1304C42.395 18.9209 43.5425 16.0034 43.5425 12.8418C43.5425 9.68018 42.395 6.75049 40.3687 4.55322C39.9048 4.04053 39.2212 4.02832 38.8306 4.49219C38.4399 4.93164 38.562 5.50537 39.0015 6.00586C40.6372 7.82471 41.5527 10.2173 41.5527 12.8418C41.5527 15.4663 40.6372 17.8589 39.0015 19.6777C38.562 20.1782 38.4399 20.752 38.8306 21.1914ZM35.4004 17.7124C35.8154 18.1641 36.5356 18.1763 36.9751 17.627C38.0371 16.3086 38.6475 14.6362 38.6475 12.8418C38.6475 11.0474 38.0371 9.375 36.9751 8.05664C36.5356 7.50732 35.8154 7.50732 35.4004 7.97119C35.022 8.41064 35.1807 8.95996 35.5713 9.48486C36.2915 10.3882 36.6577 11.5723 36.6577 12.8418C36.6577 14.1113 36.2915 15.2832 35.5713 16.1987C35.1807 16.7236 35.022 17.2729 35.4004 17.7124ZM12.0972 20.8008L31.4453 20.8008C32.5928 20.8008 33.2886 20.2148 33.2886 19.3237C33.2886 18.103 32.0435 17.0044 30.9937 15.918C30.188 15.0757 29.9683 13.3423 29.8706 11.9385C29.7852 7.25098 28.54 4.02832 25.293 2.85645C24.8291 1.25732 23.5718 0 21.7651 0C19.9707 0 18.7012 1.25732 18.2495 2.85645C15.0024 4.02832 13.7573 7.25098 13.6719 11.9385C13.5742 13.3423 13.3545 15.0757 12.5488 15.918C11.4868 17.0044 10.2539 18.103 10.2539 19.3237C10.2539 20.2148 10.9375 20.8008 12.0972 20.8008ZM21.7651 25.6958C23.8403 25.6958 25.354 24.1821 25.5127 22.4731L18.0298 22.4731C18.1885 24.1821 19.7021 25.6958 21.7651 25.6958Z" fill="#5ac8f5"/>
 </g>
</svg>
