<?xml version="1.0" encoding="UTF-8"?>
<!--Generator: Apple Native CoreSVG 175.5-->
<!DOCTYPE svg
PUBLIC "-//W3C//DTD SVG 1.1//EN"
       "http://www.w3.org/Graphics/SVG/1.1/DTD/svg11.dtd">
<svg version="1.1" xmlns="http://www.w3.org/2000/svg" xmlns:xlink="http://www.w3.org/1999/xlink" width="24.9023" height="24.9146">
 <g>
  <rect height="24.9146" opacity="0" width="24.9023" x="0" y="0"/>
  <path d="M12.4512 24.9023C19.2627 24.9023 24.9023 19.2505 24.9023 12.4512C24.9023 5.63965 19.2505 0 12.439 0C5.63965 0 0 5.63965 0 12.4512C0 19.2505 5.65186 24.9023 12.4512 24.9023ZM12.4512 22.8271C6.68945 22.8271 2.0874 18.2129 2.0874 12.4512C2.0874 6.68945 6.67725 2.0752 12.439 2.0752C18.2007 2.0752 22.8271 6.68945 22.8271 12.4512C22.8271 18.2129 18.2129 22.8271 12.4512 22.8271ZM14.856 18.4937C15.2344 18.1152 15.2222 17.5293 14.8682 17.1875L9.85107 12.4512L14.8682 7.73926C15.2344 7.39746 15.2222 6.78711 14.8438 6.43311C14.502 6.10352 13.9404 6.11572 13.562 6.46973L8.48389 11.2671C7.78809 11.9019 7.78809 13.0249 8.48389 13.6597L13.562 18.457C13.9038 18.7744 14.5386 18.7988 14.856 18.4937Z" fill="#5ac8f5"/>
 </g>
</svg>
