<?xml version="1.0" encoding="UTF-8"?>
<!--Generator: Apple Native CoreSVG 175.5-->
<!DOCTYPE svg
PUBLIC "-//W3C//DTD SVG 1.1//EN"
       "http://www.w3.org/Graphics/SVG/1.1/DTD/svg11.dtd">
<svg version="1.1" xmlns="http://www.w3.org/2000/svg" xmlns:xlink="http://www.w3.org/1999/xlink" width="24.9023" height="24.9146">
 <g>
  <rect height="24.9146" opacity="0" width="24.9023" x="0" y="0"/>
  <path d="M12.4512 24.9023C19.2627 24.9023 24.9023 19.2505 24.9023 12.4512C24.9023 5.63965 19.2505 0 12.439 0C5.63965 0 0 5.63965 0 12.4512C0 19.2505 5.65186 24.9023 12.4512 24.9023ZM5.2124 12.0361C5.13916 11.5723 5.33447 11.2305 5.82275 10.9985L6.70166 10.5713C8.77686 9.59473 10.3882 8.88672 11.5356 8.43506L12.6099 7.99561L13.3789 5.35889C13.6841 4.28467 15.1733 4.69971 14.856 5.78613L14.0137 8.66699C13.9038 9.05762 13.5254 9.17969 13.1958 9.33838L11.9385 9.91211C11.8286 9.97314 11.792 10.0342 11.8408 10.144L13.3057 13.147C13.3789 13.2812 13.5254 13.3179 13.6841 13.2324L15.3809 12.207C15.7837 11.9629 16.1865 11.9507 16.626 12.146L20.2026 13.7817C21.3989 14.3433 20.5566 15.8447 19.5801 15.3809L16.2476 13.7939L13.7817 15.2344C13.623 15.3198 13.623 15.5029 13.7573 15.6006L17.4316 18.4204C18.4082 19.165 17.3828 20.4468 16.4795 19.7876L11.6455 16.2598C11.2915 15.9912 10.9009 15.6982 10.437 14.7949L8.89893 11.7432C8.8501 11.6211 8.76465 11.5845 8.61816 11.6333L6.86035 12.3291L7.23877 14.7461C7.39746 15.8447 5.896 16.1011 5.7251 14.9902ZM8.48389 8.8501C7.53174 8.8501 6.75049 8.06885 6.75049 7.10449C6.75049 6.10352 7.51953 5.31006 8.48389 5.31006C9.47266 5.31006 10.2661 6.10352 10.2661 7.10449C10.2661 8.05664 9.46045 8.8501 8.48389 8.8501Z" fill="#5ac8f5"/>
 </g>
</svg>
