<?xml version="1.0" encoding="UTF-8"?>
<!--Generator: Apple Native CoreSVG 175.5-->
<!DOCTYPE svg
PUBLIC "-//W3C//DTD SVG 1.1//EN"
       "http://www.w3.org/Graphics/SVG/1.1/DTD/svg11.dtd">
<svg version="1.1" xmlns="http://www.w3.org/2000/svg" xmlns:xlink="http://www.w3.org/1999/xlink" width="24.9023" height="24.9146">
 <g>
  <rect height="24.9146" opacity="0" width="24.9023" x="0" y="0"/>
  <path d="M12.4512 24.9146C19.2627 24.9146 24.9023 19.2749 24.9023 12.4634C24.9023 5.66406 19.2505 0.012207 12.439 0.012207C5.63965 0.012207 0 5.66406 0 12.4634C0 19.2749 5.65186 24.9146 12.4512 24.9146Z" fill="#5ac8f5" fill-opacity="0.25"/>
  <path d="M16.9434 13.8306L13.1714 13.8306L13.1714 17.8955L14.8926 17.8955C15.2832 17.8955 15.6006 18.2129 15.6006 18.6035C15.6006 18.9819 15.2832 19.2993 14.8926 19.2993L10.0342 19.2993C9.65576 19.2993 9.33838 18.9819 9.33838 18.6035C9.33838 18.2129 9.65576 17.8955 10.0342 17.8955L11.7676 17.8955L11.7676 13.8306L8.72803 13.8306C8.1665 13.8306 7.89795 13.6597 7.59277 13.3545L5.9082 11.7554C5.23682 11.1084 5.2002 10.4614 5.92041 9.80225L7.59277 8.21533C7.89795 7.89795 8.1665 7.73926 8.72803 7.73926L11.7676 7.73926L11.7676 6.33545C11.7676 5.93262 12.085 5.61523 12.4634 5.61523C12.8662 5.61523 13.1714 5.93262 13.1714 6.33545L13.1714 7.73926L16.9434 7.73926C17.8101 7.73926 18.2861 8.19092 18.2861 9.021L18.2861 12.5366C18.2861 13.3667 17.8101 13.8306 16.9434 13.8306Z" fill="#5ac8f5"/>
 </g>
</svg>
