<?xml version="1.0" encoding="UTF-8"?>
<!--Generator: Apple Native CoreSVG 175.5-->
<!DOCTYPE svg
PUBLIC "-//W3C//DTD SVG 1.1//EN"
       "http://www.w3.org/Graphics/SVG/1.1/DTD/svg11.dtd">
<svg version="1.1" xmlns="http://www.w3.org/2000/svg" xmlns:xlink="http://www.w3.org/1999/xlink" width="22.4731" height="22.4976">
 <g>
  <rect height="22.4976" opacity="0" width="22.4731" x="0" y="0"/>
  <path d="M3.83301 22.4976L18.6401 22.4976C21.2036 22.4976 22.4731 21.228 22.4731 18.7134L22.4731 3.80859C22.4731 1.29395 21.2036 0.0244141 18.6401 0.0244141L3.83301 0.0244141C1.28174 0.0244141 0 1.28174 0 3.80859L0 18.7134C0 21.2402 1.28174 22.4976 3.83301 22.4976ZM3.85742 20.5322C2.63672 20.5322 1.96533 19.8853 1.96533 18.6157L1.96533 3.90625C1.96533 2.63672 2.63672 1.98975 3.85742 1.98975L18.6157 1.98975C19.8242 1.98975 20.5078 2.63672 20.5078 3.90625L20.5078 18.6157C20.5078 19.8853 19.8242 20.5322 18.6157 20.5322Z" fill="#5ac8f5" fill-opacity="0.5"/>
  <path d="M7.87354 16.3574C8.34961 16.3574 8.65479 16.0522 8.65479 15.5762L8.65479 6.93359C8.65479 6.4209 8.30078 6.05469 7.80029 6.05469C7.39746 6.05469 7.15332 6.17676 6.72607 6.46973L4.87061 7.73926C4.61426 7.92236 4.45557 8.14209 4.45557 8.45947C4.45557 8.87451 4.79736 9.19189 5.15137 9.19189C5.35889 9.19189 5.46875 9.17969 5.74951 8.95996L7.05566 7.99561L7.12891 7.99561L7.12891 15.5762C7.12891 16.0522 7.42188 16.3574 7.87354 16.3574ZM15.8813 16.4795C16.3696 16.4795 16.626 16.1377 16.626 15.6616L16.626 14.2212L17.2974 14.2212C17.7124 14.2212 17.981 13.9771 17.981 13.5498C17.981 13.1104 17.7124 12.854 17.2974 12.854L16.626 12.854L16.626 7.14111C16.626 6.43311 16.1377 5.98145 15.4175 5.98145C14.7095 5.98145 14.2822 6.25 13.8916 6.92139C12.8662 8.63037 11.6333 10.73 10.8154 12.207C10.6201 12.5854 10.5469 12.854 10.5469 13.1836C10.5469 13.8306 10.9741 14.2212 11.5845 14.2212L15.1489 14.2212L15.1489 15.6616C15.1489 16.1255 15.4053 16.4795 15.8813 16.4795ZM15.1489 12.854L12.1338 12.854L12.1338 12.8052C12.854 11.4258 14.1113 9.27734 15.0879 7.62939L15.1489 7.62939Z" fill="#5ac8f5"/>
 </g>
</svg>
