<?xml version="1.0" encoding="UTF-8"?>
<!--Generator: Apple Native CoreSVG 175.5-->
<!DOCTYPE svg
PUBLIC "-//W3C//DTD SVG 1.1//EN"
       "http://www.w3.org/Graphics/SVG/1.1/DTD/svg11.dtd">
<svg version="1.1" xmlns="http://www.w3.org/2000/svg" xmlns:xlink="http://www.w3.org/1999/xlink" width="26.1963" height="26.2329">
 <g>
  <rect height="26.2329" opacity="0" width="26.1963" x="0" y="0"/>
  <path d="M0 15.0879C0 17.3828 1.11084 18.5059 3.36914 18.5059L7.70264 18.5059L7.70264 22.8394C7.70264 25.0977 8.82568 26.2085 11.1206 26.2085L15.0757 26.2085C17.3706 26.2085 18.4937 25.0977 18.4937 22.8394L18.4937 18.5059L22.8271 18.5059C25.0854 18.5059 26.1963 17.3828 26.1963 15.0879L26.1963 11.1328C26.1963 8.83789 25.0854 7.71484 22.8271 7.71484L18.4937 7.71484L18.4937 3.36914C18.4937 1.11084 17.3706 0 15.0757 0L11.1206 0C8.82568 0 7.70264 1.11084 7.70264 3.36914L7.70264 7.71484L3.36914 7.71484C1.11084 7.71484 0 8.83789 0 11.1328ZM1.96533 15.0513L1.96533 11.1694C1.96533 10.1807 2.47803 9.68018 3.479 9.68018L9.66797 9.68018L9.66797 3.479C9.66797 2.47803 10.1685 1.96533 11.1572 1.96533L15.0391 1.96533C16.0278 1.96533 16.5283 2.47803 16.5283 3.479L16.5283 9.68018L22.7173 9.68018C23.7183 9.68018 24.231 10.1807 24.231 11.1694L24.231 15.0513C24.231 16.04 23.7183 16.5405 22.7173 16.5405L16.5283 16.5405L16.5283 22.7417C16.5283 23.7427 16.0278 24.2432 15.0391 24.2432L11.1572 24.2432C10.1685 24.2432 9.66797 23.7427 9.66797 22.7417L9.66797 16.5405L3.479 16.5405C2.47803 16.5405 1.96533 16.04 1.96533 15.0513Z" fill="#5ac8f5"/>
 </g>
</svg>
