<?xml version="1.0" encoding="UTF-8"?>
<!--Generator: Apple Native CoreSVG 175.5-->
<!DOCTYPE svg
PUBLIC "-//W3C//DTD SVG 1.1//EN"
       "http://www.w3.org/Graphics/SVG/1.1/DTD/svg11.dtd">
<svg version="1.1" xmlns="http://www.w3.org/2000/svg" xmlns:xlink="http://www.w3.org/1999/xlink" width="28.894" height="20.7886">
 <g>
  <rect height="20.7886" opacity="0" width="28.894" x="0" y="0"/>
  <path d="M14.3555 5.34668C15.8325 5.34668 17.0288 4.15039 17.0288 2.67334C17.0288 1.19629 15.8325 0 14.3555 0C12.8784 0 11.6943 1.19629 11.6943 2.67334C11.6943 4.15039 12.8784 5.34668 14.3555 5.34668ZM1.25732 3.51562L10.2295 8.3252C10.5225 8.48389 10.6934 8.78906 10.5957 9.11865L9.729 12.2803C11.9995 12.7441 12.7686 14.1357 14.4409 14.1357C14.9048 14.1357 15.2954 14.0137 15.6738 13.8306L16.8579 9.46045C16.98 9.00879 17.1021 8.76465 17.5659 8.53271L26.9653 3.51562C27.6367 3.14941 27.8931 2.30713 27.5513 1.63574C27.1606 0.964355 26.3428 0.695801 25.6592 1.06201L16.333 6.00586C14.8682 6.78711 13.4766 6.88477 11.7188 5.94482L2.56348 1.06201C1.87988 0.695801 1.0376 0.964355 0.683594 1.63574C0.317383 2.30713 0.585938 3.14941 1.25732 3.51562ZM0.683594 17.3584L1.9165 17.3584C5.17578 17.3584 5.92041 15.3442 8.17871 15.3442C10.437 15.3442 11.1816 17.3584 14.4409 17.3584C17.7124 17.3584 18.4448 15.3442 20.7153 15.3442C22.9736 15.3442 23.7061 17.3584 26.9775 17.3584L28.2104 17.3584C28.5889 17.3584 28.894 17.0654 28.894 16.687C28.894 16.3086 28.5889 16.0034 28.2104 16.0034L26.9775 16.0034C24.6338 16.0034 23.8403 13.9893 20.7153 13.9893C17.5781 13.9893 16.7847 16.0034 14.4409 16.0034C12.0972 16.0034 11.3159 13.9893 8.17871 13.9893C5.05371 13.9893 4.26025 16.0034 1.9165 16.0034L0.683594 16.0034C0.292969 16.0034 0 16.3086 0 16.687C0 17.0654 0.292969 17.3584 0.683594 17.3584ZM1.00098 20.752C1.40381 20.752 1.72119 20.4346 1.72119 20.0317C1.72119 19.6411 1.40381 19.3237 1.00098 19.3237C0.610352 19.3237 0.292969 19.6411 0.292969 20.0317C0.292969 20.4346 0.610352 20.752 1.00098 20.752ZM3.2959 20.3369C3.68652 20.3369 4.00391 20.0195 4.00391 19.6289C4.00391 19.2261 3.68652 18.9087 3.2959 18.9087C2.89307 18.9087 2.57568 19.2261 2.57568 19.6289C2.57568 20.0195 2.89307 20.3369 3.2959 20.3369ZM5.43213 19.3237C5.83496 19.3237 6.15234 19.0186 6.15234 18.6157C6.15234 18.2129 5.83496 17.9077 5.43213 17.9077C5.0415 17.9077 4.72412 18.2129 4.72412 18.6157C4.72412 19.0186 5.0415 19.3237 5.43213 19.3237ZM7.73926 18.7866C8.14209 18.7866 8.45947 18.4692 8.45947 18.0664C8.45947 17.6758 8.14209 17.3584 7.73926 17.3584C7.34863 17.3584 7.03125 17.6758 7.03125 18.0664C7.03125 18.4692 7.34863 18.7866 7.73926 18.7866ZM10.0464 19.3237C10.4492 19.3237 10.7544 19.0186 10.7544 18.6157C10.7544 18.2129 10.4492 17.9077 10.0464 17.9077C9.64355 17.9077 9.33838 18.2129 9.33838 18.6157C9.33838 19.0186 9.64355 19.3237 10.0464 19.3237ZM12.207 20.3369C12.6099 20.3369 12.9272 20.0195 12.9272 19.6289C12.9272 19.2261 12.6099 18.9087 12.207 18.9087C11.8164 18.9087 11.499 19.2261 11.499 19.6289C11.499 20.0195 11.8164 20.3369 12.207 20.3369ZM14.4653 20.752C14.856 20.752 15.1733 20.4346 15.1733 20.0317C15.1733 19.6411 14.856 19.3237 14.4653 19.3237C14.0625 19.3237 13.7451 19.6411 13.7451 20.0317C13.7451 20.4346 14.0625 20.752 14.4653 20.752ZM16.7114 20.3369C17.1143 20.3369 17.4194 20.0195 17.4194 19.6289C17.4194 19.2261 17.1143 18.9087 16.7114 18.9087C16.3086 18.9087 16.0034 19.2261 16.0034 19.6289C16.0034 20.0195 16.3086 20.3369 16.7114 20.3369ZM18.8721 19.3237C19.2749 19.3237 19.5923 19.0186 19.5923 18.6157C19.5923 18.2129 19.2749 17.9077 18.8721 17.9077C18.4814 17.9077 18.1641 18.2129 18.1641 18.6157C18.1641 19.0186 18.4814 19.3237 18.8721 19.3237ZM21.1792 18.7866C21.582 18.7866 21.8872 18.4692 21.8872 18.0664C21.8872 17.6758 21.582 17.3584 21.1792 17.3584C20.7764 17.3584 20.4712 17.6758 20.4712 18.0664C20.4712 18.4692 20.7764 18.7866 21.1792 18.7866ZM23.4863 19.3237C23.8892 19.3237 24.1943 19.0186 24.1943 18.6157C24.1943 18.2129 23.8892 17.9077 23.4863 17.9077C23.0835 17.9077 22.7783 18.2129 22.7783 18.6157C22.7783 19.0186 23.0835 19.3237 23.4863 19.3237ZM25.6348 20.3369C26.0376 20.3369 26.3428 20.0195 26.3428 19.6289C26.3428 19.2261 26.0376 18.9087 25.6348 18.9087C25.2319 18.9087 24.9268 19.2261 24.9268 19.6289C24.9268 20.0195 25.2319 20.3369 25.6348 20.3369ZM27.9053 20.752C28.3081 20.752 28.6255 20.4346 28.6255 20.0317C28.6255 19.6411 28.3081 19.3237 27.9053 19.3237C27.5146 19.3237 27.1973 19.6411 27.1973 20.0317C27.1973 20.4346 27.5146 20.752 27.9053 20.752Z" fill="#5ac8f5"/>
 </g>
</svg>
