<?xml version="1.0" encoding="UTF-8"?>
<!--Generator: Apple Native CoreSVG 175.5-->
<!DOCTYPE svg
PUBLIC "-//W3C//DTD SVG 1.1//EN"
       "http://www.w3.org/Graphics/SVG/1.1/DTD/svg11.dtd">
<svg version="1.1" xmlns="http://www.w3.org/2000/svg" xmlns:xlink="http://www.w3.org/1999/xlink" width="21.5454" height="26.5747">
 <g>
  <rect height="26.5747" opacity="0" width="21.5454" x="0" y="0"/>
  <path d="M2.99072 8.42285C2.99072 10.8643 4.50439 12.5732 7.40967 13.3789L13.5498 15.1123C15.564 15.686 16.6016 16.7236 16.6016 18.1885L16.6016 19.043L18.5669 19.043L18.5669 18.1885C18.5669 15.7593 17.0532 14.0503 14.1479 13.2446L8.00781 11.5112C6.00586 10.9497 4.95605 9.8877 4.95605 8.42285L4.95605 7.58057L2.99072 7.58057Z" fill="#5ac8f5" fill-opacity="0.5"/>
  <path d="M7.4585 0.537109C7.00684 0.0854492 6.37207 0.012207 5.62744 0.012207L2.33154 0.012207C1.59912 0.012207 0.964355 0.0854492 0.512695 0.537109C0.0610352 0.98877 0 1.61133 0 2.34375L0 5.63965C0 6.38428 0.0610352 7.01904 0.512695 7.4585C0.964355 7.91016 1.59912 7.9834 2.34375 7.9834L5.62744 7.9834C6.37207 7.9834 7.00684 7.91016 7.4585 7.4585C7.89795 7.01904 7.97119 6.38428 7.97119 5.63965L7.97119 2.35596C7.97119 1.61133 7.89795 0.98877 7.4585 0.537109ZM21.0449 19.1406C20.5933 18.689 19.9585 18.6157 19.2139 18.6157L15.918 18.6157C15.1855 18.6157 14.5508 18.689 14.0991 19.1406C13.6475 19.5923 13.5864 20.2148 13.5864 20.9473L13.5864 24.2432C13.5864 24.9878 13.6475 25.6226 14.0991 26.062C14.5508 26.5137 15.1855 26.5747 15.918 26.5747L19.2139 26.5747C19.9585 26.5747 20.5933 26.5137 21.0449 26.062C21.4844 25.6226 21.5454 24.9878 21.5454 24.2432L21.5454 20.9473C21.5454 20.2148 21.4844 19.5923 21.0449 19.1406Z" fill="#5ac8f5"/>
 </g>
</svg>
