<?xml version="1.0" encoding="UTF-8"?>
<!--Generator: Apple Native CoreSVG 175.5-->
<!DOCTYPE svg
PUBLIC "-//W3C//DTD SVG 1.1//EN"
       "http://www.w3.org/Graphics/SVG/1.1/DTD/svg11.dtd">
<svg version="1.1" xmlns="http://www.w3.org/2000/svg" xmlns:xlink="http://www.w3.org/1999/xlink" width="24.9023" height="24.9146">
 <g>
  <rect height="24.9146" opacity="0" width="24.9023" x="0" y="0"/>
  <path d="M12.4512 24.9023C19.2627 24.9023 24.9023 19.2505 24.9023 12.4512C24.9023 5.63965 19.2505 0 12.439 0C5.63965 0 0 5.63965 0 12.4512C0 19.2505 5.65186 24.9023 12.4512 24.9023ZM12.4512 22.8271C6.68945 22.8271 2.0874 18.2129 2.0874 12.4512C2.0874 6.68945 6.67725 2.0752 12.439 2.0752C18.2007 2.0752 22.8271 6.68945 22.8271 12.4512C22.8271 18.2129 18.2129 22.8271 12.4512 22.8271ZM8.3374 17.7124C10.4004 17.7124 11.853 16.4673 11.853 14.7095C11.853 13.4155 10.9497 12.3657 9.7168 12.2437L9.7168 12.1704C10.73 11.9995 11.5234 10.9863 11.5234 9.83887C11.5234 8.27637 10.2417 7.18994 8.41064 7.18994C6.7627 7.18994 5.54199 8.12988 5.22461 9.32617C5.2002 9.48486 5.18799 9.60693 5.18799 9.76562C5.18799 10.2051 5.46875 10.5103 5.88379 10.5103C6.25 10.5103 6.44531 10.3149 6.56738 9.92432C6.83594 9.06982 7.43408 8.59375 8.37402 8.59375C9.35059 8.59375 10.022 9.17969 10.022 10.0342C10.022 10.9253 9.33838 11.5723 8.37402 11.5723L7.70264 11.5723C7.31201 11.5723 7.04346 11.853 7.04346 12.2925C7.04346 12.6831 7.31201 12.9883 7.70264 12.9883L8.42285 12.9883C9.58252 12.9883 10.3271 13.6475 10.3271 14.6362C10.3271 15.5884 9.52148 16.3086 8.34961 16.3086C7.38525 16.3086 6.71387 15.8325 6.39648 14.978C6.23779 14.5874 6.04248 14.3921 5.68848 14.3921C5.28564 14.3921 4.99268 14.6973 4.99268 15.1245C4.99268 15.2954 5.00488 15.4175 5.05371 15.5762C5.37109 16.6992 6.66504 17.7124 8.3374 17.7124ZM16.748 17.7124C18.8721 17.7124 20.3247 16.4917 20.3247 14.7217C20.3247 13.4766 19.5557 12.4634 18.2495 12.1948L18.2495 12.1216C19.3726 11.8164 19.9585 10.9375 19.9585 9.87549C19.9585 8.28857 18.6523 7.18994 16.7725 7.18994C14.9048 7.18994 13.5864 8.28857 13.5864 9.87549C13.5864 10.9375 14.1724 11.792 15.3076 12.1216L15.3076 12.1948C13.9771 12.4634 13.2202 13.4888 13.2202 14.7339C13.2202 16.5161 14.6362 17.7124 16.748 17.7124ZM16.7847 16.4429C15.625 16.4429 14.7827 15.6982 14.7827 14.624C14.7827 13.5742 15.625 12.8052 16.7847 12.8052C17.9688 12.8052 18.7866 13.562 18.7866 14.624C18.7866 15.6982 17.9443 16.4429 16.7847 16.4429ZM16.7725 11.6333C15.8203 11.6333 15.1489 10.9497 15.1489 10.022C15.1489 9.09424 15.8203 8.45947 16.7725 8.45947C17.7368 8.45947 18.4082 9.09424 18.4082 10.022C18.4082 10.9497 17.7246 11.6333 16.7725 11.6333Z" fill="#5ac8f5"/>
 </g>
</svg>
