<?xml version="1.0" encoding="UTF-8"?>
<!--Generator: Apple Native CoreSVG 175.5-->
<!DOCTYPE svg
PUBLIC "-//W3C//DTD SVG 1.1//EN"
       "http://www.w3.org/Graphics/SVG/1.1/DTD/svg11.dtd">
<svg version="1.1" xmlns="http://www.w3.org/2000/svg" xmlns:xlink="http://www.w3.org/1999/xlink" width="29.3289" height="28.6499">
 <g>
  <rect height="28.6499" opacity="0" width="29.3289" x="0" y="0"/>
  <path d="M22.2168 14.0869C23.6938 14.0869 24.8779 12.9028 24.8779 11.4258C24.8779 9.94873 23.6938 8.75244 22.2168 8.75244C20.7275 8.75244 19.5435 9.94873 19.5435 11.4258C19.5435 12.9028 20.7275 14.0869 22.2168 14.0869ZM13.7329 23.6572L18.5425 23.6572L23.5352 18.6646C23.7793 18.4204 24.1821 18.4204 24.4141 18.6646L26.4648 20.7031L24.3408 22.8394C23.2544 23.938 24.9023 25.5981 26.001 24.4995L28.9673 21.5454C29.4556 21.0571 29.4434 20.3369 28.9673 19.8608L25.5127 16.4185C24.8413 15.7471 23.9624 15.3687 23.0225 15.3687L14.0381 15.3687L14.0381 17.749L17.0288 17.749C17.2485 17.749 17.3462 17.9688 17.1997 18.1274L13.7329 21.582ZM1.69678 23.6572L14.4531 23.6572L14.4531 1.26953C14.4531 0.366211 13.1348-0.0244141 12.561 1.01318L0.866699 22.0581C0.402832 22.9126 0.866699 23.6572 1.69678 23.6572ZM2.57568 22.3022C2.4292 22.3022 2.38037 22.168 2.4292 22.0825L12.8052 3.38135C12.8906 3.23486 13.0981 3.27148 13.0981 3.43018L13.0981 22.3022ZM0.683594 28.6499L1.9165 28.6499C5.18799 28.6499 5.92041 26.6357 8.19092 26.6357C10.4492 26.6357 11.1816 28.6499 14.4531 28.6499C17.7124 28.6499 18.457 26.6357 20.7153 26.6357C22.9736 26.6357 23.7183 28.6499 26.9775 28.6499L28.2227 28.6499C28.6011 28.6499 28.894 28.3569 28.894 27.9785C28.894 27.6001 28.6011 27.2949 28.2227 27.2949L26.9775 27.2949C24.6338 27.2949 23.8403 25.2808 20.7153 25.2808C17.5903 25.2808 16.7969 27.2949 14.4531 27.2949C12.1094 27.2949 11.3159 25.2808 8.19092 25.2808C5.05371 25.2808 4.27246 27.2949 1.9165 27.2949L0.683594 27.2949C0.305176 27.2949 0 27.6001 0 27.9785C0 28.3569 0.305176 28.6499 0.683594 28.6499Z" fill="#5ac8f5"/>
 </g>
</svg>
