<?xml version="1.0" encoding="UTF-8"?>
<!--Generator: Apple Native CoreSVG 175.5-->
<!DOCTYPE svg
PUBLIC "-//W3C//DTD SVG 1.1//EN"
       "http://www.w3.org/Graphics/SVG/1.1/DTD/svg11.dtd">
<svg version="1.1" xmlns="http://www.w3.org/2000/svg" xmlns:xlink="http://www.w3.org/1999/xlink" width="24.3544" height="24.561">
 <g>
  <rect height="24.561" opacity="0" width="24.3544" x="0" y="0"/>
  <path d="M1.41729 18.2192L6.14141 22.9311C7.98467 24.7622 10.0477 24.8354 11.7811 23.102L23.5486 11.3223C24.6351 10.248 24.6229 8.69774 23.512 7.5869L16.7615 0.848618C15.6507-0.262222 14.1126-0.286636 13.0262 0.799789L1.25859 12.5674C-0.474804 14.313-0.413769 16.376 1.41729 18.2192ZM2.80889 16.8276C1.86895 15.8755 1.82012 14.789 2.71123 13.8857L14.3323 2.26463C14.6497 1.94725 15.0892 1.94725 15.3943 2.25243L22.1082 8.96629C22.4134 9.27147 22.4012 9.69872 22.096 10.0039L10.4627 21.6372C9.57158 22.5405 8.48516 22.4917 7.53301 21.5395ZM3.19951 11.9692L12.3792 21.1611L13.5999 19.9404L4.44463 10.7851Z" fill="#5ac8f5"/>
 </g>
</svg>
