<?xml version="1.0" encoding="UTF-8"?>
<!--Generator: Apple Native CoreSVG 175.5-->
<!DOCTYPE svg
PUBLIC "-//W3C//DTD SVG 1.1//EN"
       "http://www.w3.org/Graphics/SVG/1.1/DTD/svg11.dtd">
<svg version="1.1" xmlns="http://www.w3.org/2000/svg" xmlns:xlink="http://www.w3.org/1999/xlink" width="16.8213" height="16.2231">
 <g>
  <rect height="16.2231" opacity="0" width="16.8213" x="0" y="0"/>
  <path d="M1.0376 16.2231C1.37939 16.2231 1.61133 16.1133 1.85547 15.9912L15.5762 9.82666C16.2842 9.49707 16.8213 8.95996 16.8213 8.17871C16.8213 7.40967 16.2842 6.84814 15.5762 6.53076L1.85547 0.219727C1.62354 0.0976562 1.40381 0.012207 1.08643 0.012207C0.439453 0.012207 0 0.45166 0 1.09863C0 1.66016 0.292969 1.97754 0.805664 2.22168L13.9404 8.02002L13.9404 8.1543L0.805664 14.0015C0.292969 14.2456 0 14.563 0 15.1245C0 15.7959 0.427246 16.2231 1.0376 16.2231Z" fill="#5ac8f5"/>
 </g>
</svg>
