<?xml version="1.0" encoding="UTF-8"?>
<!--Generator: Apple Native CoreSVG 175.5-->
<!DOCTYPE svg
PUBLIC "-//W3C//DTD SVG 1.1//EN"
       "http://www.w3.org/Graphics/SVG/1.1/DTD/svg11.dtd">
<svg version="1.1" xmlns="http://www.w3.org/2000/svg" xmlns:xlink="http://www.w3.org/1999/xlink" width="19.5068" height="27.1707">
 <g>
  <rect height="27.1707" opacity="0" width="19.5068" x="0" y="0"/>
  <path d="M2.30713 24.7365L15.6616 27.0924C18.0542 27.5197 19.5068 26.1769 19.5068 23.5646L19.5068 8.83069C19.5068 6.43811 18.2861 5.57141 15.9058 5.14417L2.94189 2.86145C1.15967 2.55628 0 3.52063 0 5.26624L0 22.0753C0 23.5768 0.769043 24.4679 2.30713 24.7365ZM3.14941 10.1368L3.14941 7.56116C3.14941 6.67005 3.71094 6.26721 4.63867 6.42591L7.26318 6.88977C8.19092 7.06067 7.97119 8.62317 6.93359 8.44007L5.32227 8.1471C4.94385 8.08606 4.74854 8.23255 4.74854 8.56214L4.74854 10.1979C4.74854 11.1622 3.14941 11.1622 3.14941 10.1368ZM14.6606 12.1266L14.6606 10.5763C14.6606 10.2101 14.5508 9.77063 13.8306 9.64856L12.8174 9.46546C11.7065 9.27014 11.9751 7.71985 13.0859 7.91516L14.3555 8.13489C15.7104 8.37903 16.2598 8.95276 16.2598 10.088L16.2598 12.1266C16.2598 13.2496 14.6606 13.152 14.6606 12.1266ZM4.74854 17.9127L4.74854 19.463C4.74854 19.8292 4.8584 20.2687 5.57861 20.3907L6.5918 20.5739C7.70264 20.757 7.43408 22.3195 6.32324 22.1241L5.05371 21.9044C3.69873 21.6603 3.14941 21.0866 3.14941 19.9513L3.14941 17.9127C3.14941 16.7897 4.74854 16.8873 4.74854 17.9127ZM16.2598 19.9025L16.2598 22.4782C16.2598 23.3693 15.6982 23.7721 14.7705 23.6134L12.1582 23.1495C11.2305 22.9786 11.438 21.4161 12.4756 21.5992L14.0869 21.8922C14.4653 21.9532 14.6606 21.8068 14.6606 21.4772L14.6606 19.8414C14.6606 18.8771 16.2598 18.8771 16.2598 19.9025ZM5.63965 1.65296L16.1987 3.50843C17.2363 3.69153 18.103 3.9845 18.811 4.36292L18.811 3.42298C18.811 0.847292 17.0898-0.373411 14.1968 0.139285Z" fill="#5ac8f5"/>
 </g>
</svg>
