<?xml version="1.0" encoding="UTF-8"?>
<!--Generator: Apple Native CoreSVG 175.5-->
<!DOCTYPE svg
PUBLIC "-//W3C//DTD SVG 1.1//EN"
       "http://www.w3.org/Graphics/SVG/1.1/DTD/svg11.dtd">
<svg version="1.1" xmlns="http://www.w3.org/2000/svg" xmlns:xlink="http://www.w3.org/1999/xlink" width="22.4731" height="22.4976">
 <g>
  <rect height="22.4976" opacity="0" width="22.4731" x="0" y="0"/>
  <path d="M3.83301 22.4976L18.6401 22.4976C21.2036 22.4976 22.4731 21.228 22.4731 18.7134L22.4731 3.80859C22.4731 1.29395 21.2036 0.0244141 18.6401 0.0244141L3.83301 0.0244141C1.28174 0.0244141 0 1.28174 0 3.80859L0 18.7134C0 21.2402 1.28174 22.4976 3.83301 22.4976ZM7.6416 16.5161C7.17773 16.5161 6.86035 16.1987 6.86035 15.7104L6.86035 7.89795L6.79932 7.89795L5.45654 8.88672C5.16357 9.11865 5.0415 9.13086 4.83398 9.13086C4.46777 9.13086 4.11377 8.80127 4.11377 8.37402C4.11377 8.04443 4.27246 7.8125 4.55322 7.62939L6.45752 6.32324C6.89697 6.01807 7.14111 5.896 7.55615 5.896C8.09326 5.896 8.44727 6.27441 8.44727 6.79932L8.44727 15.7104C8.44727 16.1987 8.14209 16.5161 7.6416 16.5161ZM14.4775 16.6748C12.3047 16.6748 10.8398 15.4419 10.8398 13.5986C10.8398 12.3169 11.6211 11.2549 12.9883 10.9741L12.9883 10.9009C11.8164 10.5591 11.2183 9.68018 11.2183 8.58154C11.2183 6.9458 12.5854 5.81055 14.502 5.81055C16.4307 5.81055 17.7979 6.9458 17.7979 8.58154C17.7979 9.68018 17.1875 10.5835 16.0278 10.9009L16.0278 10.9741C17.3828 11.2549 18.1763 12.3047 18.1763 13.5864C18.1763 15.4175 16.6748 16.6748 14.4775 16.6748ZM14.5142 15.3564C15.7104 15.3564 16.5771 14.5874 16.5771 13.4888C16.5771 12.3901 15.7349 11.6089 14.5142 11.6089C13.3301 11.6089 12.4634 12.4023 12.4634 13.4888C12.4634 14.5874 13.3301 15.3564 14.5142 15.3564ZM14.502 10.4004C15.4907 10.4004 16.1865 9.69238 16.1865 8.74023C16.1865 7.78809 15.5029 7.12891 14.502 7.12891C13.5254 7.12891 12.8418 7.78809 12.8418 8.74023C12.8418 9.69238 13.5254 10.4004 14.502 10.4004Z" fill="#5ac8f5"/>
 </g>
</svg>
