<?xml version="1.0" encoding="UTF-8"?>
<!--Generator: Apple Native CoreSVG 175.5-->
<!DOCTYPE svg
PUBLIC "-//W3C//DTD SVG 1.1//EN"
       "http://www.w3.org/Graphics/SVG/1.1/DTD/svg11.dtd">
<svg version="1.1" xmlns="http://www.w3.org/2000/svg" xmlns:xlink="http://www.w3.org/1999/xlink" width="24.2981" height="25.5005">
 <g>
  <rect height="25.5005" opacity="0" width="24.2981" x="0" y="0"/>
  <path d="M0.976562 15.5884C1.53809 15.5884 1.96533 15.1489 1.96533 14.5996L1.96533 10.9009C1.96533 10.3516 1.53809 9.8999 0.976562 9.8999C0.415039 9.8999 0 10.3516 0 10.9009L0 14.5996C0 15.1489 0.415039 15.5884 0.976562 15.5884ZM5.07812 20.5811C5.63965 20.5811 6.0791 20.1416 6.0791 19.5923L6.0791 10.0952L4.11377 8.12988L4.11377 19.5923C4.11377 20.1416 4.52881 20.5811 5.07812 20.5811ZM9.17969 0C8.63037 0 8.21533 0.439453 8.21533 0.98877L8.21533 4.84619L10.1807 6.81152L10.1807 0.98877C10.1807 0.439453 9.75342 0 9.17969 0ZM9.17969 25.5005C9.75342 25.5005 10.1807 25.061 10.1807 24.5117L10.1807 14.1968L8.21533 12.2437L8.21533 24.5117C8.21533 25.061 8.63037 25.5005 9.17969 25.5005ZM13.3057 6.39648C12.7319 6.39648 12.3169 6.83594 12.3169 7.38525L12.3169 8.95996L14.2822 10.9253L14.2822 7.38525C14.2822 6.83594 13.855 6.39648 13.3057 6.39648ZM13.3057 20.1538C13.8672 20.1538 14.2822 19.7144 14.2822 19.165L14.2822 18.2983L12.3169 16.333L12.3169 19.165C12.3169 19.7144 12.7441 20.1538 13.3057 20.1538ZM17.4072 2.69775C16.8457 2.69775 16.4307 3.14941 16.4307 3.68652L16.4307 13.0615L18.396 15.0269L18.396 3.68652C18.396 3.14941 17.9565 2.69775 17.4072 2.69775ZM21.5088 8.8501C20.9473 8.8501 20.5322 9.30176 20.5322 9.83887L20.5322 15.6616C20.5322 16.1987 20.9473 16.6382 21.5088 16.6382C22.0703 16.6382 22.4976 16.1987 22.4976 15.6616L22.4976 9.83887C22.4976 9.30176 22.0703 8.8501 21.5088 8.8501Z" fill="#5ac8f5" fill-opacity="0.5"/>
  <path d="M22.6929 24.353C23.0591 24.7192 23.6694 24.7192 24.0234 24.353C24.3896 23.9746 24.3896 23.3887 24.0234 23.0225L2.13623 1.12305C1.77002 0.756836 1.15967 0.756836 0.793457 1.12305C0.427246 1.47705 0.427246 2.09961 0.793457 2.45361Z" fill="#5ac8f5"/>
 </g>
</svg>
