<?xml version="1.0" encoding="UTF-8"?>
<!--Generator: Apple Native CoreSVG 175.5-->
<!DOCTYPE svg
PUBLIC "-//W3C//DTD SVG 1.1//EN"
       "http://www.w3.org/Graphics/SVG/1.1/DTD/svg11.dtd">
<svg version="1.1" xmlns="http://www.w3.org/2000/svg" xmlns:xlink="http://www.w3.org/1999/xlink" width="28.0884" height="20.4468">
 <g>
  <rect height="20.4468" opacity="0" width="28.0884" x="0" y="0"/>
  <path d="M10.4492 16.9434L10.4492 14.3433C10.4492 13.9648 10.7544 13.6475 11.1572 13.6475C11.5356 13.6475 11.853 13.9648 11.853 14.3433L11.853 16.9434C11.853 17.334 11.5356 17.6514 11.1572 17.6514C10.7544 17.6514 10.4492 17.334 10.4492 16.9434ZM13.3301 16.9434L13.3301 14.3433C13.3301 13.9648 13.6475 13.6475 14.0503 13.6475C14.4287 13.6475 14.7461 13.9648 14.7461 14.3433L14.7461 16.9434C14.7461 17.334 14.4287 17.6514 14.0503 17.6514C13.6475 17.6514 13.3301 17.334 13.3301 16.9434ZM16.2231 16.9434L16.2231 14.3433C16.2231 13.9648 16.5405 13.6475 16.9312 13.6475C17.3218 13.6475 17.6392 13.9648 17.6392 14.3433L17.6392 16.9434C17.6392 17.334 17.3218 17.6514 16.9312 17.6514C16.5405 17.6514 16.2231 17.334 16.2231 16.9434ZM19.1162 16.9434L19.1162 14.3433C19.1162 13.9648 19.4214 13.6475 19.8242 13.6475C20.2148 13.6475 20.52 13.9648 20.52 14.3433L20.52 16.9434C20.52 17.334 20.2148 17.6514 19.8242 17.6514C19.4214 17.6514 19.1162 17.334 19.1162 16.9434ZM22.0215 16.9434L22.0215 14.3433C22.0215 13.9648 22.3267 13.6475 22.7295 13.6475C23.1079 13.6475 23.4131 13.9648 23.4131 14.3433L23.4131 16.9434C23.4131 17.334 23.1079 17.6514 22.7295 17.6514C22.3267 17.6514 22.0215 17.334 22.0215 16.9434ZM4.83398 20.4468L23.2544 20.4468C26.1108 20.4468 28.0884 18.4814 28.0884 15.6494C28.0884 12.8174 26.1108 10.8398 23.2544 10.8398L4.83398 10.8398C1.97754 10.8398 0 12.8174 0 15.6494C0 18.4814 1.97754 20.4468 4.83398 20.4468ZM4.83398 9.16748L23.2544 9.16748C24.4019 9.16748 25.4517 9.42383 26.355 9.8877L23.4375 2.84424C22.6807 1.00098 21.0815 0.012207 18.9697 0.012207L9.11865 0.012207C7.00684 0.012207 5.40771 1.00098 4.65088 2.84424L1.72119 9.8877C2.63672 9.42383 3.68652 9.16748 4.83398 9.16748Z" fill="#5ac8f5"/>
 </g>
</svg>
