<?xml version="1.0" encoding="UTF-8"?>
<!--Generator: Apple Native CoreSVG 175.5-->
<!DOCTYPE svg
PUBLIC "-//W3C//DTD SVG 1.1//EN"
       "http://www.w3.org/Graphics/SVG/1.1/DTD/svg11.dtd">
<svg version="1.1" xmlns="http://www.w3.org/2000/svg" xmlns:xlink="http://www.w3.org/1999/xlink" width="17.5171" height="28.5522">
 <g>
  <rect height="28.5522" opacity="0" width="17.5171" x="0" y="0"/>
  <path d="M1.08643 22.3145C1.77002 22.3145 2.19727 21.8506 2.19727 21.1914L2.19727 12.2925C2.19727 10.1318 3.28369 8.38623 5.11475 8.38623C6.84814 8.38623 7.65381 9.729 7.65381 11.5234L7.65381 21.1914C7.65381 21.8506 8.06885 22.3145 8.74023 22.3145C9.42383 22.3145 9.85107 21.8506 9.85107 21.1914L9.85107 12.0483C9.85107 9.97314 10.9131 8.38623 12.7441 8.38623C14.563 8.38623 15.3198 9.7168 15.3198 11.7188L15.3198 21.1914C15.3198 21.8506 15.7349 22.3145 16.4062 22.3145C17.0898 22.3145 17.5171 21.8506 17.5171 21.1914L17.5171 11.2305C17.5171 8.39844 15.979 6.44531 13.2935 6.44531C11.2793 6.44531 9.76562 7.6416 9.33838 9.47266L9.28955 9.47266C8.89893 7.58057 7.66602 6.44531 5.65186 6.44531C3.80859 6.44531 2.55127 7.61719 2.12402 9.375L2.0752 9.375L2.0752 7.60498C2.0752 6.95801 1.62354 6.50635 1.0376 6.50635C0.415039 6.50635 0 6.95801 0 7.60498L0 21.1914C0 21.8506 0.415039 22.3145 1.08643 22.3145ZM1.84326 28.5522C2.28271 28.5522 2.49023 28.2959 2.64893 27.9175L13.7329 1.68457C13.8062 1.53809 13.8428 1.35498 13.8428 1.2085C13.8428 0.769043 13.5254 0.488281 13.0859 0.488281C12.6831 0.488281 12.4512 0.744629 12.2925 1.12305L1.2085 27.3682C1.13525 27.5024 1.09863 27.6855 1.09863 27.8442C1.09863 28.2837 1.41602 28.5522 1.84326 28.5522Z" fill="#5ac8f5"/>
 </g>
</svg>
