<?xml version="1.0" encoding="UTF-8"?>
<!--Generator: Apple Native CoreSVG 175.5-->
<!DOCTYPE svg
PUBLIC "-//W3C//DTD SVG 1.1//EN"
       "http://www.w3.org/Graphics/SVG/1.1/DTD/svg11.dtd">
<svg version="1.1" xmlns="http://www.w3.org/2000/svg" xmlns:xlink="http://www.w3.org/1999/xlink" width="22.4731" height="22.4976">
 <g>
  <rect height="22.4976" opacity="0" width="22.4731" x="0" y="0"/>
  <path d="M3.83301 22.4976L18.6401 22.4976C21.2036 22.4976 22.4731 21.228 22.4731 18.7134L22.4731 3.80859C22.4731 1.29395 21.2036 0.0244141 18.6401 0.0244141L3.83301 0.0244141C1.28174 0.0244141 0 1.28174 0 3.80859L0 18.7134C0 21.2402 1.28174 22.4976 3.83301 22.4976Z" fill="#5ac8f5" fill-opacity="0.25"/>
  <path d="M4.76074 16.3818C4.30908 16.3818 4.02832 16.0889 4.02832 15.6372C4.02832 15.3809 4.10156 15.1611 4.29688 14.9536L7.61719 11.0474C8.21533 10.3516 8.87451 9.64355 8.87451 8.82568C8.87451 7.89795 8.21533 7.27539 7.20215 7.27539C6.31104 7.27539 5.67627 7.72705 5.35889 8.6792C5.18799 9.05762 5.00488 9.26514 4.63867 9.26514C4.19922 9.26514 3.93066 8.95996 3.93066 8.5083C3.93066 8.36182 3.95508 8.21533 3.9917 8.05664C4.30908 6.7749 5.63965 5.81055 7.14111 5.81055C9.11865 5.81055 10.4004 6.93359 10.4004 8.69141C10.4004 9.94873 9.70459 10.8521 8.77686 11.9385L6.32324 14.7949L6.32324 14.8926L9.97314 14.8926C10.3638 14.8926 10.6689 15.1489 10.6689 15.625C10.6689 16.0767 10.3638 16.3818 9.97314 16.3818ZM15.625 16.6748C13.916 16.6748 12.561 15.625 12.2314 14.4653C12.1948 14.3066 12.1704 14.1724 12.1704 14.0015C12.1704 13.562 12.4756 13.2446 12.9028 13.2446C13.2568 13.2446 13.4766 13.4399 13.623 13.8428C13.9648 14.7217 14.6484 15.21 15.6372 15.21C16.8457 15.21 17.688 14.4775 17.688 13.501C17.688 12.4756 16.9189 11.8042 15.7227 11.8042L14.9902 11.8042C14.563 11.8042 14.2944 11.4868 14.2944 11.084C14.2944 10.6201 14.563 10.3271 14.9902 10.3271L15.6616 10.3271C16.6626 10.3271 17.3584 9.66797 17.3584 8.75244C17.3584 7.87354 16.6626 7.27539 15.6738 7.27539C14.6973 7.27539 14.0869 7.76367 13.8062 8.64258C13.6841 9.04541 13.4888 9.24072 13.1104 9.24072C12.6709 9.24072 12.3901 8.92334 12.3901 8.47168C12.3901 8.31299 12.3901 8.17871 12.4146 8.02002C12.7441 6.78711 14.0015 5.81055 15.7104 5.81055C17.5903 5.81055 18.9087 6.93359 18.9087 8.54492C18.9087 9.729 18.0908 10.7788 17.0654 10.9497L17.0654 11.0229C18.335 11.1572 19.2505 12.2314 19.2505 13.5742C19.2505 15.3809 17.7612 16.6748 15.625 16.6748Z" fill="#5ac8f5"/>
 </g>
</svg>
