<?xml version="1.0" encoding="UTF-8"?>
<!--Generator: Apple Native CoreSVG 175.5-->
<!DOCTYPE svg
PUBLIC "-//W3C//DTD SVG 1.1//EN"
       "http://www.w3.org/Graphics/SVG/1.1/DTD/svg11.dtd">
<svg version="1.1" xmlns="http://www.w3.org/2000/svg" xmlns:xlink="http://www.w3.org/1999/xlink" width="24.0845" height="27.8487">
 <g>
  <rect height="27.8487" opacity="0" width="24.0845" x="0" y="0"/>
  <path d="M10.0586 14.4432L10.0586 25.5149C10.0586 27.5535 11.2915 28.2249 13.0005 27.2361L22.5586 21.7063C23.7549 21.0227 24.0845 20.3269 24.0845 19.033L24.0845 7.65605C24.0845 5.93486 22.5464 5.49541 21.3379 6.179L11.5601 11.8309C10.4736 12.4656 10.0586 13.1858 10.0586 14.4432ZM12.5854 13.5887L21.8872 8.21757C22.0093 8.15654 22.0947 8.21757 22.0947 8.32744L22.0947 18.9964C22.0947 19.4847 21.9971 19.68 21.582 19.9241L12.2314 25.3196C12.1216 25.3807 12.0483 25.3318 12.0483 25.2098L12.0483 14.5164C12.0483 13.9915 12.1948 13.8206 12.5854 13.5887ZM11.1328 22.2557L11.1328 19.8997L7.04346 22.2557C6.93359 22.3167 6.86035 22.2801 6.86035 22.158L6.86035 11.4646C6.86035 10.9397 7.00684 10.7688 7.39746 10.5369L16.6992 5.16582C16.8213 5.09257 16.9067 5.16582 16.9067 5.27568L16.9067 9.85332L18.8965 8.81572L18.8965 4.60429C18.8965 2.8831 17.3584 2.43144 16.1499 3.12724L6.37207 8.76689C5.27344 9.41386 4.87061 10.1341 4.87061 11.3914L4.87061 22.4632C4.87061 24.5018 6.09131 25.1609 7.8125 24.1844ZM5.84717 19.6922L5.84717 17.324L2.17285 19.448C2.06299 19.5091 1.98975 19.4725 1.98975 19.3504L1.98975 8.65703C1.98975 8.13212 2.13623 7.96123 2.52686 7.72929L11.8286 2.3582C11.9507 2.28496 12.0361 2.34599 12.0361 2.46806L12.0361 6.64287L14.0259 5.6541L14.0259 1.79668C14.0259 0.063277 12.4878-0.376176 11.2793 0.307418L1.50146 5.95927C0.415039 6.59404 0 7.31425 0 8.58378L0 19.6434C0 21.6941 1.23291 22.3533 2.94189 21.3645Z" fill="#5ac8f5"/>
 </g>
</svg>
