<?xml version="1.0" encoding="UTF-8"?>
<!--Generator: Apple Native CoreSVG 175.5-->
<!DOCTYPE svg
PUBLIC "-//W3C//DTD SVG 1.1//EN"
       "http://www.w3.org/Graphics/SVG/1.1/DTD/svg11.dtd">
<svg version="1.1" xmlns="http://www.w3.org/2000/svg" xmlns:xlink="http://www.w3.org/1999/xlink" width="20.3499" height="29.6509">
 <g>
  <rect height="29.6509" opacity="0" width="20.3499" x="0" y="0"/>
  <path d="M10.1691 29.1626C13.6237 29.1626 16.6389 25.4517 16.6389 21.46C16.6389 20.8374 16.529 20.3125 16.3093 19.8853C16.6633 19.9829 17.0173 20.0684 17.3591 20.166C18.2014 20.3979 18.4455 20.7275 18.3356 21.46L17.4445 27.3071C17.3347 28.0029 17.7619 28.418 18.3356 28.418C18.9338 28.418 19.2023 28.0518 19.3 27.4414L20.301 21.106C20.5329 19.6777 19.947 18.8965 18.3845 18.5303L12.8791 17.2485L12.8669 17.1265C13.3918 16.8701 13.7458 16.3696 13.9045 15.8203L17.652 15.2832C19.1779 15.0757 19.8615 14.2212 19.8615 12.7197L19.8615 8.49609C19.8615 7.89795 19.5197 7.55615 18.9338 7.55615C18.3478 7.55615 18.0061 7.91016 18.0061 8.49609L18.0061 12.3413C18.0061 13.208 17.5422 13.4888 16.7487 13.5986L13.9533 13.9771C13.819 13.5986 13.5749 13.2568 13.2453 13.0371L13.2453 12.915C15.3327 12.5488 16.4924 11.2793 16.4924 9.42383C16.4924 7.86133 15.9064 6.43311 14.9543 5.33447L15.0642 5.24902C16.2482 4.39453 16.468 3.13721 15.6989 1.78223L14.9787 0.598145C14.7468 0.183105 14.4782 0 14.0998 0C13.5871 0 13.2209 0.366211 13.2209 0.842285C13.2209 1.06201 13.2575 1.18408 13.3918 1.42822L14.0266 2.39258C14.4172 3.02734 14.4172 3.57666 13.9167 4.01611C13.8435 4.07715 13.7824 4.12598 13.7092 4.1748C12.696 3.49121 11.4753 3.08838 10.1691 3.08838C8.8874 3.08838 7.6789 3.49121 6.67793 4.1626C6.60468 4.12598 6.53144 4.06494 6.47041 4.00391C5.98213 3.57666 5.96992 3.02734 6.37275 2.39258L7.00752 1.42822C7.14179 1.18408 7.17842 1.06201 7.17842 0.842285C7.17842 0.366211 6.8 0 6.29951 0C5.92109 0 5.65254 0.183105 5.4206 0.598145L4.70039 1.78223C3.93134 3.13721 4.15107 4.39453 5.33515 5.24902L5.4206 5.31006C4.45625 6.40869 3.8459 7.84912 3.8459 9.42383C3.8459 11.2793 5.01777 12.5488 7.10517 12.915L7.10517 13.0371C6.76338 13.2568 6.53144 13.5986 6.39717 13.9771L3.60175 13.5986C2.79609 13.4888 2.34443 13.208 2.34443 12.3413L2.34443 8.49609C2.34443 7.91016 2.00263 7.55615 1.4167 7.55615C0.830759 7.55615 0.488962 7.89795 0.488962 8.49609L0.488962 12.7197C0.488962 14.2212 1.17256 15.0757 2.69843 15.2832L6.44599 15.8203C6.60468 16.3696 6.94648 16.8701 7.48359 17.1265L7.48359 17.2485L1.96601 18.5303C0.391306 18.8965-0.182425 19.6777 0.0495088 21.106L1.05049 27.4414C1.13593 28.0518 1.4167 28.418 2.01484 28.418C2.58857 28.418 3.01582 28.0029 2.90595 27.3071L2.01484 21.46C1.89277 20.7275 2.14912 20.3979 2.9914 20.166C3.3332 20.0684 3.6872 19.9829 4.029 19.8853C3.82148 20.3125 3.71162 20.8374 3.71162 21.46C3.71162 25.4517 6.72675 29.1626 10.1691 29.1626Z" fill="#5ac8f5"/>
 </g>
</svg>
