<?xml version="1.0" encoding="UTF-8"?>
<!--Generator: Apple Native CoreSVG 175.5-->
<!DOCTYPE svg
PUBLIC "-//W3C//DTD SVG 1.1//EN"
       "http://www.w3.org/Graphics/SVG/1.1/DTD/svg11.dtd">
<svg version="1.1" xmlns="http://www.w3.org/2000/svg" xmlns:xlink="http://www.w3.org/1999/xlink" width="24.9023" height="24.9146">
 <g>
  <rect height="24.9146" opacity="0" width="24.9023" x="0" y="0"/>
  <path d="M12.4512 24.9023C19.2627 24.9023 24.9023 19.2505 24.9023 12.4512C24.9023 5.63965 19.2505 0 12.439 0C5.63965 0 0 5.63965 0 12.4512C0 19.2505 5.65186 24.9023 12.4512 24.9023ZM12.4512 22.8271C6.68945 22.8271 2.0874 18.2129 2.0874 12.4512C2.0874 6.68945 6.67725 2.0752 12.439 2.0752C18.2007 2.0752 22.8271 6.68945 22.8271 12.4512C22.8271 18.2129 18.2129 22.8271 12.4512 22.8271Z" fill="#5ac8f5" fill-opacity="0.5"/>
  <path d="M8.53271 17.7124C10.6079 17.7124 12.0605 16.4673 12.0605 14.7095C12.0605 13.4155 11.1572 12.3657 9.92432 12.2437L9.92432 12.1704C10.9375 11.9995 11.731 10.9863 11.731 9.83887C11.731 8.27637 10.437 7.18994 8.61816 7.18994C6.97021 7.18994 5.74951 8.12988 5.43213 9.32617C5.39551 9.48486 5.39551 9.60693 5.39551 9.76562C5.39551 10.2051 5.66406 10.5103 6.09131 10.5103C6.45752 10.5103 6.65283 10.3149 6.7749 9.92432C7.04346 9.06982 7.62939 8.59375 8.58154 8.59375C9.5459 8.59375 10.2295 9.17969 10.2295 10.0342C10.2295 10.9253 9.5459 11.5723 8.56934 11.5723L7.91016 11.5723C7.51953 11.5723 7.23877 11.853 7.23877 12.2925C7.23877 12.6831 7.50732 12.9883 7.91016 12.9883L8.63037 12.9883C9.79004 12.9883 10.5347 13.6475 10.5347 14.6362C10.5347 15.5884 9.7168 16.3086 8.54492 16.3086C7.58057 16.3086 6.92139 15.8325 6.5918 14.978C6.44531 14.5874 6.23779 14.3921 5.896 14.3921C5.48096 14.3921 5.18799 14.6973 5.18799 15.1245C5.18799 15.2954 5.2124 15.4175 5.24902 15.5762C5.57861 16.6992 6.87256 17.7124 8.53271 17.7124ZM15.1855 17.5781C15.5029 17.5781 15.7471 17.395 15.9546 16.98L19.7754 9.36279C19.9585 8.97217 20.0073 8.75244 20.0073 8.49609C20.0073 7.89795 19.5801 7.43408 18.9209 7.43408L13.9893 7.43408C13.5742 7.43408 13.2812 7.71484 13.2812 8.12988C13.2812 8.53271 13.5742 8.80127 13.9893 8.80127L18.2861 8.80127L18.2861 8.89893L14.502 16.2231C14.3921 16.4062 14.3677 16.5527 14.3677 16.7847C14.3677 17.2485 14.7217 17.5781 15.1855 17.5781Z" fill="#5ac8f5"/>
 </g>
</svg>
