<?xml version="1.0" encoding="UTF-8"?>
<!--Generator: Apple Native CoreSVG 175.5-->
<!DOCTYPE svg
PUBLIC "-//W3C//DTD SVG 1.1//EN"
       "http://www.w3.org/Graphics/SVG/1.1/DTD/svg11.dtd">
<svg version="1.1" xmlns="http://www.w3.org/2000/svg" xmlns:xlink="http://www.w3.org/1999/xlink" width="24.9023" height="24.9146">
 <g>
  <rect height="24.9146" opacity="0" width="24.9023" x="0" y="0"/>
  <path d="M12.4512 24.9023C19.2627 24.9023 24.9023 19.2505 24.9023 12.4512C24.9023 5.63965 19.2505 0 12.439 0C5.63965 0 0 5.63965 0 12.4512C0 19.2505 5.65186 24.9023 12.4512 24.9023ZM12.4512 22.8271C6.68945 22.8271 2.0874 18.2129 2.0874 12.4512C2.0874 6.68945 6.67725 2.0752 12.439 2.0752C18.2007 2.0752 22.8271 6.68945 22.8271 12.4512C22.8271 18.2129 18.2129 22.8271 12.4512 22.8271Z" fill="#5ac8f5" fill-opacity="0.5"/>
  <path d="M6.99463 17.9688L17.8833 17.9688C19.165 17.9688 19.8242 17.334 19.8242 16.0645L19.8242 9.60693C19.8242 8.3252 19.165 7.69043 17.8833 7.69043L16.3086 7.69043C15.8325 7.69043 15.6738 7.59277 15.3931 7.2876L14.9048 6.72607C14.5996 6.39648 14.2822 6.21338 13.6475 6.21338L11.1816 6.21338C10.5591 6.21338 10.2417 6.39648 9.92432 6.72607L9.42383 7.2876C9.14307 7.58057 9.00879 7.69043 8.52051 7.69043L6.99463 7.69043C5.70068 7.69043 5.05371 8.3252 5.05371 9.60693L5.05371 16.0645C5.05371 17.334 5.70068 17.9688 6.99463 17.9688ZM12.4512 16.4307C10.4248 16.4307 8.78906 14.8071 8.78906 12.7686C8.78906 10.7422 10.4248 9.11865 12.4512 9.11865C14.4775 9.11865 16.1011 10.7422 16.1011 12.7686C16.1011 14.8438 14.4775 16.4307 12.4512 16.4307ZM12.439 15.3809C13.8794 15.3809 15.0513 14.2212 15.0513 12.7686C15.0513 11.3281 13.8794 10.1685 12.439 10.1685C10.9985 10.1685 9.82666 11.3281 9.82666 12.7686C9.82666 14.2212 10.9985 15.3809 12.439 15.3809ZM17.3218 11.0107C16.8701 11.0107 16.4917 10.6567 16.4917 10.1807C16.4917 9.729 16.8701 9.36279 17.3218 9.36279C17.7734 9.36279 18.1396 9.729 18.1396 10.1807C18.1519 10.6567 17.7734 11.0107 17.3218 11.0107Z" fill="#5ac8f5"/>
 </g>
</svg>
