<?xml version="1.0" encoding="UTF-8"?>
<!--Generator: Apple Native CoreSVG 175.5-->
<!DOCTYPE svg
PUBLIC "-//W3C//DTD SVG 1.1//EN"
       "http://www.w3.org/Graphics/SVG/1.1/DTD/svg11.dtd">
<svg version="1.1" xmlns="http://www.w3.org/2000/svg" xmlns:xlink="http://www.w3.org/1999/xlink" width="29.5166" height="22.4976">
 <g>
  <rect height="22.4976" opacity="0" width="29.5166" x="0" y="0"/>
  <path d="M10.498 22.4976L19.0308 22.4976C26.2939 22.4976 29.5166 19.165 29.5166 12.3169L29.5166 3.80859C29.5166 1.29395 28.2349 0.0244141 25.6836 0.0244141L3.83301 0.0244141C1.28174 0.0244141 0 1.28174 0 3.80859L0 12.3169C0 19.165 3.22266 22.4976 10.498 22.4976ZM9.28955 16.9067C8.64258 16.9067 8.30078 16.4429 8.30078 15.7715L8.30078 6.4209C8.30078 5.7373 8.64258 5.28564 9.28955 5.28564C9.94873 5.28564 10.3027 5.71289 10.3027 6.4209L10.3027 15.2466L15.0879 15.2466C15.5762 15.2466 15.9302 15.5518 15.9302 16.0767C15.9302 16.5894 15.5762 16.9067 15.0879 16.9067ZM20.105 17.1997C19.4824 17.1997 19.1162 16.7725 19.1162 16.0645L19.1162 7.49512L19.0186 7.49512L17.395 8.56934C17.1143 8.76465 16.98 8.78906 16.7847 8.78906C16.3818 8.78906 16.0645 8.42285 16.0645 8.03223C16.0645 7.71484 16.1743 7.53174 16.4551 7.32422L18.7134 5.78613C19.2627 5.41992 19.5923 5.29785 20.0562 5.29785C20.7275 5.29785 21.1182 5.70068 21.1182 6.43311L21.1182 16.0645C21.1182 16.7725 20.752 17.1997 20.105 17.1997Z" fill="#5ac8f5"/>
 </g>
</svg>
