<?xml version="1.0" encoding="UTF-8"?>
<!--Generator: Apple Native CoreSVG 175.5-->
<!DOCTYPE svg
PUBLIC "-//W3C//DTD SVG 1.1//EN"
       "http://www.w3.org/Graphics/SVG/1.1/DTD/svg11.dtd">
<svg version="1.1" xmlns="http://www.w3.org/2000/svg" xmlns:xlink="http://www.w3.org/1999/xlink" width="24.9023" height="24.9146">
 <g>
  <rect height="24.9146" opacity="0" width="24.9023" x="0" y="0"/>
  <path d="M12.4146 15.1611C13.9038 15.1611 15.1245 13.9404 15.1245 12.4512C15.1245 10.9497 13.9038 9.74121 12.4146 9.74121C10.9253 9.74121 9.70459 10.9497 9.70459 12.4512C9.70459 13.9404 10.9253 15.1611 12.4146 15.1611ZM12.4146 13.623C11.7676 13.623 11.2427 13.0981 11.2427 12.4512C11.2427 11.792 11.7676 11.2793 12.4146 11.2793C13.0615 11.2793 13.5864 11.792 13.5864 12.4512C13.5864 13.0981 13.0615 13.623 12.4146 13.623ZM11.8652 14.4287L10.4736 13.0371L8.6792 14.8315C8.30078 15.21 8.30078 15.8447 8.6792 16.2231C9.05762 16.6016 9.68018 16.6016 10.0708 16.2231ZM13.0249 10.498L14.4165 11.8652L18.7378 7.54395C19.1284 7.16553 19.1284 6.54297 18.7378 6.15234C18.3594 5.77393 17.7368 5.77393 17.3584 6.15234ZM12.4512 24.9023C19.2627 24.9023 24.9023 19.2505 24.9023 12.4512C24.9023 5.63965 19.2505 0 12.439 0C5.63965 0 0 5.63965 0 12.4512C0 19.2505 5.65186 24.9023 12.4512 24.9023ZM12.4512 22.8271C6.68945 22.8271 2.0874 18.2129 2.0874 12.4512C2.0874 6.68945 6.67725 2.0752 12.439 2.0752C18.2007 2.0752 22.8271 6.68945 22.8271 12.4512C22.8271 18.2129 18.2129 22.8271 12.4512 22.8271Z" fill="#5ac8f5"/>
 </g>
</svg>
