<?xml version="1.0" encoding="UTF-8"?>
<!--Generator: Apple Native CoreSVG 175.5-->
<!DOCTYPE svg
PUBLIC "-//W3C//DTD SVG 1.1//EN"
       "http://www.w3.org/Graphics/SVG/1.1/DTD/svg11.dtd">
<svg version="1.1" xmlns="http://www.w3.org/2000/svg" xmlns:xlink="http://www.w3.org/1999/xlink" width="29.7485" height="21.5454">
 <g>
  <rect height="21.5454" opacity="0" width="29.7485" x="0" y="0"/>
  <path d="M2.47803 15.7349L5.98145 15.7349C6.09131 15.7349 6.18896 15.7715 6.27441 15.8447L11.7798 20.7764C12.3657 21.3013 12.8174 21.5454 13.4033 21.5454C14.1846 21.5454 14.7827 20.9717 14.7827 20.1782L14.7827 1.45264C14.7827 0.65918 14.1846 0.012207 13.3789 0.012207C12.793 0.012207 12.4146 0.280762 11.7798 0.854492L6.27441 5.7373C6.18896 5.81055 6.09131 5.84717 5.98145 5.84717L2.47803 5.84717C0.817871 5.84717 0 6.68945 0 8.45947L0 13.1348C0 14.9048 0.830078 15.7349 2.47803 15.7349ZM2.56348 13.9526C2.11182 13.9526 1.9043 13.7451 1.9043 13.2935L1.9043 8.30078C1.9043 7.83691 2.11182 7.62939 2.56348 7.62939L6.46973 7.62939C6.78711 7.62939 7.03125 7.56836 7.31201 7.31201L12.5122 2.58789C12.5732 2.52686 12.6343 2.49023 12.7197 2.49023C12.8052 2.49023 12.8784 2.55127 12.8784 2.66113L12.8784 18.8843C12.8784 18.9941 12.8052 19.0674 12.7197 19.0674C12.6587 19.0674 12.5854 19.0308 12.5122 18.9697L7.31201 14.27C7.03125 14.0259 6.78711 13.9526 6.46973 13.9526ZM18.4326 10.7666C18.4326 11.3647 18.8599 11.7676 19.4824 11.7676L23.0713 11.7676L23.0713 15.3687C23.0713 15.979 23.4863 16.4062 24.0845 16.4062C24.6948 16.4062 25.1221 15.9912 25.1221 15.3687L25.1221 11.7676L28.7231 11.7676C29.3335 11.7676 29.7485 11.3647 29.7485 10.7666C29.7485 10.1562 29.3335 9.729 28.7231 9.729L25.1221 9.729L25.1221 6.14014C25.1221 5.51758 24.6948 5.09033 24.0845 5.09033C23.4863 5.09033 23.0713 5.51758 23.0713 6.14014L23.0713 9.729L19.4824 9.729C18.8599 9.729 18.4326 10.1562 18.4326 10.7666Z" fill="#5ac8f5"/>
 </g>
</svg>
