<?xml version="1.0" encoding="UTF-8"?>
<!--Generator: Apple Native CoreSVG 175.5-->
<!DOCTYPE svg
PUBLIC "-//W3C//DTD SVG 1.1//EN"
       "http://www.w3.org/Graphics/SVG/1.1/DTD/svg11.dtd">
<svg version="1.1" xmlns="http://www.w3.org/2000/svg" xmlns:xlink="http://www.w3.org/1999/xlink" width="26.2451" height="22.7173">
 <g>
  <rect height="22.7173" opacity="0" width="26.2451" x="0" y="0"/>
  <path d="M0 21.7529C0 22.3389 0.390625 22.7173 0.976562 22.7173L25.2563 22.7173C25.7935 22.7173 26.2451 22.29 26.2451 21.7407C26.2451 21.2036 25.7935 20.7642 25.2563 20.7642L2.30713 20.7642C2.05078 20.7642 1.96533 20.6787 1.96533 20.4224L1.96533 1.12305C1.96533 0.598145 1.52588 0.146484 0.98877 0.146484C0.439453 0.146484 0 0.598145 0 1.12305ZM1.28174 14.1602L9.13086 9.61914L14.7827 14.4653L24.8291 8.48389L24.0601 7.23877L14.8804 12.7075L9.25293 7.88574L1.28174 12.4878ZM8.97217 11.2671C10.1685 11.2671 11.145 10.2905 11.145 9.09424C11.145 7.89795 10.1685 6.93359 8.97217 6.93359C7.77588 6.93359 6.79932 7.89795 6.79932 9.09424C6.79932 10.2905 7.77588 11.2671 8.97217 11.2671ZM14.7339 15.7471C15.9302 15.7471 16.8945 14.7705 16.8945 13.5742C16.8945 12.3779 15.9302 11.4136 14.7339 11.4136C13.5376 11.4136 12.561 12.3779 12.561 13.5742C12.561 14.7705 13.5376 15.7471 14.7339 15.7471ZM23.938 10.1929C25.1343 10.1929 26.1108 9.21631 26.1108 8.02002C26.1108 6.82373 25.1343 5.84717 23.938 5.84717C22.7417 5.84717 21.7651 6.82373 21.7651 8.02002C21.7651 9.21631 22.7417 10.1929 23.938 10.1929Z" fill="#5ac8f5"/>
 </g>
</svg>
