<?xml version="1.0" encoding="UTF-8"?>
<!--Generator: Apple Native CoreSVG 175.5-->
<!DOCTYPE svg
PUBLIC "-//W3C//DTD SVG 1.1//EN"
       "http://www.w3.org/Graphics/SVG/1.1/DTD/svg11.dtd">
<svg version="1.1" xmlns="http://www.w3.org/2000/svg" xmlns:xlink="http://www.w3.org/1999/xlink" width="27.2736" height="28.5004">
 <g>
  <rect height="28.5004" opacity="0" width="27.2736" x="0" y="0"/>
  <path d="M14.3952 27.1835L26.297 15.2573C27.2125 14.3417 27.2736 13.8168 27.2736 12.5351L27.2736 7.89643C27.2736 6.60248 26.9684 6.19965 26.0407 5.27192L23.233 2.4643C22.3175 1.54877 21.9147 1.23139 20.6207 1.23139L15.9699 1.23139C14.6881 1.23139 14.1754 1.29242 13.2599 2.20795L1.32143 14.122C-0.424179 15.8676-0.4608 17.6743 1.33363 19.4565L9.06068 27.1713C10.8551 28.9536 12.6496 28.9291 14.3952 27.1835ZM13.0768 25.7065C12.1979 26.5854 11.2702 26.5976 10.379 25.6943L2.79848 18.1259C1.90736 17.2348 1.91957 16.2949 2.78627 15.4282L14.6393 3.59955C14.8834 3.35541 15.1398 3.19672 15.5548 3.19672L20.694 3.19672C21.0724 3.19672 21.3288 3.3432 21.5851 3.59955L24.9176 6.91986C25.174 7.17621 25.3082 7.43256 25.3082 7.81098L25.3082 12.9623C25.3082 13.3652 25.1618 13.6215 24.9176 13.8657ZM19.1925 10.997C20.1447 10.997 20.8649 10.2524 20.8649 9.32465C20.8649 8.38471 20.1447 7.65229 19.1925 7.65229C18.2282 7.65229 17.5202 8.38471 17.5202 9.32465C17.5202 10.2524 18.2282 10.997 19.1925 10.997Z" fill="#5ac8f5"/>
 </g>
</svg>
