<?xml version="1.0" encoding="UTF-8"?>
<!--Generator: Apple Native CoreSVG 175.5-->
<!DOCTYPE svg
PUBLIC "-//W3C//DTD SVG 1.1//EN"
       "http://www.w3.org/Graphics/SVG/1.1/DTD/svg11.dtd">
<svg version="1.1" xmlns="http://www.w3.org/2000/svg" xmlns:xlink="http://www.w3.org/1999/xlink" width="24.9023" height="24.9878">
 <g>
  <rect height="24.9878" opacity="0" width="24.9023" x="0" y="0"/>
  <path d="M12.4512 24.9023C19.2627 24.9023 24.9023 19.2627 24.9023 12.4512C24.9023 5.65186 19.2505 0 12.439 0C5.63965 0 0 5.65186 0 12.4512C0 19.2627 5.65186 24.9023 12.4512 24.9023Z" fill="#5ac8f5" fill-opacity="0.25"/>
  <path d="M11.1694 18.5547C8.26416 18.5547 6.34766 16.5771 6.34766 13.623L6.34766 11.9873C6.34766 11.4014 6.71387 10.9985 7.26318 10.9985C7.80029 10.9985 8.1665 11.3892 8.1665 11.9629L8.1665 13.623C8.1665 15.4663 9.375 16.7236 11.1694 16.7236C12.8418 16.7236 13.9526 15.4907 13.9526 13.6353L13.9526 10.0708L14.0137 8.81348L13.5986 9.38721L12.1704 10.8765C11.9995 11.0474 11.7676 11.1572 11.499 11.1572C10.9741 11.1572 10.5713 10.7666 10.5713 10.2539C10.5713 9.98535 10.6567 9.75342 10.8276 9.59473L14.0991 6.38428C14.3311 6.16455 14.5996 6.05469 14.8804 6.05469C15.1489 6.05469 15.4175 6.17676 15.6494 6.38428L18.8843 9.58252C19.0674 9.75342 19.1528 9.97314 19.1528 10.2417C19.1528 10.7666 18.7378 11.1572 18.2251 11.1572C17.9688 11.1572 17.7246 11.0474 17.5659 10.8765L16.3696 9.63135L15.7227 8.80127L15.7715 10.0708L15.7715 13.6353C15.7715 16.5894 13.9404 18.5547 11.1694 18.5547Z" fill="#5ac8f5"/>
 </g>
</svg>
