<?xml version="1.0" encoding="UTF-8"?>
<!--Generator: Apple Native CoreSVG 175.5-->
<!DOCTYPE svg
PUBLIC "-//W3C//DTD SVG 1.1//EN"
       "http://www.w3.org/Graphics/SVG/1.1/DTD/svg11.dtd">
<svg version="1.1" xmlns="http://www.w3.org/2000/svg" xmlns:xlink="http://www.w3.org/1999/xlink" width="22.4731" height="22.4976">
 <g>
  <rect height="22.4976" opacity="0" width="22.4731" x="0" y="0"/>
  <path d="M3.83301 22.4976L18.6401 22.4976C21.2036 22.4976 22.4731 21.228 22.4731 18.7134L22.4731 3.80859C22.4731 1.29395 21.2036 0.0244141 18.6401 0.0244141L3.83301 0.0244141C1.28174 0.0244141 0 1.28174 0 3.80859L0 18.7134C0 21.2402 1.28174 22.4976 3.83301 22.4976ZM3.85742 20.5322C2.63672 20.5322 1.96533 19.8853 1.96533 18.6157L1.96533 3.90625C1.96533 2.63672 2.63672 1.98975 3.85742 1.98975L18.6157 1.98975C19.8242 1.98975 20.5078 2.63672 20.5078 3.90625L20.5078 18.6157C20.5078 19.8853 19.8242 20.5322 18.6157 20.5322Z" fill="#5ac8f5" fill-opacity="0.5"/>
  <path d="M7.23877 6.97021C6.48193 6.97021 6.15234 7.26318 5.81055 7.70264L3.71094 10.4614C3.34473 10.9253 3.34473 11.5234 3.71094 11.9995L5.81055 14.7827C6.15234 15.2222 6.5918 15.5029 7.23877 15.5029L15.2344 15.5029C15.8813 15.5029 16.3208 15.2222 16.6626 14.7827L18.7622 11.9995C19.1284 11.5234 19.1284 10.9253 18.7622 10.4614L16.6626 7.70264C16.3208 7.26318 15.9912 6.97021 15.2344 6.97021ZM6.97021 10.0708C7.60498 10.0708 8.14209 10.6079 8.14209 11.2427C8.14209 11.8774 7.60498 12.4023 6.97021 12.4023C6.34766 12.4023 5.81055 11.8774 5.81055 11.2427C5.81055 10.6079 6.34766 10.0708 6.97021 10.0708ZM11.2427 11.5112C11.8774 11.5112 12.4023 12.0483 12.4023 12.6709C12.4023 13.3057 11.8774 13.8428 11.2427 13.8428C10.5957 13.8428 10.0708 13.3057 10.0708 12.6709C10.0708 12.0483 10.5957 11.5112 11.2427 11.5112ZM15.5029 10.0708C16.1255 10.0708 16.6626 10.6079 16.6626 11.2427C16.6626 11.8774 16.1255 12.4023 15.5029 12.4023C14.8682 12.4023 14.3433 11.8774 14.3433 11.2427C14.3433 10.6079 14.8682 10.0708 15.5029 10.0708Z" fill="#5ac8f5"/>
 </g>
</svg>
