<?xml version="1.0" encoding="UTF-8"?>
<!--Generator: Apple Native CoreSVG 175.5-->
<!DOCTYPE svg
PUBLIC "-//W3C//DTD SVG 1.1//EN"
       "http://www.w3.org/Graphics/SVG/1.1/DTD/svg11.dtd">
<svg version="1.1" xmlns="http://www.w3.org/2000/svg" xmlns:xlink="http://www.w3.org/1999/xlink" width="24.9023" height="24.9146">
 <g>
  <rect height="24.9146" opacity="0" width="24.9023" x="0" y="0"/>
  <path d="M12.4512 24.9023C19.2627 24.9023 24.9023 19.2505 24.9023 12.4512C24.9023 5.63965 19.2505 0 12.439 0C5.63965 0 0 5.63965 0 12.4512C0 19.2505 5.65186 24.9023 12.4512 24.9023ZM12.4512 22.8271C6.68945 22.8271 2.0874 18.2129 2.0874 12.4512C2.0874 6.68945 6.67725 2.0752 12.439 2.0752C18.2007 2.0752 22.8271 6.68945 22.8271 12.4512C22.8271 18.2129 18.2129 22.8271 12.4512 22.8271ZM9.52148 17.9199L13.0859 17.9199C15.6128 17.9199 17.2363 16.6992 17.2363 14.7827C17.2363 13.2935 16.2354 12.2437 14.6118 12.0483L14.6118 11.9751C15.8203 11.6821 16.5649 10.73 16.5649 9.50928C16.5649 7.83691 15.21 6.75049 13.1104 6.75049L9.52148 6.75049C8.83789 6.75049 8.43506 7.15332 8.43506 7.84912L8.43506 16.8335C8.43506 17.5049 8.83789 17.9199 9.52148 17.9199ZM10.3271 11.499L10.3271 8.19092L12.7197 8.19092C13.9526 8.19092 14.6973 8.81348 14.6973 9.81445C14.6973 10.8887 13.8062 11.499 12.1704 11.499ZM10.3271 16.4795L10.3271 12.8418L12.9272 12.8418C14.4165 12.8418 15.2832 13.5254 15.2832 14.6973C15.2832 15.918 14.3433 16.4795 12.3169 16.4795Z" fill="#5ac8f5"/>
 </g>
</svg>
