<?xml version="1.0" encoding="UTF-8"?>
<!--Generator: Apple Native CoreSVG 175.5-->
<!DOCTYPE svg
PUBLIC "-//W3C//DTD SVG 1.1//EN"
       "http://www.w3.org/Graphics/SVG/1.1/DTD/svg11.dtd">
<svg version="1.1" xmlns="http://www.w3.org/2000/svg" xmlns:xlink="http://www.w3.org/1999/xlink" width="24.9023" height="24.9146">
 <g>
  <rect height="24.9146" opacity="0" width="24.9023" x="0" y="0"/>
  <path d="M12.4512 24.9023C19.2627 24.9023 24.9023 19.2505 24.9023 12.4512C24.9023 5.63965 19.2505 0 12.439 0C5.63965 0 0 5.63965 0 12.4512C0 19.2505 5.65186 24.9023 12.4512 24.9023ZM10.2417 18.7622C9.76562 18.7622 9.41162 18.4448 9.41162 17.9565L9.41162 16.626L8.39844 16.626C8.03223 16.626 7.80029 16.3452 7.80029 15.9912C7.80029 15.6372 8.03223 15.3687 8.39844 15.3687L9.41162 15.3687L9.41162 7.58057C9.41162 7.06787 9.729 6.73828 10.2295 6.73828L15.7227 6.73828C16.1621 6.73828 16.4917 7.03125 16.4917 7.50732C16.4917 7.95898 16.1621 8.26416 15.7227 8.26416L11.0596 8.26416L11.0596 11.8164L15.2588 11.8164C15.6982 11.8164 16.04 12.1094 16.04 12.5732C16.04 13.0249 15.6982 13.3301 15.2588 13.3301L11.0596 13.3301L11.0596 15.3687L13.6475 15.3687C14.0137 15.3687 14.27 15.6372 14.27 15.9912C14.27 16.3452 14.0137 16.626 13.6475 16.626L11.0596 16.626L11.0596 17.9443C11.0596 18.4204 10.73 18.7622 10.2417 18.7622Z" fill="#5ac8f5"/>
 </g>
</svg>
