<?xml version="1.0" encoding="UTF-8"?>
<!--Generator: Apple Native CoreSVG 175.5-->
<!DOCTYPE svg
PUBLIC "-//W3C//DTD SVG 1.1//EN"
       "http://www.w3.org/Graphics/SVG/1.1/DTD/svg11.dtd">
<svg version="1.1" xmlns="http://www.w3.org/2000/svg" xmlns:xlink="http://www.w3.org/1999/xlink" width="28.8925" height="25.9399">
 <g>
  <rect height="25.9399" opacity="0" width="28.8925" x="0" y="0"/>
  <path d="M1.73188 19.1528C4.06342 21.46 7.10297 21.4722 9.39789 19.1772L18.5043 10.0708C20.7993 7.77588 20.7993 4.69971 18.4799 2.40479C16.1606 0.0976562 13.1088 0.0976562 10.8139 2.39258L1.71967 11.4868C-0.575253 13.7817-0.575253 16.8579 1.73188 19.1528ZM3.13568 17.749C1.68305 16.2964 1.73188 14.27 3.24555 12.7563L12.0834 3.91846C13.5971 2.39258 15.6235 2.34375 17.0761 3.80859C18.541 5.27344 18.4921 7.2876 16.9663 8.81348L8.14057 17.6392C6.61469 19.165 4.60053 19.2139 3.13568 17.749ZM6.44379 8.5083L12.3886 14.4409L13.7924 13.0371L7.8476 7.10449ZM22.2153 25.9399C25.914 25.9399 28.8925 22.9614 28.8925 19.2749C28.8925 15.625 25.9018 12.6343 22.2153 12.6343C18.5532 12.6343 15.5624 15.625 15.5624 19.2749C15.5624 22.9492 18.5532 25.9399 22.2153 25.9399ZM22.2153 23.9746C19.6274 23.9746 17.5278 21.8628 17.5278 19.2749C17.5278 16.6992 19.6396 14.5996 22.2153 14.5996C24.8154 14.5996 26.9272 16.6992 26.9272 19.2749C26.9272 21.8872 24.8276 23.9746 22.2153 23.9746ZM16.6733 20.2759L27.7695 20.2759L27.7695 18.2861L16.6733 18.2861Z" fill="#5ac8f5"/>
 </g>
</svg>
