<?xml version="1.0" encoding="UTF-8"?>
<!--Generator: Apple Native CoreSVG 175.5-->
<!DOCTYPE svg
PUBLIC "-//W3C//DTD SVG 1.1//EN"
       "http://www.w3.org/Graphics/SVG/1.1/DTD/svg11.dtd">
<svg version="1.1" xmlns="http://www.w3.org/2000/svg" xmlns:xlink="http://www.w3.org/1999/xlink" width="17.5173" height="22.2534">
 <g>
  <rect height="22.2534" opacity="0" width="17.5173" x="0" y="0"/>
  <path d="M9.32617 22.2534C13.3423 22.2534 16.2354 20.2637 17.3096 17.2729C17.4438 16.9067 17.5049 16.5405 17.5171 16.1621C17.5293 15.5273 17.1021 15.0879 16.4429 15.0879C15.8081 15.0879 15.4907 15.4419 15.2832 16.0767C14.5996 18.4937 12.2925 20.1172 9.33838 20.1172C5.16357 20.1172 2.45361 16.6382 2.45361 11.084C2.45361 5.61523 5.17578 2.18506 9.32617 2.18506C12.1216 2.18506 14.4409 3.90625 15.1245 6.31104C15.3442 7.01904 15.6494 7.2998 16.2842 7.2998C16.9434 7.2998 17.3706 6.86035 17.3584 6.21338C17.3462 5.84717 17.2852 5.50537 17.1631 5.16357C16.0522 2.0752 12.9883 0.0488281 9.32617 0.0488281C3.69873 0.0488281 0 4.3335 0 11.084C0 17.9199 3.67432 22.2534 9.32617 22.2534ZM8.00781 21.3135L9.60693 21.3135L9.60693 16.272C9.60693 13.7451 11.2305 11.9873 13.5742 11.9873C13.9648 11.9873 14.2944 12.0728 14.5142 12.0972C15.5273 12.1216 15.6494 10.8398 14.7217 10.4736C14.3433 10.3027 13.9404 10.2417 13.5132 10.2417C11.5723 10.2417 10.1074 11.4136 9.60693 13.0493L9.57031 13.0493L9.57031 11.1328C9.57031 10.6201 9.25293 10.2905 8.80127 10.2905C8.3252 10.2905 8.00781 10.6201 8.00781 11.1328Z" fill="#5ac8f5"/>
 </g>
</svg>
