<?xml version="1.0" encoding="UTF-8"?>
<!--Generator: Apple Native CoreSVG 175.5-->
<!DOCTYPE svg
PUBLIC "-//W3C//DTD SVG 1.1//EN"
       "http://www.w3.org/Graphics/SVG/1.1/DTD/svg11.dtd">
<svg version="1.1" xmlns="http://www.w3.org/2000/svg" xmlns:xlink="http://www.w3.org/1999/xlink" width="24.9023" height="24.9146">
 <g>
  <rect height="24.9146" opacity="0" width="24.9023" x="0" y="0"/>
  <path d="M12.4512 24.9023C19.2627 24.9023 24.9023 19.2505 24.9023 12.4512C24.9023 5.63965 19.2505 0 12.439 0C5.63965 0 0 5.63965 0 12.4512C0 19.2505 5.65186 24.9023 12.4512 24.9023Z" fill="#5ac8f5" fill-opacity="0.25"/>
  <path d="M8.47168 18.2251C7.84912 18.2251 7.48291 17.7979 7.48291 17.0898L7.48291 7.58057C7.48291 6.87256 7.84912 6.44531 8.47168 6.44531C9.13086 6.44531 9.49707 6.86035 9.49707 7.58057L9.49707 11.3647L15.3809 11.3647L15.3809 7.58057C15.3809 6.87256 15.7593 6.44531 16.3818 6.44531C17.041 6.44531 17.4072 6.86035 17.4072 7.58057L17.4072 17.0898C17.4072 17.8101 17.041 18.2251 16.3818 18.2251C15.7593 18.2251 15.3809 17.7979 15.3809 17.0898L15.3809 12.9517L9.49707 12.9517L9.49707 17.0898C9.49707 17.8101 9.13086 18.2251 8.47168 18.2251Z" fill="#5ac8f5"/>
 </g>
</svg>
