<?xml version="1.0" encoding="UTF-8"?>
<!--Generator: Apple Native CoreSVG 175.5-->
<!DOCTYPE svg
PUBLIC "-//W3C//DTD SVG 1.1//EN"
       "http://www.w3.org/Graphics/SVG/1.1/DTD/svg11.dtd">
<svg version="1.1" xmlns="http://www.w3.org/2000/svg" xmlns:xlink="http://www.w3.org/1999/xlink" width="35.3978" height="25.9888">
 <g>
  <rect height="25.9888" opacity="0" width="35.3978" x="0" y="0"/>
  <path d="M17.7039 25.9766C19.1932 25.9766 20.4505 24.7314 20.4505 23.23C20.4505 21.7041 19.2054 20.4712 17.7039 20.4712C16.1903 20.4712 14.9573 21.7041 14.9573 23.23C14.9573 24.7437 16.178 25.9766 17.7039 25.9766ZM17.7039 24.353C17.0692 24.353 16.5687 23.8525 16.5687 23.23C16.5687 22.5952 17.0692 22.0703 17.7039 22.0703C18.3143 22.0703 18.8514 22.6074 18.8514 23.23C18.8514 23.8525 18.3143 24.353 17.7039 24.353ZM15.8973 22.0703L17.6429 21.1426L6.14387 1.37939C5.88752 0.927734 5.326 0.744629 4.77668 1.02539C4.27619 1.28174 4.16633 1.9043 4.43488 2.36816ZM17.7039 18.7744C20.1087 18.7744 22.9163 19.4946 25.0037 20.5933C25.5653 20.8862 26.1878 20.7764 26.554 20.3003L34.867 9.70459C35.6849 8.65479 35.5506 7.54395 34.513 6.73828C33.1702 5.71289 31.3636 4.76074 29.2274 4.00391C29.6424 4.72412 30.0574 5.96924 30.1551 6.78711C31.095 7.18994 31.9739 7.66602 32.7796 8.19092C33.1092 8.41064 33.1458 8.69141 32.9017 9.00879L25.6873 18.2007C25.4432 18.5059 25.3089 18.5303 25.0037 18.4082C22.5135 17.395 19.9256 16.8091 17.7039 16.8091C15.47 16.8091 12.8944 17.395 10.4041 18.4082C10.0989 18.5303 9.96467 18.5059 9.72053 18.2007L2.49397 9.00879C2.26203 8.69141 2.29865 8.41064 2.62824 8.19092C6.82746 5.52979 12.2108 4.02832 17.7039 4.02832C18.4486 4.02832 19.2176 4.06494 19.9744 4.12598C19.9988 4.05273 20.597 2.84424 20.9632 2.22168C19.889 2.12402 18.7904 2.06299 17.7039 2.06299C10.8314 2.06299 4.30061 4.10156 0.882638 6.73828C-0.15496 7.54395-0.289237 8.65479 0.540841 9.70459L8.85383 20.3003C9.22004 20.7764 9.83039 20.8862 10.3919 20.5933C12.4793 19.4946 15.2991 18.7744 17.7039 18.7744Z" fill="#5ac8f5" fill-opacity="0.5"/>
  <path d="M24.6253 11.6089C27.0179 11.6089 28.617 10.0586 28.617 7.73926C28.617 6.57959 28.1287 5.56641 27.7869 4.82178C27.1644 3.45459 26.1146 1.75781 25.2235 0.378418C25.0526 0.12207 24.8695 0 24.6253 0C24.3934 0 24.1981 0.12207 24.0272 0.378418C23.1483 1.75781 22.0985 3.45459 21.4759 4.82178C21.1341 5.56641 20.6458 6.57959 20.6458 7.73926C20.6458 10.0586 22.2327 11.6089 24.6253 11.6089Z" fill="#5ac8f5"/>
 </g>
</svg>
