<?xml version="1.0" encoding="UTF-8"?>
<!--Generator: Apple Native CoreSVG 175.5-->
<!DOCTYPE svg
PUBLIC "-//W3C//DTD SVG 1.1//EN"
       "http://www.w3.org/Graphics/SVG/1.1/DTD/svg11.dtd">
<svg version="1.1" xmlns="http://www.w3.org/2000/svg" xmlns:xlink="http://www.w3.org/1999/xlink" width="35.3978" height="24.4077">
 <g>
  <rect height="24.4077" opacity="0" width="35.3978" x="0" y="0"/>
  <path d="M17.7039 16.0185C16.471 16.0185 15.348 15.5181 14.6644 14.7368C14.3836 14.4194 14.0906 14.4316 13.8221 14.7368C13.0775 15.5547 11.991 16.0185 10.807 16.0185C9.61067 16.0185 8.52424 15.5547 7.79182 14.7368C7.51106 14.4316 7.21809 14.4194 6.94953 14.7368C6.27815 15.4936 5.20393 15.9819 4.01984 16.0185L9.63508 23.4038L15.116 21.6704L20.2796 21.6704L25.7606 23.4038L31.3758 16.0185C30.1917 15.9819 29.1175 15.4936 28.4461 14.7368C28.1776 14.4194 27.8846 14.4316 27.6038 14.7368C26.8714 15.5547 25.785 16.0185 24.5887 16.0185C23.4046 16.0185 22.3182 15.5547 21.5736 14.7368C21.305 14.4316 21.012 14.4194 20.7313 14.7368C20.0477 15.5181 18.9246 16.0185 17.7039 16.0185ZM17.7039 22.4272C20.1087 22.4272 22.9163 23.1474 25.0037 24.2461C25.5653 24.539 26.1878 24.4292 26.554 23.9531L34.867 13.3574C35.6849 12.3076 35.5506 11.1968 34.513 10.3911C31.5589 8.12059 26.2855 6.27733 20.4871 5.83788L20.4871 7.81542C24.9793 8.21825 29.2884 9.63426 32.7796 11.8437C33.1092 12.0635 33.1458 12.3442 32.9017 12.6616L25.6873 21.8535C25.4432 22.1587 25.3089 22.1831 25.0037 22.061C22.5135 21.0478 19.9256 20.4619 17.7039 20.4619C15.47 20.4619 12.8944 21.0478 10.4041 22.061C10.0989 22.1831 9.96467 22.1587 9.72053 21.8535L2.49397 12.6616C2.26203 12.3442 2.29865 12.0635 2.62824 11.8437C6.10725 9.63426 10.4285 8.21825 14.9207 7.81542L14.9207 5.82567C9.12238 6.27733 3.83674 8.10838 0.882638 10.3911C-0.15496 11.1968-0.289237 12.3076 0.540841 13.3574L8.85383 23.9531C9.22004 24.4292 9.83039 24.539 10.3919 24.2461C12.4793 23.1474 15.2991 22.4272 17.7039 22.4272Z" fill="#5ac8f5" fill-opacity="0.5"/>
  <path d="M17.7039 17.4956C18.241 17.4956 18.6805 17.0439 18.6805 16.5068L18.6805 13.394C18.6805 12.8569 18.241 12.4053 17.7039 12.4053C17.1668 12.4053 16.7152 12.8569 16.7152 13.394L16.7152 16.5068C16.7152 17.0439 17.1668 17.4956 17.7039 17.4956ZM17.7039 10.7695C18.241 10.7695 18.6805 10.3301 18.6805 9.79295L18.6805 6.66795C18.6805 6.13085 18.241 5.69139 17.7039 5.69139C17.1668 5.69139 16.7152 6.13085 16.7152 6.66795L16.7152 9.79295C16.7152 10.3301 17.1668 10.7695 17.7039 10.7695ZM4.32502 3.98241C4.78889 4.25096 5.31379 4.11669 5.66779 3.68944C6.33918 2.89598 7.18147 2.29784 8.14582 1.95604C8.67072 1.76073 9.00031 1.30907 8.89045 0.759752C8.75617 0.1494 8.15803-0.131362 7.43781 0.112779C6.1927 0.540025 5.00861 1.38231 4.10529 2.49315C3.66584 3.03026 3.82453 3.67723 4.32502 3.98241ZM16.3123 3.95799C16.8128 3.65282 16.9349 3.01805 16.5076 2.48094C15.6043 1.3701 14.4202 0.540025 13.1873 0.124986C12.4183-0.143569 11.8446 0.198228 11.7347 0.784166C11.6492 1.32128 11.9544 1.76073 12.4793 1.95604C13.4315 2.29784 14.2738 2.89598 14.9329 3.67723C15.3236 4.1411 15.8363 4.22655 16.3123 3.95799ZM19.0955 3.95799C19.5716 4.22655 20.0721 4.1411 20.4749 3.67723C21.1219 2.89598 21.9642 2.29784 22.9163 1.95604C23.4534 1.76073 23.7586 1.32128 23.661 0.784166C23.5633 0.198228 22.9896-0.143569 22.2205 0.124986C20.9876 0.540025 19.7913 1.3701 18.888 2.48094C18.473 3.01805 18.5828 3.65282 19.0955 3.95799ZM31.0828 3.98241C31.5833 3.67723 31.742 3.03026 31.3026 2.49315C30.3992 1.38231 29.2152 0.540025 27.9578 0.112779C27.2376-0.131362 26.6395 0.1494 26.5174 0.759752C26.3953 1.30907 26.7371 1.76073 27.262 1.95604C28.2264 2.29784 29.0687 2.89598 29.7279 3.68944C30.0941 4.11669 30.619 4.25096 31.0828 3.98241Z" fill="#5ac8f5"/>
 </g>
</svg>
