<?xml version="1.0" encoding="UTF-8"?>
<!--Generator: Apple Native CoreSVG 175.5-->
<!DOCTYPE svg
PUBLIC "-//W3C//DTD SVG 1.1//EN"
       "http://www.w3.org/Graphics/SVG/1.1/DTD/svg11.dtd">
<svg version="1.1" xmlns="http://www.w3.org/2000/svg" xmlns:xlink="http://www.w3.org/1999/xlink" width="29.0405" height="18.0542">
 <g>
  <rect height="18.0542" opacity="0" width="29.0405" x="0" y="0"/>
  <path d="M6.20117 18.0542C9.93652 18.0542 12.6221 15.8691 12.6221 12.8906C12.6221 10.4736 10.8887 8.88672 8.10547 8.70361L8.10547 8.65479C10.4248 8.26416 11.8652 6.71387 11.8652 4.54102C11.8652 1.9043 9.47266 0 6.14014 0C3.62549 0 1.59912 1.09863 0.732422 2.91748C0.500488 3.36914 0.402832 3.78418 0.402832 4.26025C0.402832 4.83398 0.793457 5.2124 1.35498 5.2124C1.9043 5.2124 2.16064 5.00488 2.33154 4.43115C2.86865 2.83203 4.21143 1.9165 6.06689 1.9165C8.25195 1.9165 9.65576 3.06396 9.65576 4.83398C9.65576 6.65283 8.1543 7.86133 5.96924 7.86133L4.62646 7.86133C4.05273 7.86133 3.66211 8.21533 3.66211 8.77686C3.66211 9.32617 4.05273 9.69238 4.62646 9.69238L5.99365 9.69238C8.70361 9.69238 10.3149 10.8398 10.3149 12.8784C10.3149 14.7583 8.63037 16.0889 6.21338 16.0889C4.11377 16.0889 2.6001 15.1489 2.05078 13.5376C1.85547 13.0127 1.5625 12.7808 1.0376 12.7808C0.415039 12.7808 0 13.1714 0 13.8062C0 14.2334 0.109863 14.624 0.341797 15.0513C1.35498 16.98 3.479 18.0542 6.20117 18.0542ZM16.1011 17.749L20.9351 17.749C25.8423 17.749 29.0405 14.2456 29.0405 8.98438C29.0405 3.75977 25.8423 0.292969 20.9351 0.292969L16.1011 0.292969C15.4297 0.292969 14.9902 0.732422 14.9902 1.41602L14.9902 16.6138C14.9902 17.3096 15.4297 17.749 16.1011 17.749ZM17.2119 15.7471L17.2119 2.27051L20.7764 2.27051C24.4263 2.27051 26.7822 4.95605 26.7822 8.99658C26.7822 13.0493 24.4263 15.7471 20.7764 15.7471Z" fill="#5ac8f5"/>
 </g>
</svg>
