<?xml version="1.0" encoding="UTF-8"?>
<!--Generator: Apple Native CoreSVG 175.5-->
<!DOCTYPE svg
PUBLIC "-//W3C//DTD SVG 1.1//EN"
       "http://www.w3.org/Graphics/SVG/1.1/DTD/svg11.dtd">
<svg version="1.1" xmlns="http://www.w3.org/2000/svg" xmlns:xlink="http://www.w3.org/1999/xlink" width="26.6724" height="19.8853">
 <g>
  <rect height="19.8853" opacity="0" width="26.6724" x="0" y="0"/>
  <path d="M15.0757 19.519C16.0278 19.519 16.8335 18.7988 16.8335 17.4316L16.8335 2.44141C16.8335 1.07422 16.0278 0.341797 15.0757 0.341797C14.5752 0.341797 14.1724 0.500488 13.6719 0.793457L1.23291 8.11768C0.366211 8.63037 0 9.22852 0 9.93652C0 10.6323 0.366211 11.2427 1.23291 11.7554L13.6719 19.0674C14.1602 19.3604 14.5752 19.519 15.0757 19.519ZM22.2656 19.8853L25.0366 19.8853C26.1108 19.8853 26.6724 19.3237 26.6724 18.2495L26.6724 1.62354C26.6724 0.512695 26.1108 0 25.0366 0L22.2656 0C21.1914 0 20.6421 0.561523 20.6421 1.62354L20.6421 18.2495C20.6421 19.3237 21.1914 19.8853 22.2656 19.8853Z" fill="#5ac8f5"/>
 </g>
</svg>
