<?xml version="1.0" encoding="UTF-8"?>
<!--Generator: Apple Native CoreSVG 175.5-->
<!DOCTYPE svg
PUBLIC "-//W3C//DTD SVG 1.1//EN"
       "http://www.w3.org/Graphics/SVG/1.1/DTD/svg11.dtd">
<svg version="1.1" xmlns="http://www.w3.org/2000/svg" xmlns:xlink="http://www.w3.org/1999/xlink" width="32.1027" height="27.6245">
 <g>
  <rect height="27.6245" opacity="0" width="32.1027" x="0" y="0"/>
  <path d="M27.771 26.5381C31.7017 25.1099 33.0078 21.8506 31.4819 17.6392L30.8594 15.8936C30.2856 14.3066 29.1504 13.6108 28.2959 13.916C28.0884 14.0015 28.0273 14.1357 28.0884 14.3311L28.3691 15.1001C28.5034 15.4663 28.3691 15.7104 28.1616 15.7959C27.9297 15.8691 27.6733 15.7593 27.5391 15.3931L27.356 14.8804C27.0142 13.9526 26.1963 13.562 25.3906 13.855C25.0122 13.9893 24.8901 14.1968 25.0122 14.5142L25.4028 15.564C25.5371 15.918 25.415 16.1743 25.2075 16.2476C24.9634 16.333 24.707 16.2231 24.585 15.8691L24.231 14.8926C23.8525 13.8306 23.0469 13.562 22.2656 13.8428C21.9238 13.9771 21.7896 14.209 21.8994 14.502L22.644 16.5649C22.7783 16.9434 22.6562 17.1753 22.4365 17.2607C22.2046 17.3462 21.9604 17.2363 21.814 16.8579L19.3237 9.99756C19.0796 9.31396 18.4692 9.0332 17.9077 9.24072C17.2974 9.47266 17.0288 10.0586 17.2852 10.73L20.9595 20.8008C21.0449 21.0449 20.9229 21.2402 20.7642 21.2891C20.6177 21.3501 20.459 21.3013 20.2515 21.0938L17.7856 18.4326C17.4072 18.0298 17.041 17.9443 16.6382 18.0908C16.0034 18.3228 15.7715 18.8965 15.9546 19.4092C16.0156 19.6045 16.1255 19.7754 16.2354 19.8975L19.2993 23.7305C21.8872 26.9653 24.8657 27.6001 27.771 26.5381Z" fill="#5ac8f5"/>
  <path d="M12.4512 24.9023C14.2456 24.9023 15.979 24.5117 17.5293 23.7915L16.1865 22.1191C15.0391 22.583 13.7817 22.8271 12.4512 22.8271C6.68945 22.8271 2.0874 18.2129 2.0874 12.4512C2.0874 6.68945 6.66504 2.0874 12.439 2.0752C18.2251 2.0752 22.7783 6.66504 22.8027 12.4146C23.4375 12.2925 24.1943 12.3413 24.8901 12.5244C24.9268 5.68848 19.3115 0 12.4512 0C5.63965 0 0 5.63965 0 12.4512C0 19.2627 5.65186 24.9023 12.4512 24.9023ZM12.4634 16.1987C14.5142 16.1987 16.2109 14.5142 16.2109 12.439C16.2109 10.3882 14.5142 8.70361 12.4634 8.70361C10.4004 8.70361 8.70361 10.3882 8.70361 12.439C8.70361 14.5142 10.4004 16.1987 12.4634 16.1987Z" fill="#5ac8f5" fill-opacity="0.5"/>
 </g>
</svg>
