<?xml version="1.0" encoding="UTF-8"?>
<!--Generator: Apple Native CoreSVG 175.5-->
<!DOCTYPE svg
PUBLIC "-//W3C//DTD SVG 1.1//EN"
       "http://www.w3.org/Graphics/SVG/1.1/DTD/svg11.dtd">
<svg version="1.1" xmlns="http://www.w3.org/2000/svg" xmlns:xlink="http://www.w3.org/1999/xlink" width="24.9023" height="24.9146">
 <g>
  <rect height="24.9146" opacity="0" width="24.9023" x="0" y="0"/>
  <path d="M12.4512 24.9023C19.2627 24.9023 24.9023 19.2505 24.9023 12.4512C24.9023 5.63965 19.2505 0 12.439 0C5.63965 0 0 5.63965 0 12.4512C0 19.2505 5.65186 24.9023 12.4512 24.9023ZM12.4512 22.8271C6.68945 22.8271 2.0874 18.2129 2.0874 12.4512C2.0874 6.68945 6.67725 2.0752 12.439 2.0752C18.2007 2.0752 22.8271 6.68945 22.8271 12.4512C22.8271 18.2129 18.2129 22.8271 12.4512 22.8271ZM8.08105 9.83887C8.08105 10.2661 8.36182 10.5469 8.78906 10.5469L11.6455 10.5469L11.6455 17.7979C11.6455 18.2861 11.9873 18.6035 12.4512 18.6035C12.915 18.6035 13.2324 18.2861 13.2324 17.7979L13.2324 10.5469L16.0767 10.5469C16.5161 10.5469 16.7969 10.2661 16.7969 9.83887C16.7969 9.42383 16.5161 9.14307 16.0767 9.14307L8.78906 9.14307C8.36182 9.14307 8.08105 9.42383 8.08105 9.83887ZM8.05664 7.49512C8.05664 7.83691 8.31299 8.10547 8.64258 8.10547L16.2109 8.10547C16.5649 8.10547 16.8091 7.83691 16.8091 7.49512C16.8091 7.14111 16.5649 6.89697 16.2109 6.89697L8.64258 6.89697C8.31299 6.89697 8.05664 7.14111 8.05664 7.49512Z" fill="#5ac8f5"/>
 </g>
</svg>
