<?xml version="1.0" encoding="UTF-8"?>
<!--Generator: Apple Native CoreSVG 175.5-->
<!DOCTYPE svg
PUBLIC "-//W3C//DTD SVG 1.1//EN"
       "http://www.w3.org/Graphics/SVG/1.1/DTD/svg11.dtd">
<svg version="1.1" xmlns="http://www.w3.org/2000/svg" xmlns:xlink="http://www.w3.org/1999/xlink" width="22.4731" height="22.4976">
 <g>
  <rect height="22.4976" opacity="0" width="22.4731" x="0" y="0"/>
  <path d="M3.83301 22.4976L18.6401 22.4976C21.2036 22.4976 22.4731 21.228 22.4731 18.7134L22.4731 3.80859C22.4731 1.29395 21.2036 0.0244141 18.6401 0.0244141L3.83301 0.0244141C1.28174 0.0244141 0 1.28174 0 3.80859L0 18.7134C0 21.2402 1.28174 22.4976 3.83301 22.4976ZM3.85742 20.5322C2.63672 20.5322 1.96533 19.8853 1.96533 18.6157L1.96533 3.90625C1.96533 2.63672 2.63672 1.98975 3.85742 1.98975L18.6157 1.98975C19.8242 1.98975 20.5078 2.63672 20.5078 3.90625L20.5078 18.6157C20.5078 19.8853 19.8242 20.5322 18.6157 20.5322Z" fill="#5ac8f5" fill-opacity="0.5"/>
  <path d="M11.2549 5.0293C10.73 5.0293 10.3394 5.40771 10.3394 5.94482L10.3394 12.0483L10.437 14.624L9.21631 13.1592L7.76367 11.6943C7.60498 11.5234 7.38525 11.4258 7.1167 11.4258C6.61621 11.4258 6.23779 11.8042 6.23779 12.3047C6.23779 12.561 6.31104 12.7808 6.46973 12.9395L10.5469 16.9922C10.791 17.2363 10.9985 17.3462 11.2549 17.3462C11.5356 17.3462 11.7432 17.2241 11.9751 16.9922L16.04 12.9395C16.2109 12.7808 16.2964 12.561 16.2964 12.3047C16.2964 11.8042 15.9058 11.4258 15.4053 11.4258C15.1367 11.4258 14.917 11.5112 14.7583 11.6943L13.3179 13.1592L12.0728 14.6362L12.1704 12.0483L12.1704 5.94482C12.1704 5.40771 11.792 5.0293 11.2549 5.0293Z" fill="#5ac8f5"/>
 </g>
</svg>
