<?xml version="1.0" encoding="UTF-8"?>
<!--Generator: Apple Native CoreSVG 175.5-->
<!DOCTYPE svg
PUBLIC "-//W3C//DTD SVG 1.1//EN"
       "http://www.w3.org/Graphics/SVG/1.1/DTD/svg11.dtd">
<svg version="1.1" xmlns="http://www.w3.org/2000/svg" xmlns:xlink="http://www.w3.org/1999/xlink" width="24.9023" height="24.9146">
 <g>
  <rect height="24.9146" opacity="0" width="24.9023" x="0" y="0"/>
  <path d="M12.4512 24.9023C19.2627 24.9023 24.9023 19.2505 24.9023 12.4512C24.9023 5.63965 19.2505 0 12.439 0C5.63965 0 0 5.63965 0 12.4512C0 19.2505 5.65186 24.9023 12.4512 24.9023ZM12.4512 22.8271C6.68945 22.8271 2.0874 18.2129 2.0874 12.4512C2.0874 6.68945 6.67725 2.0752 12.439 2.0752C18.2007 2.0752 22.8271 6.68945 22.8271 12.4512C22.8271 18.2129 18.2129 22.8271 12.4512 22.8271Z" fill="#5ac8f5" fill-opacity="0.5"/>
  <path d="M8.71582 18.2617L15.9546 18.2617C17.1265 18.2617 17.8345 17.5659 17.8345 16.2231L17.8345 9.86328L16.5771 11.1328L16.5771 16.1621C16.5771 16.7236 16.2964 16.9922 15.9424 16.9922L8.72803 16.9922C8.20312 16.9922 7.92236 16.7236 7.92236 16.1621L7.92236 9.16748C7.92236 8.60596 8.20312 8.3252 8.72803 8.3252L13.8428 8.3252L15.1123 7.05566L8.71582 7.05566C7.36084 7.05566 6.65283 7.77588 6.65283 9.11865L6.65283 16.2231C6.65283 17.5659 7.36084 18.2617 8.71582 18.2617ZM11.0229 14.2456L12.2559 13.7329L17.8589 8.12988L16.7969 7.09229L11.2061 12.6953L10.6445 13.855C10.5347 14.0991 10.791 14.3311 11.0229 14.2456ZM18.3838 7.60498L18.8965 7.03125C19.165 6.75049 19.1528 6.38428 18.9209 6.14014L18.7622 6.00586C18.5181 5.74951 18.1274 5.77393 17.8589 6.03027L17.334 6.54297Z" fill="#5ac8f5"/>
 </g>
</svg>
