<?xml version="1.0" encoding="UTF-8"?>
<!--Generator: Apple Native CoreSVG 175.5-->
<!DOCTYPE svg
PUBLIC "-//W3C//DTD SVG 1.1//EN"
       "http://www.w3.org/Graphics/SVG/1.1/DTD/svg11.dtd">
<svg version="1.1" xmlns="http://www.w3.org/2000/svg" xmlns:xlink="http://www.w3.org/1999/xlink" width="24.9023" height="24.9146">
 <g>
  <rect height="24.9146" opacity="0" width="24.9023" x="0" y="0"/>
  <path d="M12.4512 24.9023C19.2627 24.9023 24.9023 19.2505 24.9023 12.4512C24.9023 5.63965 19.2505 0 12.439 0C5.63965 0 0 5.63965 0 12.4512C0 19.2505 5.65186 24.9023 12.4512 24.9023ZM6.12793 9.16748C5.5542 9.16748 5.16357 8.81348 5.16357 8.27637C5.16357 7.73926 5.5542 7.38525 6.12793 7.38525L18.8232 7.38525C19.3848 7.38525 19.7876 7.73926 19.7876 8.27637C19.7876 8.81348 19.3848 9.16748 18.8232 9.16748ZM6.12793 13.3423C5.5542 13.3423 5.16357 12.9883 5.16357 12.439C5.16357 11.9019 5.5542 11.5479 6.12793 11.5479L18.8232 11.5479C19.3848 11.5479 19.7876 11.9019 19.7876 12.439C19.7876 12.9883 19.3848 13.3423 18.8232 13.3423ZM6.12793 17.5171C5.5542 17.5171 5.16357 17.1509 5.16357 16.6138C5.16357 16.0889 5.5542 15.7349 6.12793 15.7349L18.8232 15.7349C19.3848 15.7349 19.7876 16.0889 19.7876 16.6138C19.7876 17.1509 19.3848 17.5171 18.8232 17.5171Z" fill="#5ac8f5"/>
 </g>
</svg>
