<?xml version="1.0" encoding="UTF-8"?>
<!--Generator: Apple Native CoreSVG 175.5-->
<!DOCTYPE svg
PUBLIC "-//W3C//DTD SVG 1.1//EN"
       "http://www.w3.org/Graphics/SVG/1.1/DTD/svg11.dtd">
<svg version="1.1" xmlns="http://www.w3.org/2000/svg" xmlns:xlink="http://www.w3.org/1999/xlink" width="26.9531" height="30.7496">
 <g>
  <rect height="30.7496" opacity="0" width="26.9531" x="0" y="0"/>
  <path d="M0 23.6817C0 24.4629 0.0854492 25.0489 0.280762 25.4395L8.58154 17.1998L0.244141 9.88774C0.0976562 10.2662 0 10.7911 0 11.5235ZM1.29395 8.34966L12.0361 17.7979C12.5854 18.2862 13.0005 18.5547 13.501 18.5547C13.9893 18.5547 14.4043 18.2862 14.9658 17.7979L25.6836 8.36186C25.2319 8.00786 24.4873 7.73931 23.4863 7.73931L14.7461 7.73931L14.7461 13.1958C14.7461 13.855 14.1724 14.4166 13.501 14.4166C12.8174 14.4166 12.2437 13.855 12.2437 13.1958L12.2437 7.73931L3.4668 7.73931C2.49023 7.73931 1.74561 8.00786 1.29395 8.34966ZM1.45264 26.8921C1.95312 27.2217 2.73438 27.4659 3.83301 27.4659L23.1201 27.4659C24.231 27.4659 25.0122 27.2217 25.5249 26.8677L17.0166 18.4449L16.0645 19.2994C15.1489 20.0684 14.3921 20.4957 13.501 20.4957C12.6099 20.4957 11.8408 20.0684 10.9375 19.2994L9.97314 18.4449ZM18.4082 17.1998L26.6846 25.4151C26.8677 25.0245 26.9531 24.4507 26.9531 23.6817L26.9531 11.5235C26.9531 10.8033 26.8555 10.2906 26.7212 9.91216ZM4.69971 2.80766L7.21436 5.44438C7.75146 5.98149 8.3252 5.8228 8.45947 5.10259L8.70361 3.79643C11.2915 4.23589 12.5244 5.79839 12.5244 7.69048L12.5244 8.03227C12.5244 8.75249 12.8906 9.16753 13.501 9.16753C14.1113 9.16753 14.4653 8.75249 14.4653 8.03227L14.4653 7.69048C14.4653 5.79839 15.7104 4.23589 18.2983 3.79643L18.5425 5.10259C18.6768 5.8228 19.2505 5.98149 19.7754 5.44438L22.3022 2.80766C22.7295 2.38042 22.6074 1.84331 22.0581 1.58696L18.7378 0.109911C18.0542-0.195265 17.6025 0.158739 17.7368 0.878954L17.981 2.16069C16.0767 2.53911 13.9648 3.77202 13.501 5.15141C13.0371 3.77202 10.9253 2.53911 9.021 2.16069L9.26514 0.878954C9.39941 0.158739 8.94775-0.195265 8.25195 0.109911L4.94385 1.58696C4.39453 1.84331 4.27246 2.38042 4.69971 2.80766Z" fill="#5ac8f5"/>
 </g>
</svg>
