<?xml version="1.0" encoding="UTF-8"?>
<!--Generator: Apple Native CoreSVG 175.5-->
<!DOCTYPE svg
PUBLIC "-//W3C//DTD SVG 1.1//EN"
       "http://www.w3.org/Graphics/SVG/1.1/DTD/svg11.dtd">
<svg version="1.1" xmlns="http://www.w3.org/2000/svg" xmlns:xlink="http://www.w3.org/1999/xlink" width="20.5191" height="22.7604">
 <g>
  <rect height="22.7604" opacity="0" width="20.5191" x="0" y="0"/>
  <path d="M15.0292 22.1651C20.0097 20.3585 21.6699 16.2203 19.7289 10.8858L18.9355 8.68857C18.2031 6.67441 16.787 5.79551 15.6884 6.18613C15.4443 6.28379 15.3588 6.46689 15.4443 6.69883L15.7983 7.67539C15.9692 8.13926 15.8105 8.44443 15.5297 8.5543C15.2367 8.65195 14.9194 8.51768 14.7485 8.05381L14.5165 7.41904C14.0893 6.22275 13.0395 5.72227 12.0141 6.10068C11.5502 6.27158 11.4159 6.54014 11.5624 6.93076L12.0385 8.26133C12.2094 8.7252 12.0629 9.03037 11.7822 9.14023C11.477 9.2501 11.1596 9.10361 11.0009 8.63975L10.5492 7.41904C10.061 6.07627 9.05999 5.73447 8.05901 6.10068C7.61956 6.25938 7.46087 6.55234 7.60735 6.93076L8.54729 9.53086C8.71819 9.99473 8.57171 10.2999 8.29095 10.4098C7.99798 10.5196 7.68059 10.3731 7.5097 9.90928L4.33587 1.20566C4.03069 0.351172 3.27386 0.00937505 2.55364 0.265723C1.7846 0.546484 1.45501 1.29111 1.76018 2.14561L6.39886 14.8897C6.52093 15.2071 6.37444 15.4391 6.17913 15.5123C5.98382 15.5855 5.7885 15.5245 5.53216 15.256L2.39495 11.8868C1.93108 11.3985 1.45501 11.2765 0.942313 11.4718C0.148856 11.7525-0.15632 12.4728 0.0756137 13.1319C0.17327 13.3883 0.307547 13.5836 0.441825 13.7423L4.31145 18.6129C7.58294 22.7145 11.3671 23.4957 15.0292 22.1651Z" fill="#5ac8f5"/>
 </g>
</svg>
