<?xml version="1.0" encoding="UTF-8"?>
<!--Generator: Apple Native CoreSVG 175.5-->
<!DOCTYPE svg
PUBLIC "-//W3C//DTD SVG 1.1//EN"
       "http://www.w3.org/Graphics/SVG/1.1/DTD/svg11.dtd">
<svg version="1.1" xmlns="http://www.w3.org/2000/svg" xmlns:xlink="http://www.w3.org/1999/xlink" width="36.1328" height="16.5161">
 <g>
  <rect height="16.5161" opacity="0" width="36.1328" x="0" y="0"/>
  <path d="M6.50635 16.5161L25.6958 16.5161C27.7832 16.5161 29.541 16.3208 30.7861 15.0757C32.0312 13.8306 32.2144 12.0972 32.2144 10.0098L32.2144 6.50635C32.2144 4.41895 32.0312 2.68555 30.7861 1.44043C29.541 0.195312 27.7832 0 25.6958 0L6.48193 0C4.43115 0 2.67334 0.195312 1.42822 1.44043C0.183105 2.68555 0 4.43115 0 6.46973L0 10.0098C0 12.0972 0.183105 13.8306 1.42822 15.0757C2.67334 16.3208 4.43115 16.5161 6.50635 16.5161ZM6.17676 14.5508C4.91943 14.5508 3.60107 14.3799 2.85645 13.6475C2.12402 12.9028 1.96533 11.5967 1.96533 10.3394L1.96533 6.20117C1.96533 4.91943 2.12402 3.61328 2.85645 2.86865C3.60107 2.12402 4.93164 1.96533 6.21338 1.96533L26.0376 1.96533C27.2949 1.96533 28.6133 2.13623 29.3457 2.86865C30.0903 3.61328 30.249 4.90723 30.249 6.16455L30.249 10.3394C30.249 11.5967 30.0903 12.9028 29.3457 13.6475C28.6133 14.3799 27.2949 14.5508 26.0376 14.5508ZM33.8745 11.4136C34.8389 11.3525 36.1328 10.1196 36.1328 8.25195C36.1328 6.39648 34.8389 5.16357 33.8745 5.10254Z" fill="#5ac8f5" fill-opacity="0.5"/>
  <path d="M5.52979 13.1348L7.89795 13.1348C8.74023 13.1348 9.22852 13.0127 9.57031 12.6709C9.91211 12.3291 10.0342 11.8408 10.0342 10.9985L10.0342 5.51758C10.0342 4.67529 9.91211 4.18701 9.57031 3.84521C9.22852 3.50342 8.72803 3.38135 7.89795 3.38135L5.56641 3.38135C4.69971 3.38135 4.19922 3.50342 3.85742 3.84521C3.52783 4.18701 3.39355 4.6875 3.39355 5.54199L3.39355 10.9985C3.39355 11.8408 3.52783 12.3291 3.85742 12.6709C4.19922 13.0127 4.69971 13.1348 5.52979 13.1348Z" fill="#5ac8f5"/>
 </g>
</svg>
