<?xml version="1.0" encoding="UTF-8"?>
<!--Generator: Apple Native CoreSVG 175.5-->
<!DOCTYPE svg
PUBLIC "-//W3C//DTD SVG 1.1//EN"
       "http://www.w3.org/Graphics/SVG/1.1/DTD/svg11.dtd">
<svg version="1.1" xmlns="http://www.w3.org/2000/svg" xmlns:xlink="http://www.w3.org/1999/xlink" width="22.4731" height="22.4976">
 <g>
  <rect height="22.4976" opacity="0" width="22.4731" x="0" y="0"/>
  <path d="M3.83301 22.4976L18.6401 22.4976C21.2036 22.4976 22.4731 21.228 22.4731 18.7134L22.4731 3.80859C22.4731 1.29395 21.2036 0.0244141 18.6401 0.0244141L3.83301 0.0244141C1.28174 0.0244141 0 1.28174 0 3.80859L0 18.7134C0 21.2402 1.28174 22.4976 3.83301 22.4976ZM7.14111 16.6748C4.96826 16.6748 3.54004 14.5996 3.54004 11.2427C3.54004 7.88574 4.96826 5.81055 7.14111 5.81055C9.30176 5.81055 10.7422 7.88574 10.7422 11.2427C10.7422 14.5996 9.30176 16.6748 7.14111 16.6748ZM7.14111 15.1367C8.34961 15.1367 9.08203 13.6597 9.08203 11.2427C9.08203 8.82568 8.3374 7.34863 7.14111 7.34863C5.94482 7.34863 5.2002 8.82568 5.2002 11.2427C5.2002 13.6597 5.94482 15.1367 7.14111 15.1367ZM12.9883 16.3818C12.5488 16.3818 12.2559 16.0889 12.2559 15.6372C12.2559 15.3809 12.3291 15.1611 12.5366 14.9536L15.8569 11.0474C16.4429 10.3516 17.1143 9.64355 17.1143 8.82568C17.1143 7.89795 16.4551 7.27539 15.4419 7.27539C14.5386 7.27539 13.9038 7.72705 13.5864 8.6792C13.4277 9.05762 13.2324 9.26514 12.8662 9.26514C12.4268 9.26514 12.1582 8.95996 12.1582 8.5083C12.1582 8.36182 12.1948 8.21533 12.2192 8.05664C12.5488 6.7749 13.8916 5.81055 15.3809 5.81055C17.3584 5.81055 18.6279 6.93359 18.6279 8.69141C18.6279 9.94873 17.9443 10.8521 17.0044 11.9385L14.5508 14.7949L14.5508 14.8926L18.2007 14.8926C18.6035 14.8926 18.9087 15.1489 18.9087 15.625C18.9087 16.0767 18.6035 16.3818 18.2007 16.3818Z" fill="#5ac8f5"/>
 </g>
</svg>
