<?xml version="1.0" encoding="UTF-8"?>
<!--Generator: Apple Native CoreSVG 175.5-->
<!DOCTYPE svg
PUBLIC "-//W3C//DTD SVG 1.1//EN"
       "http://www.w3.org/Graphics/SVG/1.1/DTD/svg11.dtd">
<svg version="1.1" xmlns="http://www.w3.org/2000/svg" xmlns:xlink="http://www.w3.org/1999/xlink" width="19.6533" height="25.5005">
 <g>
  <rect height="25.5005" opacity="0" width="19.6533" x="0" y="0"/>
  <path d="M14.2456 5.83496C12.4268 5.83496 10.9375 6.9458 9.98535 6.9458C8.97217 6.9458 7.65381 5.9082 6.06689 5.9082C3.05176 5.9082 0 8.39844 0 13.0859C0 16.0156 1.12305 19.104 2.52686 21.0938C3.72314 22.7783 4.77295 24.1577 6.28662 24.1577C7.77588 24.1577 8.43506 23.1689 10.2905 23.1689C12.1704 23.1689 12.5977 24.1333 14.2456 24.1333C15.8813 24.1333 16.9678 22.6318 18.0054 21.1548C19.1528 19.458 19.6411 17.8101 19.6533 17.7246C19.5557 17.7002 16.4307 16.4185 16.4307 12.8418C16.4307 9.74121 18.8843 8.34961 19.0308 8.23975C17.4072 5.9082 14.9292 5.83496 14.2456 5.83496ZM13.3911 3.85742C14.1357 2.9541 14.6606 1.72119 14.6606 0.476074C14.6606 0.305176 14.6484 0.134277 14.624 0C13.4033 0.0488281 11.9385 0.805664 11.0718 1.83105C10.376 2.6123 9.74121 3.85742 9.74121 5.10254C9.74121 5.29785 9.77783 5.48096 9.79004 5.54199C9.86328 5.5542 9.98535 5.57861 10.1196 5.57861C11.2061 5.57861 12.5732 4.84619 13.3911 3.85742Z" fill="#5ac8f5"/>
 </g>
</svg>
