<?xml version="1.0" encoding="UTF-8"?>
<!--Generator: Apple Native CoreSVG 175.5-->
<!DOCTYPE svg
PUBLIC "-//W3C//DTD SVG 1.1//EN"
       "http://www.w3.org/Graphics/SVG/1.1/DTD/svg11.dtd">
<svg version="1.1" xmlns="http://www.w3.org/2000/svg" xmlns:xlink="http://www.w3.org/1999/xlink" width="22.4731" height="22.4976">
 <g>
  <rect height="22.4976" opacity="0" width="22.4731" x="0" y="0"/>
  <path d="M3.83301 22.4976L18.6401 22.4976C21.2036 22.4976 22.4731 21.228 22.4731 18.7134L22.4731 3.80859C22.4731 1.29395 21.2036 0.0244141 18.6401 0.0244141L3.83301 0.0244141C1.28174 0.0244141 0 1.28174 0 3.80859L0 18.7134C0 21.2402 1.28174 22.4976 3.83301 22.4976ZM3.85742 20.5322C2.63672 20.5322 1.96533 19.8853 1.96533 18.6157L1.96533 3.90625C1.96533 2.63672 2.63672 1.98975 3.85742 1.98975L18.6157 1.98975C19.8242 1.98975 20.5078 2.63672 20.5078 3.90625L20.5078 18.6157C20.5078 19.8853 19.8242 20.5322 18.6157 20.5322Z" fill="#5ac8f5" fill-opacity="0.5"/>
  <path d="M6.00586 11.0107C6.00586 11.3403 6.26221 11.6211 6.5918 11.6211L7.33643 11.6211L8.12988 16.5527C8.20312 17.0288 8.55713 17.2974 8.99658 17.2974C9.43604 17.2974 9.79004 17.0532 9.87549 16.5649L10.6934 11.6089L11.792 11.6089L12.6343 16.5649C12.7197 17.0532 13.0737 17.2974 13.5132 17.2974C13.9404 17.2974 14.3066 17.0288 14.3799 16.5527L15.1489 11.6089L15.8813 11.6089C16.2354 11.6089 16.4795 11.3281 16.4795 10.9985C16.4795 10.6445 16.2354 10.4004 15.8813 10.4004L15.3442 10.4004L15.9424 6.54297C15.9668 6.4209 15.9912 6.32324 15.9912 6.18896C15.9912 5.76172 15.6616 5.50537 15.2344 5.50537C14.856 5.50537 14.5264 5.7251 14.4653 6.15234L13.916 10.4004L12.854 10.4004L12.146 6.29883C12.0728 5.79834 11.6821 5.51758 11.2305 5.51758C10.7666 5.51758 10.4004 5.79834 10.3149 6.31104L9.61914 10.4126L8.58154 10.4126L8.05664 6.16455C7.99561 5.7373 7.66602 5.51758 7.27539 5.51758C6.83594 5.51758 6.50635 5.78613 6.50635 6.21338C6.50635 6.35986 6.53076 6.48193 6.54297 6.5918L7.14111 10.4126L6.5918 10.4126C6.26221 10.4126 6.00586 10.6567 6.00586 11.0107ZM8.74023 11.5967L9.44824 11.5967L9.0332 14.4653ZM10.9131 10.4126L11.2427 8.02002L11.5967 10.4126ZM13.0249 11.5967L13.7939 11.5967L13.4644 14.5386Z" fill="#5ac8f5"/>
 </g>
</svg>
