<?xml version="1.0" encoding="UTF-8"?>
<!--Generator: Apple Native CoreSVG 175.5-->
<!DOCTYPE svg
PUBLIC "-//W3C//DTD SVG 1.1//EN"
       "http://www.w3.org/Graphics/SVG/1.1/DTD/svg11.dtd">
<svg version="1.1" xmlns="http://www.w3.org/2000/svg" xmlns:xlink="http://www.w3.org/1999/xlink" width="14.4409" height="22.6929">
 <g>
  <rect height="22.6929" opacity="0" width="14.4409" x="0" y="0"/>
  <path d="M7.69043 19.7754C11.0962 19.7754 13.562 18.0298 14.3188 15.7593C14.3799 15.5518 14.4409 15.3198 14.4409 15.0635C14.4409 14.4409 14.0015 14.0259 13.3789 14.0259C12.8784 14.0259 12.561 14.3433 12.3535 14.8193C11.6333 16.5649 10.1196 17.7856 7.70264 17.7856C4.46777 17.7856 2.29492 15.5029 2.29492 11.3403C2.29492 7.26318 4.44336 4.88281 7.67822 4.88281C10.0952 4.88281 11.6089 6.11572 12.3169 7.83691C12.5244 8.36182 12.8906 8.65479 13.4033 8.65479C14.0137 8.65479 14.4165 8.22754 14.4165 7.61719C14.4165 7.36084 14.3555 7.12891 14.2944 6.92139C13.5254 4.66309 11.0718 2.89307 7.66602 2.89307C3.05176 2.89307 0 6.18896 0 11.3403C0 16.5649 3.05176 19.7754 7.69043 19.7754ZM7.58057 22.6807C8.03223 22.6807 8.38623 22.3633 8.38623 21.8872L8.38623 0.793457C8.38623 0.317383 8.03223 0 7.58057 0C7.12891 0 6.78711 0.317383 6.78711 0.793457L6.78711 21.8872C6.78711 22.3633 7.12891 22.6807 7.58057 22.6807Z" fill="#5ac8f5"/>
 </g>
</svg>
