<?xml version="1.0" encoding="UTF-8"?>
<!--Generator: Apple Native CoreSVG 175.5-->
<!DOCTYPE svg
PUBLIC "-//W3C//DTD SVG 1.1//EN"
       "http://www.w3.org/Graphics/SVG/1.1/DTD/svg11.dtd">
<svg version="1.1" xmlns="http://www.w3.org/2000/svg" xmlns:xlink="http://www.w3.org/1999/xlink" width="25.8881" height="26.1505">
 <g>
  <rect height="26.1505" opacity="0" width="25.8881" x="0" y="0"/>
  <path d="M13.0966 7.9422L11.4731 9.59015C13.0844 9.72443 14.1342 10.2005 14.9277 10.994C17.0639 13.1302 17.0517 16.1575 14.9399 18.2694L10.9482 22.2488C8.82416 24.3729 5.82123 24.3851 3.685 22.261C1.54877 20.1126 1.56098 17.1097 3.685 14.9857L6.07758 12.5931C5.73578 11.824 5.65033 10.9085 5.78461 10.1151L2.19574 13.6917C-0.721738 16.6214-0.746152 20.7718 2.20795 23.7259C5.17426 26.6922 9.32465 26.6678 12.2421 23.7503L16.4169 19.5633C19.3466 16.6336 19.371 12.4832 16.4047 9.52912C15.6357 8.76007 14.6591 8.21076 13.0966 7.9422ZM12.7914 18.0008L14.415 16.3528C12.8037 16.2308 11.7538 15.7425 10.9604 14.949C8.82416 12.8128 8.83637 9.78546 10.9482 7.67365L14.9277 3.69416C17.0639 1.57013 20.0668 1.55792 22.2031 3.69416C24.3393 5.83039 24.3149 8.84552 22.2031 10.9573L19.8105 13.3499C20.1523 14.1312 20.2255 15.0345 20.1035 15.8279L23.6923 12.2513C26.6098 9.3216 26.6342 5.18341 23.6801 2.2171C20.7138-0.749204 16.5634-0.72479 13.6337 2.2049L9.47113 6.3797C6.54145 9.30939 6.51703 13.4598 9.48334 16.4139C10.2524 17.1829 11.2289 17.7322 12.7914 18.0008Z" fill="#5ac8f5"/>
 </g>
</svg>
