<?xml version="1.0" encoding="UTF-8"?>
<!--Generator: Apple Native CoreSVG 175.5-->
<!DOCTYPE svg
PUBLIC "-//W3C//DTD SVG 1.1//EN"
       "http://www.w3.org/Graphics/SVG/1.1/DTD/svg11.dtd">
<svg version="1.1" xmlns="http://www.w3.org/2000/svg" xmlns:xlink="http://www.w3.org/1999/xlink" width="28.7842" height="22.4731">
 <g>
  <rect height="22.4731" opacity="0" width="28.7842" x="0" y="0"/>
  <path d="M5.24902 9.43604C4.29688 10.0098 5.10254 11.4624 6.15234 10.8032L9.66797 8.60596C10.3638 8.1665 10.3271 7.12891 9.66797 6.71387L6.15234 4.5166C5.10254 3.85742 4.28467 5.29785 5.24902 5.88379L8.19092 7.65381ZM10.4004 10.791C10.4004 11.2183 10.7422 11.5723 11.1816 11.5723L15.8325 11.5723C16.272 11.5723 16.6138 11.2183 16.6138 10.791C16.6138 10.3516 16.272 9.99756 15.8325 9.99756L11.1816 9.99756C10.7422 9.99756 10.4004 10.3516 10.4004 10.791ZM3.83301 22.4731L24.9512 22.4731C27.5146 22.4731 28.7842 21.2158 28.7842 18.7012L28.7842 3.78418C28.7842 1.26953 27.5146 0 24.9512 0L3.83301 0C1.28174 0 0 1.26953 0 3.78418L0 18.7012C0 21.2158 1.28174 22.4731 3.83301 22.4731ZM3.85742 20.5078C2.63672 20.5078 1.96533 19.8608 1.96533 18.5913L1.96533 3.89404C1.96533 2.62451 2.63672 1.96533 3.85742 1.96533L24.9268 1.96533C26.1353 1.96533 26.8188 2.62451 26.8188 3.89404L26.8188 18.5913C26.8188 19.8608 26.1353 20.5078 24.9268 20.5078Z" fill="#5ac8f5"/>
 </g>
</svg>
