<?xml version="1.0" encoding="UTF-8"?>
<!--Generator: Apple Native CoreSVG 175.5-->
<!DOCTYPE svg
PUBLIC "-//W3C//DTD SVG 1.1//EN"
       "http://www.w3.org/Graphics/SVG/1.1/DTD/svg11.dtd">
<svg version="1.1" xmlns="http://www.w3.org/2000/svg" xmlns:xlink="http://www.w3.org/1999/xlink" width="32.1533" height="21.7536">
 <g>
  <rect height="21.7536" opacity="0" width="32.1533" x="0" y="0"/>
  <path d="M20.3979 10.8707C20.4224 8.51475 20.2271 6.25645 19.5801 3.93711C18.8232 1.42246 17.4072 0.519144 14.4409 0.519144L13.7573 0.519144C6.48193 0.519144 0 5.29209 0 10.8707C0 16.4493 6.48193 21.1979 13.7573 21.1979L14.4409 21.1979C17.4194 21.1979 18.8354 20.3067 19.5801 17.7921C20.2271 15.485 20.4224 13.2267 20.3979 10.8707ZM31.1768 5.24327L21.582 5.24327C21.7163 5.90245 21.814 6.57383 21.8872 7.2208L31.1768 7.2086C31.6895 7.2086 32.1533 6.76914 32.1533 6.23204C32.1533 5.69493 31.7017 5.24327 31.1768 5.24327ZM31.1768 9.88194L22.0581 9.88194C22.0703 10.2481 22.0703 11.4933 22.0581 11.8473L31.1768 11.8473C31.7017 11.8473 32.1533 11.42 32.1533 10.8829C32.1533 10.358 31.7017 9.88194 31.1768 9.88194ZM31.1768 14.5328L21.8872 14.545C21.814 15.1798 21.7163 15.839 21.582 16.5104L31.1768 16.4981C31.7017 16.4981 32.1533 16.0587 32.1533 15.5216C32.1533 14.9967 31.7017 14.5328 31.1768 14.5328ZM24.8657 20.026C23.8525 21.0147 25.1831 22.3697 26.2329 21.4176C28.6377 19.1593 29.126 14.9601 27.5269 10.9317L27.2949 10.3458C25.9399 6.94004 26.1719 3.49766 27.9297 1.71543C28.9673 0.726664 27.6367-0.628316 26.5747 0.323832C24.1577 2.59434 23.6938 6.76914 25.293 10.7975L25.5249 11.3834C26.8799 14.8136 26.6357 18.2315 24.8657 20.026Z" fill="#5ac8f5"/>
 </g>
</svg>
