<?xml version="1.0" encoding="UTF-8"?>
<!--Generator: Apple Native CoreSVG 175.5-->
<!DOCTYPE svg
PUBLIC "-//W3C//DTD SVG 1.1//EN"
       "http://www.w3.org/Graphics/SVG/1.1/DTD/svg11.dtd">
<svg version="1.1" xmlns="http://www.w3.org/2000/svg" xmlns:xlink="http://www.w3.org/1999/xlink" width="35.1698" height="18.2983">
 <g>
  <rect height="18.2983" opacity="0" width="35.1698" x="0" y="0"/>
  <path d="M8.05629 3.27148L8.9352 3.27148C9.48451 3.27148 9.71645 3.06396 9.89955 2.6001L10.6198 0.78125C10.7907 0.378418 10.6076 0.0244141 10.1803 0.0244141L9.37465 0.0244141C8.95961 0.0244141 8.70326 0.231934 8.50795 0.598145L7.5436 2.45361C7.34828 2.81982 7.5436 3.27148 8.05629 3.27148ZM4.71156 10.0586L6.06654 10.0586C6.62807 10.0586 6.95766 9.86328 7.16518 9.33838L8.22719 6.72607C8.39809 6.29883 8.12953 5.88379 7.65346 5.88379L6.44496 5.88379C6.02992 5.88379 5.68813 6.09131 5.49281 6.46973L4.13783 9.10645C3.89369 9.57031 4.18666 10.0586 4.71156 10.0586ZM0.98842 18.2983L2.58754 18.2983C3.31996 18.2983 3.68617 17.9443 3.88149 17.4194L5.37074 13.7695C5.59047 13.2324 5.24867 12.7075 4.66274 12.7075L3.28334 12.7075C2.5143 12.7075 2.13588 13.0005 1.86733 13.5132L0.133928 16.9434C-0.183455 17.5659 0.0484786 18.2983 0.98842 18.2983ZM26.2326 3.27148L27.1115 3.27148C27.6242 3.27148 27.8195 2.81982 27.6242 2.45361L26.6598 0.598145C26.4767 0.231934 26.2081 0.0244141 25.7931 0.0244141L24.9874 0.0244141C24.5602 0.0244141 24.3771 0.378418 24.548 0.78125L25.2682 2.6001C25.4513 3.06396 25.6832 3.27148 26.2326 3.27148ZM29.1134 10.0586L30.4562 10.0586C30.9811 10.0586 31.2741 9.57031 31.0421 9.10645L29.6872 6.46973C29.4796 6.09131 29.1378 5.88379 28.7228 5.88379L27.5143 5.88379C27.0382 5.88379 26.7697 6.29883 26.9406 6.72607L28.0026 9.33838C28.2223 9.86328 28.5397 10.0586 29.1134 10.0586ZM32.5802 18.2983L34.1793 18.2983C35.1315 18.2983 35.3512 17.5659 35.0338 16.9434L33.3004 13.5132C33.0319 13.0005 32.6535 12.7075 31.8844 12.7075L30.5172 12.7075C29.9191 12.7075 29.5773 13.2324 29.797 13.7695L31.2863 17.4194C31.4938 17.9443 31.8478 18.2983 32.5802 18.2983Z" fill="#5ac8f5" fill-opacity="0.5"/>
  <path d="M17.6022 17.2363C21.6915 17.2363 25.0851 13.855 25.0851 9.76562C25.0851 5.66406 21.6793 2.28271 17.59 2.28271C13.5128 2.28271 10.1193 5.66406 10.1193 9.76562C10.1193 13.855 13.5128 17.2363 17.6022 17.2363ZM12.6583 6.46973C13.7081 4.84619 15.5026 3.79639 17.59 3.79639C19.6774 3.79639 21.4718 4.84619 22.5216 6.45752C22.7658 6.79932 22.6803 7.09229 22.3019 7.09229L12.8781 7.09229C12.4997 7.09229 12.4264 6.79932 12.6583 6.46973ZM17.59 11.5723C16.7599 11.5723 16.1496 10.9497 16.1496 10.1318C16.1496 9.30176 16.7599 8.6792 17.59 8.6792C18.4079 8.6792 19.0304 9.30176 19.0304 10.1318C19.0304 10.9497 18.4079 11.5723 17.59 11.5723ZM11.8527 11.3281C11.7428 10.9863 11.8771 10.8765 12.1701 10.9131C14.1842 11.1328 15.7101 12.854 15.6369 14.9292C15.6369 15.2344 15.4782 15.3687 15.173 15.21C13.5006 14.4775 12.3043 13.0615 11.8527 11.3281ZM23.3517 11.3281C22.8878 13.0615 21.6793 14.4775 20.007 15.21C19.7018 15.3687 19.5553 15.2344 19.5431 14.9292C19.4821 12.8662 20.9957 11.1328 22.9977 10.9131C23.3029 10.8643 23.4372 10.9863 23.3517 11.3281Z" fill="#5ac8f5"/>
 </g>
</svg>
