<?xml version="1.0" encoding="UTF-8"?>
<!--Generator: Apple Native CoreSVG 175.5-->
<!DOCTYPE svg
PUBLIC "-//W3C//DTD SVG 1.1//EN"
       "http://www.w3.org/Graphics/SVG/1.1/DTD/svg11.dtd">
<svg version="1.1" xmlns="http://www.w3.org/2000/svg" xmlns:xlink="http://www.w3.org/1999/xlink" width="29.3335" height="28.5767">
 <g>
  <rect height="28.5767" opacity="0" width="29.3335" x="0" y="0"/>
  <path d="M8.91113 2.84424C11.7554 2.84424 14.0381 2.23389 14.0381 1.42822C14.0381 0.610352 11.7554 0 8.91113 0C6.06689 0 3.78418 0.610352 3.78418 1.42822C3.78418 2.23389 6.06689 2.84424 8.91113 2.84424ZM0 15.625C0 20.3857 2.6001 22.5708 8.22754 22.7173C8.11768 22.168 8.05664 21.5576 8.04443 20.9229C3.57666 20.7397 1.79443 19.0063 1.79443 15.4419L1.79443 7.31201C1.79443 6.33545 1.96533 5.43213 2.36816 4.65088C3.69873 5.70068 6.33545 6.16455 9.26514 6.14014C9.68018 5.3833 10.1562 4.60205 10.4248 4.27246C10.2539 4.29688 9.59473 4.35791 8.91113 4.35791C6.15234 4.35791 3.36914 3.56445 2.30713 2.62451C1.98975 2.35596 1.5625 2.38037 1.29395 2.72217C0.500488 3.71094 0 5.12695 0 7.20215ZM19.519 6.53076C22.644 6.53076 25.1587 5.84717 25.1587 4.96826C25.1587 4.06494 22.644 3.39355 19.519 3.39355C16.3818 3.39355 13.8672 4.06494 13.8672 4.96826C13.8672 5.84717 16.3818 6.53076 19.519 6.53076ZM19.519 28.4668C26.2451 28.4668 29.3335 26.0742 29.3335 20.6299L29.3335 11.3403C29.3335 9.04541 28.7842 7.49512 27.9175 6.39648C27.6245 6.03027 27.1606 6.00586 26.7944 6.29883C25.6348 7.32422 22.5708 8.20312 19.519 8.20312C16.4551 8.20312 13.4033 7.32422 12.2314 6.29883C11.8652 6.00586 11.4014 6.03027 11.1084 6.39648C10.2417 7.49512 9.69238 9.04541 9.69238 11.3403L9.69238 20.6299C9.69238 26.0742 12.7808 28.4668 19.519 28.4668ZM19.519 26.5015C13.8672 26.5015 11.6577 24.6094 11.6577 20.4346L11.6577 11.4502C11.6577 10.376 11.8408 9.375 12.2925 8.5083C13.7451 9.64355 16.4917 10.1685 19.519 10.1685C22.5342 10.1685 25.2808 9.64355 26.7334 8.5083C27.1851 9.375 27.3682 10.376 27.3682 11.4502L27.3682 20.4346C27.3682 24.6094 25.1587 26.5015 19.519 26.5015Z" fill="#5ac8f5"/>
 </g>
</svg>
