<?xml version="1.0" encoding="UTF-8"?>
<!--Generator: Apple Native CoreSVG 175.5-->
<!DOCTYPE svg
PUBLIC "-//W3C//DTD SVG 1.1//EN"
       "http://www.w3.org/Graphics/SVG/1.1/DTD/svg11.dtd">
<svg version="1.1" xmlns="http://www.w3.org/2000/svg" xmlns:xlink="http://www.w3.org/1999/xlink" width="32.2876" height="24.9283">
 <g>
  <rect height="24.9283" opacity="0" width="32.2876" x="0" y="0"/>
  <path d="M8.61816 3.25396L31.3599 3.25396C31.8726 3.25396 32.2876 2.85113 32.2876 2.33843C32.2876 1.81353 31.8726 1.4107 31.3599 1.4107L8.61816 1.4107C8.10547 1.4107 7.70264 1.81353 7.70264 2.33843C7.70264 2.85113 8.10547 3.25396 8.61816 3.25396ZM8.61816 9.52837L31.3599 9.52837C31.8726 9.52837 32.2876 9.12554 32.2876 8.61284C32.2876 8.08794 31.8726 7.68511 31.3599 7.68511L8.61816 7.68511C8.10547 7.68511 7.70264 8.08794 7.70264 8.61284C7.70264 9.12554 8.10547 9.52837 8.61816 9.52837ZM8.61816 15.8028L31.3599 15.8028C31.8726 15.8028 32.2876 15.4 32.2876 14.8873C32.2876 14.3624 31.8726 13.9595 31.3599 13.9595L8.61816 13.9595C8.10547 13.9595 7.70264 14.3624 7.70264 14.8873C7.70264 15.4 8.10547 15.8028 8.61816 15.8028Z" fill="#5ac8f5" fill-opacity="0.5"/>
  <path d="M9.24072 23.5054L30.7495 23.5054C31.7749 23.5054 32.2876 22.9927 32.2876 21.9918L32.2876 21.0884C32.2876 20.063 31.7749 19.5503 30.7495 19.5503L9.24072 19.5503C8.21533 19.5503 7.70264 20.063 7.70264 21.0884L7.70264 21.9918C7.70264 22.9927 8.21533 23.5054 9.24072 23.5054ZM1.28174 24.7627L5.35889 22.2847C5.99365 21.9063 6.00586 21.1739 5.35889 20.7955L1.28174 18.3174C0.646973 17.9146 0 18.2198 0 18.9888L0 24.0792C0 24.8238 0.622559 25.1534 1.28174 24.7627Z" fill="#5ac8f5"/>
 </g>
</svg>
