<?xml version="1.0" encoding="UTF-8"?>
<!--Generator: Apple Native CoreSVG 175.5-->
<!DOCTYPE svg
PUBLIC "-//W3C//DTD SVG 1.1//EN"
       "http://www.w3.org/Graphics/SVG/1.1/DTD/svg11.dtd">
<svg version="1.1" xmlns="http://www.w3.org/2000/svg" xmlns:xlink="http://www.w3.org/1999/xlink" width="24.9023" height="24.9146">
 <g>
  <rect height="24.9146" opacity="0" width="24.9023" x="0" y="0"/>
  <path d="M12.4512 24.9023C19.2627 24.9023 24.9023 19.2505 24.9023 12.4512C24.9023 5.63965 19.2505 0 12.439 0C5.63965 0 0 5.63965 0 12.4512C0 19.2505 5.65186 24.9023 12.4512 24.9023ZM7.94678 6.57959C8.30078 6.22559 8.82568 6.25 9.15527 6.57959L12.2437 9.74121C12.3901 9.8877 12.4878 10.1196 12.4878 10.3271C12.4878 10.8032 12.1582 11.145 11.6943 11.145C11.4746 11.145 11.2671 11.0596 11.1206 10.9131L9.81445 9.55811L9.35059 9.04541L9.375 9.64355L9.375 17.7979C9.375 18.2495 9.0332 18.5913 8.54492 18.5913C8.08105 18.5913 7.72705 18.2495 7.72705 17.7979L7.72705 9.65576L7.75146 9.04541L7.27539 9.55811L5.98145 10.8887C5.83496 11.0474 5.62744 11.145 5.41992 11.145C4.94385 11.145 4.58984 10.791 4.58984 10.3271C4.58984 10.144 4.71191 9.91211 4.84619 9.74121ZM16.9678 18.3472C16.6382 18.6768 16.0645 18.6768 15.7349 18.3472L12.6465 15.1978C12.5 15.0146 12.4146 14.7949 12.4146 14.5996C12.4146 14.1235 12.7319 13.7939 13.208 13.7939C13.4399 13.7939 13.6353 13.8672 13.7939 14.0381L15.0879 15.3564L15.5518 15.8813L15.5273 15.2954L15.5273 7.12891C15.5273 6.66504 15.8813 6.32324 16.3574 6.32324C16.8213 6.32324 17.1753 6.66504 17.1753 7.12891L17.1753 15.2832L17.1509 15.8691L17.627 15.3564L18.9209 14.0381C19.0674 13.8916 19.2749 13.7939 19.4946 13.7939C19.9707 13.7939 20.3125 14.1235 20.3125 14.5996C20.3125 14.8071 20.1904 15.0269 20.0439 15.1978Z" fill="#5ac8f5"/>
 </g>
</svg>
