<?xml version="1.0" encoding="UTF-8"?>
<!--Generator: Apple Native CoreSVG 175.5-->
<!DOCTYPE svg
PUBLIC "-//W3C//DTD SVG 1.1//EN"
       "http://www.w3.org/Graphics/SVG/1.1/DTD/svg11.dtd">
<svg version="1.1" xmlns="http://www.w3.org/2000/svg" xmlns:xlink="http://www.w3.org/1999/xlink" width="24.9023" height="24.9146">
 <g>
  <rect height="24.9146" opacity="0" width="24.9023" x="0" y="0"/>
  <path d="M12.4512 24.9023C19.2627 24.9023 24.9023 19.2505 24.9023 12.4512C24.9023 5.63965 19.2505 0 12.439 0C5.63965 0 0 5.63965 0 12.4512C0 19.2505 5.65186 24.9023 12.4512 24.9023ZM12.4512 22.8271C6.68945 22.8271 2.0874 18.2129 2.0874 12.4512C2.0874 6.68945 6.67725 2.0752 12.439 2.0752C18.2007 2.0752 22.8271 6.68945 22.8271 12.4512C22.8271 18.2129 18.2129 22.8271 12.4512 22.8271Z" fill="#5ac8f5" fill-opacity="0.5"/>
  <path d="M8.71582 8.53271L9.8877 8.53271L9.8877 7.42188C9.8877 7.10449 10.0952 6.90918 10.437 6.90918L14.4653 6.90918C14.7949 6.90918 15.0024 7.10449 15.0024 7.42188L15.0024 8.53271L16.1621 8.53271L16.1621 7.36084C16.1621 6.39648 15.5273 5.81055 14.5264 5.81055L10.3516 5.81055C9.35059 5.81055 8.71582 6.39648 8.71582 7.36084ZM7.40967 17.8711L17.4683 17.8711C18.75 17.8711 19.397 17.2485 19.397 15.979L19.397 9.8877C19.397 8.60596 18.75 7.9834 17.4683 7.9834L7.40967 7.9834C6.12793 7.9834 5.49316 8.60596 5.49316 9.8877L5.49316 15.979C5.49316 17.2485 6.12793 17.8711 7.40967 17.8711ZM9.55811 13.4644L9.55811 12.3657C9.55811 12.0361 9.76562 11.8164 10.0952 11.8164L11.3525 11.8164L11.3525 10.5835C11.3525 10.2417 11.5723 10.0464 11.8896 10.0464L12.9883 10.0464C13.3179 10.0464 13.5254 10.2417 13.5254 10.5835L13.5254 11.8164L14.7949 11.8164C15.1123 11.8164 15.3198 12.0361 15.3198 12.3657L15.3198 13.4644C15.3198 13.8062 15.1123 14.0137 14.7949 14.0137L13.5254 14.0137L13.5254 15.271C13.5254 15.5884 13.3179 15.8081 12.9883 15.8081L11.8896 15.8081C11.5723 15.8081 11.3525 15.5884 11.3525 15.271L11.3525 14.0137L10.0952 14.0137C9.76562 14.0137 9.55811 13.8062 9.55811 13.4644Z" fill="#5ac8f5"/>
 </g>
</svg>
