<?xml version="1.0" encoding="UTF-8"?>
<!--Generator: Apple Native CoreSVG 175.5-->
<!DOCTYPE svg
PUBLIC "-//W3C//DTD SVG 1.1//EN"
       "http://www.w3.org/Graphics/SVG/1.1/DTD/svg11.dtd">
<svg version="1.1" xmlns="http://www.w3.org/2000/svg" xmlns:xlink="http://www.w3.org/1999/xlink" width="19.6777" height="30.6274">
 <g>
  <rect height="30.6274" opacity="0" width="19.6777" x="0" y="0"/>
  <path d="M3.91846 3.07617C4.39453 2.73438 4.49219 2.05078 4.1748 1.57471C3.84521 1.11084 3.18604 0.976562 2.68555 1.31836C2.22168 1.64795 2.0752 2.34375 2.40479 2.80762C2.74658 3.28369 3.44238 3.40576 3.91846 3.07617ZM6.14014 6.27441C6.7749 5.85938 6.92139 4.98047 6.49414 4.3457C6.05469 3.73535 5.2002 3.58887 4.56543 4.01611C3.94287 4.43115 3.75977 5.31006 4.22363 5.94482C4.67529 6.56738 5.51758 6.73828 6.14014 6.27441ZM9.85107 2.14844C10.4492 2.14844 10.9253 1.64795 10.9253 1.08643C10.9253 0.488281 10.437 0 9.85107 0C9.27734 0 8.80127 0.488281 8.80127 1.08643C8.80127 1.64795 9.26514 2.14844 9.85107 2.14844ZM9.85107 6.06689C10.6201 6.06689 11.2549 5.43213 11.2549 4.67529C11.2549 3.91846 10.6201 3.28369 9.85107 3.28369C9.10645 3.28369 8.48389 3.91846 8.48389 4.67529C8.48389 5.43213 9.10645 6.06689 9.85107 6.06689ZM15.7837 3.07617C16.272 3.40576 16.9434 3.28369 17.2974 2.80762C17.627 2.34375 17.5049 1.64795 17.0166 1.31836C16.5161 0.976562 15.8569 1.11084 15.5273 1.57471C15.21 2.05078 15.3076 2.73438 15.7837 3.07617ZM13.562 6.27441C14.1846 6.73828 15.0391 6.56738 15.4785 5.94482C15.9424 5.31006 15.7593 4.43115 15.1367 4.01611C14.4897 3.58887 13.6475 3.73535 13.208 4.3457C12.7686 4.99268 12.9272 5.85938 13.562 6.27441ZM3.68652 12.6465L15.9912 12.6465C15.1978 11.4624 14.3433 10.2783 13.4399 9.06982C12.7808 8.20312 12.3535 7.71484 11.1572 7.71484L8.52051 7.71484C7.33643 7.71484 6.90918 8.20312 6.23779 9.06982C5.33447 10.2783 4.47998 11.4624 3.68652 12.6465ZM0.0854492 20.2637L7.18994 20.2637C7.56836 19.165 8.59375 18.396 9.85107 18.396C11.084 18.396 12.1094 19.165 12.5 20.2637L19.5923 20.2637C19.3115 18.5913 18.457 16.6382 17.2363 14.5752L2.45361 14.5752C1.2207 16.6382 0.366211 18.5913 0.0854492 20.2637ZM9.85107 22.3999C10.5225 22.3999 11.0229 21.8994 11.0229 21.2158C11.0229 20.5444 10.5225 20.0439 9.85107 20.0439C9.15527 20.0439 8.66699 20.5444 8.66699 21.2158C8.66699 21.8994 9.15527 22.3999 9.85107 22.3999ZM7.18994 28.2349L12.4878 28.2349C16.9678 28.2349 19.3848 26.0132 19.6777 22.1924L12.4878 22.1924C12.0972 23.2788 11.0718 24.0479 9.85107 24.0479C8.59375 24.0479 7.58057 23.2788 7.20215 22.1924L0 22.1924C0.292969 26.0132 2.70996 28.2349 7.18994 28.2349Z" fill="#5ac8f5"/>
 </g>
</svg>
