<?xml version="1.0" encoding="UTF-8"?>
<!--Generator: Apple Native CoreSVG 175.5-->
<!DOCTYPE svg
PUBLIC "-//W3C//DTD SVG 1.1//EN"
       "http://www.w3.org/Graphics/SVG/1.1/DTD/svg11.dtd">
<svg version="1.1" xmlns="http://www.w3.org/2000/svg" xmlns:xlink="http://www.w3.org/1999/xlink" width="30.7739" height="26.77">
 <g>
  <rect height="26.77" opacity="0" width="30.7739" x="0" y="0"/>
  <path d="M0 2.0874C0 3.13721 0.854492 3.9917 1.89209 3.9917C2.56348 3.9917 3.17383 3.62549 3.49121 3.07617L27.2827 3.07617C27.6001 3.62549 28.2104 3.9917 28.8818 3.9917C29.9194 3.9917 30.7739 3.13721 30.7739 2.0874C30.7739 1.0498 29.9194 0.195312 28.8818 0.195312C28.2104 0.195312 27.6001 0.57373 27.2827 1.11084L3.49121 1.11084C3.17383 0.57373 2.56348 0.195312 1.89209 0.195312C0.854492 0.195312 0 1.0498 0 2.0874ZM5.3833 25.8423L7.50732 25.8423C8.00781 25.8423 8.37402 25.4761 8.37402 24.9634L8.37402 0.891113C8.37402 0.378418 8.00781 0 7.50732 0L5.3833 0C4.88281 0 4.5166 0.378418 4.5166 0.891113L4.5166 24.9634C4.5166 25.4761 4.88281 25.8423 5.3833 25.8423ZM23.2666 25.8423L25.3906 25.8423C25.8911 25.8423 26.2573 25.4761 26.2573 24.9634L26.2573 0.891113C26.2573 0.378418 25.8911 0 25.3906 0L23.2666 0C22.7661 0 22.3999 0.378418 22.3999 0.891113L22.3999 24.9634C22.3999 25.4761 22.7661 25.8423 23.2666 25.8423Z" fill="#5ac8f5"/>
 </g>
</svg>
