<?xml version="1.0" encoding="UTF-8"?>
<!--Generator: Apple Native CoreSVG 175.5-->
<!DOCTYPE svg
PUBLIC "-//W3C//DTD SVG 1.1//EN"
       "http://www.w3.org/Graphics/SVG/1.1/DTD/svg11.dtd">
<svg version="1.1" xmlns="http://www.w3.org/2000/svg" xmlns:xlink="http://www.w3.org/1999/xlink" width="27.1362" height="27.1606">
 <g>
  <rect height="27.1606" opacity="0" width="27.1362" x="0" y="0"/>
  <path d="M13.5742 23.4619C15.2466 23.4619 16.8091 23.0347 18.1641 22.3022L17.2729 21.3989C16.1499 21.9604 14.9048 22.2656 13.5742 22.2656C8.74023 22.2656 4.90723 18.4326 4.90723 13.5986C4.90723 12.2803 5.22461 11.0229 5.77393 9.92432L4.87061 9.00879C4.12598 10.376 3.71094 11.9385 3.71094 13.5986C3.71094 19.0918 8.08105 23.4619 13.5742 23.4619ZM13.5742 18.6157C13.855 18.6157 14.1235 18.5791 14.3677 18.5059L8.66699 12.8052C8.59375 13.0615 8.55713 13.3301 8.55713 13.5986C8.55713 16.394 10.7788 18.6157 13.5742 18.6157ZM13.5742 8.59375C12.9028 8.59375 12.2437 8.71582 11.6699 8.95996L18.2129 15.5151C18.457 14.9292 18.5913 14.2944 18.5913 13.5986C18.5913 10.8276 16.3452 8.59375 13.5742 8.59375ZM13.5742 3.74756C11.5356 3.74756 9.65576 4.35791 8.08105 5.39551L8.95996 6.26221C10.2905 5.43213 11.8652 4.94385 13.5742 4.94385C18.3594 4.94385 22.229 8.82568 22.229 13.5986C22.229 15.3076 21.7529 16.8823 20.9106 18.2129L21.7651 19.0796C22.8149 17.5171 23.4253 15.6372 23.4253 13.5986C23.4253 8.17871 18.9941 3.74756 13.5742 3.74756ZM7.10449 3.03955C7.4707 3.03955 7.73926 2.75879 7.73926 2.41699C7.73926 2.0752 7.4707 1.78223 7.10449 1.78223C6.7627 1.78223 6.46973 2.0752 6.46973 2.41699C6.46973 2.75879 6.7627 3.03955 7.10449 3.03955ZM9.15527 2.0752C9.49707 2.0752 9.76562 1.79443 9.76562 1.46484C9.76562 1.12305 9.49707 0.817871 9.15527 0.817871C8.81348 0.817871 8.52051 1.12305 8.52051 1.46484C8.52051 1.79443 8.81348 2.0752 9.15527 2.0752ZM11.3159 1.50146C11.6699 1.50146 11.9385 1.2085 11.9385 0.878906C11.9385 0.537109 11.6699 0.231934 11.3159 0.231934C10.9863 0.231934 10.6934 0.537109 10.6934 0.878906C10.6934 1.2085 10.9863 1.50146 11.3159 1.50146ZM13.5742 1.30615C13.9282 1.30615 14.209 1.02539 14.209 0.683594C14.209 0.341797 13.9282 0.0366211 13.5742 0.0366211C13.2446 0.0366211 12.9395 0.341797 12.9395 0.683594C12.9395 1.02539 13.2446 1.30615 13.5742 1.30615ZM15.8325 1.50146C16.1621 1.50146 16.4673 1.2085 16.4673 0.878906C16.4673 0.537109 16.1621 0.231934 15.8325 0.231934C15.4663 0.231934 15.1978 0.537109 15.1978 0.878906C15.1978 1.2085 15.4663 1.50146 15.8325 1.50146ZM18.0054 2.0752C18.335 2.0752 18.6401 1.79443 18.6401 1.46484C18.6401 1.12305 18.335 0.817871 18.0054 0.817871C17.6392 0.817871 17.3706 1.12305 17.3706 1.46484C17.3706 1.79443 17.6392 2.0752 18.0054 2.0752ZM20.0562 3.03955C20.3735 3.03955 20.6665 2.75879 20.6665 2.41699C20.6665 2.0752 20.3735 1.78223 20.0562 1.78223C19.6899 1.78223 19.4214 2.0752 19.4214 2.41699C19.4214 2.75879 19.6899 3.03955 20.0562 3.03955ZM21.8994 4.3335C22.2412 4.3335 22.5342 4.04053 22.5342 3.72314C22.5342 3.36914 22.2412 3.07617 21.8994 3.07617C21.5454 3.07617 21.2769 3.36914 21.2769 3.72314C21.2769 4.04053 21.5454 4.3335 21.8994 4.3335ZM23.4863 5.92041C23.8281 5.92041 24.1211 5.63965 24.1211 5.31006C24.1211 4.95605 23.8281 4.66309 23.4863 4.66309C23.1323 4.66309 22.8638 4.95605 22.8638 5.31006C22.8638 5.63965 23.1323 5.92041 23.4863 5.92041ZM24.7925 7.77588C25.1099 7.77588 25.4028 7.49512 25.4028 7.15332C25.4028 6.82373 25.1099 6.51855 24.7925 6.51855C24.4263 6.51855 24.1577 6.82373 24.1577 7.15332C24.1577 7.49512 24.4263 7.77588 24.7925 7.77588ZM25.7324 9.82666C26.062 9.82666 26.355 9.5459 26.355 9.2041C26.355 8.8623 26.062 8.55713 25.7324 8.55713C25.3662 8.55713 25.0977 8.8623 25.0977 9.2041C25.0977 9.5459 25.3662 9.82666 25.7324 9.82666ZM26.3062 11.9995C26.6357 11.9995 26.9409 11.7065 26.9409 11.3647C26.9409 11.0352 26.6357 10.73 26.3062 10.73C25.9399 10.73 25.6714 11.0352 25.6714 11.3647C25.6714 11.7065 25.9399 11.9995 26.3062 11.9995ZM26.5015 14.2334C26.8311 14.2334 27.1362 13.9404 27.1362 13.623C27.1362 13.269 26.8311 12.9761 26.5015 12.9761C26.1475 12.9761 25.8789 13.269 25.8789 13.623C25.8789 13.9404 26.1475 14.2334 26.5015 14.2334ZM26.3062 16.4795C26.6357 16.4795 26.9409 16.1743 26.9409 15.8325C26.9409 15.5029 26.6357 15.21 26.3062 15.21C25.9399 15.21 25.6714 15.5029 25.6714 15.8325C25.6714 16.1743 25.9399 16.4795 26.3062 16.4795ZM25.7324 18.6401C26.062 18.6401 26.355 18.3472 26.355 17.9932C26.355 17.6758 26.062 17.3706 25.7324 17.3706C25.3662 17.3706 25.0977 17.6758 25.0977 17.9932C25.0977 18.3472 25.3662 18.6401 25.7324 18.6401ZM24.7925 20.6909C25.1099 20.6909 25.4028 20.3857 25.4028 20.0439C25.4028 19.7021 25.1099 19.4214 24.7925 19.4214C24.4263 19.4214 24.1577 19.7021 24.1577 20.0439C24.1577 20.3857 24.4263 20.6909 24.7925 20.6909ZM20.0317 25.4272C20.3613 25.4272 20.6665 25.1221 20.6665 24.7803C20.6665 24.4507 20.3613 24.1577 20.0317 24.1577C19.6777 24.1577 19.397 24.4507 19.397 24.7803C19.397 25.1221 19.6777 25.4272 20.0317 25.4272ZM17.9932 26.3794C18.3228 26.3794 18.6157 26.0864 18.6157 25.7446C18.6157 25.415 18.3228 25.1221 17.9932 25.1221C17.627 25.1221 17.3584 25.415 17.3584 25.7446C17.3584 26.0864 17.627 26.3794 17.9932 26.3794ZM15.8203 26.9653C16.1499 26.9653 16.4551 26.6602 16.4551 26.3184C16.4551 25.9888 16.1499 25.708 15.8203 25.708C15.4541 25.708 15.1855 25.9888 15.1855 26.3184C15.1855 26.6602 15.4541 26.9653 15.8203 26.9653ZM13.562 27.1606C13.916 27.1606 14.1968 26.8677 14.1968 26.5259C14.1968 26.1841 13.916 25.9033 13.562 25.9033C13.2324 25.9033 12.9272 26.1841 12.9272 26.5259C12.9272 26.8677 13.2324 27.1606 13.562 27.1606ZM11.3037 26.9653C11.6577 26.9653 11.9385 26.6602 11.9385 26.3184C11.9385 25.9888 11.6577 25.708 11.3037 25.708C10.9741 25.708 10.6812 25.9888 10.6812 26.3184C10.6812 26.6602 10.9741 26.9653 11.3037 26.9653ZM9.13086 26.3794C9.48486 26.3794 9.76562 26.0864 9.76562 25.7446C9.76562 25.415 9.48486 25.1221 9.13086 25.1221C8.80127 25.1221 8.49609 25.415 8.49609 25.7446C8.49609 26.0864 8.80127 26.3794 9.13086 26.3794ZM7.09229 25.4272C7.44629 25.4272 7.72705 25.1221 7.72705 24.7803C7.72705 24.4507 7.44629 24.1577 7.09229 24.1577C6.7627 24.1577 6.45752 24.4507 6.45752 24.7803C6.45752 25.1221 6.7627 25.4272 7.09229 25.4272ZM5.23682 24.1333C5.59082 24.1333 5.87158 23.8281 5.87158 23.4863C5.87158 23.1567 5.59082 22.8638 5.23682 22.8638C4.90723 22.8638 4.60205 23.1567 4.60205 23.4863C4.60205 23.8281 4.90723 24.1333 5.23682 24.1333ZM3.6377 22.5342C4.00391 22.5342 4.27246 22.2412 4.27246 21.8994C4.27246 21.5576 4.00391 21.2769 3.6377 21.2769C3.30811 21.2769 3.01514 21.5576 3.01514 21.8994C3.01514 22.2412 3.30811 22.5342 3.6377 22.5342ZM2.35596 20.6787C2.70996 20.6787 2.97852 20.3857 2.97852 20.0439C2.97852 19.7021 2.70996 19.4214 2.35596 19.4214C2.02637 19.4214 1.72119 19.7021 1.72119 20.0439C1.72119 20.3857 2.02637 20.6787 2.35596 20.6787ZM1.40381 18.6401C1.75781 18.6401 2.03857 18.3472 2.03857 17.9932C2.03857 17.6636 1.75781 17.3828 1.40381 17.3828C1.07422 17.3828 0.78125 17.6636 0.78125 17.9932C0.78125 18.3472 1.07422 18.6401 1.40381 18.6401ZM0.830078 16.4673C1.18408 16.4673 1.45264 16.1743 1.45264 15.8325C1.45264 15.4907 1.18408 15.21 0.830078 15.21C0.500488 15.21 0.195312 15.4907 0.195312 15.8325C0.195312 16.1743 0.500488 16.4673 0.830078 16.4673ZM0.634766 14.2334C0.98877 14.2334 1.25732 13.9526 1.25732 13.6108C1.25732 13.269 0.98877 12.9761 0.634766 12.9761C0.292969 12.9761 0 13.269 0 13.6108C0 13.9526 0.292969 14.2334 0.634766 14.2334ZM0.830078 11.9995C1.18408 11.9995 1.45264 11.7065 1.45264 11.377C1.45264 11.0229 1.18408 10.73 0.830078 10.73C0.500488 10.73 0.195312 11.0229 0.195312 11.377C0.195312 11.7065 0.500488 11.9995 0.830078 11.9995ZM1.40381 9.82666C1.75781 9.82666 2.03857 9.53369 2.03857 9.2041C2.03857 8.8623 1.75781 8.55713 1.40381 8.55713C1.07422 8.55713 0.78125 8.8623 0.78125 9.2041C0.78125 9.53369 1.07422 9.82666 1.40381 9.82666ZM2.35596 7.77588C2.70996 7.77588 2.97852 7.49512 2.97852 7.16553C2.97852 6.81152 2.70996 6.51855 2.35596 6.51855C2.02637 6.51855 1.72119 6.81152 1.72119 7.16553C1.72119 7.49512 2.02637 7.77588 2.35596 7.77588ZM23.4741 25.5493C23.8403 25.9033 24.4507 25.9155 24.8047 25.5493C25.1709 25.1709 25.1831 24.585 24.8047 24.2188L2.27051 1.68457C1.9043 1.31836 1.29395 1.31836 0.927734 1.68457C0.57373 2.03857 0.57373 2.66113 0.927734 3.01514Z" fill="#5ac8f5"/>
 </g>
</svg>
