<?xml version="1.0" encoding="UTF-8"?>
<!--Generator: Apple Native CoreSVG 175.5-->
<!DOCTYPE svg
PUBLIC "-//W3C//DTD SVG 1.1//EN"
       "http://www.w3.org/Graphics/SVG/1.1/DTD/svg11.dtd">
<svg version="1.1" xmlns="http://www.w3.org/2000/svg" xmlns:xlink="http://www.w3.org/1999/xlink" width="26.9043" height="26.9653">
 <g>
  <rect height="26.9653" opacity="0" width="26.9043" x="0" y="0"/>
  <path d="M7.25098 26.9653C7.72705 26.9653 8.08105 26.7212 8.65479 26.1841L13.0615 22.1558L21.3135 22.1558C24.9512 22.1558 26.9043 20.1538 26.9043 16.5771L26.9043 7.22656C26.9043 3.6499 24.9512 1.63574 21.3135 1.63574L5.59082 1.63574C1.95312 1.63574 0 3.6377 0 7.22656L0 16.5771C0 20.166 1.95312 22.1558 5.59082 22.1558L6.16455 22.1558L6.16455 25.708C6.16455 26.4648 6.55518 26.9653 7.25098 26.9653Z" fill="#5ac8f5" fill-opacity="0.25"/>
  <path d="M6.22559 11.5967C5.29785 11.5967 4.83398 11.1572 4.83398 10.2417L4.83398 7.73926C4.83398 6.83594 5.29785 6.39648 6.22559 6.39648L11.7432 6.39648C12.6465 6.39648 13.1104 6.83594 13.1104 7.73926L13.1104 10.2417C13.1104 11.1572 12.6465 11.5967 11.7432 11.5967ZM7.73926 17.395C6.83594 17.395 6.38428 16.9434 6.38428 16.0278L6.38428 14.3311C6.38428 13.4277 6.83594 12.9761 7.73926 12.9761L12.4878 12.9761C13.3911 12.9761 13.8428 13.4277 13.8428 14.3311L13.8428 16.0278C13.8428 16.9434 13.3911 17.395 12.4878 17.395ZM16.626 16.6382C15.7104 16.6382 15.2466 16.1987 15.2466 15.2832L15.2466 8.60596C15.2466 7.70264 15.7104 7.25098 16.626 7.25098L20.5444 7.25098C21.46 7.25098 21.9116 7.70264 21.9116 8.60596L21.9116 15.2832C21.9116 16.1987 21.46 16.6382 20.5444 16.6382Z" fill="#5ac8f5"/>
 </g>
</svg>
