<?xml version="1.0" encoding="UTF-8"?>
<!--Generator: Apple Native CoreSVG 175.5-->
<!DOCTYPE svg
PUBLIC "-//W3C//DTD SVG 1.1//EN"
       "http://www.w3.org/Graphics/SVG/1.1/DTD/svg11.dtd">
<svg version="1.1" xmlns="http://www.w3.org/2000/svg" xmlns:xlink="http://www.w3.org/1999/xlink" width="16.7358" height="29.2603">
 <g>
  <rect height="29.2603" opacity="0" width="16.7358" x="0" y="0"/>
  <path d="M4.27246 5.60303L12.4512 5.60303C13.7817 5.60303 14.5752 4.79736 14.5752 3.44238L14.5752 2.16064C14.5752 0.805664 13.7817 0 12.4512 0L4.27246 0C2.9541 0 2.16064 0.805664 2.16064 2.16064L2.16064 3.44238C2.16064 4.79736 2.9541 5.60303 4.27246 5.60303ZM4.43115 7.82471L12.3047 7.82471L12.3047 4.93164L4.43115 4.93164ZM3.94287 29.2236L12.793 29.2236C15.1733 29.2236 16.7358 27.6489 16.7358 25.2197L16.7358 11.377C16.7358 8.94775 15.1733 7.37305 12.793 7.37305L3.94287 7.37305C1.5625 7.37305 0 8.94775 0 11.377L0 25.2197C0 27.6489 1.5625 29.2236 3.94287 29.2236ZM3.66211 19.1895L3.66211 17.4072C3.66211 16.8701 4.01611 16.5405 4.52881 16.5405L6.604 16.5405L6.604 14.4775C6.604 13.9526 6.93359 13.6108 7.4707 13.6108L9.25293 13.6108C9.79004 13.6108 10.1196 13.9526 10.1196 14.4775L10.1196 16.5405L12.1948 16.5405C12.6953 16.5405 13.0737 16.8701 13.0737 17.4072L13.0737 19.1895C13.0737 19.7266 12.6953 20.0562 12.1948 20.0562L10.1196 20.0562L10.1196 22.1191C10.1196 22.644 9.79004 22.998 9.25293 22.998L7.4707 22.998C6.93359 22.998 6.604 22.644 6.604 22.1191L6.604 20.0562L4.52881 20.0562C4.01611 20.0562 3.66211 19.7266 3.66211 19.1895Z" fill="#5ac8f5"/>
 </g>
</svg>
