<?xml version="1.0" encoding="UTF-8"?>
<!--Generator: Apple Native CoreSVG 175.5-->
<!DOCTYPE svg
PUBLIC "-//W3C//DTD SVG 1.1//EN"
       "http://www.w3.org/Graphics/SVG/1.1/DTD/svg11.dtd">
<svg version="1.1" xmlns="http://www.w3.org/2000/svg" xmlns:xlink="http://www.w3.org/1999/xlink" width="28.9673" height="18.8843">
 <g>
  <rect height="18.8843" opacity="0" width="28.9673" x="0" y="0"/>
  <path d="M2.86865 18.8843L26.0986 18.8843C27.8198 18.8843 28.9673 17.7368 28.9673 16.0156L28.9673 2.88086C28.9673 1.15967 27.8198 0.012207 26.0986 0.012207L2.86865 0.012207C1.14746 0.012207 0 1.15967 0 2.88086L0 16.0156C0 17.7368 1.14746 18.8843 2.86865 18.8843ZM2.89307 16.9189C2.33154 16.9189 1.96533 16.5283 1.96533 15.9302L1.96533 2.96631C1.96533 2.36816 2.33154 1.97754 2.89307 1.97754L26.0742 1.97754C26.6357 1.97754 27.002 2.36816 27.002 2.96631L27.002 15.9302C27.002 16.5283 26.6357 16.9189 26.0742 16.9189ZM4.55322 15.4785L16.5649 15.4785C17.2607 15.4785 17.7124 15.0269 17.7124 14.3311L17.7124 4.56543C17.7124 3.86963 17.2607 3.41797 16.5649 3.41797L4.55322 3.41797C3.85742 3.41797 3.40576 3.86963 3.40576 4.56543L3.40576 14.3311C3.40576 15.0269 3.85742 15.4785 4.55322 15.4785ZM5.09033 14.1235C4.90723 14.1235 4.76074 13.9893 4.76074 13.7939L4.76074 5.10254C4.76074 4.90723 4.90723 4.77295 5.09033 4.77295L16.0278 4.77295C16.2109 4.77295 16.3574 4.90723 16.3574 5.10254L16.3574 13.7939C16.3574 13.9893 16.2109 14.1235 16.0278 14.1235ZM19.2871 17.8345L20.6421 17.8345L20.6421 1.0498L19.2871 1.0498ZM20.0317 13.7817L28.0029 13.7817L28.0029 12.4268L20.0317 12.4268ZM22.0581 5.79834L25.5859 5.79834C25.708 5.79834 25.8179 5.70068 25.8179 5.57861L25.8179 3.6499C25.8179 3.52783 25.708 3.41797 25.5859 3.41797L22.0581 3.41797C21.936 3.41797 21.8262 3.52783 21.8262 3.6499L21.8262 5.57861C21.8262 5.70068 21.936 5.79834 22.0581 5.79834ZM22.4487 7.83691L25.1953 7.83691C25.5615 7.83691 25.8179 7.59277 25.8179 7.22656C25.8179 6.84814 25.5615 6.604 25.1953 6.604L22.4487 6.604C22.0825 6.604 21.8262 6.84814 21.8262 7.22656C21.8262 7.59277 22.0825 7.83691 22.4487 7.83691ZM22.4487 9.8999L25.1953 9.8999C25.5615 9.8999 25.8179 9.64355 25.8179 9.27734C25.8179 8.91113 25.5615 8.66699 25.1953 8.66699L22.4487 8.66699C22.0825 8.66699 21.8262 8.91113 21.8262 9.27734C21.8262 9.64355 22.0825 9.8999 22.4487 9.8999Z" fill="#5ac8f5"/>
 </g>
</svg>
