<?xml version="1.0" encoding="UTF-8"?>
<!--Generator: Apple Native CoreSVG 175.5-->
<!DOCTYPE svg
PUBLIC "-//W3C//DTD SVG 1.1//EN"
       "http://www.w3.org/Graphics/SVG/1.1/DTD/svg11.dtd">
<svg version="1.1" xmlns="http://www.w3.org/2000/svg" xmlns:xlink="http://www.w3.org/1999/xlink" width="24.8169" height="35.7788">
 <g>
  <rect height="35.7788" opacity="0" width="24.8169" x="0" y="0"/>
  <path d="M6.39648 31.4453C9.91211 31.4453 12.7563 28.5889 12.7563 25.0732C12.7563 23.2178 11.9995 21.5942 10.5347 20.2759C10.2783 20.0317 10.2173 19.8975 10.2173 19.5312L10.2295 8.49609C10.2295 6.01807 8.66699 4.32129 6.39648 4.32129C4.10156 4.32129 2.52686 6.01807 2.52686 8.49609L2.53906 19.5312C2.53906 19.8975 2.49023 20.0317 2.22168 20.2759C0.769043 21.5942 0 23.2178 0 25.0732C0 28.5889 2.85645 31.4453 6.39648 31.4453ZM6.39648 29.6753C3.84521 29.6753 1.79443 27.6001 1.79443 25.0732C1.79443 23.5474 2.51465 22.168 3.80859 21.3013C4.18701 21.0449 4.3335 20.813 4.3335 20.3125L4.3335 8.56934C4.3335 7.10449 5.17578 6.11572 6.39648 6.11572C7.59277 6.11572 8.43506 7.10449 8.43506 8.56934L8.43506 20.3125C8.43506 20.813 8.58154 21.0449 8.95996 21.3013C10.2539 22.168 10.9741 23.5474 10.9741 25.0732C10.9741 27.6001 8.91113 29.6753 6.39648 29.6753Z" fill="#5ac8f5" fill-opacity="0.25"/>
  <path d="M6.38428 28.0273C8.02002 28.0273 9.33838 26.6968 9.33838 25.061C9.33838 23.9136 8.69141 22.9736 7.75146 22.4609C7.36084 22.2534 7.22656 22.1069 7.22656 21.5088L7.22656 9.60693C7.22656 9.021 6.84814 8.64258 6.38428 8.64258C5.9082 8.64258 5.54199 9.021 5.54199 9.60693L5.54199 21.5088C5.54199 22.1069 5.40771 22.2534 5.01709 22.4609C4.07715 22.9736 3.43018 23.9136 3.43018 25.061C3.43018 26.709 4.74854 28.0273 6.38428 28.0273Z" fill="#5ac8f5"/>
  <path d="M12.207 4.66309C12.7686 4.66309 13.2202 4.19922 13.2202 3.6499L13.2202 1.01318C13.2202 0.45166 12.7686 0 12.207 0C11.6455 0 11.1938 0.45166 11.1938 1.01318L11.1938 3.6499C11.1938 4.19922 11.6455 4.66309 12.207 4.66309ZM17.8467 7.01904C18.2251 7.40967 18.8843 7.42188 19.2871 7.01904L21.1426 5.13916C21.5454 4.74854 21.5332 4.10156 21.1426 3.71094C20.7642 3.32031 20.1294 3.32031 19.7266 3.71094L17.8467 5.60303C17.4561 5.99365 17.4683 6.62842 17.8467 7.01904ZM21.1792 13.6719L23.8159 13.6719C24.3652 13.6719 24.8169 13.208 24.8169 12.6587C24.8169 12.0972 24.3652 11.6455 23.8159 11.6455L21.1792 11.6455C20.6299 11.6455 20.166 12.0972 20.166 12.6587C20.166 13.208 20.6299 13.6719 21.1792 13.6719ZM19.7266 21.6187C20.1294 22.0093 20.7642 21.9971 21.1426 21.6064C21.5332 21.2158 21.5454 20.5688 21.1426 20.1904L19.2627 18.3105C18.8721 17.9321 18.2373 17.9199 17.8467 18.3105C17.4561 18.7012 17.4561 19.3481 17.8467 19.7388ZM12.207 18.7012C15.564 18.7012 18.2373 16.0156 18.2373 12.6587C18.2373 9.28955 15.564 6.604 12.207 6.604C11.9263 6.604 11.6699 6.64062 11.4014 6.70166C11.5723 7.27539 11.6577 7.89795 11.6577 8.56934L11.6455 18.6401C11.8286 18.689 12.0117 18.7012 12.207 18.7012Z" fill="#5ac8f5" fill-opacity="0.5"/>
 </g>
</svg>
