<?xml version="1.0" encoding="UTF-8"?>
<!--Generator: Apple Native CoreSVG 175.5-->
<!DOCTYPE svg
PUBLIC "-//W3C//DTD SVG 1.1//EN"
       "http://www.w3.org/Graphics/SVG/1.1/DTD/svg11.dtd">
<svg version="1.1" xmlns="http://www.w3.org/2000/svg" xmlns:xlink="http://www.w3.org/1999/xlink" width="15.686" height="25.8667">
 <g>
  <rect height="25.8667" opacity="0" width="15.686" x="0" y="0"/>
  <path d="M0 22.6685C0 24.5728 1.33057 25.8423 3.32031 25.8423L12.3657 25.8423C14.3555 25.8423 15.686 24.5728 15.686 22.6685L15.686 3.17383C15.686 1.26953 14.3555 0 12.3657 0L3.32031 0C1.33057 0 0 1.26953 0 3.17383ZM1.96533 22.3511L1.96533 3.49121C1.96533 2.51465 2.53906 1.96533 3.57666 1.96533L12.1216 1.96533C13.147 1.96533 13.7207 2.51465 13.7207 3.49121L13.7207 22.3511C13.7207 23.3276 13.147 23.877 12.1216 23.877L3.57666 23.877C2.53906 23.877 1.96533 23.3276 1.96533 22.3511Z" fill="#5ac8f5" fill-opacity="0.5"/>
  <path d="M5.78613 17.0654L9.92432 17.0654C10.5835 17.0654 10.9131 16.7236 10.9131 16.0278L10.9131 12.854C10.9131 12.3047 10.7056 11.9873 10.3027 11.853L10.3027 11.0229C10.3027 9.375 9.31396 8.25195 7.84912 8.25195C6.38428 8.25195 5.39551 9.375 5.39551 11.0229L5.39551 11.8652C4.99268 11.9873 4.78516 12.3047 4.78516 12.854L4.78516 16.0278C4.78516 16.7236 5.11475 17.0654 5.78613 17.0654ZM6.604 11.8042L6.604 10.9131C6.604 10.0098 7.09229 9.42383 7.84912 9.42383C8.59375 9.42383 9.09424 10.0098 9.09424 10.9131L9.09424 11.8042Z" fill="#5ac8f5"/>
 </g>
</svg>
