<?xml version="1.0" encoding="UTF-8"?>
<!--Generator: Apple Native CoreSVG 175.5-->
<!DOCTYPE svg
PUBLIC "-//W3C//DTD SVG 1.1//EN"
       "http://www.w3.org/Graphics/SVG/1.1/DTD/svg11.dtd">
<svg version="1.1" xmlns="http://www.w3.org/2000/svg" xmlns:xlink="http://www.w3.org/1999/xlink" width="28.7842" height="22.4976">
 <g>
  <rect height="22.4976" opacity="0" width="28.7842" x="0" y="0"/>
  <path d="M3.83301 22.4976L24.9512 22.4976C27.5146 22.4976 28.7842 21.228 28.7842 18.7134L28.7842 3.80859C28.7842 1.29395 27.5146 0.0244141 24.9512 0.0244141L3.83301 0.0244141C1.28174 0.0244141 0 1.28174 0 3.80859L0 18.7134C0 21.2402 1.28174 22.4976 3.83301 22.4976ZM3.85742 20.5322C2.63672 20.5322 1.96533 19.8853 1.96533 18.6157L1.96533 3.90625C1.96533 2.63672 2.63672 1.98975 3.85742 1.98975L24.9268 1.98975C26.1353 1.98975 26.8188 2.63672 26.8188 3.90625L26.8188 18.6157C26.8188 19.8853 26.1353 20.5322 24.9268 20.5322ZM5.37109 14.1602L12.1094 14.1602C12.7563 14.1602 13.1958 13.7207 13.1958 13.0493L13.1958 9.47266C13.1958 8.78906 12.7563 8.36182 12.1094 8.36182L5.37109 8.36182C4.71191 8.36182 4.28467 8.78906 4.28467 9.47266L4.28467 13.0493C4.28467 13.7207 4.71191 14.1602 5.37109 14.1602ZM16.4307 14.1602L23.1812 14.1602C23.8281 14.1602 24.2676 13.7207 24.2676 13.0493L24.2676 9.47266C24.2676 8.78906 23.8281 8.36182 23.1812 8.36182L16.4307 8.36182C15.7837 8.36182 15.3442 8.78906 15.3442 9.47266L15.3442 13.0493C15.3442 13.7207 15.7837 14.1602 16.4307 14.1602Z" fill="#5ac8f5"/>
 </g>
</svg>
