<?xml version="1.0" encoding="UTF-8"?>
<!--Generator: Apple Native CoreSVG 175.5-->
<!DOCTYPE svg
PUBLIC "-//W3C//DTD SVG 1.1//EN"
       "http://www.w3.org/Graphics/SVG/1.1/DTD/svg11.dtd">
<svg version="1.1" xmlns="http://www.w3.org/2000/svg" xmlns:xlink="http://www.w3.org/1999/xlink" width="24.9023" height="24.9146">
 <g>
  <rect height="24.9146" opacity="0" width="24.9023" x="0" y="0"/>
  <path d="M12.9639 21.7163C15.21 21.7163 17.1265 18.2373 17.627 17.4072C18.2495 16.4062 17.9565 15.4053 17.9565 14.7827C17.9565 14.3433 19.2505 13.4155 19.2505 12.3535C19.2505 11.2793 16.748 10.4248 16.748 9.81445C16.748 9.42383 17.041 9.08203 17.3584 9.08203C17.8955 9.08203 19.2139 10.7788 19.9585 10.7788C20.4468 10.7788 20.4834 10.3516 20.752 10.3516C21.3745 10.3516 21.4722 13.855 23.3887 14.6851C23.9136 14.0747 24.231 13.3789 24.231 12.4512C24.231 6.09131 18.9453 0.65918 12.439 0.671387C8.81348 0.683594 7.4707 2.0752 7.4707 3.2959C7.4707 4.89502 6.16455 5.26123 6.16455 6.22559C6.16455 6.83594 6.5918 7.23877 7.25098 7.23877C8.66699 7.23877 8.65479 5.70068 9.375 5.70068C9.91211 5.71289 10.4126 6.51855 11.3037 6.51855C11.7065 6.51855 11.9019 6.26221 11.9263 5.896C11.9507 5.7373 12.0239 5.66406 12.1704 5.66406C12.9517 5.66406 13.8184 6.54297 13.8184 7.08008C13.8184 7.59277 13.623 7.9834 13.3057 7.9834C12.7563 7.9834 11.3892 7.33643 10.1685 7.33643C7.43408 7.33643 5.15137 9.27734 5.15137 11.5967C5.15137 13.6108 6.33545 14.7827 8.41064 14.7827C9.66797 14.7827 10.5957 15.6372 10.5957 16.7969C10.5957 18.6035 10.4004 21.7163 12.9639 21.7163ZM16.04 5.09033C15.5884 5.09033 15.4053 5.32227 15.0146 5.32227C14.6362 5.32227 14.3555 5.05371 14.3555 4.67529C14.3555 4.08936 14.9414 3.75977 15.9424 3.75977C16.7969 3.75977 17.4438 4.19922 17.4438 4.77295C17.4438 5.09033 17.2363 5.34668 16.9678 5.34668C16.5283 5.34668 16.2964 5.09033 16.04 5.09033ZM12.4512 24.9023C19.2627 24.9023 24.9023 19.2505 24.9023 12.4512C24.9023 5.63965 19.2505 0 12.439 0C5.63965 0 0 5.63965 0 12.4512C0 19.2505 5.65186 24.9023 12.4512 24.9023ZM12.4512 23.2422C6.55518 23.2422 1.66016 18.3472 1.66016 12.4512C1.66016 6.55518 6.54297 1.66016 12.439 1.66016C18.335 1.66016 23.2422 6.55518 23.2422 12.4512C23.2422 18.3472 18.3472 23.2422 12.4512 23.2422Z" fill="#5ac8f5"/>
 </g>
</svg>
