<?xml version="1.0" encoding="UTF-8"?>
<!--Generator: Apple Native CoreSVG 175.5-->
<!DOCTYPE svg
PUBLIC "-//W3C//DTD SVG 1.1//EN"
       "http://www.w3.org/Graphics/SVG/1.1/DTD/svg11.dtd">
<svg version="1.1" xmlns="http://www.w3.org/2000/svg" xmlns:xlink="http://www.w3.org/1999/xlink" width="24.9023" height="24.9146">
 <g>
  <rect height="24.9146" opacity="0" width="24.9023" x="0" y="0"/>
  <path d="M12.4512 24.9023C19.2627 24.9023 24.9023 19.2505 24.9023 12.4512C24.9023 5.63965 19.2505 0 12.439 0C5.63965 0 0 5.63965 0 12.4512C0 19.2505 5.65186 24.9023 12.4512 24.9023ZM7.03125 12.207C7.03125 11.8408 7.31201 11.5845 7.65381 11.5845L8.21533 11.5845L7.60498 7.65381C7.58057 7.53174 7.54395 7.40967 7.54395 7.26318C7.54395 6.81152 7.89795 6.53076 8.36182 6.53076C8.76465 6.53076 9.10645 6.7627 9.16748 7.20215L9.70459 11.5845L10.7788 11.5845L11.4868 7.36084C11.5723 6.82373 11.9629 6.53076 12.439 6.53076C12.8906 6.53076 13.3179 6.82373 13.3911 7.34863L14.1113 11.5723L15.21 11.5723L15.7715 7.18994C15.8325 6.75049 16.1743 6.51855 16.5649 6.51855C17.0166 6.51855 17.3584 6.78711 17.3584 7.22656C17.3584 7.37305 17.334 7.4707 17.3096 7.59277L16.687 11.5723L17.2363 11.5723C17.5903 11.5723 17.8589 11.8286 17.8589 12.1948C17.8589 12.5366 17.5903 12.8296 17.2363 12.8296L16.4795 12.8296L15.686 17.9199C15.6128 18.4204 15.2344 18.7012 14.7949 18.7012C14.3311 18.7012 13.9648 18.4448 13.8794 17.9321L13.0127 12.8296L11.8896 12.8296L11.0474 17.9321C10.9619 18.4448 10.5957 18.7012 10.1318 18.7012C9.68018 18.7012 9.31396 18.4204 9.24072 17.9199L8.42285 12.8418L7.65381 12.8418C7.31201 12.8418 7.03125 12.5488 7.03125 12.207ZM9.87549 12.8174L10.1685 15.7715L10.5957 12.8174ZM12.1094 11.5845L12.8174 11.5845L12.4512 9.11865ZM14.2944 12.8174L14.7461 15.8447L15.0757 12.8174Z" fill="#5ac8f5"/>
 </g>
</svg>
