<?xml version="1.0" encoding="UTF-8"?>
<!--Generator: Apple Native CoreSVG 175.5-->
<!DOCTYPE svg
PUBLIC "-//W3C//DTD SVG 1.1//EN"
       "http://www.w3.org/Graphics/SVG/1.1/DTD/svg11.dtd">
<svg version="1.1" xmlns="http://www.w3.org/2000/svg" xmlns:xlink="http://www.w3.org/1999/xlink" width="30.6885" height="23.2056">
 <g>
  <rect height="23.2056" opacity="0" width="30.6885" x="0" y="0"/>
  <path d="M24.1211 21.2158C27.8076 21.2158 30.6885 18.5181 30.6885 15.1611C30.6885 12.5977 29.2114 10.376 26.8311 9.375C26.8555 3.93066 22.937 0 17.9443 0C14.6362 0 12.2803 1.77002 10.8154 3.90625C7.8125 3.02734 4.54102 5.31006 4.47998 8.72803C1.72119 9.16748 0 11.6333 0 14.6118C0 18.2007 3.13721 21.2158 7.31201 21.2158ZM24.1211 19.2505L7.31201 19.2505C4.23584 19.2505 1.96533 17.1021 1.96533 14.6118C1.96533 12.1704 3.44238 10.2295 6.03027 10.2295C6.20117 10.2295 6.26221 10.144 6.26221 9.98535C6.26221 6.22559 8.97217 5.11475 11.4746 5.93262C11.6211 5.98145 11.7065 5.94482 11.7798 5.81055C12.9639 3.69873 14.7827 1.96533 17.9443 1.96533C21.9482 1.96533 24.7192 5.13916 24.9268 8.76465C24.9634 9.32617 24.9268 9.98535 24.8779 10.5591C24.8657 10.7178 24.9268 10.8032 25.0732 10.8398C27.2949 11.3281 28.7231 12.9517 28.7231 15.1611C28.7231 17.4316 26.7212 19.2505 24.1211 19.2505Z" fill="#5ac8f5" fill-opacity="0.5"/>
  <path d="M11.3892 15.918C11.3892 16.748 11.7554 17.1265 12.5122 17.1265L18.1885 17.1265C18.9453 17.1265 19.3115 16.748 19.3115 15.918L19.3115 11.5601C19.3115 10.8032 18.9941 10.4126 18.3472 10.376L18.3472 9.08203C18.3472 7.06787 17.1387 5.71289 15.3564 5.71289C13.562 5.71289 12.3535 7.06787 12.3535 9.08203L12.3535 10.376C11.7065 10.4126 11.3892 10.8032 11.3892 11.5601ZM13.501 10.3638L13.501 8.95996C13.501 7.67822 14.2456 6.82373 15.3564 6.82373C16.4551 6.82373 17.1997 7.67822 17.1997 8.95996L17.1997 10.3638Z" fill="#5ac8f5"/>
 </g>
</svg>
