<?xml version="1.0" encoding="UTF-8"?>
<!--Generator: Apple Native CoreSVG 175.5-->
<!DOCTYPE svg
PUBLIC "-//W3C//DTD SVG 1.1//EN"
       "http://www.w3.org/Graphics/SVG/1.1/DTD/svg11.dtd">
<svg version="1.1" xmlns="http://www.w3.org/2000/svg" xmlns:xlink="http://www.w3.org/1999/xlink" width="22.5368" height="28.0396">
 <g>
  <rect height="28.0396" opacity="0" width="22.5368" x="0" y="0"/>
  <path d="M11.2711 16.4062L14.213 21.0205L16.4103 27.0752C16.6544 27.7466 17.3014 27.9663 17.8507 27.7588C18.4366 27.5635 18.7418 26.8921 18.5221 26.3184L16.3004 20.2026L14.0909 14.1357L14.0909 8.63037C14.0909 8.37402 14.2252 8.14209 14.4572 8.02002L21.9401 4.02832C22.4894 3.73535 22.6969 3.06396 22.4039 2.50244C22.111 1.95312 21.4396 1.75781 20.8903 2.05078L13.6637 5.87158C12.858 6.29883 12.0646 6.49414 11.2711 6.49414C10.4777 6.49414 9.6842 6.29883 8.87854 5.87158L1.65198 2.05078C1.10266 1.75781 0.431275 1.95312 0.138306 2.50244C-0.166869 3.06396 0.0528571 3.73535 0.602173 4.02832L8.08508 8.02002C8.31702 8.14209 8.45129 8.37402 8.45129 8.63037L8.45129 14.1357L6.24182 20.2026L4.02014 26.3184C3.80042 26.8921 4.10559 27.5635 4.67932 27.7588C5.24085 27.9663 5.88782 27.7466 6.13196 27.0752L8.32922 21.0205ZM11.2711 5.22461C12.6993 5.22461 13.859 4.05273 13.859 2.6001C13.859 1.17188 12.6993 0 11.2711 0C9.81848 0 8.64661 1.17188 8.64661 2.6001C8.64661 4.05273 9.81848 5.22461 11.2711 5.22461Z" fill="#5ac8f5"/>
 </g>
</svg>
