<?xml version="1.0" encoding="UTF-8"?>
<!--Generator: Apple Native CoreSVG 175.5-->
<!DOCTYPE svg
PUBLIC "-//W3C//DTD SVG 1.1//EN"
       "http://www.w3.org/Graphics/SVG/1.1/DTD/svg11.dtd">
<svg version="1.1" xmlns="http://www.w3.org/2000/svg" xmlns:xlink="http://www.w3.org/1999/xlink" width="24.9023" height="24.9146">
 <g>
  <rect height="24.9146" opacity="0" width="24.9023" x="0" y="0"/>
  <path d="M12.4512 24.9023C19.2627 24.9023 24.9023 19.2505 24.9023 12.4512C24.9023 5.63965 19.2505 0 12.439 0C5.63965 0 0 5.63965 0 12.4512C0 19.2505 5.65186 24.9023 12.4512 24.9023Z" fill="#5ac8f5" fill-opacity="0.25"/>
  <path d="M7.20215 18.811C6.35986 19.2139 5.71289 18.5547 6.10352 17.7246L9.64355 10.498C9.85107 10.0708 10.1196 9.80225 10.5103 9.61914L17.7124 6.10352C18.6035 5.67627 19.2261 6.33545 18.811 7.18994L15.2954 14.4043C15.1001 14.7949 14.8193 15.0879 14.4165 15.271ZM12.4634 14.0137C13.3179 14.0137 14.0137 13.3179 14.0137 12.4634C14.0137 11.6089 13.3179 10.9253 12.4634 10.9253C11.6211 10.9253 10.9253 11.6089 10.9253 12.4634C10.9253 13.3179 11.6211 14.0137 12.4634 14.0137Z" fill="#5ac8f5"/>
 </g>
</svg>
