<?xml version="1.0" encoding="UTF-8"?>
<!--Generator: Apple Native CoreSVG 175.5-->
<!DOCTYPE svg
PUBLIC "-//W3C//DTD SVG 1.1//EN"
       "http://www.w3.org/Graphics/SVG/1.1/DTD/svg11.dtd">
<svg version="1.1" xmlns="http://www.w3.org/2000/svg" xmlns:xlink="http://www.w3.org/1999/xlink" width="28.7842" height="22.4731">
 <g>
  <rect height="22.4731" opacity="0" width="28.7842" x="0" y="0"/>
  <path d="M3.83301 22.4731L24.9512 22.4731C27.5146 22.4731 28.7842 21.2158 28.7842 18.7012L28.7842 3.78418C28.7842 1.26953 27.5146 0 24.9512 0L3.83301 0C1.28174 0 0 1.26953 0 3.78418L0 18.7012C0 21.2158 1.28174 22.4731 3.83301 22.4731ZM3.85742 20.5078C2.63672 20.5078 1.96533 19.8608 1.96533 18.5913L1.96533 3.89404C1.96533 2.62451 2.63672 1.96533 3.85742 1.96533L24.9268 1.96533C26.1353 1.96533 26.8188 2.62451 26.8188 3.89404L26.8188 18.5913C26.8188 19.8608 26.1353 20.5078 24.9268 20.5078Z" fill="#5ac8f5" fill-opacity="0.5"/>
  <path d="M1.97754 12.3047L4.90723 12.3047C5.40771 12.3047 5.63965 12.0728 5.81055 11.6455L7.36084 7.89795L10.1929 16.9922C10.4004 17.6636 11.4868 17.6514 11.7065 16.9556L13.1836 12.3047L16.0645 12.3047C16.5649 12.3047 16.7847 12.0728 16.9678 11.6455L18.5669 7.89795L21.4111 16.9922C21.6187 17.6636 22.7051 17.6514 22.9126 16.9556L24.4019 12.3047L26.8311 12.3047L26.8311 10.73L23.9624 10.73C23.4619 10.73 23.2056 10.9741 23.0591 11.3892L22.1558 13.9404L19.3115 5.34668C19.0918 4.6875 18.103 4.6875 17.8223 5.3833L15.625 10.73L12.7441 10.73C12.2559 10.73 11.9995 10.9741 11.8408 11.3892L10.9375 13.9404L8.09326 5.34668C7.88574 4.6875 6.88477 4.6875 6.604 5.3833L4.40674 10.73L1.97754 10.73Z" fill="#5ac8f5"/>
 </g>
</svg>
