<?xml version="1.0" encoding="UTF-8"?>
<!--Generator: Apple Native CoreSVG 175.5-->
<!DOCTYPE svg
PUBLIC "-//W3C//DTD SVG 1.1//EN"
       "http://www.w3.org/Graphics/SVG/1.1/DTD/svg11.dtd">
<svg version="1.1" xmlns="http://www.w3.org/2000/svg" xmlns:xlink="http://www.w3.org/1999/xlink" width="24.9023" height="24.9146">
 <g>
  <rect height="24.9146" opacity="0" width="24.9023" x="0" y="0"/>
  <path d="M12.4512 24.9023C19.2627 24.9023 24.9023 19.2505 24.9023 12.4512C24.9023 5.63965 19.2505 0 12.439 0C5.63965 0 0 5.63965 0 12.4512C0 19.2505 5.65186 24.9023 12.4512 24.9023ZM12.4512 22.8271C6.68945 22.8271 2.0874 18.2129 2.0874 12.4512C2.0874 6.68945 6.67725 2.0752 12.439 2.0752C18.2007 2.0752 22.8271 6.68945 22.8271 12.4512C22.8271 18.2129 18.2129 22.8271 12.4512 22.8271Z" fill="#5ac8f5" fill-opacity="0.5"/>
  <path d="M12.439 17.041C14.9658 17.041 17.041 14.9536 17.041 12.4512C17.041 9.93652 14.9658 7.86133 12.439 7.86133C9.94873 7.86133 7.86133 9.93652 7.86133 12.4512C7.86133 14.9536 9.94873 17.041 12.439 17.041ZM14.624 5.57861L12.9395 3.4668C12.6953 3.14941 12.2559 3.14941 11.9873 3.4668L10.2905 5.57861C9.8999 6.05469 10.1318 6.66504 10.7666 6.66504L14.1479 6.66504C14.7705 6.66504 15.0024 6.03027 14.624 5.57861ZM19.3359 14.624L21.4478 12.9395C21.7651 12.6953 21.7651 12.2437 21.4478 11.9873L19.3359 10.2905C18.8599 9.8999 18.2495 10.1196 18.2495 10.7666L18.2495 14.1357C18.2495 14.7583 18.8843 14.9902 19.3359 14.624ZM14.624 19.3359C15.0024 18.8843 14.7705 18.2495 14.1479 18.2495L10.7666 18.2495C10.1318 18.2495 9.8999 18.8599 10.2905 19.3359L11.9873 21.4478C12.2559 21.7651 12.6953 21.7651 12.9395 21.4478ZM5.57861 14.624C6.04248 14.9902 6.66504 14.7583 6.66504 14.1357L6.66504 10.7666C6.66504 10.1196 6.06689 9.8999 5.57861 10.2905L3.4668 11.9873C3.14941 12.2437 3.14941 12.6953 3.4668 12.9395Z" fill="#5ac8f5"/>
 </g>
</svg>
