<?xml version="1.0" encoding="UTF-8"?>
<!--Generator: Apple Native CoreSVG 175.5-->
<!DOCTYPE svg
PUBLIC "-//W3C//DTD SVG 1.1//EN"
       "http://www.w3.org/Graphics/SVG/1.1/DTD/svg11.dtd">
<svg version="1.1" xmlns="http://www.w3.org/2000/svg" xmlns:xlink="http://www.w3.org/1999/xlink" width="41.0767" height="24.353">
 <g>
  <rect height="24.353" opacity="0" width="41.0767" x="0" y="0"/>
  <path d="M15.0024 22.6929C20.1782 22.6929 20.7031 19.3848 25.8545 19.3848C31.604 19.3848 31.3965 16.5283 35.3149 16.5283C38.6108 16.5283 41.0767 15.3809 41.0767 13.1104C41.0767 8.25195 38.2812 5.66406 35.0586 5.66406C31.7261 5.66406 29.9561 7.76367 29.248 10.5225C28.8452 12.0239 28.1372 12.9639 27.063 13.501L26.2939 12.085C23.0591 6.12793 20.0806 3.72314 15.1733 3.71094C9.87549 3.72314 7.17773 6.03027 3.22266 13.501C2.02637 15.7837 0 16.2842 0 17.7124C0 18.7134 0.769043 19.3848 2.31934 19.3848C2.79541 19.3848 3.33252 19.3848 3.86963 19.3848C9.52148 19.3848 10.6323 22.6929 15.0024 22.6929ZM15.0024 20.752C11.1084 20.752 9.97314 17.4194 4.28467 17.4194C3.66211 17.4194 3.02734 17.4316 2.45361 17.4683L2.35596 17.2974C3.18604 16.6016 4.22363 15.7227 4.96826 14.2578C8.36182 7.69043 10.6201 5.66406 15.1733 5.65186C20.1538 5.66406 22.3999 9.021 24.7192 13.1348C25.5615 14.6362 26.6357 16.3452 27.7222 17.4194C27.2217 17.4316 26.6479 17.4194 26.062 17.4194C20.2881 17.4194 19.2627 20.752 15.0024 20.752ZM29.6997 16.8823C29.1504 16.4551 28.4912 15.6494 28.1128 14.9658C29.4312 14.4653 30.3223 13.5742 30.8594 11.4868C31.4453 8.97217 32.7759 7.50732 35.0586 7.50732C37.3779 7.50732 39.3188 9.65576 39.3188 12.8174C39.3188 13.9893 37.5366 14.7461 35.6812 14.7461C32.6294 14.7461 31.2622 15.8813 29.6997 16.8823ZM35.5225 12.0361C36.1206 12.0361 36.6211 11.5356 36.6211 10.9375C36.6211 10.3394 36.1206 9.83887 35.5225 9.83887C34.9121 9.83887 34.4116 10.3394 34.4116 10.9375C34.4116 11.5356 34.9121 12.0361 35.5225 12.0361ZM15.0269 13.5376C19.0796 13.5376 22.1069 11.7432 24.1089 9.76562L23.2056 8.44727C21.0449 10.6812 18.2739 11.9629 15.0269 11.9629C11.7798 11.9629 9.0332 10.7178 6.88477 8.44727L5.99365 9.79004C7.87354 11.6943 10.8765 13.5376 15.0269 13.5376ZM9.27734 19.5923C10.7666 17.9199 11.9141 15.1001 12.1338 12.9639L10.8032 12.5122C10.6201 14.3921 9.39941 17.395 7.91016 18.9331ZM20.9717 19.5679L22.3755 18.9209C20.8252 17.3218 19.6533 14.4531 19.4946 12.5122L18.1396 12.8906C18.2739 15.1123 19.4336 17.9199 20.9717 19.5679ZM3.58887 24.3286C6.06689 24.3286 8.63037 23.2056 10.5957 21.0449L9.05762 20.0562C7.03125 21.875 5.22461 22.6929 3.61328 22.6929C2.53906 22.6929 1.98975 22.3511 1.98975 21.7651C1.98975 21.3257 2.30713 21.0327 3.24707 20.8008C3.94287 20.6177 6.03027 19.9585 7.06787 19.3359L5.56641 18.75C4.5166 19.2261 3.16162 19.4336 2.06299 19.8364C0.915527 20.2393 0.170898 20.8496 0.170898 22.0215C0.170898 23.5107 1.64795 24.3286 3.58887 24.3286ZM26.355 24.353C28.2837 24.353 29.7729 23.5474 29.7729 22.0581C29.7729 20.6421 28.7109 20.0562 27.2827 19.6655C26.2939 19.397 25.2441 19.1772 24.3774 18.7866L22.876 19.3604C23.9136 19.9951 26.001 20.6543 26.6968 20.8374C27.6245 21.0693 27.9541 21.3623 27.9541 21.8018C27.9541 22.3755 27.4048 22.7173 26.3306 22.7173C24.707 22.7173 22.9126 21.9116 20.8862 20.0928L19.3359 21.0815C21.2646 23.1934 23.8647 24.353 26.355 24.353Z" fill="#5ac8f5"/>
 </g>
</svg>
