<?xml version="1.0" encoding="UTF-8"?>
<!--Generator: Apple Native CoreSVG 175.5-->
<!DOCTYPE svg
PUBLIC "-//W3C//DTD SVG 1.1//EN"
       "http://www.w3.org/Graphics/SVG/1.1/DTD/svg11.dtd">
<svg version="1.1" xmlns="http://www.w3.org/2000/svg" xmlns:xlink="http://www.w3.org/1999/xlink" width="24.9023" height="24.9146">
 <g>
  <rect height="24.9146" opacity="0" width="24.9023" x="0" y="0"/>
  <path d="M12.4512 24.9146C19.2627 24.9146 24.9023 19.2749 24.9023 12.4634C24.9023 5.66406 19.2505 0.012207 12.439 0.012207C5.63965 0.012207 0 5.66406 0 12.4634C0 19.2749 5.65186 24.9146 12.4512 24.9146ZM8.39844 14.1479C6.604 14.1479 5.56641 12.9883 5.56641 11.5723C5.56641 10.3027 6.39648 9.35059 7.48291 9.0332C7.69043 6.78711 9.57031 4.99268 11.8286 4.99268C13.5742 4.99268 14.9658 5.98145 15.7349 7.4585C17.7734 7.4585 19.3481 8.8623 19.3481 10.791C19.3481 12.6465 17.8467 14.1479 15.8936 14.1479ZM8.25195 17.7246C8.08105 18.0054 7.73926 18.103 7.4585 17.9321C7.17773 17.7856 7.08008 17.4194 7.25098 17.1509L8.14209 15.6128C8.30078 15.332 8.64258 15.2466 8.92334 15.3931C9.2041 15.564 9.28955 15.918 9.14307 16.1865ZM10.022 19.6655C9.86328 19.9341 9.52148 20.0439 9.25293 19.8853C8.95996 19.7266 8.87451 19.3726 9.021 19.0918L11.0474 15.6128C11.2183 15.3198 11.5601 15.2466 11.8164 15.3931C12.1094 15.564 12.1948 15.9058 12.0483 16.1865ZM14.0381 17.7246C13.8794 18.0054 13.5376 18.103 13.269 17.9321C12.9761 17.7856 12.8906 17.4194 13.0493 17.1509L13.9526 15.6128C14.0991 15.332 14.4531 15.2466 14.7217 15.3931C15.0146 15.564 15.1001 15.918 14.9292 16.1865ZM15.8203 19.6655C15.6616 19.9341 15.3076 20.0439 15.0513 19.8853C14.7583 19.7266 14.6729 19.3726 14.8315 19.0918L16.8457 15.6128C17.0044 15.3198 17.3462 15.2466 17.627 15.3931C17.9077 15.564 18.0054 15.9058 17.8467 16.1865Z" fill="#5ac8f5"/>
 </g>
</svg>
