<?xml version="1.0" encoding="UTF-8"?>
<!--Generator: Apple Native CoreSVG 175.5-->
<!DOCTYPE svg
PUBLIC "-//W3C//DTD SVG 1.1//EN"
       "http://www.w3.org/Graphics/SVG/1.1/DTD/svg11.dtd">
<svg version="1.1" xmlns="http://www.w3.org/2000/svg" xmlns:xlink="http://www.w3.org/1999/xlink" width="22.4731" height="22.7661">
 <g>
  <rect height="22.7661" opacity="0" width="22.4731" x="0" y="0"/>
  <path d="M3.83301 22.4731L18.6401 22.4731C21.2036 22.4731 22.4731 21.2036 22.4731 18.689L22.4731 3.78418C22.4731 1.26953 21.2036 0 18.6401 0L3.83301 0C1.28174 0 0 1.25732 0 3.78418L0 18.689C0 21.2158 1.28174 22.4731 3.83301 22.4731ZM3.85742 20.5078C2.63672 20.5078 1.96533 19.8608 1.96533 18.5913L1.96533 3.88184C1.96533 2.62451 2.63672 1.96533 3.85742 1.96533L18.6157 1.96533C19.8242 1.96533 20.5078 2.62451 20.5078 3.88184L20.5078 18.5913C20.5078 19.8608 19.8242 20.5078 18.6157 20.5078ZM12.3901 4.94385C9.46045 4.94385 7.67822 7.05566 7.67822 9.91211L7.67822 13.5498L7.71484 15.0024L6.95801 14.0381L5.7373 12.7686C5.59082 12.6099 5.35889 12.5 5.10254 12.5C4.60205 12.5 4.21143 12.8784 4.21143 13.3789C4.21143 13.6353 4.29688 13.8306 4.47998 14.0015L7.77588 17.2485C7.9834 17.4438 8.23975 17.5659 8.52051 17.5659C8.81348 17.5659 9.05762 17.4438 9.26514 17.2485L12.5854 13.9893C12.7563 13.8184 12.8418 13.623 12.8418 13.3667C12.8418 12.8784 12.4634 12.5 11.9507 12.5C11.7188 12.5 11.4868 12.5854 11.3281 12.7563L9.86328 14.2944L9.32617 15.0024L9.38721 13.5498L9.38721 9.91211C9.38721 8.11768 10.4126 6.73828 12.2925 6.73828C14.2212 6.73828 15.4053 8.08105 15.4053 9.92432C15.4053 10.0708 15.4053 11.5723 15.4053 11.6211C15.4053 12.1338 15.7104 12.5488 16.2842 12.5488C16.8457 12.5488 17.1509 12.1338 17.1509 11.5967C17.1509 11.5356 17.1509 10.0708 17.1509 9.92432C17.1509 7.06787 15.3198 4.94385 12.3901 4.94385Z" fill="#5ac8f5"/>
 </g>
</svg>
