<?xml version="1.0" encoding="UTF-8"?>
<!--Generator: Apple Native CoreSVG 175.5-->
<!DOCTYPE svg
PUBLIC "-//W3C//DTD SVG 1.1//EN"
       "http://www.w3.org/Graphics/SVG/1.1/DTD/svg11.dtd">
<svg version="1.1" xmlns="http://www.w3.org/2000/svg" xmlns:xlink="http://www.w3.org/1999/xlink" width="29.3457" height="23.0835">
 <g>
  <rect height="23.0835" opacity="0" width="29.3457" x="0" y="0"/>
  <path d="M6.15234 23.0591L22.0459 23.0591C26.1597 23.0591 29.3457 19.9463 29.3457 15.9668C29.3457 11.9507 26.0986 8.92334 21.6553 8.92334C20.0317 5.70068 17.0532 3.73535 13.4399 3.73535C8.70361 3.73535 4.6875 7.40967 4.26025 12.2803C1.81885 12.9761 0.170898 15.0269 0.170898 17.6147C0.170898 20.6299 2.35596 23.0591 6.15234 23.0591ZM6.12793 21.0938C3.62549 21.0938 2.13623 19.7388 2.13623 17.6758C2.13623 15.918 3.25928 14.6606 5.23682 14.1357C5.92041 13.9648 6.17676 13.6475 6.22559 12.9395C6.51855 8.80127 9.61914 5.70068 13.4399 5.70068C16.3696 5.70068 18.6523 7.33643 20.0195 10.144C20.3003 10.7422 20.6543 10.9497 21.3989 10.9497C25.2197 10.9497 27.3804 13.2568 27.3804 16.0156C27.3804 18.8599 25.0977 21.0938 22.1802 21.0938ZM1.70898 11.1084C2.64893 11.1084 3.40576 10.3516 3.40576 9.39941C3.40576 8.45947 2.64893 7.70264 1.70898 7.70264C0.756836 7.70264 0 8.45947 0 9.39941C0 10.3516 0.756836 11.1084 1.70898 11.1084ZM19.6045 3.21045C20.4834 3.21045 21.2036 2.49023 21.2036 1.61133C21.2036 0.732422 20.4834 0 19.6045 0C18.7256 0 18.0054 0.732422 18.0054 1.61133C18.0054 2.49023 18.7256 3.21045 19.6045 3.21045ZM24.7437 7.43408C26.062 7.43408 27.124 6.37207 27.124 5.0293C27.124 3.69873 26.062 2.63672 24.7437 2.63672C23.4009 2.63672 22.3267 3.69873 22.3267 5.0293C22.3267 6.37207 23.4009 7.43408 24.7437 7.43408ZM10.7422 18.8477C12.3291 18.8477 13.3057 17.7002 13.3423 16.4551C13.3545 16.0278 13.0981 15.7349 12.7197 15.7349C12.3535 15.7349 12.1582 15.9424 12.0605 16.3574C11.9263 16.98 11.5723 17.6392 10.7422 17.6392C9.52148 17.6392 9.14307 16.3452 9.14307 14.9414C9.14307 13.623 9.5459 12.2925 10.73 12.2925C11.5601 12.2925 11.8896 12.9395 12.0239 13.562C12.1216 13.9771 12.3169 14.1846 12.6831 14.1846C13.0615 14.1846 13.3179 13.9038 13.3057 13.4644C13.269 12.2192 12.2925 11.084 10.7056 11.084C8.70361 11.084 7.80029 12.8174 7.80029 14.9414C7.80029 17.0288 8.63037 18.8477 10.7422 18.8477ZM16.6504 18.8477C18.4204 18.8477 19.5312 17.334 19.5312 14.9658C19.5312 12.5854 18.4204 11.084 16.6382 11.084C14.856 11.084 13.7329 12.5854 13.7329 14.9658C13.7329 17.334 14.856 18.8477 16.6504 18.8477ZM16.6504 17.6392C15.6738 17.6392 15.0757 16.6504 15.0757 14.9658C15.0757 13.2812 15.6738 12.2925 16.6382 12.2925C17.6025 12.2925 18.2007 13.2812 18.2007 14.9658C18.2007 16.6504 17.6025 17.6392 16.6504 17.6392ZM20.3491 19.3359L22.3267 19.3359C22.5708 19.3359 22.7661 19.1162 22.7661 18.8721C22.7661 18.6401 22.5586 18.4326 22.3267 18.4326L21.3867 18.4326L21.7773 18.0176C22.2656 17.5415 22.6074 17.0898 22.6074 16.6016C22.6074 15.918 22.0459 15.4175 21.2646 15.4175C20.4346 15.4175 19.9219 16.04 19.9219 16.5649C19.9219 16.8701 20.1416 17.0532 20.3857 17.0532C20.6787 17.0532 20.813 16.8457 20.8862 16.6748C20.9595 16.4429 21.0815 16.3208 21.2769 16.3208C21.46 16.3208 21.5942 16.4551 21.5942 16.626C21.5942 16.9067 21.3257 17.2241 21.0571 17.4927L20.1172 18.457C20.0073 18.5669 19.9341 18.75 19.9341 18.8965C19.9341 19.1406 20.1172 19.3359 20.3491 19.3359Z" fill="#5ac8f5"/>
 </g>
</svg>
