<?xml version="1.0" encoding="UTF-8"?>
<!--Generator: Apple Native CoreSVG 175.5-->
<!DOCTYPE svg
PUBLIC "-//W3C//DTD SVG 1.1//EN"
       "http://www.w3.org/Graphics/SVG/1.1/DTD/svg11.dtd">
<svg version="1.1" xmlns="http://www.w3.org/2000/svg" xmlns:xlink="http://www.w3.org/1999/xlink" width="24.9023" height="29.6406">
 <g>
  <rect height="29.6406" opacity="0" width="24.9023" x="0" y="0"/>
  <path d="M0 14.8142C0 21.6257 5.65186 27.2654 12.4512 27.2654C19.2627 27.2654 24.9023 21.6257 24.9023 14.8142C24.9023 10.7126 22.8271 7.02611 19.6899 4.7434C19.1528 4.32836 18.4814 4.46263 18.1763 4.96312C17.8711 5.47582 18.0298 6.04955 18.5303 6.42797C21.1304 8.28343 22.8149 11.3474 22.8271 14.8142C22.8394 20.5759 18.2129 25.1902 12.4512 25.1902C6.68945 25.1902 2.0874 20.5759 2.0874 14.8142C2.0874 9.87035 5.48096 5.76879 10.0952 4.71898L10.0952 6.46459C10.0952 7.33129 10.6934 7.56322 11.3647 7.08715L15.2588 4.35277C15.8081 3.97435 15.8203 3.38842 15.2588 2.98558L11.377 0.251208C10.6934-0.237073 10.0952-0.00513969 10.0952 0.873767L10.0952 2.59496C4.38232 3.718 0 8.80834 0 14.8142Z" fill="#5ac8f5" fill-opacity="0.5"/>
  <path d="M8.82568 19.8191C9.30176 19.8191 9.60693 19.4895 9.60693 18.9768L9.60693 11.2742C9.60693 10.6516 9.28955 10.322 8.74023 10.322C8.39844 10.322 8.1543 10.4319 7.72705 10.7248L6.04248 11.8601C5.76172 12.0676 5.62744 12.2873 5.62744 12.5681C5.62744 12.9709 5.95703 13.3127 6.34766 13.3127C6.57959 13.3127 6.70166 13.2639 6.93359 13.0808L8.09326 12.2263L8.08105 12.2263L8.08105 18.9768C8.08105 19.4773 8.37402 19.8191 8.82568 19.8191ZM15.0269 19.9656C17.0532 19.9656 18.396 18.6594 18.396 16.6941C18.396 14.8996 17.1875 13.6179 15.4419 13.6179C14.6729 13.6179 13.8306 13.9963 13.5132 14.6189L13.5742 14.6189L13.7817 11.8601L17.4438 11.8601C17.7979 11.8601 18.103 11.5671 18.103 11.1521C18.103 10.737 17.7979 10.4685 17.4438 10.4685L13.5376 10.4685C12.9028 10.4685 12.5488 10.8347 12.4878 11.4817L12.2314 14.9973C12.1704 15.6077 12.4878 15.9006 13.0249 15.9006C13.4277 15.9006 13.5986 15.8274 13.9526 15.5588C14.4165 15.1316 14.7949 14.9607 15.2832 14.9607C16.2231 14.9607 16.8579 15.6565 16.8579 16.7185C16.8579 17.7927 16.1133 18.574 15.1001 18.574C14.3799 18.574 13.7573 18.1589 13.4399 17.5242C13.2568 17.2068 13.0371 17.0359 12.7319 17.0359C12.3291 17.0359 12.0483 17.3288 12.0483 17.7439C12.0483 17.9148 12.085 18.0735 12.1582 18.2322C12.4756 19.1111 13.5498 19.9656 15.0269 19.9656Z" fill="#5ac8f5"/>
 </g>
</svg>
