<?xml version="1.0" encoding="UTF-8"?>
<!--Generator: Apple Native CoreSVG 175.5-->
<!DOCTYPE svg
PUBLIC "-//W3C//DTD SVG 1.1//EN"
       "http://www.w3.org/Graphics/SVG/1.1/DTD/svg11.dtd">
<svg version="1.1" xmlns="http://www.w3.org/2000/svg" xmlns:xlink="http://www.w3.org/1999/xlink" width="24.9023" height="24.9146">
 <g>
  <rect height="24.9146" opacity="0" width="24.9023" x="0" y="0"/>
  <path d="M12.4512 24.9023C19.2627 24.9023 24.9023 19.2505 24.9023 12.4512C24.9023 5.63965 19.2505 0 12.439 0C5.63965 0 0 5.63965 0 12.4512C0 19.2505 5.65186 24.9023 12.4512 24.9023ZM12.4512 22.8271C6.68945 22.8271 2.0874 18.2129 2.0874 12.4512C2.0874 6.68945 6.67725 2.0752 12.439 2.0752C18.2007 2.0752 22.8271 6.68945 22.8271 12.4512C22.8271 18.2129 18.2129 22.8271 12.4512 22.8271ZM7.56836 14.624C7.56836 17.7246 9.58252 19.6289 12.4512 19.6289C14.6118 19.6289 16.0889 18.7622 17.0776 16.7358C17.6147 15.686 18.0298 14.4165 18.4692 12.9639C18.6523 12.3657 18.9087 11.6333 18.9087 11.3037C18.9087 10.9131 18.6157 10.6445 18.2129 10.6445C17.749 10.6445 17.4805 10.9253 17.1509 11.5845L16.1621 13.6719C16.0645 13.8916 15.9668 13.9771 15.8569 13.9771C15.7104 13.9771 15.625 13.8794 15.625 13.6597L15.625 6.22559C15.625 5.81055 15.271 5.45654 14.856 5.45654C14.4165 5.45654 14.0747 5.81055 14.0747 6.22559L14.0747 11.499C13.8794 11.4502 13.6841 11.377 13.4766 11.3403L13.4766 5.2002C13.4766 4.77295 13.1348 4.41895 12.6953 4.41895C12.2681 4.41895 11.9263 4.77295 11.9263 5.2002L11.9263 11.2549C11.7065 11.2915 11.499 11.3037 11.3037 11.3403L11.3037 5.81055C11.3037 5.37109 10.9375 5.0293 10.5103 5.0293C10.083 5.0293 9.729 5.37109 9.729 5.81055L9.729 11.8408C9.50928 11.9385 9.32617 12.0605 9.14307 12.1704L9.14307 8.02002C9.14307 7.59277 8.77686 7.23877 8.36182 7.23877C7.92236 7.23877 7.56836 7.59277 7.56836 8.02002Z" fill="#5ac8f5"/>
 </g>
</svg>
