<?xml version="1.0" encoding="UTF-8"?>
<!--Generator: Apple Native CoreSVG 175.5-->
<!DOCTYPE svg
PUBLIC "-//W3C//DTD SVG 1.1//EN"
       "http://www.w3.org/Graphics/SVG/1.1/DTD/svg11.dtd">
<svg version="1.1" xmlns="http://www.w3.org/2000/svg" xmlns:xlink="http://www.w3.org/1999/xlink" width="25.293" height="26.7456">
 <g>
  <rect height="26.7456" opacity="0" width="25.293" x="0" y="0"/>
  <path d="M5.96924 10.6201L4.23584 10.6201L4.80957 13.6719C5.27344 16.1987 7.38525 17.7368 10.8276 17.7368L18.6157 17.7368C24.0723 17.7368 25.1709 13.501 25.1709 10.022C25.1709 4.50439 21.2891 0.231934 15.5151 0.231934C14.5874 0.231934 13.9404 0.90332 13.9404 1.87988L13.9404 9.38721L15.6616 9.38721L15.6616 2.56348C15.6616 2.23389 15.8936 2.01416 16.2231 2.01416C19.043 2.01416 23.4375 4.26025 23.4375 10.022C23.4375 12.6343 22.7417 16.0156 18.6157 16.0156L10.8276 16.0156C8.30078 16.0156 6.83594 15.0024 6.51855 13.3545ZM23.6572 9.15527L3.9917 9.15527C3.51562 9.15527 3.13721 9.53369 3.13721 10.0098C3.13721 10.4858 3.51562 10.8765 3.9917 10.8765L23.6694 10.8765ZM7.78809 10.1685L10.376 10.1685L4.54102 4.3335C4.26025 4.05273 3.95508 3.93066 3.56445 3.93066L0.915527 3.93066C0.415039 3.93066 0 4.3457 0 4.84619C0 5.34668 0.415039 5.77393 0.915527 5.77393L3.39355 5.77393ZM8.30078 20.7642L9.58252 22.0947L14.2822 17.395L12.9639 16.1011ZM19.8608 22.2534L21.1914 20.9717L16.5405 16.333L15.0757 17.4683ZM7.20215 26.7456C9.14307 26.7456 10.6689 25.2197 10.6689 23.2666C10.6689 21.3257 9.14307 19.7998 7.20215 19.7998C5.24902 19.7998 3.73535 21.3257 3.73535 23.2666C3.73535 25.2197 5.24902 26.7456 7.20215 26.7456ZM7.20215 25.1343C6.16455 25.1343 5.33447 24.3042 5.33447 23.2666C5.33447 22.2168 6.16455 21.3989 7.20215 21.3989C8.25195 21.3989 9.06982 22.2168 9.06982 23.2666C9.06982 24.3042 8.25195 25.1343 7.20215 25.1343ZM22.0703 26.5015C23.8525 26.5015 25.293 25.061 25.293 23.2666C25.293 21.4844 23.8525 20.0439 22.0703 20.0439C20.2759 20.0439 18.8354 21.4844 18.8354 23.2666C18.8354 25.061 20.2881 26.5015 22.0703 26.5015ZM22.0703 25.1343C21.0327 25.1343 20.1904 24.3042 20.1904 23.2666C20.1904 22.2168 21.0327 21.3989 22.0703 21.3989C23.1201 21.3989 23.938 22.2168 23.938 23.2666C23.938 24.3042 23.1201 25.1343 22.0703 25.1343ZM9.93652 24.0601L19.4214 24.0601L19.4214 22.4609L9.93652 22.4609Z" fill="#5ac8f5"/>
 </g>
</svg>
