<?xml version="1.0" encoding="UTF-8"?>
<!--Generator: Apple Native CoreSVG 175.5-->
<!DOCTYPE svg
PUBLIC "-//W3C//DTD SVG 1.1//EN"
       "http://www.w3.org/Graphics/SVG/1.1/DTD/svg11.dtd">
<svg version="1.1" xmlns="http://www.w3.org/2000/svg" xmlns:xlink="http://www.w3.org/1999/xlink" width="28.104" height="34.7046">
 <g>
  <rect height="34.7046" opacity="0" width="28.104" x="0" y="0"/>
  <path d="M18.3228 8.70361C18.5181 8.70361 18.6768 8.56934 18.689 8.34961C19.043 5.48096 19.1772 5.40771 22.0947 4.91943C22.3389 4.89502 22.4731 4.77295 22.4731 4.56543C22.4731 4.37012 22.3389 4.24805 22.1436 4.21143C19.2017 3.6499 19.043 3.66211 18.689 0.793457C18.6768 0.57373 18.5181 0.439453 18.3228 0.439453C18.1396 0.439453 17.9932 0.57373 17.981 0.78125C17.5903 3.69873 17.5049 3.78418 14.5142 4.21143C14.3188 4.23584 14.1846 4.37012 14.1846 4.56543C14.1846 4.76074 14.3188 4.89502 14.5142 4.91943C17.5049 5.50537 17.5781 5.49316 17.981 8.37402C17.9932 8.56934 18.1396 8.70361 18.3228 8.70361ZM10.1562 5.40771C10.2905 5.40771 10.4004 5.33447 10.437 5.17578C10.7666 3.34473 10.7666 3.33252 12.6099 2.99072C12.7686 2.9541 12.8662 2.85645 12.8662 2.70996C12.8662 2.55127 12.7686 2.45361 12.6099 2.41699C10.7666 2.05078 10.8154 2.03857 10.437 0.244141C10.4004 0.0854492 10.3027 0 10.1562 0C10.0098 0 9.8999 0.0976562 9.87549 0.244141C9.48486 2.03857 9.5459 2.05078 7.69043 2.41699C7.53174 2.45361 7.43408 2.56348 7.43408 2.70996C7.43408 2.84424 7.53174 2.9541 7.69043 2.99072C9.5459 3.35693 9.52148 3.34473 9.87549 5.17578C9.8999 5.32227 10.0098 5.40771 10.1562 5.40771ZM3.50342 32.5684C3.68652 32.5684 3.78418 32.4585 3.80859 32.2876C4.24805 29.895 4.23584 29.8462 6.73828 29.3701C6.92139 29.3213 7.01904 29.2358 7.01904 29.0527C7.01904 28.8696 6.92139 28.7842 6.73828 28.7476C4.24805 28.2471 4.30908 28.1982 3.80859 25.8179C3.78418 25.647 3.68652 25.5371 3.50342 25.5371C3.33252 25.5371 3.24707 25.647 3.19824 25.8179C2.69775 28.1982 2.79541 28.2471 0.280762 28.7476C0.109863 28.7842 0 28.8696 0 29.0527C0 29.2358 0.109863 29.3213 0.280762 29.3701C2.79541 29.8584 2.74658 29.895 3.19824 32.2876C3.24707 32.4585 3.33252 32.5684 3.50342 32.5684ZM22.2778 29.0771C25.3174 26.0498 25.8057 22.2656 23.7183 17.8833L20.9717 12.085C20.7764 11.6821 20.5444 11.3525 20.2881 11.0962C19.3726 10.1807 18.042 10.2295 17.1631 11.1206C16.5649 11.7065 16.3818 12.5977 16.7725 13.5742L17.5903 15.5151C17.6025 15.564 17.6147 15.6128 17.5781 15.6494C17.5293 15.6982 17.4805 15.686 17.4316 15.6372L10.5103 8.71582C9.49707 7.70264 8.23975 7.70264 7.27539 8.66699C6.92139 9.021 6.72607 9.46045 6.71387 9.92432C5.71289 9.15527 4.60205 9.17969 3.73535 10.0464C2.90527 10.8765 2.88086 12.0239 3.60107 13.0005C3.16162 13.0005 2.74658 13.1958 2.4292 13.5132C1.52588 14.4043 1.5625 15.625 2.51465 16.5894L3.479 17.5415C3.00293 17.5293 2.52686 17.749 2.14844 18.1274C1.25732 19.0186 1.30615 20.3003 2.27051 21.2646L9.69238 28.6865C13.7329 32.7271 18.6279 32.7271 22.2778 29.0771ZM21.0449 27.9297C17.981 30.9814 14.1602 30.8838 10.6934 27.4048L3.52783 20.2515C3.16162 19.8853 3.13721 19.397 3.50342 19.0308C3.85742 18.6768 4.37012 18.6768 4.73633 19.043L9.14307 23.4619C9.47266 23.7793 9.93652 23.7305 10.2173 23.4497C10.5103 23.1567 10.5591 22.6807 10.2417 22.3633L3.6499 15.7593C3.28369 15.3931 3.25928 14.9048 3.61328 14.5508C3.96729 14.1968 4.47998 14.1968 4.8584 14.563L11.0107 20.7153C11.3281 21.0327 11.8042 20.9961 12.085 20.7031C12.3779 20.4102 12.4268 19.9341 12.1094 19.6167L4.88281 12.3901C4.5166 12.0239 4.49219 11.5112 4.8584 11.1572C5.2002 10.8032 5.71289 10.8276 6.09131 11.1938L13.3179 18.4204C13.6108 18.7134 14.0869 18.7012 14.3799 18.4082C14.6851 18.103 14.7095 17.627 14.4043 17.3218L8.25195 11.1572C7.88574 10.791 7.87354 10.2905 8.22754 9.93652C8.59375 9.57031 9.08203 9.58252 9.46045 9.96094L17.9565 18.457C18.3838 18.8843 18.8843 18.8843 19.2505 18.5181C19.5557 18.2129 19.6899 17.8101 19.4458 17.1875L17.9199 13.1714C17.7124 12.6343 17.8955 12.1826 18.3228 11.9873C18.7744 11.7798 19.1772 11.9873 19.458 12.5732L22.29 18.5669C24.1821 22.5708 23.4497 25.5127 21.0449 27.9297ZM10.4004 7.56836C10.0342 7.91016 9.85107 8.36182 9.82666 8.82568L11.3647 10.0586C10.9985 9.70459 10.9863 9.19189 11.3525 8.82568C11.7065 8.47168 12.207 8.49609 12.5732 8.8623L16.7236 13.0127L17.7124 11.6943L13.623 7.61719C12.6099 6.604 11.3647 6.604 10.4004 7.56836ZM25.3906 27.9907C28.4302 24.9512 28.9185 21.167 26.8433 16.7847L24.0845 10.9741C23.584 9.8999 22.7417 9.33838 21.7407 9.33838C20.9473 9.33838 19.5923 9.8877 19.5923 11.4868C19.5923 11.6211 19.5923 11.7554 19.6167 11.9019L21.0571 12.3047C20.9839 12.146 20.9351 11.9873 20.9351 11.7798C20.9351 11.3892 21.2646 10.9985 21.7896 10.9985C22.1191 10.9985 22.4609 11.2305 22.644 11.6211L25.415 17.4683C27.3071 21.46 26.5869 24.4263 24.1577 26.8188C23.1812 27.7954 22.1191 28.4546 21.0205 28.772L19.2383 30.6519C21.4355 30.7129 23.5718 29.8096 25.3906 27.9907Z" fill="#5ac8f5"/>
 </g>
</svg>
