<?xml version="1.0" encoding="UTF-8"?>
<!--Generator: Apple Native CoreSVG 175.5-->
<!DOCTYPE svg
PUBLIC "-//W3C//DTD SVG 1.1//EN"
       "http://www.w3.org/Graphics/SVG/1.1/DTD/svg11.dtd">
<svg version="1.1" xmlns="http://www.w3.org/2000/svg" xmlns:xlink="http://www.w3.org/1999/xlink" width="22.0215" height="25.7202">
 <g>
  <rect height="25.7202" opacity="0" width="22.0215" x="0" y="0"/>
  <path d="M10.022 4.35791L11.9873 4.35791L11.9873 0.98877C11.9873 0.45166 11.5479 0 11.0107 0C10.4736 0 10.022 0.45166 10.022 0.98877ZM0 13.0127C0 14.6484 0.927734 15.564 2.58789 15.564L19.4336 15.564C21.0938 15.564 22.0215 14.6484 22.0215 13.0127L22.0215 5.48096C22.0215 3.84521 21.0938 2.94189 19.4336 2.94189L2.58789 2.94189C0.927734 2.94189 0 3.84521 0 5.48096ZM10.022 14.8682L10.022 25.6348L11.9873 25.6348L11.9873 14.8682ZM5.32227 24.7192C5.32227 25.2563 5.77393 25.6958 6.31104 25.6958L15.7104 25.6958C16.2598 25.6958 16.6992 25.2563 16.6992 24.7192C16.6992 24.1821 16.2598 23.7305 15.7104 23.7305L6.31104 23.7305C5.77393 23.7305 5.32227 24.1821 5.32227 24.7192Z" fill="#5ac8f5" fill-opacity="0.25"/>
  <path d="M8.08105 11.9995C7.15332 11.9995 6.90918 11.377 7.43408 10.6567L10.3027 6.56738C10.7056 5.98145 11.3281 5.98145 11.7432 6.56738L14.6118 10.6689C15.1123 11.377 14.856 11.9995 13.9648 11.9995Z" fill="#5ac8f5"/>
 </g>
</svg>
