<?xml version="1.0" encoding="UTF-8"?>
<!--Generator: Apple Native CoreSVG 175.5-->
<!DOCTYPE svg
PUBLIC "-//W3C//DTD SVG 1.1//EN"
       "http://www.w3.org/Graphics/SVG/1.1/DTD/svg11.dtd">
<svg version="1.1" xmlns="http://www.w3.org/2000/svg" xmlns:xlink="http://www.w3.org/1999/xlink" width="24.9023" height="24.9146">
 <g>
  <rect height="24.9146" opacity="0" width="24.9023" x="0" y="0"/>
  <path d="M12.4512 24.9146C19.2627 24.9146 24.9023 19.2749 24.9023 12.4634C24.9023 5.66406 19.2505 0.012207 12.439 0.012207C5.63965 0.012207 0 5.66406 0 12.4634C0 19.2749 5.65186 24.9146 12.4512 24.9146ZM12.439 20.3369C12.0483 20.3369 11.7554 20.0439 11.7554 19.6167L11.7554 18.2251L10.6689 18.8477C10.2783 19.0552 9.92432 18.9697 9.7168 18.6279C9.53369 18.3228 9.66797 17.9199 10.0098 17.7246L11.7554 16.748L11.7554 15.8691L11.8774 13.4521L9.83887 14.7583L9.08203 15.21L9.09424 17.1997C9.09424 17.6025 8.82568 17.9199 8.45947 17.9199C8.05664 17.9199 7.80029 17.627 7.80029 17.1997L7.78809 15.9424L6.5918 16.6504C6.23779 16.8579 5.84717 16.7603 5.62744 16.4062C5.41992 16.04 5.54199 15.6494 5.9082 15.4297L7.10449 14.7583L6.03027 14.1235C5.65186 13.9038 5.5542 13.5498 5.7373 13.1958C5.92041 12.8784 6.33545 12.793 6.68945 12.9883L8.39844 14.0137L9.14307 13.562L11.3403 12.4634L9.14307 11.377L8.39844 10.9375L6.68945 11.9385C6.33545 12.1338 5.92041 12.0605 5.7251 11.7432C5.54199 11.377 5.66406 11.0352 6.03027 10.8154L7.10449 10.1807L5.9082 9.49707C5.54199 9.27734 5.40771 8.88672 5.62744 8.52051C5.83496 8.17871 6.23779 8.08105 6.5918 8.28857L7.78809 8.98438L7.80029 7.72705C7.80029 7.2998 8.05664 7.01904 8.45947 7.01904C8.82568 7.01904 9.09424 7.32422 9.09424 7.72705L9.08203 9.729L9.83887 10.1685L11.8774 11.4868L11.7554 9.05762L11.7554 8.17871L10.0098 7.21436C9.66797 7.00684 9.53369 6.604 9.7168 6.29883C9.92432 5.95703 10.2783 5.88379 10.6689 6.0791L11.7554 6.70166L11.7554 5.31006C11.7554 4.89502 12.0483 4.58984 12.439 4.58984C12.8418 4.58984 13.1348 4.88281 13.1348 5.31006L13.1348 6.68945L14.1968 6.0791C14.5874 5.87158 14.9536 5.95703 15.1611 6.29883C15.332 6.604 15.21 7.00684 14.856 7.21436L13.1226 8.17871L13.1226 9.05762L13.0005 11.4868L15.0635 10.1562L15.7959 9.729L15.7837 7.72705C15.7837 7.32422 16.0522 7.01904 16.4307 7.01904C16.8091 7.01904 17.0776 7.31201 17.0776 7.72705L17.0898 8.99658L18.2861 8.28857C18.6401 8.08105 19.043 8.1665 19.2505 8.52051C19.4458 8.89893 19.3359 9.27734 18.9697 9.49707L17.7734 10.1807L18.8354 10.8154C19.2017 11.0352 19.3359 11.3892 19.1528 11.731C18.9575 12.0483 18.5425 12.1338 18.1885 11.9385L16.4795 10.9253L15.7349 11.377L13.5376 12.4634L15.7349 13.562L16.4795 14.0137L18.1885 12.9883C18.5425 12.8052 18.9453 12.8784 19.1528 13.208C19.3359 13.5498 19.2017 13.8916 18.8354 14.1235L17.7734 14.7583L18.9697 15.4297C19.3359 15.6494 19.4458 16.04 19.2505 16.4062C19.0186 16.7603 18.6401 16.8457 18.2861 16.6504L17.0898 15.9302L17.0776 17.1997C17.0776 17.627 16.8091 17.9199 16.4185 17.9199C16.0522 17.9199 15.7837 17.6025 15.7837 17.1997L15.7959 15.21L15.0635 14.7583L13.0005 13.4521L13.1226 15.8691L13.1226 16.748L14.856 17.7124C15.21 17.9199 15.332 18.3228 15.1611 18.6279C14.9536 18.9697 14.5874 19.0674 14.1968 18.8477L13.1348 18.2373L13.1348 19.6167C13.1348 20.0562 12.8418 20.3369 12.439 20.3369Z" fill="#5ac8f5"/>
 </g>
</svg>
