<?xml version="1.0" encoding="UTF-8"?>
<!--Generator: Apple Native CoreSVG 175.5-->
<!DOCTYPE svg
PUBLIC "-//W3C//DTD SVG 1.1//EN"
       "http://www.w3.org/Graphics/SVG/1.1/DTD/svg11.dtd">
<svg version="1.1" xmlns="http://www.w3.org/2000/svg" xmlns:xlink="http://www.w3.org/1999/xlink" width="28.7842" height="22.4976">
 <g>
  <rect height="22.4976" opacity="0" width="28.7842" x="0" y="0"/>
  <path d="M3.83301 22.4976L24.9512 22.4976C27.5146 22.4976 28.7842 21.228 28.7842 18.7134L28.7842 3.80859C28.7842 1.29395 27.5146 0.0244141 24.9512 0.0244141L3.83301 0.0244141C1.28174 0.0244141 0 1.28174 0 3.80859L0 18.7134C0 21.2402 1.28174 22.4976 3.83301 22.4976ZM3.85742 20.5322C2.63672 20.5322 1.96533 19.8853 1.96533 18.6157L1.96533 3.90625C1.96533 2.63672 2.63672 1.98975 3.85742 1.98975L24.9268 1.98975C26.1353 1.98975 26.8188 2.63672 26.8188 3.90625L26.8188 18.6157C26.8188 19.8853 26.1353 20.5322 24.9268 20.5322ZM9.30176 20.9106L11.2183 20.9106L11.2183 1.62354L9.30176 1.62354ZM6.95801 6.51855C7.32422 6.51855 7.65381 6.18896 7.65381 5.83496C7.65381 5.46875 7.32422 5.15137 6.95801 5.15137L4.3335 5.15137C3.96729 5.15137 3.6499 5.46875 3.6499 5.83496C3.6499 6.18896 3.96729 6.51855 4.3335 6.51855ZM6.95801 9.68018C7.32422 9.68018 7.65381 9.35059 7.65381 8.98438C7.65381 8.61816 7.32422 8.31299 6.95801 8.31299L4.3335 8.31299C3.96729 8.31299 3.6499 8.61816 3.6499 8.98438C3.6499 9.35059 3.96729 9.68018 4.3335 9.68018ZM6.95801 12.8296C7.32422 12.8296 7.65381 12.5244 7.65381 12.1582C7.65381 11.792 7.32422 11.4746 6.95801 11.4746L4.3335 11.4746C3.96729 11.4746 3.6499 11.792 3.6499 12.1582C3.6499 12.5244 3.96729 12.8296 4.3335 12.8296Z" fill="#5ac8f5"/>
 </g>
</svg>
