<?xml version="1.0" encoding="UTF-8"?>
<!--Generator: Apple Native CoreSVG 175.5-->
<!DOCTYPE svg
PUBLIC "-//W3C//DTD SVG 1.1//EN"
       "http://www.w3.org/Graphics/SVG/1.1/DTD/svg11.dtd">
<svg version="1.1" xmlns="http://www.w3.org/2000/svg" xmlns:xlink="http://www.w3.org/1999/xlink" width="36.6333" height="25.2075">
 <g>
  <rect height="25.2075" opacity="0" width="36.6333" x="0" y="0"/>
  <path d="M7.44629 25.2075L29.1748 25.2075C30.7007 25.2075 31.1279 23.8281 30.542 22.6685L24.4263 10.4004L34.5825 24.5972C34.8877 25.0244 35.2661 25.1709 35.6201 25.1709C36.145 25.1709 36.6333 24.8657 36.6333 24.1455L36.6333 20.4956C36.6333 20.0439 36.2549 19.6655 35.8032 19.6655C35.3516 19.6655 34.9854 20.0439 34.9854 20.4956L34.9854 22.3633L19.7876 1.13525C18.9941 0.012207 17.627 0.0366211 16.8335 1.13525L1.64795 22.3633L1.64795 20.4956C1.64795 20.0439 1.28174 19.6655 0.830078 19.6655C0.366211 19.6655 0 20.0439 0 20.4956L0 24.1455C0 24.8657 0.488281 25.1709 1.01318 25.1709C1.36719 25.1709 1.74561 25.0244 2.05078 24.5972L12.207 10.4004L6.09131 22.6685C5.50537 23.8281 5.92041 25.2075 7.44629 25.2075ZM8.28857 23.3398C8.11768 23.3398 8.06885 23.1934 8.14209 23.0469L18.1519 2.70996C18.2251 2.55127 18.396 2.55127 18.4814 2.70996L28.4912 23.0469C28.5645 23.1934 28.5034 23.3398 28.3447 23.3398ZM12.2437 23.6084L16.333 23.6084L18.3105 14.9536L20.2881 23.6084L24.3774 23.6084L19.0552 12.3901C18.8965 12.0483 18.6035 11.8774 18.3105 11.8774C18.0176 11.8774 17.7246 12.0483 17.5537 12.3901Z" fill="#5ac8f5"/>
 </g>
</svg>
