<?xml version="1.0" encoding="UTF-8"?>
<!--Generator: Apple Native CoreSVG 175.5-->
<!DOCTYPE svg
PUBLIC "-//W3C//DTD SVG 1.1//EN"
       "http://www.w3.org/Graphics/SVG/1.1/DTD/svg11.dtd">
<svg version="1.1" xmlns="http://www.w3.org/2000/svg" xmlns:xlink="http://www.w3.org/1999/xlink" width="24.9023" height="24.9146">
 <g>
  <rect height="24.9146" opacity="0" width="24.9023" x="0" y="0"/>
  <path d="M12.4512 24.9146C19.2627 24.9146 24.9023 19.2749 24.9023 12.4634C24.9023 5.66406 19.2505 0.012207 12.439 0.012207C5.63965 0.012207 0 5.66406 0 12.4634C0 19.2749 5.65186 24.9146 12.4512 24.9146ZM7.72705 19.3726C7.00684 19.3726 6.5918 19.0552 6.43311 18.4937L5.88379 16.6382C5.70068 16.0156 6.00586 15.5762 6.5918 15.5762L11.731 15.5762L11.731 14.0015L7.38525 14.0015C6.78711 14.0015 6.45752 13.2935 7.04346 12.854C9.81445 10.8643 11.731 7.08008 11.731 4.96826L11.731 4.44336C11.731 4.13818 11.9751 3.88184 12.2925 3.88184C12.6099 3.88184 12.8784 4.13818 12.8784 4.44336L12.8784 5.06592C15.3442 6.44531 17.7368 9.10645 17.7368 11.4014C17.7368 13.0005 16.6138 14.0015 14.7583 14.0015L12.8784 14.0015L12.8784 15.5762L18.7988 15.5762C19.4824 15.5762 19.7876 16.2598 19.3726 16.7358L17.4561 18.9209C17.1753 19.2383 16.8579 19.3726 16.4307 19.3726ZM12.8662 12.9272C13.8184 12.2559 14.2578 11.1206 14.2578 9.97314C14.2578 8.5083 13.623 7.00684 12.8662 6.27441Z" fill="#5ac8f5"/>
 </g>
</svg>
