<?xml version="1.0" encoding="UTF-8"?>
<!--Generator: Apple Native CoreSVG 175.5-->
<!DOCTYPE svg
PUBLIC "-//W3C//DTD SVG 1.1//EN"
       "http://www.w3.org/Graphics/SVG/1.1/DTD/svg11.dtd">
<svg version="1.1" xmlns="http://www.w3.org/2000/svg" xmlns:xlink="http://www.w3.org/1999/xlink" width="31.8237" height="14.563">
 <g>
  <rect height="14.563" opacity="0" width="31.8237" x="0" y="0"/>
  <path d="M0 7.27539C0 11.6943 2.771 14.5508 6.83594 14.5508C9.04541 14.5508 10.8765 13.6108 12.8906 11.6699L15.918 8.76465L18.9331 11.6699C20.9595 13.6108 22.7905 14.5508 24.9878 14.5508C29.0527 14.5508 31.8237 11.6943 31.8237 7.27539C31.8237 2.85645 29.0527 0 24.9878 0C22.7905 0 20.9595 0.939941 18.9331 2.88086L15.918 5.78613L12.8906 2.88086C10.8765 0.939941 9.04541 0 6.83594 0C2.771 0 0 2.85645 0 7.27539ZM2.20947 7.27539C2.20947 4.18701 4.10156 2.20947 6.83594 2.20947C8.39844 2.20947 9.76562 2.96631 11.3403 4.44336L14.3677 7.27539L11.3281 10.1074C9.75342 11.5723 8.39844 12.3413 6.83594 12.3413C4.10156 12.3413 2.20947 10.3638 2.20947 7.27539ZM17.4561 7.27539L20.4834 4.44336C22.0581 2.96631 23.4253 2.20947 24.9878 2.20947C27.7344 2.20947 29.6143 4.18701 29.6143 7.27539C29.6143 10.3638 27.7344 12.3413 24.9878 12.3413C23.4253 12.3413 22.0703 11.5723 20.4956 10.1074Z" fill="#5ac8f5"/>
 </g>
</svg>
