<?xml version="1.0" encoding="UTF-8"?>
<!--Generator: Apple Native CoreSVG 175.5-->
<!DOCTYPE svg
PUBLIC "-//W3C//DTD SVG 1.1//EN"
       "http://www.w3.org/Graphics/SVG/1.1/DTD/svg11.dtd">
<svg version="1.1" xmlns="http://www.w3.org/2000/svg" xmlns:xlink="http://www.w3.org/1999/xlink" width="29.9927" height="22.4976">
 <g>
  <rect height="22.4976" opacity="0" width="29.9927" x="0" y="0"/>
  <path d="M4.43115 22.4976L25.5615 22.4976C28.125 22.4976 29.3945 21.228 29.3945 18.7134L29.3945 15.1123C29.3945 14.4775 29.0405 14.1235 28.4058 14.1235C27.771 14.1235 27.4292 14.4775 27.4292 15.1123L27.4292 18.6157C27.4292 19.8853 26.7334 20.5322 25.5371 20.5322L4.46777 20.5322C3.24707 20.5322 2.57568 19.8853 2.57568 18.6157L2.57568 15.1123C2.57568 14.4775 2.20947 14.1235 1.58691 14.1235C0.964355 14.1235 0.610352 14.4775 0.610352 15.1123L0.610352 18.7134C0.610352 21.2402 1.89209 22.4976 4.43115 22.4976ZM4.43115 0.0244141C1.89209 0.0244141 0.610352 1.28174 0.610352 3.80859L0.610352 6.79932C0.610352 7.43408 0.964355 7.80029 1.58691 7.80029C2.20947 7.80029 2.57568 7.43408 2.57568 6.79932L2.57568 3.90625C2.57568 2.63672 3.24707 1.98975 4.46777 1.98975L25.5371 1.98975C26.7334 1.98975 27.4292 2.63672 27.4292 3.90625L27.4292 6.79932C27.4292 7.43408 27.7832 7.80029 28.4058 7.80029C29.0527 7.80029 29.3945 7.43408 29.3945 6.79932L29.3945 3.80859C29.3945 1.29395 28.125 0.0244141 25.5615 0.0244141ZM1.58691 12.5366C2.46582 12.5366 3.17383 11.8164 3.17383 10.9375C3.17383 10.0708 2.46582 9.36279 1.58691 9.36279C0.720215 9.36279 0 10.0708 0 10.9375C0 11.8164 0.720215 12.5366 1.58691 12.5366ZM28.4058 12.5366C29.2725 12.5366 29.9927 11.8164 29.9927 10.9375C29.9927 10.0708 29.2725 9.36279 28.4058 9.36279C27.5269 9.36279 26.8188 10.0586 26.8188 10.9375C26.8188 11.8164 27.5269 12.5366 28.4058 12.5366Z" fill="#5ac8f5" fill-opacity="0.5"/>
  <path d="M10.9985 16.9922C11.438 16.9922 11.7432 16.7847 11.9263 16.2109L12.8174 13.6108L17.1875 13.6108L18.0786 16.2109C18.2617 16.7725 18.5791 16.9922 19.0186 16.9922C19.5557 16.9922 19.9219 16.6382 19.9219 16.1499C19.9219 15.9546 19.8853 15.7837 19.7876 15.5151L16.3696 6.29883C16.1255 5.66406 15.6616 5.33447 14.9902 5.33447C14.3311 5.33447 13.8794 5.66406 13.6475 6.29883L10.2173 15.5151C10.1318 15.7837 10.083 15.9546 10.083 16.1377C10.083 16.6504 10.4492 16.9922 10.9985 16.9922ZM13.3179 12.146L14.9414 7.42188L15.0757 7.42188L16.6992 12.146Z" fill="#5ac8f5"/>
 </g>
</svg>
