<?xml version="1.0" encoding="UTF-8"?>
<!--Generator: Apple Native CoreSVG 175.5-->
<!DOCTYPE svg
PUBLIC "-//W3C//DTD SVG 1.1//EN"
       "http://www.w3.org/Graphics/SVG/1.1/DTD/svg11.dtd">
<svg version="1.1" xmlns="http://www.w3.org/2000/svg" xmlns:xlink="http://www.w3.org/1999/xlink" width="18.2251" height="22.7661">
 <g>
  <rect height="22.7661" opacity="0" width="18.2251" x="0" y="0"/>
  <path d="M2.0752 22.7661C2.66113 22.7661 3.02734 22.4854 3.21045 21.875L9.06982 3.10059L9.15527 3.10059L15.0269 21.8872C15.21 22.4976 15.564 22.7661 16.1743 22.7661C16.8457 22.7661 17.334 22.3267 17.334 21.7285C17.334 21.582 17.2974 21.3623 17.1997 21.0693L10.6079 1.19629C10.376 0.512695 9.91211 0.0732422 9.13086 0.0732422C8.31299 0.0732422 7.84912 0.500488 7.61719 1.19629L1.02539 21.0815C0.927734 21.3745 0.90332 21.582 0.90332 21.7285C0.90332 22.3267 1.3916 22.7661 2.0752 22.7661ZM0 11.853C0 12.2925 0.354004 12.6465 0.793457 12.6465L17.4316 12.6465C17.8711 12.6465 18.2251 12.2925 18.2251 11.853C18.2251 11.4136 17.8711 11.0596 17.4316 11.0596L0.793457 11.0596C0.354004 11.0596 0 11.4136 0 11.853ZM0 16.2354C0 16.6748 0.354004 17.0288 0.793457 17.0288L17.4316 17.0288C17.8711 17.0288 18.2251 16.6748 18.2251 16.2354C18.2251 15.7959 17.8711 15.4419 17.4316 15.4419L0.793457 15.4419C0.354004 15.4419 0 15.7959 0 16.2354Z" fill="#5ac8f5"/>
 </g>
</svg>
