<?xml version="1.0" encoding="UTF-8"?>
<!--Generator: Apple Native CoreSVG 175.5-->
<!DOCTYPE svg
PUBLIC "-//W3C//DTD SVG 1.1//EN"
       "http://www.w3.org/Graphics/SVG/1.1/DTD/svg11.dtd">
<svg version="1.1" xmlns="http://www.w3.org/2000/svg" xmlns:xlink="http://www.w3.org/1999/xlink" width="26.2573" height="26.2817">
 <g>
  <rect height="26.2817" opacity="0" width="26.2573" x="0" y="0"/>
  <path d="M13.1226 17.7612C15.6738 17.7612 17.7612 15.686 17.7612 13.1348C17.7612 10.5835 15.6738 8.49609 13.1226 8.49609C10.5713 8.49609 8.49609 10.5835 8.49609 13.1348C8.49609 15.686 10.5713 17.7612 13.1226 17.7612ZM13.1226 15.8813C11.6089 15.8813 10.376 14.6484 10.376 13.1348C10.376 11.6211 11.6089 10.376 13.1226 10.376C14.6362 10.376 15.8813 11.6211 15.8813 13.1348C15.8813 14.6484 14.6362 15.8813 13.1226 15.8813ZM13.1226 14.8682C14.0991 14.8682 14.8682 14.0991 14.8682 13.1348C14.8682 12.1704 14.0869 11.377 13.1226 11.377C12.146 11.377 11.377 12.146 11.377 13.1348C11.377 14.1113 12.146 14.8682 13.1226 14.8682ZM12.2437 9.38721L12.2437 3.49121C12.2437 1.24512 11.0352 0 8.8623 0C4.95605 0.012207 0.878906 3.54004 0.878906 6.99463C0.878906 10.144 3.80859 11.9019 8.88672 13.5742L9.66797 11.8042C5.18799 10.3149 2.74658 9.16748 2.74658 6.99463C2.74658 4.55322 5.98145 1.86768 8.8623 1.86768C9.99756 1.86768 10.376 2.28271 10.376 3.49121L10.376 9.92432ZM16.8701 12.2437L22.7783 12.2437C25.0244 12.2437 26.2573 11.0474 26.2573 8.87451C26.2573 4.96826 22.7173 0.878906 19.2627 0.878906C16.1133 0.878906 14.3555 3.8208 12.6831 8.91113L14.4531 9.69238C15.9424 5.2124 17.0898 2.74658 19.2627 2.74658C21.7041 2.74658 24.3896 5.99365 24.3896 8.87451C24.3896 10.0098 23.9868 10.376 22.7783 10.376L16.333 10.376ZM14.0137 16.8823L14.0137 22.7905C14.0137 25.0366 15.21 26.2695 17.3828 26.2695C21.3013 26.2695 25.3784 22.7295 25.3784 19.2749C25.3784 16.1255 22.4365 14.3677 17.3584 12.6953L16.5771 14.4653C21.0571 15.9546 23.5107 17.1021 23.5107 19.2749C23.5107 21.7163 20.2759 24.4019 17.3828 24.3896C16.2476 24.3896 15.8813 23.999 15.8813 22.7905L15.8813 16.3452ZM9.375 14.0137L3.4668 14.0137C1.23291 14.0137 0 15.2222 0 17.395C0 21.3135 3.52783 25.3906 6.98242 25.3906C10.1318 25.3906 11.8896 22.4487 13.562 17.3706L11.792 16.5894C10.3027 21.0693 9.15527 23.5107 6.98242 23.5107C4.54102 23.5107 1.86768 20.2881 1.86768 17.395C1.86768 16.2598 2.2583 15.8813 3.4668 15.8813L9.91211 15.8813Z" fill="#5ac8f5"/>
 </g>
</svg>
