<?xml version="1.0" encoding="UTF-8"?>
<!--Generator: Apple Native CoreSVG 175.5-->
<!DOCTYPE svg
PUBLIC "-//W3C//DTD SVG 1.1//EN"
       "http://www.w3.org/Graphics/SVG/1.1/DTD/svg11.dtd">
<svg version="1.1" xmlns="http://www.w3.org/2000/svg" xmlns:xlink="http://www.w3.org/1999/xlink" width="30.6885" height="23.2056">
 <g>
  <rect height="23.2056" opacity="0" width="30.6885" x="0" y="0"/>
  <path d="M24.1211 21.2158C27.8076 21.2158 30.6885 18.5181 30.6885 15.1611C30.6885 12.5977 29.2114 10.376 26.8311 9.375C26.8555 3.93066 22.937 0 17.9443 0C14.6362 0 12.2803 1.77002 10.8154 3.90625C7.8125 3.02734 4.54102 5.31006 4.47998 8.72803C1.72119 9.16748 0 11.6333 0 14.6118C0 18.2007 3.13721 21.2158 7.31201 21.2158Z" fill="#5ac8f5" fill-opacity="0.25"/>
  <path d="M12.8296 16.0034C12.439 16.3818 11.8896 16.3086 11.5234 15.9668C11.1694 15.6372 11.1206 15.0757 11.499 14.6851L14.0015 12.1582L11.499 9.63135C11.1206 9.24072 11.1938 8.70361 11.5356 8.3374C11.8652 7.9834 12.439 7.93457 12.8296 8.31299L15.3442 10.8154L17.8589 8.31299C18.2617 7.92236 18.811 8.00781 19.165 8.3374C19.5312 8.6792 19.5801 9.24072 19.2017 9.63135L16.687 12.1582L19.2017 14.6851C19.5801 15.0757 19.4946 15.6128 19.165 15.979C18.8232 16.333 18.2617 16.3818 17.8589 16.0034L15.3442 13.501Z" fill="#5ac8f5"/>
 </g>
</svg>
