<?xml version="1.0" encoding="UTF-8"?>
<!--Generator: Apple Native CoreSVG 175.5-->
<!DOCTYPE svg
PUBLIC "-//W3C//DTD SVG 1.1//EN"
       "http://www.w3.org/Graphics/SVG/1.1/DTD/svg11.dtd">
<svg version="1.1" xmlns="http://www.w3.org/2000/svg" xmlns:xlink="http://www.w3.org/1999/xlink" width="24.9023" height="24.9146">
 <g>
  <rect height="24.9146" opacity="0" width="24.9023" x="0" y="0"/>
  <path d="M12.4512 24.9146C19.2627 24.9146 24.9023 19.2749 24.9023 12.4634C24.9023 5.66406 19.2505 0.012207 12.439 0.012207C5.63965 0.012207 0 5.66406 0 12.4634C0 19.2749 5.65186 24.9146 12.4512 24.9146ZM9.2041 19.8853C8.34961 19.8853 7.84912 19.4092 7.82471 18.5547L7.38525 8.60596L6.35986 8.60596C6.06689 8.60596 5.82275 8.37402 5.82275 8.08105C5.82275 7.77588 6.06689 7.53174 6.35986 7.53174L9.38721 7.53174L9.38721 6.51855C9.38721 5.48096 10.0708 4.80957 11.1694 4.80957L13.7085 4.80957C14.8193 4.80957 15.5151 5.48096 15.5151 6.51855L15.5151 7.53174L18.5303 7.53174C18.8354 7.53174 19.0796 7.77588 19.0674 8.08105C19.0552 8.37402 18.8354 8.60596 18.5303 8.60596L17.5415 8.60596L17.1143 18.5547C17.0776 19.4092 16.5527 19.8853 15.7104 19.8853ZM10.2905 17.9321C10.5591 17.9321 10.73 17.749 10.73 17.5049L10.4858 10.1562C10.4858 9.8877 10.2905 9.7168 10.0342 9.7168C9.729 9.7168 9.57031 9.8877 9.57031 10.1562L9.82666 17.5049C9.82666 17.749 10.0342 17.9321 10.2905 17.9321ZM12.439 17.9321C12.7197 17.9321 12.9028 17.749 12.9028 17.5049L12.9028 10.1562C12.9028 9.8877 12.7197 9.7168 12.439 9.7168C12.146 9.7168 11.9751 9.8877 11.9751 10.1562L11.9751 17.5049C11.9751 17.749 12.1582 17.9321 12.439 17.9321ZM14.5752 17.9321C14.8315 17.9321 15.0391 17.749 15.0391 17.5049L15.2954 10.1562C15.2954 9.8877 15.1367 9.7168 14.8438 9.7168C14.5752 9.7168 14.3921 9.8877 14.3799 10.1562L14.1357 17.5049C14.1357 17.749 14.3066 17.9321 14.5752 17.9321ZM10.6689 7.53174L14.209 7.53174L14.209 6.5918C14.209 6.26221 13.9771 6.04248 13.6353 6.04248L11.2427 6.04248C10.9009 6.04248 10.6689 6.26221 10.6689 6.5918Z" fill="#5ac8f5"/>
 </g>
</svg>
