<?xml version="1.0" encoding="UTF-8"?>
<!--Generator: Apple Native CoreSVG 175.5-->
<!DOCTYPE svg
PUBLIC "-//W3C//DTD SVG 1.1//EN"
       "http://www.w3.org/Graphics/SVG/1.1/DTD/svg11.dtd">
<svg version="1.1" xmlns="http://www.w3.org/2000/svg" xmlns:xlink="http://www.w3.org/1999/xlink" width="24.9023" height="24.9146">
 <g>
  <rect height="24.9146" opacity="0" width="24.9023" x="0" y="0"/>
  <path d="M12.4512 24.9023C19.2627 24.9023 24.9023 19.2505 24.9023 12.4512C24.9023 5.63965 19.2505 0 12.439 0C5.63965 0 0 5.63965 0 12.4512C0 19.2505 5.65186 24.9023 12.4512 24.9023ZM7.59277 12.5732C7.59277 12.207 7.86133 11.9507 8.19092 11.9507L8.99658 11.9507L8.99658 7.36084C8.99658 6.83594 9.32617 6.53076 9.82666 6.53076C10.3149 6.53076 10.6323 6.83594 10.6323 7.36084L10.6323 11.9507L11.2061 11.9507L15.2832 6.90918C15.5029 6.61621 15.7227 6.50635 15.9546 6.50635C16.4062 6.50635 16.7358 6.83594 16.7358 7.26318C16.7358 7.42188 16.6504 7.62939 16.5161 7.80029L13.1348 11.9507L16.394 11.9507C16.7603 11.9507 17.0044 12.207 17.0044 12.5732C17.0044 12.915 16.7603 13.208 16.394 13.208L13.147 13.208L16.5283 17.395C16.6626 17.5781 16.7358 17.7856 16.7358 17.9443C16.7358 18.3716 16.394 18.7012 15.9546 18.7012C15.7227 18.7012 15.5029 18.5913 15.2832 18.3105L11.2305 13.208L10.6323 13.208L10.6323 17.8711C10.6323 18.3838 10.3027 18.7012 9.82666 18.7012C9.33838 18.7012 8.99658 18.3838 8.99658 17.8711L8.99658 13.208L8.19092 13.208C7.86133 13.208 7.59277 12.915 7.59277 12.5732Z" fill="#5ac8f5"/>
 </g>
</svg>
