<?xml version="1.0" encoding="UTF-8"?>
<!--Generator: Apple Native CoreSVG 175.5-->
<!DOCTYPE svg
PUBLIC "-//W3C//DTD SVG 1.1//EN"
       "http://www.w3.org/Graphics/SVG/1.1/DTD/svg11.dtd">
<svg version="1.1" xmlns="http://www.w3.org/2000/svg" xmlns:xlink="http://www.w3.org/1999/xlink" width="24.9023" height="24.9146">
 <g>
  <rect height="24.9146" opacity="0" width="24.9023" x="0" y="0"/>
  <path d="M12.4512 24.9023C19.2627 24.9023 24.9023 19.2505 24.9023 12.4512C24.9023 5.63965 19.2505 0 12.439 0C5.63965 0 0 5.63965 0 12.4512C0 19.2505 5.65186 24.9023 12.4512 24.9023ZM12.4512 22.8271C6.68945 22.8271 2.0874 18.2129 2.0874 12.4512C2.0874 6.68945 6.67725 2.0752 12.439 2.0752C18.2007 2.0752 22.8271 6.68945 22.8271 12.4512C22.8271 18.2129 18.2129 22.8271 12.4512 22.8271ZM8.82568 18.9209C9.14307 18.9209 9.32617 18.7378 9.8877 18.1885L12.3779 15.7349C12.4146 15.6982 12.4634 15.6982 12.5 15.7349L15.0024 18.1885C15.5518 18.7378 15.7349 18.9209 16.0522 18.9209C16.4551 18.9209 16.7114 18.6279 16.7114 18.1396L16.7114 7.86133C16.7114 6.67725 16.1011 6.05469 14.917 6.05469L9.96094 6.05469C8.77686 6.05469 8.1665 6.67725 8.1665 7.86133L8.1665 18.1396C8.1665 18.6279 8.42285 18.9209 8.82568 18.9209Z" fill="#5ac8f5"/>
 </g>
</svg>
