<?xml version="1.0" encoding="UTF-8"?>
<!--Generator: Apple Native CoreSVG 175.5-->
<!DOCTYPE svg
PUBLIC "-//W3C//DTD SVG 1.1//EN"
       "http://www.w3.org/Graphics/SVG/1.1/DTD/svg11.dtd">
<svg version="1.1" xmlns="http://www.w3.org/2000/svg" xmlns:xlink="http://www.w3.org/1999/xlink" width="22.4731" height="22.4976">
 <g>
  <rect height="22.4976" opacity="0" width="22.4731" x="0" y="0"/>
  <path d="M3.83301 22.4976L18.6401 22.4976C21.2036 22.4976 22.4731 21.228 22.4731 18.7134L22.4731 3.80859C22.4731 1.29395 21.2036 0.0244141 18.6401 0.0244141L3.83301 0.0244141C1.28174 0.0244141 0 1.28174 0 3.80859L0 18.7134C0 21.2402 1.28174 22.4976 3.83301 22.4976ZM3.85742 20.5322C2.63672 20.5322 1.96533 19.8853 1.96533 18.6157L1.96533 3.90625C1.96533 2.63672 2.63672 1.98975 3.85742 1.98975L18.6157 1.98975C19.8242 1.98975 20.5078 2.63672 20.5078 3.90625L20.5078 18.6157C20.5078 19.8853 19.8242 20.5322 18.6157 20.5322Z" fill="#5ac8f5" fill-opacity="0.5"/>
  <path d="M7.14111 16.5039C9.21631 16.5039 10.6567 15.2588 10.6567 13.501C10.6567 12.207 9.76562 11.1572 8.53271 11.0352L8.53271 10.9619C9.53369 10.791 10.3271 9.77783 10.3271 8.63037C10.3271 7.06787 9.04541 5.98145 7.22656 5.98145C5.56641 5.98145 4.3457 6.92139 4.02832 8.11768C4.00391 8.27637 3.9917 8.39844 3.9917 8.55713C3.9917 8.99658 4.27246 9.30176 4.6875 9.30176C5.05371 9.30176 5.24902 9.10645 5.37109 8.71582C5.63965 7.86133 6.23779 7.38525 7.18994 7.38525C8.1543 7.38525 8.82568 7.97119 8.82568 8.82568C8.82568 9.7168 8.14209 10.3638 7.17773 10.3638L6.51855 10.3638C6.11572 10.3638 5.84717 10.6445 5.84717 11.084C5.84717 11.4746 6.11572 11.7798 6.51855 11.7798L7.22656 11.7798C8.39844 11.7798 9.13086 12.439 9.13086 13.4277C9.13086 14.3799 8.3252 15.1001 7.15332 15.1001C6.18896 15.1001 5.51758 14.624 5.2002 13.7695C5.05371 13.3789 4.84619 13.1836 4.50439 13.1836C4.08936 13.1836 3.79639 13.4888 3.79639 13.916C3.79639 14.0869 3.80859 14.209 3.85742 14.3677C4.1748 15.4907 5.48096 16.5039 7.14111 16.5039ZM15.5518 16.5039C17.6758 16.5039 19.1284 15.2832 19.1284 13.5132C19.1284 12.2681 18.3594 11.2549 17.0532 10.9863L17.0532 10.9131C18.1763 10.6079 18.7744 9.729 18.7744 8.66699C18.7744 7.08008 17.4561 5.98145 15.5762 5.98145C13.7085 5.98145 12.3901 7.08008 12.3901 8.66699C12.3901 9.729 12.9761 10.5835 14.1113 10.9131L14.1113 10.9863C12.7808 11.2549 12.0361 12.2803 12.0361 13.5254C12.0361 15.3076 13.4399 16.5039 15.5518 16.5039ZM15.5884 15.2344C14.4287 15.2344 13.5864 14.4897 13.5864 13.4155C13.5864 12.3657 14.4287 11.5967 15.5884 11.5967C16.7725 11.5967 17.5903 12.3535 17.5903 13.4155C17.5903 14.4897 16.748 15.2344 15.5884 15.2344ZM15.5762 10.4248C14.624 10.4248 13.9526 9.74121 13.9526 8.81348C13.9526 7.88574 14.624 7.25098 15.5762 7.25098C16.5405 7.25098 17.2119 7.88574 17.2119 8.81348C17.2119 9.74121 16.5405 10.4248 15.5762 10.4248Z" fill="#5ac8f5"/>
 </g>
</svg>
