<?xml version="1.0" encoding="UTF-8"?>
<!--Generator: Apple Native CoreSVG 175.5-->
<!DOCTYPE svg
PUBLIC "-//W3C//DTD SVG 1.1//EN"
       "http://www.w3.org/Graphics/SVG/1.1/DTD/svg11.dtd">
<svg version="1.1" xmlns="http://www.w3.org/2000/svg" xmlns:xlink="http://www.w3.org/1999/xlink" width="24.9023" height="24.9146">
 <g>
  <rect height="24.9146" opacity="0" width="24.9023" x="0" y="0"/>
  <path d="M12.4512 24.9023C19.2627 24.9023 24.9023 19.2505 24.9023 12.4512C24.9023 5.63965 19.2505 0 12.439 0C5.63965 0 0 5.63965 0 12.4512C0 19.2505 5.65186 24.9023 12.4512 24.9023ZM12.4512 22.8271C6.68945 22.8271 2.0874 18.2129 2.0874 12.4512C2.0874 6.68945 6.67725 2.0752 12.439 2.0752C18.2007 2.0752 22.8271 6.68945 22.8271 12.4512C22.8271 18.2129 18.2129 22.8271 12.4512 22.8271ZM9.66797 17.4683C10.1074 17.4683 10.4126 17.1875 10.4126 16.9189L10.4126 16.6016L6.39648 12.915C6.00586 12.5488 5.79834 12.0972 5.79834 11.6211C5.79834 11.145 5.99365 10.7056 6.39648 10.3394L10.4126 6.66504L10.4126 6.35986C10.4126 6.05469 10.1074 5.78613 9.65576 5.78613C9.35059 5.78613 9.14307 5.9082 8.81348 6.22559L3.77197 10.9497C3.52783 11.1816 3.45459 11.4014 3.45459 11.6211C3.45459 11.8408 3.52783 12.0728 3.77197 12.3047L8.81348 17.041C9.13086 17.334 9.36279 17.4683 9.66797 17.4683ZM12.8906 17.4683C13.3057 17.4683 13.623 17.1509 13.623 16.7114L13.623 14.27L13.8184 14.27C16.2964 14.27 17.8955 14.9048 18.9697 16.9922C19.1772 17.3828 19.4702 17.4683 19.751 17.4683C20.105 17.4683 20.3979 17.1631 20.3979 16.626C20.3979 11.8896 18.3716 8.99658 13.8184 8.99658L13.623 8.99658L13.623 6.56738C13.623 6.14014 13.3057 5.78613 12.8784 5.78613C12.5732 5.78613 12.3657 5.92041 12.0361 6.22559L7.00684 10.9497C6.75049 11.1938 6.66504 11.4014 6.66504 11.6211C6.66504 11.8408 6.75049 12.0605 7.00684 12.3047L12.0361 17.041C12.3413 17.334 12.5977 17.4683 12.8906 17.4683Z" fill="#5ac8f5"/>
 </g>
</svg>
