<?xml version="1.0" encoding="UTF-8"?>
<!--Generator: Apple Native CoreSVG 175.5-->
<!DOCTYPE svg
PUBLIC "-//W3C//DTD SVG 1.1//EN"
       "http://www.w3.org/Graphics/SVG/1.1/DTD/svg11.dtd">
<svg version="1.1" xmlns="http://www.w3.org/2000/svg" xmlns:xlink="http://www.w3.org/1999/xlink" width="24.7192" height="28.4302">
 <g>
  <rect height="28.4302" opacity="0" width="24.7192" x="0" y="0"/>
  <path d="M12.3657 24.7192C19.1895 24.7192 24.7192 19.1895 24.7192 12.3657C24.7192 5.54199 19.1895 0 12.3657 0C5.52979 0 0 5.52979 0 12.3657C0 19.1895 5.52979 24.7192 12.3657 24.7192ZM12.3657 22.7539C6.61621 22.7539 1.96533 18.103 1.96533 12.3657C1.96533 6.61621 6.61621 1.96533 12.3657 1.96533C18.103 1.96533 22.7539 6.61621 22.7539 12.3657C22.7539 18.103 18.103 22.7539 12.3657 22.7539ZM11.377 23.9624L11.377 27.2705L13.3423 27.2705L13.3423 23.9624ZM5.88379 28.4302L18.8354 28.4302C19.2993 28.4302 19.5923 28.1006 19.5923 27.6245C19.5923 26.709 18.8477 26.062 17.688 26.062L7.04346 26.062C5.88379 26.062 5.13916 26.709 5.13916 27.6245C5.13916 28.1006 5.43213 28.4302 5.88379 28.4302Z" fill="#5ac8f5" fill-opacity="0.5"/>
  <path d="M8.47168 20.1294C10.2905 20.1294 11.2549 18.6035 12.3047 15.8203C12.5488 15.8325 12.7563 15.8203 12.9761 15.7837L12.9761 18.5547C12.9761 19.9585 13.6841 20.7153 15.0513 20.7153C17.5415 20.7153 20.0562 18.457 20.0562 16.333C20.0562 14.5142 18.5547 13.5742 15.8325 12.5488C15.8447 12.3047 15.8325 12.0728 15.8081 11.8164L18.4814 11.8164C19.873 11.8164 20.6421 11.1084 20.6421 9.74121C20.6421 7.25098 18.3838 4.73633 16.2598 4.73633C14.4653 4.73633 13.5132 6.21338 12.5 8.88672C12.2803 8.88672 11.9995 8.88672 11.7554 8.94775L11.7554 6.31104C11.7554 4.91943 11.0474 4.1626 9.68018 4.1626C7.17773 4.1626 4.66309 6.40869 4.66309 8.54492C4.66309 10.3516 6.17676 11.3037 8.89893 12.3291C8.89893 12.561 8.92334 12.8296 8.97217 13.0493L6.23779 13.0493C4.84619 13.0493 4.08936 13.7573 4.08936 15.1245C4.08936 17.627 6.33545 20.1294 8.47168 20.1294ZM12.3657 14.1724C11.3892 14.1724 10.6201 13.4033 10.6201 12.439C10.6201 11.4624 11.3892 10.6934 12.3657 10.6934C13.3301 10.6934 14.0991 11.4624 14.0991 12.439C14.0991 13.4033 13.3301 14.1724 12.3657 14.1724Z" fill="#5ac8f5"/>
 </g>
</svg>
