<?xml version="1.0" encoding="UTF-8"?>
<!--Generator: Apple Native CoreSVG 175.5-->
<!DOCTYPE svg
PUBLIC "-//W3C//DTD SVG 1.1//EN"
       "http://www.w3.org/Graphics/SVG/1.1/DTD/svg11.dtd">
<svg version="1.1" xmlns="http://www.w3.org/2000/svg" xmlns:xlink="http://www.w3.org/1999/xlink" width="20.5322" height="26.1841">
 <g>
  <rect height="26.1841" opacity="0" width="20.5322" x="0" y="0"/>
  <path d="M3.78418 26.1719L16.748 26.1719C19.2749 26.1719 20.5322 24.8901 20.5322 22.3511L20.5322 11.2671C20.5322 9.69238 20.3491 9.00879 19.3726 8.00781L12.6465 1.15967C11.7188 0.20752 10.9497 0 9.58252 0L3.78418 0C1.26953 0 0 1.29395 0 3.83301L0 22.3511C0 24.9023 1.25732 26.1719 3.78418 26.1719ZM3.86963 24.2065C2.6123 24.2065 1.96533 23.5352 1.96533 22.3145L1.96533 3.86963C1.96533 2.66113 2.6123 1.96533 3.88184 1.96533L9.31396 1.96533L9.31396 9.05762C9.31396 10.5957 10.083 11.3525 11.6089 11.3525L18.5669 11.3525L18.5669 22.3145C18.5669 23.5352 17.9199 24.2065 16.6504 24.2065ZM11.8286 9.50928C11.3403 9.50928 11.1572 9.31396 11.1572 8.82568L11.1572 2.34375L18.1885 9.50928Z" fill="#5ac8f5" fill-opacity="0.5"/>
  <path d="M11.1938 13.6597C11.1938 13.1592 10.7666 12.7563 10.2661 12.7563C9.76562 12.7563 9.33838 13.1592 9.33838 13.6597L9.33838 18.0908L9.41162 20.0806L8.37402 19.0063L7.27539 17.8833C7.10449 17.7002 6.84814 17.6025 6.61621 17.6025C6.11572 17.6025 5.76172 17.9565 5.76172 18.4448C5.76172 18.7256 5.87158 18.9331 6.06689 19.104L9.58252 22.3389C9.83887 22.5708 10.0342 22.6562 10.2661 22.6562C10.498 22.6562 10.6934 22.5708 10.9497 22.3389L14.4653 19.104C14.6606 18.9331 14.7705 18.7256 14.7705 18.4448C14.7705 17.9565 14.4043 17.6025 13.916 17.6025C13.6719 17.6025 13.4277 17.7002 13.2568 17.8833L12.1582 19.0063L11.1206 20.0806L11.1938 18.0908Z" fill="#5ac8f5"/>
 </g>
</svg>
