<?xml version="1.0" encoding="UTF-8"?>
<!--Generator: Apple Native CoreSVG 175.5-->
<!DOCTYPE svg
PUBLIC "-//W3C//DTD SVG 1.1//EN"
       "http://www.w3.org/Graphics/SVG/1.1/DTD/svg11.dtd">
<svg version="1.1" xmlns="http://www.w3.org/2000/svg" xmlns:xlink="http://www.w3.org/1999/xlink" width="25.6592" height="24.5605">
 <g>
  <rect height="24.5605" opacity="0" width="25.6592" x="0" y="0"/>
  <path d="M25.6592 5.86548C25.6592 5.3894 25.2686 5.01099 24.7925 5.01099L24.7314 5.01099C23.4131 5.01099 22.6807 4.46167 21.7651 3.8147C20.9717 3.24097 19.9829 2.53296 18.6279 2.53296C17.2241 2.53296 16.2231 3.27759 15.4297 3.87573C14.5874 4.5105 13.916 5.01099 12.8296 5.01099C11.731 5.01099 11.0718 4.5105 10.2295 3.87573C9.43604 3.27759 8.43506 2.53296 7.03125 2.53296C6.67725 2.53296 6.34766 2.58179 6.04248 2.66724L8.08105 4.6936C8.14209 4.73022 8.23975 4.77905 8.31299 4.81567C9.55811 5.3894 10.4492 6.73218 12.8296 6.73218C16.1499 6.73218 16.687 4.25415 18.6279 4.25415C20.6055 4.25415 20.9229 6.73218 24.7314 6.73218L24.7925 6.73218C25.2686 6.73218 25.6592 6.34155 25.6592 5.86548ZM0 13.4949C0 13.9709 0.378418 14.3494 0.866699 14.3494L0.927734 14.3494C4.72412 14.3494 5.05371 11.8713 7.03125 11.8713C7.86133 11.8713 8.25195 12.4817 9.09424 12.6648L7.22656 10.7971C7.06787 10.7483 6.92139 10.6506 6.78711 10.553C6.604 10.4309 6.4209 10.2844 6.15234 10.2844C5.59082 10.2844 4.49219 10.9924 3.89404 11.4319C2.97852 12.0911 2.23389 12.6282 0.927734 12.6282L0.866699 12.6282C0.378418 12.6282 0 13.0188 0 13.4949ZM25.6592 13.4949C25.6592 13.0188 25.2686 12.6282 24.7925 12.6282L24.7314 12.6282C23.4131 12.6282 22.6807 12.0911 21.7651 11.4319C20.9717 10.8582 19.9829 10.1501 18.6279 10.1501C17.2241 10.1501 16.2231 10.907 15.4297 11.4929C15.3198 11.5784 15.2222 11.6638 15.1123 11.7249L16.3818 13.0066C17.1021 12.4329 17.688 11.8713 18.6279 11.8713C20.6055 11.8713 20.9229 14.3494 24.7314 14.3494L24.7925 14.3494C25.2686 14.3494 25.6592 13.9709 25.6592 13.4949ZM0 21.1121C0 21.5881 0.378418 21.9788 0.866699 21.9788L0.927734 21.9788C4.72412 21.9788 5.05371 19.5007 7.03125 19.5007C8.97217 19.5007 9.49707 21.9788 12.8296 21.9788C14.9536 21.9788 15.918 20.929 16.9189 20.2332L15.6494 18.9636C14.7339 19.5984 14.0381 20.2576 12.8296 20.2576C11.731 20.2576 11.0718 19.7571 10.2295 19.1101C9.43604 18.5242 8.43506 17.7795 7.03125 17.7795C5.67627 17.7795 4.6875 18.4753 3.89404 19.0613C2.97852 19.7083 2.23389 20.2576 0.927734 20.2576L0.866699 20.2576C0.378418 20.2576 0 20.636 0 21.1121ZM22.9858 24.2859C23.3521 24.6521 23.9624 24.6521 24.3164 24.2859C24.6704 23.9075 24.6826 23.3215 24.3164 22.9553L2.58789 1.2146C2.22168 0.860596 1.61133 0.848389 1.24512 1.2146C0.891113 1.58081 0.891113 2.19116 1.24512 2.54517Z" fill="#5ac8f5"/>
 </g>
</svg>
