<?xml version="1.0" encoding="UTF-8"?>
<!--Generator: Apple Native CoreSVG 175.5-->
<!DOCTYPE svg
PUBLIC "-//W3C//DTD SVG 1.1//EN"
       "http://www.w3.org/Graphics/SVG/1.1/DTD/svg11.dtd">
<svg version="1.1" xmlns="http://www.w3.org/2000/svg" xmlns:xlink="http://www.w3.org/1999/xlink" width="39.0381" height="25.8667">
 <g>
  <rect height="25.8667" opacity="0" width="39.0381" x="0" y="0"/>
  <path d="M15.2588 23.877C14.2212 23.877 13.6475 23.3276 13.6475 22.3511L13.6475 3.49121C13.6475 2.51465 14.2212 1.96533 15.2588 1.96533L16.8213 1.96533C17.0166 1.96533 17.1143 2.06299 17.1143 2.24609L17.1143 2.52686C17.1143 3.03955 17.4561 3.38135 17.9565 3.38135L21.1182 3.38135C21.6187 3.38135 21.9482 3.03955 21.9482 2.52686L21.9482 2.24609C21.9482 2.06299 22.0459 1.96533 22.2412 1.96533L23.8037 1.96533C24.8291 1.96533 25.4028 2.51465 25.4028 3.49121L25.4028 22.3511C25.4028 23.3276 24.8291 23.877 23.8037 23.877Z" fill="#5ac8f5" fill-opacity="0.25"/>
  <path d="M15.0024 25.8423L24.0479 25.8423C26.0376 25.8423 27.3682 24.5728 27.3682 22.6685L27.3682 3.17383C27.3682 1.26953 26.0376 0 24.0479 0L15.0024 0C13.0127 0 11.6821 1.26953 11.6821 3.17383L11.6821 22.6685C11.6821 24.5728 13.0127 25.8423 15.0024 25.8423ZM15.2588 23.877C14.2212 23.877 13.6475 23.3276 13.6475 22.3511L13.6475 3.49121C13.6475 2.51465 14.2212 1.96533 15.2588 1.96533L16.8213 1.96533C17.0166 1.96533 17.1143 2.06299 17.1143 2.24609L17.1143 2.52686C17.1143 3.03955 17.4561 3.38135 17.9565 3.38135L21.1182 3.38135C21.6187 3.38135 21.9482 3.03955 21.9482 2.52686L21.9482 2.24609C21.9482 2.06299 22.0459 1.96533 22.2412 1.96533L23.8037 1.96533C24.8291 1.96533 25.4028 2.51465 25.4028 3.49121L25.4028 22.3511C25.4028 23.3276 24.8291 23.877 23.8037 23.877ZM16.9434 22.9858L22.1313 22.9858C22.4609 22.9858 22.6929 22.7539 22.6929 22.4121C22.6929 22.0703 22.4609 21.8506 22.1313 21.8506L16.9434 21.8506C16.6138 21.8506 16.3696 22.0703 16.3696 22.4121C16.3696 22.7539 16.6138 22.9858 16.9434 22.9858Z" fill="#5ac8f5"/>
  <path d="M8.12988 17.7979C8.52051 17.3584 8.36182 16.8091 7.97119 16.2842C7.23877 15.3687 6.88477 14.1968 6.88477 12.9272C6.88477 11.6577 7.23877 10.4736 7.97119 9.57031C8.36182 9.04541 8.52051 8.49609 8.12988 8.05664C7.72705 7.59277 6.99463 7.59277 6.56738 8.14209C5.50537 9.46045 4.89502 11.1328 4.89502 12.9272C4.89502 14.7217 5.50537 16.394 6.56738 17.7124C6.99463 18.2617 7.72705 18.2495 8.12988 17.7979ZM30.9082 17.7979C31.311 18.2495 32.0435 18.2617 32.4707 17.7124C33.5327 16.394 34.1553 14.7217 34.1553 12.9272C34.1553 11.1328 33.5327 9.46045 32.4707 8.14209C32.0435 7.59277 31.311 7.59277 30.9082 8.05664C30.5176 8.49609 30.6885 9.04541 31.0669 9.57031C31.7993 10.4736 32.1655 11.6577 32.1655 12.9272C32.1655 14.1968 31.7993 15.3687 31.0669 16.2842C30.6885 16.8091 30.5176 17.3584 30.9082 17.7979Z" fill="#5ac8f5" fill-opacity="0.5"/>
  <path d="M4.71191 21.2769C5.10254 20.8374 4.98047 20.2637 4.54102 19.7632C2.90527 17.9443 1.98975 15.5518 1.98975 12.9272C1.98975 10.3027 2.90527 7.91016 4.54102 6.09131C4.98047 5.59082 5.10254 5.01709 4.71191 4.57764C4.32129 4.11377 3.6377 4.12598 3.17383 4.63867C1.14746 6.83594 0 9.76562 0 12.9272C0 16.0889 1.14746 19.0063 3.17383 21.2158C3.6377 21.7285 4.32129 21.7285 4.71191 21.2769ZM34.3262 21.2769C34.7168 21.7285 35.4004 21.7285 35.8765 21.2158C37.9028 19.0063 39.0381 16.0889 39.0381 12.9272C39.0381 9.76562 37.9028 6.83594 35.8765 4.63867C35.4004 4.12598 34.7168 4.11377 34.3262 4.57764C33.9355 5.01709 34.0576 5.59082 34.4971 6.09131C36.1328 7.91016 37.0483 10.3027 37.0483 12.9272C37.0483 15.5518 36.1328 17.9443 34.4971 19.7632C34.0576 20.2637 33.9355 20.8374 34.3262 21.2769Z" fill="#5ac8f5" fill-opacity="0.5"/>
 </g>
</svg>
