<?xml version="1.0" encoding="UTF-8"?>
<!--Generator: Apple Native CoreSVG 175.5-->
<!DOCTYPE svg
PUBLIC "-//W3C//DTD SVG 1.1//EN"
       "http://www.w3.org/Graphics/SVG/1.1/DTD/svg11.dtd">
<svg version="1.1" xmlns="http://www.w3.org/2000/svg" xmlns:xlink="http://www.w3.org/1999/xlink" width="22.4731" height="22.4976">
 <g>
  <rect height="22.4976" opacity="0" width="22.4731" x="0" y="0"/>
  <path d="M3.83301 22.4976L18.6401 22.4976C21.2036 22.4976 22.4731 21.228 22.4731 18.7134L22.4731 3.80859C22.4731 1.29395 21.2036 0.0244141 18.6401 0.0244141L3.83301 0.0244141C1.28174 0.0244141 0 1.28174 0 3.80859L0 18.7134C0 21.2402 1.28174 22.4976 3.83301 22.4976ZM3.85742 20.5322C2.63672 20.5322 1.96533 19.8853 1.96533 18.6157L1.96533 3.90625C1.96533 2.63672 2.63672 1.98975 3.85742 1.98975L18.6157 1.98975C19.8242 1.98975 20.5078 2.63672 20.5078 3.90625L20.5078 18.6157C20.5078 19.8853 19.8242 20.5322 18.6157 20.5322ZM7.73926 17.5415L11.2427 14.9658L14.7461 17.5415C15.4663 18.0786 16.2109 17.5171 15.9424 16.687L14.5508 12.5488L18.0908 10.022C18.7378 9.5459 18.5425 8.59375 17.6392 8.60596L13.2935 8.64258L11.9629 4.47998C11.7065 3.67432 10.7788 3.67432 10.5225 4.47998L9.19189 8.64258L4.84619 8.60596C3.95508 8.59375 3.73535 9.53369 4.39453 10.022L7.93457 12.5488L6.55518 16.687C6.27441 17.5171 7.03125 18.0786 7.73926 17.5415Z" fill="#5ac8f5"/>
 </g>
</svg>
