<?xml version="1.0" encoding="UTF-8"?>
<!--Generator: Apple Native CoreSVG 175.5-->
<!DOCTYPE svg
PUBLIC "-//W3C//DTD SVG 1.1//EN"
       "http://www.w3.org/Graphics/SVG/1.1/DTD/svg11.dtd">
<svg version="1.1" xmlns="http://www.w3.org/2000/svg" xmlns:xlink="http://www.w3.org/1999/xlink" width="25.9125" height="22.6196">
 <g>
  <rect height="22.6196" opacity="0" width="25.9125" x="0" y="0"/>
  <path d="M0.407423 10.3027L4.49678 14.4043C5.0583 14.9658 5.97383 14.978 6.52315 14.2944L9.09883 11.1206C9.26973 10.9253 9.53828 11.0352 9.53828 11.2793L9.53828 16.687L4.92402 16.1743C3.33711 15.9912 2.82441 18.3228 4.35029 18.8232L9.58711 20.5566C9.33076 21.6431 10.2707 22.5708 11.3449 22.2168L12.9563 21.6919L14.5676 22.2168C15.6418 22.5708 16.5817 21.6431 16.3254 20.5566L21.5744 18.8232C23.1003 18.3228 22.5754 15.9912 20.9885 16.1743L16.3742 16.687L16.3742 11.2793C16.3742 11.0352 16.655 10.9253 16.8137 11.1206L19.3894 14.2944C19.9387 14.978 20.8542 14.9658 21.4157 14.4043L25.5051 10.3027C26.0422 9.75342 26.0544 8.91113 25.5051 8.37402C24.9802 7.84912 24.1135 7.84912 23.5764 8.37402L20.5612 11.4014L17.4851 7.62939C16.9724 7.00684 16.2033 6.61621 15.3854 6.61621L10.5393 6.61621C9.70918 6.61621 8.95234 7.00684 8.42744 7.62939L5.35127 11.4014L2.33613 8.37402C1.79902 7.84912 0.932325 7.84912 0.407423 8.37402C-0.141894 8.91113-0.129687 9.75342 0.407423 10.3027ZM12.9563 5.33447C14.4211 5.33447 15.6052 4.13818 15.6052 2.64893C15.6052 1.18408 14.4211 0 12.9563 0C11.467 0 10.2707 1.18408 10.2707 2.64893C10.2707 4.13818 11.467 5.33447 12.9563 5.33447Z" fill="#5ac8f5"/>
 </g>
</svg>
