<?xml version="1.0" encoding="UTF-8"?>
<!--Generator: Apple Native CoreSVG 175.5-->
<!DOCTYPE svg
PUBLIC "-//W3C//DTD SVG 1.1//EN"
       "http://www.w3.org/Graphics/SVG/1.1/DTD/svg11.dtd">
<svg version="1.1" xmlns="http://www.w3.org/2000/svg" xmlns:xlink="http://www.w3.org/1999/xlink" width="26.9043" height="26.8188">
 <g>
  <rect height="26.8188" opacity="0" width="26.9043" x="0" y="0"/>
  <path d="M7.50732 26.8188C8.10547 26.8188 8.52051 26.5015 9.26514 25.8423L13.4766 22.0947L21.3135 22.0947C24.9512 22.0947 26.9043 20.0806 26.9043 16.5039L26.9043 7.15332C26.9043 3.57666 24.9512 1.5625 21.3135 1.5625L5.59082 1.5625C1.95312 1.5625 0 3.56445 0 7.15332L0 16.5039C0 20.0928 1.95312 22.0947 5.59082 22.0947L6.17676 22.0947L6.17676 25.2686C6.17676 26.2085 6.65283 26.8188 7.50732 26.8188ZM8.00781 24.585L8.00781 21.0449C8.00781 20.3857 7.75146 20.1294 7.09229 20.1294L5.59082 20.1294C3.125 20.1294 1.96533 18.8721 1.96533 16.4917L1.96533 7.15332C1.96533 4.77295 3.125 3.52783 5.59082 3.52783L21.3135 3.52783C23.7671 3.52783 24.939 4.77295 24.939 7.15332L24.939 16.4917C24.939 18.8721 23.7671 20.1294 21.3135 20.1294L13.4033 20.1294C12.7197 20.1294 12.3779 20.2271 11.9141 20.7031Z" fill="#5ac8f5" fill-opacity="0.5"/>
  <path d="M6.43311 11.5234L11.792 11.5234C12.6709 11.5234 13.1104 11.0962 13.1104 10.2051L13.1104 7.77588C13.1104 6.89697 12.6709 6.48193 11.792 6.48193L6.43311 6.48193C5.54199 6.48193 5.09033 6.89697 5.09033 7.77588L5.09033 10.2051C5.09033 11.0962 5.54199 11.5234 6.43311 11.5234ZM7.91016 17.1387L12.5122 17.1387C13.3911 17.1387 13.8306 16.7114 13.8306 15.8203L13.8306 14.1724C13.8306 13.2935 13.3911 12.8662 12.5122 12.8662L7.91016 12.8662C7.03125 12.8662 6.5918 13.2935 6.5918 14.1724L6.5918 15.8203C6.5918 16.7114 7.03125 17.1387 7.91016 17.1387ZM16.5283 16.4062L20.3369 16.4062C21.2158 16.4062 21.6553 15.979 21.6553 15.1001L21.6553 8.61816C21.6553 7.73926 21.2158 7.31201 20.3369 7.31201L16.5283 7.31201C15.6372 7.31201 15.1978 7.73926 15.1978 8.61816L15.1978 15.1001C15.1978 15.979 15.6372 16.4062 16.5283 16.4062Z" fill="#5ac8f5"/>
 </g>
</svg>
