<?xml version="1.0" encoding="UTF-8"?>
<!--Generator: Apple Native CoreSVG 175.5-->
<!DOCTYPE svg
PUBLIC "-//W3C//DTD SVG 1.1//EN"
       "http://www.w3.org/Graphics/SVG/1.1/DTD/svg11.dtd">
<svg version="1.1" xmlns="http://www.w3.org/2000/svg" xmlns:xlink="http://www.w3.org/1999/xlink" width="22.4731" height="22.4976">
 <g>
  <rect height="22.4976" opacity="0" width="22.4731" x="0" y="0"/>
  <path d="M3.83301 22.4976L18.6401 22.4976C21.2036 22.4976 22.4731 21.228 22.4731 18.7134L22.4731 3.80859C22.4731 1.29395 21.2036 0.0244141 18.6401 0.0244141L3.83301 0.0244141C1.28174 0.0244141 0 1.28174 0 3.80859L0 18.7134C0 21.2402 1.28174 22.4976 3.83301 22.4976Z" fill="#5ac8f5" fill-opacity="0.25"/>
  <path d="M7.04346 16.6748C5.33447 16.6748 4.00391 15.625 3.66211 14.4653C3.62549 14.3066 3.60107 14.1724 3.60107 14.0015C3.60107 13.562 3.90625 13.2446 4.3335 13.2446C4.6875 13.2446 4.89502 13.4399 5.05371 13.8428C5.39551 14.7217 6.06689 15.21 7.05566 15.21C8.26416 15.21 9.10645 14.4775 9.10645 13.501C9.10645 12.4756 8.3374 11.8042 7.15332 11.8042L6.40869 11.8042C5.99365 11.8042 5.7251 11.4868 5.7251 11.084C5.7251 10.6201 6.00586 10.3271 6.40869 10.3271L7.09229 10.3271C8.09326 10.3271 8.78906 9.66797 8.78906 8.75244C8.78906 7.87354 8.09326 7.27539 7.10449 7.27539C6.11572 7.27539 5.51758 7.76367 5.23682 8.64258C5.11475 9.04541 4.90723 9.24072 4.52881 9.24072C4.08936 9.24072 3.80859 8.92334 3.80859 8.47168C3.80859 8.31299 3.80859 8.17871 3.84521 8.02002C4.1748 6.78711 5.43213 5.81055 7.14111 5.81055C9.00879 5.81055 10.3516 6.93359 10.3516 8.54492C10.3516 9.729 9.53369 10.7788 8.48389 10.9497L8.48389 11.0229C9.75342 11.1572 10.6934 12.2314 10.6934 13.5742C10.6934 15.3809 9.19189 16.6748 7.04346 16.6748ZM13.0981 16.3818C12.6587 16.3818 12.3657 16.0889 12.3657 15.6372C12.3657 15.3809 12.4512 15.1611 12.6465 14.9536L15.9546 11.0474C16.5527 10.3516 17.2119 9.64355 17.2119 8.82568C17.2119 7.89795 16.5649 7.27539 15.564 7.27539C14.6606 7.27539 14.0137 7.72705 13.6963 8.6792C13.5376 9.05762 13.3423 9.26514 12.9761 9.26514C12.5366 9.26514 12.2681 8.95996 12.2681 8.5083C12.2681 8.36182 12.2925 8.21533 12.3291 8.05664C12.6587 6.7749 14.0015 5.81055 15.4907 5.81055C17.4683 5.81055 18.75 6.93359 18.75 8.69141C18.75 9.94873 18.0542 10.8521 17.1265 11.9385L14.6606 14.7949L14.6606 14.8926L18.3105 14.8926C18.7134 14.8926 19.0186 15.1489 19.0186 15.625C19.0186 16.0767 18.7134 16.3818 18.3105 16.3818Z" fill="#5ac8f5"/>
 </g>
</svg>
