<?xml version="1.0" encoding="UTF-8"?>
<!--Generator: Apple Native CoreSVG 175.5-->
<!DOCTYPE svg
PUBLIC "-//W3C//DTD SVG 1.1//EN"
       "http://www.w3.org/Graphics/SVG/1.1/DTD/svg11.dtd">
<svg version="1.1" xmlns="http://www.w3.org/2000/svg" xmlns:xlink="http://www.w3.org/1999/xlink" width="32.959" height="25.0854">
 <g>
  <rect height="25.0854" opacity="0" width="32.959" x="0" y="0"/>
  <path d="M3.83301 23.6328L24.2554 23.6328C26.4404 23.6328 27.7222 22.1191 27.7222 19.6045L27.7222 16.4673L18.6401 16.4673C15.1733 16.4673 13.1348 14.4653 13.1348 11.0229L13.1348 9.83887L0 9.83887L0 19.8486C0 22.3755 1.28174 23.6328 3.83301 23.6328ZM0 8.23975L13.1348 8.23975L13.1348 4.40674C13.1348 4.11377 13.1348 3.83301 13.1348 3.52783C12.7808 3.52783 12.5244 3.52783 12.1704 3.52783C11.3403 3.52783 10.8398 3.33252 10.2295 2.80762L9.48486 2.19727C8.6792 1.51367 8.05664 1.29395 6.84814 1.29395L3.36914 1.29395C1.23291 1.29395 0 2.51465 0 4.96826Z" fill="#5ac8f5" fill-opacity="0.5"/>
  <path d="M18.6401 14.8071L29.126 14.8071C31.6772 14.8071 32.959 13.5376 32.959 11.0229L32.959 3.78418C32.959 1.25732 31.6772 0 29.126 0L18.6401 0C16.0889 0 14.8193 1.25732 14.8193 3.78418L14.8193 11.0229C14.8193 13.5376 16.0889 14.8071 18.6401 14.8071ZM23.8892 11.2793C23.4375 11.2793 23.1445 10.9863 23.1445 10.5347L23.1445 8.1543L20.752 8.1543C20.3125 8.1543 20.0073 7.86133 20.0073 7.39746C20.0073 6.9458 20.3125 6.65283 20.752 6.65283L23.1445 6.65283L23.1445 4.27246C23.1445 3.8208 23.4375 3.51562 23.8892 3.51562C24.3408 3.51562 24.6338 3.8208 24.6338 4.27246L24.6338 6.65283L27.0142 6.65283C27.4658 6.65283 27.771 6.9458 27.771 7.39746C27.771 7.86133 27.4658 8.1543 27.0142 8.1543L24.6338 8.1543L24.6338 10.5347C24.6338 10.9863 24.3408 11.2793 23.8892 11.2793Z" fill="#5ac8f5"/>
 </g>
</svg>
