<?xml version="1.0" encoding="UTF-8"?>
<!--Generator: Apple Native CoreSVG 175.5-->
<!DOCTYPE svg
PUBLIC "-//W3C//DTD SVG 1.1//EN"
       "http://www.w3.org/Graphics/SVG/1.1/DTD/svg11.dtd">
<svg version="1.1" xmlns="http://www.w3.org/2000/svg" xmlns:xlink="http://www.w3.org/1999/xlink" width="24.9023" height="24.9146">
 <g>
  <rect height="24.9146" opacity="0" width="24.9023" x="0" y="0"/>
  <path d="M12.4512 24.9023C19.2627 24.9023 24.9023 19.2505 24.9023 12.4512C24.9023 5.63965 19.2505 0 12.439 0C5.63965 0 0 5.63965 0 12.4512C0 19.2505 5.65186 24.9023 12.4512 24.9023ZM12.4512 22.8271C6.68945 22.8271 2.0874 18.2129 2.0874 12.4512C2.0874 6.68945 6.67725 2.0752 12.439 2.0752C18.2007 2.0752 22.8271 6.68945 22.8271 12.4512C22.8271 18.2129 18.2129 22.8271 12.4512 22.8271Z" fill="#5ac8f5" fill-opacity="0.5"/>
  <path d="M10.7788 16.9434C11.2183 16.9434 11.5967 16.6016 11.5967 15.979L11.5967 8.94775C11.5967 8.3252 11.2183 7.9834 10.7788 7.9834C10.5469 7.9834 10.3638 8.05664 10.1196 8.19092L4.29688 11.6211C3.90625 11.853 3.73535 12.146 3.73535 12.4634C3.73535 12.7808 3.90625 13.0737 4.29688 13.3057L10.1196 16.7358C10.3638 16.8701 10.5469 16.9434 10.7788 16.9434ZM18.6157 16.9434C19.0552 16.9434 19.4214 16.6016 19.4214 15.979L19.4214 8.94775C19.4214 8.3252 19.0552 7.9834 18.6157 7.9834C18.3838 7.9834 18.1763 8.05664 17.9565 8.19092L12.1338 11.6211C11.731 11.853 11.5601 12.146 11.5601 12.4634C11.5601 12.7808 11.731 13.0737 12.1338 13.3057L17.9565 16.7358C18.1763 16.8701 18.3838 16.9434 18.6157 16.9434Z" fill="#5ac8f5"/>
 </g>
</svg>
