<?xml version="1.0" encoding="UTF-8"?>
<!--Generator: Apple Native CoreSVG 175.5-->
<!DOCTYPE svg
PUBLIC "-//W3C//DTD SVG 1.1//EN"
       "http://www.w3.org/Graphics/SVG/1.1/DTD/svg11.dtd">
<svg version="1.1" xmlns="http://www.w3.org/2000/svg" xmlns:xlink="http://www.w3.org/1999/xlink" width="22.2168" height="22.229">
 <g>
  <rect height="22.229" opacity="0" width="22.2168" x="0" y="0"/>
  <path d="M20.7886 1.44043C19.5435 0.195312 17.7856 0 15.6982 0L6.48193 0C4.43115 0 2.67334 0.195312 1.42822 1.44043C0.183105 2.68555 0 4.43115 0 6.46973L0 15.6982C0 17.7856 0.183105 19.519 1.42822 20.7642C2.67334 22.0093 4.43115 22.2046 6.50635 22.2046L15.6982 22.2046C17.7856 22.2046 19.5435 22.0093 20.7886 20.7642C22.0337 19.519 22.2168 17.7856 22.2168 15.6982L22.2168 6.50635C22.2168 4.41895 22.0337 2.67334 20.7886 1.44043ZM11.1206 4.69971C11.6821 4.69971 12.0728 5.09033 12.0728 5.65186L12.0728 11.9141L11.9751 14.5996L13.2446 13.0737L14.7217 11.5723C14.8926 11.377 15.1245 11.2915 15.3931 11.2915C15.918 11.2915 16.3208 11.6821 16.3208 12.207C16.3208 12.4756 16.2354 12.6953 16.0645 12.8662L11.8652 17.041C11.6211 17.2852 11.4136 17.4072 11.1206 17.4072C10.8521 17.4072 10.6567 17.2974 10.4004 17.041L6.20117 12.8662C6.01807 12.6953 5.94482 12.4756 5.94482 12.207C5.94482 11.6821 6.33545 11.2915 6.86035 11.2915C7.12891 11.2915 7.36084 11.3892 7.53174 11.5723L9.021 13.0737L10.2783 14.5874L10.1807 11.9141L10.1807 5.65186C10.1807 5.09033 10.5713 4.69971 11.1206 4.69971Z" fill="#5ac8f5"/>
 </g>
</svg>
