<?xml version="1.0" encoding="UTF-8"?>
<!--Generator: Apple Native CoreSVG 175.5-->
<!DOCTYPE svg
PUBLIC "-//W3C//DTD SVG 1.1//EN"
       "http://www.w3.org/Graphics/SVG/1.1/DTD/svg11.dtd">
<svg version="1.1" xmlns="http://www.w3.org/2000/svg" xmlns:xlink="http://www.w3.org/1999/xlink" width="24.9023" height="24.9146">
 <g>
  <rect height="24.9146" opacity="0" width="24.9023" x="0" y="0"/>
  <path d="M12.4512 24.9023C19.2627 24.9023 24.9023 19.2505 24.9023 12.4512C24.9023 5.63965 19.2505 0 12.439 0C5.63965 0 0 5.63965 0 12.4512C0 19.2505 5.65186 24.9023 12.4512 24.9023ZM12.4512 22.8271C6.68945 22.8271 2.0874 18.2129 2.0874 12.4512C2.0874 6.68945 6.67725 2.0752 12.439 2.0752C18.2007 2.0752 22.8271 6.68945 22.8271 12.4512C22.8271 18.2129 18.2129 22.8271 12.4512 22.8271Z" fill="#5ac8f5" fill-opacity="0.5"/>
  <path d="M9.8877 17.688C10.3882 17.688 10.6445 17.3462 10.6445 16.8701L10.6445 15.4297L11.3037 15.4297C11.7188 15.4297 11.9873 15.1855 11.9873 14.7583C11.9873 14.3188 11.7188 14.0625 11.3037 14.0625L10.6445 14.0625L10.6445 8.34961C10.6445 7.6416 10.144 7.18994 9.43604 7.18994C8.72803 7.18994 8.30078 7.4585 7.89795 8.12988C6.88477 9.83887 5.65186 11.9385 4.82178 13.4155C4.62646 13.7939 4.55322 14.0625 4.55322 14.3921C4.55322 15.0391 4.98047 15.4297 5.60303 15.4297L9.16748 15.4297L9.16748 16.8701C9.16748 17.334 9.41162 17.688 9.8877 17.688ZM9.16748 14.0625L6.15234 14.0625L6.15234 14.0137C6.87256 12.6343 8.12988 10.4858 9.09424 8.83789L9.16748 8.83789ZM16.4185 17.7124C18.5669 17.7124 19.9951 16.394 19.9951 14.2456C19.9951 12.3657 18.7256 10.9985 16.8457 10.9985C16.0278 10.9985 15.1489 11.4014 14.7827 11.9507L14.7339 11.9507L14.9658 8.81348L19.0063 8.81348C19.3481 8.81348 19.6045 8.53271 19.6045 8.12988C19.6045 7.73926 19.3604 7.44629 19.0063 7.44629L14.8071 7.44629C14.1602 7.44629 13.7329 7.83691 13.6963 8.48389L13.4033 12.2925C13.3545 12.9272 13.6963 13.3423 14.2578 13.3423C14.6362 13.3423 14.856 13.2446 15.2466 12.9272C15.7593 12.4878 16.1377 12.3047 16.6748 12.3047C17.749 12.3047 18.4814 13.1592 18.4814 14.2822C18.4814 15.564 17.6758 16.333 16.4917 16.333C15.6616 16.333 14.9536 15.8936 14.5996 15.1611C14.4165 14.8071 14.1846 14.6362 13.8916 14.6362C13.4888 14.6362 13.208 14.9414 13.208 15.3442C13.208 15.5396 13.2568 15.7227 13.3179 15.8936C13.6841 16.9067 14.8926 17.7124 16.4185 17.7124Z" fill="#5ac8f5"/>
 </g>
</svg>
