<?xml version="1.0" encoding="UTF-8"?>
<!--Generator: Apple Native CoreSVG 175.5-->
<!DOCTYPE svg
PUBLIC "-//W3C//DTD SVG 1.1//EN"
       "http://www.w3.org/Graphics/SVG/1.1/DTD/svg11.dtd">
<svg version="1.1" xmlns="http://www.w3.org/2000/svg" xmlns:xlink="http://www.w3.org/1999/xlink" width="24.9023" height="24.9146">
 <g>
  <rect height="24.9146" opacity="0" width="24.9023" x="0" y="0"/>
  <path d="M12.4512 24.9023C19.2627 24.9023 24.9023 19.2505 24.9023 12.4512C24.9023 5.63965 19.2505 0 12.439 0C5.63965 0 0 5.63965 0 12.4512C0 19.2505 5.65186 24.9023 12.4512 24.9023Z" fill="#5ac8f5" fill-opacity="0.25"/>
  <path d="M11.0718 18.4326C10.3516 18.4326 9.99756 18.0054 9.99756 17.4316L9.99756 13.4399L8.99658 13.8794C8.88672 13.916 8.78906 13.9404 8.6792 13.9404C8.3252 13.9404 8.08105 13.6841 8.08105 13.3301C8.08105 13.0493 8.20312 12.8662 8.5083 12.7319L9.99756 12.1094L9.99756 10.9131L8.99658 11.3403C8.88672 11.3892 8.78906 11.4136 8.6792 11.4136C8.3252 11.4136 8.08105 11.1694 8.08105 10.8154C8.08105 10.5225 8.20312 10.3394 8.5083 10.2173L9.99756 9.57031L9.99756 7.33643C9.99756 6.82373 10.3027 6.49414 10.791 6.49414C11.2549 6.49414 11.5601 6.82373 11.5601 7.33643L11.5601 8.93555L13.6963 8.04443C13.7939 7.99561 13.9038 7.95898 14.0137 7.95898C14.3677 7.95898 14.5996 8.22754 14.5996 8.58154C14.5996 8.8623 14.4775 9.0332 14.1846 9.17969L11.5601 10.2661L11.5601 11.4624L13.6963 10.5591C13.7939 10.5225 13.9038 10.498 14.0137 10.498C14.3677 10.498 14.5996 10.7544 14.5996 11.1084C14.5996 11.377 14.4775 11.5723 14.1846 11.6943L11.5601 12.793L11.5601 16.8091C13.6108 16.8091 15.0513 15.1367 15.2832 13.2935C15.3687 12.7075 15.6616 12.4756 16.0645 12.4756C16.5161 12.4756 16.8091 12.8052 16.8091 13.3179C16.8091 15.5884 14.6973 18.4326 11.0718 18.4326Z" fill="#5ac8f5"/>
 </g>
</svg>
