<?xml version="1.0" encoding="UTF-8"?>
<!--Generator: Apple Native CoreSVG 175.5-->
<!DOCTYPE svg
PUBLIC "-//W3C//DTD SVG 1.1//EN"
       "http://www.w3.org/Graphics/SVG/1.1/DTD/svg11.dtd">
<svg version="1.1" xmlns="http://www.w3.org/2000/svg" xmlns:xlink="http://www.w3.org/1999/xlink" width="15.3564" height="21.5698">
 <g>
  <rect height="21.5698" opacity="0" width="15.3564" x="0" y="0"/>
  <path d="M2.84424 21.5698C5.61523 21.5698 7.44629 19.9829 7.88574 16.7969L9.42383 5.65186C9.729 3.40576 10.6812 2.46582 12.3535 2.46582C13.5864 2.46582 13.9648 2.62451 14.4653 2.62451C14.9902 2.62451 15.3564 2.29492 15.3564 1.72119C15.3564 0.78125 13.9282 0.524902 12.5122 0.524902C9.74121 0.524902 7.91016 2.11182 7.4707 5.29785L5.94482 16.4551C5.63965 18.7012 4.67529 19.6289 3.00293 19.6289C1.78223 19.6289 1.41602 19.4702 0.90332 19.4702C0.366211 19.4702 0 19.7998 0 20.3735C0 21.3257 1.42822 21.5698 2.84424 21.5698ZM2.22168 11.1816L14.1113 11.1816C14.6973 11.1816 15.1123 10.7788 15.1123 10.2173C15.1123 9.65576 14.6851 9.24072 14.0991 9.24072L2.20947 9.24072C1.62354 9.24072 1.2085 9.64355 1.2085 10.2173C1.2085 10.7788 1.63574 11.1816 2.22168 11.1816Z" fill="#5ac8f5"/>
 </g>
</svg>
