<?xml version="1.0" encoding="UTF-8"?>
<!--Generator: Apple Native CoreSVG 175.5-->
<!DOCTYPE svg
PUBLIC "-//W3C//DTD SVG 1.1//EN"
       "http://www.w3.org/Graphics/SVG/1.1/DTD/svg11.dtd">
<svg version="1.1" xmlns="http://www.w3.org/2000/svg" xmlns:xlink="http://www.w3.org/1999/xlink" width="20.3033" height="27.478">
 <g>
  <rect height="27.478" opacity="0" width="20.3033" x="0" y="0"/>
  <path d="M7.35779 26.77L12.9364 19.7754L4.39148 11.2304L1.88904 14.3676C1.68152 14.6362 1.55945 14.8803 1.55945 15.1489C1.55945 15.625 1.92566 15.979 2.43835 15.979L9.14001 16.0766L5.69763 25.8667C5.25818 27.124 6.52771 27.7954 7.35779 26.77ZM15.9149 16.0522L18.4418 12.9028C18.6493 12.6464 18.7592 12.4023 18.7592 12.1215C18.7592 11.6577 18.4052 11.3037 17.8925 11.2915L11.1786 11.1938L14.6332 1.40377C15.0726 0.13424 13.8031-0.52494 12.973 0.512658L7.37 7.51949Z" fill="#5ac8f5" fill-opacity="0.5"/>
  <path d="M18.6981 23.5107C19.0643 23.8769 19.6747 23.8769 20.0287 23.5107C20.3949 23.1567 20.3949 22.5586 20.0287 22.1801L1.60828 3.75973C1.24207 3.39352 0.619507 3.39352 0.265503 3.75973C-0.088501 4.11373-0.088501 4.73629 0.265503 5.09029Z" fill="#5ac8f5"/>
 </g>
</svg>
