<?xml version="1.0" encoding="UTF-8"?>
<!--Generator: Apple Native CoreSVG 175.5-->
<!DOCTYPE svg
PUBLIC "-//W3C//DTD SVG 1.1//EN"
       "http://www.w3.org/Graphics/SVG/1.1/DTD/svg11.dtd">
<svg version="1.1" xmlns="http://www.w3.org/2000/svg" xmlns:xlink="http://www.w3.org/1999/xlink" width="19.6167" height="24.6216">
 <g>
  <rect height="24.6216" opacity="0" width="19.6167" x="0" y="0"/>
  <path d="M9.81445 19.6411C15.2222 19.6411 19.6167 15.2466 19.6167 9.81445C19.6167 4.39453 15.2222 0 9.81445 0C4.39453 0 0 4.39453 0 9.81445C0 15.2466 4.39453 19.6411 9.81445 19.6411ZM9.81445 17.6758C5.41992 17.6758 1.96533 14.2212 1.96533 9.81445C1.96533 5.40771 5.41992 1.96533 9.81445 1.96533C14.209 1.96533 17.6514 5.40771 17.6514 9.81445C17.6514 14.2212 14.209 17.6758 9.81445 17.6758ZM8.83789 23.6206L10.8032 23.6206L10.8032 18.7378L8.83789 18.7378ZM5.54199 24.5972L14.0869 24.5972C14.624 24.5972 15.0635 24.1577 15.0635 23.6206C15.0635 23.0835 14.624 22.6318 14.0869 22.6318L5.5542 22.6318C5.01709 22.6318 4.56543 23.0835 4.56543 23.6206C4.56543 24.1577 5.00488 24.5972 5.54199 24.5972Z" fill="#5ac8f5" fill-opacity="0.5"/>
  <path d="M9.81445 15.5151C13.0005 15.5151 15.4907 13.0005 15.4907 9.81445C15.4907 6.64062 13.0005 4.12598 9.81445 4.12598C6.64062 4.12598 4.12598 6.64062 4.12598 9.81445C4.12598 13.0005 6.64062 15.5151 9.81445 15.5151ZM9.81445 12.4634C8.3374 12.4634 7.16553 11.2915 7.16553 9.81445C7.16553 8.3374 8.3374 7.16553 9.81445 7.16553C11.2915 7.16553 12.4512 8.3374 12.4512 9.81445C12.4512 11.2915 11.2915 12.4634 9.81445 12.4634Z" fill="#5ac8f5"/>
 </g>
</svg>
