<?xml version="1.0" encoding="UTF-8"?>
<!--Generator: Apple Native CoreSVG 175.5-->
<!DOCTYPE svg
PUBLIC "-//W3C//DTD SVG 1.1//EN"
       "http://www.w3.org/Graphics/SVG/1.1/DTD/svg11.dtd">
<svg version="1.1" xmlns="http://www.w3.org/2000/svg" xmlns:xlink="http://www.w3.org/1999/xlink" width="24.9023" height="24.9146">
 <g>
  <rect height="24.9146" opacity="0" width="24.9023" x="0" y="0"/>
  <path d="M12.4512 24.9146C19.2627 24.9146 24.9023 19.2749 24.9023 12.4634C24.9023 5.66406 19.2505 0.012207 12.439 0.012207C5.63965 0.012207 0 5.66406 0 12.4634C0 19.2749 5.65186 24.9146 12.4512 24.9146ZM8.39844 14.2822C6.604 14.2822 5.56641 13.1226 5.56641 11.7065C5.56641 10.437 6.39648 9.48486 7.48291 9.17969C7.69043 6.92139 9.57031 5.13916 11.8286 5.13916C13.5742 5.13916 14.9658 6.11572 15.7349 7.60498C17.7734 7.60498 19.3481 8.99658 19.3481 10.9253C19.3481 12.793 17.8467 14.2822 15.8936 14.2822ZM7.99561 19.104C7.76367 19.104 7.6416 18.9209 7.65381 18.7134L7.67822 17.9688L7.04346 18.4082C6.87256 18.5059 6.61621 18.4692 6.53076 18.2739C6.45752 18.1152 6.48193 17.8833 6.71387 17.7734L7.37305 17.4438L6.71387 17.1021C6.49414 16.9922 6.45752 16.748 6.55518 16.6016C6.64062 16.4185 6.88477 16.394 7.04346 16.4917L7.67822 16.9312L7.6416 16.1743C7.62939 15.9668 7.76367 15.7837 7.99561 15.7837C8.19092 15.7837 8.3374 15.9668 8.3252 16.1865L8.28857 16.9312L8.89893 16.4917C9.05762 16.394 9.32617 16.4307 9.41162 16.6016C9.50928 16.7847 9.46045 16.9922 9.24072 17.0898L8.56934 17.4438L9.24072 17.7734C9.47266 17.8711 9.53369 18.1396 9.39941 18.2861C9.30176 18.457 9.05762 18.5059 8.89893 18.4082L8.28857 17.9688L8.3252 18.7134C8.3374 18.9209 8.19092 19.104 7.99561 19.104ZM12.146 19.104C11.9263 19.104 11.7798 18.9209 11.792 18.7134L11.8286 17.9688L11.1938 18.4082C11.0352 18.5059 10.7788 18.4692 10.6934 18.2739C10.6079 18.1152 10.6323 17.8833 10.8643 17.7734L11.5356 17.4438L10.8643 17.1021C10.6445 16.9922 10.6079 16.748 10.7178 16.6016C10.8032 16.4185 11.0474 16.394 11.1938 16.4917L11.8286 16.9312L11.7798 16.1743C11.7676 15.9668 11.9263 15.7837 12.146 15.7837C12.3535 15.7837 12.4878 15.9668 12.4756 16.1865L12.439 16.9312L13.0493 16.4917C13.2202 16.394 13.4888 16.4307 13.5742 16.6016C13.6597 16.7847 13.6108 16.9922 13.3911 17.0898L12.7319 17.4438L13.3911 17.7734C13.623 17.8711 13.6841 18.1396 13.562 18.2861C13.4644 18.457 13.208 18.5059 13.0493 18.4082L12.439 17.9688L12.4756 18.7134C12.4878 18.9209 12.3535 19.104 12.146 19.104ZM16.2964 19.104C16.0767 19.104 15.9424 18.9209 15.9546 18.7134L15.9912 17.9688L15.3442 18.4082C15.1855 18.5059 14.9292 18.4692 14.8438 18.2739C14.7705 18.1152 14.7949 17.8833 15.0146 17.7734L15.686 17.4438L15.0146 17.1021C14.7949 16.9922 14.7705 16.748 14.856 16.6016C14.9536 16.4185 15.1978 16.394 15.3442 16.4917L15.9912 16.9312L15.9424 16.1743C15.9302 15.9668 16.0767 15.7837 16.2964 15.7837C16.5039 15.7837 16.6504 15.9668 16.6382 16.1865L16.5894 16.9312L17.2119 16.4917C17.3706 16.394 17.627 16.4307 17.7246 16.6016C17.8101 16.7847 17.7612 16.9922 17.5537 17.0898L16.8823 17.4438L17.5537 17.7734C17.7734 17.8711 17.8223 18.1396 17.7124 18.2861C17.6147 18.457 17.3584 18.5059 17.2119 18.4082L16.5894 17.9688L16.6382 18.7134C16.6504 18.9209 16.5039 19.104 16.2964 19.104Z" fill="#5ac8f5"/>
 </g>
</svg>
