<?xml version="1.0" encoding="UTF-8"?>
<!--Generator: Apple Native CoreSVG 175.5-->
<!DOCTYPE svg
PUBLIC "-//W3C//DTD SVG 1.1//EN"
       "http://www.w3.org/Graphics/SVG/1.1/DTD/svg11.dtd">
<svg version="1.1" xmlns="http://www.w3.org/2000/svg" xmlns:xlink="http://www.w3.org/1999/xlink" width="22.4731" height="22.4976">
 <g>
  <rect height="22.4976" opacity="0" width="22.4731" x="0" y="0"/>
  <path d="M3.83301 22.4976L18.6401 22.4976C21.2036 22.4976 22.4731 21.228 22.4731 18.7134L22.4731 3.80859C22.4731 1.29395 21.2036 0.0244141 18.6401 0.0244141L3.83301 0.0244141C1.28174 0.0244141 0 1.28174 0 3.80859L0 18.7134C0 21.2402 1.28174 22.4976 3.83301 22.4976ZM3.85742 20.5322C2.63672 20.5322 1.96533 19.8853 1.96533 18.6157L1.96533 3.90625C1.96533 2.63672 2.63672 1.98975 3.85742 1.98975L18.6157 1.98975C19.8242 1.98975 20.5078 2.63672 20.5078 3.90625L20.5078 18.6157C20.5078 19.8853 19.8242 20.5322 18.6157 20.5322ZM6.99463 16.5039C9.06982 16.5039 10.5103 15.2588 10.5103 13.501C10.5103 12.207 9.61914 11.1572 8.38623 11.0352L8.38623 10.9619C9.38721 10.791 10.1807 9.77783 10.1807 8.63037C10.1807 7.06787 8.89893 5.98145 7.08008 5.98145C5.41992 5.98145 4.19922 6.92139 3.88184 8.11768C3.85742 8.27637 3.85742 8.39844 3.85742 8.55713C3.85742 8.99658 4.12598 9.30176 4.55322 9.30176C4.91943 9.30176 5.11475 9.10645 5.22461 8.71582C5.49316 7.86133 6.09131 7.38525 7.04346 7.38525C8.00781 7.38525 8.6792 7.97119 8.6792 8.82568C8.6792 9.7168 8.00781 10.3638 7.03125 10.3638L6.37207 10.3638C5.96924 10.3638 5.70068 10.6445 5.70068 11.084C5.70068 11.4746 5.96924 11.7798 6.37207 11.7798L7.09229 11.7798C8.25195 11.7798 8.98438 12.439 8.98438 13.4277C8.98438 14.3799 8.17871 15.1001 7.00684 15.1001C6.04248 15.1001 5.3833 14.624 5.05371 13.7695C4.90723 13.3789 4.69971 13.1836 4.35791 13.1836C3.94287 13.1836 3.6499 13.4888 3.6499 13.916C3.6499 14.0869 3.66211 14.209 3.71094 14.3677C4.02832 15.4907 5.33447 16.5039 6.99463 16.5039ZM15.5396 16.5161C17.5171 16.5161 18.9331 15.21 18.9331 12.9761C18.9331 10.8765 17.5049 9.7168 15.9058 9.7168C14.6118 9.7168 13.7939 10.4492 13.4888 11.2549L13.4033 11.2549C13.4033 11.2183 13.4033 11.1938 13.4033 11.145C13.4033 8.83789 14.3311 7.38525 15.7104 7.38525C16.4185 7.38525 16.9067 7.72705 17.2119 8.20312C17.4194 8.5083 17.6147 8.65479 17.9443 8.65479C18.2861 8.65479 18.5425 8.38623 18.5425 7.9834C18.5425 7.82471 18.5181 7.67822 18.457 7.51953C18.1396 6.70166 17.1631 5.98145 15.7715 5.98145C13.4155 5.98145 11.9751 7.8125 11.9751 11.5234C11.9751 13.0127 12.207 14.0991 12.6221 14.8682C13.2446 16.04 14.2944 16.5161 15.5396 16.5161ZM15.4663 15.1733C14.3311 15.1733 13.5376 14.2822 13.5376 13.0249C13.5376 11.8286 14.3188 10.9741 15.4663 10.9741C16.6138 10.9741 17.395 11.8164 17.395 13.0371C17.395 14.3433 16.6504 15.1733 15.4663 15.1733Z" fill="#5ac8f5"/>
 </g>
</svg>
