<?xml version="1.0" encoding="UTF-8"?>
<!--Generator: Apple Native CoreSVG 175.5-->
<!DOCTYPE svg
PUBLIC "-//W3C//DTD SVG 1.1//EN"
       "http://www.w3.org/Graphics/SVG/1.1/DTD/svg11.dtd">
<svg version="1.1" xmlns="http://www.w3.org/2000/svg" xmlns:xlink="http://www.w3.org/1999/xlink" width="34.7046" height="21.521">
 <g>
  <rect height="21.521" opacity="0" width="34.7046" x="0" y="0"/>
  <path d="M17.3584 21.521C26.9653 21.521 34.7046 16.7725 34.7046 10.7544C34.7046 4.74854 26.9531 0 17.3584 0C7.75146 0 0 4.74854 0 10.7544C0 16.7725 7.72705 21.521 17.3584 21.521ZM17.3584 19.5557C8.88672 19.5557 1.96533 15.5396 1.96533 10.7544C1.96533 5.98145 8.89893 1.96533 17.3584 1.96533C25.8057 1.96533 32.7393 5.98145 32.7393 10.7544C32.7393 15.5396 25.8179 19.5557 17.3584 19.5557ZM25.5493 10.8276C23.4741 8.91113 20.4834 7.8125 17.3584 7.8125C14.2212 7.8125 11.2427 8.91113 9.16748 10.8276L10.5835 12.207C12.3047 10.6445 14.7461 9.77783 17.3584 9.77783C19.9707 9.77783 22.4121 10.6445 24.1333 12.207ZM7.50732 10.0952C8.60596 12.207 12.3169 13.4766 17.3584 13.4766C22.3999 13.4766 26.1108 12.207 27.2095 10.0952C27.6978 9.08203 26.5503 8.64258 26.0864 9.16748C24.5605 10.9619 20.8008 11.5112 17.3584 11.5112C14.0381 11.5112 10.1562 10.9863 8.63037 9.16748C8.1665 8.64258 7.01904 9.08203 7.50732 10.0952Z" fill="#5ac8f5"/>
 </g>
</svg>
