<?xml version="1.0" encoding="UTF-8"?>
<!--Generator: Apple Native CoreSVG 175.5-->
<!DOCTYPE svg
PUBLIC "-//W3C//DTD SVG 1.1//EN"
       "http://www.w3.org/Graphics/SVG/1.1/DTD/svg11.dtd">
<svg version="1.1" xmlns="http://www.w3.org/2000/svg" xmlns:xlink="http://www.w3.org/1999/xlink" width="22.4731" height="22.4976">
 <g>
  <rect height="22.4976" opacity="0" width="22.4731" x="0" y="0"/>
  <path d="M3.83301 22.4976L18.6401 22.4976C21.2036 22.4976 22.4731 21.228 22.4731 18.7134L22.4731 3.80859C22.4731 1.29395 21.2036 0.0244141 18.6401 0.0244141L3.83301 0.0244141C1.28174 0.0244141 0 1.28174 0 3.80859L0 18.7134C0 21.2402 1.28174 22.4976 3.83301 22.4976ZM3.85742 20.5322C2.63672 20.5322 1.96533 19.8853 1.96533 18.6157L1.96533 3.90625C1.96533 2.63672 2.63672 1.98975 3.85742 1.98975L18.6157 1.98975C19.8242 1.98975 20.5078 2.63672 20.5078 3.90625L20.5078 18.6157C20.5078 19.8853 19.8242 20.5322 18.6157 20.5322ZM8.3374 17.1143C10.1929 17.1143 11.2183 16.1499 11.5479 14.1235L11.9507 11.5967L14.5142 11.5967C14.9292 11.5967 15.1855 11.3403 15.1855 10.9619C15.1855 10.5591 14.9292 10.2905 14.5142 10.2905L12.1582 10.2905L12.4512 8.43506C12.6465 7.25098 13.147 6.75049 14.2212 6.75049C14.5874 6.75049 14.7339 6.78711 14.9292 6.82373C15.0391 6.84814 15.1367 6.86035 15.2832 6.86035C15.7227 6.86035 15.979 6.57959 15.979 6.21338C15.979 5.87158 15.7837 5.60303 15.3687 5.45654C15.0757 5.34668 14.6606 5.29785 14.1479 5.29785C12.2925 5.29785 11.2671 6.27441 10.9375 8.30078L10.6201 10.2905L8.1665 10.2905C7.76367 10.2905 7.50732 10.5591 7.50732 10.9619C7.50732 11.3403 7.76367 11.5967 8.1665 11.5967L10.4248 11.5967L10.0464 13.9282C9.83887 15.1611 9.33838 15.6738 8.26416 15.6738C7.89795 15.6738 7.75146 15.625 7.55615 15.5884C7.44629 15.564 7.34863 15.5518 7.20215 15.5518C6.7627 15.5518 6.50635 15.8325 6.50635 16.1987C6.50635 16.5527 6.70166 16.8091 7.1167 16.9556C7.40967 17.0776 7.8125 17.1143 8.3374 17.1143Z" fill="#5ac8f5"/>
 </g>
</svg>
