<?xml version="1.0" encoding="UTF-8"?>
<!--Generator: Apple Native CoreSVG 175.5-->
<!DOCTYPE svg
PUBLIC "-//W3C//DTD SVG 1.1//EN"
       "http://www.w3.org/Graphics/SVG/1.1/DTD/svg11.dtd">
<svg version="1.1" xmlns="http://www.w3.org/2000/svg" xmlns:xlink="http://www.w3.org/1999/xlink" width="21.7041" height="21.5454">
 <g>
  <rect height="21.5454" opacity="0" width="21.7041" x="0" y="0"/>
  <path d="M13.1592 21.5454C13.9648 21.5454 14.5386 20.9717 14.5386 20.1782L14.5386 1.45264C14.5386 0.65918 13.9648 0.012207 13.1348 0.012207C12.561 0.012207 12.1704 0.256348 11.5601 0.854492L6.34766 5.7373C6.27441 5.81055 6.16455 5.84717 6.04248 5.84717L2.55127 5.84717C0.891113 5.84717 0 6.7627 0 8.52051L0 13.0615C0 14.8315 0.891113 15.7349 2.55127 15.7349L6.04248 15.7349C6.16455 15.7349 6.27441 15.7715 6.34766 15.8447L11.5601 20.7764C12.1094 21.3135 12.5854 21.5454 13.1592 21.5454ZM18.8965 15.9668C19.2993 16.2476 19.873 16.1621 20.2026 15.686C21.1426 14.4531 21.7041 12.6343 21.7041 10.7666C21.7041 8.89893 21.1426 7.09229 20.2026 5.84717C19.873 5.37109 19.2993 5.27344 18.8965 5.56641C18.396 5.9082 18.3228 6.51855 18.7012 7.01904C19.4092 7.99561 19.812 9.35059 19.812 10.7666C19.812 12.1826 19.397 13.5254 18.7012 14.5142C18.335 15.0269 18.396 15.6128 18.8965 15.9668Z" fill="#5ac8f5"/>
 </g>
</svg>
