<?xml version="1.0" encoding="UTF-8"?>
<!--Generator: Apple Native CoreSVG 175.5-->
<!DOCTYPE svg
PUBLIC "-//W3C//DTD SVG 1.1//EN"
       "http://www.w3.org/Graphics/SVG/1.1/DTD/svg11.dtd">
<svg version="1.1" xmlns="http://www.w3.org/2000/svg" xmlns:xlink="http://www.w3.org/1999/xlink" width="27.8076" height="18.0542">
 <g>
  <rect height="18.0542" opacity="0" width="27.8076" x="0" y="0"/>
  <path d="M14.0137 18.0298C14.6484 18.0298 14.978 17.7856 15.21 17.1021L16.7847 12.793L23.9868 12.793L25.5615 17.1021C25.7935 17.7856 26.1108 18.0298 26.7456 18.0298C27.3926 18.0298 27.8076 17.6392 27.8076 17.0288C27.8076 16.8213 27.771 16.626 27.6733 16.3696L21.9482 1.12305C21.6675 0.378418 21.167 0 20.3857 0C19.6289 0 19.1162 0.366211 18.8477 1.11084L13.1226 16.3818C13.0249 16.6382 12.9883 16.8335 12.9883 17.041C12.9883 17.6514 13.3789 18.0298 14.0137 18.0298ZM17.3828 10.9375L20.3491 2.72217L20.4102 2.72217L23.3765 10.9375ZM1.01318 17.9932C1.51367 17.9932 1.84326 17.7368 2.03857 17.1387L3.05176 14.1479L7.82471 14.1479L8.83789 17.1387C9.0332 17.7612 9.36279 17.9932 9.87549 17.9932C10.4858 17.9932 10.9009 17.6147 10.9009 17.0654C10.9009 16.8213 10.8398 16.5894 10.7422 16.333L6.9458 6.25C6.66504 5.50537 6.15234 5.11475 5.43213 5.11475C4.72412 5.11475 4.21143 5.48096 3.93066 6.25L0.134277 16.333C0.0366211 16.5649 0 16.8091 0 17.0654C0 17.627 0.390625 17.9932 1.01318 17.9932ZM3.58887 12.561L5.29785 7.4707L5.57861 7.4707L7.2876 12.561Z" fill="#5ac8f5"/>
 </g>
</svg>
