<?xml version="1.0" encoding="UTF-8"?>
<!--Generator: Apple Native CoreSVG 175.5-->
<!DOCTYPE svg
PUBLIC "-//W3C//DTD SVG 1.1//EN"
       "http://www.w3.org/Graphics/SVG/1.1/DTD/svg11.dtd">
<svg version="1.1" xmlns="http://www.w3.org/2000/svg" xmlns:xlink="http://www.w3.org/1999/xlink" width="28.5889" height="27.2593">
 <g>
  <rect height="27.2593" opacity="0" width="28.5889" x="0" y="0"/>
  <path d="M0 10.8892C0 12.0488 0.708008 12.7569 1.86768 12.7569L26.709 12.7569C27.8687 12.7569 28.5889 12.0488 28.5889 10.8892L28.5889 10.291C28.5889 9.14357 27.8687 8.41115 26.709 8.41115L1.86768 8.41115C0.708008 8.41115 0 9.14357 0 10.291ZM7.76367 26.1602L20.8252 26.1602C23.645 26.1602 24.5239 24.5122 24.8779 22.7422L26.5747 14.4292L2.02637 14.4292L3.71094 22.7422C4.06494 24.5122 4.94385 26.1602 7.76367 26.1602ZM8.55713 24.0606C8.09326 24.1338 7.75146 23.8897 7.67822 23.4746L6.62842 17.3345C6.55518 16.9195 6.82373 16.5899 7.2876 16.5044C7.75146 16.4434 8.10547 16.6753 8.17871 17.0904L9.21631 23.2305C9.27734 23.6455 9.0332 23.9751 8.55713 24.0606ZM12.4268 24.0484C11.9629 24.0728 11.6211 23.792 11.5967 23.3648L11.1938 17.2979C11.1694 16.8706 11.4746 16.5654 11.9263 16.5288C12.4023 16.4922 12.7197 16.7852 12.7563 17.2124L13.1592 23.2793C13.1836 23.7066 12.8784 24.0239 12.4268 24.0484ZM16.1865 24.0484C15.7227 24.0239 15.4175 23.7066 15.4419 23.2793L15.8447 17.2124C15.8813 16.7852 16.1987 16.4922 16.6748 16.5288C17.1265 16.5654 17.4316 16.8706 17.4072 17.2979L17.0044 23.3648C16.98 23.792 16.6382 24.0728 16.1865 24.0484ZM20.0317 24.0606C19.5557 23.9751 19.3115 23.6455 19.3726 23.2305L20.4102 17.0904C20.4834 16.6753 20.8374 16.4434 21.3013 16.5044C21.7651 16.5899 22.0337 16.9439 21.9604 17.3589L20.9106 23.4746C20.8374 23.8897 20.4834 24.1338 20.0317 24.0606ZM3.93066 8.93605L6.37207 8.93605L10.6689 1.47756C10.9985 0.89162 10.73 0.378925 10.2783 0.134785C9.83887-0.0971491 9.25293-0.060528 8.92334 0.488788ZM22.2168 8.93605L24.6582 8.93605L19.6655 0.488788C19.3481-0.0483209 18.7622-0.084942 18.3105 0.134785C17.8711 0.378925 17.5903 0.89162 17.9199 1.47756Z" fill="#5ac8f5"/>
 </g>
</svg>
