<?xml version="1.0" encoding="UTF-8"?>
<!--Generator: Apple Native CoreSVG 175.5-->
<!DOCTYPE svg
PUBLIC "-//W3C//DTD SVG 1.1//EN"
       "http://www.w3.org/Graphics/SVG/1.1/DTD/svg11.dtd">
<svg version="1.1" xmlns="http://www.w3.org/2000/svg" xmlns:xlink="http://www.w3.org/1999/xlink" width="16.8701" height="19.9228">
 <g>
  <rect height="19.9228" opacity="0" width="16.8701" x="0" y="0"/>
  <path d="M0 19.0007L3.07617 19.8186C4.37012 20.1726 5.15137 19.611 5.15137 18.3415L5.15137 14.1789L10.6079 14.1789L10.6079 10.7732L1.14746 10.7732L1.14746 17.8654C1.14746 18.5612 0.695801 19.0007 0 19.0007ZM1.14746 8.74679L5.15137 8.74679L5.15137 3.83956C5.15137 2.6921 4.62646 2.15499 3.58887 1.87423L0.671387 1.09298C0.964355 1.28829 1.14746 1.60568 1.14746 2.04513ZM11.7188 19.0007L14.7949 19.8186C16.0889 20.1726 16.8701 19.611 16.8701 18.3415L16.8701 3.83956C16.8701 2.6921 16.333 2.14279 15.2954 1.86202L12.3901 1.09298C12.6831 1.28829 12.8662 1.60568 12.8662 2.04513L12.8662 17.8654C12.8662 18.5612 12.4146 19.0007 11.7188 19.0007Z" fill="#5ac8f5"/>
 </g>
</svg>
