<?xml version="1.0" encoding="UTF-8"?>
<!--Generator: Apple Native CoreSVG 175.5-->
<!DOCTYPE svg
PUBLIC "-//W3C//DTD SVG 1.1//EN"
       "http://www.w3.org/Graphics/SVG/1.1/DTD/svg11.dtd">
<svg version="1.1" xmlns="http://www.w3.org/2000/svg" xmlns:xlink="http://www.w3.org/1999/xlink" width="32.1393" height="22.9462">
 <g>
  <rect height="22.9462" opacity="0" width="32.1393" x="0" y="0"/>
  <path d="M11.5949 2.76338L31.2116 2.76338C31.7243 2.76338 32.1393 2.36055 32.1393 1.83565C32.1393 1.32295 31.7243 0.920121 31.2116 0.920121L11.5949 0.920121C11.07 0.920121 10.6672 1.32295 10.6672 1.83565C10.6672 2.36055 11.07 2.76338 11.5949 2.76338ZM11.5949 9.15987L31.2116 9.15987C31.7243 9.15987 32.1393 8.75703 32.1393 8.23213C32.1393 7.71944 31.7243 7.31661 31.2116 7.31661L11.5949 7.31661C11.07 7.31661 10.6672 7.71944 10.6672 8.23213C10.6672 8.75703 11.07 9.15987 11.5949 9.15987ZM11.5949 15.5564L31.2116 15.5564C31.7243 15.5564 32.1393 15.1413 32.1393 14.6286C32.1393 14.1159 31.7243 13.7131 31.2116 13.7131L11.5949 13.7131C11.07 13.7131 10.6672 14.1159 10.6672 14.6286C10.6672 15.1413 11.07 15.5564 11.5949 15.5564ZM11.5949 21.9406L23.3869 21.9406C23.8996 21.9406 24.3146 21.5378 24.3146 21.0251C24.3146 20.5124 23.8996 20.0974 23.3869 20.0974L11.5949 20.0974C11.07 20.0974 10.6672 20.5124 10.6672 21.0251C10.6672 21.5378 11.07 21.9406 11.5949 21.9406Z" fill="#5ac8f5" fill-opacity="0.5"/>
  <path d="M3.96551 22.5266L6.40691 19.2551C6.8952 18.5959 6.63885 17.7658 5.77215 17.7658L4.03875 17.7658L4.03875 5.08272L5.77215 5.08272C6.61443 5.08272 6.91961 4.27705 6.40691 3.59346L3.96551 0.334183C3.63592-0.117477 3.00115-0.10527 2.68377 0.334183L0.242363 3.59346C-0.258125 4.27705 0.0470507 5.08272 0.877129 5.08272L2.62273 5.08272L2.62273 17.7658L0.877129 17.7658C0.0470507 17.7658-0.258125 18.5715 0.242363 19.2551L2.68377 22.5266C3.01336 22.966 3.63592 22.966 3.96551 22.5266Z" fill="#5ac8f5"/>
 </g>
</svg>
