<?xml version="1.0" encoding="UTF-8"?>
<!--Generator: Apple Native CoreSVG 175.5-->
<!DOCTYPE svg
PUBLIC "-//W3C//DTD SVG 1.1//EN"
       "http://www.w3.org/Graphics/SVG/1.1/DTD/svg11.dtd">
<svg version="1.1" xmlns="http://www.w3.org/2000/svg" xmlns:xlink="http://www.w3.org/1999/xlink" width="25.1709" height="23.8892">
 <g>
  <rect height="23.8892" opacity="0" width="25.1709" x="0" y="0"/>
  <path d="M12.5854 18.7134C20.2026 18.7134 25.1709 15.3442 25.1709 10.4736C25.1709 5.61523 20.1904 2.24609 12.5732 2.24609C4.96826 2.24609 0 5.61523 0 10.4736C0 15.3442 4.96826 18.7134 12.5854 18.7134ZM12.5854 16.6138C6.37207 16.6138 2.20947 14.1235 2.20947 10.4736C2.20947 6.82373 6.37207 4.3457 12.5732 4.3457C18.7866 4.3457 22.9614 6.82373 22.9614 10.4736C22.9614 14.1235 18.7988 16.6138 12.5854 16.6138ZM12.5854 23.8892C15.5518 23.8892 17.3096 22.4976 17.3096 20.1538L17.3096 19.6655C15.8569 19.9707 14.2822 20.1294 12.5854 20.1294C10.8887 20.1294 9.31396 19.9707 7.87354 19.6655L7.87354 20.1538C7.87354 22.4976 9.63135 23.8892 12.5854 23.8892Z" fill="#5ac8f5" fill-opacity="0.5"/>
  <path d="M10.8765 14.2944L14.6362 14.2944C15.1123 14.2944 15.4419 13.9648 15.4419 13.5132C15.4419 13.0371 15.1123 12.7197 14.6362 12.7197L11.7798 12.7197L11.7798 7.21436C11.7798 6.604 11.4258 6.23779 10.8765 6.23779C10.3394 6.23779 9.97314 6.61621 9.97314 7.21436L9.97314 13.3179C9.97314 13.9038 10.3271 14.2944 10.8765 14.2944Z" fill="#5ac8f5"/>
 </g>
</svg>
