<?xml version="1.0" encoding="UTF-8"?>
<!--Generator: Apple Native CoreSVG 175.5-->
<!DOCTYPE svg
PUBLIC "-//W3C//DTD SVG 1.1//EN"
       "http://www.w3.org/Graphics/SVG/1.1/DTD/svg11.dtd">
<svg version="1.1" xmlns="http://www.w3.org/2000/svg" xmlns:xlink="http://www.w3.org/1999/xlink" width="28.7842" height="22.4731">
 <g>
  <rect height="22.4731" opacity="0" width="28.7842" x="0" y="0"/>
  <path d="M3.83301 22.4731L24.9512 22.4731C27.5146 22.4731 28.7842 21.2158 28.7842 18.7012L28.7842 3.78418C28.7842 1.26953 27.5146 0 24.9512 0L3.83301 0C1.28174 0 0 1.26953 0 3.78418L0 18.7012C0 21.2158 1.28174 22.4731 3.83301 22.4731Z" fill="#5ac8f5" fill-opacity="0.25"/>
  <path d="M5.0415 16.5283C3.83301 16.5283 3.24707 15.9302 3.24707 14.7583L3.24707 7.73926C3.24707 6.55518 3.83301 5.96924 5.0415 5.96924L11.9995 5.96924C13.208 5.96924 13.8062 6.56738 13.8062 7.73926L13.8062 14.7583C13.8062 15.9302 13.208 16.5283 11.9995 16.5283ZM4.71191 15.3442L12.3413 15.3442C11.9629 14.209 10.5469 13.1592 8.53271 13.1592C6.49414 13.1592 5.09033 14.209 4.71191 15.3442ZM8.52051 12.2681C9.61914 12.2681 10.498 11.3281 10.498 10.1074C10.498 8.94775 9.61914 8.00781 8.52051 8.00781C7.42188 8.00781 6.55518 8.94775 6.55518 10.1074C6.55518 11.3281 7.42188 12.2681 8.52051 12.2681ZM20.9717 16.394C17.8955 16.394 15.8325 14.3433 15.8325 11.2549C15.8325 8.17871 17.9077 6.0791 20.9351 6.0791C23.8525 6.0791 25.9033 7.9834 25.9033 10.73C25.9033 12.7319 24.9756 14.0381 23.5596 14.0381C22.937 14.0381 22.3999 13.7695 22.1313 13.2935C21.7651 13.7695 21.2402 14.0381 20.6299 14.0381C19.2627 14.0381 18.3105 12.915 18.3105 11.2671C18.3105 9.66797 19.2627 8.5083 20.5933 8.5083C21.1914 8.5083 21.6064 8.71582 21.9116 9.05762L21.9116 8.95996C21.9849 8.71582 22.2412 8.5083 22.522 8.5083C22.8882 8.5083 23.1567 8.80127 23.1567 9.17969L23.1567 12.3047C23.1567 12.6587 23.3032 12.8174 23.6816 12.8174C24.2798 12.8174 24.6582 12.0483 24.6582 10.8032C24.6582 8.71582 23.1567 7.31201 20.9351 7.31201C18.7012 7.31201 17.1631 8.92334 17.1631 11.2671C17.1631 13.6597 18.6646 15.1245 21.1182 15.1245C21.8994 15.1245 22.2534 14.978 22.6318 14.917C22.8027 14.8926 22.9126 14.856 23.0347 14.856C23.3643 14.856 23.5962 15.1123 23.5962 15.4297C23.5962 15.7593 23.3887 15.9668 23.0469 16.1133C22.5586 16.3086 21.7773 16.394 20.9717 16.394ZM20.8252 12.7563C21.5088 12.7563 21.9482 12.1704 21.9482 11.2061C21.9482 10.3027 21.521 9.75342 20.8374 9.75342C20.1538 9.75342 19.7266 10.3027 19.7266 11.2427C19.7266 12.1948 20.1416 12.7563 20.8252 12.7563Z" fill="#5ac8f5"/>
 </g>
</svg>
