<?xml version="1.0" encoding="UTF-8"?>
<!--Generator: Apple Native CoreSVG 175.5-->
<!DOCTYPE svg
PUBLIC "-//W3C//DTD SVG 1.1//EN"
       "http://www.w3.org/Graphics/SVG/1.1/DTD/svg11.dtd">
<svg version="1.1" xmlns="http://www.w3.org/2000/svg" xmlns:xlink="http://www.w3.org/1999/xlink" width="24.9023" height="29.6485">
 <g>
  <rect height="29.6485" opacity="0" width="24.9023" x="0" y="0"/>
  <path d="M0 14.8181C0 21.6297 5.65186 27.2693 12.4512 27.2693C19.2627 27.2693 24.9023 21.6297 24.9023 14.8181C24.9023 8.81228 20.52 3.72195 14.8071 2.5989L14.8071 0.865506C14.8071-0.0011928 14.209-0.233126 13.5498 0.242948L9.65576 2.96512C9.09424 3.35574 9.08203 3.94168 9.65576 4.34451L13.5376 7.07889C14.209 7.56717 14.8071 7.33523 14.8071 6.45633L14.8071 4.72293C19.4214 5.77273 22.8149 9.8743 22.8149 14.8181C22.8149 20.5799 18.2129 25.1941 12.4512 25.1941C6.68945 25.1941 2.06299 20.5799 2.0752 14.8181C2.0874 11.3513 3.77197 8.28738 6.37207 6.43191C6.87256 6.05349 7.03125 5.47976 6.72607 4.96707C6.4209 4.46658 5.74951 4.3323 5.2124 4.74734C2.0752 7.03006 0 10.7166 0 14.8181ZM8.88672 19.823C9.36279 19.823 9.66797 19.4934 9.66797 18.9807L9.66797 11.2781C9.66797 10.6555 9.35059 10.326 8.80127 10.326C8.45947 10.326 8.21533 10.4358 7.78809 10.7288L6.10352 11.864C5.82275 12.0716 5.68848 12.2913 5.68848 12.572C5.68848 12.9749 6.00586 13.3167 6.40869 13.3167C6.64062 13.3167 6.7627 13.2679 6.99463 13.0847L8.1543 12.2303L8.14209 12.2303L8.14209 18.9807C8.14209 19.4812 8.43506 19.823 8.88672 19.823ZM15.0879 19.9695C17.1143 19.9695 18.457 18.6634 18.457 16.698C18.457 14.9036 17.2485 13.6219 15.5029 13.6219C14.7339 13.6219 13.8916 14.0003 13.5742 14.6228L13.6353 14.6228L13.8428 11.864L17.5049 11.864C17.8589 11.864 18.1641 11.5711 18.1641 11.156C18.1641 10.741 17.8589 10.4724 17.5049 10.4724L13.5986 10.4724C12.9639 10.4724 12.6099 10.8387 12.5488 11.4856L12.2925 15.0012C12.2314 15.6116 12.5488 15.9046 13.0859 15.9046C13.4888 15.9046 13.6597 15.8313 14.0137 15.5628C14.4775 15.1355 14.856 14.9646 15.332 14.9646C16.2842 14.9646 16.9189 15.6604 16.9189 16.7224C16.9189 17.7967 16.1743 18.5779 15.1611 18.5779C14.4409 18.5779 13.8184 18.1629 13.501 17.5281C13.3179 17.2107 13.0981 17.0398 12.793 17.0398C12.3901 17.0398 12.1094 17.3328 12.1094 17.7478C12.1094 17.9187 12.146 18.0774 12.207 18.2361C12.5366 19.115 13.6108 19.9695 15.0879 19.9695Z" fill="#5ac8f5"/>
 </g>
</svg>
