<?xml version="1.0" encoding="UTF-8"?>
<!--Generator: Apple Native CoreSVG 175.5-->
<!DOCTYPE svg
PUBLIC "-//W3C//DTD SVG 1.1//EN"
       "http://www.w3.org/Graphics/SVG/1.1/DTD/svg11.dtd">
<svg version="1.1" xmlns="http://www.w3.org/2000/svg" xmlns:xlink="http://www.w3.org/1999/xlink" width="27.2722" height="24.9146">
 <g>
  <rect height="24.9146" opacity="0" width="27.2722" x="0" y="0"/>
  <path d="M14.3571 5.29785C13.82 5.29785 13.3806 5.7251 13.3806 6.26221L13.3806 13.0737C13.3806 13.3545 13.466 13.5986 13.6735 13.8672L16.6887 17.8467C17.0915 18.3716 17.653 18.457 18.1535 18.1152C18.6052 17.7979 18.6418 17.2241 18.2756 16.7236L14.2106 11.2427L15.3215 14.6606L15.3215 6.26221C15.3215 5.7251 14.8942 5.29785 14.3571 5.29785ZM14.821 24.9023C21.6203 24.9023 27.2722 19.2505 27.2722 12.4512C27.2722 5.63965 21.6203 0 14.821 0C8.00946 0 2.36981 5.62744 2.36981 12.439L4.44501 12.439C4.44501 6.67725 9.05926 2.0874 14.821 2.0874C20.5827 2.0874 25.197 6.68945 25.197 12.4512C25.197 18.2129 20.5827 22.8516 14.821 22.8271C11.342 22.8149 8.29022 21.1304 6.42255 18.5303C6.04413 18.0298 5.4704 17.8711 4.9577 18.1763C4.46942 18.4814 4.33514 19.1528 4.75018 19.6899C7.06952 22.8027 10.7072 24.9023 14.821 24.9023ZM0.868346 10.0952C-0.01056 10.0952-0.230287 10.6934 0.245788 11.377L2.98016 15.2588C3.38299 15.8203 3.96893 15.8081 4.35956 15.2588L7.09393 11.3647C7.5578 10.6934 7.33807 10.0952 6.47137 10.0952Z" fill="#5ac8f5"/>
 </g>
</svg>
