<?xml version="1.0" encoding="UTF-8"?>
<!--Generator: Apple Native CoreSVG 175.5-->
<!DOCTYPE svg
PUBLIC "-//W3C//DTD SVG 1.1//EN"
       "http://www.w3.org/Graphics/SVG/1.1/DTD/svg11.dtd">
<svg version="1.1" xmlns="http://www.w3.org/2000/svg" xmlns:xlink="http://www.w3.org/1999/xlink" width="28.7842" height="22.4731">
 <g>
  <rect height="22.4731" opacity="0" width="28.7842" x="0" y="0"/>
  <path d="M3.83301 22.4731L13.5742 22.4731L13.5742 20.5078L3.85742 20.5078C2.63672 20.5078 1.96533 19.8608 1.96533 18.5913L1.96533 12.0728L0 12.0728L0 18.7012C0 21.2158 1.28174 22.4731 3.83301 22.4731ZM15.2466 22.4731L24.9512 22.4731C27.5146 22.4731 28.7842 21.2158 28.7842 18.7012L28.7842 12.0728L26.8188 12.0728L26.8188 18.5913C26.8188 19.8608 26.1353 20.5078 24.9268 20.5078L15.2466 20.5078ZM26.8188 10.4126L28.7842 10.4126L28.7842 3.78418C28.7842 1.26953 27.5146 0 24.9512 0L15.2466 0L15.2466 1.96533L24.9268 1.96533C26.1353 1.96533 26.8188 2.62451 26.8188 3.89404ZM0 10.4126L1.96533 10.4126L1.96533 3.89404C1.96533 2.62451 2.63672 1.96533 3.85742 1.96533L13.5742 1.96533L13.5742 0L3.83301 0C1.28174 0 0 1.26953 0 3.78418Z" fill="#5ac8f5" fill-opacity="0.5"/>
  <path d="M14.4287 14.7217C16.3208 14.7217 17.8955 13.1592 17.8955 11.2305C17.8955 9.33838 16.3208 7.77588 14.4287 7.77588C12.5122 7.77588 10.9375 9.33838 10.9375 11.2305C10.9375 13.1592 12.5122 14.7217 14.4287 14.7217Z" fill="#5ac8f5"/>
  <path d="M14.4409 18.042C18.1519 18.042 21.2158 14.9658 21.2158 11.2183C21.2158 7.50732 18.1396 4.45557 14.4409 4.45557C10.6934 4.45557 7.61719 7.50732 7.61719 11.2183C7.61719 14.978 10.6812 18.042 14.4409 18.042ZM14.4409 16.4673C11.5479 16.4673 9.19189 14.0991 9.19189 11.2183C9.19189 8.37402 11.5601 6.03027 14.4409 6.03027C17.2852 6.03027 19.6411 8.37402 19.6411 11.2183C19.6411 14.0991 17.2974 16.4673 14.4409 16.4673Z" fill="#5ac8f5"/>
 </g>
</svg>
