<?xml version="1.0" encoding="UTF-8"?>
<!--Generator: Apple Native CoreSVG 175.5-->
<!DOCTYPE svg
PUBLIC "-//W3C//DTD SVG 1.1//EN"
       "http://www.w3.org/Graphics/SVG/1.1/DTD/svg11.dtd">
<svg version="1.1" xmlns="http://www.w3.org/2000/svg" xmlns:xlink="http://www.w3.org/1999/xlink" width="29.0405" height="22.4976">
 <g>
  <rect height="22.4976" opacity="0" width="29.0405" x="0" y="0"/>
  <path d="M8.10547 22.4976L20.9229 22.4976C23.3276 22.4976 24.292 21.228 24.646 18.8599L26.3794 7.23877L2.64893 7.23877L4.39453 18.8599C4.74854 21.2402 5.71289 22.4976 8.10547 22.4976ZM2.0752 5.57861L26.9653 5.57861C28.3447 5.57861 29.0405 4.76074 29.0405 3.39355L29.0405 2.20947C29.0405 0.842285 28.3447 0.0244141 26.9653 0.0244141L2.0752 0.0244141C0.769043 0.0244141 0 0.842285 0 2.20947L0 3.39355C0 4.76074 0.695801 5.57861 2.0752 5.57861ZM10.8765 19.1162C10.3394 19.1162 9.8877 18.6523 9.8877 18.1274C9.8877 17.8467 10.022 17.627 10.1929 17.4561L13.147 14.4775L10.1929 11.4868C10.022 11.3159 9.8877 11.0962 9.8877 10.8154C9.8877 10.2905 10.3394 9.86328 10.8765 9.86328C11.1328 9.86328 11.3281 9.98535 11.5356 10.1562L14.5142 13.1226L17.5171 10.144C17.7246 9.96094 17.9321 9.83887 18.1763 9.83887C18.7256 9.83887 19.165 10.2783 19.165 10.8154C19.165 11.084 19.043 11.2671 18.8599 11.4746L15.8936 14.4775L18.8477 17.4438C19.0186 17.627 19.1528 17.8345 19.1528 18.1274C19.1528 18.6523 18.7012 19.1162 18.1763 19.1162C17.8955 19.1162 17.6758 18.9697 17.4927 18.811L14.5142 15.8325L11.5479 18.811C11.3647 18.9819 11.1328 19.1162 10.8765 19.1162Z" fill="#5ac8f5"/>
 </g>
</svg>
