<?xml version="1.0" encoding="UTF-8"?>
<!--Generator: Apple Native CoreSVG 175.5-->
<!DOCTYPE svg
PUBLIC "-//W3C//DTD SVG 1.1//EN"
       "http://www.w3.org/Graphics/SVG/1.1/DTD/svg11.dtd">
<svg version="1.1" xmlns="http://www.w3.org/2000/svg" xmlns:xlink="http://www.w3.org/1999/xlink" width="24.9023" height="24.9146">
 <g>
  <rect height="24.9146" opacity="0" width="24.9023" x="0" y="0"/>
  <path d="M12.4512 24.9146C19.2627 24.9146 24.9023 19.2749 24.9023 12.4634C24.9023 5.66406 19.2505 0.012207 12.439 0.012207C5.63965 0.012207 0 5.66406 0 12.4634C0 19.2749 5.65186 24.9146 12.4512 24.9146Z" fill="#5ac8f5" fill-opacity="0.25"/>
  <path d="M5.88379 15.1123C5.48096 15.1123 5.17578 14.8193 5.17578 14.4653C5.17578 14.1113 5.48096 13.8062 5.88379 13.8062L7.40967 13.8062C7.8125 13.8062 8.11768 14.0991 8.11768 14.4653C8.11768 14.8315 7.8125 15.1123 7.40967 15.1123ZM8.43506 11.5234L7.34863 10.437C7.05566 10.1318 7.05566 9.74121 7.2998 9.47266C7.55615 9.22852 7.97119 9.2041 8.26416 9.49707L9.35059 10.5835C9.61914 10.8643 9.65576 11.2915 9.39941 11.5479C9.14307 11.8164 8.71582 11.792 8.43506 11.5234ZM12.4512 4.56543C12.8174 4.56543 13.1104 4.88281 13.1104 5.26123L13.1104 7.56836L13.0737 8.03223L13.2324 7.87354L14.0015 7.08008C14.0991 6.97021 14.2822 6.89697 14.4409 6.89697C14.7705 6.89697 15.0024 7.14111 15.0024 7.4585C15.0024 7.62939 14.9658 7.76367 14.8071 7.92236L12.8906 9.70459C12.7441 9.83887 12.5977 9.8999 12.4512 9.8999C12.3047 9.8999 12.1582 9.83887 12.0117 9.70459L10.0952 7.92236C9.94873 7.76367 9.8999 7.62939 9.8999 7.4585C9.8999 7.14111 10.1318 6.89697 10.4614 6.89697C10.6201 6.89697 10.791 6.97021 10.9131 7.09229L11.7676 7.92236L11.8286 7.99561L11.792 7.56836L11.792 5.26123C11.792 4.88281 12.085 4.56543 12.4512 4.56543ZM15.5273 11.5479C15.2588 11.2915 15.271 10.8765 15.564 10.5835L16.6382 9.49707C16.9312 9.21631 17.3462 9.2041 17.6025 9.47266C17.8467 9.74121 17.8345 10.1318 17.5537 10.437L16.4795 11.5234C16.1865 11.8042 15.7837 11.8042 15.5273 11.5479ZM17.5049 15.1123C17.1021 15.1123 16.7847 14.8315 16.7847 14.4653C16.7847 14.0991 17.1021 13.8062 17.5049 13.8062L19.0186 13.8062C19.4336 13.8062 19.7266 14.0991 19.7266 14.4653C19.7266 14.8193 19.4336 15.1123 19.0186 15.1123ZM15.9546 14.5996C15.9546 14.978 15.8813 15.3564 15.7471 15.7104L9.15527 15.7104C9.021 15.3564 8.94775 14.978 8.94775 14.5996C8.94775 12.6953 10.5469 11.1084 12.4512 11.1084C14.3677 11.1084 15.9546 12.6953 15.9546 14.5996ZM5.87158 17.7734C5.51758 17.7734 5.17578 17.4927 5.17578 17.1265C5.17578 16.7603 5.50537 16.4795 5.87158 16.4795L19.0308 16.4795C19.4092 16.4795 19.7266 16.7603 19.7266 17.1265C19.7266 17.4927 19.397 17.7734 19.0308 17.7734Z" fill="#5ac8f5"/>
 </g>
</svg>
