<?xml version="1.0" encoding="UTF-8"?>
<!--Generator: Apple Native CoreSVG 175.5-->
<!DOCTYPE svg
PUBLIC "-//W3C//DTD SVG 1.1//EN"
       "http://www.w3.org/Graphics/SVG/1.1/DTD/svg11.dtd">
<svg version="1.1" xmlns="http://www.w3.org/2000/svg" xmlns:xlink="http://www.w3.org/1999/xlink" width="22.5098" height="22.4243">
 <g>
  <rect height="22.4243" opacity="0" width="22.5098" x="0" y="0"/>
  <path d="M21.0815 1.46484C19.8364 0.219727 18.0786 0.0244141 15.9912 0.0244141L6.48193 0.0244141C4.43115 0.0244141 2.67334 0.219727 1.42822 1.46484C0.183105 2.70996 0 4.45557 0 6.49414L0 15.918C0 18.0054 0.183105 19.7388 1.42822 20.9839C2.67334 22.229 4.43115 22.4243 6.50635 22.4243L15.9912 22.4243C18.0786 22.4243 19.8364 22.229 21.0815 20.9839C22.3267 19.7388 22.5098 18.0054 22.5098 15.918L22.5098 6.53076C22.5098 4.44336 22.3267 2.69775 21.0815 1.46484ZM20.5444 6.18896L20.5444 16.2476C20.5444 17.5171 20.3857 18.811 19.6411 19.5557C18.9087 20.2881 17.5903 20.459 16.333 20.459L6.17676 20.459C4.91943 20.459 3.60107 20.2881 2.85645 19.5557C2.12402 18.811 1.96533 17.5171 1.96533 16.2476L1.96533 6.22559C1.96533 4.94385 2.12402 3.62549 2.85645 2.89307C3.60107 2.14844 4.93164 1.98975 6.21338 1.98975L16.333 1.98975C17.5903 1.98975 18.9087 2.16064 19.6411 2.89307C20.3857 3.6377 20.5444 4.93164 20.5444 6.18896ZM7.10449 16.3696C7.37305 16.3696 7.61719 16.2598 7.80029 16.0645L11.2549 12.5977L14.7339 16.0645C14.917 16.2476 15.1489 16.3696 15.4297 16.3696C15.979 16.3696 16.4185 15.9302 16.4185 15.3809C16.4185 15.1001 16.3086 14.8804 16.1133 14.6851L12.6465 11.2183L16.1255 7.72705C16.333 7.51953 16.4307 7.31201 16.4307 7.04346C16.4307 6.50635 15.9912 6.06689 15.4419 6.06689C15.1855 6.06689 14.978 6.16455 14.7705 6.37207L11.2549 9.85107L7.77588 6.38428C7.59277 6.18896 7.37305 6.09131 7.10449 6.09131C6.55518 6.09131 6.11572 6.51855 6.11572 7.05566C6.11572 7.32422 6.22559 7.55615 6.4209 7.73926L9.8877 11.2183L6.4209 14.6973C6.22559 14.8804 6.11572 15.1123 6.11572 15.3809C6.11572 15.9302 6.55518 16.3696 7.10449 16.3696Z" fill="#5ac8f5"/>
 </g>
</svg>
