<?xml version="1.0" encoding="UTF-8"?>
<!--Generator: Apple Native CoreSVG 175.5-->
<!DOCTYPE svg
PUBLIC "-//W3C//DTD SVG 1.1//EN"
       "http://www.w3.org/Graphics/SVG/1.1/DTD/svg11.dtd">
<svg version="1.1" xmlns="http://www.w3.org/2000/svg" xmlns:xlink="http://www.w3.org/1999/xlink" width="29.8706" height="27.3071">
 <g>
  <rect height="27.3071" opacity="0" width="29.8706" x="0" y="0"/>
  <path d="M14.8682 5.33447C16.3208 5.33447 17.5293 4.12598 17.5293 2.66113C17.5293 1.2085 16.3208 0 14.8682 0C13.4033 0 12.1948 1.2085 12.1948 2.66113C12.1948 4.12598 13.4033 5.33447 14.8682 5.33447ZM10.9497 21.2036C11.438 21.6919 12.207 21.6919 12.6953 21.2036L17.7246 16.1743C18.4204 15.4907 17.9688 14.209 16.9312 14.1113L11.2793 13.501C10.8032 13.4521 10.7422 13.1592 10.9497 12.854L12.9517 9.82666C13.1592 9.53369 13.5376 9.46045 13.8184 9.65576L17.3828 12.0117C17.5659 12.1338 17.7979 12.2314 18.0542 12.2314L23.6572 12.2314C24.3286 12.2314 24.8901 11.6699 24.8901 10.9985C24.8901 10.3027 24.3286 9.74121 23.6572 9.74121L18.4082 9.74121L7.53174 2.49023C7.33643 2.35596 7.10449 2.27051 6.84814 2.27051L1.23291 2.27051C0.561523 2.27051 0 2.84424 0 3.52783C0 4.19922 0.561523 4.76074 1.23291 4.76074L6.48193 4.76074L8.48389 6.09131C8.77686 6.28662 8.8623 6.66504 8.65479 6.95801L5.76172 11.3037C4.41895 13.3179 5.59082 16.0034 8.17871 16.1499L13.9526 16.4551L10.9497 19.458C10.4492 19.9463 10.4492 20.7153 10.9497 21.2036ZM6.29883 16.8335L6.29883 21.0205L2.84424 25.0122C2.40479 25.5371 2.45361 26.355 2.99072 26.8066C3.60107 27.2949 4.35791 27.124 4.76074 26.6602L8.48389 22.3022C8.69141 22.0581 8.75244 21.7896 8.78906 21.5332L9.48486 17.3828L8.12988 17.3218C7.44629 17.2852 6.82373 17.1143 6.29883 16.8335ZM23.6572 7.56836C23.6572 8.42285 25.061 9.11865 26.77 9.11865C28.479 9.11865 29.8706 8.42285 29.8706 7.56836C29.8706 6.71387 28.479 6.00586 26.77 6.00586C25.061 6.00586 23.6572 6.71387 23.6572 7.56836Z" fill="#5ac8f5"/>
 </g>
</svg>
