<?xml version="1.0" encoding="UTF-8"?>
<!--Generator: Apple Native CoreSVG 175.5-->
<!DOCTYPE svg
PUBLIC "-//W3C//DTD SVG 1.1//EN"
       "http://www.w3.org/Graphics/SVG/1.1/DTD/svg11.dtd">
<svg version="1.1" xmlns="http://www.w3.org/2000/svg" xmlns:xlink="http://www.w3.org/1999/xlink" width="24.9023" height="24.9146">
 <g>
  <rect height="24.9146" opacity="0" width="24.9023" x="0" y="0"/>
  <path d="M12.4512 24.9023C19.2627 24.9023 24.9023 19.2505 24.9023 12.4512C24.9023 5.63965 19.2505 0 12.439 0C5.63965 0 0 5.63965 0 12.4512C0 19.2505 5.65186 24.9023 12.4512 24.9023Z" fill="#5ac8f5" fill-opacity="0.25"/>
  <path d="M15.7227 17.6147C15.4663 17.6147 15.3076 17.5537 15.1123 17.4683L7.60498 13.562C7.08008 13.2935 6.86035 12.9761 6.86035 12.4512C6.86035 11.9751 7.10449 11.6211 7.60498 11.3403L15.1123 7.2998C15.3198 7.20215 15.4663 7.14111 15.7471 7.14111C16.3452 7.14111 16.7725 7.58057 16.7725 8.14209C16.7725 8.61816 16.5527 8.92334 16.04 9.16748L9.65576 12.3779L9.65576 12.4512L16.04 15.5884C16.5649 15.8325 16.7725 16.1133 16.7725 16.6016C16.7725 17.1753 16.333 17.6147 15.7227 17.6147Z" fill="#5ac8f5"/>
 </g>
</svg>
