<?xml version="1.0" encoding="UTF-8"?>
<!--Generator: Apple Native CoreSVG 175.5-->
<!DOCTYPE svg
PUBLIC "-//W3C//DTD SVG 1.1//EN"
       "http://www.w3.org/Graphics/SVG/1.1/DTD/svg11.dtd">
<svg version="1.1" xmlns="http://www.w3.org/2000/svg" xmlns:xlink="http://www.w3.org/1999/xlink" width="24.9023" height="24.9146">
 <g>
  <rect height="24.9146" opacity="0" width="24.9023" x="0" y="0"/>
  <path d="M12.4512 24.9023C19.2627 24.9023 24.9023 19.2505 24.9023 12.4512C24.9023 5.63965 19.2505 0 12.439 0C5.63965 0 0 5.63965 0 12.4512C0 19.2505 5.65186 24.9023 12.4512 24.9023Z" fill="#5ac8f5" fill-opacity="0.25"/>
  <path d="M7.39746 18.6646C6.67725 18.4326 6.45752 18.2129 6.23779 17.5049C5.896 16.333 5.85938 15.0024 6.11572 13.6963L11.2061 18.7744C9.8877 19.0308 8.56934 19.0063 7.39746 18.6646ZM16.1011 16.1011C15.0391 17.1753 13.8184 17.9443 12.5244 18.396L6.49414 12.3657C6.95801 11.084 7.71484 9.85107 8.78906 8.80127C9.83887 7.72705 11.0718 6.95801 12.3535 6.50635L18.396 12.5366C17.9321 13.8306 17.1753 15.0513 16.1011 16.1011ZM11.5723 15.0879C11.6699 14.9658 11.6699 14.7827 11.5723 14.6606L11.1206 14.1968L11.5723 13.7573L11.9995 14.1968C12.1338 14.3433 12.3291 14.3311 12.439 14.1968C12.5732 14.0869 12.5732 13.8794 12.439 13.7573L11.9873 13.3179L12.4512 12.8784L12.9028 13.3057C13.0127 13.4277 13.2202 13.4399 13.3301 13.3057C13.4644 13.208 13.4399 12.9883 13.3301 12.8784L12.8784 12.4268L13.3301 11.9751L13.7817 12.4146C13.916 12.5366 14.0991 12.5488 14.2212 12.4268C14.3433 12.3047 14.3433 12.0972 14.2212 11.9995L13.7695 11.5479L14.2212 11.0962L14.6606 11.5356C14.8071 11.6577 14.9902 11.6577 15.1123 11.5479C15.2222 11.4136 15.2344 11.2183 15.1123 11.0962L13.7817 9.77783C13.6597 9.65576 13.4888 9.66797 13.3423 9.77783C13.2324 9.8999 13.2446 10.0952 13.3423 10.2295L13.7939 10.6689L13.3301 11.1084L12.8906 10.6689C12.793 10.5469 12.5977 10.5469 12.4634 10.6689C12.3413 10.791 12.3413 10.9985 12.4634 11.1084L12.915 11.5479L12.4512 12.0117L11.9995 11.5601C11.8896 11.4258 11.6943 11.4258 11.5845 11.5723C11.4502 11.6699 11.4624 11.8774 11.5845 11.9873L12.0117 12.4268L11.5723 12.8906L11.1328 12.439C11.0107 12.3169 10.8032 12.3169 10.6934 12.4512C10.5591 12.561 10.5591 12.7808 10.6934 12.8906L11.1328 13.3179L10.6812 13.7695L10.2417 13.3301C10.1196 13.2202 9.93652 13.2202 9.80225 13.3301C9.68018 13.4644 9.68018 13.6597 9.80225 13.7695L11.1206 15.0757C11.2549 15.1978 11.438 15.21 11.5723 15.0879ZM18.6523 7.39746C18.9941 8.56934 19.0308 9.8877 18.7622 11.2061L13.6841 6.12793C15.0024 5.87158 16.3208 5.896 17.4927 6.23779C18.2007 6.46973 18.4204 6.68945 18.6523 7.39746Z" fill="#5ac8f5"/>
 </g>
</svg>
