<?xml version="1.0" encoding="UTF-8"?>
<!--Generator: Apple Native CoreSVG 175.5-->
<!DOCTYPE svg
PUBLIC "-//W3C//DTD SVG 1.1//EN"
       "http://www.w3.org/Graphics/SVG/1.1/DTD/svg11.dtd">
<svg version="1.1" xmlns="http://www.w3.org/2000/svg" xmlns:xlink="http://www.w3.org/1999/xlink" width="18.5913" height="21.521">
 <g>
  <rect height="21.521" opacity="0" width="18.5913" x="0" y="0"/>
  <path d="M9.30176 21.521C9.93652 21.521 10.3882 21.0693 10.3882 20.4346L10.3882 8.10547L10.3027 5.49316L13.9771 9.50928L16.7114 12.207C16.9067 12.4023 17.1997 12.5122 17.4927 12.5122C18.103 12.5122 18.5547 12.0483 18.5547 11.438C18.5547 11.145 18.4326 10.8765 18.1885 10.6201L10.1196 2.53906C9.8877 2.29492 9.59473 2.16064 9.30176 2.16064C8.99658 2.16064 8.71582 2.29492 8.48389 2.53906L0.402832 10.6201C0.170898 10.8765 0.0488281 11.145 0.0488281 11.438C0.0488281 12.0483 0.488281 12.5122 1.11084 12.5122C1.40381 12.5122 1.68457 12.4023 1.89209 12.207L4.62646 9.50928L8.30078 5.48096L8.20312 8.10547L8.20312 20.4346C8.20312 21.0693 8.65479 21.521 9.30176 21.521ZM1.0498 2.18506L17.5171 2.18506C18.1519 2.18506 18.5913 1.7334 18.5913 1.09863C18.5913 0.463867 18.1519 0 17.5171 0L1.0498 0C0.427246 0 0 0.463867 0 1.09863C0 1.7334 0.427246 2.18506 1.0498 2.18506Z" fill="#5ac8f5"/>
 </g>
</svg>
