<?xml version="1.0" encoding="UTF-8"?>
<!--Generator: Apple Native CoreSVG 175.5-->
<!DOCTYPE svg
PUBLIC "-//W3C//DTD SVG 1.1//EN"
       "http://www.w3.org/Graphics/SVG/1.1/DTD/svg11.dtd">
<svg version="1.1" xmlns="http://www.w3.org/2000/svg" xmlns:xlink="http://www.w3.org/1999/xlink" width="29.1016" height="25.4517">
 <g>
  <rect height="25.4517" opacity="0" width="29.1016" x="0" y="0"/>
  <path d="M2.80762 21.1182L26.2817 21.1182C28.0396 21.1182 29.1016 20.0562 29.1016 18.2983L29.1016 3.66211C29.1016 1.9043 28.0396 0.854492 26.2817 0.854492L2.80762 0.854492C1.06201 0.854492 0 1.9043 0 3.66211L0 18.2983C0 20.0562 1.06201 21.1182 2.80762 21.1182ZM2.84424 19.1528C2.30713 19.1528 1.96533 18.811 1.96533 18.2739L1.96533 3.69873C1.96533 3.14941 2.30713 2.81982 2.84424 2.81982L26.2573 2.81982C26.7944 2.81982 27.1362 3.14941 27.1362 3.69873L27.1362 18.2739C27.1362 18.811 26.7944 19.1528 26.2573 19.1528ZM10.6934 24.0234L18.4082 24.0234L18.4082 20.9595L10.6934 20.9595ZM10.6201 25.4517L18.4814 25.4517C19.0186 25.4517 19.458 25.0122 19.458 24.4629C19.458 23.9136 19.0186 23.4741 18.4814 23.4741L10.6201 23.4741C10.083 23.4741 9.63135 23.9136 9.63135 24.4629C9.63135 25.0122 10.083 25.4517 10.6201 25.4517ZM10.1685 14.0747C10.1685 14.7705 10.5103 15.1245 11.1694 15.1245L15.3076 15.1245C15.9668 15.1245 16.2964 14.7705 16.2964 14.0747L16.2964 10.9009C16.2964 10.2051 15.9668 9.86328 15.3076 9.86328L11.1694 9.86328C10.5103 9.86328 10.1685 10.2051 10.1685 10.9009ZM14.3677 10.5713L15.5762 10.5713L15.5762 8.83789C15.5762 7.92236 16.0522 7.34863 16.8823 7.34863C17.7124 7.34863 18.2007 7.92236 18.2007 8.83789L18.2007 9.69238C18.2007 10.0342 18.4692 10.3149 18.811 10.3149C19.1284 10.3149 19.4092 10.0342 19.4092 9.69238L19.4092 8.83789C19.4092 7.2998 18.4204 6.17676 16.8823 6.17676C15.3564 6.17676 14.3677 7.2998 14.3677 8.94775Z" fill="#5ac8f5"/>
 </g>
</svg>
