<?xml version="1.0" encoding="UTF-8"?>
<!--Generator: Apple Native CoreSVG 175.5-->
<!DOCTYPE svg
PUBLIC "-//W3C//DTD SVG 1.1//EN"
       "http://www.w3.org/Graphics/SVG/1.1/DTD/svg11.dtd">
<svg version="1.1" xmlns="http://www.w3.org/2000/svg" xmlns:xlink="http://www.w3.org/1999/xlink" width="20.7627" height="27.6245">
 <g>
  <rect height="27.6245" opacity="0" width="20.7627" x="0" y="0"/>
  <path d="M1.46179 12.7808C1.46179 17.5659 4.62341 20.9229 9.27429 21.3135L9.27429 24.1577L4.74548 24.1577C4.23279 24.1577 3.81775 24.5728 3.81775 25.0854C3.81775 25.5981 4.23279 26.001 4.74548 26.001L15.6464 26.001C16.1591 26.001 16.5741 25.5981 16.5741 25.0854C16.5741 24.5728 16.1591 24.1577 15.6464 24.1577L11.1176 24.1577L11.1176 21.3135C12.4969 21.2036 13.7299 20.8374 14.7919 20.2393L13.4857 18.9209C12.5458 19.3726 11.4471 19.6289 10.202 19.6289C6.01501 19.6289 3.30505 16.8701 3.30505 12.7075L3.30505 10.3027C3.30505 9.79004 2.90222 9.38721 2.37732 9.38721C1.86462 9.38721 1.46179 9.79004 1.46179 10.3027ZM16.6595 15.2954L18.0878 16.7236C18.6371 15.5762 18.9301 14.2456 18.9301 12.7808L18.9301 10.3027C18.9301 9.79004 18.5272 9.38721 18.0145 9.38721C17.5018 9.38721 17.0868 9.79004 17.0868 10.3027L17.0868 12.7075C17.0868 13.6475 16.9403 14.5142 16.6595 15.2954ZM10.202 17.0044C10.6171 17.0044 11.0199 16.9434 11.3739 16.8091L6.12488 11.5601L6.12488 12.5854C6.12488 15.1855 7.76062 17.0044 10.202 17.0044ZM10.202 0C12.6312 0 14.267 1.80664 14.267 4.41895L14.267 12.5854C14.267 12.6831 14.2548 12.793 14.2303 12.8784L6.12488 4.77295L6.12488 4.28467C6.18591 1.74561 7.79724 0 10.202 0ZM19.162 22.522C19.5282 22.8882 20.1263 22.8882 20.4926 22.522C20.8466 22.1436 20.8588 21.5576 20.4926 21.1914L1.60828 2.31934C1.24207 1.96533 0.631714 1.95312 0.265503 2.31934C-0.088501 2.68555-0.088501 3.2959 0.265503 3.6499Z" fill="#5ac8f5"/>
 </g>
</svg>
