<?xml version="1.0" encoding="UTF-8"?>
<!--Generator: Apple Native CoreSVG 175.5-->
<!DOCTYPE svg
PUBLIC "-//W3C//DTD SVG 1.1//EN"
       "http://www.w3.org/Graphics/SVG/1.1/DTD/svg11.dtd">
<svg version="1.1" xmlns="http://www.w3.org/2000/svg" xmlns:xlink="http://www.w3.org/1999/xlink" width="22.4731" height="22.4976">
 <g>
  <rect height="22.4976" opacity="0" width="22.4731" x="0" y="0"/>
  <path d="M3.83301 22.4976L18.6401 22.4976C21.2036 22.4976 22.4731 21.228 22.4731 18.7134L22.4731 3.80859C22.4731 1.29395 21.2036 0.0244141 18.6401 0.0244141L3.83301 0.0244141C1.28174 0.0244141 0 1.28174 0 3.80859L0 18.7134C0 21.2402 1.28174 22.4976 3.83301 22.4976Z" fill="#5ac8f5" fill-opacity="0.25"/>
  <path d="M8.09326 18.4326C7.26318 18.4326 6.78711 17.9688 6.75049 17.1509L6.37207 8.43506L8.49609 10.5591L8.70361 16.1255C8.70361 16.3696 8.89893 16.5405 9.14307 16.5405C9.41162 16.5405 9.57031 16.3696 9.57031 16.1255L9.39941 11.4746L10.7788 12.8418L10.7788 16.1255C10.7788 16.3696 10.9497 16.5405 11.2183 16.5405C11.4868 16.5405 11.6821 16.3696 11.6821 16.1255L11.6821 13.7573L12.915 14.9902L12.8784 16.1255C12.8784 16.3696 13.0249 16.5405 13.3057 16.5405C13.5132 16.5405 13.6963 16.4185 13.7329 16.2109L13.7695 15.8447L15.6006 17.6636L15.564 17.7856C15.4053 18.1763 14.9536 18.4326 14.4043 18.4326ZM16.7114 17.4561L5.2002 5.94482C4.98047 5.71289 4.98047 5.37109 5.2002 5.16357C5.41992 4.93164 5.76172 4.93164 5.98145 5.16357L17.4805 16.6626C17.7124 16.8823 17.7124 17.2241 17.4805 17.4438C17.2729 17.6636 16.9434 17.6758 16.7114 17.4561ZM15.8936 13.7329L13.8916 11.7188L14.0015 8.99658C14.0015 8.74023 13.8306 8.56934 13.562 8.56934C13.3057 8.56934 13.1104 8.72803 13.1104 8.99658L13.0371 10.8765L11.6821 9.52148L11.6821 8.99658C11.6821 8.74023 11.499 8.56934 11.2183 8.56934C11.145 8.56934 11.084 8.59375 11.0352 8.64258L11.0352 8.87451L8.02002 5.85938L8.27637 5.85938C8.27637 5.7251 8.27637 5.60303 8.27637 5.46875C8.27637 4.45557 8.93555 3.8208 9.99756 3.8208L12.4634 3.8208C13.5376 3.8208 14.209 4.45557 14.209 5.46875L14.209 6.45752L17.1265 6.45752C17.4194 6.45752 17.6758 6.68945 17.6636 6.98242C17.6514 7.26318 17.4194 7.49512 17.1265 7.49512L16.1621 7.49512ZM9.49707 6.45752L12.9517 6.45752L12.9517 5.52979C12.9517 5.2124 12.7197 5.00488 12.3901 5.00488L10.0586 5.00488C9.74121 5.00488 9.49707 5.2124 9.49707 5.52979Z" fill="#5ac8f5"/>
 </g>
</svg>
