<?xml version="1.0" encoding="UTF-8"?>
<!--Generator: Apple Native CoreSVG 175.5-->
<!DOCTYPE svg
PUBLIC "-//W3C//DTD SVG 1.1//EN"
       "http://www.w3.org/Graphics/SVG/1.1/DTD/svg11.dtd">
<svg version="1.1" xmlns="http://www.w3.org/2000/svg" xmlns:xlink="http://www.w3.org/1999/xlink" width="22.02" height="29.1626">
 <g>
  <rect height="29.1626" opacity="0" width="22.02" x="0" y="0"/>
  <path d="M11.5769 0C8.95235 0 6.66964 1.08643 5.16817 2.79541L6.47432 4.10156C7.6462 2.69775 9.51388 1.84326 11.5769 1.84326C15.007 1.84326 17.9001 4.22363 17.9001 7.51953C17.9001 9.74121 16.9602 10.9009 15.9958 13.6108L17.4973 15.1245C18.5471 12.1338 19.7434 10.5835 19.7434 7.51953C19.7434 3.30811 16.1423 0 11.5769 0ZM7.75606 22.229L15.3855 22.229C15.8615 22.229 16.1423 21.9604 16.1545 21.5088L16.2522 20.7275L14.946 19.519L14.8361 20.3857L8.67159 20.3857C8.03682 15.1245 6.79171 13.0493 6.24239 10.9619C6.19356 10.791 6.15694 10.6201 6.13253 10.4492L3.45919 7.77588C3.43477 8.08105 3.44698 8.37402 3.47139 8.66699C3.86202 12.4512 6.27901 14.0381 6.98702 21.5088C7.03585 21.9482 7.27999 22.229 7.75606 22.229ZM7.70723 24.8657L15.4343 24.8657C15.8371 24.8657 16.1545 24.5483 16.1545 24.1455C16.1545 23.7549 15.8371 23.4375 15.4343 23.4375L7.70723 23.4375C7.3044 23.4375 6.99923 23.7549 6.99923 24.1455C6.99923 24.5483 7.3044 24.8657 7.70723 24.8657ZM11.5769 28.4058C13.4567 28.4058 15.0437 27.478 15.1535 26.0742L7.988 26.0742C8.07345 27.478 9.67257 28.4058 11.5769 28.4058Z" fill="#5ac8f5" fill-opacity="0.5"/>
  <path d="M20.4148 22.7051C20.7932 23.0957 21.3791 23.0835 21.7453 22.7051C22.1115 22.3389 22.1115 21.7529 21.7453 21.3745L1.60372 1.23291C1.23751 0.854492 0.627156 0.878906 0.260945 1.23291C-0.0930585 1.58691-0.0808515 2.22168 0.260945 2.56348Z" fill="#5ac8f5"/>
 </g>
</svg>
