<?xml version="1.0" encoding="UTF-8"?>
<!--Generator: Apple Native CoreSVG 175.5-->
<!DOCTYPE svg
PUBLIC "-//W3C//DTD SVG 1.1//EN"
       "http://www.w3.org/Graphics/SVG/1.1/DTD/svg11.dtd">
<svg version="1.1" xmlns="http://www.w3.org/2000/svg" xmlns:xlink="http://www.w3.org/1999/xlink" width="28.894" height="21.7651">
 <g>
  <rect height="21.7651" opacity="0" width="28.894" x="0" y="0"/>
  <path d="M14.4409 15.1611C16.6016 15.1611 17.2119 13.8306 19.1284 13.3423L10.6689 4.54102C10.1196 3.97949 9.31396 3.89404 8.65479 4.37012L3.86963 7.77588C3.03955 8.34961 3.125 9.22852 3.60107 9.74121C3.9917 10.1807 4.71191 10.3638 5.39551 9.87549L9.27734 7.12891L11.4746 9.38721C11.7188 9.64355 11.792 10.0342 11.4136 10.2905L6.89697 13.2568C7.42188 13.208 7.9834 13.1836 8.63037 13.208C11.4014 13.3301 11.9141 15.1611 14.4409 15.1611ZM0.683594 18.3838L1.9165 18.3838C5.17578 18.3838 5.92041 16.3818 8.17871 16.3818C10.437 16.3818 11.1816 18.3838 14.4409 18.3838C17.7124 18.3838 18.4448 16.3818 20.7153 16.3818C22.9736 16.3818 23.7061 18.3838 26.9775 18.3838L28.2104 18.3838C28.5889 18.3838 28.894 18.0908 28.894 17.7124C28.894 17.334 28.5889 17.0288 28.2104 17.0288L26.9775 17.0288C24.6338 17.0288 23.8403 15.0269 20.7153 15.0269C17.5781 15.0269 16.7847 17.0288 14.4409 17.0288C12.0972 17.0288 11.3159 15.0269 8.17871 15.0269C5.05371 15.0269 4.26025 17.0288 1.9165 17.0288L0.683594 17.0288C0.292969 17.0288 0 17.334 0 17.7124C0 18.0908 0.292969 18.3838 0.683594 18.3838ZM0.683594 21.7529L1.9165 21.7529C5.17578 21.7529 5.92041 19.7388 8.17871 19.7388C10.437 19.7388 11.1816 21.7529 14.4409 21.7529C17.7124 21.7529 18.4448 19.7388 20.7153 19.7388C22.9736 19.7388 23.7061 21.7529 26.9775 21.7529L28.2104 21.7529C28.5889 21.7529 28.894 21.4478 28.894 21.0693C28.894 20.6909 28.5889 20.3857 28.2104 20.3857L26.9775 20.3857C24.6338 20.3857 23.8403 18.3838 20.7153 18.3838C17.5781 18.3838 16.7847 20.3857 14.4409 20.3857C12.0972 20.3857 11.3159 18.3838 8.17871 18.3838C5.05371 18.3838 4.26025 20.3857 1.9165 20.3857L0.683594 20.3857C0.292969 20.3857 0 20.6909 0 21.0693C0 21.4478 0.292969 21.7529 0.683594 21.7529ZM10.4858 0.683594C10.4858 1.06201 10.791 1.36719 11.1694 1.36719C12.2681 1.36719 12.9395 1.5625 13.6353 2.33154C13.9038 2.62451 14.1724 2.74658 14.4409 2.74658C14.7217 2.74658 14.9902 2.62451 15.2588 2.33154C15.9546 1.5625 16.626 1.36719 17.7246 1.36719C18.103 1.36719 18.4082 1.06201 18.4082 0.683594C18.4082 0.305176 18.103 0 17.7124 0C16.3574 0 15.4541 0.32959 14.4409 1.24512C13.4399 0.32959 12.5366 0 11.1694 0C10.791 0 10.4858 0.305176 10.4858 0.683594ZM19.3115 10.2173C20.7886 10.2173 21.9849 9.021 21.9849 7.54395C21.9849 6.0791 20.7886 4.88281 19.3115 4.88281C17.8345 4.88281 16.6504 6.0791 16.6504 7.54395C16.6504 9.021 17.8345 10.2173 19.3115 10.2173Z" fill="#5ac8f5"/>
 </g>
</svg>
