<?xml version="1.0" encoding="UTF-8"?>
<!--Generator: Apple Native CoreSVG 175.5-->
<!DOCTYPE svg
PUBLIC "-//W3C//DTD SVG 1.1//EN"
       "http://www.w3.org/Graphics/SVG/1.1/DTD/svg11.dtd">
<svg version="1.1" xmlns="http://www.w3.org/2000/svg" xmlns:xlink="http://www.w3.org/1999/xlink" width="23.8936" height="28.7231">
 <g>
  <rect height="28.7231" opacity="0" width="23.8936" x="0" y="0"/>
  <path d="M3.77197 26.5503L14.7827 26.5503C17.2729 26.5503 18.5425 25.2808 18.5425 22.8271L18.5425 3.71094C18.5425 1.24512 17.2485 0 14.7827 0L3.77197 0C1.30615 0 0 1.24512 0 3.71094L0 22.8271C0 25.2808 1.28174 26.5503 3.77197 26.5503ZM4.94385 6.7627C3.96729 6.7627 3.17383 5.95703 3.17383 4.96826C3.17383 4.00391 3.96729 3.21045 4.94385 3.21045C5.92041 3.21045 6.72607 4.00391 6.72607 4.96826C6.72607 5.95703 5.92041 6.7627 4.94385 6.7627ZM3.89404 16.98C3.45459 16.98 3.10059 16.6382 3.10059 16.1865C3.10059 15.7471 3.45459 15.3931 3.89404 15.3931L7.55615 15.3931C8.00781 15.3931 8.36182 15.7471 8.36182 16.1865C8.36182 16.6382 8.00781 16.98 7.55615 16.98ZM3.89404 20.1294C3.45459 20.1294 3.10059 19.7876 3.10059 19.3359C3.10059 18.8843 3.45459 18.5425 3.89404 18.5425L7.55615 18.5425C8.00781 18.5425 8.36182 18.8843 8.36182 19.3359C8.36182 19.7876 8.00781 20.1294 7.55615 20.1294ZM3.89404 23.2788C3.45459 23.2788 3.10059 22.9248 3.10059 22.4854C3.10059 22.0337 3.45459 21.6797 3.89404 21.6797L7.55615 21.6797C8.00781 21.6797 8.36182 22.0337 8.36182 22.4854C8.36182 22.9248 8.00781 23.2788 7.55615 23.2788ZM10.9863 16.98C10.5347 16.98 10.1807 16.6382 10.1807 16.1865C10.1807 15.7471 10.5347 15.3931 10.9863 15.3931L14.6484 15.3931C15.0879 15.3931 15.4419 15.7471 15.4419 16.1865C15.4419 16.6382 15.0879 16.98 14.6484 16.98ZM10.9863 20.1294C10.5347 20.1294 10.1807 19.7876 10.1807 19.3359C10.1807 18.8843 10.5347 18.5425 10.9863 18.5425L14.6484 18.5425C15.0879 18.5425 15.4419 18.8843 15.4419 19.3359C15.4419 19.7876 15.0879 20.1294 14.6484 20.1294ZM10.9863 23.2788C10.5347 23.2788 10.1807 22.9248 10.1807 22.4854C10.1807 22.0337 10.5347 21.6797 10.9863 21.6797L14.6484 21.6797C15.0879 21.6797 15.4419 22.0337 15.4419 22.4854C15.4419 22.9248 15.0879 23.2788 14.6484 23.2788ZM3.54004 28.6987C4.12598 28.6987 4.5166 28.2959 4.5166 27.71L4.5166 25.3174L2.55127 25.3174L2.55127 27.71C2.55127 28.2959 2.9541 28.6987 3.54004 28.6987ZM15.0024 28.6987C15.6006 28.6987 15.9912 28.2959 15.9912 27.71L15.9912 25.3174L14.0259 25.3174L14.0259 27.71C14.0259 28.2959 14.4165 28.6987 15.0024 28.6987Z" fill="#5ac8f5" fill-opacity="0.25"/>
  <path d="M13.0005 6.37207C12.0728 6.37207 11.1816 6.16455 10.376 5.66406C9.86328 5.37109 9.83887 4.83398 10.0586 4.49219C10.2539 4.1748 10.6689 4.01611 11.084 4.24805C11.792 4.65088 12.3413 4.79736 13.0005 4.79736C15.7959 4.79736 17.4927 2.13623 20.8008 2.13623C21.7285 2.13623 22.6074 2.36816 23.4253 2.84424C23.9624 3.14941 23.9746 3.68652 23.7427 4.04053C23.5474 4.32129 23.1567 4.49219 22.7173 4.24805C22.0093 3.85742 21.46 3.72314 20.8008 3.72314C17.9565 3.72314 16.2598 6.37207 13.0005 6.37207ZM13.0127 9.77783C12.085 9.77783 11.1938 9.55811 10.3882 9.06982C9.86328 8.77686 9.83887 8.23975 10.0586 7.89795C10.2539 7.58057 10.6812 7.40967 11.0962 7.65381C11.792 8.04443 12.3413 8.20312 13.0127 8.20312C15.8081 8.20312 17.5049 5.52979 20.8008 5.52979C21.7285 5.52979 22.6196 5.76172 23.4497 6.23779C23.9746 6.54297 23.9746 7.09229 23.7549 7.43408C23.5596 7.72705 23.1567 7.89795 22.7295 7.65381C22.0215 7.25098 21.4722 7.1167 20.8008 7.1167C17.9688 7.1167 16.2598 9.77783 13.0127 9.77783ZM13.0005 13.1714C12.0728 13.1714 11.1816 12.9639 10.376 12.4634C9.86328 12.1704 9.83887 11.6333 10.0586 11.2915C10.2539 10.9741 10.6689 10.8154 11.084 11.0474C11.792 11.4502 12.3413 11.5967 13.0005 11.5967C15.7959 11.5967 17.4927 8.93555 20.8008 8.93555C21.7285 8.93555 22.6074 9.16748 23.4253 9.64355C23.9624 9.94873 23.9746 10.4858 23.7427 10.8398C23.5474 11.1206 23.1567 11.2915 22.7173 11.0474C22.0093 10.6567 21.46 10.5225 20.8008 10.5225C17.9565 10.5225 16.2598 13.1714 13.0005 13.1714Z" fill="#5ac8f5"/>
 </g>
</svg>
