<?xml version="1.0" encoding="UTF-8"?>
<!--Generator: Apple Native CoreSVG 175.5-->
<!DOCTYPE svg
PUBLIC "-//W3C//DTD SVG 1.1//EN"
       "http://www.w3.org/Graphics/SVG/1.1/DTD/svg11.dtd">
<svg version="1.1" xmlns="http://www.w3.org/2000/svg" xmlns:xlink="http://www.w3.org/1999/xlink" width="28.7842" height="22.4731">
 <g>
  <rect height="22.4731" opacity="0" width="28.7842" x="0" y="0"/>
  <path d="M3.83301 22.4731L24.9512 22.4731C27.5146 22.4731 28.7842 21.2158 28.7842 18.7012L28.7842 3.78418C28.7842 1.26953 27.5146 0 24.9512 0L3.83301 0C1.28174 0 0 1.26953 0 3.78418L0 18.7012C0 21.2158 1.28174 22.4731 3.83301 22.4731ZM6.17676 20.6421C7.10449 17.5415 10.4004 15.3198 14.4043 15.3198C18.396 15.3198 21.6919 17.5415 22.6318 20.6421ZM14.4043 13.269C12.0728 13.2446 10.2417 11.3159 10.2295 8.70361C10.2173 6.25 12.0728 4.22363 14.4043 4.22363C16.7358 4.22363 18.5791 6.25 18.5791 8.70361C18.5791 11.3159 16.7358 13.2935 14.4043 13.269Z" fill="#5ac8f5"/>
 </g>
</svg>
