<?xml version="1.0" encoding="UTF-8"?>
<!--Generator: Apple Native CoreSVG 175.5-->
<!DOCTYPE svg
PUBLIC "-//W3C//DTD SVG 1.1//EN"
       "http://www.w3.org/Graphics/SVG/1.1/DTD/svg11.dtd">
<svg version="1.1" xmlns="http://www.w3.org/2000/svg" xmlns:xlink="http://www.w3.org/1999/xlink" width="24.9023" height="24.9146">
 <g>
  <rect height="24.9146" opacity="0" width="24.9023" x="0" y="0"/>
  <path d="M12.4512 24.9023C19.2627 24.9023 24.9023 19.2505 24.9023 12.4512C24.9023 5.63965 19.2505 0 12.439 0C5.63965 0 0 5.63965 0 12.4512C0 19.2505 5.65186 24.9023 12.4512 24.9023ZM12.4512 22.8271C6.68945 22.8271 2.0874 18.2129 2.0874 12.4512C2.0874 6.68945 6.67725 2.0752 12.439 2.0752C18.2007 2.0752 22.8271 6.68945 22.8271 12.4512C22.8271 18.2129 18.2129 22.8271 12.4512 22.8271Z" fill="#5ac8f5" fill-opacity="0.5"/>
  <path d="M8.41064 17.7124C10.4858 17.7124 11.9263 16.4673 11.9263 14.7095C11.9263 13.4155 11.0352 12.3657 9.80225 12.2437L9.80225 12.1704C10.8032 11.9995 11.5967 10.9863 11.5967 9.83887C11.5967 8.27637 10.3149 7.18994 8.49609 7.18994C6.84814 7.18994 5.61523 8.12988 5.29785 9.32617C5.27344 9.48486 5.27344 9.60693 5.27344 9.76562C5.27344 10.2051 5.54199 10.5103 5.96924 10.5103C6.33545 10.5103 6.53076 10.3149 6.64062 9.92432C6.92139 9.06982 7.50732 8.59375 8.45947 8.59375C9.42383 8.59375 10.1074 9.17969 10.1074 10.0342C10.1074 10.9253 9.42383 11.5723 8.44727 11.5723L7.78809 11.5723C7.39746 11.5723 7.1167 11.853 7.1167 12.2925C7.1167 12.6831 7.38525 12.9883 7.78809 12.9883L8.5083 12.9883C9.66797 12.9883 10.4126 13.6475 10.4126 14.6362C10.4126 15.5884 9.59473 16.3086 8.42285 16.3086C7.4585 16.3086 6.79932 15.8325 6.46973 14.978C6.32324 14.5874 6.11572 14.3921 5.77393 14.3921C5.35889 14.3921 5.06592 14.6973 5.06592 15.1245C5.06592 15.2954 5.09033 15.4175 5.12695 15.5762C5.45654 16.6992 6.75049 17.7124 8.41064 17.7124ZM16.5894 17.7124C18.7378 17.7124 20.1782 16.394 20.1782 14.2456C20.1782 12.3657 18.9087 10.9985 17.0166 10.9985C16.1987 10.9985 15.3198 11.4014 14.9658 11.9507L14.9048 11.9507L15.1367 8.81348L19.1772 8.81348C19.519 8.81348 19.7754 8.53271 19.7754 8.12988C19.7754 7.73926 19.5312 7.44629 19.1772 7.44629L14.978 7.44629C14.3433 7.44629 13.916 7.83691 13.8794 8.48389L13.5742 12.2925C13.5376 12.9272 13.8672 13.3423 14.4287 13.3423C14.8071 13.3423 15.0391 13.2446 15.4297 12.9272C15.9302 12.4878 16.3208 12.3047 16.8579 12.3047C17.9321 12.3047 18.6646 13.1592 18.6646 14.2822C18.6646 15.564 17.8589 16.333 16.6748 16.333C15.8447 16.333 15.1245 15.8936 14.7705 15.1611C14.5996 14.8071 14.3555 14.6362 14.0747 14.6362C13.6597 14.6362 13.3911 14.9414 13.3911 15.3442C13.3911 15.5396 13.4277 15.7227 13.4888 15.8936C13.855 16.9067 15.0635 17.7124 16.5894 17.7124Z" fill="#5ac8f5"/>
 </g>
</svg>
