<?xml version="1.0" encoding="UTF-8"?>
<!--Generator: Apple Native CoreSVG 175.5-->
<!DOCTYPE svg
PUBLIC "-//W3C//DTD SVG 1.1//EN"
       "http://www.w3.org/Graphics/SVG/1.1/DTD/svg11.dtd">
<svg version="1.1" xmlns="http://www.w3.org/2000/svg" xmlns:xlink="http://www.w3.org/1999/xlink" width="24.9023" height="24.9146">
 <g>
  <rect height="24.9146" opacity="0" width="24.9023" x="0" y="0"/>
  <path d="M12.4512 24.9146C19.2627 24.9146 24.9023 19.2749 24.9023 12.4634C24.9023 5.66406 19.2505 0.012207 12.439 0.012207C5.63965 0.012207 0 5.66406 0 12.4634C0 19.2749 5.65186 24.9146 12.4512 24.9146ZM8.41064 14.0381C6.61621 14.0381 5.57861 12.8662 5.57861 11.4502C5.57861 10.1807 6.40869 9.22852 7.49512 8.91113C7.70264 6.66504 9.58252 4.87061 11.8408 4.87061C13.5864 4.87061 14.978 5.85938 15.7471 7.33643C17.7856 7.33643 19.3604 8.74023 19.3604 10.6689C19.3604 12.5244 17.8589 14.0381 15.9058 14.0381ZM9.13086 17.334C8.98438 17.6025 8.63037 17.7124 8.34961 17.5537C8.06885 17.395 7.9834 17.0166 8.12988 16.7603L8.87451 15.4907C9.021 15.2222 9.375 15.1245 9.65576 15.271C9.93652 15.4419 10.022 15.8081 9.87549 16.0645ZM12.5854 17.334C12.439 17.6025 12.0728 17.7124 11.8042 17.5537C11.5234 17.395 11.438 17.0166 11.5967 16.7603L12.3291 15.4907C12.4756 15.2222 12.8418 15.1245 13.1104 15.271C13.3911 15.4419 13.4766 15.8081 13.3179 16.0645ZM16.0278 17.334C15.8813 17.6025 15.5273 17.7124 15.2466 17.5537C14.9658 17.395 14.8804 17.0166 15.0269 16.7603L15.7715 15.4907C15.918 15.2222 16.272 15.1245 16.5527 15.271C16.8457 15.4419 16.9189 15.8081 16.7725 16.0645ZM7.6416 19.8242C7.17773 19.8242 6.79932 19.4458 6.79932 18.9819C6.79932 18.5303 7.17773 18.1519 7.6416 18.1519C8.09326 18.1519 8.47168 18.5303 8.47168 18.9819C8.47168 19.4458 8.09326 19.8242 7.6416 19.8242ZM11.0962 19.8242C10.6323 19.8242 10.2539 19.4458 10.2539 18.9819C10.2539 18.5303 10.6323 18.1519 11.0962 18.1519C11.5601 18.1519 11.9385 18.5303 11.9385 18.9819C11.9385 19.4458 11.5601 19.8242 11.0962 19.8242ZM14.5386 19.8242C14.0869 19.8242 13.6963 19.4458 13.6963 18.9819C13.6963 18.5303 14.0869 18.1519 14.5386 18.1519C14.9902 18.1519 15.3809 18.5303 15.3809 18.9819C15.3809 19.4458 14.9902 19.8242 14.5386 19.8242Z" fill="#5ac8f5"/>
 </g>
</svg>
