<?xml version="1.0" encoding="UTF-8"?>
<!--Generator: Apple Native CoreSVG 175.5-->
<!DOCTYPE svg
PUBLIC "-//W3C//DTD SVG 1.1//EN"
       "http://www.w3.org/Graphics/SVG/1.1/DTD/svg11.dtd">
<svg version="1.1" xmlns="http://www.w3.org/2000/svg" xmlns:xlink="http://www.w3.org/1999/xlink" width="24.9023" height="24.9146">
 <g>
  <rect height="24.9146" opacity="0" width="24.9023" x="0" y="0"/>
  <path d="M12.4512 24.9146C19.2627 24.9146 24.9023 19.2749 24.9023 12.4634C24.9023 5.66406 19.2505 0.012207 12.439 0.012207C5.63965 0.012207 0 5.66406 0 12.4634C0 19.2749 5.65186 24.9146 12.4512 24.9146ZM6.9458 13.3301C6.9458 13.1714 7.01904 12.9883 7.15332 12.8418L14.0503 4.1748C14.5752 3.52783 15.4419 3.96729 15.1367 4.77295L12.854 10.8887L17.1265 10.8887C17.4561 10.8887 17.7002 11.1206 17.7002 11.438C17.7002 11.5967 17.627 11.7798 17.4927 11.9385L10.5957 20.5933C10.0708 21.2402 9.2041 20.8008 9.50928 19.9951L11.792 13.8794L7.51953 13.8794C7.18994 13.8794 6.9458 13.6475 6.9458 13.3301Z" fill="#5ac8f5"/>
 </g>
</svg>
