<?xml version="1.0" encoding="UTF-8"?>
<!--Generator: Apple Native CoreSVG 175.5-->
<!DOCTYPE svg
PUBLIC "-//W3C//DTD SVG 1.1//EN"
       "http://www.w3.org/Graphics/SVG/1.1/DTD/svg11.dtd">
<svg version="1.1" xmlns="http://www.w3.org/2000/svg" xmlns:xlink="http://www.w3.org/1999/xlink" width="22.4731" height="22.4976">
 <g>
  <rect height="22.4976" opacity="0" width="22.4731" x="0" y="0"/>
  <path d="M3.83301 22.4976L18.6401 22.4976C21.2036 22.4976 22.4731 21.228 22.4731 18.7134L22.4731 3.80859C22.4731 1.29395 21.2036 0.0244141 18.6401 0.0244141L3.83301 0.0244141C1.28174 0.0244141 0 1.28174 0 3.80859L0 18.7134C0 21.2402 1.28174 22.4976 3.83301 22.4976ZM3.85742 20.5322C2.63672 20.5322 1.96533 19.8853 1.96533 18.6157L1.96533 3.90625C1.96533 2.63672 2.63672 1.98975 3.85742 1.98975L18.6157 1.98975C19.8242 1.98975 20.5078 2.63672 20.5078 3.90625L20.5078 18.6157C20.5078 19.8853 19.8242 20.5322 18.6157 20.5322Z" fill="#5ac8f5" fill-opacity="0.5"/>
  <path d="M7.04346 16.5039C9.14307 16.5039 10.5347 14.4897 10.5347 11.2427C10.5347 7.99561 9.14307 5.98145 7.04346 5.98145C4.94385 5.98145 3.55225 7.99561 3.55225 11.2427C3.55225 14.4897 4.94385 16.5039 7.04346 16.5039ZM7.04346 15.0269C5.88379 15.0269 5.15137 13.5864 5.15137 11.2427C5.15137 8.89893 5.88379 7.4585 7.04346 7.4585C8.20312 7.4585 8.93555 8.89893 8.93555 11.2427C8.93555 13.5864 8.21533 15.0269 7.04346 15.0269ZM17.1265 16.4795C17.6147 16.4795 17.8711 16.1377 17.8711 15.6616L17.8711 14.2212L18.5303 14.2212C18.9575 14.2212 19.2261 13.9771 19.2261 13.5498C19.2261 13.1104 18.9575 12.854 18.5303 12.854L17.8711 12.854L17.8711 7.14111C17.8711 6.43311 17.3828 5.98145 16.6626 5.98145C15.9546 5.98145 15.5273 6.25 15.1245 6.92139C14.1113 8.63037 12.8784 10.73 12.0605 12.207C11.853 12.5854 11.792 12.854 11.792 13.1836C11.792 13.8306 12.207 14.2212 12.8296 14.2212L16.394 14.2212L16.394 15.6616C16.394 16.1255 16.6504 16.4795 17.1265 16.4795ZM16.394 12.854L13.3789 12.854L13.3789 12.8052C14.0991 11.4258 15.3564 9.27734 16.333 7.62939L16.394 7.62939Z" fill="#5ac8f5"/>
 </g>
</svg>
