<?xml version="1.0" encoding="UTF-8"?>
<!--Generator: Apple Native CoreSVG 175.5-->
<!DOCTYPE svg
PUBLIC "-//W3C//DTD SVG 1.1//EN"
       "http://www.w3.org/Graphics/SVG/1.1/DTD/svg11.dtd">
<svg version="1.1" xmlns="http://www.w3.org/2000/svg" xmlns:xlink="http://www.w3.org/1999/xlink" width="22.4731" height="22.7661">
 <g>
  <rect height="22.7661" opacity="0" width="22.4731" x="0" y="0"/>
  <path d="M0 18.6401C0 21.2036 1.26953 22.4731 3.78418 22.4731L18.689 22.4731C21.2036 22.4731 22.4731 21.2036 22.4731 18.6401L22.4731 3.83301C22.4731 1.28174 21.2158 0 18.689 0L3.78418 0C1.25732 0 0 1.28174 0 3.83301ZM1.96533 18.6157L1.96533 11.2427L20.5078 11.2427L20.5078 18.6157C20.5078 19.8242 19.8608 20.5078 18.5913 20.5078L3.88184 20.5078C2.6123 20.5078 1.96533 19.8242 1.96533 18.6157Z" fill="#5ac8f5"/>
 </g>
</svg>
