<?xml version="1.0" encoding="UTF-8"?>
<!--Generator: Apple Native CoreSVG 175.5-->
<!DOCTYPE svg
PUBLIC "-//W3C//DTD SVG 1.1//EN"
       "http://www.w3.org/Graphics/SVG/1.1/DTD/svg11.dtd">
<svg version="1.1" xmlns="http://www.w3.org/2000/svg" xmlns:xlink="http://www.w3.org/1999/xlink" width="24.9023" height="24.9146">
 <g>
  <rect height="24.9146" opacity="0" width="24.9023" x="0" y="0"/>
  <path d="M12.9639 22.2168C14.7217 22.2168 19.1406 16.3818 19.1406 14.1357C19.1406 12.7808 16.333 10.3516 14.8193 10.3516C14.1235 10.3516 13.1348 11.2061 12.5244 11.2061C11.9629 11.2061 10.3516 9.92432 10.3516 9.46045C10.3516 9.27734 10.6445 9.04541 10.8765 9.04541C11.2305 9.04541 12.4878 10.1807 13.1958 10.1807C14.2212 10.1807 14.8926 9.50928 14.8926 8.44727C14.8926 8.08105 14.7461 7.72705 14.4287 7.27539C15.7837 6.5918 18.2251 5.24902 18.9819 3.57666L17.8833 3.00293C17.2363 4.54102 14.5142 5.82275 13.1104 6.55518C12.8418 6.68945 12.6953 6.99463 12.9395 7.33643C13.4399 8.03223 13.6597 8.3374 13.6597 8.60596C13.6597 8.80127 13.5132 8.94775 13.3057 8.94775C12.9028 8.94775 11.5723 7.8125 10.8765 7.8125C10.0586 7.8125 9.11865 8.6792 9.11865 9.46045C9.11865 10.5835 11.377 12.439 12.5244 12.439C13.208 12.439 14.4287 11.5723 14.8193 11.5723C15.625 11.5723 17.9077 13.4888 17.9077 14.1357C17.9077 15.5762 13.9893 20.9839 12.9272 20.9839C12.6465 20.9839 12.2925 20.7153 12.2925 20.4834C12.2925 20.3491 12.3291 20.2515 12.4634 19.8242C12.5854 19.4336 12.7686 18.8965 12.7563 18.3105C12.7441 17.5171 12.0972 16.9556 10.6689 15.9424C10.4126 15.7593 10.144 15.5762 9.87549 15.3687C9.48486 15.0757 9.32617 14.8193 9.32617 14.5264C9.32617 14.3677 9.36279 14.1968 9.48486 13.8184C9.59473 13.4277 9.66797 13.1226 9.66797 12.9028C9.66797 12.3535 9.38721 11.9873 8.80127 11.4868C8.71582 11.4258 8.65479 11.3647 8.58154 11.3037L6.62842 9.55811C4.18701 7.37305 4.19922 6.11572 5.18799 4.49219L3.9917 4.24805C2.97852 5.896 2.84424 7.87354 5.81055 10.4858L7.75146 12.1948C8.20312 12.5977 8.43506 12.7563 8.43506 12.9395C8.43506 13.208 8.09326 13.7817 8.09326 14.5264C8.09326 15.2222 8.43506 15.8447 9.13086 16.3574C10.5591 17.4316 11.5234 18.0176 11.5234 18.335C11.5356 19.0796 11.0596 19.6899 11.0596 20.5322C11.0596 21.3745 12.0728 22.2168 12.9639 22.2168ZM12.4512 24.9023C19.2627 24.9023 24.9023 19.2505 24.9023 12.4512C24.9023 5.63965 19.2505 0 12.439 0C5.63965 0 0 5.63965 0 12.4512C0 19.2505 5.65186 24.9023 12.4512 24.9023ZM12.4512 23.2422C6.55518 23.2422 1.66016 18.3472 1.66016 12.4512C1.66016 6.55518 6.54297 1.66016 12.439 1.66016C18.335 1.66016 23.2422 6.55518 23.2422 12.4512C23.2422 18.3472 18.3472 23.2422 12.4512 23.2422Z" fill="#5ac8f5"/>
 </g>
</svg>
