<?xml version="1.0" encoding="UTF-8"?>
<!--Generator: Apple Native CoreSVG 175.5-->
<!DOCTYPE svg
PUBLIC "-//W3C//DTD SVG 1.1//EN"
       "http://www.w3.org/Graphics/SVG/1.1/DTD/svg11.dtd">
<svg version="1.1" xmlns="http://www.w3.org/2000/svg" xmlns:xlink="http://www.w3.org/1999/xlink" width="24.9023" height="24.9146">
 <g>
  <rect height="24.9146" opacity="0" width="24.9023" x="0" y="0"/>
  <path d="M12.4512 24.9023C19.2627 24.9023 24.9023 19.2505 24.9023 12.4512C24.9023 5.63965 19.2505 0 12.439 0C5.63965 0 0 5.63965 0 12.4512C0 19.2505 5.65186 24.9023 12.4512 24.9023ZM12.4512 22.8271C6.68945 22.8271 2.0874 18.2129 2.0874 12.4512C2.0874 6.68945 6.67725 2.0752 12.439 2.0752C18.2007 2.0752 22.8271 6.68945 22.8271 12.4512C22.8271 18.2129 18.2129 22.8271 12.4512 22.8271Z" fill="#5ac8f5" fill-opacity="0.5"/>
  <path d="M7.95898 11.7554C7.95898 12.085 8.21533 12.3535 8.55713 12.3535L9.30176 12.3535L9.30176 17.7734C9.30176 18.2373 9.65576 18.5669 10.1074 18.5669C10.5713 18.5669 10.9009 18.2373 10.9009 17.7734L10.9009 14.6484L13.0371 14.6484C14.6973 14.6484 15.979 13.7573 16.5283 12.3535L17.3462 12.3535C17.688 12.3535 17.9443 12.085 17.9443 11.7554C17.9443 11.3892 17.688 11.145 17.3462 11.145L16.7847 11.145C16.8091 11.0229 16.8091 10.8887 16.8091 10.7666C16.8091 10.6323 16.8091 10.5225 16.7969 10.376L17.3462 10.376C17.688 10.376 17.9443 10.1074 17.9443 9.76562C17.9443 9.41162 17.688 9.16748 17.3462 9.16748L16.5161 9.16748C15.9668 7.78809 14.6973 6.89697 13.0371 6.89697L10.083 6.89697C9.60693 6.89697 9.30176 7.21436 9.30176 7.71484L9.30176 9.16748L8.55713 9.16748C8.21533 9.16748 7.95898 9.41162 7.95898 9.76562C7.95898 10.1074 8.21533 10.376 8.55713 10.376L9.30176 10.376L9.30176 11.145L8.55713 11.145C8.21533 11.145 7.95898 11.3892 7.95898 11.7554ZM10.9131 13.1958L10.9131 12.3535L14.7461 12.3535C14.3311 12.8906 13.6597 13.1958 12.7808 13.1958ZM10.9131 11.145L10.9131 10.376L15.21 10.376C15.2344 10.498 15.2344 10.6201 15.2344 10.7666C15.2344 10.8887 15.2344 11.0229 15.21 11.145ZM10.9131 9.16748L10.9131 8.34961L12.7808 8.34961C13.6597 8.34961 14.3311 8.64258 14.7339 9.16748Z" fill="#5ac8f5"/>
 </g>
</svg>
