<?xml version="1.0" encoding="UTF-8"?>
<!--Generator: Apple Native CoreSVG 175.5-->
<!DOCTYPE svg
PUBLIC "-//W3C//DTD SVG 1.1//EN"
       "http://www.w3.org/Graphics/SVG/1.1/DTD/svg11.dtd">
<svg version="1.1" xmlns="http://www.w3.org/2000/svg" xmlns:xlink="http://www.w3.org/1999/xlink" width="25.0596" height="21.6675">
 <g>
  <rect height="21.6675" opacity="0" width="25.0596" x="0" y="0"/>
  <path d="M1.10943 7.34863C2.86724 6.78711 4.68609 6.49414 6.41949 6.49414C8.66558 6.49414 10.3135 6.86035 12.4376 6.86035C14.6348 6.86035 16.002 5.37109 16.002 3.43018C16.002 1.44043 14.4761 0.012207 12.5962 0.012207C11.2046 0.012207 9.98394 0.891113 9.47125 2.05078C9.27594 2.45361 9.34918 2.91748 9.77642 3.13721C10.167 3.33252 10.6431 3.21045 10.8995 2.72217C11.168 2.09961 11.8272 1.61133 12.5962 1.61133C13.6094 1.61133 14.4029 2.31934 14.4029 3.43018C14.4029 4.54102 13.6338 5.27344 12.4376 5.27344C10.4112 5.27344 8.73883 4.90723 6.41949 4.90723C4.42974 4.90723 2.41558 5.26123 0.62115 5.83496C0.108455 5.98145-0.0868577 6.4209 0.0352126 6.83594C0.157283 7.26318 0.560115 7.50732 1.10943 7.34863ZM20.2012 13.0615C23.0455 13.0615 25.0596 11.2549 25.0596 8.72803C25.0596 6.23779 23.1431 4.43115 20.7628 4.43115C18.5533 4.43115 16.9175 5.96924 16.6246 7.9834C16.5513 8.49609 16.8321 8.89893 17.2715 8.95996C17.7232 9.021 18.1138 8.74023 18.2115 8.1665C18.419 6.88477 19.481 6.01807 20.7628 6.01807C22.252 6.01807 23.4605 7.12891 23.4605 8.72803C23.4605 10.3516 22.1788 11.4746 20.2012 11.4746C16.4781 11.4746 12.462 9.35059 7.57916 9.35059C5.06451 9.35059 2.76959 9.75342 0.62115 10.5103C0.120662 10.6934-0.0868577 11.1206 0.0352126 11.5356C0.157283 11.9629 0.572322 12.2192 1.10943 12.0361C3.09918 11.2793 5.17437 10.9497 7.57916 10.9497C12.4498 10.9497 16.0875 13.0615 20.2012 13.0615ZM12.4498 21.6675C14.3296 21.6675 15.7823 20.2759 15.7823 18.2861C15.7823 15.4053 12.8404 13.7939 7.42047 13.7939C5.14996 13.7939 2.69635 14.2334 0.62115 14.9414C0.120662 15.1245-0.0868577 15.5518 0.0352126 15.9668C0.157283 16.394 0.572322 16.6504 1.10943 16.4673C3.05035 15.7715 5.2232 15.3931 7.42047 15.3931C11.8516 15.3931 14.1954 16.5039 14.1954 18.2861C14.1954 19.397 13.4141 20.0806 12.4498 20.0806C11.4854 20.0806 10.8995 19.4336 10.7286 18.4082C10.6553 17.9565 10.3257 17.5781 9.80084 17.6147C9.25152 17.6514 9.03179 18.1152 9.10504 18.6157C9.32476 20.3125 10.5821 21.6675 12.4498 21.6675Z" fill="#5ac8f5"/>
 </g>
</svg>
