<?xml version="1.0" encoding="UTF-8"?>
<!--Generator: Apple Native CoreSVG 175.5-->
<!DOCTYPE svg
PUBLIC "-//W3C//DTD SVG 1.1//EN"
       "http://www.w3.org/Graphics/SVG/1.1/DTD/svg11.dtd">
<svg version="1.1" xmlns="http://www.w3.org/2000/svg" xmlns:xlink="http://www.w3.org/1999/xlink" width="30.0005" height="21.0571">
 <g>
  <rect height="21.0571" opacity="0" width="30.0005" x="0" y="0"/>
  <path d="M0.939941 1.9165L3.479 1.9165C3.84521 6.93359 7.51953 10.3638 12.7319 10.3638C17.9565 10.3638 21.6187 6.93359 21.9727 1.9043L24.5361 1.9043C25.0488 1.9043 25.4761 1.47705 25.4761 0.964355C25.4761 0.45166 25.0488 0 24.5361 0L0.939941 0.012207C0.415039 0.012207 0 0.463867 0 0.964355C0 1.47705 0.427246 1.9043 0.939941 1.9165ZM10.6201 11.7554L19.4824 20.6299C19.8975 21.0205 20.4346 21.0205 20.8374 20.6299C21.228 20.2271 21.2402 19.6777 20.8374 19.2871L13.4399 11.9141C12.1704 11.9141 11.6943 11.9507 10.6201 11.7554ZM16.2109 11.438L22.4487 17.6758C22.8516 18.0664 23.3887 18.0664 23.8037 17.6758C24.1943 17.2607 24.1821 16.7236 23.8037 16.3208L18.1396 10.6689C17.5415 10.9863 16.8945 11.2427 16.2109 11.438ZM20.0562 9.36279L25.4028 14.7217C25.8057 15.1367 26.3428 15.1123 26.7578 14.7095C27.1484 14.3188 27.1362 13.7695 26.7456 13.3667L21.3379 7.95898C20.9595 8.47168 20.5322 8.94775 20.0562 9.36279ZM22.5586 5.96924L28.3569 11.7676C28.7598 12.1704 29.3091 12.1582 29.7241 11.7554C30.1025 11.3647 30.0903 10.8154 29.6997 10.4126L23.23 3.93066C23.0713 4.66309 22.8516 5.33447 22.5586 5.96924Z" fill="#5ac8f5"/>
 </g>
</svg>
