<?xml version="1.0" encoding="UTF-8"?>
<!--Generator: Apple Native CoreSVG 175.5-->
<!DOCTYPE svg
PUBLIC "-//W3C//DTD SVG 1.1//EN"
       "http://www.w3.org/Graphics/SVG/1.1/DTD/svg11.dtd">
<svg version="1.1" xmlns="http://www.w3.org/2000/svg" xmlns:xlink="http://www.w3.org/1999/xlink" width="22.4731" height="22.4976">
 <g>
  <rect height="22.4976" opacity="0" width="22.4731" x="0" y="0"/>
  <path d="M3.83301 22.4976L18.6401 22.4976C21.2036 22.4976 22.4731 21.228 22.4731 18.7134L22.4731 3.80859C22.4731 1.29395 21.2036 0.0244141 18.6401 0.0244141L3.83301 0.0244141C1.28174 0.0244141 0 1.28174 0 3.80859L0 18.7134C0 21.2402 1.28174 22.4976 3.83301 22.4976Z" fill="#5ac8f5" fill-opacity="0.25"/>
  <path d="M8.59375 16.6504C8.09326 16.6504 7.83691 16.2842 7.83691 15.7959L7.83691 14.3188L4.1748 14.3188C3.52783 14.3188 3.08838 13.916 3.08838 13.2446C3.08838 12.9028 3.16162 12.6221 3.36914 12.2314C4.22363 10.7056 5.48096 8.55713 6.53076 6.78711C6.9458 6.09131 7.38525 5.81055 8.11768 5.81055C8.8501 5.81055 9.375 6.28662 9.375 7.01904L9.375 12.9028L10.0464 12.9028C10.4736 12.9028 10.7544 13.1714 10.7544 13.623C10.7544 14.0625 10.4736 14.3188 10.0464 14.3188L9.375 14.3188L9.375 15.7959C9.375 16.2964 9.10645 16.6504 8.59375 16.6504ZM7.83691 12.9028L7.83691 7.51953L7.76367 7.51953C6.7749 9.22852 5.48096 11.4258 4.73633 12.854L4.73633 12.9028ZM15.4663 16.6748C13.7207 16.6748 12.6953 15.686 12.5 14.9902C12.4512 14.8438 12.4023 14.6729 12.4023 14.5386C12.4023 14.0991 12.6831 13.7939 13.0737 13.7939C13.4033 13.7939 13.6353 13.9282 13.8428 14.2822C14.1479 14.8438 14.7217 15.21 15.4419 15.21C16.8945 15.21 17.8467 13.7329 17.8223 11.2305L17.749 11.2305C17.4194 12.085 16.6016 12.8296 15.2222 12.8296C13.5864 12.8296 12.0972 11.6211 12.0972 9.46045C12.0972 7.23877 13.4888 5.81055 15.6006 5.81055C17.9688 5.81055 19.3237 7.59277 19.3237 10.8887C19.3237 14.6851 17.9688 16.6748 15.4663 16.6748ZM15.6982 11.5234C16.8701 11.5234 17.688 10.6323 17.688 9.39941C17.688 8.10547 16.8579 7.18994 15.6982 7.18994C14.4897 7.18994 13.7085 8.05664 13.7085 9.375C13.7085 10.6323 14.5142 11.5234 15.6982 11.5234Z" fill="#5ac8f5"/>
 </g>
</svg>
