<?xml version="1.0" encoding="UTF-8"?>
<!--Generator: Apple Native CoreSVG 175.5-->
<!DOCTYPE svg
PUBLIC "-//W3C//DTD SVG 1.1//EN"
       "http://www.w3.org/Graphics/SVG/1.1/DTD/svg11.dtd">
<svg version="1.1" xmlns="http://www.w3.org/2000/svg" xmlns:xlink="http://www.w3.org/1999/xlink" width="22.4731" height="18.4204">
 <g>
  <rect height="18.4204" opacity="0" width="22.4731" x="0" y="0"/>
  <path d="M0 17.4316C0 17.9688 0.439453 18.4204 0.976562 18.4204C1.52588 18.4204 1.96533 17.9688 1.96533 17.4316L1.96533 1.00098C1.96533 0.463867 1.52588 0.0244141 0.976562 0.0244141C0.439453 0.0244141 0 0.463867 0 1.00098ZM20.5078 17.4316C20.5078 17.9688 20.9595 18.4204 21.4966 18.4204C22.0337 18.4204 22.4731 17.9688 22.4731 17.4316L22.4731 1.00098C22.4731 0.463867 22.0337 0.0244141 21.4966 0.0244141C20.9595 0.0244141 20.5078 0.463867 20.5078 1.00098ZM10.9375 15.0146C13.8916 15.0146 15.4907 12.9028 15.4907 8.81348C15.4907 5.29785 13.9038 3.39355 11.1572 3.39355C8.63037 3.39355 7.00684 4.91943 7.00684 7.2876C7.00684 9.58252 8.75244 10.8887 10.6567 10.8887C12.2803 10.8887 13.2324 10.083 13.623 9.17969L13.7207 9.17969C13.7451 11.8652 12.6099 13.4644 10.9131 13.4644C10.083 13.4644 9.50928 13.1104 9.00879 12.4268C8.80127 12.146 8.55713 11.9385 8.17871 11.9385C7.70264 11.9385 7.36084 12.2559 7.36084 12.7319C7.36084 12.8662 7.39746 13.0005 7.44629 13.147C7.72705 13.9893 8.88672 15.0146 10.9375 15.0146ZM11.2305 9.50928C9.85107 9.50928 8.88672 8.54492 8.88672 7.20215C8.88672 5.78613 9.82666 4.84619 11.2305 4.84619C12.5732 4.84619 13.5742 5.84717 13.5742 7.22656C13.5742 8.54492 12.5977 9.50928 11.2305 9.50928Z" fill="#5ac8f5"/>
 </g>
</svg>
