<?xml version="1.0" encoding="UTF-8"?>
<!--Generator: Apple Native CoreSVG 175.5-->
<!DOCTYPE svg
PUBLIC "-//W3C//DTD SVG 1.1//EN"
       "http://www.w3.org/Graphics/SVG/1.1/DTD/svg11.dtd">
<svg version="1.1" xmlns="http://www.w3.org/2000/svg" xmlns:xlink="http://www.w3.org/1999/xlink" width="29.2029" height="27.8687">
 <g>
  <rect height="27.8687" opacity="0" width="29.2029" x="0" y="0"/>
  <path d="M1.50146 27.0142L3.80859 27.0142C4.77295 27.0142 5.31006 26.4648 5.31006 25.5127L5.31006 4.89502C5.31006 3.93066 4.77295 3.38135 3.80859 3.38135L1.50146 3.38135C0.524902 3.38135 0 3.93066 0 4.89502L0 25.5127C0 26.4648 0.524902 27.0142 1.50146 27.0142ZM8.23975 27.0142L13.1836 27.0142C14.1602 27.0142 14.6851 26.4648 14.6851 25.5127L14.6851 9.05762C14.6851 8.10547 14.1602 7.55615 13.1836 7.55615L8.23975 7.55615C7.26318 7.55615 6.72607 8.10547 6.72607 9.05762L6.72607 25.5127C6.72607 26.4648 7.26318 27.0142 8.23975 27.0142ZM9.39941 11.9141C8.95996 11.9141 8.63037 11.5845 8.63037 11.1572C8.63037 10.7422 8.95996 10.4126 9.39941 10.4126L12.0483 10.4126C12.4756 10.4126 12.793 10.7422 12.793 11.1572C12.793 11.5845 12.4756 11.9141 12.0483 11.9141ZM9.39941 24.1699C8.95996 24.1699 8.63037 23.8403 8.63037 23.4131C8.63037 22.998 8.95996 22.6685 9.39941 22.6685L12.0483 22.6685C12.4756 22.6685 12.793 22.998 12.793 23.4131C12.793 23.8403 12.4756 24.1699 12.0483 24.1699ZM17.6147 27.0142L20.6299 27.0142C21.6064 27.0142 22.1313 26.4648 22.1313 25.5127L22.1313 1.51367C22.1313 0.549316 21.6064 0 20.6299 0L17.6147 0C16.6382 0 16.1133 0.549316 16.1133 1.51367L16.1133 25.5127C16.1133 26.4648 16.6382 27.0142 17.6147 27.0142ZM25.9155 27.0752L27.8809 26.7944C28.833 26.6724 29.2969 26.0864 29.187 25.1221L26.8555 4.87061C26.7456 3.91846 26.1719 3.41797 25.1953 3.55225L23.2422 3.83301C22.2778 3.95508 21.814 4.54102 21.9238 5.49316L24.2676 25.7446C24.3774 26.6968 24.9512 27.1973 25.9155 27.0752Z" fill="#5ac8f5"/>
 </g>
</svg>
