<?xml version="1.0" encoding="UTF-8"?>
<!--Generator: Apple Native CoreSVG 175.5-->
<!DOCTYPE svg
PUBLIC "-//W3C//DTD SVG 1.1//EN"
       "http://www.w3.org/Graphics/SVG/1.1/DTD/svg11.dtd">
<svg version="1.1" xmlns="http://www.w3.org/2000/svg" xmlns:xlink="http://www.w3.org/1999/xlink" width="24.9023" height="24.9146">
 <g>
  <rect height="24.9146" opacity="0" width="24.9023" x="0" y="0"/>
  <path d="M12.4512 24.9023C19.2627 24.9023 24.9023 19.2505 24.9023 12.4512C24.9023 5.63965 19.2505 0 12.439 0C5.63965 0 0 5.63965 0 12.4512C0 19.2505 5.65186 24.9023 12.4512 24.9023ZM12.4512 22.8271C6.68945 22.8271 2.0874 18.2129 2.0874 12.4512C2.0874 6.68945 6.67725 2.0752 12.439 2.0752C18.2007 2.0752 22.8271 6.68945 22.8271 12.4512C22.8271 18.2129 18.2129 22.8271 12.4512 22.8271Z" fill="#5ac8f5" fill-opacity="0.5"/>
  <path d="M7.93457 12.2437C7.93457 11.8652 7.60498 11.5601 7.18994 11.5601L5.61523 11.5601C5.2002 11.5601 4.88281 11.8774 4.88281 12.2437C4.88281 12.6099 5.2002 12.915 5.61523 12.915L7.18994 12.915C7.61719 12.915 7.93457 12.6221 7.93457 12.2437ZM9.25293 9.21631C9.53369 8.94775 9.50928 8.5083 9.21631 8.21533L8.08105 7.08008C7.77588 6.7749 7.34863 6.79932 7.09229 7.05566C6.82373 7.32422 6.83594 7.73926 7.14111 8.04443L8.26416 9.16748C8.55713 9.46045 8.98438 9.48486 9.25293 9.21631ZM12.439 7.50732C12.8174 7.50732 13.1226 7.16553 13.1226 6.7627L13.1226 5.17578C13.1226 4.76074 12.8052 4.45557 12.439 4.45557C12.0728 4.45557 11.7676 4.76074 11.7676 5.17578L11.7676 6.7627C11.7676 7.17773 12.0605 7.50732 12.439 7.50732ZM15.6372 9.21631C15.9058 9.47266 16.333 9.47266 16.626 9.16748L17.7368 8.04443C18.042 7.73926 18.0542 7.33643 17.7979 7.05566C17.5293 6.78711 17.0898 6.78711 16.7969 7.08008L15.6616 8.21533C15.3564 8.52051 15.3564 8.94775 15.6372 9.21631ZM16.9434 12.2437C16.9434 12.6221 17.2729 12.915 17.688 12.915L19.2749 12.915C19.6899 12.915 19.9951 12.6099 19.9951 12.2437C19.9951 11.8774 19.6899 11.5601 19.2749 11.5601L17.688 11.5601C17.2729 11.5601 16.9434 11.8652 16.9434 12.2437ZM9.00879 13.5254L15.8691 13.5254C15.9912 13.1714 16.0767 12.7808 16.0767 12.4023C16.0767 10.4126 14.4287 8.75244 12.439 8.75244C10.4614 8.75244 8.80127 10.4126 8.80127 12.4023C8.80127 12.7808 8.88672 13.1714 9.00879 13.5254ZM6.45752 15.271L19.5679 15.271C19.812 15.271 19.9951 15.0879 19.9951 14.8438C19.9951 14.5874 19.812 14.4043 19.5679 14.4043L6.45752 14.4043C6.21338 14.4043 6.03027 14.5996 6.03027 14.8438C6.03027 15.0879 6.21338 15.271 6.45752 15.271ZM5.32227 16.9434L18.4204 16.9434C18.6646 16.9434 18.8477 16.7603 18.8477 16.5161C18.8477 16.2598 18.6646 16.0767 18.4204 16.0767L5.32227 16.0767C5.07812 16.0767 4.88281 16.272 4.88281 16.5161C4.88281 16.7603 5.07812 16.9434 5.32227 16.9434ZM6.45752 18.6157L19.5679 18.6157C19.812 18.6157 19.9951 18.4326 19.9951 18.1885C19.9951 17.9321 19.812 17.749 19.5679 17.749L6.45752 17.749C6.21338 17.749 6.03027 17.9443 6.03027 18.1885C6.03027 18.4326 6.21338 18.6157 6.45752 18.6157Z" fill="#5ac8f5"/>
 </g>
</svg>
