<?xml version="1.0" encoding="UTF-8"?>
<!--Generator: Apple Native CoreSVG 175.5-->
<!DOCTYPE svg
PUBLIC "-//W3C//DTD SVG 1.1//EN"
       "http://www.w3.org/Graphics/SVG/1.1/DTD/svg11.dtd">
<svg version="1.1" xmlns="http://www.w3.org/2000/svg" xmlns:xlink="http://www.w3.org/1999/xlink" width="24.9023" height="24.9146">
 <g>
  <rect height="24.9146" opacity="0" width="24.9023" x="0" y="0"/>
  <path d="M12.4512 24.9146C19.2627 24.9146 24.9023 19.2749 24.9023 12.4634C24.9023 5.66406 19.2505 0.012207 12.439 0.012207C5.63965 0.012207 0 5.66406 0 12.4634C0 19.2749 5.65186 24.9146 12.4512 24.9146Z" fill="#5ac8f5" fill-opacity="0.25"/>
  <path d="M7.66602 19.2261C7.34863 19.2261 7.06787 18.9575 7.06787 18.6401L7.06787 8.08105C7.06787 7.54395 7.33643 7.15332 7.84912 6.92139C8.30078 6.70166 8.69141 6.5918 9.68018 6.5918C11.9385 6.5918 13.3667 7.71484 15.5029 7.71484C16.5405 7.71484 17.0898 7.44629 17.4561 7.44629C17.9688 7.44629 18.1641 7.71484 18.1641 8.09326L18.1641 14.2822C18.1641 14.856 17.9199 15.2222 17.395 15.4785C16.9189 15.686 16.5283 15.7837 15.564 15.7837C13.3911 15.7837 11.9751 14.6851 9.74121 14.6851C8.95996 14.6851 8.47168 14.8315 8.22754 14.9292L8.22754 18.6401C8.22754 18.9697 8.00781 19.2261 7.66602 19.2261ZM8.04443 12.0728C8.14209 11.853 8.65479 11.5845 9.61914 11.5845C9.92432 11.5845 10.0952 11.5967 10.3149 11.6211L10.3149 13.6963C11.1694 13.7695 11.9263 13.9771 12.6465 14.1968L12.6465 12.1582C13.4399 12.4268 14.1479 12.5854 14.9902 12.6709L14.9902 14.7461C15.1733 14.7949 15.3931 14.8071 15.6372 14.8071C16.6016 14.8071 17.1143 14.5142 17.2119 14.2944L17.2119 12.5C16.7725 12.6221 16.2231 12.6953 15.5518 12.6953C15.332 12.6953 15.1489 12.6831 14.9902 12.6709L14.9902 10.5591C15.1489 10.5713 15.3442 10.5835 15.5518 10.5835C16.2842 10.5835 16.8823 10.4736 17.2119 10.3882L17.2119 8.49609C16.7725 8.61816 16.2231 8.70361 15.5518 8.70361C15.3564 8.70361 15.1611 8.70361 14.9902 8.6792L14.9902 10.5591C14.1479 10.498 13.4155 10.2905 12.6465 10.0586L12.6465 8.17871C11.8896 7.93457 11.145 7.70264 10.3149 7.61719L10.3149 9.52148C10.0952 9.47266 9.82666 9.46045 9.61914 9.46045C8.65479 9.46045 8.14209 9.75342 8.04443 9.96094ZM10.3149 11.6211L10.3149 9.52148C11.1694 9.59473 11.8652 9.82666 12.6465 10.0586L12.6465 12.1582C11.8164 11.9141 11.1694 11.7065 10.3149 11.6211Z" fill="#5ac8f5"/>
 </g>
</svg>
