<?xml version="1.0" encoding="UTF-8"?>
<!--Generator: Apple Native CoreSVG 175.5-->
<!DOCTYPE svg
PUBLIC "-//W3C//DTD SVG 1.1//EN"
       "http://www.w3.org/Graphics/SVG/1.1/DTD/svg11.dtd">
<svg version="1.1" xmlns="http://www.w3.org/2000/svg" xmlns:xlink="http://www.w3.org/1999/xlink" width="25.2197" height="28.8452">
 <g>
  <rect height="28.8452" opacity="0" width="25.2197" x="0" y="0"/>
  <path d="M0 26.7212C0 28.0029 0.78125 28.8452 1.98975 28.8452L4.60205 28.8452C5.32227 28.8452 5.84717 28.4668 6.05469 27.7954L6.65283 25.7324L18.5669 25.7324L19.165 27.7954C19.3726 28.4668 19.9097 28.8452 20.6299 28.8452L23.23 28.8452C24.4385 28.8452 25.2197 28.0029 25.2197 26.7212L25.2197 2.13623C25.2197 0.854492 24.4385 0.012207 23.23 0.012207L20.6299 0.012207C19.9097 0.012207 19.3726 0.390625 19.165 1.06201L18.5669 3.125L6.65283 3.125L6.05469 1.06201C5.84717 0.390625 5.32227 0.012207 4.60205 0.012207L1.98975 0.012207C0.78125 0.012207 0 0.854492 0 2.13623ZM11.2305 18.6768C10.6445 18.6768 10.2417 18.1274 9.77783 17.4683C9.22852 16.687 8.78906 15.4907 8.78906 14.3433C8.78906 12.4878 9.97314 11.5234 11.1572 11.5234C11.792 11.5234 12.2925 11.9263 12.6831 11.9263C13.0615 11.9263 13.6475 11.499 14.3555 11.499C14.6362 11.499 15.5884 11.5234 16.2354 12.439C16.1743 12.4756 15.21 13.0371 15.21 14.2456C15.21 15.6494 16.4429 16.1377 16.4795 16.1499C16.4673 16.1987 16.2964 16.8457 15.8325 17.5049C15.4297 18.0664 15.0024 18.6768 14.3555 18.6768C13.7207 18.6768 13.5376 18.2983 12.793 18.2983C12.0972 18.2983 11.8164 18.6768 11.2305 18.6768ZM12.7441 11.4136C12.6831 11.4136 12.6465 11.4014 12.6221 11.377C12.6099 11.3647 12.6099 11.2915 12.6099 11.2183C12.6099 10.73 12.8296 10.2295 13.1104 9.92432C13.4644 9.53369 14.0381 9.22852 14.5142 9.21631C14.5264 9.26514 14.5264 9.32617 14.5264 9.39941C14.5264 9.8877 14.3188 10.376 14.0381 10.73C13.7207 11.1206 13.1714 11.4136 12.7441 11.4136Z" fill="#5ac8f5"/>
 </g>
</svg>
