<?xml version="1.0" encoding="UTF-8"?>
<!--Generator: Apple Native CoreSVG 175.5-->
<!DOCTYPE svg
PUBLIC "-//W3C//DTD SVG 1.1//EN"
       "http://www.w3.org/Graphics/SVG/1.1/DTD/svg11.dtd">
<svg version="1.1" xmlns="http://www.w3.org/2000/svg" xmlns:xlink="http://www.w3.org/1999/xlink" width="34.8389" height="28.3691">
 <g>
  <rect height="28.3691" opacity="0" width="34.8389" x="0" y="0"/>
  <path d="M4.89502 24.6765C5.33447 24.2981 5.39551 23.7122 5.0415 23.2239C3.18604 20.697 2.0874 17.5598 2.0874 14.1785C2.0874 10.8948 3.11279 7.87964 4.8584 5.3894L3.35693 3.88794C1.2085 6.82983 0 10.3943 0 14.1785C0 18.0481 1.25732 21.6003 3.38135 24.4934C3.75977 25.0183 4.40674 25.0671 4.89502 24.6765ZM17.4194 26.0803C19.751 26.0803 21.936 25.3845 23.7793 24.1882L22.29 22.7112C20.8618 23.5291 19.2017 24.0051 17.4194 24.0051C11.9751 24.0051 7.60498 19.635 7.60498 14.1785C7.60498 12.3962 8.06885 10.7361 8.89893 9.32007L7.39746 7.8064C6.21338 9.66187 5.51758 11.8469 5.51758 14.1785C5.51758 20.6848 10.9131 26.0803 17.4194 26.0803ZM14.9414 19.7693C15.5884 19.7693 15.9302 19.342 15.9302 18.6707L15.9302 16.4734L13.9771 14.5325L13.9771 18.6707C13.9771 19.3176 14.3188 19.7693 14.9414 19.7693ZM21.521 14.5447C22.0215 13.9587 22.3145 13.1653 22.3145 12.262C22.3145 10.0159 20.7031 8.5022 18.3472 8.5022L15.5884 8.5022L17.0776 9.99146L18.0664 9.99146C19.4946 9.99146 20.3857 10.8582 20.3857 12.262C20.3857 12.6038 20.2637 12.8967 20.0562 13.0798ZM17.4072 4.3396C22.8638 4.3396 27.2461 8.70972 27.2583 14.1785C27.2583 15.9363 26.7822 17.5842 25.9766 19.0002L27.4536 20.4895C28.6377 18.6707 29.3335 16.4856 29.3335 14.1785C29.3335 7.67212 23.9258 2.27661 17.4072 2.27661C15.1001 2.27661 12.9272 2.96021 11.1084 4.13208L12.5977 5.63354C14.0137 4.81567 15.6494 4.3396 17.4072 4.3396ZM29.9438 3.66821C29.4922 4.04663 29.4556 4.64478 29.7974 5.12085C31.665 7.65991 32.7515 10.7849 32.7515 14.1785C32.7515 17.4255 31.7383 20.4407 30.0171 22.9187L31.5186 24.4202C33.667 21.4417 34.8389 17.9626 34.8389 14.1785C34.8389 10.3088 33.5938 6.74438 31.4575 3.85132C31.0791 3.33862 30.4321 3.26538 29.9438 3.66821Z" fill="#5ac8f5" fill-opacity="0.5"/>
  <path d="M30.0415 28.0945C30.4077 28.4607 31.0181 28.4607 31.3721 28.0945C31.7383 27.7283 31.7383 27.1301 31.3721 26.7639L4.94385 0.335693C4.57764-0.0305176 3.97949-0.0427246 3.60107 0.335693C3.24707 0.689697 3.24707 1.30005 3.60107 1.66626Z" fill="#5ac8f5"/>
 </g>
</svg>
