<?xml version="1.0" encoding="UTF-8"?>
<!--Generator: Apple Native CoreSVG 175.5-->
<!DOCTYPE svg
PUBLIC "-//W3C//DTD SVG 1.1//EN"
       "http://www.w3.org/Graphics/SVG/1.1/DTD/svg11.dtd">
<svg version="1.1" xmlns="http://www.w3.org/2000/svg" xmlns:xlink="http://www.w3.org/1999/xlink" width="19.7877" height="26.8921">
 <g>
  <rect height="26.8921" opacity="0" width="19.7877" x="0" y="0"/>
  <path d="M14.026 5.40771C15.503 5.40771 16.6871 4.22363 16.6871 2.74658C16.6871 1.28174 15.503 0.0976562 14.026 0.0976562C12.5489 0.0976562 11.3648 1.28174 11.3648 2.74658C11.3648 4.22363 12.5489 5.40771 14.026 5.40771ZM9.53378 26.8921C14.856 26.8921 18.4083 23.3398 18.4083 18.0176C18.4083 15.2222 17.0777 13.5864 14.5875 13.5864L12.9518 13.5864C12.671 13.5864 12.4879 13.4033 12.5977 13.0615L13.7208 9.65576C14.2335 8.09326 13.5011 6.67725 11.7677 6.23779L6.72617 4.96826C6.23789 4.84619 5.87167 4.93164 5.43222 5.18799L0.537202 7.94678C-0.036529 8.27637-0.170806 9.11865 0.232026 9.65576C0.622651 10.2051 1.31845 10.3027 1.94101 9.98535L6.4332 7.60498L9.05771 8.30078C9.5704 8.44727 9.76572 8.80127 9.59482 9.27734L8.21542 13.147C7.58066 14.9658 8.65488 16.5161 10.4127 16.5161L14.9537 16.5161C15.8936 16.5161 16.5528 17.0776 16.5528 18.0176C16.5528 22.229 13.7574 25.0366 9.54599 25.0366C5.33456 25.0366 2.51474 22.229 2.51474 18.0176C2.51474 16.5649 2.94199 15.2954 3.64999 14.2334C4.44345 13.0493 2.86874 12.0605 2.03867 13.3057C1.18417 14.6118 0.659272 16.2109 0.659272 18.0176C0.659272 23.3398 4.19931 26.8921 9.53378 26.8921ZM18.4449 26.8921C19.1895 26.8921 19.7877 26.2939 19.7877 25.5493C19.7877 24.8047 19.1895 24.2065 18.4449 24.2065C17.7003 24.2065 17.1021 24.8047 17.1021 25.5493C17.1021 26.2939 17.7003 26.8921 18.4449 26.8921Z" fill="#5ac8f5"/>
 </g>
</svg>
