<?xml version="1.0" encoding="UTF-8"?>
<!--Generator: Apple Native CoreSVG 175.5-->
<!DOCTYPE svg
PUBLIC "-//W3C//DTD SVG 1.1//EN"
       "http://www.w3.org/Graphics/SVG/1.1/DTD/svg11.dtd">
<svg version="1.1" xmlns="http://www.w3.org/2000/svg" xmlns:xlink="http://www.w3.org/1999/xlink" width="31.5186" height="28.5522">
 <g>
  <rect height="28.5522" opacity="0" width="31.5186" x="0" y="0"/>
  <path d="M0 9.5459C0 12.6953 1.31836 15.686 3.57666 17.7368C5.00488 19.0796 6.54297 19.6167 9.70459 19.7144L9.70459 17.6392C7.16553 17.5537 6.03027 17.1875 4.99268 16.1987C3.13721 14.502 2.09961 12.1094 2.09961 9.5459C2.09961 7.72705 2.63672 6.05469 3.69873 4.62646C5.33447 5.67627 7.77588 6.21338 10.8887 6.21338C14.0137 6.21338 16.4551 5.67627 18.0786 4.62646C18.6279 5.23682 18.9941 5.94482 19.165 6.75049L21.3745 6.75049C21.0449 5.23682 20.3613 3.86963 19.3604 2.80762C18.8721 2.19727 18.0542 2.0752 17.3584 2.49023C16.0156 3.45459 14.3799 4.12598 10.8887 4.12598C7.39746 4.12598 5.76172 3.45459 4.40674 2.49023C3.71094 2.0752 2.90527 2.18506 2.41699 2.80762C0.866699 4.57764 0 6.99463 0 9.5459Z" fill="#5ac8f5" fill-opacity="0.5"/>
  <path d="M10.8887 2.771C13.8794 2.771 15.9912 2.16064 15.9912 1.3916C15.9912 0.585938 13.8794 0 10.8887 0C7.88574 0 5.76172 0.585938 5.76172 1.3916C5.76172 2.16064 7.88574 2.771 10.8887 2.771ZM16.7603 28.479L26.1475 28.479C27.8687 28.479 29.3213 28.3203 30.3467 27.2949C31.3721 26.2573 31.5186 24.8169 31.5186 23.0957L31.5186 13.8062C31.5186 12.0728 31.3721 10.6323 30.3467 9.60693C29.3213 8.58154 27.8687 8.41064 26.1475 8.41064L16.7358 8.41064C15.0513 8.41064 13.5864 8.58154 12.561 9.61914C11.5356 10.6445 11.377 12.085 11.377 13.7695L11.377 23.0957C11.377 24.8169 11.5356 26.2573 12.561 27.2949C13.5864 28.3203 15.0391 28.479 16.7603 28.479ZM19.6655 19.7754C19.5068 20.3125 19.1528 20.9473 18.689 21.3989C18.5547 21.521 18.3594 21.6187 18.0908 21.6187C17.8589 21.6187 17.7124 21.5332 17.4927 21.4722C17.3706 21.4233 17.1875 21.3257 16.9556 21.3257C16.4429 21.3257 16.2109 21.6431 15.7959 21.6431C15.5029 21.6431 15.271 21.4722 14.9536 21.1182C14.3555 20.4468 13.9648 19.397 13.9648 18.4814C13.9648 17.9199 14.0991 17.4072 14.4531 16.9678C14.7461 16.5894 15.1978 16.3696 15.7471 16.3696C16.2476 16.3696 16.5527 16.687 16.8335 16.687C17.1387 16.687 17.5049 16.3574 18.1519 16.3574C18.7134 16.3574 19.1895 16.5894 19.4946 17.041C19.0918 17.2607 18.9331 17.5537 18.8599 17.7979C18.7256 18.1396 18.689 18.5547 18.8599 18.9819C19.0063 19.3481 19.2505 19.6045 19.6655 19.7754ZM16.7847 16.1865C16.7603 15.4053 17.395 14.6606 18.2251 14.5996C18.2983 15.3564 17.6392 16.272 16.7847 16.1865ZM22.4976 15.1123L22.4976 16.3574L23.4985 16.3574L23.4985 17.1753L22.4976 17.1753L22.4976 20.0684C22.4976 20.5566 22.7051 20.7397 23.1323 20.7397C23.2422 20.7397 23.4375 20.7397 23.4985 20.7031L23.4985 21.582C23.3887 21.5942 23.1323 21.6187 22.9126 21.6187C21.8384 21.6187 21.4233 21.2524 21.4233 20.2026L21.4233 17.1753L20.6909 17.1753L20.6909 16.3574L21.4233 16.3574L21.4233 15.1123ZM27.0386 21.582L25.9155 21.582L23.999 16.3574L25.1221 16.3574L26.4771 20.5566L27.7588 16.3574L28.9185 16.3574Z" fill="#5ac8f5"/>
 </g>
</svg>
