<?xml version="1.0" encoding="UTF-8"?>
<!--Generator: Apple Native CoreSVG 175.5-->
<!DOCTYPE svg
PUBLIC "-//W3C//DTD SVG 1.1//EN"
       "http://www.w3.org/Graphics/SVG/1.1/DTD/svg11.dtd">
<svg version="1.1" xmlns="http://www.w3.org/2000/svg" xmlns:xlink="http://www.w3.org/1999/xlink" width="26.9043" height="26.8188">
 <g>
  <rect height="26.8188" opacity="0" width="26.9043" x="0" y="0"/>
  <path d="M19.397 26.8188C20.2515 26.8188 20.7275 26.2085 20.7275 25.2686L20.7275 22.0947L21.3135 22.0947C24.9512 22.0947 26.9043 20.0928 26.9043 16.5039L26.9043 7.15332C26.9043 3.56445 24.9512 1.5625 21.3135 1.5625L5.59082 1.5625C1.95312 1.5625 0 3.57666 0 7.15332L0 16.5039C0 20.0806 1.95312 22.0947 5.59082 22.0947L13.4277 22.0947L17.6392 25.8423C18.3838 26.5015 18.7988 26.8188 19.397 26.8188ZM18.8965 24.585L14.9902 20.7031C14.5264 20.2271 14.1846 20.1294 13.501 20.1294L5.59082 20.1294C3.13721 20.1294 1.96533 18.8721 1.96533 16.4917L1.96533 7.15332C1.96533 4.77295 3.13721 3.52783 5.59082 3.52783L21.3135 3.52783C23.7793 3.52783 24.939 4.77295 24.939 7.15332L24.939 16.4917C24.939 18.8721 23.7793 20.1294 21.3135 20.1294L19.812 20.1294C19.1528 20.1294 18.8965 20.3857 18.8965 21.0449Z" fill="#5ac8f5"/>
 </g>
</svg>
