<?xml version="1.0" encoding="UTF-8"?>
<!--Generator: Apple Native CoreSVG 175.5-->
<!DOCTYPE svg
PUBLIC "-//W3C//DTD SVG 1.1//EN"
       "http://www.w3.org/Graphics/SVG/1.1/DTD/svg11.dtd">
<svg version="1.1" xmlns="http://www.w3.org/2000/svg" xmlns:xlink="http://www.w3.org/1999/xlink" width="24.9023" height="24.9146">
 <g>
  <rect height="24.9146" opacity="0" width="24.9023" x="0" y="0"/>
  <path d="M12.4512 24.9023C19.2627 24.9023 24.9023 19.2505 24.9023 12.4512C24.9023 5.63965 19.2505 0 12.439 0C5.63965 0 0 5.63965 0 12.4512C0 19.2505 5.65186 24.9023 12.4512 24.9023ZM12.4512 22.8271C6.68945 22.8271 2.0874 18.2129 2.0874 12.4512C2.0874 6.68945 6.67725 2.0752 12.439 2.0752C18.2007 2.0752 22.8271 6.68945 22.8271 12.4512C22.8271 18.2129 18.2129 22.8271 12.4512 22.8271ZM8.88672 18.0908C9.36279 18.0908 9.68018 17.7856 9.68018 17.2729L9.68018 13.3911C9.68018 11.1206 10.4614 9.82666 11.7676 9.49707L11.7676 17.4194C11.7676 17.8223 12.0483 18.0908 12.439 18.0908C12.7808 18.0908 13.0981 17.8223 13.0981 17.4194L13.0981 9.48486C14.4165 9.79004 15.2344 11.084 15.2344 13.3911L15.2344 17.2729C15.2344 17.7856 15.5518 18.0908 16.0156 18.0908C16.4795 18.0908 16.8091 17.7856 16.8091 17.2729L16.8091 13.2935C16.8091 10.0708 15.332 8.25195 13.0981 7.97119L13.0981 6.71387C13.0981 6.28662 12.7808 6.05469 12.439 6.05469C12.0483 6.05469 11.7676 6.28662 11.7676 6.71387L11.7676 7.9834C9.53369 8.26416 8.08105 10.083 8.08105 13.2935L8.08105 17.2729C8.08105 17.7856 8.42285 18.0908 8.88672 18.0908Z" fill="#5ac8f5"/>
 </g>
</svg>
