<?xml version="1.0" encoding="UTF-8"?>
<!--Generator: Apple Native CoreSVG 175.5-->
<!DOCTYPE svg
PUBLIC "-//W3C//DTD SVG 1.1//EN"
       "http://www.w3.org/Graphics/SVG/1.1/DTD/svg11.dtd">
<svg version="1.1" xmlns="http://www.w3.org/2000/svg" xmlns:xlink="http://www.w3.org/1999/xlink" width="25.5859" height="23.3276">
 <g>
  <rect height="23.3276" opacity="0" width="25.5859" x="0" y="0"/>
  <path d="M3.33252 23.1934L22.2534 23.1934C24.3286 23.1934 25.5859 21.7529 25.5859 19.8853C25.5859 19.3115 25.415 18.7134 25.1099 18.1763L15.6372 1.67236C15.0024 0.561523 13.916 0 12.793 0C11.6699 0 10.5713 0.561523 9.94873 1.67236L0.476074 18.1763C0.146484 18.7256 0 19.3115 0 19.8853C0 21.7529 1.25732 23.1934 3.33252 23.1934ZM12.793 18.6401C10.6812 18.6401 9.25293 17.2607 9.25293 15.21C9.25293 14.1968 9.68018 13.2812 9.99756 12.6099C10.5591 11.3892 11.4868 9.8877 12.2681 8.66699C12.4146 8.43506 12.5854 8.3252 12.793 8.3252C13.0127 8.3252 13.1714 8.43506 13.3179 8.66699C14.1113 9.8877 15.0391 11.3892 15.5884 12.6099C15.9058 13.2812 16.333 14.1968 16.333 15.21C16.333 17.2607 14.917 18.6401 12.793 18.6401Z" fill="#5ac8f5"/>
 </g>
</svg>
