<?xml version="1.0" encoding="UTF-8"?>
<!--Generator: Apple Native CoreSVG 175.5-->
<!DOCTYPE svg
PUBLIC "-//W3C//DTD SVG 1.1//EN"
       "http://www.w3.org/Graphics/SVG/1.1/DTD/svg11.dtd">
<svg version="1.1" xmlns="http://www.w3.org/2000/svg" xmlns:xlink="http://www.w3.org/1999/xlink" width="23.1645" height="23.175">
 <g>
  <rect height="23.175" opacity="0" width="23.1645" x="0" y="0"/>
  <path d="M8.48083 20.3705C12.2894 24.1669 17.038 23.9227 20.4559 20.517C23.2025 17.7582 23.7518 14.9017 22.5922 11.4594C21.9696 9.53064 20.9442 7.49207 19.6991 5.16052C19.1986 4.20837 18.6005 2.96326 18.1854 2.56042C17.7216 2.09656 17.0746 2.12097 16.5863 2.60925C16.037 3.15857 16.0614 3.81775 16.4764 5.05066L17.7948 8.7616C17.9535 9.15222 17.9291 9.39636 17.7826 9.54285C17.6117 9.71375 17.3798 9.73816 17.0624 9.43298L8.02917 0.375366C7.51648-0.125122 6.67419-0.125122 6.17371 0.375366C5.66101 0.888062 5.66101 1.71814 6.17371 2.23083L12.6434 8.70056C12.326 8.84705 11.9965 9.04236 11.6669 9.26208L4.15955 1.75476C3.65906 1.24207 2.81677 1.24207 2.30408 1.75476C1.80359 2.26746 1.80359 3.09753 2.30408 3.61023L9.71375 11.0199C9.4696 11.3129 9.23767 11.6302 9.01794 11.9476L2.23083 5.14832C1.71814 4.63562 0.888062 4.63562 0.375366 5.14832C-0.125122 5.66101-0.125122 6.49109 0.375366 7.00378L7.76062 14.3768C7.60193 14.7919 7.50427 15.2069 7.41882 15.5975L2.29187 10.4706C1.79138 9.95789 0.949097 9.95789 0.436401 10.4706C-0.0640869 10.9833-0.0640869 11.8134 0.436401 12.326Z" fill="#5ac8f5"/>
 </g>
</svg>
