<?xml version="1.0" encoding="UTF-8"?>
<!--Generator: Apple Native CoreSVG 175.5-->
<!DOCTYPE svg
PUBLIC "-//W3C//DTD SVG 1.1//EN"
       "http://www.w3.org/Graphics/SVG/1.1/DTD/svg11.dtd">
<svg version="1.1" xmlns="http://www.w3.org/2000/svg" xmlns:xlink="http://www.w3.org/1999/xlink" width="24.9023" height="24.9146">
 <g>
  <rect height="24.9146" opacity="0" width="24.9023" x="0" y="0"/>
  <path d="M12.4512 24.9023C19.2627 24.9023 24.9023 19.2505 24.9023 12.4512C24.9023 5.63965 19.2505 0 12.439 0C5.63965 0 0 5.63965 0 12.4512C0 19.2505 5.65186 24.9023 12.4512 24.9023Z" fill="#5ac8f5" fill-opacity="0.25"/>
  <path d="M20.2759 12.4512C20.2759 12.7197 20.166 12.9272 19.9219 13.1836L16.2842 16.8335C16.1255 17.0044 15.8936 17.0898 15.625 17.0898C15.1123 17.0898 14.7217 16.6992 14.7217 16.1743C14.7217 15.8936 14.8315 15.6738 14.9902 15.5029L15.9424 14.563L17.4561 13.2935L14.7949 13.4033L10.083 13.4033L7.42188 13.2935L8.94775 14.563L9.8999 15.5029C10.0586 15.6738 10.1685 15.8936 10.1685 16.1743C10.1685 16.6992 9.77783 17.0898 9.26514 17.0898C8.99658 17.0898 8.76465 17.0044 8.60596 16.8335L4.96826 13.1836C4.72412 12.9272 4.61426 12.7197 4.61426 12.4512C4.61426 12.1704 4.72412 11.9629 4.96826 11.7065L8.60596 8.06885C8.76465 7.89795 8.99658 7.80029 9.26514 7.80029C9.77783 7.80029 10.1685 8.21533 10.1685 8.72803C10.1685 9.00879 10.0708 9.22852 9.8999 9.41162L8.94775 10.3394L7.40967 11.6089L10.083 11.5112L14.7949 11.5112L17.4683 11.6089L15.9424 10.3394L14.9902 9.41162C14.8193 9.22852 14.7217 9.00879 14.7217 8.72803C14.7217 8.21533 15.1123 7.80029 15.625 7.80029C15.8936 7.80029 16.1255 7.89795 16.2842 8.06885L19.9219 11.7065C20.166 11.9629 20.2759 12.1704 20.2759 12.4512Z" fill="#5ac8f5"/>
 </g>
</svg>
