<?xml version="1.0" encoding="UTF-8"?>
<!--Generator: Apple Native CoreSVG 175.5-->
<!DOCTYPE svg
PUBLIC "-//W3C//DTD SVG 1.1//EN"
       "http://www.w3.org/Graphics/SVG/1.1/DTD/svg11.dtd">
<svg version="1.1" xmlns="http://www.w3.org/2000/svg" xmlns:xlink="http://www.w3.org/1999/xlink" width="30.9519" height="31.6528">
 <g>
  <rect height="31.6528" opacity="0" width="30.9519" x="0" y="0"/>
  <path d="M6.08265 25.5371C7.33997 26.7944 9.04895 27.417 10.0988 27.417C10.6725 27.417 11.0631 27.0508 11.0631 26.5259C11.0631 26.0376 10.7213 25.647 9.96448 25.5371C9.02454 25.4395 8.14563 25 7.37659 24.2432C6.64417 23.4985 6.21692 22.5952 6.08265 21.5576C5.97278 20.874 5.70423 20.5933 5.10608 20.5933C4.56897 20.5933 4.14173 21.0083 4.22718 21.6675C4.38587 23.1567 5.02063 24.4751 6.08265 25.5371ZM24.8693 25.5371C25.9435 24.4751 26.566 23.1567 26.7247 21.6675C26.8102 21.0083 26.3829 20.5933 25.8458 20.5933C25.2477 20.5933 24.9913 20.874 24.8815 21.5576C24.735 22.5952 24.3077 23.4985 23.5753 24.2432C22.8063 25 21.9274 25.4395 20.9874 25.5371C20.2306 25.647 19.901 26.0376 19.901 26.5259C19.8888 27.0508 20.2916 27.417 20.8532 27.417C21.903 27.417 23.6119 26.7944 24.8693 25.5371Z" fill="#5ac8f5" fill-opacity="0.5"/>
  <path d="M3.0553 28.5767C4.92298 30.4565 7.30335 31.6406 9.89124 31.6406C10.5138 31.6406 10.941 31.2378 10.941 30.6641C10.941 30.1392 10.526 29.7974 9.8302 29.7485C7.82825 29.6265 5.87513 28.7964 4.34925 27.2827C2.83557 25.7568 2.0055 23.8159 1.88343 21.8018C1.82239 21.0205 1.50501 20.7153 0.894657 20.7153C0.418583 20.7153-0.0452844 21.0571 0.00354374 21.7285C0.162235 24.3164 1.16321 26.709 3.0553 28.5767ZM27.8966 28.5767C29.7887 26.709 30.7897 24.3164 30.9484 21.7285C30.9972 21.0571 30.5333 20.7153 30.0573 20.7153C29.4591 20.7153 29.1295 21.0205 29.0685 21.8018C28.9464 23.8159 28.1285 25.7568 26.6027 27.2827C25.0768 28.7964 23.1359 29.6265 21.1217 29.7485C20.4381 29.7974 20.0231 30.1392 20.0231 30.6641C20.0231 31.2378 20.4381 31.6406 21.0729 31.6406C23.6486 31.6406 26.0289 30.4565 27.8966 28.5767Z" fill="#5ac8f5" fill-opacity="0.5"/>
  <path d="M15.4821 24.0356C20.1696 24.0356 22.2692 22.9736 22.2692 20.2759L22.2692 4.43115C22.2692 1.64795 19.7057 0 15.4821 0C11.2584 0 8.69495 1.64795 8.69495 4.43115L8.69495 20.2759C8.69495 22.9736 10.7824 24.0356 15.4821 24.0356ZM15.4821 22.1313C11.9786 22.1313 10.6115 21.5942 10.6115 20.2148L10.6115 4.43115C10.6115 2.83203 12.3082 1.92871 15.4821 1.92871C18.6559 1.92871 20.3405 2.83203 20.3405 4.43115L20.3405 20.2148C20.3405 21.5942 18.9855 22.1313 15.4821 22.1313ZM15.4699 10.1196C16.361 10.1196 17.6915 10.1929 18.1554 10.1929C18.8878 10.1929 19.2296 9.8877 19.2907 9.11865L19.4371 7.40967C19.5592 6.00586 18.6315 5.46875 15.4699 5.46875C12.3326 5.46875 11.4049 6.00586 11.527 7.40967L11.6735 9.11865C11.7345 9.8877 12.0763 10.1929 12.8087 10.1929C13.2604 10.1929 14.652 10.1196 15.4699 10.1196ZM15.4699 19.9219C18.6315 19.9219 19.6324 19.458 19.4005 18.0054L19.2784 17.1753C19.0953 16.0156 18.192 15.6494 15.4699 15.6494C12.7721 15.6494 11.8688 16.0156 11.6857 17.1753L11.5514 18.0054C11.3317 19.458 12.3326 19.9219 15.4699 19.9219ZM9.73255 9.61914L9.73255 7.08008L8.17005 7.08008C7.5597 7.08008 7.09583 7.53174 7.09583 8.11768L7.09583 8.58154C7.09583 9.15527 7.5597 9.61914 8.17005 9.61914ZM21.2316 9.61914L22.7941 9.61914C23.4044 9.61914 23.8683 9.15527 23.8683 8.58154L23.8683 8.11768C23.8683 7.53174 23.4044 7.08008 22.7941 7.08008L21.2316 7.08008Z" fill="#5ac8f5"/>
 </g>
</svg>
