<?xml version="1.0" encoding="UTF-8"?>
<!--Generator: Apple Native CoreSVG 175.5-->
<!DOCTYPE svg
PUBLIC "-//W3C//DTD SVG 1.1//EN"
       "http://www.w3.org/Graphics/SVG/1.1/DTD/svg11.dtd">
<svg version="1.1" xmlns="http://www.w3.org/2000/svg" xmlns:xlink="http://www.w3.org/1999/xlink" width="18.9697" height="26.1841">
 <g>
  <rect height="26.1841" opacity="0" width="18.9697" x="0" y="0"/>
  <path d="M0 22.3511C0 24.9023 1.25732 26.1719 3.78418 26.1719L15.1978 26.1719C17.7124 26.1719 18.9697 24.9023 18.9697 22.3511L18.9697 3.83301C18.9697 1.29395 17.7124 0 15.1978 0L3.78418 0C1.25732 0 0 1.29395 0 3.83301ZM1.96533 22.3145L1.96533 3.86963C1.96533 2.64893 2.6123 1.96533 3.88184 1.96533L15.0879 1.96533C16.3574 1.96533 17.0044 2.64893 17.0044 3.86963L17.0044 22.3145C17.0044 23.5352 16.3574 24.2065 15.0879 24.2065L3.88184 24.2065C2.6123 24.2065 1.96533 23.5352 1.96533 22.3145ZM6.57959 4.94385L12.4023 4.94385C12.8418 4.94385 13.1958 4.58984 13.1958 4.15039C13.1958 3.71094 12.8418 3.35693 12.4023 3.35693L6.57959 3.35693C6.15234 3.35693 5.78613 3.71094 5.78613 4.15039C5.78613 4.58984 6.15234 4.94385 6.57959 4.94385Z" fill="#5ac8f5"/>
 </g>
</svg>
