<?xml version="1.0" encoding="UTF-8"?>
<!--Generator: Apple Native CoreSVG 175.5-->
<!DOCTYPE svg
PUBLIC "-//W3C//DTD SVG 1.1//EN"
       "http://www.w3.org/Graphics/SVG/1.1/DTD/svg11.dtd">
<svg version="1.1" xmlns="http://www.w3.org/2000/svg" xmlns:xlink="http://www.w3.org/1999/xlink" width="28.7842" height="20.8618">
 <g>
  <rect height="20.8618" opacity="0" width="28.7842" x="0" y="0"/>
  <path d="M3.83301 20.8618L24.9512 20.8618C27.5146 20.8618 28.7842 19.5923 28.7842 17.0776L28.7842 10.3394C28.7842 9.24072 28.6133 8.72803 28.0884 8.02002L23.877 2.31934C22.5464 0.500488 21.814 0.0244141 19.6411 0.0244141L9.14307 0.0244141C6.97021 0.0244141 6.25 0.500488 4.91943 2.31934L0.695801 8.02002C0.183105 8.72803 0 9.24072 0 10.3394L0 17.0776C0 19.6045 1.28174 20.8618 3.83301 20.8618ZM14.3921 13.7939C12.561 13.7939 11.3892 12.207 11.3892 10.7056L11.3892 10.6689C11.3892 10.1196 11.0596 9.60693 10.376 9.60693L2.6001 9.60693C2.19727 9.60693 2.11182 9.26514 2.30713 8.99658L6.82373 2.79541C7.38525 2.01416 8.10547 1.7334 8.99658 1.7334L19.7876 1.7334C20.6787 1.7334 21.3989 2.01416 21.9604 2.79541L26.4771 8.99658C26.6602 9.26514 26.5869 9.60693 26.1841 9.60693L18.4082 9.60693C17.7246 9.60693 17.4072 10.1196 17.4072 10.6689L17.4072 10.7056C17.4072 12.207 16.2354 13.7939 14.3921 13.7939ZM19.519 3.52783L9.26514 3.52783C8.93555 3.52783 8.6792 3.78418 8.6792 4.11377C8.6792 4.44336 8.93555 4.69971 9.26514 4.69971L19.519 4.69971C19.8486 4.69971 20.105 4.44336 20.105 4.11377C20.105 3.78418 19.8486 3.52783 19.519 3.52783ZM21.1426 6.28662L7.6416 6.28662C7.2998 6.28662 7.03125 6.5918 7.03125 6.92139C7.03125 7.25098 7.2998 7.53174 7.6416 7.53174L21.1426 7.53174C21.4844 7.53174 21.7529 7.25098 21.7529 6.92139C21.7529 6.5918 21.4844 6.28662 21.1426 6.28662Z" fill="#5ac8f5"/>
 </g>
</svg>
