<?xml version="1.0" encoding="UTF-8"?>
<!--Generator: Apple Native CoreSVG 175.5-->
<!DOCTYPE svg
PUBLIC "-//W3C//DTD SVG 1.1//EN"
       "http://www.w3.org/Graphics/SVG/1.1/DTD/svg11.dtd">
<svg version="1.1" xmlns="http://www.w3.org/2000/svg" xmlns:xlink="http://www.w3.org/1999/xlink" width="19.9097" height="19.4214">
 <g>
  <rect height="19.4214" opacity="0" width="19.9097" x="0" y="0"/>
  <path d="M18.4448 0.012207C17.9565 0.012207 17.5659 0.219727 17.0532 0.476074L1.36719 8.09326C0.32959 8.60596 0 9.06982 0 9.7168C0 10.3638 0.32959 10.8398 1.36719 11.3525L17.0532 18.9575C17.5781 19.2139 17.9688 19.4214 18.457 19.4214C19.3604 19.4214 19.9097 18.7378 19.9097 17.6758L19.9097 1.75781C19.9097 0.695801 19.3481 0.012207 18.4448 0.012207ZM17.8223 2.33154C17.8955 2.33154 17.9443 2.39258 17.9443 2.47803L17.9565 16.9556C17.9565 17.0532 17.9077 17.1021 17.8345 17.1021C17.7856 17.1021 17.7368 17.0776 17.688 17.0532L2.73438 9.85107C2.67334 9.82666 2.62451 9.77783 2.62451 9.7168C2.62451 9.65576 2.67334 9.60693 2.73438 9.58252L17.6758 2.39258C17.7246 2.35596 17.7734 2.33154 17.8223 2.33154Z" fill="#5ac8f5"/>
 </g>
</svg>
