<?xml version="1.0" encoding="UTF-8"?>
<!--Generator: Apple Native CoreSVG 175.5-->
<!DOCTYPE svg
PUBLIC "-//W3C//DTD SVG 1.1//EN"
       "http://www.w3.org/Graphics/SVG/1.1/DTD/svg11.dtd">
<svg version="1.1" xmlns="http://www.w3.org/2000/svg" xmlns:xlink="http://www.w3.org/1999/xlink" width="16.9678" height="27.6245">
 <g>
  <rect height="27.6245" opacity="0" width="16.9678" x="0" y="0"/>
  <path d="M0 9.17969L16.9678 9.17969L16.9678 2.55127C16.9678 1.01318 15.979 0 14.502 0L2.45361 0C0.98877 0 0 1.01318 0 2.55127ZM3.38135 6.88477C3.02734 6.88477 2.75879 6.62842 2.75879 6.26221L2.75879 3.479C2.75879 3.125 3.01514 2.86865 3.38135 2.86865C3.73535 2.86865 3.9917 3.11279 3.9917 3.479L3.9917 6.26221C3.9917 6.61621 3.74756 6.88477 3.38135 6.88477ZM0 22.7295L16.9678 22.7295L16.9678 10.6079L0 10.6079ZM3.38135 16.4429C3.02734 16.4429 2.75879 16.1987 2.75879 15.8325L2.75879 13.0493C2.75879 12.6953 3.01514 12.439 3.38135 12.439C3.73535 12.439 3.9917 12.6831 3.9917 13.0493L3.9917 15.8325C3.9917 16.1865 3.74756 16.4429 3.38135 16.4429ZM0 24.1577L0 25.0732C0 26.6113 0.98877 27.6245 2.45361 27.6245L14.502 27.6245C15.979 27.6245 16.9678 26.6113 16.9678 25.0732L16.9678 24.1577Z" fill="#5ac8f5"/>
 </g>
</svg>
