<?xml version="1.0" encoding="UTF-8"?>
<!--Generator: Apple Native CoreSVG 175.5-->
<!DOCTYPE svg
PUBLIC "-//W3C//DTD SVG 1.1//EN"
       "http://www.w3.org/Graphics/SVG/1.1/DTD/svg11.dtd">
<svg version="1.1" xmlns="http://www.w3.org/2000/svg" xmlns:xlink="http://www.w3.org/1999/xlink" width="24.9023" height="24.9146">
 <g>
  <rect height="24.9146" opacity="0" width="24.9023" x="0" y="0"/>
  <path d="M12.4512 24.9023C19.2627 24.9023 24.9023 19.2505 24.9023 12.4512C24.9023 5.63965 19.2505 0 12.439 0C5.63965 0 0 5.63965 0 12.4512C0 19.2505 5.65186 24.9023 12.4512 24.9023Z" fill="#5ac8f5" fill-opacity="0.25"/>
  <path d="M8.44727 17.0044C7.9834 17.0044 7.65381 16.687 7.65381 16.2354L7.65381 9.09424C7.65381 8.61816 7.97119 8.30078 8.41064 8.30078C8.83789 8.30078 9.15527 8.58154 9.15527 9.13086L9.15527 9.27734C9.53369 8.58154 10.1196 8.26416 10.8276 8.26416C11.6333 8.26416 12.2559 8.60596 12.6099 9.32617L14.1479 5.57861C14.27 5.29785 14.4531 5.12695 14.7339 5.12695C15.0757 5.12695 15.3564 5.37109 15.3564 5.70068C15.3564 5.82275 15.3198 5.94482 15.2832 6.04248L14.3188 8.36182C14.4897 8.30078 14.6606 8.26416 14.8682 8.26416C16.333 8.26416 17.2729 9.28955 17.2729 10.9741L17.2729 16.1987C17.2729 16.687 16.9434 17.0044 16.4917 17.0044C16.04 17.0044 15.7227 16.687 15.7227 16.1987L15.7227 11.0962C15.7227 10.2295 15.271 9.68018 14.502 9.68018C13.7207 9.68018 13.2446 10.2539 13.2446 11.145L13.2446 16.1987C13.2446 16.687 12.9272 17.0044 12.4634 17.0044C12.0117 17.0044 11.6943 16.687 11.6943 16.1987L11.6943 15.1001L10.1685 19.3237C10.0586 19.6167 9.85107 19.7876 9.57031 19.7876C9.22852 19.7876 8.97217 19.5312 8.97217 19.2017C8.97217 19.0796 8.99658 18.9575 9.04541 18.8477L11.6943 11.5234L11.6943 11.0107C11.6943 10.2295 11.2061 9.66797 10.5103 9.66797C9.70459 9.66797 9.21631 10.2905 9.21631 11.2061L9.21631 16.1987C9.21631 16.687 8.89893 17.0044 8.44727 17.0044Z" fill="#5ac8f5"/>
 </g>
</svg>
