<?xml version="1.0" encoding="UTF-8"?>
<!--Generator: Apple Native CoreSVG 175.5-->
<!DOCTYPE svg
PUBLIC "-//W3C//DTD SVG 1.1//EN"
       "http://www.w3.org/Graphics/SVG/1.1/DTD/svg11.dtd">
<svg version="1.1" xmlns="http://www.w3.org/2000/svg" xmlns:xlink="http://www.w3.org/1999/xlink" width="25.1099" height="31.1401">
 <g>
  <rect height="31.1401" opacity="0" width="25.1099" x="0" y="0"/>
  <path d="M3.39355 19.6655L21.7163 19.6655C23.9868 19.6655 25.1099 18.5547 25.1099 16.333L25.1099 3.38135C25.1099 1.15967 23.9868 0.0244141 21.7163 0.0244141L3.39355 0.0244141C1.14746 0.0244141 0 1.17188 0 3.38135L0 16.333C0 18.5425 1.13525 19.6655 3.39355 19.6655ZM3.50342 17.8223C2.46582 17.8223 1.85547 17.2119 1.85547 16.1621L1.85547 15.6494L4.99268 12.7686C5.45654 12.3535 5.96924 12.146 6.44531 12.146C6.97021 12.146 7.50732 12.3657 7.9834 12.793L10.0098 14.6362L15.1245 10.0952C15.6494 9.64355 16.2231 9.42383 16.8457 9.42383C17.4194 9.42383 18.0542 9.64355 18.5303 10.1196L23.3154 14.6729L23.3154 16.1865C23.3154 17.2119 22.6807 17.8223 21.6675 17.8223ZM7.99561 10.1074C6.54297 10.1074 5.35889 8.92334 5.35889 7.4707C5.35889 6.03027 6.54297 4.84619 7.99561 4.84619C9.43604 4.84619 10.6201 6.03027 10.6201 7.4707C10.6201 8.92334 9.43604 10.1074 7.99561 10.1074ZM0.915527 25.415L24.1821 25.415C24.6948 25.415 25.1099 25.0122 25.1099 24.4873C25.1099 23.9746 24.6948 23.5718 24.1821 23.5718L0.915527 23.5718C0.402832 23.5718 0 23.9746 0 24.4873C0 25.0122 0.402832 25.415 0.915527 25.415ZM0.915527 31.1401L15.9668 31.1401C16.4795 31.1401 16.8945 30.7373 16.8945 30.2246C16.8945 29.7119 16.4795 29.2969 15.9668 29.2969L0.915527 29.2969C0.402832 29.2969 0 29.7119 0 30.2246C0 30.7373 0.402832 31.1401 0.915527 31.1401Z" fill="#5ac8f5"/>
 </g>
</svg>
