<?xml version="1.0" encoding="UTF-8"?>
<!--Generator: Apple Native CoreSVG 175.5-->
<!DOCTYPE svg
PUBLIC "-//W3C//DTD SVG 1.1//EN"
       "http://www.w3.org/Graphics/SVG/1.1/DTD/svg11.dtd">
<svg version="1.1" xmlns="http://www.w3.org/2000/svg" xmlns:xlink="http://www.w3.org/1999/xlink" width="25.3431" height="25.4603">
 <g>
  <rect height="25.4603" opacity="0" width="25.3431" x="0" y="0"/>
  <path d="M1.89053 23.454C4.47842 26.0297 8.14053 26.0053 10.9726 23.1855L14.6957 19.4379L13.3163 18.0463L9.59317 21.7816C7.62783 23.7348 5.05215 24.0155 3.18448 22.1601C1.30459 20.3046 1.59756 17.7167 3.56289 15.7514L7.29824 12.016L5.90664 10.6488L2.15908 14.372C-0.66074 17.204-0.685154 20.8661 1.89053 23.454ZM23.4481 1.8964C20.8603-0.679288 17.1981-0.667081 14.3783 2.15274L10.643 5.9003L12.0224 7.30411L15.7577 3.56876C17.7108 1.60343 20.2865 1.33487 22.1542 3.17813C24.0341 5.0336 23.7411 7.6337 21.7758 9.58682L18.0404 13.3222L19.4442 14.7016L23.1796 10.9662C26.0116 8.1464 26.0238 4.48429 23.4481 1.8964ZM19.4564 10.4291L14.9032 5.88809C13.475 4.45987 12.1078 4.42325 10.643 5.9003L5.90664 10.6488C4.41739 12.1137 4.46621 13.4809 5.88223 14.9091L10.4355 19.4623C11.8637 20.8783 13.2309 20.9272 14.6957 19.4379L19.4442 14.7016C20.9213 13.2245 20.8847 11.8695 19.4564 10.4291ZM13.7802 7.36515L17.9794 11.5644C18.6752 12.2602 18.602 12.7729 17.8695 13.4931L13.4872 17.8754C12.767 18.6078 12.2543 18.6811 11.5585 17.9853L7.35928 13.786C6.66348 13.0902 6.73672 12.5653 7.46914 11.8451L11.8515 7.47501C12.5717 6.74259 13.0844 6.66934 13.7802 7.36515ZM12.6571 11.308C13.2553 11.308 13.6947 10.8441 13.6947 10.2826C13.7191 9.7211 13.2431 9.24503 12.6693 9.24503C12.0956 9.24503 11.6439 9.7211 11.6439 10.307C11.6439 10.8319 12.12 11.308 12.6571 11.308ZM10.3134 13.7006C10.8749 13.7006 11.3266 13.2123 11.3266 12.6874C11.3266 12.1015 10.8749 11.6376 10.3012 11.6376C9.71524 11.6376 9.26358 12.1015 9.26358 12.6752C9.26358 13.2367 9.71524 13.7006 10.3134 13.7006ZM15.0375 13.7006C15.6112 13.7006 16.0873 13.2245 16.0751 12.663C16.0751 12.1015 15.6234 11.6376 15.0253 11.6376C14.4882 11.6376 14.0121 12.1137 14.0121 12.6386C14.0121 13.2245 14.476 13.7006 15.0375 13.7006ZM12.6693 16.081C13.2431 16.081 13.6947 15.6171 13.6947 15.0312C13.6947 14.5063 13.2431 14.018 12.6815 14.018C12.0834 14.018 11.6317 14.4818 11.6317 15.0434C11.6317 15.6171 12.0834 16.081 12.6693 16.081Z" fill="#5ac8f5"/>
 </g>
</svg>
