<?xml version="1.0" encoding="UTF-8"?>
<!--Generator: Apple Native CoreSVG 175.5-->
<!DOCTYPE svg
PUBLIC "-//W3C//DTD SVG 1.1//EN"
       "http://www.w3.org/Graphics/SVG/1.1/DTD/svg11.dtd">
<svg version="1.1" xmlns="http://www.w3.org/2000/svg" xmlns:xlink="http://www.w3.org/1999/xlink" width="22.4731" height="22.4976">
 <g>
  <rect height="22.4976" opacity="0" width="22.4731" x="0" y="0"/>
  <path d="M3.83301 22.4976L18.6401 22.4976C21.2036 22.4976 22.4731 21.228 22.4731 18.7134L22.4731 3.80859C22.4731 1.29395 21.2036 0.0244141 18.6401 0.0244141L3.83301 0.0244141C1.28174 0.0244141 0 1.28174 0 3.80859L0 18.7134C0 21.2402 1.28174 22.4976 3.83301 22.4976ZM3.85742 20.5322C2.63672 20.5322 1.96533 19.8853 1.96533 18.6157L1.96533 3.90625C1.96533 2.63672 2.63672 1.98975 3.85742 1.98975L18.6157 1.98975C19.8242 1.98975 20.5078 2.63672 20.5078 3.90625L20.5078 18.6157C20.5078 19.8853 19.8242 20.5322 18.6157 20.5322Z" fill="#5ac8f5" fill-opacity="0.5"/>
  <path d="M7.59277 16.3574C8.06885 16.3574 8.37402 16.0522 8.37402 15.5762L8.37402 6.93359C8.37402 6.4209 8.02002 6.05469 7.50732 6.05469C7.1167 6.05469 6.87256 6.17676 6.44531 6.46973L4.58984 7.73926C4.3335 7.92236 4.1748 8.14209 4.1748 8.45947C4.1748 8.87451 4.5166 9.19189 4.87061 9.19189C5.06592 9.19189 5.18799 9.17969 5.46875 8.95996L6.7749 7.99561L6.84814 7.99561L6.84814 15.5762C6.84814 16.0522 7.14111 16.3574 7.59277 16.3574ZM14.27 16.5161C16.2476 16.5161 17.6636 15.21 17.6636 12.9761C17.6636 10.8765 16.2354 9.7168 14.6484 9.7168C13.3423 9.7168 12.5244 10.4492 12.2192 11.2549L12.1338 11.2549C12.1338 11.2183 12.1338 11.1938 12.1338 11.145C12.1338 8.83789 13.0615 7.38525 14.4409 7.38525C15.1489 7.38525 15.6372 7.72705 15.9424 8.20312C16.1499 8.5083 16.3452 8.65479 16.6748 8.65479C17.0166 8.65479 17.2729 8.38623 17.2729 7.9834C17.2729 7.82471 17.2485 7.67822 17.1875 7.51953C16.8701 6.70166 15.8936 5.98145 14.502 5.98145C12.146 5.98145 10.7056 7.8125 10.7056 11.5234C10.7056 13.0127 10.9375 14.0991 11.3525 14.8682C11.9751 16.04 13.0249 16.5161 14.27 16.5161ZM14.1968 15.1733C13.0615 15.1733 12.2681 14.2822 12.2681 13.0249C12.2681 11.8286 13.0615 10.9741 14.209 10.9741C15.3564 10.9741 16.1255 11.8164 16.1255 13.0371C16.1255 14.3433 15.3809 15.1733 14.1968 15.1733Z" fill="#5ac8f5"/>
 </g>
</svg>
