<?xml version="1.0" encoding="UTF-8"?>
<!--Generator: Apple Native CoreSVG 175.5-->
<!DOCTYPE svg
PUBLIC "-//W3C//DTD SVG 1.1//EN"
       "http://www.w3.org/Graphics/SVG/1.1/DTD/svg11.dtd">
<svg version="1.1" xmlns="http://www.w3.org/2000/svg" xmlns:xlink="http://www.w3.org/1999/xlink" width="22.4731" height="22.4731">
 <g>
  <rect height="22.4731" opacity="0" width="22.4731" x="0" y="0"/>
  <path d="M1.08643 2.16064C1.68457 2.16064 2.16064 1.67236 2.16064 1.07422C2.16064 0.476074 1.68457 0 1.08643 0C0.488281 0 0 0.476074 0 1.07422C0 1.67236 0.488281 2.16064 1.08643 2.16064ZM4.46777 2.16064C5.06592 2.16064 5.5542 1.67236 5.5542 1.07422C5.5542 0.476074 5.06592 0 4.46777 0C3.86963 0 3.39355 0.476074 3.39355 1.07422C3.39355 1.67236 3.86963 2.16064 4.46777 2.16064ZM7.84912 2.16064C8.44727 2.16064 8.93555 1.67236 8.93555 1.07422C8.93555 0.476074 8.44727 0 7.84912 0C7.25098 0 6.7749 0.476074 6.7749 1.07422C6.7749 1.67236 7.25098 2.16064 7.84912 2.16064ZM11.2427 2.16064C11.8408 2.16064 12.3169 1.67236 12.3169 1.07422C12.3169 0.476074 11.8408 0 11.2427 0C10.6445 0 10.1562 0.476074 10.1562 1.07422C10.1562 1.67236 10.6445 2.16064 11.2427 2.16064ZM14.624 2.16064C15.2222 2.16064 15.7104 1.67236 15.7104 1.07422C15.7104 0.476074 15.2222 0 14.624 0C14.0259 0 13.5498 0.476074 13.5498 1.07422C13.5498 1.67236 14.0259 2.16064 14.624 2.16064ZM18.0054 2.16064C18.6035 2.16064 19.0918 1.67236 19.0918 1.07422C19.0918 0.476074 18.6035 0 18.0054 0C17.4072 0 16.9312 0.476074 16.9312 1.07422C16.9312 1.67236 17.4072 2.16064 18.0054 2.16064ZM21.3989 2.16064C21.9971 2.16064 22.4731 1.67236 22.4731 1.07422C22.4731 0.476074 21.9971 0 21.3989 0C20.8008 0 20.3125 0.476074 20.3125 1.07422C20.3125 1.67236 20.8008 2.16064 21.3989 2.16064ZM21.3989 5.54199C21.9971 5.54199 22.4731 5.06592 22.4731 4.46777C22.4731 3.86963 21.9971 3.38135 21.3989 3.38135C20.8008 3.38135 20.3125 3.86963 20.3125 4.46777C20.3125 5.06592 20.8008 5.54199 21.3989 5.54199ZM21.3989 8.92334C21.9971 8.92334 22.4731 8.44727 22.4731 7.84912C22.4731 7.25098 21.9971 6.7627 21.3989 6.7627C20.8008 6.7627 20.3125 7.25098 20.3125 7.84912C20.3125 8.44727 20.8008 8.92334 21.3989 8.92334ZM21.3989 12.3169C21.9971 12.3169 22.4731 11.8286 22.4731 11.2305C22.4731 10.6323 21.9971 10.1562 21.3989 10.1562C20.8008 10.1562 20.3125 10.6323 20.3125 11.2305C20.3125 11.8286 20.8008 12.3169 21.3989 12.3169ZM21.3989 15.6982C21.9971 15.6982 22.4731 15.2222 22.4731 14.624C22.4731 14.0259 21.9971 13.5376 21.3989 13.5376C20.8008 13.5376 20.3125 14.0259 20.3125 14.624C20.3125 15.2222 20.8008 15.6982 21.3989 15.6982ZM21.3989 19.0796C21.9971 19.0796 22.4731 18.6035 22.4731 18.0054C22.4731 17.4072 21.9971 16.9189 21.3989 16.9189C20.8008 16.9189 20.3125 17.4072 20.3125 18.0054C20.3125 18.6035 20.8008 19.0796 21.3989 19.0796ZM21.3989 22.4731C21.9971 22.4731 22.4731 21.9849 22.4731 21.3867C22.4731 20.7886 21.9971 20.3125 21.3989 20.3125C20.8008 20.3125 20.3125 20.7886 20.3125 21.3867C20.3125 21.9849 20.8008 22.4731 21.3989 22.4731ZM18.0054 22.4731C18.6035 22.4731 19.0918 21.9849 19.0918 21.3867C19.0918 20.7886 18.6035 20.3125 18.0054 20.3125C17.4072 20.3125 16.9312 20.7886 16.9312 21.3867C16.9312 21.9849 17.4072 22.4731 18.0054 22.4731ZM14.624 22.4731C15.2222 22.4731 15.7104 21.9849 15.7104 21.3867C15.7104 20.7886 15.2222 20.3125 14.624 20.3125C14.0259 20.3125 13.5498 20.7886 13.5498 21.3867C13.5498 21.9849 14.0259 22.4731 14.624 22.4731ZM11.2427 22.4731C11.8408 22.4731 12.3169 21.9849 12.3169 21.3867C12.3169 20.7886 11.8408 20.3125 11.2427 20.3125C10.6445 20.3125 10.1562 20.7886 10.1562 21.3867C10.1562 21.9849 10.6445 22.4731 11.2427 22.4731ZM7.84912 22.4731C8.44727 22.4731 8.93555 21.9849 8.93555 21.3867C8.93555 20.7886 8.44727 20.3125 7.84912 20.3125C7.25098 20.3125 6.7749 20.7886 6.7749 21.3867C6.7749 21.9849 7.25098 22.4731 7.84912 22.4731ZM4.46777 22.4731C5.06592 22.4731 5.5542 21.9849 5.5542 21.3867C5.5542 20.7886 5.06592 20.3125 4.46777 20.3125C3.86963 20.3125 3.39355 20.7886 3.39355 21.3867C3.39355 21.9849 3.86963 22.4731 4.46777 22.4731ZM1.08643 22.4731C1.68457 22.4731 2.16064 21.9849 2.16064 21.3867C2.16064 20.7886 1.68457 20.3125 1.08643 20.3125C0.488281 20.3125 0 20.7886 0 21.3867C0 21.9849 0.488281 22.4731 1.08643 22.4731ZM1.08643 19.0796C1.68457 19.0796 2.16064 18.6035 2.16064 18.0054C2.16064 17.4072 1.68457 16.9189 1.08643 16.9189C0.488281 16.9189 0 17.4072 0 18.0054C0 18.6035 0.488281 19.0796 1.08643 19.0796ZM1.08643 15.6982C1.68457 15.6982 2.16064 15.2222 2.16064 14.624C2.16064 14.0259 1.68457 13.5376 1.08643 13.5376C0.488281 13.5376 0 14.0259 0 14.624C0 15.2222 0.488281 15.6982 1.08643 15.6982ZM1.08643 12.3169C1.68457 12.3169 2.16064 11.8286 2.16064 11.2305C2.16064 10.6323 1.68457 10.1562 1.08643 10.1562C0.488281 10.1562 0 10.6323 0 11.2305C0 11.8286 0.488281 12.3169 1.08643 12.3169ZM1.08643 8.92334C1.68457 8.92334 2.16064 8.44727 2.16064 7.84912C2.16064 7.25098 1.68457 6.7627 1.08643 6.7627C0.488281 6.7627 0 7.25098 0 7.84912C0 8.44727 0.488281 8.92334 1.08643 8.92334ZM1.08643 5.54199C1.68457 5.54199 2.16064 5.06592 2.16064 4.46777C2.16064 3.86963 1.68457 3.38135 1.08643 3.38135C0.488281 3.38135 0 3.86963 0 4.46777C0 5.06592 0.488281 5.54199 1.08643 5.54199ZM11.2427 5.54199C11.8408 5.54199 12.3169 5.06592 12.3169 4.46777C12.3169 3.86963 11.8408 3.38135 11.2427 3.38135C10.6445 3.38135 10.1562 3.86963 10.1562 4.46777C10.1562 5.06592 10.6445 5.54199 11.2427 5.54199ZM11.2427 8.92334C11.8408 8.92334 12.3169 8.44727 12.3169 7.84912C12.3169 7.25098 11.8408 6.7627 11.2427 6.7627C10.6445 6.7627 10.1562 7.25098 10.1562 7.84912C10.1562 8.44727 10.6445 8.92334 11.2427 8.92334ZM11.2427 12.3169C11.8408 12.3169 12.3169 11.8286 12.3169 11.2305C12.3169 10.6323 11.8408 10.1562 11.2427 10.1562C10.6445 10.1562 10.1562 10.6323 10.1562 11.2305C10.1562 11.8286 10.6445 12.3169 11.2427 12.3169ZM11.2427 15.6982C11.8408 15.6982 12.3169 15.2222 12.3169 14.624C12.3169 14.0259 11.8408 13.5376 11.2427 13.5376C10.6445 13.5376 10.1562 14.0259 10.1562 14.624C10.1562 15.2222 10.6445 15.6982 11.2427 15.6982ZM11.2427 19.0796C11.8408 19.0796 12.3169 18.6035 12.3169 18.0054C12.3169 17.4072 11.8408 16.9189 11.2427 16.9189C10.6445 16.9189 10.1562 17.4072 10.1562 18.0054C10.1562 18.6035 10.6445 19.0796 11.2427 19.0796ZM4.46777 12.3169C5.06592 12.3169 5.5542 11.8286 5.5542 11.2305C5.5542 10.6323 5.06592 10.1562 4.46777 10.1562C3.86963 10.1562 3.39355 10.6323 3.39355 11.2305C3.39355 11.8286 3.86963 12.3169 4.46777 12.3169ZM7.84912 12.3169C8.44727 12.3169 8.93555 11.8286 8.93555 11.2305C8.93555 10.6323 8.44727 10.1562 7.84912 10.1562C7.25098 10.1562 6.7749 10.6323 6.7749 11.2305C6.7749 11.8286 7.25098 12.3169 7.84912 12.3169ZM14.624 12.3169C15.2222 12.3169 15.7104 11.8286 15.7104 11.2305C15.7104 10.6323 15.2222 10.1562 14.624 10.1562C14.0259 10.1562 13.5498 10.6323 13.5498 11.2305C13.5498 11.8286 14.0259 12.3169 14.624 12.3169ZM18.0054 12.3169C18.6035 12.3169 19.0918 11.8286 19.0918 11.2305C19.0918 10.6323 18.6035 10.1562 18.0054 10.1562C17.4072 10.1562 16.9312 10.6323 16.9312 11.2305C16.9312 11.8286 17.4072 12.3169 18.0054 12.3169Z" fill="#5ac8f5"/>
 </g>
</svg>
