<?xml version="1.0" encoding="UTF-8"?>
<!--Generator: Apple Native CoreSVG 175.5-->
<!DOCTYPE svg
PUBLIC "-//W3C//DTD SVG 1.1//EN"
       "http://www.w3.org/Graphics/SVG/1.1/DTD/svg11.dtd">
<svg version="1.1" xmlns="http://www.w3.org/2000/svg" xmlns:xlink="http://www.w3.org/1999/xlink" width="26.9043" height="26.9653">
 <g>
  <rect height="26.9653" opacity="0" width="26.9043" x="0" y="0"/>
  <path d="M7.25098 26.9653C7.72705 26.9653 8.08105 26.7212 8.65479 26.1841L13.0615 22.1558L21.3135 22.1558C24.9512 22.1558 26.9043 20.1538 26.9043 16.5771L26.9043 7.22656C26.9043 3.6499 24.9512 1.63574 21.3135 1.63574L5.59082 1.63574C1.95312 1.63574 0 3.6377 0 7.22656L0 16.5771C0 20.166 1.95312 22.1558 5.59082 22.1558L6.16455 22.1558L6.16455 25.708C6.16455 26.4648 6.55518 26.9653 7.25098 26.9653Z" fill="#5ac8f5" fill-opacity="0.25"/>
  <path d="M7.49512 11.9019C7.49512 11.2671 7.94678 10.8276 8.58154 10.8276L12.4023 10.8276L12.4023 7.00684C12.4023 6.37207 12.8296 5.92041 13.4399 5.92041C14.0869 5.92041 14.5142 6.37207 14.5142 7.00684L14.5142 10.8276L18.3472 10.8276C18.9819 10.8276 19.4214 11.2671 19.4214 11.9019C19.4214 12.5244 18.9697 12.9395 18.3472 12.9395L14.5142 12.9395L14.5142 16.7725C14.5142 17.4072 14.0869 17.8467 13.4399 17.8467C12.8296 17.8467 12.4023 17.395 12.4023 16.7725L12.4023 12.9395L8.58154 12.9395C7.94678 12.9395 7.49512 12.5244 7.49512 11.9019Z" fill="#5ac8f5"/>
 </g>
</svg>
