<?xml version="1.0" encoding="UTF-8"?>
<!--Generator: Apple Native CoreSVG 175.5-->
<!DOCTYPE svg
PUBLIC "-//W3C//DTD SVG 1.1//EN"
       "http://www.w3.org/Graphics/SVG/1.1/DTD/svg11.dtd">
<svg version="1.1" xmlns="http://www.w3.org/2000/svg" xmlns:xlink="http://www.w3.org/1999/xlink" width="22.2778" height="26.6996">
 <g>
  <rect height="26.6996" opacity="0" width="22.2778" x="0" y="0"/>
  <path d="M0 13.3437C0 17.9335 1.07422 22.4501 3.49121 24.8793C4.63867 26.039 6.0791 26.7226 7.89795 26.686C9.64355 26.6494 10.9863 25.5385 10.6812 23.8295L9.93652 19.496C9.69238 18.0434 9.08203 17.5063 7.54395 17.5063L6.73828 17.5063C5.41992 17.5063 5.23682 16.2734 5.23682 13.3437C5.23682 10.414 5.41992 9.18109 6.73828 9.18109L7.54395 9.18109C9.05762 9.18109 9.68018 8.65619 9.93652 7.19134L10.6812 2.85785C10.9863 1.13665 9.64355 0.0380219 7.89795 0.00140081C6.0791-0.0352203 4.63867 0.648373 3.49121 1.79583C1.07422 4.22503 0 8.74164 0 13.3437Z" fill="#5ac8f5" fill-opacity="0.5"/>
  <path d="M10.5347 14.2104L17.1021 14.2104L19.6655 14.0883L17.0044 16.4809L15.7227 17.7626C15.5518 17.9335 15.4663 18.1655 15.4663 18.4218C15.4663 18.9223 15.8203 19.2641 16.2964 19.2641C16.5405 19.2641 16.7725 19.1664 16.9434 18.9955L21.9604 13.9907C22.168 13.7831 22.2778 13.5512 22.2778 13.3437C22.2778 13.1362 22.168 12.892 21.9604 12.6845L16.9434 7.69183C16.7725 7.52093 16.5405 7.42328 16.2964 7.42328C15.8203 7.42328 15.4663 7.76507 15.4663 8.25335C15.4663 8.52191 15.5518 8.74164 15.7227 8.91253L17.0044 10.2065L19.6655 12.5869L17.1021 12.4648L10.5347 12.4648C9.98535 12.4648 9.65576 12.892 9.65576 13.3437C9.65576 13.7953 9.98535 14.2104 10.5347 14.2104Z" fill="#5ac8f5"/>
 </g>
</svg>
