<?xml version="1.0" encoding="UTF-8"?>
<!--Generator: Apple Native CoreSVG 175.5-->
<!DOCTYPE svg
PUBLIC "-//W3C//DTD SVG 1.1//EN"
       "http://www.w3.org/Graphics/SVG/1.1/DTD/svg11.dtd">
<svg version="1.1" xmlns="http://www.w3.org/2000/svg" xmlns:xlink="http://www.w3.org/1999/xlink" width="24.9023" height="24.9146">
 <g>
  <rect height="24.9146" opacity="0" width="24.9023" x="0" y="0"/>
  <path d="M12.4512 24.9023C19.2627 24.9023 24.9023 19.2505 24.9023 12.4512C24.9023 5.63965 19.2505 0 12.439 0C5.63965 0 0 5.63965 0 12.4512C0 19.2505 5.65186 24.9023 12.4512 24.9023ZM7.86133 17.6392C7.86133 17.2241 8.05664 16.9678 8.52051 16.8213C9.375 16.5771 10.1074 15.8325 10.2295 14.7217C10.2417 14.5752 10.2539 14.4409 10.2417 14.3066L8.59375 14.3066C8.19092 14.3066 7.88574 14.0259 7.88574 13.623C7.88574 13.2202 8.19092 12.9517 8.59375 12.9517L10.0464 12.9517C9.96094 12.5854 9.83887 12.2314 9.76562 11.8652L8.59375 11.8652C8.19092 11.8652 7.88574 11.5845 7.88574 11.1816C7.88574 10.7788 8.19092 10.5103 8.59375 10.5103L9.55811 10.5103C9.5459 10.4126 9.53369 10.3394 9.53369 10.2417C9.53369 7.86133 11.1206 6.35986 13.7207 6.35986C14.4897 6.35986 15.21 6.44531 15.8081 6.68945C16.2476 6.86035 16.4062 7.12891 16.4062 7.4585C16.4062 7.87354 16.1621 8.14209 15.686 8.11768C15.2954 8.06885 14.7461 7.84912 13.8184 7.84912C12.1582 7.84912 11.1816 8.77686 11.1816 10.1318C11.1816 10.2661 11.1938 10.3882 11.2061 10.5103L14.856 10.5103C15.271 10.5103 15.564 10.7788 15.564 11.1816C15.564 11.5845 15.271 11.8652 14.856 11.8652L11.438 11.8652C11.5234 12.2192 11.6211 12.5732 11.7188 12.9517L14.856 12.9517C15.271 12.9517 15.564 13.2202 15.564 13.623C15.564 14.0259 15.271 14.3066 14.856 14.3066L11.853 14.3066C11.853 14.502 11.8408 14.6851 11.8164 14.8682C11.6943 15.6982 11.3281 16.4673 10.7788 16.9067L16.2231 16.9067C16.6748 16.9067 16.9922 17.1997 16.9922 17.6392C16.9922 18.0908 16.6748 18.3838 16.2231 18.3838L8.60596 18.3838C8.1543 18.3838 7.86133 18.0908 7.86133 17.6392Z" fill="#5ac8f5"/>
 </g>
</svg>
