<?xml version="1.0" encoding="UTF-8"?>
<!--Generator: Apple Native CoreSVG 175.5-->
<!DOCTYPE svg
PUBLIC "-//W3C//DTD SVG 1.1//EN"
       "http://www.w3.org/Graphics/SVG/1.1/DTD/svg11.dtd">
<svg version="1.1" xmlns="http://www.w3.org/2000/svg" xmlns:xlink="http://www.w3.org/1999/xlink" width="22.4731" height="22.4976">
 <g>
  <rect height="22.4976" opacity="0" width="22.4731" x="0" y="0"/>
  <path d="M3.83301 22.4976L18.6401 22.4976C21.2036 22.4976 22.4731 21.228 22.4731 18.7134L22.4731 3.80859C22.4731 1.29395 21.2036 0.0244141 18.6401 0.0244141L3.83301 0.0244141C1.28174 0.0244141 0 1.28174 0 3.80859L0 18.7134C0 21.2402 1.28174 22.4976 3.83301 22.4976ZM3.85742 20.5322C2.63672 20.5322 1.96533 19.8853 1.96533 18.6157L1.96533 3.90625C1.96533 2.63672 2.63672 1.98975 3.85742 1.98975L18.6157 1.98975C19.8242 1.98975 20.5078 2.63672 20.5078 3.90625L20.5078 18.6157C20.5078 19.8853 19.8242 20.5322 18.6157 20.5322ZM7.94678 16.3574C8.42285 16.3574 8.72803 16.0522 8.72803 15.5762L8.72803 6.93359C8.72803 6.4209 8.37402 6.05469 7.87354 6.05469C7.4707 6.05469 7.22656 6.17676 6.79932 6.46973L4.94385 7.73926C4.6875 7.92236 4.52881 8.14209 4.52881 8.45947C4.52881 8.87451 4.87061 9.19189 5.22461 9.19189C5.43213 9.19189 5.54199 9.17969 5.82275 8.95996L7.12891 7.99561L7.20215 7.99561L7.20215 15.5762C7.20215 16.0522 7.49512 16.3574 7.94678 16.3574ZM14.4165 16.5039C16.5161 16.5039 17.9077 14.4897 17.9077 11.2427C17.9077 7.99561 16.5161 5.98145 14.4165 5.98145C12.3169 5.98145 10.9253 7.99561 10.9253 11.2427C10.9253 14.4897 12.3169 16.5039 14.4165 16.5039ZM14.4165 15.0269C13.2568 15.0269 12.5244 13.5864 12.5244 11.2427C12.5244 8.89893 13.2568 7.4585 14.4165 7.4585C15.5762 7.4585 16.3086 8.89893 16.3086 11.2427C16.3086 13.5864 15.5884 15.0269 14.4165 15.0269Z" fill="#5ac8f5"/>
 </g>
</svg>
