<?xml version="1.0" encoding="UTF-8"?>
<!--Generator: Apple Native CoreSVG 175.5-->
<!DOCTYPE svg
PUBLIC "-//W3C//DTD SVG 1.1//EN"
       "http://www.w3.org/Graphics/SVG/1.1/DTD/svg11.dtd">
<svg version="1.1" xmlns="http://www.w3.org/2000/svg" xmlns:xlink="http://www.w3.org/1999/xlink" width="18.9575" height="29.2114">
 <g>
  <rect height="29.2114" opacity="0" width="18.9575" x="0" y="0"/>
  <path d="M0 18.3716C0 19.4092 0.695801 20.0928 1.79443 20.0928L8.39844 20.0928L8.39844 25.7935C8.39844 27.6611 9.17969 29.2114 9.48486 29.2114C9.77783 29.2114 10.5591 27.6611 10.5591 25.7935L10.5591 20.0928L17.1631 20.0928C18.2617 20.0928 18.9575 19.4092 18.9575 18.3716C18.9575 15.7959 16.8945 13.0737 13.4644 11.8286L13.0615 6.22559C14.8438 5.2124 16.3086 4.06494 16.9434 3.24707C17.2607 2.83203 17.4194 2.41699 17.4194 2.05078C17.4194 1.30615 16.8457 0.756836 15.9912 0.756836L2.97852 0.756836C2.11182 0.756836 1.55029 1.30615 1.55029 2.05078C1.55029 2.41699 1.69678 2.83203 2.01416 3.24707C2.64893 4.06494 4.11377 5.2124 5.896 6.22559L5.49316 11.8286C2.06299 13.0737 0 15.7959 0 18.3716Z" fill="#5ac8f5"/>
 </g>
</svg>
