<?xml version="1.0" encoding="UTF-8"?>
<!--Generator: Apple Native CoreSVG 175.5-->
<!DOCTYPE svg
PUBLIC "-//W3C//DTD SVG 1.1//EN"
       "http://www.w3.org/Graphics/SVG/1.1/DTD/svg11.dtd">
<svg version="1.1" xmlns="http://www.w3.org/2000/svg" xmlns:xlink="http://www.w3.org/1999/xlink" width="22.4731" height="18.4204">
 <g>
  <rect height="18.4204" opacity="0" width="22.4731" x="0" y="0"/>
  <path d="M0 17.4316C0 17.9688 0.439453 18.4204 0.976562 18.4204C1.52588 18.4204 1.96533 17.9688 1.96533 17.4316L1.96533 1.00098C1.96533 0.463867 1.52588 0.0244141 0.976562 0.0244141C0.439453 0.0244141 0 0.463867 0 1.00098ZM20.5078 17.4316C20.5078 17.9688 20.9595 18.4204 21.4966 18.4204C22.0337 18.4204 22.4731 17.9688 22.4731 17.4316L22.4731 1.00098C22.4731 0.463867 22.0337 0.0244141 21.4966 0.0244141C20.9595 0.0244141 20.5078 0.463867 20.5078 1.00098Z" fill="#5ac8f5" fill-opacity="0.5"/>
  <path d="M11.1572 15.0146C13.7817 15.0146 15.3931 13.6353 15.3931 11.7188C15.3931 10.2783 14.3188 9.13086 12.8296 8.99658L12.8296 8.89893C14.0503 8.71582 15.0024 7.59277 15.0024 6.31104C15.0024 4.61426 13.4521 3.39355 11.2671 3.39355C9.27734 3.39355 7.77588 4.32129 7.44629 5.76172C7.40967 5.93262 7.39746 6.06689 7.39746 6.25C7.39746 6.72607 7.73926 7.05566 8.22754 7.05566C8.66699 7.05566 8.92334 6.84814 9.05762 6.4209C9.33838 5.50537 10.0952 4.93164 11.2305 4.93164C12.4512 4.93164 13.1958 5.54199 13.1958 6.53076C13.1958 7.53174 12.3535 8.27637 11.1816 8.27637L10.4248 8.27637C9.97314 8.27637 9.65576 8.58154 9.65576 9.0332C9.65576 9.46045 9.97314 9.77783 10.4248 9.77783L11.2549 9.77783C12.6343 9.77783 13.5742 10.5347 13.5742 11.6455C13.5742 12.7441 12.6221 13.4644 11.1938 13.4644C9.87549 13.4644 9.13086 12.8174 8.83789 11.9751C8.66699 11.5479 8.41064 11.3525 7.99561 11.3525C7.50732 11.3525 7.15332 11.6943 7.15332 12.1826C7.15332 12.3657 7.16553 12.4756 7.21436 12.6465C7.58057 14.0503 9.16748 15.0146 11.1572 15.0146Z" fill="#5ac8f5"/>
 </g>
</svg>
