<?xml version="1.0" encoding="UTF-8"?>
<!--Generator: Apple Native CoreSVG 175.5-->
<!DOCTYPE svg
PUBLIC "-//W3C//DTD SVG 1.1//EN"
       "http://www.w3.org/Graphics/SVG/1.1/DTD/svg11.dtd">
<svg version="1.1" xmlns="http://www.w3.org/2000/svg" xmlns:xlink="http://www.w3.org/1999/xlink" width="25.8301" height="25.5737">
 <g>
  <rect height="25.5737" opacity="0" width="25.8301" x="0" y="0"/>
  <path d="M9.75342 25.5737L22.0093 25.5737C24.5605 25.5737 25.8301 24.3164 25.8301 21.7896L25.8301 9.43604C25.8301 6.92139 24.5605 5.66406 22.0093 5.66406L18.9087 5.66406L18.9087 7.62939L21.9727 7.62939C23.1934 7.62939 23.8647 8.27637 23.8647 9.5459L23.8647 21.6919C23.8647 22.9614 23.1934 23.6084 21.9727 23.6084L9.77783 23.6084C8.58154 23.6084 7.88574 22.9614 7.88574 21.6919L7.88574 19.0063L5.92041 19.0063L5.92041 21.7896C5.92041 24.3042 7.20215 25.5737 9.75342 25.5737ZM3.83301 19.9219L16.0889 19.9219C18.6401 19.9219 19.9097 18.6646 19.9097 16.1377L19.9097 3.79639C19.9097 1.26953 18.6401 0.012207 16.0889 0.012207L3.83301 0.012207C1.28174 0.012207 0 1.28174 0 3.79639L0 16.1377C0 18.6523 1.28174 19.9219 3.83301 19.9219ZM3.85742 17.9565C2.66113 17.9565 1.96533 17.3096 1.96533 16.04L1.96533 3.89404C1.96533 2.62451 2.66113 1.97754 3.85742 1.97754L16.0522 1.97754C17.2729 1.97754 17.9443 2.62451 17.9443 3.89404L17.9443 16.04C17.9443 17.3096 17.2729 17.9565 16.0522 17.9565ZM9.375 15.6738C11.7798 15.6738 13.0615 14.4043 13.0615 12.085L13.0615 5.24902C13.0615 4.56543 12.7197 4.15039 12.0728 4.15039C11.4502 4.15039 11.1084 4.58984 11.1084 5.24902L11.1084 12.0605C11.1084 13.2812 10.4858 14.0137 9.47266 14.0137C8.55713 14.0137 7.94678 13.5498 7.6416 12.7563C7.43408 12.3047 7.16553 12.1094 6.75049 12.1094C6.21338 12.1094 5.84717 12.4756 5.84717 13.0127C5.84717 13.208 5.88379 13.3911 5.94482 13.5742C6.37207 14.856 7.69043 15.6738 9.375 15.6738Z" fill="#5ac8f5"/>
 </g>
</svg>
