<?xml version="1.0" encoding="UTF-8"?>
<!--Generator: Apple Native CoreSVG 175.5-->
<!DOCTYPE svg
PUBLIC "-//W3C//DTD SVG 1.1//EN"
       "http://www.w3.org/Graphics/SVG/1.1/DTD/svg11.dtd">
<svg version="1.1" xmlns="http://www.w3.org/2000/svg" xmlns:xlink="http://www.w3.org/1999/xlink" width="25.8789" height="28.0884">
 <g>
  <rect height="28.0884" opacity="0" width="25.8789" x="0" y="0"/>
  <path d="M0 14.6729C0 17.5537 2.23389 19.6899 5.27344 19.6899L20.6055 19.6899C23.645 19.6899 25.8789 17.5537 25.8789 14.6729C25.8789 13.855 25.647 13.0981 25.3662 12.4023L21.6919 3.61328C20.9717 1.86768 19.4946 0.915527 17.4561 0.915527L8.42285 0.915527C6.39648 0.915527 4.90723 1.86768 4.1748 3.61328L0.512695 12.4023C0.219727 13.1226 0 13.8672 0 14.6729ZM3.78418 9.8999L6.06689 4.13818C6.45752 3.14941 7.2998 2.63672 8.52051 2.63672L17.3706 2.63672C18.5913 2.63672 19.4336 3.14941 19.8242 4.13818L22.1069 9.8999C21.6309 9.74121 21.1304 9.66797 20.6055 9.66797L5.27344 9.66797C4.74854 9.66797 4.24805 9.74121 3.78418 9.8999ZM1.94092 14.6729C1.94092 12.8784 3.30811 11.6089 5.27344 11.6089L20.6055 11.6089C22.5708 11.6089 23.938 12.8784 23.938 14.6729C23.938 16.5894 22.6929 17.7368 20.6055 17.7368L5.27344 17.7368C3.30811 17.7368 1.94092 16.4673 1.94092 14.6729ZM19.1406 14.6729C19.1406 15.4785 19.7876 16.1255 20.5933 16.1255C21.3745 16.1133 22.0337 15.4663 22.0337 14.6729C22.0337 13.9038 21.3623 13.2324 20.5933 13.2324C19.812 13.2324 19.1406 13.9038 19.1406 14.6729ZM11.7432 25.3174L13.7085 25.3174L13.7085 18.4448L11.7432 18.4448ZM2.57568 26.2939L22.876 26.2939C23.4131 26.2939 23.8647 25.8545 23.8647 25.3174C23.8647 24.7681 23.4131 24.3286 22.876 24.3286L2.57568 24.3286C2.03857 24.3286 1.59912 24.7681 1.59912 25.3174C1.59912 25.8545 2.03857 26.2939 2.57568 26.2939ZM12.7319 28.0884C14.2334 28.0884 15.4907 26.8433 15.4907 25.3296C15.4907 23.8159 14.2334 22.5708 12.7319 22.5708C11.2183 22.5708 9.97314 23.8159 9.97314 25.3296C9.97314 26.8433 11.2183 28.0884 12.7319 28.0884Z" fill="#5ac8f5"/>
 </g>
</svg>
