<?xml version="1.0" encoding="UTF-8"?>
<!--Generator: Apple Native CoreSVG 175.5-->
<!DOCTYPE svg
PUBLIC "-//W3C//DTD SVG 1.1//EN"
       "http://www.w3.org/Graphics/SVG/1.1/DTD/svg11.dtd">
<svg version="1.1" xmlns="http://www.w3.org/2000/svg" xmlns:xlink="http://www.w3.org/1999/xlink" width="26.2573" height="22.8149">
 <g>
  <rect height="22.8149" opacity="0" width="26.2573" x="0" y="0"/>
  <path d="M9.36279 22.6562L16.8945 22.6562C18.6035 22.6562 19.519 21.6553 19.519 20.0439L19.519 14.5752L24.4751 14.5752C25.4761 14.5752 26.2573 13.9648 26.2573 13.0371C26.2573 12.4634 25.9644 12.0361 25.5249 11.5967L14.6362 0.744629C14.1602 0.268555 13.6719 0 13.1226 0C12.5854 0 12.085 0.268555 11.6211 0.744629L0.732422 11.5967C0.256348 12.0605 0 12.4634 0 13.0371C0 13.9648 0.78125 14.5752 1.77002 14.5752L6.73828 14.5752L6.73828 20.0439C6.73828 21.6553 7.65381 22.6562 9.36279 22.6562Z" fill="#5ac8f5"/>
 </g>
</svg>
