<?xml version="1.0" encoding="UTF-8"?>
<!--Generator: Apple Native CoreSVG 175.5-->
<!DOCTYPE svg
PUBLIC "-//W3C//DTD SVG 1.1//EN"
       "http://www.w3.org/Graphics/SVG/1.1/DTD/svg11.dtd">
<svg version="1.1" xmlns="http://www.w3.org/2000/svg" xmlns:xlink="http://www.w3.org/1999/xlink" width="36.4136" height="16.272">
 <g>
  <rect height="16.272" opacity="0" width="36.4136" x="0" y="0"/>
  <path d="M3.77197 14.2212L32.6294 14.2212C35.1318 14.2212 36.4136 12.9517 36.4136 10.498L36.4136 3.72314C36.4136 1.26953 35.1318 0 32.6294 0L3.77197 0C1.29395 0 0 1.26953 0 3.72314L0 10.498C0 12.9517 1.29395 14.2212 3.77197 14.2212ZM3.77197 12.2559C2.66113 12.2559 1.96533 11.5723 1.96533 10.498L1.96533 3.72314C1.96533 2.64893 2.66113 1.96533 3.77197 1.96533L32.6294 1.96533C33.7402 1.96533 34.4482 2.64893 34.4482 3.72314L34.4482 10.498C34.4482 11.5723 33.7402 12.2559 32.6294 12.2559ZM7.26318 9.74121C8.72803 9.74121 9.91211 8.55713 9.91211 7.09229C9.91211 5.61523 8.72803 4.43115 7.26318 4.43115C5.78613 4.43115 4.60205 5.61523 4.60205 7.09229C4.60205 8.55713 5.78613 9.74121 7.26318 9.74121ZM13.3057 9.75342L23.0957 9.75342C23.7061 9.75342 24.0967 9.36279 24.0967 8.76465L24.0967 5.46875C24.0967 4.87061 23.7061 4.46777 23.0957 4.46777L13.3057 4.46777C12.7075 4.46777 12.3047 4.87061 12.3047 5.46875L12.3047 8.76465C12.3047 9.36279 12.7075 9.75342 13.3057 9.75342ZM29.1504 9.74121C30.6152 9.74121 31.7993 8.55713 31.7993 7.09229C31.7993 5.61523 30.6152 4.43115 29.1504 4.43115C27.6855 4.43115 26.5015 5.61523 26.5015 7.09229C26.5015 8.55713 27.6855 9.74121 29.1504 9.74121ZM9.04541 13.4644L2.70996 13.4644L2.70996 15.2588C2.70996 15.8569 3.11279 16.2598 3.71094 16.2598L8.04443 16.2598C8.65479 16.2598 9.04541 15.8569 9.04541 15.2588ZM27.3682 13.4644L27.3682 15.2588C27.3682 15.8569 27.7588 16.2598 28.3691 16.2598L32.6904 16.2598C33.3008 16.2598 33.7036 15.8569 33.7036 15.2588L33.7036 13.4644Z" fill="#5ac8f5"/>
 </g>
</svg>
