<?xml version="1.0" encoding="UTF-8"?>
<!--Generator: Apple Native CoreSVG 175.5-->
<!DOCTYPE svg
PUBLIC "-//W3C//DTD SVG 1.1//EN"
       "http://www.w3.org/Graphics/SVG/1.1/DTD/svg11.dtd">
<svg version="1.1" xmlns="http://www.w3.org/2000/svg" xmlns:xlink="http://www.w3.org/1999/xlink" width="24.9023" height="24.9146">
 <g>
  <rect height="24.9146" opacity="0" width="24.9023" x="0" y="0"/>
  <path d="M12.4512 24.9023C19.2627 24.9023 24.9023 19.2505 24.9023 12.4512C24.9023 5.63965 19.2749 0 12.4634 0C5.66406 0 0 5.63965 0 12.4512C0 19.2505 5.65186 24.9023 12.4512 24.9023ZM12.4634 22.8271C6.70166 22.8271 2.0874 18.2129 2.0874 12.4512C2.0874 6.68945 6.71387 2.0752 12.4756 2.0752C18.2373 2.0752 22.8271 6.68945 22.8271 12.4512C22.8271 18.2129 18.2251 22.8271 12.4634 22.8271ZM4.83398 20.0928C6.93359 22.1924 11.3892 20.5566 15.9668 15.979C20.5566 11.3892 22.1924 6.93359 20.0928 4.83398C17.9443 2.69775 13.5254 4.3335 8.92334 8.93555C4.3335 13.5376 2.68555 17.9443 4.83398 20.0928ZM6.15234 18.7622C4.83398 17.4438 6.48193 14.0381 10.2417 10.2661C14.0503 6.45752 17.4561 4.83398 18.7622 6.15234C20.0806 7.4585 18.4326 10.8521 14.6362 14.6606C10.8643 18.4326 7.4585 20.0806 6.15234 18.7622ZM20.0684 20.0928C22.2046 17.9443 20.5688 13.5376 15.9668 8.92334C11.3892 4.3335 6.95801 2.69775 4.80957 4.83398C2.70996 6.93359 4.35791 11.3892 8.93555 15.9668C13.5254 20.5566 17.9688 22.1802 20.0684 20.0928ZM18.75 18.7622C17.4438 20.0806 14.0381 18.4326 10.2417 14.6362C6.45752 10.8521 4.83398 7.4585 6.14014 6.15234C7.44629 4.83398 10.8521 6.45752 14.6362 10.2539C18.4204 14.0381 20.0806 17.4438 18.75 18.7622ZM21.2158 5.0415L24.3286 1.92871C24.6826 1.5625 24.6826 0.952148 24.3286 0.598145C23.9502 0.219727 23.3521 0.231934 22.9858 0.598145L19.812 3.75977ZM3.75977 19.812L0.598145 22.9858C0.219727 23.3521 0.231934 23.9502 0.598145 24.3164C0.952148 24.6826 1.55029 24.6948 1.92871 24.3286L5.24902 21.0083Z" fill="#5ac8f5"/>
 </g>
</svg>
