<?xml version="1.0" encoding="UTF-8"?>
<!--Generator: Apple Native CoreSVG 175.5-->
<!DOCTYPE svg
PUBLIC "-//W3C//DTD SVG 1.1//EN"
       "http://www.w3.org/Graphics/SVG/1.1/DTD/svg11.dtd">
<svg version="1.1" xmlns="http://www.w3.org/2000/svg" xmlns:xlink="http://www.w3.org/1999/xlink" width="29.5166" height="22.4976">
 <g>
  <rect height="22.4976" opacity="0" width="29.5166" x="0" y="0"/>
  <path d="M10.498 0.0244141C3.22266 0.0244141 0 3.35693 0 10.1929L0 18.7134C0 21.2402 1.28174 22.4976 3.83301 22.4976L25.6836 22.4976C28.2349 22.4976 29.5166 21.228 29.5166 18.7134L29.5166 10.1929C29.5166 3.35693 26.2939 0.0244141 19.0308 0.0244141ZM10.498 2.01416L19.0186 2.01416C24.9512 2.01416 27.5513 4.60205 27.5513 10.083L27.5513 18.6157C27.5513 19.8853 26.8677 20.5322 25.6592 20.5322L3.85742 20.5322C2.63672 20.5322 1.96533 19.8853 1.96533 18.6157L1.96533 10.083C1.96533 4.60205 4.56543 2.01416 10.498 2.01416ZM7.09229 16.7603L14.2456 16.7603C14.7217 16.7603 15.0635 16.4429 15.0635 15.9546C15.0635 15.4541 14.7217 15.1611 14.2456 15.1611L8.76465 15.1611L8.76465 15.0635L14.3677 7.27539C14.6118 6.9458 14.6606 6.78711 14.6606 6.49414C14.6606 5.99365 14.2944 5.62744 13.7695 5.62744L6.99463 5.62744C6.51855 5.62744 6.17676 5.94482 6.17676 6.43311C6.17676 6.93359 6.51855 7.22656 6.99463 7.22656L12.1582 7.22656L12.1582 7.32422L6.54297 15.1001C6.27441 15.4785 6.21338 15.6616 6.21338 15.9302C6.21338 16.4185 6.57959 16.7603 7.09229 16.7603ZM17.9321 16.7603L23.5596 16.7603C24.0234 16.7603 24.3652 16.4551 24.3652 15.9546C24.3652 15.4541 24.0234 15.1611 23.5596 15.1611L18.9209 15.1611L18.9209 6.5918C18.9209 5.9082 18.5791 5.49316 17.9321 5.49316C17.2974 5.49316 16.9678 5.93262 16.9678 6.5918L16.9678 15.6616C16.9678 16.3086 17.3096 16.7603 17.9321 16.7603Z" fill="#5ac8f5"/>
 </g>
</svg>
