<?xml version="1.0" encoding="UTF-8"?>
<!--Generator: Apple Native CoreSVG 175.5-->
<!DOCTYPE svg
PUBLIC "-//W3C//DTD SVG 1.1//EN"
       "http://www.w3.org/Graphics/SVG/1.1/DTD/svg11.dtd">
<svg version="1.1" xmlns="http://www.w3.org/2000/svg" xmlns:xlink="http://www.w3.org/1999/xlink" width="26.8311" height="19.812">
 <g>
  <rect height="19.812" opacity="0" width="26.8311" x="0" y="0"/>
  <path d="M3.83301 19.812L23.0103 19.812C25.5615 19.812 26.8311 18.5425 26.8311 16.0278L26.8311 3.80859C26.8311 1.29395 25.5615 0.0244141 23.0103 0.0244141L3.83301 0.0244141C1.28174 0.0244141 0 1.29395 0 3.80859L0 16.0278C0 18.5425 1.28174 19.812 3.83301 19.812ZM3.85742 17.8467C2.63672 17.8467 1.96533 17.1875 1.96533 15.918L1.96533 3.91846C1.96533 2.64893 2.63672 1.98975 3.85742 1.98975L22.9736 1.98975C24.1821 1.98975 24.8657 2.64893 24.8657 3.91846L24.8657 15.918C24.8657 17.1875 24.1821 17.8467 22.9736 17.8467Z" fill="#5ac8f5" fill-opacity="0.5"/>
  <path d="M8.8501 15.2954C11.0718 15.2954 12.5488 13.855 12.5488 11.7188C12.5488 10.6323 12.1094 9.70459 11.7798 8.97217C11.1938 7.71484 10.2417 6.14014 9.41162 4.8584C9.24072 4.60205 9.06982 4.50439 8.8501 4.50439C8.63037 4.50439 8.45947 4.60205 8.28857 4.8584C7.4707 6.14014 6.51855 7.71484 5.92041 8.97217C5.59082 9.70459 5.13916 10.6323 5.13916 11.7188C5.13916 13.855 6.64062 15.2954 8.8501 15.2954ZM16.4673 7.55615C17.2485 7.55615 17.8955 6.90918 17.8955 6.12793C17.8955 5.34668 17.2485 4.69971 16.4673 4.69971C15.6738 4.69971 15.0391 5.34668 15.0391 6.12793C15.0391 6.90918 15.6738 7.55615 16.4673 7.55615ZM20.6665 7.55615C21.4478 7.55615 22.0947 6.90918 22.0947 6.12793C22.0947 5.34668 21.4478 4.69971 20.6665 4.69971C19.8853 4.69971 19.2383 5.34668 19.2383 6.12793C19.2383 6.90918 19.8853 7.55615 20.6665 7.55615ZM16.4673 11.3281C17.2485 11.3281 17.8955 10.6812 17.8955 9.8999C17.8955 9.11865 17.2485 8.47168 16.4673 8.47168C15.6738 8.47168 15.0391 9.11865 15.0391 9.8999C15.0391 10.6812 15.6738 11.3281 16.4673 11.3281ZM20.6665 11.3281C21.4478 11.3281 22.0947 10.6812 22.0947 9.8999C22.0947 9.11865 21.4478 8.47168 20.6665 8.47168C19.8853 8.47168 19.2383 9.11865 19.2383 9.8999C19.2383 10.6812 19.8853 11.3281 20.6665 11.3281ZM16.4673 15.1001C17.2485 15.1001 17.8955 14.4531 17.8955 13.6719C17.8955 12.8906 17.2485 12.2437 16.4673 12.2437C15.6738 12.2437 15.0391 12.8906 15.0391 13.6719C15.0391 14.4531 15.6738 15.1001 16.4673 15.1001ZM20.6665 15.1001C21.4478 15.1001 22.0947 14.4531 22.0947 13.6719C22.0947 12.8906 21.4478 12.2437 20.6665 12.2437C19.8853 12.2437 19.2383 12.8906 19.2383 13.6719C19.2383 14.4531 19.8853 15.1001 20.6665 15.1001Z" fill="#5ac8f5"/>
 </g>
</svg>
