<?xml version="1.0" encoding="UTF-8"?>
<!--Generator: Apple Native CoreSVG 175.5-->
<!DOCTYPE svg
PUBLIC "-//W3C//DTD SVG 1.1//EN"
       "http://www.w3.org/Graphics/SVG/1.1/DTD/svg11.dtd">
<svg version="1.1" xmlns="http://www.w3.org/2000/svg" xmlns:xlink="http://www.w3.org/1999/xlink" width="28.54" height="22.2534">
 <g>
  <rect height="22.2534" opacity="0" width="28.54" x="0" y="0"/>
  <path d="M6.68945 22.2534C10.4004 22.2534 13.3667 17.7368 13.3667 11.1206C13.3667 4.49219 10.4004 0 6.68945 0C2.96631 0 0 4.49219 0 11.1206C0 17.7368 2.96631 22.2534 6.68945 22.2534ZM6.68945 20.5322C4.01611 20.5444 1.75781 16.7114 1.75781 11.1206C1.75781 5.56641 4.01611 1.74561 6.68945 1.72119C9.38721 1.70898 11.6455 5.52979 11.6455 11.1206C11.6455 16.6748 9.38721 20.5078 6.68945 20.5322ZM4.05273 15.4297C6.09131 15.4297 7.44629 14.0137 7.44629 11.8652C7.44629 9.75342 6.09131 8.3252 4.05273 8.3252C2.00195 8.3252 0.646973 9.75342 0.646973 11.8652C0.646973 14.0137 2.00195 15.4297 4.05273 15.4297ZM3.08838 11.4502C2.64893 11.3892 2.38037 10.8643 2.47803 10.3271C2.58789 9.80225 3.00293 9.41162 3.41797 9.49707C3.85742 9.58252 4.12598 10.083 4.01611 10.6079C3.91846 11.145 3.51562 11.5234 3.08838 11.4502ZM21.8506 22.2534C25.5737 22.2534 28.54 17.7368 28.54 11.1206C28.54 4.49219 25.5737 0 21.8506 0C18.1396 0 15.1733 4.49219 15.1733 11.1206C15.1733 17.7368 18.1396 22.2534 21.8506 22.2534ZM21.8506 20.52C19.165 20.52 16.8945 16.6992 16.8945 11.1206C16.8945 5.56641 19.1528 1.74561 21.8506 1.7334C24.5239 1.7334 26.7944 5.5542 26.7944 11.1206C26.7944 16.687 24.5239 20.5078 21.8506 20.52ZM19.2017 15.4297C21.2402 15.4297 22.6196 14.0137 22.6196 11.8652C22.6196 9.75342 21.2402 8.3252 19.2017 8.3252C17.1631 8.3252 15.7959 9.75342 15.7959 11.8652C15.7959 14.0137 17.1631 15.4297 19.2017 15.4297ZM18.2373 11.4502C17.8101 11.377 17.5293 10.8643 17.6392 10.3271C17.749 9.80225 18.1519 9.41162 18.5791 9.49707C19.0186 9.57031 19.2749 10.083 19.165 10.6079C19.0674 11.145 18.6646 11.5234 18.2373 11.4502Z" fill="#5ac8f5"/>
 </g>
</svg>
