<?xml version="1.0" encoding="UTF-8"?>
<!--Generator: Apple Native CoreSVG 175.5-->
<!DOCTYPE svg
PUBLIC "-//W3C//DTD SVG 1.1//EN"
       "http://www.w3.org/Graphics/SVG/1.1/DTD/svg11.dtd">
<svg version="1.1" xmlns="http://www.w3.org/2000/svg" xmlns:xlink="http://www.w3.org/1999/xlink" width="24.9023" height="24.9146">
 <g>
  <rect height="24.9146" opacity="0" width="24.9023" x="0" y="0"/>
  <path d="M12.4512 24.9023C19.2627 24.9023 24.9023 19.2505 24.9023 12.4512C24.9023 5.63965 19.2505 0 12.439 0C5.63965 0 0 5.63965 0 12.4512C0 19.2505 5.65186 24.9023 12.4512 24.9023ZM12.4512 22.8271C6.68945 22.8271 2.0874 18.2129 2.0874 12.4512C2.0874 6.68945 6.67725 2.0752 12.439 2.0752C18.2007 2.0752 22.8271 6.68945 22.8271 12.4512C22.8271 18.2129 18.2129 22.8271 12.4512 22.8271ZM4.55322 8.80127C4.55322 11.5234 6.92139 14.8804 8.89893 14.8804L9.15527 14.8804C11.1328 14.8804 13.501 11.5234 13.501 8.80127C13.501 7.42188 12.793 6.67725 11.4502 6.67725L10.6445 6.67725L10.6445 8.00781L11.499 8.00781C11.9507 8.00781 12.1582 8.26416 12.1582 8.80127C12.1582 10.8154 10.3638 13.5376 9.0332 13.5376C7.69043 13.5376 5.896 10.8154 5.896 8.80127C5.896 8.25195 6.10352 8.00781 6.55518 8.00781L7.40967 8.00781L7.40967 6.67725L6.604 6.67725C5.27344 6.67725 4.55322 7.42188 4.55322 8.80127ZM11.4746 19.165C13.2935 19.165 14.3188 17.7979 14.8315 14.7827C15.1611 12.8906 15.5884 12.1948 16.3452 12.1948C17.1753 12.1948 17.5903 13.0981 17.6514 15.1855L18.9941 15.1855C18.8599 12.2559 18.0176 10.8643 16.3452 10.8643C14.8071 10.8643 13.9893 11.9263 13.5132 14.502C13.0981 16.8457 12.5977 17.8223 11.4258 17.8223C10.2783 17.8223 9.63135 16.4795 9.68018 14.0869L8.34961 14.0869C8.28857 17.2974 9.42383 19.165 11.4746 19.165ZM7.49512 8.41064C8.08105 8.41064 8.55713 7.92236 8.55713 7.33643C8.55713 6.73828 8.08105 6.26221 7.49512 6.26221C6.90918 6.26221 6.40869 6.75049 6.40869 7.33643C6.40869 7.92236 6.89697 8.41064 7.49512 8.41064ZM10.5591 8.41064C11.1328 8.41064 11.6211 7.92236 11.6211 7.33643C11.6211 6.75049 11.1328 6.26221 10.5591 6.26221C9.96094 6.26221 9.48486 6.73828 9.48486 7.33643C9.48486 7.92236 9.96094 8.41064 10.5591 8.41064ZM18.3472 18.396C19.4824 18.396 20.3979 17.4805 20.3979 16.3574C20.3979 15.2344 19.4702 14.3311 18.3472 14.3311C17.2241 14.3188 16.3208 15.2344 16.3208 16.3574C16.3208 17.4927 17.2119 18.396 18.3472 18.396ZM18.3472 17.1875C17.8955 17.1875 17.5415 16.8091 17.5415 16.3574C17.5415 15.8936 17.8955 15.5396 18.3472 15.5396C18.811 15.5396 19.1772 15.8936 19.1772 16.3574C19.1772 16.8091 18.7988 17.1875 18.3472 17.1875Z" fill="#5ac8f5"/>
 </g>
</svg>
