<?xml version="1.0" encoding="UTF-8"?>
<!--Generator: Apple Native CoreSVG 175.5-->
<!DOCTYPE svg
PUBLIC "-//W3C//DTD SVG 1.1//EN"
       "http://www.w3.org/Graphics/SVG/1.1/DTD/svg11.dtd">
<svg version="1.1" xmlns="http://www.w3.org/2000/svg" xmlns:xlink="http://www.w3.org/1999/xlink" width="22.4731" height="22.4976">
 <g>
  <rect height="22.4976" opacity="0" width="22.4731" x="0" y="0"/>
  <path d="M3.83301 22.4976L18.6401 22.4976C21.2036 22.4976 22.4731 21.228 22.4731 18.7134L22.4731 3.80859C22.4731 1.29395 21.2036 0.0244141 18.6401 0.0244141L3.83301 0.0244141C1.28174 0.0244141 0 1.28174 0 3.80859L0 18.7134C0 21.2402 1.28174 22.4976 3.83301 22.4976ZM3.85742 20.5322C2.63672 20.5322 1.96533 19.8853 1.96533 18.6157L1.96533 3.90625C1.96533 2.63672 2.63672 1.98975 3.85742 1.98975L18.6157 1.98975C19.8242 1.98975 20.5078 2.63672 20.5078 3.90625L20.5078 18.6157C20.5078 19.8853 19.8242 20.5322 18.6157 20.5322ZM7.75146 16.3574C8.22754 16.3574 8.52051 16.0522 8.52051 15.5762L8.52051 6.93359C8.52051 6.4209 8.17871 6.05469 7.66602 6.05469C7.26318 6.05469 7.03125 6.17676 6.604 6.46973L4.74854 7.73926C4.47998 7.92236 4.3335 8.14209 4.3335 8.45947C4.3335 8.87451 4.67529 9.19189 5.0293 9.19189C5.22461 9.19189 5.34668 9.17969 5.62744 8.95996L6.93359 7.99561L6.99463 7.99561L6.99463 15.5762C6.99463 16.0522 7.2998 16.3574 7.75146 16.3574ZM14.3799 16.5039C16.5039 16.5039 17.9565 15.2832 17.9565 13.5132C17.9565 12.2681 17.1875 11.2549 15.8813 10.9863L15.8813 10.9131C17.0044 10.6079 17.5903 9.729 17.5903 8.66699C17.5903 7.08008 16.272 5.98145 14.4043 5.98145C12.5366 5.98145 11.2183 7.08008 11.2183 8.66699C11.2183 9.729 11.792 10.5835 12.9272 10.9131L12.9272 10.9863C11.6089 11.2549 10.8521 12.2803 10.8521 13.5254C10.8521 15.3076 12.2681 16.5039 14.3799 16.5039ZM14.4165 15.2344C13.2568 15.2344 12.4146 14.4897 12.4146 13.4155C12.4146 12.3657 13.2568 11.5967 14.4165 11.5967C15.6006 11.5967 16.4185 12.3535 16.4185 13.4155C16.4185 14.4897 15.5762 15.2344 14.4165 15.2344ZM14.4043 10.4248C13.4521 10.4248 12.7808 9.74121 12.7808 8.81348C12.7808 7.88574 13.4521 7.25098 14.4043 7.25098C15.3687 7.25098 16.04 7.88574 16.04 8.81348C16.04 9.74121 15.3564 10.4248 14.4043 10.4248Z" fill="#5ac8f5"/>
 </g>
</svg>
