<?xml version="1.0" encoding="UTF-8"?>
<!--Generator: Apple Native CoreSVG 175.5-->
<!DOCTYPE svg
PUBLIC "-//W3C//DTD SVG 1.1//EN"
       "http://www.w3.org/Graphics/SVG/1.1/DTD/svg11.dtd">
<svg version="1.1" xmlns="http://www.w3.org/2000/svg" xmlns:xlink="http://www.w3.org/1999/xlink" width="32.2876" height="24.9327">
 <g>
  <rect height="24.9327" opacity="0" width="32.2876" x="0" y="0"/>
  <path d="M8.61816 23.4954L31.3599 23.4954C31.8726 23.4954 32.2876 23.0926 32.2876 22.5799C32.2876 22.0672 31.8726 21.6521 31.3599 21.6521L8.61816 21.6521C8.10547 21.6521 7.70264 22.0672 7.70264 22.5799C7.70264 23.0926 8.10547 23.4954 8.61816 23.4954ZM8.61816 17.2332L31.3599 17.2332C31.8726 17.2332 32.2876 16.8182 32.2876 16.3055C32.2876 15.7928 31.8726 15.3899 31.3599 15.3899L8.61816 15.3899C8.10547 15.3899 7.70264 15.7928 7.70264 16.3055C7.70264 16.8182 8.10547 17.2332 8.61816 17.2332ZM8.61816 10.9588L31.3599 10.9588C31.8726 10.9588 32.2876 10.556 32.2876 10.0311C32.2876 9.51836 31.8726 9.11552 31.3599 9.11552L8.61816 9.11552C8.10547 9.11552 7.70264 9.51836 7.70264 10.0311C7.70264 10.556 8.10547 10.9588 8.61816 10.9588Z" fill="#5ac8f5" fill-opacity="0.5"/>
  <path d="M9.24072 5.36797L30.7495 5.36797C31.7749 5.36797 32.2876 4.86748 32.2876 3.84209L32.2876 2.93877C32.2876 1.92558 31.7749 1.41289 30.7495 1.41289L9.24072 1.41289C8.21533 1.41289 7.70264 1.92558 7.70264 2.93877L7.70264 3.84209C7.70264 4.86748 8.21533 5.36797 9.24072 5.36797ZM1.28174 6.61308L5.35889 4.13506C5.99365 3.75664 6.00586 3.02422 5.35889 2.6458L1.28174 0.167771C0.622559-0.222854 0 0.0945288 0 0.851365L0 5.92949C0 6.69853 0.634766 7.00371 1.28174 6.61308Z" fill="#5ac8f5"/>
 </g>
</svg>
