<?xml version="1.0" encoding="UTF-8"?>
<!--Generator: Apple Native CoreSVG 175.5-->
<!DOCTYPE svg
PUBLIC "-//W3C//DTD SVG 1.1//EN"
       "http://www.w3.org/Graphics/SVG/1.1/DTD/svg11.dtd">
<svg version="1.1" xmlns="http://www.w3.org/2000/svg" xmlns:xlink="http://www.w3.org/1999/xlink" width="19.812" height="22.7661">
 <g>
  <rect height="22.7661" opacity="0" width="19.812" x="0" y="0"/>
  <path d="M0 21.7285C0 22.3022 0.463867 22.7661 1.0376 22.7661C1.62354 22.7661 2.0874 22.3022 2.0874 21.7285L2.0874 2.89307L7.65381 2.89307C10.5469 2.89307 11.8164 3.73535 11.8164 6.89697L11.8164 15.2588C11.8164 15.8325 12.2925 16.2964 12.8662 16.2964C13.4399 16.2964 13.9038 15.8325 13.9038 15.2588L13.9038 6.49414C13.9038 2.34375 12.0605 0.57373 8.36182 0.57373L1.47705 0.57373C0.585938 0.57373 0 1.17188 0 2.0752ZM5.9082 20.9717C5.9082 21.8628 6.49414 22.4731 7.38525 22.4731L14.3921 22.4731C18.2251 22.4731 19.812 20.6055 19.812 16.1255L19.812 1.31836C19.812 0.744629 19.3359 0.280762 18.7622 0.280762C18.1885 0.280762 17.7246 0.744629 17.7246 1.31836L17.7246 16.1377C17.7246 19.5068 16.7847 20.1538 13.8184 20.1538L7.99561 20.1538L7.99561 7.73926C7.99561 7.16553 7.51953 6.70166 6.9458 6.70166C6.37207 6.70166 5.9082 7.16553 5.9082 7.73926Z" fill="#5ac8f5"/>
 </g>
</svg>
