<?xml version="1.0" encoding="UTF-8"?>
<!--Generator: Apple Native CoreSVG 175.5-->
<!DOCTYPE svg
PUBLIC "-//W3C//DTD SVG 1.1//EN"
       "http://www.w3.org/Graphics/SVG/1.1/DTD/svg11.dtd">
<svg version="1.1" xmlns="http://www.w3.org/2000/svg" xmlns:xlink="http://www.w3.org/1999/xlink" width="30.6763" height="16.9312">
 <g>
  <rect height="16.9312" opacity="0" width="30.6763" x="0" y="0"/>
  <path d="M1.07422 16.4307L4.98047 16.4307C5.57861 16.4307 6.0791 15.9302 6.0791 15.3442C6.0791 14.7705 5.56641 14.27 4.98047 14.27L1.07422 14.27C0.500488 14.27 0 14.7705 0 15.3442C0 15.918 0.500488 16.4307 1.07422 16.4307ZM8.66699 8.69141C9.08203 8.27637 9.06982 7.59277 8.65479 7.17773L5.92041 4.39453C5.50537 3.9917 4.79736 3.9917 4.39453 4.39453C3.97949 4.80957 3.97949 5.49316 4.39453 5.92041L7.14111 8.70361C7.54395 9.11865 8.25195 9.11865 8.66699 8.69141ZM15.3442 6.05469C15.918 6.05469 16.4185 5.56641 16.4185 4.99268L16.4185 1.08643C16.4185 0.500488 15.918 0 15.3442 0C14.7583 0 14.2578 0.500488 14.2578 1.08643L14.2578 4.99268C14.2578 5.56641 14.7583 6.05469 15.3442 6.05469ZM22.0215 8.69141C22.4243 9.11865 23.1323 9.11865 23.5352 8.69141L26.2939 5.92041C26.709 5.49316 26.709 4.80957 26.2939 4.39453C25.8789 3.97949 25.1709 3.9917 24.7681 4.40674L22.0215 7.17773C21.5942 7.59277 21.5942 8.27637 22.0215 8.69141ZM25.6958 16.4307L29.6143 16.4307C30.188 16.4307 30.6763 15.918 30.6763 15.3442C30.6763 14.7705 30.188 14.27 29.6143 14.27L25.6958 14.27C25.1099 14.27 24.6094 14.7705 24.6094 15.3442C24.6094 15.9302 25.0977 16.4307 25.6958 16.4307Z" fill="#5ac8f5" fill-opacity="0.5"/>
  <path d="M10.6934 16.4429L19.9951 16.4429C20.5933 16.4429 21.0938 15.9424 21.0938 15.3687C21.0938 14.7827 20.6055 14.2822 19.9951 14.2822L10.6934 14.2822C10.083 14.2822 9.58252 14.7827 9.58252 15.3687C9.58252 15.9424 10.0952 16.4429 10.6934 16.4429Z" fill="#5ac8f5"/>
 </g>
</svg>
