<?xml version="1.0" encoding="UTF-8"?>
<!--Generator: Apple Native CoreSVG 175.5-->
<!DOCTYPE svg
PUBLIC "-//W3C//DTD SVG 1.1//EN"
       "http://www.w3.org/Graphics/SVG/1.1/DTD/svg11.dtd">
<svg version="1.1" xmlns="http://www.w3.org/2000/svg" xmlns:xlink="http://www.w3.org/1999/xlink" width="24.9023" height="24.9146">
 <g>
  <rect height="24.9146" opacity="0" width="24.9023" x="0" y="0"/>
  <path d="M12.4512 24.9023C19.2627 24.9023 24.9023 19.2505 24.9023 12.4512C24.9023 5.63965 19.2505 0 12.439 0C5.63965 0 0 5.63965 0 12.4512C0 19.2505 5.65186 24.9023 12.4512 24.9023ZM12.6587 19.8853C12.3169 19.8853 12.0483 19.6289 12.0483 19.2627L12.0483 18.4204L10.1562 18.4204C9.57031 18.4204 9.16748 18.0176 9.16748 17.4316L9.16748 7.70264C9.16748 7.10449 9.58252 6.70166 10.1562 6.70166L12.0483 6.70166L12.0483 5.74951C12.0483 5.39551 12.3169 5.13916 12.6587 5.13916C13.0127 5.13916 13.269 5.39551 13.269 5.74951L13.269 6.70166L13.4399 6.70166C15.3809 6.70166 16.687 7.95898 16.687 9.70459C16.687 10.7788 16.0278 11.7676 15.1123 12.2192C16.4185 12.6099 17.2607 13.6719 17.2607 15.1001C17.2607 17.1387 15.7837 18.4204 13.4399 18.4204L13.269 18.4204L13.269 19.2627C13.269 19.6289 13.0127 19.8853 12.6587 19.8853ZM10.791 16.9434L12.0483 16.9312L12.0483 13.1226L10.791 13.1226ZM13.269 16.9189C14.856 16.8579 15.6494 16.2109 15.6494 15.0269C15.6494 13.8672 14.856 13.2202 13.269 13.1348ZM10.7788 11.6577L12.0483 11.6577L12.0483 8.1665L10.791 8.1665ZM13.269 11.5845C14.4653 11.4258 15.0635 10.8154 15.0635 9.82666C15.0635 8.8623 14.4409 8.30078 13.269 8.20312Z" fill="#5ac8f5"/>
 </g>
</svg>
