<?xml version="1.0" encoding="UTF-8"?>
<!--Generator: Apple Native CoreSVG 175.5-->
<!DOCTYPE svg
PUBLIC "-//W3C//DTD SVG 1.1//EN"
       "http://www.w3.org/Graphics/SVG/1.1/DTD/svg11.dtd">
<svg version="1.1" xmlns="http://www.w3.org/2000/svg" xmlns:xlink="http://www.w3.org/1999/xlink" width="24.9023" height="24.9146">
 <g>
  <rect height="24.9146" opacity="0" width="24.9023" x="0" y="0"/>
  <path d="M12.4512 24.9023C19.2627 24.9023 24.9023 19.2505 24.9023 12.4512C24.9023 5.63965 19.2505 0 12.439 0C5.63965 0 0 5.63965 0 12.4512C0 19.2505 5.65186 24.9023 12.4512 24.9023ZM12.4512 22.8271C6.68945 22.8271 2.0874 18.2129 2.0874 12.4512C2.0874 6.68945 6.67725 2.0752 12.439 2.0752C18.2007 2.0752 22.8271 6.68945 22.8271 12.4512C22.8271 18.2129 18.2129 22.8271 12.4512 22.8271Z" fill="#5ac8f5" fill-opacity="0.5"/>
  <path d="M12.1338 18.2617C15.0879 18.2617 16.687 16.1499 16.687 12.0605C16.687 8.54492 15.0879 6.64062 12.3535 6.64062C9.82666 6.64062 8.20312 8.1665 8.20312 10.5347C8.20312 12.8296 9.94873 14.1357 11.853 14.1357C13.4766 14.1357 14.4287 13.3301 14.8193 12.4268L14.917 12.4268C14.9414 15.1123 13.8062 16.7114 12.1094 16.7114C11.2793 16.7114 10.7056 16.3574 10.2051 15.6738C9.99756 15.3931 9.75342 15.1855 9.375 15.1855C8.89893 15.1855 8.55713 15.5029 8.55713 15.979C8.55713 16.1133 8.59375 16.2476 8.64258 16.394C8.92334 17.2363 10.0708 18.2617 12.1338 18.2617ZM12.4268 12.7563C11.0474 12.7563 10.083 11.792 10.083 10.4492C10.083 9.0332 11.0229 8.09326 12.4268 8.09326C13.7695 8.09326 14.7583 9.09424 14.7583 10.4736C14.7583 11.792 13.7939 12.7563 12.4268 12.7563Z" fill="#5ac8f5"/>
 </g>
</svg>
