<?xml version="1.0" encoding="UTF-8"?>
<!--Generator: Apple Native CoreSVG 175.5-->
<!DOCTYPE svg
PUBLIC "-//W3C//DTD SVG 1.1//EN"
       "http://www.w3.org/Graphics/SVG/1.1/DTD/svg11.dtd">
<svg version="1.1" xmlns="http://www.w3.org/2000/svg" xmlns:xlink="http://www.w3.org/1999/xlink" width="25.8545" height="15.7349">
 <g>
  <rect height="15.7349" opacity="0" width="25.8545" x="0" y="0"/>
  <path d="M3.17383 15.7104L22.6685 15.7104C24.5728 15.7104 25.8545 14.3677 25.8545 12.3779L25.8545 3.32031C25.8545 1.33057 24.585 0 22.6807 0L3.18604 0C1.28174 0 0 1.33057 0 3.32031L0 12.3779C0 14.3677 1.26953 15.7104 3.17383 15.7104ZM3.49121 13.7451C2.51465 13.7451 1.96533 13.1592 1.96533 12.1338L1.96533 3.57666C1.96533 2.55127 2.51465 1.96533 3.49121 1.96533L22.3633 1.96533C23.3398 1.96533 23.8892 2.55127 23.8892 3.57666L23.8892 12.1338C23.8892 13.1592 23.3398 13.7451 22.3511 13.7451ZM5.41992 10.1685L10.8154 10.1685C11.4746 10.1685 11.9019 9.74121 11.9019 9.05762L11.9019 6.62842C11.9019 5.95703 11.4746 5.51758 10.8154 5.51758L5.41992 5.51758C4.77295 5.51758 4.3335 5.95703 4.3335 6.62842L4.3335 9.05762C4.3335 9.74121 4.77295 10.1685 5.41992 10.1685ZM15.0391 10.1685L20.4346 10.1685C21.0815 10.1685 21.521 9.74121 21.521 9.05762L21.521 6.62842C21.521 5.95703 21.0815 5.51758 20.4346 5.51758L15.0391 5.51758C14.3921 5.51758 13.9526 5.95703 13.9526 6.62842L13.9526 9.05762C13.9526 9.74121 14.3921 10.1685 15.0391 10.1685Z" fill="#5ac8f5"/>
 </g>
</svg>
