<?xml version="1.0" encoding="UTF-8"?>
<!--Generator: Apple Native CoreSVG 175.5-->
<!DOCTYPE svg
PUBLIC "-//W3C//DTD SVG 1.1//EN"
       "http://www.w3.org/Graphics/SVG/1.1/DTD/svg11.dtd">
<svg version="1.1" xmlns="http://www.w3.org/2000/svg" xmlns:xlink="http://www.w3.org/1999/xlink" width="19.4214" height="19.9341">
 <g>
  <rect height="19.9341" opacity="0" width="19.4214" x="0" y="0"/>
  <path d="M19.4214 1.48926C19.4214 0.585938 18.7256 0.0244141 17.6636 0.0244141L1.74561 0.012207C0.683594 0.012207 0 0.57373 0 1.47705C0 1.96533 0.219727 2.36816 0.463867 2.88086L8.08105 18.5669C8.59375 19.6045 9.05762 19.9341 9.70459 19.9341C10.3516 19.9341 10.8276 19.6045 11.3403 18.5669L18.9453 2.88086C19.2017 2.38037 19.4214 1.97754 19.4214 1.48926ZM17.0898 2.11182C17.0898 2.16064 17.0654 2.20947 17.041 2.27051L9.85107 17.1997C9.81445 17.2607 9.77783 17.3096 9.70459 17.3096C9.64355 17.3096 9.60693 17.2607 9.57031 17.1997L2.38037 2.2583C2.35596 2.19727 2.33154 2.14844 2.33154 2.09961C2.33154 2.02637 2.36816 1.97754 2.46582 1.97754L16.9434 1.98975C17.041 1.98975 17.0898 2.03857 17.0898 2.11182Z" fill="#5ac8f5"/>
 </g>
</svg>
