<?xml version="1.0" encoding="UTF-8"?>
<!--Generator: Apple Native CoreSVG 175.5-->
<!DOCTYPE svg
PUBLIC "-//W3C//DTD SVG 1.1//EN"
       "http://www.w3.org/Graphics/SVG/1.1/DTD/svg11.dtd">
<svg version="1.1" xmlns="http://www.w3.org/2000/svg" xmlns:xlink="http://www.w3.org/1999/xlink" width="29.8584" height="13.2446">
 <g>
  <rect height="13.2446" opacity="0" width="29.8584" x="0" y="0"/>
  <path d="M29.8584 3.2959C29.8584 1.13525 28.7354 0.012207 26.5503 0.012207L3.30811 0.012207C1.12305 0.012207 0 1.12305 0 3.2959L0 9.96094C0 12.1216 1.13525 13.2446 3.32031 13.2446L26.5503 13.2446C28.7476 13.2446 29.8584 12.1216 29.8584 9.96094ZM3.62549 2.02637L3.62549 7.71484C3.62549 7.99561 3.43018 8.21533 3.13721 8.21533C2.85645 8.21533 2.63672 8.00781 2.63672 7.72705L2.63672 2.02637ZM5.99365 2.02637L5.99365 5.56641C5.99365 5.85938 5.79834 6.06689 5.49316 6.06689C5.22461 6.06689 5.00488 5.87158 5.00488 5.57861L5.00488 2.02637ZM8.36182 2.02637L8.36182 5.56641C8.36182 5.85938 8.1543 6.06689 7.86133 6.06689C7.59277 6.06689 7.37305 5.87158 7.37305 5.57861L7.37305 2.02637ZM10.7056 2.02637L10.7056 5.56641C10.7056 5.85938 10.5103 6.06689 10.2173 6.06689C9.93652 6.06689 9.7168 5.87158 9.7168 5.57861L9.7168 2.02637ZM13.0737 2.02637L13.0737 5.56641C13.0737 5.85938 12.8784 6.06689 12.5732 6.06689C12.3047 6.06689 12.085 5.87158 12.085 5.57861L12.085 2.02637ZM15.4297 2.02637L15.4297 7.71484C15.4297 7.99561 15.2344 8.21533 14.9292 8.21533C14.6606 8.21533 14.4409 8.00781 14.4409 7.72705L14.4409 2.02637ZM17.7979 2.02637L17.7979 5.56641C17.7979 5.85938 17.5903 6.06689 17.2974 6.06689C17.0288 6.06689 16.8091 5.87158 16.8091 5.57861L16.8091 2.02637ZM20.1538 2.02637L20.1538 5.56641C20.1538 5.85938 19.9585 6.06689 19.6655 6.06689C19.3848 6.06689 19.165 5.87158 19.165 5.57861L19.165 2.02637ZM22.5098 2.02637L22.5098 5.56641C22.5098 5.85938 22.3145 6.06689 22.0093 6.06689C21.7407 6.06689 21.521 5.87158 21.521 5.57861L21.521 2.02637ZM24.8779 2.02637L24.8779 5.56641C24.8779 5.85938 24.6704 6.06689 24.3774 6.06689C24.1089 6.06689 23.8892 5.87158 23.8892 5.57861L23.8892 2.02637ZM27.2217 2.02637L27.2217 7.71484C27.2217 7.99561 27.0264 8.21533 26.7334 8.21533C26.4526 8.21533 26.2329 8.00781 26.2329 7.72705L26.2329 2.02637Z" fill="#5ac8f5"/>
 </g>
</svg>
