<?xml version="1.0" encoding="UTF-8"?>
<!--Generator: Apple Native CoreSVG 175.5-->
<!DOCTYPE svg
PUBLIC "-//W3C//DTD SVG 1.1//EN"
       "http://www.w3.org/Graphics/SVG/1.1/DTD/svg11.dtd">
<svg version="1.1" xmlns="http://www.w3.org/2000/svg" xmlns:xlink="http://www.w3.org/1999/xlink" width="17.5173" height="28.5002">
 <g>
  <rect height="28.5002" opacity="0" width="17.5173" x="0" y="0"/>
  <path d="M9.32617 25.3768C13.3423 25.3768 16.2354 23.387 17.3096 20.3963C17.4438 20.0301 17.5049 19.6639 17.5171 19.2855C17.5293 18.6507 17.1021 18.2113 16.4429 18.2113C15.8081 18.2113 15.4907 18.5653 15.2832 19.2C14.5996 21.617 12.2925 23.2406 9.33838 23.2406C5.16357 23.2406 2.45361 19.7616 2.45361 14.2074C2.45361 8.73861 5.17578 5.30843 9.32617 5.30843C12.1216 5.30843 14.4409 7.02962 15.1245 9.43441C15.3442 10.1424 15.6494 10.4232 16.2842 10.4232C16.9434 10.4232 17.3706 9.98372 17.3584 9.33675C17.3462 8.97054 17.2852 8.62874 17.1631 8.28695C16.0522 5.19857 12.9883 3.1722 9.32617 3.1722C3.69873 3.1722 0 7.45687 0 14.2074C0 21.0433 3.67432 25.3768 9.32617 25.3768ZM7.42188 27.452C7.1167 28.6361 8.74023 28.8924 9.00879 27.8304L15.686 1.6097C15.9668 0.49886 14.3677 0.144856 14.0869 1.23128ZM2.70996 27.3543C2.40479 28.5384 4.02832 28.7948 4.29688 27.7327L10.9741 1.51204C11.2549 0.401204 9.64355 0.0472001 9.375 1.13363Z" fill="#5ac8f5"/>
 </g>
</svg>
