<?xml version="1.0" encoding="UTF-8"?>
<!--Generator: Apple Native CoreSVG 175.5-->
<!DOCTYPE svg
PUBLIC "-//W3C//DTD SVG 1.1//EN"
       "http://www.w3.org/Graphics/SVG/1.1/DTD/svg11.dtd">
<svg version="1.1" xmlns="http://www.w3.org/2000/svg" xmlns:xlink="http://www.w3.org/1999/xlink" width="24.9023" height="24.9146">
 <g>
  <rect height="24.9146" opacity="0" width="24.9023" x="0" y="0"/>
  <path d="M12.4512 24.9023C19.2627 24.9023 24.9023 19.2505 24.9023 12.4512C24.9023 5.63965 19.2505 0 12.439 0C5.63965 0 0 5.63965 0 12.4512C0 19.2505 5.65186 24.9023 12.4512 24.9023ZM12.4512 22.8271C6.68945 22.8271 2.0874 18.2129 2.0874 12.4512C2.0874 6.68945 6.67725 2.0752 12.439 2.0752C18.2007 2.0752 22.8271 6.68945 22.8271 12.4512C22.8271 18.2129 18.2129 22.8271 12.4512 22.8271Z" fill="#5ac8f5" fill-opacity="0.5"/>
  <path d="M6.93359 15.7227L7.4585 19.1528C7.51953 19.5068 7.69043 19.7144 8.02002 19.7144C8.34961 19.7144 8.59375 19.4702 8.53271 19.0674L8.05664 15.9058C7.99561 15.5273 8.11768 15.3687 8.55713 15.2466C8.71582 15.1978 8.87451 15.1611 9.04541 15.1123C8.95996 15.3442 8.92334 15.6006 8.92334 15.918C8.92334 18.0786 10.5591 20.1172 12.4512 20.1172C14.3433 20.1172 15.979 18.0786 15.979 15.918C15.979 15.6006 15.9424 15.3442 15.8569 15.1123C16.0156 15.1611 16.1743 15.1978 16.3452 15.2466C16.7847 15.3687 16.8945 15.5273 16.8457 15.9058L16.3574 19.0674C16.2964 19.4702 16.5405 19.7144 16.8823 19.7144C17.2119 19.7144 17.3828 19.5068 17.4316 19.1528L17.9688 15.7227C18.103 14.9414 17.7734 14.5142 16.9189 14.2944L14.0381 13.6108C14.2456 13.5254 14.502 13.2446 14.6118 12.8662L16.5161 12.5977C17.3462 12.4756 17.7368 12.0117 17.7368 11.1816L17.7368 8.88672C17.7368 8.55713 17.5415 8.34961 17.1875 8.34961C16.8579 8.34961 16.6626 8.55713 16.6626 8.88672L16.6626 10.9741C16.6626 11.4258 16.4185 11.5601 16.0034 11.6211L14.5874 11.8286C14.5264 11.6089 14.3921 11.4136 14.2578 11.3037C15.3442 11.084 15.8936 10.4126 15.8936 9.38721C15.8936 8.55713 15.6006 7.78809 15.0879 7.18994L15.1245 7.15332C15.7715 6.68945 15.9058 5.98145 15.4663 5.23682L15.0879 4.60205C14.9536 4.37012 14.8071 4.26025 14.5752 4.26025C14.2944 4.26025 14.0747 4.46777 14.0747 4.74854C14.0747 4.87061 14.0991 4.95605 14.1724 5.07812L14.5142 5.59082C14.6973 5.9082 14.7705 6.17676 14.5264 6.37207L14.3677 6.50635C13.7939 6.14014 13.0737 5.92041 12.4512 5.92041C11.8164 5.92041 11.0962 6.14014 10.5225 6.50635L10.3638 6.37207C10.1318 6.17676 10.2051 5.9082 10.3882 5.59082L10.7178 5.07812C10.8032 4.95605 10.8154 4.87061 10.8154 4.74854C10.8154 4.46777 10.6079 4.26025 10.3149 4.26025C10.0952 4.26025 9.92432 4.35791 9.80225 4.60205L9.42383 5.23682C9.00879 5.99365 9.11865 6.68945 9.77783 7.15332L9.80225 7.18994C9.28955 7.78809 8.99658 8.55713 8.99658 9.38721C8.99658 10.4004 9.55811 11.084 10.6445 11.2915C10.5103 11.4014 10.3638 11.6089 10.3149 11.8286L8.88672 11.6211C8.48389 11.5723 8.22754 11.4258 8.22754 10.9741L8.22754 8.88672C8.22754 8.55713 8.04443 8.34961 7.70264 8.34961C7.36084 8.34961 7.16553 8.55713 7.16553 8.88672L7.16553 11.1816C7.16553 12.0117 7.54395 12.4756 8.38623 12.5977L10.2905 12.8662C10.3882 13.2446 10.6445 13.5132 10.8643 13.6108L7.9834 14.2944C7.12891 14.502 6.79932 14.9414 6.93359 15.7227Z" fill="#5ac8f5"/>
 </g>
</svg>
