<?xml version="1.0" encoding="UTF-8"?>
<!--Generator: Apple Native CoreSVG 175.5-->
<!DOCTYPE svg
PUBLIC "-//W3C//DTD SVG 1.1//EN"
       "http://www.w3.org/Graphics/SVG/1.1/DTD/svg11.dtd">
<svg version="1.1" xmlns="http://www.w3.org/2000/svg" xmlns:xlink="http://www.w3.org/1999/xlink" width="18.9697" height="26.1841">
 <g>
  <rect height="26.1841" opacity="0" width="18.9697" x="0" y="0"/>
  <path d="M0 22.3511C0 24.9023 1.25732 26.1719 3.78418 26.1719L15.1978 26.1719C17.7124 26.1719 18.9697 24.9023 18.9697 22.3511L18.9697 3.83301C18.9697 1.29395 17.7124 0 15.1978 0L3.78418 0C1.25732 0 0 1.29395 0 3.83301ZM6.35986 4.22363C5.9082 4.22363 5.52979 3.85742 5.52979 3.40576C5.52979 2.9541 5.9082 2.58789 6.35986 2.58789L12.6099 2.58789C13.0737 2.58789 13.4399 2.9541 13.4399 3.40576C13.4399 3.85742 13.0737 4.22363 12.6099 4.22363Z" fill="#5ac8f5"/>
 </g>
</svg>
