<?xml version="1.0" encoding="UTF-8"?>
<!--Generator: Apple Native CoreSVG 175.5-->
<!DOCTYPE svg
PUBLIC "-//W3C//DTD SVG 1.1//EN"
       "http://www.w3.org/Graphics/SVG/1.1/DTD/svg11.dtd">
<svg version="1.1" xmlns="http://www.w3.org/2000/svg" xmlns:xlink="http://www.w3.org/1999/xlink" width="24.9146" height="26.8188">
 <g>
  <rect height="26.8188" opacity="0" width="24.9146" x="0" y="0"/>
  <path d="M17.1875 0C12.8784 0 9.48486 3.13721 9.48486 7.12891C9.48486 11.5479 12.1338 12.6465 12.8662 20.2759C12.9028 20.7031 13.1348 20.9717 13.5864 20.9717L20.8008 20.9717C21.2524 20.9717 21.4844 20.7031 21.521 20.2759C22.2534 12.6465 24.9146 11.5479 24.9146 7.12891C24.9146 3.13721 21.5088 0 17.1875 0ZM17.1875 1.79443C20.3979 1.79443 23.1201 4.04053 23.1201 7.12891C23.1201 10.4126 20.9473 11.1572 19.8853 19.1772L14.502 19.1772C13.4399 11.1572 11.2793 10.4126 11.2793 7.12891C11.2793 4.04053 13.9893 1.79443 17.1875 1.79443ZM13.562 23.4619L20.8374 23.4619C21.228 23.4619 21.5454 23.1689 21.5454 22.7661C21.5454 22.3633 21.228 22.0703 20.8374 22.0703L13.562 22.0703C13.1592 22.0703 12.8662 22.3633 12.8662 22.7661C12.8662 23.1689 13.1592 23.4619 13.562 23.4619ZM17.1997 26.8066C18.9941 26.8066 20.5078 25.9033 20.6055 24.5605L13.7939 24.5605C13.8672 25.9033 15.3931 26.8066 17.1997 26.8066ZM3.61328 19.9829L9.77783 19.9829C10.2295 19.9829 10.4492 19.7021 10.4858 19.3115C10.7788 16.2842 11.4502 14.4897 12.0605 13.0005L10.9741 10.8765C10.4004 12.3169 9.50928 14.0503 8.92334 18.2739L4.45557 18.2739C3.54004 11.3525 1.72119 10.8276 1.72119 8.02002C1.72119 5.41992 3.97949 3.52783 6.68945 3.52783C8.21533 3.52783 9.59473 4.12598 10.4736 5.12695L11.2671 3.479C10.083 2.44141 8.47168 1.80664 6.68945 1.80664C2.96631 1.80664 0 4.54102 0 8.02002C0 11.8774 2.27051 12.8296 2.90527 19.3115C2.92969 19.7021 3.16162 19.9829 3.61328 19.9829ZM3.57666 22.3022L9.81445 22.3022C10.2051 22.3022 10.5225 22.0093 10.5225 21.6187C10.5225 21.2158 10.2051 20.9229 9.81445 20.9229L3.57666 20.9229C3.18604 20.9229 2.89307 21.228 2.89307 21.6187C2.89307 21.9971 3.18604 22.3022 3.57666 22.3022ZM6.70166 25.354C8.31299 25.354 9.70459 24.4873 9.729 23.2422L3.68652 23.2422C3.71094 24.4873 5.07812 25.354 6.70166 25.354Z" fill="#5ac8f5"/>
 </g>
</svg>
