<?xml version="1.0" encoding="UTF-8"?>
<!--Generator: Apple Native CoreSVG 175.5-->
<!DOCTYPE svg
PUBLIC "-//W3C//DTD SVG 1.1//EN"
       "http://www.w3.org/Graphics/SVG/1.1/DTD/svg11.dtd">
<svg version="1.1" xmlns="http://www.w3.org/2000/svg" xmlns:xlink="http://www.w3.org/1999/xlink" width="24.9023" height="24.9146">
 <g>
  <rect height="24.9146" opacity="0" width="24.9023" x="0" y="0"/>
  <path d="M12.4512 24.9023C19.2627 24.9023 24.9023 19.2505 24.9023 12.4512C24.9023 5.63965 19.2505 0 12.439 0C5.63965 0 0 5.63965 0 12.4512C0 19.2505 5.65186 24.9023 12.4512 24.9023Z" fill="#5ac8f5" fill-opacity="0.25"/>
  <path d="M7.14111 18.1396C6.65283 18.1396 6.31104 17.8101 6.31104 17.3218L6.31104 7.84912C6.31104 7.16553 6.65283 6.70166 7.27539 6.70166L9.31396 6.70166C11.438 6.70166 12.439 7.86133 12.439 9.8877C12.439 11.2061 11.8774 12.5366 10.8154 12.9395L12.4512 17.0044C12.7319 17.7368 12.1948 18.1396 11.6455 18.1396C11.3281 18.1396 11.0229 17.9932 10.8887 17.627L9.21631 13.2568C9.11865 13.269 9.04541 13.269 8.95996 13.269L7.97119 13.269L7.97119 17.3218C7.97119 17.8101 7.62939 18.1396 7.14111 18.1396ZM7.97119 11.9873L9.13086 11.9873C10.2661 11.9873 10.7544 11.145 10.7544 9.94873C10.7544 8.76465 10.2417 8.04443 9.11865 8.04443L7.97119 8.04443ZM16.5649 18.9941C16.272 18.9941 16.04 18.75 16.04 18.457L16.04 17.6025C14.5752 17.4316 13.6719 16.5039 13.4888 15.1978C13.3911 14.5508 13.7939 14.1846 14.2334 14.1846C14.5752 14.1846 14.8682 14.4043 14.917 14.8193C14.9902 15.5762 15.3442 16.0889 16.04 16.2231L16.04 13.0005L15.6006 12.7808C14.2822 12.0972 13.4888 11.2427 13.4888 9.87549C13.4888 8.39844 14.5386 7.37305 16.04 7.21436L16.04 6.38428C16.04 6.10352 16.272 5.85938 16.5649 5.85938C16.8457 5.85938 17.0898 6.10352 17.0898 6.38428L17.0898 7.22656C18.457 7.43408 19.2871 8.37402 19.4336 9.59473C19.5435 10.3027 19.1162 10.6201 18.6768 10.6201C18.335 10.6201 18.0176 10.3882 17.981 9.97314C17.9321 9.32617 17.627 8.81348 17.0898 8.63037L17.0898 11.7676L17.5049 11.9995C18.9697 12.793 19.6411 13.6475 19.6411 14.856C19.6411 16.4185 18.6157 17.4316 17.0898 17.6147L17.0898 18.457C17.0898 18.75 16.8457 18.9941 16.5649 18.9941ZM16.04 8.58154C15.4297 8.72803 15.0513 9.16748 15.0513 9.81445C15.0513 10.4858 15.4785 10.8765 15.979 11.1694L16.04 11.2061ZM17.0898 16.2231C17.7368 16.0889 18.103 15.6128 18.103 14.9658C18.103 14.3799 17.6758 13.9282 17.1265 13.5864L17.0898 13.5742Z" fill="#5ac8f5"/>
 </g>
</svg>
