<?xml version="1.0" encoding="UTF-8"?>
<!--Generator: Apple Native CoreSVG 175.5-->
<!DOCTYPE svg
PUBLIC "-//W3C//DTD SVG 1.1//EN"
       "http://www.w3.org/Graphics/SVG/1.1/DTD/svg11.dtd">
<svg version="1.1" xmlns="http://www.w3.org/2000/svg" xmlns:xlink="http://www.w3.org/1999/xlink" width="24.9023" height="24.9146">
 <g>
  <rect height="24.9146" opacity="0" width="24.9023" x="0" y="0"/>
  <path d="M12.4512 24.9146C19.2627 24.9146 24.9023 19.2749 24.9023 12.4634C24.9023 5.66406 19.2505 0.012207 12.439 0.012207C5.63965 0.012207 0 5.66406 0 12.4634C0 19.2749 5.65186 24.9146 12.4512 24.9146ZM10.083 20.8252C8.12988 20.8252 6.56738 19.2627 6.56738 17.3218C6.56738 16.3086 6.98242 15.3931 7.77588 14.6851C7.92236 14.563 7.94678 14.4897 7.94678 14.3188L7.94678 8.28857C7.94678 6.92139 8.80127 5.96924 10.083 5.96924C11.3403 5.96924 12.207 6.92139 12.207 8.28857L12.1948 14.3188C12.1948 14.4897 12.2192 14.563 12.3413 14.6851C13.147 15.3931 13.5742 16.3086 13.5742 17.3218C13.5742 19.2627 12.0117 20.8252 10.083 20.8252ZM10.083 19.7876C11.4258 19.7876 12.5366 18.7012 12.5366 17.3218C12.5366 16.4917 12.146 15.7593 11.4502 15.2954C11.2183 15.1489 11.145 15.0146 11.145 14.7217L11.145 8.3252C11.145 7.54395 10.7178 7.03125 10.083 7.03125C9.41162 7.03125 8.98438 7.54395 8.98438 8.3252L8.98438 14.7217C8.98438 15.0146 8.91113 15.1489 8.6792 15.2954C7.99561 15.7593 7.61719 16.4917 7.61719 17.3218C7.61719 18.7012 8.69141 19.7876 10.083 19.7876ZM10.0708 18.9575C9.15527 18.9575 8.43506 18.2251 8.43506 17.3096C8.43506 16.687 8.80127 16.1621 9.30176 15.8813C9.52148 15.7715 9.58252 15.686 9.58252 15.3809L9.58252 14.0991C9.58252 13.7573 9.79004 13.5376 10.0708 13.5376C10.3394 13.5376 10.5591 13.7573 10.5591 14.0991L10.5591 15.3809C10.5591 15.686 10.6201 15.7715 10.8154 15.8813C11.3403 16.1743 11.7065 16.687 11.7065 17.3096C11.7065 18.2129 10.9863 18.9575 10.0708 18.9575ZM14.8926 15.2222C14.6118 15.2222 14.4165 14.978 14.4165 14.6973L14.4165 13.7573L13.8916 14.0869C13.6719 13.9282 13.3911 13.623 13.3423 13.3789L14.4287 12.7441L14.4531 10.5103L13.147 11.2915L13.147 10.2173L14.0137 9.74121L13.147 9.25293C13.1348 8.87451 13.1104 8.5083 13.0737 8.14209L14.4531 8.95996L14.4287 6.72607L13.2812 6.05469C13.0493 5.9082 12.9517 5.66406 13.0859 5.43213C13.208 5.2002 13.4766 5.13916 13.7207 5.28564L14.4165 5.68848L14.4165 4.78516C14.4165 4.49219 14.6118 4.26025 14.8926 4.26025C15.1855 4.26025 15.3687 4.49219 15.3687 4.78516L15.3564 5.68848L16.0645 5.28564C16.3086 5.15137 16.5894 5.18799 16.7114 5.43213C16.8213 5.66406 16.7603 5.9082 16.4917 6.05469L15.3564 6.72607L15.332 8.95996L17.2485 7.83691L17.2607 6.53076C17.2607 6.23779 17.4438 6.03027 17.7124 6.03027C17.9688 6.03027 18.1396 6.23779 18.1396 6.49414L18.1396 7.2998L18.9575 6.83594C19.2017 6.68945 19.4946 6.7627 19.6411 7.00684C19.7876 7.25098 19.6899 7.51953 19.4336 7.67822L18.6279 8.12988L19.3115 8.55713C19.5312 8.69141 19.6533 8.94775 19.5068 9.16748C19.3726 9.41162 19.104 9.43604 18.8599 9.28955L17.7124 8.65479L15.7715 9.74121L17.7002 10.8154L18.8477 10.1685C19.0796 10.0342 19.3481 10.083 19.4946 10.3271C19.6167 10.5225 19.519 10.7788 19.2993 10.9131L18.6035 11.3281L19.4214 11.8164C19.6655 11.9629 19.7876 12.2192 19.6411 12.4878C19.4946 12.7319 19.2017 12.7563 18.9331 12.6221L18.1274 12.146L18.1152 12.9639C18.1152 13.2202 17.9443 13.4521 17.688 13.4521C17.4194 13.4399 17.2363 13.2324 17.2363 12.9395L17.2363 11.6333L15.332 10.5103L15.3564 12.7441L16.4917 13.4033C16.7236 13.5498 16.8335 13.7939 16.6992 14.0503C16.5771 14.27 16.3086 14.3188 16.0645 14.1724L15.3564 13.7695L15.3687 14.6973C15.3687 14.9658 15.1855 15.2222 14.8926 15.2222Z" fill="#5ac8f5"/>
 </g>
</svg>
