<?xml version="1.0" encoding="UTF-8"?>
<!--Generator: Apple Native CoreSVG 175.5-->
<!DOCTYPE svg
PUBLIC "-//W3C//DTD SVG 1.1//EN"
       "http://www.w3.org/Graphics/SVG/1.1/DTD/svg11.dtd">
<svg version="1.1" xmlns="http://www.w3.org/2000/svg" xmlns:xlink="http://www.w3.org/1999/xlink" width="26.0376" height="25.9399">
 <g>
  <rect height="25.9399" opacity="0" width="26.0376" x="0" y="0"/>
  <path d="M0 5.9082C0 6.64062 0.488281 7.1167 1.24512 7.1167L4.41895 7.1167L4.41895 22.0947C4.41895 24.6582 5.67627 25.9277 8.23975 25.9277L22.1924 25.9277C24.5117 25.9277 26.0376 24.3408 26.0376 21.936L26.0376 18.6157C26.0376 17.8833 25.5493 17.4072 24.7925 17.4072L23.7793 17.4072L23.7793 3.83301C23.7793 1.28174 22.5098 0 19.9951 0L3.19824 0C1.29395 0 0 1.29395 0 3.33252ZM6.38428 22.1069L6.38428 3.33252C6.38428 2.83203 6.33545 2.36816 6.23779 1.96533L19.8853 1.96533C21.1548 1.96533 21.814 2.63672 21.814 3.85742L21.814 17.4072L11.3281 17.4072C10.5713 17.4072 10.0708 17.8833 10.0708 18.6157L10.0708 22.1069C10.0708 23.2178 9.30176 23.9624 8.23975 23.9624C7.15332 23.9624 6.38428 23.1812 6.38428 22.1069ZM1.96533 5.15137L1.96533 3.33252C1.96533 2.47803 2.49023 1.96533 3.19824 1.96533C3.93066 1.96533 4.41895 2.47803 4.41895 3.33252L4.41895 5.15137ZM11.5601 23.9624C11.8652 23.4253 12.0361 22.7661 12.0361 21.9727L12.0361 19.3726L24.0723 19.3726L24.0723 21.936C24.0723 23.1445 23.3154 23.9624 22.1924 23.9624ZM9.8999 11.3892L14.2822 11.3892C14.7217 11.3892 15.0391 11.0718 15.0391 10.6567C15.0391 10.2295 14.7217 9.8877 14.2822 9.8877L9.8999 9.8877C9.46045 9.8877 9.13086 10.2295 9.13086 10.6567C9.13086 11.0718 9.46045 11.3892 9.8999 11.3892ZM9.8999 7.12891L18.2983 7.12891C18.7378 7.12891 19.0552 6.79932 19.0552 6.37207C19.0552 5.95703 18.7378 5.62744 18.2983 5.62744L9.8999 5.62744C9.46045 5.62744 9.13086 5.95703 9.13086 6.37207C9.13086 6.79932 9.46045 7.12891 9.8999 7.12891Z" fill="#5ac8f5"/>
 </g>
</svg>
