<?xml version="1.0" encoding="UTF-8"?>
<!--Generator: Apple Native CoreSVG 175.5-->
<!DOCTYPE svg
PUBLIC "-//W3C//DTD SVG 1.1//EN"
       "http://www.w3.org/Graphics/SVG/1.1/DTD/svg11.dtd">
<svg version="1.1" xmlns="http://www.w3.org/2000/svg" xmlns:xlink="http://www.w3.org/1999/xlink" width="22.4731" height="22.4976">
 <g>
  <rect height="22.4976" opacity="0" width="22.4731" x="0" y="0"/>
  <path d="M3.83301 22.4976L18.6401 22.4976C21.2036 22.4976 22.4731 21.228 22.4731 18.7134L22.4731 3.80859C22.4731 1.29395 21.2036 0.0244141 18.6401 0.0244141L3.83301 0.0244141C1.28174 0.0244141 0 1.28174 0 3.80859L0 18.7134C0 21.2402 1.28174 22.4976 3.83301 22.4976Z" fill="#5ac8f5" fill-opacity="0.25"/>
  <path d="M4.5166 14.5874C4.06494 14.5874 3.74756 14.2578 3.74756 13.8306C3.74756 13.4155 4.06494 13.0859 4.5166 13.0859L16.7847 13.0859C17.2119 13.0859 17.5293 13.4155 17.5293 13.8306C17.5293 14.2578 17.2119 14.5874 16.7847 14.5874ZM4.5166 18.7622C4.06494 18.7622 3.74756 18.4326 3.74756 18.0176C3.74756 17.5903 4.06494 17.2607 4.5166 17.2607L13.562 17.2607C14.0015 17.2607 14.3188 17.5903 14.3188 18.0176C14.3188 18.4326 14.0015 18.7622 13.562 18.7622ZM3.86963 4.58984C3.86963 3.8208 4.3457 3.34473 5.12695 3.34473L8.17871 3.34473C8.95996 3.34473 9.43604 3.8208 9.43604 4.58984L9.43604 7.66602C9.43604 8.43506 8.95996 8.91113 8.17871 8.91113L5.12695 8.91113C4.3457 8.91113 3.86963 8.43506 3.86963 7.66602Z" fill="#5ac8f5"/>
 </g>
</svg>
