<?xml version="1.0" encoding="UTF-8"?>
<!--Generator: Apple Native CoreSVG 175.5-->
<!DOCTYPE svg
PUBLIC "-//W3C//DTD SVG 1.1//EN"
       "http://www.w3.org/Graphics/SVG/1.1/DTD/svg11.dtd">
<svg version="1.1" xmlns="http://www.w3.org/2000/svg" xmlns:xlink="http://www.w3.org/1999/xlink" width="14.1113" height="22.4731">
 <g>
  <rect height="22.4731" opacity="0" width="14.1113" x="0" y="0"/>
  <path d="M1.63574 22.4731L13.0005 22.4731C13.623 22.4731 14.0991 22.0825 14.0991 21.4478C14.0991 20.8252 13.623 20.4102 13.0005 20.4102L2.57568 20.4102L2.57568 20.3003L9.17969 12.2925C9.49707 11.9019 9.66797 11.5112 9.66797 11.1206C9.66797 10.7178 9.49707 10.3149 9.16748 9.93652L2.58789 2.17285L2.58789 2.06299L13.0005 2.06299C13.6353 2.06299 14.1113 1.64795 14.1113 1.02539C14.1113 0.390625 13.6353 0 13.0005 0L1.64795 0C0.598145 0 0.012207 0.720215 0.012207 1.52588C0.012207 1.94092 0.170898 2.38037 0.488281 2.74658L7.53174 11.0474L7.53174 11.1816L0.463867 19.7266C0.158691 20.0928 0 20.5322 0 20.9473C0 21.7529 0.585938 22.4731 1.63574 22.4731Z" fill="#5ac8f5"/>
 </g>
</svg>
