<?xml version="1.0" encoding="UTF-8"?>
<!--Generator: Apple Native CoreSVG 175.5-->
<!DOCTYPE svg
PUBLIC "-//W3C//DTD SVG 1.1//EN"
       "http://www.w3.org/Graphics/SVG/1.1/DTD/svg11.dtd">
<svg version="1.1" xmlns="http://www.w3.org/2000/svg" xmlns:xlink="http://www.w3.org/1999/xlink" width="28.0269" height="31.7993">
 <g>
  <rect height="31.7993" opacity="0" width="28.0269" x="0" y="0"/>
  <path d="M0.102619 24.8779L1.15242 28.479C1.33553 29.1016 1.59188 29.5532 1.93367 29.8828L3.5328 28.8452C3.10555 28.6743 2.82479 28.3325 2.65389 27.771L1.83602 24.7437C1.77498 24.5483 1.84822 24.4141 2.05574 24.4141L25.7496 24.4141C25.9571 24.4141 26.0181 24.585 25.8717 24.7437L23.2349 27.7588C22.8199 28.2227 22.4781 28.6133 21.7457 28.8208L23.2349 29.9194C23.8819 29.48 24.3702 28.8696 24.9928 28.1494L27.6295 25.1221C28.4962 24.1089 27.8736 22.7539 26.4576 22.7539L1.64071 22.7539C0.322346 22.7539-0.251385 23.6572 0.102619 24.8779ZM11.7115 23.7793L13.3595 23.7793L13.3595 0.830078C13.3595 0.378418 12.9932 0 12.5416 0C12.0899 0 11.7115 0.378418 11.7115 0.830078ZM12.6514 19.5801L17.6685 19.5801C21.3429 19.5801 23.3936 17.7002 23.3936 14.6606C23.3936 9.48486 18.0225 3.66211 13.0055 1.0498L12.1754 2.47803C16.3258 4.28467 21.7457 9.70459 21.7457 14.4043C21.7457 16.5283 20.2442 17.9199 17.693 17.9199L12.6514 17.9199ZM13.6768 3.24707C17.7418 9.05762 16.4356 16.1255 12.5904 18.0664L12.9322 19.5068C18.169 17.1021 19.4263 9.50928 15.0929 3.00293ZM3.04451 19.5801L12.3463 19.5801L12.3463 17.9199L4.63143 17.9199C4.48494 17.9199 4.43612 17.7734 4.54598 17.688C8.73299 14.5386 12.5782 7.2876 13.213 2.31934L11.7115 1.28174C11.8092 5.39551 7.97615 13.2202 2.37313 17.2852C1.17684 18.1519 1.84822 19.5801 3.04451 19.5801ZM12.92 31.2012C16.2525 31.2012 16.7774 28.7231 18.7183 28.7231C20.6959 28.7231 21.0133 31.2012 24.8219 31.2012L26.067 31.2012C26.543 31.2012 26.9215 30.8105 26.9215 30.3345C26.9215 29.8584 26.543 29.48 26.067 29.48L24.8219 29.48C23.5157 29.48 22.7711 28.9307 21.8555 28.2837C21.0621 27.71 20.0733 27.002 18.7183 27.002C17.3145 27.002 16.3136 27.7466 15.5201 28.3447C14.6778 28.9795 14.0186 29.48 12.92 29.48C11.8214 29.48 11.1622 28.9795 10.3199 28.3447C9.52645 27.7466 8.52547 27.002 7.12166 27.002C5.76668 27.002 4.77791 27.71 3.98446 28.2837C3.06893 28.9307 2.3243 29.48 1.01815 29.48L0.957111 29.48C0.481037 29.48 0.0904123 29.8584 0.0904123 30.3345C0.0904123 30.8105 0.481037 31.2012 0.957111 31.2012L1.01815 31.2012C4.82674 31.2012 5.14412 28.7231 7.12166 28.7231C9.06258 28.7231 9.58748 31.2012 12.92 31.2012Z" fill="#5ac8f5"/>
 </g>
</svg>
