<?xml version="1.0" encoding="UTF-8"?>
<!--Generator: Apple Native CoreSVG 175.5-->
<!DOCTYPE svg
PUBLIC "-//W3C//DTD SVG 1.1//EN"
       "http://www.w3.org/Graphics/SVG/1.1/DTD/svg11.dtd">
<svg version="1.1" xmlns="http://www.w3.org/2000/svg" xmlns:xlink="http://www.w3.org/1999/xlink" width="24.9023" height="24.9146">
 <g>
  <rect height="24.9146" opacity="0" width="24.9023" x="0" y="0"/>
  <path d="M24.9023 12.4512C24.9023 5.63965 19.2749 0 12.4634 0C5.66406 0 0 5.63965 0 12.4512C0 19.2505 5.65186 24.9023 12.4512 24.9023C19.2627 24.9023 24.9023 19.2505 24.9023 12.4512ZM2.0752 12.4512C2.0874 6.68945 6.70166 2.0752 12.4634 2.0752C12.854 2.0752 13.2446 2.09961 13.623 2.14844C10.1807 4.21143 8.25195 7.84912 8.25195 12.4512C8.25195 17.041 10.1685 20.6665 13.5864 22.7539C13.208 22.8027 12.8296 22.8271 12.4512 22.8271C6.68945 22.8271 2.06299 18.2129 2.0752 12.4512Z" fill="#5ac8f5"/>
 </g>
</svg>
