<?xml version="1.0" encoding="UTF-8"?>
<!--Generator: Apple Native CoreSVG 175.5-->
<!DOCTYPE svg
PUBLIC "-//W3C//DTD SVG 1.1//EN"
       "http://www.w3.org/Graphics/SVG/1.1/DTD/svg11.dtd">
<svg version="1.1" xmlns="http://www.w3.org/2000/svg" xmlns:xlink="http://www.w3.org/1999/xlink" width="15.5518" height="25.4761">
 <g>
  <rect height="25.4761" opacity="0" width="15.5518" x="0" y="0"/>
  <path d="M0 24.5361C0 25.0488 0.402832 25.4639 0.939941 25.4639C8.26416 25.4639 14.0015 20.4834 14.0015 12.7319C14.0015 9.31396 11.1816 6.49414 7.77588 6.49414C6.53076 6.49414 5.37109 6.90918 4.45557 7.60498C6.23779 3.9917 10.0464 1.84326 14.6118 1.84326C15.1489 1.84326 15.5518 1.42822 15.5518 0.915527C15.5518 0.402832 15.1489 0 14.6118 0C7.2876 0 1.5625 4.96826 1.5625 12.7319C1.5625 16.1377 4.38232 18.9575 7.77588 18.9575C9.0332 18.9575 10.1807 18.5425 11.0962 17.8589C9.31396 21.4722 5.49316 23.6206 0.939941 23.6206C0.402832 23.6206 0 24.0234 0 24.5361ZM6.00586 12.7319C6.00586 11.7554 6.81152 10.9619 7.77588 10.9619C8.75244 10.9619 9.5459 11.7554 9.5459 12.7319C9.5459 13.6841 8.75244 14.502 7.77588 14.502C6.81152 14.502 6.00586 13.6963 6.00586 12.7319Z" fill="#5ac8f5"/>
 </g>
</svg>
