<?xml version="1.0" encoding="UTF-8"?>
<!--Generator: Apple Native CoreSVG 175.5-->
<!DOCTYPE svg
PUBLIC "-//W3C//DTD SVG 1.1//EN"
       "http://www.w3.org/Graphics/SVG/1.1/DTD/svg11.dtd">
<svg version="1.1" xmlns="http://www.w3.org/2000/svg" xmlns:xlink="http://www.w3.org/1999/xlink" width="24.9023" height="24.9146">
 <g>
  <rect height="24.9146" opacity="0" width="24.9023" x="0" y="0"/>
  <path d="M12.4512 24.9023C19.2627 24.9023 24.9023 19.2505 24.9023 12.4512C24.9023 5.63965 19.2505 0 12.439 0C5.63965 0 0 5.63965 0 12.4512C0 19.2505 5.65186 24.9023 12.4512 24.9023ZM12.4512 22.8271C6.68945 22.8271 2.0874 18.2129 2.0874 12.4512C2.0874 6.68945 6.67725 2.0752 12.439 2.0752C18.2007 2.0752 22.8271 6.68945 22.8271 12.4512C22.8271 18.2129 18.2129 22.8271 12.4512 22.8271ZM8.27637 17.6147C8.55713 17.6147 8.80127 17.5049 8.98438 17.3096L12.439 13.8428L15.918 17.3096C16.1011 17.4927 16.333 17.6147 16.6138 17.6147C17.1509 17.6147 17.5903 17.1753 17.5903 16.626C17.5903 16.3452 17.4927 16.1255 17.2974 15.9302L13.8306 12.4634L17.3096 8.97217C17.5171 8.76465 17.6025 8.55713 17.6025 8.28857C17.6025 7.75146 17.1631 7.31201 16.626 7.31201C16.3696 7.31201 16.1621 7.40967 15.9546 7.61719L12.439 11.0962L8.95996 7.62939C8.77686 7.43408 8.55713 7.33643 8.27637 7.33643C7.73926 7.33643 7.2998 7.76367 7.2998 8.30078C7.2998 8.56934 7.40967 8.80127 7.59277 8.98438L11.0596 12.4634L7.59277 15.9424C7.40967 16.1255 7.2998 16.3574 7.2998 16.626C7.2998 17.1753 7.73926 17.6147 8.27637 17.6147Z" fill="#5ac8f5"/>
 </g>
</svg>
