<?xml version="1.0" encoding="UTF-8"?>
<!--Generator: Apple Native CoreSVG 175.5-->
<!DOCTYPE svg
PUBLIC "-//W3C//DTD SVG 1.1//EN"
       "http://www.w3.org/Graphics/SVG/1.1/DTD/svg11.dtd">
<svg version="1.1" xmlns="http://www.w3.org/2000/svg" xmlns:xlink="http://www.w3.org/1999/xlink" width="24.6826" height="27.4162">
 <g>
  <rect height="27.4162" opacity="0" width="24.6826" x="0" y="0"/>
  <path d="M12.3413 11.8832C19.7388 11.8832 24.6826 9.515 24.6826 5.95054C24.6826 2.38609 19.7388 0.00571982 12.3413 0.00571982C4.93164 0.00571982 0 2.38609 0 5.95054C0 9.515 4.93164 11.8832 12.3413 11.8832ZM12.3413 9.91783C6.11572 9.91783 1.96533 8.31871 1.96533 5.95054C1.96533 3.58238 6.11572 1.97105 12.3413 1.97105C18.5669 1.97105 22.7173 3.58238 22.7173 5.95054C22.7173 8.31871 18.5669 9.91783 12.3413 9.91783ZM12.3413 18.0599C20.0195 18.0599 24.6826 15.9237 24.6826 10.8089L24.6826 5.95054L22.7173 5.95054L22.7173 10.8089C22.7173 14.6908 18.7988 16.0946 12.3413 16.0946C5.88379 16.0946 1.96533 14.6908 1.96533 10.8089L1.96533 5.95054L0 5.95054L0 10.8089C0 15.9237 4.65088 18.0599 12.3413 18.0599ZM5.2002 12.2616L5.2002 9.97886L3.60107 9.97886L3.60107 12.2616C3.60107 12.701 3.96729 13.0672 4.40674 13.0672C4.84619 13.0672 5.2002 12.701 5.2002 12.2616ZM8.94775 13.0917L8.94775 10.8089L7.34863 10.8089L7.34863 13.0917C7.34863 13.5311 7.70264 13.8973 8.14209 13.8973C8.58154 13.8973 8.94775 13.5311 8.94775 13.0917ZM12.9883 13.409L12.9883 11.1263L11.3892 11.1263L11.3892 13.409C11.3892 13.8485 11.7554 14.2025 12.1948 14.2025C12.6343 14.2025 12.9883 13.8485 12.9883 13.409ZM17.041 13.0917L17.041 10.8089L15.4419 10.8089L15.4419 13.0917C15.4419 13.5311 15.8081 13.8973 16.2476 13.8973C16.687 13.8973 17.041 13.5311 17.041 13.0917ZM20.7886 12.2616L20.7886 9.97886L19.1895 9.97886L19.1895 12.2616C19.1895 12.701 19.5435 13.0672 19.9829 13.0672C20.4224 13.0672 20.7886 12.701 20.7886 12.2616Z" fill="#5ac8f5" fill-opacity="0.5"/>
  <path d="M22.0459 23.6996C22.0459 23.138 21.5698 22.5887 20.8374 22.8573C18.6035 23.6141 16.0767 24.0292 13.4521 24.0292C10.8276 24.0292 8.30078 23.6141 6.0791 22.8573L5.46875 24.6029C7.89795 25.4208 10.6323 25.8724 13.4521 25.8724C16.272 25.8724 19.0063 25.4086 21.4355 24.6029C21.8872 24.4564 22.0459 24.0658 22.0459 23.6996ZM6.50635 26.8246L8.34961 21.5511C8.63037 20.7577 7.84912 20.1717 7.18994 20.4037L2.9541 21.8807C2.36816 22.076 2.16064 22.662 2.49023 23.1869L4.90723 26.9955C5.28564 27.5936 6.23779 27.5692 6.50635 26.8246Z" fill="#5ac8f5"/>
 </g>
</svg>
