<?xml version="1.0" encoding="UTF-8"?>
<!--Generator: Apple Native CoreSVG 175.5-->
<!DOCTYPE svg
PUBLIC "-//W3C//DTD SVG 1.1//EN"
       "http://www.w3.org/Graphics/SVG/1.1/DTD/svg11.dtd">
<svg version="1.1" xmlns="http://www.w3.org/2000/svg" xmlns:xlink="http://www.w3.org/1999/xlink" width="30.2002" height="20.0806">
 <g>
  <rect height="20.0806" opacity="0" width="30.2002" x="0" y="0"/>
  <path d="M4.76074 20.0684L17.5171 20.0684C20.4956 20.0684 22.2778 18.335 22.2778 15.3564L22.2778 4.69971C22.2778 1.7334 20.4956 0 17.5171 0L4.76074 0C1.9165 0 0 1.7334 0 4.69971L0 15.3564C0 18.335 1.78223 20.0684 4.76074 20.0684ZM5.10254 18.2251C3.10059 18.2251 1.96533 17.1875 1.96533 15.0757L1.96533 4.99268C1.96533 2.86865 3.10059 1.83105 5.10254 1.83105L17.1753 1.83105C19.165 1.83105 20.3125 2.86865 20.3125 4.99268L20.3125 15.0757C20.3125 17.1875 19.165 18.2251 17.1753 18.2251ZM21.9971 6.61621L21.9971 8.93555L27.8076 4.13818C27.9175 4.05273 27.9907 3.9917 28.1006 3.9917C28.2471 3.9917 28.3081 4.11377 28.3081 4.28467L28.3081 15.7837C28.3081 15.9546 28.2471 16.0645 28.1006 16.0645C27.9907 16.0645 27.9175 16.0034 27.8076 15.9302L21.9971 11.1328L21.9971 13.4399L26.8921 17.5903C27.3804 17.9932 27.9175 18.2739 28.418 18.2739C29.4922 18.2739 30.2002 17.4805 30.2002 16.3452L30.2002 3.72314C30.2002 2.58789 29.4922 1.79443 28.418 1.79443C27.9175 1.79443 27.3804 2.0752 26.8921 2.47803Z" fill="#5ac8f5" fill-opacity="0.5"/>
  <path d="M10.8154 12.3901C11.3647 12.3901 11.7065 12.0483 11.7065 11.5967C11.7065 11.5601 11.7065 11.5112 11.7065 11.4624C11.7065 10.8398 12.0605 10.4614 12.8418 9.94873C13.916 9.24072 14.6729 8.59375 14.6729 7.26318C14.6729 5.41992 13.0371 4.44336 11.145 4.44336C9.24072 4.44336 8.02002 5.33447 7.69043 6.34766C7.62939 6.53076 7.60498 6.71387 7.60498 6.90918C7.60498 7.39746 7.99561 7.66602 8.36182 7.66602C8.98438 7.66602 9.09424 7.32422 9.44824 6.90918C9.81445 6.31104 10.3516 5.94482 11.084 5.94482C12.0972 5.94482 12.7441 6.50635 12.7441 7.34863C12.7441 8.10547 12.2803 8.47168 11.3159 9.14307C10.5225 9.70459 9.92432 10.2905 9.92432 11.3647C9.92432 11.4136 9.92432 11.4746 9.92432 11.5112C9.92432 12.0972 10.2417 12.3901 10.8154 12.3901ZM10.7788 15.686C11.4136 15.686 11.9751 15.1855 11.9751 14.5386C11.9751 13.9038 11.4258 13.3911 10.7788 13.3911C10.1318 13.3911 9.59473 13.9038 9.59473 14.5386C9.59473 15.1733 10.144 15.686 10.7788 15.686Z" fill="#5ac8f5"/>
 </g>
</svg>
