<?xml version="1.0" encoding="UTF-8"?>
<!--Generator: Apple Native CoreSVG 175.5-->
<!DOCTYPE svg
PUBLIC "-//W3C//DTD SVG 1.1//EN"
       "http://www.w3.org/Graphics/SVG/1.1/DTD/svg11.dtd">
<svg version="1.1" xmlns="http://www.w3.org/2000/svg" xmlns:xlink="http://www.w3.org/1999/xlink" width="24.9023" height="24.9146">
 <g>
  <rect height="24.9146" opacity="0" width="24.9023" x="0" y="0"/>
  <path d="M12.4512 24.9023C19.2627 24.9023 24.9023 19.2505 24.9023 12.4512C24.9023 5.63965 19.2505 0 12.439 0C5.63965 0 0 5.63965 0 12.4512C0 19.2505 5.65186 24.9023 12.4512 24.9023Z" fill="#5ac8f5" fill-opacity="0.25"/>
  <path d="M4.54102 12.4634C4.54102 11.9751 4.89502 11.6211 5.3833 11.6211L11.145 11.6211L13.4521 11.7554L10.8887 9.48486L10.1074 8.71582C9.92432 8.55713 9.85107 8.3252 9.85107 8.09326C9.85107 7.61719 10.2295 7.2876 10.6934 7.2876C10.9131 7.2876 11.1328 7.36084 11.3159 7.55615L15.6616 11.8164C15.8325 12.0117 15.9424 12.2192 15.9424 12.4634C15.9424 12.6953 15.8569 12.915 15.6616 13.0981L11.3281 17.3218C11.1572 17.4927 10.8887 17.6025 10.6934 17.6025C10.2051 17.6025 9.85107 17.2729 9.85107 16.7847C9.85107 16.5283 9.92432 16.3208 10.1074 16.1743L10.9009 15.4419L13.4644 13.1714L11.145 13.3179L5.3833 13.3179C4.89502 13.3179 4.54102 12.9761 4.54102 12.4634ZM17.7368 18.0054C17.2607 18.0054 16.9067 17.6636 16.9067 17.1753L16.9067 7.71484C16.9067 7.22656 17.2607 6.88477 17.7368 6.88477C18.2495 6.88477 18.6035 7.22656 18.6035 7.71484L18.6035 17.1753C18.6035 17.6636 18.2495 18.0054 17.7368 18.0054Z" fill="#5ac8f5"/>
 </g>
</svg>
