<?xml version="1.0" encoding="UTF-8"?>
<!--Generator: Apple Native CoreSVG 175.5-->
<!DOCTYPE svg
PUBLIC "-//W3C//DTD SVG 1.1//EN"
       "http://www.w3.org/Graphics/SVG/1.1/DTD/svg11.dtd">
<svg version="1.1" xmlns="http://www.w3.org/2000/svg" xmlns:xlink="http://www.w3.org/1999/xlink" width="22.4731" height="22.4976">
 <g>
  <rect height="22.4976" opacity="0" width="22.4731" x="0" y="0"/>
  <path d="M3.83301 22.4976L18.6401 22.4976C21.2036 22.4976 22.4731 21.228 22.4731 18.7134L22.4731 3.80859C22.4731 1.29395 21.2036 0.0244141 18.6401 0.0244141L3.83301 0.0244141C1.28174 0.0244141 0 1.28174 0 3.80859L0 18.7134C0 21.2402 1.28174 22.4976 3.83301 22.4976Z" fill="#5ac8f5" fill-opacity="0.25"/>
  <path d="M7.03125 16.6748C4.87061 16.6748 3.43018 14.5996 3.43018 11.2427C3.43018 7.88574 4.87061 5.81055 7.03125 5.81055C9.2041 5.81055 10.6323 7.88574 10.6323 11.2427C10.6323 14.5996 9.2041 16.6748 7.03125 16.6748ZM7.03125 15.1367C8.23975 15.1367 8.97217 13.6597 8.97217 11.2427C8.97217 8.82568 8.22754 7.34863 7.03125 7.34863C5.84717 7.34863 5.09033 8.82568 5.09033 11.2427C5.09033 13.6597 5.84717 15.1367 7.03125 15.1367ZM15.6128 16.6748C13.4155 16.6748 11.9629 15.4419 11.9629 13.5986C11.9629 12.3169 12.7441 11.2549 14.1113 10.9741L14.1113 10.9009C12.9395 10.5591 12.3291 9.68018 12.3291 8.58154C12.3291 6.9458 13.6963 5.81055 15.6372 5.81055C17.5537 5.81055 18.9209 6.9458 18.9209 8.58154C18.9209 9.68018 18.2983 10.5835 17.1387 10.9009L17.1387 10.9741C18.5059 11.2549 19.2871 12.3047 19.2871 13.5864C19.2871 15.4175 17.7856 16.6748 15.6128 16.6748ZM15.6494 15.3564C16.8213 15.3564 17.688 14.5874 17.688 13.4888C17.688 12.3901 16.8457 11.6089 15.6494 11.6089C14.4409 11.6089 13.5742 12.4023 13.5742 13.4888C13.5742 14.5874 14.4409 15.3564 15.6494 15.3564ZM15.6372 10.4004C16.6138 10.4004 17.2974 9.69238 17.2974 8.74023C17.2974 7.78809 16.6138 7.12891 15.6372 7.12891C14.6362 7.12891 13.9526 7.78809 13.9526 8.74023C13.9526 9.69238 14.6362 10.4004 15.6372 10.4004Z" fill="#5ac8f5"/>
 </g>
</svg>
