<?xml version="1.0" encoding="UTF-8"?>
<!--Generator: Apple Native CoreSVG 175.5-->
<!DOCTYPE svg
PUBLIC "-//W3C//DTD SVG 1.1//EN"
       "http://www.w3.org/Graphics/SVG/1.1/DTD/svg11.dtd">
<svg version="1.1" xmlns="http://www.w3.org/2000/svg" xmlns:xlink="http://www.w3.org/1999/xlink" width="27.4658" height="29.3823">
 <g>
  <rect height="29.3823" opacity="0" width="27.4658" x="0" y="0"/>
  <path d="M3.45459 22.7539L7.44629 22.7539L7.44629 20.9106L3.71094 20.9106C2.6123 20.9106 1.94092 20.1782 1.94092 19.1772L1.94092 9.94873C1.94092 8.94775 2.6123 8.22754 3.71094 8.22754L7.44629 8.22754L7.44629 6.38428L3.45459 6.38428C1.41602 6.38428 0 7.76367 0 9.64355L0 19.4946C0 21.3623 1.41602 22.7539 3.45459 22.7539ZM24.0112 22.7539C26.0498 22.7539 27.4658 21.3623 27.4658 19.4946L27.4658 9.64355C27.4658 7.76367 26.0498 6.38428 24.0112 6.38428L20.0195 6.38428L20.0195 8.22754L23.7549 8.22754C24.8535 8.22754 25.5249 8.94775 25.5249 9.94873L25.5249 19.1772C25.5249 20.1782 24.8535 20.9106 23.7549 20.9106L20.0195 20.9106L20.0195 22.7539ZM13.7329 29.126C13.9893 29.126 14.1846 29.0283 14.4409 28.7964L18.5059 25.0122C18.7134 24.8291 18.8232 24.6094 18.8232 24.3286C18.8232 23.8281 18.457 23.4741 17.9321 23.4741C17.7002 23.4741 17.4438 23.5718 17.2607 23.7549L15.6738 25.354L14.624 26.4404L14.6973 24.4019L14.6973 20.3735C14.6973 19.8486 14.2578 19.4214 13.7329 19.4214C13.208 19.4214 12.7563 19.8486 12.7563 20.3735L12.7563 24.4019L12.8418 26.4404L11.792 25.354L10.2051 23.7549C10.022 23.5718 9.77783 23.4741 9.5459 23.4741C9.021 23.4741 8.64258 23.8281 8.64258 24.3286C8.64258 24.6094 8.75244 24.8291 8.95996 25.0122L13.0249 28.7964C13.2812 29.0283 13.4766 29.126 13.7329 29.126ZM13.7329 9.70459C14.2578 9.70459 14.6973 9.27734 14.6973 8.76465L14.6973 4.72412L14.624 2.68555L15.6738 3.77197L17.2607 5.37109C17.4438 5.5542 17.688 5.66406 17.9199 5.66406C18.4448 5.66406 18.8232 5.29785 18.8232 4.79736C18.8232 4.5166 18.7134 4.29688 18.5059 4.11377L14.4409 0.32959C14.1846 0.0976562 13.9893 0 13.7329 0C13.4766 0 13.2812 0.0976562 13.0249 0.32959L8.95996 4.11377C8.75244 4.29688 8.64258 4.5166 8.64258 4.79736C8.64258 5.29785 9.00879 5.66406 9.53369 5.66406C9.76562 5.66406 10.022 5.5542 10.2051 5.37109L11.792 3.77197L12.8418 2.68555L12.7563 4.72412L12.7563 8.76465C12.7563 9.27734 13.208 9.70459 13.7329 9.70459Z" fill="#5ac8f5"/>
 </g>
</svg>
