<?xml version="1.0" encoding="UTF-8"?>
<!--Generator: Apple Native CoreSVG 175.5-->
<!DOCTYPE svg
PUBLIC "-//W3C//DTD SVG 1.1//EN"
       "http://www.w3.org/Graphics/SVG/1.1/DTD/svg11.dtd">
<svg version="1.1" xmlns="http://www.w3.org/2000/svg" xmlns:xlink="http://www.w3.org/1999/xlink" width="22.4487" height="23.7671">
 <g>
  <rect height="23.7671" opacity="0" width="22.4487" x="0" y="0"/>
  <path d="M4.15039 5.7251L18.2861 5.7251C17.395 4.35791 16.3818 2.9541 15.332 1.53809C14.5508 0.512695 14.0869 0 12.7686 0L9.68018 0C8.36182 0 7.89795 0.512695 7.1167 1.53809C6.05469 2.9541 5.05371 4.35791 4.15039 5.7251ZM11.2305 12.5244C12.6953 12.5244 13.9038 13.4521 14.3311 14.7827L22.3999 14.7827C22.1191 12.7319 21.0815 10.3271 19.5801 7.76367L2.85645 7.76367C1.36719 10.3271 0.32959 12.7319 0.0366211 14.7827L8.11768 14.7827C8.54492 13.4521 9.76562 12.5244 11.2305 12.5244ZM11.2305 17.2607C12.0605 17.2607 12.6953 16.626 12.6953 15.7837C12.6953 14.9658 12.0605 14.3066 11.2305 14.3066C10.4004 14.3066 9.75342 14.9658 9.75342 15.7837C9.75342 16.626 10.4004 17.2607 11.2305 17.2607ZM8.26416 23.7427L14.1724 23.7427C19.3237 23.7427 22.1069 21.1914 22.4487 16.8213L14.3311 16.8213C13.916 18.1152 12.7075 19.043 11.2305 19.043C9.76562 19.043 8.53271 18.1152 8.11768 16.8213L0 16.8213C0.32959 21.1914 3.11279 23.7427 8.26416 23.7427Z" fill="#5ac8f5"/>
 </g>
</svg>
