<?xml version="1.0" encoding="UTF-8"?>
<!--Generator: Apple Native CoreSVG 175.5-->
<!DOCTYPE svg
PUBLIC "-//W3C//DTD SVG 1.1//EN"
       "http://www.w3.org/Graphics/SVG/1.1/DTD/svg11.dtd">
<svg version="1.1" xmlns="http://www.w3.org/2000/svg" xmlns:xlink="http://www.w3.org/1999/xlink" width="35.3978" height="26.6235">
 <g>
  <rect height="26.6235" opacity="0" width="35.3978" x="0" y="0"/>
  <path d="M17.7039 16.9067C19.9988 16.9067 22.8797 17.6514 24.8572 18.7256C25.4188 19.0308 26.0413 18.9087 26.4075 18.4326L34.867 7.6416C35.6849 6.5918 35.5506 5.48096 34.513 4.67529C31.095 2.03857 24.5765 0 17.7039 0C10.8314 0 4.30061 2.03857 0.882638 4.67529C-0.15496 5.48096-0.289237 6.5918 0.540841 7.6416L9.00031 18.4326C9.36652 18.9087 9.97688 19.0308 10.5384 18.7256C12.5281 17.6514 15.3968 16.9067 17.7039 16.9067ZM17.7039 14.9414C15.5555 14.9414 12.9676 15.5273 10.4896 16.5771C10.2454 16.6748 10.1234 16.6626 9.94026 16.4307L2.49397 6.9458C2.26203 6.62842 2.29865 6.34766 2.62824 6.11572C6.82746 3.4668 12.1986 1.96533 17.7039 1.96533C23.1971 1.96533 28.5804 3.4668 32.7796 6.11572C33.097 6.34766 33.1458 6.62842 32.9017 6.9458L25.5286 16.3452C25.2967 16.6504 25.1502 16.6748 24.845 16.5527C22.428 15.5273 19.8402 14.9414 17.7039 14.9414Z" fill="#5ac8f5" fill-opacity="0.5"/>
  <path d="M8.17024 9.58252C7.90168 9.97314 8.13361 10.5225 8.67072 10.5225L12.8821 10.5225C13.4193 10.5225 13.6512 9.97314 13.3826 9.58252L11.3319 6.55518C11.1854 6.33545 11.0023 6.22559 10.7703 6.22559C10.5384 6.22559 10.3553 6.33545 10.2088 6.55518ZM12.2596 24.8169C11.6737 24.0234 11.4539 23.5352 11.4539 22.644C11.4539 20.5078 13.4681 19.3359 13.4681 16.5283C13.4681 13.9771 11.576 13.3545 11.576 10.3516L11.576 9.83887L9.97688 9.83887L9.97688 10.3516C9.97688 14.1479 11.869 14.5752 11.869 16.5283C11.869 18.9819 9.85481 19.9463 9.85481 22.7661C9.85481 23.9136 10.2088 24.7925 10.9779 25.769C11.637 26.6113 12.9676 25.7568 12.2596 24.8169ZM15.0916 9.58252C14.8231 9.97314 15.055 10.5225 15.5921 10.5225L19.8035 10.5225C20.3406 10.5225 20.5726 9.97314 20.304 9.58252L18.2655 6.55518C18.119 6.33545 17.9359 6.22559 17.7039 6.22559C17.472 6.22559 17.2889 6.33545 17.1424 6.55518ZM19.1932 24.8169C18.595 24.0234 18.3753 23.5352 18.3753 22.644C18.3753 20.5078 20.3895 19.3359 20.3895 16.5283C20.3895 13.9771 18.4974 13.3545 18.4974 10.3516L18.4974 9.83887L16.8983 9.83887L16.8983 10.3516C16.8983 14.1479 18.7904 14.5752 18.7904 16.5283C18.7904 18.9819 16.7762 19.9463 16.7762 22.7661C16.7762 23.9136 17.1424 24.7925 17.8992 25.769C18.5706 26.6113 19.889 25.7568 19.1932 24.8169ZM22.0252 9.58252C21.7567 9.97314 21.9886 10.5225 22.5257 10.5225L26.7249 10.5225C27.262 10.5225 27.5062 9.97314 27.2254 9.58252L25.1868 6.55518C25.0404 6.33545 24.8572 6.22559 24.6253 6.22559C24.3934 6.22559 24.2103 6.33545 24.0638 6.55518ZM26.1146 24.8169C25.5164 24.0234 25.3089 23.5352 25.3089 22.644C25.3089 20.5078 27.3109 19.3359 27.3109 16.5283C27.3109 13.9771 25.431 13.3545 25.431 10.3516L25.431 9.83887L23.8319 9.83887L23.8319 10.3516C23.8319 14.1479 25.7117 14.5752 25.7117 16.5283C25.7117 18.9819 23.7098 19.9463 23.7098 22.7661C23.7098 23.9136 24.0638 24.7925 24.8206 25.769C25.492 26.6113 26.8226 25.7568 26.1146 24.8169Z" fill="#5ac8f5"/>
 </g>
</svg>
