<?xml version="1.0" encoding="UTF-8"?>
<!--Generator: Apple Native CoreSVG 175.5-->
<!DOCTYPE svg
PUBLIC "-//W3C//DTD SVG 1.1//EN"
       "http://www.w3.org/Graphics/SVG/1.1/DTD/svg11.dtd">
<svg version="1.1" xmlns="http://www.w3.org/2000/svg" xmlns:xlink="http://www.w3.org/1999/xlink" width="27.1851" height="23.4497">
 <g>
  <rect height="23.4497" opacity="0" width="27.1851" x="0" y="0"/>
  <path d="M0 19.7266C0 22.229 1.25732 23.4497 3.77197 23.4497L23.4131 23.4497C25.9399 23.4497 27.1851 22.229 27.1851 19.7266L27.1851 7.84912C27.1851 5.35889 25.9399 4.12598 23.4131 4.12598L3.77197 4.12598C1.25732 4.12598 0 5.35889 0 7.84912ZM4.65088 11.2915C3.56445 11.2915 2.68555 10.4126 2.68555 9.31396C2.68555 8.22754 3.56445 7.34863 4.65088 7.34863C5.76172 7.34863 6.62842 8.22754 6.62842 9.31396C6.62842 10.4126 5.76172 11.2915 4.65088 11.2915ZM10.6201 11.2915C9.52148 11.2915 8.64258 10.4126 8.64258 9.31396C8.64258 8.22754 9.52148 7.34863 10.6201 7.34863C11.7065 7.34863 12.5854 8.22754 12.5854 9.31396C12.5854 10.4126 11.7065 11.2915 10.6201 11.2915ZM16.5649 11.2915C15.4785 11.2915 14.5996 10.4126 14.5996 9.31396C14.5996 8.22754 15.4785 7.34863 16.5649 7.34863C17.6758 7.34863 18.5425 8.22754 18.5425 9.31396C18.5425 10.4126 17.6758 11.2915 16.5649 11.2915ZM22.5342 11.2915C21.4355 11.2915 20.5566 10.4126 20.5566 9.31396C20.5566 8.22754 21.4355 7.34863 22.5342 7.34863C23.6206 7.34863 24.5117 8.22754 24.5117 9.31396C24.5117 10.4126 23.6206 11.2915 22.5342 11.2915ZM1.96533 19.6289L1.96533 13.7451L25.2197 13.7451L25.2197 19.6289C25.2197 20.8862 24.585 21.4966 23.3887 21.4966L3.79639 21.4966C2.6001 21.4966 1.96533 20.8862 1.96533 19.6289ZM6.48193 5.62744L8.42285 5.62744L8.42285 3.01514C8.42285 2.31934 8.91113 1.86768 9.63135 1.86768L17.5659 1.86768C18.2983 1.86768 18.7744 2.31934 18.7744 3.01514L18.7744 5.62744L20.7153 5.62744L20.7153 2.89307C20.7153 1.12305 19.5679 0.0488281 17.688 0.0488281L9.50928 0.0488281C7.62939 0.0488281 6.48193 1.12305 6.48193 2.89307Z" fill="#5ac8f5"/>
 </g>
</svg>
