<?xml version="1.0" encoding="UTF-8"?>
<!--Generator: Apple Native CoreSVG 175.5-->
<!DOCTYPE svg
PUBLIC "-//W3C//DTD SVG 1.1//EN"
       "http://www.w3.org/Graphics/SVG/1.1/DTD/svg11.dtd">
<svg version="1.1" xmlns="http://www.w3.org/2000/svg" xmlns:xlink="http://www.w3.org/1999/xlink" width="24.9023" height="24.9146">
 <g>
  <rect height="24.9146" opacity="0" width="24.9023" x="0" y="0"/>
  <path d="M12.4512 24.9023C19.2627 24.9023 24.9023 19.2505 24.9023 12.4512C24.9023 5.63965 19.2505 0 12.439 0C5.63965 0 0 5.63965 0 12.4512C0 19.2505 5.65186 24.9023 12.4512 24.9023ZM12.4512 22.8271C6.68945 22.8271 2.0874 18.2129 2.0874 12.4512C2.0874 6.68945 6.67725 2.0752 12.439 2.0752C18.2007 2.0752 22.8271 6.68945 22.8271 12.4512C22.8271 18.2129 18.2129 22.8271 12.4512 22.8271Z" fill="#5ac8f5" fill-opacity="0.5"/>
  <path d="M8.92334 6.81152L17.2974 15.1855C17.5903 14.978 17.8101 14.6729 17.8101 14.2334L17.8101 8.21533C17.8101 7.86133 17.627 7.60498 17.1265 7.60498C16.7725 7.60498 16.2354 7.86133 15.2344 7.86133C13.1714 7.86133 11.7798 6.7749 9.58252 6.7749C9.31396 6.7749 9.10645 6.78711 8.92334 6.81152ZM13.2812 15.3687L7.06787 9.15527L7.06787 18.457C7.06787 18.75 7.33643 19.0186 7.62939 19.0186C7.95898 19.0186 8.19092 18.7622 8.19092 18.457L8.19092 14.856C8.41064 14.7583 8.89893 14.6118 9.64355 14.6118C11.0474 14.6118 12.1094 15.0635 13.2812 15.3687ZM18.2007 18.9941C18.4082 19.2017 18.7622 19.2017 18.9819 18.9941C19.2017 18.7622 19.2017 18.4326 18.9819 18.2129L6.67725 5.9082C6.45752 5.68848 6.11572 5.68848 5.88379 5.9082C5.67627 6.11572 5.67627 6.48193 5.88379 6.68945Z" fill="#5ac8f5"/>
 </g>
</svg>
