<?xml version="1.0" encoding="UTF-8"?>
<!--Generator: Apple Native CoreSVG 175.5-->
<!DOCTYPE svg
PUBLIC "-//W3C//DTD SVG 1.1//EN"
       "http://www.w3.org/Graphics/SVG/1.1/DTD/svg11.dtd">
<svg version="1.1" xmlns="http://www.w3.org/2000/svg" xmlns:xlink="http://www.w3.org/1999/xlink" width="24.7711" height="26.1841">
 <g>
  <rect height="26.1841" opacity="0" width="24.7711" x="0" y="0"/>
  <path d="M5.89294 26.1719L18.8568 26.1719C19.9188 26.1719 20.7489 25.9399 21.3226 25.4517L19.7479 23.8647C19.5282 24.0845 19.1986 24.2065 18.7592 24.2065L5.9906 24.2065C4.72107 24.2065 4.0741 23.5352 4.0741 22.3145L4.0741 8.19092L2.10876 6.22559L2.10876 22.3511C2.10876 24.9023 3.36609 26.1719 5.89294 26.1719ZM5.00183 2.31934C5.22156 2.0874 5.55115 1.96533 5.9906 1.96533L18.7592 1.96533C20.0287 1.96533 20.6757 2.64893 20.6757 3.86963L20.6757 18.0176L22.641 19.9829L22.641 3.83301C22.641 1.29395 21.3837 0 18.8568 0L5.89294 0C4.83093 0 4.00085 0.256348 3.42712 0.744629ZM13.3514 10.6934L13.3514 1.26953L11.3983 1.26953L11.3983 8.72803ZM11.3983 25.0977L13.3514 25.0977L13.3514 17.4683L11.3983 15.5029ZM23.1659 25.1953C23.5443 25.5737 24.1425 25.5737 24.4965 25.1953C24.8627 24.8291 24.8627 24.231 24.4965 23.8525L1.60828 0.976562C1.24207 0.610352 0.643921 0.610352 0.265503 0.976562C-0.088501 1.34277-0.088501 1.95312 0.265503 2.30713Z" fill="#5ac8f5"/>
 </g>
</svg>
