<?xml version="1.0" encoding="UTF-8"?>
<!--Generator: Apple Native CoreSVG 175.5-->
<!DOCTYPE svg
PUBLIC "-//W3C//DTD SVG 1.1//EN"
       "http://www.w3.org/Graphics/SVG/1.1/DTD/svg11.dtd">
<svg version="1.1" xmlns="http://www.w3.org/2000/svg" xmlns:xlink="http://www.w3.org/1999/xlink" width="34.0332" height="25.9915">
 <g>
  <rect height="25.9915" opacity="0" width="34.0332" x="0" y="0"/>
  <path d="M9.35059 24.9037C8.8623 24.2445 8.66699 23.8417 8.66699 23.0849C8.66699 21.3026 10.376 20.2895 10.376 17.9335C10.376 15.8095 8.78906 15.2846 8.78906 12.7577L8.78906 12.3061L7.44629 12.3061L7.44629 12.7577C7.44629 15.9315 9.0332 16.2978 9.0332 17.9335C9.0332 19.9965 7.32422 20.8144 7.32422 23.1825C7.32422 24.1591 7.62939 24.8915 8.26416 25.6972C8.82568 26.4174 9.94873 25.685 9.35059 24.9037ZM5.92041 12.1107C5.70068 12.4403 5.896 12.9042 6.33545 12.9042L9.87549 12.9042C10.3271 12.9042 10.5347 12.4525 10.2905 12.1107L8.58154 9.55947C8.44727 9.36416 8.31299 9.29092 8.10547 9.29092C7.91016 9.29092 7.76367 9.37637 7.62939 9.55947ZM15.1733 24.9037C14.6729 24.2445 14.4897 23.8417 14.4897 23.0849C14.4897 21.3026 16.1865 20.2895 16.1865 17.9335C16.1865 15.8095 14.6118 15.2846 14.6118 12.7577L14.6118 12.3061L13.269 12.3061L13.269 12.7577C13.269 15.9315 14.8438 16.2978 14.8438 17.9335C14.8438 19.9965 13.1592 20.8144 13.1592 23.1825C13.1592 24.1591 13.4644 24.8915 14.0991 25.6972C14.6606 26.4174 15.7593 25.685 15.1733 24.9037ZM11.731 12.1107C11.5112 12.4403 11.7188 12.9042 12.1704 12.9042L15.686 12.9042C16.1499 12.9042 16.3574 12.4403 16.1255 12.1107L14.4043 9.55947C14.27 9.37637 14.1357 9.29092 13.9282 9.29092C13.7329 9.29092 13.5864 9.37637 13.4521 9.55947ZM21.0083 24.9037C20.5078 24.2445 20.3247 23.8417 20.3247 23.0849C20.3247 21.3026 22.0093 20.2895 22.0093 17.9335C22.0093 15.8095 20.4224 15.2846 20.4224 12.7577L20.4224 12.3061L19.0796 12.3061L19.0796 12.7577C19.0796 15.9315 20.6665 16.2978 20.6665 17.9335C20.6665 19.9965 18.9697 20.8144 18.9697 23.1825C18.9697 24.1591 19.2749 24.8915 19.9097 25.6972C20.4712 26.4174 21.582 25.685 21.0083 24.9037ZM17.5659 12.1107C17.3462 12.4403 17.5415 12.9042 17.981 12.9042L21.521 12.9042C21.9849 12.9042 22.1802 12.4403 21.9482 12.1107L20.2271 9.55947C20.105 9.37637 19.9463 9.29092 19.751 9.29092C19.5435 9.29092 19.4214 9.36416 19.2871 9.55947ZM0 13.6977C0 18.8368 3.00293 21.5346 8.22754 21.5346L26.77 21.5346C28.6499 21.5346 30.249 21.7177 31.7383 22.0961C33.02 22.4135 34.0332 21.8886 34.0332 20.5824L34.0332 14.7353C34.0332 13.9052 33.4351 13.2948 32.5928 13.2948L29.4312 13.2948C28.418 13.2948 27.9175 12.8554 28.0151 11.9032L28.3813 8.32656C28.6865 5.34805 26.9897 3.54141 23.6694 3.54141C19.8242 3.55361 12.7319 3.7001 8.6792 4.17617C3.125 4.85977 0 8.25332 0 13.6977ZM1.96533 13.6977C1.96533 9.38858 4.41895 6.66641 8.8501 6.15371C12.854 5.70205 19.8364 5.50674 23.6694 5.50674C25.7812 5.50674 26.6357 6.36123 26.4404 8.10684L25.4761 16.7738C25.2441 18.8246 24.3652 19.5692 22.1191 19.5692L8.19092 19.5692C4.27246 19.5692 1.96533 17.5429 1.96533 13.6977Z" fill="#5ac8f5"/>
 </g>
</svg>
