<?xml version="1.0" encoding="UTF-8"?>
<!--Generator: Apple Native CoreSVG 175.5-->
<!DOCTYPE svg
PUBLIC "-//W3C//DTD SVG 1.1//EN"
       "http://www.w3.org/Graphics/SVG/1.1/DTD/svg11.dtd">
<svg version="1.1" xmlns="http://www.w3.org/2000/svg" xmlns:xlink="http://www.w3.org/1999/xlink" width="22.4731" height="22.4976">
 <g>
  <rect height="22.4976" opacity="0" width="22.4731" x="0" y="0"/>
  <path d="M3.83301 22.4976L18.6401 22.4976C21.2036 22.4976 22.4731 21.228 22.4731 18.7134L22.4731 3.80859C22.4731 1.29395 21.2036 0.0244141 18.6401 0.0244141L3.83301 0.0244141C1.28174 0.0244141 0 1.28174 0 3.80859L0 18.7134C0 21.2402 1.28174 22.4976 3.83301 22.4976ZM3.85742 20.5322C2.63672 20.5322 1.96533 19.8853 1.96533 18.6157L1.96533 3.90625C1.96533 2.63672 2.63672 1.98975 3.85742 1.98975L18.6157 1.98975C19.8242 1.98975 20.5078 2.63672 20.5078 3.90625L20.5078 18.6157C20.5078 19.8853 19.8242 20.5322 18.6157 20.5322Z" fill="#5ac8f5" fill-opacity="0.5"/>
  <path d="M6.46973 16.9678L16.0034 16.9678C16.6626 16.9678 17.1509 16.4795 17.1509 15.8203L17.1509 6.66504C17.1509 6.00586 16.6626 5.51758 16.0034 5.51758L6.46973 5.51758C5.81055 5.51758 5.32227 6.00586 5.32227 6.66504L5.32227 15.8203C5.32227 16.4795 5.81055 16.9678 6.46973 16.9678ZM11.2549 10.4126C10.5713 10.4126 10.0098 9.86328 10.0098 9.17969C10.0098 8.49609 10.5713 7.95898 11.2549 7.95898C11.9263 7.95898 12.4878 8.49609 12.4878 9.17969C12.4878 9.86328 11.9263 10.4126 11.2549 10.4126ZM8.58154 14.5264C7.91016 14.5264 7.34863 13.9893 7.34863 13.3057C7.34863 12.6099 7.91016 12.0605 8.58154 12.0605C9.26514 12.0605 9.82666 12.6099 9.82666 13.3057C9.82666 13.9893 9.26514 14.5264 8.58154 14.5264ZM13.916 14.5264C13.2324 14.5264 12.6709 13.9893 12.6709 13.3057C12.6709 12.6099 13.2324 12.0605 13.916 12.0605C14.5996 12.0605 15.1489 12.6099 15.1489 13.3057C15.1489 13.9893 14.5996 14.5264 13.916 14.5264Z" fill="#5ac8f5"/>
 </g>
</svg>
