<?xml version="1.0" encoding="UTF-8"?>
<!--Generator: Apple Native CoreSVG 175.5-->
<!DOCTYPE svg
PUBLIC "-//W3C//DTD SVG 1.1//EN"
       "http://www.w3.org/Graphics/SVG/1.1/DTD/svg11.dtd">
<svg version="1.1" xmlns="http://www.w3.org/2000/svg" xmlns:xlink="http://www.w3.org/1999/xlink" width="24.9023" height="24.9146">
 <g>
  <rect height="24.9146" opacity="0" width="24.9023" x="0" y="0"/>
  <path d="M12.4512 24.9023C19.2627 24.9023 24.9023 19.2505 24.9023 12.4512C24.9023 5.63965 19.2505 0 12.439 0C5.63965 0 0 5.63965 0 12.4512C0 19.2505 5.65186 24.9023 12.4512 24.9023ZM12.4512 22.8271C6.68945 22.8271 2.0874 18.2129 2.0874 12.4512C2.0874 6.68945 6.67725 2.0752 12.439 2.0752C18.2007 2.0752 22.8271 6.68945 22.8271 12.4512C22.8271 18.2129 18.2129 22.8271 12.4512 22.8271ZM11.8042 19.6045L13.0737 19.6045C13.4277 19.6045 13.6841 19.3848 13.7573 19.0308L14.1235 17.5293C14.3799 17.4438 14.6484 17.334 14.8682 17.2241L16.1865 18.0298C16.4795 18.2373 16.8213 18.2007 17.0654 17.9565L17.9321 17.0776C18.1885 16.8335 18.2251 16.4795 18.0176 16.1743L17.2241 14.8682C17.334 14.6362 17.4316 14.3921 17.5171 14.1357L19.0308 13.7939C19.3848 13.7085 19.5923 13.4521 19.5923 13.0859L19.5923 11.853C19.5923 11.499 19.3848 11.2427 19.0308 11.1694L17.5293 10.8032C17.4316 10.5225 17.3218 10.2783 17.2363 10.0586L18.042 8.74023C18.2251 8.44727 18.2129 8.11768 17.9565 7.84912L17.0654 6.98242C16.8213 6.75049 16.5161 6.70166 16.1987 6.87256L14.8682 7.69043C14.6484 7.59277 14.3921 7.48291 14.1235 7.39746L13.7573 5.87158C13.6841 5.51758 13.4277 5.31006 13.0737 5.31006L11.8042 5.31006C11.4502 5.31006 11.1938 5.51758 11.1206 5.87158L10.7544 7.38525C10.498 7.4707 10.2295 7.56836 9.99756 7.69043L8.6792 6.87256C8.37402 6.70166 8.06885 6.73828 7.8125 6.98242L6.92139 7.84912C6.66504 8.11768 6.65283 8.44727 6.83594 8.74023L7.6416 10.0586C7.55615 10.2783 7.44629 10.5225 7.34863 10.8032L5.84717 11.1694C5.49316 11.2427 5.29785 11.499 5.29785 11.853L5.29785 13.0859C5.29785 13.4521 5.49316 13.7085 5.84717 13.7939L7.36084 14.1357C7.44629 14.3921 7.54395 14.6362 7.65381 14.8682L6.86035 16.1743C6.65283 16.4795 6.68945 16.8335 6.9458 17.0776L7.8125 17.9565C8.06885 18.2007 8.41064 18.2373 8.69141 18.0298L10.0098 17.2241C10.2295 17.334 10.498 17.4438 10.7544 17.5293L11.1206 19.0308C11.1938 19.3848 11.4502 19.6045 11.8042 19.6045ZM12.439 14.8682C11.1084 14.8682 10.022 13.7695 10.022 12.439C10.022 11.1206 11.1084 10.0464 12.439 10.0464C13.7695 10.0464 14.856 11.1206 14.856 12.439C14.856 13.7695 13.7695 14.8682 12.439 14.8682Z" fill="#5ac8f5"/>
 </g>
</svg>
