<?xml version="1.0" encoding="UTF-8"?>
<!--Generator: Apple Native CoreSVG 175.5-->
<!DOCTYPE svg
PUBLIC "-//W3C//DTD SVG 1.1//EN"
       "http://www.w3.org/Graphics/SVG/1.1/DTD/svg11.dtd">
<svg version="1.1" xmlns="http://www.w3.org/2000/svg" xmlns:xlink="http://www.w3.org/1999/xlink" width="38.9893" height="22.6929">
 <g>
  <rect height="22.6929" opacity="0" width="38.9893" x="0" y="0"/>
  <path d="M11.5479 19.2505L11.5479 17.6514C8.08105 17.5903 4.52881 17.4194 3.00293 17.2485C1.96533 17.1387 1.59912 16.5894 1.59912 15.6616L1.59912 14.0015C1.59912 12.3291 1.86768 11.5479 2.81982 10.3027L4.06494 8.66699C4.39453 6.89697 5.18799 4.43115 5.71289 3.30811C6.10352 2.46582 6.87256 1.94092 7.9834 1.80664C8.76465 1.70898 11.2427 1.59912 14.4409 1.59912C16.2109 1.59912 17.7368 1.63574 18.9209 1.68457L19.5801 0.0732422C18.3228 0.0244141 16.4917 0 14.4409 0C11.2915 0 8.61816 0.0732422 7.80029 0.170898C6.17676 0.366211 4.90723 1.2085 4.26025 2.58789C3.83301 3.49121 3.02734 5.79834 2.57568 7.99561L1.55029 9.32617C0.415039 10.791 0 11.9385 0 14.0015L0 15.9058C0 17.6392 0.90332 18.6157 2.57568 18.811C4.38232 19.043 8.05664 19.1895 11.5479 19.2505ZM13.7451 8.00781L15.0146 2.94189C14.8315 2.94189 14.6362 2.94189 14.4409 2.94189C11.1694 2.94189 9.16748 3.02734 8.27637 3.14941C7.6416 3.23486 7.2876 3.479 6.97021 4.02832C6.57959 4.69971 6.01807 6.38428 5.7251 7.67822C5.62744 8.10547 5.81055 8.27637 6.27441 8.25195C8.10547 8.11768 10.2661 8.02002 13.7451 8.00781ZM2.24609 22.644L3.67432 22.644C4.58984 22.644 5.29785 21.936 5.29785 21.0327L5.29785 18.1641L0.622559 17.4683L0.622559 21.0327C0.622559 21.936 1.33057 22.644 2.24609 22.644ZM5.63965 15.9912C6.75049 15.9912 7.60498 15.1367 7.60498 14.0259C7.60498 12.9028 6.75049 12.0605 5.63965 12.0605C4.52881 12.0605 3.67432 12.9028 3.67432 14.0259C3.67432 15.1367 4.52881 15.9912 5.63965 15.9912ZM24.5483 19.2871C28.6499 19.2871 34.0942 19.0796 36.4136 18.811C38.0615 18.6279 38.9893 17.7124 38.9893 16.1499L38.9893 14.0015C38.9893 11.9385 38.5742 10.791 37.439 9.32617L36.4136 7.99561C35.9619 5.79834 35.1562 3.49121 34.729 2.58789C34.082 1.2085 32.8125 0.390625 31.189 0.170898C30.3711 0.0610352 27.6978 0 24.5483 0C21.3867 0 18.7134 0.0732422 17.8955 0.170898C16.272 0.366211 15.0024 1.2085 14.3555 2.58789C13.9404 3.49121 13.1226 5.79834 12.6831 7.99561L11.6455 9.32617C10.5103 10.791 10.0952 11.9385 10.0952 14.0015L10.0952 16.1499C10.0952 17.7124 11.0229 18.6279 12.6831 18.811C14.9902 19.0796 20.4346 19.2871 24.5483 19.2871ZM24.5483 17.688C20.3979 17.688 15.0635 17.4927 13.1104 17.2485C12.0728 17.1265 11.6943 16.5894 11.6943 15.6616L11.6943 14.0015C11.6943 12.3291 11.9751 11.5479 12.915 10.3027L14.1724 8.66699C14.4897 6.89697 15.2954 4.43115 15.8081 3.30811C16.2109 2.46582 16.98 1.94092 18.0908 1.80664C18.8721 1.70898 21.3379 1.59912 24.5483 1.59912C27.7466 1.59912 30.2734 1.70898 30.9814 1.80664C32.1289 1.95312 32.8857 2.47803 33.2764 3.30811C33.8135 4.43115 34.5947 6.89697 34.9243 8.66699L36.1694 10.3027C37.1216 11.5479 37.3901 12.3291 37.3901 14.0015L37.3901 15.6616C37.3901 16.5894 37.0239 17.1265 35.9741 17.2485C34.021 17.4927 28.6987 17.688 24.5483 17.688ZM15.8325 7.67822C15.7349 8.10547 15.918 8.27637 16.3696 8.25195C18.3228 8.11768 20.6421 8.00781 24.5483 8.00781C28.4424 8.00781 30.7617 8.11768 32.7148 8.25195C33.1787 8.27637 33.3496 8.10547 33.252 7.67822C32.959 6.38428 32.4097 4.69971 32.019 4.02832C31.7017 3.479 31.3477 3.23486 30.7129 3.14941C29.8218 3.02734 27.8198 2.94189 24.5483 2.94189C21.2646 2.94189 19.2627 3.02734 18.3838 3.14941C17.749 3.23486 17.3828 3.479 17.0654 4.02832C16.687 4.69971 16.1255 6.38428 15.8325 7.67822ZM12.3413 22.644L13.7817 22.644C14.6973 22.644 15.3931 21.936 15.3931 21.0327L15.3931 18.1274L10.73 17.4561L10.73 21.0327C10.73 21.936 11.4258 22.644 12.3413 22.644ZM35.3149 22.644L36.7432 22.644C37.6587 22.644 38.3667 21.936 38.3667 21.0327L38.3667 17.4561L33.6914 18.1274L33.6914 21.0327C33.6914 21.936 34.3994 22.644 35.3149 22.644ZM15.7471 15.9912C16.8579 15.9912 17.7002 15.1367 17.7002 14.0259C17.7002 12.9028 16.8579 12.0605 15.7471 12.0605C14.624 12.0605 13.7817 12.9028 13.7817 14.0259C13.7817 15.1367 14.624 15.9912 15.7471 15.9912ZM21.3135 15.5029L27.771 15.5029C28.6133 15.5029 29.187 14.9292 29.187 14.0869C29.187 13.2568 28.6133 12.6831 27.771 12.6831L21.3135 12.6831C20.4834 12.6831 19.8975 13.2568 19.8975 14.0869C19.8975 14.9292 20.4834 15.5029 21.3135 15.5029ZM33.3496 15.9912C34.4604 15.9912 35.3149 15.1367 35.3149 14.0259C35.3149 12.9028 34.4604 12.0605 33.3496 12.0605C32.2266 12.0605 31.3843 12.9028 31.3843 14.0259C31.3843 15.1367 32.2266 15.9912 33.3496 15.9912Z" fill="#5ac8f5"/>
 </g>
</svg>
