<?xml version="1.0" encoding="UTF-8"?>
<!--Generator: Apple Native CoreSVG 175.5-->
<!DOCTYPE svg
PUBLIC "-//W3C//DTD SVG 1.1//EN"
       "http://www.w3.org/Graphics/SVG/1.1/DTD/svg11.dtd">
<svg version="1.1" xmlns="http://www.w3.org/2000/svg" xmlns:xlink="http://www.w3.org/1999/xlink" width="12.6465" height="17.4683">
 <g>
  <rect height="17.4683" opacity="0" width="12.6465" x="0" y="0"/>
  <path d="M0.976562 17.4561L8.69141 17.4561C9.26514 17.4561 9.68018 17.1021 9.68018 16.5283C9.68018 15.979 9.27734 15.625 8.70361 15.625L5.96924 15.625L8.93555 1.83105L11.6699 1.83105C12.2437 1.83105 12.6465 1.47705 12.6465 0.90332C12.6465 0.354004 12.2559 0 11.6821 0L3.93066 0C3.35693 0 2.96631 0.354004 2.96631 0.90332C2.96631 1.47705 3.36914 1.83105 3.94287 1.83105L6.67725 1.83105L3.71094 15.625L0.964355 15.625C0.390625 15.625 0 15.979 0 16.5283C0 17.1021 0.402832 17.4561 0.976562 17.4561Z" fill="#5ac8f5"/>
 </g>
</svg>
