<?xml version="1.0" encoding="UTF-8"?>
<!--Generator: Apple Native CoreSVG 175.5-->
<!DOCTYPE svg
PUBLIC "-//W3C//DTD SVG 1.1//EN"
       "http://www.w3.org/Graphics/SVG/1.1/DTD/svg11.dtd">
<svg version="1.1" xmlns="http://www.w3.org/2000/svg" xmlns:xlink="http://www.w3.org/1999/xlink" width="22.4731" height="22.4976">
 <g>
  <rect height="22.4976" opacity="0" width="22.4731" x="0" y="0"/>
  <path d="M3.83301 22.4976L18.6401 22.4976C21.2036 22.4976 22.4731 21.228 22.4731 18.7134L22.4731 3.80859C22.4731 1.29395 21.2036 0.0244141 18.6401 0.0244141L3.83301 0.0244141C1.28174 0.0244141 0 1.28174 0 3.80859L0 18.7134C0 21.2402 1.28174 22.4976 3.83301 22.4976ZM7.62939 17.749C6.89697 18.3105 6.11572 17.7368 6.40869 16.8701L7.82471 12.6099L4.1748 10.0098C3.49121 9.50928 3.72314 8.53271 4.65088 8.54492L9.13086 8.58154L10.498 4.29688C10.7666 3.45459 11.7188 3.45459 11.9873 4.29688L13.3545 8.58154L17.8345 8.54492C18.7744 8.53271 18.9819 9.52148 18.3105 9.99756L14.6606 12.6099L16.0889 16.8701C16.3696 17.7368 15.6006 18.3105 14.856 17.749L11.2427 15.1123Z" fill="#5ac8f5"/>
 </g>
</svg>
