<?xml version="1.0" encoding="UTF-8"?>
<!--Generator: Apple Native CoreSVG 175.5-->
<!DOCTYPE svg
PUBLIC "-//W3C//DTD SVG 1.1//EN"
       "http://www.w3.org/Graphics/SVG/1.1/DTD/svg11.dtd">
<svg version="1.1" xmlns="http://www.w3.org/2000/svg" xmlns:xlink="http://www.w3.org/1999/xlink" width="24.9023" height="24.9146">
 <g>
  <rect height="24.9146" opacity="0" width="24.9023" x="0" y="0"/>
  <path d="M12.4512 24.9023C19.2627 24.9023 24.9023 19.2505 24.9023 12.4512C24.9023 5.63965 19.2505 0 12.439 0C5.63965 0 0 5.63965 0 12.4512C0 19.2505 5.65186 24.9023 12.4512 24.9023ZM12.4512 22.8271C6.68945 22.8271 2.0874 18.2129 2.0874 12.4512C2.0874 6.68945 6.67725 2.0752 12.439 2.0752C18.2007 2.0752 22.8271 6.68945 22.8271 12.4512C22.8271 18.2129 18.2129 22.8271 12.4512 22.8271ZM4.63867 12.4512C4.63867 14.4165 6.22559 16.0156 8.19092 16.0156L16.6992 16.0156C18.6646 16.0156 20.2515 14.4165 20.2515 12.4512C20.2515 10.4858 18.6646 8.88672 16.6992 8.88672C14.7339 8.88672 13.1348 10.4858 13.1348 12.4512C13.1348 13.269 13.4155 14.0503 13.9404 14.6606L10.9497 14.6606C11.4746 14.0503 11.7554 13.269 11.7554 12.4512C11.7554 10.4858 10.1685 8.88672 8.19092 8.88672C6.22559 8.88672 4.63867 10.4858 4.63867 12.4512ZM5.99365 12.439C5.99365 11.2305 6.99463 10.2417 8.20312 10.2417C9.41162 10.2417 10.4004 11.2305 10.4004 12.439C10.4004 13.6719 9.42383 14.6606 8.20312 14.6606C6.98242 14.6606 5.99365 13.6597 5.99365 12.439ZM14.4897 12.439C14.4897 11.2305 15.4785 10.2417 16.687 10.2417C17.8955 10.2417 18.8965 11.2305 18.8965 12.439C18.8965 13.6597 17.9077 14.6606 16.687 14.6606C15.4663 14.6606 14.4897 13.6719 14.4897 12.439Z" fill="#5ac8f5"/>
 </g>
</svg>
