<?xml version="1.0" encoding="UTF-8"?>
<!--Generator: Apple Native CoreSVG 175.5-->
<!DOCTYPE svg
PUBLIC "-//W3C//DTD SVG 1.1//EN"
       "http://www.w3.org/Graphics/SVG/1.1/DTD/svg11.dtd">
<svg version="1.1" xmlns="http://www.w3.org/2000/svg" xmlns:xlink="http://www.w3.org/1999/xlink" width="18.1885" height="22.6929">
 <g>
  <rect height="22.6929" opacity="0" width="18.1885" x="0" y="0"/>
  <path d="M17.2974 10.2051C17.8345 10.2051 18.1885 9.85107 18.1885 9.33838L18.1885 0.98877C18.1885 0.378418 17.8223 0 17.2241 0C16.687 0 16.4185 0.20752 16.0645 0.45166L14.1113 1.79443C13.7573 2.02637 13.623 2.24609 13.623 2.50244C13.623 2.91748 13.9282 3.22266 14.3066 3.22266C14.5508 3.22266 14.6973 3.14941 14.9414 2.97852L16.3696 2.02637L16.4062 2.02637L16.4062 9.33838C16.4062 9.85107 16.7725 10.2051 17.2974 10.2051ZM1.02539 20.3491C1.67236 20.3491 1.98975 20.105 2.22168 19.4214L3.79639 15.1123L10.9985 15.1123L12.5732 19.4214C12.8052 20.105 13.1226 20.3491 13.7573 20.3491C14.4043 20.3491 14.8193 19.9585 14.8193 19.3481C14.8193 19.1406 14.7827 18.9453 14.6851 18.689L8.95996 3.44238C8.6792 2.69775 8.17871 2.31934 7.39746 2.31934C6.64062 2.31934 6.12793 2.68555 5.85938 3.43018L0.134277 18.7012C0.0366211 18.9575 0 19.1528 0 19.3604C0 19.9707 0.390625 20.3491 1.02539 20.3491ZM4.39453 13.2568L7.36084 5.0415L7.42188 5.0415L10.3882 13.2568Z" fill="#5ac8f5"/>
 </g>
</svg>
