<?xml version="1.0" encoding="UTF-8"?>
<!--Generator: Apple Native CoreSVG 175.5-->
<!DOCTYPE svg
PUBLIC "-//W3C//DTD SVG 1.1//EN"
       "http://www.w3.org/Graphics/SVG/1.1/DTD/svg11.dtd">
<svg version="1.1" xmlns="http://www.w3.org/2000/svg" xmlns:xlink="http://www.w3.org/1999/xlink" width="29.4678" height="23.3765">
 <g>
  <rect height="23.3765" opacity="0" width="29.4678" x="0" y="0"/>
  <path d="M2.2583 13.0615L4.28467 13.0615C5.7251 13.0615 6.53076 12.2803 6.53076 10.8765L6.53076 2.18506C6.53076 0.78125 5.7251 0 4.28467 0L2.2583 0C0.805664 0 0 0.78125 0 2.18506L0 10.8765C0 12.2803 0.805664 13.0615 2.2583 13.0615ZM5.62744 10.1196L10.7422 10.1196L12.0728 7.62939C12.6709 6.49414 13.5864 5.896 14.7461 5.896C15.8936 5.896 16.7969 6.49414 17.4072 7.62939L18.7622 10.1196L23.8525 10.1196L23.8525 2.86865L5.62744 2.86865ZM25.1953 13.0615L27.2095 13.0615C28.6743 13.0615 29.4678 12.2803 29.4678 10.8765L29.4678 2.18506C29.4678 0.78125 28.6743 0 27.2095 0L25.1953 0C23.7427 0 22.937 0.78125 22.937 2.18506L22.937 10.8765C22.937 12.2803 23.7427 13.0615 25.1953 13.0615ZM14.7461 23.3765C17.7856 23.3765 20.2026 21.0083 20.2026 18.042C20.2026 16.4185 19.3848 14.8071 18.7012 13.5376L15.9546 8.42285C15.6372 7.83691 15.2832 7.56836 14.7461 7.56836C14.209 7.56836 13.855 7.83691 13.5376 8.41064L10.8032 13.5376C10.1196 14.8071 9.30176 16.4185 9.30176 18.042C9.30176 21.0083 11.7188 23.3765 14.7461 23.3765Z" fill="#5ac8f5"/>
 </g>
</svg>
