<?xml version="1.0" encoding="UTF-8"?>
<!--Generator: Apple Native CoreSVG 175.5-->
<!DOCTYPE svg
PUBLIC "-//W3C//DTD SVG 1.1//EN"
       "http://www.w3.org/Graphics/SVG/1.1/DTD/svg11.dtd">
<svg version="1.1" xmlns="http://www.w3.org/2000/svg" xmlns:xlink="http://www.w3.org/1999/xlink" width="28.1738" height="28.3813">
 <g>
  <rect height="28.3813" opacity="0" width="28.1738" x="0" y="0"/>
  <path d="M8.28857 17.6025L12.1338 17.6025C8.87451 16.6626 6.83594 13.8184 6.83594 10.3149C6.83594 7.78809 7.94678 5.5542 9.74121 4.04053C9.5459 4.73633 9.44824 5.61523 9.44824 6.53076C9.44824 11.8408 13.1104 15.4053 18.5425 15.4053C19.2383 15.4053 19.9707 15.3198 20.5322 15.21C19.6289 16.3086 18.3228 17.1509 16.7603 17.6025L20.5444 17.6147C21.6064 16.7603 22.4487 15.6616 22.998 14.3799C23.2056 13.9038 23.1567 13.4888 22.9126 13.2324C22.6929 13.0127 22.3267 12.9761 21.8994 13.1348C21.0815 13.4521 20.1172 13.6108 18.9331 13.6108C14.2212 13.6108 11.2183 10.6934 11.2183 6.09131C11.2183 4.87061 11.438 3.56445 11.7798 2.88086C11.9995 2.45361 11.9995 2.01416 11.7554 1.75781C11.499 1.48926 11.084 1.41602 10.5835 1.62354C7.25098 2.97852 4.99268 6.45752 4.99268 10.4492C4.99268 13.3545 6.17676 15.9424 8.28857 17.6025Z" fill="#5ac8f5" fill-opacity="0.5"/>
  <path d="M2.6123 18.9941L27.4048 18.9941C27.832 18.9941 28.1738 18.6646 28.1738 18.2251C28.1738 17.7856 27.832 17.4561 27.4048 17.4561L2.6123 17.4561C2.17285 17.4561 1.84326 17.7856 1.84326 18.2251C1.84326 18.6646 2.17285 18.9941 2.6123 18.9941ZM0.769043 23.6938L25.5615 23.6938C25.9888 23.6938 26.3306 23.3521 26.3306 22.9126C26.3306 22.4731 25.9888 22.1436 25.5615 22.1436L0.769043 22.1436C0.341797 22.1436 0 22.4731 0 22.9126C0 23.3521 0.341797 23.6938 0.769043 23.6938ZM2.6123 28.3813L27.4048 28.3813C27.832 28.3813 28.1738 28.0518 28.1738 27.6123C28.1738 27.1606 27.832 26.8311 27.4048 26.8311L2.6123 26.8311C2.17285 26.8311 1.84326 27.1606 1.84326 27.6123C1.84326 28.0518 2.17285 28.3813 2.6123 28.3813Z" fill="#5ac8f5"/>
 </g>
</svg>
