<?xml version="1.0" encoding="UTF-8"?>
<!--Generator: Apple Native CoreSVG 175.5-->
<!DOCTYPE svg
PUBLIC "-//W3C//DTD SVG 1.1//EN"
       "http://www.w3.org/Graphics/SVG/1.1/DTD/svg11.dtd">
<svg version="1.1" xmlns="http://www.w3.org/2000/svg" xmlns:xlink="http://www.w3.org/1999/xlink" width="26.4211" height="24.7925">
 <g>
  <rect height="24.7925" opacity="0" width="26.4211" x="0" y="0"/>
  <path d="M0.720215 6.61621L1.37939 6.61621C1.78223 6.61621 2.0874 6.31104 2.0874 5.896L2.0874 0.720215C2.0874 0.305176 1.78223 0 1.37939 0L0.720215 0C0.305176 0 0 0.305176 0 0.720215L0 5.896C0 6.31104 0.305176 6.61621 0.720215 6.61621ZM0.720215 15.6616L1.37939 15.6616C1.78223 15.6616 2.0874 15.3564 2.0874 14.9414L2.0874 9.77783C2.0874 9.375 1.78223 9.06982 1.37939 9.06982L0.720215 9.06982C0.305176 9.06982 0 9.375 0 9.77783L0 14.9414C0 15.3564 0.305176 15.6616 0.720215 15.6616ZM0.720215 24.7314L1.37939 24.7314C1.78223 24.7314 2.0874 24.4263 2.0874 24.0112L2.0874 18.8354C2.0874 18.4204 1.78223 18.1152 1.37939 18.1152L0.720215 18.1152C0.305176 18.1152 0 18.4204 0 18.8354L0 24.0112C0 24.4263 0.305176 24.7314 0.720215 24.7314ZM22.7783 4.27246L24.8657 5.45654L24.8657 0.720215C24.8657 0.305176 24.5605 0 24.1455 0L23.4985 0C23.0835 0 22.7783 0.305176 22.7783 0.720215ZM23.4985 24.7192L24.1455 24.7192C24.5605 24.7192 24.8657 24.4141 24.8657 24.0112L24.8657 18.8354C24.8657 18.4204 24.5605 18.1152 24.1455 18.1152L23.4985 18.1152C23.0835 18.1152 22.7783 18.4204 22.7783 18.8354L22.7783 24.0112C22.7783 24.4141 23.0835 24.7192 23.4985 24.7192ZM11.4746 22.1558C15.2222 24.3042 17.395 24.4385 18.6401 22.29L25.9277 9.64355C27.2217 7.42188 25.9277 4.93164 22.5464 2.99072C19.1895 1.06201 16.394 1.17188 15.1123 3.39355L7.8125 16.04C6.56738 18.1885 7.75146 20.0073 11.4746 22.1558ZM17.9321 10.9863C17.2119 10.5713 16.0767 10.022 15.6982 9.77783C15.0757 9.43604 14.9658 9.021 15.271 8.37402L15.9424 6.89697C16.5283 5.67627 17.5415 5.67627 20.1294 7.17773C22.7417 8.6792 23.2422 9.55811 22.4854 10.6567L21.5454 11.9873C21.1182 12.6099 20.6909 12.6831 20.105 12.3413C19.7266 12.1216 18.6157 11.3892 17.9321 10.9863ZM13.269 19.0674C10.6934 17.5781 10.083 16.7236 10.9497 15.625L11.4502 15.0024C12.1338 14.1235 13.0737 14.27 15.2954 15.564C17.5415 16.8457 18.1152 17.5659 17.7002 18.6157L17.4194 19.3604C16.9189 20.6543 15.8569 20.5688 13.269 19.0674ZM13.5498 7.99561L14.7095 5.99365L13.4766 5.27344C13.0005 4.99268 12.4268 5.13916 12.1582 5.60303L11.9385 5.96924C11.6699 6.4209 11.8408 7.01904 12.3047 7.2876ZM22.7295 13.2935L23.9624 14.0137C24.4385 14.2944 25.0366 14.1357 25.293 13.6841L25.5005 13.3057C25.7568 12.8418 25.6104 12.2681 25.1221 11.9873L23.8892 11.2793Z" fill="#5ac8f5"/>
 </g>
</svg>
