<?xml version="1.0" encoding="UTF-8"?>
<!--Generator: Apple Native CoreSVG 175.5-->
<!DOCTYPE svg
PUBLIC "-//W3C//DTD SVG 1.1//EN"
       "http://www.w3.org/Graphics/SVG/1.1/DTD/svg11.dtd">
<svg version="1.1" xmlns="http://www.w3.org/2000/svg" xmlns:xlink="http://www.w3.org/1999/xlink" width="25.6958" height="27.063">
 <g>
  <rect height="27.063" opacity="0" width="25.6958" x="0" y="0"/>
  <path d="M2.62451 4.95605L23.0591 4.95605C22.876 3.84521 22.3511 3.23486 21.1304 3.23486L4.55322 3.23486C3.33252 3.23486 2.80762 3.84521 2.62451 4.95605ZM5.13916 1.57471L20.5444 1.57471C20.4712 0.537109 19.8853 0 18.75 0L6.92139 0C5.79834 0 5.2124 0.537109 5.13916 1.57471ZM2.20947 26.9897L23.4741 26.9897C24.8413 26.9897 25.6958 26.1353 25.6958 24.8169L25.6958 9.10645C25.6958 7.78809 24.8413 6.92139 23.4741 6.92139L2.20947 6.92139C0.854492 6.92139 0 7.78809 0 9.10645L0 24.8169C0 26.1353 0.854492 26.9897 2.20947 26.9897ZM2.22168 25.2319C1.86768 25.2319 1.64795 25 1.64795 24.6704L1.64795 23.4497C1.64795 23.1323 1.85547 22.9248 2.18506 22.9248L3.58887 22.9248C3.90625 22.9248 4.10156 23.1323 4.10156 23.4497L4.10156 24.7192C4.10156 25.0122 3.90625 25.2319 3.58887 25.2319ZM2.18506 21.6187C1.85547 21.6187 1.64795 21.3867 1.64795 21.1182L1.64795 19.873C1.64795 19.5557 1.84326 19.3481 2.18506 19.3481L3.58887 19.3481C3.90625 19.3481 4.10156 19.5557 4.10156 19.873L4.10156 21.1182C4.10156 21.3867 3.90625 21.6187 3.58887 21.6187ZM2.18506 18.1152C1.85547 18.1152 1.64795 17.8711 1.64795 17.5781L1.64795 16.3696C1.64795 16.0278 1.84326 15.8081 2.18506 15.8081L3.58887 15.8081C3.90625 15.8081 4.10156 16.0278 4.10156 16.3696L4.10156 17.5781C4.10156 17.8711 3.90625 18.1152 3.58887 18.1152ZM2.18506 14.5874C1.85547 14.5874 1.64795 14.3555 1.64795 14.0991L1.64795 12.8296C1.64795 12.5366 1.84326 12.3047 2.18506 12.3047L3.58887 12.3047C3.90625 12.3047 4.10156 12.5366 4.10156 12.8296L4.10156 14.0991C4.10156 14.3555 3.90625 14.5874 3.58887 14.5874ZM2.18506 10.9863C1.85547 10.9863 1.64795 10.7666 1.64795 10.4858L1.64795 9.25293C1.64795 8.91113 1.86768 8.6792 2.22168 8.6792L3.58887 8.6792C3.90625 8.6792 4.10156 8.89893 4.10156 9.21631L4.10156 10.4858C4.10156 10.7666 3.90625 10.9863 3.58887 10.9863ZM22.0947 25.2319C21.8018 25.2319 21.5942 25.0122 21.5942 24.7192L21.5942 23.4497C21.5942 23.1323 21.8018 22.9248 22.0947 22.9248L23.5107 22.9248C23.8281 22.9248 24.0479 23.1323 24.0479 23.4497L24.0479 24.6704C24.0479 25 23.8281 25.2319 23.4741 25.2319ZM22.0947 21.6187C21.8018 21.6187 21.5942 21.3867 21.5942 21.1182L21.5942 19.873C21.5942 19.5557 21.8018 19.3481 22.0947 19.3481L23.5107 19.3481C23.8403 19.3481 24.0479 19.5557 24.0479 19.873L24.0479 21.1182C24.0479 21.3867 23.8281 21.6187 23.5107 21.6187ZM22.0947 18.1152C21.8018 18.1152 21.5942 17.8711 21.5942 17.5781L21.5942 16.3696C21.5942 16.0278 21.8018 15.8081 22.0947 15.8081L23.5107 15.8081C23.8403 15.8081 24.0479 16.0278 24.0479 16.3696L24.0479 17.5781C24.0479 17.8711 23.8281 18.1152 23.5107 18.1152ZM22.0947 14.5874C21.8018 14.5874 21.5942 14.3555 21.5942 14.0991L21.5942 12.8296C21.5942 12.5366 21.8018 12.3047 22.0947 12.3047L23.5107 12.3047C23.8403 12.3047 24.0479 12.5366 24.0479 12.8296L24.0479 14.0991C24.0479 14.3555 23.8281 14.5874 23.5107 14.5874ZM22.0947 10.9863C21.8018 10.9863 21.5942 10.7666 21.5942 10.4858L21.5942 9.21631C21.5942 8.89893 21.8018 8.6792 22.0947 8.6792L23.4741 8.6792C23.8281 8.6792 24.0479 8.91113 24.0479 9.25293L24.0479 10.4858C24.0479 10.7666 23.8281 10.9863 23.5107 10.9863ZM5.35889 16.9556C5.35889 16.4917 5.71289 16.1255 6.17676 16.1255L19.519 16.1255C19.9829 16.1255 20.3491 16.4917 20.3491 16.9556C20.3491 17.4072 19.9829 17.7856 19.519 17.7856L6.17676 17.7856C5.71289 17.7856 5.35889 17.4072 5.35889 16.9556Z" fill="#5ac8f5"/>
 </g>
</svg>
