<?xml version="1.0" encoding="UTF-8"?>
<!--Generator: Apple Native CoreSVG 175.5-->
<!DOCTYPE svg
PUBLIC "-//W3C//DTD SVG 1.1//EN"
       "http://www.w3.org/Graphics/SVG/1.1/DTD/svg11.dtd">
<svg version="1.1" xmlns="http://www.w3.org/2000/svg" xmlns:xlink="http://www.w3.org/1999/xlink" width="22.4731" height="22.4976">
 <g>
  <rect height="22.4976" opacity="0" width="22.4731" x="0" y="0"/>
  <path d="M3.83301 22.4976L18.6401 22.4976C21.2036 22.4976 22.4731 21.228 22.4731 18.7134L22.4731 3.80859C22.4731 1.29395 21.2036 0.0244141 18.6401 0.0244141L3.83301 0.0244141C1.28174 0.0244141 0 1.28174 0 3.80859L0 18.7134C0 21.2402 1.28174 22.4976 3.83301 22.4976ZM3.85742 20.5322C2.63672 20.5322 1.96533 19.8853 1.96533 18.6157L1.96533 3.90625C1.96533 2.63672 2.63672 1.98975 3.85742 1.98975L18.6157 1.98975C19.8242 1.98975 20.5078 2.63672 20.5078 3.90625L20.5078 18.6157C20.5078 19.8853 19.8242 20.5322 18.6157 20.5322Z" fill="#5ac8f5" fill-opacity="0.5"/>
  <path d="M7.38525 16.8335C8.02002 16.8335 8.37402 16.4307 8.37402 15.7471L8.37402 11.7188L14.0869 11.7188L14.0869 15.7471C14.0869 16.4185 14.4531 16.8335 15.0513 16.8335C15.686 16.8335 16.04 16.4307 16.04 15.7471L16.04 6.50635C16.04 5.82275 15.686 5.41992 15.0513 5.41992C14.4531 5.41992 14.0869 5.83496 14.0869 6.50635L14.0869 10.1929L8.37402 10.1929L8.37402 6.50635C8.37402 5.82275 8.02002 5.41992 7.38525 5.41992C6.78711 5.41992 6.43311 5.83496 6.43311 6.50635L6.43311 15.7471C6.43311 16.4185 6.78711 16.8335 7.38525 16.8335Z" fill="#5ac8f5"/>
 </g>
</svg>
