<?xml version="1.0" encoding="UTF-8"?>
<!--Generator: Apple Native CoreSVG 175.5-->
<!DOCTYPE svg
PUBLIC "-//W3C//DTD SVG 1.1//EN"
       "http://www.w3.org/Graphics/SVG/1.1/DTD/svg11.dtd">
<svg version="1.1" xmlns="http://www.w3.org/2000/svg" xmlns:xlink="http://www.w3.org/1999/xlink" width="34.8389" height="23.8159">
 <g>
  <rect height="23.8159" opacity="0" width="34.8389" x="0" y="0"/>
  <path d="M17.4194 23.8037C23.9258 23.8037 29.3335 18.4082 29.3335 11.9019C29.3335 5.39551 23.9258 0 17.4072 0C10.9009 0 5.51758 5.3833 5.51758 11.9019C5.51758 18.4082 10.9131 23.8037 17.4194 23.8037ZM17.4194 21.7285C11.9751 21.7285 7.60498 17.3584 7.60498 11.9019C7.60498 6.43311 11.9629 2.06299 17.4072 2.06299C22.8638 2.06299 27.2461 6.43311 27.2583 11.9019C27.2705 17.3462 22.8882 21.7285 17.4194 21.7285ZM0 11.9019C0 15.7715 1.25732 19.3237 3.38135 22.2168C3.75977 22.7417 4.40674 22.7905 4.89502 22.3999C5.33447 22.0215 5.39551 21.4355 5.0415 20.9473C3.18604 18.4204 2.0874 15.2832 2.0874 11.9019C2.0874 8.5083 3.18604 5.3833 5.0415 2.83203C5.39551 2.36816 5.34668 1.77002 4.89502 1.3916C4.40674 1.00098 3.75977 1.06201 3.38135 1.57471C1.25732 4.46777 0 8.03223 0 11.9019ZM34.8389 11.9019C34.8389 8.03223 33.5938 4.46777 31.4575 1.57471C31.0791 1.06201 30.4321 1.00098 29.9438 1.3916C29.4922 1.77002 29.4556 2.36816 29.7974 2.83203C31.665 5.3833 32.7515 8.5083 32.7515 11.9019C32.7515 15.2832 31.665 18.4204 29.7974 20.9473C29.4556 21.4355 29.5044 22.0215 29.9438 22.3999C30.4321 22.7905 31.0791 22.7417 31.4575 22.2168C33.5938 19.3237 34.8389 15.7715 34.8389 11.9019ZM16.9434 18.5059C18.4937 18.5059 19.751 17.2607 19.751 15.686C19.751 14.5996 19.1284 13.7085 18.2373 13.2202C17.9565 13.0737 17.8467 12.8906 17.8467 12.439L17.8467 6.54297C17.8467 6.04248 17.4438 5.62744 16.9434 5.62744C16.4307 5.62744 16.0278 6.04248 16.0278 6.54297L16.0278 12.439C16.0278 12.8906 15.9302 13.0737 15.6372 13.2202C14.7461 13.7085 14.1357 14.5996 14.1357 15.686C14.1357 17.2607 15.3809 18.5059 16.9434 18.5059ZM19.8853 8.1665L22.1191 8.1665C22.4487 8.1665 22.7173 7.89795 22.7173 7.55615C22.7173 7.22656 22.4487 6.95801 22.1191 6.95801L19.8853 6.95801C19.5557 6.95801 19.2749 7.22656 19.2749 7.55615C19.2749 7.89795 19.5557 8.1665 19.8853 8.1665ZM19.8853 10.3271L22.1191 10.3271C22.4487 10.3271 22.7173 10.0464 22.7173 9.7168C22.7173 9.38721 22.4487 9.11865 22.1191 9.11865L19.8853 9.11865C19.5557 9.11865 19.2749 9.38721 19.2749 9.7168C19.2749 10.0464 19.5557 10.3271 19.8853 10.3271ZM19.8853 12.5L22.1191 12.5C22.4487 12.5 22.7173 12.2192 22.7173 11.8774C22.7173 11.5601 22.4487 11.2915 22.1191 11.2915L19.8853 11.2915C19.5557 11.2915 19.2749 11.5601 19.2749 11.8774C19.2749 12.2192 19.5557 12.5 19.8853 12.5Z" fill="#5ac8f5"/>
 </g>
</svg>
