<?xml version="1.0" encoding="UTF-8"?>
<!--Generator: Apple Native CoreSVG 175.5-->
<!DOCTYPE svg
PUBLIC "-//W3C//DTD SVG 1.1//EN"
       "http://www.w3.org/Graphics/SVG/1.1/DTD/svg11.dtd">
<svg version="1.1" xmlns="http://www.w3.org/2000/svg" xmlns:xlink="http://www.w3.org/1999/xlink" width="25" height="25.6226">
 <g>
  <rect height="25.6226" opacity="0" width="25" x="0" y="0"/>
  <path d="M1.02539 2.05078L10.4858 2.05078C11.0474 2.05078 11.5234 1.57471 11.5234 1.01318C11.5234 0.45166 11.0474 0 10.4858 0L1.02539 0C0.415039 0 0 0.45166 0 1.01318C0 1.57471 0.415039 2.05078 1.02539 2.05078ZM5.77393 25.5737C8.55713 25.5737 10.4004 23.7305 10.4004 20.9473L10.4004 1.02539L8.44727 1.02539L8.44727 20.9473C8.44727 22.5586 7.37305 23.6328 5.77393 23.6328C4.15039 23.6328 3.07617 22.5586 3.07617 20.9473L3.07617 1.02539L1.11084 1.02539L1.11084 20.9473C1.11084 23.7305 2.96631 25.5737 5.77393 25.5737ZM9.00879 5.27344L2.51465 5.27344L2.51465 20.9473C2.51465 22.8638 3.84521 24.1943 5.77393 24.1943C7.67822 24.1943 9.00879 22.8638 9.00879 20.9473ZM3.07617 9.24072L3.07617 7.8125L5.7251 7.8125C6.11572 7.8125 6.45752 8.12988 6.45752 8.5083C6.45752 8.92334 6.14014 9.24072 5.7373 9.24072ZM3.07617 13.1958L3.07617 11.7676L5.7373 11.7676C6.12793 11.7676 6.45752 12.0972 6.45752 12.4756C6.45752 12.8906 6.14014 13.1958 5.7373 13.1958ZM3.07617 17.1631L3.07617 15.7349L5.7251 15.7349C6.11572 15.7349 6.44531 16.0645 6.44531 16.4429C6.45752 16.8579 6.15234 17.1631 5.7251 17.1631ZM14.5142 2.05078L23.9746 2.05078C24.5361 2.05078 25 1.57471 25 1.01318C25 0.45166 24.5361 0 23.9746 0L14.5142 0C13.9038 0 13.4766 0.45166 13.4766 1.01318C13.4766 1.57471 13.9038 2.05078 14.5142 2.05078ZM19.2505 25.5737C22.0337 25.5737 23.8892 23.7305 23.8892 20.9473L23.8892 1.02539L21.936 1.02539L21.936 20.9473C21.936 22.5586 20.8618 23.6328 19.2505 23.6328C17.627 23.6328 16.5527 22.5586 16.5527 20.9473L16.5527 1.02539L14.5874 1.02539L14.5874 20.9473C14.5874 23.7305 16.4551 25.5737 19.2505 25.5737ZM22.4854 19.6411L16.0034 19.6411L16.0034 20.9473C16.0034 22.8638 17.3218 24.1943 19.2505 24.1943C21.167 24.1943 22.4854 22.8638 22.4854 20.9473ZM16.04 9.24072L19.2261 9.24072C19.6289 9.24072 19.9341 8.92334 19.9341 8.5083C19.9341 8.12988 19.6045 7.8125 19.2139 7.8125L16.04 7.8125ZM16.04 13.1958L19.2261 13.1958C19.6289 13.1958 19.9341 12.8906 19.9341 12.4756C19.9341 12.0972 19.6167 11.7676 19.2261 11.7676L16.04 11.7676ZM16.04 17.1631L19.2139 17.1631C19.6411 17.1631 19.9341 16.8579 19.9219 16.4429C19.9219 16.0645 19.6045 15.7349 19.2139 15.7349L16.04 15.7349Z" fill="#5ac8f5"/>
 </g>
</svg>
