<?xml version="1.0" encoding="UTF-8"?>
<!--Generator: Apple Native CoreSVG 175.5-->
<!DOCTYPE svg
PUBLIC "-//W3C//DTD SVG 1.1//EN"
       "http://www.w3.org/Graphics/SVG/1.1/DTD/svg11.dtd">
<svg version="1.1" xmlns="http://www.w3.org/2000/svg" xmlns:xlink="http://www.w3.org/1999/xlink" width="24.9023" height="24.9146">
 <g>
  <rect height="24.9146" opacity="0" width="24.9023" x="0" y="0"/>
  <path d="M12.4512 24.9023C19.2627 24.9023 24.9023 19.2505 24.9023 12.4512C24.9023 5.63965 19.2505 0 12.439 0C5.63965 0 0 5.63965 0 12.4512C0 19.2505 5.65186 24.9023 12.4512 24.9023ZM12.4512 22.8271C6.68945 22.8271 2.0874 18.2129 2.0874 12.4512C2.0874 6.68945 6.67725 2.0752 12.439 2.0752C18.2007 2.0752 22.8271 6.68945 22.8271 12.4512C22.8271 18.2129 18.2129 22.8271 12.4512 22.8271Z" fill="#5ac8f5" fill-opacity="0.5"/>
  <path d="M9.10645 17.5659C9.58252 17.5659 9.8877 17.2607 9.8877 16.7847L9.8877 8.14209C9.8877 7.62939 9.53369 7.26318 9.0332 7.26318C8.63037 7.26318 8.38623 7.38525 7.95898 7.67822L6.10352 8.94775C5.84717 9.13086 5.68848 9.35059 5.68848 9.66797C5.68848 10.083 6.03027 10.4004 6.38428 10.4004C6.5918 10.4004 6.70166 10.3882 6.98242 10.1685L8.28857 9.2041L8.36182 9.2041L8.36182 16.7847C8.36182 17.2607 8.65479 17.5659 9.10645 17.5659ZM15.2466 17.7124C17.3218 17.7124 18.7744 16.4673 18.7744 14.7095C18.7744 13.4155 17.8711 12.3657 16.6382 12.2437L16.6382 12.1704C17.6514 11.9995 18.4448 10.9863 18.4448 9.83887C18.4448 8.27637 17.1631 7.18994 15.332 7.18994C13.6841 7.18994 12.4634 8.12988 12.146 9.32617C12.1094 9.48486 12.1094 9.60693 12.1094 9.76562C12.1094 10.2051 12.3901 10.5103 12.8052 10.5103C13.1714 10.5103 13.3667 10.3149 13.4888 9.92432C13.7573 9.06982 14.3433 8.59375 15.2954 8.59375C16.2598 8.59375 16.9434 9.17969 16.9434 10.0342C16.9434 10.9253 16.2598 11.5723 15.2832 11.5723L14.624 11.5723C14.2334 11.5723 13.9648 11.853 13.9648 12.2925C13.9648 12.6831 14.2334 12.9883 14.624 12.9883L15.3442 12.9883C16.5039 12.9883 17.2485 13.6475 17.2485 14.6362C17.2485 15.5884 16.4307 16.3086 15.2588 16.3086C14.2944 16.3086 13.6353 15.8325 13.3057 14.978C13.1592 14.5874 12.9517 14.3921 12.6099 14.3921C12.207 14.3921 11.9019 14.6973 11.9019 15.1245C11.9019 15.2954 11.9263 15.4175 11.9629 15.5762C12.2925 16.6992 13.5864 17.7124 15.2466 17.7124Z" fill="#5ac8f5"/>
 </g>
</svg>
