<?xml version="1.0" encoding="UTF-8"?>
<!--Generator: Apple Native CoreSVG 175.5-->
<!DOCTYPE svg
PUBLIC "-//W3C//DTD SVG 1.1//EN"
       "http://www.w3.org/Graphics/SVG/1.1/DTD/svg11.dtd">
<svg version="1.1" xmlns="http://www.w3.org/2000/svg" xmlns:xlink="http://www.w3.org/1999/xlink" width="16.7725" height="33.4351">
 <g>
  <rect height="33.4351" opacity="0" width="16.7725" x="0" y="0"/>
  <path d="M8.38623 33.4229C13.0737 33.4229 15.1855 32.3608 15.1855 29.6631L15.1855 13.8184C15.1855 11.0352 12.6099 9.38721 8.38623 9.38721C4.1626 9.38721 1.59912 11.0352 1.59912 13.8184L1.59912 29.6631C1.59912 32.3608 3.69873 33.4229 8.38623 33.4229ZM2.63672 19.0063L2.63672 16.4673L1.07422 16.4673C0.476074 16.4673 0 16.9189 0 17.5049L0 17.9688C0 18.5425 0.476074 19.0063 1.07422 19.0063ZM14.1357 19.0063L15.6982 19.0063C16.3086 19.0063 16.7725 18.5425 16.7725 17.9688L16.7725 17.5049C16.7725 16.9189 16.3086 16.4673 15.6982 16.4673L14.1357 16.4673ZM8.38623 19.4336C7.53174 19.4336 6.11572 19.5068 5.62744 19.5068C4.88281 19.5068 4.54102 19.1895 4.46777 18.396L4.30908 16.6382C4.18701 15.1855 5.13916 14.6362 8.38623 14.6362C11.6333 14.6362 12.5977 15.1855 12.4756 16.6382L12.3169 18.396C12.2437 19.1895 11.9141 19.5068 11.145 19.5068C10.6689 19.5068 9.30176 19.4336 8.38623 19.4336ZM8.38623 29.5288C5.13916 29.5288 4.12598 29.0527 4.3457 27.5513L4.47998 26.6968C4.66309 25.5005 5.59082 25.1221 8.38623 25.1221C11.1938 25.1221 12.1094 25.5005 12.3047 26.6968L12.439 27.5513C12.6709 29.0527 11.6333 29.5288 8.38623 29.5288ZM8.38623 1.83105C10.5469 1.83105 12.5 2.62451 14.0015 3.96729C14.5264 4.41895 15.0757 4.45557 15.4419 4.10156C15.8447 3.69873 15.8203 3.11279 15.3931 2.66113C13.5742 0.842285 11.0474 0 8.38623 0C5.7373 0 3.21045 0.842285 1.3916 2.66113C0.952148 3.11279 0.927734 3.69873 1.34277 4.10156C1.69678 4.45557 2.24609 4.41895 2.771 3.96729C4.27246 2.62451 6.23779 1.83105 8.38623 1.83105ZM8.38623 6.11572C9.46045 6.11572 10.4004 6.44531 11.1206 7.04346C11.7432 7.48291 12.2559 7.4585 12.5977 7.10449C12.9761 6.73828 12.9517 6.20117 12.561 5.79834C11.8164 5.05371 10.1685 4.28467 8.38623 4.28467C6.61621 4.28467 4.96826 5.05371 4.21143 5.79834C3.8208 6.20117 3.79639 6.73828 4.1748 7.10449C4.5166 7.4585 5.0293 7.48291 5.65186 7.04346C6.38428 6.44531 7.32422 6.11572 8.38623 6.11572Z" fill="#5ac8f5"/>
 </g>
</svg>
