<?xml version="1.0" encoding="UTF-8"?>
<!--Generator: Apple Native CoreSVG 175.5-->
<!DOCTYPE svg
PUBLIC "-//W3C//DTD SVG 1.1//EN"
       "http://www.w3.org/Graphics/SVG/1.1/DTD/svg11.dtd">
<svg version="1.1" xmlns="http://www.w3.org/2000/svg" xmlns:xlink="http://www.w3.org/1999/xlink" width="24.9023" height="24.9146">
 <g>
  <rect height="24.9146" opacity="0" width="24.9023" x="0" y="0"/>
  <path d="M12.4512 24.9023C19.2627 24.9023 24.9023 19.2505 24.9023 12.4512C24.9023 5.63965 19.2505 0 12.439 0C5.63965 0 0 5.63965 0 12.4512C0 19.2505 5.65186 24.9023 12.4512 24.9023ZM12.4512 22.8271C6.68945 22.8271 2.0874 18.2129 2.0874 12.4512C2.0874 6.68945 6.67725 2.0752 12.439 2.0752C18.2007 2.0752 22.8271 6.68945 22.8271 12.4512C22.8271 18.2129 18.2129 22.8271 12.4512 22.8271Z" fill="#5ac8f5" fill-opacity="0.5"/>
  <path d="M8.19092 17.749C8.53271 17.749 8.78906 17.6147 9.05762 17.3462L17.2607 9.021C17.5171 8.76465 17.6758 8.45947 17.6758 8.17871C17.6758 7.60498 17.2119 7.16553 16.6504 7.16553C16.3574 7.16553 16.0767 7.2998 15.8081 7.56836L7.61719 15.8936C7.34863 16.1621 7.20215 16.4551 7.20215 16.748C7.20215 17.2974 7.60498 17.749 8.19092 17.749Z" fill="#5ac8f5"/>
 </g>
</svg>
