<?xml version="1.0" encoding="UTF-8"?>
<!--Generator: Apple Native CoreSVG 175.5-->
<!DOCTYPE svg
PUBLIC "-//W3C//DTD SVG 1.1//EN"
       "http://www.w3.org/Graphics/SVG/1.1/DTD/svg11.dtd">
<svg version="1.1" xmlns="http://www.w3.org/2000/svg" xmlns:xlink="http://www.w3.org/1999/xlink" width="24.9023" height="24.9146">
 <g>
  <rect height="24.9146" opacity="0" width="24.9023" x="0" y="0"/>
  <path d="M12.4512 24.9023C19.2627 24.9023 24.9023 19.2505 24.9023 12.4512C24.9023 5.63965 19.2505 0 12.439 0C5.63965 0 0 5.63965 0 12.4512C0 19.2505 5.65186 24.9023 12.4512 24.9023ZM12.4512 22.8271C6.68945 22.8271 2.0874 18.2129 2.0874 12.4512C2.0874 6.68945 6.67725 2.0752 12.439 2.0752C18.2007 2.0752 22.8271 6.68945 22.8271 12.4512C22.8271 18.2129 18.2129 22.8271 12.4512 22.8271Z" fill="#5ac8f5" fill-opacity="0.5"/>
  <path d="M7.72705 12.5732C7.72705 12.9028 7.9834 13.1836 8.31299 13.1836L9.09424 13.1836L9.09424 17.7124C9.09424 18.2007 9.42383 18.5059 9.8877 18.5059C10.3516 18.5059 10.6689 18.2007 10.6689 17.7124L10.6689 13.1836L11.2427 13.1836L15.1855 18.1396C15.3931 18.4082 15.6006 18.5059 15.8325 18.5059C16.2476 18.5059 16.5771 18.1885 16.5771 17.7856C16.5771 17.627 16.5161 17.4316 16.3818 17.2485L13.0981 13.1836L16.2476 13.1836C16.6016 13.1836 16.8457 12.9028 16.8457 12.5732C16.8457 12.2192 16.6016 11.9751 16.2476 11.9751L13.0859 11.9751L16.3696 7.94678C16.5039 7.77588 16.5771 7.58057 16.5771 7.42188C16.5771 7.01904 16.2598 6.70166 15.8325 6.70166C15.6006 6.70166 15.3931 6.79932 15.1855 7.08008L11.2305 11.9751L10.6689 11.9751L10.6689 7.51953C10.6689 7.01904 10.3638 6.72607 9.8877 6.72607C9.41162 6.72607 9.09424 7.01904 9.09424 7.51953L9.09424 11.9751L8.31299 11.9751C7.9834 11.9751 7.72705 12.2192 7.72705 12.5732Z" fill="#5ac8f5"/>
 </g>
</svg>
