<?xml version="1.0" encoding="UTF-8"?>
<!--Generator: Apple Native CoreSVG 175.5-->
<!DOCTYPE svg
PUBLIC "-//W3C//DTD SVG 1.1//EN"
       "http://www.w3.org/Graphics/SVG/1.1/DTD/svg11.dtd">
<svg version="1.1" xmlns="http://www.w3.org/2000/svg" xmlns:xlink="http://www.w3.org/1999/xlink" width="29.6478" height="24.7681">
 <g>
  <rect height="24.7681" opacity="0" width="29.6478" x="0" y="0"/>
  <path d="M6.80847 5.33447C8.27332 5.33447 9.4696 4.13818 9.4696 2.64893C9.4696 1.18408 8.27332 0 6.80847 0C5.34363 0 4.13513 1.18408 4.13513 2.64893C4.13513 4.13818 5.34363 5.33447 6.80847 5.33447ZM4.12292 21.106C5.03845 20.7764 5.78308 20.3369 6.66199 19.9951L6.8573 18.2129C6.88171 18.0786 7.06482 18.0542 7.11365 18.1641L7.85828 19.6533C8.2489 19.5679 8.67615 19.519 9.18884 19.519C9.78699 19.519 10.2631 19.6045 10.6781 19.7632L9.44519 16.4429L9.44519 9.09424C9.44519 7.73926 8.49304 6.61621 6.82068 6.61621L6.24695 6.61621C5.24597 6.61621 4.12292 6.75049 3.10974 7.73926L0.338745 10.498C-0.112915 10.9497-0.112915 11.731 0.338745 12.1704L4.12292 15.9058ZM4.12292 12.6221L2.85339 11.3403L3.74451 10.437C3.89099 10.2905 4.12292 10.376 4.12292 10.5957ZM1.84021 17.688L27.6825 1.83105C28.0121 1.62354 28.0975 1.2207 27.8778 0.878906C27.6825 0.549316 27.2797 0.463867 26.9501 0.671387L1.12 16.5161C0.790405 16.7236 0.692749 17.1387 0.912476 17.4683C1.10779 17.7979 1.51062 17.8955 1.84021 17.688ZM1.43738 24.7559L2.6825 24.7559C5.94177 24.7559 6.6864 22.7417 8.9447 22.7417C11.203 22.7417 11.9476 24.7559 15.2069 24.7559C18.4662 24.7559 19.2108 22.7417 21.4691 22.7417C23.7274 22.7417 24.472 24.7559 27.7313 24.7559L28.9764 24.7559C29.3549 24.7559 29.6478 24.4629 29.6478 24.0845C29.6478 23.7061 29.3549 23.4009 28.9764 23.4009L27.7313 23.4009C25.3876 23.4009 24.5941 21.3867 21.4691 21.3867C18.3441 21.3867 17.5507 23.4009 15.2069 23.4009C12.8632 23.4009 12.0697 21.3867 8.9447 21.3867C5.8075 21.3867 5.02625 23.4009 2.6825 23.4009L1.43738 23.4009C1.05896 23.4009 0.753784 23.7061 0.753784 24.0845C0.753784 24.4629 1.05896 24.7559 1.43738 24.7559Z" fill="#5ac8f5"/>
 </g>
</svg>
