<?xml version="1.0" encoding="UTF-8"?>
<!--Generator: Apple Native CoreSVG 175.5-->
<!DOCTYPE svg
PUBLIC "-//W3C//DTD SVG 1.1//EN"
       "http://www.w3.org/Graphics/SVG/1.1/DTD/svg11.dtd">
<svg version="1.1" xmlns="http://www.w3.org/2000/svg" xmlns:xlink="http://www.w3.org/1999/xlink" width="22.4731" height="22.4976">
 <g>
  <rect height="22.4976" opacity="0" width="22.4731" x="0" y="0"/>
  <path d="M3.83301 22.4976L18.6401 22.4976C21.2036 22.4976 22.4731 21.228 22.4731 18.7134L22.4731 3.80859C22.4731 1.29395 21.2036 0.0244141 18.6401 0.0244141L3.83301 0.0244141C1.28174 0.0244141 0 1.28174 0 3.80859L0 18.7134C0 21.2402 1.28174 22.4976 3.83301 22.4976ZM3.85742 20.5322C2.63672 20.5322 1.96533 19.8853 1.96533 18.6157L1.96533 3.90625C1.96533 2.63672 2.63672 1.98975 3.85742 1.98975L18.6157 1.98975C19.8242 1.98975 20.5078 2.63672 20.5078 3.90625L20.5078 18.6157C20.5078 19.8853 19.8242 20.5322 18.6157 20.5322ZM4.12598 11.2427C4.12598 15.1489 7.33643 18.3716 11.2427 18.3716C15.1489 18.3716 18.3716 15.1489 18.3716 11.2427C18.3716 7.34863 15.1489 4.12598 11.2549 4.12598C10.73 4.12598 10.4004 4.46777 10.4004 5.00488L10.4004 7.34863C10.4004 7.82471 10.7544 8.17871 11.2183 8.17871C11.6699 8.17871 12.0117 7.8125 12.0117 7.34863L12.0117 5.95703C14.624 6.31104 16.6016 8.53271 16.6016 11.2427C16.6016 14.2212 14.209 16.6016 11.2427 16.6016C8.27637 16.6016 5.88379 14.2212 5.896 11.2427C5.896 9.96094 6.33545 8.74023 7.17773 7.77588C7.48291 7.37305 7.48291 6.89697 7.16553 6.54297C6.78711 6.15234 6.21338 6.20117 5.84717 6.64062C4.73633 7.92236 4.12598 9.58252 4.12598 11.2427ZM12.3901 12.3413C12.9639 11.7432 12.854 10.8887 12.1582 10.437L8.87451 8.22754C8.37402 7.89795 7.93457 8.3252 8.26416 8.82568L10.4858 12.0972C10.9619 12.8052 11.8042 12.915 12.3901 12.3413Z" fill="#5ac8f5"/>
 </g>
</svg>
