<?xml version="1.0" encoding="UTF-8"?>
<!--Generator: Apple Native CoreSVG 175.5-->
<!DOCTYPE svg
PUBLIC "-//W3C//DTD SVG 1.1//EN"
       "http://www.w3.org/Graphics/SVG/1.1/DTD/svg11.dtd">
<svg version="1.1" xmlns="http://www.w3.org/2000/svg" xmlns:xlink="http://www.w3.org/1999/xlink" width="24.9023" height="24.9146">
 <g>
  <rect height="24.9146" opacity="0" width="24.9023" x="0" y="0"/>
  <path d="M12.4512 24.9023C19.2627 24.9023 24.9023 19.2505 24.9023 12.4512C24.9023 5.63965 19.2505 0 12.439 0C5.63965 0 0 5.63965 0 12.4512C0 19.2505 5.65186 24.9023 12.4512 24.9023ZM12.4512 22.8271C6.68945 22.8271 2.0874 18.2129 2.0874 12.4512C2.0874 6.68945 6.67725 2.0752 12.439 2.0752C18.2007 2.0752 22.8271 6.68945 22.8271 12.4512C22.8271 18.2129 18.2129 22.8271 12.4512 22.8271ZM12.439 18.1763C15.2954 18.1763 17.2119 16.5283 17.2119 13.9648L17.2119 7.72705C17.2119 7.04346 16.8579 6.62842 16.2231 6.62842C15.625 6.62842 15.2588 7.04346 15.2588 7.72705L15.2588 13.7817C15.2588 15.4907 14.1479 16.5649 12.439 16.5649C10.73 16.5649 9.60693 15.4907 9.60693 13.7817L9.60693 7.72705C9.60693 7.04346 9.25293 6.62842 8.61816 6.62842C8.02002 6.62842 7.66602 7.04346 7.66602 7.72705L7.66602 13.9648C7.66602 16.5283 9.58252 18.1763 12.439 18.1763Z" fill="#5ac8f5"/>
 </g>
</svg>
