<?xml version="1.0" encoding="UTF-8"?>
<!--Generator: Apple Native CoreSVG 175.5-->
<!DOCTYPE svg
PUBLIC "-//W3C//DTD SVG 1.1//EN"
       "http://www.w3.org/Graphics/SVG/1.1/DTD/svg11.dtd">
<svg version="1.1" xmlns="http://www.w3.org/2000/svg" xmlns:xlink="http://www.w3.org/1999/xlink" width="24.9023" height="24.9146">
 <g>
  <rect height="24.9146" opacity="0" width="24.9023" x="0" y="0"/>
  <path d="M12.4512 24.9146C19.2627 24.9146 24.9023 19.2749 24.9023 12.4634C24.9023 5.66406 19.2505 0.012207 12.439 0.012207C5.63965 0.012207 0 5.66406 0 12.4634C0 19.2749 5.65186 24.9146 12.4512 24.9146ZM7.03125 15.5029C5.54199 15.5029 4.54102 14.5264 4.54102 13.208C4.54102 12.1338 5.2002 11.3037 6.15234 10.9741C6.35986 9.09424 7.97119 7.59277 9.8877 7.59277C11.3281 7.59277 12.5366 8.38623 13.2202 9.64355C14.9536 9.68018 16.2598 10.9253 16.2598 12.5488C16.2598 14.209 14.9658 15.5029 13.269 15.5029ZM7.51953 18.1763C7.40967 18.3716 7.1167 18.457 6.90918 18.3228C6.67725 18.2129 6.61621 17.9199 6.73828 17.7124L7.4585 16.4795C7.56836 16.2598 7.86133 16.1865 8.05664 16.3086C8.30078 16.4551 8.37402 16.7114 8.23975 16.9434ZM9.13086 19.5068C9.00879 19.7144 8.71582 19.7998 8.52051 19.6777C8.27637 19.5557 8.19092 19.2749 8.31299 19.043L8.99658 17.8833C9.13086 17.6758 9.39941 17.6025 9.61914 17.7124C9.86328 17.8345 9.92432 18.1274 9.80225 18.3472ZM11.5845 18.1641C11.4624 18.3716 11.1938 18.457 10.9741 18.3228C10.73 18.2129 10.6812 17.9077 10.791 17.7002L11.499 16.4673C11.6211 16.2598 11.9019 16.1865 12.1216 16.3086C12.3535 16.4551 12.439 16.7114 12.3047 16.9434ZM13.1836 19.5068C13.0615 19.7266 12.7808 19.7998 12.5732 19.6777C12.3413 19.5557 12.2559 19.2749 12.3779 19.043L13.0615 17.8955C13.1958 17.6758 13.4644 17.6025 13.6841 17.7124C13.916 17.8345 13.9771 18.1274 13.8672 18.3472ZM20.3979 9.33838C20.3979 10.3882 19.1528 11.9995 17.1265 12.1948C16.9556 10.4126 15.5884 9.04541 13.7207 8.80127C13.5986 8.64258 13.4766 8.47168 13.3423 8.3252C13.5498 6.57959 15.0391 5.18799 16.2231 5.12695C16.4551 5.12695 16.6016 5.23682 16.6016 5.43213C16.6016 5.74951 16.1621 6.31104 16.1621 7.09229C16.1621 8.44727 17.0898 9.31396 18.5669 9.31396C19.3726 9.31396 19.8364 8.94775 20.1172 8.94775C20.3003 8.94775 20.3979 9.10645 20.3979 9.33838Z" fill="#5ac8f5"/>
 </g>
</svg>
