<?xml version="1.0" encoding="UTF-8"?>
<!--Generator: Apple Native CoreSVG 175.5-->
<!DOCTYPE svg
PUBLIC "-//W3C//DTD SVG 1.1//EN"
       "http://www.w3.org/Graphics/SVG/1.1/DTD/svg11.dtd">
<svg version="1.1" xmlns="http://www.w3.org/2000/svg" xmlns:xlink="http://www.w3.org/1999/xlink" width="21.6309" height="28.3813">
 <g>
  <rect height="28.3813" opacity="0" width="21.6309" x="0" y="0"/>
  <path d="M5.3833 26.0254C6.51855 26.0254 7.51953 25.7935 8.38623 25.354C7.78809 25.0366 7.34863 24.4751 7.20215 23.8037C6.68945 24.0356 6.11572 24.1333 5.46875 24.1333C3.21045 24.1333 1.84326 22.7173 1.84326 20.3857L1.84326 9.58252C1.84326 4.93164 4.90723 1.84326 9.50928 1.84326C13.9526 1.84326 16.9067 4.93164 16.9067 9.53369C16.9067 12.1826 15.8203 13.6841 14.4043 15.1733C15.1245 14.8682 15.9302 14.9292 16.5894 15.3687C17.8223 13.9282 18.75 12.3413 18.75 9.53369C18.75 3.8208 15.0513 0 9.50928 0C3.83301 0 0 3.84521 0 9.58252L0 20.5078C0 23.877 2.09961 26.0254 5.3833 26.0254ZM4.44336 15.7959C4.94385 15.7959 5.37109 15.3687 5.37109 14.8682L5.37109 9.50928C5.37109 7.16553 7.00684 5.61523 9.49707 5.61523C11.8652 5.61523 13.3911 7.15332 13.3911 9.50928C13.3911 10.0098 13.8062 10.437 14.3066 10.437C14.8071 10.437 15.2344 10.0098 15.2344 9.50928C15.2344 6.0791 12.9395 3.77197 9.49707 3.77197C5.93262 3.77197 3.52783 6.0791 3.52783 9.50928L3.52783 14.8682C3.52783 15.3687 3.94287 15.7959 4.44336 15.7959ZM4.3457 12.1704L8.47168 12.1704C9.30176 12.1704 9.82666 12.6709 9.82666 13.4033C9.82666 13.7817 9.63135 14.2944 9.33838 14.6484L7.87354 16.4917C7.71484 16.6992 7.62939 16.9189 7.62939 17.1509C7.62939 17.6514 8.05664 18.0664 8.55713 18.0664C8.83789 18.0664 9.10645 17.9199 9.31396 17.6636L10.9009 15.6494C11.4014 15.0146 11.731 14.0869 11.731 13.3301C11.731 11.5356 10.4248 10.3271 8.44727 10.3271L4.3457 10.3271Z" fill="#5ac8f5" fill-opacity="0.5"/>
  <path d="M9.48486 23.9624C9.87549 23.9624 10.1807 23.6572 10.1807 23.2788L10.1807 21.4233C10.1807 21.0449 9.87549 20.7397 9.48486 20.7397C9.10645 20.7397 8.81348 21.0449 8.81348 21.4233L8.81348 23.2788C8.81348 23.6572 9.10645 23.9624 9.48486 23.9624Z" fill="#5ac8f5"/>
  <path d="M12.3535 26.0132C12.7441 26.0132 13.0493 25.708 13.0493 25.3174L13.0493 19.3848C13.0493 18.9941 12.7441 18.689 12.3535 18.689C11.9751 18.689 11.6699 18.9941 11.6699 19.3848L11.6699 25.3174C11.6699 25.708 11.9751 26.0132 12.3535 26.0132Z" fill="#5ac8f5"/>
  <path d="M15.2222 28.125C15.6006 28.125 15.9058 27.8198 15.9058 27.4414L15.9058 17.2852C15.9058 16.8945 15.6006 16.5894 15.2222 16.5894C14.8315 16.5894 14.5264 16.8945 14.5264 17.2852L14.5264 27.4414C14.5264 27.832 14.8193 28.125 15.2222 28.125Z" fill="#5ac8f5"/>
  <path d="M18.0664 26.9043C18.4692 26.9043 18.7744 26.5991 18.7744 26.2207L18.7744 18.4814C18.7744 18.103 18.4692 17.7979 18.0664 17.7979C17.7002 17.7979 17.395 18.103 17.395 18.4814L17.395 26.2207C17.395 26.5991 17.7002 26.9043 18.0664 26.9043Z" fill="#5ac8f5"/>
  <path d="M20.9473 24.5972C21.3379 24.5972 21.6309 24.3164 21.6309 23.9136L21.6309 20.7764C21.6309 20.3979 21.3379 20.0928 20.9473 20.0928C20.5566 20.0928 20.2515 20.4102 20.2515 20.7764L20.2515 23.9136C20.2515 24.3042 20.5566 24.5972 20.9473 24.5972Z" fill="#5ac8f5"/>
 </g>
</svg>
