<?xml version="1.0" encoding="UTF-8"?>
<!--Generator: Apple Native CoreSVG 175.5-->
<!DOCTYPE svg
PUBLIC "-//W3C//DTD SVG 1.1//EN"
       "http://www.w3.org/Graphics/SVG/1.1/DTD/svg11.dtd">
<svg version="1.1" xmlns="http://www.w3.org/2000/svg" xmlns:xlink="http://www.w3.org/1999/xlink" width="24.9023" height="24.9146">
 <g>
  <rect height="24.9146" opacity="0" width="24.9023" x="0" y="0"/>
  <path d="M12.4512 24.9146C19.2627 24.9146 24.9023 19.2749 24.9023 12.4634C24.9023 5.66406 19.2505 0.012207 12.439 0.012207C5.63965 0.012207 0 5.66406 0 12.4634C0 19.2749 5.65186 24.9146 12.4512 24.9146Z" fill="#5ac8f5" fill-opacity="0.25"/>
  <path d="M6.89697 18.811C5.2124 17.1387 5.2124 14.563 6.9458 12.8296L13.9282 5.84717C15.2588 4.5166 17.0776 4.50439 18.3472 5.7373C19.5923 6.99463 19.5557 8.80127 18.2129 10.1318L11.4014 16.9434C10.6079 17.7368 9.44824 17.7856 8.71582 17.0166C7.99561 16.272 8.02002 15.0635 8.78906 14.3066L13.5132 9.55811C13.8062 9.27734 14.209 9.25293 14.502 9.5459C14.8071 9.82666 14.7705 10.2295 14.4775 10.5225L9.74121 15.2466C9.50928 15.4785 9.49707 15.7837 9.729 15.9912C9.96094 16.1987 10.2173 16.1987 10.4614 15.9546L17.2363 9.19189C17.9932 8.42285 18.0542 7.40967 17.3706 6.73828C16.7114 6.0791 15.6616 6.11572 14.917 6.87256L7.9834 13.8062C6.81152 14.9902 6.7749 16.6382 7.94678 17.7856C9.08203 18.9209 10.7422 18.9087 11.9141 17.7368L16.9922 12.6587C17.2607 12.3901 17.7368 12.3779 18.0176 12.6465C18.2861 12.8906 18.2617 13.3911 18.0054 13.6475L12.854 18.7866C11.1328 20.4956 8.69141 20.5566 6.89697 18.811Z" fill="#5ac8f5"/>
 </g>
</svg>
