<?xml version="1.0" encoding="UTF-8"?>
<!--Generator: Apple Native CoreSVG 175.5-->
<!DOCTYPE svg
PUBLIC "-//W3C//DTD SVG 1.1//EN"
       "http://www.w3.org/Graphics/SVG/1.1/DTD/svg11.dtd">
<svg version="1.1" xmlns="http://www.w3.org/2000/svg" xmlns:xlink="http://www.w3.org/1999/xlink" width="18.0298" height="18.0542">
 <g>
  <rect height="18.0542" opacity="0" width="18.0298" x="0" y="0"/>
  <path d="M0 4.60205L0.012207 16.8823C0.012207 17.5781 0.463867 18.0542 1.19629 18.0542L13.4766 18.0542C14.1602 18.0542 14.624 17.5415 14.624 16.9556C14.624 16.3696 14.0991 15.8691 13.5254 15.8691L9.27734 15.8691L3.32031 16.0645L5.59082 14.0625L17.688 1.95312C17.9077 1.7334 18.0298 1.44043 18.0298 1.18408C18.0298 0.598145 17.4927 0.0366211 16.8823 0.0366211C16.6138 0.0366211 16.3452 0.146484 16.1133 0.366211L4.00391 12.4878L1.98975 14.7583L2.20947 9.05762L2.20947 4.55322C2.20947 3.96729 1.70898 3.44238 1.11084 3.44238C0.512695 3.44238 0 3.93066 0 4.60205Z" fill="#5ac8f5"/>
 </g>
</svg>
