<?xml version="1.0" encoding="UTF-8"?>
<!--Generator: Apple Native CoreSVG 175.5-->
<!DOCTYPE svg
PUBLIC "-//W3C//DTD SVG 1.1//EN"
       "http://www.w3.org/Graphics/SVG/1.1/DTD/svg11.dtd">
<svg version="1.1" xmlns="http://www.w3.org/2000/svg" xmlns:xlink="http://www.w3.org/1999/xlink" width="24.5972" height="17.1997">
 <g>
  <rect height="17.1997" opacity="0" width="24.5972" x="0" y="0"/>
  <path d="M8.1543 2.20947L23.6084 2.20947C24.1577 2.20947 24.5972 1.78223 24.5972 1.23291C24.5972 0.671387 24.1577 0.244141 23.6084 0.244141L8.1543 0.244141C7.59277 0.244141 7.16553 0.671387 7.16553 1.23291C7.16553 1.78223 7.59277 2.20947 8.1543 2.20947ZM8.1543 9.59473L23.6084 9.59473C24.1577 9.59473 24.5972 9.15527 24.5972 8.60596C24.5972 8.05664 24.1577 7.62939 23.6084 7.62939L8.1543 7.62939C7.59277 7.62939 7.16553 8.05664 7.16553 8.60596C7.16553 9.15527 7.59277 9.59473 8.1543 9.59473ZM8.1543 16.9678L23.6084 16.9678C24.1577 16.9678 24.5972 16.5405 24.5972 15.9912C24.5972 15.4297 24.1577 15.0024 23.6084 15.0024L8.1543 15.0024C7.59277 15.0024 7.16553 15.4297 7.16553 15.9912C7.16553 16.5405 7.59277 16.9678 8.1543 16.9678Z" fill="#5ac8f5" fill-opacity="0.5"/>
  <path d="M1.2085 2.44141L3.2959 2.44141C3.96729 2.44141 4.5166 1.89209 4.5166 1.23291C4.5166 0.549316 3.96729 0.012207 3.2959 0.012207L1.2085 0.012207C0.537109 0.012207 0 0.549316 0 1.23291C0 1.89209 0.537109 2.44141 1.2085 2.44141ZM1.2085 9.82666L3.2959 9.82666C3.96729 9.82666 4.5166 9.27734 4.5166 8.60596C4.5166 7.93457 3.96729 7.39746 3.2959 7.39746L1.2085 7.39746C0.537109 7.39746 0 7.93457 0 8.60596C0 9.27734 0.537109 9.82666 1.2085 9.82666ZM1.2085 17.1997L3.2959 17.1997C3.96729 17.1997 4.5166 16.6504 4.5166 15.9912C4.5166 15.3076 3.96729 14.7705 3.2959 14.7705L1.2085 14.7705C0.537109 14.7705 0 15.3076 0 15.9912C0 16.6504 0.537109 17.1997 1.2085 17.1997Z" fill="#5ac8f5"/>
 </g>
</svg>
