<?xml version="1.0" encoding="UTF-8"?>
<!--Generator: Apple Native CoreSVG 175.5-->
<!DOCTYPE svg
PUBLIC "-//W3C//DTD SVG 1.1//EN"
       "http://www.w3.org/Graphics/SVG/1.1/DTD/svg11.dtd">
<svg version="1.1" xmlns="http://www.w3.org/2000/svg" xmlns:xlink="http://www.w3.org/1999/xlink" width="31.25" height="22.4731">
 <g>
  <rect height="22.4731" opacity="0" width="31.25" x="0" y="0"/>
  <path d="M13.8428 22.4731L17.4072 22.4731C20.8374 22.4731 23.3154 22.0581 25.2441 21.1182C29.2969 19.165 31.25 15.3442 31.25 11.2305C31.25 9.58252 30.9326 7.9834 30.2979 6.53076L0.952148 6.53076C0.317383 7.9834 0 9.58252 0 11.2305C0 15.3442 1.95312 19.165 6.00586 21.1182C7.93457 22.0581 10.4126 22.4731 13.8428 22.4731ZM15.6372 15.7104C14.1846 15.7104 13.0859 14.6118 13.0859 13.208L13.0859 9.52148L14.2334 9.021L14.2334 11.0596C14.6729 10.7422 15.1245 10.6079 15.6372 10.6079C17.0166 10.6079 18.2007 11.7798 18.2007 13.208C18.2007 14.5752 17.0532 15.7104 15.6372 15.7104ZM15.6372 14.5752C16.394 14.5752 17.0166 13.9404 17.0166 13.208C17.0166 12.4512 16.394 11.8042 15.6372 11.8042C14.8804 11.8042 14.2334 12.439 14.2334 13.208C14.2334 13.9404 14.8682 14.5752 15.6372 14.5752ZM1.59912 5.29785L29.6509 5.29785C28.6621 3.66211 27.1973 2.28271 25.2441 1.35498C23.3154 0.402832 20.8374 0 17.4072 0L13.8428 0C10.4126 0 7.93457 0.402832 6.00586 1.35498C4.05273 2.28271 2.58789 3.66211 1.59912 5.29785Z" fill="#5ac8f5"/>
 </g>
</svg>
