<?xml version="1.0" encoding="UTF-8"?>
<!--Generator: Apple Native CoreSVG 175.5-->
<!DOCTYPE svg
PUBLIC "-//W3C//DTD SVG 1.1//EN"
       "http://www.w3.org/Graphics/SVG/1.1/DTD/svg11.dtd">
<svg version="1.1" xmlns="http://www.w3.org/2000/svg" xmlns:xlink="http://www.w3.org/1999/xlink" width="23.6216" height="29.2058">
 <g>
  <rect height="29.2058" opacity="0" width="23.6216" x="0" y="0"/>
  <path d="M10.2182 6.9796C11.6953 6.9796 12.8916 5.78332 12.8916 4.33068C12.8916 2.86583 11.6953 1.66955 10.2182 1.66955C8.7534 1.66955 7.56931 2.86583 7.56931 4.33068C7.56931 5.78332 8.7534 6.9796 10.2182 6.9796ZM19.6787 8.26134L5.82371 8.26134L6.20213 8.55431C6.80027 8.33458 7.03221 7.76085 6.89793 7.26037C6.73924 6.69884 6.20213 6.23498 5.29881 6.4425L1.69773 7.27257C-0.621603 7.80968-0.560568 10.7882 1.85642 10.7882L5.78709 10.7882C6.14109 10.7882 6.42185 11.0812 6.42185 11.4352L6.42185 16.5865L2.64988 20.3341C2.13719 20.8468 1.79539 21.3717 1.58787 22.1652L0.159647 27.524C-0.0844936 28.4396 0.452616 29.0133 1.08738 29.111C1.69773 29.2208 2.36912 28.9278 2.57664 28.171L3.93162 23.1417C4.0659 22.6656 4.16355 22.4703 4.52976 22.1652L7.48387 19.6383C8.08201 19.15 9.09519 19.2355 9.51023 19.9557L11.3047 23.0807L14.1489 28.4396C14.5639 29.233 15.4551 29.3185 16.0288 28.9523C16.5293 28.6227 16.7368 27.9513 16.3706 27.2677L13.5141 21.8234L11.8906 18.1246C11.622 17.5021 11.4756 16.8185 11.4756 16.1105L11.4756 11.4352C11.4756 11.0812 11.7563 10.7882 12.1225 10.7882L19.6787 10.7882C20.3867 10.7882 20.9482 10.2267 20.9482 9.54308C20.9482 8.83507 20.3867 8.26134 19.6787 8.26134ZM22.23 9.54308C22.23 12.2286 21.7051 14.7433 20.3867 18.1002C20.2402 18.4908 20.3989 18.8815 20.7407 19.0279C21.1069 19.1744 21.4731 19.0402 21.6562 18.6739C23.06 15.5856 23.6216 12.9366 23.6216 9.54308C23.6216 6.25939 23.06 3.59826 21.644 0.412222C21.4731 0.0460107 21.1069-0.0882667 20.7407 0.0582177C20.3867 0.204702 20.2402 0.595327 20.3867 0.985952C21.7051 4.3673 22.23 6.86974 22.23 9.54308Z" fill="#5ac8f5"/>
 </g>
</svg>
