<?xml version="1.0" encoding="UTF-8"?>
<!--Generator: Apple Native CoreSVG 175.5-->
<!DOCTYPE svg
PUBLIC "-//W3C//DTD SVG 1.1//EN"
       "http://www.w3.org/Graphics/SVG/1.1/DTD/svg11.dtd">
<svg version="1.1" xmlns="http://www.w3.org/2000/svg" xmlns:xlink="http://www.w3.org/1999/xlink" width="34.8389" height="23.8159">
 <g>
  <rect height="23.8159" opacity="0" width="34.8389" x="0" y="0"/>
  <path d="M13.5498 17.4927C14.1846 17.4927 14.5386 17.0898 14.5386 16.4062L14.5386 12.3779L20.2515 12.3779L20.2515 16.4062C20.2515 17.0776 20.6177 17.4927 21.2158 17.4927C21.8506 17.4927 22.2046 17.0898 22.2046 16.4062L22.2046 7.16553C22.2046 6.48193 21.8506 6.0791 21.2158 6.0791C20.6177 6.0791 20.2515 6.49414 20.2515 7.16553L20.2515 10.8521L14.5386 10.8521L14.5386 7.16553C14.5386 6.48193 14.1846 6.0791 13.5498 6.0791C12.9517 6.0791 12.5977 6.49414 12.5977 7.16553L12.5977 16.4062C12.5977 17.0776 12.9517 17.4927 13.5498 17.4927Z" fill="#5ac8f5"/>
  <path d="M17.4194 23.8037C23.9258 23.8037 29.3335 18.4082 29.3335 11.9019C29.3335 5.39551 23.9258 0 17.4072 0C10.9009 0 5.51758 5.3833 5.51758 11.9019C5.51758 18.4082 10.9131 23.8037 17.4194 23.8037ZM17.4194 21.7285C11.9751 21.7285 7.60498 17.3584 7.60498 11.9019C7.60498 6.43311 11.9629 2.06299 17.4072 2.06299C22.8638 2.06299 27.2461 6.43311 27.2583 11.9019C27.2705 17.3462 22.8882 21.7285 17.4194 21.7285ZM0 11.9019C0 15.7715 1.25732 19.3237 3.38135 22.2168C3.75977 22.7417 4.40674 22.7905 4.89502 22.3999C5.33447 22.0215 5.39551 21.4355 5.0415 20.9473C3.18604 18.4204 2.0874 15.2832 2.0874 11.9019C2.0874 8.5083 3.18604 5.3833 5.0415 2.83203C5.39551 2.36816 5.34668 1.77002 4.89502 1.3916C4.40674 1.00098 3.75977 1.06201 3.38135 1.57471C1.25732 4.46777 0 8.03223 0 11.9019ZM34.8389 11.9019C34.8389 8.03223 33.5938 4.46777 31.4575 1.57471C31.0791 1.06201 30.4321 1.00098 29.9438 1.3916C29.4922 1.77002 29.4556 2.36816 29.7974 2.83203C31.665 5.3833 32.7515 8.5083 32.7515 11.9019C32.7515 15.2832 31.665 18.4204 29.7974 20.9473C29.4556 21.4355 29.5044 22.0215 29.9438 22.3999C30.4321 22.7905 31.0791 22.7417 31.4575 22.2168C33.5938 19.3237 34.8389 15.7715 34.8389 11.9019Z" fill="#5ac8f5" fill-opacity="0.5"/>
 </g>
</svg>
