<?xml version="1.0" encoding="UTF-8"?>
<!--Generator: Apple Native CoreSVG 175.5-->
<!DOCTYPE svg
PUBLIC "-//W3C//DTD SVG 1.1//EN"
       "http://www.w3.org/Graphics/SVG/1.1/DTD/svg11.dtd">
<svg version="1.1" xmlns="http://www.w3.org/2000/svg" xmlns:xlink="http://www.w3.org/1999/xlink" width="17.334" height="25.061">
 <g>
  <rect height="25.061" opacity="0" width="17.334" x="0" y="0"/>
  <path d="M3.39355 25.0488L13.9404 25.0488C15.979 25.0488 17.334 23.7549 17.334 21.8384L17.334 3.21045C17.334 1.28174 15.979 0 13.9404 0L3.39355 0C1.35498 0 0 1.28174 0 3.21045L0 21.8384C0 23.7549 1.35498 25.0488 3.39355 25.0488ZM8.6792 20.8252C8.23975 20.8252 7.87354 20.4712 7.87354 20.0317L7.87354 17.688C7.87354 17.2485 8.23975 16.8945 8.6792 16.8945C9.11865 16.8945 9.47266 17.2485 9.47266 17.688L9.47266 20.0317C9.47266 20.4712 9.11865 20.8252 8.6792 20.8252ZM8.6792 14.8804C5.07812 14.8804 2.16064 11.9507 2.16064 8.36182C2.16064 4.77295 5.07812 1.85547 8.6792 1.85547C12.2559 1.85547 15.1855 4.77295 15.1855 8.36182C15.1855 11.9507 12.2559 14.8804 8.6792 14.8804ZM8.6792 13.3423C11.4136 13.3423 13.6475 11.1084 13.6475 8.36182C13.6475 5.61523 11.4136 3.39355 8.6792 3.39355C5.92041 3.39355 3.69873 5.61523 3.69873 8.36182C3.69873 11.1084 5.92041 13.3423 8.6792 13.3423Z" fill="#5ac8f5"/>
 </g>
</svg>
