<?xml version="1.0" encoding="UTF-8"?>
<!--Generator: Apple Native CoreSVG 175.5-->
<!DOCTYPE svg
PUBLIC "-//W3C//DTD SVG 1.1//EN"
       "http://www.w3.org/Graphics/SVG/1.1/DTD/svg11.dtd">
<svg version="1.1" xmlns="http://www.w3.org/2000/svg" xmlns:xlink="http://www.w3.org/1999/xlink" width="24.9023" height="24.9146">
 <g>
  <rect height="24.9146" opacity="0" width="24.9023" x="0" y="0"/>
  <path d="M12.4512 24.9146C19.2627 24.9146 24.9023 19.2749 24.9023 12.4634C24.9023 5.66406 19.2505 0.012207 12.439 0.012207C5.63965 0.012207 0 5.66406 0 12.4634C0 19.2749 5.65186 24.9146 12.4512 24.9146Z" fill="#5ac8f5" fill-opacity="0.25"/>
  <path d="M7.6416 18.4448L7.6416 6.49414C7.6416 5.31006 8.45947 4.52881 9.69238 4.52881L15.21 4.52881C16.4429 4.52881 17.2607 5.31006 17.2607 6.49414L17.2607 18.4448C17.2607 19.6167 16.4429 20.4102 15.21 20.4102L9.69238 20.4102C8.45947 20.4102 7.6416 19.6167 7.6416 18.4448ZM8.87451 17.8467L16.0278 17.8467L16.0278 7.09229L8.87451 7.09229ZM12.4634 19.6411C12.8052 19.6411 13.0859 19.3481 13.0859 18.9941C13.0859 18.6523 12.8052 18.3472 12.4634 18.3472C12.1094 18.3472 11.8164 18.6523 11.8164 18.9941C11.8164 19.3481 12.1094 19.6411 12.4634 19.6411ZM11.0107 5.85938C11.0107 6.03027 11.145 6.16455 11.3159 6.16455L13.5986 6.16455C13.7695 6.16455 13.8916 6.03027 13.8916 5.85938C13.8916 5.66406 13.7695 5.5542 13.5986 5.5542L11.3159 5.5542C11.145 5.5542 11.0107 5.66406 11.0107 5.85938Z" fill="#5ac8f5"/>
 </g>
</svg>
