<?xml version="1.0" encoding="UTF-8"?>
<!--Generator: Apple Native CoreSVG 175.5-->
<!DOCTYPE svg
PUBLIC "-//W3C//DTD SVG 1.1//EN"
       "http://www.w3.org/Graphics/SVG/1.1/DTD/svg11.dtd">
<svg version="1.1" xmlns="http://www.w3.org/2000/svg" xmlns:xlink="http://www.w3.org/1999/xlink" width="17.8955" height="27.0142">
 <g>
  <rect height="27.0142" opacity="0" width="17.8955" x="0" y="0"/>
  <path d="M3.78418 27.002L14.1113 27.002C16.626 27.002 17.8955 25.7324 17.8955 23.1812L17.8955 3.83301C17.8955 1.29395 16.626 0 14.1113 0L3.78418 0C1.25732 0 0 1.29395 0 3.83301L0 23.1812C0 25.7324 1.25732 27.002 3.78418 27.002ZM4.57764 11.2671C3.78418 11.2671 3.45459 10.9497 3.45459 10.1685L3.45459 4.44336C3.45459 3.6499 3.78418 3.34473 4.57764 3.34473L13.2568 3.34473C14.0625 3.34473 14.3921 3.6499 14.3921 4.44336L14.3921 10.1685C14.3921 10.9497 14.0625 11.2671 13.2568 11.2671ZM4.57764 23.6694C3.78418 23.6694 3.45459 23.3643 3.45459 22.5708L3.45459 16.8457C3.45459 16.0645 3.78418 15.7471 4.57764 15.7471L13.2568 15.7471C14.0625 15.7471 14.3921 16.0645 14.3921 16.8457L14.3921 22.5708C14.3921 23.3643 14.0625 23.6694 13.2568 23.6694Z" fill="#5ac8f5"/>
 </g>
</svg>
