<?xml version="1.0" encoding="UTF-8"?>
<!--Generator: Apple Native CoreSVG 175.5-->
<!DOCTYPE svg
PUBLIC "-//W3C//DTD SVG 1.1//EN"
       "http://www.w3.org/Graphics/SVG/1.1/DTD/svg11.dtd">
<svg version="1.1" xmlns="http://www.w3.org/2000/svg" xmlns:xlink="http://www.w3.org/1999/xlink" width="29.5166" height="22.4976">
 <g>
  <rect height="22.4976" opacity="0" width="29.5166" x="0" y="0"/>
  <path d="M10.498 0.0244141C3.22266 0.0244141 0 3.35693 0 10.1929L0 18.7134C0 21.2402 1.28174 22.4976 3.83301 22.4976L25.6836 22.4976C28.2349 22.4976 29.5166 21.228 29.5166 18.7134L29.5166 10.1929C29.5166 3.35693 26.2939 0.0244141 19.0308 0.0244141ZM10.498 2.01416L19.0186 2.01416C24.9512 2.01416 27.5513 4.60205 27.5513 10.083L27.5513 18.6157C27.5513 19.8853 26.8677 20.5322 25.6592 20.5322L3.85742 20.5322C2.63672 20.5322 1.96533 19.8853 1.96533 18.6157L1.96533 10.083C1.96533 4.60205 4.56543 2.01416 10.498 2.01416Z" fill="#5ac8f5" fill-opacity="0.5"/>
  <path d="M7.12891 16.8945C7.77588 16.8945 8.11768 16.4917 8.11768 15.8081L8.11768 12.7808L10.3882 12.7808L12.5122 16.2598C12.8052 16.7236 13.0493 16.8945 13.4766 16.8945C14.0015 16.8945 14.3677 16.5527 14.3677 16.0645C14.3677 15.7959 14.3066 15.6006 14.1479 15.3564L12.3169 12.5C13.7451 12.0239 14.6851 10.7422 14.6851 9.21631C14.6851 7.03125 13.1104 5.62744 10.6323 5.62744L7.12891 5.62744C6.50635 5.62744 6.17676 6.0791 6.17676 6.72607L6.17676 15.8081C6.17676 16.4673 6.50635 16.8945 7.12891 16.8945ZM8.11768 11.3525L8.11768 7.1167L10.4004 7.1167C11.8042 7.1167 12.7441 7.89795 12.7441 9.26514C12.7441 10.6079 11.8286 11.3525 10.3516 11.3525ZM17.1387 16.7603L23.291 16.7603C23.7671 16.7603 24.1089 16.4429 24.1089 15.9546C24.1089 15.4541 23.7671 15.1611 23.291 15.1611L18.9575 15.1611L18.9575 15.0757L21.8628 12.0605C22.9492 10.9131 23.6938 9.93652 23.6938 8.58154C23.6938 6.72607 22.2046 5.49316 19.9463 5.49316C18.2129 5.49316 16.687 6.54297 16.2842 7.91016C16.2354 8.09326 16.2231 8.23975 16.2231 8.39844C16.2231 8.87451 16.5405 9.17969 17.0166 9.17969C17.4438 9.17969 17.6636 8.91113 17.8833 8.56934C18.2129 7.82471 18.8477 7.04346 20.0317 7.04346C21.1914 7.04346 21.9604 7.71484 21.9604 8.72803C21.9604 9.61914 21.2158 10.3638 20.4956 11.1206L16.6016 15.2344C16.3818 15.4663 16.272 15.6982 16.272 15.9546C16.272 16.4429 16.6016 16.7603 17.1387 16.7603Z" fill="#5ac8f5"/>
 </g>
</svg>
