<?xml version="1.0" encoding="UTF-8"?>
<!--Generator: Apple Native CoreSVG 175.5-->
<!DOCTYPE svg
PUBLIC "-//W3C//DTD SVG 1.1//EN"
       "http://www.w3.org/Graphics/SVG/1.1/DTD/svg11.dtd">
<svg version="1.1" xmlns="http://www.w3.org/2000/svg" xmlns:xlink="http://www.w3.org/1999/xlink" width="20.7153" height="30.9448">
 <g>
  <rect height="30.9448" opacity="0" width="20.7153" x="0" y="0"/>
  <path d="M3.77197 27.6611L14.7827 27.6611C17.2485 27.6611 18.5425 26.3794 18.5425 23.938L18.5425 14.6851C17.9443 14.9048 17.2852 15.0269 16.5771 15.0513L16.5771 23.8403C16.5771 25.0244 15.8936 25.6958 14.7461 25.6958L3.79639 25.6958C2.66113 25.6958 1.96533 25.0244 1.96533 23.8403L1.96533 4.93164C1.96533 3.73535 2.66113 3.07617 3.79639 3.07617L11.8652 3.07617C12.2192 2.41699 12.6099 1.74561 13.0127 1.11084L3.77197 1.11084C1.30615 1.11084 0 2.39258 0 4.82178L0 23.938C0 26.3794 1.30615 27.6611 3.77197 27.6611ZM3.54004 29.8096C4.12598 29.8096 4.5166 29.4067 4.5166 28.8208L4.5166 26.4282L2.55127 26.4282L2.55127 28.8208C2.55127 29.4067 2.9541 29.8096 3.54004 29.8096ZM15.0024 29.8096C15.6006 29.8096 15.9912 29.4067 15.9912 28.8208L15.9912 26.4282L14.0259 26.4282L14.0259 28.8208C14.0259 29.4067 14.4165 29.8096 15.0024 29.8096ZM5.2002 8.19092C6.14014 8.19092 6.92139 7.40967 6.92139 6.45752C6.92139 5.51758 6.14014 4.74854 5.2002 4.74854C4.24805 4.74854 3.479 5.51758 3.479 6.45752C3.479 7.40967 4.24805 8.19092 5.2002 8.19092ZM4.1748 17.8589L7.72705 17.8589C8.1665 17.8589 8.5083 17.5293 8.5083 17.0898C8.5083 16.6626 8.1665 16.3208 7.72705 16.3208L4.1748 16.3208C3.74756 16.3208 3.40576 16.6626 3.40576 17.0898C3.40576 17.5293 3.74756 17.8589 4.1748 17.8589ZM4.1748 20.9106L7.72705 20.9106C8.1665 20.9106 8.5083 20.5811 8.5083 20.1416C8.5083 19.7021 8.1665 19.3726 7.72705 19.3726L4.1748 19.3726C3.74756 19.3726 3.40576 19.7021 3.40576 20.1416C3.40576 20.5811 3.74756 20.9106 4.1748 20.9106ZM4.1748 23.9624L7.72705 23.9624C8.1665 23.9624 8.5083 23.6206 8.5083 23.1934C8.5083 22.7539 8.1665 22.4121 7.72705 22.4121L4.1748 22.4121C3.74756 22.4121 3.40576 22.7539 3.40576 23.1934C3.40576 23.6206 3.74756 23.9624 4.1748 23.9624ZM10.8154 17.8589L14.3677 17.8589C14.7949 17.8589 15.1367 17.5293 15.1367 17.0898C15.1367 16.6626 14.7949 16.3208 14.3677 16.3208L10.8154 16.3208C10.376 16.3208 10.0342 16.6626 10.0342 17.0898C10.0342 17.5293 10.376 17.8589 10.8154 17.8589ZM10.8154 20.9106L14.3677 20.9106C14.7949 20.9106 15.1367 20.5811 15.1367 20.1416C15.1367 19.7021 14.7949 19.3726 14.3677 19.3726L10.8154 19.3726C10.376 19.3726 10.0342 19.7021 10.0342 20.1416C10.0342 20.5811 10.376 20.9106 10.8154 20.9106ZM10.8154 23.9624L14.3677 23.9624C14.7949 23.9624 15.1367 23.6206 15.1367 23.1934C15.1367 22.7539 14.7949 22.4121 14.3677 22.4121L10.8154 22.4121C10.376 22.4121 10.0342 22.7539 10.0342 23.1934C10.0342 23.6206 10.376 23.9624 10.8154 23.9624ZM16.1011 13.4399C18.8599 13.4399 20.7153 11.6455 20.7153 8.97217C20.7153 7.6416 20.1538 6.46973 19.751 5.56641C19.0186 3.9917 17.8223 2.02637 16.7969 0.439453C16.5894 0.134277 16.3696 0 16.1011 0C15.8325 0 15.6128 0.134277 15.4053 0.439453C14.3799 2.02637 13.1836 3.9917 12.4512 5.56641C12.0483 6.46973 11.4868 7.6416 11.4868 8.97217C11.4868 11.6455 13.3423 13.4399 16.1011 13.4399Z" fill="#5ac8f5"/>
 </g>
</svg>
