<?xml version="1.0" encoding="UTF-8"?>
<!--Generator: Apple Native CoreSVG 175.5-->
<!DOCTYPE svg
PUBLIC "-//W3C//DTD SVG 1.1//EN"
       "http://www.w3.org/Graphics/SVG/1.1/DTD/svg11.dtd">
<svg version="1.1" xmlns="http://www.w3.org/2000/svg" xmlns:xlink="http://www.w3.org/1999/xlink" width="15.018" height="27.6245">
 <g>
  <rect height="27.6245" opacity="0" width="15.018" x="0" y="0"/>
  <path d="M7.50899 27.6001C11.757 27.6001 14.2961 25.5493 14.6867 21.3867C15.1384 16.4185 15.1262 11.377 14.6623 5.98145C14.3083 2.06299 11.757 0 7.50899 0C3.26094 0 0.709671 2.06299 0.355667 5.98145C-0.1082 11.377-0.120407 16.4185 0.331253 21.3867C0.721878 25.5493 3.26094 27.6001 7.50899 27.6001ZM7.49678 22.6685C7.11836 22.6685 6.98409 22.8638 6.67891 22.8638C6.37373 22.8638 6.17842 22.583 5.93428 22.2412C5.64131 21.8262 5.42159 21.2158 5.42159 20.6299C5.42159 19.6777 6.04414 19.1895 6.6545 19.1895C6.94746 19.1895 7.1794 19.3848 7.43575 19.3848C7.69209 19.3848 7.91182 19.1895 8.30244 19.1895C8.43672 19.1895 8.93721 19.1895 9.25459 19.6411C9.23018 19.6655 8.7419 19.9463 8.7419 20.5811C8.7419 21.2891 9.36446 21.5332 9.37666 21.5576C9.37666 21.5698 9.29121 21.9116 9.04707 22.2534C8.83955 22.5586 8.61983 22.8638 8.30244 22.8638C7.97285 22.8638 7.8752 22.6685 7.49678 22.6685ZM7.38692 19.1162C7.38692 18.457 7.86299 17.9688 8.36348 17.9688C8.46114 18.5181 7.97285 19.1406 7.38692 19.1162Z" fill="#5ac8f5"/>
 </g>
</svg>
