<?xml version="1.0" encoding="UTF-8"?>
<!--Generator: Apple Native CoreSVG 175.5-->
<!DOCTYPE svg
PUBLIC "-//W3C//DTD SVG 1.1//EN"
       "http://www.w3.org/Graphics/SVG/1.1/DTD/svg11.dtd">
<svg version="1.1" xmlns="http://www.w3.org/2000/svg" xmlns:xlink="http://www.w3.org/1999/xlink" width="18.9941" height="26.8677">
 <g>
  <rect height="26.8677" opacity="0" width="18.9941" x="0" y="0"/>
  <path d="M1.2207 12.2681L3.06396 12.2681L3.06396 3.36914C3.06396 2.38037 3.62549 1.78223 4.71191 1.78223L14.27 1.78223C15.3564 1.78223 15.9302 2.38037 15.9302 3.36914L15.9302 4.32129L17.7734 4.32129L17.7734 3.11279C17.7734 1.28174 16.5039 0 14.5142 0L4.46777 0C2.47803 0 1.2085 1.28174 1.2085 3.11279ZM4.47998 26.3428L14.5264 26.3428C16.5161 26.3428 17.7856 25.0488 17.7856 23.2178L17.7856 14.0625L15.9424 14.0625L15.9424 22.9614C15.9424 23.9624 15.3687 24.5605 14.2822 24.5605L4.72412 24.5605C3.6377 24.5605 3.06396 23.9624 3.06396 22.9614L3.06396 22.0093L1.2207 22.0093L1.2207 23.2178C1.2207 25.0488 2.49023 26.3428 4.47998 26.3428Z" fill="#5ac8f5" fill-opacity="0.5"/>
  <path d="M12.9517 5.82275C12.4512 5.82275 12.1826 6.21338 12.1826 6.604C12.1826 6.99463 12.4634 7.39746 12.9883 7.39746L14.8926 7.39746L16.3452 7.31201L14.9414 8.63037L13.0371 10.5225C12.854 10.7178 12.7686 10.9253 12.7686 11.1206C12.7686 11.6089 13.2202 12.0483 13.7085 12.0483C13.9038 12.0483 14.1113 11.9751 14.2944 11.792L16.1865 9.8877L17.4927 8.48389L17.4194 9.92432L17.4194 11.8774C17.4194 12.4146 17.8223 12.6831 18.2129 12.6831C18.6035 12.6831 18.9941 12.4268 18.9941 11.9141L18.9941 6.83594C18.9941 6.17676 18.6279 5.82275 17.981 5.82275ZM1.01318 20.52L6.04248 20.52C6.55518 20.52 6.81152 20.1172 6.81152 19.7266C6.81152 19.3237 6.54297 18.9331 6.00586 18.9331L4.10156 18.9331L2.64893 19.0186L4.05273 17.7002L5.95703 15.8081C6.14014 15.625 6.22559 15.4175 6.22559 15.21C6.22559 14.7217 5.77393 14.2944 5.28564 14.2944C5.09033 14.2944 4.88281 14.3555 4.69971 14.5386L2.80762 16.4551L1.50146 17.8467L1.57471 16.4062L1.57471 14.4531C1.57471 13.916 1.17188 13.6475 0.78125 13.6475C0.390625 13.6475 0 13.9038 0 14.4165L0 19.4946C0 20.1538 0.366211 20.52 1.01318 20.52Z" fill="#5ac8f5"/>
 </g>
</svg>
