<?xml version="1.0" encoding="UTF-8"?>
<!--Generator: Apple Native CoreSVG 175.5-->
<!DOCTYPE svg
PUBLIC "-//W3C//DTD SVG 1.1//EN"
       "http://www.w3.org/Graphics/SVG/1.1/DTD/svg11.dtd">
<svg version="1.1" xmlns="http://www.w3.org/2000/svg" xmlns:xlink="http://www.w3.org/1999/xlink" width="28.2959" height="27.5513">
 <g>
  <rect height="27.5513" opacity="0" width="28.2959" x="0" y="0"/>
  <path d="M0.854492 1.81885L27.4536 1.81885C27.9297 1.81885 28.2959 1.40381 28.2959 0.927734C28.2959 0.45166 27.9297 0.0244141 27.4536 0.0244141L0.854492 0.0244141C0.366211 0.0244141 0 0.45166 0 0.927734C0 1.40381 0.366211 1.81885 0.854492 1.81885ZM5.98145 27.5513L10.2295 27.5513C12.0117 27.5513 12.9761 26.5747 12.9761 24.7559L12.9761 6.89697C12.9761 5.09033 12.0117 4.10156 10.2295 4.10156L5.98145 4.10156C4.19922 4.10156 3.23486 5.09033 3.23486 6.89697L3.23486 24.7559C3.23486 26.5747 4.19922 27.5513 5.98145 27.5513ZM18.0908 18.9087L22.3389 18.9087C24.1089 18.9087 25.0854 17.9321 25.0854 16.1133L25.0854 6.89697C25.0854 5.09033 24.1089 4.10156 22.3389 4.10156L18.0908 4.10156C16.3086 4.10156 15.332 5.09033 15.332 6.89697L15.332 16.1133C15.332 17.9321 16.3086 18.9087 18.0908 18.9087Z" fill="#5ac8f5"/>
 </g>
</svg>
