<?xml version="1.0" encoding="UTF-8"?>
<!--Generator: Apple Native CoreSVG 175.5-->
<!DOCTYPE svg
PUBLIC "-//W3C//DTD SVG 1.1//EN"
       "http://www.w3.org/Graphics/SVG/1.1/DTD/svg11.dtd">
<svg version="1.1" xmlns="http://www.w3.org/2000/svg" xmlns:xlink="http://www.w3.org/1999/xlink" width="22.4731" height="22.4976">
 <g>
  <rect height="22.4976" opacity="0" width="22.4731" x="0" y="0"/>
  <path d="M3.83301 22.4976L18.6401 22.4976C21.2036 22.4976 22.4731 21.228 22.4731 18.7134L22.4731 3.80859C22.4731 1.29395 21.2036 0.0244141 18.6401 0.0244141L3.83301 0.0244141C1.28174 0.0244141 0 1.28174 0 3.80859L0 18.7134C0 21.2402 1.28174 22.4976 3.83301 22.4976ZM3.85742 20.5322C2.63672 20.5322 1.96533 19.8853 1.96533 18.6157L1.96533 3.90625C1.96533 2.63672 2.63672 1.98975 3.85742 1.98975L18.6157 1.98975C19.8242 1.98975 20.5078 2.63672 20.5078 3.90625L20.5078 18.6157C20.5078 19.8853 19.8242 20.5322 18.6157 20.5322ZM7.40967 14.27C7.94678 14.27 8.30078 13.8916 8.30078 13.3179L8.30078 11.2061L8.11768 9.30176L9.87549 11.1816L14.3677 15.6738C14.5508 15.8447 14.7705 15.9546 15.0635 15.9546C15.6006 15.9546 15.9668 15.6006 15.9668 15.0513C15.9668 14.8071 15.8447 14.563 15.6738 14.3921L11.1694 9.8877L9.26514 8.11768L11.0718 8.31299L13.2935 8.31299C13.8794 8.31299 14.2578 7.95898 14.2578 7.42188C14.2578 6.88477 13.8916 6.53076 13.3179 6.53076L7.53174 6.53076C6.90918 6.53076 6.51855 6.81152 6.51855 7.53174L6.51855 13.2935C6.51855 13.855 6.87256 14.27 7.40967 14.27Z" fill="#5ac8f5"/>
 </g>
</svg>
