<?xml version="1.0" encoding="UTF-8"?>
<!--Generator: Apple Native CoreSVG 175.5-->
<!DOCTYPE svg
PUBLIC "-//W3C//DTD SVG 1.1//EN"
       "http://www.w3.org/Graphics/SVG/1.1/DTD/svg11.dtd">
<svg version="1.1" xmlns="http://www.w3.org/2000/svg" xmlns:xlink="http://www.w3.org/1999/xlink" width="24.9023" height="24.9146">
 <g>
  <rect height="24.9146" opacity="0" width="24.9023" x="0" y="0"/>
  <path d="M12.4512 24.9023C19.2627 24.9023 24.9023 19.2505 24.9023 12.4512C24.9023 5.63965 19.2505 0 12.439 0C5.63965 0 0 5.63965 0 12.4512C0 19.2505 5.65186 24.9023 12.4512 24.9023ZM12.4512 22.8271C6.68945 22.8271 2.0874 18.2129 2.0874 12.4512C2.0874 6.68945 6.67725 2.0752 12.439 2.0752C18.2007 2.0752 22.8271 6.68945 22.8271 12.4512C22.8271 18.2129 18.2129 22.8271 12.4512 22.8271Z" fill="#5ac8f5" fill-opacity="0.5"/>
  <path d="M13.2812 10.5835C14.4165 10.2295 15.2344 9.16748 15.2344 7.91016C15.2344 6.35986 13.9771 5.10254 12.4268 5.10254C11.1694 5.10254 10.1074 5.93262 9.76562 7.06787ZM10.8276 7.16553C10.8276 6.68945 11.2427 6.27441 11.7188 6.27441C12.207 6.27441 12.6099 6.68945 12.5977 7.16553C12.5977 7.6416 12.207 8.05664 11.7188 8.05664C11.2427 8.05664 10.8276 7.6416 10.8276 7.16553ZM11.5845 13.6963L11.5845 16.6626C11.5845 18.4448 11.8774 20.0317 12.4268 20.0317C12.9883 20.0317 13.269 18.4692 13.269 16.6626L13.269 15.3687ZM18.1396 18.9209C18.3472 19.1284 18.7012 19.1284 18.9209 18.9209C19.1406 18.7012 19.1406 18.3594 18.9209 18.1396L6.75049 5.96924C6.53076 5.74951 6.18896 5.74951 5.95703 5.96924C5.74951 6.18896 5.74951 6.54297 5.95703 6.75049Z" fill="#5ac8f5"/>
 </g>
</svg>
