<?xml version="1.0" encoding="UTF-8"?>
<!--Generator: Apple Native CoreSVG 175.5-->
<!DOCTYPE svg
PUBLIC "-//W3C//DTD SVG 1.1//EN"
       "http://www.w3.org/Graphics/SVG/1.1/DTD/svg11.dtd">
<svg version="1.1" xmlns="http://www.w3.org/2000/svg" xmlns:xlink="http://www.w3.org/1999/xlink" width="28.7842" height="22.4731">
 <g>
  <rect height="22.4731" opacity="0" width="28.7842" x="0" y="0"/>
  <path d="M3.83301 22.4731L24.9512 22.4731C27.5146 22.4731 28.7842 21.2158 28.7842 18.7012L28.7842 3.78418C28.7842 1.26953 27.5146 0 24.9512 0L3.83301 0C1.28174 0 0 1.26953 0 3.78418L0 18.7012C0 21.2158 1.28174 22.4731 3.83301 22.4731ZM3.85742 20.5078C2.63672 20.5078 1.96533 19.8608 1.96533 18.5913L1.96533 3.89404C1.96533 2.62451 2.63672 1.96533 3.85742 1.96533L24.9268 1.96533C26.1353 1.96533 26.8188 2.62451 26.8188 3.89404L26.8188 18.5913C26.8188 19.8608 26.1353 20.5078 24.9268 20.5078Z" fill="#5ac8f5" fill-opacity="0.5"/>
  <path d="M4.69971 18.8477L13.3423 18.8477C14.1113 18.8477 14.4165 18.5303 14.4165 17.749L14.4165 4.73633C14.4165 3.95508 14.1113 3.6377 13.3423 3.6377L4.69971 3.6377C3.94287 3.6377 3.6377 3.95508 3.6377 4.73633L3.6377 17.749C3.6377 18.5303 3.94287 18.8477 4.69971 18.8477ZM24.6582 11.2305C24.6704 10.791 24.2798 10.4126 23.8525 10.4126L20.4346 10.4126L18.6279 10.4736L19.6411 9.50928L20.9595 8.21533C21.1182 8.06885 21.2036 7.84912 21.2036 7.6416C21.2036 7.20215 20.8862 6.88477 20.4712 6.88477C20.2271 6.88477 20.0439 6.98242 19.8853 7.16553L16.6504 10.6323C16.4429 10.8521 16.3696 11.0229 16.3696 11.2305C16.3696 11.4502 16.4307 11.6089 16.6504 11.8286L19.8853 15.2954C20.0439 15.4907 20.2271 15.5884 20.4712 15.5884C20.8862 15.5884 21.2036 15.271 21.2036 14.8315C21.2036 14.624 21.1182 14.4043 20.9595 14.2578L19.6411 12.9517L18.6279 11.9873L20.4346 12.0605L23.8525 12.0605C24.2798 12.0605 24.646 11.6699 24.6582 11.2305Z" fill="#5ac8f5"/>
 </g>
</svg>
