<?xml version="1.0" encoding="UTF-8"?>
<!--Generator: Apple Native CoreSVG 175.5-->
<!DOCTYPE svg
PUBLIC "-//W3C//DTD SVG 1.1//EN"
       "http://www.w3.org/Graphics/SVG/1.1/DTD/svg11.dtd">
<svg version="1.1" xmlns="http://www.w3.org/2000/svg" xmlns:xlink="http://www.w3.org/1999/xlink" width="22.4731" height="22.4976">
 <g>
  <rect height="22.4976" opacity="0" width="22.4731" x="0" y="0"/>
  <path d="M3.83301 22.4976L18.6401 22.4976C21.2036 22.4976 22.4731 21.228 22.4731 18.7134L22.4731 3.80859C22.4731 1.29395 21.2036 0.0244141 18.6401 0.0244141L3.83301 0.0244141C1.28174 0.0244141 0 1.28174 0 3.80859L0 18.7134C0 21.2402 1.28174 22.4976 3.83301 22.4976Z" fill="#5ac8f5" fill-opacity="0.25"/>
  <path d="M5.0293 14.1846C4.67529 13.8428 4.6875 13.2446 5.07812 12.854L9.99756 7.60498C10.791 6.7749 11.7065 6.7749 12.5122 7.60498L17.4316 12.854C17.8223 13.2446 17.8345 13.8428 17.4805 14.1846C17.0898 14.5874 16.4795 14.5874 16.1255 14.209L11.2549 9.04541L6.38428 14.209C6.01807 14.5874 5.41992 14.5874 5.0293 14.1846Z" fill="#5ac8f5"/>
 </g>
</svg>
