<?xml version="1.0" encoding="UTF-8"?>
<!--Generator: Apple Native CoreSVG 175.5-->
<!DOCTYPE svg
PUBLIC "-//W3C//DTD SVG 1.1//EN"
       "http://www.w3.org/Graphics/SVG/1.1/DTD/svg11.dtd">
<svg version="1.1" xmlns="http://www.w3.org/2000/svg" xmlns:xlink="http://www.w3.org/1999/xlink" width="28.7842" height="22.4731">
 <g>
  <rect height="22.4731" opacity="0" width="28.7842" x="0" y="0"/>
  <path d="M3.83301 22.4731L24.9512 22.4731C27.5146 22.4731 28.7842 21.2158 28.7842 18.7012L28.7842 3.78418C28.7842 1.26953 27.5146 0 24.9512 0L3.83301 0C1.28174 0 0 1.26953 0 3.78418L0 18.7012C0 21.2158 1.28174 22.4731 3.83301 22.4731Z" fill="#5ac8f5" fill-opacity="0.25"/>
  <path d="M10.8521 16.1499C10.2173 16.1499 9.93652 15.8081 9.93652 15.3198L9.93652 7.14111C9.93652 6.66504 10.2173 6.32324 10.8521 6.32324L12.085 6.32324C12.7075 6.32324 12.9883 6.66504 12.9883 7.14111L12.9883 15.3198C12.9883 15.8081 12.7075 16.1499 12.085 16.1499ZM16.7358 16.1499C16.1133 16.1499 15.8203 15.8081 15.8203 15.3198L15.8203 7.14111C15.8203 6.66504 16.1133 6.32324 16.7358 6.32324L17.981 6.32324C18.5913 6.32324 18.8721 6.66504 18.8721 7.14111L18.8721 15.3198C18.8721 15.8081 18.5913 16.1499 17.981 16.1499Z" fill="#5ac8f5"/>
 </g>
</svg>
