<?xml version="1.0" encoding="UTF-8"?>
<!--Generator: Apple Native CoreSVG 175.5-->
<!DOCTYPE svg
PUBLIC "-//W3C//DTD SVG 1.1//EN"
       "http://www.w3.org/Graphics/SVG/1.1/DTD/svg11.dtd">
<svg version="1.1" xmlns="http://www.w3.org/2000/svg" xmlns:xlink="http://www.w3.org/1999/xlink" width="33.5083" height="21.5951">
 <g>
  <rect height="21.5951" opacity="0" width="33.5083" x="0" y="0"/>
  <path d="M11.0229 0.000425673C8.93555-0.0239884 6.604 1.0014 5.05371 3.17425C4.82178 3.46722 4.61426 3.79681 4.39453 4.28509C7.04346 4.76117 9.19189 7.10492 9.19189 9.71722C9.19189 10.4619 9.04541 11.1454 8.78906 11.7558C10.4004 11.5239 11.4014 11.1577 12.3169 10.645C14.3311 9.48529 15.918 7.60541 15.918 4.90765C15.918 1.79486 13.7207 0.0248397 11.0229 0.000425673ZM11.499 5.23724C11.2549 5.44476 10.8765 5.42035 10.6689 5.164C10.4614 4.90765 10.498 4.54144 10.7544 4.33392L12.5488 2.82025C12.793 2.61273 13.1592 2.64935 13.3545 2.9057C13.5742 3.14984 13.562 3.51605 13.3057 3.72357ZM9.26514 21.5947L10.2295 21.5947C10.9741 21.5947 11.4746 21.204 11.4746 20.4472L11.4746 12.4028C10.437 12.7812 9.27734 13.0131 8.00781 13.0986L8.00781 20.4472C8.00781 21.204 8.5083 21.5947 9.26514 21.5947ZM22.4731 0.000425673C19.7876 0.0248397 17.5903 1.79486 17.5903 4.90765C17.5903 7.60541 19.1772 9.48529 21.1792 10.645C22.1069 11.1577 23.1079 11.5239 24.7192 11.7558C24.4507 11.1454 24.3164 10.4619 24.3164 9.71722C24.3164 7.10492 26.4526 4.76117 29.1016 4.28509C28.894 3.79681 28.6743 3.46722 28.4546 3.17425C26.8921 1.0014 24.5728-0.0239884 22.4731 0.000425673ZM22.0093 5.23724L20.2026 3.72357C19.9463 3.51605 19.9341 3.14984 20.1416 2.9057C20.3369 2.64935 20.7153 2.61273 20.9595 2.82025L22.7539 4.33392C23.0103 4.54144 23.0347 4.90765 22.8271 5.164C22.6196 5.42035 22.2534 5.44476 22.0093 5.23724ZM24.231 21.5947C25 21.5947 25.4883 21.204 25.4883 20.4472L25.4883 13.0986C24.2188 13.0131 23.0713 12.7812 22.0337 12.4028L22.0337 20.4472C22.0337 21.204 22.522 21.5947 23.2788 21.5947Z" fill="#5ac8f5"/>
  <path d="M4.44336 13.2573C6.33545 13.2573 8.02002 12.0854 8.02002 9.71722C8.02002 7.60541 6.03027 5.37152 3.44238 5.37152C1.25732 5.37152 0 7.10492 0 8.87494C0 11.5239 2.2583 13.2573 4.44336 13.2573ZM3.83301 11.4018C3.49121 11.707 2.90527 11.4018 2.18506 10.5351C1.47705 9.66839 1.29395 9.07025 1.63574 8.77728C1.98975 8.4599 2.56348 8.75287 3.2959 9.63177C3.9917 10.5229 4.1748 11.1088 3.83301 11.4018ZM29.0649 13.2573C31.25 13.2573 33.5083 11.5239 33.5083 8.87494C33.5083 7.10492 32.251 5.37152 30.0659 5.37152C27.478 5.37152 25.4883 7.60541 25.4883 9.71722C25.4883 12.0854 27.1729 13.2573 29.0649 13.2573ZM29.6753 11.4018C29.3335 11.1088 29.5166 10.5229 30.2124 9.63177C30.9448 8.75287 31.5186 8.4599 31.8726 8.77728C32.2144 9.07025 32.0312 9.66839 31.3232 10.5351C30.603 11.4018 30.0171 11.707 29.6753 11.4018Z" fill="#5ac8f5" fill-opacity="0.5"/>
 </g>
</svg>
