<?xml version="1.0" encoding="UTF-8"?>
<!--Generator: Apple Native CoreSVG 175.5-->
<!DOCTYPE svg
PUBLIC "-//W3C//DTD SVG 1.1//EN"
       "http://www.w3.org/Graphics/SVG/1.1/DTD/svg11.dtd">
<svg version="1.1" xmlns="http://www.w3.org/2000/svg" xmlns:xlink="http://www.w3.org/1999/xlink" width="26.3794" height="22.4976">
 <g>
  <rect height="22.4976" opacity="0" width="26.3794" x="0" y="0"/>
  <path d="M2.80762 10.2539L23.5718 10.2539C25.4395 10.2539 26.3794 9.33838 26.3794 7.4585L26.3794 2.79541C26.3794 0.927734 25.4395 0.0244141 23.5718 0.0244141L2.80762 0.0244141C0.939941 0.0244141 0 0.927734 0 2.79541L0 7.4585C0 9.33838 0.939941 10.2539 2.80762 10.2539ZM2.9541 8.41064C2.23389 8.41064 1.84326 8.03223 1.84326 7.27539L1.84326 3.00293C1.84326 2.23389 2.23389 1.86768 2.9541 1.86768L23.4131 1.86768C24.1455 1.86768 24.5361 2.23389 24.5361 3.00293L24.5361 7.27539C24.5361 8.03223 24.1455 8.41064 23.4131 8.41064ZM2.80762 22.4976L23.5718 22.4976C25.4395 22.4976 26.3794 21.5942 26.3794 19.7144L26.3794 15.0391C26.3794 13.1836 25.4395 12.2681 23.5718 12.2681L2.80762 12.2681C0.939941 12.2681 0 13.1836 0 15.0391L0 19.7144C0 21.5942 0.939941 22.4976 2.80762 22.4976ZM2.9541 20.6543C2.23389 20.6543 1.84326 20.2759 1.84326 19.519L1.84326 15.2466C1.84326 14.4775 2.23389 14.1113 2.9541 14.1113L23.4131 14.1113C24.1455 14.1113 24.5361 14.4775 24.5361 15.2466L24.5361 19.519C24.5361 20.2759 24.1455 20.6543 23.4131 20.6543Z" fill="#5ac8f5"/>
 </g>
</svg>
