<?xml version="1.0" encoding="UTF-8"?>
<!--Generator: Apple Native CoreSVG 175.5-->
<!DOCTYPE svg
PUBLIC "-//W3C//DTD SVG 1.1//EN"
       "http://www.w3.org/Graphics/SVG/1.1/DTD/svg11.dtd">
<svg version="1.1" xmlns="http://www.w3.org/2000/svg" xmlns:xlink="http://www.w3.org/1999/xlink" width="28.7842" height="33.3131">
 <g>
  <rect height="33.3131" opacity="0" width="28.7842" x="0" y="0"/>
  <path d="M22.4243 13.9039C23.4741 13.8794 24.3286 13.0494 24.3286 12.0118C24.3286 10.962 23.4741 10.1075 22.4243 10.0953C21.3745 10.0831 20.5078 10.962 20.5078 12.0118C20.5078 13.0494 21.3745 13.9161 22.4243 13.9039ZM22.4243 19.4581C23.4741 19.4581 24.3286 18.5914 24.3286 17.5415C24.3286 16.4917 23.4741 15.6373 22.4243 15.6373C21.3745 15.6373 20.5078 16.4917 20.5078 17.5415C20.5078 18.5914 21.3745 19.4581 22.4243 19.4581ZM11.5234 11.5235C12.0117 11.5235 12.4023 11.1084 12.4023 10.5957C12.4023 10.1075 12.0117 9.70463 11.5234 9.70463C11.0352 9.70463 10.6323 10.1075 10.6323 10.5957C10.6323 11.1084 11.0352 11.5235 11.5234 11.5235ZM14.5386 12.378C15.0513 12.378 15.4297 11.9629 15.4297 11.4747C15.4297 10.962 15.0513 10.5713 14.5386 10.5713C14.0503 10.5713 13.6719 10.962 13.6719 11.4747C13.6719 11.9629 14.0503 12.378 14.5386 12.378ZM16.8213 14.5508C17.3096 14.5508 17.7246 14.1602 17.7246 13.6719C17.7246 13.1592 17.3096 12.7442 16.8213 12.7442C16.333 12.7442 15.9424 13.1592 15.9424 13.6719C15.9424 14.1602 16.333 14.5508 16.8213 14.5508ZM17.5903 17.4805C18.0786 17.4805 18.4692 17.0777 18.4692 16.5894C18.4692 16.0889 18.0786 15.6983 17.5903 15.6983C17.0898 15.6983 16.6992 16.0889 16.6992 16.5894C16.6992 17.0777 17.0898 17.4805 17.5903 17.4805ZM16.8213 20.4224C17.3096 20.4224 17.7246 20.0074 17.7246 19.5069C17.7246 19.0064 17.3096 18.6158 16.8213 18.6158C16.333 18.6158 15.9424 19.0064 15.9424 19.5069C15.9424 20.0074 16.333 20.4224 16.8213 20.4224ZM14.5386 22.6685C15.0513 22.6685 15.4297 22.2657 15.4297 21.7652C15.4297 21.2769 15.0513 20.8619 14.5386 20.8619C14.0503 20.8619 13.6719 21.2769 13.6719 21.7652C13.6719 22.2657 14.0503 22.6685 14.5386 22.6685ZM11.5234 23.5962C12.0117 23.5962 12.4023 23.1934 12.4023 22.7051C12.4023 22.1924 12.0117 21.7774 11.5234 21.7774C11.0352 21.7774 10.6323 22.1924 10.6323 22.7051C10.6323 23.1934 11.0352 23.5962 11.5234 23.5962ZM8.49609 22.6685C8.98438 22.6685 9.36279 22.2657 9.36279 21.7652C9.36279 21.2769 8.98438 20.8619 8.49609 20.8619C7.9834 20.8619 7.60498 21.2769 7.60498 21.7652C7.60498 22.2657 7.9834 22.6685 8.49609 22.6685ZM6.22559 20.4224C6.71387 20.4224 7.09229 20.0074 7.09229 19.5069C7.09229 19.0064 6.71387 18.6158 6.22559 18.6158C5.7251 18.6158 5.31006 19.0064 5.31006 19.5069C5.31006 20.0074 5.7251 20.4224 6.22559 20.4224ZM5.45654 17.4805C5.94482 17.4805 6.33545 17.0777 6.33545 16.5894C6.33545 16.0889 5.94482 15.6983 5.45654 15.6983C4.96826 15.6983 4.56543 16.0889 4.56543 16.5894C4.56543 17.0777 4.96826 17.4805 5.45654 17.4805ZM6.22559 14.5508C6.71387 14.5508 7.09229 14.1602 7.09229 13.6719C7.09229 13.1592 6.71387 12.7442 6.22559 12.7442C5.7251 12.7442 5.31006 13.1592 5.31006 13.6719C5.31006 14.1602 5.7251 14.5508 6.22559 14.5508ZM8.49609 12.378C8.98438 12.378 9.36279 11.9629 9.36279 11.4747C9.36279 10.962 8.98438 10.5713 8.49609 10.5713C7.9834 10.5713 7.60498 10.962 7.60498 11.4747C7.60498 11.9629 7.9834 12.378 8.49609 12.378ZM11.5234 14.6241C12.0117 14.6241 12.4023 14.2212 12.4023 13.733C12.4023 13.2325 12.0117 12.8174 11.5234 12.8174C11.0352 12.8174 10.6323 13.2325 10.6323 13.733C10.6323 14.2212 11.0352 14.6241 11.5234 14.6241ZM14.3555 15.8448C14.856 15.8448 15.2344 15.4297 15.2344 14.9537C15.2344 14.4654 14.856 14.0625 14.3555 14.0625C13.8672 14.0625 13.4521 14.4654 13.4521 14.9537C13.4521 15.4297 13.8672 15.8448 14.3555 15.8448ZM14.3555 19.2383C14.856 19.2383 15.2344 18.8477 15.2344 18.3594C15.2344 17.8467 14.856 17.4439 14.3555 17.4439C13.8672 17.4439 13.4521 17.8467 13.4521 18.3594C13.4521 18.8477 13.8672 19.2383 14.3555 19.2383ZM11.5234 20.4834C12.0117 20.4834 12.4023 20.0684 12.4023 19.5679C12.4023 19.0796 12.0117 18.6768 11.5234 18.6768C11.0352 18.6768 10.6323 19.0796 10.6323 19.5679C10.6323 20.0684 11.0352 20.4834 11.5234 20.4834ZM8.6792 19.2383C9.16748 19.2383 9.58252 18.8477 9.58252 18.3594C9.58252 17.8467 9.16748 17.4439 8.6792 17.4439C8.19092 17.4439 7.80029 17.8467 7.80029 18.3594C7.80029 18.8477 8.19092 19.2383 8.6792 19.2383ZM8.6792 15.8448C9.16748 15.8448 9.58252 15.4297 9.58252 14.9537C9.58252 14.4654 9.16748 14.0625 8.6792 14.0625C8.19092 14.0625 7.80029 14.4654 7.80029 14.9537C7.80029 15.4297 8.19092 15.8448 8.6792 15.8448ZM11.5234 17.5415C12.0117 17.5415 12.4023 17.1387 12.4023 16.6504C12.4023 16.1622 12.0117 15.7593 11.5234 15.7593C11.0352 15.7593 10.6323 16.1622 10.6323 16.6504C10.6323 17.1387 11.0352 17.5415 11.5234 17.5415ZM23.3154 7.3975L23.9136 5.51762L7.06787 0.0488712C6.55518-0.122027 5.99365 0.170941 5.83496 0.683637C5.66406 1.19633 5.95703 1.75786 6.46973 1.92875ZM3.83301 27.8931L24.9512 27.8931C27.5146 27.8931 28.7842 26.6358 28.7842 24.1211L28.7842 9.20414C28.7842 6.6895 27.5146 5.41996 24.9512 5.41996L3.83301 5.41996C1.28174 5.41996 0 6.6895 0 9.20414L0 24.1211C0 26.6358 1.28174 27.8931 3.83301 27.8931ZM3.85742 25.9278C2.63672 25.9278 1.96533 25.2808 1.96533 24.0113L1.96533 9.31401C1.96533 8.04448 2.63672 7.3853 3.85742 7.3853L24.9268 7.3853C26.1353 7.3853 26.8188 8.04448 26.8188 9.31401L26.8188 24.0113C26.8188 25.2808 26.1353 25.9278 24.9268 25.9278Z" fill="#5ac8f5"/>
 </g>
</svg>
