<?xml version="1.0" encoding="UTF-8"?>
<!--Generator: Apple Native CoreSVG 175.5-->
<!DOCTYPE svg
PUBLIC "-//W3C//DTD SVG 1.1//EN"
       "http://www.w3.org/Graphics/SVG/1.1/DTD/svg11.dtd">
<svg version="1.1" xmlns="http://www.w3.org/2000/svg" xmlns:xlink="http://www.w3.org/1999/xlink" width="23.9014" height="23.9136">
 <g>
  <rect height="23.9136" opacity="0" width="23.9014" x="0" y="0"/>
  <path d="M0.976562 7.78809C1.62354 7.78809 1.96533 7.42188 1.96533 6.78711L1.96533 3.90625C1.96533 2.63672 2.63672 1.98975 3.85742 1.98975L6.81152 1.98975C7.4585 1.98975 7.8125 1.63574 7.8125 1.00098C7.8125 0.366211 7.4585 0.0244141 6.81152 0.0244141L3.83301 0.0244141C1.28174 0.0244141 0 1.28174 0 3.79639L0 6.78711C0 7.42188 0.354004 7.78809 0.976562 7.78809ZM22.9126 7.78809C23.5596 7.78809 23.9014 7.42188 23.9014 6.78711L23.9014 3.79639C23.9014 1.28174 22.6196 0.0244141 20.0684 0.0244141L17.0776 0.0244141C16.4429 0.0244141 16.0889 0.366211 16.0889 1.00098C16.0889 1.63574 16.4429 1.98975 17.0776 1.98975L20.0317 1.98975C21.2402 1.98975 21.936 2.63672 21.936 3.90625L21.936 6.78711C21.936 7.42188 22.29 7.78809 22.9126 7.78809ZM3.83301 23.9136L6.81152 23.9136C7.4585 23.9136 7.8125 23.5596 7.8125 22.937C7.8125 22.3022 7.4585 21.9482 6.81152 21.9482L3.85742 21.9482C2.63672 21.9482 1.96533 21.3013 1.96533 20.0317L1.96533 17.1509C1.96533 16.5039 1.61133 16.1499 0.976562 16.1499C0.341797 16.1499 0 16.5039 0 17.1509L0 20.1294C0 22.6562 1.28174 23.9136 3.83301 23.9136ZM17.0776 23.9136L20.0684 23.9136C22.6196 23.9136 23.9014 22.644 23.9014 20.1294L23.9014 17.1509C23.9014 16.5039 23.5474 16.1499 22.9126 16.1499C22.2778 16.1499 21.936 16.5039 21.936 17.1509L21.936 20.0317C21.936 21.3013 21.2402 21.9482 20.0317 21.9482L17.0776 21.9482C16.4429 21.9482 16.0889 22.3022 16.0889 22.937C16.0889 23.5596 16.4429 23.9136 17.0776 23.9136ZM6.62842 17.8223L10.8765 17.8223C11.1816 17.8223 11.4136 17.5903 11.4136 17.2852L11.4136 13.0371C11.4136 12.7319 11.1816 12.5 10.8765 12.5L6.62842 12.5C6.32324 12.5 6.09131 12.7319 6.09131 13.0371L6.09131 17.2852C6.09131 17.5903 6.32324 17.8223 6.62842 17.8223ZM7.15332 16.7603L7.15332 13.562L10.3516 13.562L10.3516 16.7603ZM8.08105 15.8203L9.42383 15.8203L9.42383 14.4897L8.08105 14.4897ZM6.62842 11.438L10.8765 11.438C11.1816 11.438 11.4136 11.2061 11.4136 10.9131L11.4136 6.65283C11.4136 6.35986 11.1816 6.11572 10.8765 6.11572L6.62842 6.11572C6.32324 6.11572 6.09131 6.35986 6.09131 6.65283L6.09131 10.9131C6.09131 11.2061 6.32324 11.438 6.62842 11.438ZM7.15332 10.376L7.15332 7.17773L10.3516 7.17773L10.3516 10.376ZM8.08105 9.44824L9.42383 9.44824L9.42383 8.10547L8.08105 8.10547ZM13.0005 11.438L17.2485 11.438C17.5537 11.438 17.7856 11.2061 17.7856 10.9131L17.7856 6.65283C17.7856 6.35986 17.5537 6.11572 17.2485 6.11572L13.0005 6.11572C12.6953 6.11572 12.4634 6.35986 12.4634 6.65283L12.4634 10.9131C12.4634 11.2061 12.6953 11.438 13.0005 11.438ZM13.5254 10.376L13.5254 7.17773L16.7236 7.17773L16.7236 10.376ZM14.4653 9.44824L15.7959 9.44824L15.7959 8.10547L14.4653 8.10547ZM12.6221 17.6636L13.9526 17.6636L13.9526 16.333L12.6221 16.333ZM16.2964 17.6636L17.627 17.6636L17.627 16.333L16.2964 16.333ZM14.4531 15.8203L15.7959 15.8203L15.7959 14.4897L14.4531 14.4897ZM12.6221 13.9771L13.9526 13.9771L13.9526 12.6465L12.6221 12.6465ZM16.2964 13.9771L17.627 13.9771L17.627 12.6465L16.2964 12.6465Z" fill="#5ac8f5"/>
 </g>
</svg>
