<?xml version="1.0" encoding="UTF-8"?>
<!--Generator: Apple Native CoreSVG 175.5-->
<!DOCTYPE svg
PUBLIC "-//W3C//DTD SVG 1.1//EN"
       "http://www.w3.org/Graphics/SVG/1.1/DTD/svg11.dtd">
<svg version="1.1" xmlns="http://www.w3.org/2000/svg" xmlns:xlink="http://www.w3.org/1999/xlink" width="22.4731" height="22.4976">
 <g>
  <rect height="22.4976" opacity="0" width="22.4731" x="0" y="0"/>
  <path d="M3.83301 22.4976L18.6401 22.4976C21.2036 22.4976 22.4731 21.228 22.4731 18.7134L22.4731 3.80859C22.4731 1.29395 21.2036 0.0244141 18.6401 0.0244141L3.83301 0.0244141C1.28174 0.0244141 0 1.28174 0 3.80859L0 18.7134C0 21.2402 1.28174 22.4976 3.83301 22.4976ZM3.85742 20.5322C2.63672 20.5322 1.96533 19.8853 1.96533 18.6157L1.96533 3.90625C1.96533 2.63672 2.63672 1.98975 3.85742 1.98975L18.6157 1.98975C19.8242 1.98975 20.5078 2.63672 20.5078 3.90625L20.5078 18.6157C20.5078 19.8853 19.8242 20.5322 18.6157 20.5322ZM8.04443 16.687L11.1572 16.687C14.624 16.687 16.5771 14.7095 16.5771 11.0962C16.5771 7.53174 14.6484 5.56641 11.1572 5.56641L8.04443 5.56641C7.42188 5.56641 7.09229 6.00586 7.09229 6.66504L7.09229 15.5884C7.09229 16.2476 7.42188 16.687 8.04443 16.687ZM8.97217 15.1733L8.97217 7.08008L10.9375 7.08008C13.3179 7.08008 14.624 8.49609 14.624 11.1328C14.624 13.8184 13.3301 15.1733 10.9375 15.1733Z" fill="#5ac8f5"/>
 </g>
</svg>
