<?xml version="1.0" encoding="UTF-8"?>
<!--Generator: Apple Native CoreSVG 175.5-->
<!DOCTYPE svg
PUBLIC "-//W3C//DTD SVG 1.1//EN"
       "http://www.w3.org/Graphics/SVG/1.1/DTD/svg11.dtd">
<svg version="1.1" xmlns="http://www.w3.org/2000/svg" xmlns:xlink="http://www.w3.org/1999/xlink" width="24.9023" height="24.9146">
 <g>
  <rect height="24.9146" opacity="0" width="24.9023" x="0" y="0"/>
  <path d="M12.4512 24.9023C19.2627 24.9023 24.9023 19.2505 24.9023 12.4512C24.9023 5.63965 19.2505 0 12.439 0C5.63965 0 0 5.63965 0 12.4512C0 19.2505 5.65186 24.9023 12.4512 24.9023ZM12.4512 22.8271C6.68945 22.8271 2.0874 18.2129 2.0874 12.4512C2.0874 6.68945 6.67725 2.0752 12.439 2.0752C18.2007 2.0752 22.8271 6.68945 22.8271 12.4512C22.8271 18.2129 18.2129 22.8271 12.4512 22.8271ZM5.87158 17.0532C5.87158 17.627 6.25 18.0054 6.82373 18.0054L18.457 18.0054C18.8232 18.0054 19.1406 17.7002 19.1406 17.334C19.1406 16.9678 18.8232 16.6626 18.457 16.6626L7.23877 16.6626C7.21436 16.6626 7.22656 16.6748 7.22656 16.6382L7.22656 7.21436C7.22656 6.84814 6.90918 6.54297 6.54297 6.54297C6.17676 6.54297 5.87158 6.84814 5.87158 7.21436ZM6.97021 8.3252L6.01807 9.28955L8.76465 12.0972C9.04541 12.3901 9.33838 12.5244 9.70459 12.5244C10.0586 12.5244 10.3638 12.3901 10.6445 12.0972L12.8052 9.87549C12.8662 9.80225 12.915 9.80225 12.9761 9.8877L15.1733 12.1094L14.2944 12.9761C13.9893 13.2568 14.1724 13.7329 14.6118 13.8428L18.103 14.7095C18.5059 14.8193 18.8599 14.4775 18.7622 14.0869L17.8711 10.5713C17.749 10.1196 17.3096 9.96094 17.0044 10.2539L16.1377 11.145L13.8306 8.80127C13.5498 8.5083 13.2324 8.36182 12.8784 8.36182C12.5366 8.36182 12.2437 8.5083 11.9385 8.80127L9.80225 10.9741C9.74121 11.0596 9.68018 11.0596 9.60693 10.9741Z" fill="#5ac8f5"/>
 </g>
</svg>
