<?xml version="1.0" encoding="UTF-8"?>
<!--Generator: Apple Native CoreSVG 175.5-->
<!DOCTYPE svg
PUBLIC "-//W3C//DTD SVG 1.1//EN"
       "http://www.w3.org/Graphics/SVG/1.1/DTD/svg11.dtd">
<svg version="1.1" xmlns="http://www.w3.org/2000/svg" xmlns:xlink="http://www.w3.org/1999/xlink" width="22.4731" height="22.4976">
 <g>
  <rect height="22.4976" opacity="0" width="22.4731" x="0" y="0"/>
  <path d="M3.83301 22.4976L18.6401 22.4976C21.2036 22.4976 22.4731 21.228 22.4731 18.7134L22.4731 3.80859C22.4731 1.29395 21.2036 0.0244141 18.6401 0.0244141L3.83301 0.0244141C1.28174 0.0244141 0 1.28174 0 3.80859L0 18.7134C0 21.2402 1.28174 22.4976 3.83301 22.4976Z" fill="#5ac8f5" fill-opacity="0.25"/>
  <path d="M11.1206 17.1509C8.82568 17.1509 7.2998 16.04 6.84814 14.8438C6.75049 14.6118 6.70166 14.4043 6.70166 14.209C6.70166 13.6597 7.06787 13.3057 7.61719 13.3057C8.06885 13.3057 8.3374 13.5254 8.56934 13.9893C9.00879 14.9902 9.92432 15.5029 11.2427 15.5029C12.6221 15.5029 13.6841 14.8926 13.6841 13.7817C13.6841 12.9028 13.1714 12.5244 11.6821 12.1094L9.85107 11.5845C7.89795 11.0474 6.87256 10.144 6.87256 8.55713C6.87256 6.54297 8.66699 5.11475 11.2549 5.11475C13.3789 5.11475 14.8926 6.09131 15.3687 7.43408C15.4541 7.65381 15.4907 7.87354 15.4907 8.03223C15.4907 8.61816 15.1123 8.91113 14.5996 8.91113C14.1113 8.91113 13.8428 8.6792 13.6719 8.26416C13.2324 7.21436 12.439 6.71387 11.1694 6.71387C9.83887 6.71387 8.97217 7.38525 8.97217 8.43506C8.97217 9.2041 9.47266 9.66797 10.6812 9.98535L12.3657 10.437C14.5752 11.0229 15.7959 11.9507 15.7959 13.6108C15.7959 15.7837 13.9404 17.1509 11.1206 17.1509Z" fill="#5ac8f5"/>
 </g>
</svg>
