<?xml version="1.0" encoding="UTF-8"?>
<!--Generator: Apple Native CoreSVG 175.5-->
<!DOCTYPE svg
PUBLIC "-//W3C//DTD SVG 1.1//EN"
       "http://www.w3.org/Graphics/SVG/1.1/DTD/svg11.dtd">
<svg version="1.1" xmlns="http://www.w3.org/2000/svg" xmlns:xlink="http://www.w3.org/1999/xlink" width="19.4214" height="19.9341">
 <g>
  <rect height="19.9341" opacity="0" width="19.4214" x="0" y="0"/>
  <path d="M19.4214 18.457C19.4214 17.9688 19.2017 17.5781 18.9453 17.0654L11.3403 1.3916C10.8276 0.341797 10.3516 0.012207 9.70459 0.012207C9.05762 0.012207 8.59375 0.341797 8.08105 1.3916L0.463867 17.0654C0.219727 17.5903 0 17.981 0 18.4692C0 19.3726 0.683594 19.9341 1.74561 19.9341L17.6636 19.9219C18.7256 19.9219 19.4214 19.3604 19.4214 18.457ZM17.0898 17.8467C17.0898 17.9199 17.041 17.9688 16.9434 17.9688L2.46582 17.9688C2.36816 17.9688 2.33154 17.9199 2.33154 17.8467C2.33154 17.7979 2.35596 17.749 2.38037 17.7002L9.57031 2.74658C9.60693 2.68555 9.64355 2.63672 9.70459 2.63672C9.77783 2.63672 9.81445 2.68555 9.85107 2.74658L17.041 17.7002C17.0654 17.749 17.0898 17.7979 17.0898 17.8467Z" fill="#5ac8f5"/>
 </g>
</svg>
