<?xml version="1.0" encoding="UTF-8"?>
<!--Generator: Apple Native CoreSVG 175.5-->
<!DOCTYPE svg
PUBLIC "-//W3C//DTD SVG 1.1//EN"
       "http://www.w3.org/Graphics/SVG/1.1/DTD/svg11.dtd">
<svg version="1.1" xmlns="http://www.w3.org/2000/svg" xmlns:xlink="http://www.w3.org/1999/xlink" width="24.9023" height="24.9146">
 <g>
  <rect height="24.9146" opacity="0" width="24.9023" x="0" y="0"/>
  <path d="M12.4512 24.9146C19.2627 24.9146 24.9023 19.2749 24.9023 12.4634C24.9023 5.66406 19.2505 0.012207 12.439 0.012207C5.63965 0.012207 0 5.66406 0 12.4634C0 19.2749 5.65186 24.9146 12.4512 24.9146Z" fill="#5ac8f5" fill-opacity="0.25"/>
  <path d="M12.2681 19.751C8.39844 19.751 5.44434 16.98 5.44434 13.0981C5.44434 10.3394 7.08008 7.70264 9.52148 6.73828C10.0708 6.51855 10.4004 6.87256 10.1929 7.33643C9.99756 7.91016 9.79004 8.93555 9.79004 9.68018C9.79004 13.2568 12.085 15.5029 15.6494 15.5029C16.4551 15.5029 17.2974 15.332 17.7979 15.1611C18.3105 14.9902 18.5913 15.3809 18.3716 15.8813C17.5415 18.0176 15.1001 19.751 12.2681 19.751ZM16.0278 11.731C15.8813 11.731 15.7715 11.6089 15.7471 11.4624C15.4663 9.22852 15.3564 9.19189 13.0249 8.75244C12.8662 8.74023 12.7686 8.63037 12.7686 8.45947C12.7686 8.31299 12.8662 8.20312 13.0249 8.19092C15.3564 7.86133 15.4297 7.73926 15.7471 5.48096C15.7715 5.32227 15.8813 5.2124 16.0278 5.2124C16.1743 5.2124 16.2842 5.32227 16.3086 5.48096C16.6382 7.70264 16.7236 7.73926 19.0308 8.19092C19.1772 8.20312 19.2871 8.31299 19.2871 8.45947C19.2871 8.64258 19.1772 8.74023 19.0063 8.75244C16.7114 9.09424 16.5894 9.2041 16.3086 11.4624C16.2842 11.6089 16.1743 11.731 16.0278 11.731Z" fill="#5ac8f5"/>
 </g>
</svg>
