<?xml version="1.0" encoding="UTF-8"?>
<!--Generator: Apple Native CoreSVG 175.5-->
<!DOCTYPE svg
PUBLIC "-//W3C//DTD SVG 1.1//EN"
       "http://www.w3.org/Graphics/SVG/1.1/DTD/svg11.dtd">
<svg version="1.1" xmlns="http://www.w3.org/2000/svg" xmlns:xlink="http://www.w3.org/1999/xlink" width="28.7842" height="22.4731">
 <g>
  <rect height="22.4731" opacity="0" width="28.7842" x="0" y="0"/>
  <path d="M5.79834 7.39746L13.6719 7.39746C14.1479 7.39746 14.5264 7.00684 14.5264 6.53076C14.5264 6.05469 14.1479 5.68848 13.6719 5.68848L5.79834 5.68848C5.31006 5.68848 4.95605 6.05469 4.95605 6.53076C4.95605 7.00684 5.31006 7.39746 5.79834 7.39746ZM5.79834 10.6567L11.5601 10.6567C12.0361 10.6567 12.4146 10.2783 12.4146 9.80225C12.4146 9.32617 12.0361 8.94775 11.5601 8.94775L5.79834 8.94775C5.31006 8.94775 4.95605 9.32617 4.95605 9.80225C4.95605 10.2783 5.31006 10.6567 5.79834 10.6567ZM20.9106 10.9863C22.522 10.9863 23.8281 9.68018 23.8281 8.05664C23.8281 6.43311 22.522 5.12695 20.9106 5.12695C19.2993 5.12695 17.981 6.43311 17.981 8.05664C17.981 9.68018 19.2993 10.9863 20.9106 10.9863ZM3.83301 22.4731L24.9512 22.4731C27.5146 22.4731 28.7842 21.2158 28.7842 18.7012L28.7842 3.78418C28.7842 1.26953 27.5146 0 24.9512 0L3.83301 0C1.28174 0 0 1.26953 0 3.78418L0 18.7012C0 21.2158 1.28174 22.4731 3.83301 22.4731ZM3.85742 20.5078C2.63672 20.5078 1.96533 19.8608 1.96533 18.5913L1.96533 3.89404C1.96533 2.62451 2.63672 1.96533 3.85742 1.96533L24.9268 1.96533C26.1353 1.96533 26.8188 2.62451 26.8188 3.89404L26.8188 18.5913C26.8188 19.8608 26.1353 20.5078 24.9268 20.5078Z" fill="#5ac8f5"/>
 </g>
</svg>
