<?xml version="1.0" encoding="UTF-8"?>
<!--Generator: Apple Native CoreSVG 175.5-->
<!DOCTYPE svg
PUBLIC "-//W3C//DTD SVG 1.1//EN"
       "http://www.w3.org/Graphics/SVG/1.1/DTD/svg11.dtd">
<svg version="1.1" xmlns="http://www.w3.org/2000/svg" xmlns:xlink="http://www.w3.org/1999/xlink" width="24.9023" height="24.9146">
 <g>
  <rect height="24.9146" opacity="0" width="24.9023" x="0" y="0"/>
  <path d="M12.4512 24.9023C19.2627 24.9023 24.9023 19.2505 24.9023 12.4512C24.9023 5.63965 19.2505 0 12.439 0C5.63965 0 0 5.63965 0 12.4512C0 19.2505 5.65186 24.9023 12.4512 24.9023ZM12.4512 22.8271C6.68945 22.8271 2.0874 18.2129 2.0874 12.4512C2.0874 6.68945 6.67725 2.0752 12.439 2.0752C18.2007 2.0752 22.8271 6.68945 22.8271 12.4512C22.8271 18.2129 18.2129 22.8271 12.4512 22.8271ZM6.16455 17.4316L11.2183 17.4316C11.6089 17.4316 11.9019 17.1387 11.9019 16.6992C11.9019 16.2476 11.6089 15.9912 11.2183 15.9912L7.66602 15.9912L7.66602 15.9058L10.0708 13.1226C10.9619 12.0728 11.6333 11.1938 11.6333 9.97314C11.6333 8.27637 10.4004 7.18994 8.48389 7.18994C7.03125 7.18994 5.7373 8.11768 5.41992 9.36279C5.39551 9.52148 5.35889 9.65576 5.35889 9.80225C5.35889 10.2417 5.61523 10.5347 6.04248 10.5347C6.39648 10.5347 6.57959 10.3271 6.73828 9.96094C7.05566 9.04541 7.66602 8.59375 8.54492 8.59375C9.52148 8.59375 10.1685 9.2041 10.1685 10.1074C10.1685 10.9009 9.52148 11.5845 8.94775 12.2681L5.7251 16.0522C5.52979 16.2598 5.45654 16.4673 5.45654 16.7114C5.45654 17.1509 5.7373 17.4316 6.16455 17.4316ZM18.1763 17.688C18.6768 17.688 18.9331 17.3462 18.9331 16.8701L18.9331 15.4297L19.5923 15.4297C20.0073 15.4297 20.2759 15.1855 20.2759 14.7583C20.2759 14.3188 20.0073 14.0625 19.5923 14.0625L18.9331 14.0625L18.9331 8.34961C18.9331 7.6416 18.4326 7.18994 17.7246 7.18994C17.0166 7.18994 16.5771 7.4585 16.1865 8.12988C15.1611 9.83887 13.9282 11.9385 13.1104 13.4155C12.915 13.7939 12.8418 14.0625 12.8418 14.3921C12.8418 15.0391 13.269 15.4297 13.8916 15.4297L17.4438 15.4297L17.4438 16.8701C17.4438 17.334 17.7002 17.688 18.1763 17.688ZM17.4438 14.0625L14.4409 14.0625L14.4409 14.0137C15.1611 12.6343 16.4062 10.4858 17.3828 8.83789L17.4438 8.83789Z" fill="#5ac8f5"/>
 </g>
</svg>
