<?xml version="1.0" encoding="UTF-8"?>
<!--Generator: Apple Native CoreSVG 175.5-->
<!DOCTYPE svg
PUBLIC "-//W3C//DTD SVG 1.1//EN"
       "http://www.w3.org/Graphics/SVG/1.1/DTD/svg11.dtd">
<svg version="1.1" xmlns="http://www.w3.org/2000/svg" xmlns:xlink="http://www.w3.org/1999/xlink" width="13.5498" height="26.6479">
 <g>
  <rect height="26.6479" opacity="0" width="13.5498" x="0" y="0"/>
  <path d="M3.75977 26.6357L9.79004 26.6357C12.2681 26.6357 13.5498 25.3662 13.5498 22.9248L13.5498 3.72314C13.5498 1.28174 12.2681 0 9.79004 0L3.75977 0C1.29395 0 0 1.28174 0 3.72314L0 22.9248C0 25.3662 1.29395 26.6357 3.75977 26.6357ZM6.78711 8.42285C5.7373 8.42285 4.88281 7.58057 4.88281 6.51855C4.88281 5.49316 5.7373 4.65088 6.78711 4.65088C7.82471 4.65088 8.6792 5.49316 8.6792 6.51855C8.6792 7.58057 7.82471 8.42285 6.78711 8.42285ZM6.78711 15.21C5.7373 15.21 4.88281 14.3677 4.88281 13.3179C4.88281 12.2803 5.7373 11.4258 6.78711 11.4258C7.82471 11.4258 8.6792 12.2803 8.6792 13.3179C8.6792 14.3677 7.82471 15.21 6.78711 15.21ZM6.78711 21.9971C5.7373 21.9971 4.88281 21.1426 4.88281 20.105C4.88281 19.0674 5.7373 18.2251 6.78711 18.2251C7.82471 18.2251 8.6792 19.0674 8.6792 20.105C8.6792 21.1426 7.82471 21.9971 6.78711 21.9971Z" fill="#5ac8f5"/>
 </g>
</svg>
