<?xml version="1.0" encoding="UTF-8"?>
<!--Generator: Apple Native CoreSVG 175.5-->
<!DOCTYPE svg
PUBLIC "-//W3C//DTD SVG 1.1//EN"
       "http://www.w3.org/Graphics/SVG/1.1/DTD/svg11.dtd">
<svg version="1.1" xmlns="http://www.w3.org/2000/svg" xmlns:xlink="http://www.w3.org/1999/xlink" width="29.5288" height="29.3579">
 <g>
  <rect height="29.3579" opacity="0" width="29.5288" x="0" y="0"/>
  <path d="M8.10547 22.937L21.4233 25.2686C23.7549 25.6836 25.1465 24.2188 25.1465 21.6064L25.1465 7.59277C25.1465 4.84619 23.8525 3.49121 21.4233 3.91846L8.10547 6.26221C5.67627 6.68945 4.38232 7.87354 4.38232 9.92432L4.38232 19.2627C4.38232 21.3013 5.67627 22.5098 8.10547 22.937ZM8.00781 21.0938C6.84814 20.8984 6.22559 20.3125 6.22559 19.2871L6.22559 9.8999C6.22559 8.87451 6.84814 8.28857 8.00781 8.09326L21.521 5.76172C22.6807 5.56641 23.3032 6.21338 23.3032 7.56836L23.3032 21.6309C23.3032 22.9248 22.644 23.6206 21.521 23.4375ZM14.7705 29.187C15.332 29.187 15.686 28.8208 15.686 28.2227L15.686 0.976562C15.686 0.366211 15.332 0 14.7705 0C14.1846 0 13.8428 0.366211 13.8428 0.976562L13.8428 28.2227C13.8428 28.8208 14.1846 29.187 14.7705 29.187ZM0.976562 15.5151L28.5522 15.5151C29.1626 15.5151 29.5288 15.1611 29.5288 14.5996C29.5288 14.0137 29.1626 13.6719 28.5522 13.6719L0.976562 13.6719C0.366211 13.6719 0 14.0137 0 14.5996C0 15.1611 0.366211 15.5151 0.976562 15.5151Z" fill="#5ac8f5"/>
 </g>
</svg>
