<?xml version="1.0" encoding="UTF-8"?>
<!--Generator: Apple Native CoreSVG 175.5-->
<!DOCTYPE svg
PUBLIC "-//W3C//DTD SVG 1.1//EN"
       "http://www.w3.org/Graphics/SVG/1.1/DTD/svg11.dtd">
<svg version="1.1" xmlns="http://www.w3.org/2000/svg" xmlns:xlink="http://www.w3.org/1999/xlink" width="24.9023" height="24.9146">
 <g>
  <rect height="24.9146" opacity="0" width="24.9023" x="0" y="0"/>
  <path d="M12.4512 24.9023C19.2627 24.9023 24.9023 19.2505 24.9023 12.4512C24.9023 5.63965 19.2505 0 12.439 0C5.63965 0 0 5.63965 0 12.4512C0 19.2505 5.65186 24.9023 12.4512 24.9023ZM12.4512 22.8271C6.68945 22.8271 2.0874 18.2129 2.0874 12.4512C2.0874 6.68945 6.67725 2.0752 12.439 2.0752C18.2007 2.0752 22.8271 6.68945 22.8271 12.4512C22.8271 18.2129 18.2129 22.8271 12.4512 22.8271Z" fill="#5ac8f5" fill-opacity="0.5"/>
  <path d="M9.77783 20.1538L15.1123 20.1538C15.979 20.1538 16.6016 19.751 16.8579 19.0552L16.8579 18.9819L15.4053 17.5293L15.4053 17.6636L8.98438 17.6636L8.98438 11.0962L7.78809 9.91211L7.78809 18.2373C7.78809 19.3848 8.56934 20.1538 9.77783 20.1538ZM12.4512 19.4092C12.1094 19.4092 11.8286 19.1284 11.8286 18.7866C11.8286 18.4448 12.1094 18.1641 12.4512 18.1641C12.793 18.1641 13.0615 18.4448 13.0615 18.7866C13.0615 19.1284 12.793 19.4092 12.4512 19.4092ZM15.1123 4.74854L9.77783 4.74854C8.89893 4.74854 8.28857 5.15137 8.02002 5.85938L8.02002 5.9082L9.44824 7.34863L9.44824 7.23877L15.9058 7.23877L15.9058 13.8184L17.1021 15.0146L17.1021 6.66504C17.1021 5.51758 16.3086 4.74854 15.1123 4.74854ZM11.0474 6.04248C11.0474 5.85938 11.1816 5.74951 11.3403 5.74951L13.5498 5.74951C13.7207 5.74951 13.8428 5.85938 13.8428 6.04248C13.8428 6.21338 13.7207 6.33545 13.5498 6.33545L11.3403 6.33545C11.1816 6.33545 11.0474 6.21338 11.0474 6.04248ZM17.8833 18.6646C18.0908 18.8843 18.4448 18.8843 18.6646 18.6646C18.8843 18.4448 18.8843 18.1152 18.6646 17.8833L6.98242 6.21338C6.7627 5.99365 6.40869 5.99365 6.18896 6.21338C5.98145 6.4209 5.98145 6.78711 6.18896 6.99463Z" fill="#5ac8f5"/>
 </g>
</svg>
