<?xml version="1.0" encoding="UTF-8"?>
<!--Generator: Apple Native CoreSVG 175.5-->
<!DOCTYPE svg
PUBLIC "-//W3C//DTD SVG 1.1//EN"
       "http://www.w3.org/Graphics/SVG/1.1/DTD/svg11.dtd">
<svg version="1.1" xmlns="http://www.w3.org/2000/svg" xmlns:xlink="http://www.w3.org/1999/xlink" width="15.018" height="27.6245">
 <g>
  <rect height="27.6245" opacity="0" width="15.018" x="0" y="0"/>
  <path d="M7.50899 27.6001C11.757 27.6001 14.2961 25.5493 14.6867 21.3867C15.1384 16.4185 15.1262 11.377 14.6623 5.98145C14.3083 2.06299 11.757 0 7.50899 0C3.26094 0 0.709671 2.06299 0.355667 5.98145C-0.1082 11.377-0.120407 16.4185 0.331253 21.3867C0.721878 25.5493 3.26094 27.6001 7.50899 27.6001ZM7.50899 25.6348C4.4084 25.6348 2.56514 24.3164 2.29659 21.3867C1.85713 16.4062 1.86934 11.3647 2.321 5.98145C2.55293 3.28369 4.4084 1.96533 7.50899 1.96533C10.6096 1.96533 12.465 3.28369 12.697 5.98145C13.1486 11.3647 13.1608 16.4062 12.7214 21.3867C12.4528 24.3164 10.6096 25.6348 7.50899 25.6348ZM7.50899 22.5708C7.88741 22.5708 7.96065 22.7539 8.26582 22.7539C8.59541 22.7539 8.80293 22.4609 8.99825 22.1802C9.23018 21.8506 9.31563 21.5332 9.31563 21.521C9.30342 21.5088 8.69307 21.2646 8.69307 20.5688C8.69307 19.9585 9.16914 19.7021 9.20576 19.6655C8.90059 19.2261 8.41231 19.2261 8.26582 19.2261C7.92403 19.2261 7.64326 19.4214 7.46016 19.4214C7.25264 19.4214 6.99629 19.2261 6.69112 19.2261C6.11739 19.2261 5.51924 19.7144 5.51924 20.6177C5.51924 21.2036 5.73897 21.7773 6.00752 22.1558C6.23946 22.4976 6.44698 22.7539 6.73994 22.7539C7.03291 22.7539 7.15498 22.5708 7.50899 22.5708ZM8.33907 18.0786C7.8752 18.0786 7.41133 18.5425 7.41133 19.165C7.96065 19.2017 8.43672 18.5913 8.33907 18.0786Z" fill="#5ac8f5"/>
 </g>
</svg>
