<?xml version="1.0" encoding="UTF-8"?>
<!--Generator: Apple Native CoreSVG 175.5-->
<!DOCTYPE svg
PUBLIC "-//W3C//DTD SVG 1.1//EN"
       "http://www.w3.org/Graphics/SVG/1.1/DTD/svg11.dtd">
<svg version="1.1" xmlns="http://www.w3.org/2000/svg" xmlns:xlink="http://www.w3.org/1999/xlink" width="24.9023" height="24.9146">
 <g>
  <rect height="24.9146" opacity="0" width="24.9023" x="0" y="0"/>
  <path d="M12.4512 24.9023C19.2627 24.9023 24.9023 19.2505 24.9023 12.4512C24.9023 5.63965 19.2505 0 12.439 0C5.63965 0 0 5.63965 0 12.4512C0 19.2505 5.65186 24.9023 12.4512 24.9023ZM12.4512 22.8271C6.68945 22.8271 2.0874 18.2129 2.0874 12.4512C2.0874 6.68945 6.67725 2.0752 12.439 2.0752C18.2007 2.0752 22.8271 6.68945 22.8271 12.4512C22.8271 18.2129 18.2129 22.8271 12.4512 22.8271ZM6.79932 16.4551C8.31299 16.4551 9.21631 15.5273 9.21631 14.1602C9.21631 13.0249 8.75244 12.5 7.51953 11.8286L7.05566 11.5723C6.35986 11.1938 6.14014 10.9253 6.14014 10.498C6.14014 10.1196 6.40869 9.85107 6.79932 9.85107C7.18994 9.85107 7.39746 10.1196 7.50732 10.6567C7.54395 10.8276 7.61719 10.9131 7.77588 10.9131L8.82568 10.9131C8.99658 10.9131 9.10645 10.8032 9.10645 10.6323C9.09424 9.35059 8.34961 8.39844 6.79932 8.39844C5.31006 8.39844 4.43115 9.33838 4.43115 10.6689C4.43115 11.792 4.90723 12.4146 6.0791 13.0371L6.53076 13.2812C7.27539 13.6719 7.50732 13.8672 7.50732 14.3311C7.50732 14.7949 7.2998 15.0024 6.81152 15.0024C6.32324 15.0024 6.06689 14.7339 5.99365 14.1724C5.96924 14.0137 5.87158 13.9282 5.7251 13.9282L4.61426 13.9282C4.44336 13.9282 4.32129 14.0503 4.3335 14.2212C4.3457 15.6128 5.18799 16.4551 6.79932 16.4551ZM12.4512 16.4551C14.2578 16.4551 15.2222 15.1001 15.2222 12.4512C15.2222 9.82666 14.27 8.39844 12.4512 8.39844C10.6079 8.39844 9.65576 9.82666 9.65576 12.4512C9.65576 15.1001 10.6201 16.4551 12.4512 16.4551ZM12.4512 14.9414C11.7554 14.9414 11.4136 14.2334 11.4136 12.4512C11.4136 10.6689 11.7554 9.93652 12.4512 9.93652C13.1104 9.93652 13.4399 10.6689 13.4399 12.4512C13.4399 14.2334 13.1104 14.9414 12.4512 14.9414ZM18.1274 16.4551C19.6411 16.4551 20.5444 15.5273 20.5444 14.1602C20.5444 13.0249 20.0928 12.5 18.8477 11.8286L18.3838 11.5723C17.688 11.1938 17.4683 10.9253 17.4683 10.498C17.4683 10.1196 17.7368 9.85107 18.1274 9.85107C18.5181 9.85107 18.7378 10.1196 18.8354 10.6567C18.8721 10.8276 18.9453 10.9131 19.104 10.9131L20.1538 10.9131C20.3247 10.9131 20.4346 10.8032 20.4346 10.6323C20.4224 9.35059 19.6777 8.39844 18.1274 8.39844C16.6382 8.39844 15.7593 9.33838 15.7593 10.6689C15.7593 11.792 16.2354 12.4146 17.4072 13.0371L17.8589 13.2812C18.6035 13.6841 18.8354 13.8672 18.8354 14.3311C18.8354 14.7949 18.6401 15.0024 18.1396 15.0024C17.6514 15.0024 17.395 14.7339 17.3218 14.1724C17.2974 14.0137 17.1997 13.9282 17.0532 13.9282L15.9302 13.9282C15.7715 13.9282 15.6494 14.0503 15.6494 14.2212C15.6738 15.6128 16.5161 16.4551 18.1274 16.4551Z" fill="#5ac8f5"/>
 </g>
</svg>
