<?xml version="1.0" encoding="UTF-8"?>
<!--Generator: Apple Native CoreSVG 175.5-->
<!DOCTYPE svg
PUBLIC "-//W3C//DTD SVG 1.1//EN"
       "http://www.w3.org/Graphics/SVG/1.1/DTD/svg11.dtd">
<svg version="1.1" xmlns="http://www.w3.org/2000/svg" xmlns:xlink="http://www.w3.org/1999/xlink" width="6.06689" height="21.8384">
 <g>
  <rect height="21.8384" opacity="0" width="6.06689" x="0" y="0"/>
  <path d="M3.75977 20.9839C3.94287 21.46 4.35791 21.7651 4.79736 21.7651C5.51758 21.7651 6.06689 21.2402 6.06689 20.52C6.06689 20.1538 5.85938 19.6777 5.7373 19.3604L2.06299 10.0098L2.06299 11.7432L5.7373 2.39258C5.85938 2.0752 6.06689 1.58691 6.06689 1.23291C6.06689 0.524902 5.51758 0 4.79736 0C4.35791 0 3.94287 0.292969 3.75977 0.769043L0.488281 9.09424C0.268555 9.65576 0 10.3394 0 10.8765C0 11.4136 0.268555 12.0972 0.488281 12.6587Z" fill="#5ac8f5"/>
 </g>
</svg>
