<?xml version="1.0" encoding="UTF-8"?>
<!--Generator: Apple Native CoreSVG 175.5-->
<!DOCTYPE svg
PUBLIC "-//W3C//DTD SVG 1.1//EN"
       "http://www.w3.org/Graphics/SVG/1.1/DTD/svg11.dtd">
<svg version="1.1" xmlns="http://www.w3.org/2000/svg" xmlns:xlink="http://www.w3.org/1999/xlink" width="28.1087" height="20.3003">
 <g>
  <rect height="20.3003" opacity="0" width="28.1087" x="0" y="0"/>
  <path d="M14.0522 20.3003C14.3207 20.3003 14.5526 20.1782 15.0287 19.7144L18.0072 16.8579C18.1903 16.6748 18.2392 16.4062 18.0683 16.1865C17.2748 15.1611 15.7733 14.27 14.0522 14.27C12.2821 14.27 10.7807 15.1978 9.98721 16.2598C9.86514 16.4551 9.91397 16.6748 10.1093 16.8579L13.0756 19.7144C13.5517 20.166 13.7836 20.3003 14.0522 20.3003ZM6.91104 13.6597C7.17959 13.916 7.50918 13.8794 7.75332 13.6108C9.21817 11.9873 11.6107 10.8032 14.0522 10.8154C16.518 10.8032 18.9106 12.0239 20.3998 13.6475C20.6195 13.9038 20.9247 13.8916 21.1933 13.6475L23.0854 11.7676C23.2807 11.5723 23.3051 11.3037 23.122 11.084C21.2787 8.82568 17.8607 7.12891 14.0522 7.12891C10.2436 7.12891 6.82559 8.82568 4.98233 11.084C4.79922 11.3037 4.81143 11.5479 5.01895 11.7676ZM1.84512 8.55713C2.08926 8.78906 2.43106 8.78906 2.66299 8.54492C5.66592 5.35889 9.621 3.67432 14.0522 3.67432C18.5077 3.67432 22.4872 5.37109 25.4657 8.55713C25.6855 8.77686 26.015 8.76465 26.2592 8.53271L27.9438 6.84814C28.1635 6.62842 28.1513 6.35986 27.9804 6.15234C25.1117 2.6123 19.7162 0.012207 14.0522 0.012207C8.4003 0.012207 2.98037 2.6123 0.123929 6.15234C-0.0469695 6.35986-0.0469695 6.62842 0.16055 6.84814Z" fill="#5ac8f5"/>
 </g>
</svg>
