<?xml version="1.0" encoding="UTF-8"?>
<!--Generator: Apple Native CoreSVG 175.5-->
<!DOCTYPE svg
PUBLIC "-//W3C//DTD SVG 1.1//EN"
       "http://www.w3.org/Graphics/SVG/1.1/DTD/svg11.dtd">
<svg version="1.1" xmlns="http://www.w3.org/2000/svg" xmlns:xlink="http://www.w3.org/1999/xlink" width="22.4731" height="22.4976">
 <g>
  <rect height="22.4976" opacity="0" width="22.4731" x="0" y="0"/>
  <path d="M3.83301 22.4976L18.6401 22.4976C21.2036 22.4976 22.4731 21.228 22.4731 18.7134L22.4731 3.80859C22.4731 1.29395 21.2036 0.0244141 18.6401 0.0244141L3.83301 0.0244141C1.28174 0.0244141 0 1.28174 0 3.80859L0 18.7134C0 21.2402 1.28174 22.4976 3.83301 22.4976Z" fill="#5ac8f5" fill-opacity="0.25"/>
  <path d="M7.83691 16.5161C7.37305 16.5161 7.05566 16.2109 7.05566 15.7104L7.05566 7.91016L6.98242 7.91016L5.65186 8.89893C5.35889 9.11865 5.23682 9.13086 5.0293 9.13086C4.66309 9.13086 4.30908 8.80127 4.30908 8.37402C4.30908 8.04443 4.45557 7.82471 4.72412 7.62939L6.64062 6.32324C7.09229 6.01807 7.33643 5.896 7.75146 5.896C8.27637 5.896 8.63037 6.27441 8.63037 6.79932L8.63037 15.7104C8.63037 16.2109 8.31299 16.5161 7.83691 16.5161ZM11.9385 16.3818C11.4868 16.3818 11.1938 16.0889 11.1938 15.6372C11.1938 15.3809 11.2793 15.1733 11.4746 14.9536L14.7949 11.0596C15.3809 10.3516 16.0522 9.64355 16.0522 8.82568C16.0522 7.89795 15.3931 7.27539 14.3799 7.27539C13.4766 7.27539 12.854 7.73926 12.5244 8.6792C12.3657 9.05762 12.1704 9.26514 11.8042 9.26514C11.377 9.26514 11.0962 8.97217 11.0962 8.5083C11.0962 8.36182 11.1328 8.21533 11.1572 8.05664C11.4868 6.7749 12.8174 5.82275 14.3188 5.82275C16.2964 5.82275 17.5781 6.93359 17.5781 8.69141C17.5781 9.94873 16.8945 10.8521 15.9546 11.9385L13.4888 14.8071L13.4888 14.8926L17.1387 14.8926C17.5415 14.8926 17.8467 15.1611 17.8467 15.625C17.8467 16.0767 17.5415 16.3818 17.1387 16.3818Z" fill="#5ac8f5"/>
 </g>
</svg>
