<?xml version="1.0" encoding="UTF-8"?>
<!--Generator: Apple Native CoreSVG 175.5-->
<!DOCTYPE svg
PUBLIC "-//W3C//DTD SVG 1.1//EN"
       "http://www.w3.org/Graphics/SVG/1.1/DTD/svg11.dtd">
<svg version="1.1" xmlns="http://www.w3.org/2000/svg" xmlns:xlink="http://www.w3.org/1999/xlink" width="22.7783" height="23.2056">
 <g>
  <rect height="23.2056" opacity="0" width="22.7783" x="0" y="0"/>
  <path d="M14.9902 0C10.3271 0 7.10449 3.16162 7.10449 8.74023L7.10449 16.9922L7.27539 20.7764L7.83691 20.5566L5.26123 17.5415L1.81885 14.0259C1.63574 13.8306 1.3916 13.7207 1.07422 13.7207C0.439453 13.7207 0 14.1602 0 14.8071C0 15.0757 0.134277 15.3931 0.341797 15.6006L7.38525 22.7783C7.61719 23.0225 7.89795 23.1323 8.20312 23.1323C8.49609 23.1323 8.77686 23.0225 9.00879 22.7783L16.0522 15.6006C16.272 15.3931 16.394 15.0757 16.394 14.8071C16.394 14.1602 15.9546 13.7207 15.3198 13.7207C15.0024 13.7207 14.7705 13.8306 14.5752 14.0259L11.145 17.5415L8.55713 20.5566L9.11865 20.7764L9.28955 16.9922L9.28955 8.54492C9.28955 4.38232 11.5845 2.18506 14.8682 2.18506C18.1641 2.18506 20.6055 4.38232 20.6055 8.54492L20.6055 11.3525C20.6055 12.0239 21.0938 12.4634 21.6919 12.4634C22.29 12.4634 22.7783 12.0239 22.7783 11.3525L22.7783 8.54492C22.7783 3.07617 19.6655 0 14.9902 0Z" fill="#5ac8f5"/>
 </g>
</svg>
