<?xml version="1.0" encoding="UTF-8"?>
<!--Generator: Apple Native CoreSVG 175.5-->
<!DOCTYPE svg
PUBLIC "-//W3C//DTD SVG 1.1//EN"
       "http://www.w3.org/Graphics/SVG/1.1/DTD/svg11.dtd">
<svg version="1.1" xmlns="http://www.w3.org/2000/svg" xmlns:xlink="http://www.w3.org/1999/xlink" width="20.9961" height="25.7446">
 <g>
  <rect height="25.7446" opacity="0" width="20.9961" x="0" y="0"/>
  <path d="M10.498 17.9688C14.6729 17.9688 18.7622 16.6992 20.7153 14.856L19.7998 13.3911C17.9443 15.0024 14.2212 16.1255 10.498 16.1255C6.7749 16.1255 3.05176 15.0024 1.19629 13.3911L0.280762 14.856C2.23389 16.6992 6.32324 17.9688 10.498 17.9688ZM10.498 25.7202C16.7969 25.7202 20.9961 23.3398 20.9961 19.9707L20.9961 5.2002L19.0308 5.2002L19.0308 19.9707C19.0308 22.229 15.6128 23.877 10.498 23.877C5.3833 23.877 1.96533 22.229 1.96533 19.9707L1.96533 5.2002L0 5.2002L0 19.9707C0 23.3398 4.19922 25.7202 10.498 25.7202ZM10.498 10.3882C16.7969 10.3882 20.9961 8.27637 20.9961 5.2002C20.9961 2.12402 16.7969 0 10.498 0C4.19922 0 0 2.12402 0 5.2002C0 8.27637 4.19922 10.3882 10.498 10.3882ZM10.498 8.54492C5.3833 8.54492 1.96533 7.16553 1.96533 5.2002C1.96533 3.14941 5.3833 1.72119 10.498 1.72119C15.6128 1.72119 19.0308 3.14941 19.0308 5.2002C19.0308 7.16553 15.6128 8.54492 10.498 8.54492Z" fill="#5ac8f5"/>
 </g>
</svg>
