<?xml version="1.0" encoding="UTF-8"?>
<!--Generator: Apple Native CoreSVG 175.5-->
<!DOCTYPE svg
PUBLIC "-//W3C//DTD SVG 1.1//EN"
       "http://www.w3.org/Graphics/SVG/1.1/DTD/svg11.dtd">
<svg version="1.1" xmlns="http://www.w3.org/2000/svg" xmlns:xlink="http://www.w3.org/1999/xlink" width="24.9023" height="29.6485">
 <g>
  <rect height="29.6485" opacity="0" width="24.9023" x="0" y="0"/>
  <path d="M6.64062 12.8284L12.7441 12.8284L12.7441 11.2171L6.64062 11.2171C6.17676 11.2171 5.81055 11.5833 5.81055 12.0227C5.81055 12.4744 6.17676 12.8284 6.64062 12.8284ZM14.4531 14.4886C15.8081 14.4886 16.9189 13.3777 16.9189 12.0105C16.9189 10.6555 15.8081 9.54471 14.4531 9.54471C13.0859 9.54471 11.9751 10.6555 11.9751 12.0105C11.9751 13.3777 13.0859 14.4886 14.4531 14.4886ZM14.4531 13.2312C13.7573 13.2312 13.2446 12.6941 13.2446 12.0105C13.2446 11.3147 13.7573 10.802 14.4531 10.802C15.1245 10.802 15.6616 11.3147 15.6616 12.0105C15.6616 12.6941 15.1245 13.2312 14.4531 13.2312ZM16.0522 12.8284L18.3105 12.8284C18.7256 12.8284 19.0918 12.4744 19.0918 12.0227C19.0918 11.5833 18.7256 11.2171 18.3105 11.2171L16.0522 11.2171ZM6.5918 19.4324L8.8501 19.4324L8.8501 17.8211L6.5918 17.8211C6.17676 17.8211 5.81055 18.1751 5.81055 18.6145C5.81055 19.0662 6.17676 19.4324 6.5918 19.4324ZM10.4492 21.0926C11.8286 21.0926 12.9395 19.9817 12.9395 18.6145C12.9395 17.2473 11.8286 16.1365 10.4492 16.1365C9.09424 16.1365 7.9834 17.2473 7.9834 18.6145C7.9834 19.9817 9.09424 21.0926 10.4492 21.0926ZM10.4492 19.8352C9.77783 19.8352 9.24072 19.2981 9.24072 18.6023C9.24072 17.9187 9.77783 17.3938 10.4492 17.3938C11.145 17.3938 11.6821 17.9187 11.6821 18.6023C11.6821 19.2981 11.145 19.8352 10.4492 19.8352ZM12.1582 19.4324L18.2617 19.4324C18.7256 19.4324 19.0918 19.0662 19.0918 18.6145C19.0918 18.1751 18.7256 17.8211 18.2617 17.8211L12.1582 17.8211ZM0 14.8181C0 21.6297 5.65186 27.2693 12.4512 27.2693C19.2627 27.2693 24.9023 21.6297 24.9023 14.8181C24.9023 8.81228 20.52 3.72195 14.8071 2.5989L14.8071 0.865506C14.8071-0.0011928 14.209-0.233126 13.5498 0.242948L9.65576 2.96512C9.09424 3.35574 9.08203 3.94168 9.65576 4.34451L13.5376 7.07889C14.209 7.56717 14.8071 7.33523 14.8071 6.45633L14.8071 4.72293C19.4214 5.77273 22.8149 9.8743 22.8149 14.8181C22.8149 20.5799 18.2129 25.1941 12.4512 25.1941C6.68945 25.1941 2.06299 20.5799 2.0752 14.8181C2.0874 11.3513 3.77197 8.28738 6.37207 6.43191C6.87256 6.05349 7.03125 5.47976 6.72607 4.96707C6.4209 4.46658 5.74951 4.3323 5.2124 4.74734C2.0752 7.03006 0 10.7166 0 14.8181Z" fill="#5ac8f5"/>
 </g>
</svg>
