<?xml version="1.0" encoding="UTF-8"?>
<!--Generator: Apple Native CoreSVG 175.5-->
<!DOCTYPE svg
PUBLIC "-//W3C//DTD SVG 1.1//EN"
       "http://www.w3.org/Graphics/SVG/1.1/DTD/svg11.dtd">
<svg version="1.1" xmlns="http://www.w3.org/2000/svg" xmlns:xlink="http://www.w3.org/1999/xlink" width="47.4121" height="15.8081">
 <g>
  <rect height="15.8081" opacity="0" width="47.4121" x="0" y="0"/>
  <path d="M3.44238 13.9893L33.96 13.9893C35.9619 13.9893 37.4023 12.5366 37.4023 10.5469L37.4023 3.45459C37.4023 1.46484 35.9619 0 33.96 0L3.44238 0C1.44043 0 0 1.45264 0 3.45459L0 10.5469C0 12.5488 1.44043 13.9893 3.44238 13.9893ZM3.44238 12.2681C2.41699 12.2681 1.72119 11.5601 1.72119 10.5469L1.72119 3.45459C1.72119 2.4292 2.41699 1.72119 3.44238 1.72119L33.96 1.72119C34.9731 1.72119 35.6812 2.4292 35.6812 3.45459L35.6812 10.5469C35.6812 11.5601 34.9731 12.2681 33.96 12.2681ZM4.67529 9.76562L5.50537 9.76562C5.84717 9.76562 6.09131 9.52148 6.09131 9.16748L6.09131 4.80957C6.09131 4.43115 5.84717 4.19922 5.50537 4.19922L4.67529 4.19922C4.30908 4.19922 4.07715 4.43115 4.07715 4.80957L4.07715 9.16748C4.07715 9.52148 4.30908 9.76562 4.67529 9.76562ZM12.0117 10.7544C14.0869 10.7544 15.7715 9.08203 15.7715 6.99463C15.7715 4.93164 14.0869 3.23486 12.0117 3.23486C9.93652 3.23486 8.25195 4.93164 8.25195 6.99463C8.25195 9.08203 9.93652 10.7544 12.0117 10.7544ZM10.6323 8.97217C10.3394 8.97217 10.0952 8.72803 10.0952 8.44727L10.0952 5.5542C10.0952 5.27344 10.3394 5.01709 10.6323 5.01709C10.9253 5.01709 11.145 5.26123 11.145 5.5542L11.145 8.44727C11.145 8.74023 10.9253 8.97217 10.6323 8.97217ZM13.3911 8.97217C13.0981 8.97217 12.854 8.74023 12.854 8.44727L12.854 5.5542C12.854 5.26123 13.0859 5.01709 13.3911 5.01709C13.6841 5.01709 13.9038 5.26123 13.9038 5.5542L13.9038 8.44727C13.9038 8.74023 13.6841 8.97217 13.3911 8.97217ZM21.0693 10.7544C23.1445 10.7544 24.8413 9.08203 24.8413 6.99463C24.8413 4.93164 23.1445 3.23486 21.0693 3.23486C18.9941 3.23486 17.3218 4.93164 17.3218 6.99463C17.3218 9.08203 18.9941 10.7544 21.0693 10.7544ZM19.6777 8.97217C19.397 8.97217 19.1528 8.74023 19.1528 8.44727L19.1528 5.5542C19.1528 5.27344 19.397 5.01709 19.6777 5.01709C19.9829 5.01709 20.2148 5.26123 20.2148 5.5542L20.2148 8.44727C20.2148 8.74023 19.9829 8.97217 19.6777 8.97217ZM22.4487 8.97217C22.1558 8.97217 21.9116 8.74023 21.9116 8.44727L21.9116 5.5542C21.9116 5.26123 22.1558 5.01709 22.4487 5.01709C22.7417 5.01709 22.9736 5.26123 22.9736 5.5542L22.9736 8.44727C22.9736 8.74023 22.7295 8.97217 22.4487 8.97217ZM30.127 10.7544C32.2021 10.7544 33.8867 9.08203 33.8867 6.99463C33.8867 4.93164 32.2021 3.23486 30.127 3.23486C28.0518 3.23486 26.3794 4.93164 26.3794 6.99463C26.3794 9.08203 28.0518 10.7544 30.127 10.7544ZM28.7476 8.97217C28.4546 8.97217 28.2104 8.74023 28.2104 8.44727L28.2104 5.5542C28.2104 5.27344 28.4546 5.01709 28.7476 5.01709C29.0405 5.01709 29.2725 5.26123 29.2725 5.5542L29.2725 8.44727C29.2725 8.74023 29.0283 8.97217 28.7476 8.97217ZM31.5063 8.97217C31.2134 8.97217 30.9692 8.74023 30.9692 8.44727L30.9692 5.5542C30.9692 5.26123 31.2012 5.01709 31.5063 5.01709C31.7993 5.01709 32.019 5.26123 32.019 5.5542L32.019 8.44727C32.019 8.74023 31.7993 8.97217 31.5063 8.97217ZM36.4868 11.2061L38.3789 11.2061C39.2212 11.2061 39.8438 10.5957 39.8438 9.75342L39.8438 4.50439C39.8438 3.66211 39.2212 3.05176 38.3789 3.05176L36.4868 3.05176L36.4868 4.40674L37.9639 4.40674C38.269 4.40674 38.4888 4.61426 38.4888 4.91943L38.4888 9.32617C38.4888 9.64355 38.269 9.85107 37.9639 9.85107L36.4868 9.85107ZM39.4897 8.02002L47.4121 8.02002L47.4121 6.4209L39.4897 6.4209Z" fill="#5ac8f5"/>
 </g>
</svg>
