<?xml version="1.0" encoding="UTF-8"?>
<!--Generator: Apple Native CoreSVG 175.5-->
<!DOCTYPE svg
PUBLIC "-//W3C//DTD SVG 1.1//EN"
       "http://www.w3.org/Graphics/SVG/1.1/DTD/svg11.dtd">
<svg version="1.1" xmlns="http://www.w3.org/2000/svg" xmlns:xlink="http://www.w3.org/1999/xlink" width="31.9321" height="27.8198">
 <g>
  <rect height="27.8198" opacity="0" width="31.9321" x="0" y="0"/>
  <path d="M16.124 5.33447C17.601 5.33447 18.7851 4.15039 18.7851 2.67334C18.7851 1.19629 17.601 0 16.124 0C14.6469 0 13.4506 1.19629 13.4506 2.67334C13.4506 4.15039 14.6469 5.33447 16.124 5.33447ZM26.6586 9.10645C27.3422 9.10645 27.9038 8.55713 27.9038 7.84912C27.9038 7.16553 27.3422 6.61621 26.6586 6.61621L13.5483 6.61621C12.352 6.61621 11.3144 7.25098 10.7651 8.3374L5.23531 19.4092L2.11031 16.2842C1.62202 15.7959 0.828567 15.8081 0.352493 16.2842C-0.123581 16.7725-0.111374 17.5537 0.352493 18.042L4.75923 22.4609C5.28413 22.9736 6.102 22.9004 6.52925 22.2778L10.1425 17.0044C10.3378 16.6992 10.7651 16.6504 11.0459 16.8579L15.4892 20.2637L15.4892 26.4648C15.4892 27.1484 16.0385 27.6978 16.7343 27.6978C17.4301 27.6978 17.9794 27.1484 17.9794 26.4648L17.9794 19.6411C17.9794 19.3115 17.8452 18.9941 17.6132 18.7622L13.2919 14.4409L15.6113 9.79004C15.8432 9.33838 16.246 9.10645 16.7099 9.10645ZM18.5898 14.6851L23.5581 14.6851C24.2417 14.6851 24.791 14.1113 24.791 13.4521C24.791 12.7563 24.2417 12.1948 23.5581 12.1948L19.1025 12.1948L17.1738 10.2783L16.8686 10.2783C16.7465 10.2783 16.6733 10.3271 16.6123 10.437L15.6723 12.2803L17.7231 14.3188C17.9672 14.5508 18.2724 14.6851 18.5898 14.6851ZM25.7065 12.0483C25.7065 13.2324 27.1103 14.209 28.8193 14.209C30.5405 14.209 31.9321 13.2324 31.9321 12.0483C31.9321 10.8398 30.5405 9.87549 28.8193 9.87549C27.1103 9.87549 25.7065 10.8398 25.7065 12.0483Z" fill="#5ac8f5"/>
 </g>
</svg>
