<?xml version="1.0" encoding="UTF-8"?>
<!--Generator: Apple Native CoreSVG 175.5-->
<!DOCTYPE svg
PUBLIC "-//W3C//DTD SVG 1.1//EN"
       "http://www.w3.org/Graphics/SVG/1.1/DTD/svg11.dtd">
<svg version="1.1" xmlns="http://www.w3.org/2000/svg" xmlns:xlink="http://www.w3.org/1999/xlink" width="24.9023" height="24.9146">
 <g>
  <rect height="24.9146" opacity="0" width="24.9023" x="0" y="0"/>
  <path d="M12.4512 24.9146C19.2627 24.9146 24.9023 19.2749 24.9023 12.4634C24.9023 5.66406 19.2505 0.012207 12.439 0.012207C5.63965 0.012207 0 5.66406 0 12.4634C0 19.2749 5.65186 24.9146 12.4512 24.9146ZM5.40771 14.4287C4.98047 14.4287 4.65088 14.1113 4.65088 13.7207C4.65088 13.3423 4.98047 13.0249 5.40771 13.0249L7.01904 13.0249C7.4585 13.0249 7.8125 13.3301 7.8125 13.7207C7.8125 14.1235 7.4707 14.4287 7.01904 14.4287ZM8.12988 10.5591L6.98242 9.41162C6.66504 9.09424 6.66504 8.6792 6.92139 8.38623C7.20215 8.12988 7.62939 8.08105 7.94678 8.41064L9.11865 9.58252C9.42383 9.87549 9.44824 10.3271 9.15527 10.6201C8.87451 10.8887 8.42285 10.8643 8.12988 10.5591ZM15.7349 10.6201C15.4419 10.3271 15.4419 9.8999 15.7593 9.58252L16.9312 8.41064C17.2241 8.09326 17.688 8.10547 17.9688 8.38623C18.2251 8.6792 18.2129 9.09424 17.8955 9.41162L16.7603 10.5591C16.4551 10.8765 16.0156 10.8765 15.7349 10.6201ZM17.8589 14.4287C17.4194 14.4287 17.0776 14.1235 17.0776 13.7207C17.0776 13.3301 17.4194 13.0249 17.8589 13.0249L19.4824 13.0249C19.9097 13.0249 20.2271 13.3423 20.2271 13.7207C20.2271 14.1113 19.9097 14.4287 19.4824 14.4287ZM16.1865 13.8916C16.1865 14.2822 16.1011 14.6729 15.979 15.0513L8.89893 15.0513C8.77686 14.6729 8.69141 14.2822 8.69141 13.8916C8.69141 11.8286 10.4004 10.1318 12.439 10.1318C14.4897 10.1318 16.1865 11.8286 16.1865 13.8916ZM5.39551 17.334C5.01709 17.334 4.65088 17.041 4.65088 16.6382C4.65088 16.2476 5.00488 15.9546 5.39551 15.9546L19.4946 15.9546C19.8853 15.9546 20.2271 16.2476 20.2271 16.6382C20.2271 17.041 19.873 17.334 19.4946 17.334ZM13.147 8.06885C13.147 8.49609 12.8296 8.8501 12.439 8.8501C12.0483 8.8501 11.7432 8.49609 11.7432 8.06885L11.7432 6.45752C11.7432 6.00586 12.0605 5.70068 12.439 5.70068C12.8174 5.70068 13.147 6.00586 13.147 6.45752Z" fill="#5ac8f5"/>
 </g>
</svg>
