<?xml version="1.0" encoding="UTF-8"?>
<!--Generator: Apple Native CoreSVG 175.5-->
<!DOCTYPE svg
PUBLIC "-//W3C//DTD SVG 1.1//EN"
       "http://www.w3.org/Graphics/SVG/1.1/DTD/svg11.dtd">
<svg version="1.1" xmlns="http://www.w3.org/2000/svg" xmlns:xlink="http://www.w3.org/1999/xlink" width="22.4731" height="22.4976">
 <g>
  <rect height="22.4976" opacity="0" width="22.4731" x="0" y="0"/>
  <path d="M3.83301 22.4976L18.6401 22.4976C21.2036 22.4976 22.4731 21.228 22.4731 18.7134L22.4731 3.80859C22.4731 1.29395 21.2036 0.0244141 18.6401 0.0244141L3.83301 0.0244141C1.28174 0.0244141 0 1.28174 0 3.80859L0 18.7134C0 21.2402 1.28174 22.4976 3.83301 22.4976ZM3.85742 20.5322C2.63672 20.5322 1.96533 19.8853 1.96533 18.6157L1.96533 3.90625C1.96533 2.63672 2.63672 1.98975 3.85742 1.98975L18.6157 1.98975C19.8242 1.98975 20.5078 2.63672 20.5078 3.90625L20.5078 18.6157C20.5078 19.8853 19.8242 20.5322 18.6157 20.5322Z" fill="#5ac8f5" fill-opacity="0.5"/>
  <path d="M11.2183 8.20312C12.0972 8.20312 12.7197 7.61719 12.7197 6.86035C12.7197 5.99365 12.1094 5.39551 11.2183 5.39551C10.4004 5.39551 9.76562 6.00586 9.76562 6.86035C9.76562 7.61719 10.4004 8.20312 11.2183 8.20312ZM6.49414 12.2803L16.0034 12.2803C16.687 12.2803 17.1509 11.9141 17.1509 11.2671C17.1509 10.6079 16.7114 10.2417 16.0034 10.2417L6.49414 10.2417C5.78613 10.2417 5.33447 10.6079 5.33447 11.2671C5.33447 11.9141 5.81055 12.2803 6.49414 12.2803ZM11.2183 17.1143C12.0972 17.1143 12.7197 16.5161 12.7197 15.7593C12.7197 14.9048 12.1094 14.3066 11.2183 14.3066C10.4004 14.3066 9.76562 14.9048 9.76562 15.7593C9.76562 16.5161 10.4004 17.1143 11.2183 17.1143Z" fill="#5ac8f5"/>
 </g>
</svg>
