<?xml version="1.0" encoding="UTF-8"?>
<!--Generator: Apple Native CoreSVG 175.5-->
<!DOCTYPE svg
PUBLIC "-//W3C//DTD SVG 1.1//EN"
       "http://www.w3.org/Graphics/SVG/1.1/DTD/svg11.dtd">
<svg version="1.1" xmlns="http://www.w3.org/2000/svg" xmlns:xlink="http://www.w3.org/1999/xlink" width="24.6826" height="27.0874">
 <g>
  <rect height="27.0874" opacity="0" width="24.6826" x="0" y="0"/>
  <path d="M12.3413 11.2549C19.5557 11.2549 24.3652 8.97217 24.3652 5.62744C24.3652 2.28271 19.5557 0 12.3413 0C5.12695 0 0.317383 2.28271 0.317383 5.62744C0.317383 8.97217 5.12695 11.2549 12.3413 11.2549ZM12.3413 17.749C20.0195 17.749 24.6826 15.6006 24.6826 10.498L24.6826 9.10645C23.7793 10.144 22.4609 10.9863 20.7886 11.6089L20.7886 13.269C20.7886 13.7085 20.4224 14.0625 19.9829 14.0625C19.5435 14.0625 19.1895 13.7085 19.1895 13.269L19.1895 12.1338C18.4814 12.3169 17.7246 12.4634 17.041 12.5732L17.041 14.0991C17.041 14.5386 16.687 14.8926 16.2476 14.8926C15.8081 14.8926 15.4419 14.5386 15.4419 14.0991L15.4419 12.7808C14.6484 12.854 13.7451 12.915 12.9883 12.9272L12.9883 14.4043C12.9883 14.8438 12.6343 15.21 12.1948 15.21C11.7554 15.21 11.3892 14.8438 11.3892 14.4043L11.3892 12.915C10.5835 12.9028 9.74121 12.8418 8.94775 12.7563L8.94775 14.0991C8.94775 14.5386 8.58154 14.8926 8.14209 14.8926C7.70264 14.8926 7.34863 14.5386 7.34863 14.0991L7.34863 12.5244C6.5918 12.4023 5.88379 12.2437 5.2002 12.0483L5.2002 13.269C5.2002 13.7085 4.84619 14.0625 4.40674 14.0625C3.96729 14.0625 3.60107 13.7085 3.60107 13.269L3.60107 11.499C2.06299 10.8887 0.842285 10.083 0 9.10645L0 10.498C0 15.6006 4.65088 17.749 12.3413 17.749ZM2.29492 23.2788C2.29492 23.645 2.46582 24.0234 2.89307 24.1699C5.3833 25.0732 8.05664 25.5493 10.9619 25.5493C13.855 25.5493 16.5405 25.0854 19.0308 24.1699L18.4082 22.4365C16.1133 23.2788 13.6475 23.7061 10.9619 23.7061C8.26416 23.7061 5.81055 23.2788 3.51562 22.4365C2.771 22.1558 2.29492 22.7173 2.29492 23.2788ZM17.9688 26.4648C18.2373 27.2095 19.1895 27.2339 19.5679 26.6479L21.9849 22.8271C22.3145 22.3022 22.1069 21.7285 21.5332 21.5332L17.2852 20.0439C16.626 19.8242 15.8447 20.3979 16.1255 21.2036Z" fill="#5ac8f5"/>
 </g>
</svg>
