<?xml version="1.0" encoding="UTF-8"?>
<!--Generator: Apple Native CoreSVG 175.5-->
<!DOCTYPE svg
PUBLIC "-//W3C//DTD SVG 1.1//EN"
       "http://www.w3.org/Graphics/SVG/1.1/DTD/svg11.dtd">
<svg version="1.1" xmlns="http://www.w3.org/2000/svg" xmlns:xlink="http://www.w3.org/1999/xlink" width="24.9023" height="24.9146">
 <g>
  <rect height="24.9146" opacity="0" width="24.9023" x="0" y="0"/>
  <path d="M12.4512 24.9023C19.2627 24.9023 24.9023 19.2505 24.9023 12.4512C24.9023 5.63965 19.2505 0 12.439 0C5.63965 0 0 5.63965 0 12.4512C0 19.2505 5.65186 24.9023 12.4512 24.9023ZM12.4512 22.8271C6.68945 22.8271 2.0874 18.2129 2.0874 12.4512C2.0874 6.68945 6.67725 2.0752 12.439 2.0752C18.2007 2.0752 22.8271 6.68945 22.8271 12.4512C22.8271 18.2129 18.2129 22.8271 12.4512 22.8271ZM6.05469 17.4316L11.1084 17.4316C11.4868 17.4316 11.7798 17.1387 11.7798 16.6992C11.7798 16.2476 11.4868 15.9912 11.1084 15.9912L7.55615 15.9912L7.55615 15.9058L9.94873 13.1226C10.8521 12.0728 11.5234 11.1938 11.5234 9.97314C11.5234 8.27637 10.2783 7.18994 8.36182 7.18994C6.90918 7.18994 5.61523 8.11768 5.29785 9.36279C5.27344 9.52148 5.24902 9.65576 5.24902 9.80225C5.24902 10.2417 5.50537 10.5347 5.92041 10.5347C6.27441 10.5347 6.45752 10.3271 6.62842 9.96094C6.93359 9.04541 7.54395 8.59375 8.42285 8.59375C9.41162 8.59375 10.0464 9.2041 10.0464 10.1074C10.0464 10.9009 9.41162 11.5845 8.82568 12.2681L5.60303 16.0522C5.41992 16.2598 5.33447 16.4673 5.33447 16.7114C5.33447 17.1509 5.61523 17.4316 6.05469 17.4316ZM16.4673 17.7124C18.6157 17.7124 20.0439 16.394 20.0439 14.2456C20.0439 12.3657 18.7744 10.9985 16.8945 10.9985C16.0767 10.9985 15.1978 11.4014 14.8315 11.9507L14.7827 11.9507L15.0146 8.81348L19.0552 8.81348C19.397 8.81348 19.6533 8.53271 19.6533 8.12988C19.6533 7.73926 19.4092 7.44629 19.0552 7.44629L14.856 7.44629C14.209 7.44629 13.7939 7.83691 13.7451 8.48389L13.4521 12.2925C13.4033 12.9272 13.7451 13.3423 14.3066 13.3423C14.6851 13.3423 14.9048 13.2446 15.2954 12.9272C15.8081 12.4878 16.1865 12.3047 16.7358 12.3047C17.7979 12.3047 18.5303 13.1592 18.5303 14.2822C18.5303 15.564 17.7246 16.333 16.5405 16.333C15.7104 16.333 15.0024 15.8936 14.6484 15.1611C14.4653 14.8071 14.2334 14.6362 13.9526 14.6362C13.5376 14.6362 13.2568 14.9414 13.2568 15.3442C13.2568 15.5396 13.3057 15.7227 13.3667 15.8936C13.7329 16.9067 14.9414 17.7124 16.4673 17.7124Z" fill="#5ac8f5"/>
 </g>
</svg>
