<?xml version="1.0" encoding="UTF-8"?>
<!--Generator: Apple Native CoreSVG 175.5-->
<!DOCTYPE svg
PUBLIC "-//W3C//DTD SVG 1.1//EN"
       "http://www.w3.org/Graphics/SVG/1.1/DTD/svg11.dtd">
<svg version="1.1" xmlns="http://www.w3.org/2000/svg" xmlns:xlink="http://www.w3.org/1999/xlink" width="30.6885" height="23.2056">
 <g>
  <rect height="23.2056" opacity="0" width="30.6885" x="0" y="0"/>
  <path d="M24.1211 21.2158C27.8076 21.2158 30.6885 18.5181 30.6885 15.1611C30.6885 12.5977 29.2114 10.376 26.8311 9.375C26.8555 3.93066 22.937 0 17.9443 0C14.6362 0 12.2803 1.77002 10.8154 3.90625C7.8125 3.02734 4.54102 5.31006 4.47998 8.72803C1.72119 9.16748 0 11.6333 0 14.6118C0 18.2007 3.13721 21.2158 7.31201 21.2158Z" fill="#5ac8f5" fill-opacity="0.25"/>
  <path d="M22.2656 12.0239C22.2656 14.0991 20.5933 15.7593 18.5181 15.7593C16.9189 15.7593 15.564 14.7583 14.856 12.9395L13.269 14.502C13.1348 14.6362 12.9517 14.6484 12.854 14.5264L11.2793 12.9272L10.1318 14.0869C9.99756 14.2212 9.82666 14.2212 9.70459 14.0869L7.84912 12.2314C7.73926 12.1094 7.75146 11.9263 7.84912 11.8164L8.82568 10.8398C8.95996 10.7178 9.06982 10.6812 9.2041 10.6812L15.0024 10.6812C15.564 9.2041 16.9434 8.27637 18.5181 8.27637C20.5933 8.27637 22.2656 9.93652 22.2656 12.0239ZM20.4712 12.0117C20.4712 11.3647 19.9341 10.8643 19.3115 10.8643C18.6523 10.8643 18.1519 11.377 18.1519 12.0117C18.1519 12.6465 18.6523 13.1592 19.3115 13.1592C19.9341 13.1592 20.4712 12.6465 20.4712 12.0117Z" fill="#5ac8f5"/>
 </g>
</svg>
