<?xml version="1.0" encoding="UTF-8"?>
<!--Generator: Apple Native CoreSVG 175.5-->
<!DOCTYPE svg
PUBLIC "-//W3C//DTD SVG 1.1//EN"
       "http://www.w3.org/Graphics/SVG/1.1/DTD/svg11.dtd">
<svg version="1.1" xmlns="http://www.w3.org/2000/svg" xmlns:xlink="http://www.w3.org/1999/xlink" width="26.9531" height="21.0106">
 <g>
  <rect height="21.0106" opacity="0" width="26.9531" x="0" y="0"/>
  <path d="M26.9531 11.8786C26.9531 7.34978 24.5239 4.20037 19.7144 2.49138L13.3667 0.233084C12.9272 0.0743926 12.4146-0.0110566 12.0361 0.00115044C10.6201 0.00115044 9.82666 1.09978 9.82666 2.3449C9.83887 3.26043 10.3638 4.00506 11.3525 4.4323L13.4155 5.28679C13.4644 5.299 13.4888 5.34783 13.4888 5.39666C13.4888 5.4699 13.4521 5.49431 13.3911 5.49431L2.69775 5.49431C1.06201 5.49431 0 6.56853 0 8.09441C0 9.62029 1.06201 10.6945 2.69775 10.6945L6.95801 10.6945C6.87256 10.9997 6.82373 11.3049 6.82373 11.5978C6.82373 12.7087 7.4585 13.5632 8.48389 13.8928C8.37402 14.2468 8.30078 14.6252 8.30078 15.0158C8.30078 16.0778 8.87451 16.8591 9.81445 17.152C9.83887 19.5324 11.5723 20.9362 14.5264 20.9362L17.3218 20.9362C23.3154 20.9362 26.9531 17.2985 26.9531 11.8786ZM25.1953 11.9518C25.1953 16.4806 22.2778 19.2394 17.1143 19.2394L14.7827 19.2394C12.7441 19.2394 11.5723 18.5925 11.5723 17.445L13.0371 17.445C13.501 17.445 13.8306 17.0788 13.8306 16.6515C13.8306 16.2243 13.501 15.8215 13.0371 15.8215L11.0352 15.8215C10.376 15.8215 9.96094 15.443 9.96094 14.7961C9.96094 14.5519 10.022 14.2468 10.1318 14.027L12.5488 14.027C13.0249 14.027 13.3423 13.6486 13.3423 13.2214C13.3423 12.7941 13.0249 12.4157 12.5488 12.4157L9.57031 12.4157C8.89893 12.4157 8.47168 12.0129 8.47168 11.3781C8.47168 11.134 8.54492 10.8288 8.64258 10.6213L12.0605 10.6213C12.5 10.6213 12.854 10.2428 12.854 9.8156C12.854 9.36394 12.5 8.98553 12.0605 8.98553L2.57568 8.98553C2.03857 8.98553 1.64795 8.63152 1.64795 8.09441C1.64795 7.56951 2.03857 7.2033 2.57568 7.2033L15.8691 7.2033C16.4429 7.2033 16.8701 6.82488 16.8701 6.28777C16.8701 5.83611 16.6626 5.43328 16.0278 5.14031L12.1216 3.40691C11.6943 3.22381 11.4258 2.96746 11.4258 2.52801C11.4258 2.01531 11.8042 1.68572 12.2559 1.68572C12.4756 1.68572 12.6465 1.71013 12.8296 1.78338L19.165 4.05388C23.5352 5.61638 25.1953 8.36297 25.1953 11.9518Z" fill="#5ac8f5"/>
 </g>
</svg>
