<?xml version="1.0" encoding="UTF-8"?>
<!--Generator: Apple Native CoreSVG 175.5-->
<!DOCTYPE svg
PUBLIC "-//W3C//DTD SVG 1.1//EN"
       "http://www.w3.org/Graphics/SVG/1.1/DTD/svg11.dtd">
<svg version="1.1" xmlns="http://www.w3.org/2000/svg" xmlns:xlink="http://www.w3.org/1999/xlink" width="22.8149" height="28.6011">
 <g>
  <rect height="28.6011" opacity="0" width="22.8149" x="0" y="0"/>
  <path d="M0.0366211 8.95996C0.0366211 9.65576 0.524902 10.3149 1.48926 10.3149L21.3379 10.3149C22.3145 10.3149 22.7905 9.65576 22.7905 8.95996C22.7905 8.49609 22.583 8.00781 22.1069 7.65381L12.9272 0.585938C12.4146 0.195312 11.9263 0 11.4136 0C10.9009 0 10.4126 0.195312 9.8999 0.585938L0.720215 7.65381C0.256348 8.00781 0.0366211 8.49609 0.0366211 8.95996ZM0.012207 14.2944C0.012207 14.9292 0.45166 15.3564 1.11084 15.3564L21.7163 15.3564C22.3755 15.3564 22.8149 14.9292 22.8149 14.2944C22.8149 13.6597 22.3755 13.2202 21.7163 13.2202L1.11084 13.2202C0.45166 13.2202 0.012207 13.6597 0.012207 14.2944ZM0 19.6289C0 20.0928 0.20752 20.5811 0.683594 20.9351L9.86328 28.0029C10.376 28.3936 10.8643 28.5889 11.377 28.5889C11.8896 28.5889 12.3779 28.3936 12.8906 28.0029L22.0703 20.9351C22.5464 20.5811 22.7539 20.0928 22.7539 19.6289C22.7539 18.9209 22.2778 18.2617 21.3013 18.2617L1.45264 18.2617C0.488281 18.2617 0 18.9209 0 19.6289Z" fill="#5ac8f5"/>
 </g>
</svg>
