<?xml version="1.0" encoding="UTF-8"?>
<!--Generator: Apple Native CoreSVG 175.5-->
<!DOCTYPE svg
PUBLIC "-//W3C//DTD SVG 1.1//EN"
       "http://www.w3.org/Graphics/SVG/1.1/DTD/svg11.dtd">
<svg version="1.1" xmlns="http://www.w3.org/2000/svg" xmlns:xlink="http://www.w3.org/1999/xlink" width="24.9023" height="24.9146">
 <g>
  <rect height="24.9146" opacity="0" width="24.9023" x="0" y="0"/>
  <path d="M12.4512 24.9023C19.2627 24.9023 24.9023 19.2505 24.9023 12.4512C24.9023 5.63965 19.2505 0 12.439 0C5.63965 0 0 5.63965 0 12.4512C0 19.2505 5.65186 24.9023 12.4512 24.9023ZM12.4512 22.8271C6.68945 22.8271 2.0874 18.2129 2.0874 12.4512C2.0874 6.68945 6.67725 2.0752 12.439 2.0752C18.2007 2.0752 22.8271 6.68945 22.8271 12.4512C22.8271 18.2129 18.2129 22.8271 12.4512 22.8271Z" fill="#5ac8f5" fill-opacity="0.25"/>
  <path d="M8.52051 14.209L15.7959 14.209C17.688 14.209 19.1406 12.7441 19.1406 10.9497C19.1406 9.08203 17.6147 7.71484 15.6372 7.71484C14.8926 6.27441 13.5376 5.33447 11.853 5.33447C9.65576 5.33447 7.83691 7.06787 7.62939 9.25293C6.57959 9.55811 5.77393 10.4736 5.77393 11.7065C5.77393 13.0859 6.7749 14.209 8.52051 14.209ZM8.12988 18.8843C8.3252 18.8843 8.45947 18.7012 8.44727 18.5059L8.41064 17.7734L9.00879 18.1885C9.16748 18.2983 9.39941 18.2373 9.49707 18.0908C9.61914 17.9443 9.55811 17.688 9.33838 17.5903L8.69141 17.2729L9.33838 16.9312C9.5459 16.8213 9.59473 16.626 9.50928 16.4551C9.42383 16.2842 9.16748 16.2476 9.00879 16.3452L8.41064 16.7725L8.44727 16.04C8.45947 15.8203 8.3252 15.6616 8.12988 15.6616C7.91016 15.6616 7.76367 15.8203 7.77588 16.0278L7.82471 16.7725L7.20215 16.3452C7.05566 16.2476 6.82373 16.272 6.73828 16.4551C6.64062 16.6016 6.67725 16.8213 6.88477 16.9434L7.53174 17.2729L6.88477 17.5903C6.66504 17.688 6.64062 17.9199 6.71387 18.0786C6.79932 18.2617 7.04346 18.2983 7.20215 18.1885L7.82471 17.7734L7.78809 18.5059C7.77588 18.7012 7.91016 18.8843 8.12988 18.8843ZM12.1582 18.8843C12.3535 18.8843 12.4878 18.7012 12.4756 18.5059L12.439 17.7734L13.0371 18.1885C13.1836 18.2983 13.4277 18.2373 13.5254 18.0908C13.6475 17.9443 13.5864 17.688 13.3667 17.5903L12.7197 17.2729L13.3667 16.9312C13.5742 16.8213 13.623 16.626 13.5376 16.4551C13.4521 16.2842 13.1958 16.2476 13.0371 16.3452L12.439 16.7725L12.4756 16.04C12.4878 15.8203 12.3535 15.6616 12.1582 15.6616C11.9385 15.6616 11.792 15.8203 11.8042 16.0278L11.853 16.7725L11.2305 16.3452C11.084 16.2476 10.8521 16.272 10.7666 16.4551C10.6689 16.6016 10.7056 16.8213 10.9131 16.9434L11.5601 17.2729L10.9131 17.5903C10.6934 17.688 10.6689 17.9199 10.7422 18.0786C10.8276 18.2617 11.0718 18.2983 11.2305 18.1885L11.853 17.7734L11.8164 18.5059C11.8042 18.7012 11.9385 18.8843 12.1582 18.8843ZM16.1743 18.8843C16.3818 18.8843 16.5161 18.7012 16.5039 18.5059L16.4673 17.7734L17.0654 18.1885C17.2119 18.2983 17.4561 18.2373 17.5537 18.0908C17.6636 17.9443 17.6147 17.688 17.395 17.5903L16.748 17.2729L17.395 16.9312C17.6025 16.8213 17.6514 16.626 17.5659 16.4551C17.4683 16.2842 17.2241 16.2476 17.0654 16.3452L16.4673 16.7725L16.5039 16.04C16.5161 15.8203 16.3818 15.6616 16.1743 15.6616C15.9668 15.6616 15.8203 15.8203 15.8325 16.0278L15.8813 16.7725L15.2588 16.3452C15.1123 16.2476 14.8804 16.272 14.7827 16.4551C14.6973 16.6016 14.7217 16.8213 14.9414 16.9434L15.5884 17.2729L14.9414 17.5903C14.7217 17.688 14.6973 17.9199 14.7705 18.0786C14.856 18.2617 15.1001 18.2983 15.2588 18.1885L15.8813 17.7734L15.8447 18.5059C15.8325 18.7012 15.9668 18.8843 16.1743 18.8843Z" fill="#5ac8f5"/>
 </g>
</svg>
