<?xml version="1.0" encoding="UTF-8"?>
<!--Generator: Apple Native CoreSVG 175.5-->
<!DOCTYPE svg
PUBLIC "-//W3C//DTD SVG 1.1//EN"
       "http://www.w3.org/Graphics/SVG/1.1/DTD/svg11.dtd">
<svg version="1.1" xmlns="http://www.w3.org/2000/svg" xmlns:xlink="http://www.w3.org/1999/xlink" width="24.9023" height="24.9146">
 <g>
  <rect height="24.9146" opacity="0" width="24.9023" x="0" y="0"/>
  <path d="M12.4512 24.9023C19.2627 24.9023 24.9023 19.2505 24.9023 12.4512C24.9023 5.63965 19.2505 0 12.439 0C5.63965 0 0 5.63965 0 12.4512C0 19.2505 5.65186 24.9023 12.4512 24.9023Z" fill="#5ac8f5" fill-opacity="0.25"/>
  <path d="M5.26123 14.502C5.26123 12.4268 6.40869 10.7788 7.94678 10.7788L8.92334 10.7788C8.34961 11.5356 7.69043 12.7319 7.66602 14.4409C7.6416 15.9912 8.1665 17.334 9.41162 18.2373L8.19092 18.2373C6.49414 18.2373 5.26123 16.5405 5.26123 14.502ZM8.58154 14.4531C8.60596 12.8418 9.0332 11.8652 9.8999 10.7178C10.9253 9.33838 12.2803 7.72705 13.2935 5.76172C13.5498 5.24902 13.7939 4.91943 14.2822 4.91943C14.8071 4.91943 15.2222 5.29785 15.2222 5.92041C15.2222 7.10449 14.0869 8.77686 14.0869 9.69238C14.0869 10.2051 14.4775 10.5225 15.1123 10.5225L17.5049 10.5225C18.1641 10.5225 18.6768 11.0596 18.6768 11.731C18.6768 12.085 18.5425 12.4146 18.3472 12.6099C18.2251 12.6953 18.2007 12.7563 18.3105 12.8418C18.4937 13.0127 18.5791 13.3667 18.5791 13.6719C18.5791 14.1357 18.3838 14.4897 18.0542 14.6851C17.9443 14.7461 17.9321 14.8438 18.0054 14.9536C18.1641 15.1367 18.2617 15.4175 18.2617 15.7227C18.2617 16.2598 17.8955 16.6626 17.4927 16.8213C17.4072 16.8457 17.4072 16.9189 17.4561 17.0166C17.5293 17.1509 17.6025 17.3706 17.6025 17.6147C17.6025 18.2617 17.0776 18.5669 16.5283 18.7134C16.1621 18.7988 15.5151 18.8599 14.6484 18.8599L13.7085 18.8477C10.5469 18.8232 8.54492 16.9434 8.58154 14.4531Z" fill="#5ac8f5"/>
 </g>
</svg>
