<?xml version="1.0" encoding="UTF-8"?>
<!--Generator: Apple Native CoreSVG 175.5-->
<!DOCTYPE svg
PUBLIC "-//W3C//DTD SVG 1.1//EN"
       "http://www.w3.org/Graphics/SVG/1.1/DTD/svg11.dtd">
<svg version="1.1" xmlns="http://www.w3.org/2000/svg" xmlns:xlink="http://www.w3.org/1999/xlink" width="29.8584" height="13.2446">
 <g>
  <rect height="13.2446" opacity="0" width="29.8584" x="0" y="0"/>
  <path d="M29.8584 3.2959C29.8584 1.13525 28.7231 0.012207 26.5381 0.012207L3.2959 0.012207C1.11084 0.012207 0 1.13525 0 3.2959L0 9.96094C0 12.1216 1.12305 13.2446 3.30811 13.2446L26.5503 13.2446C28.7354 13.2446 29.8584 12.1216 29.8584 9.96094ZM27.8809 3.6499L27.8809 9.60693C27.8809 10.7056 27.2949 11.2793 26.2329 11.2793L3.60107 11.2793C2.56348 11.2793 1.96533 10.7056 1.96533 9.60693L1.96533 3.6499C1.96533 2.55127 2.56348 1.97754 3.61328 1.97754L26.2451 1.97754C27.2949 1.97754 27.8809 2.55127 27.8809 3.6499ZM4.66309 1.29395L3.67432 1.29395L3.67432 7.72705C3.67432 8.00781 3.89404 8.21533 4.1748 8.21533C4.46777 8.21533 4.66309 7.99561 4.66309 7.71484ZM6.82373 1.29395L5.83496 1.29395L5.83496 5.57861C5.83496 5.87158 6.05469 6.06689 6.32324 6.06689C6.62842 6.06689 6.82373 5.85938 6.82373 5.56641ZM8.97217 1.29395L7.97119 1.29395L7.97119 5.57861C7.97119 5.87158 8.20312 6.06689 8.47168 6.06689C8.76465 6.06689 8.97217 5.85938 8.97217 5.56641ZM11.1084 1.29395L10.1196 1.29395L10.1196 5.57861C10.1196 5.87158 10.3394 6.06689 10.6201 6.06689C10.9131 6.06689 11.1084 5.85938 11.1084 5.56641ZM13.269 1.29395L12.2803 1.29395L12.2803 5.57861C12.2803 5.87158 12.5 6.06689 12.7686 6.06689C13.0737 6.06689 13.269 5.85938 13.269 5.56641ZM15.4297 1.29395L14.4409 1.29395L14.4409 7.72705C14.4409 8.00781 14.6606 8.21533 14.9292 8.21533C15.2344 8.21533 15.4297 7.99561 15.4297 7.71484ZM17.5781 1.29395L16.5894 1.29395L16.5894 5.57861C16.5894 5.87158 16.8091 6.06689 17.0776 6.06689C17.3706 6.06689 17.5781 5.85938 17.5781 5.56641ZM19.7266 1.29395L18.7378 1.29395L18.7378 5.57861C18.7378 5.87158 18.9575 6.06689 19.2383 6.06689C19.5312 6.06689 19.7266 5.85938 19.7266 5.56641ZM21.875 1.29395L20.8862 1.29395L20.8862 5.57861C20.8862 5.87158 21.106 6.06689 21.3745 6.06689C21.6797 6.06689 21.875 5.85938 21.875 5.56641ZM24.0356 1.29395L23.0469 1.29395L23.0469 5.57861C23.0469 5.87158 23.2666 6.06689 23.5352 6.06689C23.8281 6.06689 24.0356 5.85938 24.0356 5.56641ZM26.1841 1.29395L25.1953 1.29395L25.1953 7.72705C25.1953 8.00781 25.415 8.21533 25.6958 8.21533C25.9888 8.21533 26.1841 7.99561 26.1841 7.71484Z" fill="#5ac8f5"/>
 </g>
</svg>
