<?xml version="1.0" encoding="UTF-8"?>
<!--Generator: Apple Native CoreSVG 175.5-->
<!DOCTYPE svg
PUBLIC "-//W3C//DTD SVG 1.1//EN"
       "http://www.w3.org/Graphics/SVG/1.1/DTD/svg11.dtd">
<svg version="1.1" xmlns="http://www.w3.org/2000/svg" xmlns:xlink="http://www.w3.org/1999/xlink" width="23.4604" height="26.2329">
 <g>
  <rect height="26.2329" opacity="0" width="23.4604" x="0" y="0"/>
  <path d="M19.6381 17.2729L19.6381 3.50342C19.6381 1.18408 18.4784 0 16.1835 0L6.63757 0C5.23376 0 4.26941 0.476074 3.75671 1.40381ZM3.18298 7.49512L3.18298 24.6948C3.18298 25.647 3.65906 26.1841 4.47693 26.1841C5.07507 26.1841 5.42908 25.8423 6.52771 24.7803L11.3007 20.0806C11.3617 20.0195 11.4716 20.0195 11.5204 20.0806L16.2933 24.7803C17.392 25.8423 17.746 26.1841 18.3441 26.1841C19.162 26.1841 19.6381 25.647 19.6381 24.6948L19.6381 23.9746Z" fill="#5ac8f5" fill-opacity="0.5"/>
  <path d="M21.8597 24.0845C22.226 24.4507 22.8241 24.4507 23.1903 24.0845C23.5443 23.7183 23.5565 23.1201 23.1903 22.7539L1.60828 1.15967C1.24207 0.793457 0.631714 0.793457 0.265503 1.15967C-0.088501 1.51367-0.088501 2.13623 0.265503 2.49023Z" fill="#5ac8f5"/>
 </g>
</svg>
