<?xml version="1.0" encoding="UTF-8"?>
<!--Generator: Apple Native CoreSVG 175.5-->
<!DOCTYPE svg
PUBLIC "-//W3C//DTD SVG 1.1//EN"
       "http://www.w3.org/Graphics/SVG/1.1/DTD/svg11.dtd">
<svg version="1.1" xmlns="http://www.w3.org/2000/svg" xmlns:xlink="http://www.w3.org/1999/xlink" width="29.2236" height="29.1138">
 <g>
  <rect height="29.1138" opacity="0" width="29.2236" x="0" y="0"/>
  <path d="M0.854492 12.6953L28.3691 12.6953C28.8452 12.6953 29.2236 12.2803 29.2236 11.8042C29.2236 11.3281 28.8452 10.9009 28.3691 10.9009L0.854492 10.9009C0.366211 10.9009 0 11.3281 0 11.8042C0 12.2803 0.366211 12.6953 0.854492 12.6953ZM0.854492 29.1016L28.3691 29.1016C28.8452 29.1016 29.2236 28.6743 29.2236 28.1982C29.2236 27.7222 28.8452 27.3071 28.3691 27.3071L0.854492 27.3071C0.366211 27.3071 0 27.7222 0 28.1982C0 28.6743 0.366211 29.1016 0.854492 29.1016Z" fill="#5ac8f5"/>
  <path d="M10.0098 8.89893L19.2139 8.89893C21.0327 8.89893 22.0093 7.93457 22.0093 6.15234L22.0093 2.74658C22.0093 0.964355 21.0327 0 19.2139 0L10.0098 0C8.19092 0 7.21436 0.964355 7.21436 2.74658L7.21436 6.15234C7.21436 7.93457 8.19092 8.89893 10.0098 8.89893ZM10.0342 7.05566C9.41162 7.05566 9.05762 6.70166 9.05762 6.04248L9.05762 2.85645C9.05762 2.19727 9.41162 1.84326 10.0342 1.84326L19.1895 1.84326C19.812 1.84326 20.166 2.19727 20.166 2.85645L20.166 6.04248C20.166 6.70166 19.812 7.05566 19.1895 7.05566ZM5.68848 25.3052L23.5352 25.3052C25.354 25.3052 26.3306 24.3286 26.3306 22.5464L26.3306 19.1406C26.3306 17.3706 25.354 16.394 23.5352 16.394L5.68848 16.394C3.86963 16.394 2.89307 17.3706 2.89307 19.1406L2.89307 22.5464C2.89307 24.3286 3.86963 25.3052 5.68848 25.3052ZM5.71289 23.4619C5.09033 23.4619 4.73633 23.0957 4.73633 22.4487L4.73633 19.2505C4.73633 18.6035 5.09033 18.2373 5.71289 18.2373L23.5107 18.2373C24.1333 18.2373 24.4873 18.6035 24.4873 19.2505L24.4873 22.4487C24.4873 23.0957 24.1333 23.4619 23.5107 23.4619Z" fill="#5ac8f5" fill-opacity="0.5"/>
 </g>
</svg>
