<?xml version="1.0" encoding="UTF-8"?>
<!--Generator: Apple Native CoreSVG 175.5-->
<!DOCTYPE svg
PUBLIC "-//W3C//DTD SVG 1.1//EN"
       "http://www.w3.org/Graphics/SVG/1.1/DTD/svg11.dtd">
<svg version="1.1" xmlns="http://www.w3.org/2000/svg" xmlns:xlink="http://www.w3.org/1999/xlink" width="20.5322" height="26.1841">
 <g>
  <rect height="26.1841" opacity="0" width="20.5322" x="0" y="0"/>
  <path d="M5.43213 6.06689C4.96826 6.06689 4.63867 5.7251 4.63867 5.28564C4.63867 4.84619 4.96826 4.50439 5.43213 4.50439L15.5762 4.50439C16.0278 4.50439 16.3574 4.84619 16.3574 5.28564C16.3574 5.7251 16.0278 6.06689 15.5762 6.06689ZM5.43213 9.7168C4.96826 9.7168 4.63867 9.375 4.63867 8.93555C4.63867 8.5083 4.96826 8.1665 5.43213 8.1665L11.377 8.1665C11.8286 8.1665 12.1704 8.5083 12.1704 8.93555C12.1704 9.375 11.8286 9.7168 11.377 9.7168ZM5.62744 22.168C4.55322 22.168 3.94287 21.5942 3.94287 20.4834L3.94287 13.501C3.94287 12.3901 4.55322 11.8164 5.62744 11.8164L14.917 11.8164C16.0278 11.8164 16.5894 12.3901 16.5894 13.501L16.5894 20.4834C16.5894 21.5942 16.0278 22.168 14.917 22.168ZM0 22.3511C0 24.9023 1.25732 26.1719 3.78418 26.1719L16.748 26.1719C19.2749 26.1719 20.5322 24.9023 20.5322 22.3511L20.5322 3.83301C20.5322 1.29395 19.2749 0 16.748 0L3.78418 0C1.25732 0 0 1.29395 0 3.83301Z" fill="#5ac8f5"/>
 </g>
</svg>
