<?xml version="1.0" encoding="UTF-8"?>
<!--Generator: Apple Native CoreSVG 175.5-->
<!DOCTYPE svg
PUBLIC "-//W3C//DTD SVG 1.1//EN"
       "http://www.w3.org/Graphics/SVG/1.1/DTD/svg11.dtd">
<svg version="1.1" xmlns="http://www.w3.org/2000/svg" xmlns:xlink="http://www.w3.org/1999/xlink" width="25.0854" height="24.1577">
 <g>
  <rect height="24.1577" opacity="0" width="25.0854" x="0" y="0"/>
  <path d="M8.83789 24.1455L16.2476 24.1455C17.7979 24.1455 18.5303 23.645 19.3359 22.7783L24.0723 17.5537C24.8657 16.6748 25.0854 16.0767 25.0854 14.8682L25.0854 9.28955C25.0854 8.06885 24.8657 7.48291 24.0723 6.604L19.3359 1.37939C18.5303 0.512695 17.7979 0 16.2476 0L8.83789 0C7.2876 0 6.54297 0.512695 5.74951 1.37939L1.01318 6.604C0.20752 7.48291 0 8.06885 0 9.28955L0 14.8682C0 16.0767 0.20752 16.6748 1.01318 17.5537L5.74951 22.7783C6.54297 23.645 7.2876 24.1455 8.83789 24.1455ZM8.44727 17.1997C7.88574 17.1997 7.43408 16.748 7.43408 16.1865C7.43408 15.918 7.54395 15.6616 7.73926 15.4785L11.1206 12.085L7.73926 8.70361C7.54395 8.5083 7.43408 8.26416 7.43408 7.99561C7.43408 7.42188 7.88574 6.99463 8.44727 6.99463C8.72803 6.99463 8.94775 7.09229 9.14307 7.27539L12.5488 10.6689L15.979 7.26318C16.1865 7.05566 16.4062 6.97021 16.6748 6.97021C17.2363 6.97021 17.6758 7.40967 17.6758 7.97119C17.6758 8.25195 17.6025 8.47168 17.3828 8.69141L13.9893 12.085L17.3706 15.4663C17.5781 15.6494 17.6636 15.9058 17.6636 16.1865C17.6636 16.748 17.2241 17.1997 16.6504 17.1997C16.3696 17.1997 16.1133 17.1021 15.9302 16.9067L12.5488 13.5132L9.17969 16.9067C8.98438 17.1021 8.72803 17.1997 8.44727 17.1997Z" fill="#5ac8f5"/>
 </g>
</svg>
