<?xml version="1.0" encoding="UTF-8"?>
<!--Generator: Apple Native CoreSVG 175.5-->
<!DOCTYPE svg
PUBLIC "-//W3C//DTD SVG 1.1//EN"
       "http://www.w3.org/Graphics/SVG/1.1/DTD/svg11.dtd">
<svg version="1.1" xmlns="http://www.w3.org/2000/svg" xmlns:xlink="http://www.w3.org/1999/xlink" width="24.9023" height="24.9146">
 <g>
  <rect height="24.9146" opacity="0" width="24.9023" x="0" y="0"/>
  <path d="M12.4512 24.9023C19.2627 24.9023 24.9023 19.2505 24.9023 12.4512C24.9023 5.63965 19.2505 0 12.439 0C5.63965 0 0 5.63965 0 12.4512C0 19.2505 5.65186 24.9023 12.4512 24.9023ZM4.50439 11.4136C4.50439 11.2549 4.57764 11.084 4.71191 10.9497L11.5723 5.2124C12.1094 4.74854 12.8174 4.74854 13.3667 5.2124L16.6382 7.95898L16.6382 6.75049C16.6382 6.46973 16.8457 6.27441 17.1265 6.27441L17.8345 6.27441C18.1274 6.27441 18.3105 6.46973 18.3105 6.75049L18.3105 9.375L20.2026 10.9497C20.3491 11.084 20.4102 11.2305 20.4102 11.438C20.4102 11.7676 20.1416 11.9995 19.812 11.9995C19.6167 11.9995 19.4702 11.8774 19.3115 11.7554L12.7686 6.26221C12.561 6.10352 12.3779 6.0791 12.1582 6.26221L5.60303 11.7554C5.45654 11.8774 5.31006 11.9995 5.10254 11.9995C4.72412 11.9995 4.50439 11.7065 4.50439 11.4136ZM6.604 17.3462L6.604 12.0972L12.0605 7.51953C12.3169 7.31201 12.5977 7.2998 12.854 7.51953L18.3105 12.1094L18.3105 17.3462C18.3105 18.2495 17.7612 18.7988 16.8213 18.7988L8.10547 18.7988C7.16553 18.7988 6.604 18.2495 6.604 17.3462ZM10.7544 17.5293L14.1724 17.5293L14.1724 13.3301C14.1724 13.0249 13.9893 12.8174 13.6597 12.8174L11.2671 12.8174C10.9497 12.8174 10.7544 13.0249 10.7544 13.3301Z" fill="#5ac8f5"/>
 </g>
</svg>
