<?xml version="1.0" encoding="UTF-8"?>
<!--Generator: Apple Native CoreSVG 175.5-->
<!DOCTYPE svg
PUBLIC "-//W3C//DTD SVG 1.1//EN"
       "http://www.w3.org/Graphics/SVG/1.1/DTD/svg11.dtd">
<svg version="1.1" xmlns="http://www.w3.org/2000/svg" xmlns:xlink="http://www.w3.org/1999/xlink" width="24.9512" height="27.6489">
 <g>
  <rect height="27.6489" opacity="0" width="24.9512" x="0" y="0"/>
  <path d="M18.7622 17.7734L22.3022 19.7998C22.3633 19.8242 22.3999 19.8608 22.3999 19.9097C22.3999 19.9707 22.3633 20.0073 22.3022 20.0317L13.0127 25.354C12.8174 25.4639 12.6465 25.5249 12.4756 25.5249C12.3047 25.5249 12.1338 25.4639 11.9263 25.354L2.63672 20.0317C2.58789 20.0073 2.55127 19.9707 2.55127 19.9097C2.55127 19.8608 2.58789 19.8242 2.63672 19.7998L6.46973 17.6147L4.41895 16.4551L1.36719 18.2251C0.378418 18.7988 0 19.2505 0 19.9097C0 20.5811 0.378418 21.0327 1.36719 21.6064L10.9253 27.1484C11.5112 27.4902 11.9751 27.6489 12.4756 27.6489C12.9639 27.6489 13.4399 27.4902 14.0259 27.1484L23.5718 21.6064C24.5605 21.0327 24.9512 20.5811 24.9512 19.9097C24.9512 19.2505 24.5605 18.7988 23.5718 18.2251L20.6665 16.5283Z" fill="#5ac8f5" fill-opacity="0.5"/>
  <path d="M18.4937 11.9995L22.3022 14.1724C22.3633 14.1968 22.3999 14.2334 22.3999 14.2944C22.3999 14.3555 22.3633 14.3799 22.3022 14.4165L13.0127 19.7266C12.8174 19.8364 12.6465 19.8975 12.4756 19.8975C12.3047 19.8975 12.1338 19.8364 11.9263 19.7266L2.63672 14.4165C2.58789 14.3799 2.55127 14.3555 2.55127 14.2944C2.55127 14.2334 2.58789 14.1968 2.63672 14.1724L6.75049 11.8164L4.79736 10.6201L1.36719 12.5977C0.378418 13.1836 0 13.623 0 14.2944C0 14.9658 0.378418 15.4053 1.36719 15.979L10.9253 21.5332C11.5112 21.875 11.9751 22.0337 12.4756 22.0337C12.9639 22.0337 13.4399 21.875 14.0259 21.5332L23.5718 15.979C24.5605 15.4053 24.9512 14.9658 24.9512 14.2944C24.9512 13.623 24.5605 13.1836 23.5718 12.5977L20.3857 10.7422Z" fill="#5ac8f5" fill-opacity="0.5"/>
  <path d="M12.4756 16.0156C12.9639 16.0156 13.4399 15.8569 14.0259 15.5151L23.5718 9.97314C24.5605 9.39941 24.9512 8.94775 24.9512 8.27637C24.9512 7.61719 24.5605 7.16553 23.5718 6.5918L14.0259 1.0498C13.4399 0.708008 12.9639 0.549316 12.4756 0.549316C11.9751 0.549316 11.5112 0.708008 10.9253 1.0498L1.36719 6.5918C0.378418 7.16553 0 7.61719 0 8.27637C0 8.94775 0.378418 9.39941 1.36719 9.97314L10.9253 15.5151C11.5112 15.8569 11.9751 16.0156 12.4756 16.0156ZM12.4756 13.8916C12.3047 13.8916 12.1338 13.8306 11.9263 13.7207L2.63672 8.39844C2.58789 8.37402 2.55127 8.3374 2.55127 8.27637C2.55127 8.22754 2.58789 8.19092 2.63672 8.1665L11.9263 2.84424C12.1338 2.73438 12.3047 2.67334 12.4756 2.67334C12.6465 2.67334 12.8174 2.73438 13.0127 2.84424L22.3022 8.1665C22.3633 8.19092 22.3999 8.22754 22.3999 8.27637C22.3999 8.3374 22.3633 8.37402 22.3022 8.39844L13.0127 13.7207C12.8174 13.8306 12.6465 13.8916 12.4756 13.8916Z" fill="#5ac8f5"/>
 </g>
</svg>
