<?xml version="1.0" encoding="UTF-8"?>
<!--Generator: Apple Native CoreSVG 175.5-->
<!DOCTYPE svg
PUBLIC "-//W3C//DTD SVG 1.1//EN"
       "http://www.w3.org/Graphics/SVG/1.1/DTD/svg11.dtd">
<svg version="1.1" xmlns="http://www.w3.org/2000/svg" xmlns:xlink="http://www.w3.org/1999/xlink" width="24.9023" height="24.9146">
 <g>
  <rect height="24.9146" opacity="0" width="24.9023" x="0" y="0"/>
  <path d="M12.4512 24.9146C19.2627 24.9146 24.9023 19.2749 24.9023 12.4634C24.9023 5.66406 19.2505 0.012207 12.439 0.012207C5.63965 0.012207 0 5.66406 0 12.4634C0 19.2749 5.65186 24.9146 12.4512 24.9146Z" fill="#5ac8f5" fill-opacity="0.25"/>
  <path d="M6.70166 18.8599C6.18896 18.8599 5.95703 18.5303 5.95703 18.0664C5.95703 16.6992 8.03223 13.1226 12.4512 13.1226C16.8701 13.1226 18.9453 16.6992 18.9453 18.0664C18.9453 18.5303 18.7134 18.8599 18.2007 18.8599ZM12.4512 12.085C10.6689 12.0728 9.21631 10.5713 9.21631 8.54492C9.21631 6.66504 10.6689 5.10254 12.4512 5.10254C14.2334 5.10254 15.686 6.66504 15.686 8.54492C15.686 10.5713 14.2334 12.0972 12.4512 12.085Z" fill="#5ac8f5"/>
 </g>
</svg>
