<?xml version="1.0" encoding="UTF-8"?>
<!--Generator: Apple Native CoreSVG 175.5-->
<!DOCTYPE svg
PUBLIC "-//W3C//DTD SVG 1.1//EN"
       "http://www.w3.org/Graphics/SVG/1.1/DTD/svg11.dtd">
<svg version="1.1" xmlns="http://www.w3.org/2000/svg" xmlns:xlink="http://www.w3.org/1999/xlink" width="24.9023" height="24.9146">
 <g>
  <rect height="24.9146" opacity="0" width="24.9023" x="0" y="0"/>
  <path d="M12.4512 24.9023C19.2627 24.9023 24.9023 19.2505 24.9023 12.4512C24.9023 5.63965 19.2505 0 12.439 0C5.63965 0 0 5.63965 0 12.4512C0 19.2505 5.65186 24.9023 12.4512 24.9023Z" fill="#5ac8f5" fill-opacity="0.25"/>
  <path d="M12.439 23.0469C9.64355 23.0469 6.81152 21.8994 4.94385 19.9097C6.26221 17.8345 9.13086 16.6138 12.439 16.6138C15.7227 16.6138 18.6157 17.8101 19.9463 19.9097C18.0664 21.8994 15.2466 23.0469 12.439 23.0469ZM12.439 14.5386C10.0952 14.5142 8.25195 12.561 8.25195 9.93652C8.23975 7.4707 10.1074 5.41992 12.439 5.41992C14.7827 5.41992 16.626 7.4707 16.626 9.93652C16.626 12.561 14.7949 14.563 12.439 14.5386Z" fill="#5ac8f5"/>
 </g>
</svg>
