<?xml version="1.0" encoding="UTF-8"?>
<!--Generator: Apple Native CoreSVG 175.5-->
<!DOCTYPE svg
PUBLIC "-//W3C//DTD SVG 1.1//EN"
       "http://www.w3.org/Graphics/SVG/1.1/DTD/svg11.dtd">
<svg version="1.1" xmlns="http://www.w3.org/2000/svg" xmlns:xlink="http://www.w3.org/1999/xlink" width="24.9023" height="24.9146">
 <g>
  <rect height="24.9146" opacity="0" width="24.9023" x="0" y="0"/>
  <path d="M12.4512 24.9146C19.2627 24.9146 24.9023 19.2749 24.9023 12.4634C24.9023 5.66406 19.2505 0.012207 12.439 0.012207C5.63965 0.012207 0 5.66406 0 12.4634C0 19.2749 5.65186 24.9146 12.4512 24.9146Z" fill="#5ac8f5" fill-opacity="0.25"/>
  <path d="M8.82568 6.64062C9.021 6.61621 9.22852 6.604 9.50928 6.604C11.7676 6.604 13.208 7.72705 15.332 7.72705C16.3696 7.72705 16.9189 7.4585 17.2852 7.4585C17.7979 7.4585 17.9932 7.72705 17.9932 8.10547L17.9932 14.2944C17.9932 14.7583 17.7734 15.0635 17.4683 15.2832ZM13.3057 15.4907C12.1094 15.1733 11.0107 14.6973 9.57031 14.6973C8.80127 14.6973 8.30078 14.8438 8.06885 14.9414L8.06885 18.6523C8.06885 18.9819 7.83691 19.2383 7.49512 19.2383C7.18994 19.2383 6.90918 18.9697 6.90918 18.6523L6.90918 9.08203ZM18.3838 19.2139L5.68848 6.53076C5.48096 6.31104 5.48096 5.94482 5.68848 5.71289C5.93262 5.49316 6.28662 5.49316 6.51855 5.71289L19.2017 18.396C19.4214 18.6279 19.4214 18.9697 19.2017 19.2139C18.9697 19.4214 18.6035 19.4214 18.3838 19.2139Z" fill="#5ac8f5"/>
 </g>
</svg>
