<?xml version="1.0" encoding="UTF-8"?>
<!--Generator: Apple Native CoreSVG 175.5-->
<!DOCTYPE svg
PUBLIC "-//W3C//DTD SVG 1.1//EN"
       "http://www.w3.org/Graphics/SVG/1.1/DTD/svg11.dtd">
<svg version="1.1" xmlns="http://www.w3.org/2000/svg" xmlns:xlink="http://www.w3.org/1999/xlink" width="30.6885" height="23.2056">
 <g>
  <rect height="23.2056" opacity="0" width="30.6885" x="0" y="0"/>
  <path d="M24.1211 21.2158C27.8076 21.2158 30.6885 18.5181 30.6885 15.1611C30.6885 12.5977 29.2114 10.376 26.8311 9.375C26.8555 3.93066 22.937 0 17.9443 0C14.6362 0 12.2803 1.77002 10.8154 3.90625C7.8125 3.02734 4.54102 5.31006 4.47998 8.72803C1.72119 9.16748 0 11.6333 0 14.6118C0 18.2007 3.13721 21.2158 7.31201 21.2158Z" fill="#5ac8f5" fill-opacity="0.25"/>
  <path d="M10.4492 16.1255C9.11865 14.7949 9.11865 12.8906 10.4492 11.5601L12.5366 9.48486C12.2803 10.1562 12.2559 10.7788 12.4146 11.3525L11.377 12.3901C10.5469 13.2202 10.5347 14.3799 11.377 15.21C12.207 16.0278 13.3667 16.04 14.1968 15.21L16.5649 12.8418C17.4072 11.9873 17.4194 10.8154 16.5649 10.022C16.1255 9.60693 15.6494 9.41162 15.1367 9.48486C15.3076 9.25293 15.4785 9.06982 15.5884 8.94775L16.2231 8.3252C16.5894 8.42285 17.0654 8.6792 17.4927 9.09424C18.8599 10.4126 18.8354 12.3413 17.4927 13.6719L15.0269 16.1255C13.6841 17.4561 11.792 17.4561 10.4492 16.1255ZM20.874 5.7251C22.1924 7.04346 22.2046 8.94775 20.874 10.2783L18.7866 12.3657C19.043 11.6943 19.0674 11.0718 18.9087 10.4858L19.9463 9.46045C20.7764 8.64258 20.7886 7.4707 19.9463 6.64062C19.1162 5.82275 17.9688 5.81055 17.1265 6.65283L14.7705 9.00879C13.9282 9.85107 13.9038 11.0352 14.7583 11.8286C15.1733 12.2192 15.6372 12.4146 16.1011 12.4146C15.9912 12.5977 15.9546 12.6587 15.7471 12.9028L15.1123 13.5254C14.7705 13.4277 14.2822 13.1714 13.8428 12.7563C12.4878 11.438 12.5 9.50928 13.8306 8.17871L16.2964 5.71289C17.6392 4.38232 19.5312 4.38232 20.874 5.7251Z" fill="#5ac8f5"/>
 </g>
</svg>
