<?xml version="1.0" encoding="UTF-8"?>
<!--Generator: Apple Native CoreSVG 175.5-->
<!DOCTYPE svg
PUBLIC "-//W3C//DTD SVG 1.1//EN"
       "http://www.w3.org/Graphics/SVG/1.1/DTD/svg11.dtd">
<svg version="1.1" xmlns="http://www.w3.org/2000/svg" xmlns:xlink="http://www.w3.org/1999/xlink" width="16.7725" height="33.4351">
 <g>
  <rect height="33.4351" opacity="0" width="16.7725" x="0" y="0"/>
  <path d="M8.38623 33.4229C13.0737 33.4229 15.1855 32.3608 15.1855 29.6631L15.1855 13.8184C15.1855 11.0352 12.6099 9.38721 8.38623 9.38721C4.1626 9.38721 1.59912 11.0352 1.59912 13.8184L1.59912 29.6631C1.59912 32.3608 3.69873 33.4229 8.38623 33.4229ZM8.38623 31.5186C4.89502 31.5186 3.52783 30.9814 3.52783 29.6021L3.52783 13.8184C3.52783 12.2192 5.22461 11.3159 8.38623 11.3159C11.5601 11.3159 13.2568 12.2192 13.2568 13.8184L13.2568 29.6021C13.2568 30.9814 11.8896 31.5186 8.38623 31.5186ZM2.63672 19.0063L2.63672 16.4673L1.07422 16.4673C0.476074 16.4673 0 16.9189 0 17.5049L0 17.9688C0 18.5425 0.476074 19.0063 1.07422 19.0063ZM14.1357 19.0063L15.6982 19.0063C16.3086 19.0063 16.7725 18.5425 16.7725 17.9688L16.7725 17.5049C16.7725 16.9189 16.3086 16.4673 15.6982 16.4673L14.1357 16.4673ZM8.38623 19.5068C9.27734 19.5068 10.6079 19.5801 11.0596 19.5801C11.8042 19.5801 12.1338 19.2749 12.207 18.5059L12.3535 16.7969C12.4756 15.3931 11.5356 14.856 8.38623 14.856C5.23682 14.856 4.30908 15.3931 4.43115 16.7969L4.57764 18.5059C4.65088 19.2749 4.98047 19.5801 5.71289 19.5801C6.17676 19.5801 7.55615 19.5068 8.38623 19.5068ZM8.38623 29.3091C11.5356 29.3091 12.5366 28.8452 12.3169 27.3926L12.1826 26.5625C11.9995 25.4028 11.1084 25.0366 8.38623 25.0366C5.67627 25.0366 4.77295 25.4028 4.58984 26.5625L4.46777 27.3926C4.24805 28.8452 5.23682 29.3091 8.38623 29.3091ZM8.38623 1.83105C10.5469 1.83105 12.5 2.62451 14.0015 3.96729C14.5264 4.41895 15.0757 4.45557 15.4419 4.10156C15.8447 3.69873 15.8203 3.11279 15.3931 2.66113C13.5742 0.842285 11.0474 0 8.38623 0C5.7373 0 3.21045 0.842285 1.3916 2.66113C0.952148 3.11279 0.927734 3.69873 1.34277 4.10156C1.69678 4.45557 2.24609 4.41895 2.771 3.96729C4.27246 2.62451 6.23779 1.83105 8.38623 1.83105ZM8.38623 6.11572C9.46045 6.11572 10.4004 6.44531 11.1206 7.04346C11.7432 7.48291 12.2559 7.4585 12.5977 7.10449C12.9761 6.73828 12.9517 6.20117 12.561 5.79834C11.8164 5.05371 10.1685 4.28467 8.38623 4.28467C6.61621 4.28467 4.96826 5.05371 4.21143 5.79834C3.8208 6.20117 3.79639 6.73828 4.1748 7.10449C4.5166 7.4585 5.0293 7.48291 5.65186 7.04346C6.38428 6.44531 7.32422 6.11572 8.38623 6.11572Z" fill="#5ac8f5"/>
 </g>
</svg>
