<?xml version="1.0" encoding="UTF-8"?>
<!--Generator: Apple Native CoreSVG 175.5-->
<!DOCTYPE svg
PUBLIC "-//W3C//DTD SVG 1.1//EN"
       "http://www.w3.org/Graphics/SVG/1.1/DTD/svg11.dtd">
<svg version="1.1" xmlns="http://www.w3.org/2000/svg" xmlns:xlink="http://www.w3.org/1999/xlink" width="24.9023" height="24.9146">
 <g>
  <rect height="24.9146" opacity="0" width="24.9023" x="0" y="0"/>
  <path d="M12.4512 24.9146C19.2627 24.9146 24.9023 19.2749 24.9023 12.4634C24.9023 5.66406 19.2505 0.012207 12.439 0.012207C5.63965 0.012207 0 5.66406 0 12.4634C0 19.2749 5.65186 24.9146 12.4512 24.9146ZM13.2812 10.5957L9.76562 7.09229C10.1074 5.94482 11.1694 5.11475 12.4268 5.11475C13.9771 5.11475 15.2344 6.37207 15.2344 7.92236C15.2344 9.17969 14.4165 10.2417 13.2812 10.5957ZM10.8276 7.18994C10.8276 7.65381 11.2427 8.06885 11.7188 8.06885C12.207 8.06885 12.5977 7.65381 12.5977 7.18994C12.6099 6.70166 12.207 6.28662 11.7188 6.28662C11.2427 6.28662 10.8276 6.70166 10.8276 7.18994ZM11.5845 13.7085L13.269 15.3931L13.269 16.6748C13.269 18.4937 12.9883 20.0562 12.4268 20.0562C11.8774 20.0562 11.5845 18.457 11.5845 16.6748ZM18.1396 18.9331L5.95703 6.7749C5.74951 6.56738 5.74951 6.20117 5.95703 5.99365C6.18896 5.77393 6.53076 5.77393 6.75049 5.99365L18.9209 18.1519C19.1406 18.3716 19.1406 18.7134 18.9209 18.9331C18.7012 19.1528 18.3472 19.1406 18.1396 18.9331Z" fill="#5ac8f5"/>
 </g>
</svg>
