<?xml version="1.0" encoding="UTF-8"?>
<!--Generator: Apple Native CoreSVG 175.5-->
<!DOCTYPE svg
PUBLIC "-//W3C//DTD SVG 1.1//EN"
       "http://www.w3.org/Graphics/SVG/1.1/DTD/svg11.dtd">
<svg version="1.1" xmlns="http://www.w3.org/2000/svg" xmlns:xlink="http://www.w3.org/1999/xlink" width="28.7842" height="26.4496">
 <g>
  <rect height="26.4496" opacity="0" width="28.7842" x="0" y="0"/>
  <path d="M28.2593 22.9355C28.6133 22.3496 28.7842 21.6049 28.7842 20.6772L28.7842 8.873C28.7842 6.35836 27.5146 5.10103 24.9512 5.10103L23.2666 5.10103L23.2666 3.46529C23.2666 2.53756 22.7295 1.97603 21.7896 1.97603L18.1885 1.97603C17.2607 1.97603 16.7236 2.53756 16.7236 3.46529L16.7236 5.10103L12.0728 5.10103L12.0728 3.46529C12.0728 2.53756 11.5356 1.97603 10.5957 1.97603L7.36084 1.97603C7.33643 1.97603 7.2998 1.97603 7.27539 1.97603L12.3657 7.06636L24.9268 7.06636C26.1353 7.06636 26.8188 7.71334 26.8188 8.98287L26.8188 20.5673C26.8188 20.8725 26.77 21.1411 26.6846 21.3608ZM3.83301 24.4492L21.4722 24.4492L19.5068 22.4838L3.85742 22.4838C2.63672 22.4838 1.96533 21.8369 1.96533 20.5673L1.96533 8.98287C1.96533 7.71334 2.63672 7.06636 3.85742 7.06636L4.05273 7.06636L2.29492 5.30855L2.27051 5.30855C0.756836 5.76021 0 6.94429 0 8.873L0 20.6772C0 23.1919 1.28174 24.4492 3.83301 24.4492ZM20.9839 15.6723L22.7661 15.6723C23.2666 15.6723 23.6694 15.2817 23.6694 14.7812C23.6694 14.2685 23.2666 13.8779 22.7661 13.8779L20.874 13.8779L20.874 11.9858C20.874 11.4853 20.4834 11.0825 19.9829 11.0825C19.4824 11.0825 19.0796 11.4853 19.0796 11.9858L19.0796 13.768ZM7.43408 15.6723L12.6709 15.6723L10.8765 13.8779L7.43408 13.8779C6.93359 13.8779 6.53076 14.2685 6.53076 14.7812C6.53076 15.2817 6.93359 15.6723 7.43408 15.6723ZM26.001 26.1704C26.3794 26.5366 26.9775 26.5488 27.3315 26.1704C27.6978 25.8042 27.71 25.206 27.3315 24.8398L2.7832 0.303669C2.41699-0.0625423 1.81885-0.0747493 1.44043 0.303669C1.08643 0.657673 1.08643 1.26802 1.44043 1.63424Z" fill="#5ac8f5"/>
 </g>
</svg>
