<?xml version="1.0" encoding="UTF-8"?>
<!--Generator: Apple Native CoreSVG 175.5-->
<!DOCTYPE svg
PUBLIC "-//W3C//DTD SVG 1.1//EN"
       "http://www.w3.org/Graphics/SVG/1.1/DTD/svg11.dtd">
<svg version="1.1" xmlns="http://www.w3.org/2000/svg" xmlns:xlink="http://www.w3.org/1999/xlink" width="24.9023" height="24.9146">
 <g>
  <rect height="24.9146" opacity="0" width="24.9023" x="0" y="0"/>
  <path d="M12.4512 24.9023C19.2627 24.9023 24.9023 19.2505 24.9023 12.4512C24.9023 5.63965 19.2505 0 12.439 0C5.63965 0 0 5.63965 0 12.4512C0 19.2505 5.65186 24.9023 12.4512 24.9023ZM12.4512 22.8271C6.68945 22.8271 2.0874 18.2129 2.0874 12.4512C2.0874 6.68945 6.67725 2.0752 12.439 2.0752C18.2007 2.0752 22.8271 6.68945 22.8271 12.4512C22.8271 18.2129 18.2129 22.8271 12.4512 22.8271ZM9.2041 17.7124C11.3037 17.7124 12.6953 15.6982 12.6953 12.4512C12.6953 9.2041 11.3037 7.18994 9.2041 7.18994C7.09229 7.18994 5.70068 9.2041 5.70068 12.4512C5.70068 15.6982 7.09229 17.7124 9.2041 17.7124ZM9.2041 16.2354C8.03223 16.2354 7.31201 14.7949 7.31201 12.4512C7.31201 10.1074 8.03223 8.66699 9.2041 8.66699C10.3638 8.66699 11.084 10.1074 11.084 12.4512C11.084 14.7949 10.376 16.2354 9.2041 16.2354ZM17.6758 17.5659C18.1519 17.5659 18.4448 17.2607 18.4448 16.7847L18.4448 8.14209C18.4448 7.62939 18.103 7.26318 17.5903 7.26318C17.1875 7.26318 16.9556 7.38525 16.5283 7.67822L14.6729 8.94775C14.4043 9.13086 14.2578 9.35059 14.2578 9.66797C14.2578 10.083 14.5996 10.4004 14.9536 10.4004C15.1489 10.4004 15.271 10.3882 15.5518 10.1685L16.8579 9.2041L16.9189 9.2041L16.9189 16.7847C16.9189 17.2607 17.2241 17.5659 17.6758 17.5659Z" fill="#5ac8f5"/>
 </g>
</svg>
