<?xml version="1.0" encoding="UTF-8"?>
<!--Generator: Apple Native CoreSVG 175.5-->
<!DOCTYPE svg
PUBLIC "-//W3C//DTD SVG 1.1//EN"
       "http://www.w3.org/Graphics/SVG/1.1/DTD/svg11.dtd">
<svg version="1.1" xmlns="http://www.w3.org/2000/svg" xmlns:xlink="http://www.w3.org/1999/xlink" width="26.8677" height="16.9312">
 <g>
  <rect height="16.9312" opacity="0" width="26.8677" x="0" y="0"/>
  <path d="M0 5.88379C0 9.13086 2.41699 11.7188 5.50537 11.7188C6.95801 11.7188 8.3374 11.145 9.35059 10.022L9.68018 10.022C8.97217 12.3291 6.82373 14.2578 4.1626 15.0513C3.77197 15.1733 3.49121 15.2832 3.32031 15.4297C3.125 15.5884 3.02734 15.7837 3.02734 16.0645C3.02734 16.5771 3.40576 16.9312 3.96729 16.9312C4.37012 16.9312 4.65088 16.8579 5.18799 16.687C6.86035 16.1377 8.38623 15.1733 9.55811 13.9404C11.1938 12.2314 12.207 9.94873 12.207 7.23877C12.207 2.66113 9.30176 0.012207 5.896 0.012207C2.53906 0.012207 0 2.57568 0 5.88379ZM14.6606 5.88379C14.6606 9.13086 17.0654 11.7188 20.166 11.7188C21.6187 11.7188 22.9858 11.145 24.0112 10.022L24.3286 10.022C23.6328 12.3291 21.4844 14.2578 18.811 15.0513C18.4204 15.1733 18.1519 15.2832 17.981 15.4297C17.7856 15.5884 17.6758 15.7837 17.6758 16.0645C17.6758 16.5771 18.0664 16.9312 18.6401 16.9312C19.0186 16.9312 19.3115 16.8579 19.8364 16.687C21.521 16.1377 23.0347 15.1733 24.1943 13.9404C25.8545 12.2314 26.8677 9.94873 26.8677 7.23877C26.8677 2.66113 23.9624 0.012207 20.5566 0.012207C17.1997 0.012207 14.6606 2.57568 14.6606 5.88379Z" fill="#5ac8f5"/>
 </g>
</svg>
