<?xml version="1.0" encoding="UTF-8"?>
<!--Generator: Apple Native CoreSVG 175.5-->
<!DOCTYPE svg
PUBLIC "-//W3C//DTD SVG 1.1//EN"
       "http://www.w3.org/Graphics/SVG/1.1/DTD/svg11.dtd">
<svg version="1.1" xmlns="http://www.w3.org/2000/svg" xmlns:xlink="http://www.w3.org/1999/xlink" width="23.3398" height="27.4048">
 <g>
  <rect height="27.4048" opacity="0" width="23.3398" x="0" y="0"/>
  <path d="M11.6699 25.3174C18.1152 25.3174 23.3398 20.0928 23.3398 13.6475C23.3398 7.20215 18.1152 1.96533 11.6699 1.96533C5.22461 1.96533 0 7.20215 0 13.6475C0 20.0928 5.22461 25.3174 11.6699 25.3174ZM11.6699 23.23C6.37207 23.23 2.0874 18.9453 2.0874 13.6475C2.0874 8.36182 6.37207 4.06494 11.6699 4.06494C16.9556 4.06494 21.2524 8.36182 21.2524 13.6475C21.2524 18.9453 16.9556 23.23 11.6699 23.23ZM1.64795 5.10254C1.83105 5.10254 1.96533 5.07812 2.13623 4.94385L6.22559 1.85547C6.4209 1.70898 6.53076 1.51367 6.53076 1.30615C6.53076 1.0498 6.40869 0.842285 6.20117 0.646973C5.7373 0.231934 4.90723 0 4.1748 0C2.27051 0 0.744629 1.52588 0.744629 3.43018C0.744629 3.88184 0.817871 4.3335 0.952148 4.61426C1.08643 4.91943 1.34277 5.10254 1.64795 5.10254ZM21.6919 5.10254C21.9971 5.10254 22.2534 4.90723 22.3999 4.61426C22.522 4.3457 22.5952 3.88184 22.5952 3.43018C22.5952 1.52588 21.0815 0 19.165 0C18.4326 0 17.6025 0.231934 17.1387 0.646973C16.9312 0.842285 16.8091 1.0498 16.8091 1.30615C16.8091 1.51367 16.9189 1.70898 17.1265 1.85547L21.2036 4.94385C21.3867 5.07812 21.5088 5.10254 21.6919 5.10254ZM1.46484 24.9634C1.83105 25.3418 2.4292 25.3418 2.80762 24.9512L5.11475 22.6562L3.79639 21.3501L1.47705 23.645C1.09863 24.0112 1.11084 24.6094 1.46484 24.9634ZM21.875 24.9634C22.2412 24.6094 22.2412 24.0112 21.8628 23.645L19.5435 21.3501L18.2373 22.6562L20.5322 24.9512C20.9106 25.3418 21.5088 25.3418 21.875 24.9634ZM6.11572 14.9902L11.6577 14.9902C12.1338 14.9902 12.5122 14.624 12.5122 14.1479L12.5122 6.75049C12.5122 6.27441 12.1338 5.896 11.6577 5.896C11.1816 5.896 10.8154 6.27441 10.8154 6.75049L10.8154 13.2935L6.11572 13.2935C5.63965 13.2935 5.27344 13.6719 5.27344 14.1479C5.27344 14.624 5.63965 14.9902 6.11572 14.9902Z" fill="#5ac8f5"/>
 </g>
</svg>
