<?xml version="1.0" encoding="UTF-8"?>
<!--Generator: Apple Native CoreSVG 175.5-->
<!DOCTYPE svg
PUBLIC "-//W3C//DTD SVG 1.1//EN"
       "http://www.w3.org/Graphics/SVG/1.1/DTD/svg11.dtd">
<svg version="1.1" xmlns="http://www.w3.org/2000/svg" xmlns:xlink="http://www.w3.org/1999/xlink" width="31.9183" height="26.0742">
 <g>
  <rect height="26.0742" opacity="0" width="31.9183" x="0" y="0"/>
  <path d="M5.86853 22.9431L19.4794 22.9431L2.18201 5.64575C2.04773 5.95093 1.96228 6.51245 1.96228 7.02515L1.96228 19.0491C1.96228 21.5027 3.41492 22.9431 5.86853 22.9431ZM19.101 3.1189L6.39343 3.1189L22.7631 19.4885C22.8485 19.0735 22.8973 18.512 22.8973 17.9871L22.8973 6.97632C22.8973 4.53491 21.5546 3.1189 19.101 3.1189ZM24.5575 16.6321L29.0009 20.4773C29.4159 20.8435 29.9042 21.0754 30.3436 21.0754C31.2958 21.0754 31.9183 20.3796 31.9183 19.3787L31.9183 6.68335C31.9183 5.68237 31.2958 4.98657 30.3436 4.98657C29.9042 4.98657 29.4159 5.21851 29.0009 5.58472L24.5575 9.41772ZM24.3866 25.7996C24.7528 26.1658 25.3632 26.1658 25.7172 25.7996C26.0712 25.4211 26.0834 24.8352 25.7172 24.469L1.60828 0.372314C1.24207 0.00610352 0.631714-0.00610352 0.265503 0.372314C-0.088501 0.726318-0.088501 1.34888 0.265503 1.70288Z" fill="#5ac8f5"/>
 </g>
</svg>
