<?xml version="1.0" encoding="UTF-8"?>
<!--Generator: Apple Native CoreSVG 175.5-->
<!DOCTYPE svg
PUBLIC "-//W3C//DTD SVG 1.1//EN"
       "http://www.w3.org/Graphics/SVG/1.1/DTD/svg11.dtd">
<svg version="1.1" xmlns="http://www.w3.org/2000/svg" xmlns:xlink="http://www.w3.org/1999/xlink" width="34.8389" height="23.8159">
 <g>
  <rect height="23.8159" opacity="0" width="34.8389" x="0" y="0"/>
  <path d="M17.4194 23.8037C23.9258 23.8037 29.3335 18.4082 29.3335 11.9019C29.3335 5.39551 23.9258 0 17.4072 0C10.9009 0 5.51758 5.3833 5.51758 11.9019C5.51758 18.4082 10.9131 23.8037 17.4194 23.8037ZM17.4194 21.7285C11.9751 21.7285 7.60498 17.3584 7.60498 11.9019C7.60498 6.43311 11.9629 2.06299 17.4072 2.06299C22.8638 2.06299 27.2461 6.43311 27.2583 11.9019C27.2705 17.3462 22.8882 21.7285 17.4194 21.7285ZM0 11.9019C0 15.7715 1.25732 19.3237 3.38135 22.2168C3.75977 22.7417 4.40674 22.7905 4.89502 22.3999C5.33447 22.0215 5.39551 21.4355 5.0415 20.9473C3.18604 18.4204 2.0874 15.2832 2.0874 11.9019C2.0874 8.5083 3.18604 5.3833 5.0415 2.83203C5.39551 2.36816 5.34668 1.77002 4.89502 1.3916C4.40674 1.00098 3.75977 1.06201 3.38135 1.57471C1.25732 4.46777 0 8.03223 0 11.9019ZM34.8389 11.9019C34.8389 8.03223 33.5938 4.46777 31.4575 1.57471C31.0791 1.06201 30.4321 1.00098 29.9438 1.3916C29.4922 1.77002 29.4556 2.36816 29.7974 2.83203C31.665 5.3833 32.7515 8.5083 32.7515 11.9019C32.7515 15.2832 31.665 18.4204 29.7974 20.9473C29.4556 21.4355 29.5044 22.0215 29.9438 22.3999C30.4321 22.7905 31.0791 22.7417 31.4575 22.2168C33.5938 19.3237 34.8389 15.7715 34.8389 11.9019Z" fill="#5ac8f5" fill-opacity="0.5"/>
  <path d="M9.52148 11.9019C9.52148 14.1235 10.9253 15.6128 13.0371 15.6128C14.1479 15.6128 15.0757 15.1367 16.1011 14.1724L17.4316 12.9028L18.7622 14.1724C19.812 15.1733 20.7397 15.6128 21.8262 15.6128C23.938 15.6128 25.354 14.1235 25.354 11.9019C25.354 9.68018 23.938 8.17871 21.8262 8.17871C20.7275 8.17871 19.7998 8.63037 18.7622 9.63135L17.4316 10.9009L16.1011 9.63135C15.0879 8.66699 14.1602 8.19092 13.0371 8.17871C10.9253 8.17871 9.52148 9.68018 9.52148 11.9019ZM10.9741 11.9019C10.9741 10.5347 11.792 9.63135 13.0371 9.63135C13.6963 9.63135 14.2822 9.92432 15.0879 10.6812L16.394 11.9019L15.0879 13.1226C14.3066 13.8428 13.7085 14.1724 13.0371 14.1724C11.792 14.1724 10.9741 13.269 10.9741 11.9019ZM18.4692 11.9019L19.7754 10.6812C20.5811 9.92432 21.167 9.63135 21.8262 9.63135C23.0713 9.63135 23.9014 10.5347 23.9014 11.9019C23.9014 13.269 23.0713 14.1724 21.8262 14.1724C21.1426 14.1724 20.5566 13.8428 19.7754 13.1226Z" fill="#5ac8f5"/>
 </g>
</svg>
