<?xml version="1.0" encoding="UTF-8"?>
<!--Generator: Apple Native CoreSVG 175.5-->
<!DOCTYPE svg
PUBLIC "-//W3C//DTD SVG 1.1//EN"
       "http://www.w3.org/Graphics/SVG/1.1/DTD/svg11.dtd">
<svg version="1.1" xmlns="http://www.w3.org/2000/svg" xmlns:xlink="http://www.w3.org/1999/xlink" width="24.4263" height="27.3315">
 <g>
  <rect height="27.3315" opacity="0" width="24.4263" x="0" y="0"/>
  <path d="M10.5469 25.354C14.9536 25.354 18.5425 23.1567 20.166 19.3481C20.3491 18.9209 20.3247 18.5425 20.105 18.3228C19.9341 18.1396 19.5923 18.1152 19.2261 18.2495C18.2129 18.6523 17.0654 18.8477 15.7349 18.8477C10.2051 18.8477 6.64062 15.3809 6.64062 9.96094C6.64062 8.58154 6.89697 7.03125 7.31201 6.18896C7.51953 5.76172 7.51953 5.3833 7.32422 5.16357C7.1167 4.91943 6.73828 4.88281 6.26221 5.06592C2.51465 6.55518 0 10.4858 0 14.9536C0 20.8862 4.38232 25.354 10.5469 25.354ZM19.7266 14.1968C19.9585 14.1968 20.1172 14.0381 20.1416 13.7939C20.5444 10.5347 20.7031 10.4492 24.0112 9.91211C24.2676 9.87549 24.4263 9.74121 24.4263 9.50928C24.4263 9.27734 24.2676 9.13086 24.0601 9.09424C20.7275 8.45947 20.5444 8.47168 20.1416 5.2124C20.1172 4.96826 19.9585 4.80957 19.7266 4.80957C19.5068 4.80957 19.3481 4.96826 19.3115 5.2002C18.8965 8.5083 18.7744 8.61816 15.3931 9.09424C15.1855 9.11865 15.0269 9.27734 15.0269 9.50928C15.0269 9.729 15.1855 9.87549 15.3931 9.91211C18.7744 10.5591 18.8843 10.5591 19.3115 13.8184C19.3481 14.0381 19.5068 14.1968 19.7266 14.1968ZM13.8916 5.93262C14.0381 5.93262 14.1113 5.84717 14.1357 5.71289C14.5142 3.67432 14.502 3.62549 16.626 3.22266C16.7603 3.19824 16.8579 3.11279 16.8579 2.96631C16.8579 2.81982 16.7603 2.73438 16.626 2.70996C14.502 2.28271 14.5752 2.23389 14.1357 0.219727C14.1113 0.0854492 14.0381 0 13.8916 0C13.7451 0 13.6597 0.0854492 13.6353 0.219727C13.208 2.23389 13.2812 2.28271 11.1572 2.70996C11.0107 2.73438 10.9253 2.81982 10.9253 2.96631C10.9253 3.11279 11.0107 3.19824 11.1572 3.22266C13.2812 3.6499 13.2568 3.67432 13.6353 5.71289C13.6597 5.84717 13.7451 5.93262 13.8916 5.93262Z" fill="#5ac8f5"/>
 </g>
</svg>
