<?xml version="1.0" encoding="UTF-8"?>
<!--Generator: Apple Native CoreSVG 175.5-->
<!DOCTYPE svg
PUBLIC "-//W3C//DTD SVG 1.1//EN"
       "http://www.w3.org/Graphics/SVG/1.1/DTD/svg11.dtd">
<svg version="1.1" xmlns="http://www.w3.org/2000/svg" xmlns:xlink="http://www.w3.org/1999/xlink" width="24.9023" height="24.9146">
 <g>
  <rect height="24.9146" opacity="0" width="24.9023" x="0" y="0"/>
  <path d="M12.4512 24.9023C19.2627 24.9023 24.9023 19.2505 24.9023 12.4512C24.9023 5.63965 19.2505 0 12.439 0C5.63965 0 0 5.63965 0 12.4512C0 19.2505 5.65186 24.9023 12.4512 24.9023ZM12.4512 22.8271C6.68945 22.8271 2.0874 18.2129 2.0874 12.4512C2.0874 6.68945 6.67725 2.0752 12.439 2.0752C18.2007 2.0752 22.8271 6.68945 22.8271 12.4512C22.8271 18.2129 18.2129 22.8271 12.4512 22.8271ZM9.77783 20.1538L15.1123 20.1538C16.3086 20.1538 17.1143 19.3848 17.1143 18.2251L17.1143 6.66504C17.1143 5.50537 16.3086 4.74854 15.1123 4.74854L9.77783 4.74854C8.59375 4.74854 7.78809 5.50537 7.78809 6.66504L7.78809 18.2251C7.78809 19.3848 8.59375 20.1538 9.77783 20.1538ZM9.93652 18.9575C9.31396 18.9575 8.97217 18.6401 8.97217 18.0542L8.97217 6.83594C8.97217 6.25 9.31396 5.93262 9.93652 5.93262L14.9658 5.93262C15.5884 5.93262 15.9302 6.25 15.9302 6.83594L15.9302 18.0542C15.9302 18.6401 15.5884 18.9575 14.9658 18.9575ZM10.9253 18.4326L13.9771 18.4326C14.1846 18.4326 14.3311 18.2983 14.3311 18.0908C14.3311 17.8711 14.1846 17.7246 13.9771 17.7246L10.9253 17.7246C10.7178 17.7246 10.5713 17.8711 10.5713 18.0908C10.5713 18.2983 10.7178 18.4326 10.9253 18.4326ZM11.5601 7.56836L13.3301 7.56836C13.623 7.56836 13.855 7.33643 13.855 7.04346C13.855 6.7627 13.623 6.53076 13.3301 6.53076L11.5601 6.53076C11.2671 6.53076 11.0352 6.7627 11.0352 7.04346C11.0352 7.33643 11.2671 7.56836 11.5601 7.56836Z" fill="#5ac8f5"/>
 </g>
</svg>
