<?xml version="1.0" encoding="UTF-8"?>
<!--Generator: Apple Native CoreSVG 175.5-->
<!DOCTYPE svg
PUBLIC "-//W3C//DTD SVG 1.1//EN"
       "http://www.w3.org/Graphics/SVG/1.1/DTD/svg11.dtd">
<svg version="1.1" xmlns="http://www.w3.org/2000/svg" xmlns:xlink="http://www.w3.org/1999/xlink" width="24.8901" height="24.8923">
 <g>
  <rect height="24.8923" opacity="0" width="24.8901" x="0" y="0"/>
  <path d="M12.439 24.8912C19.2505 24.8912 24.8901 19.2394 24.8901 12.44C24.8901 5.62852 19.3237 0.159773 12.7441 0.0010818C12.0361-0.0233323 11.499 0.367293 11.499 0.989851C11.499 1.55137 11.8896 2.02745 12.5977 2.05186C18.3228 2.23497 22.8027 6.67833 22.8149 12.44C22.8271 18.2018 18.2007 22.816 12.439 22.816C6.43311 22.816 2.0752 17.9576 2.0752 12.4034C2.0752 11.6954 1.57471 11.3048 1.01318 11.3048C0.390625 11.3048 0 11.8297 0 12.5499C0.012207 19.2149 5.63965 24.8912 12.439 24.8912ZM11.5479 12.9039C12.1704 12.9039 12.6221 12.44 12.6221 11.8297C12.6221 11.5489 12.5 11.256 12.2803 11.0362L5.9082 4.67637L3.56445 2.58897C4.91943 2.75987 6.62842 2.74766 7.22656 2.74766C7.77588 2.74766 8.21533 2.296 8.21533 1.74669C8.21533 1.19737 7.77588 0.757918 7.22656 0.757918L1.74561 0.757918C0.939941 0.757918 0.500488 1.18516 0.500488 1.99083L0.500488 7.47178C0.500488 8.0211 0.952148 8.46055 1.48926 8.46055C2.02637 8.46055 2.46582 8.0211 2.46582 7.47178C2.46582 6.89805 2.46582 5.067 2.34375 3.80968L4.40674 6.16563L10.7788 12.5499C11.0107 12.7818 11.2671 12.9039 11.5479 12.9039Z" fill="#5ac8f5"/>
 </g>
</svg>
