<?xml version="1.0" encoding="UTF-8"?>
<!--Generator: Apple Native CoreSVG 175.5-->
<!DOCTYPE svg
PUBLIC "-//W3C//DTD SVG 1.1//EN"
       "http://www.w3.org/Graphics/SVG/1.1/DTD/svg11.dtd">
<svg version="1.1" xmlns="http://www.w3.org/2000/svg" xmlns:xlink="http://www.w3.org/1999/xlink" width="24.9023" height="24.9146">
 <g>
  <rect height="24.9146" opacity="0" width="24.9023" x="0" y="0"/>
  <path d="M12.4512 24.9023C19.2627 24.9023 24.9023 19.2505 24.9023 12.4512C24.9023 5.63965 19.2505 0 12.439 0C5.63965 0 0 5.63965 0 12.4512C0 19.2505 5.65186 24.9023 12.4512 24.9023ZM12.4512 22.8271C6.68945 22.8271 2.0874 18.2129 2.0874 12.4512C2.0874 6.68945 6.67725 2.0752 12.439 2.0752C18.2007 2.0752 22.8271 6.68945 22.8271 12.4512C22.8271 18.2129 18.2129 22.8271 12.4512 22.8271ZM6.09131 17.4316L11.145 17.4316C11.5356 17.4316 11.8286 17.1387 11.8286 16.6992C11.8286 16.2476 11.5356 15.9912 11.145 15.9912L7.59277 15.9912L7.59277 15.9058L9.98535 13.1226C10.8887 12.0728 11.5601 11.1938 11.5601 9.97314C11.5601 8.27637 10.3271 7.18994 8.41064 7.18994C6.9458 7.18994 5.66406 8.11768 5.34668 9.36279C5.31006 9.52148 5.28564 9.65576 5.28564 9.80225C5.28564 10.2417 5.54199 10.5347 5.96924 10.5347C6.32324 10.5347 6.50635 10.3271 6.66504 9.96094C6.97021 9.04541 7.59277 8.59375 8.47168 8.59375C9.44824 8.59375 10.083 9.2041 10.083 10.1074C10.083 10.9009 9.44824 11.5845 8.8623 12.2681L5.65186 16.0522C5.45654 16.2598 5.3833 16.4673 5.3833 16.7114C5.3833 17.1509 5.65186 17.4316 6.09131 17.4316ZM16.4307 17.7124C18.8599 17.7124 20.1782 15.7837 20.1782 12.1094C20.1782 8.91113 18.8477 7.18994 16.5649 7.18994C14.5142 7.18994 13.1714 8.56934 13.1714 10.7178C13.1714 12.8174 14.5996 13.9893 16.1987 13.9893C17.5293 13.9893 18.3228 13.269 18.6523 12.439L18.7256 12.439C18.75 14.8682 17.8223 16.3086 16.4062 16.3086C15.7104 16.3086 15.1489 15.9424 14.856 15.4053C14.6606 15.0635 14.4287 14.9292 14.1113 14.9292C13.7329 14.9292 13.4644 15.2222 13.4644 15.6494C13.4644 15.7715 13.501 15.9424 13.5498 16.0889C13.7451 16.7603 14.7461 17.7124 16.4307 17.7124ZM16.6504 12.7319C15.4907 12.7319 14.7217 11.8652 14.7217 10.6445C14.7217 9.36279 15.4785 8.52051 16.6626 8.52051C17.7856 8.52051 18.5913 9.41162 18.5913 10.6689C18.5913 11.8652 17.7979 12.7319 16.6504 12.7319Z" fill="#5ac8f5"/>
 </g>
</svg>
