<?xml version="1.0" encoding="UTF-8"?>
<!--Generator: Apple Native CoreSVG 175.5-->
<!DOCTYPE svg
PUBLIC "-//W3C//DTD SVG 1.1//EN"
       "http://www.w3.org/Graphics/SVG/1.1/DTD/svg11.dtd">
<svg version="1.1" xmlns="http://www.w3.org/2000/svg" xmlns:xlink="http://www.w3.org/1999/xlink" width="22.4731" height="22.4976">
 <g>
  <rect height="22.4976" opacity="0" width="22.4731" x="0" y="0"/>
  <path d="M3.83301 22.4976L18.6401 22.4976C21.2036 22.4976 22.4731 21.228 22.4731 18.7134L22.4731 3.80859C22.4731 1.29395 21.2036 0.0244141 18.6401 0.0244141L3.83301 0.0244141C1.28174 0.0244141 0 1.28174 0 3.80859L0 18.7134C0 21.2402 1.28174 22.4976 3.83301 22.4976ZM6.73828 5.37109C7.09229 5.01709 7.61719 5.0415 7.94678 5.37109L11.0352 8.53271C11.1816 8.6792 11.2915 8.91113 11.2915 9.11865C11.2915 9.59473 10.9497 9.93652 10.4858 9.93652C10.2661 9.93652 10.0586 9.85107 9.91211 9.70459L8.61816 8.34961L8.14209 7.83691L8.17871 8.43506L8.17871 16.5894C8.17871 17.041 7.82471 17.3828 7.33643 17.3828C6.87256 17.3828 6.53076 17.041 6.53076 16.5894L6.53076 8.44727L6.54297 7.83691L6.06689 8.34961L4.77295 9.68018C4.62646 9.83887 4.41895 9.93652 4.21143 9.93652C3.73535 9.93652 3.38135 9.58252 3.38135 9.11865C3.38135 8.93555 3.50342 8.70361 3.6377 8.53271ZM15.7593 17.1387C15.4297 17.4683 14.856 17.4683 14.5386 17.1387L11.4502 13.9893C11.2915 13.8062 11.2061 13.5864 11.2061 13.3911C11.2061 12.915 11.5234 12.5854 11.9995 12.5854C12.2314 12.5854 12.4268 12.6587 12.5854 12.8296L13.8794 14.1479L14.3433 14.6729L14.3188 14.0869L14.3188 5.92041C14.3188 5.45654 14.6729 5.11475 15.1489 5.11475C15.6128 5.11475 15.9668 5.45654 15.9668 5.92041L15.9668 14.0747L15.9424 14.6606L16.4185 14.1479L17.7124 12.8296C17.8589 12.6831 18.0664 12.5854 18.2861 12.5854C18.7744 12.5854 19.104 12.915 19.104 13.3911C19.104 13.5986 18.9819 13.8184 18.8354 13.9893Z" fill="#5ac8f5"/>
 </g>
</svg>
