<?xml version="1.0" encoding="UTF-8"?>
<!--Generator: Apple Native CoreSVG 175.5-->
<!DOCTYPE svg
PUBLIC "-//W3C//DTD SVG 1.1//EN"
       "http://www.w3.org/Graphics/SVG/1.1/DTD/svg11.dtd">
<svg version="1.1" xmlns="http://www.w3.org/2000/svg" xmlns:xlink="http://www.w3.org/1999/xlink" width="13.5498" height="26.6479">
 <g>
  <rect height="26.6479" opacity="0" width="13.5498" x="0" y="0"/>
  <path d="M3.75977 26.6357L9.79004 26.6357C12.2681 26.6357 13.5498 25.3662 13.5498 22.9248L13.5498 3.72314C13.5498 1.28174 12.2681 0 9.79004 0L3.75977 0C1.29395 0 0 1.28174 0 3.72314L0 22.9248C0 25.3662 1.29395 26.6357 3.75977 26.6357ZM3.79639 24.6704C2.64893 24.6704 1.96533 24.0112 1.96533 22.8271L1.96533 3.8208C1.96533 2.62451 2.64893 1.96533 3.79639 1.96533L9.75342 1.96533C10.9009 1.96533 11.5845 2.62451 11.5845 3.8208L11.5845 22.8271C11.5845 24.0112 10.9009 24.6704 9.75342 24.6704ZM6.78711 8.56934C7.78809 8.56934 8.61816 7.75146 8.61816 6.72607C8.61816 5.7251 7.78809 4.90723 6.78711 4.90723C5.77393 4.90723 4.94385 5.7251 4.94385 6.72607C4.94385 7.75146 5.77393 8.56934 6.78711 8.56934ZM6.78711 15.1489C7.78809 15.1489 8.61816 14.3311 8.61816 13.3179C8.61816 12.3169 7.78809 11.4868 6.78711 11.4868C5.77393 11.4868 4.94385 12.3169 4.94385 13.3179C4.94385 14.3311 5.77393 15.1489 6.78711 15.1489ZM6.78711 21.7407C7.78809 21.7407 8.61816 20.9106 8.61816 19.8975C8.61816 18.8965 7.78809 18.0786 6.78711 18.0786C5.77393 18.0786 4.94385 18.8965 4.94385 19.8975C4.94385 20.9106 5.77393 21.7407 6.78711 21.7407Z" fill="#5ac8f5"/>
 </g>
</svg>
