<?xml version="1.0" encoding="UTF-8"?>
<!--Generator: Apple Native CoreSVG 175.5-->
<!DOCTYPE svg
PUBLIC "-//W3C//DTD SVG 1.1//EN"
       "http://www.w3.org/Graphics/SVG/1.1/DTD/svg11.dtd">
<svg version="1.1" xmlns="http://www.w3.org/2000/svg" xmlns:xlink="http://www.w3.org/1999/xlink" width="24.9023" height="24.9146">
 <g>
  <rect height="24.9146" opacity="0" width="24.9023" x="0" y="0"/>
  <path d="M12.4512 24.9023C19.2627 24.9023 24.9023 19.2505 24.9023 12.4512C24.9023 5.63965 19.2505 0 12.439 0C5.63965 0 0 5.63965 0 12.4512C0 19.2505 5.65186 24.9023 12.4512 24.9023ZM12.4512 22.8271C6.68945 22.8271 2.0874 18.2129 2.0874 12.4512C2.0874 6.68945 6.67725 2.0752 12.439 2.0752C18.2007 2.0752 22.8271 6.68945 22.8271 12.4512C22.8271 18.2129 18.2129 22.8271 12.4512 22.8271ZM12.4512 18.1641C13.147 18.1641 13.5864 17.7979 13.8916 17.0044L17.2974 8.08105C17.3706 7.88574 17.395 7.75146 17.395 7.56836C17.395 7.01904 16.98 6.64062 16.4062 6.64062C15.8691 6.64062 15.5762 6.89697 15.3687 7.4707L12.4756 15.8325L12.3901 15.8325L9.49707 7.4707C9.30176 6.89697 8.99658 6.64062 8.45947 6.64062C7.88574 6.64062 7.4707 7.03125 7.4707 7.56836C7.4707 7.75146 7.50732 7.88574 7.56836 8.08105L10.9985 17.0166C11.3159 17.8467 11.7065 18.1641 12.4512 18.1641Z" fill="#5ac8f5"/>
 </g>
</svg>
