<?xml version="1.0" encoding="UTF-8"?>
<!--Generator: Apple Native CoreSVG 175.5-->
<!DOCTYPE svg
PUBLIC "-//W3C//DTD SVG 1.1//EN"
       "http://www.w3.org/Graphics/SVG/1.1/DTD/svg11.dtd">
<svg version="1.1" xmlns="http://www.w3.org/2000/svg" xmlns:xlink="http://www.w3.org/1999/xlink" width="23.4131" height="25.8179">
 <g>
  <rect height="25.8179" opacity="0" width="23.4131" x="0" y="0"/>
  <path d="M8.38623 25.8057L10.73 25.8057C15.8936 25.8057 19.1162 23.0957 19.1162 18.75L19.1162 3.38135C19.1162 1.19629 15.0391 0 9.55811 0C4.07715 0 0 1.19629 0 3.38135L0 18.75C0 23.0957 3.23486 25.8057 8.38623 25.8057ZM8.38623 23.9624C4.35791 23.9624 1.84326 21.9604 1.84326 18.75L1.84326 4.79736C3.52783 5.48096 6.34766 5.77393 9.55811 5.77393C12.7686 5.77393 15.5884 5.48096 17.2729 4.79736L17.2729 18.75C17.2729 21.9604 14.7583 23.9624 10.73 23.9624ZM9.55811 4.05273C5.28564 4.05273 2.33154 3.58887 2.33154 2.89307C2.33154 2.19727 5.28564 1.72119 9.55811 1.72119C13.8306 1.72119 16.7847 2.19727 16.7847 2.89307C16.7847 3.58887 13.8306 4.05273 9.55811 4.05273ZM17.8223 18.5303L19.8486 18.5303C22.0215 18.5303 23.4131 17.0654 23.4131 14.8804L23.4131 9.99756C23.4131 7.80029 22.0215 6.34766 19.8486 6.34766L17.8223 6.34766L17.8223 8.19092L19.8486 8.19092C21.0815 8.19092 21.5698 8.69141 21.5698 9.99756L21.5698 14.8804C21.5698 16.1743 21.0815 16.687 19.8486 16.687L17.8223 16.687Z" fill="#5ac8f5"/>
 </g>
</svg>
