<?xml version="1.0" encoding="UTF-8"?>
<!--Generator: Apple Native CoreSVG 175.5-->
<!DOCTYPE svg
PUBLIC "-//W3C//DTD SVG 1.1//EN"
       "http://www.w3.org/Graphics/SVG/1.1/DTD/svg11.dtd">
<svg version="1.1" xmlns="http://www.w3.org/2000/svg" xmlns:xlink="http://www.w3.org/1999/xlink" width="27.6842" height="27.701">
 <g>
  <rect height="27.701" opacity="0" width="27.6842" x="0" y="0"/>
  <path d="M1.36881 16.5422L11.1466 26.32C12.9533 28.1266 14.7355 28.1388 16.5299 26.3566L26.3566 16.5177C28.1388 14.7355 28.1266 12.9411 26.32 11.1344L16.5544 1.36881C14.7477-0.43783 12.9655-0.462244 11.1711 1.33219L1.33219 11.1588C-0.462244 12.9533-0.43783 14.7355 1.36881 16.5422ZM2.78483 15.1872C1.91813 14.3083 1.89371 13.3927 2.79703 12.4894L12.4894 2.79703C13.3927 1.89371 14.3083 1.90592 15.1872 2.78483L24.904 12.5016C25.7707 13.3683 25.7951 14.2961 24.8918 15.1994L15.1994 24.8918C14.2961 25.7951 13.3561 25.7707 12.5016 24.9162ZM8.54654 17.6896C8.54654 18.3854 8.88834 18.8005 9.52311 18.7882C10.1457 18.776 10.4997 18.3854 10.4997 17.6896L10.4997 14.2961C10.4997 13.1852 11.0246 12.6725 12.0744 12.6725L15.2604 12.6725L15.2604 14.589C15.2604 15.3825 16.1515 15.7487 16.8229 15.175L19.7404 12.6481C20.4728 12.0133 20.4728 11.3664 19.7404 10.7316L16.8229 8.21695C16.1515 7.63102 15.2604 8.00944 15.2604 8.79069L15.2604 10.7072L12.05 10.7072C9.66959 10.7072 8.54654 11.8424 8.54654 14.1984Z" fill="#5ac8f5"/>
 </g>
</svg>
