<?xml version="1.0" encoding="UTF-8"?>
<!--Generator: Apple Native CoreSVG 175.5-->
<!DOCTYPE svg
PUBLIC "-//W3C//DTD SVG 1.1//EN"
       "http://www.w3.org/Graphics/SVG/1.1/DTD/svg11.dtd">
<svg version="1.1" xmlns="http://www.w3.org/2000/svg" xmlns:xlink="http://www.w3.org/1999/xlink" width="24.4019" height="22.4976">
 <g>
  <rect height="22.4976" opacity="0" width="24.4019" x="0" y="0"/>
  <path d="M5.50537 22.4976L18.8965 22.4976C21.3013 22.4976 22.583 21.2524 22.583 18.8599L22.583 7.17773L1.81885 7.17773L1.81885 18.8599C1.81885 21.2646 3.10059 22.4976 5.50537 22.4976ZM8.17871 11.5845C7.66602 11.5845 7.31201 11.2305 7.31201 10.6934L7.31201 10.3149C7.31201 9.77783 7.66602 9.43604 8.17871 9.43604L16.2354 9.43604C16.748 9.43604 17.1143 9.77783 17.1143 10.3149L17.1143 10.6934C17.1143 11.2305 16.748 11.5845 16.2354 11.5845ZM2.0752 5.50537L22.3267 5.50537C23.7061 5.50537 24.4019 4.6875 24.4019 3.32031L24.4019 2.20947C24.4019 0.842285 23.7061 0.0244141 22.3267 0.0244141L2.0752 0.0244141C0.769043 0.0244141 0 0.842285 0 2.20947L0 3.32031C0 4.6875 0.695801 5.50537 2.0752 5.50537Z" fill="#5ac8f5"/>
 </g>
</svg>
