<?xml version="1.0" encoding="UTF-8"?>
<!--Generator: Apple Native CoreSVG 175.5-->
<!DOCTYPE svg
PUBLIC "-//W3C//DTD SVG 1.1//EN"
       "http://www.w3.org/Graphics/SVG/1.1/DTD/svg11.dtd">
<svg version="1.1" xmlns="http://www.w3.org/2000/svg" xmlns:xlink="http://www.w3.org/1999/xlink" width="24.9023" height="24.9146">
 <g>
  <rect height="24.9146" opacity="0" width="24.9023" x="0" y="0"/>
  <path d="M12.4512 24.9023C19.2627 24.9023 24.9023 19.2505 24.9023 12.4512C24.9023 5.63965 19.2505 0 12.439 0C5.63965 0 0 5.63965 0 12.4512C0 19.2505 5.65186 24.9023 12.4512 24.9023ZM12.4512 22.8271C6.68945 22.8271 2.0874 18.2129 2.0874 12.4512C2.0874 6.68945 6.67725 2.0752 12.439 2.0752C18.2007 2.0752 22.8271 6.68945 22.8271 12.4512C22.8271 18.2129 18.2129 22.8271 12.4512 22.8271Z" fill="#5ac8f5" fill-opacity="0.5"/>
  <path d="M9.14307 17.5659C9.61914 17.5659 9.92432 17.2607 9.92432 16.7847L9.92432 8.14209C9.92432 7.62939 9.57031 7.26318 9.05762 7.26318C8.66699 7.26318 8.42285 7.38525 7.99561 7.67822L6.14014 8.94775C5.88379 9.13086 5.7251 9.35059 5.7251 9.66797C5.7251 10.083 6.06689 10.4004 6.4209 10.4004C6.61621 10.4004 6.73828 10.3882 7.01904 10.1685L8.3252 9.2041L8.39844 9.2041L8.39844 16.7847C8.39844 17.2607 8.69141 17.5659 9.14307 17.5659ZM15.6128 17.7124C17.7124 17.7124 19.104 15.6982 19.104 12.4512C19.104 9.2041 17.7124 7.18994 15.6128 7.18994C13.5132 7.18994 12.1216 9.2041 12.1216 12.4512C12.1216 15.6982 13.5132 17.7124 15.6128 17.7124ZM15.6128 16.2354C14.4531 16.2354 13.7207 14.7949 13.7207 12.4512C13.7207 10.1074 14.4531 8.66699 15.6128 8.66699C16.7725 8.66699 17.5049 10.1074 17.5049 12.4512C17.5049 14.7949 16.7847 16.2354 15.6128 16.2354Z" fill="#5ac8f5"/>
 </g>
</svg>
