<?xml version="1.0" encoding="UTF-8"?>
<!--Generator: Apple Native CoreSVG 175.5-->
<!DOCTYPE svg
PUBLIC "-//W3C//DTD SVG 1.1//EN"
       "http://www.w3.org/Graphics/SVG/1.1/DTD/svg11.dtd">
<svg version="1.1" xmlns="http://www.w3.org/2000/svg" xmlns:xlink="http://www.w3.org/1999/xlink" width="43.5425" height="25.2319">
 <g>
  <rect height="25.2319" opacity="0" width="43.5425" x="0" y="0"/>
  <path d="M4.71191 20.9595C5.10254 20.52 4.98047 19.9463 4.54102 19.4458C2.90527 17.627 1.98975 15.2344 1.98975 12.6099C1.98975 9.98535 2.90527 7.59277 4.54102 5.77393C4.98047 5.27344 5.10254 4.69971 4.71191 4.26025C4.32129 3.79639 3.6377 3.80859 3.17383 4.32129C1.14746 6.51855 0 9.44824 0 12.6099C0 15.7715 1.14746 18.689 3.17383 20.8984C3.6377 21.4111 4.32129 21.4111 4.71191 20.9595ZM8.12988 17.4805C8.52051 17.041 8.36182 16.4917 7.97119 15.9668C7.23877 15.0513 6.88477 13.8794 6.88477 12.6099C6.88477 11.3403 7.23877 10.1562 7.97119 9.25293C8.36182 8.72803 8.52051 8.17871 8.12988 7.73926C7.72705 7.27539 6.99463 7.27539 6.56738 7.82471C5.50537 9.14307 4.89502 10.8154 4.89502 12.6099C4.89502 14.4043 5.50537 16.0767 6.56738 17.395C6.99463 17.9443 7.72705 17.9321 8.12988 17.4805ZM38.8306 20.9595C39.2212 21.4111 39.9048 21.4111 40.3687 20.8984C42.395 18.689 43.5425 15.7715 43.5425 12.6099C43.5425 9.44824 42.395 6.51855 40.3687 4.32129C39.9048 3.80859 39.2212 3.79639 38.8306 4.26025C38.4399 4.69971 38.562 5.27344 39.0015 5.77393C40.6372 7.59277 41.5527 9.98535 41.5527 12.6099C41.5527 15.2344 40.6372 17.627 39.0015 19.4458C38.562 19.9463 38.4399 20.52 38.8306 20.9595ZM35.4004 17.4805C35.8154 17.9321 36.5356 17.9443 36.9751 17.395C38.0371 16.0767 38.6475 14.4043 38.6475 12.6099C38.6475 10.8154 38.0371 9.14307 36.9751 7.82471C36.5356 7.27539 35.8154 7.27539 35.4004 7.73926C35.022 8.17871 35.1807 8.72803 35.5713 9.25293C36.2915 10.1562 36.6577 11.3403 36.6577 12.6099C36.6577 13.8794 36.2915 15.0513 35.5713 15.9668C35.1807 16.4917 35.022 17.041 35.4004 17.4805ZM10.2539 19.3237C10.2539 20.2148 10.9375 20.8008 12.0972 20.8008L17.2485 20.8008C17.3462 23.1567 19.1895 25.2197 21.7651 25.2197C24.353 25.2197 26.1963 23.1689 26.2939 20.8008L31.4453 20.8008C32.5928 20.8008 33.2886 20.2148 33.2886 19.3237C33.2886 18.103 32.0435 17.0044 30.9937 15.918C30.188 15.0757 29.9683 13.3423 29.8706 11.9385C29.7852 7.12891 28.54 4.02832 25.293 2.85645C24.8779 1.25732 23.5718 0 21.7651 0C19.9707 0 18.6523 1.25732 18.2495 2.85645C15.0024 4.02832 13.7573 7.12891 13.6719 11.9385C13.5742 13.3423 13.3545 15.0757 12.5488 15.918C11.4868 17.0044 10.2539 18.103 10.2539 19.3237ZM12.6221 18.9575L12.6221 18.811C12.8418 18.457 13.5742 17.7368 14.209 17.0288C15.0879 16.0522 15.5029 14.4775 15.6128 12.0972C15.7104 6.7627 17.2974 5.06592 19.3848 4.49219C19.6899 4.41895 19.8608 4.27246 19.873 3.95508C19.9097 2.68555 20.6421 1.79443 21.7651 1.79443C22.9004 1.79443 23.6206 2.68555 23.6694 3.95508C23.6816 4.27246 23.8403 4.41895 24.1577 4.49219C26.2451 5.06592 27.832 6.7627 27.9297 12.0972C28.0396 14.4775 28.4546 16.0522 29.3213 17.0288C29.9683 17.7368 30.6885 18.457 30.9082 18.811L30.9082 18.9575ZM19.1528 20.8008L24.3896 20.8008C24.3042 22.4609 23.2422 23.4985 21.7651 23.4985C20.3003 23.4985 19.2383 22.4609 19.1528 20.8008Z" fill="#5ac8f5"/>
 </g>
</svg>
