<?xml version="1.0" encoding="UTF-8"?>
<!--Generator: Apple Native CoreSVG 175.5-->
<!DOCTYPE svg
PUBLIC "-//W3C//DTD SVG 1.1//EN"
       "http://www.w3.org/Graphics/SVG/1.1/DTD/svg11.dtd">
<svg version="1.1" xmlns="http://www.w3.org/2000/svg" xmlns:xlink="http://www.w3.org/1999/xlink" width="29.9805" height="24.0601">
 <g>
  <rect height="24.0601" opacity="0" width="29.9805" x="0" y="0"/>
  <path d="M3.83301 23.2788L26.1475 23.2788C28.6865 23.2788 29.9805 22.0093 29.9805 19.4946L29.9805 6.71387C29.9805 4.19922 28.6865 2.94189 26.1475 2.94189L22.6562 2.94189C21.6919 2.94189 21.3989 2.74658 20.8496 2.13623L19.873 1.0376C19.2627 0.366211 18.6401 0 17.3828 0L12.5122 0C11.2549 0 10.6323 0.366211 10.022 1.0376L9.04541 2.13623C8.49609 2.73438 8.19092 2.94189 7.23877 2.94189L3.83301 2.94189C1.28174 2.94189 0 4.19922 0 6.71387L0 19.4946C0 22.0093 1.28174 23.2788 3.83301 23.2788ZM14.9902 19.6777C11.2915 19.6777 8.3252 16.7236 8.3252 13.0005C8.3252 9.28955 11.2915 6.33545 14.9902 6.33545C18.689 6.33545 21.6431 9.28955 21.6431 13.0005C21.6431 16.7236 18.6768 19.6777 14.9902 19.6777ZM14.9902 17.8223C17.6514 17.8223 19.7998 15.686 19.7998 13.0005C19.7998 10.3271 17.6514 8.17871 14.9902 8.17871C12.3291 8.17871 10.1685 10.3271 10.1685 13.0005C10.1685 15.686 12.3413 17.8223 14.9902 17.8223ZM22.4609 8.5083C22.4609 7.67822 23.1934 6.9458 24.0479 6.9458C24.8901 6.9458 25.6104 7.67822 25.6104 8.5083C25.6104 9.375 24.8901 10.0708 24.0479 10.083C23.1934 10.083 22.4609 9.38721 22.4609 8.5083Z" fill="#5ac8f5"/>
 </g>
</svg>
