<?xml version="1.0" encoding="UTF-8"?>
<!--Generator: Apple Native CoreSVG 175.5-->
<!DOCTYPE svg
PUBLIC "-//W3C//DTD SVG 1.1//EN"
       "http://www.w3.org/Graphics/SVG/1.1/DTD/svg11.dtd">
<svg version="1.1" xmlns="http://www.w3.org/2000/svg" xmlns:xlink="http://www.w3.org/1999/xlink" width="24.9023" height="24.9146">
 <g>
  <rect height="24.9146" opacity="0" width="24.9023" x="0" y="0"/>
  <path d="M12.4512 24.9146C19.2627 24.9146 24.9023 19.2749 24.9023 12.4634C24.9023 5.66406 19.2505 0.012207 12.439 0.012207C5.63965 0.012207 0 5.66406 0 12.4634C0 19.2749 5.65186 24.9146 12.4512 24.9146ZM7.31201 17.1143L7.31201 13.0737L11.9385 13.0737L11.9385 18.7134L8.97217 18.7134C7.93457 18.7134 7.31201 18.1641 7.31201 17.1143ZM12.9639 18.7134L12.9639 13.0737L17.5903 13.0737L17.5903 17.1143C17.5903 18.1641 16.9678 18.7134 15.9302 18.7134ZM6.4209 11.4624L6.4209 9.94873C6.4209 9.28955 6.82373 9.00879 7.48291 9.00879L8.93555 9.00879C8.56934 8.66699 8.36182 8.17871 8.36182 7.6416C8.36182 6.4209 9.31396 5.5542 10.5225 5.5542C11.4014 5.5542 12.1216 6.04248 12.4512 6.89697C12.7808 6.04248 13.5132 5.5542 14.3921 5.5542C15.5884 5.5542 16.5405 6.4209 16.5405 7.6416C16.5405 8.17871 16.3452 8.66699 15.9668 9.00879L17.4316 9.00879C18.1152 9.00879 18.4814 9.28955 18.4814 9.94873L18.4814 11.4624C18.4814 12.146 18.1152 12.4023 17.4316 12.4023L12.9639 12.4023L12.9639 9.00879L13.9404 9.00879C14.9292 9.00879 15.5151 8.39844 15.5151 7.69043C15.5151 7.00684 15.0146 6.5918 14.3311 6.5918C13.562 6.5918 12.9639 7.17773 12.9639 8.10547L12.9639 9.00879L11.9385 9.00879L11.9385 8.10547C11.9385 7.17773 11.3403 6.5918 10.5835 6.5918C9.8999 6.5918 9.38721 7.00684 9.38721 7.69043C9.38721 8.39844 9.97314 9.00879 10.9619 9.00879L11.9385 9.00879L11.9385 12.4023L7.48291 12.4023C6.79932 12.4023 6.4209 12.146 6.4209 11.4624Z" fill="#5ac8f5"/>
 </g>
</svg>
