<?xml version="1.0" encoding="UTF-8"?>
<!--Generator: Apple Native CoreSVG 175.5-->
<!DOCTYPE svg
PUBLIC "-//W3C//DTD SVG 1.1//EN"
       "http://www.w3.org/Graphics/SVG/1.1/DTD/svg11.dtd">
<svg version="1.1" xmlns="http://www.w3.org/2000/svg" xmlns:xlink="http://www.w3.org/1999/xlink" width="24.9023" height="24.9146">
 <g>
  <rect height="24.9146" opacity="0" width="24.9023" x="0" y="0"/>
  <path d="M12.4512 24.9023C19.2627 24.9023 24.9023 19.2505 24.9023 12.4512C24.9023 5.63965 19.2505 0 12.439 0C5.63965 0 0 5.63965 0 12.4512C0 19.2505 5.65186 24.9023 12.4512 24.9023Z" fill="#5ac8f5" fill-opacity="0.25"/>
  <path d="M5.79834 9.04541C5.79834 8.8623 5.896 8.6792 6.14014 8.54492L11.6455 5.3833C11.9141 5.22461 12.1582 5.15137 12.439 5.15137C12.7197 5.15137 12.9761 5.22461 13.2446 5.3833L18.7378 8.54492C18.9941 8.6792 19.0918 8.8623 19.0918 9.04541C19.0918 9.32617 18.8843 9.59473 18.5303 9.59473L6.35986 9.59473C6.00586 9.59473 5.79834 9.32617 5.79834 9.04541ZM6.62842 16.333L6.62842 16.1743C6.62842 15.9302 6.78711 15.7471 7.06787 15.7471L7.38525 15.7471L7.38525 11.3647L7.06787 11.3647C6.78711 11.3647 6.62842 11.2183 6.62842 10.9497L6.62842 10.791C6.62842 10.5225 6.78711 10.3638 7.06787 10.3638L8.71582 10.3638C8.98438 10.3638 9.14307 10.5225 9.14307 10.791L9.14307 10.9497C9.14307 11.2183 8.98438 11.3647 8.71582 11.3647L8.39844 11.3647L8.39844 15.7471L8.71582 15.7471C8.98438 15.7471 9.14307 15.9302 9.14307 16.1743L9.14307 16.333C9.14307 16.6016 8.98438 16.7603 8.71582 16.7603L7.06787 16.7603C6.78711 16.7603 6.62842 16.6016 6.62842 16.333ZM9.69238 16.333L9.69238 16.1743C9.69238 15.9302 9.85107 15.7471 10.1074 15.7471L10.437 15.7471L10.437 11.3647L10.1074 11.3647C9.85107 11.3647 9.69238 11.2183 9.69238 10.9497L9.69238 10.791C9.69238 10.5225 9.85107 10.3638 10.1074 10.3638L11.7676 10.3638C12.0361 10.3638 12.2192 10.5225 12.2192 10.791L12.2192 10.9497C12.2192 11.2183 12.0483 11.3647 11.7676 11.3647L11.4624 11.3647L11.4624 15.7471L11.7676 15.7471C12.0361 15.7471 12.2192 15.9302 12.2192 16.1743L12.2192 16.333C12.2192 16.6016 12.0483 16.7603 11.7676 16.7603L10.1074 16.7603C9.85107 16.7603 9.69238 16.6016 9.69238 16.333ZM12.7563 16.333L12.7563 16.1743C12.7563 15.9302 12.915 15.7471 13.1958 15.7471L13.501 15.7471L13.501 11.3647L13.1958 11.3647C12.915 11.3647 12.7563 11.2183 12.7563 10.9497L12.7563 10.791C12.7563 10.5225 12.915 10.3638 13.1958 10.3638L14.8438 10.3638C15.0879 10.3638 15.2832 10.5225 15.2832 10.791L15.2832 10.9497C15.2832 11.2183 15.0879 11.3647 14.8438 11.3647L14.5142 11.3647L14.5142 15.7471L14.8438 15.7471C15.0879 15.7471 15.2832 15.9302 15.2832 16.1743L15.2832 16.333C15.2832 16.6016 15.0879 16.7603 14.8438 16.7603L13.1958 16.7603C12.915 16.7603 12.7563 16.6016 12.7563 16.333ZM15.8081 16.333L15.8081 16.1743C15.8081 15.9302 15.9668 15.7471 16.2476 15.7471L16.5771 15.7471L16.5771 11.3647L16.2476 11.3647C15.9668 11.3647 15.8081 11.2183 15.8081 10.9497L15.8081 10.791C15.8081 10.5225 15.9668 10.3638 16.2476 10.3638L17.8955 10.3638C18.1519 10.3638 18.335 10.5225 18.335 10.791L18.335 10.9497C18.335 11.2183 18.1641 11.3647 17.8955 11.3647L17.5903 11.3647L17.5903 15.7471L17.8955 15.7471C18.1519 15.7471 18.335 15.9302 18.335 16.1743L18.335 16.333C18.335 16.6016 18.1641 16.7603 17.8955 16.7603L16.2476 16.7603C15.9668 16.7603 15.8081 16.6016 15.8081 16.333ZM5.51758 18.0786C5.51758 17.7734 5.76172 17.5293 6.04248 17.5293L18.8477 17.5293C19.1406 17.5293 19.3726 17.7734 19.3726 18.0786C19.3726 18.3716 19.1284 18.6035 18.8477 18.6035L6.04248 18.6035C5.76172 18.6035 5.51758 18.3716 5.51758 18.0786Z" fill="#5ac8f5"/>
 </g>
</svg>
