<?xml version="1.0" encoding="UTF-8"?>
<!--Generator: Apple Native CoreSVG 175.5-->
<!DOCTYPE svg
PUBLIC "-//W3C//DTD SVG 1.1//EN"
       "http://www.w3.org/Graphics/SVG/1.1/DTD/svg11.dtd">
<svg version="1.1" xmlns="http://www.w3.org/2000/svg" xmlns:xlink="http://www.w3.org/1999/xlink" width="17.6228" height="29.0275">
 <g>
  <rect height="29.0275" opacity="0" width="17.6228" x="0" y="0"/>
  <path d="M13.2812 14.5199C13.2812 17.0345 14.1479 19.3783 15.686 21.1971C16.687 22.3812 18.1641 21.0384 17.4194 20.0741C15.9424 18.2186 15.3687 16.6683 15.3687 14.5199C15.3687 12.3714 15.9424 10.8211 17.4194 8.96565C18.1641 7.98909 16.6992 6.63411 15.686 7.8304C14.1479 9.66146 13.2812 12.0052 13.2812 14.5199ZM6.65283 14.5199C6.65283 18.3529 7.86133 21.9417 10.0342 24.8592C10.9985 26.1776 12.7075 24.9202 11.7798 23.724C9.80225 21.1117 8.74023 17.9256 8.74023 14.5199C8.74023 11.1141 9.80225 7.92806 11.7798 5.31575C12.7075 4.11946 10.9985 2.86214 10.0342 4.16829C7.86133 7.08577 6.65283 10.6868 6.65283 14.5199ZM0 14.5199C0 19.6712 1.61133 24.4808 4.46777 28.4725C5.39551 29.742 7.12891 28.6068 6.20117 27.3372C3.52783 23.6629 2.09961 19.244 2.09961 14.5199C2.09961 9.79573 3.52783 5.36458 6.20117 1.69026C7.15332 0.408525 5.34668-0.665693 4.46777 0.567217C1.61133 4.54671 0 9.35628 0 14.5199Z" fill="#5ac8f5"/>
 </g>
</svg>
