<?xml version="1.0" encoding="UTF-8"?>
<!--Generator: Apple Native CoreSVG 175.5-->
<!DOCTYPE svg
PUBLIC "-//W3C//DTD SVG 1.1//EN"
       "http://www.w3.org/Graphics/SVG/1.1/DTD/svg11.dtd">
<svg version="1.1" xmlns="http://www.w3.org/2000/svg" xmlns:xlink="http://www.w3.org/1999/xlink" width="34.1156" height="30.9937">
 <g>
  <rect height="30.9937" opacity="0" width="34.1156" x="0" y="0"/>
  <path d="M18.6249 0C11.8011 0 6.00281 4.41895 3.93982 10.5469C4.64783 10.4492 5.33142 10.6323 5.85632 11.0596C7.68738 5.76172 12.7045 1.96533 18.6249 1.96533C26.0956 1.96533 32.1503 8.02002 32.1503 15.4907C32.1503 22.9614 26.0956 29.0161 18.6249 29.0161C12.7167 29.0161 7.69958 25.2319 5.85632 19.9463C5.34363 20.3613 4.66003 20.5566 3.95203 20.459C6.02722 26.5747 11.8134 30.9814 18.6249 30.9814C27.182 30.9814 34.1156 24.0479 34.1156 15.4907C34.1156 6.93359 27.182 0 18.6249 0Z" fill="#5ac8f5" fill-opacity="0.5"/>
  <path d="M18.6249 26.2085C24.5453 26.2085 29.3549 21.4111 29.3549 15.4907C29.3549 9.57031 24.5453 4.76074 18.6249 4.76074C12.7045 4.76074 7.8949 9.57031 7.8949 15.4907C7.8949 21.4111 12.7045 26.2085 18.6249 26.2085ZM3.61023 12.4146L0.338745 14.856C-0.112915 15.1855-0.112915 15.8081 0.338745 16.1377L3.61023 18.5791C4.2572 19.0674 5.09949 18.811 5.09949 17.9443L5.09949 13.0493C5.09949 12.207 4.28162 11.9019 3.61023 12.4146ZM16.4032 20.8374C15.7806 20.8374 15.451 20.3857 15.451 19.7388L15.451 10.8643C15.451 10.2173 15.7806 9.77783 16.4032 9.77783C17.0258 9.77783 17.3676 10.2051 17.3676 10.8643L17.3676 19.2505L21.9086 19.2505C22.3724 19.2505 22.7142 19.5435 22.7142 20.0317C22.7142 20.5322 22.3724 20.8374 21.9086 20.8374Z" fill="#5ac8f5"/>
 </g>
</svg>
