<?xml version="1.0" encoding="UTF-8"?>
<!--Generator: Apple Native CoreSVG 175.5-->
<!DOCTYPE svg
PUBLIC "-//W3C//DTD SVG 1.1//EN"
       "http://www.w3.org/Graphics/SVG/1.1/DTD/svg11.dtd">
<svg version="1.1" xmlns="http://www.w3.org/2000/svg" xmlns:xlink="http://www.w3.org/1999/xlink" width="33.3569" height="20.813">
 <g>
  <rect height="20.813" opacity="0" width="33.3569" x="0" y="0"/>
  <path d="M2.67334 15.1978C4.13818 15.1978 5.33447 14.0137 5.33447 12.5366C5.33447 11.0596 4.13818 9.86328 2.67334 9.86328C1.19629 9.86328 0 11.0596 0 12.5366C0 14.0137 1.19629 15.1978 2.67334 15.1978ZM5.57861 16.0522C5.10254 17.2729 5.56641 18.5303 6.57959 19.2383C8.22754 20.3857 9.76562 20.813 12.2192 20.813L16.1133 20.813C19.1162 20.813 19.9219 18.457 18.8965 16.4795L15.7593 10.4248L15.7593 1.26953C15.7593 0.549316 15.1978 0 14.4653 0C13.7573 0 13.2202 0.549316 13.2202 1.26953L13.2202 10.73C13.2202 10.9009 13.2324 11.0352 13.269 11.1572L15.0391 16.2231L12.7441 16.2231C11.2671 16.2231 10.4126 15.8081 9.25293 15.1123C8.94775 14.9292 8.8623 14.6484 8.99658 14.2944L11.8408 7.01904C12.0972 6.37207 11.7676 5.61523 11.1084 5.37109C10.4248 5.11475 9.7168 5.43213 9.46045 6.10352ZM20.5688 18.8354L25.0854 17.3584L32.2998 16.0522C32.9956 15.9302 33.4595 15.2954 33.3374 14.5752C33.2031 13.8794 32.5439 13.4277 31.8481 13.5498L24.3042 14.917L19.9463 15.7104L20.0439 15.8813C20.6299 16.8579 20.7275 17.9321 20.5688 18.8354Z" fill="#5ac8f5"/>
 </g>
</svg>
