<?xml version="1.0" encoding="UTF-8"?>
<!--Generator: Apple Native CoreSVG 175.5-->
<!DOCTYPE svg
PUBLIC "-//W3C//DTD SVG 1.1//EN"
       "http://www.w3.org/Graphics/SVG/1.1/DTD/svg11.dtd">
<svg version="1.1" xmlns="http://www.w3.org/2000/svg" xmlns:xlink="http://www.w3.org/1999/xlink" width="35.3516" height="23.5474">
 <g>
  <rect height="23.5474" opacity="0" width="35.3516" x="0" y="0"/>
  <path d="M0 11.7554C0 14.2456 1.75781 15.6128 3.73535 15.6128C4.56543 15.6128 5.18799 15.3809 5.93262 14.917C6.62842 14.4897 7.12891 14.7461 7.12891 15.3442L7.12891 19.8608C7.12891 22.2656 8.39844 23.4985 10.8276 23.4985L14.0869 23.4985C14.6729 23.4985 14.9292 23.0103 14.5142 22.3145C14.0381 21.5698 13.8062 20.9473 13.8062 20.1172C13.8062 18.1396 15.1855 16.3818 17.6758 16.3818C20.166 16.3818 21.5332 18.1396 21.5332 20.1172C21.5332 20.9473 21.3013 21.5698 20.8374 22.3145C20.4224 23.0103 20.6665 23.4985 21.2646 23.4985L24.5239 23.4985C26.9531 23.4985 28.2227 22.2656 28.2227 19.8608L28.2227 15.3442C28.2227 14.7461 28.7231 14.4897 29.4067 14.917C30.1636 15.3809 30.7861 15.6128 31.604 15.6128C33.5938 15.6128 35.3516 14.2456 35.3516 11.7554C35.3516 9.25293 33.5938 7.88574 31.604 7.88574C30.7861 7.88574 30.1636 8.11768 29.4067 8.58154C28.7231 9.00879 28.2227 8.75244 28.2227 8.1543L28.2227 3.6377C28.2227 1.24512 26.9531 0 24.5239 0L21.2646 0C20.6665 0 20.4224 0.500488 20.8374 1.19629C21.3013 1.94092 21.5332 2.56348 21.5332 3.39355C21.5332 5.37109 20.166 7.12891 17.6758 7.12891C15.1855 7.12891 13.8062 5.37109 13.8062 3.39355C13.8062 2.56348 14.0381 1.94092 14.5142 1.19629C14.9292 0.500488 14.6729 0 14.0869 0L10.8276 0C8.39844 0 7.12891 1.24512 7.12891 3.6377L7.12891 8.1543C7.12891 8.75244 6.62842 9.00879 5.93262 8.58154C5.18799 8.11768 4.56543 7.88574 3.73535 7.88574C1.75781 7.88574 0 9.25293 0 11.7554Z" fill="#5ac8f5"/>
 </g>
</svg>
