<?xml version="1.0" encoding="UTF-8"?>
<!--Generator: Apple Native CoreSVG 175.5-->
<!DOCTYPE svg
PUBLIC "-//W3C//DTD SVG 1.1//EN"
       "http://www.w3.org/Graphics/SVG/1.1/DTD/svg11.dtd">
<svg version="1.1" xmlns="http://www.w3.org/2000/svg" xmlns:xlink="http://www.w3.org/1999/xlink" width="33.1909" height="35.3638">
 <g>
  <rect height="35.3638" opacity="0" width="33.1909" x="0" y="0"/>
  <path d="M16.5894 21.875C17.6392 21.8872 18.6768 21.6187 19.9707 21.0327L31.9946 15.5396C32.7881 15.1733 33.1909 14.4653 33.1909 13.7329C33.1909 13.0127 32.7881 12.3047 31.9946 11.9385L19.9707 6.44531C18.6768 5.85938 17.6392 5.59082 16.5894 5.60303C15.5518 5.59082 14.5142 5.85938 13.208 6.44531L1.19629 11.9385C0.402832 12.3047 0 13.0127 0 13.7329C0 14.4653 0.402832 15.1733 1.19629 15.5396L13.208 21.0327C14.5142 21.6187 15.5518 21.8872 16.5894 21.875ZM16.5894 19.9463C15.7837 19.9463 14.9902 19.7388 13.9526 19.2627L2.70996 14.1479C2.49023 14.0503 2.39258 13.9038 2.39258 13.7329C2.39258 13.5742 2.49023 13.4277 2.70996 13.3301L13.9526 8.21533C14.9902 7.73926 15.7837 7.53174 16.5894 7.53174C17.4072 7.53174 18.1885 7.73926 19.2383 8.21533L30.481 13.3301C30.6885 13.4277 30.7983 13.5742 30.7983 13.7329C30.7983 13.9038 30.6885 14.0503 30.481 14.1479L19.2383 19.2627C18.1885 19.7388 17.4072 19.9463 16.5894 19.9463ZM4.76074 22.9126C4.76074 26.5625 9.39941 29.6509 16.5894 29.6509C23.7915 29.6509 28.4302 26.5625 28.4302 22.9126L28.4302 16.4673L26.4648 16.4673L26.4648 22.9126C26.4648 25.4639 22.6074 27.8076 16.5894 27.8076C10.5835 27.8076 6.72607 25.4639 6.72607 22.9126L6.72607 16.4673L4.76074 16.4673ZM16.6382 15.1245C17.9565 15.1245 19.2261 14.5264 19.2261 13.7329C19.2261 12.9639 17.9565 12.3779 16.6382 12.3779C15.332 12.3779 14.0381 12.9639 14.0381 13.7329C14.0381 14.5264 15.332 15.1245 16.6382 15.1245ZM9.21631 18.3472L16.4551 14.5142L15.7837 13.2568L7.62939 17.5049ZM7.62939 30.3223L9.21631 30.3223L9.21631 18.3472L7.62939 17.5659ZM6.66504 30.5664L6.66504 33.7769C6.66504 34.7412 7.2876 35.3638 8.25195 35.3638L8.58154 35.3638C9.5459 35.3638 10.1685 34.7412 10.1685 33.7769L10.1685 30.5664C10.1685 29.6021 9.5459 28.9795 8.58154 28.9795L8.25195 28.9795C7.2876 28.9795 6.66504 29.6021 6.66504 30.5664Z" fill="#5ac8f5"/>
 </g>
</svg>
