<?xml version="1.0" encoding="UTF-8"?>
<!--Generator: Apple Native CoreSVG 175.5-->
<!DOCTYPE svg
PUBLIC "-//W3C//DTD SVG 1.1//EN"
       "http://www.w3.org/Graphics/SVG/1.1/DTD/svg11.dtd">
<svg version="1.1" xmlns="http://www.w3.org/2000/svg" xmlns:xlink="http://www.w3.org/1999/xlink" width="15.5884" height="30.3061">
 <g>
  <rect height="30.3061" opacity="0" width="15.5884" x="0" y="0"/>
  <path d="M7.80029 0.181128C3.45459 0.181128 0 3.63572 0 7.95701C0 11.2163 1.95312 14.0971 5.00488 15.2568L5.00488 27.3052C5.00488 27.6103 5.10254 27.8423 5.32227 28.0742L7.36084 30.125C7.56836 30.3325 7.9834 30.3935 8.23975 30.1372L12.1094 26.2676C12.3657 25.999 12.3535 25.645 12.1094 25.3886L9.70459 23.0205L13.0005 19.7368C13.2324 19.4927 13.2324 19.1386 12.9761 18.8701L9.7168 15.5864C13.4888 14.0849 15.5884 11.3017 15.5884 7.95701C15.5884 3.66013 12.1094 0.181128 7.80029 0.181128ZM7.80029 7.33445C6.66504 7.33445 5.76172 6.41892 5.76172 5.29587C5.76172 4.16062 6.65283 3.2573 7.80029 3.2573C8.92334 3.2573 9.83887 4.16062 9.83887 5.29587C9.83887 6.41892 8.92334 7.33445 7.80029 7.33445Z" fill="#5ac8f5"/>
 </g>
</svg>
