<?xml version="1.0" encoding="UTF-8"?>
<!--Generator: Apple Native CoreSVG 175.5-->
<!DOCTYPE svg
PUBLIC "-//W3C//DTD SVG 1.1//EN"
       "http://www.w3.org/Graphics/SVG/1.1/DTD/svg11.dtd">
<svg version="1.1" xmlns="http://www.w3.org/2000/svg" xmlns:xlink="http://www.w3.org/1999/xlink" width="32.9834" height="22.4976">
 <g>
  <rect height="22.4976" opacity="0" width="32.9834" x="0" y="0"/>
  <path d="M0 18.7134C0 21.2402 1.28174 22.4976 3.83301 22.4976L15.6006 22.4976L15.6006 16.9678C12.6831 16.6138 10.7056 14.3799 10.7056 11.2549C10.7056 8.10547 12.6831 5.87158 15.6006 5.54199L15.6006 0.0244141L3.83301 0.0244141C1.28174 0.0244141 0 1.28174 0 3.80859L0 5.33447L4.26025 5.33447C5.87158 5.33447 6.81152 6.27441 6.81152 7.87354L6.81152 14.6362C6.81152 16.2354 5.87158 17.1753 4.26025 17.1753L0 17.1753ZM0 15.4541L4.23584 15.4541C4.77295 15.4541 5.09033 15.1367 5.09033 14.5874L5.09033 7.92236C5.09033 7.37305 4.77295 7.05566 4.23584 7.05566L0 7.05566ZM12.3291 11.2427C12.3291 13.3667 13.6597 14.9536 15.6006 15.2954L15.6006 7.22656C13.6597 7.56836 12.3291 9.13086 12.3291 11.2427ZM17.3218 22.4976L29.1626 22.4976C31.7139 22.4976 32.9834 21.228 32.9834 18.7134L32.9834 17.1753L28.7354 17.1753C27.1118 17.1753 26.1841 16.2354 26.1841 14.6362L26.1841 7.87354C26.1841 6.27441 27.1118 5.33447 28.7354 5.33447L32.9834 5.33447L32.9834 3.80859C32.9834 1.29395 31.7139 0.0244141 29.1626 0.0244141L17.3218 0.0244141L17.3218 5.56641C20.2271 5.94482 22.1924 8.19092 22.2168 11.2549C22.2534 14.3799 20.2759 16.6016 17.3218 16.9678ZM17.3218 15.2954C19.2627 14.9536 20.5811 13.3667 20.5933 11.2427C20.6055 9.13086 19.2749 7.55615 17.3218 7.22656ZM27.9053 14.5874C27.9053 15.1367 28.2227 15.4541 28.7476 15.4541L32.9834 15.4541L32.9834 7.05566L28.7476 7.05566C28.2227 7.05566 27.9053 7.37305 27.9053 7.92236Z" fill="#5ac8f5"/>
 </g>
</svg>
