<?xml version="1.0" encoding="UTF-8"?>
<!--Generator: Apple Native CoreSVG 175.5-->
<!DOCTYPE svg
PUBLIC "-//W3C//DTD SVG 1.1//EN"
       "http://www.w3.org/Graphics/SVG/1.1/DTD/svg11.dtd">
<svg version="1.1" xmlns="http://www.w3.org/2000/svg" xmlns:xlink="http://www.w3.org/1999/xlink" width="34.1156" height="30.9937">
 <g>
  <rect height="30.9937" opacity="0" width="34.1156" x="0" y="0"/>
  <path d="M18.6249 26.2085C24.5453 26.2085 29.3549 21.4111 29.3549 15.4907C29.3549 9.57031 24.5453 4.76074 18.6249 4.76074C12.7045 4.76074 7.8949 9.57031 7.8949 15.4907C7.8949 21.4111 12.7045 26.2085 18.6249 26.2085ZM18.6249 24.2432C13.7909 24.2432 9.86023 20.3247 9.86023 15.4907C9.86023 10.6567 13.7909 6.72607 18.6249 6.72607C23.4589 6.72607 27.3895 10.6567 27.3895 15.4907C27.3895 20.3247 23.4589 24.2432 18.6249 24.2432ZM18.6249 0C11.8011 0 6.00281 4.41895 3.93982 10.5469C4.64783 10.4492 5.33142 10.6323 5.85632 11.0596C7.68738 5.76172 12.7045 1.96533 18.6249 1.96533C26.0956 1.96533 32.1503 8.02002 32.1503 15.4907C32.1503 22.9614 26.0956 29.0161 18.6249 29.0161C12.7167 29.0161 7.69958 25.2319 5.85632 19.9463C5.34363 20.3613 4.66003 20.5566 3.95203 20.459C6.02722 26.5747 11.8134 30.9814 18.6249 30.9814C27.182 30.9814 34.1156 24.0479 34.1156 15.4907C34.1156 6.93359 27.182 0 18.6249 0ZM3.61023 12.4146L0.338745 14.856C-0.112915 15.1855-0.112915 15.8081 0.338745 16.1377L3.61023 18.5791C4.2572 19.0674 5.09949 18.811 5.09949 17.9443L5.09949 13.0493C5.09949 12.207 4.28162 11.9019 3.61023 12.4146ZM15.6586 20.8008C16.2689 20.8008 16.5985 20.4102 16.5985 19.7754L16.5985 16.8823L18.7592 16.8823L20.7733 20.1904C21.0419 20.6421 21.286 20.8008 21.6888 20.8008C22.1893 20.8008 22.5311 20.4834 22.5311 20.0195C22.5311 19.7632 22.4701 19.5679 22.3236 19.3481L20.578 16.6138C21.9452 16.1621 22.8241 14.9536 22.8241 13.5132C22.8241 11.4258 21.3348 10.0952 18.9789 10.0952L15.6586 10.0952C15.0604 10.0952 14.743 10.5225 14.743 11.145L14.743 19.7754C14.743 20.3857 15.0604 20.8008 15.6586 20.8008ZM16.5985 15.5273L16.5985 11.5112L18.7592 11.5112C20.0897 11.5112 20.993 12.2559 20.993 13.562C20.993 14.8193 20.1141 15.5273 18.7103 15.5273Z" fill="#5ac8f5"/>
 </g>
</svg>
