<?xml version="1.0" encoding="UTF-8"?>
<!--Generator: Apple Native CoreSVG 175.5-->
<!DOCTYPE svg
PUBLIC "-//W3C//DTD SVG 1.1//EN"
       "http://www.w3.org/Graphics/SVG/1.1/DTD/svg11.dtd">
<svg version="1.1" xmlns="http://www.w3.org/2000/svg" xmlns:xlink="http://www.w3.org/1999/xlink" width="20.8862" height="25.9155">
 <g>
  <rect height="25.9155" opacity="0" width="20.8862" x="0" y="0"/>
  <path d="M0 23.4131C0 24.9023 1.02539 25.9033 2.55127 25.9033L18.335 25.9033C19.873 25.9033 20.8862 24.9023 20.8862 23.4131L20.8862 2.49023C20.8862 1.00098 19.873 0 18.335 0L2.55127 0C1.02539 0 0 1.00098 0 2.49023ZM1.96533 23.291L1.96533 2.6123C1.96533 2.22168 2.22168 1.96533 2.58789 1.96533L18.2983 1.96533C18.6768 1.96533 18.9209 2.22168 18.9209 2.6123L18.9209 23.291C18.9209 23.6816 18.6768 23.938 18.2983 23.938L2.58789 23.938C2.22168 23.938 1.96533 23.6816 1.96533 23.291Z" fill="#5ac8f5" fill-opacity="0.5"/>
  <path d="M3.80859 7.55615L17.0898 7.55615C17.3218 7.55615 17.5049 7.37305 17.5049 7.15332L17.5049 3.79639C17.5049 3.56445 17.3218 3.38135 17.0898 3.38135L3.80859 3.38135C3.57666 3.38135 3.39355 3.56445 3.39355 3.79639L3.39355 7.15332C3.39355 7.37305 3.57666 7.55615 3.80859 7.55615ZM8.59375 6.05469C8.23975 6.05469 7.99561 5.82275 7.99561 5.46875C7.99561 5.11475 8.23975 4.88281 8.59375 4.88281L12.3047 4.88281C12.6587 4.88281 12.8906 5.11475 12.8906 5.46875C12.8906 5.82275 12.6587 6.05469 12.3047 6.05469Z" fill="#5ac8f5"/>
 </g>
</svg>
