<?xml version="1.0" encoding="UTF-8"?>
<!--Generator: Apple Native CoreSVG 175.5-->
<!DOCTYPE svg
PUBLIC "-//W3C//DTD SVG 1.1//EN"
       "http://www.w3.org/Graphics/SVG/1.1/DTD/svg11.dtd">
<svg version="1.1" xmlns="http://www.w3.org/2000/svg" xmlns:xlink="http://www.w3.org/1999/xlink" width="22.7661" height="29.5288">
 <g>
  <rect height="29.5288" opacity="0" width="22.7661" x="0" y="0"/>
  <path d="M11.3892 0C10.7544 0 10.2905 0.439453 10.2905 1.07422L10.2905 6.23779L10.376 8.76465L7.14111 5.29785C6.93359 5.07812 6.65283 4.99268 6.35986 4.99268C5.74951 4.99268 5.29785 5.45654 5.29785 6.05469C5.29785 6.35986 5.41992 6.62842 5.66406 6.88477L10.5713 11.8042C10.8032 12.0483 11.084 12.1826 11.3892 12.1826C11.6821 12.1826 11.9751 12.0483 12.207 11.8042L17.1143 6.88477C17.3584 6.62842 17.4805 6.35986 17.4805 6.05469C17.4805 5.45654 17.0288 4.99268 16.4185 4.99268C16.1255 4.99268 15.8447 5.07812 15.6372 5.29785L12.4023 8.76465L12.4756 6.23779L12.4756 1.07422C12.4756 0.439453 12.0239 0 11.3892 0ZM0 14.5386C0 15.1733 0.439453 15.625 1.07422 15.625L21.7041 15.625C22.3267 15.625 22.7661 15.1733 22.7661 14.5386C22.7661 13.9038 22.3267 13.4399 21.7041 13.4399L1.07422 13.4399C0.439453 13.4399 0 13.9038 0 14.5386ZM11.3892 29.0771C12.0239 29.0771 12.4756 28.6377 12.4756 27.9907L12.4756 22.8271L12.4023 20.3125L15.6372 23.7671C15.8447 23.9868 16.1255 24.0723 16.4185 24.0723C17.0288 24.0723 17.4805 23.6084 17.4805 23.0103C17.4805 22.7051 17.3584 22.4365 17.1143 22.1802L12.207 17.2607C11.9751 17.0166 11.6821 16.8823 11.3892 16.8823C11.084 16.8823 10.8032 17.0166 10.5713 17.2607L5.66406 22.1802C5.41992 22.4365 5.29785 22.7051 5.29785 23.0103C5.29785 23.6084 5.74951 24.0723 6.35986 24.0723C6.65283 24.0723 6.93359 23.9868 7.14111 23.7671L10.376 20.3125L10.2905 22.8271L10.2905 27.9907C10.2905 28.6377 10.7544 29.0771 11.3892 29.0771Z" fill="#5ac8f5"/>
 </g>
</svg>
