<?xml version="1.0" encoding="UTF-8"?>
<!--Generator: Apple Native CoreSVG 175.5-->
<!DOCTYPE svg
PUBLIC "-//W3C//DTD SVG 1.1//EN"
       "http://www.w3.org/Graphics/SVG/1.1/DTD/svg11.dtd">
<svg version="1.1" xmlns="http://www.w3.org/2000/svg" xmlns:xlink="http://www.w3.org/1999/xlink" width="28.7842" height="22.4731">
 <g>
  <rect height="22.4731" opacity="0" width="28.7842" x="0" y="0"/>
  <path d="M0 12.3169L0 10.7422L4.40674 10.7422L6.5918 5.39551C6.88477 4.6875 7.87354 4.69971 8.09326 5.35889L10.9253 13.9526L11.8408 11.4014C11.9873 10.9741 12.2437 10.7422 12.7441 10.7422L15.6128 10.7422L17.8101 5.39551C18.0908 4.6875 19.0918 4.69971 19.2993 5.35889L22.1436 13.9526L23.0469 11.4014C23.2056 10.9741 23.4619 10.7422 23.9502 10.7422L28.7842 10.7422L28.7842 12.3169L24.3896 12.3169L22.9126 16.9678C22.6929 17.6514 21.6064 17.6758 21.3989 17.0044L18.5669 7.91016L16.9556 11.6577C16.7847 12.085 16.5527 12.3169 16.0522 12.3169L13.1714 12.3169L11.6943 16.9678C11.4746 17.6514 10.4004 17.6758 10.1929 17.0044L7.34863 7.91016L5.81055 11.6577C5.62744 12.085 5.39551 12.3169 4.66309 12.3169ZM3.83301 22.4731L24.9512 22.4731C27.5146 22.4731 28.7842 21.2158 28.7842 18.7012L28.7842 3.78418C28.7842 1.26953 27.5146 0 24.9512 0L3.83301 0C1.28174 0 0 1.26953 0 3.78418L0 18.7012C0 21.2158 1.28174 22.4731 3.83301 22.4731Z" fill="#5ac8f5"/>
 </g>
</svg>
