<?xml version="1.0" encoding="UTF-8"?>
<!--Generator: Apple Native CoreSVG 175.5-->
<!DOCTYPE svg
PUBLIC "-//W3C//DTD SVG 1.1//EN"
       "http://www.w3.org/Graphics/SVG/1.1/DTD/svg11.dtd">
<svg version="1.1" xmlns="http://www.w3.org/2000/svg" xmlns:xlink="http://www.w3.org/1999/xlink" width="22.4731" height="22.4976">
 <g>
  <rect height="22.4976" opacity="0" width="22.4731" x="0" y="0"/>
  <path d="M7.9834 4.89502C7.4707 4.89502 7.09229 5.26123 7.09229 5.79834L7.09229 16.7236C7.09229 17.2363 7.4707 17.6147 7.9834 17.6147L14.4897 17.6147C15.0024 17.6147 15.3809 17.2363 15.3809 16.7236L15.3809 5.79834C15.3809 5.26123 15.0024 4.89502 14.4897 4.89502ZM8.87451 12.3901L13.5986 12.3901C13.8428 12.3901 14.0015 12.561 14.0015 12.8052L14.0015 15.8203C14.0015 16.0767 13.8428 16.2354 13.5986 16.2354L8.87451 16.2354C8.64258 16.2354 8.47168 16.0767 8.47168 15.8203L8.47168 12.8052C8.47168 12.561 8.64258 12.3901 8.87451 12.3901ZM3.83301 22.4976L18.6401 22.4976C21.2036 22.4976 22.4731 21.228 22.4731 18.7134L22.4731 3.80859C22.4731 1.29395 21.2036 0.0244141 18.6401 0.0244141L3.83301 0.0244141C1.28174 0.0244141 0 1.28174 0 3.80859L0 18.7134C0 21.2402 1.28174 22.4976 3.83301 22.4976ZM3.85742 20.5322C2.63672 20.5322 1.96533 19.8853 1.96533 18.6157L1.96533 3.90625C1.96533 2.63672 2.63672 1.98975 3.85742 1.98975L18.6157 1.98975C19.8242 1.98975 20.5078 2.63672 20.5078 3.90625L20.5078 18.6157C20.5078 19.8853 19.8242 20.5322 18.6157 20.5322Z" fill="#5ac8f5"/>
 </g>
</svg>
