<?xml version="1.0" encoding="UTF-8"?>
<!--Generator: Apple Native CoreSVG 175.5-->
<!DOCTYPE svg
PUBLIC "-//W3C//DTD SVG 1.1//EN"
       "http://www.w3.org/Graphics/SVG/1.1/DTD/svg11.dtd">
<svg version="1.1" xmlns="http://www.w3.org/2000/svg" xmlns:xlink="http://www.w3.org/1999/xlink" width="24.9023" height="24.9146">
 <g>
  <rect height="24.9146" opacity="0" width="24.9023" x="0" y="0"/>
  <path d="M12.4512 24.9146C19.2627 24.9146 24.9023 19.2749 24.9023 12.4634C24.9023 5.66406 19.2505 0.012207 12.439 0.012207C5.63965 0.012207 0 5.66406 0 12.4634C0 19.2749 5.65186 24.9146 12.4512 24.9146ZM12.439 19.9829C11.9263 19.9829 11.5845 19.6289 11.5845 19.1406L11.5845 13.3789L11.731 11.0596L9.43604 13.6353L8.72803 14.4165C8.56934 14.5874 8.37402 14.6606 8.10547 14.6606C7.62939 14.6606 7.2998 14.3188 7.2998 13.8306C7.2998 13.6353 7.39746 13.3667 7.55615 13.208L11.8042 8.8623C11.9873 8.66699 12.207 8.56934 12.439 8.56934C12.6709 8.56934 12.8906 8.69141 13.0737 8.8623L17.334 13.1958C17.5415 13.3911 17.6025 13.5986 17.6025 13.8306C17.6025 14.2944 17.2729 14.6606 16.8091 14.6606C16.5649 14.6606 16.3452 14.5874 16.1743 14.4165L15.4053 13.623L13.147 11.0718L13.2812 13.3789L13.2812 19.1406C13.2812 19.6289 12.915 19.9829 12.439 19.9829ZM7.72705 7.61719C7.23877 7.61719 6.88477 7.25098 6.88477 6.7749C6.88477 6.27441 7.23877 5.92041 7.72705 5.92041L17.1875 5.92041C17.6758 5.92041 18.0176 6.27441 18.0176 6.7749C18.0176 7.25098 17.6758 7.61719 17.1875 7.61719Z" fill="#5ac8f5"/>
 </g>
</svg>
