<?xml version="1.0" encoding="UTF-8"?>
<!--Generator: Apple Native CoreSVG 175.5-->
<!DOCTYPE svg
PUBLIC "-//W3C//DTD SVG 1.1//EN"
       "http://www.w3.org/Graphics/SVG/1.1/DTD/svg11.dtd">
<svg version="1.1" xmlns="http://www.w3.org/2000/svg" xmlns:xlink="http://www.w3.org/1999/xlink" width="22.4731" height="22.4976">
 <g>
  <rect height="22.4976" opacity="0" width="22.4731" x="0" y="0"/>
  <path d="M3.83301 22.4976L18.6401 22.4976C21.2036 22.4976 22.4731 21.228 22.4731 18.7134L22.4731 3.80859C22.4731 1.29395 21.2036 0.0244141 18.6401 0.0244141L3.83301 0.0244141C1.28174 0.0244141 0 1.28174 0 3.80859L0 18.7134C0 21.2402 1.28174 22.4976 3.83301 22.4976ZM6.34766 17.0898C5.78613 17.0898 5.44434 16.6992 5.44434 16.0522L5.44434 6.40869C5.44434 5.71289 5.92041 5.23682 6.62842 5.23682C7.23877 5.23682 7.6416 5.51758 7.86133 6.05469L11.2183 14.4165L11.2793 14.4165L14.6118 6.05469C14.8438 5.51758 15.2466 5.23682 15.8569 5.23682C16.5527 5.23682 17.041 5.71289 17.041 6.40869L17.041 16.0522C17.041 16.7114 16.6992 17.0898 16.1011 17.0898C15.5518 17.0898 15.21 16.6992 15.21 16.0522L15.21 8.81348L15.1001 8.81348L12.1948 16.04C12.0117 16.4917 11.6943 16.6992 11.2305 16.6992C10.7666 16.6992 10.4614 16.4917 10.2661 16.04L7.38525 8.81348L7.27539 8.81348L7.27539 16.0522C7.27539 16.7114 6.92139 17.0898 6.34766 17.0898Z" fill="#5ac8f5"/>
 </g>
</svg>
