<?xml version="1.0" encoding="UTF-8"?>
<!--Generator: Apple Native CoreSVG 175.5-->
<!DOCTYPE svg
PUBLIC "-//W3C//DTD SVG 1.1//EN"
       "http://www.w3.org/Graphics/SVG/1.1/DTD/svg11.dtd">
<svg version="1.1" xmlns="http://www.w3.org/2000/svg" xmlns:xlink="http://www.w3.org/1999/xlink" width="22.8516" height="21.8384">
 <g>
  <rect height="21.8384" opacity="0" width="22.8516" x="0" y="0"/>
  <path d="M7.53174 5.33447C9.021 5.33447 10.2051 4.13818 10.2051 2.66113C10.2051 1.18408 9.021 0 7.53174 0C6.05469 0 4.87061 1.18408 4.87061 2.66113C4.87061 4.13818 6.05469 5.33447 7.53174 5.33447ZM1.07422 14.6118C0.537109 16.626 1.81885 17.9077 3.39355 17.9077C3.89404 17.9077 4.41895 17.7856 4.93164 17.5049L11.5601 13.9771L18.8965 17.6514C19.7876 18.0908 20.5078 17.7368 20.7886 17.1631C21.0571 16.6016 20.8862 15.8325 20.0317 15.4053L12.3535 11.5479C11.853 11.2915 11.3037 11.2671 10.7788 11.499L5.82275 13.6475L6.82373 10.1562C7.00684 9.55811 7.55615 9.11865 8.19092 9.11865L18.0664 9.11865C18.7622 9.11865 19.3237 8.55713 19.3237 7.86133C19.3237 7.17773 18.7622 6.604 18.0664 6.604L7.27539 6.604C4.83398 6.604 2.84424 8.00781 2.28271 10.1196ZM0.683594 21.814L22.168 21.814C22.5464 21.814 22.8516 21.521 22.8516 21.1426C22.8516 20.7642 22.5464 20.459 22.168 20.459L0.683594 20.459C0.292969 20.459 0 20.7642 0 21.1426C0 21.521 0.292969 21.814 0.683594 21.814Z" fill="#5ac8f5"/>
 </g>
</svg>
