<?xml version="1.0" encoding="UTF-8"?>
<!--Generator: Apple Native CoreSVG 175.5-->
<!DOCTYPE svg
PUBLIC "-//W3C//DTD SVG 1.1//EN"
       "http://www.w3.org/Graphics/SVG/1.1/DTD/svg11.dtd">
<svg version="1.1" xmlns="http://www.w3.org/2000/svg" xmlns:xlink="http://www.w3.org/1999/xlink" width="24.9023" height="24.9146">
 <g>
  <rect height="24.9146" opacity="0" width="24.9023" x="0" y="0"/>
  <path d="M12.4512 24.9023C19.2627 24.9023 24.9023 19.2505 24.9023 12.4512C24.9023 5.63965 19.2505 0 12.439 0C5.63965 0 0 5.63965 0 12.4512C0 19.2505 5.65186 24.9023 12.4512 24.9023ZM12.4512 22.8271C6.68945 22.8271 2.0874 18.2129 2.0874 12.4512C2.0874 6.68945 6.67725 2.0752 12.439 2.0752C18.2007 2.0752 22.8271 6.68945 22.8271 12.4512C22.8271 18.2129 18.2129 22.8271 12.4512 22.8271ZM5.45654 14.4165C5.45654 16.394 6.65283 18.0298 8.28857 18.0298L9.48486 18.0298C8.27637 17.1631 7.76367 15.8569 7.78809 14.3555C7.8125 12.6953 8.44727 11.5356 9.00879 10.8154L8.05664 10.8154C6.56738 10.8154 5.45654 12.4023 5.45654 14.4165ZM8.66699 14.3677C8.63037 16.7847 10.5713 18.6157 13.6475 18.6279L14.5508 18.6401C15.3931 18.6523 16.0278 18.5913 16.3818 18.5059C16.9067 18.3594 17.4194 18.0664 17.4194 17.4316C17.4194 17.1997 17.3462 16.98 17.2729 16.8579C17.2241 16.7725 17.2241 16.6992 17.3096 16.6626C17.7002 16.5161 18.0542 16.1133 18.0542 15.6006C18.0542 15.2954 17.9688 15.0269 17.8101 14.856C17.7368 14.7583 17.749 14.6484 17.8589 14.5874C18.1763 14.4043 18.3716 14.0503 18.3716 13.6108C18.3716 13.3179 18.2861 12.9761 18.103 12.8174C18.0054 12.7197 18.0176 12.6709 18.1396 12.5732C18.335 12.3901 18.457 12.085 18.457 11.731C18.457 11.0718 17.9688 10.5469 17.3218 10.5469L15.0024 10.5469C14.3921 10.5469 14.0137 10.2539 14.0137 9.75342C14.0137 8.87451 15.1123 7.25098 15.1123 6.09131C15.1123 5.48096 14.7095 5.12695 14.1968 5.12695C13.7207 5.12695 13.4888 5.44434 13.2446 5.94482C12.2559 7.84912 10.9375 9.39941 9.94873 10.7422C9.10645 11.853 8.69141 12.8174 8.66699 14.3677Z" fill="#5ac8f5"/>
 </g>
</svg>
