<?xml version="1.0" encoding="UTF-8"?>
<!--Generator: Apple Native CoreSVG 175.5-->
<!DOCTYPE svg
PUBLIC "-//W3C//DTD SVG 1.1//EN"
       "http://www.w3.org/Graphics/SVG/1.1/DTD/svg11.dtd">
<svg version="1.1" xmlns="http://www.w3.org/2000/svg" xmlns:xlink="http://www.w3.org/1999/xlink" width="24.0356" height="22.1069">
 <g>
  <rect height="22.1069" opacity="0" width="24.0356" x="0" y="0"/>
  <path d="M12.0239 22.1069C16.4551 22.1069 18.3228 21.5454 20.0928 19.8975C22.583 17.627 24.0356 14.3433 24.0356 10.8521C24.0356 8.03223 23.0957 5.34668 21.1548 3.13721C20.7031 2.57568 20.2393 2.52686 19.751 2.88086C17.9443 4.24805 15.8569 4.93164 12.0239 4.93164C8.17871 4.93164 6.09131 4.24805 4.29688 2.88086C3.80859 2.52686 3.33252 2.57568 2.88086 3.13721C0.952148 5.34668 0 8.03223 0 10.8521C0 14.3433 1.45264 17.627 3.94287 19.8975C5.71289 21.5454 7.58057 22.1069 12.0239 22.1069ZM12.0239 3.27148C15.4175 3.27148 17.7856 2.58789 17.7856 1.70898C17.7856 0.817871 15.4175 0.158691 12.0239 0.158691C8.61816 0.158691 6.25 0.817871 6.25 1.70898C6.25 2.58789 8.61816 3.27148 12.0239 3.27148Z" fill="#5ac8f5"/>
 </g>
</svg>
