<?xml version="1.0" encoding="UTF-8"?>
<!--Generator: Apple Native CoreSVG 175.5-->
<!DOCTYPE svg
PUBLIC "-//W3C//DTD SVG 1.1//EN"
       "http://www.w3.org/Graphics/SVG/1.1/DTD/svg11.dtd">
<svg version="1.1" xmlns="http://www.w3.org/2000/svg" xmlns:xlink="http://www.w3.org/1999/xlink" width="24.2554" height="23.1567">
 <g>
  <rect height="23.1567" opacity="0" width="24.2554" x="0" y="0"/>
  <path d="M12.1216 23.1567C12.3779 23.1567 12.7441 22.9858 13.0127 22.8271C19.8975 18.4326 24.2554 13.3179 24.2554 8.11768C24.2554 3.79639 21.2891 0.744629 17.4438 0.744629C15.0635 0.744629 13.2324 2.06299 12.1216 4.07715C11.0352 2.0752 9.19189 0.744629 6.79932 0.744629C2.96631 0.744629 0 3.79639 0 8.11768C0 13.3179 4.35791 18.4326 11.2427 22.8271C11.499 22.9858 11.8774 23.1567 12.1216 23.1567Z" fill="#5ac8f5" fill-opacity="0.25"/>
  <path d="M8.03223 13.1958C8.03223 13.0615 8.09326 12.9517 8.19092 12.8296L13.2324 6.49414C13.6108 6.01807 14.2456 6.33545 14.0259 6.93359L12.3657 11.3892L15.4785 11.3892C15.7104 11.3892 15.918 11.5723 15.918 11.792C15.918 11.9141 15.8569 12.0483 15.7471 12.1582L10.7178 18.4937C10.3271 18.9697 9.69238 18.6401 9.91211 18.0542L11.5845 13.5864L8.45947 13.5864C8.22754 13.5864 8.03223 13.4155 8.03223 13.1958Z" fill="#5ac8f5"/>
 </g>
</svg>
