<?xml version="1.0" encoding="UTF-8"?>
<!--Generator: Apple Native CoreSVG 175.5-->
<!DOCTYPE svg
PUBLIC "-//W3C//DTD SVG 1.1//EN"
       "http://www.w3.org/Graphics/SVG/1.1/DTD/svg11.dtd">
<svg version="1.1" xmlns="http://www.w3.org/2000/svg" xmlns:xlink="http://www.w3.org/1999/xlink" width="28.7842" height="22.4731">
 <g>
  <rect height="22.4731" opacity="0" width="28.7842" x="0" y="0"/>
  <path d="M5.78613 6.67725C6.4209 6.67725 6.92139 6.16455 6.92139 5.54199C6.92139 4.90723 6.4209 4.40674 5.78613 4.40674C5.17578 4.40674 4.65088 4.91943 4.65088 5.54199C4.65088 6.15234 5.17578 6.67725 5.78613 6.67725ZM5.78613 10.4126C6.4209 10.4126 6.92139 9.8999 6.92139 9.27734C6.92139 8.64258 6.4209 8.14209 5.78613 8.14209C5.17578 8.14209 4.65088 8.65479 4.65088 9.27734C4.65088 9.8877 5.17578 10.4126 5.78613 10.4126ZM5.78613 14.1357C6.4209 14.1357 6.92139 13.6353 6.92139 13.0005C6.92139 12.3779 6.4209 11.8774 5.78613 11.8774C5.16357 11.8774 4.65088 12.3901 4.65088 13.0005C4.65088 13.6353 5.16357 14.1357 5.78613 14.1357ZM5.78613 18.0542C6.4209 18.0542 6.92139 17.5415 6.92139 16.9189C6.92139 16.2842 6.4209 15.7715 5.78613 15.7715C5.17578 15.7715 4.65088 16.2964 4.65088 16.9189C4.65088 17.5293 5.17578 18.0542 5.78613 18.0542ZM9.47266 6.28662L23.4375 6.28662C23.877 6.28662 24.2065 5.95703 24.2065 5.54199C24.2065 5.11475 23.8647 4.77295 23.4375 4.77295L9.47266 4.77295C9.04541 4.77295 8.70361 5.11475 8.70361 5.54199C8.70361 5.95703 9.0332 6.28662 9.47266 6.28662ZM9.47266 10.0342L17.2119 10.0342C17.627 10.0342 17.9688 9.69238 17.9688 9.27734C17.9688 8.8623 17.627 8.5083 17.2119 8.5083L9.47266 8.5083C9.04541 8.5083 8.70361 8.8623 8.70361 9.27734C8.70361 9.69238 9.04541 10.0342 9.47266 10.0342ZM9.47266 13.7695L23.4375 13.7695C23.877 13.7695 24.2065 13.4399 24.2065 13.0005C24.2065 12.5854 23.877 12.2559 23.4375 12.2559L9.47266 12.2559C9.0332 12.2559 8.70361 12.5854 8.70361 13.0005C8.70361 13.4399 9.0332 13.7695 9.47266 13.7695ZM9.47266 17.6758L17.2119 17.6758C17.627 17.6758 17.9688 17.334 17.9688 16.9189C17.9688 16.4917 17.6392 16.1621 17.2119 16.1621L9.47266 16.1621C9.0332 16.1621 8.70361 16.4917 8.70361 16.9189C8.70361 17.334 9.04541 17.6758 9.47266 17.6758ZM3.83301 22.4731L24.9512 22.4731C27.5146 22.4731 28.7842 21.2158 28.7842 18.7012L28.7842 3.78418C28.7842 1.26953 27.5146 0 24.9512 0L3.83301 0C1.28174 0 0 1.26953 0 3.78418L0 18.7012C0 21.2158 1.28174 22.4731 3.83301 22.4731ZM3.85742 20.5078C2.63672 20.5078 1.96533 19.8608 1.96533 18.5913L1.96533 3.89404C1.96533 2.62451 2.63672 1.96533 3.85742 1.96533L24.9268 1.96533C26.1353 1.96533 26.8188 2.62451 26.8188 3.89404L26.8188 18.5913C26.8188 19.8608 26.1353 20.5078 24.9268 20.5078Z" fill="#5ac8f5"/>
 </g>
</svg>
