<?xml version="1.0" encoding="UTF-8"?>
<!--Generator: Apple Native CoreSVG 175.5-->
<!DOCTYPE svg
PUBLIC "-//W3C//DTD SVG 1.1//EN"
       "http://www.w3.org/Graphics/SVG/1.1/DTD/svg11.dtd">
<svg version="1.1" xmlns="http://www.w3.org/2000/svg" xmlns:xlink="http://www.w3.org/1999/xlink" width="14.3066" height="22.4731">
 <g>
  <rect height="22.4731" opacity="0" width="14.3066" x="0" y="0"/>
  <path d="M1.98975 22.4487L12.3169 22.4487C13.5498 22.4487 14.3066 21.7529 14.3066 20.4468L14.3066 20.2026C14.3066 17.2607 11.1938 14.1357 9.48486 12.439C8.71582 11.6699 8.65479 10.8154 9.48486 9.98535C11.1938 8.30078 14.3066 5.18799 14.3066 2.22168L14.3066 2.01416C14.3066 0.708008 13.5498 0 12.3169 0L1.98975 0C0.756836 0 0 0.708008 0 2.01416L0 2.22168C0 5.18799 3.125 8.30078 4.82178 9.98535C5.66406 10.8154 5.60303 11.6699 4.82178 12.439C3.125 14.1357 0 17.2607 0 20.2026L0 20.4468C0 21.7529 0.756836 22.4487 1.98975 22.4487ZM7.99561 9.32617C7.38525 9.82666 6.92139 9.82666 6.31104 9.32617C5.39551 8.54492 2.79541 5.87158 2.00195 4.46777C1.79443 4.07715 1.9043 3.77197 2.28271 3.77197L12.0239 3.77197C12.4023 3.77197 12.5244 4.07715 12.3047 4.46777C11.5112 5.87158 8.92334 8.54492 7.99561 9.32617Z" fill="#5ac8f5"/>
 </g>
</svg>
