<?xml version="1.0" encoding="UTF-8"?>
<!--Generator: Apple Native CoreSVG 175.5-->
<!DOCTYPE svg
PUBLIC "-//W3C//DTD SVG 1.1//EN"
       "http://www.w3.org/Graphics/SVG/1.1/DTD/svg11.dtd">
<svg version="1.1" xmlns="http://www.w3.org/2000/svg" xmlns:xlink="http://www.w3.org/1999/xlink" width="22.4731" height="22.4976">
 <g>
  <rect height="22.4976" opacity="0" width="22.4731" x="0" y="0"/>
  <path d="M3.83301 22.4976L18.6401 22.4976C21.2036 22.4976 22.4731 21.228 22.4731 18.7134L22.4731 3.80859C22.4731 1.29395 21.2036 0.0244141 18.6401 0.0244141L3.83301 0.0244141C1.28174 0.0244141 0 1.28174 0 3.80859L0 18.7134C0 21.2402 1.28174 22.4976 3.83301 22.4976ZM3.85742 20.5322C2.63672 20.5322 1.96533 19.8853 1.96533 18.6157L1.96533 3.90625C1.96533 2.63672 2.63672 1.98975 3.85742 1.98975L18.6157 1.98975C19.8242 1.98975 20.5078 2.63672 20.5078 3.90625L20.5078 18.6157C20.5078 19.8853 19.8242 20.5322 18.6157 20.5322ZM7.40967 8.21533C6.87256 8.21533 6.51855 8.61816 6.51855 9.19189L6.51855 14.9536C6.51855 15.6738 6.90918 15.9546 7.53174 15.9546L13.3179 15.9546C13.8916 15.9546 14.2578 15.6006 14.2578 15.0635C14.2578 14.5264 13.8794 14.1724 13.2935 14.1724L11.0718 14.1724L9.26514 14.3677L11.1694 12.5854L15.6738 8.09326C15.8447 7.92236 15.9668 7.67822 15.9668 7.43408C15.9668 6.88477 15.6006 6.53076 15.0635 6.53076C14.7705 6.53076 14.5508 6.64062 14.3677 6.81152L9.87549 11.3037L8.11768 13.1836L8.30078 11.2793L8.30078 9.16748C8.30078 8.58154 7.94678 8.21533 7.40967 8.21533Z" fill="#5ac8f5"/>
 </g>
</svg>
