<?xml version="1.0" encoding="UTF-8"?>
<!--Generator: Apple Native CoreSVG 175.5-->
<!DOCTYPE svg
PUBLIC "-//W3C//DTD SVG 1.1//EN"
       "http://www.w3.org/Graphics/SVG/1.1/DTD/svg11.dtd">
<svg version="1.1" xmlns="http://www.w3.org/2000/svg" xmlns:xlink="http://www.w3.org/1999/xlink" width="22.4731" height="22.4976">
 <g>
  <rect height="22.4976" opacity="0" width="22.4731" x="0" y="0"/>
  <path d="M3.83301 22.4976L18.6401 22.4976C21.2036 22.4976 22.4731 21.228 22.4731 18.7134L22.4731 3.80859C22.4731 1.29395 21.2036 0.0244141 18.6401 0.0244141L3.83301 0.0244141C1.28174 0.0244141 0 1.28174 0 3.80859L0 18.7134C0 21.2402 1.28174 22.4976 3.83301 22.4976Z" fill="#5ac8f5" fill-opacity="0.25"/>
  <path d="M6.86035 16.6748C5.15137 16.6748 3.79639 15.625 3.4668 14.4653C3.41797 14.3066 3.40576 14.1724 3.40576 14.0015C3.40576 13.5498 3.71094 13.2446 4.13818 13.2446C4.49219 13.2446 4.71191 13.4399 4.8584 13.8428C5.2002 14.7217 5.88379 15.21 6.87256 15.21C8.08105 15.21 8.91113 14.4775 8.91113 13.501C8.91113 12.4756 8.1543 11.8042 6.95801 11.8042L6.22559 11.8042C5.79834 11.8042 5.52979 11.4868 5.52979 11.084C5.52979 10.6201 5.79834 10.3271 6.22559 10.3271L6.89697 10.3271C7.89795 10.3271 8.59375 9.66797 8.59375 8.75244C8.59375 7.87354 7.89795 7.27539 6.90918 7.27539C5.93262 7.27539 5.32227 7.76367 5.0415 8.64258C4.93164 9.04541 4.72412 9.24072 4.3457 9.24072C3.90625 9.24072 3.62549 8.92334 3.62549 8.47168C3.62549 8.31299 3.62549 8.17871 3.6499 8.02002C3.97949 6.78711 5.23682 5.81055 6.9458 5.81055C8.82568 5.81055 10.144 6.93359 10.144 8.54492C10.144 9.729 9.32617 10.7788 8.30078 10.9497L8.30078 11.0229C9.57031 11.1572 10.4858 12.2314 10.4858 13.5742C10.4858 15.3809 8.99658 16.6748 6.86035 16.6748ZM15.6738 16.687C14.3921 16.687 13.3057 16.1987 12.6587 14.978C12.2314 14.1968 11.9995 13.0737 11.9995 11.5356C11.9995 7.70264 13.4766 5.81055 15.918 5.81055C17.3462 5.81055 18.3472 6.55518 18.6768 7.39746C18.75 7.56836 18.7744 7.71484 18.7744 7.88574C18.7744 8.30078 18.5059 8.58154 18.1519 8.58154C17.7979 8.58154 17.6025 8.42285 17.395 8.10547C17.0776 7.61719 16.5771 7.27539 15.8447 7.27539C14.4287 7.27539 13.4766 8.76465 13.4766 11.1328C13.4766 11.1938 13.4766 11.2183 13.4766 11.2549L13.562 11.2549C13.8794 10.4248 14.7217 9.66797 16.0522 9.66797C17.7002 9.66797 19.1772 10.8643 19.1772 13.0249C19.1772 15.332 17.7124 16.687 15.6738 16.687ZM15.6006 15.2954C16.8091 15.2954 17.5781 14.4409 17.5781 13.0981C17.5781 11.8408 16.7725 10.9741 15.6006 10.9741C14.4165 10.9741 13.6108 11.853 13.6108 13.0859C13.6108 14.3799 14.4287 15.2954 15.6006 15.2954Z" fill="#5ac8f5"/>
 </g>
</svg>
