<?xml version="1.0" encoding="UTF-8"?>
<!--Generator: Apple Native CoreSVG 175.5-->
<!DOCTYPE svg
PUBLIC "-//W3C//DTD SVG 1.1//EN"
       "http://www.w3.org/Graphics/SVG/1.1/DTD/svg11.dtd">
<svg version="1.1" xmlns="http://www.w3.org/2000/svg" xmlns:xlink="http://www.w3.org/1999/xlink" width="43.2983" height="31.0883">
 <g>
  <rect height="31.0883" opacity="0" width="43.2983" x="0" y="0"/>
  <path d="M25.8423 25.8041C26.2329 25.1694 25.9399 24.5346 25.1831 24.5346L19.1162 24.5346C18.3594 24.5346 18.0542 25.1694 18.4448 25.8041L21.4233 30.6259C21.8018 31.2485 22.5098 31.2363 22.876 30.6259ZM3.11279 22.6669L6.90918 22.6669L6.90918 20.7016L3.22266 20.7016C2.4292 20.7016 1.96533 20.1645 1.96533 19.2368L1.96533 17.3813C1.96533 15.1962 3.43018 13.9633 6.48193 13.5727L11.4502 12.9501L16.748 9.65425C19.4458 7.96968 21.0449 7.57905 25.7324 7.57905L35.2661 7.57905C37.3779 7.57905 38.6108 8.15278 39.5996 9.59321L40.1489 10.3867C40.8936 11.4609 41.333 12.7792 41.333 13.9389L41.333 19.2734C41.333 20.25 40.9546 20.7016 40.0879 20.7016L36.9629 20.7016L36.9629 22.6669L40.1978 22.6669C42.334 22.6669 43.2983 21.5683 43.2983 19.1513L43.2983 13.9389C43.2983 12.413 42.7246 10.6674 41.7725 9.27583L41.2231 8.47017C39.8193 6.43159 38.0981 5.61372 35.2661 5.61372L25.7324 5.61372C20.7031 5.61372 18.689 6.102 15.6982 7.96968L10.7788 11.0581L6.22559 11.6196C2.06299 12.1323 0 14.0366 0 17.3813L0 19.4809C0 21.4707 1.17188 22.6669 3.11279 22.6669ZM12.6343 22.6669L31.3477 22.6669L31.3477 20.7016L12.6343 20.7016ZM9.70459 25.4501C12.0483 25.4501 13.8794 23.6191 13.8794 21.2753C13.8794 18.9316 12.0483 17.1005 9.70459 17.1005C7.36084 17.1005 5.52979 18.9316 5.52979 21.2753C5.52979 23.6191 7.36084 25.4501 9.70459 25.4501ZM9.70459 23.4848C8.45947 23.4848 7.49512 22.5205 7.49512 21.2753C7.49512 20.0302 8.45947 19.0659 9.70459 19.0659C10.9497 19.0659 11.9141 20.0302 11.9141 21.2753C11.9141 22.5205 10.9497 23.4848 9.70459 23.4848ZM34.2407 25.4501C36.5845 25.4501 38.4155 23.6191 38.4155 21.2753C38.4155 18.9316 36.5845 17.1005 34.2407 17.1005C31.897 17.1005 30.0659 18.9316 30.0659 21.2753C30.0659 23.6191 31.897 25.4501 34.2407 25.4501ZM34.2407 23.4848C32.9956 23.4848 32.0312 22.5205 32.0312 21.2753C32.0312 20.0302 32.9956 19.0659 34.2407 19.0659C35.4858 19.0659 36.4502 20.0302 36.4502 21.2753C36.4502 22.5205 35.4858 23.4848 34.2407 23.4848Z" fill="#5ac8f5"/>
 </g>
</svg>
