<?xml version="1.0" encoding="UTF-8"?>
<!--Generator: Apple Native CoreSVG 175.5-->
<!DOCTYPE svg
PUBLIC "-//W3C//DTD SVG 1.1//EN"
       "http://www.w3.org/Graphics/SVG/1.1/DTD/svg11.dtd">
<svg version="1.1" xmlns="http://www.w3.org/2000/svg" xmlns:xlink="http://www.w3.org/1999/xlink" width="28.6865" height="20.8618">
 <g>
  <rect height="20.8618" opacity="0" width="28.6865" x="0" y="0"/>
  <path d="M5.48096 16.5894L8.47168 16.5894C9.19189 16.5894 9.66797 16.1011 9.66797 15.4175L9.66797 13.1592C9.66797 12.4634 9.19189 11.9873 8.47168 11.9873L5.48096 11.9873C4.76074 11.9873 4.28467 12.4634 4.28467 13.1592L4.28467 15.4175C4.28467 16.1011 4.76074 16.5894 5.48096 16.5894ZM0.98877 7.6416L27.71 7.6416L27.71 4.87061L0.98877 4.87061ZM3.83301 20.8618L24.8535 20.8618C27.417 20.8618 28.6865 19.6045 28.6865 17.0898L28.6865 3.79639C28.6865 1.28174 27.417 0.012207 24.8535 0.012207L3.83301 0.012207C1.28174 0.012207 0 1.28174 0 3.79639L0 17.0898C0 19.6045 1.28174 20.8618 3.83301 20.8618ZM3.85742 18.8965C2.63672 18.8965 1.96533 18.2495 1.96533 16.98L1.96533 3.90625C1.96533 2.63672 2.63672 1.97754 3.85742 1.97754L24.8291 1.97754C26.0254 1.97754 26.7212 2.63672 26.7212 3.90625L26.7212 16.98C26.7212 18.2495 26.0254 18.8965 24.8291 18.8965Z" fill="#5ac8f5"/>
 </g>
</svg>
