<?xml version="1.0" encoding="UTF-8"?>
<!--Generator: Apple Native CoreSVG 175.5-->
<!DOCTYPE svg
PUBLIC "-//W3C//DTD SVG 1.1//EN"
       "http://www.w3.org/Graphics/SVG/1.1/DTD/svg11.dtd">
<svg version="1.1" xmlns="http://www.w3.org/2000/svg" xmlns:xlink="http://www.w3.org/1999/xlink" width="25.8301" height="25.5981">
 <g>
  <rect height="25.5981" opacity="0" width="25.8301" x="0" y="0"/>
  <path d="M11.2671 17.7368L11.2671 11.7065C11.2671 11.3281 11.5845 10.9985 11.9995 10.9985C12.3779 10.9985 12.7075 11.3281 12.7075 11.7065L12.7075 15.4907C12.8662 15.3931 13.0127 15.2832 13.2446 15.21L13.2446 9.69238C13.2446 9.28955 13.5742 8.97217 13.9526 8.97217C14.3433 8.97217 14.6606 9.28955 14.6606 9.69238L14.6606 14.7461C14.856 14.7095 15.0513 14.6851 15.2344 14.6729L15.2344 9.13086C15.2344 8.74023 15.5518 8.42285 15.9546 8.42285C16.3452 8.42285 16.6626 8.74023 16.6626 9.13086L16.6626 14.7339C16.8457 14.7949 17.041 14.8438 17.1875 14.8926L17.1875 10.0586C17.1875 9.68018 17.5171 9.36279 17.9199 9.36279C18.2861 9.36279 18.6279 9.68018 18.6279 10.0586L18.6279 16.8457C18.6279 17.041 18.689 17.1387 18.8354 17.1387C18.9453 17.1387 19.0308 17.0532 19.104 16.8579L20.0195 14.9658C20.3247 14.3555 20.5566 14.0869 20.9839 14.0869C21.3623 14.0869 21.6187 14.3311 21.6187 14.6973C21.6187 15.0024 21.3867 15.686 21.2036 16.2354C20.813 17.5537 20.4468 18.7134 19.9341 19.6777C19.043 21.521 17.7002 22.3022 15.7349 22.3022C13.0981 22.3022 11.2671 20.5688 11.2671 17.7368ZM9.75342 25.5981L22.0093 25.5981C24.5483 25.5981 25.8301 24.3286 25.8301 21.814L25.8301 9.46045C25.8301 6.9458 24.5483 5.67627 22.0093 5.67627L9.75342 5.67627C7.18994 5.67627 5.92041 6.93359 5.92041 9.46045L5.92041 21.814C5.92041 24.3286 7.18994 25.5981 9.75342 25.5981ZM0 16.1621C0 18.6768 1.26953 19.9463 3.83301 19.9463L4.24805 19.9463L4.24805 9.46045C4.24805 6.00586 6.27441 4.01611 9.75342 4.01611L19.9097 4.01611L19.9097 3.80859C19.9097 1.29395 18.6279 0.0244141 16.0889 0.0244141L3.83301 0.0244141C1.26953 0.0244141 0 1.29395 0 3.80859Z" fill="#5ac8f5"/>
 </g>
</svg>
