<?xml version="1.0" encoding="UTF-8"?>
<!--Generator: Apple Native CoreSVG 175.5-->
<!DOCTYPE svg
PUBLIC "-//W3C//DTD SVG 1.1//EN"
       "http://www.w3.org/Graphics/SVG/1.1/DTD/svg11.dtd">
<svg version="1.1" xmlns="http://www.w3.org/2000/svg" xmlns:xlink="http://www.w3.org/1999/xlink" width="22.4731" height="22.522">
 <g>
  <rect height="22.522" opacity="0" width="22.4731" x="0" y="0"/>
  <path d="M3.83301 22.4731L18.6401 22.4731C21.2036 22.4731 22.4731 21.2036 22.4731 18.689L22.4731 3.78418C22.4731 1.26953 21.2036 0 18.6401 0L3.83301 0C1.28174 0 0 1.25732 0 3.78418L0 18.689C0 21.2158 1.28174 22.4731 3.83301 22.4731ZM3.85742 20.5078C2.63672 20.5078 1.96533 19.8608 1.96533 18.5913L1.96533 3.88184C1.96533 2.62451 2.63672 1.96533 3.85742 1.96533L18.6157 1.96533C19.8242 1.96533 20.5078 2.62451 20.5078 3.88184L20.5078 18.5913C20.5078 19.8608 19.8242 20.5078 18.6157 20.5078Z" fill="#5ac8f5" fill-opacity="0.5"/>
  <path d="M9.5459 17.5049C12.4756 17.5049 14.2578 15.3931 14.2578 12.5488L14.2578 8.89893L14.209 7.4585L14.9658 8.42285L16.1987 9.68018C16.3452 9.85107 16.5649 9.96094 16.8213 9.96094C17.334 9.96094 17.7124 9.58252 17.7124 9.08203C17.7124 8.82568 17.627 8.63037 17.4438 8.45947L14.1479 5.2124C13.9526 5.00488 13.6963 4.88281 13.4033 4.88281C13.1226 4.88281 12.8662 5.00488 12.6709 5.2124L9.33838 8.47168C9.16748 8.64258 9.08203 8.83789 9.08203 9.09424C9.08203 9.58252 9.47266 9.96094 9.97314 9.96094C10.2051 9.96094 10.437 9.87549 10.6079 9.69238L12.0728 8.1665L12.5977 7.4585L12.5488 8.89893L12.5488 12.5488C12.5488 14.3433 11.5112 15.7104 9.64355 15.7104C7.71484 15.7104 6.51855 14.3799 6.51855 12.5366C6.51855 12.3901 6.51855 10.8887 6.51855 10.8398C6.51855 10.3149 6.21338 9.91211 5.65186 9.91211C5.09033 9.91211 4.77295 10.3149 4.77295 10.8643C4.77295 10.9253 4.77295 12.3901 4.77295 12.5366C4.77295 15.3809 6.604 17.5049 9.5459 17.5049Z" fill="#5ac8f5"/>
 </g>
</svg>
