<?xml version="1.0" encoding="UTF-8"?>
<!--Generator: Apple Native CoreSVG 175.5-->
<!DOCTYPE svg
PUBLIC "-//W3C//DTD SVG 1.1//EN"
       "http://www.w3.org/Graphics/SVG/1.1/DTD/svg11.dtd">
<svg version="1.1" xmlns="http://www.w3.org/2000/svg" xmlns:xlink="http://www.w3.org/1999/xlink" width="34.6069" height="20.9106">
 <g>
  <rect height="20.9106" opacity="0" width="34.6069" x="0" y="0"/>
  <path d="M17.2852 20.8862C27.5879 20.8862 34.6069 16.1621 34.6069 10.4492C34.6069 4.73633 27.5879 0 17.2852 0C7.00684 0 0 4.73633 0 10.4492C0 16.1621 7.00684 20.8862 17.2852 20.8862ZM17.2852 19.0552C8.12988 19.0552 1.83105 15.0757 1.83105 10.4492C1.83105 5.82275 8.12988 1.84326 17.2852 1.84326C26.4648 1.84326 32.7759 5.82275 32.7759 10.4492C32.7759 15.0757 26.4648 19.0552 17.2852 19.0552ZM17.2852 17.2119C23.8037 17.2119 28.772 14.4897 28.772 10.7788C28.772 7.08008 23.8159 4.37012 17.2852 4.37012C10.791 4.37012 5.84717 7.08008 5.84717 10.7788C5.84717 14.502 10.791 17.2119 17.2852 17.2119ZM17.2852 15.3687C11.9263 15.3687 7.69043 13.269 7.69043 10.7788C7.69043 8.28857 11.9141 6.21338 17.2852 6.21338C22.6807 6.21338 26.9287 8.28857 26.9287 10.7788C26.9287 13.269 22.6562 15.3687 17.2852 15.3687ZM17.2729 11.5234C21.0938 11.5234 24.4019 9.76562 25.5981 7.32422C23.2056 6.15234 20.1538 5.5542 17.2852 5.46875C14.3555 5.5542 11.3037 6.15234 8.89893 7.33643C10.1074 9.77783 13.4155 11.5234 17.2729 11.5234Z" fill="#5ac8f5"/>
 </g>
</svg>
