<?xml version="1.0" encoding="UTF-8"?>
<!--Generator: Apple Native CoreSVG 175.5-->
<!DOCTYPE svg
PUBLIC "-//W3C//DTD SVG 1.1//EN"
       "http://www.w3.org/Graphics/SVG/1.1/DTD/svg11.dtd">
<svg version="1.1" xmlns="http://www.w3.org/2000/svg" xmlns:xlink="http://www.w3.org/1999/xlink" width="22.4731" height="22.4976">
 <g>
  <rect height="22.4976" opacity="0" width="22.4731" x="0" y="0"/>
  <path d="M3.83301 22.4976L18.6401 22.4976C21.2036 22.4976 22.4731 21.228 22.4731 18.7134L22.4731 3.80859C22.4731 1.29395 21.2036 0.0244141 18.6401 0.0244141L3.83301 0.0244141C1.28174 0.0244141 0 1.28174 0 3.80859L0 18.7134C0 21.2402 1.28174 22.4976 3.83301 22.4976ZM8.60596 16.6504C8.11768 16.6504 7.84912 16.2842 7.84912 15.7959L7.84912 14.3188L4.18701 14.3188C3.55225 14.3188 3.11279 13.916 3.11279 13.2446C3.11279 12.9028 3.18604 12.6221 3.38135 12.2314C4.22363 10.7056 5.49316 8.55713 6.54297 6.78711C6.95801 6.09131 7.40967 5.81055 8.14209 5.81055C8.87451 5.81055 9.38721 6.28662 9.38721 7.01904L9.38721 12.9028L10.0708 12.9028C10.498 12.9028 10.7788 13.1714 10.7788 13.623C10.7788 14.0625 10.498 14.3188 10.0708 14.3188L9.38721 14.3188L9.38721 15.7959C9.38721 16.2964 9.11865 16.6504 8.60596 16.6504ZM7.84912 12.9028L7.84912 7.51953L7.78809 7.51953C6.7749 9.22852 5.49316 11.4258 4.74854 12.854L4.74854 12.9028ZM15.7104 16.6748C13.5376 16.6748 12.0728 15.4419 12.0728 13.5986C12.0728 12.3169 12.854 11.2549 14.209 10.9741L14.209 10.9009C13.0371 10.5591 12.4512 9.68018 12.4512 8.58154C12.4512 6.9458 13.8062 5.81055 15.7349 5.81055C17.6636 5.81055 19.0186 6.9458 19.0186 8.58154C19.0186 9.68018 18.4082 10.5835 17.2607 10.9009L17.2607 10.9741C18.6157 11.2549 19.397 12.3047 19.397 13.5864C19.397 15.4175 17.9077 16.6748 15.7104 16.6748ZM15.7471 15.3564C16.9312 15.3564 17.7979 14.5874 17.7979 13.4888C17.7979 12.3901 16.9556 11.6089 15.7471 11.6089C14.563 11.6089 13.6963 12.4023 13.6963 13.4888C13.6963 14.5874 14.563 15.3564 15.7471 15.3564ZM15.7349 10.4004C16.7114 10.4004 17.4072 9.69238 17.4072 8.74023C17.4072 7.78809 16.7114 7.12891 15.7349 7.12891C14.7461 7.12891 14.0625 7.78809 14.0625 8.74023C14.0625 9.69238 14.7583 10.4004 15.7349 10.4004Z" fill="#5ac8f5"/>
 </g>
</svg>
