<?xml version="1.0" encoding="UTF-8"?>
<!--Generator: Apple Native CoreSVG 175.5-->
<!DOCTYPE svg
PUBLIC "-//W3C//DTD SVG 1.1//EN"
       "http://www.w3.org/Graphics/SVG/1.1/DTD/svg11.dtd">
<svg version="1.1" xmlns="http://www.w3.org/2000/svg" xmlns:xlink="http://www.w3.org/1999/xlink" width="22.4731" height="22.4976">
 <g>
  <rect height="22.4976" opacity="0" width="22.4731" x="0" y="0"/>
  <path d="M3.83301 22.4976L18.6401 22.4976C21.2036 22.4976 22.4731 21.228 22.4731 18.7134L22.4731 3.80859C22.4731 1.29395 21.2036 0.0244141 18.6401 0.0244141L3.83301 0.0244141C1.28174 0.0244141 0 1.28174 0 3.80859L0 18.7134C0 21.2402 1.28174 22.4976 3.83301 22.4976ZM3.85742 20.5322C2.63672 20.5322 1.96533 19.8853 1.96533 18.6157L1.96533 3.90625C1.96533 2.63672 2.63672 1.98975 3.85742 1.98975L18.6157 1.98975C19.8242 1.98975 20.5078 2.63672 20.5078 3.90625L20.5078 18.6157C20.5078 19.8853 19.8242 20.5322 18.6157 20.5322ZM6.79932 16.272C6.79932 16.6992 7.08008 16.9922 7.51953 16.9922L14.8926 16.9922C15.332 16.9922 15.6372 16.6992 15.6372 16.272C15.6372 15.8447 15.332 15.564 14.8926 15.564L9.61914 15.564C10.144 15.1367 10.5103 14.3921 10.6201 13.5986C10.6445 13.4033 10.6567 13.2202 10.6567 13.0371L13.5742 13.0371C13.9771 13.0371 14.2578 12.7686 14.2578 12.3779C14.2578 11.9873 13.9771 11.731 13.5742 11.731L10.5225 11.731C10.437 11.3647 10.3394 11.0107 10.2539 10.6689L13.5742 10.6689C13.9771 10.6689 14.2578 10.4004 14.2578 10.0098C14.2578 9.61914 13.9771 9.36279 13.5742 9.36279L10.0342 9.36279C10.022 9.24072 10.0098 9.11865 10.0098 8.99658C10.0098 7.67822 10.9497 6.7749 12.561 6.7749C13.4644 6.7749 14.0015 6.99463 14.3799 7.04346C14.8438 7.06787 15.0757 6.79932 15.0757 6.39648C15.0757 6.0791 14.917 5.82275 14.4897 5.65186C13.916 5.41992 13.2202 5.33447 12.4756 5.33447C9.96094 5.33447 8.41064 6.79932 8.41064 9.09424C8.41064 9.19189 8.42285 9.26514 8.43506 9.36279L7.50732 9.36279C7.1167 9.36279 6.83594 9.61914 6.83594 10.0098C6.83594 10.4004 7.1167 10.6689 7.50732 10.6689L8.64258 10.6689C8.72803 11.0229 8.82568 11.377 8.91113 11.731L7.50732 11.731C7.1167 11.731 6.83594 11.9873 6.83594 12.3779C6.83594 12.7686 7.1167 13.0371 7.50732 13.0371L9.10645 13.0371C9.11865 13.1714 9.10645 13.2935 9.09424 13.4399C8.97217 14.5142 8.26416 15.2466 7.43408 15.4785C6.98242 15.625 6.79932 15.8691 6.79932 16.272Z" fill="#5ac8f5"/>
 </g>
</svg>
