<?xml version="1.0" encoding="UTF-8"?>
<!--Generator: Apple Native CoreSVG 175.5-->
<!DOCTYPE svg
PUBLIC "-//W3C//DTD SVG 1.1//EN"
       "http://www.w3.org/Graphics/SVG/1.1/DTD/svg11.dtd">
<svg version="1.1" xmlns="http://www.w3.org/2000/svg" xmlns:xlink="http://www.w3.org/1999/xlink" width="22.4731" height="22.4976">
 <g>
  <rect height="22.4976" opacity="0" width="22.4731" x="0" y="0"/>
  <path d="M3.83301 22.4976L18.6401 22.4976C21.2036 22.4976 22.4731 21.228 22.4731 18.7134L22.4731 3.80859C22.4731 1.29395 21.2036 0.0244141 18.6401 0.0244141L3.83301 0.0244141C1.28174 0.0244141 0 1.28174 0 3.80859L0 18.7134C0 21.2402 1.28174 22.4976 3.83301 22.4976ZM3.85742 20.5322C2.63672 20.5322 1.96533 19.8853 1.96533 18.6157L1.96533 3.90625C1.96533 2.63672 2.63672 1.98975 3.85742 1.98975L18.6157 1.98975C19.8242 1.98975 20.5078 2.63672 20.5078 3.90625L20.5078 18.6157C20.5078 19.8853 19.8242 20.5322 18.6157 20.5322Z" fill="#5ac8f5" fill-opacity="0.5"/>
  <path d="M13.4888 17.0898C13.916 17.0898 14.2212 16.7847 14.2212 16.3452L14.2212 6.17676C14.2212 5.76172 13.916 5.40771 13.4766 5.40771C13.1592 5.40771 12.9517 5.54199 12.5977 5.85938L9.79004 8.5083C9.75342 8.55713 9.66797 8.56934 9.60693 8.56934L7.71484 8.56934C6.81152 8.56934 6.32324 9.06982 6.32324 10.022L6.32324 12.4878C6.32324 13.4399 6.81152 13.9404 7.71484 13.9404L9.60693 13.9404C9.66797 13.9404 9.75342 13.9648 9.79004 14.0015L12.5977 16.6748C12.915 16.9678 13.1714 17.0898 13.4888 17.0898Z" fill="#5ac8f5"/>
 </g>
</svg>
