<?xml version="1.0" encoding="UTF-8"?>
<!--Generator: Apple Native CoreSVG 175.5-->
<!DOCTYPE svg
PUBLIC "-//W3C//DTD SVG 1.1//EN"
       "http://www.w3.org/Graphics/SVG/1.1/DTD/svg11.dtd">
<svg version="1.1" xmlns="http://www.w3.org/2000/svg" xmlns:xlink="http://www.w3.org/1999/xlink" width="25.6592" height="25.8911">
 <g>
  <rect height="25.8911" opacity="0" width="25.6592" x="0" y="0"/>
  <path d="M9.05762 18.0542L16.6016 18.0542C18.3105 18.0542 19.2139 17.0532 19.2139 15.4419L19.2139 13.3545L23.8403 13.3545C24.8535 13.3545 25.6592 12.7563 25.6592 11.8164C25.6592 11.2427 25.3662 10.791 24.8169 10.3149L14.3433 1.07422C13.8306 0.634766 13.3789 0.341797 12.8296 0.341797C12.2803 0.341797 11.8286 0.634766 11.3159 1.07422L0.842285 10.3271C0.268555 10.8276 0 11.2427 0 11.8164C0 12.7563 0.805664 13.3545 1.81885 13.3545L6.44531 13.3545L6.44531 15.4419C6.44531 17.0532 7.34863 18.0542 9.05762 18.0542ZM9.25293 16.2109C8.80127 16.2109 8.48389 15.9058 8.48389 15.4419L8.48389 11.9263C8.48389 11.6333 8.37402 11.5112 8.06885 11.5112L2.75879 11.5112C2.67334 11.5112 2.62451 11.4746 2.62451 11.4136C2.62451 11.3647 2.64893 11.3159 2.69775 11.2671L12.5732 2.69775C12.6709 2.6001 12.7441 2.56348 12.8296 2.56348C12.915 2.56348 12.9883 2.6001 13.0859 2.69775L22.9614 11.2671C23.0103 11.3159 23.0347 11.3647 23.0347 11.4136C23.0347 11.4746 22.9858 11.5112 22.9004 11.5112L17.5903 11.5112C17.2974 11.5112 17.1753 11.6333 17.1753 11.9263L17.1753 15.4419C17.1753 15.8936 16.8457 16.2109 16.4062 16.2109ZM8.53271 25.8911L17.0166 25.8911C18.4326 25.8911 19.2383 25.1099 19.2383 23.6938L19.2383 21.9482C19.2383 20.52 18.4326 19.7144 17.0166 19.7144L8.53271 19.7144C7.12891 19.7144 6.32324 20.5322 6.32324 21.9482L6.32324 23.6938C6.32324 25.0977 7.12891 25.8911 8.53271 25.8911ZM8.81348 24.1699C8.38623 24.1699 8.1665 23.9502 8.1665 23.5229L8.1665 22.1191C8.1665 21.6919 8.38623 21.4355 8.81348 21.4355L16.7358 21.4355C17.1631 21.4355 17.395 21.6919 17.395 22.1191L17.395 23.5229C17.395 23.9502 17.1631 24.1699 16.7358 24.1699Z" fill="#5ac8f5"/>
 </g>
</svg>
