<?xml version="1.0" encoding="UTF-8"?>
<!--Generator: Apple Native CoreSVG 175.5-->
<!DOCTYPE svg
PUBLIC "-//W3C//DTD SVG 1.1//EN"
       "http://www.w3.org/Graphics/SVG/1.1/DTD/svg11.dtd">
<svg version="1.1" xmlns="http://www.w3.org/2000/svg" xmlns:xlink="http://www.w3.org/1999/xlink" width="24.9634" height="30.7495">
 <g>
  <rect height="30.7495" opacity="0" width="24.9634" x="0" y="0"/>
  <path d="M3.78418 30.7129L15.2588 30.7129C17.7856 30.7129 19.043 29.4189 19.043 26.8799L19.043 17.2363L10.5225 17.2363C8.94775 17.2363 8.21533 16.4917 8.21533 14.9292L8.21533 6.09131L3.78418 6.09131C1.26953 6.09131 0 7.37305 0 9.92432L0 26.8799C0 29.4312 1.25732 30.7129 3.78418 30.7129ZM10.5103 15.564L18.8232 15.564C18.7012 15.0879 18.4204 14.6484 17.8711 14.0869L11.3525 7.44629C10.8154 6.89697 10.3516 6.53076 9.87549 6.39648L9.87549 14.9414C9.87549 15.3564 10.0952 15.564 10.5103 15.564ZM20.7031 24.6216L21.1792 24.6216C23.6816 24.6216 24.9634 23.3276 24.9634 20.7886L24.9634 9.2041L18.2129 9.2041C16.9312 9.2041 16.2109 8.48389 16.2109 7.21436L16.2109 0L9.70459 0C7.22656 0 5.92041 1.29395 5.92041 3.73535L5.92041 4.43115L7.69043 4.43115C9.39941 4.43115 10.7788 4.82178 12.146 6.18896L19.0796 13.1104C20.4468 14.4897 20.7031 15.9058 20.7031 17.5659ZM18.4448 7.67822L24.8169 7.67822C24.7559 7.2876 24.4873 6.9458 24.0601 6.51855L18.8965 1.25732C18.4814 0.817871 18.1274 0.549316 17.749 0.500488L17.7612 6.97021C17.7612 7.4707 17.9443 7.67822 18.4448 7.67822Z" fill="#5ac8f5"/>
 </g>
</svg>
