<?xml version="1.0" encoding="UTF-8"?>
<!--Generator: Apple Native CoreSVG 175.5-->
<!DOCTYPE svg
PUBLIC "-//W3C//DTD SVG 1.1//EN"
       "http://www.w3.org/Graphics/SVG/1.1/DTD/svg11.dtd">
<svg version="1.1" xmlns="http://www.w3.org/2000/svg" xmlns:xlink="http://www.w3.org/1999/xlink" width="28.0259" height="30.072">
 <g>
  <rect height="30.072" opacity="0" width="28.0259" x="0" y="0"/>
  <path d="M1.30473 24.2828L6.79789 29.7882C7.17631 30.1666 7.82328 30.1666 8.2017 29.7882C8.58012 29.3976 8.56791 28.775 8.2017 28.3966L4.61283 24.7955L22.7769 6.63147L26.3658 10.2203C26.7442 10.5988 27.3545 10.611 27.7329 10.2325C28.1236 9.85413 28.1236 9.23157 27.7329 8.84094L22.2398 3.34778C20.482 1.58997 18.2115 1.60217 16.4414 3.3844L1.34135 18.4845C-0.428673 20.2545-0.453087 22.525 1.30473 24.2828ZM21.3243 7.70569L20.1768 8.88977L24.0464 12.7472C24.376 13.089 24.9009 13.089 25.2061 12.7594C25.5357 12.442 25.5479 11.9171 25.2183 11.5875ZM18.9073 10.1227L17.7598 11.3068L21.6294 15.1642C21.959 15.4938 22.4839 15.4938 22.7891 15.1764C23.1065 14.859 23.1187 14.3341 22.8013 14.0167ZM16.5025 12.5397L15.355 13.7238L19.2124 17.5934C19.542 17.9108 20.0669 17.9108 20.3721 17.6056C20.7017 17.276 20.7139 16.7511 20.3843 16.4337ZM14.0977 14.9567L12.938 16.1163L16.8077 19.9982C17.1372 20.3278 17.6621 20.3278 17.9673 19.9982C18.2847 19.6808 18.2969 19.1437 17.9795 18.8385ZM11.6807 17.3737L10.521 18.5333L14.3907 22.4274C14.708 22.7448 15.2329 22.7448 15.5503 22.4274C15.8677 22.0978 15.8799 21.5729 15.5625 21.2555ZM9.26371 19.7906L8.10404 20.9503L11.9737 24.8444C12.3033 25.1617 12.8282 25.1617 13.1333 24.8444C13.4507 24.5148 13.4629 23.9899 13.1455 23.6725ZM6.84672 22.2076L5.68705 23.3673L9.55668 27.2614C9.87406 27.5787 10.399 27.5787 10.7163 27.2614C11.0337 26.9318 11.0459 26.4069 10.7286 26.0895Z" fill="#5ac8f5"/>
 </g>
</svg>
