<?xml version="1.0" encoding="UTF-8"?>
<!--Generator: Apple Native CoreSVG 175.5-->
<!DOCTYPE svg
PUBLIC "-//W3C//DTD SVG 1.1//EN"
       "http://www.w3.org/Graphics/SVG/1.1/DTD/svg11.dtd">
<svg version="1.1" xmlns="http://www.w3.org/2000/svg" xmlns:xlink="http://www.w3.org/1999/xlink" width="28.6865" height="20.8618">
 <g>
  <rect height="20.8618" opacity="0" width="28.6865" x="0" y="0"/>
  <path d="M0.744629 10.2295L0.744629 11.5723L12.4268 11.5723C11.7065 13.0615 9.36279 15.2588 7.66602 15.4419C7.04346 15.5029 6.68945 15.8936 6.68945 16.4795C6.68945 17.0166 7.1167 17.5171 7.8125 17.4194C9.69238 17.1265 12.7075 14.9414 13.5132 12.4268L13.5986 12.4268L13.5986 20.5933L15.0757 20.5933L15.0757 12.4268L15.1733 12.4268C15.979 14.9414 18.9941 17.1265 20.874 17.4194C21.5698 17.5171 21.9971 17.0166 21.9971 16.4795C21.9971 15.8936 21.6431 15.5029 21.0083 15.4419C19.3237 15.2588 16.9678 13.0615 16.2598 11.5723L27.8198 11.5723L27.8198 10.2295L19.2261 10.2295C20.7764 9.53369 21.8506 8.26416 21.8506 6.72607C21.8506 4.94385 20.5444 3.6377 18.7866 3.6377C17.2607 3.6377 15.8813 4.60205 15.0757 6.16455L15.0757 0.219727L13.5986 0.219727L13.5986 6.16455C12.8052 4.60205 11.4258 3.6377 9.8877 3.6377C8.14209 3.6377 6.82373 4.94385 6.82373 6.72607C6.82373 8.26416 7.91016 9.53369 9.44824 10.2295ZM13.0127 10.0464C10.6079 10.0464 8.54492 8.39844 8.54492 6.86035C8.54492 5.93262 9.10645 5.37109 9.98535 5.37109C11.792 5.37109 13.3789 7.38525 13.3789 9.70459L13.3789 10.0464ZM15.6616 10.0464L15.2954 10.0464L15.2954 9.70459C15.2954 7.38525 16.8823 5.37109 18.689 5.37109C19.5801 5.37109 20.1294 5.93262 20.1294 6.86035C20.1294 8.39844 18.0786 10.0464 15.6616 10.0464ZM3.83301 20.8618L24.8535 20.8618C27.417 20.8618 28.6865 19.6045 28.6865 17.0898L28.6865 3.79639C28.6865 1.28174 27.417 0.012207 24.8535 0.012207L3.83301 0.012207C1.28174 0.012207 0 1.28174 0 3.79639L0 17.0898C0 19.6045 1.28174 20.8618 3.83301 20.8618ZM3.85742 18.8965C2.63672 18.8965 1.96533 18.2495 1.96533 16.98L1.96533 3.90625C1.96533 2.63672 2.63672 1.97754 3.85742 1.97754L24.8291 1.97754C26.0254 1.97754 26.7212 2.63672 26.7212 3.90625L26.7212 16.98C26.7212 18.2495 26.0254 18.8965 24.8291 18.8965Z" fill="#5ac8f5"/>
 </g>
</svg>
