<?xml version="1.0" encoding="UTF-8"?>
<!--Generator: Apple Native CoreSVG 175.5-->
<!DOCTYPE svg
PUBLIC "-//W3C//DTD SVG 1.1//EN"
       "http://www.w3.org/Graphics/SVG/1.1/DTD/svg11.dtd">
<svg version="1.1" xmlns="http://www.w3.org/2000/svg" xmlns:xlink="http://www.w3.org/1999/xlink" width="29.5166" height="22.4976">
 <g>
  <rect height="22.4976" opacity="0" width="29.5166" x="0" y="0"/>
  <path d="M10.498 22.4976L19.0308 22.4976C26.2939 22.4976 29.5166 19.165 29.5166 12.3169L29.5166 3.80859C29.5166 1.29395 28.2349 0.0244141 25.6836 0.0244141L3.83301 0.0244141C1.28174 0.0244141 0 1.28174 0 3.80859L0 12.3169C0 19.165 3.22266 22.4976 10.498 22.4976ZM10.498 20.5078C4.56543 20.5078 1.96533 17.9077 1.96533 12.439L1.96533 3.90625C1.96533 2.63672 2.63672 1.98975 3.85742 1.98975L25.6592 1.98975C26.8677 1.98975 27.5513 2.63672 27.5513 3.90625L27.5513 12.439C27.5513 17.9077 24.9512 20.5078 19.0186 20.5078Z" fill="#5ac8f5"/>
 </g>
</svg>
