<?xml version="1.0" encoding="UTF-8"?>
<!--Generator: Apple Native CoreSVG 175.5-->
<!DOCTYPE svg
PUBLIC "-//W3C//DTD SVG 1.1//EN"
       "http://www.w3.org/Graphics/SVG/1.1/DTD/svg11.dtd">
<svg version="1.1" xmlns="http://www.w3.org/2000/svg" xmlns:xlink="http://www.w3.org/1999/xlink" width="16.4673" height="24.353">
 <g>
  <rect height="24.353" opacity="0" width="16.4673" x="0" y="0"/>
  <path d="M0 21.1792C0 23.0835 1.33057 24.353 3.32031 24.353L13.1348 24.353C15.1245 24.353 16.4673 23.0835 16.4673 21.1792L16.4673 3.17383C16.4673 1.26953 15.1245 0 13.1348 0L3.32031 0C1.33057 0 0 1.26953 0 3.17383ZM1.96533 9.30176L1.96533 3.49121C1.96533 2.51465 2.53906 1.96533 3.57666 1.96533L12.8906 1.96533C13.916 1.96533 14.502 2.51465 14.502 3.49121L14.502 9.30176C14.502 10.2905 13.916 10.8398 12.8906 10.8398L3.57666 10.8398C2.53906 10.8398 1.96533 10.2905 1.96533 9.30176ZM8.23975 21.8994C5.70068 21.8994 3.62549 19.8486 3.62549 17.3096C3.62549 14.7583 5.70068 12.7075 8.23975 12.7075C10.7666 12.7075 12.8418 14.7583 12.8418 17.3096C12.8418 19.8486 10.7666 21.8994 8.23975 21.8994ZM8.23975 20.1782C6.64062 20.1782 5.34668 18.8843 5.34668 17.3096C5.34668 15.7227 6.64062 14.4287 8.23975 14.4287C9.82666 14.4287 11.1084 15.7227 11.1084 17.3096C11.1084 18.8843 9.82666 20.1782 8.23975 20.1782Z" fill="#5ac8f5"/>
 </g>
</svg>
