<?xml version="1.0" encoding="UTF-8"?>
<!--Generator: Apple Native CoreSVG 175.5-->
<!DOCTYPE svg
PUBLIC "-//W3C//DTD SVG 1.1//EN"
       "http://www.w3.org/Graphics/SVG/1.1/DTD/svg11.dtd">
<svg version="1.1" xmlns="http://www.w3.org/2000/svg" xmlns:xlink="http://www.w3.org/1999/xlink" width="25.0854" height="24.1577">
 <g>
  <rect height="24.1577" opacity="0" width="25.0854" x="0" y="0"/>
  <path d="M8.83789 24.1455L16.2476 24.1455C17.7979 24.1455 18.5303 23.645 19.3359 22.7783L24.0723 17.5537C24.8657 16.6748 25.0854 16.0767 25.0854 14.8682L25.0854 9.28955C25.0854 8.06885 24.8657 7.48291 24.0723 6.604L19.3359 1.37939C18.5303 0.512695 17.7979 0 16.2476 0L8.83789 0C7.2876 0 6.54297 0.512695 5.74951 1.37939L1.01318 6.604C0.20752 7.48291 0 8.06885 0 9.28955L0 14.8682C0 16.0767 0.20752 16.6748 1.01318 17.5537L5.74951 22.7783C6.54297 23.645 7.2876 24.1455 8.83789 24.1455ZM9.49707 22.1924C8.27637 22.1924 7.92236 21.9238 7.25098 21.1914L2.84424 16.3696C2.36816 15.8325 2.2583 15.5273 2.2583 14.6362L2.2583 9.52148C2.2583 8.63037 2.36816 8.3252 2.84424 7.78809L7.25098 2.96631C7.92236 2.22168 8.27637 1.96533 9.49707 1.96533L15.5884 1.96533C16.8091 1.96533 17.1509 2.22168 17.8345 2.96631L22.229 7.78809C22.7173 8.3252 22.8271 8.63037 22.8271 9.52148L22.8271 14.6362C22.8271 15.5273 22.7173 15.8325 22.229 16.3696L17.8345 21.1914C17.1509 21.9238 16.8091 22.1924 15.5884 22.1924Z" fill="#5ac8f5" fill-opacity="0.5"/>
  <path d="M8.38623 17.2363C8.65479 17.2363 8.89893 17.1265 9.08203 16.9312L12.5488 13.4644L16.0156 16.9312C16.1987 17.1143 16.4429 17.2363 16.7236 17.2363C17.2607 17.2363 17.7002 16.7969 17.7002 16.2476C17.7002 15.9668 17.5903 15.7471 17.4072 15.5518L13.9404 12.085L17.4194 8.59375C17.6147 8.38623 17.7124 8.17871 17.7124 7.91016C17.7124 7.37305 17.2729 6.93359 16.7358 6.93359C16.4795 6.93359 16.2598 7.03125 16.0522 7.23877L12.5488 10.7178L9.05762 7.25098C8.87451 7.05566 8.65479 6.95801 8.38623 6.95801C7.84912 6.95801 7.40967 7.38525 7.40967 7.92236C7.40967 8.19092 7.50732 8.42285 7.70264 8.60596L11.1694 12.085L7.70264 15.564C7.50732 15.7471 7.40967 15.979 7.40967 16.2476C7.40967 16.7969 7.84912 17.2363 8.38623 17.2363Z" fill="#5ac8f5"/>
 </g>
</svg>
