<?xml version="1.0" encoding="UTF-8"?>
<!--Generator: Apple Native CoreSVG 175.5-->
<!DOCTYPE svg
PUBLIC "-//W3C//DTD SVG 1.1//EN"
       "http://www.w3.org/Graphics/SVG/1.1/DTD/svg11.dtd">
<svg version="1.1" xmlns="http://www.w3.org/2000/svg" xmlns:xlink="http://www.w3.org/1999/xlink" width="31.1161" height="26.504">
 <g>
  <rect height="26.504" opacity="0" width="31.1161" x="0" y="0"/>
  <path d="M10.6571 24.9646L27.0024 24.9646C29.1264 24.9646 30.2494 23.8904 30.2494 21.7542L30.2494 20.9729L24.5976 15.6263C24.1215 15.1868 23.5356 14.9671 22.9374 14.9671C22.3393 14.9671 21.8022 15.1624 21.2895 15.6141L16.3578 19.9842L14.4047 18.2142C13.9286 17.7869 13.4403 17.5916 12.9154 17.5916C12.4394 17.5916 11.9877 17.7869 11.5116 18.1897L7.39786 21.7664C7.39786 23.8904 8.53312 24.9646 10.6571 24.9646ZM15.4789 15.8948C16.9071 15.8948 18.0668 14.7107 18.0668 13.2825C18.0668 11.8787 16.9071 10.6946 15.4789 10.6946C14.0507 10.6946 12.9032 11.8787 12.9032 13.2825C12.9032 14.7107 14.0507 15.8948 15.4789 15.8948ZM2.10001 18.7024C2.55167 21.1805 4.00431 22.1936 6.53117 21.7542L8.04484 21.4978L8.04484 19.5081L6.22599 19.8133C5.01749 20.033 4.23624 19.5081 4.01652 18.263L2.05118 7.13017C1.83146 5.87284 2.38077 5.1038 3.58927 4.89628L19.8124 2.03984C20.9965 1.83232 21.79 2.34501 22.0219 3.60234L22.6567 7.15458L24.6464 7.15458L23.9262 3.16288C23.4867 0.684856 22.0219-0.340535 19.5072 0.0989182L3.21085 2.96757C0.696204 3.41923-0.341393 4.88407 0.0980598 7.3621ZM10.6205 25.6116L27.2953 25.6116C29.8344 25.6116 31.1161 24.3421 31.1161 21.8274L31.1161 10.3162C31.1161 7.80155 29.8344 6.53202 27.2953 6.53202L10.6205 6.53202C8.05704 6.53202 6.78751 7.80155 6.78751 10.3162L6.78751 21.8274C6.78751 24.3543 8.05704 25.6116 10.6205 25.6116ZM10.6449 23.6463C9.42423 23.6463 8.75284 22.9993 8.75284 21.7298L8.75284 10.4261C8.75284 9.15654 9.42423 8.49736 10.6449 8.49736L27.2587 8.49736C28.4672 8.49736 29.1508 9.15654 29.1508 10.4261L29.1508 21.7298C29.1508 22.9993 28.4672 23.6463 27.2587 23.6463Z" fill="#5ac8f5"/>
 </g>
</svg>
