<?xml version="1.0" encoding="UTF-8"?>
<!--Generator: Apple Native CoreSVG 175.5-->
<!DOCTYPE svg
PUBLIC "-//W3C//DTD SVG 1.1//EN"
       "http://www.w3.org/Graphics/SVG/1.1/DTD/svg11.dtd">
<svg version="1.1" xmlns="http://www.w3.org/2000/svg" xmlns:xlink="http://www.w3.org/1999/xlink" width="17.4683" height="27.8687">
 <g>
  <rect height="27.8687" opacity="0" width="17.4683" x="0" y="0"/>
  <path d="M0 12.9028C0 17.688 3.16162 21.0449 7.8125 21.4355L7.8125 24.2798L3.28369 24.2798C2.771 24.2798 2.35596 24.6948 2.35596 25.2075C2.35596 25.7202 2.771 26.123 3.28369 26.123L14.1846 26.123C14.6973 26.123 15.1123 25.7202 15.1123 25.2075C15.1123 24.6948 14.6973 24.2798 14.1846 24.2798L9.65576 24.2798L9.65576 21.4355C14.3188 21.0449 17.4683 17.688 17.4683 12.9028L17.4683 10.4248C17.4683 9.91211 17.0654 9.50928 16.5527 9.50928C16.04 9.50928 15.625 9.91211 15.625 10.4248L15.625 12.8296C15.625 16.9922 12.915 19.751 8.74023 19.751C4.55322 19.751 1.84326 16.9922 1.84326 12.8296L1.84326 10.4248C1.84326 9.91211 1.44043 9.50928 0.915527 9.50928C0.402832 9.50928 0 9.91211 0 10.4248ZM4.29688 12.4634C4.29688 15.271 6.10352 17.2485 8.74023 17.2485C11.3647 17.2485 13.1714 15.271 13.1714 12.4634L13.1714 4.78516C13.1714 1.96533 11.3647 0 8.74023 0C6.10352 0 4.29688 1.96533 4.29688 4.78516ZM6.14014 12.4634L6.14014 4.78516C6.14014 2.97852 7.17773 1.81885 8.74023 1.81885C10.3027 1.81885 11.3281 2.97852 11.3281 4.78516L11.3281 12.4634C11.3281 14.27 10.3027 15.4297 8.74023 15.4297C7.17773 15.4297 6.14014 14.27 6.14014 12.4634Z" fill="#5ac8f5"/>
 </g>
</svg>
