<?xml version="1.0" encoding="UTF-8"?>
<!--Generator: Apple Native CoreSVG 175.5-->
<!DOCTYPE svg
PUBLIC "-//W3C//DTD SVG 1.1//EN"
       "http://www.w3.org/Graphics/SVG/1.1/DTD/svg11.dtd">
<svg version="1.1" xmlns="http://www.w3.org/2000/svg" xmlns:xlink="http://www.w3.org/1999/xlink" width="27.4292" height="26.6724">
 <g>
  <rect height="26.6724" opacity="0" width="27.4292" x="0" y="0"/>
  <path d="M6.81152 26.6724L20.6177 26.6724C22.168 26.6724 22.9492 25.9766 22.9492 24.353L22.9492 22.0093L23.7915 22.0093C26.1719 22.0093 27.4292 20.813 27.4292 18.4326L27.4292 8.49609C27.4292 6.11572 26.1719 4.90723 23.7915 4.90723L3.62549 4.90723C1.37939 4.90723 0 6.11572 0 8.49609L0 18.4326C0 20.813 1.25732 22.0093 3.62549 22.0093L4.47998 22.0093L4.47998 24.353C4.47998 25.9766 5.26123 26.6724 6.81152 26.6724ZM7.42188 24.8413C6.7627 24.8413 6.44531 24.5239 6.44531 23.8647L6.44531 14.7949C6.44531 14.1479 6.7749 13.8306 7.42188 13.8306L20.0195 13.8306C20.6665 13.8306 20.9839 14.1479 20.9839 14.7949L20.9839 23.8647C20.9839 24.5239 20.6665 24.8413 20.0195 24.8413ZM4.83398 3.28369L22.5952 3.28369L22.5952 3.07617C22.5952 1.26953 21.1914 0.463867 19.2139 0.463867L8.21533 0.463867C6.32324 0.463867 4.83398 1.26953 4.83398 3.07617ZM9.48486 17.9932L17.9688 17.9932C18.396 17.9932 18.7256 17.6636 18.7256 17.2241C18.7256 16.8091 18.396 16.4917 17.9688 16.4917L9.48486 16.4917C9.0332 16.4917 8.71582 16.8091 8.71582 17.2241C8.71582 17.6636 9.0332 17.9932 9.48486 17.9932ZM9.48486 22.2534L17.9688 22.2534C18.396 22.2534 18.7256 21.9238 18.7256 21.5088C18.7256 21.0815 18.396 20.752 17.9688 20.752L9.48486 20.752C9.0332 20.752 8.71582 21.0815 8.71582 21.5088C8.71582 21.9238 9.0332 22.2534 9.48486 22.2534ZM19.6533 8.94775C19.6533 8.10547 20.3735 7.37305 21.2402 7.37305C22.0703 7.37305 22.8027 8.10547 22.8027 8.94775C22.8027 9.81445 22.0703 10.498 21.2402 10.5103C20.3735 10.5103 19.6533 9.82666 19.6533 8.94775Z" fill="#5ac8f5"/>
 </g>
</svg>
