<?xml version="1.0" encoding="UTF-8"?>
<!--Generator: Apple Native CoreSVG 175.5-->
<!DOCTYPE svg
PUBLIC "-//W3C//DTD SVG 1.1//EN"
       "http://www.w3.org/Graphics/SVG/1.1/DTD/svg11.dtd">
<svg version="1.1" xmlns="http://www.w3.org/2000/svg" xmlns:xlink="http://www.w3.org/1999/xlink" width="35.1812" height="18.2983">
 <g>
  <rect height="18.2983" opacity="0" width="35.1812" x="0" y="0"/>
  <path d="M1.00113 18.2983L2.58804 18.2983C3.32047 18.2983 3.68668 17.9443 3.8942 17.4194L10.6325 0.78125C10.8034 0.378418 10.6081 0.0244141 10.1808 0.0244141L9.38736 0.0244141C8.96011 0.0244141 8.69156 0.231934 8.50845 0.598145L0.146638 16.9434C-0.195159 17.5659 0.0489813 18.2983 1.00113 18.2983ZM32.5929 18.2983L34.192 18.2983C35.132 18.2983 35.3761 17.5659 35.0343 16.9434L26.6847 0.598145C26.4894 0.231934 26.2209 0.0244141 25.7936 0.0244141L25.0002 0.0244141C24.5729 0.0244141 24.3898 0.378418 24.5485 0.78125L31.2868 17.4194C31.4943 17.9443 31.8605 18.2983 32.5929 18.2983ZM17.5783 17.395C17.9689 17.395 18.2497 17.1143 18.2497 16.6992L18.2497 15.3564L19.2995 15.9546C19.6657 16.1621 20.0197 16.0767 20.215 15.7471C20.3859 15.4419 20.276 15.0635 19.9342 14.856L18.2497 13.916L18.2497 13.0615L18.1154 10.7056L20.1173 11.9873L20.8376 12.4146L20.8253 14.3555C20.8253 14.7461 21.0817 15.0391 21.4357 15.0391C21.8263 15.0391 22.0705 14.7705 22.0705 14.3555L22.0827 13.1226L23.2545 13.8062C23.5963 14.0137 23.9626 13.9282 24.1823 13.5864C24.3776 13.2324 24.2677 12.854 23.9137 12.6465L22.7419 11.9751L23.7917 11.3647C24.1457 11.145 24.2677 10.8032 24.0846 10.4858C23.8893 10.1685 23.4987 10.083 23.1569 10.2783L21.4967 11.2549L20.7643 10.8276L18.6403 9.76562L20.7643 8.70361L21.4967 8.26416L23.1569 9.25293C23.4987 9.43604 23.9015 9.36279 24.0846 9.05762C24.2677 8.71582 24.1457 8.38623 23.7917 8.1543L22.7419 7.54395L23.9137 6.88477C24.2677 6.67725 24.3776 6.31104 24.1823 5.94482C23.987 5.60303 23.5963 5.51758 23.2545 5.71289L22.0827 6.39648L22.0705 5.17578C22.0705 4.77295 21.8263 4.47998 21.4479 4.47998C21.0817 4.47998 20.8253 4.78516 20.8253 5.17578L20.8376 7.10449L20.1173 7.53174L18.1154 8.82568L18.2497 6.46973L18.2497 5.61523L19.9342 4.67529C20.276 4.46777 20.3859 4.08936 20.215 3.78418C20.0197 3.45459 19.6657 3.36914 19.2995 3.57666L18.2497 4.1748L18.2497 2.83203C18.2497 2.40479 17.9689 2.13623 17.5783 2.13623C17.1999 2.13623 16.9191 2.41699 16.9191 2.83203L16.9191 4.18701L15.8571 3.57666C15.4787 3.38135 15.1369 3.45459 14.9416 3.78418C14.7707 4.08936 14.8927 4.46777 15.2223 4.66309L16.9191 5.61523L16.9191 6.46973L17.0534 8.82568L15.0636 7.54395L14.319 7.10449L14.3312 5.17578C14.3312 4.78516 14.0749 4.47998 13.7209 4.47998C13.3302 4.47998 13.0983 4.76074 13.0983 5.17578L13.0861 6.39648L11.9142 5.71289C11.5602 5.50537 11.1696 5.61523 10.9743 5.94482C10.779 6.29883 10.8888 6.67725 11.2428 6.88477L12.4147 7.54395L11.3649 8.1543C11.0109 8.37402 10.8888 8.70361 11.0719 9.05762C11.255 9.36279 11.6579 9.44824 11.9997 9.25293L13.6598 8.27637L14.3922 8.70361L16.5163 9.76562L14.3922 10.8276L13.6598 11.2549L11.9997 10.2783C11.6579 10.083 11.255 10.1562 11.0841 10.4614C10.901 10.8032 10.9987 11.1572 11.3649 11.3647L12.4147 11.9751L11.2428 12.6465C10.8888 12.854 10.7912 13.2324 10.9743 13.5864C11.1818 13.9282 11.5602 14.0137 11.9142 13.8062L13.0861 13.1348L13.0983 14.3555C13.0983 14.7705 13.3302 15.0391 13.7209 15.0391C14.0749 15.0391 14.3312 14.7461 14.3312 14.3555L14.319 12.4146L15.0636 11.9873L17.0534 10.7056L16.9191 13.0615L16.9191 13.916L15.2223 14.8682C14.8927 15.0635 14.7707 15.4419 14.9416 15.7471C15.1369 16.0767 15.4787 16.1499 15.8571 15.9546L16.9191 15.3442L16.9191 16.6992C16.9191 17.1021 17.1999 17.395 17.5783 17.395Z" fill="#5ac8f5"/>
 </g>
</svg>
