<?xml version="1.0" encoding="UTF-8"?>
<!--Generator: Apple Native CoreSVG 175.5-->
<!DOCTYPE svg
PUBLIC "-//W3C//DTD SVG 1.1//EN"
       "http://www.w3.org/Graphics/SVG/1.1/DTD/svg11.dtd">
<svg version="1.1" xmlns="http://www.w3.org/2000/svg" xmlns:xlink="http://www.w3.org/1999/xlink" width="35.1281" height="25.2808">
 <g>
  <rect height="25.2808" opacity="0" width="35.1281" x="0" y="0"/>
  <path d="M10.8037 19.397L9.33883 13.0493L7.87399 19.397L4.84665 19.397L8.78952 11.1206C8.91159 10.8521 9.11911 10.73 9.33883 10.73C9.57077 10.73 9.79049 10.8521 9.91256 11.1206L13.3672 18.396L15.8086 13.623L10.7426 3.49121C10.4497 2.92969 9.92477 2.55127 9.33883 2.55127C8.7529 2.55127 8.22799 2.92969 7.93502 3.49121L0.207973 18.9819C-0.292515 19.9707 0.110317 21.1914 1.41647 21.1914L11.9389 21.1914L12.8667 19.397Z" fill="#5ac8f5" fill-opacity="0.5"/>
  <path d="M11.768 25.2808L33.5088 25.2808C35.0346 25.2808 35.4619 23.9014 34.8759 22.7417L24.2924 1.52588C23.9384 0.830078 23.3037 0.402832 22.6445 0.402832C21.9731 0.402832 21.3506 0.805664 21.021 1.48926L10.4131 22.7417C9.82711 23.9014 10.2544 25.2808 11.768 25.2808ZM16.4922 23.4009L21.8632 12.1094C22.0341 11.7554 22.3271 11.5845 22.6445 11.5845C22.9497 11.5845 23.2426 11.7554 23.4135 12.1094L28.7846 23.4009L24.6098 23.4009L22.6445 14.7583L20.667 23.4009Z" fill="#5ac8f5"/>
 </g>
</svg>
