<?xml version="1.0" encoding="UTF-8"?>
<!--Generator: Apple Native CoreSVG 175.5-->
<!DOCTYPE svg
PUBLIC "-//W3C//DTD SVG 1.1//EN"
       "http://www.w3.org/Graphics/SVG/1.1/DTD/svg11.dtd">
<svg version="1.1" xmlns="http://www.w3.org/2000/svg" xmlns:xlink="http://www.w3.org/1999/xlink" width="25.1099" height="31.1157">
 <g>
  <rect height="31.1157" opacity="0" width="25.1099" x="0" y="0"/>
  <path d="M3.39355 19.6533L21.7163 19.6533C23.9868 19.6533 25.1099 18.5425 25.1099 16.3208L25.1099 3.36914C25.1099 1.14746 23.9868 0.012207 21.7163 0.012207L3.39355 0.012207C1.14746 0.012207 0 1.15967 0 3.36914L0 16.3208C0 18.5303 1.13525 19.6533 3.39355 19.6533ZM3.41797 17.7979C2.39258 17.7979 1.84326 17.2607 1.84326 16.2109L1.84326 3.4668C1.84326 2.4292 2.39258 1.85547 3.41797 1.85547L21.7041 1.85547C22.7173 1.85547 23.2666 2.41699 23.2666 3.4668L23.2666 16.2109C23.2666 17.2485 22.7173 17.7979 21.7041 17.7979ZM23.9502 15.7349L17.6636 9.81445C17.1875 9.38721 16.626 9.16748 16.0522 9.16748C15.4785 9.16748 14.9658 9.375 14.4653 9.80225L9.68018 14.0869L7.72705 12.3047C7.2876 11.9019 6.79932 11.6943 6.27441 11.6943C5.81055 11.6943 5.37109 11.9019 4.91943 12.3047L0.90332 15.9424C0.964355 17.8467 1.74561 18.8232 3.33252 18.8232L21.0815 18.8232C22.998 18.8232 23.9502 17.7612 23.9502 15.7349ZM7.94678 9.93652C9.31396 9.93652 10.4492 8.80127 10.4492 7.42188C10.4492 6.05469 9.31396 4.93164 7.94678 4.93164C6.56738 4.93164 5.45654 6.05469 5.45654 7.42188C5.45654 8.80127 6.56738 9.93652 7.94678 9.93652ZM0.915527 25.3906L24.1821 25.3906C24.6948 25.3906 25.1099 24.9878 25.1099 24.4629C25.1099 23.9502 24.6948 23.5474 24.1821 23.5474L0.915527 23.5474C0.402832 23.5474 0 23.9502 0 24.4629C0 24.9878 0.402832 25.3906 0.915527 25.3906ZM0.915527 31.1157L15.9668 31.1157C16.4795 31.1157 16.8945 30.7129 16.8945 30.2002C16.8945 29.6875 16.4795 29.2725 15.9668 29.2725L0.915527 29.2725C0.402832 29.2725 0 29.6875 0 30.2002C0 30.7129 0.402832 31.1157 0.915527 31.1157Z" fill="#5ac8f5"/>
 </g>
</svg>
