<?xml version="1.0" encoding="UTF-8"?>
<!--Generator: Apple Native CoreSVG 175.5-->
<!DOCTYPE svg
PUBLIC "-//W3C//DTD SVG 1.1//EN"
       "http://www.w3.org/Graphics/SVG/1.1/DTD/svg11.dtd">
<svg version="1.1" xmlns="http://www.w3.org/2000/svg" xmlns:xlink="http://www.w3.org/1999/xlink" width="26.4526" height="22.4976">
 <g>
  <rect height="22.4976" opacity="0" width="26.4526" x="0" y="0"/>
  <path d="M22.6196 22.4976C25.1709 22.4976 26.4526 21.2402 26.4526 18.7134L26.4526 3.80859C26.4526 1.28174 25.1709 0.0244141 22.6196 0.0244141L12.0117 0.0244141C10.5835 0.0244141 9.35059 0.390625 8.34961 1.45264L1.15967 8.92334C0.366211 9.74121 0 10.4736 0 11.2427C0 11.9995 0.354004 12.7441 1.15967 13.562L8.36182 20.9961C9.375 22.0459 10.5957 22.4854 12.0239 22.4854Z" fill="#5ac8f5" fill-opacity="0.25"/>
  <path d="M11.3647 16.3818C10.8032 16.3818 10.3516 15.9302 10.3516 15.3564C10.3516 15.0879 10.4614 14.8438 10.6445 14.6484L14.0381 11.2671L10.6445 7.87354C10.4614 7.67822 10.3516 7.43408 10.3516 7.16553C10.3516 6.604 10.8032 6.16455 11.3647 6.16455C11.6455 6.16455 11.8652 6.27441 12.0605 6.45752L15.4663 9.85107L18.8965 6.44531C19.104 6.23779 19.3237 6.14014 19.5923 6.14014C20.1538 6.14014 20.5933 6.5918 20.5933 7.14111C20.5933 7.42188 20.52 7.6416 20.3003 7.86133L16.9067 11.2671L20.2881 14.6362C20.4956 14.8315 20.5811 15.0757 20.5811 15.3564C20.5811 15.9302 20.1416 16.3818 19.5679 16.3818C19.2871 16.3818 19.0308 16.272 18.8477 16.0889L15.4663 12.6831L12.0972 16.0889C11.9019 16.272 11.6455 16.3818 11.3647 16.3818Z" fill="#5ac8f5"/>
 </g>
</svg>
