<?xml version="1.0" encoding="UTF-8"?>
<!--Generator: Apple Native CoreSVG 175.5-->
<!DOCTYPE svg
PUBLIC "-//W3C//DTD SVG 1.1//EN"
       "http://www.w3.org/Graphics/SVG/1.1/DTD/svg11.dtd">
<svg version="1.1" xmlns="http://www.w3.org/2000/svg" xmlns:xlink="http://www.w3.org/1999/xlink" width="24.8901" height="25.0854">
 <g>
  <rect height="25.0854" opacity="0" width="24.8901" x="0" y="0"/>
  <path d="M24.8901 6.11572L24.8901 1.52588C24.8901 0.878906 24.3652 0.463867 23.7427 0.585938L17.4683 1.95312C16.687 2.12402 16.2598 2.55127 16.2598 3.23486L16.2842 16.8091C16.3452 17.4072 16.0645 17.7979 15.5273 17.9077L13.5864 18.3105C11.145 18.8232 9.99756 20.0684 9.99756 21.9116C9.99756 23.7793 11.438 25.0854 13.4644 25.0854C15.2588 25.0854 17.9443 23.7671 17.9443 20.2148L17.9443 9.04541C17.9443 8.39844 18.0664 8.26416 18.6401 8.14209L24.2188 6.92139C24.6338 6.83594 24.8901 6.51855 24.8901 6.11572ZM0.830078 6.68945L11.7432 6.68945C12.1948 6.68945 12.5732 6.31104 12.5732 5.85938C12.5732 5.40771 12.1948 5.0415 11.7432 5.0415L0.830078 5.0415C0.366211 5.0415 0 5.40771 0 5.85938C0 6.31104 0.366211 6.68945 0.830078 6.68945ZM0.830078 11.0352L11.7432 11.0352C12.207 11.0352 12.5732 10.6567 12.5732 10.1929C12.5732 9.74121 12.1948 9.38721 11.7432 9.38721L0.830078 9.38721C0.366211 9.38721 0 9.74121 0 10.1929C0 10.6567 0.354004 11.0352 0.830078 11.0352ZM0.830078 15.3809L11.7432 15.3809C12.207 15.3809 12.5732 15.0146 12.5732 14.5508C12.5732 14.0991 12.1948 13.7329 11.7432 13.7329L0.830078 13.7329C0.366211 13.7329 0 14.0991 0 14.5508C0 15.0146 0.354004 15.3809 0.830078 15.3809Z" fill="#5ac8f5"/>
 </g>
</svg>
