<?xml version="1.0" encoding="UTF-8"?>
<!--Generator: Apple Native CoreSVG 175.5-->
<!DOCTYPE svg
PUBLIC "-//W3C//DTD SVG 1.1//EN"
       "http://www.w3.org/Graphics/SVG/1.1/DTD/svg11.dtd">
<svg version="1.1" xmlns="http://www.w3.org/2000/svg" xmlns:xlink="http://www.w3.org/1999/xlink" width="16.3818" height="24.5728">
 <g>
  <rect height="24.5728" opacity="0" width="16.3818" x="0" y="0"/>
  <path d="M6.44531 20.3735C8.8501 20.3735 10.6567 19.2505 11.5356 17.4561L11.5967 17.4561L11.5967 19.5557C11.5967 20.2148 12.0361 20.6421 12.6709 20.6421C13.2935 20.6421 13.7207 20.2148 13.7207 19.5557L13.7207 1.13525C13.7207 0.427246 13.269 0 12.6099 0C11.9507 0 11.4868 0.427246 11.4868 1.13525L11.4868 9.11865L11.438 9.11865C10.6445 7.33643 8.8501 6.21338 6.44531 6.21338C2.97852 6.21338 0 8.88672 0 13.2935C0 17.7002 2.97852 20.3735 6.44531 20.3735ZM6.9458 18.3838C4.30908 18.3838 2.30713 16.4307 2.30713 13.2935C2.30713 10.1685 4.30908 8.21533 6.9458 8.21533C9.49707 8.21533 11.5112 10.2905 11.5112 13.2935C11.5112 16.2964 9.49707 18.3838 6.9458 18.3838ZM5.95703 3.16162C5.95703 3.58887 6.29883 3.94287 6.72607 3.94287L15.6128 3.94287C16.0278 3.94287 16.3818 3.58887 16.3818 3.16162C16.3818 2.74658 16.0278 2.39258 15.6128 2.39258L6.72607 2.39258C6.29883 2.39258 5.95703 2.74658 5.95703 3.16162ZM1.18408 22.9736C1.18408 23.4131 1.53809 23.7793 1.97754 23.7793L13.6597 23.7793C14.0991 23.7793 14.4531 23.4131 14.4531 22.9736C14.4531 22.5464 14.0991 22.1802 13.6597 22.1802L1.97754 22.1802C1.53809 22.1802 1.18408 22.5464 1.18408 22.9736Z" fill="#5ac8f5"/>
 </g>
</svg>
