<?xml version="1.0" encoding="UTF-8"?>
<!--Generator: Apple Native CoreSVG 175.5-->
<!DOCTYPE svg
PUBLIC "-//W3C//DTD SVG 1.1//EN"
       "http://www.w3.org/Graphics/SVG/1.1/DTD/svg11.dtd">
<svg version="1.1" xmlns="http://www.w3.org/2000/svg" xmlns:xlink="http://www.w3.org/1999/xlink" width="22.4731" height="22.4976">
 <g>
  <rect height="22.4976" opacity="0" width="22.4731" x="0" y="0"/>
  <path d="M3.83301 22.4976L18.6401 22.4976C21.2036 22.4976 22.4731 21.228 22.4731 18.7134L22.4731 3.80859C22.4731 1.29395 21.2036 0.0244141 18.6401 0.0244141L3.83301 0.0244141C1.28174 0.0244141 0 1.28174 0 3.80859L0 18.7134C0 21.2402 1.28174 22.4976 3.83301 22.4976Z" fill="#5ac8f5" fill-opacity="0.25"/>
  <path d="M7.95898 17.0166C7.33643 17.0166 6.95801 16.5894 6.95801 15.8691L6.95801 6.38428C6.95801 5.66406 7.33643 5.23682 7.95898 5.23682C8.61816 5.23682 8.98438 5.66406 8.98438 6.38428L8.98438 10.6934L9.05762 10.6934L14.0137 5.63965C14.3066 5.35889 14.5264 5.23682 14.8315 5.23682C15.3564 5.23682 15.7593 5.62744 15.7593 6.10352C15.7593 6.38428 15.6738 6.5918 15.4541 6.83594L11.9995 10.376L15.7593 15.2954C15.9302 15.5396 16.04 15.8081 16.04 16.0645C16.04 16.6138 15.6372 17.0166 15.0635 17.0166C14.7095 17.0166 14.4409 16.8579 14.1846 16.5161L10.5225 11.6821L8.98438 13.269L8.98438 15.8691C8.98438 16.5894 8.61816 17.0166 7.95898 17.0166Z" fill="#5ac8f5"/>
 </g>
</svg>
