<?xml version="1.0" encoding="UTF-8"?>
<!--Generator: Apple Native CoreSVG 175.5-->
<!DOCTYPE svg
PUBLIC "-//W3C//DTD SVG 1.1//EN"
       "http://www.w3.org/Graphics/SVG/1.1/DTD/svg11.dtd">
<svg version="1.1" xmlns="http://www.w3.org/2000/svg" xmlns:xlink="http://www.w3.org/1999/xlink" width="29.8585" height="13.2446">
 <g>
  <rect height="13.2446" opacity="0" width="29.8585" x="0" y="0"/>
  <path d="M3.32031 13.2446L4.98047 13.2446L4.98047 0.012207L3.2959 0.012207C1.12305 0.012207 0 1.13525 0 3.2959L0.012207 9.96094C0.012207 12.1338 1.12305 13.2446 3.32031 13.2446ZM6.15234 13.2446L23.7061 13.2446L23.7061 0.012207L21.6064 0.012207C21.3379 3.50342 18.6157 5.79834 14.9414 5.79834C11.2671 5.79834 8.54492 3.50342 8.26416 0.012207L6.15234 0.012207ZM24.8779 13.2446L26.5381 13.2446C28.7231 13.2446 29.8218 12.1338 29.834 9.96094L29.8584 3.2959C29.8706 1.13525 28.7354 0.012207 26.5503 0.012207L24.8779 0.012207ZM14.9414 4.67529C17.8955 4.67529 20.0928 2.83203 20.3003 0.012207L18.4082 0.012207C18.2495 1.83105 16.8457 3.02734 14.9414 3.02734C13.0249 3.02734 11.6333 1.83105 11.4746 0.012207L9.57031 0.012207C9.77783 2.83203 11.9751 4.67529 14.9414 4.67529Z" fill="#5ac8f5"/>
 </g>
</svg>
