<?xml version="1.0" encoding="UTF-8"?>
<!--Generator: Apple Native CoreSVG 175.5-->
<!DOCTYPE svg
PUBLIC "-//W3C//DTD SVG 1.1//EN"
       "http://www.w3.org/Graphics/SVG/1.1/DTD/svg11.dtd">
<svg version="1.1" xmlns="http://www.w3.org/2000/svg" xmlns:xlink="http://www.w3.org/1999/xlink" width="22.8195" height="25.1465">
 <g>
  <rect height="25.1465" opacity="0" width="22.8195" x="0" y="0"/>
  <path d="M11.1633 2.13013C13.446 2.13013 15.4358 3.75366 15.4358 6.84204L15.4358 10.0159L11.0046 10.0159L19.5007 18.4875L19.5007 12.9089C19.5007 11.2244 18.7561 10.26 17.3645 10.0647L17.3645 7.09839C17.3645 2.50854 14.3616 0.286865 11.1633 0.286865C8.64868 0.286865 6.30493 1.67847 5.41382 4.41284L6.97632 5.98755C7.2937 3.4729 9.08813 2.13013 11.1633 2.13013ZM5.58472 24.2249L16.7542 24.2249C17.3279 24.2249 17.8162 24.0906 18.1702 23.8586L4.52271 10.2234L4.41284 10.2234C3.41187 10.553 2.83813 11.4807 2.83813 12.9089L2.83813 21.3196C2.83813 23.2483 3.79028 24.2249 5.58472 24.2249ZM21.2097 24.8718C21.5881 25.238 22.1863 25.238 22.5403 24.8718C22.9065 24.5056 22.9187 23.9075 22.5403 23.5413L1.61743 2.61841C1.25122 2.2522 0.640869 2.2522 0.274658 2.61841C-0.0915527 2.98462-0.0915527 3.59497 0.274658 3.94897Z" fill="#5ac8f5"/>
 </g>
</svg>
