<?xml version="1.0" encoding="UTF-8"?>
<!--Generator: Apple Native CoreSVG 175.5-->
<!DOCTYPE svg
PUBLIC "-//W3C//DTD SVG 1.1//EN"
       "http://www.w3.org/Graphics/SVG/1.1/DTD/svg11.dtd">
<svg version="1.1" xmlns="http://www.w3.org/2000/svg" xmlns:xlink="http://www.w3.org/1999/xlink" width="25.3174" height="28.5034">
 <g>
  <rect height="28.5034" opacity="0" width="25.3174" x="0" y="0"/>
  <path d="M11.5112 26.8555C14.0991 26.8555 15.9424 24.8047 16.04 22.4365L21.1914 22.4365C22.3389 22.4365 23.0347 21.8506 23.0347 20.9595C23.0347 19.7388 21.7896 18.6401 20.7397 17.5537C19.9951 16.7969 19.7144 15.2832 19.6655 14.0381C19.6655 13.8062 19.6655 13.5742 19.6533 13.3545C18.9575 13.4888 18.335 13.4766 17.7002 13.0859C17.7124 13.4399 17.7246 13.8062 17.7368 14.1968C17.7734 16.4429 18.2739 17.7734 19.0674 18.6646C19.7144 19.3726 20.4346 20.0928 20.6543 20.4468L20.6543 20.5933L2.36816 20.5933L2.36816 20.4468C2.58789 20.0928 3.32031 19.3726 3.95508 18.6646C4.83398 17.688 5.24902 16.1133 5.35889 13.7329C5.45654 8.39844 7.04346 6.70166 9.13086 6.12793C9.43604 6.05469 9.60693 5.9082 9.61914 5.59082C9.65576 4.58984 10.1685 3.89404 10.8276 3.67432C11.2427 2.79541 12.1216 2.17285 13.1592 2.17285C13.2446 2.17285 13.3179 2.17285 13.4277 2.19727C13.4277 2.17285 13.4277 2.17285 13.4277 2.16064C12.8784 1.84326 12.2314 1.63574 11.5112 1.63574C9.7168 1.63574 8.39844 2.89307 7.99561 4.49219C4.74854 5.66406 3.50342 8.76465 3.41797 13.5742C3.32031 14.978 3.10059 16.7114 2.29492 17.5537C1.23291 18.6401 0 19.7388 0 20.9595C0 21.8506 0.683594 22.4365 1.84326 22.4365L6.99463 22.4365C7.09229 24.7925 8.93555 26.8555 11.5112 26.8555ZM11.5112 25.1343C10.0464 25.1343 8.98438 24.0967 8.89893 22.4365L14.1357 22.4365C14.0381 24.0967 12.9883 25.1343 11.5112 25.1343ZM13.1592 7.37305C13.562 7.37305 13.8672 7.06787 13.8672 6.70166L13.8672 4.84619C13.8672 4.45557 13.562 4.15039 13.1592 4.15039C12.793 4.15039 12.4878 4.45557 12.4878 4.84619L12.4878 6.70166C12.4878 7.06787 12.793 7.37305 13.1592 7.37305ZM16.04 9.42383C16.4185 9.42383 16.7236 9.13086 16.7236 8.72803L16.7236 2.79541C16.7236 2.41699 16.4185 2.11182 16.04 2.11182C15.6494 2.11182 15.3564 2.41699 15.3564 2.79541L15.3564 8.72803C15.3564 9.13086 15.6494 9.42383 16.04 9.42383ZM18.8965 11.5356C19.2871 11.5356 19.5923 11.2427 19.5923 10.8521L19.5923 0.708008C19.5923 0.305176 19.2871 0 18.8965 0C18.5181 0 18.2129 0.305176 18.2129 0.708008L18.2129 10.8521C18.2129 11.2549 18.5059 11.5356 18.8965 11.5356ZM21.7529 10.3271C22.1436 10.3271 22.4487 10.022 22.4487 9.63135L22.4487 1.89209C22.4487 1.52588 22.1436 1.2207 21.7529 1.2207C21.3745 1.2207 21.0815 1.52588 21.0815 1.89209L21.0815 9.63135C21.0815 10.022 21.3745 10.3271 21.7529 10.3271ZM24.6216 8.02002C25.0244 8.02002 25.3174 7.72705 25.3174 7.33643L25.3174 4.19922C25.3174 3.80859 25.0244 3.51562 24.6216 3.51562C24.2432 3.51562 23.938 3.8208 23.938 4.19922L23.938 7.33643C23.938 7.71484 24.2432 8.02002 24.6216 8.02002Z" fill="#5ac8f5"/>
 </g>
</svg>
