<?xml version="1.0" encoding="UTF-8"?>
<!--Generator: Apple Native CoreSVG 175.5-->
<!DOCTYPE svg
PUBLIC "-//W3C//DTD SVG 1.1//EN"
       "http://www.w3.org/Graphics/SVG/1.1/DTD/svg11.dtd">
<svg version="1.1" xmlns="http://www.w3.org/2000/svg" xmlns:xlink="http://www.w3.org/1999/xlink" width="24.9023" height="24.9146">
 <g>
  <rect height="24.9146" opacity="0" width="24.9023" x="0" y="0"/>
  <path d="M12.4512 24.9023C19.2627 24.9023 24.9023 19.2505 24.9023 12.4512C24.9023 5.63965 19.2505 0 12.439 0C5.63965 0 0 5.63965 0 12.4512C0 19.2505 5.65186 24.9023 12.4512 24.9023ZM12.4512 22.8271C6.68945 22.8271 2.0874 18.2129 2.0874 12.4512C2.0874 6.68945 6.67725 2.0752 12.439 2.0752C18.2007 2.0752 22.8271 6.68945 22.8271 12.4512C22.8271 18.2129 18.2129 22.8271 12.4512 22.8271ZM7.75146 13.6353C7.75146 13.9893 7.99561 14.2456 8.3374 14.2456L9.15527 14.2456C8.91113 14.5874 8.80127 15.0024 8.80127 15.3564C8.80127 17.2363 10.4736 18.3228 12.4756 18.3228C13.8062 18.3228 15.0146 17.8101 15.6494 16.7603C15.8325 16.4917 15.9302 16.1987 15.9424 15.8936C15.9546 15.4663 15.686 15.1489 15.21 15.1489C14.917 15.1489 14.6729 15.271 14.502 15.6738C14.1846 16.4795 13.3545 16.8823 12.439 16.8823C11.3037 16.8823 10.3271 16.3574 10.3271 15.2954C10.3271 14.917 10.5103 14.502 10.8765 14.2456L16.5161 14.2456C16.8579 14.2456 17.1021 13.9893 17.1021 13.6353C17.1021 13.3057 16.8579 13.0371 16.5161 13.0371L8.3374 13.0371C7.99561 13.0371 7.75146 13.3057 7.75146 13.6353ZM7.77588 11.1938C7.77588 11.5234 8.02002 11.792 8.36182 11.792L16.5405 11.792C16.8823 11.792 17.1265 11.5234 17.1265 11.1938C17.1265 10.8398 16.8823 10.5957 16.5405 10.5957L15.7227 10.5957C15.9668 10.2417 16.0767 9.82666 16.0767 9.47266C16.0767 7.59277 14.4043 6.50635 12.4023 6.50635C11.0718 6.50635 9.87549 7.01904 9.22852 8.08105C9.04541 8.34961 8.94775 8.63037 8.93555 8.94775C8.92334 9.36279 9.19189 9.68018 9.66797 9.68018C9.96094 9.68018 10.2051 9.55811 10.376 9.15527C10.7056 8.34961 11.5234 7.94678 12.439 7.94678C13.5742 7.94678 14.5508 8.48389 14.5508 9.53369C14.5508 9.91211 14.3677 10.3271 14.0015 10.5957L8.36182 10.5957C8.02002 10.5957 7.77588 10.8398 7.77588 11.1938Z" fill="#5ac8f5"/>
 </g>
</svg>
