<?xml version="1.0" encoding="UTF-8"?>
<!--Generator: Apple Native CoreSVG 175.5-->
<!DOCTYPE svg
PUBLIC "-//W3C//DTD SVG 1.1//EN"
       "http://www.w3.org/Graphics/SVG/1.1/DTD/svg11.dtd">
<svg version="1.1" xmlns="http://www.w3.org/2000/svg" xmlns:xlink="http://www.w3.org/1999/xlink" width="30.9208" height="30.603">
 <g>
  <rect height="30.603" opacity="0" width="30.9208" x="0" y="0"/>
  <path d="M19.4706 22.9004C22.681 21.5576 19.6659 16.3208 16.8827 13.5132C14.0751 10.73 8.94814 7.70264 7.50771 10.8887L0.207903 27.0752C-0.597761 28.8696 1.0746 30.5908 2.88124 29.834ZM12.4638 17.9199C9.53408 15.0024 8.34999 12.207 9.16786 11.4014C9.97353 10.5835 12.7567 11.7798 15.6742 14.7217C18.6283 17.6392 19.8002 20.4346 18.9945 21.228C18.1767 22.0581 15.3935 20.8618 12.4638 17.9199Z" fill="#5ac8f5" fill-opacity="0.5"/>
  <path d="M10.9623 2.67334C11.6947 2.67334 12.3051 2.0752 12.3051 1.33057C12.3051 0.598145 11.6947 0 10.9623 0C10.2055 0 9.61952 0.598145 9.61952 1.33057C9.61952 2.0752 10.2055 2.67334 10.9623 2.67334ZM12.5736 4.95605C12.4882 4.50439 12.1952 4.12598 11.7191 4.12598C11.2675 4.13818 10.8036 4.5166 10.9013 5.00488C11.4506 7.87354 11.4506 10.8276 10.9013 13.7451C10.7914 14.2212 11.2675 14.5874 11.7069 14.5996C12.1708 14.5996 12.476 14.2334 12.5614 13.7817C13.1351 10.8032 13.1351 7.89795 12.5736 4.95605ZM18.5062 4.78516C19.788 4.78516 20.8012 3.75977 20.8012 2.49023C20.8012 1.19629 19.788 0.195312 18.5062 0.195312C17.2245 0.195312 16.2113 1.19629 16.2113 2.49023C16.2113 3.75977 17.2245 4.78516 18.5062 4.78516ZM16.1869 8.63037C16.7851 8.63037 17.2611 8.14209 17.2611 7.54395C17.2611 6.95801 16.7851 6.46973 16.1869 6.46973C15.601 6.46973 15.1005 6.95801 15.1005 7.54395C15.1005 8.14209 15.601 8.63037 16.1869 8.63037ZM28.4672 3.36914C29.0531 3.36914 29.5292 2.89307 29.5292 2.29492C29.5292 1.69678 29.0531 1.2085 28.4672 1.2085C27.869 1.2085 27.393 1.69678 27.393 2.29492C27.393 2.89307 27.869 3.36914 28.4672 3.36914ZM24.9393 4.1626L22.6566 6.44531C22.327 6.7749 22.3393 7.31201 22.6566 7.6416C22.9984 7.97119 23.5355 7.9834 23.8651 7.6416L26.1478 5.37109C26.4774 5.0415 26.4652 4.49219 26.1478 4.1626C25.8183 3.84521 25.2689 3.83301 24.9393 4.1626ZM20.4105 8.70361L14.185 14.917C13.8554 15.2344 13.8676 15.7959 14.185 16.1255C14.5145 16.4429 15.0761 16.4551 15.3935 16.1255L21.6068 9.8999C21.912 9.58252 21.912 9.04541 21.6068 8.70361C21.265 8.39844 20.7279 8.39844 20.4105 8.70361ZM29.578 14.3188C30.3226 14.3188 30.9208 13.7207 30.9208 12.9639C30.9208 12.2314 30.3226 11.6333 29.578 11.6333C28.8212 11.6333 28.2352 12.2314 28.2352 12.9639C28.2352 13.7207 28.8212 14.3188 29.578 14.3188ZM24.329 14.8193C25.4154 14.8193 26.2821 13.9771 26.2821 12.8906C26.2821 11.8164 25.4154 10.9497 24.329 10.9497C23.2548 10.9497 22.4125 11.8164 22.4125 12.8906C22.4125 13.9771 23.2548 14.8193 24.329 14.8193ZM29.1142 20.5688C29.8588 20.5688 30.4569 19.9829 30.4569 19.2261C30.4569 18.4814 29.8588 17.8833 29.1142 17.8833C28.3695 17.8833 27.7714 18.4814 27.7714 19.2261C27.7714 19.9829 28.3695 20.5688 29.1142 20.5688ZM25.391 17.7368C22.4369 17.1753 19.5438 17.1753 16.5531 17.7368C16.1137 17.8345 15.7352 18.1396 15.7475 18.5913C15.7475 19.043 16.1137 19.519 16.6019 19.4214C19.5194 18.8721 22.4613 18.8599 25.3422 19.4092C25.806 19.5068 26.1967 19.0552 26.2089 18.5913C26.2211 18.1152 25.8305 17.8223 25.391 17.7368Z" fill="#5ac8f5"/>
 </g>
</svg>
