<?xml version="1.0" encoding="UTF-8"?>
<!--Generator: Apple Native CoreSVG 175.5-->
<!DOCTYPE svg
PUBLIC "-//W3C//DTD SVG 1.1//EN"
       "http://www.w3.org/Graphics/SVG/1.1/DTD/svg11.dtd">
<svg version="1.1" xmlns="http://www.w3.org/2000/svg" xmlns:xlink="http://www.w3.org/1999/xlink" width="21.6675" height="26.9653">
 <g>
  <rect height="26.9653" opacity="0" width="21.6675" x="0" y="0"/>
  <path d="M0 22.5708C0 25.0854 1.28174 26.355 3.83301 26.355L17.8345 26.355C20.3857 26.355 21.6675 25.0854 21.6675 22.5708L21.6675 10.6323C21.6675 8.11768 20.3857 6.84814 17.8345 6.84814L11.8042 6.84814L11.8042 0.952148C11.8042 0.439453 11.3647 0 10.8398 0C10.3149 0 9.86328 0.439453 9.86328 0.952148L9.86328 6.84814L3.83301 6.84814C1.28174 6.84814 0 8.11768 0 10.6323ZM10.8276 18.4814C10.5835 18.4814 10.376 18.4082 10.1196 18.1641L5.99365 14.1724C5.81055 13.9893 5.71289 13.7939 5.71289 13.5376C5.71289 13.0371 6.0791 12.6831 6.5918 12.6831C6.82373 12.6831 7.09229 12.7808 7.26318 12.9761L9.33838 15.1733L9.93652 15.8081L9.86328 13.9771L9.86328 7.70264C9.86328 7.15332 10.2539 6.7749 10.8276 6.7749C11.4014 6.7749 11.8042 7.15332 11.8042 7.70264L11.8042 13.9771L11.731 15.8081L12.3169 15.1733L14.4043 12.9761C14.5752 12.7808 14.8193 12.6831 15.0635 12.6831C15.564 12.6831 15.9546 13.0371 15.9546 13.5376C15.9546 13.7939 15.8447 13.9893 15.6616 14.1724L11.5356 18.1641C11.2915 18.4082 11.084 18.4814 10.8276 18.4814Z" fill="#5ac8f5"/>
 </g>
</svg>
