<?xml version="1.0" encoding="UTF-8"?>
<!--Generator: Apple Native CoreSVG 175.5-->
<!DOCTYPE svg
PUBLIC "-//W3C//DTD SVG 1.1//EN"
       "http://www.w3.org/Graphics/SVG/1.1/DTD/svg11.dtd">
<svg version="1.1" xmlns="http://www.w3.org/2000/svg" xmlns:xlink="http://www.w3.org/1999/xlink" width="22.4731" height="22.4976">
 <g>
  <rect height="22.4976" opacity="0" width="22.4731" x="0" y="0"/>
  <path d="M3.83301 22.4976L18.6401 22.4976C21.2036 22.4976 22.4731 21.228 22.4731 18.7134L22.4731 3.80859C22.4731 1.29395 21.2036 0.0244141 18.6401 0.0244141L3.83301 0.0244141C1.28174 0.0244141 0 1.28174 0 3.80859L0 18.7134C0 21.2402 1.28174 22.4976 3.83301 22.4976Z" fill="#5ac8f5" fill-opacity="0.25"/>
  <path d="M11.2427 17.8589C7.56836 17.8589 4.62646 14.9048 4.62646 11.2427C4.62646 7.58057 7.56836 4.62646 11.2427 4.62646C14.9048 4.62646 17.8467 7.58057 17.8467 11.2427C17.8467 14.9048 14.9048 17.8589 11.2427 17.8589ZM8.10547 12.7197C8.92334 12.7197 9.58252 12.0483 9.58252 11.2427C9.58252 10.437 8.92334 9.76562 8.10547 9.76562C7.2998 9.76562 6.62842 10.437 6.62842 11.2427C6.62842 12.0483 7.2998 12.7197 8.10547 12.7197ZM14.3677 12.7197C15.1733 12.7197 15.8447 12.0483 15.8447 11.2427C15.8447 10.437 15.1733 9.76562 14.3677 9.76562C13.562 9.76562 12.8906 10.437 12.8906 11.2427C12.8906 12.0483 13.562 12.7197 14.3677 12.7197ZM11.2427 16.0767C12.0483 16.0767 12.7075 15.4053 12.7075 14.5996C12.7075 13.7939 12.0483 13.1226 11.2427 13.1226C10.4248 13.1226 9.76562 13.7939 9.76562 14.5996C9.76562 15.4053 10.4248 16.0767 11.2427 16.0767Z" fill="#5ac8f5"/>
 </g>
</svg>
