<?xml version="1.0" encoding="UTF-8"?>
<!--Generator: Apple Native CoreSVG 175.5-->
<!DOCTYPE svg
PUBLIC "-//W3C//DTD SVG 1.1//EN"
       "http://www.w3.org/Graphics/SVG/1.1/DTD/svg11.dtd">
<svg version="1.1" xmlns="http://www.w3.org/2000/svg" xmlns:xlink="http://www.w3.org/1999/xlink" width="20.5322" height="26.1841">
 <g>
  <rect height="26.1841" opacity="0" width="20.5322" x="0" y="0"/>
  <path d="M4.50439 4.05273L11.9873 4.05273C12.4756 4.05273 12.7686 4.37012 12.7686 4.88281L12.7686 6.92139C12.7686 7.42188 12.4756 7.75146 11.9873 7.75146L4.50439 7.75146C4.00391 7.75146 3.71094 7.42188 3.71094 6.92139L3.71094 4.88281C3.71094 4.37012 4.00391 4.05273 4.50439 4.05273ZM4.50439 8.83789L16.0522 8.83789C16.5405 8.83789 16.8335 9.15527 16.8335 9.66797L16.8335 11.7065C16.8335 12.2192 16.5405 12.5366 16.0522 12.5366L4.50439 12.5366C4.00391 12.5366 3.71094 12.2192 3.71094 11.7065L3.71094 9.66797C3.71094 9.15527 4.00391 8.83789 4.50439 8.83789ZM4.50439 13.6475L14.0381 13.6475C14.5264 13.6475 14.8193 13.9526 14.8193 14.4531L14.8193 16.5039C14.8193 17.0166 14.5264 17.3218 14.0381 17.3218L4.50439 17.3218C4.00391 17.3218 3.71094 17.0166 3.71094 16.5039L3.71094 14.4531C3.71094 13.9526 4.00391 13.6475 4.50439 13.6475ZM4.50439 18.4326L10.022 18.4326C10.498 18.4326 10.8032 18.75 10.8032 19.2627L10.8032 21.3013C10.8032 21.8018 10.498 22.1313 10.022 22.1313L4.50439 22.1313C4.00391 22.1313 3.71094 21.8018 3.71094 21.3013L3.71094 19.2627C3.71094 18.75 4.00391 18.4326 4.50439 18.4326ZM0 22.3511C0 24.9023 1.25732 26.1719 3.78418 26.1719L16.748 26.1719C19.2749 26.1719 20.5322 24.9023 20.5322 22.3511L20.5322 3.83301C20.5322 1.29395 19.2749 0 16.748 0L3.78418 0C1.25732 0 0 1.29395 0 3.83301Z" fill="#5ac8f5"/>
 </g>
</svg>
