<?xml version="1.0" encoding="UTF-8"?>
<!--Generator: Apple Native CoreSVG 175.5-->
<!DOCTYPE svg
PUBLIC "-//W3C//DTD SVG 1.1//EN"
       "http://www.w3.org/Graphics/SVG/1.1/DTD/svg11.dtd">
<svg version="1.1" xmlns="http://www.w3.org/2000/svg" xmlns:xlink="http://www.w3.org/1999/xlink" width="25.5371" height="23.1567">
 <g>
  <rect height="23.1567" opacity="0" width="25.5371" x="0" y="0"/>
  <path d="M3.11279 18.6523L4.10156 20.3369L12.8052 15.9668L21.5088 20.3369L22.4976 18.6523L13.7939 14.2822L13.7939 3.97949L11.8286 3.97949L11.8286 14.2822ZM0.0244141 20.3979C0.0244141 20.8984 0.231934 21.2646 0.671387 21.5088L3.11279 22.937C3.43018 23.1323 3.6499 23.1689 4.07715 22.9248L6.45752 21.5454C6.89697 21.3013 6.98242 21.0938 6.97021 20.6909L6.98242 17.8589C6.98242 17.3706 6.7627 17.0166 6.34766 16.7725L3.89404 15.3442C3.57666 15.1733 3.30811 15.1123 2.89307 15.3442L0.476074 16.748C0.0610352 16.98 0 17.2241 0 17.5659ZM18.5669 20.7031C18.5547 21.106 18.6401 21.3135 19.0796 21.5576L21.46 22.937C21.8872 23.1812 22.1069 23.1445 22.4243 22.9492L24.8657 21.521C25.3052 21.2769 25.5127 20.9106 25.5127 20.4102L25.5371 17.5781C25.5371 17.2363 25.4761 16.9922 25.061 16.7603L22.644 15.3564C22.229 15.1245 21.9604 15.1855 21.6431 15.3564L19.1895 16.7847C18.7744 17.0288 18.5547 17.3828 18.5547 17.8711ZM9.69238 6.06689L12.1582 7.48291C12.5732 7.71484 12.9761 7.71484 13.3911 7.48291L15.8569 6.06689C16.1987 5.87158 16.3452 5.68848 16.3452 5.18799L16.3452 2.4292C16.3452 1.94092 16.1987 1.77002 15.8813 1.58691L13.4155 0.183105C12.9761-0.0610352 12.561-0.0610352 12.1338 0.183105L9.66797 1.58691C9.36279 1.75781 9.19189 1.94092 9.19189 2.4292L9.19189 5.18799C9.19189 5.68848 9.375 5.88379 9.69238 6.06689Z" fill="#5ac8f5"/>
 </g>
</svg>
