<?xml version="1.0" encoding="UTF-8"?>
<!--Generator: Apple Native CoreSVG 175.5-->
<!DOCTYPE svg
PUBLIC "-//W3C//DTD SVG 1.1//EN"
       "http://www.w3.org/Graphics/SVG/1.1/DTD/svg11.dtd">
<svg version="1.1" xmlns="http://www.w3.org/2000/svg" xmlns:xlink="http://www.w3.org/1999/xlink" width="26.9043" height="26.9653">
 <g>
  <rect height="26.9653" opacity="0" width="26.9043" x="0" y="0"/>
  <path d="M7.25098 26.9653C7.72705 26.9653 8.08105 26.7212 8.65479 26.1841L13.0615 22.1558L21.3135 22.1558C24.9512 22.1558 26.9043 20.1538 26.9043 16.5771L26.9043 7.22656C26.9043 3.6499 24.9512 1.63574 21.3135 1.63574L5.59082 1.63574C1.95312 1.63574 0 3.6377 0 7.22656L0 16.5771C0 20.166 1.95312 22.1558 5.59082 22.1558L6.16455 22.1558L6.16455 25.708C6.16455 26.4648 6.55518 26.9653 7.25098 26.9653ZM9.32617 17.7856C8.75244 17.7856 8.38623 17.4316 8.38623 16.9189C8.38623 16.7236 8.41064 16.5405 8.52051 16.2598L12.0483 6.7627C12.2925 6.10352 12.7686 5.77393 13.4521 5.77393C14.1357 5.77393 14.624 6.10352 14.8682 6.7627L18.396 16.2598C18.5059 16.5405 18.5303 16.7236 18.5303 16.9189C18.5303 17.4316 18.1641 17.7856 17.6025 17.7856C17.1387 17.7856 16.8213 17.5781 16.6138 16.98L15.6982 14.3066L11.2183 14.3066L10.3027 16.98C10.0952 17.5781 9.77783 17.7856 9.32617 17.7856ZM11.7188 12.7808L15.1978 12.7808L13.5254 7.92236L13.3911 7.92236Z" fill="#5ac8f5"/>
 </g>
</svg>
