<?xml version="1.0" encoding="UTF-8"?>
<!--Generator: Apple Native CoreSVG 175.5-->
<!DOCTYPE svg
PUBLIC "-//W3C//DTD SVG 1.1//EN"
       "http://www.w3.org/Graphics/SVG/1.1/DTD/svg11.dtd">
<svg version="1.1" xmlns="http://www.w3.org/2000/svg" xmlns:xlink="http://www.w3.org/1999/xlink" width="22.4731" height="22.4976">
 <g>
  <rect height="22.4976" opacity="0" width="22.4731" x="0" y="0"/>
  <path d="M3.83301 22.4976L18.6401 22.4976C21.2036 22.4976 22.4731 21.228 22.4731 18.7134L22.4731 3.80859C22.4731 1.29395 21.2036 0.0244141 18.6401 0.0244141L3.83301 0.0244141C1.28174 0.0244141 0 1.28174 0 3.80859L0 18.7134C0 21.2402 1.28174 22.4976 3.83301 22.4976ZM11.2427 17.1509C8.03223 17.1509 5.79834 14.6851 5.79834 11.1328C5.79834 7.56836 8.03223 5.10254 11.2427 5.10254C14.4653 5.10254 16.6992 7.56836 16.6992 11.1328C16.6992 14.6851 14.4653 17.1509 11.2427 17.1509ZM11.2427 15.564C13.3179 15.564 14.6729 13.8062 14.6729 11.1328C14.6729 8.44727 13.3179 6.68945 11.2427 6.68945C9.16748 6.68945 7.8125 8.44727 7.8125 11.1328C7.8125 13.8062 9.16748 15.564 11.2427 15.564Z" fill="#5ac8f5"/>
 </g>
</svg>
