<?xml version="1.0" encoding="UTF-8"?>
<!--Generator: Apple Native CoreSVG 175.5-->
<!DOCTYPE svg
PUBLIC "-//W3C//DTD SVG 1.1//EN"
       "http://www.w3.org/Graphics/SVG/1.1/DTD/svg11.dtd">
<svg version="1.1" xmlns="http://www.w3.org/2000/svg" xmlns:xlink="http://www.w3.org/1999/xlink" width="28.7842" height="22.4976">
 <g>
  <rect height="22.4976" opacity="0" width="28.7842" x="0" y="0"/>
  <path d="M6.23779 13.0371L11.3281 13.0371C11.8286 13.0371 12.2192 12.6465 12.2192 12.146C12.2192 11.6455 11.8286 11.2427 11.3281 11.2427L6.23779 11.2427C5.7373 11.2427 5.33447 11.6455 5.33447 12.146C5.33447 12.6465 5.7373 13.0371 6.23779 13.0371ZM19.9829 15.8203C20.4834 15.8203 20.874 15.4297 20.874 14.9292L20.874 13.0371L22.7661 13.0371C23.2666 13.0371 23.6694 12.6465 23.6694 12.146C23.6694 11.6455 23.2666 11.2427 22.7661 11.2427L20.874 11.2427L20.874 9.35059C20.874 8.8501 20.4834 8.45947 19.9829 8.45947C19.4824 8.45947 19.0796 8.8501 19.0796 9.35059L19.0796 11.2427L17.1875 11.2427C16.687 11.2427 16.2964 11.6455 16.2964 12.146C16.2964 12.6465 16.687 13.0371 17.1875 13.0371L19.0796 13.0371L19.0796 14.9292C19.0796 15.4297 19.4824 15.8203 19.9829 15.8203ZM3.14941 21.582L25.6714 21.582C27.1362 21.582 28.1006 20.5444 28.1006 19.0308L28.1006 18.6035C26.8555 18.5791 25.8179 18.0908 25.1465 17.334C24.8779 17.0166 24.5728 17.0288 24.3042 17.334C23.5718 18.1519 22.4731 18.6157 21.2891 18.6157C20.105 18.6157 19.0063 18.1519 18.2739 17.334C18.0054 17.0288 17.7002 17.0166 17.4316 17.334C16.7358 18.1152 15.625 18.6157 14.3921 18.6157C13.1592 18.6157 12.0483 18.1152 11.3525 17.334C11.084 17.0166 10.791 17.0288 10.5103 17.334C9.77783 18.1519 8.6792 18.6157 7.49512 18.6157C6.31104 18.6157 5.22461 18.1519 4.47998 17.334C4.21143 17.0288 3.90625 17.0166 3.6377 17.334C2.96631 18.0908 1.94092 18.5791 0.683594 18.6035L0.683594 19.0308C0.683594 20.5444 1.64795 21.582 3.14941 21.582ZM3.83301 22.4731L24.9512 22.4731C27.5146 22.4731 28.7842 21.2158 28.7842 18.7012L28.7842 6.89697C28.7842 4.38232 27.5146 3.125 24.9512 3.125L23.2666 3.125L23.2666 1.48926C23.2666 0.561523 22.7295 0 21.7896 0L18.1885 0C17.2607 0 16.7236 0.561523 16.7236 1.48926L16.7236 3.125L12.0728 3.125L12.0728 1.48926C12.0728 0.561523 11.5356 0 10.5957 0L6.99463 0C6.05469 0 5.52979 0.561523 5.52979 1.48926L5.52979 3.125L3.83301 3.125C1.28174 3.125 0 4.38232 0 6.89697L0 18.7012C0 21.2158 1.28174 22.4731 3.83301 22.4731ZM1.96533 18.5913L1.96533 7.00684C1.96533 5.7373 2.63672 5.09033 3.85742 5.09033L24.9268 5.09033C26.1353 5.09033 26.8188 5.7373 26.8188 7.00684L26.8188 18.5913C26.8188 19.8608 26.1353 20.5078 24.9268 20.5078L3.85742 20.5078C2.63672 20.5078 1.96533 19.8608 1.96533 18.5913Z" fill="#5ac8f5"/>
 </g>
</svg>
