<?xml version="1.0" encoding="UTF-8"?>
<!--Generator: Apple Native CoreSVG 175.5-->
<!DOCTYPE svg
PUBLIC "-//W3C//DTD SVG 1.1//EN"
       "http://www.w3.org/Graphics/SVG/1.1/DTD/svg11.dtd">
<svg version="1.1" xmlns="http://www.w3.org/2000/svg" xmlns:xlink="http://www.w3.org/1999/xlink" width="25.7588" height="30.3833">
 <g>
  <rect height="30.3833" opacity="0" width="25.7588" x="0" y="0"/>
  <path d="M12.8752 30.3833C16.2077 30.3833 16.7326 27.9053 18.6736 27.9053C20.6511 27.9053 20.9685 30.3833 24.7771 30.3833L24.8381 30.3833C25.3142 30.3833 25.7048 29.9927 25.7048 29.5166C25.7048 29.0405 25.3142 28.6621 24.8381 28.6621L24.7771 28.6621C23.4709 28.6621 22.7263 28.1128 21.8108 27.4658C21.0173 26.8921 20.0285 26.1841 18.6736 26.1841C17.2698 26.1841 16.2688 26.9287 15.4753 27.5269C14.633 28.1616 13.9739 28.6621 12.8752 28.6621C11.7766 28.6621 11.1174 28.1616 10.2751 27.5269C9.48166 26.9287 8.48069 26.1841 7.07688 26.1841C5.7219 26.1841 4.73313 26.8921 3.93967 27.4658C3.02415 28.1128 2.29172 28.6621 0.973364 28.6621L0.912329 28.6621C0.436254 28.6621 0.0456294 29.0405 0.0456294 29.5166C0.0456294 29.9927 0.436254 30.3833 0.912329 30.3833L0.973364 30.3833C4.78196 30.3833 5.09934 27.9053 7.07688 27.9053C9.0178 27.9053 9.5427 30.3833 12.8752 30.3833ZM0.546118 19.5312L5.0261 27.4414L6.50315 26.4526L2.0842 18.7744C1.5593 17.8467 1.76682 17.4194 2.43821 17.1143L11.3249 13.0371C11.9109 12.7686 12.3137 12.5732 12.8752 12.5732C13.4367 12.5732 13.8396 12.7686 14.4377 13.0371L23.3122 17.1143C23.9836 17.4194 24.1911 17.8467 23.6662 18.7744L19.2473 26.4526L20.8098 27.3193L25.2043 19.5312C26.2419 17.7002 25.8147 16.3696 23.9958 15.5518L15.1213 11.4746C14.6086 11.2427 13.8884 10.8521 12.8752 10.8521C11.8742 10.8521 11.154 11.2427 10.6291 11.4746L1.75461 15.5518C-0.0520268 16.3696-0.479273 17.7002 0.546118 19.5312ZM2.98752 15.3442L4.84299 14.4775L6.14915 5.32227C6.22239 4.84619 6.50315 4.56543 6.9426 4.56543L18.8323 4.56543C19.2961 4.56543 19.5891 4.79736 19.6501 5.18799L20.9319 14.5386L22.7873 15.3442L21.3835 5.07812C21.1882 3.6499 20.2483 2.84424 18.8323 2.84424L6.9426 2.84424C5.56321 2.84424 4.63547 3.74756 4.40354 5.32227ZM7.84592 9.00879L11.6301 9.00879C11.9963 9.00879 12.2405 8.80127 12.2405 8.5083L12.2405 6.55518C12.2405 6.26221 11.9963 6.05469 11.6301 6.05469L7.84592 6.05469C7.55295 6.05469 7.35764 6.26221 7.35764 6.55518L7.35764 8.5083C7.35764 8.80127 7.55295 9.00879 7.84592 9.00879ZM13.9983 9.00879L17.7947 9.00879C18.1609 9.00879 18.405 8.80127 18.405 8.5083L18.405 6.55518C18.405 6.26221 18.1609 6.05469 17.7947 6.05469L13.9983 6.05469C13.7175 6.05469 13.5222 6.26221 13.5222 6.55518L13.5222 8.5083C13.5222 8.80127 13.7175 9.00879 13.9983 9.00879ZM7.56516 4.18701L9.28635 4.18701L9.28635 2.17285C9.28635 1.9043 9.43284 1.75781 9.68918 1.75781L16.0735 1.75781C16.3298 1.75781 16.4763 1.9043 16.4763 2.17285L16.4763 4.18701L18.1975 4.18701L18.1975 2.05078C18.1975 0.842285 17.404 0.0366211 16.1955 0.0366211L9.56711 0.0366211C8.35862 0.0366211 7.56516 0.842285 7.56516 2.05078Z" fill="#5ac8f5"/>
 </g>
</svg>
