<?xml version="1.0" encoding="UTF-8"?>
<!--Generator: Apple Native CoreSVG 175.5-->
<!DOCTYPE svg
PUBLIC "-//W3C//DTD SVG 1.1//EN"
       "http://www.w3.org/Graphics/SVG/1.1/DTD/svg11.dtd">
<svg version="1.1" xmlns="http://www.w3.org/2000/svg" xmlns:xlink="http://www.w3.org/1999/xlink" width="16.4795" height="23.2544">
 <g>
  <rect height="23.2544" opacity="0" width="16.4795" x="0" y="0"/>
  <path d="M1.15967 23.0347C1.86768 23.0347 2.33154 22.5708 2.33154 21.8262L2.33154 14.1235C2.33154 8.55713 4.66309 5.87158 8.23975 5.87158C11.8164 5.87158 14.1479 8.55713 14.1479 14.1235L14.1479 21.8262C14.1479 22.5708 14.6118 23.0347 15.3076 23.0347C16.0034 23.0347 16.4795 22.5708 16.4795 21.8262L16.4795 13.9404C16.4795 7.23877 13.1836 3.72314 8.23975 3.72314C3.28369 3.72314 0 7.23877 0 13.9404L0 21.8262C0 22.5708 0.463867 23.0347 1.15967 23.0347ZM7.31201 22.1191C7.31201 22.6318 7.72705 23.0347 8.23975 23.0347C8.75244 23.0347 9.15527 22.6318 9.15527 22.1191L9.15527 0.915527C9.15527 0.402832 8.75244 0 8.23975 0C7.72705 0 7.31201 0.402832 7.31201 0.915527Z" fill="#5ac8f5"/>
 </g>
</svg>
