<?xml version="1.0" encoding="UTF-8"?>
<!--Generator: Apple Native CoreSVG 175.5-->
<!DOCTYPE svg
PUBLIC "-//W3C//DTD SVG 1.1//EN"
       "http://www.w3.org/Graphics/SVG/1.1/DTD/svg11.dtd">
<svg version="1.1" xmlns="http://www.w3.org/2000/svg" xmlns:xlink="http://www.w3.org/1999/xlink" width="22.4731" height="22.4976">
 <g>
  <rect height="22.4976" opacity="0" width="22.4731" x="0" y="0"/>
  <path d="M3.83301 22.4976L18.6401 22.4976C21.2036 22.4976 22.4731 21.228 22.4731 18.7134L22.4731 3.80859C22.4731 1.29395 21.2036 0.0244141 18.6401 0.0244141L3.83301 0.0244141C1.28174 0.0244141 0 1.28174 0 3.80859L0 18.7134C0 21.2402 1.28174 22.4976 3.83301 22.4976ZM3.85742 20.5322C2.63672 20.5322 1.96533 19.8853 1.96533 18.6157L1.96533 3.90625C1.96533 2.63672 2.63672 1.98975 3.85742 1.98975L18.6157 1.98975C19.8242 1.98975 20.5078 2.63672 20.5078 3.90625L20.5078 18.6157C20.5078 19.8853 19.8242 20.5322 18.6157 20.5322Z" fill="#5ac8f5" fill-opacity="0.5"/>
  <path d="M11.2671 17.0532C13.7817 17.0532 15.5151 15.4419 15.5151 13.1714C15.5151 11.1572 13.9893 9.65576 11.853 9.65576C11.0352 9.65576 10.1807 9.97314 9.77783 10.3882L9.65576 10.3516C9.77783 10.144 9.93652 9.92432 10.3149 9.43604C10.9375 8.63037 11.7432 7.62939 12.3413 6.86035C12.5244 6.61621 12.6221 6.4209 12.6221 6.18896C12.6221 5.82275 12.3901 5.44434 11.8042 5.44434C11.4136 5.44434 11.1694 5.70068 10.9863 5.94482C10.1807 6.99463 9.43604 7.93457 8.81348 8.77686C7.55615 10.437 7.00684 11.7798 7.00684 13.0981C7.00684 15.4419 8.74023 17.0532 11.2671 17.0532ZM11.2671 15.5151C9.82666 15.5151 8.72803 14.5386 8.72803 13.2446C8.72803 11.9751 9.81445 11.0352 11.2671 11.0352C12.7319 11.0352 13.8062 11.9751 13.8062 13.269C13.8062 14.5386 12.7319 15.5151 11.2671 15.5151Z" fill="#5ac8f5"/>
 </g>
</svg>
