<?xml version="1.0" encoding="UTF-8"?>
<!--Generator: Apple Native CoreSVG 175.5-->
<!DOCTYPE svg
PUBLIC "-//W3C//DTD SVG 1.1//EN"
       "http://www.w3.org/Graphics/SVG/1.1/DTD/svg11.dtd">
<svg version="1.1" xmlns="http://www.w3.org/2000/svg" xmlns:xlink="http://www.w3.org/1999/xlink" width="22.4731" height="22.4976">
 <g>
  <rect height="22.4976" opacity="0" width="22.4731" x="0" y="0"/>
  <path d="M3.83301 22.4976L18.6401 22.4976C21.2036 22.4976 22.4731 21.228 22.4731 18.7134L22.4731 3.80859C22.4731 1.29395 21.2036 0.0244141 18.6401 0.0244141L3.83301 0.0244141C1.28174 0.0244141 0 1.28174 0 3.80859L0 18.7134C0 21.2402 1.28174 22.4976 3.83301 22.4976Z" fill="#5ac8f5" fill-opacity="0.25"/>
  <path d="M11.2183 17.2363C8.54492 17.2363 6.75049 15.8813 6.75049 13.8428C6.75049 12.439 7.77588 11.2671 9.28955 10.9619L9.28955 10.8887C8.02002 10.498 7.25098 9.52148 7.25098 8.31299C7.25098 6.49414 8.89893 5.24902 11.2427 5.24902C13.5864 5.24902 15.2344 6.49414 15.2344 8.31299C15.2344 9.52148 14.4409 10.5225 13.1958 10.8887L13.1958 10.9619C14.6973 11.2671 15.7227 12.4268 15.7227 13.8306C15.7227 15.8569 13.9038 17.2363 11.2183 17.2363ZM11.2549 15.8447C12.7197 15.8447 13.8062 14.9658 13.8062 13.7329C13.8062 12.5244 12.7563 11.6455 11.2549 11.6455C9.79004 11.6455 8.6792 12.5366 8.6792 13.7329C8.6792 14.9658 9.77783 15.8447 11.2549 15.8447ZM11.2427 10.3149C12.4878 10.3149 13.3789 9.5459 13.3789 8.45947C13.3789 7.40967 12.5 6.65283 11.2427 6.65283C9.98535 6.65283 9.10645 7.40967 9.10645 8.45947C9.10645 9.5459 9.98535 10.3149 11.2427 10.3149Z" fill="#5ac8f5"/>
 </g>
</svg>
