<?xml version="1.0" encoding="UTF-8"?>
<!--Generator: Apple Native CoreSVG 175.5-->
<!DOCTYPE svg
PUBLIC "-//W3C//DTD SVG 1.1//EN"
       "http://www.w3.org/Graphics/SVG/1.1/DTD/svg11.dtd">
<svg version="1.1" xmlns="http://www.w3.org/2000/svg" xmlns:xlink="http://www.w3.org/1999/xlink" width="21.3209" height="23.839">
 <g>
  <rect height="23.839" opacity="0" width="21.3209" x="0" y="0"/>
  <path d="M15.6337 23.2171C20.4798 21.4593 22.5428 17.016 20.5897 11.6449L19.6864 9.14242C18.722 6.4935 16.9032 5.40707 14.767 6.1517C14.1932 5.40707 13.3143 5.15072 12.3622 5.49252C12.0082 5.6268 11.703 5.8099 11.41 6.02963C10.7875 5.22396 9.82311 4.931 8.82213 5.285C8.55358 5.38266 8.29723 5.52914 8.05309 5.70004L6.66149 1.89145C6.13658 0.438809 4.81823-0.171543 3.46324 0.316738C2.09606 0.817227 1.48571 2.12338 2.01061 3.57602L5.48961 13.1463C5.51403 13.2074 5.50182 13.2562 5.44078 13.2806C5.40416 13.305 5.35533 13.2806 5.31871 13.244L3.89049 11.6815C3.18248 10.9246 2.32799 10.6927 1.51012 10.9857C0.39928 11.4007-0.320935 12.4627 0.142932 13.7201C0.252796 14.0741 0.496936 14.5013 0.777698 14.8553L4.86705 19.7992C7.95543 23.5345 11.5809 24.6942 15.6337 23.2171ZM15.1088 21.618C11.9105 22.7899 8.90758 22.1917 6.08776 18.786L1.9984 13.8665C1.87633 13.7201 1.79088 13.5858 1.71764 13.3783C1.57115 12.9876 1.74205 12.536 2.20592 12.3651C2.59655 12.2308 2.90172 12.3773 3.2191 12.7069L6.05114 15.6244C6.515 16.1126 6.93004 16.1615 7.33287 16.015C7.82115 15.8441 8.01647 15.3314 7.82115 14.8065L3.49987 2.91684C3.31676 2.42855 3.53649 1.96469 4.00035 1.79379C4.47643 1.62289 4.91588 1.85482 5.09899 2.34311L8.18737 10.827C8.33385 11.2298 8.78551 11.4129 9.18834 11.2664C9.57897 11.12 9.78649 10.6927 9.65221 10.3021L8.52916 7.23813C8.70006 7.07943 8.93199 6.92074 9.16393 6.83529C9.73766 6.62777 10.2137 6.88412 10.4335 7.48227L11.41 10.1556C11.5565 10.5706 12.0082 10.7293 12.3988 10.5829C12.7772 10.4486 13.0214 10.0457 12.8627 9.6185L12.0692 7.44564C12.2401 7.28695 12.472 7.12826 12.704 7.04281C13.2777 6.83529 13.7538 7.09164 13.9735 7.68979L14.6205 9.47201C14.7792 9.89926 15.2308 10.0579 15.6214 9.91146C15.9999 9.77719 16.2318 9.36215 16.0853 8.94711L15.597 7.62875C16.6224 7.26254 17.5868 8.09262 18.246 9.92367L19.015 12.0111C20.6874 16.6253 19.1737 20.141 15.1088 21.618Z" fill="#5ac8f5"/>
 </g>
</svg>
