<?xml version="1.0" encoding="UTF-8"?>
<!--Generator: Apple Native CoreSVG 175.5-->
<!DOCTYPE svg
PUBLIC "-//W3C//DTD SVG 1.1//EN"
       "http://www.w3.org/Graphics/SVG/1.1/DTD/svg11.dtd">
<svg version="1.1" xmlns="http://www.w3.org/2000/svg" xmlns:xlink="http://www.w3.org/1999/xlink" width="3.4668" height="23.3765">
 <g>
  <rect height="23.3765" opacity="0" width="3.4668" x="0" y="0"/>
  <path d="M1.74561 16.6504C2.39258 16.6504 2.83203 16.2231 2.84424 15.564L2.9541 1.34277C2.9541 1.34277 2.9541 1.34277 2.9541 1.34277C2.9541 0.646973 2.39258 0.170898 1.7334 0.170898C1.07422 0.170898 0.512695 0.646973 0.512695 1.34277C0.512695 1.34277 0.512695 1.34277 0.512695 1.34277L0.646973 15.564C0.65918 16.2231 1.09863 16.6504 1.74561 16.6504ZM1.7334 23.3765C2.69775 23.3765 3.4668 22.5952 3.4668 21.6431C3.4668 20.6787 2.69775 19.9097 1.7334 19.9097C0.78125 19.9097 0 20.6787 0 21.6431C0 22.5952 0.78125 23.3765 1.7334 23.3765Z" fill="#5ac8f5"/>
 </g>
</svg>
