<?xml version="1.0" encoding="UTF-8"?>
<!--Generator: Apple Native CoreSVG 175.5-->
<!DOCTYPE svg
PUBLIC "-//W3C//DTD SVG 1.1//EN"
       "http://www.w3.org/Graphics/SVG/1.1/DTD/svg11.dtd">
<svg version="1.1" xmlns="http://www.w3.org/2000/svg" xmlns:xlink="http://www.w3.org/1999/xlink" width="20.5322" height="26.1597">
 <g>
  <rect height="26.1597" opacity="0" width="20.5322" x="0" y="0"/>
  <path d="M3.74756 26.1597L19.5557 26.1597C20.0928 26.1597 20.5322 25.7324 20.5322 25.1831C20.5322 24.7559 20.2393 24.3774 19.8486 24.2432C18.3105 23.6328 17.9932 21.6431 19.5068 20.1172C19.9707 19.6533 20.5322 19.0552 20.5322 17.8345L20.5322 3.83301C20.5322 1.29395 19.2749 0 16.748 0L3.78418 0C1.25732 0 0 1.28174 0 3.83301L0 22.3877C0 24.9023 1.26953 26.1597 3.74756 26.1597ZM1.96533 19.104L1.96533 3.86963C1.96533 2.64893 2.6123 1.96533 3.86963 1.96533L16.6504 1.96533C17.9199 1.96533 18.5669 2.64893 18.5669 3.86963L18.5669 17.5659C18.5669 18.2251 18.1885 18.6035 17.5049 18.6035L3.95508 18.6035C3.16162 18.6035 2.50244 18.7744 1.96533 19.104ZM3.85742 24.1943C2.62451 24.1943 1.96533 23.5352 1.96533 22.3755C1.96533 21.2769 2.74658 20.5688 3.96729 20.5688L16.4917 20.5688C16.6504 20.5688 16.7969 20.5566 16.9189 20.5322C16.3452 21.8018 16.4429 23.1445 17.0898 24.1943ZM3.40576 19.6533L5.00488 19.6533L5.00488 1.48926L3.40576 1.48926ZM8.34961 15.2588C8.72803 15.2588 8.99658 15.0757 9.16748 14.5874L9.93652 12.3413L13.7085 12.3413L14.4775 14.5874C14.6362 15.0757 14.9048 15.2588 15.2954 15.2588C15.7593 15.2588 16.0645 14.9658 16.0645 14.5264C16.0645 14.3677 16.04 14.209 15.9546 13.9893L13.0005 6.01807C12.793 5.46875 12.3901 5.18799 11.8164 5.18799C11.2427 5.18799 10.8521 5.46875 10.6445 6.01807L7.67822 13.9893C7.60498 14.209 7.56836 14.3677 7.56836 14.5264C7.56836 14.9658 7.87354 15.2588 8.34961 15.2588ZM10.3516 11.0718L11.7676 6.99463L11.8774 6.99463L13.2812 11.0718Z" fill="#5ac8f5"/>
 </g>
</svg>
