<?xml version="1.0" encoding="UTF-8"?>
<!--Generator: Apple Native CoreSVG 175.5-->
<!DOCTYPE svg
PUBLIC "-//W3C//DTD SVG 1.1//EN"
       "http://www.w3.org/Graphics/SVG/1.1/DTD/svg11.dtd">
<svg version="1.1" xmlns="http://www.w3.org/2000/svg" xmlns:xlink="http://www.w3.org/1999/xlink" width="24.9023" height="24.9146">
 <g>
  <rect height="24.9146" opacity="0" width="24.9023" x="0" y="0"/>
  <path d="M12.4512 24.9023C19.2627 24.9023 24.9023 19.2505 24.9023 12.4512C24.9023 5.63965 19.2505 0 12.439 0C5.63965 0 0 5.63965 0 12.4512C0 19.2505 5.65186 24.9023 12.4512 24.9023ZM12.4512 22.8271C6.68945 22.8271 2.0874 18.2129 2.0874 12.4512C2.0874 6.68945 6.67725 2.0752 12.439 2.0752C18.2007 2.0752 22.8271 6.68945 22.8271 12.4512C22.8271 18.2129 18.2129 22.8271 12.4512 22.8271Z" fill="#5ac8f5" fill-opacity="0.5"/>
  <path d="M9.28955 18.4082C9.77783 18.4082 10.0708 18.1641 10.1562 17.7124L10.7178 15.0879L12.9883 15.0879L12.4878 17.4805C12.3779 17.981 12.7319 18.4082 13.2324 18.4082C13.7207 18.4082 14.0381 18.1641 14.1357 17.7124L14.6851 15.0757L15.9546 15.0757C16.4307 15.0757 16.7725 14.7217 16.7725 14.2578C16.7725 13.8428 16.4795 13.5376 16.0767 13.5376L15.0146 13.5376L15.5396 11.0596L16.8213 11.0596C17.2974 11.0596 17.6392 10.7056 17.6392 10.2417C17.6392 9.82666 17.3462 9.52148 16.9434 9.52148L15.8569 9.52148L16.333 7.23877C16.4185 6.73828 16.0645 6.31104 15.564 6.31104C15.0879 6.31104 14.7827 6.55518 14.6851 7.01904L14.1602 9.52148L11.8896 9.52148L12.3535 7.23877C12.4634 6.75049 12.1094 6.31104 11.6089 6.31104C11.1206 6.31104 10.8154 6.55518 10.7178 7.01904L10.1929 9.52148L8.91113 9.52148C8.43506 9.52148 8.09326 9.87549 8.09326 10.3394C8.09326 10.7544 8.38623 11.0596 8.80127 11.0596L9.86328 11.0596L9.35059 13.5376L8.04443 13.5376C7.56836 13.5376 7.22656 13.8916 7.22656 14.3555C7.22656 14.7705 7.51953 15.0757 7.92236 15.0757L9.021 15.0757L8.53271 17.4805C8.43506 17.981 8.80127 18.4082 9.28955 18.4082ZM10.9375 13.6841L11.499 10.9375L13.9648 10.9375L13.3789 13.6841Z" fill="#5ac8f5"/>
 </g>
</svg>
