<?xml version="1.0" encoding="UTF-8"?>
<!--Generator: Apple Native CoreSVG 175.5-->
<!DOCTYPE svg
PUBLIC "-//W3C//DTD SVG 1.1//EN"
       "http://www.w3.org/Graphics/SVG/1.1/DTD/svg11.dtd">
<svg version="1.1" xmlns="http://www.w3.org/2000/svg" xmlns:xlink="http://www.w3.org/1999/xlink" width="30.1355" height="28.3226">
 <g>
  <rect height="28.3226" opacity="0" width="30.1355" x="0" y="0"/>
  <path d="M2.79821 27.3632C3.88463 28.4496 5.15417 28.3642 6.2528 27.1068L17.8617 13.8866L14.2728 10.2978L1.01598 21.87C-0.253549 22.9809-0.326791 24.2382 0.759634 25.3368ZM24.5023 16.8529C25.0272 17.3534 25.6254 17.39 26.1258 16.8895L29.8002 13.2396C30.2762 12.7636 30.2396 12.1288 29.7269 11.6283L28.848 10.7372C28.3719 10.2733 28.0668 10.2001 27.5541 10.2367L26.1258 10.4076L25.2103 9.49209L25.6254 7.7709C25.8329 6.92861 25.5155 6.0375 24.6244 5.14638L22.1708 2.71719C18.7772-0.664162 12.5272-1.04258 9.02379 2.44863C8.43786 3.03457 8.54772 3.69375 8.92614 4.10879C9.21911 4.38955 9.67077 4.53603 10.098 4.40176C12.4662 3.69375 14.5292 3.55947 16.3114 4.62148L15.3715 7.0873C14.9686 8.1249 15.1883 8.85732 15.8475 9.52871L18.5697 12.2509C19.0702 12.7514 19.5951 12.8978 20.3885 12.7392L22.3539 12.3363L23.2572 13.2519L23.1229 14.6801C23.0863 15.2172 23.1351 15.5346 23.6234 15.9862Z" fill="#5ac8f5"/>
 </g>
</svg>
