<?xml version="1.0" encoding="UTF-8"?>
<!--Generator: Apple Native CoreSVG 175.5-->
<!DOCTYPE svg
PUBLIC "-//W3C//DTD SVG 1.1//EN"
       "http://www.w3.org/Graphics/SVG/1.1/DTD/svg11.dtd">
<svg version="1.1" xmlns="http://www.w3.org/2000/svg" xmlns:xlink="http://www.w3.org/1999/xlink" width="22.9126" height="20.52">
 <g>
  <rect height="20.52" opacity="0" width="22.9126" x="0" y="0"/>
  <path d="M21.7651 0C21.1304 0 20.6787 0.439453 20.6787 1.07422C20.6787 1.51367 20.7031 1.9043 20.7031 2.49023C20.7031 7.01904 19.1284 8.8623 14.6484 8.8623L6.22559 8.8623L3.22266 9.04541L7.34863 5.27344L10.0586 2.51465C10.2539 2.31934 10.3516 2.03857 10.3516 1.74561C10.3516 1.13525 9.8877 0.695801 9.28955 0.695801C8.99658 0.695801 8.74023 0.793457 8.48389 1.02539L0.378418 9.13086C0.134277 9.36279 0 9.65576 0 9.94873C0 10.2539 0.134277 10.5347 0.378418 10.7788L8.45947 18.8477C8.72803 19.104 8.99658 19.2139 9.28955 19.2139C9.8877 19.2139 10.3516 18.7744 10.3516 18.1641C10.3516 17.8711 10.2539 17.5903 10.0586 17.3828L7.34863 14.624L3.23486 10.8765L6.22559 11.0474L14.7583 11.0474C20.5566 11.0474 22.9126 8.5083 22.9126 2.6001C22.9126 1.87988 22.8882 1.28174 22.8149 0.90332C22.7051 0.415039 22.4121 0 21.7651 0Z" fill="#5ac8f5"/>
 </g>
</svg>
