<?xml version="1.0" encoding="UTF-8"?>
<!--Generator: Apple Native CoreSVG 175.5-->
<!DOCTYPE svg
PUBLIC "-//W3C//DTD SVG 1.1//EN"
       "http://www.w3.org/Graphics/SVG/1.1/DTD/svg11.dtd">
<svg version="1.1" xmlns="http://www.w3.org/2000/svg" xmlns:xlink="http://www.w3.org/1999/xlink" width="20.5322" height="26.1841">
 <g>
  <rect height="26.1841" opacity="0" width="20.5322" x="0" y="0"/>
  <path d="M10.2661 13.5132C10.7544 13.5132 11.1694 13.9038 11.1694 14.3799L11.1694 18.7012L11.084 20.6177L12.1094 19.5801L13.1714 18.4937C13.3423 18.3228 13.5742 18.2251 13.8062 18.2251C14.2822 18.2251 14.6362 18.5669 14.6362 19.0308C14.6362 19.2993 14.5264 19.5068 14.3433 19.6655L10.9253 22.8149C10.6812 23.0347 10.4858 23.1201 10.2661 23.1201C10.0464 23.1201 9.85107 23.0347 9.60693 22.8149L6.18896 19.6655C6.00586 19.5068 5.896 19.2993 5.896 19.0308C5.896 18.5669 6.23779 18.2251 6.72607 18.2251C6.9458 18.2251 7.18994 18.3228 7.36084 18.4937L8.42285 19.5801L9.44824 20.6177L9.375 18.7012L9.375 14.3799C9.375 13.9038 9.77783 13.5132 10.2661 13.5132ZM3.78418 26.1719L16.748 26.1719C19.2749 26.1719 20.5322 24.8901 20.5322 22.3511L20.5322 11.2671L11.6943 11.2671C10.1318 11.2671 9.38721 10.5225 9.38721 8.95996L9.38721 0L3.78418 0C1.26953 0 0 1.29395 0 3.83301L0 22.3511C0 24.9023 1.25732 26.1719 3.78418 26.1719ZM11.731 9.59473L20.3857 9.59473C20.3125 9.09424 19.9585 8.60596 19.3726 8.00781L12.6465 1.15967C12.0728 0.57373 11.5723 0.219727 11.0596 0.134277L11.0596 8.93555C11.0596 9.375 11.2793 9.59473 11.731 9.59473Z" fill="#5ac8f5"/>
 </g>
</svg>
