<?xml version="1.0" encoding="UTF-8"?>
<!--Generator: Apple Native CoreSVG 175.5-->
<!DOCTYPE svg
PUBLIC "-//W3C//DTD SVG 1.1//EN"
       "http://www.w3.org/Graphics/SVG/1.1/DTD/svg11.dtd">
<svg version="1.1" xmlns="http://www.w3.org/2000/svg" xmlns:xlink="http://www.w3.org/1999/xlink" width="41.7114" height="22.4976">
 <g>
  <rect height="22.4976" opacity="0" width="41.7114" x="0" y="0"/>
  <path d="M11.6577 22.4976L30.0537 22.4976C32.605 22.4976 33.8867 21.228 33.8867 18.7134L33.8867 3.80859C33.8867 1.29395 32.605 0.0244141 30.0537 0.0244141L11.6577 0.0244141C9.11865 0.0244141 7.83691 1.28174 7.83691 3.80859L7.83691 18.7134C7.83691 21.2402 9.11865 22.4976 11.6577 22.4976ZM10.083 15.1611L10.083 7.36084C10.083 6.95801 10.4248 6.62842 10.8276 6.62842C11.2305 6.62842 11.5601 6.95801 11.5601 7.36084L11.5601 15.1611C11.5601 15.564 11.2305 15.8936 10.8276 15.8936C10.4248 15.8936 10.083 15.564 10.083 15.1611ZM13.8184 20.5322L13.8184 1.98975L27.9053 1.98975L27.9053 20.5322ZM30.1514 15.1611L30.1514 7.36084C30.1514 6.95801 30.4932 6.62842 30.896 6.62842C31.2988 6.62842 31.6284 6.95801 31.6284 7.36084L31.6284 15.1611C31.6284 15.564 31.2988 15.8936 30.896 15.8936C30.4932 15.8936 30.1514 15.564 30.1514 15.1611Z" fill="#5ac8f5" fill-opacity="0.5"/>
  <path d="M1.9165 15.0024L5.22461 12.3047C5.896 11.7432 5.87158 10.8521 5.22461 10.3027L1.9165 7.54395C1.0498 6.82373 0 7.26318 0 8.38623L0 14.1846C0 15.271 1.08643 15.6738 1.9165 15.0024ZM39.7949 15.0024C40.625 15.6738 41.7114 15.271 41.7114 14.1846L41.7114 8.38623C41.7114 7.26318 40.6616 6.82373 39.7949 7.54395L36.4868 10.3027C35.8521 10.8521 35.8154 11.7432 36.4868 12.3047Z" fill="#5ac8f5"/>
 </g>
</svg>
