<?xml version="1.0" encoding="UTF-8"?>
<!--Generator: Apple Native CoreSVG 175.5-->
<!DOCTYPE svg
PUBLIC "-//W3C//DTD SVG 1.1//EN"
       "http://www.w3.org/Graphics/SVG/1.1/DTD/svg11.dtd">
<svg version="1.1" xmlns="http://www.w3.org/2000/svg" xmlns:xlink="http://www.w3.org/1999/xlink" width="31.6284" height="25.5981">
 <g>
  <rect height="25.5981" opacity="0" width="31.6284" x="0" y="0"/>
  <path d="M3.83301 19.9463L12.8662 19.9463L12.8662 17.981L3.85742 17.981C2.63672 17.981 1.96533 17.3218 1.96533 16.0522L1.96533 3.91846C1.96533 2.64893 2.63672 1.98975 3.85742 1.98975L21.6064 1.98975C22.8149 1.98975 23.4985 2.64893 23.4985 3.91846L23.4985 10.9863L25.4639 10.9863L25.4639 3.80859C25.4639 1.29395 24.1821 0.0244141 21.6431 0.0244141L3.83301 0.0244141C1.26953 0.0244141 0 1.29395 0 3.80859L0 16.1621C0 18.6768 1.26953 19.9463 3.83301 19.9463ZM15.8081 25.5981L27.8076 25.5981C30.3467 25.5981 31.6284 24.3286 31.6284 21.814L31.6284 13.9038C31.6284 11.3892 30.3467 10.1196 27.8076 10.1196L15.8081 10.1196C13.2568 10.1196 11.9751 11.377 11.9751 13.9038L11.9751 21.814C11.9751 24.3286 13.2568 25.5981 15.8081 25.5981ZM9.60693 5.22461C9.5459 4.84619 9.09424 4.44336 8.60596 4.91943L7.25098 6.26221L5.26123 4.26025C4.96826 3.96729 4.47998 3.96729 4.18701 4.26025C3.89404 4.55322 3.89404 5.0415 4.18701 5.33447L6.18896 7.32422L4.84619 8.6792C4.37012 9.16748 4.77295 9.61914 5.15137 9.68018L9.55811 10.3638C9.77783 10.4004 9.97314 10.3271 10.1196 10.1929C10.2539 10.0464 10.3271 9.85107 10.2905 9.63135ZM16.1621 18.2617L15.4663 13.855C15.4419 13.6353 15.5151 13.4399 15.6372 13.2935C15.7837 13.1592 15.9912 13.0859 16.1987 13.1226L20.6177 13.8062C20.9839 13.855 21.3989 14.3311 20.9229 14.8071L19.5801 16.1621L21.582 18.1519C21.875 18.4448 21.875 18.9331 21.582 19.2261C21.2769 19.519 20.8008 19.519 20.5078 19.2261L18.5059 17.2241L17.1509 18.5669C16.687 19.0552 16.2109 18.6401 16.1621 18.2617Z" fill="#5ac8f5"/>
 </g>
</svg>
