<?xml version="1.0" encoding="UTF-8"?>
<!--Generator: Apple Native CoreSVG 175.5-->
<!DOCTYPE svg
PUBLIC "-//W3C//DTD SVG 1.1//EN"
       "http://www.w3.org/Graphics/SVG/1.1/DTD/svg11.dtd">
<svg version="1.1" xmlns="http://www.w3.org/2000/svg" xmlns:xlink="http://www.w3.org/1999/xlink" width="24.9756" height="31.5552">
 <g>
  <rect height="31.5552" opacity="0" width="24.9756" x="0" y="0"/>
  <path d="M12.4878 22.1802C20.2881 22.1802 24.9756 18.6646 24.9756 14.3066C24.9756 9.96094 20.2881 6.44531 12.4756 6.44531C4.6875 6.44531 0 9.96094 0 14.3066C0 18.6646 4.6875 22.1802 12.4878 22.1802ZM12.4878 27.7222C15.4541 27.7222 17.2119 26.3306 17.2119 23.9868L17.2119 23.3765C15.7349 23.6694 14.1602 23.8403 12.4878 23.8403C10.8154 23.8403 9.24072 23.6694 7.77588 23.3765L7.77588 23.9868C7.77588 26.3306 9.53369 27.7222 12.4878 27.7222ZM10.4858 18.0664C10.022 18.0664 9.729 17.7368 9.729 17.2241L9.729 11.2793C9.729 10.7422 10.022 10.4126 10.4858 10.4126L12.7808 10.4126C14.4531 10.4126 15.5518 11.3892 15.5518 12.9028C15.5518 13.8916 14.9902 14.7339 14.0747 15.1001L15.21 16.8701C15.3198 17.041 15.3809 17.1997 15.3809 17.4072C15.3809 17.8101 15.0513 18.0908 14.6606 18.0908C14.3433 18.0908 14.1357 17.9565 13.9282 17.6025L12.5488 15.3564L11.2671 15.3564L11.2671 17.2241C11.2671 17.7368 10.9619 18.0664 10.4858 18.0664ZM11.2671 14.1602L12.5977 14.1602C13.5132 14.1602 14.0259 13.7085 14.0259 12.9272C14.0259 12.146 13.501 11.6577 12.6221 11.6577L11.2671 11.6577ZM9.50928 1.48926L11.9385 4.76074C12.2681 5.2124 12.8906 5.2124 13.2202 4.76074L15.6738 1.48926C16.1621 0.842285 15.9058 0 15.0269 0L10.1318 0C9.30176 0 8.99658 0.817871 9.50928 1.48926Z" fill="#5ac8f5"/>
 </g>
</svg>
