<?xml version="1.0" encoding="UTF-8"?>
<!--Generator: Apple Native CoreSVG 175.5-->
<!DOCTYPE svg
PUBLIC "-//W3C//DTD SVG 1.1//EN"
       "http://www.w3.org/Graphics/SVG/1.1/DTD/svg11.dtd">
<svg version="1.1" xmlns="http://www.w3.org/2000/svg" xmlns:xlink="http://www.w3.org/1999/xlink" width="34.7748" height="18.1703">
 <g>
  <rect height="18.1703" opacity="0" width="34.7748" x="0" y="0"/>
  <path d="M0.631714 13.9008L6.24695 17.8071C6.88171 18.2587 7.77283 18.2343 8.48083 17.7582L14.0106 13.9008C14.8529 13.3149 14.8529 12.3749 14.0106 11.789L8.4198 7.89496C7.76062 7.4433 6.88171 7.43109 6.24695 7.87055L0.631714 11.789C-0.210571 12.3749-0.210571 13.3149 0.631714 13.9008ZM10.6903 6.35687L16.3177 10.2631C16.9525 10.7148 17.8436 10.6904 18.5394 10.2021L24.0814 6.35687C24.9237 5.77094 24.9237 4.83099 24.0814 4.24506L18.4784 0.351014C17.8314-0.112853 16.9525-0.112853 16.3177 0.3266L10.6903 4.24506C9.86023 4.83099 9.86023 5.77094 10.6903 6.35687ZM20.7733 13.9008L26.3275 17.7704C27.0111 18.2465 27.9022 18.2465 28.5492 17.7949L34.1522 13.9008C34.9823 13.3149 34.9823 12.3749 34.1522 11.789L28.5492 7.89496C27.9022 7.4433 27.0233 7.43109 26.3885 7.87055L20.7733 11.789C19.931 12.3749 19.931 13.3149 20.7733 13.9008Z" fill="#5ac8f5"/>
 </g>
</svg>
