<?xml version="1.0" encoding="UTF-8"?>
<!--Generator: Apple Native CoreSVG 175.5-->
<!DOCTYPE svg
PUBLIC "-//W3C//DTD SVG 1.1//EN"
       "http://www.w3.org/Graphics/SVG/1.1/DTD/svg11.dtd">
<svg version="1.1" xmlns="http://www.w3.org/2000/svg" xmlns:xlink="http://www.w3.org/1999/xlink" width="22.4731" height="22.4976">
 <g>
  <rect height="22.4976" opacity="0" width="22.4731" x="0" y="0"/>
  <path d="M3.83301 22.4976L18.6401 22.4976C21.2036 22.4976 22.4731 21.228 22.4731 18.7134L22.4731 3.80859C22.4731 1.29395 21.2036 0.0244141 18.6401 0.0244141L3.83301 0.0244141C1.28174 0.0244141 0 1.28174 0 3.80859L0 18.7134C0 21.2402 1.28174 22.4976 3.83301 22.4976ZM6.50635 14.5508C5.85938 14.5508 5.39551 14.2334 5.39551 13.5986C5.39551 12.9517 5.83496 12.6099 6.50635 12.6099L15.9668 12.6099C16.6382 12.6099 17.0654 12.9517 17.0654 13.5986C17.0654 14.2334 16.6138 14.5508 15.9668 14.5508ZM6.50635 9.8999C5.85938 9.8999 5.39551 9.58252 5.39551 8.93555C5.39551 8.28857 5.83496 7.95898 6.50635 7.95898L15.9668 7.95898C16.6382 7.95898 17.0654 8.28857 17.0654 8.93555C17.0654 9.58252 16.6138 9.8999 15.9668 9.8999Z" fill="#5ac8f5"/>
 </g>
</svg>
