<?xml version="1.0" encoding="UTF-8"?>
<!--Generator: Apple Native CoreSVG 175.5-->
<!DOCTYPE svg
PUBLIC "-//W3C//DTD SVG 1.1//EN"
       "http://www.w3.org/Graphics/SVG/1.1/DTD/svg11.dtd">
<svg version="1.1" xmlns="http://www.w3.org/2000/svg" xmlns:xlink="http://www.w3.org/1999/xlink" width="28.7842" height="22.4731">
 <g>
  <rect height="22.4731" opacity="0" width="28.7842" x="0" y="0"/>
  <path d="M6.10352 6.95801L7.58057 6.95801C8.09326 6.95801 8.52051 6.53076 8.52051 6.01807C8.52051 5.50537 8.08105 5.07812 7.58057 5.07812L6.10352 5.07812C5.57861 5.07812 5.17578 5.50537 5.17578 6.01807C5.17578 6.53076 5.59082 6.95801 6.10352 6.95801ZM6.10352 11.0229L7.58057 11.0229C8.08105 11.0229 8.52051 10.6079 8.52051 10.0952C8.52051 9.58252 8.09326 9.16748 7.58057 9.16748L6.10352 9.16748C5.57861 9.16748 5.17578 9.58252 5.17578 10.0952C5.17578 10.6079 5.57861 11.0229 6.10352 11.0229ZM10.9985 6.78711L22.8394 6.78711C23.2666 6.78711 23.5962 6.44531 23.5962 6.01807C23.5962 5.59082 23.2666 5.26123 22.8394 5.26123L10.9985 5.26123C10.5713 5.26123 10.2417 5.59082 10.2417 6.01807C10.2417 6.44531 10.5713 6.78711 10.9985 6.78711ZM10.9985 10.8643L22.8394 10.8643C23.2666 10.8643 23.5962 10.5347 23.5962 10.0952C23.5962 9.66797 23.2666 9.32617 22.8394 9.32617L10.9985 9.32617C10.5835 9.32617 10.2417 9.65576 10.2417 10.0952C10.2417 10.5225 10.5713 10.8643 10.9985 10.8643ZM3.83301 22.4731L24.9512 22.4731C27.5146 22.4731 28.7842 21.2158 28.7842 18.7012L28.7842 3.78418C28.7842 1.26953 27.5146 0 24.9512 0L3.83301 0C1.28174 0 0 1.26953 0 3.78418L0 18.7012C0 21.2158 1.28174 22.4731 3.83301 22.4731ZM3.85742 20.5078C2.63672 20.5078 1.96533 19.8608 1.96533 18.5913L1.96533 3.89404C1.96533 2.62451 2.63672 1.96533 3.85742 1.96533L24.9268 1.96533C26.1353 1.96533 26.8188 2.62451 26.8188 3.89404L26.8188 18.5913C26.8188 19.8608 26.1353 20.5078 24.9268 20.5078Z" fill="#5ac8f5"/>
 </g>
</svg>
