<?xml version="1.0" encoding="UTF-8"?>
<!--Generator: Apple Native CoreSVG 175.5-->
<!DOCTYPE svg
PUBLIC "-//W3C//DTD SVG 1.1//EN"
       "http://www.w3.org/Graphics/SVG/1.1/DTD/svg11.dtd">
<svg version="1.1" xmlns="http://www.w3.org/2000/svg" xmlns:xlink="http://www.w3.org/1999/xlink" width="22.4731" height="22.4976">
 <g>
  <rect height="22.4976" opacity="0" width="22.4731" x="0" y="0"/>
  <path d="M3.83301 22.4976L18.6401 22.4976C21.2036 22.4976 22.4731 21.228 22.4731 18.7134L22.4731 3.80859C22.4731 1.29395 21.2036 0.0244141 18.6401 0.0244141L3.83301 0.0244141C1.28174 0.0244141 0 1.28174 0 3.80859L0 18.7134C0 21.2402 1.28174 22.4976 3.83301 22.4976ZM5.28564 11.2549C5.28564 10.6201 5.7251 10.1807 6.35986 10.1807L10.1807 10.1807L10.1807 6.35986C10.1807 5.7251 10.6079 5.27344 11.2305 5.27344C11.8652 5.27344 12.3047 5.7251 12.3047 6.35986L12.3047 10.1807L16.1377 10.1807C16.7603 10.1807 17.2119 10.6201 17.2119 11.2549C17.2119 11.8774 16.7603 12.2925 16.1377 12.2925L12.3047 12.2925L12.3047 16.1255C12.3047 16.7603 11.8652 17.1997 11.2305 17.1997C10.6079 17.1997 10.1807 16.748 10.1807 16.1255L10.1807 12.2925L6.35986 12.2925C5.7251 12.2925 5.28564 11.8774 5.28564 11.2549Z" fill="#5ac8f5"/>
 </g>
</svg>
