<?xml version="1.0" encoding="UTF-8"?>
<!--Generator: Apple Native CoreSVG 175.5-->
<!DOCTYPE svg
PUBLIC "-//W3C//DTD SVG 1.1//EN"
       "http://www.w3.org/Graphics/SVG/1.1/DTD/svg11.dtd">
<svg version="1.1" xmlns="http://www.w3.org/2000/svg" xmlns:xlink="http://www.w3.org/1999/xlink" width="16.9922" height="9.92432">
 <g>
  <rect height="9.92432" opacity="0" width="16.9922" x="0" y="0"/>
  <path d="M1.08643 2.20947L15.9058 2.20947C16.4917 2.20947 16.9922 1.70898 16.9922 1.11084C16.9922 0.512695 16.4917 0.0244141 15.9058 0.0244141L1.08643 0.0244141C0.500488 0.0244141 0 0.512695 0 1.11084C0 1.70898 0.500488 2.20947 1.08643 2.20947ZM1.08643 9.92432L15.9058 9.92432C16.4917 9.92432 16.9922 9.43604 16.9922 8.83789C16.9922 8.23975 16.4917 7.73926 15.9058 7.73926L1.08643 7.73926C0.500488 7.73926 0 8.23975 0 8.83789C0 9.43604 0.500488 9.92432 1.08643 9.92432Z" fill="#5ac8f5"/>
 </g>
</svg>
