<?xml version="1.0" encoding="UTF-8"?>
<!--Generator: Apple Native CoreSVG 175.5-->
<!DOCTYPE svg
PUBLIC "-//W3C//DTD SVG 1.1//EN"
       "http://www.w3.org/Graphics/SVG/1.1/DTD/svg11.dtd">
<svg version="1.1" xmlns="http://www.w3.org/2000/svg" xmlns:xlink="http://www.w3.org/1999/xlink" width="28.4302" height="24.6948">
 <g>
  <rect height="24.6948" opacity="0" width="28.4302" x="0" y="0"/>
  <path d="M0 12.3413C0 20.0195 2.14844 24.6826 7.25098 24.6826L8.64258 24.6826C7.60498 23.7793 6.75049 22.4609 6.12793 20.7886L4.47998 20.7886C4.04053 20.7886 3.67432 20.4224 3.67432 19.9829C3.67432 19.5435 4.04053 19.1895 4.47998 19.1895L5.61523 19.1895C5.43213 18.4814 5.27344 17.7246 5.16357 17.041L3.6499 17.041C3.21045 17.041 2.85645 16.687 2.85645 16.2476C2.85645 15.8081 3.21045 15.4419 3.6499 15.4419L4.96826 15.4419C4.88281 14.6484 4.83398 13.7451 4.82178 12.9883L3.34473 12.9883C2.90527 12.9883 2.53906 12.6343 2.53906 12.1948C2.53906 11.7554 2.90527 11.3892 3.34473 11.3892L4.83398 11.3892C4.84619 10.5835 4.89502 9.74121 4.99268 8.94775L3.6499 8.94775C3.21045 8.94775 2.85645 8.58154 2.85645 8.14209C2.85645 7.70264 3.21045 7.34863 3.6499 7.34863L5.2124 7.34863C5.34668 6.5918 5.49316 5.88379 5.70068 5.2002L4.47998 5.2002C4.04053 5.2002 3.67432 4.84619 3.67432 4.40674C3.67432 3.96729 4.04053 3.60107 4.47998 3.60107L6.23779 3.60107C6.84814 2.06299 7.66602 0.842285 8.64258 0L7.25098 0C2.14844 0 0 4.65088 0 12.3413ZM15.332 13.0859L19.0308 16.3574C19.7388 17.0044 20.7886 16.6382 20.7886 15.6006L20.7886 13.3911L27.3804 13.3911C27.9785 13.3911 28.4302 12.9272 28.4302 12.3535C28.4302 11.7554 27.9785 11.3037 27.3804 11.3037L20.7886 11.3037L20.7886 9.06982C20.7886 8.06885 19.7754 7.6416 19.0308 8.30078L15.332 11.5845C14.8315 12.0239 14.8193 12.6343 15.332 13.0859ZM14.2334 10.3394L17.334 7.56836C16.5649 3.07617 14.6362 0.305176 12.1216 0.305176C8.77686 0.305176 6.49414 5.12695 6.49414 12.3413C6.49414 19.5557 8.77686 24.3652 12.1216 24.3652C14.6362 24.3652 16.5649 21.5942 17.334 17.1143L14.2334 14.3311C12.9761 13.2324 12.9761 11.4502 14.2334 10.3394Z" fill="#5ac8f5"/>
 </g>
</svg>
