<?xml version="1.0" encoding="UTF-8"?>
<!--Generator: Apple Native CoreSVG 175.5-->
<!DOCTYPE svg
PUBLIC "-//W3C//DTD SVG 1.1//EN"
       "http://www.w3.org/Graphics/SVG/1.1/DTD/svg11.dtd">
<svg version="1.1" xmlns="http://www.w3.org/2000/svg" xmlns:xlink="http://www.w3.org/1999/xlink" width="22.4731" height="22.4976">
 <g>
  <rect height="22.4976" opacity="0" width="22.4731" x="0" y="0"/>
  <path d="M3.83301 22.4976L18.6401 22.4976C21.2036 22.4976 22.4731 21.228 22.4731 18.7134L22.4731 3.80859C22.4731 1.29395 21.2036 0.0244141 18.6401 0.0244141L3.83301 0.0244141C1.28174 0.0244141 0 1.28174 0 3.80859L0 18.7134C0 21.2402 1.28174 22.4976 3.83301 22.4976ZM6.70166 16.2231L6.70166 11.2183C6.70166 10.3271 7.06787 9.8877 7.80029 9.83887L7.80029 8.36182C7.80029 6.04248 9.19189 4.49219 11.2427 4.49219C13.2935 4.49219 14.6851 6.04248 14.6851 8.36182L14.6851 9.83887C15.4297 9.8877 15.7959 10.3271 15.7959 11.2183L15.7959 16.2231C15.7959 17.1631 15.3809 17.6025 14.502 17.6025L7.9834 17.6025C7.1167 17.6025 6.70166 17.1631 6.70166 16.2231ZM9.11865 9.82666L13.3667 9.82666L13.3667 8.21533C13.3667 6.75049 12.5122 5.76172 11.2427 5.76172C9.97314 5.76172 9.11865 6.75049 9.11865 8.21533Z" fill="#5ac8f5"/>
 </g>
</svg>
