<?xml version="1.0" encoding="UTF-8"?>
<!--Generator: Apple Native CoreSVG 175.5-->
<!DOCTYPE svg
PUBLIC "-//W3C//DTD SVG 1.1//EN"
       "http://www.w3.org/Graphics/SVG/1.1/DTD/svg11.dtd">
<svg version="1.1" xmlns="http://www.w3.org/2000/svg" xmlns:xlink="http://www.w3.org/1999/xlink" width="33.4961" height="26.5503">
 <g>
  <rect height="26.5503" opacity="0" width="33.4961" x="0" y="0"/>
  <path d="M8.70361 19.1772L10.4858 19.1772C11.2549 19.1772 11.853 18.7134 12.0239 17.981L12.3657 16.4307C12.4023 16.4185 12.4512 16.394 12.4878 16.3818L13.8672 17.2119C14.4897 17.5781 15.2588 17.5049 15.7837 16.98L17.0288 15.7227C17.5781 15.1733 17.6514 14.4165 17.2607 13.7939L16.4185 12.4634C16.4307 12.4146 16.4551 12.3779 16.4673 12.3291L17.9932 11.9629C18.7134 11.792 19.1895 11.1816 19.1895 10.4126L19.1895 8.75244C19.1895 7.99561 18.7256 7.38525 17.9932 7.20215L16.4673 6.83594C16.4551 6.78711 16.4307 6.75049 16.4185 6.70166L17.2607 5.37109C17.6514 4.74854 17.5781 4.00391 17.0288 3.44238L15.7837 2.19727C15.2588 1.67236 14.4897 1.58691 13.8672 1.96533L12.4878 2.7832C12.439 2.771 12.4023 2.75879 12.3535 2.74658L12.0239 1.18408C11.8652 0.463867 11.2549 0 10.4858 0L8.70361 0C7.93457 0 7.33643 0.463867 7.16553 1.18408L6.82373 2.74658C6.7749 2.75879 6.73828 2.771 6.68945 2.7832L5.32227 1.96533C4.69971 1.58691 3.93066 1.67236 3.40576 2.19727L2.16064 3.44238C1.61133 4.00391 1.55029 4.76074 1.92871 5.37109L2.771 6.70166C2.75879 6.75049 2.73438 6.78711 2.72217 6.83594L1.18408 7.20215C0.463867 7.38525 0 7.99561 0 8.75244L0 10.4126C0 11.1816 0.463867 11.792 1.18408 11.9629L2.72217 12.3291C2.73438 12.3779 2.75879 12.4146 2.771 12.4634L1.92871 13.7939C1.53809 14.4165 1.61133 15.1733 2.16064 15.7227L3.40576 16.98C3.93066 17.5049 4.6875 17.5781 5.31006 17.2119L6.70166 16.3818C6.73828 16.394 6.78711 16.4185 6.82373 16.4307L7.16553 17.981C7.33643 18.7134 7.93457 19.1772 8.70361 19.1772ZM8.93555 17.4683C8.81348 17.4683 8.75244 17.4072 8.71582 17.2852L8.19092 15.1001C7.60498 14.9658 7.06787 14.6973 6.64062 14.4653L4.73633 15.625C4.61426 15.6982 4.52881 15.686 4.44336 15.6006L3.51562 14.6851C3.43018 14.5996 3.41797 14.5264 3.49121 14.4043L4.63867 12.5122C4.49219 12.146 4.1748 11.5967 4.02832 10.9619L1.87988 10.4492C1.75781 10.4248 1.69678 10.3516 1.69678 10.2295L1.69678 8.93555C1.69678 8.81348 1.75781 8.75244 1.87988 8.72803L4.02832 8.21533C4.1748 7.56836 4.49219 7.03125 4.63867 6.65283L3.49121 4.76074C3.41797 4.65088 3.43018 4.57764 3.51562 4.47998L4.44336 3.57666C4.52881 3.49121 4.61426 3.479 4.73633 3.54004L6.64062 4.69971C7.06787 4.46777 7.60498 4.19922 8.19092 4.06494L8.71582 1.89209C8.75244 1.77002 8.81348 1.70898 8.93555 1.70898L10.2539 1.70898C10.376 1.70898 10.437 1.77002 10.4736 1.89209L10.9985 4.06494C11.5845 4.19922 12.1216 4.46777 12.5488 4.69971L14.4531 3.54004C14.563 3.479 14.6606 3.49121 14.7461 3.57666L15.6738 4.47998C15.7593 4.57764 15.7715 4.65088 15.6982 4.76074L14.5508 6.65283C14.6973 7.03125 15.0146 7.56836 15.1611 8.21533L17.3096 8.72803C17.4316 8.75244 17.4927 8.81348 17.4927 8.93555L17.4927 10.2295C17.4927 10.3516 17.4316 10.4248 17.3096 10.4492L15.1611 10.9619C15.0146 11.5967 14.6973 12.146 14.5508 12.5122L15.6982 14.4043C15.7715 14.5264 15.7593 14.5996 15.6738 14.6851L14.7461 15.6006C14.6606 15.686 14.563 15.6982 14.4531 15.625L12.5488 14.4653C12.1216 14.6973 11.5845 14.9658 10.9985 15.1001L10.4736 17.2852C10.437 17.4072 10.376 17.4683 10.2539 17.4683ZM9.59473 13.2935C11.6089 13.2935 13.269 11.6211 13.269 9.58252C13.269 7.56836 11.6089 5.9082 9.59473 5.9082C7.54395 5.9082 5.896 7.56836 5.896 9.58252C5.896 11.6089 7.54395 13.2935 9.59473 13.2935ZM9.59473 11.4868C8.55713 11.4868 7.69043 10.6445 7.69043 9.58252C7.69043 8.55713 8.55713 7.70264 9.59473 7.70264C10.6201 7.70264 11.4624 8.55713 11.4624 9.58252C11.4624 10.6323 10.6201 11.4868 9.59473 11.4868ZM24.7192 26.5381L26.123 26.5381C26.8188 26.5381 27.4048 26.1353 27.5146 25.5005L27.7466 24.2676C27.8076 24.2554 27.8442 24.2432 27.8809 24.231L28.9185 24.8779C29.48 25.2319 30.1758 25.1587 30.6641 24.646L31.6528 23.6572C32.1411 23.1567 32.2388 22.4609 31.8604 21.8994L31.2012 20.8984C31.2134 20.8496 31.2256 20.8252 31.25 20.7764L32.4585 20.52C33.0811 20.3857 33.4961 19.8242 33.4961 19.1284L33.4961 17.7612C33.4961 17.0776 33.0811 16.5039 32.4585 16.3696L31.25 16.1255C31.2256 16.0767 31.2134 16.04 31.2012 15.9912L31.8604 14.9902C32.2388 14.4287 32.1411 13.7451 31.6528 13.2446L30.6641 12.2437C30.1758 11.7432 29.48 11.6577 28.9185 12.0117L27.8809 12.6587C27.8442 12.6465 27.8076 12.6343 27.7466 12.6221L27.5146 11.4014C27.4048 10.7544 26.8188 10.3516 26.123 10.3516L24.7192 10.3516C24.0234 10.3516 23.4375 10.7544 23.3154 11.4014L23.0835 12.6221C23.0347 12.6343 22.998 12.6465 22.9492 12.6587L21.9116 12.0117C21.3501 11.6577 20.6665 11.7432 20.1782 12.2437L19.1895 13.2446C18.7012 13.7451 18.6035 14.4287 18.9697 14.9902L19.6289 15.9912C19.6167 16.04 19.6045 16.0767 19.5923 16.1255L18.3838 16.3696C17.749 16.5039 17.334 17.0776 17.334 17.7612L17.334 19.1284C17.334 19.8242 17.749 20.3857 18.3838 20.52L19.5923 20.7764C19.6045 20.8252 19.6167 20.8496 19.6289 20.8984L18.9697 21.8994C18.6035 22.4609 18.7012 23.1567 19.1895 23.6572L20.1782 24.646C20.6665 25.1587 21.3501 25.2319 21.9116 24.8779L22.9492 24.231C22.998 24.2432 23.0347 24.2554 23.0835 24.2676L23.3154 25.5005C23.4375 26.1353 24.0234 26.5381 24.7192 26.5381ZM25.0366 24.9146C24.8901 24.9146 24.8169 24.8413 24.7803 24.7192L24.353 22.9614C23.8647 22.8516 23.4253 22.6807 22.9614 22.3755L21.4233 23.3398C21.3257 23.4009 21.2036 23.3887 21.106 23.3032L20.5566 22.7295C20.4468 22.6196 20.4346 22.522 20.5078 22.4121L21.4355 20.9106C21.3379 20.6177 21.0083 20.0928 20.8862 19.4946L19.1406 19.0918C19.0186 19.0674 18.9453 18.9697 18.9453 18.8477L18.9453 18.042C18.9453 17.9199 19.0186 17.8223 19.1406 17.7979L20.8862 17.395C21.0083 16.7969 21.3379 16.2842 21.4355 15.979L20.5078 14.4775C20.4346 14.3799 20.4468 14.27 20.5566 14.1602L21.106 13.5986C21.2036 13.501 21.3257 13.4888 21.4233 13.562L22.9614 14.5142C23.4253 14.2212 23.8647 14.0381 24.353 13.9282L24.7803 12.1704C24.8169 12.0483 24.8901 11.9751 25.0366 11.9751L25.7935 11.9751C25.9399 11.9751 26.0132 12.0483 26.0498 12.1704L26.4771 13.9282C26.9653 14.0381 27.4048 14.2212 27.8687 14.5142L29.4067 13.562C29.5166 13.4888 29.6265 13.501 29.7241 13.5986L30.2856 14.1602C30.3833 14.27 30.3955 14.3799 30.3345 14.4775L29.3945 15.979C29.5044 16.2842 29.8218 16.7969 29.9438 17.395L31.6895 17.7979C31.8115 17.8223 31.8848 17.9199 31.8848 18.042L31.8848 18.8477C31.8848 18.9697 31.8115 19.0674 31.6895 19.0918L29.9438 19.4946C29.8218 20.0928 29.5044 20.6177 29.3945 20.9106L30.3345 22.4121C30.3955 22.522 30.3833 22.6196 30.2856 22.7295L29.7241 23.3032C29.6265 23.3887 29.5166 23.4009 29.4067 23.3398L27.8687 22.3755C27.4048 22.6807 26.9653 22.8516 26.4771 22.9614L26.0498 24.7192C26.0132 24.8413 25.9399 24.9146 25.7935 24.9146ZM25.415 21.3135C26.9775 21.3135 28.2715 20.0195 28.2715 18.4448C28.2715 16.8823 26.9775 15.6006 25.415 15.6006C23.8281 15.6006 22.5464 16.8823 22.5464 18.4448C22.5464 20.0073 23.8281 21.3135 25.415 21.3135ZM25.415 19.7754C24.6826 19.7754 24.0967 19.1772 24.0967 18.4448C24.0967 17.7246 24.6826 17.1509 25.415 17.1509C26.1108 17.1509 26.709 17.7246 26.709 18.4448C26.709 19.165 26.1108 19.7754 25.415 19.7754Z" fill="#5ac8f5"/>
 </g>
</svg>
