<?xml version="1.0" encoding="UTF-8"?>
<!--Generator: Apple Native CoreSVG 175.5-->
<!DOCTYPE svg
PUBLIC "-//W3C//DTD SVG 1.1//EN"
       "http://www.w3.org/Graphics/SVG/1.1/DTD/svg11.dtd">
<svg version="1.1" xmlns="http://www.w3.org/2000/svg" xmlns:xlink="http://www.w3.org/1999/xlink" width="26.5278" height="24.7681">
 <g>
  <rect height="24.7681" opacity="0" width="26.5278" x="0" y="0"/>
  <path d="M23.2441 6.64062C25.0752 6.64062 26.5278 5.11475 26.5278 3.34473C26.5278 1.50146 25.0752 0 23.2441 0C21.4009 0 19.9238 1.50146 19.9238 3.34473C19.9238 5.15137 21.4009 6.64062 23.2441 6.64062ZM3.5786 24.0845C4.21337 24.7559 5.29979 24.6948 6.06884 23.9014L11.3301 18.4814C11.5132 18.2983 11.623 18.2495 11.8916 18.3594L15.9932 19.9097C18.6299 20.9229 21.1079 20.0562 22.2676 17.9565L24.9043 13.1592C25.9419 11.2915 25.6001 9.36279 23.8179 8.41064C22.0967 7.4707 20.3144 8.17871 19.2768 10.0952L15.8467 16.333L12.9292 15.271C11.501 14.7461 10.3047 14.917 9.14501 16.1133L3.68847 21.7529C2.94384 22.5342 3.00487 23.5107 3.5786 24.0845ZM0.270497 3.94287L4.23778 8.99658C4.39647 9.21631 4.67724 9.26514 4.94579 9.11865C5.88573 8.61816 7.24071 8.27637 8.30272 8.27637C9.37694 8.27637 10.7319 8.61816 11.6719 9.11865C11.9282 9.26514 12.209 9.21631 12.3799 8.99658L16.3472 3.94287C16.75 3.43018 16.689 2.90527 16.1885 2.52686C14.5893 1.29395 11.5254 0.341797 8.30272 0.341797C5.08007 0.341797 2.02831 1.29395 0.416982 2.52686C-0.0712996 2.90527-0.144542 3.43018 0.270497 3.94287ZM3.45653 4.40674L4.4453 2.92969C4.51854 2.80762 4.62841 2.74658 4.73827 2.74658C4.86034 2.74658 4.94579 2.80762 5.01903 2.92969L6.03222 4.40674C6.16649 4.60205 6.04442 4.89502 5.76366 4.89502L5.15331 4.89502C5.18993 6.26221 6.08104 6.57959 6.08104 7.8125C6.08104 9.17969 5.10448 9.75342 5.10448 10.791C5.10448 11.2183 5.20214 11.4502 5.4829 11.8408C5.86132 12.3169 5.17772 12.7686 4.82372 12.3291C4.43309 11.8408 4.2622 11.4014 4.2622 10.8521C4.2622 9.46045 5.25097 8.99658 5.25097 7.8125C5.25097 6.86035 4.35985 6.67725 4.32323 4.89502L3.72509 4.89502C3.44433 4.89502 3.32226 4.61426 3.45653 4.40674ZM7.02099 4.40674L8.00976 2.92969C8.0952 2.80762 8.19286 2.74658 8.31493 2.74658C8.42479 2.74658 8.52245 2.80762 8.6079 2.92969L9.59667 4.40674C9.73095 4.60205 9.60888 4.89502 9.34032 4.89502L8.71776 4.89502C8.75438 6.26221 9.6455 6.57959 9.6455 7.8125C9.6455 9.17969 8.66893 9.75342 8.66893 10.791C8.66893 11.2183 8.76659 11.4502 9.07177 11.8408C9.42577 12.3169 8.74218 12.7686 8.40038 12.3291C7.99755 11.8408 7.83886 11.4014 7.83886 10.8521C7.83886 9.46045 8.81542 8.99658 8.81542 7.8125C8.81542 6.86035 7.93651 6.67725 7.89989 4.89502L7.28954 4.89502C7.00878 4.89502 6.88671 4.60205 7.02099 4.40674ZM10.5854 4.40674L11.5864 2.92969C11.6719 2.80762 11.7573 2.74658 11.8794 2.74658C11.9892 2.74658 12.0869 2.80762 12.1601 2.92969L13.1611 4.40674C13.2954 4.61426 13.1733 4.89502 12.8926 4.89502L12.2944 4.89502C12.331 6.26221 13.2222 6.57959 13.2222 7.8125C13.2222 9.17969 12.2456 9.75342 12.2456 10.791C12.2456 11.2183 12.3433 11.4502 12.624 11.8408C13.0024 12.3169 12.3066 12.7686 11.9648 12.3291C11.562 11.8408 11.4033 11.4014 11.4033 10.8521C11.4033 9.46045 12.3799 8.99658 12.3799 7.8125C12.3799 6.86035 11.501 6.67725 11.4643 4.89502L10.854 4.89502C10.5732 4.89502 10.4512 4.60205 10.5854 4.40674Z" fill="#5ac8f5"/>
 </g>
</svg>
