<?xml version="1.0" encoding="UTF-8"?>
<!--Generator: Apple Native CoreSVG 175.5-->
<!DOCTYPE svg
PUBLIC "-//W3C//DTD SVG 1.1//EN"
       "http://www.w3.org/Graphics/SVG/1.1/DTD/svg11.dtd">
<svg version="1.1" xmlns="http://www.w3.org/2000/svg" xmlns:xlink="http://www.w3.org/1999/xlink" width="24.9023" height="24.9146">
 <g>
  <rect height="24.9146" opacity="0" width="24.9023" x="0" y="0"/>
  <path d="M12.4512 24.9023C19.2627 24.9023 24.9023 19.2505 24.9023 12.4512C24.9023 5.63965 19.2505 0 12.439 0C5.63965 0 0 5.63965 0 12.4512C0 19.2505 5.65186 24.9023 12.4512 24.9023Z" fill="#5ac8f5" fill-opacity="0.25"/>
  <path d="M12.4512 19.6411C12.1094 19.6411 11.853 19.397 11.853 19.043L11.853 18.1396C10.1685 17.981 8.76465 17.0532 8.41064 15.6006C8.37402 15.4785 8.34961 15.3442 8.34961 15.21C8.34961 14.7705 8.65479 14.4653 9.08203 14.4653C9.46045 14.4653 9.7168 14.6606 9.86328 15.1001C10.0708 15.9302 10.73 16.5649 11.853 16.7236L11.853 13.0127L11.7676 12.9883C9.66797 12.4878 8.58154 11.5356 8.58154 9.93652C8.58154 8.21533 9.94873 7.01904 11.853 6.81152L11.853 5.94482C11.853 5.59082 12.1094 5.34668 12.4512 5.34668C12.793 5.34668 13.0493 5.59082 13.0493 5.94482L13.0493 6.81152C14.6606 6.99463 15.9546 7.93457 16.2842 9.28955C16.3086 9.42383 16.3452 9.55811 16.3452 9.68018C16.3452 10.1196 16.0278 10.4248 15.6006 10.4248C15.1978 10.4248 14.9536 10.1807 14.8315 9.80225C14.5752 8.95996 13.9526 8.42285 13.0493 8.26416L13.0493 11.7676L13.2202 11.8042C15.4053 12.1948 16.5161 13.2324 16.5161 14.9414C16.5161 16.8457 14.9902 17.981 13.0493 18.1641L13.0493 19.043C13.0493 19.397 12.793 19.6411 12.4512 19.6411ZM11.853 11.4502L11.853 8.26416C10.791 8.44727 10.144 9.09424 10.144 9.85107C10.144 10.5957 10.6445 11.0962 11.7676 11.4258ZM13.0493 13.3057L13.0493 16.7236C14.3311 16.5771 14.9536 15.9058 14.9536 15.0269C14.9536 14.2334 14.5386 13.7085 13.3179 13.3789Z" fill="#5ac8f5"/>
 </g>
</svg>
