<?xml version="1.0" encoding="UTF-8"?>
<!--Generator: Apple Native CoreSVG 175.5-->
<!DOCTYPE svg
PUBLIC "-//W3C//DTD SVG 1.1//EN"
       "http://www.w3.org/Graphics/SVG/1.1/DTD/svg11.dtd">
<svg version="1.1" xmlns="http://www.w3.org/2000/svg" xmlns:xlink="http://www.w3.org/1999/xlink" width="27.1484" height="26.062">
 <g>
  <rect height="26.062" opacity="0" width="27.1484" x="0" y="0"/>
  <path d="M2.24609 5.88379C3.4668 5.88379 4.45557 4.90723 4.45557 3.66211C4.45557 2.44141 3.4668 1.45264 2.24609 1.45264C1.00098 1.45264 0 2.44141 0 3.66211C0 4.90723 0.98877 5.88379 2.24609 5.88379ZM2.24609 12.2559C3.4668 12.2559 4.45557 11.2671 4.45557 10.0342C4.45557 8.78906 3.4668 7.80029 2.24609 7.80029C0.98877 7.80029 0 8.78906 0 10.0342C0 11.2671 0.98877 12.2559 2.24609 12.2559ZM2.24609 18.6401C3.4668 18.6401 4.45557 17.6392 4.45557 16.394C4.45557 15.1733 3.4668 14.1846 2.24609 14.1846C1.00098 14.1846 0 15.1733 0 16.394C0 17.6514 0.98877 18.6401 2.24609 18.6401ZM2.24609 24.9878C3.4668 24.9878 4.45557 23.999 4.45557 22.7783C4.45557 21.5332 3.4668 20.5566 2.24609 20.5566C0.98877 20.5566 0 21.5332 0 22.7783C0 23.999 1.00098 24.9878 2.24609 24.9878ZM8.39844 20.5078C8.39844 23.8892 10.4858 26.0376 13.7817 26.0376C16.2354 26.0376 18.0664 24.9512 19.2139 22.876L20.3125 20.9106C22.8882 16.2109 27.1484 15.5884 27.1484 9.5459C27.1484 3.8208 23.4497 0 17.9077 0C12.2192 0 8.39844 3.84521 8.39844 9.58252ZM11.9629 17.1387C11.9629 14.7827 14.5508 15.0635 14.5508 13.7207C14.5508 12.4878 11.9629 11.5967 11.9629 8.87451C11.9629 5.76172 14.3433 3.54004 17.8833 3.54004C21.4355 3.54004 23.8159 5.9082 23.8159 9.46045C23.8159 9.98535 23.3765 10.4126 22.8516 10.4126C22.3389 10.4126 21.8994 9.98535 21.8994 9.46045C21.8994 7.03125 20.3247 5.45654 17.8833 5.45654C15.4785 5.45654 13.8794 6.89697 13.8794 8.87451C13.8794 11.4258 17.627 12.0239 17.627 15.6616C17.627 17.6758 16.333 19.2993 14.4409 19.3115C12.9639 19.3115 11.9629 18.4448 11.9629 17.1387Z" fill="#5ac8f5"/>
 </g>
</svg>
