<?xml version="1.0" encoding="UTF-8"?>
<!--Generator: Apple Native CoreSVG 175.5-->
<!DOCTYPE svg
PUBLIC "-//W3C//DTD SVG 1.1//EN"
       "http://www.w3.org/Graphics/SVG/1.1/DTD/svg11.dtd">
<svg version="1.1" xmlns="http://www.w3.org/2000/svg" xmlns:xlink="http://www.w3.org/1999/xlink" width="24.7314" height="30.3833">
 <g>
  <rect height="30.3833" opacity="0" width="24.7314" x="0" y="0"/>
  <path d="M3.97949 9.86328C3.97949 6.38428 5.98145 4.37012 9.43604 4.37012L19.0796 4.37012L19.0796 3.83301C19.0796 1.28174 17.8223 0 15.2954 0L3.78418 0C1.25732 0 0 1.28174 0 3.83301L0 20.3735C0 22.9248 1.26953 24.2065 3.78418 24.2065L3.97949 24.2065Z" fill="#5ac8f5" fill-opacity="0.5"/>
  <path d="M24.7314 9.86328C24.7314 7.31201 23.4741 6.03027 20.9473 6.03027L9.43604 6.03027C6.90918 6.03027 5.65186 7.31201 5.65186 9.86328L5.65186 26.5381C5.65186 29.0894 6.92139 30.3711 9.43604 30.3711L20.9473 30.3711C23.4619 30.3711 24.7314 29.0894 24.7314 26.5381Z" fill="#5ac8f5"/>
 </g>
</svg>
