<?xml version="1.0" encoding="UTF-8"?>
<!--Generator: Apple Native CoreSVG 175.5-->
<!DOCTYPE svg
PUBLIC "-//W3C//DTD SVG 1.1//EN"
       "http://www.w3.org/Graphics/SVG/1.1/DTD/svg11.dtd">
<svg version="1.1" xmlns="http://www.w3.org/2000/svg" xmlns:xlink="http://www.w3.org/1999/xlink" width="29.1382" height="29.6265">
 <g>
  <rect height="29.6265" opacity="0" width="29.1382" x="0" y="0"/>
  <path d="M14.5752 5.33447C16.04 5.33447 17.2485 4.15039 17.2485 2.64893C17.2485 1.18408 16.04 0 14.5752 0C13.0981 0 11.9141 1.18408 11.9141 2.64893C11.9141 4.15039 13.0981 5.33447 14.5752 5.33447ZM11.9019 14.4653L17.2729 14.4653L17.2729 11.5479C17.2729 11.3403 17.6025 11.2427 17.7246 11.499L21.1304 18.4204C21.4355 19.0308 22.168 19.2871 22.7783 18.9697C23.3643 18.6768 23.6206 17.9321 23.3154 17.3218L18.8354 8.25195C18.2983 7.17773 17.2974 6.54297 16.04 6.54297L13.1226 6.54297C11.8652 6.54297 10.8643 7.17773 10.3271 8.25195L5.84717 17.3218C5.54199 17.9321 5.79834 18.6768 6.38428 18.9697C6.99463 19.2871 7.71484 19.0308 8.02002 18.4204L11.4502 11.499C11.5723 11.2427 11.9019 11.3159 11.9019 11.5356ZM9.63135 29.5166C10.2173 29.6387 10.8887 29.3335 11.0718 28.5034L12.2192 23.2544L14.5752 18.9087L16.9434 23.2544L18.0908 28.5034C18.2739 29.3701 19.0063 29.6631 19.6045 29.5044C20.1782 29.3457 20.6421 28.7964 20.459 27.9663L19.2993 22.5586C19.2871 22.4487 19.2749 22.3755 19.2261 22.2656L17.7856 18.1763L11.3892 18.1763L9.92432 22.2656C9.8877 22.3755 9.87549 22.4487 9.85107 22.5586L8.69141 27.9663C8.5083 28.833 9.0332 29.3945 9.63135 29.5166ZM2.50244 20.4224L3.21045 20.4224C3.69873 20.4224 4.02832 20.0806 4.02832 19.5923L4.02832 13.0371C4.02832 12.5488 3.69873 12.2192 3.21045 12.2192L2.50244 12.2192C2.01416 12.2192 1.68457 12.5488 1.68457 13.0371L1.68457 19.5923C1.68457 20.0806 2.01416 20.4224 2.50244 20.4224ZM25.9277 20.4224L26.6479 20.4224C27.1362 20.4224 27.4536 20.0806 27.4536 19.5923L27.4536 13.0371C27.4536 12.5488 27.1362 12.2192 26.6479 12.2192L25.9277 12.2192C25.4395 12.2192 25.1099 12.5488 25.1099 13.0371L25.1099 19.5923C25.1099 20.0806 25.4395 20.4224 25.9277 20.4224ZM0.683594 16.9922L28.4668 16.9922C28.8452 16.9922 29.1382 16.6992 29.1382 16.3208C29.1382 15.9424 28.8452 15.6372 28.4668 15.6372L0.683594 15.6372C0.292969 15.6372 0 15.9424 0 16.3208C0 16.6992 0.292969 16.9922 0.683594 16.9922Z" fill="#5ac8f5"/>
 </g>
</svg>
