<?xml version="1.0" encoding="UTF-8"?>
<!--Generator: Apple Native CoreSVG 175.5-->
<!DOCTYPE svg
PUBLIC "-//W3C//DTD SVG 1.1//EN"
       "http://www.w3.org/Graphics/SVG/1.1/DTD/svg11.dtd">
<svg version="1.1" xmlns="http://www.w3.org/2000/svg" xmlns:xlink="http://www.w3.org/1999/xlink" width="29.8096" height="15.564">
 <g>
  <rect height="15.564" opacity="0" width="29.8096" x="0" y="0"/>
  <path d="M0 12.9517C0 14.563 0.90332 15.564 2.6123 15.564L27.1973 15.564C28.9062 15.564 29.8096 14.563 29.8096 12.9517L29.8096 8.74023C29.8096 8.17871 29.3579 7.72705 28.7964 7.72705C28.2227 7.72705 27.771 8.17871 27.771 8.74023L27.771 12.9028C27.771 13.3545 27.4414 13.6719 27.002 13.6719L2.80762 13.6719C2.35596 13.6719 2.03857 13.3667 2.03857 12.9028L2.03857 8.74023C2.03857 8.17871 1.58691 7.72705 1.01318 7.72705C0.45166 7.72705 0 8.17871 0 8.74023Z" fill="#5ac8f5"/>
 </g>
</svg>
