<?xml version="1.0" encoding="UTF-8"?>
<!--Generator: Apple Native CoreSVG 175.5-->
<!DOCTYPE svg
PUBLIC "-//W3C//DTD SVG 1.1//EN"
       "http://www.w3.org/Graphics/SVG/1.1/DTD/svg11.dtd">
<svg version="1.1" xmlns="http://www.w3.org/2000/svg" xmlns:xlink="http://www.w3.org/1999/xlink" width="24.9023" height="24.9146">
 <g>
  <rect height="24.9146" opacity="0" width="24.9023" x="0" y="0"/>
  <path d="M12.4512 24.9023C19.2627 24.9023 24.9023 19.2505 24.9023 12.4512C24.9023 5.63965 19.2505 0 12.439 0C5.63965 0 0 5.63965 0 12.4512C0 19.2505 5.65186 24.9023 12.4512 24.9023ZM9.75342 18.2251C9.10645 18.2251 8.75244 17.749 8.75244 17.0776L8.75244 7.73926C8.75244 7.05566 9.09424 6.5918 9.74121 6.5918L13.2568 6.5918C15.6982 6.5918 17.3584 8.1543 17.3584 10.4736C17.3584 12.793 15.7104 14.3311 13.2446 14.3311L10.7788 14.3311L10.7788 17.0776C10.7788 17.7734 10.4248 18.2251 9.75342 18.2251ZM10.7788 12.793L12.9761 12.793C14.4531 12.793 15.3564 11.9019 15.3564 10.4736C15.3564 9.0332 14.4409 8.14209 12.9761 8.14209L10.7788 8.14209Z" fill="#5ac8f5"/>
 </g>
</svg>
