<?xml version="1.0" encoding="UTF-8"?>
<!--Generator: Apple Native CoreSVG 175.5-->
<!DOCTYPE svg
PUBLIC "-//W3C//DTD SVG 1.1//EN"
       "http://www.w3.org/Graphics/SVG/1.1/DTD/svg11.dtd">
<svg version="1.1" xmlns="http://www.w3.org/2000/svg" xmlns:xlink="http://www.w3.org/1999/xlink" width="24.9023" height="24.9146">
 <g>
  <rect height="24.9146" opacity="0" width="24.9023" x="0" y="0"/>
  <path d="M12.4512 24.9023C19.2627 24.9023 24.9023 19.2505 24.9023 12.4512C24.9023 5.63965 19.2505 0 12.439 0C5.63965 0 0 5.63965 0 12.4512C0 19.2505 5.65186 24.9023 12.4512 24.9023ZM12.4512 22.8271C6.68945 22.8271 2.0874 18.2129 2.0874 12.4512C2.0874 6.68945 6.67725 2.0752 12.439 2.0752C18.2007 2.0752 22.8271 6.68945 22.8271 12.4512C22.8271 18.2129 18.2129 22.8271 12.4512 22.8271Z" fill="#5ac8f5" fill-opacity="0.5"/>
  <path d="M7.42188 17.8711L17.4805 17.8711C18.7622 17.8711 19.4092 17.2485 19.4092 15.979L19.4092 9.8877C19.4092 8.60596 18.7622 7.9834 17.4805 7.9834L7.42188 7.9834C6.14014 7.9834 5.50537 8.60596 5.50537 9.8877L5.50537 15.979C5.50537 17.2485 6.14014 17.8711 7.42188 17.8711ZM11.4746 13.7573C11.0474 13.7573 10.791 13.5132 10.791 13.0615L10.791 12.561C9.04541 12.439 7.32422 12.1216 5.50537 11.4624L5.50537 10.376C7.80029 11.3281 10.022 11.6455 12.4512 11.6455C14.8804 11.6455 17.1021 11.3281 19.4092 10.376L19.4092 11.4624C17.5781 12.1216 15.8569 12.439 14.1113 12.561L14.1113 13.0615C14.1113 13.5132 13.855 13.7573 13.4277 13.7573ZM8.72803 8.53271L9.8999 8.53271L9.8999 7.42188C9.8999 7.10449 10.1074 6.90918 10.4492 6.90918L14.4775 6.90918C14.8071 6.90918 15.0146 7.10449 15.0146 7.42188L15.0146 8.53271L16.1743 8.53271L16.1743 7.36084C16.1743 6.39648 15.5396 5.81055 14.5386 5.81055L10.3638 5.81055C9.36279 5.81055 8.72803 6.39648 8.72803 7.36084Z" fill="#5ac8f5"/>
 </g>
</svg>
