<?xml version="1.0" encoding="UTF-8"?>
<!--Generator: Apple Native CoreSVG 175.5-->
<!DOCTYPE svg
PUBLIC "-//W3C//DTD SVG 1.1//EN"
       "http://www.w3.org/Graphics/SVG/1.1/DTD/svg11.dtd">
<svg version="1.1" xmlns="http://www.w3.org/2000/svg" xmlns:xlink="http://www.w3.org/1999/xlink" width="22.4731" height="22.4976">
 <g>
  <rect height="22.4976" opacity="0" width="22.4731" x="0" y="0"/>
  <path d="M6.14014 4.04053C5.13916 4.04053 4.39453 4.82178 4.39453 5.896C4.39453 7.48291 6.10352 8.87451 7.31201 9.7168C7.43408 9.80225 7.55615 9.86328 7.62939 9.86328C7.71484 9.86328 7.8125 9.79004 7.92236 9.7168C9.15527 8.95996 10.8276 7.48291 10.8276 5.896C10.8276 4.82178 10.083 4.04053 9.05762 4.04053C8.43506 4.04053 7.91016 4.41895 7.61719 4.98047C7.31201 4.41895 6.81152 4.04053 6.14014 4.04053ZM5.16357 13.6841L17.1875 13.6841C17.6147 13.6841 17.9443 13.3545 17.9443 12.9272C17.9443 12.5122 17.6147 12.1826 17.1875 12.1826L5.16357 12.1826C4.72412 12.1826 4.39453 12.5122 4.39453 12.9272C4.39453 13.3545 4.72412 13.6841 5.16357 13.6841ZM5.16357 17.8589L13.9771 17.8589C14.4043 17.8589 14.7339 17.5293 14.7339 17.1143C14.7339 16.687 14.4043 16.3574 13.9771 16.3574L5.16357 16.3574C4.72412 16.3574 4.39453 16.687 4.39453 17.1143C4.39453 17.5293 4.72412 17.8589 5.16357 17.8589ZM3.83301 22.4976L18.6401 22.4976C21.2036 22.4976 22.4731 21.228 22.4731 18.7134L22.4731 3.80859C22.4731 1.29395 21.2036 0.0244141 18.6401 0.0244141L3.83301 0.0244141C1.28174 0.0244141 0 1.28174 0 3.80859L0 18.7134C0 21.2402 1.28174 22.4976 3.83301 22.4976ZM3.85742 20.5322C2.63672 20.5322 1.96533 19.8853 1.96533 18.6157L1.96533 3.90625C1.96533 2.63672 2.63672 1.98975 3.85742 1.98975L18.6157 1.98975C19.8242 1.98975 20.5078 2.63672 20.5078 3.90625L20.5078 18.6157C20.5078 19.8853 19.8242 20.5322 18.6157 20.5322Z" fill="#5ac8f5"/>
 </g>
</svg>
