<?xml version="1.0" encoding="UTF-8"?>
<!--Generator: Apple Native CoreSVG 175.5-->
<!DOCTYPE svg
PUBLIC "-//W3C//DTD SVG 1.1//EN"
       "http://www.w3.org/Graphics/SVG/1.1/DTD/svg11.dtd">
<svg version="1.1" xmlns="http://www.w3.org/2000/svg" xmlns:xlink="http://www.w3.org/1999/xlink" width="24.9023" height="24.9146">
 <g>
  <rect height="24.9146" opacity="0" width="24.9023" x="0" y="0"/>
  <path d="M12.4512 24.9023C15.1978 24.9023 17.7612 23.9746 19.8364 22.4243C16.6504 22.0215 14.1724 20.4834 12.7075 17.9443C11.9995 16.6992 11.6577 15.4907 11.5234 14.1479C10.7178 14.7583 10.0708 15.4419 9.52148 16.3696C8.10547 18.7866 8.34961 21.6553 10.1685 24.6582C10.9131 24.8169 11.6699 24.9023 12.4512 24.9023ZM7.53174 23.8647C6.26221 20.8862 6.33545 17.9321 7.8125 15.3931C8.5083 14.209 9.35059 13.3179 10.4004 12.5366C9.43604 12.146 8.58154 11.9751 7.59277 11.9751C4.82178 11.9751 2.45361 13.6108 0.78125 16.748C1.96533 19.9219 4.43115 22.522 7.53174 23.8647ZM0.109863 14.0747C2.06299 11.4502 4.63867 10.0098 7.59277 10.0098C8.95996 10.0098 10.144 10.2905 11.3525 10.8276C11.2305 9.7168 10.9497 8.8623 10.437 7.97119C9.05762 5.56641 6.46973 4.3457 2.97852 4.45557C1.12305 6.61621 0 9.41162 0 12.4512C0 13.0005 0.0488281 13.5376 0.109863 14.0747ZM13.3179 10.6445C14.2212 9.98535 14.8193 9.31396 15.332 8.44727C16.7358 6.05469 16.4917 3.21045 14.6484 0.219727C13.9404 0.0732422 13.1958 0 12.439 0C9.64355 0 7.03125 0.964355 4.94385 2.56348C8.1543 2.94189 10.6689 4.44336 12.146 7.00684C12.8174 8.19092 13.1714 9.33838 13.3179 10.6445ZM17.3828 13.0371C20.1416 13.0371 22.4976 11.438 24.1577 8.38623C23.0347 5.09033 20.4956 2.36816 17.2729 1.00098C18.5547 3.96729 18.5059 6.88477 17.0288 9.41162C16.3086 10.6689 15.4053 11.5601 14.3066 12.3413C15.271 12.7686 16.2109 13.0371 17.3828 13.0371ZM21.8262 20.5322C23.7305 18.3594 24.9023 15.5273 24.9023 12.4512C24.9023 11.9751 24.8779 11.5234 24.8169 11.0596C22.8638 13.6108 20.3003 15.0024 17.3828 15.0024C15.9424 15.0024 14.7095 14.6851 13.4888 14.1357C13.6108 15.1245 13.8672 16.0278 14.4165 16.98C15.7837 19.3726 18.3716 20.6055 21.8262 20.5322Z" fill="#5ac8f5"/>
 </g>
</svg>
