<?xml version="1.0" encoding="UTF-8"?>
<!--Generator: Apple Native CoreSVG 175.5-->
<!DOCTYPE svg
PUBLIC "-//W3C//DTD SVG 1.1//EN"
       "http://www.w3.org/Graphics/SVG/1.1/DTD/svg11.dtd">
<svg version="1.1" xmlns="http://www.w3.org/2000/svg" xmlns:xlink="http://www.w3.org/1999/xlink" width="21.0663" height="21.4355">
 <g>
  <rect height="21.4355" opacity="0" width="21.0663" x="0" y="0"/>
  <path d="M12.8998 16.2903L2.60925 5.99976L2.60925 19.3054C2.60925 20.3674 3.17078 21.0632 4.0741 21.0632C4.56238 21.0632 4.97742 20.8679 5.4657 20.5872ZM17.2089 13.8L19.6991 12.3596C20.7123 11.7615 21.0663 11.3708 21.0663 10.7239C21.0663 10.0769 20.7123 9.68628 19.6991 9.10034L5.4657 0.860596C5.03845 0.604248 4.67224 0.408936 4.245 0.408936C4.13513 0.408936 4.04968 0.506592 4.03748 0.640869Z" fill="#5ac8f5" fill-opacity="0.5"/>
  <path d="M18.3319 19.6472C18.7103 20.0134 19.3085 20.0134 19.6625 19.6472C20.0287 19.281 20.0409 18.6829 19.6625 18.3167L1.60828 0.274658C1.24207-0.0915527 0.643921-0.0915527 0.265503 0.274658C-0.088501 0.628662-0.088501 1.25122 0.265503 1.60522Z" fill="#5ac8f5"/>
 </g>
</svg>
