<?xml version="1.0" encoding="UTF-8"?>
<!--Generator: Apple Native CoreSVG 175.5-->
<!DOCTYPE svg
PUBLIC "-//W3C//DTD SVG 1.1//EN"
       "http://www.w3.org/Graphics/SVG/1.1/DTD/svg11.dtd">
<svg version="1.1" xmlns="http://www.w3.org/2000/svg" xmlns:xlink="http://www.w3.org/1999/xlink" width="27.2736" height="28.5004">
 <g>
  <rect height="28.5004" opacity="0" width="27.2736" x="0" y="0"/>
  <path d="M14.3952 27.1835L26.297 15.2573C27.2125 14.3417 27.2736 13.8168 27.2736 12.5351L27.2736 7.89643C27.2736 6.60248 26.9684 6.19965 26.0407 5.27192L23.233 2.4643C22.3175 1.54877 21.9147 1.23139 20.6207 1.23139L15.9699 1.23139C14.6881 1.23139 14.1754 1.29242 13.2599 2.20795L1.32143 14.122C-0.424179 15.8676-0.4608 17.6743 1.33363 19.4565L9.06068 27.1713C10.8551 28.9536 12.6496 28.9291 14.3952 27.1835ZM18.57 10.997C17.6056 10.997 16.8976 10.2524 16.8976 9.32465C16.8976 8.38471 17.6056 7.65229 18.57 7.65229C19.5221 7.65229 20.2423 8.38471 20.2423 9.32465C20.2423 10.2524 19.5221 10.997 18.57 10.997Z" fill="#5ac8f5"/>
 </g>
</svg>
