<?xml version="1.0" encoding="UTF-8"?>
<!--Generator: Apple Native CoreSVG 175.5-->
<!DOCTYPE svg
PUBLIC "-//W3C//DTD SVG 1.1//EN"
       "http://www.w3.org/Graphics/SVG/1.1/DTD/svg11.dtd">
<svg version="1.1" xmlns="http://www.w3.org/2000/svg" xmlns:xlink="http://www.w3.org/1999/xlink" width="29.9683" height="19.8364">
 <g>
  <rect height="19.8364" opacity="0" width="29.9683" x="0" y="0"/>
  <path d="M3.91846 19.8242L17.0288 19.8242C19.4824 19.8242 20.9473 18.4082 20.9473 15.9546L20.9473 3.85742C20.9473 1.41602 19.6045 0 17.1509 0L3.91846 0C1.57471 0 0 1.41602 0 3.85742L0 15.9546C0 18.4082 1.46484 19.8242 3.91846 19.8242ZM22.6074 13.5132L27.0508 17.3584C27.4658 17.7246 27.9541 17.9565 28.3936 17.9565C29.3457 17.9565 29.9683 17.2607 29.9683 16.2598L29.9683 3.56445C29.9683 2.56348 29.3457 1.86768 28.3936 1.86768C27.9541 1.86768 27.4658 2.09961 27.0508 2.46582L22.6074 6.29883Z" fill="#5ac8f5" fill-opacity="0.25"/>
  <path d="M14.6729 4.83398C15.21 4.83398 15.6128 5.2124 15.6128 5.71289C15.6128 5.98145 15.5273 6.20117 15.3076 6.40869L10.1685 11.5723L8.04443 13.501L11.6455 13.2935L13.3545 13.2935C13.8428 13.2935 14.27 13.6475 14.27 14.1479C14.27 14.6729 13.8672 15.0879 13.3545 15.0879L6.34766 15.0879C5.67627 15.0879 5.34668 14.7583 5.34668 14.0869L5.34668 7.09229C5.34668 6.57959 5.77393 6.18896 6.28662 6.18896C6.7749 6.18896 7.14111 6.604 7.14111 7.09229L7.14111 8.77686L6.93359 12.3779L8.87451 10.2661L14.0137 5.11475C14.209 4.91943 14.4043 4.83398 14.6729 4.83398Z" fill="#5ac8f5"/>
 </g>
</svg>
