<?xml version="1.0" encoding="UTF-8"?>
<!--Generator: Apple Native CoreSVG 175.5-->
<!DOCTYPE svg
PUBLIC "-//W3C//DTD SVG 1.1//EN"
       "http://www.w3.org/Graphics/SVG/1.1/DTD/svg11.dtd">
<svg version="1.1" xmlns="http://www.w3.org/2000/svg" xmlns:xlink="http://www.w3.org/1999/xlink" width="24.9023" height="24.9146">
 <g>
  <rect height="24.9146" opacity="0" width="24.9023" x="0" y="0"/>
  <path d="M12.4512 24.9023C19.2627 24.9023 24.9023 19.2505 24.9023 12.4512C24.9023 5.63965 19.2505 0 12.439 0C5.63965 0 0 5.63965 0 12.4512C0 19.2505 5.65186 24.9023 12.4512 24.9023ZM9.05762 18.3472C8.41064 18.3472 7.97119 17.9932 7.8125 17.3462L5.32227 7.80029C5.28564 7.66602 5.27344 7.53174 5.27344 7.42188C5.27344 6.84814 5.65186 6.45752 6.23779 6.45752C6.83594 6.45752 7.10449 6.73828 7.26318 7.4585L9.14307 15.4541L9.22852 15.4541L11.3281 7.31201C11.4624 6.75049 11.8408 6.48193 12.439 6.48193C13.0371 6.48193 13.3911 6.75049 13.5376 7.31201L15.6494 15.4541L15.7349 15.4541L17.6147 7.4585C17.7734 6.73828 18.0542 6.45752 18.6523 6.45752C19.2261 6.45752 19.6167 6.84814 19.6167 7.42188C19.6167 7.53174 19.6045 7.66602 19.5557 7.80029L17.0654 17.3462C16.9067 17.9932 16.4673 18.3472 15.7959 18.3472C15.1367 18.3472 14.6729 18.0054 14.5264 17.3706L12.4756 9.44824L12.3901 9.44824L10.3516 17.3706C10.2051 18.0054 9.74121 18.3472 9.05762 18.3472Z" fill="#5ac8f5"/>
 </g>
</svg>
