<?xml version="1.0" encoding="UTF-8"?>
<!--Generator: Apple Native CoreSVG 175.5-->
<!DOCTYPE svg
PUBLIC "-//W3C//DTD SVG 1.1//EN"
       "http://www.w3.org/Graphics/SVG/1.1/DTD/svg11.dtd">
<svg version="1.1" xmlns="http://www.w3.org/2000/svg" xmlns:xlink="http://www.w3.org/1999/xlink" width="24.9023" height="24.9146">
 <g>
  <rect height="24.9146" opacity="0" width="24.9023" x="0" y="0"/>
  <path d="M12.4512 24.9023C19.2627 24.9023 24.9023 19.2505 24.9023 12.4512C24.9023 5.63965 19.2505 0 12.439 0C5.63965 0 0 5.63965 0 12.4512C0 19.2505 5.65186 24.9023 12.4512 24.9023ZM12.4512 22.8271C6.68945 22.8271 2.0874 18.2129 2.0874 12.4512C2.0874 6.68945 6.67725 2.0752 12.439 2.0752C18.2007 2.0752 22.8271 6.68945 22.8271 12.4512C22.8271 18.2129 18.2129 22.8271 12.4512 22.8271ZM8.81348 18.4326L16.2842 18.4326C17.4316 18.4326 18.0908 17.7734 18.0908 16.4795L18.0908 9.8877C18.0908 8.58154 17.4194 7.93457 16.0889 7.93457L15.0757 7.93457C15.0513 6.5918 13.8916 5.45654 12.4512 5.45654C11.0107 5.45654 9.85107 6.5918 9.82666 7.93457L8.81348 7.93457C7.48291 7.93457 6.81152 8.58154 6.81152 9.8877L6.81152 16.4795C6.81152 17.7856 7.48291 18.4326 8.81348 18.4326ZM10.9985 7.93457C11.0352 7.09229 11.5845 6.56738 12.4512 6.56738C13.3179 6.56738 13.8672 7.09229 13.9038 7.93457Z" fill="#5ac8f5"/>
 </g>
</svg>
