<?xml version="1.0" encoding="UTF-8"?>
<!--Generator: Apple Native CoreSVG 175.5-->
<!DOCTYPE svg
PUBLIC "-//W3C//DTD SVG 1.1//EN"
       "http://www.w3.org/Graphics/SVG/1.1/DTD/svg11.dtd">
<svg version="1.1" xmlns="http://www.w3.org/2000/svg" xmlns:xlink="http://www.w3.org/1999/xlink" width="24.9023" height="24.9146">
 <g>
  <rect height="24.9146" opacity="0" width="24.9023" x="0" y="0"/>
  <path d="M12.4512 24.9023C19.2627 24.9023 24.9023 19.2505 24.9023 12.4512C24.9023 5.63965 19.2505 0 12.439 0C5.63965 0 0 5.63965 0 12.4512C0 19.2505 5.65186 24.9023 12.4512 24.9023ZM12.4512 22.8271C6.68945 22.8271 2.0874 18.2129 2.0874 12.4512C2.0874 6.68945 6.67725 2.0752 12.439 2.0752C18.2007 2.0752 22.8271 6.68945 22.8271 12.4512C22.8271 18.2129 18.2129 22.8271 12.4512 22.8271ZM12.439 19.0063C16.0034 19.0063 18.9819 16.0278 18.9819 12.4634C18.9819 8.91113 15.9912 5.92041 12.439 5.92041C8.87451 5.92041 5.9082 8.89893 5.9082 12.4634C5.9082 16.0156 8.88672 19.0063 12.439 19.0063ZM7.78809 15.4785C7.22656 14.6118 6.90918 13.5986 6.89697 12.5L8.30078 11.6943L10.0586 12.4146L10.6323 14.1968L9.66797 15.4419ZM8.06885 9.00879C8.71582 8.21533 9.55811 7.56836 10.5469 7.22656L11.9263 8.3252L11.9263 10.1929L10.3516 11.3892L8.58154 10.6689ZM16.8213 9.00879L16.3208 10.6689L14.5508 11.3892L12.9883 10.1929L12.9883 8.30078L14.3433 7.22656C15.332 7.56836 16.1865 8.21533 16.8213 9.00879ZM17.1021 15.5029L15.2344 15.4663L14.27 14.209L14.8438 12.4146L16.6016 11.6943L18.0054 12.5C17.9932 13.5986 17.6636 14.6362 17.1021 15.5029ZM12.4512 18.0054C11.9141 18.0054 11.4014 17.9199 10.9131 17.7856L10.5103 16.0767L11.3647 14.978L13.5132 14.978L14.3921 16.1133L13.9893 17.7856C13.501 17.9321 12.9883 18.0054 12.4512 18.0054Z" fill="#5ac8f5"/>
 </g>
</svg>
