<?xml version="1.0" encoding="UTF-8"?>
<!--Generator: Apple Native CoreSVG 175.5-->
<!DOCTYPE svg
PUBLIC "-//W3C//DTD SVG 1.1//EN"
       "http://www.w3.org/Graphics/SVG/1.1/DTD/svg11.dtd">
<svg version="1.1" xmlns="http://www.w3.org/2000/svg" xmlns:xlink="http://www.w3.org/1999/xlink" width="23.5107" height="23.5474">
 <g>
  <rect height="23.5474" opacity="0" width="23.5107" x="0" y="0"/>
  <path d="M0.976562 23.5229C1.52588 23.5229 1.96533 23.0713 1.96533 22.5342L1.96533 18.4204L6.23779 18.4204C6.93359 18.4204 7.44629 17.9077 7.44629 17.2119L7.44629 12.9395L11.7188 12.9395C12.4146 12.9395 12.9395 12.4268 12.9395 11.731L12.9395 7.4585L17.1997 7.4585C17.9077 7.4585 18.4204 6.9458 18.4204 6.25L18.4204 1.96533L22.522 1.96533C23.0713 1.96533 23.5107 1.52588 23.5107 0.98877C23.5107 0.45166 23.0713 0 22.522 0L17.6636 0C16.9678 0 16.4551 0.524902 16.4551 1.2207L16.4551 5.49316L12.1826 5.49316C11.4868 5.49316 10.9741 6.00586 10.9741 6.70166L10.9741 10.9741L6.68945 10.9741C5.99365 10.9741 5.48096 11.4868 5.48096 12.1948L5.48096 16.4551L1.2085 16.4551C0.512695 16.4551 0 16.98 0 17.6758L0 22.5342C0 23.0713 0.439453 23.5229 0.976562 23.5229Z" fill="#5ac8f5"/>
 </g>
</svg>
