<?xml version="1.0" encoding="UTF-8"?>
<!--Generator: Apple Native CoreSVG 175.5-->
<!DOCTYPE svg
PUBLIC "-//W3C//DTD SVG 1.1//EN"
       "http://www.w3.org/Graphics/SVG/1.1/DTD/svg11.dtd">
<svg version="1.1" xmlns="http://www.w3.org/2000/svg" xmlns:xlink="http://www.w3.org/1999/xlink" width="24.8291" height="26.4526">
 <g>
  <rect height="26.4526" opacity="0" width="24.8291" x="0" y="0"/>
  <path d="M0 19.3359C0 21.6187 1.15967 22.7905 3.41797 22.7905L5.0415 22.7905L5.0415 19.2261L4.1748 19.2261C3.24707 19.2261 2.64893 18.6279 2.64893 17.6758L2.64893 13.9893L5.0415 13.9893L5.0415 12.7563L2.64893 12.7563L2.64893 11.3525C2.64893 10.4004 3.24707 9.81445 4.1748 9.81445L5.0415 9.81445L5.0415 6.23779C5.0415 3.44238 6.83594 1.62354 9.59473 1.62354L13.501 1.62354L12.7808 0.891113C12.146 0.256348 11.5112 0 10.5103 0L3.41797 0C1.15967 0 0 1.18408 0 3.479Z" fill="#5ac8f5" fill-opacity="0.5"/>
  <path d="M6.70166 22.8516C6.70166 25.1343 7.87354 26.3184 10.1318 26.3184L21.4111 26.3184C23.6694 26.3184 24.8291 25.1343 24.8291 22.8516L24.8291 10.9497C24.8291 9.86328 24.6216 9.31396 23.999 8.69141L19.4824 4.1748C18.8477 3.54004 18.2129 3.28369 17.2241 3.28369L10.1318 3.28369C7.87354 3.28369 6.70166 4.46777 6.70166 6.7627ZM10.6201 21.2036L10.6201 17.5171L13.4399 17.5171C13.562 17.5171 13.623 17.5781 13.623 17.688L13.623 22.7417L12.1582 22.7417C11.2305 22.7417 10.6201 22.1436 10.6201 21.2036ZM10.6201 16.2842L10.6201 14.8804C10.6201 13.916 11.2305 13.3301 12.1582 13.3301L16.9189 13.3301L16.9189 22.7417L14.856 22.7417L14.856 16.9556C14.856 16.5405 14.6118 16.2842 14.1724 16.2842ZM18.1519 22.7417L18.1519 13.3301L19.3481 13.3301C20.2881 13.3301 20.874 13.916 20.874 14.8804L20.874 21.2036C20.874 22.1436 20.2881 22.7417 19.3481 22.7417Z" fill="#5ac8f5"/>
 </g>
</svg>
