<?xml version="1.0" encoding="UTF-8"?>
<!--Generator: Apple Native CoreSVG 175.5-->
<!DOCTYPE svg
PUBLIC "-//W3C//DTD SVG 1.1//EN"
       "http://www.w3.org/Graphics/SVG/1.1/DTD/svg11.dtd">
<svg version="1.1" xmlns="http://www.w3.org/2000/svg" xmlns:xlink="http://www.w3.org/1999/xlink" width="20.5322" height="26.1841">
 <g>
  <rect height="26.1841" opacity="0" width="20.5322" x="0" y="0"/>
  <path d="M3.78418 26.1841L16.748 26.1841C19.2749 26.1841 20.5322 24.9023 20.5322 22.3633L20.5322 8.6792C20.5322 7.4707 20.3125 6.87256 19.6289 6.17676L14.4409 1.00098C13.7329 0.280762 13.0371 0.012207 11.9385 0.012207L3.78418 0.012207C1.26953 0.012207 0 1.30615 0 3.84521L0 22.3633C0 24.9146 1.25732 26.1841 3.78418 26.1841ZM4.44336 20.459L4.44336 15.918L7.59277 15.918C7.71484 15.918 7.78809 15.979 7.78809 16.1011L7.78809 22.1558L6.12793 22.1558C5.09033 22.1558 4.44336 21.5088 4.44336 20.459ZM4.44336 14.563L4.44336 13.0371C4.44336 11.9751 5.09033 11.3281 6.12793 11.3281L11.4868 11.3281L11.4868 22.1558L9.14307 22.1558L9.14307 15.2954C9.14307 14.8438 8.87451 14.563 8.41064 14.563ZM12.8418 22.1558L12.8418 11.3281L14.4165 11.3281C15.4541 11.3281 16.1133 11.9751 16.1133 13.0371L16.1133 20.459C16.1133 21.5088 15.4541 22.1558 14.4165 22.1558Z" fill="#5ac8f5"/>
 </g>
</svg>
