<?xml version="1.0" encoding="UTF-8"?>
<!--Generator: Apple Native CoreSVG 175.5-->
<!DOCTYPE svg
PUBLIC "-//W3C//DTD SVG 1.1//EN"
       "http://www.w3.org/Graphics/SVG/1.1/DTD/svg11.dtd">
<svg version="1.1" xmlns="http://www.w3.org/2000/svg" xmlns:xlink="http://www.w3.org/1999/xlink" width="24.2676" height="23.8159">
 <g>
  <rect height="23.8159" opacity="0" width="24.2676" x="0" y="0"/>
  <path d="M5.37109 9.8999C8.22754 9.92432 10.6812 7.67822 10.6812 4.93164C10.6812 2.22168 8.22754 0 5.37109 0C2.74658 0 1.13525 1.62354 0.366211 2.75879C0.109863 3.14941 0 3.57666 0 4.05273L0 5.84717C0 6.32324 0.12207 6.75049 0.366211 7.14111C1.11084 8.27637 2.74658 9.86328 5.37109 9.8999ZM2.22168 6.88477C1.9165 6.88477 1.67236 6.64062 1.67236 6.32324L1.67236 3.56445C1.67236 3.24707 1.9165 3.00293 2.22168 3.00293C2.55127 3.00293 2.7832 3.24707 2.7832 3.56445L2.7832 6.32324C2.7832 6.64062 2.55127 6.88477 2.22168 6.88477ZM7.18994 19.165L8.22754 19.165C8.97217 19.165 9.43604 18.7988 9.43604 18.0664L9.43604 9.7168C8.47168 10.4614 7.27539 10.9497 5.99365 11.0474L5.99365 18.0664C5.99365 18.7988 6.46973 19.165 7.18994 19.165ZM7.09229 23.7793L8.3252 23.7793L8.3252 17.9565L7.09229 17.9565ZM18.8965 9.8999C21.521 9.86328 23.1567 8.27637 23.9014 7.14111C24.1455 6.75049 24.2676 6.32324 24.2676 5.84717L24.2676 4.05273C24.2676 3.57666 24.1577 3.14941 23.9014 2.75879C23.1323 1.62354 21.521 0 18.8965 0C16.04 0 13.5864 2.22168 13.5864 4.93164C13.5864 7.67822 16.04 9.92432 18.8965 9.8999ZM22.0337 6.88477C21.7163 6.88477 21.4844 6.64062 21.4844 6.32324L21.4844 3.56445C21.4844 3.24707 21.7163 3.00293 22.0337 3.00293C22.3511 3.00293 22.5952 3.24707 22.5952 3.56445L22.5952 6.32324C22.5952 6.64062 22.3511 6.88477 22.0337 6.88477ZM16.04 19.165L17.0776 19.165C17.7979 19.165 18.2739 18.7988 18.2739 18.0664L18.2739 11.0474C16.9922 10.9497 15.7959 10.4614 14.8315 9.7168L14.8315 18.0664C14.8315 18.7988 15.2954 19.165 16.04 19.165ZM17.1753 23.7793L17.1753 17.9565L15.9424 17.9565L15.9424 23.7793Z" fill="#5ac8f5"/>
 </g>
</svg>
