<?xml version="1.0" encoding="UTF-8"?>
<!--Generator: Apple Native CoreSVG 175.5-->
<!DOCTYPE svg
PUBLIC "-//W3C//DTD SVG 1.1//EN"
       "http://www.w3.org/Graphics/SVG/1.1/DTD/svg11.dtd">
<svg version="1.1" xmlns="http://www.w3.org/2000/svg" xmlns:xlink="http://www.w3.org/1999/xlink" width="13.0127" height="25.8667">
 <g>
  <rect height="25.8667" opacity="0" width="13.0127" x="0" y="0"/>
  <path d="M6.50635 12.0239C8.61816 12.0239 10.3271 10.3149 10.3271 8.20312C10.3271 6.10352 8.61816 4.38232 6.50635 4.38232C4.40674 4.38232 2.70996 6.10352 2.70996 8.20312C2.70996 10.3149 4.40674 12.0239 6.50635 12.0239ZM6.50635 10.6079C5.18799 10.6079 4.12598 9.5459 4.12598 8.20312C4.12598 6.87256 5.18799 5.79834 6.50635 5.79834C7.84912 5.79834 8.91113 6.87256 8.91113 8.20312C8.91113 9.5459 7.84912 10.6079 6.50635 10.6079ZM3.32031 25.8545L9.69238 25.8545C11.731 25.8545 13.0127 24.6216 13.0127 22.6807L13.0127 3.17383C13.0127 1.23291 11.731 0 9.69238 0L3.32031 0C1.28174 0 0 1.23291 0 3.17383L0 22.6807C0 24.6216 1.28174 25.8545 3.32031 25.8545ZM3.57666 23.8892C2.55127 23.8892 1.96533 23.3276 1.96533 22.3633L1.96533 3.49121C1.96533 2.52686 2.55127 1.96533 3.57666 1.96533L9.44824 1.96533C10.4614 1.96533 11.0474 2.52686 11.0474 3.49121L11.0474 22.3633C11.0474 23.3276 10.4614 23.8892 9.44824 23.8892Z" fill="#5ac8f5"/>
 </g>
</svg>
