<?xml version="1.0" encoding="UTF-8"?>
<!--Generator: Apple Native CoreSVG 175.5-->
<!DOCTYPE svg
PUBLIC "-//W3C//DTD SVG 1.1//EN"
       "http://www.w3.org/Graphics/SVG/1.1/DTD/svg11.dtd">
<svg version="1.1" xmlns="http://www.w3.org/2000/svg" xmlns:xlink="http://www.w3.org/1999/xlink" width="32.0282" height="26.0498">
 <g>
  <rect height="26.0498" opacity="0" width="32.0282" x="0" y="0"/>
  <path d="M6.58875 23.053L19.5648 23.053L17.7338 21.2097L6.93054 21.2097C4.92859 21.2097 3.79333 20.1721 3.79333 18.0603L3.79333 7.36694L1.828 5.3894C1.828 5.93872 1.828 6.46362 1.828 7.01294L1.828 18.3411C1.828 21.3196 3.61023 23.053 6.58875 23.053ZM19.3451 2.98462L6.32019 2.98462L8.15125 4.81567L19.0033 4.81567C20.993 4.81567 22.1405 5.85327 22.1405 7.97729L22.1405 17.9626C22.1405 18.2556 22.1039 18.4631 22.0306 18.6951L23.7396 20.4041C23.9716 19.8547 24.1058 19.1711 24.1058 18.4998L24.1058 7.68433C24.1058 4.71802 22.3236 2.98462 19.3451 2.98462ZM23.8129 9.61304L23.8129 11.9324L29.6356 7.1228C29.7455 7.03735 29.8187 6.97632 29.9286 6.97632C30.0751 6.97632 30.1361 7.09839 30.1361 7.26929L30.1361 18.7683C30.1361 18.9392 30.0751 19.0491 29.9286 19.0491C29.8187 19.0491 29.7455 18.988 29.6356 18.9148L23.8129 14.1052L23.8129 16.4246L28.7201 20.575C29.2084 20.9778 29.7455 21.2585 30.246 21.2585C31.3202 21.2585 32.0282 20.4651 32.0282 19.3298L32.0282 6.70776C32.0282 5.57251 31.3202 4.77905 30.246 4.77905C29.7455 4.77905 29.2084 5.05981 28.7201 5.46265ZM24.3866 25.7751C24.7528 26.1414 25.3632 26.1414 25.7172 25.7751C26.0712 25.3967 26.0834 24.8108 25.7172 24.4446L1.60828 0.3479C1.24207-0.0183105 0.631714-0.0305176 0.265503 0.3479C-0.088501 0.701904-0.088501 1.32446 0.265503 1.67847Z" fill="#5ac8f5"/>
 </g>
</svg>
