<?xml version="1.0" encoding="UTF-8"?>
<!--Generator: Apple Native CoreSVG 175.5-->
<!DOCTYPE svg
PUBLIC "-//W3C//DTD SVG 1.1//EN"
       "http://www.w3.org/Graphics/SVG/1.1/DTD/svg11.dtd">
<svg version="1.1" xmlns="http://www.w3.org/2000/svg" xmlns:xlink="http://www.w3.org/1999/xlink" width="24.9023" height="24.9146">
 <g>
  <rect height="24.9146" opacity="0" width="24.9023" x="0" y="0"/>
  <path d="M12.4512 24.9023C19.2627 24.9023 24.9023 19.2505 24.9023 12.4512C24.9023 5.63965 19.2505 0 12.439 0C5.63965 0 0 5.63965 0 12.4512C0 19.2505 5.65186 24.9023 12.4512 24.9023ZM12.4512 22.8271C6.68945 22.8271 2.0874 18.2129 2.0874 12.4512C2.0874 6.68945 6.67725 2.0752 12.439 2.0752C18.2007 2.0752 22.8271 6.68945 22.8271 12.4512C22.8271 18.2129 18.2129 22.8271 12.4512 22.8271Z" fill="#5ac8f5" fill-opacity="0.5"/>
  <path d="M9.68018 18.1396L17.8467 18.1396C18.9575 18.1396 19.519 17.5903 19.519 16.4795L19.519 10.7666C19.519 9.68018 18.9575 9.10645 17.8467 9.10645L9.68018 9.10645C8.55713 9.10645 8.00781 9.68018 8.00781 10.7666L8.00781 16.4795C8.00781 17.5903 8.55713 18.1396 9.68018 18.1396ZM12.1338 15.7227L12.1338 11.5479C12.1338 11.2671 12.4146 11.1816 12.6343 11.3159L16.1255 13.3667C16.333 13.4888 16.3452 13.7695 16.1377 13.8916L12.6343 15.9668C12.4146 16.1011 12.1338 15.9912 12.1338 15.7227ZM7.27539 10.6934C7.27539 9.16748 8.06885 8.37402 9.60693 8.37402L16.8457 8.37402L16.8457 8.23975C16.8457 7.12891 16.2842 6.57959 15.1611 6.57959L7.00684 6.57959C5.88379 6.57959 5.32227 7.12891 5.32227 8.23975L5.32227 13.9038C5.32227 15.0024 5.88379 15.564 7.00684 15.564L7.27539 15.564Z" fill="#5ac8f5"/>
 </g>
</svg>
