<?xml version="1.0" encoding="UTF-8"?>
<!--Generator: Apple Native CoreSVG 175.5-->
<!DOCTYPE svg
PUBLIC "-//W3C//DTD SVG 1.1//EN"
       "http://www.w3.org/Graphics/SVG/1.1/DTD/svg11.dtd">
<svg version="1.1" xmlns="http://www.w3.org/2000/svg" xmlns:xlink="http://www.w3.org/1999/xlink" width="22.4731" height="22.4976">
 <g>
  <rect height="22.4976" opacity="0" width="22.4731" x="0" y="0"/>
  <path d="M3.83301 22.4976L18.6401 22.4976C21.2036 22.4976 22.4731 21.228 22.4731 18.7134L22.4731 3.80859C22.4731 1.29395 21.2036 0.0244141 18.6401 0.0244141L3.83301 0.0244141C1.28174 0.0244141 0 1.28174 0 3.80859L0 18.7134C0 21.2402 1.28174 22.4976 3.83301 22.4976Z" fill="#5ac8f5" fill-opacity="0.25"/>
  <path d="M3.01514 20.6665C3.95508 17.5659 7.25098 15.332 11.2549 15.332C15.2466 15.332 18.5425 17.5659 19.4824 20.6665ZM11.2427 13.2935C8.91113 13.269 7.08008 11.3281 7.06787 8.71582C7.05566 6.26221 8.91113 4.23584 11.2427 4.23584C13.5742 4.23584 15.4175 6.26221 15.4175 8.71582C15.4175 11.3281 13.5742 13.3179 11.2427 13.2935Z" fill="#5ac8f5"/>
 </g>
</svg>
