<?xml version="1.0" encoding="UTF-8"?>
<!--Generator: Apple Native CoreSVG 175.5-->
<!DOCTYPE svg
PUBLIC "-//W3C//DTD SVG 1.1//EN"
       "http://www.w3.org/Graphics/SVG/1.1/DTD/svg11.dtd">
<svg version="1.1" xmlns="http://www.w3.org/2000/svg" xmlns:xlink="http://www.w3.org/1999/xlink" width="24.814" height="24.8209">
 <g>
  <rect height="24.8209" opacity="0" width="24.814" x="0" y="0"/>
  <path d="M19.4112 19.4112C24.1353 14.6627 25.7955 7.96101 24.2574 2.78522C23.8301 1.41804 23.4029 0.978584 22.0235 0.563544C16.8599-0.986749 10.1461 0.673408 5.39753 5.39753C0.673408 10.1461-0.986749 16.8599 0.563544 22.0235C0.978584 23.3907 1.41804 23.8301 2.78522 24.2452C7.96101 25.7955 14.6627 24.1353 19.4112 19.4112ZM17.9708 17.9708C13.8692 22.0967 8.48591 23.647 3.46882 22.3165C2.80964 22.1456 2.66315 21.9991 2.48005 21.3033C1.1861 16.3106 2.71198 10.9395 6.83796 6.83796C10.9517 2.71198 16.3106 1.1739 21.3033 2.46784C21.9991 2.66315 22.1456 2.80964 22.3165 3.46882C23.6592 8.4737 22.0967 13.8692 17.9708 17.9708ZM14.4429 1.003L12.8926 2.55329L22.2799 11.9527L23.8424 10.3902ZM1.0152 14.4429L10.3902 23.8424L11.9527 22.2799L2.5655 12.8926ZM7.55817 14.8214L9.99958 17.2506C10.2071 17.4703 10.5367 17.4703 10.7564 17.2506C10.9639 17.043 10.9639 16.7012 10.7564 16.4815L8.32722 14.0523C8.1197 13.8448 7.76569 13.8448 7.55817 14.0523C7.35065 14.272 7.35065 14.6016 7.55817 14.8214ZM9.19392 13.1734L11.6353 15.6148C11.8428 15.8223 12.1846 15.8223 12.3922 15.6148C12.5997 15.4073 12.5997 15.0533 12.3922 14.8458L9.96296 12.4166C9.75544 12.2091 9.40144 12.2091 9.19392 12.4166C8.9864 12.6241 8.9864 12.9659 9.19392 13.1734ZM10.8297 11.5377L13.2711 13.9791C13.4786 14.1866 13.8204 14.1866 14.0279 13.9791C14.2354 13.7593 14.2354 13.4175 14.0279 13.2222L11.5865 10.7808C11.3912 10.5733 11.0372 10.5733 10.8297 10.7808C10.6221 10.9883 10.6221 11.3301 10.8297 11.5377ZM12.4654 9.91413L14.8946 12.3433C15.1143 12.5508 15.4561 12.5508 15.6636 12.3433C15.8834 12.1236 15.8834 11.794 15.6636 11.5865L13.2344 9.14509C13.0147 8.93757 12.6851 8.93757 12.4654 9.14509C12.2579 9.35261 12.2579 9.70661 12.4654 9.91413ZM14.1133 8.27839L16.5303 10.6954C16.7501 10.9151 17.0919 10.9151 17.2994 10.6954C17.5191 10.4879 17.5191 10.1583 17.2994 9.93854L14.8702 7.49714C14.6505 7.28962 14.3209 7.28962 14.1133 7.49714C13.8936 7.71686 13.8936 8.05866 14.1133 8.27839ZM9.37702 16.1885L16.2008 9.37702L15.4439 8.62019L8.62019 15.4439Z" fill="#5ac8f5"/>
 </g>
</svg>
