<?xml version="1.0" encoding="UTF-8"?>
<!--Generator: Apple Native CoreSVG 175.5-->
<!DOCTYPE svg
PUBLIC "-//W3C//DTD SVG 1.1//EN"
       "http://www.w3.org/Graphics/SVG/1.1/DTD/svg11.dtd">
<svg version="1.1" xmlns="http://www.w3.org/2000/svg" xmlns:xlink="http://www.w3.org/1999/xlink" width="23.5551" height="28.8452">
 <g>
  <rect height="28.8452" opacity="0" width="23.5551" x="0" y="0"/>
  <path d="M0.366268 6.50635C-0.13422 6.98242-0.109806 7.69043 0.366268 8.14209L6.65289 14.2944C6.87262 14.5142 7.19 14.6484 7.45855 14.6484C8.10553 14.6484 8.54498 14.1968 8.54498 13.562C8.54498 13.2568 8.43512 13.0127 8.2276 12.8052L5.60308 10.2661L3.33258 8.30078L6.1524 8.42285L22.461 8.42285C23.0958 8.42285 23.5474 7.97119 23.5474 7.32422C23.5474 6.68945 23.0958 6.23779 22.461 6.23779L6.1524 6.23779L3.33258 6.34766L5.60308 4.39453L8.2276 1.84326C8.43512 1.63574 8.54498 1.40381 8.54498 1.08643C8.54498 0.45166 8.10553 0.012207 7.45855 0.012207C7.19 0.012207 6.87262 0.134277 6.65289 0.354004ZM23.1934 22.3511C23.6817 21.875 23.6695 21.167 23.1934 20.7031L16.9068 14.5508C16.6871 14.3433 16.3697 14.209 16.0889 14.209C15.442 14.209 15.0147 14.6484 15.0147 15.2832C15.0147 15.6006 15.1124 15.8447 15.3199 16.04L17.9566 18.5913L20.2271 20.5566L17.4073 20.4346L1.09869 20.4346C0.463924 20.4346 5.72026e-05 20.8862 5.72026e-05 21.521C5.72026e-05 22.168 0.463924 22.6196 1.09869 22.6196L17.4073 22.6196L20.2271 22.4976L17.9566 24.4629L15.3199 27.002C15.1124 27.2095 15.0147 27.4536 15.0147 27.771C15.0147 28.4058 15.442 28.8452 16.0889 28.8452C16.3697 28.8452 16.6871 28.7109 16.9068 28.5034Z" fill="#5ac8f5"/>
 </g>
</svg>
