<?xml version="1.0" encoding="UTF-8"?>
<!--Generator: Apple Native CoreSVG 175.5-->
<!DOCTYPE svg
PUBLIC "-//W3C//DTD SVG 1.1//EN"
       "http://www.w3.org/Graphics/SVG/1.1/DTD/svg11.dtd">
<svg version="1.1" xmlns="http://www.w3.org/2000/svg" xmlns:xlink="http://www.w3.org/1999/xlink" width="24.4629" height="31.3616">
 <g>
  <rect height="31.3616" opacity="0" width="24.4629" x="0" y="0"/>
  <path d="M3.13721 26.9296L15.2344 26.9296C17.3218 26.9296 18.3716 25.9286 18.3716 23.7924L18.3716 11.7196C18.3716 9.5834 17.3218 8.58242 15.2344 8.58242L3.13721 8.58242C1.0498 8.58242 0 9.5834 0 11.7196L0 23.7924C0 25.9286 1.0498 26.9296 3.13721 26.9296ZM23.6938 10.914C24.1089 10.914 24.4629 10.5722 24.4629 10.1571L24.4629 8.32608C24.4629 4.83486 22.1313 2.47891 18.6279 2.47891L18.3716 2.47891L18.3716 0.86758C18.3716-0.0357407 17.688-0.231053 17.0044 0.269435L13.9282 2.52774C13.4033 2.90615 13.4033 3.34561 13.9282 3.72402L17.0044 5.97012C17.688 6.47061 18.3716 6.26309 18.3716 5.38418L18.3716 3.89492L18.6157 3.89492C21.2646 3.89492 22.937 5.72598 22.937 8.33828L22.937 10.1571C22.937 10.5722 23.2788 10.914 23.6938 10.914Z" fill="#5ac8f5"/>
 </g>
</svg>
