<?xml version="1.0" encoding="UTF-8"?>
<!--Generator: Apple Native CoreSVG 175.5-->
<!DOCTYPE svg
PUBLIC "-//W3C//DTD SVG 1.1//EN"
       "http://www.w3.org/Graphics/SVG/1.1/DTD/svg11.dtd">
<svg version="1.1" xmlns="http://www.w3.org/2000/svg" xmlns:xlink="http://www.w3.org/1999/xlink" width="25.0854" height="26.5503">
 <g>
  <rect height="26.5503" opacity="0" width="25.0854" x="0" y="0"/>
  <path d="M3.71094 26.5381L21.3745 26.5381C23.8281 26.5381 25.0854 25.293 25.0854 22.8638L25.0854 10.5835C25.0854 8.1543 23.8281 6.92139 21.3745 6.92139L3.71094 6.92139C1.23291 6.92139 0 8.1543 0 10.5835L0 22.8638C0 25.293 1.23291 26.5381 3.71094 26.5381ZM2.33154 4.95605L22.7661 4.95605C22.583 3.84521 22.0581 3.23486 20.8374 3.23486L4.26025 3.23486C3.03955 3.23486 2.51465 3.84521 2.33154 4.95605ZM4.84619 1.57471L20.2515 1.57471C20.1782 0.537109 19.5923 0 18.457 0L6.62842 0C5.50537 0 4.91943 0.537109 4.84619 1.57471ZM13.1714 21.7773C12.915 21.7773 12.7319 21.6187 12.6953 21.3623C12.1582 17.688 11.6821 16.8701 7.82471 16.4795C7.56836 16.4429 7.40967 16.2598 7.40967 16.0156C7.40967 15.7837 7.56836 15.6006 7.82471 15.5518C11.6699 15.0391 12.0117 14.3677 12.6953 10.6567C12.7563 10.4126 12.9395 10.2539 13.1714 10.2539C13.4033 10.2539 13.5864 10.4248 13.623 10.6689C14.1724 14.3066 14.6729 15.0391 18.5059 15.5518C18.75 15.6006 18.9331 15.7837 18.9331 16.0156C18.9331 16.2598 18.75 16.4429 18.5059 16.4795C14.6606 16.9922 14.3188 17.688 13.623 21.3745C13.5742 21.6187 13.4033 21.7773 13.1714 21.7773ZM8.21533 23.8403C8.03223 23.8403 7.92236 23.7061 7.86133 23.5229C7.49512 21.7163 7.65381 21.6309 5.67627 21.3379C5.46875 21.3013 5.35889 21.1792 5.35889 20.9839C5.35889 20.813 5.46875 20.6665 5.65186 20.6421C7.65381 20.3125 7.49512 20.2271 7.86133 18.4448C7.92236 18.2495 8.04443 18.1152 8.21533 18.1152C8.41064 18.1152 8.52051 18.2617 8.56934 18.4448C8.91113 20.2271 8.78906 20.3125 10.791 20.6421C10.9619 20.6665 11.084 20.813 11.084 20.9839C11.084 21.1548 10.9619 21.3013 10.791 21.3379C8.78906 21.6309 8.91113 21.7163 8.56934 23.5596C8.52051 23.7183 8.39844 23.8403 8.21533 23.8403Z" fill="#5ac8f5"/>
 </g>
</svg>
