<?xml version="1.0" encoding="UTF-8"?>
<!--Generator: Apple Native CoreSVG 175.5-->
<!DOCTYPE svg
PUBLIC "-//W3C//DTD SVG 1.1//EN"
       "http://www.w3.org/Graphics/SVG/1.1/DTD/svg11.dtd">
<svg version="1.1" xmlns="http://www.w3.org/2000/svg" xmlns:xlink="http://www.w3.org/1999/xlink" width="27.771" height="26.77">
 <g>
  <rect height="26.77" opacity="0" width="27.771" x="0" y="0"/>
  <path d="M15.4419 5.33447C16.9067 5.33447 18.103 4.12598 18.103 2.66113C18.103 1.19629 16.9067 0 15.4419 0C13.9771 0 12.7686 1.19629 12.7686 2.66113C12.7686 4.12598 13.9771 5.33447 15.4419 5.33447ZM18.8721 26.4893C19.397 26.2817 19.7998 25.7446 19.5923 25L17.749 18.5669C17.6514 18.2617 17.4805 18.0176 17.1875 17.8467L13.3423 15.5884L15.1733 10.1562C15.3076 9.74121 15.7471 9.69238 16.0522 9.99756L18.7744 12.7075C19.0186 12.9395 19.3115 13.0737 19.6289 13.0737C19.9585 13.0737 20.2637 12.9639 20.5078 12.7075L24.1821 9.021C24.646 8.53271 24.6826 7.78809 24.1821 7.2998C23.7061 6.82373 22.937 6.81152 22.4487 7.2998L19.6289 10.1196L17.2729 7.67822C16.1865 6.55518 15.0269 6.32324 12.7686 6.32324L1.23291 6.32324C0.561523 6.32324 0 6.87256 0 7.55615C0 8.22754 0.561523 8.77686 1.23291 8.77686L9.80225 8.77686C10.1562 8.77686 10.4858 9.06982 10.3149 9.55811L8.88672 13.8428C8.38623 15.3564 9.09424 16.98 10.5591 17.6147L15.5273 19.7998L17.2363 25.6348C17.4805 26.5015 18.2617 26.709 18.8721 26.4893ZM3.2959 26.062C3.61328 26.5259 4.23584 26.77 4.91943 26.4038L10.4004 23.3643C10.6689 23.2178 10.8643 22.9736 10.9741 22.6562L12.0239 19.5435L10.0952 18.7012C9.86328 18.5913 9.64355 18.4814 9.42383 18.335L8.75244 21.46L3.73535 24.2676C2.9541 24.7192 2.92969 25.5371 3.2959 26.062ZM20.2393 15.8203L27.771 15.8203L27.771 14.4653L20.2393 14.4653C19.8608 14.4653 19.5679 14.7583 19.5679 15.1367C19.5679 15.5151 19.8608 15.8203 20.2393 15.8203ZM1.68457 6.79932L2.91748 6.79932L2.91748 5.07812L1.68457 5.07812ZM2.30713 0.427246C1.02539 0.427246 0 1.45264 0 2.74658C0 3.91846 1.02539 5.32227 2.30713 5.61523C3.58887 5.32227 4.60205 3.91846 4.60205 2.74658C4.60205 1.45264 3.58887 0.427246 2.30713 0.427246Z" fill="#5ac8f5"/>
 </g>
</svg>
