<?xml version="1.0" encoding="UTF-8"?>
<!--Generator: Apple Native CoreSVG 175.5-->
<!DOCTYPE svg
PUBLIC "-//W3C//DTD SVG 1.1//EN"
       "http://www.w3.org/Graphics/SVG/1.1/DTD/svg11.dtd">
<svg version="1.1" xmlns="http://www.w3.org/2000/svg" xmlns:xlink="http://www.w3.org/1999/xlink" width="24.9023" height="24.9146">
 <g>
  <rect height="24.9146" opacity="0" width="24.9023" x="0" y="0"/>
  <path d="M12.4512 24.9023C19.2627 24.9023 24.9023 19.2505 24.9023 12.4512C24.9023 5.63965 19.2505 0 12.439 0C5.63965 0 0 5.63965 0 12.4512C0 19.2505 5.65186 24.9023 12.4512 24.9023ZM12.4512 22.8271C6.68945 22.8271 2.0874 18.2129 2.0874 12.4512C2.0874 6.68945 6.67725 2.0752 12.439 2.0752C18.2007 2.0752 22.8271 6.68945 22.8271 12.4512C22.8271 18.2129 18.2129 22.8271 12.4512 22.8271ZM6.93359 17.4561L13.3423 17.4561C15.0757 17.4561 16.4062 16.1499 16.4062 14.4409C16.4062 12.7686 15.0757 11.5112 13.269 11.4624C12.5854 10.1685 11.3525 9.375 9.87549 9.375C7.91016 9.375 6.26221 10.9009 6.04248 12.8296C5.06592 13.1592 4.38232 14.0259 4.38232 15.1123C4.38232 16.4673 5.41992 17.4561 6.93359 17.4561ZM20.5933 11.1938C20.5933 10.9497 20.4956 10.791 20.3003 10.791C20.0073 10.791 19.5557 11.1694 18.7256 11.1694C17.2241 11.1694 16.272 10.2783 16.272 8.89893C16.272 8.09326 16.7114 7.50732 16.7114 7.18994C16.7114 7.00684 16.5649 6.88477 16.333 6.88477C15.1245 6.9458 13.5986 8.37402 13.4033 10.1562C13.5376 10.3027 13.6597 10.4736 13.7817 10.6445C15.6738 10.8765 17.0898 12.2803 17.2485 14.0991C19.3359 13.9038 20.5933 12.2437 20.5933 11.1938Z" fill="#5ac8f5"/>
 </g>
</svg>
