<?xml version="1.0" encoding="UTF-8"?>
<!--Generator: Apple Native CoreSVG 175.5-->
<!DOCTYPE svg
PUBLIC "-//W3C//DTD SVG 1.1//EN"
       "http://www.w3.org/Graphics/SVG/1.1/DTD/svg11.dtd">
<svg version="1.1" xmlns="http://www.w3.org/2000/svg" xmlns:xlink="http://www.w3.org/1999/xlink" width="24.9023" height="24.9146">
 <g>
  <rect height="24.9146" opacity="0" width="24.9023" x="0" y="0"/>
  <path d="M12.4512 24.9023C19.2627 24.9023 24.9023 19.2505 24.9023 12.4512C24.9023 5.63965 19.2505 0 12.439 0C5.63965 0 0 5.63965 0 12.4512C0 19.2505 5.65186 24.9023 12.4512 24.9023Z" fill="#5ac8f5" fill-opacity="0.25"/>
  <path d="M12.4146 18.2739C11.7676 18.2739 11.4258 17.7979 11.4258 17.1265L11.4258 8.30078L8.3252 8.30078C7.83691 8.30078 7.48291 7.97119 7.48291 7.4707C7.48291 6.9458 7.83691 6.64062 8.3252 6.64062L16.5649 6.64062C17.0532 6.64062 17.4194 6.9458 17.4194 7.4707C17.4194 7.97119 17.0532 8.30078 16.5649 8.30078L13.4399 8.30078L13.4399 17.1265C13.4399 17.8223 13.0859 18.2739 12.4146 18.2739Z" fill="#5ac8f5"/>
 </g>
</svg>
