<?xml version="1.0" encoding="UTF-8"?>
<!--Generator: Apple Native CoreSVG 175.5-->
<!DOCTYPE svg
PUBLIC "-//W3C//DTD SVG 1.1//EN"
       "http://www.w3.org/Graphics/SVG/1.1/DTD/svg11.dtd">
<svg version="1.1" xmlns="http://www.w3.org/2000/svg" xmlns:xlink="http://www.w3.org/1999/xlink" width="22.4731" height="22.4976">
 <g>
  <rect height="22.4976" opacity="0" width="22.4731" x="0" y="0"/>
  <path d="M3.83301 22.4976L18.6401 22.4976C21.2036 22.4976 22.4731 21.228 22.4731 18.7134L22.4731 3.80859C22.4731 1.29395 21.2036 0.0244141 18.6401 0.0244141L3.83301 0.0244141C1.28174 0.0244141 0 1.28174 0 3.80859L0 18.7134C0 21.2402 1.28174 22.4976 3.83301 22.4976ZM3.85742 20.5322C2.63672 20.5322 1.96533 19.8853 1.96533 18.6157L1.96533 3.90625C1.96533 2.63672 2.63672 1.98975 3.85742 1.98975L18.6157 1.98975C19.8242 1.98975 20.5078 2.63672 20.5078 3.90625L20.5078 18.6157C20.5078 19.8853 19.8242 20.5322 18.6157 20.5322Z" fill="#5ac8f5" fill-opacity="0.5"/>
  <path d="M8.10547 17.1997C8.58154 17.1997 8.87451 16.9556 8.97217 16.5039L9.52148 13.8794L11.792 13.8794L11.2915 16.272C11.1816 16.7725 11.5356 17.1997 12.0361 17.1997C12.5244 17.1997 12.8418 16.9556 12.9395 16.5039L13.4888 13.8672L14.7583 13.8672C15.2344 13.8672 15.5762 13.5132 15.5762 13.0493C15.5762 12.6343 15.2832 12.3291 14.8804 12.3291L13.8184 12.3291L14.3433 9.85107L15.625 9.85107C16.1011 9.85107 16.4429 9.49707 16.4429 9.0332C16.4429 8.61816 16.1499 8.31299 15.7471 8.31299L14.6606 8.31299L15.1367 6.03027C15.2344 5.52979 14.8682 5.10254 14.3677 5.10254C13.8916 5.10254 13.5864 5.34668 13.4888 5.81055L12.9639 8.31299L10.6934 8.31299L11.1572 6.03027C11.2671 5.54199 10.9131 5.10254 10.4126 5.10254C9.92432 5.10254 9.61914 5.34668 9.52148 5.81055L9.00879 8.31299L7.71484 8.31299C7.25098 8.31299 6.89697 8.66699 6.89697 9.13086C6.89697 9.5459 7.18994 9.85107 7.60498 9.85107L8.66699 9.85107L8.1543 12.3291L6.84814 12.3291C6.37207 12.3291 6.03027 12.6831 6.03027 13.147C6.03027 13.562 6.32324 13.8672 6.72607 13.8672L7.83691 13.8672L7.33643 16.272C7.23877 16.7725 7.60498 17.1997 8.10547 17.1997ZM9.74121 12.4756L10.3027 9.729L12.7686 9.729L12.1948 12.4756Z" fill="#5ac8f5"/>
 </g>
</svg>
