<?xml version="1.0" encoding="UTF-8"?>
<!--Generator: Apple Native CoreSVG 175.5-->
<!DOCTYPE svg
PUBLIC "-//W3C//DTD SVG 1.1//EN"
       "http://www.w3.org/Graphics/SVG/1.1/DTD/svg11.dtd">
<svg version="1.1" xmlns="http://www.w3.org/2000/svg" xmlns:xlink="http://www.w3.org/1999/xlink" width="22.4731" height="22.4976">
 <g>
  <rect height="22.4976" opacity="0" width="22.4731" x="0" y="0"/>
  <path d="M3.83301 22.4976L18.6401 22.4976C21.2036 22.4976 22.4731 21.228 22.4731 18.7134L22.4731 3.80859C22.4731 1.29395 21.2036 0.0244141 18.6401 0.0244141L3.83301 0.0244141C1.28174 0.0244141 0 1.28174 0 3.80859L0 18.7134C0 21.2402 1.28174 22.4976 3.83301 22.4976ZM3.85742 20.5322C2.63672 20.5322 1.96533 19.8853 1.96533 18.6157L1.96533 3.90625C1.96533 2.63672 2.63672 1.98975 3.85742 1.98975L18.6157 1.98975C19.8242 1.98975 20.5078 2.63672 20.5078 3.90625L20.5078 18.6157C20.5078 19.8853 19.8242 20.5322 18.6157 20.5322Z" fill="#5ac8f5" fill-opacity="0.5"/>
  <path d="M11.5112 17.1387C13.5864 17.1387 15.2222 16.2598 15.8569 14.4775C15.9302 14.2822 15.979 14.0747 15.979 13.855C15.979 13.4155 15.6738 13.1104 15.2344 13.1104C14.8193 13.1104 14.5752 13.3423 14.4409 13.7573C14.0991 15.0024 12.9028 15.6738 11.5601 15.6738C9.43604 15.6738 8.30078 13.6475 8.30078 11.2671C8.30078 8.88672 9.46045 6.88477 11.5601 6.88477C12.8052 6.88477 13.9771 7.58057 14.3555 8.83789C14.502 9.30176 14.7095 9.47266 15.1367 9.47266C15.6006 9.47266 15.8936 9.17969 15.8936 8.72803C15.8936 8.52051 15.8447 8.31299 15.7715 8.11768C15.1855 6.46973 13.4888 5.41992 11.5112 5.41992C8.55713 5.41992 6.66504 7.78809 6.66504 11.2671C6.66504 14.6362 8.39844 17.1387 11.5112 17.1387ZM5.68848 10.5957L11.7798 10.5957C12.1216 10.5957 12.3779 10.3271 12.3779 9.99756C12.3779 9.63135 12.1216 9.38721 11.7798 9.38721L5.68848 9.38721C5.34668 9.38721 5.10254 9.63135 5.10254 9.99756C5.10254 10.3271 5.34668 10.5957 5.68848 10.5957ZM5.68848 13.0737L11.7798 13.0737C12.1216 13.0737 12.3779 12.8052 12.3779 12.4634C12.3779 12.1094 12.1216 11.8652 11.7798 11.8652L5.68848 11.8652C5.34668 11.8652 5.10254 12.1094 5.10254 12.4634C5.10254 12.8052 5.34668 13.0737 5.68848 13.0737Z" fill="#5ac8f5"/>
 </g>
</svg>
