<?xml version="1.0" encoding="UTF-8"?>
<!--Generator: Apple Native CoreSVG 175.5-->
<!DOCTYPE svg
PUBLIC "-//W3C//DTD SVG 1.1//EN"
       "http://www.w3.org/Graphics/SVG/1.1/DTD/svg11.dtd">
<svg version="1.1" xmlns="http://www.w3.org/2000/svg" xmlns:xlink="http://www.w3.org/1999/xlink" width="17.1997" height="27.4831">
 <g>
  <rect height="27.4831" opacity="0" width="17.1997" x="0" y="0"/>
  <path d="M5.78613 26.7726L16.8823 12.5026C17.0898 12.2462 17.1997 12.0021 17.1997 11.7213C17.1997 11.2574 16.8335 10.9034 16.3208 10.9034L9.42383 10.9034L13.0615 1.40637C13.5498 0.149042 12.207-0.534552 11.4136 0.515253L0.317383 14.7731C0.109863 15.0416 0 15.2858 0 15.5543C0 16.0304 0.366211 16.3844 0.878906 16.3844L7.77588 16.3844L4.13818 25.8693C3.6499 27.1266 4.99268 27.8102 5.78613 26.7726ZM6.50635 23.4889L10.5957 14.5655L3.05176 14.5655L11.0229 3.98205L10.6812 3.79894L6.604 12.7223L14.1357 12.7223L6.16455 23.3058Z" fill="#5ac8f5"/>
 </g>
</svg>
