<?xml version="1.0" encoding="UTF-8"?>
<!--Generator: Apple Native CoreSVG 175.5-->
<!DOCTYPE svg
PUBLIC "-//W3C//DTD SVG 1.1//EN"
       "http://www.w3.org/Graphics/SVG/1.1/DTD/svg11.dtd">
<svg version="1.1" xmlns="http://www.w3.org/2000/svg" xmlns:xlink="http://www.w3.org/1999/xlink" width="31.8726" height="28.6011">
 <g>
  <rect height="28.6011" opacity="0" width="31.8726" x="0" y="0"/>
  <path d="M20.9351 27.71C24.9756 27.71 26.6724 27.1973 28.2837 25.6958C30.542 23.6328 31.8726 20.6299 31.8726 17.4561C31.8726 14.8438 30.9814 12.4146 29.248 10.4248C28.833 9.91211 28.4058 9.8877 27.9541 10.1929C26.3184 11.4502 24.5117 12.0972 20.9351 12.0972C17.3462 12.0972 15.5396 11.4502 13.9038 10.1929C13.4644 9.8877 13.0249 9.91211 12.6099 10.4248C10.8887 12.4146 9.98535 14.8438 9.98535 17.4561C9.98535 20.6299 11.3159 23.6328 13.5742 25.6958C15.1855 27.1973 16.8945 27.71 20.9351 27.71Z" fill="#5ac8f5" fill-opacity="0.5"/>
  <path d="M2.80762 21.3501L8.72803 21.3501C8.45947 20.4956 8.30078 19.7021 8.19092 18.7256C5.7251 18.6035 3.77197 16.5771 3.77197 14.0747C3.77197 11.5112 5.84717 9.42383 8.42285 9.42383C9.2041 9.42383 9.94873 9.63135 10.5835 9.97314C12.0972 7.99561 14.0869 6.92139 16.8213 6.38428L16.8213 2.83203C16.8213 0.976562 15.8569 0 14.0137 0L2.80762 0C0.964355 0 0 0.976562 0 2.83203L0 18.5181C0 20.3735 0.964355 21.3501 2.80762 21.3501ZM8.41064 7.76367C7.00684 7.76367 5.84717 6.61621 5.84717 5.2124C5.84717 3.80859 6.99463 2.66113 8.41064 2.66113C9.82666 2.66113 10.9741 3.80859 10.9741 5.2124C10.9741 6.61621 9.81445 7.76367 8.41064 7.76367ZM8.41064 6.50635C9.13086 6.50635 9.70459 5.92041 9.70459 5.2124C9.70459 4.50439 9.13086 3.93066 8.41064 3.93066C7.69043 3.93066 7.1167 4.50439 7.1167 5.2124C7.1167 5.92041 7.69043 6.50635 8.41064 6.50635ZM6.44531 14.0625C6.44531 15.1123 7.23877 15.9424 8.23975 16.0156C8.38623 14.6973 8.74023 13.4399 9.27734 12.2803C9.021 12.1582 8.72803 12.0972 8.42285 12.0972C7.32422 12.0972 6.44531 12.9761 6.44531 14.0625ZM20.9351 10.5591C23.9868 10.5591 26.1475 9.94873 26.1475 9.14307C26.1475 8.3252 23.9868 7.72705 20.9351 7.72705C17.8711 7.72705 15.7104 8.3252 15.7104 9.14307C15.7104 9.94873 17.8711 10.5591 20.9351 10.5591Z" fill="#5ac8f5"/>
 </g>
</svg>
