<?xml version="1.0" encoding="UTF-8"?>
<!--Generator: Apple Native CoreSVG 175.5-->
<!DOCTYPE svg
PUBLIC "-//W3C//DTD SVG 1.1//EN"
       "http://www.w3.org/Graphics/SVG/1.1/DTD/svg11.dtd">
<svg version="1.1" xmlns="http://www.w3.org/2000/svg" xmlns:xlink="http://www.w3.org/1999/xlink" width="24.9023" height="24.9146">
 <g>
  <rect height="24.9146" opacity="0" width="24.9023" x="0" y="0"/>
  <path d="M12.4512 24.9023C19.2627 24.9023 24.9023 19.2505 24.9023 12.4512C24.9023 5.63965 19.2505 0 12.439 0C5.63965 0 0 5.63965 0 12.4512C0 19.2505 5.65186 24.9023 12.4512 24.9023Z" fill="#5ac8f5" fill-opacity="0.25"/>
  <path d="M18.9209 12.439C18.9209 12.7197 18.811 12.9395 18.5669 13.1714L14.3188 17.4316C14.1479 17.6025 13.9282 17.7002 13.6597 17.7002C13.1348 17.7002 12.7441 17.2974 12.7441 16.7725C12.7441 16.5039 12.854 16.272 13.0249 16.1011L14.5874 14.5508L16.1133 13.2812L13.4521 13.3789L6.90918 13.3789C6.35986 13.3789 5.95703 12.9883 5.95703 12.439C5.95703 11.8774 6.35986 11.4868 6.90918 11.4868L13.4521 11.4868L16.1133 11.5967L14.5874 10.3271L13.0249 8.77686C12.8662 8.59375 12.7441 8.36182 12.7441 8.09326C12.7441 7.56836 13.1348 7.17773 13.6597 7.17773C13.9282 7.17773 14.1479 7.26318 14.3188 7.43408L18.5669 11.7065C18.8232 11.9629 18.9209 12.1582 18.9209 12.439Z" fill="#5ac8f5"/>
 </g>
</svg>
