<?xml version="1.0" encoding="UTF-8"?>
<!--Generator: Apple Native CoreSVG 175.5-->
<!DOCTYPE svg
PUBLIC "-//W3C//DTD SVG 1.1//EN"
       "http://www.w3.org/Graphics/SVG/1.1/DTD/svg11.dtd">
<svg version="1.1" xmlns="http://www.w3.org/2000/svg" xmlns:xlink="http://www.w3.org/1999/xlink" width="19.8853" height="23.932">
 <g>
  <rect height="23.932" opacity="0" width="19.8853" x="0" y="0"/>
  <path d="M0 11.9843C0 13.1684 1.02539 14.1694 2.23389 14.1694C3.44238 14.1694 4.44336 13.1684 4.44336 11.9599C4.44336 10.7392 3.4668 9.73822 2.23389 9.73822C1.01318 9.73822 0 10.7636 0 11.9843Z" fill="#5ac8f5"/>
  <path d="M6.86035 16.8793C7.26318 17.331 7.99561 17.3432 8.42285 16.7939C9.48486 15.4755 10.1074 13.8032 10.1074 12.0087C10.1074 10.2143 9.48486 8.52972 8.42285 7.22357C7.99561 6.66205 7.26318 6.67426 6.86035 7.13812C6.46973 7.57758 6.64062 8.11469 7.01904 8.6518C7.73926 9.56732 8.11768 10.7392 8.11768 12.0087C8.11768 13.2783 7.75146 14.4501 7.01904 15.3657C6.62842 15.8906 6.46973 16.4399 6.86035 16.8793Z" fill="#5ac8f5" fill-opacity="0.5"/>
  <path d="M10.2783 20.3583C10.6689 20.81 11.3525 20.81 11.8286 20.2973C13.855 18.1 14.9902 15.1703 14.9902 12.0087C14.9902 8.84711 13.8672 5.90521 11.8286 3.72015C11.3525 3.19525 10.6689 3.19525 10.2783 3.65912C9.8877 4.09857 10.0098 4.6723 10.4492 5.17279C12.0972 6.97943 13.0005 9.37201 13.0005 12.0087C13.0005 14.6332 12.085 17.0258 10.4492 18.8447C10.0098 19.3452 9.8877 19.9067 10.2783 20.3583Z" fill="#5ac8f5" fill-opacity="0.5"/>
  <path d="M13.8062 23.6054C14.1846 24.0204 14.8438 24.0693 15.3076 23.581C18.2129 20.5414 19.8853 16.4643 19.8853 12.0087C19.8853 7.55316 18.2373 3.43939 15.3076 0.424256C14.8438-0.0640251 14.1846-0.015197 13.8062 0.399842C13.4277 0.827088 13.5132 1.42523 13.9526 1.8891C16.5039 4.51361 17.8955 8.09027 17.8955 12.0087C17.8955 15.9272 16.4795 19.4672 13.9526 22.1162C13.5132 22.58 13.4277 23.1904 13.8062 23.6054Z" fill="#5ac8f5" fill-opacity="0.5"/>
 </g>
</svg>
