<?xml version="1.0" encoding="UTF-8"?>
<!--Generator: Apple Native CoreSVG 175.5-->
<!DOCTYPE svg
PUBLIC "-//W3C//DTD SVG 1.1//EN"
       "http://www.w3.org/Graphics/SVG/1.1/DTD/svg11.dtd">
<svg version="1.1" xmlns="http://www.w3.org/2000/svg" xmlns:xlink="http://www.w3.org/1999/xlink" width="26.5565" height="26.8982">
 <g>
  <rect height="26.8982" opacity="0" width="26.5565" x="0" y="0"/>
  <path d="M18.4479 1.67542L25.2228 8.46252L25.2838 8.40149C27.1149 6.58264 26.9073 3.68958 25.0641 1.85852C23.2208 0.0152588 20.3278-0.192261 18.5089 1.61438ZM2.35901 22.2321L4.66614 24.5392L6.19202 23.0133C9.26819 19.9493 12.8693 20.8282 16.0797 17.6178L24.2462 9.45129L17.4469 2.65198L9.2804 10.8307C5.92346 14.1876 6.96106 17.63 3.88489 20.7062ZM13.2477 13.7115C12.4542 12.9181 12.4786 11.673 13.2477 10.9039L16.9342 7.19299C17.7032 6.42395 18.9484 6.39954 19.7052 7.19299C20.4987 7.93762 20.4987 9.17053 19.7052 9.96399L16.0187 13.6871C15.2496 14.4562 14.0045 14.4684 13.2477 13.7115ZM10.5988 14.9078C10.257 14.5905 10.3302 14.1388 10.5988 13.858C10.8795 13.5651 11.3068 13.5406 11.6364 13.858L13.0524 15.2618C13.382 15.5792 13.3331 16.0309 13.0524 16.3239C12.7838 16.5924 12.3444 16.629 12.0026 16.2994ZM14.1266 12.8082C14.4318 13.1134 14.8834 13.1989 15.213 12.8815L18.9117 9.15833C19.2413 8.82874 19.1437 8.37708 18.8385 8.08411C18.5089 7.77893 18.045 7.74231 17.7155 8.0719L14.1266 11.673C13.8092 11.9904 13.8092 12.4908 14.1266 12.8082ZM0.540161 26.358C1.23596 27.0782 2.1637 27.0782 2.8717 26.358L3.50647 25.7355L1.17493 23.4039L0.540161 24.0387C-0.180054 24.7589-0.180054 25.6744 0.540161 26.358Z" fill="#5ac8f5"/>
 </g>
</svg>
