<?xml version="1.0" encoding="UTF-8"?>
<!--Generator: Apple Native CoreSVG 175.5-->
<!DOCTYPE svg
PUBLIC "-//W3C//DTD SVG 1.1//EN"
       "http://www.w3.org/Graphics/SVG/1.1/DTD/svg11.dtd">
<svg version="1.1" xmlns="http://www.w3.org/2000/svg" xmlns:xlink="http://www.w3.org/1999/xlink" width="22.4731" height="22.4976">
 <g>
  <rect height="22.4976" opacity="0" width="22.4731" x="0" y="0"/>
  <path d="M3.83301 22.4976L18.6401 22.4976C21.2036 22.4976 22.4731 21.228 22.4731 18.7134L22.4731 3.80859C22.4731 1.29395 21.2036 0.0244141 18.6401 0.0244141L3.83301 0.0244141C1.28174 0.0244141 0 1.28174 0 3.80859L0 18.7134C0 21.2402 1.28174 22.4976 3.83301 22.4976Z" fill="#5ac8f5" fill-opacity="0.25"/>
  <path d="M5.57861 16.3818C5.12695 16.3818 4.83398 16.0889 4.83398 15.6372C4.83398 15.3809 4.91943 15.1733 5.11475 14.9536L8.43506 11.0596C9.0332 10.3516 9.69238 9.64355 9.69238 8.82568C9.69238 7.89795 9.04541 7.27539 8.02002 7.27539C7.1167 7.27539 6.49414 7.73926 6.17676 8.6792C6.00586 9.05762 5.81055 9.26514 5.45654 9.26514C5.01709 9.26514 4.74854 8.97217 4.74854 8.5083C4.74854 8.36182 4.77295 8.21533 4.79736 8.05664C5.12695 6.7749 6.45752 5.82275 7.95898 5.82275C9.93652 5.82275 11.2183 6.93359 11.2183 8.69141C11.2183 9.94873 10.5347 10.8521 9.59473 11.9385L7.14111 14.8071L7.14111 14.8926L10.791 14.8926C11.1816 14.8926 11.4868 15.1611 11.4868 15.625C11.4868 16.0767 11.1816 16.3818 10.791 16.3818ZM16.5405 16.5161C16.0645 16.5161 15.7593 16.2109 15.7593 15.7104L15.7593 7.91016L15.686 7.91016L14.3433 8.89893C14.0625 9.11865 13.9404 9.13086 13.7329 9.13086C13.3667 9.13086 13.0127 8.80127 13.0127 8.37402C13.0127 8.04443 13.1714 7.82471 13.4399 7.62939L15.3442 6.32324C15.7837 6.01807 16.04 5.896 16.4551 5.896C16.98 5.896 17.3462 6.27441 17.3462 6.79932L17.3462 15.7104C17.3462 16.2109 17.0288 16.5161 16.5405 16.5161Z" fill="#5ac8f5"/>
 </g>
</svg>
