<?xml version="1.0" encoding="UTF-8"?>
<!--Generator: Apple Native CoreSVG 175.5-->
<!DOCTYPE svg
PUBLIC "-//W3C//DTD SVG 1.1//EN"
       "http://www.w3.org/Graphics/SVG/1.1/DTD/svg11.dtd">
<svg version="1.1" xmlns="http://www.w3.org/2000/svg" xmlns:xlink="http://www.w3.org/1999/xlink" width="26.9165" height="25.647">
 <g>
  <rect height="25.647" opacity="0" width="26.9165" x="0" y="0"/>
  <path d="M8.59375 25.647C13.3423 25.647 17.1875 21.7896 17.1875 17.041C17.1875 12.3169 13.3301 8.45947 8.59375 8.45947C3.85742 8.45947 0 12.3169 0 17.041C0 21.7896 3.85742 25.647 8.59375 25.647ZM8.59375 23.6938C4.91943 23.6938 1.95312 20.7275 1.95312 17.041C1.95312 13.3911 4.91943 10.4126 8.59375 10.4126C12.2559 10.4126 15.2344 13.3789 15.2344 17.041C15.2344 20.7153 12.2559 23.6938 8.59375 23.6938ZM13.4644 17.2607C18.2007 17.2607 22.0459 13.4155 22.0459 8.66699C22.0459 3.93066 18.2007 0.0732422 13.4644 0.0732422C8.71582 0.0732422 4.8584 3.93066 4.8584 8.66699C4.8584 13.4155 8.71582 17.2607 13.4644 17.2607ZM13.4644 15.3076C9.79004 15.3076 6.81152 12.3413 6.81152 8.66699C6.81152 5.00488 9.79004 2.02637 13.4644 2.02637C17.1143 2.02637 20.0928 5.00488 20.0928 8.66699C20.0928 12.3413 17.1265 15.3076 13.4644 15.3076ZM18.335 25.647C23.0591 25.647 26.9165 21.7896 26.9165 17.041C26.9165 12.3169 23.0591 8.45947 18.335 8.45947C13.5864 8.45947 9.729 12.3169 9.729 17.041C9.729 21.7896 13.5864 25.647 18.335 25.647ZM18.335 23.6938C14.6606 23.6938 11.6821 20.7275 11.6821 17.041C11.6821 13.3911 14.6606 10.4126 18.335 10.4126C21.9849 10.4126 24.9634 13.3789 24.9634 17.041C24.9634 20.7153 22.0093 23.6938 18.335 23.6938Z" fill="#5ac8f5"/>
 </g>
</svg>
