<?xml version="1.0" encoding="UTF-8"?>
<!--Generator: Apple Native CoreSVG 175.5-->
<!DOCTYPE svg
PUBLIC "-//W3C//DTD SVG 1.1//EN"
       "http://www.w3.org/Graphics/SVG/1.1/DTD/svg11.dtd">
<svg version="1.1" xmlns="http://www.w3.org/2000/svg" xmlns:xlink="http://www.w3.org/1999/xlink" width="24.9023" height="24.9146">
 <g>
  <rect height="24.9146" opacity="0" width="24.9023" x="0" y="0"/>
  <path d="M12.4512 24.9023C19.2627 24.9023 24.9023 19.2505 24.9023 12.4512C24.9023 5.63965 19.2505 0 12.439 0C5.63965 0 0 5.63965 0 12.4512C0 19.2505 5.65186 24.9023 12.4512 24.9023ZM12.4634 18.3472C11.6943 18.3472 11.2915 18.0176 10.9619 17.1631L7.42188 7.94678C7.36084 7.75146 7.32422 7.60498 7.32422 7.42188C7.32422 6.86035 7.75146 6.45752 8.34961 6.45752C8.91113 6.45752 9.21631 6.72607 9.42383 7.32422L12.4023 15.9302L12.4878 15.9302L15.4663 7.32422C15.686 6.72607 15.979 6.45752 16.5405 6.45752C17.1387 6.45752 17.5659 6.84814 17.5659 7.42188C17.5659 7.60498 17.5415 7.75146 17.4683 7.94678L13.9526 17.1387C13.6353 17.9688 13.1836 18.3472 12.4634 18.3472Z" fill="#5ac8f5"/>
 </g>
</svg>
