<?xml version="1.0" encoding="UTF-8"?>
<!--Generator: Apple Native CoreSVG 175.5-->
<!DOCTYPE svg
PUBLIC "-//W3C//DTD SVG 1.1//EN"
       "http://www.w3.org/Graphics/SVG/1.1/DTD/svg11.dtd">
<svg version="1.1" xmlns="http://www.w3.org/2000/svg" xmlns:xlink="http://www.w3.org/1999/xlink" width="26.9043" height="26.8188">
 <g>
  <rect height="26.8188" opacity="0" width="26.9043" x="0" y="0"/>
  <path d="M7.50732 26.8188C8.10547 26.8188 8.52051 26.5015 9.26514 25.8423L13.4766 22.0947L21.3135 22.0947C24.9512 22.0947 26.9043 20.0806 26.9043 16.5039L26.9043 7.15332C26.9043 3.57666 24.9512 1.5625 21.3135 1.5625L5.59082 1.5625C1.95312 1.5625 0 3.56445 0 7.15332L0 16.5039C0 20.0928 1.95312 22.0947 5.59082 22.0947L6.17676 22.0947L6.17676 25.2686C6.17676 26.2085 6.65283 26.8188 7.50732 26.8188ZM8.00781 24.585L8.00781 21.0449C8.00781 20.3857 7.75146 20.1294 7.09229 20.1294L5.59082 20.1294C3.125 20.1294 1.96533 18.8721 1.96533 16.4917L1.96533 7.15332C1.96533 4.77295 3.125 3.52783 5.59082 3.52783L21.3135 3.52783C23.7671 3.52783 24.939 4.77295 24.939 7.15332L24.939 16.4917C24.939 18.8721 23.7671 20.1294 21.3135 20.1294L13.4033 20.1294C12.7197 20.1294 12.3779 20.2271 11.9141 20.7031ZM5.7373 13.2446L10.7666 13.2446C11.1572 13.2446 11.4746 12.9272 11.4746 12.5244C11.4746 12.146 11.1572 11.8286 10.7666 11.8286L5.7373 11.8286C5.34668 11.8286 5.0293 12.146 5.0293 12.5244C5.0293 12.9272 5.34668 13.2446 5.7373 13.2446ZM13.2935 13.2446L21.1914 13.2446C21.582 13.2446 21.8872 12.9272 21.8872 12.5244C21.8872 12.146 21.582 11.8286 21.1914 11.8286L13.2935 11.8286C12.9028 11.8286 12.5854 12.146 12.5854 12.5244C12.5854 12.9272 12.9028 13.2446 13.2935 13.2446ZM5.7373 16.4307L7.8125 16.4307C8.20312 16.4307 8.5083 16.1255 8.5083 15.7349C8.5083 15.332 8.20312 15.0146 7.8125 15.0146L5.7373 15.0146C5.34668 15.0146 5.0293 15.332 5.0293 15.7349C5.0293 16.1255 5.34668 16.4307 5.7373 16.4307ZM10.3271 16.4307L16.4429 16.4307C16.8335 16.4307 17.1509 16.1255 17.1509 15.7349C17.1509 15.332 16.8335 15.0146 16.4429 15.0146L10.3271 15.0146C9.93652 15.0146 9.63135 15.332 9.63135 15.7349C9.63135 16.1255 9.93652 16.4307 10.3271 16.4307ZM18.9697 16.4307L21.1914 16.4307C21.582 16.4307 21.8872 16.1255 21.8872 15.7349C21.8872 15.332 21.582 15.0146 21.1914 15.0146L18.9697 15.0146C18.5791 15.0146 18.2617 15.332 18.2617 15.7349C18.2617 16.1255 18.5791 16.4307 18.9697 16.4307Z" fill="#5ac8f5"/>
 </g>
</svg>
