<?xml version="1.0" encoding="UTF-8"?>
<!--Generator: Apple Native CoreSVG 175.5-->
<!DOCTYPE svg
PUBLIC "-//W3C//DTD SVG 1.1//EN"
       "http://www.w3.org/Graphics/SVG/1.1/DTD/svg11.dtd">
<svg version="1.1" xmlns="http://www.w3.org/2000/svg" xmlns:xlink="http://www.w3.org/1999/xlink" width="24.6826" height="30.3101">
 <g>
  <rect height="30.3101" opacity="0" width="24.6826" x="0" y="0"/>
  <path d="M12.3413 28.4302C20.0195 28.4302 24.6826 26.2817 24.6826 21.1792L24.6826 16.3086L22.7173 16.3086L22.7173 21.1792C22.7173 25.061 18.7988 26.4648 12.3413 26.4648C5.88379 26.4648 1.96533 25.061 1.96533 21.1792L1.96533 16.3086L0 16.3086L0 21.1792C0 26.2817 4.65088 28.4302 12.3413 28.4302ZM5.2002 22.6196L5.2002 20.3369L3.60107 20.3369L3.60107 22.6196C3.60107 23.0591 3.96729 23.4253 4.40674 23.4253C4.84619 23.4253 5.2002 23.0591 5.2002 22.6196ZM8.94775 23.4497L8.94775 21.167L7.34863 21.167L7.34863 23.4497C7.34863 23.8892 7.70264 24.2554 8.14209 24.2554C8.58154 24.2554 8.94775 23.8892 8.94775 23.4497ZM12.9883 23.7671L12.9883 21.4844L11.3892 21.4844L11.3892 23.7671C11.3892 24.2065 11.7554 24.5605 12.1948 24.5605C12.6343 24.5605 12.9883 24.2065 12.9883 23.7671ZM17.041 23.4497L17.041 21.167L15.4419 21.167L15.4419 23.4497C15.4419 23.8892 15.8081 24.2554 16.2476 24.2554C16.687 24.2554 17.041 23.8892 17.041 23.4497ZM20.7886 22.6196L20.7886 20.3369L19.1895 20.3369L19.1895 22.6196C19.1895 23.0591 19.5435 23.4253 19.9829 23.4253C20.4224 23.4253 20.7886 23.0591 20.7886 22.6196ZM13.0859 13.0859L16.3574 9.39941C17.0044 8.6792 16.6382 7.6416 15.6006 7.6416L13.3911 7.6416L13.3911 1.0376C13.3911 0.45166 12.9272 0 12.3535 0C11.7554 0 11.3037 0.45166 11.3037 1.0376L11.3037 7.6416L9.06982 7.6416C8.06885 7.6416 7.6416 8.64258 8.30078 9.39941L11.5845 13.0859C12.0239 13.5986 12.6343 13.5986 13.0859 13.0859ZM22.7173 16.3086C22.7173 18.6768 18.5669 20.2881 12.3413 20.2881C6.11572 20.2881 1.96533 18.6768 1.96533 16.3086C1.96533 14.4165 4.62646 13.0127 8.87451 12.5366L7.32422 10.8154C2.79541 11.6333 0 13.6475 0 16.3086C0 19.873 4.93164 22.2534 12.3413 22.2534C19.7388 22.2534 24.6826 19.873 24.6826 16.3086C24.6826 13.6475 21.875 11.6333 17.3462 10.8154L15.8081 12.5366C20.0439 13.0127 22.7173 14.4043 22.7173 16.3086Z" fill="#5ac8f5"/>
 </g>
</svg>
