<?xml version="1.0" encoding="UTF-8"?>
<!--Generator: Apple Native CoreSVG 175.5-->
<!DOCTYPE svg
PUBLIC "-//W3C//DTD SVG 1.1//EN"
       "http://www.w3.org/Graphics/SVG/1.1/DTD/svg11.dtd">
<svg version="1.1" xmlns="http://www.w3.org/2000/svg" xmlns:xlink="http://www.w3.org/1999/xlink" width="28.7842" height="27.834">
 <g>
  <rect height="27.834" opacity="0" width="28.7842" x="0" y="0"/>
  <path d="M0 21.3816C0 23.9084 1.28174 25.1658 3.83301 25.1658L24.9512 25.1658C27.5146 25.1658 28.7842 23.8962 28.7842 21.3816L28.7842 6.47679C28.7842 3.96215 27.5146 2.69261 24.9512 2.69261L16.4062 2.69261C15.8691 2.69261 15.4175 3.13207 15.4175 3.66918C15.4175 4.20629 15.8691 4.65795 16.4062 4.65795L24.9268 4.65795C26.1353 4.65795 26.8188 5.30492 26.8188 6.57445L26.8188 21.2839C26.8188 22.5535 26.1353 23.2004 24.9268 23.2004L3.85742 23.2004C2.63672 23.2004 1.96533 22.5535 1.96533 21.2839L1.96533 6.57445C1.96533 5.30492 2.63672 4.65795 3.85742 4.65795L6.95801 4.65795L6.95801 6.46459C6.95801 7.33129 7.55615 7.56322 8.22754 7.08715L12.1216 4.35277C12.6709 3.96215 12.6831 3.37621 12.1216 2.98558L8.23975 0.251208C7.55615-0.237073 6.95801-0.00513969 6.95801 0.873767L6.95801 2.69261L3.83301 2.69261C1.28174 2.69261 0 3.94994 0 6.47679Z" fill="#5ac8f5"/>
 </g>
</svg>
