<?xml version="1.0" encoding="UTF-8"?>
<!--Generator: Apple Native CoreSVG 175.5-->
<!DOCTYPE svg
PUBLIC "-//W3C//DTD SVG 1.1//EN"
       "http://www.w3.org/Graphics/SVG/1.1/DTD/svg11.dtd">
<svg version="1.1" xmlns="http://www.w3.org/2000/svg" xmlns:xlink="http://www.w3.org/1999/xlink" width="25.7726" height="29.176">
 <g>
  <rect height="29.176" opacity="0" width="25.7726" x="0" y="0"/>
  <path d="M1.44972 27.5335C3.35401 29.45 5.81984 29.4745 7.69972 27.5946C9.20118 26.0931 10.6538 22.6996 11.7647 21.0028L14.7188 23.9691C15.6221 24.8846 16.7207 24.8846 17.5752 24.0057L18.625 22.9559C19.5161 22.0526 19.5039 21.0272 18.5884 20.1117L8.8838 10.3949C7.95607 9.47934 6.91847 9.46713 6.02735 10.3582L4.97755 11.4081C4.09864 12.287 4.09864 13.349 5.01417 14.2645L7.96827 17.2186C6.2837 18.3294 2.90235 19.7821 1.38868 21.2835C-0.478993 23.1634-0.466786 25.6414 1.44972 27.5335ZM4.709 25.9466C3.86671 25.9466 3.19532 25.263 3.19532 24.433C3.19532 23.6029 3.86671 22.9315 4.709 22.9315C5.53907 22.9315 6.21046 23.6029 6.21046 24.433C6.21046 25.263 5.53907 25.9466 4.709 25.9466ZM20.041 19.5501L24.7774 14.8138C26.1323 13.4588 26.0957 11.8475 24.7163 10.4437L24.0938 9.80893C22.8242 11.4569 19.1987 13.3856 18.5029 12.6898C18.3931 12.5799 18.3809 12.3602 18.5396 12.1893C20.0166 10.7123 20.981 9.27182 21.2007 6.92807L14.9263 0.641449C13.7666-0.518219 11.7525-0.139801 11.2031 2.05747C10.4341 5.18247 9.73829 7.00131 8.98146 8.50278Z" fill="#5ac8f5"/>
 </g>
</svg>
