<?xml version="1.0" encoding="UTF-8"?>
<!--Generator: Apple Native CoreSVG 175.5-->
<!DOCTYPE svg
PUBLIC "-//W3C//DTD SVG 1.1//EN"
       "http://www.w3.org/Graphics/SVG/1.1/DTD/svg11.dtd">
<svg version="1.1" xmlns="http://www.w3.org/2000/svg" xmlns:xlink="http://www.w3.org/1999/xlink" width="24.9023" height="24.9146">
 <g>
  <rect height="24.9146" opacity="0" width="24.9023" x="0" y="0"/>
  <path d="M12.4512 24.9023C19.2627 24.9023 24.9023 19.2505 24.9023 12.4512C24.9023 5.63965 19.2505 0 12.439 0C5.63965 0 0 5.63965 0 12.4512C0 19.2505 5.65186 24.9023 12.4512 24.9023ZM12.4512 22.8271C6.68945 22.8271 2.0874 18.2129 2.0874 12.4512C2.0874 6.68945 6.67725 2.0752 12.439 2.0752C18.2007 2.0752 22.8271 6.68945 22.8271 12.4512C22.8271 18.2129 18.2129 22.8271 12.4512 22.8271Z" fill="#5ac8f5" fill-opacity="0.5"/>
  <path d="M7.88574 19.1284L16.3208 19.1284C16.7358 19.1284 17.041 18.9941 17.3096 18.689L19.1772 16.5771C19.5923 16.1133 19.2871 15.4541 18.6279 15.4541L12.8662 15.4541L12.8662 13.916L14.6973 13.916C16.4917 13.916 17.5781 12.9517 17.5781 11.4014C17.5781 9.16748 15.271 6.57959 12.8662 5.24902L12.8662 4.65088C12.8662 4.3457 12.6221 4.10156 12.3047 4.10156C11.9995 4.10156 11.7554 4.3457 11.7554 4.65088L11.7554 5.15137C11.7554 7.18994 9.8999 10.8643 7.22656 12.793C6.65283 13.2202 6.97021 13.916 7.54395 13.916L11.7554 13.916L11.7554 15.4541L6.7749 15.4541C6.20117 15.4541 5.9082 15.8691 6.09131 16.4673L6.61621 18.2739C6.7749 18.811 7.17773 19.1284 7.88574 19.1284ZM12.854 12.8784L12.854 6.40869C13.5986 7.12891 14.209 8.58154 14.209 10.0098C14.209 11.1084 13.7817 12.2314 12.854 12.8784Z" fill="#5ac8f5"/>
 </g>
</svg>
