<?xml version="1.0" encoding="UTF-8"?>
<!--Generator: Apple Native CoreSVG 175.5-->
<!DOCTYPE svg
PUBLIC "-//W3C//DTD SVG 1.1//EN"
       "http://www.w3.org/Graphics/SVG/1.1/DTD/svg11.dtd">
<svg version="1.1" xmlns="http://www.w3.org/2000/svg" xmlns:xlink="http://www.w3.org/1999/xlink" width="24.9023" height="24.9146">
 <g>
  <rect height="24.9146" opacity="0" width="24.9023" x="0" y="0"/>
  <path d="M12.4512 24.9023C19.2627 24.9023 24.9023 19.2505 24.9023 12.4512C24.9023 5.63965 19.2505 0 12.439 0C5.63965 0 0 5.63965 0 12.4512C0 19.2505 5.65186 24.9023 12.4512 24.9023ZM5.98145 13.4888C5.32227 12.8296 5.29785 12.085 5.95703 11.4136L11.4136 5.96924C12.085 5.29785 12.8174 5.32227 13.4888 5.99365L18.8965 11.4014C19.5801 12.0728 19.6045 12.8052 18.9209 13.4888L13.4766 18.9331C12.8052 19.6045 12.0728 19.5801 11.4014 18.9087Z" fill="#5ac8f5"/>
 </g>
</svg>
