<?xml version="1.0" encoding="UTF-8"?>
<!--Generator: Apple Native CoreSVG 175.5-->
<!DOCTYPE svg
PUBLIC "-//W3C//DTD SVG 1.1//EN"
       "http://www.w3.org/Graphics/SVG/1.1/DTD/svg11.dtd">
<svg version="1.1" xmlns="http://www.w3.org/2000/svg" xmlns:xlink="http://www.w3.org/1999/xlink" width="29.5166" height="22.4976">
 <g>
  <rect height="22.4976" opacity="0" width="29.5166" x="0" y="0"/>
  <path d="M10.498 22.4976L19.0308 22.4976C26.2939 22.4976 29.5166 19.165 29.5166 12.3169L29.5166 3.80859C29.5166 1.29395 28.2349 0.0244141 25.6836 0.0244141L3.83301 0.0244141C1.28174 0.0244141 0 1.28174 0 3.80859L0 12.3169C0 19.165 3.22266 22.4976 10.498 22.4976Z" fill="#5ac8f5" fill-opacity="0.25"/>
  <path d="M12.4268 16.9067C11.7676 16.9067 11.4258 16.4307 11.4258 15.7593L11.4258 6.4209C11.4258 5.7373 11.7676 5.27344 12.4268 5.27344C13.0859 5.27344 13.4521 5.71289 13.4521 6.4209L13.4521 15.2466L18.2129 15.2466C18.7134 15.2466 19.0674 15.5518 19.0674 16.0645C19.0674 16.5894 18.7134 16.9067 18.2129 16.9067Z" fill="#5ac8f5"/>
 </g>
</svg>
