<?xml version="1.0" encoding="UTF-8"?>
<!--Generator: Apple Native CoreSVG 175.5-->
<!DOCTYPE svg
PUBLIC "-//W3C//DTD SVG 1.1//EN"
       "http://www.w3.org/Graphics/SVG/1.1/DTD/svg11.dtd">
<svg version="1.1" xmlns="http://www.w3.org/2000/svg" xmlns:xlink="http://www.w3.org/1999/xlink" width="16.6626" height="24.5972">
 <g>
  <rect height="24.5972" opacity="0" width="16.6626" x="0" y="0"/>
  <path d="M2.74658 23.9502L13.916 23.9502C15.7104 23.9502 16.6626 22.9736 16.6626 21.0449L16.6626 12.6343C16.6626 10.7056 15.7104 9.74121 13.916 9.74121L2.74658 9.74121C0.952148 9.74121 0 10.7056 0 12.6343L0 21.0449C0 22.9736 0.952148 23.9502 2.74658 23.9502ZM2.13623 10.6812L4.07715 10.6812L4.07715 6.55518C4.07715 3.479 6.04248 1.84326 8.3252 1.84326C10.6079 1.84326 12.5977 3.479 12.5977 6.55518L12.5977 10.6812L14.5264 10.6812L14.5264 6.82373C14.5264 2.23389 11.5234 0 8.3252 0C5.13916 0 2.13623 2.23389 2.13623 6.82373Z" fill="#5ac8f5"/>
 </g>
</svg>
