<?xml version="1.0" encoding="UTF-8"?>
<!--Generator: Apple Native CoreSVG 175.5-->
<!DOCTYPE svg
PUBLIC "-//W3C//DTD SVG 1.1//EN"
       "http://www.w3.org/Graphics/SVG/1.1/DTD/svg11.dtd">
<svg version="1.1" xmlns="http://www.w3.org/2000/svg" xmlns:xlink="http://www.w3.org/1999/xlink" width="21.2524" height="30.5054">
 <g>
  <rect height="30.5054" opacity="0" width="21.2524" x="0" y="0"/>
  <path d="M0 25.2808C0 26.9043 0.915527 27.8198 2.52686 27.8198L6.71387 27.8198C8.3252 27.8198 9.25293 26.9043 9.25293 25.2686L9.25293 5.18799C9.25293 3.55225 8.3252 2.63672 6.71387 2.63672L2.52686 2.63672C0.915527 2.63672 0 3.55225 0 5.17578ZM1.92871 3.54004L3.54004 3.54004L3.54004 0.805664C3.54004 0.354004 3.17383 0 2.72217 0C2.27051 0 1.92871 0.354004 1.92871 0.805664ZM5.71289 3.54004L7.32422 3.54004L7.32422 0.805664C7.32422 0.354004 6.97021 0 6.51855 0C6.06689 0 5.71289 0.354004 5.71289 0.805664ZM4.62646 8.36182C3.9917 8.36182 3.49121 7.84912 3.49121 7.21436C3.49121 6.57959 3.9917 6.06689 4.62646 6.06689C5.26123 6.06689 5.77393 6.57959 5.77393 7.21436C5.77393 7.84912 5.26123 8.36182 4.62646 8.36182ZM4.62646 12.3657C3.9917 12.3657 3.49121 11.8652 3.49121 11.2305C3.49121 10.5835 3.9917 10.083 4.62646 10.083C5.26123 10.083 5.77393 10.5835 5.77393 11.2305C5.77393 11.8652 5.26123 12.3657 4.62646 12.3657ZM4.62646 16.3696C3.9917 16.3696 3.49121 15.8691 3.49121 15.2344C3.49121 14.5996 3.9917 14.0991 4.62646 14.0991C5.26123 14.0991 5.77393 14.5996 5.77393 15.2344C5.77393 15.8691 5.26123 16.3696 4.62646 16.3696ZM4.62646 20.3979C3.9917 20.3979 3.49121 19.8853 3.49121 19.2505C3.49121 18.6157 3.9917 18.103 4.62646 18.103C5.26123 18.103 5.77393 18.6157 5.77393 19.2505C5.77393 19.8853 5.26123 20.3979 4.62646 20.3979ZM4.62646 24.4019C3.9917 24.4019 3.49121 23.9014 3.49121 23.2544C3.49121 22.6196 3.9917 22.1191 4.62646 22.1191C5.26123 22.1191 5.77393 22.6196 5.77393 23.2544C5.77393 23.9014 5.26123 24.4019 4.62646 24.4019ZM11.9873 25.3174C11.9873 26.9409 12.9028 27.8564 14.5264 27.8564L18.7012 27.8564C20.3247 27.8564 21.2524 26.9409 21.2524 25.3052L21.2524 5.22461C21.2524 3.58887 20.3247 2.67334 18.7012 2.67334L14.5264 2.67334C12.9028 2.67334 11.9873 3.58887 11.9873 5.2124ZM13.916 26.9531L13.916 29.6875C13.916 30.1392 14.27 30.481 14.7217 30.481C15.1733 30.481 15.5273 30.1392 15.5273 29.6875L15.5273 26.9531ZM17.7124 26.9531L17.7124 29.6875C17.7124 30.1392 18.0542 30.481 18.5059 30.481C18.9575 30.481 19.3237 30.1392 19.3237 29.6875L19.3237 26.9531ZM16.6138 8.37402C15.979 8.37402 15.4785 7.86133 15.4785 7.22656C15.4785 6.5918 15.979 6.0791 16.6138 6.0791C17.2607 6.0791 17.7612 6.5918 17.7612 7.22656C17.7612 7.86133 17.2607 8.37402 16.6138 8.37402ZM16.6138 12.3901C15.979 12.3901 15.4785 11.8774 15.4785 11.2427C15.4785 10.6079 15.979 10.0952 16.6138 10.0952C17.2607 10.0952 17.7612 10.6079 17.7612 11.2427C17.7612 11.8774 17.2607 12.3901 16.6138 12.3901ZM16.6138 16.394C15.979 16.394 15.4785 15.8936 15.4785 15.2588C15.4785 14.624 15.979 14.1113 16.6138 14.1113C17.2607 14.1113 17.7612 14.624 17.7612 15.2588C17.7612 15.8936 17.2607 16.394 16.6138 16.394ZM16.6138 20.4102C15.979 20.4102 15.4785 19.8975 15.4785 19.2627C15.4785 18.6279 15.979 18.1274 16.6138 18.1274C17.2607 18.1274 17.7612 18.6279 17.7612 19.2627C17.7612 19.8975 17.2607 20.4102 16.6138 20.4102ZM16.6138 24.4263C15.979 24.4263 15.4785 23.9136 15.4785 23.2788C15.4785 22.644 15.979 22.1313 16.6138 22.1313C17.2607 22.1313 17.7612 22.644 17.7612 23.2788C17.7612 23.9136 17.2607 24.4263 16.6138 24.4263Z" fill="#5ac8f5"/>
 </g>
</svg>
