<?xml version="1.0" encoding="UTF-8"?>
<!--Generator: Apple Native CoreSVG 175.5-->
<!DOCTYPE svg
PUBLIC "-//W3C//DTD SVG 1.1//EN"
       "http://www.w3.org/Graphics/SVG/1.1/DTD/svg11.dtd">
<svg version="1.1" xmlns="http://www.w3.org/2000/svg" xmlns:xlink="http://www.w3.org/1999/xlink" width="34.4229" height="27.2264">
 <g>
  <rect height="27.2264" opacity="0" width="34.4229" x="0" y="0"/>
  <path d="M14.2691 7.174L16.0147 6.82C15.8194 5.53826 15.502 4.48845 14.5987 3.12127C14.4889 2.95037 14.5133 2.77947 14.6598 2.73064C18.5416 1.40007 23.5587 3.29216 24.6329 7.30828L26.464 7.08855C25.17 1.48552 17.8336-1.1634 12.7555 1.64421C12.1451 1.9738 12.023 2.62078 12.5235 3.27996C13.7564 4.90349 14.025 5.73357 14.2691 7.174ZM20.0797 22.86C25.7193 22.86 34.4229 19.1613 34.4229 14.1442C34.4229 9.13933 25.7193 5.4406 20.0797 5.4406C16.1002 5.4406 12.0475 6.82 8.75156 10.0182C6.60312 7.58904 4.10068 6.23406 1.1832 6.18523C0.572846 6.17302 0.0845652 6.56365 0.0357371 7.18621C-0.220611 9.72527 0.92685 12.4719 2.68466 14.1442C0.92685 15.8288-0.220611 18.5876 0.0357371 21.1144C0.0845652 21.737 0.572846 22.1276 1.1832 22.1154C4.10068 22.0666 6.60312 20.7116 8.75156 18.2946C12.0475 21.4806 16.1002 22.86 20.0797 22.86ZM20.0797 20.8947C16.1612 20.8947 12.4259 19.5153 9.36191 16.0973C8.95908 15.6457 8.39755 15.6579 7.99472 16.1462C6.21249 18.3556 4.4791 19.6618 2.35507 20.028C2.14755 20.0646 1.97666 19.8937 2.01328 19.674C2.2208 17.7697 3.34384 16.0119 4.74765 14.9011C5.38242 14.3639 5.39462 13.9367 4.73544 13.3874C3.34384 12.2765 2.2208 10.5309 2.01328 8.62664C1.97666 8.41912 2.14755 8.23601 2.35507 8.27263C4.4791 8.63884 6.21249 9.945 7.99472 12.1545C8.39755 12.655 8.95908 12.6672 9.3497 12.2155C12.4259 8.78533 16.1612 7.40593 20.0797 7.40593C25.2799 7.40593 32.4942 10.7873 32.4942 14.1442C32.4942 17.5134 25.2799 20.8947 20.0797 20.8947ZM27.6602 14.8888C28.3683 14.8888 28.9542 14.3029 28.9542 13.6071C28.9542 12.9113 28.3683 12.3254 27.6602 12.3254C26.9644 12.3254 26.3785 12.9113 26.3785 13.6071C26.3785 14.3029 26.9644 14.8888 27.6602 14.8888ZM16.2345 21.4684L15.7218 25.6677C15.5997 26.693 16.2589 27.3888 17.4552 27.1935C20.568 26.7052 24.108 24.3859 25.9024 21.7248L23.3878 22.03C21.8497 23.3605 20.1895 24.569 18.1998 25.1183C17.9435 25.1794 17.7726 25.1305 17.8092 24.7887L18.1144 21.7492Z" fill="#5ac8f5"/>
 </g>
</svg>
