<?xml version="1.0" encoding="UTF-8"?>
<!--Generator: Apple Native CoreSVG 175.5-->
<!DOCTYPE svg
PUBLIC "-//W3C//DTD SVG 1.1//EN"
       "http://www.w3.org/Graphics/SVG/1.1/DTD/svg11.dtd">
<svg version="1.1" xmlns="http://www.w3.org/2000/svg" xmlns:xlink="http://www.w3.org/1999/xlink" width="36.6928" height="27.5757">
 <g>
  <rect height="27.5757" opacity="0" width="36.6928" x="0" y="0"/>
  <path d="M8.20359 5.26123C9.66843 5.26123 10.8403 4.10156 10.8403 2.63672C10.8403 1.17188 9.66843 0 8.20359 0C6.73875 0 5.56687 1.17188 5.56687 2.63672C5.56687 4.10156 6.73875 5.26123 8.20359 5.26123ZM3.99217 27.2217C4.5659 27.2217 4.95652 26.9043 5.16404 26.1475C5.57908 24.646 6.81199 19.5312 7.22703 18.2983C7.50779 17.4194 7.7031 17.0776 8.20359 17.0776C8.70408 17.0776 8.89939 17.4194 9.18015 18.2983C9.59519 19.5312 10.8281 24.646 11.2431 26.1475C11.4507 26.9043 11.8413 27.2217 12.415 27.2217C13.1963 27.2217 13.6723 26.5137 13.4526 25.7446C13.3672 25.415 11.5971 18.0176 11.3408 16.4917C11.1333 15.1489 11.0845 12.439 11.0845 11.1572C11.0845 10.9619 11.3042 10.8887 11.4262 11.0596L12.8056 12.9883C12.9521 12.2437 13.6479 11.4624 14.6611 11.438L12.769 8.6792C11.768 7.21436 10.5229 6.54297 8.20359 6.54297C5.88425 6.54297 4.63914 7.20215 3.63816 8.6792L0.47654 13.3301C0.35447 13.5132 0.220192 13.6963 0.122536 13.8794C-0.133812 14.3433 0.000465792 15.0146 0.635231 15.3442C1.11131 15.6128 1.69724 15.5396 2.05125 15.1245C2.38084 14.7339 4.06541 12.3535 4.98093 11.0596C5.0908 10.9009 5.32273 10.9619 5.32273 11.1694C5.32273 12.4512 5.2617 15.1489 5.05418 16.4917C4.81004 18.0176 3.04002 25.415 2.95457 25.7446C2.73484 26.5137 3.21092 27.2217 3.99217 27.2217ZM18.3476 13.6963C19.4219 13.6963 20.313 12.8174 20.313 11.7432C20.313 10.6689 19.4219 9.79004 18.3476 9.79004C17.2734 9.79004 16.3945 10.6689 16.3945 11.7432C16.3945 12.8174 17.2734 13.6963 18.3476 13.6963ZM15.7597 27.2217C16.2236 27.2217 16.602 26.9531 16.7607 26.3428C17.0171 25.4272 17.7617 22.2778 18.0058 21.5088C18.1767 21.0083 18.2134 20.9717 18.3476 20.9717C18.4819 20.9717 18.5063 21.0083 18.6772 21.5088C18.9214 22.2778 19.666 25.4272 19.9345 26.3428C20.081 26.9531 20.4717 27.2217 20.9355 27.2217C21.6313 27.2217 22.0342 26.5747 21.8633 25.9399C21.8022 25.7324 20.7402 21.2036 20.5693 20.2515C20.4472 19.4946 20.4106 17.9688 20.4106 17.3584C20.4106 17.0044 20.5327 16.7725 20.728 16.5283C21.6069 15.4297 22.7178 14.1724 22.852 13.9648C23.145 13.5376 23.0351 13.0371 22.7055 12.6953C22.3271 12.2681 21.6924 12.2803 21.3628 12.6221L20.0688 14.0015C19.5317 14.5752 19.0801 14.8438 18.3476 14.8438C17.6152 14.8438 17.1636 14.5752 16.6264 14.0015L15.3325 12.6221C15.0029 12.2803 14.3559 12.2681 13.9897 12.6953C13.6479 13.0371 13.5503 13.5376 13.831 13.9648C13.9653 14.1724 15.0884 15.4297 15.9673 16.5283C16.1626 16.7725 16.2724 17.0044 16.2724 17.3584C16.2724 17.9688 16.248 19.4946 16.126 20.2515C15.9551 21.2036 14.893 25.7324 14.8198 25.9399C14.6611 26.5747 15.0639 27.2217 15.7597 27.2217ZM28.4917 5.26123C29.9565 5.26123 31.1162 4.10156 31.1162 2.63672C31.1162 1.17188 29.9565 0 28.4917 0C27.0268 0 25.855 1.17188 25.855 2.63672C25.855 4.10156 27.0268 5.26123 28.4917 5.26123ZM24.2803 27.2217C24.854 27.2217 25.2324 26.9043 25.4521 26.1475C25.855 24.646 27.1001 19.5312 27.5151 18.2983C27.7837 17.4194 27.9912 17.0776 28.4917 17.0776C28.98 17.0776 29.1875 17.4194 29.4682 18.2983C29.8711 19.5312 31.1162 24.646 31.5312 26.1475C31.7387 26.9043 32.1294 27.2217 32.7031 27.2217C33.4844 27.2217 33.9604 26.5137 33.7407 25.7446C33.643 25.415 31.873 18.0176 31.6289 16.4917C31.4214 15.1489 31.3725 12.4512 31.3725 11.1694C31.3725 10.9619 31.6045 10.9009 31.7021 11.0596C32.6299 12.3535 34.3022 14.7339 34.6318 15.1245C34.998 15.5396 35.5718 15.6128 36.06 15.3442C36.6826 15.0146 36.8291 14.3433 36.5727 13.8794C36.4629 13.6963 36.3408 13.5132 36.2065 13.3301L33.0571 8.6792C32.0439 7.20215 30.811 6.54297 28.4917 6.54297C26.1723 6.54297 24.9272 7.21436 23.9262 8.6792L22.022 11.438C23.0473 11.4624 23.7309 12.2437 23.8896 12.9883L25.269 11.0596C25.3911 10.8887 25.6108 10.9619 25.6108 11.1572C25.6108 12.439 25.5498 15.1489 25.3423 16.4917C25.0981 18.0176 23.3281 25.415 23.2427 25.7446C23.0107 26.5137 23.499 27.2217 24.2803 27.2217Z" fill="#5ac8f5"/>
 </g>
</svg>
