<?xml version="1.0" encoding="UTF-8"?>
<!--Generator: Apple Native CoreSVG 175.5-->
<!DOCTYPE svg
PUBLIC "-//W3C//DTD SVG 1.1//EN"
       "http://www.w3.org/Graphics/SVG/1.1/DTD/svg11.dtd">
<svg version="1.1" xmlns="http://www.w3.org/2000/svg" xmlns:xlink="http://www.w3.org/1999/xlink" width="18.5913" height="21.521">
 <g>
  <rect height="21.521" opacity="0" width="18.5913" x="0" y="0"/>
  <path d="M9.30176 0C8.65479 0 8.20312 0.45166 8.20312 1.08643L8.20312 13.4155L8.30078 16.04L4.62646 12.0117L1.89209 9.31396C1.68457 9.11865 1.40381 9.00879 1.11084 9.00879C0.488281 9.00879 0.0488281 9.47266 0.0488281 10.083C0.0488281 10.376 0.170898 10.6445 0.402832 10.9009L8.48389 18.9819C8.71582 19.2261 8.99658 19.3604 9.30176 19.3604C9.59473 19.3604 9.8877 19.2261 10.1196 18.9819L18.1885 10.9009C18.4326 10.6445 18.5547 10.376 18.5547 10.083C18.5547 9.47266 18.103 9.00879 17.4927 9.00879C17.1997 9.00879 16.9067 9.11865 16.7114 9.31396L13.9771 12.0117L10.3027 16.0278L10.3882 13.4155L10.3882 1.08643C10.3882 0.45166 9.93652 0 9.30176 0ZM1.0498 19.3359C0.427246 19.3359 0 19.7876 0 20.4224C0 21.0571 0.427246 21.521 1.0498 21.521L17.5171 21.521C18.1519 21.521 18.5913 21.0571 18.5913 20.4224C18.5913 19.7876 18.1519 19.3359 17.5171 19.3359Z" fill="#5ac8f5"/>
 </g>
</svg>
