<?xml version="1.0" encoding="UTF-8"?>
<!--Generator: Apple Native CoreSVG 175.5-->
<!DOCTYPE svg
PUBLIC "-//W3C//DTD SVG 1.1//EN"
       "http://www.w3.org/Graphics/SVG/1.1/DTD/svg11.dtd">
<svg version="1.1" xmlns="http://www.w3.org/2000/svg" xmlns:xlink="http://www.w3.org/1999/xlink" width="22.4731" height="22.4976">
 <g>
  <rect height="22.4976" opacity="0" width="22.4731" x="0" y="0"/>
  <path d="M3.83301 22.4976L18.6401 22.4976C21.2036 22.4976 22.4731 21.228 22.4731 18.7134L22.4731 3.80859C22.4731 1.29395 21.2036 0.0244141 18.6401 0.0244141L3.83301 0.0244141C1.28174 0.0244141 0 1.28174 0 3.80859L0 18.7134C0 21.2402 1.28174 22.4976 3.83301 22.4976ZM3.85742 20.5322C2.63672 20.5322 1.96533 19.8853 1.96533 18.6157L1.96533 3.90625C1.96533 2.63672 2.63672 1.98975 3.85742 1.98975L18.6157 1.98975C19.8242 1.98975 20.5078 2.63672 20.5078 3.90625L20.5078 18.6157C20.5078 19.8853 19.8242 20.5322 18.6157 20.5322Z" fill="#5ac8f5" fill-opacity="0.5"/>
  <path d="M7.00684 9.31396C7.00684 11.3647 8.55713 12.854 10.6689 12.854C11.4868 12.854 12.3535 12.561 12.7563 12.1338L12.915 12.1338C12.8174 12.3169 12.6343 12.5732 12.3657 12.9028C11.6943 13.7573 10.8887 14.7339 10.1562 15.625C9.96094 15.8569 9.86328 16.0889 9.86328 16.3208C9.86328 16.687 10.1807 17.041 10.6689 17.041C11.145 17.041 11.3159 16.7603 11.6699 16.3208C12.3169 15.5273 13.2324 14.3433 13.8794 13.4766C15.0146 11.9751 15.5518 10.73 15.5518 9.41162C15.5518 7.04346 13.8062 5.43213 11.2793 5.43213C8.75244 5.43213 7.00684 7.03125 7.00684 9.31396ZM8.72803 9.24072C8.72803 7.94678 9.81445 6.98242 11.2671 6.98242C12.7197 6.98242 13.8184 7.95898 13.8184 9.24072C13.8184 10.5469 12.7319 11.4868 11.2793 11.4868C9.81445 11.4868 8.72803 10.5347 8.72803 9.24072Z" fill="#5ac8f5"/>
 </g>
</svg>
