<?xml version="1.0" encoding="UTF-8"?>
<!--Generator: Apple Native CoreSVG 175.5-->
<!DOCTYPE svg
PUBLIC "-//W3C//DTD SVG 1.1//EN"
       "http://www.w3.org/Graphics/SVG/1.1/DTD/svg11.dtd">
<svg version="1.1" xmlns="http://www.w3.org/2000/svg" xmlns:xlink="http://www.w3.org/1999/xlink" width="24.9023" height="24.9146">
 <g>
  <rect height="24.9146" opacity="0" width="24.9023" x="0" y="0"/>
  <path d="M12.4512 24.9023C19.2627 24.9023 24.9023 19.2505 24.9023 12.4512C24.9023 5.63965 19.2505 0 12.439 0C5.63965 0 0 5.63965 0 12.4512C0 19.2505 5.65186 24.9023 12.4512 24.9023ZM12.4512 22.8271C6.68945 22.8271 2.0874 18.2129 2.0874 12.4512C2.0874 6.68945 6.67725 2.0752 12.439 2.0752C18.2007 2.0752 22.8271 6.68945 22.8271 12.4512C22.8271 18.2129 18.2129 22.8271 12.4512 22.8271Z" fill="#5ac8f5" fill-opacity="0.5"/>
  <path d="M5.70068 13.7329C5.70068 14.4775 6.21338 14.978 6.9458 14.978L9.8877 14.978L9.8877 17.9077C9.8877 18.6768 10.3882 19.165 11.1328 19.165L13.7207 19.165C14.4775 19.165 14.9658 18.6768 14.9658 17.9077L14.9658 14.978L17.9077 14.978C18.6646 14.978 19.165 14.4775 19.165 13.7329L19.165 11.1328C19.165 10.4004 18.6646 9.8877 17.9077 9.8877L14.9658 9.8877L14.9658 6.97021C14.9658 6.21338 14.4775 5.71289 13.7207 5.71289L11.1328 5.71289C10.3882 5.71289 9.8877 6.21338 9.8877 6.97021L9.8877 9.8877L6.9458 9.8877C6.20117 9.8877 5.70068 10.4004 5.70068 11.1328Z" fill="#5ac8f5"/>
 </g>
</svg>
