<?xml version="1.0" encoding="UTF-8"?>
<!--Generator: Apple Native CoreSVG 175.5-->
<!DOCTYPE svg
PUBLIC "-//W3C//DTD SVG 1.1//EN"
       "http://www.w3.org/Graphics/SVG/1.1/DTD/svg11.dtd">
<svg version="1.1" xmlns="http://www.w3.org/2000/svg" xmlns:xlink="http://www.w3.org/1999/xlink" width="18.7134" height="25.2808">
 <g>
  <rect height="25.2808" opacity="0" width="18.7134" x="0" y="0"/>
  <path d="M0 3.4668L0 21.8018C0 24.1089 1.14746 25.2686 3.43018 25.2686L15.2954 25.2686C17.5781 25.2686 18.7134 24.1089 18.7134 21.8018L18.7134 3.4668C18.7134 1.15967 17.5781 0 15.2954 0L3.43018 0C1.14746 0 0 1.15967 0 3.4668ZM9.36279 21.7285C6.51855 21.7285 4.22363 19.458 4.22363 16.6016C4.22363 13.7329 6.51855 11.4502 9.36279 11.4624C12.207 11.4746 14.502 13.7329 14.502 16.6016C14.502 19.458 12.207 21.7285 9.36279 21.7285ZM9.36279 9.24072C7.77588 9.24072 6.50635 7.97119 6.50635 6.38428C6.50635 4.78516 7.77588 3.52783 9.36279 3.54004C10.9375 3.55225 12.207 4.79736 12.2192 6.38428C12.2437 7.97119 10.9375 9.24072 9.36279 9.24072ZM9.36279 18.7744C10.5835 18.7744 11.5356 17.7979 11.5356 16.6016C11.5356 15.3564 10.5835 14.4043 9.36279 14.4043C8.12988 14.4043 7.18994 15.3564 7.18994 16.6016C7.18994 17.7979 8.1665 18.7744 9.36279 18.7744ZM9.36279 7.83691C10.1685 7.83691 10.8154 7.17773 10.8154 6.38428C10.8154 5.57861 10.1562 4.93164 9.36279 4.93164C8.54492 4.93164 7.91016 5.54199 7.91016 6.38428C7.91016 7.17773 8.54492 7.83691 9.36279 7.83691Z" fill="#5ac8f5"/>
 </g>
</svg>
