<?xml version="1.0" encoding="UTF-8"?>
<!--Generator: Apple Native CoreSVG 175.5-->
<!DOCTYPE svg
PUBLIC "-//W3C//DTD SVG 1.1//EN"
       "http://www.w3.org/Graphics/SVG/1.1/DTD/svg11.dtd">
<svg version="1.1" xmlns="http://www.w3.org/2000/svg" xmlns:xlink="http://www.w3.org/1999/xlink" width="22.4731" height="22.4976">
 <g>
  <rect height="22.4976" opacity="0" width="22.4731" x="0" y="0"/>
  <path d="M3.83301 22.4976L18.6401 22.4976C21.2036 22.4976 22.4731 21.228 22.4731 18.7134L22.4731 3.80859C22.4731 1.29395 21.2036 0.0244141 18.6401 0.0244141L3.83301 0.0244141C1.28174 0.0244141 0 1.28174 0 3.80859L0 18.7134C0 21.2402 1.28174 22.4976 3.83301 22.4976ZM3.85742 20.5322C2.63672 20.5322 1.96533 19.8853 1.96533 18.6157L1.96533 3.90625C1.96533 2.63672 2.63672 1.98975 3.85742 1.98975L18.6157 1.98975C19.8242 1.98975 20.5078 2.63672 20.5078 3.90625L20.5078 18.6157C20.5078 19.8853 19.8242 20.5322 18.6157 20.5322ZM6.7749 9.31396C6.7749 9.65576 7.03125 9.92432 7.37305 9.92432L8.11768 9.92432L8.11768 16.5527C8.11768 17.0288 8.47168 17.3584 8.92334 17.3584C9.38721 17.3584 9.7168 17.0288 9.7168 16.5527L9.7168 13.1104L11.853 13.1104C13.8916 13.1104 15.3687 11.8286 15.6006 9.92432L16.1621 9.92432C16.5161 9.92432 16.7603 9.65576 16.7603 9.31396C16.7603 8.95996 16.5161 8.71582 16.1621 8.71582L15.5762 8.71582C15.2954 6.88477 13.855 5.68848 11.853 5.68848L8.89893 5.68848C8.42285 5.68848 8.11768 6.00586 8.11768 6.49414L8.11768 8.71582L7.37305 8.71582C7.03125 8.71582 6.7749 8.95996 6.7749 9.31396ZM9.729 11.6699L9.729 9.92432L13.9771 9.92432C13.7817 11.0229 12.9272 11.6699 11.5845 11.6699ZM9.729 8.71582L9.729 7.12891L11.5845 7.12891C12.8662 7.12891 13.7085 7.70264 13.9404 8.71582Z" fill="#5ac8f5"/>
 </g>
</svg>
