<?xml version="1.0" encoding="UTF-8"?>
<!--Generator: Apple Native CoreSVG 175.5-->
<!DOCTYPE svg
PUBLIC "-//W3C//DTD SVG 1.1//EN"
       "http://www.w3.org/Graphics/SVG/1.1/DTD/svg11.dtd">
<svg version="1.1" xmlns="http://www.w3.org/2000/svg" xmlns:xlink="http://www.w3.org/1999/xlink" width="39.5752" height="19.8853">
 <g>
  <rect height="19.8853" opacity="0" width="39.5752" x="0" y="0"/>
  <path d="M35.1807 19.8853L37.9517 19.8853C39.0259 19.8853 39.5752 19.3237 39.5752 18.2495L39.5752 1.62354C39.5752 0.512695 39.0259 0 37.9517 0L35.1807 0C34.1064 0 33.5449 0.561523 33.5449 1.62354L33.5449 18.2495C33.5449 19.3237 34.1064 19.8853 35.1807 19.8853ZM18.5303 19.519C19.0308 19.519 19.4458 19.3604 19.9341 19.0674L32.373 11.7554C33.2397 11.2427 33.606 10.6323 33.606 9.93652C33.606 9.22852 33.2397 8.63037 32.373 8.11768L19.9341 0.793457C19.4336 0.500488 19.0308 0.341797 18.5303 0.341797C17.5781 0.341797 16.7725 1.07422 16.7725 2.44141L16.7725 17.4316C16.7725 18.7988 17.5781 19.519 18.5303 19.519ZM1.75781 19.519C2.2583 19.519 2.66113 19.3604 3.16162 19.0674L15.6006 11.7554C16.4673 11.2427 16.8335 10.6323 16.8335 9.93652C16.8335 9.22852 16.4673 8.63037 15.6006 8.11768L3.16162 0.793457C2.66113 0.500488 2.2583 0.341797 1.75781 0.341797C0.793457 0.341797 0 1.07422 0 2.44141L0 17.4316C0 18.7988 0.793457 19.519 1.75781 19.519Z" fill="#5ac8f5"/>
 </g>
</svg>
