<?xml version="1.0" encoding="UTF-8"?>
<!--Generator: Apple Native CoreSVG 175.5-->
<!DOCTYPE svg
PUBLIC "-//W3C//DTD SVG 1.1//EN"
       "http://www.w3.org/Graphics/SVG/1.1/DTD/svg11.dtd">
<svg version="1.1" xmlns="http://www.w3.org/2000/svg" xmlns:xlink="http://www.w3.org/1999/xlink" width="24.9023" height="24.9146">
 <g>
  <rect height="24.9146" opacity="0" width="24.9023" x="0" y="0"/>
  <path d="M12.4512 24.9146C19.2627 24.9146 24.9023 19.2749 24.9023 12.4634C24.9023 5.66406 19.2505 0.012207 12.439 0.012207C5.63965 0.012207 0 5.66406 0 12.4634C0 19.2749 5.65186 24.9146 12.4512 24.9146Z" fill="#5ac8f5" fill-opacity="0.25"/>
  <path d="M6.72607 11.145L14.2456 6.66504C15.1978 6.11572 16.5039 6.48193 16.5039 7.82471L16.5039 17.0898C16.5039 18.4326 15.1978 18.7988 14.2456 18.2495L6.70166 13.7939C5.7251 13.1958 5.70068 11.7676 6.72607 11.145ZM8.6792 12.3657C8.60596 12.4146 8.58154 12.5244 8.69141 12.5854L14.2334 15.8569C14.3677 15.9424 14.4653 15.8813 14.4653 15.7593L14.4653 9.15527C14.4653 9.0332 14.3677 8.98438 14.2334 9.05762Z" fill="#5ac8f5"/>
 </g>
</svg>
