<?xml version="1.0" encoding="UTF-8"?>
<!--Generator: Apple Native CoreSVG 175.5-->
<!DOCTYPE svg
PUBLIC "-//W3C//DTD SVG 1.1//EN"
       "http://www.w3.org/Graphics/SVG/1.1/DTD/svg11.dtd">
<svg version="1.1" xmlns="http://www.w3.org/2000/svg" xmlns:xlink="http://www.w3.org/1999/xlink" width="29.9072" height="23.7427">
 <g>
  <rect height="23.7427" opacity="0" width="29.9072" x="0" y="0"/>
  <path d="M8.88672 10.8032C11.8774 10.8032 14.2944 8.34961 14.2944 5.40771C14.2944 2.4292 11.8164 0.012207 8.88672 0.012207C8.36182 0.012207 7.88574 0.0610352 7.4707 0.195312L7.4707 3.24707C7.88574 2.94189 8.37402 2.771 8.88672 2.771C10.2905 2.771 11.4868 3.97949 11.4868 5.40771C11.4868 6.81152 10.3149 7.97119 8.88672 7.97119C7.43408 7.97119 6.29883 6.84814 6.29883 5.40771L6.29883 0.646973C4.57764 1.62354 3.49121 3.39355 3.49121 5.40771C3.49121 8.41064 5.896 10.8032 8.88672 10.8032ZM8.88672 6.83594C9.65576 6.83594 10.3027 6.16455 10.3027 5.40771C10.3027 4.67529 9.63135 3.9917 8.88672 3.9917C8.14209 3.9917 7.48291 4.65088 7.48291 5.40771C7.48291 6.17676 8.11768 6.83594 8.88672 6.83594ZM6.88477 9.60693L6.88477 12.4634C6.88477 13.1836 7.36084 13.5498 8.08105 13.5498L9.69238 13.5498C10.437 13.5498 10.9009 13.1836 10.9009 12.4634L10.9009 9.60693ZM7.97119 23.7427L9.81445 23.7427L9.81445 12.2925L7.97119 12.2925ZM2.55127 5.41992C2.55127 3.28369 3.61328 1.40381 5.22461 0.256348C2.2583 0.305176 0 2.52686 0 5.41992C0 8.28857 2.22168 10.5225 5.22461 10.5835C3.61328 9.43604 2.55127 7.55615 2.55127 5.41992ZM21.0083 10.8032C23.999 10.8032 26.416 8.34961 26.416 5.40771C26.416 2.4292 23.938 0.012207 21.0083 0.012207C20.4834 0.012207 20.0073 0.0610352 19.5923 0.195312L19.5923 3.24707C20.0073 2.94189 20.4956 2.771 21.0083 2.771C22.4121 2.771 23.6084 3.97949 23.6084 5.40771C23.6084 6.81152 22.4365 7.97119 21.0083 7.97119C19.5557 7.97119 18.4204 6.84814 18.4204 5.40771L18.4204 0.646973C16.6992 1.62354 15.6128 3.39355 15.6128 5.40771C15.6128 8.41064 18.0176 10.8032 21.0083 10.8032ZM21.0083 6.83594C21.7773 6.83594 22.4243 6.16455 22.4243 5.40771C22.4243 4.67529 21.7529 3.9917 21.0083 3.9917C20.2637 3.9917 19.6045 4.65088 19.6045 5.40771C19.6045 6.17676 20.2393 6.83594 21.0083 6.83594ZM23.0225 9.60693L19.0063 9.60693L19.0063 12.4634C19.0063 13.1836 19.458 13.5498 20.2026 13.5498L21.8262 13.5498C22.5464 13.5498 23.0225 13.1836 23.0225 12.4634ZM21.936 23.7427L21.936 12.2925L20.0928 12.2925L20.0928 23.7427ZM27.356 5.41992C27.356 7.55615 26.2939 9.43604 24.6826 10.5835C27.6367 10.5225 29.9072 8.31299 29.9072 5.41992C29.9072 2.55127 27.6733 0.305176 24.6826 0.256348C26.2939 1.40381 27.356 3.28369 27.356 5.41992Z" fill="#5ac8f5"/>
 </g>
</svg>
