<?xml version="1.0" encoding="UTF-8"?>
<!--Generator: Apple Native CoreSVG 175.5-->
<!DOCTYPE svg
PUBLIC "-//W3C//DTD SVG 1.1//EN"
       "http://www.w3.org/Graphics/SVG/1.1/DTD/svg11.dtd">
<svg version="1.1" xmlns="http://www.w3.org/2000/svg" xmlns:xlink="http://www.w3.org/1999/xlink" width="22.4731" height="22.4976">
 <g>
  <rect height="22.4976" opacity="0" width="22.4731" x="0" y="0"/>
  <path d="M3.83301 22.4976L18.6401 22.4976C21.2036 22.4976 22.4731 21.228 22.4731 18.7134L22.4731 3.80859C22.4731 1.29395 21.2036 0.0244141 18.6401 0.0244141L3.83301 0.0244141C1.28174 0.0244141 0 1.28174 0 3.80859L0 18.7134C0 21.2402 1.28174 22.4976 3.83301 22.4976Z" fill="#5ac8f5" fill-opacity="0.25"/>
  <path d="M5.93262 16.9312C5.44434 16.9312 5.10254 16.6016 5.10254 16.1133L5.10254 6.64062C5.10254 5.95703 5.44434 5.49316 6.06689 5.49316L8.10547 5.49316C10.2295 5.49316 11.2305 6.65283 11.2305 8.6792C11.2305 9.99756 10.6689 11.3281 9.60693 11.731L11.2427 15.7959C11.5356 16.5283 10.9863 16.9312 10.4492 16.9312C10.1196 16.9312 9.81445 16.7847 9.68018 16.4185L8.00781 12.0483C7.91016 12.0605 7.83691 12.0605 7.75146 12.0605L6.7627 12.0605L6.7627 16.1133C6.7627 16.6016 6.4209 16.9312 5.93262 16.9312ZM6.7627 10.7788L7.93457 10.7788C9.05762 10.7788 9.5459 9.93652 9.5459 8.74023C9.5459 7.55615 9.0332 6.83594 7.92236 6.83594L6.7627 6.83594ZM15.3564 17.7856C15.0757 17.7856 14.8315 17.5415 14.8315 17.2485L14.8315 16.394C13.3667 16.2231 12.4634 15.2954 12.2803 13.9893C12.1826 13.3423 12.5977 12.9761 13.0249 12.9761C13.3667 12.9761 13.6597 13.1958 13.7085 13.6108C13.7817 14.3677 14.1357 14.8804 14.8315 15.0146L14.8315 11.792L14.4043 11.5723C13.0737 10.8887 12.2803 10.0342 12.2803 8.66699C12.2803 7.18994 13.3301 6.16455 14.8315 6.00586L14.8315 5.17578C14.8315 4.89502 15.0757 4.65088 15.3564 4.65088C15.6372 4.65088 15.8813 4.89502 15.8813 5.17578L15.8813 6.01807C17.2485 6.22559 18.0786 7.16553 18.2251 8.38623C18.335 9.09424 17.9077 9.41162 17.4683 9.41162C17.1265 9.41162 16.8091 9.17969 16.7725 8.76465C16.7236 8.11768 16.4307 7.60498 15.8813 7.42188L15.8813 10.5591L16.2964 10.791C17.7612 11.5845 18.4326 12.439 18.4326 13.6475C18.4326 15.21 17.4194 16.2231 15.8813 16.4062L15.8813 17.2485C15.8813 17.5415 15.6372 17.7856 15.3564 17.7856ZM14.8315 7.37305C14.2212 7.51953 13.8428 7.95898 13.8428 8.60596C13.8428 9.27734 14.2822 9.66797 14.7705 9.96094L14.8315 9.99756ZM15.8813 15.0146C16.5283 14.8804 16.8945 14.4043 16.8945 13.7573C16.8945 13.1714 16.4673 12.7197 15.9302 12.3779L15.8813 12.3657Z" fill="#5ac8f5"/>
 </g>
</svg>
