<?xml version="1.0" encoding="UTF-8"?>
<!--Generator: Apple Native CoreSVG 175.5-->
<!DOCTYPE svg
PUBLIC "-//W3C//DTD SVG 1.1//EN"
       "http://www.w3.org/Graphics/SVG/1.1/DTD/svg11.dtd">
<svg version="1.1" xmlns="http://www.w3.org/2000/svg" xmlns:xlink="http://www.w3.org/1999/xlink" width="20.5322" height="26.1841">
 <g>
  <rect height="26.1841" opacity="0" width="20.5322" x="0" y="0"/>
  <path d="M5.48096 16.5771C5.00488 16.5771 4.65088 16.2354 4.65088 15.7837C4.65088 15.332 5.00488 14.978 5.48096 14.978L15.0879 14.978C15.5518 14.978 15.9058 15.332 15.9058 15.7837C15.9058 16.2354 15.5518 16.5771 15.0879 16.5771ZM5.48096 21.2036C5.00488 21.2036 4.65088 20.8618 4.65088 20.4102C4.65088 19.9585 5.00488 19.6045 5.48096 19.6045L15.0879 19.6045C15.5518 19.6045 15.9058 19.9585 15.9058 20.4102C15.9058 20.8618 15.5518 21.2036 15.0879 21.2036ZM3.78418 26.1719L16.748 26.1719C19.2749 26.1719 20.5322 24.8901 20.5322 22.3511L20.5322 11.2671L11.6943 11.2671C10.1318 11.2671 9.38721 10.5225 9.38721 8.95996L9.38721 0L3.78418 0C1.26953 0 0 1.29395 0 3.83301L0 22.3511C0 24.9023 1.25732 26.1719 3.78418 26.1719ZM11.731 9.59473L20.3857 9.59473C20.3125 9.09424 19.9585 8.60596 19.3726 8.00781L12.6465 1.15967C12.0728 0.57373 11.5723 0.219727 11.0596 0.134277L11.0596 8.93555C11.0596 9.375 11.2793 9.59473 11.731 9.59473Z" fill="#5ac8f5"/>
 </g>
</svg>
