<?xml version="1.0" encoding="UTF-8"?>
<!--Generator: Apple Native CoreSVG 175.5-->
<!DOCTYPE svg
PUBLIC "-//W3C//DTD SVG 1.1//EN"
       "http://www.w3.org/Graphics/SVG/1.1/DTD/svg11.dtd">
<svg version="1.1" xmlns="http://www.w3.org/2000/svg" xmlns:xlink="http://www.w3.org/1999/xlink" width="26.7606" height="29.2603">
 <g>
  <rect height="29.2603" opacity="0" width="26.7606" x="0" y="0"/>
  <path d="M18.1668 5.31006C19.6439 5.31006 20.828 4.12598 20.828 2.66113C20.828 1.18408 19.6439 0 18.1668 0C16.6898 0 15.5057 1.18408 15.5057 2.66113C15.5057 4.12598 16.6898 5.31006 18.1668 5.31006ZM4.93442 17.9688L11.9657 17.9688L18.4598 18.8843C20.889 19.2261 22.6468 18.1641 22.6468 15.8447L22.6468 11.4502C22.6468 11.2305 22.8788 11.145 23.0252 11.2915L24.2337 12.5122L24.2337 16.687C24.2337 17.395 24.8319 17.9688 25.5033 17.9688C26.1991 17.9688 26.7606 17.395 26.7606 16.687L26.7606 11.9751C26.7606 11.6455 26.6385 11.3159 26.3822 11.0718L23.306 8.00781C22.3905 7.1167 21.2186 6.5918 19.9124 6.5918L7.8641 6.5918C7.18051 6.5918 6.59457 7.17773 6.59457 7.86133C6.59457 8.56934 7.1561 9.13086 7.8641 9.13086L17.1292 9.13086C17.4955 9.13086 17.764 9.41162 17.764 9.76562L17.764 15.4297L4.93442 15.4297C4.2142 15.4297 3.65268 15.9912 3.65268 16.687C3.65268 17.395 4.23862 17.9688 4.93442 17.9688ZM20.5106 28.772C20.9989 29.2603 21.7923 29.2603 22.2806 28.772C22.7811 28.2837 22.7689 27.4902 22.2806 26.9897L18.2401 22.9004L19.6805 20.105C19.2533 20.1416 18.7772 20.105 18.2889 20.0439L16.5433 19.7998L15.4813 22.7295C15.3104 23.1812 15.4203 23.6816 15.7865 24.0479ZM1.24789 12.5732C2.83481 14.1479 4.61703 13.9771 5.28842 13.3179C5.93539 12.6343 5.98422 10.9863 4.42172 9.39941C2.81039 7.80029 1.15024 7.84912 0.47885 8.53271C-0.192536 9.2041-0.339021 10.9619 1.24789 12.5732Z" fill="#5ac8f5"/>
 </g>
</svg>
