<?xml version="1.0" encoding="UTF-8"?>
<!--Generator: Apple Native CoreSVG 175.5-->
<!DOCTYPE svg
PUBLIC "-//W3C//DTD SVG 1.1//EN"
       "http://www.w3.org/Graphics/SVG/1.1/DTD/svg11.dtd">
<svg version="1.1" xmlns="http://www.w3.org/2000/svg" xmlns:xlink="http://www.w3.org/1999/xlink" width="24.9023" height="24.9146">
 <g>
  <rect height="24.9146" opacity="0" width="24.9023" x="0" y="0"/>
  <path d="M12.4512 24.9023C19.2627 24.9023 24.9023 19.2505 24.9023 12.4512C24.9023 5.63965 19.2505 0 12.439 0C5.63965 0 0 5.63965 0 12.4512C0 19.2505 5.65186 24.9023 12.4512 24.9023ZM12.4512 22.8271C6.68945 22.8271 2.0874 18.2129 2.0874 12.4512C2.0874 6.68945 6.67725 2.0752 12.439 2.0752C18.2007 2.0752 22.8271 6.68945 22.8271 12.4512C22.8271 18.2129 18.2129 22.8271 12.4512 22.8271ZM7.09229 15.8325C7.09229 16.0156 7.18994 16.2231 7.33643 16.3818L9.69238 18.7256C9.97314 18.9819 10.2539 19.1162 10.5225 19.1162C10.8032 19.1162 11.084 18.9941 11.3525 18.7256L13.7207 16.3696C13.8794 16.1987 13.9648 16.0156 13.9648 15.8325C13.9648 15.4297 13.6475 15.1123 13.2568 15.1123C13.0127 15.1123 12.8418 15.1855 12.6709 15.3564L12.0728 15.979L11.2305 16.9312L11.2915 15.0024L11.2915 10.0464C11.2915 8.20312 12.1826 7.17773 13.8184 7.17773C15.3198 7.17773 16.333 8.21533 16.3208 9.75342C16.3086 11.2549 15.332 12.2925 13.9282 12.2925C13.5864 12.2925 13.4155 12.207 13.1958 12.207C12.8052 12.207 12.5122 12.4878 12.5122 12.854C12.5122 13.0737 12.5977 13.2568 12.7319 13.3911C12.9761 13.6353 13.4155 13.7573 13.8794 13.7573C16.2476 13.7573 17.8101 12.1582 17.8101 9.75342C17.8101 7.31201 16.1865 5.65186 13.8184 5.65186C11.3403 5.65186 9.75342 7.31201 9.75342 9.92432L9.75342 15.0146L9.81445 16.9312L8.98438 15.9912L8.37402 15.3687C8.20312 15.1855 8.00781 15.1123 7.78809 15.1123C7.39746 15.1123 7.09229 15.4297 7.09229 15.8325Z" fill="#5ac8f5"/>
 </g>
</svg>
