<?xml version="1.0" encoding="UTF-8"?>
<!--Generator: Apple Native CoreSVG 175.5-->
<!DOCTYPE svg
PUBLIC "-//W3C//DTD SVG 1.1//EN"
       "http://www.w3.org/Graphics/SVG/1.1/DTD/svg11.dtd">
<svg version="1.1" xmlns="http://www.w3.org/2000/svg" xmlns:xlink="http://www.w3.org/1999/xlink" width="24.9023" height="24.9146">
 <g>
  <rect height="24.9146" opacity="0" width="24.9023" x="0" y="0"/>
  <path d="M12.4512 24.9023C19.2627 24.9023 24.9023 19.2505 24.9023 12.4512C24.9023 5.63965 19.2505 0 12.439 0C5.63965 0 0 5.63965 0 12.4512C0 19.2505 5.65186 24.9023 12.4512 24.9023ZM12.4512 22.8271C6.68945 22.8271 2.0874 18.2129 2.0874 12.4512C2.0874 6.68945 6.67725 2.0752 12.439 2.0752C18.2007 2.0752 22.8271 6.68945 22.8271 12.4512C22.8271 18.2129 18.2129 22.8271 12.4512 22.8271ZM4.24805 11.2061C4.24805 13.2202 5.67627 14.6484 7.67822 14.6484L8.09326 14.6484C8.02002 14.3188 7.9834 13.7207 8.03223 13.3301L7.76367 13.3301C6.50635 13.3301 5.63965 12.4756 5.63965 11.2061C5.63965 9.94873 6.50635 9.06982 7.76367 9.06982L12.6709 9.06982C13.9282 9.06982 14.7949 9.94873 14.7949 11.2061C14.7949 12.4756 13.9404 13.3301 12.6709 13.3301L10.8398 13.3301C10.7056 13.6963 10.7544 14.2944 11.1206 14.6484L12.7441 14.6484C14.7461 14.6484 16.1743 13.2202 16.1743 11.2061C16.1743 9.19189 14.7461 7.75146 12.7441 7.75146L7.67822 7.75146C5.67627 7.75146 4.24805 9.19189 4.24805 11.2061ZM8.70361 13.7939C8.70361 15.8081 10.1318 17.2485 12.146 17.2485L17.1997 17.2485C19.2017 17.2485 20.6421 15.8081 20.6421 13.7939C20.6421 11.7798 19.2139 10.3516 17.1997 10.3516L16.7847 10.3516C16.8457 10.7056 16.9189 11.0962 16.8457 11.6699L17.1265 11.6699C18.3838 11.6699 19.2505 12.5366 19.2505 13.7939C19.2505 15.0513 18.3838 15.9302 17.1265 15.9302L12.207 15.9302C10.9497 15.9302 10.083 15.0513 10.083 13.7939C10.083 12.5366 10.9497 11.6699 12.207 11.6699L14.0259 11.6699C14.1846 11.3159 14.1357 10.6812 13.7573 10.3516L12.146 10.3516C10.1318 10.3516 8.70361 11.7798 8.70361 13.7939Z" fill="#5ac8f5"/>
 </g>
</svg>
