<?xml version="1.0" encoding="UTF-8"?>
<!--Generator: Apple Native CoreSVG 175.5-->
<!DOCTYPE svg
PUBLIC "-//W3C//DTD SVG 1.1//EN"
       "http://www.w3.org/Graphics/SVG/1.1/DTD/svg11.dtd">
<svg version="1.1" xmlns="http://www.w3.org/2000/svg" xmlns:xlink="http://www.w3.org/1999/xlink" width="30.6885" height="23.2056">
 <g>
  <rect height="23.2056" opacity="0" width="30.6885" x="0" y="0"/>
  <path d="M24.1211 21.2158C27.8076 21.2158 30.6885 18.5181 30.6885 15.1611C30.6885 12.5977 29.2114 10.376 26.8311 9.375C26.8555 3.93066 22.937 0 17.9443 0C14.6362 0 12.2803 1.77002 10.8154 3.90625C7.8125 3.02734 4.54102 5.31006 4.47998 8.72803C1.72119 9.16748 0 11.6333 0 14.6118C0 18.2007 3.13721 21.2158 7.31201 21.2158ZM24.1211 19.2505L7.31201 19.2505C4.23584 19.2505 1.96533 17.1021 1.96533 14.6118C1.96533 12.1704 3.44238 10.2295 6.03027 10.2295C6.20117 10.2295 6.26221 10.144 6.26221 9.98535C6.26221 6.22559 8.97217 5.11475 11.4746 5.93262C11.6211 5.98145 11.7065 5.94482 11.7798 5.81055C12.9639 3.69873 14.7827 1.96533 17.9443 1.96533C21.9482 1.96533 24.7192 5.13916 24.9268 8.76465C24.9634 9.32617 24.9268 9.98535 24.8779 10.5591C24.8657 10.7178 24.9268 10.8032 25.0732 10.8398C27.2949 11.3281 28.7231 12.9517 28.7231 15.1611C28.7231 17.4316 26.7212 19.2505 24.1211 19.2505Z" fill="#5ac8f5" fill-opacity="0.5"/>
  <path d="M14.4775 16.4185C14.8804 16.4185 15.2222 16.2231 15.4541 15.8569L20.2271 8.08105C20.3491 7.88574 20.5078 7.60498 20.5078 7.32422C20.5078 6.78711 20.0439 6.38428 19.4702 6.38428C19.1284 6.38428 18.7988 6.5918 18.6035 6.93359L14.4287 13.9038L12.3291 11.1572C12.0972 10.8398 11.792 10.6689 11.4258 10.6689C10.8765 10.6689 10.437 11.1084 10.437 11.6821C10.437 11.9385 10.5347 12.1826 10.7178 12.4268L13.4521 15.8691C13.7451 16.2476 14.0747 16.4185 14.4775 16.4185Z" fill="#5ac8f5"/>
 </g>
</svg>
