<?xml version="1.0" encoding="UTF-8"?>
<!--Generator: Apple Native CoreSVG 175.5-->
<!DOCTYPE svg
PUBLIC "-//W3C//DTD SVG 1.1//EN"
       "http://www.w3.org/Graphics/SVG/1.1/DTD/svg11.dtd">
<svg version="1.1" xmlns="http://www.w3.org/2000/svg" xmlns:xlink="http://www.w3.org/1999/xlink" width="26.9043" height="26.8188">
 <g>
  <rect height="26.8188" opacity="0" width="26.9043" x="0" y="0"/>
  <path d="M7.50732 26.8188C8.10547 26.8188 8.52051 26.5015 9.26514 25.8423L13.4766 22.0947L21.3135 22.0947C24.9512 22.0947 26.9043 20.0806 26.9043 16.5039L26.9043 7.15332C26.9043 3.57666 24.9512 1.5625 21.3135 1.5625L5.59082 1.5625C1.95312 1.5625 0 3.56445 0 7.15332L0 16.5039C0 20.0928 1.95312 22.0947 5.59082 22.0947L6.17676 22.0947L6.17676 25.2686C6.17676 26.2085 6.65283 26.8188 7.50732 26.8188ZM8.00781 24.585L8.00781 21.0449C8.00781 20.3857 7.75146 20.1294 7.09229 20.1294L5.59082 20.1294C3.125 20.1294 1.96533 18.8721 1.96533 16.4917L1.96533 7.15332C1.96533 4.77295 3.125 3.52783 5.59082 3.52783L21.3135 3.52783C23.7671 3.52783 24.939 4.77295 24.939 7.15332L24.939 16.4917C24.939 18.8721 23.7671 20.1294 21.3135 20.1294L13.4033 20.1294C12.7197 20.1294 12.3779 20.2271 11.9141 20.7031ZM8.34961 16.7603L14.8071 16.7603C16.0278 16.7603 16.748 16.0522 16.748 14.8438L16.748 8.83789C16.748 7.62939 16.0889 6.93359 14.8682 6.93359L8.34961 6.93359C7.18994 6.93359 6.40869 7.62939 6.40869 8.83789L6.40869 14.8438C6.40869 16.0522 7.14111 16.7603 8.34961 16.7603ZM17.4316 13.5132L19.812 15.5273C20.0317 15.7104 20.2637 15.8325 20.4834 15.8325C20.9473 15.8325 21.2646 15.4907 21.2646 14.9902L21.2646 8.69141C21.2646 8.19092 20.9473 7.84912 20.4834 7.84912C20.2637 7.84912 20.0195 7.97119 19.812 8.14209L17.4316 10.1807Z" fill="#5ac8f5"/>
 </g>
</svg>
