<?xml version="1.0" encoding="UTF-8"?>
<!--Generator: Apple Native CoreSVG 175.5-->
<!DOCTYPE svg
PUBLIC "-//W3C//DTD SVG 1.1//EN"
       "http://www.w3.org/Graphics/SVG/1.1/DTD/svg11.dtd">
<svg version="1.1" xmlns="http://www.w3.org/2000/svg" xmlns:xlink="http://www.w3.org/1999/xlink" width="16.7358" height="29.2603">
 <g>
  <rect height="29.2603" opacity="0" width="16.7358" x="0" y="0"/>
  <path d="M2.16064 3.44238C2.16064 4.79736 2.9541 5.60303 4.27246 5.60303L12.4512 5.60303C13.7817 5.60303 14.5752 4.79736 14.5752 3.44238L14.5752 2.16064C14.5752 0.805664 13.7817 0 12.4512 0L4.27246 0C2.9541 0 2.16064 0.805664 2.16064 2.16064ZM3.88184 3.41797L3.88184 2.18506C3.88184 1.89209 4.05273 1.70898 4.35791 1.70898L12.3657 1.70898C12.6709 1.70898 12.854 1.89209 12.854 2.18506L12.854 3.41797C12.854 3.69873 12.6709 3.89404 12.3657 3.89404L4.35791 3.89404C4.05273 3.89404 3.88184 3.69873 3.88184 3.41797ZM5.66406 7.82471L5.66406 4.93164L3.94287 4.93164L3.94287 7.82471ZM12.793 7.82471L12.793 4.93164L11.0718 4.93164L11.0718 7.82471ZM0 25.2197C0 27.6489 1.5625 29.2236 3.94287 29.2236L12.793 29.2236C15.1733 29.2236 16.7358 27.6489 16.7358 25.2197L16.7358 11.377C16.7358 8.94775 15.1733 7.37305 12.793 7.37305L3.94287 7.37305C1.5625 7.37305 0 8.94775 0 11.377ZM1.86768 25.1953L1.86768 11.4014C1.86768 10.0952 2.72217 9.25293 4.04053 9.25293L12.6953 9.25293C14.0137 9.25293 14.8682 10.0952 14.8682 11.4014L14.8682 25.1953C14.8682 26.5137 14.0137 27.356 12.6953 27.356L4.04053 27.356C2.72217 27.356 1.86768 26.5137 1.86768 25.1953Z" fill="#5ac8f5" fill-opacity="0.5"/>
  <path d="M3.80859 19.165C3.80859 19.6777 4.15039 20.0073 4.65088 20.0073L6.65283 20.0073L6.65283 21.9971C6.65283 22.5098 6.98242 22.8516 7.49512 22.8516L9.22852 22.8516C9.74121 22.8516 10.0708 22.5098 10.0708 21.9971L10.0708 20.0073L12.0728 20.0073C12.561 20.0073 12.9272 19.6777 12.9272 19.165L12.9272 17.4316C12.9272 16.9189 12.561 16.5894 12.0728 16.5894L10.0708 16.5894L10.0708 14.5996C10.0708 14.0869 9.74121 13.7573 9.22852 13.7573L7.49512 13.7573C6.98242 13.7573 6.65283 14.0869 6.65283 14.5996L6.65283 16.5894L4.65088 16.5894C4.15039 16.5894 3.80859 16.9189 3.80859 17.4316Z" fill="#5ac8f5"/>
 </g>
</svg>
