<?xml version="1.0" encoding="UTF-8"?>
<!--Generator: Apple Native CoreSVG 175.5-->
<!DOCTYPE svg
PUBLIC "-//W3C//DTD SVG 1.1//EN"
       "http://www.w3.org/Graphics/SVG/1.1/DTD/svg11.dtd">
<svg version="1.1" xmlns="http://www.w3.org/2000/svg" xmlns:xlink="http://www.w3.org/1999/xlink" width="24.9023" height="24.9146">
 <g>
  <rect height="24.9146" opacity="0" width="24.9023" x="0" y="0"/>
  <path d="M12.4512 24.9023C19.2627 24.9023 24.9023 19.2505 24.9023 12.4512C24.9023 5.63965 19.2505 0 12.439 0C5.63965 0 0 5.63965 0 12.4512C0 19.2505 5.65186 24.9023 12.4512 24.9023ZM12.4512 22.8271C6.68945 22.8271 2.0874 18.2129 2.0874 12.4512C2.0874 6.68945 6.67725 2.0752 12.439 2.0752C18.2007 2.0752 22.8271 6.68945 22.8271 12.4512C22.8271 18.2129 18.2129 22.8271 12.4512 22.8271ZM9.98535 17.688C10.4736 17.688 10.73 17.3462 10.73 16.8701L10.73 15.4297L11.4014 15.4297C11.8164 15.4297 12.085 15.1855 12.085 14.7583C12.085 14.3188 11.8164 14.0625 11.4014 14.0625L10.73 14.0625L10.73 8.34961C10.73 7.6416 10.2417 7.18994 9.53369 7.18994C8.82568 7.18994 8.38623 7.4585 7.99561 8.12988C6.97021 9.83887 5.7373 11.9385 4.91943 13.4155C4.72412 13.7939 4.65088 14.0625 4.65088 14.3921C4.65088 15.0391 5.07812 15.4297 5.68848 15.4297L9.25293 15.4297L9.25293 16.8701C9.25293 17.334 9.50928 17.688 9.98535 17.688ZM9.25293 14.0625L6.23779 14.0625L6.23779 14.0137C6.95801 12.6343 8.21533 10.4858 9.19189 8.83789L9.25293 8.83789ZM16.7725 17.7124C18.8721 17.7124 20.2637 15.6982 20.2637 12.4512C20.2637 9.2041 18.8721 7.18994 16.7725 7.18994C14.6729 7.18994 13.2812 9.2041 13.2812 12.4512C13.2812 15.6982 14.6729 17.7124 16.7725 17.7124ZM16.7725 16.2354C15.6128 16.2354 14.8804 14.7949 14.8804 12.4512C14.8804 10.1074 15.6128 8.66699 16.7725 8.66699C17.9321 8.66699 18.6646 10.1074 18.6646 12.4512C18.6646 14.7949 17.9443 16.2354 16.7725 16.2354Z" fill="#5ac8f5"/>
 </g>
</svg>
