<?xml version="1.0" encoding="UTF-8"?>
<!--Generator: Apple Native CoreSVG 175.5-->
<!DOCTYPE svg
PUBLIC "-//W3C//DTD SVG 1.1//EN"
       "http://www.w3.org/Graphics/SVG/1.1/DTD/svg11.dtd">
<svg version="1.1" xmlns="http://www.w3.org/2000/svg" xmlns:xlink="http://www.w3.org/1999/xlink" width="17.749" height="28.9185">
 <g>
  <rect height="28.9185" opacity="0" width="17.749" x="0" y="0"/>
  <path d="M0 23.2056C0 26.7944 3.2959 28.9185 8.87451 28.9185C14.4531 28.9185 17.749 26.7944 17.749 23.2056L17.749 5.7251C17.749 4.30908 17.2363 3.16162 16.3818 2.35596C15.9424 1.89209 15.3931 1.87988 15.1489 2.31934C14.5142 3.72314 11.8652 4.56543 8.87451 4.56543C5.88379 4.56543 3.22266 3.72314 2.58789 2.31934C2.34375 1.87988 1.79443 1.89209 1.36719 2.35596C0.512695 3.16162 0 4.30908 0 5.7251ZM8.87451 3.14941C11.6577 3.14941 13.916 2.45361 13.916 1.57471C13.916 0.720215 11.6577 0.012207 8.87451 0.012207C6.09131 0.012207 3.83301 0.720215 3.83301 1.57471C3.83301 2.45361 6.09131 3.14941 8.87451 3.14941Z" fill="#5ac8f5"/>
 </g>
</svg>
