<?xml version="1.0" encoding="UTF-8"?>
<!--Generator: Apple Native CoreSVG 175.5-->
<!DOCTYPE svg
PUBLIC "-//W3C//DTD SVG 1.1//EN"
       "http://www.w3.org/Graphics/SVG/1.1/DTD/svg11.dtd">
<svg version="1.1" xmlns="http://www.w3.org/2000/svg" xmlns:xlink="http://www.w3.org/1999/xlink" width="25.9155" height="25.9399">
 <g>
  <rect height="25.9399" opacity="0" width="25.9155" x="0" y="0"/>
  <path d="M0 5.9082C0 6.64062 0.488281 7.1167 1.24512 7.1167L2.75879 7.1167L2.75879 3.17383C2.75879 2.40479 2.11182 1.83105 1.37939 1.83105C0.646973 1.81885 0 2.39258 0 3.17383ZM3.16162 0C4.11377 0.537109 4.41895 1.25732 4.41895 2.56348L4.41895 22.7417C4.41895 24.4629 5.40771 25.4517 6.90918 25.4517C8.30078 25.4517 9.22852 24.4995 9.22852 22.8394L9.22852 19.4702C9.22852 17.8101 9.98535 16.9556 11.6577 16.9556L23.4131 16.9556L23.4131 3.83301C23.4131 1.28174 22.1436 0 19.6289 0ZM9.13086 6.37207C9.13086 5.95703 9.46045 5.62744 9.8999 5.62744L18.2983 5.62744C18.7378 5.62744 19.0552 5.95703 19.0552 6.37207C19.0552 6.79932 18.7378 7.12891 18.2983 7.12891L9.8999 7.12891C9.46045 7.12891 9.13086 6.79932 9.13086 6.37207ZM9.13086 10.6567C9.13086 10.2295 9.46045 9.8877 9.8999 9.8877L14.2822 9.8877C14.7217 9.8877 15.0391 10.2295 15.0391 10.6567C15.0391 11.0718 14.7217 11.3892 14.2822 11.3892L9.8999 11.3892C9.46045 11.3892 9.13086 11.0718 9.13086 10.6567ZM9.729 25.9277L22.0703 25.9277C24.3896 25.9277 25.9155 24.3408 25.9155 21.936L25.9155 19.8364C25.9155 19.104 25.4272 18.6157 24.6704 18.6157L12.146 18.6157C11.3892 18.6157 10.8887 19.104 10.8887 19.8364L10.8887 22.229C10.8887 23.6328 10.7056 24.8779 9.729 25.9277Z" fill="#5ac8f5"/>
 </g>
</svg>
