<?xml version="1.0" encoding="UTF-8"?>
<!--Generator: Apple Native CoreSVG 175.5-->
<!DOCTYPE svg
PUBLIC "-//W3C//DTD SVG 1.1//EN"
       "http://www.w3.org/Graphics/SVG/1.1/DTD/svg11.dtd">
<svg version="1.1" xmlns="http://www.w3.org/2000/svg" xmlns:xlink="http://www.w3.org/1999/xlink" width="31.1976" height="25.9155">
 <g>
  <rect height="25.9155" opacity="0" width="31.1976" x="0" y="0"/>
  <path d="M0.179545 23.7061C-0.259908 24.707 0.0940956 25.8789 1.38804 25.8789C1.87632 25.8789 2.26695 25.6714 2.85288 25.1953L6.19761 22.3999C6.33189 22.29 6.41734 22.2412 6.50279 22.2412C6.58824 22.2412 6.67369 22.29 6.80796 22.3999L10.1527 25.1953C10.7264 25.6714 11.1293 25.8789 11.6175 25.8789C12.9115 25.8789 13.2655 24.707 12.826 23.7061L7.43052 11.5112L7.43052 5.84717C7.43052 3.06396 7.89439 0.98877 7.89439 0.598145C7.89439 0.256348 7.67466 0.0488281 7.35728 0.0488281C7.14976 0.0488281 6.95445 0.183105 6.66148 0.500488L3.97593 3.58887C3.7562 3.84521 3.80503 4.15039 4.08579 4.29688C5.17222 4.76074 5.56285 4.94385 5.56285 5.84717L5.56285 11.499ZM9.3104 21.4844C8.98081 21.4844 8.71226 21.2036 8.71226 20.874C8.71226 20.5444 8.99302 20.2515 9.3104 20.2515C9.6522 20.2515 9.93296 20.5444 9.93296 20.874C9.93296 21.1914 9.63999 21.4844 9.3104 21.4844ZM8.65122 19.9097C8.33384 19.9097 8.04087 19.6289 8.04087 19.2993C8.04087 18.9697 8.33384 18.6768 8.65122 18.6768C8.99302 18.6768 9.27378 18.9575 9.27378 19.2993C9.27378 19.6289 8.99302 19.9097 8.65122 19.9097ZM7.99204 18.3228C7.66245 18.3228 7.38169 18.042 7.38169 17.7246C7.38169 17.395 7.66245 17.0898 7.99204 17.0898C8.32163 17.0898 8.6024 17.3828 8.6024 17.7246C8.6024 18.0542 8.32163 18.3228 7.99204 18.3228Z" fill="#5ac8f5"/>
  <path d="M16.2196 25.9155C19.4789 25.9155 21.6517 23.9868 21.6517 21.0693C21.6517 18.6523 20.138 17.5415 20.138 16.7358C20.138 15.7837 20.9681 15.0146 20.9681 13.7939C20.9681 12.915 20.3944 12.2925 19.5765 12.2925C18.8319 12.2925 18.3924 12.7441 18.0751 13.1836C17.8309 13.5254 17.6478 13.7817 17.4769 13.7817C17.1717 13.7817 17.1229 13.208 17.1229 12.7808L17.1351 5.28564C17.1351 4.91943 17.1595 4.87061 17.367 4.79736C17.6478 4.71191 17.721 4.56543 17.7455 4.22363L17.9896 1.7334C18.014 1.51367 17.9164 1.30615 17.7455 1.14746L16.6957 0.231934C16.5492 0.0976562 16.3661 0.0488281 16.2196 0.0488281C16.0609 0.0488281 15.89 0.0976562 15.7313 0.231934L14.6815 1.14746C14.5228 1.29395 14.4252 1.51367 14.4374 1.7334L14.6815 4.22363C14.7181 4.57764 14.8158 4.72412 15.0721 4.79736C15.2552 4.84619 15.2918 4.91943 15.2918 5.28564L15.3163 12.7686C15.3163 13.3179 15.2308 13.7817 14.9745 13.7817C14.7914 13.7817 14.6205 13.501 14.3519 13.1836C14.0467 12.7441 13.6073 12.2925 12.8749 12.2925C12.0448 12.2925 11.471 12.915 11.471 13.7939C11.471 15.0146 12.2889 15.7837 12.2889 16.7358C12.2889 17.1997 11.8006 17.7612 11.3734 18.6157L13.2289 22.8149C13.5951 23.6328 13.7293 24.0967 13.7293 24.6338C13.7293 24.9146 13.6805 25.1831 13.5829 25.415C14.3763 25.7324 15.2674 25.9155 16.2196 25.9155ZM13.534 20.8618C13.2777 20.7764 13.1312 20.4712 13.2167 20.2148L14.2665 17.334C14.3641 17.0654 14.6571 16.9312 14.9256 17.0288C15.182 17.1143 15.3407 17.4194 15.243 17.688L14.1932 20.5566C14.0956 20.8252 13.8026 20.9595 13.534 20.8618ZM18.9051 20.8618C18.6366 20.9595 18.3436 20.8252 18.246 20.5566L17.1961 17.688C17.0985 17.4194 17.245 17.1143 17.5013 17.0288C17.7699 16.9312 18.0628 17.0654 18.1605 17.334L19.2103 20.2148C19.2958 20.4712 19.1615 20.7764 18.9051 20.8618Z" fill="#5ac8f5" fill-opacity="0.5"/>
  <path d="M25.7899 25.8423C29.098 25.8423 31.1976 24.2798 31.1976 21.7896C31.1976 19.2993 29.5619 18.6768 29.5619 17.5903C29.5619 16.7603 29.9281 16.0278 29.9281 15.0146C29.9281 13.3667 28.744 12.3169 26.7054 12.0728L26.7054 4.83398C26.7054 4.32129 26.7787 4.1748 27.0716 3.97949C27.3036 3.8208 27.389 3.68652 27.3768 3.479L27.1937 0.463867C27.1693 0.219727 26.9984 0.0488281 26.7787 0.0488281L24.7767 0.0488281C24.557 0.0488281 24.3861 0.219727 24.3739 0.463867L24.1908 3.479C24.1786 3.69873 24.264 3.8208 24.496 3.97949C24.7889 4.18701 24.8622 4.3335 24.8622 4.83398L24.8622 12.0728C22.8114 12.3169 21.6395 13.3667 21.6395 15.0146C21.6395 16.0278 22.0057 16.7603 22.0057 17.5903C22.0057 17.8467 21.9081 18.0786 21.7616 18.3105C22.1034 19.043 22.3963 19.9707 22.3963 21.0693C22.3963 22.3389 22.0301 23.4497 21.3832 24.3408C22.3109 25.3052 23.8368 25.8423 25.7899 25.8423ZM25.7899 18.5913C25.0209 18.5913 24.4105 17.981 24.4105 17.2363C24.4105 16.4795 25.0331 15.8691 25.7899 15.8691C26.5345 15.8691 27.1449 16.4795 27.1449 17.2363C27.1449 17.981 26.5345 18.5913 25.7899 18.5913ZM24.1786 22.0337C23.8612 22.0337 23.617 21.7896 23.617 21.4844C23.617 21.1792 23.8734 20.9106 24.1786 20.9106L27.3768 20.9106C27.682 20.9106 27.9261 21.167 27.9261 21.4844C27.9261 21.7896 27.682 22.0337 27.3768 22.0337Z" fill="#5ac8f5" fill-opacity="0.25"/>
 </g>
</svg>
