<?xml version="1.0" encoding="UTF-8"?>
<!--Generator: Apple Native CoreSVG 175.5-->
<!DOCTYPE svg
PUBLIC "-//W3C//DTD SVG 1.1//EN"
       "http://www.w3.org/Graphics/SVG/1.1/DTD/svg11.dtd">
<svg version="1.1" xmlns="http://www.w3.org/2000/svg" xmlns:xlink="http://www.w3.org/1999/xlink" width="23.0957" height="30.6397">
 <g>
  <rect height="30.6397" opacity="0" width="23.0957" x="0" y="0"/>
  <path d="M3.83301 23.3094L19.2627 23.3094C21.8262 23.3094 23.0957 22.0398 23.0957 19.5252L23.0957 11.1145C23.0957 8.5999 21.8262 7.33037 19.2627 7.33037L3.83301 7.33037C1.26953 7.33037 0 8.58769 0 11.1145L0 19.5252C0 22.052 1.26953 23.3094 3.83301 23.3094ZM3.85742 21.344C2.63672 21.344 1.96533 20.6849 1.96533 19.4275L1.96533 11.2122C1.96533 9.94267 2.63672 9.2957 3.85742 9.2957L19.2383 9.2957C20.4468 9.2957 21.1304 9.94267 21.1304 11.2122L21.1304 19.4275C21.1304 20.6849 20.4468 21.344 19.2383 21.344Z" fill="#5ac8f5" fill-opacity="0.5"/>
  <path d="M14.6973 3.85136L12.4268 0.457809C12.0239-0.164749 11.145-0.140335 10.7422 0.457809L8.43506 3.85136C7.89795 4.63261 8.19092 5.46269 9.13086 5.46269L14.0015 5.46269C14.917 5.46269 15.1978 4.6082 14.6973 3.85136ZM14.6973 26.7762C15.1978 26.0315 14.917 25.177 14.0015 25.177L9.13086 25.177C8.19092 25.177 7.89795 25.9949 8.43506 26.7762L10.7422 30.1819C11.145 30.7801 12.0239 30.7923 12.4268 30.1819Z" fill="#5ac8f5"/>
 </g>
</svg>
