<?xml version="1.0" encoding="UTF-8"?>
<!--Generator: Apple Native CoreSVG 175.5-->
<!DOCTYPE svg
PUBLIC "-//W3C//DTD SVG 1.1//EN"
       "http://www.w3.org/Graphics/SVG/1.1/DTD/svg11.dtd">
<svg version="1.1" xmlns="http://www.w3.org/2000/svg" xmlns:xlink="http://www.w3.org/1999/xlink" width="23.773" height="27.5513">
 <g>
  <rect height="27.5513" opacity="0" width="23.773" x="0" y="0"/>
  <path d="M21.7285 26.3794L18.0664 22.0093C17.7002 21.582 17.6514 21.4844 17.5049 21.0327L17.2363 20.2026L19.2017 17.7368L19.7876 20.4956L23.4131 24.7925C24.5605 26.1719 22.6807 27.5146 21.7285 26.3794ZM12.793 26.0132C12.0361 27.5391 9.79004 26.5991 10.6079 24.939L13.0981 19.8975C13.2935 19.519 13.5498 19.104 13.7939 18.7744L15.3687 16.5405L15.2588 16.2109C14.8315 14.9414 14.6729 14.1846 14.5874 12.9272L14.3433 9.39941C14.2212 7.72705 15.21 6.45752 16.9189 6.45752C18.2129 6.45752 19.0796 7.10449 20.2637 8.26416L22.1313 10.1074C22.7417 10.7056 22.937 11.1938 22.998 11.9873L23.23 14.8682C23.291 15.6006 22.876 16.1133 22.2046 16.1377C21.521 16.1865 21.106 15.7837 21.0449 15.0024L20.7764 11.8408L19.873 11.0352C19.5557 10.7422 19.1284 10.9375 19.1528 11.2671L19.3481 13.9404C19.458 15.2954 19.1406 15.9424 18.2007 17.1021L15.7349 20.2026C15.4785 20.52 15.4541 20.6421 15.3442 20.8374ZM8.55713 11.2183L11.3647 11.2183L13.147 9.25293L13.3545 12.1948L12.6465 12.9028C12.2559 13.2935 11.9019 13.4155 11.1816 13.4155L8.55713 13.4155C7.8125 13.4155 7.33643 13.0005 7.33643 12.3169C7.33643 11.6577 7.82471 11.2183 8.55713 11.2183ZM15.564 5.35889C14.0869 5.35889 12.9028 4.1626 12.9028 2.69775C12.9028 1.2207 14.0869 0.0366211 15.564 0.0366211C17.041 0.0366211 18.2251 1.2207 18.2251 2.69775C18.2251 4.1626 17.041 5.35889 15.564 5.35889Z" fill="#5ac8f5"/>
  <path d="M0 26.062C0 26.6235 0.463867 27.0752 1.01318 27.0752C1.57471 27.0752 2.03857 26.6235 2.03857 26.062L2.03857 1.01318C2.03857 0.45166 1.57471 0 1.01318 0C0.463867 0 0 0.45166 0 1.01318Z" fill="#5ac8f5" fill-opacity="0.5"/>
 </g>
</svg>
