<?xml version="1.0" encoding="UTF-8"?>
<!--Generator: Apple Native CoreSVG 175.5-->
<!DOCTYPE svg
PUBLIC "-//W3C//DTD SVG 1.1//EN"
       "http://www.w3.org/Graphics/SVG/1.1/DTD/svg11.dtd">
<svg version="1.1" xmlns="http://www.w3.org/2000/svg" xmlns:xlink="http://www.w3.org/1999/xlink" width="20.5322" height="26.1841">
 <g>
  <rect height="26.1841" opacity="0" width="20.5322" x="0" y="0"/>
  <path d="M0 25.2075C0 25.7935 0.390625 26.1719 0.976562 26.1719L19.5557 26.1719C20.1416 26.1719 20.5322 25.7935 20.5322 25.2075L20.5322 0.976562C20.5322 0.390625 20.1416 0 19.5557 0L0.976562 0C0.390625 0 0 0.390625 0 0.976562ZM1.96533 23.8525L1.96533 2.33154C1.96533 2.06299 2.06299 1.96533 2.31934 1.96533L18.2129 1.96533C18.4692 1.96533 18.5669 2.06299 18.5669 2.33154L18.5669 23.8525C18.5669 24.1211 18.4692 24.2065 18.2129 24.2065L2.31934 24.2065C2.06299 24.2065 1.96533 24.1211 1.96533 23.8525ZM3.28369 22.1802C3.28369 22.6318 3.54004 22.9004 3.9917 22.9004L16.5405 22.9004C16.9922 22.9004 17.2485 22.6318 17.2485 22.1802L17.2485 4.00391C17.2485 3.55225 16.9922 3.28369 16.5405 3.28369L3.9917 3.28369C3.54004 3.28369 3.28369 3.55225 3.28369 4.00391ZM4.5166 21.3867L4.5166 4.79736C4.5166 4.61426 4.60205 4.5166 4.78516 4.5166L15.7471 4.5166C15.9302 4.5166 16.0156 4.61426 16.0156 4.79736L16.0156 21.3867C16.0156 21.5698 15.9302 21.6675 15.7471 21.6675L4.78516 21.6675C4.60205 21.6675 4.5166 21.5698 4.5166 21.3867ZM4.46777 22.2168L16.04 22.2168C16.5405 22.2168 16.7725 21.8994 16.7725 21.4355C16.7725 20.0562 14.6973 16.4551 10.2539 16.4551C5.82275 16.4551 3.73535 20.0562 3.73535 21.4355C3.73535 21.8994 3.96729 22.2168 4.46777 22.2168ZM10.2539 15.4175C12.0605 15.4297 13.501 13.9038 13.501 11.8774C13.501 9.97314 12.0605 8.39844 10.2539 8.39844C8.45947 8.39844 7.00684 9.97314 7.00684 11.8774C7.00684 13.9038 8.45947 15.4053 10.2539 15.4175Z" fill="#5ac8f5"/>
 </g>
</svg>
