<?xml version="1.0" encoding="UTF-8"?>
<!--Generator: Apple Native CoreSVG 175.5-->
<!DOCTYPE svg
PUBLIC "-//W3C//DTD SVG 1.1//EN"
       "http://www.w3.org/Graphics/SVG/1.1/DTD/svg11.dtd">
<svg version="1.1" xmlns="http://www.w3.org/2000/svg" xmlns:xlink="http://www.w3.org/1999/xlink" width="34.8389" height="23.8159">
 <g>
  <rect height="23.8159" opacity="0" width="34.8389" x="0" y="0"/>
  <path d="M17.4194 23.8037C23.9258 23.8037 29.3335 18.4082 29.3335 11.9019C29.3335 5.39551 23.9258 0 17.4072 0C10.9009 0 5.51758 5.3833 5.51758 11.9019C5.51758 18.4082 10.9131 23.8037 17.4194 23.8037ZM17.4194 21.7285C11.9751 21.7285 7.60498 17.3584 7.60498 11.9019C7.60498 6.43311 11.9629 2.06299 17.4072 2.06299C22.8638 2.06299 27.2461 6.43311 27.2583 11.9019C27.2705 17.3462 22.8882 21.7285 17.4194 21.7285ZM0 11.9019C0 15.7715 1.25732 19.3237 3.38135 22.2168C3.75977 22.7417 4.40674 22.7905 4.89502 22.3999C5.33447 22.0215 5.39551 21.4355 5.0415 20.9473C3.18604 18.4204 2.0874 15.2832 2.0874 11.9019C2.0874 8.5083 3.18604 5.3833 5.0415 2.83203C5.39551 2.36816 5.34668 1.77002 4.89502 1.3916C4.40674 1.00098 3.75977 1.06201 3.38135 1.57471C1.25732 4.46777 0 8.03223 0 11.9019ZM34.8389 11.9019C34.8389 8.03223 33.5938 4.46777 31.4575 1.57471C31.0791 1.06201 30.4321 1.00098 29.9438 1.3916C29.4922 1.77002 29.4556 2.36816 29.7974 2.83203C31.665 5.3833 32.7515 8.5083 32.7515 11.9019C32.7515 15.2832 31.665 18.4204 29.7974 20.9473C29.4556 21.4355 29.5044 22.0215 29.9438 22.3999C30.4321 22.7905 31.0791 22.7417 31.4575 22.2168C33.5938 19.3237 34.8389 15.7715 34.8389 11.9019Z" fill="#5ac8f5" fill-opacity="0.5"/>
  <path d="M14.6362 17.4316L20.9106 17.4316C21.3745 17.4316 21.7285 17.1265 21.7285 16.6382C21.7285 16.1255 21.3745 15.8325 20.9106 15.8325L16.4551 15.8325L16.4551 15.7471L19.3481 12.6587C20.4346 11.499 21.1914 10.5347 21.1914 9.17969C21.1914 7.32422 19.7021 6.09131 17.4438 6.09131C15.7104 6.09131 14.1724 7.14111 13.7817 8.5083C13.7329 8.69141 13.7085 8.83789 13.7085 8.99658C13.7085 9.47266 14.0381 9.77783 14.502 9.77783C14.9414 9.77783 15.1611 9.50928 15.3687 9.16748C15.6982 8.42285 16.333 7.6416 17.5293 7.6416C18.689 7.6416 19.458 8.31299 19.458 9.32617C19.458 10.2173 18.7134 10.9619 17.9932 11.7188L14.0869 15.9058C13.8794 16.1377 13.7695 16.3818 13.7695 16.6382C13.7695 17.1265 14.0869 17.4316 14.6362 17.4316Z" fill="#5ac8f5"/>
 </g>
</svg>
