<?xml version="1.0" encoding="UTF-8"?>
<!--Generator: Apple Native CoreSVG 175.5-->
<!DOCTYPE svg
PUBLIC "-//W3C//DTD SVG 1.1//EN"
       "http://www.w3.org/Graphics/SVG/1.1/DTD/svg11.dtd">
<svg version="1.1" xmlns="http://www.w3.org/2000/svg" xmlns:xlink="http://www.w3.org/1999/xlink" width="35.2051" height="27.1851">
 <g>
  <rect height="27.1851" opacity="0" width="35.2051" x="0" y="0"/>
  <path d="M1.37939 23.5352L33.8257 23.5352C34.5825 23.5352 35.2051 22.9126 35.2051 22.1436C35.2051 21.3745 34.5825 20.752 33.8257 20.752L1.37939 20.752C0.622559 20.752 0 21.3745 0 22.1436C0 22.9126 0.622559 23.5352 1.37939 23.5352ZM20.1416 5.63965L28.0151 5.63965C28.7964 5.63965 29.187 6.03027 29.187 6.81152L29.187 21.6553L31.1523 21.6553L31.1523 6.26221C31.1523 4.55322 30.2368 3.67432 28.54 3.67432L20.1416 3.67432ZM15.0635 3.67432L6.66504 3.67432C5.05371 3.67432 4.05273 4.55322 4.05273 6.26221L4.05273 21.6553L6.01807 21.6553L6.01807 6.81152C6.01807 6.03027 6.40869 5.63965 7.18994 5.63965L15.0635 5.63965ZM16.7358 0.878906L16.7358 10.5835L16.8457 13.1592L14.4653 10.4858L13.7573 9.79004C13.5864 9.63135 13.3667 9.53369 13.1104 9.53369C12.6099 9.53369 12.2681 9.8877 12.2681 10.3638C12.2681 10.6201 12.3657 10.8398 12.5366 11.0107L16.9434 15.4419C17.1631 15.6494 17.395 15.7593 17.6025 15.7593C17.8101 15.7593 18.0542 15.6494 18.2617 15.4419L22.6685 11.0107C22.8394 10.8398 22.937 10.6201 22.937 10.3638C22.937 9.8877 22.5952 9.53369 22.0947 9.53369C21.8384 9.53369 21.6187 9.63135 21.4478 9.79004L20.7397 10.4858L18.3594 13.1592L18.4814 10.5835L18.4814 0.878906C18.4814 0.32959 18.0542 0 17.6025 0C17.1509 0 16.7358 0.32959 16.7358 0.878906Z" fill="#5ac8f5"/>
 </g>
</svg>
