<?xml version="1.0" encoding="UTF-8"?>
<!--Generator: Apple Native CoreSVG 175.5-->
<!DOCTYPE svg
PUBLIC "-//W3C//DTD SVG 1.1//EN"
       "http://www.w3.org/Graphics/SVG/1.1/DTD/svg11.dtd">
<svg version="1.1" xmlns="http://www.w3.org/2000/svg" xmlns:xlink="http://www.w3.org/1999/xlink" width="34.1156" height="30.9937">
 <g>
  <rect height="30.9937" opacity="0" width="34.1156" x="0" y="0"/>
  <path d="M15.4907 0C6.93359 0 0 6.93359 0 15.4907C0 24.0479 6.93359 30.9814 15.4907 30.9814C22.3022 30.9814 28.0884 26.5747 30.1636 20.459C29.4556 20.5566 28.772 20.3613 28.2593 19.9463C26.416 25.2319 21.3989 29.0161 15.4907 29.0161C8.02002 29.0161 1.96533 22.9614 1.96533 15.4907C1.96533 8.02002 8.02002 1.96533 15.4907 1.96533C21.4111 1.96533 26.4282 5.76172 28.2593 11.0596C28.7842 10.6323 29.4678 10.4492 30.1758 10.5469C28.1128 4.41895 22.3145 0 15.4907 0Z" fill="#5ac8f5" fill-opacity="0.5"/>
  <path d="M15.4907 26.2085C21.4111 26.2085 26.2207 21.4111 26.2207 15.4907C26.2207 9.57031 21.4111 4.76074 15.4907 4.76074C9.57031 4.76074 4.76074 9.57031 4.76074 15.4907C4.76074 21.4111 9.57031 26.2085 15.4907 26.2085ZM15.4907 24.2432C10.6567 24.2432 6.72607 20.3247 6.72607 15.4907C6.72607 10.6567 10.6567 6.72607 15.4907 6.72607C20.3247 6.72607 24.2554 10.6567 24.2554 15.4907C24.2554 20.3247 20.3247 24.2432 15.4907 24.2432ZM30.5054 12.4146C29.834 11.9019 29.0161 12.207 29.0161 13.0493L29.0161 17.9443C29.0161 18.811 29.8584 19.0674 30.5054 18.5791L33.7769 16.1377C34.2285 15.8081 34.2285 15.1855 33.7769 14.856ZM13.3423 20.6665L18.6768 20.6665C19.1284 20.6665 19.458 20.3735 19.458 19.9097C19.458 19.4336 19.1284 19.1528 18.6768 19.1528L14.2822 19.1528L14.2822 11.0107C14.2822 10.3638 13.9526 9.96094 13.3423 9.96094C12.7441 9.96094 12.4268 10.3882 12.4268 11.0107L12.4268 19.6289C12.4268 20.2515 12.7441 20.6665 13.3423 20.6665Z" fill="#5ac8f5"/>
 </g>
</svg>
