<?xml version="1.0" encoding="UTF-8"?>
<!--Generator: Apple Native CoreSVG 175.5-->
<!DOCTYPE svg
PUBLIC "-//W3C//DTD SVG 1.1//EN"
       "http://www.w3.org/Graphics/SVG/1.1/DTD/svg11.dtd">
<svg version="1.1" xmlns="http://www.w3.org/2000/svg" xmlns:xlink="http://www.w3.org/1999/xlink" width="24.9023" height="24.9146">
 <g>
  <rect height="24.9146" opacity="0" width="24.9023" x="0" y="0"/>
  <path d="M12.4512 24.9146C19.2627 24.9146 24.9023 19.2749 24.9023 12.4634C24.9023 5.66406 19.2505 0.012207 12.439 0.012207C5.63965 0.012207 0 5.66406 0 12.4634C0 19.2749 5.65186 24.9146 12.4512 24.9146ZM9.57031 7.75146C9.57031 6.16455 10.8765 4.88281 12.4512 4.88281C14.0381 4.88281 15.332 6.16455 15.332 7.75146C15.332 9.05762 14.4775 10.1318 13.3179 10.4736L13.3179 16.7847C13.3179 18.6646 13.0371 20.2881 12.4512 20.2881C11.8774 20.2881 11.5723 18.6279 11.5723 16.7847L11.5723 10.4736C10.4248 10.1196 9.57031 9.04541 9.57031 7.75146ZM10.8032 7.01904C10.8032 7.50732 11.2305 7.93457 11.7065 7.93457C12.207 7.93457 12.6221 7.50732 12.6221 7.01904C12.6221 6.51855 12.207 6.09131 11.7065 6.09131C11.2305 6.09131 10.791 6.51855 10.8032 7.01904Z" fill="#5ac8f5"/>
 </g>
</svg>
