<?xml version="1.0" encoding="UTF-8"?>
<!--Generator: Apple Native CoreSVG 175.5-->
<!DOCTYPE svg
PUBLIC "-//W3C//DTD SVG 1.1//EN"
       "http://www.w3.org/Graphics/SVG/1.1/DTD/svg11.dtd">
<svg version="1.1" xmlns="http://www.w3.org/2000/svg" xmlns:xlink="http://www.w3.org/1999/xlink" width="21.5698" height="29.2114">
 <g>
  <rect height="29.2114" opacity="0" width="21.5698" x="0" y="0"/>
  <path d="M0 15.4785C0 21.4722 4.80957 26.2817 10.791 26.2817C16.7725 26.2817 21.5698 21.4722 21.5698 15.4785C21.5698 14.8926 21.1548 14.4653 20.5566 14.4653C19.9829 14.4653 19.6045 14.8926 19.6045 15.4785C19.6045 20.3857 15.686 24.3164 10.791 24.3164C5.896 24.3164 1.96533 20.3857 1.96533 15.4785C1.96533 10.5835 5.896 6.66504 10.791 6.66504C11.7188 6.66504 12.5854 6.73828 13.3057 6.90918L9.65576 10.5225C9.47266 10.7178 9.375 10.9619 9.375 11.2183C9.375 11.7798 9.79004 12.1948 10.3394 12.1948C10.6445 12.1948 10.8765 12.0972 11.0474 11.9141L16.0767 6.86035C16.2964 6.65283 16.3818 6.40869 16.3818 6.12793C16.3818 5.85938 16.272 5.59082 16.0767 5.39551L11.0474 0.292969C10.8765 0.0976562 10.6323 0 10.3394 0C9.79004 0 9.375 0.439453 9.375 1.00098C9.375 1.25732 9.47266 1.50146 9.64355 1.69678L12.8906 4.90723C12.2559 4.78516 11.5356 4.69971 10.791 4.69971C4.80957 4.69971 0 9.49707 0 15.4785Z" fill="#5ac8f5"/>
 </g>
</svg>
