<?xml version="1.0" encoding="UTF-8"?>
<!--Generator: Apple Native CoreSVG 175.5-->
<!DOCTYPE svg
PUBLIC "-//W3C//DTD SVG 1.1//EN"
       "http://www.w3.org/Graphics/SVG/1.1/DTD/svg11.dtd">
<svg version="1.1" xmlns="http://www.w3.org/2000/svg" xmlns:xlink="http://www.w3.org/1999/xlink" width="23.2301" height="27.5513">
 <g>
  <rect height="27.5513" opacity="0" width="23.2301" x="0" y="0"/>
  <path d="M8.47698e-05 13.7695C-0.0121223 18.3716 1.29403 22.9126 3.93075 25.5371C5.31014 26.9165 6.60409 27.5391 8.69149 27.5391C11.1939 27.5391 12.5489 26.2085 12.1461 23.7061L11.3892 19.4458C11.1451 18.1274 10.2906 17.1631 8.83798 17.1509L7.61727 17.1509C6.98251 17.1509 6.70174 16.8091 6.64071 15.8936C6.6163 15.5273 6.59188 14.6729 6.59188 13.7695C6.59188 12.8662 6.6163 12.0117 6.64071 11.6455C6.70174 10.73 6.98251 10.3882 7.61727 10.3882L8.83798 10.3882C10.2906 10.3882 11.1451 9.41162 11.3892 8.09326L12.1461 3.84521C12.5489 1.35498 11.2306 0 8.69149 0C6.60409 0 5.31014 0.622559 3.93075 2.00195C1.29403 4.63867-0.0121223 9.16748 8.47698e-05 13.7695ZM1.89217 13.7695C1.89217 9.61914 2.99081 5.51758 5.24911 3.32031C6.14022 2.46582 7.15341 1.96533 8.42294 1.96533C9.80233 1.96533 10.5958 2.4292 10.3028 3.71094L9.52157 7.6416C9.43612 8.09326 9.14315 8.39844 8.61825 8.39844L7.21444 8.39844C5.87167 8.39844 5.24911 9.22852 5.01717 10.4004C4.85848 11.2061 4.79745 12.4634 4.79745 13.7695C4.79745 15.0757 4.85848 16.333 5.01717 17.1509C5.24911 18.3105 5.87167 19.1406 7.21444 19.1406L8.61825 19.1406C9.14315 19.1406 9.43612 19.4458 9.52157 19.8975L10.3028 23.8281C10.5836 25.0854 9.82674 25.5737 8.42294 25.5737C7.15341 25.5737 6.14022 25.0732 5.24911 24.2188C2.99081 22.0215 1.89217 17.9199 1.89217 13.7695ZM11.4869 14.6362L18.0543 14.6362L20.6178 14.5142L17.9566 16.9067L16.6749 18.1885C16.504 18.3594 16.4063 18.5913 16.4063 18.8477C16.4063 19.3481 16.7725 19.6899 17.2486 19.6899C17.4928 19.6899 17.7247 19.5923 17.8956 19.4214L22.9005 14.4165C23.1202 14.209 23.2301 13.9771 23.2301 13.7695C23.2301 13.562 23.1202 13.3179 22.9005 13.1104L17.8956 8.11768C17.7247 7.94678 17.4928 7.84912 17.2486 7.84912C16.7725 7.84912 16.4063 8.19092 16.4063 8.6792C16.4063 8.94775 16.504 9.16748 16.6749 9.33838L17.9566 10.6323L20.6178 13.0127L18.0543 12.8906L11.4869 12.8906C10.9376 12.8906 10.608 13.3179 10.608 13.7695C10.608 14.2212 10.9376 14.6362 11.4869 14.6362Z" fill="#5ac8f5"/>
 </g>
</svg>
