<?xml version="1.0" encoding="UTF-8"?>
<!--Generator: Apple Native CoreSVG 175.5-->
<!DOCTYPE svg
PUBLIC "-//W3C//DTD SVG 1.1//EN"
       "http://www.w3.org/Graphics/SVG/1.1/DTD/svg11.dtd">
<svg version="1.1" xmlns="http://www.w3.org/2000/svg" xmlns:xlink="http://www.w3.org/1999/xlink" width="22.6685" height="29.7729">
 <g>
  <rect height="29.7729" opacity="0" width="22.6685" x="0" y="0"/>
  <path d="M3.78418 27.5146L10.4736 27.5146C9.83887 26.9653 9.28955 26.2939 8.88672 25.5493L3.89404 25.5493C2.63672 25.5493 1.96533 24.9023 1.96533 23.6816L1.96533 5.2002C1.96533 4.00391 2.62451 3.30811 3.89404 3.30811L16.6504 3.30811C17.8711 3.30811 18.5669 3.9917 18.5669 5.2002L18.5669 15.8569C19.3115 16.2598 19.9829 16.7969 20.5322 17.4438L20.5322 5.17578C20.5322 2.6123 19.2749 1.34277 16.748 1.34277L3.78418 1.34277C1.26953 1.34277 0 2.62451 0 5.17578L0 23.6816C0 26.2451 1.26953 27.5146 3.78418 27.5146ZM5.65186 8.28857L14.9048 8.28857C15.332 8.28857 15.6616 7.94678 15.6616 7.51953C15.6616 7.10449 15.332 6.78711 14.9048 6.78711L5.65186 6.78711C5.2002 6.78711 4.88281 7.10449 4.88281 7.51953C4.88281 7.94678 5.2002 8.28857 5.65186 8.28857ZM5.65186 12.5366L14.9048 12.5366C15.332 12.5366 15.6616 12.207 15.6616 11.7798C15.6616 11.3647 15.332 11.0352 14.9048 11.0352L5.65186 11.0352C5.2002 11.0352 4.88281 11.3647 4.88281 11.7798C4.88281 12.207 5.2002 12.5366 5.65186 12.5366ZM15.0513 27.5146C18.0786 27.5146 20.5322 25.061 20.5322 22.0337C20.5322 18.9819 18.0786 16.5283 15.0513 16.5283C12.0239 16.5283 9.5459 19.0063 9.5459 22.0337C9.5459 25.061 12.0239 27.5146 15.0513 27.5146ZM15.0513 25.769C12.9761 25.769 11.2915 24.0845 11.2915 22.0337C11.2915 19.9829 12.9761 18.2861 15.0513 18.2861C17.0898 18.2861 18.7744 19.9829 18.7744 22.0337C18.7744 24.0845 17.1021 25.769 15.0513 25.769ZM21.6797 29.7729C22.2412 29.7729 22.6685 29.3335 22.6685 28.7109C22.6685 28.4424 22.5342 28.1738 22.3267 27.9663L18.9087 24.5361L17.3584 25.9277L20.7886 29.3701C21.0815 29.6631 21.3501 29.7729 21.6797 29.7729Z" fill="#5ac8f5"/>
 </g>
</svg>
