<?xml version="1.0" encoding="UTF-8"?>
<!--Generator: Apple Native CoreSVG 175.5-->
<!DOCTYPE svg
PUBLIC "-//W3C//DTD SVG 1.1//EN"
       "http://www.w3.org/Graphics/SVG/1.1/DTD/svg11.dtd">
<svg version="1.1" xmlns="http://www.w3.org/2000/svg" xmlns:xlink="http://www.w3.org/1999/xlink" width="24.9023" height="24.9146">
 <g>
  <rect height="24.9146" opacity="0" width="24.9023" x="0" y="0"/>
  <path d="M5.24902 20.8374L21.106 4.96826L19.9463 3.80859L4.07715 19.6655ZM3.79639 15.9058L2.17285 17.5293C1.9043 17.7979 1.9043 18.2129 2.17285 18.4814C2.44141 18.7622 2.85645 18.7622 3.13721 18.4814L4.74854 16.8701C5.0293 16.6016 5.01709 16.1743 4.74854 15.9058C4.47998 15.6372 4.06494 15.6372 3.79639 15.9058ZM7.21436 12.4756L5.60303 14.0991C5.33447 14.3677 5.33447 14.7827 5.60303 15.0635C5.87158 15.3198 6.28662 15.3198 6.56738 15.0635L8.17871 13.4399C8.44727 13.1714 8.43506 12.7441 8.17871 12.4756C7.91016 12.207 7.49512 12.207 7.21436 12.4756ZM10.6445 9.04541L9.021 10.6689C8.75244 10.9375 8.75244 11.3647 9.021 11.6333C9.30176 11.9019 9.7168 11.9019 9.98535 11.6333L11.6089 10.0098C11.8774 9.74121 11.8774 9.31396 11.6089 9.04541C11.3403 8.77686 10.9131 8.77686 10.6445 9.04541ZM14.0747 5.61523L12.4512 7.23877C12.1826 7.50732 12.1826 7.93457 12.4512 8.20312C12.7197 8.45947 13.147 8.47168 13.4155 8.20312L15.0391 6.57959C15.3076 6.31104 15.3076 5.88379 15.0391 5.61523C14.7705 5.34668 14.3433 5.34668 14.0747 5.61523ZM17.5049 2.19727L15.8813 3.80859C15.6128 4.07715 15.6128 4.50439 15.8813 4.77295C16.1499 5.0293 16.5771 5.0415 16.8457 4.77295L18.4692 3.14941C18.7378 2.88086 18.7378 2.46582 18.4692 2.19727C18.2007 1.9165 17.7734 1.9165 17.5049 2.19727ZM8.05664 20.1294L6.44531 21.7407C6.16455 22.0215 6.16455 22.4365 6.44531 22.7051C6.70166 22.9736 7.12891 22.9736 7.39746 22.7051L9.021 21.0815C9.28955 20.813 9.28955 20.3979 9.021 20.1294C8.75244 19.8608 8.3252 19.8486 8.05664 20.1294ZM11.4868 16.687L9.86328 18.3105C9.59473 18.5791 9.59473 19.0063 9.86328 19.2749C10.144 19.5435 10.5591 19.5435 10.8276 19.2749L12.4512 17.6514C12.7197 17.3828 12.7197 16.9678 12.4512 16.687C12.1826 16.4429 11.7554 16.4307 11.4868 16.687ZM14.917 13.269L13.2935 14.8804C13.0249 15.1611 13.0249 15.5762 13.2935 15.8447C13.562 16.1255 13.9893 16.1255 14.2578 15.8447L15.8813 14.2334C16.1499 13.9526 16.1499 13.5376 15.8813 13.269C15.6128 13.0005 15.1855 13.0005 14.917 13.269ZM18.3472 9.83887L16.7236 11.4624C16.4551 11.731 16.4673 12.146 16.7236 12.4268C16.9922 12.6953 17.4194 12.6953 17.688 12.4268L19.2993 10.8032C19.5801 10.5347 19.5801 10.1074 19.2993 9.83887C19.0308 9.57031 18.6157 9.57031 18.3472 9.83887ZM21.7773 6.40869L20.1538 8.03223C19.8853 8.30078 19.8975 8.72803 20.1538 8.99658C20.4224 9.26514 20.8496 9.26514 21.106 8.99658L22.7295 7.37305C22.998 7.10449 22.998 6.67725 22.7295 6.40869C22.4609 6.14014 22.0459 6.14014 21.7773 6.40869ZM12.4512 0C5.65186 0 0 5.63965 0 12.4512C0 19.2505 5.66406 24.9023 12.4634 24.9023C19.2749 24.9023 24.9023 19.2505 24.9023 12.4512C24.9023 5.63965 19.2627 0 12.4512 0ZM12.4512 1.66016C18.3472 1.66016 23.2422 6.55518 23.2422 12.4512C23.2422 18.3472 18.3594 23.2422 12.4634 23.2422C6.56738 23.2422 1.66016 18.3472 1.66016 12.4512C1.66016 6.55518 6.55518 1.66016 12.4512 1.66016Z" fill="#5ac8f5"/>
 </g>
</svg>
