<?xml version="1.0" encoding="UTF-8"?>
<!--Generator: Apple Native CoreSVG 175.5-->
<!DOCTYPE svg
PUBLIC "-//W3C//DTD SVG 1.1//EN"
       "http://www.w3.org/Graphics/SVG/1.1/DTD/svg11.dtd">
<svg version="1.1" xmlns="http://www.w3.org/2000/svg" xmlns:xlink="http://www.w3.org/1999/xlink" width="24.9023" height="24.9146">
 <g>
  <rect height="24.9146" opacity="0" width="24.9023" x="0" y="0"/>
  <path d="M2.70996 18.7012C4.56543 18.4082 5.61523 17.7246 5.61523 15.8447C5.61523 14.5264 6.79932 14.4287 6.79932 13.0615C6.79932 12.4512 6.21338 11.9629 5.18799 11.1206L4.38232 10.4736C4.28467 10.4004 4.22363 10.2783 4.22363 10.1685C4.22363 9.93652 4.43115 9.729 4.65088 9.729C4.82178 9.729 4.98047 9.8877 5.51758 10.3516C6.38428 11.084 6.83594 11.4868 7.39746 11.4868C7.9834 11.4868 8.1665 11.145 8.47168 11.145C8.65479 11.145 8.77686 11.2549 8.87451 11.5234L9.36279 12.8662C9.87549 14.3555 10.8276 14.2212 10.9985 15.2832C11.5112 18.7866 12.1216 20.2026 13.562 20.2026C14.9902 20.2026 15.4541 18.8965 15.4541 16.748C15.4541 15.0757 17.4438 13.3301 18.1763 13.3301C19.0796 13.3301 19.4336 16.9434 23.2422 17.0044L23.2422 15.7715C19.6655 15.7227 20.5078 12.0972 18.1763 12.0972C16.7603 12.0972 14.2212 14.5142 14.2212 16.748C14.2212 18.396 14.0747 18.9697 13.562 18.9697C12.9272 18.9697 12.5977 17.7246 12.207 15.0879C11.9263 13.2812 11.0229 13.7573 10.5591 12.5366L9.87549 10.791C9.60693 10.0708 9.11865 9.80225 8.59375 9.80225C8.03223 9.80225 7.58057 10.2173 7.37305 10.2173C7.20215 10.2173 6.604 9.68018 6.27441 9.38721C5.7251 8.89893 5.2124 8.49609 4.65088 8.49609C3.75977 8.49609 2.99072 9.36279 2.99072 10.144C2.99072 11.3525 5.56641 12.439 5.56641 13.1958C5.56641 14.1235 4.38232 14.0015 4.38232 15.8081C4.38232 17.2607 3.58887 17.2852 2.46582 17.4927ZM3.13721 5.40771C3.28369 6.55518 4.04053 7.4585 5.00488 7.4585C5.76172 7.4585 6.40869 6.95801 6.5918 6.20117C6.67725 5.88379 6.7627 5.74951 7.00684 5.60303C7.53174 5.31006 7.77588 4.98047 7.77588 4.40674C7.77588 3.80859 7.33643 3.19824 6.61621 2.44141L5.7373 3.28369C6.28662 3.88184 6.54297 4.05273 6.54297 4.35791C6.54297 4.77295 5.77393 4.72412 5.60303 5.60303C5.51758 6.03027 5.23682 6.22559 4.99268 6.22559C4.74854 6.22559 4.30908 5.93262 4.3335 5.23682ZM12.4512 24.9023C19.2627 24.9023 24.9023 19.2505 24.9023 12.4512C24.9023 5.63965 19.2505 0 12.439 0C5.63965 0 0 5.63965 0 12.4512C0 19.2505 5.65186 24.9023 12.4512 24.9023ZM12.4512 23.2422C6.55518 23.2422 1.66016 18.3472 1.66016 12.4512C1.66016 6.55518 6.54297 1.66016 12.439 1.66016C18.335 1.66016 23.2422 6.55518 23.2422 12.4512C23.2422 18.3472 18.3472 23.2422 12.4512 23.2422Z" fill="#5ac8f5"/>
 </g>
</svg>
