<?xml version="1.0" encoding="UTF-8"?>
<!--Generator: Apple Native CoreSVG 175.5-->
<!DOCTYPE svg
PUBLIC "-//W3C//DTD SVG 1.1//EN"
       "http://www.w3.org/Graphics/SVG/1.1/DTD/svg11.dtd">
<svg version="1.1" xmlns="http://www.w3.org/2000/svg" xmlns:xlink="http://www.w3.org/1999/xlink" width="22.8394" height="27.93">
 <g>
  <rect height="27.93" opacity="0" width="22.8394" x="0" y="0"/>
  <path d="M2.83203 26.7763L11.9507 26.7763C11.9995 26.2392 12.3413 25.9462 12.3535 25.4946C12.3657 25.2993 12.2681 25.0795 12.1094 24.811L2.91748 24.811C2.35596 24.811 1.96533 24.4203 1.96533 23.8466L1.96533 4.07122C1.96533 3.48529 2.35596 3.10687 2.91748 3.10687L18.2617 3.10687C18.8354 3.10687 19.2139 3.48529 19.2139 4.07122L19.2139 15.497C19.812 15.1308 20.52 15.0453 21.1792 15.2407L21.1792 4.05902C21.1792 2.3012 20.0439 1.14154 18.3594 1.14154L2.83203 1.14154C1.13525 1.14154 0 2.3012 0 4.05902L0 23.8588C0 25.6166 1.13525 26.7763 2.83203 26.7763ZM4.60205 6.37835C5.2002 6.37835 5.67627 5.89007 5.67627 5.30413C5.67627 4.70599 5.2002 4.22991 4.60205 4.22991C4.01611 4.22991 3.52783 4.70599 3.52783 5.30413C3.52783 5.89007 4.01611 6.37835 4.60205 6.37835ZM7.71484 6.37835C8.31299 6.37835 8.78906 5.89007 8.78906 5.30413C8.78906 4.70599 8.31299 4.22991 7.71484 4.22991C7.12891 4.22991 6.65283 4.70599 6.65283 5.30413C6.65283 5.89007 7.12891 6.37835 7.71484 6.37835ZM14.0991 5.91448L17.0166 5.91448C17.3828 5.91448 17.627 5.67034 17.627 5.30413C17.627 4.93792 17.3828 4.68157 17.0166 4.68157L14.0991 4.68157C13.7329 4.68157 13.4888 4.93792 13.4888 5.30413C13.4888 5.67034 13.7329 5.91448 14.0991 5.91448ZM1.07422 9.10052L20.0928 9.10052L20.0928 7.5014L1.07422 7.5014ZM5.85938 22.7114L11.145 22.7114C10.9863 22.3207 10.8398 21.8691 10.73 21.3564L6.0791 21.3564C5.78613 21.3564 5.59082 21.1611 5.59082 20.8559L5.59082 13.0556C5.59082 12.7504 5.78613 12.5551 6.0791 12.5551L15.1001 12.5551C15.3931 12.5551 15.5884 12.7504 15.5884 13.0556L15.5884 15.5214C16.0034 15.2651 16.4795 15.1308 16.9556 15.1552L16.9556 12.8359C16.9556 11.8593 16.2842 11.2001 15.3198 11.2001L5.85938 11.2001C4.89502 11.2001 4.23584 11.8593 4.23584 12.8359L4.23584 21.0756C4.23584 22.0522 4.89502 22.7114 5.85938 22.7114ZM13.9282 27.7773C14.2944 28.0214 14.8682 28.0092 15.1978 27.4721C15.5518 26.8251 15.7593 26.0683 15.7593 25.3359C15.7593 22.6747 13.7207 21.3686 13.7207 19.4033C13.7207 18.9028 13.8184 18.5488 14.1235 18.0361C14.3677 17.6088 14.1846 17.145 13.8428 16.9496C13.4888 16.7055 12.915 16.7543 12.6221 17.267C12.2437 17.9018 12.0483 18.6586 12.0483 19.4033C12.0483 22.0156 14.0747 23.3217 14.0747 25.3359C14.0747 25.8364 13.9893 26.1659 13.6841 26.6909C13.4277 27.1303 13.6475 27.582 13.9282 27.7773ZM17.4683 27.7651C17.8589 28.0214 18.4326 27.9848 18.7256 27.4599C19.0918 26.8129 19.2993 26.0683 19.2993 25.3359C19.2993 22.6625 17.2607 21.3564 17.2607 19.391C17.2607 18.9028 17.3584 18.5488 17.6514 18.0239C17.9077 17.5966 17.7124 17.1327 17.3706 16.9496C17.0288 16.7055 16.4429 16.7543 16.1499 17.2548C15.7837 17.9018 15.5884 18.6464 15.5884 19.391C15.5884 22.0156 17.6147 23.3095 17.6147 25.3359C17.6147 25.8242 17.5293 26.1537 17.2363 26.6786C16.98 27.1303 17.1753 27.5698 17.4683 27.7651ZM21.0083 27.7529C21.3989 28.0092 21.9727 27.9726 22.2656 27.4477C22.6318 26.8007 22.8394 26.0561 22.8394 25.3237C22.8394 22.6503 20.8008 21.3442 20.8008 19.3788C20.8008 18.8906 20.8984 18.5366 21.1914 18.0117C21.4478 17.5844 21.2524 17.1205 20.9106 16.9374C20.5566 16.6933 19.9829 16.7421 19.6899 17.2426C19.3115 17.8896 19.1284 18.6342 19.1284 19.3788C19.1284 22.0034 21.1548 23.2973 21.1548 25.3237C21.1548 25.8119 21.0693 26.1415 20.7642 26.6664C20.5078 27.1181 20.7153 27.5576 21.0083 27.7529Z" fill="#5ac8f5"/>
 </g>
</svg>
