<?xml version="1.0" encoding="UTF-8"?>
<!--Generator: Apple Native CoreSVG 175.5-->
<!DOCTYPE svg
PUBLIC "-//W3C//DTD SVG 1.1//EN"
       "http://www.w3.org/Graphics/SVG/1.1/DTD/svg11.dtd">
<svg version="1.1" xmlns="http://www.w3.org/2000/svg" xmlns:xlink="http://www.w3.org/1999/xlink" width="22.4731" height="22.4976">
 <g>
  <rect height="22.4976" opacity="0" width="22.4731" x="0" y="0"/>
  <path d="M3.83301 22.4976L18.6401 22.4976C21.2036 22.4976 22.4731 21.228 22.4731 18.7134L22.4731 3.80859C22.4731 1.29395 21.2036 0.0244141 18.6401 0.0244141L3.83301 0.0244141C1.28174 0.0244141 0 1.28174 0 3.80859L0 18.7134C0 21.2402 1.28174 22.4976 3.83301 22.4976Z" fill="#5ac8f5" fill-opacity="0.25"/>
  <path d="M11.4502 18.6768C11.1084 18.6768 10.8398 18.4204 10.8398 18.0542L10.8398 17.2119L8.94775 17.2119C8.36182 17.2119 7.95898 16.8091 7.95898 16.2231L7.95898 6.49414C7.95898 5.896 8.37402 5.49316 8.94775 5.49316L10.8398 5.49316L10.8398 4.54102C10.8398 4.18701 11.1084 3.93066 11.4502 3.93066C11.8042 3.93066 12.0605 4.18701 12.0605 4.54102L12.0605 5.49316L12.2314 5.49316C14.1724 5.49316 15.4907 6.75049 15.4907 8.49609C15.4907 9.57031 14.8315 10.5591 13.9038 11.0107C15.21 11.4014 16.0522 12.4634 16.0522 13.8916C16.0522 15.9302 14.5752 17.2119 12.2314 17.2119L12.0605 17.2119L12.0605 18.0542C12.0605 18.4204 11.8042 18.6768 11.4502 18.6768ZM9.58252 15.7349L10.8398 15.7227L10.8398 11.9141L9.58252 11.9141ZM12.0605 15.7104C13.6475 15.6494 14.4409 15.0024 14.4409 13.8184C14.4409 12.6587 13.6475 12.0117 12.0605 11.9263ZM9.58252 10.4492L10.8398 10.4492L10.8398 6.95801L9.58252 6.95801ZM12.0605 10.376C13.2568 10.2173 13.855 9.60693 13.855 8.61816C13.855 7.65381 13.2324 7.09229 12.0605 6.99463Z" fill="#5ac8f5"/>
 </g>
</svg>
