<?xml version="1.0" encoding="UTF-8"?>
<!--Generator: Apple Native CoreSVG 175.5-->
<!DOCTYPE svg
PUBLIC "-//W3C//DTD SVG 1.1//EN"
       "http://www.w3.org/Graphics/SVG/1.1/DTD/svg11.dtd">
<svg version="1.1" xmlns="http://www.w3.org/2000/svg" xmlns:xlink="http://www.w3.org/1999/xlink" width="23.3276" height="23.3521">
 <g>
  <rect height="23.3521" opacity="0" width="23.3276" x="0" y="0"/>
  <path d="M0 6.5918C0 7.66602 1.14746 7.93457 1.83105 7.23877L7.23877 1.83105C7.94678 1.13525 7.66602 0 6.5918 0L1.11084 0C0.427246 0 0 0.463867 0 1.12305ZM3.14941 4.6875L18.6157 20.166L20.166 18.6401L4.69971 3.14941ZM23.3276 16.7358C23.3276 15.6494 22.1802 15.3931 21.4844 16.0767L16.0767 21.4844C15.3809 22.1924 15.6616 23.3276 16.7358 23.3276L22.2168 23.3276C22.9004 23.3276 23.3276 22.8516 23.3276 22.2046ZM23.3276 6.5918L23.3276 1.12305C23.3276 0.463867 22.9004 0 22.2168 0L16.7358 0C15.6616 0 15.3809 1.13525 16.0767 1.83105L21.4844 7.23877C22.1802 7.93457 23.3276 7.66602 23.3276 6.5918ZM4.69971 20.166L20.1782 4.6875L18.6279 3.14941L3.14941 18.6279ZM0 16.7358L0 22.2046C0 22.8516 0.427246 23.3276 1.11084 23.3276L6.5918 23.3276C7.66602 23.3276 7.94678 22.1924 7.23877 21.4844L1.83105 16.0767C1.14746 15.3931 0 15.6494 0 16.7358Z" fill="#5ac8f5"/>
 </g>
</svg>
