<?xml version="1.0" encoding="UTF-8"?>
<!--Generator: Apple Native CoreSVG 175.5-->
<!DOCTYPE svg
PUBLIC "-//W3C//DTD SVG 1.1//EN"
       "http://www.w3.org/Graphics/SVG/1.1/DTD/svg11.dtd">
<svg version="1.1" xmlns="http://www.w3.org/2000/svg" xmlns:xlink="http://www.w3.org/1999/xlink" width="47.4121" height="15.8081">
 <g>
  <rect height="15.8081" opacity="0" width="47.4121" x="0" y="0"/>
  <path d="M3.44238 13.9893L33.96 13.9893C35.9619 13.9893 37.4023 12.5366 37.4023 10.5469L37.4023 3.45459C37.4023 1.46484 35.9619 0 33.96 0L3.44238 0C1.44043 0 0 1.45264 0 3.45459L0 10.5469C0 12.5488 1.44043 13.9893 3.44238 13.9893ZM36.4868 11.2061L38.3789 11.2061C39.2212 11.2061 39.8438 10.5957 39.8438 9.75342L39.8438 4.50439C39.8438 3.66211 39.2212 3.05176 38.3789 3.05176L36.4868 3.05176ZM39.4897 8.02002L47.4121 8.02002L47.4121 6.4209L39.4897 6.4209Z" fill="#5ac8f5" fill-opacity="0.25"/>
  <path d="M4.22363 9.85107C3.84521 9.85107 3.60107 9.60693 3.60107 9.24072L3.60107 4.73633C3.60107 4.3457 3.84521 4.11377 4.22363 4.11377L5.07812 4.11377C5.43213 4.11377 5.68848 4.3457 5.68848 4.73633L5.68848 9.24072C5.68848 9.60693 5.43213 9.85107 5.07812 9.85107ZM11.792 10.8765C9.65576 10.8765 7.91016 9.14307 7.91016 6.99463C7.91016 4.87061 9.65576 3.11279 11.792 3.11279C13.9282 3.11279 15.6738 4.87061 15.6738 6.99463C15.6738 9.14307 13.9282 10.8765 11.792 10.8765ZM21.1304 10.8765C18.9941 10.8765 17.2729 9.14307 17.2729 6.99463C17.2729 4.87061 18.9941 3.11279 21.1304 3.11279C23.2788 3.11279 25.0244 4.87061 25.0244 6.99463C25.0244 9.14307 23.2788 10.8765 21.1304 10.8765ZM30.481 10.8765C28.3325 10.8765 26.6113 9.14307 26.6113 6.99463C26.6113 4.87061 28.3325 3.11279 30.481 3.11279C32.6172 3.11279 34.3628 4.87061 34.3628 6.99463C34.3628 9.14307 32.6172 10.8765 30.481 10.8765ZM10.3638 9.0332C10.6689 9.0332 10.9009 8.78906 10.9009 8.49609L10.9009 5.50537C10.9009 5.2124 10.6689 4.95605 10.3638 4.95605C10.0708 4.95605 9.81445 5.22461 9.81445 5.50537L9.81445 8.49609C9.81445 8.77686 10.0708 9.0332 10.3638 9.0332ZM13.2202 9.0332C13.5132 9.0332 13.7451 8.78906 13.7451 8.49609L13.7451 5.50537C13.7451 5.2124 13.5132 4.95605 13.2202 4.95605C12.9028 4.95605 12.6587 5.2124 12.6587 5.50537L12.6587 8.49609C12.6587 8.78906 12.915 9.0332 13.2202 9.0332ZM19.7021 9.0332C20.0195 9.0332 20.2515 8.78906 20.2515 8.49609L20.2515 5.50537C20.2515 5.2124 20.0195 4.95605 19.7021 4.95605C19.4092 4.95605 19.1528 5.22461 19.1528 5.50537L19.1528 8.49609C19.1528 8.78906 19.4092 9.0332 19.7021 9.0332ZM22.5586 9.0332C22.8516 9.0332 23.0957 8.78906 23.0957 8.49609L23.0957 5.50537C23.0957 5.2124 22.8638 4.95605 22.5586 4.95605C22.2534 4.95605 22.0093 5.2124 22.0093 5.50537L22.0093 8.49609C22.0093 8.78906 22.2534 9.0332 22.5586 9.0332ZM29.0527 9.0332C29.3457 9.0332 29.6021 8.78906 29.6021 8.49609L29.6021 5.50537C29.6021 5.2124 29.3579 4.95605 29.0527 4.95605C28.7476 4.95605 28.5034 5.22461 28.5034 5.50537L28.5034 8.49609C28.5034 8.78906 28.7476 9.0332 29.0527 9.0332ZM31.9092 9.0332C32.2021 9.0332 32.4341 8.78906 32.4341 8.49609L32.4341 5.50537C32.4341 5.2124 32.2021 4.95605 31.9092 4.95605C31.5918 4.95605 31.3477 5.2124 31.3477 5.50537L31.3477 8.49609C31.3477 8.78906 31.604 9.0332 31.9092 9.0332Z" fill="#5ac8f5"/>
 </g>
</svg>
