<?xml version="1.0" encoding="UTF-8"?>
<!--Generator: Apple Native CoreSVG 175.5-->
<!DOCTYPE svg
PUBLIC "-//W3C//DTD SVG 1.1//EN"
       "http://www.w3.org/Graphics/SVG/1.1/DTD/svg11.dtd">
<svg version="1.1" xmlns="http://www.w3.org/2000/svg" xmlns:xlink="http://www.w3.org/1999/xlink" width="24.9023" height="24.9146">
 <g>
  <rect height="24.9146" opacity="0" width="24.9023" x="0" y="0"/>
  <path d="M12.4512 24.9023C19.2627 24.9023 24.9023 19.2505 24.9023 12.4512C24.9023 5.63965 19.2505 0 12.439 0C5.63965 0 0 5.63965 0 12.4512C0 19.2505 5.65186 24.9023 12.4512 24.9023ZM12.4512 22.8271C6.68945 22.8271 2.0874 18.2129 2.0874 12.4512C2.0874 6.68945 6.67725 2.0752 12.439 2.0752C18.2007 2.0752 22.8271 6.68945 22.8271 12.4512C22.8271 18.2129 18.2129 22.8271 12.4512 22.8271ZM9.94873 17.688C10.437 17.688 10.6934 17.3462 10.6934 16.8701L10.6934 15.4297L11.3647 15.4297C11.7798 15.4297 12.0483 15.1855 12.0483 14.7583C12.0483 14.3188 11.7798 14.0625 11.3647 14.0625L10.6934 14.0625L10.6934 8.34961C10.6934 7.6416 10.2051 7.18994 9.49707 7.18994C8.78906 7.18994 8.34961 7.4585 7.95898 8.12988C6.93359 9.83887 5.70068 11.9385 4.88281 13.4155C4.6875 13.7939 4.61426 14.0625 4.61426 14.3921C4.61426 15.0391 5.0415 15.4297 5.65186 15.4297L9.21631 15.4297L9.21631 16.8701C9.21631 17.334 9.47266 17.688 9.94873 17.688ZM9.21631 14.0625L6.20117 14.0625L6.20117 14.0137C6.92139 12.6343 8.17871 10.4858 9.15527 8.83789L9.21631 8.83789ZM15.0757 17.5781C15.4053 17.5781 15.6372 17.395 15.8569 16.98L19.6655 9.36279C19.8486 8.97217 19.8975 8.75244 19.8975 8.49609C19.8975 7.89795 19.4702 7.43408 18.811 7.43408L13.8916 7.43408C13.4644 7.43408 13.1836 7.71484 13.1836 8.12988C13.1836 8.53271 13.4644 8.80127 13.8916 8.80127L18.1763 8.80127L18.1763 8.89893L14.3921 16.2231C14.2944 16.4062 14.2578 16.5527 14.2578 16.7847C14.2578 17.2485 14.6118 17.5781 15.0757 17.5781Z" fill="#5ac8f5"/>
 </g>
</svg>
