<?xml version="1.0" encoding="UTF-8"?>
<!--Generator: Apple Native CoreSVG 175.5-->
<!DOCTYPE svg
PUBLIC "-//W3C//DTD SVG 1.1//EN"
       "http://www.w3.org/Graphics/SVG/1.1/DTD/svg11.dtd">
<svg version="1.1" xmlns="http://www.w3.org/2000/svg" xmlns:xlink="http://www.w3.org/1999/xlink" width="24.9023" height="24.9146">
 <g>
  <rect height="24.9146" opacity="0" width="24.9023" x="0" y="0"/>
  <path d="M12.4512 24.9023C19.2627 24.9023 24.9023 19.2505 24.9023 12.4512C24.9023 5.63965 19.2505 0 12.439 0C5.63965 0 0 5.63965 0 12.4512C0 19.2505 5.65186 24.9023 12.4512 24.9023Z" fill="#5ac8f5" fill-opacity="0.25"/>
  <path d="M12.4634 18.9819C8.91113 18.9819 5.94482 16.0034 5.94482 12.4512C5.94482 8.89893 8.89893 5.92041 12.4512 5.92041C16.0156 5.92041 18.9941 8.89893 18.9941 12.4512C18.9941 16.0034 16.0156 18.9819 12.4634 18.9819ZM12.4634 6.90918C11.792 6.90918 11.1084 7.03125 10.498 7.27539L12.085 8.52051L12.085 10.2295L10.3638 11.5356L8.75244 10.8887L8.1665 8.95996C7.38525 9.91211 6.89697 11.1206 6.89697 12.4634L8.45947 11.5967L10.1562 12.2803L10.8032 14.27L9.8877 15.4175L7.80029 15.4419C8.52051 16.5649 9.61914 17.395 10.9131 17.7734L10.4736 15.9058L11.3159 14.8315L13.5986 14.8315L14.4409 15.9058L14.0137 17.7734C15.2954 17.395 16.394 16.5649 17.1143 15.4419L15.0391 15.4175L14.1113 14.2578L14.7583 12.2803L16.4551 11.5967L18.0176 12.4634C18.0176 11.1206 17.5293 9.91211 16.7603 8.95996L16.1621 10.8887L14.5508 11.5356L12.8418 10.2295L12.8418 8.52051L14.4165 7.27539C13.8062 7.03125 13.147 6.90918 12.4634 6.90918Z" fill="#5ac8f5"/>
 </g>
</svg>
