<?xml version="1.0" encoding="UTF-8"?>
<!--Generator: Apple Native CoreSVG 175.5-->
<!DOCTYPE svg
PUBLIC "-//W3C//DTD SVG 1.1//EN"
       "http://www.w3.org/Graphics/SVG/1.1/DTD/svg11.dtd">
<svg version="1.1" xmlns="http://www.w3.org/2000/svg" xmlns:xlink="http://www.w3.org/1999/xlink" width="26.6846" height="28.2593">
 <g>
  <rect height="28.2593" opacity="0" width="26.6846" x="0" y="0"/>
  <path d="M3.32031 28.2593L4.76074 28.2593C5.67627 28.2593 6.38428 27.5513 6.38428 26.6479L6.38428 24.6216C8.80127 24.7925 11.1938 24.8779 13.3423 24.8779C15.4907 24.8779 17.8833 24.8047 20.3125 24.6216L20.3125 26.6479C20.3125 27.5513 21.0083 28.2593 21.9238 28.2593L23.3643 28.2593C24.2798 28.2593 24.9878 27.5513 24.9878 26.6479L24.9878 3.16162C24.9878 1.58691 24.0601 0.683594 22.4121 0.488281C19.812 0.183105 16.4795 0.0244141 13.3423 0.0244141C10.2295 0.0244141 6.89697 0.183105 4.28467 0.488281C2.62451 0.683594 1.70898 1.58691 1.70898 3.16162L1.70898 26.6479C1.70898 27.5513 2.40479 28.2593 3.32031 28.2593ZM5.24902 16.5405C4.44336 16.4062 4.04053 15.9546 4.04053 15.0879L4.04053 4.24805C4.04053 3.27148 4.50439 2.74658 5.43213 2.64893C10.5225 2.11182 16.1987 2.11182 21.2769 2.64893C22.2168 2.74658 22.6562 3.27148 22.6562 4.24805L22.6562 15.0879C22.6562 15.9546 22.2656 16.4062 21.4478 16.5405C16.3818 17.2852 10.2661 17.2852 5.24902 16.5405ZM6.00586 21.9849C5.10254 21.9849 4.43115 21.3013 4.43115 20.4102C4.43115 19.5068 5.10254 18.8354 6.00586 18.8354C6.90918 18.8354 7.58057 19.5068 7.58057 20.4102C7.58057 21.3013 6.90918 21.9849 6.00586 21.9849ZM10.6812 21.4478C10.0464 21.4478 9.60693 21.0083 9.60693 20.3857C9.60693 19.751 10.0464 19.3237 10.6812 19.3237L15.9912 19.3237C16.6138 19.3237 17.0532 19.751 17.0532 20.3857C17.0532 21.0083 16.6138 21.4478 15.9912 21.4478ZM20.6787 21.9849C19.7876 21.9849 19.1162 21.3013 19.1162 20.4102C19.1162 19.5068 19.7876 18.8354 20.6787 18.8354C21.582 18.8354 22.2656 19.5068 22.2656 20.4102C22.2656 21.3013 21.582 21.9849 20.6787 21.9849ZM2.50244 11.4502L2.50244 4.54102L1.15967 4.54102C0.476074 4.54102 0 4.96826 0 5.61523L0 10.3882C0 11.0352 0.476074 11.4502 1.15967 11.4502ZM24.1821 11.4502L25.5249 11.4502C26.2085 11.4502 26.6846 11.0352 26.6846 10.3882L26.6846 5.61523C26.6846 4.96826 26.2085 4.54102 25.5249 4.54102L24.1821 4.54102Z" fill="#5ac8f5"/>
 </g>
</svg>
