<?xml version="1.0" encoding="UTF-8"?>
<!--Generator: Apple Native CoreSVG 175.5-->
<!DOCTYPE svg
PUBLIC "-//W3C//DTD SVG 1.1//EN"
       "http://www.w3.org/Graphics/SVG/1.1/DTD/svg11.dtd">
<svg version="1.1" xmlns="http://www.w3.org/2000/svg" xmlns:xlink="http://www.w3.org/1999/xlink" width="22.4731" height="22.4976">
 <g>
  <rect height="22.4976" opacity="0" width="22.4731" x="0" y="0"/>
  <path d="M3.83301 22.4976L18.6401 22.4976C21.2036 22.4976 22.4731 21.228 22.4731 18.7134L22.4731 3.80859C22.4731 1.29395 21.2036 0.0244141 18.6401 0.0244141L3.83301 0.0244141C1.28174 0.0244141 0 1.28174 0 3.80859L0 18.7134C0 21.2402 1.28174 22.4976 3.83301 22.4976ZM3.85742 20.5322C2.63672 20.5322 1.96533 19.8853 1.96533 18.6157L1.96533 3.90625C1.96533 2.63672 2.63672 1.98975 3.85742 1.98975L18.6157 1.98975C19.8242 1.98975 20.5078 2.63672 20.5078 3.90625L20.5078 18.6157C20.5078 19.8853 19.8242 20.5322 18.6157 20.5322Z" fill="#5ac8f5" fill-opacity="0.5"/>
  <path d="M7.55615 16.3574C8.02002 16.3574 8.3252 16.0522 8.3252 15.5762L8.3252 6.93359C8.3252 6.4209 7.9834 6.05469 7.4707 6.05469C7.06787 6.05469 6.83594 6.17676 6.39648 6.46973L4.54102 7.73926C4.28467 7.92236 4.13818 8.14209 4.13818 8.45947C4.13818 8.87451 4.47998 9.19189 4.83398 9.19189C5.0293 9.19189 5.15137 9.17969 5.43213 8.95996L6.73828 7.99561L6.79932 7.99561L6.79932 15.5762C6.79932 16.0522 7.10449 16.3574 7.55615 16.3574ZM14.2456 16.5039C16.6748 16.5039 17.9932 14.5752 17.9932 10.9009C17.9932 7.70264 16.6748 5.98145 14.3799 5.98145C12.3291 5.98145 10.9863 7.36084 10.9863 9.50928C10.9863 11.6089 12.4146 12.7808 14.0137 12.7808C15.3442 12.7808 16.1499 12.0605 16.4673 11.2305L16.5405 11.2305C16.5649 13.6597 15.6372 15.1001 14.2212 15.1001C13.5254 15.1001 12.9639 14.7339 12.6709 14.1968C12.4756 13.855 12.2437 13.7207 11.9263 13.7207C11.5479 13.7207 11.2793 14.0137 11.2793 14.4409C11.2793 14.563 11.3159 14.7339 11.3647 14.8804C11.5601 15.5518 12.561 16.5039 14.2456 16.5039ZM14.4653 11.5234C13.3179 11.5234 12.5366 10.6567 12.5366 9.43604C12.5366 8.1543 13.2935 7.31201 14.4775 7.31201C15.6006 7.31201 16.4062 8.20312 16.4062 9.46045C16.4062 10.6567 15.6128 11.5234 14.4653 11.5234Z" fill="#5ac8f5"/>
 </g>
</svg>
