<?xml version="1.0" encoding="UTF-8"?>
<!--Generator: Apple Native CoreSVG 175.5-->
<!DOCTYPE svg
PUBLIC "-//W3C//DTD SVG 1.1//EN"
       "http://www.w3.org/Graphics/SVG/1.1/DTD/svg11.dtd">
<svg version="1.1" xmlns="http://www.w3.org/2000/svg" xmlns:xlink="http://www.w3.org/1999/xlink" width="27.7222" height="22.4976">
 <g>
  <rect height="22.4976" opacity="0" width="27.7222" x="0" y="0"/>
  <path d="M0 18.5547C0 21.0815 1.28174 22.3389 3.83301 22.3389L24.2554 22.3389C26.4404 22.3389 27.7222 21.0693 27.7222 18.5547L27.7222 8.54492L0 8.54492ZM0 6.9458L27.7222 6.9458L27.7222 6.01807C27.7222 3.50342 26.4282 2.23389 23.8892 2.23389L12.1704 2.23389C11.3403 2.23389 10.8398 2.03857 10.2295 1.51367L9.48486 0.90332C8.6792 0.219727 8.05664 0 6.84814 0L3.36914 0C1.23291 0 0 1.2207 0 3.67432Z" fill="#5ac8f5"/>
 </g>
</svg>
