<?xml version="1.0" encoding="UTF-8"?>
<!--Generator: Apple Native CoreSVG 175.5-->
<!DOCTYPE svg
PUBLIC "-//W3C//DTD SVG 1.1//EN"
       "http://www.w3.org/Graphics/SVG/1.1/DTD/svg11.dtd">
<svg version="1.1" xmlns="http://www.w3.org/2000/svg" xmlns:xlink="http://www.w3.org/1999/xlink" width="23.0911" height="28.6621">
 <g>
  <rect height="28.6621" opacity="0" width="23.0911" x="0" y="0"/>
  <path d="M0.619507 25.3967C0.619507 25.8972 1.04675 26.3123 1.54724 26.3123C2.05994 26.3123 2.47498 25.9094 2.47498 25.3967L2.47498 18.6096C2.78015 18.4753 3.92761 18.0359 5.72205 18.0359C10.0555 18.0359 12.7533 20.05 16.8427 20.2332L0.863647 4.27856C0.717163 4.5105 0.619507 4.77905 0.619507 5.10864ZM5.75867 2.36206L21.994 18.5852C22.2015 18.2922 22.2992 17.926 22.2992 17.4866L22.2992 5.09644C22.2992 4.43726 21.7377 4.05884 21.0297 4.05884C20.4315 4.05884 19.3085 4.57153 17.2089 4.57153C12.9974 4.57153 10.1898 2.4353 5.75867 2.36206ZM21.4813 22.8088C21.8597 23.175 22.4579 23.175 22.8119 22.8088C23.1781 22.4304 23.1903 21.8445 22.8119 21.4783L1.60828 0.274658C1.24207-0.0915527 0.631714-0.0915527 0.265503 0.274658C-0.088501 0.628662-0.088501 1.25122 0.265503 1.60522Z" fill="#5ac8f5"/>
 </g>
</svg>
