<?xml version="1.0" encoding="UTF-8"?>
<!--Generator: Apple Native CoreSVG 175.5-->
<!DOCTYPE svg
PUBLIC "-//W3C//DTD SVG 1.1//EN"
       "http://www.w3.org/Graphics/SVG/1.1/DTD/svg11.dtd">
<svg version="1.1" xmlns="http://www.w3.org/2000/svg" xmlns:xlink="http://www.w3.org/1999/xlink" width="22.4731" height="22.4976">
 <g>
  <rect height="22.4976" opacity="0" width="22.4731" x="0" y="0"/>
  <path d="M0 6.45752L1.96533 6.45752L1.96533 3.90625C1.96533 2.63672 2.63672 1.98975 3.85742 1.98975L6.38428 1.98975L6.38428 0.0244141L3.83301 0.0244141C1.28174 0.0244141 0 1.28174 0 3.80859ZM8.05664 1.98975L14.4165 1.98975L14.4165 0.0244141L8.05664 0.0244141ZM20.5078 6.45752L22.4731 6.45752L22.4731 3.80859C22.4731 1.29395 21.1914 0.0244141 18.6401 0.0244141L16.0889 0.0244141L16.0889 1.98975L18.6157 1.98975C19.8242 1.98975 20.5078 2.63672 20.5078 3.90625ZM20.5078 14.3921L22.4731 14.3921L22.4731 8.12988L20.5078 8.12988ZM16.0889 22.4976L18.6401 22.4976C21.1914 22.4976 22.4731 21.228 22.4731 18.7134L22.4731 16.0645L20.5078 16.0645L20.5078 18.6157C20.5078 19.8853 19.8242 20.5322 18.6157 20.5322L16.0889 20.5322ZM8.05664 22.4976L14.4165 22.4976L14.4165 20.5322L8.05664 20.5322ZM3.83301 22.4976L6.38428 22.4976L6.38428 20.5322L3.85742 20.5322C2.63672 20.5322 1.96533 19.8853 1.96533 18.6157L1.96533 16.0645L0 16.0645L0 18.7134C0 21.2402 1.28174 22.4976 3.83301 22.4976ZM0 14.3921L1.96533 14.3921L1.96533 8.12988L0 8.12988Z" fill="#5ac8f5"/>
 </g>
</svg>
