<?xml version="1.0" encoding="UTF-8"?>
<!--Generator: Apple Native CoreSVG 175.5-->
<!DOCTYPE svg
PUBLIC "-//W3C//DTD SVG 1.1//EN"
       "http://www.w3.org/Graphics/SVG/1.1/DTD/svg11.dtd">
<svg version="1.1" xmlns="http://www.w3.org/2000/svg" xmlns:xlink="http://www.w3.org/1999/xlink" width="25.9155" height="24.939">
 <g>
  <rect height="24.939" opacity="0" width="25.9155" x="0" y="0"/>
  <path d="M3.96729 22.4243C3.96729 23.0103 4.10156 23.3887 4.40674 23.6938L5.44434 24.7559C5.77393 25.0854 6.45752 24.9756 6.45752 24.3774L6.45752 5.59082C6.45752 4.99268 6.32324 4.62646 6.01807 4.30908L4.98047 3.25928C4.65088 2.91748 3.96729 3.02734 3.96729 3.62549ZM10.1318 22.4243C10.1318 23.0103 10.2539 23.3887 10.5713 23.6938L11.6089 24.7559C11.9385 25.0854 12.6099 24.9756 12.6099 24.3774L12.6099 5.59082C12.6099 4.99268 12.4878 4.62646 12.1704 4.30908L11.1328 3.25928C10.8032 2.91748 10.1318 3.02734 10.1318 3.62549ZM16.2842 22.4243C16.2842 23.0103 16.4185 23.3887 16.7236 23.6938L17.7612 24.7559C18.0908 25.0854 18.7744 24.9756 18.7744 24.3774L18.7744 5.59082C18.7744 4.99268 18.6401 4.62646 18.335 4.30908L17.2974 3.25928C16.9678 2.91748 16.2842 3.02734 16.2842 3.62549ZM22.4487 22.4243C22.4487 23.0103 22.5708 23.3887 22.8882 23.6938L23.9258 24.7559C24.2554 25.0854 24.9268 24.9756 24.9268 24.3774L24.9268 5.59082C24.9268 4.99268 24.8047 4.62646 24.4873 4.30908L23.4497 3.25928C23.1201 2.91748 22.4487 3.02734 22.4487 3.62549Z" fill="#5ac8f5"/>
  <path d="M0 0.976562C0 1.51367 0.45166 1.96533 0.98877 1.96533L24.9268 1.96533C25.4639 1.96533 25.9155 1.51367 25.9155 0.976562C25.9155 0.439453 25.4639 0 24.9268 0L0.98877 0C0.45166 0 0 0.439453 0 0.976562ZM0.98877 4.79736C1.44043 4.79736 1.81885 4.41895 1.81885 3.96729C1.81885 3.50342 1.44043 3.13721 0.98877 3.13721C0.524902 3.13721 0.146484 3.50342 0.146484 3.96729C0.146484 4.41895 0.524902 4.79736 0.98877 4.79736ZM0.98877 7.62939C1.44043 7.62939 1.81885 7.23877 1.81885 6.78711C1.81885 6.33545 1.44043 5.95703 0.98877 5.95703C0.524902 5.95703 0.146484 6.33545 0.146484 6.78711C0.146484 7.23877 0.524902 7.62939 0.98877 7.62939ZM0.98877 10.4492C1.44043 10.4492 1.81885 10.0708 1.81885 9.61914C1.81885 9.15527 1.44043 8.78906 0.98877 8.78906C0.524902 8.78906 0.146484 9.15527 0.146484 9.61914C0.146484 10.0708 0.524902 10.4492 0.98877 10.4492ZM0.98877 13.2812C1.44043 13.2812 1.81885 12.8906 1.81885 12.439C1.81885 11.9873 1.44043 11.6089 0.98877 11.6089C0.524902 11.6089 0.146484 11.9873 0.146484 12.439C0.146484 12.8906 0.524902 13.2812 0.98877 13.2812ZM0.98877 16.1011C1.44043 16.1011 1.81885 15.7227 1.81885 15.271C1.81885 14.8071 1.44043 14.4409 0.98877 14.4409C0.524902 14.4409 0.146484 14.8071 0.146484 15.271C0.146484 15.7227 0.524902 16.1011 0.98877 16.1011ZM0.98877 18.9331C1.44043 18.9331 1.81885 18.5425 1.81885 18.0908C1.81885 17.6392 1.44043 17.2607 0.98877 17.2607C0.524902 17.2607 0.146484 17.6392 0.146484 18.0908C0.146484 18.5425 0.524902 18.9331 0.98877 18.9331ZM0.98877 24.9268C1.51367 24.9268 1.96533 24.4873 1.96533 23.9502L1.96533 21.0693C1.96533 20.5322 1.52588 20.0928 0.98877 20.0928C0.45166 20.0928 0 20.5322 0 21.0693L0 23.9502C0 24.4873 0.45166 24.9268 0.98877 24.9268Z" fill="#5ac8f5" fill-opacity="0.5"/>
 </g>
</svg>
