<?xml version="1.0" encoding="UTF-8"?>
<!--Generator: Apple Native CoreSVG 175.5-->
<!DOCTYPE svg
PUBLIC "-//W3C//DTD SVG 1.1//EN"
       "http://www.w3.org/Graphics/SVG/1.1/DTD/svg11.dtd">
<svg version="1.1" xmlns="http://www.w3.org/2000/svg" xmlns:xlink="http://www.w3.org/1999/xlink" width="24.9023" height="24.9146">
 <g>
  <rect height="24.9146" opacity="0" width="24.9023" x="0" y="0"/>
  <path d="M12.4512 24.9023C19.2627 24.9023 24.9023 19.2505 24.9023 12.4512C24.9023 5.63965 19.2505 0 12.439 0C5.63965 0 0 5.63965 0 12.4512C0 19.2505 5.65186 24.9023 12.4512 24.9023ZM12.4512 22.8271C6.68945 22.8271 2.0874 18.2129 2.0874 12.4512C2.0874 6.68945 6.67725 2.0752 12.439 2.0752C18.2007 2.0752 22.8271 6.68945 22.8271 12.4512C22.8271 18.2129 18.2129 22.8271 12.4512 22.8271ZM12.439 18.1763C15.564 18.1763 17.7246 15.7837 17.7246 12.3413C17.7246 8.88672 15.564 6.49414 12.439 6.49414C9.32617 6.49414 7.16553 8.88672 7.16553 12.3413C7.16553 15.7837 9.32617 18.1763 12.439 18.1763ZM12.439 16.6382C10.4248 16.6382 9.10645 14.9414 9.10645 12.3413C9.10645 9.729 10.4248 8.03223 12.439 8.03223C14.4531 8.03223 15.7715 9.729 15.7715 12.3413C15.7715 14.9414 14.4531 16.6382 12.439 16.6382Z" fill="#5ac8f5"/>
 </g>
</svg>
