<?xml version="1.0" encoding="UTF-8"?>
<!--Generator: Apple Native CoreSVG 175.5-->
<!DOCTYPE svg
PUBLIC "-//W3C//DTD SVG 1.1//EN"
       "http://www.w3.org/Graphics/SVG/1.1/DTD/svg11.dtd">
<svg version="1.1" xmlns="http://www.w3.org/2000/svg" xmlns:xlink="http://www.w3.org/1999/xlink" width="24.9023" height="24.9146">
 <g>
  <rect height="24.9146" opacity="0" width="24.9023" x="0" y="0"/>
  <path d="M12.4512 24.9023C19.2627 24.9023 24.9023 19.2505 24.9023 12.4512C24.9023 5.63965 19.2505 0 12.439 0C5.63965 0 0 5.63965 0 12.4512C0 19.2505 5.65186 24.9023 12.4512 24.9023Z" fill="#5ac8f5" fill-opacity="0.25"/>
  <path d="M13.9893 18.7622C13.7207 18.7622 13.5132 18.689 13.2324 18.4204L8.6792 14.1357C8.43506 13.8916 8.22754 13.6963 8.22754 13.269C8.22754 12.7319 8.60596 12.4023 9.13086 12.4023L10.9619 12.4023C12.2314 12.4023 13.0615 11.9141 13.2935 10.9375L8.8501 10.9375C8.49609 10.9375 8.22754 10.6567 8.22754 10.3149C8.22754 9.94873 8.49609 9.68018 8.8501 9.68018L13.2568 9.68018C13.0249 8.77686 12.2437 8.25195 11.1206 8.25195L8.8623 8.25195C8.45947 8.25195 8.11768 7.89795 8.11768 7.49512C8.11768 7.06787 8.45947 6.75049 8.8623 6.75049L12.2437 6.75049C12.6465 6.75049 13.0493 6.75049 13.4521 6.75049L16.1011 6.75049C16.4673 6.75049 16.7236 6.99463 16.7236 7.36084C16.7236 7.70264 16.4673 7.99561 16.1011 7.99561L14.27 7.99561C14.6729 8.44727 14.917 9.0332 15.0146 9.68018L16.1743 9.68018C16.5405 9.68018 16.7847 9.94873 16.7847 10.3149C16.7847 10.6567 16.5405 10.9375 16.1743 10.9375L14.9902 10.9375C14.7339 12.5244 13.5132 13.9038 11.0352 13.9038L10.6934 13.9038L14.4165 17.3706C14.5996 17.5537 14.7461 17.7734 14.7461 18.0298C14.7461 18.4937 14.4043 18.7622 13.9893 18.7622Z" fill="#5ac8f5"/>
 </g>
</svg>
