<?xml version="1.0" encoding="UTF-8"?>
<!--Generator: Apple Native CoreSVG 175.5-->
<!DOCTYPE svg
PUBLIC "-//W3C//DTD SVG 1.1//EN"
       "http://www.w3.org/Graphics/SVG/1.1/DTD/svg11.dtd">
<svg version="1.1" xmlns="http://www.w3.org/2000/svg" xmlns:xlink="http://www.w3.org/1999/xlink" width="22.4731" height="22.4976">
 <g>
  <rect height="22.4976" opacity="0" width="22.4731" x="0" y="0"/>
  <path d="M3.83301 22.4976L18.6401 22.4976C21.2036 22.4976 22.4731 21.228 22.4731 18.7134L22.4731 3.80859C22.4731 1.29395 21.2036 0.0244141 18.6401 0.0244141L3.83301 0.0244141C1.28174 0.0244141 0 1.28174 0 3.80859L0 18.7134C0 21.2402 1.28174 22.4976 3.83301 22.4976ZM3.85742 20.5322C2.63672 20.5322 1.96533 19.8853 1.96533 18.6157L1.96533 3.90625C1.96533 2.63672 2.63672 1.98975 3.85742 1.98975L18.6157 1.98975C19.8242 1.98975 20.5078 2.63672 20.5078 3.90625L20.5078 18.6157C20.5078 19.8853 19.8242 20.5322 18.6157 20.5322Z" fill="#5ac8f5" fill-opacity="0.5"/>
  <path d="M6.27441 11.3525C6.27441 13.4888 6.9458 15.1489 8.11768 16.1621L7.66602 17.9321C7.6416 18.0298 7.62939 18.1152 7.62939 18.2007C7.62939 18.5669 7.86133 18.811 8.21533 18.811C8.52051 18.811 8.75244 18.6646 8.82568 18.335L9.2041 16.8335C9.5459 16.98 9.8999 17.0898 10.2783 17.1509L10.083 17.9443C10.0586 18.042 10.0464 18.1152 10.0464 18.2007C10.0464 18.5669 10.2661 18.811 10.6323 18.811C10.9375 18.811 11.1694 18.6646 11.2427 18.335L11.5356 17.2241C13.501 17.1265 14.9292 16.1011 15.4663 14.5752C15.5396 14.3799 15.5884 14.1602 15.5884 13.9526C15.5884 13.5132 15.2954 13.1836 14.8315 13.1836C14.4165 13.1836 14.1724 13.4766 14.0503 13.8428C13.7817 14.8071 12.9883 15.5273 11.9141 15.686L13.7573 8.47168C13.8672 8.58154 13.9648 8.76465 14.0259 8.98438C14.1479 9.27734 14.3311 9.57031 14.7583 9.57031C15.21 9.57031 15.5029 9.27734 15.5029 8.81348C15.5029 8.61816 15.4541 8.41064 15.3809 8.21533C15.1489 7.56836 14.7461 7.00684 14.2334 6.56738L14.624 5.00488C14.6606 4.90723 14.6729 4.82178 14.6729 4.73633C14.6729 4.38232 14.4409 4.13818 14.0869 4.13818C13.7817 4.13818 13.5498 4.28467 13.4644 4.61426L13.1348 5.896C12.8052 5.74951 12.4512 5.65186 12.0728 5.57861L12.2192 5.00488C12.2437 4.91943 12.2559 4.82178 12.2559 4.73633C12.2559 4.38232 12.0239 4.13818 11.6699 4.13818C11.3647 4.13818 11.1328 4.28467 11.0474 4.61426L10.8154 5.52979C8.05664 5.7251 6.27441 7.95898 6.27441 11.3525ZM7.91016 11.3525C7.91016 9.08203 8.8501 7.49512 10.4126 7.10449L8.60596 14.2212C8.1543 13.4888 7.91016 12.5244 7.91016 11.3525ZM9.58252 15.3198L11.7065 7.03125C12.085 7.08008 12.439 7.21436 12.7563 7.39746L10.6445 15.7227C10.2417 15.6616 9.8999 15.5273 9.58252 15.3198Z" fill="#5ac8f5"/>
 </g>
</svg>
