<?xml version="1.0" encoding="UTF-8"?>
<!--Generator: Apple Native CoreSVG 175.5-->
<!DOCTYPE svg
PUBLIC "-//W3C//DTD SVG 1.1//EN"
       "http://www.w3.org/Graphics/SVG/1.1/DTD/svg11.dtd">
<svg version="1.1" xmlns="http://www.w3.org/2000/svg" xmlns:xlink="http://www.w3.org/1999/xlink" width="29.0051" height="29.358">
 <g>
  <rect height="29.358" opacity="0" width="29.0051" x="0" y="0"/>
  <path d="M9.30637 17.4073L16.7527 11.316L8.09788 2.60015C6.37669 0.891167 4.54563 0.891167 2.87327 2.56353L1.24973 4.18706C-0.422631 5.85943-0.422631 7.69048 1.28635 9.39947ZM8.58616 12.1827L3.73997 7.36089C3.54465 7.16558 3.55686 6.8604 3.73997 6.65289C3.93528 6.46978 4.25266 6.49419 4.42356 6.65289L9.28196 11.5113C9.47727 11.7066 9.46506 11.9996 9.28196 12.1827C9.09885 12.378 8.78147 12.378 8.58616 12.1827ZM10.1853 10.608L5.35129 5.73736C5.16819 5.55425 5.15598 5.26128 5.35129 5.06597C5.52219 4.88287 5.83958 4.87066 6.03489 5.06597L10.8811 9.89996C11.0642 10.0831 11.0642 10.3882 10.8689 10.608C10.7102 10.7789 10.3684 10.8033 10.1853 10.608ZM26.1032 28.8331L27.5315 27.4048C27.7634 27.1729 27.7146 26.8799 27.5071 26.4893L25.2976 22.4244C25.0779 22.0215 24.6628 21.753 24.26 21.7408L22.966 21.6797L16.6306 15.3443L14.0671 17.9932L20.3659 24.292L20.427 25.586C20.4392 25.9644 20.6955 26.3917 21.1106 26.5992L25.1999 28.8331C25.5661 29.0162 25.8591 29.0772 26.1032 28.8331Z" fill="#5ac8f5" fill-opacity="0.5"/>
  <path d="M1.90891 27.771C4.03294 29.8707 6.87717 29.8951 8.96458 27.7955C11.6501 25.0855 11.1618 22.0093 19.78 13.4278L18.718 12.3536C9.31858 21.7896 10.7468 23.5474 7.71946 26.5748C6.36448 27.9419 4.53342 27.9542 3.11741 26.5626C1.7136 25.1343 1.73801 23.3155 3.08079 21.9605C6.13254 18.921 7.89036 20.3614 17.3142 10.962L16.2522 9.89996C7.67063 18.5181 4.59446 18.0298 1.8845 20.7032C-0.227319 22.7906-0.202905 25.647 1.90891 27.771ZM17.0945 12.5733C19.8899 15.3687 24.3454 15.4664 27.0554 12.7686C29.2527 10.5713 29.6311 7.10455 27.9953 4.29693L26.8113 5.49322C27.8366 7.59283 27.4948 10.0342 25.9079 11.6334C23.8449 13.6963 20.427 13.5987 18.2419 11.438C16.0691 9.26519 15.9836 5.82281 18.0588 3.77203C19.6457 2.18511 22.1238 1.84331 24.1623 2.88091L25.3586 1.68462C22.5754 0.0610884 19.1208 0.427299 16.9236 2.63677C14.2258 5.32232 14.3113 9.77789 17.0945 12.5733ZM20.7932 7.09234L22.5998 8.88677C23.5031 9.79009 24.6628 9.81451 25.5173 8.94781L28.0808 6.37212L27.0066 5.31011L24.675 7.61724C24.3454 7.94683 23.9304 7.97124 23.5764 7.61724L22.0871 6.11578C21.7331 5.74956 21.6965 5.32232 22.0261 4.99273L24.3821 2.66119L23.2712 1.58697L20.7322 4.13824C19.8288 5.02935 19.8532 6.17681 20.7932 7.09234ZM5.38792 25.8301C6.21799 25.8301 6.90159 25.1465 6.90159 24.3165C6.90159 23.4864 6.21799 22.815 5.38792 22.815C4.55784 22.815 3.88645 23.4864 3.88645 24.3165C3.88645 25.1465 4.55784 25.8301 5.38792 25.8301Z" fill="#5ac8f5"/>
 </g>
</svg>
