<?xml version="1.0" encoding="UTF-8"?>
<!--Generator: Apple Native CoreSVG 175.5-->
<!DOCTYPE svg
PUBLIC "-//W3C//DTD SVG 1.1//EN"
       "http://www.w3.org/Graphics/SVG/1.1/DTD/svg11.dtd">
<svg version="1.1" xmlns="http://www.w3.org/2000/svg" xmlns:xlink="http://www.w3.org/1999/xlink" width="24.9023" height="24.9146">
 <g>
  <rect height="24.9146" opacity="0" width="24.9023" x="0" y="0"/>
  <path d="M12.4512 24.9023C19.2627 24.9023 24.9023 19.2505 24.9023 12.4512C24.9023 5.63965 19.2505 0 12.439 0C5.63965 0 0 5.63965 0 12.4512C0 19.2505 5.65186 24.9023 12.4512 24.9023ZM12.4512 22.8271C6.68945 22.8271 2.0874 18.2129 2.0874 12.4512C2.0874 6.68945 6.67725 2.0752 12.439 2.0752C18.2007 2.0752 22.8271 6.68945 22.8271 12.4512C22.8271 18.2129 18.2129 22.8271 12.4512 22.8271ZM7.69043 18.1152C8.25195 18.1152 8.58154 17.749 8.58154 17.1143L8.58154 10.0708L8.69141 10.0708L11.499 17.1021C11.6821 17.5415 11.9629 17.749 12.4268 17.749C12.8784 17.749 13.1836 17.5415 13.3545 17.1021L16.1865 10.0708L16.2842 10.0708L16.2842 17.1143C16.2842 17.7368 16.6138 18.1152 17.1509 18.1152C17.7246 18.1152 18.0542 17.749 18.0542 17.1143L18.0542 7.76367C18.0542 7.09229 17.5781 6.62842 16.9067 6.62842C16.3208 6.62842 15.9302 6.89697 15.7104 7.42188L12.4756 15.5396L12.4146 15.5396L9.15527 7.42188C8.94775 6.89697 8.55713 6.62842 7.97119 6.62842C7.2876 6.62842 6.81152 7.09229 6.81152 7.76367L6.81152 17.1143C6.81152 17.7368 7.15332 18.1152 7.69043 18.1152Z" fill="#5ac8f5"/>
 </g>
</svg>
