<?xml version="1.0" encoding="UTF-8"?>
<!--Generator: Apple Native CoreSVG 175.5-->
<!DOCTYPE svg
PUBLIC "-//W3C//DTD SVG 1.1//EN"
       "http://www.w3.org/Graphics/SVG/1.1/DTD/svg11.dtd">
<svg version="1.1" xmlns="http://www.w3.org/2000/svg" xmlns:xlink="http://www.w3.org/1999/xlink" width="21.8872" height="23.8403">
 <g>
  <rect height="23.8403" opacity="0" width="21.8872" x="0" y="0"/>
  <path d="M4.47998 23.8403C5.06592 23.8403 5.49316 23.5229 5.61523 22.9248L9.96094 1.3916C9.98535 1.31836 10.0098 1.15967 10.0098 1.00098C10.0098 0.402832 9.57031 0.0610352 8.98438 0.0610352C8.30078 0.0610352 7.9834 0.439453 7.87354 1.01318L3.52783 22.522C3.50342 22.644 3.479 22.7905 3.479 22.9126C3.479 23.5107 3.89404 23.8403 4.47998 23.8403ZM12.4146 23.8403C13.0127 23.8403 13.4277 23.5229 13.5498 22.9248L17.9077 1.3916C17.9199 1.31836 17.9443 1.15967 17.9443 1.00098C17.9443 0.402832 17.5049 0.0610352 16.9312 0.0610352C16.2354 0.0610352 15.9302 0.439453 15.8203 1.01318L11.4624 22.522C11.438 22.644 11.4258 22.7905 11.4258 22.9126C11.4258 23.5107 11.8408 23.8403 12.4146 23.8403ZM2.56348 8.43506L20.752 8.43506C21.4233 8.43506 21.8872 7.94678 21.8872 7.2876C21.8872 6.75049 21.521 6.31104 20.9717 6.31104L2.7832 6.31104C2.12402 6.31104 1.64795 6.82373 1.64795 7.49512C1.64795 8.04443 2.02637 8.43506 2.56348 8.43506ZM0.915527 17.0044L19.104 17.0044C19.7632 17.0044 20.2393 16.5161 20.2393 15.8569C20.2393 15.3198 19.8608 14.8804 19.3237 14.8804L1.13525 14.8804C0.463867 14.8804 0 15.3931 0 16.0645C0 16.6138 0.366211 17.0044 0.915527 17.0044Z" fill="#5ac8f5"/>
 </g>
</svg>
