<?xml version="1.0" encoding="UTF-8"?>
<!--Generator: Apple Native CoreSVG 175.5-->
<!DOCTYPE svg
PUBLIC "-//W3C//DTD SVG 1.1//EN"
       "http://www.w3.org/Graphics/SVG/1.1/DTD/svg11.dtd">
<svg version="1.1" xmlns="http://www.w3.org/2000/svg" xmlns:xlink="http://www.w3.org/1999/xlink" width="24.9023" height="24.9146">
 <g>
  <rect height="24.9146" opacity="0" width="24.9023" x="0" y="0"/>
  <path d="M12.4512 24.9023C19.2627 24.9023 24.9023 19.2505 24.9023 12.4512C24.9023 5.63965 19.2505 0 12.439 0C5.63965 0 0 5.63965 0 12.4512C0 19.2505 5.65186 24.9023 12.4512 24.9023ZM12.4512 22.8271C6.68945 22.8271 2.0874 18.2129 2.0874 12.4512C2.0874 6.68945 6.67725 2.0752 12.439 2.0752C18.2007 2.0752 22.8271 6.68945 22.8271 12.4512C22.8271 18.2129 18.2129 22.8271 12.4512 22.8271Z" fill="#5ac8f5" fill-opacity="0.5"/>
  <path d="M9.11865 17.3218L15.7593 17.3218C16.8213 17.3218 17.4316 16.6016 17.4316 15.5884L17.4316 11.3403C17.4316 9.75342 17.2241 8.20312 16.98 7.22656C16.7358 6.21338 16.0522 5.46875 15.0146 5.35889C14.6362 5.31006 13.6475 5.22461 12.439 5.22461C11.2305 5.22461 10.2417 5.31006 9.86328 5.35889C8.82568 5.46875 8.14209 6.21338 7.89795 7.22656C7.65381 8.20312 7.44629 9.75342 7.44629 11.3403L7.44629 15.5884C7.44629 16.6016 8.05664 17.3218 9.11865 17.3218ZM12.439 13.4033C11.0596 13.3911 9.80225 13.3301 9.16748 13.2568C8.80127 13.2202 8.66699 12.9883 8.66699 12.6465L8.66699 11.2793C8.66699 10.0952 8.80127 9.11865 8.88672 8.69141C8.94775 8.42285 9.11865 8.23975 9.36279 8.20312C10.0342 8.12988 10.8643 8.08105 12.439 8.08105C14.0137 8.06885 14.8438 8.12988 15.4907 8.20312C15.7593 8.23975 15.9302 8.42285 15.9912 8.69141C16.0767 9.11865 16.2109 10.0952 16.2109 11.2793L16.2109 12.6465C16.2109 12.9883 16.0767 13.2202 15.7104 13.2568C14.7583 13.3545 13.501 13.4033 12.439 13.4033ZM9.68018 16.0767C9.21631 16.0767 8.87451 15.7471 8.87451 15.2588C8.87451 14.7949 9.21631 14.4531 9.68018 14.4531C10.1562 14.4531 10.498 14.7949 10.498 15.2588C10.498 15.7471 10.144 16.0767 9.68018 16.0767ZM15.1855 16.0889C14.7217 16.0889 14.3677 15.7349 14.3677 15.2588C14.3677 14.7949 14.7217 14.4409 15.1855 14.4409C15.6494 14.4409 16.0156 14.7949 16.0156 15.2588C16.0156 15.7349 15.6372 16.0889 15.1855 16.0889ZM10.9253 7.08008C10.7056 7.08008 10.5591 6.93359 10.5591 6.71387C10.5591 6.50635 10.7056 6.35986 10.9253 6.35986L13.9526 6.35986C14.1724 6.35986 14.3311 6.50635 14.3311 6.71387C14.3311 6.93359 14.1724 7.08008 13.9526 7.08008ZM8.34961 19.9341L8.6792 19.9341C8.8501 19.9341 8.94775 19.873 9.0332 19.7388L10.7178 17.0166L9.58252 17.0166L8.09326 19.4092C7.93457 19.6655 8.06885 19.9341 8.34961 19.9341ZM8.8623 19.1772L16.0156 19.1772L16.0156 18.2861L8.8623 18.2861ZM16.2231 19.9341L16.5527 19.9341C16.8335 19.9341 16.9556 19.6655 16.7969 19.4092L15.3198 17.0166L14.1846 17.0166L15.8691 19.7388C15.9546 19.873 16.0522 19.9341 16.2231 19.9341Z" fill="#5ac8f5"/>
 </g>
</svg>
