<?xml version="1.0" encoding="UTF-8"?>
<!--Generator: Apple Native CoreSVG 175.5-->
<!DOCTYPE svg
PUBLIC "-//W3C//DTD SVG 1.1//EN"
       "http://www.w3.org/Graphics/SVG/1.1/DTD/svg11.dtd">
<svg version="1.1" xmlns="http://www.w3.org/2000/svg" xmlns:xlink="http://www.w3.org/1999/xlink" width="22.4731" height="18.4204">
 <g>
  <rect height="18.4204" opacity="0" width="22.4731" x="0" y="0"/>
  <path d="M0 17.4316C0 17.9688 0.439453 18.4204 0.976562 18.4204C1.52588 18.4204 1.96533 17.9688 1.96533 17.4316L1.96533 1.00098C1.96533 0.463867 1.52588 0.0244141 0.976562 0.0244141C0.439453 0.0244141 0 0.463867 0 1.00098ZM20.5078 17.4316C20.5078 17.9688 20.9595 18.4204 21.4966 18.4204C22.0337 18.4204 22.4731 17.9688 22.4731 17.4316L22.4731 1.00098C22.4731 0.463867 22.0337 0.0244141 21.4966 0.0244141C20.9595 0.0244141 20.5078 0.463867 20.5078 1.00098ZM7.93457 14.3188C8.39844 14.3188 8.70361 14.0137 8.70361 13.5376L8.70361 4.89502C8.70361 4.38232 8.36182 4.01611 7.84912 4.01611C7.44629 4.01611 7.21436 4.13818 6.7749 4.43115L4.91943 5.70068C4.66309 5.88379 4.5166 6.10352 4.5166 6.4209C4.5166 6.83594 4.8584 7.15332 5.2124 7.15332C5.40771 7.15332 5.51758 7.14111 5.81055 6.92139L7.10449 5.95703L7.17773 5.95703L7.17773 13.5376C7.17773 14.0137 7.48291 14.3188 7.93457 14.3188ZM11.9141 14.1846L16.9556 14.1846C17.3462 14.1846 17.6392 13.8916 17.6392 13.4521C17.6392 13.0005 17.3462 12.7441 16.9556 12.7441L13.4033 12.7441L13.4033 12.6587L15.8081 9.87549C16.7114 8.82568 17.3828 7.94678 17.3828 6.72607C17.3828 5.0293 16.1377 3.94287 14.2212 3.94287C12.7686 3.94287 11.4746 4.87061 11.1572 6.11572C11.1328 6.27441 11.0962 6.40869 11.0962 6.55518C11.0962 6.99463 11.3647 7.2876 11.7798 7.2876C12.1338 7.2876 12.3169 7.08008 12.4756 6.71387C12.793 5.79834 13.4033 5.34668 14.2822 5.34668C15.271 5.34668 15.9058 5.95703 15.9058 6.86035C15.9058 7.65381 15.2588 8.3374 14.6851 9.021L11.4624 12.8052C11.2793 13.0127 11.1938 13.2202 11.1938 13.4644C11.1938 13.9038 11.4746 14.1846 11.9141 14.1846Z" fill="#5ac8f5"/>
 </g>
</svg>
