<?xml version="1.0" encoding="UTF-8"?>
<!--Generator: Apple Native CoreSVG 175.5-->
<!DOCTYPE svg
PUBLIC "-//W3C//DTD SVG 1.1//EN"
       "http://www.w3.org/Graphics/SVG/1.1/DTD/svg11.dtd">
<svg version="1.1" xmlns="http://www.w3.org/2000/svg" xmlns:xlink="http://www.w3.org/1999/xlink" width="26.2817" height="26.5747">
 <g>
  <rect height="26.5747" opacity="0" width="26.2817" x="0" y="0"/>
  <path d="M13.9404 8.25195L25.1221 8.25195C24.6704 4.3335 21.2891 0.0610352 15.5151 0.0610352C14.5874 0.0610352 13.9404 0.732422 13.9404 1.70898ZM10.8276 17.5659L18.6157 17.5659C23.6206 17.5659 24.9756 14.4043 25.1587 11.438L25.4272 11.438C25.9033 11.438 26.2817 11.0474 26.2817 10.5713C26.2817 10.0952 25.9033 9.7168 25.4272 9.7168L3.9917 9.7168C3.51562 9.7168 3.13721 10.0952 3.13721 10.5713C3.13721 11.0474 3.51562 11.438 3.9917 11.438L4.28467 11.438L4.80957 13.501C5.44434 15.9912 7.38525 17.5659 10.8276 17.5659ZM8.43506 10.6445L11.0229 10.6445L4.54102 4.1626C4.26025 3.88184 3.95508 3.75977 3.56445 3.75977L0.915527 3.75977C0.415039 3.75977 0 4.1748 0 4.67529C0 5.17578 0.415039 5.60303 0.915527 5.60303L3.39355 5.60303ZM8.30078 20.5933L9.58252 21.9238L14.2822 17.2241L12.9639 15.9302ZM19.8608 22.0825L21.1914 20.8008L16.5405 16.1621L15.0757 17.2974ZM9.93652 23.8892L19.4214 23.8892L19.4214 22.29L9.93652 22.29ZM7.20215 26.5747C9.14307 26.5747 10.6689 25.0488 10.6689 23.0957C10.6689 21.1548 9.14307 19.6289 7.20215 19.6289C5.24902 19.6289 3.73535 21.1548 3.73535 23.0957C3.73535 25.0488 5.24902 26.5747 7.20215 26.5747ZM7.20215 24.9756C6.16455 24.9756 5.33447 24.1455 5.33447 23.0957C5.33447 22.0459 6.16455 21.228 7.20215 21.228C8.25195 21.228 9.06982 22.0459 9.06982 23.0957C9.06982 24.1455 8.25195 24.9756 7.20215 24.9756ZM22.0703 26.3306C23.8525 26.3306 25.293 24.8901 25.293 23.0957C25.293 21.3135 23.8525 19.873 22.0703 19.873C20.2759 19.873 18.8354 21.3135 18.8354 23.0957C18.8354 24.8901 20.2881 26.3306 22.0703 26.3306ZM22.0703 24.9756C21.0327 24.9756 20.1904 24.1455 20.1904 23.0957C20.1904 22.0459 21.0327 21.228 22.0703 21.228C23.1201 21.228 23.938 22.0459 23.938 23.0957C23.938 24.1455 23.1201 24.9756 22.0703 24.9756Z" fill="#5ac8f5"/>
 </g>
</svg>
