<?xml version="1.0" encoding="UTF-8"?>
<!--Generator: Apple Native CoreSVG 175.5-->
<!DOCTYPE svg
PUBLIC "-//W3C//DTD SVG 1.1//EN"
       "http://www.w3.org/Graphics/SVG/1.1/DTD/svg11.dtd">
<svg version="1.1" xmlns="http://www.w3.org/2000/svg" xmlns:xlink="http://www.w3.org/1999/xlink" width="24.9023" height="24.9146">
 <g>
  <rect height="24.9146" opacity="0" width="24.9023" x="0" y="0"/>
  <path d="M12.4512 24.9023C19.2627 24.9023 24.9023 19.2505 24.9023 12.4512C24.9023 5.63965 19.2505 0 12.439 0C5.63965 0 0 5.63965 0 12.4512C0 19.2505 5.65186 24.9023 12.4512 24.9023Z" fill="#5ac8f5" fill-opacity="0.25"/>
  <path d="M9.00879 17.3584L9.00879 7.92236C9.00879 7.34863 9.41162 6.95801 9.97314 6.95801L10.4858 6.95801L10.4858 6.01807C10.4858 5.66406 10.73 5.41992 11.0718 5.41992C11.4136 5.41992 11.6577 5.66406 11.6577 6.01807L11.6577 6.95801L12.4512 6.95801L12.4512 6.01807C12.4512 5.66406 12.7075 5.41992 13.0371 5.41992C13.3789 5.41992 13.6353 5.66406 13.6353 6.01807L13.6353 7.00684C15.2588 7.25098 16.2964 8.34961 16.2964 9.86328C16.2964 10.9009 15.6738 11.8652 14.7705 12.3047C16.0278 12.6831 16.8457 13.7085 16.8457 15.0879C16.8457 16.8823 15.6616 18.0542 13.6353 18.2739L13.6353 19.2749C13.6353 19.6289 13.3789 19.873 13.0371 19.873C12.7075 19.873 12.4512 19.6289 12.4512 19.2749L12.4512 18.3105L11.6577 18.3105L11.6577 19.2749C11.6577 19.6289 11.4136 19.873 11.0718 19.873C10.73 19.873 10.4858 19.6289 10.4858 19.2749L10.4858 18.3105L9.97314 18.3105C9.39941 18.3105 9.00879 17.9199 9.00879 17.3584ZM10.5713 16.8823L12.7686 16.8701C14.4165 16.8579 15.2832 16.2354 15.2832 15.0269C15.2832 13.7939 14.3799 13.1714 12.6343 13.1714L10.5713 13.1714ZM10.5713 11.7432L12.3169 11.7554C13.8794 11.7676 14.7339 11.1328 14.7339 9.98535C14.7339 8.94775 13.9771 8.37402 12.6587 8.37402L10.5713 8.37402Z" fill="#5ac8f5"/>
 </g>
</svg>
