<?xml version="1.0" encoding="UTF-8"?>
<!--Generator: Apple Native CoreSVG 175.5-->
<!DOCTYPE svg
PUBLIC "-//W3C//DTD SVG 1.1//EN"
       "http://www.w3.org/Graphics/SVG/1.1/DTD/svg11.dtd">
<svg version="1.1" xmlns="http://www.w3.org/2000/svg" xmlns:xlink="http://www.w3.org/1999/xlink" width="22.4731" height="22.4976">
 <g>
  <rect height="22.4976" opacity="0" width="22.4731" x="0" y="0"/>
  <path d="M3.83301 22.4976L18.6401 22.4976C21.2036 22.4976 22.4731 21.228 22.4731 18.7134L22.4731 3.80859C22.4731 1.29395 21.2036 0.0244141 18.6401 0.0244141L3.83301 0.0244141C1.28174 0.0244141 0 1.28174 0 3.80859L0 18.7134C0 21.2402 1.28174 22.4976 3.83301 22.4976ZM11.2427 18.4326C10.9009 18.4326 10.6445 18.1885 10.6445 17.8345L10.6445 16.9312C8.95996 16.7725 7.55615 15.8447 7.20215 14.3921C7.16553 14.27 7.14111 14.1357 7.14111 14.0015C7.14111 13.562 7.44629 13.2568 7.87354 13.2568C8.25195 13.2568 8.52051 13.4521 8.65479 13.8916C8.8623 14.7217 9.52148 15.3564 10.6445 15.5151L10.6445 11.8042L10.5591 11.7798C8.45947 11.2793 7.38525 10.3271 7.38525 8.72803C7.38525 7.00684 8.74023 5.81055 10.6445 5.60303L10.6445 4.73633C10.6445 4.38232 10.9009 4.13818 11.2427 4.13818C11.5845 4.13818 11.853 4.38232 11.853 4.73633L11.853 5.60303C13.4644 5.78613 14.7461 6.72607 15.0757 8.08105C15.1001 8.21533 15.1367 8.34961 15.1367 8.47168C15.1367 8.91113 14.8193 9.21631 14.3921 9.21631C13.9893 9.21631 13.7451 8.97217 13.623 8.59375C13.3667 7.75146 12.7441 7.21436 11.853 7.05566L11.853 10.5591L12.0117 10.5957C14.1968 10.9863 15.3076 12.0239 15.3076 13.7329C15.3076 15.6372 13.7939 16.7725 11.853 16.9556L11.853 17.8345C11.853 18.1885 11.5845 18.4326 11.2427 18.4326ZM10.6445 10.2417L10.6445 7.05566C9.58252 7.23877 8.94775 7.88574 8.94775 8.64258C8.94775 9.38721 9.44824 9.8877 10.5591 10.2173ZM11.853 12.0972L11.853 15.5151C13.1348 15.3687 13.7573 14.6973 13.7573 13.8184C13.7573 13.0249 13.3301 12.5 12.1094 12.1704Z" fill="#5ac8f5"/>
 </g>
</svg>
