<?xml version="1.0" encoding="UTF-8"?>
<!--Generator: Apple Native CoreSVG 175.5-->
<!DOCTYPE svg
PUBLIC "-//W3C//DTD SVG 1.1//EN"
       "http://www.w3.org/Graphics/SVG/1.1/DTD/svg11.dtd">
<svg version="1.1" xmlns="http://www.w3.org/2000/svg" xmlns:xlink="http://www.w3.org/1999/xlink" width="21.7529" height="25.2075">
 <g>
  <rect height="25.2075" opacity="0" width="21.7529" x="0" y="0"/>
  <path d="M10.8887 25.2075C11.6821 25.2075 12.146 24.7192 12.146 23.8892C12.146 23.7427 12.1338 23.5718 12.1338 23.4253L11.9629 14.4775L19.5801 19.0552C19.8853 19.2383 20.166 19.3115 20.4834 19.3115C21.2158 19.3115 21.7529 18.7744 21.7529 18.0176C21.7529 17.4438 21.5332 17.1265 20.9229 16.7969L12.9517 12.6099L20.9229 8.41064C21.5332 8.09326 21.7529 7.76367 21.7529 7.20215C21.7529 6.45752 21.228 5.9082 20.4834 5.9082C20.166 5.9082 19.8853 5.98145 19.5801 6.16455L11.9629 10.7422L12.1338 1.79443C12.1338 1.63574 12.146 1.47705 12.146 1.31836C12.146 0.488281 11.6821 0.012207 10.8887 0.012207C10.0952 0.012207 9.61914 0.488281 9.61914 1.31836C9.61914 1.47705 9.63135 1.63574 9.63135 1.79443L9.80225 10.7422L2.17285 6.16455C1.86768 5.98145 1.58691 5.9082 1.25732 5.9082C0.524902 5.9082 0 6.44531 0 7.20215C0 7.76367 0.219727 8.09326 0.842285 8.41064L8.81348 12.6099L0.842285 16.7969C0.219727 17.1265 0 17.4438 0 18.0176C0 18.7744 0.524902 19.3115 1.25732 19.3115C1.58691 19.3115 1.86768 19.2383 2.17285 19.0552L9.80225 14.4775L9.63135 23.4253C9.63135 23.5718 9.61914 23.7427 9.61914 23.8892C9.61914 24.7192 10.0952 25.2075 10.8887 25.2075Z" fill="#5ac8f5"/>
 </g>
</svg>
