<?xml version="1.0" encoding="UTF-8"?>
<!--Generator: Apple Native CoreSVG 175.5-->
<!DOCTYPE svg
PUBLIC "-//W3C//DTD SVG 1.1//EN"
       "http://www.w3.org/Graphics/SVG/1.1/DTD/svg11.dtd">
<svg version="1.1" xmlns="http://www.w3.org/2000/svg" xmlns:xlink="http://www.w3.org/1999/xlink" width="22.4731" height="22.4976">
 <g>
  <rect height="22.4976" opacity="0" width="22.4731" x="0" y="0"/>
  <path d="M3.83301 22.4976L18.6401 22.4976C21.2036 22.4976 22.4731 21.228 22.4731 18.7134L22.4731 3.80859C22.4731 1.29395 21.2036 0.0244141 18.6401 0.0244141L3.83301 0.0244141C1.28174 0.0244141 0 1.28174 0 3.80859L0 18.7134C0 21.2402 1.28174 22.4976 3.83301 22.4976ZM3.85742 20.5322C2.63672 20.5322 1.96533 19.8853 1.96533 18.6157L1.96533 3.90625C1.96533 2.63672 2.63672 1.98975 3.85742 1.98975L18.6157 1.98975C19.8242 1.98975 20.5078 2.63672 20.5078 3.90625L20.5078 18.6157C20.5078 19.8853 19.8242 20.5322 18.6157 20.5322ZM8.55713 16.8335C9.19189 16.8335 9.5459 16.4062 9.5459 15.7349L9.5459 11.9507L13.9404 11.9507C14.4165 11.9507 14.7583 11.6943 14.7583 11.2061C14.7583 10.7056 14.4165 10.4248 13.9404 10.4248L9.5459 10.4248L9.5459 7.16553L14.4165 7.16553C14.8926 7.16553 15.2344 6.84814 15.2344 6.35986C15.2344 5.85938 14.8926 5.56641 14.4165 5.56641L8.54492 5.56641C7.92236 5.56641 7.59277 6.00586 7.59277 6.66504L7.59277 15.7349C7.59277 16.3818 7.92236 16.8335 8.55713 16.8335Z" fill="#5ac8f5"/>
 </g>
</svg>
