<?xml version="1.0" encoding="UTF-8"?>
<!--Generator: Apple Native CoreSVG 175.5-->
<!DOCTYPE svg
PUBLIC "-//W3C//DTD SVG 1.1//EN"
       "http://www.w3.org/Graphics/SVG/1.1/DTD/svg11.dtd">
<svg version="1.1" xmlns="http://www.w3.org/2000/svg" xmlns:xlink="http://www.w3.org/1999/xlink" width="22.2168" height="22.229">
 <g>
  <rect height="22.229" opacity="0" width="22.2168" x="0" y="0"/>
  <path d="M20.7886 1.44043C19.5435 0.195312 17.7856 0 15.6982 0L6.48193 0C4.43115 0 2.67334 0.195312 1.42822 1.44043C0.183105 2.68555 0 4.43115 0 6.46973L0 15.6982C0 17.7856 0.183105 19.519 1.42822 20.7642C2.67334 22.0093 4.43115 22.2046 6.50635 22.2046L15.6982 22.2046C17.7856 22.2046 19.5435 22.0093 20.7886 20.7642C22.0337 19.519 22.2168 17.7856 22.2168 15.6982L22.2168 6.50635C22.2168 4.41895 22.0337 2.67334 20.7886 1.44043ZM15.0635 14.2334C14.4897 14.2334 14.1235 13.8428 14.1235 13.2446L14.1235 11.084L14.3066 9.11865L12.4878 11.0596L7.88574 15.6738C7.70264 15.8569 7.4585 15.9668 7.15332 15.9668C6.604 15.9668 6.23779 15.6006 6.23779 15.0269C6.23779 14.7827 6.35986 14.5264 6.54297 14.3433L11.1572 9.729L13.1226 7.89795L11.2549 8.09326L8.98438 8.09326C8.37402 8.09326 7.9834 7.72705 7.9834 7.17773C7.9834 6.61621 8.36182 6.25 8.95996 6.25L14.9292 6.25C15.5762 6.25 15.979 6.54297 15.979 7.2876L15.979 13.2202C15.979 13.8062 15.6128 14.2334 15.0635 14.2334Z" fill="#5ac8f5"/>
 </g>
</svg>
