<?xml version="1.0" encoding="UTF-8"?>
<!--Generator: Apple Native CoreSVG 175.5-->
<!DOCTYPE svg
PUBLIC "-//W3C//DTD SVG 1.1//EN"
       "http://www.w3.org/Graphics/SVG/1.1/DTD/svg11.dtd">
<svg version="1.1" xmlns="http://www.w3.org/2000/svg" xmlns:xlink="http://www.w3.org/1999/xlink" width="23.8561" height="31.6528">
 <g>
  <rect height="31.6528" opacity="0" width="23.8561" x="0" y="0"/>
  <path d="M8.37402 24.0356C13.0737 24.0356 15.1733 22.9736 15.1733 20.2759L15.1733 4.43115C15.1733 1.64795 12.6099 0 8.37402 0C4.1626 0 1.59912 1.64795 1.59912 4.43115L1.59912 20.2759C1.59912 22.9736 3.68652 24.0356 8.37402 24.0356ZM8.37402 22.1313C4.88281 22.1313 3.52783 21.5942 3.52783 20.2148L3.52783 4.43115C3.52783 2.83203 5.2124 1.92871 8.37402 1.92871C11.5601 1.92871 13.2568 2.83203 13.2568 4.43115L13.2568 20.2148C13.2568 21.5942 11.8896 22.1313 8.37402 22.1313ZM8.38623 10.1196C9.21631 10.1196 10.6079 10.1929 11.0596 10.1929C11.792 10.1929 12.1338 9.8877 12.1948 9.11865L12.3413 7.40967C12.4634 6.00586 11.5356 5.46875 8.38623 5.46875C5.23682 5.46875 4.30908 6.00586 4.43115 7.40967L4.57764 9.11865C4.63867 9.8877 4.98047 10.1929 5.71289 10.1929C6.17676 10.1929 7.50732 10.1196 8.38623 10.1196ZM8.38623 19.9219C11.5356 19.9219 12.5366 19.458 12.3047 18.0054L12.1826 17.1753C11.9995 16.0156 11.0962 15.6494 8.38623 15.6494C5.67627 15.6494 4.77295 16.0156 4.58984 17.1753L4.46777 18.0054C4.23584 19.458 5.23682 19.9219 8.38623 19.9219ZM2.63672 9.61914L2.63672 7.08008L1.07422 7.08008C0.463867 7.08008 0 7.53174 0 8.11768L0 8.58154C0 9.15527 0.463867 9.61914 1.07422 9.61914ZM14.1357 9.61914L15.6982 9.61914C16.3086 9.61914 16.7725 9.15527 16.7725 8.58154L16.7725 8.11768C16.7725 7.53174 16.3086 7.08008 15.6982 7.08008L14.1357 7.08008ZM17.7734 25.5371C18.8354 24.4751 19.4702 23.1567 19.6289 21.6675C19.7144 21.0083 19.2871 20.5933 18.75 20.5933C18.1519 20.5933 17.8833 20.874 17.7734 21.5576C17.6392 22.5952 17.2119 23.4985 16.4795 24.2432C15.7104 25 14.8315 25.4395 13.8916 25.5371C13.1348 25.647 12.793 26.0376 12.793 26.5259C12.793 27.0508 13.1836 27.417 13.7573 27.417C14.8071 27.417 16.5161 26.7944 17.7734 25.5371ZM20.8008 28.5767C22.6929 26.709 23.6938 24.3164 23.8525 21.7285C23.9014 21.0571 23.4375 20.7153 22.9614 20.7153C22.3511 20.7153 22.0337 21.0205 21.9727 21.8018C21.8506 23.8159 21.0205 25.7568 19.5068 27.2827C17.981 28.7964 16.0278 29.6265 14.0259 29.7485C13.3301 29.7974 12.915 30.1392 12.915 30.6641C12.915 31.2378 13.3423 31.6406 13.9648 31.6406C16.5527 31.6406 18.9331 30.4565 20.8008 28.5767Z" fill="#5ac8f5"/>
 </g>
</svg>
