<?xml version="1.0" encoding="UTF-8"?>
<!--Generator: Apple Native CoreSVG 175.5-->
<!DOCTYPE svg
PUBLIC "-//W3C//DTD SVG 1.1//EN"
       "http://www.w3.org/Graphics/SVG/1.1/DTD/svg11.dtd">
<svg version="1.1" xmlns="http://www.w3.org/2000/svg" xmlns:xlink="http://www.w3.org/1999/xlink" width="42.9349" height="21.9849">
 <g>
  <rect height="21.9849" opacity="0" width="42.9349" x="0" y="0"/>
  <path d="M23.4136 9.8877C24.5123 9.8877 25.501 8.22754 27.503 8.22754C29.5172 8.22754 30.5059 9.8877 31.6046 9.8877C32.5079 9.8877 33.3502 8.72803 34.7784 8.37402L29.627 1.59912C28.4307 0.0244141 26.5997 0 25.379 1.59912L20.2276 8.37402C21.668 8.74023 22.5225 9.8877 23.4136 9.8877ZM14.295 21.9849L40.7232 21.9849C42.9449 21.9849 43.482 19.7876 42.3834 18.3472L35.9869 9.94873C35.8038 9.87549 35.6207 9.82666 35.4254 9.82666C34.4244 9.93652 33.5699 11.4136 31.6046 11.4136C29.5172 11.4136 28.6749 9.75342 27.503 9.75342C26.3433 9.75342 25.501 11.4136 23.4136 11.4136C21.4361 11.4136 20.5816 9.92432 19.5562 9.82666C19.3853 9.81445 19.2022 9.87549 19.0191 9.94873L12.6348 18.3594C11.5362 19.7998 12.0733 21.9849 14.295 21.9849Z" fill="#5ac8f5"/>
  <path d="M8.39899 13.0005C9.35114 13.0005 10.2178 11.5479 11.9634 11.5479C13.4161 11.5479 14.3194 12.5732 14.6734 12.5732C14.7955 12.5732 14.9053 12.5244 15.0274 12.439L16.7974 10.1196L14.0753 6.75049C12.8179 5.18799 11.1334 5.2002 9.86383 6.75049L5.8111 11.7798C6.99518 12.0728 7.69098 13.0005 8.39899 13.0005ZM2.25885 21.9849L10.9869 21.9849C10.1446 20.6665 10.1934 18.8232 11.3043 17.3462L14.0264 13.7695C13.5381 13.4766 13.1475 13.1836 12.7447 13.1836C11.6827 13.1836 10.9503 14.0503 9.18024 14.0503C7.39801 14.0503 6.66559 13.1836 5.60358 13.1836C5.23737 13.1836 4.93219 13.1958 4.62701 13.2446L0.696351 18.1152C-0.609801 19.7388-0.0726921 21.9849 2.25885 21.9849Z" fill="#5ac8f5" fill-opacity="0.5"/>
 </g>
</svg>
