<?xml version="1.0" encoding="UTF-8"?>
<!--Generator: Apple Native CoreSVG 175.5-->
<!DOCTYPE svg
PUBLIC "-//W3C//DTD SVG 1.1//EN"
       "http://www.w3.org/Graphics/SVG/1.1/DTD/svg11.dtd">
<svg version="1.1" xmlns="http://www.w3.org/2000/svg" xmlns:xlink="http://www.w3.org/1999/xlink" width="19.7266" height="30.6274">
 <g>
  <rect height="30.6274" opacity="0" width="19.7266" x="0" y="0"/>
  <path d="M7.21436 28.2349L12.5122 28.2349C17.2852 28.2349 19.7266 25.708 19.7266 21.3989C19.7266 18.0298 16.8457 13.5742 13.4644 9.06982C12.8052 8.20312 12.3779 7.71484 11.1816 7.71484L8.54492 7.71484C7.36084 7.71484 6.93359 8.20312 6.26221 9.06982C2.88086 13.5742 0 18.0298 0 21.3989C0 25.708 2.44141 28.2349 7.21436 28.2349ZM1.92871 21.3989C1.92871 18.7012 4.22363 15.0269 7.83691 10.0708C8.08105 9.75342 8.21533 9.65576 8.56934 9.65576L11.1572 9.65576C11.5112 9.65576 11.6455 9.75342 11.8896 10.0708C15.5029 15.0269 17.7979 18.7012 17.7979 21.3989C17.7979 24.5117 16.0889 26.3062 12.5122 26.3062L7.21436 26.3062C3.6377 26.3062 1.92871 24.5117 1.92871 21.3989ZM4.52881 12.7686L4.15039 14.6973L15.6006 14.6973L15.2344 12.7686ZM1.33057 22.1924L7.91016 22.1924L7.91016 20.2637L1.33057 20.2637ZM9.87549 24.0479C11.438 24.0479 12.6831 22.7905 12.6831 21.2158C12.6831 19.6411 11.438 18.396 9.87549 18.396C8.27637 18.396 7.04346 19.6411 7.04346 21.2158C7.04346 22.7905 8.27637 24.0479 9.87549 24.0479ZM9.87549 22.3145C9.22852 22.3145 8.77686 21.8506 8.77686 21.2158C8.77686 20.5933 9.22852 20.1172 9.87549 20.1172C10.498 20.1172 10.9619 20.5933 10.9619 21.2158C10.9619 21.8506 10.498 22.3145 9.87549 22.3145ZM11.8286 22.1924L18.457 22.1924L18.457 20.2637L11.8286 20.2637ZM3.94287 3.07617C4.41895 2.73438 4.5166 2.05078 4.19922 1.57471C3.86963 1.11084 3.21045 0.976562 2.70996 1.31836C2.24609 1.64795 2.09961 2.34375 2.4292 2.80762C2.771 3.28369 3.4668 3.40576 3.94287 3.07617ZM6.16455 6.27441C6.79932 5.85938 6.9458 4.98047 6.51855 4.3457C6.0791 3.73535 5.22461 3.58887 4.58984 4.01611C3.96729 4.43115 3.78418 5.31006 4.24805 5.94482C4.69971 6.56738 5.54199 6.73828 6.16455 6.27441ZM9.87549 2.14844C10.4736 2.14844 10.9497 1.64795 10.9497 1.08643C10.9497 0.488281 10.4614 0 9.87549 0C9.30176 0 8.82568 0.488281 8.82568 1.08643C8.82568 1.64795 9.28955 2.14844 9.87549 2.14844ZM9.87549 6.06689C10.6445 6.06689 11.2793 5.43213 11.2793 4.67529C11.2793 3.91846 10.6445 3.28369 9.87549 3.28369C9.13086 3.28369 8.5083 3.91846 8.5083 4.67529C8.5083 5.43213 9.13086 6.06689 9.87549 6.06689ZM15.8081 3.07617C16.2964 3.40576 16.9678 3.28369 17.3218 2.80762C17.6514 2.34375 17.5293 1.64795 17.041 1.31836C16.5405 0.976562 15.8813 1.11084 15.5518 1.57471C15.2344 2.05078 15.332 2.73438 15.8081 3.07617ZM13.5864 6.27441C14.209 6.73828 15.0635 6.56738 15.5029 5.94482C15.9668 5.31006 15.7837 4.43115 15.1611 4.01611C14.5142 3.58887 13.6719 3.73535 13.2324 4.3457C12.793 4.99268 12.9517 5.85938 13.5864 6.27441Z" fill="#5ac8f5"/>
 </g>
</svg>
