<?xml version="1.0" encoding="UTF-8"?>
<!--Generator: Apple Native CoreSVG 175.5-->
<!DOCTYPE svg
PUBLIC "-//W3C//DTD SVG 1.1//EN"
       "http://www.w3.org/Graphics/SVG/1.1/DTD/svg11.dtd">
<svg version="1.1" xmlns="http://www.w3.org/2000/svg" xmlns:xlink="http://www.w3.org/1999/xlink" width="27.4902" height="27.2037">
 <g>
  <rect height="27.2037" opacity="0" width="27.4902" x="0" y="0"/>
  <path d="M13.7451 25.5464C14.0625 25.5464 14.3677 25.5098 14.6973 25.4854L15.3931 26.8282C15.5396 27.0967 15.7959 27.2432 16.1377 27.1944C16.4429 27.1333 16.6504 26.9136 16.6992 26.584L16.9067 25.107C17.5171 24.9483 18.1152 24.7163 18.689 24.46L19.7876 25.4488C20.0195 25.6685 20.3125 25.7173 20.6177 25.5464C20.8862 25.3999 20.9961 25.107 20.9351 24.7896L20.6299 23.3247C21.1426 22.9707 21.6431 22.5679 22.0947 22.1162L23.4497 22.69C23.7549 22.8242 24.0479 22.751 24.2798 22.4702C24.4873 22.2505 24.4995 21.9331 24.3286 21.6646L23.5352 20.395C23.9014 19.8824 24.1943 19.333 24.4751 18.7471L25.9766 18.8203C26.2939 18.8325 26.5503 18.6616 26.6602 18.3565C26.7578 18.0513 26.6724 17.7583 26.416 17.563L25.2441 16.6353C25.4028 16.0493 25.5249 15.4146 25.5859 14.7554L26.9897 14.3159C27.3071 14.2061 27.4902 13.9741 27.4902 13.6446C27.4902 13.3272 27.3071 13.083 26.9897 12.9854L25.5859 12.5337C25.5249 11.8745 25.4028 11.2642 25.2441 10.666L26.416 9.7261C26.6602 9.543 26.7578 9.26223 26.6602 8.95706C26.5503 8.65188 26.2939 8.48098 25.9766 8.49319L24.4751 8.55423C24.1943 7.96829 23.9014 7.41897 23.5352 6.90628L24.3286 5.63675C24.4995 5.3804 24.4751 5.06301 24.2798 4.84329C24.0479 4.56253 23.7549 4.50149 23.4497 4.62356L22.0947 5.17288C21.6431 4.74563 21.1426 4.33059 20.6299 3.97659L20.9351 2.52395C21.0083 2.19436 20.8862 1.90139 20.6177 1.75491C20.3125 1.59622 20.0195 1.62063 19.7876 1.86477L18.689 2.82913C18.1152 2.57278 17.5171 2.36526 16.9067 2.19436L16.6992 0.717311C16.6504 0.399929 16.4307 0.167995 16.1255 0.119167C15.7959 0.0703388 15.5273 0.204616 15.3931 0.473171L14.6973 1.81594C14.3677 1.79153 14.0625 1.76712 13.7451 1.76712C13.4155 1.76712 13.1226 1.79153 12.793 1.81594L12.085 0.473171C11.9507 0.204616 11.6821 0.0703388 11.3525 0.119167C11.0474 0.167995 10.8276 0.399929 10.791 0.717311L10.5713 2.18216C9.96094 2.36526 9.375 2.57278 8.78906 2.82913L7.69043 1.86477C7.4585 1.62063 7.16553 1.59622 6.86035 1.75491C6.5918 1.90139 6.46973 2.19436 6.54297 2.52395L6.84814 3.97659C6.34766 4.33059 5.83496 4.74563 5.3833 5.17288L4.02832 4.62356C3.72314 4.50149 3.44238 4.56253 3.21045 4.84329C3.00293 5.06301 2.99072 5.3804 3.14941 5.62454L3.94287 6.90628C3.58887 7.41897 3.28369 7.96829 3.00293 8.55423L1.51367 8.49319C1.19629 8.48098 0.927734 8.65188 0.817871 8.95706C0.720215 9.26223 0.817871 9.53079 1.06201 9.7261L2.23389 10.666C2.0752 11.2642 1.95312 11.8745 1.9165 12.5337L0.488281 12.9854C0.170898 13.083 0 13.315 0 13.6446C0 13.9741 0.170898 14.2061 0.488281 14.3159L1.9165 14.7676C1.95312 15.4146 2.0752 16.0493 2.23389 16.6353L1.06201 17.563C0.817871 17.7583 0.732422 18.0513 0.817871 18.3565C0.927734 18.6616 1.19629 18.8325 1.51367 18.8203L3.00293 18.7471C3.28369 19.333 3.58887 19.8824 3.94287 20.395L3.14941 21.6646C2.97852 21.9331 3.00293 22.2505 3.21045 22.4702C3.44238 22.751 3.72314 22.8242 4.02832 22.69L5.3833 22.1162C5.83496 22.5679 6.34766 22.9707 6.84814 23.3247L6.54297 24.7896C6.48193 25.107 6.5918 25.3999 6.86035 25.5464C7.16553 25.7173 7.4585 25.6685 7.69043 25.4488L8.78906 24.46C9.375 24.7163 9.96094 24.9483 10.5713 25.107L10.791 26.584C10.8276 26.9136 11.0474 27.1333 11.3525 27.1944C11.6821 27.2432 11.9385 27.0967 12.085 26.8282L12.793 25.4854C13.1104 25.5098 13.4155 25.5464 13.7451 25.5464ZM13.7451 23.6909C8.1543 23.6909 3.83301 19.2354 3.83301 13.6568C3.83301 8.07815 8.1543 3.62258 13.7451 3.62258C19.3359 3.62258 23.6572 8.07815 23.6572 13.6568C23.6572 19.2354 19.3359 23.6909 13.7451 23.6909Z" fill="#5ac8f5" fill-opacity="0.5"/>
  <path d="M13.269 20.1997C14.8315 20.1997 16.0767 18.9546 16.0767 17.3799C16.0767 16.2935 15.4663 15.4024 14.5752 14.9141C14.2944 14.7676 14.1846 14.5845 14.1846 14.1328L14.1846 8.23684C14.1846 7.73635 13.7817 7.32132 13.269 7.32132C12.7686 7.32132 12.3657 7.73635 12.3657 8.23684L12.3657 14.1328C12.3657 14.5845 12.2681 14.7676 11.9751 14.9141C11.084 15.4024 10.4736 16.2935 10.4736 17.3799C10.4736 18.9546 11.7188 20.1997 13.269 20.1997ZM16.2109 9.86038L18.4448 9.86038C18.7744 9.86038 19.0552 9.59182 19.0552 9.25003C19.0552 8.92044 18.7744 8.65188 18.4448 8.65188L16.2109 8.65188C15.8813 8.65188 15.6128 8.92044 15.6128 9.25003C15.6128 9.59182 15.8813 9.86038 16.2109 9.86038ZM16.2109 12.021L18.4448 12.021C18.7744 12.021 19.0552 11.7403 19.0552 11.4107C19.0552 11.0811 18.7744 10.8125 18.4448 10.8125L16.2109 10.8125C15.8813 10.8125 15.6128 11.0811 15.6128 11.4107C15.6128 11.7403 15.8813 12.021 16.2109 12.021ZM16.2109 14.1939L18.4448 14.1939C18.7744 14.1939 19.0552 13.9131 19.0552 13.5713C19.0552 13.2539 18.7744 12.9854 18.4448 12.9854L16.2109 12.9854C15.8813 12.9854 15.6128 13.2539 15.6128 13.5713C15.6128 13.9131 15.8813 14.1939 16.2109 14.1939Z" fill="#5ac8f5"/>
 </g>
</svg>
