<?xml version="1.0" encoding="UTF-8"?>
<!--Generator: Apple Native CoreSVG 175.5-->
<!DOCTYPE svg
PUBLIC "-//W3C//DTD SVG 1.1//EN"
       "http://www.w3.org/Graphics/SVG/1.1/DTD/svg11.dtd">
<svg version="1.1" xmlns="http://www.w3.org/2000/svg" xmlns:xlink="http://www.w3.org/1999/xlink" width="17.8361" height="26.4282">
 <g>
  <rect height="26.4282" opacity="0" width="17.8361" x="0" y="0"/>
  <path d="M7.59277 26.4038C12.1338 26.4038 15.1611 23.3765 15.1611 18.811L15.1611 16.394C15.1611 15.8203 14.6973 15.3564 14.1235 15.3564C13.5498 15.3564 13.0737 15.8203 13.0737 16.394L13.0737 18.811C13.0737 22.1069 10.8643 24.3164 7.59277 24.3164C4.29688 24.3164 2.0874 22.1069 2.0874 18.811L2.0874 7.56836C2.0874 4.29688 4.29688 2.0752 7.59277 2.0752C10.8643 2.0752 13.0737 4.29688 13.0737 7.56836L13.0737 9.04541L15.1611 9.04541L15.1611 7.56836C15.1611 3.01514 12.1338 0 7.59277 0C3.02734 0 0 3.01514 0 7.56836L0 18.811C0 23.3765 3.02734 26.4038 7.59277 26.4038ZM16.9678 7.61719L11.3525 7.61719C10.498 7.61719 10.2661 8.21533 10.73 8.88672L13.4644 12.7808C13.855 13.3301 14.4409 13.3423 14.8438 12.7808L17.5903 8.89893C18.0664 8.21533 17.8467 7.61719 16.9678 7.61719Z" fill="#5ac8f5"/>
 </g>
</svg>
