<?xml version="1.0" encoding="UTF-8"?>
<!--Generator: Apple Native CoreSVG 175.5-->
<!DOCTYPE svg
PUBLIC "-//W3C//DTD SVG 1.1//EN"
       "http://www.w3.org/Graphics/SVG/1.1/DTD/svg11.dtd">
<svg version="1.1" xmlns="http://www.w3.org/2000/svg" xmlns:xlink="http://www.w3.org/1999/xlink" width="30.7251" height="19.2993">
 <g>
  <rect height="19.2993" opacity="0" width="30.7251" x="0" y="0"/>
  <path d="M3.83301 19.2871L26.8921 19.2871C29.4312 19.2871 30.7251 18.0176 30.7251 15.5029L30.7251 3.77197C30.7251 1.26953 29.4312 0 26.8921 0L3.83301 0C1.26953 0 0 1.25732 0 3.77197L0 15.5029C0 18.0176 1.26953 19.2871 3.83301 19.2871ZM11.499 6.68945C11.2793 6.68945 11.1328 6.53076 11.1328 6.28662L11.1328 4.87061C11.1328 4.61426 11.2793 4.46777 11.499 4.46777L12.439 4.46777C12.6587 4.46777 12.8052 4.61426 12.8052 4.87061L12.8052 6.28662C12.8052 6.53076 12.6587 6.68945 12.439 6.68945ZM14.27 6.68945C14.0503 6.68945 13.8916 6.53076 13.8916 6.28662L13.8916 4.87061C13.8916 4.61426 14.0503 4.46777 14.27 4.46777L15.1978 4.46777C15.4175 4.46777 15.564 4.61426 15.564 4.87061L15.564 6.28662C15.564 6.53076 15.4175 6.68945 15.1978 6.68945ZM17.041 6.68945C16.7969 6.68945 16.6626 6.53076 16.6626 6.28662L16.6626 4.87061C16.6626 4.61426 16.7969 4.46777 17.041 4.46777L17.9688 4.46777C18.1763 4.46777 18.335 4.61426 18.335 4.87061L18.335 6.28662C18.335 6.53076 18.1763 6.68945 17.9688 6.68945ZM19.7998 6.68945C19.5557 6.68945 19.4214 6.53076 19.4214 6.28662L19.4214 4.87061C19.4214 4.61426 19.5557 4.46777 19.7998 4.46777L20.7031 4.46777C20.9473 4.46777 21.0815 4.61426 21.0815 4.87061L21.0815 6.28662C21.0815 6.53076 20.9473 6.68945 20.7031 6.68945ZM22.5464 6.68945C22.3267 6.68945 22.1924 6.53076 22.1924 6.28662L22.1924 4.87061C22.1924 4.61426 22.3267 4.46777 22.5464 4.46777L23.4863 4.46777C23.7061 4.46777 23.8525 4.61426 23.8525 4.87061L23.8525 6.28662C23.8525 6.53076 23.7061 6.68945 23.4863 6.68945ZM25.3296 6.68945C25.0854 6.68945 24.9512 6.53076 24.9512 6.28662L24.9512 4.87061C24.9512 4.61426 25.0854 4.46777 25.3296 4.46777L26.2329 4.46777C26.4771 4.46777 26.6113 4.61426 26.6113 4.87061L26.6113 6.28662C26.6113 6.53076 26.4771 6.68945 26.2329 6.68945ZM11.499 10.73C11.2793 10.73 11.1328 10.5957 11.1328 10.3271L11.1328 8.92334C11.1328 8.65479 11.2793 8.52051 11.499 8.52051L12.439 8.52051C12.6587 8.52051 12.8052 8.65479 12.8052 8.92334L12.8052 10.3271C12.8052 10.5957 12.6587 10.73 12.439 10.73ZM14.27 10.73C14.0503 10.73 13.8916 10.5957 13.8916 10.3271L13.8916 8.92334C13.8916 8.65479 14.0503 8.52051 14.27 8.52051L15.1978 8.52051C15.4175 8.52051 15.564 8.65479 15.564 8.92334L15.564 10.3271C15.564 10.5957 15.4175 10.73 15.1978 10.73ZM17.041 10.73C16.7969 10.73 16.6626 10.5957 16.6626 10.3271L16.6626 8.92334C16.6626 8.65479 16.7969 8.52051 17.041 8.52051L17.9688 8.52051C18.1763 8.52051 18.335 8.65479 18.335 8.92334L18.335 10.3271C18.335 10.5957 18.1763 10.73 17.9688 10.73ZM19.7998 10.73C19.5557 10.73 19.4214 10.5957 19.4214 10.3271L19.4214 8.92334C19.4214 8.65479 19.5557 8.52051 19.7998 8.52051L20.7031 8.52051C20.9473 8.52051 21.0815 8.65479 21.0815 8.92334L21.0815 10.3271C21.0815 10.5957 20.9473 10.73 20.7031 10.73ZM22.5464 10.73C22.3267 10.73 22.1924 10.5957 22.1924 10.3271L22.1924 8.92334C22.1924 8.65479 22.3267 8.52051 22.5464 8.52051L23.4863 8.52051C23.7061 8.52051 23.8525 8.65479 23.8525 8.92334L23.8525 10.3271C23.8525 10.5957 23.7061 10.73 23.4863 10.73ZM25.3296 10.73C25.0854 10.73 24.9512 10.5957 24.9512 10.3271L24.9512 8.92334C24.9512 8.65479 25.0854 8.52051 25.3296 8.52051L26.2329 8.52051C26.4771 8.52051 26.6113 8.65479 26.6113 8.92334L26.6113 10.3271C26.6113 10.5957 26.4771 10.73 26.2329 10.73ZM11.499 14.7827C11.2793 14.7827 11.1328 14.6362 11.1328 14.3799L11.1328 12.9639C11.1328 12.7197 11.2793 12.561 11.499 12.561L12.439 12.561C12.6587 12.561 12.8052 12.7197 12.8052 12.9639L12.8052 14.3799C12.8052 14.6362 12.6587 14.7827 12.439 14.7827ZM14.27 14.7827C14.0503 14.7827 13.8916 14.6362 13.8916 14.3799L13.8916 12.9639C13.8916 12.7197 14.0503 12.561 14.27 12.561L23.4863 12.561C23.7061 12.561 23.8525 12.7197 23.8525 12.9639L23.8525 14.3799C23.8525 14.6362 23.7061 14.7827 23.4863 14.7827ZM25.3296 14.7827C25.0854 14.7827 24.9512 14.6362 24.9512 14.3799L24.9512 12.9639C24.9512 12.7197 25.0854 12.561 25.3296 12.561L26.2329 12.561C26.4771 12.561 26.6113 12.7197 26.6113 12.9639L26.6113 14.3799C26.6113 14.6362 26.4771 14.7827 26.2329 14.7827ZM8.94775 8.93555C9.41162 9.375 9.41162 9.8999 8.94775 10.3394L5.26123 13.855C4.83398 14.2578 4.10156 14.0991 4.10156 13.4155L4.10156 5.85938C4.10156 5.18799 4.83398 5.0293 5.26123 5.43213Z" fill="#5ac8f5"/>
 </g>
</svg>
