<?xml version="1.0" encoding="UTF-8"?>
<!--Generator: Apple Native CoreSVG 175.5-->
<!DOCTYPE svg
PUBLIC "-//W3C//DTD SVG 1.1//EN"
       "http://www.w3.org/Graphics/SVG/1.1/DTD/svg11.dtd">
<svg version="1.1" xmlns="http://www.w3.org/2000/svg" xmlns:xlink="http://www.w3.org/1999/xlink" width="24.9023" height="24.9146">
 <g>
  <rect height="24.9146" opacity="0" width="24.9023" x="0" y="0"/>
  <path d="M12.4512 24.9023C19.2627 24.9023 24.9023 19.2505 24.9023 12.4512C24.9023 5.63965 19.2505 0 12.439 0C5.63965 0 0 5.63965 0 12.4512C0 19.2505 5.65186 24.9023 12.4512 24.9023ZM12.4512 22.8271C6.68945 22.8271 2.0874 18.2129 2.0874 12.4512C2.0874 6.68945 6.67725 2.0752 12.439 2.0752C18.2007 2.0752 22.8271 6.68945 22.8271 12.4512C22.8271 18.2129 18.2129 22.8271 12.4512 22.8271Z" fill="#5ac8f5" fill-opacity="0.5"/>
  <path d="M17.7002 7.20215C16.2842 5.81055 14.4287 5.81055 13.0005 7.26318L10.4858 9.77783L15.1001 14.4043L17.627 11.8896C19.0918 10.437 19.1162 8.55713 17.7002 7.20215ZM7.17773 17.7246C8.58154 19.0918 10.4492 19.0674 11.8896 17.6147L14.4043 15.1001L9.79004 10.4858L7.27539 13.0127C5.82275 14.4775 5.79834 16.333 7.17773 17.7246Z" fill="#5ac8f5"/>
 </g>
</svg>
