<?xml version="1.0" encoding="UTF-8"?>
<!--Generator: Apple Native CoreSVG 175.5-->
<!DOCTYPE svg
PUBLIC "-//W3C//DTD SVG 1.1//EN"
       "http://www.w3.org/Graphics/SVG/1.1/DTD/svg11.dtd">
<svg version="1.1" xmlns="http://www.w3.org/2000/svg" xmlns:xlink="http://www.w3.org/1999/xlink" width="22.4731" height="22.4976">
 <g>
  <rect height="22.4976" opacity="0" width="22.4731" x="0" y="0"/>
  <path d="M3.83301 22.4976L18.6401 22.4976C21.2036 22.4976 22.4731 21.228 22.4731 18.7134L22.4731 3.80859C22.4731 1.29395 21.2036 0.0244141 18.6401 0.0244141L3.83301 0.0244141C1.28174 0.0244141 0 1.28174 0 3.80859L0 18.7134C0 21.2402 1.28174 22.4976 3.83301 22.4976ZM3.85742 20.5322C2.63672 20.5322 1.96533 19.8853 1.96533 18.6157L1.96533 3.90625C1.96533 2.63672 2.63672 1.98975 3.85742 1.98975L18.6157 1.98975C19.8242 1.98975 20.5078 2.63672 20.5078 3.90625L20.5078 18.6157C20.5078 19.8853 19.8242 20.5322 18.6157 20.5322ZM7.61719 16.8335C8.00781 16.8335 8.22754 16.6992 8.53271 16.272L11.1694 12.5122L11.2183 12.5122L13.855 16.272C14.1602 16.6992 14.3799 16.8335 14.7705 16.8335C15.3198 16.8335 15.7227 16.4673 15.7227 15.9424C15.7227 15.6982 15.6494 15.5151 15.4907 15.3076L12.4268 11.1206L15.5151 6.92139C15.686 6.70166 15.7593 6.50635 15.7593 6.27441C15.7593 5.79834 15.3442 5.41992 14.8315 5.41992C14.4531 5.41992 14.209 5.56641 13.9404 5.96924L11.4014 9.729L11.3281 9.729L8.72803 5.95703C8.44727 5.56641 8.21533 5.41992 7.80029 5.41992C7.27539 5.41992 6.84814 5.83496 6.84814 6.32324C6.84814 6.5918 6.92139 6.7627 7.10449 7.03125L10.0342 11.0596L6.93359 15.3564C6.7749 15.5762 6.71387 15.7471 6.71387 15.9912C6.71387 16.4673 7.10449 16.8335 7.61719 16.8335Z" fill="#5ac8f5"/>
 </g>
</svg>
