<?xml version="1.0" encoding="UTF-8"?>
<!--Generator: Apple Native CoreSVG 175.5-->
<!DOCTYPE svg
PUBLIC "-//W3C//DTD SVG 1.1//EN"
       "http://www.w3.org/Graphics/SVG/1.1/DTD/svg11.dtd">
<svg version="1.1" xmlns="http://www.w3.org/2000/svg" xmlns:xlink="http://www.w3.org/1999/xlink" width="29.1016" height="31.0913">
 <g>
  <rect height="31.0913" opacity="0" width="29.1016" x="0" y="0"/>
  <path d="M2.80762 23.938L26.2817 23.938C28.0396 23.938 29.1016 22.876 29.1016 21.1182L29.1016 6.48193C29.1016 4.72412 28.0396 3.67432 26.2817 3.67432L17.0898 3.67432L17.0898 5.63965L26.2573 5.63965C26.7944 5.63965 27.1362 5.96924 27.1362 6.51855L27.1362 18.0298C27.1362 18.4204 26.9653 18.5547 26.5991 18.5547L2.49023 18.5547C2.12402 18.5547 1.96533 18.4204 1.96533 18.0298L1.96533 6.51855C1.96533 5.96924 2.30713 5.63965 2.84424 5.63965L12.0117 5.63965L12.0117 3.67432L2.80762 3.67432C1.06201 3.67432 0 4.72412 0 6.48193L0 21.1182C0 22.876 1.06201 23.938 2.80762 23.938ZM10.6934 26.8433L18.4082 26.8433L18.4082 23.7793L10.6934 23.7793ZM10.6201 28.2715L18.4814 28.2715C19.0186 28.2715 19.458 27.832 19.458 27.2827C19.458 26.7334 19.0186 26.2939 18.4814 26.2939L10.6201 26.2939C10.083 26.2939 9.63135 26.7334 9.63135 27.2827C9.63135 27.832 10.083 28.2715 10.6201 28.2715ZM13.6719 0.878906L13.6719 10.5835L13.7939 13.1592L11.4136 10.4858L10.7056 9.80225C10.5347 9.63135 10.3149 9.53369 10.0464 9.53369C9.55811 9.53369 9.21631 9.8877 9.21631 10.3638C9.21631 10.6201 9.30176 10.8398 9.48486 11.0107L13.8916 15.4419C14.0991 15.6494 14.3311 15.7715 14.5508 15.7715C14.7583 15.7715 15.0024 15.6494 15.1978 15.4419L19.6167 11.0107C19.7876 10.8398 19.8853 10.6201 19.8853 10.3638C19.8853 9.8877 19.5312 9.53369 19.043 9.53369C18.7866 9.53369 18.5547 9.63135 18.3838 9.80225L17.688 10.4858L15.2954 13.1592L15.4175 10.5835L15.4175 0.878906C15.4175 0.32959 15.0024 0 14.5508 0C14.0991 0 13.6719 0.32959 13.6719 0.878906Z" fill="#5ac8f5"/>
 </g>
</svg>
