<?xml version="1.0" encoding="UTF-8"?>
<!--Generator: Apple Native CoreSVG 175.5-->
<!DOCTYPE svg
PUBLIC "-//W3C//DTD SVG 1.1//EN"
       "http://www.w3.org/Graphics/SVG/1.1/DTD/svg11.dtd">
<svg version="1.1" xmlns="http://www.w3.org/2000/svg" xmlns:xlink="http://www.w3.org/1999/xlink" width="24.9023" height="24.9146">
 <g>
  <rect height="24.9146" opacity="0" width="24.9023" x="0" y="0"/>
  <path d="M16.7114 12.4512C16.7114 17.041 14.6973 20.7764 11.3159 22.7539C6.10352 22.2046 2.06299 17.8223 2.0752 12.4512C2.0874 7.10449 6.0791 2.73438 11.2549 2.14844C14.6729 4.1626 16.7114 7.92236 16.7114 12.4512Z" fill="#5ac8f5" fill-opacity="0.25"/>
  <path d="M24.9023 12.4512C24.9023 5.63965 19.2749 0 12.4634 0C5.66406 0 0 5.63965 0 12.4512C0 19.2505 5.65186 24.9023 12.4512 24.9023C19.2627 24.9023 24.9023 19.2505 24.9023 12.4512ZM16.7114 12.4512C16.7114 17.041 14.6973 20.7764 11.3159 22.7539C6.10352 22.2046 2.06299 17.8223 2.0752 12.4512C2.0874 7.10449 6.0791 2.73438 11.2549 2.14844C14.6729 4.1626 16.7114 7.92236 16.7114 12.4512Z" fill="#5ac8f5"/>
 </g>
</svg>
