<?xml version="1.0" encoding="UTF-8"?>
<!--Generator: Apple Native CoreSVG 175.5-->
<!DOCTYPE svg
PUBLIC "-//W3C//DTD SVG 1.1//EN"
       "http://www.w3.org/Graphics/SVG/1.1/DTD/svg11.dtd">
<svg version="1.1" xmlns="http://www.w3.org/2000/svg" xmlns:xlink="http://www.w3.org/1999/xlink" width="17.7002" height="26.1353">
 <g>
  <rect height="26.1353" opacity="0" width="17.7002" x="0" y="0"/>
  <path d="M0 18.0054C0 19.8975 0.744629 21.2891 2.12402 22.0459C2.79541 22.3999 3.18604 22.8516 3.43018 23.6694L3.8208 24.9756C4.05273 25.7568 4.60205 26.1353 5.41992 26.1353L11.0596 26.1353C11.9019 26.1353 12.4146 25.769 12.6465 24.9756L13.0493 23.6694C13.2935 22.8516 13.6841 22.3999 14.3555 22.0459C15.7349 21.2891 16.4795 19.8975 16.4795 18.0054L16.4795 8.12988C16.4795 6.23779 15.7349 4.8584 14.3555 4.08936C13.6841 3.73535 13.2935 3.28369 13.0493 2.47803L12.6465 1.15967C12.439 0.390625 11.8896 0 11.0596 0L5.41992 0C4.60205 0 4.05273 0.378418 3.8208 1.15967L3.43018 2.47803C3.19824 3.27148 2.80762 3.74756 2.12402 4.08936C0.756836 4.82178 0 6.21338 0 8.12988ZM1.78223 17.749L1.78223 8.39844C1.78223 6.57959 2.84424 5.48096 4.62646 5.48096L11.853 5.48096C13.6353 5.48096 14.6973 6.57959 14.6973 8.39844L14.6973 17.749C14.6973 19.5557 13.6353 20.6543 11.853 20.6543L4.62646 20.6543C2.84424 20.6543 1.78223 19.5557 1.78223 17.749ZM16.2109 12.207L16.6504 12.207C17.2852 12.207 17.7002 11.7798 17.7002 11.084L17.7002 9.43604C17.7002 8.74023 17.2852 8.31299 16.6504 8.31299L16.2109 8.31299ZM3.88184 16.1621C3.88184 16.8579 4.22363 17.2119 4.88281 17.2119L9.0332 17.2119C9.69238 17.2119 10.0342 16.8579 10.0342 16.1621L10.0342 12.9761C10.0342 12.2803 9.69238 11.9385 9.0332 11.9385L4.88281 11.9385C4.22363 11.9385 3.88184 12.2803 3.88184 12.9761ZM8.09326 12.6465L9.30176 12.6465L9.30176 10.9009C9.30176 9.99756 9.79004 9.41162 10.6201 9.41162C11.4502 9.41162 11.9385 9.99756 11.9385 10.9009L11.9385 11.7676C11.9385 12.1094 12.207 12.3779 12.5488 12.3779C12.8662 12.3779 13.147 12.1094 13.147 11.7676L13.147 10.9009C13.147 9.36279 12.146 8.23975 10.6201 8.23975C9.08203 8.23975 8.09326 9.36279 8.09326 11.0107Z" fill="#5ac8f5"/>
 </g>
</svg>
