<?xml version="1.0" encoding="UTF-8"?>
<!--Generator: Apple Native CoreSVG 175.5-->
<!DOCTYPE svg
PUBLIC "-//W3C//DTD SVG 1.1//EN"
       "http://www.w3.org/Graphics/SVG/1.1/DTD/svg11.dtd">
<svg version="1.1" xmlns="http://www.w3.org/2000/svg" xmlns:xlink="http://www.w3.org/1999/xlink" width="22.4731" height="22.4976">
 <g>
  <rect height="22.4976" opacity="0" width="22.4731" x="0" y="0"/>
  <path d="M3.83301 22.4976L18.6401 22.4976C21.2036 22.4976 22.4731 21.228 22.4731 18.7134L22.4731 3.80859C22.4731 1.29395 21.2036 0.0244141 18.6401 0.0244141L3.83301 0.0244141C1.28174 0.0244141 0 1.28174 0 3.80859L0 18.7134C0 21.2402 1.28174 22.4976 3.83301 22.4976ZM3.85742 20.5322C2.63672 20.5322 1.96533 19.8853 1.96533 18.6157L1.96533 3.90625C1.96533 2.63672 2.63672 1.98975 3.85742 1.98975L18.6157 1.98975C19.8242 1.98975 20.5078 2.63672 20.5078 3.90625L20.5078 18.6157C20.5078 19.8853 19.8242 20.5322 18.6157 20.5322Z" fill="#5ac8f5" fill-opacity="0.5"/>
  <path d="M7.14111 17.0532L14.6973 17.0532C15.1245 17.0532 15.4053 16.7603 15.4053 16.3574C15.4053 15.9668 15.1123 15.686 14.6973 15.686L12.8296 15.686C10.1318 15.686 8.04443 13.6597 8.04443 10.9985C8.04443 9.32617 8.60596 8.1543 9.59473 7.54395L9.59473 10.6445C9.59473 10.9863 9.83887 11.2305 10.1807 11.2305C10.5347 11.2305 10.7788 10.9863 10.7788 10.6445L10.7788 7.12891C10.9863 7.10449 11.2061 7.08008 11.4014 7.08008C11.5845 7.08008 11.7554 7.10449 11.9019 7.12891L11.9019 10.6445C11.9019 10.9863 12.1582 11.2305 12.5 11.2305C12.8418 11.2305 13.0859 10.9863 13.0859 10.6445L13.0859 7.58057C13.9648 8.17871 14.5264 9.21631 14.5508 10.5713C14.563 11.0474 14.8682 11.377 15.3198 11.377C15.7471 11.377 16.0522 11.0474 16.0522 10.5835C16.04 8.43506 14.8682 6.62842 13.0859 5.94482L13.0859 4.82178C13.0859 4.46777 12.8418 4.22363 12.5 4.22363C12.1582 4.22363 11.9019 4.46777 11.9019 4.82178L11.9019 5.65186C11.7432 5.62744 11.5723 5.62744 11.4136 5.62744C11.2061 5.62744 10.9863 5.63965 10.7788 5.66406L10.7788 4.82178C10.7788 4.46777 10.5225 4.22363 10.1807 4.22363C9.83887 4.22363 9.59473 4.46777 9.59473 4.82178L9.59473 5.9082C7.66602 6.604 6.48193 8.39844 6.48193 10.8276C6.48193 12.915 7.4585 14.7217 8.95996 15.686L7.15332 15.686C6.75049 15.686 6.45752 15.9668 6.45752 16.3574C6.45752 16.7725 6.72607 17.0532 7.14111 17.0532Z" fill="#5ac8f5"/>
 </g>
</svg>
