<?xml version="1.0" encoding="UTF-8"?>
<!--Generator: Apple Native CoreSVG 175.5-->
<!DOCTYPE svg
PUBLIC "-//W3C//DTD SVG 1.1//EN"
       "http://www.w3.org/Graphics/SVG/1.1/DTD/svg11.dtd">
<svg version="1.1" xmlns="http://www.w3.org/2000/svg" xmlns:xlink="http://www.w3.org/1999/xlink" width="28.7842" height="22.4731">
 <g>
  <rect height="22.4731" opacity="0" width="28.7842" x="0" y="0"/>
  <path d="M3.83301 22.4731L24.9512 22.4731C27.5146 22.4731 28.7842 21.2158 28.7842 18.7012L28.7842 3.78418C28.7842 1.26953 27.5146 0 24.9512 0L3.83301 0C1.28174 0 0 1.26953 0 3.78418L0 18.7012C0 21.2158 1.28174 22.4731 3.83301 22.4731ZM8.43506 11.2549C8.43506 10.6201 8.88672 10.1807 9.52148 10.1807L13.3423 10.1807L13.3423 6.35986C13.3423 5.7251 13.7695 5.27344 14.3799 5.27344C15.0269 5.27344 15.4663 5.7251 15.4663 6.35986L15.4663 10.1807L19.2871 10.1807C19.9219 10.1807 20.3613 10.6201 20.3613 11.2549C20.3613 11.8774 19.9219 12.2925 19.2871 12.2925L15.4663 12.2925L15.4663 16.1255C15.4663 16.7603 15.0269 17.1997 14.3799 17.1997C13.7695 17.1997 13.3423 16.748 13.3423 16.1255L13.3423 12.2925L9.52148 12.2925C8.88672 12.2925 8.43506 11.8774 8.43506 11.2549Z" fill="#5ac8f5"/>
 </g>
</svg>
