<?xml version="1.0" encoding="UTF-8"?>
<!--Generator: Apple Native CoreSVG 175.5-->
<!DOCTYPE svg
PUBLIC "-//W3C//DTD SVG 1.1//EN"
       "http://www.w3.org/Graphics/SVG/1.1/DTD/svg11.dtd">
<svg version="1.1" xmlns="http://www.w3.org/2000/svg" xmlns:xlink="http://www.w3.org/1999/xlink" width="27.9053" height="24.5239">
 <g>
  <rect height="24.5239" opacity="0" width="27.9053" x="0" y="0"/>
  <path d="M1.29395 6.64062L26.6113 6.64062C27.3804 6.64062 27.9053 6.11572 27.9053 5.33447L27.9053 1.28174C27.9053 0.524902 27.3804 0 26.6113 0L1.29395 0C0.524902 0 0 0.524902 0 1.28174L0 5.33447C0 6.11572 0.524902 6.64062 1.29395 6.64062ZM2.28271 4.67529C2.09961 4.67529 1.96533 4.54102 1.96533 4.3457L1.96533 2.29492C1.96533 2.09961 2.09961 1.96533 2.28271 1.96533L25.6226 1.96533C25.8057 1.96533 25.9399 2.09961 25.9399 2.29492L25.9399 4.3457C25.9399 4.54102 25.8057 4.67529 25.6226 4.67529ZM2.80762 23.4985L4.77295 23.4985L4.77295 5.63965L2.80762 5.63965ZM23.1323 23.4985L25.0977 23.4985L25.0977 5.63965L23.1323 5.63965ZM6.84814 23.4985L8.38623 23.4985L8.38623 10.6689C8.38623 10.2783 8.61816 10.0464 8.99658 10.0464L18.9087 10.0464C19.2871 10.0464 19.519 10.2783 19.519 10.6689L19.519 23.4985L21.0571 23.4985L21.0571 10.2295C21.0571 9.16748 20.3979 8.52051 19.3481 8.52051L8.55713 8.52051C7.50732 8.52051 6.84814 9.16748 6.84814 10.2295ZM1.02539 24.4873L26.8799 24.4873C27.417 24.4873 27.8687 24.0356 27.8687 23.4985C27.8687 22.9614 27.417 22.522 26.8799 22.522L1.02539 22.522C0.488281 22.522 0.0366211 22.9614 0.0366211 23.4985C0.0366211 24.0356 0.488281 24.4873 1.02539 24.4873ZM13.7573 21.582C16.1499 21.582 17.7124 19.9829 17.7124 17.5781C17.7124 13.562 14.2944 11.8896 11.9385 11.8896C11.3281 11.8896 11.0718 12.2437 11.3892 12.6709C11.9507 13.3789 12.4512 14.1602 12.4146 15.2466C12.146 14.7461 11.6699 14.4043 11.2793 14.4043C11.0962 14.4043 10.9985 14.5142 10.9985 14.6851C10.9985 14.7949 10.9985 15.0269 10.9985 15.1978C10.9985 16.3208 10.2539 16.9067 10.2539 18.5181C10.2539 20.3735 11.6577 21.582 13.7573 21.582ZM13.8794 20.3247C13.0493 20.3247 12.4878 19.8242 12.4878 19.0552C12.4878 18.2739 13.0493 17.9932 13.147 17.4316C13.3789 17.5903 13.5376 17.8223 13.6475 18.1274C13.9038 17.7612 14.0625 17.1387 13.916 16.3208C14.6484 16.5894 15.4663 17.5171 15.4663 18.6523C15.4663 19.5435 14.9536 20.3247 13.8794 20.3247Z" fill="#5ac8f5"/>
 </g>
</svg>
