<?xml version="1.0" encoding="UTF-8"?>
<!--Generator: Apple Native CoreSVG 175.5-->
<!DOCTYPE svg
PUBLIC "-//W3C//DTD SVG 1.1//EN"
       "http://www.w3.org/Graphics/SVG/1.1/DTD/svg11.dtd">
<svg version="1.1" xmlns="http://www.w3.org/2000/svg" xmlns:xlink="http://www.w3.org/1999/xlink" width="14.5142" height="17.4683">
 <g>
  <rect height="17.4683" opacity="0" width="14.5142" x="0" y="0"/>
  <path d="M2.06299 17.4561L8.42285 17.4561C12.1582 17.4561 14.5142 15.4907 14.5142 12.4756C14.5142 10.0952 12.793 8.37402 10.3149 8.23975L10.3149 8.14209C12.3413 7.86133 13.7207 6.33545 13.7207 4.39453C13.7207 1.67236 11.6333 0 8.25195 0L2.06299 0C0.756836 0 0 0.769043 0 2.11182L0 15.3564C0 16.687 0.756836 17.4561 2.06299 17.4561ZM4.02832 14.6362L4.02832 9.79004L7.09229 9.79004C9.22852 9.79004 10.4248 10.6201 10.4248 12.1826C10.4248 13.7817 9.27734 14.6362 7.17773 14.6362ZM4.02832 7.25098L4.02832 2.86865L7.03125 2.86865C8.74023 2.86865 9.75342 3.6499 9.75342 4.99268C9.75342 6.40869 8.63037 7.25098 6.72607 7.25098Z" fill="#5ac8f5"/>
 </g>
</svg>
