<?xml version="1.0" encoding="UTF-8"?>
<!--Generator: Apple Native CoreSVG 175.5-->
<!DOCTYPE svg
PUBLIC "-//W3C//DTD SVG 1.1//EN"
       "http://www.w3.org/Graphics/SVG/1.1/DTD/svg11.dtd">
<svg version="1.1" xmlns="http://www.w3.org/2000/svg" xmlns:xlink="http://www.w3.org/1999/xlink" width="19.2383" height="25.0122">
 <g>
  <rect height="25.0122" opacity="0" width="19.2383" x="0" y="0"/>
  <path d="M8.27637 0.158691C2.97852 0.158691 0 3.479 0 9.14307L0 11.4868C0 13.6353 1.02539 14.9414 2.19727 14.9414C2.46582 14.9414 2.6001 14.8071 2.6001 14.5508L2.6001 13.5132C2.6001 13.0249 2.85645 12.7808 3.14941 12.7808C3.4668 12.7808 3.71094 13.0249 3.71094 13.5132L3.71094 14.1968C3.71094 15.4541 4.52881 16.2842 5.61523 16.2842C6.11572 16.2842 6.33545 16.0889 6.33545 15.6616L6.33545 14.2456C6.33545 13.7573 6.57959 13.5132 6.87256 13.5132C7.18994 13.5132 7.44629 13.7573 7.44629 14.2456L7.44629 15.5518C7.44629 16.9678 8.26416 17.6392 9.32617 17.6392C9.79004 17.6392 10.0464 17.4194 10.0464 17.0166L10.0464 14.2456C10.0464 13.7573 10.2905 13.5132 10.5835 13.5132C10.9009 13.5132 11.1572 13.7573 11.1572 14.2456L11.1572 23.5107C11.1572 24.4141 11.7432 25.0122 12.5122 25.0122C13.3301 25.0122 13.8916 24.4141 13.8916 23.5107L13.8916 9.94873C13.8916 9.61914 14.1113 9.43604 14.3188 9.43604C14.5264 9.43604 14.6973 9.55811 14.8438 9.8999L16.6382 14.1357C16.9067 14.7583 17.3096 15.0391 17.8589 15.0391C18.7012 15.0391 19.2383 14.4653 19.2383 13.7695C19.2383 13.4888 19.1772 13.2568 19.104 13.0615L17.1387 7.16553C15.4541 2.19727 12.1704 0.158691 8.27637 0.158691Z" fill="#5ac8f5"/>
 </g>
</svg>
