<?xml version="1.0" encoding="UTF-8"?>
<!--Generator: Apple Native CoreSVG 175.5-->
<!DOCTYPE svg
PUBLIC "-//W3C//DTD SVG 1.1//EN"
       "http://www.w3.org/Graphics/SVG/1.1/DTD/svg11.dtd">
<svg version="1.1" xmlns="http://www.w3.org/2000/svg" xmlns:xlink="http://www.w3.org/1999/xlink" width="39.8315" height="29.0405">
 <g>
  <rect height="29.0405" opacity="0" width="39.8315" x="0" y="0"/>
  <path d="M9.39941 16.8579C14.7339 16.8579 18.7744 14.3677 18.7744 11.0352C18.7744 7.69043 14.7339 5.18799 9.39941 5.18799C4.05273 5.18799 0 7.67822 0 11.0352C0 14.3799 4.05273 16.8579 9.39941 16.8579ZM9.39941 15.3198C4.90723 15.3198 1.5625 13.4277 1.5625 11.0352C1.5625 8.64258 4.91943 6.71387 9.39941 6.71387C13.8916 6.71387 17.2607 8.64258 17.2607 11.0352C17.2607 13.4277 13.8916 15.3198 9.39941 15.3198ZM9.39941 14.6484C12.8662 14.6484 15.4541 13.1958 15.4541 11.2183C15.4541 9.2041 12.8662 7.75146 9.39941 7.75146C5.95703 7.75146 3.38135 9.2041 3.38135 11.2183C3.38135 13.1958 5.95703 14.6484 9.39941 14.6484ZM9.39941 13.3301C6.71387 13.3301 4.69971 12.3535 4.69971 11.2183C4.69971 10.0342 6.71387 9.08203 9.39941 9.08203C12.0972 9.08203 14.1235 10.0342 14.1235 11.2183C14.1235 12.3535 12.0972 13.3301 9.39941 13.3301ZM9.39941 11.7554C11.4502 11.7554 13.269 10.8154 13.8794 9.47266C12.6587 8.77686 11.084 8.34961 9.39941 8.34961C7.70264 8.34961 6.11572 8.77686 4.89502 9.47266C5.50537 10.8276 7.32422 11.7554 9.39941 11.7554ZM30.4321 16.8579C35.7666 16.8579 39.8315 14.3799 39.8315 11.0352C39.8315 7.67822 35.7666 5.18799 30.4321 5.18799C25.0977 5.18799 21.0571 7.69043 21.0571 11.0352C21.0571 14.3677 25.0977 16.8579 30.4321 16.8579ZM30.4321 15.3198C25.9399 15.3198 22.5708 13.4277 22.5708 11.0352C22.5708 8.64258 25.9521 6.71387 30.4321 6.71387C34.8999 6.71387 38.269 8.64258 38.269 11.0352C38.269 13.4277 34.9121 15.3198 30.4321 15.3198ZM30.4321 14.6484C33.8745 14.6484 36.4624 13.1958 36.4624 11.2183C36.4624 9.2041 33.8745 7.75146 30.4321 7.75146C26.9653 7.75146 24.3896 9.2041 24.3896 11.2183C24.3896 13.1958 26.9653 14.6484 30.4321 14.6484ZM30.4321 13.3301C27.7344 13.3301 25.7202 12.3535 25.7202 11.2183C25.7202 10.0342 27.7344 9.08203 30.4321 9.08203C33.1299 9.08203 35.144 10.0342 35.144 11.2183C35.144 12.3535 33.1177 13.3301 30.4321 13.3301ZM30.4321 11.7554C32.5073 11.7554 34.3262 10.8276 34.9365 9.47266C33.7158 8.77686 32.1289 8.34961 30.4321 8.34961C28.7476 8.34961 27.1729 8.77686 25.9521 9.47266C26.5625 10.8154 28.3813 11.7554 30.4321 11.7554ZM19.9097 29.0405C25.2686 29.0405 29.3091 26.5503 29.3091 23.2056C29.3091 19.8486 25.2686 17.3706 19.9097 17.3706C14.5874 17.3706 10.5347 19.8608 10.5347 23.2056C10.5347 26.5381 14.5874 29.0405 19.9097 29.0405ZM19.9097 27.5024C15.4297 27.5024 12.0483 25.5981 12.0483 23.2056C12.0483 20.8008 15.4419 18.8965 19.9097 18.8965C24.3896 18.8965 27.7588 20.8008 27.7588 23.2056C27.7588 25.5981 24.4019 27.5024 19.9097 27.5024ZM19.9097 26.8066C23.3643 26.8066 25.9399 25.3662 25.9399 23.3643C25.9399 21.3745 23.3643 19.9219 19.9097 19.9219C16.4673 19.9219 13.8916 21.3745 13.8916 23.3643C13.8916 25.354 16.4673 26.8066 19.9097 26.8066ZM19.9097 25.4883C17.2241 25.4883 15.1978 24.5239 15.1978 23.3643C15.1978 22.2046 17.2241 21.2402 19.9097 21.2402C22.6196 21.2402 24.6216 22.2046 24.6216 23.3643C24.6216 24.5239 22.6074 25.4883 19.9097 25.4883ZM19.9097 23.9258C21.9849 23.9258 23.8159 22.9736 24.4385 21.6431C23.1934 20.9473 21.6309 20.52 19.9097 20.52C18.2495 20.52 16.6626 20.9473 15.4419 21.6431C16.0522 22.9614 17.8589 23.9258 19.9097 23.9258Z" fill="#5ac8f5"/>
 </g>
</svg>
