<?xml version="1.0" encoding="UTF-8"?>
<!--Generator: Apple Native CoreSVG 175.5-->
<!DOCTYPE svg
PUBLIC "-//W3C//DTD SVG 1.1//EN"
       "http://www.w3.org/Graphics/SVG/1.1/DTD/svg11.dtd">
<svg version="1.1" xmlns="http://www.w3.org/2000/svg" xmlns:xlink="http://www.w3.org/1999/xlink" width="22.4731" height="22.4976">
 <g>
  <rect height="22.4976" opacity="0" width="22.4731" x="0" y="0"/>
  <path d="M3.83301 22.4976L18.6401 22.4976C21.2036 22.4976 22.4731 21.228 22.4731 18.7134L22.4731 3.80859C22.4731 1.29395 21.2036 0.0244141 18.6401 0.0244141L3.83301 0.0244141C1.28174 0.0244141 0 1.28174 0 3.80859L0 18.7134C0 21.2402 1.28174 22.4976 3.83301 22.4976ZM3.85742 20.5322C2.63672 20.5322 1.96533 19.8853 1.96533 18.6157L1.96533 3.90625C1.96533 2.63672 2.63672 1.98975 3.85742 1.98975L18.6157 1.98975C19.8242 1.98975 20.5078 2.63672 20.5078 3.90625L20.5078 18.6157C20.5078 19.8853 19.8242 20.5322 18.6157 20.5322Z" fill="#5ac8f5" fill-opacity="0.5"/>
  <path d="M7.14111 16.5039C9.24072 16.5039 10.6323 14.4897 10.6323 11.2427C10.6323 7.99561 9.24072 5.98145 7.14111 5.98145C5.0415 5.98145 3.6499 7.99561 3.6499 11.2427C3.6499 14.4897 5.0415 16.5039 7.14111 16.5039ZM7.14111 15.0269C5.98145 15.0269 5.24902 13.5864 5.24902 11.2427C5.24902 8.89893 5.98145 7.4585 7.14111 7.4585C8.30078 7.4585 9.0332 8.89893 9.0332 11.2427C9.0332 13.5864 8.31299 15.0269 7.14111 15.0269ZM15.3564 16.5039C17.4316 16.5039 18.8843 15.2588 18.8843 13.501C18.8843 12.207 17.981 11.1572 16.748 11.0352L16.748 10.9619C17.7612 10.791 18.5547 9.77783 18.5547 8.63037C18.5547 7.06787 17.2729 5.98145 15.4419 5.98145C13.7939 5.98145 12.5732 6.92139 12.2559 8.11768C12.2192 8.27637 12.2192 8.39844 12.2192 8.55713C12.2192 8.99658 12.5 9.30176 12.915 9.30176C13.2812 9.30176 13.4766 9.10645 13.5986 8.71582C13.8672 7.86133 14.4531 7.38525 15.4053 7.38525C16.3818 7.38525 17.0532 7.97119 17.0532 8.82568C17.0532 9.7168 16.3696 10.3638 15.3931 10.3638L14.7339 10.3638C14.3433 10.3638 14.0747 10.6445 14.0747 11.084C14.0747 11.4746 14.3433 11.7798 14.7339 11.7798L15.4541 11.7798C16.6138 11.7798 17.3584 12.439 17.3584 13.4277C17.3584 14.3799 16.5405 15.1001 15.3687 15.1001C14.4043 15.1001 13.7451 14.624 13.4155 13.7695C13.269 13.3789 13.0615 13.1836 12.7197 13.1836C12.3169 13.1836 12.0117 13.4888 12.0117 13.916C12.0117 14.0869 12.0361 14.209 12.085 14.3677C12.4023 15.4907 13.6963 16.5039 15.3564 16.5039Z" fill="#5ac8f5"/>
 </g>
</svg>
