<?xml version="1.0" encoding="UTF-8"?>
<!--Generator: Apple Native CoreSVG 175.5-->
<!DOCTYPE svg
PUBLIC "-//W3C//DTD SVG 1.1//EN"
       "http://www.w3.org/Graphics/SVG/1.1/DTD/svg11.dtd">
<svg version="1.1" xmlns="http://www.w3.org/2000/svg" xmlns:xlink="http://www.w3.org/1999/xlink" width="21.875" height="21.8628">
 <g>
  <rect height="21.8628" opacity="0" width="21.875" x="0" y="0"/>
  <path d="M1.75781 1.74561C0.854492 2.64893 0.183105 4.04053 0.146484 5.17578C0.134277 5.59082 0.378418 5.88379 0.78125 5.88379C1.14746 5.88379 1.3916 5.67627 1.46484 5.31006C1.64795 4.27246 1.98975 3.41797 2.69775 2.68555C3.51562 1.9043 4.28467 1.66016 5.3833 1.42822C5.7251 1.34277 5.93262 1.11084 5.93262 0.793457C5.93262 0.402832 5.65186 0.134277 5.24902 0.134277C4.18701 0.146484 2.73438 0.769043 1.75781 1.74561ZM14.0869 0L7.78809 0C7.42188 0 7.1167 0.305176 7.1167 0.671387C7.1167 1.0376 7.42188 1.35498 7.78809 1.35498L14.0869 1.35498C14.4531 1.35498 14.7583 1.0376 14.7583 0.671387C14.7583 0.305176 14.4531 0 14.0869 0ZM20.105 1.74561C19.1406 0.769043 17.688 0.146484 16.626 0.134277C16.2109 0.134277 15.9424 0.402832 15.9424 0.793457C15.9424 1.11084 16.1377 1.34277 16.4795 1.42822C17.5415 1.64795 18.3472 1.89209 19.1772 2.68555C19.8853 3.41797 20.2148 4.27246 20.4102 5.31006C20.4834 5.67627 20.7153 5.88379 21.0938 5.88379C21.4844 5.88379 21.7407 5.59082 21.7285 5.17578C21.6919 4.04053 21.0205 2.64893 20.105 1.74561ZM21.875 14.0991L21.875 7.78809C21.875 7.42188 21.5576 7.1167 21.1914 7.1167C20.8252 7.1167 20.52 7.42188 20.52 7.78809L20.52 14.0991C20.52 14.4653 20.8252 14.7705 21.1914 14.7705C21.5576 14.7705 21.875 14.4653 21.875 14.0991ZM20.105 20.105C21.0205 19.2017 21.6919 17.8101 21.7285 16.6748C21.7407 16.2598 21.4844 15.9668 21.0938 15.9668C20.7153 15.9668 20.4834 16.1743 20.4102 16.5405C20.2148 17.5781 19.8853 18.4204 19.1772 19.165C18.3594 19.9463 17.5781 20.1904 16.4795 20.4224C16.1377 20.4956 15.9424 20.7397 15.9424 21.0571C15.9424 21.4478 16.2109 21.7163 16.626 21.7163C17.688 21.7041 19.1406 21.0815 20.105 20.105ZM7.78809 21.8506L14.0869 21.8506C14.4531 21.8506 14.7583 21.5454 14.7583 21.1792C14.7583 20.813 14.4531 20.4956 14.0869 20.4956L7.78809 20.4956C7.42188 20.4956 7.1167 20.813 7.1167 21.1792C7.1167 21.5454 7.42188 21.8506 7.78809 21.8506ZM1.75781 20.105C2.73438 21.0815 4.18701 21.7041 5.24902 21.7163C5.65186 21.7163 5.93262 21.4478 5.93262 21.0571C5.93262 20.7397 5.7251 20.4956 5.3833 20.4224C4.32129 20.2026 3.52783 19.9585 2.69775 19.165C1.98975 18.4204 1.64795 17.5781 1.46484 16.5405C1.3916 16.1743 1.14746 15.9668 0.78125 15.9668C0.378418 15.9668 0.134277 16.2598 0.146484 16.6748C0.183105 17.8101 0.854492 19.2017 1.75781 20.105ZM0 7.78809L0 14.0991C0 14.4653 0.305176 14.7705 0.683594 14.7705C1.0498 14.7705 1.35498 14.4653 1.35498 14.0991L1.35498 7.78809C1.35498 7.42188 1.0498 7.1167 0.683594 7.1167C0.305176 7.1167 0 7.42188 0 7.78809ZM17.9688 3.90625C17.0532 2.99072 15.7837 2.85645 14.27 2.85645L7.58057 2.85645C6.09131 2.85645 4.82178 3.00293 3.90625 3.90625C3.00293 4.80957 2.86865 6.06689 2.86865 7.55615L2.86865 14.2578C2.86865 15.7715 3.00293 17.0288 3.90625 17.9321C4.82178 18.8354 6.09131 18.9819 7.60498 18.9819L14.27 18.9819C15.7837 18.9819 17.0654 18.8354 17.9688 17.9321C18.8721 17.0288 19.0063 15.7715 19.0063 14.2578L19.0063 7.58057C19.0063 6.06689 18.8721 4.79736 17.9688 3.90625Z" fill="#5ac8f5"/>
 </g>
</svg>
