<?xml version="1.0" encoding="UTF-8"?>
<!--Generator: Apple Native CoreSVG 175.5-->
<!DOCTYPE svg
PUBLIC "-//W3C//DTD SVG 1.1//EN"
       "http://www.w3.org/Graphics/SVG/1.1/DTD/svg11.dtd">
<svg version="1.1" xmlns="http://www.w3.org/2000/svg" xmlns:xlink="http://www.w3.org/1999/xlink" width="31.9214" height="21.3753">
 <g>
  <rect height="21.3753" opacity="0" width="31.9214" x="0" y="0"/>
  <path d="M5.06592 20.6425L18.2739 20.6425C21.7407 20.6425 24.4263 18.018 24.4263 14.6366C24.4263 11.2797 21.6919 8.74065 18.042 8.71624C16.6138 5.98186 14.0625 4.39495 11.1206 4.39495C7.14111 4.39495 3.78418 7.48333 3.40576 11.4994C1.33057 12.122 0 13.8798 0 16.0282C0 18.7626 2.06299 20.6425 5.06592 20.6425ZM25.8423 14.4047C29.6509 13.7333 31.9214 10.6327 31.9214 8.63079C31.9214 8.15471 31.7139 7.81292 31.3232 7.81292C30.7251 7.81292 29.834 8.59417 28.1494 8.59417C25.1709 8.59417 23.291 6.78753 23.291 4.06536C23.291 2.44182 24.1455 1.26995 24.1455 0.622976C24.1455 0.244559 23.8892-0.0117891 23.4009 0.000417885C21.1426 0.0980741 18.2861 2.62493 17.6392 5.872C18.0176 6.226 18.3838 6.70208 18.689 7.33684C22.7905 7.65423 25.769 10.7548 25.8423 14.4047Z" fill="#5ac8f5"/>
 </g>
</svg>
