<?xml version="1.0" encoding="UTF-8"?>
<!--Generator: Apple Native CoreSVG 175.5-->
<!DOCTYPE svg
PUBLIC "-//W3C//DTD SVG 1.1//EN"
       "http://www.w3.org/Graphics/SVG/1.1/DTD/svg11.dtd">
<svg version="1.1" xmlns="http://www.w3.org/2000/svg" xmlns:xlink="http://www.w3.org/1999/xlink" width="30.0641" height="30.1843">
 <g>
  <rect height="30.1843" opacity="0" width="30.0641" x="0" y="0"/>
  <path d="M10.902 12.2418C10.3161 12.8399 10.3039 13.609 10.902 14.2193L16.0046 19.3341C16.6027 19.9322 17.3839 19.8956 17.9821 19.2975L19.3127 17.9547C18.861 17.2833 18.9098 16.4288 19.508 15.8429C20.1061 15.2569 20.9484 15.1959 21.6198 15.6598L28.7243 8.54306C30.5065 6.76084 30.4943 4.90537 28.7853 3.18418L27.0275 1.43857C25.3063-0.28262 23.4264-0.270413 21.6564 1.4874L14.5519 8.59189C15.028 9.25107 14.967 10.1178 14.3688 10.7159C13.7829 11.2896 12.9284 11.3385 12.2448 10.899ZM17.7502 9.69052L23.5851 3.83115C23.7682 3.63584 24.11 3.67246 24.3175 3.83115C24.5251 4.01426 24.4884 4.34384 24.3053 4.52695L18.446 10.3863C18.2384 10.5816 17.9455 10.5694 17.7746 10.3985C17.5671 10.1788 17.5548 9.88584 17.7502 9.69052ZM19.8498 11.7535L25.6725 5.94297C25.8922 5.74765 26.1974 5.73545 26.3805 5.94297C26.5514 6.13828 26.5514 6.45566 26.3805 6.62656L20.5456 12.4859C20.3503 12.6935 20.0329 12.6568 19.8498 12.4859C19.6178 12.254 19.6178 11.9854 19.8498 11.7535ZM2.41812 23.5577L0.172031 27.6715C-0.0232817 28.0377-0.0843169 28.3429 0.159824 28.5748L1.60025 30.0274C1.8566 30.2716 2.14957 30.1983 2.50357 30.0274L6.64176 27.7691C7.0568 27.5494 7.31314 27.1222 7.32535 26.756L7.38639 25.4254L13.5754 19.2364L10.963 16.6119L4.76187 22.8009L3.45572 22.8741C3.0651 22.8741 2.63785 23.1427 2.41812 23.5577Z" fill="#5ac8f5"/>
 </g>
</svg>
