<?xml version="1.0" encoding="UTF-8"?>
<!--Generator: Apple Native CoreSVG 175.5-->
<!DOCTYPE svg
PUBLIC "-//W3C//DTD SVG 1.1//EN"
       "http://www.w3.org/Graphics/SVG/1.1/DTD/svg11.dtd">
<svg version="1.1" xmlns="http://www.w3.org/2000/svg" xmlns:xlink="http://www.w3.org/1999/xlink" width="24.9023" height="24.9146">
 <g>
  <rect height="24.9146" opacity="0" width="24.9023" x="0" y="0"/>
  <path d="M12.4512 24.9146C19.2627 24.9146 24.9023 19.2749 24.9023 12.4634C24.9023 5.66406 19.2505 0.012207 12.439 0.012207C5.63965 0.012207 0 5.66406 0 12.4634C0 19.2749 5.65186 24.9146 12.4512 24.9146ZM5.3833 12.2803C4.76074 12.5854 4.44336 11.8408 4.93164 11.5967L9.99756 8.93555C10.4248 8.71582 10.7666 8.71582 11.1938 8.93555L16.0278 11.4624L16.0278 6.86035C16.0278 6.65283 16.1255 6.46973 16.3208 6.39648C16.5039 6.32324 16.6504 6.27441 17.0166 6.27441C17.8833 6.27441 18.4326 6.70166 19.2261 6.70166C19.6289 6.70166 19.812 6.5918 19.9829 6.5918C20.1782 6.5918 20.2637 6.70166 20.2637 6.86035L20.2637 9.2041C20.2637 9.43604 20.166 9.58252 19.9585 9.66797C19.7754 9.76562 19.6289 9.80225 19.2627 9.80225C18.4204 9.80225 17.8833 9.38721 17.041 9.38721C16.9678 9.38721 16.9067 9.38721 16.8579 9.39941L16.8579 17.1143L18.5059 17.1143C18.7378 17.1143 18.9209 17.2974 18.9209 17.5293C18.9209 17.7612 18.7378 17.9443 18.5059 17.9443L5.16357 17.9443C4.94385 17.9443 4.76074 17.7612 4.76074 17.5293C4.76074 17.2974 4.94385 17.1143 5.16357 17.1143L6.11572 17.1143C6.09131 17.0288 6.0791 16.9434 6.0791 16.8335L6.0791 12.6831C6.16455 12.6465 6.23779 12.5977 6.32324 12.561L10.5835 10.3638L14.8438 12.561C14.9292 12.5977 15.0146 12.6465 15.1001 12.6831L15.1001 16.8335C15.1001 16.9434 15.0879 17.0288 15.0635 17.1143L16.0278 17.1143L16.0278 12.3413C15.9302 12.3291 15.8447 12.2925 15.7349 12.2437L10.7666 9.70459C10.6445 9.65576 10.5225 9.65576 10.4126 9.70459ZM9.0332 17.1143L12.1338 17.1143L12.1338 13.7695C12.1338 13.5254 11.9873 13.3789 11.7554 13.3789L9.42383 13.3789C9.19189 13.3789 9.0332 13.5254 9.0332 13.7695Z" fill="#5ac8f5"/>
 </g>
</svg>
