<?xml version="1.0" encoding="UTF-8"?>
<!--Generator: Apple Native CoreSVG 175.5-->
<!DOCTYPE svg
PUBLIC "-//W3C//DTD SVG 1.1//EN"
       "http://www.w3.org/Graphics/SVG/1.1/DTD/svg11.dtd">
<svg version="1.1" xmlns="http://www.w3.org/2000/svg" xmlns:xlink="http://www.w3.org/1999/xlink" width="24.9023" height="24.9146">
 <g>
  <rect height="24.9146" opacity="0" width="24.9023" x="0" y="0"/>
  <path d="M12.4512 24.9023C19.2627 24.9023 24.9023 19.2505 24.9023 12.4512C24.9023 5.63965 19.2505 0 12.439 0C5.63965 0 0 5.63965 0 12.4512C0 19.2505 5.65186 24.9023 12.4512 24.9023ZM12.4512 22.8271C6.68945 22.8271 2.0874 18.2129 2.0874 12.4512C2.0874 6.68945 6.67725 2.0752 12.439 2.0752C18.2007 2.0752 22.8271 6.68945 22.8271 12.4512C22.8271 18.2129 18.2129 22.8271 12.4512 22.8271Z" fill="#5ac8f5" fill-opacity="0.5"/>
  <path d="M9.52148 7.06787C7.44629 7.06787 5.95703 8.63037 5.95703 10.791C5.95703 14.0015 9.33838 16.9556 11.8408 18.5425C12.0605 18.6646 12.3169 18.8354 12.4756 18.8354C12.6343 18.8354 12.8784 18.6768 13.0615 18.5425C15.5396 16.9189 18.9453 14.0015 18.9453 10.791C18.9453 8.63037 17.4561 7.06787 15.3809 7.06787C14.0869 7.06787 13.0615 7.8125 12.4512 8.92334C11.8408 7.8125 10.8276 7.06787 9.52148 7.06787Z" fill="#5ac8f5"/>
 </g>
</svg>
