<?xml version="1.0" encoding="UTF-8"?>
<!--Generator: Apple Native CoreSVG 175.5-->
<!DOCTYPE svg
PUBLIC "-//W3C//DTD SVG 1.1//EN"
       "http://www.w3.org/Graphics/SVG/1.1/DTD/svg11.dtd">
<svg version="1.1" xmlns="http://www.w3.org/2000/svg" xmlns:xlink="http://www.w3.org/1999/xlink" width="20.3033" height="27.4831">
 <g>
  <rect height="27.4831" opacity="0" width="20.3033" x="0" y="0"/>
  <path d="M1.55945 15.5543C1.55945 16.0304 1.92566 16.3844 2.43835 16.3844L9.33533 16.3844L5.69763 25.8693C5.20935 27.1266 6.55212 27.8102 7.34558 26.7726L12.851 19.6925L11.4838 18.3253L7.724 23.3058L8.0658 23.4889L10.7269 17.5563L7.71179 14.5655L4.61121 14.5655L5.95398 12.7955L4.52576 11.3673L1.87683 14.7731C1.66931 15.0416 1.55945 15.2858 1.55945 15.5543ZM7.45544 7.59533L8.82263 8.96252L12.5824 3.98205L12.2406 3.79894L9.57947 9.73156L12.5702 12.7223L15.6952 12.7223L14.3524 14.4923L15.7806 15.9205L18.4418 12.5026C18.6493 12.2462 18.7592 12.0021 18.7592 11.7213C18.7592 11.2574 18.3929 10.9034 17.8802 10.9034L10.9833 10.9034L14.621 1.40637C15.1093 0.149042 13.7665-0.534552 12.973 0.515253Z" fill="#5ac8f5" fill-opacity="0.5"/>
  <path d="M18.6981 23.5133C19.0643 23.8795 19.6747 23.8795 20.0287 23.5133C20.3949 23.1593 20.3949 22.5612 20.0287 22.1827L1.60828 3.76232C1.24207 3.39611 0.619507 3.39611 0.265503 3.76232C-0.088501 4.11633-0.088501 4.73889 0.265503 5.09289Z" fill="#5ac8f5"/>
 </g>
</svg>
