<?xml version="1.0" encoding="UTF-8"?>
<!--Generator: Apple Native CoreSVG 175.5-->
<!DOCTYPE svg
PUBLIC "-//W3C//DTD SVG 1.1//EN"
       "http://www.w3.org/Graphics/SVG/1.1/DTD/svg11.dtd">
<svg version="1.1" xmlns="http://www.w3.org/2000/svg" xmlns:xlink="http://www.w3.org/1999/xlink" width="23.9506" height="22.5006">
 <g>
  <rect height="22.5006" opacity="0" width="23.9506" x="0" y="0"/>
  <path d="M2.57733 16.3345L4.76239 16.3345L4.76239 6.22712C4.76239 4.11531 6.04413 2.78474 7.80194 2.78474C9.57196 2.78474 10.8903 4.09089 10.8903 6.22712L10.8903 14.5889C10.8903 18.129 13.0998 20.3751 16.1515 20.3751C19.1911 20.3751 21.3762 18.129 21.3762 14.5889L21.3762 4.57918L19.1911 4.57918L19.1911 14.7598C19.1911 16.8594 17.9094 18.19 16.1515 18.19C14.3815 18.19 13.0632 16.8839 13.0632 14.7598L13.0632 6.39802C13.0632 2.85798 10.8537 0.61189 7.80194 0.61189C4.76239 0.61189 2.57733 2.85798 2.57733 6.39802ZM0.868346 15.4068C-0.01056 15.4068-0.230287 16.005 0.245788 16.6763L2.98016 20.5582C3.38299 21.1319 3.96893 21.1197 4.35956 20.5582L7.09393 16.6641C7.5578 16.005 7.33807 15.4068 6.47137 15.4068ZM17.4943 5.58015L23.0851 5.58015C23.9518 5.58015 24.1838 4.98201 23.7077 4.31062L20.9855 0.416578C20.5949-0.132739 20.009-0.144946 19.6061 0.416578L16.8718 4.29841C16.3835 4.98201 16.6154 5.58015 17.4943 5.58015Z" fill="#5ac8f5"/>
 </g>
</svg>
