<?xml version="1.0" encoding="UTF-8"?>
<!--Generator: Apple Native CoreSVG 175.5-->
<!DOCTYPE svg
PUBLIC "-//W3C//DTD SVG 1.1//EN"
       "http://www.w3.org/Graphics/SVG/1.1/DTD/svg11.dtd">
<svg version="1.1" xmlns="http://www.w3.org/2000/svg" xmlns:xlink="http://www.w3.org/1999/xlink" width="28.7842" height="22.4731">
 <g>
  <rect height="22.4731" opacity="0" width="28.7842" x="0" y="0"/>
  <path d="M3.83301 22.4731L24.9512 22.4731C27.5146 22.4731 28.7842 21.2158 28.7842 18.7012L28.7842 3.78418C28.7842 1.26953 27.5146 0 24.9512 0L3.83301 0C1.28174 0 0 1.26953 0 3.78418L0 18.7012C0 21.2158 1.28174 22.4731 3.83301 22.4731ZM13.0371 17.2119C12.6099 17.2119 12.2803 17.041 11.9507 16.6138L8.89893 12.854C8.70361 12.6099 8.60596 12.3413 8.60596 12.0605C8.60596 11.5112 9.021 11.0596 9.58252 11.0596C9.92432 11.0596 10.2051 11.1694 10.498 11.5723L12.9883 14.7705L18.2007 6.39648C18.4204 6.03027 18.7378 5.83496 19.0674 5.83496C19.6045 5.83496 20.105 6.20117 20.105 6.7749C20.105 7.04346 19.9463 7.32422 19.7998 7.58057L14.0503 16.6138C13.8062 17.0166 13.4521 17.2119 13.0371 17.2119Z" fill="#5ac8f5"/>
 </g>
</svg>
