<?xml version="1.0" encoding="UTF-8"?>
<!--Generator: Apple Native CoreSVG 175.5-->
<!DOCTYPE svg
PUBLIC "-//W3C//DTD SVG 1.1//EN"
       "http://www.w3.org/Graphics/SVG/1.1/DTD/svg11.dtd">
<svg version="1.1" xmlns="http://www.w3.org/2000/svg" xmlns:xlink="http://www.w3.org/1999/xlink" width="30.2002" height="20.0806">
 <g>
  <rect height="20.0806" opacity="0" width="30.2002" x="0" y="0"/>
  <path d="M4.76074 20.0684L17.5171 20.0684C20.4956 20.0684 22.2778 18.335 22.2778 15.3564L22.2778 4.69971C22.2778 1.7334 20.4956 0 17.5171 0L4.76074 0C1.9165 0 0 1.7334 0 4.69971L0 15.3564C0 18.335 1.78223 20.0684 4.76074 20.0684ZM5.10254 18.2251C3.10059 18.2251 1.96533 17.1875 1.96533 15.0757L1.96533 4.99268C1.96533 2.86865 3.10059 1.83105 5.10254 1.83105L17.1753 1.83105C19.165 1.83105 20.3125 2.86865 20.3125 4.99268L20.3125 15.0757C20.3125 17.1875 19.165 18.2251 17.1753 18.2251ZM21.9971 6.61621L21.9971 8.93555L27.8076 4.13818C27.9175 4.05273 27.9907 3.9917 28.1006 3.9917C28.2471 3.9917 28.3081 4.11377 28.3081 4.28467L28.3081 15.7837C28.3081 15.9546 28.2471 16.0645 28.1006 16.0645C27.9907 16.0645 27.9175 16.0034 27.8076 15.9302L21.9971 11.1328L21.9971 13.4399L26.8921 17.5903C27.3804 17.9932 27.9175 18.2739 28.418 18.2739C29.4922 18.2739 30.2002 17.4805 30.2002 16.3452L30.2002 3.72314C30.2002 2.58789 29.4922 1.79443 28.418 1.79443C27.9175 1.79443 27.3804 2.0752 26.8921 2.47803ZM7.06787 15.0513C7.33643 15.0513 7.53174 14.9658 7.70264 14.7827L12.7075 9.77783L14.5996 7.72705L14.3799 11.2183L14.3799 12.8662C14.3799 13.3423 14.7339 13.7329 15.21 13.7329C15.7104 13.7329 16.1133 13.3667 16.1133 12.8662L16.1133 6.0791C16.1133 5.43213 15.8081 5.11475 15.1611 5.11475L8.34961 5.11475C7.84912 5.11475 7.48291 5.51758 7.48291 6.01807C7.48291 6.49414 7.87354 6.84814 8.34961 6.84814L10.022 6.84814L13.5254 6.62842L11.4502 8.52051L6.45752 13.5376C6.26221 13.7329 6.16455 13.9404 6.16455 14.209C6.16455 14.6851 6.55518 15.0513 7.06787 15.0513Z" fill="#5ac8f5"/>
 </g>
</svg>
