<?xml version="1.0" encoding="UTF-8"?>
<!--Generator: Apple Native CoreSVG 175.5-->
<!DOCTYPE svg
PUBLIC "-//W3C//DTD SVG 1.1//EN"
       "http://www.w3.org/Graphics/SVG/1.1/DTD/svg11.dtd">
<svg version="1.1" xmlns="http://www.w3.org/2000/svg" xmlns:xlink="http://www.w3.org/1999/xlink" width="36.9751" height="20.2759">
 <g>
  <rect height="20.2759" opacity="0" width="36.9751" x="0" y="0"/>
  <path d="M1.18408 20.2759C1.92871 20.2759 2.44141 19.8608 2.44141 19.0308L2.4292 13.6841L4.04053 10.9741L8.49609 19.3115C8.82568 19.9341 9.09424 20.2148 9.7168 20.2148C10.3271 20.2148 10.8032 19.7388 10.8032 19.1284C10.8032 18.7988 10.6201 18.4326 10.4614 18.1396L5.5542 9.09424L9.86328 2.0874C10.0342 1.80664 10.1685 1.5625 10.1685 1.2085C10.1685 0.524902 9.66797 0.0854492 9.08203 0.0854492C8.5083 0.0854492 8.22754 0.415039 7.93457 0.915527L2.50244 10.0464L2.41699 10.0464L2.40479 1.26953C2.40479 0.488281 1.92871 0.0366211 1.14746 0.0366211C0.537109 0.0366211 0 0.378418 0 1.26953L0 19.0308C0 19.8486 0.500488 20.2759 1.18408 20.2759ZM14.563 20.2148C15.2222 20.2148 15.7471 19.8364 15.7471 18.9697L15.7471 12.8662L18.2373 12.8662C21.5088 12.8662 23.291 9.99756 23.291 6.57959C23.291 3.34473 21.6553 0.305176 18.335 0.305176L14.5264 0.305176C13.7939 0.305176 13.3789 0.805664 13.3789 1.55029L13.3789 18.9697C13.3789 19.7388 13.7939 20.2148 14.563 20.2148ZM15.7471 10.8276L15.7471 2.35596L17.749 2.35596C19.9951 2.35596 20.9595 4.18701 20.9595 6.57959C20.9595 8.89893 20.0439 10.8276 17.749 10.8276ZM27.4658 20.2759C28.2959 20.2759 28.6499 19.6899 28.6499 18.9575L28.6499 10.9863L34.5947 10.9863L34.5947 18.9575C34.5947 19.7388 34.9854 20.2759 35.7788 20.2759C36.5601 20.2759 36.9751 19.7388 36.9751 18.9575L36.9751 1.35498C36.9751 0.57373 36.5601 0.0366211 35.7788 0.0366211C34.9854 0.0366211 34.5947 0.57373 34.5947 1.35498L34.5947 8.88672L28.6499 8.88672L28.6499 1.35498C28.6499 0.622559 28.2959 0.0366211 27.4658 0.0366211C26.6724 0.0366211 26.2817 0.57373 26.2817 1.35498L26.2817 18.9575C26.2817 19.7388 26.6724 20.2759 27.4658 20.2759Z" fill="#5ac8f5"/>
 </g>
</svg>
