<?xml version="1.0" encoding="UTF-8"?>
<!--Generator: Apple Native CoreSVG 175.5-->
<!DOCTYPE svg
PUBLIC "-//W3C//DTD SVG 1.1//EN"
       "http://www.w3.org/Graphics/SVG/1.1/DTD/svg11.dtd">
<svg version="1.1" xmlns="http://www.w3.org/2000/svg" xmlns:xlink="http://www.w3.org/1999/xlink" width="24.9023" height="24.9146">
 <g>
  <rect height="24.9146" opacity="0" width="24.9023" x="0" y="0"/>
  <path d="M12.4512 24.9023C19.2627 24.9023 24.9023 19.2505 24.9023 12.4512C24.9023 5.63965 19.2505 0 12.439 0C5.63965 0 0 5.63965 0 12.4512C0 19.2505 5.65186 24.9023 12.4512 24.9023ZM12.4512 22.8271C6.68945 22.8271 2.0874 18.2129 2.0874 12.4512C2.0874 6.68945 6.67725 2.0752 12.439 2.0752C18.2007 2.0752 22.8271 6.68945 22.8271 12.4512C22.8271 18.2129 18.2129 22.8271 12.4512 22.8271Z" fill="#5ac8f5" fill-opacity="0.5"/>
  <path d="M9.24072 18.9087L17.0044 18.9087C17.2729 18.9087 17.5049 18.6646 17.5049 18.396C17.5049 18.1763 17.3584 17.9688 17.1631 17.9077C16.4185 17.6025 16.272 16.6504 16.9922 15.9302C17.2363 15.6982 17.5049 15.3809 17.5049 14.7827L17.5049 7.91016C17.5049 6.65283 16.8823 6.00586 15.625 6.00586L9.25293 6.00586C8.00781 6.00586 7.38525 6.64062 7.38525 7.91016L7.38525 17.0288C7.38525 18.2739 8.00781 18.9087 9.24072 18.9087ZM9.30176 17.8955C8.71582 17.8955 8.39844 17.5659 8.39844 17.0166C8.39844 16.5039 8.77686 16.1621 9.35059 16.1621L15.4907 16.1621C15.5518 16.1621 15.6006 16.1499 15.6494 16.1499C15.4175 16.748 15.4541 17.3706 15.7227 17.8955ZM9.10645 15.1489C8.91113 15.1489 8.75244 15.0024 8.75244 14.7827L8.75244 7.39746C8.75244 7.18994 8.91113 7.03125 9.10645 7.03125C9.32617 7.03125 9.49707 7.18994 9.49707 7.39746L9.49707 14.7827C9.49707 15.0024 9.32617 15.1489 9.10645 15.1489Z" fill="#5ac8f5"/>
 </g>
</svg>
