<?xml version="1.0" encoding="UTF-8"?>
<!--Generator: Apple Native CoreSVG 175.5-->
<!DOCTYPE svg
PUBLIC "-//W3C//DTD SVG 1.1//EN"
       "http://www.w3.org/Graphics/SVG/1.1/DTD/svg11.dtd">
<svg version="1.1" xmlns="http://www.w3.org/2000/svg" xmlns:xlink="http://www.w3.org/1999/xlink" width="25.6836" height="19.9341">
 <g>
  <rect height="19.9341" opacity="0" width="25.6836" x="0" y="0"/>
  <path d="M10.022 5.17578L15.6494 5.17578C16.5527 5.17578 17.1753 4.54102 17.1753 3.6377L17.1753 2.6001C17.1753 1.07422 16.0767 0.012207 14.4653 0.012207L11.2061 0.012207C9.59473 0.012207 8.49609 1.07422 8.49609 2.6001L8.49609 3.6377C8.49609 4.54102 9.11865 5.17578 10.022 5.17578ZM10.437 3.44238C10.3027 3.44238 10.2173 3.36914 10.2173 3.23486L10.2173 2.6001C10.2173 2.02637 10.5713 1.7334 11.2061 1.7334L14.4653 1.7334C15.1001 1.7334 15.4541 2.02637 15.4541 2.6001L15.4541 3.23486C15.4541 3.36914 15.3687 3.44238 15.2466 3.44238ZM10.0342 12.2803L15.6494 12.2803C16.5527 12.2803 17.1753 11.6577 17.1753 10.7422L17.1753 8.53271C17.1753 7.62939 16.5527 7.00684 15.6494 7.00684L10.0342 7.00684C9.13086 7.00684 8.49609 7.62939 8.49609 8.53271L8.49609 10.7422C8.49609 11.6577 9.13086 12.2803 10.0342 12.2803ZM10.437 10.5591C10.3027 10.5591 10.2173 10.4736 10.2173 10.3394L10.2173 8.93555C10.2173 8.81348 10.3027 8.72803 10.437 8.72803L15.2466 8.72803C15.3687 8.72803 15.4541 8.81348 15.4541 8.93555L15.4541 10.3394C15.4541 10.4736 15.3687 10.5591 15.2466 10.5591ZM10.4492 7.99561L12.1704 7.99561L12.1704 4.45557L10.4492 4.45557ZM13.5132 7.99561L15.2344 7.99561L15.2344 4.45557L13.5132 4.45557ZM10.4492 18.7622L12.1704 18.7622L12.1704 11.792L10.4492 11.792ZM13.5132 18.7622L15.2344 18.7622L15.2344 11.792L13.5132 11.792ZM0.976562 19.9341L24.6948 19.9341C25.2319 19.9341 25.6836 19.4946 25.6836 18.9453C25.6836 18.4082 25.2319 17.9688 24.6948 17.9688L0.976562 17.9688C0.439453 17.9688 0 18.4082 0 18.9453C0 19.4946 0.439453 19.9341 0.976562 19.9341Z" fill="#5ac8f5"/>
 </g>
</svg>
