<?xml version="1.0" encoding="UTF-8"?>
<!--Generator: Apple Native CoreSVG 175.5-->
<!DOCTYPE svg
PUBLIC "-//W3C//DTD SVG 1.1//EN"
       "http://www.w3.org/Graphics/SVG/1.1/DTD/svg11.dtd">
<svg version="1.1" xmlns="http://www.w3.org/2000/svg" xmlns:xlink="http://www.w3.org/1999/xlink" width="24.7681" height="26.8433">
 <g>
  <rect height="26.8433" opacity="0" width="24.7681" x="0" y="0"/>
  <path d="M13.2202 26.8433C13.3057 26.8188 13.3789 26.7822 13.4644 26.7334L23.0225 21.2891C24.1577 20.6421 24.7681 19.9829 24.7681 18.2129L24.7681 8.70361C24.7681 8.3374 24.7437 8.04443 24.6704 7.77588L13.2202 14.3188ZM11.5479 26.8433L11.5479 14.3188L0.0976562 7.77588C0.0244141 8.04443 0 8.3374 0 8.70361L0 18.2129C0 19.9829 0.622559 20.6421 1.74561 21.2891L11.3159 26.7334C11.3892 26.7822 11.4624 26.8188 11.5479 26.8433ZM12.3901 12.854L17.6025 9.8999L6.04248 3.2959L1.5625 5.84717C1.29395 5.99365 1.07422 6.14014 0.878906 6.32324ZM19.2993 8.93555L23.8892 6.32324C23.7061 6.14014 23.4863 5.99365 23.2178 5.84717L14.5996 0.939941C13.855 0.512695 13.1104 0.280762 12.3901 0.280762C11.6577 0.280762 10.9131 0.512695 10.1685 0.939941L7.69043 2.34375Z" fill="#5ac8f5"/>
 </g>
</svg>
