<?xml version="1.0" encoding="UTF-8"?>
<!--Generator: Apple Native CoreSVG 175.5-->
<!DOCTYPE svg
PUBLIC "-//W3C//DTD SVG 1.1//EN"
       "http://www.w3.org/Graphics/SVG/1.1/DTD/svg11.dtd">
<svg version="1.1" xmlns="http://www.w3.org/2000/svg" xmlns:xlink="http://www.w3.org/1999/xlink" width="24.2536" height="24.5483">
 <g>
  <rect height="24.5483" opacity="0" width="24.2536" x="0" y="0"/>
  <path d="M20.9577 6.64062C22.7888 6.64062 24.2536 5.11475 24.2536 3.34473C24.2536 1.50146 22.7888 0 20.9577 0C19.1144 0 17.6374 1.50146 17.6374 3.34473C17.6374 5.15137 19.1144 6.64062 20.9577 6.64062ZM1.29218 24.0845C1.92694 24.7559 3.01337 24.6948 3.79462 23.9014L9.04364 18.4814C9.22675 18.2983 9.33661 18.2495 9.60517 18.3594L13.7067 19.9097C16.3434 20.9229 18.8215 20.0562 19.9811 17.9565L22.6179 13.1592C23.6555 11.2793 23.3137 9.36279 21.5436 8.41064C19.8225 7.4585 18.028 8.17871 16.9904 10.0952L13.5602 16.333L10.655 15.271C9.22675 14.7461 8.01825 14.917 6.85859 16.1133L1.40204 21.7529C0.657413 22.5342 0.718448 23.5107 1.29218 24.0845Z" fill="#5ac8f5" fill-opacity="0.5"/>
  <path d="M7.72528 3.95508L4.71015 0.524902C4.29511 0.0610352 3.72138 0.0610352 3.31855 0.524902L0.291202 3.95508C-0.294735 4.60205 0.0348546 5.5542 0.99921 5.5542L3.04999 5.5542L3.04999 11.6577C3.04999 12.1948 3.46503 12.6099 3.98993 12.6099C4.53925 12.6099 4.95429 12.1948 4.95429 11.6577L4.95429 5.5542L7.02948 5.5542C7.94501 5.5542 8.33564 4.63867 7.72528 3.95508Z" fill="#5ac8f5"/>
 </g>
</svg>
