<?xml version="1.0" encoding="UTF-8"?>
<!--Generator: Apple Native CoreSVG 175.5-->
<!DOCTYPE svg
PUBLIC "-//W3C//DTD SVG 1.1//EN"
       "http://www.w3.org/Graphics/SVG/1.1/DTD/svg11.dtd">
<svg version="1.1" xmlns="http://www.w3.org/2000/svg" xmlns:xlink="http://www.w3.org/1999/xlink" width="25.1587" height="27.5269">
 <g>
  <rect height="27.5269" opacity="0" width="25.1587" x="0" y="0"/>
  <path d="M0 13.7573C0 19.3604 4.80957 22.5098 10.8154 22.5098C11.377 22.5098 11.9507 22.4854 12.5122 22.4365L12.085 20.6421C11.6943 20.6665 11.3159 20.6787 10.9375 20.6787C5.96924 20.6787 1.84326 18.3838 1.84326 13.7695C1.84326 8.44727 7.94678 4.71191 13.7939 4.71191C18.9087 4.71191 23.3154 7.88574 23.3154 12.7075C23.3154 17.1509 18.5303 20.9595 14.0015 20.9595C13.1348 20.9595 12.5 20.6177 12.5 20.0317C12.5 19.0063 13.916 18.3228 15.686 18.3228C17.7856 18.3228 19.3848 19.8608 19.3848 21.9727C19.3848 23.4375 18.5547 24.8657 17.1997 25.7324C16.8457 25.9888 16.5771 26.2451 16.5771 26.6846C16.5771 27.1362 16.9434 27.5269 17.5293 27.5269C17.7856 27.5269 17.9443 27.4536 18.1885 27.3071C20.0562 26.0864 21.228 24.0479 21.228 21.936C21.228 18.811 18.7256 16.4673 15.5518 16.4673C12.7441 16.4673 10.6445 17.9321 10.6445 20.0928C10.6445 21.7285 11.9995 22.7905 14.0015 22.7905C19.519 22.7905 25.1587 18.2129 25.1587 12.7197C25.1587 6.90918 19.9707 2.86865 13.7817 2.86865C7.00684 2.86865 0 7.31201 0 13.7573Z" fill="#5ac8f5"/>
 </g>
</svg>
