<?xml version="1.0" encoding="UTF-8"?>
<!--Generator: Apple Native CoreSVG 175.5-->
<!DOCTYPE svg
PUBLIC "-//W3C//DTD SVG 1.1//EN"
       "http://www.w3.org/Graphics/SVG/1.1/DTD/svg11.dtd">
<svg version="1.1" xmlns="http://www.w3.org/2000/svg" xmlns:xlink="http://www.w3.org/1999/xlink" width="23.7656" height="26.8677">
 <g>
  <rect height="26.8677" opacity="0" width="23.7656" x="0" y="0"/>
  <path d="M15.3412 5.82275C14.8407 5.82275 14.5844 6.21338 14.5844 6.604C14.5844 6.99463 14.8529 7.39746 15.3778 7.39746L17.2821 7.39746L18.7347 7.31201L17.3309 8.63037L15.4266 10.5225C15.2435 10.7178 15.1581 10.9253 15.1581 11.1206C15.1581 11.6089 15.6097 12.0483 16.098 12.0483C16.2933 12.0483 16.5009 11.9751 16.684 11.792L18.576 9.8877L19.8822 8.48389L19.809 9.92432L19.809 11.8774C19.809 12.4146 20.2118 12.6831 20.6146 12.6831C20.993 12.6831 21.3837 12.4268 21.3837 11.9141L21.3837 6.83594C21.3837 6.17676 21.0175 5.82275 20.3705 5.82275ZM3.40271 20.52L8.43201 20.52C8.9447 20.52 9.20105 20.1172 9.20105 19.7266C9.20105 19.3237 8.9325 18.9331 8.39539 18.9331L6.49109 18.9331L5.03845 19.0186L6.44226 17.7002L8.34656 15.8081C8.52966 15.625 8.61511 15.4175 8.61511 15.21C8.61511 14.7217 8.16345 14.2944 7.67517 14.2944C7.47986 14.2944 7.27234 14.3555 7.08923 14.5386L5.19714 16.4551L3.89099 17.8467L3.96423 16.4062L3.96423 14.4531C3.96423 13.916 3.5614 13.6475 3.17078 13.6475C2.78015 13.6475 2.38953 13.9038 2.38953 14.4165L2.38953 19.4946C2.38953 20.1538 2.75574 20.52 3.40271 20.52ZM6.86951 26.3428L16.9159 26.3428C18.4418 26.3428 19.5038 25.5859 19.9066 24.3652L19.9066 24.353L18.3441 22.7661L18.3441 22.9614C18.3441 23.9624 17.7582 24.5605 16.6718 24.5605L7.11365 24.5605C6.02722 24.5605 5.45349 23.9624 5.45349 22.9614L5.45349 22.0093L3.61023 22.0093L3.61023 23.2178C3.61023 25.0488 4.87976 26.3428 6.86951 26.3428ZM3.61023 12.2681L5.45349 12.2681L5.45349 9.87549L3.61023 8.04443ZM20.1752 14.0625L18.3441 14.0625L18.3441 15.4419L20.1752 17.2729ZM6.8573 0C5.6366 0 4.75769 0.488281 4.29382 1.36719L4.29382 1.37939L5.69763 2.7832L5.69763 2.63672C5.89294 2.06299 6.3446 1.78223 7.10144 1.78223L16.6595 1.78223C17.746 1.78223 18.3319 2.38037 18.3319 3.36914L18.3319 4.32129L20.163 4.32129L20.163 3.11279C20.163 1.28174 18.8934 0 16.9037 0Z" fill="#5ac8f5" fill-opacity="0.5"/>
  <path d="M22.1649 24.2676C22.5189 24.6216 23.1415 24.6338 23.4955 24.2676C23.8495 23.8892 23.8617 23.3032 23.4955 22.937L1.60828 1.02539C1.24207 0.65918 0.631714 0.65918 0.265503 1.02539C-0.088501 1.3916-0.088501 2.00195 0.265503 2.35596Z" fill="#5ac8f5"/>
 </g>
</svg>
