<?xml version="1.0" encoding="UTF-8"?>
<!--Generator: Apple Native CoreSVG 175.5-->
<!DOCTYPE svg
PUBLIC "-//W3C//DTD SVG 1.1//EN"
       "http://www.w3.org/Graphics/SVG/1.1/DTD/svg11.dtd">
<svg version="1.1" xmlns="http://www.w3.org/2000/svg" xmlns:xlink="http://www.w3.org/1999/xlink" width="27.2827" height="20.5444">
 <g>
  <rect height="20.5444" opacity="0" width="27.2827" x="0" y="0"/>
  <path d="M0 19.5679C0 20.105 0.45166 20.5444 0.976562 20.5444L26.2939 20.5444C26.8311 20.5444 27.2827 20.105 27.2827 19.5679C27.2827 19.0308 26.8311 18.5791 26.2939 18.5791L3.35693 18.5791L20.1782 1.75781C20.5566 1.37939 20.5566 0.744629 20.1782 0.366211C19.7998-0.012207 19.1772-0.012207 18.7866 0.366211L0.280762 18.8721C0.12207 19.043 0 19.2993 0 19.5679ZM14.2334 19.5312L16.1987 19.5312C16.1987 15.3564 14.502 11.5723 11.7676 8.82568L10.3638 10.2051C12.7563 12.5977 14.2334 15.8936 14.2334 19.5312Z" fill="#5ac8f5"/>
 </g>
</svg>
