<?xml version="1.0" encoding="UTF-8"?>
<!--Generator: Apple Native CoreSVG 175.5-->
<!DOCTYPE svg
PUBLIC "-//W3C//DTD SVG 1.1//EN"
       "http://www.w3.org/Graphics/SVG/1.1/DTD/svg11.dtd">
<svg version="1.1" xmlns="http://www.w3.org/2000/svg" xmlns:xlink="http://www.w3.org/1999/xlink" width="24.9023" height="24.9146">
 <g>
  <rect height="24.9146" opacity="0" width="24.9023" x="0" y="0"/>
  <path d="M12.4512 24.9023C19.2627 24.9023 24.9023 19.2505 24.9023 12.4512C24.9023 5.63965 19.2505 0 12.439 0C5.63965 0 0 5.63965 0 12.4512C0 19.2505 5.65186 24.9023 12.4512 24.9023ZM12.4512 22.8271C6.68945 22.8271 2.0874 18.2129 2.0874 12.4512C2.0874 6.68945 6.67725 2.0752 12.439 2.0752C18.2007 2.0752 22.8271 6.68945 22.8271 12.4512C22.8271 18.2129 18.2129 22.8271 12.4512 22.8271Z" fill="#5ac8f5" fill-opacity="0.5"/>
  <path d="M9.5459 7.43408L18.6157 16.5039C18.7256 16.394 18.7988 16.2354 18.7988 16.04C18.7988 15.3687 18.1274 14.7705 17.5293 14.1602C17.0654 13.6841 16.98 12.7197 16.9312 11.9507C16.8823 9.35059 16.1743 7.56836 14.3921 6.90918C14.1235 6.04248 13.4155 5.33447 12.4268 5.33447C11.4502 5.33447 10.7422 6.04248 10.4736 6.90918C10.1074 7.03125 9.80225 7.21436 9.5459 7.43408ZM14.6973 16.8579L8.06885 10.2295C7.9834 10.7544 7.93457 11.3159 7.93457 11.9507C7.88574 12.7197 7.77588 13.6841 7.33643 14.1602C6.75049 14.7827 6.05469 15.3687 6.05469 16.0522C6.05469 16.5283 6.43311 16.8579 7.05566 16.8579ZM12.4268 19.6777C13.5742 19.6777 14.4165 18.8599 14.502 17.8711L10.3638 17.8711C10.4492 18.8599 11.2793 19.6777 12.4268 19.6777ZM18.1885 18.9941C18.396 19.2017 18.7622 19.2017 18.9697 18.9941C19.1895 18.7622 19.1895 18.4326 18.9697 18.2129L6.67725 5.9082C6.45752 5.68848 6.10352 5.68848 5.88379 5.9082C5.66406 6.11572 5.67627 6.48193 5.88379 6.68945Z" fill="#5ac8f5"/>
 </g>
</svg>
