<?xml version="1.0" encoding="UTF-8"?>
<!--Generator: Apple Native CoreSVG 175.5-->
<!DOCTYPE svg
PUBLIC "-//W3C//DTD SVG 1.1//EN"
       "http://www.w3.org/Graphics/SVG/1.1/DTD/svg11.dtd">
<svg version="1.1" xmlns="http://www.w3.org/2000/svg" xmlns:xlink="http://www.w3.org/1999/xlink" width="25.9155" height="24.939">
 <g>
  <rect height="24.939" opacity="0" width="25.9155" x="0" y="0"/>
  <path d="M4.18701 7.12891L24.0479 7.12891C24.5605 7.12891 24.9268 6.7627 24.9268 6.25L24.9268 4.15039C24.9268 3.6499 24.5605 3.27148 24.0479 3.27148L4.18701 3.27148C3.67432 3.27148 3.2959 3.6499 3.2959 4.15039L3.2959 6.25C3.2959 6.7627 3.67432 7.12891 4.18701 7.12891ZM5.35889 12.4023L22.8638 12.4023C23.3765 12.4023 23.7549 12.0239 23.7549 11.5234L23.7549 8.78906L4.47998 8.78906L4.47998 11.5234C4.47998 12.0239 4.84619 12.4023 5.35889 12.4023Z" fill="#5ac8f5"/>
  <path d="M0 0.976562C0 1.51367 0.45166 1.96533 0.98877 1.96533L24.9268 1.96533C25.4639 1.96533 25.9155 1.51367 25.9155 0.976562C25.9155 0.439453 25.4639 0 24.9268 0L0.98877 0C0.45166 0 0 0.439453 0 0.976562ZM0.98877 4.79736C1.44043 4.79736 1.81885 4.41895 1.81885 3.96729C1.81885 3.50342 1.44043 3.13721 0.98877 3.13721C0.524902 3.13721 0.146484 3.50342 0.146484 3.96729C0.146484 4.41895 0.524902 4.79736 0.98877 4.79736ZM0.98877 7.62939C1.44043 7.62939 1.81885 7.23877 1.81885 6.78711C1.81885 6.33545 1.44043 5.95703 0.98877 5.95703C0.524902 5.95703 0.146484 6.33545 0.146484 6.78711C0.146484 7.23877 0.524902 7.62939 0.98877 7.62939ZM0.98877 10.4492C1.44043 10.4492 1.81885 10.0708 1.81885 9.61914C1.81885 9.15527 1.44043 8.78906 0.98877 8.78906C0.524902 8.78906 0.146484 9.15527 0.146484 9.61914C0.146484 10.0708 0.524902 10.4492 0.98877 10.4492ZM0.98877 13.2812C1.44043 13.2812 1.81885 12.8906 1.81885 12.439C1.81885 11.9873 1.44043 11.6089 0.98877 11.6089C0.524902 11.6089 0.146484 11.9873 0.146484 12.439C0.146484 12.8906 0.524902 13.2812 0.98877 13.2812ZM0.98877 16.1011C1.44043 16.1011 1.81885 15.7227 1.81885 15.271C1.81885 14.8071 1.44043 14.4409 0.98877 14.4409C0.524902 14.4409 0.146484 14.8071 0.146484 15.271C0.146484 15.7227 0.524902 16.1011 0.98877 16.1011ZM0.98877 18.9331C1.44043 18.9331 1.81885 18.5425 1.81885 18.0908C1.81885 17.6392 1.44043 17.2607 0.98877 17.2607C0.524902 17.2607 0.146484 17.6392 0.146484 18.0908C0.146484 18.5425 0.524902 18.9331 0.98877 18.9331ZM0.98877 24.9268C1.51367 24.9268 1.96533 24.4873 1.96533 23.9502L1.96533 21.0693C1.96533 20.5322 1.52588 20.0928 0.98877 20.0928C0.45166 20.0928 0 20.5322 0 21.0693L0 23.9502C0 24.4873 0.45166 24.9268 0.98877 24.9268Z" fill="#5ac8f5" fill-opacity="0.5"/>
 </g>
</svg>
