<?xml version="1.0" encoding="UTF-8"?>
<!--Generator: Apple Native CoreSVG 175.5-->
<!DOCTYPE svg
PUBLIC "-//W3C//DTD SVG 1.1//EN"
       "http://www.w3.org/Graphics/SVG/1.1/DTD/svg11.dtd">
<svg version="1.1" xmlns="http://www.w3.org/2000/svg" xmlns:xlink="http://www.w3.org/1999/xlink" width="16.394" height="28.2349">
 <g>
  <rect height="28.2349" opacity="0" width="16.394" x="0" y="0"/>
  <path d="M11.8286 24.7192C12.4023 24.7192 12.8784 24.2432 12.8784 23.645C12.8784 23.0713 12.4023 22.5952 11.8286 22.5952C11.2305 22.5952 10.7666 23.0713 10.7666 23.645C10.7666 24.2432 11.2305 24.7192 11.8286 24.7192ZM0 24.4507C0 26.9775 1.28174 28.2349 3.83301 28.2349L12.5732 28.2349C15.1123 28.2349 16.394 26.9775 16.394 24.4507L16.394 6.10352C16.394 5.15137 16.1865 4.52881 15.6128 3.83301L13.7207 1.52588C12.9395 0.57373 12.1338 0.0976562 11.145 0.0976562L5.24902 0.0976562C4.26025 0.0976562 3.4668 0.57373 2.67334 1.52588L0.78125 3.83301C0.20752 4.52881 0 5.15137 0 6.10352ZM1.96533 24.353L1.96533 7.12891C2.29492 7.31201 2.64893 7.37305 3.07617 7.37305L13.3179 7.37305C13.7573 7.37305 14.1113 7.31201 14.4287 7.12891L14.4287 24.353C14.4287 25.6226 13.7573 26.2695 12.5366 26.2695L3.85742 26.2695C2.63672 26.2695 1.96533 25.6226 1.96533 24.353ZM2.56348 4.5166L4.10156 2.63672C4.65088 1.98975 4.94385 1.63574 5.76172 1.63574L10.6323 1.63574C11.4624 1.63574 11.7554 1.98975 12.2925 2.63672L13.8306 4.5166C14.0869 4.82178 14.0381 5.40771 13.3789 5.40771L3.01514 5.40771C2.35596 5.40771 2.31934 4.82178 2.56348 4.5166Z" fill="#5ac8f5"/>
 </g>
</svg>
