<?xml version="1.0" encoding="UTF-8"?>
<!--Generator: Apple Native CoreSVG 175.5-->
<!DOCTYPE svg
PUBLIC "-//W3C//DTD SVG 1.1//EN"
       "http://www.w3.org/Graphics/SVG/1.1/DTD/svg11.dtd">
<svg version="1.1" xmlns="http://www.w3.org/2000/svg" xmlns:xlink="http://www.w3.org/1999/xlink" width="30.127" height="23.1567">
 <g>
  <rect height="23.1567" opacity="0" width="30.127" x="0" y="0"/>
  <path d="M9.25293 23.1323L22.7417 23.1323C23.8159 23.1323 24.4629 22.6318 24.4629 21.8018C24.4629 19.2017 21.2158 15.6128 16.0034 15.6128C10.7788 15.6128 7.53174 19.2017 7.53174 21.8018C7.53174 22.6318 8.17871 23.1323 9.25293 23.1323ZM16.0034 13.8184C18.1519 13.8184 20.0195 11.8896 20.0195 9.375C20.0195 6.89697 18.1519 5.05371 16.0034 5.05371C13.855 5.05371 11.9751 6.93359 11.9751 9.39941C11.9751 11.8896 13.855 13.8184 16.0034 13.8184ZM1.74561 18.1641L4.21143 18.1641C5.37109 18.1641 5.95703 17.5903 5.95703 16.4429L5.95703 13.916C5.95703 12.7808 5.37109 12.207 4.21143 12.207L1.74561 12.207C0.585938 12.207 0 12.7686 0 13.916L0 16.4429C0 17.5903 0.585938 18.1641 1.74561 18.1641ZM4.99268 9.35059L10.3149 9.35059C10.3271 6.20117 12.6587 3.62549 15.6128 3.40576L15.6128 1.70898C15.6128 0.57373 15.0269 0 13.855 0L4.99268 0C3.83301 0 3.24707 0.57373 3.24707 1.70898L3.24707 7.6416C3.24707 8.78906 3.83301 9.35059 4.99268 9.35059ZM24.7681 15.8447L28.3691 15.8447C29.541 15.8447 30.127 15.271 30.127 14.1357L30.127 7.01904C30.127 5.88379 29.541 5.31006 28.3691 5.31006L24.7681 5.31006C23.6084 5.31006 23.0225 5.88379 23.0225 7.01904L23.0225 14.1357C23.0225 15.271 23.6084 15.8447 24.7681 15.8447Z" fill="#5ac8f5"/>
 </g>
</svg>
