<?xml version="1.0" encoding="UTF-8"?>
<!--Generator: Apple Native CoreSVG 175.5-->
<!DOCTYPE svg
PUBLIC "-//W3C//DTD SVG 1.1//EN"
       "http://www.w3.org/Graphics/SVG/1.1/DTD/svg11.dtd">
<svg version="1.1" xmlns="http://www.w3.org/2000/svg" xmlns:xlink="http://www.w3.org/1999/xlink" width="24.9023" height="24.9146">
 <g>
  <rect height="24.9146" opacity="0" width="24.9023" x="0" y="0"/>
  <path d="M12.4512 24.9023C19.2627 24.9023 24.9023 19.2505 24.9023 12.4512C24.9023 5.63965 19.2505 0 12.439 0C5.63965 0 0 5.63965 0 12.4512C0 19.2505 5.65186 24.9023 12.4512 24.9023Z" fill="#5ac8f5" fill-opacity="0.25"/>
  <path d="M15.2344 17.7002C14.978 17.8467 14.6606 17.7734 14.5142 17.4927L11.4136 12.146C11.1816 12.2437 10.8765 12.3413 10.5347 12.5488C9.36279 13.208 8.87451 14.3433 7.55615 15.1001C7.20215 15.3198 6.7627 15.5396 6.31104 15.5396C5.88379 15.5396 5.59082 15.3442 5.3833 14.9658L3.35693 11.4746C3.13721 11.1084 3.32031 10.7544 3.6499 10.5713C3.86963 10.4492 4.32129 10.3271 4.8584 10.0098C6.05469 9.32617 6.51855 8.22754 7.83691 7.4585C8.21533 7.23877 8.64258 7.04346 8.98438 7.04346C9.375 7.04346 9.74121 7.14111 10.0098 7.58057L15.4297 16.9678C15.5762 17.2241 15.4907 17.5537 15.2344 17.7002ZM18.5303 15.5396C18.0786 15.5396 17.6514 15.3198 17.2852 15.1001C16.0156 14.3799 15.1978 12.8174 13.7573 12.2681L12.9395 10.8765L14.8438 7.59277C15.1001 7.14111 15.4785 7.04346 15.8691 7.04346C16.2109 7.04346 16.626 7.23877 17.0166 7.4585C18.335 8.22754 18.7866 9.32617 19.9951 10.0098C20.52 10.3271 20.9839 10.4492 21.2036 10.5713C21.5332 10.7666 21.7163 11.1084 21.4966 11.4746L19.4702 14.9658C19.2505 15.3442 18.9697 15.5396 18.5303 15.5396ZM9.61914 17.7002C9.35059 17.5537 9.27734 17.2241 9.42383 16.9678L11.3037 13.7329L11.9141 14.7827L10.3394 17.4927C10.1929 17.7734 9.87549 17.8589 9.61914 17.7002Z" fill="#5ac8f5"/>
 </g>
</svg>
