<?xml version="1.0" encoding="UTF-8"?>
<!--Generator: Apple Native CoreSVG 175.5-->
<!DOCTYPE svg
PUBLIC "-//W3C//DTD SVG 1.1//EN"
       "http://www.w3.org/Graphics/SVG/1.1/DTD/svg11.dtd">
<svg version="1.1" xmlns="http://www.w3.org/2000/svg" xmlns:xlink="http://www.w3.org/1999/xlink" width="24.9023" height="24.9146">
 <g>
  <rect height="24.9146" opacity="0" width="24.9023" x="0" y="0"/>
  <path d="M12.4512 24.9146C19.2627 24.9146 24.9023 19.2749 24.9023 12.4634C24.9023 5.66406 19.2505 0.012207 12.439 0.012207C5.63965 0.012207 0 5.66406 0 12.4634C0 19.2749 5.65186 24.9146 12.4512 24.9146Z" fill="#5ac8f5" fill-opacity="0.25"/>
  <path d="M6.65283 18.2129C6.05469 18.2129 5.65186 17.8223 5.65186 17.2119L5.65186 7.08008C5.65186 6.70166 5.98145 6.37207 6.35986 6.37207C6.75049 6.37207 7.05566 6.70166 7.05566 7.08008L7.05566 10.8887L15.1978 10.8887L15.1978 9.59473C15.1978 9.15527 15.6494 8.95996 16.0767 9.2041L19.2871 11.1206C19.6411 11.3281 19.6411 11.8408 19.2749 12.0483L16.0889 13.9771C15.6738 14.2212 15.1978 14.0137 15.1978 13.5742L15.1978 12.2925L7.05566 12.2925L7.05566 16.6504C7.05566 16.748 7.1167 16.8091 7.21436 16.8091L18.6523 16.8091C19.0308 16.8091 19.3481 17.1265 19.3481 17.5171C19.3481 17.8955 19.0308 18.2129 18.6523 18.2129Z" fill="#5ac8f5"/>
 </g>
</svg>
