<?xml version="1.0" encoding="UTF-8"?>
<!--Generator: Apple Native CoreSVG 175.5-->
<!DOCTYPE svg
PUBLIC "-//W3C//DTD SVG 1.1//EN"
       "http://www.w3.org/Graphics/SVG/1.1/DTD/svg11.dtd">
<svg version="1.1" xmlns="http://www.w3.org/2000/svg" xmlns:xlink="http://www.w3.org/1999/xlink" width="31.2744" height="19.2749">
 <g>
  <rect height="19.2749" opacity="0" width="31.2744" x="0" y="0"/>
  <path d="M0 1.58691C0 2.46582 0.708008 3.17383 1.58691 3.17383L29.6753 3.17383C30.5542 3.17383 31.2744 2.46582 31.2744 1.58691C31.2744 0.708008 30.5542 0 29.6753 0L1.58691 0C0.708008 0 0 0.708008 0 1.58691ZM8.58154 16.3452L22.6807 16.3452C27.2827 16.3452 29.6631 14.0991 29.6631 9.729L29.6631 4.83398L1.61133 4.83398L1.61133 9.729C1.61133 14.0991 3.97949 16.3452 8.58154 16.3452ZM5.17578 19.0674C5.68848 19.2627 6.26221 18.9819 6.44531 18.4814L7.48291 15.6128L5.63965 14.9414L4.60205 17.8101C4.41895 18.3105 4.67529 18.8965 5.17578 19.0674ZM26.0864 19.0674C26.5869 18.8965 26.8555 18.3105 26.6724 17.8101L25.6348 14.9414L23.7793 15.6128L24.8169 18.4814C25.0122 18.9819 25.5859 19.2627 26.0864 19.0674Z" fill="#5ac8f5"/>
 </g>
</svg>
