<?xml version="1.0" encoding="UTF-8"?>
<!--Generator: Apple Native CoreSVG 175.5-->
<!DOCTYPE svg
PUBLIC "-//W3C//DTD SVG 1.1//EN"
       "http://www.w3.org/Graphics/SVG/1.1/DTD/svg11.dtd">
<svg version="1.1" xmlns="http://www.w3.org/2000/svg" xmlns:xlink="http://www.w3.org/1999/xlink" width="24.6826" height="25.3052">
 <g>
  <rect height="25.3052" opacity="0" width="24.6826" x="0" y="0"/>
  <path d="M2.88696 6.56738L2.88696 15.0635C2.88696 19.519 5.29175 21.1548 12.2131 25.061C12.5305 25.2319 12.8357 25.3052 13.031 25.3052C13.2263 25.3052 13.5437 25.2319 13.8489 25.061C15.7654 23.9868 17.3157 23.0835 18.573 22.2656L17.0837 20.7642C16.1682 21.3501 15.0818 21.9971 13.7878 22.8027C13.446 23.0225 13.2385 23.0957 13.0432 23.0957L13.0432 16.7236ZM22.1375 19.0186C22.8699 17.9077 23.175 16.6748 23.175 15.0635L23.175 5.7251C23.175 4.44336 22.6257 4.04053 21.5881 3.60107C20.1477 3.00293 15.4968 1.33057 14.0564 0.830078C13.7268 0.720215 13.3728 0.646973 13.031 0.646973C12.6892 0.646973 12.3352 0.744629 12.0178 0.830078C10.8948 1.17188 8.18481 2.16064 6.09741 2.96631L13.0432 9.91211L13.0432 2.6123C13.1775 2.6123 13.324 2.64893 13.5193 2.72217C15.3625 3.45459 18.9392 4.74854 20.8313 5.39551C21.1609 5.51758 21.2341 5.68848 21.2341 6.10352L21.2341 14.6118C21.2341 15.7837 21.051 16.687 20.6116 17.4805Z" fill="#5ac8f5" fill-opacity="0.5"/>
  <path d="M23.0774 24.7314C23.4436 25.0977 24.0417 25.0977 24.408 24.7314C24.7742 24.3652 24.7742 23.7671 24.408 23.4009L1.61743 0.622559C1.25122 0.256348 0.640869 0.256348 0.274658 0.622559C-0.0915527 0.976562-0.0915527 1.58691 0.274658 1.95312Z" fill="#5ac8f5"/>
 </g>
</svg>
