<?xml version="1.0" encoding="UTF-8"?>
<!--Generator: Apple Native CoreSVG 175.5-->
<!DOCTYPE svg
PUBLIC "-//W3C//DTD SVG 1.1//EN"
       "http://www.w3.org/Graphics/SVG/1.1/DTD/svg11.dtd">
<svg version="1.1" xmlns="http://www.w3.org/2000/svg" xmlns:xlink="http://www.w3.org/1999/xlink" width="30.6152" height="23.23">
 <g>
  <rect height="23.23" opacity="0" width="30.6152" x="0" y="0"/>
  <path d="M0 22.229C0 22.7661 0.439453 23.2178 0.976562 23.2178L29.6387 23.2178C30.1758 23.2178 30.6152 22.7661 30.6152 22.229C30.6152 21.6919 30.1758 21.2524 29.6387 21.2524L0.976562 21.2524C0.439453 21.2524 0 21.6919 0 22.229ZM0 0.98877C0 1.52588 0.439453 1.96533 0.976562 1.96533L29.6387 1.96533C30.1758 1.96533 30.6152 1.52588 30.6152 0.98877C30.6152 0.45166 30.1758 0 29.6387 0L0.976562 0C0.439453 0 0 0.45166 0 0.98877Z" fill="#5ac8f5" fill-opacity="0.5"/>
  <path d="M12.1582 17.1997L15.3198 14.8926L18.4692 17.1997C19.0796 17.6514 19.7998 17.2363 19.5312 16.4307L18.2983 12.7319L21.521 10.4004C22.1802 9.93652 21.8872 9.16748 21.1426 9.16748L17.1509 9.16748L15.979 5.49316C15.7471 4.77295 14.8926 4.77295 14.6729 5.49316L13.4766 9.16748L9.47266 9.16748C8.72803 9.16748 8.43506 9.93652 9.09424 10.4004L12.3413 12.7319L11.0962 16.4307C10.8154 17.2363 11.5479 17.6514 12.1582 17.1997Z" fill="#5ac8f5"/>
 </g>
</svg>
