<?xml version="1.0" encoding="UTF-8"?>
<!--Generator: Apple Native CoreSVG 175.5-->
<!DOCTYPE svg
PUBLIC "-//W3C//DTD SVG 1.1//EN"
       "http://www.w3.org/Graphics/SVG/1.1/DTD/svg11.dtd">
<svg version="1.1" xmlns="http://www.w3.org/2000/svg" xmlns:xlink="http://www.w3.org/1999/xlink" width="24.9023" height="24.9146">
 <g>
  <rect height="24.9146" opacity="0" width="24.9023" x="0" y="0"/>
  <path d="M12.4512 24.9023C19.2627 24.9023 24.9023 19.2505 24.9023 12.4512C24.9023 5.63965 19.2505 0 12.439 0C5.63965 0 0 5.63965 0 12.4512C0 19.2505 5.65186 24.9023 12.4512 24.9023Z" fill="#5ac8f5" fill-opacity="0.25"/>
  <path d="M5.87158 17.5903C5.41992 17.5903 5.12695 17.2974 5.12695 16.8457C5.12695 16.5894 5.2124 16.3696 5.40771 16.1621L8.72803 12.2559C9.32617 11.5601 9.98535 10.8521 9.98535 10.0342C9.98535 9.10645 9.32617 8.48389 8.31299 8.48389C7.40967 8.48389 6.78711 8.93555 6.46973 9.8877C6.29883 10.2661 6.10352 10.4736 5.74951 10.4736C5.31006 10.4736 5.0415 10.1685 5.0415 9.7168C5.0415 9.57031 5.06592 9.42383 5.09033 9.26514C5.41992 7.9834 6.75049 7.01904 8.25195 7.01904C10.2295 7.01904 11.5112 8.14209 11.5112 9.8999C11.5112 11.1572 10.8154 12.0605 9.8877 13.147L7.43408 16.0034L7.43408 16.1011L11.084 16.1011C11.4746 16.1011 11.7798 16.3574 11.7798 16.8335C11.7798 17.2852 11.4746 17.5903 11.084 17.5903ZM16.6138 17.8833C15.0391 17.8833 13.7939 17.0532 13.4155 16.0034C13.3423 15.8325 13.2935 15.6372 13.2935 15.4297C13.2935 15.0146 13.5864 14.6973 14.0137 14.6973C14.3066 14.6973 14.5508 14.8804 14.7339 15.2466C15.1001 16.0034 15.8325 16.4551 16.687 16.4551C17.9077 16.4551 18.7256 15.6616 18.7256 14.3433C18.7256 13.1836 17.981 12.3047 16.8823 12.3047C16.3208 12.3047 15.9302 12.4878 15.4053 12.9395C15.0024 13.269 14.7705 13.3789 14.3799 13.3789C13.8062 13.3789 13.4521 12.9395 13.501 12.2803L13.8062 8.36182C13.855 7.69043 14.2822 7.2876 14.9536 7.2876L19.2749 7.2876C19.6411 7.2876 19.8975 7.59277 19.8975 7.99561C19.8975 8.41064 19.6289 8.70361 19.2749 8.70361L15.1123 8.70361L14.8804 11.9385L14.9292 11.9385C15.3076 11.3647 16.2109 10.9497 17.0532 10.9497C18.9941 10.9497 20.3003 12.3657 20.3003 14.3066C20.3003 16.5161 18.8232 17.8833 16.6138 17.8833Z" fill="#5ac8f5"/>
 </g>
</svg>
