<?xml version="1.0" encoding="UTF-8"?>
<!--Generator: Apple Native CoreSVG 175.5-->
<!DOCTYPE svg
PUBLIC "-//W3C//DTD SVG 1.1//EN"
       "http://www.w3.org/Graphics/SVG/1.1/DTD/svg11.dtd">
<svg version="1.1" xmlns="http://www.w3.org/2000/svg" xmlns:xlink="http://www.w3.org/1999/xlink" width="25.4639" height="22.7173">
 <g>
  <rect height="22.7173" opacity="0" width="25.4639" x="0" y="0"/>
  <path d="M0 21.7407C0 22.29 0.45166 22.7173 0.976562 22.7173L24.4751 22.7173C25.0122 22.7173 25.4639 22.29 25.4639 21.7407C25.4639 21.2036 25.0122 20.7642 24.4751 20.7642L0.976562 20.7642C0.45166 20.7642 0 21.2036 0 21.7407ZM0.976562 17.981C0.976562 18.6157 1.37939 18.9941 2.05078 18.9941L4.71191 18.9941C5.35889 18.9941 5.77393 18.6157 5.77393 17.981L5.77393 7.88574C5.77393 7.26318 5.35889 6.86035 4.71191 6.86035L2.05078 6.86035C1.37939 6.86035 0.976562 7.26318 0.976562 7.88574ZM7.20215 17.981C7.20215 18.6157 7.61719 18.9941 8.27637 18.9941L10.9375 18.9941C11.5967 18.9941 12.0117 18.6157 12.0117 17.981L12.0117 2.6001C12.0117 1.96533 11.5967 1.58691 10.9375 1.58691L8.27637 1.58691C7.61719 1.58691 7.20215 1.96533 7.20215 2.6001ZM13.4399 17.981C13.4399 18.6157 13.8428 18.9941 14.502 18.9941L17.1753 18.9941C17.8223 18.9941 18.2373 18.6157 18.2373 17.981L18.2373 5.23682C18.2373 4.58984 17.8223 4.21143 17.1753 4.21143L14.502 4.21143C13.8428 4.21143 13.4399 4.58984 13.4399 5.23682ZM19.6655 17.981C19.6655 18.6157 20.0684 18.9941 20.7397 18.9941L23.4009 18.9941C24.0601 18.9941 24.4751 18.6157 24.4751 17.981L24.4751 10.4492C24.4751 9.81445 24.0601 9.42383 23.4009 9.42383L20.7397 9.42383C20.0684 9.42383 19.6655 9.81445 19.6655 10.4492Z" fill="#5ac8f5"/>
 </g>
</svg>
