<?xml version="1.0" encoding="UTF-8"?>
<!--Generator: Apple Native CoreSVG 175.5-->
<!DOCTYPE svg
PUBLIC "-//W3C//DTD SVG 1.1//EN"
       "http://www.w3.org/Graphics/SVG/1.1/DTD/svg11.dtd">
<svg version="1.1" xmlns="http://www.w3.org/2000/svg" xmlns:xlink="http://www.w3.org/1999/xlink" width="24.9023" height="24.9146">
 <g>
  <rect height="24.9146" opacity="0" width="24.9023" x="0" y="0"/>
  <path d="M12.4512 24.9023C19.2627 24.9023 24.9023 19.2505 24.9023 12.4512C24.9023 5.63965 19.2749 0 12.4634 0C11.8164 0 11.499 0.390625 11.499 1.02539L11.499 5.74951C11.499 6.28662 11.8652 6.70166 12.3901 6.70166C12.9272 6.70166 13.2935 6.28662 13.2935 5.74951L13.2935 1.00098L12.439 2.0752C18.2251 2.0752 22.8149 6.68945 22.8149 12.4512C22.8149 18.2129 18.2129 22.8271 12.4512 22.8271C6.68945 22.8271 2.06299 18.2129 2.0752 12.4512C2.0874 9.87549 3.00293 7.54395 4.54102 5.74951C4.90723 5.27344 4.93164 4.69971 4.52881 4.27246C4.12598 3.84521 3.45459 3.88184 3.00293 4.41895C1.14746 6.5918 0 9.41162 0 12.4512C0 19.2505 5.65186 24.9023 12.4512 24.9023ZM14.4043 14.209C15.3687 13.1958 15.1733 11.8408 14.0137 11.0352L7.55615 6.51855C6.9458 6.09131 6.31104 6.73828 6.73828 7.33643L11.2427 13.7939C12.0605 14.9536 13.4155 15.1611 14.4043 14.209Z" fill="#5ac8f5"/>
 </g>
</svg>
