<?xml version="1.0" encoding="UTF-8"?>
<!--Generator: Apple Native CoreSVG 175.5-->
<!DOCTYPE svg
PUBLIC "-//W3C//DTD SVG 1.1//EN"
       "http://www.w3.org/Graphics/SVG/1.1/DTD/svg11.dtd">
<svg version="1.1" xmlns="http://www.w3.org/2000/svg" xmlns:xlink="http://www.w3.org/1999/xlink" width="23.8022" height="25.2319">
 <g>
  <rect height="25.2319" opacity="0" width="23.8022" x="0" y="0"/>
  <path d="M11.5448 25.2197C14.0228 25.2197 15.8173 23.3276 16.037 21.0693L16.8304 21.0693L14.7186 18.9575L2.40173 18.9575L2.40173 18.811C2.62146 18.457 3.34167 17.7368 3.98865 17.0288C4.85535 16.0522 5.28259 14.4775 5.38025 12.0972C5.40466 11.2427 5.4657 10.4858 5.56335 9.80225L3.85437 8.09326C3.58582 9.2041 3.46375 10.498 3.43933 11.9385C3.34167 13.3423 3.13416 15.0757 2.32849 15.918C1.26648 17.0044 0.0213623 18.103 0.0213623 19.3237C0.0213623 20.2271 0.704956 20.8008 1.87683 20.8008L7.01599 20.8008C7.11365 23.1567 8.95691 25.2197 11.5448 25.2197ZM11.5448 23.4985C10.0677 23.4985 9.01794 22.4609 8.92029 20.8008L14.1571 20.8008C14.0717 22.4609 13.0096 23.4985 11.5448 23.4985ZM6.30798 3.78418L7.71179 5.18799C8.15125 4.8584 8.63953 4.63867 9.16443 4.49219C9.4696 4.41895 9.6283 4.27246 9.6405 3.95508C9.68933 2.68555 10.4095 1.79443 11.5448 1.79443C12.6678 1.79443 13.4003 2.68555 13.4369 3.95508C13.4491 4.27246 13.62 4.41895 13.9252 4.49219C16.0492 5.07812 17.6727 6.83594 17.746 12.4146C17.807 13.9038 17.9291 14.8193 18.3563 15.6372L22.6898 20.105C22.8973 19.873 23.0072 19.5557 23.0072 19.2139C23.0072 18.2373 21.994 17.3218 21.1151 16.4307C20.1141 15.3076 19.7479 14.1113 19.6869 12.3657C19.6259 7.17773 18.3319 4.04053 15.0726 2.85645C14.6576 1.25732 13.3392 0 11.5448 0C9.73816 0 8.43201 1.25732 8.01697 2.85645C7.35779 3.07617 6.79626 3.39355 6.30798 3.78418Z" fill="#5ac8f5" fill-opacity="0.5"/>
  <path d="M0.265503 2.47803L22.2015 24.3774C22.5677 24.7559 23.1659 24.7559 23.5321 24.3774C23.8861 24.0112 23.8983 23.4253 23.5321 23.0469L1.60828 1.14746C1.24207 0.78125 0.643921 0.78125 0.265503 1.14746C-0.088501 1.50146-0.088501 2.12402 0.265503 2.47803Z" fill="#5ac8f5"/>
 </g>
</svg>
