<?xml version="1.0" encoding="UTF-8"?>
<!--Generator: Apple Native CoreSVG 175.5-->
<!DOCTYPE svg
PUBLIC "-//W3C//DTD SVG 1.1//EN"
       "http://www.w3.org/Graphics/SVG/1.1/DTD/svg11.dtd">
<svg version="1.1" xmlns="http://www.w3.org/2000/svg" xmlns:xlink="http://www.w3.org/1999/xlink" width="24.9023" height="24.9146">
 <g>
  <rect height="24.9146" opacity="0" width="24.9023" x="0" y="0"/>
  <path d="M12.4512 24.9023C19.2627 24.9023 24.9023 19.2505 24.9023 12.4512C24.9023 5.63965 19.2505 0 12.439 0C5.63965 0 0 5.63965 0 12.4512C0 19.2505 5.65186 24.9023 12.4512 24.9023ZM12.4512 22.8271C6.68945 22.8271 2.0874 18.2129 2.0874 12.4512C2.0874 6.68945 6.67725 2.0752 12.439 2.0752C18.2007 2.0752 22.8271 6.68945 22.8271 12.4512C22.8271 18.2129 18.2129 22.8271 12.4512 22.8271ZM4.57764 12.4268C4.57764 12.8296 4.89502 13.1592 5.29785 13.1592C5.70068 13.1592 6.03027 12.8296 6.03027 12.4268L6.03027 11.8164C6.03027 10.6812 6.81152 9.91211 8.00781 9.91211L11.1206 9.91211L11.1206 11.438C11.1206 11.792 11.3525 12.0117 11.7065 12.0117C11.8774 12.0117 12.0361 11.9507 12.1582 11.853L14.8193 9.64355C15.1367 9.38721 15.1367 9.00879 14.8193 8.76465L12.1582 6.54297C12.0361 6.44531 11.8774 6.39648 11.7065 6.39648C11.3525 6.39648 11.1206 6.61621 11.1206 6.97021L11.1206 8.47168L8.1543 8.47168C5.96924 8.47168 4.57764 9.7168 4.57764 11.7065ZM19.1528 13.1592C19.1528 12.7563 18.8232 12.439 18.4204 12.439C18.0176 12.439 17.688 12.7563 17.688 13.1592L17.688 13.7695C17.688 14.917 16.9067 15.6738 15.7104 15.6738L11.084 15.6738L11.084 14.1724C11.084 13.8184 10.8521 13.5986 10.498 13.5986C10.3271 13.5986 10.1685 13.6475 10.0464 13.7573L7.37305 15.9668C7.06787 16.1987 7.08008 16.6016 7.38525 16.8457L10.0464 19.0552C10.1685 19.1528 10.3271 19.2017 10.498 19.2017C10.8643 19.2017 11.084 18.9941 11.084 18.6401L11.084 17.1143L15.564 17.1143C17.7612 17.1143 19.1528 15.8569 19.1528 13.8794ZM18.4204 11.145C18.8843 11.145 19.1772 10.8398 19.1772 10.3638L19.1772 7.37305C19.1772 6.82373 18.811 6.45752 18.2739 6.45752C17.9077 6.45752 17.6514 6.55518 17.2974 6.83594L16.3574 7.55615C16.1743 7.69043 16.1133 7.83691 16.1133 8.03223C16.1133 8.31299 16.3452 8.54492 16.6504 8.54492C16.7725 8.54492 16.9067 8.5083 17.0288 8.41064L17.749 7.83691L17.6392 7.83691L17.6392 10.3638C17.6392 10.8398 17.9443 11.145 18.4204 11.145Z" fill="#5ac8f5"/>
 </g>
</svg>
