<?xml version="1.0" encoding="UTF-8"?>
<!--Generator: Apple Native CoreSVG 175.5-->
<!DOCTYPE svg
PUBLIC "-//W3C//DTD SVG 1.1//EN"
       "http://www.w3.org/Graphics/SVG/1.1/DTD/svg11.dtd">
<svg version="1.1" xmlns="http://www.w3.org/2000/svg" xmlns:xlink="http://www.w3.org/1999/xlink" width="24.9023" height="29.6406">
 <g>
  <rect height="29.6406" opacity="0" width="24.9023" x="0" y="0"/>
  <path d="M0 14.8142C0 21.6257 5.65186 27.2654 12.4512 27.2654C19.2627 27.2654 24.9023 21.6257 24.9023 14.8142C24.9023 10.7126 22.8271 7.02611 19.6899 4.7434C19.1528 4.32836 18.4814 4.46263 18.1763 4.96312C17.8711 5.47582 18.0298 6.04955 18.5303 6.42797C21.1304 8.28343 22.8149 11.3474 22.8271 14.8142C22.8394 20.5759 18.2129 25.1902 12.4512 25.1902C6.68945 25.1902 2.0874 20.5759 2.0874 14.8142C2.0874 9.87035 5.48096 5.76879 10.0952 4.71898L10.0952 6.46459C10.0952 7.33129 10.6934 7.56322 11.3647 7.08715L15.2588 4.35277C15.8081 3.97435 15.8203 3.38842 15.2588 2.98558L11.377 0.251208C10.6934-0.237073 10.0952-0.00513969 10.0952 0.873767L10.0952 2.59496C4.38232 3.718 0 8.80834 0 14.8142Z" fill="#5ac8f5" fill-opacity="0.5"/>
  <path d="M7.26318 19.9289C7.59277 19.9289 7.82471 19.7703 8.03223 19.3552L11.4624 12.324C11.6211 11.9944 11.6821 11.7746 11.6821 11.5183C11.6821 10.9202 11.2305 10.4807 10.6323 10.4807L6.10352 10.4807C5.74951 10.4807 5.49316 10.7737 5.49316 11.1643C5.49316 11.5671 5.74951 11.8479 6.10352 11.8479L9.97314 11.8479L9.97314 11.8479L6.604 18.5984C6.50635 18.7815 6.45752 18.928 6.45752 19.1355C6.45752 19.5871 6.79932 19.9289 7.26318 19.9289ZM15.7593 19.9656C17.7856 19.9656 19.1162 18.6594 19.1162 16.6941C19.1162 14.8996 17.9077 13.6179 16.1621 13.6179C15.3931 13.6179 14.5508 13.9963 14.2334 14.6189L14.2944 14.6189L14.5142 11.8601L18.1641 11.8601C18.5303 11.8601 18.8354 11.5671 18.8354 11.1521C18.8354 10.737 18.5303 10.4685 18.1641 10.4685L14.2578 10.4685C13.623 10.4685 13.269 10.8347 13.2202 11.4817L12.9517 14.9973C12.9028 15.6077 13.2202 15.9006 13.7451 15.9006C14.1479 15.9006 14.3311 15.8274 14.6729 15.5588C15.1489 15.1316 15.5151 14.9607 16.0034 14.9607C16.9556 14.9607 17.5903 15.6565 17.5903 16.7185C17.5903 17.7927 16.8335 18.574 15.8325 18.574C15.1001 18.574 14.4897 18.1589 14.1724 17.5242C13.9893 17.2068 13.7695 17.0359 13.4644 17.0359C13.0615 17.0359 12.7808 17.3288 12.7808 17.7439C12.7808 17.9148 12.8174 18.0735 12.8784 18.2322C13.208 19.1111 14.2822 19.9656 15.7593 19.9656Z" fill="#5ac8f5"/>
 </g>
</svg>
