<?xml version="1.0" encoding="UTF-8"?>
<!--Generator: Apple Native CoreSVG 175.5-->
<!DOCTYPE svg
PUBLIC "-//W3C//DTD SVG 1.1//EN"
       "http://www.w3.org/Graphics/SVG/1.1/DTD/svg11.dtd">
<svg version="1.1" xmlns="http://www.w3.org/2000/svg" xmlns:xlink="http://www.w3.org/1999/xlink" width="39.3341" height="19.2993">
 <g>
  <rect height="19.2993" opacity="0" width="39.3341" x="0" y="0"/>
  <path d="M3.76282 15.3442C4.64172 16.5649 6.1554 15.4175 5.43518 14.4043L2.04163 9.63135L5.43518 4.88281C6.1554 3.88184 4.64172 2.72217 3.76282 3.94287L0.283813 8.77686C-0.0946045 9.31396-0.0946045 9.97314 0.283813 10.498ZM12.442 19.2871L35.5011 19.2871C38.0402 19.2871 39.3341 18.0176 39.3341 15.5029L39.3341 3.77197C39.3341 1.26953 38.0402 0 35.5011 0L12.442 0C9.87854 0 8.60901 1.25732 8.60901 3.77197L8.60901 15.5029C8.60901 18.0176 9.87854 19.2871 12.442 19.2871ZM12.4664 17.3218C11.2579 17.3218 10.5743 16.6626 10.5743 15.3931L10.5743 3.88184C10.5743 2.6123 11.2579 1.96533 12.4664 1.96533L35.4645 1.96533C36.673 1.96533 37.3688 2.6123 37.3688 3.88184L37.3688 15.3931C37.3688 16.6626 36.673 17.3218 35.4645 17.3218ZM13.5773 6.79932L14.6881 6.79932C15.0299 6.79932 15.2374 6.5918 15.2374 6.26221L15.2374 5.13916C15.2374 4.79736 15.0299 4.58984 14.6881 4.58984L13.5773 4.58984C13.2355 4.58984 13.028 4.79736 13.028 5.13916L13.028 6.26221C13.028 6.5918 13.2355 6.79932 13.5773 6.79932ZM17.4957 6.79932L18.6188 6.79932C18.9606 6.79932 19.1681 6.5918 19.1681 6.26221L19.1681 5.13916C19.1681 4.79736 18.9606 4.58984 18.6188 4.58984L17.4957 4.58984C17.1539 4.58984 16.9464 4.79736 16.9464 5.13916L16.9464 6.26221C16.9464 6.5918 17.1539 6.79932 17.4957 6.79932ZM21.4264 6.79932L22.5372 6.79932C22.879 6.79932 23.0865 6.5918 23.0865 6.26221L23.0865 5.13916C23.0865 4.79736 22.879 4.58984 22.5372 4.58984L21.4264 4.58984C21.0846 4.58984 20.8771 4.79736 20.8771 5.13916L20.8771 6.26221C20.8771 6.5918 21.0846 6.79932 21.4264 6.79932ZM25.3571 6.79932L26.4679 6.79932C26.8097 6.79932 27.0172 6.5918 27.0172 6.26221L27.0172 5.13916C27.0172 4.79736 26.8097 4.58984 26.4679 4.58984L25.3571 4.58984C25.0153 4.58984 24.8077 4.79736 24.8077 5.13916L24.8077 6.26221C24.8077 6.5918 25.0153 6.79932 25.3571 6.79932ZM29.2755 6.79932L30.3986 6.79932C30.7281 6.79932 30.9479 6.5918 30.9479 6.26221L30.9479 5.13916C30.9479 4.79736 30.7281 4.58984 30.3986 4.58984L29.2755 4.58984C28.9337 4.58984 28.7262 4.79736 28.7262 5.13916L28.7262 6.26221C28.7262 6.5918 28.9337 6.79932 29.2755 6.79932ZM33.2062 6.79932L34.317 6.79932C34.6588 6.79932 34.8663 6.5918 34.8663 6.26221L34.8663 5.13916C34.8663 4.79736 34.6588 4.58984 34.317 4.58984L33.2062 4.58984C32.8644 4.58984 32.6569 4.79736 32.6569 5.13916L32.6569 6.26221C32.6569 6.5918 32.8644 6.79932 33.2062 6.79932ZM13.5773 10.73L14.6881 10.73C15.0299 10.73 15.2374 10.5225 15.2374 10.1807L15.2374 9.06982C15.2374 8.72803 15.0299 8.52051 14.6881 8.52051L13.5773 8.52051C13.2355 8.52051 13.028 8.72803 13.028 9.06982L13.028 10.1807C13.028 10.5225 13.2355 10.73 13.5773 10.73ZM17.4957 10.73L18.6188 10.73C18.9606 10.73 19.1681 10.5225 19.1681 10.1807L19.1681 9.06982C19.1681 8.72803 18.9606 8.52051 18.6188 8.52051L17.4957 8.52051C17.1539 8.52051 16.9464 8.72803 16.9464 9.06982L16.9464 10.1807C16.9464 10.5225 17.1539 10.73 17.4957 10.73ZM21.4264 10.73L22.5372 10.73C22.879 10.73 23.0865 10.5225 23.0865 10.1807L23.0865 9.06982C23.0865 8.72803 22.879 8.52051 22.5372 8.52051L21.4264 8.52051C21.0846 8.52051 20.8771 8.72803 20.8771 9.06982L20.8771 10.1807C20.8771 10.5225 21.0846 10.73 21.4264 10.73ZM25.3571 10.73L26.4679 10.73C26.8097 10.73 27.0172 10.5225 27.0172 10.1807L27.0172 9.06982C27.0172 8.72803 26.8097 8.52051 26.4679 8.52051L25.3571 8.52051C25.0153 8.52051 24.8077 8.72803 24.8077 9.06982L24.8077 10.1807C24.8077 10.5225 25.0153 10.73 25.3571 10.73ZM29.2755 10.73L30.3986 10.73C30.7281 10.73 30.9479 10.5225 30.9479 10.1807L30.9479 9.06982C30.9479 8.72803 30.7281 8.52051 30.3986 8.52051L29.2755 8.52051C28.9337 8.52051 28.7262 8.72803 28.7262 9.06982L28.7262 10.1807C28.7262 10.5225 28.9337 10.73 29.2755 10.73ZM33.2062 10.73L34.317 10.73C34.6588 10.73 34.8663 10.5225 34.8663 10.1807L34.8663 9.06982C34.8663 8.72803 34.6588 8.52051 34.317 8.52051L33.2062 8.52051C32.8644 8.52051 32.6569 8.72803 32.6569 9.06982L32.6569 10.1807C32.6569 10.5225 32.8644 10.73 33.2062 10.73ZM13.5773 14.6606L14.6881 14.6606C15.0299 14.6606 15.2374 14.4531 15.2374 14.1113L15.2374 12.9883C15.2374 12.6587 15.0299 12.4512 14.6881 12.4512L13.5773 12.4512C13.2355 12.4512 13.028 12.6587 13.028 12.9883L13.028 14.1113C13.028 14.4531 13.2355 14.6606 13.5773 14.6606ZM17.6178 14.6606L30.2765 14.6606C30.6915 14.6606 30.9479 14.4165 30.9479 13.9893L30.9479 13.1104C30.9479 12.6953 30.6915 12.4512 30.2765 12.4512L17.6178 12.4512C17.1906 12.4512 16.9464 12.6953 16.9464 13.1104L16.9464 13.9893C16.9464 14.4165 17.1906 14.6606 17.6178 14.6606ZM33.2062 14.6606L34.317 14.6606C34.6588 14.6606 34.8663 14.4531 34.8663 14.1113L34.8663 12.9883C34.8663 12.6587 34.6588 12.4512 34.317 12.4512L33.2062 12.4512C32.8644 12.4512 32.6569 12.6587 32.6569 12.9883L32.6569 14.1113C32.6569 14.4531 32.8644 14.6606 33.2062 14.6606Z" fill="#5ac8f5"/>
 </g>
</svg>
