<?xml version="1.0" encoding="UTF-8"?>
<!--Generator: Apple Native CoreSVG 175.5-->
<!DOCTYPE svg
PUBLIC "-//W3C//DTD SVG 1.1//EN"
       "http://www.w3.org/Graphics/SVG/1.1/DTD/svg11.dtd">
<svg version="1.1" xmlns="http://www.w3.org/2000/svg" xmlns:xlink="http://www.w3.org/1999/xlink" width="25.7568" height="23.5962">
 <g>
  <rect height="23.5962" opacity="0" width="25.7568" x="0" y="0"/>
  <path d="M8.3252 22.4121C8.98438 22.4121 9.41162 21.9727 9.41162 21.3379C9.41162 21.0205 9.30176 20.7886 9.11865 20.5933L5.59082 17.1631L2.57568 14.5752L2.35596 15.1367L6.14014 15.3076L21.7285 15.3076C24.5728 15.3076 25.7568 14.0015 25.7568 11.2427L25.7568 4.02832C25.7568 1.18408 24.5728 0 21.7285 0L14.8926 0C14.2212 0 13.7817 0.488281 13.7817 1.08643C13.7817 1.68457 14.2212 2.17285 14.8926 2.17285L21.7285 2.17285C23.0225 2.17285 23.5718 2.73438 23.5718 4.02832L23.5718 11.2427C23.5718 12.5732 23.0225 13.1348 21.7285 13.1348L6.14014 13.1348L2.35596 13.2935L2.57568 13.855L5.59082 11.2793L9.11865 7.84912C9.30176 7.65381 9.41162 7.40967 9.41162 7.09229C9.41162 6.46973 8.98438 6.01807 8.3252 6.01807C8.06885 6.01807 7.75146 6.15234 7.54395 6.35986L0.366211 13.4033C0.12207 13.6353 0 13.916 0 14.2212C0 14.5142 0.12207 14.8071 0.366211 15.0391L7.54395 22.0825C7.75146 22.29 8.06885 22.4121 8.3252 22.4121Z" fill="#5ac8f5"/>
 </g>
</svg>
