<?xml version="1.0" encoding="UTF-8"?>
<!--Generator: Apple Native CoreSVG 175.5-->
<!DOCTYPE svg
PUBLIC "-//W3C//DTD SVG 1.1//EN"
       "http://www.w3.org/Graphics/SVG/1.1/DTD/svg11.dtd">
<svg version="1.1" xmlns="http://www.w3.org/2000/svg" xmlns:xlink="http://www.w3.org/1999/xlink" width="35.6689" height="25.9155">
 <g>
  <rect height="25.9155" opacity="0" width="35.6689" x="0" y="0"/>
  <path d="M0.976562 25.9033C1.52588 25.9033 1.96533 25.4639 1.96533 24.9268L1.96533 2.6123C1.96533 2.22168 2.22168 1.96533 2.58789 1.96533L33.0811 1.96533C33.4473 1.96533 33.7036 2.22168 33.7036 2.6123L33.7036 24.9268C33.7036 25.4639 34.1431 25.9033 34.6924 25.9033C35.2295 25.9033 35.6689 25.4639 35.6689 24.9268L35.6689 2.49023C35.6689 1.00098 34.6558 0 33.1177 0L2.55127 0C1.02539 0 0 1.00098 0 2.49023L0 24.9268C0 25.4639 0.439453 25.9033 0.976562 25.9033ZM3.80859 8.56934L31.8726 8.56934C32.0923 8.56934 32.2754 8.38623 32.2754 8.1665L32.2754 3.79639C32.2754 3.56445 32.0923 3.38135 31.8726 3.38135L3.80859 3.38135C3.57666 3.38135 3.39355 3.56445 3.39355 3.79639L3.39355 8.1665C3.39355 8.38623 3.57666 8.56934 3.80859 8.56934ZM15.21 6.56738C14.856 6.56738 14.6118 6.32324 14.6118 5.98145C14.6118 5.62744 14.856 5.3833 15.21 5.3833L20.4712 5.3833C20.813 5.3833 21.0571 5.62744 21.0571 5.98145C21.0571 6.32324 20.813 6.56738 20.4712 6.56738Z" fill="#5ac8f5"/>
 </g>
</svg>
