<?xml version="1.0" encoding="UTF-8"?>
<!--Generator: Apple Native CoreSVG 175.5-->
<!DOCTYPE svg
PUBLIC "-//W3C//DTD SVG 1.1//EN"
       "http://www.w3.org/Graphics/SVG/1.1/DTD/svg11.dtd">
<svg version="1.1" xmlns="http://www.w3.org/2000/svg" xmlns:xlink="http://www.w3.org/1999/xlink" width="28.7842" height="22.4976">
 <g>
  <rect height="22.4976" opacity="0" width="28.7842" x="0" y="0"/>
  <path d="M10.4004 13.6108C10.4004 13.4888 10.4614 13.3789 10.5591 13.2568L15.6006 6.92139C15.979 6.43311 16.6138 6.7627 16.394 7.36084L14.7339 11.8164L17.8467 11.8164C18.0786 11.8164 18.2861 11.9995 18.2861 12.2192C18.2861 12.3413 18.2251 12.4756 18.1152 12.5854L13.0859 18.9087C12.7075 19.397 12.0605 19.0674 12.2803 18.4814L13.9526 14.0137L10.8276 14.0137C10.5957 14.0137 10.4004 13.8428 10.4004 13.6108ZM3.83301 22.4731L24.9512 22.4731C27.5146 22.4731 28.7842 21.2158 28.7842 18.7012L28.7842 6.89697C28.7842 4.38232 27.5146 3.125 24.9512 3.125L23.2666 3.125L23.2666 1.48926C23.2666 0.561523 22.7295 0 21.7896 0L18.1885 0C17.2607 0 16.7236 0.561523 16.7236 1.48926L16.7236 3.125L12.0728 3.125L12.0728 1.48926C12.0728 0.561523 11.5356 0 10.5957 0L6.99463 0C6.05469 0 5.52979 0.561523 5.52979 1.48926L5.52979 3.125L3.83301 3.125C1.28174 3.125 0 4.38232 0 6.89697L0 18.7012C0 21.2158 1.28174 22.4731 3.83301 22.4731Z" fill="#5ac8f5"/>
 </g>
</svg>
