<?xml version="1.0" encoding="UTF-8"?>
<!--Generator: Apple Native CoreSVG 175.5-->
<!DOCTYPE svg
PUBLIC "-//W3C//DTD SVG 1.1//EN"
       "http://www.w3.org/Graphics/SVG/1.1/DTD/svg11.dtd">
<svg version="1.1" xmlns="http://www.w3.org/2000/svg" xmlns:xlink="http://www.w3.org/1999/xlink" width="25.6577" height="27.8487">
 <g>
  <rect height="27.8487" opacity="0" width="25.6577" x="0" y="0"/>
  <path d="M13.0005 27.2361L19.5679 23.4397L18.0664 21.9505L12.2437 25.3196C12.1216 25.3807 12.0483 25.3318 12.0483 25.2098L12.0483 15.9446L10.0586 13.9793L10.0586 25.5149C10.0586 27.5535 11.2915 28.2249 13.0005 27.2361ZM7.8125 24.1844L11.1328 22.2557L11.1328 19.8997L7.04346 22.2557C6.93359 22.3167 6.86035 22.2801 6.86035 22.158L6.86035 11.4646C6.86035 11.3182 6.88477 11.0984 7.01904 10.9275L5.52979 9.45048C5.07812 9.85332 4.87061 10.5857 4.87061 11.3914L4.87061 22.4632C4.87061 24.5018 6.10352 25.1731 7.8125 24.1844ZM2.94189 21.3645L5.84717 19.6922L5.84717 17.324L2.18506 19.448C2.06299 19.5091 1.98975 19.4725 1.98975 19.3504L1.98975 8.71806C1.98975 8.21757 2.17285 7.92461 2.55127 7.66826C2.79541 7.50957 3.03955 7.35087 3.28369 7.20439L1.81885 5.75175C1.62354 5.87382 1.40381 6.0081 1.2085 6.14238C0.354004 6.7039 0 7.36308 0 8.58378L0 19.6434C0 21.6941 1.25732 22.3411 2.94189 21.3645ZM7.65381 4.77519L11.8286 2.3582C11.9507 2.28496 12.0361 2.34599 12.0361 2.46806L12.0361 6.64287L14.0259 5.6541L14.0259 1.79668C14.0259 0.063277 12.5-0.376176 11.2915 0.307418L6.15234 3.27373ZM11.2183 8.32744L16.6992 5.16582C16.8213 5.09257 16.9067 5.16582 16.9067 5.27568L16.9067 9.85332L18.8965 8.81572L18.8965 4.60429C18.8965 2.8831 17.3584 2.43144 16.1499 3.12724L9.7168 6.82597ZM23.5474 20.6443C23.6694 20.4734 23.7549 20.2903 23.8525 20.095C24.0356 19.7898 24.0845 19.4725 24.0845 19.033L24.0845 7.65605C24.0845 5.93486 22.5586 5.49541 21.3501 6.179L13.5498 10.659L15.0635 12.1604L21.8994 8.21757C22.0093 8.15654 22.0947 8.21757 22.0947 8.32744L22.0947 18.1663C22.0947 18.325 22.0825 18.4227 22.0215 18.5203C21.9482 18.6424 21.875 18.7644 21.8018 18.8987ZM24.0479 25.8811C24.4263 26.2474 25.0244 26.2474 25.3784 25.8811C25.7446 25.5149 25.7568 24.9168 25.3784 24.5506L1.77002 0.95439C1.40381 0.588179 0.805664 0.588179 0.427246 0.95439C0.0732422 1.30839 0.0732422 1.93095 0.427246 2.28496Z" fill="#5ac8f5"/>
 </g>
</svg>
