<?xml version="1.0" encoding="UTF-8"?>
<!--Generator: Apple Native CoreSVG 175.5-->
<!DOCTYPE svg
PUBLIC "-//W3C//DTD SVG 1.1//EN"
       "http://www.w3.org/Graphics/SVG/1.1/DTD/svg11.dtd">
<svg version="1.1" xmlns="http://www.w3.org/2000/svg" xmlns:xlink="http://www.w3.org/1999/xlink" width="24.9023" height="24.9146">
 <g>
  <rect height="24.9146" opacity="0" width="24.9023" x="0" y="0"/>
  <path d="M12.4512 24.9023C19.2627 24.9023 24.9023 19.2505 24.9023 12.4512C24.9023 5.63965 19.2505 0 12.439 0C5.63965 0 0 5.63965 0 12.4512C0 19.2505 5.65186 24.9023 12.4512 24.9023ZM12.4512 22.8271C6.68945 22.8271 2.0874 18.2129 2.0874 12.4512C2.0874 6.68945 6.67725 2.0752 12.439 2.0752C18.2007 2.0752 22.8271 6.68945 22.8271 12.4512C22.8271 18.2129 18.2129 22.8271 12.4512 22.8271ZM8.20312 10.1074C8.20312 10.5713 8.58154 10.9497 9.05762 10.9497L11.6211 10.9497L11.6211 13.5132C11.6211 13.9648 11.9995 14.3555 12.4634 14.3555C12.9272 14.3555 13.3179 13.9648 13.3179 13.5132L13.3179 10.9497L15.8569 10.9497C16.3208 10.9497 16.7114 10.5713 16.7114 10.1074C16.7114 9.64355 16.3208 9.25293 15.8569 9.25293L13.3179 9.25293L13.3179 6.68945C13.3179 6.22559 12.9272 5.84717 12.4634 5.84717C11.9995 5.84717 11.6211 6.22559 11.6211 6.68945L11.6211 9.25293L9.05762 9.25293C8.58154 9.25293 8.20312 9.64355 8.20312 10.1074ZM8.20312 17.395C8.20312 17.8223 8.58154 18.2495 9.06982 18.2495L15.8447 18.2495C16.3208 18.2495 16.7114 17.8223 16.7114 17.395C16.7114 16.9434 16.3208 16.5527 15.8447 16.5527L9.06982 16.5527C8.58154 16.5527 8.20312 16.9434 8.20312 17.395Z" fill="#5ac8f5"/>
 </g>
</svg>
