<?xml version="1.0" encoding="UTF-8"?>
<!--Generator: Apple Native CoreSVG 175.5-->
<!DOCTYPE svg
PUBLIC "-//W3C//DTD SVG 1.1//EN"
       "http://www.w3.org/Graphics/SVG/1.1/DTD/svg11.dtd">
<svg version="1.1" xmlns="http://www.w3.org/2000/svg" xmlns:xlink="http://www.w3.org/1999/xlink" width="29.1016" height="25.4517">
 <g>
  <rect height="25.4517" opacity="0" width="29.1016" x="0" y="0"/>
  <path d="M2.80762 21.1182L26.2817 21.1182C28.0396 21.1182 29.1016 20.0562 29.1016 18.2983L29.1016 3.66211C29.1016 1.9043 28.0396 0.854492 26.2817 0.854492L2.80762 0.854492C1.06201 0.854492 0 1.9043 0 3.66211L0 18.2983C0 20.0562 1.06201 21.1182 2.80762 21.1182ZM2.49023 15.7349C2.12402 15.7349 1.96533 15.6006 1.96533 15.21L1.96533 3.69873C1.96533 3.14941 2.30713 2.81982 2.84424 2.81982L26.2573 2.81982C26.7944 2.81982 27.1362 3.14941 27.1362 3.69873L27.1362 15.21C27.1362 15.6006 26.9653 15.7349 26.5991 15.7349ZM10.6934 24.0234L18.4082 24.0234L18.4082 20.9595L10.6934 20.9595ZM10.6201 25.4517L18.4814 25.4517C19.0186 25.4517 19.458 25.0122 19.458 24.4629C19.458 23.9136 19.0186 23.4741 18.4814 23.4741L10.6201 23.4741C10.083 23.4741 9.63135 23.9136 9.63135 24.4629C9.63135 25.0122 10.083 25.4517 10.6201 25.4517ZM10.1685 12.5C10.1685 13.1958 10.5103 13.5376 11.1694 13.5376L15.3076 13.5376C15.9668 13.5376 16.2964 13.1958 16.2964 12.5L16.2964 9.32617C16.2964 8.63037 15.9668 8.27637 15.3076 8.27637L11.1694 8.27637C10.5103 8.27637 10.1685 8.63037 10.1685 9.32617ZM14.3677 8.99658L15.5762 8.99658L15.5762 7.25098C15.5762 6.34766 16.0522 5.77393 16.8823 5.77393C17.7124 5.77393 18.2007 6.34766 18.2007 7.25098L18.2007 8.11768C18.2007 8.44727 18.4692 8.72803 18.811 8.72803C19.1284 8.72803 19.4092 8.44727 19.4092 8.11768L19.4092 7.25098C19.4092 5.71289 18.4204 4.58984 16.8823 4.58984C15.3564 4.58984 14.3677 5.71289 14.3677 7.36084Z" fill="#5ac8f5"/>
 </g>
</svg>
