<?xml version="1.0" encoding="UTF-8"?>
<!--Generator: Apple Native CoreSVG 175.5-->
<!DOCTYPE svg
PUBLIC "-//W3C//DTD SVG 1.1//EN"
       "http://www.w3.org/Graphics/SVG/1.1/DTD/svg11.dtd">
<svg version="1.1" xmlns="http://www.w3.org/2000/svg" xmlns:xlink="http://www.w3.org/1999/xlink" width="18.0298" height="18.0542">
 <g>
  <rect height="18.0542" opacity="0" width="18.0298" x="0" y="0"/>
  <path d="M18.0298 13.501L18.0176 1.2207C18.0176 0.524902 17.5659 0.0366211 16.8335 0.0366211L4.55322 0.0366211C3.86963 0.0366211 3.40576 0.561523 3.40576 1.14746C3.40576 1.7334 3.93066 2.23389 4.50439 2.23389L8.75244 2.23389L14.7095 2.03857L12.439 4.02832L0.341797 16.1499C0.12207 16.3696 0 16.6504 0 16.9189C0 17.5049 0.524902 18.0542 1.13525 18.0542C1.41602 18.0542 1.68457 17.9565 1.9043 17.7246L14.0259 5.61523L16.04 3.33252L15.8203 9.0332L15.8203 13.5498C15.8203 14.1235 16.3208 14.6606 16.9189 14.6606C17.5049 14.6606 18.0298 14.1602 18.0298 13.501Z" fill="#5ac8f5"/>
 </g>
</svg>
