<?xml version="1.0" encoding="UTF-8"?>
<!--Generator: Apple Native CoreSVG 175.5-->
<!DOCTYPE svg
PUBLIC "-//W3C//DTD SVG 1.1//EN"
       "http://www.w3.org/Graphics/SVG/1.1/DTD/svg11.dtd">
<svg version="1.1" xmlns="http://www.w3.org/2000/svg" xmlns:xlink="http://www.w3.org/1999/xlink" width="24.9023" height="24.9146">
 <g>
  <rect height="24.9146" opacity="0" width="24.9023" x="0" y="0"/>
  <path d="M12.4512 24.9146C19.2627 24.9146 24.9023 19.2749 24.9023 12.4634C24.9023 5.66406 19.2505 0.012207 12.439 0.012207C5.63965 0.012207 0 5.66406 0 12.4634C0 19.2749 5.65186 24.9146 12.4512 24.9146Z" fill="#5ac8f5" fill-opacity="0.25"/>
  <path d="M10.8887 17.0166C8.22754 17.7246 6.21338 16.5039 5.46875 13.7329L4.47998 9.94873C4.19922 8.91113 4.56543 8.25195 5.60303 7.9834L10.9619 6.55518C11.9751 6.29883 12.6465 6.66504 12.9272 7.67822L13.9404 11.4502C14.6973 14.2334 13.5376 16.2964 10.8887 17.0166ZM10.376 15.0757C11.5112 14.7827 12.2559 13.9038 12.2925 12.8296C12.3169 12.6099 12.146 12.5122 11.9507 12.6343C11.3525 13.0493 10.5713 13.3667 9.96094 13.5254C9.35059 13.6963 8.5083 13.8184 7.77588 13.7573C7.56836 13.7451 7.4585 13.8916 7.58057 14.0869C8.1543 14.9902 9.25293 15.3809 10.376 15.0757ZM7.65381 11.5479C8.02002 11.4258 8.21533 11.6455 8.42285 11.5845C8.5083 11.5479 8.54492 11.4136 8.5083 11.2549C8.34961 10.8154 7.89795 10.5347 7.42188 10.6567C6.95801 10.7666 6.65283 11.2549 6.81152 11.731C6.86035 11.8652 6.9458 11.9751 7.01904 11.9507C7.21436 11.9263 7.25098 11.6577 7.65381 11.5479ZM10.9497 10.6567C11.3159 10.5347 11.5112 10.7544 11.7188 10.7056C11.7798 10.6567 11.853 10.5347 11.792 10.3882C11.6821 9.8999 11.1938 9.65576 10.7178 9.75342C10.2539 9.86328 9.96094 10.3882 10.083 10.8276C10.144 10.9619 10.2417 11.0718 10.3149 11.0474C10.498 11.0229 10.5591 10.7544 10.9497 10.6567ZM19.6167 9.39941C20.6421 9.65576 21.0205 10.3271 20.7397 11.3403L19.7388 15.1123C18.9941 17.8833 16.98 19.104 14.3188 18.4082C13.562 18.2007 12.9028 17.8711 12.4146 17.4438C13.3423 16.9678 14.0503 16.2842 14.4897 15.4541C14.6729 15.4785 14.8682 15.5151 15.0513 15.5762C15.625 15.7349 16.1011 15.979 16.626 16.4551C16.7725 16.626 16.98 16.5283 16.98 16.2964C16.9434 15.4419 16.2964 14.7095 15.3442 14.4775C15.2222 14.4409 15.0635 14.4287 14.9414 14.4043C15.1978 13.4521 15.1855 12.3657 14.856 11.2061L13.9648 7.88574C14.0503 7.89795 14.1602 7.91016 14.2578 7.95898ZM17.334 13.4888C17.7002 13.5986 18.0786 13.3667 18.1885 13.0005C18.2861 12.6343 18.0786 12.2559 17.7002 12.1582C17.3218 12.0605 16.9434 12.2681 16.8579 12.6343C16.748 13.0127 16.9678 13.4155 17.334 13.4888Z" fill="#5ac8f5"/>
 </g>
</svg>
