<?xml version="1.0" encoding="UTF-8"?>
<!--Generator: Apple Native CoreSVG 175.5-->
<!DOCTYPE svg
PUBLIC "-//W3C//DTD SVG 1.1//EN"
       "http://www.w3.org/Graphics/SVG/1.1/DTD/svg11.dtd">
<svg version="1.1" xmlns="http://www.w3.org/2000/svg" xmlns:xlink="http://www.w3.org/1999/xlink" width="24.9023" height="24.9146">
 <g>
  <rect height="24.9146" opacity="0" width="24.9023" x="0" y="0"/>
  <path d="M12.4512 24.9023C19.2627 24.9023 24.9023 19.2505 24.9023 12.4512C24.9023 5.63965 19.2505 0 12.439 0C5.63965 0 0 5.63965 0 12.4512C0 19.2505 5.65186 24.9023 12.4512 24.9023ZM5.61523 9.94873C5.05371 9.94873 4.65088 9.59473 4.65088 9.05762C4.65088 8.52051 5.05371 8.1665 5.61523 8.1665L19.3359 8.1665C19.8853 8.1665 20.3003 8.52051 20.3003 9.05762C20.3003 9.59473 19.8853 9.94873 19.3359 9.94873ZM7.48291 14.1235C6.90918 14.1235 6.51855 13.7695 6.51855 13.2202C6.51855 12.6831 6.90918 12.3291 7.48291 12.3291L17.4683 12.3291C18.0298 12.3291 18.4204 12.6831 18.4204 13.2202C18.4204 13.7695 18.0298 14.1235 17.4683 14.1235ZM9.42383 18.2983C8.8623 18.2983 8.47168 17.9321 8.47168 17.395C8.47168 16.8701 8.8623 16.5161 9.42383 16.5161L15.5151 16.5161C16.0767 16.5161 16.4795 16.8701 16.4795 17.395C16.4795 17.9321 16.0767 18.2983 15.5151 18.2983Z" fill="#5ac8f5"/>
 </g>
</svg>
