<?xml version="1.0" encoding="UTF-8"?>
<!--Generator: Apple Native CoreSVG 175.5-->
<!DOCTYPE svg
PUBLIC "-//W3C//DTD SVG 1.1//EN"
       "http://www.w3.org/Graphics/SVG/1.1/DTD/svg11.dtd">
<svg version="1.1" xmlns="http://www.w3.org/2000/svg" xmlns:xlink="http://www.w3.org/1999/xlink" width="26.9531" height="21.0109">
 <g>
  <rect height="21.0109" opacity="0" width="26.9531" x="0" y="0"/>
  <path d="M0 11.8787C0 17.2987 3.6377 20.9364 9.63135 20.9364L12.4268 20.9364C15.3809 20.9364 17.1143 19.5326 17.1387 17.1522C18.0908 16.8592 18.6523 16.078 18.6523 15.016C18.6523 14.6253 18.5791 14.2469 18.4692 13.8929C19.4946 13.5633 20.1294 12.7088 20.1294 11.598C20.1294 11.305 20.0928 10.9998 19.9951 10.6947L24.2554 10.6947C25.8911 10.6947 26.9531 9.62044 26.9531 8.09457C26.9531 6.56869 25.8911 5.49447 24.2554 5.49447L13.5742 5.49447C13.5132 5.49447 13.4644 5.47005 13.4644 5.39681C13.4644 5.34798 13.4888 5.29916 13.5498 5.28695L15.6006 4.43246C16.6016 4.00521 17.1265 3.26058 17.1265 2.34505C17.1265 1.09994 16.333 0.00130348 14.9292 0.00130348C14.5386-0.0109035 14.0259 0.0623386 13.5864 0.233237L7.23877 2.49154C2.4292 4.20052 0 7.34994 0 11.8787ZM1.75781 11.952C1.75781 8.36312 3.41797 5.61654 7.78809 4.05404L14.1235 1.78353C14.3066 1.71029 14.4775 1.68587 14.6973 1.68587C15.1489 1.68587 15.5273 2.01546 15.5273 2.52816C15.5273 2.96761 15.271 3.21175 14.8315 3.40707L10.9253 5.14046C10.2905 5.43343 10.083 5.83626 10.083 6.28792C10.083 6.82503 10.5103 7.20345 11.084 7.20345L24.3774 7.20345C24.9268 7.20345 25.3052 7.56966 25.3052 8.09457C25.3052 8.63167 24.9268 8.98568 24.3774 8.98568L14.8926 8.98568C14.4531 8.98568 14.0991 9.3641 14.0991 9.81576C14.0991 10.243 14.4531 10.6214 14.8926 10.6214L18.3105 10.6214C18.4082 10.8289 18.4814 11.1341 18.4814 11.3783C18.4814 12.013 18.0542 12.4159 17.3828 12.4159L14.4165 12.4159C13.9404 12.4159 13.6108 12.7943 13.6108 13.2215C13.6108 13.6488 13.9404 14.0272 14.4165 14.0272L16.8335 14.0272C16.9312 14.2469 16.9922 14.5521 16.9922 14.7962C16.9922 15.4432 16.5771 15.8216 15.918 15.8216L13.916 15.8216C13.4521 15.8216 13.1226 16.2244 13.1226 16.6517C13.1226 17.0789 13.4521 17.4452 13.916 17.4452L15.3809 17.4452C15.3809 18.5926 14.209 19.2396 12.1704 19.2396L9.83887 19.2396C4.67529 19.2396 1.75781 16.4808 1.75781 11.952Z" fill="#5ac8f5"/>
 </g>
</svg>
