<?xml version="1.0" encoding="UTF-8"?>
<!--Generator: Apple Native CoreSVG 175.5-->
<!DOCTYPE svg
PUBLIC "-//W3C//DTD SVG 1.1//EN"
       "http://www.w3.org/Graphics/SVG/1.1/DTD/svg11.dtd">
<svg version="1.1" xmlns="http://www.w3.org/2000/svg" xmlns:xlink="http://www.w3.org/1999/xlink" width="22.4731" height="22.4976">
 <g>
  <rect height="22.4976" opacity="0" width="22.4731" x="0" y="0"/>
  <path d="M1.0376 12.2437L10.2539 12.2437L10.2539 21.46L12.2192 21.46L12.2192 12.2437L21.4355 12.2437L21.4355 10.2783L12.2192 10.2783L12.2192 1.06201L10.2539 1.06201L10.2539 10.2783L1.0376 10.2783ZM0 21.521C0 22.1069 0.390625 22.4976 0.976562 22.4976L21.5088 22.4976C22.0947 22.4976 22.4731 22.1069 22.4731 21.521L22.4731 0.98877C22.4731 0.402832 22.0947 0.0244141 21.5088 0.0244141L0.976562 0.0244141C0.390625 0.0244141 0 0.402832 0 0.98877ZM1.96533 20.1782L1.96533 2.34375C1.96533 2.0752 2.06299 1.98975 2.31934 1.98975L20.1538 1.98975C20.4224 1.98975 20.5078 2.0752 20.5078 2.34375L20.5078 20.1782C20.5078 20.4346 20.4224 20.5322 20.1538 20.5322L2.31934 20.5322C2.06299 20.5322 1.96533 20.4346 1.96533 20.1782Z" fill="#5ac8f5"/>
 </g>
</svg>
