<?xml version="1.0" encoding="UTF-8"?>
<!--Generator: Apple Native CoreSVG 175.5-->
<!DOCTYPE svg
PUBLIC "-//W3C//DTD SVG 1.1//EN"
       "http://www.w3.org/Graphics/SVG/1.1/DTD/svg11.dtd">
<svg version="1.1" xmlns="http://www.w3.org/2000/svg" xmlns:xlink="http://www.w3.org/1999/xlink" width="24.9023" height="24.9146">
 <g>
  <rect height="24.9146" opacity="0" width="24.9023" x="0" y="0"/>
  <path d="M12.4512 24.9023C19.2627 24.9023 24.9023 19.2505 24.9023 12.4512C24.9023 5.63965 19.2505 0 12.439 0C5.63965 0 0 5.63965 0 12.4512C0 19.2505 5.65186 24.9023 12.4512 24.9023ZM12.4512 22.8271C6.68945 22.8271 2.0874 18.2129 2.0874 12.4512C2.0874 6.68945 6.67725 2.0752 12.439 2.0752C18.2007 2.0752 22.8271 6.68945 22.8271 12.4512C22.8271 18.2129 18.2129 22.8271 12.4512 22.8271Z" fill="#5ac8f5" fill-opacity="0.5"/>
  <path d="M12.439 14.6484C13.0127 14.6484 13.3545 14.3188 13.3667 13.6841L13.5498 7.23877C13.562 6.61621 13.0737 6.15234 12.4268 6.15234C11.7676 6.15234 11.3037 6.604 11.3159 7.22656L11.4746 13.6841C11.4868 14.3066 11.8286 14.6484 12.439 14.6484ZM12.439 18.6157C13.1348 18.6157 13.7451 18.0542 13.7451 17.3462C13.7451 16.6382 13.147 16.0767 12.439 16.0767C11.7188 16.0767 11.1206 16.6504 11.1206 17.3462C11.1206 18.042 11.731 18.6157 12.439 18.6157Z" fill="#5ac8f5"/>
 </g>
</svg>
