<?xml version="1.0" encoding="UTF-8"?>
<!--Generator: Apple Native CoreSVG 175.5-->
<!DOCTYPE svg
PUBLIC "-//W3C//DTD SVG 1.1//EN"
       "http://www.w3.org/Graphics/SVG/1.1/DTD/svg11.dtd">
<svg version="1.1" xmlns="http://www.w3.org/2000/svg" xmlns:xlink="http://www.w3.org/1999/xlink" width="24.9023" height="24.9146">
 <g>
  <rect height="24.9146" opacity="0" width="24.9023" x="0" y="0"/>
  <path d="M12.4512 18.9819C16.0522 18.9819 18.9819 16.0522 18.9819 12.4512C18.9819 8.8501 16.0522 5.92041 12.4512 5.92041C8.8501 5.92041 5.92041 8.8501 5.92041 12.4512C5.92041 16.0522 8.8501 18.9819 12.4512 18.9819ZM12.4512 16.9189C9.98535 16.9189 7.9834 14.917 7.9834 12.4512C7.9834 9.98535 9.98535 7.9834 12.4512 7.9834C14.917 7.9834 16.9189 9.98535 16.9189 12.4512C16.9189 14.917 14.917 16.9189 12.4512 16.9189ZM2.72217 19.6411L5.34668 22.2656L10.1929 17.4194L7.56836 14.7949ZM2.6001 5.24902L7.56836 10.2173L10.1929 7.59277L5.22461 2.62451ZM22.3267 5.27344L19.7021 2.64893L14.7583 7.59277L17.3828 10.2173ZM22.2168 19.6167L17.395 14.7949L14.7583 17.4316L19.5801 22.2534ZM12.4512 24.9023C19.2627 24.9023 24.9023 19.2505 24.9023 12.4512C24.9023 5.63965 19.2505 0 12.439 0C5.63965 0 0 5.63965 0 12.4512C0 19.2505 5.65186 24.9023 12.4512 24.9023ZM12.4512 22.8271C6.68945 22.8271 2.0874 18.2129 2.0874 12.4512C2.0874 6.68945 6.67725 2.0752 12.439 2.0752C18.2007 2.0752 22.8271 6.68945 22.8271 12.4512C22.8271 18.2129 18.2129 22.8271 12.4512 22.8271Z" fill="#5ac8f5"/>
 </g>
</svg>
