<?xml version="1.0" encoding="UTF-8"?>
<!--Generator: Apple Native CoreSVG 175.5-->
<!DOCTYPE svg
PUBLIC "-//W3C//DTD SVG 1.1//EN"
       "http://www.w3.org/Graphics/SVG/1.1/DTD/svg11.dtd">
<svg version="1.1" xmlns="http://www.w3.org/2000/svg" xmlns:xlink="http://www.w3.org/1999/xlink" width="24.9023" height="24.9146">
 <g>
  <rect height="24.9146" opacity="0" width="24.9023" x="0" y="0"/>
  <path d="M12.4512 24.9146C19.2627 24.9146 24.9023 19.2749 24.9023 12.4634C24.9023 5.66406 19.2505 0.012207 12.439 0.012207C5.63965 0.012207 0 5.66406 0 12.4634C0 19.2749 5.65186 24.9146 12.4512 24.9146Z" fill="#5ac8f5" fill-opacity="0.25"/>
  <path d="M7.34863 18.1763C6.06689 18.1763 5.41992 17.5415 5.41992 16.2964L5.41992 11.0352L19.5068 11.0352L19.5068 16.2964C19.5068 17.5415 18.8721 18.1763 17.7734 18.1763ZM5.41992 10.0098L5.41992 8.37402C5.41992 7.15332 6.03027 6.54297 7.09229 6.54297L8.94775 6.54297C9.52148 6.54297 9.82666 6.65283 10.2417 6.98242L10.6323 7.2876C10.9375 7.53174 11.1572 7.65381 11.5967 7.65381L17.5781 7.65381C18.8599 7.65381 19.5068 8.28857 19.5068 9.5459L19.5068 10.0098Z" fill="#5ac8f5"/>
 </g>
</svg>
