<?xml version="1.0" encoding="UTF-8"?>
<!--Generator: Apple Native CoreSVG 175.5-->
<!DOCTYPE svg
PUBLIC "-//W3C//DTD SVG 1.1//EN"
       "http://www.w3.org/Graphics/SVG/1.1/DTD/svg11.dtd">
<svg version="1.1" xmlns="http://www.w3.org/2000/svg" xmlns:xlink="http://www.w3.org/1999/xlink" width="22.4731" height="22.4976">
 <g>
  <rect height="22.4976" opacity="0" width="22.4731" x="0" y="0"/>
  <path d="M3.83301 22.4976L18.6401 22.4976C21.2036 22.4976 22.4731 21.228 22.4731 18.7134L22.4731 3.80859C22.4731 1.29395 21.2036 0.0244141 18.6401 0.0244141L3.83301 0.0244141C1.28174 0.0244141 0 1.28174 0 3.80859L0 18.7134C0 21.2402 1.28174 22.4976 3.83301 22.4976Z" fill="#5ac8f5" fill-opacity="0.25"/>
  <path d="M12.8784 16.98C12.3047 16.98 11.9629 16.5771 11.9629 15.918L11.9629 14.6362L7.44629 14.6362C6.64062 14.6362 6.14014 14.1479 6.14014 13.4033C6.14014 13.0249 6.22559 12.7197 6.48193 12.2925C7.51953 10.5957 9.06982 8.30078 10.376 6.32324C10.8765 5.56641 11.4258 5.24902 12.3047 5.24902C13.2202 5.24902 13.8306 5.78613 13.8306 6.57959L13.8306 12.9761L14.7827 12.9761C15.2954 12.9761 15.625 13.3179 15.625 13.8184C15.625 14.3066 15.2832 14.6362 14.7827 14.6362L13.8306 14.6362L13.8306 15.918C13.8306 16.5894 13.4888 16.98 12.8784 16.98ZM11.9629 12.9761L11.9629 6.88477L11.8774 6.88477C10.5591 8.87451 8.95996 11.2549 7.99561 12.9028L7.99561 12.9761Z" fill="#5ac8f5"/>
 </g>
</svg>
