<?xml version="1.0" encoding="UTF-8"?>
<!--Generator: Apple Native CoreSVG 175.5-->
<!DOCTYPE svg
PUBLIC "-//W3C//DTD SVG 1.1//EN"
       "http://www.w3.org/Graphics/SVG/1.1/DTD/svg11.dtd">
<svg version="1.1" xmlns="http://www.w3.org/2000/svg" xmlns:xlink="http://www.w3.org/1999/xlink" width="24.9023" height="25.2075">
 <g>
  <rect height="25.2075" opacity="0" width="24.9023" x="0" y="0"/>
  <path d="M12.4512 24.9023C19.2627 24.9023 24.9023 19.2627 24.9023 12.4512C24.9023 5.65186 19.2505 0 12.439 0C5.63965 0 0 5.65186 0 12.4512C0 19.2627 5.65186 24.9023 12.4512 24.9023Z" fill="#5ac8f5" fill-opacity="0.25"/>
  <path d="M18.6768 13.8306C18.6768 16.7358 16.6992 18.6401 13.7451 18.6401L12.1094 18.6401C11.5234 18.6401 11.1328 18.2861 11.1328 17.7368C11.1328 17.1997 11.5112 16.8213 12.085 16.8213L13.7451 16.8213C15.6006 16.8213 16.8579 15.625 16.8579 13.8306C16.8579 12.1582 15.625 11.0474 13.7573 11.0474L10.1929 11.0474L8.94775 10.9863L9.52148 11.4014L10.9985 12.8174C11.1816 13.0005 11.2793 13.2324 11.2793 13.4888C11.2793 14.0137 10.8887 14.4287 10.3882 14.4287C10.1074 14.4287 9.8877 14.3311 9.7168 14.1602L6.51855 10.8887C6.28662 10.6689 6.18896 10.4004 6.18896 10.1196C6.18896 9.85107 6.29883 9.57031 6.51855 9.35059L9.70459 6.11572C9.8877 5.93262 10.0952 5.83496 10.376 5.83496C10.9009 5.83496 11.2793 6.25 11.2793 6.7749C11.2793 7.03125 11.1816 7.26318 10.9985 7.43408L9.76562 8.63037L8.93555 9.27734L10.1929 9.22852L13.7573 9.22852C16.7114 9.22852 18.6768 11.0596 18.6768 13.8306Z" fill="#5ac8f5"/>
 </g>
</svg>
