<?xml version="1.0" encoding="UTF-8"?>
<!--Generator: Apple Native CoreSVG 175.5-->
<!DOCTYPE svg
PUBLIC "-//W3C//DTD SVG 1.1//EN"
       "http://www.w3.org/Graphics/SVG/1.1/DTD/svg11.dtd">
<svg version="1.1" xmlns="http://www.w3.org/2000/svg" xmlns:xlink="http://www.w3.org/1999/xlink" width="18.6035" height="25.9155">
 <g>
  <rect height="25.9155" opacity="0" width="18.6035" x="0" y="0"/>
  <path d="M18.6035 24.9268L18.6035 2.49023C18.6035 1.00098 17.5903 0 16.0522 0L2.55127 0C1.02539 0 0 1.00098 0 2.49023L0 24.9268C0 25.4639 0.439453 25.9033 0.976562 25.9033C1.52588 25.9033 1.96533 25.4639 1.96533 24.9268L1.96533 2.6123C1.96533 2.22168 2.22168 1.96533 2.58789 1.96533L16.0156 1.96533C16.3818 1.96533 16.6382 2.22168 16.6382 2.6123L16.6382 24.9268C16.6382 25.4639 17.0776 25.9033 17.627 25.9033C18.1641 25.9033 18.6035 25.4639 18.6035 24.9268Z" fill="#5ac8f5" fill-opacity="0.5"/>
  <path d="M15.21 25.2075L15.21 3.6499C15.21 3.40576 15.0146 3.28369 14.7827 3.38135L10.9375 5.09033C10.6445 5.2124 10.5225 5.32227 10.5225 5.62744L10.5225 23.2178C10.5225 23.5352 10.6445 23.6328 10.9497 23.7671L14.7827 25.4639C15.0146 25.5615 15.21 25.4395 15.21 25.2075Z" fill="#5ac8f5"/>
 </g>
</svg>
