<?xml version="1.0" encoding="UTF-8"?>
<!--Generator: Apple Native CoreSVG 175.5-->
<!DOCTYPE svg
PUBLIC "-//W3C//DTD SVG 1.1//EN"
       "http://www.w3.org/Graphics/SVG/1.1/DTD/svg11.dtd">
<svg version="1.1" xmlns="http://www.w3.org/2000/svg" xmlns:xlink="http://www.w3.org/1999/xlink" width="24.9023" height="24.9146">
 <g>
  <rect height="24.9146" opacity="0" width="24.9023" x="0" y="0"/>
  <path d="M12.4512 24.9023C19.2627 24.9023 24.9023 19.2505 24.9023 12.4512C24.9023 5.63965 19.2505 0 12.439 0C5.63965 0 0 5.63965 0 12.4512C0 19.2505 5.65186 24.9023 12.4512 24.9023ZM8.49609 6.18896L10.1562 6.18896C10.7056 6.18896 11.0718 6.55518 11.0718 7.1167C11.0718 7.6416 10.7056 8.02002 10.1562 8.02002L8.75244 8.02002C8.17871 8.02002 7.92236 8.28857 7.92236 8.8623L7.92236 10.2295C7.92236 10.791 7.56836 11.1572 7.00684 11.1572C6.45752 11.1572 6.09131 10.7788 6.09131 10.2295L6.09131 8.55713C6.09131 7.00684 6.90918 6.18896 8.49609 6.18896ZM16.2231 6.18896C17.8101 6.18896 18.6279 7.00684 18.6279 8.55713L18.6279 10.2295C18.6279 10.7788 18.2617 11.1572 17.7124 11.1572C17.1509 11.1572 16.7969 10.791 16.7969 10.2295L16.7969 8.8623C16.7969 8.28857 16.5405 8.02002 15.9668 8.02002L14.563 8.02002C14.0137 8.02002 13.6475 7.6416 13.6475 7.1167C13.6475 6.55518 14.0137 6.18896 14.563 6.18896ZM8.49609 18.7256C6.90918 18.7256 6.09131 17.9199 6.09131 16.3696L6.09131 14.6973C6.09131 14.1357 6.45752 13.7695 7.00684 13.7695C7.56836 13.7695 7.92236 14.1235 7.92236 14.6973L7.92236 16.0522C7.92236 16.6382 8.17871 16.8945 8.75244 16.8945L10.1562 16.8945C10.7056 16.8945 11.0718 17.2852 11.0718 17.8101C11.0718 18.3594 10.7056 18.7256 10.1562 18.7256ZM16.2231 18.7256L14.563 18.7256C14.0137 18.7256 13.6475 18.3594 13.6475 17.8101C13.6475 17.2852 14.0137 16.8945 14.563 16.8945L15.9668 16.8945C16.5405 16.8945 16.7969 16.6382 16.7969 16.0522L16.7969 14.6973C16.7969 14.1235 17.1509 13.7695 17.7124 13.7695C18.2617 13.7695 18.6279 14.1357 18.6279 14.6973L18.6279 16.3696C18.6279 17.9199 17.8101 18.7256 16.2231 18.7256Z" fill="#5ac8f5"/>
 </g>
</svg>
