<?xml version="1.0" encoding="UTF-8"?>
<!--Generator: Apple Native CoreSVG 175.5-->
<!DOCTYPE svg
PUBLIC "-//W3C//DTD SVG 1.1//EN"
       "http://www.w3.org/Graphics/SVG/1.1/DTD/svg11.dtd">
<svg version="1.1" xmlns="http://www.w3.org/2000/svg" xmlns:xlink="http://www.w3.org/1999/xlink" width="31.2866" height="25.5005">
 <g>
  <rect height="25.5005" opacity="0" width="31.2866" x="0" y="0"/>
  <path d="M22.2534 19.5923C22.2534 15.9912 19.2627 12.9761 15.6494 12.9761C12.0239 12.9761 9.0332 15.9912 9.0332 19.5923C9.0332 20.4834 9.21631 21.3379 9.55811 22.0947L21.7285 22.0947C22.0703 21.3379 22.2534 20.4834 22.2534 19.5923ZM2.64893 20.2881L5.65186 20.2881C6.28662 20.2881 6.7627 19.8486 6.75049 19.2993C6.73828 18.75 6.27441 18.3105 5.65186 18.3105L2.64893 18.3105C2.01416 18.3105 1.5625 18.75 1.5625 19.2993C1.5625 19.8486 2.01416 20.2881 2.64893 20.2881ZM7.87354 13.2446C8.31299 13.6963 8.97217 13.7085 9.35059 13.3179C9.729 12.9272 9.729 12.2803 9.27734 11.8408L7.15332 9.7168C6.70166 9.26514 6.0791 9.27734 5.68848 9.65576C5.29785 10.0342 5.28564 10.6689 5.74951 11.1206ZM21.936 13.3179C22.3267 13.6963 22.9736 13.6963 23.4131 13.2446L25.5371 11.1206C26.001 10.6689 25.9766 10.0464 25.5981 9.65576C25.2197 9.26514 24.585 9.26514 24.1333 9.7168L22.0093 11.8408C21.5576 12.2803 21.5454 12.9395 21.936 13.3179ZM25.6348 20.2881L28.6377 20.2881C29.2725 20.2881 29.7241 19.8486 29.7241 19.2993C29.7241 18.75 29.2725 18.3105 28.6377 18.3105L25.6348 18.3105C25.0122 18.3105 24.5239 18.75 24.5361 19.2993C24.5483 19.8486 25.0122 20.2881 25.6348 20.2881ZM1.06201 25.4761L30.2246 25.4761C30.7983 25.4761 31.2866 25.0366 31.2866 24.4995C31.2866 23.9624 30.7983 23.5229 30.2246 23.5229L1.06201 23.5229C0.488281 23.5229 0 23.9624 0 24.4995C0 25.0366 0.488281 25.4761 1.06201 25.4761ZM15.6494 0C15.1001 0 14.6484 0.488281 14.6484 1.08643L14.6484 5.65186L14.7949 7.49512L14.0137 6.57959L12.3657 4.91943C12.1826 4.73633 11.9507 4.63867 11.7188 4.63867C11.2305 4.63867 10.8765 4.96826 10.8765 5.45654C10.8765 5.71289 10.9619 5.9082 11.1694 6.09131L14.978 9.64355C15.2344 9.87549 15.4175 9.96094 15.6494 9.96094C15.8691 9.96094 16.0522 9.87549 16.3086 9.64355L20.1172 6.09131C20.3247 5.9082 20.4102 5.71289 20.4102 5.45654C20.4102 4.96826 20.0562 4.63867 19.5679 4.63867C19.3359 4.63867 19.104 4.73633 18.9209 4.91943L17.395 6.45752L16.4917 7.49512L16.6382 5.65186L16.6382 1.08643C16.6382 0.488281 16.1865 0 15.6494 0Z" fill="#5ac8f5"/>
 </g>
</svg>
