<?xml version="1.0" encoding="UTF-8"?>
<!--Generator: Apple Native CoreSVG 175.5-->
<!DOCTYPE svg
PUBLIC "-//W3C//DTD SVG 1.1//EN"
       "http://www.w3.org/Graphics/SVG/1.1/DTD/svg11.dtd">
<svg version="1.1" xmlns="http://www.w3.org/2000/svg" xmlns:xlink="http://www.w3.org/1999/xlink" width="22.4731" height="22.4976">
 <g>
  <rect height="22.4976" opacity="0" width="22.4731" x="0" y="0"/>
  <path d="M3.83301 22.4976L18.6401 22.4976C21.2036 22.4976 22.4731 21.228 22.4731 18.7134L22.4731 3.80859C22.4731 1.29395 21.2036 0.0244141 18.6401 0.0244141L3.83301 0.0244141C1.28174 0.0244141 0 1.28174 0 3.80859L0 18.7134C0 21.2402 1.28174 22.4976 3.83301 22.4976ZM8.47168 16.6504C7.9834 16.6504 7.71484 16.2842 7.71484 15.7959L7.71484 14.3188L4.05273 14.3188C3.40576 14.3188 2.97852 13.916 2.97852 13.2446C2.97852 12.9028 3.03955 12.6221 3.23486 12.2314C4.08936 10.7056 5.35889 8.55713 6.39648 6.78711C6.82373 6.09131 7.26318 5.81055 7.99561 5.81055C8.72803 5.81055 9.25293 6.28662 9.25293 7.01904L9.25293 12.9028L9.92432 12.9028C10.3516 12.9028 10.6445 13.1714 10.6445 13.623C10.6445 14.0625 10.3638 14.3188 9.92432 14.3188L9.25293 14.3188L9.25293 15.7959C9.25293 16.2964 8.98438 16.6504 8.47168 16.6504ZM7.71484 12.9028L7.71484 7.51953L7.6416 7.51953C6.64062 9.22852 5.35889 11.4258 4.61426 12.854L4.61426 12.9028ZM17.1509 16.6504C16.6626 16.6504 16.394 16.2842 16.394 15.7959L16.394 14.3188L12.7197 14.3188C12.085 14.3188 11.6455 13.916 11.6455 13.2446C11.6455 12.9028 11.7188 12.6221 11.9263 12.2314C12.7686 10.7056 14.0259 8.55713 15.0879 6.78711C15.4907 6.09131 15.9424 5.81055 16.6748 5.81055C17.4194 5.81055 17.9199 6.28662 17.9199 7.01904L17.9199 12.9028L18.6035 12.9028C19.043 12.9028 19.3115 13.1714 19.3115 13.623C19.3115 14.0625 19.043 14.3188 18.6035 14.3188L17.9199 14.3188L17.9199 15.7959C17.9199 16.2964 17.6514 16.6504 17.1509 16.6504ZM16.394 12.9028L16.394 7.51953L16.333 7.51953C15.3198 9.22852 14.0381 11.4258 13.2935 12.854L13.2935 12.9028Z" fill="#5ac8f5"/>
 </g>
</svg>
