<?xml version="1.0" encoding="UTF-8"?>
<!--Generator: Apple Native CoreSVG 175.5-->
<!DOCTYPE svg
PUBLIC "-//W3C//DTD SVG 1.1//EN"
       "http://www.w3.org/Graphics/SVG/1.1/DTD/svg11.dtd">
<svg version="1.1" xmlns="http://www.w3.org/2000/svg" xmlns:xlink="http://www.w3.org/1999/xlink" width="30.7251" height="32.4829">
 <g>
  <rect height="32.4829" opacity="0" width="30.7251" x="0" y="0"/>
  <path d="M15.3564 32.4829C15.8325 32.4829 16.4429 32.2266 16.9312 32.0557L23.2788 29.7241C23.7549 29.5532 23.938 29.126 23.938 28.8452C23.938 28.2593 23.5229 27.7588 22.876 27.7588C22.5708 27.7588 22.1313 27.9297 21.8506 28.0396L14.6118 30.7373L16.1255 30.7373L8.87451 28.0396C8.59375 27.9297 8.17871 27.7588 7.86133 27.7588C7.25098 27.7588 6.79932 28.2349 6.79932 28.8452C6.79932 29.126 6.97021 29.5532 7.4585 29.7241L13.7939 32.0557C14.3066 32.2388 14.8926 32.4829 15.3564 32.4829ZM3.83301 25.8789L26.8921 25.8789C29.4312 25.8789 30.7251 24.6094 30.7251 22.0947L30.7251 10.3638C30.7251 7.86133 29.4312 6.5918 26.8921 6.5918L3.83301 6.5918C1.26953 6.5918 0 7.84912 0 10.3638L0 22.0947C0 24.6094 1.26953 25.8789 3.83301 25.8789ZM3.85742 23.9136C2.63672 23.9136 1.96533 23.2544 1.96533 21.9849L1.96533 10.4736C1.96533 9.2041 2.63672 8.55713 3.85742 8.55713L26.8555 8.55713C28.064 8.55713 28.7598 9.2041 28.7598 10.4736L28.7598 21.9849C28.7598 23.2544 28.064 23.9136 26.8555 23.9136ZM4.95605 13.3911L6.0791 13.3911C6.4209 13.3911 6.62842 13.1836 6.62842 12.854L6.62842 11.731C6.62842 11.3892 6.4209 11.1816 6.0791 11.1816L4.95605 11.1816C4.62646 11.1816 4.41895 11.3892 4.41895 11.731L4.41895 12.854C4.41895 13.1836 4.62646 13.3911 4.95605 13.3911ZM8.88672 13.3911L10.0098 13.3911C10.3394 13.3911 10.5469 13.1836 10.5469 12.854L10.5469 11.731C10.5469 11.3892 10.3394 11.1816 10.0098 11.1816L8.88672 11.1816C8.54492 11.1816 8.3374 11.3892 8.3374 11.731L8.3374 12.854C8.3374 13.1836 8.54492 13.3911 8.88672 13.3911ZM12.8174 13.3911L13.9282 13.3911C14.27 13.3911 14.4775 13.1836 14.4775 12.854L14.4775 11.731C14.4775 11.3892 14.27 11.1816 13.9282 11.1816L12.8174 11.1816C12.4756 11.1816 12.2681 11.3892 12.2681 11.731L12.2681 12.854C12.2681 13.1836 12.4756 13.3911 12.8174 13.3911ZM16.7358 13.3911L17.8589 13.3911C18.2007 13.3911 18.4082 13.1836 18.4082 12.854L18.4082 11.731C18.4082 11.3892 18.2007 11.1816 17.8589 11.1816L16.7358 11.1816C16.4062 11.1816 16.1987 11.3892 16.1987 11.731L16.1987 12.854C16.1987 13.1836 16.4062 13.3911 16.7358 13.3911ZM20.6665 13.3911L21.7896 13.3911C22.1191 13.3911 22.3267 13.1836 22.3267 12.854L22.3267 11.731C22.3267 11.3892 22.1191 11.1816 21.7896 11.1816L20.6665 11.1816C20.3247 11.1816 20.1172 11.3892 20.1172 11.731L20.1172 12.854C20.1172 13.1836 20.3247 13.3911 20.6665 13.3911ZM24.5972 13.3911L25.708 13.3911C26.0498 13.3911 26.2573 13.1836 26.2573 12.854L26.2573 11.731C26.2573 11.3892 26.0498 11.1816 25.708 11.1816L24.5972 11.1816C24.2554 11.1816 24.0479 11.3892 24.0479 11.731L24.0479 12.854C24.0479 13.1836 24.2554 13.3911 24.5972 13.3911ZM4.95605 17.3218L6.0791 17.3218C6.4209 17.3218 6.62842 17.1143 6.62842 16.7725L6.62842 15.6616C6.62842 15.3198 6.4209 15.1123 6.0791 15.1123L4.95605 15.1123C4.62646 15.1123 4.41895 15.3198 4.41895 15.6616L4.41895 16.7725C4.41895 17.1143 4.62646 17.3218 4.95605 17.3218ZM8.88672 17.3218L10.0098 17.3218C10.3394 17.3218 10.5469 17.1143 10.5469 16.7725L10.5469 15.6616C10.5469 15.3198 10.3394 15.1123 10.0098 15.1123L8.88672 15.1123C8.54492 15.1123 8.3374 15.3198 8.3374 15.6616L8.3374 16.7725C8.3374 17.1143 8.54492 17.3218 8.88672 17.3218ZM12.8174 17.3218L13.9282 17.3218C14.27 17.3218 14.4775 17.1143 14.4775 16.7725L14.4775 15.6616C14.4775 15.3198 14.27 15.1123 13.9282 15.1123L12.8174 15.1123C12.4756 15.1123 12.2681 15.3198 12.2681 15.6616L12.2681 16.7725C12.2681 17.1143 12.4756 17.3218 12.8174 17.3218ZM16.7358 17.3218L17.8589 17.3218C18.2007 17.3218 18.4082 17.1143 18.4082 16.7725L18.4082 15.6616C18.4082 15.3198 18.2007 15.1123 17.8589 15.1123L16.7358 15.1123C16.4062 15.1123 16.1987 15.3198 16.1987 15.6616L16.1987 16.7725C16.1987 17.1143 16.4062 17.3218 16.7358 17.3218ZM20.6665 17.3218L21.7896 17.3218C22.1191 17.3218 22.3267 17.1143 22.3267 16.7725L22.3267 15.6616C22.3267 15.3198 22.1191 15.1123 21.7896 15.1123L20.6665 15.1123C20.3247 15.1123 20.1172 15.3198 20.1172 15.6616L20.1172 16.7725C20.1172 17.1143 20.3247 17.3218 20.6665 17.3218ZM24.5972 17.3218L25.708 17.3218C26.0498 17.3218 26.2573 17.1143 26.2573 16.7725L26.2573 15.6616C26.2573 15.3198 26.0498 15.1123 25.708 15.1123L24.5972 15.1123C24.2554 15.1123 24.0479 15.3198 24.0479 15.6616L24.0479 16.7725C24.0479 17.1143 24.2554 17.3218 24.5972 17.3218ZM4.95605 21.2524L6.0791 21.2524C6.4209 21.2524 6.62842 21.0449 6.62842 20.7031L6.62842 19.5801C6.62842 19.2505 6.4209 19.043 6.0791 19.043L4.95605 19.043C4.62646 19.043 4.41895 19.2505 4.41895 19.5801L4.41895 20.7031C4.41895 21.0449 4.62646 21.2524 4.95605 21.2524ZM9.00879 21.2524L21.6675 21.2524C22.0825 21.2524 22.3267 21.0083 22.3267 20.5811L22.3267 19.7021C22.3267 19.2871 22.0825 19.043 21.6675 19.043L9.00879 19.043C8.58154 19.043 8.3374 19.2871 8.3374 19.7021L8.3374 20.5811C8.3374 21.0083 8.58154 21.2524 9.00879 21.2524ZM24.5972 21.2524L25.708 21.2524C26.0498 21.2524 26.2573 21.0449 26.2573 20.7031L26.2573 19.5801C26.2573 19.2505 26.0498 19.043 25.708 19.043L24.5972 19.043C24.2554 19.043 24.0479 19.2505 24.0479 19.5801L24.0479 20.7031C24.0479 21.0449 24.2554 21.2524 24.5972 21.2524Z" fill="#5ac8f5"/>
 </g>
</svg>
