<?xml version="1.0" encoding="UTF-8"?>
<!--Generator: Apple Native CoreSVG 175.5-->
<!DOCTYPE svg
PUBLIC "-//W3C//DTD SVG 1.1//EN"
       "http://www.w3.org/Graphics/SVG/1.1/DTD/svg11.dtd">
<svg version="1.1" xmlns="http://www.w3.org/2000/svg" xmlns:xlink="http://www.w3.org/1999/xlink" width="19.9341" height="25.7935">
 <g>
  <rect height="25.7935" opacity="0" width="19.9341" x="0" y="0"/>
  <path d="M8.61816 0.109863C3.45459 0.109863 0 3.57666 0 9.28955L0 11.9507C0 14.7705 1.33057 16.4185 3.60107 16.4429C3.88184 17.334 4.61426 17.8833 5.63965 17.8833C6.00586 17.8833 6.35986 17.8223 6.70166 17.7002C7.01904 18.689 7.82471 19.2871 8.88672 19.2871C9.16748 19.2871 9.46045 19.2505 9.75342 19.165L9.75342 23.23C9.75342 24.7681 10.7788 25.7935 12.2192 25.7935C13.6719 25.7935 14.6973 24.7681 14.6973 23.23L14.6973 13.0371C14.6973 12.9761 14.7339 12.9272 14.7949 12.9272C14.8438 12.9272 14.8804 12.9639 14.8926 13.0127L15.7104 14.9658C16.1255 15.918 16.8335 16.4307 17.7002 16.4307C18.8843 16.4307 19.9341 15.6738 19.9341 14.3311C19.9341 13.9648 19.8608 13.4766 19.7144 13.0493L17.5659 7.00684C15.9424 2.4292 12.9272 0.109863 8.61816 0.109863ZM8.55713 1.79443C11.9751 1.79443 14.5874 3.36914 16.0767 7.53174L18.2373 13.562C18.2983 13.7451 18.335 13.9038 18.335 14.1113C18.335 14.5386 18.0176 14.9048 17.5293 14.9048C17.1143 14.9048 16.8701 14.6484 16.687 14.2334L15.0269 10.5225C14.7583 9.91211 14.3799 9.7168 13.9526 9.7168C13.4399 9.7168 13.0737 10.1196 13.0737 10.6812L13.0737 23.3398C13.0737 23.8525 12.7197 24.2188 12.2192 24.2188C11.7188 24.2188 11.377 23.8525 11.377 23.3398L11.377 14.3066C11.377 13.8794 11.0107 13.5498 10.5835 13.5498C10.1685 13.5498 9.82666 13.8794 9.82666 14.3066L9.82666 17.5537C9.61914 17.6514 9.33838 17.7124 9.09424 17.7124C8.48389 17.7124 8.11768 17.3218 8.11768 16.6748L8.11768 13.8428C8.11768 13.3911 7.75146 13.0859 7.33643 13.0859C6.93359 13.0859 6.56738 13.3911 6.56738 13.8428L6.56738 16.1499C6.35986 16.2476 6.0791 16.3086 5.84717 16.3086C5.22461 16.3086 4.87061 15.918 4.87061 15.271L4.87061 13.3667C4.87061 12.9272 4.49219 12.6221 4.07715 12.6221C3.67432 12.6221 3.32031 12.9272 3.32031 13.3667L3.32031 14.7705C2.23389 14.7705 1.61133 13.6597 1.61133 11.7065L1.61133 9.48486C1.61133 4.57764 4.24805 1.79443 8.55713 1.79443Z" fill="#5ac8f5"/>
 </g>
</svg>
