<?xml version="1.0" encoding="UTF-8"?>
<!--Generator: Apple Native CoreSVG 175.5-->
<!DOCTYPE svg
PUBLIC "-//W3C//DTD SVG 1.1//EN"
       "http://www.w3.org/Graphics/SVG/1.1/DTD/svg11.dtd">
<svg version="1.1" xmlns="http://www.w3.org/2000/svg" xmlns:xlink="http://www.w3.org/1999/xlink" width="24.9023" height="24.9146">
 <g>
  <rect height="24.9146" opacity="0" width="24.9023" x="0" y="0"/>
  <path d="M12.4512 24.9023C19.2627 24.9023 24.9023 19.2505 24.9023 12.4512C24.9023 5.63965 19.2505 0 12.439 0C5.63965 0 0 5.63965 0 12.4512C0 19.2505 5.65186 24.9023 12.4512 24.9023ZM12.4512 22.8271C6.68945 22.8271 2.0874 18.2129 2.0874 12.4512C2.0874 6.68945 6.67725 2.0752 12.439 2.0752C18.2007 2.0752 22.8271 6.68945 22.8271 12.4512C22.8271 18.2129 18.2129 22.8271 12.4512 22.8271Z" fill="#5ac8f5" fill-opacity="0.5"/>
  <path d="M12.8906 19.3848C12.9395 19.3726 12.9761 19.3481 13.0127 19.3237L18.0176 16.4795C18.5913 16.1377 18.9331 15.7959 18.9331 14.8804L18.9331 9.8999C18.9331 9.729 18.9209 9.55811 18.8721 9.42383L12.8906 12.8418ZM12.0117 19.3848L12.0117 12.8418L6.03027 9.42383C5.99365 9.55811 5.99365 9.729 5.99365 9.8999L5.99365 14.8804C5.99365 15.7959 6.31104 16.1377 6.88477 16.4795L11.8896 19.3237C11.9263 19.3481 11.9629 19.3726 12.0117 19.3848ZM12.4512 12.085L15.1733 10.5347L9.14307 7.09229L6.79932 8.43506C6.65283 8.49609 6.53076 8.58154 6.44531 8.6792ZM16.0645 10.0342L18.457 8.6792C18.3716 8.58154 18.2495 8.49609 18.103 8.43506L13.6108 5.85938C13.2202 5.62744 12.8296 5.51758 12.4512 5.51758C12.085 5.51758 11.6943 5.62744 11.3037 5.85938L9.99756 6.5918Z" fill="#5ac8f5"/>
 </g>
</svg>
