<?xml version="1.0" encoding="UTF-8"?>
<!--Generator: Apple Native CoreSVG 175.5-->
<!DOCTYPE svg
PUBLIC "-//W3C//DTD SVG 1.1//EN"
       "http://www.w3.org/Graphics/SVG/1.1/DTD/svg11.dtd">
<svg version="1.1" xmlns="http://www.w3.org/2000/svg" xmlns:xlink="http://www.w3.org/1999/xlink" width="23.0713" height="25.2319">
 <g>
  <rect height="25.2319" opacity="0" width="23.0713" x="0" y="0"/>
  <path d="M23.0713 17.4438C23.0713 12.7808 19.9097 9.55811 14.3433 9.55811L6.14014 9.55811L2.35596 9.729L2.57568 10.2905L5.59082 7.71484L9.11865 4.27246C9.30176 4.07715 9.41162 3.84521 9.41162 3.52783C9.41162 2.89307 8.98438 2.45361 8.3252 2.45361C8.06885 2.45361 7.75146 2.58789 7.54395 2.79541L0.366211 9.83887C0.12207 10.0708 0 10.3516 0 10.6567C0 10.9497 0.12207 11.2305 0.366211 11.4624L7.54395 18.5059C7.75146 18.7256 8.06885 18.8477 8.3252 18.8477C8.98438 18.8477 9.41162 18.4082 9.41162 17.7734C9.41162 17.4561 9.30176 17.2241 9.11865 17.0288L5.59082 13.5986L2.57568 11.0107L2.35596 11.5723L6.14014 11.7432L14.5264 11.7432C18.689 11.7432 20.8862 14.0381 20.8862 17.3218C20.8862 20.6177 18.689 23.0591 14.5264 23.0591L11.7188 23.0591C11.0474 23.0591 10.6079 23.5474 10.6079 24.1455C10.6079 24.7437 11.0474 25.2319 11.7188 25.2319L14.5386 25.2319C19.9951 25.2319 23.0713 22.1191 23.0713 17.4438Z" fill="#5ac8f5"/>
 </g>
</svg>
