<?xml version="1.0" encoding="UTF-8"?>
<!--Generator: Apple Native CoreSVG 175.5-->
<!DOCTYPE svg
PUBLIC "-//W3C//DTD SVG 1.1//EN"
       "http://www.w3.org/Graphics/SVG/1.1/DTD/svg11.dtd">
<svg version="1.1" xmlns="http://www.w3.org/2000/svg" xmlns:xlink="http://www.w3.org/1999/xlink" width="30.6885" height="23.2056">
 <g>
  <rect height="23.2056" opacity="0" width="30.6885" x="0" y="0"/>
  <path d="M24.1211 21.2158C27.8076 21.2158 30.6885 18.5181 30.6885 15.1611C30.6885 12.5977 29.2114 10.376 26.8311 9.375C26.8555 3.93066 22.937 0 17.9443 0C14.6362 0 12.2803 1.77002 10.8154 3.90625C7.8125 3.02734 4.54102 5.31006 4.47998 8.72803C1.72119 9.16748 0 11.6333 0 14.6118C0 18.2007 3.13721 21.2158 7.31201 21.2158ZM24.1211 19.2505L7.31201 19.2505C4.23584 19.2505 1.96533 17.1021 1.96533 14.6118C1.96533 12.1704 3.44238 10.2295 6.03027 10.2295C6.20117 10.2295 6.26221 10.144 6.26221 9.98535C6.26221 6.22559 8.97217 5.11475 11.4746 5.93262C11.6211 5.98145 11.7065 5.94482 11.7798 5.81055C12.9639 3.69873 14.7827 1.96533 17.9443 1.96533C21.9482 1.96533 24.7192 5.13916 24.9268 8.76465C24.9634 9.32617 24.9268 9.98535 24.8779 10.5591C24.8657 10.7178 24.9268 10.8032 25.0732 10.8398C27.2949 11.3281 28.7231 12.9517 28.7231 15.1611C28.7231 17.4316 26.7212 19.2505 24.1211 19.2505Z" fill="#5ac8f5" fill-opacity="0.5"/>
  <path d="M11.0107 12.1094C11.0107 14.8804 13.1958 17.0776 15.918 17.0776C18.6523 17.0776 20.8374 14.8804 20.8374 12.146C20.8374 11.7432 20.4834 11.4014 20.0806 11.4014C19.6655 11.4014 19.3237 11.7432 19.3237 12.146C19.3237 14.0381 17.8101 15.564 15.918 15.564C14.0381 15.564 12.5244 14.0381 12.5244 12.146C12.5244 10.2661 14.0381 8.75244 15.918 8.75244C16.0645 8.75244 16.2109 8.76465 16.3086 8.78906L15.2588 9.83887C15.1245 9.97314 15.0391 10.144 15.0391 10.3394C15.0391 10.73 15.3442 11.0352 15.7349 11.0352C15.918 11.0352 16.1011 10.9619 16.2231 10.8398L18.3594 8.70361C18.6279 8.43506 18.6157 7.94678 18.3594 7.67822L16.2476 5.52979C16.1255 5.3833 15.9302 5.29785 15.7349 5.29785C15.3442 5.29785 15.0391 5.62744 15.0391 6.01807C15.0391 6.20117 15.1123 6.39648 15.2344 6.51855L16.0034 7.31201C15.918 7.2998 15.8081 7.2876 15.7104 7.2876C13.2324 7.2876 11.0107 9.39941 11.0107 12.1094Z" fill="#5ac8f5"/>
 </g>
</svg>
