<?xml version="1.0" encoding="UTF-8"?>
<!--Generator: Apple Native CoreSVG 175.5-->
<!DOCTYPE svg
PUBLIC "-//W3C//DTD SVG 1.1//EN"
       "http://www.w3.org/Graphics/SVG/1.1/DTD/svg11.dtd">
<svg version="1.1" xmlns="http://www.w3.org/2000/svg" xmlns:xlink="http://www.w3.org/1999/xlink" width="28.2959" height="23.5229">
 <g>
  <rect height="23.5229" opacity="0" width="28.2959" x="0" y="0"/>
  <path d="M0.854492 12.6831L4.00391 12.6831L4.00391 10.8887L0.854492 10.8887C0.366211 10.8887 0 11.3037 0 11.7798C0 12.2559 0.366211 12.6831 0.854492 12.6831ZM5.98145 23.5229L10.2295 23.5229C12.0117 23.5229 12.9761 22.522 12.9761 20.7031L12.9761 2.85645C12.9761 1.0376 12.0117 0.0610352 10.2295 0.0610352L5.98145 0.0610352C4.19922 0.0610352 3.23486 1.0376 3.23486 2.85645L3.23486 20.7031C3.23486 22.522 4.19922 23.5229 5.98145 23.5229ZM11.9751 12.6831L16.2964 12.6831L16.2964 10.8887L11.9751 10.8887ZM18.0908 19.1772L22.3389 19.1772C24.1089 19.1772 25.0854 18.2007 25.0854 16.3818L25.0854 7.17773C25.0854 5.35889 24.1089 4.38232 22.3389 4.38232L18.0908 4.38232C16.3086 4.38232 15.332 5.35889 15.332 7.17773L15.332 16.3818C15.332 18.2007 16.3086 19.1772 18.0908 19.1772ZM24.3408 12.6831L27.4536 12.6831C27.9297 12.6831 28.2959 12.2559 28.2959 11.7798C28.2959 11.3037 27.9297 10.8887 27.4536 10.8887L24.3408 10.8887Z" fill="#5ac8f5"/>
 </g>
</svg>
