<?xml version="1.0" encoding="UTF-8"?>
<!--Generator: Apple Native CoreSVG 175.5-->
<!DOCTYPE svg
PUBLIC "-//W3C//DTD SVG 1.1//EN"
       "http://www.w3.org/Graphics/SVG/1.1/DTD/svg11.dtd">
<svg version="1.1" xmlns="http://www.w3.org/2000/svg" xmlns:xlink="http://www.w3.org/1999/xlink" width="37.3291" height="20.4956">
 <g>
  <rect height="20.4956" opacity="0" width="37.3291" x="0" y="0"/>
  <path d="M1.11084 20.3979C1.75781 20.3979 2.14844 20.0562 2.28271 19.4092L3.24707 14.978L8.48389 14.978L9.47266 19.4214C9.60693 20.0684 10.0098 20.3979 10.6567 20.3979C11.2793 20.3979 11.7798 19.9463 11.7798 19.3237C11.7798 19.2139 11.7554 19.0796 11.731 18.9697L7.69043 1.75781C7.4707 0.793457 6.87256 0.146484 5.87158 0.146484C4.82178 0.146484 4.30908 0.756836 4.07715 1.77002L0.0976562 18.7256C0.0488281 18.8965 0 19.165 0 19.3237C0 20.0195 0.45166 20.3979 1.11084 20.3979ZM3.66211 13.0249L5.78613 3.19824L5.896 3.19824L8.05664 13.0249ZM15.6616 20.1172L19.8975 20.1172C23.0591 20.1172 24.7925 17.9321 24.7925 14.6484C24.7925 12.4146 23.7427 10.1196 21.521 9.79004L21.521 9.69238C23.2422 9.27734 24.1577 7.08008 24.1577 5.31006C24.1577 2.50244 22.5586 0.415039 19.812 0.415039L15.6616 0.415039C14.917 0.415039 14.5264 0.927734 14.5264 1.66016L14.5264 18.8843C14.5264 19.5679 14.8682 20.1172 15.6616 20.1172ZM16.8091 18.103L16.8091 10.9375L19.1895 10.9375C21.3867 10.9375 22.4243 12.3291 22.4243 14.5142C22.4243 16.626 21.4722 18.103 19.3237 18.103ZM16.8091 9.00879L16.8091 2.44141L19.2139 2.44141C21.0571 2.44141 21.8506 3.75977 21.8506 5.60303C21.8506 7.61719 20.9229 9.00879 18.9209 9.00879ZM32.2876 20.4956C35.6445 20.4956 37.3291 18.1396 37.3291 14.9658C37.3291 12.0605 36.0229 10.6689 33.3984 9.30176L32.4097 8.77686C30.8594 7.95898 29.7852 7.01904 29.7852 5.17578C29.7852 3.52783 30.5786 2.11182 32.1899 2.11182C33.7402 2.11182 34.6191 3.38135 34.8755 5.0293C34.9854 5.67627 35.4492 5.94482 35.9741 5.94482C36.5845 5.94482 36.9629 5.48096 36.9629 4.87061C36.9629 3.16162 35.5347 0.0366211 32.1899 0.0366211C29.2969 0.0366211 27.4902 2.33154 27.4902 5.33447C27.4902 8.1543 28.9307 9.63135 31.3843 10.9131L32.3975 11.4258C34.0576 12.3047 35.0464 13.269 35.0464 15.1489C35.0464 16.9678 34.1431 18.4204 32.3364 18.4204C30.6519 18.4204 29.6875 17.0532 29.4312 15.332C29.3091 14.6606 28.8086 14.4165 28.3447 14.4165C27.6978 14.4165 27.3438 14.9292 27.3438 15.6006C27.3438 17.4438 28.8086 20.4956 32.2876 20.4956Z" fill="#5ac8f5"/>
 </g>
</svg>
