<?xml version="1.0" encoding="UTF-8"?>
<!--Generator: Apple Native CoreSVG 175.5-->
<!DOCTYPE svg
PUBLIC "-//W3C//DTD SVG 1.1//EN"
       "http://www.w3.org/Graphics/SVG/1.1/DTD/svg11.dtd">
<svg version="1.1" xmlns="http://www.w3.org/2000/svg" xmlns:xlink="http://www.w3.org/1999/xlink" width="23.5605" height="28.9917">
 <g>
  <rect height="28.9917" opacity="0" width="23.5605" x="0" y="0"/>
  <path d="M2.68555 5.33447C4.13818 5.33447 5.33447 4.13818 5.33447 2.64893C5.33447 1.18408 4.13818 0 2.68555 0C1.19629 0 0 1.18408 0 2.64893C0 4.13818 1.19629 5.33447 2.68555 5.33447ZM1.28174 15.271L6.33545 15.271L6.64062 15.5762C7.25098 16.1865 8.08105 16.4917 8.88672 16.4917C9.55811 16.4917 10.2051 16.2842 10.7788 15.8569L16.8823 11.2915L22.9492 7.6416C23.5352 7.2998 23.7305 6.54297 23.4009 5.95703C23.0347 5.37109 22.2778 5.18799 21.6919 5.54199L10.1318 12.4634L6.92139 9.24072C6.83594 9.16748 6.88477 9.05762 6.99463 9.05762L9.93652 9.05762C10.6201 9.05762 11.1816 8.5083 11.1816 7.82471L11.1816 2.4292C11.1816 1.7334 10.6201 1.18408 9.93652 1.18408C9.25293 1.18408 8.70361 1.7334 8.70361 2.4292L8.70361 6.604L2.50244 6.604C1.15967 6.604 0.0488281 7.70264 0.0488281 9.05762L0.0488281 14.0381C0.0488281 14.6973 0.585938 15.271 1.28174 15.271ZM2.41699 12.854L2.41699 11.6821C2.41699 11.5112 2.6123 11.4258 2.73438 11.5479L4.04053 12.854ZM9.06982 28.8696C9.70459 28.9917 10.4126 28.5767 10.5469 27.8931L11.7798 21.7041C11.8164 21.5454 11.8164 21.4233 11.792 21.2524L11.5601 16.748C10.7178 17.3828 9.79004 17.6636 8.88672 17.6636C8.77686 17.6636 8.65479 17.6636 8.53271 17.6514L9.28955 21.46L8.10547 27.4048C7.97119 28.0762 8.41064 28.7354 9.06982 28.8696ZM10.5591 4.27246C11.5845 4.27246 12.4268 3.45459 12.4268 2.4292C12.4268 1.3916 11.5845 0.57373 10.5591 0.57373C9.5459 0.57373 8.70361 1.3916 8.70361 2.4292C8.70361 3.45459 9.5459 4.27246 10.5591 4.27246Z" fill="#5ac8f5"/>
 </g>
</svg>
