<?xml version="1.0" encoding="UTF-8"?>
<!--Generator: Apple Native CoreSVG 175.5-->
<!DOCTYPE svg
PUBLIC "-//W3C//DTD SVG 1.1//EN"
       "http://www.w3.org/Graphics/SVG/1.1/DTD/svg11.dtd">
<svg version="1.1" xmlns="http://www.w3.org/2000/svg" xmlns:xlink="http://www.w3.org/1999/xlink" width="33.9233" height="22.7173">
 <g>
  <rect height="22.7173" opacity="0" width="33.9233" x="0" y="0"/>
  <path d="M0 13.8184C0 15.625 0.927734 16.5405 2.75879 16.5405L7.03125 16.5405C8.8501 16.5405 9.86328 17.0044 11.0229 18.5791C13.0249 21.2646 16.0767 22.6685 19.2505 22.6685L23.8159 22.6685C24.7192 22.6685 25.2808 22.1069 25.2808 21.228L25.2808 1.40381C25.2808 0.549316 24.707 0 23.8159 0L19.2505 0C16.0767 0 13.0127 1.3916 11.0229 4.08936C9.86328 5.67627 8.8501 6.14014 7.03125 6.14014L2.75879 6.14014C0.927734 6.14014 0 7.04346 0 8.8501ZM24.8169 8.59375L31.9458 8.59375C33.0322 8.59375 33.9233 7.70264 33.9233 6.61621C33.9233 5.52979 33.0322 4.63867 31.9458 4.63867L24.8169 4.63867ZM24.8169 18.0298L31.9458 18.0298C33.0322 18.0298 33.9233 17.1387 33.9233 16.0522C33.9233 14.9658 33.0322 14.0747 31.9458 14.0747L24.8169 14.0747Z" fill="#5ac8f5"/>
 </g>
</svg>
