<?xml version="1.0" encoding="UTF-8"?>
<!--Generator: Apple Native CoreSVG 175.5-->
<!DOCTYPE svg
PUBLIC "-//W3C//DTD SVG 1.1//EN"
       "http://www.w3.org/Graphics/SVG/1.1/DTD/svg11.dtd">
<svg version="1.1" xmlns="http://www.w3.org/2000/svg" xmlns:xlink="http://www.w3.org/1999/xlink" width="24.9023" height="24.9146">
 <g>
  <rect height="24.9146" opacity="0" width="24.9023" x="0" y="0"/>
  <path d="M12.4512 24.9023C19.2627 24.9023 24.9023 19.2505 24.9023 12.4512C24.9023 5.63965 19.2505 0 12.439 0C5.63965 0 0 5.63965 0 12.4512C0 19.2505 5.65186 24.9023 12.4512 24.9023ZM12.4512 22.8271C6.68945 22.8271 2.0874 18.2129 2.0874 12.4512C2.0874 6.68945 6.67725 2.0752 12.439 2.0752C18.2007 2.0752 22.8271 6.68945 22.8271 12.4512C22.8271 18.2129 18.2129 22.8271 12.4512 22.8271Z" fill="#5ac8f5" fill-opacity="0.5"/>
  <path d="M8.20312 10.5225C8.20312 12.5732 9.75342 14.0625 11.8652 14.0625C12.6831 14.0625 13.5376 13.7695 13.9526 13.3423L14.1113 13.3423C14.0015 13.5254 13.8306 13.7817 13.562 14.1113C12.8906 14.9658 12.085 15.9424 11.3525 16.8335C11.1572 17.0654 11.0596 17.2974 11.0596 17.5293C11.0596 17.8955 11.377 18.2495 11.8652 18.2495C12.3291 18.2495 12.5122 17.9688 12.8662 17.5293C13.5132 16.7358 14.4287 15.5518 15.0757 14.6851C16.2109 13.1836 16.748 11.9385 16.748 10.6201C16.748 8.25195 15.0024 6.64062 12.4756 6.64062C9.94873 6.64062 8.20312 8.23975 8.20312 10.5225ZM9.92432 10.4492C9.92432 9.15527 11.0107 8.19092 12.4634 8.19092C13.916 8.19092 15.0146 9.16748 15.0146 10.4492C15.0146 11.7554 13.9282 12.6953 12.4756 12.6953C11.0107 12.6953 9.92432 11.7432 9.92432 10.4492Z" fill="#5ac8f5"/>
 </g>
</svg>
