<?xml version="1.0" encoding="UTF-8"?>
<!--Generator: Apple Native CoreSVG 175.5-->
<!DOCTYPE svg
PUBLIC "-//W3C//DTD SVG 1.1//EN"
       "http://www.w3.org/Graphics/SVG/1.1/DTD/svg11.dtd">
<svg version="1.1" xmlns="http://www.w3.org/2000/svg" xmlns:xlink="http://www.w3.org/1999/xlink" width="30.7558" height="28.4302">
 <g>
  <rect height="28.4302" opacity="0" width="30.7558" x="0" y="0"/>
  <path d="M3.72314 26.3184L17.0166 26.3184C17.0044 26.1963 16.9922 26.0986 16.98 25.9766L15.7104 12.6831C15.5518 11.0474 16.6992 9.7168 18.3472 9.7168L21.6553 9.7168C21.6431 8.95996 21.5332 8.60596 21.1548 8.09326L18.8232 5.00488L18.8232 2.68555C18.8232 0.952148 17.8101 0 15.9668 0L5.68848 0C3.85742 0 2.83203 0.952148 2.83203 2.68555L2.83203 5.00488L0.512695 8.09326C0.109863 8.63037 0 8.99658 0 9.85107L0 22.644C0 25.0854 1.24512 26.3184 3.72314 26.3184ZM7.51953 4.77295C7.09229 4.77295 6.73828 4.41895 6.73828 3.97949C6.73828 3.55225 7.09229 3.17383 7.51953 3.17383L14.0991 3.17383C14.5264 3.17383 14.8804 3.55225 14.8804 3.97949C14.8804 4.41895 14.5264 4.77295 14.0991 4.77295ZM21.228 28.3936L26.8799 28.3936C28.4912 28.3936 29.2969 27.5757 29.4678 25.8179L30.7495 12.5244C30.8105 11.8408 30.4199 11.3892 29.7485 11.3892L18.3472 11.3892C17.688 11.3892 17.2974 11.853 17.3584 12.5244L18.6401 25.8179C18.811 27.5757 19.6045 28.3936 21.228 28.3936ZM23.2544 12.0117L24.939 12.0117L25.0122 10.8643C25.061 10.2539 25.2441 9.8999 25.6958 9.57031L29.7729 6.64062C30.7007 5.98145 29.7241 4.57764 28.7354 5.29785L24.8047 8.14209C23.8647 8.82568 23.4619 9.57031 23.3521 10.7666Z" fill="#5ac8f5"/>
 </g>
</svg>
