<?xml version="1.0" encoding="UTF-8"?>
<!--Generator: Apple Native CoreSVG 175.5-->
<!DOCTYPE svg
PUBLIC "-//W3C//DTD SVG 1.1//EN"
       "http://www.w3.org/Graphics/SVG/1.1/DTD/svg11.dtd">
<svg version="1.1" xmlns="http://www.w3.org/2000/svg" xmlns:xlink="http://www.w3.org/1999/xlink" width="24.9023" height="24.9146">
 <g>
  <rect height="24.9146" opacity="0" width="24.9023" x="0" y="0"/>
  <path d="M12.4512 24.9023C19.2627 24.9023 24.9023 19.2505 24.9023 12.4512C24.9023 5.63965 19.2505 0 12.439 0C5.63965 0 0 5.63965 0 12.4512C0 19.2505 5.65186 24.9023 12.4512 24.9023ZM12.4512 18.7378C9.81445 18.7378 8.04443 16.98 8.04443 16.1499C8.04443 15.8447 8.34961 15.7104 8.60596 15.8325C9.53369 16.3208 10.6079 16.9067 12.4512 16.9067C14.2822 16.9067 15.3687 16.333 16.2842 15.8325C16.5527 15.7104 16.8457 15.8447 16.8457 16.1499C16.8457 16.98 15.0757 18.7378 12.4512 18.7378ZM8.71582 11.3037C7.92236 11.3037 7.23877 10.5835 7.23877 9.58252C7.23877 8.55713 7.92236 7.83691 8.71582 7.83691C9.52148 7.83691 10.2295 8.55713 10.2295 9.58252C10.2295 10.5835 9.52148 11.3037 8.71582 11.3037ZM16.1743 11.3037C15.3809 11.3037 14.6973 10.5835 14.6973 9.58252C14.6973 8.55713 15.3809 7.83691 16.1743 7.83691C16.98 7.83691 17.688 8.55713 17.688 9.58252C17.688 10.5835 16.98 11.3037 16.1743 11.3037Z" fill="#5ac8f5"/>
 </g>
</svg>
