<?xml version="1.0" encoding="UTF-8"?>
<!--Generator: Apple Native CoreSVG 175.5-->
<!DOCTYPE svg
PUBLIC "-//W3C//DTD SVG 1.1//EN"
       "http://www.w3.org/Graphics/SVG/1.1/DTD/svg11.dtd">
<svg version="1.1" xmlns="http://www.w3.org/2000/svg" xmlns:xlink="http://www.w3.org/1999/xlink" width="24.9023" height="24.9146">
 <g>
  <rect height="24.9146" opacity="0" width="24.9023" x="0" y="0"/>
  <path d="M12.4512 24.9023C19.2627 24.9023 24.9023 19.2505 24.9023 12.4512C24.9023 5.63965 19.2505 0 12.439 0C5.63965 0 0 5.63965 0 12.4512C0 19.2505 5.65186 24.9023 12.4512 24.9023Z" fill="#5ac8f5" fill-opacity="0.25"/>
  <path d="M7.31201 20.2148C6.9458 20.2148 6.64062 19.9097 6.64062 19.5312C6.64062 19.3359 6.73828 19.1528 6.89697 18.9941L9.41162 16.4917L11.4258 9.375C11.499 9.10645 11.3281 8.91113 11.0474 8.92334L9.85107 8.98438L9.55811 11.1694C9.49707 11.6089 9.24072 11.853 8.83789 11.8042C8.41064 11.7798 8.17871 11.4746 8.23975 11.0229L8.59375 8.3374C8.65479 7.91016 8.92334 7.65381 9.31396 7.62939L12.2925 7.39746C13.5132 7.31201 14.3311 7.66602 14.978 8.56934L16.333 10.4858L18.2983 9.63135C18.689 9.46045 19.0308 9.55811 19.1895 9.91211C19.3726 10.2661 19.2261 10.5957 18.811 10.7666L16.3208 11.8774C16.0156 12.0117 15.686 11.9263 15.5151 11.6577L14.7949 10.6079C14.6118 10.3271 14.2822 10.3882 14.1968 10.6934L13.6597 12.6099L16.4062 14.3799C16.687 14.563 16.8091 14.7705 16.8091 14.9902C16.8091 15.2222 16.7358 15.3809 16.5405 15.5396L13.9893 17.7002C13.7573 17.9321 13.562 18.0176 13.3179 18.0176C12.9639 18.0176 12.6831 17.7124 12.6831 17.3462C12.6831 17.1265 12.793 16.9189 12.9883 16.7725L14.8926 15.1245L12.8052 13.916C12.3657 13.6597 11.9629 13.7695 11.8042 14.1968L10.73 16.98C10.6201 17.2607 10.5835 17.3096 10.3638 17.5049L7.99561 19.8608C7.73926 20.0928 7.56836 20.2148 7.31201 20.2148ZM14.5264 7.04346C13.6597 7.04346 12.9395 6.32324 12.9395 5.44434C12.9395 4.55322 13.6353 3.83301 14.5264 3.83301C15.4175 3.83301 16.1377 4.55322 16.1377 5.44434C16.1377 6.31104 15.4053 7.04346 14.5264 7.04346Z" fill="#5ac8f5"/>
 </g>
</svg>
