<?xml version="1.0" encoding="UTF-8"?>
<!--Generator: Apple Native CoreSVG 175.5-->
<!DOCTYPE svg
PUBLIC "-//W3C//DTD SVG 1.1//EN"
       "http://www.w3.org/Graphics/SVG/1.1/DTD/svg11.dtd">
<svg version="1.1" xmlns="http://www.w3.org/2000/svg" xmlns:xlink="http://www.w3.org/1999/xlink" width="36.6699" height="19.8853">
 <g>
  <rect height="19.8853" opacity="0" width="36.6699" x="0" y="0"/>
  <path d="M22.5342 19.8853L25.3174 19.8853C26.3794 19.8853 26.9409 19.3237 26.9409 18.2495L26.9409 1.62354C26.9409 0.512695 26.3794 0 25.3174 0L22.5342 0C21.4722 0 20.9106 0.561523 20.9106 1.62354L20.9106 18.2495C20.9106 19.3237 21.4722 19.8853 22.5342 19.8853ZM32.2754 19.8853L35.0464 19.8853C36.1206 19.8853 36.6699 19.3237 36.6699 18.2495L36.6699 1.62354C36.6699 0.512695 36.1206 0 35.0464 0L32.2754 0C31.2012 0 30.6519 0.561523 30.6519 1.62354L30.6519 18.2495C30.6519 19.3237 31.2012 19.8853 32.2754 19.8853ZM1.75781 19.519C2.2583 19.519 2.66113 19.3604 3.16162 19.0674L15.6006 11.7554C16.4673 11.2427 16.8335 10.6323 16.8335 9.93652C16.8335 9.22852 16.4673 8.63037 15.6006 8.11768L3.16162 0.793457C2.66113 0.500488 2.2583 0.341797 1.75781 0.341797C0.793457 0.341797 0 1.07422 0 2.44141L0 17.4316C0 18.7988 0.793457 19.519 1.75781 19.519Z" fill="#5ac8f5"/>
 </g>
</svg>
