<?xml version="1.0" encoding="UTF-8"?>
<!--Generator: Apple Native CoreSVG 175.5-->
<!DOCTYPE svg
PUBLIC "-//W3C//DTD SVG 1.1//EN"
       "http://www.w3.org/Graphics/SVG/1.1/DTD/svg11.dtd">
<svg version="1.1" xmlns="http://www.w3.org/2000/svg" xmlns:xlink="http://www.w3.org/1999/xlink" width="24.9023" height="24.9146">
 <g>
  <rect height="24.9146" opacity="0" width="24.9023" x="0" y="0"/>
  <path d="M12.4512 24.9023C19.2627 24.9023 24.9023 19.2505 24.9023 12.4512C24.9023 5.63965 19.2505 0 12.439 0C5.63965 0 0 5.63965 0 12.4512C0 19.2505 5.65186 24.9023 12.4512 24.9023ZM12.4512 22.8271C6.68945 22.8271 2.0874 18.2129 2.0874 12.4512C2.0874 6.68945 6.67725 2.0752 12.439 2.0752C18.2007 2.0752 22.8271 6.68945 22.8271 12.4512C22.8271 18.2129 18.2129 22.8271 12.4512 22.8271Z" fill="#5ac8f5" fill-opacity="0.5"/>
  <path d="M9.47266 9.15527L18.6279 9.15527C19.043 9.15527 19.3726 8.83789 19.3726 8.42285C19.3726 7.99561 19.043 7.67822 18.6279 7.67822L9.47266 7.67822C9.05762 7.67822 8.74023 8.00781 8.74023 8.42285C8.74023 8.82568 9.06982 9.15527 9.47266 9.15527ZM9.47266 17.2363L18.6279 17.2363C19.043 17.2363 19.3726 16.9189 19.3726 16.5039C19.3726 16.0767 19.043 15.7593 18.6279 15.7593L9.47266 15.7593C9.06982 15.7593 8.74023 16.1011 8.74023 16.5039C8.74023 16.9189 9.05762 17.2363 9.47266 17.2363ZM9.47266 13.1958L18.6279 13.1958C19.043 13.1958 19.3726 12.8784 19.3726 12.4634C19.3726 12.0361 19.043 11.7188 18.6279 11.7188L9.47266 11.7188C9.06982 11.7188 8.74023 12.0605 8.74023 12.4634C8.74023 12.8662 9.06982 13.1958 9.47266 13.1958ZM6.53076 9.47266C7.10449 9.47266 7.58057 8.98438 7.58057 8.42285C7.58057 7.83691 7.1167 7.37305 6.53076 7.37305C5.94482 7.37305 5.48096 7.83691 5.48096 8.42285C5.48096 8.99658 5.94482 9.47266 6.53076 9.47266ZM6.53076 13.5132C7.10449 13.5132 7.58057 13.0249 7.58057 12.4634C7.58057 11.8896 7.10449 11.4136 6.53076 11.4136C5.94482 11.4136 5.48096 11.8774 5.48096 12.4634C5.48096 13.0371 5.94482 13.5132 6.53076 13.5132ZM6.53076 17.5537C7.1167 17.5537 7.58057 17.0776 7.58057 16.5039C7.58057 15.9302 7.10449 15.4541 6.53076 15.4541C5.94482 15.4541 5.48096 15.918 5.48096 16.5039C5.48096 17.0776 5.94482 17.5537 6.53076 17.5537Z" fill="#5ac8f5"/>
 </g>
</svg>
