<?xml version="1.0" encoding="UTF-8"?>
<!--Generator: Apple Native CoreSVG 175.5-->
<!DOCTYPE svg
PUBLIC "-//W3C//DTD SVG 1.1//EN"
       "http://www.w3.org/Graphics/SVG/1.1/DTD/svg11.dtd">
<svg version="1.1" xmlns="http://www.w3.org/2000/svg" xmlns:xlink="http://www.w3.org/1999/xlink" width="24.9023" height="24.9146">
 <g>
  <rect height="24.9146" opacity="0" width="24.9023" x="0" y="0"/>
  <path d="M12.4512 24.9023C19.2627 24.9023 24.9023 19.2505 24.9023 12.4512C24.9023 5.63965 19.2505 0 12.439 0C5.63965 0 0 5.63965 0 12.4512C0 19.2505 5.65186 24.9023 12.4512 24.9023ZM9.92432 17.8589C9.42383 17.8589 9.16748 17.4927 9.16748 17.0044L9.16748 15.5273L5.49316 15.5273C4.8584 15.5273 4.41895 15.1245 4.41895 14.4531C4.41895 14.1113 4.49219 13.8306 4.69971 13.4399C5.54199 11.9141 6.79932 9.76562 7.86133 7.99561C8.26416 7.2998 8.71582 7.01904 9.44824 7.01904C10.1807 7.01904 10.6934 7.49512 10.6934 8.22754L10.6934 14.1113L11.377 14.1113C11.8042 14.1113 12.085 14.3799 12.085 14.8315C12.085 15.271 11.8042 15.5273 11.377 15.5273L10.6934 15.5273L10.6934 17.0044C10.6934 17.5049 10.4248 17.8589 9.92432 17.8589ZM9.16748 14.1113L9.16748 8.72803L9.09424 8.72803C8.09326 10.437 6.81152 12.6343 6.06689 14.0625L6.06689 14.1113ZM16.9189 17.8833C14.7583 17.8833 13.3179 15.8081 13.3179 12.4512C13.3179 9.09424 14.7583 7.01904 16.9189 7.01904C19.0918 7.01904 20.52 9.09424 20.52 12.4512C20.52 15.8081 19.0918 17.8833 16.9189 17.8833ZM16.9189 16.3452C18.1274 16.3452 18.8599 14.8682 18.8599 12.4512C18.8599 10.0342 18.1152 8.55713 16.9189 8.55713C15.7227 8.55713 14.978 10.0342 14.978 12.4512C14.978 14.8682 15.7227 16.3452 16.9189 16.3452Z" fill="#5ac8f5"/>
 </g>
</svg>
