<?xml version="1.0" encoding="UTF-8"?>
<!--Generator: Apple Native CoreSVG 175.5-->
<!DOCTYPE svg
PUBLIC "-//W3C//DTD SVG 1.1//EN"
       "http://www.w3.org/Graphics/SVG/1.1/DTD/svg11.dtd">
<svg version="1.1" xmlns="http://www.w3.org/2000/svg" xmlns:xlink="http://www.w3.org/1999/xlink" width="28.2715" height="31.5308">
 <g>
  <rect height="31.5308" opacity="0" width="28.2715" x="0" y="0"/>
  <path d="M14.1357 31.5186C20.3003 31.5186 22.9248 30.1636 22.9248 26.8433L22.9248 5.65186C22.9248 2.0874 19.6899 0 14.1357 0C8.59375 0 5.34668 2.0874 5.34668 5.65186L5.34668 26.8433C5.34668 30.1636 7.9834 31.5186 14.1357 31.5186ZM14.1357 13.0005C12.9395 13.0005 11.1084 13.0859 10.4736 13.0859C9.52148 13.0859 9.11865 12.7197 9.021 11.7432L8.82568 9.375C8.65479 7.55615 9.93652 6.82373 14.1357 6.82373C18.3472 6.82373 19.6289 7.55615 19.458 9.375L19.2505 11.7432C19.165 12.7197 18.75 13.0859 17.8101 13.0859C17.1631 13.0859 15.271 13.0005 14.1357 13.0005ZM14.1357 26.4404C9.8999 26.4404 8.60596 25.8057 8.87451 23.9502L9.0332 22.8027C9.24072 21.3013 10.498 20.7886 14.1357 20.7886C17.7856 20.7886 19.043 21.3013 19.2505 22.8027L19.4092 23.9502C19.6777 25.8057 18.3838 26.4404 14.1357 26.4404ZM22.0093 8.5083L22.0093 11.377L26.5259 15.8936C26.9409 16.2964 27.5757 16.2842 27.9785 15.8936C28.3691 15.4907 28.3691 14.8438 27.9785 14.4409ZM6.26221 17.7368L0.292969 23.6694C-0.0976562 24.0601-0.0976562 24.7192 0.292969 25.1221C0.695801 25.5127 1.34277 25.5249 1.74561 25.1221L6.26221 20.6055ZM22.0093 17.7368L22.0093 20.6055L26.5259 25.1221C26.9409 25.5249 27.5757 25.5127 27.9785 25.1221C28.3691 24.7192 28.3691 24.0601 27.9785 23.6694Z" fill="#5ac8f5"/>
 </g>
</svg>
