<?xml version="1.0" encoding="UTF-8"?>
<!--Generator: Apple Native CoreSVG 175.5-->
<!DOCTYPE svg
PUBLIC "-//W3C//DTD SVG 1.1//EN"
       "http://www.w3.org/Graphics/SVG/1.1/DTD/svg11.dtd">
<svg version="1.1" xmlns="http://www.w3.org/2000/svg" xmlns:xlink="http://www.w3.org/1999/xlink" width="24.9023" height="24.9146">
 <g>
  <rect height="24.9146" opacity="0" width="24.9023" x="0" y="0"/>
  <path d="M12.4512 24.9023C19.2627 24.9023 24.9023 19.2505 24.9023 12.4512C24.9023 5.63965 19.2505 0 12.439 0C5.63965 0 0 5.63965 0 12.4512C0 19.2505 5.65186 24.9023 12.4512 24.9023ZM7.65381 14.7827C7.65381 14.5142 7.71484 14.2456 7.86133 13.9893C9.21631 11.6211 10.437 9.46045 11.7676 7.10449C12.0117 6.68945 12.2803 6.49414 12.6831 6.49414C13.2568 6.49414 13.562 6.92139 13.562 7.42188C13.562 7.61719 13.501 7.8125 13.4033 8.02002C12.2314 10.1685 11.145 12.0483 10.0098 14.1602L13.501 14.1602L13.501 11.4502C13.501 10.7788 13.8428 10.3882 14.4043 10.3882C15.0146 10.3882 15.3564 10.7666 15.3564 11.4502L15.3564 14.1602L16.1987 14.1602C16.748 14.1602 17.1021 14.4775 17.1021 14.9658C17.1021 15.4907 16.748 15.8325 16.1987 15.8325L15.3564 15.8325L15.3564 17.1265C15.3564 17.8101 15.0146 18.1885 14.4043 18.1885C13.8428 18.1885 13.501 17.7979 13.501 17.1265L13.501 15.8325L8.76465 15.8325C8.06885 15.8325 7.65381 15.4175 7.65381 14.7827Z" fill="#5ac8f5"/>
 </g>
</svg>
