<?xml version="1.0" encoding="UTF-8"?>
<!--Generator: Apple Native CoreSVG 175.5-->
<!DOCTYPE svg
PUBLIC "-//W3C//DTD SVG 1.1//EN"
       "http://www.w3.org/Graphics/SVG/1.1/DTD/svg11.dtd">
<svg version="1.1" xmlns="http://www.w3.org/2000/svg" xmlns:xlink="http://www.w3.org/1999/xlink" width="25.4028" height="29.7974">
 <g>
  <rect height="29.7974" opacity="0" width="25.4028" x="0" y="0"/>
  <path d="M1.40381 23.2788L23.999 23.2788L23.999 6.51855C23.999 5.0293 23.1323 4.15039 21.5088 3.95508C19.1406 3.66211 15.8325 3.50342 12.6953 3.50342C9.55811 3.50342 6.25 3.66211 3.86963 3.95508C2.2583 4.15039 1.40381 5.0293 1.40381 6.51855ZM3.89404 15.4053L3.89404 9.31396C3.89404 8.00781 4.91943 6.97021 6.25 6.97021C7.55615 6.97021 8.59375 8.00781 8.59375 9.31396L8.59375 15.4053C8.59375 15.7837 8.3374 16.04 7.93457 16.04L4.55322 16.04C4.15039 16.04 3.89404 15.7837 3.89404 15.4053ZM10.0586 15.4053L10.0586 8.95996C10.0586 7.38525 11.1084 6.33545 12.6953 6.33545C14.2822 6.33545 15.332 7.38525 15.332 8.95996L15.332 15.4053C15.332 15.7837 15.0879 16.04 14.6729 16.04L10.7056 16.04C10.3027 16.04 10.0586 15.7837 10.0586 15.4053ZM16.7847 15.4053L16.7847 9.31396C16.7847 8.00781 17.8223 6.97021 19.1528 6.97021C20.459 6.97021 21.4966 8.00781 21.4966 9.31396L21.4966 15.4053C21.4966 15.7837 21.2402 16.04 20.8374 16.04L17.4561 16.04C17.0532 16.04 16.7847 15.7837 16.7847 15.4053ZM12.6953 21.8628C11.5601 21.8628 10.73 21.0327 10.73 19.9219C10.73 18.7866 11.5601 17.9077 12.6953 17.9077C13.8062 17.9077 14.6851 18.7866 14.6851 19.9219C14.6851 21.0327 13.8062 21.8628 12.6953 21.8628ZM0 24.0601C0 24.5972 0.439453 25.0488 0.976562 25.0488L24.4263 25.0488C24.9634 25.0488 25.4028 24.5972 25.4028 24.0601C25.4028 23.5229 24.9634 23.0835 24.4263 23.0835L0.976562 23.0835C0.439453 23.0835 0 23.5229 0 24.0601ZM4.82178 1.35498C4.82178 1.9043 5.28564 2.4292 5.85938 2.35596C7.67822 2.13623 10.1929 2.03857 12.6953 2.03857C15.1978 2.03857 17.7246 2.13623 19.5435 2.35596C20.105 2.4292 20.5688 1.9043 20.5688 1.35498C20.5688 0.805664 20.1294 0.402832 19.5435 0.32959C17.7002 0.109863 15.1611 0 12.6953 0C10.2417 0 7.70264 0.109863 5.84717 0.32959C5.27344 0.402832 4.82178 0.805664 4.82178 1.35498ZM6.21338 1.0376L6.21338 4.38232L7.8125 4.38232L7.8125 1.0376ZM17.5903 1.0376L17.5903 4.38232L19.1895 4.38232L19.1895 1.0376ZM4.06494 29.7729L4.74854 29.7729C5.07812 29.7729 5.27344 29.6631 5.45654 29.3701L8.92334 23.7671L6.5918 23.7671L3.51562 28.7109C3.19824 29.2236 3.49121 29.7729 4.06494 29.7729ZM20.2271 29.7729L20.9106 29.7729C21.4722 29.7729 21.7651 29.2236 21.4478 28.7109L18.3716 23.7671L16.04 23.7671L19.5068 29.3701C19.6899 29.6631 19.8853 29.7729 20.2271 29.7729Z" fill="#5ac8f5"/>
 </g>
</svg>
