<?xml version="1.0" encoding="UTF-8"?>
<!--Generator: Apple Native CoreSVG 175.5-->
<!DOCTYPE svg
PUBLIC "-//W3C//DTD SVG 1.1//EN"
       "http://www.w3.org/Graphics/SVG/1.1/DTD/svg11.dtd">
<svg version="1.1" xmlns="http://www.w3.org/2000/svg" xmlns:xlink="http://www.w3.org/1999/xlink" width="22.4731" height="22.4976">
 <g>
  <rect height="22.4976" opacity="0" width="22.4731" x="0" y="0"/>
  <path d="M3.83301 22.4976L18.6401 22.4976C21.2036 22.4976 22.4731 21.228 22.4731 18.7134L22.4731 3.80859C22.4731 1.29395 21.2036 0.0244141 18.6401 0.0244141L3.83301 0.0244141C1.28174 0.0244141 0 1.28174 0 3.80859L0 18.7134C0 21.2402 1.28174 22.4976 3.83301 22.4976ZM3.85742 20.5322C2.63672 20.5322 1.96533 19.8853 1.96533 18.6157L1.96533 3.90625C1.96533 2.63672 2.63672 1.98975 3.85742 1.98975L18.6157 1.98975C19.8242 1.98975 20.5078 2.63672 20.5078 3.90625L20.5078 18.6157C20.5078 19.8853 19.8242 20.5322 18.6157 20.5322Z" fill="#5ac8f5" fill-opacity="0.5"/>
  <path d="M7.05566 16.5039C9.13086 16.5039 10.5713 15.2588 10.5713 13.501C10.5713 12.207 9.68018 11.1572 8.44727 11.0352L8.44727 10.9619C9.44824 10.791 10.2417 9.77783 10.2417 8.63037C10.2417 7.06787 8.95996 5.98145 7.14111 5.98145C5.48096 5.98145 4.26025 6.92139 3.94287 8.11768C3.91846 8.27637 3.91846 8.39844 3.91846 8.55713C3.91846 8.99658 4.18701 9.30176 4.61426 9.30176C4.98047 9.30176 5.17578 9.10645 5.28564 8.71582C5.5542 7.86133 6.15234 7.38525 7.10449 7.38525C8.06885 7.38525 8.74023 7.97119 8.74023 8.82568C8.74023 9.7168 8.06885 10.3638 7.09229 10.3638L6.43311 10.3638C6.03027 10.3638 5.76172 10.6445 5.76172 11.084C5.76172 11.4746 6.03027 11.7798 6.43311 11.7798L7.15332 11.7798C8.31299 11.7798 9.05762 12.439 9.05762 13.4277C9.05762 14.3799 8.23975 15.1001 7.06787 15.1001C6.10352 15.1001 5.44434 14.624 5.11475 13.7695C4.96826 13.3789 4.76074 13.1836 4.41895 13.1836C4.00391 13.1836 3.71094 13.4888 3.71094 13.916C3.71094 14.0869 3.73535 14.209 3.77197 14.3677C4.08936 15.4907 5.39551 16.5039 7.05566 16.5039ZM17.1143 16.4795C17.6147 16.4795 17.8589 16.1377 17.8589 15.6616L17.8589 14.2212L18.5303 14.2212C18.9453 14.2212 19.2139 13.9771 19.2139 13.5498C19.2139 13.1104 18.9453 12.854 18.5303 12.854L17.8589 12.854L17.8589 7.14111C17.8589 6.43311 17.3706 5.98145 16.6626 5.98145C15.9546 5.98145 15.5151 6.25 15.1245 6.92139C14.0991 8.63037 12.8662 10.73 12.0483 12.207C11.853 12.5854 11.7798 12.854 11.7798 13.1836C11.7798 13.8306 12.207 14.2212 12.8296 14.2212L16.3818 14.2212L16.3818 15.6616C16.3818 16.1255 16.6382 16.4795 17.1143 16.4795ZM16.3818 12.854L13.3789 12.854L13.3789 12.8052C14.0869 11.4258 15.3442 9.27734 16.3208 7.62939L16.3818 7.62939Z" fill="#5ac8f5"/>
 </g>
</svg>
