<?xml version="1.0" encoding="UTF-8"?>
<!--Generator: Apple Native CoreSVG 175.5-->
<!DOCTYPE svg
PUBLIC "-//W3C//DTD SVG 1.1//EN"
       "http://www.w3.org/Graphics/SVG/1.1/DTD/svg11.dtd">
<svg version="1.1" xmlns="http://www.w3.org/2000/svg" xmlns:xlink="http://www.w3.org/1999/xlink" width="26.3306" height="25.8179">
 <g>
  <rect height="25.8179" opacity="0" width="26.3306" x="0" y="0"/>
  <path d="M0.854492 1.84326L25.4761 1.84326C25.9766 1.84326 26.3306 1.45264 26.3306 0.915527C26.3306 0.378418 25.9766 0 25.4761 0L0.854492 0C0.341797 0 0 0.378418 0 0.915527C0 1.45264 0.341797 1.84326 0.854492 1.84326ZM2.33154 11.7065L5.09033 11.7065C6.64062 11.7065 7.42188 10.9253 7.42188 9.31396L7.42188 6.66504C7.42188 5.05371 6.64062 4.28467 5.09033 4.28467L2.33154 4.28467C0.78125 4.28467 0 5.05371 0 6.66504L0 9.31396C0 10.9253 0.78125 11.7065 2.33154 11.7065ZM2.35596 9.98535C1.92871 9.98535 1.72119 9.76562 1.72119 9.31396L1.72119 6.65283C1.72119 6.22559 1.92871 6.00586 2.35596 6.00586L5.05371 6.00586C5.48096 6.00586 5.70068 6.22559 5.70068 6.65283L5.70068 9.31396C5.70068 9.76562 5.48096 9.98535 5.05371 9.98535ZM11.7798 11.7065L14.5386 11.7065C16.0889 11.7065 16.8701 10.9253 16.8701 9.31396L16.8701 6.66504C16.8701 5.05371 16.0889 4.28467 14.5386 4.28467L11.7798 4.28467C10.2295 4.28467 9.44824 5.05371 9.44824 6.66504L9.44824 9.31396C9.44824 10.9253 10.2295 11.7065 11.7798 11.7065ZM11.8042 9.98535C11.377 9.98535 11.1694 9.76562 11.1694 9.31396L11.1694 6.65283C11.1694 6.22559 11.377 6.00586 11.8042 6.00586L14.5142 6.00586C14.9414 6.00586 15.1489 6.22559 15.1489 6.65283L15.1489 9.31396C15.1489 9.76562 14.9414 9.98535 14.5142 9.98535ZM21.228 11.7065L23.9746 11.7065C25.5249 11.7065 26.3062 10.9253 26.3062 9.31396L26.3062 6.66504C26.3062 5.05371 25.5249 4.28467 23.9746 4.28467L21.228 4.28467C19.6655 4.28467 18.8843 5.05371 18.8843 6.66504L18.8843 9.31396C18.8843 10.9253 19.6655 11.7065 21.228 11.7065ZM21.2402 9.98535C20.813 9.98535 20.6055 9.76562 20.6055 9.31396L20.6055 6.65283C20.6055 6.22559 20.813 6.00586 21.2402 6.00586L23.9502 6.00586C24.3774 6.00586 24.585 6.22559 24.585 6.65283L24.585 9.31396C24.585 9.76562 24.3774 9.98535 23.9502 9.98535ZM0.854492 15.8569L25.4761 15.8569C25.9766 15.8569 26.3306 15.4785 26.3306 14.9414C26.3306 14.4043 25.9766 14.0137 25.4761 14.0137L0.854492 14.0137C0.341797 14.0137 0 14.4043 0 14.9414C0 15.4785 0.341797 15.8569 0.854492 15.8569ZM2.34375 25.7202L5.10254 25.7202C6.65283 25.7202 7.43408 24.9512 7.43408 23.3398L7.43408 20.6787C7.43408 19.0674 6.65283 18.2983 5.10254 18.2983L2.34375 18.2983C0.793457 18.2983 0.012207 19.0674 0.012207 20.6787L0.012207 23.3398C0.012207 24.9512 0.793457 25.7202 2.34375 25.7202ZM2.36816 23.999C1.94092 23.999 1.7334 23.7793 1.7334 23.3398L1.7334 20.6909C1.7334 20.2393 1.94092 20.0195 2.36816 20.0195L5.06592 20.0195C5.49316 20.0195 5.71289 20.2393 5.71289 20.6909L5.71289 23.3398C5.71289 23.7793 5.49316 23.999 5.06592 23.999ZM11.792 25.7202L14.5508 25.7202C16.1011 25.7202 16.8823 24.9512 16.8823 23.3398L16.8823 20.6787C16.8823 19.0674 16.1011 18.2983 14.5508 18.2983L11.792 18.2983C10.2417 18.2983 9.46045 19.0674 9.46045 20.6787L9.46045 23.3398C9.46045 24.9512 10.2417 25.7202 11.792 25.7202ZM11.8286 23.999C11.3892 23.999 11.1816 23.7793 11.1816 23.3398L11.1816 20.6909C11.1816 20.2393 11.3892 20.0195 11.8286 20.0195L14.5264 20.0195C14.9536 20.0195 15.1611 20.2393 15.1611 20.6909L15.1611 23.3398C15.1611 23.7793 14.9536 23.999 14.5264 23.999ZM21.2402 25.7202L23.9868 25.7202C25.5493 25.7202 26.3306 24.9512 26.3306 23.3398L26.3306 20.6787C26.3306 19.0674 25.5493 18.2983 23.9868 18.2983L21.2402 18.2983C19.6899 18.2983 18.9087 19.0674 18.9087 20.6787L18.9087 23.3398C18.9087 24.9512 19.6899 25.7202 21.2402 25.7202ZM21.2524 23.999C20.8374 23.999 20.6299 23.7793 20.6299 23.3398L20.6299 20.6909C20.6299 20.2393 20.8374 20.0195 21.2524 20.0195L23.9624 20.0195C24.4019 20.0195 24.6094 20.2393 24.6094 20.6909L24.6094 23.3398C24.6094 23.7793 24.4019 23.999 23.9624 23.999Z" fill="#5ac8f5"/>
 </g>
</svg>
