<?xml version="1.0" encoding="UTF-8"?>
<!--Generator: Apple Native CoreSVG 175.5-->
<!DOCTYPE svg
PUBLIC "-//W3C//DTD SVG 1.1//EN"
       "http://www.w3.org/Graphics/SVG/1.1/DTD/svg11.dtd">
<svg version="1.1" xmlns="http://www.w3.org/2000/svg" xmlns:xlink="http://www.w3.org/1999/xlink" width="29.6875" height="29.6997">
 <g>
  <rect height="29.6997" opacity="0" width="29.6875" x="0" y="0"/>
  <path d="M14.8438 26.4038C21.1914 26.4038 26.3672 21.2158 26.3672 14.856C26.3672 8.49609 21.1914 3.30811 14.8438 3.30811C8.49609 3.30811 3.32031 8.49609 3.32031 14.856C3.32031 21.2158 8.49609 26.4038 14.8438 26.4038ZM14.8438 24.4141C9.5459 24.4141 5.37109 20.2026 5.37109 14.856C5.37109 9.50928 9.5459 5.29785 14.8438 5.29785C20.1416 5.29785 24.3164 9.50928 24.3164 14.856C24.3164 20.2026 20.1416 24.4141 14.8438 24.4141ZM14.8438 29.6997C15.332 29.6997 15.7104 29.3091 15.7104 28.8208L15.7104 20.5566C15.7104 20.0684 15.332 19.6899 14.8438 19.6899C14.3555 19.6899 13.9648 20.0684 13.9648 20.5566L13.9648 28.8208C13.9648 29.3091 14.3555 29.6997 14.8438 29.6997ZM0.878906 15.7349L9.14307 15.7349C9.63135 15.7349 10.022 15.3442 10.022 14.856C10.022 14.3677 9.63135 13.9893 9.14307 13.9893L0.878906 13.9893C0.390625 13.9893 0 14.3677 0 14.856C0 15.3442 0.390625 15.7349 0.878906 15.7349ZM14.8438 10.0342C15.332 10.0342 15.7104 9.64355 15.7104 9.15527L15.7104 0.891113C15.7104 0.402832 15.332 0.012207 14.8438 0.012207C14.3555 0.012207 13.9648 0.402832 13.9648 0.891113L13.9648 9.15527C13.9648 9.64355 14.3555 10.0342 14.8438 10.0342ZM20.5444 15.7349L28.8086 15.7349C29.2969 15.7349 29.6875 15.3442 29.6875 14.856C29.6875 14.3677 29.2969 13.9893 28.8086 13.9893L20.5444 13.9893C20.0562 13.9893 19.6655 14.3677 19.6655 14.856C19.6655 15.3442 20.0562 15.7349 20.5444 15.7349Z" fill="#5ac8f5"/>
 </g>
</svg>
