<?xml version="1.0" encoding="UTF-8"?>
<!--Generator: Apple Native CoreSVG 175.5-->
<!DOCTYPE svg
PUBLIC "-//W3C//DTD SVG 1.1//EN"
       "http://www.w3.org/Graphics/SVG/1.1/DTD/svg11.dtd">
<svg version="1.1" xmlns="http://www.w3.org/2000/svg" xmlns:xlink="http://www.w3.org/1999/xlink" width="10.9009" height="12.9761">
 <g>
  <rect height="12.9761" opacity="0" width="10.9009" x="0" y="0"/>
  <path d="M1.01318 12.9761C1.51367 12.9761 1.84326 12.7197 2.03857 12.1216L3.05176 9.13086L7.82471 9.13086L8.83789 12.1216C9.0332 12.7441 9.36279 12.9761 9.87549 12.9761C10.4858 12.9761 10.9009 12.5977 10.9009 12.0483C10.9009 11.8042 10.8398 11.5723 10.7422 11.3159L6.9458 1.23291C6.66504 0.488281 6.15234 0.0976562 5.43213 0.0976562C4.72412 0.0976562 4.21143 0.463867 3.93066 1.23291L0.134277 11.3159C0.0366211 11.5479 0 11.792 0 12.0483C0 12.6099 0.390625 12.9761 1.01318 12.9761ZM3.58887 7.54395L5.29785 2.45361L5.57861 2.45361L7.2876 7.54395Z" fill="#5ac8f5"/>
 </g>
</svg>
