<?xml version="1.0" encoding="UTF-8"?>
<!--Generator: Apple Native CoreSVG 175.5-->
<!DOCTYPE svg
PUBLIC "-//W3C//DTD SVG 1.1//EN"
       "http://www.w3.org/Graphics/SVG/1.1/DTD/svg11.dtd">
<svg version="1.1" xmlns="http://www.w3.org/2000/svg" xmlns:xlink="http://www.w3.org/1999/xlink" width="43.2983" height="31.5766">
 <g>
  <rect height="31.5766" opacity="0" width="43.2983" x="0" y="0"/>
  <path d="M25.769 26.2802C26.1719 25.6577 25.8789 25.0229 25.1221 25.0229L19.043 25.0229C18.2861 25.0229 17.981 25.6577 18.3838 26.2802L21.3501 31.1142C21.7407 31.7368 22.4365 31.7246 22.8149 31.1142ZM9.70459 25.267C11.5356 25.267 12.9761 23.8266 12.9761 22.0078C12.9761 20.1889 11.5234 18.7363 9.70459 18.7363C7.89795 18.7363 6.44531 20.1889 6.44531 22.0078C6.44531 23.8144 7.89795 25.267 9.70459 25.267ZM34.2407 25.267C36.0596 25.267 37.5122 23.8144 37.5122 22.0078C37.5122 20.1889 36.0596 18.7363 34.2407 18.7363C32.4463 18.7363 30.9814 20.2011 30.9814 22.0078C30.9814 23.8144 32.4341 25.267 34.2407 25.267ZM41.7725 9.51997L41.2231 8.71431C39.8193 6.67573 38.0981 5.85786 35.2661 5.85786L25.7324 5.85786C20.7031 5.85786 18.689 6.34614 15.6982 8.21382L10.7788 11.3022L6.22559 11.8637C2.06299 12.3764 0 14.2807 0 17.6254L0 19.725C0 21.7148 1.17188 22.9111 3.11279 22.9111L5.10254 22.9111C5.05371 22.6181 5.01709 22.3251 5.01709 22.0078C5.01709 19.4077 7.1167 17.3203 9.70459 17.3203C12.3047 17.3203 14.3921 19.4077 14.3921 22.0078C14.3921 22.3251 14.3677 22.6181 14.3066 22.9111L29.6387 22.9111C29.5898 22.6181 29.5532 22.3251 29.5532 22.0078C29.5532 19.4199 31.665 17.3203 34.2407 17.3203C36.8408 17.3203 38.9282 19.4077 38.9282 22.0078C38.9282 22.3251 38.9038 22.6181 38.8428 22.9111L40.1978 22.9111C42.334 22.9111 43.2983 21.8125 43.2983 19.3955L43.2983 14.1831C43.2983 12.6572 42.7368 10.9116 41.7725 9.51997Z" fill="#5ac8f5"/>
 </g>
</svg>
