<?xml version="1.0" encoding="UTF-8"?>
<!--Generator: Apple Native CoreSVG 175.5-->
<!DOCTYPE svg
PUBLIC "-//W3C//DTD SVG 1.1//EN"
       "http://www.w3.org/Graphics/SVG/1.1/DTD/svg11.dtd">
<svg version="1.1" xmlns="http://www.w3.org/2000/svg" xmlns:xlink="http://www.w3.org/1999/xlink" width="20.5322" height="26.1841">
 <g>
  <rect height="26.1841" opacity="0" width="20.5322" x="0" y="0"/>
  <path d="M3.78418 26.1841L16.748 26.1841C19.2749 26.1841 20.5322 24.9146 20.5322 22.3633L20.5322 3.84521C20.5322 1.30615 19.2627 0.012207 16.748 0.012207L8.59375 0.012207C7.49512 0.012207 6.79932 0.280762 6.09131 1.00098L0.90332 6.17676C0.219727 6.87256 0 7.4707 0 8.6792L0 22.3633C0 24.9023 1.25732 26.1841 3.78418 26.1841ZM3.88184 24.2188C2.6123 24.2188 1.96533 23.5474 1.96533 22.3267L1.96533 8.82568C1.96533 8.03223 2.09961 7.6416 2.52686 7.21436L7.06787 2.62451C7.50732 2.16064 7.97119 1.97754 8.66699 1.97754L16.6504 1.97754C17.9199 1.97754 18.5669 2.67334 18.5669 3.88184L18.5669 22.3267C18.5669 23.5474 17.9199 24.2188 16.6626 24.2188ZM7.50732 5.0293L7.50732 8.87451C7.50732 9.31396 7.86133 9.65576 8.28857 9.65576C8.71582 9.65576 9.04541 9.31396 9.04541 8.87451L9.04541 5.0293C9.04541 4.57764 8.71582 4.24805 8.28857 4.24805C7.86133 4.24805 7.50732 4.58984 7.50732 5.0293ZM10.0098 5.0293L10.0098 8.87451C10.0098 9.31396 10.3638 9.65576 10.8032 9.65576C11.2183 9.65576 11.5601 9.31396 11.5601 8.87451L11.5601 5.0293C11.5601 4.58984 11.2305 4.24805 10.8032 4.24805C10.3516 4.24805 10.0098 4.58984 10.0098 5.0293ZM12.5366 5.0293L12.5366 8.87451C12.5366 9.31396 12.8784 9.65576 13.2935 9.65576C13.7207 9.65576 14.0625 9.30176 14.0625 8.87451L14.0625 5.0293C14.0625 4.57764 13.7329 4.24805 13.2935 4.24805C12.8662 4.24805 12.5366 4.58984 12.5366 5.0293ZM15.0513 5.0293L15.0513 8.8623C15.0513 9.31396 15.3931 9.65576 15.8081 9.65576C16.2354 9.65576 16.5771 9.31396 16.5771 8.8623L16.5771 5.0293C16.5771 4.57764 16.2354 4.24805 15.8081 4.24805C15.3809 4.24805 15.0513 4.58984 15.0513 5.0293Z" fill="#5ac8f5"/>
 </g>
</svg>
