<?xml version="1.0" encoding="UTF-8"?>
<!--Generator: Apple Native CoreSVG 175.5-->
<!DOCTYPE svg
PUBLIC "-//W3C//DTD SVG 1.1//EN"
       "http://www.w3.org/Graphics/SVG/1.1/DTD/svg11.dtd">
<svg version="1.1" xmlns="http://www.w3.org/2000/svg" xmlns:xlink="http://www.w3.org/1999/xlink" width="18.0197" height="30.9692">
 <g>
  <rect height="30.9692" opacity="0" width="18.0197" x="0" y="0"/>
  <path d="M10.0699 5.33447C11.5348 5.33447 12.7188 4.13818 12.7188 2.64893C12.7188 1.18408 11.5348 0 10.0699 0C8.58066 0 7.38437 1.18408 7.38437 2.64893C7.38437 4.13818 8.58066 5.33447 10.0699 5.33447ZM12.9264 12.4634C13.4269 12.9883 14.3912 12.9517 14.8307 12.2559L17.797 7.49512C18.7125 6.03027 16.5641 4.8584 15.7218 6.20117L13.5733 9.66797L11.8888 7.97119C10.2652 6.35986 8.49521 6.03027 6.02939 6.31104L1.68369 6.79932C1.12217 6.86035 0.682713 7.31201 0.621678 7.84912L0.0113263 12.6465C-0.183986 14.1846 2.20859 14.5874 2.41611 12.9395L2.90439 9.10645L5.1749 8.8501C5.49228 8.82568 5.71201 9.0332 5.66318 9.38721L5.08945 14.0869C4.80869 16.3086 6.09043 17.5903 8.28769 17.4316L12.7799 17.1143L11.4371 22.0093C10.9854 23.6572 13.3658 24.231 13.7931 22.6318L15.5631 16.1133C15.7828 15.2832 15.2213 14.5752 14.2936 14.5752L9.65488 14.5752L10.2408 10.5713C10.3019 10.1807 10.6559 10.1685 10.8756 10.4126ZM6.29795 18.3594L6.00498 22.7051L3.71006 28.4424C3.30722 29.4678 4.03965 30.1758 4.79648 30.1758C5.27256 30.1758 5.74863 29.9194 5.99277 29.3091L8.33652 23.4253C8.36094 23.3398 8.39756 23.2422 8.40976 23.1567L9.09336 18.5669L8.37314 18.6157C7.6041 18.6646 6.89609 18.5669 6.29795 18.3594Z" fill="#5ac8f5"/>
 </g>
</svg>
