<?xml version="1.0" encoding="UTF-8"?>
<!--Generator: Apple Native CoreSVG 175.5-->
<!DOCTYPE svg
PUBLIC "-//W3C//DTD SVG 1.1//EN"
       "http://www.w3.org/Graphics/SVG/1.1/DTD/svg11.dtd">
<svg version="1.1" xmlns="http://www.w3.org/2000/svg" xmlns:xlink="http://www.w3.org/1999/xlink" width="24.9023" height="24.9146">
 <g>
  <rect height="24.9146" opacity="0" width="24.9023" x="0" y="0"/>
  <path d="M12.4512 24.9023C19.2627 24.9023 24.9023 19.2505 24.9023 12.4512C24.9023 5.63965 19.2505 0 12.439 0C5.63965 0 0 5.63965 0 12.4512C0 19.2505 5.65186 24.9023 12.4512 24.9023ZM12.4512 22.8271C6.68945 22.8271 2.0874 18.2129 2.0874 12.4512C2.0874 6.68945 6.67725 2.0752 12.439 2.0752C18.2007 2.0752 22.8271 6.68945 22.8271 12.4512C22.8271 18.2129 18.2129 22.8271 12.4512 22.8271Z" fill="#5ac8f5" fill-opacity="0.5"/>
  <path d="M8.94775 17.5659C9.41162 17.5659 9.7168 17.2607 9.7168 16.7847L9.7168 8.14209C9.7168 7.62939 9.375 7.26318 8.8623 7.26318C8.45947 7.26318 8.22754 7.38525 7.78809 7.67822L5.93262 8.94775C5.67627 9.13086 5.52979 9.35059 5.52979 9.66797C5.52979 10.083 5.87158 10.4004 6.22559 10.4004C6.4209 10.4004 6.54297 10.3882 6.82373 10.1685L8.11768 9.2041L8.19092 9.2041L8.19092 16.7847C8.19092 17.2607 8.49609 17.5659 8.94775 17.5659ZM15.5762 17.7124C17.7002 17.7124 19.1528 16.4917 19.1528 14.7217C19.1528 13.4766 18.3838 12.4634 17.0776 12.1948L17.0776 12.1216C18.2007 11.8164 18.7866 10.9375 18.7866 9.87549C18.7866 8.28857 17.4683 7.18994 15.6006 7.18994C13.7329 7.18994 12.4146 8.28857 12.4146 9.87549C12.4146 10.9375 12.9883 11.792 14.1235 12.1216L14.1235 12.1948C12.8052 12.4634 12.0483 13.4888 12.0483 14.7339C12.0483 16.5161 13.4644 17.7124 15.5762 17.7124ZM15.6128 16.4429C14.4531 16.4429 13.6108 15.6982 13.6108 14.624C13.6108 13.5742 14.4531 12.8052 15.6128 12.8052C16.7847 12.8052 17.6025 13.562 17.6025 14.624C17.6025 15.6982 16.7603 16.4429 15.6128 16.4429ZM15.6006 11.6333C14.6484 11.6333 13.9648 10.9497 13.9648 10.022C13.9648 9.09424 14.6484 8.45947 15.6006 8.45947C16.5649 8.45947 17.2363 9.09424 17.2363 10.022C17.2363 10.9497 16.5527 11.6333 15.6006 11.6333Z" fill="#5ac8f5"/>
 </g>
</svg>
