<?xml version="1.0" encoding="UTF-8"?>
<!--Generator: Apple Native CoreSVG 175.5-->
<!DOCTYPE svg
PUBLIC "-//W3C//DTD SVG 1.1//EN"
       "http://www.w3.org/Graphics/SVG/1.1/DTD/svg11.dtd">
<svg version="1.1" xmlns="http://www.w3.org/2000/svg" xmlns:xlink="http://www.w3.org/1999/xlink" width="24.9023" height="24.9146">
 <g>
  <rect height="24.9146" opacity="0" width="24.9023" x="0" y="0"/>
  <path d="M12.4512 24.9023C19.2627 24.9023 24.9023 19.2505 24.9023 12.4512C24.9023 5.63965 19.2505 0 12.439 0C5.63965 0 0 5.63965 0 12.4512C0 19.2505 5.65186 24.9023 12.4512 24.9023Z" fill="#5ac8f5" fill-opacity="0.25"/>
  <path d="M9.81445 17.7246C9.35059 17.7246 9.0332 17.4072 9.0332 16.9189L9.0332 9.10645L8.95996 9.10645L7.61719 10.1074C7.32422 10.3271 7.21436 10.3394 7.00684 10.3394C6.64062 10.3394 6.27441 10.0098 6.27441 9.58252C6.27441 9.25293 6.44531 9.0332 6.70166 8.83789L8.61816 7.53174C9.05762 7.22656 9.31396 7.10449 9.729 7.10449C10.2417 7.10449 10.6079 7.48291 10.6079 8.00781L10.6079 16.9189C10.6079 17.4072 10.2905 17.7246 9.81445 17.7246ZM16.4185 17.7246C15.9424 17.7246 15.625 17.4072 15.625 16.9189L15.625 9.10645L15.5518 9.10645L14.2334 10.1074C13.9404 10.3271 13.8062 10.3394 13.6108 10.3394C13.2446 10.3394 12.8906 10.0098 12.8906 9.58252C12.8906 9.25293 13.0371 9.0332 13.3057 8.83789L15.21 7.53174C15.6616 7.22656 15.9058 7.10449 16.3208 7.10449C16.8579 7.10449 17.2119 7.48291 17.2119 8.00781L17.2119 16.9189C17.2119 17.4072 16.8945 17.7246 16.4185 17.7246Z" fill="#5ac8f5"/>
 </g>
</svg>
