<?xml version="1.0" encoding="UTF-8"?>
<!--Generator: Apple Native CoreSVG 175.5-->
<!DOCTYPE svg
PUBLIC "-//W3C//DTD SVG 1.1//EN"
       "http://www.w3.org/Graphics/SVG/1.1/DTD/svg11.dtd">
<svg version="1.1" xmlns="http://www.w3.org/2000/svg" xmlns:xlink="http://www.w3.org/1999/xlink" width="24.9023" height="24.9146">
 <g>
  <rect height="24.9146" opacity="0" width="24.9023" x="0" y="0"/>
  <path d="M12.4512 24.9023C19.2627 24.9023 24.9023 19.2505 24.9023 12.4512C24.9023 5.63965 19.2505 0 12.439 0C5.63965 0 0 5.63965 0 12.4512C0 19.2505 5.65186 24.9023 12.4512 24.9023ZM12.4512 22.8271C6.68945 22.8271 2.0874 18.2129 2.0874 12.4512C2.0874 6.68945 6.67725 2.0752 12.439 2.0752C18.2007 2.0752 22.8149 6.68945 22.8271 12.4512C22.8394 18.2129 18.2129 22.8271 12.4512 22.8271ZM12.4512 20.1904C16.687 20.1904 20.1904 16.6748 20.1904 12.4512C20.1904 8.21533 16.6748 4.69971 12.4512 4.69971C8.21533 4.69971 4.71191 8.21533 4.71191 12.4512C4.71191 16.6748 8.22754 20.1904 12.4512 20.1904ZM12.4512 18.2251C9.31396 18.2251 6.67725 15.5884 6.67725 12.4512C6.67725 9.28955 9.30176 6.66504 12.4512 6.66504C15.5884 6.66504 18.2251 9.30176 18.2251 12.4512C18.2251 15.6006 15.6006 18.2251 12.4512 18.2251ZM12.4634 15.6128C14.1968 15.6128 15.625 14.1968 15.625 12.439C15.625 10.7056 14.1968 9.28955 12.4634 9.28955C10.7178 9.28955 9.28955 10.7056 9.28955 12.439C9.28955 14.1968 10.7178 15.6128 12.4634 15.6128Z" fill="#5ac8f5"/>
 </g>
</svg>
