<?xml version="1.0" encoding="UTF-8"?>
<!--Generator: Apple Native CoreSVG 175.5-->
<!DOCTYPE svg
PUBLIC "-//W3C//DTD SVG 1.1//EN"
       "http://www.w3.org/Graphics/SVG/1.1/DTD/svg11.dtd">
<svg version="1.1" xmlns="http://www.w3.org/2000/svg" xmlns:xlink="http://www.w3.org/1999/xlink" width="26.9043" height="27.2583">
 <g>
  <rect height="27.2583" opacity="0" width="26.9043" x="0" y="0"/>
  <path d="M13.4277 0C12.8784 0 12.3657 0.231934 11.8774 1.07422L9.61914 4.84619L5.59082 4.84619C1.95312 4.84619 0 6.84814 0 10.437L0 19.7876C0 23.3765 1.95312 25.3784 5.59082 25.3784L21.3135 25.3784C24.9512 25.3784 26.9043 23.3643 26.9043 19.7876L26.9043 10.437C26.9043 6.86035 24.9512 4.84619 21.3135 4.84619L17.2363 4.84619L14.978 1.07422C14.4897 0.231934 13.9771 0 13.4277 0ZM13.4277 2.00195L15.4663 5.82275C15.8691 6.61621 16.1621 6.81152 17.0288 6.81152L21.3135 6.81152C23.7671 6.81152 24.939 8.05664 24.939 10.437L24.939 19.7754C24.939 22.1558 23.7671 23.4131 21.3135 23.4131L5.59082 23.4131C3.125 23.4131 1.96533 22.1558 1.96533 19.7754L1.96533 10.437C1.96533 8.05664 3.125 6.81152 5.59082 6.81152L9.82666 6.81152C10.6934 6.81152 10.9863 6.61621 11.3892 5.82275Z" fill="#5ac8f5"/>
 </g>
</svg>
