<?xml version="1.0" encoding="UTF-8"?>
<!--Generator: Apple Native CoreSVG 175.5-->
<!DOCTYPE svg
PUBLIC "-//W3C//DTD SVG 1.1//EN"
       "http://www.w3.org/Graphics/SVG/1.1/DTD/svg11.dtd">
<svg version="1.1" xmlns="http://www.w3.org/2000/svg" xmlns:xlink="http://www.w3.org/1999/xlink" width="30.5207" height="23.7183">
 <g>
  <rect height="23.7183" opacity="0" width="30.5207" x="0" y="0"/>
  <path d="M7.32576 3.83301L7.32576 19.8853C7.32576 22.4487 8.59529 23.7183 11.1099 23.7183L19.4107 23.7183C21.9132 23.7183 23.1827 22.4487 23.1827 19.8853L23.1827 3.83301C23.1827 1.26953 21.9254 0 19.4107 0L11.1099 0C8.59529 0 7.32576 1.26953 7.32576 3.83301ZM9.29109 3.85742C9.29109 2.63672 9.95027 1.96533 11.2198 1.96533L19.3009 1.96533C20.5704 1.96533 21.2174 2.63672 21.2174 3.85742L21.2174 19.8608C21.2174 21.0571 20.5704 21.7529 19.3009 21.7529L11.2198 21.7529C9.95027 21.7529 9.29109 21.0571 9.29109 19.8608ZM26.6617 15.0024L30.0675 12.7441C30.6778 12.3291 30.6656 11.4502 30.0675 11.0474L26.6617 8.74023C25.8804 8.20312 25.0626 8.49609 25.0626 9.44824L25.0626 14.3188C25.0626 15.2344 25.9171 15.5029 26.6617 15.0024ZM3.85896 15.0024C4.60359 15.5029 5.45808 15.2344 5.45808 14.3188L5.45808 9.44824C5.45808 8.49609 4.64021 8.20312 3.85896 8.74023L0.453198 11.0474C-0.144947 11.4502-0.157154 12.3291 0.453198 12.7441Z" fill="#5ac8f5"/>
 </g>
</svg>
