<?xml version="1.0" encoding="UTF-8"?>
<!--Generator: Apple Native CoreSVG 175.5-->
<!DOCTYPE svg
PUBLIC "-//W3C//DTD SVG 1.1//EN"
       "http://www.w3.org/Graphics/SVG/1.1/DTD/svg11.dtd">
<svg version="1.1" xmlns="http://www.w3.org/2000/svg" xmlns:xlink="http://www.w3.org/1999/xlink" width="24.9023" height="24.9146">
 <g>
  <rect height="24.9146" opacity="0" width="24.9023" x="0" y="0"/>
  <path d="M12.4512 24.9146C19.2627 24.9146 24.9023 19.2749 24.9023 12.4634C24.9023 5.66406 19.2505 0.012207 12.439 0.012207C5.63965 0.012207 0 5.66406 0 12.4634C0 19.2749 5.65186 24.9146 12.4512 24.9146ZM9.70459 20.4102C8.48389 20.4102 7.65381 19.6167 7.65381 18.4204L7.65381 6.50635C7.65381 5.29785 8.48389 4.5166 9.70459 4.5166L15.21 4.5166C16.4429 4.5166 17.2729 5.29785 17.2729 6.50635L17.2729 18.4204C17.2729 19.6167 16.4429 20.4102 15.21 20.4102ZM9.86328 19.1772L15.0635 19.1772C15.6982 19.1772 16.0522 18.8354 16.0522 18.2373L16.0522 6.68945C16.0522 6.09131 15.6982 5.74951 15.0635 5.74951L9.86328 5.74951C9.22852 5.74951 8.87451 6.09131 8.87451 6.68945L8.87451 18.2373C8.87451 18.8354 9.22852 19.1772 9.86328 19.1772ZM10.8887 18.6279C10.6812 18.6279 10.5225 18.4814 10.5225 18.2739C10.5225 18.042 10.6812 17.8955 10.8887 17.8955L14.0381 17.8955C14.2456 17.8955 14.4043 18.042 14.4043 18.2739C14.4043 18.4814 14.2456 18.6279 14.0381 18.6279ZM11.5479 7.43408C11.2427 7.43408 10.9985 7.20215 10.9985 6.89697C10.9985 6.604 11.2427 6.35986 11.5479 6.35986L13.3667 6.35986C13.6719 6.35986 13.916 6.604 13.916 6.89697C13.916 7.20215 13.6719 7.43408 13.3667 7.43408Z" fill="#5ac8f5"/>
 </g>
</svg>
