<?xml version="1.0" encoding="UTF-8"?>
<!--Generator: Apple Native CoreSVG 175.5-->
<!DOCTYPE svg
PUBLIC "-//W3C//DTD SVG 1.1//EN"
       "http://www.w3.org/Graphics/SVG/1.1/DTD/svg11.dtd">
<svg version="1.1" xmlns="http://www.w3.org/2000/svg" xmlns:xlink="http://www.w3.org/1999/xlink" width="24.9023" height="24.9146">
 <g>
  <rect height="24.9146" opacity="0" width="24.9023" x="0" y="0"/>
  <path d="M12.4512 24.9146C19.2627 24.9146 24.9023 19.2749 24.9023 12.4634C24.9023 5.66406 19.2505 0.012207 12.439 0.012207C5.63965 0.012207 0 5.66406 0 12.4634C0 19.2749 5.65186 24.9146 12.4512 24.9146Z" fill="#5ac8f5" fill-opacity="0.25"/>
  <path d="M5.27344 17.9199L5.27344 8.08105C5.27344 7.62939 5.54199 7.38525 6.01807 7.38525L7.10449 7.38525C7.56836 7.38525 7.82471 7.62939 7.82471 8.08105L7.82471 17.9199C7.82471 18.3716 7.56836 18.6279 7.10449 18.6279L6.01807 18.6279C5.54199 18.6279 5.27344 18.3716 5.27344 17.9199ZM8.66699 17.9199L8.66699 10.0708C8.66699 9.63135 8.93555 9.35059 9.38721 9.35059L11.7432 9.35059C12.2192 9.35059 12.4512 9.63135 12.4512 10.0708L12.4512 17.9199C12.4512 18.3716 12.2192 18.6279 11.7432 18.6279L9.38721 18.6279C8.93555 18.6279 8.66699 18.3716 8.66699 17.9199ZM9.57031 16.9189C9.57031 17.1387 9.729 17.3096 9.93652 17.3096L11.2061 17.3096C11.4258 17.3096 11.5845 17.1387 11.5845 16.9189C11.5845 16.7114 11.4258 16.5405 11.2061 16.5405L9.93652 16.5405C9.7168 16.5405 9.57031 16.6992 9.57031 16.9189ZM9.57031 11.084C9.57031 11.2793 9.7168 11.4624 9.93652 11.4624L11.2061 11.4624C11.4258 11.4624 11.5845 11.2671 11.5845 11.084C11.5845 10.8643 11.4258 10.7056 11.2061 10.7056L9.93652 10.7056C9.729 10.7056 9.57031 10.8643 9.57031 11.084ZM13.3179 17.9199L13.3179 6.48193C13.3179 6.01807 13.5498 5.76172 14.0259 5.76172L15.4541 5.76172C15.918 5.76172 16.1743 6.01807 16.1743 6.48193L16.1743 7.72705L17.1387 7.48291C17.5903 7.37305 17.8833 7.60498 17.9688 8.05664L19.9463 17.5537C20.0195 18.0054 19.8242 18.3105 19.3726 18.4082L18.457 18.6279C18.0176 18.7378 17.7124 18.5181 17.627 18.0786L16.1743 11.0474L16.1743 17.9199C16.1743 18.3716 15.918 18.6279 15.4541 18.6279L14.0259 18.6279C13.5498 18.6279 13.3179 18.3716 13.3179 17.9199Z" fill="#5ac8f5"/>
 </g>
</svg>
