<?xml version="1.0" encoding="UTF-8"?>
<!--Generator: Apple Native CoreSVG 175.5-->
<!DOCTYPE svg
PUBLIC "-//W3C//DTD SVG 1.1//EN"
       "http://www.w3.org/Graphics/SVG/1.1/DTD/svg11.dtd">
<svg version="1.1" xmlns="http://www.w3.org/2000/svg" xmlns:xlink="http://www.w3.org/1999/xlink" width="29.4678" height="23.4741">
 <g>
  <rect height="23.4741" opacity="0" width="29.4678" x="0" y="0"/>
  <path d="M13.3179 1.31836L7.03125 0.622559C5.92041 0.500488 5.13916 1.2085 5.13916 2.2583C5.13916 3.32031 5.92041 4.02832 7.03125 3.89404L13.3179 3.21045ZM14.4287 4.5166C15.686 4.5166 16.6992 3.51562 16.6992 2.2583C16.6992 1.01318 15.686 0 14.4287 0C13.1836 0 12.1704 1.01318 12.1704 2.2583C12.1704 3.51562 13.1836 4.5166 14.4287 4.5166ZM15.5396 1.31836L15.5396 3.21045L21.8384 3.89404C22.937 4.02832 23.7183 3.32031 23.7183 2.2583C23.7183 1.2085 22.937 0.500488 21.8384 0.622559ZM13.3545 3.6499L13.3545 6.53076L15.5151 6.53076L15.5151 3.6499ZM16.4062 9.11865L18.0664 9.11865L18.0664 7.2876C18.0664 6.22559 17.3218 5.48096 16.272 5.48096L12.561 5.48096C11.499 5.48096 10.7544 6.22559 10.7544 7.2876L10.7544 9.11865L12.4146 9.11865L12.4146 7.4707C12.4146 7.12891 12.6587 6.89697 12.9883 6.89697L15.8447 6.89697C16.1743 6.89697 16.4062 7.12891 16.4062 7.4707ZM14.4165 21.4111C16.5527 21.4111 17.9077 20.5078 19.3115 19.2139C19.7998 18.75 20.4102 18.4937 20.9595 18.4937C21.9727 18.4937 22.7661 19.2383 22.7661 20.6299L22.7661 22.3389C22.7661 22.998 23.2178 23.4497 23.877 23.4497L28.3447 23.4497C29.0039 23.4497 29.4678 22.998 29.4678 22.3389L29.4678 21.1914C29.4678 14.0259 25.0732 11.5479 21.0449 11.5479L20.52 11.5479C20.3613 11.5479 20.2393 11.4624 20.1904 11.3281L19.4458 9.32617C19.1895 8.60596 18.7988 8.30078 18.1396 8.30078L10.6812 8.30078C10.022 8.30078 9.64355 8.60596 9.375 9.32617L8.64258 11.3281C8.58154 11.4624 8.45947 11.5479 8.31299 11.5479L0.78125 11.5479L0.78125 13.3301L8.43506 13.3301C9.59473 13.3301 9.98535 12.854 10.2905 12.0239L10.9985 10.083L17.8345 10.083L18.5425 12.0239C18.8477 12.854 19.2261 13.3301 20.3979 13.3301L21.0327 13.3301C24.6094 13.3301 27.6978 15.3564 27.6978 21.1914L27.6978 21.6675L24.5483 21.6675L24.5483 20.6299C24.5483 17.4438 22.6318 16.687 21.0693 16.687C19.8486 16.687 18.9331 17.1753 18.0664 18.0054C17.2729 18.7256 16.2598 19.6289 14.4165 19.6289C12.5488 19.6289 11.4624 18.7866 10.5957 17.8223C9.83887 16.9189 9.24072 16.6504 7.99561 16.6504L0.78125 16.6504L0.78125 18.4326L7.89795 18.4326C8.58154 18.4326 8.83789 18.5059 9.28955 19.0186C10.5347 20.3857 12.2803 21.4111 14.4165 21.4111ZM0.976562 21.1426C1.52588 21.1426 1.96533 20.6909 1.96533 20.1538L1.96533 10.1807C1.96533 9.64355 1.52588 9.19189 0.976562 9.19189C0.439453 9.19189 0 9.64355 0 10.1807L0 20.1538C0 20.6909 0.439453 21.1426 0.976562 21.1426Z" fill="#5ac8f5"/>
 </g>
</svg>
