<?xml version="1.0" encoding="UTF-8"?>
<!--Generator: Apple Native CoreSVG 175.5-->
<!DOCTYPE svg
PUBLIC "-//W3C//DTD SVG 1.1//EN"
       "http://www.w3.org/Graphics/SVG/1.1/DTD/svg11.dtd">
<svg version="1.1" xmlns="http://www.w3.org/2000/svg" xmlns:xlink="http://www.w3.org/1999/xlink" width="24.9539" height="29.3335">
 <g>
  <rect height="29.3335" opacity="0" width="24.9539" x="0" y="0"/>
  <path d="M2.71136 24.4873L22.2304 24.4873C24.2446 24.4873 25.2944 23.2788 24.8549 21.4478L21.4003 7.43408C20.9609 5.63965 19.8256 4.71191 18.0678 4.71191L6.88616 4.71191C5.11614 4.71191 3.98089 5.63965 3.54144 7.43408L0.0990538 21.4478C-0.340399 23.2788 0.709405 24.4873 2.71136 24.4873ZM12.4892 29.1992C11.9155 29.1992 11.5615 28.8208 11.5615 28.2227L11.5615 0.976562C11.5615 0.366211 11.9155 0 12.4892 0C13.0507 0 13.4047 0.366211 13.4047 0.976562L13.4047 28.2227C13.4047 28.8208 13.0507 29.1992 12.4892 29.1992Z" fill="#5ac8f5"/>
 </g>
</svg>
