<?xml version="1.0" encoding="UTF-8"?>
<!--Generator: Apple Native CoreSVG 175.5-->
<!DOCTYPE svg
PUBLIC "-//W3C//DTD SVG 1.1//EN"
       "http://www.w3.org/Graphics/SVG/1.1/DTD/svg11.dtd">
<svg version="1.1" xmlns="http://www.w3.org/2000/svg" xmlns:xlink="http://www.w3.org/1999/xlink" width="24.5605" height="24.7437">
 <g>
  <rect height="24.7437" opacity="0" width="24.5605" x="0" y="0"/>
  <path d="M19.1772 16.5771C12.4512 16.5771 8.27637 12.5244 8.27637 6.01807C8.27637 4.1626 8.58154 2.52686 9.0332 1.64795C9.21631 1.29395 9.25293 1.12305 9.25293 0.878906C9.25293 0.476074 8.87451 0 8.36182 0C8.26416 0 8.03223 0.0366211 7.69043 0.170898C3.17383 2.00195 0 6.7627 0 11.8896C0 19.2993 5.3833 24.6948 12.793 24.6948C18.103 24.6948 22.4121 21.9116 24.3896 17.3462C24.5361 17.0288 24.5605 16.7603 24.5605 16.626C24.5605 16.1255 24.1333 15.7837 23.7549 15.7837C23.5596 15.7837 23.4131 15.7959 23.1201 15.9058C22.1313 16.3086 20.6421 16.5771 19.1772 16.5771ZM1.9165 11.8042C1.9165 8.00781 3.89404 4.39453 7.05566 2.40479C6.66504 3.54004 6.45752 4.79736 6.45752 6.18896C6.45752 13.8184 11.1084 18.3594 18.8965 18.3594C20.1538 18.3594 21.2158 18.2129 22.229 17.8589C20.3735 20.9229 16.7969 22.7905 12.8662 22.7905C6.53076 22.7905 1.9165 18.1763 1.9165 11.8042Z" fill="#5ac8f5"/>
 </g>
</svg>
