<?xml version="1.0" encoding="UTF-8"?>
<!--Generator: Apple Native CoreSVG 175.5-->
<!DOCTYPE svg
PUBLIC "-//W3C//DTD SVG 1.1//EN"
       "http://www.w3.org/Graphics/SVG/1.1/DTD/svg11.dtd">
<svg version="1.1" xmlns="http://www.w3.org/2000/svg" xmlns:xlink="http://www.w3.org/1999/xlink" width="19.4336" height="26.0376">
 <g>
  <rect height="26.0376" opacity="0" width="19.4336" x="0" y="0"/>
  <path d="M0 23.8159C0 25.1709 0.78125 26.0376 2.02637 26.0376L17.4194 26.0376C18.6523 26.0376 19.4336 25.1709 19.4336 23.8159L19.4336 2.23389C19.4336 0.878906 18.6523 0.012207 17.4194 0.012207L2.02637 0.012207C0.78125 0.012207 0 0.878906 0 2.23389ZM1.96533 23.3643L1.96533 2.68555C1.96533 2.19727 2.18506 1.97754 2.67334 1.97754L16.7725 1.97754C17.2485 1.97754 17.4683 2.19727 17.4683 2.68555L17.4683 23.3643C17.4683 23.8403 17.2485 24.0723 16.7725 24.0723L2.67334 24.0723C2.18506 24.0723 1.96533 23.8403 1.96533 23.3643ZM5.46875 25L7.06787 25L7.06787 20.9229C7.06787 20.6665 7.20215 20.5322 7.4585 20.5322L11.9751 20.5322C12.2437 20.5322 12.3657 20.6665 12.3657 20.9229L12.3657 25L13.9648 25L13.9648 20.4712C13.9648 19.4214 13.501 18.9331 12.5 18.9331L6.93359 18.9331C5.93262 18.9331 5.46875 19.4214 5.46875 20.4712ZM5.66406 7.31201L8.04443 7.31201C8.3374 7.31201 8.54492 7.1167 8.54492 6.81152L8.54492 4.50439C8.54492 4.21143 8.3374 4.00391 8.04443 4.00391L5.66406 4.00391C5.37109 4.00391 5.18799 4.21143 5.18799 4.50439L5.18799 6.81152C5.18799 7.1167 5.37109 7.31201 5.66406 7.31201ZM11.3892 7.31201L13.7573 7.31201C14.0503 7.31201 14.2578 7.1167 14.2578 6.81152L14.2578 4.50439C14.2578 4.21143 14.0503 4.00391 13.7573 4.00391L11.3892 4.00391C11.084 4.00391 10.9009 4.21143 10.9009 4.50439L10.9009 6.81152C10.9009 7.1167 11.084 7.31201 11.3892 7.31201ZM5.66406 12.146L8.04443 12.146C8.3374 12.146 8.54492 11.9507 8.54492 11.6455L8.54492 9.33838C8.54492 9.04541 8.3374 8.83789 8.04443 8.83789L5.66406 8.83789C5.37109 8.83789 5.18799 9.04541 5.18799 9.33838L5.18799 11.6455C5.18799 11.9507 5.37109 12.146 5.66406 12.146ZM11.3892 12.146L13.7573 12.146C14.0503 12.146 14.2578 11.9507 14.2578 11.6455L14.2578 9.33838C14.2578 9.04541 14.0503 8.83789 13.7573 8.83789L11.3892 8.83789C11.084 8.83789 10.9009 9.04541 10.9009 9.33838L10.9009 11.6455C10.9009 11.9507 11.084 12.146 11.3892 12.146ZM5.66406 16.98L8.04443 16.98C8.3374 16.98 8.54492 16.7725 8.54492 16.4795L8.54492 14.1724C8.54492 13.8672 8.3374 13.6719 8.04443 13.6719L5.66406 13.6719C5.37109 13.6719 5.18799 13.8672 5.18799 14.1724L5.18799 16.4795C5.18799 16.7725 5.37109 16.98 5.66406 16.98ZM11.3892 16.98L13.7573 16.98C14.0503 16.98 14.2578 16.7725 14.2578 16.4795L14.2578 14.1724C14.2578 13.8672 14.0503 13.6719 13.7573 13.6719L11.3892 13.6719C11.084 13.6719 10.9009 13.8672 10.9009 14.1724L10.9009 16.4795C10.9009 16.7725 11.084 16.98 11.3892 16.98Z" fill="#5ac8f5"/>
 </g>
</svg>
