<?xml version="1.0" encoding="UTF-8"?>
<!--Generator: Apple Native CoreSVG 175.5-->
<!DOCTYPE svg
PUBLIC "-//W3C//DTD SVG 1.1//EN"
       "http://www.w3.org/Graphics/SVG/1.1/DTD/svg11.dtd">
<svg version="1.1" xmlns="http://www.w3.org/2000/svg" xmlns:xlink="http://www.w3.org/1999/xlink" width="24.5239" height="24.4019">
 <g>
  <rect height="24.4019" opacity="0" width="24.5239" x="0" y="0"/>
  <path d="M7.78809 17.6758L16.8701 17.6758C17.4927 17.6758 17.7979 17.3828 17.7979 16.7358L17.7979 7.67822C17.7979 7.04346 17.4927 6.75049 16.8701 6.75049L7.78809 6.75049C7.16553 6.75049 6.86035 7.04346 6.86035 7.67822L6.86035 16.7358C6.86035 17.3828 7.16553 17.6758 7.78809 17.6758ZM8.75244 16.0767C8.58154 16.0767 8.45947 15.9546 8.45947 15.7837L8.45947 8.64258C8.45947 8.45947 8.58154 8.34961 8.75244 8.34961L15.8936 8.34961C16.0767 8.34961 16.1987 8.45947 16.1987 8.64258L16.1987 15.7837C16.1987 15.9546 16.0767 16.0767 15.8936 16.0767ZM3.25928 22.2534L21.3989 22.2534C21.9849 22.2534 22.3755 21.875 22.3755 21.2891L22.3755 3.13721C22.3755 2.55127 21.9849 2.16064 21.3989 2.16064L3.25928 2.16064C2.66113 2.16064 2.28271 2.55127 2.28271 3.13721L2.28271 21.2891C2.28271 21.875 2.66113 22.2534 3.25928 22.2534ZM4.60205 20.2881C4.3457 20.2881 4.24805 20.2026 4.24805 19.9341L4.24805 4.49219C4.24805 4.22363 4.3457 4.12598 4.60205 4.12598L20.0562 4.12598C20.3125 4.12598 20.4102 4.22363 20.4102 4.49219L20.4102 19.9341C20.4102 20.2026 20.3125 20.2881 20.0562 20.2881ZM9.26514 20.6055L7.2998 20.6055L7.2998 23.4253C7.2998 24.0112 7.69043 24.4019 8.27637 24.4019C8.8623 24.4019 9.26514 24.0112 9.26514 23.4253ZM13.3057 20.6055L11.3403 20.6055L11.3403 23.4253C11.3403 24.0112 11.7432 24.4019 12.3291 24.4019C12.915 24.4019 13.3057 24.0112 13.3057 23.4253ZM17.395 20.6055L15.4297 20.6055L15.4297 23.4253C15.4297 24.0112 15.8203 24.4019 16.4062 24.4019C16.9922 24.4019 17.395 24.0112 17.395 23.4253ZM20.7153 15.2588L20.7153 17.2241L23.5352 17.2241C24.1211 17.2241 24.5239 16.8213 24.5239 16.2354C24.5239 15.6494 24.1211 15.2588 23.5352 15.2588ZM20.7153 11.2061L20.7153 13.1714L23.5352 13.1714C24.1211 13.1714 24.5239 12.7808 24.5239 12.1948C24.5239 11.6089 24.1211 11.2061 23.5352 11.2061ZM20.7153 7.16553L20.7153 9.13086L23.5352 9.13086C24.1211 9.13086 24.5239 8.72803 24.5239 8.14209C24.5239 7.55615 24.1211 7.16553 23.5352 7.16553ZM15.3931 3.8208L17.3584 3.8208L17.3584 1.00098C17.3584 0.415039 16.9556 0.0244141 16.3696 0.0244141C15.7837 0.0244141 15.3931 0.415039 15.3931 1.00098ZM11.3403 3.8208L13.3057 3.8208L13.3057 1.00098C13.3057 0.415039 12.915 0.0244141 12.3291 0.0244141C11.7432 0.0244141 11.3403 0.415039 11.3403 1.00098ZM7.2998 3.8208L9.26514 3.8208L9.26514 1.00098C9.26514 0.415039 8.8623 0.0244141 8.27637 0.0244141C7.69043 0.0244141 7.2998 0.415039 7.2998 1.00098ZM3.93066 9.14307L3.93066 7.17773L0.976562 7.17773C0.390625 7.17773 0 7.56836 0 8.1543C0 8.74023 0.390625 9.14307 0.976562 9.14307ZM3.93066 13.1836L3.93066 11.2183L0.976562 11.2183C0.390625 11.2183 0 11.6211 0 12.207C0 12.793 0.390625 13.1836 0.976562 13.1836ZM3.93066 17.2363L3.93066 15.271L0.976562 15.271C0.390625 15.271 0 15.6616 0 16.2476C0 16.8335 0.390625 17.2363 0.976562 17.2363Z" fill="#5ac8f5"/>
 </g>
</svg>
