<?xml version="1.0" encoding="UTF-8"?>
<!--Generator: Apple Native CoreSVG 175.5-->
<!DOCTYPE svg
PUBLIC "-//W3C//DTD SVG 1.1//EN"
       "http://www.w3.org/Graphics/SVG/1.1/DTD/svg11.dtd">
<svg version="1.1" xmlns="http://www.w3.org/2000/svg" xmlns:xlink="http://www.w3.org/1999/xlink" width="29.4556" height="23.9868">
 <g>
  <rect height="23.9868" opacity="0" width="29.4556" x="0" y="0"/>
  <path d="M3.6377 23.9868L25.8179 23.9868C28.2349 23.9868 29.4556 22.7539 29.4556 20.3857L29.4556 3.61328C29.4556 1.24512 28.2349 0.012207 25.8179 0.012207L3.6377 0.012207C1.23291 0.012207 0 1.24512 0 3.61328L0 20.3857C0 22.7539 1.23291 23.9868 3.6377 23.9868ZM3.6499 22.0215C2.57568 22.0215 1.96533 21.4111 1.96533 20.2881L1.96533 3.71094C1.96533 2.58789 2.57568 1.97754 3.6499 1.97754L25.8057 1.97754C26.8799 1.97754 27.4902 2.58789 27.4902 3.71094L27.4902 20.2881C27.4902 21.4111 26.8799 22.0215 25.8057 22.0215ZM7.86133 11.0718C9.87549 11.0718 11.5234 9.42383 11.5234 7.40967C11.5234 5.39551 9.87549 3.74756 7.86133 3.74756C5.84717 3.74756 4.19922 5.39551 4.19922 7.40967C4.19922 9.42383 5.84717 11.0718 7.86133 11.0718ZM7.86133 9.91211C6.48193 9.91211 5.37109 8.78906 5.37109 7.40967C5.37109 6.03027 6.48193 4.90723 7.86133 4.90723C9.24072 4.90723 10.3638 6.03027 10.3638 7.40967C10.3638 8.78906 9.24072 9.91211 7.86133 9.91211ZM7.86133 9.33838C8.94775 9.33838 9.77783 8.49609 9.77783 7.40967C9.77783 6.32324 8.94775 5.49316 7.86133 5.49316C6.78711 5.49316 5.94482 6.32324 5.94482 7.40967C5.94482 8.49609 6.78711 9.33838 7.86133 9.33838ZM17.3218 11.0718C19.3359 11.0718 20.9717 9.42383 20.9717 7.40967C20.9717 5.39551 19.3359 3.74756 17.3218 3.74756C15.2954 3.74756 13.6597 5.39551 13.6597 7.40967C13.6597 9.42383 15.2954 11.0718 17.3218 11.0718ZM17.3218 9.91211C15.9424 9.91211 14.8193 8.78906 14.8193 7.40967C14.8193 6.03027 15.9424 4.90723 17.3218 4.90723C18.7012 4.90723 19.812 6.03027 19.812 7.40967C19.812 8.78906 18.7012 9.91211 17.3218 9.91211ZM17.3218 9.33838C18.396 9.33838 19.2383 8.49609 19.2383 7.40967C19.2383 6.32324 18.396 5.49316 17.3218 5.49316C16.2354 5.49316 15.3931 6.32324 15.3931 7.40967C15.3931 8.49609 16.2354 9.33838 17.3218 9.33838ZM7.86133 20.2148C9.87549 20.2148 11.5234 18.5791 11.5234 16.5527C11.5234 14.5386 9.87549 12.9028 7.86133 12.9028C5.84717 12.9028 4.19922 14.5386 4.19922 16.5527C4.19922 18.5791 5.84717 20.2148 7.86133 20.2148ZM7.86133 19.0552C6.48193 19.0552 5.37109 17.9443 5.37109 16.5527C5.37109 15.1733 6.48193 14.0625 7.86133 14.0625C9.24072 14.0625 10.3638 15.1733 10.3638 16.5527C10.3638 17.9443 9.24072 19.0552 7.86133 19.0552ZM7.86133 18.4814C8.94775 18.4814 9.77783 17.6392 9.77783 16.5527C9.77783 15.4785 8.94775 14.6362 7.86133 14.6362C6.78711 14.6362 5.94482 15.4785 5.94482 16.5527C5.94482 17.6392 6.78711 18.4814 7.86133 18.4814ZM17.3218 20.2148C19.3359 20.2148 20.9717 18.5791 20.9717 16.5527C20.9717 14.5386 19.3359 12.9028 17.3218 12.9028C15.2954 12.9028 13.6597 14.5386 13.6597 16.5527C13.6597 18.5791 15.2954 20.2148 17.3218 20.2148ZM17.3218 19.0552C15.9424 19.0552 14.8193 17.9443 14.8193 16.5527C14.8193 15.1733 15.9424 14.0625 17.3218 14.0625C18.7012 14.0625 19.812 15.1733 19.812 16.5527C19.812 17.9443 18.7012 19.0552 17.3218 19.0552ZM17.3218 18.4814C18.396 18.4814 19.2383 17.6392 19.2383 16.5527C19.2383 15.4785 18.396 14.6362 17.3218 14.6362C16.2354 14.6362 15.3931 15.4785 15.3931 16.5527C15.3931 17.6392 16.2354 18.4814 17.3218 18.4814ZM24.7192 7.80029C25.3174 7.80029 25.7812 7.32422 25.7812 6.72607C25.7812 6.14014 25.3174 5.66406 24.7192 5.66406C24.1211 5.66406 23.645 6.14014 23.645 6.72607C23.645 7.32422 24.1211 7.80029 24.7192 7.80029ZM24.7192 11.3037C25.3174 11.3037 25.7812 10.8398 25.7812 10.2295C25.7812 9.64355 25.3174 9.16748 24.7192 9.16748C24.1211 9.16748 23.645 9.64355 23.645 10.2295C23.645 10.8398 24.1211 11.3037 24.7192 11.3037ZM24.7192 14.8193C25.3174 14.8193 25.7812 14.3433 25.7812 13.7451C25.7812 13.147 25.3174 12.6831 24.7192 12.6831C24.1211 12.6831 23.645 13.147 23.645 13.7451C23.645 14.3433 24.1211 14.8193 24.7192 14.8193ZM24.7192 18.3228C25.3174 18.3228 25.7812 17.8467 25.7812 17.2485C25.7812 16.6626 25.3174 16.1865 24.7192 16.1865C24.1211 16.1865 23.645 16.6626 23.645 17.2485C23.645 17.8467 24.1211 18.3228 24.7192 18.3228Z" fill="#5ac8f5"/>
 </g>
</svg>
