<?xml version="1.0" encoding="UTF-8"?>
<!--Generator: Apple Native CoreSVG 175.5-->
<!DOCTYPE svg
PUBLIC "-//W3C//DTD SVG 1.1//EN"
       "http://www.w3.org/Graphics/SVG/1.1/DTD/svg11.dtd">
<svg version="1.1" xmlns="http://www.w3.org/2000/svg" xmlns:xlink="http://www.w3.org/1999/xlink" width="29.8462" height="25.9155">
 <g>
  <rect height="25.9155" opacity="0" width="29.8462" x="0" y="0"/>
  <path d="M0.976562 25.9033C1.52588 25.9033 1.96533 25.4639 1.96533 24.9268L1.96533 2.6123C1.96533 2.22168 2.22168 1.96533 2.58789 1.96533L27.2583 1.96533C27.6245 1.96533 27.8809 2.22168 27.8809 2.6123L27.8809 24.9268C27.8809 25.4639 28.3203 25.9033 28.8574 25.9033C29.4067 25.9033 29.8462 25.4639 29.8462 24.9268L29.8462 2.49023C29.8462 1.00098 28.8208 0 27.2827 0L2.55127 0C1.02539 0 0 1.00098 0 2.49023L0 24.9268C0 25.4639 0.439453 25.9033 0.976562 25.9033ZM3.39355 24.9878C3.39355 25.2197 3.58887 25.4395 3.8208 25.3906L11.4136 23.6938C11.6455 23.645 11.8408 23.4863 11.8408 23.2422L11.8408 5.11475C11.8408 4.88281 11.6577 4.72412 11.4258 4.67529L3.80859 2.96631C3.58887 2.92969 3.39355 3.13721 3.39355 3.38135ZM9.76562 18.0054C9.93652 17.9932 10.0586 18.0908 10.0586 18.2739L10.0586 22.0093C10.0586 22.1924 9.94873 22.2778 9.79004 22.3145L5.48096 23.1689C5.32227 23.2056 5.2002 23.1201 5.2002 22.9248L5.2002 18.6157C5.2002 18.4326 5.32227 18.3228 5.48096 18.3105ZM5.2002 16.4795L5.2002 11.8896C5.2002 11.6943 5.32227 11.5967 5.48096 11.6089L9.77783 11.8408C9.94873 11.853 10.0586 11.9629 10.0586 12.146L10.0586 16.2231C10.0586 16.4062 9.93652 16.5039 9.77783 16.5161L5.48096 16.7603C5.31006 16.7725 5.2002 16.6626 5.2002 16.4795ZM9.77783 10.3638L5.46875 10.0464C5.31006 10.0342 5.2002 9.96094 5.2002 9.76562L5.2002 5.43213C5.2002 5.23682 5.32227 5.15137 5.48096 5.18799L9.77783 6.00586C9.93652 6.03027 10.0586 6.11572 10.0586 6.31104L10.0586 10.0586C10.0586 10.2417 9.94873 10.376 9.77783 10.3638ZM26.4526 24.9878L26.4526 3.38135C26.4526 3.13721 26.2573 2.92969 26.0376 2.96631L18.4204 4.67529C18.1885 4.72412 18.0054 4.88281 18.0054 5.11475L18.0054 23.2422C18.0054 23.4863 18.1885 23.645 18.4326 23.6938L26.0254 25.3906C26.2573 25.4395 26.4526 25.2197 26.4526 24.9878ZM20.0806 18.0054L24.353 18.3105C24.5239 18.3228 24.646 18.4326 24.646 18.6157L24.646 22.9248C24.646 23.1201 24.5239 23.2056 24.3652 23.1689L20.0562 22.3145C19.8975 22.2778 19.7876 22.1924 19.7876 22.0093L19.7876 18.2739C19.7876 18.0908 19.9097 17.9932 20.0806 18.0054ZM24.646 16.4795C24.646 16.6626 24.5361 16.7725 24.3652 16.7603L20.0684 16.5161C19.8975 16.5039 19.7876 16.4062 19.7876 16.2231L19.7876 12.146C19.7876 11.9629 19.8975 11.853 20.0684 11.8408L24.3652 11.6089C24.5239 11.5967 24.646 11.6943 24.646 11.8896ZM20.0684 10.3638C19.8975 10.376 19.7876 10.2417 19.7876 10.0586L19.7876 6.31104C19.7876 6.11572 19.9097 6.03027 20.0684 6.00586L24.3652 5.18799C24.5117 5.15137 24.646 5.23682 24.646 5.43213L24.646 9.76562C24.646 9.96094 24.5361 10.0342 24.3774 10.0464Z" fill="#5ac8f5"/>
 </g>
</svg>
