<?xml version="1.0" encoding="UTF-8"?>
<!--Generator: Apple Native CoreSVG 175.5-->
<!DOCTYPE svg
PUBLIC "-//W3C//DTD SVG 1.1//EN"
       "http://www.w3.org/Graphics/SVG/1.1/DTD/svg11.dtd">
<svg version="1.1" xmlns="http://www.w3.org/2000/svg" xmlns:xlink="http://www.w3.org/1999/xlink" width="25.9647" height="29.0561">
 <g>
  <rect height="29.0561" opacity="0" width="25.9647" x="0" y="0"/>
  <path d="M1.5397 27.5102C3.57827 29.5488 5.95864 29.5732 7.9606 27.5713C9.43765 26.0942 10.9879 22.6152 12.1354 21.248L14.7355 23.8603C15.6876 24.8247 16.8351 24.8247 17.7628 23.897L19.3375 22.31C20.2653 21.3701 20.2653 20.2593 19.3009 19.2949L9.76724 9.74901C8.80288 8.78465 7.67983 8.77245 6.73989 9.71239L5.16519 11.2993C4.23745 12.227 4.22525 13.3623 5.1896 14.3266L7.80191 16.9267C6.44692 18.0742 2.96792 19.6123 1.49087 21.0893C-0.511083 23.0913-0.498876 25.4839 1.5397 27.5102ZM6.86196 12.3857L7.85073 11.4214C8.16812 11.104 8.50991 11.0918 8.8273 11.4092L17.653 20.2226C17.9582 20.54 17.9582 20.8818 17.6286 21.2114L16.6764 22.1758C16.359 22.5176 15.9928 22.5298 15.6754 22.188L12.758 19.2583C12.3063 18.8066 11.7204 18.8555 11.2077 19.3559C10.2555 20.2959 8.58316 24.312 6.64224 26.2407C5.47036 27.4248 4.05435 27.4248 2.83364 26.2163C1.63735 25.0078 1.62515 23.5796 2.80923 22.4077C4.75015 20.479 8.76626 18.8066 9.7062 17.8545C10.1945 17.3296 10.2555 16.7436 9.80386 16.3042L6.86196 13.3745C6.54458 13.0571 6.54458 12.7031 6.86196 12.3857ZM4.70132 25.8867C5.5314 25.8867 6.20278 25.2031 6.20278 24.373C6.20278 23.543 5.5314 22.8716 4.70132 22.8716C3.87124 22.8716 3.18765 23.543 3.18765 24.373C3.18765 25.2031 3.87124 25.8867 4.70132 25.8867ZM19.1667 20.5034L24.965 14.7051C26.32 13.3501 26.2956 11.7265 24.904 10.3349L15.3214 0.740221C14.0397-0.541518 11.818-0.0410293 11.3664 1.94872C10.2311 6.88036 10.1823 7.46629 8.3146 10.0786L9.71841 11.4824C11.8546 8.687 12.0133 7.31981 13.1852 2.9619C13.3439 2.33934 13.8566 2.18065 14.2716 2.58348L23.4147 11.7143C23.9762 12.2759 23.9762 12.9595 23.4513 13.4844L17.7995 19.1362ZM17.2379 13.5454C17.8849 14.1924 21.4494 12.2148 22.6823 10.6645L19.9967 7.9912C19.7648 10.1518 18.6417 11.7143 17.2746 13.0815C17.1159 13.2402 17.1281 13.4355 17.2379 13.5454Z" fill="#5ac8f5"/>
 </g>
</svg>
