<?xml version="1.0" encoding="UTF-8"?>
<!--Generator: Apple Native CoreSVG 175.5-->
<!DOCTYPE svg
PUBLIC "-//W3C//DTD SVG 1.1//EN"
       "http://www.w3.org/Graphics/SVG/1.1/DTD/svg11.dtd">
<svg version="1.1" xmlns="http://www.w3.org/2000/svg" xmlns:xlink="http://www.w3.org/1999/xlink" width="14.3066" height="22.4731">
 <g>
  <rect height="22.4731" opacity="0" width="14.3066" x="0" y="0"/>
  <path d="M1.98975 22.4487L12.3169 22.4487C13.5498 22.4487 14.3066 21.7529 14.3066 20.4468L14.3066 20.2026C14.3066 17.2607 11.1938 14.1357 9.48486 12.439C8.65479 11.6089 8.71582 10.7544 9.48486 9.98535C11.1938 8.30078 14.3066 5.18799 14.3066 2.22168L14.3066 2.01416C14.3066 0.708008 13.5498 0 12.3169 0L1.98975 0C0.756836 0 0 0.708008 0 2.01416L0 2.22168C0 5.18799 3.125 8.30078 4.82178 9.98535C5.60303 10.7544 5.66406 11.6089 4.82178 12.439C3.125 14.1357 0 17.2607 0 20.2026L0 20.4468C0 21.7529 0.756836 22.4487 1.98975 22.4487Z" fill="#5ac8f5" fill-opacity="0.25"/>
  <path d="M2.92969 20.7886C2.40479 20.7886 2.28271 20.1782 2.63672 19.8486L6.53076 16.1377C6.67725 16.0034 6.73828 15.9424 6.73828 15.7471L6.73828 10.3394C6.73828 9.77783 6.62842 9.49707 6.21338 9.14307C5.39551 8.44727 4.24805 7.44629 3.49121 6.65283C3.17383 6.33545 3.34473 5.94482 3.72314 5.94482L10.5835 5.94482C10.9619 5.94482 11.1328 6.33545 10.8154 6.65283C10.0708 7.44629 8.92334 8.44727 8.09326 9.14307C7.67822 9.49707 7.58057 9.77783 7.58057 10.3394L7.58057 15.7471C7.58057 15.9424 7.62939 16.0034 7.77588 16.1377L11.6699 19.8486C12.0239 20.1782 11.9019 20.7886 11.377 20.7886Z" fill="#5ac8f5"/>
 </g>
</svg>
