<?xml version="1.0" encoding="UTF-8"?>
<!--Generator: Apple Native CoreSVG 175.5-->
<!DOCTYPE svg
PUBLIC "-//W3C//DTD SVG 1.1//EN"
       "http://www.w3.org/Graphics/SVG/1.1/DTD/svg11.dtd">
<svg version="1.1" xmlns="http://www.w3.org/2000/svg" xmlns:xlink="http://www.w3.org/1999/xlink" width="28.8116" height="30.3833">
 <g>
  <rect height="30.3833" opacity="0" width="28.8116" x="0" y="0"/>
  <path d="M7.68738 11.8774L7.68738 26.5381C7.68738 29.0894 8.95691 30.3711 11.4716 30.3711L22.9828 30.3711C24.0448 30.3711 24.8749 30.1147 25.4364 29.6265ZM2.03552 6.22559L2.03552 20.3735C2.03552 22.9248 3.30505 24.2065 5.8197 24.2065L6.01501 24.2065L6.01501 10.7666C6.01501 10.5835 6.01501 10.3882 6.01501 10.2051ZM7.99255 5.39551C8.88367 4.71191 10.0555 4.37012 11.4716 4.37012L21.1151 4.37012L21.1151 3.83301C21.1151 1.28174 19.8578 0 17.3309 0L5.8197 0C4.7699 0 3.95203 0.244141 3.32947 0.744629ZM26.767 24.1821L26.767 9.86328C26.767 7.31201 25.5096 6.03027 22.9828 6.03027L11.4716 6.03027C10.5316 6.03027 9.77478 6.22559 9.20105 6.61621Z" fill="#5ac8f5" fill-opacity="0.5"/>
  <path d="M27.2064 29.3457C27.5726 29.7119 28.183 29.7119 28.537 29.3457C28.9032 28.9673 28.9032 28.3813 28.537 28.0151L1.60828 1.06201C1.24207 0.708008 0.643921 0.695801 0.265503 1.06201C-0.088501 1.42822-0.088501 2.03857 0.265503 2.39258Z" fill="#5ac8f5"/>
 </g>
</svg>
