<?xml version="1.0" encoding="UTF-8"?>
<!--Generator: Apple Native CoreSVG 175.5-->
<!DOCTYPE svg
PUBLIC "-//W3C//DTD SVG 1.1//EN"
       "http://www.w3.org/Graphics/SVG/1.1/DTD/svg11.dtd">
<svg version="1.1" xmlns="http://www.w3.org/2000/svg" xmlns:xlink="http://www.w3.org/1999/xlink" width="24.9023" height="24.9146">
 <g>
  <rect height="24.9146" opacity="0" width="24.9023" x="0" y="0"/>
  <path d="M12.4512 24.9023C19.2627 24.9023 24.9023 19.2505 24.9023 12.4512C24.9023 5.63965 19.2505 0 12.439 0C5.63965 0 0 5.63965 0 12.4512C0 19.2505 5.65186 24.9023 12.4512 24.9023ZM12.4512 22.8271C6.68945 22.8271 2.0874 18.2129 2.0874 12.4512C2.0874 6.68945 6.67725 2.0752 12.439 2.0752C18.2007 2.0752 22.8271 6.68945 22.8271 12.4512C22.8271 18.2129 18.2129 22.8271 12.4512 22.8271ZM4.79736 11.3403L4.79736 12.0972C4.79736 12.5366 5.16357 12.9028 5.60303 12.9028C6.06689 12.9028 6.4209 12.5366 6.4209 12.0972L6.4209 11.4258C6.4209 10.2905 7.22656 9.53369 8.42285 9.53369L13.208 9.53369L13.208 11.0474C13.208 11.4624 13.4766 11.7188 13.8672 11.7188C14.0381 11.7188 14.2212 11.6455 14.3799 11.5356L17.1387 9.24072C17.4805 8.95996 17.4805 8.52051 17.1387 8.23975L14.3799 5.93262C14.2212 5.82275 14.0381 5.74951 13.8672 5.74951C13.4766 5.74951 13.208 6.00586 13.208 6.40869L13.208 7.92236L8.54492 7.92236C6.27441 7.92236 4.79736 9.27734 4.79736 11.3403ZM20.0928 13.5986L20.0928 12.854C20.0928 12.3901 19.751 12.0483 19.2871 12.0483C18.811 12.0483 18.4692 12.3901 18.4692 12.854L18.4692 13.5132C18.4692 14.6606 17.6636 15.4175 16.4673 15.4175L11.6821 15.4175L11.6821 13.9038C11.6821 13.501 11.4258 13.2446 11.0229 13.2446C10.8521 13.2446 10.6689 13.3179 10.5225 13.4277L7.75146 15.7104C7.40967 15.9912 7.39746 16.4551 7.75146 16.7236L10.5225 19.0308C10.6689 19.1406 10.8521 19.2139 11.0229 19.2139C11.4258 19.2139 11.6821 18.9575 11.6821 18.5425L11.6821 17.0288L16.3452 17.0288C18.6157 17.0288 20.0928 15.6738 20.0928 13.5986Z" fill="#5ac8f5"/>
 </g>
</svg>
