<?xml version="1.0" encoding="UTF-8"?>
<!--Generator: Apple Native CoreSVG 175.5-->
<!DOCTYPE svg
PUBLIC "-//W3C//DTD SVG 1.1//EN"
       "http://www.w3.org/Graphics/SVG/1.1/DTD/svg11.dtd">
<svg version="1.1" xmlns="http://www.w3.org/2000/svg" xmlns:xlink="http://www.w3.org/1999/xlink" width="20.5322" height="26.1841">
 <g>
  <rect height="26.1841" opacity="0" width="20.5322" x="0" y="0"/>
  <path d="M3.78418 26.1719L16.748 26.1719C19.2749 26.1719 20.5322 24.8901 20.5322 22.3511L20.5322 11.2671C20.5322 9.69238 20.3491 9.00879 19.3726 8.00781L12.6465 1.15967C11.7188 0.20752 10.9497 0 9.58252 0L3.78418 0C1.26953 0 0 1.29395 0 3.83301L0 22.3511C0 24.9023 1.25732 26.1719 3.78418 26.1719ZM3.86963 24.2065C2.6123 24.2065 1.96533 23.5352 1.96533 22.3145L1.96533 3.86963C1.96533 2.66113 2.6123 1.96533 3.88184 1.96533L9.31396 1.96533L9.31396 9.05762C9.31396 10.5957 10.083 11.3525 11.6089 11.3525L18.5669 11.3525L18.5669 22.3145C18.5669 23.5352 17.9199 24.2065 16.6504 24.2065ZM11.8286 9.50928C11.3403 9.50928 11.1572 9.31396 11.1572 8.82568L11.1572 2.34375L18.1885 9.50928Z" fill="#5ac8f5" fill-opacity="0.5"/>
  <path d="M11.1938 21.7529L11.1938 17.3218L11.1206 15.332L12.1582 16.4062L13.2568 17.5293C13.4277 17.7124 13.6719 17.8101 13.916 17.8101C14.4043 17.8101 14.7705 17.4561 14.7705 16.9678C14.7705 16.687 14.6606 16.4795 14.4653 16.3086L10.9497 13.0737C10.6934 12.8418 10.498 12.7563 10.2661 12.7563C10.0342 12.7563 9.83887 12.8418 9.58252 13.0737L6.06689 16.3086C5.87158 16.4795 5.76172 16.687 5.76172 16.9678C5.76172 17.4561 6.11572 17.8101 6.61621 17.8101C6.84814 17.8101 7.10449 17.7124 7.27539 17.5293L8.37402 16.4062L9.41162 15.332L9.33838 17.3218L9.33838 21.7529C9.33838 22.2534 9.76562 22.6562 10.2661 22.6562C10.7666 22.6562 11.1938 22.2534 11.1938 21.7529Z" fill="#5ac8f5"/>
 </g>
</svg>
