<?xml version="1.0" encoding="UTF-8"?>
<!--Generator: Apple Native CoreSVG 175.5-->
<!DOCTYPE svg
PUBLIC "-//W3C//DTD SVG 1.1//EN"
       "http://www.w3.org/Graphics/SVG/1.1/DTD/svg11.dtd">
<svg version="1.1" xmlns="http://www.w3.org/2000/svg" xmlns:xlink="http://www.w3.org/1999/xlink" width="21.2036" height="12.9272">
 <g>
  <rect height="12.9272" opacity="0" width="21.2036" x="0" y="0"/>
  <path d="M0.32959 10.0342C0.12207 10.2295 0 10.5103 0 10.8276C0 11.4624 0.476074 11.9385 1.11084 11.9385C1.42822 11.9385 1.72119 11.8286 1.9043 11.6211L11.2549 2.0752L9.94873 2.0752L19.2993 11.6211C19.4946 11.8286 19.7876 11.9385 20.0928 11.9385C20.7275 11.9385 21.2036 11.4624 21.2036 10.8276C21.2036 10.5103 21.0815 10.2295 20.874 10.0342L11.4258 0.366211C11.2183 0.134277 10.9131 0 10.6079 0C10.2905 0 9.99756 0.134277 9.77783 0.366211Z" fill="#5ac8f5"/>
 </g>
</svg>
