<?xml version="1.0" encoding="UTF-8"?>
<!--Generator: Apple Native CoreSVG 175.5-->
<!DOCTYPE svg
PUBLIC "-//W3C//DTD SVG 1.1//EN"
       "http://www.w3.org/Graphics/SVG/1.1/DTD/svg11.dtd">
<svg version="1.1" xmlns="http://www.w3.org/2000/svg" xmlns:xlink="http://www.w3.org/1999/xlink" width="21.4722" height="26.3062">
 <g>
  <rect height="26.3062" opacity="0" width="21.4722" x="0" y="0"/>
  <path d="M10.73 8.93555C13.0249 8.95996 14.8438 6.99463 14.8438 4.41895C14.8438 2.01416 13.0249 0 10.73 0C8.45947 0 6.61621 2.01416 6.61621 4.41895C6.61621 6.99463 8.44727 8.92334 10.73 8.93555ZM3.51562 17.7734L17.9565 17.7734C18.7012 17.7734 19.104 17.2852 19.104 16.626C19.104 14.6973 16.3086 10.4004 10.73 10.4004C5.13916 10.4004 2.35596 14.6973 2.35596 16.626C2.35596 17.2852 2.771 17.7734 3.51562 17.7734ZM0.976562 26.2329L20.4956 26.2329C21.0327 26.2329 21.4722 25.7935 21.4722 25.2563C21.4722 24.7192 21.0327 24.2676 20.4956 24.2676L19.7388 24.2676L19.7388 21.4233C19.7388 20.1416 19.1406 19.4458 17.7612 19.4458L3.71094 19.4458C2.34375 19.4458 1.7334 20.1416 1.7334 21.4233L1.7334 24.2676L0.976562 24.2676C0.439453 24.2676 0 24.7192 0 25.2563C0 25.7935 0.439453 26.2329 0.976562 26.2329ZM8.3374 23.584C7.92236 23.584 7.62939 23.2666 7.62939 22.8516C7.62939 22.4487 7.92236 22.1436 8.3374 22.1436L13.1592 22.1436C13.562 22.1436 13.8672 22.4487 13.8672 22.8516C13.8672 23.2666 13.562 23.584 13.1592 23.584Z" fill="#5ac8f5"/>
 </g>
</svg>
