<?xml version="1.0" encoding="UTF-8"?>
<!--Generator: Apple Native CoreSVG 175.5-->
<!DOCTYPE svg
PUBLIC "-//W3C//DTD SVG 1.1//EN"
       "http://www.w3.org/Graphics/SVG/1.1/DTD/svg11.dtd">
<svg version="1.1" xmlns="http://www.w3.org/2000/svg" xmlns:xlink="http://www.w3.org/1999/xlink" width="22.4731" height="22.4976">
 <g>
  <rect height="22.4976" opacity="0" width="22.4731" x="0" y="0"/>
  <path d="M3.83301 22.4976L18.6401 22.4976C21.2036 22.4976 22.4731 21.228 22.4731 18.7134L22.4731 3.80859C22.4731 1.29395 21.2036 0.0244141 18.6401 0.0244141L3.83301 0.0244141C1.28174 0.0244141 0 1.28174 0 3.80859L0 18.7134C0 21.2402 1.28174 22.4976 3.83301 22.4976ZM3.85742 20.5322C2.63672 20.5322 1.96533 19.8853 1.96533 18.6157L1.96533 3.90625C1.96533 2.63672 2.63672 1.98975 3.85742 1.98975L18.6157 1.98975C19.8242 1.98975 20.5078 2.63672 20.5078 3.90625L20.5078 18.6157C20.5078 19.8853 19.8242 20.5322 18.6157 20.5322ZM12.7319 17.3584C13.1348 17.3584 13.4766 17.0898 13.4766 16.6504C13.4766 16.394 13.3301 16.1865 13.147 16.0156L9.5459 12.6465L9.86328 12.6465C12.2681 12.6465 13.4521 11.3037 13.7085 9.76562L14.8438 9.76562C15.1978 9.76562 15.4419 9.49707 15.4419 9.16748C15.4419 8.81348 15.1978 8.55713 14.8438 8.55713L13.7207 8.55713C13.6353 7.92236 13.4033 7.36084 13.0005 6.92139L14.7827 6.92139C15.1367 6.92139 15.3809 6.64062 15.3809 6.31104C15.3809 5.95703 15.1367 5.71289 14.7827 5.71289L12.2192 5.71289C11.8286 5.71289 11.438 5.71289 11.0474 5.71289L7.76367 5.71289C7.37305 5.71289 7.04346 6.01807 7.04346 6.43311C7.04346 6.82373 7.37305 7.16553 7.76367 7.16553L9.96094 7.16553C11.0474 7.16553 11.8042 7.67822 12.0361 8.55713L7.75146 8.55713C7.40967 8.55713 7.15332 8.81348 7.15332 9.16748C7.15332 9.49707 7.40967 9.76562 7.75146 9.76562L12.0605 9.76562C11.8408 10.7178 11.0352 11.1938 9.80225 11.1938L8.02002 11.1938C7.51953 11.1938 7.15332 11.5112 7.15332 12.0239C7.15332 12.439 7.34863 12.6343 7.59277 12.8662L12.0117 17.0288C12.2803 17.2852 12.4756 17.3584 12.7319 17.3584Z" fill="#5ac8f5"/>
 </g>
</svg>
