<?xml version="1.0" encoding="UTF-8"?>
<!--Generator: Apple Native CoreSVG 175.5-->
<!DOCTYPE svg
PUBLIC "-//W3C//DTD SVG 1.1//EN"
       "http://www.w3.org/Graphics/SVG/1.1/DTD/svg11.dtd">
<svg version="1.1" xmlns="http://www.w3.org/2000/svg" xmlns:xlink="http://www.w3.org/1999/xlink" width="22.4731" height="22.4976">
 <g>
  <rect height="22.4976" opacity="0" width="22.4731" x="0" y="0"/>
  <path d="M3.83301 22.4976L18.6401 22.4976C21.2036 22.4976 22.4731 21.228 22.4731 18.7134L22.4731 3.80859C22.4731 1.29395 21.2036 0.0244141 18.6401 0.0244141L3.83301 0.0244141C1.28174 0.0244141 0 1.28174 0 3.80859L0 18.7134C0 21.2402 1.28174 22.4976 3.83301 22.4976ZM3.85742 20.5322C2.63672 20.5322 1.96533 19.8853 1.96533 18.6157L1.96533 3.90625C1.96533 2.63672 2.63672 1.98975 3.85742 1.98975L18.6157 1.98975C19.8242 1.98975 20.5078 2.63672 20.5078 3.90625L20.5078 18.6157C20.5078 19.8853 19.8242 20.5322 18.6157 20.5322Z" fill="#5ac8f5" fill-opacity="0.5"/>
  <path d="M9.60693 17.041C10.022 17.041 10.3149 16.8457 10.5591 16.3696L15.1001 7.83691C15.3442 7.39746 15.3931 7.14111 15.3931 6.88477C15.3931 6.21338 14.8682 5.71289 14.0747 5.71289L8.10547 5.71289C7.67822 5.71289 7.38525 6.01807 7.38525 6.45752C7.38525 6.89697 7.69043 7.21436 8.10547 7.21436L13.2935 7.21436L13.2935 7.31201L8.80127 15.5396C8.6792 15.7471 8.63037 15.918 8.63037 16.1621C8.63037 16.6748 9.06982 17.041 9.60693 17.041Z" fill="#5ac8f5"/>
 </g>
</svg>
