<?xml version="1.0" encoding="UTF-8"?>
<!--Generator: Apple Native CoreSVG 175.5-->
<!DOCTYPE svg
PUBLIC "-//W3C//DTD SVG 1.1//EN"
       "http://www.w3.org/Graphics/SVG/1.1/DTD/svg11.dtd">
<svg version="1.1" xmlns="http://www.w3.org/2000/svg" xmlns:xlink="http://www.w3.org/1999/xlink" width="18.3829" height="28.6499">
 <g>
  <rect height="28.6499" opacity="0" width="18.3829" x="0" y="0"/>
  <path d="M7.65293 5.31006C9.11778 5.31006 10.3141 4.11377 10.3141 2.66113C10.3141 1.19629 9.11778 0 7.65293 0C6.18809 0 4.9918 1.19629 4.9918 2.66113C4.9918 4.11377 6.18809 5.31006 7.65293 5.31006ZM0.597268 11.5723C-0.843161 13.5742 0.42637 16.2842 3.28282 15.8569L7.7628 15.1855L6.0294 20.3369C5.44346 22.0459 7.83604 22.7539 8.37315 21.1426L10.6803 14.1479C10.961 13.3057 10.4361 12.4756 9.44737 12.4756L5.02842 12.4756L7.34776 9.38721C7.57969 9.06982 7.72617 9.0332 8.03135 9.0332L17.1622 9.0332C17.8336 9.0332 18.3829 8.49609 18.3829 7.8125C18.3829 7.14111 17.8458 6.5918 17.1622 6.5918L5.55332 6.5918C4.69883 6.5918 3.86875 7.03125 3.33164 7.76367ZM1.67149 27.71C1.67149 28.2715 2.06211 28.6377 2.63584 28.6377L11.7911 28.6377C12.3648 28.6377 12.7433 28.2715 12.7433 27.71L12.7433 24.0356C12.7433 23.4863 12.3648 23.1201 11.7911 23.1201L2.63584 23.1201C2.06211 23.1201 1.67149 23.4863 1.67149 24.0356Z" fill="#5ac8f5"/>
 </g>
</svg>
