<?xml version="1.0" encoding="UTF-8"?>
<!--Generator: Apple Native CoreSVG 175.5-->
<!DOCTYPE svg
PUBLIC "-//W3C//DTD SVG 1.1//EN"
       "http://www.w3.org/Graphics/SVG/1.1/DTD/svg11.dtd">
<svg version="1.1" xmlns="http://www.w3.org/2000/svg" xmlns:xlink="http://www.w3.org/1999/xlink" width="28.7842" height="22.4731">
 <g>
  <rect height="22.4731" opacity="0" width="28.7842" x="0" y="0"/>
  <path d="M3.83301 22.4731L24.9512 22.4731C27.5146 22.4731 28.7842 21.2158 28.7842 18.7012L28.7842 3.78418C28.7842 1.26953 27.5146 0 24.9512 0L3.83301 0C1.28174 0 0 1.26953 0 3.78418L0 18.7012C0 21.2158 1.28174 22.4731 3.83301 22.4731ZM9.85107 16.2231L9.85107 11.2183C9.85107 10.3271 10.2173 9.8877 10.9619 9.83887L10.9619 8.36182C10.9619 6.04248 12.3535 4.49219 14.4043 4.49219C16.4551 4.49219 17.8467 6.04248 17.8467 8.36182L17.8467 9.83887C18.5791 9.8877 18.9453 10.3271 18.9453 11.2183L18.9453 16.2231C18.9453 17.1631 18.5303 17.6025 17.6636 17.6025L11.145 17.6025C10.2661 17.6025 9.85107 17.1631 9.85107 16.2231ZM12.2803 9.82666L16.5283 9.82666L16.5283 8.21533C16.5283 6.75049 15.6738 5.76172 14.4043 5.76172C13.1226 5.76172 12.2803 6.75049 12.2803 8.21533Z" fill="#5ac8f5"/>
 </g>
</svg>
