<?xml version="1.0" encoding="UTF-8"?>
<!--Generator: Apple Native CoreSVG 175.5-->
<!DOCTYPE svg
PUBLIC "-//W3C//DTD SVG 1.1//EN"
       "http://www.w3.org/Graphics/SVG/1.1/DTD/svg11.dtd">
<svg version="1.1" xmlns="http://www.w3.org/2000/svg" xmlns:xlink="http://www.w3.org/1999/xlink" width="24.9023" height="24.9146">
 <g>
  <rect height="24.9146" opacity="0" width="24.9023" x="0" y="0"/>
  <path d="M12.4512 24.9023C19.2627 24.9023 24.9023 19.2505 24.9023 12.4512C24.9023 5.63965 19.2505 0 12.439 0C5.63965 0 0 5.63965 0 12.4512C0 19.2505 5.65186 24.9023 12.4512 24.9023ZM12.4512 22.8271C6.68945 22.8271 2.0874 18.2129 2.0874 12.4512C2.0874 6.68945 6.67725 2.0752 12.439 2.0752C18.2007 2.0752 22.8271 6.68945 22.8271 12.4512C22.8271 18.2129 18.2129 22.8271 12.4512 22.8271Z" fill="#5ac8f5" fill-opacity="0.5"/>
  <path d="M8.27637 17.7124C10.3394 17.7124 11.792 16.4673 11.792 14.7095C11.792 13.4155 10.8887 12.3657 9.65576 12.2437L9.65576 12.1704C10.6689 11.9995 11.4624 10.9863 11.4624 9.83887C11.4624 8.27637 10.1807 7.18994 8.34961 7.18994C6.70166 7.18994 5.48096 8.12988 5.16357 9.32617C5.12695 9.48486 5.12695 9.60693 5.12695 9.76562C5.12695 10.2051 5.40771 10.5103 5.82275 10.5103C6.18896 10.5103 6.38428 10.3149 6.50635 9.92432C6.7749 9.06982 7.36084 8.59375 8.31299 8.59375C9.28955 8.59375 9.96094 9.17969 9.96094 10.0342C9.96094 10.9253 9.27734 11.5723 8.30078 11.5723L7.6416 11.5723C7.25098 11.5723 6.98242 11.853 6.98242 12.2925C6.98242 12.6831 7.25098 12.9883 7.6416 12.9883L8.36182 12.9883C9.52148 12.9883 10.2661 13.6475 10.2661 14.6362C10.2661 15.5884 9.44824 16.3086 8.28857 16.3086C7.31201 16.3086 6.65283 15.8325 6.32324 14.978C6.17676 14.5874 5.98145 14.3921 5.62744 14.3921C5.22461 14.3921 4.91943 14.6973 4.91943 15.1245C4.91943 15.2954 4.94385 15.4175 4.99268 15.5762C5.31006 16.6992 6.604 17.7124 8.27637 17.7124ZM16.7236 17.7124C18.7866 17.7124 20.2393 16.4673 20.2393 14.7095C20.2393 13.4155 19.3359 12.3657 18.103 12.2437L18.103 12.1704C19.1162 11.9995 19.9097 10.9863 19.9097 9.83887C19.9097 8.27637 18.6279 7.18994 16.7969 7.18994C15.1489 7.18994 13.9282 8.12988 13.6108 9.32617C13.5742 9.48486 13.5742 9.60693 13.5742 9.76562C13.5742 10.2051 13.855 10.5103 14.27 10.5103C14.6362 10.5103 14.8315 10.3149 14.9536 9.92432C15.2222 9.06982 15.8081 8.59375 16.7603 8.59375C17.7368 8.59375 18.4082 9.17969 18.4082 10.0342C18.4082 10.9253 17.7246 11.5723 16.748 11.5723L16.0889 11.5723C15.6982 11.5723 15.4297 11.853 15.4297 12.2925C15.4297 12.6831 15.6982 12.9883 16.0889 12.9883L16.8091 12.9883C17.9688 12.9883 18.7134 13.6475 18.7134 14.6362C18.7134 15.5884 17.9077 16.3086 16.7358 16.3086C15.7593 16.3086 15.1001 15.8325 14.7705 14.978C14.624 14.5874 14.4287 14.3921 14.0747 14.3921C13.6719 14.3921 13.3667 14.6973 13.3667 15.1245C13.3667 15.2954 13.3911 15.4175 13.4399 15.5762C13.7573 16.6992 15.0513 17.7124 16.7236 17.7124Z" fill="#5ac8f5"/>
 </g>
</svg>
