<?xml version="1.0" encoding="UTF-8"?>
<!--Generator: Apple Native CoreSVG 175.5-->
<!DOCTYPE svg
PUBLIC "-//W3C//DTD SVG 1.1//EN"
       "http://www.w3.org/Graphics/SVG/1.1/DTD/svg11.dtd">
<svg version="1.1" xmlns="http://www.w3.org/2000/svg" xmlns:xlink="http://www.w3.org/1999/xlink" width="22.4731" height="22.4976">
 <g>
  <rect height="22.4976" opacity="0" width="22.4731" x="0" y="0"/>
  <path d="M3.83301 22.4976L18.6401 22.4976C21.2036 22.4976 22.4731 21.228 22.4731 18.7134L22.4731 3.80859C22.4731 1.29395 21.2036 0.0244141 18.6401 0.0244141L3.83301 0.0244141C1.28174 0.0244141 0 1.28174 0 3.80859L0 18.7134C0 21.2402 1.28174 22.4976 3.83301 22.4976ZM3.85742 20.5322C2.63672 20.5322 1.96533 19.8853 1.96533 18.6157L1.96533 3.90625C1.96533 2.63672 2.63672 1.98975 3.85742 1.98975L18.6157 1.98975C19.8242 1.98975 20.5078 2.63672 20.5078 3.90625L20.5078 18.6157C20.5078 19.8853 19.8242 20.5322 18.6157 20.5322ZM6.88477 8.63037C6.88477 9.05762 7.16553 9.33838 7.59277 9.33838L10.4492 9.33838L10.4492 16.5894C10.4492 17.0776 10.791 17.395 11.2549 17.395C11.7188 17.395 12.0361 17.0776 12.0361 16.5894L12.0361 9.33838L14.8926 9.33838C15.3198 9.33838 15.6006 9.05762 15.6006 8.63037C15.6006 8.21533 15.3198 7.93457 14.8926 7.93457L7.59277 7.93457C7.16553 7.93457 6.88477 8.21533 6.88477 8.63037ZM6.86035 6.28662C6.86035 6.62842 7.1167 6.89697 7.44629 6.89697L15.0269 6.89697C15.3687 6.89697 15.6128 6.62842 15.6128 6.28662C15.6128 5.93262 15.3687 5.68848 15.0269 5.68848L7.44629 5.68848C7.1167 5.68848 6.86035 5.93262 6.86035 6.28662Z" fill="#5ac8f5"/>
 </g>
</svg>
