<?xml version="1.0" encoding="UTF-8"?>
<!--Generator: Apple Native CoreSVG 175.5-->
<!DOCTYPE svg
PUBLIC "-//W3C//DTD SVG 1.1//EN"
       "http://www.w3.org/Graphics/SVG/1.1/DTD/svg11.dtd">
<svg version="1.1" xmlns="http://www.w3.org/2000/svg" xmlns:xlink="http://www.w3.org/1999/xlink" width="24.5972" height="18.7224">
 <g>
  <rect height="18.7224" opacity="0" width="24.5972" x="0" y="0"/>
  <path d="M7.82471 2.97084L23.6084 2.97084C24.1577 2.97084 24.5972 2.5436 24.5972 1.99428C24.5972 1.43276 24.1577 1.00551 23.6084 1.00551L7.82471 1.00551C7.26318 1.00551 6.83594 1.43276 6.83594 1.99428C6.83594 2.5436 7.26318 2.97084 7.82471 2.97084ZM7.82471 10.3561L23.6084 10.3561C24.1577 10.3561 24.5972 9.91664 24.5972 9.36733C24.5972 8.81801 24.1577 8.39076 23.6084 8.39076L7.82471 8.39076C7.26318 8.39076 6.83594 8.81801 6.83594 9.36733C6.83594 9.91664 7.26318 10.3561 7.82471 10.3561ZM7.82471 17.7291L23.6084 17.7291C24.1577 17.7291 24.5972 17.3019 24.5972 16.7526C24.5972 16.1911 24.1577 15.7638 23.6084 15.7638L7.82471 15.7638C7.26318 15.7638 6.83594 16.1911 6.83594 16.7526C6.83594 17.3019 7.26318 17.7291 7.82471 17.7291ZM0.98877 3.82533L3.16162 2.53139C3.54004 2.29946 3.52783 1.72573 3.16162 1.506L0.98877 0.18764C0.500488-0.117536 0 0.0289482 0 0.614886L0 3.39809C0 3.95961 0.512695 4.1061 0.98877 3.82533ZM0.98877 11.1862L3.16162 9.89223C3.54004 9.6603 3.52783 9.08657 3.16162 8.86684L0.98877 7.54848C0.500488 7.25551 0 7.402 0 7.97573L0 10.7589C0 11.3205 0.512695 11.4669 0.98877 11.1862ZM0.98877 18.5836L3.16162 17.2897C3.54004 17.0578 3.52783 16.484 3.16162 16.2643L0.98877 14.9459C0.500488 14.653 0 14.7872 0 15.3732L0 18.1564C0 18.7179 0.512695 18.8644 0.98877 18.5836Z" fill="#5ac8f5"/>
 </g>
</svg>
