<?xml version="1.0" encoding="UTF-8"?>
<!--Generator: Apple Native CoreSVG 175.5-->
<!DOCTYPE svg
PUBLIC "-//W3C//DTD SVG 1.1//EN"
       "http://www.w3.org/Graphics/SVG/1.1/DTD/svg11.dtd">
<svg version="1.1" xmlns="http://www.w3.org/2000/svg" xmlns:xlink="http://www.w3.org/1999/xlink" width="22.4731" height="22.4976">
 <g>
  <rect height="22.4976" opacity="0" width="22.4731" x="0" y="0"/>
  <path d="M3.83301 22.4976L18.6401 22.4976C21.2036 22.4976 22.4731 21.228 22.4731 18.7134L22.4731 3.80859C22.4731 1.29395 21.2036 0.0244141 18.6401 0.0244141L3.83301 0.0244141C1.28174 0.0244141 0 1.28174 0 3.80859L0 18.7134C0 21.2402 1.28174 22.4976 3.83301 22.4976Z" fill="#5ac8f5" fill-opacity="0.25"/>
  <path d="M13.6597 17.2852C13.3423 17.5903 12.7075 17.5659 12.3657 17.2485L7.2876 12.4512C6.5918 11.8164 6.5918 10.6934 7.2876 10.0586L12.3657 5.26123C12.7441 4.90723 13.3057 4.89502 13.6475 5.22461C14.0259 5.57861 14.0381 6.18896 13.6719 6.53076L8.65479 11.2427L13.6719 15.979C14.0259 16.3208 14.0381 16.9067 13.6597 17.2852Z" fill="#5ac8f5"/>
 </g>
</svg>
