<?xml version="1.0" encoding="UTF-8"?>
<!--Generator: Apple Native CoreSVG 175.5-->
<!DOCTYPE svg
PUBLIC "-//W3C//DTD SVG 1.1//EN"
       "http://www.w3.org/Graphics/SVG/1.1/DTD/svg11.dtd">
<svg version="1.1" xmlns="http://www.w3.org/2000/svg" xmlns:xlink="http://www.w3.org/1999/xlink" width="30.4205" height="16.3452">
 <g>
  <rect height="16.3452" opacity="0" width="30.4205" x="0" y="0"/>
  <path d="M0.354545 7.32422C-0.0849084 7.82471-0.145944 8.53271 0.342338 9.00879L4.1021 12.7808C4.59038 13.269 5.33501 13.2446 5.79888 12.7686L7.67876 10.8887L10.4376 13.6353C10.9014 14.1113 11.646 14.0991 12.1221 13.623L14.6978 11.0718C16.2969 14.4287 19.0435 16.3208 22.2784 16.3208C26.795 16.3208 30.4205 12.6831 30.4205 8.1665C30.4205 3.6377 26.8072 0 22.2784 0C19.0191 0 16.1016 1.87988 14.8077 4.84619L3.27203 4.84619C2.86919 4.84619 2.40533 4.96826 2.10015 5.33447ZM2.27105 8.1665L3.62603 6.82373L16.2115 6.82373C16.8707 3.94287 19.3365 1.95312 22.2784 1.95312C25.6963 1.95312 28.4551 4.72412 28.4551 8.1665C28.4551 11.5967 25.7085 14.3555 22.2784 14.3555C19.3731 14.3555 16.8707 12.3535 16.1382 9.28955L13.6602 9.28955L11.2676 11.6821L8.70415 9.09424L6.68999 9.09424L4.9688 10.8276ZM22.6446 8.1665C22.6446 9.26514 23.5357 10.1562 24.6343 10.1562C25.733 10.1562 26.6119 9.26514 26.6119 8.1665C26.6119 7.05566 25.733 6.18896 24.6343 6.18896C23.5357 6.18896 22.6446 7.06787 22.6446 8.1665Z" fill="#5ac8f5"/>
 </g>
</svg>
