<?xml version="1.0" encoding="UTF-8"?>
<!--Generator: Apple Native CoreSVG 175.5-->
<!DOCTYPE svg
PUBLIC "-//W3C//DTD SVG 1.1//EN"
       "http://www.w3.org/Graphics/SVG/1.1/DTD/svg11.dtd">
<svg version="1.1" xmlns="http://www.w3.org/2000/svg" xmlns:xlink="http://www.w3.org/1999/xlink" width="24.9023" height="29.6485">
 <g>
  <rect height="29.6485" opacity="0" width="24.9023" x="0" y="0"/>
  <path d="M0 14.8181C0 21.6297 5.65186 27.2693 12.4512 27.2693C19.2627 27.2693 24.9023 21.6297 24.9023 14.8181C24.9023 8.81228 20.52 3.72195 14.8071 2.5989L14.8071 0.865506C14.8071-0.0011928 14.209-0.233126 13.5498 0.242948L9.65576 2.96512C9.09424 3.35574 9.08203 3.94168 9.65576 4.34451L13.5376 7.07889C14.209 7.56717 14.8071 7.33523 14.8071 6.45633L14.8071 4.72293C19.4214 5.77273 22.8149 9.8743 22.8149 14.8181C22.8149 20.5799 18.2129 25.1941 12.4512 25.1941C6.68945 25.1941 2.06299 20.5799 2.0752 14.8181C2.0874 11.3513 3.77197 8.28738 6.37207 6.43191C6.87256 6.05349 7.03125 5.47976 6.72607 4.96707C6.4209 4.46658 5.74951 4.3323 5.2124 4.74734C2.0752 7.03006 0 10.7166 0 14.8181Z" fill="#5ac8f5" fill-opacity="0.5"/>
  <path d="M11.9019 19.6765L19.3604 19.6765C20.3003 19.6765 20.6299 19.408 20.6299 18.8831C20.6299 17.3572 18.7134 15.2454 15.6372 15.2454C12.5488 15.2454 10.6201 17.3572 10.6201 18.8831C10.6201 19.408 10.9619 19.6765 11.9019 19.6765ZM15.6372 14.1956C16.9189 14.1956 18.0054 13.0359 18.0054 11.5467C18.0054 10.0818 16.9067 9.0076 15.6372 9.0076C14.3555 9.0076 13.2568 10.1184 13.2568 11.5589C13.269 13.0359 14.3555 14.1956 15.6372 14.1956ZM5.46875 19.6765L9.99756 19.6765C9.375 18.7976 10.1318 16.9788 11.4136 16.0022C10.7422 15.5628 9.8877 15.2332 8.78906 15.2332C6.10352 15.2332 4.43115 17.2107 4.43115 18.8465C4.43115 19.3836 4.72412 19.6765 5.46875 19.6765ZM8.78906 14.3177C9.8999 14.3177 10.8521 13.3167 10.8521 12.0227C10.8521 10.7532 9.8999 9.80105 8.78906 9.80105C7.69043 9.80105 6.71387 10.7776 6.71387 12.0349C6.72607 13.3167 7.67822 14.3177 8.78906 14.3177Z" fill="#5ac8f5"/>
 </g>
</svg>
