<?xml version="1.0" encoding="UTF-8"?>
<!--Generator: Apple Native CoreSVG 175.5-->
<!DOCTYPE svg
PUBLIC "-//W3C//DTD SVG 1.1//EN"
       "http://www.w3.org/Graphics/SVG/1.1/DTD/svg11.dtd">
<svg version="1.1" xmlns="http://www.w3.org/2000/svg" xmlns:xlink="http://www.w3.org/1999/xlink" width="18.7744" height="21.8384">
 <g>
  <rect height="21.8384" opacity="0" width="18.7744" x="0" y="0"/>
  <path d="M9.38721 0C9.10645 0 8.8501 0.109863 8.55713 0.354004L0.32959 7.03125C0.12207 7.21436 0 7.4707 0 7.83691C0 8.47168 0.476074 8.94775 1.11084 8.94775C1.37939 8.94775 1.63574 8.8501 1.92871 8.63037L9.38721 2.55127L16.8457 8.63037C17.1265 8.8501 17.395 8.94775 17.6514 8.94775C18.2983 8.94775 18.7744 8.47168 18.7744 7.83691C18.7744 7.4707 18.6523 7.21436 18.4448 7.03125L10.2173 0.341797C9.92432 0.109863 9.65576 0 9.38721 0ZM9.38721 21.6064C9.65576 21.6064 9.92432 21.4966 10.2173 21.2646L18.4448 14.5752C18.6523 14.3921 18.7744 14.1357 18.7744 13.7695C18.7744 13.1348 18.2983 12.6465 17.6514 12.6465C17.395 12.6465 17.1265 12.7563 16.8457 12.9761L9.38721 19.0552L1.92871 12.9761C1.63574 12.7563 1.37939 12.6465 1.11084 12.6465C0.476074 12.6465 0 13.1348 0 13.7695C0 14.1357 0.12207 14.3921 0.32959 14.5752L8.55713 21.2524C8.8501 21.4966 9.10645 21.6064 9.38721 21.6064Z" fill="#5ac8f5"/>
 </g>
</svg>
