<?xml version="1.0" encoding="UTF-8"?>
<!--Generator: Apple Native CoreSVG 175.5-->
<!DOCTYPE svg
PUBLIC "-//W3C//DTD SVG 1.1//EN"
       "http://www.w3.org/Graphics/SVG/1.1/DTD/svg11.dtd">
<svg version="1.1" xmlns="http://www.w3.org/2000/svg" xmlns:xlink="http://www.w3.org/1999/xlink" width="25.8545" height="15.7349">
 <g>
  <rect height="15.7349" opacity="0" width="25.8545" x="0" y="0"/>
  <path d="M3.17383 15.7104L22.6685 15.7104C24.5728 15.7104 25.8545 14.3677 25.8545 12.3779L25.8545 3.32031C25.8545 1.33057 24.585 0 22.6807 0L3.18604 0C1.28174 0 0 1.33057 0 3.32031L0 12.3779C0 14.3677 1.26953 15.7104 3.17383 15.7104ZM3.49121 13.7451C2.51465 13.7451 1.96533 13.1592 1.96533 12.1338L1.96533 3.57666C1.96533 2.55127 2.51465 1.96533 3.49121 1.96533L22.3633 1.96533C23.3398 1.96533 23.8892 2.55127 23.8892 3.57666L23.8892 12.1338C23.8892 13.1592 23.3398 13.7451 22.3511 13.7451Z" fill="#5ac8f5" fill-opacity="0.5"/>
  <path d="M4.15039 5.79834L5.33447 5.79834C5.59082 5.79834 5.77393 5.61523 5.77393 5.34668L5.77393 4.19922C5.77393 3.91846 5.59082 3.72314 5.33447 3.72314L4.15039 3.72314C3.89404 3.72314 3.71094 3.91846 3.71094 4.19922L3.71094 5.34668C3.71094 5.61523 3.89404 5.79834 4.15039 5.79834ZM7.4707 5.79834L8.64258 5.79834C8.89893 5.79834 9.09424 5.61523 9.09424 5.34668L9.09424 4.19922C9.09424 3.91846 8.91113 3.72314 8.64258 3.72314L7.4707 3.72314C7.20215 3.72314 7.01904 3.91846 7.01904 4.19922L7.01904 5.34668C7.01904 5.61523 7.20215 5.79834 7.4707 5.79834ZM10.7788 5.79834L11.9507 5.79834C12.2192 5.79834 12.4023 5.61523 12.4023 5.34668L12.4023 4.19922C12.4023 3.91846 12.2192 3.72314 11.9507 3.72314L10.7788 3.72314C10.5103 3.72314 10.3271 3.91846 10.3271 4.19922L10.3271 5.34668C10.3271 5.61523 10.5103 5.79834 10.7788 5.79834ZM14.0869 5.79834L15.271 5.79834C15.5273 5.79834 15.7104 5.61523 15.7104 5.34668L15.7104 4.19922C15.7104 3.91846 15.5273 3.72314 15.271 3.72314L14.0869 3.72314C13.8306 3.72314 13.6475 3.91846 13.6475 4.19922L13.6475 5.34668C13.6475 5.61523 13.8306 5.79834 14.0869 5.79834ZM4.15039 8.89893L5.33447 8.89893C5.59082 8.89893 5.77393 8.71582 5.77393 8.44727L5.77393 7.2998C5.77393 7.01904 5.59082 6.82373 5.33447 6.82373L4.15039 6.82373C3.89404 6.82373 3.71094 7.01904 3.71094 7.2998L3.71094 8.44727C3.71094 8.71582 3.89404 8.89893 4.15039 8.89893ZM7.4707 8.89893L8.64258 8.89893C8.89893 8.89893 9.09424 8.71582 9.09424 8.44727L9.09424 7.2998C9.09424 7.01904 8.91113 6.82373 8.64258 6.82373L7.4707 6.82373C7.20215 6.82373 7.01904 7.01904 7.01904 7.2998L7.01904 8.44727C7.01904 8.71582 7.20215 8.89893 7.4707 8.89893ZM10.791 8.89893L11.9507 8.89893C12.2314 8.89893 12.4146 8.71582 12.4146 8.44727L12.4146 7.2998C12.4146 7.01904 12.2314 6.82373 11.9507 6.82373L10.791 6.82373C10.5103 6.82373 10.3271 7.01904 10.3271 7.2998L10.3271 8.44727C10.3271 8.71582 10.5103 8.89893 10.791 8.89893ZM20.6055 5.79834L21.7773 5.79834C22.0459 5.79834 22.229 5.61523 22.229 5.34668L22.229 4.19922C22.229 3.91846 22.0459 3.72314 21.7896 3.72314L20.6055 3.72314C20.3491 3.72314 20.166 3.91846 20.166 4.19922L20.166 5.34668C20.166 5.61523 20.3369 5.79834 20.6055 5.79834ZM20.6055 8.89893L21.7896 8.89893C22.0459 8.89893 22.229 8.71582 22.229 8.44727L22.229 7.2998C22.229 7.01904 22.0459 6.82373 21.7896 6.82373L20.6055 6.82373C20.3491 6.82373 20.166 7.01904 20.166 7.2998L20.166 8.44727C20.166 8.71582 20.3491 8.89893 20.6055 8.89893ZM20.6055 11.9873L21.7773 11.9873C22.0459 11.9873 22.229 11.8042 22.229 11.5479L22.229 10.4004C22.229 10.1196 22.0459 9.92432 21.7896 9.92432L20.6055 9.92432C20.3491 9.92432 20.166 10.1196 20.166 10.4004L20.166 11.5479C20.166 11.8042 20.3491 11.9873 20.6055 11.9873Z" fill="#5ac8f5"/>
 </g>
</svg>
