<?xml version="1.0" encoding="UTF-8"?>
<!--Generator: Apple Native CoreSVG 175.5-->
<!DOCTYPE svg
PUBLIC "-//W3C//DTD SVG 1.1//EN"
       "http://www.w3.org/Graphics/SVG/1.1/DTD/svg11.dtd">
<svg version="1.1" xmlns="http://www.w3.org/2000/svg" xmlns:xlink="http://www.w3.org/1999/xlink" width="43.2983" height="19.3726">
 <g>
  <rect height="19.3726" opacity="0" width="43.2983" x="0" y="0"/>
  <path d="M25.708 12.6953C26.0986 13.3301 25.8057 13.9526 25.0488 13.9526L18.9819 13.9526C18.2251 13.9526 17.9199 13.3301 18.3105 12.6953L21.2891 7.86133C21.6675 7.23877 22.3755 7.25098 22.7417 7.86133ZM3.18604 17.0532L5.09033 17.0532C5.01709 16.687 4.95605 16.3086 4.95605 15.9058C4.95605 13.2812 7.03125 11.2183 9.64355 11.2183C12.2681 11.2183 14.3311 13.2812 14.3311 15.9058C14.3311 16.3086 14.2822 16.687 14.1968 17.0532L29.7485 17.0532C29.6753 16.687 29.6143 16.3086 29.6143 15.9058C29.6143 13.2812 31.6895 11.2183 34.3018 11.2183C36.9263 11.2183 38.9893 13.2812 38.9893 15.9058C38.9893 16.3086 38.9404 16.687 38.855 17.0532L40.4663 17.0532C42.2241 17.0532 43.2983 15.9424 43.2983 14.1357L43.2983 9.22852C43.2983 7.51953 42.7856 6.06689 40.5151 5.35889L38.0005 4.58984C36.4136 2.69775 33.6426 0 28.6011 0L25.7324 0C20.7031 0 18.7012 0.488281 15.6982 2.36816L10.7788 5.45654L5.35889 6.11572C1.98975 6.53076 0 8.47168 0 11.377L0 13.7939C0 15.8691 1.15967 17.0532 3.18604 17.0532ZM9.64355 19.165C11.4746 19.165 12.915 17.7246 12.915 15.9058C12.915 14.0869 11.4624 12.6343 9.64355 12.6343C7.83691 12.6343 6.38428 14.0869 6.38428 15.9058C6.38428 17.7124 7.83691 19.165 9.64355 19.165ZM34.3018 19.165C36.1206 19.165 37.5732 17.7124 37.5732 15.9058C37.5732 14.0869 36.1206 12.6343 34.3018 12.6343C32.5073 12.6343 31.0425 14.0991 31.0425 15.9058C31.0425 17.7124 32.4951 19.165 34.3018 19.165Z" fill="#5ac8f5"/>
 </g>
</svg>
