<?xml version="1.0" encoding="UTF-8"?>
<!--Generator: Apple Native CoreSVG 175.5-->
<!DOCTYPE svg
PUBLIC "-//W3C//DTD SVG 1.1//EN"
       "http://www.w3.org/Graphics/SVG/1.1/DTD/svg11.dtd">
<svg version="1.1" xmlns="http://www.w3.org/2000/svg" xmlns:xlink="http://www.w3.org/1999/xlink" width="20.5322" height="26.1841">
 <g>
  <rect height="26.1841" opacity="0" width="20.5322" x="0" y="0"/>
  <path d="M3.78418 26.1719L16.748 26.1719C19.2627 26.1719 20.5322 24.8901 20.5322 22.3511L20.5322 3.83301C20.5322 1.28174 19.2749 0 16.748 0L13.1226 0C12.7075 0 12.439 0.292969 12.439 0.732422C12.439 2.00195 11.5601 2.89307 10.2661 2.89307C8.97217 2.89307 8.08105 2.00195 8.08105 0.732422C8.08105 0.292969 7.8125 0 7.39746 0L3.78418 0C1.25732 0 0 1.28174 0 3.83301L0 22.3511C0 24.8901 1.26953 26.1719 3.78418 26.1719ZM3.88184 24.2065C2.6123 24.2065 1.96533 23.5229 1.96533 22.3145L1.96533 3.86963C1.96533 2.64893 2.6123 1.96533 3.88184 1.96533L7.36084 1.96533L6.22559 1.26953C6.44531 3.40576 8.03223 4.79736 10.2661 4.79736C12.5 4.79736 14.0869 3.40576 14.3188 1.26953L13.1714 1.96533L16.6504 1.96533C17.9199 1.96533 18.5669 2.64893 18.5669 3.86963L18.5669 22.3145C18.5669 23.5229 17.9199 24.2065 16.6504 24.2065ZM5.63965 9.09424L14.9048 9.09424C15.332 9.09424 15.6494 8.76465 15.6494 8.3252C15.6494 7.91016 15.332 7.58057 14.9048 7.58057L5.63965 7.58057C5.2002 7.58057 4.88281 7.91016 4.88281 8.3252C4.88281 8.76465 5.2002 9.09424 5.63965 9.09424ZM5.63965 13.4277L10.022 13.4277C10.4614 13.4277 10.7788 13.0981 10.7788 12.6831C10.7788 12.2559 10.4614 11.9263 10.022 11.9263L5.63965 11.9263C5.2002 11.9263 4.88281 12.2559 4.88281 12.6831C4.88281 13.0981 5.2002 13.4277 5.63965 13.4277Z" fill="#5ac8f5"/>
 </g>
</svg>
