<?xml version="1.0" encoding="UTF-8"?>
<!--Generator: Apple Native CoreSVG 175.5-->
<!DOCTYPE svg
PUBLIC "-//W3C//DTD SVG 1.1//EN"
       "http://www.w3.org/Graphics/SVG/1.1/DTD/svg11.dtd">
<svg version="1.1" xmlns="http://www.w3.org/2000/svg" xmlns:xlink="http://www.w3.org/1999/xlink" width="30.6885" height="23.2056">
 <g>
  <rect height="23.2056" opacity="0" width="30.6885" x="0" y="0"/>
  <path d="M9.17969 19.6655L23.2178 19.6655C22.522 17.627 20.166 15.0757 16.1987 15.0757C12.2314 15.0757 9.87549 17.627 9.17969 19.6655ZM16.1987 13.562C18.0298 13.5742 19.519 11.8896 19.519 9.92432C19.519 7.9834 18.0298 6.38428 16.1987 6.38428C14.3555 6.38428 12.8784 7.9834 12.8784 9.92432C12.8906 11.8896 14.3555 13.5498 16.1987 13.562ZM24.1211 21.2158C27.8076 21.2158 30.6885 18.5181 30.6885 15.1611C30.6885 12.5977 29.2114 10.376 26.8311 9.375C26.8555 3.93066 22.937 0 17.9443 0C14.6362 0 12.2803 1.77002 10.8154 3.90625C7.8125 3.02734 4.54102 5.31006 4.47998 8.72803C1.72119 9.16748 0 11.6333 0 14.6118C0 18.2007 3.13721 21.2158 7.31201 21.2158ZM24.1211 19.2505L7.31201 19.2505C4.23584 19.2505 1.96533 17.1021 1.96533 14.6118C1.96533 12.1704 3.44238 10.2295 6.03027 10.2295C6.20117 10.2295 6.26221 10.144 6.26221 9.98535C6.26221 6.22559 8.97217 5.11475 11.4746 5.93262C11.6211 5.98145 11.7065 5.94482 11.7798 5.81055C12.9639 3.69873 14.7827 1.96533 17.9443 1.96533C21.9482 1.96533 24.7192 5.13916 24.9268 8.76465C24.9634 9.32617 24.9268 9.98535 24.8779 10.5591C24.8657 10.7178 24.9268 10.8032 25.0732 10.8398C27.2949 11.3281 28.7231 12.9517 28.7231 15.1611C28.7231 17.4316 26.7212 19.2505 24.1211 19.2505Z" fill="#5ac8f5"/>
 </g>
</svg>
