<?xml version="1.0" encoding="UTF-8"?>
<!--Generator: Apple Native CoreSVG 175.5-->
<!DOCTYPE svg
PUBLIC "-//W3C//DTD SVG 1.1//EN"
       "http://www.w3.org/Graphics/SVG/1.1/DTD/svg11.dtd">
<svg version="1.1" xmlns="http://www.w3.org/2000/svg" xmlns:xlink="http://www.w3.org/1999/xlink" width="24.3286" height="22.4976">
 <g>
  <rect height="22.4976" opacity="0" width="24.3286" x="0" y="0"/>
  <path d="M3.83301 22.4976L20.5078 22.4976C23.0591 22.4976 24.3286 21.228 24.3286 18.7134L24.3286 3.80859C24.3286 1.29395 23.0591 0.0244141 20.5078 0.0244141L3.83301 0.0244141C1.28174 0.0244141 0 1.28174 0 3.80859L0 18.7134C0 21.2402 1.28174 22.4976 3.83301 22.4976ZM3.6499 20.5322C2.56348 20.5322 1.96533 19.9585 1.96533 18.8232L1.96533 7.31201C1.96533 6.18896 2.56348 5.60303 3.6499 5.60303L20.6665 5.60303C21.7529 5.60303 22.3633 6.18896 22.3633 7.31201L22.3633 18.8232C22.3633 19.9585 21.7529 20.5322 20.6665 20.5322Z" fill="#5ac8f5" fill-opacity="0.5"/>
  <path d="M5.77393 10.144L18.5913 10.144C19.0186 10.144 19.3481 9.80225 19.3481 9.375C19.3481 8.95996 19.0186 8.64258 18.5913 8.64258L5.77393 8.64258C5.32227 8.64258 5.00488 8.95996 5.00488 9.375C5.00488 9.80225 5.32227 10.144 5.77393 10.144ZM5.77393 13.8184L18.5913 13.8184C19.0186 13.8184 19.3481 13.501 19.3481 13.0859C19.3481 12.6465 19.0186 12.3169 18.5913 12.3169L5.77393 12.3169C5.32227 12.3169 5.00488 12.6465 5.00488 13.0859C5.00488 13.501 5.32227 13.8184 5.77393 13.8184ZM5.77393 17.4927L13.916 17.4927C14.3433 17.4927 14.6729 17.1753 14.6729 16.7603C14.6729 16.333 14.3433 15.9912 13.916 15.9912L5.77393 15.9912C5.32227 15.9912 5.00488 16.333 5.00488 16.7603C5.00488 17.1753 5.32227 17.4927 5.77393 17.4927Z" fill="#5ac8f5"/>
 </g>
</svg>
