<?xml version="1.0" encoding="UTF-8"?>
<!--Generator: Apple Native CoreSVG 175.5-->
<!DOCTYPE svg
PUBLIC "-//W3C//DTD SVG 1.1//EN"
       "http://www.w3.org/Graphics/SVG/1.1/DTD/svg11.dtd">
<svg version="1.1" xmlns="http://www.w3.org/2000/svg" xmlns:xlink="http://www.w3.org/1999/xlink" width="31.1781" height="26.1841">
 <g>
  <rect height="26.1841" opacity="0" width="31.1781" x="0" y="0"/>
  <path d="M0.29434 11.0229C-0.316012 11.7065 0.0746133 12.6343 0.990141 12.6343L3.06534 12.6343L3.06534 17.981C3.06534 18.5181 3.48037 18.9331 4.02969 18.9331C4.55459 18.9331 4.96963 18.5181 4.96963 17.981L4.96963 12.6343L7.02041 12.6343C7.98477 12.6343 8.31436 11.6699 7.72842 11.0229L4.70108 7.60498C4.29825 7.14111 3.72452 7.14111 3.30948 7.60498ZM10.6459 22.3511C10.6459 24.9023 11.9154 26.1719 14.4301 26.1719L27.3939 26.1719C29.9208 26.1719 31.1781 24.9023 31.1781 22.3511L31.1781 3.83301C31.1781 1.29395 29.9208 0 27.3939 0L14.4301 0C11.9154 0 10.6459 1.29395 10.6459 3.83301ZM12.6112 22.3145L12.6112 3.86963C12.6112 2.64893 13.2704 1.96533 14.5399 1.96533L27.2963 1.96533C28.5658 1.96533 29.2128 2.64893 29.2128 3.86963L29.2128 22.3145C29.2128 23.5352 28.5658 24.2065 27.2963 24.2065L14.5399 24.2065C13.2704 24.2065 12.6112 23.5352 12.6112 22.3145ZM15.3334 19.2749L26.4906 19.2749C26.9789 19.2749 27.2108 18.9575 27.2108 18.5059C27.2108 17.1753 25.1967 13.7085 20.912 13.7085C16.6273 13.7085 14.6132 17.1753 14.6132 18.5059C14.6132 18.9575 14.8573 19.2749 15.3334 19.2749ZM20.912 12.7075C22.6576 12.7197 24.0492 11.2427 24.0492 9.28955C24.0492 7.4585 22.6576 5.93262 20.912 5.93262C19.1786 5.93262 17.787 7.4585 17.787 9.28955C17.787 11.2427 19.1786 12.6953 20.912 12.7075Z" fill="#5ac8f5"/>
 </g>
</svg>
