<?xml version="1.0" encoding="UTF-8"?>
<!--Generator: Apple Native CoreSVG 175.5-->
<!DOCTYPE svg
PUBLIC "-//W3C//DTD SVG 1.1//EN"
       "http://www.w3.org/Graphics/SVG/1.1/DTD/svg11.dtd">
<svg version="1.1" xmlns="http://www.w3.org/2000/svg" xmlns:xlink="http://www.w3.org/1999/xlink" width="29.5166" height="22.4976">
 <g>
  <rect height="22.4976" opacity="0" width="29.5166" x="0" y="0"/>
  <path d="M10.498 22.4976L19.0308 22.4976C26.2939 22.4976 29.5166 19.165 29.5166 12.3169L29.5166 3.80859C29.5166 1.29395 28.2349 0.0244141 25.6836 0.0244141L3.83301 0.0244141C1.28174 0.0244141 0 1.28174 0 3.80859L0 12.3169C0 19.165 3.22266 22.4976 10.498 22.4976Z" fill="#5ac8f5" fill-opacity="0.25"/>
  <path d="M7.2876 16.9067C6.64062 16.9067 6.28662 16.4307 6.28662 15.7593L6.28662 6.4209C6.28662 5.7373 6.62842 5.27344 7.2876 5.27344C7.95898 5.27344 8.31299 5.71289 8.31299 6.4209L8.31299 15.2466L13.0859 15.2466C13.5742 15.2466 13.9282 15.5518 13.9282 16.0645C13.9282 16.5894 13.5742 16.9067 13.0859 16.9067ZM16.8823 16.9189C16.1743 16.9189 15.7471 16.4917 15.7471 15.7837L15.7471 6.53076C15.7471 5.81055 16.1743 5.40771 16.8823 5.40771L20.5811 5.40771C22.7417 5.40771 24.1455 6.53076 24.1455 8.23975C24.1455 9.49707 23.3765 10.4736 22.1313 10.7788L22.1313 10.8521C23.8037 11.0718 24.8291 12.146 24.8291 13.6719C24.8291 15.6494 23.1567 16.9189 20.5566 16.9189ZM17.7124 10.2905L19.6045 10.2905C21.2891 10.2905 22.2046 9.66797 22.2046 8.55713C22.2046 7.53174 21.4478 6.89697 20.1782 6.89697L17.7124 6.89697ZM17.7124 15.4175L19.751 15.4175C21.8506 15.4175 22.8149 14.8438 22.8149 13.5986C22.8149 12.3779 21.9238 11.6821 20.3735 11.6821L17.7124 11.6821Z" fill="#5ac8f5"/>
 </g>
</svg>
