<?xml version="1.0" encoding="UTF-8"?>
<!--Generator: Apple Native CoreSVG 175.5-->
<!DOCTYPE svg
PUBLIC "-//W3C//DTD SVG 1.1//EN"
       "http://www.w3.org/Graphics/SVG/1.1/DTD/svg11.dtd">
<svg version="1.1" xmlns="http://www.w3.org/2000/svg" xmlns:xlink="http://www.w3.org/1999/xlink" width="26.3794" height="30.481">
 <g>
  <rect height="30.481" opacity="0" width="26.3794" x="0" y="0"/>
  <path d="M3.45459 18.9941L22.9248 18.9941C24.9634 18.9941 26.3794 17.6147 26.3794 15.7349L26.3794 14.4897C26.3794 12.6099 24.9634 11.2305 22.9248 11.2305L3.45459 11.2305C1.41602 11.2305 0 12.6099 0 14.4897L0 15.7349C0 17.6147 1.41602 18.9941 3.45459 18.9941ZM3.71094 17.1509C2.6123 17.1509 1.94092 16.4185 1.94092 15.4297L1.94092 14.7949C1.94092 13.8062 2.6123 13.0737 3.71094 13.0737L22.6685 13.0737C23.7671 13.0737 24.4385 13.8062 24.4385 14.7949L24.4385 15.4297C24.4385 16.4185 23.7671 17.1509 22.6685 17.1509ZM13.1958 30.2246C13.7207 30.2246 14.1602 29.7974 14.1602 29.2847L14.1602 25.2563L14.0869 23.2056L15.1367 24.3042L16.7236 25.8911C16.9067 26.0742 17.1387 26.1841 17.3828 26.1841C17.8955 26.1841 18.2861 25.8301 18.2861 25.3174C18.2861 25.0366 18.1641 24.8291 17.9565 24.6338L13.9038 20.8496C13.6475 20.6177 13.4399 20.5322 13.1958 20.5322C12.9395 20.5322 12.7441 20.6177 12.4756 20.8496L8.42285 24.6338C8.21533 24.8291 8.09326 25.0366 8.09326 25.3174C8.09326 25.8301 8.47168 26.1841 8.98438 26.1841C9.22852 26.1841 9.47266 26.0742 9.65576 25.8911L11.2549 24.3042L12.3047 23.2056L12.2192 25.2563L12.2192 29.2847C12.2192 29.7974 12.6709 30.2246 13.1958 30.2246ZM13.1958 9.70459C13.4399 9.70459 13.6475 9.60693 13.9038 9.375L17.9565 5.59082C18.1641 5.40771 18.2861 5.18799 18.2861 4.90723C18.2861 4.40674 17.8955 4.04053 17.3828 4.04053C17.1387 4.04053 16.9067 4.15039 16.7236 4.3335L15.1367 5.92041L14.0869 7.01904L14.1602 4.96826L14.1602 0.939941C14.1602 0.427246 13.7207 0 13.1958 0C12.6709 0 12.2192 0.427246 12.2192 0.939941L12.2192 4.96826L12.3047 7.01904L11.2549 5.92041L9.65576 4.3335C9.47266 4.15039 9.22852 4.04053 8.98438 4.04053C8.47168 4.04053 8.09326 4.40674 8.09326 4.90723C8.09326 5.18799 8.21533 5.40771 8.42285 5.59082L12.4756 9.375C12.7441 9.60693 12.9395 9.70459 13.1958 9.70459Z" fill="#5ac8f5"/>
 </g>
</svg>
