<?xml version="1.0" encoding="UTF-8"?>
<!--Generator: Apple Native CoreSVG 175.5-->
<!DOCTYPE svg
PUBLIC "-//W3C//DTD SVG 1.1//EN"
       "http://www.w3.org/Graphics/SVG/1.1/DTD/svg11.dtd">
<svg version="1.1" xmlns="http://www.w3.org/2000/svg" xmlns:xlink="http://www.w3.org/1999/xlink" width="23.4863" height="33.3862">
 <g>
  <rect height="33.3862" opacity="0" width="23.4863" x="0" y="0"/>
  <path d="M15.5884 18.7012C20.0195 18.7012 23.4863 13.9893 23.4863 8.10547C23.4863 3.479 20.2515 0 15.5884 0C10.9253 0 7.71484 3.479 7.71484 8.10547C7.71484 13.9893 11.1694 18.7012 15.5884 18.7012ZM13.8794 17.8589L13.3057 20.0562C13.1836 20.5444 13.4399 21.0693 14.0625 21.0693L17.1265 21.0693C17.749 21.0693 18.0176 20.5444 17.8833 20.0562L17.2974 17.8589ZM4.76074 20.4834L4.24805 22.4854C4.12598 22.9248 4.37012 23.3887 4.93164 23.3887L7.70264 23.3887C8.27637 23.3887 8.49609 22.9248 8.38623 22.4854L7.86133 20.4834ZM15.4419 33.2153C15.918 33.2153 16.3208 32.8125 16.3208 32.3364C16.3208 29.6631 18.75 29.0405 18.75 26.3306C18.75 23.5474 16.394 23.0225 16.4185 20.5933L14.6851 20.6055C14.6729 23.9136 17.0288 24.4263 17.0288 26.3306C17.0288 28.2715 14.5874 28.5645 14.5874 32.3364C14.5874 32.8125 14.9658 33.2153 15.4419 33.2153ZM6.20117 33.3862C6.64062 33.3862 6.99463 33.0322 6.99463 32.6172C6.99463 30.2856 9.04541 29.9683 9.04541 27.6489C9.04541 25.1953 7.05566 25.0732 7.08008 22.9248L5.54199 22.9248C5.51758 25.8545 7.51953 26.001 7.51953 27.6489C7.51953 29.2725 5.45654 29.2969 5.45654 32.6172C5.45654 33.0322 5.77393 33.3862 6.20117 33.3862ZM0 12.5977C0 17.4194 2.85645 21.3501 6.55518 21.3501C8.3252 21.3623 9.91211 20.4468 11.0718 18.9453C8.02002 16.8823 6.05469 12.7441 6.05469 8.10547C6.05469 7.2998 6.14014 6.54297 6.28662 5.79834C2.6001 5.93262 0 8.80127 0 12.5977Z" fill="#5ac8f5"/>
 </g>
</svg>
