<?xml version="1.0" encoding="UTF-8"?>
<!--Generator: Apple Native CoreSVG 175.5-->
<!DOCTYPE svg
PUBLIC "-//W3C//DTD SVG 1.1//EN"
       "http://www.w3.org/Graphics/SVG/1.1/DTD/svg11.dtd">
<svg version="1.1" xmlns="http://www.w3.org/2000/svg" xmlns:xlink="http://www.w3.org/1999/xlink" width="24.9023" height="24.9146">
 <g>
  <rect height="24.9146" opacity="0" width="24.9023" x="0" y="0"/>
  <path d="M12.4512 24.9023C19.2627 24.9023 24.9023 19.2505 24.9023 12.4512C24.9023 5.63965 19.2505 0 12.439 0C5.63965 0 0 5.63965 0 12.4512C0 19.2505 5.65186 24.9023 12.4512 24.9023ZM12.4512 22.8271C6.68945 22.8271 2.0874 18.2129 2.0874 12.4512C2.0874 6.68945 6.67725 2.0752 12.439 2.0752C18.2007 2.0752 22.8271 6.68945 22.8271 12.4512C22.8271 18.2129 18.2129 22.8271 12.4512 22.8271ZM10.0708 17.688C10.5713 17.688 10.8276 17.3462 10.8276 16.8701L10.8276 15.4297L11.4868 15.4297C11.9019 15.4297 12.1704 15.1855 12.1704 14.7583C12.1704 14.3188 11.9019 14.0625 11.4868 14.0625L10.8276 14.0625L10.8276 8.34961C10.8276 7.6416 10.3271 7.18994 9.61914 7.18994C8.91113 7.18994 8.48389 7.4585 8.08105 8.12988C7.06787 9.83887 5.83496 11.9385 5.00488 13.4155C4.80957 13.7939 4.73633 14.0625 4.73633 14.3921C4.73633 15.0391 5.16357 15.4297 5.78613 15.4297L9.35059 15.4297L9.35059 16.8701C9.35059 17.334 9.59473 17.688 10.0708 17.688ZM9.35059 14.0625L6.33545 14.0625L6.33545 14.0137C7.05566 12.6343 8.31299 10.4858 9.27734 8.83789L9.35059 8.83789ZM16.626 17.7124C18.689 17.7124 20.1416 16.4673 20.1416 14.7095C20.1416 13.4155 19.2383 12.3657 18.0054 12.2437L18.0054 12.1704C19.0186 11.9995 19.812 10.9863 19.812 9.83887C19.812 8.27637 18.5303 7.18994 16.6992 7.18994C15.0513 7.18994 13.8306 8.12988 13.5132 9.32617C13.4766 9.48486 13.4766 9.60693 13.4766 9.76562C13.4766 10.2051 13.7573 10.5103 14.1724 10.5103C14.5386 10.5103 14.7339 10.3149 14.856 9.92432C15.1245 9.06982 15.7227 8.59375 16.6626 8.59375C17.6392 8.59375 18.3105 9.17969 18.3105 10.0342C18.3105 10.9253 17.627 11.5723 16.6626 11.5723L15.9912 11.5723C15.6006 11.5723 15.332 11.853 15.332 12.2925C15.332 12.6831 15.6006 12.9883 15.9912 12.9883L16.7114 12.9883C17.8711 12.9883 18.6157 13.6475 18.6157 14.6362C18.6157 15.5884 17.8101 16.3086 16.6382 16.3086C15.6738 16.3086 15.0024 15.8325 14.6729 14.978C14.5264 14.5874 14.3311 14.3921 13.9771 14.3921C13.5742 14.3921 13.2812 14.6973 13.2812 15.1245C13.2812 15.2954 13.2935 15.4175 13.3423 15.5762C13.6597 16.6992 14.9536 17.7124 16.626 17.7124Z" fill="#5ac8f5"/>
 </g>
</svg>
