<?xml version="1.0" encoding="UTF-8"?>
<!--Generator: Apple Native CoreSVG 175.5-->
<!DOCTYPE svg
PUBLIC "-//W3C//DTD SVG 1.1//EN"
       "http://www.w3.org/Graphics/SVG/1.1/DTD/svg11.dtd">
<svg version="1.1" xmlns="http://www.w3.org/2000/svg" xmlns:xlink="http://www.w3.org/1999/xlink" width="18.2739" height="28.0151">
 <g>
  <rect height="28.0151" opacity="0" width="18.2739" x="0" y="0"/>
  <path d="M8.45947 3.8208L9.81445 3.8208L9.81445 0.671387C9.81445 0.292969 9.50928 0 9.13086 0C8.75244 0 8.45947 0.305176 8.45947 0.683594ZM9.13086 10.0464C11.2183 10.0464 12.8784 8.38623 12.8784 6.31104C12.8784 4.22363 11.2183 2.56348 9.13086 2.56348C7.05566 2.56348 5.39551 4.22363 5.39551 6.31104C5.39551 8.38623 7.05566 10.0464 9.13086 10.0464ZM9.13086 8.20312C8.03223 8.20312 7.23877 7.39746 7.23877 6.31104C7.23877 5.2124 8.03223 4.40674 9.13086 4.40674C10.2295 4.40674 11.0352 5.2124 11.0352 6.31104C11.0352 7.39746 10.2295 8.20312 9.13086 8.20312ZM8.63037 9.06982L6.71387 8.60596L2.00195 24.4385C1.84326 24.9512 2.17285 25.5005 2.69775 25.6348C3.22266 25.7812 3.74756 25.4761 3.90625 24.939ZM2.52686 23.7427L1.62354 27.124C1.53809 27.4658 1.72119 27.8198 2.0752 27.9053C2.4292 28.0029 2.771 27.8076 2.86865 27.4536L3.77197 24.0845ZM9.64355 9.06982L14.3677 24.939C14.5264 25.4761 15.0513 25.7812 15.5762 25.6348C16.1011 25.5005 16.4185 24.9512 16.272 24.4385L11.5601 8.60596ZM15.7471 23.7427L14.4897 24.0845L15.4053 27.4536C15.5029 27.8076 15.8447 28.0029 16.1987 27.9053C16.5405 27.8198 16.7358 27.4658 16.6382 27.124ZM0.805664 15.8447C0.354004 15.8447 0 16.1987 0 16.6382C0 17.0776 0.354004 17.4438 0.805664 17.4438L17.4683 17.4438C17.9077 17.4438 18.2739 17.0776 18.2739 16.6382C18.2739 16.1987 17.9077 15.8447 17.4683 15.8447ZM9.93652 14.5386C9.93652 14.0991 9.57031 13.7329 9.13086 13.7329C8.69141 13.7329 8.3374 14.0991 8.3374 14.5386L8.3374 18.7378C8.3374 19.1772 8.69141 19.5435 9.13086 19.5435C9.57031 19.5435 9.93652 19.1772 9.93652 18.7378Z" fill="#5ac8f5"/>
 </g>
</svg>
