<?xml version="1.0" encoding="UTF-8"?>
<!--Generator: Apple Native CoreSVG 175.5-->
<!DOCTYPE svg
PUBLIC "-//W3C//DTD SVG 1.1//EN"
       "http://www.w3.org/Graphics/SVG/1.1/DTD/svg11.dtd">
<svg version="1.1" xmlns="http://www.w3.org/2000/svg" xmlns:xlink="http://www.w3.org/1999/xlink" width="24.9023" height="24.9146">
 <g>
  <rect height="24.9146" opacity="0" width="24.9023" x="0" y="0"/>
  <path d="M12.4512 24.9023C19.2627 24.9023 24.9023 19.2505 24.9023 12.4512C24.9023 5.63965 19.2505 0 12.439 0C5.63965 0 0 5.63965 0 12.4512C0 19.2505 5.65186 24.9023 12.4512 24.9023Z" fill="#5ac8f5" fill-opacity="0.25"/>
  <path d="M9.2041 18.6035C8.69141 18.6035 8.31299 18.1641 8.41064 17.6392L8.92334 15.1611L7.78809 15.1611C7.37305 15.1611 7.06787 14.856 7.06787 14.4165C7.06787 13.9404 7.42188 13.5742 7.92236 13.5742L9.26514 13.5742L9.79004 11.0229L8.69141 11.0229C8.26416 11.0229 7.95898 10.7056 7.95898 10.2783C7.95898 9.79004 8.31299 9.42383 8.81348 9.42383L10.1318 9.42383L10.6689 6.84814C10.7666 6.37207 11.084 6.11572 11.5967 6.11572C12.1094 6.11572 12.4756 6.56738 12.3657 7.08008L11.8896 9.42383L14.2212 9.42383L14.7705 6.84814C14.8682 6.37207 15.1855 6.11572 15.6738 6.11572C16.1987 6.11572 16.5649 6.55518 16.4795 7.08008L15.979 9.42383L17.1021 9.42383C17.5171 9.42383 17.8223 9.74121 17.8223 10.1685C17.8223 10.6567 17.4683 11.0229 16.9678 11.0229L15.6494 11.0229L15.1123 13.5742L16.2109 13.5742C16.626 13.5742 16.9312 13.8916 16.9312 14.3188C16.9312 14.7949 16.5771 15.1611 16.0767 15.1611L14.7705 15.1611L14.209 17.8833C14.1113 18.3472 13.7817 18.6035 13.269 18.6035C12.7563 18.6035 12.3901 18.1641 12.5 17.6392L13.0127 15.1733L10.6812 15.1733L10.0952 17.8833C10.0098 18.3472 9.70459 18.6035 9.2041 18.6035ZM10.9009 13.7207L13.4155 13.7207L14.0259 10.8887L11.4868 10.8887Z" fill="#5ac8f5"/>
 </g>
</svg>
