<?xml version="1.0" encoding="UTF-8"?>
<!--Generator: Apple Native CoreSVG 175.5-->
<!DOCTYPE svg
PUBLIC "-//W3C//DTD SVG 1.1//EN"
       "http://www.w3.org/Graphics/SVG/1.1/DTD/svg11.dtd">
<svg version="1.1" xmlns="http://www.w3.org/2000/svg" xmlns:xlink="http://www.w3.org/1999/xlink" width="28.7354" height="26.0376">
 <g>
  <rect height="26.0376" opacity="0" width="28.7354" x="0" y="0"/>
  <path d="M19.6777 26.0376L26.7212 26.0376C27.9541 26.0376 28.7354 25.1709 28.7354 23.8159L28.7354 8.23975C28.7354 6.88477 27.9541 6.01807 26.7212 6.01807L20.2759 6.01807L20.2759 23.8159C20.2759 24.6338 20.0806 25.3784 19.6777 26.0376ZM23.0469 12.1948L23.0469 10.2417C23.0469 9.98535 23.2056 9.81445 23.4741 9.81445L25.5005 9.81445C25.7568 9.81445 25.9277 9.98535 25.9277 10.2417L25.9277 12.1948C25.9277 12.4512 25.7568 12.6343 25.5005 12.6343L23.4741 12.6343C23.2056 12.6343 23.0469 12.4512 23.0469 12.1948ZM23.0469 17.0044L23.0469 15.0513C23.0469 14.7949 23.2056 14.624 23.4741 14.624L25.5005 14.624C25.7568 14.624 25.9277 14.7949 25.9277 15.0513L25.9277 17.0044C25.9277 17.2607 25.7568 17.4316 25.5005 17.4316L23.4741 17.4316C23.2056 17.4316 23.0469 17.2607 23.0469 17.0044ZM23.0469 21.814L23.0469 19.8608C23.0469 19.6045 23.2056 19.4214 23.4741 19.4214L25.5005 19.4214C25.7568 19.4214 25.9277 19.6045 25.9277 19.8608L25.9277 21.814C25.9277 22.0703 25.7568 22.2412 25.5005 22.2412L23.4741 22.2412C23.2056 22.2412 23.0469 22.0703 23.0469 21.814ZM0 23.8159C0 25.1709 0.78125 26.0376 2.02637 26.0376L16.5771 26.0376C17.8223 26.0376 18.6035 25.1709 18.6035 23.8159L18.6035 2.23389C18.6035 0.878906 17.8223 0.012207 16.5771 0.012207L2.02637 0.012207C0.78125 0.012207 0 0.878906 0 2.23389ZM5.07812 24.0723L5.07812 20.105C5.07812 19.5435 5.44434 19.1772 6.00586 19.1772L12.7075 19.1772C13.269 19.1772 13.6353 19.5435 13.6353 20.105L13.6353 24.0723ZM4.67529 6.56738L4.67529 4.19922C4.67529 3.89404 4.87061 3.67432 5.17578 3.67432L7.61719 3.67432C7.92236 3.67432 8.14209 3.89404 8.14209 4.19922L8.14209 6.56738C8.14209 6.88477 7.92236 7.09229 7.61719 7.09229L5.17578 7.09229C4.87061 7.09229 4.67529 6.88477 4.67529 6.56738ZM10.5713 6.56738L10.5713 4.19922C10.5713 3.89404 10.7666 3.67432 11.084 3.67432L13.5132 3.67432C13.8184 3.67432 14.0381 3.89404 14.0381 4.19922L14.0381 6.56738C14.0381 6.88477 13.8184 7.09229 13.5132 7.09229L11.084 7.09229C10.7666 7.09229 10.5713 6.88477 10.5713 6.56738ZM4.67529 11.5479L4.67529 9.17969C4.67529 8.87451 4.87061 8.65479 5.17578 8.65479L7.61719 8.65479C7.92236 8.65479 8.14209 8.87451 8.14209 9.17969L8.14209 11.5479C8.14209 11.8652 7.92236 12.0728 7.61719 12.0728L5.17578 12.0728C4.87061 12.0728 4.67529 11.8652 4.67529 11.5479ZM10.5713 11.5479L10.5713 9.17969C10.5713 8.87451 10.7666 8.65479 11.084 8.65479L13.5132 8.65479C13.8184 8.65479 14.0381 8.87451 14.0381 9.17969L14.0381 11.5479C14.0381 11.8652 13.8184 12.0728 13.5132 12.0728L11.084 12.0728C10.7666 12.0728 10.5713 11.8652 10.5713 11.5479ZM4.67529 16.5283L4.67529 14.1602C4.67529 13.8428 4.87061 13.6353 5.17578 13.6353L7.61719 13.6353C7.92236 13.6353 8.14209 13.8428 8.14209 14.1602L8.14209 16.5283C8.14209 16.8335 7.92236 17.0532 7.61719 17.0532L5.17578 17.0532C4.87061 17.0532 4.67529 16.8335 4.67529 16.5283ZM10.5713 16.5283L10.5713 14.1602C10.5713 13.8428 10.7666 13.6353 11.084 13.6353L13.5132 13.6353C13.8184 13.6353 14.0381 13.8428 14.0381 14.1602L14.0381 16.5283C14.0381 16.8335 13.8184 17.0532 13.5132 17.0532L11.084 17.0532C10.7666 17.0532 10.5713 16.8335 10.5713 16.5283Z" fill="#5ac8f5"/>
 </g>
</svg>
