<?xml version="1.0" encoding="UTF-8"?>
<!--Generator: Apple Native CoreSVG 175.5-->
<!DOCTYPE svg
PUBLIC "-//W3C//DTD SVG 1.1//EN"
       "http://www.w3.org/Graphics/SVG/1.1/DTD/svg11.dtd">
<svg version="1.1" xmlns="http://www.w3.org/2000/svg" xmlns:xlink="http://www.w3.org/1999/xlink" width="22.4731" height="22.4976">
 <g>
  <rect height="22.4976" opacity="0" width="22.4731" x="0" y="0"/>
  <path d="M3.83301 22.4976L18.6401 22.4976C21.2036 22.4976 22.4731 21.228 22.4731 18.7134L22.4731 3.80859C22.4731 1.29395 21.2036 0.0244141 18.6401 0.0244141L3.83301 0.0244141C1.28174 0.0244141 0 1.28174 0 3.80859L0 18.7134C0 21.2402 1.28174 22.4976 3.83301 22.4976ZM8.02002 16.5161C7.55615 16.5161 7.23877 16.1987 7.23877 15.7104L7.23877 7.89795L7.16553 7.89795L5.83496 8.89893C5.54199 9.11865 5.41992 9.13086 5.2124 9.13086C4.84619 9.13086 4.49219 8.80127 4.49219 8.37402C4.49219 8.04443 4.65088 7.8125 4.90723 7.62939L6.82373 6.32324C7.27539 6.01807 7.51953 5.896 7.93457 5.896C8.47168 5.896 8.82568 6.27441 8.82568 6.79932L8.82568 15.7104C8.82568 16.1987 8.5083 16.5161 8.02002 16.5161ZM12.854 16.5283C12.3779 16.5283 12.0117 16.1865 12.0117 15.7104C12.0117 15.4663 12.0361 15.3198 12.146 15.1245L16.0522 7.59277L16.0522 7.48291L11.6333 7.48291C11.1938 7.48291 10.9009 7.20215 10.9009 6.78711C10.9009 6.35986 11.1938 6.06689 11.6333 6.06689L16.7114 6.06689C17.395 6.06689 17.8345 6.55518 17.8345 7.16553C17.8345 7.43408 17.7856 7.66602 17.5903 8.06885L13.6719 15.918C13.4399 16.3452 13.1958 16.5283 12.854 16.5283Z" fill="#5ac8f5"/>
 </g>
</svg>
