<?xml version="1.0" encoding="UTF-8"?>
<!--Generator: Apple Native CoreSVG 175.5-->
<!DOCTYPE svg
PUBLIC "-//W3C//DTD SVG 1.1//EN"
       "http://www.w3.org/Graphics/SVG/1.1/DTD/svg11.dtd">
<svg version="1.1" xmlns="http://www.w3.org/2000/svg" xmlns:xlink="http://www.w3.org/1999/xlink" width="24.9023" height="24.9146">
 <g>
  <rect height="24.9146" opacity="0" width="24.9023" x="0" y="0"/>
  <path d="M12.4512 24.9023C19.2627 24.9023 24.9023 19.2505 24.9023 12.4512C24.9023 5.63965 19.2505 0 12.439 0C5.63965 0 0 5.63965 0 12.4512C0 19.2505 5.65186 24.9023 12.4512 24.9023ZM12.4512 22.8271C6.68945 22.8271 2.0874 18.2129 2.0874 12.4512C2.0874 6.68945 6.67725 2.0752 12.439 2.0752C18.2007 2.0752 22.8271 6.68945 22.8271 12.4512C22.8271 18.2129 18.2129 22.8271 12.4512 22.8271Z" fill="#5ac8f5" fill-opacity="0.5"/>
  <path d="M12.439 19.2993C12.5977 19.2993 12.7319 19.2749 12.8906 19.2749L13.2324 19.9219C13.3423 20.1416 13.562 20.2637 13.8184 20.2271C14.0503 20.1782 14.2212 19.9951 14.2578 19.751L14.3677 19.0063C14.6484 18.9331 14.9414 18.8232 15.21 18.7134L15.7471 19.1895C15.918 19.3726 16.1499 19.397 16.4062 19.2749C16.6016 19.165 16.687 18.9453 16.6504 18.689L16.4917 17.9565C16.7725 17.7612 16.9922 17.5659 17.1753 17.395L17.8589 17.6636C18.103 17.7734 18.3228 17.7124 18.5059 17.5049C18.6646 17.3218 18.6768 17.0654 18.5425 16.8701L18.1519 16.2354C18.3228 15.979 18.4692 15.7227 18.5913 15.4541L19.3359 15.5029C19.5801 15.5029 19.7998 15.3687 19.873 15.1367C19.9585 14.8926 19.873 14.6606 19.6777 14.5142L19.104 14.0625C19.165 13.7817 19.2383 13.4766 19.2627 13.1592L19.9585 12.9517C20.2148 12.8662 20.3491 12.6709 20.3491 12.4268C20.3491 12.1826 20.2026 11.9873 19.9585 11.9019L19.2627 11.6821C19.2383 11.377 19.165 11.084 19.104 10.8032L19.6777 10.3394C19.8853 10.1807 19.9585 9.94873 19.873 9.729C19.7998 9.48486 19.5679 9.35059 19.3237 9.36279L18.5913 9.39941C18.4448 9.10645 18.2983 8.83789 18.1519 8.61816L18.5425 7.9834C18.6768 7.78809 18.6523 7.53174 18.4937 7.34863C18.3228 7.16553 18.103 7.09229 17.8711 7.18994L17.1753 7.4585C16.98 7.26318 16.748 7.08008 16.4917 6.89697L16.6504 6.17676C16.687 5.9082 16.6016 5.68848 16.4062 5.57861C16.1743 5.45654 15.918 5.48096 15.7471 5.66406L15.21 6.12793C14.9414 6.01807 14.6606 5.92041 14.3677 5.84717L14.2578 5.10254C14.2212 4.8584 14.0503 4.67529 13.8184 4.63867C13.5742 4.60205 13.3423 4.72412 13.2324 4.91943L12.8906 5.59082C12.7319 5.57861 12.6099 5.56641 12.439 5.56641C12.2925 5.56641 12.1338 5.57861 11.9995 5.59082L11.6333 4.91943C11.5356 4.69971 11.3037 4.60205 11.0596 4.63867C10.8276 4.67529 10.6567 4.8584 10.6079 5.10254L10.5225 5.83496C10.2173 5.92041 9.94873 6.03027 9.66797 6.12793L9.13086 5.67627C8.95996 5.49316 8.70361 5.45654 8.48389 5.57861C8.28857 5.68848 8.17871 5.9082 8.21533 6.17676L8.37402 6.89697C8.12988 7.08008 7.88574 7.26318 7.69043 7.4585L7.00684 7.18994C6.7749 7.09229 6.54297 7.16553 6.38428 7.34863C6.22559 7.51953 6.18896 7.77588 6.32324 7.97119L6.72607 8.61816C6.55518 8.87451 6.40869 9.14307 6.28662 9.39941L5.5542 9.36279C5.31006 9.35059 5.09033 9.48486 5.01709 9.729C4.91943 9.94873 4.99268 10.1685 5.18799 10.3394L5.77393 10.8032C5.68848 11.1206 5.65186 11.4014 5.61523 11.6821L4.91943 11.9019C4.67529 11.9873 4.52881 12.1826 4.52881 12.4268C4.52881 12.6709 4.67529 12.8662 4.91943 12.9517L5.61523 13.1714C5.65186 13.4399 5.68848 13.7451 5.77393 14.0625L5.18799 14.5142C4.99268 14.6606 4.91943 14.9048 5.00488 15.1367C5.09033 15.3687 5.29785 15.5029 5.54199 15.5029L6.28662 15.4541C6.40869 15.7227 6.55518 15.9668 6.71387 16.2354L6.32324 16.8701C6.18896 17.0776 6.22559 17.334 6.37207 17.5049C6.54297 17.7124 6.78711 17.7734 7.01904 17.6636L7.69043 17.395C7.87354 17.5659 8.10547 17.7612 8.37402 17.9565L8.21533 18.6768C8.17871 18.9331 8.27637 19.165 8.48389 19.2749C8.70361 19.397 8.95996 19.3726 9.13086 19.1895L9.66797 18.7134C9.94873 18.8232 10.2295 18.9331 10.5225 19.0186L10.6079 19.7388C10.6567 19.9951 10.8276 20.1782 11.0718 20.2271C11.3159 20.2637 11.5356 20.1416 11.6333 19.9219L11.9995 19.2749C12.1338 19.2749 12.2925 19.2993 12.439 19.2993ZM12.439 17.9443C9.38721 17.9443 6.99463 15.5151 6.99463 12.439C6.99463 9.35059 9.38721 6.92139 12.439 6.92139C15.4907 6.92139 17.8833 9.35059 17.8833 12.439C17.8833 15.5151 15.4907 17.9443 12.439 17.9443ZM12.4146 14.4165C13.2568 14.4165 13.9282 13.916 14.2822 13.0371L18.8354 13.0371L18.8354 11.8286L14.2822 11.8286C13.9282 10.9741 13.2568 10.498 12.4146 10.498C12.3169 10.498 12.1948 10.498 12.0239 10.5347L9.729 6.62842L8.66699 7.22656L10.9863 11.1816C10.6445 11.5723 10.4736 11.9873 10.4736 12.4634C10.4736 12.9028 10.6445 13.3301 10.9863 13.7085L8.58154 17.6147L9.64355 18.2617L12.0239 14.3677C12.1948 14.4165 12.3291 14.4165 12.4146 14.4165ZM11.7432 12.4512C11.7432 12.085 12.0605 11.7798 12.4268 11.7798C12.8296 11.7798 13.147 12.0728 13.147 12.4512C13.147 12.8174 12.8296 13.1348 12.4268 13.1348C12.0605 13.1348 11.7432 12.8174 11.7432 12.4512Z" fill="#5ac8f5"/>
 </g>
</svg>
