<?xml version="1.0" encoding="UTF-8"?>
<!--Generator: Apple Native CoreSVG 175.5-->
<!DOCTYPE svg
PUBLIC "-//W3C//DTD SVG 1.1//EN"
       "http://www.w3.org/Graphics/SVG/1.1/DTD/svg11.dtd">
<svg version="1.1" xmlns="http://www.w3.org/2000/svg" xmlns:xlink="http://www.w3.org/1999/xlink" width="30.1361" height="27.2583">
 <g>
  <rect height="27.2583" opacity="0" width="30.1361" x="0" y="0"/>
  <path d="M8.20562 5.56641C9.59722 5.56641 10.7325 4.43115 10.7325 3.03955C10.7325 1.64795 9.59722 0.524902 8.20562 0.524902C6.81402 0.524902 5.69097 1.64795 5.69097 3.03955C5.69097 4.43115 6.81402 5.56641 8.20562 5.56641ZM22.9395 5.0415C24.3311 5.0415 25.4664 3.90625 25.4664 2.51465C25.4664 1.13525 24.3311 0 22.9395 0C21.5479 0 20.4249 1.13525 20.4249 2.51465C20.4249 3.90625 21.5479 5.0415 22.9395 5.0415ZM1.17437 8.66699L3.75005 8.87451C3.92095 8.88672 4.04302 9.00879 4.04302 9.2041L4.04302 13.8794C4.04302 14.8193 4.3482 15.7349 4.92193 16.4551L7.93706 20.3369L6.39898 25.4517C6.19146 26.123 6.58208 26.8433 7.22906 27.0264C7.87603 27.2095 8.58404 26.9043 8.80376 26.1719L10.525 20.4224C10.5616 20.3125 10.5738 20.2271 10.5738 20.1172L15.2369 26.0132C15.6641 26.5503 16.4698 26.6602 16.9825 26.2329C17.5318 25.769 17.6294 25.0122 17.2022 24.4629L8.87701 13.9282L9.25542 10.1929C9.29205 9.92432 9.53619 9.79004 9.76812 9.8999L12.6612 11.3525C12.8565 11.4624 13.2105 11.5356 13.4913 11.5356L17.9468 11.5356C18.2398 11.5356 18.545 11.4258 18.7525 11.2427L20.8643 9.43604C21.0718 9.25293 21.3282 9.33838 21.4258 9.58252L22.6099 12.8784L17.6172 14.2456C17.1168 14.3799 16.7261 14.8193 16.6773 15.3442L16.1158 21.0938C16.0425 21.9116 16.7627 22.4609 17.3731 22.4609C18.0079 22.4609 18.5572 21.9971 18.6182 21.3379L19.0943 16.5527L22.5977 16.0156L20.9253 19.3848C20.7422 19.751 20.6446 20.1538 20.7911 20.5322L23.0982 26.2817C23.379 26.9775 24.1358 27.2217 24.7339 26.9775C25.3687 26.7212 25.6861 25.9888 25.4297 25.3418L23.379 20.2271L26.211 16.1987C26.9312 15.1978 27.1876 13.9038 26.9678 12.6953L26.5284 10.2783C26.4673 9.94873 26.7237 9.74121 27.0289 9.83887L28.4815 10.3271C29.4703 10.6689 30.2149 10.0586 30.1294 9.06982L29.5435 3.25928C29.4825 2.53906 28.8355 2.05078 28.1763 2.12402C27.5049 2.19727 26.98 2.80762 27.0411 3.51562L27.4317 7.34863L23.9649 6.18896C22.5489 5.71289 21.0474 5.96924 19.8755 6.98242L17.4952 9.0332L13.6377 9.0332L9.9146 7.17773C9.35308 6.88477 8.80376 6.73828 8.18121 6.68945L2.9688 6.29883L4.1773 2.64893C4.40923 1.97754 4.04302 1.26953 3.39605 1.0498C2.73687 0.830078 2.01665 1.18408 1.80913 1.84326L0.0635295 7.00684C-0.192818 7.78809 0.356498 8.60596 1.17437 8.66699Z" fill="#5ac8f5"/>
 </g>
</svg>
