<?xml version="1.0" encoding="UTF-8"?>
<!--Generator: Apple Native CoreSVG 175.5-->
<!DOCTYPE svg
PUBLIC "-//W3C//DTD SVG 1.1//EN"
       "http://www.w3.org/Graphics/SVG/1.1/DTD/svg11.dtd">
<svg version="1.1" xmlns="http://www.w3.org/2000/svg" xmlns:xlink="http://www.w3.org/1999/xlink" width="28.7842" height="22.4731">
 <g>
  <rect height="22.4731" opacity="0" width="28.7842" x="0" y="0"/>
  <path d="M3.83301 22.4731L24.9512 22.4731C27.5146 22.4731 28.7842 21.2158 28.7842 18.7012L28.7842 3.78418C28.7842 1.26953 27.5146 0 24.9512 0L3.83301 0C1.28174 0 0 1.26953 0 3.78418L0 18.7012C0 21.2158 1.28174 22.4731 3.83301 22.4731ZM3.85742 20.5078C2.63672 20.5078 1.96533 19.8608 1.96533 18.5913L1.96533 3.89404C1.96533 2.62451 2.63672 1.96533 3.85742 1.96533L24.9268 1.96533C26.1353 1.96533 26.8188 2.62451 26.8188 3.89404L26.8188 18.5913C26.8188 19.8608 26.1353 20.5078 24.9268 20.5078Z" fill="#5ac8f5" fill-opacity="0.5"/>
  <path d="M7.6416 10.4126L9.22852 10.4126C9.36279 9.58252 9.69238 8.81348 10.1807 8.1665L9.06982 7.04346C8.30078 7.99561 7.78809 9.15527 7.6416 10.4126ZM10.2417 5.87158L11.377 7.00684C12.0239 6.54297 12.7563 6.22559 13.5742 6.09131L13.5742 4.50439C12.3291 4.65088 11.1938 5.15137 10.2417 5.87158ZM15.2344 4.50439L15.2344 6.09131C16.04 6.22559 16.7847 6.54297 17.4194 6.99463L18.5425 5.88379C17.6147 5.15137 16.4673 4.66309 15.2344 4.50439ZM19.7388 7.05566L18.6157 8.17871C19.0918 8.82568 19.4336 9.58252 19.5557 10.4126L21.1426 10.4126C20.9839 9.15527 20.4834 8.00781 19.7388 7.05566ZM21.1426 12.085L19.5435 12.085C19.4092 12.8784 19.0918 13.623 18.6401 14.2578L19.7632 15.3809C20.4956 14.4531 20.9839 13.3057 21.1426 12.085ZM18.5791 16.5649L17.4561 15.4419C16.8213 15.9302 16.0645 16.272 15.2344 16.3818L15.2344 17.9932C16.4917 17.8345 17.6514 17.3218 18.5791 16.5649ZM13.5742 17.9932L13.5742 16.3818C12.7441 16.272 11.9873 15.9302 11.3403 15.4541L10.2051 16.5771C11.1572 17.334 12.3169 17.8345 13.5742 17.9932ZM9.0332 15.4053L10.1562 14.27C9.69238 13.6353 9.375 12.8906 9.24072 12.085L7.6416 12.085C7.80029 13.3179 8.28857 14.4653 9.0332 15.4053Z" fill="#5ac8f5"/>
 </g>
</svg>
