<?xml version="1.0" encoding="UTF-8"?>
<!--Generator: Apple Native CoreSVG 175.5-->
<!DOCTYPE svg
PUBLIC "-//W3C//DTD SVG 1.1//EN"
       "http://www.w3.org/Graphics/SVG/1.1/DTD/svg11.dtd">
<svg version="1.1" xmlns="http://www.w3.org/2000/svg" xmlns:xlink="http://www.w3.org/1999/xlink" width="32.8125" height="23.938">
 <g>
  <rect height="23.938" opacity="0" width="32.8125" x="0" y="0"/>
  <path d="M0 17.2607C0 17.5293 0.134277 17.8467 0.341797 18.0542L5.7251 23.5718C5.95703 23.8159 6.23779 23.938 6.54297 23.938C6.83594 23.938 7.1167 23.8159 7.34863 23.5718L12.7441 18.0542C12.9517 17.8467 13.0737 17.5293 13.0737 17.2607C13.0737 16.6138 12.6343 16.1865 11.9995 16.1865C11.6821 16.1865 11.438 16.2842 11.2549 16.4795L9.48486 18.3472L7.50732 20.6177L7.62939 17.7979L7.62939 6.14014L7.50732 3.32031L9.48486 5.59082L11.2549 7.4585C11.438 7.65381 11.6821 7.75146 11.9995 7.75146C12.6343 7.75146 13.0737 7.32422 13.0737 6.67725C13.0737 6.40869 12.9517 6.09131 12.7441 5.88379L7.34863 0.366211C7.1167 0.12207 6.83594 0 6.54297 0C6.23779 0 5.95703 0.12207 5.7251 0.366211L0.341797 5.88379C0.134277 6.09131 0 6.40869 0 6.67725C0 7.32422 0.439453 7.75146 1.07422 7.75146C1.3916 7.75146 1.64795 7.6416 1.81885 7.4585L3.60107 5.59082L5.56641 3.32031L5.44434 6.14014L5.44434 17.7979L5.56641 20.6177L3.60107 18.3472L1.81885 16.4795C1.64795 16.2964 1.3916 16.1865 1.07422 16.1865C0.439453 16.1865 0 16.6138 0 17.2607ZM15.4541 8.74023C15.4541 9.09424 15.7227 9.375 16.1011 9.42383C21.8506 10.0708 22.6929 10.8765 23.4619 16.8091C23.5229 17.1753 23.8037 17.4194 24.1333 17.4194C24.4751 17.4194 24.7559 17.1753 24.8169 16.8091C25.5859 10.8765 26.416 10.0708 32.1655 9.42383C32.5562 9.375 32.8125 9.09424 32.8125 8.74023C32.8125 8.38623 32.5562 8.10547 32.1655 8.05664C26.4282 7.40967 25.5859 6.5918 24.8169 0.671387C24.7559 0.317383 24.4873 0.0732422 24.1333 0.0732422C23.7915 0.0732422 23.5229 0.317383 23.4619 0.671387C22.644 6.55518 21.8628 7.2876 16.1011 8.05664C15.7227 8.10547 15.4541 8.38623 15.4541 8.74023ZM14.2944 19.3726C14.2944 19.6167 14.4653 19.8242 14.7339 19.8853C17.8467 20.4712 17.9077 20.4346 18.2617 23.3643C18.3105 23.645 18.5059 23.8525 18.7744 23.8525C19.0552 23.8525 19.2505 23.6572 19.2993 23.3765C19.6899 20.3125 19.8242 20.3125 22.8027 19.8853C23.0835 19.8364 23.2666 19.6289 23.2666 19.3726C23.2666 19.1284 23.0957 18.9087 22.8149 18.8599C19.7876 18.2739 19.7021 18.3472 19.2993 15.3564C19.2505 15.0879 19.043 14.8926 18.7744 14.8926C18.5059 14.8926 18.3105 15.1001 18.2617 15.3809C17.9077 18.3105 17.8345 18.3594 14.7827 18.8599C14.4775 18.9087 14.2944 19.104 14.2944 19.3726Z" fill="#5ac8f5"/>
 </g>
</svg>
