<?xml version="1.0" encoding="UTF-8"?>
<!--Generator: Apple Native CoreSVG 175.5-->
<!DOCTYPE svg
PUBLIC "-//W3C//DTD SVG 1.1//EN"
       "http://www.w3.org/Graphics/SVG/1.1/DTD/svg11.dtd">
<svg version="1.1" xmlns="http://www.w3.org/2000/svg" xmlns:xlink="http://www.w3.org/1999/xlink" width="22.4731" height="22.4976">
 <g>
  <rect height="22.4976" opacity="0" width="22.4731" x="0" y="0"/>
  <path d="M3.83301 22.4976L18.6401 22.4976C21.2036 22.4976 22.4731 21.228 22.4731 18.7134L22.4731 3.80859C22.4731 1.29395 21.2036 0.0244141 18.6401 0.0244141L3.83301 0.0244141C1.28174 0.0244141 0 1.28174 0 3.80859L0 18.7134C0 21.2402 1.28174 22.4976 3.83301 22.4976ZM3.85742 20.5322C2.63672 20.5322 1.96533 19.8853 1.96533 18.6157L1.96533 3.90625C1.96533 2.63672 2.63672 1.98975 3.85742 1.98975L18.6157 1.98975C19.8242 1.98975 20.5078 2.63672 20.5078 3.90625L20.5078 18.6157C20.5078 19.8853 19.8242 20.5322 18.6157 20.5322ZM11.2427 16.4062C16.0889 16.4062 19.458 12.4756 19.458 11.2549C19.458 10.022 16.0767 6.09131 11.2427 6.09131C6.40869 6.09131 3.01514 10.022 3.01514 11.2549C3.01514 12.4756 6.44531 16.4062 11.2427 16.4062ZM11.2427 14.624C9.36279 14.624 7.86133 13.0859 7.86133 11.2549C7.84912 9.36279 9.36279 7.87354 11.2427 7.87354C13.1104 7.87354 14.624 9.36279 14.624 11.2549C14.624 13.0859 13.1104 14.624 11.2427 14.624ZM11.2671 12.7319C12.0483 12.7319 12.7319 12.0361 12.7319 11.2549C12.7319 10.4614 12.0483 9.76562 11.2671 9.76562C10.4492 9.76562 9.75342 10.4614 9.75342 11.2549C9.75342 12.0361 10.4492 12.7319 11.2671 12.7319Z" fill="#5ac8f5"/>
 </g>
</svg>
