<?xml version="1.0" encoding="UTF-8"?>
<!--Generator: Apple Native CoreSVG 175.5-->
<!DOCTYPE svg
PUBLIC "-//W3C//DTD SVG 1.1//EN"
       "http://www.w3.org/Graphics/SVG/1.1/DTD/svg11.dtd">
<svg version="1.1" xmlns="http://www.w3.org/2000/svg" xmlns:xlink="http://www.w3.org/1999/xlink" width="24.0723" height="23.1812">
 <g>
  <rect height="23.1812" opacity="0" width="24.0723" x="0" y="0"/>
  <path d="M5.32227 10.6323C8.23975 10.6323 10.6445 8.22754 10.6445 5.31006C10.6445 2.39258 8.23975 0 5.32227 0C2.38037 0 0 2.39258 0 5.31006C0 8.22754 2.38037 10.6323 5.32227 10.6323ZM18.7622 10.6323C21.6797 10.6323 24.0723 8.22754 24.0723 5.31006C24.0723 2.39258 21.6797 0 18.7622 0C15.8203 0 13.4399 2.39258 13.4399 5.31006C13.4399 8.22754 15.8203 10.6323 18.7622 10.6323ZM5.32227 23.1812C8.23975 23.1812 10.6445 20.7764 10.6445 17.8589C10.6445 14.9536 8.23975 12.5488 5.32227 12.5488C2.38037 12.5488 0 14.9536 0 17.8589C0 20.7764 2.38037 23.1812 5.32227 23.1812ZM18.7622 23.1812C21.6797 23.1812 24.0723 20.7764 24.0723 17.8589C24.0723 14.9536 21.6797 12.5488 18.7622 12.5488C15.8203 12.5488 13.4399 14.9536 13.4399 17.8589C13.4399 20.7764 15.8203 23.1812 18.7622 23.1812Z" fill="#5ac8f5"/>
 </g>
</svg>
