<?xml version="1.0" encoding="UTF-8"?>
<!--Generator: Apple Native CoreSVG 175.5-->
<!DOCTYPE svg
PUBLIC "-//W3C//DTD SVG 1.1//EN"
       "http://www.w3.org/Graphics/SVG/1.1/DTD/svg11.dtd">
<svg version="1.1" xmlns="http://www.w3.org/2000/svg" xmlns:xlink="http://www.w3.org/1999/xlink" width="24.9023" height="24.9146">
 <g>
  <rect height="24.9146" opacity="0" width="24.9023" x="0" y="0"/>
  <path d="M12.4512 24.9146C19.2627 24.9146 24.9023 19.2749 24.9023 12.4634C24.9023 5.66406 19.2505 0.012207 12.439 0.012207C5.63965 0.012207 0 5.66406 0 12.4634C0 19.2749 5.65186 24.9146 12.4512 24.9146Z" fill="#5ac8f5" fill-opacity="0.25"/>
  <path d="M9.68018 18.2373C9.021 18.2373 8.6792 17.7734 8.6792 17.0898L8.6792 7.75146C8.6792 7.08008 9.021 6.604 9.66797 6.604L15.7227 6.604C16.2109 6.604 16.5649 6.92139 16.5649 7.44629C16.5649 7.93457 16.2109 8.26416 15.7227 8.26416L10.6934 8.26416L10.6934 11.6333L15.2344 11.6333C15.7227 11.6333 16.0767 11.9141 16.0767 12.4268C16.0767 12.9395 15.7227 13.208 15.2344 13.208L10.6934 13.208L10.6934 17.0898C10.6934 17.7979 10.3394 18.2373 9.68018 18.2373Z" fill="#5ac8f5"/>
 </g>
</svg>
