<?xml version="1.0" encoding="UTF-8"?>
<!--Generator: Apple Native CoreSVG 175.5-->
<!DOCTYPE svg
PUBLIC "-//W3C//DTD SVG 1.1//EN"
       "http://www.w3.org/Graphics/SVG/1.1/DTD/svg11.dtd">
<svg version="1.1" xmlns="http://www.w3.org/2000/svg" xmlns:xlink="http://www.w3.org/1999/xlink" width="28.9373" height="29.5776">
 <g>
  <rect height="29.5776" opacity="0" width="28.9373" x="0" y="0"/>
  <path d="M18.398 7.23877C19.8629 7.23877 21.0714 6.04248 21.0714 4.57764C21.0714 3.11279 19.8629 1.9043 18.398 1.9043C16.9332 1.9043 15.7369 3.11279 15.7369 4.57764C15.7369 6.04248 16.9332 7.23877 18.398 7.23877ZM10.1095 23.0225C10.6588 23.4009 11.4522 23.2788 11.8551 22.7295L14.7359 18.7012L17.4581 19.165L14.7726 23.1689C14.3941 23.7549 14.5284 24.5605 15.1266 24.9023C15.8346 25.3174 16.5182 25.0854 16.86 24.5605L20.4976 19.0918C20.9615 18.3716 20.7174 17.2485 19.6676 16.9922L14.6749 15.7959C14.1866 15.6738 14.0035 15.2588 14.2843 14.8315L16.3961 11.6821C16.5426 11.4502 16.8233 11.4014 17.0431 11.5601L20.107 13.6597C20.2657 13.7573 20.4122 13.8306 20.5953 13.855L27.4557 15.1123C28.066 15.2222 28.7984 14.8315 28.9205 14.0991C29.0304 13.4277 28.5909 12.7686 27.9195 12.6587L21.3155 11.4502L11.1349 4.49219L14.0523 2.40479C14.6261 2.00195 14.7481 1.2207 14.3575 0.671387C13.9425 0.109863 13.1612-0.0244141 12.6119 0.366211L8.24179 3.49121C7.52157 4.01611 7.50937 5.0415 8.254 5.54199L11.9771 8.09326C12.1847 8.25195 12.2457 8.52051 12.087 8.72803L8.98642 13.2446C7.69247 15.1245 8.49814 17.6758 11.0372 18.0908L11.9771 18.2495L9.8165 21.2646C9.41366 21.8262 9.53573 22.6196 10.1095 23.0225ZM0.246184 19.0308C-0.0467848 19.2871-0.120027 19.751 0.258391 20.0928C5.9957 25.1831 16.3351 29.5776 26.8209 29.5776C27.1993 29.5776 27.4923 29.2847 27.4923 28.9062C27.4923 28.5278 27.1993 28.2227 26.8209 28.2227C16.6402 28.2227 6.7037 24.0112 1.1495 19.0552C0.832121 18.7744 0.478118 18.8232 0.246184 19.0308ZM1.00302 24.2798C1.97958 24.2798 3.42001 23.9014 4.71396 23.0957L2.82187 21.228C2.12607 22.0703 1.68661 22.4365 0.734465 22.9614C0.368254 23.1812 0.22177 23.4985 0.319426 23.8159C0.380461 24.0601 0.636809 24.2798 1.00302 24.2798Z" fill="#5ac8f5"/>
 </g>
</svg>
