<?xml version="1.0" encoding="UTF-8"?>
<!--Generator: Apple Native CoreSVG 175.5-->
<!DOCTYPE svg
PUBLIC "-//W3C//DTD SVG 1.1//EN"
       "http://www.w3.org/Graphics/SVG/1.1/DTD/svg11.dtd">
<svg version="1.1" xmlns="http://www.w3.org/2000/svg" xmlns:xlink="http://www.w3.org/1999/xlink" width="24.9023" height="24.9146">
 <g>
  <rect height="24.9146" opacity="0" width="24.9023" x="0" y="0"/>
  <path d="M12.4512 24.9146C19.2627 24.9146 24.9023 19.2749 24.9023 12.4634C24.9023 5.66406 19.2505 0.012207 12.439 0.012207C5.63965 0.012207 0 5.66406 0 12.4634C0 19.2749 5.65186 24.9146 12.4512 24.9146ZM9.14307 17.9321C7.60498 17.9321 6.56738 16.8335 6.56738 15.4175C6.56738 14.0869 7.6416 12.9761 8.99658 12.9395C9.2041 11.6577 10.2783 10.7056 11.5967 10.7056C11.9019 10.7056 12.1582 10.7422 12.4634 10.8398C13.0371 9.97314 14.0137 9.42383 15.1245 9.42383C16.8335 9.42383 18.2007 10.791 18.2983 12.4512C19.5801 12.7075 20.5444 13.8306 20.5444 15.1733C20.5444 16.7236 19.3726 17.9321 17.6514 17.9321ZM3.88184 11.7432C3.88184 10.4004 4.83398 9.27734 6.14014 9.021C6.22559 7.34863 7.62939 5.99365 9.32617 5.99365C10.4126 5.99365 11.377 6.54297 11.9629 7.43408C12.2559 7.33643 12.5244 7.26318 12.8418 7.26318C14.0015 7.26318 14.7217 7.88574 14.9048 8.54492C13.8062 8.59375 12.8174 9.05762 12.1216 9.83887C11.9507 9.81445 11.7676 9.80225 11.5967 9.80225C10.0586 9.80225 8.77686 10.7666 8.27637 12.146C7.14111 12.4146 6.21338 13.2568 5.84717 14.3555C4.61426 13.9526 3.88184 12.9395 3.88184 11.7432Z" fill="#5ac8f5"/>
 </g>
</svg>
