<?xml version="1.0" encoding="UTF-8"?>
<!--Generator: Apple Native CoreSVG 175.5-->
<!DOCTYPE svg
PUBLIC "-//W3C//DTD SVG 1.1//EN"
       "http://www.w3.org/Graphics/SVG/1.1/DTD/svg11.dtd">
<svg version="1.1" xmlns="http://www.w3.org/2000/svg" xmlns:xlink="http://www.w3.org/1999/xlink" width="20.2881" height="25.3052">
 <g>
  <rect height="25.3052" opacity="0" width="20.2881" x="0" y="0"/>
  <path d="M10.144 25.3052C10.3394 25.3052 10.6567 25.2319 10.9619 25.061C17.9077 21.167 20.2881 19.519 20.2881 15.0635L20.2881 5.7251C20.2881 4.44336 19.7388 4.04053 18.7012 3.60107C17.2607 3.00293 12.6099 1.33057 11.1694 0.830078C10.8398 0.720215 10.4858 0.646973 10.144 0.646973C9.80225 0.646973 9.44824 0.744629 9.13086 0.830078C7.69043 1.24512 3.02734 3.01514 1.58691 3.60107C0.561523 4.02832 0 4.44336 0 5.7251L0 15.0635C0 19.519 2.39258 21.1548 9.32617 25.061C9.64355 25.2319 9.94873 25.3052 10.144 25.3052ZM10.144 23.0957C9.94873 23.0957 9.75342 23.0225 9.38721 22.8027C3.74756 19.3848 1.94092 18.3838 1.94092 14.6118L1.94092 6.10352C1.94092 5.68848 2.01416 5.52979 2.35596 5.39551C4.21143 4.66309 7.8125 3.45459 9.65576 2.72217C9.85107 2.63672 10.0098 2.6123 10.144 2.6123C10.2783 2.6123 10.437 2.64893 10.6323 2.72217C12.4756 3.45459 16.0522 4.74854 17.9443 5.39551C18.2739 5.51758 18.3472 5.68848 18.3472 6.10352L18.3472 14.6118C18.3472 18.3838 16.5405 19.3726 10.9009 22.8027C10.5469 23.0225 10.3394 23.0957 10.144 23.0957Z" fill="#5ac8f5" fill-opacity="0.5"/>
  <path d="M5.7373 17.1997C5.7373 18.1152 6.14014 18.5425 6.98242 18.5425L13.3057 18.5425C14.1479 18.5425 14.5508 18.1152 14.5508 17.1997L14.5508 12.3413C14.5508 11.4868 14.1968 11.0596 13.4766 11.0107L13.4766 9.57031C13.4766 7.32422 12.1338 5.82275 10.144 5.82275C8.1543 5.82275 6.81152 7.32422 6.81152 9.57031L6.81152 11.0107C6.09131 11.0596 5.7373 11.4868 5.7373 12.3413ZM8.08105 10.9985L8.08105 9.43604C8.08105 7.99561 8.91113 7.05566 10.144 7.05566C11.377 7.05566 12.207 7.99561 12.207 9.43604L12.207 10.9985Z" fill="#5ac8f5"/>
 </g>
</svg>
