<?xml version="1.0" encoding="UTF-8"?>
<!--Generator: Apple Native CoreSVG 175.5-->
<!DOCTYPE svg
PUBLIC "-//W3C//DTD SVG 1.1//EN"
       "http://www.w3.org/Graphics/SVG/1.1/DTD/svg11.dtd">
<svg version="1.1" xmlns="http://www.w3.org/2000/svg" xmlns:xlink="http://www.w3.org/1999/xlink" width="25.3906" height="24.0845">
 <g>
  <rect height="24.0845" opacity="0" width="25.3906" x="0" y="0"/>
  <path d="M1.37939 23.6084C1.68457 23.6084 2.00195 23.4985 2.39258 23.2788L8.60596 19.9341L15.3564 23.7183C15.7959 23.9624 16.272 24.0845 16.7236 24.0845C17.1509 24.0845 17.5781 23.9746 17.9443 23.7671L24.3286 20.1416C25.061 19.7388 25.3906 19.1528 25.3906 18.335L25.3906 1.89209C25.3906 0.98877 24.8901 0.488281 24.0112 0.488281C23.7061 0.488281 23.3887 0.585938 22.9858 0.805664L16.5161 4.40674L9.8877 0.341797C9.50928 0.12207 9.08203 0 8.65479 0C8.21533 0 7.77588 0.12207 7.39746 0.341797L1.0498 3.95508C0.32959 4.37012 0 4.95605 0 5.77393L0 22.1924C0 23.0957 0.500488 23.6084 1.37939 23.6084ZM7.8125 17.9932L2.30713 21.0205C2.24609 21.0449 2.18506 21.0815 2.12402 21.0815C2.02637 21.0815 1.96533 21.0083 1.96533 20.8862L1.96533 6.25C1.96533 5.95703 2.0752 5.74951 2.36816 5.57861L7.37305 2.64893C7.53174 2.56348 7.66602 2.49023 7.8125 2.40479ZM9.77783 18.1885L9.77783 2.66113C9.8999 2.73438 10.0464 2.80762 10.1685 2.88086L15.6128 6.20117L15.6128 21.46C15.4419 21.3623 15.2588 21.2769 15.0757 21.1792ZM17.5781 21.6797L17.5781 6.0791L23.0835 3.07617C23.1445 3.03955 23.2056 3.01514 23.2544 3.01514C23.3643 3.01514 23.4253 3.08838 23.4253 3.21045L23.4253 17.8467C23.4253 18.1519 23.3032 18.3594 23.0225 18.5303L18.1274 21.3745C17.9443 21.4844 17.7612 21.5942 17.5781 21.6797Z" fill="#5ac8f5"/>
 </g>
</svg>
