<?xml version="1.0" encoding="UTF-8"?>
<!--Generator: Apple Native CoreSVG 175.5-->
<!DOCTYPE svg
PUBLIC "-//W3C//DTD SVG 1.1//EN"
       "http://www.w3.org/Graphics/SVG/1.1/DTD/svg11.dtd">
<svg version="1.1" xmlns="http://www.w3.org/2000/svg" xmlns:xlink="http://www.w3.org/1999/xlink" width="23.4747" height="23.8502">
 <g>
  <rect height="23.8502" opacity="0" width="23.4747" x="0" y="0"/>
  <path d="M20.7639 21.1597C23.8034 18.1201 24.2917 14.3482 22.2043 9.95364L19.4577 4.16751C19.2624 3.76468 19.0305 3.43509 18.7742 3.17874C17.8586 2.26321 16.5281 2.31204 15.6492 3.19095C15.051 3.78909 14.8679 4.68021 15.2585 5.64456L16.0764 7.59769C16.1008 7.64651 16.1008 7.69534 16.0642 7.73196C16.0154 7.76858 15.9665 7.75638 15.9177 7.71976L8.99632 0.79837C7.99534-0.214814 6.72581-0.214814 5.76146 0.749542C5.40745 1.09134 5.21214 1.543 5.19993 2.00687C4.19896 1.23782 3.08812 1.26224 2.23362 2.11673C1.39134 2.95901 1.36693 4.10648 2.08714 5.08304C1.64769 5.08304 1.23265 5.27835 0.915265 5.59573C0.0241519 6.48685 0.048566 7.70755 1.00071 8.6597L1.96507 9.62405C1.489 9.61185 1.01292 9.83157 0.646711 10.1978C-0.25661 11.1011-0.207782 12.3828 0.756574 13.3472L8.17845 20.7691C12.219 24.8096 17.114 24.8096 20.7639 21.1597ZM19.531 20.0122C16.4792 23.064 12.6462 22.9663 9.17943 19.4873L2.02611 12.334C1.64769 11.9678 1.63548 11.4673 1.98948 11.1133C2.34349 10.7593 2.85618 10.7593 3.22239 11.1255L7.64134 15.5323C7.95872 15.8496 8.42259 15.813 8.70335 15.5323C9.00853 15.2393 9.04515 14.7632 8.72777 14.4458L2.13597 7.84183C1.76976 7.47562 1.74534 6.98733 2.09935 6.63333C2.45335 6.26712 2.97825 6.26712 3.34446 6.63333L9.49681 12.7979C9.81419 13.1153 10.2903 13.0664 10.571 12.7857C10.864 12.4927 10.9128 12.0166 10.5954 11.6992L3.36888 4.47269C3.00267 4.10648 2.97825 3.59378 3.34446 3.23978C3.68626 2.88577 4.21116 2.89798 4.57737 3.26419L11.8039 10.4908C12.0969 10.7959 12.573 10.7837 12.8659 10.4908C13.1711 10.1856 13.1955 9.6973 12.9026 9.40433L6.73802 3.23978C6.37181 2.87357 6.3596 2.37308 6.71361 2.00687C7.07982 1.65286 7.5803 1.66507 7.94652 2.03128L16.4426 10.5274C16.8699 10.9668 17.3826 10.9546 17.7366 10.6006C18.0417 10.2954 18.176 9.89261 17.9319 9.25784L16.406 5.25394C16.1985 4.70462 16.3938 4.26517 16.8088 4.06985C17.2727 3.86233 17.6877 4.08206 17.9563 4.65579L20.7883 10.6372C22.6804 14.6411 21.9358 17.5952 19.531 20.0122Z" fill="#5ac8f5"/>
 </g>
</svg>
