<?xml version="1.0" encoding="UTF-8"?>
<!--Generator: Apple Native CoreSVG 175.5-->
<!DOCTYPE svg
PUBLIC "-//W3C//DTD SVG 1.1//EN"
       "http://www.w3.org/Graphics/SVG/1.1/DTD/svg11.dtd">
<svg version="1.1" xmlns="http://www.w3.org/2000/svg" xmlns:xlink="http://www.w3.org/1999/xlink" width="24.9023" height="24.9146">
 <g>
  <rect height="24.9146" opacity="0" width="24.9023" x="0" y="0"/>
  <path d="M12.4512 24.9023C19.2627 24.9023 24.9023 19.2505 24.9023 12.4512C24.9023 5.63965 19.2505 0 12.439 0C5.63965 0 0 5.63965 0 12.4512C0 19.2505 5.65186 24.9023 12.4512 24.9023Z" fill="#5ac8f5" fill-opacity="0.25"/>
  <path d="M7.34863 12.4634C7.34863 8.77686 9.375 6.40869 12.4512 6.40869C14.4653 6.40869 16.1743 7.54395 16.7603 9.19189C16.8335 9.39941 16.8701 9.61914 16.8701 9.83887C16.8701 10.3027 16.5771 10.6079 16.1011 10.6079C15.6494 10.6079 15.4297 10.3394 15.2954 9.94873C14.8926 8.78906 13.8062 7.94678 12.439 7.94678C10.376 7.94678 9.04541 9.7168 9.04541 12.4512C9.04541 14.7949 9.98535 16.4185 11.5479 16.8701L11.5479 12.4512C11.5479 12.0728 11.8042 11.8042 12.1704 11.8042C12.5244 11.8042 12.793 12.0483 12.793 12.4512L12.793 12.9761C13.1836 12.2314 13.9038 11.8408 14.6606 11.8408C15.3442 11.8408 15.8081 12.146 15.8081 12.5977C15.8081 12.9272 15.5518 13.1592 15.1855 13.1592C15.0391 13.1592 14.8682 13.1104 14.6118 13.1104C13.5498 13.1104 12.8052 13.9526 12.8052 15.1611L12.8052 16.98C14.0747 16.8701 15.0635 16.1011 15.3809 15.0269C15.5151 14.5874 15.7593 14.3677 16.1865 14.3677C16.6626 14.3677 16.9678 14.6729 16.9678 15.1245C16.9556 15.3442 16.9189 15.5396 16.8457 15.7349C16.2598 17.4072 14.6729 18.5181 12.4512 18.5181C9.375 18.5181 7.34863 16.1987 7.34863 12.4634Z" fill="#5ac8f5"/>
 </g>
</svg>
