<?xml version="1.0" encoding="UTF-8"?>
<!--Generator: Apple Native CoreSVG 175.5-->
<!DOCTYPE svg
PUBLIC "-//W3C//DTD SVG 1.1//EN"
       "http://www.w3.org/Graphics/SVG/1.1/DTD/svg11.dtd">
<svg version="1.1" xmlns="http://www.w3.org/2000/svg" xmlns:xlink="http://www.w3.org/1999/xlink" width="24.9023" height="24.9146">
 <g>
  <rect height="24.9146" opacity="0" width="24.9023" x="0" y="0"/>
  <path d="M0 12.4512C0 19.2505 5.65186 24.9023 12.4512 24.9023C19.2627 24.9023 24.9023 19.2505 24.9023 12.4512C24.9023 5.63965 19.2505 0 12.439 0C5.63965 0 0 5.63965 0 12.4512ZM2.0874 12.4512L12.4268 12.4512L7.25098 3.45459C8.76465 2.56348 10.5469 2.0752 12.439 2.0752C14.3311 2.0752 16.1133 2.56348 17.627 3.45459L12.4268 12.4512L22.8271 12.4512C22.8394 16.3208 20.752 19.6777 17.6392 21.4478L12.4268 12.4512L7.25098 21.4355C4.15039 19.6533 2.0874 16.3086 2.0874 12.4512Z" fill="#5ac8f5"/>
 </g>
</svg>
