<?xml version="1.0" encoding="UTF-8"?>
<!--Generator: Apple Native CoreSVG 175.5-->
<!DOCTYPE svg
PUBLIC "-//W3C//DTD SVG 1.1//EN"
       "http://www.w3.org/Graphics/SVG/1.1/DTD/svg11.dtd">
<svg version="1.1" xmlns="http://www.w3.org/2000/svg" xmlns:xlink="http://www.w3.org/1999/xlink" width="24.1373" height="25.8179">
 <g>
  <rect height="25.8179" opacity="0" width="24.1373" x="0" y="0"/>
  <path d="M0.178998 21.7896C-0.455768 24.3286 0.618451 25.7935 3.07206 25.7935L21.0652 25.7935C23.5188 25.7935 24.5931 24.3286 23.9583 21.7896L21.2605 10.8887C20.8089 9.09424 19.5149 8.05664 17.6961 8.05664L6.4412 8.05664C4.62236 8.05664 3.3162 9.09424 2.87675 10.8887ZM11.0799 9.48486L13.0452 9.48486L13.0452 6.00586L11.0799 6.00586ZM12.0686 6.95801C13.9607 6.95801 15.5599 5.3833 15.5599 3.49121C15.5599 1.58691 13.9607 0 12.0686 0C10.1643 0 8.57744 1.58691 8.57744 3.49121C8.57744 5.39551 10.1766 6.95801 12.0686 6.95801ZM12.0686 5.26123C11.1043 5.26123 10.2864 4.45557 10.2864 3.49121C10.2864 2.52686 11.0921 1.69678 12.0686 1.69678C13.033 1.69678 13.8509 2.52686 13.8509 3.49121C13.8509 4.45557 13.0452 5.26123 12.0686 5.26123Z" fill="#5ac8f5"/>
 </g>
</svg>
