<?xml version="1.0" encoding="UTF-8"?>
<!--Generator: Apple Native CoreSVG 175.5-->
<!DOCTYPE svg
PUBLIC "-//W3C//DTD SVG 1.1//EN"
       "http://www.w3.org/Graphics/SVG/1.1/DTD/svg11.dtd">
<svg version="1.1" xmlns="http://www.w3.org/2000/svg" xmlns:xlink="http://www.w3.org/1999/xlink" width="22.4731" height="22.4976">
 <g>
  <rect height="22.4976" opacity="0" width="22.4731" x="0" y="0"/>
  <path d="M3.83301 22.4976L18.6401 22.4976C21.2036 22.4976 22.4731 21.228 22.4731 18.7134L22.4731 3.80859C22.4731 1.29395 21.2036 0.0244141 18.6401 0.0244141L3.83301 0.0244141C1.28174 0.0244141 0 1.28174 0 3.80859L0 18.7134C0 21.2402 1.28174 22.4976 3.83301 22.4976Z" fill="#5ac8f5" fill-opacity="0.25"/>
  <path d="M6.75049 15.8813C4.91943 15.8813 3.52783 14.7705 3.52783 12.6953C3.52783 11.3159 4.39453 10.1807 5.56641 9.70459C5.74951 8.41064 6.84814 7.4707 8.1543 7.4707C8.30078 7.4707 8.48389 7.49512 8.65479 7.53174C9.49707 6.37207 10.8521 5.63965 12.3901 5.63965C15.0024 5.63965 17.041 7.72705 17.041 10.2783C17.041 10.3882 17.0288 10.5103 17.0166 10.6445C18.1396 10.9131 18.9819 11.9629 18.9819 13.2202C18.9819 14.6851 17.8101 15.8813 16.3086 15.8813Z" fill="#5ac8f5"/>
 </g>
</svg>
