<?xml version="1.0" encoding="UTF-8"?>
<!--Generator: Apple Native CoreSVG 175.5-->
<!DOCTYPE svg
PUBLIC "-//W3C//DTD SVG 1.1//EN"
       "http://www.w3.org/Graphics/SVG/1.1/DTD/svg11.dtd">
<svg version="1.1" xmlns="http://www.w3.org/2000/svg" xmlns:xlink="http://www.w3.org/1999/xlink" width="23.3122" height="29.2603">
 <g>
  <rect height="29.2603" opacity="0" width="23.3122" x="0" y="0"/>
  <path d="M13.1836 15.8569L22.6807 6.35986C23.8525 5.2002 23.291 3.52783 21.8384 3.07617C19.3481 2.27051 16.7114 2.05078 13.7085 2.22168L13.3301 1.81885C11.9873 0.402832 10.0098 0.354004 8.58154 1.75781C7.17773 3.19824 7.22656 5.22461 8.64258 6.51855L9.04541 6.89697C8.87451 9.8877 9.09424 12.5 9.87549 15.0024C10.3394 16.4795 12.0117 17.041 13.1836 15.8569ZM11.9751 14.6362C11.7798 14.8315 11.6089 14.8071 11.438 14.2456C10.7666 12.1094 10.5835 9.7168 10.791 6.79932C10.8154 6.39648 10.6445 6.00586 10.3394 5.7373L9.80225 5.24902C9.11865 4.61426 9.08203 3.72314 9.80225 2.96631C10.5591 2.24609 11.438 2.27051 12.085 2.97852L12.5732 3.51562C12.854 3.8208 13.269 3.9917 13.6963 3.95508C16.5527 3.77197 18.9575 3.95508 21.0938 4.63867C21.6187 4.80957 21.6431 4.96826 21.4722 5.13916ZM17.3584 14.624C19.6045 14.624 21.4478 12.793 21.4478 10.5591C21.4478 9.49707 21.0327 8.47168 20.2515 7.67822L19.3604 9.38721C19.5923 9.729 19.7144 10.1318 19.7144 10.5591C19.7144 11.853 18.6401 12.9028 17.3584 12.9028C16.9312 12.9028 16.5161 12.7808 16.1743 12.561L14.624 13.5864C15.3809 14.2822 16.3574 14.624 17.3584 14.624ZM8.6792 3.16162L9.93652 1.81885L8.44727 0.341797C8.08105-0.0244141 7.51953-0.0244141 7.15332 0.341797C6.79932 0.695801 6.78711 1.25732 7.15332 1.62354ZM2.30713 16.9556L10.0342 9.85107L9.48486 7.70264L0.976562 15.5273ZM1.9043 17.8955C2.96631 17.8955 3.80859 17.0654 3.80859 15.9912C3.80859 14.9292 2.96631 14.0869 1.9043 14.0869C0.830078 14.0869 0 14.9292 0 15.9912C0 17.0654 0.830078 17.8955 1.9043 17.8955ZM6.86035 22.229L8.25195 20.8374L2.18506 14.8071L0.805664 16.1865ZM7.22656 23.4985C8.30078 23.4985 9.13086 22.7173 9.13086 21.5942C9.13086 20.5322 8.27637 19.6899 7.22656 19.6899C6.15234 19.6899 5.32227 20.5322 5.32227 21.5942C5.32227 22.6685 6.15234 23.4985 7.22656 23.4985ZM6.23779 27.5391L8.20312 27.5391L8.20312 21.6431L6.23779 21.6431ZM1.40381 29.2603L14.3921 29.2603C14.8438 29.2603 15.1489 28.9307 15.1489 28.4546C15.1489 27.5391 14.3555 26.8921 13.1226 26.8921L2.67334 26.8921C1.44043 26.8921 0.646973 27.5391 0.646973 28.4546C0.646973 28.9307 0.952148 29.2603 1.40381 29.2603Z" fill="#5ac8f5"/>
 </g>
</svg>
