<?xml version="1.0" encoding="UTF-8"?>
<!--Generator: Apple Native CoreSVG 175.5-->
<!DOCTYPE svg
PUBLIC "-//W3C//DTD SVG 1.1//EN"
       "http://www.w3.org/Graphics/SVG/1.1/DTD/svg11.dtd">
<svg version="1.1" xmlns="http://www.w3.org/2000/svg" xmlns:xlink="http://www.w3.org/1999/xlink" width="28.2593" height="23.6694">
 <g>
  <rect height="23.6694" opacity="0" width="28.2593" x="0" y="0"/>
  <path d="M3.77197 23.6572L24.4873 23.6572C27.0142 23.6572 28.2593 22.4365 28.2593 19.9341L28.2593 8.05664C28.2593 5.5542 27.0142 4.3335 24.4873 4.3335L3.77197 4.3335C1.25732 4.3335 0 5.5542 0 8.05664L0 19.9341C0 22.4365 1.25732 23.6572 3.77197 23.6572ZM7.93457 5.39551L9.82666 5.39551L9.82666 3.23486C9.82666 2.30713 10.376 1.78223 11.3281 1.78223L16.9312 1.78223C17.8833 1.78223 18.4204 2.30713 18.4204 3.23486L18.4204 5.37109L20.3125 5.37109L20.3125 3.36914C20.3125 1.07422 19.104 0 16.8945 0L11.3525 0C9.26514 0 7.93457 1.07422 7.93457 3.36914Z" fill="#5ac8f5" fill-opacity="0.25"/>
  <path d="M8.38623 15.0879L8.38623 12.8784C8.38623 12.2437 8.81348 11.8042 9.46045 11.8042L11.9629 11.8042L11.9629 9.32617C11.9629 8.66699 12.3901 8.23975 13.0371 8.23975L15.2344 8.23975C15.8691 8.23975 16.3086 8.66699 16.3086 9.32617L16.3086 11.8042L18.7988 11.8042C19.4458 11.8042 19.8853 12.2437 19.8853 12.8784L19.8853 15.0879C19.8853 15.7227 19.4458 16.1621 18.7988 16.1621L16.3086 16.1621L16.3086 18.6523C16.3086 19.2993 15.8691 19.7266 15.2344 19.7266L13.0371 19.7266C12.3901 19.7266 11.9629 19.2993 11.9629 18.6523L11.9629 16.1621L9.46045 16.1621C8.82568 16.1621 8.38623 15.7227 8.38623 15.0879Z" fill="#5ac8f5"/>
 </g>
</svg>
