<?xml version="1.0" encoding="UTF-8"?>
<!--Generator: Apple Native CoreSVG 175.5-->
<!DOCTYPE svg
PUBLIC "-//W3C//DTD SVG 1.1//EN"
       "http://www.w3.org/Graphics/SVG/1.1/DTD/svg11.dtd">
<svg version="1.1" xmlns="http://www.w3.org/2000/svg" xmlns:xlink="http://www.w3.org/1999/xlink" width="24.9023" height="24.9146">
 <g>
  <rect height="24.9146" opacity="0" width="24.9023" x="0" y="0"/>
  <path d="M12.4512 24.9023C19.2627 24.9023 24.9023 19.2505 24.9023 12.4512C24.9023 5.63965 19.2505 0 12.439 0C5.63965 0 0 5.63965 0 12.4512C0 19.2505 5.65186 24.9023 12.4512 24.9023ZM12.4512 22.8271C6.68945 22.8271 2.0874 18.2129 2.0874 12.4512C2.0874 6.68945 6.67725 2.0752 12.439 2.0752C18.2007 2.0752 22.8271 6.68945 22.8271 12.4512C22.8271 18.2129 18.2129 22.8271 12.4512 22.8271ZM6.86035 11.1816C5.85938 11.7798 5.88379 13.1592 6.83594 13.7207L14.1602 18.0542C15.0635 18.5913 16.333 18.2373 16.333 16.9312L16.333 7.95898C16.333 6.65283 15.0635 6.28662 14.1602 6.83594ZM8.75244 12.3413L14.1357 9.14307C14.2822 9.05762 14.3677 9.11865 14.3677 9.22852L14.3677 15.6616C14.3677 15.7715 14.2822 15.8203 14.1357 15.7471L8.76465 12.5732C8.64258 12.5122 8.66699 12.4023 8.75244 12.3413Z" fill="#5ac8f5"/>
 </g>
</svg>
