<?xml version="1.0" encoding="UTF-8"?>
<!--Generator: Apple Native CoreSVG 175.5-->
<!DOCTYPE svg
PUBLIC "-//W3C//DTD SVG 1.1//EN"
       "http://www.w3.org/Graphics/SVG/1.1/DTD/svg11.dtd">
<svg version="1.1" xmlns="http://www.w3.org/2000/svg" xmlns:xlink="http://www.w3.org/1999/xlink" width="30.9937" height="37.262">
 <g>
  <rect height="37.262" opacity="0" width="30.9937" x="0" y="0"/>
  <path d="M15.4907 34.1156C24.0479 34.1156 30.9937 27.182 30.9937 18.6249C30.9937 11.8134 26.5869 6.01501 20.459 3.95203C20.5566 4.64783 20.3735 5.34363 19.9463 5.85632C25.2319 7.69958 29.0283 12.7167 29.0283 18.6249C29.0283 26.0956 22.9614 32.1503 15.4907 32.1503C8.02002 32.1503 1.96533 26.0956 1.96533 18.6249C1.96533 12.7045 5.77393 7.68738 11.0596 5.85632C10.6445 5.33142 10.4492 4.63562 10.5469 3.93982C4.41895 5.9906 0 11.8011 0 18.6249C0 27.182 6.93359 34.1156 15.4907 34.1156Z" fill="#5ac8f5" fill-opacity="0.5"/>
  <path d="M15.4907 29.3427C21.4233 29.3427 26.2207 24.5453 26.2207 18.6249C26.2207 12.7045 21.4233 7.8949 15.4907 7.8949C9.57031 7.8949 4.77295 12.7045 4.77295 18.6249C4.77295 24.5453 9.57031 29.3427 15.4907 29.3427ZM15.4907 27.3773C10.6567 27.3773 6.73828 23.4589 6.73828 18.6249C6.73828 13.7909 10.6567 9.86023 15.4907 9.86023C20.3369 9.86023 24.2554 13.7909 24.2554 18.6249C24.2554 23.4589 20.3369 27.3773 15.4907 27.3773ZM12.4268 3.61023C11.9263 4.28162 12.2192 5.09949 13.0615 5.09949L17.9443 5.09949C18.8232 5.09949 19.0796 4.2572 18.5913 3.61023L16.1499 0.338745C15.8081-0.112915 15.1855-0.112915 14.856 0.338745ZM13.3423 23.8007L18.6768 23.8007C19.1284 23.8007 19.458 23.5077 19.458 23.0438C19.458 22.5677 19.1284 22.287 18.6768 22.287L14.2822 22.287L14.2822 14.1449C14.2822 13.4979 13.9526 13.0951 13.3423 13.0951C12.7441 13.0951 12.4268 13.5223 12.4268 14.1449L12.4268 22.7631C12.4268 23.3856 12.7441 23.8007 13.3423 23.8007Z" fill="#5ac8f5"/>
 </g>
</svg>
