<?xml version="1.0" encoding="UTF-8"?>
<!--Generator: Apple Native CoreSVG 175.5-->
<!DOCTYPE svg
PUBLIC "-//W3C//DTD SVG 1.1//EN"
       "http://www.w3.org/Graphics/SVG/1.1/DTD/svg11.dtd">
<svg version="1.1" xmlns="http://www.w3.org/2000/svg" xmlns:xlink="http://www.w3.org/1999/xlink" width="25.5929" height="23.3368">
 <g>
  <rect height="23.3368" opacity="0" width="25.5929" x="0" y="0"/>
  <path d="M3.11628 18.7424L4.09285 20.427L12.7965 16.0568L21.5001 20.427L22.4888 18.7424L13.7852 14.3723L13.7852 4.06953L11.8199 4.06953L11.8199 14.3723ZM0.137767 20.4636C-0.204029 21.2448 0.101146 21.7453 0.931224 21.843L5.98494 22.3923C7.10798 22.5266 7.76716 21.8308 7.16902 20.8054L4.15388 15.5808C3.58015 14.5798 2.64021 14.7873 2.20076 15.8127ZM25.4552 20.4636L23.4044 15.8127C22.9527 14.7873 22.025 14.5798 21.4512 15.5808L18.4239 20.8054C17.8258 21.8308 18.4971 22.5266 19.608 22.3923L24.6617 21.843C25.4918 21.7453 25.7969 21.2448 25.4552 20.4636ZM11.9908 0.517283L9.00007 4.60664C8.32869 5.50996 8.60945 6.43769 9.78132 6.43769L15.7994 6.43769C16.9957 6.43769 17.252 5.52217 16.5806 4.60664L13.5777 0.517283C13.065-0.166311 12.5035-0.178518 11.9908 0.517283Z" fill="#5ac8f5"/>
 </g>
</svg>
