<?xml version="1.0" encoding="UTF-8"?>
<!--Generator: Apple Native CoreSVG 175.5-->
<!DOCTYPE svg
PUBLIC "-//W3C//DTD SVG 1.1//EN"
       "http://www.w3.org/Graphics/SVG/1.1/DTD/svg11.dtd">
<svg version="1.1" xmlns="http://www.w3.org/2000/svg" xmlns:xlink="http://www.w3.org/1999/xlink" width="23.8053" height="25.6958">
 <g>
  <rect height="25.6958" opacity="0" width="23.8053" x="0" y="0"/>
  <path d="M11.5234 25.6958C13.5864 25.6958 15.1001 24.1821 15.271 22.4731L7.77588 22.4731C7.93457 24.1821 9.44824 25.6958 11.5234 25.6958ZM1.84326 20.8008L16.5771 20.8008L3.84521 8.05664C3.57666 9.21631 3.44238 10.498 3.41797 11.9385C3.32031 13.3423 3.11279 15.0757 2.30713 15.918C1.24512 17.0044 0 18.103 0 19.3237C0 20.2148 0.695801 20.8008 1.84326 20.8008ZM11.5234 0C9.7168 0 8.45947 1.25732 7.99561 2.85645C7.34863 3.07617 6.78711 3.38135 6.31104 3.77197L22.7295 20.2148C22.937 19.9829 23.0347 19.6777 23.0347 19.3237C23.0347 18.103 21.8018 17.0044 20.7397 15.918C19.9341 15.0757 19.7144 13.3423 19.6289 11.9385C19.5312 7.25098 18.2983 4.02832 15.0513 2.85645C14.5874 1.25732 13.3179 0 11.5234 0ZM0.268555 2.47803L22.2046 24.3774C22.5708 24.7559 23.1689 24.7559 23.5352 24.3774C23.8892 24.0112 23.9014 23.4253 23.5352 23.0469L1.61133 1.14746C1.24512 0.78125 0.646973 0.78125 0.268555 1.14746C-0.0854492 1.50146-0.0854492 2.12402 0.268555 2.47803Z" fill="#5ac8f5"/>
 </g>
</svg>
