<?xml version="1.0" encoding="UTF-8"?>
<!--Generator: Apple Native CoreSVG 175.5-->
<!DOCTYPE svg
PUBLIC "-//W3C//DTD SVG 1.1//EN"
       "http://www.w3.org/Graphics/SVG/1.1/DTD/svg11.dtd">
<svg version="1.1" xmlns="http://www.w3.org/2000/svg" xmlns:xlink="http://www.w3.org/1999/xlink" width="24.9023" height="24.9146">
 <g>
  <rect height="24.9146" opacity="0" width="24.9023" x="0" y="0"/>
  <path d="M12.4512 24.9023C19.2627 24.9023 24.9023 19.2505 24.9023 12.4512C24.9023 5.63965 19.2505 0 12.439 0C5.63965 0 0 5.63965 0 12.4512C0 19.2505 5.65186 24.9023 12.4512 24.9023ZM12.4512 22.8271C6.68945 22.8271 2.0874 18.2129 2.0874 12.4512C2.0874 6.68945 6.67725 2.0752 12.439 2.0752C18.2007 2.0752 22.8271 6.68945 22.8271 12.4512C22.8271 18.2129 18.2129 22.8271 12.4512 22.8271ZM18.7134 12.439C18.7134 12.1704 18.6157 11.9751 18.3716 11.731L14.2456 7.58057C14.0869 7.42188 13.8672 7.33643 13.6108 7.33643C13.1104 7.33643 12.7319 7.71484 12.7319 8.21533C12.7319 8.48389 12.8418 8.70361 13.0005 8.87451L14.5264 10.3882L16.0034 11.6211L13.4277 11.5234L7.05566 11.5234C6.53076 11.5234 6.14014 11.9019 6.14014 12.439C6.14014 12.9639 6.53076 13.3423 7.05566 13.3423L13.4277 13.3423L16.0034 13.2568L14.5264 14.4897L13.0005 16.0034C12.8296 16.1621 12.7319 16.3818 12.7319 16.6504C12.7319 17.1509 13.1104 17.5415 13.6108 17.5415C13.8672 17.5415 14.0869 17.4438 14.2456 17.2852L18.3716 13.147C18.6035 12.9272 18.7134 12.7075 18.7134 12.439Z" fill="#5ac8f5"/>
 </g>
</svg>
