<?xml version="1.0" encoding="UTF-8"?>
<!--Generator: Apple Native CoreSVG 175.5-->
<!DOCTYPE svg
PUBLIC "-//W3C//DTD SVG 1.1//EN"
       "http://www.w3.org/Graphics/SVG/1.1/DTD/svg11.dtd">
<svg version="1.1" xmlns="http://www.w3.org/2000/svg" xmlns:xlink="http://www.w3.org/1999/xlink" width="32.2709" height="26.77">
 <g>
  <rect height="26.77" opacity="0" width="32.2709" x="0" y="0"/>
  <path d="M9.93799 26.77L22.3403 26.77C24.4399 26.77 25.7583 25.4639 25.7949 23.3765L25.9536 11.4624L28.8711 12.1338C30.043 12.4023 30.7998 11.9141 31.105 10.7056L32.1792 6.37207C32.4844 5.17578 32.0205 4.3457 30.8975 3.86963L22.4014 0.244141C21.7666-0.0366211 21.3394-0.012207 20.8145 0.231934C19.2275 0.98877 17.9336 1.37939 16.1392 1.37939C14.3325 1.37939 13.0508 0.98877 11.4517 0.231934C10.939-0.012207 10.4995-0.0366211 9.86475 0.244141L1.38087 3.86963C0.245612 4.3457-0.206049 5.17578 0.0869202 6.37207L1.17335 10.7056C1.46631 11.9141 2.22315 12.4023 3.40723 12.1338L6.32471 11.4624L6.4834 23.3765C6.50782 25.4639 7.82618 26.77 9.93799 26.77ZM9.96241 24.8901C8.97364 24.8901 8.37549 24.2798 8.36329 23.2788L8.19239 9.66797C8.19239 9.375 7.96046 9.16748 7.63087 9.24072L3.3584 10.1929C3.12647 10.2417 2.96778 10.144 2.91895 9.94873L1.9546 6.10352C1.88135 5.79834 1.9668 5.68848 2.21094 5.59082L10.9878 1.84326C12.6235 2.70996 14.2105 3.14941 16.1392 3.14941C18.0679 3.14941 19.6426 2.70996 21.2905 1.84326L30.0674 5.59082C30.2993 5.68848 30.397 5.79834 30.3237 6.10352L29.3472 9.94873C29.2983 10.144 29.1519 10.2417 28.9199 10.1929L24.6475 9.24072C24.3057 9.16748 24.0859 9.375 24.0859 9.66797L23.915 23.2788C23.9028 24.2798 23.3047 24.8901 22.3159 24.8901ZM16.1392 6.81152C19.02 6.81152 21.5713 4.76074 22.1084 1.92871L20.3262 1.14746C20.0698 3.30811 18.2388 4.93164 16.1392 4.93164C14.0273 4.93164 12.2085 3.30811 11.9522 1.14746L10.1699 1.92871C10.6948 4.76074 13.2461 6.81152 16.1392 6.81152Z" fill="#5ac8f5"/>
 </g>
</svg>
