<?xml version="1.0" encoding="UTF-8"?>
<!--Generator: Apple Native CoreSVG 175.5-->
<!DOCTYPE svg
PUBLIC "-//W3C//DTD SVG 1.1//EN"
       "http://www.w3.org/Graphics/SVG/1.1/DTD/svg11.dtd">
<svg version="1.1" xmlns="http://www.w3.org/2000/svg" xmlns:xlink="http://www.w3.org/1999/xlink" width="26.3184" height="22.3999">
 <g>
  <rect height="22.3999" opacity="0" width="26.3184" x="0" y="0"/>
  <path d="M11.9263 22.3877C12.7563 22.3877 13.3545 21.7773 13.3545 20.9595L13.3545 16.2964L13.7085 16.2964C18.4448 16.2964 21.4233 17.4927 23.5596 21.4844C23.9868 22.2656 24.5483 22.3877 25.061 22.3877C25.708 22.3877 26.3184 21.8018 26.3184 20.752C26.3184 11.731 22.4976 6.10352 13.7085 6.10352L13.3545 6.10352L13.3545 1.48926C13.3545 0.671387 12.7563 0 11.9019 0C11.3037 0 10.9009 0.256348 10.2539 0.866699L0.622559 9.87549C0.146484 10.3271 0 10.7788 0 11.1938C0 11.5967 0.158691 12.0605 0.622559 12.5L10.2539 21.5942C10.8398 22.1436 11.3281 22.3877 11.9263 22.3877ZM11.2305 19.7632C11.1572 19.7632 11.084 19.7266 11.0229 19.6533L2.31934 11.4258C2.22168 11.3281 2.18506 11.2671 2.18506 11.1938C2.18506 11.1206 2.22168 11.0474 2.31934 10.9619L11.0107 2.62451C11.0718 2.57568 11.145 2.52686 11.2183 2.52686C11.3281 2.52686 11.3892 2.6001 11.3892 2.69775L11.3892 7.54395C11.3892 7.82471 11.5234 7.94678 11.8042 7.94678L13.4399 7.94678C21.814 7.94678 24.3408 13.7573 24.585 19.519C24.585 19.6167 24.5483 19.6533 24.4873 19.6533C24.4385 19.6533 24.4141 19.6167 24.3774 19.5312C22.937 16.4673 19.2383 14.4531 13.4399 14.4531L11.8042 14.4531C11.5234 14.4531 11.3892 14.5752 11.3892 14.856L11.3892 19.5801C11.3892 19.6899 11.3281 19.7632 11.2305 19.7632Z" fill="#5ac8f5"/>
 </g>
</svg>
