<?xml version="1.0" encoding="UTF-8"?>
<!--Generator: Apple Native CoreSVG 175.5-->
<!DOCTYPE svg
PUBLIC "-//W3C//DTD SVG 1.1//EN"
       "http://www.w3.org/Graphics/SVG/1.1/DTD/svg11.dtd">
<svg version="1.1" xmlns="http://www.w3.org/2000/svg" xmlns:xlink="http://www.w3.org/1999/xlink" width="24.9023" height="24.9146">
 <g>
  <rect height="24.9146" opacity="0" width="24.9023" x="0" y="0"/>
  <path d="M12.4512 24.9023C19.2627 24.9023 24.9023 19.2505 24.9023 12.4512C24.9023 5.63965 19.2505 0 12.439 0C5.63965 0 0 5.63965 0 12.4512C0 19.2505 5.65186 24.9023 12.4512 24.9023ZM12.4512 22.8271C6.68945 22.8271 2.0874 18.2129 2.0874 12.4512C2.0874 6.68945 6.67725 2.0752 12.439 2.0752C18.2007 2.0752 22.8271 6.68945 22.8271 12.4512C22.8271 18.2129 18.2129 22.8271 12.4512 22.8271ZM12.6343 19.6533C12.9761 19.6533 13.2324 19.4092 13.2324 19.0552L13.2324 18.2373L13.3911 18.2373C15.6616 18.2373 17.1021 16.9922 17.1021 15.0146C17.1021 13.6353 16.2842 12.6099 15.0146 12.2314C15.9058 11.792 16.5405 10.8276 16.5405 9.79004C16.5405 8.10547 15.271 6.88477 13.3911 6.88477L13.2324 6.88477L13.2324 5.95703C13.2324 5.61523 12.9761 5.37109 12.6343 5.37109C12.3047 5.37109 12.0483 5.61523 12.0483 5.95703L12.0483 6.88477L10.2173 6.88477C9.65576 6.88477 9.25293 7.27539 9.25293 7.84912L9.25293 17.2852C9.25293 17.8467 9.64355 18.2373 10.2173 18.2373L12.0483 18.2373L12.0483 19.0552C12.0483 19.4092 12.3047 19.6533 12.6343 19.6533ZM10.8276 16.8091L10.8276 13.0981L12.0483 13.0981L12.0483 16.7969ZM13.2324 16.7847L13.2324 13.1104C14.7705 13.1958 15.5396 13.8184 15.5396 14.9536C15.5396 16.1011 14.7705 16.7236 13.2324 16.7847ZM10.8154 11.6821L10.8276 8.30078L12.0483 8.30078L12.0483 11.6821ZM13.2324 11.6211L13.2324 8.3252C14.3677 8.42285 14.978 8.97217 14.978 9.91211C14.978 10.8643 14.3921 11.4624 13.2324 11.6211Z" fill="#5ac8f5"/>
 </g>
</svg>
