<?xml version="1.0" encoding="UTF-8"?>
<!--Generator: Apple Native CoreSVG 175.5-->
<!DOCTYPE svg
PUBLIC "-//W3C//DTD SVG 1.1//EN"
       "http://www.w3.org/Graphics/SVG/1.1/DTD/svg11.dtd">
<svg version="1.1" xmlns="http://www.w3.org/2000/svg" xmlns:xlink="http://www.w3.org/1999/xlink" width="42.9349" height="21.9849">
 <g>
  <rect height="21.9849" opacity="0" width="42.9349" x="0" y="0"/>
  <path d="M14.295 21.9849L40.7232 21.9849C42.9449 21.9849 43.482 19.7876 42.3834 18.3472L29.627 1.59912C28.4307 0.0244141 26.5997 0 25.379 1.59912L12.6348 18.3594C11.5362 19.7998 12.0733 21.9849 14.295 21.9849ZM14.6978 20.0195C14.2462 20.0195 14.1241 19.6411 14.356 19.3237L26.9048 2.83203C27.2344 2.40479 27.796 2.41699 28.0889 2.81982L40.65 19.3115C40.8941 19.6289 40.7598 20.0195 40.3082 20.0195ZM23.5357 11.3647C25.5621 11.3647 26.3799 9.75342 27.503 9.75342C28.6382 9.75342 29.4561 11.3647 31.4825 11.3647C32.7276 11.3647 33.5333 10.3516 34.2291 9.60693L33.2891 8.45947C32.6055 9.15527 32.0562 9.8877 31.4825 9.8877C30.4083 9.8877 29.4561 8.27637 27.503 8.27637C25.5621 8.27637 24.6099 9.8877 23.5357 9.8877C22.9498 9.8877 22.4005 9.14307 21.7047 8.44727L20.7647 9.58252C21.4727 10.3394 22.2784 11.3647 23.5357 11.3647ZM17.4932 14.1235L18.7017 12.4878L14.0753 6.75049C12.8179 5.18799 11.1334 5.2002 9.86383 6.75049L0.696351 18.1152C-0.609801 19.7388-0.0726921 21.9849 2.25885 21.9849L14.3194 21.9849L14.3194 20.0195L2.55182 20.0195C2.13678 20.0195 2.0025 19.6289 2.24664 19.3237L11.3897 7.99561C11.7315 7.56836 12.2198 7.56836 12.5494 7.9834ZM8.39899 14.3433C10.23 14.3433 10.9503 12.8906 11.9634 12.8906C12.9766 12.8906 13.7213 14.3433 15.5523 14.3433C16.5045 14.3433 17.1514 13.6597 17.6885 13.0615L16.8585 11.9873C16.3702 12.5122 15.9796 13.0005 15.5523 13.0005C14.588 13.0005 13.7335 11.5479 11.9634 11.5479C10.2178 11.5479 9.35114 13.0005 8.39899 13.0005C7.87409 13.0005 7.34918 12.207 6.66559 11.5479L5.78668 12.5366C6.43366 13.1836 7.15387 14.3433 8.39899 14.3433Z" fill="#5ac8f5"/>
 </g>
</svg>
