<?xml version="1.0" encoding="UTF-8"?>
<!--Generator: Apple Native CoreSVG 175.5-->
<!DOCTYPE svg
PUBLIC "-//W3C//DTD SVG 1.1//EN"
       "http://www.w3.org/Graphics/SVG/1.1/DTD/svg11.dtd">
<svg version="1.1" xmlns="http://www.w3.org/2000/svg" xmlns:xlink="http://www.w3.org/1999/xlink" width="19.6411" height="25.0854">
 <g>
  <rect height="25.0854" opacity="0" width="19.6411" x="0" y="0"/>
  <path d="M9.81445 25.0854C16.5405 25.0854 19.6411 22.6929 19.6411 17.2485L19.6411 7.95898C19.6411 5.66406 19.0918 4.11377 18.2251 3.01514C17.9321 2.64893 17.4561 2.62451 17.1021 2.91748C15.9302 3.94287 12.8662 4.82178 9.81445 4.82178C6.7627 4.82178 3.69873 3.94287 2.53906 2.91748C2.17285 2.62451 1.70898 2.64893 1.41602 3.01514C0.549316 4.11377 0 5.66406 0 7.95898L0 17.2485C0 22.6929 3.08838 25.0854 9.81445 25.0854ZM9.81445 23.1201C4.1748 23.1201 1.96533 21.228 1.96533 17.0532L1.96533 8.06885C1.96533 6.99463 2.14844 5.99365 2.6001 5.12695C4.05273 6.26221 6.79932 6.78711 9.81445 6.78711C12.8418 6.78711 15.5884 6.26221 17.0288 5.12695C17.4927 5.99365 17.6758 6.99463 17.6758 8.06885L17.6758 17.0532C17.6758 21.228 15.4663 23.1201 9.81445 23.1201ZM9.81445 3.14941C13.0493 3.14941 15.4663 2.46582 15.4663 1.58691C15.4663 0.683594 13.0493 0.012207 9.81445 0.012207C6.57959 0.012207 4.1748 0.683594 4.1748 1.58691C4.1748 2.46582 6.57959 3.14941 9.81445 3.14941Z" fill="#5ac8f5"/>
 </g>
</svg>
