<?xml version="1.0" encoding="UTF-8"?>
<!--Generator: Apple Native CoreSVG 175.5-->
<!DOCTYPE svg
PUBLIC "-//W3C//DTD SVG 1.1//EN"
       "http://www.w3.org/Graphics/SVG/1.1/DTD/svg11.dtd">
<svg version="1.1" xmlns="http://www.w3.org/2000/svg" xmlns:xlink="http://www.w3.org/1999/xlink" width="22.4731" height="22.4976">
 <g>
  <rect height="22.4976" opacity="0" width="22.4731" x="0" y="0"/>
  <path d="M4.26025 12.3779C4.26025 12.8418 4.57764 13.147 5.0415 13.147L5.57861 13.147L5.57861 13.7329C5.57861 15.8325 8.30078 17.7612 11.2427 17.7612C14.1724 17.7612 16.8945 15.8325 16.8945 13.7329L16.8945 13.147L17.4316 13.147C17.8955 13.147 18.2129 12.8418 18.2129 12.3779L18.2129 10.1196C18.2129 9.65576 17.8955 9.35059 17.4316 9.35059L16.8945 9.35059L16.8945 8.75244C16.8945 6.66504 14.1724 4.73633 11.2427 4.73633C8.30078 4.73633 5.57861 6.66504 5.57861 8.75244L5.57861 9.35059L5.0415 9.35059C4.57764 9.35059 4.26025 9.65576 4.26025 10.1196ZM8.20312 12.6709C7.42188 12.6709 6.7749 12.0361 6.7749 11.2427C6.7749 10.4614 7.42188 9.82666 8.20312 9.82666C8.99658 9.82666 9.63135 10.4614 9.63135 11.2427C9.63135 12.0361 8.99658 12.6709 8.20312 12.6709ZM14.27 12.6709C13.4888 12.6709 12.8418 12.0361 12.8418 11.2427C12.8418 10.4614 13.4888 9.82666 14.27 9.82666C15.0513 9.82666 15.6982 10.4614 15.6982 11.2427C15.6982 12.0361 15.0513 12.6709 14.27 12.6709ZM3.83301 22.4976L18.6401 22.4976C21.2036 22.4976 22.4731 21.228 22.4731 18.7134L22.4731 3.80859C22.4731 1.29395 21.2036 0.0244141 18.6401 0.0244141L3.83301 0.0244141C1.28174 0.0244141 0 1.28174 0 3.80859L0 18.7134C0 21.2402 1.28174 22.4976 3.83301 22.4976ZM3.85742 20.5322C2.63672 20.5322 1.96533 19.8853 1.96533 18.6157L1.96533 3.90625C1.96533 2.63672 2.63672 1.98975 3.85742 1.98975L18.6157 1.98975C19.8242 1.98975 20.5078 2.63672 20.5078 3.90625L20.5078 18.6157C20.5078 19.8853 19.8242 20.5322 18.6157 20.5322Z" fill="#5ac8f5"/>
 </g>
</svg>
