<?xml version="1.0" encoding="UTF-8"?>
<!--Generator: Apple Native CoreSVG 175.5-->
<!DOCTYPE svg
PUBLIC "-//W3C//DTD SVG 1.1//EN"
       "http://www.w3.org/Graphics/SVG/1.1/DTD/svg11.dtd">
<svg version="1.1" xmlns="http://www.w3.org/2000/svg" xmlns:xlink="http://www.w3.org/1999/xlink" width="24.9023" height="24.9146">
 <g>
  <rect height="24.9146" opacity="0" width="24.9023" x="0" y="0"/>
  <path d="M12.4512 24.9023C19.2627 24.9023 24.9023 19.2505 24.9023 12.4512C24.9023 5.63965 19.2505 0 12.439 0C5.63965 0 0 5.63965 0 12.4512C0 19.2505 5.65186 24.9023 12.4512 24.9023ZM12.4512 22.8271C6.68945 22.8271 2.0874 18.2129 2.0874 12.4512C2.0874 6.68945 6.67725 2.0752 12.439 2.0752C18.2007 2.0752 22.8271 6.68945 22.8271 12.4512C22.8271 18.2129 18.2129 22.8271 12.4512 22.8271Z" fill="#5ac8f5" fill-opacity="0.5"/>
  <path d="M9.22852 17.7368L17.4927 17.7368C19.1528 17.7368 20.2881 16.5649 20.2881 15.0635C20.2881 13.7695 19.3604 12.6709 18.1152 12.4268C18.0176 10.8032 16.6992 9.48486 15.0391 9.48486C13.9526 9.48486 13.0127 10.022 12.4512 10.8643C12.1582 10.7666 11.9141 10.7178 11.6089 10.7178C10.3271 10.7178 9.28955 11.6577 9.09424 12.9028C7.77588 12.9395 6.73828 14.0137 6.73828 15.3076C6.73828 16.6748 7.73926 17.7368 9.22852 17.7368ZM4.13818 11.7432C4.13818 12.8906 4.84619 13.8794 6.04248 14.27C6.39648 13.208 7.2876 12.3779 8.39844 12.1216C8.87451 10.791 10.1196 9.85107 11.6089 9.85107C11.7798 9.85107 11.9507 9.87549 12.1216 9.8999C12.8052 9.11865 13.7573 8.6792 14.8315 8.64258C14.6484 7.99561 13.9526 7.39746 12.8296 7.39746C12.5122 7.39746 12.2559 7.4585 11.9751 7.54395C11.4014 6.68945 10.4736 6.15234 9.41162 6.15234C7.76367 6.15234 6.40869 7.4707 6.32324 9.08203C5.05371 9.35059 4.13818 10.437 4.13818 11.7432Z" fill="#5ac8f5"/>
 </g>
</svg>
