<?xml version="1.0" encoding="UTF-8"?>
<!--Generator: Apple Native CoreSVG 175.5-->
<!DOCTYPE svg
PUBLIC "-//W3C//DTD SVG 1.1//EN"
       "http://www.w3.org/Graphics/SVG/1.1/DTD/svg11.dtd">
<svg version="1.1" xmlns="http://www.w3.org/2000/svg" xmlns:xlink="http://www.w3.org/1999/xlink" width="22.4731" height="22.4976">
 <g>
  <rect height="22.4976" opacity="0" width="22.4731" x="0" y="0"/>
  <path d="M3.83301 22.4976L18.6401 22.4976C21.2036 22.4976 22.4731 21.228 22.4731 18.7134L22.4731 3.80859C22.4731 1.29395 21.2036 0.0244141 18.6401 0.0244141L3.83301 0.0244141C1.28174 0.0244141 0 1.28174 0 3.80859L0 18.7134C0 21.2402 1.28174 22.4976 3.83301 22.4976ZM3.85742 20.5322C2.63672 20.5322 1.96533 19.8853 1.96533 18.6157L1.96533 3.90625C1.96533 2.63672 2.63672 1.98975 3.85742 1.98975L18.6157 1.98975C19.8242 1.98975 20.5078 2.63672 20.5078 3.90625L20.5078 18.6157C20.5078 19.8853 19.8242 20.5322 18.6157 20.5322ZM8.75244 16.4795C9.25293 16.4795 9.49707 16.1377 9.49707 15.6616L9.49707 14.2212L10.1685 14.2212C10.5835 14.2212 10.8521 13.9771 10.8521 13.5498C10.8521 13.1104 10.5835 12.854 10.1685 12.854L9.49707 12.854L9.49707 7.14111C9.49707 6.43311 9.00879 5.98145 8.30078 5.98145C7.59277 5.98145 7.15332 6.25 6.7627 6.92139C5.7373 8.63037 4.50439 10.73 3.68652 12.207C3.49121 12.5854 3.41797 12.854 3.41797 13.1836C3.41797 13.8306 3.84521 14.2212 4.46777 14.2212L8.02002 14.2212L8.02002 15.6616C8.02002 16.1255 8.27637 16.4795 8.75244 16.4795ZM8.02002 12.854L5.01709 12.854L5.01709 12.8052C5.7251 11.4258 6.98242 9.27734 7.95898 7.62939L8.02002 7.62939ZM13.8794 16.3696C14.209 16.3696 14.4531 16.1865 14.6606 15.7715L18.4692 8.1543C18.6646 7.76367 18.7012 7.54395 18.7012 7.2876C18.7012 6.68945 18.2739 6.22559 17.6147 6.22559L12.6953 6.22559C12.2681 6.22559 11.9873 6.50635 11.9873 6.92139C11.9873 7.32422 12.2681 7.59277 12.6953 7.59277L16.98 7.59277L16.98 7.69043L13.1958 15.0146C13.0981 15.1978 13.0615 15.3442 13.0615 15.5762C13.0615 16.04 13.4155 16.3696 13.8794 16.3696Z" fill="#5ac8f5"/>
 </g>
</svg>
