<?xml version="1.0" encoding="UTF-8"?>
<!--Generator: Apple Native CoreSVG 175.5-->
<!DOCTYPE svg
PUBLIC "-//W3C//DTD SVG 1.1//EN"
       "http://www.w3.org/Graphics/SVG/1.1/DTD/svg11.dtd">
<svg version="1.1" xmlns="http://www.w3.org/2000/svg" xmlns:xlink="http://www.w3.org/1999/xlink" width="29.8218" height="22.3511">
 <g>
  <rect height="22.3511" opacity="0" width="29.8218" x="0" y="0"/>
  <path d="M2.0874 22.3511L18.457 22.3511C19.7632 22.3511 20.5444 21.7407 20.5444 20.7275C20.5444 17.5781 16.6016 13.2324 10.2661 13.2324C3.94287 13.2324 0 17.5781 0 20.7275C0 21.7407 0.78125 22.3511 2.0874 22.3511ZM10.2783 11.0474C12.8906 11.0474 15.1611 8.70361 15.1611 5.65186C15.1611 2.63672 12.8906 0.402832 10.2783 0.402832C7.66602 0.402832 5.39551 2.68555 5.39551 5.67627C5.39551 8.70361 7.65381 11.0474 10.2783 11.0474ZM20.4956 10.8643C20.7642 10.8643 21.0083 10.7544 21.1914 10.5591L24.6582 7.09229L28.125 10.5591C28.3081 10.7422 28.5522 10.8643 28.833 10.8643C29.3701 10.8643 29.8096 10.4126 29.8096 9.87549C29.8096 9.59473 29.6997 9.375 29.5166 9.17969L26.0498 5.71289L29.5288 2.22168C29.7241 2.01416 29.8218 1.80664 29.8218 1.53809C29.8218 1.00098 29.3823 0.561523 28.8452 0.561523C28.5889 0.561523 28.3691 0.65918 28.1616 0.866699L24.6582 4.3457L21.167 0.878906C20.9839 0.683594 20.7642 0.585938 20.4956 0.585938C19.9463 0.585938 19.519 1.01318 19.519 1.55029C19.519 1.81885 19.6167 2.05078 19.812 2.23389L23.2788 5.71289L19.812 9.19189C19.6167 9.375 19.519 9.60693 19.519 9.87549C19.519 10.4126 19.9463 10.8643 20.4956 10.8643Z" fill="#5ac8f5"/>
 </g>
</svg>
