<?xml version="1.0" encoding="UTF-8"?>
<!--Generator: Apple Native CoreSVG 175.5-->
<!DOCTYPE svg
PUBLIC "-//W3C//DTD SVG 1.1//EN"
       "http://www.w3.org/Graphics/SVG/1.1/DTD/svg11.dtd">
<svg version="1.1" xmlns="http://www.w3.org/2000/svg" xmlns:xlink="http://www.w3.org/1999/xlink" width="31.5673" height="24.28">
 <g>
  <rect height="24.28" opacity="0" width="31.5673" x="0" y="0"/>
  <path d="M3.71082 10.1319L13.9281 20.3492L23.2543 11.0231C24.3407 9.93663 24.3163 8.39854 23.2055 7.2877L16.7723 0.842387C15.6615-0.268453 14.1234-0.28066 13.037 0.805766ZM1.42811 18.213L5.83485 22.6319C7.67811 24.4508 9.7411 24.524 11.4745 22.7906L12.7562 21.5211L2.52674 11.3038L1.25721 12.5611C-0.47619 14.3067-0.415155 16.3819 1.42811 18.213Z" fill="#5ac8f5"/>
  <path d="M13.1102 23.5108L20.8739 23.5108C21.411 23.5108 21.8505 23.0714 21.8505 22.5343C21.8505 21.9972 21.411 21.5455 20.8739 21.5455L15.0878 21.5455ZM24.5116 23.5108L30.5785 23.5108C31.1156 23.5108 31.5673 23.0714 31.5673 22.5343C31.5673 21.9972 31.1156 21.5455 30.5785 21.5455L24.5116 21.5455C23.9745 21.5455 23.535 21.9972 23.535 22.5343C23.535 23.0714 23.9745 23.5108 24.5116 23.5108Z" fill="#5ac8f5" fill-opacity="0.5"/>
 </g>
</svg>
