<?xml version="1.0" encoding="UTF-8"?>
<!--Generator: Apple Native CoreSVG 175.5-->
<!DOCTYPE svg
PUBLIC "-//W3C//DTD SVG 1.1//EN"
       "http://www.w3.org/Graphics/SVG/1.1/DTD/svg11.dtd">
<svg version="1.1" xmlns="http://www.w3.org/2000/svg" xmlns:xlink="http://www.w3.org/1999/xlink" width="24.9023" height="24.9146">
 <g>
  <rect height="24.9146" opacity="0" width="24.9023" x="0" y="0"/>
  <path d="M12.4512 24.9023C19.2627 24.9023 24.9023 19.2505 24.9023 12.4512C24.9023 5.63965 19.2505 0 12.439 0C5.63965 0 0 5.63965 0 12.4512C0 19.2505 5.65186 24.9023 12.4512 24.9023ZM12.4512 22.8271C6.68945 22.8271 2.0874 18.2129 2.0874 12.4512C2.0874 6.68945 6.67725 2.0752 12.439 2.0752C18.2007 2.0752 22.8271 6.68945 22.8271 12.4512C22.8271 18.2129 18.2129 22.8271 12.4512 22.8271ZM9.31396 17.5659C9.77783 17.5659 10.083 17.2607 10.083 16.7847L10.083 8.14209C10.083 7.62939 9.729 7.26318 9.22852 7.26318C8.82568 7.26318 8.58154 7.38525 8.1543 7.67822L6.29883 8.94775C6.04248 9.13086 5.896 9.35059 5.896 9.66797C5.896 10.083 6.23779 10.4004 6.5918 10.4004C6.78711 10.4004 6.89697 10.3882 7.17773 10.1685L8.48389 9.2041L8.55713 9.2041L8.55713 16.7847C8.55713 17.2607 8.8623 17.5659 9.31396 17.5659ZM14.0015 17.5781C14.3311 17.5781 14.563 17.395 14.7827 16.98L18.5913 9.36279C18.7744 8.97217 18.8232 8.75244 18.8232 8.49609C18.8232 7.89795 18.396 7.43408 17.7368 7.43408L12.8052 7.43408C12.3901 7.43408 12.1094 7.71484 12.1094 8.12988C12.1094 8.53271 12.3901 8.80127 12.8052 8.80127L17.1021 8.80127L17.1021 8.89893L13.3179 16.2231C13.208 16.4062 13.1836 16.5527 13.1836 16.7847C13.1836 17.2485 13.5376 17.5781 14.0015 17.5781Z" fill="#5ac8f5"/>
 </g>
</svg>
