<?xml version="1.0" encoding="UTF-8"?>
<!--Generator: Apple Native CoreSVG 175.5-->
<!DOCTYPE svg
PUBLIC "-//W3C//DTD SVG 1.1//EN"
       "http://www.w3.org/Graphics/SVG/1.1/DTD/svg11.dtd">
<svg version="1.1" xmlns="http://www.w3.org/2000/svg" xmlns:xlink="http://www.w3.org/1999/xlink" width="23.8561" height="31.6528">
 <g>
  <rect height="31.6528" opacity="0" width="23.8561" x="0" y="0"/>
  <path d="M15.4821 24.0356C20.1696 24.0356 22.257 22.9736 22.257 20.2759L22.257 4.43115C22.257 1.64795 19.6935 0 15.4821 0C11.2462 0 8.68274 1.64795 8.68274 4.43115L8.68274 20.2759C8.68274 22.9736 10.7824 24.0356 15.4821 24.0356ZM15.4821 22.1313C11.9664 22.1313 10.5992 21.5942 10.5992 20.2148L10.5992 4.43115C10.5992 2.83203 12.296 1.92871 15.4821 1.92871C18.6437 1.92871 20.3283 2.83203 20.3283 4.43115L20.3283 20.2148C20.3283 21.5942 18.9733 22.1313 15.4821 22.1313ZM15.4699 10.1196C16.3488 10.1196 17.6793 10.1929 18.1432 10.1929C18.8756 10.1929 19.2174 9.8877 19.2784 9.11865L19.4249 7.40967C19.547 6.00586 18.6193 5.46875 15.4699 5.46875C12.3204 5.46875 11.3927 6.00586 11.5148 7.40967L11.6613 9.11865C11.7223 9.8877 12.0641 10.1929 12.7965 10.1929C13.2482 10.1929 14.6398 10.1196 15.4699 10.1196ZM15.4699 19.9219C18.6193 19.9219 19.6202 19.458 19.3883 18.0054L19.2662 17.1753C19.0831 16.0156 18.1798 15.6494 15.4699 15.6494C12.7599 15.6494 11.8566 16.0156 11.6735 17.1753L11.5392 18.0054C11.3195 19.458 12.3204 19.9219 15.4699 19.9219ZM21.2194 9.61914L22.7819 9.61914C23.3922 9.61914 23.8561 9.15527 23.8561 8.58154L23.8561 8.11768C23.8561 7.53174 23.3922 7.08008 22.7819 7.08008L21.2194 7.08008ZM9.72034 9.61914L9.72034 7.08008L8.15784 7.08008C7.54749 7.08008 7.08362 7.53174 7.08362 8.11768L7.08362 8.58154C7.08362 9.15527 7.54749 9.61914 8.15784 9.61914Z" fill="#5ac8f5"/>
  <path d="M6.08265 25.5371C7.33997 26.7944 9.04895 27.417 10.0988 27.417C10.6725 27.417 11.0631 27.0508 11.0631 26.5259C11.0631 26.0376 10.7213 25.647 9.96448 25.5371C9.02454 25.4395 8.14563 25 7.37659 24.2432C6.64417 23.4985 6.21692 22.5952 6.08265 21.5576C5.97278 20.874 5.70423 20.5933 5.10608 20.5933C4.56897 20.5933 4.14173 21.0083 4.22718 21.6675C4.38587 23.1567 5.02063 24.4751 6.08265 25.5371Z" fill="#5ac8f5" fill-opacity="0.5"/>
  <path d="M3.0553 28.5767C4.92298 30.4565 7.30335 31.6406 9.89124 31.6406C10.5138 31.6406 10.941 31.2378 10.941 30.6641C10.941 30.1392 10.526 29.7974 9.8302 29.7485C7.82825 29.6265 5.87513 28.7964 4.34925 27.2827C2.83557 25.7568 2.0055 23.8159 1.88343 21.8018C1.82239 21.0205 1.50501 20.7153 0.894657 20.7153C0.418583 20.7153-0.0452844 21.0571 0.00354374 21.7285C0.162235 24.3164 1.16321 26.709 3.0553 28.5767Z" fill="#5ac8f5" fill-opacity="0.5"/>
 </g>
</svg>
