<?xml version="1.0" encoding="UTF-8"?>
<!--Generator: Apple Native CoreSVG 175.5-->
<!DOCTYPE svg
PUBLIC "-//W3C//DTD SVG 1.1//EN"
       "http://www.w3.org/Graphics/SVG/1.1/DTD/svg11.dtd">
<svg version="1.1" xmlns="http://www.w3.org/2000/svg" xmlns:xlink="http://www.w3.org/1999/xlink" width="31.2866" height="25.5005">
 <g>
  <rect height="25.5005" opacity="0" width="31.2866" x="0" y="0"/>
  <path d="M10.5591 23.9258L13.7695 23.9258C12.1094 23.23 10.9253 21.5698 10.9253 19.6533C10.9253 17.0654 13.0615 14.9292 15.6494 14.9292C18.2251 14.9292 20.3613 17.0654 20.3613 19.6533C20.3613 21.5698 19.1772 23.23 17.5171 23.9258L20.7275 23.9258C21.7163 22.7783 22.3145 21.2769 22.3145 19.6533C22.3145 15.9912 19.2871 12.9639 15.6494 12.9639C11.9995 12.9639 8.97217 15.9912 8.97217 19.6533C8.97217 21.2769 9.57031 22.7783 10.5591 23.9258ZM2.64893 20.3247L5.65186 20.3247C6.28662 20.3247 6.7627 19.8853 6.75049 19.3359C6.73828 18.7866 6.27441 18.3472 5.65186 18.3472L2.64893 18.3472C2.01416 18.3472 1.5625 18.7866 1.5625 19.3359C1.5625 19.8853 2.01416 20.3247 2.64893 20.3247ZM9.35059 13.3545C9.729 12.9639 9.729 12.3169 9.27734 11.8774L7.15332 9.75342C6.70166 9.30176 6.0791 9.31396 5.68848 9.69238C5.29785 10.0708 5.28564 10.7056 5.74951 11.1572L7.87354 13.2812C8.31299 13.7329 8.97217 13.7451 9.35059 13.3545ZM21.936 13.3545C22.3267 13.7329 22.9736 13.7329 23.4131 13.2812L25.5371 11.1572C26.001 10.7056 25.9766 10.083 25.5981 9.69238C25.2197 9.30176 24.585 9.30176 24.1333 9.75342L22.0093 11.8774C21.5576 12.3169 21.5454 12.9761 21.936 13.3545ZM25.6348 20.3247L28.6377 20.3247C29.2725 20.3247 29.7241 19.8853 29.7241 19.3359C29.7241 18.7866 29.2725 18.3472 28.6377 18.3472L25.6348 18.3472C25.0122 18.3472 24.5239 18.7866 24.5361 19.3359C24.5483 19.8853 25.0122 20.3247 25.6348 20.3247ZM1.06201 25.4761L30.2246 25.4761C30.7983 25.4761 31.2866 25.0366 31.2866 24.4995C31.2866 23.9624 30.7983 23.5229 30.2246 23.5229L1.06201 23.5229C0.488281 23.5229 0 23.9624 0 24.4995C0 25.0366 0.488281 25.4761 1.06201 25.4761ZM15.6494 0C15.1001 0 14.6484 0.488281 14.6484 1.08643L14.6484 5.65186L14.7949 7.49512L14.0137 6.57959L12.3657 4.91943C12.1826 4.73633 11.9507 4.63867 11.7188 4.63867C11.2305 4.63867 10.8765 4.96826 10.8765 5.45654C10.8765 5.71289 10.9619 5.9082 11.1694 6.09131L14.978 9.64355C15.2344 9.87549 15.4175 9.96094 15.6494 9.96094C15.8691 9.96094 16.0522 9.87549 16.3086 9.64355L20.1172 6.09131C20.3247 5.9082 20.4102 5.71289 20.4102 5.45654C20.4102 4.96826 20.0562 4.63867 19.5679 4.63867C19.3359 4.63867 19.104 4.73633 18.9209 4.91943L17.395 6.45752L16.4917 7.49512L16.6382 5.65186L16.6382 1.08643C16.6382 0.488281 16.1865 0 15.6494 0Z" fill="#5ac8f5"/>
 </g>
</svg>
