<?xml version="1.0" encoding="UTF-8"?>
<!--Generator: Apple Native CoreSVG 175.5-->
<!DOCTYPE svg
PUBLIC "-//W3C//DTD SVG 1.1//EN"
       "http://www.w3.org/Graphics/SVG/1.1/DTD/svg11.dtd">
<svg version="1.1" xmlns="http://www.w3.org/2000/svg" xmlns:xlink="http://www.w3.org/1999/xlink" width="29.9438" height="28.363">
 <g>
  <rect height="28.363" opacity="0" width="29.9438" x="0" y="0"/>
  <path d="M0.878906 16.5436L4.45557 16.5436C4.78516 16.5436 5.09033 16.3483 5.17578 15.9943L5.74951 13.4552L5.32227 13.4552L7.25098 22.3907C7.40967 23.1232 8.60596 23.1232 8.71582 22.3785L10.2051 12.5885L11.9507 27.6886C12.0605 28.5919 13.3545 28.5797 13.4277 27.6886L15.0269 9.68323L16.6382 27.6764C16.7114 28.5919 18.0054 28.5919 18.1152 27.6764L19.8608 12.5885L21.3501 22.3907C21.4722 23.1354 22.6562 23.1354 22.8149 22.3907L24.7314 13.5162L24.2676 13.5284L24.8901 15.9943C25 16.3971 25.2808 16.5436 25.6104 16.5436L29.0771 16.5436C29.5654 16.5436 29.9438 16.1652 29.9438 15.6891C29.9438 15.213 29.5654 14.8224 29.0771 14.8224L26.1475 14.8224L25.1709 11.0382C24.9512 10.2203 23.8892 10.2203 23.7061 11.0382L22.2046 18.1671L20.4834 6.92444C20.3491 6.03333 19.1162 6.05774 19.0063 6.93665L17.4683 20.2789L15.7837 1.23596C15.6982 0.320435 14.3677 0.320435 14.2822 1.23596L12.5977 20.2789L11.0596 6.93665C10.9497 6.03333 9.7168 6.03333 9.58252 6.92444L7.86133 18.1671L6.35986 11.0382C6.18896 10.2814 5.10254 10.2814 4.89502 11.0382L3.91846 14.8224L0.878906 14.8224C0.378418 14.8224 0 15.213 0 15.6891C0 16.1652 0.378418 16.5436 0.878906 16.5436Z" fill="#5ac8f5"/>
 </g>
</svg>
