<?xml version="1.0" encoding="UTF-8"?>
<!--Generator: Apple Native CoreSVG 175.5-->
<!DOCTYPE svg
PUBLIC "-//W3C//DTD SVG 1.1//EN"
       "http://www.w3.org/Graphics/SVG/1.1/DTD/svg11.dtd">
<svg version="1.1" xmlns="http://www.w3.org/2000/svg" xmlns:xlink="http://www.w3.org/1999/xlink" width="26.0986" height="20.4224">
 <g>
  <rect height="20.4224" opacity="0" width="26.0986" x="0" y="0"/>
  <path d="M0 11.731C0 17.2974 3.479 20.4224 9.44824 20.4224L11.9019 20.4224C14.1479 20.4224 15.5273 19.3359 15.5273 18.1152C15.5273 17.8467 15.3809 17.688 15.1123 17.688L14.0259 17.688C13.5132 17.688 13.269 17.4194 13.269 17.1143C13.269 16.7847 13.5132 16.5161 14.0259 16.5161L14.7461 16.5161C16.0645 16.5161 16.9312 15.6738 16.9312 14.5264C16.9312 14.0137 16.7236 13.7817 16.2842 13.7817L14.8071 13.7817C14.2822 13.7817 14.0259 13.5132 14.0259 13.208C14.0259 12.8662 14.2822 12.6099 14.8071 12.6099L16.1743 12.6099C17.6514 12.6099 18.3594 11.731 18.3594 10.6323C18.3594 10.1318 18.1396 9.8877 17.7002 9.8877L14.8071 9.8877C14.2822 9.8877 14.0259 9.61914 14.0259 9.31396C14.0259 8.97217 14.2822 8.71582 14.8071 8.71582L24.5239 8.71582C25.4761 8.71582 26.0986 8.09326 26.0986 7.2876C26.0986 6.43311 25.4761 5.83496 24.5239 5.83496L10.2783 5.83496C9.93652 5.83496 9.74121 5.61523 9.74121 5.3833C9.74121 5.17578 9.87549 4.99268 10.2295 4.84619L14.6729 2.9541C15.332 2.67334 15.6128 2.24609 15.6128 1.67236C15.6128 0.793457 15.0269 0.219727 14.2944 0.219727C13.9893 0.219727 13.7573 0.280762 13.5498 0.366211L7.34863 2.4292C2.13623 4.19922 0 7.6416 0 11.731Z" fill="#5ac8f5"/>
 </g>
</svg>
