<?xml version="1.0" encoding="UTF-8"?>
<!--Generator: Apple Native CoreSVG 175.5-->
<!DOCTYPE svg
PUBLIC "-//W3C//DTD SVG 1.1//EN"
       "http://www.w3.org/Graphics/SVG/1.1/DTD/svg11.dtd">
<svg version="1.1" xmlns="http://www.w3.org/2000/svg" xmlns:xlink="http://www.w3.org/1999/xlink" width="34.0332" height="18.9087">
 <g>
  <rect height="18.9087" opacity="0" width="34.0332" x="0" y="0"/>
  <path d="M34.0332 10.1562C34.0332 4.71191 30.896 1.31836 25.354 0.634766C21.2891 0.158691 14.1968 0.012207 10.3638 0C7.04346 0 5.34668 1.80664 5.63965 4.78516L6.00586 8.36182C6.11572 9.31396 5.61523 9.75342 4.58984 9.75342L1.44043 9.75342C0.598145 9.75342 0 10.3638 0 11.1938L0 17.041C0 18.3472 1.00098 18.8721 2.28271 18.5547C3.78418 18.1763 5.3833 17.9932 7.26318 17.9932L25.8057 17.9932C30.9814 17.9932 34.0332 15.2466 34.0332 10.1562ZM32.0679 10.1562C32.0679 13.9648 29.7241 16.0278 25.8423 16.0278L11.9019 16.0278C9.66797 16.0278 8.78906 15.2832 8.55713 13.2324L7.58057 4.56543C7.39746 2.81982 8.23975 1.96533 10.3638 1.96533C14.1968 1.96533 21.1792 2.16064 25.1831 2.6123C29.6143 3.125 32.0679 5.84717 32.0679 10.1562Z" fill="#5ac8f5"/>
 </g>
</svg>
