<?xml version="1.0" encoding="UTF-8"?>
<!--Generator: Apple Native CoreSVG 175.5-->
<!DOCTYPE svg
PUBLIC "-//W3C//DTD SVG 1.1//EN"
       "http://www.w3.org/Graphics/SVG/1.1/DTD/svg11.dtd">
<svg version="1.1" xmlns="http://www.w3.org/2000/svg" xmlns:xlink="http://www.w3.org/1999/xlink" width="24.9023" height="24.9146">
 <g>
  <rect height="24.9146" opacity="0" width="24.9023" x="0" y="0"/>
  <path d="M12.4512 24.9146C19.2627 24.9146 24.9023 19.2749 24.9023 12.4634C24.9023 5.66406 19.2505 0.012207 12.439 0.012207C5.63965 0.012207 0 5.66406 0 12.4634C0 19.2749 5.65186 24.9146 12.4512 24.9146ZM7.50732 14.8438C7.50732 13.501 8.58154 12.0605 10.376 11.4258L10.5835 8.47168C9.68018 7.95898 8.92334 7.37305 8.59375 6.9458C8.41064 6.71387 8.31299 6.48193 8.31299 6.27441C8.31299 5.88379 8.61816 5.60303 9.06982 5.60303L15.8569 5.60303C16.3086 5.60303 16.6138 5.88379 16.6138 6.27441C16.6138 6.48193 16.5161 6.71387 16.3452 6.93359C16.0156 7.36084 15.2588 7.95898 14.3433 8.47168L14.5386 11.4258C16.3452 12.0605 17.4194 13.501 17.4194 14.8438C17.4194 15.3931 17.0532 15.7471 16.4917 15.7471L13.2446 15.7471L13.2446 17.981C13.2446 19.3481 12.6953 20.4956 12.4634 20.4956C12.2314 20.4956 11.6821 19.3481 11.6821 17.981L11.6821 15.7471L8.42285 15.7471C7.86133 15.7471 7.50732 15.3931 7.50732 14.8438Z" fill="#5ac8f5"/>
 </g>
</svg>
