<?xml version="1.0" encoding="UTF-8"?>
<!--Generator: Apple Native CoreSVG 175.5-->
<!DOCTYPE svg
PUBLIC "-//W3C//DTD SVG 1.1//EN"
       "http://www.w3.org/Graphics/SVG/1.1/DTD/svg11.dtd">
<svg version="1.1" xmlns="http://www.w3.org/2000/svg" xmlns:xlink="http://www.w3.org/1999/xlink" width="24.9023" height="24.9146">
 <g>
  <rect height="24.9146" opacity="0" width="24.9023" x="0" y="0"/>
  <path d="M12.4512 24.9023C19.2627 24.9023 24.9023 19.2505 24.9023 12.4512C24.9023 5.63965 19.2505 0 12.439 0C5.63965 0 0 5.63965 0 12.4512C0 19.2505 5.65186 24.9023 12.4512 24.9023ZM12.4512 22.8271C6.68945 22.8271 2.0874 18.2129 2.0874 12.4512C2.0874 6.68945 6.67725 2.0752 12.439 2.0752C18.2007 2.0752 22.8271 6.68945 22.8271 12.4512C22.8271 18.2129 18.2129 22.8271 12.4512 22.8271Z" fill="#5ac8f5" fill-opacity="0.5"/>
  <path d="M9.25293 17.7124C11.3281 17.7124 12.7808 16.4673 12.7808 14.7095C12.7808 13.4155 11.8774 12.3657 10.6445 12.2437L10.6445 12.1704C11.6577 11.9995 12.4512 10.9863 12.4512 9.83887C12.4512 8.27637 11.1694 7.18994 9.33838 7.18994C7.69043 7.18994 6.46973 8.12988 6.15234 9.32617C6.11572 9.48486 6.11572 9.60693 6.11572 9.76562C6.11572 10.2051 6.39648 10.5103 6.81152 10.5103C7.17773 10.5103 7.37305 10.3149 7.49512 9.92432C7.76367 9.06982 8.34961 8.59375 9.30176 8.59375C10.2783 8.59375 10.9497 9.17969 10.9497 10.0342C10.9497 10.9253 10.2661 11.5723 9.28955 11.5723L8.63037 11.5723C8.23975 11.5723 7.97119 11.853 7.97119 12.2925C7.97119 12.6831 8.23975 12.9883 8.63037 12.9883L9.35059 12.9883C10.5103 12.9883 11.2549 13.6475 11.2549 14.6362C11.2549 15.5884 10.437 16.3086 9.26514 16.3086C8.30078 16.3086 7.6416 15.8325 7.31201 14.978C7.16553 14.5874 6.95801 14.3921 6.61621 14.3921C6.21338 14.3921 5.9082 14.6973 5.9082 15.1245C5.9082 15.2954 5.93262 15.4175 5.96924 15.5762C6.29883 16.6992 7.59277 17.7124 9.25293 17.7124ZM17.749 17.5659C18.2129 17.5659 18.5181 17.2607 18.5181 16.7847L18.5181 8.14209C18.5181 7.62939 18.1763 7.26318 17.6636 7.26318C17.2607 7.26318 17.0288 7.38525 16.5894 7.67822L14.7339 8.94775C14.4775 9.13086 14.3311 9.35059 14.3311 9.66797C14.3311 10.083 14.6729 10.4004 15.0269 10.4004C15.2222 10.4004 15.332 10.3882 15.625 10.1685L16.9189 9.2041L16.9922 9.2041L16.9922 16.7847C16.9922 17.2607 17.2974 17.5659 17.749 17.5659Z" fill="#5ac8f5"/>
 </g>
</svg>
