<?xml version="1.0" encoding="UTF-8"?>
<!--Generator: Apple Native CoreSVG 175.5-->
<!DOCTYPE svg
PUBLIC "-//W3C//DTD SVG 1.1//EN"
       "http://www.w3.org/Graphics/SVG/1.1/DTD/svg11.dtd">
<svg version="1.1" xmlns="http://www.w3.org/2000/svg" xmlns:xlink="http://www.w3.org/1999/xlink" width="22.9248" height="31.5308">
 <g>
  <rect height="31.5308" opacity="0" width="22.9248" x="0" y="0"/>
  <path d="M8.78906 31.5186C14.9536 31.5186 17.5781 30.1636 17.5781 26.8433L17.5781 5.65186C17.5781 2.0874 14.3433 0 8.78906 0C3.24707 0 0 2.0874 0 5.65186L0 26.8433C0 30.1636 2.63672 31.5186 8.78906 31.5186ZM8.80127 13.0005C7.60498 13.0005 5.77393 13.0859 5.12695 13.0859C4.18701 13.0859 3.77197 12.7197 3.67432 11.7432L3.479 9.375C3.30811 7.55615 4.58984 6.82373 8.80127 6.82373C13.0005 6.82373 14.2822 7.55615 14.1113 9.375L13.916 11.7432C13.8184 12.7197 13.4155 13.0859 12.4634 13.0859C11.8286 13.0859 9.92432 13.0005 8.80127 13.0005ZM8.80127 26.4404C4.55322 26.4404 3.25928 25.8057 3.52783 23.9502L3.68652 22.8027C3.89404 21.3013 5.15137 20.7886 8.80127 20.7886C12.439 20.7886 13.6963 21.3013 13.9038 22.8027L14.0625 23.9502C14.3311 25.8057 13.0371 26.4404 8.80127 26.4404ZM16.6626 8.5083L16.6626 11.377L21.1914 15.8936C21.5942 16.2964 22.229 16.2842 22.6318 15.8936C23.0225 15.4907 23.0225 14.8438 22.6318 14.4409ZM16.6626 17.7368L16.6626 20.6055L21.1914 25.1221C21.5942 25.5249 22.229 25.5127 22.6318 25.1221C23.0225 24.7192 23.0225 24.0601 22.6318 23.6694Z" fill="#5ac8f5"/>
 </g>
</svg>
