<?xml version="1.0" encoding="UTF-8"?>
<!--Generator: Apple Native CoreSVG 175.5-->
<!DOCTYPE svg
PUBLIC "-//W3C//DTD SVG 1.1//EN"
       "http://www.w3.org/Graphics/SVG/1.1/DTD/svg11.dtd">
<svg version="1.1" xmlns="http://www.w3.org/2000/svg" xmlns:xlink="http://www.w3.org/1999/xlink" width="24.9023" height="24.9146">
 <g>
  <rect height="24.9146" opacity="0" width="24.9023" x="0" y="0"/>
  <path d="M12.4512 24.9023C19.2627 24.9023 24.9023 19.2505 24.9023 12.4512C24.9023 5.63965 19.2505 0 12.439 0C5.63965 0 0 5.63965 0 12.4512C0 19.2505 5.65186 24.9023 12.4512 24.9023ZM12.4512 22.8271C6.68945 22.8271 2.0874 18.2129 2.0874 12.4512C2.0874 6.68945 6.67725 2.0752 12.439 2.0752C18.2007 2.0752 22.8271 6.68945 22.8271 12.4512C22.8271 18.2129 18.2129 22.8271 12.4512 22.8271ZM7.78809 18.2373C7.78809 19.3848 8.58154 20.1538 9.77783 20.1538L15.1245 20.1538C16.3208 20.1538 17.1143 19.3848 17.1143 18.2373L17.1143 6.66504C17.1143 5.51758 16.3208 4.74854 15.1245 4.74854L9.77783 4.74854C8.58154 4.74854 7.78809 5.51758 7.78809 6.66504ZM8.98438 17.6636L8.98438 7.23877L15.918 7.23877L15.918 17.6636ZM12.4634 19.4092C12.1216 19.4092 11.8408 19.1284 11.8408 18.7866C11.8408 18.4448 12.1216 18.1641 12.4634 18.1641C12.793 18.1641 13.0615 18.4448 13.0615 18.7866C13.0615 19.1284 12.793 19.4092 12.4634 19.4092ZM11.0596 6.04248C11.0596 5.85938 11.1816 5.74951 11.3525 5.74951L13.562 5.74951C13.7329 5.74951 13.8428 5.85938 13.8428 6.04248C13.8428 6.21338 13.7329 6.33545 13.562 6.33545L11.3525 6.33545C11.1816 6.33545 11.0596 6.21338 11.0596 6.04248Z" fill="#5ac8f5"/>
 </g>
</svg>
