<?xml version="1.0" encoding="UTF-8"?>
<!--Generator: Apple Native CoreSVG 175.5-->
<!DOCTYPE svg
PUBLIC "-//W3C//DTD SVG 1.1//EN"
       "http://www.w3.org/Graphics/SVG/1.1/DTD/svg11.dtd">
<svg version="1.1" xmlns="http://www.w3.org/2000/svg" xmlns:xlink="http://www.w3.org/1999/xlink" width="24.9023" height="24.9146">
 <g>
  <rect height="24.9146" opacity="0" width="24.9023" x="0" y="0"/>
  <path d="M12.4512 24.9023C19.2627 24.9023 24.9023 19.2505 24.9023 12.4512C24.9023 5.63965 19.2505 0 12.439 0C5.63965 0 0 5.63965 0 12.4512C0 19.2505 5.65186 24.9023 12.4512 24.9023Z" fill="#5ac8f5" fill-opacity="0.25"/>
  <path d="M12.4756 18.3594C9.19189 18.3594 7.1167 16.0156 7.1167 12.3413C7.1167 8.66699 9.2041 6.31104 12.4756 6.31104C14.6973 6.31104 16.4673 7.37305 17.0898 9.05762C17.1753 9.28955 17.1997 9.43604 17.1997 9.64355C17.1997 10.1807 16.8579 10.5103 16.3208 10.5103C15.9424 10.5103 15.6982 10.3271 15.4907 9.8999C14.9658 8.65479 13.916 7.9834 12.5 7.9834C10.498 7.9834 9.15527 9.74121 9.15527 12.3413C9.15527 14.9414 10.498 16.687 12.5 16.687C13.916 16.687 14.9658 16.0156 15.4907 14.7827C15.6982 14.3555 15.9424 14.1602 16.3208 14.1602C16.8579 14.1602 17.1997 14.4897 17.1997 15.0269C17.1997 15.21 17.1753 15.3809 17.0898 15.6128C16.4795 17.3096 14.6973 18.3594 12.4756 18.3594Z" fill="#5ac8f5"/>
 </g>
</svg>
