<?xml version="1.0" encoding="UTF-8"?>
<!--Generator: Apple Native CoreSVG 175.5-->
<!DOCTYPE svg
PUBLIC "-//W3C//DTD SVG 1.1//EN"
       "http://www.w3.org/Graphics/SVG/1.1/DTD/svg11.dtd">
<svg version="1.1" xmlns="http://www.w3.org/2000/svg" xmlns:xlink="http://www.w3.org/1999/xlink" width="24.3164" height="25.9888">
 <g>
  <rect height="25.9888" opacity="0" width="24.3164" x="0" y="0"/>
  <path d="M0 12.2681C0 14.3921 0.537109 16.5894 1.53809 18.6401C1.2085 18.9941 1.13525 19.6655 1.47705 20.3491L3.84521 25.1587C4.05273 25.5859 4.54102 25.8179 5.01709 25.8179C5.52979 25.8179 6.01807 25.5371 6.09131 24.9023L3.41797 19.4458C2.57568 17.7368 1.84326 14.9536 1.84326 12.2803C1.84326 6.18896 6.00586 2.0752 12.1582 2.0752C18.2983 2.0752 22.4731 6.18896 22.4731 12.2803C22.4731 14.9536 21.7407 17.7368 20.8984 19.4458L18.2129 24.9023C18.2983 25.5371 18.7866 25.8179 19.2993 25.8179C19.7632 25.8179 20.2515 25.5859 20.4712 25.1587L22.8271 20.3491C23.1689 19.6655 23.1079 18.9941 22.7783 18.6401C23.7793 16.5894 24.3164 14.3921 24.3164 12.2681C24.3164 5.43213 19.6045 0 12.1582 0C4.71191 0 0 5.43213 0 12.2681Z" fill="#5ac8f5"/>
  <path d="M6.27441 16.7114C5.83496 15.8081 5.00488 15.6128 4.37012 15.8691C3.6499 16.1499 3.14941 17.0044 3.68652 18.103L6.79932 24.4385C7.27539 25.4028 8.12988 25.7446 8.95996 25.3296C9.68018 24.9878 9.94873 24.1699 9.53369 23.3032ZM18.0298 16.7114L14.7827 23.3032C14.3677 24.1699 14.6362 24.9878 15.3442 25.3296C16.1743 25.7446 17.041 25.4028 17.5171 24.4385L20.6299 18.103C21.167 17.0044 20.6543 16.1499 19.9463 15.8691C19.2993 15.6128 18.4814 15.8081 18.0298 16.7114Z" fill="#5ac8f5" fill-opacity="0.5"/>
 </g>
</svg>
