<?xml version="1.0" encoding="UTF-8"?>
<!--Generator: Apple Native CoreSVG 175.5-->
<!DOCTYPE svg
PUBLIC "-//W3C//DTD SVG 1.1//EN"
       "http://www.w3.org/Graphics/SVG/1.1/DTD/svg11.dtd">
<svg version="1.1" xmlns="http://www.w3.org/2000/svg" xmlns:xlink="http://www.w3.org/1999/xlink" width="22.4731" height="22.4976">
 <g>
  <rect height="22.4976" opacity="0" width="22.4731" x="0" y="0"/>
  <path d="M3.83301 22.4976L18.6401 22.4976C21.2036 22.4976 22.4731 21.228 22.4731 18.7134L22.4731 3.80859C22.4731 1.29395 21.2036 0.0244141 18.6401 0.0244141L3.83301 0.0244141C1.28174 0.0244141 0 1.28174 0 3.80859L0 18.7134C0 21.2402 1.28174 22.4976 3.83301 22.4976ZM3.85742 20.5322C2.63672 20.5322 1.96533 19.8853 1.96533 18.6157L1.96533 3.90625C1.96533 2.63672 2.63672 1.98975 3.85742 1.98975L18.6157 1.98975C19.8242 1.98975 20.5078 2.63672 20.5078 3.90625L20.5078 18.6157C20.5078 19.8853 19.8242 20.5322 18.6157 20.5322Z" fill="#5ac8f5" fill-opacity="0.5"/>
  <path d="M6.56738 16.6016C6.56738 17.041 6.89697 17.3462 7.32422 17.3462C7.75146 17.3462 8.03223 17.0288 8.03223 16.5894L8.03223 7.25098L9.65576 7.25098C10.9863 7.25098 11.5723 7.65381 11.5723 9.05762L11.5723 13.3057C11.5723 13.7695 11.8774 14.0625 12.3047 14.0625C12.7319 14.0625 13.0249 13.7695 13.0249 13.3057L13.0249 8.8501C13.0249 6.65283 12.0361 5.68848 10.0098 5.68848L7.53174 5.68848C6.95801 5.68848 6.56738 6.06689 6.56738 6.64062ZM9.09424 16.272C9.09424 16.8457 9.44824 17.2119 10.0342 17.2119L12.561 17.2119C14.6362 17.2119 15.5273 16.2476 15.5273 13.8062L15.5273 6.31104C15.5273 5.87158 15.2466 5.56641 14.8071 5.56641C14.3677 5.56641 14.0747 5.85938 14.0747 6.31104L14.0747 13.8062C14.0747 15.3687 13.6353 15.6372 12.2681 15.6372L10.5469 15.6372L10.5469 9.57031C10.5469 9.10645 10.2539 8.82568 9.83887 8.82568C9.39941 8.82568 9.09424 9.10645 9.09424 9.57031Z" fill="#5ac8f5"/>
 </g>
</svg>
