<?xml version="1.0" encoding="UTF-8"?>
<!--Generator: Apple Native CoreSVG 175.5-->
<!DOCTYPE svg
PUBLIC "-//W3C//DTD SVG 1.1//EN"
       "http://www.w3.org/Graphics/SVG/1.1/DTD/svg11.dtd">
<svg version="1.1" xmlns="http://www.w3.org/2000/svg" xmlns:xlink="http://www.w3.org/1999/xlink" width="20.5322" height="26.1841">
 <g>
  <rect height="26.1841" opacity="0" width="20.5322" x="0" y="0"/>
  <path d="M0 22.3511C0 24.9023 1.25732 26.1719 3.78418 26.1719L16.748 26.1719C19.2749 26.1719 20.5322 24.9023 20.5322 22.3511L20.5322 3.83301C20.5322 1.29395 19.2749 0 16.748 0L3.78418 0C1.25732 0 0 1.29395 0 3.83301ZM8.91113 19.0552C8.48389 19.0552 8.1543 18.8843 7.82471 18.457L4.76074 14.7095C4.57764 14.4653 4.47998 14.1846 4.47998 13.916C4.47998 13.3545 4.89502 12.9028 5.45654 12.9028C5.79834 12.9028 6.0791 13.0249 6.37207 13.4277L8.8501 16.6138L14.0747 8.25195C14.2944 7.87354 14.6118 7.69043 14.9414 7.69043C15.4785 7.69043 15.979 8.05664 15.979 8.61816C15.979 8.88672 15.8203 9.17969 15.6616 9.42383L9.92432 18.457C9.68018 18.8599 9.32617 19.0552 8.91113 19.0552Z" fill="#5ac8f5"/>
 </g>
</svg>
