<?xml version="1.0" encoding="UTF-8"?>
<!--Generator: Apple Native CoreSVG 175.5-->
<!DOCTYPE svg
PUBLIC "-//W3C//DTD SVG 1.1//EN"
       "http://www.w3.org/Graphics/SVG/1.1/DTD/svg11.dtd">
<svg version="1.1" xmlns="http://www.w3.org/2000/svg" xmlns:xlink="http://www.w3.org/1999/xlink" width="29.5166" height="22.4976">
 <g>
  <rect height="22.4976" opacity="0" width="29.5166" x="0" y="0"/>
  <path d="M10.498 0.0244141C3.22266 0.0244141 0 3.35693 0 10.1929L0 18.7134C0 21.2402 1.28174 22.4976 3.83301 22.4976L25.6836 22.4976C28.2349 22.4976 29.5166 21.228 29.5166 18.7134L29.5166 10.1929C29.5166 3.35693 26.2939 0.0244141 19.0308 0.0244141ZM6.84814 16.9312C6.31104 16.9312 5.93262 16.5649 5.93262 16.0645C5.93262 15.7837 6.00586 15.6006 6.27441 15.21L12.0605 7.20215L12.0605 7.10449L6.75049 7.10449C6.25 7.10449 5.896 6.79932 5.896 6.27441C5.896 5.77393 6.25 5.44434 6.75049 5.44434L13.7329 5.44434C14.2822 5.44434 14.6606 5.82275 14.6606 6.33545C14.6606 6.64062 14.5996 6.81152 14.3555 7.15332L8.58154 15.1733L8.58154 15.271L14.2212 15.271C14.7217 15.271 15.0757 15.5762 15.0757 16.0889C15.0757 16.6016 14.7217 16.9312 14.2212 16.9312ZM18.0298 16.9312C17.3828 16.9312 17.0288 16.4551 17.0288 15.7837L17.0288 6.44531C17.0288 5.76172 17.3706 5.29785 18.0298 5.29785C18.7012 5.29785 19.0552 5.7373 19.0552 6.44531L19.0552 15.271L23.8281 15.271C24.3164 15.271 24.6704 15.5762 24.6704 16.0889C24.6704 16.6138 24.3164 16.9312 23.8281 16.9312Z" fill="#5ac8f5"/>
 </g>
</svg>
