<?xml version="1.0" encoding="UTF-8"?>
<!--Generator: Apple Native CoreSVG 175.5-->
<!DOCTYPE svg
PUBLIC "-//W3C//DTD SVG 1.1//EN"
       "http://www.w3.org/Graphics/SVG/1.1/DTD/svg11.dtd">
<svg version="1.1" xmlns="http://www.w3.org/2000/svg" xmlns:xlink="http://www.w3.org/1999/xlink" width="23.9014" height="23.9136">
 <g>
  <rect height="23.9136" opacity="0" width="23.9014" x="0" y="0"/>
  <path d="M0.976562 7.78809C1.62354 7.78809 1.96533 7.42188 1.96533 6.78711L1.96533 3.90625C1.96533 2.63672 2.63672 1.98975 3.85742 1.98975L6.81152 1.98975C7.4585 1.98975 7.8125 1.63574 7.8125 1.00098C7.8125 0.366211 7.4585 0.0244141 6.81152 0.0244141L3.83301 0.0244141C1.28174 0.0244141 0 1.28174 0 3.79639L0 6.78711C0 7.42188 0.354004 7.78809 0.976562 7.78809ZM22.9126 7.78809C23.5596 7.78809 23.9014 7.42188 23.9014 6.78711L23.9014 3.79639C23.9014 1.28174 22.6196 0.0244141 20.0684 0.0244141L17.0776 0.0244141C16.4429 0.0244141 16.0889 0.366211 16.0889 1.00098C16.0889 1.63574 16.4429 1.98975 17.0776 1.98975L20.0317 1.98975C21.2402 1.98975 21.936 2.63672 21.936 3.90625L21.936 6.78711C21.936 7.42188 22.29 7.78809 22.9126 7.78809ZM3.83301 23.9136L6.81152 23.9136C7.4585 23.9136 7.8125 23.5596 7.8125 22.937C7.8125 22.3022 7.4585 21.9482 6.81152 21.9482L3.85742 21.9482C2.63672 21.9482 1.96533 21.3013 1.96533 20.0317L1.96533 17.1509C1.96533 16.5039 1.61133 16.1499 0.976562 16.1499C0.341797 16.1499 0 16.5039 0 17.1509L0 20.1294C0 22.6562 1.28174 23.9136 3.83301 23.9136ZM17.0776 23.9136L20.0684 23.9136C22.6196 23.9136 23.9014 22.644 23.9014 20.1294L23.9014 17.1509C23.9014 16.5039 23.5474 16.1499 22.9126 16.1499C22.2778 16.1499 21.936 16.5039 21.936 17.1509L21.936 20.0317C21.936 21.3013 21.2402 21.9482 20.0317 21.9482L17.0776 21.9482C16.4429 21.9482 16.0889 22.3022 16.0889 22.937C16.0889 23.5596 16.4429 23.9136 17.0776 23.9136Z" fill="#5ac8f5" fill-opacity="0.5"/>
  <path d="M6.26221 13.7451C7.23877 13.7451 8.03223 12.9395 8.03223 11.9629C8.03223 10.9863 7.22656 10.1807 6.26221 10.1807C5.28564 10.1807 4.47998 10.9863 4.47998 11.9629C4.47998 12.9395 5.28564 13.7451 6.26221 13.7451Z" fill="#5ac8f5"/>
  <path d="M11.9629 13.7451C12.9395 13.7451 13.7329 12.9395 13.7329 11.9629C13.7329 10.9863 12.9395 10.1807 11.9629 10.1807C10.9741 10.1807 10.1807 10.9863 10.1807 11.9629C10.1807 12.9395 10.9741 13.7451 11.9629 13.7451Z" fill="#5ac8f5"/>
  <path d="M17.6514 13.7451C18.6279 13.7451 19.4214 12.9395 19.4214 11.9629C19.4214 10.9863 18.6279 10.1807 17.6514 10.1807C16.6748 10.1807 15.8691 10.9863 15.8691 11.9629C15.8691 12.9395 16.6748 13.7451 17.6514 13.7451Z" fill="#5ac8f5"/>
 </g>
</svg>
