<?xml version="1.0" encoding="UTF-8"?>
<!--Generator: Apple Native CoreSVG 175.5-->
<!DOCTYPE svg
PUBLIC "-//W3C//DTD SVG 1.1//EN"
       "http://www.w3.org/Graphics/SVG/1.1/DTD/svg11.dtd">
<svg version="1.1" xmlns="http://www.w3.org/2000/svg" xmlns:xlink="http://www.w3.org/1999/xlink" width="28.894" height="17.8589">
 <g>
  <rect height="17.8589" opacity="0" width="28.894" x="0" y="0"/>
  <path d="M19.3115 6.29883C20.7886 6.29883 21.9849 5.11475 21.9849 3.6377C21.9849 2.16064 20.7886 0.964355 19.3115 0.964355C17.8345 0.964355 16.6504 2.16064 16.6504 3.6377C16.6504 5.11475 17.8345 6.29883 19.3115 6.29883ZM14.4409 11.2427C16.6016 11.2427 17.2119 9.91211 19.1284 9.42383L10.6689 0.622559C10.1196 0.0610352 9.31396-0.012207 8.65479 0.45166L3.86963 3.85742C3.03955 4.44336 3.125 5.31006 3.60107 5.82275C3.9917 6.26221 4.71191 6.44531 5.39551 5.95703L9.27734 3.21045L11.4746 5.46875C11.7188 5.7251 11.792 6.11572 11.4136 6.37207L6.89697 9.33838C7.42188 9.28955 7.9834 9.27734 8.63037 9.30176C11.4014 9.42383 11.9141 11.2427 14.4409 11.2427ZM0.683594 14.4653L1.9165 14.4653C5.17578 14.4653 5.92041 12.4634 8.17871 12.4634C10.437 12.4634 11.1816 14.4653 14.4409 14.4653C17.7124 14.4653 18.4448 12.4634 20.7153 12.4634C22.9736 12.4634 23.7061 14.4653 26.9775 14.4653L28.2104 14.4653C28.5889 14.4653 28.894 14.1724 28.894 13.7939C28.894 13.4155 28.5889 13.1104 28.2104 13.1104L26.9775 13.1104C24.6338 13.1104 23.8403 11.1084 20.7153 11.1084C17.5781 11.1084 16.7847 13.1104 14.4409 13.1104C12.0972 13.1104 11.3159 11.1084 8.17871 11.1084C5.05371 11.1084 4.26025 13.1104 1.9165 13.1104L0.683594 13.1104C0.292969 13.1104 0 13.4155 0 13.7939C0 14.1724 0.292969 14.4653 0.683594 14.4653ZM1.00098 17.8589C1.40381 17.8589 1.72119 17.5415 1.72119 17.1509C1.72119 16.748 1.40381 16.4307 1.00098 16.4307C0.610352 16.4307 0.292969 16.748 0.292969 17.1509C0.292969 17.5415 0.610352 17.8589 1.00098 17.8589ZM3.2959 17.4438C3.68652 17.4438 4.00391 17.1387 4.00391 16.7358C4.00391 16.333 3.68652 16.0278 3.2959 16.0278C2.89307 16.0278 2.57568 16.333 2.57568 16.7358C2.57568 17.1387 2.89307 17.4438 3.2959 17.4438ZM5.43213 16.4429C5.83496 16.4429 6.15234 16.1255 6.15234 15.7227C6.15234 15.332 5.83496 15.0146 5.43213 15.0146C5.0415 15.0146 4.72412 15.332 4.72412 15.7227C4.72412 16.1255 5.0415 16.4429 5.43213 16.4429ZM7.73926 15.8936C8.14209 15.8936 8.45947 15.5762 8.45947 15.1855C8.45947 14.7827 8.14209 14.4653 7.73926 14.4653C7.34863 14.4653 7.03125 14.7827 7.03125 15.1855C7.03125 15.5762 7.34863 15.8936 7.73926 15.8936ZM10.0464 16.4429C10.4492 16.4429 10.7544 16.1255 10.7544 15.7227C10.7544 15.332 10.4492 15.0146 10.0464 15.0146C9.64355 15.0146 9.33838 15.332 9.33838 15.7227C9.33838 16.1255 9.64355 16.4429 10.0464 16.4429ZM12.207 17.4438C12.6099 17.4438 12.9272 17.1387 12.9272 16.7358C12.9272 16.333 12.6099 16.0278 12.207 16.0278C11.8164 16.0278 11.499 16.333 11.499 16.7358C11.499 17.1387 11.8164 17.4438 12.207 17.4438ZM14.4653 17.8589C14.856 17.8589 15.1733 17.5415 15.1733 17.1509C15.1733 16.748 14.856 16.4307 14.4653 16.4307C14.0625 16.4307 13.7451 16.748 13.7451 17.1509C13.7451 17.5415 14.0625 17.8589 14.4653 17.8589ZM16.7114 17.4438C17.1143 17.4438 17.4194 17.1387 17.4194 16.7358C17.4194 16.333 17.1143 16.0278 16.7114 16.0278C16.3086 16.0278 16.0034 16.333 16.0034 16.7358C16.0034 17.1387 16.3086 17.4438 16.7114 17.4438ZM18.8721 16.4429C19.2749 16.4429 19.5923 16.1255 19.5923 15.7227C19.5923 15.332 19.2749 15.0146 18.8721 15.0146C18.4814 15.0146 18.1641 15.332 18.1641 15.7227C18.1641 16.1255 18.4814 16.4429 18.8721 16.4429ZM21.1792 15.8936C21.582 15.8936 21.8872 15.5762 21.8872 15.1855C21.8872 14.7827 21.582 14.4653 21.1792 14.4653C20.7764 14.4653 20.4712 14.7827 20.4712 15.1855C20.4712 15.5762 20.7764 15.8936 21.1792 15.8936ZM23.4863 16.4429C23.8892 16.4429 24.1943 16.1255 24.1943 15.7227C24.1943 15.332 23.8892 15.0146 23.4863 15.0146C23.0835 15.0146 22.7783 15.332 22.7783 15.7227C22.7783 16.1255 23.0835 16.4429 23.4863 16.4429ZM25.6348 17.4438C26.0376 17.4438 26.3428 17.1387 26.3428 16.7358C26.3428 16.333 26.0376 16.0278 25.6348 16.0278C25.2319 16.0278 24.9268 16.333 24.9268 16.7358C24.9268 17.1387 25.2319 17.4438 25.6348 17.4438ZM27.9053 17.8589C28.3081 17.8589 28.6255 17.5415 28.6255 17.1509C28.6255 16.748 28.3081 16.4307 27.9053 16.4307C27.5146 16.4307 27.1973 16.748 27.1973 17.1509C27.1973 17.5415 27.5146 17.8589 27.9053 17.8589Z" fill="#5ac8f5"/>
 </g>
</svg>
