<?xml version="1.0" encoding="UTF-8"?>
<!--Generator: Apple Native CoreSVG 175.5-->
<!DOCTYPE svg
PUBLIC "-//W3C//DTD SVG 1.1//EN"
       "http://www.w3.org/Graphics/SVG/1.1/DTD/svg11.dtd">
<svg version="1.1" xmlns="http://www.w3.org/2000/svg" xmlns:xlink="http://www.w3.org/1999/xlink" width="24.9023" height="24.9146">
 <g>
  <rect height="24.9146" opacity="0" width="24.9023" x="0" y="0"/>
  <path d="M17.4561 23.4009L17.749 21.8384C15.0024 21.8018 13.1958 17.2485 12.6831 13.4766C17.4561 9.15527 20.8252 3.71094 18.2983 1.58691L17.2607 2.7832C18.6768 3.95508 16.1011 8.22754 11.6455 12.2803C7.22656 10.4492 2.771 9.75342 0.537109 12.3291L1.68457 13.208C3.28369 11.5112 6.88477 12.0239 11.1084 13.7939C11.6821 17.7734 13.7939 23.1812 17.4561 23.4009ZM14.4409 19.519C22.5586 14.5996 23.7305 8.23975 23.0957 6.16455L21.5698 6.61621C22.0337 8.1665 21.0327 13.7939 13.4155 18.2983ZM11.1572 24.5361L12.3535 23.2666C10.3638 22.7173 5.99365 18.6279 5.896 11.6211L4.29688 11.7554C4.40674 18.7012 8.56934 23.2788 11.1572 24.5361ZM15.6494 8.45947L16.3452 7.03125C12.9028 4.78516 6.87256 2.90527 2.17285 6.05469L2.28271 7.72705C6.46973 4.50439 12.2192 6.23779 15.6494 8.45947ZM12.4512 0C5.65186 0 0 5.63965 0 12.4512C0 19.2505 5.66406 24.9023 12.4634 24.9023C19.2749 24.9023 24.9023 19.2505 24.9023 12.4512C24.9023 5.63965 19.2627 0 12.4512 0ZM12.4512 1.66016C18.3472 1.66016 23.2422 6.55518 23.2422 12.4512C23.2422 18.3472 18.3594 23.2422 12.4634 23.2422C6.56738 23.2422 1.66016 18.3472 1.66016 12.4512C1.66016 6.55518 6.55518 1.66016 12.4512 1.66016Z" fill="#5ac8f5"/>
 </g>
</svg>
