<?xml version="1.0" encoding="UTF-8"?>
<!--Generator: Apple Native CoreSVG 175.5-->
<!DOCTYPE svg
PUBLIC "-//W3C//DTD SVG 1.1//EN"
       "http://www.w3.org/Graphics/SVG/1.1/DTD/svg11.dtd">
<svg version="1.1" xmlns="http://www.w3.org/2000/svg" xmlns:xlink="http://www.w3.org/1999/xlink" width="38.9041" height="22.7417">
 <g>
  <rect height="22.7417" opacity="0" width="38.9041" x="0" y="0"/>
  <path d="M24.4631 19.3115C28.5647 19.3115 34.009 19.104 36.3284 18.8354C37.9763 18.6523 38.9041 17.7368 38.9041 16.1743L38.9041 14.0259C38.9041 11.9629 38.489 10.8154 37.3538 9.35059L36.3284 8.02002C35.8767 5.82275 35.071 3.51562 34.6438 2.6123C33.9968 1.23291 32.7273 0.415039 31.1038 0.195312C30.2859 0.0854492 27.6126 0.0244141 24.4631 0.0244141C21.3015 0.0244141 18.6282 0.0976562 17.8103 0.195312C16.1868 0.390625 14.9172 1.23291 14.2703 2.6123C13.8552 3.51562 13.0374 5.82275 12.5857 8.02002L11.5603 9.35059C10.4251 10.8154 10.01 11.9629 10.01 14.0259L10.01 16.1743C10.01 17.7368 10.9377 18.6523 12.5857 18.8354C14.905 19.104 20.3494 19.3115 24.4631 19.3115ZM15.0515 6.99463C15.3445 5.66406 15.9304 3.91846 16.3333 3.21045C16.6628 2.63672 17.0291 2.38037 17.6882 2.29492C18.6038 2.17285 20.679 2.0874 24.4631 2.0874C28.2351 2.0874 30.3103 2.14844 31.238 2.29492C31.8972 2.39258 32.239 2.63672 32.5808 3.21045C32.9959 3.90625 33.5452 5.66406 33.8626 6.99463C33.9724 7.44629 33.7893 7.61719 33.3132 7.59277C31.2869 7.4585 28.8699 7.33643 24.4631 7.33643C20.0442 7.33643 17.6272 7.4585 15.6008 7.59277C15.1248 7.61719 14.9539 7.44629 15.0515 6.99463ZM15.6497 16.0156C14.5388 16.0156 13.6965 15.1611 13.6965 14.0503C13.6965 12.9272 14.5388 12.085 15.6497 12.085C16.7727 12.085 17.615 12.9272 17.615 14.0503C17.615 15.1611 16.7727 16.0156 15.6497 16.0156ZM21.2283 15.5273C20.3982 15.5273 19.8123 14.9536 19.8123 14.1113C19.8123 13.2812 20.3982 12.7075 21.2283 12.7075L27.6858 12.7075C28.5159 12.7075 29.1018 13.2812 29.1018 14.1113C29.1018 14.9536 28.5159 15.5273 27.6858 15.5273ZM33.2644 16.0156C32.1414 16.0156 31.2991 15.1611 31.2991 14.0503C31.2991 12.9272 32.1414 12.085 33.2644 12.085C34.3752 12.085 35.2175 12.9272 35.2175 14.0503C35.2175 15.1611 34.3752 16.0156 33.2644 16.0156ZM11.6335 22.6685L13.074 22.6685C13.9895 22.6685 14.6853 21.9604 14.6853 21.0571L14.6853 18.0176L10.01 15.7959L10.01 21.0571C10.01 21.9604 10.718 22.6685 11.6335 22.6685ZM35.8401 22.6685L37.2805 22.6685C38.196 22.6685 38.9041 21.9604 38.9041 21.0571L38.9041 15.7959L34.2288 18.0176L34.2288 21.0571C34.2288 21.9604 34.9368 22.6685 35.8401 22.6685ZM5.04175 7.10449C5.32251 5.77393 5.92066 4.02832 6.32349 3.32031C6.65308 2.74658 7.00708 2.50244 7.66626 2.40479C8.44751 2.29492 10.0222 2.22168 12.7688 2.19727C13.0618 1.31836 13.4402 0.634766 14.1482 0C10.718 0.0244141 8.50855 0.0976562 7.77613 0.183105C6.15259 0.366211 4.88306 1.23291 4.23609 2.6123C3.80884 3.50342 3.01538 5.82275 2.56372 8.02002L1.55054 9.35059C0.427493 10.8276-0.0119602 11.9751 0.00024687 14.0381L0.0124539 16.1865C0.0246609 17.749 0.940188 18.6523 2.58814 18.8354C3.84546 18.9819 5.9939 19.104 8.33765 19.1895L8.33765 14.0381C8.33765 11.9751 8.7649 10.8276 9.87574 9.35059L10.9011 8.02002L11.072 7.4707C8.65503 7.51953 7.0315 7.60498 5.59107 7.70264C5.11499 7.72705 4.93189 7.55615 5.04175 7.10449ZM4.6023 15.3564C3.57691 15.3564 2.80786 14.5752 2.80786 13.562C2.80786 12.5366 3.57691 11.7676 4.6023 11.7676C5.61548 11.7676 6.38452 12.5366 6.38452 13.562C6.38452 14.5752 5.61548 15.3564 4.6023 15.3564ZM1.6482 22.6685L3.07642 22.6685C3.99195 22.6685 4.68775 21.9604 4.68775 21.0571L4.68775 17.6514L0.0124539 15.4419L0.0124539 21.0693C0.0124539 21.9727 0.732669 22.6685 1.6482 22.6685Z" fill="#5ac8f5"/>
 </g>
</svg>
