<?xml version="1.0" encoding="UTF-8"?>
<!--Generator: Apple Native CoreSVG 175.5-->
<!DOCTYPE svg
PUBLIC "-//W3C//DTD SVG 1.1//EN"
       "http://www.w3.org/Graphics/SVG/1.1/DTD/svg11.dtd">
<svg version="1.1" xmlns="http://www.w3.org/2000/svg" xmlns:xlink="http://www.w3.org/1999/xlink" width="24.9023" height="24.9146">
 <g>
  <rect height="24.9146" opacity="0" width="24.9023" x="0" y="0"/>
  <path d="M12.4512 24.9023C19.2627 24.9023 24.9023 19.2505 24.9023 12.4512C24.9023 5.63965 19.2505 0 12.439 0C5.63965 0 0 5.63965 0 12.4512C0 19.2505 5.65186 24.9023 12.4512 24.9023ZM12.4512 22.8271C6.68945 22.8271 2.0874 18.2129 2.0874 12.4512C2.0874 6.68945 6.67725 2.0752 12.439 2.0752C18.2007 2.0752 22.8271 6.68945 22.8271 12.4512C22.8271 18.2129 18.2129 22.8271 12.4512 22.8271Z" fill="#5ac8f5" fill-opacity="0.5"/>
  <path d="M8.19092 17.7124C10.2661 17.7124 11.7065 16.4673 11.7065 14.7095C11.7065 13.4155 10.8154 12.3657 9.58252 12.2437L9.58252 12.1704C10.5835 11.9995 11.377 10.9863 11.377 9.83887C11.377 8.27637 10.0952 7.18994 8.27637 7.18994C6.61621 7.18994 5.39551 8.12988 5.07812 9.32617C5.05371 9.48486 5.0415 9.60693 5.0415 9.76562C5.0415 10.2051 5.32227 10.5103 5.7373 10.5103C6.10352 10.5103 6.29883 10.3149 6.4209 9.92432C6.68945 9.06982 7.2876 8.59375 8.23975 8.59375C9.2041 8.59375 9.87549 9.17969 9.87549 10.0342C9.87549 10.9253 9.19189 11.5723 8.22754 11.5723L7.56836 11.5723C7.16553 11.5723 6.89697 11.853 6.89697 12.2925C6.89697 12.6831 7.16553 12.9883 7.56836 12.9883L8.27637 12.9883C9.44824 12.9883 10.1807 13.6475 10.1807 14.6362C10.1807 15.5884 9.375 16.3086 8.20312 16.3086C7.23877 16.3086 6.56738 15.8325 6.25 14.978C6.10352 14.5874 5.896 14.3921 5.5542 14.3921C5.13916 14.3921 4.84619 14.6973 4.84619 15.1245C4.84619 15.2954 4.8584 15.4175 4.90723 15.5762C5.22461 16.6992 6.53076 17.7124 8.19092 17.7124ZM16.7358 17.7246C18.7134 17.7246 20.1294 16.4185 20.1294 14.1846C20.1294 12.085 18.689 10.9253 17.1021 10.9253C15.8081 10.9253 14.978 11.6577 14.6851 12.4634L14.5996 12.4634C14.5996 12.4268 14.5996 12.4023 14.5996 12.3535C14.5996 10.0464 15.5273 8.59375 16.9067 8.59375C17.6025 8.59375 18.103 8.93555 18.4082 9.41162C18.6157 9.7168 18.7988 9.86328 19.1406 9.86328C19.4702 9.86328 19.7388 9.59473 19.7388 9.19189C19.7388 9.0332 19.7144 8.88672 19.6533 8.72803C19.3359 7.91016 18.3594 7.18994 16.9678 7.18994C14.6118 7.18994 13.1592 9.021 13.1592 12.7319C13.1592 14.2212 13.4033 15.3076 13.8184 16.0767C14.4409 17.2485 15.4907 17.7246 16.7358 17.7246ZM16.6626 16.3818C15.5273 16.3818 14.7339 15.4907 14.7339 14.2334C14.7339 13.0371 15.5151 12.1826 16.6626 12.1826C17.8101 12.1826 18.5913 13.0249 18.5913 14.2456C18.5913 15.5518 17.8467 16.3818 16.6626 16.3818Z" fill="#5ac8f5"/>
 </g>
</svg>
