<?xml version="1.0" encoding="UTF-8"?>
<!--Generator: Apple Native CoreSVG 175.5-->
<!DOCTYPE svg
PUBLIC "-//W3C//DTD SVG 1.1//EN"
       "http://www.w3.org/Graphics/SVG/1.1/DTD/svg11.dtd">
<svg version="1.1" xmlns="http://www.w3.org/2000/svg" xmlns:xlink="http://www.w3.org/1999/xlink" width="28.7842" height="22.4731">
 <g>
  <rect height="22.4731" opacity="0" width="28.7842" x="0" y="0"/>
  <path d="M3.83301 22.4731L24.9512 22.4731C27.5146 22.4731 28.7842 21.2158 28.7842 18.7012L28.7842 3.78418C28.7842 1.26953 27.5146 0 24.9512 0L3.83301 0C1.28174 0 0 1.26953 0 3.78418L0 18.7012C0 21.2158 1.28174 22.4731 3.83301 22.4731Z" fill="#5ac8f5" fill-opacity="0.25"/>
  <path d="M5.51758 6.55518C4.89502 6.55518 4.35791 6.00586 4.35791 5.3833C4.35791 4.73633 4.89502 4.21143 5.51758 4.21143C6.17676 4.21143 6.70166 4.72412 6.70166 5.3833C6.70166 6.01807 6.17676 6.55518 5.51758 6.55518ZM5.51758 10.4004C4.89502 10.4004 4.35791 9.86328 4.35791 9.22852C4.35791 8.58154 4.89502 8.05664 5.51758 8.05664C6.17676 8.05664 6.70166 8.56934 6.70166 9.22852C6.70166 9.87549 6.17676 10.4004 5.51758 10.4004ZM5.51758 14.2334C4.88281 14.2334 4.35791 13.7207 4.35791 13.0615C4.35791 12.439 4.88281 11.9019 5.51758 11.9019C6.17676 11.9019 6.70166 12.4268 6.70166 13.0615C6.70166 13.7207 6.17676 14.2334 5.51758 14.2334ZM5.51758 18.2739C4.89502 18.2739 4.35791 17.7368 4.35791 17.1021C4.35791 16.4673 4.89502 15.918 5.51758 15.918C6.17676 15.918 6.70166 16.4551 6.70166 17.1021C6.70166 17.749 6.17676 18.2739 5.51758 18.2739ZM9.31396 6.15234C8.8623 6.15234 8.52051 5.81055 8.52051 5.3833C8.52051 4.93164 8.87451 4.57764 9.31396 4.57764L23.7061 4.57764C24.1455 4.57764 24.4995 4.93164 24.4995 5.3833C24.4995 5.81055 24.1577 6.15234 23.7061 6.15234ZM9.31396 10.0098C8.87451 10.0098 8.52051 9.65576 8.52051 9.22852C8.52051 8.80127 8.87451 8.43506 9.31396 8.43506L17.2852 8.43506C17.7124 8.43506 18.0664 8.80127 18.0664 9.22852C18.0664 9.65576 17.7124 10.0098 17.2852 10.0098ZM9.31396 13.8672C8.8623 13.8672 8.52051 13.5254 8.52051 13.0615C8.52051 12.6343 8.8623 12.2925 9.31396 12.2925L23.7061 12.2925C24.1577 12.2925 24.4995 12.6343 24.4995 13.0615C24.4995 13.5254 24.1577 13.8672 23.7061 13.8672ZM9.31396 17.8955C8.87451 17.8955 8.52051 17.5415 8.52051 17.1021C8.52051 16.6626 8.8623 16.3208 9.31396 16.3208L17.2852 16.3208C17.7246 16.3208 18.0664 16.6626 18.0664 17.1021C18.0664 17.5415 17.7124 17.8955 17.2852 17.8955Z" fill="#5ac8f5"/>
 </g>
</svg>
