<?xml version="1.0" encoding="UTF-8"?>
<!--Generator: Apple Native CoreSVG 175.5-->
<!DOCTYPE svg
PUBLIC "-//W3C//DTD SVG 1.1//EN"
       "http://www.w3.org/Graphics/SVG/1.1/DTD/svg11.dtd">
<svg version="1.1" xmlns="http://www.w3.org/2000/svg" xmlns:xlink="http://www.w3.org/1999/xlink" width="26.9531" height="21.0571">
 <g>
  <rect height="21.0571" opacity="0" width="26.9531" x="0" y="0"/>
  <path d="M13.501 11.9507C14.0015 11.9507 14.4653 11.7188 15.0024 11.1816L25.6226 0.671387C25.1709 0.231934 24.3286 0.0244141 23.1201 0.0244141L3.4668 0.0244141C2.44141 0.0244141 1.72119 0.219727 1.31836 0.622559L11.9995 11.1816C12.5244 11.7065 12.9883 11.9507 13.501 11.9507ZM0.305176 19.0918L8.93555 10.5591L0.280762 2.02637C0.0976562 2.36816 0 2.9541 0 3.79639L0 17.2729C0 18.1396 0.0976562 18.75 0.305176 19.0918ZM3.83301 21.0571L23.4863 21.0571C24.5117 21.0571 25.2197 20.8618 25.6226 20.4712L16.8213 11.7554L16.0156 12.5732C15.1733 13.3789 14.3799 13.7451 13.501 13.7451C12.6099 13.7451 11.8164 13.3789 10.9863 12.5732L10.1685 11.7554L1.3916 20.459C1.85547 20.8618 2.66113 21.0571 3.83301 21.0571ZM26.6602 19.0796C26.8555 18.7256 26.9531 18.1274 26.9531 17.2729L26.9531 3.79639C26.9531 2.97852 26.8555 2.39258 26.6846 2.06299L18.0542 10.5591Z" fill="#5ac8f5"/>
 </g>
</svg>
