<?xml version="1.0" encoding="UTF-8"?>
<!--Generator: Apple Native CoreSVG 175.5-->
<!DOCTYPE svg
PUBLIC "-//W3C//DTD SVG 1.1//EN"
       "http://www.w3.org/Graphics/SVG/1.1/DTD/svg11.dtd">
<svg version="1.1" xmlns="http://www.w3.org/2000/svg" xmlns:xlink="http://www.w3.org/1999/xlink" width="24.9023" height="24.9146">
 <g>
  <rect height="24.9146" opacity="0" width="24.9023" x="0" y="0"/>
  <path d="M12.4512 24.9023C19.2627 24.9023 24.9023 19.2505 24.9023 12.4512C24.9023 5.63965 19.2505 0 12.439 0C5.63965 0 0 5.63965 0 12.4512C0 19.2505 5.65186 24.9023 12.4512 24.9023ZM12.4512 22.8271C6.68945 22.8271 2.0874 18.2129 2.0874 12.4512C2.0874 6.68945 6.67725 2.0752 12.439 2.0752C18.2007 2.0752 22.8271 6.68945 22.8271 12.4512C22.8271 18.2129 18.2129 22.8271 12.4512 22.8271Z" fill="#5ac8f5" fill-opacity="0.5"/>
  <path d="M11.4868 7.32422C11.9873 6.82373 11.9995 6.06689 11.499 5.57861C11.0352 5.09033 10.2539 5.05371 9.75342 5.51758C9.69238 5.61523 7.87354 7.33643 6.86035 8.45947C5.93262 9.46045 5.48096 10.7544 5.56641 12.0728C5.65186 13.4521 6.29883 14.7217 7.38525 15.6494C8.25195 16.4062 9.39941 16.7847 10.5469 16.7847C11.7432 16.7847 12.915 16.394 13.8062 15.564C14.4531 15.0024 15.1855 14.209 15.21 14.1968C15.6738 13.6841 15.6372 12.9028 15.1489 12.4512C14.6484 11.9629 13.855 11.9995 13.4033 12.5122C13.3789 12.5122 12.7319 13.2446 12.1582 13.7451C11.2305 14.563 9.75342 14.4287 8.98438 13.7939C8.42285 13.2812 8.10547 12.6343 8.05664 11.9385C7.99561 11.2671 8.23975 10.6323 8.69141 10.144C9.63135 9.06982 11.4624 7.33643 11.4868 7.32422ZM13.4033 17.8345C12.9028 18.335 12.8906 19.104 13.3789 19.5801C13.855 20.0806 14.624 20.1172 15.1245 19.6533C15.21 19.5557 17.0166 17.8223 18.0298 16.6992C18.9453 15.7104 19.397 14.4287 19.3237 13.0859C19.2383 11.7188 18.5913 10.437 17.5293 9.52148C16.626 8.75244 15.4907 8.38623 14.3311 8.38623C13.1348 8.38623 11.9873 8.77686 11.0718 9.59473C10.4248 10.1562 9.69238 10.9497 9.68018 10.9741C9.2041 11.499 9.24072 12.2803 9.74121 12.7197C10.2417 13.1958 11.0352 13.1714 11.4868 12.6709C11.499 12.6465 12.1582 11.9019 12.7319 11.4258C13.6475 10.5957 15.1245 10.7544 15.8936 11.377C16.4551 11.8896 16.7847 12.5244 16.8213 13.2446C16.8945 13.9038 16.6382 14.5386 16.1865 15.0513C15.2588 16.1011 13.4155 17.8223 13.4033 17.8345Z" fill="#5ac8f5"/>
 </g>
</svg>
