<?xml version="1.0" encoding="UTF-8"?>
<!--Generator: Apple Native CoreSVG 175.5-->
<!DOCTYPE svg
PUBLIC "-//W3C//DTD SVG 1.1//EN"
       "http://www.w3.org/Graphics/SVG/1.1/DTD/svg11.dtd">
<svg version="1.1" xmlns="http://www.w3.org/2000/svg" xmlns:xlink="http://www.w3.org/1999/xlink" width="22.4731" height="22.4976">
 <g>
  <rect height="22.4976" opacity="0" width="22.4731" x="0" y="0"/>
  <path d="M3.83301 22.4976L18.6401 22.4976C21.2036 22.4976 22.4731 21.228 22.4731 18.7134L22.4731 3.80859C22.4731 1.29395 21.2036 0.0244141 18.6401 0.0244141L3.83301 0.0244141C1.28174 0.0244141 0 1.28174 0 3.80859L0 18.7134C0 21.2402 1.28174 22.4976 3.83301 22.4976ZM3.85742 20.5322C2.63672 20.5322 1.96533 19.8853 1.96533 18.6157L1.96533 3.90625C1.96533 2.63672 2.63672 1.98975 3.85742 1.98975L18.6157 1.98975C19.8242 1.98975 20.5078 2.63672 20.5078 3.90625L20.5078 18.6157C20.5078 19.8853 19.8242 20.5322 18.6157 20.5322Z" fill="#5ac8f5" fill-opacity="0.5"/>
  <path d="M11.2549 17.4194C11.7065 17.4194 12.0239 17.1021 12.0239 16.6138L12.0239 14.8438L14.2944 14.8438C14.6484 14.8438 14.8804 14.5752 14.8804 14.2334C14.8804 13.8916 14.6484 13.6353 14.2944 13.6353L12.0239 13.6353L12.0239 12.6953L14.2944 12.6953C14.6484 12.6953 14.8804 12.439 14.8804 12.0972C14.8804 11.7432 14.6484 11.4868 14.2944 11.4868L12.5854 11.4868L15.5518 6.71387C15.6616 6.54297 15.7104 6.39648 15.7104 6.21338C15.7104 5.81055 15.3687 5.49316 14.9292 5.49316C14.6362 5.49316 14.4165 5.61523 14.2456 5.896L11.2549 10.9131L8.26416 5.88379C8.09326 5.60303 7.87354 5.48096 7.58057 5.48096C7.14111 5.48096 6.79932 5.79834 6.79932 6.20117C6.79932 6.38428 6.84814 6.53076 6.9458 6.70166L9.92432 11.4868L8.25195 11.4868C7.89795 11.4868 7.66602 11.7432 7.66602 12.0972C7.66602 12.439 7.91016 12.6953 8.25195 12.6953L10.4858 12.6953L10.4858 13.6353L8.25195 13.6353C7.89795 13.6353 7.66602 13.8916 7.66602 14.2334C7.66602 14.5752 7.91016 14.8438 8.25195 14.8438L10.4858 14.8438L10.4858 16.6016C10.4858 17.0898 10.8032 17.4194 11.2549 17.4194Z" fill="#5ac8f5"/>
 </g>
</svg>
