<?xml version="1.0" encoding="UTF-8"?>
<!--Generator: Apple Native CoreSVG 175.5-->
<!DOCTYPE svg
PUBLIC "-//W3C//DTD SVG 1.1//EN"
       "http://www.w3.org/Graphics/SVG/1.1/DTD/svg11.dtd">
<svg version="1.1" xmlns="http://www.w3.org/2000/svg" xmlns:xlink="http://www.w3.org/1999/xlink" width="30.6885" height="23.2056">
 <g>
  <rect height="23.2056" opacity="0" width="30.6885" x="0" y="0"/>
  <path d="M9.32617 19.0552C10.2051 17.0776 12.5122 14.8804 16.1987 14.8804C19.8853 14.8804 22.1924 17.0776 23.0713 19.0552ZM16.1987 13.3667C14.3555 13.3423 12.8906 11.6943 12.8784 9.729C12.8784 7.78809 14.3555 6.18896 16.1987 6.18896C18.0298 6.18896 19.519 7.78809 19.519 9.729C19.519 11.6943 18.0298 13.3911 16.1987 13.3667ZM24.1211 21.2158C27.8076 21.2158 30.6885 18.5181 30.6885 15.1611C30.6885 12.5977 29.2114 10.376 26.8311 9.375C26.8555 3.93066 22.937 0 17.9443 0C14.6362 0 12.2803 1.77002 10.8154 3.90625C7.8125 3.02734 4.54102 5.31006 4.47998 8.72803C1.72119 9.16748 0 11.6333 0 14.6118C0 18.2007 3.13721 21.2158 7.31201 21.2158Z" fill="#5ac8f5"/>
 </g>
</svg>
