<?xml version="1.0" encoding="UTF-8"?>
<!--Generator: Apple Native CoreSVG 175.5-->
<!DOCTYPE svg
PUBLIC "-//W3C//DTD SVG 1.1//EN"
       "http://www.w3.org/Graphics/SVG/1.1/DTD/svg11.dtd">
<svg version="1.1" xmlns="http://www.w3.org/2000/svg" xmlns:xlink="http://www.w3.org/1999/xlink" width="24.9023" height="24.9146">
 <g>
  <rect height="24.9146" opacity="0" width="24.9023" x="0" y="0"/>
  <path d="M12.4512 24.9023C19.2627 24.9023 24.9023 19.2505 24.9023 12.4512C24.9023 5.63965 19.2505 0 12.439 0C5.63965 0 0 5.63965 0 12.4512C0 19.2505 5.65186 24.9023 12.4512 24.9023Z" fill="#5ac8f5" fill-opacity="0.25"/>
  <path d="M14.8682 18.4937C14.5508 18.7988 13.916 18.7744 13.5742 18.457L8.49609 13.6597C7.80029 13.0249 7.80029 11.9019 8.49609 11.2671L13.5742 6.46973C13.9526 6.11572 14.5142 6.10352 14.856 6.43311C15.2344 6.78711 15.2466 7.39746 14.8804 7.73926L9.86328 12.4512L14.8804 17.1875C15.2344 17.5293 15.2466 18.1152 14.8682 18.4937Z" fill="#5ac8f5"/>
 </g>
</svg>
