<?xml version="1.0" encoding="UTF-8"?>
<!--Generator: Apple Native CoreSVG 175.5-->
<!DOCTYPE svg
PUBLIC "-//W3C//DTD SVG 1.1//EN"
       "http://www.w3.org/Graphics/SVG/1.1/DTD/svg11.dtd">
<svg version="1.1" xmlns="http://www.w3.org/2000/svg" xmlns:xlink="http://www.w3.org/1999/xlink" width="27.1729" height="28.5034">
 <g>
  <rect height="28.5034" opacity="0" width="27.1729" x="0" y="0"/>
  <path d="M1.70898 21.9727C1.70898 22.7295 1.92871 23.3398 2.33154 23.7793L2.33154 26.8677C2.33154 27.771 3.02734 28.479 3.94287 28.479L5.3833 28.479C6.29883 28.479 7.00684 27.771 7.00684 26.8677L7.00684 24.9023C9.021 25.0366 11.2305 25.1099 13.5864 25.1099C15.9424 25.1099 18.1641 25.0366 20.1782 24.9023L20.1782 26.8677C20.1782 27.771 20.874 28.479 21.7896 28.479L23.23 28.479C24.1455 28.479 24.8535 27.771 24.8535 26.8677L24.8535 23.7793C25.2563 23.3398 25.4761 22.7295 25.4761 21.9727L25.4761 3.13721C25.4761 1.5625 24.5483 0.65918 22.8882 0.463867C20.3369 0.158691 16.9434 0 13.5864 0C10.2295 0 6.82373 0.170898 4.28467 0.463867C2.62451 0.65918 1.70898 1.5625 1.70898 3.13721ZM13.5864 23.5107C9.99756 23.5107 6.95801 23.3521 4.71191 23.0835C3.67432 22.9614 3.30811 22.4243 3.30811 21.4844L3.30811 3.62549C3.30811 2.69775 3.79639 2.13623 4.71191 2.02637C6.90918 1.75781 10.1562 1.59912 13.5864 1.59912C16.98 1.59912 20.2271 1.75781 22.4609 2.02637C23.4985 2.14844 23.877 2.68555 23.877 3.62549L23.877 21.4844C23.877 22.4243 23.4985 22.9614 22.4609 23.0835C20.1782 23.3521 17.1387 23.5107 13.5864 23.5107ZM5.68848 16.6626C10.4492 17.4072 16.6992 17.4194 21.4966 16.6626C22.2656 16.5283 22.6318 16.1011 22.6318 15.2832L22.6318 4.78516C22.6318 3.86963 22.2168 3.36914 21.3379 3.28369C16.5161 2.79541 10.6934 2.80762 5.85938 3.28369C4.99268 3.36914 4.55322 3.86963 4.55322 4.78516L4.55322 15.2832C4.55322 16.1011 4.93164 16.5283 5.68848 16.6626ZM2.50244 11.6699L2.50244 4.5166L1.15967 4.5166C0.476074 4.5166 0 4.94385 0 5.59082L0 10.6079C0 11.2549 0.476074 11.6699 1.15967 11.6699ZM24.6704 11.6699L26.0132 11.6699C26.6968 11.6699 27.1729 11.2549 27.1729 10.6079L27.1729 5.59082C27.1729 4.94385 26.6968 4.5166 26.0132 4.5166L24.6704 4.5166ZM6.61621 21.6187C7.4585 21.6187 8.09326 20.9717 8.09326 20.1416C8.09326 19.2993 7.4585 18.6646 6.61621 18.6646C5.77393 18.6646 5.13916 19.2993 5.13916 20.1416C5.13916 20.9717 5.77393 21.6187 6.61621 21.6187ZM10.6812 21.1792L16.4795 21.1792C17.1021 21.1792 17.5415 20.7397 17.5415 20.1172C17.5415 19.4824 17.1021 19.0552 16.4795 19.0552L10.6812 19.0552C10.0464 19.0552 9.60693 19.4824 9.60693 20.1172C9.60693 20.7397 10.0464 21.1792 10.6812 21.1792ZM20.5566 21.6187C21.3989 21.6187 22.0459 20.9717 22.0459 20.1416C22.0459 19.2993 21.3989 18.6646 20.5566 18.6646C19.7266 18.6646 19.0918 19.2993 19.0918 20.1416C19.0918 20.9717 19.7266 21.6187 20.5566 21.6187Z" fill="#5ac8f5"/>
 </g>
</svg>
