<?xml version="1.0" encoding="UTF-8"?>
<!--Generator: Apple Native CoreSVG 175.5-->
<!DOCTYPE svg
PUBLIC "-//W3C//DTD SVG 1.1//EN"
       "http://www.w3.org/Graphics/SVG/1.1/DTD/svg11.dtd">
<svg version="1.1" xmlns="http://www.w3.org/2000/svg" xmlns:xlink="http://www.w3.org/1999/xlink" width="36.8774" height="24.8169">
 <g>
  <rect height="24.8169" opacity="0" width="36.8774" x="0" y="0"/>
  <path d="M13.6108 14.0137C14.502 14.0137 15.2222 13.2935 15.2222 12.4023C15.2222 11.499 14.502 10.791 13.6108 10.791C12.7075 10.791 11.9873 11.499 11.9873 12.4023C11.9873 13.2935 12.7075 14.0137 13.6108 14.0137ZM18.4692 14.0137C19.3604 14.0137 20.0806 13.2935 20.0806 12.4023C20.0806 11.499 19.3604 10.791 18.4692 10.791C17.5659 10.791 16.8579 11.499 16.8579 12.4023C16.8579 13.2935 17.5659 14.0137 18.4692 14.0137ZM23.3154 14.0137C24.2065 14.0137 24.9268 13.2935 24.9268 12.4023C24.9268 11.499 24.2065 10.791 23.3154 10.791C22.4121 10.791 21.7041 11.499 21.7041 12.4023C21.7041 13.2935 22.4121 14.0137 23.3154 14.0137ZM0 14.9292C0 15.4663 0.439453 15.9058 0.976562 15.9058C1.52588 15.9058 1.96533 15.4663 1.96533 14.9292L1.96533 10.6567C1.96533 10.4614 2.12402 10.3027 2.31934 10.3027C2.52686 10.3027 2.68555 10.4614 2.68555 10.6567L2.68555 23.5718C2.68555 24.1699 3.16162 24.646 3.75977 24.646C4.37012 24.646 4.84619 24.1699 4.84619 23.5718L4.84619 15.7104C4.84619 15.5151 5.01709 15.3442 5.2124 15.3442C5.41992 15.3442 5.59082 15.5151 5.59082 15.7104L5.59082 23.5718C5.59082 24.1699 6.06689 24.646 6.66504 24.646C7.26318 24.646 7.75146 24.1699 7.75146 23.5718L7.75146 10.6567C7.75146 10.4614 7.91016 10.3027 8.10547 10.3027C8.30078 10.3027 8.47168 10.4614 8.47168 10.6567L8.47168 14.9292C8.47168 15.4663 8.89893 15.9058 9.44824 15.9058C9.99756 15.9058 10.4248 15.4663 10.4248 14.9292L10.4248 10.1562C10.4248 7.70264 8.64258 6.09131 6.01807 6.09131L4.41895 6.09131C1.79443 6.09131 0 7.70264 0 10.1562ZM5.2124 4.82178C6.55518 4.82178 7.62939 3.74756 7.62939 2.40479C7.62939 1.07422 6.55518 0 5.2124 0C3.88184 0 2.80762 1.07422 2.80762 2.40479C2.80762 3.74756 3.88184 4.82178 5.2124 4.82178ZM26.4526 14.9292C26.4526 15.4663 26.8921 15.9058 27.4292 15.9058C27.9785 15.9058 28.418 15.4663 28.418 14.9292L28.418 10.6567C28.418 10.4614 28.5767 10.3027 28.772 10.3027C28.9795 10.3027 29.1382 10.4614 29.1382 10.6567L29.1382 23.5718C29.1382 24.1699 29.6143 24.646 30.2124 24.646C30.8105 24.646 31.2988 24.1699 31.2988 23.5718L31.2988 15.7104C31.2988 15.5151 31.4697 15.3442 31.665 15.3442C31.8604 15.3442 32.0435 15.5151 32.0435 15.7104L32.0435 23.5718C32.0435 24.1699 32.5195 24.646 33.1177 24.646C33.7158 24.646 34.1919 24.1699 34.1919 23.5718L34.1919 10.6567C34.1919 10.4614 34.3628 10.3027 34.5581 10.3027C34.7534 10.3027 34.9121 10.4614 34.9121 10.6567L34.9121 14.9292C34.9121 15.4663 35.3516 15.9058 35.9009 15.9058C36.4502 15.9058 36.8774 15.4663 36.8774 14.9292L36.8774 10.1562C36.8774 7.70264 35.0952 6.09131 32.4707 6.09131L30.8594 6.09131C28.2471 6.09131 26.4526 7.70264 26.4526 10.1562ZM31.665 4.82178C33.0078 4.82178 34.082 3.74756 34.082 2.40479C34.082 1.07422 33.0078 0 31.665 0C30.3345 0 29.2603 1.07422 29.2603 2.40479C29.2603 3.74756 30.3345 4.82178 31.665 4.82178Z" fill="#5ac8f5"/>
 </g>
</svg>
