<?xml version="1.0" encoding="UTF-8"?>
<!--Generator: Apple Native CoreSVG 175.5-->
<!DOCTYPE svg
PUBLIC "-//W3C//DTD SVG 1.1//EN"
       "http://www.w3.org/Graphics/SVG/1.1/DTD/svg11.dtd">
<svg version="1.1" xmlns="http://www.w3.org/2000/svg" xmlns:xlink="http://www.w3.org/1999/xlink" width="24.9023" height="24.9146">
 <g>
  <rect height="24.9146" opacity="0" width="24.9023" x="0" y="0"/>
  <path d="M12.4512 24.9023C19.2627 24.9023 24.9023 19.2505 24.9023 12.4512C24.9023 5.63965 19.2505 0 12.439 0C5.63965 0 0 5.63965 0 12.4512C0 19.2505 5.65186 24.9023 12.4512 24.9023ZM4.40674 12.4512C4.40674 10.4248 6.03027 8.77686 8.05664 8.77686C10.0952 8.77686 11.731 10.4248 11.731 12.4512C11.731 13.2935 11.4502 14.0991 10.9131 14.7217L13.9771 14.7217C13.4399 14.0991 13.1592 13.2935 13.1592 12.4512C13.1592 10.4248 14.8071 8.77686 16.8335 8.77686C18.8599 8.77686 20.4956 10.4248 20.4956 12.4512C20.4956 14.4775 18.8599 16.1255 16.8335 16.1255L8.05664 16.1255C6.03027 16.1255 4.40674 14.4775 4.40674 12.4512ZM5.79834 12.439C5.79834 13.6963 6.81152 14.7217 8.06885 14.7217C9.32617 14.7217 10.3271 13.7085 10.3271 12.439C10.3271 11.1938 9.31396 10.1807 8.06885 10.1807C6.82373 10.1807 5.79834 11.1938 5.79834 12.439ZM14.563 12.439C14.563 13.7085 15.564 14.7217 16.8213 14.7217C18.0786 14.7217 19.0918 13.6963 19.0918 12.439C19.0918 11.1938 18.0664 10.1807 16.8213 10.1807C15.5762 10.1807 14.563 11.1938 14.563 12.439Z" fill="#5ac8f5"/>
 </g>
</svg>
