<?xml version="1.0" encoding="UTF-8"?>
<!--Generator: Apple Native CoreSVG 175.5-->
<!DOCTYPE svg
PUBLIC "-//W3C//DTD SVG 1.1//EN"
       "http://www.w3.org/Graphics/SVG/1.1/DTD/svg11.dtd">
<svg version="1.1" xmlns="http://www.w3.org/2000/svg" xmlns:xlink="http://www.w3.org/1999/xlink" width="28.3325" height="26.1841">
 <g>
  <rect height="26.1841" opacity="0" width="28.3325" x="0" y="0"/>
  <path d="M3.78418 26.1719L16.748 26.1719C19.2749 26.1719 20.5322 24.9023 20.5322 22.3511L20.5322 16.687L18.5669 16.687L18.5669 22.3145C18.5669 23.5352 17.9199 24.2065 16.6504 24.2065L3.88184 24.2065C2.6123 24.2065 1.96533 23.5352 1.96533 22.3145L1.96533 3.86963C1.96533 2.64893 2.6123 1.96533 3.88184 1.96533L16.6504 1.96533C17.9199 1.96533 18.5669 2.64893 18.5669 3.86963L18.5669 9.48486L20.5322 9.48486L20.5322 3.83301C20.5322 1.29395 19.2749 0 16.748 0L3.78418 0C1.25732 0 0 1.29395 0 3.83301L0 22.3511C0 24.9023 1.25732 26.1719 3.78418 26.1719Z" fill="#5ac8f5" fill-opacity="0.5"/>
  <path d="M11.2915 14.0503L23.8281 14.0503L25.6592 13.9771L24.7925 14.8071L22.8271 16.6504C22.6318 16.8213 22.5342 17.0776 22.5342 17.3096C22.5342 17.8223 22.8882 18.2007 23.3887 18.2007C23.645 18.2007 23.8403 18.103 24.0356 17.9199L28.0151 13.7939C28.2593 13.5498 28.3325 13.3301 28.3325 13.0859C28.3325 12.8296 28.2593 12.6221 28.0151 12.3779L24.0356 8.25195C23.8403 8.06885 23.645 7.95898 23.3887 7.95898C22.8882 7.95898 22.5342 8.3252 22.5342 8.83789C22.5342 9.08203 22.6318 9.33838 22.8271 9.50928L24.7925 11.3647L25.6592 12.1948L23.8281 12.1094L11.2915 12.1094C10.7788 12.1094 10.3516 12.561 10.3516 13.0859C10.3516 13.6108 10.7788 14.0503 11.2915 14.0503Z" fill="#5ac8f5"/>
 </g>
</svg>
