<?xml version="1.0" encoding="UTF-8"?>
<!--Generator: Apple Native CoreSVG 175.5-->
<!DOCTYPE svg
PUBLIC "-//W3C//DTD SVG 1.1//EN"
       "http://www.w3.org/Graphics/SVG/1.1/DTD/svg11.dtd">
<svg version="1.1" xmlns="http://www.w3.org/2000/svg" xmlns:xlink="http://www.w3.org/1999/xlink" width="24.9023" height="24.9146">
 <g>
  <rect height="24.9146" opacity="0" width="24.9023" x="0" y="0"/>
  <path d="M12.4512 24.9146C19.2627 24.9146 24.9023 19.2749 24.9023 12.4634C24.9023 5.66406 19.2505 0.012207 12.439 0.012207C5.63965 0.012207 0 5.66406 0 12.4634C0 19.2749 5.65186 24.9146 12.4512 24.9146ZM5.60303 17.2119L5.60303 7.08008C5.60303 6.70166 5.92041 6.37207 6.29883 6.37207C6.67725 6.37207 7.00684 6.70166 7.00684 7.08008L7.00684 12.1094L8.59375 10.5103C8.88672 10.2173 9.17969 10.0586 9.55811 10.0586C9.92432 10.0586 10.2417 10.2051 10.5347 10.5103L12.7563 12.793C12.8174 12.8662 12.8662 12.8662 12.9272 12.7808L15.1855 10.498L14.2822 9.60693C13.9648 9.30176 14.1602 8.82568 14.6118 8.71582L18.2129 7.8125C18.6279 7.70264 19.0063 8.05664 18.8965 8.45947L17.981 12.085C17.8589 12.561 17.3828 12.7319 17.0776 12.4146L16.1865 11.499L13.8184 13.916C13.5254 14.209 13.1958 14.3677 12.8296 14.3677C12.4756 14.3677 12.1582 14.2212 11.853 13.916L9.65576 11.6577C9.59473 11.5845 9.53369 11.5845 9.46045 11.6577L7.00684 14.1235L7.00684 16.687C7.00684 16.7725 7.03125 16.8091 7.10449 16.8091L18.5791 16.8091C18.9575 16.8091 19.2871 17.1265 19.2871 17.5171C19.2871 17.8955 18.9575 18.2129 18.5791 18.2129L6.5918 18.2129C5.99365 18.2129 5.60303 17.8223 5.60303 17.2119Z" fill="#5ac8f5"/>
 </g>
</svg>
