<?xml version="1.0" encoding="UTF-8"?>
<!--Generator: Apple Native CoreSVG 175.5-->
<!DOCTYPE svg
PUBLIC "-//W3C//DTD SVG 1.1//EN"
       "http://www.w3.org/Graphics/SVG/1.1/DTD/svg11.dtd">
<svg version="1.1" xmlns="http://www.w3.org/2000/svg" xmlns:xlink="http://www.w3.org/1999/xlink" width="22.4731" height="22.4976">
 <g>
  <rect height="22.4976" opacity="0" width="22.4731" x="0" y="0"/>
  <path d="M3.83301 22.4976L18.6401 22.4976C21.2036 22.4976 22.4731 21.228 22.4731 18.7134L22.4731 3.80859C22.4731 1.29395 21.2036 0.0244141 18.6401 0.0244141L3.83301 0.0244141C1.28174 0.0244141 0 1.28174 0 3.80859L0 18.7134C0 21.2402 1.28174 22.4976 3.83301 22.4976ZM3.85742 20.5322C2.63672 20.5322 1.96533 19.8853 1.96533 18.6157L1.96533 3.90625C1.96533 2.63672 2.63672 1.98975 3.85742 1.98975L18.6157 1.98975C19.8242 1.98975 20.5078 2.63672 20.5078 3.90625L20.5078 18.6157C20.5078 19.8853 19.8242 20.5322 18.6157 20.5322ZM8.80127 16.4795C9.28955 16.4795 9.5459 16.1377 9.5459 15.6616L9.5459 14.2212L10.2173 14.2212C10.6323 14.2212 10.9009 13.9771 10.9009 13.5498C10.9009 13.1104 10.6323 12.854 10.2173 12.854L9.5459 12.854L9.5459 7.14111C9.5459 6.43311 9.05762 5.98145 8.34961 5.98145C7.6416 5.98145 7.20215 6.25 6.81152 6.92139C5.78613 8.63037 4.55322 10.73 3.73535 12.207C3.54004 12.5854 3.4668 12.854 3.4668 13.1836C3.4668 13.8306 3.89404 14.2212 4.50439 14.2212L8.06885 14.2212L8.06885 15.6616C8.06885 16.1255 8.3252 16.4795 8.80127 16.4795ZM8.06885 12.854L5.06592 12.854L5.06592 12.8052C5.77393 11.4258 7.03125 9.27734 8.00781 7.62939L8.06885 7.62939ZM15.5273 16.5161C17.5171 16.5161 18.9209 15.21 18.9209 12.9761C18.9209 10.8765 17.4927 9.7168 15.9058 9.7168C14.5996 9.7168 13.7817 10.4492 13.4888 11.2549L13.3911 11.2549C13.3911 11.2183 13.3911 11.1938 13.3911 11.145C13.3911 8.83789 14.3311 7.38525 15.6982 7.38525C16.4062 7.38525 16.8945 7.72705 17.1997 8.20312C17.4072 8.5083 17.6025 8.65479 17.9321 8.65479C18.2739 8.65479 18.5425 8.38623 18.5425 7.9834C18.5425 7.82471 18.5059 7.67822 18.4448 7.51953C18.1274 6.70166 17.1509 5.98145 15.7593 5.98145C13.4155 5.98145 11.9629 7.8125 11.9629 11.5234C11.9629 13.0127 12.207 14.0991 12.6221 14.8682C13.2446 16.04 14.2944 16.5161 15.5273 16.5161ZM15.4541 15.1733C14.3311 15.1733 13.5376 14.2822 13.5376 13.0249C13.5376 11.8286 14.3188 10.9741 15.4663 10.9741C16.6138 10.9741 17.3828 11.8164 17.3828 13.0371C17.3828 14.3433 16.6382 15.1733 15.4541 15.1733Z" fill="#5ac8f5"/>
 </g>
</svg>
