<?xml version="1.0" encoding="UTF-8"?>
<!--Generator: Apple Native CoreSVG 175.5-->
<!DOCTYPE svg
PUBLIC "-//W3C//DTD SVG 1.1//EN"
       "http://www.w3.org/Graphics/SVG/1.1/DTD/svg11.dtd">
<svg version="1.1" xmlns="http://www.w3.org/2000/svg" xmlns:xlink="http://www.w3.org/1999/xlink" width="24.9023" height="24.9146">
 <g>
  <rect height="24.9146" opacity="0" width="24.9023" x="0" y="0"/>
  <path d="M12.4512 24.9023C19.2627 24.9023 24.9023 19.2505 24.9023 12.4512C24.9023 5.63965 19.2505 0 12.439 0C5.63965 0 0 5.63965 0 12.4512C0 19.2505 5.65186 24.9023 12.4512 24.9023Z" fill="#5ac8f5" fill-opacity="0.25"/>
  <path d="M9.729 20.6909C9.14307 20.6909 8.76465 20.3735 8.77686 19.7876L8.92334 11.8042C8.92334 11.5601 8.81348 11.3647 8.59375 11.2671C7.6416 10.8643 7.23877 10.437 7.2998 9.17969L7.49512 4.82178C7.50732 4.50439 7.69043 4.32129 7.97119 4.32129C8.26416 4.32129 8.43506 4.5166 8.43506 4.83398L8.37402 9.09424C8.37402 9.32617 8.54492 9.49707 8.76465 9.49707C9.021 9.49707 9.17969 9.32617 9.17969 9.10645L9.25293 4.72412C9.25293 4.40674 9.44824 4.23584 9.729 4.23584C10.0098 4.23584 10.2173 4.40674 10.2173 4.72412L10.2661 9.10645C10.2661 9.32617 10.437 9.49707 10.6812 9.49707C10.9253 9.49707 11.0962 9.32617 11.0962 9.09424L11.0352 4.83398C11.0352 4.5166 11.2061 4.32129 11.4868 4.32129C11.7798 4.32129 11.9385 4.50439 11.9629 4.82178L12.1704 9.17969C12.2314 10.437 11.8164 10.8643 10.8765 11.2671C10.6567 11.3647 10.5591 11.5601 10.5591 11.8042L10.6812 19.7876C10.7056 20.3735 10.3271 20.6909 9.729 20.6909ZM14.8193 14.6484C14.8315 14.3799 14.7095 14.1846 14.4531 14.0137L14.0503 13.7207C13.6963 13.4644 13.501 13.1226 13.501 12.6221L13.501 12.146C13.501 9.31396 14.2578 6.31104 15.4053 4.71191C15.625 4.38232 15.8203 4.23584 16.0767 4.23584C16.333 4.23584 16.5894 4.39453 16.5894 4.76074L16.5894 19.8242C16.5894 20.3979 16.2231 20.6909 15.6128 20.6909C15.0391 20.6909 14.6484 20.3735 14.6606 19.751Z" fill="#5ac8f5"/>
 </g>
</svg>
