<?xml version="1.0" encoding="UTF-8"?>
<!--Generator: Apple Native CoreSVG 175.5-->
<!DOCTYPE svg
PUBLIC "-//W3C//DTD SVG 1.1//EN"
       "http://www.w3.org/Graphics/SVG/1.1/DTD/svg11.dtd">
<svg version="1.1" xmlns="http://www.w3.org/2000/svg" xmlns:xlink="http://www.w3.org/1999/xlink" width="24.9023" height="24.9146">
 <g>
  <rect height="24.9146" opacity="0" width="24.9023" x="0" y="0"/>
  <path d="M12.4512 24.9023C19.2627 24.9023 24.9023 19.2505 24.9023 12.4512C24.9023 5.63965 19.2505 0 12.439 0C5.63965 0 0 5.63965 0 12.4512C0 19.2505 5.65186 24.9023 12.4512 24.9023ZM12.4512 22.8271C6.68945 22.8271 2.0874 18.2129 2.0874 12.4512C2.0874 6.68945 6.67725 2.0752 12.439 2.0752C18.2007 2.0752 22.8271 6.68945 22.8271 12.4512C22.8271 18.2129 18.2129 22.8271 12.4512 22.8271Z" fill="#5ac8f5" fill-opacity="0.5"/>
  <path d="M7.20215 17.3828L17.7002 17.3828C18.9697 17.3828 19.6045 16.748 19.6045 15.5029L19.6045 12.1704C19.6045 11.6089 19.5068 11.3647 19.2505 11.0107L17.1021 8.10547C16.394 7.14111 15.979 6.90918 14.917 6.90918L9.98535 6.90918C8.92334 6.90918 8.49609 7.14111 7.80029 8.10547L5.65186 11.0107C5.39551 11.3647 5.29785 11.6089 5.29785 12.1704L5.29785 15.5029C5.29785 16.748 5.94482 17.3828 7.20215 17.3828ZM7.00684 11.7676C6.82373 11.7676 6.78711 11.6089 6.87256 11.4868L8.98438 8.60596C9.22852 8.26416 9.48486 8.12988 9.91211 8.12988L15.0024 8.12988C15.4297 8.12988 15.686 8.27637 15.918 8.60596L18.042 11.4868C18.1274 11.5967 18.0786 11.7676 17.8955 11.7676L14.3799 11.7676C14.0625 11.7676 13.916 12.0117 13.916 12.2681L13.916 12.4146C13.916 13.2568 13.3423 13.7939 12.4512 13.7939C11.5601 13.7939 11.0107 13.2568 11.0107 12.4146L11.0107 12.2681C11.0107 12.0117 10.8398 11.7676 10.5225 11.7676Z" fill="#5ac8f5"/>
 </g>
</svg>
