<?xml version="1.0" encoding="UTF-8"?>
<!--Generator: Apple Native CoreSVG 175.5-->
<!DOCTYPE svg
PUBLIC "-//W3C//DTD SVG 1.1//EN"
       "http://www.w3.org/Graphics/SVG/1.1/DTD/svg11.dtd">
<svg version="1.1" xmlns="http://www.w3.org/2000/svg" xmlns:xlink="http://www.w3.org/1999/xlink" width="24.9023" height="24.9146">
 <g>
  <rect height="24.9146" opacity="0" width="24.9023" x="0" y="0"/>
  <path d="M12.4512 24.9146C19.2627 24.9146 24.9023 19.2749 24.9023 12.4634C24.9023 5.66406 19.2505 0.012207 12.439 0.012207C5.63965 0.012207 0 5.66406 0 12.4634C0 19.2749 5.65186 24.9146 12.4512 24.9146ZM7.91016 17.4561L7.91016 12.439C7.91016 11.5479 8.27637 11.1206 9.00879 11.0718L9.00879 9.58252C9.00879 7.26318 10.4004 5.71289 12.4512 5.71289C14.502 5.71289 15.8936 7.26318 15.8936 9.58252L15.8936 11.0718C16.626 11.1206 16.9922 11.5479 16.9922 12.439L16.9922 17.4561C16.9922 18.396 16.5771 18.8232 15.7104 18.8232L9.19189 18.8232C8.3252 18.8232 7.91016 18.396 7.91016 17.4561ZM10.3271 11.0596L14.5752 11.0596L14.5752 9.43604C14.5752 7.97119 13.7207 6.98242 12.4512 6.98242C11.1816 6.98242 10.3271 7.97119 10.3271 9.43604Z" fill="#5ac8f5"/>
 </g>
</svg>
