<?xml version="1.0" encoding="UTF-8"?>
<!--Generator: Apple Native CoreSVG 175.5-->
<!DOCTYPE svg
PUBLIC "-//W3C//DTD SVG 1.1//EN"
       "http://www.w3.org/Graphics/SVG/1.1/DTD/svg11.dtd">
<svg version="1.1" xmlns="http://www.w3.org/2000/svg" xmlns:xlink="http://www.w3.org/1999/xlink" width="24.9023" height="24.9146">
 <g>
  <rect height="24.9146" opacity="0" width="24.9023" x="0" y="0"/>
  <path d="M12.4512 24.9146C19.2627 24.9146 24.9023 19.2749 24.9023 12.4634C24.9023 5.66406 19.2505 0.012207 12.439 0.012207C5.63965 0.012207 0 5.66406 0 12.4634C0 19.2749 5.65186 24.9146 12.4512 24.9146ZM9.10645 15.0757C8.25195 15.0757 7.76367 14.5874 7.76367 13.6719L7.76367 11.2671C7.76367 10.8765 7.92236 10.5591 8.11768 10.376L8.21533 10.376L15.3198 17.4683L15.1855 17.9077C15.0757 18.0298 14.917 18.1396 14.7095 18.1396C14.4043 18.1396 14.1479 18.0176 13.855 17.7368L11.1206 15.1245C11.0718 15.0879 11.0229 15.0757 10.9497 15.0757ZM11.5723 9.38721L13.855 7.22656C14.1846 6.92139 14.3921 6.78711 14.6973 6.78711C15.1245 6.78711 15.4297 7.12891 15.4297 7.54395L15.4297 13.2446ZM18.3838 19.2017L5.70068 6.53076C5.49316 6.29883 5.48096 5.93262 5.70068 5.71289C5.93262 5.48096 6.29883 5.48096 6.53076 5.71289L19.2017 18.3838C19.4214 18.6157 19.4214 18.9697 19.2017 19.2017C18.9819 19.4214 18.6035 19.4092 18.3838 19.2017Z" fill="#5ac8f5"/>
 </g>
</svg>
