<?xml version="1.0" encoding="UTF-8"?>
<!--Generator: Apple Native CoreSVG 175.5-->
<!DOCTYPE svg
PUBLIC "-//W3C//DTD SVG 1.1//EN"
       "http://www.w3.org/Graphics/SVG/1.1/DTD/svg11.dtd">
<svg version="1.1" xmlns="http://www.w3.org/2000/svg" xmlns:xlink="http://www.w3.org/1999/xlink" width="17.7002" height="23.2544">
 <g>
  <rect height="23.2544" opacity="0" width="17.7002" x="0" y="0"/>
  <path d="M0 17.9199C0 18.2129 0.134277 18.4814 0.32959 18.6768L4.32129 22.6562C4.71191 23.0591 5.13916 23.2422 5.57861 23.2422C6.00586 23.2422 6.4209 23.0469 6.81152 22.6562L10.8154 18.6646C11.0229 18.457 11.145 18.1885 11.145 17.9077C11.145 17.3584 10.7056 16.9434 10.2173 16.9434C9.85107 16.9434 9.61914 17.0776 9.41162 17.2729L8.36182 18.3228L6.49414 20.459L6.61621 16.5161L6.61621 7.25098C6.61621 4.1626 8.3252 2.0874 11.1572 2.0874C13.8062 2.0874 15.6494 3.93066 15.6494 6.70166C15.6494 9.375 13.8428 11.2549 11.3525 11.2549C10.4858 11.2549 10.2661 11.0718 9.83887 11.0718C9.31396 11.0718 8.88672 11.4258 8.88672 11.9751C8.88672 12.3413 9.06982 12.6221 9.33838 12.8296C9.80225 13.1958 10.5835 13.3301 11.2915 13.3301C15.1733 13.3301 17.7002 10.6201 17.7002 6.70166C17.7002 2.67334 15.0391 0 11.1572 0C7.20215 0 4.5166 2.63672 4.5166 7.33643L4.5166 16.5283L4.63867 20.459L2.771 18.335L1.72119 17.2852C1.52588 17.0898 1.29395 16.9556 0.927734 16.9556C0.427246 16.9556 0 17.3706 0 17.9199Z" fill="#5ac8f5"/>
 </g>
</svg>
