<?xml version="1.0" encoding="UTF-8"?>
<!--Generator: Apple Native CoreSVG 175.5-->
<!DOCTYPE svg
PUBLIC "-//W3C//DTD SVG 1.1//EN"
       "http://www.w3.org/Graphics/SVG/1.1/DTD/svg11.dtd">
<svg version="1.1" xmlns="http://www.w3.org/2000/svg" xmlns:xlink="http://www.w3.org/1999/xlink" width="21.1296" height="30.3345">
 <g>
  <rect height="30.3345" opacity="0" width="21.1296" x="0" y="0"/>
  <path d="M0.000814608 13.0615C-0.0235995 14.3433 0.501303 15.5151 1.50228 16.5161L6.78792 21.814C4.70052 23.2056 3.84603 24.5117 3.84603 26.2207C3.84603 28.7354 5.86019 30.2612 7.98421 30.2979C9.20492 30.3223 10.3158 29.8584 11.0604 29.1016L19.7152 20.4224C21.7293 18.4082 21.5828 16.0156 19.3368 13.7817L14.4661 8.91113L16.1385 7.22656C16.9686 6.39648 17.4569 5.32227 17.4447 4.26025C17.4813 1.86768 15.638 0.012207 13.221 0C11.866 0 10.8162 0.488281 9.65658 1.67236L1.25814 10.0464C0.452475 10.8398 0.0130216 11.9019 0.000814608 13.0615ZM5.04232 9.04541L11.036 3.05176C11.8416 2.24609 12.391 1.96533 13.221 1.96533C14.5516 1.96533 15.5037 2.91748 15.5037 4.23584C15.5037 4.78516 15.223 5.37109 14.7591 5.84717L8.27718 12.3169C8.06966 10.5469 6.88558 9.33838 5.04232 9.04541ZM2.03939 13.2324C2.03939 11.8164 2.90609 10.8643 4.20003 10.8643C5.54281 10.8643 6.47054 11.8408 6.47054 13.3179C6.47054 13.4888 6.47054 14.0015 6.25081 14.5874C5.90902 15.6128 7.15413 16.2354 7.89876 15.4663L13.0745 10.3027L17.9574 15.1611C19.4466 16.6504 19.5443 17.8223 18.3358 19.043L12.0492 25.3296C11.866 24.3164 11.2679 23.5352 10.035 22.3022L3.33333 15.564C2.34456 14.5752 2.03939 14.0015 2.03939 13.2324ZM5.81136 26.3306C5.81136 25.1587 6.49496 24.292 8.21615 23.2422L8.6556 23.6816C9.88851 24.9268 10.2303 25.4761 10.2425 26.3306C10.2425 27.4292 9.24154 28.3203 7.98421 28.3203C6.84896 28.3203 5.81136 27.5146 5.81136 26.3306Z" fill="#5ac8f5"/>
 </g>
</svg>
