<?xml version="1.0" encoding="UTF-8"?>
<!--Generator: Apple Native CoreSVG 175.5-->
<!DOCTYPE svg
PUBLIC "-//W3C//DTD SVG 1.1//EN"
       "http://www.w3.org/Graphics/SVG/1.1/DTD/svg11.dtd">
<svg version="1.1" xmlns="http://www.w3.org/2000/svg" xmlns:xlink="http://www.w3.org/1999/xlink" width="30.8838" height="18.103">
 <g>
  <rect height="18.103" opacity="0" width="30.8838" x="0" y="0"/>
  <path d="M2.29492 15.3687L3.85742 15.3687L3.85742 13.6475L2.30713 13.6475C1.96533 13.6475 1.72119 13.3911 1.72119 13.0615L1.72119 5.01709C1.72119 4.67529 1.96533 4.40674 2.30713 4.40674L3.85742 4.40674L3.85742 2.68555L2.29492 2.68555C1.00098 2.68555 0 3.68652 0 4.98047L0 13.0859C0 14.3677 1.00098 15.3687 2.29492 15.3687ZM6.25 18.0664L7.1167 18.0664C9.15527 18.0664 10.3394 16.8457 10.3394 14.7095L10.3394 3.38135C10.3394 1.24512 9.16748 0 7.14111 0L6.10352 0C4.22363 0 3.13721 1.24512 3.13721 3.38135L3.13721 14.7095C3.13721 16.8457 4.27246 18.0664 6.25 18.0664ZM6.27441 16.2231C5.46875 16.2231 4.98047 15.6616 4.98047 14.7095L4.98047 3.38135C4.98047 2.41699 5.41992 1.84326 6.14014 1.84326L7.10449 1.84326C7.97119 1.84326 8.49609 2.41699 8.49609 3.38135L8.49609 14.7095C8.49609 15.6616 7.97119 16.2231 7.08008 16.2231ZM10.022 8.03223L20.8618 8.03223L20.8618 6.18896L10.022 6.18896ZM10.022 11.8652L20.8618 11.8652L20.8618 10.022L10.022 10.022ZM23.7671 18.0664L24.6338 18.0664C26.6113 18.0664 27.7466 16.8457 27.7466 14.7095L27.7466 3.38135C27.7466 1.24512 26.6602 0 24.7681 0L23.7427 0C21.7041 0 20.5444 1.24512 20.5444 3.38135L20.5444 14.7095C20.5444 16.8457 21.7285 18.0664 23.7671 18.0664ZM23.8037 16.2231C22.9126 16.2231 22.3877 15.6616 22.3877 14.7095L22.3877 3.38135C22.3877 2.41699 22.9004 1.84326 23.7793 1.84326L24.7437 1.84326C25.4639 1.84326 25.9033 2.41699 25.9033 3.38135L25.9033 14.7095C25.9033 15.6616 25.415 16.2231 24.6094 16.2231ZM27.0264 15.3687L28.5889 15.3687C29.8828 15.3687 30.8838 14.3677 30.8838 13.0859L30.8838 4.98047C30.8838 3.68652 29.8828 2.68555 28.5889 2.68555L27.0264 2.68555L27.0264 4.40674L28.5767 4.40674C28.9062 4.40674 29.1626 4.67529 29.1626 5.01709L29.1626 13.0615C29.1626 13.3911 28.9062 13.6475 28.5767 13.6475L27.0264 13.6475Z" fill="#5ac8f5"/>
 </g>
</svg>
