<?xml version="1.0" encoding="UTF-8"?>
<!--Generator: Apple Native CoreSVG 175.5-->
<!DOCTYPE svg
PUBLIC "-//W3C//DTD SVG 1.1//EN"
       "http://www.w3.org/Graphics/SVG/1.1/DTD/svg11.dtd">
<svg version="1.1" xmlns="http://www.w3.org/2000/svg" xmlns:xlink="http://www.w3.org/1999/xlink" width="24.9023" height="24.9146">
 <g>
  <rect height="24.9146" opacity="0" width="24.9023" x="0" y="0"/>
  <path d="M12.4512 24.9023C19.2627 24.9023 24.9023 19.2505 24.9023 12.4512C24.9023 5.63965 19.2505 0 12.439 0C5.63965 0 0 5.63965 0 12.4512C0 19.2505 5.65186 24.9023 12.4512 24.9023ZM12.4512 22.8271C6.68945 22.8271 2.0874 18.2129 2.0874 12.4512C2.0874 6.68945 6.67725 2.0752 12.439 2.0752C18.2007 2.0752 22.8271 6.68945 22.8271 12.4512C22.8271 18.2129 18.2129 22.8271 12.4512 22.8271Z" fill="#5ac8f5" fill-opacity="0.5"/>
  <path d="M7.4707 12.561C7.4707 14.6973 8.14209 16.3574 9.31396 17.3706L8.8623 19.1406C8.83789 19.2383 8.82568 19.3237 8.82568 19.4092C8.82568 19.7754 9.05762 20.0195 9.41162 20.0195C9.7168 20.0195 9.93652 19.873 10.022 19.5435L10.4004 18.042C10.7422 18.1885 11.0962 18.2983 11.4746 18.3594L11.2793 19.1528C11.2427 19.2505 11.2305 19.3237 11.2305 19.4092C11.2305 19.7754 11.4624 20.0195 11.8286 20.0195C12.1216 20.0195 12.3535 19.873 12.439 19.5435L12.7197 18.4326C14.6973 18.335 16.1255 17.3096 16.6626 15.7837C16.7358 15.5884 16.7847 15.3687 16.7847 15.1611C16.7847 14.7217 16.4917 14.3921 16.0278 14.3921C15.6128 14.3921 15.3687 14.6851 15.2466 15.0513C14.978 16.0156 14.1846 16.7358 13.1104 16.8945L14.9536 9.68018C15.0635 9.79004 15.1611 9.97314 15.2222 10.1929C15.3442 10.4858 15.5273 10.7788 15.9546 10.7788C16.4062 10.7788 16.6992 10.4858 16.6992 10.022C16.6992 9.82666 16.6504 9.61914 16.5771 9.42383C16.3452 8.77686 15.9424 8.21533 15.4297 7.77588L15.8203 6.21338C15.8569 6.11572 15.8691 6.03027 15.8691 5.94482C15.8691 5.59082 15.6372 5.34668 15.271 5.34668C14.978 5.34668 14.7461 5.49316 14.6606 5.82275L14.3188 7.10449C14.0015 6.95801 13.6475 6.86035 13.269 6.78711L13.4033 6.21338C13.4399 6.12793 13.4521 6.03027 13.4521 5.94482C13.4521 5.59082 13.2202 5.34668 12.854 5.34668C12.561 5.34668 12.3291 5.49316 12.2437 5.82275L12.0117 6.73828C9.25293 6.93359 7.4707 9.16748 7.4707 12.561ZM9.10645 12.561C9.10645 10.2905 10.0464 8.70361 11.6089 8.31299L9.80225 15.4297C9.35059 14.6973 9.10645 13.7329 9.10645 12.561ZM10.7788 16.5283L12.9028 8.23975C13.2812 8.28857 13.6353 8.42285 13.9526 8.60596L11.8408 16.9312C11.438 16.8701 11.0962 16.7358 10.7788 16.5283Z" fill="#5ac8f5"/>
 </g>
</svg>
