<?xml version="1.0" encoding="UTF-8"?>
<!--Generator: Apple Native CoreSVG 175.5-->
<!DOCTYPE svg
PUBLIC "-//W3C//DTD SVG 1.1//EN"
       "http://www.w3.org/Graphics/SVG/1.1/DTD/svg11.dtd">
<svg version="1.1" xmlns="http://www.w3.org/2000/svg" xmlns:xlink="http://www.w3.org/1999/xlink" width="21.2524" height="30.5054">
 <g>
  <rect height="30.5054" opacity="0" width="21.2524" x="0" y="0"/>
  <path d="M0 25.2808C0 26.9043 0.915527 27.8198 2.52686 27.8198L6.71387 27.8198C8.3252 27.8198 9.25293 26.9043 9.25293 25.2686L9.25293 5.18799C9.25293 3.55225 8.3252 2.63672 6.71387 2.63672L2.52686 2.63672C0.915527 2.63672 0 3.55225 0 5.17578ZM1.84326 25.1099L1.84326 5.34668C1.84326 4.78516 2.17285 4.47998 2.73438 4.47998L6.53076 4.47998C7.09229 4.47998 7.40967 4.78516 7.40967 5.34668L7.40967 25.1099C7.40967 25.6592 7.09229 25.9766 6.53076 25.9766L2.73438 25.9766C2.17285 25.9766 1.84326 25.6592 1.84326 25.1099ZM1.92871 3.54004L3.54004 3.54004L3.54004 0.805664C3.54004 0.354004 3.17383 0 2.72217 0C2.27051 0 1.92871 0.354004 1.92871 0.805664ZM5.71289 3.54004L7.32422 3.54004L7.32422 0.805664C7.32422 0.354004 6.97021 0 6.51855 0C6.06689 0 5.71289 0.354004 5.71289 0.805664ZM4.62646 8.56934C5.23682 8.56934 5.7373 8.06885 5.7373 7.4585C5.7373 6.84814 5.23682 6.34766 4.62646 6.34766C4.01611 6.34766 3.52783 6.84814 3.52783 7.4585C3.52783 8.06885 4.01611 8.56934 4.62646 8.56934ZM4.62646 12.4512C5.23682 12.4512 5.7373 11.9629 5.7373 11.3525C5.7373 10.73 5.23682 10.2417 4.62646 10.2417C4.01611 10.2417 3.52783 10.73 3.52783 11.3525C3.52783 11.9629 4.01611 12.4512 4.62646 12.4512ZM4.62646 16.333C5.23682 16.333 5.7373 15.8447 5.7373 15.2344C5.7373 14.624 5.23682 14.1357 4.62646 14.1357C4.01611 14.1357 3.52783 14.624 3.52783 15.2344C3.52783 15.8447 4.01611 16.333 4.62646 16.333ZM4.62646 20.2393C5.23682 20.2393 5.7373 19.7388 5.7373 19.1284C5.7373 18.5181 5.23682 18.0176 4.62646 18.0176C4.01611 18.0176 3.52783 18.5181 3.52783 19.1284C3.52783 19.7388 4.01611 20.2393 4.62646 20.2393ZM4.62646 24.1211C5.23682 24.1211 5.7373 23.6328 5.7373 23.0225C5.7373 22.3999 5.23682 21.9116 4.62646 21.9116C4.01611 21.9116 3.52783 22.3999 3.52783 23.0225C3.52783 23.6328 4.01611 24.1211 4.62646 24.1211ZM11.9873 25.3174C11.9873 26.9409 12.9028 27.8564 14.5264 27.8564L18.7012 27.8564C20.3247 27.8564 21.2524 26.9409 21.2524 25.3052L21.2524 5.22461C21.2524 3.58887 20.3247 2.67334 18.7012 2.67334L14.5264 2.67334C12.9028 2.67334 11.9873 3.58887 11.9873 5.2124ZM13.8306 25.1465L13.8306 5.3833C13.8306 4.82178 14.1602 4.5166 14.7217 4.5166L18.5303 4.5166C19.0918 4.5166 19.4092 4.82178 19.4092 5.3833L19.4092 25.1465C19.4092 25.6958 19.0918 26.0132 18.5303 26.0132L14.7217 26.0132C14.1602 26.0132 13.8306 25.6958 13.8306 25.1465ZM13.916 26.9531L13.916 29.6875C13.916 30.1392 14.27 30.481 14.7217 30.481C15.1733 30.481 15.5273 30.1392 15.5273 29.6875L15.5273 26.9531ZM17.7124 26.9531L17.7124 29.6875C17.7124 30.1392 18.0542 30.481 18.5059 30.481C18.9575 30.481 19.3237 30.1392 19.3237 29.6875L19.3237 26.9531ZM16.6138 8.58154C17.2363 8.58154 17.7246 8.08105 17.7246 7.4707C17.7246 6.86035 17.2363 6.35986 16.6138 6.35986C16.0034 6.35986 15.5151 6.86035 15.5151 7.4707C15.5151 8.08105 16.0034 8.58154 16.6138 8.58154ZM16.6138 12.4756C17.2363 12.4756 17.7246 11.9751 17.7246 11.3647C17.7246 10.7544 17.2363 10.2539 16.6138 10.2539C16.0034 10.2539 15.5151 10.7544 15.5151 11.3647C15.5151 11.9751 16.0034 12.4756 16.6138 12.4756ZM16.6138 16.3574C17.2363 16.3574 17.7246 15.8691 17.7246 15.2588C17.7246 14.6484 17.2363 14.1479 16.6138 14.1479C16.0034 14.1479 15.5151 14.6484 15.5151 15.2588C15.5151 15.8691 16.0034 16.3574 16.6138 16.3574ZM16.6138 20.2515C17.2363 20.2515 17.7246 19.751 17.7246 19.1406C17.7246 18.5303 17.2363 18.042 16.6138 18.042C16.0034 18.042 15.5151 18.5303 15.5151 19.1406C15.5151 19.751 16.0034 20.2515 16.6138 20.2515ZM16.6138 24.1455C17.2363 24.1455 17.7246 23.645 17.7246 23.0347C17.7246 22.4243 17.2363 21.9238 16.6138 21.9238C16.0034 21.9238 15.5151 22.4243 15.5151 23.0347C15.5151 23.645 16.0034 24.1455 16.6138 24.1455Z" fill="#5ac8f5"/>
 </g>
</svg>
