<?xml version="1.0" encoding="UTF-8"?>
<!--Generator: Apple Native CoreSVG 175.5-->
<!DOCTYPE svg
PUBLIC "-//W3C//DTD SVG 1.1//EN"
       "http://www.w3.org/Graphics/SVG/1.1/DTD/svg11.dtd">
<svg version="1.1" xmlns="http://www.w3.org/2000/svg" xmlns:xlink="http://www.w3.org/1999/xlink" width="24.9023" height="24.9146">
 <g>
  <rect height="24.9146" opacity="0" width="24.9023" x="0" y="0"/>
  <path d="M12.4512 24.9023C19.2627 24.9023 24.9023 19.2505 24.9023 12.4512C24.9023 5.63965 19.2505 0 12.439 0C5.63965 0 0 5.63965 0 12.4512C0 19.2505 5.65186 24.9023 12.4512 24.9023ZM12.4512 22.8271C6.68945 22.8271 2.0874 18.2129 2.0874 12.4512C2.0874 6.68945 6.67725 2.0752 12.439 2.0752C18.2007 2.0752 22.8271 6.68945 22.8271 12.4512C22.8271 18.2129 18.2129 22.8271 12.4512 22.8271Z" fill="#5ac8f5" fill-opacity="0.5"/>
  <path d="M8.80127 13.623L16.0645 13.623C17.9688 13.623 19.4092 12.1582 19.4092 10.3638C19.4092 8.48389 17.8833 7.12891 15.9058 7.12891C15.1733 5.68848 13.8184 4.74854 12.1338 4.74854C9.92432 4.74854 8.11768 6.48193 7.91016 8.65479C6.86035 8.97217 6.05469 9.87549 6.05469 11.1206C6.05469 12.5 7.05566 13.623 8.80127 13.623ZM9.53369 16.7603L10.2173 15.5884C10.3516 15.332 10.2783 14.978 9.99756 14.8193C9.74121 14.6729 9.39941 14.7827 9.25293 15.0391L8.56934 16.2109C8.43506 16.4551 8.5083 16.8213 8.77686 16.9678C9.04541 17.1265 9.38721 17.0166 9.53369 16.7603ZM12.8784 16.7603L13.562 15.5884C13.7085 15.332 13.6353 14.978 13.3545 14.8193C13.0981 14.6729 12.7441 14.7827 12.6099 15.0391L11.9263 16.2109C11.7798 16.4551 11.853 16.8213 12.1338 16.9678C12.3901 17.1265 12.7441 17.0166 12.8784 16.7603ZM16.2231 16.7603L16.9067 15.5884C17.041 15.332 16.9678 14.978 16.6992 14.8193C16.4307 14.6729 16.0889 14.7827 15.9424 15.0391L15.2588 16.2109C15.1245 16.4551 15.1978 16.8213 15.4663 16.9678C15.7349 17.1265 16.0767 17.0166 16.2231 16.7603ZM8.06885 19.6899C8.22754 19.6899 8.36182 19.5557 8.34961 19.3726L8.31299 18.8965L8.70361 19.165C8.83789 19.2505 9.0332 19.1895 9.11865 19.0796C9.2041 18.9453 9.19189 18.7256 8.99658 18.6279L8.56934 18.4448L8.99658 18.2251C9.16748 18.1396 9.2041 17.9565 9.14307 17.8223C9.05762 17.6636 8.83789 17.6392 8.70361 17.7246L8.31299 17.981L8.34961 17.5171C8.36182 17.3218 8.22754 17.1875 8.06885 17.1875C7.87354 17.1875 7.75146 17.334 7.76367 17.5171L7.78809 17.981L7.39746 17.7246C7.27539 17.6392 7.06787 17.6514 6.98242 17.8101C6.92139 17.9199 6.92139 18.1519 7.1167 18.2373L7.51953 18.4448L7.1167 18.6279C6.92139 18.7256 6.88477 18.9209 6.97021 19.0552C7.05566 19.2261 7.26318 19.2505 7.39746 19.165L7.78809 18.8965L7.77588 19.3726C7.77588 19.5435 7.87354 19.6899 8.06885 19.6899ZM11.4136 19.6899C11.5723 19.6899 11.7065 19.5557 11.6943 19.3726L11.6699 18.8965L12.0483 19.165C12.1826 19.2505 12.3901 19.1895 12.4634 19.0796C12.561 18.9453 12.5366 18.7256 12.3413 18.6279L11.9263 18.4448L12.3413 18.2251C12.5244 18.1396 12.5488 17.9565 12.4878 17.8223C12.4146 17.6636 12.1826 17.6392 12.0483 17.7246L11.6699 17.981L11.6943 17.5171C11.7065 17.3218 11.5723 17.1875 11.4136 17.1875C11.2305 17.1875 11.0962 17.334 11.1084 17.5171L11.145 17.981L10.7422 17.7246C10.6201 17.6392 10.4248 17.6514 10.3394 17.8101C10.2661 17.9199 10.2783 18.1519 10.4614 18.2373L10.8765 18.4448L10.4614 18.6279C10.2783 18.7256 10.2417 18.9209 10.3149 19.0552C10.4004 19.2261 10.6079 19.2505 10.7422 19.165L11.145 18.8965L11.1206 19.3726C11.1206 19.5435 11.2305 19.6899 11.4136 19.6899ZM14.7583 19.6899C14.917 19.6899 15.0513 19.5557 15.0391 19.3726L15.0146 18.8965L15.3931 19.165C15.5273 19.2505 15.7227 19.1895 15.8081 19.0796C15.9058 18.9453 15.8813 18.7256 15.686 18.6279L15.2588 18.4448L15.686 18.2251C15.8569 18.1396 15.8936 17.9565 15.8325 17.8223C15.7471 17.6636 15.5273 17.6392 15.3931 17.7246L15.0146 17.981L15.0391 17.5171C15.0513 17.3218 14.917 17.1875 14.7583 17.1875C14.563 17.1875 14.4409 17.334 14.4531 17.5171L14.4775 17.981L14.0869 17.7246C13.9648 17.6392 13.7573 17.6514 13.6719 17.8101C13.6108 17.9199 13.6108 18.1519 13.8062 18.2373L14.209 18.4448L13.8062 18.6279C13.6108 18.7256 13.5742 18.9209 13.6597 19.0552C13.7451 19.2261 13.9526 19.2505 14.0869 19.165L14.4775 18.8965L14.4653 19.3726C14.4653 19.5435 14.563 19.6899 14.7583 19.6899Z" fill="#5ac8f5"/>
 </g>
</svg>
