<?xml version="1.0" encoding="UTF-8"?>
<!--Generator: Apple Native CoreSVG 175.5-->
<!DOCTYPE svg
PUBLIC "-//W3C//DTD SVG 1.1//EN"
       "http://www.w3.org/Graphics/SVG/1.1/DTD/svg11.dtd">
<svg version="1.1" xmlns="http://www.w3.org/2000/svg" xmlns:xlink="http://www.w3.org/1999/xlink" width="24.9023" height="24.9146">
 <g>
  <rect height="24.9146" opacity="0" width="24.9023" x="0" y="0"/>
  <path d="M12.4512 24.9023C19.2627 24.9023 24.9023 19.2505 24.9023 12.4512C24.9023 5.63965 19.2505 0 12.439 0C5.63965 0 0 5.63965 0 12.4512C0 19.2505 5.65186 24.9023 12.4512 24.9023ZM7.94678 12.9028C7.94678 10.5835 9.46045 8.98438 11.5356 8.98438C12.561 8.98438 13.4399 9.38721 13.9893 10.0586L13.9893 8.05664L11.6943 8.05664C11.3525 8.05664 11.0962 7.80029 11.0962 7.4585C11.0962 7.1167 11.3403 6.84814 11.6943 6.84814L13.9893 6.84814L13.9893 6.26221C13.9893 5.76172 14.3066 5.45654 14.7705 5.45654C15.2466 5.45654 15.564 5.76172 15.564 6.26221L15.564 6.84814L16.3696 6.84814C16.7236 6.84814 16.9678 7.1167 16.9678 7.4585C16.9678 7.80029 16.7114 8.05664 16.3696 8.05664L15.564 8.05664L15.564 16.1987C15.564 16.6626 15.2588 16.9678 14.8193 16.9678C14.3677 16.9678 14.0503 16.6626 14.0503 16.1987L14.0503 15.6982C13.4766 16.4185 12.5732 16.8213 11.5479 16.8213C9.47266 16.8213 7.94678 15.21 7.94678 12.9028ZM9.57031 12.915C9.57031 14.4043 10.4736 15.3809 11.8042 15.3809C13.0981 15.3809 14.0259 14.3433 14.0259 12.915C14.0259 11.4868 13.0981 10.4492 11.8042 10.4492C10.4736 10.4492 9.57031 11.4258 9.57031 12.915ZM8.59375 18.2617C8.59375 17.9199 8.8501 17.6514 9.2041 17.6514L15.3442 17.6514C15.6982 17.6514 15.9546 17.9077 15.9546 18.2617C15.9546 18.6035 15.686 18.8721 15.3442 18.8721L9.2041 18.8721C8.8623 18.8721 8.59375 18.6035 8.59375 18.2617Z" fill="#5ac8f5"/>
 </g>
</svg>
