<?xml version="1.0" encoding="UTF-8"?>
<!--Generator: Apple Native CoreSVG 175.5-->
<!DOCTYPE svg
PUBLIC "-//W3C//DTD SVG 1.1//EN"
       "http://www.w3.org/Graphics/SVG/1.1/DTD/svg11.dtd">
<svg version="1.1" xmlns="http://www.w3.org/2000/svg" xmlns:xlink="http://www.w3.org/1999/xlink" width="28.7842" height="22.4731">
 <g>
  <rect height="22.4731" opacity="0" width="28.7842" x="0" y="0"/>
  <path d="M3.83301 22.4731L24.9512 22.4731C27.5146 22.4731 28.7842 21.2158 28.7842 18.7012L28.7842 3.78418C28.7842 1.26953 27.5146 0 24.9512 0L3.83301 0C1.28174 0 0 1.26953 0 3.78418L0 18.7012C0 21.2158 1.28174 22.4731 3.83301 22.4731ZM3.85742 20.5078C2.63672 20.5078 1.96533 19.8608 1.96533 18.5913L1.96533 3.89404C1.96533 2.62451 2.63672 1.96533 3.85742 1.96533L24.9268 1.96533C26.1353 1.96533 26.8188 2.62451 26.8188 3.89404L26.8188 18.5913C26.8188 19.8608 26.1353 20.5078 24.9268 20.5078ZM9.98535 16.04C9.98535 16.9556 10.3882 17.3828 11.2427 17.3828L17.5659 17.3828C18.4082 17.3828 18.811 16.9556 18.811 16.04L18.811 11.1816C18.811 10.3271 18.457 9.91211 17.7368 9.86328L17.7368 8.41064C17.7368 6.16455 16.394 4.66309 14.4043 4.66309C12.4146 4.66309 11.0718 6.16455 11.0718 8.41064L11.0718 9.86328C10.3394 9.91211 9.98535 10.3271 9.98535 11.1816ZM12.3413 9.85107L12.3413 8.27637C12.3413 6.84814 13.1592 5.896 14.4043 5.896C15.6372 5.896 16.4673 6.84814 16.4673 8.27637L16.4673 9.85107Z" fill="#5ac8f5"/>
 </g>
</svg>
