<?xml version="1.0" encoding="UTF-8"?>
<!--Generator: Apple Native CoreSVG 175.5-->
<!DOCTYPE svg
PUBLIC "-//W3C//DTD SVG 1.1//EN"
       "http://www.w3.org/Graphics/SVG/1.1/DTD/svg11.dtd">
<svg version="1.1" xmlns="http://www.w3.org/2000/svg" xmlns:xlink="http://www.w3.org/1999/xlink" width="32.5806" height="18.0542">
 <g>
  <rect height="18.0542" opacity="0" width="32.5806" x="0" y="0"/>
  <path d="M1.64795 18.0298C4.04053 18.0298 5.13916 17.0044 5.7251 14.2578L7.1167 7.58057L9.32617 7.58057C10.0342 7.58057 10.4858 7.20215 10.4858 6.5918C10.4858 6.06689 10.144 5.7373 9.58252 5.7373L7.50732 5.7373L7.84912 4.07715C8.17871 2.52686 8.66699 1.89209 10.0098 1.89209C10.2173 1.89209 10.4126 1.87988 10.5469 1.86768C11.145 1.80664 11.4258 1.52588 11.4258 1.00098C11.4258 0.317383 10.8521 0.012207 9.68018 0.012207C7.34863 0.012207 6.15234 1.17188 5.60303 3.78418L5.2002 5.7373L3.68652 5.7373C2.96631 5.7373 2.51465 6.11572 2.51465 6.72607C2.51465 7.25098 2.85645 7.58057 3.43018 7.58057L4.80957 7.58057L3.4668 13.9648C3.125 15.564 2.62451 16.1499 1.31836 16.1499C1.14746 16.1499 0.976562 16.1621 0.866699 16.1743C0.305176 16.2476 0 16.5527 0 17.0654C0 17.7246 0.561523 18.0298 1.64795 18.0298ZM16.2354 18.0542C16.6504 18.0542 16.9434 17.8223 16.9434 17.4072C16.9434 17.2241 16.9067 17.1265 16.7725 16.8701C15.2832 14.563 14.4287 11.9141 14.4287 9.04541C14.4287 6.27441 15.2344 3.50342 16.7725 1.18408C16.9067 0.927734 16.9434 0.830078 16.9434 0.646973C16.9434 0.256348 16.6504 0 16.2354 0C15.8325 0 15.5151 0.183105 15.1245 0.720215C13.2812 3.05176 12.3657 5.95703 12.3657 9.0332C12.3657 12.1094 13.2568 14.9292 15.1245 17.334C15.5151 17.8711 15.8325 18.0542 16.2354 18.0542ZM18.7988 14.8193C19.1895 14.8193 19.4702 14.6851 19.7754 14.2456L22.4487 10.437L22.4976 10.437L25.2319 14.3066C25.5371 14.7339 25.8301 14.8193 26.123 14.8193C26.709 14.8193 27.0874 14.4043 27.0874 13.9038C27.0874 13.6719 27.0264 13.4521 26.8677 13.2446L23.7427 8.99658L26.8677 4.80957C27.0142 4.60205 27.0996 4.38232 27.0996 4.12598C27.0996 3.60107 26.6602 3.23486 26.1597 3.23486C25.7202 3.23486 25.4761 3.45459 25.2441 3.80859L22.6685 7.58057L22.6074 7.58057L20.0195 3.79639C19.7754 3.44238 19.4946 3.23486 19.0308 3.23486C18.457 3.23486 18.0298 3.68652 18.0298 4.1748C18.0298 4.52881 18.1396 4.74854 18.2983 4.95605L21.2769 8.93555L18.1152 13.2935C17.9443 13.5254 17.9077 13.7329 17.9077 13.9771C17.9077 14.4531 18.3105 14.8193 18.7988 14.8193ZM28.7109 18.0542C29.1138 18.0542 29.4312 17.8711 29.8218 17.334C31.6895 14.9292 32.5806 12.1094 32.5806 9.0332C32.5806 5.95703 31.665 3.05176 29.8218 0.720215C29.4312 0.183105 29.1138 0 28.7109 0C28.2959 0 28.0029 0.256348 28.0029 0.646973C28.0029 0.830078 28.0396 0.927734 28.1738 1.18408C29.7119 3.50342 30.5176 6.27441 30.5176 9.04541C30.5176 11.9141 29.6631 14.563 28.1738 16.8701C28.0396 17.1265 28.0029 17.2241 28.0029 17.4072C28.0029 17.7979 28.2959 18.0542 28.7109 18.0542Z" fill="#5ac8f5"/>
 </g>
</svg>
