<?xml version="1.0" encoding="UTF-8"?>
<!--Generator: Apple Native CoreSVG 175.5-->
<!DOCTYPE svg
PUBLIC "-//W3C//DTD SVG 1.1//EN"
       "http://www.w3.org/Graphics/SVG/1.1/DTD/svg11.dtd">
<svg version="1.1" xmlns="http://www.w3.org/2000/svg" xmlns:xlink="http://www.w3.org/1999/xlink" width="24.9023" height="25.2075">
 <g>
  <rect height="25.2075" opacity="0" width="24.9023" x="0" y="0"/>
  <path d="M12.4512 24.9023C19.2627 24.9023 24.9023 19.2627 24.9023 12.4512C24.9023 5.65186 19.2505 0 12.439 0C5.63965 0 0 5.65186 0 12.4512C0 19.2627 5.65186 24.9023 12.4512 24.9023Z" fill="#5ac8f5" fill-opacity="0.25"/>
  <path d="M13.7695 6.05469C16.687 6.05469 18.5913 8.04443 18.5913 10.9863L18.5913 12.6221C18.5913 13.208 18.2251 13.6108 17.6758 13.6108C17.1387 13.6108 16.7725 13.2202 16.7725 12.6465L16.7725 10.9863C16.7725 9.14307 15.5762 7.88574 13.7695 7.88574C12.0972 7.88574 10.9863 9.11865 10.9863 10.9741L10.9863 14.5386L10.9253 15.7959L11.3403 15.2222L12.7686 13.7329C12.9395 13.562 13.1714 13.4521 13.4399 13.4521C13.9648 13.4521 14.3799 13.8428 14.3799 14.3555C14.3799 14.624 14.2822 14.856 14.1113 15.0146L10.8398 18.2251C10.6079 18.457 10.3394 18.5547 10.0708 18.5547C9.79004 18.5547 9.52148 18.4448 9.28955 18.2251L6.05469 15.0269C5.87158 14.856 5.78613 14.6362 5.78613 14.3677C5.78613 13.8428 6.20117 13.4521 6.71387 13.4521C6.97021 13.4521 7.21436 13.562 7.37305 13.7329L8.56934 14.978L9.22852 15.8081L9.16748 14.5386L9.16748 10.9741C9.16748 8.03223 10.9985 6.05469 13.7695 6.05469Z" fill="#5ac8f5"/>
 </g>
</svg>
