<?xml version="1.0" encoding="UTF-8"?>
<!--Generator: Apple Native CoreSVG 175.5-->
<!DOCTYPE svg
PUBLIC "-//W3C//DTD SVG 1.1//EN"
       "http://www.w3.org/Graphics/SVG/1.1/DTD/svg11.dtd">
<svg version="1.1" xmlns="http://www.w3.org/2000/svg" xmlns:xlink="http://www.w3.org/1999/xlink" width="34.1156" height="30.9937">
 <g>
  <rect height="30.9937" opacity="0" width="34.1156" x="0" y="0"/>
  <path d="M15.4907 26.2085C21.4111 26.2085 26.2207 21.4111 26.2207 15.4907C26.2207 9.57031 21.4111 4.76074 15.4907 4.76074C9.57031 4.76074 4.76074 9.57031 4.76074 15.4907C4.76074 21.4111 9.57031 26.2085 15.4907 26.2085ZM15.4907 0C6.93359 0 0 6.93359 0 15.4907C0 24.0479 6.93359 30.9814 15.4907 30.9814C22.3022 30.9814 28.0884 26.5747 30.1636 20.459C29.4556 20.5566 28.772 20.3613 28.2593 19.9463C26.416 25.2319 21.3989 29.0161 15.4907 29.0161C8.02002 29.0161 1.96533 22.9614 1.96533 15.4907C1.96533 8.02002 8.02002 1.96533 15.4907 1.96533C21.4111 1.96533 26.4282 5.76172 28.2593 11.0596C28.7842 10.6323 29.4678 10.4492 30.1758 10.5469C28.1128 4.41895 22.3145 0 15.4907 0ZM30.5054 12.4146C29.834 11.9019 29.0161 12.207 29.0161 13.0493L29.0161 17.9443C29.0161 18.811 29.8584 19.0674 30.5054 18.5791L33.7769 16.1377C34.2285 15.8081 34.2285 15.1855 33.7769 14.856ZM12.4146 20.9717C11.8042 20.9717 11.4746 20.5444 11.4746 19.8975L11.4746 11.0229C11.4746 10.3638 11.8042 9.92432 12.4023 9.92432L15.8569 9.92432C18.2739 9.92432 19.812 11.3037 19.812 13.4521C19.812 14.9414 18.9087 16.1865 17.5171 16.6504L19.2993 19.458C19.4458 19.7021 19.5068 19.8853 19.5068 20.1538C19.5068 20.6421 19.1528 20.9717 18.6401 20.9717C18.2129 20.9717 17.9688 20.8008 17.688 20.3491L15.6128 16.9312L13.3911 16.9312L13.3911 19.8975C13.3911 20.5688 13.0493 20.9717 12.4146 20.9717ZM13.3911 15.5273L15.5762 15.5273C17.0044 15.5273 17.9199 14.7949 17.9199 13.501C17.9199 12.1582 16.9922 11.4014 15.6128 11.4014L13.3911 11.4014Z" fill="#5ac8f5"/>
 </g>
</svg>
