<?xml version="1.0" encoding="UTF-8"?>
<!--Generator: Apple Native CoreSVG 175.5-->
<!DOCTYPE svg
PUBLIC "-//W3C//DTD SVG 1.1//EN"
       "http://www.w3.org/Graphics/SVG/1.1/DTD/svg11.dtd">
<svg version="1.1" xmlns="http://www.w3.org/2000/svg" xmlns:xlink="http://www.w3.org/1999/xlink" width="24.9023" height="24.9146">
 <g>
  <rect height="24.9146" opacity="0" width="24.9023" x="0" y="0"/>
  <path d="M22.8149 12.4512C22.8149 17.7979 18.8354 22.1558 13.6597 22.7417C10.2051 20.6665 8.26416 17.0532 8.26416 12.4512C8.26416 7.84912 10.2173 4.22363 13.7207 2.16064C18.8599 2.75879 22.8149 7.10449 22.8149 12.4512Z" fill="#5ac8f5" fill-opacity="0.25"/>
  <path d="M24.9023 12.4512C24.9023 5.63965 19.2749 0 12.4634 0C5.66406 0 0 5.65186 0 12.4512C0 19.2505 5.65186 24.9023 12.4512 24.9023C19.2627 24.9023 24.9023 19.2505 24.9023 12.4512ZM22.8149 12.4512C22.8149 17.7979 18.8354 22.1558 13.6597 22.7417C10.2051 20.6665 8.26416 17.0532 8.26416 12.4512C8.26416 7.84912 10.2173 4.22363 13.7207 2.16064C18.8599 2.75879 22.8149 7.10449 22.8149 12.4512Z" fill="#5ac8f5"/>
 </g>
</svg>
