<?xml version="1.0" encoding="UTF-8"?>
<!--Generator: Apple Native CoreSVG 175.5-->
<!DOCTYPE svg
PUBLIC "-//W3C//DTD SVG 1.1//EN"
       "http://www.w3.org/Graphics/SVG/1.1/DTD/svg11.dtd">
<svg version="1.1" xmlns="http://www.w3.org/2000/svg" xmlns:xlink="http://www.w3.org/1999/xlink" width="20.5322" height="26.1841">
 <g>
  <rect height="26.1841" opacity="0" width="20.5322" x="0" y="0"/>
  <path d="M10.2661 22.998C9.77783 22.998 9.375 22.6074 9.375 22.1313L9.375 17.8101L9.44824 15.8813L8.42285 16.9312L7.36084 18.0176C7.18994 18.1885 6.9458 18.2861 6.72607 18.2861C6.23779 18.2861 5.896 17.9443 5.896 17.4805C5.896 17.2119 6.00586 17.0044 6.18896 16.8457L9.60693 13.6963C9.85107 13.4766 10.0464 13.3911 10.2661 13.3911C10.4858 13.3911 10.6812 13.4766 10.9253 13.6963L14.3433 16.8457C14.5264 17.0044 14.6362 17.2119 14.6362 17.4805C14.6362 17.9443 14.2822 18.2861 13.8062 18.2861C13.5742 18.2861 13.3423 18.1885 13.1714 18.0176L12.1094 16.9312L11.084 15.8813L11.1694 17.8101L11.1694 22.1313C11.1694 22.6074 10.7544 22.998 10.2661 22.998ZM3.78418 26.1719L16.748 26.1719C19.2749 26.1719 20.5322 24.8901 20.5322 22.3511L20.5322 11.2671L11.6943 11.2671C10.1318 11.2671 9.38721 10.5225 9.38721 8.95996L9.38721 0L3.78418 0C1.26953 0 0 1.29395 0 3.83301L0 22.3511C0 24.9023 1.25732 26.1719 3.78418 26.1719ZM11.731 9.59473L20.3857 9.59473C20.3125 9.09424 19.9585 8.60596 19.3726 8.00781L12.6465 1.15967C12.0728 0.57373 11.5723 0.219727 11.0596 0.134277L11.0596 8.93555C11.0596 9.375 11.2793 9.59473 11.731 9.59473Z" fill="#5ac8f5"/>
 </g>
</svg>
