<?xml version="1.0" encoding="UTF-8"?>
<!--Generator: Apple Native CoreSVG 175.5-->
<!DOCTYPE svg
PUBLIC "-//W3C//DTD SVG 1.1//EN"
       "http://www.w3.org/Graphics/SVG/1.1/DTD/svg11.dtd">
<svg version="1.1" xmlns="http://www.w3.org/2000/svg" xmlns:xlink="http://www.w3.org/1999/xlink" width="24.7681" height="26.4374">
 <g>
  <rect height="26.4374" opacity="0" width="24.7681" x="0" y="0"/>
  <path d="M23.0225 21.0007C24.1577 20.3537 24.7681 19.6945 24.7681 17.9245L24.7681 8.42744C24.7681 6.70625 24.1455 6.08369 23.1079 5.48554L14.5996 0.651559C13.1226-0.202934 11.6821-0.215141 10.1685 0.651559L1.67236 5.48554C0.622559 6.08369 0 6.70625 0 8.42744L0 17.9245C0 19.6945 0.622559 20.3537 1.74561 21.0007L10.2295 25.8103C11.6943 26.6525 13.0981 26.6403 14.5386 25.8103ZM12.3901 2.1042L12.3901 24.3454C11.9507 24.3454 11.5234 24.1989 11.0352 23.9304L2.90527 19.3039C2.20947 18.9133 1.97754 18.5349 1.97754 17.8757L1.97754 8.52509C1.97754 7.91474 2.22168 7.56074 2.83203 7.20673L11.0352 2.50703C11.499 2.23847 11.9507 2.1042 12.3901 2.1042Z" fill="#5ac8f5"/>
 </g>
</svg>
