<?xml version="1.0" encoding="UTF-8"?>
<!--Generator: Apple Native CoreSVG 175.5-->
<!DOCTYPE svg
PUBLIC "-//W3C//DTD SVG 1.1//EN"
       "http://www.w3.org/Graphics/SVG/1.1/DTD/svg11.dtd">
<svg version="1.1" xmlns="http://www.w3.org/2000/svg" xmlns:xlink="http://www.w3.org/1999/xlink" width="22.4731" height="22.4976">
 <g>
  <rect height="22.4976" opacity="0" width="22.4731" x="0" y="0"/>
  <path d="M3.83301 22.4976L18.6401 22.4976C21.2036 22.4976 22.4731 21.228 22.4731 18.7134L22.4731 3.80859C22.4731 1.29395 21.2036 0.0244141 18.6401 0.0244141L3.83301 0.0244141C1.28174 0.0244141 0 1.28174 0 3.80859L0 18.7134C0 21.2402 1.28174 22.4976 3.83301 22.4976ZM3.85742 20.5322C2.63672 20.5322 1.96533 19.8853 1.96533 18.6157L1.96533 3.90625C1.96533 2.63672 2.63672 1.98975 3.85742 1.98975L18.6157 1.98975C19.8242 1.98975 20.5078 2.63672 20.5078 3.90625L20.5078 18.6157C20.5078 19.8853 19.8242 20.5322 18.6157 20.5322ZM9.44824 16.4795C9.93652 16.4795 10.1929 16.1377 10.1929 15.6616L10.1929 14.2212L10.8521 14.2212C11.2793 14.2212 11.5479 13.9771 11.5479 13.5498C11.5479 13.1104 11.2793 12.854 10.8521 12.854L10.1929 12.854L10.1929 7.14111C10.1929 6.43311 9.70459 5.98145 8.98438 5.98145C8.27637 5.98145 7.84912 6.25 7.44629 6.92139C6.43311 8.63037 5.2002 10.73 4.38232 12.207C4.1748 12.5854 4.11377 12.854 4.11377 13.1836C4.11377 13.8306 4.52881 14.2212 5.15137 14.2212L8.71582 14.2212L8.71582 15.6616C8.71582 16.1255 8.97217 16.4795 9.44824 16.4795ZM8.71582 12.854L5.70068 12.854L5.70068 12.8052C6.4209 11.4258 7.67822 9.27734 8.65479 7.62939L8.71582 7.62939ZM16.1621 16.3574C16.626 16.3574 16.9312 16.0522 16.9312 15.5762L16.9312 6.93359C16.9312 6.4209 16.5894 6.05469 16.0767 6.05469C15.6738 6.05469 15.4419 6.17676 15.0024 6.46973L13.147 7.73926C12.8906 7.92236 12.7441 8.14209 12.7441 8.45947C12.7441 8.87451 13.0859 9.19189 13.4399 9.19189C13.6353 9.19189 13.7573 9.17969 14.0381 8.95996L15.3442 7.99561L15.4053 7.99561L15.4053 15.5762C15.4053 16.0522 15.7104 16.3574 16.1621 16.3574Z" fill="#5ac8f5"/>
 </g>
</svg>
