<?xml version="1.0" encoding="UTF-8"?>
<!--Generator: Apple Native CoreSVG 175.5-->
<!DOCTYPE svg
PUBLIC "-//W3C//DTD SVG 1.1//EN"
       "http://www.w3.org/Graphics/SVG/1.1/DTD/svg11.dtd">
<svg version="1.1" xmlns="http://www.w3.org/2000/svg" xmlns:xlink="http://www.w3.org/1999/xlink" width="22.4731" height="22.4976">
 <g>
  <rect height="22.4976" opacity="0" width="22.4731" x="0" y="0"/>
  <path d="M3.83301 22.4976L18.6401 22.4976C21.2036 22.4976 22.4731 21.228 22.4731 18.7134L22.4731 3.80859C22.4731 1.29395 21.2036 0.0244141 18.6401 0.0244141L3.83301 0.0244141C1.28174 0.0244141 0 1.28174 0 3.80859L0 18.7134C0 21.2402 1.28174 22.4976 3.83301 22.4976ZM3.85742 20.5322C2.63672 20.5322 1.96533 19.8853 1.96533 18.6157L1.96533 3.90625C1.96533 2.63672 2.63672 1.98975 3.85742 1.98975L18.6157 1.98975C19.8242 1.98975 20.5078 2.63672 20.5078 3.90625L20.5078 18.6157C20.5078 19.8853 19.8242 20.5322 18.6157 20.5322ZM15.0635 14.27C15.6006 14.27 15.9668 13.855 15.9668 13.2935L15.9668 7.53174C15.9668 6.81152 15.564 6.53076 14.9414 6.53076L9.15527 6.53076C8.58154 6.53076 8.21533 6.88477 8.21533 7.42188C8.21533 7.95898 8.59375 8.31299 9.17969 8.31299L11.4014 8.31299L13.208 8.11768L11.3037 9.8877L6.79932 14.3921C6.62842 14.563 6.51855 14.8071 6.51855 15.0513C6.51855 15.6006 6.87256 15.9546 7.40967 15.9546C7.70264 15.9546 7.93457 15.8447 8.10547 15.6738L12.5977 11.1816L14.3555 9.30176L14.1724 11.2061L14.1724 13.3179C14.1724 13.8916 14.5264 14.27 15.0635 14.27Z" fill="#5ac8f5"/>
 </g>
</svg>
