<?xml version="1.0" encoding="UTF-8"?>
<!--Generator: Apple Native CoreSVG 175.5-->
<!DOCTYPE svg
PUBLIC "-//W3C//DTD SVG 1.1//EN"
       "http://www.w3.org/Graphics/SVG/1.1/DTD/svg11.dtd">
<svg version="1.1" xmlns="http://www.w3.org/2000/svg" xmlns:xlink="http://www.w3.org/1999/xlink" width="14.3066" height="22.4731">
 <g>
  <rect height="22.4731" opacity="0" width="14.3066" x="0" y="0"/>
  <path d="M1.98975 22.4487L12.3169 22.4487C13.5498 22.4487 14.3066 21.7529 14.3066 20.4468L14.3066 20.2026C14.3066 17.2607 11.1938 14.1357 9.48486 12.439C8.71582 11.6699 8.65479 10.8154 9.48486 9.98535C11.1938 8.30078 14.3066 5.18799 14.3066 2.22168L14.3066 2.01416C14.3066 0.708008 13.5498 0 12.3169 0L1.98975 0C0.756836 0 0 0.708008 0 2.01416L0 2.22168C0 5.18799 3.125 8.30078 4.82178 9.98535C5.60303 10.7544 5.66406 11.6089 4.82178 12.439C3.125 14.1357 0 17.2607 0 20.2026L0 20.4468C0 21.7529 0.756836 22.4487 1.98975 22.4487Z" fill="#5ac8f5" fill-opacity="0.25"/>
  <path d="M2.92969 20.7886C2.40479 20.7886 2.28271 20.1782 2.63672 19.8486L6.56738 16.1011C6.9458 15.7593 7.38525 15.7715 7.73926 16.1011L11.6699 19.8486C12.0239 20.1782 11.9019 20.7886 11.377 20.7886Z" fill="#5ac8f5"/>
 </g>
</svg>
