<?xml version="1.0" encoding="UTF-8"?>
<!--Generator: Apple Native CoreSVG 175.5-->
<!DOCTYPE svg
PUBLIC "-//W3C//DTD SVG 1.1//EN"
       "http://www.w3.org/Graphics/SVG/1.1/DTD/svg11.dtd">
<svg version="1.1" xmlns="http://www.w3.org/2000/svg" xmlns:xlink="http://www.w3.org/1999/xlink" width="24.9023" height="24.9146">
 <g>
  <rect height="24.9146" opacity="0" width="24.9023" x="0" y="0"/>
  <path d="M12.4512 24.9023C19.2627 24.9023 24.9023 19.2505 24.9023 12.4512C24.9023 5.63965 19.2505 0 12.439 0C5.63965 0 0 5.63965 0 12.4512C0 19.2505 5.65186 24.9023 12.4512 24.9023ZM19.5312 10.3394C19.5312 12.4146 18.3716 14.0625 16.8457 14.0625L15.8691 14.0625C16.4307 13.3057 17.1021 12.1094 17.1265 10.4004C17.1509 8.8501 16.626 7.50732 15.3809 6.604L16.6016 6.604C18.2983 6.604 19.5312 8.30078 19.5312 10.3394ZM16.2109 10.3882C16.1865 11.9995 15.7471 12.9761 14.8926 14.1235C13.855 15.5029 12.5122 17.1143 11.4868 19.0796C11.2427 19.5923 10.9985 19.9219 10.5103 19.9219C9.98535 19.9219 9.57031 19.5435 9.57031 18.9209C9.57031 17.7368 10.7056 16.0645 10.7056 15.1367C10.7056 14.6362 10.3149 14.3188 9.68018 14.3188L7.2876 14.3188C6.62842 14.3188 6.11572 13.7817 6.11572 13.1104C6.11572 12.7563 6.25 12.4268 6.44531 12.2314C6.56738 12.146 6.5918 12.085 6.46973 11.9995C6.29883 11.8286 6.20117 11.4746 6.20117 11.1694C6.20117 10.7056 6.40869 10.3516 6.73828 10.1562C6.84814 10.0952 6.86035 9.99756 6.78711 9.8877C6.62842 9.70459 6.53076 9.42383 6.53076 9.11865C6.53076 8.58154 6.89697 8.17871 7.2998 8.02002C7.37305 7.99561 7.38525 7.91016 7.33643 7.82471C7.26318 7.69043 7.18994 7.4707 7.18994 7.22656C7.18994 6.57959 7.71484 6.27441 8.26416 6.12793C8.63037 6.04248 9.27734 5.96924 10.144 5.98145L11.084 5.99365C14.2456 6.03027 16.2476 7.89795 16.2109 10.3882Z" fill="#5ac8f5"/>
 </g>
</svg>
