<?xml version="1.0" encoding="UTF-8"?>
<!--Generator: Apple Native CoreSVG 175.5-->
<!DOCTYPE svg
PUBLIC "-//W3C//DTD SVG 1.1//EN"
       "http://www.w3.org/Graphics/SVG/1.1/DTD/svg11.dtd">
<svg version="1.1" xmlns="http://www.w3.org/2000/svg" xmlns:xlink="http://www.w3.org/1999/xlink" width="24.9023" height="24.9146">
 <g>
  <rect height="24.9146" opacity="0" width="24.9023" x="0" y="0"/>
  <path d="M12.4512 24.9023C19.2627 24.9023 24.9023 19.2505 24.9023 12.4512C24.9023 5.63965 19.2505 0 12.439 0C5.63965 0 0 5.63965 0 12.4512C0 19.2505 5.65186 24.9023 12.4512 24.9023ZM12.4512 22.8271C6.68945 22.8271 2.0874 18.2129 2.0874 12.4512C2.0874 6.68945 6.67725 2.0752 12.439 2.0752C18.2007 2.0752 22.8271 6.68945 22.8271 12.4512C22.8271 18.2129 18.2129 22.8271 12.4512 22.8271ZM8.70361 18.5425C9.11865 18.5425 9.41162 18.2495 9.41162 17.7612L9.41162 13.623L9.97314 13.623L11.4868 18.042C11.6211 18.4204 11.853 18.5425 12.1704 18.5425C12.561 18.5425 12.8418 18.2373 12.8418 17.8345C12.8418 17.6758 12.8174 17.5537 12.7441 17.3706L11.3281 13.3301C12.3047 12.8296 12.854 11.5723 12.854 10.1196C12.854 7.82471 11.9507 6.70166 10.1685 6.70166L8.72803 6.70166C8.30078 6.70166 8.02002 7.00684 8.02002 7.50732L8.02002 17.7246C8.02002 18.2251 8.28857 18.5425 8.70361 18.5425ZM9.41162 12.2314L9.41162 8.10547L10.0708 8.10547C11.0107 8.10547 11.438 8.80127 11.438 10.1562C11.438 11.5356 11.0107 12.2314 10.0342 12.2314ZM15.4785 18.5547C16.8335 18.5547 17.7246 17.5781 17.7246 16.0645C17.7246 14.8438 17.2974 14.1235 16.1133 13.4766L15.6494 13.2202C15.0024 12.8662 14.7339 12.5122 14.7339 11.9263C14.7339 11.2671 14.9902 10.8765 15.4663 10.8765C16.04 10.8765 16.1987 11.2915 16.272 12.085C16.3086 12.561 16.5161 12.854 16.9312 12.854C17.3584 12.854 17.6025 12.5488 17.6025 12.0605C17.6025 11.9385 17.5903 11.8286 17.5781 11.7065C17.4561 10.4858 16.7358 9.5459 15.4785 9.5459C14.209 9.5459 13.3545 10.5103 13.3545 11.9751C13.3545 13.147 13.8306 13.9282 14.9658 14.5264L15.4541 14.7827C16.0767 15.1001 16.333 15.5151 16.333 16.1621C16.333 16.8701 16.04 17.2485 15.4785 17.2485C14.9048 17.2485 14.6362 16.7847 14.5874 16.0278C14.5508 15.5396 14.3066 15.2588 13.9038 15.2588C13.4888 15.2588 13.2446 15.564 13.2446 16.0522C13.2446 16.1987 13.2446 16.333 13.269 16.4673C13.4155 17.7124 14.209 18.5547 15.4785 18.5547Z" fill="#5ac8f5"/>
 </g>
</svg>
