<?xml version="1.0" encoding="UTF-8"?>
<!--Generator: Apple Native CoreSVG 175.5-->
<!DOCTYPE svg
PUBLIC "-//W3C//DTD SVG 1.1//EN"
       "http://www.w3.org/Graphics/SVG/1.1/DTD/svg11.dtd">
<svg version="1.1" xmlns="http://www.w3.org/2000/svg" xmlns:xlink="http://www.w3.org/1999/xlink" width="29.4434" height="27.4536">
 <g>
  <rect height="27.4536" opacity="0" width="29.4434" x="0" y="0"/>
  <path d="M5.35889 25.5249C6.20117 25.5249 6.87256 24.8535 6.87256 24.0112C6.87256 23.1689 6.18896 22.4976 5.35889 22.4976C4.5166 22.4976 3.84521 23.1812 3.84521 24.0112C3.84521 24.8657 4.52881 25.5249 5.35889 25.5249ZM1.52588 16.2354C2.36816 16.2354 3.03955 15.5396 3.03955 14.7095C3.03955 13.855 2.34375 13.1958 1.52588 13.1958C0.683594 13.1958 0 13.8794 0 14.7095C0 15.5518 0.695801 16.2354 1.52588 16.2354ZM5.35889 6.9458C6.20117 6.9458 6.87256 6.26221 6.87256 5.43213C6.87256 4.57764 6.18896 3.91846 5.35889 3.91846C4.5166 3.91846 3.84521 4.58984 3.84521 5.43213C3.84521 6.27441 4.52881 6.9458 5.35889 6.9458ZM14.7217 3.03955C15.564 3.03955 16.2354 2.35596 16.2354 1.51367C16.2354 0.671387 15.5518 0 14.7217 0C13.8672 0 13.208 0.683594 13.208 1.51367C13.208 2.36816 13.8794 3.03955 14.7217 3.03955ZM24.0723 6.92139C24.9146 6.92139 25.5859 6.23779 25.5859 5.40771C25.5859 4.55322 24.9023 3.89404 24.0723 3.89404C23.2178 3.89404 22.5464 4.56543 22.5464 5.40771C22.5464 6.25 23.23 6.92139 24.0723 6.92139ZM27.9175 16.2354C28.7598 16.2354 29.4434 15.5396 29.4434 14.7095C29.4434 13.855 28.7476 13.1958 27.9175 13.1958C27.063 13.1958 26.3916 13.8794 26.3916 14.7095C26.3916 15.5518 27.0874 16.2354 27.9175 16.2354ZM24.0601 25.5371C24.9023 25.5371 25.5737 24.8657 25.5737 24.0234C25.5737 23.1812 24.8901 22.5098 24.0601 22.5098C23.2056 22.5098 22.5342 23.1934 22.5342 24.0234C22.5342 24.8779 23.2178 25.5371 24.0601 25.5371ZM14.7217 23.5962C19.6167 23.5962 23.5962 19.6289 23.5962 14.7095C23.5962 10.1196 20.105 6.34766 15.625 5.896L15.6128 14.8926C15.6128 15.3809 15.1855 15.8081 14.7217 15.7959C14.1846 15.7715 13.8062 15.3931 13.8062 14.8682L13.8062 5.896C9.33838 6.34766 5.83496 10.1196 5.83496 14.7095C5.83496 19.6411 9.82666 23.5962 14.7217 23.5962Z" fill="#5ac8f5"/>
 </g>
</svg>
