<?xml version="1.0" encoding="UTF-8"?>
<!--Generator: Apple Native CoreSVG 175.5-->
<!DOCTYPE svg
PUBLIC "-//W3C//DTD SVG 1.1//EN"
       "http://www.w3.org/Graphics/SVG/1.1/DTD/svg11.dtd">
<svg version="1.1" xmlns="http://www.w3.org/2000/svg" xmlns:xlink="http://www.w3.org/1999/xlink" width="26.4289" height="26.1108">
 <g>
  <rect height="26.1108" opacity="0" width="26.4289" x="0" y="0"/>
  <path d="M0.233404 12.2803L3.83448 23.4741C4.38379 25.2197 5.59229 26.1108 7.44776 26.1108L18.9956 26.1108C20.8511 26.1108 22.0596 25.2197 22.6089 23.4741L26.1856 12.3291C26.7593 10.5225 26.3198 9.09424 24.855 8.02002L15.5044 1.14746C13.9663 0.012207 12.4771 0.012207 10.939 1.14746L1.58838 8.02002C0.123541 9.09424-0.328119 10.5103 0.233404 12.2803ZM13.2217 2.27051C13.5635 2.27051 13.9175 2.40479 14.3203 2.70996L23.6587 9.59473C24.4644 10.1929 24.6475 10.7666 24.3423 11.7188L20.7656 22.876C20.4605 23.8037 19.9844 24.1455 18.9956 24.1455L13.2217 24.1455Z" fill="#5ac8f5"/>
 </g>
</svg>
