<?xml version="1.0" encoding="UTF-8"?>
<!--Generator: Apple Native CoreSVG 175.5-->
<!DOCTYPE svg
PUBLIC "-//W3C//DTD SVG 1.1//EN"
       "http://www.w3.org/Graphics/SVG/1.1/DTD/svg11.dtd">
<svg version="1.1" xmlns="http://www.w3.org/2000/svg" xmlns:xlink="http://www.w3.org/1999/xlink" width="29.1382" height="27.7039">
 <g>
  <rect height="27.7039" opacity="0" width="29.1382" x="0" y="0"/>
  <path d="M17.7124 23.6725L11.4136 23.6725L11.4136 15.6036C11.4136 15.0421 11.792 14.6759 12.3535 14.6759L16.7847 14.6759C17.3462 14.6759 17.7124 15.0421 17.7124 15.6036ZM3.80859 22.9401C3.80859 24.6368 4.83398 25.6378 6.55518 25.6378L22.6074 25.6378C24.3286 25.6378 25.3418 24.6368 25.3418 22.9401L25.3418 13.2721L15.3076 4.86145C14.8438 4.47083 14.2944 4.48303 13.8428 4.86145L3.80859 13.2721ZM0 12.0514C0 12.5519 0.390625 13.028 1.0498 13.028C1.3916 13.028 1.67236 12.8448 1.92871 12.6373L14.1479 2.38342C14.4165 2.13928 14.7461 2.13928 15.0146 2.38342L27.2339 12.6373C27.478 12.8448 27.7588 13.028 28.1006 13.028C28.6743 13.028 29.1382 12.674 29.1382 12.088C29.1382 11.7218 29.0161 11.4777 28.7598 11.2579L16.0522 0.576782C15.1489-0.192261 14.0259-0.192261 13.1104 0.576782L0.390625 11.2579C0.12207 11.4777 0 11.7706 0 12.0514ZM22.2778 6.54602L25.3418 9.13391L25.3418 3.49426C25.3418 2.95715 25 2.61536 24.4629 2.61536L23.1567 2.61536C22.6318 2.61536 22.2778 2.95715 22.2778 3.49426Z" fill="#5ac8f5"/>
 </g>
</svg>
