<?xml version="1.0" encoding="UTF-8"?>
<!--Generator: Apple Native CoreSVG 175.5-->
<!DOCTYPE svg
PUBLIC "-//W3C//DTD SVG 1.1//EN"
       "http://www.w3.org/Graphics/SVG/1.1/DTD/svg11.dtd">
<svg version="1.1" xmlns="http://www.w3.org/2000/svg" xmlns:xlink="http://www.w3.org/1999/xlink" width="24.9023" height="29.6485">
 <g>
  <rect height="29.6485" opacity="0" width="24.9023" x="0" y="0"/>
  <path d="M0 14.8181C0 21.6297 5.65186 27.2693 12.4512 27.2693C19.2627 27.2693 24.9023 21.6297 24.9023 14.8181C24.9023 8.81228 20.52 3.72195 14.8071 2.5989L14.8071 0.865506C14.8071-0.0011928 14.209-0.233126 13.5498 0.242948L9.65576 2.96512C9.09424 3.35574 9.08203 3.94168 9.65576 4.34451L13.5376 7.07889C14.209 7.56717 14.8071 7.33523 14.8071 6.45633L14.8071 4.72293C19.4214 5.77273 22.8149 9.8743 22.8149 14.8181C22.8149 20.5799 18.2129 25.1941 12.4512 25.1941C6.68945 25.1941 2.06299 20.5799 2.0752 14.8181C2.0874 11.3513 3.77197 8.28738 6.37207 6.43191C6.87256 6.05349 7.03125 5.47976 6.72607 4.96707C6.4209 4.46658 5.74951 4.3323 5.2124 4.74734C2.0752 7.03006 0 10.7166 0 14.8181ZM8.65479 19.9573C10.5713 19.9573 11.9385 18.7976 11.9385 17.1497C11.9385 15.9534 11.1084 14.989 9.94873 14.8548L9.94873 14.9158C10.8887 14.7449 11.6333 13.805 11.6333 12.7063C11.6333 11.2415 10.437 10.2161 8.72803 10.2161C7.25098 10.2161 6.01807 11.0462 5.76172 12.2303C5.7251 12.3767 5.71289 12.4988 5.71289 12.6331C5.71289 13.0725 5.99365 13.3777 6.40869 13.3777C6.7627 13.3777 6.98242 13.1946 7.1167 12.804C7.37305 12.0349 7.88574 11.6321 8.69141 11.6321C9.5459 11.6321 10.1318 12.1448 10.1318 12.8894C10.1318 13.6707 9.5459 14.2444 8.6792 14.2444L8.1543 14.2444C7.75146 14.2444 7.48291 14.5252 7.48291 14.9524C7.48291 15.3553 7.76367 15.6604 8.1543 15.6604L8.74023 15.6604C9.76562 15.6604 10.4126 16.2342 10.4126 17.0887C10.4126 17.9187 9.68018 18.5535 8.66699 18.5535C7.8125 18.5535 7.20215 18.1262 6.93359 17.3694C6.78711 16.9666 6.56738 16.7957 6.23779 16.7957C5.82275 16.7957 5.52979 17.1131 5.52979 17.5403C5.52979 17.6746 5.54199 17.8089 5.57861 17.9431C5.84717 19.0906 7.16553 19.9573 8.65479 19.9573ZM16.5283 19.9573C18.5547 19.9573 19.8853 18.0408 19.8853 15.1111C19.8853 12.157 18.5547 10.2161 16.5283 10.2161C14.4897 10.2161 13.1714 12.1448 13.1714 15.1111C13.1714 18.0408 14.502 19.9573 16.5283 19.9573ZM16.5283 18.4803C15.4541 18.4803 14.7583 17.1985 14.7583 15.1111C14.7583 12.9871 15.4419 11.6931 16.5283 11.6931C17.6147 11.6931 18.2861 12.9749 18.2861 15.1111C18.2861 17.1985 17.6025 18.4803 16.5283 18.4803Z" fill="#5ac8f5"/>
 </g>
</svg>
