<?xml version="1.0" encoding="UTF-8"?>
<!--Generator: Apple Native CoreSVG 175.5-->
<!DOCTYPE svg
PUBLIC "-//W3C//DTD SVG 1.1//EN"
       "http://www.w3.org/Graphics/SVG/1.1/DTD/svg11.dtd">
<svg version="1.1" xmlns="http://www.w3.org/2000/svg" xmlns:xlink="http://www.w3.org/1999/xlink" width="24.2706" height="24.6948">
 <g>
  <rect height="24.6948" opacity="0" width="24.2706" x="0" y="0"/>
  <path d="M12.851 9.36279L12.973 6.89697L12.973 5.34668L15.8661 3.71094C16.33 3.44238 16.4642 2.97852 16.2567 2.58789C15.9882 2.14844 15.5365 2.09961 15.0726 2.35596L12.973 3.55225L12.973 0.891113C12.973 0.366211 12.6556 0 12.1307 0C11.618 0 11.2762 0.366211 11.2762 0.891113L11.2762 3.55225L9.15222 2.35596C8.70056 2.09961 8.2489 2.14844 7.99255 2.58789C7.77283 2.97852 7.91931 3.44238 8.38318 3.69873L11.2762 5.34668L11.2762 6.89697L11.3129 7.82471ZM14.9872 11.5112L17.2699 10.3638L18.6005 9.58252L21.4691 11.2671C21.9208 11.5356 22.4213 11.4258 22.641 11.0474C22.8973 10.6079 22.702 10.1807 22.2626 9.91211L20.163 8.69141L22.4701 7.36084C22.934 7.09229 23.0682 6.62842 22.7997 6.16455C22.5555 5.7251 22.0917 5.61523 21.6156 5.88379L19.2963 7.20215L19.2841 4.77295C19.2841 4.24805 19.0277 3.88184 18.515 3.88184C18.0634 3.88184 17.7338 4.24805 17.7338 4.77295L17.7582 8.09326L16.4154 8.87451L13.9496 10.4736ZM18.576 15.0879L21.7987 18.3105L22.5922 18.6646C22.6654 18.6401 22.7264 18.5913 22.7875 18.5181C23.0682 18.0786 22.8973 17.5659 22.4457 17.3096L20.0409 16.04L22.2382 14.7583C22.6776 14.4897 22.8729 14.0747 22.6166 13.6353C22.3846 13.2446 21.8964 13.1348 21.4447 13.4033ZM11.4105 15.3198L11.2762 17.7734L11.2762 19.3237L8.38318 20.9717C7.91931 21.228 7.77283 21.7041 7.99255 22.0825C8.26111 22.5342 8.70056 22.5708 9.15222 22.3267L11.2762 21.1182L11.2762 23.7793C11.2762 24.3042 11.618 24.6826 12.1307 24.6826C12.6556 24.6826 12.973 24.3042 12.973 23.7793L12.973 21.1304L15.0726 22.3267C15.5365 22.5708 15.9882 22.5342 16.2567 22.0825C16.4642 21.7041 16.33 21.228 15.8661 20.9717L12.973 19.3237L12.973 17.7734L12.9486 16.8579ZM9.26208 13.1714L6.99158 14.3188L5.6366 15.1001L2.78015 13.4033C2.32849 13.1348 1.84021 13.2446 1.63269 13.623C1.37634 14.0991 1.54724 14.4897 1.98669 14.7583L4.0863 15.9912L1.79138 17.3218C1.33972 17.5781 1.18103 18.0664 1.44958 18.5059C1.70593 18.9697 2.18201 19.0552 2.63367 18.7988L4.953 17.4805L4.96521 19.8975C4.96521 20.4102 5.22156 20.8008 5.74646 20.8008C6.18591 20.8008 6.5155 20.4224 6.5155 19.8975L6.5033 16.5649L7.84607 15.8081L10.2997 14.209ZM2.79236 11.2671L5.67322 9.58252L2.45056 6.35986L1.6449 6.00586C1.57166 6.01807 1.49841 6.06689 1.44958 6.16455C1.16882 6.62842 1.32751 7.10449 1.77917 7.36084L4.18396 8.63037L1.9989 9.91211C1.54724 10.1807 1.36414 10.5713 1.60828 11.0474C1.828 11.438 2.31628 11.5356 2.79236 11.2671Z" fill="#5ac8f5" fill-opacity="0.5"/>
  <path d="M22.6654 24.2188C23.0316 24.585 23.642 24.5728 23.996 24.2065C24.3622 23.8403 24.3622 23.2422 23.996 22.876L1.60828 0.488281C1.24207 0.12207 0.643921 0.109863 0.265503 0.488281C-0.088501 0.842285-0.088501 1.45264 0.265503 1.81885Z" fill="#5ac8f5"/>
 </g>
</svg>
