<?xml version="1.0" encoding="UTF-8"?>
<!--Generator: Apple Native CoreSVG 175.5-->
<!DOCTYPE svg
PUBLIC "-//W3C//DTD SVG 1.1//EN"
       "http://www.w3.org/Graphics/SVG/1.1/DTD/svg11.dtd">
<svg version="1.1" xmlns="http://www.w3.org/2000/svg" xmlns:xlink="http://www.w3.org/1999/xlink" width="24.9023" height="24.9146">
 <g>
  <rect height="24.9146" opacity="0" width="24.9023" x="0" y="0"/>
  <path d="M12.4512 24.9023C19.2627 24.9023 24.9023 19.2505 24.9023 12.4512C24.9023 5.63965 19.2505 0 12.439 0C5.63965 0 0 5.63965 0 12.4512C0 19.2505 5.65186 24.9023 12.4512 24.9023ZM7.16553 12.6465C7.16553 12.2803 7.43408 12.0117 7.77588 12.0117L8.47168 12.0117L8.47168 7.54395C8.47168 6.9458 8.87451 6.53076 9.49707 6.53076C10.022 6.53076 10.376 6.81152 10.5957 7.27539L12.9883 12.0239L14.7827 12.0239L14.7827 7.37305C14.7827 6.87256 15.1123 6.54297 15.5884 6.54297C16.0645 6.54297 16.4062 6.87256 16.4062 7.37305L16.4062 12.0239L17.1265 12.0239C17.4683 12.0239 17.7368 12.2803 17.7368 12.6465C17.7368 12.9883 17.4683 13.2812 17.1265 13.2812L16.4062 13.2812L16.4062 17.7002C16.4062 18.3105 16.0034 18.7256 15.3809 18.7256C14.856 18.7256 14.502 18.4448 14.2822 17.981L11.9019 13.269L10.0952 13.269L10.0952 17.8833C10.0952 18.3838 9.76562 18.7134 9.28955 18.7134C8.81348 18.7134 8.47168 18.3838 8.47168 17.8833L8.47168 13.269L7.77588 13.269C7.42188 13.269 7.16553 12.9883 7.16553 12.6465ZM10.0952 12.0117L11.2793 12.0117L10.0952 9.47266ZM13.6108 13.2812L14.7827 15.8081L14.7827 13.2812Z" fill="#5ac8f5"/>
 </g>
</svg>
