<?xml version="1.0" encoding="UTF-8"?>
<!--Generator: Apple Native CoreSVG 175.5-->
<!DOCTYPE svg
PUBLIC "-//W3C//DTD SVG 1.1//EN"
       "http://www.w3.org/Graphics/SVG/1.1/DTD/svg11.dtd">
<svg version="1.1" xmlns="http://www.w3.org/2000/svg" xmlns:xlink="http://www.w3.org/1999/xlink" width="24.9023" height="24.9146">
 <g>
  <rect height="24.9146" opacity="0" width="24.9023" x="0" y="0"/>
  <path d="M12.4512 24.9146C19.2627 24.9146 24.9023 19.2749 24.9023 12.4634C24.9023 5.66406 19.2505 0.012207 12.439 0.012207C5.63965 0.012207 0 5.66406 0 12.4634C0 19.2749 5.65186 24.9146 12.4512 24.9146ZM8.41064 14.1479C6.61621 14.1479 5.57861 12.9883 5.57861 11.5723C5.57861 10.3027 6.40869 9.35059 7.49512 9.0332C7.70264 6.78711 9.58252 5.00488 11.8408 5.00488C13.5864 5.00488 14.978 5.98145 15.7471 7.4707C17.7856 7.4707 19.3604 8.8623 19.3604 10.791C19.3604 12.6587 17.8589 14.1479 15.9058 14.1479ZM8.78906 17.7368C8.64258 18.0176 8.28857 18.1152 8.02002 17.9565C7.72705 17.7979 7.6416 17.4316 7.80029 17.1631L8.69141 15.625C8.8501 15.3442 9.2041 15.2588 9.47266 15.4053C9.75342 15.5762 9.85107 15.9302 9.68018 16.1987ZM10.8887 19.6167C10.73 19.873 10.3882 19.9829 10.1196 19.8242C9.82666 19.6655 9.74121 19.3115 9.8999 19.0308L10.8032 17.4927C10.9497 17.2241 11.3037 17.1143 11.5723 17.2729C11.8652 17.4316 11.9507 17.7856 11.7798 18.0664ZM14.1113 17.7246C13.9648 18.0054 13.6108 18.103 13.3423 17.9443C13.0493 17.7856 12.9639 17.4194 13.1348 17.1509L14.0259 15.6128C14.1724 15.332 14.5264 15.2466 14.7949 15.3931C15.0879 15.564 15.1733 15.918 15.0024 16.1865ZM16.2109 19.6167C16.0645 19.873 15.7104 19.9829 15.4419 19.8242C15.1611 19.6655 15.0635 19.3115 15.2344 19.0308L16.1255 17.4927C16.272 17.2241 16.626 17.1143 16.8945 17.2729C17.1875 17.4316 17.2729 17.7856 17.1265 18.0664Z" fill="#5ac8f5"/>
 </g>
</svg>
