<?xml version="1.0" encoding="UTF-8"?>
<!--Generator: Apple Native CoreSVG 175.5-->
<!DOCTYPE svg
PUBLIC "-//W3C//DTD SVG 1.1//EN"
       "http://www.w3.org/Graphics/SVG/1.1/DTD/svg11.dtd">
<svg version="1.1" xmlns="http://www.w3.org/2000/svg" xmlns:xlink="http://www.w3.org/1999/xlink" width="22.4731" height="18.4204">
 <g>
  <rect height="18.4204" opacity="0" width="22.4731" x="0" y="0"/>
  <path d="M0 17.4316C0 17.9688 0.439453 18.4204 0.976562 18.4204C1.52588 18.4204 1.96533 17.9688 1.96533 17.4316L1.96533 1.00098C1.96533 0.463867 1.52588 0.0244141 0.976562 0.0244141C0.439453 0.0244141 0 0.463867 0 1.00098ZM20.5078 17.4316C20.5078 17.9688 20.9595 18.4204 21.4966 18.4204C22.0337 18.4204 22.4731 17.9688 22.4731 17.4316L22.4731 1.00098C22.4731 0.463867 22.0337 0.0244141 21.4966 0.0244141C20.9595 0.0244141 20.5078 0.463867 20.5078 1.00098Z" fill="#5ac8f5" fill-opacity="0.5"/>
  <path d="M8.69141 14.3188C9.15527 14.3188 9.46045 14.0137 9.46045 13.5376L9.46045 4.89502C9.46045 4.38232 9.11865 4.01611 8.60596 4.01611C8.20312 4.01611 7.97119 4.13818 7.53174 4.43115L5.67627 5.70068C5.41992 5.88379 5.27344 6.10352 5.27344 6.4209C5.27344 6.83594 5.61523 7.15332 5.96924 7.15332C6.16455 7.15332 6.27441 7.14111 6.56738 6.92139L7.86133 5.95703L7.93457 5.95703L7.93457 13.5376C7.93457 14.0137 8.23975 14.3188 8.69141 14.3188ZM15.0879 14.3188C15.5518 14.3188 15.8569 14.0137 15.8569 13.5376L15.8569 4.89502C15.8569 4.38232 15.5151 4.01611 15.0024 4.01611C14.5996 4.01611 14.3677 4.13818 13.9282 4.43115L12.085 5.70068C11.8164 5.88379 11.6699 6.10352 11.6699 6.4209C11.6699 6.83594 12.0117 7.15332 12.3657 7.15332C12.561 7.15332 12.6831 7.14111 12.9639 6.92139L14.27 5.95703L14.3311 5.95703L14.3311 13.5376C14.3311 14.0137 14.6362 14.3188 15.0879 14.3188Z" fill="#5ac8f5"/>
 </g>
</svg>
