<?xml version="1.0" encoding="UTF-8"?>
<!--Generator: Apple Native CoreSVG 175.5-->
<!DOCTYPE svg
PUBLIC "-//W3C//DTD SVG 1.1//EN"
       "http://www.w3.org/Graphics/SVG/1.1/DTD/svg11.dtd">
<svg version="1.1" xmlns="http://www.w3.org/2000/svg" xmlns:xlink="http://www.w3.org/1999/xlink" width="27.5269" height="27.5513">
 <g>
  <rect height="27.5513" opacity="0" width="27.5269" x="0" y="0"/>
  <path d="M13.7573 0.0244141C13.269 0.0244141 12.8906 0.415039 12.8906 0.90332L12.8906 5.23682C12.8906 5.7251 13.269 6.11572 13.7573 6.11572C14.2578 6.11572 14.6362 5.7251 14.6362 5.23682L14.6362 0.90332C14.6362 0.415039 14.2578 0.0244141 13.7573 0.0244141ZM20.6543 1.86768C20.2148 1.62354 19.7021 1.77002 19.4458 2.18506L17.2852 5.95703C17.041 6.37207 17.1631 6.89697 17.6025 7.15332C18.0298 7.38525 18.5425 7.25098 18.7988 6.82373L20.9717 3.06396C21.2036 2.63672 21.0815 2.11182 20.6543 1.86768ZM25.6958 6.90918C25.4395 6.46973 24.9146 6.34766 24.4873 6.57959L20.7275 8.75244C20.3003 9.00879 20.1538 9.52148 20.4224 9.96094C20.6543 10.376 21.1792 10.5103 21.5942 10.2783L25.3662 8.10547C25.7812 7.84912 25.9277 7.33643 25.6958 6.90918ZM27.5269 13.7817C27.5269 13.2935 27.1484 12.915 26.6479 12.915L22.3145 12.915C21.8262 12.915 21.4355 13.2935 21.4355 13.7817C21.4355 14.2822 21.8262 14.6606 22.3145 14.6606L26.6479 14.6606C27.1484 14.6606 27.5269 14.2822 27.5269 13.7817ZM25.6836 20.6665C25.9399 20.2393 25.7812 19.7266 25.3662 19.4702L21.5942 17.2974C21.1792 17.0654 20.6543 17.1875 20.4102 17.6147C20.166 18.0542 20.3003 18.5669 20.7275 18.8232L24.4873 20.9961C24.9146 21.228 25.4395 21.106 25.6836 20.6665ZM20.6421 25.708C21.0815 25.4639 21.2036 24.939 20.9717 24.5117L18.7988 20.752C18.5547 20.3247 18.0298 20.1782 17.6025 20.4224C17.1631 20.6787 17.041 21.1914 17.2852 21.6187L19.4458 25.3784C19.7021 25.8057 20.2148 25.9521 20.6421 25.708ZM13.7573 27.5513C14.2578 27.5513 14.6362 27.1606 14.6362 26.6724L14.6362 22.3389C14.6362 21.8506 14.2578 21.46 13.7573 21.46C13.269 21.46 12.8906 21.8506 12.8906 22.3389L12.8906 26.6724C12.8906 27.1606 13.269 27.5513 13.7573 27.5513ZM6.88477 25.708C7.31201 25.9521 7.82471 25.8057 8.08105 25.3784L10.2539 21.6187C10.4858 21.1914 10.3638 20.6787 9.93652 20.4346C9.49707 20.1904 8.98438 20.3247 8.72803 20.752L6.56738 24.5117C6.32324 24.939 6.44531 25.4639 6.88477 25.708ZM1.85547 20.6665C2.0874 21.106 2.6123 21.228 3.03955 20.9961L6.79932 18.8232C7.22656 18.5669 7.37305 18.0542 7.12891 17.627C6.87256 17.1875 6.35986 17.0654 5.93262 17.2974L2.17285 19.4702C1.74561 19.7266 1.59912 20.2393 1.85547 20.6665ZM0 13.7817C0 14.2822 0.390625 14.6606 0.878906 14.6606L5.2124 14.6606C5.71289 14.6606 6.09131 14.2822 6.09131 13.7817C6.09131 13.2935 5.71289 12.915 5.2124 12.915L0.878906 12.915C0.390625 12.915 0 13.2935 0 13.7817ZM1.85547 6.89697C1.59912 7.33643 1.74561 7.84912 2.17285 8.10547L5.93262 10.2783C6.35986 10.5103 6.87256 10.3882 7.12891 9.96094C7.36084 9.52148 7.22656 9.00879 6.79932 8.75244L3.03955 6.57959C2.6123 6.34766 2.0874 6.46973 1.85547 6.89697ZM6.88477 1.85547C6.44531 2.11182 6.32324 2.63672 6.56738 3.06396L8.72803 6.82373C8.98438 7.25098 9.49707 7.39746 9.92432 7.14111C10.3638 6.89697 10.4858 6.37207 10.2539 5.95703L8.08105 2.18506C7.82471 1.77002 7.31201 1.62354 6.88477 1.85547Z" fill="#5ac8f5"/>
 </g>
</svg>
