<?xml version="1.0" encoding="UTF-8"?>
<!--Generator: Apple Native CoreSVG 175.5-->
<!DOCTYPE svg
PUBLIC "-//W3C//DTD SVG 1.1//EN"
       "http://www.w3.org/Graphics/SVG/1.1/DTD/svg11.dtd">
<svg version="1.1" xmlns="http://www.w3.org/2000/svg" xmlns:xlink="http://www.w3.org/1999/xlink" width="24.9023" height="24.9146">
 <g>
  <rect height="24.9146" opacity="0" width="24.9023" x="0" y="0"/>
  <path d="M12.4512 24.9023C19.2627 24.9023 24.9023 19.2505 24.9023 12.4512C24.9023 5.63965 19.2505 0 12.439 0C5.63965 0 0 5.63965 0 12.4512C0 19.2505 5.65186 24.9023 12.4512 24.9023ZM12.4512 22.8271C6.68945 22.8271 2.0874 18.2129 2.0874 12.4512C2.0874 6.68945 6.67725 2.0752 12.439 2.0752C18.2007 2.0752 22.8271 6.68945 22.8271 12.4512C22.8271 18.2129 18.2129 22.8271 12.4512 22.8271ZM7.01904 17.334C8.91113 17.334 10.4492 15.7959 10.4492 13.9038C10.4492 12.0117 8.91113 10.4736 7.01904 10.4736C5.12695 10.4736 3.58887 12.0117 3.58887 13.9038C3.58887 15.7959 5.12695 17.334 7.01904 17.334ZM7.03125 16.333C5.67627 16.333 4.58984 15.2466 4.58984 13.8794C4.58984 12.5366 5.67627 11.4624 7.03125 11.4624C8.37402 11.4624 9.46045 12.5366 9.46045 13.8794C9.46045 15.2466 8.37402 16.333 7.03125 16.333ZM7.03125 14.7217C7.48291 14.7217 7.83691 14.3555 7.83691 13.8916C7.83691 13.4399 7.48291 13.0859 7.03125 13.0859C6.55518 13.0859 6.20117 13.4399 6.20117 13.8916C6.20117 14.3555 6.55518 14.7217 7.03125 14.7217ZM17.8833 17.334C19.7876 17.334 21.3135 15.7959 21.3135 13.9038C21.3135 12.0117 19.7876 10.4736 17.8833 10.4736C15.9912 10.4736 14.4531 12.0117 14.4531 13.9038C14.4531 15.7959 15.9912 17.334 17.8833 17.334ZM17.9077 16.333C16.5405 16.333 15.4541 15.2466 15.4541 13.8794C15.4541 12.5366 16.5405 11.4624 17.9077 11.4624C19.2505 11.4624 20.3369 12.5366 20.3369 13.8794C20.3369 15.2466 19.2505 16.333 17.9077 16.333ZM17.9077 14.7217C18.3594 14.7217 18.7134 14.3555 18.7134 13.8916C18.7134 13.4399 18.3594 13.0859 17.9077 13.0859C17.4316 13.0859 17.0776 13.4399 17.0776 13.8916C17.0776 14.3555 17.4316 14.7217 17.9077 14.7217ZM8.22754 8.47168L10.5225 8.47168C10.791 8.47168 11.0352 8.25195 11.0352 7.99561C11.0352 7.71484 10.8032 7.48291 10.5225 7.48291L8.22754 7.48291C7.94678 7.48291 7.72705 7.71484 7.72705 7.99561C7.72705 8.25195 7.94678 8.47168 8.22754 8.47168ZM6.87256 13.3423L7.66602 13.916L10.3271 10.9741L11.5967 13.269L10.1196 13.269L10.1196 14.209L11.7188 14.209C12.2192 14.209 12.4634 14.0869 12.7319 13.7939L15.8203 10.1807L17.2852 13.8062L18.1763 13.4033L15.4663 6.73828C15.332 6.43311 15.1611 6.32324 14.8071 6.32324L13.3057 6.32324C13.0249 6.32324 12.793 6.54297 12.793 6.82373C12.793 7.08008 13.0127 7.31201 13.3057 7.31201L14.6606 7.31201L15.4175 9.16748L10.7544 9.76562L9.85107 8.12988L8.8623 8.37402L9.77783 10.022ZM11.2671 10.6934L14.6606 10.1196L12.4023 12.7197Z" fill="#5ac8f5"/>
 </g>
</svg>
