<?xml version="1.0" encoding="UTF-8"?>
<!--Generator: Apple Native CoreSVG 175.5-->
<!DOCTYPE svg
PUBLIC "-//W3C//DTD SVG 1.1//EN"
       "http://www.w3.org/Graphics/SVG/1.1/DTD/svg11.dtd">
<svg version="1.1" xmlns="http://www.w3.org/2000/svg" xmlns:xlink="http://www.w3.org/1999/xlink" width="26.6465" height="24.1821">
 <g>
  <rect height="24.1821" opacity="0" width="26.6465" x="0" y="0"/>
  <path d="M2.30641 24.1821L18.8347 24.1821C20.0066 24.1821 20.8001 23.5229 21.093 22.4365L26.513 2.91748C27.0012 1.17188 26.1223 0.0244141 24.3401 0.0244141L7.81178 0.0244141C6.63991 0.0244141 5.85866 0.683594 5.55348 1.75781L0.133559 21.2891C-0.354722 23.0225 0.524184 24.1821 2.30641 24.1821ZM2.08668 21.46L4.47926 12.9028L12.0598 12.9028L9.45973 22.2046L2.68483 22.2046C2.17213 22.2046 1.95241 21.9482 2.08668 21.46ZM5.00416 10.9619L7.29909 2.771C7.43336 2.27051 7.75075 2.00195 8.23903 2.00195L15.0994 2.00195L12.5969 10.9619ZM11.4861 22.2046L14.074 12.9028L21.7278 12.9028L19.3474 21.4355C19.2131 21.9238 18.8958 22.2046 18.4075 22.2046ZM14.5989 10.9619L17.1135 2.00195L23.9617 2.00195C24.4744 2.00195 24.6941 2.2583 24.5598 2.74658L22.2649 10.9619Z" fill="#5ac8f5"/>
 </g>
</svg>
