<?xml version="1.0" encoding="UTF-8"?>
<!--Generator: Apple Native CoreSVG 175.5-->
<!DOCTYPE svg
PUBLIC "-//W3C//DTD SVG 1.1//EN"
       "http://www.w3.org/Graphics/SVG/1.1/DTD/svg11.dtd">
<svg version="1.1" xmlns="http://www.w3.org/2000/svg" xmlns:xlink="http://www.w3.org/1999/xlink" width="26.4404" height="17.1021">
 <g>
  <rect height="17.1021" opacity="0" width="26.4404" x="0" y="0"/>
  <path d="M0 13.5742C0 15.8813 1.26953 17.1021 3.56445 17.1021L22.8638 17.1021C25.1709 17.1021 26.4404 15.8813 26.4404 13.5742L26.4404 3.50342C26.4404 1.2085 25.1709 0 22.8638 0L3.56445 0C1.26953 0 0 1.2085 0 3.50342ZM1.96533 13.6719L1.96533 3.40576C1.96533 2.39258 2.53906 1.81885 3.55225 1.81885L22.8882 1.81885C23.9014 1.81885 24.4751 2.39258 24.4751 3.40576L24.4751 13.6719C24.4751 14.6851 23.9014 15.2588 22.8882 15.2588L3.55225 15.2588C2.53906 15.2588 1.96533 14.6851 1.96533 13.6719ZM7.26318 10.2905C8.22754 10.2905 9.00879 9.50928 9.00879 8.54492C9.00879 7.58057 8.22754 6.79932 7.26318 6.79932C6.29883 6.79932 5.50537 7.58057 5.50537 8.54492C5.50537 9.50928 6.29883 10.2905 7.26318 10.2905ZM13.2324 10.2905C14.1968 10.2905 14.978 9.50928 14.978 8.54492C14.978 7.58057 14.1968 6.79932 13.2324 6.79932C12.2681 6.79932 11.4868 7.58057 11.4868 8.54492C11.4868 9.50928 12.2681 10.2905 13.2324 10.2905ZM19.2017 10.2905C20.166 10.2905 20.9473 9.50928 20.9473 8.54492C20.9473 7.58057 20.166 6.79932 19.2017 6.79932C18.2373 6.79932 17.4561 7.58057 17.4561 8.54492C17.4561 9.50928 18.2373 10.2905 19.2017 10.2905Z" fill="#5ac8f5"/>
 </g>
</svg>
