<?xml version="1.0" encoding="UTF-8"?>
<!--Generator: Apple Native CoreSVG 175.5-->
<!DOCTYPE svg
PUBLIC "-//W3C//DTD SVG 1.1//EN"
       "http://www.w3.org/Graphics/SVG/1.1/DTD/svg11.dtd">
<svg version="1.1" xmlns="http://www.w3.org/2000/svg" xmlns:xlink="http://www.w3.org/1999/xlink" width="40.9918" height="20.3979">
 <g>
  <rect height="20.3979" opacity="0" width="40.9918" x="0" y="0"/>
  <path d="M6.10413 20.3491C9.91272 20.3491 12.1344 18.0908 12.1344 14.6606C12.1344 11.853 11.0602 10.498 7.84974 8.8623L6.65345 8.26416C4.76136 7.2876 4.11438 6.51855 4.11438 5.13916C4.11438 3.94287 4.90784 3.14941 6.10413 3.14941C7.39808 3.14941 8.09388 4.00391 8.26477 5.51758C8.28919 5.78613 8.43567 5.92041 8.67981 5.92041L11.4264 5.92041C11.6705 5.92041 11.8414 5.76172 11.8292 5.48096C11.6583 2.12402 9.85169 0 6.10413 0C2.42981 0 0.281376 2.2583 0.281376 5.57861C0.281376 8.37402 1.42884 9.92432 4.39515 11.4868L5.59143 12.1216C7.55677 13.1592 8.3014 13.8062 8.3014 15.1123C8.3014 16.4551 7.56897 17.1997 6.17737 17.1997C4.73694 17.1997 3.89466 16.3086 3.72376 14.8071C3.69934 14.5386 3.58948 14.3921 3.33313 14.3921L0.403447 14.3921C0.159306 14.3921-0.0115925 14.5508 0.000614483 14.8315C0.208134 18.3716 2.13684 20.3491 6.10413 20.3491ZM20.5084 20.3491C25.025 20.3491 27.4298 16.9189 27.4298 10.2051C27.4298 3.52783 25.025 0.0366211 20.5084 0.0366211C15.943 0.0366211 13.5748 3.52783 13.5748 10.2051C13.5748 16.9189 15.943 20.3491 20.5084 20.3491ZM20.5084 17.0288C18.5065 17.0288 17.5177 14.917 17.5177 10.2051C17.5177 5.51758 18.5065 3.35693 20.5084 3.35693C22.4493 3.35693 23.4503 5.51758 23.4503 10.2051C23.4503 14.917 22.4493 17.0288 20.5084 17.0288ZM34.9616 20.3491C38.7701 20.3491 40.9918 18.0908 40.9918 14.6606C40.9918 11.853 39.9176 10.4858 36.7072 8.8623L35.5109 8.26416C33.6066 7.2876 32.9718 6.51855 32.9718 5.13916C32.9718 3.94287 33.7653 3.14941 34.9616 3.14941C36.2555 3.14941 36.9391 4.00391 37.11 5.51758C37.1466 5.78613 37.2931 5.92041 37.5372 5.92041L40.2838 5.92041C40.528 5.92041 40.6989 5.76172 40.6866 5.48096C40.4913 2.12402 38.7091 0 34.9616 0C31.2872 0 29.1388 2.2583 29.1388 5.57861C29.1388 8.37402 30.2863 9.91211 33.2526 11.4868L34.4489 12.1216C36.4142 13.1714 37.1588 13.8062 37.1588 15.1123C37.1588 16.4551 36.4264 17.1997 35.0226 17.1997C33.5944 17.1997 32.7521 16.3086 32.5812 14.8071C32.5446 14.5386 32.4469 14.3921 32.1906 14.3921L29.2609 14.3921C29.0167 14.3921 28.8458 14.5508 28.858 14.8315C29.0656 18.3716 30.9943 20.3491 34.9616 20.3491Z" fill="#5ac8f5"/>
 </g>
</svg>
