<?xml version="1.0" encoding="UTF-8"?>
<!--Generator: Apple Native CoreSVG 175.5-->
<!DOCTYPE svg
PUBLIC "-//W3C//DTD SVG 1.1//EN"
       "http://www.w3.org/Graphics/SVG/1.1/DTD/svg11.dtd">
<svg version="1.1" xmlns="http://www.w3.org/2000/svg" xmlns:xlink="http://www.w3.org/1999/xlink" width="22.5098" height="22.4243">
 <g>
  <rect height="22.4243" opacity="0" width="22.5098" x="0" y="0"/>
  <path d="M21.0815 1.46484C19.8364 0.219727 18.0786 0.0244141 15.9912 0.0244141L6.48193 0.0244141C4.43115 0.0244141 2.67334 0.219727 1.42822 1.46484C0.183105 2.70996 0 4.45557 0 6.49414L0 15.918C0 18.0054 0.183105 19.7388 1.42822 20.9839C2.67334 22.229 4.43115 22.4243 6.50635 22.4243L15.9912 22.4243C18.0786 22.4243 19.8364 22.229 21.0815 20.9839C22.3267 19.7388 22.5098 18.0054 22.5098 15.918L22.5098 6.53076C22.5098 4.44336 22.3267 2.69775 21.0815 1.46484ZM20.5444 6.18896L20.5444 16.2476C20.5444 17.5171 20.3857 18.811 19.6411 19.5557C18.9087 20.2881 17.5903 20.459 16.333 20.459L6.17676 20.459C4.91943 20.459 3.60107 20.2881 2.85645 19.5557C2.12402 18.811 1.96533 17.5171 1.96533 16.2476L1.96533 6.22559C1.96533 4.94385 2.12402 3.62549 2.85645 2.89307C3.60107 2.14844 4.93164 1.98975 6.21338 1.98975L16.333 1.98975C17.5903 1.98975 18.9087 2.16064 19.6411 2.89307C20.3857 3.6377 20.5444 4.93164 20.5444 6.18896ZM11.2549 17.7612C14.8315 17.7612 17.7979 14.7827 17.7979 11.2183C17.7979 7.66602 14.8071 4.67529 11.2549 4.67529C7.69043 4.67529 4.72412 7.65381 4.72412 11.2183C4.72412 14.7705 7.71484 17.7612 11.2549 17.7612ZM11.2549 15.979C8.6792 15.979 6.50635 13.8062 6.50635 11.2183C6.50635 8.61816 8.66699 6.45752 11.2549 6.45752C13.8428 6.45752 16.0156 8.63037 16.0156 11.2183C16.0156 13.8184 13.855 15.979 11.2549 15.979ZM14.6484 15.918L15.9546 14.6118L7.86133 6.51855L6.56738 7.82471Z" fill="#5ac8f5"/>
 </g>
</svg>
