<?xml version="1.0" encoding="UTF-8"?>
<!--Generator: Apple Native CoreSVG 175.5-->
<!DOCTYPE svg
PUBLIC "-//W3C//DTD SVG 1.1//EN"
       "http://www.w3.org/Graphics/SVG/1.1/DTD/svg11.dtd">
<svg version="1.1" xmlns="http://www.w3.org/2000/svg" xmlns:xlink="http://www.w3.org/1999/xlink" width="25.1709" height="31.5552">
 <g>
  <rect height="31.5552" opacity="0" width="25.1709" x="0" y="0"/>
  <path d="M12.5854 22.5464C20.2026 22.5464 25.1709 19.1772 25.1709 14.3066C25.1709 9.44824 20.1904 6.0791 12.5732 6.0791C4.96826 6.0791 0 9.44824 0 14.3066C0 19.1772 4.96826 22.5464 12.5854 22.5464ZM12.5854 20.4468C6.37207 20.4468 2.20947 17.9565 2.20947 14.3066C2.20947 10.6567 6.37207 8.17871 12.5732 8.17871C18.7866 8.17871 22.9614 10.6567 22.9614 14.3066C22.9614 17.9565 18.7988 20.4468 12.5854 20.4468ZM12.5854 27.7222C15.5518 27.7222 17.3096 26.3306 17.3096 23.9868L17.3096 23.4985C15.8569 23.8037 14.2822 23.9624 12.5854 23.9624C10.8887 23.9624 9.31396 23.8037 7.87354 23.4985L7.87354 23.9868C7.87354 26.3306 9.63135 27.7222 12.5854 27.7222Z" fill="#5ac8f5" fill-opacity="0.5"/>
  <path d="M10.8765 18.1274L14.6362 18.1274C15.1123 18.1274 15.4419 17.7979 15.4419 17.3462C15.4419 16.8701 15.1123 16.5527 14.6362 16.5527L11.7798 16.5527L11.7798 11.0474C11.7798 10.437 11.4258 10.0708 10.8765 10.0708C10.3394 10.0708 9.97314 10.4492 9.97314 11.0474L9.97314 17.1509C9.97314 17.7368 10.3271 18.1274 10.8765 18.1274Z" fill="#5ac8f5"/>
  <path d="M9.50928 1.48926L11.9385 4.76074C12.2681 5.2124 12.8906 5.2124 13.2202 4.76074L15.6738 1.48926C16.1621 0.842285 15.9058 0 15.0269 0L10.1318 0C9.30176 0 8.99658 0.817871 9.50928 1.48926Z" fill="#5ac8f5"/>
 </g>
</svg>
