<?xml version="1.0" encoding="UTF-8"?>
<!--Generator: Apple Native CoreSVG 175.5-->
<!DOCTYPE svg
PUBLIC "-//W3C//DTD SVG 1.1//EN"
       "http://www.w3.org/Graphics/SVG/1.1/DTD/svg11.dtd">
<svg version="1.1" xmlns="http://www.w3.org/2000/svg" xmlns:xlink="http://www.w3.org/1999/xlink" width="22.4731" height="22.4976">
 <g>
  <rect height="22.4976" opacity="0" width="22.4731" x="0" y="0"/>
  <path d="M3.83301 22.4976L18.6401 22.4976C21.2036 22.4976 22.4731 21.228 22.4731 18.7134L22.4731 3.80859C22.4731 1.29395 21.2036 0.0244141 18.6401 0.0244141L3.83301 0.0244141C1.28174 0.0244141 0 1.28174 0 3.80859L0 18.7134C0 21.2402 1.28174 22.4976 3.83301 22.4976ZM3.85742 20.5322C2.63672 20.5322 1.96533 19.8853 1.96533 18.6157L1.96533 3.90625C1.96533 2.63672 2.63672 1.98975 3.85742 1.98975L18.6157 1.98975C19.8242 1.98975 20.5078 2.63672 20.5078 3.90625L20.5078 18.6157C20.5078 19.8853 19.8242 20.5322 18.6157 20.5322ZM8.69141 16.3574C9.15527 16.3574 9.46045 16.0522 9.46045 15.5762L9.46045 6.93359C9.46045 6.4209 9.11865 6.05469 8.60596 6.05469C8.20312 6.05469 7.97119 6.17676 7.53174 6.46973L5.67627 7.73926C5.41992 7.92236 5.27344 8.14209 5.27344 8.45947C5.27344 8.87451 5.61523 9.19189 5.96924 9.19189C6.16455 9.19189 6.27441 9.17969 6.56738 8.95996L7.86133 7.99561L7.93457 7.99561L7.93457 15.5762C7.93457 16.0522 8.23975 16.3574 8.69141 16.3574ZM15.0879 16.3574C15.5518 16.3574 15.8569 16.0522 15.8569 15.5762L15.8569 6.93359C15.8569 6.4209 15.5151 6.05469 15.0024 6.05469C14.5996 6.05469 14.3677 6.17676 13.9282 6.46973L12.085 7.73926C11.8164 7.92236 11.6699 8.14209 11.6699 8.45947C11.6699 8.87451 12.0117 9.19189 12.3657 9.19189C12.561 9.19189 12.6831 9.17969 12.9639 8.95996L14.27 7.99561L14.3311 7.99561L14.3311 15.5762C14.3311 16.0522 14.6362 16.3574 15.0879 16.3574Z" fill="#5ac8f5"/>
 </g>
</svg>
