<?xml version="1.0" encoding="UTF-8"?>
<!--Generator: Apple Native CoreSVG 175.5-->
<!DOCTYPE svg
PUBLIC "-//W3C//DTD SVG 1.1//EN"
       "http://www.w3.org/Graphics/SVG/1.1/DTD/svg11.dtd">
<svg version="1.1" xmlns="http://www.w3.org/2000/svg" xmlns:xlink="http://www.w3.org/1999/xlink" width="24.8657" height="27.2583">
 <g>
  <rect height="27.2583" opacity="0" width="24.8657" x="0" y="0"/>
  <path d="M0 17.981C0 21.9238 2.57568 25.2441 5.68848 25.2441L9.58252 25.2441C11.1328 26.062 13.0127 26.5381 15.1123 26.5381L16.748 26.5381C18.2129 26.5381 19.4824 26.4526 20.3247 26.2451C21.9604 25.8423 22.9858 24.707 22.9858 23.2666C22.9858 22.9614 22.937 22.6929 22.8638 22.4243C23.6694 21.814 24.1211 20.9229 24.1211 19.9463C24.1211 19.4702 24.0234 18.9941 23.8525 18.6157C24.4019 18.0542 24.707 17.2363 24.707 16.3818C24.707 15.8325 24.5728 15.2466 24.3408 14.8193C24.6704 14.3433 24.8657 13.6719 24.8657 12.9639C24.8657 11.2061 23.4863 9.81445 21.7285 9.81445L17.2729 9.81445C17.0044 9.81445 16.8335 9.69238 16.8335 9.46045C16.8335 8.19092 18.8354 5.2124 18.8354 2.81982C18.8354 1.17188 17.688 0 16.1133 0C14.9536 0 14.1724 0.598145 13.4033 2.06299C11.9751 4.80957 10.2661 7.27539 7.48291 10.6689L5.24902 10.6689C2.34375 10.6689 0 13.9526 0 17.981ZM6.87256 17.9199C6.87256 15.3687 7.44629 13.7451 9.0332 11.6089C10.8032 9.24072 13.2568 6.40869 15.0269 2.89307C15.4663 2.00195 15.7593 1.80664 16.1865 1.80664C16.687 1.80664 17.0288 2.16064 17.0288 2.81982C17.0288 4.72412 15.0269 7.60498 15.0269 9.46045C15.0269 10.8032 16.1255 11.6211 17.5293 11.6211L21.7285 11.6211C22.4854 11.6211 23.0591 12.1948 23.0591 12.9639C23.0591 13.5254 22.876 13.8794 22.4243 14.3433C22.2046 14.5386 22.1802 14.7827 22.3633 15.0146C22.7417 15.5762 22.9004 15.918 22.9004 16.3818C22.9004 16.9312 22.644 17.4072 22.1069 17.8101C21.814 18.042 21.6919 18.3472 21.8628 18.7134C22.168 19.2627 22.3145 19.519 22.3145 19.9463C22.3145 20.5688 21.9116 21.0449 21.0571 21.4844C20.7886 21.6431 20.7275 21.8628 20.8374 22.1191C21.1304 22.8516 21.167 22.9614 21.167 23.2666C21.167 23.8281 20.752 24.2798 19.8975 24.4995C19.2017 24.6704 18.0908 24.7437 16.7603 24.7437L15.2466 24.7437C10.2173 24.7437 6.87256 21.8872 6.87256 17.9199ZM1.80664 17.981C1.80664 14.9414 3.44238 12.4756 5.24902 12.4756C5.60303 12.4756 5.95703 12.4756 6.31104 12.4756C5.44434 14.1113 5.06592 15.8203 5.06592 17.8833C5.06592 20.0684 5.84717 21.9727 7.25098 23.4253C6.72607 23.4253 6.21338 23.4253 5.68848 23.4253C3.62549 23.4253 1.80664 20.9351 1.80664 17.981Z" fill="#5ac8f5"/>
 </g>
</svg>
