<?xml version="1.0" encoding="UTF-8"?>
<!--Generator: Apple Native CoreSVG 175.5-->
<!DOCTYPE svg
PUBLIC "-//W3C//DTD SVG 1.1//EN"
       "http://www.w3.org/Graphics/SVG/1.1/DTD/svg11.dtd">
<svg version="1.1" xmlns="http://www.w3.org/2000/svg" xmlns:xlink="http://www.w3.org/1999/xlink" width="33.0933" height="22.8516">
 <g>
  <rect height="22.8516" opacity="0" width="33.0933" x="0" y="0"/>
  <path d="M16.5527 21.8079C18.811 21.8079 20.9106 21.3928 22.7539 20.7092L19.5557 17.511C18.6523 17.9749 17.627 18.2312 16.5527 18.2312C12.7441 18.2312 9.729 15.1428 9.7168 11.4319C9.7168 10.3333 9.97314 9.29565 10.4248 8.38013L6.25 4.18091C2.40479 6.58569 0 9.96704 0 11.4319C0 13.8977 6.89697 21.8079 16.5527 21.8079ZM27.1973 18.4753C30.7617 16.1194 33.0933 12.8845 33.0933 11.4319C33.0933 8.95386 26.3184 1.05591 16.5527 1.05591C14.4775 1.05591 12.5244 1.40991 10.7544 1.99585L13.9282 5.16968C14.7339 4.82788 15.6128 4.63257 16.5527 4.63257C20.3247 4.63257 23.3765 7.62329 23.3765 11.4319C23.3765 12.3596 23.1689 13.2507 22.8027 14.032ZM12.6587 11.1511C12.6587 13.2996 14.4287 15.033 16.5649 15.033C16.7358 15.033 16.8945 15.0208 17.0654 15.0085L12.6831 10.6262C12.6709 10.7971 12.6587 10.9802 12.6587 11.1511ZM20.4346 11.1755C20.4346 9.03931 18.7134 7.30591 16.5527 7.30591C16.394 7.30591 16.2354 7.31812 16.0889 7.33032L20.4102 11.6516C20.4224 11.5051 20.4346 11.3342 20.4346 11.1755ZM26.0498 22.0032C26.416 22.3816 27.002 22.406 27.3804 22.0032C27.7832 21.6003 27.7466 21.051 27.3804 20.6726L6.97021 0.274658C6.604-0.0915527 6.00586-0.0915527 5.62744 0.274658C5.27344 0.628662 5.27344 1.25122 5.62744 1.60522Z" fill="#5ac8f5"/>
 </g>
</svg>
