<?xml version="1.0" encoding="UTF-8"?>
<!--Generator: Apple Native CoreSVG 175.5-->
<!DOCTYPE svg
PUBLIC "-//W3C//DTD SVG 1.1//EN"
       "http://www.w3.org/Graphics/SVG/1.1/DTD/svg11.dtd">
<svg version="1.1" xmlns="http://www.w3.org/2000/svg" xmlns:xlink="http://www.w3.org/1999/xlink" width="26.3184" height="24.939">
 <g>
  <rect height="24.939" opacity="0" width="26.3184" x="0" y="0"/>
  <path d="M5.26123 4.63867L23.999 4.63867C25.2808 4.63867 26.3184 3.60107 26.3184 2.31934C26.3184 1.0376 25.2808 0 23.999 0L5.26123 0C5.76172 0.634766 6.06689 1.44043 6.06689 2.31934C6.06689 3.19824 5.76172 4.00391 5.26123 4.63867ZM2.31934 4.63867C3.60107 4.63867 4.63867 3.60107 4.63867 2.31934C4.63867 1.0376 3.60107 0 2.31934 0C1.0376 0 0 1.0376 0 2.31934C0 3.60107 1.0376 4.63867 2.31934 4.63867ZM2.31934 7.48291C2.7832 7.48291 3.16162 7.10449 3.16162 6.65283C3.16162 6.20117 2.7832 5.82275 2.31934 5.82275C1.86768 5.82275 1.48926 6.20117 1.48926 6.65283C1.48926 7.10449 1.86768 7.48291 2.31934 7.48291ZM2.31934 10.3394C2.7832 10.3394 3.16162 9.96094 3.16162 9.50928C3.16162 9.04541 2.7832 8.6792 2.31934 8.6792C1.86768 8.6792 1.48926 9.04541 1.48926 9.50928C1.48926 9.96094 1.86768 10.3394 2.31934 10.3394ZM2.31934 13.1958C2.7832 13.1958 3.16162 12.8052 3.16162 12.3657C3.16162 11.9019 2.7832 11.5234 2.31934 11.5234C1.86768 11.5234 1.48926 11.9019 1.48926 12.3657C1.48926 12.8052 1.86768 13.1958 2.31934 13.1958ZM2.31934 16.0522C2.7832 16.0522 3.16162 15.6616 3.16162 15.2222C3.16162 14.7583 2.7832 14.3799 2.31934 14.3799C1.86768 14.3799 1.48926 14.7583 1.48926 15.2222C1.48926 15.6616 1.86768 16.0522 2.31934 16.0522ZM2.31934 18.9087C2.7832 18.9087 3.16162 18.5181 3.16162 18.0664C3.16162 17.6147 2.7832 17.2363 2.31934 17.2363C1.86768 17.2363 1.48926 17.6147 1.48926 18.0664C1.48926 18.5181 1.86768 18.9087 2.31934 18.9087ZM2.31934 24.9268C2.85645 24.9268 3.30811 24.4873 3.30811 23.9502L3.30811 21.0693C3.30811 20.5322 2.85645 20.0928 2.31934 20.0928C1.78223 20.0928 1.34277 20.5322 1.34277 21.0693L1.34277 23.9502C1.34277 24.4873 1.79443 24.9268 2.31934 24.9268Z" fill="#5ac8f5"/>
 </g>
</svg>
