<?xml version="1.0" encoding="UTF-8"?>
<!--Generator: Apple Native CoreSVG 175.5-->
<!DOCTYPE svg
PUBLIC "-//W3C//DTD SVG 1.1//EN"
       "http://www.w3.org/Graphics/SVG/1.1/DTD/svg11.dtd">
<svg version="1.1" xmlns="http://www.w3.org/2000/svg" xmlns:xlink="http://www.w3.org/1999/xlink" width="31.1646" height="24.1821">
 <g>
  <rect height="24.1821" opacity="0" width="31.1646" x="0" y="0"/>
  <path d="M0 18.2251C0 21.6309 3.05176 24.1821 6.78711 24.1821C10.5103 24.1821 13.5498 21.6309 13.5498 18.2251L13.5498 15.1001C14.1479 14.8682 14.8682 14.7339 15.5884 14.7339C16.3818 14.7339 17.0654 14.8193 17.6147 15.0146L17.6147 18.2251C17.6147 21.6309 20.6543 24.1821 24.3774 24.1821C28.1006 24.1821 31.1646 21.6309 31.1646 18.2251C31.1646 17.334 31.0303 16.5039 30.5298 15.3442L25.4639 3.52783C24.7681 1.94092 23.3154 1.01318 21.4844 1.01318C19.1406 1.01318 17.6147 2.50244 17.6147 4.73633L17.6147 5.92041C17.0044 5.76172 16.333 5.67627 15.5884 5.67627C14.8804 5.67627 14.1968 5.78613 13.5498 5.99365L13.5498 4.73633C13.5498 2.50244 12.0239 1.01318 9.68018 1.01318C7.84912 1.01318 6.38428 1.94092 5.70068 3.52783L0.622559 15.3442C0.12207 16.5039 0 17.334 0 18.2251ZM1.9165 18.2251C1.9165 15.7715 4.02832 14.0991 6.78711 14.0991C9.53369 14.0991 11.7188 15.7715 11.7188 18.2251C11.7188 20.6787 9.53369 22.3511 6.78711 22.3511C4.02832 22.3511 1.9165 20.6787 1.9165 18.2251ZM19.4458 18.2251C19.4458 15.7715 21.6187 14.0991 24.3774 14.0991C27.124 14.0991 29.2358 15.7715 29.2358 18.2251C29.2358 20.6787 27.124 22.3511 24.3774 22.3511C21.6187 22.3511 19.4458 20.6787 19.4458 18.2251ZM13.5498 11.377L13.5498 9.7168C14.1968 9.50928 14.8804 9.41162 15.5884 9.41162C16.333 9.41162 17.0044 9.48486 17.6147 9.64355L17.6147 11.2793C17.0654 11.0962 16.394 11.0107 15.5884 11.0107C14.8682 11.0107 14.1479 11.145 13.5498 11.377Z" fill="#5ac8f5"/>
 </g>
</svg>
