<?xml version="1.0" encoding="UTF-8"?>
<!--Generator: Apple Native CoreSVG 175.5-->
<!DOCTYPE svg
PUBLIC "-//W3C//DTD SVG 1.1//EN"
       "http://www.w3.org/Graphics/SVG/1.1/DTD/svg11.dtd">
<svg version="1.1" xmlns="http://www.w3.org/2000/svg" xmlns:xlink="http://www.w3.org/1999/xlink" width="14.7827" height="20.3979">
 <g>
  <rect height="20.3979" opacity="0" width="14.7827" x="0" y="0"/>
  <path d="M0 7.14111C0 7.73926 0.488281 8.22754 1.08643 8.22754L6.29883 8.22754L6.29883 13.2568C6.29883 13.8428 6.78711 14.3188 7.38525 14.3188C7.9834 14.3188 8.48389 13.8428 8.48389 13.2568L8.48389 8.22754L13.6963 8.22754C14.2944 8.22754 14.7827 7.73926 14.7827 7.14111C14.7827 6.54297 14.2944 6.04248 13.6963 6.04248L8.48389 6.04248L8.48389 1.07422C8.48389 0.476074 7.9834 0 7.38525 0C6.78711 0 6.29883 0.476074 6.29883 1.07422L6.29883 6.04248L1.08643 6.04248C0.488281 6.04248 0 6.54297 0 7.14111ZM0 19.2993C0 19.9097 0.500488 20.3979 1.08643 20.3979L13.6963 20.3979C14.2822 20.3979 14.7827 19.9097 14.7827 19.2993C14.7827 18.7012 14.2822 18.2129 13.6963 18.2129L1.08643 18.2129C0.500488 18.2129 0 18.7012 0 19.2993Z" fill="#5ac8f5"/>
 </g>
</svg>
