<?xml version="1.0" encoding="UTF-8"?>
<!--Generator: Apple Native CoreSVG 175.5-->
<!DOCTYPE svg
PUBLIC "-//W3C//DTD SVG 1.1//EN"
       "http://www.w3.org/Graphics/SVG/1.1/DTD/svg11.dtd">
<svg version="1.1" xmlns="http://www.w3.org/2000/svg" xmlns:xlink="http://www.w3.org/1999/xlink" width="29.5166" height="22.4976">
 <g>
  <rect height="22.4976" opacity="0" width="29.5166" x="0" y="0"/>
  <path d="M10.498 0.0244141C3.22266 0.0244141 0 3.35693 0 10.1929L0 18.7134C0 21.2402 1.28174 22.4976 3.83301 22.4976L25.6836 22.4976C28.2349 22.4976 29.5166 21.228 29.5166 18.7134L29.5166 10.1929C29.5166 3.35693 26.2939 0.0244141 19.0308 0.0244141ZM7.9834 16.9312C7.34863 16.9312 7.00684 16.4551 7.00684 15.7837L7.00684 6.44531C7.00684 5.76172 7.34863 5.29785 7.9834 5.29785C8.65479 5.29785 9.00879 5.7373 9.00879 6.44531L9.00879 15.271L13.5376 15.271C14.0259 15.271 14.3921 15.5762 14.3921 16.0889C14.3921 16.6138 14.0381 16.9312 13.5376 16.9312ZM16.5161 16.9312C15.9668 16.9312 15.625 16.6016 15.625 16.0889C15.625 15.8203 15.7349 15.5884 15.9546 15.3442L19.9707 11.1084C20.7153 10.3271 21.4844 9.55811 21.4844 8.64258C21.4844 7.60498 20.6909 6.90918 19.5068 6.90918C18.2739 6.90918 17.6392 7.71484 17.2852 8.47168C17.0654 8.82568 16.8335 9.10645 16.3818 9.10645C15.9058 9.10645 15.5762 8.78906 15.5762 8.30078C15.5762 8.14209 15.5884 7.9834 15.6372 7.80029C16.04 6.38428 17.627 5.29785 19.4092 5.29785C21.7407 5.29785 23.2788 6.57959 23.2788 8.49609C23.2788 9.8877 22.5098 10.9009 21.3867 12.085L18.4082 15.1855L18.4082 15.271L22.8638 15.271C23.3398 15.271 23.7061 15.5762 23.7061 16.0889C23.7061 16.6016 23.3398 16.9312 22.8638 16.9312Z" fill="#5ac8f5"/>
 </g>
</svg>
