<?xml version="1.0" encoding="UTF-8"?>
<!--Generator: Apple Native CoreSVG 175.5-->
<!DOCTYPE svg
PUBLIC "-//W3C//DTD SVG 1.1//EN"
       "http://www.w3.org/Graphics/SVG/1.1/DTD/svg11.dtd">
<svg version="1.1" xmlns="http://www.w3.org/2000/svg" xmlns:xlink="http://www.w3.org/1999/xlink" width="24.9023" height="24.9146">
 <g>
  <rect height="24.9146" opacity="0" width="24.9023" x="0" y="0"/>
  <path d="M12.4512 24.9146C19.2627 24.9146 24.9023 19.2749 24.9023 12.4634C24.9023 5.66406 19.2505 0.012207 12.439 0.012207C5.63965 0.012207 0 5.66406 0 12.4634C0 19.2749 5.65186 24.9146 12.4512 24.9146Z" fill="#5ac8f5" fill-opacity="0.25"/>
  <path d="M7.2998 15.7104L7.2998 11.3037C7.2998 9.69238 7.51953 8.09326 7.76367 7.06787C8.02002 6.04248 8.72803 5.27344 9.80225 5.15137C10.1807 5.10254 11.2061 5.01709 12.4512 5.01709C13.6963 5.01709 14.7217 5.10254 15.1001 5.15137C16.1743 5.27344 16.8823 6.04248 17.1387 7.06787C17.3828 8.09326 17.6025 9.69238 17.6025 11.3037L17.6025 15.7104C17.6025 16.8823 16.9678 17.4927 15.625 17.4927L16.9434 19.6411C17.1143 19.8975 16.98 20.1904 16.6992 20.1904L16.3574 20.1904C16.1743 20.1904 16.0767 20.1294 15.9912 19.9829L15.625 19.4092L9.30176 19.4092L8.93555 19.9829C8.8501 20.1294 8.75244 20.1904 8.56934 20.1904L8.23975 20.1904C7.94678 20.1904 7.80029 19.8975 7.97119 19.6411L9.31396 17.4927C8.02002 17.4805 7.2998 16.9556 7.2998 15.7104ZM8.55713 12.6709C8.55713 13.0249 8.70361 13.2568 9.06982 13.2935C9.729 13.3667 11.0229 13.4399 12.4512 13.4521C13.5498 13.4521 14.8438 13.4033 15.8325 13.2935C16.1987 13.2568 16.3452 13.0249 16.3452 12.6709L16.3452 11.2549C16.3452 10.022 16.1987 9.0332 16.1133 8.59375C16.0522 8.31299 15.8813 8.12988 15.6006 8.09326C14.9292 8.02002 14.0747 7.94678 12.4512 7.95898C10.8276 7.95898 9.97314 8.02002 9.27734 8.09326C9.021 8.12988 8.8501 8.31299 8.78906 8.59375C8.70361 9.0332 8.55713 10.022 8.55713 11.2549ZM8.77686 15.3687C8.77686 15.8569 9.13086 16.2109 9.60693 16.2109C10.083 16.2109 10.4492 15.8569 10.4492 15.3687C10.4492 14.8804 10.0952 14.5264 9.60693 14.5264C9.13086 14.5264 8.77686 14.8804 8.77686 15.3687ZM14.4409 15.3687C14.4409 15.8447 14.8071 16.2231 15.2832 16.2231C15.7471 16.2231 16.1377 15.8447 16.1377 15.3687C16.1377 14.8804 15.7593 14.5142 15.2832 14.5142C14.8071 14.5142 14.4409 14.8804 14.4409 15.3687ZM10.5103 6.55518C10.5103 6.7627 10.6689 6.93359 10.8887 6.93359L14.0137 6.93359C14.2334 6.93359 14.4043 6.7627 14.4043 6.55518C14.4043 6.32324 14.2334 6.18896 14.0137 6.18896L10.8887 6.18896C10.6689 6.18896 10.5103 6.32324 10.5103 6.55518ZM9.86328 18.4814L15.0635 18.4814L14.4531 17.4927L10.4736 17.4927Z" fill="#5ac8f5"/>
 </g>
</svg>
