<?xml version="1.0" encoding="UTF-8"?>
<!--Generator: Apple Native CoreSVG 175.5-->
<!DOCTYPE svg
PUBLIC "-//W3C//DTD SVG 1.1//EN"
       "http://www.w3.org/Graphics/SVG/1.1/DTD/svg11.dtd">
<svg version="1.1" xmlns="http://www.w3.org/2000/svg" xmlns:xlink="http://www.w3.org/1999/xlink" width="46.1548" height="27.0874">
 <g>
  <rect height="27.0874" opacity="0" width="46.1548" x="0" y="0"/>
  <path d="M37.5977 4.43115L39.0259 5.56641L42.3706 2.14844C42.6514 1.86768 42.9932 1.75781 43.3838 1.75781L45.2393 1.75781C45.8008 1.75781 46.1548 1.3916 46.1548 0.866699C46.1548 0.341797 45.8008 0 45.2393 0L43.5913 0C42.5537 0 41.6504 0.292969 40.9546 1.00098ZM9.70459 23.0225C11.5356 23.0225 12.9761 21.582 12.9761 19.7632C12.9761 17.9443 11.5234 16.4917 9.70459 16.4917C7.89795 16.4917 6.44531 17.9443 6.44531 19.7632C6.44531 21.5698 7.89795 23.0225 9.70459 23.0225ZM34.2407 23.0225C36.0596 23.0225 37.5122 21.5698 37.5122 19.7632C37.5122 17.9443 36.0596 16.4917 34.2407 16.4917C32.4463 16.4917 30.9814 17.9565 30.9814 19.7632C30.9814 21.5698 32.4341 23.0225 34.2407 23.0225ZM41.7725 7.27539L41.2231 6.46973C39.8193 4.43115 38.0981 3.61328 35.2661 3.61328L25.7324 3.61328C20.7031 3.61328 18.689 4.10156 15.6982 5.96924L10.7788 9.05762L6.22559 9.61914C2.06299 10.1318 0 12.0361 0 15.3809L0 17.4805C0 19.4702 1.17188 20.6665 3.11279 20.6665L5.10254 20.6665C5.05371 20.3735 5.01709 20.0806 5.01709 19.7632C5.01709 17.1631 7.1167 15.0757 9.70459 15.0757C12.3047 15.0757 14.3921 17.1631 14.3921 19.7632C14.3921 20.0806 14.3677 20.3735 14.3066 20.6665L29.6387 20.6665C29.5898 20.3735 29.5532 20.0806 29.5532 19.7632C29.5532 17.1753 31.665 15.0757 34.2407 15.0757C36.8408 15.0757 38.9282 17.1631 38.9282 19.7632C38.9282 20.0806 38.9038 20.3735 38.8428 20.6665L40.1978 20.6665C42.334 20.6665 43.2983 19.5679 43.2983 17.1509L43.2983 11.9385C43.2983 10.4126 42.7368 8.66699 41.7725 7.27539Z" fill="#5ac8f5"/>
 </g>
</svg>
