<?xml version="1.0" encoding="UTF-8"?>
<!--Generator: Apple Native CoreSVG 175.5-->
<!DOCTYPE svg
PUBLIC "-//W3C//DTD SVG 1.1//EN"
       "http://www.w3.org/Graphics/SVG/1.1/DTD/svg11.dtd">
<svg version="1.1" xmlns="http://www.w3.org/2000/svg" xmlns:xlink="http://www.w3.org/1999/xlink" width="22.4731" height="22.4976">
 <g>
  <rect height="22.4976" opacity="0" width="22.4731" x="0" y="0"/>
  <path d="M3.83301 22.4976L18.6401 22.4976C21.2036 22.4976 22.4731 21.228 22.4731 18.7134L22.4731 3.80859C22.4731 1.29395 21.2036 0.0244141 18.6401 0.0244141L3.83301 0.0244141C1.28174 0.0244141 0 1.28174 0 3.80859L0 18.7134C0 21.2402 1.28174 22.4976 3.83301 22.4976ZM3.85742 20.5322C2.63672 20.5322 1.96533 19.8853 1.96533 18.6157L1.96533 3.90625C1.96533 2.63672 2.63672 1.98975 3.85742 1.98975L18.6157 1.98975C19.8242 1.98975 20.5078 2.63672 20.5078 3.90625L20.5078 18.6157C20.5078 19.8853 19.8242 20.5322 18.6157 20.5322Z" fill="#5ac8f5" fill-opacity="0.5"/>
  <path d="M7.80029 16.1499C7.80029 16.7114 8.19092 17.1021 8.76465 17.1021L9.27734 17.1021L9.27734 18.0664C9.27734 18.4204 9.53369 18.6646 9.86328 18.6646C10.2051 18.6646 10.4614 18.4204 10.4614 18.0664L10.4614 17.1021L11.2427 17.1021L11.2427 18.0664C11.2427 18.4204 11.499 18.6646 11.8408 18.6646C12.1704 18.6646 12.4268 18.4204 12.4268 18.0664L12.4268 17.0654C14.4531 16.8457 15.6372 15.6738 15.6372 13.8794C15.6372 12.5 14.8315 11.4746 13.562 11.0962C14.4653 10.6567 15.1001 9.69238 15.1001 8.65479C15.1001 7.14111 14.0625 6.04248 12.4268 5.79834L12.4268 4.80957C12.4268 4.45557 12.1704 4.21143 11.8408 4.21143C11.499 4.21143 11.2427 4.45557 11.2427 4.80957L11.2427 5.74951L10.4614 5.74951L10.4614 4.80957C10.4614 4.45557 10.2051 4.21143 9.86328 4.21143C9.53369 4.21143 9.27734 4.45557 9.27734 4.80957L9.27734 5.74951L8.76465 5.74951C8.20312 5.74951 7.80029 6.14014 7.80029 6.71387ZM9.375 15.6738L9.375 11.9629L11.4258 11.9629C13.1714 11.9629 14.0747 12.5854 14.0747 13.8184C14.0747 15.0269 13.208 15.6494 11.5723 15.6616ZM9.375 10.5347L9.375 7.16553L11.4624 7.16553C12.7686 7.16553 13.5254 7.73926 13.5254 8.77686C13.5254 9.92432 12.6709 10.5591 11.1084 10.5469Z" fill="#5ac8f5"/>
 </g>
</svg>
