<?xml version="1.0" encoding="UTF-8"?>
<!--Generator: Apple Native CoreSVG 175.5-->
<!DOCTYPE svg
PUBLIC "-//W3C//DTD SVG 1.1//EN"
       "http://www.w3.org/Graphics/SVG/1.1/DTD/svg11.dtd">
<svg version="1.1" xmlns="http://www.w3.org/2000/svg" xmlns:xlink="http://www.w3.org/1999/xlink" width="24.9023" height="24.9146">
 <g>
  <rect height="24.9146" opacity="0" width="24.9023" x="0" y="0"/>
  <path d="M12.4512 24.9023C19.2627 24.9023 24.9023 19.2505 24.9023 12.4512C24.9023 5.63965 19.2505 0 12.439 0C5.63965 0 0 5.63965 0 12.4512C0 19.2505 5.65186 24.9023 12.4512 24.9023ZM12.4512 22.8271C6.68945 22.8271 2.0874 18.2129 2.0874 12.4512C2.0874 6.68945 6.67725 2.0752 12.439 2.0752C18.2007 2.0752 22.8271 6.68945 22.8271 12.4512C22.8271 18.2129 18.2129 22.8271 12.4512 22.8271ZM5.9082 12.4512C5.9082 15.4541 8.02002 18.042 10.8276 18.7866C10.9863 18.3228 11.0718 17.8589 11.1328 17.3828L10.8765 17.3706C10.6445 17.3584 10.4736 17.1631 10.4736 16.9434C10.4858 16.7236 10.6567 16.5161 10.9009 16.5161L11.145 16.5283C11.1328 16.2476 11.0962 15.979 11.0596 15.686L10.8032 15.7471C10.5835 15.8081 10.3638 15.6616 10.3149 15.4541C10.2539 15.2222 10.3882 14.978 10.5957 14.9292L10.8398 14.8682C10.7422 14.5752 10.6323 14.3066 10.4858 14.0381L10.3149 14.1357C10.1196 14.2456 9.87549 14.1846 9.75342 13.9771C9.64355 13.7817 9.70459 13.5132 9.91211 13.4033L10.083 13.3057C9.8999 13.0493 9.7168 12.8052 9.49707 12.5732L9.36279 12.7075C9.2041 12.8662 8.94775 12.854 8.77686 12.6953C8.61816 12.5488 8.60596 12.2681 8.76465 12.1094L8.88672 11.9873C8.69141 11.8164 8.47168 11.6577 8.25195 11.5234L8.11768 11.7676C8.00781 11.9751 7.75146 12.0361 7.56836 11.9263C7.34863 11.8286 7.27539 11.5723 7.39746 11.3525L7.51953 11.1206C7.08008 10.9009 6.62842 10.7544 6.16455 10.6567C6.00586 11.2183 5.9082 11.8408 5.9082 12.4512ZM12.4512 19.0063C15.1367 19.0063 17.4927 17.3096 18.4937 14.9536C17.9688 14.8438 17.4683 14.6729 16.9922 14.4531L16.8579 14.6973C16.748 14.9048 16.4917 14.9902 16.2842 14.8804C16.0889 14.7583 16.0156 14.502 16.1255 14.2944L16.2598 14.0625C15.9546 13.8794 15.6616 13.6597 15.3809 13.4399L15.1855 13.6353C15.0269 13.7939 14.7705 13.7695 14.5996 13.623C14.4409 13.4644 14.4165 13.208 14.5752 13.0493L14.7705 12.854C14.5142 12.5732 14.2822 12.2803 14.0747 11.9629L13.8062 12.1216C13.5986 12.2437 13.3545 12.1582 13.2446 11.9629C13.147 11.7554 13.1958 11.499 13.3911 11.4014L13.6597 11.2427C13.4888 10.8887 13.3423 10.5347 13.2324 10.1685L12.9028 10.2539C12.6709 10.3149 12.4634 10.1807 12.4023 9.94873C12.3413 9.74121 12.4512 9.50928 12.6953 9.44824L13.0371 9.36279C12.9761 9.0332 12.9517 8.69141 12.9395 8.34961L12.6587 8.34961C12.4268 8.3374 12.2681 8.14209 12.2681 7.91016C12.2681 7.69043 12.4512 7.49512 12.6953 7.49512L12.9517 7.50732C13.0005 6.98242 13.1104 6.46973 13.269 5.95703C13.0005 5.92041 12.7075 5.896 12.439 5.896C9.76562 5.896 7.42188 7.59277 6.43311 9.92432C6.93359 10.0342 7.42188 10.2051 7.89795 10.4248L8.02002 10.2051C8.14209 9.98535 8.38623 9.93652 8.59375 10.0342C8.78906 10.1318 8.87451 10.4004 8.75244 10.6079L8.63037 10.8276C8.92334 10.9985 9.19189 11.2061 9.44824 11.4136L9.70459 11.1694C9.87549 11.0107 10.0952 11.0229 10.2905 11.1816C10.4614 11.3403 10.4614 11.5967 10.3027 11.7554L10.0586 11.9995C10.3271 12.2803 10.5713 12.5732 10.7788 12.9028L11.0718 12.7441C11.2793 12.6221 11.5112 12.7075 11.6333 12.915C11.7554 13.0981 11.6943 13.3789 11.4868 13.4888L11.2061 13.6475C11.377 13.9771 11.5112 14.3188 11.6211 14.6729L11.8896 14.5996C12.1094 14.5386 12.3291 14.6729 12.3901 14.8926C12.439 15.1245 12.3047 15.3564 12.0972 15.4175L11.8286 15.4907C11.8896 15.8325 11.9141 16.1987 11.9263 16.5527L12.2192 16.5527C12.4512 16.5649 12.6221 16.7725 12.6221 16.9922C12.6221 17.2241 12.439 17.4072 12.207 17.4072L11.9019 17.395C11.8408 17.9199 11.7432 18.4448 11.5723 18.9331C11.8652 18.9819 12.1582 19.0063 12.4512 19.0063ZM19.0063 12.4512C19.0063 9.43604 16.8579 6.83594 14.0381 6.09131C13.8794 6.56738 13.7817 7.04346 13.7329 7.51953L14.0137 7.53174C14.2334 7.54395 14.4165 7.73926 14.4043 7.95898C14.4043 8.20312 14.2334 8.38623 13.9893 8.38623L13.7207 8.37402C13.7329 8.63037 13.7573 8.88672 13.8062 9.15527L13.9648 9.11865C14.1968 9.05762 14.4165 9.19189 14.4775 9.42383C14.5386 9.64355 14.4043 9.86328 14.1846 9.92432L14.0137 9.97314C14.1113 10.2661 14.2212 10.5469 14.3799 10.8276L14.5386 10.7422C14.7461 10.6201 15.0024 10.7056 15.1123 10.9009C15.2222 11.1328 15.1611 11.3525 14.9536 11.4624L14.7827 11.5601C14.9536 11.8164 15.1367 12.0483 15.332 12.2803L15.5151 12.0972C15.6982 11.9141 15.9302 11.9385 16.1133 12.0972C16.2598 12.2437 16.2964 12.5122 16.1133 12.6953L15.9424 12.8662C16.1621 13.0615 16.394 13.2324 16.6382 13.3789L16.7603 13.1592C16.8701 12.9639 17.1387 12.8662 17.3096 12.9883C17.5293 13.0981 17.6025 13.3423 17.4805 13.5498L17.3584 13.7817C17.8101 13.9893 18.2739 14.1357 18.75 14.2212C18.9209 13.6597 19.0063 13.0615 19.0063 12.4512Z" fill="#5ac8f5"/>
 </g>
</svg>
