<?xml version="1.0" encoding="UTF-8"?>
<!--Generator: Apple Native CoreSVG 175.5-->
<!DOCTYPE svg
PUBLIC "-//W3C//DTD SVG 1.1//EN"
       "http://www.w3.org/Graphics/SVG/1.1/DTD/svg11.dtd">
<svg version="1.1" xmlns="http://www.w3.org/2000/svg" xmlns:xlink="http://www.w3.org/1999/xlink" width="22.4854" height="29.2358">
 <g>
  <rect height="29.2358" opacity="0" width="22.4854" x="0" y="0"/>
  <path d="M11.2549 0C4.60205 0 0 6.04248 0 14.6118C0 23.1812 4.60205 29.2236 11.2549 29.2236C17.9077 29.2236 22.4854 23.1934 22.4854 14.6118C22.4854 6.03027 17.9077 0 11.2549 0ZM11.2549 1.96533C16.7358 1.96533 20.52 7.18994 20.52 14.6118C20.52 22.0337 16.7358 27.2583 11.2549 27.2583C5.76172 27.2583 1.96533 22.0215 1.96533 14.6118C1.96533 7.18994 5.76172 1.96533 11.2549 1.96533Z" fill="#5ac8f5" fill-opacity="0.5"/>
  <path d="M11.2549 3.74756C6.86035 3.74756 3.75977 8.14209 3.75977 14.6118C3.75977 21.0693 6.86035 25.4761 11.2549 25.4761C15.6494 25.4761 18.7378 21.0815 18.7378 14.6118C18.7378 8.12988 15.6494 3.74756 11.2549 3.74756Z" fill="#5ac8f5"/>
 </g>
</svg>
