<?xml version="1.0" encoding="UTF-8"?>
<!--Generator: Apple Native CoreSVG 175.5-->
<!DOCTYPE svg
PUBLIC "-//W3C//DTD SVG 1.1//EN"
       "http://www.w3.org/Graphics/SVG/1.1/DTD/svg11.dtd">
<svg version="1.1" xmlns="http://www.w3.org/2000/svg" xmlns:xlink="http://www.w3.org/1999/xlink" width="26.1425" height="22.3511">
 <g>
  <rect height="22.3511" opacity="0" width="26.1425" x="0" y="0"/>
  <path d="M13.1311 5.33447C14.5959 5.33447 15.7922 4.13818 15.7922 2.64893C15.7922 1.18408 14.5959 0 13.1311 0C11.6418 0 10.4578 1.18408 10.4578 2.64893C10.4578 4.13818 11.6418 5.33447 13.1311 5.33447ZM1.77855 16.626L7.90648 17.1387C9.00512 17.2363 9.23705 17.3096 10.2869 17.6025L17.7576 19.7021L24.4714 22.1558C25.0574 22.3633 25.8508 22.1558 26.0828 21.4111C26.2781 20.7642 25.9851 20.0562 25.3381 19.8242L18.6365 17.3828C18.5266 17.3462 18.3069 17.2607 18.2214 17.2241L13.009 15.3442C13.7048 14.0137 14.6448 11.8774 14.8889 9.55811C14.9133 9.28955 15.0842 9.15527 15.3284 9.15527L24.2883 9.15527C24.9841 9.15527 25.5212 8.59375 25.5212 7.91016C25.5212 7.21436 24.9841 6.66504 24.2883 6.66504L14.4617 6.66504C12.8137 6.66504 12.6672 6.65283 10.8728 6.16455L1.58324 3.58887C0.911854 3.40576 0.240467 3.79639 0.0451549 4.45557C-0.137951 5.12695 0.252674 5.81055 0.911854 5.99365L9.57885 8.38623C9.79857 8.44727 9.94506 8.61816 9.92064 8.87451C9.63988 11.0596 8.57787 13.1714 8.01635 14.1357L3.12133 14.1357L3.12133 9.15527C3.12133 8.47168 2.53539 7.91016 1.864 7.91016C1.18041 7.91016 0.618885 8.47168 0.618885 9.15527L0.618885 15.3687C0.618885 16.1011 0.948475 16.5405 1.77855 16.626Z" fill="#5ac8f5"/>
 </g>
</svg>
