<?xml version="1.0" encoding="UTF-8"?>
<!--Generator: Apple Native CoreSVG 175.5-->
<!DOCTYPE svg
PUBLIC "-//W3C//DTD SVG 1.1//EN"
       "http://www.w3.org/Graphics/SVG/1.1/DTD/svg11.dtd">
<svg version="1.1" xmlns="http://www.w3.org/2000/svg" xmlns:xlink="http://www.w3.org/1999/xlink" width="27.6842" height="27.701">
 <g>
  <rect height="27.701" opacity="0" width="27.6842" x="0" y="0"/>
  <path d="M1.36881 16.5422L11.1466 26.32C12.9533 28.1266 14.7355 28.1388 16.5299 26.3566L26.3566 16.5177C28.1388 14.7355 28.1266 12.9411 26.32 11.1344L16.5544 1.36881C14.7477-0.43783 12.9655-0.462244 11.1711 1.33219L1.33219 11.1588C-0.462244 12.9533-0.43783 14.7355 1.36881 16.5422ZM2.78483 15.1872C1.91813 14.3083 1.89371 13.3927 2.79703 12.4894L12.4894 2.79703C13.3927 1.89371 14.3083 1.90592 15.1872 2.78483L24.904 12.5016C25.7707 13.3683 25.7951 14.2961 24.8918 15.1994L15.1994 24.8918C14.2961 25.7951 13.3561 25.7707 12.5016 24.9162Z" fill="#5ac8f5" fill-opacity="0.5"/>
  <path d="M16.7253 21.2907C17.1037 21.2907 17.4821 21.0343 17.4821 20.5705C17.4821 20.3874 17.4333 20.2287 17.3356 20.0334L15.8952 17.0915C15.7487 16.7863 15.59 16.5788 15.4679 16.4079L14.6134 15.175L14.6867 14.9674C14.943 14.2228 15.0651 13.7345 15.1139 13.0021L15.2482 11.049C15.3214 9.99918 14.7233 9.14469 13.5636 9.14469C12.8068 9.14469 12.111 9.52311 11.3786 10.2433L10.2555 11.3297C9.87711 11.696 9.76725 11.9889 9.73063 12.4528L9.58414 14.0885C9.54752 14.5768 9.82828 14.8942 10.2677 14.9308C10.6828 14.9552 10.988 14.7111 11.0368 14.1862L11.1711 12.4284L11.7814 11.9035C11.9645 11.7448 12.1842 11.8424 12.1598 12.111L12.05 13.6003C11.9767 14.4181 12.3796 15.0041 12.7824 15.5046L14.1862 17.2746C14.3205 17.4333 14.3449 17.4943 14.4181 17.6286L15.9684 20.7902C16.1271 21.132 16.3957 21.2907 16.7253 21.2907ZM10.0846 21.2907C10.3166 21.2907 10.5241 21.2052 10.6706 21.0343L12.9045 18.3732C13.1486 18.0802 13.173 18.068 13.234 17.7995L13.3561 17.2746L12.1354 15.7365L11.7692 17.4577L9.70621 19.8991C9.54752 20.0944 9.38883 20.2897 9.38883 20.5827C9.38883 21.0221 9.6818 21.2907 10.0846 21.2907ZM17.1281 13.4294L18.8615 13.4294C19.3742 13.4294 19.6672 13.1486 19.6672 12.6969C19.6672 12.2697 19.3742 11.9767 18.8615 11.9767L17.0182 11.9767L15.883 10.7072L15.7487 12.6115L16.2492 13.112C16.4933 13.3683 16.713 13.4294 17.1281 13.4294ZM14.4914 8.57096C15.3581 8.57096 16.0783 7.85074 16.0783 6.99625C16.0783 6.10514 15.3581 5.40934 14.4914 5.40934C13.6125 5.40934 12.9167 6.10514 12.9167 6.99625C12.9167 7.85074 13.6125 8.57096 14.4914 8.57096Z" fill="#5ac8f5"/>
 </g>
</svg>
