<?xml version="1.0" encoding="UTF-8"?>
<!--Generator: Apple Native CoreSVG 175.5-->
<!DOCTYPE svg
PUBLIC "-//W3C//DTD SVG 1.1//EN"
       "http://www.w3.org/Graphics/SVG/1.1/DTD/svg11.dtd">
<svg version="1.1" xmlns="http://www.w3.org/2000/svg" xmlns:xlink="http://www.w3.org/1999/xlink" width="30.6885" height="25.9766">
 <g>
  <rect height="25.9766" opacity="0" width="30.6885" x="0" y="0"/>
  <path d="M7.31201 22.6013L18.9941 22.6013L4.82178 8.45337C4.60205 8.95386 4.49219 9.51538 4.47998 10.1135C1.72119 10.553 0 13.0188 0 15.9973C0 19.5862 3.13721 22.6013 7.31201 22.6013ZM25.5737 22.3938C28.5889 21.7834 30.6885 19.4153 30.6885 16.5466C30.6885 13.9832 29.2114 11.7615 26.8311 10.7605C26.8555 5.31616 22.937 1.3855 17.9443 1.3855C14.6362 1.3855 12.2803 3.15552 10.8154 5.29175C10.0708 5.05981 9.22852 5.04761 8.43506 5.26733Z" fill="#5ac8f5" fill-opacity="0.5"/>
  <path d="M24.1455 25.7019C24.5117 26.0681 25.1099 26.0681 25.4761 25.7019C25.8423 25.3357 25.8423 24.7375 25.4761 24.3713L5.10254 4.01001C4.73633 3.63159 4.12598 3.65601 3.75977 4.01001C3.40576 4.36401 3.41797 4.99878 3.75977 5.34058Z" fill="#5ac8f5"/>
 </g>
</svg>
