<?xml version="1.0" encoding="UTF-8"?>
<!--Generator: Apple Native CoreSVG 175.5-->
<!DOCTYPE svg
PUBLIC "-//W3C//DTD SVG 1.1//EN"
       "http://www.w3.org/Graphics/SVG/1.1/DTD/svg11.dtd">
<svg version="1.1" xmlns="http://www.w3.org/2000/svg" xmlns:xlink="http://www.w3.org/1999/xlink" width="22.4731" height="22.4976">
 <g>
  <rect height="22.4976" opacity="0" width="22.4731" x="0" y="0"/>
  <path d="M3.83301 22.4976L18.6401 22.4976C21.2036 22.4976 22.4731 21.228 22.4731 18.7134L22.4731 3.80859C22.4731 1.29395 21.2036 0.0244141 18.6401 0.0244141L3.83301 0.0244141C1.28174 0.0244141 0 1.28174 0 3.80859L0 18.7134C0 21.2402 1.28174 22.4976 3.83301 22.4976ZM3.85742 20.5322C2.63672 20.5322 1.96533 19.8853 1.96533 18.6157L1.96533 3.90625C1.96533 2.63672 2.63672 1.98975 3.85742 1.98975L18.6157 1.98975C19.8242 1.98975 20.5078 2.63672 20.5078 3.90625L20.5078 18.6157C20.5078 19.8853 19.8242 20.5322 18.6157 20.5322Z" fill="#5ac8f5" fill-opacity="0.5"/>
  <path d="M6.12793 11.438C6.12793 11.7676 6.37207 12.0361 6.71387 12.0361L7.38525 12.0361L7.38525 16.5161C7.38525 16.9922 7.71484 17.3096 8.17871 17.3096C8.64258 17.3096 8.95996 16.9922 8.95996 16.5161L8.95996 12.0361L10.7178 12.0361L13.0249 16.6138C13.2446 17.0532 13.5742 17.3218 14.0869 17.3218C14.6851 17.3218 15.0757 16.9312 15.0757 16.333L15.0757 12.0483L15.7715 12.0483C16.1011 12.0483 16.3696 11.7676 16.3696 11.438C16.3696 11.084 16.1011 10.8398 15.7715 10.8398L15.0757 10.8398L15.0757 6.32324C15.0757 5.84717 14.7583 5.52979 14.2944 5.52979C13.8306 5.52979 13.501 5.84717 13.501 6.32324L13.501 10.8398L11.7676 10.8398L9.43604 6.22559C9.22852 5.78613 8.88672 5.51758 8.37402 5.51758C7.77588 5.51758 7.38525 5.9082 7.38525 6.49414L7.38525 10.8276L6.71387 10.8276C6.38428 10.8276 6.12793 11.084 6.12793 11.438ZM8.95996 10.8276L8.95996 8.34961L10.1074 10.8276ZM12.3657 12.0483L13.501 12.0483L13.501 14.5142Z" fill="#5ac8f5"/>
 </g>
</svg>
