<?xml version="1.0" encoding="UTF-8"?>
<!--Generator: Apple Native CoreSVG 175.5-->
<!DOCTYPE svg
PUBLIC "-//W3C//DTD SVG 1.1//EN"
       "http://www.w3.org/Graphics/SVG/1.1/DTD/svg11.dtd">
<svg version="1.1" xmlns="http://www.w3.org/2000/svg" xmlns:xlink="http://www.w3.org/1999/xlink" width="23.1567" height="27.5024">
 <g>
  <rect height="27.5024" opacity="0" width="23.1567" x="0" y="0"/>
  <path d="M0 6.9458L21.1792 6.9458L21.1792 3.73535C21.1792 1.98975 20.0439 0.817871 18.3594 0.817871L2.83203 0.817871C1.13525 0.817871 0 1.98975 0 3.73535ZM4.41895 5.59082C3.80859 5.59082 3.30811 5.07812 3.30811 4.47998C3.30811 3.85742 3.80859 3.35693 4.41895 3.35693C5.0293 3.35693 5.51758 3.85742 5.51758 4.47998C5.51758 5.07812 5.0293 5.59082 4.41895 5.59082ZM7.62939 5.59082C7.01904 5.59082 6.53076 5.07812 6.53076 4.47998C6.53076 3.85742 7.01904 3.35693 7.62939 3.35693C8.23975 3.35693 8.72803 3.85742 8.72803 4.47998C8.72803 5.07812 8.23975 5.59082 7.62939 5.59082ZM0 21.7163L6.40869 21.7163C6.39648 21.5332 6.38428 21.3745 6.38428 21.1914C6.38428 16.9067 9.82666 13.4644 14.1235 13.4644C14.5264 13.4644 14.9292 13.4888 15.3076 13.5498C15.7837 13.4888 16.2964 13.4644 16.8457 13.4644C18.457 13.4644 19.9463 13.9526 21.1792 14.7827L21.1792 8.60596L0 8.60596ZM7.61719 11.6089C7.23877 11.6089 6.98242 11.3403 6.98242 10.9619C6.98242 10.5835 7.23877 10.3271 7.61719 10.3271L13.5742 10.3271C13.9526 10.3271 14.1968 10.5835 14.1968 10.9619C14.1968 11.3403 13.9526 11.6089 13.5742 11.6089ZM2.83203 26.4526L8.44727 26.4526C7.6416 25.5981 7.03125 24.5483 6.68945 23.3765L0 23.3765L0 23.5474C0 25.293 1.13525 26.4526 2.83203 26.4526Z" fill="#5ac8f5" fill-opacity="0.5"/>
  <path d="M14.1235 27.5024C17.6147 27.5024 20.4224 24.6948 20.4224 21.1914C20.4224 17.688 17.6147 14.8804 14.1235 14.8804C10.6201 14.8804 7.80029 17.688 7.80029 21.1914C7.80029 24.6948 10.6201 27.5024 14.1235 27.5024ZM14.1235 26.1475C11.2793 26.1475 9.15527 24.0234 9.15527 21.1914C9.15527 18.3594 11.2793 16.2354 14.1235 16.2354C16.9434 16.2354 19.0674 18.3594 19.0674 21.1914C19.0674 24.0234 16.9434 26.1475 14.1235 26.1475ZM14.1235 24.8657C16.1377 24.8657 17.7856 23.2178 17.7856 21.1914C17.7856 19.165 16.1377 17.5293 14.1235 17.5293C12.085 17.5293 10.4492 19.165 10.4492 21.1914C10.4492 23.2178 12.085 24.8657 14.1235 24.8657ZM14.1235 23.7549C12.6221 23.7549 11.5601 22.6807 11.5601 21.1914C11.5601 19.7021 12.6221 18.6401 14.1235 18.6401C15.6128 18.6401 16.6748 19.7021 16.6748 21.1914C16.6748 22.6929 15.6006 23.7549 14.1235 23.7549ZM16.8457 27.5024C20.3369 27.5024 23.1567 24.6948 23.1567 21.1914C23.1567 17.688 20.3369 14.8804 16.8457 14.8804C16.0889 14.8804 15.3687 15.0146 14.7095 15.271L16.272 16.272C16.4673 16.2476 16.6504 16.2354 16.8457 16.2354C19.6777 16.2354 21.8018 18.3594 21.8018 21.1914C21.8018 24.0234 19.6777 26.1475 16.8457 26.1475C16.6504 26.1475 16.4551 26.1353 16.2598 26.123L15.1489 27.2705C15.6982 27.4292 16.2598 27.5024 16.8457 27.5024Z" fill="#5ac8f5"/>
 </g>
</svg>
