<?xml version="1.0" encoding="UTF-8"?>
<!--Generator: Apple Native CoreSVG 175.5-->
<!DOCTYPE svg
PUBLIC "-//W3C//DTD SVG 1.1//EN"
       "http://www.w3.org/Graphics/SVG/1.1/DTD/svg11.dtd">
<svg version="1.1" xmlns="http://www.w3.org/2000/svg" xmlns:xlink="http://www.w3.org/1999/xlink" width="22.4731" height="22.4976">
 <g>
  <rect height="22.4976" opacity="0" width="22.4731" x="0" y="0"/>
  <path d="M3.83301 22.4976L18.6401 22.4976C21.2036 22.4976 22.4731 21.228 22.4731 18.7134L22.4731 3.80859C22.4731 1.29395 21.2036 0.0244141 18.6401 0.0244141L3.83301 0.0244141C1.28174 0.0244141 0 1.28174 0 3.80859L0 18.7134C0 21.2402 1.28174 22.4976 3.83301 22.4976ZM3.85742 20.5322C2.63672 20.5322 1.96533 19.8853 1.96533 18.6157L1.96533 3.90625C1.96533 2.63672 2.63672 1.98975 3.85742 1.98975L18.6157 1.98975C19.8242 1.98975 20.5078 2.63672 20.5078 3.90625L20.5078 18.6157C20.5078 19.8853 19.8242 20.5322 18.6157 20.5322ZM6.27441 13.7573C6.27441 14.0991 6.50635 14.3555 6.87256 14.3555L7.53174 14.3555L6.93359 16.1499C6.87256 16.333 6.86035 16.4551 6.86035 16.5527C6.86035 16.9678 7.18994 17.2729 7.65381 17.2729C8.03223 17.2729 8.30078 17.0898 8.42285 16.6748L9.15527 14.3555L13.3179 14.3555L14.0503 16.687C14.1724 17.1021 14.4165 17.2729 14.8193 17.2729C15.2832 17.2729 15.6128 16.9678 15.6128 16.5527C15.6128 16.4551 15.5884 16.333 15.5273 16.1499L14.9292 14.3555L15.6006 14.3555C15.9668 14.3555 16.1987 14.0991 16.1987 13.7573C16.1987 13.4155 15.9668 13.147 15.6006 13.147L14.5386 13.147L14.1968 12.1216L15.6006 12.1216C15.9668 12.1216 16.1987 11.853 16.1987 11.5112C16.1987 11.1694 15.9668 10.9131 15.6006 10.9131L13.7939 10.9131L12.1704 6.03027C12.0239 5.59082 11.731 5.32227 11.2305 5.32227C10.73 5.32227 10.4248 5.57861 10.2783 6.03027L8.66699 10.9131L6.87256 10.9131C6.50635 10.9131 6.27441 11.1694 6.27441 11.5112C6.27441 11.853 6.50635 12.1216 6.87256 12.1216L8.26416 12.1216L7.92236 13.147L6.87256 13.147C6.50635 13.147 6.27441 13.4155 6.27441 13.7573ZM9.52148 13.147L9.83887 12.1216L12.6221 12.1216L12.9517 13.147ZM10.2051 10.9131L11.2305 7.6416L12.2559 10.9131Z" fill="#5ac8f5"/>
 </g>
</svg>
