<?xml version="1.0" encoding="UTF-8"?>
<!--Generator: Apple Native CoreSVG 175.5-->
<!DOCTYPE svg
PUBLIC "-//W3C//DTD SVG 1.1//EN"
       "http://www.w3.org/Graphics/SVG/1.1/DTD/svg11.dtd">
<svg version="1.1" xmlns="http://www.w3.org/2000/svg" xmlns:xlink="http://www.w3.org/1999/xlink" width="24.9023" height="29.6406">
 <g>
  <rect height="29.6406" opacity="0" width="24.9023" x="0" y="0"/>
  <path d="M0 14.8142C0 21.6257 5.65186 27.2654 12.4512 27.2654C19.2627 27.2654 24.9023 21.6257 24.9023 14.8142C24.9023 10.7126 22.8271 7.02611 19.6899 4.7434C19.1528 4.32836 18.4814 4.46263 18.1763 4.96312C17.8711 5.47582 18.0298 6.04955 18.5303 6.42797C21.1304 8.28343 22.8149 11.3474 22.8271 14.8142C22.8394 20.5759 18.2129 25.1902 12.4512 25.1902C6.68945 25.1902 2.0874 20.5759 2.0874 14.8142C2.0874 9.87035 5.48096 5.76879 10.0952 4.71898L10.0952 6.46459C10.0952 7.33129 10.6934 7.56322 11.3647 7.08715L15.2588 4.35277C15.8081 3.97435 15.8203 3.38842 15.2588 2.98558L11.377 0.251208C10.6934-0.237073 10.0952-0.00513969 10.0952 0.873767L10.0952 2.59496C4.38232 3.718 0 8.80834 0 14.8142Z" fill="#5ac8f5"/>
 </g>
</svg>
