<?xml version="1.0" encoding="UTF-8"?>
<!--Generator: Apple Native CoreSVG 175.5-->
<!DOCTYPE svg
PUBLIC "-//W3C//DTD SVG 1.1//EN"
       "http://www.w3.org/Graphics/SVG/1.1/DTD/svg11.dtd">
<svg version="1.1" xmlns="http://www.w3.org/2000/svg" xmlns:xlink="http://www.w3.org/1999/xlink" width="22.4731" height="22.4976">
 <g>
  <rect height="22.4976" opacity="0" width="22.4731" x="0" y="0"/>
  <path d="M3.83301 22.4976L18.6401 22.4976C21.2036 22.4976 22.4731 21.228 22.4731 18.7134L22.4731 3.80859C22.4731 1.29395 21.2036 0.0244141 18.6401 0.0244141L3.83301 0.0244141C1.28174 0.0244141 0 1.28174 0 3.80859L0 18.7134C0 21.2402 1.28174 22.4976 3.83301 22.4976Z" fill="#5ac8f5" fill-opacity="0.25"/>
  <path d="M7.04346 11.2427C7.04346 8.65479 8.43506 6.93359 10.6079 6.64062L10.6079 5.70068C10.6079 5.33447 10.8765 5.06592 11.2305 5.06592C11.5967 5.06592 11.853 5.33447 11.853 5.70068L11.853 6.62842C13.4399 6.82373 14.5752 7.73926 14.9414 8.8623C14.978 8.98438 15.0146 9.11865 15.0146 9.27734C15.0146 9.729 14.7217 10.0342 14.2822 10.0342C13.9282 10.0342 13.6719 9.85107 13.5254 9.48486C13.2446 8.78906 12.6831 8.27637 11.853 8.10547L11.853 14.3799C12.6953 14.209 13.2568 13.7085 13.5376 12.9883C13.6719 12.6709 13.9282 12.4634 14.27 12.4634C14.7095 12.4634 15.0269 12.7686 15.0269 13.208C15.0269 13.3667 14.9902 13.5132 14.9536 13.6475C14.5874 14.7705 13.4521 15.6738 11.853 15.8691L11.853 16.7969C11.853 17.1631 11.5967 17.4194 11.2305 17.4194C10.8765 17.4194 10.6079 17.1631 10.6079 16.7969L10.6079 15.8569C8.43506 15.564 7.04346 13.855 7.04346 11.2427ZM8.64258 11.2427C8.64258 12.9639 9.39941 14.0625 10.6079 14.3433L10.6079 8.14209C9.39941 8.43506 8.64258 9.5459 8.64258 11.2427Z" fill="#5ac8f5"/>
 </g>
</svg>
