<?xml version="1.0" encoding="UTF-8"?>
<!--Generator: Apple Native CoreSVG 175.5-->
<!DOCTYPE svg
PUBLIC "-//W3C//DTD SVG 1.1//EN"
       "http://www.w3.org/Graphics/SVG/1.1/DTD/svg11.dtd">
<svg version="1.1" xmlns="http://www.w3.org/2000/svg" xmlns:xlink="http://www.w3.org/1999/xlink" width="22.4731" height="22.4976">
 <g>
  <rect height="22.4976" opacity="0" width="22.4731" x="0" y="0"/>
  <path d="M3.83301 22.4976L18.6401 22.4976C21.2036 22.4976 22.4731 21.228 22.4731 18.7134L22.4731 3.80859C22.4731 1.29395 21.2036 0.0244141 18.6401 0.0244141L3.83301 0.0244141C1.28174 0.0244141 0 1.28174 0 3.80859L0 18.7134C0 21.2402 1.28174 22.4976 3.83301 22.4976ZM3.85742 20.5322C2.63672 20.5322 1.96533 19.8853 1.96533 18.6157L1.96533 3.90625C1.96533 2.63672 2.63672 1.98975 3.85742 1.98975L18.6157 1.98975C19.8242 1.98975 20.5078 2.63672 20.5078 3.90625L20.5078 18.6157C20.5078 19.8853 19.8242 20.5322 18.6157 20.5322Z" fill="#5ac8f5" fill-opacity="0.5"/>
  <path d="M11.2427 18.2129C11.5723 18.2129 11.8286 17.981 11.8286 17.6392L11.8286 16.7847C13.7207 16.6016 15.1855 15.5029 15.1855 13.6597C15.1855 11.9995 14.1113 10.9985 11.9873 10.6201L11.8286 10.5835L11.8286 7.17773C12.6953 7.33643 13.3057 7.86133 13.5498 8.6792C13.6719 9.04541 13.9038 9.27734 14.2944 9.27734C14.7095 9.27734 15.0146 8.98438 15.0146 8.55713C15.0146 8.43506 14.978 8.31299 14.9536 8.17871C14.6362 6.86035 13.3911 5.95703 11.8286 5.77393L11.8286 4.93164C11.8286 4.58984 11.5723 4.35791 11.2427 4.35791C10.9131 4.35791 10.6689 4.58984 10.6689 4.93164L10.6689 5.77393C8.81348 5.98145 7.50732 7.14111 7.50732 8.80127C7.50732 10.3516 8.54492 11.2793 10.5835 11.7554L10.6689 11.7798L10.6689 15.3931C9.57031 15.2344 8.92334 14.624 8.72803 13.8062C8.59375 13.3911 8.3374 13.1958 7.97119 13.1958C7.55615 13.1958 7.26318 13.4888 7.26318 13.916C7.26318 14.0503 7.2876 14.1724 7.32422 14.2944C7.66602 15.6982 9.0332 16.6016 10.6689 16.7603L10.6689 17.6392C10.6689 17.981 10.9131 18.2129 11.2427 18.2129ZM10.6689 10.2783L10.5835 10.2539C9.48486 9.93652 9.00879 9.44824 9.00879 8.72803C9.00879 7.9834 9.63135 7.36084 10.6689 7.17773ZM11.8286 12.0728L12.085 12.1338C13.269 12.4634 13.6841 12.9639 13.6841 13.7451C13.6841 14.5996 13.0737 15.2466 11.8286 15.3931Z" fill="#5ac8f5"/>
 </g>
</svg>
