<?xml version="1.0" encoding="UTF-8"?>
<!--Generator: Apple Native CoreSVG 175.5-->
<!DOCTYPE svg
PUBLIC "-//W3C//DTD SVG 1.1//EN"
       "http://www.w3.org/Graphics/SVG/1.1/DTD/svg11.dtd">
<svg version="1.1" xmlns="http://www.w3.org/2000/svg" xmlns:xlink="http://www.w3.org/1999/xlink" width="24.9023" height="24.9146">
 <g>
  <rect height="24.9146" opacity="0" width="24.9023" x="0" y="0"/>
  <path d="M12.4512 24.9023C19.2627 24.9023 24.9023 19.2505 24.9023 12.4512C24.9023 5.63965 19.2505 0 12.439 0C5.63965 0 0 5.63965 0 12.4512C0 19.2505 5.65186 24.9023 12.4512 24.9023Z" fill="#5ac8f5" fill-opacity="0.25"/>
  <path d="M6.55518 8.08105L9.7168 5.01709C9.87549 4.84619 10.1074 4.74854 10.3027 4.74854C10.7788 4.74854 11.1206 5.07812 11.1206 5.5542C11.1206 5.77393 11.0352 5.98145 10.8643 6.14014L9.5459 7.43408L9.04541 7.88574L9.63135 7.87354L17.7734 7.87354C18.2495 7.87354 18.5913 8.21533 18.5913 8.69141C18.5913 9.15527 18.2373 9.52148 17.7734 9.52148L9.61914 9.52148L9.0332 9.48486L9.5459 9.97314L10.8643 11.2549C11.0352 11.4136 11.1206 11.6089 11.1206 11.8408C11.1206 12.3047 10.7788 12.6343 10.3027 12.6343C10.1074 12.6343 9.8877 12.5366 9.7168 12.4023L6.55518 9.30176C6.22559 8.98438 6.22559 8.41064 6.55518 8.08105ZM18.3228 16.8335L15.1733 19.9341C14.9902 20.0928 14.7705 20.1904 14.5752 20.1904C14.1113 20.1904 13.7695 19.8486 13.7695 19.3848C13.7695 19.1528 13.8672 18.9697 14.0259 18.7988L15.3442 17.5049L15.8691 17.0532L15.2588 17.0654L7.10449 17.0654C6.65283 17.0654 6.31104 16.7114 6.31104 16.2354C6.31104 15.7593 6.65283 15.4175 7.10449 15.4175L15.271 15.4175L15.8691 15.4541L15.3442 14.9658L14.0015 13.6841C13.8428 13.5254 13.7695 13.3301 13.7695 13.0981C13.7695 12.6343 14.0991 12.3047 14.5752 12.3047C14.7827 12.3047 15.0146 12.4023 15.1733 12.5488L18.3228 15.6494C18.6523 15.979 18.6768 16.4917 18.3228 16.8335Z" fill="#5ac8f5"/>
 </g>
</svg>
