<?xml version="1.0" encoding="UTF-8"?>
<!--Generator: Apple Native CoreSVG 175.5-->
<!DOCTYPE svg
PUBLIC "-//W3C//DTD SVG 1.1//EN"
       "http://www.w3.org/Graphics/SVG/1.1/DTD/svg11.dtd">
<svg version="1.1" xmlns="http://www.w3.org/2000/svg" xmlns:xlink="http://www.w3.org/1999/xlink" width="37.9883" height="18.9087">
 <g>
  <rect height="18.9087" opacity="0" width="37.9883" x="0" y="0"/>
  <path d="M12.1826 17.9932L30.7251 17.9932C32.605 17.9932 34.2041 18.1763 35.7056 18.5547C36.9873 18.8721 37.9883 18.3472 37.9883 17.041L37.9883 11.1938C37.9883 10.3638 37.3901 9.75342 36.5479 9.75342L33.3984 9.75342C32.373 9.75342 31.8726 9.31396 31.9824 8.36182L32.3486 4.78516C32.6416 1.80664 30.9448 0 27.6245 0C23.7915 0.012207 16.6992 0.134277 12.6343 0.634766C8.23975 1.17188 5.40771 3.38135 4.40674 6.99463C5.11475 6.99463 5.83496 6.99463 6.55518 6.99463C7.4585 4.49219 9.58252 2.99072 12.8052 2.6123C16.8213 2.16064 23.7915 1.96533 27.6245 1.96533C29.7485 1.96533 30.603 2.81982 30.4077 4.56543L29.4312 13.2324C29.1992 15.2832 28.3203 16.0278 26.0864 16.0278L12.146 16.0278C9.06982 16.0278 6.99463 14.7583 6.26221 12.3535C5.56641 12.3535 4.88281 12.3535 4.18701 12.3535C4.94385 16.0522 7.77588 17.9932 12.1826 17.9932ZM0 6.87256C0 9.26514 1.48926 10.6934 4.01611 10.6934L10.498 10.6934L10.498 12.0972C10.498 12.9272 11.084 13.2202 11.7798 12.7441L15.1855 10.4248C15.7349 10.0464 15.7349 9.375 15.1855 8.99658L11.8042 6.67725C11.084 6.17676 10.498 6.49414 10.498 7.32422L10.498 8.65479L4.01611 8.65479C2.79541 8.65479 2.0874 7.99561 2.0874 6.87256L2.0874 5.26123C2.0874 4.6875 1.61133 4.21143 1.0376 4.21143C0.476074 4.21143 0 4.6875 0 5.26123Z" fill="#5ac8f5"/>
 </g>
</svg>
