<?xml version="1.0" encoding="UTF-8"?>
<!--Generator: Apple Native CoreSVG 175.5-->
<!DOCTYPE svg
PUBLIC "-//W3C//DTD SVG 1.1//EN"
       "http://www.w3.org/Graphics/SVG/1.1/DTD/svg11.dtd">
<svg version="1.1" xmlns="http://www.w3.org/2000/svg" xmlns:xlink="http://www.w3.org/1999/xlink" width="24.9023" height="24.9146">
 <g>
  <rect height="24.9146" opacity="0" width="24.9023" x="0" y="0"/>
  <path d="M12.439 12.5122C15.8569 12.5122 18.7134 9.68018 18.7134 6.27441C18.7134 2.84424 15.8569 0.012207 12.439 0.012207C9.00879 0.012207 6.17676 2.84424 6.17676 6.27441C6.17676 9.68018 9.0332 12.5122 12.439 12.5122ZM12.439 10.4492C10.0708 10.4492 8.23975 8.63037 8.23975 6.27441C8.23975 3.90625 10.0708 2.0752 12.439 2.0752C14.8071 2.0752 16.6504 3.90625 16.6504 6.27441C16.6504 8.63037 14.8071 10.4492 12.439 10.4492ZM12.4512 24.9023C19.2627 24.9023 24.9023 19.2505 24.9023 12.4512C24.9023 5.63965 19.2505 0 12.439 0C5.63965 0 0 5.63965 0 12.4512C0 19.2505 5.65186 24.9023 12.4512 24.9023ZM12.4512 22.8271C6.68945 22.8271 2.0874 18.2129 2.0874 12.4512C2.0874 6.68945 6.67725 2.0752 12.439 2.0752C18.2007 2.0752 22.8271 6.68945 22.8271 12.4512C22.8271 18.2129 18.2129 22.8271 12.4512 22.8271Z" fill="#5ac8f5"/>
 </g>
</svg>
