<?xml version="1.0" encoding="UTF-8"?>
<!--Generator: Apple Native CoreSVG 175.5-->
<!DOCTYPE svg
PUBLIC "-//W3C//DTD SVG 1.1//EN"
       "http://www.w3.org/Graphics/SVG/1.1/DTD/svg11.dtd">
<svg version="1.1" xmlns="http://www.w3.org/2000/svg" xmlns:xlink="http://www.w3.org/1999/xlink" width="24.9023" height="24.9146">
 <g>
  <rect height="24.9146" opacity="0" width="24.9023" x="0" y="0"/>
  <path d="M12.4512 24.9023C19.2627 24.9023 24.9023 19.2505 24.9023 12.4512C24.9023 5.63965 19.2505 0 12.439 0C5.63965 0 0 5.63965 0 12.4512C0 19.2505 5.65186 24.9023 12.4512 24.9023ZM12.4512 22.8271C6.68945 22.8271 2.0874 18.2129 2.0874 12.4512C2.0874 6.68945 6.67725 2.0752 12.439 2.0752C18.2007 2.0752 22.8271 6.68945 22.8271 12.4512C22.8271 18.2129 18.2129 22.8271 12.4512 22.8271Z" fill="#5ac8f5" fill-opacity="0.5"/>
  <path d="M9.16748 19.5801L15.7349 19.5801C16.5161 19.5801 16.9922 19.1284 16.9922 18.3105L16.9922 18.1519C16.9922 16.2842 15.0146 14.2944 13.9282 13.208C13.3911 12.6831 13.4277 12.146 13.9282 11.6699C15.0146 10.5957 16.9922 8.60596 16.9922 6.72607L16.9922 6.5918C16.9922 5.76172 16.5161 5.31006 15.7349 5.31006L9.16748 5.31006C8.38623 5.31006 7.91016 5.76172 7.91016 6.5918L7.91016 6.72607C7.91016 8.60596 9.8877 10.5957 10.9741 11.6699C11.4746 12.146 11.5112 12.6831 10.9741 13.208C9.8877 14.2944 7.91016 16.2842 7.91016 18.1519L7.91016 18.3105C7.91016 19.1284 8.38623 19.5801 9.16748 19.5801ZM9.76562 18.5303C9.42383 18.5303 9.36279 18.1396 9.58252 17.9321L11.9019 15.564C11.9873 15.4785 12.0239 15.4419 12.0239 15.3198L12.0239 11.8896C12.0239 11.5479 11.9507 11.377 11.7065 11.145C11.1694 10.6079 10.6079 10.0586 10.1318 9.5459C9.91211 9.33838 10.0342 9.10645 10.2783 9.10645L14.6362 9.10645C14.8804 9.10645 14.9902 9.33838 14.7827 9.5459C14.2944 10.0586 13.7329 10.6079 13.1958 11.145C12.9517 11.377 12.8784 11.5479 12.8784 11.8896L12.8784 15.3198C12.8784 15.4419 12.915 15.4785 13.0005 15.564L15.3198 17.9321C15.5396 18.1396 15.4785 18.5303 15.1367 18.5303Z" fill="#5ac8f5"/>
 </g>
</svg>
