<?xml version="1.0" encoding="UTF-8"?>
<!--Generator: Apple Native CoreSVG 175.5-->
<!DOCTYPE svg
PUBLIC "-//W3C//DTD SVG 1.1//EN"
       "http://www.w3.org/Graphics/SVG/1.1/DTD/svg11.dtd">
<svg version="1.1" xmlns="http://www.w3.org/2000/svg" xmlns:xlink="http://www.w3.org/1999/xlink" width="24.9023" height="24.9146">
 <g>
  <rect height="24.9146" opacity="0" width="24.9023" x="0" y="0"/>
  <path d="M12.4512 24.9023C19.2627 24.9023 24.9023 19.2505 24.9023 12.4512C24.9023 5.63965 19.2505 0 12.439 0C5.63965 0 0 5.63965 0 12.4512C0 19.2505 5.65186 24.9023 12.4512 24.9023ZM12.4512 22.8271C6.68945 22.8271 2.0874 18.2129 2.0874 12.4512C2.0874 6.68945 6.67725 2.0752 12.439 2.0752C18.2007 2.0752 22.8271 6.68945 22.8271 12.4512C22.8271 18.2129 18.2129 22.8271 12.4512 22.8271Z" fill="#5ac8f5" fill-opacity="0.5"/>
  <path d="M9.09424 7.21436C7.82471 7.21436 6.49414 7.80029 5.92041 8.80127C5.84717 8.92334 5.84717 8.99658 5.84717 9.2041L5.84717 17.3096C5.84717 17.5537 6.01807 17.7246 6.28662 17.7246C6.43311 17.7246 6.56738 17.6758 6.67725 17.5781C7.37305 16.98 8.31299 16.6382 9.30176 16.6382C10.144 16.6382 10.9497 16.9189 11.6211 17.4683C11.6943 17.5293 11.7432 17.5659 11.8164 17.5659C11.9385 17.5659 12.0483 17.4561 12.0483 17.3218L12.0483 8.82568C12.0483 8.69141 12.0361 8.66699 11.9263 8.49609C11.3647 7.70264 10.2905 7.21436 9.09424 7.21436ZM15.7959 7.21436C14.5996 7.21436 13.5376 7.70264 12.9639 8.49609C12.854 8.66699 12.854 8.69141 12.854 8.82568L12.854 17.3218C12.854 17.4561 12.9517 17.5659 13.0737 17.5659C13.147 17.5659 13.208 17.5293 13.269 17.4683C13.9404 16.9189 14.7583 16.6382 15.5884 16.6382C16.5894 16.6382 17.5293 16.98 18.2251 17.5781C18.335 17.6758 18.457 17.7246 18.6035 17.7246C18.8721 17.7246 19.0552 17.5537 19.0552 17.3096L19.0552 9.2041C19.0552 8.99658 19.043 8.91113 18.9697 8.80127C18.396 7.80029 17.0654 7.21436 15.7959 7.21436Z" fill="#5ac8f5"/>
 </g>
</svg>
