<?xml version="1.0" encoding="UTF-8"?>
<!--Generator: Apple Native CoreSVG 175.5-->
<!DOCTYPE svg
PUBLIC "-//W3C//DTD SVG 1.1//EN"
       "http://www.w3.org/Graphics/SVG/1.1/DTD/svg11.dtd">
<svg version="1.1" xmlns="http://www.w3.org/2000/svg" xmlns:xlink="http://www.w3.org/1999/xlink" width="22.4731" height="22.4976">
 <g>
  <rect height="22.4976" opacity="0" width="22.4731" x="0" y="0"/>
  <path d="M3.83301 22.4976L18.6401 22.4976C21.2036 22.4976 22.4731 21.228 22.4731 18.7134L22.4731 3.80859C22.4731 1.29395 21.2036 0.0244141 18.6401 0.0244141L3.83301 0.0244141C1.28174 0.0244141 0 1.28174 0 3.80859L0 18.7134C0 21.2402 1.28174 22.4976 3.83301 22.4976ZM7.38525 17.5293C6.95801 17.5293 6.67725 17.1997 6.67725 16.6748L6.67725 6.14014C6.67725 5.61523 6.97021 5.29785 7.42188 5.29785L8.89893 5.29785C10.7422 5.29785 11.6699 6.45752 11.6699 8.82568C11.6699 10.3271 11.1084 11.6333 10.0952 12.146L11.5723 16.3086C11.6333 16.5039 11.6577 16.626 11.6577 16.7969C11.6577 17.2119 11.377 17.5293 10.9619 17.5293C10.6323 17.5293 10.3882 17.395 10.2539 17.0044L8.69141 12.4512L8.11768 12.4512L8.11768 16.7114C8.11768 17.2241 7.8125 17.5293 7.38525 17.5293ZM8.11768 11.0107L8.75244 11.0107C9.76562 11.0107 10.2051 10.2905 10.2051 8.87451C10.2051 7.4707 9.76562 6.75049 8.80127 6.75049L8.11768 6.75049ZM14.3799 17.5415C13.0615 17.5415 12.2437 16.6626 12.0972 15.3809C12.0728 15.2466 12.0728 15.1001 12.0728 14.9536C12.0728 14.4531 12.3291 14.1357 12.7686 14.1357C13.1836 14.1357 13.4277 14.4287 13.4644 14.9292C13.5254 15.7104 13.7939 16.1865 14.3921 16.1865C14.9536 16.1865 15.2588 15.7959 15.2588 15.0635C15.2588 14.4043 14.9902 13.9771 14.3555 13.6475L13.855 13.3789C12.6831 12.7686 12.1948 11.9629 12.1948 10.7422C12.1948 9.24072 13.0737 8.23975 14.3799 8.23975C15.686 8.23975 16.4185 9.2041 16.5527 10.4614C16.5649 10.5957 16.5771 10.7056 16.5771 10.8398C16.5771 11.3403 16.3208 11.6577 15.8813 11.6577C15.4541 11.6577 15.2344 11.3525 15.1978 10.8643C15.1245 10.0464 14.9536 9.61914 14.3677 9.61914C13.8794 9.61914 13.6108 10.022 13.6108 10.6934C13.6108 11.3037 13.8916 11.6699 14.563 12.0239L15.0513 12.2925C16.2598 12.9639 16.6992 13.7085 16.6992 14.9658C16.6992 16.5283 15.7837 17.5415 14.3799 17.5415Z" fill="#5ac8f5"/>
 </g>
</svg>
