<?xml version="1.0" encoding="UTF-8"?>
<!--Generator: Apple Native CoreSVG 175.5-->
<!DOCTYPE svg
PUBLIC "-//W3C//DTD SVG 1.1//EN"
       "http://www.w3.org/Graphics/SVG/1.1/DTD/svg11.dtd">
<svg version="1.1" xmlns="http://www.w3.org/2000/svg" xmlns:xlink="http://www.w3.org/1999/xlink" width="25.0721" height="28.36">
 <g>
  <rect height="28.36" opacity="0" width="25.0721" x="0" y="0"/>
  <path d="M0.304594 21.0587C-0.25693 22.0352-0.0494101 23.1217 0.988188 23.5733L11.7182 28.1876C12.2553 28.4195 12.7924 28.4195 13.3661 28.1754L24.0839 23.5733C25.1215 23.1217 25.329 22.0352 24.7675 21.0587L13.6835 1.71054C13.3417 1.1124 12.9267 1.00253 12.536 1.00253C12.1332 1.00253 11.7182 1.1124 11.3764 1.71054ZM2.28213 21.4249L12.3041 4.02988C12.3651 3.93222 12.4384 3.88339 12.536 3.88339C12.6337 3.88339 12.7069 3.92001 12.7558 4.02988L22.7899 21.4249C22.9731 21.7545 22.8632 22.023 22.5702 22.1573L12.9755 26.4908C12.6337 26.6495 12.4384 26.6495 12.121 26.5152L2.48965 22.1573C2.20889 22.023 2.09903 21.7545 2.28213 21.4249ZM11.6083 27.4308L13.4516 27.4308L13.4516 2.858L11.6083 2.858Z" fill="#5ac8f5"/>
 </g>
</svg>
