<?xml version="1.0" encoding="UTF-8"?>
<!--Generator: Apple Native CoreSVG 175.5-->
<!DOCTYPE svg
PUBLIC "-//W3C//DTD SVG 1.1//EN"
       "http://www.w3.org/Graphics/SVG/1.1/DTD/svg11.dtd">
<svg version="1.1" xmlns="http://www.w3.org/2000/svg" xmlns:xlink="http://www.w3.org/1999/xlink" width="24.9023" height="24.9146">
 <g>
  <rect height="24.9146" opacity="0" width="24.9023" x="0" y="0"/>
  <path d="M12.4512 24.9023C19.2627 24.9023 24.9023 19.2505 24.9023 12.4512C24.9023 5.63965 19.2505 0 12.439 0C5.63965 0 0 5.63965 0 12.4512C0 19.2505 5.65186 24.9023 12.4512 24.9023ZM8.25195 17.8833C6.54297 17.8833 5.2124 16.8335 4.87061 15.6738C4.83398 15.5151 4.80957 15.3809 4.80957 15.21C4.80957 14.7705 5.11475 14.4531 5.54199 14.4531C5.896 14.4531 6.10352 14.6484 6.26221 15.0513C6.604 15.9302 7.27539 16.4185 8.26416 16.4185C9.47266 16.4185 10.3149 15.686 10.3149 14.7095C10.3149 13.6841 9.5459 13.0127 8.36182 13.0127L7.61719 13.0127C7.20215 13.0127 6.92139 12.6953 6.92139 12.2925C6.92139 11.8286 7.21436 11.5356 7.61719 11.5356L8.30078 11.5356C9.30176 11.5356 9.99756 10.8765 9.99756 9.96094C9.99756 9.08203 9.30176 8.48389 8.31299 8.48389C7.32422 8.48389 6.72607 8.97217 6.44531 9.85107C6.32324 10.2539 6.11572 10.4492 5.7373 10.4492C5.29785 10.4492 5.01709 10.1318 5.01709 9.68018C5.01709 9.52148 5.01709 9.38721 5.05371 9.22852C5.3833 7.99561 6.64062 7.01904 8.34961 7.01904C10.2173 7.01904 11.5479 8.14209 11.5479 9.75342C11.5479 10.9375 10.7422 11.9873 9.69238 12.1582L9.69238 12.2314C10.9619 12.3657 11.9019 13.4399 11.9019 14.7827C11.9019 16.5894 10.4004 17.8833 8.25195 17.8833ZM14.3066 17.5903C13.855 17.5903 13.5742 17.2974 13.5742 16.8457C13.5742 16.5894 13.6597 16.3696 13.855 16.1621L17.1631 12.2559C17.7612 11.5601 18.4204 10.8521 18.4204 10.0342C18.4204 9.10645 17.7734 8.48389 16.7725 8.48389C15.8691 8.48389 15.2222 8.93555 14.9048 9.8877C14.7461 10.2661 14.5508 10.4736 14.1846 10.4736C13.7451 10.4736 13.4766 10.1685 13.4766 9.7168C13.4766 9.57031 13.501 9.42383 13.5376 9.26514C13.855 7.9834 15.1978 7.01904 16.6992 7.01904C18.6646 7.01904 19.9585 8.14209 19.9585 9.8999C19.9585 11.1572 19.2627 12.0605 18.335 13.147L15.8691 16.0034L15.8691 16.1011L19.519 16.1011C19.9219 16.1011 20.2148 16.3574 20.2148 16.8335C20.2148 17.2852 19.9219 17.5903 19.519 17.5903Z" fill="#5ac8f5"/>
 </g>
</svg>
