<?xml version="1.0" encoding="UTF-8"?>
<!--Generator: Apple Native CoreSVG 175.5-->
<!DOCTYPE svg
PUBLIC "-//W3C//DTD SVG 1.1//EN"
       "http://www.w3.org/Graphics/SVG/1.1/DTD/svg11.dtd">
<svg version="1.1" xmlns="http://www.w3.org/2000/svg" xmlns:xlink="http://www.w3.org/1999/xlink" width="29.4067" height="24.6948">
 <g>
  <rect height="24.6948" opacity="0" width="29.4067" x="0" y="0"/>
  <path d="M15.7959 24.4507C20.9351 24.4507 24.3652 22.6318 24.3652 19.9463C24.3652 17.5415 22.3145 17.0044 22.3145 15.5884C22.3145 13.6353 29.4067 13.2446 29.4067 8.22754C29.4067 3.27148 24.292 0 16.6992 0C6.72607 0 0 4.98047 0 12.439C0 19.6167 6.38428 24.4507 15.7959 24.4507ZM15.5273 19.7876C13.7451 19.7876 12.2803 18.335 12.2803 16.5405C12.2803 14.7583 13.7451 13.2935 15.5273 13.2935C17.3218 13.2935 18.7866 14.7583 18.7866 16.5405C18.7866 18.335 17.3218 19.7876 15.5273 19.7876ZM5.77393 13.9282C4.66309 13.9282 3.73535 13.0005 3.73535 11.8774C3.73535 10.8032 4.69971 9.86328 5.77393 9.86328C6.89697 9.86328 7.80029 10.7544 7.80029 11.8774C7.80029 13.0005 6.89697 13.9282 5.77393 13.9282ZM10.4614 9.60693C9.021 9.60693 7.87354 8.48389 7.87354 7.04346C7.87354 5.63965 9.021 4.5166 10.4614 4.5166C11.853 4.5166 13.0127 5.63965 13.0127 7.04346C13.0127 8.48389 11.8652 9.60693 10.4614 9.60693ZM16.9678 7.67822C15.8447 7.67822 14.8926 6.7627 14.8926 5.62744C14.8926 4.49219 15.8447 3.57666 16.9678 3.57666C18.1152 3.57666 19.0186 4.49219 19.0186 5.62744C19.0186 6.7627 18.1152 7.67822 16.9678 7.67822ZM22.7173 8.75244C21.7896 8.75244 21.0327 8.02002 21.0327 7.09229C21.0327 6.17676 21.7896 5.41992 22.7173 5.41992C23.6328 5.41992 24.3652 6.17676 24.3652 7.09229C24.3652 8.02002 23.6328 8.75244 22.7173 8.75244Z" fill="#5ac8f5"/>
 </g>
</svg>
