<?xml version="1.0" encoding="UTF-8"?>
<!--Generator: Apple Native CoreSVG 175.5-->
<!DOCTYPE svg
PUBLIC "-//W3C//DTD SVG 1.1//EN"
       "http://www.w3.org/Graphics/SVG/1.1/DTD/svg11.dtd">
<svg version="1.1" xmlns="http://www.w3.org/2000/svg" xmlns:xlink="http://www.w3.org/1999/xlink" width="25.9155" height="24.939">
 <g>
  <rect height="24.939" opacity="0" width="25.9155" x="0" y="0"/>
  <path d="M4.18701 9.38721L24.0479 9.38721C24.5605 9.38721 24.9268 9.021 24.9268 8.5083L24.9268 4.15039C24.9268 3.6499 24.5605 3.27148 24.0479 3.27148L4.18701 3.27148C3.67432 3.27148 3.2959 3.6499 3.2959 4.15039L3.2959 8.5083C3.2959 9.021 3.67432 9.38721 4.18701 9.38721ZM4.18701 17.1631L24.0479 17.1631C24.5605 17.1631 24.9268 16.7847 24.9268 16.2842L24.9268 11.9263C24.9268 11.4136 24.5605 11.0474 24.0479 11.0474L4.18701 11.0474C3.67432 11.0474 3.2959 11.4136 3.2959 11.9263L3.2959 16.2842C3.2959 16.7847 3.67432 17.1631 4.18701 17.1631ZM4.18701 24.9268L24.0479 24.9268C24.5605 24.9268 24.9268 24.5605 24.9268 24.0601L24.9268 19.6899C24.9268 19.1895 24.5605 18.8232 24.0479 18.8232L4.18701 18.8232C3.67432 18.8232 3.2959 19.1895 3.2959 19.6899L3.2959 24.0601C3.2959 24.5605 3.67432 24.9268 4.18701 24.9268Z" fill="#5ac8f5"/>
  <path d="M0 0.976562C0 1.51367 0.45166 1.96533 0.98877 1.96533L24.9268 1.96533C25.4639 1.96533 25.9155 1.51367 25.9155 0.976562C25.9155 0.439453 25.4639 0 24.9268 0L0.98877 0C0.45166 0 0 0.439453 0 0.976562ZM0.98877 4.79736C1.44043 4.79736 1.81885 4.41895 1.81885 3.96729C1.81885 3.50342 1.44043 3.13721 0.98877 3.13721C0.524902 3.13721 0.146484 3.50342 0.146484 3.96729C0.146484 4.41895 0.524902 4.79736 0.98877 4.79736ZM0.98877 7.62939C1.44043 7.62939 1.81885 7.23877 1.81885 6.78711C1.81885 6.33545 1.44043 5.95703 0.98877 5.95703C0.524902 5.95703 0.146484 6.33545 0.146484 6.78711C0.146484 7.23877 0.524902 7.62939 0.98877 7.62939ZM0.98877 10.4492C1.44043 10.4492 1.81885 10.0708 1.81885 9.61914C1.81885 9.15527 1.44043 8.78906 0.98877 8.78906C0.524902 8.78906 0.146484 9.15527 0.146484 9.61914C0.146484 10.0708 0.524902 10.4492 0.98877 10.4492ZM0.98877 16.4429C1.51367 16.4429 1.96533 16.0034 1.96533 15.4663L1.96533 12.5977C1.96533 12.0605 1.52588 11.6089 0.98877 11.6089C0.45166 11.6089 0 12.0605 0 12.5977L0 15.4663C0 16.0034 0.45166 16.4429 0.98877 16.4429Z" fill="#5ac8f5" fill-opacity="0.5"/>
 </g>
</svg>
