<?xml version="1.0" encoding="UTF-8"?>
<!--Generator: Apple Native CoreSVG 175.5-->
<!DOCTYPE svg
PUBLIC "-//W3C//DTD SVG 1.1//EN"
       "http://www.w3.org/Graphics/SVG/1.1/DTD/svg11.dtd">
<svg version="1.1" xmlns="http://www.w3.org/2000/svg" xmlns:xlink="http://www.w3.org/1999/xlink" width="25.7568" height="27.2339">
 <g>
  <rect height="27.2339" opacity="0" width="25.7568" x="0" y="0"/>
  <path d="M19.1772 26.3184L19.1772 3.10059C19.1772 1.09863 18.0786 0 16.0767 0L5.00488 0C2.99072 0 1.92871 1.09863 1.92871 3.10059L1.92871 26.3184L3.88184 26.3184L3.89404 3.125C3.89404 2.36816 4.26025 1.96533 5.0415 1.96533L16.04 1.96533C16.7969 1.96533 17.1997 2.35596 17.1997 3.125L17.1997 26.3184ZM0 26.2329C0 26.7822 0.427246 27.2339 0.964355 27.2339L20.1172 27.2339C20.6543 27.2339 21.0938 26.7822 21.0938 26.2329C21.0938 25.708 20.6543 25.2686 20.1172 25.2686L0.964355 25.2686C0.439453 25.2686 0 25.6958 0 26.2329ZM6.64062 13.4399L14.4409 13.4399C15.2588 13.4399 15.8203 12.9517 15.8203 12.207L15.8203 4.80957C15.8203 4.06494 15.2466 3.55225 14.4409 3.55225L6.64062 3.55225C5.83496 3.55225 5.28564 4.06494 5.28564 4.80957L5.28564 12.207C5.28564 12.9517 5.83496 13.4399 6.64062 13.4399ZM18.2373 16.0767L19.2993 16.0767C19.8608 16.0767 20.2026 16.394 20.2026 17.0044L20.2026 21.0449C20.2026 22.7783 21.2524 23.8281 22.9858 23.8281C24.7192 23.8281 25.7568 22.7783 25.7568 21.0449L25.7568 6.09131C25.7568 5.35889 25.5615 4.79736 25.2075 4.23584L23.5352 1.52588C22.9126 0.537109 21.46 1.42822 22.0703 2.4292L23.5107 4.74854C23.645 4.96826 23.6328 5.22461 23.4863 5.44434L21.8872 7.67822C21.3623 8.39844 21.4355 9.08203 21.9849 9.729L24.0356 12.1094L24.0356 21.0449C24.0356 21.7041 23.6328 22.1069 22.9858 22.1069C22.3267 22.1069 21.936 21.7041 21.936 21.0449L21.936 17.0044C21.936 15.3198 20.9351 14.3555 19.2993 14.3555L18.2373 14.3555Z" fill="#5ac8f5"/>
 </g>
</svg>
