<?xml version="1.0" encoding="UTF-8"?>
<!--Generator: Apple Native CoreSVG 175.5-->
<!DOCTYPE svg
PUBLIC "-//W3C//DTD SVG 1.1//EN"
       "http://www.w3.org/Graphics/SVG/1.1/DTD/svg11.dtd">
<svg version="1.1" xmlns="http://www.w3.org/2000/svg" xmlns:xlink="http://www.w3.org/1999/xlink" width="22.2168" height="22.229">
 <g>
  <rect height="22.229" opacity="0" width="22.2168" x="0" y="0"/>
  <path d="M20.7886 1.44043C19.5435 0.195312 17.7856 0 15.6982 0L6.48193 0C4.43115 0 2.67334 0.195312 1.42822 1.44043C0.183105 2.68555 0 4.43115 0 6.46973L0 15.6982C0 17.7856 0.183105 19.519 1.42822 20.7642C2.67334 22.0093 4.43115 22.2046 6.50635 22.2046L15.6982 22.2046C17.7856 22.2046 19.5435 22.0093 20.7886 20.7642C22.0337 19.519 22.2168 17.7856 22.2168 15.6982L22.2168 6.50635C22.2168 4.41895 22.0337 2.67334 20.7886 1.44043ZM11.1084 17.8711C7.4585 17.8711 4.37012 14.7827 4.37012 11.1206C4.37012 7.44629 7.43408 4.37012 11.1084 4.37012C14.7705 4.37012 17.8589 7.4585 17.8589 11.1206C17.8589 14.7949 14.7949 17.8711 11.1084 17.8711ZM6.22559 11.1206C6.22559 13.7817 8.45947 16.0156 11.1084 16.0156C12.1094 16.0156 13.0371 15.6982 13.8062 15.1611L7.06787 8.42285C6.55518 9.2041 6.22559 10.1318 6.22559 11.1206ZM8.41064 7.08008L15.1611 13.8184C15.6738 13.0371 16.0034 12.1094 16.0034 11.1206C16.0034 8.45947 13.7695 6.22559 11.1084 6.22559C10.1196 6.22559 9.19189 6.54297 8.41064 7.08008Z" fill="#5ac8f5"/>
 </g>
</svg>
