<?xml version="1.0" encoding="UTF-8"?>
<!--Generator: Apple Native CoreSVG 175.5-->
<!DOCTYPE svg
PUBLIC "-//W3C//DTD SVG 1.1//EN"
       "http://www.w3.org/Graphics/SVG/1.1/DTD/svg11.dtd">
<svg version="1.1" xmlns="http://www.w3.org/2000/svg" xmlns:xlink="http://www.w3.org/1999/xlink" width="24.9023" height="24.9146">
 <g>
  <rect height="24.9146" opacity="0" width="24.9023" x="0" y="0"/>
  <path d="M12.4512 24.9023C19.2627 24.9023 24.9023 19.2505 24.9023 12.4512C24.9023 5.63965 19.2505 0 12.439 0C5.63965 0 0 5.63965 0 12.4512C0 19.2505 5.65186 24.9023 12.4512 24.9023ZM12.4512 22.8271C6.68945 22.8271 2.0874 18.2129 2.0874 12.4512C2.0874 6.68945 6.67725 2.0752 12.439 2.0752C18.2007 2.0752 22.8271 6.68945 22.8271 12.4512C22.8271 18.2129 18.2129 22.8271 12.4512 22.8271Z" fill="#5ac8f5" fill-opacity="0.5"/>
  <path d="M7.83691 15.6494L17.0288 15.6494C17.6514 15.6494 18.0786 15.3442 18.0786 14.7339C18.0786 14.1113 17.6758 13.7939 17.0288 13.7939L7.83691 13.7939C7.17773 13.7939 6.7749 14.1113 6.7749 14.7339C6.7749 15.3442 7.20215 15.6494 7.83691 15.6494ZM7.83691 11.145L17.0288 11.145C17.6514 11.145 18.0786 10.8398 18.0786 10.2173C18.0786 9.59473 17.6758 9.27734 17.0288 9.27734L7.83691 9.27734C7.17773 9.27734 6.7749 9.59473 6.7749 10.2173C6.7749 10.8398 7.20215 11.145 7.83691 11.145Z" fill="#5ac8f5"/>
 </g>
</svg>
