<?xml version="1.0" encoding="UTF-8"?>
<!--Generator: Apple Native CoreSVG 175.5-->
<!DOCTYPE svg
PUBLIC "-//W3C//DTD SVG 1.1//EN"
       "http://www.w3.org/Graphics/SVG/1.1/DTD/svg11.dtd">
<svg version="1.1" xmlns="http://www.w3.org/2000/svg" xmlns:xlink="http://www.w3.org/1999/xlink" width="30.1599" height="27.8687">
 <g>
  <rect height="27.8687" opacity="0" width="30.1599" x="0" y="0"/>
  <path d="M0 24.2065C0 26.0864 0.90332 27.0142 2.7832 27.0142L19.458 27.0142C21.3257 27.0142 22.2412 26.0864 22.2412 24.2065L22.2412 2.81982C22.2412 0.939941 21.3257 0 19.458 0L17.0654 0C15.1978 0 14.2822 0.939941 14.2822 2.81982L14.2822 7.66602C14.0137 7.60498 13.6963 7.55615 13.3545 7.55615L8.03223 7.55615C7.67822 7.55615 7.37305 7.60498 7.09229 7.66602L7.09229 6.20117C7.09229 4.32129 6.18896 3.38135 4.32129 3.38135L2.7832 3.38135C0.90332 3.38135 0 4.32129 0 6.20117ZM1.84326 24.0601L1.84326 6.33545C1.84326 5.61523 2.22168 5.22461 2.97852 5.22461L4.12598 5.22461C4.88281 5.22461 5.24902 5.61523 5.24902 6.33545L5.24902 25.1709L2.97852 25.1709C2.22168 25.1709 1.84326 24.7803 1.84326 24.0601ZM7.09229 25.1709L7.09229 10.5103C7.09229 9.79004 7.4707 9.39941 8.22754 9.39941L13.1592 9.39941C13.916 9.39941 14.2822 9.79004 14.2822 10.5103L14.2822 25.1709ZM16.1255 25.1709L16.1255 2.9541C16.1255 2.23389 16.5039 1.84326 17.2607 1.84326L19.2627 1.84326C20.0317 1.84326 20.3979 2.23389 20.3979 2.9541L20.3979 24.0601C20.3979 24.7803 20.0317 25.1709 19.2627 25.1709ZM8.20312 11.7676C8.20312 12.1948 8.52051 12.5244 8.97217 12.5244L12.439 12.5244C12.8662 12.5244 13.1958 12.1948 13.1958 11.7676C13.1958 11.3525 12.8662 11.0229 12.439 11.0229L8.97217 11.0229C8.52051 11.0229 8.20312 11.3525 8.20312 11.7676ZM8.20312 22.8027C8.20312 23.23 8.52051 23.5596 8.97217 23.5596L12.439 23.5596C12.8662 23.5596 13.1958 23.23 13.1958 22.8027C13.1958 22.3877 12.8662 22.0581 12.439 22.0581L8.97217 22.0581C8.52051 22.0581 8.20312 22.3877 8.20312 22.8027ZM23.3398 24.5483C23.5718 26.4038 24.5605 27.2705 26.4282 27.0142L27.6978 26.8433C29.5654 26.5869 30.3345 25.5981 30.127 23.7427L28.0273 5.49316C27.8076 3.6377 26.8066 2.75879 24.939 3.02734L23.6694 3.19824C21.7896 3.4668 21.0083 4.44336 21.228 6.29883ZM25.1465 24.1821L23.0835 6.22559C22.998 5.50537 23.3276 5.10254 24.0845 4.99268L24.9634 4.88281C25.7202 4.77295 26.1353 5.13916 26.2207 5.84717L28.2837 23.8037C28.3691 24.5361 28.0396 24.9268 27.2949 25.0366L26.3916 25.1587C25.647 25.2686 25.2319 24.9146 25.1465 24.1821Z" fill="#5ac8f5"/>
 </g>
</svg>
