<?xml version="1.0" encoding="UTF-8"?>
<!--Generator: Apple Native CoreSVG 175.5-->
<!DOCTYPE svg
PUBLIC "-//W3C//DTD SVG 1.1//EN"
       "http://www.w3.org/Graphics/SVG/1.1/DTD/svg11.dtd">
<svg version="1.1" xmlns="http://www.w3.org/2000/svg" xmlns:xlink="http://www.w3.org/1999/xlink" width="24.9023" height="24.9146">
 <g>
  <rect height="24.9146" opacity="0" width="24.9023" x="0" y="0"/>
  <path d="M12.4512 24.9023C19.2627 24.9023 24.9023 19.2505 24.9023 12.4512C24.9023 5.63965 19.2505 0 12.439 0C5.63965 0 0 5.63965 0 12.4512C0 19.2505 5.65186 24.9023 12.4512 24.9023ZM12.4512 22.8271C6.68945 22.8271 2.0874 18.2129 2.0874 12.4512C2.0874 6.68945 6.67725 2.0752 12.439 2.0752C18.2007 2.0752 22.8271 6.68945 22.8271 12.4512C22.8271 18.2129 18.2129 22.8271 12.4512 22.8271Z" fill="#5ac8f5" fill-opacity="0.5"/>
  <path d="M8.25195 17.7124C10.3271 17.7124 11.7676 16.4673 11.7676 14.7095C11.7676 13.4155 10.8765 12.3657 9.64355 12.2437L9.64355 12.1704C10.6445 11.9995 11.438 10.9863 11.438 9.83887C11.438 8.27637 10.1562 7.18994 8.3374 7.18994C6.67725 7.18994 5.45654 8.12988 5.13916 9.32617C5.11475 9.48486 5.10254 9.60693 5.10254 9.76562C5.10254 10.2051 5.3833 10.5103 5.79834 10.5103C6.17676 10.5103 6.35986 10.3149 6.48193 9.92432C6.75049 9.06982 7.34863 8.59375 8.30078 8.59375C9.26514 8.59375 9.93652 9.17969 9.93652 10.0342C9.93652 10.9253 9.25293 11.5723 8.28857 11.5723L7.62939 11.5723C7.22656 11.5723 6.95801 11.853 6.95801 12.2925C6.95801 12.6831 7.22656 12.9883 7.62939 12.9883L8.3374 12.9883C9.50928 12.9883 10.2417 13.6475 10.2417 14.6362C10.2417 15.5884 9.43604 16.3086 8.26416 16.3086C7.2998 16.3086 6.62842 15.8325 6.31104 14.978C6.16455 14.5874 5.95703 14.3921 5.61523 14.3921C5.2002 14.3921 4.90723 14.6973 4.90723 15.1245C4.90723 15.2954 4.91943 15.4175 4.96826 15.5762C5.28564 16.6992 6.5918 17.7124 8.25195 17.7124ZM18.3105 17.688C18.7988 17.688 19.0552 17.3462 19.0552 16.8701L19.0552 15.4297L19.7266 15.4297C20.1416 15.4297 20.4102 15.1855 20.4102 14.7583C20.4102 14.3188 20.1416 14.0625 19.7266 14.0625L19.0552 14.0625L19.0552 8.34961C19.0552 7.6416 18.5669 7.18994 17.8589 7.18994C17.1509 7.18994 16.7114 7.4585 16.3208 8.12988C15.2954 9.83887 14.0625 11.9385 13.2446 13.4155C13.0493 13.7939 12.9761 14.0625 12.9761 14.3921C12.9761 15.0391 13.4033 15.4297 14.0137 15.4297L17.5781 15.4297L17.5781 16.8701C17.5781 17.334 17.8345 17.688 18.3105 17.688ZM17.5781 14.0625L14.563 14.0625L14.563 14.0137C15.2832 12.6343 16.5405 10.4858 17.5171 8.83789L17.5781 8.83789Z" fill="#5ac8f5"/>
 </g>
</svg>
