<?xml version="1.0" encoding="UTF-8"?>
<!--Generator: Apple Native CoreSVG 175.5-->
<!DOCTYPE svg
PUBLIC "-//W3C//DTD SVG 1.1//EN"
       "http://www.w3.org/Graphics/SVG/1.1/DTD/svg11.dtd">
<svg version="1.1" xmlns="http://www.w3.org/2000/svg" xmlns:xlink="http://www.w3.org/1999/xlink" width="24.9023" height="24.9146">
 <g>
  <rect height="24.9146" opacity="0" width="24.9023" x="0" y="0"/>
  <path d="M12.4512 24.9023C19.2627 24.9023 24.9023 19.2505 24.9023 12.4512C24.9023 5.63965 19.2505 0 12.439 0C5.63965 0 0 5.63965 0 12.4512C0 19.2505 5.65186 24.9023 12.4512 24.9023ZM12.4512 22.8271C6.68945 22.8271 2.0874 18.2129 2.0874 12.4512C2.0874 6.68945 6.67725 2.0752 12.439 2.0752C18.2007 2.0752 22.8271 6.68945 22.8271 12.4512C22.8271 18.2129 18.2129 22.8271 12.4512 22.8271ZM12.2803 19.519C15.0269 19.519 17.395 17.8345 18.2007 15.7471C18.4082 15.2832 18.1396 14.8926 17.6392 15.0635C17.1631 15.2344 16.3452 15.4053 15.5518 15.4053C12.0972 15.4053 9.87549 13.2202 9.87549 9.75342C9.87549 9.021 10.0708 8.02002 10.2661 7.4707C10.4614 7.00684 10.144 6.67725 9.60693 6.89697C7.23877 7.8125 5.65186 10.376 5.65186 13.0615C5.65186 16.8213 8.52051 19.519 12.2803 19.519ZM15.918 11.731C16.0645 11.731 16.1621 11.6089 16.1865 11.4624C16.4551 9.28955 16.5771 9.17969 18.7988 8.8501C18.9697 8.82568 19.0796 8.74023 19.0796 8.56934C19.0796 8.42285 18.9697 8.31299 18.8232 8.30078C16.5894 7.87354 16.5039 7.83691 16.1865 5.67627C16.1621 5.52979 16.0645 5.41992 15.918 5.41992C15.7715 5.41992 15.6738 5.52979 15.6494 5.67627C15.332 7.86133 15.271 7.9834 13.0127 8.30078C12.854 8.31299 12.7563 8.42285 12.7563 8.56934C12.7563 8.72803 12.854 8.82568 13.0127 8.8501C15.271 9.27734 15.3687 9.31396 15.6494 11.4624C15.6738 11.6089 15.7715 11.731 15.918 11.731Z" fill="#5ac8f5"/>
 </g>
</svg>
