<?xml version="1.0" encoding="UTF-8"?>
<!--Generator: Apple Native CoreSVG 175.5-->
<!DOCTYPE svg
PUBLIC "-//W3C//DTD SVG 1.1//EN"
       "http://www.w3.org/Graphics/SVG/1.1/DTD/svg11.dtd">
<svg version="1.1" xmlns="http://www.w3.org/2000/svg" xmlns:xlink="http://www.w3.org/1999/xlink" width="22.4731" height="22.4976">
 <g>
  <rect height="22.4976" opacity="0" width="22.4731" x="0" y="0"/>
  <path d="M3.83301 22.4976L18.6401 22.4976C21.2036 22.4976 22.4731 21.228 22.4731 18.7134L22.4731 3.80859C22.4731 1.29395 21.2036 0.0244141 18.6401 0.0244141L3.83301 0.0244141C1.28174 0.0244141 0 1.28174 0 3.80859L0 18.7134C0 21.2402 1.28174 22.4976 3.83301 22.4976ZM3.85742 20.5322C2.63672 20.5322 1.96533 19.8853 1.96533 18.6157L1.96533 3.90625C1.96533 2.63672 2.63672 1.98975 3.85742 1.98975L18.6157 1.98975C19.8242 1.98975 20.5078 2.63672 20.5078 3.90625L20.5078 18.6157C20.5078 19.8853 19.8242 20.5322 18.6157 20.5322Z" fill="#5ac8f5" fill-opacity="0.5"/>
  <path d="M6.99463 16.5039C9.10645 16.5039 10.4858 14.4897 10.4858 11.2427C10.4858 7.99561 9.10645 5.98145 6.99463 5.98145C4.89502 5.98145 3.50342 7.99561 3.50342 11.2427C3.50342 14.4897 4.89502 16.5039 6.99463 16.5039ZM6.99463 15.0269C5.83496 15.0269 5.11475 13.5864 5.11475 11.2427C5.11475 8.89893 5.83496 7.4585 6.99463 7.4585C8.1665 7.4585 8.88672 8.89893 8.88672 11.2427C8.88672 13.5864 8.17871 15.0269 6.99463 15.0269ZM15.4785 16.5039C17.5903 16.5039 18.9697 14.4897 18.9697 11.2427C18.9697 7.99561 17.5903 5.98145 15.4785 5.98145C13.3789 5.98145 11.9873 7.99561 11.9873 11.2427C11.9873 14.4897 13.3789 16.5039 15.4785 16.5039ZM15.4785 15.0269C14.3188 15.0269 13.5986 13.5864 13.5986 11.2427C13.5986 8.89893 14.3188 7.4585 15.4785 7.4585C16.6504 7.4585 17.3706 8.89893 17.3706 11.2427C17.3706 13.5864 16.6626 15.0269 15.4785 15.0269Z" fill="#5ac8f5"/>
 </g>
</svg>
