<?xml version="1.0" encoding="UTF-8"?>
<!--Generator: Apple Native CoreSVG 175.5-->
<!DOCTYPE svg
PUBLIC "-//W3C//DTD SVG 1.1//EN"
       "http://www.w3.org/Graphics/SVG/1.1/DTD/svg11.dtd">
<svg version="1.1" xmlns="http://www.w3.org/2000/svg" xmlns:xlink="http://www.w3.org/1999/xlink" width="24.9023" height="24.9146">
 <g>
  <rect height="24.9146" opacity="0" width="24.9023" x="0" y="0"/>
  <path d="M12.4512 24.9023C19.2627 24.9023 24.9023 19.2505 24.9023 12.4512C24.9023 5.63965 19.2505 0 12.439 0C5.63965 0 0 5.63965 0 12.4512C0 19.2505 5.65186 24.9023 12.4512 24.9023ZM7.32422 15.0513C7.32422 14.6973 7.55615 14.4165 7.93457 14.4165L9.021 14.4165L9.375 13.3545L7.93457 13.3545C7.55615 13.3545 7.32422 13.0859 7.32422 12.7319C7.32422 12.3779 7.55615 12.1094 7.93457 12.1094L9.79004 12.1094L11.4502 7.06787C11.6089 6.604 11.9019 6.33545 12.439 6.33545C12.9517 6.33545 13.2568 6.61621 13.4155 7.06787L15.0879 12.1094L16.9556 12.1094C17.334 12.1094 17.5659 12.3779 17.5659 12.7319C17.5659 13.0859 17.334 13.3545 16.9556 13.3545L15.5029 13.3545L15.8569 14.4165L16.9556 14.4165C17.334 14.4165 17.5659 14.6973 17.5659 15.0513C17.5659 15.4053 17.334 15.6616 16.9556 15.6616L16.2476 15.6616L16.8701 17.5049C16.9312 17.7002 16.9678 17.8223 16.9678 17.9321C16.9678 18.3594 16.626 18.6768 16.1377 18.6768C15.7227 18.6768 15.4663 18.4937 15.3442 18.0664L14.5874 15.6616L10.3027 15.6616L9.5459 18.0542C9.42383 18.4814 9.14307 18.6768 8.74023 18.6768C8.25195 18.6768 7.92236 18.3594 7.92236 17.9321C7.92236 17.8223 7.93457 17.7002 7.99561 17.5049L8.61816 15.6616L7.93457 15.6616C7.55615 15.6616 7.32422 15.4053 7.32422 15.0513ZM10.6689 14.4165L14.209 14.4165L13.8672 13.3545L11.0107 13.3545ZM11.3892 12.1094L13.4888 12.1094L12.439 8.74023Z" fill="#5ac8f5"/>
 </g>
</svg>
