<?xml version="1.0" encoding="UTF-8"?>
<!--Generator: Apple Native CoreSVG 175.5-->
<!DOCTYPE svg
PUBLIC "-//W3C//DTD SVG 1.1//EN"
       "http://www.w3.org/Graphics/SVG/1.1/DTD/svg11.dtd">
<svg version="1.1" xmlns="http://www.w3.org/2000/svg" xmlns:xlink="http://www.w3.org/1999/xlink" width="24.9023" height="24.9146">
 <g>
  <rect height="24.9146" opacity="0" width="24.9023" x="0" y="0"/>
  <path d="M12.4512 24.9023C19.2627 24.9023 24.9023 19.2505 24.9023 12.4512C24.9023 5.63965 19.2505 0 12.439 0C5.63965 0 0 5.63965 0 12.4512C0 19.2505 5.65186 24.9023 12.4512 24.9023ZM12.4512 22.8271C6.68945 22.8271 2.0874 18.2129 2.0874 12.4512C2.0874 6.68945 6.67725 2.0752 12.439 2.0752C18.2007 2.0752 22.8271 6.68945 22.8271 12.4512C22.8271 18.2129 18.2129 22.8271 12.4512 22.8271ZM12.3535 18.2617C14.8438 18.2617 16.5405 16.7114 16.5405 14.3555C16.5405 12.1948 14.9902 10.6934 12.7563 10.6934C11.7676 10.6934 10.7422 11.1328 10.3027 11.7432L10.2173 11.7432L10.498 8.42285L15.3687 8.42285C15.7959 8.42285 16.1011 8.10547 16.1011 7.66602C16.1011 7.22656 15.8081 6.92139 15.3687 6.92139L10.3271 6.92139C9.53369 6.92139 9.00879 7.36084 8.94775 8.06885L8.61816 12.1338C8.56934 12.8296 8.97217 13.2935 9.65576 13.2935C10.1074 13.2935 10.376 13.1958 10.8521 12.8296C11.438 12.3291 11.9019 12.146 12.5366 12.146C13.8306 12.146 14.6973 13.0493 14.6973 14.3921C14.6973 15.7349 13.6719 16.7358 12.3291 16.7358C11.3281 16.7358 10.4736 16.2354 10.0708 15.4297C9.85107 15.0391 9.55811 14.8438 9.2041 14.8438C8.71582 14.8438 8.38623 15.1855 8.38623 15.6494C8.38623 15.8569 8.43506 16.0522 8.5083 16.2354C8.99658 17.4805 10.4126 18.2617 12.3535 18.2617Z" fill="#5ac8f5"/>
 </g>
</svg>
