<?xml version="1.0" encoding="UTF-8"?>
<!--Generator: Apple Native CoreSVG 175.5-->
<!DOCTYPE svg
PUBLIC "-//W3C//DTD SVG 1.1//EN"
       "http://www.w3.org/Graphics/SVG/1.1/DTD/svg11.dtd">
<svg version="1.1" xmlns="http://www.w3.org/2000/svg" xmlns:xlink="http://www.w3.org/1999/xlink" width="22.4731" height="22.4976">
 <g>
  <rect height="22.4976" opacity="0" width="22.4731" x="0" y="0"/>
  <path d="M3.83301 22.4976L18.6401 22.4976C21.2036 22.4976 22.4731 21.228 22.4731 18.7134L22.4731 3.80859C22.4731 1.29395 21.2036 0.0244141 18.6401 0.0244141L3.83301 0.0244141C1.28174 0.0244141 0 1.28174 0 3.80859L0 18.7134C0 21.2402 1.28174 22.4976 3.83301 22.4976ZM3.85742 20.5322C2.63672 20.5322 1.96533 19.8853 1.96533 18.6157L1.96533 3.90625C1.96533 2.63672 2.63672 1.98975 3.85742 1.98975L18.6157 1.98975C19.8242 1.98975 20.5078 2.63672 20.5078 3.90625L20.5078 18.6157C20.5078 19.8853 19.8242 20.5322 18.6157 20.5322ZM7.36084 15.6494C7.80029 15.6494 8.11768 15.3442 8.11768 14.8804L8.11768 10.0464C8.11768 9.14307 8.58154 8.54492 9.36279 8.54492C10.0342 8.54492 10.5103 9.08203 10.5103 9.85107L10.5103 10.3394L7.94678 17.4438C7.89795 17.5537 7.87354 17.6636 7.87354 17.7856C7.87354 18.103 8.11768 18.3472 8.44727 18.3472C8.72803 18.3472 8.92334 18.1885 9.0332 17.9077L10.5103 13.7939L10.5103 14.8804C10.5103 15.3442 10.8276 15.6494 11.2671 15.6494C11.7065 15.6494 12.0117 15.3442 12.0117 14.8804L12.0117 9.98535C12.0117 9.10645 12.4756 8.55713 13.2324 8.55713C13.9771 8.55713 14.4165 9.08203 14.4165 9.93652L14.4165 14.8804C14.4165 15.3442 14.7217 15.6494 15.1611 15.6494C15.6006 15.6494 15.918 15.3442 15.918 14.8804L15.918 9.81445C15.918 8.17871 15.0024 7.18994 13.5864 7.18994C13.3911 7.18994 13.208 7.22656 13.0493 7.2876L13.9771 5.0293C14.0137 4.93164 14.0503 4.82178 14.0503 4.69971C14.0503 4.38232 13.7939 4.15039 13.4644 4.15039C13.1836 4.15039 13.0005 4.30908 12.8906 4.57764L11.4014 8.21533C11.0596 7.51953 10.4492 7.18994 9.68018 7.18994C8.98438 7.18994 8.41064 7.49512 8.04443 8.1665L8.04443 8.02002C8.04443 7.49512 7.73926 7.22656 7.32422 7.22656C6.89697 7.22656 6.5918 7.53174 6.5918 7.9834L6.5918 14.9048C6.5918 15.3442 6.90918 15.6494 7.36084 15.6494Z" fill="#5ac8f5"/>
 </g>
</svg>
