<?xml version="1.0" encoding="UTF-8"?>
<!--Generator: Apple Native CoreSVG 175.5-->
<!DOCTYPE svg
PUBLIC "-//W3C//DTD SVG 1.1//EN"
       "http://www.w3.org/Graphics/SVG/1.1/DTD/svg11.dtd">
<svg version="1.1" xmlns="http://www.w3.org/2000/svg" xmlns:xlink="http://www.w3.org/1999/xlink" width="29.7852" height="22.7173">
 <g>
  <rect height="22.7173" opacity="0" width="29.7852" x="0" y="0"/>
  <path d="M18.7622 14.3921L26.7944 14.3921C28.6987 14.3921 29.7852 13.3179 29.7852 11.4624L29.7852 3.40576C29.7852 1.53809 28.6987 0.463867 26.7944 0.463867L18.7622 0.463867C16.8701 0.463867 15.7837 1.53809 15.7837 3.40576L15.7837 11.4624C15.7837 13.3179 16.8701 14.3921 18.7622 14.3921ZM18.7866 12.4634C18.0664 12.4634 17.7124 12.1094 17.7124 11.377L17.7124 3.479C17.7124 2.74658 18.0664 2.39258 18.7866 2.39258L26.77 2.39258C27.5146 2.39258 27.8564 2.74658 27.8564 3.479L27.8564 11.377C27.8564 12.1094 27.5146 12.4634 26.77 12.4634Z" fill="#5ac8f5" fill-opacity="0.5"/>
  <path d="M2.89307 14.2334L10.7666 14.2334C12.6099 14.2334 13.6841 13.1836 13.6841 11.3647L13.6841 3.49121C13.6841 1.67236 12.6099 0.622559 10.7666 0.622559L2.89307 0.622559C1.06201 0.622559 0 1.66016 0 3.49121L0 11.3647C0 13.1958 1.06201 14.2334 2.89307 14.2334ZM0.927734 18.7988C0.427246 18.7988 0 19.2383 0 19.7876C0 20.3369 0.427246 20.7642 0.927734 20.7642L4.87061 20.7642L4.87061 18.7988ZM6.99463 22.7173C8.60596 22.7173 9.92432 21.3989 9.92432 19.7876C9.92432 18.1641 8.60596 16.8457 6.99463 16.8457C5.3833 16.8457 4.06494 18.1641 4.06494 19.7876C4.06494 21.3989 5.3833 22.7173 6.99463 22.7173ZM6.99463 21.2158C6.18896 21.2158 5.56641 20.5811 5.56641 19.7754C5.56641 18.9697 6.18896 18.3472 6.99463 18.3472C7.78809 18.3472 8.42285 18.9697 8.42285 19.7754C8.42285 20.5811 7.78809 21.2158 6.99463 21.2158ZM8.93555 18.7988L8.93555 20.7642L28.7964 20.7642C29.3457 20.7642 29.7852 20.3369 29.7852 19.7876C29.7852 19.2383 29.3457 18.7988 28.7964 18.7988Z" fill="#5ac8f5"/>
 </g>
</svg>
