<?xml version="1.0" encoding="UTF-8"?>
<!--Generator: Apple Native CoreSVG 175.5-->
<!DOCTYPE svg
PUBLIC "-//W3C//DTD SVG 1.1//EN"
       "http://www.w3.org/Graphics/SVG/1.1/DTD/svg11.dtd">
<svg version="1.1" xmlns="http://www.w3.org/2000/svg" xmlns:xlink="http://www.w3.org/1999/xlink" width="25.5737" height="27.063">
 <g>
  <rect height="27.063" opacity="0" width="25.5737" x="0" y="0"/>
  <path d="M3.83301 27.0264L21.7407 27.0264C24.2798 27.0264 25.5737 25.7568 25.5737 23.2422L25.5737 10.7056C25.5737 8.19092 24.2798 6.92139 21.7407 6.92139L3.83301 6.92139C1.26953 6.92139 0 8.19092 0 10.7056L0 23.2422C0 25.7568 1.26953 27.0264 3.83301 27.0264ZM3.85742 25.061C2.63672 25.061 1.96533 24.4019 1.96533 23.1323L1.96533 10.8154C1.96533 9.5459 2.63672 8.88672 3.85742 8.88672L21.7041 8.88672C22.9126 8.88672 23.6084 9.5459 23.6084 10.8154L23.6084 23.1323C23.6084 24.4019 22.9126 25.061 21.7041 25.061ZM2.57568 4.95605L23.0103 4.95605C22.8271 3.84521 22.3022 3.23486 21.0815 3.23486L4.50439 3.23486C3.28369 3.23486 2.75879 3.84521 2.57568 4.95605ZM5.09033 1.57471L20.4956 1.57471C20.4224 0.537109 19.8364 0 18.7012 0L6.87256 0C5.74951 0 5.16357 0.537109 5.09033 1.57471ZM13.3789 21.8994C13.6108 21.8994 13.7695 21.7407 13.8184 21.5088C14.4897 17.9199 14.8193 17.2485 18.5547 16.748C18.7988 16.7114 18.9697 16.5405 18.9697 16.3086C18.9697 16.0767 18.7988 15.9058 18.5547 15.8569C14.8315 15.3564 14.3555 14.6484 13.8184 11.1206C13.7817 10.8765 13.6108 10.7178 13.3789 10.7178C13.1592 10.7178 12.9761 10.8643 12.9272 11.1084C12.2559 14.7095 11.9263 15.3564 8.19092 15.8569C7.94678 15.9058 7.78809 16.0767 7.78809 16.3086C7.78809 16.5405 7.94678 16.7114 8.19092 16.748C11.9385 17.1265 12.4023 17.9199 12.9272 21.4966C12.9639 21.7407 13.1348 21.8994 13.3789 21.8994ZM8.58154 23.8892C8.74023 23.8892 8.87451 23.7793 8.91113 23.6206C9.25293 21.8384 9.13086 21.7529 11.0718 21.46C11.2427 21.4355 11.3525 21.2891 11.3525 21.1182C11.3525 20.9595 11.2427 20.813 11.0718 20.7886C9.13086 20.4712 9.25293 20.3857 8.91113 18.6646C8.87451 18.4814 8.75244 18.3472 8.58154 18.3472C8.41064 18.3472 8.28857 18.4692 8.23975 18.6646C7.88574 20.3857 8.03223 20.4712 6.09131 20.7886C5.9082 20.813 5.81055 20.9595 5.81055 21.1182C5.81055 21.3135 5.9082 21.4355 6.11572 21.46C8.03223 21.7529 7.88574 21.8384 8.23975 23.584C8.28857 23.7671 8.39844 23.8892 8.58154 23.8892Z" fill="#5ac8f5"/>
 </g>
</svg>
