<?xml version="1.0" encoding="UTF-8"?>
<!--Generator: Apple Native CoreSVG 175.5-->
<!DOCTYPE svg
PUBLIC "-//W3C//DTD SVG 1.1//EN"
       "http://www.w3.org/Graphics/SVG/1.1/DTD/svg11.dtd">
<svg version="1.1" xmlns="http://www.w3.org/2000/svg" xmlns:xlink="http://www.w3.org/1999/xlink" width="22.4731" height="22.4976">
 <g>
  <rect height="22.4976" opacity="0" width="22.4731" x="0" y="0"/>
  <path d="M3.83301 22.4976L18.6401 22.4976C21.2036 22.4976 22.4731 21.228 22.4731 18.7134L22.4731 3.80859C22.4731 1.29395 21.2036 0.0244141 18.6401 0.0244141L3.83301 0.0244141C1.28174 0.0244141 0 1.28174 0 3.80859L0 18.7134C0 21.2402 1.28174 22.4976 3.83301 22.4976Z" fill="#5ac8f5" fill-opacity="0.25"/>
  <path d="M6.61621 10.5347C6.61621 10.1562 6.87256 9.8999 7.22656 9.8999L7.99561 9.8999L7.99561 9.10645L7.22656 9.10645C6.87256 9.10645 6.61621 8.82568 6.61621 8.47168C6.61621 8.10547 6.87256 7.86133 7.22656 7.86133L7.99561 7.86133L7.99561 6.35986C7.99561 5.84717 8.31299 5.51758 8.81348 5.51758L11.853 5.51758C13.5742 5.51758 14.8926 6.43311 15.4541 7.86133L16.3086 7.86133C16.6748 7.86133 16.9189 8.10547 16.9189 8.47168C16.9189 8.82568 16.6748 9.10645 16.3086 9.10645L15.7349 9.10645C15.7471 9.26514 15.7471 9.375 15.7471 9.50928C15.7471 9.63135 15.7471 9.77783 15.7349 9.8999L16.3086 9.8999C16.6748 9.8999 16.9189 10.1562 16.9189 10.5347C16.9189 10.8765 16.6748 11.145 16.3086 11.145L15.4663 11.145C14.8926 12.5977 13.5742 13.5254 11.853 13.5254L9.65576 13.5254L9.65576 16.7358C9.65576 17.2119 9.31396 17.5537 8.83789 17.5537C8.36182 17.5537 7.99561 17.2119 7.99561 16.7358L7.99561 11.145L7.22656 11.145C6.87256 11.145 6.61621 10.8765 6.61621 10.5347ZM9.66797 12.0117L11.5967 12.0117C12.5 12.0117 13.1836 11.7065 13.6108 11.145L9.66797 11.145ZM9.66797 9.8999L14.1113 9.8999C14.1235 9.77783 14.1235 9.63135 14.1235 9.50928C14.1235 9.36279 14.1235 9.22852 14.1113 9.10645L9.66797 9.10645ZM9.66797 7.86133L13.5986 7.86133C13.1836 7.32422 12.5 7.01904 11.5967 7.01904L9.66797 7.01904Z" fill="#5ac8f5"/>
 </g>
</svg>
