<?xml version="1.0" encoding="UTF-8"?>
<!--Generator: Apple Native CoreSVG 175.5-->
<!DOCTYPE svg
PUBLIC "-//W3C//DTD SVG 1.1//EN"
       "http://www.w3.org/Graphics/SVG/1.1/DTD/svg11.dtd">
<svg version="1.1" xmlns="http://www.w3.org/2000/svg" xmlns:xlink="http://www.w3.org/1999/xlink" width="26.9043" height="26.8188">
 <g>
  <rect height="26.8188" opacity="0" width="26.9043" x="0" y="0"/>
  <path d="M7.50732 26.8188C8.10547 26.8188 8.52051 26.5015 9.26514 25.8423L13.4766 22.0947L21.3135 22.0947C24.9512 22.0947 26.9043 20.0806 26.9043 16.5039L26.9043 7.15332C26.9043 3.57666 24.9512 1.5625 21.3135 1.5625L5.59082 1.5625C1.95312 1.5625 0 3.56445 0 7.15332L0 16.5039C0 20.0928 1.95312 22.0947 5.59082 22.0947L6.17676 22.0947L6.17676 25.2686C6.17676 26.2085 6.65283 26.8188 7.50732 26.8188ZM8.00781 24.585L8.00781 21.0449C8.00781 20.3857 7.75146 20.1294 7.09229 20.1294L5.59082 20.1294C3.125 20.1294 1.96533 18.8721 1.96533 16.4917L1.96533 7.15332C1.96533 4.77295 3.125 3.52783 5.59082 3.52783L21.3135 3.52783C23.7671 3.52783 24.939 4.77295 24.939 7.15332L24.939 16.4917C24.939 18.8721 23.7671 20.1294 21.3135 20.1294L13.4033 20.1294C12.7197 20.1294 12.3779 20.2271 11.9141 20.7031Z" fill="#5ac8f5" fill-opacity="0.5"/>
  <path d="M7.55615 10.5225C7.55615 11.9141 8.42285 12.9883 9.80225 12.9883C10.3149 12.9883 10.8276 12.9028 11.145 12.5L11.2427 12.5C10.791 13.5132 9.85107 14.1602 9.05762 14.3677C8.60596 14.4897 8.47168 14.6851 8.47168 14.978C8.47168 15.2832 8.72803 15.5396 9.06982 15.5396C10.3027 15.5396 12.7808 14.0747 12.7808 10.9741C12.7808 9.31396 11.7065 8.05664 10.1196 8.05664C8.65479 8.05664 7.55615 9.06982 7.55615 10.5225ZM14.1479 10.5225C14.1479 11.9141 15.0146 12.9883 16.394 12.9883C16.9067 12.9883 17.4194 12.9028 17.7368 12.5L17.8345 12.5C17.3828 13.5132 16.4429 14.1602 15.6494 14.3677C15.21 14.4897 15.0635 14.6851 15.0635 14.978C15.0635 15.2832 15.3198 15.5396 15.6616 15.5396C16.8945 15.5396 19.3726 14.0747 19.3726 10.9741C19.3726 9.31396 18.2983 8.05664 16.7114 8.05664C15.2466 8.05664 14.1479 9.06982 14.1479 10.5225Z" fill="#5ac8f5"/>
 </g>
</svg>
