<?xml version="1.0" encoding="UTF-8"?>
<!--Generator: Apple Native CoreSVG 175.5-->
<!DOCTYPE svg
PUBLIC "-//W3C//DTD SVG 1.1//EN"
       "http://www.w3.org/Graphics/SVG/1.1/DTD/svg11.dtd">
<svg version="1.1" xmlns="http://www.w3.org/2000/svg" xmlns:xlink="http://www.w3.org/1999/xlink" width="25.4959" height="27.6489">
 <g>
  <rect height="27.6489" opacity="0" width="25.4959" x="0" y="0"/>
  <path d="M16.803 13.9771L23.7122 9.97314C24.6887 9.39941 25.0793 8.94775 25.0793 8.27637C25.0793 7.61719 24.6887 7.16553 23.7122 6.5918L14.1541 1.0498C13.5681 0.708008 13.092 0.549316 12.6038 0.549316C12.1155 0.549316 11.6394 0.708008 11.0535 1.0498L6.50024 3.68652L8.00171 5.17578L12.0667 2.84424C12.262 2.73438 12.4329 2.67334 12.6038 2.67334C12.7747 2.67334 12.9456 2.73438 13.1409 2.84424L22.4304 8.1665C22.4915 8.19092 22.5281 8.22754 22.5281 8.27637C22.5281 8.3374 22.4915 8.37402 22.4304 8.39844L15.3137 12.4756ZM1.49536 9.97314L10.2722 15.0635C10.7727 15.3687 11.2122 15.5396 11.6516 15.625L6.63452 10.6079C5.34058 9.87549 4.07104 9.13086 2.7771 8.39844C2.64282 8.3252 2.66724 8.22754 2.7771 8.1665C3.07007 7.99561 3.36304 7.8125 3.66821 7.65381L2.19116 6.18896L1.49536 6.5918C0.518799 7.17773 0.128174 7.61719 0.128174 8.27637C0.128174 8.94775 0.518799 9.39941 1.49536 9.97314ZM20.6238 17.7734L23.7122 15.979C24.6887 15.4053 25.0793 14.9658 25.0793 14.2944C25.0793 13.623 24.6887 13.1836 23.7122 12.5977L20.5139 10.7422L18.6218 11.9995L22.4304 14.1724C22.4915 14.1968 22.5281 14.2334 22.5281 14.2944C22.5281 14.3555 22.4915 14.3799 22.4304 14.4165L19.1467 16.2964ZM12.6038 22.0337C13.092 22.0337 13.5681 21.875 14.1541 21.5332L16.3025 20.2759L14.801 18.7744L13.1409 19.7266C12.9456 19.8364 12.7747 19.8975 12.6038 19.8975C12.4329 19.8975 12.262 19.8364 12.0667 19.7266L2.7771 14.4165C2.71606 14.3799 2.67944 14.3555 2.67944 14.2944C2.67944 14.2334 2.71606 14.1968 2.7771 14.1724L6.89087 11.8164L4.92554 10.6201L1.49536 12.5977C0.518799 13.1836 0.128174 13.623 0.128174 14.2944C0.128174 14.9658 0.518799 15.4053 1.49536 15.979L11.0535 21.5332C11.6394 21.875 12.1155 22.0337 12.6038 22.0337ZM20.7947 16.5283L20.1111 16.9556L24.5789 20.9473C25.4456 20.0439 25.177 19.0796 23.7122 18.2251ZM18.3777 22.3633L13.1409 25.354C12.9456 25.4639 12.7747 25.5249 12.6038 25.5249C12.4329 25.5249 12.262 25.4639 12.0667 25.354L2.7771 20.0317C2.71606 20.0073 2.67944 19.9707 2.67944 19.9097C2.67944 19.8608 2.71606 19.8242 2.7771 19.7998L6.5979 17.6147L4.54712 16.4551L1.49536 18.2251C0.518799 18.7988 0.128174 19.2505 0.128174 19.9097C0.128174 20.5811 0.518799 21.0327 1.49536 21.6064L11.0535 27.1484C11.6394 27.4902 12.1155 27.6489 12.6038 27.6489C13.092 27.6489 13.5681 27.4902 14.1541 27.1484L19.8669 23.8403Z" fill="#5ac8f5" fill-opacity="0.5"/>
  <path d="M23.8953 25.7812C24.2615 26.1475 24.8596 26.1475 25.2258 25.7812C25.5798 25.415 25.592 24.8169 25.2258 24.4507L1.61743 0.854492C1.25122 0.488281 0.640869 0.488281 0.274658 0.854492C-0.0915527 1.2085-0.0915527 1.83105 0.274658 2.18506Z" fill="#5ac8f5"/>
 </g>
</svg>
