<?xml version="1.0" encoding="UTF-8"?>
<!--Generator: Apple Native CoreSVG 175.5-->
<!DOCTYPE svg
PUBLIC "-//W3C//DTD SVG 1.1//EN"
       "http://www.w3.org/Graphics/SVG/1.1/DTD/svg11.dtd">
<svg version="1.1" xmlns="http://www.w3.org/2000/svg" xmlns:xlink="http://www.w3.org/1999/xlink" width="28.7842" height="22.4731">
 <g>
  <rect height="22.4731" opacity="0" width="28.7842" x="0" y="0"/>
  <path d="M6.22559 6.15234L16.5527 6.15234C16.9922 6.15234 17.3096 5.82275 17.3096 5.39551C17.3096 4.98047 16.9922 4.65088 16.5527 4.65088L6.22559 4.65088C5.78613 4.65088 5.46875 4.98047 5.46875 5.39551C5.46875 5.82275 5.78613 6.15234 6.22559 6.15234ZM6.22559 17.8101L16.5527 17.8101C16.9922 17.8101 17.3096 17.4927 17.3096 17.0776C17.3096 16.6504 16.9922 16.3086 16.5527 16.3086L6.22559 16.3086C5.78613 16.3086 5.46875 16.6504 5.46875 17.0776C5.46875 17.4927 5.78613 17.8101 6.22559 17.8101ZM3.83301 22.4731L24.9512 22.4731C27.5146 22.4731 28.7842 21.2158 28.7842 18.7012L28.7842 3.78418C28.7842 1.26953 27.5146 0 24.9512 0L3.83301 0C1.28174 0 0 1.26953 0 3.78418L0 18.7012C0 21.2158 1.28174 22.4731 3.83301 22.4731ZM3.85742 20.5078C2.63672 20.5078 1.96533 19.8608 1.96533 18.5913L1.96533 3.89404C1.96533 2.62451 2.63672 1.96533 3.85742 1.96533L24.9268 1.96533C26.1353 1.96533 26.8188 2.62451 26.8188 3.89404L26.8188 18.5913C26.8188 19.8608 26.1353 20.5078 24.9268 20.5078Z" fill="#5ac8f5" fill-opacity="0.5"/>
  <path d="M5.13916 14.1113L23.6572 14.1113C24.6704 14.1113 25.2686 13.4766 25.2686 12.4756L25.2686 9.98535C25.2686 8.98438 24.6704 8.34961 23.6572 8.34961L5.13916 8.34961C4.12598 8.34961 3.52783 8.98438 3.52783 9.98535L3.52783 12.4756C3.52783 13.4766 4.12598 14.1113 5.13916 14.1113Z" fill="#5ac8f5"/>
  <path d="M6.23779 11.9873C5.79834 11.9873 5.46875 11.6577 5.46875 11.2305C5.46875 10.8154 5.79834 10.4858 6.23779 10.4858L12.2437 10.4858C12.6831 10.4858 13.0005 10.8154 13.0005 11.2305C13.0005 11.6577 12.6831 11.9873 12.2437 11.9873Z" fill="#1e1e1e"/>
 </g>
</svg>
