<?xml version="1.0" encoding="UTF-8"?>
<!--Generator: Apple Native CoreSVG 175.5-->
<!DOCTYPE svg
PUBLIC "-//W3C//DTD SVG 1.1//EN"
       "http://www.w3.org/Graphics/SVG/1.1/DTD/svg11.dtd">
<svg version="1.1" xmlns="http://www.w3.org/2000/svg" xmlns:xlink="http://www.w3.org/1999/xlink" width="22.4243" height="22.4487">
 <g>
  <rect height="22.4487" opacity="0" width="22.4243" x="0" y="0"/>
  <path d="M1.0376 22.4487C1.61133 22.4487 2.0752 21.9727 2.0752 21.4111C2.0752 20.8374 1.61133 20.3735 1.0376 20.3735C0.463867 20.3735 0 20.8374 0 21.4111C0 21.9727 0.463867 22.4487 1.0376 22.4487ZM1.0376 19.0308C1.61133 19.0308 2.0752 18.5669 2.0752 17.9932C2.0752 17.4194 1.61133 16.9556 1.0376 16.9556C0.463867 16.9556 0 17.4194 0 17.9932C0 18.5669 0.463867 19.0308 1.0376 19.0308ZM1.0376 15.6494C1.61133 15.6494 2.0752 15.1855 2.0752 14.6118C2.0752 14.0381 1.61133 13.5742 1.0376 13.5742C0.463867 13.5742 0 14.0381 0 14.6118C0 15.1855 0.463867 15.6494 1.0376 15.6494ZM1.0376 12.2559C1.61133 12.2559 2.0752 11.792 2.0752 11.2183C2.0752 10.6445 1.61133 10.1807 1.0376 10.1807C0.463867 10.1807 0 10.6445 0 11.2183C0 11.792 0.463867 12.2559 1.0376 12.2559ZM1.0376 8.8501C1.61133 8.8501 2.0752 8.38623 2.0752 7.82471C2.0752 7.25098 1.61133 6.78711 1.0376 6.78711C0.463867 6.78711 0 7.25098 0 7.82471C0 8.38623 0.463867 8.8501 1.0376 8.8501ZM1.0376 5.49316C1.61133 5.49316 2.0752 5.0293 2.0752 4.45557C2.0752 3.88184 1.61133 3.41797 1.0376 3.41797C0.463867 3.41797 0 3.88184 0 4.45557C0 5.0293 0.463867 5.49316 1.0376 5.49316ZM1.0376 2.09961C1.61133 2.09961 2.0752 1.63574 2.0752 1.06201C2.0752 0.488281 1.61133 0.0244141 1.0376 0.0244141C0.463867 0.0244141 0 0.488281 0 1.06201C0 1.63574 0.463867 2.09961 1.0376 2.09961ZM4.43115 2.09961C5.00488 2.09961 5.46875 1.63574 5.46875 1.06201C5.46875 0.488281 5.00488 0.0244141 4.43115 0.0244141C3.85742 0.0244141 3.39355 0.488281 3.39355 1.06201C3.39355 1.63574 3.85742 2.09961 4.43115 2.09961ZM7.8125 2.09961C8.38623 2.09961 8.8501 1.63574 8.8501 1.06201C8.8501 0.488281 8.38623 0.0244141 7.8125 0.0244141C7.23877 0.0244141 6.7749 0.488281 6.7749 1.06201C6.7749 1.63574 7.23877 2.09961 7.8125 2.09961ZM11.2061 2.09961C11.7798 2.09961 12.2437 1.63574 12.2437 1.06201C12.2437 0.488281 11.7798 0.0244141 11.2061 0.0244141C10.6445 0.0244141 10.1685 0.488281 10.1685 1.06201C10.1685 1.63574 10.6445 2.09961 11.2061 2.09961ZM14.6118 2.09961C15.1733 2.09961 15.6494 1.63574 15.6494 1.06201C15.6494 0.488281 15.1733 0.0244141 14.6118 0.0244141C14.0381 0.0244141 13.5742 0.488281 13.5742 1.06201C13.5742 1.63574 14.0381 2.09961 14.6118 2.09961ZM17.9932 2.09961C18.5547 2.09961 19.0186 1.63574 19.0186 1.06201C19.0186 0.488281 18.5547 0.0244141 17.9932 0.0244141C17.4194 0.0244141 16.9556 0.488281 16.9556 1.06201C16.9556 1.63574 17.4194 2.09961 17.9932 2.09961ZM21.3867 2.09961C21.9604 2.09961 22.4243 1.63574 22.4243 1.06201C22.4243 0.488281 21.9604 0.0244141 21.3867 0.0244141C20.813 0.0244141 20.3491 0.488281 20.3491 1.06201C20.3491 1.63574 20.813 2.09961 21.3867 2.09961ZM21.3867 5.50537C21.9604 5.50537 22.4243 5.0415 22.4243 4.46777C22.4243 3.89404 21.9604 3.43018 21.3867 3.43018C20.813 3.43018 20.3491 3.89404 20.3491 4.46777C20.3491 5.0415 20.813 5.50537 21.3867 5.50537ZM21.3867 8.8623C21.9604 8.8623 22.4243 8.39844 22.4243 7.83691C22.4243 7.26318 21.9604 6.79932 21.3867 6.79932C20.813 6.79932 20.3491 7.26318 20.3491 7.83691C20.3491 8.39844 20.813 8.8623 21.3867 8.8623ZM21.3867 12.2681C21.9604 12.2681 22.4243 11.8042 22.4243 11.2305C22.4243 10.6567 21.9604 10.1929 21.3867 10.1929C20.813 10.1929 20.3491 10.6567 20.3491 11.2305C20.3491 11.8042 20.813 12.2681 21.3867 12.2681ZM21.3867 15.6616C21.9604 15.6616 22.4243 15.1978 22.4243 14.624C22.4243 14.0503 21.9604 13.5864 21.3867 13.5864C20.813 13.5864 20.3491 14.0503 20.3491 14.624C20.3491 15.1978 20.813 15.6616 21.3867 15.6616ZM21.3867 19.043C21.9604 19.043 22.4243 18.5791 22.4243 18.0054C22.4243 17.4316 21.9604 16.9678 21.3867 16.9678C20.813 16.9678 20.3491 17.4316 20.3491 18.0054C20.3491 18.5791 20.813 19.043 21.3867 19.043ZM21.3867 22.4487C21.9604 22.4487 22.4243 21.9727 22.4243 21.4111C22.4243 20.8374 21.9604 20.3735 21.3867 20.3735C20.813 20.3735 20.3491 20.8374 20.3491 21.4111C20.3491 21.9727 20.813 22.4487 21.3867 22.4487ZM17.9932 22.4487C18.5547 22.4487 19.0186 21.9727 19.0186 21.4111C19.0186 20.8374 18.5547 20.3735 17.9932 20.3735C17.4194 20.3735 16.9556 20.8374 16.9556 21.4111C16.9556 21.9727 17.4194 22.4487 17.9932 22.4487ZM14.6118 22.4487C15.1733 22.4487 15.6494 21.9727 15.6494 21.4111C15.6494 20.8374 15.1733 20.3735 14.6118 20.3735C14.0381 20.3735 13.5742 20.8374 13.5742 21.4111C13.5742 21.9727 14.0381 22.4487 14.6118 22.4487ZM11.2061 22.4487C11.7798 22.4487 12.2437 21.9727 12.2437 21.4111C12.2437 20.8374 11.7798 20.3735 11.2061 20.3735C10.6445 20.3735 10.1685 20.8374 10.1685 21.4111C10.1685 21.9727 10.6445 22.4487 11.2061 22.4487ZM7.8125 22.4487C8.38623 22.4487 8.8501 21.9727 8.8501 21.4111C8.8501 20.8374 8.38623 20.3735 7.8125 20.3735C7.23877 20.3735 6.7749 20.8374 6.7749 21.4111C6.7749 21.9727 7.23877 22.4487 7.8125 22.4487ZM4.43115 22.4487C5.00488 22.4487 5.46875 21.9727 5.46875 21.4111C5.46875 20.8374 5.00488 20.3735 4.43115 20.3735C3.85742 20.3735 3.39355 20.8374 3.39355 21.4111C3.39355 21.9727 3.85742 22.4487 4.43115 22.4487Z" fill="#5ac8f5" fill-opacity="0.5"/>
  <path d="M4.38232 17.0288C4.38232 17.6147 4.76074 18.0054 5.34668 18.0054L17.0898 18.0054C17.6758 18.0054 18.0542 17.6147 18.0542 17.0288L18.0542 5.39551C18.0542 4.80957 17.6758 4.43115 17.0898 4.43115L5.34668 4.43115C4.76074 4.43115 4.38232 4.80957 4.38232 5.39551ZM6.34766 15.686L6.34766 6.75049C6.34766 6.48193 6.43311 6.39648 6.70166 6.39648L15.7349 6.39648C16.0034 6.39648 16.0889 6.48193 16.0889 6.75049L16.0889 15.686C16.0889 15.9424 16.0034 16.04 15.7349 16.04L6.70166 16.04C6.43311 16.04 6.34766 15.9424 6.34766 15.686Z" fill="#5ac8f5"/>
 </g>
</svg>
