<?xml version="1.0" encoding="UTF-8"?>
<!--Generator: Apple Native CoreSVG 175.5-->
<!DOCTYPE svg
PUBLIC "-//W3C//DTD SVG 1.1//EN"
       "http://www.w3.org/Graphics/SVG/1.1/DTD/svg11.dtd">
<svg version="1.1" xmlns="http://www.w3.org/2000/svg" xmlns:xlink="http://www.w3.org/1999/xlink" width="24.9023" height="24.9146">
 <g>
  <rect height="24.9146" opacity="0" width="24.9023" x="0" y="0"/>
  <path d="M12.4512 24.9023C19.2627 24.9023 24.9023 19.2505 24.9023 12.4512C24.9023 5.63965 19.2505 0 12.439 0C5.63965 0 0 5.63965 0 12.4512C0 19.2505 5.65186 24.9023 12.4512 24.9023ZM12.4512 22.8271C6.68945 22.8271 2.0874 18.2129 2.0874 12.4512C2.0874 6.68945 6.67725 2.0752 12.439 2.0752C18.2007 2.0752 22.8271 6.68945 22.8271 12.4512C22.8271 18.2129 18.2129 22.8271 12.4512 22.8271ZM12.4512 6.20117C9.021 6.20117 6.22559 9.021 6.22559 12.4512C6.22559 14.1113 6.86035 15.686 8.04443 16.8457L8.70361 16.1133C7.75146 15.1245 7.21436 13.8062 7.21436 12.4512C7.21436 9.57031 9.58252 7.18994 12.4512 7.18994C15.332 7.18994 17.7124 9.57031 17.7124 12.4512C17.7124 13.8062 17.1631 15.1245 16.1987 16.1133L16.8579 16.8457C18.042 15.686 18.7012 14.1113 18.7012 12.4512C18.7012 9.021 15.8813 6.20117 12.4512 6.20117ZM12.4512 7.93457C9.97314 7.93457 7.95898 9.97314 7.95898 12.4512C7.95898 13.6108 8.38623 14.6973 9.19189 15.5518L9.85107 14.7949C9.26514 14.1479 8.95996 13.3179 8.95996 12.4512C8.95996 10.5225 10.5347 8.93555 12.4512 8.93555C14.3677 8.93555 15.9546 10.5225 15.9546 12.4512C15.9546 13.3179 15.6372 14.1602 15.0391 14.7827L15.7104 15.5518C16.5283 14.6851 16.9556 13.6108 16.9556 12.4512C16.9556 9.97314 14.9292 7.93457 12.4512 7.93457ZM12.4512 9.66797C10.9375 9.66797 9.68018 10.9375 9.68018 12.4512C9.68018 13.1348 9.92432 13.7451 10.3516 14.2456L11.0352 13.4766C10.8032 13.1714 10.6812 12.8052 10.6812 12.4512C10.6812 11.4746 11.4746 10.6689 12.4512 10.6689C13.4277 10.6689 14.2334 11.4746 14.2334 12.4512C14.2334 12.8052 14.0991 13.1714 13.8672 13.4644L14.5508 14.2334C14.978 13.7451 15.2344 13.1226 15.2344 12.4512C15.2344 10.9375 13.9648 9.66797 12.4512 9.66797ZM8.88672 18.5791L16.0156 18.5791C16.4185 18.5791 16.6016 18.1396 16.333 17.8467L12.8174 13.8672C12.6465 13.6597 12.2925 13.6597 12.0972 13.8672L8.56934 17.8467C8.30078 18.1396 8.5083 18.5791 8.88672 18.5791Z" fill="#5ac8f5"/>
 </g>
</svg>
