<?xml version="1.0" encoding="UTF-8"?>
<!--Generator: Apple Native CoreSVG 175.5-->
<!DOCTYPE svg
PUBLIC "-//W3C//DTD SVG 1.1//EN"
       "http://www.w3.org/Graphics/SVG/1.1/DTD/svg11.dtd">
<svg version="1.1" xmlns="http://www.w3.org/2000/svg" xmlns:xlink="http://www.w3.org/1999/xlink" width="31.6284" height="25.5981">
 <g>
  <rect height="25.5981" opacity="0" width="31.6284" x="0" y="0"/>
  <path d="M3.83301 19.9463L12.8662 19.9463L12.8662 17.981L3.85742 17.981C2.63672 17.981 1.96533 17.3218 1.96533 16.0522L1.96533 3.91846C1.96533 2.64893 2.63672 1.98975 3.85742 1.98975L21.6064 1.98975C22.8149 1.98975 23.4985 2.64893 23.4985 3.91846L23.4985 10.9863L25.4639 10.9863L25.4639 3.80859C25.4639 1.29395 24.1821 0.0244141 21.6431 0.0244141L3.83301 0.0244141C1.26953 0.0244141 0 1.29395 0 3.80859L0 16.1621C0 18.6768 1.26953 19.9463 3.83301 19.9463ZM15.8081 25.5981L27.8076 25.5981C30.3467 25.5981 31.6284 24.3286 31.6284 21.814L31.6284 13.9038C31.6284 11.3892 30.3467 10.1196 27.8076 10.1196L15.8081 10.1196C13.2568 10.1196 11.9751 11.377 11.9751 13.9038L11.9751 21.814C11.9751 24.3286 13.2568 25.5981 15.8081 25.5981ZM15.8325 23.6328C14.6118 23.6328 13.9404 22.9736 13.9404 21.7041L13.9404 14.0015C13.9404 12.7319 14.6118 12.085 15.8325 12.085L27.771 12.085C28.9795 12.085 29.6631 12.7319 29.6631 14.0015L29.6631 21.7041C29.6631 22.9736 28.9795 23.6328 27.771 23.6328Z" fill="#5ac8f5"/>
 </g>
</svg>
