<?xml version="1.0" encoding="UTF-8"?>
<!--Generator: Apple Native CoreSVG 175.5-->
<!DOCTYPE svg
PUBLIC "-//W3C//DTD SVG 1.1//EN"
       "http://www.w3.org/Graphics/SVG/1.1/DTD/svg11.dtd">
<svg version="1.1" xmlns="http://www.w3.org/2000/svg" xmlns:xlink="http://www.w3.org/1999/xlink" width="27.1095" height="27.6489">
 <g>
  <rect height="27.6489" opacity="0" width="27.1095" x="0" y="0"/>
  <path d="M10.548 6.51855L20.0085 15.9546L26.1853 11.5112C26.9421 10.9741 27.2473 10.4126 27.052 9.80225C26.8566 9.21631 26.2829 8.92334 25.343 8.93555L17.3474 8.98438L14.9182 1.35498C14.6252 0.45166 14.1857 0 13.551 0C12.9284 0 12.489 0.45166 12.196 1.35498ZM6.17793 8.95996L1.77119 8.93555C0.831251 8.92334 0.257521 9.21631 0.0622084 9.80225C-0.145311 10.4126 0.172072 10.9741 0.928908 11.5112L7.44746 16.1987L4.89619 23.7915C4.59102 24.6826 4.70088 25.3052 5.20137 25.6836C5.70186 26.0742 6.33662 25.9399 7.09346 25.3906L13.551 20.6421L20.0207 25.3906C20.7775 25.9399 21.4001 26.0742 21.9128 25.6836C22.0959 25.5493 22.218 25.3784 22.1569 24.8779ZM24.1101 24.7681C24.4763 25.1343 25.0866 25.1343 25.4406 24.7681C25.7946 24.3896 25.8068 23.8037 25.4406 23.4375L5.67744 3.73535C5.31123 3.36914 4.70088 3.35693 4.33467 3.73535C3.98067 4.08936 3.98067 4.69971 4.33467 5.06592Z" fill="#5ac8f5"/>
 </g>
</svg>
