<?xml version="1.0" encoding="UTF-8"?>
<!--Generator: Apple Native CoreSVG 175.5-->
<!DOCTYPE svg
PUBLIC "-//W3C//DTD SVG 1.1//EN"
       "http://www.w3.org/Graphics/SVG/1.1/DTD/svg11.dtd">
<svg version="1.1" xmlns="http://www.w3.org/2000/svg" xmlns:xlink="http://www.w3.org/1999/xlink" width="27.8687" height="30.3833">
 <g>
  <rect height="30.3833" opacity="0" width="27.8687" x="0" y="0"/>
  <path d="M6.43311 25.7935C6.65283 25.7935 6.81152 25.5859 6.79932 25.3662L6.72607 24.1943L7.69043 24.8535C7.86133 24.9756 8.14209 24.9268 8.26416 24.7437C8.37402 24.5605 8.31299 24.2798 8.06885 24.1699L7.03125 23.6572L8.08105 23.1323C8.31299 23.0225 8.36182 22.7661 8.27637 22.5708C8.1665 22.3755 7.86133 22.3389 7.69043 22.4609L6.72607 23.1323L6.81152 21.9604C6.83594 21.7285 6.65283 21.5332 6.43311 21.5332C6.17676 21.5332 6.03027 21.7285 6.04248 21.9604L6.11572 23.1323L5.13916 22.4609C4.95605 22.3389 4.69971 22.3633 4.57764 22.5708C4.46777 22.7661 4.5166 23.0225 4.74854 23.1323L5.79834 23.6572L4.74854 24.1699C4.5166 24.2798 4.45557 24.5483 4.56543 24.7437C4.67529 24.939 4.95605 24.9756 5.13916 24.8657L6.11572 24.2065L6.05469 25.3662C6.04248 25.5859 6.17676 25.7935 6.43311 25.7935ZM13.1958 25.7935C13.4155 25.7935 13.5742 25.5859 13.562 25.3662L13.4888 24.1943L14.4531 24.8535C14.624 24.9756 14.9048 24.9268 15.0269 24.7437C15.1367 24.5605 15.0757 24.2798 14.8315 24.1699L13.7817 23.6572L14.8438 23.1323C15.0757 23.0225 15.1245 22.7661 15.0391 22.5708C14.9292 22.3755 14.624 22.3389 14.4531 22.4609L13.4888 23.1323L13.5742 21.9604C13.5986 21.7285 13.4155 21.5332 13.1958 21.5332C12.9395 21.5332 12.793 21.7285 12.8052 21.9604L12.8784 23.1323L11.8896 22.4609C11.7188 22.3389 11.4624 22.3633 11.3403 22.5708C11.2305 22.7661 11.2793 23.0225 11.5112 23.1323L12.561 23.6572L11.5112 24.1699C11.2793 24.2798 11.2183 24.5483 11.3281 24.7437C11.438 24.939 11.7188 24.9756 11.8896 24.8657L12.8784 24.2065L12.8174 25.3662C12.8052 25.5859 12.9395 25.7935 13.1958 25.7935ZM19.9585 25.7935C20.1782 25.7935 20.3369 25.5859 20.3247 25.3662L20.2393 24.1943L21.2158 24.8535C21.3867 24.9756 21.6675 24.9268 21.7896 24.7437C21.8994 24.5605 21.8384 24.2798 21.5942 24.1699L20.5444 23.6572L21.6064 23.1323C21.8384 23.0225 21.8872 22.7661 21.8018 22.5708C21.6919 22.3755 21.3867 22.3389 21.2158 22.4609L20.2393 23.1323L20.3369 21.9604C20.3613 21.7285 20.1782 21.5332 19.9585 21.5332C19.7021 21.5332 19.5557 21.7285 19.5679 21.9604L19.6411 23.1323L18.6523 22.4609C18.4814 22.3389 18.2251 22.3633 18.103 22.5708C17.9932 22.7661 18.042 23.0225 18.2739 23.1323L19.3237 23.6572L18.2739 24.1699C18.042 24.2798 17.981 24.5483 18.0908 24.7437C18.2007 24.939 18.4814 24.9756 18.6523 24.8657L19.6411 24.2065L19.5801 25.3662C19.5679 25.5859 19.7021 25.7935 19.9585 25.7935ZM3.78418 30.3833C4.00391 30.3833 4.1626 30.1636 4.15039 29.9438L4.07715 28.7842L5.0415 29.4434C5.22461 29.5532 5.49316 29.5044 5.61523 29.3213C5.7251 29.1382 5.66406 28.8574 5.41992 28.7476L4.38232 28.2471L5.43213 27.7222C5.66406 27.6123 5.71289 27.3438 5.62744 27.1606C5.51758 26.9653 5.22461 26.9287 5.0415 27.0386L4.07715 27.7222L4.1626 26.5381C4.18701 26.3062 4.00391 26.1108 3.78418 26.1108C3.52783 26.1108 3.38135 26.3062 3.39355 26.5381L3.4668 27.7222L2.49023 27.0386C2.30713 26.9287 2.05078 26.9531 1.92871 27.1606C1.81885 27.3438 1.86768 27.6001 2.09961 27.7222L3.14941 28.2471L2.09961 28.7598C1.86768 28.8696 1.80664 29.126 1.9165 29.3213C2.02637 29.5288 2.30713 29.5654 2.49023 29.4434L3.4668 28.7842L3.40576 29.9438C3.39355 30.1636 3.52783 30.3833 3.78418 30.3833ZM10.5469 30.3833C10.7666 30.3833 10.9253 30.1636 10.9131 29.9438L10.8398 28.7842L11.8042 29.4434C11.9751 29.5532 12.2559 29.5044 12.3779 29.3213C12.4878 29.1382 12.4268 28.8574 12.1826 28.7476L11.1328 28.2471L12.1948 27.7222C12.4268 27.6123 12.4756 27.3438 12.3901 27.1606C12.2803 26.9653 11.9751 26.9287 11.8042 27.0386L10.8398 27.7222L10.9253 26.5381C10.9497 26.3062 10.7666 26.1108 10.5469 26.1108C10.2905 26.1108 10.144 26.3062 10.1562 26.5381L10.2295 27.7222L9.24072 27.0386C9.06982 26.9287 8.81348 26.9531 8.69141 27.1606C8.58154 27.3438 8.63037 27.6001 8.8623 27.7222L9.91211 28.2471L8.8623 28.7598C8.63037 28.8696 8.56934 29.126 8.6792 29.3213C8.78906 29.5288 9.06982 29.5654 9.24072 29.4434L10.2295 28.7842L10.1685 29.9438C10.1562 30.1636 10.2905 30.3833 10.5469 30.3833ZM17.3096 30.3833C17.5293 30.3833 17.688 30.1636 17.6758 29.9438L17.5903 28.7842L18.5669 29.4434C18.7378 29.5532 19.0186 29.5044 19.1406 29.3213C19.2505 29.1382 19.1895 28.8574 18.9453 28.7476L17.8955 28.2471L18.9575 27.7222C19.1895 27.6123 19.2383 27.3438 19.1528 27.1606C19.043 26.9653 18.7378 26.9287 18.5669 27.0386L17.5903 27.7222L17.688 26.5381C17.7124 26.3062 17.5293 26.1108 17.3096 26.1108C17.0532 26.1108 16.9067 26.3062 16.9189 26.5381L16.9922 27.7222L16.0034 27.0386C15.8325 26.9287 15.5762 26.9531 15.4541 27.1606C15.3442 27.3438 15.3931 27.6001 15.625 27.7222L16.6748 28.2471L15.625 28.7598C15.3931 28.8696 15.332 29.126 15.4419 29.3213C15.5518 29.5288 15.8325 29.5654 16.0034 29.4434L16.9922 28.7842L16.9312 29.9438C16.9189 30.1636 17.0532 30.3833 17.3096 30.3833Z" fill="#5ac8f5" fill-opacity="0.5"/>
  <path d="M5.7373 19.7021L20.8862 19.7021C24.8901 19.7021 27.8687 16.6626 27.8687 12.9028C27.8687 9.00879 24.6948 6.16455 20.5566 6.16455C19.0308 3.14941 16.1987 1.2085 12.6709 1.2085C8.08105 1.2085 4.29688 4.80957 3.89404 9.33838C1.68457 9.98535 0 11.9019 0 14.4775C0 17.3706 2.09961 19.7021 5.7373 19.7021Z" fill="#5ac8f5"/>
 </g>
</svg>
