<?xml version="1.0" encoding="UTF-8"?>
<!--Generator: Apple Native CoreSVG 175.5-->
<!DOCTYPE svg
PUBLIC "-//W3C//DTD SVG 1.1//EN"
       "http://www.w3.org/Graphics/SVG/1.1/DTD/svg11.dtd">
<svg version="1.1" xmlns="http://www.w3.org/2000/svg" xmlns:xlink="http://www.w3.org/1999/xlink" width="24.0723" height="23.1812">
 <g>
  <rect height="23.1812" opacity="0" width="24.0723" x="0" y="0"/>
  <path d="M5.32227 10.6323C8.23975 10.6323 10.6445 8.22754 10.6445 5.31006C10.6445 2.39258 8.23975 0 5.32227 0C2.38037 0 0 2.39258 0 5.31006C0 8.22754 2.38037 10.6323 5.32227 10.6323ZM5.32227 8.70361C3.40576 8.70361 1.9043 7.21436 1.9043 5.31006C1.9043 3.40576 3.40576 1.86768 5.32227 1.86768C7.22656 1.86768 8.72803 3.40576 8.72803 5.31006C8.72803 7.21436 7.22656 8.70361 5.32227 8.70361ZM18.7622 10.6323C21.6797 10.6323 24.0723 8.22754 24.0723 5.31006C24.0723 2.39258 21.6797 0 18.7622 0C15.8203 0 13.4399 2.39258 13.4399 5.31006C13.4399 8.22754 15.8203 10.6323 18.7622 10.6323ZM18.7622 8.70361C16.8335 8.70361 15.3442 7.21436 15.3442 5.31006C15.3442 3.40576 16.8335 1.86768 18.7622 1.86768C20.6665 1.86768 22.168 3.40576 22.168 5.31006C22.168 7.21436 20.6665 8.70361 18.7622 8.70361ZM5.32227 23.1812C8.23975 23.1812 10.6445 20.7764 10.6445 17.8589C10.6445 14.9536 8.23975 12.5488 5.32227 12.5488C2.38037 12.5488 0 14.9536 0 17.8589C0 20.7764 2.38037 23.1812 5.32227 23.1812ZM5.32227 21.2646C3.40576 21.2646 1.9043 19.7754 1.9043 17.8589C1.9043 15.9668 3.40576 14.4165 5.32227 14.4165C7.22656 14.4165 8.72803 15.9668 8.72803 17.8589C8.72803 19.7754 7.22656 21.2646 5.32227 21.2646ZM18.7622 23.1812C21.6797 23.1812 24.0723 20.7764 24.0723 17.8589C24.0723 14.9536 21.6797 12.5488 18.7622 12.5488C15.8203 12.5488 13.4399 14.9536 13.4399 17.8589C13.4399 20.7764 15.8203 23.1812 18.7622 23.1812ZM18.7622 21.2646C16.8335 21.2646 15.3442 19.7754 15.3442 17.8589C15.3442 15.9668 16.8335 14.4165 18.7622 14.4165C20.6665 14.4165 22.168 15.9668 22.168 17.8589C22.168 19.7754 20.6665 21.2646 18.7622 21.2646Z" fill="#5ac8f5"/>
 </g>
</svg>
