<?xml version="1.0" encoding="UTF-8"?>
<!--Generator: Apple Native CoreSVG 175.5-->
<!DOCTYPE svg
PUBLIC "-//W3C//DTD SVG 1.1//EN"
       "http://www.w3.org/Graphics/SVG/1.1/DTD/svg11.dtd">
<svg version="1.1" xmlns="http://www.w3.org/2000/svg" xmlns:xlink="http://www.w3.org/1999/xlink" width="32.7515" height="35.3638">
 <g>
  <rect height="35.3638" opacity="0" width="32.7515" x="0" y="0"/>
  <path d="M31.5918 12.1338L19.6411 6.66504C18.396 6.10352 17.3828 5.83496 16.3696 5.85938C15.3687 5.83496 14.3555 6.10352 13.0981 6.66504L1.15967 12.1338C0.378418 12.4878 0 13.1104 0 13.7329C0 14.3555 0.378418 14.9658 1.15967 15.332L6.18896 17.627L13.916 14.0015C13.8428 13.916 13.8184 13.8184 13.8184 13.7329C13.8184 12.9639 15.1123 12.3779 16.4185 12.3779C17.7368 12.3779 19.0063 12.9639 19.0063 13.7329C19.0063 14.5264 17.7368 15.1245 16.4185 15.1245C16.0156 15.1245 15.6128 15.0635 15.2588 14.9658L7.88574 18.4204L13.0981 20.813C14.3555 21.3867 15.3687 21.6309 16.3696 21.6187C17.3828 21.6309 18.396 21.3867 19.6411 20.813L31.5918 15.332C32.373 14.9658 32.7515 14.3555 32.7515 13.7329C32.7515 13.1104 32.373 12.4878 31.5918 12.1338ZM7.83691 20.2271L7.83691 27.6489C9.8877 28.894 12.8174 29.6509 16.3696 29.6509C23.5718 29.6509 28.2104 26.5625 28.2104 22.9126L28.2104 18.7134L20.3369 22.3145C18.9087 22.9736 17.6147 23.3032 16.3696 23.291C15.1367 23.3032 13.8306 22.9736 12.4023 22.3145ZM4.54102 18.7134L4.54102 22.9126C4.54102 23.9746 5.15137 25.293 6.25 26.416L6.25 19.5068ZM6.25 30.481L7.83691 30.481L7.83691 27.6489C7.22656 27.2827 6.68945 26.8677 6.25 26.416ZM5.28564 30.5664L5.28564 33.7769C5.28564 34.7412 5.9082 35.3638 6.87256 35.3638L7.20215 35.3638C8.1665 35.3638 8.78906 34.7412 8.78906 33.7769L8.78906 30.5664C8.78906 29.6021 8.1665 28.9795 7.20215 28.9795L6.87256 28.9795C5.9082 28.9795 5.28564 29.6021 5.28564 30.5664Z" fill="#5ac8f5"/>
 </g>
</svg>
