<?xml version="1.0" encoding="UTF-8"?>
<!--Generator: Apple Native CoreSVG 175.5-->
<!DOCTYPE svg
PUBLIC "-//W3C//DTD SVG 1.1//EN"
       "http://www.w3.org/Graphics/SVG/1.1/DTD/svg11.dtd">
<svg version="1.1" xmlns="http://www.w3.org/2000/svg" xmlns:xlink="http://www.w3.org/1999/xlink" width="32.959" height="25.0854">
 <g>
  <rect height="25.0854" opacity="0" width="32.959" x="0" y="0"/>
  <path d="M3.83301 23.6328L24.2554 23.6328C26.4404 23.6328 27.7222 22.3633 27.7222 19.8486L27.7222 13.7939L25.7568 13.7939L25.7568 19.7632C25.7568 21.0205 25.061 21.6675 23.8525 21.6675L3.85742 21.6675C2.63672 21.6675 1.96533 21.0205 1.96533 19.751L1.96533 5.07812C1.96533 3.86963 2.6001 3.24707 3.77197 3.24707L6.34766 3.24707C7.15332 3.24707 7.6416 3.45459 8.26416 3.97949L9.00879 4.60205C9.80225 5.26123 10.4492 5.49316 11.6577 5.49316L15.8203 5.49316L15.8203 3.52783L12.1704 3.52783C11.3403 3.52783 10.8398 3.33252 10.2295 2.80762L9.48486 2.19727C8.6792 1.51367 8.05664 1.29395 6.84814 1.29395L3.36914 1.29395C1.23291 1.29395 0 2.51465 0 4.96826L0 19.8486C0 22.3755 1.28174 23.6328 3.83301 23.6328ZM1.19629 9.96094L15.8203 9.96094L15.8203 8.11768L1.19629 8.11768ZM18.6401 14.8071L29.126 14.8071C31.6772 14.8071 32.959 13.5376 32.959 11.0229L32.959 3.78418C32.959 1.25732 31.6772 0 29.126 0L18.6401 0C16.0889 0 14.8193 1.25732 14.8193 3.78418L14.8193 11.0229C14.8193 13.5376 16.0889 14.8071 18.6401 14.8071ZM18.5791 12.9639C17.3462 12.9639 16.6626 12.3047 16.6626 11.0107L16.6626 3.78418C16.6626 2.50244 17.3462 1.84326 18.5791 1.84326L29.1992 1.84326C30.4199 1.84326 31.1157 2.50244 31.1157 3.78418L31.1157 11.0107C31.1157 12.3047 30.4199 12.9639 29.2236 12.9639ZM23.8892 11.3037C24.3408 11.3037 24.6338 11.0107 24.6338 10.5591L24.6338 8.17871L27.0142 8.17871C27.4658 8.17871 27.771 7.88574 27.771 7.42188C27.771 6.97021 27.4658 6.67725 27.0142 6.67725L24.6338 6.67725L24.6338 4.29688C24.6338 3.84521 24.3408 3.54004 23.8892 3.54004C23.4375 3.54004 23.1445 3.84521 23.1445 4.29688L23.1445 6.67725L20.752 6.67725C20.3125 6.67725 20.0073 6.97021 20.0073 7.42188C20.0073 7.88574 20.3125 8.17871 20.752 8.17871L23.1445 8.17871L23.1445 10.5591C23.1445 11.0107 23.4375 11.3037 23.8892 11.3037Z" fill="#5ac8f5"/>
 </g>
</svg>
