<?xml version="1.0" encoding="UTF-8"?>
<!--Generator: Apple Native CoreSVG 175.5-->
<!DOCTYPE svg
PUBLIC "-//W3C//DTD SVG 1.1//EN"
       "http://www.w3.org/Graphics/SVG/1.1/DTD/svg11.dtd">
<svg version="1.1" xmlns="http://www.w3.org/2000/svg" xmlns:xlink="http://www.w3.org/1999/xlink" width="24.9023" height="24.9146">
 <g>
  <rect height="24.9146" opacity="0" width="24.9023" x="0" y="0"/>
  <path d="M12.4512 24.9023C19.2627 24.9023 24.9023 19.2505 24.9023 12.4512C24.9023 5.63965 19.2505 0 12.439 0C5.63965 0 0 5.63965 0 12.4512C0 19.2505 5.65186 24.9023 12.4512 24.9023ZM12.4512 22.8271C6.68945 22.8271 2.0874 18.2129 2.0874 12.4512C2.0874 6.68945 6.67725 2.0752 12.439 2.0752C18.2007 2.0752 22.8271 6.68945 22.8271 12.4512C22.8271 18.2129 18.2129 22.8271 12.4512 22.8271ZM5.9082 12.1582C6.46973 11.438 7.1167 10.8032 7.84912 10.2417C7.83691 9.77783 7.54395 8.88672 7.06787 8.75244C6.38428 9.729 5.93262 11.0596 5.9082 12.1582ZM8.58154 9.7168C8.77686 9.59473 8.97217 9.47266 9.17969 9.36279C9.05762 8.27637 9.09424 7.38525 9.24072 6.7627C8.60596 7.12891 8.03223 7.59277 7.54395 8.14209C8.10547 8.34961 8.44727 9.11865 8.58154 9.7168ZM9.91211 8.99658C10.2173 8.8501 10.5469 8.72803 10.8643 8.60596C10.8521 8.49609 10.8521 8.36182 10.8521 8.22754C10.8521 7.27539 11.3159 6.45752 12.0728 5.92041C11.5479 5.93262 10.7056 6.10352 10.0586 6.35986C9.92432 6.87256 9.79004 7.75146 9.91211 8.99658ZM11.6699 8.38623C12.4756 8.1665 13.3301 8.06885 14.1968 8.06885C15.4419 8.06885 16.687 8.28857 17.7856 8.71582C16.8213 7.34863 15.3442 6.34766 13.6475 6.01807C12.3657 6.45752 11.5845 7.21436 11.6699 8.38623ZM5.98145 13.4399C6.20117 14.8438 6.88477 16.1133 7.86133 17.0776C7.23877 15.3076 7.72705 13.147 7.83691 11.2793C7.12891 11.9141 6.50635 12.6221 5.98145 13.4399ZM8.65479 10.6323C8.66699 13.5254 7.39746 16.7969 10.0708 18.4448C10.7788 18.7866 11.5967 18.9941 12.4512 18.9941C12.7686 18.9941 13.0859 18.9819 13.4033 18.9331C10.9741 15.918 9.75342 12.7197 9.30176 10.2173C9.08203 10.3394 8.8623 10.4858 8.65479 10.6323ZM10.0098 9.82666C10.4126 12.2559 11.6577 15.6006 14.2578 18.7378C15.7104 18.3105 16.9556 17.395 17.7979 16.1743C17.5537 13.0981 12.2803 12.1216 11.084 9.38721C10.7178 9.49707 10.3638 9.65576 10.0098 9.82666ZM11.8652 9.14307C12.9028 11.2305 17.2974 12.1948 18.396 15.1489C18.7744 14.3188 18.9941 13.4155 18.9941 12.4512C18.9941 11.5479 18.7988 10.6812 18.4448 9.8877C17.1143 9.2041 15.7349 8.8623 14.1968 8.8623C13.4033 8.8623 12.6221 8.95996 11.8652 9.14307Z" fill="#5ac8f5"/>
 </g>
</svg>
