<?xml version="1.0" encoding="UTF-8"?>
<!--Generator: Apple Native CoreSVG 175.5-->
<!DOCTYPE svg
PUBLIC "-//W3C//DTD SVG 1.1//EN"
       "http://www.w3.org/Graphics/SVG/1.1/DTD/svg11.dtd">
<svg version="1.1" xmlns="http://www.w3.org/2000/svg" xmlns:xlink="http://www.w3.org/1999/xlink" width="18.0908" height="32.4097">
 <g>
  <rect height="32.4097" opacity="0" width="18.0908" x="0" y="0"/>
  <path d="M3.36914 26.8311L14.7217 26.8311C16.8579 26.8311 18.0908 25.5615 18.0908 23.4009L18.0908 5.96924C18.0908 3.79639 16.8579 2.53906 14.7217 2.53906L11.499 2.53906L11.499 2.44141C11.499 1.00098 10.5103 0.012207 9.04541 0C7.58057 0.012207 6.5918 1.00098 6.5918 2.44141L6.5918 2.53906L3.36914 2.53906C1.23291 2.53906 0 3.79639 0 5.96924L0 23.4009C0 25.5615 1.23291 26.8311 3.36914 26.8311ZM3.4668 24.8047C2.55127 24.8047 2.03857 24.2798 2.03857 23.3765L2.03857 5.99365C2.03857 5.09033 2.55127 4.56543 3.4668 4.56543L14.624 4.56543C15.5396 4.56543 16.0522 5.09033 16.0522 5.99365L16.0522 23.3765C16.0522 24.2798 15.5396 24.8047 14.624 24.8047ZM9.04541 3.36914C8.54492 3.36914 8.1543 2.96631 8.1543 2.46582C8.1543 1.97754 8.54492 1.57471 9.04541 1.57471C9.5459 1.57471 9.93652 1.97754 9.93652 2.46582C9.93652 2.96631 9.5459 3.36914 9.04541 3.36914ZM4.99268 23.0835L13.1226 23.0835C13.8672 23.0835 14.3555 22.6074 14.3555 21.875L14.3555 8.72803C14.3555 7.99561 13.8672 7.51953 13.1226 7.51953L4.99268 7.51953C4.24805 7.51953 3.75977 7.99561 3.75977 8.72803L3.75977 21.875C3.75977 22.6074 4.24805 23.0835 4.99268 23.0835ZM7.54395 20.6909C7.17773 20.6909 6.9458 20.4346 6.9458 20.105C6.9458 19.7632 7.17773 19.4946 7.54395 19.4946L10.5713 19.4946C10.9253 19.4946 11.1694 19.7632 11.1694 20.105C11.1694 20.4346 10.9253 20.6909 10.5713 20.6909ZM6.61621 18.1396C6.25 18.1396 6.00586 17.8833 6.00586 17.5415C6.00586 17.2119 6.25 16.9434 6.61621 16.9434L11.5356 16.9434C11.8774 16.9434 12.1338 17.2119 12.1338 17.5415C12.1338 17.8833 11.8774 18.1396 11.5356 18.1396ZM9.04541 15.2466C7.99561 15.2466 7.1167 14.4287 7.1167 13.3545C7.1167 12.7686 7.42188 12.1826 7.71484 11.6577L8.70361 9.82666C8.91113 9.43604 9.17969 9.42383 9.38721 9.82666L10.376 11.6577C10.6689 12.1826 10.9741 12.7686 10.9741 13.3545C10.9741 14.4287 10.1074 15.2466 9.04541 15.2466ZM11.8896 32.2021L17.2119 32.2021C17.7002 32.2021 18.0908 31.8115 18.0908 31.3232C18.0908 30.8228 17.7002 30.4199 17.2119 30.4199L11.8896 30.4199C10.4858 30.4199 9.76562 29.834 9.76562 28.4302L9.76562 25.4883L7.9834 25.4883L7.9834 28.4302C7.9834 30.8228 9.49707 32.2021 11.8896 32.2021Z" fill="#5ac8f5"/>
 </g>
</svg>
