<?xml version="1.0" encoding="UTF-8"?>
<!--Generator: Apple Native CoreSVG 175.5-->
<!DOCTYPE svg
PUBLIC "-//W3C//DTD SVG 1.1//EN"
       "http://www.w3.org/Graphics/SVG/1.1/DTD/svg11.dtd">
<svg version="1.1" xmlns="http://www.w3.org/2000/svg" xmlns:xlink="http://www.w3.org/1999/xlink" width="27.4292" height="26.6968">
 <g>
  <rect height="26.6968" opacity="0" width="27.4292" x="0" y="0"/>
  <path d="M3.62549 22.0215L3.90625 22.0215L3.90625 15.2466C3.90625 13.501 4.98047 12.4268 6.72607 12.4268L20.7031 12.4268C22.4487 12.4268 23.5229 13.501 23.5229 15.2466L23.5229 22.0215L23.7915 22.0215C26.1719 22.0215 27.4292 20.8252 27.4292 18.4448L27.4292 8.5083C27.4292 6.12793 26.1719 4.91943 23.7915 4.91943L3.62549 4.91943C1.37939 4.91943 0 6.12793 0 8.5083L0 18.4448C0 20.8252 1.25732 22.0215 3.62549 22.0215ZM4.83398 3.2959L22.5952 3.2959L22.5952 3.08838C22.5952 1.28174 21.1914 0.476074 19.2139 0.476074L8.21533 0.476074C6.32324 0.476074 4.83398 1.28174 4.83398 3.08838ZM5.57861 25.0488C5.57861 26.0376 6.23779 26.6968 7.21436 26.6968L20.2148 26.6968C21.2036 26.6968 21.8506 26.0376 21.8506 25.0488L21.8506 15.2466C21.8506 14.5508 21.3989 14.0991 20.7031 14.0991L6.72607 14.0991C6.04248 14.0991 5.57861 14.5508 5.57861 15.2466ZM9.74121 18.9941C9.28955 18.9941 8.94775 18.6401 8.94775 18.1885C8.94775 17.7612 9.28955 17.4316 9.74121 17.4316L17.7124 17.4316C18.1641 17.4316 18.4937 17.7612 18.4937 18.1885C18.4937 18.6401 18.1641 18.9941 17.7124 18.9941ZM9.74121 23.3643C9.28955 23.3643 8.94775 23.0225 8.94775 22.5952C8.94775 22.1436 9.28955 21.8018 9.74121 21.8018L17.7124 21.8018C18.1641 21.8018 18.4937 22.1436 18.4937 22.5952C18.4937 23.0225 18.1641 23.3643 17.7124 23.3643ZM19.6533 8.95996C19.6533 8.11768 20.3735 7.38525 21.2402 7.38525C22.0703 7.38525 22.8027 8.11768 22.8027 8.95996C22.8027 9.82666 22.0703 10.5103 21.2402 10.5225C20.3735 10.5225 19.6533 9.83887 19.6533 8.95996Z" fill="#5ac8f5"/>
 </g>
</svg>
