<?xml version="1.0" encoding="UTF-8"?>
<!--Generator: Apple Native CoreSVG 175.5-->
<!DOCTYPE svg
PUBLIC "-//W3C//DTD SVG 1.1//EN"
       "http://www.w3.org/Graphics/SVG/1.1/DTD/svg11.dtd">
<svg version="1.1" xmlns="http://www.w3.org/2000/svg" xmlns:xlink="http://www.w3.org/1999/xlink" width="36.2915" height="15.9302">
 <g>
  <rect height="15.9302" opacity="0" width="36.2915" x="0" y="0"/>
  <path d="M0 7.95898C0 12.3535 3.56445 15.918 7.95898 15.918L28.3325 15.918C32.7393 15.918 36.2915 12.3535 36.2915 7.95898C36.2915 3.55225 32.7393 0 28.3325 0C23.938 0 20.3735 3.56445 20.3735 7.95898C20.3735 10.3149 21.4233 12.4268 23.1201 13.8306L13.1714 13.8306C14.8682 12.4268 15.918 10.3149 15.918 7.95898C15.918 3.55225 12.3535 0 7.95898 0C3.55225 0 0 3.56445 0 7.95898ZM2.0874 7.94678C2.0874 4.71191 4.72412 2.0752 7.97119 2.0752C11.2061 2.0752 13.8306 4.71191 13.8306 7.94678C13.8306 11.1938 11.2061 13.8306 7.97119 13.8306C4.72412 13.8306 2.0874 11.1938 2.0874 7.94678ZM22.4609 7.94678C22.4609 4.71191 25.0854 2.0752 28.3203 2.0752C31.5674 2.0752 34.2041 4.71191 34.2041 7.94678C34.2041 11.1938 31.5674 13.8306 28.3203 13.8306C25.0854 13.8306 22.4609 11.1938 22.4609 7.94678Z" fill="#5ac8f5"/>
 </g>
</svg>
