<?xml version="1.0" encoding="UTF-8"?>
<!--Generator: Apple Native CoreSVG 175.5-->
<!DOCTYPE svg
PUBLIC "-//W3C//DTD SVG 1.1//EN"
       "http://www.w3.org/Graphics/SVG/1.1/DTD/svg11.dtd">
<svg version="1.1" xmlns="http://www.w3.org/2000/svg" xmlns:xlink="http://www.w3.org/1999/xlink" width="24.9023" height="24.9146">
 <g>
  <rect height="24.9146" opacity="0" width="24.9023" x="0" y="0"/>
  <path d="M12.4512 24.9023C19.2627 24.9023 24.9023 19.2505 24.9023 12.4512C24.9023 5.63965 19.2505 0 12.439 0C5.63965 0 0 5.63965 0 12.4512C0 19.2505 5.65186 24.9023 12.4512 24.9023ZM12.4512 22.8271C6.68945 22.8271 2.0874 18.2129 2.0874 12.4512C2.0874 6.68945 6.67725 2.0752 12.439 2.0752C18.2007 2.0752 22.8271 6.68945 22.8271 12.4512C22.8271 18.2129 18.2129 22.8271 12.4512 22.8271Z" fill="#5ac8f5" fill-opacity="0.5"/>
  <path d="M8.52051 13.6597L15.7959 13.6597C17.688 13.6597 19.1406 12.1948 19.1406 10.3882C19.1406 8.52051 17.6147 7.16553 15.6372 7.16553C14.8926 5.7251 13.5376 4.77295 11.853 4.77295C9.65576 4.77295 7.83691 6.51855 7.62939 8.69141C6.57959 8.99658 5.77393 9.91211 5.77393 11.1572C5.77393 12.5366 6.7749 13.6597 8.52051 13.6597ZM10.4004 17.1143C10.3027 17.2974 10.3882 17.4438 10.5957 17.4438L11.8652 17.4438L10.8765 19.8608C10.8276 19.9707 10.8521 20.0684 10.9253 20.105C10.9985 20.1294 11.084 20.105 11.1694 20.0195L14.4531 16.6626C14.6118 16.4917 14.5508 16.272 14.3188 16.272L12.8296 16.272L13.5498 14.8926C13.623 14.7339 13.5742 14.5874 13.3911 14.5874L11.7676 14.5874C11.5601 14.5874 11.4624 14.6606 11.3892 14.8193Z" fill="#5ac8f5"/>
 </g>
</svg>
