<?xml version="1.0" encoding="UTF-8"?>
<!--Generator: Apple Native CoreSVG 175.5-->
<!DOCTYPE svg
PUBLIC "-//W3C//DTD SVG 1.1//EN"
       "http://www.w3.org/Graphics/SVG/1.1/DTD/svg11.dtd">
<svg version="1.1" xmlns="http://www.w3.org/2000/svg" xmlns:xlink="http://www.w3.org/1999/xlink" width="29.5166" height="22.4976">
 <g>
  <rect height="22.4976" opacity="0" width="29.5166" x="0" y="0"/>
  <path d="M10.498 22.4976L19.0308 22.4976C26.2939 22.4976 29.5166 19.165 29.5166 12.3169L29.5166 3.80859C29.5166 1.29395 28.2349 0.0244141 25.6836 0.0244141L3.83301 0.0244141C1.28174 0.0244141 0 1.28174 0 3.80859L0 12.3169C0 19.165 3.22266 22.4976 10.498 22.4976ZM10.498 20.5078C4.56543 20.5078 1.96533 17.9077 1.96533 12.439L1.96533 3.90625C1.96533 2.63672 2.63672 1.98975 3.85742 1.98975L25.6592 1.98975C26.8677 1.98975 27.5513 2.63672 27.5513 3.90625L27.5513 12.439C27.5513 17.9077 24.9512 20.5078 19.0186 20.5078ZM7.51953 16.7358L13.147 16.7358C13.6108 16.7358 13.9526 16.4307 13.9526 15.9302C13.9526 15.4297 13.6108 15.1367 13.147 15.1367L8.5083 15.1367L8.5083 6.56738C8.5083 5.88379 8.1665 5.46875 7.51953 5.46875C6.88477 5.46875 6.55518 5.9082 6.55518 6.56738L6.55518 15.6372C6.55518 16.2842 6.89697 16.7358 7.51953 16.7358ZM16.8091 16.748L20.3735 16.748C22.9004 16.748 24.5117 15.5273 24.5117 13.6108C24.5117 12.1216 23.5229 11.084 21.8994 10.8765L21.8994 10.8032C23.1079 10.5103 23.8525 9.55811 23.8525 8.3374C23.8525 6.67725 22.4976 5.59082 20.3979 5.59082L16.8091 5.59082C16.1255 5.59082 15.7227 5.98145 15.7227 6.67725L15.7227 15.6616C15.7227 16.3452 16.1255 16.748 16.8091 16.748ZM17.6147 10.3271L17.6147 7.03125L20.0073 7.03125C21.2402 7.03125 21.9849 7.6416 21.9849 8.64258C21.9849 9.729 21.0938 10.3271 19.458 10.3271ZM17.6147 15.3076L17.6147 11.6699L20.2026 11.6699C21.7041 11.6699 22.5708 12.3535 22.5708 13.5376C22.5708 14.7461 21.6309 15.3076 19.6045 15.3076Z" fill="#5ac8f5"/>
 </g>
</svg>
