<?xml version="1.0" encoding="UTF-8"?>
<!--Generator: Apple Native CoreSVG 175.5-->
<!DOCTYPE svg
PUBLIC "-//W3C//DTD SVG 1.1//EN"
       "http://www.w3.org/Graphics/SVG/1.1/DTD/svg11.dtd">
<svg version="1.1" xmlns="http://www.w3.org/2000/svg" xmlns:xlink="http://www.w3.org/1999/xlink" width="49.9425" height="21.2524">
 <g>
  <rect height="21.2524" opacity="0" width="49.9425" x="0" y="0"/>
  <path d="M11.1086 12.7686L24.4265 2.33154C24.573 2.20947 24.7805 2.12402 24.9636 2.12402C25.1589 2.12402 25.3664 2.20947 25.5251 2.33154L38.8308 12.7686C40.0026 13.6963 41.1989 12.146 40.2224 11.3892L26.5139 0.610352C26.0134 0.219727 25.5007 0 24.9636 0C24.4387 0 23.926 0.219727 23.4255 0.610352L9.717 11.3892C8.74044 12.146 9.93673 13.6963 11.1086 12.7686ZM14.3679 21.2524L35.5715 21.2524C37.2683 21.2524 38.2448 20.3125 38.2448 18.6401L38.2448 10.5347L36.3405 10.437L36.3405 18.1763C36.3405 18.9453 35.9377 19.3481 35.1931 19.3481L14.7463 19.3481C14.0017 19.3481 13.5988 18.9453 13.5988 18.1763L13.5988 10.437L11.6945 10.5347L11.6945 18.6401C11.6945 20.3125 12.6833 21.2524 14.3679 21.2524ZM21.7898 19.9219L28.1496 19.9219L28.1496 13.916C28.1496 13.4155 27.82 13.0737 27.3195 13.0737L22.632 13.0737C22.1438 13.0737 21.7898 13.4155 21.7898 13.916ZM1.01339 13.0493L12.2927 13.0493L12.2927 11.377L3.24728 11.377L9.20431 7.27539C9.33858 7.18994 9.39962 7.17773 9.59493 7.17773L17.4563 7.17773L19.507 5.50537L9.59493 5.50537C9.07003 5.50537 8.61837 5.63965 8.22774 5.9082L0.378623 11.3892C-0.317178 11.8652-0.0242093 13.0493 1.01339 13.0493ZM5.01729 21.2524L15.1491 21.2524L15.1491 19.3481L5.40792 19.3481C4.65108 19.3481 4.26046 18.9453 4.26046 18.1763L4.26046 12.146L2.34395 12.146L2.34395 18.6401C2.34395 20.3125 3.32052 21.2524 5.01729 21.2524ZM37.6467 13.0493L48.926 13.0493C49.9636 13.0493 50.2566 11.8652 49.573 11.3892L41.7116 5.9082C41.321 5.63965 40.8693 5.50537 40.3444 5.50537L30.4323 5.50537L32.4953 7.17773L40.3444 7.17773C40.5398 7.17773 40.6008 7.18994 40.7351 7.27539L46.7043 11.377L37.6467 11.377ZM34.7902 21.2524L44.9343 21.2524C46.6189 21.2524 47.5954 20.3125 47.5954 18.6401L47.5954 12.146L45.6911 12.146L45.6911 18.1763C45.6911 18.9453 45.2883 19.3481 44.5315 19.3481L34.7902 19.3481Z" fill="#5ac8f5"/>
 </g>
</svg>
