<?xml version="1.0" encoding="UTF-8"?>
<!--Generator: Apple Native CoreSVG 175.5-->
<!DOCTYPE svg
PUBLIC "-//W3C//DTD SVG 1.1//EN"
       "http://www.w3.org/Graphics/SVG/1.1/DTD/svg11.dtd">
<svg version="1.1" xmlns="http://www.w3.org/2000/svg" xmlns:xlink="http://www.w3.org/1999/xlink" width="36.4136" height="17.1753">
 <g>
  <rect height="17.1753" opacity="0" width="36.4136" x="0" y="0"/>
  <path d="M16.6748 14.6606L13.9893 12.6953L3.77197 12.6953C2.66113 12.6953 1.96533 12.0239 1.96533 10.9375L1.96533 4.1748C1.96533 3.10059 2.66113 2.41699 3.77197 2.41699L13.7939 2.41699L16.2109 0.45166L3.77197 0.45166C1.29395 0.45166 0 1.70898 0 4.1748L0 10.9375C0 13.3911 1.29395 14.6606 3.77197 14.6606ZM22.0215 12.6953L19.7388 14.6606L32.6294 14.6606C35.1318 14.6606 36.4136 13.3911 36.4136 10.9375L36.4136 4.1748C36.4136 1.70898 35.1318 0.45166 32.6294 0.45166L20.2271 0.45166L22.1558 2.41699L32.6294 2.41699C33.7402 2.41699 34.4482 3.10059 34.4482 4.1748L34.4482 10.9375C34.4482 12.0239 33.7402 12.6953 32.6294 12.6953ZM18.1885 15.1245C22.4609 15.1245 25.7568 11.8164 25.7568 7.56836C25.7568 3.30811 22.4609 0 18.1885 0C13.9404 0 10.6445 3.30811 10.6445 7.56836C10.6445 11.8164 13.9404 15.1245 18.1885 15.1245ZM18.1885 13.2812C14.978 13.2812 12.4878 10.791 12.4878 7.56836C12.4878 4.3335 14.978 1.84326 18.1885 1.84326C21.4233 1.84326 23.9136 4.3335 23.9136 7.56836C23.9136 10.791 21.4233 13.2812 18.1885 13.2812ZM18.1885 11.9751C20.6665 11.9751 22.6074 10.0342 22.6074 7.56836C22.6074 5.10254 20.6665 3.14941 18.1885 3.14941C15.7227 3.14941 13.7817 5.10254 13.7817 7.56836C13.7817 10.0342 15.7227 11.9751 18.1885 11.9751ZM18.1885 10.376C16.6138 10.376 15.3809 9.14307 15.3809 7.56836C15.3809 5.99365 16.6138 4.74854 18.1885 4.74854C19.7632 4.74854 21.0083 5.99365 21.0083 7.56836C21.0083 9.14307 19.7632 10.376 18.1885 10.376ZM9.04541 13.916L2.70996 13.916L2.70996 15.7104C2.70996 16.3086 3.11279 16.7114 3.71094 16.7114L8.04443 16.7114C8.65479 16.7114 9.04541 16.3086 9.04541 15.7104ZM27.3682 13.916L27.3682 15.7104C27.3682 16.3086 27.7588 16.7114 28.3691 16.7114L32.6904 16.7114C33.3008 16.7114 33.7036 16.3086 33.7036 15.7104L33.7036 13.916ZM27.4414 5.09033C27.4414 5.59082 27.7954 5.94482 28.2959 5.94482L31.3599 5.94482C31.8604 5.94482 32.2266 5.59082 32.2266 5.09033C32.2266 4.58984 31.8604 4.22363 31.3599 4.22363L28.2959 4.22363C27.7954 4.22363 27.4414 4.58984 27.4414 5.09033ZM27.4414 8.05664C27.4414 8.55713 27.7954 8.92334 28.2959 8.92334L31.3599 8.92334C31.8604 8.92334 32.2266 8.55713 32.2266 8.05664C32.2266 7.55615 31.8604 7.20215 31.3599 7.20215L28.2959 7.20215C27.7954 7.20215 27.4414 7.55615 27.4414 8.05664Z" fill="#5ac8f5"/>
 </g>
</svg>
