<?xml version="1.0" encoding="UTF-8"?>
<!--Generator: Apple Native CoreSVG 175.5-->
<!DOCTYPE svg
PUBLIC "-//W3C//DTD SVG 1.1//EN"
       "http://www.w3.org/Graphics/SVG/1.1/DTD/svg11.dtd">
<svg version="1.1" xmlns="http://www.w3.org/2000/svg" xmlns:xlink="http://www.w3.org/1999/xlink" width="24.9023" height="24.9146">
 <g>
  <rect height="24.9146" opacity="0" width="24.9023" x="0" y="0"/>
  <path d="M12.4512 24.9146C19.2627 24.9146 24.9023 19.2749 24.9023 12.4634C24.9023 5.66406 19.2505 0.012207 12.439 0.012207C5.63965 0.012207 0 5.66406 0 12.4634C0 19.2749 5.65186 24.9146 12.4512 24.9146ZM12.793 19.7876C8.66699 19.7876 5.49316 16.8335 5.49316 12.6831C5.49316 9.729 7.23877 6.92139 9.85107 5.88379C10.0098 5.82275 10.1807 5.79834 10.2661 5.79834C10.5225 5.79834 10.6689 6.01807 10.6689 6.21338C10.6689 6.27441 10.6689 6.37207 10.5957 6.53076C10.3638 7.12891 10.1562 8.23975 10.1562 9.04541C10.1562 12.854 12.5854 15.2466 16.4062 15.2466C17.2729 15.2466 18.1641 15.0513 18.689 14.8804C18.8232 14.8438 18.9087 14.8315 18.9941 14.8315C19.2017 14.8315 19.4092 14.9902 19.4092 15.2588C19.4092 15.3198 19.397 15.4907 19.3237 15.6494C18.4326 17.9321 15.8325 19.7876 12.793 19.7876Z" fill="#5ac8f5"/>
 </g>
</svg>
