<?xml version="1.0" encoding="UTF-8"?>
<!--Generator: Apple Native CoreSVG 175.5-->
<!DOCTYPE svg
PUBLIC "-//W3C//DTD SVG 1.1//EN"
       "http://www.w3.org/Graphics/SVG/1.1/DTD/svg11.dtd">
<svg version="1.1" xmlns="http://www.w3.org/2000/svg" xmlns:xlink="http://www.w3.org/1999/xlink" width="35.2051" height="19.8853">
 <g>
  <rect height="19.8853" opacity="0" width="35.2051" x="0" y="0"/>
  <path d="M0 18.4937C0 19.2627 0.622559 19.8853 1.37939 19.8853L33.8257 19.8853C34.5825 19.8853 35.2051 19.2627 35.2051 18.4937C35.2051 17.7246 34.5825 17.1021 33.8257 17.1021L31.1523 17.1021L31.1523 2.6123C31.1523 0.90332 30.2368 0.0244141 28.54 0.0244141L6.66504 0.0244141C5.05371 0.0244141 4.05273 0.90332 4.05273 2.6123L4.05273 17.1021L1.37939 17.1021C0.622559 17.1021 0 17.7246 0 18.4937ZM6.01807 17.1021L6.01807 3.16162C6.01807 2.38037 6.40869 1.98975 7.18994 1.98975L28.0151 1.98975C28.7964 1.98975 29.187 2.38037 29.187 3.16162L29.187 17.1021ZM15.5396 13.8062L19.6777 13.8062C20.3491 13.8062 20.6787 13.4644 20.6787 12.7686L20.6787 9.59473C20.6787 9.04541 20.4712 8.72803 20.0684 8.59375L20.0684 7.76367C20.0684 6.11572 19.0796 4.99268 17.6147 4.99268C16.1499 4.99268 15.1611 6.11572 15.1611 7.76367L15.1611 8.60596C14.7583 8.72803 14.5508 9.04541 14.5508 9.59473L14.5508 12.7686C14.5508 13.4644 14.8804 13.8062 15.5396 13.8062ZM16.3696 8.54492L16.3696 7.65381C16.3696 6.75049 16.8457 6.16455 17.6147 6.16455C18.3594 6.16455 18.8599 6.75049 18.8599 7.65381L18.8599 8.54492Z" fill="#5ac8f5"/>
 </g>
</svg>
