<?xml version="1.0" encoding="UTF-8"?>
<!--Generator: Apple Native CoreSVG 175.5-->
<!DOCTYPE svg
PUBLIC "-//W3C//DTD SVG 1.1//EN"
       "http://www.w3.org/Graphics/SVG/1.1/DTD/svg11.dtd">
<svg version="1.1" xmlns="http://www.w3.org/2000/svg" xmlns:xlink="http://www.w3.org/1999/xlink" width="22.4731" height="22.4976">
 <g>
  <rect height="22.4976" opacity="0" width="22.4731" x="0" y="0"/>
  <path d="M3.83301 22.4976L18.6401 22.4976C21.2036 22.4976 22.4731 21.228 22.4731 18.7134L22.4731 3.80859C22.4731 1.29395 21.2036 0.0244141 18.6401 0.0244141L3.83301 0.0244141C1.28174 0.0244141 0 1.28174 0 3.80859L0 18.7134C0 21.2402 1.28174 22.4976 3.83301 22.4976ZM3.85742 20.5322C2.63672 20.5322 1.96533 19.8853 1.96533 18.6157L1.96533 3.90625C1.96533 2.63672 2.63672 1.98975 3.85742 1.98975L18.6157 1.98975C19.8242 1.98975 20.5078 2.63672 20.5078 3.90625L20.5078 18.6157C20.5078 19.8853 19.8242 20.5322 18.6157 20.5322ZM7.1167 16.5039C9.21631 16.5039 10.6079 14.4897 10.6079 11.2427C10.6079 7.99561 9.21631 5.98145 7.1167 5.98145C5.00488 5.98145 3.62549 7.99561 3.62549 11.2427C3.62549 14.4897 5.00488 16.5039 7.1167 16.5039ZM7.1167 15.0269C5.94482 15.0269 5.22461 13.5864 5.22461 11.2427C5.22461 8.89893 5.94482 7.4585 7.1167 7.4585C8.27637 7.4585 8.99658 8.89893 8.99658 11.2427C8.99658 13.5864 8.28857 15.0269 7.1167 15.0269ZM15.6128 16.5161C17.6025 16.5161 19.0186 15.21 19.0186 12.9761C19.0186 10.8765 17.5781 9.7168 15.9912 9.7168C14.6973 9.7168 13.8672 10.4492 13.5742 11.2549L13.4888 11.2549C13.4888 11.2183 13.4888 11.1938 13.4888 11.145C13.4888 8.83789 14.4165 7.38525 15.7837 7.38525C16.4917 7.38525 16.98 7.72705 17.2974 8.20312C17.5049 8.5083 17.688 8.65479 18.0298 8.65479C18.3594 8.65479 18.6279 8.38623 18.6279 7.9834C18.6279 7.82471 18.5913 7.67822 18.5303 7.51953C18.2129 6.70166 17.2363 5.98145 15.8447 5.98145C13.501 5.98145 12.0483 7.8125 12.0483 11.5234C12.0483 13.0127 12.2925 14.0991 12.7075 14.8682C13.3301 16.04 14.3799 16.5161 15.6128 16.5161ZM15.5518 15.1733C14.4165 15.1733 13.623 14.2822 13.623 13.0249C13.623 11.8286 14.4043 10.9741 15.5518 10.9741C16.6992 10.9741 17.4805 11.8164 17.4805 13.0371C17.4805 14.3433 16.7236 15.1733 15.5518 15.1733Z" fill="#5ac8f5"/>
 </g>
</svg>
