<?xml version="1.0" encoding="UTF-8"?>
<!--Generator: Apple Native CoreSVG 175.5-->
<!DOCTYPE svg
PUBLIC "-//W3C//DTD SVG 1.1//EN"
       "http://www.w3.org/Graphics/SVG/1.1/DTD/svg11.dtd">
<svg version="1.1" xmlns="http://www.w3.org/2000/svg" xmlns:xlink="http://www.w3.org/1999/xlink" width="22.5098" height="22.4243">
 <g>
  <rect height="22.4243" opacity="0" width="22.5098" x="0" y="0"/>
  <path d="M0.561523 10.8887L0.561523 12.2314L9.19189 12.2314C8.47168 13.7207 6.12793 15.918 4.43115 16.1011C3.80859 16.1621 3.45459 16.5527 3.45459 17.1387C3.45459 17.6758 3.88184 18.1763 4.56543 18.0786C6.45752 17.7856 9.46045 15.6006 10.2783 13.0859L10.3638 13.0859L10.3638 21.8872L11.8408 21.8872L11.8408 13.0859L11.9385 13.0859C12.7441 15.6006 15.7593 17.7856 17.6392 18.0786C18.335 18.1763 18.7622 17.6758 18.7622 17.1387C18.7622 16.5527 18.4082 16.1621 17.7734 16.1011C16.0889 15.918 13.7329 13.7207 13.0249 12.2314L21.6431 12.2314L21.6431 10.8887L15.9912 10.8887C17.5415 10.1929 18.6157 8.92334 18.6157 7.38525C18.6157 5.60303 17.3096 4.29688 15.5518 4.29688C14.0259 4.29688 12.6465 5.26123 11.8408 6.82373L11.8408 0.98877L10.3638 0.98877L10.3638 6.82373C9.55811 5.26123 8.17871 4.29688 6.65283 4.29688C4.89502 4.29688 3.58887 5.60303 3.58887 7.38525C3.58887 8.92334 4.67529 10.1929 6.21338 10.8887ZM9.77783 10.7056C7.37305 10.7056 5.31006 9.05762 5.31006 7.51953C5.31006 6.5918 5.87158 6.03027 6.75049 6.03027C8.55713 6.03027 10.144 8.04443 10.144 10.3638L10.144 10.7056ZM12.4268 10.7056L12.0605 10.7056L12.0605 10.3638C12.0605 8.04443 13.6475 6.03027 15.4541 6.03027C16.3452 6.03027 16.8945 6.5918 16.8945 7.51953C16.8945 9.05762 14.8438 10.7056 12.4268 10.7056ZM21.0815 1.46484C19.8364 0.219727 18.0786 0.0244141 15.9912 0.0244141L6.48193 0.0244141C4.43115 0.0244141 2.67334 0.219727 1.42822 1.46484C0.183105 2.70996 0 4.45557 0 6.49414L0 15.918C0 18.0054 0.183105 19.7388 1.42822 20.9839C2.67334 22.229 4.43115 22.4243 6.50635 22.4243L15.9912 22.4243C18.0786 22.4243 19.8364 22.229 21.0815 20.9839C22.3267 19.7388 22.5098 18.0054 22.5098 15.918L22.5098 6.53076C22.5098 4.44336 22.3267 2.69775 21.0815 1.46484ZM20.5444 6.18896L20.5444 16.2476C20.5444 17.5171 20.3857 18.811 19.6411 19.5557C18.9087 20.2881 17.5903 20.459 16.333 20.459L6.17676 20.459C4.91943 20.459 3.60107 20.2881 2.85645 19.5557C2.12402 18.811 1.96533 17.5171 1.96533 16.2476L1.96533 6.22559C1.96533 4.94385 2.12402 3.62549 2.85645 2.89307C3.60107 2.14844 4.93164 1.98975 6.21338 1.98975L16.333 1.98975C17.5903 1.98975 18.9087 2.16064 19.6411 2.89307C20.3857 3.6377 20.5444 4.93164 20.5444 6.18896Z" fill="#5ac8f5"/>
 </g>
</svg>
