<?xml version="1.0" encoding="UTF-8"?>
<!--Generator: Apple Native CoreSVG 175.5-->
<!DOCTYPE svg
PUBLIC "-//W3C//DTD SVG 1.1//EN"
       "http://www.w3.org/Graphics/SVG/1.1/DTD/svg11.dtd">
<svg version="1.1" xmlns="http://www.w3.org/2000/svg" xmlns:xlink="http://www.w3.org/1999/xlink" width="36.6333" height="25.2075">
 <g>
  <rect height="25.2075" opacity="0" width="36.6333" x="0" y="0"/>
  <path d="M7.44629 25.2075L29.1748 25.2075C30.7007 25.2075 31.1279 23.8281 30.542 22.6685L24.4263 10.4004L34.5825 24.5972C34.8877 25.0244 35.2661 25.1709 35.6201 25.1709C36.145 25.1709 36.6333 24.8657 36.6333 24.1455L36.6333 20.4956C36.6333 20.0439 36.2549 19.6655 35.8032 19.6655C35.3516 19.6655 34.9854 20.0439 34.9854 20.4956L34.9854 22.3633L19.7876 1.13525C18.9941 0.012207 17.627 0.0366211 16.8335 1.13525L1.64795 22.3633L1.64795 20.4956C1.64795 20.0439 1.28174 19.6655 0.830078 19.6655C0.366211 19.6655 0 20.0439 0 20.4956L0 24.1455C0 24.8657 0.488281 25.1709 1.01318 25.1709C1.36719 25.1709 1.74561 25.0244 2.05078 24.5972L12.207 10.4004L6.09131 22.6685C5.50537 23.8281 5.92041 25.2075 7.44629 25.2075ZM12.1582 23.3398L17.5293 12.0483C17.7002 11.6943 18.0054 11.5234 18.3105 11.5234C18.6157 11.5234 18.9209 11.6943 19.0796 12.0483L24.4629 23.3398L20.2759 23.3398L18.3105 14.6973L16.333 23.3398Z" fill="#5ac8f5"/>
 </g>
</svg>
