<?xml version="1.0" encoding="UTF-8"?>
<!--Generator: Apple Native CoreSVG 175.5-->
<!DOCTYPE svg
PUBLIC "-//W3C//DTD SVG 1.1//EN"
       "http://www.w3.org/Graphics/SVG/1.1/DTD/svg11.dtd">
<svg version="1.1" xmlns="http://www.w3.org/2000/svg" xmlns:xlink="http://www.w3.org/1999/xlink" width="22.8394" height="27.93">
 <g>
  <rect height="27.93" opacity="0" width="22.8394" x="0" y="0"/>
  <path d="M0 7.29388L21.1792 7.29388L21.1792 4.05902C21.1792 2.3012 20.0439 1.14154 18.3594 1.14154L2.83203 1.14154C1.13525 1.14154 0 2.3012 0 4.05902ZM4.41895 6.02435C3.80859 6.02435 3.30811 5.51165 3.30811 4.91351C3.30811 4.29095 3.80859 3.80267 4.41895 3.80267C5.0293 3.80267 5.51758 4.29095 5.51758 4.91351C5.51758 5.51165 5.0293 6.02435 4.41895 6.02435ZM7.62939 6.02435C7.01904 6.02435 6.53076 5.51165 6.53076 4.91351C6.53076 4.29095 7.01904 3.80267 7.62939 3.80267C8.23975 3.80267 8.72803 4.29095 8.72803 4.91351C8.72803 5.51165 8.23975 6.02435 7.62939 6.02435ZM14.209 5.54827C13.8306 5.54827 13.5864 5.29193 13.5864 4.91351C13.5864 4.53509 13.8306 4.26654 14.209 4.26654L17.2119 4.26654C17.6025 4.26654 17.8467 4.53509 17.8467 4.91351C17.8467 5.29193 17.6025 5.54827 17.2119 5.54827ZM6.0791 21.8447L10.7544 21.8447C10.5225 21.1733 10.3149 20.3798 10.3149 19.4033C10.3149 17.4257 11.2671 15.0698 13.3789 15.0698C14.209 15.0698 14.8682 15.4848 15.1489 15.851C15.2588 15.6801 15.4053 15.5336 15.5884 15.4482L15.5884 13.5439C15.5884 13.2387 15.3931 13.0434 15.1001 13.0434L6.0791 13.0434C5.78613 13.0434 5.59082 13.2387 5.59082 13.5439L5.59082 21.3442C5.59082 21.6493 5.78613 21.8447 6.0791 21.8447ZM2.83203 26.7763L11.8774 26.7763C11.9873 26.3124 12.3413 25.9218 12.3413 25.3359C12.3413 24.811 11.792 24.2006 11.2793 23.1996L5.85938 23.1996C4.89502 23.1996 4.23584 22.5405 4.23584 21.5639L4.23584 13.3242C4.23584 12.3476 4.89502 11.6884 5.85938 11.6884L15.3198 11.6884C16.2842 11.6884 16.9556 12.3476 16.9556 13.3242L16.9556 15.082C17.7002 15.0942 18.1885 15.3871 18.6646 15.8388C19.3115 15.204 20.2637 14.8744 21.1792 15.1674L21.1792 8.95404L0 8.95404L0 23.8588C0 25.6166 1.13525 26.7763 2.83203 26.7763Z" fill="#5ac8f5" fill-opacity="0.5"/>
  <path d="M13.9282 27.7773C14.2944 28.0214 14.8682 28.0092 15.1978 27.4721C15.5518 26.8251 15.7593 26.0683 15.7593 25.3359C15.7593 22.6747 13.7207 21.3686 13.7207 19.4033C13.7207 18.9028 13.8184 18.5488 14.1235 18.0361C14.3677 17.6088 14.1724 17.1572 13.8428 16.9496C13.4766 16.7177 12.915 16.7543 12.6221 17.267C12.2437 17.9018 12.0483 18.6586 12.0483 19.4033C12.0483 22.0156 14.0747 23.3217 14.0747 25.3359C14.0747 25.8364 13.9893 26.1659 13.6841 26.6909C13.4277 27.1303 13.6475 27.582 13.9282 27.7773ZM17.4683 27.7651C17.8589 28.0214 18.4326 27.9848 18.7256 27.4599C19.0918 26.8129 19.2993 26.0683 19.2993 25.3359C19.2993 22.6625 17.2607 21.3564 17.2607 19.391C17.2607 18.9028 17.3584 18.5488 17.6514 18.0239C17.9077 17.5966 17.7002 17.1572 17.3706 16.9496C17.0166 16.7299 16.4429 16.7543 16.1499 17.2548C15.7837 17.9018 15.5884 18.6464 15.5884 19.391C15.5884 22.0156 17.6147 23.3095 17.6147 25.3359C17.6147 25.8242 17.5293 26.1537 17.2363 26.6786C16.98 27.1303 17.1753 27.5698 17.4683 27.7651ZM21.0083 27.7529C21.3989 28.0092 21.9727 27.9726 22.2656 27.4477C22.6318 26.8007 22.8394 26.0561 22.8394 25.3237C22.8394 22.6503 20.8008 21.3442 20.8008 19.3788C20.8008 18.8906 20.8984 18.5366 21.1914 18.0117C21.4478 17.5844 21.2402 17.145 20.9106 16.9374C20.5444 16.7177 19.9829 16.7421 19.6899 17.2426C19.3115 17.8896 19.1284 18.6342 19.1284 19.3788C19.1284 22.0034 21.1548 23.2973 21.1548 25.3237C21.1548 25.8119 21.0693 26.1415 20.7642 26.6664C20.5078 27.1181 20.7153 27.5576 21.0083 27.7529Z" fill="#5ac8f5"/>
 </g>
</svg>
