<?xml version="1.0" encoding="UTF-8"?>
<!--Generator: Apple Native CoreSVG 175.5-->
<!DOCTYPE svg
PUBLIC "-//W3C//DTD SVG 1.1//EN"
       "http://www.w3.org/Graphics/SVG/1.1/DTD/svg11.dtd">
<svg version="1.1" xmlns="http://www.w3.org/2000/svg" xmlns:xlink="http://www.w3.org/1999/xlink" width="31.3221" height="26.0132">
 <g>
  <rect height="26.0132" opacity="0" width="31.3221" x="0" y="0"/>
  <path d="M0.18193 23.7305C-0.26973 24.7559 0.108688 25.9766 1.43925 25.9766C1.91533 25.9766 2.31816 25.7935 2.94072 25.2808L6.28545 22.4854C6.41972 22.3755 6.49297 22.3389 6.554 22.3389C6.61504 22.3389 6.68828 22.3755 6.82256 22.4854L10.1673 25.2808C10.7898 25.7935 11.1927 25.9766 11.6687 25.9766C12.9993 25.9766 13.3777 24.7559 12.9261 23.7305L7.54277 11.5601L7.54277 5.896C7.54277 3.11279 8.00664 1.0376 8.00664 0.646973C8.00664 0.280762 7.78691 0.0488281 7.43291 0.0488281C7.20097 0.0488281 6.99345 0.183105 6.68828 0.512695L4.00273 3.60107C3.75859 3.88184 3.81963 4.22363 4.13701 4.39453C5.21123 4.8584 5.58964 5.0293 5.58964 5.896L5.58964 11.5234ZM1.43925 24.2188L6.48076 12.7197L6.62724 12.7197L11.6687 24.2188C11.803 24.5239 11.5467 24.6826 11.3269 24.4873L7.56718 21.3501C7.17656 21.0327 6.84697 20.874 6.554 20.874C6.26103 20.874 5.94365 21.0327 5.54082 21.3501L1.78105 24.4873C1.56132 24.6826 1.31718 24.5239 1.43925 24.2188ZM9.10527 21.7041C9.43486 21.7041 9.71562 21.4233 9.71562 21.1182C9.71562 20.8008 9.44707 20.52 9.10527 20.52C8.8123 20.52 8.54375 20.8008 8.54375 21.1182C8.54375 21.4355 8.78789 21.7041 9.10527 21.7041ZM8.48271 20.1782C8.80009 20.1782 9.08086 19.9097 9.08086 19.5923C9.08086 19.2627 8.80009 18.9941 8.48271 18.9941C8.16533 18.9941 7.88457 19.2749 7.88457 19.5923C7.88457 19.9097 8.16533 20.1782 8.48271 20.1782ZM7.83574 18.6401C8.15312 18.6401 8.42168 18.3838 8.42168 18.0664C8.42168 17.7368 8.16533 17.4561 7.83574 17.4561C7.51836 17.4561 7.2498 17.749 7.2498 18.0664C7.2498 18.3716 7.51836 18.6401 7.83574 18.6401ZM11.388 18.6768L12.2547 20.6055C12.4256 18.7378 13.6951 18.0298 13.6951 16.7969C13.6951 15.5396 12.865 14.8071 12.865 13.8306C12.865 13.7085 12.9383 13.6353 13.0237 13.6353C13.573 13.6353 13.866 15.1123 15.0745 15.1123C15.636 15.1123 16.0511 14.7827 16.2342 14.1602L16.3318 14.1602C16.5271 14.7949 16.9544 15.1123 17.5037 15.1123C18.7 15.1123 18.993 13.6353 19.5301 13.6353C19.6277 13.6353 19.7132 13.7207 19.7132 13.8306C19.7132 14.8071 18.8709 15.5396 18.8709 16.7969C18.8709 18.1396 20.3724 18.8721 20.3724 21.1182C20.3724 23.3032 18.8343 24.6094 16.283 24.6094C15.2942 24.6094 14.4397 24.4141 13.6707 24.0356C13.7928 24.6094 13.7806 25.0366 13.573 25.4883C14.4397 25.8301 15.3431 26.0132 16.283 26.0132C19.5789 26.0132 21.764 24.0601 21.764 21.1182C21.764 18.689 20.2503 17.5659 20.2503 16.7847C20.2503 15.8447 21.0804 15.0757 21.0804 13.8428C21.0804 12.9395 20.4822 12.2925 19.6399 12.2925C18.8709 12.2925 18.3948 12.7319 18.1019 13.208C17.8943 13.5498 17.6868 13.7817 17.5403 13.7817C17.3084 13.7817 17.2352 13.3667 17.2474 12.793L17.2596 5.33447C17.2596 4.98047 17.2596 4.95605 17.4427 4.89502C17.7356 4.80957 17.8211 4.65088 17.8577 4.27246L18.1141 1.78223C18.1263 1.55029 18.0286 1.33057 17.8455 1.15967L16.7957 0.244141C16.6614 0.12207 16.4783 0.0488281 16.283 0.0488281C16.0877 0.0488281 15.9046 0.12207 15.7581 0.244141L14.7205 1.15967C14.5374 1.31836 14.4397 1.5625 14.4519 1.78223L14.6961 4.27246C14.7327 4.63867 14.8426 4.80957 15.1233 4.89502C15.282 4.93164 15.3064 4.99268 15.3064 5.33447L15.3309 12.793C15.3431 13.3301 15.2576 13.7817 15.0379 13.7817C14.8792 13.7817 14.6839 13.5132 14.4642 13.208C14.1346 12.7686 13.6951 12.2925 12.9383 12.2925C12.0838 12.2925 11.4856 12.9272 11.4856 13.8428C11.4856 15.0757 12.3157 15.8447 12.3157 16.7847C12.3157 17.2363 11.8152 17.7979 11.388 18.6768ZM13.866 20.9106C14.1224 21.0083 14.4031 20.874 14.5008 20.6177L15.514 17.8345C15.5994 17.5781 15.4651 17.2852 15.221 17.1997C14.9646 17.1021 14.6717 17.2363 14.574 17.4927L13.5608 20.2881C13.4754 20.5322 13.6097 20.8252 13.866 20.9106ZM18.7 20.9106C18.9563 20.8252 19.0906 20.5322 18.993 20.2881L17.9798 17.4927C17.8821 17.2363 17.6014 17.1021 17.345 17.1997C17.1009 17.2852 16.9666 17.5781 17.052 17.8345L18.0652 20.6177C18.1629 20.874 18.4436 21.0083 18.7 20.9106ZM25.8533 25.9399C29.198 25.9399 31.3221 24.353 31.3221 21.8384C31.3221 19.3237 29.6741 18.7012 29.6741 17.6392C29.6741 16.8213 30.0403 16.0767 30.0403 15.0635C30.0403 13.3911 28.8685 12.3291 26.8177 12.085L26.8177 4.88281C26.8177 4.39453 26.8787 4.26025 27.1595 4.06494C27.4158 3.90625 27.5013 3.75977 27.4891 3.52783L27.306 0.512695C27.2937 0.244141 27.0984 0.0488281 26.8421 0.0488281L24.8401 0.0488281C24.6082 0.0488281 24.4129 0.244141 24.3885 0.512695L24.2054 3.52783C24.1932 3.75977 24.2908 3.90625 24.535 4.06494C24.8157 4.27246 24.8768 4.40674 24.8768 4.88281L24.8768 12.085C22.8382 12.3291 21.6541 13.3911 21.6541 15.0635C21.6541 16.0767 22.0203 16.8213 22.0203 17.6392C22.0203 17.8101 21.9715 18.0298 21.7884 18.3838C22.0325 18.9087 22.179 19.397 22.2889 19.8975C22.8138 19.2383 23.4119 18.4937 23.4119 17.6147C23.4119 16.7603 23.0335 15.8569 23.0335 15.0635C23.0335 13.7939 24.1565 13.3667 25.8533 13.3667C27.5135 13.3667 28.6609 13.7695 28.6609 15.0635C28.6609 15.8569 28.2825 16.7603 28.2825 17.6147C28.2825 19.104 29.9305 19.873 29.9305 21.8384C29.9305 23.5352 28.4168 24.5605 25.8533 24.5605C24.0467 24.5605 22.7283 24.0601 22.0691 23.1079C21.8738 23.645 21.6663 24.0234 21.3855 24.4141C22.3743 25.415 23.9368 25.9399 25.8533 25.9399ZM25.8533 18.6035C26.5735 18.6035 27.1717 18.0054 27.1717 17.2852C27.1717 16.5527 26.5735 15.9546 25.8533 15.9546C25.1209 15.9546 24.5105 16.5527 24.5105 17.2852C24.5105 18.0054 25.1087 18.6035 25.8533 18.6035ZM24.2908 22.0581L27.3914 22.0581C27.6844 22.0581 27.9163 21.8262 27.9163 21.5332C27.9163 21.228 27.6844 20.9839 27.3914 20.9839L24.2908 20.9839C23.9978 20.9839 23.7537 21.2402 23.7537 21.5332C23.7537 21.8262 23.9856 22.0581 24.2908 22.0581Z" fill="#5ac8f5"/>
 </g>
</svg>
