<?xml version="1.0" encoding="UTF-8"?>
<!--Generator: Apple Native CoreSVG 175.5-->
<!DOCTYPE svg
PUBLIC "-//W3C//DTD SVG 1.1//EN"
       "http://www.w3.org/Graphics/SVG/1.1/DTD/svg11.dtd">
<svg version="1.1" xmlns="http://www.w3.org/2000/svg" xmlns:xlink="http://www.w3.org/1999/xlink" width="24.9023" height="24.9146">
 <g>
  <rect height="24.9146" opacity="0" width="24.9023" x="0" y="0"/>
  <path d="M12.4512 24.9023C19.2627 24.9023 24.9023 19.2505 24.9023 12.4512C24.9023 5.63965 19.2505 0 12.439 0C5.63965 0 0 5.63965 0 12.4512C0 19.2505 5.65186 24.9023 12.4512 24.9023ZM12.4512 22.8271C6.68945 22.8271 2.0874 18.2129 2.0874 12.4512C2.0874 6.68945 6.67725 2.0752 12.439 2.0752C18.2007 2.0752 22.8271 6.68945 22.8271 12.4512C22.8271 18.2129 18.2129 22.8271 12.4512 22.8271ZM9.57031 11.3281L9.57031 13.5864L8.65479 13.5864C7.21436 13.5864 6.05469 14.7339 6.05469 16.1499C6.05469 17.5903 7.21436 18.75 8.65479 18.75C10.0708 18.75 11.2427 17.5781 11.2427 16.1499L11.2427 15.2222L13.4644 15.2222L13.4644 16.1499C13.4644 17.5781 14.624 18.75 16.0522 18.75C17.4805 18.75 18.6401 17.5903 18.6401 16.1499C18.6401 14.7339 17.4805 13.5864 16.0522 13.5864L15.1245 13.5864L15.1245 11.3281L16.0522 11.3281C17.4805 11.3281 18.6401 10.1807 18.6401 8.75244C18.6401 7.32422 17.4805 6.16455 16.0522 6.16455C14.624 6.16455 13.4644 7.33643 13.4644 8.75244L13.4644 9.68018L11.2427 9.68018L11.2427 8.75244C11.2427 7.33643 10.0708 6.16455 8.65479 6.16455C7.21436 6.16455 6.05469 7.32422 6.05469 8.75244C6.05469 10.1807 7.21436 11.3281 8.65479 11.3281ZM11.2427 13.5986L11.2427 11.3159L13.4644 11.3159L13.4644 13.5986ZM8.65479 9.69238C8.12988 9.69238 7.71484 9.27734 7.71484 8.75244C7.71484 8.25195 8.14209 7.8125 8.65479 7.8125C9.15527 7.8125 9.57031 8.25195 9.57031 8.75244L9.57031 9.69238ZM16.0522 9.69238L15.1245 9.69238L15.1245 8.75244C15.1245 8.25195 15.5396 7.8125 16.0522 7.8125C16.5527 7.8125 16.9922 8.25195 16.9922 8.75244C16.9922 9.27734 16.5649 9.69238 16.0522 9.69238ZM8.65479 15.1978L9.57031 15.1978L9.57031 16.1377C9.57031 16.6626 9.15527 17.0776 8.65479 17.0776C8.12988 17.0776 7.71484 16.6626 7.71484 16.1377C7.71484 15.6372 8.14209 15.1978 8.65479 15.1978ZM16.0522 15.1978C16.5527 15.1978 16.9922 15.6372 16.9922 16.1377C16.9922 16.6626 16.5649 17.0776 16.0522 17.0776C15.5396 17.0776 15.1245 16.6626 15.1245 16.1377L15.1245 15.1978Z" fill="#5ac8f5"/>
 </g>
</svg>
