<?xml version="1.0" encoding="UTF-8"?>
<!--Generator: Apple Native CoreSVG 175.5-->
<!DOCTYPE svg
PUBLIC "-//W3C//DTD SVG 1.1//EN"
       "http://www.w3.org/Graphics/SVG/1.1/DTD/svg11.dtd">
<svg version="1.1" xmlns="http://www.w3.org/2000/svg" xmlns:xlink="http://www.w3.org/1999/xlink" width="27.6855" height="25.4517">
 <g>
  <rect height="25.4517" opacity="0" width="27.6855" x="0" y="0"/>
  <path d="M4.83398 25.4517C6.29883 25.4517 9.94873 23.8525 12.0239 22.3633C12.2314 22.2168 12.4023 22.1558 12.5732 22.1558C12.7319 22.168 12.8906 22.1802 13.0493 22.1802C21.8506 22.1802 27.6855 17.1753 27.6855 11.0962C27.6855 4.95605 21.5332 0 13.8428 0C6.15234 0 0 4.95605 0 11.0962C0 15.0024 2.40479 18.4326 6.32324 20.5322C6.50635 20.6299 6.56738 20.813 6.46973 20.9961C5.78613 22.1191 4.56543 23.4619 4.10156 24.0723C3.62549 24.6826 3.89404 25.4517 4.83398 25.4517ZM7.88574 11.2305C7.88574 10.5835 8.3252 10.144 8.95996 10.144L12.7808 10.144L12.7808 6.33545C12.7808 5.70068 13.208 5.24902 13.8306 5.24902C14.4653 5.24902 14.9048 5.68848 14.9048 6.33545L14.9048 10.144L18.7378 10.144C19.3604 10.144 19.812 10.5835 19.812 11.2305C19.812 11.8408 19.3604 12.2681 18.7378 12.2681L14.9048 12.2681L14.9048 16.1011C14.9048 16.7236 14.4653 17.1753 13.8306 17.1753C13.208 17.1753 12.7808 16.7236 12.7808 16.1011L12.7808 12.2681L8.95996 12.2681C8.3252 12.2681 7.88574 11.8408 7.88574 11.2305Z" fill="#5ac8f5"/>
 </g>
</svg>
