<?xml version="1.0" encoding="UTF-8"?>
<!--Generator: Apple Native CoreSVG 175.5-->
<!DOCTYPE svg
PUBLIC "-//W3C//DTD SVG 1.1//EN"
       "http://www.w3.org/Graphics/SVG/1.1/DTD/svg11.dtd">
<svg version="1.1" xmlns="http://www.w3.org/2000/svg" xmlns:xlink="http://www.w3.org/1999/xlink" width="25.2519" height="21.6919">
 <g>
  <rect height="21.6919" opacity="0" width="25.2519" x="0" y="0"/>
  <path d="M22.6454 15.0146C23.6341 13.9526 22.1693 12.4634 21.0218 13.5986C19.4105 15.1978 16.6639 16.1865 13.6366 16.1865C10.3163 16.1865 7.15464 15.4175 4.1273 13.7695C2.7479 13.0127 1.72251 14.978 3.15074 15.7349C6.43443 17.4805 10.0111 18.3594 13.6366 18.3594C17.3597 18.3594 20.6556 17.1387 22.6454 15.0146ZM5.36021 16.5161C5.07945 17.0532 4.45689 18.0664 4.07847 18.4692C3.22398 19.3604 4.4691 20.459 5.32359 19.5312C6.09263 18.689 6.70298 17.395 6.93492 17.0044ZM9.62046 17.4927C9.38853 18.5791 9.02232 19.7876 8.8148 20.2637C8.31431 21.4111 9.8646 22.0093 10.3529 20.8374C10.7801 19.7632 11.0731 18.1763 11.1341 17.7246ZM14.0516 17.7612C14.2103 18.8721 14.1493 20.1416 14.1127 20.6665C14.0516 21.9116 15.724 21.936 15.7484 20.6787C15.785 19.519 15.6385 17.9199 15.5531 17.4683ZM18.202 16.9678C18.8246 18.2007 19.0199 19.4946 19.1297 20.0195C19.3495 21.2524 20.9852 20.7031 20.7167 19.6167C20.3871 18.2495 19.972 16.8335 19.5082 16.1499Z" fill="#5ac8f5" fill-opacity="0.5"/>
  <path d="M2.58921 9.97314C4.89634 9.97314 12.6722 4.38232 16.4564 4.38232C17.787 4.38232 18.9588 4.91943 20.1918 6.04248L23.2557 8.8623C24.2689 9.79004 25.7093 8.69141 25.1112 7.65381C24.5741 6.7749 23.7562 5.5542 21.9496 3.55225C19.9964 1.37939 18.2142 0 15.4188 0C11.7933 0 6.27574 2.09961 1.14878 4.82178C-1.03628 5.98145 0.147807 9.97314 2.58921 9.97314Z" fill="#5ac8f5"/>
 </g>
</svg>
