<?xml version="1.0" encoding="UTF-8"?>
<!--Generator: Apple Native CoreSVG 175.5-->
<!DOCTYPE svg
PUBLIC "-//W3C//DTD SVG 1.1//EN"
       "http://www.w3.org/Graphics/SVG/1.1/DTD/svg11.dtd">
<svg version="1.1" xmlns="http://www.w3.org/2000/svg" xmlns:xlink="http://www.w3.org/1999/xlink" width="25.8545" height="29.6753">
 <g>
  <rect height="29.6753" opacity="0" width="25.8545" x="0" y="0"/>
  <path d="M12.9517 2.58789C13.6841 2.58789 14.2334 2.02637 14.2334 1.29395C14.2334 0.57373 13.6719 0 12.9517 0C12.2437 0 11.6577 0.585938 11.6577 1.29395C11.6577 2.01416 12.2314 2.58789 12.9517 2.58789ZM7.1167 5.94482C7.84912 5.94482 8.41064 5.3833 8.41064 4.65088C8.41064 3.93066 7.83691 3.35693 7.1167 3.35693C6.4209 3.35693 5.82275 3.94287 5.82275 4.65088C5.82275 5.37109 6.39648 5.94482 7.1167 5.94482ZM18.7744 5.94482C19.5068 5.94482 20.0684 5.3833 20.0684 4.65088C20.0684 3.93066 19.4946 3.35693 18.7744 3.35693C18.0786 3.35693 17.4805 3.94287 17.4805 4.65088C17.4805 5.37109 18.0542 5.94482 18.7744 5.94482ZM1.29395 9.35059C2.02637 9.35059 2.57568 8.78906 2.57568 8.05664C2.57568 7.34863 2.01416 6.7749 1.29395 6.7749C0.585938 6.7749 0 7.36084 0 8.05664C0 8.77686 0.57373 9.35059 1.29395 9.35059ZM12.9517 9.80225C13.916 9.80225 14.6851 9.0332 14.6851 8.05664C14.6851 7.10449 13.9038 6.32324 12.9517 6.32324C11.9995 6.32324 11.2061 7.1167 11.2061 8.05664C11.2061 9.021 11.9873 9.80225 12.9517 9.80225ZM24.5605 9.35059C25.293 9.35059 25.8545 8.78906 25.8545 8.05664C25.8545 7.33643 25.2808 6.7749 24.5605 6.7749C23.8525 6.7749 23.2666 7.36084 23.2666 8.05664C23.2666 8.77686 23.8403 9.35059 24.5605 9.35059ZM7.1167 13.1836C8.09326 13.1836 8.8623 12.4146 8.8623 11.438C8.8623 10.4736 8.08105 9.69238 7.1167 9.69238C6.17676 9.69238 5.3833 10.498 5.3833 11.438C5.3833 12.4023 6.16455 13.1836 7.1167 13.1836ZM18.7744 13.1836C19.751 13.1836 20.52 12.4146 20.52 11.438C20.52 10.4736 19.7388 9.69238 18.7744 9.69238C17.8345 9.69238 17.041 10.498 17.041 11.438C17.041 12.4023 17.8223 13.1836 18.7744 13.1836ZM1.29395 16.1255C2.01416 16.1255 2.57568 15.5518 2.57568 14.8315C2.57568 14.1113 2.01416 13.5376 1.29395 13.5376C0.585938 13.5376 0 14.1235 0 14.8315C0 15.5518 0.57373 16.1255 1.29395 16.1255ZM12.9517 16.8701C14.0869 16.8701 14.9902 15.9668 14.9902 14.8315C14.9902 13.7085 14.0625 12.793 12.9517 12.793C11.8408 12.793 10.9131 13.7207 10.9131 14.8315C10.9131 15.9424 11.8286 16.8701 12.9517 16.8701ZM24.5605 16.1255C25.293 16.1255 25.8545 15.564 25.8545 14.8315C25.8545 14.1113 25.2808 13.5376 24.5605 13.5376C23.8525 13.5376 23.2666 14.1235 23.2666 14.8315C23.2666 15.5518 23.8403 16.1255 24.5605 16.1255ZM7.1167 19.9707C8.09326 19.9707 8.8623 19.2017 8.8623 18.2251C8.8623 17.2607 8.08105 16.4795 7.1167 16.4795C6.17676 16.4795 5.3833 17.2729 5.3833 18.2251C5.3833 19.1772 6.16455 19.9707 7.1167 19.9707ZM18.7744 19.9707C19.751 19.9707 20.52 19.2017 20.52 18.2251C20.52 17.2607 19.7388 16.4795 18.7744 16.4795C17.8345 16.4795 17.041 17.2729 17.041 18.2251C17.041 19.1772 17.8223 19.9707 18.7744 19.9707ZM1.29395 22.8882C2.02637 22.8882 2.57568 22.3267 2.57568 21.5942C2.57568 20.8862 2.01416 20.3125 1.29395 20.3125C0.585938 20.3125 0 20.8984 0 21.5942C0 22.3145 0.57373 22.8882 1.29395 22.8882ZM12.9517 23.3398C13.916 23.3398 14.6851 22.5708 14.6851 21.5942C14.6851 20.6421 13.9038 19.8608 12.9517 19.8608C12.0117 19.8608 11.2061 20.6543 11.2061 21.5942C11.2061 22.5586 11.9873 23.3398 12.9517 23.3398ZM24.5605 22.8882C25.293 22.8882 25.8545 22.3389 25.8545 21.5942C25.8545 20.8862 25.2808 20.3125 24.5605 20.3125C23.8525 20.3125 23.2666 20.8984 23.2666 21.5942C23.2666 22.3145 23.8403 22.8882 24.5605 22.8882ZM7.1167 26.2939C7.84912 26.2939 8.41064 25.7446 8.41064 25.0122C8.41064 24.292 7.83691 23.7183 7.1167 23.7183C6.4209 23.7183 5.82275 24.3042 5.82275 25.0122C5.82275 25.7324 6.39648 26.2939 7.1167 26.2939ZM18.7744 26.2939C19.5068 26.2939 20.0684 25.7446 20.0684 25.0122C20.0684 24.292 19.4946 23.7183 18.7744 23.7183C18.0786 23.7183 17.4805 24.3042 17.4805 25.0122C17.4805 25.7324 18.0542 26.2939 18.7744 26.2939ZM12.9517 29.6631C13.6841 29.6631 14.2334 29.1016 14.2334 28.3691C14.2334 27.6489 13.6719 27.0752 12.9517 27.0752C12.2437 27.0752 11.6577 27.6611 11.6577 28.3691C11.6577 29.0894 12.2314 29.6631 12.9517 29.6631Z" fill="#5ac8f5"/>
 </g>
</svg>
