<?xml version="1.0" encoding="UTF-8"?>
<!--Generator: Apple Native CoreSVG 175.5-->
<!DOCTYPE svg
PUBLIC "-//W3C//DTD SVG 1.1//EN"
       "http://www.w3.org/Graphics/SVG/1.1/DTD/svg11.dtd">
<svg version="1.1" xmlns="http://www.w3.org/2000/svg" xmlns:xlink="http://www.w3.org/1999/xlink" width="24.9023" height="24.9146">
 <g>
  <rect height="24.9146" opacity="0" width="24.9023" x="0" y="0"/>
  <path d="M12.4512 24.9023C19.2627 24.9023 24.9023 19.2505 24.9023 12.4512C24.9023 5.63965 19.2505 0 12.439 0C5.63965 0 0 5.63965 0 12.4512C0 19.2505 5.65186 24.9023 12.4512 24.9023Z" fill="#5ac8f5" fill-opacity="0.25"/>
  <path d="M7.16553 18.0054C6.66504 18.0054 6.29883 17.6636 6.29883 17.1753L6.29883 7.71484C6.29883 7.22656 6.66504 6.88477 7.16553 6.88477C7.6416 6.88477 7.99561 7.22656 7.99561 7.71484L7.99561 17.1753C7.99561 17.6636 7.6416 18.0054 7.16553 18.0054ZM20.3735 12.4634C20.3735 12.9761 20.0073 13.3179 19.519 13.3179L13.7573 13.3179L11.438 13.1714L14.0015 15.4419L14.7949 16.1743C14.978 16.3208 15.0513 16.5283 15.0513 16.7847C15.0513 17.2729 14.7095 17.6025 14.2212 17.6025C14.0137 17.6025 13.7451 17.4927 13.5864 17.3218L9.25293 13.0981C9.04541 12.915 8.95996 12.6953 8.95996 12.4634C8.95996 12.2192 9.06982 12.0117 9.25293 11.8164L13.5986 7.55615C13.7695 7.36084 13.9893 7.2876 14.209 7.2876C14.6851 7.2876 15.0513 7.61719 15.0513 8.09326C15.0513 8.3252 14.978 8.55713 14.7949 8.71582L14.0137 9.48486L11.4502 11.7554L13.7573 11.6211L19.519 11.6211C20.0073 11.6211 20.3735 11.9751 20.3735 12.4634Z" fill="#5ac8f5"/>
 </g>
</svg>
