<?xml version="1.0" encoding="UTF-8"?>
<!--Generator: Apple Native CoreSVG 175.5-->
<!DOCTYPE svg
PUBLIC "-//W3C//DTD SVG 1.1//EN"
       "http://www.w3.org/Graphics/SVG/1.1/DTD/svg11.dtd">
<svg version="1.1" xmlns="http://www.w3.org/2000/svg" xmlns:xlink="http://www.w3.org/1999/xlink" width="22.4731" height="22.4976">
 <g>
  <rect height="22.4976" opacity="0" width="22.4731" x="0" y="0"/>
  <path d="M3.83301 22.4976L18.6401 22.4976C21.2036 22.4976 22.4731 21.228 22.4731 18.7134L22.4731 3.80859C22.4731 1.29395 21.2036 0.0244141 18.6401 0.0244141L3.83301 0.0244141C1.28174 0.0244141 0 1.28174 0 3.80859L0 18.7134C0 21.2402 1.28174 22.4976 3.83301 22.4976ZM3.85742 20.5322C2.63672 20.5322 1.96533 19.8853 1.96533 18.6157L1.96533 3.90625C1.96533 2.63672 2.63672 1.98975 3.85742 1.98975L18.6157 1.98975C19.8242 1.98975 20.5078 2.63672 20.5078 3.90625L20.5078 18.6157C20.5078 19.8853 19.8242 20.5322 18.6157 20.5322ZM11.2549 17.3462C11.792 17.3462 12.1704 16.9678 12.1704 16.4307L12.1704 10.3271L12.0728 7.73926L13.3179 9.21631L14.7583 10.6812C14.917 10.8521 15.1367 10.9497 15.4053 10.9497C15.9058 10.9497 16.2964 10.5591 16.2964 10.0708C16.2964 9.81445 16.2109 9.59473 16.04 9.43604L11.9751 5.37109C11.7432 5.13916 11.5356 5.0293 11.2549 5.0293C10.9985 5.0293 10.791 5.12695 10.5469 5.37109L6.46973 9.43604C6.31104 9.59473 6.23779 9.81445 6.23779 10.0708C6.23779 10.5591 6.61621 10.9497 7.1167 10.9497C7.38525 10.9497 7.60498 10.8398 7.76367 10.6812L9.21631 9.21631L10.437 7.75146L10.3394 10.3271L10.3394 16.4307C10.3394 16.9678 10.73 17.3462 11.2549 17.3462Z" fill="#5ac8f5"/>
 </g>
</svg>
