<?xml version="1.0" encoding="UTF-8"?>
<!--Generator: Apple Native CoreSVG 175.5-->
<!DOCTYPE svg
PUBLIC "-//W3C//DTD SVG 1.1//EN"
       "http://www.w3.org/Graphics/SVG/1.1/DTD/svg11.dtd">
<svg version="1.1" xmlns="http://www.w3.org/2000/svg" xmlns:xlink="http://www.w3.org/1999/xlink" width="25.3296" height="23.4741">
 <g>
  <rect height="23.4741" opacity="0" width="25.3296" x="0" y="0"/>
  <path d="M8.19092 7.40967C10.2173 7.40967 11.9019 5.7251 11.9019 3.71094C11.9019 1.68457 10.2173 0 8.19092 0C6.16455 0 4.47998 1.68457 4.47998 3.71094C4.47998 5.71289 6.15234 7.40967 8.19092 7.40967ZM17.1387 7.40967C19.165 7.40967 20.8618 5.7251 20.8618 3.71094C20.8618 1.68457 19.165 0 17.1387 0C15.1123 0 13.4277 1.68457 13.4277 3.71094C13.4277 5.7251 15.1123 7.40967 17.1387 7.40967ZM3.71094 15.4419C5.74951 15.4419 7.43408 13.7573 7.43408 11.731C7.43408 9.70459 5.74951 8.02002 3.71094 8.02002C1.68457 8.02002 0 9.70459 0 11.731C0 13.7451 1.67236 15.4419 3.71094 15.4419ZM21.6187 15.4419C23.645 15.4419 25.3296 13.7573 25.3296 11.731C25.3296 9.70459 23.645 8.02002 21.6187 8.02002C19.5923 8.02002 17.8955 9.70459 17.8955 11.731C17.8955 13.7573 19.5923 15.4419 21.6187 15.4419ZM8.19092 23.4619C10.2173 23.4619 11.9019 21.7773 11.9019 19.751C11.9019 17.7246 10.2173 16.04 8.19092 16.04C6.16455 16.04 4.47998 17.7246 4.47998 19.751C4.47998 21.7651 6.15234 23.4619 8.19092 23.4619ZM17.1387 23.4619C19.165 23.4619 20.8618 21.7773 20.8618 19.751C20.8618 17.7246 19.165 16.04 17.1387 16.04C15.1123 16.04 13.4277 17.7246 13.4277 19.751C13.4277 21.7773 15.1123 23.4619 17.1387 23.4619Z" fill="#5ac8f5"/>
 </g>
</svg>
