<?xml version="1.0" encoding="UTF-8"?>
<!--Generator: Apple Native CoreSVG 175.5-->
<!DOCTYPE svg
PUBLIC "-//W3C//DTD SVG 1.1//EN"
       "http://www.w3.org/Graphics/SVG/1.1/DTD/svg11.dtd">
<svg version="1.1" xmlns="http://www.w3.org/2000/svg" xmlns:xlink="http://www.w3.org/1999/xlink" width="24.4263" height="27.3315">
 <g>
  <rect height="27.3315" opacity="0" width="24.4263" x="0" y="0"/>
  <path d="M10.6689 25.354C15.1367 25.354 18.7622 23.1079 20.3979 19.2749C20.6177 18.7622 20.5444 18.3472 20.3125 18.1152C20.105 17.8955 19.7266 17.8589 19.2993 18.0176C18.3716 18.3838 17.2607 18.6035 15.8569 18.6035C10.3882 18.6035 6.88477 15.1855 6.88477 9.83887C6.88477 8.36182 7.16553 6.88477 7.54395 6.11572C7.77588 5.63965 7.76367 5.2124 7.54395 4.96826C7.31201 4.69971 6.89697 4.61426 6.33545 4.83398C2.58789 6.35986 0 10.2783 0 14.8315C0 20.7764 4.38232 25.354 10.6689 25.354ZM10.6934 23.4863C5.49316 23.4863 1.86768 19.6899 1.86768 14.6851C1.86768 11.6211 3.2959 8.89893 5.56641 7.16553C5.26123 7.97119 5.09033 9.17969 5.09033 10.3516C5.09033 16.3696 9.24072 20.3979 15.3931 20.3979C16.4795 20.3979 17.4805 20.2515 18.0054 20.0806C16.4795 22.1924 13.7573 23.4863 10.6934 23.4863ZM19.7266 14.1968C19.9585 14.1968 20.1172 14.0381 20.1416 13.7939C20.5444 10.5347 20.7031 10.4492 24.0112 9.91211C24.2676 9.87549 24.4263 9.74121 24.4263 9.50928C24.4263 9.27734 24.2676 9.13086 24.0601 9.09424C20.7275 8.45947 20.5444 8.47168 20.1416 5.2124C20.1172 4.96826 19.9585 4.80957 19.7266 4.80957C19.5068 4.80957 19.3481 4.96826 19.3115 5.2002C18.8965 8.5083 18.7744 8.61816 15.3931 9.09424C15.1855 9.11865 15.0269 9.27734 15.0269 9.50928C15.0269 9.729 15.1855 9.87549 15.3931 9.91211C18.7744 10.5591 18.8843 10.5591 19.3115 13.8184C19.3481 14.0381 19.5068 14.1968 19.7266 14.1968ZM13.8916 5.93262C14.0381 5.93262 14.1113 5.84717 14.1357 5.71289C14.5142 3.67432 14.502 3.62549 16.626 3.22266C16.7603 3.19824 16.8579 3.11279 16.8579 2.96631C16.8579 2.81982 16.7603 2.73438 16.626 2.70996C14.502 2.28271 14.5752 2.23389 14.1357 0.219727C14.1113 0.0854492 14.0381 0 13.8916 0C13.7451 0 13.6597 0.0854492 13.6353 0.219727C13.208 2.23389 13.2812 2.28271 11.1572 2.70996C11.0107 2.73438 10.9253 2.81982 10.9253 2.96631C10.9253 3.11279 11.0107 3.19824 11.1572 3.22266C13.2812 3.6499 13.2568 3.67432 13.6353 5.71289C13.6597 5.84717 13.7451 5.93262 13.8916 5.93262Z" fill="#5ac8f5"/>
 </g>
</svg>
