<?xml version="1.0" encoding="UTF-8"?>
<!--Generator: Apple Native CoreSVG 175.5-->
<!DOCTYPE svg
PUBLIC "-//W3C//DTD SVG 1.1//EN"
       "http://www.w3.org/Graphics/SVG/1.1/DTD/svg11.dtd">
<svg version="1.1" xmlns="http://www.w3.org/2000/svg" xmlns:xlink="http://www.w3.org/1999/xlink" width="29.6875" height="29.6997">
 <g>
  <rect height="29.6997" opacity="0" width="29.6875" x="0" y="0"/>
  <path d="M14.8438 26.4038C21.1914 26.4038 26.3672 21.2158 26.3672 14.856C26.3672 8.49609 21.1914 3.30811 14.8438 3.30811C8.49609 3.30811 3.32031 8.49609 3.32031 14.856C3.32031 21.2158 8.49609 26.4038 14.8438 26.4038ZM14.8438 24.4141C9.5459 24.4141 5.37109 20.2026 5.37109 14.856C5.37109 9.50928 9.5459 5.29785 14.8438 5.29785C20.1416 5.29785 24.3164 9.50928 24.3164 14.856C24.3164 20.2026 20.1416 24.4141 14.8438 24.4141ZM14.8438 29.6997C15.332 29.6997 15.7104 29.3091 15.7104 28.8208L15.7104 0.891113C15.7104 0.402832 15.332 0.012207 14.8438 0.012207C14.3555 0.012207 13.9648 0.402832 13.9648 0.891113L13.9648 28.8208C13.9648 29.3091 14.3555 29.6997 14.8438 29.6997ZM25.3418 25.354C25.6958 25.0122 25.6836 24.4629 25.3418 24.1089L5.59082 4.35791C5.23682 4.01611 4.6875 4.01611 4.3457 4.35791C3.9917 4.69971 4.00391 5.24902 4.3457 5.60303L24.0967 25.354C24.4507 25.6958 25 25.708 25.3418 25.354ZM0.878906 15.7349L28.8086 15.7349C29.2969 15.7349 29.6875 15.3442 29.6875 14.856C29.6875 14.3677 29.2969 13.9893 28.8086 13.9893L0.878906 13.9893C0.390625 13.9893 0 14.3677 0 14.856C0 15.3442 0.390625 15.7349 0.878906 15.7349ZM5.59082 25.354L25.3418 5.60303C25.6836 5.24902 25.6958 4.69971 25.3418 4.35791C25 4.01611 24.4507 4.01611 24.0967 4.35791L4.3457 24.1089C4.00391 24.4629 3.9917 25.0122 4.3457 25.354C4.6875 25.708 5.23682 25.6958 5.59082 25.354Z" fill="#5ac8f5"/>
 </g>
</svg>
