<?xml version="1.0" encoding="UTF-8"?>
<!--Generator: Apple Native CoreSVG 175.5-->
<!DOCTYPE svg
PUBLIC "-//W3C//DTD SVG 1.1//EN"
       "http://www.w3.org/Graphics/SVG/1.1/DTD/svg11.dtd">
<svg version="1.1" xmlns="http://www.w3.org/2000/svg" xmlns:xlink="http://www.w3.org/1999/xlink" width="23.877" height="23.938">
 <g>
  <rect height="23.938" opacity="0" width="23.877" x="0" y="0"/>
  <path d="M17.749 23.938C19.8853 23.938 21.2891 23.3643 22.522 21.9727C22.6196 21.875 22.7173 21.7651 22.8027 21.6675C23.5352 20.8496 23.877 20.0439 23.877 19.2749C23.877 18.396 23.3643 17.5781 22.2778 16.8213L18.7256 14.3555C17.627 13.5986 16.3452 13.5132 15.3198 14.5264L14.3799 15.4663C14.0991 15.7471 13.855 15.7593 13.5864 15.5884C12.9272 15.1733 11.5967 14.0137 10.6934 13.1104C9.74121 12.1704 8.82568 11.1206 8.3374 10.3516C8.17871 10.0708 8.19092 9.83887 8.47168 9.55811L9.39941 8.61816C10.4248 7.59277 10.3394 6.29883 9.58252 5.2124L7.1167 1.66016C6.35986 0.57373 5.54199 0.0732422 4.66309 0.0610352C3.89404 0.0488281 3.08838 0.402832 2.27051 1.13525C2.16064 1.23291 2.06299 1.31836 1.96533 1.40381C0.57373 2.64893 0 4.05273 0 6.16455C0 9.65576 2.14844 13.9038 6.09131 17.8467C10.0098 21.7651 14.27 23.938 17.749 23.938ZM17.7612 22.0581C14.6484 22.1191 10.6567 19.7266 7.49512 16.5771C4.30908 13.4033 1.80664 9.27734 1.86768 6.16455C1.89209 4.82178 2.36816 3.66211 3.32031 2.83203C3.40576 2.75879 3.4668 2.69775 3.55225 2.63672C3.91846 2.31934 4.30908 2.14844 4.66309 2.14844C5.01709 2.14844 5.33447 2.28271 5.56641 2.64893L7.93457 6.20117C8.19092 6.57959 8.21533 7.00684 7.83691 7.38525L6.7627 8.45947C5.92041 9.30176 5.98145 10.3271 6.5918 11.145C7.2876 12.085 8.49609 13.4521 9.43604 14.3799C10.3638 15.3198 11.8408 16.6382 12.793 17.3462C13.6108 17.9565 14.6362 18.0176 15.4785 17.1753L16.5527 16.1011C16.9312 15.7227 17.3462 15.7471 17.7368 15.9912L21.2891 18.3594C21.6553 18.6035 21.7896 18.9087 21.7896 19.2749C21.7896 19.6289 21.6187 20.0195 21.3013 20.3857C21.228 20.4712 21.1792 20.5322 21.106 20.6177C20.2759 21.5698 19.1162 22.0337 17.7612 22.0581Z" fill="#5ac8f5"/>
 </g>
</svg>
