<?xml version="1.0" encoding="UTF-8"?>
<!--Generator: Apple Native CoreSVG 175.5-->
<!DOCTYPE svg
PUBLIC "-//W3C//DTD SVG 1.1//EN"
       "http://www.w3.org/Graphics/SVG/1.1/DTD/svg11.dtd">
<svg version="1.1" xmlns="http://www.w3.org/2000/svg" xmlns:xlink="http://www.w3.org/1999/xlink" width="35.2051" height="25.0427">
 <g>
  <rect height="25.0427" opacity="0" width="35.2051" x="0" y="0"/>
  <path d="M21.2769 19.6808L6.01807 19.6808L6.01807 5.74036C6.01807 5.3009 6.17676 5.00793 6.50635 4.88586L4.88281 3.26233C4.3335 3.64075 4.05273 4.28772 4.05273 5.19104L4.05273 19.6808L1.37939 19.6808C0.622559 19.6808 0 20.3033 0 21.0724C0 21.8414 0.622559 22.464 1.37939 22.464L24.0601 22.464ZM30.8838 22.464L33.8257 22.464C34.5825 22.464 35.2051 21.8414 35.2051 21.0724C35.2051 20.3033 34.5825 19.6808 33.8257 19.6808L31.1523 19.6808L31.1523 5.19104C31.1523 3.48206 30.2368 2.60315 28.54 2.60315L11.0229 2.60315L12.9883 4.56848L28.0151 4.56848C28.7964 4.56848 29.187 4.95911 29.187 5.74036L29.187 19.6808L28.1128 19.6808Z" fill="#5ac8f5" fill-opacity="0.5"/>
  <path d="M28.4302 24.7589C28.7964 25.1373 29.4067 25.1373 29.7607 24.7589C30.127 24.3927 30.1392 23.8068 29.7729 23.4283L6.66504 0.308228C6.29883-0.0579834 5.68848-0.0701904 5.32227 0.308228C4.95605 0.662231 4.95605 1.27258 5.32227 1.63879Z" fill="#5ac8f5"/>
 </g>
</svg>
