<?xml version="1.0" encoding="UTF-8"?>
<!--Generator: Apple Native CoreSVG 175.5-->
<!DOCTYPE svg
PUBLIC "-//W3C//DTD SVG 1.1//EN"
       "http://www.w3.org/Graphics/SVG/1.1/DTD/svg11.dtd">
<svg version="1.1" xmlns="http://www.w3.org/2000/svg" xmlns:xlink="http://www.w3.org/1999/xlink" width="22.623" height="28.4546">
 <g>
  <rect height="28.4546" opacity="0" width="22.623" x="0" y="0"/>
  <path d="M5.0415 0C2.40479 0 0 4.01611 0 7.12891C0 8.61816 0.500488 11.5479 1.67236 13.9038L8.42285 13.9038C9.58252 11.5479 10.0952 8.61816 10.0952 7.12891C10.0952 4.01611 7.69043 0 5.0415 0ZM5.05371 21.0815C6.95801 21.0815 7.9834 19.1895 7.9834 16.5039C7.9834 16.2476 7.95898 15.8691 7.91016 15.5762L2.19727 15.5762C2.14844 15.8691 2.12402 16.2476 2.12402 16.5039C2.12402 19.1895 3.14941 21.0815 5.05371 21.0815ZM19.873 8.02002C17.3828 7.1167 13.7695 10.0586 12.6953 12.9883C12.1948 14.3921 11.6577 17.3218 11.9385 19.9341L18.2861 22.2412C20.1904 20.4224 21.6675 17.8589 22.1802 16.4307C23.2422 13.5132 22.3633 8.93555 19.873 8.02002ZM12.6709 27.832C14.4653 28.479 16.0767 27.0508 16.9922 24.5361C17.0776 24.292 17.1753 23.9258 17.2485 23.6328L11.8774 21.6675C11.731 21.936 11.5723 22.2778 11.4868 22.522C10.5713 25.0488 10.8887 27.1729 12.6709 27.832Z" fill="#5ac8f5"/>
 </g>
</svg>
