<?xml version="1.0" encoding="UTF-8"?>
<!--Generator: Apple Native CoreSVG 175.5-->
<!DOCTYPE svg
PUBLIC "-//W3C//DTD SVG 1.1//EN"
       "http://www.w3.org/Graphics/SVG/1.1/DTD/svg11.dtd">
<svg version="1.1" xmlns="http://www.w3.org/2000/svg" xmlns:xlink="http://www.w3.org/1999/xlink" width="39.5752" height="19.8853">
 <g>
  <rect height="19.8853" opacity="0" width="39.5752" x="0" y="0"/>
  <path d="M1.62354 19.8853L4.40674 19.8853C5.46875 19.8853 6.03027 19.3237 6.03027 18.2495L6.03027 1.62354C6.03027 0.512695 5.46875 0 4.40674 0L1.62354 0C0.561523 0 0 0.561523 0 1.62354L0 18.2495C0 19.3237 0.561523 19.8853 1.62354 19.8853ZM21.0449 19.519C22.0093 19.519 22.8027 18.7988 22.8027 17.4316L22.8027 2.44141C22.8027 1.07422 22.0093 0.341797 21.0449 0.341797C20.5444 0.341797 20.1416 0.500488 19.6411 0.793457L7.20215 8.11768C6.33545 8.63037 5.96924 9.22852 5.96924 9.93652C5.96924 10.6323 6.33545 11.2427 7.20215 11.7554L19.6411 19.0674C20.1416 19.3604 20.5444 19.519 21.0449 19.519ZM37.8174 19.519C38.7817 19.519 39.5752 18.7988 39.5752 17.4316L39.5752 2.44141C39.5752 1.07422 38.7817 0.341797 37.8174 0.341797C37.3169 0.341797 36.9141 0.500488 36.4136 0.793457L23.9746 8.11768C23.1079 8.63037 22.7417 9.22852 22.7417 9.93652C22.7417 10.6323 23.1079 11.2427 23.9746 11.7554L36.4136 19.0674C36.9141 19.3604 37.3169 19.519 37.8174 19.519Z" fill="#5ac8f5"/>
 </g>
</svg>
