<?xml version="1.0" encoding="UTF-8"?>
<!--Generator: Apple Native CoreSVG 175.5-->
<!DOCTYPE svg
PUBLIC "-//W3C//DTD SVG 1.1//EN"
       "http://www.w3.org/Graphics/SVG/1.1/DTD/svg11.dtd">
<svg version="1.1" xmlns="http://www.w3.org/2000/svg" xmlns:xlink="http://www.w3.org/1999/xlink" width="28.7842" height="22.4731">
 <g>
  <rect height="22.4731" opacity="0" width="28.7842" x="0" y="0"/>
  <path d="M1.30615 4.11377L1.30615 5.83496L27.478 5.83496L27.478 4.11377ZM3.83301 22.4731L24.9512 22.4731C27.5146 22.4731 28.7842 21.2158 28.7842 18.7012L28.7842 3.78418C28.7842 1.26953 27.5146 0 24.9512 0L3.83301 0C1.28174 0 0 1.26953 0 3.78418L0 18.7012C0 21.2158 1.28174 22.4731 3.83301 22.4731ZM3.85742 20.5078C2.63672 20.5078 1.96533 19.8608 1.96533 18.5913L1.96533 3.89404C1.96533 2.62451 2.63672 1.96533 3.85742 1.96533L24.9268 1.96533C26.1353 1.96533 26.8188 2.62451 26.8188 3.89404L26.8188 18.5913C26.8188 19.8608 26.1353 20.5078 24.9268 20.5078Z" fill="#5ac8f5" fill-opacity="0.5"/>
  <path d="M5.24902 17.5171C5.24902 18.1519 5.68848 18.5791 6.33545 18.5791L22.4854 18.5791C23.1323 18.5791 23.5718 18.1519 23.5718 17.5171L23.5718 15.686C23.5718 15.0513 23.1323 14.624 22.4854 14.624L6.33545 14.624C5.68848 14.624 5.24902 15.0513 5.24902 15.686Z" fill="#5ac8f5"/>
 </g>
</svg>
