<?xml version="1.0" encoding="UTF-8"?>
<!--Generator: Apple Native CoreSVG 175.5-->
<!DOCTYPE svg
PUBLIC "-//W3C//DTD SVG 1.1//EN"
       "http://www.w3.org/Graphics/SVG/1.1/DTD/svg11.dtd">
<svg version="1.1" xmlns="http://www.w3.org/2000/svg" xmlns:xlink="http://www.w3.org/1999/xlink" width="26.6357" height="31.4098">
 <g>
  <rect height="31.4098" opacity="0" width="26.6357" x="0" y="0"/>
  <path d="M18.2861 13.7701C18.7012 14.0509 19.2749 13.9532 19.6045 13.4893C20.5322 12.2442 21.0938 10.4254 21.0938 8.55769C21.0938 6.69001 20.5322 4.88337 19.6045 3.63826C19.2749 3.16218 18.7012 3.07673 18.2861 3.3697C17.7979 3.7115 17.7124 4.30964 18.0908 4.81013C18.811 5.78669 19.2017 7.14167 19.2017 8.55769C19.2017 9.9737 18.7988 11.3165 18.0908 12.3052C17.7246 12.8179 17.7979 13.4161 18.2861 13.7701ZM22.8149 16.9439C23.2666 17.2491 23.8281 17.1514 24.1455 16.6754C25.708 14.5269 26.6357 11.5728 26.6357 8.55769C26.6357 5.54255 25.7202 2.56404 24.1455 0.440013C23.8281-0.0238539 23.2666-0.133717 22.8149 0.171459C22.3633 0.476634 22.29 1.05036 22.644 1.55085C23.9746 3.44294 24.7437 5.95759 24.7437 8.55769C24.7437 11.17 23.9502 13.6724 22.644 15.5645C22.3022 16.065 22.3633 16.6387 22.8149 16.9439ZM7.80029 0.732982C3.45459 0.732982 0 4.18757 0 8.50886C0 11.7681 1.95312 14.649 5.00488 15.8087L5.00488 27.857C5.00488 28.1622 5.10254 28.3941 5.32227 28.626L7.36084 30.6768C7.56836 30.8843 7.9834 30.9454 8.23975 30.689L12.1094 26.8194C12.3657 26.5509 12.3535 26.1968 12.1094 25.9405L9.70459 23.5723L13.0005 20.2886C13.2324 20.0445 13.2324 19.6905 12.9761 19.4219L9.7168 16.1383C13.4888 14.6368 15.5884 11.8536 15.5884 8.50886C15.5884 4.21199 12.1094 0.732982 7.80029 0.732982ZM7.80029 7.8863C6.66504 7.8863 5.76172 6.97077 5.76172 5.84773C5.76172 4.71247 6.65283 3.80915 7.80029 3.80915C8.92334 3.80915 9.83887 4.71247 9.83887 5.84773C9.83887 6.97077 8.92334 7.8863 7.80029 7.8863Z" fill="#5ac8f5"/>
 </g>
</svg>
