<?xml version="1.0" encoding="UTF-8"?>
<!--Generator: Apple Native CoreSVG 175.5-->
<!DOCTYPE svg
PUBLIC "-//W3C//DTD SVG 1.1//EN"
       "http://www.w3.org/Graphics/SVG/1.1/DTD/svg11.dtd">
<svg version="1.1" xmlns="http://www.w3.org/2000/svg" xmlns:xlink="http://www.w3.org/1999/xlink" width="24.9023" height="24.9146">
 <g>
  <rect height="24.9146" opacity="0" width="24.9023" x="0" y="0"/>
  <path d="M12.4512 24.9023C19.2627 24.9023 24.9023 19.2505 24.9023 12.4512C24.9023 5.63965 19.2505 0 12.439 0C5.63965 0 0 5.63965 0 12.4512C0 19.2505 5.65186 24.9023 12.4512 24.9023ZM4.3457 16.2842C3.85742 16.2842 3.6499 15.979 3.6499 15.5518L3.6499 9.69238C3.6499 9.0332 4.01611 8.61816 4.76074 8.61816C5.34668 8.61816 5.7251 8.8501 5.83496 9.48486L6.75049 13.9771L6.7627 13.9771L7.66602 9.48486C7.78809 8.83789 8.17871 8.61816 8.75244 8.61816C9.55811 8.61816 9.87549 9.14307 9.87549 9.69238L9.87549 15.5518C9.87549 15.979 9.66797 16.2842 9.17969 16.2842C8.6792 16.2842 8.48389 15.979 8.48389 15.5518L8.48389 10.9497L8.44727 10.9497L7.51953 15.4175C7.44629 15.8325 7.18994 16.1499 6.7627 16.1499C6.33545 16.1499 6.10352 15.8691 6.01807 15.4175L5.07812 10.9497L5.01709 10.9497L5.01709 15.5518C5.01709 16.0034 4.79736 16.2842 4.3457 16.2842ZM11.8774 16.2598C11.4014 16.2598 11.0718 16.0034 11.0718 15.4541L11.0718 9.57031C11.0718 9.0332 11.3525 8.72803 11.8774 8.72803L13.4766 8.72803C14.7949 8.72803 15.5151 9.86328 15.5151 11.2793C15.5151 12.6343 14.7949 13.8306 13.3545 13.8306L12.6587 13.8306L12.6587 15.4541C12.6587 15.9668 12.3901 16.2598 11.8774 16.2598ZM12.6587 12.6099L13.0249 12.6099C13.7695 12.6099 13.9526 12.0117 13.9526 11.2793C13.9526 10.4858 13.7207 9.96094 13.0371 9.96094L12.6587 9.96094ZM17.3096 16.2842C16.7725 16.2842 16.5161 15.979 16.5161 15.4541L16.5161 9.44824C16.5161 8.92334 16.7725 8.61816 17.3096 8.61816C17.8345 8.61816 18.0908 8.93555 18.0908 9.44824L18.0908 11.7554L19.6777 11.7554L19.6777 9.44824C19.6777 8.92334 19.9585 8.61816 20.4712 8.61816C20.9961 8.61816 21.2524 8.91113 21.2524 9.44824L21.2524 15.4541C21.2524 16.0156 20.9595 16.2842 20.4712 16.2842C19.9463 16.2842 19.6777 15.9668 19.6777 15.4541L19.6777 13.0493L18.0908 13.0493L18.0908 15.4541C18.0908 15.918 17.8589 16.2842 17.3096 16.2842Z" fill="#5ac8f5"/>
 </g>
</svg>
