<?xml version="1.0" encoding="UTF-8"?>
<!--Generator: Apple Native CoreSVG 175.5-->
<!DOCTYPE svg
PUBLIC "-//W3C//DTD SVG 1.1//EN"
       "http://www.w3.org/Graphics/SVG/1.1/DTD/svg11.dtd">
<svg version="1.1" xmlns="http://www.w3.org/2000/svg" xmlns:xlink="http://www.w3.org/1999/xlink" width="28.7842" height="22.4976">
 <g>
  <rect height="22.4976" opacity="0" width="28.7842" x="0" y="0"/>
  <path d="M3.83301 22.4976L24.9512 22.4976C27.5146 22.4976 28.7842 21.228 28.7842 18.7134L28.7842 3.80859C28.7842 1.29395 27.5146 0.0244141 24.9512 0.0244141L3.83301 0.0244141C1.28174 0.0244141 0 1.28174 0 3.80859L0 18.7134C0 21.2402 1.28174 22.4976 3.83301 22.4976ZM3.85742 20.5322C2.63672 20.5322 1.96533 19.8853 1.96533 18.6157L1.96533 3.90625C1.96533 2.63672 2.63672 1.98975 3.85742 1.98975L24.9268 1.98975C26.1353 1.98975 26.8188 2.63672 26.8188 3.90625L26.8188 18.6157C26.8188 19.8853 26.1353 20.5322 24.9268 20.5322ZM17.6025 20.9106L19.519 20.9106L19.519 1.62354L17.6025 1.62354ZM21.8628 6.51855L24.4751 6.51855C24.8535 6.51855 25.1709 6.18896 25.1709 5.83496C25.1709 5.46875 24.8535 5.15137 24.4751 5.15137L21.8628 5.15137C21.4966 5.15137 21.167 5.46875 21.167 5.83496C21.167 6.18896 21.4966 6.51855 21.8628 6.51855ZM21.8628 9.68018L24.4751 9.68018C24.8535 9.68018 25.1709 9.35059 25.1709 8.98438C25.1709 8.61816 24.8535 8.31299 24.4751 8.31299L21.8628 8.31299C21.4966 8.31299 21.167 8.61816 21.167 8.98438C21.167 9.35059 21.4966 9.68018 21.8628 9.68018ZM21.8628 12.8296L24.4751 12.8296C24.8535 12.8296 25.1709 12.5244 25.1709 12.1582C25.1709 11.792 24.8535 11.4746 24.4751 11.4746L21.8628 11.4746C21.4966 11.4746 21.167 11.792 21.167 12.1582C21.167 12.5244 21.4966 12.8296 21.8628 12.8296Z" fill="#5ac8f5"/>
 </g>
</svg>
