<?xml version="1.0" encoding="UTF-8"?>
<!--Generator: Apple Native CoreSVG 175.5-->
<!DOCTYPE svg
PUBLIC "-//W3C//DTD SVG 1.1//EN"
       "http://www.w3.org/Graphics/SVG/1.1/DTD/svg11.dtd">
<svg version="1.1" xmlns="http://www.w3.org/2000/svg" xmlns:xlink="http://www.w3.org/1999/xlink" width="24.9023" height="24.9146">
 <g>
  <rect height="24.9146" opacity="0" width="24.9023" x="0" y="0"/>
  <path d="M12.4512 24.9023C19.2627 24.9023 24.9023 19.2505 24.9023 12.4512C24.9023 5.63965 19.2505 0 12.439 0C5.63965 0 0 5.63965 0 12.4512C0 19.2505 5.65186 24.9023 12.4512 24.9023ZM5.34668 16.272C4.78516 16.272 4.55322 15.918 4.55322 15.4663L4.55322 9.43604C4.55322 8.94775 4.83398 8.61816 5.33447 8.61816C5.84717 8.61816 6.12793 8.93555 6.12793 9.43604L6.12793 12.0728L6.20117 12.0728L7.67822 9.27734C7.84912 8.91113 8.05664 8.61816 8.48389 8.61816C8.89893 8.61816 9.17969 8.94775 9.17969 9.31396C9.17969 9.61914 9.05762 9.83887 8.91113 10.0952L7.75146 12.1582L9.05762 14.6851C9.15527 14.8804 9.33838 15.3198 9.33838 15.5396C9.33838 15.979 8.98438 16.272 8.61816 16.272C8.20312 16.272 7.9834 16.04 7.78809 15.6372L6.57959 13.1836L6.12793 14.0381L6.12793 15.4663C6.12793 15.9668 5.85938 16.272 5.34668 16.272ZM10.9741 16.2598C10.4614 16.2598 10.1807 15.9546 10.1807 15.4541L10.1807 9.55811C10.1807 9.0332 10.4492 8.72803 10.9741 8.72803L12.561 8.72803C13.8916 8.72803 14.624 9.83887 14.624 11.2793C14.624 12.6709 13.8672 13.8184 12.4512 13.8184L11.7554 13.8184L11.7554 15.4541C11.7554 15.9668 11.4868 16.2598 10.9741 16.2598ZM11.7554 12.6099L12.1338 12.6099C12.8662 12.6099 13.0615 12.0117 13.0615 11.2793C13.0615 10.5591 12.8784 9.96094 12.146 9.96094L11.7554 9.96094ZM16.4062 16.272C15.8691 16.272 15.625 15.979 15.625 15.4419L15.625 9.44824C15.625 8.92334 15.8691 8.61816 16.4062 8.61816C16.9189 8.61816 17.1875 8.93555 17.1875 9.44824L17.1875 11.7554L18.7866 11.7554L18.7866 9.44824C18.7866 8.92334 19.0674 8.61816 19.5557 8.61816C20.0928 8.61816 20.3613 8.91113 20.3613 9.44824L20.3613 15.4419C20.3613 16.0034 20.0684 16.272 19.5557 16.272C19.0552 16.272 18.7866 15.9668 18.7866 15.4419L18.7866 13.0371L17.1875 13.0371L17.1875 15.4419C17.1875 15.918 16.9678 16.272 16.4062 16.272Z" fill="#5ac8f5"/>
 </g>
</svg>
