<?xml version="1.0" encoding="UTF-8"?>
<!--Generator: Apple Native CoreSVG 175.5-->
<!DOCTYPE svg
PUBLIC "-//W3C//DTD SVG 1.1//EN"
       "http://www.w3.org/Graphics/SVG/1.1/DTD/svg11.dtd">
<svg version="1.1" xmlns="http://www.w3.org/2000/svg" xmlns:xlink="http://www.w3.org/1999/xlink" width="25.5859" height="23.3276">
 <g>
  <rect height="23.3276" opacity="0" width="25.5859" x="0" y="0"/>
  <path d="M3.33252 23.1934L22.2534 23.1934C24.3286 23.1934 25.5859 21.7529 25.5859 19.8853C25.5859 19.3115 25.415 18.7134 25.1099 18.1763L15.6372 1.67236C15.0024 0.561523 13.916 0 12.793 0C11.6699 0 10.5713 0.561523 9.94873 1.67236L0.476074 18.1763C0.146484 18.7256 0 19.3115 0 19.8853C0 21.7529 1.25732 23.1934 3.33252 23.1934Z" fill="#5ac8f5" fill-opacity="0.25"/>
  <path d="M4.8584 19.6899C4.3457 19.6899 4.05273 19.2261 4.32129 18.7378L12.2437 4.90723C12.5 4.44336 13.0737 4.44336 13.3301 4.90723L21.2524 18.7378C21.5088 19.2017 21.228 19.6899 20.7153 19.6899ZM7.49512 17.7124L18.0786 17.7124C18.2129 17.7124 18.2983 17.5781 18.2251 17.4316L12.9395 8.21533C12.8784 8.08105 12.7075 8.08105 12.6465 8.21533L7.34863 17.4194C7.27539 17.5659 7.36084 17.7124 7.49512 17.7124Z" fill="#5ac8f5"/>
 </g>
</svg>
