<?xml version="1.0" encoding="UTF-8"?>
<!--Generator: Apple Native CoreSVG 175.5-->
<!DOCTYPE svg
PUBLIC "-//W3C//DTD SVG 1.1//EN"
       "http://www.w3.org/Graphics/SVG/1.1/DTD/svg11.dtd">
<svg version="1.1" xmlns="http://www.w3.org/2000/svg" xmlns:xlink="http://www.w3.org/1999/xlink" width="29.3335" height="28.9429">
 <g>
  <rect height="28.9429" opacity="0" width="29.3335" x="0" y="0"/>
  <path d="M16.1377 17.9321C16.1377 21.1914 18.7866 22.8882 18.7866 25.7324C18.7866 26.3916 18.6523 26.9409 18.2617 27.6367C18.0176 28.0762 18.1885 28.4668 18.4692 28.6743C18.8232 28.9062 19.3604 28.894 19.6655 28.3447C20.1416 27.5391 20.3735 26.6602 20.3735 25.7324C20.3735 22.4121 17.7124 20.7275 17.7124 17.9321C17.7124 17.2729 17.8589 16.7236 18.2617 16.0034C18.4937 15.5884 18.335 15.1855 18.0176 14.978C17.6758 14.7705 17.1387 14.7827 16.8457 15.2954C16.3452 16.1011 16.1377 17.0044 16.1377 17.9321ZM12.5488 17.9443C12.5488 21.1914 15.1978 22.9004 15.1978 25.7324C15.1978 26.4038 15.0635 26.9531 14.6606 27.6489C14.4287 28.0762 14.5996 28.479 14.8804 28.6865C15.2344 28.9062 15.7715 28.9062 16.0767 28.3691C16.5527 27.5513 16.7847 26.6602 16.7847 25.7324C16.7847 22.4243 14.1235 20.7397 14.1235 17.9443C14.1235 17.2729 14.27 16.7236 14.6606 16.0156C14.9048 15.6006 14.7461 15.1855 14.4287 14.978C14.0869 14.7705 13.5376 14.7827 13.2568 15.3076C12.7563 16.1133 12.5488 17.0166 12.5488 17.9443ZM8.95996 17.9321C8.95996 21.1914 11.6089 22.8882 11.6089 25.7324C11.6089 26.3916 11.4746 26.9409 11.0718 27.6367C10.8276 28.0762 11.0107 28.4668 11.2915 28.6743C11.6455 28.9062 12.1826 28.894 12.4878 28.3447C12.9639 27.5391 13.1958 26.6602 13.1958 25.7324C13.1958 22.4121 10.5347 20.7275 10.5347 17.9321C10.5347 17.2729 10.6812 16.7236 11.0718 16.0034C11.3159 15.5884 11.145 15.1855 10.8398 14.978C10.498 14.7705 9.94873 14.7827 9.65576 15.2954C9.16748 16.1011 8.95996 17.0044 8.95996 17.9321ZM19.9341 18.4937C19.9341 18.7622 20.166 18.9575 20.4468 18.9331L21.46 18.8721L20.8862 19.7144C20.752 19.9219 20.8008 20.2393 21.0327 20.3857C21.2646 20.5444 21.582 20.4346 21.6919 20.166L22.1436 19.2505L22.6074 20.1904C22.7295 20.4224 23.0225 20.5322 23.2666 20.3979C23.4863 20.2759 23.5596 19.9341 23.4009 19.7021L22.8271 18.8721L23.8403 18.9453C24.1089 18.9697 24.353 18.7744 24.353 18.4937C24.353 18.2007 24.1333 18.0054 23.8525 18.0298L22.8149 18.0908L23.4009 17.2363C23.5474 17.0044 23.5107 16.7114 23.2666 16.5771C23.0225 16.4429 22.7295 16.5283 22.6074 16.7725L22.1436 17.688L21.7041 16.7847C21.5942 16.5283 21.2891 16.4185 21.0327 16.5649C20.8008 16.687 20.7397 17.0044 20.8862 17.2363L21.46 18.0908L20.4468 18.042C20.1538 18.0298 19.9341 18.2129 19.9341 18.4937ZM5.07812 25.1587C5.07812 25.4395 5.29785 25.647 5.57861 25.6226L6.604 25.5615L6.01807 26.416C5.87158 26.6357 5.92041 26.9409 6.15234 27.063C6.40869 27.2095 6.70166 27.1118 6.81152 26.8677L7.27539 25.9521L7.73926 26.8555C7.83691 27.124 8.14209 27.2217 8.39844 27.0874C8.63037 26.9653 8.69141 26.6357 8.54492 26.416L7.97119 25.5615L8.98438 25.6104C9.26514 25.6226 9.48486 25.4272 9.48486 25.1587C9.48486 24.8901 9.25293 24.6948 8.98438 24.7192L7.95898 24.7803L8.53271 23.938C8.66699 23.7305 8.61816 23.4131 8.39844 23.2666C8.1665 23.1079 7.83691 23.2178 7.72705 23.4863L7.27539 24.3896L6.81152 23.4619C6.68945 23.23 6.40869 23.1201 6.15234 23.2544C5.93262 23.3765 5.85938 23.7183 6.01807 23.9502L6.5918 24.7803L5.59082 24.707C5.32227 24.6826 5.07812 24.8779 5.07812 25.1587Z" fill="#5ac8f5"/>
  <path d="M0 2.771L0 10.3394C0 12.0239 1.07422 13.1104 2.72217 13.1104L26.6113 13.1104C28.2593 13.1104 29.3335 12.0239 29.3335 10.3394L29.3335 2.771C29.3335 1.08643 28.2593 0 26.6113 0L2.72217 0C1.07422 0 0 1.08643 0 2.771ZM19.812 9.76562C19.812 9.39941 20.105 9.13086 20.459 9.13086L25.4272 9.13086C25.7812 9.13086 26.0742 9.39941 26.0742 9.76562C26.0742 10.1196 25.7812 10.4004 25.4272 10.4004L20.459 10.4004C20.105 10.4004 19.812 10.1196 19.812 9.76562ZM19.812 7.17773C19.812 6.81152 20.105 6.51855 20.459 6.51855L25.4272 6.51855C25.7812 6.51855 26.0742 6.81152 26.0742 7.17773C26.0742 7.51953 25.7812 7.80029 25.4272 7.80029L20.459 7.80029C20.105 7.80029 19.812 7.51953 19.812 7.17773ZM11.5845 9.76562C11.5845 9.39941 11.8652 9.13086 12.2314 9.13086L17.1997 9.13086C17.5415 9.13086 17.8345 9.39941 17.8345 9.76562C17.8345 10.1196 17.5415 10.4004 17.1997 10.4004L12.2314 10.4004C11.8652 10.4004 11.5845 10.1196 11.5845 9.76562ZM11.5845 7.17773C11.5845 6.81152 11.8652 6.51855 12.2314 6.51855L17.1997 6.51855C17.5415 6.51855 17.8345 6.81152 17.8345 7.17773C17.8345 7.51953 17.5415 7.80029 17.1997 7.80029L12.2314 7.80029C11.8652 7.80029 11.5845 7.51953 11.5845 7.17773ZM3.33252 9.76562C3.33252 9.39941 3.62549 9.13086 3.96729 9.13086L8.93555 9.13086C9.30176 9.13086 9.58252 9.39941 9.58252 9.76562C9.58252 10.1196 9.30176 10.4004 8.93555 10.4004L3.96729 10.4004C3.62549 10.4004 3.33252 10.1196 3.33252 9.76562ZM3.33252 7.17773C3.33252 6.81152 3.62549 6.51855 3.96729 6.51855L8.93555 6.51855C9.30176 6.51855 9.58252 6.81152 9.58252 7.17773C9.58252 7.51953 9.30176 7.80029 8.93555 7.80029L3.96729 7.80029C3.62549 7.80029 3.33252 7.51953 3.33252 7.17773Z" fill="#5ac8f5" fill-opacity="0.5"/>
 </g>
</svg>
