<?xml version="1.0" encoding="UTF-8"?>
<!--Generator: Apple Native CoreSVG 175.5-->
<!DOCTYPE svg
PUBLIC "-//W3C//DTD SVG 1.1//EN"
       "http://www.w3.org/Graphics/SVG/1.1/DTD/svg11.dtd">
<svg version="1.1" xmlns="http://www.w3.org/2000/svg" xmlns:xlink="http://www.w3.org/1999/xlink" width="29.5166" height="22.4976">
 <g>
  <rect height="22.4976" opacity="0" width="29.5166" x="0" y="0"/>
  <path d="M10.498 0.0244141C3.22266 0.0244141 0 3.35693 0 10.1929L0 18.7134C0 21.2402 1.28174 22.4976 3.83301 22.4976L25.6836 22.4976C28.2349 22.4976 29.5166 21.228 29.5166 18.7134L29.5166 10.1929C29.5166 3.35693 26.2939 0.0244141 19.0308 0.0244141ZM7.06787 17.0776C6.4209 17.0776 6.0791 16.626 6.0791 15.9424L6.0791 6.5918C6.0791 5.92041 6.4209 5.45654 7.06787 5.45654L10.6812 5.45654C13.2446 5.45654 14.8682 6.89697 14.8682 9.15527C14.8682 10.73 13.9038 12.0483 12.4268 12.5488L14.3188 15.4785C14.4775 15.7349 14.5386 15.9302 14.5386 16.2109C14.5386 16.7236 14.1602 17.0776 13.623 17.0776C13.1714 17.0776 12.9272 16.8945 12.6221 16.4185L10.437 12.8418L8.09326 12.8418L8.09326 15.9424C8.09326 16.6626 7.73926 17.0776 7.06787 17.0776ZM8.09326 11.3525L10.3882 11.3525C11.9141 11.3525 12.854 10.5957 12.854 9.2041C12.854 7.80029 11.8896 6.99463 10.4492 6.99463L8.09326 6.99463ZM17.395 16.9312C16.8457 16.9312 16.5039 16.6016 16.5039 16.1011C16.5039 15.8325 16.6138 15.6006 16.8457 15.3564L20.8618 11.1206C21.5942 10.3394 22.3633 9.57031 22.3633 8.65479C22.3633 7.60498 21.582 6.92139 20.3857 6.92139C19.165 6.92139 18.5181 7.72705 18.1763 8.48389C17.9443 8.83789 17.7124 9.11865 17.2729 9.11865C16.7847 9.11865 16.4551 8.80127 16.4551 8.31299C16.4551 8.14209 16.4673 7.99561 16.5161 7.80029C16.9312 6.39648 18.5059 5.31006 20.3003 5.31006C22.6318 5.31006 24.1699 6.57959 24.1699 8.49609C24.1699 9.8999 23.4009 10.9131 22.2778 12.085L19.2871 15.1855L19.2871 15.2832L23.7427 15.2832C24.2432 15.2832 24.5972 15.5762 24.5972 16.1011C24.5972 16.6016 24.2432 16.9312 23.7427 16.9312Z" fill="#5ac8f5"/>
 </g>
</svg>
