<?xml version="1.0" encoding="UTF-8"?>
<!--Generator: Apple Native CoreSVG 175.5-->
<!DOCTYPE svg
PUBLIC "-//W3C//DTD SVG 1.1//EN"
       "http://www.w3.org/Graphics/SVG/1.1/DTD/svg11.dtd">
<svg version="1.1" xmlns="http://www.w3.org/2000/svg" xmlns:xlink="http://www.w3.org/1999/xlink" width="24.9023" height="24.9146">
 <g>
  <rect height="24.9146" opacity="0" width="24.9023" x="0" y="0"/>
  <path d="M12.4512 24.9023C19.2627 24.9023 24.9023 19.2505 24.9023 12.4512C24.9023 5.63965 19.2505 0 12.439 0C5.63965 0 0 5.63965 0 12.4512C0 19.2505 5.65186 24.9023 12.4512 24.9023ZM12.4512 22.8271C6.68945 22.8271 2.0874 18.2129 2.0874 12.4512C2.0874 6.68945 6.67725 2.0752 12.439 2.0752C18.2007 2.0752 22.8271 6.68945 22.8271 12.4512C22.8271 18.2129 18.2129 22.8271 12.4512 22.8271ZM9.63135 17.8955L15.4053 17.8955C15.8691 17.8955 16.2109 17.5903 16.2109 17.1021C16.2109 16.6016 15.8691 16.2964 15.4053 16.2964L10.6201 16.2964L10.6201 13.0127L15.0879 13.0127C15.5518 13.0127 15.8936 12.7441 15.8936 12.2681C15.8936 11.7676 15.5518 11.4868 15.0879 11.4868L10.6201 11.4868L10.6201 8.37402L15.4053 8.37402C15.8691 8.37402 16.2109 8.05664 16.2109 7.56836C16.2109 7.06787 15.8691 6.7749 15.4053 6.7749L9.63135 6.7749C8.99658 6.7749 8.66699 7.21436 8.66699 7.87354L8.66699 16.7969C8.66699 17.4561 8.99658 17.8955 9.63135 17.8955Z" fill="#5ac8f5"/>
 </g>
</svg>
