<?xml version="1.0" encoding="UTF-8"?>
<!--Generator: Apple Native CoreSVG 175.5-->
<!DOCTYPE svg
PUBLIC "-//W3C//DTD SVG 1.1//EN"
       "http://www.w3.org/Graphics/SVG/1.1/DTD/svg11.dtd">
<svg version="1.1" xmlns="http://www.w3.org/2000/svg" xmlns:xlink="http://www.w3.org/1999/xlink" width="35.0006" height="25.788">
 <g>
  <rect height="25.788" opacity="0" width="35.0006" x="0" y="0"/>
  <path d="M21.8048 24.1794C23.0988 22.8977 22.6959 21.9333 21.3898 20.8591L17.9718 18.0881C16.6901 17.0505 15.8722 17.4778 14.9445 18.3322L14.737 18.5398C13.9191 19.2966 12.7106 18.674 9.91517 15.8786C7.31508 13.2663 6.50941 11.7893 7.24183 11.0569L7.44935 10.8371C8.37709 9.9216 8.73109 9.09152 7.7057 7.82199L4.9225 4.37961C3.87269 3.07345 2.89613 2.68283 1.61439 3.96457C-1.92565 7.50461 0.662243 13.6325 6.39955 19.382C12.1491 25.1316 18.2892 27.7072 21.8048 24.1794ZM12.1002 8.57883L14.2975 8.57883C15.152 8.57883 15.6403 8.09054 15.6403 7.22384L15.6403 5.01437C15.6403 4.14767 15.152 3.65939 14.2975 3.65939L12.1002 3.65939C11.2213 3.65939 10.7208 4.14767 10.7208 5.01437L10.7208 7.22384C10.7208 8.09054 11.2213 8.57883 12.1002 8.57883ZM18.5455 8.57883L20.7428 8.57883C21.5973 8.57883 22.0978 8.09054 22.0978 7.22384L22.0978 5.01437C22.0978 4.14767 21.5973 3.65939 20.7428 3.65939L18.5455 3.65939C17.6788 3.65939 17.1661 4.14767 17.1661 5.01437L17.1661 7.22384C17.1661 8.09054 17.6788 8.57883 18.5455 8.57883ZM24.9786 8.57883L27.1759 8.57883C28.0426 8.57883 28.5431 8.09054 28.5431 7.22384L28.5431 5.01437C28.5431 4.14767 28.0426 3.65939 27.1759 3.65939L24.9786 3.65939C24.112 3.65939 23.6237 4.14767 23.6237 5.01437L23.6237 7.22384C23.6237 8.09054 24.112 8.57883 24.9786 8.57883ZM31.4118 8.57883L33.6212 8.57883C34.4879 8.57883 35.0006 8.09054 35.0006 7.22384L35.0006 5.01437C35.0006 4.14767 34.4879 3.65939 33.6212 3.65939L31.4118 3.65939C30.5573 3.65939 30.0812 4.14767 30.0812 5.01437L30.0812 7.22384C30.0812 8.09054 30.5573 8.57883 31.4118 8.57883ZM12.0636 15.0363L14.2609 15.0363C15.1398 15.0363 15.6403 14.5481 15.6403 13.6814L15.6403 11.4597C15.6403 10.6052 15.1398 10.1047 14.2609 10.1047L12.0636 10.1047C11.2091 10.1047 10.7208 10.6052 10.7208 11.4597L10.7208 13.6814C10.7208 14.5481 11.2091 15.0363 12.0636 15.0363ZM18.5089 15.0363L27.2125 15.0363C28.0792 15.0363 28.5553 14.5481 28.5553 13.6814L28.5553 11.4597C28.5553 10.6052 28.0792 10.1047 27.2125 10.1047L18.5089 10.1047C17.6422 10.1047 17.1661 10.6052 17.1661 11.4597L17.1661 13.6814C17.1661 14.5481 17.6422 15.0363 18.5089 15.0363ZM31.4606 15.0363L33.6578 15.0363C34.5245 15.0363 35.0006 14.5481 35.0006 13.6814L35.0006 11.4597C35.0006 10.6052 34.5245 10.1047 33.6578 10.1047L31.4606 10.1047C30.5939 10.1047 30.0934 10.6052 30.0934 11.4597L30.0934 13.6814C30.0934 14.5481 30.5939 15.0363 31.4606 15.0363Z" fill="#5ac8f5"/>
 </g>
</svg>
