<?xml version="1.0" encoding="UTF-8"?>
<!--Generator: Apple Native CoreSVG 175.5-->
<!DOCTYPE svg
PUBLIC "-//W3C//DTD SVG 1.1//EN"
       "http://www.w3.org/Graphics/SVG/1.1/DTD/svg11.dtd">
<svg version="1.1" xmlns="http://www.w3.org/2000/svg" xmlns:xlink="http://www.w3.org/1999/xlink" width="24.9023" height="24.9146">
 <g>
  <rect height="24.9146" opacity="0" width="24.9023" x="0" y="0"/>
  <path d="M12.4512 24.9023C19.2627 24.9023 24.9023 19.2505 24.9023 12.4512C24.9023 5.63965 19.2505 0 12.439 0C5.63965 0 0 5.63965 0 12.4512C0 19.2505 5.65186 24.9023 12.4512 24.9023ZM12.4512 22.8271C6.68945 22.8271 2.0874 18.2129 2.0874 12.4512C2.0874 6.68945 6.67725 2.0752 12.439 2.0752C18.2007 2.0752 22.8271 6.68945 22.8271 12.4512C22.8271 18.2129 18.2129 22.8271 12.4512 22.8271Z" fill="#5ac8f5" fill-opacity="0.5"/>
  <path d="M7.09229 13.2935C7.09229 13.5986 7.33643 13.8184 7.65381 13.8184L11.792 13.8184L9.58252 19.751C9.28955 20.5322 10.1196 20.9595 10.6323 20.3247L17.3218 11.9263C17.4561 11.7798 17.5293 11.6089 17.5293 11.4502C17.5293 11.145 17.2852 10.9253 16.9678 10.9253L12.8296 10.9253L15.0391 4.99268C15.332 4.21143 14.502 3.78418 13.9893 4.40674L7.2998 12.8052C7.16553 12.9639 7.09229 13.1348 7.09229 13.2935Z" fill="#5ac8f5"/>
 </g>
</svg>
