<?xml version="1.0" encoding="UTF-8"?>
<!--Generator: Apple Native CoreSVG 175.5-->
<!DOCTYPE svg
PUBLIC "-//W3C//DTD SVG 1.1//EN"
       "http://www.w3.org/Graphics/SVG/1.1/DTD/svg11.dtd">
<svg version="1.1" xmlns="http://www.w3.org/2000/svg" xmlns:xlink="http://www.w3.org/1999/xlink" width="29.6667" height="27.1012">
 <g>
  <rect height="27.1012" opacity="0" width="29.6667" x="0" y="0"/>
  <path d="M3.71094 19.9654L8.93555 19.9654L8.26416 19.1231C7.78809 18.5494 7.50732 17.8169 7.50732 17.0357C7.50732 15.3755 8.78906 14.0572 10.5103 14.0572C10.9863 14.0572 11.4258 14.1915 11.8408 14.4356L12.1216 14.7408L9.33838 7.06255C9.19189 6.65972 9.11865 6.25689 9.11865 5.87847C9.11865 4.15728 10.2539 2.85112 12.1582 2.85112C13.4277 2.85112 14.563 3.669 15.0269 4.97515L16.4795 8.93023C16.9434 8.74712 17.395 8.63726 17.9321 8.63726C18.6523 8.63726 19.2993 8.85698 19.8608 9.27202C20.3369 8.86919 21.1304 8.64946 21.8384 8.64946C22.4609 8.64946 23.0469 8.82036 23.584 9.14995L23.584 9.14995L23.584 3.97417C23.584 1.53276 22.3633 0.312062 19.8853 0.312062L3.71094 0.312062C1.23291 0.312062 0 1.52056 0 3.97417L0 16.3155C0 18.7691 1.23291 19.9654 3.71094 19.9654ZM24.1821 26.5084C29.1626 24.6895 30.8105 20.5757 28.8818 15.2291L28.0762 13.0196C27.356 11.0176 25.9277 10.1265 24.8291 10.5293C24.585 10.627 24.5117 10.7979 24.585 11.0298L24.939 12.0186C25.0977 12.4703 24.9512 12.7876 24.6826 12.8975C24.3774 13.0074 24.0601 12.8609 23.8892 12.397L23.6572 11.75C23.2178 10.566 22.1924 10.0655 21.1548 10.4439C20.6909 10.6148 20.5444 10.8711 20.6909 11.274L21.1792 12.5923C21.3623 13.0562 21.1914 13.3736 20.9229 13.4712C20.6299 13.5811 20.3003 13.4346 20.1416 12.983L19.7021 11.75C19.2261 10.4073 18.2007 10.0777 17.2119 10.4439C16.7725 10.5904 16.6138 10.8956 16.748 11.2618L17.688 13.8741C17.8589 14.3379 17.7124 14.6431 17.4438 14.753C17.1387 14.8628 16.8213 14.7164 16.6504 14.2525L13.4888 5.54888C13.1714 4.69439 12.4146 4.34038 11.7065 4.60894C10.9253 4.90191 10.5957 5.63433 10.9009 6.48882L15.5518 19.233C15.6738 19.5503 15.5151 19.7823 15.3198 19.8555C15.1245 19.9043 14.9292 19.8677 14.6729 19.5992L11.5479 16.23C11.0718 15.7295 10.5957 15.6197 10.083 15.815C9.30176 16.108 8.98438 16.816 9.22852 17.4751C9.31396 17.7193 9.44824 17.9268 9.58252 18.0855L13.4644 22.9439C16.7358 27.0455 20.5078 27.8389 24.1821 26.5084Z" fill="#5ac8f5"/>
 </g>
</svg>
