<?xml version="1.0" encoding="UTF-8"?>
<!--Generator: Apple Native CoreSVG 175.5-->
<!DOCTYPE svg
PUBLIC "-//W3C//DTD SVG 1.1//EN"
       "http://www.w3.org/Graphics/SVG/1.1/DTD/svg11.dtd">
<svg version="1.1" xmlns="http://www.w3.org/2000/svg" xmlns:xlink="http://www.w3.org/1999/xlink" width="24.9023" height="24.9146">
 <g>
  <rect height="24.9146" opacity="0" width="24.9023" x="0" y="0"/>
  <path d="M2.80762 17.8345L4.1748 15.2222C4.5166 14.5752 4.88281 14.1602 5.27344 14.1602C5.65186 14.1602 6.05469 14.5508 6.64062 15.3076C7.76367 16.7603 8.53271 17.5049 9.31396 17.5049C10.0708 17.5049 10.9497 16.4307 10.9497 15.6982C10.9497 15.1611 10.2173 14.6606 10.2173 14.3921C10.2173 14.27 10.3271 14.1968 10.5347 14.1968C12.3169 14.1968 13.8672 12.7319 13.8672 11.5479C13.8672 10.437 12.6587 9.59473 12.6587 9.21631C12.6587 9.14307 12.7197 9.08203 12.793 9.08203C12.9028 9.08203 13.0493 9.2041 13.3301 9.42383C14.6973 10.5103 15.3809 9.8999 15.5029 9.21631C15.5518 8.94775 15.6982 8.6792 16.3696 8.3374C17.6392 7.67822 18.9331 6.53076 18.9331 5.57861C18.9331 4.3457 17.2729 3.8208 17.2729 3.52783C17.2729 3.34473 17.6758 3.17383 18.4448 2.9541L18.1396 1.75781C16.8579 2.0874 15.8936 2.70996 15.8936 3.45459C15.8936 4.43115 17.7002 4.99268 17.7002 5.57861C17.7002 6.14014 16.6626 6.7749 15.8936 7.18994C14.5874 7.93457 14.6851 8.27637 14.5142 8.65479C14.209 9.2041 13.6108 8.06885 12.5977 8.06885C11.9873 8.06885 11.5234 8.45947 11.5234 9.06982C11.5234 10.0098 12.6343 10.8887 12.6343 11.5479C12.6343 12.3291 11.731 13.0859 10.1807 13.0859C9.32617 13.0859 8.8623 13.4644 8.8623 14.1235C8.8623 14.7705 9.66797 15.3809 9.66797 15.6982C9.66797 15.9302 9.48486 16.1621 9.33838 16.1621C9.08203 16.1621 8.52051 15.6982 7.61719 14.5508C6.82373 13.5132 6.09131 12.9272 5.34668 12.9272C4.29688 12.9272 3.6377 13.7939 3.25928 14.4897L2.06299 16.687ZM17.8833 22.8638L18.8721 22.1069C18.3228 21.3745 17.627 20.3125 16.1743 20.3125C15.2832 20.3125 15.1001 20.6055 14.4897 20.6055C14.1235 20.6055 13.9282 20.2881 13.7695 19.6167C13.623 19.0308 13.562 18.6035 13.9404 18.4448C14.3799 18.2739 15.8569 18.103 16.3574 16.5405C16.7114 15.4785 17.041 15.0635 17.627 15.0635C18.6768 15.0635 18.5059 16.1743 19.7632 16.1743C20.3125 16.1743 20.6055 15.9424 20.9961 15.9424C21.5332 15.9424 21.8994 16.4673 21.9971 17.749L23.23 17.2607C23.0225 15.6494 22.2534 14.7095 21.167 14.7095C20.8862 14.7095 20.52 14.7583 20.1904 14.8682C19.7876 15.0024 19.7266 14.978 19.4092 14.6118C18.9087 14.0381 18.4692 13.8306 17.7734 13.8306C16.5405 13.8306 15.7471 14.4287 15.1611 16.1865C15.0146 16.6626 14.8071 16.8213 13.9648 17.1387L13.4521 17.3218C12.4878 17.688 12.207 18.396 12.5488 19.8853C12.854 21.1914 13.4888 21.8506 14.3799 21.8506C15.1733 21.8506 15.6494 21.5698 16.1743 21.5698C16.9434 21.5454 17.3096 22.0581 17.8833 22.8638ZM15.3931 11.7065C16.1865 11.7065 16.5405 10.9985 17.4316 10.73C18.0176 10.5591 18.335 9.96094 18.335 9.44824C18.335 9.0332 18.1274 8.6792 17.6758 8.6792C17.1997 8.6792 16.7603 9.04541 16.4673 9.66797C16.3086 10.022 16.04 10.1929 15.3931 10.376C14.8804 10.5347 14.6973 10.7178 14.6973 11.1084C14.6973 11.5234 15.0269 11.7065 15.3931 11.7065ZM11.853 17.3462C12.5488 17.3462 13.2324 16.5405 13.2324 15.8203C13.2324 14.9292 12.8662 14.5142 12.439 14.5142C11.9751 14.5142 11.6821 15.0635 11.6821 15.8936C11.6821 16.3696 11.2671 16.3818 11.2671 16.8579C11.2671 17.1509 11.499 17.3462 11.853 17.3462ZM9.7168 19.5801C10.2539 19.5801 10.5835 19.2993 10.5835 18.8599C10.5835 18.5181 10.3271 18.2983 9.96094 18.2983C8.48389 18.2983 8.42285 17.4683 7.71484 17.4683C7.32422 17.4683 7.05566 17.7002 7.05566 18.042C7.05566 18.3105 7.32422 18.5181 7.69043 18.5181C8.47168 18.5181 8.10547 19.5801 9.7168 19.5801ZM12.4512 24.9023C19.2627 24.9023 24.9023 19.2505 24.9023 12.4512C24.9023 5.63965 19.2505 0 12.439 0C5.63965 0 0 5.63965 0 12.4512C0 19.2505 5.65186 24.9023 12.4512 24.9023ZM12.4512 23.2422C6.55518 23.2422 1.66016 18.3472 1.66016 12.4512C1.66016 6.55518 6.54297 1.66016 12.439 1.66016C18.335 1.66016 23.2422 6.55518 23.2422 12.4512C23.2422 18.3472 18.3472 23.2422 12.4512 23.2422Z" fill="#5ac8f5"/>
 </g>
</svg>
